0, 0, Header, 1, 10, 384
1, 0, Start_track
1, 0, Time_signature, 6, 3, 96, 8
1, 0, Sequencer_specific, 03, 00, 00, 41
1, 0, Sequencer_specific, 05, 00, 00, 77, 0E, 00
1, 0, Tempo, 600000
1, 4, Tempo, 597014
1, 8, Tempo, 594059
1, 14, Tempo, 591133
1, 18, Tempo, 588235
1, 24, Tempo, 585365
1, 28, Tempo, 582524
1, 32, Tempo, 579710
1, 38, Tempo, 576923
1, 42, Tempo, 574162
1, 48, Tempo, 571428
1, 52, Tempo, 568720
1, 56, Tempo, 566037
1, 62, Tempo, 563380
1, 66, Tempo, 560747
1, 72, Tempo, 558139
1, 76, Tempo, 555555
1, 80, Tempo, 552995
1, 86, Tempo, 550458
1, 90, Tempo, 547945
1, 96, Tempo, 545454
1, 100, Tempo, 542986
1, 104, Tempo, 540540
1, 110, Tempo, 538116
1, 114, Tempo, 535714
1, 120, Tempo, 533333
1, 124, Tempo, 530973
1, 128, Tempo, 528634
1, 134, Tempo, 526315
1, 138, Tempo, 524017
1, 144, Tempo, 521739
1, 148, Tempo, 519480
1, 152, Tempo, 517241
1, 158, Tempo, 515021
1, 162, Tempo, 512820
1, 168, Tempo, 510638
1, 172, Tempo, 508474
1, 176, Tempo, 506329
1, 182, Tempo, 504201
1, 186, Tempo, 502092
1, 192, Tempo, 500000
1, 1152, Tempo, 545454
1, 1160, Tempo, 542986
1, 1170, Tempo, 540540
1, 1180, Tempo, 538116
1, 1190, Tempo, 535714
1, 1200, Tempo, 533333
1, 1208, Tempo, 530973
1, 1218, Tempo, 528634
1, 1228, Tempo, 526315
1, 1238, Tempo, 524017
1, 1248, Tempo, 521739
1, 1256, Tempo, 519480
1, 1266, Tempo, 517241
1, 1276, Tempo, 515021
1, 1286, Tempo, 512820
1, 1296, Tempo, 510638
1, 1304, Tempo, 508474
1, 1314, Tempo, 506329
1, 1324, Tempo, 504201
1, 1334, Tempo, 502092
1, 1344, Tempo, 500000
1, 2304, Tempo, 571428
1, 2310, Tempo, 568720
1, 2316, Tempo, 566037
1, 2322, Tempo, 563380
1, 2328, Tempo, 560747
1, 2336, Tempo, 558139
1, 2342, Tempo, 555555
1, 2348, Tempo, 552995
1, 2354, Tempo, 550458
1, 2360, Tempo, 547945
1, 2368, Tempo, 545454
1, 2374, Tempo, 542986
1, 2380, Tempo, 540540
1, 2386, Tempo, 538116
1, 2392, Tempo, 535714
1, 2400, Tempo, 533333
1, 2406, Tempo, 530973
1, 2412, Tempo, 528634
1, 2418, Tempo, 526315
1, 2424, Tempo, 524017
1, 2432, Tempo, 521739
1, 2438, Tempo, 519480
1, 2444, Tempo, 517241
1, 2450, Tempo, 515021
1, 2456, Tempo, 512820
1, 2464, Tempo, 510638
1, 2470, Tempo, 508474
1, 2476, Tempo, 506329
1, 2482, Tempo, 504201
1, 2488, Tempo, 502092
1, 2496, Tempo, 500000
1, 3456, Tempo, 545454
1, 3464, Tempo, 542986
1, 3474, Tempo, 540540
1, 3484, Tempo, 538116
1, 3494, Tempo, 535714
1, 3504, Tempo, 533333
1, 3512, Tempo, 530973
1, 3522, Tempo, 528634
1, 3532, Tempo, 526315
1, 3542, Tempo, 524017
1, 3552, Tempo, 521739
1, 3560, Tempo, 519480
1, 3570, Tempo, 517241
1, 3580, Tempo, 515021
1, 3590, Tempo, 512820
1, 3600, Tempo, 510638
1, 3608, Tempo, 508474
1, 3618, Tempo, 506329
1, 3628, Tempo, 504201
1, 3638, Tempo, 502092
1, 3648, Tempo, 500000
1, 4608, Tempo, 666666
1, 4610, Tempo, 662983
1, 4612, Tempo, 659340
1, 4614, Tempo, 655737
1, 4616, Tempo, 652173
1, 4620, Tempo, 648648
1, 4622, Tempo, 645161
1, 4624, Tempo, 641711
1, 4626, Tempo, 638297
1, 4628, Tempo, 634920
1, 4632, Tempo, 631578
1, 4634, Tempo, 628272
1, 4636, Tempo, 625000
1, 4638, Tempo, 621761
1, 4640, Tempo, 618556
1, 4644, Tempo, 615384
1, 4646, Tempo, 612244
1, 4648, Tempo, 609137
1, 4650, Tempo, 606060
1, 4652, Tempo, 603015
1, 4656, Tempo, 600000
1, 4658, Tempo, 597014
1, 4660, Tempo, 594059
1, 4662, Tempo, 591133
1, 4664, Tempo, 588235
1, 4668, Tempo, 585365
1, 4670, Tempo, 582524
1, 4672, Tempo, 579710
1, 4674, Tempo, 576923
1, 4676, Tempo, 574162
1, 4680, Tempo, 571428
1, 4682, Tempo, 568720
1, 4684, Tempo, 566037
1, 4686, Tempo, 563380
1, 4688, Tempo, 560747
1, 4692, Tempo, 558139
1, 4694, Tempo, 555555
1, 4696, Tempo, 552995
1, 4698, Tempo, 550458
1, 4700, Tempo, 547945
1, 4704, Tempo, 545454
1, 4708, Tempo, 528634
1, 4722, Tempo, 526315
1, 4736, Tempo, 524017
1, 4752, Tempo, 521739
1, 4766, Tempo, 519480
1, 4780, Tempo, 517241
1, 4794, Tempo, 515021
1, 4808, Tempo, 512820
1, 4824, Tempo, 510638
1, 4838, Tempo, 508474
1, 4852, Tempo, 506329
1, 4866, Tempo, 504201
1, 4880, Tempo, 502092
1, 4896, Tempo, 500000
1, 5760, Tempo, 545454
1, 5764, Tempo, 542986
1, 5768, Tempo, 540540
1, 5774, Tempo, 538116
1, 5778, Tempo, 535714
1, 5784, Tempo, 533333
1, 5788, Tempo, 530973
1, 5792, Tempo, 528634
1, 5798, Tempo, 526315
1, 5802, Tempo, 524017
1, 5808, Tempo, 521739
1, 5812, Tempo, 519480
1, 5816, Tempo, 517241
1, 5822, Tempo, 515021
1, 5826, Tempo, 512820
1, 5832, Tempo, 510638
1, 5836, Tempo, 508474
1, 5840, Tempo, 506329
1, 5846, Tempo, 504201
1, 5850, Tempo, 502092
1, 5856, Tempo, 500000
1, 9216, Tempo, 600000
1, 9218, Tempo, 597014
1, 9220, Tempo, 594059
1, 9222, Tempo, 591133
1, 9224, Tempo, 588235
1, 9228, Tempo, 585365
1, 9230, Tempo, 582524
1, 9232, Tempo, 579710
1, 9234, Tempo, 576923
1, 9236, Tempo, 574162
1, 9240, Tempo, 571428
1, 9242, Tempo, 568720
1, 9244, Tempo, 566037
1, 9246, Tempo, 563380
1, 9248, Tempo, 560747
1, 9252, Tempo, 558139
1, 9254, Tempo, 555555
1, 9256, Tempo, 552995
1, 9258, Tempo, 550458
1, 9260, Tempo, 547945
1, 9264, Tempo, 545454
1, 9266, Tempo, 542986
1, 9268, Tempo, 540540
1, 9270, Tempo, 538116
1, 9272, Tempo, 535714
1, 9276, Tempo, 533333
1, 9278, Tempo, 530973
1, 9280, Tempo, 528634
1, 9282, Tempo, 526315
1, 9284, Tempo, 524017
1, 9288, Tempo, 521739
1, 9290, Tempo, 519480
1, 9292, Tempo, 517241
1, 9294, Tempo, 515021
1, 9296, Tempo, 512820
1, 9300, Tempo, 510638
1, 9302, Tempo, 508474
1, 9304, Tempo, 506329
1, 9306, Tempo, 504201
1, 9308, Tempo, 502092
1, 9312, Tempo, 500000
1, 11520, Tempo, 600000
1, 11522, Tempo, 597014
1, 11524, Tempo, 594059
1, 11526, Tempo, 591133
1, 11528, Tempo, 588235
1, 11532, Tempo, 585365
1, 11534, Tempo, 582524
1, 11536, Tempo, 579710
1, 11538, Tempo, 576923
1, 11540, Tempo, 574162
1, 11544, Tempo, 571428
1, 11546, Tempo, 568720
1, 11548, Tempo, 566037
1, 11550, Tempo, 563380
1, 11552, Tempo, 560747
1, 11556, Tempo, 558139
1, 11558, Tempo, 555555
1, 11560, Tempo, 552995
1, 11562, Tempo, 550458
1, 11564, Tempo, 547945
1, 11568, Tempo, 545454
1, 11570, Tempo, 542986
1, 11572, Tempo, 540540
1, 11574, Tempo, 538116
1, 11576, Tempo, 535714
1, 11580, Tempo, 533333
1, 11582, Tempo, 530973
1, 11584, Tempo, 528634
1, 11586, Tempo, 526315
1, 11588, Tempo, 524017
1, 11592, Tempo, 521739
1, 11594, Tempo, 519480
1, 11596, Tempo, 517241
1, 11598, Tempo, 515021
1, 11600, Tempo, 512820
1, 11604, Tempo, 510638
1, 11606, Tempo, 508474
1, 11608, Tempo, 506329
1, 11610, Tempo, 504201
1, 11612, Tempo, 502092
1, 11616, Tempo, 500000
1, 13824, Tempo, 545454
1, 13832, Tempo, 542986
1, 13842, Tempo, 540540
1, 13852, Tempo, 538116
1, 13862, Tempo, 535714
1, 13872, Tempo, 533333
1, 13880, Tempo, 530973
1, 13890, Tempo, 528634
1, 13900, Tempo, 526315
1, 13910, Tempo, 524017
1, 13920, Tempo, 521739
1, 13928, Tempo, 519480
1, 13938, Tempo, 517241
1, 13948, Tempo, 515021
1, 13958, Tempo, 512820
1, 13968, Tempo, 510638
1, 13976, Tempo, 508474
1, 13986, Tempo, 506329
1, 13996, Tempo, 504201
1, 14006, Tempo, 502092
1, 14016, Tempo, 500000
1, 17376, Tempo, 500000
1, 17390, Tempo, 502092
1, 17404, Tempo, 504201
1, 17418, Tempo, 506329
1, 17432, Tempo, 508474
1, 17448, Tempo, 510638
1, 17462, Tempo, 512820
1, 17476, Tempo, 515021
1, 17490, Tempo, 517241
1, 17504, Tempo, 519480
1, 17520, Tempo, 521739
1, 17534, Tempo, 524017
1, 17548, Tempo, 526315
1, 17562, Tempo, 528634
1, 17576, Tempo, 530973
1, 17592, Tempo, 533333
1, 17606, Tempo, 535714
1, 17620, Tempo, 538116
1, 17634, Tempo, 540540
1, 17648, Tempo, 542986
1, 17664, Tempo, 545454
1, 17760, Tempo, 502092
1, 17762, Tempo, 504201
1, 17764, Tempo, 506329
1, 17766, Tempo, 508474
1, 17768, Tempo, 512820
1, 17770, Tempo, 515021
1, 17772, Tempo, 517241
1, 17774, Tempo, 519480
1, 17776, Tempo, 524017
1, 17778, Tempo, 526315
1, 17780, Tempo, 528634
1, 17782, Tempo, 530973
1, 17784, Tempo, 535714
1, 17786, Tempo, 538116
1, 17788, Tempo, 540540
1, 17790, Tempo, 542986
1, 17792, Tempo, 547945
1, 17794, Tempo, 550458
1, 17796, Tempo, 552995
1, 17798, Tempo, 555555
1, 17800, Tempo, 560747
1, 17802, Tempo, 563380
1, 17804, Tempo, 566037
1, 17806, Tempo, 568720
1, 17808, Tempo, 574162
1, 17810, Tempo, 576923
1, 17812, Tempo, 579710
1, 17814, Tempo, 582524
1, 17816, Tempo, 588235
1, 17818, Tempo, 591133
1, 17820, Tempo, 594059
1, 17822, Tempo, 597014
1, 17824, Tempo, 603015
1, 17826, Tempo, 606060
1, 17828, Tempo, 609137
1, 17830, Tempo, 612244
1, 17832, Tempo, 618556
1, 17834, Tempo, 621761
1, 17836, Tempo, 625000
1, 17838, Tempo, 628272
1, 17840, Tempo, 634920
1, 17842, Tempo, 638297
1, 17844, Tempo, 641711
1, 17846, Tempo, 645161
1, 17848, Tempo, 652173
1, 17850, Tempo, 655737
1, 17852, Tempo, 659340
1, 17854, Tempo, 662983
1, 17856, Tempo, 750000
1, 17884, Tempo, 745341
1, 17912, Tempo, 740740
1, 17942, Tempo, 736196
1, 17970, Tempo, 731707
1, 18000, Tempo, 727272
1, 18028, Tempo, 722891
1, 18056, Tempo, 718562
1, 18086, Tempo, 714285
1, 18114, Tempo, 710059
1, 18144, Tempo, 705882
1, 18172, Tempo, 701754
1, 18200, Tempo, 697674
1, 18230, Tempo, 693641
1, 18258, Tempo, 689655
1, 18288, Tempo, 685714
1, 18316, Tempo, 681818
1, 18344, Tempo, 677966
1, 18374, Tempo, 674157
1, 18402, Tempo, 670391
1, 18432, Tempo, 666666
1, 18436, Tempo, 597014
1, 18440, Tempo, 594059
1, 18446, Tempo, 591133
1, 18450, Tempo, 588235
1, 18456, Tempo, 585365
1, 18460, Tempo, 582524
1, 18464, Tempo, 579710
1, 18470, Tempo, 576923
1, 18474, Tempo, 574162
1, 18480, Tempo, 571428
1, 18484, Tempo, 568720
1, 18488, Tempo, 566037
1, 18494, Tempo, 563380
1, 18498, Tempo, 560747
1, 18504, Tempo, 558139
1, 18508, Tempo, 555555
1, 18512, Tempo, 552995
1, 18518, Tempo, 550458
1, 18522, Tempo, 547945
1, 18528, Tempo, 545454
1, 18532, Tempo, 542986
1, 18536, Tempo, 540540
1, 18542, Tempo, 538116
1, 18546, Tempo, 535714
1, 18552, Tempo, 533333
1, 18556, Tempo, 530973
1, 18560, Tempo, 528634
1, 18566, Tempo, 526315
1, 18570, Tempo, 524017
1, 18576, Tempo, 521739
1, 18580, Tempo, 519480
1, 18584, Tempo, 517241
1, 18590, Tempo, 515021
1, 18594, Tempo, 512820
1, 18600, Tempo, 510638
1, 18604, Tempo, 508474
1, 18608, Tempo, 506329
1, 18614, Tempo, 504201
1, 18618, Tempo, 502092
1, 18624, Tempo, 500000
1, 19584, Tempo, 545454
1, 19592, Tempo, 542986
1, 19602, Tempo, 540540
1, 19612, Tempo, 538116
1, 19622, Tempo, 535714
1, 19632, Tempo, 533333
1, 19640, Tempo, 530973
1, 19650, Tempo, 528634
1, 19660, Tempo, 526315
1, 19670, Tempo, 524017
1, 19680, Tempo, 521739
1, 19688, Tempo, 519480
1, 19698, Tempo, 517241
1, 19708, Tempo, 515021
1, 19718, Tempo, 512820
1, 19728, Tempo, 510638
1, 19736, Tempo, 508474
1, 19746, Tempo, 506329
1, 19756, Tempo, 504201
1, 19766, Tempo, 502092
1, 19776, Tempo, 500000
1, 20736, Tempo, 571428
1, 20738, Tempo, 568720
1, 20742, Tempo, 566037
1, 20744, Tempo, 563380
1, 20748, Tempo, 560747
1, 20752, Tempo, 558139
1, 20754, Tempo, 555555
1, 20758, Tempo, 552995
1, 20760, Tempo, 550458
1, 20764, Tempo, 547945
1, 20768, Tempo, 545454
1, 20770, Tempo, 542986
1, 20774, Tempo, 540540
1, 20776, Tempo, 538116
1, 20780, Tempo, 535714
1, 20784, Tempo, 533333
1, 20786, Tempo, 530973
1, 20790, Tempo, 528634
1, 20792, Tempo, 526315
1, 20796, Tempo, 524017
1, 20800, Tempo, 521739
1, 20802, Tempo, 519480
1, 20806, Tempo, 517241
1, 20808, Tempo, 515021
1, 20812, Tempo, 512820
1, 20816, Tempo, 510638
1, 20818, Tempo, 508474
1, 20822, Tempo, 506329
1, 20824, Tempo, 504201
1, 20828, Tempo, 502092
1, 20832, Tempo, 500000
1, 21888, Tempo, 545454
1, 21892, Tempo, 542986
1, 21896, Tempo, 540540
1, 21902, Tempo, 538116
1, 21906, Tempo, 535714
1, 21912, Tempo, 533333
1, 21916, Tempo, 530973
1, 21920, Tempo, 528634
1, 21926, Tempo, 526315
1, 21930, Tempo, 524017
1, 21936, Tempo, 521739
1, 21940, Tempo, 519480
1, 21944, Tempo, 517241
1, 21950, Tempo, 515021
1, 21954, Tempo, 512820
1, 21960, Tempo, 510638
1, 21964, Tempo, 508474
1, 21968, Tempo, 506329
1, 21974, Tempo, 504201
1, 21978, Tempo, 502092
1, 21984, Tempo, 500000
1, 23040, Tempo, 571428
1, 23042, Tempo, 568720
1, 23046, Tempo, 566037
1, 23048, Tempo, 563380
1, 23052, Tempo, 560747
1, 23056, Tempo, 558139
1, 23058, Tempo, 555555
1, 23062, Tempo, 552995
1, 23064, Tempo, 550458
1, 23068, Tempo, 547945
1, 23072, Tempo, 545454
1, 23074, Tempo, 542986
1, 23078, Tempo, 540540
1, 23080, Tempo, 538116
1, 23084, Tempo, 535714
1, 23088, Tempo, 533333
1, 23090, Tempo, 530973
1, 23094, Tempo, 528634
1, 23096, Tempo, 526315
1, 23100, Tempo, 524017
1, 23104, Tempo, 521739
1, 23106, Tempo, 519480
1, 23110, Tempo, 517241
1, 23112, Tempo, 515021
1, 23116, Tempo, 512820
1, 23120, Tempo, 510638
1, 23122, Tempo, 508474
1, 23126, Tempo, 506329
1, 23128, Tempo, 504201
1, 23132, Tempo, 502092
1, 23136, Tempo, 500000
1, 25344, Tempo, 545454
1, 25348, Tempo, 542986
1, 25352, Tempo, 540540
1, 25358, Tempo, 538116
1, 25362, Tempo, 535714
1, 25368, Tempo, 533333
1, 25372, Tempo, 530973
1, 25376, Tempo, 528634
1, 25382, Tempo, 526315
1, 25386, Tempo, 524017
1, 25392, Tempo, 521739
1, 25396, Tempo, 519480
1, 25400, Tempo, 517241
1, 25406, Tempo, 515021
1, 25410, Tempo, 512820
1, 25416, Tempo, 510638
1, 25420, Tempo, 508474
1, 25424, Tempo, 506329
1, 25430, Tempo, 504201
1, 25434, Tempo, 502092
1, 25440, Tempo, 500000
1, 26496, Tempo, 571428
1, 26498, Tempo, 568720
1, 26502, Tempo, 566037
1, 26504, Tempo, 563380
1, 26508, Tempo, 560747
1, 26512, Tempo, 558139
1, 26514, Tempo, 555555
1, 26518, Tempo, 552995
1, 26520, Tempo, 550458
1, 26524, Tempo, 547945
1, 26528, Tempo, 545454
1, 26530, Tempo, 542986
1, 26534, Tempo, 540540
1, 26536, Tempo, 538116
1, 26540, Tempo, 535714
1, 26544, Tempo, 533333
1, 26546, Tempo, 530973
1, 26550, Tempo, 528634
1, 26552, Tempo, 526315
1, 26556, Tempo, 524017
1, 26560, Tempo, 521739
1, 26562, Tempo, 519480
1, 26566, Tempo, 517241
1, 26568, Tempo, 515021
1, 26572, Tempo, 512820
1, 26576, Tempo, 510638
1, 26578, Tempo, 508474
1, 26582, Tempo, 506329
1, 26584, Tempo, 504201
1, 26588, Tempo, 502092
1, 26592, Tempo, 500000
1, 27648, Tempo, 545454
1, 27652, Tempo, 542986
1, 27656, Tempo, 540540
1, 27662, Tempo, 538116
1, 27666, Tempo, 535714
1, 27672, Tempo, 533333
1, 27676, Tempo, 530973
1, 27680, Tempo, 528634
1, 27686, Tempo, 526315
1, 27690, Tempo, 524017
1, 27696, Tempo, 521739
1, 27700, Tempo, 519480
1, 27704, Tempo, 517241
1, 27710, Tempo, 515021
1, 27714, Tempo, 512820
1, 27720, Tempo, 510638
1, 27724, Tempo, 508474
1, 27728, Tempo, 506329
1, 27734, Tempo, 504201
1, 27738, Tempo, 502092
1, 27744, Tempo, 500000
1, 29952, Tempo, 571428
1, 29958, Tempo, 568720
1, 29964, Tempo, 566037
1, 29970, Tempo, 563380
1, 29976, Tempo, 560747
1, 29984, Tempo, 558139
1, 29990, Tempo, 555555
1, 29996, Tempo, 552995
1, 30002, Tempo, 550458
1, 30008, Tempo, 547945
1, 30016, Tempo, 545454
1, 30022, Tempo, 542986
1, 30028, Tempo, 540540
1, 30034, Tempo, 538116
1, 30040, Tempo, 535714
1, 30048, Tempo, 533333
1, 30054, Tempo, 530973
1, 30060, Tempo, 528634
1, 30066, Tempo, 526315
1, 30072, Tempo, 524017
1, 30080, Tempo, 521739
1, 30086, Tempo, 519480
1, 30092, Tempo, 517241
1, 30098, Tempo, 515021
1, 30104, Tempo, 512820
1, 30112, Tempo, 510638
1, 30118, Tempo, 508474
1, 30124, Tempo, 506329
1, 30130, Tempo, 504201
1, 30136, Tempo, 502092
1, 30144, Tempo, 500000
1, 31104, Tempo, 571428
1, 31110, Tempo, 568720
1, 31116, Tempo, 566037
1, 31122, Tempo, 563380
1, 31128, Tempo, 560747
1, 31136, Tempo, 558139
1, 31142, Tempo, 555555
1, 31148, Tempo, 552995
1, 31154, Tempo, 550458
1, 31160, Tempo, 547945
1, 31168, Tempo, 545454
1, 31174, Tempo, 542986
1, 31180, Tempo, 540540
1, 31186, Tempo, 538116
1, 31192, Tempo, 535714
1, 31200, Tempo, 533333
1, 31206, Tempo, 530973
1, 31212, Tempo, 528634
1, 31218, Tempo, 526315
1, 31224, Tempo, 524017
1, 31232, Tempo, 521739
1, 31238, Tempo, 519480
1, 31244, Tempo, 517241
1, 31250, Tempo, 515021
1, 31256, Tempo, 512820
1, 31264, Tempo, 510638
1, 31270, Tempo, 508474
1, 31276, Tempo, 506329
1, 31282, Tempo, 504201
1, 31288, Tempo, 502092
1, 31296, Tempo, 500000
1, 35424, Tempo, 500000
1, 35438, Tempo, 502092
1, 35452, Tempo, 504201
1, 35466, Tempo, 506329
1, 35480, Tempo, 508474
1, 35496, Tempo, 510638
1, 35510, Tempo, 512820
1, 35524, Tempo, 515021
1, 35538, Tempo, 517241
1, 35552, Tempo, 519480
1, 35568, Tempo, 521739
1, 35582, Tempo, 524017
1, 35596, Tempo, 526315
1, 35610, Tempo, 528634
1, 35624, Tempo, 530973
1, 35640, Tempo, 533333
1, 35654, Tempo, 535714
1, 35668, Tempo, 538116
1, 35682, Tempo, 540540
1, 35696, Tempo, 542986
1, 35712, Tempo, 597014
1, 36096, Tempo, 545454
1, 36110, Tempo, 547945
1, 36124, Tempo, 550458
1, 36138, Tempo, 552995
1, 36152, Tempo, 555555
1, 36168, Tempo, 558139
1, 36182, Tempo, 560747
1, 36196, Tempo, 563380
1, 36210, Tempo, 566037
1, 36224, Tempo, 568720
1, 36240, Tempo, 571428
1, 36254, Tempo, 574162
1, 36268, Tempo, 576923
1, 36282, Tempo, 579710
1, 36296, Tempo, 582524
1, 36312, Tempo, 585365
1, 36326, Tempo, 588235
1, 36340, Tempo, 591133
1, 36354, Tempo, 594059
1, 36368, Tempo, 597014
1, 36382, Tempo, 794701
1, 36384, Tempo, 789473
1, 36386, Tempo, 784313
1, 36388, Tempo, 779220
1, 36390, Tempo, 774193
1, 36392, Tempo, 769230
1, 36394, Tempo, 764331
1, 36396, Tempo, 759493
1, 36398, Tempo, 754716
1, 36400, Tempo, 750000
1, 36402, Tempo, 745341
1, 36404, Tempo, 740740
1, 36406, Tempo, 736196
1, 36408, Tempo, 731707
1, 36410, Tempo, 727272
1, 36412, Tempo, 722891
1, 36414, Tempo, 718562
1, 36416, Tempo, 714285
1, 36418, Tempo, 710059
1, 36420, Tempo, 705882
1, 36422, Tempo, 701754
1, 36424, Tempo, 697674
1, 36426, Tempo, 693641
1, 36428, Tempo, 689655
1, 36430, Tempo, 685714
1, 36432, Tempo, 681818
1, 36434, Tempo, 677966
1, 36436, Tempo, 674157
1, 36438, Tempo, 670391
1, 36440, Tempo, 666666
1, 36442, Tempo, 662983
1, 36444, Tempo, 659340
1, 36446, Tempo, 655737
1, 36448, Tempo, 652173
1, 36450, Tempo, 648648
1, 36452, Tempo, 645161
1, 36454, Tempo, 641711
1, 36456, Tempo, 638297
1, 36458, Tempo, 634920
1, 36460, Tempo, 631578
1, 36462, Tempo, 628272
1, 36464, Tempo, 625000
1, 36466, Tempo, 621761
1, 36468, Tempo, 618556
1, 36470, Tempo, 615384
1, 36472, Tempo, 612244
1, 36474, Tempo, 609137
1, 36476, Tempo, 606060
1, 36478, Tempo, 603015
1, 36480, Tempo, 600000
1, 36480, End_track
2, 0, Start_track
2, 0, Title_t, "Johann Sebastian Bach"
2, 0, Control_c, 0, 0, 0
2, 0, Program_c, 0, 6
2, 0, Control_c, 0, 7, 127
2, 0, Control_c, 0, 10, 39
2, 0, Control_c, 0, 91, 127
2, 0, Key_signature, 1, "major"
2, 1152, Note_on_c, 0, 69, 112
2, 1340, Note_off_c, 0, 69, 100
2, 1344, Note_on_c, 0, 71, 112
2, 1436, Note_off_c, 0, 71, 100
2, 1440, Note_on_c, 0, 73, 112
2, 1532, Note_off_c, 0, 73, 100
2, 1536, Note_on_c, 0, 74, 112
2, 1628, Note_off_c, 0, 74, 100
2, 1632, Note_on_c, 0, 76, 112
2, 1724, Note_off_c, 0, 76, 100
2, 1728, Note_on_c, 0, 78, 112
2, 1820, Note_off_c, 0, 78, 100
2, 1824, Note_on_c, 0, 76, 112
2, 1916, Note_off_c, 0, 76, 100
2, 1920, Note_on_c, 0, 74, 112
2, 2012, Note_off_c, 0, 74, 100
2, 2016, Note_on_c, 0, 76, 112
2, 2108, Note_off_c, 0, 76, 100
2, 2112, Note_on_c, 0, 78, 112
2, 2172, Note_off_c, 0, 78, 100
2, 2304, Note_on_c, 0, 67, 112
2, 2492, Note_off_c, 0, 67, 100
2, 2880, Note_on_c, 0, 76, 112
2, 3068, Note_off_c, 0, 76, 100
2, 3456, Note_on_c, 0, 66, 112
2, 3644, Note_off_c, 0, 66, 100
2, 3648, Note_on_c, 0, 67, 112
2, 3740, Note_off_c, 0, 67, 100
2, 3744, Note_on_c, 0, 69, 112
2, 3836, Note_off_c, 0, 69, 100
2, 3840, Note_on_c, 0, 71, 112
2, 3932, Note_off_c, 0, 71, 100
2, 3936, Note_on_c, 0, 72, 112
2, 4028, Note_off_c, 0, 72, 100
2, 4032, Note_on_c, 0, 74, 112
2, 4124, Note_off_c, 0, 74, 100
2, 4128, Note_on_c, 0, 76, 112
2, 4220, Note_off_c, 0, 76, 100
2, 4224, Note_on_c, 0, 74, 112
2, 4316, Note_off_c, 0, 74, 100
2, 4320, Note_on_c, 0, 72, 112
2, 4412, Note_off_c, 0, 72, 100
2, 4416, Note_on_c, 0, 74, 112
2, 4476, Note_off_c, 0, 74, 100
2, 4608, Note_on_c, 0, 74, 112
2, 4796, Note_off_c, 0, 74, 100
2, 5184, Note_on_c, 0, 67, 112
2, 5372, Note_off_c, 0, 67, 100
2, 5760, Note_on_c, 0, 72, 112
2, 5852, Note_off_c, 0, 72, 100
2, 5856, Note_on_c, 0, 74, 112
2, 5948, Note_off_c, 0, 74, 100
2, 5952, Note_on_c, 0, 72, 112
2, 6044, Note_off_c, 0, 72, 100
2, 6048, Note_on_c, 0, 71, 112
2, 6140, Note_off_c, 0, 71, 100
2, 6144, Note_on_c, 0, 69, 112
2, 6236, Note_off_c, 0, 69, 100
2, 6240, Note_on_c, 0, 67, 112
2, 6332, Note_off_c, 0, 67, 100
2, 6336, Note_on_c, 0, 66, 112
2, 6428, Note_off_c, 0, 66, 100
2, 6432, Note_on_c, 0, 69, 112
2, 6524, Note_off_c, 0, 69, 100
2, 6528, Note_on_c, 0, 72, 112
2, 6620, Note_off_c, 0, 72, 100
2, 6624, Note_on_c, 0, 76, 112
2, 6716, Note_off_c, 0, 76, 100
2, 6720, Note_on_c, 0, 74, 112
2, 6812, Note_off_c, 0, 74, 100
2, 6816, Note_on_c, 0, 72, 112
2, 6880, Note_off_c, 0, 72, 100
2, 6912, Note_on_c, 0, 71, 112
2, 7004, Note_off_c, 0, 71, 100
2, 7008, Note_on_c, 0, 72, 112
2, 7100, Note_off_c, 0, 72, 100
2, 7104, Note_on_c, 0, 71, 112
2, 7196, Note_off_c, 0, 71, 100
2, 7200, Note_on_c, 0, 69, 112
2, 7292, Note_off_c, 0, 69, 100
2, 7296, Note_on_c, 0, 67, 112
2, 7388, Note_off_c, 0, 67, 100
2, 7392, Note_on_c, 0, 66, 112
2, 7484, Note_off_c, 0, 66, 100
2, 7488, Note_on_c, 0, 64, 112
2, 7580, Note_off_c, 0, 64, 100
2, 7584, Note_on_c, 0, 67, 112
2, 7676, Note_off_c, 0, 67, 100
2, 7680, Note_on_c, 0, 71, 112
2, 7772, Note_off_c, 0, 71, 100
2, 7776, Note_on_c, 0, 74, 112
2, 7868, Note_off_c, 0, 74, 100
2, 7872, Note_on_c, 0, 72, 112
2, 7964, Note_off_c, 0, 72, 100
2, 7968, Note_on_c, 0, 71, 112
2, 8032, Note_off_c, 0, 71, 100
2, 8064, Note_on_c, 0, 69, 112
2, 8124, Note_off_c, 0, 69, 100
2, 8256, Note_on_c, 0, 72, 112
2, 8300, Note_off_c, 0, 72, 100
2, 8304, Note_on_c, 0, 71, 112
2, 8348, Note_off_c, 0, 71, 100
2, 8352, Note_on_c, 0, 69, 112
2, 8396, Note_off_c, 0, 69, 100
2, 8400, Note_on_c, 0, 71, 112
2, 8444, Note_off_c, 0, 71, 100
2, 8448, Note_on_c, 0, 72, 112
2, 8508, Note_off_c, 0, 72, 100
2, 8640, Note_on_c, 0, 62, 112
2, 8700, Note_off_c, 0, 62, 100
2, 8832, Note_on_c, 0, 74, 112
2, 9212, Note_off_c, 0, 74, 100
2, 9312, Note_on_c, 0, 78, 112
2, 9404, Note_off_c, 0, 78, 100
2, 9408, Note_on_c, 0, 76, 112
2, 9500, Note_off_c, 0, 76, 100
2, 9504, Note_on_c, 0, 74, 112
2, 9596, Note_off_c, 0, 74, 100
2, 9600, Note_on_c, 0, 73, 112
2, 9692, Note_off_c, 0, 73, 100
2, 9696, Note_on_c, 0, 71, 112
2, 9788, Note_off_c, 0, 71, 100
2, 9792, Note_on_c, 0, 73, 112
2, 9884, Note_off_c, 0, 73, 100
2, 9888, Note_on_c, 0, 74, 112
2, 9980, Note_off_c, 0, 74, 100
2, 9984, Note_on_c, 0, 76, 112
2, 10076, Note_off_c, 0, 76, 100
2, 10080, Note_on_c, 0, 73, 112
2, 10172, Note_off_c, 0, 73, 100
2, 10176, Note_on_c, 0, 74, 112
2, 10268, Note_off_c, 0, 74, 100
2, 10272, Note_on_c, 0, 76, 112
2, 10336, Note_off_c, 0, 76, 100
2, 10368, Note_on_c, 0, 69, 112
2, 10412, Note_off_c, 0, 69, 100
2, 10416, Note_on_c, 0, 67, 112
2, 10460, Note_off_c, 0, 67, 100
2, 10464, Note_on_c, 0, 69, 112
2, 11518, Note_off_c, 0, 69, 100
2, 11616, Note_on_c, 0, 69, 112
2, 11708, Note_off_c, 0, 69, 100
2, 11712, Note_on_c, 0, 67, 112
2, 11804, Note_off_c, 0, 67, 100
2, 11808, Note_on_c, 0, 66, 112
2, 11900, Note_off_c, 0, 66, 100
2, 11904, Note_on_c, 0, 64, 112
2, 11996, Note_off_c, 0, 64, 100
2, 12000, Note_on_c, 0, 62, 112
2, 12092, Note_off_c, 0, 62, 100
2, 12096, Note_on_c, 0, 61, 112
2, 12188, Note_off_c, 0, 61, 100
2, 12192, Note_on_c, 0, 62, 112
2, 12284, Note_off_c, 0, 62, 100
2, 12288, Note_on_c, 0, 64, 112
2, 12380, Note_off_c, 0, 64, 100
2, 12384, Note_on_c, 0, 62, 112
2, 12476, Note_off_c, 0, 62, 100
2, 12480, Note_on_c, 0, 64, 112
2, 12572, Note_off_c, 0, 64, 100
2, 12576, Note_on_c, 0, 61, 112
2, 12668, Note_off_c, 0, 61, 100
2, 12672, Note_on_c, 0, 66, 112
2, 12860, Note_off_c, 0, 66, 100
2, 13248, Note_on_c, 0, 59, 112
2, 13436, Note_off_c, 0, 59, 100
2, 13824, Note_on_c, 0, 71, 112
2, 13916, Note_off_c, 0, 71, 100
2, 13920, Note_on_c, 0, 72, 112
2, 14012, Note_off_c, 0, 72, 100
2, 14016, Note_on_c, 0, 71, 112
2, 14108, Note_off_c, 0, 71, 100
2, 14112, Note_on_c, 0, 69, 112
2, 14204, Note_off_c, 0, 69, 100
2, 14208, Note_on_c, 0, 67, 112
2, 14300, Note_off_c, 0, 67, 100
2, 14304, Note_on_c, 0, 66, 112
2, 14396, Note_off_c, 0, 66, 100
2, 14400, Note_on_c, 0, 64, 112
2, 14492, Note_off_c, 0, 64, 100
2, 14496, Note_on_c, 0, 67, 112
2, 14588, Note_off_c, 0, 67, 100
2, 14592, Note_on_c, 0, 71, 112
2, 14684, Note_off_c, 0, 71, 100
2, 14688, Note_on_c, 0, 74, 112
2, 14780, Note_off_c, 0, 74, 100
2, 14784, Note_on_c, 0, 73, 112
2, 14876, Note_off_c, 0, 73, 100
2, 14880, Note_on_c, 0, 71, 112
2, 14944, Note_off_c, 0, 71, 100
2, 14976, Note_on_c, 0, 69, 112
2, 15068, Note_off_c, 0, 69, 100
2, 15072, Note_on_c, 0, 71, 112
2, 15164, Note_off_c, 0, 71, 100
2, 15168, Note_on_c, 0, 69, 112
2, 15260, Note_off_c, 0, 69, 100
2, 15264, Note_on_c, 0, 67, 112
2, 15356, Note_off_c, 0, 67, 100
2, 15360, Note_on_c, 0, 66, 112
2, 15452, Note_off_c, 0, 66, 100
2, 15456, Note_on_c, 0, 64, 112
2, 15548, Note_off_c, 0, 64, 100
2, 15552, Note_on_c, 0, 63, 112
2, 15644, Note_off_c, 0, 63, 100
2, 15648, Note_on_c, 0, 66, 112
2, 15740, Note_off_c, 0, 66, 100
2, 15744, Note_on_c, 0, 69, 112
2, 15836, Note_off_c, 0, 69, 100
2, 15840, Note_on_c, 0, 72, 112
2, 15932, Note_off_c, 0, 72, 100
2, 15936, Note_on_c, 0, 71, 112
2, 16028, Note_off_c, 0, 71, 100
2, 16032, Note_on_c, 0, 69, 112
2, 16124, Note_off_c, 0, 69, 100
2, 16128, Note_on_c, 0, 67, 112
2, 16188, Note_off_c, 0, 67, 100
2, 16320, Note_on_c, 0, 71, 112
2, 16364, Note_off_c, 0, 71, 100
2, 16368, Note_on_c, 0, 69, 112
2, 16412, Note_off_c, 0, 69, 100
2, 16416, Note_on_c, 0, 67, 112
2, 16460, Note_off_c, 0, 67, 100
2, 16464, Note_on_c, 0, 69, 112
2, 16508, Note_off_c, 0, 69, 100
2, 16512, Note_on_c, 0, 71, 112
2, 16892, Note_off_c, 0, 71, 100
2, 16896, Note_on_c, 0, 69, 112
2, 16956, Note_off_c, 0, 69, 100
2, 17088, Note_on_c, 0, 67, 112
2, 17344, Note_off_c, 0, 67, 100
2, 17376, Note_on_c, 0, 66, 112
2, 17468, Note_off_c, 0, 66, 100
2, 17472, Note_on_c, 0, 64, 112
2, 17564, Note_off_c, 0, 64, 100
2, 17568, Note_on_c, 0, 62, 112
2, 17660, Note_off_c, 0, 62, 100
2, 17664, Note_on_c, 0, 64, 112
2, 17756, Note_off_c, 0, 64, 100
2, 17760, Note_on_c, 0, 61, 112
2, 17824, Note_off_c, 0, 61, 100
2, 17856, Note_on_c, 0, 62, 112
2, 18240, Note_off_c, 0, 62, 100
2, 18432, Note_on_c, 0, 81, 112
2, 18620, Note_off_c, 0, 81, 100
2, 18624, Note_on_c, 0, 79, 112
2, 18716, Note_off_c, 0, 79, 100
2, 18720, Note_on_c, 0, 78, 112
2, 18812, Note_off_c, 0, 78, 100
2, 18816, Note_on_c, 0, 76, 112
2, 18908, Note_off_c, 0, 76, 100
2, 18912, Note_on_c, 0, 74, 112
2, 19004, Note_off_c, 0, 74, 100
2, 19008, Note_on_c, 0, 72, 112
2, 19100, Note_off_c, 0, 72, 100
2, 19104, Note_on_c, 0, 74, 112
2, 19196, Note_off_c, 0, 74, 100
2, 19200, Note_on_c, 0, 76, 112
2, 19292, Note_off_c, 0, 76, 100
2, 19296, Note_on_c, 0, 74, 112
2, 19388, Note_off_c, 0, 74, 100
2, 19392, Note_on_c, 0, 72, 112
2, 19484, Note_off_c, 0, 72, 100
2, 19488, Note_on_c, 0, 81, 112
2, 19552, Note_off_c, 0, 81, 100
2, 19584, Note_on_c, 0, 71, 112
2, 19772, Note_off_c, 0, 71, 100
2, 20160, Note_on_c, 0, 79, 112
2, 20348, Note_off_c, 0, 79, 100
2, 20736, Note_on_c, 0, 84, 112
2, 20828, Note_off_c, 0, 84, 100
2, 20832, Note_on_c, 0, 86, 112
2, 20924, Note_off_c, 0, 86, 100
2, 20928, Note_on_c, 0, 84, 112
2, 21020, Note_off_c, 0, 84, 100
2, 21024, Note_on_c, 0, 83, 112
2, 21116, Note_off_c, 0, 83, 100
2, 21120, Note_on_c, 0, 81, 112
2, 21212, Note_off_c, 0, 81, 100
2, 21216, Note_on_c, 0, 79, 112
2, 21308, Note_off_c, 0, 79, 100
2, 21312, Note_on_c, 0, 81, 112
2, 21404, Note_off_c, 0, 81, 100
2, 21408, Note_on_c, 0, 83, 112
2, 21500, Note_off_c, 0, 83, 100
2, 21504, Note_on_c, 0, 81, 112
2, 21596, Note_off_c, 0, 81, 100
2, 21600, Note_on_c, 0, 79, 112
2, 21692, Note_off_c, 0, 79, 100
2, 21696, Note_on_c, 0, 78, 112
2, 21788, Note_off_c, 0, 78, 100
2, 21792, Note_on_c, 0, 76, 112
2, 21884, Note_off_c, 0, 76, 100
2, 21888, Note_on_c, 0, 75, 112
2, 21948, Note_off_c, 0, 75, 100
2, 22080, Note_on_c, 0, 78, 112
2, 22124, Note_off_c, 0, 78, 100
2, 22128, Note_on_c, 0, 76, 112
2, 22172, Note_off_c, 0, 76, 100
2, 22176, Note_on_c, 0, 75, 112
2, 22220, Note_off_c, 0, 75, 100
2, 22224, Note_on_c, 0, 76, 112
2, 22268, Note_off_c, 0, 76, 100
2, 22272, Note_on_c, 0, 78, 112
2, 22332, Note_off_c, 0, 78, 100
2, 22464, Note_on_c, 0, 71, 112
2, 23036, Note_off_c, 0, 71, 100
2, 23136, Note_on_c, 0, 69, 112
2, 23228, Note_off_c, 0, 69, 100
2, 23232, Note_on_c, 0, 71, 112
2, 23324, Note_off_c, 0, 71, 100
2, 23328, Note_on_c, 0, 74, 112
2, 23420, Note_off_c, 0, 74, 100
2, 23424, Note_on_c, 0, 72, 112
2, 23516, Note_off_c, 0, 72, 100
2, 23520, Note_on_c, 0, 71, 112
2, 23612, Note_off_c, 0, 71, 100
2, 23616, Note_on_c, 0, 72, 112
2, 23708, Note_off_c, 0, 72, 100
2, 23712, Note_on_c, 0, 77, 112
2, 23804, Note_off_c, 0, 77, 100
2, 23808, Note_on_c, 0, 72, 112
2, 23900, Note_off_c, 0, 72, 100
2, 23904, Note_on_c, 0, 69, 112
2, 23996, Note_off_c, 0, 69, 100
2, 24000, Note_on_c, 0, 65, 112
2, 24092, Note_off_c, 0, 65, 100
2, 24096, Note_on_c, 0, 69, 112
2, 24188, Note_off_c, 0, 69, 100
2, 24192, Note_on_c, 0, 63, 112
2, 24284, Note_off_c, 0, 63, 100
2, 24288, Note_on_c, 0, 64, 112
2, 24380, Note_off_c, 0, 64, 100
2, 24384, Note_on_c, 0, 66, 112
2, 24476, Note_off_c, 0, 66, 100
2, 24480, Note_on_c, 0, 69, 112
2, 24572, Note_off_c, 0, 69, 100
2, 24576, Note_on_c, 0, 67, 112
2, 24668, Note_off_c, 0, 67, 100
2, 24672, Note_on_c, 0, 66, 112
2, 24764, Note_off_c, 0, 66, 100
2, 24768, Note_on_c, 0, 67, 112
2, 24828, Note_off_c, 0, 67, 100
2, 24960, Note_on_c, 0, 69, 112
2, 25004, Note_off_c, 0, 69, 100
2, 25008, Note_on_c, 0, 67, 112
2, 25052, Note_off_c, 0, 67, 100
2, 25056, Note_on_c, 0, 69, 112
2, 25100, Note_off_c, 0, 69, 100
2, 25104, Note_on_c, 0, 67, 112
2, 25148, Note_off_c, 0, 67, 100
2, 25152, Note_on_c, 0, 69, 112
2, 25196, Note_off_c, 0, 69, 100
2, 25200, Note_on_c, 0, 67, 112
2, 25244, Note_off_c, 0, 67, 100
2, 25248, Note_on_c, 0, 66, 112
2, 25292, Note_off_c, 0, 66, 100
2, 25296, Note_on_c, 0, 67, 112
2, 25328, Note_off_c, 0, 67, 100
2, 25344, Note_on_c, 0, 69, 112
2, 25436, Note_off_c, 0, 69, 100
2, 25440, Note_on_c, 0, 71, 112
2, 25532, Note_off_c, 0, 71, 100
2, 25536, Note_on_c, 0, 72, 112
2, 25628, Note_off_c, 0, 72, 100
2, 25632, Note_on_c, 0, 71, 112
2, 25724, Note_off_c, 0, 71, 100
2, 25728, Note_on_c, 0, 69, 112
2, 25788, Note_off_c, 0, 69, 100
2, 25920, Note_on_c, 0, 71, 112
2, 25964, Note_off_c, 0, 71, 100
2, 25968, Note_on_c, 0, 69, 112
2, 26012, Note_off_c, 0, 69, 100
2, 26016, Note_on_c, 0, 67, 112
2, 26060, Note_off_c, 0, 67, 100
2, 26064, Note_on_c, 0, 69, 112
2, 26444, Note_off_c, 0, 69, 100
2, 26592, Note_on_c, 0, 66, 112
2, 26684, Note_off_c, 0, 66, 100
2, 26688, Note_on_c, 0, 67, 112
2, 26780, Note_off_c, 0, 67, 100
2, 26784, Note_on_c, 0, 69, 112
2, 26876, Note_off_c, 0, 69, 100
2, 26880, Note_on_c, 0, 71, 112
2, 26972, Note_off_c, 0, 71, 100
2, 26976, Note_on_c, 0, 72, 112
2, 27068, Note_off_c, 0, 72, 100
2, 27072, Note_on_c, 0, 74, 112
2, 27164, Note_off_c, 0, 74, 100
2, 27168, Note_on_c, 0, 72, 112
2, 27260, Note_off_c, 0, 72, 100
2, 27264, Note_on_c, 0, 71, 112
2, 27356, Note_off_c, 0, 71, 100
2, 27360, Note_on_c, 0, 69, 112
2, 27452, Note_off_c, 0, 69, 100
2, 27456, Note_on_c, 0, 68, 112
2, 27548, Note_off_c, 0, 68, 100
2, 27552, Note_on_c, 0, 66, 112
2, 27644, Note_off_c, 0, 66, 100
2, 27648, Note_on_c, 0, 64, 112
2, 27712, Note_off_c, 0, 64, 100
2, 27744, Note_on_c, 0, 68, 112
2, 27836, Note_off_c, 0, 68, 100
2, 27840, Note_on_c, 0, 69, 112
2, 27932, Note_off_c, 0, 69, 100
2, 27936, Note_on_c, 0, 71, 112
2, 28028, Note_off_c, 0, 71, 100
2, 28032, Note_on_c, 0, 72, 112
2, 28124, Note_off_c, 0, 72, 100
2, 28128, Note_on_c, 0, 74, 112
2, 28220, Note_off_c, 0, 74, 100
2, 28224, Note_on_c, 0, 76, 112
2, 28316, Note_off_c, 0, 76, 100
2, 28320, Note_on_c, 0, 74, 112
2, 28412, Note_off_c, 0, 74, 100
2, 28416, Note_on_c, 0, 72, 112
2, 28508, Note_off_c, 0, 72, 100
2, 28512, Note_on_c, 0, 74, 112
2, 28604, Note_off_c, 0, 74, 100
2, 28608, Note_on_c, 0, 76, 112
2, 28668, Note_off_c, 0, 76, 100
2, 28800, Note_on_c, 0, 69, 112
2, 28988, Note_off_c, 0, 69, 100
2, 29376, Note_on_c, 0, 78, 112
2, 29564, Note_off_c, 0, 78, 100
2, 29952, Note_on_c, 0, 71, 112
2, 30140, Note_off_c, 0, 71, 100
2, 30144, Note_on_c, 0, 72, 112
2, 30236, Note_off_c, 0, 72, 100
2, 30240, Note_on_c, 0, 74, 112
2, 30332, Note_off_c, 0, 74, 100
2, 30336, Note_on_c, 0, 76, 112
2, 30428, Note_off_c, 0, 76, 100
2, 30432, Note_on_c, 0, 78, 112
2, 30524, Note_off_c, 0, 78, 100
2, 30528, Note_on_c, 0, 79, 112
2, 30620, Note_off_c, 0, 79, 100
2, 30624, Note_on_c, 0, 81, 112
2, 30716, Note_off_c, 0, 81, 100
2, 30720, Note_on_c, 0, 79, 112
2, 30812, Note_off_c, 0, 79, 100
2, 30816, Note_on_c, 0, 78, 112
2, 30908, Note_off_c, 0, 78, 100
2, 30912, Note_on_c, 0, 79, 112
2, 31004, Note_off_c, 0, 79, 100
2, 31008, Note_on_c, 0, 76, 112
2, 31100, Note_off_c, 0, 76, 100
2, 31104, Note_on_c, 0, 84, 112
2, 31196, Note_off_c, 0, 84, 100
2, 31200, Note_on_c, 0, 83, 112
2, 31292, Note_off_c, 0, 83, 100
2, 31296, Note_on_c, 0, 81, 112
2, 31388, Note_off_c, 0, 81, 100
2, 31392, Note_on_c, 0, 79, 112
2, 31484, Note_off_c, 0, 79, 100
2, 31488, Note_on_c, 0, 78, 112
2, 31580, Note_off_c, 0, 78, 100
2, 31584, Note_on_c, 0, 76, 112
2, 31676, Note_off_c, 0, 76, 100
2, 31680, Note_on_c, 0, 74, 112
2, 32252, Note_off_c, 0, 74, 100
2, 32352, Note_on_c, 0, 72, 112
2, 32444, Note_off_c, 0, 72, 100
2, 32448, Note_on_c, 0, 74, 112
2, 32540, Note_off_c, 0, 74, 100
2, 32544, Note_on_c, 0, 76, 112
2, 32636, Note_off_c, 0, 76, 100
2, 32640, Note_on_c, 0, 78, 112
2, 32732, Note_off_c, 0, 78, 100
2, 32736, Note_on_c, 0, 79, 112
2, 32828, Note_off_c, 0, 79, 100
2, 32832, Note_on_c, 0, 81, 112
2, 32924, Note_off_c, 0, 81, 100
2, 32928, Note_on_c, 0, 76, 112
2, 33020, Note_off_c, 0, 76, 100
2, 33024, Note_on_c, 0, 72, 112
2, 33116, Note_off_c, 0, 72, 100
2, 33120, Note_on_c, 0, 69, 112
2, 33212, Note_off_c, 0, 69, 100
2, 33216, Note_on_c, 0, 71, 112
2, 33308, Note_off_c, 0, 71, 100
2, 33312, Note_on_c, 0, 72, 112
2, 33376, Note_off_c, 0, 72, 100
2, 33408, Note_on_c, 0, 66, 112
2, 33500, Note_off_c, 0, 66, 100
2, 33504, Note_on_c, 0, 67, 112
2, 33596, Note_off_c, 0, 67, 100
2, 33600, Note_on_c, 0, 69, 112
2, 33692, Note_off_c, 0, 69, 100
2, 33696, Note_on_c, 0, 71, 112
2, 33788, Note_off_c, 0, 71, 100
2, 33792, Note_on_c, 0, 72, 112
2, 33884, Note_off_c, 0, 72, 100
2, 33888, Note_on_c, 0, 69, 112
2, 33980, Note_off_c, 0, 69, 100
2, 33984, Note_on_c, 0, 71, 112
2, 34076, Note_off_c, 0, 71, 100
2, 34080, Note_on_c, 0, 74, 112
2, 34172, Note_off_c, 0, 74, 100
2, 34176, Note_on_c, 0, 79, 112
2, 34236, Note_off_c, 0, 79, 100
2, 34752, Note_on_c, 0, 76, 112
2, 34880, Note_off_c, 0, 76, 100
2, 34944, Note_on_c, 0, 74, 112
2, 35072, Note_off_c, 0, 74, 100
2, 35136, Note_on_c, 0, 72, 112
2, 35264, Note_off_c, 0, 72, 100
2, 35328, Note_on_c, 0, 74, 112
2, 35420, Note_off_c, 0, 74, 100
2, 35424, Note_on_c, 0, 72, 112
2, 35516, Note_off_c, 0, 72, 100
2, 35520, Note_on_c, 0, 71, 112
2, 35612, Note_off_c, 0, 71, 100
2, 35616, Note_on_c, 0, 69, 112
2, 35708, Note_off_c, 0, 69, 100
2, 35712, Note_on_c, 0, 71, 112
2, 35804, Note_off_c, 0, 71, 100
2, 35808, Note_on_c, 0, 74, 112
2, 35900, Note_off_c, 0, 74, 100
2, 35904, Note_on_c, 0, 71, 112
2, 35996, Note_off_c, 0, 71, 100
2, 36000, Note_on_c, 0, 67, 112
2, 36092, Note_off_c, 0, 67, 100
2, 36096, Note_on_c, 0, 69, 112
2, 36188, Note_off_c, 0, 69, 100
2, 36192, Note_on_c, 0, 66, 112
2, 36256, Note_off_c, 0, 66, 100
2, 36288, Note_on_c, 0, 67, 112
2, 36332, Note_off_c, 0, 67, 100
2, 36336, Note_on_c, 0, 66, 112
2, 36380, Note_off_c, 0, 66, 100
2, 36384, Note_on_c, 0, 67, 112
2, 37630, Note_off_c, 0, 67, 100
2, 37630, End_track
3, 0, Start_track
3, 0, Title_t, "Goldberg Variations"
3, 0, Control_c, 1, 0, 0
3, 0, Program_c, 1, 6
3, 0, Control_c, 1, 7, 127
3, 0, Control_c, 1, 10, 95
3, 0, Control_c, 1, 91, 127
3, 0, Key_signature, 1, "major"
3, 0, Note_on_c, 1, 55, 112
3, 188, Note_off_c, 1, 55, 100
3, 192, Note_on_c, 1, 57, 112
3, 284, Note_off_c, 1, 57, 100
3, 288, Note_on_c, 1, 59, 112
3, 380, Note_off_c, 1, 59, 100
3, 384, Note_on_c, 1, 60, 112
3, 476, Note_off_c, 1, 60, 100
3, 480, Note_on_c, 1, 62, 112
3, 572, Note_off_c, 1, 62, 100
3, 576, Note_on_c, 1, 64, 112
3, 668, Note_off_c, 1, 64, 100
3, 672, Note_on_c, 1, 62, 112
3, 764, Note_off_c, 1, 62, 100
3, 768, Note_on_c, 1, 60, 112
3, 860, Note_off_c, 1, 60, 100
3, 864, Note_on_c, 1, 62, 112
3, 956, Note_off_c, 1, 62, 100
3, 960, Note_on_c, 1, 64, 112
3, 1020, Note_off_c, 1, 64, 100
3, 1152, Note_on_c, 1, 54, 112
3, 1340, Note_off_c, 1, 54, 100
3, 1728, Note_on_c, 1, 62, 112
3, 1916, Note_off_c, 1, 62, 100
3, 2304, Note_on_c, 1, 52, 112
3, 2492, Note_off_c, 1, 52, 100
3, 2496, Note_on_c, 1, 54, 112
3, 2588, Note_off_c, 1, 54, 100
3, 2592, Note_on_c, 1, 55, 112
3, 2684, Note_off_c, 1, 55, 100
3, 2688, Note_on_c, 1, 57, 112
3, 2780, Note_off_c, 1, 57, 100
3, 2784, Note_on_c, 1, 59, 112
3, 2876, Note_off_c, 1, 59, 100
3, 2880, Note_on_c, 1, 60, 112
3, 2972, Note_off_c, 1, 60, 100
3, 2976, Note_on_c, 1, 62, 112
3, 3068, Note_off_c, 1, 62, 100
3, 3072, Note_on_c, 1, 60, 112
3, 3164, Note_off_c, 1, 60, 100
3, 3168, Note_on_c, 1, 59, 112
3, 3260, Note_off_c, 1, 59, 100
3, 3264, Note_on_c, 1, 60, 112
3, 3324, Note_off_c, 1, 60, 100
3, 3456, Note_on_c, 1, 60, 112
3, 3644, Note_off_c, 1, 60, 100
3, 4032, Note_on_c, 1, 54, 112
3, 4220, Note_off_c, 1, 54, 100
3, 4608, Note_on_c, 1, 59, 112
3, 4700, Note_off_c, 1, 59, 100
3, 4704, Note_on_c, 1, 60, 112
3, 4796, Note_off_c, 1, 60, 100
3, 4800, Note_on_c, 1, 59, 112
3, 4892, Note_off_c, 1, 59, 100
3, 4896, Note_on_c, 1, 57, 112
3, 4988, Note_off_c, 1, 57, 100
3, 4992, Note_on_c, 1, 55, 112
3, 5084, Note_off_c, 1, 55, 100
3, 5088, Note_on_c, 1, 54, 112
3, 5180, Note_off_c, 1, 54, 100
3, 5184, Note_on_c, 1, 52, 112
3, 5276, Note_off_c, 1, 52, 100
3, 5280, Note_on_c, 1, 55, 112
3, 5372, Note_off_c, 1, 55, 100
3, 5376, Note_on_c, 1, 59, 112
3, 5468, Note_off_c, 1, 59, 100
3, 5472, Note_on_c, 1, 62, 112
3, 5564, Note_off_c, 1, 62, 100
3, 5568, Note_on_c, 1, 60, 112
3, 5660, Note_off_c, 1, 60, 100
3, 5664, Note_on_c, 1, 59, 112
3, 5728, Note_off_c, 1, 59, 100
3, 5760, Note_on_c, 1, 57, 112
3, 5852, Note_off_c, 1, 57, 100
3, 5856, Note_on_c, 1, 59, 112
3, 5948, Note_off_c, 1, 59, 100
3, 5952, Note_on_c, 1, 57, 112
3, 6044, Note_off_c, 1, 57, 100
3, 6048, Note_on_c, 1, 55, 112
3, 6140, Note_off_c, 1, 55, 100
3, 6144, Note_on_c, 1, 54, 112
3, 6236, Note_off_c, 1, 54, 100
3, 6240, Note_on_c, 1, 52, 112
3, 6332, Note_off_c, 1, 52, 100
3, 6336, Note_on_c, 1, 50, 112
3, 6428, Note_off_c, 1, 50, 100
3, 6432, Note_on_c, 1, 54, 112
3, 6524, Note_off_c, 1, 54, 100
3, 6528, Note_on_c, 1, 57, 112
3, 6620, Note_off_c, 1, 57, 100
3, 6624, Note_on_c, 1, 60, 112
3, 6716, Note_off_c, 1, 60, 100
3, 6720, Note_on_c, 1, 59, 112
3, 6812, Note_off_c, 1, 59, 100
3, 6816, Note_on_c, 1, 57, 112
3, 6880, Note_off_c, 1, 57, 100
3, 6912, Note_on_c, 1, 55, 112
3, 6972, Note_off_c, 1, 55, 100
3, 7104, Note_on_c, 1, 59, 112
3, 7148, Note_off_c, 1, 59, 100
3, 7152, Note_on_c, 1, 57, 112
3, 7196, Note_off_c, 1, 57, 100
3, 7200, Note_on_c, 1, 55, 112
3, 7244, Note_off_c, 1, 55, 100
3, 7248, Note_on_c, 1, 57, 112
3, 7292, Note_off_c, 1, 57, 100
3, 7296, Note_on_c, 1, 59, 112
3, 7356, Note_off_c, 1, 59, 100
3, 7488, Note_on_c, 1, 48, 112
3, 7548, Note_off_c, 1, 48, 100
3, 7680, Note_on_c, 1, 60, 112
3, 8060, Note_off_c, 1, 60, 100
3, 8160, Note_on_c, 1, 64, 112
3, 8252, Note_off_c, 1, 64, 100
3, 8256, Note_on_c, 1, 62, 112
3, 8348, Note_off_c, 1, 62, 100
3, 8352, Note_on_c, 1, 60, 112
3, 8444, Note_off_c, 1, 60, 100
3, 8448, Note_on_c, 1, 59, 112
3, 8540, Note_off_c, 1, 59, 100
3, 8544, Note_on_c, 1, 57, 112
3, 8636, Note_off_c, 1, 57, 100
3, 8640, Note_on_c, 1, 59, 112
3, 8732, Note_off_c, 1, 59, 100
3, 8736, Note_on_c, 1, 60, 112
3, 8828, Note_off_c, 1, 60, 100
3, 8832, Note_on_c, 1, 62, 112
3, 8924, Note_off_c, 1, 62, 100
3, 8928, Note_on_c, 1, 59, 112
3, 9020, Note_off_c, 1, 59, 100
3, 9024, Note_on_c, 1, 60, 112
3, 9116, Note_off_c, 1, 60, 100
3, 9120, Note_on_c, 1, 62, 112
3, 9184, Note_off_c, 1, 62, 100
3, 9216, Note_on_c, 1, 55, 112
3, 9260, Note_off_c, 1, 55, 100
3, 9264, Note_on_c, 1, 54, 112
3, 9308, Note_off_c, 1, 54, 100
3, 9312, Note_on_c, 1, 55, 112
3, 10366, Note_off_c, 1, 55, 100
3, 10464, Note_on_c, 1, 55, 112
3, 10556, Note_off_c, 1, 55, 100
3, 10560, Note_on_c, 1, 54, 112
3, 10652, Note_off_c, 1, 54, 100
3, 10656, Note_on_c, 1, 52, 112
3, 10748, Note_off_c, 1, 52, 100
3, 10752, Note_on_c, 1, 50, 112
3, 10844, Note_off_c, 1, 50, 100
3, 10848, Note_on_c, 1, 49, 112
3, 10940, Note_off_c, 1, 49, 100
3, 10944, Note_on_c, 1, 47, 112
3, 11036, Note_off_c, 1, 47, 100
3, 11040, Note_on_c, 1, 49, 112
3, 11132, Note_off_c, 1, 49, 100
3, 11136, Note_on_c, 1, 50, 112
3, 11228, Note_off_c, 1, 50, 100
3, 11232, Note_on_c, 1, 49, 112
3, 11324, Note_off_c, 1, 49, 100
3, 11328, Note_on_c, 1, 50, 112
3, 11420, Note_off_c, 1, 50, 100
3, 11424, Note_on_c, 1, 47, 112
3, 11516, Note_off_c, 1, 47, 100
3, 11520, Note_on_c, 1, 52, 112
3, 11708, Note_off_c, 1, 52, 100
3, 12096, Note_on_c, 1, 45, 112
3, 12284, Note_off_c, 1, 45, 100
3, 12672, Note_on_c, 1, 57, 112
3, 12764, Note_off_c, 1, 57, 100
3, 12768, Note_on_c, 1, 59, 112
3, 12860, Note_off_c, 1, 59, 100
3, 12864, Note_on_c, 1, 57, 112
3, 12956, Note_off_c, 1, 57, 100
3, 12960, Note_on_c, 1, 55, 112
3, 13052, Note_off_c, 1, 55, 100
3, 13056, Note_on_c, 1, 54, 112
3, 13148, Note_off_c, 1, 54, 100
3, 13152, Note_on_c, 1, 52, 112
3, 13244, Note_off_c, 1, 52, 100
3, 13248, Note_on_c, 1, 50, 112
3, 13340, Note_off_c, 1, 50, 100
3, 13344, Note_on_c, 1, 54, 112
3, 13436, Note_off_c, 1, 54, 100
3, 13440, Note_on_c, 1, 57, 112
3, 13532, Note_off_c, 1, 57, 100
3, 13536, Note_on_c, 1, 60, 112
3, 13628, Note_off_c, 1, 60, 100
3, 13632, Note_on_c, 1, 59, 112
3, 13724, Note_off_c, 1, 59, 100
3, 13728, Note_on_c, 1, 57, 112
3, 13792, Note_off_c, 1, 57, 100
3, 13824, Note_on_c, 1, 55, 112
3, 13916, Note_off_c, 1, 55, 100
3, 13920, Note_on_c, 1, 57, 112
3, 14012, Note_off_c, 1, 57, 100
3, 14016, Note_on_c, 1, 55, 112
3, 14108, Note_off_c, 1, 55, 100
3, 14112, Note_on_c, 1, 54, 112
3, 14204, Note_off_c, 1, 54, 100
3, 14208, Note_on_c, 1, 52, 112
3, 14300, Note_off_c, 1, 52, 100
3, 14304, Note_on_c, 1, 50, 112
3, 14396, Note_off_c, 1, 50, 100
3, 14400, Note_on_c, 1, 49, 112
3, 14492, Note_off_c, 1, 49, 100
3, 14496, Note_on_c, 1, 52, 112
3, 14588, Note_off_c, 1, 52, 100
3, 14592, Note_on_c, 1, 55, 112
3, 14684, Note_off_c, 1, 55, 100
3, 14688, Note_on_c, 1, 59, 112
3, 14780, Note_off_c, 1, 59, 100
3, 14784, Note_on_c, 1, 57, 112
3, 14876, Note_off_c, 1, 57, 100
3, 14880, Note_on_c, 1, 55, 112
3, 14972, Note_off_c, 1, 55, 100
3, 14976, Note_on_c, 1, 54, 112
3, 15036, Note_off_c, 1, 54, 100
3, 15168, Note_on_c, 1, 57, 112
3, 15212, Note_off_c, 1, 57, 100
3, 15216, Note_on_c, 1, 55, 112
3, 15260, Note_off_c, 1, 55, 100
3, 15264, Note_on_c, 1, 54, 112
3, 15308, Note_off_c, 1, 54, 100
3, 15312, Note_on_c, 1, 55, 112
3, 15356, Note_off_c, 1, 55, 100
3, 15360, Note_on_c, 1, 57, 112
3, 15740, Note_off_c, 1, 57, 100
3, 15744, Note_on_c, 1, 55, 112
3, 15804, Note_off_c, 1, 55, 100
3, 15936, Note_on_c, 1, 54, 112
3, 16192, Note_off_c, 1, 54, 100
3, 16224, Note_on_c, 1, 52, 112
3, 16316, Note_off_c, 1, 52, 100
3, 16320, Note_on_c, 1, 50, 112
3, 16412, Note_off_c, 1, 50, 100
3, 16416, Note_on_c, 1, 49, 112
3, 16508, Note_off_c, 1, 49, 100
3, 16512, Note_on_c, 1, 50, 112
3, 16604, Note_off_c, 1, 50, 100
3, 16608, Note_on_c, 1, 47, 112
3, 16672, Note_off_c, 1, 47, 100
3, 16704, Note_on_c, 1, 50, 112
3, 16748, Note_off_c, 1, 50, 100
3, 16752, Note_on_c, 1, 49, 112
3, 16796, Note_off_c, 1, 49, 100
3, 16800, Note_on_c, 1, 50, 112
3, 16844, Note_off_c, 1, 50, 100
3, 16848, Note_on_c, 1, 49, 112
3, 16892, Note_off_c, 1, 49, 100
3, 16896, Note_on_c, 1, 50, 112
3, 16940, Note_off_c, 1, 50, 100
3, 16944, Note_on_c, 1, 49, 112
3, 16988, Note_off_c, 1, 49, 100
3, 16992, Note_on_c, 1, 50, 112
3, 17036, Note_off_c, 1, 50, 100
3, 17040, Note_on_c, 1, 49, 112
3, 17084, Note_off_c, 1, 49, 100
3, 17088, Note_on_c, 1, 50, 112
3, 17132, Note_off_c, 1, 50, 100
3, 17136, Note_on_c, 1, 49, 112
3, 17180, Note_off_c, 1, 49, 100
3, 17184, Note_on_c, 1, 47, 112
3, 17228, Note_off_c, 1, 47, 100
3, 17232, Note_on_c, 1, 49, 112
3, 17276, Note_off_c, 1, 49, 100
3, 17280, Note_on_c, 1, 50, 112
3, 17340, Note_off_c, 1, 50, 100
3, 17472, Note_on_c, 1, 42, 112
3, 17532, Note_off_c, 1, 42, 100
3, 17664, Note_on_c, 1, 45, 112
3, 17724, Note_off_c, 1, 45, 100
3, 17856, Note_on_c, 1, 38, 112
3, 18240, Note_off_c, 1, 38, 100
3, 19584, Note_on_c, 1, 67, 112
3, 19772, Note_off_c, 1, 67, 100
3, 19776, Note_on_c, 1, 66, 112
3, 19868, Note_off_c, 1, 66, 100
3, 19872, Note_on_c, 1, 64, 112
3, 19964, Note_off_c, 1, 64, 100
3, 19968, Note_on_c, 1, 62, 112
3, 20060, Note_off_c, 1, 62, 100
3, 20064, Note_on_c, 1, 60, 112
3, 20156, Note_off_c, 1, 60, 100
3, 20160, Note_on_c, 1, 59, 112
3, 20252, Note_off_c, 1, 59, 100
3, 20256, Note_on_c, 1, 60, 112
3, 20348, Note_off_c, 1, 60, 100
3, 20352, Note_on_c, 1, 62, 112
3, 20444, Note_off_c, 1, 62, 100
3, 20448, Note_on_c, 1, 60, 112
3, 20540, Note_off_c, 1, 60, 100
3, 20544, Note_on_c, 1, 59, 112
3, 20636, Note_off_c, 1, 59, 100
3, 20640, Note_on_c, 1, 67, 112
3, 20704, Note_off_c, 1, 67, 100
3, 20736, Note_on_c, 1, 57, 112
3, 20924, Note_off_c, 1, 57, 100
3, 21312, Note_on_c, 1, 66, 112
3, 21500, Note_off_c, 1, 66, 100
3, 21888, Note_on_c, 1, 71, 112
3, 21980, Note_off_c, 1, 71, 100
3, 21984, Note_on_c, 1, 72, 112
3, 22076, Note_off_c, 1, 72, 100
3, 22080, Note_on_c, 1, 71, 112
3, 22172, Note_off_c, 1, 71, 100
3, 22176, Note_on_c, 1, 69, 112
3, 22268, Note_off_c, 1, 69, 100
3, 22272, Note_on_c, 1, 67, 112
3, 22364, Note_off_c, 1, 67, 100
3, 22368, Note_on_c, 1, 66, 112
3, 22460, Note_off_c, 1, 66, 100
3, 22464, Note_on_c, 1, 67, 112
3, 22556, Note_off_c, 1, 67, 100
3, 22560, Note_on_c, 1, 69, 112
3, 22652, Note_off_c, 1, 69, 100
3, 22656, Note_on_c, 1, 67, 112
3, 22748, Note_off_c, 1, 67, 100
3, 22752, Note_on_c, 1, 66, 112
3, 22844, Note_off_c, 1, 66, 100
3, 22848, Note_on_c, 1, 64, 112
3, 22940, Note_off_c, 1, 64, 100
3, 22944, Note_on_c, 1, 62, 112
3, 23036, Note_off_c, 1, 62, 100
3, 23040, Note_on_c, 1, 60, 112
3, 23100, Note_off_c, 1, 60, 100
3, 23232, Note_on_c, 1, 64, 112
3, 23276, Note_off_c, 1, 64, 100
3, 23280, Note_on_c, 1, 62, 112
3, 23324, Note_off_c, 1, 62, 100
3, 23328, Note_on_c, 1, 60, 112
3, 23372, Note_off_c, 1, 60, 100
3, 23376, Note_on_c, 1, 62, 112
3, 23420, Note_off_c, 1, 62, 100
3, 23424, Note_on_c, 1, 64, 112
3, 23484, Note_off_c, 1, 64, 100
3, 23616, Note_on_c, 1, 57, 112
3, 24188, Note_off_c, 1, 57, 100
3, 24288, Note_on_c, 1, 55, 112
3, 24380, Note_off_c, 1, 55, 100
3, 24384, Note_on_c, 1, 57, 112
3, 24476, Note_off_c, 1, 57, 100
3, 24480, Note_on_c, 1, 60, 112
3, 24572, Note_off_c, 1, 60, 100
3, 24576, Note_on_c, 1, 59, 112
3, 24668, Note_off_c, 1, 59, 100
3, 24672, Note_on_c, 1, 57, 112
3, 24764, Note_off_c, 1, 57, 100
3, 24768, Note_on_c, 1, 59, 112
3, 24860, Note_off_c, 1, 59, 100
3, 24864, Note_on_c, 1, 64, 112
3, 24956, Note_off_c, 1, 64, 100
3, 24960, Note_on_c, 1, 59, 112
3, 25052, Note_off_c, 1, 59, 100
3, 25056, Note_on_c, 1, 55, 112
3, 25148, Note_off_c, 1, 55, 100
3, 25152, Note_on_c, 1, 52, 112
3, 25244, Note_off_c, 1, 52, 100
3, 25248, Note_on_c, 1, 55, 112
3, 25340, Note_off_c, 1, 55, 100
3, 25344, Note_on_c, 1, 49, 112
3, 25436, Note_off_c, 1, 49, 100
3, 25440, Note_on_c, 1, 51, 112
3, 25532, Note_off_c, 1, 51, 100
3, 25536, Note_on_c, 1, 52, 112
3, 25628, Note_off_c, 1, 52, 100
3, 25632, Note_on_c, 1, 55, 112
3, 25724, Note_off_c, 1, 55, 100
3, 25728, Note_on_c, 1, 54, 112
3, 25820, Note_off_c, 1, 54, 100
3, 25824, Note_on_c, 1, 52, 112
3, 25916, Note_off_c, 1, 52, 100
3, 25920, Note_on_c, 1, 54, 112
3, 25980, Note_off_c, 1, 54, 100
3, 26112, Note_on_c, 1, 55, 112
3, 26156, Note_off_c, 1, 55, 100
3, 26160, Note_on_c, 1, 54, 112
3, 26204, Note_off_c, 1, 54, 100
3, 26208, Note_on_c, 1, 55, 112
3, 26252, Note_off_c, 1, 55, 100
3, 26256, Note_on_c, 1, 54, 112
3, 26300, Note_off_c, 1, 54, 100
3, 26304, Note_on_c, 1, 55, 112
3, 26348, Note_off_c, 1, 55, 100
3, 26352, Note_on_c, 1, 54, 112
3, 26396, Note_off_c, 1, 54, 100
3, 26400, Note_on_c, 1, 52, 112
3, 26444, Note_off_c, 1, 52, 100
3, 26448, Note_on_c, 1, 54, 112
3, 26480, Note_off_c, 1, 54, 100
3, 26496, Note_on_c, 1, 55, 112
3, 26588, Note_off_c, 1, 55, 100
3, 26592, Note_on_c, 1, 57, 112
3, 26684, Note_off_c, 1, 57, 100
3, 26688, Note_on_c, 1, 59, 112
3, 26780, Note_off_c, 1, 59, 100
3, 26784, Note_on_c, 1, 57, 112
3, 26876, Note_off_c, 1, 57, 100
3, 26880, Note_on_c, 1, 55, 112
3, 26940, Note_off_c, 1, 55, 100
3, 27072, Note_on_c, 1, 57, 112
3, 27116, Note_off_c, 1, 57, 100
3, 27120, Note_on_c, 1, 56, 112
3, 27164, Note_off_c, 1, 56, 100
3, 27168, Note_on_c, 1, 54, 112
3, 27212, Note_off_c, 1, 54, 100
3, 27216, Note_on_c, 1, 56, 112
3, 27596, Note_off_c, 1, 56, 100
3, 27744, Note_on_c, 1, 52, 112
3, 27836, Note_off_c, 1, 52, 100
3, 27840, Note_on_c, 1, 54, 112
3, 27932, Note_off_c, 1, 54, 100
3, 27936, Note_on_c, 1, 56, 112
3, 28028, Note_off_c, 1, 56, 100
3, 28032, Note_on_c, 1, 57, 112
3, 28124, Note_off_c, 1, 57, 100
3, 28128, Note_on_c, 1, 59, 112
3, 28220, Note_off_c, 1, 59, 100
3, 28224, Note_on_c, 1, 60, 112
3, 28316, Note_off_c, 1, 60, 100
3, 28320, Note_on_c, 1, 59, 112
3, 28412, Note_off_c, 1, 59, 100
3, 28416, Note_on_c, 1, 57, 112
3, 28508, Note_off_c, 1, 57, 100
3, 28512, Note_on_c, 1, 55, 112
3, 28604, Note_off_c, 1, 55, 100
3, 28608, Note_on_c, 1, 54, 112
3, 28700, Note_off_c, 1, 54, 100
3, 28704, Note_on_c, 1, 52, 112
3, 28796, Note_off_c, 1, 52, 100
3, 28800, Note_on_c, 1, 50, 112
3, 28864, Note_off_c, 1, 50, 100
3, 28896, Note_on_c, 1, 54, 112
3, 28988, Note_off_c, 1, 54, 100
3, 28992, Note_on_c, 1, 55, 112
3, 29084, Note_off_c, 1, 55, 100
3, 29088, Note_on_c, 1, 57, 112
3, 29180, Note_off_c, 1, 57, 100
3, 29184, Note_on_c, 1, 59, 112
3, 29276, Note_off_c, 1, 59, 100
3, 29280, Note_on_c, 1, 60, 112
3, 29372, Note_off_c, 1, 60, 100
3, 29376, Note_on_c, 1, 62, 112
3, 29468, Note_off_c, 1, 62, 100
3, 29472, Note_on_c, 1, 60, 112
3, 29564, Note_off_c, 1, 60, 100
3, 29568, Note_on_c, 1, 59, 112
3, 29660, Note_off_c, 1, 59, 100
3, 29664, Note_on_c, 1, 60, 112
3, 29756, Note_off_c, 1, 60, 100
3, 29760, Note_on_c, 1, 62, 112
3, 29820, Note_off_c, 1, 62, 100
3, 29952, Note_on_c, 1, 55, 112
3, 30140, Note_off_c, 1, 55, 100
3, 30528, Note_on_c, 1, 64, 112
3, 30716, Note_off_c, 1, 64, 100
3, 31104, Note_on_c, 1, 57, 112
3, 31292, Note_off_c, 1, 57, 100
3, 31296, Note_on_c, 1, 59, 112
3, 31388, Note_off_c, 1, 59, 100
3, 31392, Note_on_c, 1, 60, 112
3, 31484, Note_off_c, 1, 60, 100
3, 31488, Note_on_c, 1, 62, 112
3, 31580, Note_off_c, 1, 62, 100
3, 31584, Note_on_c, 1, 64, 112
3, 31676, Note_off_c, 1, 64, 100
3, 31680, Note_on_c, 1, 66, 112
3, 31772, Note_off_c, 1, 66, 100
3, 31776, Note_on_c, 1, 67, 112
3, 31868, Note_off_c, 1, 67, 100
3, 31872, Note_on_c, 1, 66, 112
3, 31964, Note_off_c, 1, 66, 100
3, 31968, Note_on_c, 1, 64, 112
3, 32060, Note_off_c, 1, 64, 100
3, 32064, Note_on_c, 1, 66, 112
3, 32156, Note_off_c, 1, 66, 100
3, 32160, Note_on_c, 1, 62, 112
3, 32252, Note_off_c, 1, 62, 100
3, 32256, Note_on_c, 1, 71, 112
3, 32348, Note_off_c, 1, 71, 100
3, 32352, Note_on_c, 1, 69, 112
3, 32444, Note_off_c, 1, 69, 100
3, 32448, Note_on_c, 1, 67, 112
3, 32540, Note_off_c, 1, 67, 100
3, 32544, Note_on_c, 1, 66, 112
3, 32636, Note_off_c, 1, 66, 100
3, 32640, Note_on_c, 1, 64, 112
3, 32732, Note_off_c, 1, 64, 100
3, 32736, Note_on_c, 1, 62, 112
3, 32828, Note_off_c, 1, 62, 100
3, 32832, Note_on_c, 1, 60, 112
3, 33404, Note_off_c, 1, 60, 100
3, 33504, Note_on_c, 1, 59, 112
3, 33596, Note_off_c, 1, 59, 100
3, 33600, Note_on_c, 1, 60, 112
3, 33692, Note_off_c, 1, 60, 100
3, 33696, Note_on_c, 1, 62, 112
3, 33788, Note_off_c, 1, 62, 100
3, 33792, Note_on_c, 1, 64, 112
3, 33884, Note_off_c, 1, 64, 100
3, 33888, Note_on_c, 1, 66, 112
3, 33980, Note_off_c, 1, 66, 100
3, 33984, Note_on_c, 1, 67, 112
3, 34076, Note_off_c, 1, 67, 100
3, 34080, Note_on_c, 1, 62, 112
3, 34172, Note_off_c, 1, 62, 100
3, 34176, Note_on_c, 1, 59, 112
3, 34268, Note_off_c, 1, 59, 100
3, 34272, Note_on_c, 1, 55, 112
3, 34364, Note_off_c, 1, 55, 100
3, 34368, Note_on_c, 1, 57, 112
3, 34460, Note_off_c, 1, 57, 100
3, 34464, Note_on_c, 1, 59, 112
3, 34528, Note_off_c, 1, 59, 100
3, 34560, Note_on_c, 1, 52, 112
3, 34652, Note_off_c, 1, 52, 100
3, 34656, Note_on_c, 1, 54, 112
3, 34748, Note_off_c, 1, 54, 100
3, 34752, Note_on_c, 1, 55, 112
3, 34844, Note_off_c, 1, 55, 100
3, 34848, Note_on_c, 1, 57, 112
3, 34940, Note_off_c, 1, 57, 100
3, 34944, Note_on_c, 1, 59, 112
3, 35036, Note_off_c, 1, 59, 100
3, 35040, Note_on_c, 1, 55, 112
3, 35132, Note_off_c, 1, 55, 100
3, 35136, Note_on_c, 1, 57, 112
3, 35228, Note_off_c, 1, 57, 100
3, 35232, Note_on_c, 1, 60, 112
3, 35324, Note_off_c, 1, 60, 100
3, 35328, Note_on_c, 1, 66, 112
3, 35388, Note_off_c, 1, 66, 100
3, 35904, Note_on_c, 1, 62, 112
3, 36032, Note_off_c, 1, 62, 100
3, 36096, Note_on_c, 1, 60, 112
3, 36224, Note_off_c, 1, 60, 100
3, 36288, Note_on_c, 1, 59, 112
3, 36416, Note_off_c, 1, 59, 100
3, 36480, Note_on_c, 1, 60, 112
3, 36572, Note_off_c, 1, 60, 100
3, 36576, Note_on_c, 1, 59, 112
3, 36668, Note_off_c, 1, 59, 100
3, 36672, Note_on_c, 1, 57, 112
3, 36764, Note_off_c, 1, 57, 100
3, 36768, Note_on_c, 1, 55, 1
3, 36768, Note_on_c, 1, 55, 112
3, 37630, Note_off_c, 1, 55, 100
3, 38782, Note_off_c, 1, 55, 100
3, 38782, End_track
4, 0, Start_track
4, 0, Title_t, "BWV 988"
4, 0, Control_c, 2, 0, 0
4, 0, Program_c, 2, 6
4, 0, Control_c, 2, 7, 0
4, 0, Key_signature, 1, "major"
4, 0, End_track
5, 0, Start_track
5, 0, Title_t, "Var.XXVII, Canone alla nona: Un poco vivace"
5, 0, Control_c, 2, 0, 0
5, 0, Program_c, 2, 6
5, 0, Control_c, 2, 7, 0
5, 0, Key_signature, 1, "major"
5, 0, End_track
6, 0, Start_track
6, 0, Title_t, "Bruno de Giusti"
6, 0, Control_c, 2, 0, 0
6, 0, Program_c, 2, 6
6, 0, Control_c, 2, 7, 0
6, 0, Key_signature, 1, "major"
6, 0, End_track
7, 0, Start_track
7, 0, Title_t, "bdg@bruno-de-giusti.net"
7, 0, Control_c, 2, 0, 0
7, 0, Program_c, 2, 6
7, 0, Control_c, 2, 7, 0
7, 0, Key_signature, 1, "major"
7, 0, End_track
8, 0, Start_track
8, 0, Title_t, "www.bruno-de-giusti.net"
8, 0, Control_c, 2, 0, 0
8, 0, Program_c, 2, 6
8, 0, Control_c, 2, 7, 0
8, 0, Key_signature, 1, "major"
8, 0, End_track
9, 0, Start_track
9, 0, Title_t, "All rights reserved"
9, 0, Control_c, 2, 0, 0
9, 0, Program_c, 2, 6
9, 0, Control_c, 2, 7, 0
9, 0, Key_signature, 1, "major"
9, 0, End_track
10, 0, Start_track
10, 1, Copyright_t, "___________________________________________________\012\012KUNSTDERFUGE.COM LARGE CLASSICAL MIDI COLLECTION\012ONCLASSICAL BY ALESSANDRO SIMONETTO, PROPRIETOR\012___________________________________________________\012\012! Attention: this file is under copyright !\012\012(c)onclassical, (c)degiusti, 2010\012___________________________________________________\012\012NO ONE MAY REPUBLISH THIS FILE WITHOUT PERMISSION\012COMMERCIAL USES OF THIS FILE IS STRICTLY PROHIBITED\012___________________________________________________\012\012Files & contributor's list: http://kunstderfuge.com/\012Terms and conditions: http://kunstderfuge.com/notes.htm"
10, 1, End_track
0, 0, End_of_file