0, 0, Header, 1, 1, 480
1, 0, Start_track
1, 0, Sequence_number, 0
1, 0, Title_t, "sinfonien11"
1, 0, Channel_prefix, 0
1, 0, Instrument_name_t, "1"
1, 0, Program_c, 0, 0
1, 0, Tempo, 1250000
1, 0, Time_signature, 4, 2, 24, 24
1, 0, Key_signature, 0, "major"
1, 120, Note_on_c, 0, 74, 90
1, 240, Note_off_c, 0, 74, 0
1, 240, Note_on_c, 0, 70, 90
1, 360, Note_off_c, 0, 70, 0
1, 360, Note_on_c, 0, 67, 90
1, 480, Note_off_c, 0, 67, 0
1, 480, Note_on_c, 0, 79, 90
1, 720, Note_off_c, 0, 79, 0
1, 720, Note_on_c, 0, 77, 90
1, 1440, Note_off_c, 0, 77, 0
1, 1440, Note_on_c, 0, 75, 90
1, 2160, Note_off_c, 0, 75, 0
1, 2160, Note_on_c, 0, 74, 90
1, 2880, Note_off_c, 0, 74, 0
1, 2880, Note_on_c, 0, 72, 90
1, 3360, Note_off_c, 0, 72, 0
1, 3360, Note_on_c, 0, 74, 90
1, 3600, Note_off_c, 0, 74, 0
1, 3600, Note_on_c, 0, 70, 90
1, 3960, Note_off_c, 0, 70, 0
1, 3960, Note_on_c, 0, 67, 90
1, 4080, Note_off_c, 0, 67, 0
1, 4080, Note_on_c, 0, 75, 90
1, 4320, Note_off_c, 0, 75, 0
1, 4320, Note_on_c, 0, 69, 90
1, 4680, Note_off_c, 0, 69, 0
1, 4680, Note_on_c, 0, 70, 90
1, 4800, Note_off_c, 0, 70, 0
1, 4800, Note_on_c, 0, 72, 90
1, 5040, Note_off_c, 0, 72, 0
1, 5040, Note_on_c, 0, 70, 90
1, 5760, Note_off_c, 0, 70, 0
1, 5760, Note_on_c, 0, 71, 90
1, 6360, Note_off_c, 0, 71, 0
1, 6360, Note_on_c, 0, 69, 90
1, 6420, Note_off_c, 0, 69, 0
1, 6420, Note_on_c, 0, 71, 90
1, 6480, Note_off_c, 0, 71, 0
1, 6480, Note_on_c, 0, 72, 90
1, 6840, Note_off_c, 0, 72, 0
1, 6840, Note_on_c, 0, 74, 90
1, 6960, Note_off_c, 0, 74, 0
1, 6960, Note_on_c, 0, 75, 90
1, 7320, Note_off_c, 0, 75, 0
1, 7320, Note_on_c, 0, 74, 90
1, 7440, Note_off_c, 0, 74, 0
1, 7440, Note_on_c, 0, 71, 90
1, 7560, Note_off_c, 0, 71, 0
1, 7560, Note_on_c, 0, 67, 90
1, 7680, Note_off_c, 0, 67, 0
1, 7680, Note_on_c, 0, 77, 90
1, 7920, Note_off_c, 0, 77, 0
1, 7920, Note_on_c, 0, 75, 90
1, 8760, Note_off_c, 0, 75, 0
1, 8760, Note_on_c, 0, 75, 90
1, 9000, Note_off_c, 0, 75, 0
1, 9000, Note_on_c, 0, 74, 90
1, 9120, Note_off_c, 0, 74, 0
1, 9120, Note_on_c, 0, 72, 90
1, 9480, Note_off_c, 0, 72, 0
1, 9480, Note_on_c, 0, 77, 90
1, 9600, Note_off_c, 0, 77, 0
1, 9600, Note_on_c, 0, 74, 90
1, 9720, Note_off_c, 0, 74, 0
1, 9720, Note_on_c, 0, 70, 90
1, 9840, Note_off_c, 0, 70, 0
1, 9840, Note_on_c, 0, 82, 90
1, 10080, Note_off_c, 0, 82, 0
1, 10080, Note_on_c, 0, 74, 90
1, 10440, Note_off_c, 0, 74, 0
1, 10440, Note_on_c, 0, 75, 90
1, 10560, Note_off_c, 0, 75, 0
1, 10560, Note_on_c, 0, 72, 90
1, 10800, Note_off_c, 0, 72, 0
1, 10800, Note_on_c, 0, 70, 90
1, 11520, Note_off_c, 0, 70, 0
1, 11520, Note_on_c, 0, 82, 90
1, 12360, Note_off_c, 0, 82, 0
1, 12360, Note_on_c, 0, 79, 90
1, 12480, Note_off_c, 0, 79, 0
1, 12480, Note_on_c, 0, 75, 90
1, 12600, Note_off_c, 0, 75, 0
1, 12600, Note_on_c, 0, 72, 90
1, 12720, Note_off_c, 0, 72, 0
1, 12720, Note_on_c, 0, 82, 90
1, 12960, Note_off_c, 0, 82, 0
1, 12960, Note_on_c, 0, 81, 90
1, 13800, Note_off_c, 0, 81, 0
1, 13800, Note_on_c, 0, 77, 90
1, 13920, Note_off_c, 0, 77, 0
1, 13920, Note_on_c, 0, 74, 90
1, 14040, Note_off_c, 0, 74, 0
1, 14040, Note_on_c, 0, 70, 90
1, 14160, Note_off_c, 0, 70, 0
1, 14160, Note_on_c, 0, 82, 90
1, 14400, Note_off_c, 0, 82, 0
1, 14400, Note_on_c, 0, 79, 90
1, 15240, Note_off_c, 0, 79, 0
1, 15240, Note_on_c, 0, 76, 90
1, 15360, Note_off_c, 0, 76, 0
1, 15360, Note_on_c, 0, 73, 90
1, 15480, Note_off_c, 0, 73, 0
1, 15480, Note_on_c, 0, 69, 90
1, 15600, Note_off_c, 0, 69, 0
1, 15600, Note_on_c, 0, 77, 90
1, 15960, Note_off_c, 0, 77, 0
1, 15960, Note_on_c, 0, 74, 90
1, 16080, Note_off_c, 0, 74, 0
1, 16080, Note_on_c, 0, 70, 90
1, 16200, Note_off_c, 0, 70, 0
1, 16200, Note_on_c, 0, 67, 90
1, 16320, Note_off_c, 0, 67, 0
1, 16320, Note_on_c, 0, 76, 90
1, 16680, Note_off_c, 0, 76, 0
1, 16680, Note_on_c, 0, 67, 90
1, 16800, Note_off_c, 0, 67, 0
1, 16800, Note_on_c, 0, 70, 90
1, 16920, Note_off_c, 0, 70, 0
1, 16920, Note_on_c, 0, 76, 90
1, 17040, Note_off_c, 0, 76, 0
1, 17040, Note_on_c, 0, 65, 90
1, 17160, Note_off_c, 0, 65, 0
1, 17160, Note_on_c, 0, 74, 90
1, 17400, Note_off_c, 0, 74, 0
1, 17400, Note_on_c, 0, 73, 90
1, 17520, Note_off_c, 0, 73, 0
1, 17520, Note_on_c, 0, 76, 90
1, 17640, Note_off_c, 0, 76, 0
1, 17640, Note_on_c, 0, 79, 90
1, 17760, Note_off_c, 0, 79, 0
1, 17760, Note_on_c, 0, 74, 90
1, 17880, Note_off_c, 0, 74, 0
1, 17880, Note_on_c, 0, 77, 90
1, 18120, Note_off_c, 0, 77, 0
1, 18120, Note_on_c, 0, 76, 90
1, 18240, Note_off_c, 0, 76, 0
1, 18240, Note_on_c, 0, 79, 90
1, 18360, Note_off_c, 0, 79, 0
1, 18360, Note_on_c, 0, 82, 90
1, 18480, Note_off_c, 0, 82, 0
1, 18480, Note_on_c, 0, 74, 90
1, 18600, Note_off_c, 0, 74, 0
1, 18600, Note_on_c, 0, 81, 90
1, 18840, Note_off_c, 0, 81, 0
1, 18840, Note_on_c, 0, 73, 90
1, 18960, Note_off_c, 0, 73, 0
1, 18960, Note_on_c, 0, 76, 90
1, 19080, Note_off_c, 0, 76, 0
1, 19080, Note_on_c, 0, 79, 90
1, 19200, Note_off_c, 0, 79, 0
1, 19200, Note_on_c, 0, 71, 90
1, 19320, Note_off_c, 0, 71, 0
1, 19320, Note_on_c, 0, 77, 90
1, 19560, Note_off_c, 0, 77, 0
1, 19560, Note_on_c, 0, 69, 90
1, 19680, Note_off_c, 0, 69, 0
1, 19680, Note_on_c, 0, 73, 90
1, 19800, Note_off_c, 0, 73, 0
1, 19800, Note_on_c, 0, 76, 90
1, 19920, Note_off_c, 0, 76, 0
1, 19920, Note_on_c, 0, 68, 90
1, 20040, Note_off_c, 0, 68, 0
1, 20040, Note_on_c, 0, 74, 90
1, 20160, Note_off_c, 0, 74, 0
1, 20160, Note_on_c, 0, 73, 90
1, 20280, Note_off_c, 0, 73, 0
1, 20280, Note_on_c, 0, 76, 90
1, 20400, Note_off_c, 0, 76, 0
1, 20400, Note_on_c, 0, 73, 90
1, 20520, Note_off_c, 0, 73, 0
1, 20520, Note_on_c, 0, 69, 90
1, 20640, Note_off_c, 0, 69, 0
1, 20640, Note_on_c, 0, 79, 90
1, 20880, Note_off_c, 0, 79, 0
1, 20880, Note_on_c, 0, 77, 90
1, 21600, Note_off_c, 0, 77, 0
1, 21600, Note_on_c, 0, 75, 90
1, 22320, Note_off_c, 0, 75, 0
1, 22320, Note_on_c, 0, 74, 90
1, 23160, Note_off_c, 0, 74, 0
1, 23160, Note_on_c, 0, 73, 90
1, 23280, Note_off_c, 0, 73, 0
1, 23280, Note_on_c, 0, 76, 90
1, 23400, Note_off_c, 0, 76, 0
1, 23400, Note_on_c, 0, 79, 90
1, 23520, Note_off_c, 0, 79, 0
1, 23520, Note_on_c, 0, 82, 90
1, 23760, Note_off_c, 0, 82, 0
1, 23760, Note_on_c, 0, 81, 90
1, 24120, Note_off_c, 0, 81, 0
1, 24120, Note_on_c, 0, 76, 90
1, 24240, Note_off_c, 0, 76, 0
1, 24240, Note_on_c, 0, 77, 90
1, 24480, Note_off_c, 0, 77, 0
1, 24480, Note_on_c, 0, 74, 90
1, 24840, Note_off_c, 0, 74, 0
1, 24840, Note_on_c, 0, 76, 90
1, 24960, Note_off_c, 0, 76, 0
1, 24960, Note_on_c, 0, 73, 90
1, 25200, Note_off_c, 0, 73, 0
1, 25200, Note_on_c, 0, 74, 90
1, 25680, Note_off_c, 0, 74, 0
1, 25680, Note_on_c, 0, 77, 90
1, 25920, Note_off_c, 0, 77, 0
1, 25920, Note_on_c, 0, 77, 90
1, 27000, Note_off_c, 0, 77, 0
1, 27000, Note_on_c, 0, 74, 90
1, 27120, Note_off_c, 0, 74, 0
1, 27120, Note_on_c, 0, 75, 90
1, 27360, Note_off_c, 0, 75, 0
1, 27360, Note_on_c, 0, 75, 90
1, 28440, Note_off_c, 0, 75, 0
1, 28440, Note_on_c, 0, 72, 90
1, 28560, Note_off_c, 0, 72, 0
1, 28560, Note_on_c, 0, 74, 90
1, 28920, Note_off_c, 0, 74, 0
1, 28920, Note_on_c, 0, 82, 90
1, 29040, Note_off_c, 0, 82, 0
1, 29040, Note_on_c, 0, 79, 90
1, 29160, Note_off_c, 0, 79, 0
1, 29160, Note_on_c, 0, 75, 90
1, 29280, Note_off_c, 0, 75, 0
1, 29280, Note_on_c, 0, 84, 90
1, 29640, Note_off_c, 0, 84, 0
1, 29640, Note_on_c, 0, 81, 90
1, 29760, Note_off_c, 0, 81, 0
1, 29760, Note_on_c, 0, 77, 90
1, 29880, Note_off_c, 0, 77, 0
1, 29880, Note_on_c, 0, 74, 90
1, 30000, Note_off_c, 0, 74, 0
1, 30000, Note_on_c, 0, 82, 90
1, 30360, Note_off_c, 0, 82, 0
1, 30360, Note_on_c, 0, 79, 90
1, 30480, Note_off_c, 0, 79, 0
1, 30480, Note_on_c, 0, 75, 90
1, 30600, Note_off_c, 0, 75, 0
1, 30600, Note_on_c, 0, 72, 90
1, 30720, Note_off_c, 0, 72, 0
1, 30720, Note_on_c, 0, 81, 90
1, 30960, Note_off_c, 0, 81, 0
1, 30960, Note_on_c, 0, 78, 90
1, 31440, Note_off_c, 0, 78, 0
1, 31440, Note_on_c, 0, 79, 90
1, 31680, Note_off_c, 0, 79, 0
1, 31680, Note_on_c, 0, 75, 90
1, 32040, Note_off_c, 0, 75, 0
1, 32040, Note_on_c, 0, 74, 90
1, 32160, Note_off_c, 0, 74, 0
1, 32160, Note_on_c, 0, 72, 90
1, 32400, Note_off_c, 0, 72, 0
1, 32400, Note_on_c, 0, 74, 90
1, 32760, Note_off_c, 0, 74, 0
1, 32760, Note_on_c, 0, 70, 90
1, 32880, Note_off_c, 0, 70, 0
1, 32880, Note_on_c, 0, 69, 90
1, 33000, Note_off_c, 0, 69, 0
1, 33000, Note_on_c, 0, 72, 90
1, 33120, Note_off_c, 0, 72, 0
1, 33120, Note_on_c, 0, 70, 90
1, 33240, Note_off_c, 0, 70, 0
1, 33240, Note_on_c, 0, 74, 90
1, 33360, Note_off_c, 0, 74, 0
1, 33360, Note_on_c, 0, 72, 90
1, 33480, Note_off_c, 0, 72, 0
1, 33480, Note_on_c, 0, 75, 90
1, 33600, Note_off_c, 0, 75, 0
1, 33600, Note_on_c, 0, 74, 90
1, 33720, Note_off_c, 0, 74, 0
1, 33720, Note_on_c, 0, 81, 90
1, 33840, Note_off_c, 0, 81, 0
1, 33840, Note_on_c, 0, 70, 90
1, 34680, Note_off_c, 0, 70, 0
1, 34680, Note_on_c, 0, 67, 90
1, 34800, Note_off_c, 0, 67, 0
1, 34800, Note_on_c, 0, 63, 90
1, 34920, Note_off_c, 0, 63, 0
1, 34920, Note_on_c, 0, 60, 90
1, 35040, Note_off_c, 0, 60, 0
1, 35040, Note_on_c, 0, 70, 90
1, 35280, Note_off_c, 0, 70, 0
1, 35280, Note_on_c, 0, 69, 90
1, 36120, Note_off_c, 0, 69, 0
1, 36120, Note_on_c, 0, 65, 90
1, 36240, Note_off_c, 0, 65, 0
1, 36240, Note_on_c, 0, 62, 90
1, 36360, Note_off_c, 0, 62, 0
1, 36360, Note_on_c, 0, 58, 90
1, 36480, Note_off_c, 0, 58, 0
1, 36480, Note_on_c, 0, 68, 90
1, 36720, Note_off_c, 0, 68, 0
1, 36720, Note_on_c, 0, 67, 90
1, 37440, Note_off_c, 0, 67, 0
1, 37440, Note_on_c, 0, 67, 90
1, 37560, Note_off_c, 0, 67, 0
1, 37560, Note_on_c, 0, 70, 90
1, 37680, Note_off_c, 0, 70, 0
1, 37680, Note_on_c, 0, 69, 90
1, 37800, Note_off_c, 0, 69, 0
1, 37800, Note_on_c, 0, 72, 90
1, 37920, Note_off_c, 0, 72, 0
1, 37920, Note_on_c, 0, 66, 90
1, 38040, Note_off_c, 0, 66, 0
1, 38040, Note_on_c, 0, 69, 90
1, 38280, Note_off_c, 0, 69, 0
1, 38400, Note_on_c, 0, 67, 90
1, 38520, Note_off_c, 0, 67, 0
1, 38520, Note_on_c, 0, 70, 90
1, 38640, Note_off_c, 0, 70, 0
1, 38640, Note_on_c, 0, 64, 90
1, 38760, Note_off_c, 0, 64, 0
1, 38760, Note_on_c, 0, 67, 90
1, 39000, Note_off_c, 0, 67, 0
1, 39000, Note_on_c, 0, 67, 90
1, 39120, Note_off_c, 0, 67, 0
1, 39120, Note_on_c, 0, 66, 90
1, 39240, Note_off_c, 0, 66, 0
1, 39240, Note_on_c, 0, 69, 90
1, 39360, Note_off_c, 0, 69, 0
1, 39360, Note_on_c, 0, 72, 90
1, 39720, Note_off_c, 0, 72, 0
1, 39720, Note_on_c, 0, 70, 90
1, 39840, Note_off_c, 0, 70, 0
1, 39840, Note_on_c, 0, 69, 90
1, 39960, Note_off_c, 0, 69, 0
1, 39960, Note_on_c, 0, 72, 90
1, 40080, Note_off_c, 0, 72, 0
1, 40080, Note_on_c, 0, 75, 90
1, 40440, Note_off_c, 0, 75, 0
1, 40440, Note_on_c, 0, 74, 90
1, 40560, Note_off_c, 0, 74, 0
1, 40560, Note_on_c, 0, 72, 90
1, 40680, Note_off_c, 0, 72, 0
1, 40680, Note_on_c, 0, 70, 90
1, 40800, Note_off_c, 0, 70, 0
1, 40800, Note_on_c, 0, 69, 90
1, 40920, Note_off_c, 0, 69, 0
1, 40920, Note_on_c, 0, 67, 90
1, 41040, Note_off_c, 0, 67, 0
1, 41040, Note_on_c, 0, 72, 90
1, 41160, Note_off_c, 0, 72, 0
1, 41160, Note_on_c, 0, 70, 90
1, 41280, Note_off_c, 0, 70, 0
1, 41280, Note_on_c, 0, 69, 90
1, 41400, Note_off_c, 0, 69, 0
1, 41400, Note_on_c, 0, 67, 90
1, 41520, Note_off_c, 0, 67, 0
1, 41520, Note_on_c, 0, 66, 90
1, 41640, Note_off_c, 0, 66, 0
1, 41640, Note_on_c, 0, 64, 90
1, 41760, Note_off_c, 0, 64, 0
1, 41760, Note_on_c, 0, 62, 90
1, 41880, Note_off_c, 0, 62, 0
1, 41880, Note_on_c, 0, 66, 90
1, 42000, Note_off_c, 0, 66, 0
1, 42000, Note_on_c, 0, 69, 90
1, 42120, Note_off_c, 0, 69, 0
1, 42120, Note_on_c, 0, 72, 90
1, 42240, Note_off_c, 0, 72, 0
1, 42240, Note_on_c, 0, 67, 90
1, 42360, Note_off_c, 0, 67, 0
1, 42360, Note_on_c, 0, 70, 90
1, 42600, Note_off_c, 0, 70, 0
1, 42600, Note_on_c, 0, 69, 90
1, 42720, Note_off_c, 0, 69, 0
1, 42720, Note_on_c, 0, 72, 90
1, 42840, Note_off_c, 0, 72, 0
1, 42840, Note_on_c, 0, 75, 90
1, 42960, Note_off_c, 0, 75, 0
1, 42960, Note_on_c, 0, 67, 90
1, 43080, Note_off_c, 0, 67, 0
1, 43080, Note_on_c, 0, 74, 90
1, 43320, Note_off_c, 0, 74, 0
1, 43320, Note_on_c, 0, 66, 90
1, 43440, Note_off_c, 0, 66, 0
1, 43440, Note_on_c, 0, 69, 90
1, 43560, Note_off_c, 0, 69, 0
1, 43560, Note_on_c, 0, 72, 90
1, 43680, Note_off_c, 0, 72, 0
1, 43680, Note_on_c, 0, 64, 90
1, 43800, Note_off_c, 0, 64, 0
1, 43800, Note_on_c, 0, 70, 90
1, 44040, Note_off_c, 0, 70, 0
1, 44040, Note_on_c, 0, 62, 90
1, 44160, Note_off_c, 0, 62, 0
1, 44160, Note_on_c, 0, 66, 90
1, 44280, Note_off_c, 0, 66, 0
1, 44280, Note_on_c, 0, 69, 90
1, 44400, Note_off_c, 0, 69, 0
1, 44400, Note_on_c, 0, 61, 90
1, 44520, Note_off_c, 0, 61, 0
1, 44520, Note_on_c, 0, 67, 90
1, 44640, Note_off_c, 0, 67, 0
1, 44640, Note_on_c, 0, 66, 90
1, 45240, Note_off_c, 0, 66, 0
1, 45240, Note_on_c, 0, 66, 90
1, 45360, Note_off_c, 0, 66, 0
1, 45360, Note_on_c, 0, 69, 90
1, 45480, Note_off_c, 0, 69, 0
1, 45480, Note_on_c, 0, 72, 90
1, 45600, Note_off_c, 0, 72, 0
1, 45600, Note_on_c, 0, 75, 90
1, 46080, Note_off_c, 0, 75, 0
1, 46080, Note_on_c, 0, 75, 90
1, 46200, Note_off_c, 0, 75, 0
1, 46200, Note_on_c, 0, 74, 90
1, 46320, Note_off_c, 0, 74, 0
1, 46320, Note_on_c, 0, 70, 90
1, 46440, Note_off_c, 0, 70, 0
1, 46440, Note_on_c, 0, 67, 90
1, 46560, Note_off_c, 0, 67, 0
1, 46560, Note_on_c, 0, 79, 90
1, 46800, Note_off_c, 0, 79, 0
1, 46800, Note_on_c, 0, 77, 90
1, 47520, Note_off_c, 0, 77, 0
1, 47520, Note_on_c, 0, 75, 90
1, 48240, Note_off_c, 0, 75, 0
1, 48240, Note_on_c, 0, 74, 90
1, 48960, Note_off_c, 0, 74, 0
1, 48960, Note_on_c, 0, 72, 90
1, 49440, Note_off_c, 0, 72, 0
1, 49680, Note_on_c, 0, 70, 90
1, 50040, Note_off_c, 0, 70, 0
1, 50160, Note_on_c, 0, 75, 90
1, 50400, Note_off_c, 0, 75, 0
1, 50400, Note_on_c, 0, 70, 90
1, 50760, Note_off_c, 0, 70, 0
1, 50760, Note_on_c, 0, 72, 90
1, 50880, Note_off_c, 0, 72, 0
1, 50880, Note_on_c, 0, 69, 90
1, 51120, Note_off_c, 0, 69, 0
1, 51120, Note_on_c, 0, 67, 90
1, 51840, Note_off_c, 0, 67, 0
1, 51840, End_track
0, 0, End_of_file