0, 0, Header, 1, 9, 384
1, 0, Start_track
1, 0, Time_signature, 4, 2, 96, 8
1, 0, Sequencer_specific, 03, 00, 00, 41
1, 0, Tempo, 500000
1, 0, End_track
2, 0, Start_track
2, 0, Title_t, " "
2, 0, Control_c, 0, 0, 0
2, 0, Program_c, 0, 0
2, 0, Key_signature, 0, "major"
2, 0, Control_c, 0, 7, 125
2, 0, Note_on_c, 0, 69, 74
2, 768, Note_off_c, 0, 69, 0
2, 768, Note_on_c, 0, 62, 68
2, 1536, Note_off_c, 0, 62, 0
2, 1536, Note_on_c, 0, 65, 71
2, 2304, Note_off_c, 0, 65, 0
2, 2304, Note_on_c, 0, 69, 74
2, 3072, Note_off_c, 0, 69, 0
2, 3072, Note_on_c, 0, 70, 75
2, 3792, Note_off_c, 0, 70, 0
2, 3876, Note_on_c, 0, 69, 73
2, 4248, Note_off_c, 0, 69, 0
2, 4256, Note_on_c, 0, 67, 72
2, 4624, Note_off_c, 0, 67, 0
2, 4636, Note_on_c, 0, 65, 71
2, 5552, Note_off_c, 0, 65, 0
2, 5632, Note_on_c, 0, 64, 67
2, 5788, Note_off_c, 0, 64, 0
2, 5816, Note_on_c, 0, 65, 68
2, 5968, Note_off_c, 0, 65, 0
2, 5992, Note_on_c, 0, 67, 70
2, 6148, Note_off_c, 0, 67, 0
2, 6176, Note_on_c, 0, 69, 74
2, 7096, Note_off_c, 0, 69, 0
2, 7176, Note_on_c, 0, 70, 73
2, 7332, Note_off_c, 0, 70, 0
2, 7356, Note_on_c, 0, 69, 72
2, 7512, Note_off_c, 0, 69, 0
2, 7536, Note_on_c, 0, 68, 71
2, 7692, Note_off_c, 0, 68, 0
2, 7720, Note_on_c, 0, 69, 74
2, 8620, Note_off_c, 0, 69, 0
2, 8704, Note_on_c, 0, 70, 73
2, 8860, Note_off_c, 0, 70, 0
2, 8884, Note_on_c, 0, 69, 72
2, 9040, Note_off_c, 0, 69, 0
2, 9064, Note_on_c, 0, 68, 71
2, 9220, Note_off_c, 0, 68, 0
2, 9244, Note_on_c, 0, 69, 73
2, 9616, Note_off_c, 0, 69, 0
2, 9624, Note_on_c, 0, 74, 78
2, 9996, Note_off_c, 0, 74, 0
2, 10004, Note_on_c, 0, 67, 72
2, 10376, Note_off_c, 0, 67, 0
2, 10384, Note_on_c, 0, 70, 74
2, 11136, Note_off_c, 0, 70, 0
2, 11144, Note_on_c, 0, 64, 69
2, 11544, Note_off_c, 0, 64, 0
2, 11556, Note_on_c, 0, 69, 73
2, 11924, Note_off_c, 0, 69, 0
2, 11932, Note_on_c, 0, 67, 72
2, 12664, Note_off_c, 0, 67, 0
2, 12672, Note_on_c, 0, 65, 70
2, 13072, Note_off_c, 0, 65, 0
2, 13084, Note_on_c, 0, 70, 75
2, 14192, Note_off_c, 0, 70, 0
2, 14200, Note_on_c, 0, 69, 73
2, 14600, Note_off_c, 0, 69, 0
2, 14612, Note_on_c, 0, 74, 79
2, 15720, Note_off_c, 0, 74, 0
2, 15728, Note_on_c, 0, 72, 76
2, 16128, Note_off_c, 0, 72, 0
2, 16140, Note_on_c, 0, 70, 75
2, 17280, Note_off_c, 0, 70, 0
2, 17288, Note_on_c, 0, 69, 72
2, 17440, Note_off_c, 0, 69, 0
2, 17468, Note_on_c, 0, 67, 70
2, 17624, Note_off_c, 0, 67, 0
2, 17648, Note_on_c, 0, 65, 71
2, 18560, Note_off_c, 0, 65, 0
2, 18584, Note_on_c, 0, 77, 79
2, 18736, Note_off_c, 0, 77, 0
2, 18764, Note_on_c, 0, 76, 78
2, 18920, Note_off_c, 0, 76, 0
2, 18944, Note_on_c, 0, 74, 76
2, 19100, Note_off_c, 0, 74, 0
2, 19124, Note_on_c, 0, 76, 78
2, 19280, Note_off_c, 0, 76, 0
2, 19304, Note_on_c, 0, 77, 79
2, 19460, Note_off_c, 0, 77, 0
2, 19484, Note_on_c, 0, 79, 81
2, 19640, Note_off_c, 0, 79, 0
2, 19664, Note_on_c, 0, 76, 78
2, 19820, Note_off_c, 0, 76, 0
2, 19848, Note_on_c, 0, 81, 87
2, 20928, Note_off_c, 0, 81, 0
2, 21012, Note_on_c, 0, 69, 73
2, 21364, Note_off_c, 0, 69, 0
2, 21376, Note_on_c, 0, 65, 71
2, 22752, Note_off_c, 0, 65, 0
2, 22832, Note_on_c, 0, 64, 69
2, 23168, Note_off_c, 0, 64, 0
2, 23244, Note_on_c, 0, 76, 80
2, 23596, Note_off_c, 0, 76, 0
2, 23604, Note_on_c, 0, 72, 77
2, 24524, Note_off_c, 0, 72, 0
2, 24524, Note_on_c, 0, 72, 74
2, 24680, Note_off_c, 0, 72, 0
2, 24704, Note_on_c, 0, 71, 74
2, 24860, Note_off_c, 0, 71, 0
2, 24884, Note_on_c, 0, 69, 72
2, 25040, Note_off_c, 0, 69, 0
2, 25064, Note_on_c, 0, 71, 74
2, 25220, Note_off_c, 0, 71, 0
2, 25248, Note_on_c, 0, 73, 75
2, 25400, Note_off_c, 0, 73, 0
2, 25424, Note_on_c, 0, 74, 78
2, 25776, Note_off_c, 0, 74, 0
2, 25788, Note_on_c, 0, 76, 81
2, 26624, Note_off_c, 0, 76, 0
2, 26704, Note_on_c, 0, 73, 75
2, 26860, Note_off_c, 0, 73, 0
2, 26888, Note_on_c, 0, 74, 76
2, 27040, Note_off_c, 0, 74, 0
2, 27068, Note_on_c, 0, 76, 78
2, 27224, Note_off_c, 0, 76, 0
2, 27248, Note_on_c, 0, 69, 74
2, 28264, Note_off_c, 0, 69, 0
2, 28348, Note_on_c, 0, 74, 78
2, 28700, Note_off_c, 0, 74, 0
2, 28708, Note_on_c, 0, 70, 75
2, 29740, Note_off_c, 0, 70, 0
2, 29824, Note_on_c, 0, 72, 76
2, 30176, Note_off_c, 0, 72, 0
2, 30184, Note_on_c, 0, 69, 74
2, 31216, Note_off_c, 0, 69, 0
2, 31300, Note_on_c, 0, 70, 74
2, 31652, Note_off_c, 0, 70, 0
2, 31660, Note_on_c, 0, 67, 73
2, 32692, Note_off_c, 0, 67, 0
2, 32776, Note_on_c, 0, 69, 73
2, 33128, Note_off_c, 0, 69, 0
2, 33136, Note_on_c, 0, 65, 71
2, 33892, Note_off_c, 0, 65, 0
2, 39108, Note_on_c, 0, 72, 77
2, 39832, Note_off_c, 0, 72, 0
2, 39832, Note_on_c, 0, 65, 71
2, 40552, Note_off_c, 0, 65, 0
2, 40552, Note_on_c, 0, 69, 74
2, 41272, Note_off_c, 0, 69, 0
2, 41272, Note_on_c, 0, 72, 77
2, 42012, Note_off_c, 0, 72, 0
2, 42012, Note_on_c, 0, 74, 79
2, 42668, Note_off_c, 0, 74, 0
2, 42752, Note_on_c, 0, 72, 76
2, 43120, Note_off_c, 0, 72, 0
2, 43128, Note_on_c, 0, 70, 74
2, 43480, Note_off_c, 0, 70, 0
2, 43488, Note_on_c, 0, 69, 74
2, 44308, Note_off_c, 0, 69, 0
2, 44392, Note_on_c, 0, 67, 70
2, 44564, Note_off_c, 0, 67, 0
2, 44588, Note_on_c, 0, 69, 72
2, 44744, Note_off_c, 0, 69, 0
2, 44768, Note_on_c, 0, 71, 74
2, 44924, Note_off_c, 0, 71, 0
2, 44948, Note_on_c, 0, 72, 77
2, 45720, Note_off_c, 0, 72, 0
2, 46868, Note_on_c, 0, 76, 80
2, 47220, Note_off_c, 0, 76, 0
2, 47228, Note_on_c, 0, 72, 77
2, 48352, Note_off_c, 0, 72, 0
2, 48360, Note_on_c, 0, 71, 74
2, 48516, Note_off_c, 0, 71, 0
2, 48540, Note_on_c, 0, 72, 74
2, 48696, Note_off_c, 0, 72, 0
2, 48720, Note_on_c, 0, 74, 79
2, 49616, Note_off_c, 0, 74, 0
2, 49640, Note_on_c, 0, 67, 70
2, 49796, Note_off_c, 0, 67, 0
2, 49820, Note_on_c, 0, 69, 72
2, 49976, Note_off_c, 0, 69, 0
2, 50000, Note_on_c, 0, 71, 74
2, 50172, Note_off_c, 0, 71, 0
2, 50200, Note_on_c, 0, 72, 77
2, 51304, Note_off_c, 0, 72, 0
2, 51312, Note_on_c, 0, 74, 78
2, 51664, Note_off_c, 0, 74, 0
2, 51676, Note_on_c, 0, 70, 75
2, 52816, Note_off_c, 0, 70, 0
2, 52824, Note_on_c, 0, 74, 78
2, 53224, Note_off_c, 0, 74, 0
2, 53232, Note_on_c, 0, 70, 74
2, 53520, Note_off_c, 0, 70, 0
2, 53592, Note_on_c, 0, 82, 87
2, 54288, Note_off_c, 0, 82, 0
2, 54364, Note_on_c, 0, 81, 83
2, 54520, Note_off_c, 0, 81, 0
2, 54544, Note_on_c, 0, 79, 81
2, 54700, Note_off_c, 0, 79, 0
2, 54724, Note_on_c, 0, 81, 83
2, 54880, Note_off_c, 0, 81, 0
2, 54904, Note_on_c, 0, 79, 81
2, 55060, Note_off_c, 0, 79, 0
2, 55084, Note_on_c, 0, 78, 80
2, 55240, Note_off_c, 0, 78, 0
2, 55264, Note_on_c, 0, 81, 83
2, 55440, Note_off_c, 0, 81, 0
2, 55464, Note_on_c, 0, 74, 79
2, 56496, Note_off_c, 0, 74, 0
2, 56580, Note_on_c, 0, 74, 78
2, 56932, Note_off_c, 0, 74, 0
2, 56940, Note_on_c, 0, 70, 75
2, 57400, Note_off_c, 0, 70, 0
2, 57480, Note_on_c, 0, 70, 73
2, 57636, Note_off_c, 0, 70, 0
2, 57660, Note_on_c, 0, 69, 74
2, 58752, Note_off_c, 0, 69, 0
2, 58760, Note_on_c, 0, 81, 86
2, 59160, Note_off_c, 0, 81, 0
2, 59172, Note_on_c, 0, 77, 82
2, 60260, Note_off_c, 0, 77, 0
2, 60268, Note_on_c, 0, 79, 83
2, 60572, Note_off_c, 0, 79, 0
2, 60648, Note_on_c, 0, 73, 75
2, 60804, Note_off_c, 0, 73, 0
2, 60828, Note_on_c, 0, 74, 76
2, 61000, Note_off_c, 0, 74, 0
2, 61024, Note_on_c, 0, 76, 80
2, 61556, Note_off_c, 0, 76, 0
2, 61584, Note_on_c, 0, 69, 72
2, 61736, Note_off_c, 0, 69, 0
2, 61764, Note_on_c, 0, 71, 74
2, 61920, Note_off_c, 0, 71, 0
2, 61944, Note_on_c, 0, 73, 75
2, 62100, Note_off_c, 0, 73, 0
2, 62124, Note_on_c, 0, 74, 79
2, 63016, Note_off_c, 0, 74, 0
2, 63040, Note_on_c, 0, 71, 74
2, 63200, Note_off_c, 0, 71, 0
2, 63224, Note_on_c, 0, 72, 74
2, 63376, Note_off_c, 0, 72, 0
2, 63404, Note_on_c, 0, 74, 76
2, 63560, Note_off_c, 0, 74, 0
2, 63584, Note_on_c, 0, 76, 81
2, 64476, Note_off_c, 0, 76, 0
2, 64504, Note_on_c, 0, 79, 81
2, 64656, Note_off_c, 0, 79, 0
2, 64684, Note_on_c, 0, 77, 79
2, 64840, Note_off_c, 0, 77, 0
2, 64864, Note_on_c, 0, 76, 78
2, 65020, Note_off_c, 0, 76, 0
2, 65044, Note_on_c, 0, 74, 79
2, 65936, Note_off_c, 0, 74, 0
2, 65964, Note_on_c, 0, 77, 79
2, 66120, Note_off_c, 0, 77, 0
2, 66144, Note_on_c, 0, 76, 78
2, 66296, Note_off_c, 0, 76, 0
2, 66324, Note_on_c, 0, 74, 76
2, 66480, Note_off_c, 0, 74, 0
2, 66504, Note_on_c, 0, 72, 77
2, 67432, Note_off_c, 0, 72, 0
2, 67456, Note_on_c, 0, 76, 78
2, 67612, Note_off_c, 0, 76, 0
2, 67636, Note_on_c, 0, 74, 76
2, 67792, Note_off_c, 0, 74, 0
2, 67816, Note_on_c, 0, 72, 74
2, 67972, Note_off_c, 0, 72, 0
2, 67996, Note_on_c, 0, 71, 76
2, 68908, Note_off_c, 0, 71, 0
2, 68932, Note_on_c, 0, 69, 72
2, 69088, Note_off_c, 0, 69, 0
2, 69112, Note_on_c, 0, 68, 71
2, 69268, Note_off_c, 0, 68, 0
2, 69292, Note_on_c, 0, 71, 74
2, 69464, Note_off_c, 0, 71, 0
2, 69488, Note_on_c, 0, 69, 72
2, 69644, Note_off_c, 0, 69, 0
2, 69672, Note_on_c, 0, 71, 74
2, 69840, Note_off_c, 0, 71, 0
2, 69868, Note_on_c, 0, 72, 76
2, 70400, Note_off_c, 0, 72, 0
2, 70424, Note_on_c, 0, 71, 74
2, 70580, Note_off_c, 0, 71, 0
2, 70604, Note_on_c, 0, 69, 72
2, 70760, Note_off_c, 0, 69, 0
2, 70784, Note_on_c, 0, 72, 74
2, 70960, Note_off_c, 0, 72, 0
2, 70984, Note_on_c, 0, 71, 74
2, 71136, Note_off_c, 0, 71, 0
2, 71164, Note_on_c, 0, 72, 74
2, 71336, Note_off_c, 0, 72, 0
2, 71360, Note_on_c, 0, 74, 78
2, 71892, Note_off_c, 0, 74, 0
2, 71920, Note_on_c, 0, 72, 74
2, 72072, Note_off_c, 0, 72, 0
2, 72096, Note_on_c, 0, 71, 74
2, 72252, Note_off_c, 0, 71, 0
2, 72280, Note_on_c, 0, 74, 76
2, 72452, Note_off_c, 0, 74, 0
2, 72476, Note_on_c, 0, 72, 74
2, 72632, Note_off_c, 0, 72, 0
2, 72656, Note_on_c, 0, 74, 76
2, 72828, Note_off_c, 0, 74, 0
2, 72852, Note_on_c, 0, 76, 80
2, 73384, Note_off_c, 0, 76, 0
2, 73412, Note_on_c, 0, 74, 76
2, 73568, Note_off_c, 0, 74, 0
2, 73592, Note_on_c, 0, 73, 75
2, 73744, Note_off_c, 0, 73, 0
2, 73772, Note_on_c, 0, 76, 78
2, 73944, Note_off_c, 0, 76, 0
2, 73968, Note_on_c, 0, 74, 76
2, 74124, Note_off_c, 0, 74, 0
2, 74148, Note_on_c, 0, 76, 78
2, 74320, Note_off_c, 0, 76, 0
2, 74344, Note_on_c, 0, 77, 81
2, 75076, Note_off_c, 0, 77, 0
2, 75084, Note_on_c, 0, 76, 81
2, 75720, Note_off_c, 0, 76, 0
2, 75804, Note_on_c, 0, 74, 78
2, 76160, Note_off_c, 0, 74, 0
2, 76168, Note_on_c, 0, 72, 76
2, 76520, Note_off_c, 0, 72, 0
2, 76528, Note_on_c, 0, 81, 87
2, 77176, Note_off_c, 0, 81, 0
2, 77260, Note_on_c, 0, 80, 85
2, 77608, Note_off_c, 0, 80, 0
2, 77616, Note_on_c, 0, 81, 86
2, 77968, Note_off_c, 0, 81, 0
2, 77976, Note_on_c, 0, 76, 80
2, 78328, Note_off_c, 0, 76, 0
2, 78336, Note_on_c, 0, 72, 77
2, 79436, Note_off_c, 0, 72, 0
2, 79436, Note_on_c, 0, 72, 76
2, 79792, Note_off_c, 0, 72, 0
2, 79800, Note_on_c, 0, 69, 74
2, 80888, Note_off_c, 0, 69, 0
2, 80896, Note_on_c, 0, 81, 86
2, 81248, Note_off_c, 0, 81, 0
2, 81260, Note_on_c, 0, 77, 82
2, 82360, Note_off_c, 0, 77, 0
2, 82360, Note_on_c, 0, 77, 81
2, 82712, Note_off_c, 0, 77, 0
2, 82720, Note_on_c, 0, 74, 79
2, 83628, Note_off_c, 0, 74, 0
2, 83652, Note_on_c, 0, 84, 87
2, 83808, Note_off_c, 0, 84, 0
2, 83832, Note_on_c, 0, 82, 85
2, 83992, Note_off_c, 0, 82, 0
2, 84016, Note_on_c, 0, 81, 83
2, 84168, Note_off_c, 0, 81, 0
2, 84196, Note_on_c, 0, 79, 81
2, 84368, Note_off_c, 0, 79, 0
2, 84392, Note_on_c, 0, 77, 79
2, 84548, Note_off_c, 0, 77, 0
2, 84572, Note_on_c, 0, 76, 78
2, 84728, Note_off_c, 0, 76, 0
2, 84752, Note_on_c, 0, 74, 76
2, 84924, Note_off_c, 0, 74, 0
2, 84952, Note_on_c, 0, 72, 76
2, 85320, Note_off_c, 0, 72, 0
2, 85328, Note_on_c, 0, 74, 78
2, 85696, Note_off_c, 0, 74, 0
2, 85704, Note_on_c, 0, 70, 75
2, 86796, Note_off_c, 0, 70, 0
2, 86804, Note_on_c, 0, 79, 83
2, 87156, Note_off_c, 0, 79, 0
2, 87164, Note_on_c, 0, 76, 81
2, 88040, Note_off_c, 0, 76, 0
2, 88068, Note_on_c, 0, 81, 83
2, 88224, Note_off_c, 0, 81, 0
2, 88248, Note_on_c, 0, 79, 81
2, 88404, Note_off_c, 0, 79, 0
2, 88428, Note_on_c, 0, 77, 79
2, 88584, Note_off_c, 0, 77, 0
2, 88608, Note_on_c, 0, 76, 78
2, 88780, Note_off_c, 0, 76, 0
2, 88804, Note_on_c, 0, 74, 76
2, 88960, Note_off_c, 0, 74, 0
2, 88984, Note_on_c, 0, 72, 74
2, 89140, Note_off_c, 0, 72, 0
2, 89168, Note_on_c, 0, 70, 73
2, 89320, Note_off_c, 0, 70, 0
2, 89348, Note_on_c, 0, 69, 72
2, 89504, Note_off_c, 0, 69, 0
2, 89528, Note_on_c, 0, 77, 79
2, 89680, Note_off_c, 0, 77, 0
2, 89708, Note_on_c, 0, 76, 78
2, 89864, Note_off_c, 0, 76, 0
2, 89888, Note_on_c, 0, 75, 77
2, 90044, Note_off_c, 0, 75, 0
2, 90068, Note_on_c, 0, 76, 81
2, 90980, Note_off_c, 0, 76, 0
2, 91004, Note_on_c, 0, 77, 79
2, 91160, Note_off_c, 0, 77, 0
2, 91184, Note_on_c, 0, 76, 78
2, 91340, Note_off_c, 0, 76, 0
2, 91364, Note_on_c, 0, 75, 77
2, 91520, Note_off_c, 0, 75, 0
2, 91544, Note_on_c, 0, 76, 81
2, 92456, Note_off_c, 0, 76, 0
2, 92480, Note_on_c, 0, 79, 81
2, 92636, Note_off_c, 0, 79, 0
2, 92660, Note_on_c, 0, 78, 80
2, 92816, Note_off_c, 0, 78, 0
2, 92840, Note_on_c, 0, 76, 78
2, 92996, Note_off_c, 0, 76, 0
2, 93020, Note_on_c, 0, 78, 80
2, 93176, Note_off_c, 0, 78, 0
2, 93200, Note_on_c, 0, 79, 81
2, 93376, Note_off_c, 0, 79, 0
2, 93400, Note_on_c, 0, 81, 86
2, 93752, Note_off_c, 0, 81, 0
2, 93760, Note_on_c, 0, 74, 79
2, 94792, Note_off_c, 0, 74, 0
2, 94876, Note_on_c, 0, 74, 78
2, 95228, Note_off_c, 0, 74, 0
2, 95236, Note_on_c, 0, 70, 75
2, 96088, Note_off_c, 0, 70, 0
2, 96172, Note_on_c, 0, 75, 77
2, 96328, Note_off_c, 0, 75, 0
2, 96352, Note_on_c, 0, 74, 76
2, 96508, Note_off_c, 0, 74, 0
2, 96532, Note_on_c, 0, 73, 75
2, 96688, Note_off_c, 0, 73, 0
2, 96712, Note_on_c, 0, 74, 79
2, 97548, Note_off_c, 0, 74, 0
2, 97632, Note_on_c, 0, 75, 77
2, 97788, Note_off_c, 0, 75, 0
2, 97812, Note_on_c, 0, 74, 76
2, 97968, Note_off_c, 0, 74, 0
2, 97992, Note_on_c, 0, 73, 75
2, 98148, Note_off_c, 0, 73, 0
2, 98172, Note_on_c, 0, 74, 79
2, 98896, Note_off_c, 0, 74, 0
2, 112692, Note_on_c, 0, 76, 81
2, 113416, Note_off_c, 0, 76, 0
2, 113416, Note_on_c, 0, 69, 74
2, 114136, Note_off_c, 0, 69, 0
2, 114136, Note_on_c, 0, 72, 77
2, 114860, Note_off_c, 0, 72, 0
2, 114860, Note_on_c, 0, 76, 81
2, 115580, Note_off_c, 0, 76, 0
2, 115580, Note_on_c, 0, 79, 85
2, 116236, Note_off_c, 0, 79, 0
2, 116320, Note_on_c, 0, 78, 82
2, 116688, Note_off_c, 0, 78, 0
2, 116696, Note_on_c, 0, 76, 80
2, 117048, Note_off_c, 0, 76, 0
2, 117056, Note_on_c, 0, 75, 80
2, 117908, Note_off_c, 0, 75, 0
2, 117992, Note_on_c, 0, 71, 74
2, 118148, Note_off_c, 0, 71, 0
2, 118172, Note_on_c, 0, 73, 75
2, 118328, Note_off_c, 0, 73, 0
2, 118352, Note_on_c, 0, 75, 77
2, 118508, Note_off_c, 0, 75, 0
2, 118536, Note_on_c, 0, 76, 81
2, 119368, Note_off_c, 0, 76, 0
2, 119452, Note_on_c, 0, 77, 79
2, 119608, Note_off_c, 0, 77, 0
2, 119632, Note_on_c, 0, 79, 81
2, 119788, Note_off_c, 0, 79, 0
2, 119812, Note_on_c, 0, 76, 78
2, 119968, Note_off_c, 0, 76, 0
2, 119992, Note_on_c, 0, 77, 79
2, 120168, Note_off_c, 0, 77, 0
2, 120192, Note_on_c, 0, 76, 78
2, 120344, Note_off_c, 0, 76, 0
2, 120372, Note_on_c, 0, 74, 79
2, 120848, Note_off_c, 0, 74, 0
2, 120928, Note_on_c, 0, 76, 78
2, 121084, Note_off_c, 0, 76, 0
2, 121108, Note_on_c, 0, 77, 79
2, 121264, Note_off_c, 0, 77, 0
2, 121288, Note_on_c, 0, 74, 76
2, 121444, Note_off_c, 0, 74, 0
2, 121472, Note_on_c, 0, 76, 78
2, 121624, Note_off_c, 0, 76, 0
2, 121652, Note_on_c, 0, 74, 76
2, 121808, Note_off_c, 0, 74, 0
2, 121832, Note_on_c, 0, 72, 77
2, 122288, Note_off_c, 0, 72, 0
2, 122372, Note_on_c, 0, 74, 76
2, 122544, Note_off_c, 0, 74, 0
2, 122568, Note_on_c, 0, 75, 77
2, 122724, Note_off_c, 0, 75, 0
2, 122752, Note_on_c, 0, 72, 74
2, 122904, Note_off_c, 0, 72, 0
2, 122932, Note_on_c, 0, 74, 76
2, 123088, Note_off_c, 0, 74, 0
2, 123112, Note_on_c, 0, 72, 74
2, 123268, Note_off_c, 0, 72, 0
2, 123292, Note_on_c, 0, 71, 76
2, 123768, Note_off_c, 0, 71, 0
2, 123848, Note_on_c, 0, 72, 74
2, 124004, Note_off_c, 0, 72, 0
2, 124028, Note_on_c, 0, 74, 76
2, 124184, Note_off_c, 0, 74, 0
2, 124208, Note_on_c, 0, 71, 74
2, 124368, Note_off_c, 0, 71, 0
2, 124392, Note_on_c, 0, 72, 77
2, 126588, Note_off_c, 0, 72, 0
2, 126588, Note_on_c, 0, 71, 76
2, 127312, Note_off_c, 0, 71, 0
2, 127312, Note_on_c, 0, 72, 77
2, 128344, Note_off_c, 0, 72, 0
2, 128424, Note_on_c, 0, 72, 76
2, 128780, Note_off_c, 0, 72, 0
2, 128788, Note_on_c, 0, 69, 74
2, 129888, Note_off_c, 0, 69, 0
2, 129888, Note_on_c, 0, 81, 86
2, 130240, Note_off_c, 0, 81, 0
2, 130248, Note_on_c, 0, 77, 82
2, 131280, Note_off_c, 0, 77, 0
2, 131364, Note_on_c, 0, 74, 78
2, 131716, Note_off_c, 0, 74, 0
2, 131724, Note_on_c, 0, 71, 76
2, 132740, Note_off_c, 0, 71, 0
2, 132824, Note_on_c, 0, 74, 78
2, 133176, Note_off_c, 0, 74, 0
2, 133184, Note_on_c, 0, 79, 85
2, 135580, Note_off_c, 0, 79, 0
2, 135580, Note_on_c, 0, 79, 81
2, 135736, Note_off_c, 0, 79, 0
2, 135760, Note_on_c, 0, 77, 79
2, 135916, Note_off_c, 0, 77, 0
2, 135940, Note_on_c, 0, 76, 78
2, 136096, Note_off_c, 0, 76, 0
2, 136120, Note_on_c, 0, 77, 82
2, 136972, Note_off_c, 0, 77, 0
2, 137056, Note_on_c, 0, 79, 81
2, 137212, Note_off_c, 0, 79, 0
2, 137236, Note_on_c, 0, 81, 83
2, 137392, Note_off_c, 0, 81, 0
2, 137416, Note_on_c, 0, 82, 85
2, 137588, Note_off_c, 0, 82, 0
2, 137616, Note_on_c, 0, 84, 87
2, 137768, Note_off_c, 0, 84, 0
2, 137796, Note_on_c, 0, 77, 79
2, 137952, Note_off_c, 0, 77, 0
2, 137976, Note_on_c, 0, 75, 77
2, 138132, Note_off_c, 0, 75, 0
2, 138156, Note_on_c, 0, 74, 76
2, 138312, Note_off_c, 0, 74, 0
2, 138336, Note_on_c, 0, 75, 80
2, 139444, Note_off_c, 0, 75, 0
2, 139452, Note_on_c, 0, 74, 79
2, 140008, Note_off_c, 0, 74, 0
2, 140008, Note_on_c, 0, 76, 78
2, 140164, Note_off_c, 0, 76, 0
2, 140192, Note_on_c, 0, 78, 80
2, 140344, Note_off_c, 0, 78, 0
2, 140368, Note_on_c, 0, 79, 81
2, 140544, Note_off_c, 0, 79, 0
2, 140568, Note_on_c, 0, 81, 83
2, 140724, Note_off_c, 0, 81, 0
2, 140748, Note_on_c, 0, 74, 76
2, 140904, Note_off_c, 0, 74, 0
2, 140928, Note_on_c, 0, 72, 74
2, 141084, Note_off_c, 0, 72, 0
2, 141108, Note_on_c, 0, 70, 73
2, 141264, Note_off_c, 0, 70, 0
2, 141288, Note_on_c, 0, 72, 77
2, 142184, Note_off_c, 0, 72, 0
2, 142208, Note_on_c, 0, 70, 73
2, 142380, Note_off_c, 0, 70, 0
2, 142404, Note_on_c, 0, 72, 74
2, 142560, Note_off_c, 0, 72, 0
2, 142584, Note_on_c, 0, 75, 77
2, 142740, Note_off_c, 0, 75, 0
2, 142768, Note_on_c, 0, 74, 79
2, 143872, Note_off_c, 0, 74, 0
2, 143880, Note_on_c, 0, 72, 74
2, 144036, Note_off_c, 0, 72, 0
2, 144060, Note_on_c, 0, 74, 76
2, 144216, Note_off_c, 0, 74, 0
2, 144240, Note_on_c, 0, 75, 80
2, 145348, Note_off_c, 0, 75, 0
2, 145360, Note_on_c, 0, 74, 76
2, 145512, Note_off_c, 0, 74, 0
2, 145536, Note_on_c, 0, 75, 77
2, 145692, Note_off_c, 0, 75, 0
2, 145720, Note_on_c, 0, 77, 82
2, 146792, Note_off_c, 0, 77, 0
2, 146800, Note_on_c, 0, 75, 77
2, 146956, Note_off_c, 0, 75, 0
2, 146984, Note_on_c, 0, 77, 79
2, 147136, Note_off_c, 0, 77, 0
2, 147164, Note_on_c, 0, 79, 85
2, 148252, Note_off_c, 0, 79, 0
2, 148264, Note_on_c, 0, 77, 79
2, 148416, Note_off_c, 0, 77, 0
2, 148440, Note_on_c, 0, 79, 81
2, 148596, Note_off_c, 0, 79, 0
2, 148624, Note_on_c, 0, 81, 87
2, 149516, Note_off_c, 0, 81, 0
2, 149540, Note_on_c, 0, 74, 76
2, 149696, Note_off_c, 0, 74, 0
2, 149720, Note_on_c, 0, 79, 85
2, 150388, Note_off_c, 0, 79, 0
2, 150472, Note_on_c, 0, 78, 82
2, 150816, Note_off_c, 0, 78, 0
2, 150828, Note_on_c, 0, 79, 83
2, 151196, Note_off_c, 0, 79, 0
2, 151944, Note_on_c, 0, 79, 83
2, 152296, Note_off_c, 0, 79, 0
2, 152304, Note_on_c, 0, 76, 81
2, 153156, Note_off_c, 0, 76, 0
2, 153240, Note_on_c, 0, 77, 79
2, 153392, Note_off_c, 0, 77, 0
2, 153420, Note_on_c, 0, 76, 78
2, 153576, Note_off_c, 0, 76, 0
2, 153600, Note_on_c, 0, 74, 76
2, 153756, Note_off_c, 0, 74, 0
2, 153780, Note_on_c, 0, 72, 77
2, 154796, Note_off_c, 0, 72, 0
2, 154880, Note_on_c, 0, 72, 76
2, 155232, Note_off_c, 0, 72, 0
2, 155240, Note_on_c, 0, 69, 74
2, 156092, Note_off_c, 0, 69, 0
2, 156176, Note_on_c, 0, 79, 81
2, 156328, Note_off_c, 0, 79, 0
2, 156356, Note_on_c, 0, 77, 79
2, 156512, Note_off_c, 0, 77, 0
2, 156536, Note_on_c, 0, 76, 78
2, 156692, Note_off_c, 0, 76, 0
2, 156716, Note_on_c, 0, 74, 76
2, 156872, Note_off_c, 0, 74, 0
2, 156896, Note_on_c, 0, 75, 77
2, 157052, Note_off_c, 0, 75, 0
2, 157076, Note_on_c, 0, 74, 76
2, 157232, Note_off_c, 0, 74, 0
2, 157256, Note_on_c, 0, 73, 75
2, 157412, Note_off_c, 0, 73, 0
2, 157440, Note_on_c, 0, 74, 79
2, 158348, Note_off_c, 0, 74, 0
2, 158372, Note_on_c, 0, 75, 77
2, 158528, Note_off_c, 0, 75, 0
2, 158552, Note_on_c, 0, 74, 76
2, 158708, Note_off_c, 0, 74, 0
2, 158736, Note_on_c, 0, 73, 75
2, 158888, Note_off_c, 0, 73, 0
2, 158916, Note_on_c, 0, 74, 79
2, 159824, Note_off_c, 0, 74, 0
2, 159848, Note_on_c, 0, 75, 77
2, 160004, Note_off_c, 0, 75, 0
2, 160032, Note_on_c, 0, 74, 76
2, 160184, Note_off_c, 0, 74, 0
2, 160212, Note_on_c, 0, 73, 75
2, 160368, Note_off_c, 0, 73, 0
2, 160392, Note_on_c, 0, 74, 79
2, 160864, Note_off_c, 0, 74, 0
2, 160948, Note_on_c, 0, 76, 78
2, 161104, Note_off_c, 0, 76, 0
2, 161128, Note_on_c, 0, 77, 81
2, 161500, Note_off_c, 0, 77, 0
2, 161512, Note_on_c, 0, 81, 86
2, 161912, Note_off_c, 0, 81, 0
2, 161920, Note_on_c, 0, 77, 81
2, 162236, Note_off_c, 0, 77, 0
2, 162656, Note_on_c, 0, 74, 78
2, 163008, Note_off_c, 0, 74, 0
2, 163020, Note_on_c, 0, 69, 74
2, 163656, Note_off_c, 0, 69, 0
2, 163740, Note_on_c, 0, 72, 76
2, 164468, Note_off_c, 0, 72, 0
2, 164480, Note_on_c, 0, 76, 81
2, 165120, Note_off_c, 0, 76, 0
2, 165200, Note_on_c, 0, 77, 81
2, 165928, Note_off_c, 0, 77, 0
2, 165940, Note_on_c, 0, 76, 81
2, 166576, Note_off_c, 0, 76, 0
2, 166660, Note_on_c, 0, 74, 78
2, 167392, Note_off_c, 0, 74, 0
2, 167400, Note_on_c, 0, 73, 78
2, 167856, Note_off_c, 0, 73, 0
2, 167940, Note_on_c, 0, 69, 72
2, 168096, Note_off_c, 0, 69, 0
2, 168120, Note_on_c, 0, 71, 74
2, 168276, Note_off_c, 0, 71, 0
2, 168300, Note_on_c, 0, 73, 75
2, 168456, Note_off_c, 0, 73, 0
2, 168484, Note_on_c, 0, 74, 79
2, 169480, Note_off_c, 0, 74, 0
2, 169564, Note_on_c, 0, 74, 78
2, 169916, Note_off_c, 0, 74, 0
2, 169928, Note_on_c, 0, 70, 75
2, 170664, Note_off_c, 0, 70, 0
2, 171568, Note_on_c, 0, 70, 73
2, 171720, Note_off_c, 0, 70, 0
2, 171748, Note_on_c, 0, 72, 74
2, 171904, Note_off_c, 0, 72, 0
2, 171928, Note_on_c, 0, 74, 76
2, 172084, Note_off_c, 0, 74, 0
2, 172108, Note_on_c, 0, 72, 74
2, 172264, Note_off_c, 0, 72, 0
2, 172288, Note_on_c, 0, 70, 73
2, 172444, Note_off_c, 0, 70, 0
2, 172468, Note_on_c, 0, 69, 72
2, 172624, Note_off_c, 0, 69, 0
2, 172648, Note_on_c, 0, 67, 70
2, 172804, Note_off_c, 0, 67, 0
2, 172832, Note_on_c, 0, 69, 74
2, 174640, Note_off_c, 0, 69, 0
2, 174652, Note_on_c, 0, 67, 72
2, 175004, Note_off_c, 0, 67, 0
2, 175012, Note_on_c, 0, 72, 77
2, 176104, Note_off_c, 0, 72, 0
2, 176112, Note_on_c, 0, 69, 73
2, 176464, Note_off_c, 0, 69, 0
2, 176472, Note_on_c, 0, 74, 79
2, 177564, Note_off_c, 0, 74, 0
2, 177572, Note_on_c, 0, 71, 75
2, 177924, Note_off_c, 0, 71, 0
2, 177932, Note_on_c, 0, 76, 81
2, 178824, Note_off_c, 0, 76, 0
2, 178852, Note_on_c, 0, 77, 79
2, 179008, Note_off_c, 0, 77, 0
2, 179032, Note_on_c, 0, 79, 81
2, 179188, Note_off_c, 0, 79, 0
2, 179212, Note_on_c, 0, 74, 76
2, 179368, Note_off_c, 0, 74, 0
2, 179392, Note_on_c, 0, 73, 75
2, 179564, Note_off_c, 0, 73, 0
2, 179588, Note_on_c, 0, 82, 85
2, 179744, Note_off_c, 0, 82, 0
2, 179768, Note_on_c, 0, 81, 83
2, 179928, Note_off_c, 0, 81, 0
2, 179952, Note_on_c, 0, 79, 81
2, 180104, Note_off_c, 0, 79, 0
2, 180132, Note_on_c, 0, 77, 82
2, 181960, Note_off_c, 0, 77, 0
2, 181968, Note_on_c, 0, 76, 78
2, 182124, Note_off_c, 0, 76, 0
2, 182148, Note_on_c, 0, 74, 76
2, 182304, Note_off_c, 0, 74, 0
2, 182328, Note_on_c, 0, 76, 81
2, 183436, Note_off_c, 0, 76, 0
2, 183444, Note_on_c, 0, 74, 76
2, 183600, Note_off_c, 0, 74, 0
2, 183624, Note_on_c, 0, 73, 75
2, 183780, Note_off_c, 0, 73, 0
2, 183808, Note_on_c, 0, 74, 79
2, 184912, Note_off_c, 0, 74, 0
2, 184920, Note_on_c, 0, 72, 74
2, 185076, Note_off_c, 0, 72, 0
2, 185104, Note_on_c, 0, 70, 73
2, 185272, Note_off_c, 0, 70, 0
2, 185300, Note_on_c, 0, 72, 77
2, 186840, Note_off_c, 0, 72, 0
2, 186924, Note_on_c, 0, 70, 73
2, 187080, Note_off_c, 0, 70, 0
2, 187104, Note_on_c, 0, 72, 74
2, 187260, Note_off_c, 0, 72, 0
2, 187284, Note_on_c, 0, 69, 72
2, 187440, Note_off_c, 0, 69, 0
2, 187464, Note_on_c, 0, 70, 73
2, 187636, Note_off_c, 0, 70, 0
2, 187660, Note_on_c, 0, 74, 76
2, 187816, Note_off_c, 0, 74, 0
2, 187840, Note_on_c, 0, 75, 77
2, 187996, Note_off_c, 0, 75, 0
2, 188024, Note_on_c, 0, 72, 74
2, 188176, Note_off_c, 0, 72, 0
2, 188204, Note_on_c, 0, 74, 76
2, 188360, Note_off_c, 0, 74, 0
2, 188384, Note_on_c, 0, 79, 81
2, 188540, Note_off_c, 0, 79, 0
2, 188564, Note_on_c, 0, 74, 76
2, 188720, Note_off_c, 0, 74, 0
2, 188744, Note_on_c, 0, 72, 74
2, 189080, Note_off_c, 0, 72, 0
2, 189104, Note_on_c, 0, 70, 73
2, 189260, Note_off_c, 0, 70, 0
2, 189284, Note_on_c, 0, 72, 74
2, 189440, Note_off_c, 0, 72, 0
2, 189464, Note_on_c, 0, 75, 77
2, 189624, Note_off_c, 0, 75, 0
2, 189648, Note_on_c, 0, 74, 76
2, 189800, Note_off_c, 0, 74, 0
2, 189828, Note_on_c, 0, 72, 74
2, 189984, Note_off_c, 0, 72, 0
2, 190008, Note_on_c, 0, 70, 73
2, 190164, Note_off_c, 0, 70, 0
2, 190188, Note_on_c, 0, 69, 72
2, 190344, Note_off_c, 0, 69, 0
2, 190368, Note_on_c, 0, 67, 70
2, 190540, Note_off_c, 0, 67, 0
2, 190564, Note_on_c, 0, 66, 69
2, 190720, Note_off_c, 0, 66, 0
2, 190744, Note_on_c, 0, 67, 72
2, 191096, Note_off_c, 0, 67, 0
2, 191468, Note_on_c, 0, 69, 73
2, 191820, Note_off_c, 0, 69, 0
2, 191828, Note_on_c, 0, 68, 74
2, 192568, Note_off_c, 0, 68, 0
2, 192568, Note_on_c, 0, 69, 73
2, 192920, Note_off_c, 0, 69, 0
2, 194208, Note_on_c, 0, 81, 83
2, 194364, Note_off_c, 0, 81, 0
2, 194388, Note_on_c, 0, 79, 81
2, 194544, Note_off_c, 0, 79, 0
2, 194568, Note_on_c, 0, 76, 78
2, 194740, Note_off_c, 0, 76, 0
2, 194764, Note_on_c, 0, 77, 79
2, 194920, Note_off_c, 0, 77, 0
2, 194944, Note_on_c, 0, 81, 83
2, 195100, Note_off_c, 0, 81, 0
2, 195128, Note_on_c, 0, 74, 76
2, 195280, Note_off_c, 0, 74, 0
2, 195308, Note_on_c, 0, 73, 75
2, 195464, Note_off_c, 0, 73, 0
2, 195488, Note_on_c, 0, 74, 79
2, 196396, Note_off_c, 0, 74, 0
2, 196424, Note_on_c, 0, 77, 79
2, 196576, Note_off_c, 0, 77, 0
2, 196604, Note_on_c, 0, 76, 78
2, 196760, Note_off_c, 0, 76, 0
2, 196784, Note_on_c, 0, 74, 76
2, 196940, Note_off_c, 0, 74, 0
2, 196964, Note_on_c, 0, 73, 75
2, 197120, Note_off_c, 0, 73, 0
2, 197144, Note_on_c, 0, 74, 76
2, 197300, Note_off_c, 0, 74, 0
2, 197324, Note_on_c, 0, 71, 74
2, 197480, Note_off_c, 0, 71, 0
2, 197504, Note_on_c, 0, 73, 75
2, 197660, Note_off_c, 0, 73, 0
2, 197688, Note_on_c, 0, 74, 79
2, 198160, Note_off_c, 0, 74, 0
2, 198244, Note_on_c, 0, 73, 75
2, 198400, Note_off_c, 0, 73, 0
2, 198424, Note_on_c, 0, 74, 79
2, 198880, Note_off_c, 0, 74, 0
2, 198964, Note_on_c, 0, 73, 75
2, 199120, Note_off_c, 0, 73, 0
2, 199144, Note_on_c, 0, 74, 79
2, 199620, Note_off_c, 0, 74, 0
2, 199704, Note_on_c, 0, 75, 77
2, 199860, Note_off_c, 0, 75, 0
2, 199884, Note_on_c, 0, 69, 73
2, 200236, Note_off_c, 0, 69, 0
2, 200804, Note_on_c, 0, 74, 76
2, 200960, Note_off_c, 0, 74, 0
2, 200984, Note_on_c, 0, 76, 78
2, 201140, Note_off_c, 0, 76, 0
2, 201164, Note_on_c, 0, 79, 81
2, 201320, Note_off_c, 0, 79, 0
2, 201344, Note_on_c, 0, 73, 78
2, 202248, Note_off_c, 0, 73, 0
2, 202272, Note_on_c, 0, 74, 79
2, 203772, Note_off_c, 0, 74, 0
2, 203772, End_track
3, 0, Start_track
3, 0, Title_t, "J.S. Bach's KDF"
3, 0, Control_c, 1, 0, 0
3, 0, Program_c, 1, 0
3, 0, Key_signature, 0, "major"
3, 0, Control_c, 1, 7, 125
3, 6176, Note_on_c, 1, 62, 68
3, 6980, Note_off_c, 1, 62, 0
3, 6980, Note_on_c, 1, 57, 64
3, 7720, Note_off_c, 1, 57, 0
3, 7720, Note_on_c, 1, 60, 67
3, 8524, Note_off_c, 1, 60, 0
3, 8524, Note_on_c, 1, 64, 70
3, 9244, Note_off_c, 1, 64, 0
3, 9244, Note_on_c, 1, 65, 71
3, 9924, Note_off_c, 1, 65, 0
3, 10004, Note_on_c, 1, 64, 69
3, 10376, Note_off_c, 1, 64, 0
3, 10384, Note_on_c, 1, 62, 67
3, 10756, Note_off_c, 1, 62, 0
3, 10764, Note_on_c, 1, 61, 67
3, 11668, Note_off_c, 1, 61, 0
3, 11752, Note_on_c, 1, 57, 62
3, 11908, Note_off_c, 1, 57, 0
3, 11932, Note_on_c, 1, 59, 63
3, 12088, Note_off_c, 1, 59, 0
3, 12112, Note_on_c, 1, 61, 65
3, 12268, Note_off_c, 1, 61, 0
3, 12292, Note_on_c, 1, 62, 68
3, 13196, Note_off_c, 1, 62, 0
3, 13280, Note_on_c, 1, 60, 64
3, 13436, Note_off_c, 1, 60, 0
3, 13460, Note_on_c, 1, 62, 66
3, 13616, Note_off_c, 1, 62, 0
3, 13640, Note_on_c, 1, 64, 67
3, 13796, Note_off_c, 1, 64, 0
3, 13820, Note_on_c, 1, 65, 71
3, 14724, Note_off_c, 1, 65, 0
3, 14808, Note_on_c, 1, 64, 67
3, 14964, Note_off_c, 1, 64, 0
3, 14988, Note_on_c, 1, 65, 68
3, 15144, Note_off_c, 1, 65, 0
3, 15168, Note_on_c, 1, 67, 70
3, 15324, Note_off_c, 1, 67, 0
3, 15348, Note_on_c, 1, 69, 74
3, 16252, Note_off_c, 1, 69, 0
3, 16336, Note_on_c, 1, 67, 70
3, 16492, Note_off_c, 1, 67, 0
3, 16516, Note_on_c, 1, 65, 68
3, 16672, Note_off_c, 1, 65, 0
3, 16696, Note_on_c, 1, 64, 67
3, 16852, Note_off_c, 1, 64, 0
3, 16876, Note_on_c, 1, 62, 68
3, 17760, Note_off_c, 1, 62, 0
3, 17844, Note_on_c, 1, 64, 67
3, 18000, Note_off_c, 1, 64, 0
3, 18024, Note_on_c, 1, 62, 66
3, 18180, Note_off_c, 1, 62, 0
3, 18204, Note_on_c, 1, 61, 65
3, 18360, Note_off_c, 1, 61, 0
3, 18384, Note_on_c, 1, 62, 67
3, 18756, Note_off_c, 1, 62, 0
3, 18764, Note_on_c, 1, 67, 72
3, 19116, Note_off_c, 1, 67, 0
3, 19124, Note_on_c, 1, 61, 67
3, 19476, Note_off_c, 1, 61, 0
3, 19484, Note_on_c, 1, 64, 69
3, 20216, Note_off_c, 1, 64, 0
3, 20224, Note_on_c, 1, 57, 63
3, 20628, Note_off_c, 1, 57, 0
3, 20636, Note_on_c, 1, 62, 68
3, 21544, Note_off_c, 1, 62, 0
3, 21572, Note_on_c, 1, 63, 67
3, 21728, Note_off_c, 1, 63, 0
3, 21752, Note_on_c, 1, 62, 66
3, 21908, Note_off_c, 1, 62, 0
3, 21932, Note_on_c, 1, 61, 65
3, 22088, Note_off_c, 1, 61, 0
3, 22112, Note_on_c, 1, 62, 67
3, 22464, Note_off_c, 1, 62, 0
3, 22472, Note_on_c, 1, 74, 78
3, 23168, Note_off_c, 1, 74, 0
3, 23244, Note_on_c, 1, 72, 74
3, 23400, Note_off_c, 1, 72, 0
3, 23424, Note_on_c, 1, 71, 74
3, 23580, Note_off_c, 1, 71, 0
3, 23604, Note_on_c, 1, 69, 72
3, 23760, Note_off_c, 1, 69, 0
3, 23784, Note_on_c, 1, 67, 70
3, 23940, Note_off_c, 1, 67, 0
3, 23968, Note_on_c, 1, 65, 68
3, 24120, Note_off_c, 1, 65, 0
3, 24148, Note_on_c, 1, 64, 67
3, 24304, Note_off_c, 1, 64, 0
3, 24328, Note_on_c, 1, 62, 67
3, 24696, Note_off_c, 1, 62, 0
3, 24704, Note_on_c, 1, 67, 73
3, 25164, Note_off_c, 1, 67, 0
3, 25248, Note_on_c, 1, 69, 72
3, 25400, Note_off_c, 1, 69, 0
3, 25424, Note_on_c, 1, 67, 70
3, 25584, Note_off_c, 1, 67, 0
3, 25608, Note_on_c, 1, 65, 68
3, 25764, Note_off_c, 1, 65, 0
3, 25788, Note_on_c, 1, 67, 70
3, 25944, Note_off_c, 1, 67, 0
3, 25968, Note_on_c, 1, 69, 72
3, 26124, Note_off_c, 1, 69, 0
3, 26148, Note_on_c, 1, 70, 73
3, 26304, Note_off_c, 1, 70, 0
3, 26328, Note_on_c, 1, 67, 70
3, 26484, Note_off_c, 1, 67, 0
3, 26508, Note_on_c, 1, 64, 70
3, 27600, Note_off_c, 1, 64, 0
3, 27608, Note_on_c, 1, 62, 66
3, 27764, Note_off_c, 1, 62, 0
3, 27788, Note_on_c, 1, 64, 67
3, 27944, Note_off_c, 1, 64, 0
3, 27968, Note_on_c, 1, 65, 71
3, 29076, Note_off_c, 1, 65, 0
3, 29084, Note_on_c, 1, 67, 72
3, 29436, Note_off_c, 1, 67, 0
3, 29448, Note_on_c, 1, 64, 70
3, 30552, Note_off_c, 1, 64, 0
3, 30560, Note_on_c, 1, 65, 70
3, 30912, Note_off_c, 1, 65, 0
3, 30920, Note_on_c, 1, 62, 68
3, 32028, Note_off_c, 1, 62, 0
3, 32040, Note_on_c, 1, 64, 69
3, 32388, Note_off_c, 1, 64, 0
3, 32400, Note_on_c, 1, 61, 67
3, 33136, Note_off_c, 1, 61, 0
3, 33136, Note_on_c, 1, 62, 68
3, 34004, Note_off_c, 1, 62, 0
3, 34088, Note_on_c, 1, 72, 74
3, 34244, Note_off_c, 1, 72, 0
3, 34268, Note_on_c, 1, 70, 73
3, 34424, Note_off_c, 1, 70, 0
3, 34448, Note_on_c, 1, 69, 72
3, 34604, Note_off_c, 1, 69, 0
3, 34632, Note_on_c, 1, 67, 73
3, 35500, Note_off_c, 1, 67, 0
3, 35580, Note_on_c, 1, 74, 76
3, 35736, Note_off_c, 1, 74, 0
3, 35760, Note_on_c, 1, 72, 74
3, 35916, Note_off_c, 1, 72, 0
3, 35944, Note_on_c, 1, 70, 73
3, 36096, Note_off_c, 1, 70, 0
3, 36124, Note_on_c, 1, 69, 74
3, 36992, Note_off_c, 1, 69, 0
3, 37072, Note_on_c, 1, 75, 77
3, 37228, Note_off_c, 1, 75, 0
3, 37256, Note_on_c, 1, 74, 76
3, 37408, Note_off_c, 1, 74, 0
3, 37436, Note_on_c, 1, 72, 74
3, 37592, Note_off_c, 1, 72, 0
3, 37616, Note_on_c, 1, 70, 75
3, 38468, Note_off_c, 1, 70, 0
3, 38552, Note_on_c, 1, 70, 73
3, 38704, Note_off_c, 1, 70, 0
3, 38732, Note_on_c, 1, 69, 72
3, 38888, Note_off_c, 1, 69, 0
3, 38912, Note_on_c, 1, 67, 70
3, 39084, Note_off_c, 1, 67, 0
3, 39108, Note_on_c, 1, 65, 70
3, 39460, Note_off_c, 1, 65, 0
3, 39468, Note_on_c, 1, 63, 68
3, 39820, Note_off_c, 1, 63, 0
3, 39832, Note_on_c, 1, 62, 68
3, 40468, Note_off_c, 1, 62, 0
3, 40552, Note_on_c, 1, 60, 64
3, 40708, Note_off_c, 1, 60, 0
3, 40732, Note_on_c, 1, 66, 69
3, 40888, Note_off_c, 1, 66, 0
3, 40912, Note_on_c, 1, 65, 68
3, 41068, Note_off_c, 1, 65, 0
3, 41092, Note_on_c, 1, 64, 67
3, 41248, Note_off_c, 1, 64, 0
3, 41272, Note_on_c, 1, 65, 71
3, 42184, Note_off_c, 1, 65, 0
3, 42208, Note_on_c, 1, 72, 74
3, 42364, Note_off_c, 1, 72, 0
3, 42392, Note_on_c, 1, 70, 73
3, 42544, Note_off_c, 1, 70, 0
3, 42568, Note_on_c, 1, 69, 72
3, 42724, Note_off_c, 1, 69, 0
3, 42752, Note_on_c, 1, 67, 70
3, 42904, Note_off_c, 1, 67, 0
3, 42932, Note_on_c, 1, 69, 72
3, 43104, Note_off_c, 1, 69, 0
3, 43128, Note_on_c, 1, 67, 70
3, 43284, Note_off_c, 1, 67, 0
3, 43308, Note_on_c, 1, 65, 68
3, 43464, Note_off_c, 1, 65, 0
3, 43488, Note_on_c, 1, 64, 67
3, 43644, Note_off_c, 1, 64, 0
3, 43668, Note_on_c, 1, 62, 66
3, 43824, Note_off_c, 1, 62, 0
3, 43848, Note_on_c, 1, 64, 69
3, 44200, Note_off_c, 1, 64, 0
3, 44212, Note_on_c, 1, 62, 67
3, 44580, Note_off_c, 1, 62, 0
3, 44948, Note_on_c, 1, 67, 73
3, 45720, Note_off_c, 1, 67, 0
3, 45720, Note_on_c, 1, 60, 67
3, 46488, Note_off_c, 1, 60, 0
3, 46488, Note_on_c, 1, 64, 70
3, 47228, Note_off_c, 1, 64, 0
3, 47228, Note_on_c, 1, 67, 73
3, 47984, Note_off_c, 1, 67, 0
3, 47984, Note_on_c, 1, 69, 74
3, 48640, Note_off_c, 1, 69, 0
3, 48720, Note_on_c, 1, 67, 72
3, 49072, Note_off_c, 1, 67, 0
3, 49084, Note_on_c, 1, 65, 70
3, 49436, Note_off_c, 1, 65, 0
3, 49444, Note_on_c, 1, 64, 70
3, 50312, Note_off_c, 1, 64, 0
3, 50396, Note_on_c, 1, 62, 66
3, 50552, Note_off_c, 1, 62, 0
3, 50576, Note_on_c, 1, 64, 67
3, 50732, Note_off_c, 1, 64, 0
3, 50756, Note_on_c, 1, 66, 69
3, 50928, Note_off_c, 1, 66, 0
3, 50952, Note_on_c, 1, 67, 73
3, 51788, Note_off_c, 1, 67, 0
3, 51872, Note_on_c, 1, 68, 71
3, 52028, Note_off_c, 1, 68, 0
3, 52052, Note_on_c, 1, 67, 70
3, 52208, Note_off_c, 1, 67, 0
3, 52232, Note_on_c, 1, 66, 69
3, 52388, Note_off_c, 1, 66, 0
3, 52412, Note_on_c, 1, 67, 73
3, 53328, Note_off_c, 1, 67, 0
3, 53412, Note_on_c, 1, 68, 71
3, 53568, Note_off_c, 1, 68, 0
3, 53592, Note_on_c, 1, 67, 70
3, 53748, Note_off_c, 1, 67, 0
3, 53776, Note_on_c, 1, 66, 69
3, 53928, Note_off_c, 1, 66, 0
3, 53952, Note_on_c, 1, 67, 72
3, 54356, Note_off_c, 1, 67, 0
3, 54364, Note_on_c, 1, 72, 76
3, 54716, Note_off_c, 1, 72, 0
3, 54724, Note_on_c, 1, 66, 71
3, 55076, Note_off_c, 1, 66, 0
3, 55084, Note_on_c, 1, 69, 73
3, 55636, Note_off_c, 1, 69, 0
3, 55660, Note_on_c, 1, 68, 71
3, 55816, Note_off_c, 1, 68, 0
3, 55840, Note_on_c, 1, 67, 70
3, 55996, Note_off_c, 1, 67, 0
3, 56020, Note_on_c, 1, 66, 69
3, 56176, Note_off_c, 1, 66, 0
3, 56200, Note_on_c, 1, 67, 73
3, 57096, Note_off_c, 1, 67, 0
3, 57120, Note_on_c, 1, 66, 69
3, 57276, Note_off_c, 1, 66, 0
3, 57300, Note_on_c, 1, 67, 73
3, 57776, Note_off_c, 1, 67, 0
3, 57860, Note_on_c, 1, 67, 70
3, 58016, Note_off_c, 1, 67, 0
3, 58040, Note_on_c, 1, 65, 68
3, 58192, Note_off_c, 1, 65, 0
3, 58220, Note_on_c, 1, 64, 67
3, 58376, Note_off_c, 1, 64, 0
3, 58400, Note_on_c, 1, 62, 67
3, 58752, Note_off_c, 1, 62, 0
3, 59548, Note_on_c, 1, 69, 73
3, 59900, Note_off_c, 1, 69, 0
3, 59908, Note_on_c, 1, 65, 70
3, 60260, Note_off_c, 1, 65, 0
3, 60268, Note_on_c, 1, 70, 74
3, 60640, Note_off_c, 1, 70, 0
3, 60648, Note_on_c, 1, 64, 70
3, 61136, Note_off_c, 1, 64, 0
3, 61220, Note_on_c, 1, 70, 73
3, 61376, Note_off_c, 1, 70, 0
3, 61400, Note_on_c, 1, 69, 72
3, 61556, Note_off_c, 1, 69, 0
3, 61584, Note_on_c, 1, 67, 70
3, 61736, Note_off_c, 1, 67, 0
3, 61764, Note_on_c, 1, 65, 68
3, 61920, Note_off_c, 1, 65, 0
3, 61944, Note_on_c, 1, 67, 70
3, 62100, Note_off_c, 1, 67, 0
3, 62124, Note_on_c, 1, 69, 74
3, 63016, Note_off_c, 1, 69, 0
3, 63040, Note_on_c, 1, 68, 71
3, 63200, Note_off_c, 1, 68, 0
3, 63224, Note_on_c, 1, 69, 74
3, 63696, Note_off_c, 1, 69, 0
3, 63780, Note_on_c, 1, 64, 67
3, 63936, Note_off_c, 1, 64, 0
3, 63960, Note_on_c, 1, 65, 68
3, 64116, Note_off_c, 1, 65, 0
3, 64144, Note_on_c, 1, 67, 70
3, 64296, Note_off_c, 1, 67, 0
3, 64320, Note_on_c, 1, 69, 74
3, 65160, Note_off_c, 1, 69, 0
3, 65240, Note_on_c, 1, 62, 66
3, 65396, Note_off_c, 1, 62, 0
3, 65420, Note_on_c, 1, 64, 67
3, 65576, Note_off_c, 1, 64, 0
3, 65600, Note_on_c, 1, 65, 68
3, 65756, Note_off_c, 1, 65, 0
3, 65784, Note_on_c, 1, 67, 73
3, 66616, Note_off_c, 1, 67, 0
3, 66700, Note_on_c, 1, 60, 64
3, 66856, Note_off_c, 1, 60, 0
3, 66880, Note_on_c, 1, 62, 66
3, 67036, Note_off_c, 1, 62, 0
3, 67064, Note_on_c, 1, 64, 67
3, 67232, Note_off_c, 1, 64, 0
3, 67256, Note_on_c, 1, 65, 71
3, 68112, Note_off_c, 1, 65, 0
3, 68192, Note_on_c, 1, 64, 67
3, 68352, Note_off_c, 1, 64, 0
3, 68376, Note_on_c, 1, 62, 66
3, 68528, Note_off_c, 1, 62, 0
3, 68556, Note_on_c, 1, 65, 68
3, 68712, Note_off_c, 1, 65, 0
3, 68736, Note_on_c, 1, 64, 70
3, 69964, Note_off_c, 1, 64, 0
3, 70048, Note_on_c, 1, 69, 72
3, 70204, Note_off_c, 1, 69, 0
3, 70228, Note_on_c, 1, 65, 70
3, 70596, Note_off_c, 1, 65, 0
3, 70604, Note_on_c, 1, 69, 74
3, 71456, Note_off_c, 1, 69, 0
3, 71540, Note_on_c, 1, 71, 74
3, 71696, Note_off_c, 1, 71, 0
3, 71720, Note_on_c, 1, 68, 73
3, 72088, Note_off_c, 1, 68, 0
3, 72096, Note_on_c, 1, 71, 76
3, 72952, Note_off_c, 1, 71, 0
3, 73032, Note_on_c, 1, 72, 74
3, 73188, Note_off_c, 1, 72, 0
3, 73212, Note_on_c, 1, 69, 74
3, 74264, Note_off_c, 1, 69, 0
3, 74344, Note_on_c, 1, 68, 71
3, 74500, Note_off_c, 1, 68, 0
3, 74528, Note_on_c, 1, 69, 72
3, 74680, Note_off_c, 1, 69, 0
3, 74704, Note_on_c, 1, 71, 75
3, 75076, Note_off_c, 1, 71, 0
3, 75084, Note_on_c, 1, 74, 78
3, 75436, Note_off_c, 1, 74, 0
3, 75444, Note_on_c, 1, 68, 73
3, 75796, Note_off_c, 1, 68, 0
3, 75804, Note_on_c, 1, 71, 75
3, 76320, Note_off_c, 1, 71, 0
3, 76348, Note_on_c, 1, 69, 72
3, 76504, Note_off_c, 1, 69, 0
3, 76528, Note_on_c, 1, 72, 77
3, 77000, Note_off_c, 1, 72, 0
3, 77084, Note_on_c, 1, 77, 79
3, 77236, Note_off_c, 1, 77, 0
3, 77260, Note_on_c, 1, 76, 78
3, 77412, Note_off_c, 1, 76, 0
3, 77440, Note_on_c, 1, 74, 76
3, 77796, Note_off_c, 1, 74, 0
3, 77796, Note_on_c, 1, 74, 76
3, 77952, Note_off_c, 1, 74, 0
3, 77976, Note_on_c, 1, 72, 74
3, 78132, Note_off_c, 1, 72, 0
3, 78160, Note_on_c, 1, 71, 74
3, 78312, Note_off_c, 1, 71, 0
3, 78336, Note_on_c, 1, 69, 74
3, 79232, Note_off_c, 1, 69, 0
3, 79256, Note_on_c, 1, 70, 73
3, 79412, Note_off_c, 1, 70, 0
3, 79436, Note_on_c, 1, 69, 72
3, 79592, Note_off_c, 1, 69, 0
3, 79616, Note_on_c, 1, 67, 70
3, 79772, Note_off_c, 1, 67, 0
3, 79800, Note_on_c, 1, 65, 71
3, 80692, Note_off_c, 1, 65, 0
3, 80716, Note_on_c, 1, 79, 81
3, 80872, Note_off_c, 1, 79, 0
3, 80896, Note_on_c, 1, 77, 79
3, 81052, Note_off_c, 1, 77, 0
3, 81080, Note_on_c, 1, 76, 78
3, 81232, Note_off_c, 1, 76, 0
3, 81260, Note_on_c, 1, 74, 79
3, 82152, Note_off_c, 1, 74, 0
3, 82176, Note_on_c, 1, 75, 77
3, 82332, Note_off_c, 1, 75, 0
3, 82360, Note_on_c, 1, 74, 76
3, 82512, Note_off_c, 1, 74, 0
3, 82536, Note_on_c, 1, 72, 74
3, 82692, Note_off_c, 1, 72, 0
3, 82720, Note_on_c, 1, 70, 75
3, 83456, Note_off_c, 1, 70, 0
3, 84572, Note_on_c, 1, 70, 74
3, 84940, Note_off_c, 1, 70, 0
3, 84952, Note_on_c, 1, 67, 73
3, 85900, Note_off_c, 1, 67, 0
3, 85900, Note_on_c, 1, 69, 72
3, 86056, Note_off_c, 1, 69, 0
3, 86080, Note_on_c, 1, 67, 70
3, 86236, Note_off_c, 1, 67, 0
3, 86264, Note_on_c, 1, 65, 68
3, 86416, Note_off_c, 1, 65, 0
3, 86444, Note_on_c, 1, 64, 67
3, 86600, Note_off_c, 1, 64, 0
3, 86624, Note_on_c, 1, 72, 74
3, 86780, Note_off_c, 1, 72, 0
3, 86804, Note_on_c, 1, 70, 73
3, 86960, Note_off_c, 1, 70, 0
3, 86984, Note_on_c, 1, 69, 72
3, 87140, Note_off_c, 1, 69, 0
3, 87164, Note_on_c, 1, 67, 70
3, 87320, Note_off_c, 1, 67, 0
3, 87344, Note_on_c, 1, 70, 73
3, 87500, Note_off_c, 1, 70, 0
3, 87528, Note_on_c, 1, 69, 72
3, 87680, Note_off_c, 1, 69, 0
3, 87704, Note_on_c, 1, 74, 76
3, 87860, Note_off_c, 1, 74, 0
3, 87888, Note_on_c, 1, 72, 76
3, 88240, Note_off_c, 1, 72, 0
3, 88248, Note_on_c, 1, 64, 69
3, 88600, Note_off_c, 1, 64, 0
3, 88608, Note_on_c, 1, 60, 67
3, 89696, Note_off_c, 1, 60, 0
3, 89708, Note_on_c, 1, 68, 73
3, 90060, Note_off_c, 1, 68, 0
3, 90068, Note_on_c, 1, 67, 70
3, 90240, Note_off_c, 1, 67, 0
3, 90264, Note_on_c, 1, 73, 75
3, 90420, Note_off_c, 1, 73, 0
3, 90448, Note_on_c, 1, 72, 74
3, 90600, Note_off_c, 1, 72, 0
3, 90624, Note_on_c, 1, 71, 74
3, 90784, Note_off_c, 1, 71, 0
3, 90808, Note_on_c, 1, 72, 77
3, 91660, Note_off_c, 1, 72, 0
3, 91744, Note_on_c, 1, 73, 75
3, 91896, Note_off_c, 1, 73, 0
3, 91924, Note_on_c, 1, 72, 74
3, 92080, Note_off_c, 1, 72, 0
3, 92104, Note_on_c, 1, 71, 74
3, 92256, Note_off_c, 1, 71, 0
3, 92284, Note_on_c, 1, 72, 77
3, 93496, Note_off_c, 1, 72, 0
3, 93580, Note_on_c, 1, 72, 74
3, 93932, Note_off_c, 1, 72, 0
3, 93956, Note_on_c, 1, 70, 73
3, 94112, Note_off_c, 1, 70, 0
3, 94136, Note_on_c, 1, 69, 72
3, 94292, Note_off_c, 1, 69, 0
3, 94316, Note_on_c, 1, 67, 70
3, 94472, Note_off_c, 1, 67, 0
3, 94496, Note_on_c, 1, 69, 74
3, 95408, Note_off_c, 1, 69, 0
3, 95432, Note_on_c, 1, 68, 71
3, 95588, Note_off_c, 1, 68, 0
3, 95612, Note_on_c, 1, 67, 70
3, 95768, Note_off_c, 1, 67, 0
3, 95792, Note_on_c, 1, 66, 69
3, 95952, Note_off_c, 1, 66, 0
3, 95976, Note_on_c, 1, 67, 73
3, 96884, Note_off_c, 1, 67, 0
3, 96912, Note_on_c, 1, 68, 71
3, 97064, Note_off_c, 1, 68, 0
3, 97088, Note_on_c, 1, 67, 70
3, 97244, Note_off_c, 1, 67, 0
3, 97272, Note_on_c, 1, 66, 69
3, 97424, Note_off_c, 1, 66, 0
3, 97452, Note_on_c, 1, 67, 72
3, 97804, Note_off_c, 1, 67, 0
3, 97812, Note_on_c, 1, 68, 73
3, 98328, Note_off_c, 1, 68, 0
3, 98352, Note_on_c, 1, 69, 72
3, 98508, Note_off_c, 1, 69, 0
3, 98536, Note_on_c, 1, 68, 71
3, 98688, Note_off_c, 1, 68, 0
3, 98716, Note_on_c, 1, 69, 72
3, 98872, Note_off_c, 1, 69, 0
3, 98896, Note_on_c, 1, 71, 76
3, 99984, Note_off_c, 1, 71, 0
3, 99992, Note_on_c, 1, 70, 74
3, 100344, Note_off_c, 1, 70, 0
3, 100356, Note_on_c, 1, 67, 72
3, 100708, Note_off_c, 1, 67, 0
3, 100716, Note_on_c, 1, 64, 69
3, 101068, Note_off_c, 1, 64, 0
3, 101076, Note_on_c, 1, 69, 74
3, 102076, Note_off_c, 1, 69, 0
3, 102160, Note_on_c, 1, 62, 67
3, 102512, Note_off_c, 1, 62, 0
3, 102520, Note_on_c, 1, 70, 75
3, 103520, Note_off_c, 1, 70, 0
3, 103604, Note_on_c, 1, 60, 66
3, 103956, Note_off_c, 1, 60, 0
3, 103964, Note_on_c, 1, 69, 74
3, 104964, Note_off_c, 1, 69, 0
3, 105048, Note_on_c, 1, 70, 74
3, 105400, Note_off_c, 1, 70, 0
3, 105408, Note_on_c, 1, 67, 73
3, 106312, Note_off_c, 1, 67, 0
3, 106312, Note_on_c, 1, 70, 73
3, 106464, Note_off_c, 1, 70, 0
3, 106492, Note_on_c, 1, 69, 72
3, 106648, Note_off_c, 1, 69, 0
3, 106672, Note_on_c, 1, 67, 70
3, 106828, Note_off_c, 1, 67, 0
3, 106852, Note_on_c, 1, 69, 74
3, 107592, Note_off_c, 1, 69, 0
3, 107592, Note_on_c, 1, 62, 68
3, 108312, Note_off_c, 1, 62, 0
3, 108312, Note_on_c, 1, 65, 71
3, 109032, Note_off_c, 1, 65, 0
3, 109032, Note_on_c, 1, 69, 74
3, 109756, Note_off_c, 1, 69, 0
3, 109756, Note_on_c, 1, 72, 77
3, 110396, Note_off_c, 1, 72, 0
3, 110480, Note_on_c, 1, 71, 75
3, 110832, Note_off_c, 1, 71, 0
3, 110840, Note_on_c, 1, 69, 73
3, 111208, Note_off_c, 1, 69, 0
3, 111216, Note_on_c, 1, 68, 74
3, 112068, Note_off_c, 1, 68, 0
3, 112152, Note_on_c, 1, 64, 67
3, 112308, Note_off_c, 1, 64, 0
3, 112332, Note_on_c, 1, 66, 69
3, 112488, Note_off_c, 1, 66, 0
3, 112512, Note_on_c, 1, 68, 71
3, 112668, Note_off_c, 1, 68, 0
3, 112692, Note_on_c, 1, 69, 72
3, 112848, Note_off_c, 1, 69, 0
3, 112872, Note_on_c, 1, 70, 73
3, 113028, Note_off_c, 1, 70, 0
3, 113056, Note_on_c, 1, 69, 72
3, 113208, Note_off_c, 1, 69, 0
3, 113236, Note_on_c, 1, 68, 71
3, 113392, Note_off_c, 1, 68, 0
3, 113416, Note_on_c, 1, 69, 72
3, 113568, Note_off_c, 1, 69, 0
3, 113596, Note_on_c, 1, 74, 76
3, 113752, Note_off_c, 1, 74, 0
3, 113776, Note_on_c, 1, 72, 74
3, 113932, Note_off_c, 1, 72, 0
3, 113956, Note_on_c, 1, 71, 74
3, 114112, Note_off_c, 1, 71, 0
3, 114136, Note_on_c, 1, 69, 72
3, 114292, Note_off_c, 1, 69, 0
3, 114316, Note_on_c, 1, 70, 73
3, 114472, Note_off_c, 1, 70, 0
3, 114496, Note_on_c, 1, 69, 72
3, 114652, Note_off_c, 1, 69, 0
3, 114680, Note_on_c, 1, 68, 71
3, 114832, Note_off_c, 1, 68, 0
3, 114860, Note_on_c, 1, 69, 72
3, 115016, Note_off_c, 1, 69, 0
3, 115040, Note_on_c, 1, 74, 76
3, 115196, Note_off_c, 1, 74, 0
3, 115220, Note_on_c, 1, 72, 74
3, 115376, Note_off_c, 1, 72, 0
3, 115400, Note_on_c, 1, 71, 74
3, 115556, Note_off_c, 1, 71, 0
3, 115580, Note_on_c, 1, 70, 73
3, 115752, Note_off_c, 1, 70, 0
3, 115776, Note_on_c, 1, 78, 80
3, 115932, Note_off_c, 1, 78, 0
3, 115960, Note_on_c, 1, 76, 78
3, 116112, Note_off_c, 1, 76, 0
3, 116140, Note_on_c, 1, 74, 76
3, 116296, Note_off_c, 1, 74, 0
3, 116320, Note_on_c, 1, 73, 75
3, 116476, Note_off_c, 1, 73, 0
3, 116500, Note_on_c, 1, 71, 74
3, 116672, Note_off_c, 1, 71, 0
3, 116696, Note_on_c, 1, 70, 73
3, 116852, Note_off_c, 1, 70, 0
3, 116876, Note_on_c, 1, 73, 75
3, 117032, Note_off_c, 1, 73, 0
3, 117056, Note_on_c, 1, 66, 69
3, 117212, Note_off_c, 1, 66, 0
3, 117236, Note_on_c, 1, 67, 70
3, 117392, Note_off_c, 1, 67, 0
3, 117416, Note_on_c, 1, 66, 69
3, 117576, Note_off_c, 1, 66, 0
3, 117600, Note_on_c, 1, 67, 70
3, 117772, Note_off_c, 1, 67, 0
3, 117796, Note_on_c, 1, 69, 73
3, 118164, Note_off_c, 1, 69, 0
3, 118172, Note_on_c, 1, 66, 71
3, 118524, Note_off_c, 1, 66, 0
3, 118536, Note_on_c, 1, 64, 69
3, 118888, Note_off_c, 1, 64, 0
3, 118896, Note_on_c, 1, 71, 75
3, 119248, Note_off_c, 1, 71, 0
3, 119256, Note_on_c, 1, 69, 74
3, 120168, Note_off_c, 1, 69, 0
3, 120192, Note_on_c, 1, 68, 71
3, 120344, Note_off_c, 1, 68, 0
3, 120372, Note_on_c, 1, 66, 69
3, 120528, Note_off_c, 1, 66, 0
3, 120552, Note_on_c, 1, 69, 72
3, 120708, Note_off_c, 1, 69, 0
3, 120732, Note_on_c, 1, 68, 73
3, 121100, Note_off_c, 1, 68, 0
3, 121112, Note_on_c, 1, 69, 73
3, 121460, Note_off_c, 1, 69, 0
3, 121472, Note_on_c, 1, 71, 75
3, 121756, Note_off_c, 1, 71, 0
3, 121832, Note_on_c, 1, 69, 72
3, 121988, Note_off_c, 1, 69, 0
3, 122012, Note_on_c, 1, 68, 71
3, 122168, Note_off_c, 1, 68, 0
3, 122192, Note_on_c, 1, 69, 74
3, 123284, Note_off_c, 1, 69, 0
3, 123292, Note_on_c, 1, 67, 70
3, 123448, Note_off_c, 1, 67, 0
3, 123472, Note_on_c, 1, 66, 69
3, 123628, Note_off_c, 1, 66, 0
3, 123652, Note_on_c, 1, 67, 72
3, 124020, Note_off_c, 1, 67, 0
3, 124768, Note_on_c, 1, 66, 72
3, 125328, Note_off_c, 1, 66, 0
3, 125328, Note_on_c, 1, 67, 70
3, 125480, Note_off_c, 1, 67, 0
3, 125508, Note_on_c, 1, 69, 72
3, 125664, Note_off_c, 1, 69, 0
3, 125688, Note_on_c, 1, 66, 69
3, 125840, Note_off_c, 1, 66, 0
3, 125868, Note_on_c, 1, 67, 72
3, 126152, Note_off_c, 1, 67, 0
3, 126228, Note_on_c, 1, 65, 68
3, 126384, Note_off_c, 1, 65, 0
3, 126408, Note_on_c, 1, 68, 71
3, 126564, Note_off_c, 1, 68, 0
3, 126588, Note_on_c, 1, 67, 70
3, 126744, Note_off_c, 1, 67, 0
3, 126768, Note_on_c, 1, 65, 68
3, 126924, Note_off_c, 1, 65, 0
3, 126952, Note_on_c, 1, 64, 67
3, 127104, Note_off_c, 1, 64, 0
3, 127132, Note_on_c, 1, 62, 66
3, 127288, Note_off_c, 1, 62, 0
3, 127312, Note_on_c, 1, 64, 69
3, 127680, Note_off_c, 1, 64, 0
3, 127688, Note_on_c, 1, 67, 72
3, 128040, Note_off_c, 1, 67, 0
3, 128048, Note_on_c, 1, 64, 69
3, 128416, Note_off_c, 1, 64, 0
3, 128428, Note_on_c, 1, 67, 72
3, 128984, Note_off_c, 1, 67, 0
3, 128984, Note_on_c, 1, 67, 70
3, 129140, Note_off_c, 1, 67, 0
3, 129164, Note_on_c, 1, 65, 68
3, 129320, Note_off_c, 1, 65, 0
3, 129344, Note_on_c, 1, 64, 67
3, 129500, Note_off_c, 1, 64, 0
3, 129528, Note_on_c, 1, 65, 70
3, 129880, Note_off_c, 1, 65, 0
3, 130624, Note_on_c, 1, 69, 73
3, 130976, Note_off_c, 1, 69, 0
3, 130984, Note_on_c, 1, 65, 70
3, 131356, Note_off_c, 1, 65, 0
3, 131364, Note_on_c, 1, 69, 73
3, 131920, Note_off_c, 1, 69, 0
3, 131920, Note_on_c, 1, 69, 72
3, 132076, Note_off_c, 1, 69, 0
3, 132100, Note_on_c, 1, 67, 70
3, 132256, Note_off_c, 1, 67, 0
3, 132280, Note_on_c, 1, 66, 69
3, 132440, Note_off_c, 1, 66, 0
3, 132464, Note_on_c, 1, 67, 73
3, 133552, Note_off_c, 1, 67, 0
3, 133560, Note_on_c, 1, 76, 80
3, 133912, Note_off_c, 1, 76, 0
3, 133924, Note_on_c, 1, 73, 77
3, 134292, Note_off_c, 1, 73, 0
3, 134300, Note_on_c, 1, 74, 78
3, 134816, Note_off_c, 1, 74, 0
3, 134840, Note_on_c, 1, 71, 74
3, 135016, Note_off_c, 1, 71, 0
3, 135040, Note_on_c, 1, 73, 75
3, 135192, Note_off_c, 1, 73, 0
3, 135220, Note_on_c, 1, 74, 76
3, 135376, Note_off_c, 1, 74, 0
3, 135400, Note_on_c, 1, 76, 81
3, 136320, Note_off_c, 1, 76, 0
3, 136320, Note_on_c, 1, 76, 78
3, 136472, Note_off_c, 1, 76, 0
3, 136496, Note_on_c, 1, 74, 76
3, 136656, Note_off_c, 1, 74, 0
3, 136680, Note_on_c, 1, 73, 75
3, 136852, Note_off_c, 1, 73, 0
3, 136876, Note_on_c, 1, 74, 79
3, 137616, Note_off_c, 1, 74, 0
3, 138532, Note_on_c, 1, 70, 73
3, 138688, Note_off_c, 1, 70, 0
3, 138712, Note_on_c, 1, 69, 72
3, 138868, Note_off_c, 1, 69, 0
3, 138896, Note_on_c, 1, 67, 70
3, 139048, Note_off_c, 1, 67, 0
3, 139072, Note_on_c, 1, 65, 68
3, 139248, Note_off_c, 1, 65, 0
3, 139272, Note_on_c, 1, 72, 74
3, 139428, Note_off_c, 1, 72, 0
3, 139452, Note_on_c, 1, 70, 73
3, 139608, Note_off_c, 1, 70, 0
3, 139632, Note_on_c, 1, 69, 72
3, 139804, Note_off_c, 1, 69, 0
3, 139828, Note_on_c, 1, 70, 74
3, 140180, Note_off_c, 1, 70, 0
3, 141488, Note_on_c, 1, 67, 70
3, 141640, Note_off_c, 1, 67, 0
3, 141664, Note_on_c, 1, 66, 69
3, 141824, Note_off_c, 1, 66, 0
3, 141848, Note_on_c, 1, 64, 67
3, 142004, Note_off_c, 1, 64, 0
3, 142028, Note_on_c, 1, 62, 67
3, 142396, Note_off_c, 1, 62, 0
3, 142964, Note_on_c, 1, 67, 70
3, 143120, Note_off_c, 1, 67, 0
3, 143144, Note_on_c, 1, 69, 72
3, 143296, Note_off_c, 1, 69, 0
3, 143324, Note_on_c, 1, 70, 73
3, 143496, Note_off_c, 1, 70, 0
3, 143520, Note_on_c, 1, 63, 68
3, 143872, Note_off_c, 1, 63, 0
3, 144440, Note_on_c, 1, 69, 72
3, 144596, Note_off_c, 1, 69, 0
3, 144620, Note_on_c, 1, 70, 73
3, 144776, Note_off_c, 1, 70, 0
3, 144800, Note_on_c, 1, 72, 74
3, 144972, Note_off_c, 1, 72, 0
3, 144996, Note_on_c, 1, 66, 71
3, 145348, Note_off_c, 1, 66, 0
3, 145900, Note_on_c, 1, 70, 73
3, 146056, Note_off_c, 1, 70, 0
3, 146080, Note_on_c, 1, 74, 76
3, 146236, Note_off_c, 1, 74, 0
3, 146260, Note_on_c, 1, 68, 71
3, 146416, Note_off_c, 1, 68, 0
3, 146440, Note_on_c, 1, 67, 72
3, 146792, Note_off_c, 1, 67, 0
3, 147360, Note_on_c, 1, 69, 72
3, 147516, Note_off_c, 1, 69, 0
3, 147540, Note_on_c, 1, 70, 73
3, 147696, Note_off_c, 1, 70, 0
3, 147720, Note_on_c, 1, 67, 70
3, 147876, Note_off_c, 1, 67, 0
3, 147900, Note_on_c, 1, 69, 73
3, 148252, Note_off_c, 1, 69, 0
3, 150292, Note_on_c, 1, 75, 77
3, 150448, Note_off_c, 1, 75, 0
3, 150472, Note_on_c, 1, 74, 76
3, 150624, Note_off_c, 1, 74, 0
3, 150648, Note_on_c, 1, 72, 74
3, 150800, Note_off_c, 1, 72, 0
3, 150828, Note_on_c, 1, 70, 74
3, 151196, Note_off_c, 1, 70, 0
3, 151760, Note_on_c, 1, 72, 74
3, 151916, Note_off_c, 1, 72, 0
3, 151944, Note_on_c, 1, 70, 73
3, 152096, Note_off_c, 1, 70, 0
3, 152124, Note_on_c, 1, 69, 72
3, 152280, Note_off_c, 1, 69, 0
3, 152304, Note_on_c, 1, 67, 73
3, 153336, Note_off_c, 1, 67, 0
3, 153420, Note_on_c, 1, 67, 72
3, 153772, Note_off_c, 1, 67, 0
3, 153780, Note_on_c, 1, 64, 70
3, 154616, Note_off_c, 1, 64, 0
3, 154700, Note_on_c, 1, 70, 73
3, 154856, Note_off_c, 1, 70, 0
3, 154880, Note_on_c, 1, 69, 72
3, 155036, Note_off_c, 1, 69, 0
3, 155060, Note_on_c, 1, 67, 70
3, 155216, Note_off_c, 1, 67, 0
3, 155240, Note_on_c, 1, 65, 71
3, 156272, Note_off_c, 1, 65, 0
3, 156356, Note_on_c, 1, 69, 73
3, 156708, Note_off_c, 1, 69, 0
3, 156716, Note_on_c, 1, 65, 71
3, 157636, Note_off_c, 1, 65, 0
3, 157636, Note_on_c, 1, 67, 70
3, 157792, Note_off_c, 1, 67, 0
3, 157816, Note_on_c, 1, 65, 68
3, 157972, Note_off_c, 1, 65, 0
3, 157996, Note_on_c, 1, 64, 67
3, 158152, Note_off_c, 1, 64, 0
3, 158176, Note_on_c, 1, 62, 67
3, 158544, Note_off_c, 1, 62, 0
3, 158552, Note_on_c, 1, 65, 71
3, 159028, Note_off_c, 1, 65, 0
3, 159112, Note_on_c, 1, 67, 70
3, 159268, Note_off_c, 1, 67, 0
3, 159292, Note_on_c, 1, 65, 68
3, 159448, Note_off_c, 1, 65, 0
3, 159472, Note_on_c, 1, 64, 67
3, 159628, Note_off_c, 1, 64, 0
3, 159656, Note_on_c, 1, 62, 67
3, 160020, Note_off_c, 1, 62, 0
3, 160032, Note_on_c, 1, 64, 69
3, 160316, Note_off_c, 1, 64, 0
3, 160392, Note_on_c, 1, 65, 68
3, 160548, Note_off_c, 1, 65, 0
3, 160572, Note_on_c, 1, 69, 72
3, 160728, Note_off_c, 1, 69, 0
3, 160752, Note_on_c, 1, 71, 74
3, 160924, Note_off_c, 1, 71, 0
3, 160948, Note_on_c, 1, 73, 75
3, 161104, Note_off_c, 1, 73, 0
3, 161128, Note_on_c, 1, 74, 78
3, 161500, Note_off_c, 1, 74, 0
3, 161512, Note_on_c, 1, 77, 81
3, 161912, Note_off_c, 1, 77, 0
3, 161920, Note_on_c, 1, 74, 78
3, 162288, Note_off_c, 1, 74, 0
3, 162296, Note_on_c, 1, 69, 73
3, 162648, Note_off_c, 1, 69, 0
3, 162656, Note_on_c, 1, 65, 71
3, 163380, Note_off_c, 1, 65, 0
3, 163380, Note_on_c, 1, 60, 67
3, 164120, Note_off_c, 1, 60, 0
3, 164120, Note_on_c, 1, 64, 70
3, 164840, Note_off_c, 1, 64, 0
3, 164840, Note_on_c, 1, 68, 74
3, 165560, Note_off_c, 1, 68, 0
3, 165560, Note_on_c, 1, 69, 74
3, 166216, Note_off_c, 1, 69, 0
3, 166300, Note_on_c, 1, 67, 72
3, 166652, Note_off_c, 1, 67, 0
3, 166660, Note_on_c, 1, 65, 70
3, 167012, Note_off_c, 1, 65, 0
3, 167024, Note_on_c, 1, 64, 70
3, 167856, Note_off_c, 1, 64, 0
3, 167940, Note_on_c, 1, 61, 65
3, 168096, Note_off_c, 1, 61, 0
3, 168120, Note_on_c, 1, 62, 66
3, 168276, Note_off_c, 1, 62, 0
3, 168300, Note_on_c, 1, 64, 67
3, 168456, Note_off_c, 1, 64, 0
3, 168484, Note_on_c, 1, 57, 63
3, 168768, Note_off_c, 1, 57, 0
3, 168844, Note_on_c, 1, 69, 73
3, 169196, Note_off_c, 1, 69, 0
3, 169204, Note_on_c, 1, 66, 72
3, 170124, Note_off_c, 1, 66, 0
3, 170124, Note_on_c, 1, 66, 69
3, 170280, Note_off_c, 1, 66, 0
3, 170304, Note_on_c, 1, 67, 70
3, 170460, Note_off_c, 1, 67, 0
3, 170484, Note_on_c, 1, 69, 72
3, 170640, Note_off_c, 1, 69, 0
3, 170664, Note_on_c, 1, 67, 70
3, 170820, Note_off_c, 1, 67, 0
3, 170844, Note_on_c, 1, 65, 68
3, 171000, Note_off_c, 1, 65, 0
3, 171024, Note_on_c, 1, 64, 67
3, 171180, Note_off_c, 1, 64, 0
3, 171208, Note_on_c, 1, 62, 66
3, 171360, Note_off_c, 1, 62, 0
3, 171388, Note_on_c, 1, 60, 66
3, 171736, Note_off_c, 1, 60, 0
3, 173012, Note_on_c, 1, 64, 67
3, 173168, Note_off_c, 1, 64, 0
3, 173192, Note_on_c, 1, 65, 68
3, 173348, Note_off_c, 1, 65, 0
3, 173372, Note_on_c, 1, 67, 70
3, 173528, Note_off_c, 1, 67, 0
3, 173552, Note_on_c, 1, 65, 68
3, 173708, Note_off_c, 1, 65, 0
3, 173732, Note_on_c, 1, 63, 67
3, 173888, Note_off_c, 1, 63, 0
3, 173912, Note_on_c, 1, 62, 66
3, 174068, Note_off_c, 1, 62, 0
3, 174096, Note_on_c, 1, 61, 65
3, 174248, Note_off_c, 1, 61, 0
3, 174272, Note_on_c, 1, 62, 67
3, 174640, Note_off_c, 1, 62, 0
3, 175388, Note_on_c, 1, 64, 69
3, 175744, Note_off_c, 1, 64, 0
3, 175752, Note_on_c, 1, 60, 66
3, 176104, Note_off_c, 1, 60, 0
3, 176848, Note_on_c, 1, 66, 71
3, 177200, Note_off_c, 1, 66, 0
3, 177212, Note_on_c, 1, 62, 67
3, 177564, Note_off_c, 1, 62, 0
3, 178312, Note_on_c, 1, 68, 73
3, 178664, Note_off_c, 1, 68, 0
3, 178672, Note_on_c, 1, 64, 69
3, 179024, Note_off_c, 1, 64, 0
3, 180328, Note_on_c, 1, 74, 76
3, 180484, Note_off_c, 1, 74, 0
3, 180508, Note_on_c, 1, 73, 75
3, 180664, Note_off_c, 1, 73, 0
3, 180688, Note_on_c, 1, 76, 78
3, 180844, Note_off_c, 1, 76, 0
3, 180868, Note_on_c, 1, 74, 76
3, 181024, Note_off_c, 1, 74, 0
3, 181048, Note_on_c, 1, 72, 74
3, 181204, Note_off_c, 1, 72, 0
3, 181232, Note_on_c, 1, 70, 73
3, 181384, Note_off_c, 1, 70, 0
3, 181412, Note_on_c, 1, 69, 72
3, 181568, Note_off_c, 1, 69, 0
3, 181592, Note_on_c, 1, 70, 73
3, 181748, Note_off_c, 1, 70, 0
3, 181772, Note_on_c, 1, 69, 72
3, 181944, Note_off_c, 1, 69, 0
3, 181968, Note_on_c, 1, 67, 73
3, 182444, Note_off_c, 1, 67, 0
3, 182528, Note_on_c, 1, 69, 72
3, 182680, Note_off_c, 1, 69, 0
3, 182708, Note_on_c, 1, 70, 73
3, 182864, Note_off_c, 1, 70, 0
3, 182888, Note_on_c, 1, 67, 70
3, 183044, Note_off_c, 1, 67, 0
3, 183068, Note_on_c, 1, 69, 72
3, 183224, Note_off_c, 1, 69, 0
3, 183248, Note_on_c, 1, 67, 70
3, 183420, Note_off_c, 1, 67, 0
3, 183444, Note_on_c, 1, 65, 71
3, 183920, Note_off_c, 1, 65, 0
3, 184004, Note_on_c, 1, 67, 70
3, 184160, Note_off_c, 1, 67, 0
3, 184184, Note_on_c, 1, 69, 72
3, 184340, Note_off_c, 1, 69, 0
3, 184364, Note_on_c, 1, 65, 68
3, 184520, Note_off_c, 1, 65, 0
3, 184544, Note_on_c, 1, 67, 70
3, 184700, Note_off_c, 1, 67, 0
3, 184724, Note_on_c, 1, 65, 68
3, 184896, Note_off_c, 1, 65, 0
3, 184920, Note_on_c, 1, 63, 69
3, 185396, Note_off_c, 1, 63, 0
3, 185480, Note_on_c, 1, 66, 69
3, 185636, Note_off_c, 1, 66, 0
3, 185660, Note_on_c, 1, 67, 70
3, 185816, Note_off_c, 1, 67, 0
3, 185840, Note_on_c, 1, 64, 67
3, 185996, Note_off_c, 1, 64, 0
3, 186020, Note_on_c, 1, 66, 69
3, 186176, Note_off_c, 1, 66, 0
3, 186200, Note_on_c, 1, 67, 70
3, 186356, Note_off_c, 1, 67, 0
3, 186384, Note_on_c, 1, 69, 73
3, 186732, Note_off_c, 1, 69, 0
3, 186744, Note_on_c, 1, 62, 67
3, 187096, Note_off_c, 1, 62, 0
3, 189288, Note_on_c, 1, 57, 63
3, 189640, Note_off_c, 1, 57, 0
3, 189648, Note_on_c, 1, 58, 64
3, 190000, Note_off_c, 1, 58, 0
3, 190008, Note_on_c, 1, 60, 66
3, 190360, Note_off_c, 1, 60, 0
3, 190368, Note_on_c, 1, 62, 68
3, 191468, Note_off_c, 1, 62, 0
3, 191468, Note_on_c, 1, 57, 63
3, 191820, Note_off_c, 1, 57, 0
3, 191828, Note_on_c, 1, 59, 66
3, 192844, Note_off_c, 1, 59, 0
3, 192928, Note_on_c, 1, 65, 70
3, 193656, Note_off_c, 1, 65, 0
3, 193664, Note_on_c, 1, 64, 69
3, 194016, Note_off_c, 1, 64, 0
3, 194764, Note_on_c, 1, 69, 74
3, 195488, Note_off_c, 1, 69, 0
3, 195488, Note_on_c, 1, 62, 68
3, 196224, Note_off_c, 1, 62, 0
3, 196224, Note_on_c, 1, 65, 71
3, 196964, Note_off_c, 1, 65, 0
3, 196964, Note_on_c, 1, 69, 74
3, 197688, Note_off_c, 1, 69, 0
3, 197688, Note_on_c, 1, 70, 75
3, 198340, Note_off_c, 1, 70, 0
3, 198424, Note_on_c, 1, 69, 73
3, 198776, Note_off_c, 1, 69, 0
3, 198784, Note_on_c, 1, 67, 72
3, 199136, Note_off_c, 1, 67, 0
3, 199144, Note_on_c, 1, 66, 72
3, 199980, Note_off_c, 1, 66, 0
3, 200064, Note_on_c, 1, 62, 66
3, 200220, Note_off_c, 1, 62, 0
3, 200244, Note_on_c, 1, 64, 67
3, 200400, Note_off_c, 1, 64, 0
3, 200424, Note_on_c, 1, 66, 69
3, 200580, Note_off_c, 1, 66, 0
3, 200608, Note_on_c, 1, 67, 73
3, 201440, Note_off_c, 1, 67, 0
3, 201524, Note_on_c, 1, 66, 69
3, 201712, Note_off_c, 1, 66, 0
3, 201736, Note_on_c, 1, 67, 70
3, 201920, Note_off_c, 1, 67, 0
3, 201984, Note_on_c, 1, 64, 68
3, 202248, Note_off_c, 1, 64, 0
3, 202272, Note_on_c, 1, 66, 72
3, 203772, Note_off_c, 1, 66, 0
3, 203772, End_track
4, 0, Start_track
4, 0, Title_t, "A.G. Simonetto, \251 2002"
4, 0, Control_c, 2, 0, 0
4, 0, Program_c, 2, 0
4, 0, Key_signature, 0, "major"
4, 0, Control_c, 2, 7, 125
4, 15348, Note_on_c, 2, 57, 64
4, 16140, Note_off_c, 2, 57, 0
4, 16140, Note_on_c, 2, 50, 59
4, 16876, Note_off_c, 2, 50, 0
4, 16876, Note_on_c, 2, 53, 61
4, 17648, Note_off_c, 2, 53, 0
4, 17648, Note_on_c, 2, 57, 64
4, 18384, Note_off_c, 2, 57, 0
4, 18384, Note_on_c, 2, 58, 65
4, 19040, Note_off_c, 2, 58, 0
4, 19124, Note_on_c, 2, 57, 63
4, 19476, Note_off_c, 2, 57, 0
4, 19484, Note_on_c, 2, 55, 62
4, 19836, Note_off_c, 2, 55, 0
4, 19848, Note_on_c, 2, 53, 61
4, 20752, Note_off_c, 2, 53, 0
4, 20832, Note_on_c, 2, 52, 58
4, 20988, Note_off_c, 2, 52, 0
4, 21012, Note_on_c, 2, 53, 59
4, 21168, Note_off_c, 2, 53, 0
4, 21192, Note_on_c, 2, 55, 60
4, 21348, Note_off_c, 2, 55, 0
4, 21376, Note_on_c, 2, 57, 64
4, 22208, Note_off_c, 2, 57, 0
4, 22292, Note_on_c, 2, 58, 63
4, 22448, Note_off_c, 2, 58, 0
4, 22472, Note_on_c, 2, 57, 62
4, 22628, Note_off_c, 2, 57, 0
4, 22656, Note_on_c, 2, 56, 61
4, 22808, Note_off_c, 2, 56, 0
4, 22832, Note_on_c, 2, 57, 64
4, 23704, Note_off_c, 2, 57, 0
4, 23784, Note_on_c, 2, 58, 63
4, 23940, Note_off_c, 2, 58, 0
4, 23968, Note_on_c, 2, 57, 62
4, 24120, Note_off_c, 2, 57, 0
4, 24148, Note_on_c, 2, 56, 61
4, 24304, Note_off_c, 2, 56, 0
4, 24328, Note_on_c, 2, 57, 63
4, 24696, Note_off_c, 2, 57, 0
4, 24704, Note_on_c, 2, 62, 67
4, 25056, Note_off_c, 2, 62, 0
4, 25064, Note_on_c, 2, 55, 62
4, 25416, Note_off_c, 2, 55, 0
4, 25424, Note_on_c, 2, 58, 64
4, 26140, Note_off_c, 2, 58, 0
4, 26148, Note_on_c, 2, 52, 60
4, 26500, Note_off_c, 2, 52, 0
4, 26508, Note_on_c, 2, 57, 63
4, 26880, Note_off_c, 2, 57, 0
4, 26888, Note_on_c, 2, 55, 62
4, 27172, Note_off_c, 2, 55, 0
4, 27248, Note_on_c, 2, 53, 59
4, 27404, Note_off_c, 2, 53, 0
4, 27428, Note_on_c, 2, 52, 58
4, 27584, Note_off_c, 2, 52, 0
4, 27608, Note_on_c, 2, 53, 59
4, 27764, Note_off_c, 2, 53, 0
4, 27788, Note_on_c, 2, 55, 60
4, 27944, Note_off_c, 2, 55, 0
4, 27968, Note_on_c, 2, 57, 63
4, 28336, Note_off_c, 2, 57, 0
4, 28904, Note_on_c, 2, 50, 57
4, 29060, Note_off_c, 2, 50, 0
4, 29084, Note_on_c, 2, 52, 58
4, 29240, Note_off_c, 2, 52, 0
4, 29264, Note_on_c, 2, 53, 59
4, 29420, Note_off_c, 2, 53, 0
4, 29448, Note_on_c, 2, 55, 62
4, 29816, Note_off_c, 2, 55, 0
4, 30380, Note_on_c, 2, 49, 56
4, 30536, Note_off_c, 2, 49, 0
4, 30560, Note_on_c, 2, 50, 57
4, 30716, Note_off_c, 2, 50, 0
4, 30740, Note_on_c, 2, 52, 58
4, 30896, Note_off_c, 2, 52, 0
4, 30920, Note_on_c, 2, 53, 60
4, 31292, Note_off_c, 2, 53, 0
4, 31856, Note_on_c, 2, 47, 55
4, 32012, Note_off_c, 2, 47, 0
4, 32040, Note_on_c, 2, 49, 56
4, 32192, Note_off_c, 2, 49, 0
4, 32216, Note_on_c, 2, 50, 57
4, 32372, Note_off_c, 2, 50, 0
4, 32400, Note_on_c, 2, 52, 60
4, 32768, Note_off_c, 2, 52, 0
4, 33332, Note_on_c, 2, 57, 62
4, 33488, Note_off_c, 2, 57, 0
4, 33512, Note_on_c, 2, 58, 63
4, 33672, Note_off_c, 2, 58, 0
4, 33696, Note_on_c, 2, 60, 64
4, 33868, Note_off_c, 2, 60, 0
4, 33892, Note_on_c, 2, 62, 68
4, 34800, Note_off_c, 2, 62, 0
4, 34828, Note_on_c, 2, 59, 63
4, 34984, Note_off_c, 2, 59, 0
4, 35008, Note_on_c, 2, 60, 64
4, 35164, Note_off_c, 2, 60, 0
4, 35188, Note_on_c, 2, 62, 66
4, 35360, Note_off_c, 2, 62, 0
4, 35384, Note_on_c, 2, 64, 70
4, 36296, Note_off_c, 2, 64, 0
4, 36320, Note_on_c, 2, 61, 65
4, 36476, Note_off_c, 2, 61, 0
4, 36500, Note_on_c, 2, 62, 66
4, 36656, Note_off_c, 2, 62, 0
4, 36680, Note_on_c, 2, 64, 67
4, 36852, Note_off_c, 2, 64, 0
4, 36876, Note_on_c, 2, 65, 71
4, 37812, Note_off_c, 2, 65, 0
4, 37812, Note_on_c, 2, 65, 68
4, 37968, Note_off_c, 2, 65, 0
4, 37992, Note_on_c, 2, 64, 67
4, 38148, Note_off_c, 2, 64, 0
4, 38172, Note_on_c, 2, 62, 66
4, 38328, Note_off_c, 2, 62, 0
4, 38352, Note_on_c, 2, 60, 67
4, 40108, Note_off_c, 2, 60, 0
4, 40192, Note_on_c, 2, 58, 64
4, 40544, Note_off_c, 2, 58, 0
4, 40552, Note_on_c, 2, 57, 63
4, 40904, Note_off_c, 2, 57, 0
4, 40912, Note_on_c, 2, 60, 66
4, 41264, Note_off_c, 2, 60, 0
4, 41272, Note_on_c, 2, 57, 64
4, 42208, Note_off_c, 2, 57, 0
4, 42208, Note_on_c, 2, 57, 62
4, 42364, Note_off_c, 2, 57, 0
4, 42392, Note_on_c, 2, 55, 60
4, 42544, Note_off_c, 2, 55, 0
4, 42568, Note_on_c, 2, 53, 59
4, 42724, Note_off_c, 2, 53, 0
4, 42752, Note_on_c, 2, 52, 58
4, 42904, Note_off_c, 2, 52, 0
4, 42932, Note_on_c, 2, 50, 57
4, 43104, Note_off_c, 2, 50, 0
4, 43128, Note_on_c, 2, 52, 60
4, 43776, Note_off_c, 2, 52, 0
4, 43848, Note_on_c, 2, 57, 62
4, 44004, Note_off_c, 2, 57, 0
4, 44032, Note_on_c, 2, 55, 60
4, 44184, Note_off_c, 2, 55, 0
4, 44212, Note_on_c, 2, 53, 59
4, 44368, Note_off_c, 2, 53, 0
4, 44392, Note_on_c, 2, 52, 58
4, 44564, Note_off_c, 2, 52, 0
4, 44588, Note_on_c, 2, 53, 60
4, 45284, Note_off_c, 2, 53, 0
4, 45360, Note_on_c, 2, 52, 58
4, 45512, Note_off_c, 2, 52, 0
4, 45540, Note_on_c, 2, 50, 57
4, 45696, Note_off_c, 2, 50, 0
4, 45720, Note_on_c, 2, 52, 58
4, 45876, Note_off_c, 2, 52, 0
4, 45900, Note_on_c, 2, 53, 59
4, 46056, Note_off_c, 2, 53, 0
4, 46080, Note_on_c, 2, 55, 62
4, 46664, Note_off_c, 2, 55, 0
4, 46688, Note_on_c, 2, 57, 62
4, 46844, Note_off_c, 2, 57, 0
4, 46868, Note_on_c, 2, 58, 65
4, 47524, Note_off_c, 2, 58, 0
4, 47608, Note_on_c, 2, 57, 62
4, 47760, Note_off_c, 2, 57, 0
4, 47788, Note_on_c, 2, 55, 60
4, 47960, Note_off_c, 2, 55, 0
4, 47984, Note_on_c, 2, 53, 61
4, 48720, Note_off_c, 2, 53, 0
4, 50952, Note_on_c, 2, 62, 68
4, 51676, Note_off_c, 2, 62, 0
4, 51676, Note_on_c, 2, 55, 63
4, 52412, Note_off_c, 2, 55, 0
4, 52412, Note_on_c, 2, 58, 65
4, 53232, Note_off_c, 2, 58, 0
4, 53232, Note_on_c, 2, 62, 68
4, 53952, Note_off_c, 2, 62, 0
4, 53952, Note_on_c, 2, 63, 69
4, 54640, Note_off_c, 2, 63, 0
4, 54724, Note_on_c, 2, 62, 67
4, 55076, Note_off_c, 2, 62, 0
4, 55084, Note_on_c, 2, 60, 66
4, 55456, Note_off_c, 2, 60, 0
4, 55464, Note_on_c, 2, 58, 65
4, 56316, Note_off_c, 2, 58, 0
4, 56400, Note_on_c, 2, 57, 62
4, 56552, Note_off_c, 2, 57, 0
4, 56580, Note_on_c, 2, 58, 63
4, 56736, Note_off_c, 2, 58, 0
4, 56760, Note_on_c, 2, 60, 64
4, 56916, Note_off_c, 2, 60, 0
4, 56940, Note_on_c, 2, 62, 66
4, 57096, Note_off_c, 2, 62, 0
4, 57120, Note_on_c, 2, 63, 67
4, 57276, Note_off_c, 2, 63, 0
4, 57300, Note_on_c, 2, 62, 66
4, 57456, Note_off_c, 2, 62, 0
4, 57480, Note_on_c, 2, 61, 65
4, 57636, Note_off_c, 2, 61, 0
4, 57660, Note_on_c, 2, 62, 66
4, 57832, Note_off_c, 2, 62, 0
4, 57860, Note_on_c, 2, 52, 58
4, 58016, Note_off_c, 2, 52, 0
4, 58040, Note_on_c, 2, 53, 59
4, 58192, Note_off_c, 2, 53, 0
4, 58220, Note_on_c, 2, 55, 60
4, 58376, Note_off_c, 2, 55, 0
4, 58400, Note_on_c, 2, 57, 62
4, 58556, Note_off_c, 2, 57, 0
4, 58580, Note_on_c, 2, 50, 57
4, 58736, Note_off_c, 2, 50, 0
4, 58760, Note_on_c, 2, 62, 68
4, 59284, Note_off_c, 2, 62, 0
4, 59368, Note_on_c, 2, 63, 67
4, 59524, Note_off_c, 2, 63, 0
4, 59548, Note_on_c, 2, 62, 66
4, 59704, Note_off_c, 2, 62, 0
4, 59728, Note_on_c, 2, 61, 65
4, 59884, Note_off_c, 2, 61, 0
4, 59908, Note_on_c, 2, 62, 66
4, 60064, Note_off_c, 2, 62, 0
4, 60088, Note_on_c, 2, 65, 68
4, 60244, Note_off_c, 2, 65, 0
4, 60268, Note_on_c, 2, 64, 67
4, 60424, Note_off_c, 2, 64, 0
4, 60448, Note_on_c, 2, 62, 66
4, 60624, Note_off_c, 2, 62, 0
4, 60648, Note_on_c, 2, 69, 73
4, 60948, Note_off_c, 2, 69, 0
4, 61024, Note_on_c, 2, 61, 67
4, 61688, Note_off_c, 2, 61, 0
4, 61764, Note_on_c, 2, 62, 66
4, 61920, Note_off_c, 2, 62, 0
4, 61944, Note_on_c, 2, 64, 67
4, 62100, Note_off_c, 2, 64, 0
4, 62124, Note_on_c, 2, 65, 71
4, 63216, Note_off_c, 2, 65, 0
4, 63224, Note_on_c, 2, 64, 69
4, 63576, Note_off_c, 2, 64, 0
4, 63584, Note_on_c, 2, 60, 67
4, 64672, Note_off_c, 2, 60, 0
4, 64684, Note_on_c, 2, 62, 67
4, 65036, Note_off_c, 2, 62, 0
4, 65044, Note_on_c, 2, 59, 66
4, 66136, Note_off_c, 2, 59, 0
4, 66144, Note_on_c, 2, 60, 66
4, 66496, Note_off_c, 2, 60, 0
4, 66504, Note_on_c, 2, 57, 64
4, 67628, Note_off_c, 2, 57, 0
4, 67636, Note_on_c, 2, 59, 65
4, 67988, Note_off_c, 2, 59, 0
4, 67996, Note_on_c, 2, 56, 63
4, 69104, Note_off_c, 2, 56, 0
4, 69112, Note_on_c, 2, 52, 60
4, 69784, Note_off_c, 2, 52, 0
4, 69868, Note_on_c, 2, 57, 63
4, 70596, Note_off_c, 2, 57, 0
4, 70604, Note_on_c, 2, 53, 61
4, 71276, Note_off_c, 2, 53, 0
4, 71360, Note_on_c, 2, 50, 58
4, 71648, Note_off_c, 2, 50, 0
4, 71720, Note_on_c, 2, 59, 65
4, 72088, Note_off_c, 2, 59, 0
4, 72096, Note_on_c, 2, 56, 63
4, 72768, Note_off_c, 2, 56, 0
4, 72852, Note_on_c, 2, 56, 63
4, 73204, Note_off_c, 2, 56, 0
4, 73212, Note_on_c, 2, 57, 63
4, 73584, Note_off_c, 2, 57, 0
4, 73592, Note_on_c, 2, 64, 69
4, 73960, Note_off_c, 2, 64, 0
4, 73968, Note_on_c, 2, 57, 63
4, 74336, Note_off_c, 2, 57, 0
4, 74344, Note_on_c, 2, 62, 67
4, 74880, Note_off_c, 2, 62, 0
4, 74904, Note_on_c, 2, 60, 64
4, 75060, Note_off_c, 2, 60, 0
4, 75084, Note_on_c, 2, 59, 63
4, 75240, Note_off_c, 2, 59, 0
4, 75264, Note_on_c, 2, 62, 66
4, 75420, Note_off_c, 2, 62, 0
4, 75444, Note_on_c, 2, 60, 64
4, 75600, Note_off_c, 2, 60, 0
4, 75624, Note_on_c, 2, 59, 63
4, 75780, Note_off_c, 2, 59, 0
4, 75804, Note_on_c, 2, 57, 62
4, 75960, Note_off_c, 2, 57, 0
4, 75984, Note_on_c, 2, 56, 61
4, 76144, Note_off_c, 2, 56, 0
4, 76168, Note_on_c, 2, 57, 64
4, 76624, Note_off_c, 2, 57, 0
4, 76708, Note_on_c, 2, 59, 63
4, 76880, Note_off_c, 2, 59, 0
4, 76904, Note_on_c, 2, 60, 65
4, 76980, Note_off_c, 2, 60, 0
4, 76992, Note_on_c, 2, 59, 64
4, 77068, Note_off_c, 2, 59, 0
4, 77084, Note_on_c, 2, 60, 65
4, 77160, Note_off_c, 2, 60, 0
4, 77172, Note_on_c, 2, 59, 64
4, 77248, Note_off_c, 2, 59, 0
4, 77260, Note_on_c, 2, 60, 65
4, 77336, Note_off_c, 2, 60, 0
4, 77352, Note_on_c, 2, 59, 64
4, 77424, Note_off_c, 2, 59, 0
4, 77440, Note_on_c, 2, 60, 65
4, 77512, Note_off_c, 2, 60, 0
4, 77528, Note_on_c, 2, 59, 64
4, 77604, Note_off_c, 2, 59, 0
4, 77616, Note_on_c, 2, 57, 64
4, 78436, Note_off_c, 2, 57, 0
4, 78520, Note_on_c, 2, 62, 66
4, 78676, Note_off_c, 2, 62, 0
4, 78700, Note_on_c, 2, 60, 64
4, 78856, Note_off_c, 2, 60, 0
4, 78880, Note_on_c, 2, 58, 63
4, 79036, Note_off_c, 2, 58, 0
4, 79060, Note_on_c, 2, 57, 64
4, 79896, Note_off_c, 2, 57, 0
4, 79980, Note_on_c, 2, 58, 63
4, 80136, Note_off_c, 2, 58, 0
4, 80160, Note_on_c, 2, 57, 62
4, 80316, Note_off_c, 2, 57, 0
4, 80340, Note_on_c, 2, 55, 60
4, 80496, Note_off_c, 2, 55, 0
4, 80520, Note_on_c, 2, 53, 61
4, 81356, Note_off_c, 2, 53, 0
4, 81440, Note_on_c, 2, 67, 70
4, 81596, Note_off_c, 2, 67, 0
4, 81620, Note_on_c, 2, 65, 68
4, 81776, Note_off_c, 2, 65, 0
4, 81800, Note_on_c, 2, 64, 67
4, 81956, Note_off_c, 2, 64, 0
4, 81980, Note_on_c, 2, 62, 68
4, 82832, Note_off_c, 2, 62, 0
4, 82916, Note_on_c, 2, 63, 67
4, 83072, Note_off_c, 2, 63, 0
4, 83096, Note_on_c, 2, 62, 66
4, 83252, Note_off_c, 2, 62, 0
4, 83276, Note_on_c, 2, 60, 64
4, 83432, Note_off_c, 2, 60, 0
4, 83456, Note_on_c, 2, 58, 64
4, 83760, Note_off_c, 2, 58, 0
4, 83832, Note_on_c, 2, 67, 72
4, 84188, Note_off_c, 2, 67, 0
4, 84196, Note_on_c, 2, 64, 70
4, 85120, Note_off_c, 2, 64, 0
4, 85148, Note_on_c, 2, 60, 64
4, 85304, Note_off_c, 2, 60, 0
4, 85328, Note_on_c, 2, 58, 63
4, 85484, Note_off_c, 2, 58, 0
4, 85508, Note_on_c, 2, 57, 62
4, 85680, Note_off_c, 2, 57, 0
4, 85704, Note_on_c, 2, 55, 63
4, 87264, Note_off_c, 2, 55, 0
4, 87344, Note_on_c, 2, 62, 66
4, 87500, Note_off_c, 2, 62, 0
4, 87528, Note_on_c, 2, 60, 64
4, 87680, Note_off_c, 2, 60, 0
4, 87704, Note_on_c, 2, 58, 63
4, 87860, Note_off_c, 2, 58, 0
4, 87888, Note_on_c, 2, 57, 64
4, 88720, Note_off_c, 2, 57, 0
4, 88804, Note_on_c, 2, 58, 63
4, 88960, Note_off_c, 2, 58, 0
4, 88984, Note_on_c, 2, 57, 62
4, 89140, Note_off_c, 2, 57, 0
4, 89168, Note_on_c, 2, 55, 60
4, 89320, Note_off_c, 2, 55, 0
4, 89348, Note_on_c, 2, 57, 63
4, 89700, Note_off_c, 2, 57, 0
4, 89708, Note_on_c, 2, 59, 65
4, 90060, Note_off_c, 2, 59, 0
4, 90068, Note_on_c, 2, 60, 66
4, 90436, Note_off_c, 2, 60, 0
4, 90448, Note_on_c, 2, 64, 69
4, 90800, Note_off_c, 2, 64, 0
4, 90808, Note_on_c, 2, 60, 67
4, 91840, Note_off_c, 2, 60, 0
4, 91924, Note_on_c, 2, 64, 69
4, 92272, Note_off_c, 2, 64, 0
4, 92284, Note_on_c, 2, 60, 67
4, 93316, Note_off_c, 2, 60, 0
4, 93400, Note_on_c, 2, 63, 68
4, 93752, Note_off_c, 2, 63, 0
4, 93760, Note_on_c, 2, 57, 64
4, 94496, Note_off_c, 2, 57, 0
4, 95236, Note_on_c, 2, 62, 68
4, 95976, Note_off_c, 2, 62, 0
4, 95976, Note_on_c, 2, 55, 63
4, 96712, Note_off_c, 2, 55, 0
4, 96712, Note_on_c, 2, 58, 65
4, 97452, Note_off_c, 2, 58, 0
4, 97452, Note_on_c, 2, 62, 68
4, 98172, Note_off_c, 2, 62, 0
4, 98172, Note_on_c, 2, 65, 71
4, 98812, Note_off_c, 2, 65, 0
4, 98896, Note_on_c, 2, 64, 69
4, 99248, Note_off_c, 2, 64, 0
4, 99256, Note_on_c, 2, 62, 67
4, 99608, Note_off_c, 2, 62, 0
4, 99616, Note_on_c, 2, 61, 67
4, 100452, Note_off_c, 2, 61, 0
4, 100536, Note_on_c, 2, 57, 62
4, 100692, Note_off_c, 2, 57, 0
4, 100716, Note_on_c, 2, 59, 63
4, 100872, Note_off_c, 2, 59, 0
4, 100896, Note_on_c, 2, 61, 65
4, 101052, Note_off_c, 2, 61, 0
4, 101076, Note_on_c, 2, 62, 67
4, 101428, Note_off_c, 2, 62, 0
4, 101440, Note_on_c, 2, 57, 63
4, 101792, Note_off_c, 2, 57, 0
4, 101800, Note_on_c, 2, 65, 71
4, 102872, Note_off_c, 2, 65, 0
4, 102880, Note_on_c, 2, 55, 62
4, 103232, Note_off_c, 2, 55, 0
4, 103244, Note_on_c, 2, 64, 70
4, 104316, Note_off_c, 2, 64, 0
4, 104328, Note_on_c, 2, 65, 70
4, 104676, Note_off_c, 2, 65, 0
4, 104688, Note_on_c, 2, 62, 68
4, 105564, Note_off_c, 2, 62, 0
4, 105588, Note_on_c, 2, 65, 68
4, 105744, Note_off_c, 2, 65, 0
4, 105768, Note_on_c, 2, 64, 67
4, 105924, Note_off_c, 2, 64, 0
4, 105952, Note_on_c, 2, 62, 66
4, 106104, Note_off_c, 2, 62, 0
4, 106132, Note_on_c, 2, 61, 67
4, 107024, Note_off_c, 2, 61, 0
4, 107048, Note_on_c, 2, 63, 67
4, 107204, Note_off_c, 2, 63, 0
4, 107232, Note_on_c, 2, 62, 66
4, 107384, Note_off_c, 2, 62, 0
4, 107408, Note_on_c, 2, 61, 65
4, 107568, Note_off_c, 2, 61, 0
4, 107592, Note_on_c, 2, 62, 66
4, 107748, Note_off_c, 2, 62, 0
4, 107772, Note_on_c, 2, 67, 70
4, 107928, Note_off_c, 2, 67, 0
4, 107952, Note_on_c, 2, 65, 68
4, 108108, Note_off_c, 2, 65, 0
4, 108132, Note_on_c, 2, 64, 67
4, 108288, Note_off_c, 2, 64, 0
4, 108312, Note_on_c, 2, 62, 66
4, 108468, Note_off_c, 2, 62, 0
4, 108492, Note_on_c, 2, 63, 67
4, 108648, Note_off_c, 2, 63, 0
4, 108672, Note_on_c, 2, 62, 66
4, 108828, Note_off_c, 2, 62, 0
4, 108856, Note_on_c, 2, 61, 65
4, 109008, Note_off_c, 2, 61, 0
4, 109036, Note_on_c, 2, 62, 66
4, 109192, Note_off_c, 2, 62, 0
4, 109216, Note_on_c, 2, 67, 70
4, 109372, Note_off_c, 2, 67, 0
4, 109396, Note_on_c, 2, 65, 68
4, 109552, Note_off_c, 2, 65, 0
4, 109576, Note_on_c, 2, 64, 67
4, 109732, Note_off_c, 2, 64, 0
4, 109756, Note_on_c, 2, 63, 67
4, 109912, Note_off_c, 2, 63, 0
4, 109936, Note_on_c, 2, 64, 67
4, 110092, Note_off_c, 2, 64, 0
4, 110116, Note_on_c, 2, 63, 67
4, 110272, Note_off_c, 2, 63, 0
4, 110296, Note_on_c, 2, 64, 67
4, 110456, Note_off_c, 2, 64, 0
4, 110480, Note_on_c, 2, 66, 69
4, 110632, Note_off_c, 2, 66, 0
4, 110660, Note_on_c, 2, 64, 67
4, 110816, Note_off_c, 2, 64, 0
4, 110840, Note_on_c, 2, 66, 69
4, 110996, Note_off_c, 2, 66, 0
4, 111020, Note_on_c, 2, 63, 67
4, 111192, Note_off_c, 2, 63, 0
4, 111216, Note_on_c, 2, 59, 63
4, 111372, Note_off_c, 2, 59, 0
4, 111396, Note_on_c, 2, 60, 64
4, 111552, Note_off_c, 2, 60, 0
4, 111576, Note_on_c, 2, 59, 63
4, 111732, Note_off_c, 2, 59, 0
4, 111760, Note_on_c, 2, 60, 64
4, 111928, Note_off_c, 2, 60, 0
4, 111956, Note_on_c, 2, 62, 67
4, 112324, Note_off_c, 2, 62, 0
4, 112332, Note_on_c, 2, 59, 65
4, 112684, Note_off_c, 2, 59, 0
4, 112692, Note_on_c, 2, 57, 63
4, 112980, Note_off_c, 2, 57, 0
4, 113056, Note_on_c, 2, 64, 69
4, 113408, Note_off_c, 2, 64, 0
4, 113416, Note_on_c, 2, 60, 66
4, 113768, Note_off_c, 2, 60, 0
4, 114496, Note_on_c, 2, 64, 69
4, 114848, Note_off_c, 2, 64, 0
4, 114860, Note_on_c, 2, 60, 66
4, 115212, Note_off_c, 2, 60, 0
4, 115220, Note_on_c, 2, 64, 69
4, 115948, Note_off_c, 2, 64, 0
4, 115960, Note_on_c, 2, 58, 64
4, 116312, Note_off_c, 2, 58, 0
4, 116696, Note_on_c, 2, 54, 60
4, 116852, Note_off_c, 2, 54, 0
4, 116876, Note_on_c, 2, 55, 60
4, 117032, Note_off_c, 2, 55, 0
4, 117056, Note_on_c, 2, 57, 64
4, 118088, Note_off_c, 2, 57, 0
4, 118172, Note_on_c, 2, 59, 65
4, 118688, Note_off_c, 2, 59, 0
4, 118716, Note_on_c, 2, 60, 64
4, 118868, Note_off_c, 2, 60, 0
4, 118896, Note_on_c, 2, 62, 66
4, 119052, Note_off_c, 2, 62, 0
4, 119076, Note_on_c, 2, 59, 63
4, 119232, Note_off_c, 2, 59, 0
4, 119256, Note_on_c, 2, 60, 66
4, 119624, Note_off_c, 2, 60, 0
4, 119632, Note_on_c, 2, 61, 67
4, 119984, Note_off_c, 2, 61, 0
4, 119992, Note_on_c, 2, 62, 68
4, 121028, Note_off_c, 2, 62, 0
4, 121112, Note_on_c, 2, 60, 66
4, 121460, Note_off_c, 2, 60, 0
4, 121472, Note_on_c, 2, 59, 65
4, 121824, Note_off_c, 2, 59, 0
4, 121832, Note_on_c, 2, 64, 69
4, 122116, Note_off_c, 2, 64, 0
4, 122192, Note_on_c, 2, 60, 64
4, 122348, Note_off_c, 2, 60, 0
4, 122372, Note_on_c, 2, 59, 63
4, 122544, Note_off_c, 2, 59, 0
4, 122568, Note_on_c, 2, 60, 66
4, 122920, Note_off_c, 2, 60, 0
4, 122932, Note_on_c, 2, 57, 63
4, 123284, Note_off_c, 2, 57, 0
4, 123292, Note_on_c, 2, 62, 67
4, 123644, Note_off_c, 2, 62, 0
4, 123652, Note_on_c, 2, 63, 68
4, 124020, Note_off_c, 2, 63, 0
4, 124032, Note_on_c, 2, 65, 70
4, 124564, Note_off_c, 2, 65, 0
4, 124588, Note_on_c, 2, 59, 63
4, 124744, Note_off_c, 2, 59, 0
4, 124768, Note_on_c, 2, 60, 64
4, 124924, Note_off_c, 2, 60, 0
4, 124948, Note_on_c, 2, 62, 66
4, 125104, Note_off_c, 2, 62, 0
4, 125128, Note_on_c, 2, 63, 69
4, 126024, Note_off_c, 2, 63, 0
4, 126048, Note_on_c, 2, 62, 68
4, 126868, Note_off_c, 2, 62, 0
4, 126952, Note_on_c, 2, 55, 62
4, 127508, Note_off_c, 2, 55, 0
4, 127508, Note_on_c, 2, 55, 60
4, 127664, Note_off_c, 2, 55, 0
4, 127688, Note_on_c, 2, 57, 62
4, 127844, Note_off_c, 2, 57, 0
4, 127868, Note_on_c, 2, 59, 63
4, 128024, Note_off_c, 2, 59, 0
4, 128048, Note_on_c, 2, 60, 66
4, 128416, Note_off_c, 2, 60, 0
4, 129164, Note_on_c, 2, 60, 66
4, 129516, Note_off_c, 2, 60, 0
4, 129528, Note_on_c, 2, 57, 64
4, 130444, Note_off_c, 2, 57, 0
4, 130444, Note_on_c, 2, 57, 62
4, 130600, Note_off_c, 2, 57, 0
4, 130624, Note_on_c, 2, 59, 63
4, 130780, Note_off_c, 2, 59, 0
4, 130808, Note_on_c, 2, 61, 65
4, 130960, Note_off_c, 2, 61, 0
4, 130984, Note_on_c, 2, 62, 67
4, 131356, Note_off_c, 2, 62, 0
4, 132100, Note_on_c, 2, 62, 67
4, 132456, Note_off_c, 2, 62, 0
4, 132464, Note_on_c, 2, 59, 66
4, 133384, Note_off_c, 2, 59, 0
4, 133384, Note_on_c, 2, 59, 63
4, 133536, Note_off_c, 2, 59, 0
4, 133560, Note_on_c, 2, 61, 65
4, 133716, Note_off_c, 2, 61, 0
4, 133744, Note_on_c, 2, 62, 66
4, 133896, Note_off_c, 2, 62, 0
4, 133924, Note_on_c, 2, 64, 69
4, 134292, Note_off_c, 2, 64, 0
4, 134300, Note_on_c, 2, 70, 74
4, 134584, Note_off_c, 2, 70, 0
4, 134660, Note_on_c, 2, 64, 67
4, 134816, Note_off_c, 2, 64, 0
4, 134840, Note_on_c, 2, 62, 66
4, 135016, Note_off_c, 2, 62, 0
4, 135040, Note_on_c, 2, 64, 69
4, 135392, Note_off_c, 2, 64, 0
4, 135400, Note_on_c, 2, 61, 67
4, 136488, Note_off_c, 2, 61, 0
4, 136496, Note_on_c, 2, 57, 63
4, 136868, Note_off_c, 2, 57, 0
4, 136876, Note_on_c, 2, 53, 61
4, 137968, Note_off_c, 2, 53, 0
4, 137976, Note_on_c, 2, 60, 66
4, 138328, Note_off_c, 2, 60, 0
4, 138336, Note_on_c, 2, 57, 63
4, 138704, Note_off_c, 2, 57, 0
4, 138712, Note_on_c, 2, 60, 66
4, 139064, Note_off_c, 2, 60, 0
4, 139452, Note_on_c, 2, 53, 60
4, 139820, Note_off_c, 2, 53, 0
4, 139828, Note_on_c, 2, 50, 59
4, 140920, Note_off_c, 2, 50, 0
4, 140928, Note_on_c, 2, 57, 63
4, 141280, Note_off_c, 2, 57, 0
4, 141288, Note_on_c, 2, 54, 61
4, 141656, Note_off_c, 2, 54, 0
4, 141664, Note_on_c, 2, 57, 63
4, 142328, Note_off_c, 2, 57, 0
4, 142404, Note_on_c, 2, 55, 60
4, 142560, Note_off_c, 2, 55, 0
4, 142584, Note_on_c, 2, 54, 60
4, 142740, Note_off_c, 2, 54, 0
4, 142768, Note_on_c, 2, 55, 63
4, 143676, Note_off_c, 2, 55, 0
4, 143700, Note_on_c, 2, 54, 60
4, 143856, Note_off_c, 2, 54, 0
4, 143880, Note_on_c, 2, 55, 60
4, 144036, Note_off_c, 2, 55, 0
4, 144060, Note_on_c, 2, 58, 63
4, 144216, Note_off_c, 2, 58, 0
4, 144240, Note_on_c, 2, 57, 64
4, 145152, Note_off_c, 2, 57, 0
4, 145176, Note_on_c, 2, 55, 60
4, 145332, Note_off_c, 2, 55, 0
4, 145360, Note_on_c, 2, 57, 62
4, 145512, Note_off_c, 2, 57, 0
4, 145540, Note_on_c, 2, 60, 64
4, 145696, Note_off_c, 2, 60, 0
4, 145720, Note_on_c, 2, 58, 65
4, 146596, Note_off_c, 2, 58, 0
4, 146620, Note_on_c, 2, 57, 62
4, 146776, Note_off_c, 2, 57, 0
4, 146800, Note_on_c, 2, 58, 63
4, 146956, Note_off_c, 2, 58, 0
4, 146984, Note_on_c, 2, 62, 66
4, 147136, Note_off_c, 2, 62, 0
4, 147164, Note_on_c, 2, 60, 67
4, 148056, Note_off_c, 2, 60, 0
4, 148080, Note_on_c, 2, 58, 63
4, 148236, Note_off_c, 2, 58, 0
4, 148264, Note_on_c, 2, 60, 64
4, 148416, Note_off_c, 2, 60, 0
4, 148440, Note_on_c, 2, 63, 67
4, 148596, Note_off_c, 2, 63, 0
4, 148624, Note_on_c, 2, 62, 66
4, 148776, Note_off_c, 2, 62, 0
4, 148804, Note_on_c, 2, 60, 64
4, 148960, Note_off_c, 2, 60, 0
4, 148984, Note_on_c, 2, 58, 63
4, 149140, Note_off_c, 2, 58, 0
4, 149164, Note_on_c, 2, 57, 62
4, 149320, Note_off_c, 2, 57, 0
4, 149344, Note_on_c, 2, 58, 65
4, 149836, Note_off_c, 2, 58, 0
4, 149920, Note_on_c, 2, 60, 64
4, 150092, Note_off_c, 2, 60, 0
4, 150116, Note_on_c, 2, 58, 64
4, 150192, Note_off_c, 2, 58, 0
4, 150204, Note_on_c, 2, 57, 63
4, 150280, Note_off_c, 2, 57, 0
4, 150292, Note_on_c, 2, 58, 64
4, 150368, Note_off_c, 2, 58, 0
4, 150384, Note_on_c, 2, 57, 63
4, 150456, Note_off_c, 2, 57, 0
4, 150472, Note_on_c, 2, 58, 64
4, 150548, Note_off_c, 2, 58, 0
4, 150560, Note_on_c, 2, 57, 63
4, 150636, Note_off_c, 2, 57, 0
4, 150648, Note_on_c, 2, 55, 61
4, 150724, Note_off_c, 2, 55, 0
4, 150736, Note_on_c, 2, 57, 63
4, 150812, Note_off_c, 2, 57, 0
4, 150828, Note_on_c, 2, 55, 60
4, 151000, Note_off_c, 2, 55, 0
4, 151024, Note_on_c, 2, 63, 67
4, 151180, Note_off_c, 2, 63, 0
4, 151204, Note_on_c, 2, 62, 66
4, 151360, Note_off_c, 2, 62, 0
4, 151384, Note_on_c, 2, 60, 64
4, 151540, Note_off_c, 2, 60, 0
4, 151564, Note_on_c, 2, 58, 65
4, 152476, Note_off_c, 2, 58, 0
4, 152500, Note_on_c, 2, 60, 64
4, 152656, Note_off_c, 2, 60, 0
4, 152680, Note_on_c, 2, 58, 63
4, 152836, Note_off_c, 2, 58, 0
4, 152860, Note_on_c, 2, 57, 62
4, 153016, Note_off_c, 2, 57, 0
4, 153040, Note_on_c, 2, 55, 63
4, 153936, Note_off_c, 2, 55, 0
4, 153960, Note_on_c, 2, 62, 66
4, 154116, Note_off_c, 2, 62, 0
4, 154140, Note_on_c, 2, 60, 64
4, 154296, Note_off_c, 2, 60, 0
4, 154320, Note_on_c, 2, 58, 63
4, 154476, Note_off_c, 2, 58, 0
4, 154504, Note_on_c, 2, 57, 64
4, 155412, Note_off_c, 2, 57, 0
4, 155436, Note_on_c, 2, 58, 63
4, 155592, Note_off_c, 2, 58, 0
4, 155616, Note_on_c, 2, 57, 62
4, 155772, Note_off_c, 2, 57, 0
4, 155800, Note_on_c, 2, 55, 60
4, 155952, Note_off_c, 2, 55, 0
4, 155980, Note_on_c, 2, 53, 61
4, 156716, Note_off_c, 2, 53, 0
4, 156716, Note_on_c, 2, 57, 64
4, 157440, Note_off_c, 2, 57, 0
4, 157440, Note_on_c, 2, 50, 59
4, 158176, Note_off_c, 2, 50, 0
4, 158176, Note_on_c, 2, 53, 61
4, 158916, Note_off_c, 2, 53, 0
4, 158916, Note_on_c, 2, 57, 64
4, 159656, Note_off_c, 2, 57, 0
4, 159656, Note_on_c, 2, 58, 65
4, 160308, Note_off_c, 2, 58, 0
4, 160392, Note_on_c, 2, 57, 63
4, 160744, Note_off_c, 2, 57, 0
4, 160752, Note_on_c, 2, 55, 62
4, 161120, Note_off_c, 2, 55, 0
4, 161128, Note_on_c, 2, 53, 61
4, 162032, Note_off_c, 2, 53, 0
4, 162116, Note_on_c, 2, 52, 58
4, 162272, Note_off_c, 2, 52, 0
4, 162296, Note_on_c, 2, 53, 59
4, 162452, Note_off_c, 2, 53, 0
4, 162480, Note_on_c, 2, 55, 60
4, 162632, Note_off_c, 2, 55, 0
4, 162656, Note_on_c, 2, 57, 62
4, 162812, Note_off_c, 2, 57, 0
4, 162840, Note_on_c, 2, 58, 63
4, 162992, Note_off_c, 2, 58, 0
4, 163020, Note_on_c, 2, 57, 62
4, 163176, Note_off_c, 2, 57, 0
4, 163200, Note_on_c, 2, 56, 61
4, 163356, Note_off_c, 2, 56, 0
4, 163380, Note_on_c, 2, 57, 64
4, 164300, Note_off_c, 2, 57, 0
4, 164300, Note_on_c, 2, 57, 62
4, 164456, Note_off_c, 2, 57, 0
4, 164480, Note_on_c, 2, 55, 60
4, 164636, Note_off_c, 2, 55, 0
4, 164660, Note_on_c, 2, 53, 59
4, 164816, Note_off_c, 2, 53, 0
4, 164840, Note_on_c, 2, 52, 60
4, 165192, Note_off_c, 2, 52, 0
4, 165200, Note_on_c, 2, 50, 58
4, 165736, Note_off_c, 2, 50, 0
4, 165760, Note_on_c, 2, 52, 58
4, 165916, Note_off_c, 2, 52, 0
4, 165940, Note_on_c, 2, 50, 57
4, 166096, Note_off_c, 2, 50, 0
4, 166120, Note_on_c, 2, 49, 56
4, 166276, Note_off_c, 2, 49, 0
4, 166300, Note_on_c, 2, 50, 57
4, 166456, Note_off_c, 2, 50, 0
4, 166480, Note_on_c, 2, 52, 58
4, 166636, Note_off_c, 2, 52, 0
4, 166660, Note_on_c, 2, 53, 59
4, 166816, Note_off_c, 2, 53, 0
4, 166840, Note_on_c, 2, 55, 60
4, 166996, Note_off_c, 2, 55, 0
4, 167024, Note_on_c, 2, 57, 62
4, 167192, Note_off_c, 2, 57, 0
4, 168664, Note_on_c, 2, 60, 64
4, 168816, Note_off_c, 2, 60, 0
4, 168844, Note_on_c, 2, 62, 66
4, 169000, Note_off_c, 2, 62, 0
4, 169024, Note_on_c, 2, 63, 67
4, 169180, Note_off_c, 2, 63, 0
4, 169204, Note_on_c, 2, 62, 66
4, 169360, Note_off_c, 2, 62, 0
4, 169384, Note_on_c, 2, 60, 64
4, 169540, Note_off_c, 2, 60, 0
4, 169564, Note_on_c, 2, 58, 63
4, 169720, Note_off_c, 2, 58, 0
4, 169744, Note_on_c, 2, 57, 62
4, 169900, Note_off_c, 2, 57, 0
4, 169928, Note_on_c, 2, 55, 62
4, 170296, Note_off_c, 2, 55, 0
4, 170304, Note_on_c, 2, 62, 67
4, 170656, Note_off_c, 2, 62, 0
4, 170664, Note_on_c, 2, 58, 65
4, 171544, Note_off_c, 2, 58, 0
4, 171568, Note_on_c, 2, 55, 60
4, 171720, Note_off_c, 2, 55, 0
4, 171748, Note_on_c, 2, 57, 62
4, 171904, Note_off_c, 2, 57, 0
4, 171928, Note_on_c, 2, 58, 63
4, 172084, Note_off_c, 2, 58, 0
4, 172108, Note_on_c, 2, 57, 62
4, 172264, Note_off_c, 2, 57, 0
4, 172288, Note_on_c, 2, 55, 60
4, 172444, Note_off_c, 2, 55, 0
4, 172468, Note_on_c, 2, 53, 59
4, 172624, Note_off_c, 2, 53, 0
4, 172648, Note_on_c, 2, 52, 58
4, 172804, Note_off_c, 2, 52, 0
4, 172832, Note_on_c, 2, 53, 61
4, 174472, Note_off_c, 2, 53, 0
4, 174472, Note_on_c, 2, 53, 59
4, 174628, Note_off_c, 2, 53, 0
4, 174652, Note_on_c, 2, 52, 58
4, 174808, Note_off_c, 2, 52, 0
4, 174832, Note_on_c, 2, 50, 57
4, 174988, Note_off_c, 2, 50, 0
4, 175012, Note_on_c, 2, 52, 60
4, 175380, Note_off_c, 2, 52, 0
4, 175388, Note_on_c, 2, 55, 62
4, 176036, Note_off_c, 2, 55, 0
4, 176112, Note_on_c, 2, 54, 60
4, 176268, Note_off_c, 2, 54, 0
4, 176292, Note_on_c, 2, 52, 58
4, 176448, Note_off_c, 2, 52, 0
4, 176472, Note_on_c, 2, 54, 61
4, 176840, Note_off_c, 2, 54, 0
4, 176848, Note_on_c, 2, 57, 63
4, 177496, Note_off_c, 2, 57, 0
4, 177572, Note_on_c, 2, 56, 61
4, 177728, Note_off_c, 2, 56, 0
4, 177752, Note_on_c, 2, 54, 60
4, 177908, Note_off_c, 2, 54, 0
4, 177932, Note_on_c, 2, 56, 63
4, 178300, Note_off_c, 2, 56, 0
4, 178312, Note_on_c, 2, 59, 65
4, 179024, Note_off_c, 2, 59, 0
4, 179032, Note_on_c, 2, 58, 64
4, 179384, Note_off_c, 2, 58, 0
4, 179392, Note_on_c, 2, 57, 64
4, 180500, Note_off_c, 2, 57, 0
4, 180508, Note_on_c, 2, 55, 62
4, 180860, Note_off_c, 2, 55, 0
4, 180868, Note_on_c, 2, 57, 63
4, 181220, Note_off_c, 2, 57, 0
4, 181232, Note_on_c, 2, 62, 67
4, 181960, Note_off_c, 2, 62, 0
4, 181968, Note_on_c, 2, 58, 64
4, 182320, Note_off_c, 2, 58, 0
4, 182328, Note_on_c, 2, 55, 62
4, 182696, Note_off_c, 2, 55, 0
4, 182708, Note_on_c, 2, 52, 60
4, 183060, Note_off_c, 2, 52, 0
4, 183444, Note_on_c, 2, 57, 63
4, 183796, Note_off_c, 2, 57, 0
4, 183808, Note_on_c, 2, 53, 60
4, 184176, Note_off_c, 2, 53, 0
4, 184184, Note_on_c, 2, 50, 58
4, 184536, Note_off_c, 2, 50, 0
4, 184920, Note_on_c, 2, 55, 62
4, 185288, Note_off_c, 2, 55, 0
4, 185300, Note_on_c, 2, 51, 59
4, 185652, Note_off_c, 2, 51, 0
4, 185660, Note_on_c, 2, 48, 57
4, 186012, Note_off_c, 2, 48, 0
4, 186020, Note_on_c, 2, 50, 59
4, 186840, Note_off_c, 2, 50, 0
4, 186924, Note_on_c, 2, 50, 57
4, 187080, Note_off_c, 2, 50, 0
4, 187104, Note_on_c, 2, 52, 58
4, 187260, Note_off_c, 2, 52, 0
4, 187284, Note_on_c, 2, 54, 60
4, 187440, Note_off_c, 2, 54, 0
4, 187464, Note_on_c, 2, 55, 62
4, 187832, Note_off_c, 2, 55, 0
4, 188924, Note_on_c, 2, 62, 68
4, 189648, Note_off_c, 2, 62, 0
4, 189648, Note_on_c, 2, 55, 63
4, 190368, Note_off_c, 2, 55, 0
4, 190368, Note_on_c, 2, 58, 65
4, 191108, Note_off_c, 2, 58, 0
4, 191108, Note_on_c, 2, 62, 68
4, 191828, Note_off_c, 2, 62, 0
4, 191828, Note_on_c, 2, 65, 71
4, 192484, Note_off_c, 2, 65, 0
4, 192568, Note_on_c, 2, 64, 69
4, 192920, Note_off_c, 2, 64, 0
4, 192928, Note_on_c, 2, 62, 67
4, 193280, Note_off_c, 2, 62, 0
4, 193288, Note_on_c, 2, 61, 67
4, 194124, Note_off_c, 2, 61, 0
4, 194208, Note_on_c, 2, 57, 62
4, 194364, Note_off_c, 2, 57, 0
4, 194388, Note_on_c, 2, 59, 63
4, 194544, Note_off_c, 2, 59, 0
4, 194568, Note_on_c, 2, 61, 65
4, 194740, Note_off_c, 2, 61, 0
4, 194764, Note_on_c, 2, 62, 67
4, 195120, Note_off_c, 2, 62, 0
4, 195128, Note_on_c, 2, 57, 64
4, 195600, Note_off_c, 2, 57, 0
4, 195684, Note_on_c, 2, 58, 63
4, 195840, Note_off_c, 2, 58, 0
4, 195864, Note_on_c, 2, 57, 62
4, 196020, Note_off_c, 2, 57, 0
4, 196044, Note_on_c, 2, 56, 61
4, 196200, Note_off_c, 2, 56, 0
4, 196224, Note_on_c, 2, 57, 62
4, 196396, Note_off_c, 2, 57, 0
4, 196424, Note_on_c, 2, 47, 55
4, 196576, Note_off_c, 2, 47, 0
4, 196604, Note_on_c, 2, 49, 56
4, 196760, Note_off_c, 2, 49, 0
4, 196784, Note_on_c, 2, 50, 57
4, 196940, Note_off_c, 2, 50, 0
4, 196964, Note_on_c, 2, 52, 58
4, 197120, Note_off_c, 2, 52, 0
4, 197144, Note_on_c, 2, 53, 59
4, 197300, Note_off_c, 2, 53, 0
4, 197324, Note_on_c, 2, 55, 60
4, 197480, Note_off_c, 2, 55, 0
4, 197504, Note_on_c, 2, 52, 58
4, 197660, Note_off_c, 2, 52, 0
4, 197688, Note_on_c, 2, 54, 60
4, 197840, Note_off_c, 2, 54, 0
4, 197868, Note_on_c, 2, 57, 62
4, 198024, Note_off_c, 2, 57, 0
4, 198048, Note_on_c, 2, 55, 63
4, 198520, Note_off_c, 2, 55, 0
4, 198604, Note_on_c, 2, 54, 60
4, 198760, Note_off_c, 2, 54, 0
4, 198784, Note_on_c, 2, 58, 64
4, 199320, Note_off_c, 2, 58, 0
4, 199344, Note_on_c, 2, 57, 62
4, 199500, Note_off_c, 2, 57, 0
4, 199524, Note_on_c, 2, 60, 67
4, 200160, Note_off_c, 2, 60, 0
4, 200244, Note_on_c, 2, 59, 63
4, 200400, Note_off_c, 2, 59, 0
4, 200424, Note_on_c, 2, 57, 62
4, 200580, Note_off_c, 2, 57, 0
4, 200608, Note_on_c, 2, 59, 65
4, 200976, Note_off_c, 2, 59, 0
4, 200984, Note_on_c, 2, 58, 65
4, 201652, Note_off_c, 2, 58, 0
4, 201736, Note_on_c, 2, 57, 62
4, 201920, Note_off_c, 2, 57, 0
4, 201984, Note_on_c, 2, 55, 61
4, 202248, Note_off_c, 2, 55, 0
4, 202272, Note_on_c, 2, 57, 64
4, 203772, Note_off_c, 2, 57, 0
4, 203772, End_track
5, 0, Start_track
5, 0, Title_t, " "
5, 0, Control_c, 3, 0, 0
5, 0, Program_c, 3, 0
5, 0, Key_signature, 0, "major"
5, 0, Control_c, 3, 7, 125
5, 21376, Note_on_c, 3, 50, 59
5, 22112, Note_off_c, 3, 50, 0
5, 22112, Note_on_c, 3, 45, 56
5, 22832, Note_off_c, 3, 45, 0
5, 22832, Note_on_c, 3, 48, 58
5, 23604, Note_off_c, 3, 48, 0
5, 23604, Note_on_c, 3, 52, 60
5, 24328, Note_off_c, 3, 52, 0
5, 24328, Note_on_c, 3, 53, 61
5, 24984, Note_off_c, 3, 53, 0
5, 25064, Note_on_c, 3, 52, 60
5, 25416, Note_off_c, 3, 52, 0
5, 25424, Note_on_c, 3, 50, 58
5, 25776, Note_off_c, 3, 50, 0
5, 25788, Note_on_c, 3, 49, 58
5, 26624, Note_off_c, 3, 49, 0
5, 26704, Note_on_c, 3, 45, 54
5, 26860, Note_off_c, 3, 45, 0
5, 26888, Note_on_c, 3, 47, 55
5, 27040, Note_off_c, 3, 47, 0
5, 27068, Note_on_c, 3, 49, 56
5, 27224, Note_off_c, 3, 49, 0
5, 27248, Note_on_c, 3, 50, 59
5, 28084, Note_off_c, 3, 50, 0
5, 28168, Note_on_c, 3, 48, 56
5, 28320, Note_off_c, 3, 48, 0
5, 28348, Note_on_c, 3, 46, 54
5, 28504, Note_off_c, 3, 46, 0
5, 28528, Note_on_c, 3, 45, 54
5, 28684, Note_off_c, 3, 45, 0
5, 28708, Note_on_c, 3, 43, 54
5, 29560, Note_off_c, 3, 43, 0
5, 29644, Note_on_c, 3, 46, 54
5, 29800, Note_off_c, 3, 46, 0
5, 29824, Note_on_c, 3, 45, 54
5, 29980, Note_off_c, 3, 45, 0
5, 30004, Note_on_c, 3, 43, 53
5, 30160, Note_off_c, 3, 43, 0
5, 30184, Note_on_c, 3, 41, 53
5, 31036, Note_off_c, 3, 41, 0
5, 31120, Note_on_c, 3, 45, 54
5, 31276, Note_off_c, 3, 45, 0
5, 31300, Note_on_c, 3, 43, 53
5, 31456, Note_off_c, 3, 43, 0
5, 31480, Note_on_c, 3, 41, 51
5, 31636, Note_off_c, 3, 41, 0
5, 31660, Note_on_c, 3, 40, 53
5, 32512, Note_off_c, 3, 40, 0
5, 32596, Note_on_c, 3, 43, 53
5, 32752, Note_off_c, 3, 43, 0
5, 32776, Note_on_c, 3, 41, 51
5, 32932, Note_off_c, 3, 41, 0
5, 32956, Note_on_c, 3, 40, 51
5, 33112, Note_off_c, 3, 40, 0
5, 33136, Note_on_c, 3, 38, 51
5, 33440, Note_off_c, 3, 38, 0
5, 33512, Note_on_c, 3, 50, 58
5, 33884, Note_off_c, 3, 50, 0
5, 33892, Note_on_c, 3, 46, 56
5, 34260, Note_off_c, 3, 46, 0
5, 34268, Note_on_c, 3, 43, 54
5, 34620, Note_off_c, 3, 43, 0
5, 34632, Note_on_c, 3, 40, 52
5, 34932, Note_off_c, 3, 40, 0
5, 35008, Note_on_c, 3, 52, 60
5, 35376, Note_off_c, 3, 52, 0
5, 35384, Note_on_c, 3, 48, 57
5, 35752, Note_off_c, 3, 48, 0
5, 35760, Note_on_c, 3, 45, 55
5, 36112, Note_off_c, 3, 45, 0
5, 36124, Note_on_c, 3, 41, 53
5, 36424, Note_off_c, 3, 41, 0
5, 36500, Note_on_c, 3, 53, 60
5, 36868, Note_off_c, 3, 53, 0
5, 36876, Note_on_c, 3, 50, 58
5, 37248, Note_off_c, 3, 50, 0
5, 37256, Note_on_c, 3, 46, 56
5, 37608, Note_off_c, 3, 46, 0
5, 37616, Note_on_c, 3, 43, 54
5, 37920, Note_off_c, 3, 43, 0
5, 37992, Note_on_c, 3, 55, 62
5, 38344, Note_off_c, 3, 55, 0
5, 38352, Note_on_c, 3, 52, 60
5, 38720, Note_off_c, 3, 52, 0
5, 38732, Note_on_c, 3, 48, 57
5, 39032, Note_off_c, 3, 48, 0
5, 39108, Note_on_c, 3, 45, 54
5, 39264, Note_off_c, 3, 45, 0
5, 39288, Note_on_c, 3, 41, 51
5, 39444, Note_off_c, 3, 41, 0
5, 39468, Note_on_c, 3, 43, 53
5, 39624, Note_off_c, 3, 43, 0
5, 39648, Note_on_c, 3, 45, 54
5, 39804, Note_off_c, 3, 45, 0
5, 39832, Note_on_c, 3, 46, 54
5, 39984, Note_off_c, 3, 46, 0
5, 40012, Note_on_c, 3, 48, 56
5, 40168, Note_off_c, 3, 48, 0
5, 40192, Note_on_c, 3, 50, 57
5, 40348, Note_off_c, 3, 50, 0
5, 40372, Note_on_c, 3, 52, 58
5, 40528, Note_off_c, 3, 52, 0
5, 40552, Note_on_c, 3, 53, 61
5, 41388, Note_off_c, 3, 53, 0
5, 41472, Note_on_c, 3, 51, 58
5, 41624, Note_off_c, 3, 51, 0
5, 41652, Note_on_c, 3, 50, 57
5, 41808, Note_off_c, 3, 50, 0
5, 41832, Note_on_c, 3, 48, 56
5, 41988, Note_off_c, 3, 48, 0
5, 42012, Note_on_c, 3, 46, 56
5, 42752, Note_off_c, 3, 46, 0
5, 42752, Note_on_c, 3, 48, 58
5, 43488, Note_off_c, 3, 48, 0
5, 43488, Note_on_c, 3, 49, 58
5, 44212, Note_off_c, 3, 49, 0
5, 44212, Note_on_c, 3, 50, 59
5, 44948, Note_off_c, 3, 50, 0
5, 44948, Note_on_c, 3, 48, 58
5, 46000, Note_off_c, 3, 48, 0
5, 46080, Note_on_c, 3, 52, 60
5, 46480, Note_off_c, 3, 52, 0
5, 46488, Note_on_c, 3, 48, 57
5, 46792, Note_off_c, 3, 48, 0
5, 46868, Note_on_c, 3, 55, 60
5, 47024, Note_off_c, 3, 55, 0
5, 47048, Note_on_c, 3, 53, 59
5, 47204, Note_off_c, 3, 53, 0
5, 47228, Note_on_c, 3, 52, 58
5, 47384, Note_off_c, 3, 52, 0
5, 47408, Note_on_c, 3, 50, 57
5, 47580, Note_off_c, 3, 50, 0
5, 47608, Note_on_c, 3, 51, 59
5, 48180, Note_off_c, 3, 51, 0
5, 48180, Note_on_c, 3, 51, 58
5, 48336, Note_off_c, 3, 51, 0
5, 48360, Note_on_c, 3, 50, 57
5, 48516, Note_off_c, 3, 50, 0
5, 48540, Note_on_c, 3, 48, 56
5, 48696, Note_off_c, 3, 48, 0
5, 48720, Note_on_c, 3, 47, 55
5, 48876, Note_off_c, 3, 47, 0
5, 48904, Note_on_c, 3, 43, 53
5, 49056, Note_off_c, 3, 43, 0
5, 49084, Note_on_c, 3, 45, 54
5, 49240, Note_off_c, 3, 45, 0
5, 49264, Note_on_c, 3, 47, 55
5, 49420, Note_off_c, 3, 47, 0
5, 49444, Note_on_c, 3, 48, 57
5, 49812, Note_off_c, 3, 48, 0
5, 49820, Note_on_c, 3, 46, 56
5, 50188, Note_off_c, 3, 46, 0
5, 50200, Note_on_c, 3, 45, 56
5, 50872, Note_off_c, 3, 45, 0
5, 50952, Note_on_c, 3, 43, 53
5, 51108, Note_off_c, 3, 43, 0
5, 51132, Note_on_c, 3, 45, 54
5, 51288, Note_off_c, 3, 45, 0
5, 51312, Note_on_c, 3, 46, 54
5, 51468, Note_off_c, 3, 46, 0
5, 51496, Note_on_c, 3, 50, 57
5, 51648, Note_off_c, 3, 50, 0
5, 51676, Note_on_c, 3, 55, 62
5, 52044, Note_off_c, 3, 55, 0
5, 56940, Note_on_c, 3, 55, 63
5, 57660, Note_off_c, 3, 55, 0
5, 57660, Note_on_c, 3, 50, 59
5, 58400, Note_off_c, 3, 50, 0
5, 58400, Note_on_c, 3, 53, 61
5, 59172, Note_off_c, 3, 53, 0
5, 59172, Note_on_c, 3, 57, 64
5, 59908, Note_off_c, 3, 57, 0
5, 59908, Note_on_c, 3, 58, 65
5, 60564, Note_off_c, 3, 58, 0
5, 60648, Note_on_c, 3, 57, 63
5, 61016, Note_off_c, 3, 57, 0
5, 61024, Note_on_c, 3, 55, 62
5, 61392, Note_off_c, 3, 55, 0
5, 61400, Note_on_c, 3, 53, 61
5, 62236, Note_off_c, 3, 53, 0
5, 62320, Note_on_c, 3, 52, 58
5, 62476, Note_off_c, 3, 52, 0
5, 62500, Note_on_c, 3, 53, 59
5, 62656, Note_off_c, 3, 53, 0
5, 62680, Note_on_c, 3, 55, 60
5, 62836, Note_off_c, 3, 55, 0
5, 62860, Note_on_c, 3, 57, 64
5, 63880, Note_off_c, 3, 57, 0
5, 63960, Note_on_c, 3, 57, 63
5, 64312, Note_off_c, 3, 57, 0
5, 64320, Note_on_c, 3, 53, 61
5, 65336, Note_off_c, 3, 53, 0
5, 65420, Note_on_c, 3, 55, 62
5, 65772, Note_off_c, 3, 55, 0
5, 65784, Note_on_c, 3, 52, 60
5, 66800, Note_off_c, 3, 52, 0
5, 66880, Note_on_c, 3, 53, 60
5, 67248, Note_off_c, 3, 53, 0
5, 67256, Note_on_c, 3, 50, 59
5, 68112, Note_off_c, 3, 50, 0
5, 68192, Note_on_c, 3, 48, 56
5, 68352, Note_off_c, 3, 48, 0
5, 68376, Note_on_c, 3, 47, 55
5, 68528, Note_off_c, 3, 47, 0
5, 68556, Note_on_c, 3, 50, 57
5, 68712, Note_off_c, 3, 50, 0
5, 68736, Note_on_c, 3, 48, 58
5, 69208, Note_off_c, 3, 48, 0
5, 69292, Note_on_c, 3, 47, 55
5, 69464, Note_off_c, 3, 47, 0
5, 69488, Note_on_c, 3, 48, 57
5, 69856, Note_off_c, 3, 48, 0
5, 69868, Note_on_c, 3, 45, 55
5, 70220, Note_off_c, 3, 45, 0
5, 70228, Note_on_c, 3, 50, 59
5, 70704, Note_off_c, 3, 50, 0
5, 70784, Note_on_c, 3, 48, 56
5, 70960, Note_off_c, 3, 48, 0
5, 70984, Note_on_c, 3, 50, 58
5, 71352, Note_off_c, 3, 50, 0
5, 71360, Note_on_c, 3, 47, 56
5, 71712, Note_off_c, 3, 47, 0
5, 71720, Note_on_c, 3, 52, 60
5, 72196, Note_off_c, 3, 52, 0
5, 72280, Note_on_c, 3, 50, 57
5, 72452, Note_off_c, 3, 50, 0
5, 72476, Note_on_c, 3, 52, 60
5, 72844, Note_off_c, 3, 52, 0
5, 72852, Note_on_c, 3, 48, 57
5, 73204, Note_off_c, 3, 48, 0
5, 73212, Note_on_c, 3, 53, 61
5, 73688, Note_off_c, 3, 53, 0
5, 73772, Note_on_c, 3, 52, 58
5, 73944, Note_off_c, 3, 52, 0
5, 73968, Note_on_c, 3, 53, 60
5, 74336, Note_off_c, 3, 53, 0
5, 74344, Note_on_c, 3, 50, 58
5, 74696, Note_off_c, 3, 50, 0
5, 74704, Note_on_c, 3, 56, 63
5, 75724, Note_off_c, 3, 56, 0
5, 75804, Note_on_c, 3, 52, 60
5, 76160, Note_off_c, 3, 52, 0
5, 76168, Note_on_c, 3, 57, 63
5, 76520, Note_off_c, 3, 57, 0
5, 76528, Note_on_c, 3, 53, 60
5, 76896, Note_off_c, 3, 53, 0
5, 76904, Note_on_c, 3, 50, 58
5, 77252, Note_off_c, 3, 50, 0
5, 77260, Note_on_c, 3, 52, 60
5, 77608, Note_off_c, 3, 52, 0
5, 77616, Note_on_c, 3, 45, 56
5, 78700, Note_off_c, 3, 45, 0
5, 78700, Note_on_c, 3, 57, 63
5, 79052, Note_off_c, 3, 57, 0
5, 79060, Note_on_c, 3, 53, 61
5, 80076, Note_off_c, 3, 53, 0
5, 80160, Note_on_c, 3, 53, 60
5, 80512, Note_off_c, 3, 53, 0
5, 80520, Note_on_c, 3, 50, 59
5, 81620, Note_off_c, 3, 50, 0
5, 81620, Note_on_c, 3, 62, 67
5, 81972, Note_off_c, 3, 62, 0
5, 81980, Note_on_c, 3, 58, 65
5, 83012, Note_off_c, 3, 58, 0
5, 83096, Note_on_c, 3, 58, 64
5, 83448, Note_off_c, 3, 58, 0
5, 83456, Note_on_c, 3, 55, 63
5, 84308, Note_off_c, 3, 55, 0
5, 84392, Note_on_c, 3, 57, 62
5, 84548, Note_off_c, 3, 57, 0
5, 84572, Note_on_c, 3, 55, 60
5, 84728, Note_off_c, 3, 55, 0
5, 84752, Note_on_c, 3, 53, 59
5, 84924, Note_off_c, 3, 53, 0
5, 84952, Note_on_c, 3, 52, 60
5, 85820, Note_off_c, 3, 52, 0
5, 85900, Note_on_c, 3, 53, 59
5, 86056, Note_off_c, 3, 53, 0
5, 86080, Note_on_c, 3, 52, 58
5, 86236, Note_off_c, 3, 52, 0
5, 86264, Note_on_c, 3, 50, 57
5, 86416, Note_off_c, 3, 50, 0
5, 86444, Note_on_c, 3, 48, 58
5, 87164, Note_off_c, 3, 48, 0
5, 89348, Note_on_c, 3, 53, 61
5, 90068, Note_off_c, 3, 53, 0
5, 90068, Note_on_c, 3, 48, 58
5, 90808, Note_off_c, 3, 48, 0
5, 90808, Note_on_c, 3, 52, 60
5, 91544, Note_off_c, 3, 52, 0
5, 91544, Note_on_c, 3, 55, 63
5, 92284, Note_off_c, 3, 55, 0
5, 92284, Note_on_c, 3, 58, 65
5, 92940, Note_off_c, 3, 58, 0
5, 93024, Note_on_c, 3, 57, 63
5, 93392, Note_off_c, 3, 57, 0
5, 93400, Note_on_c, 3, 55, 62
5, 93752, Note_off_c, 3, 55, 0
5, 93760, Note_on_c, 3, 54, 62
5, 94612, Note_off_c, 3, 54, 0
5, 94696, Note_on_c, 3, 50, 57
5, 94848, Note_off_c, 3, 50, 0
5, 94876, Note_on_c, 3, 52, 58
5, 95032, Note_off_c, 3, 52, 0
5, 95056, Note_on_c, 3, 54, 60
5, 95212, Note_off_c, 3, 54, 0
5, 95236, Note_on_c, 3, 55, 62
5, 95604, Note_off_c, 3, 55, 0
5, 95616, Note_on_c, 3, 50, 58
5, 95964, Note_off_c, 3, 50, 0
5, 95976, Note_on_c, 3, 46, 56
5, 97080, Note_off_c, 3, 46, 0
5, 97092, Note_on_c, 3, 50, 58
5, 97440, Note_off_c, 3, 50, 0
5, 97452, Note_on_c, 3, 46, 56
5, 98328, Note_off_c, 3, 46, 0
5, 98352, Note_on_c, 3, 48, 56
5, 98508, Note_off_c, 3, 48, 0
5, 98536, Note_on_c, 3, 47, 55
5, 98688, Note_off_c, 3, 47, 0
5, 98716, Note_on_c, 3, 45, 54
5, 98872, Note_off_c, 3, 45, 0
5, 98896, Note_on_c, 3, 44, 53
5, 99052, Note_off_c, 3, 44, 0
5, 99076, Note_on_c, 3, 40, 51
5, 99232, Note_off_c, 3, 40, 0
5, 99256, Note_on_c, 3, 42, 52
5, 99412, Note_off_c, 3, 42, 0
5, 99436, Note_on_c, 3, 44, 53
5, 99592, Note_off_c, 3, 44, 0
5, 99616, Note_on_c, 3, 45, 54
5, 99788, Note_off_c, 3, 45, 0
5, 99816, Note_on_c, 3, 57, 62
5, 99968, Note_off_c, 3, 57, 0
5, 99992, Note_on_c, 3, 55, 60
5, 100148, Note_off_c, 3, 55, 0
5, 100176, Note_on_c, 3, 53, 59
5, 100328, Note_off_c, 3, 53, 0
5, 100356, Note_on_c, 3, 52, 58
5, 100512, Note_off_c, 3, 52, 0
5, 100536, Note_on_c, 3, 53, 59
5, 100692, Note_off_c, 3, 53, 0
5, 100716, Note_on_c, 3, 55, 60
5, 100872, Note_off_c, 3, 55, 0
5, 100896, Note_on_c, 3, 52, 58
5, 101052, Note_off_c, 3, 52, 0
5, 101076, Note_on_c, 3, 53, 59
5, 101232, Note_off_c, 3, 53, 0
5, 101256, Note_on_c, 3, 55, 60
5, 101412, Note_off_c, 3, 55, 0
5, 101440, Note_on_c, 3, 53, 59
5, 101592, Note_off_c, 3, 53, 0
5, 101620, Note_on_c, 3, 52, 58
5, 101776, Note_off_c, 3, 52, 0
5, 101800, Note_on_c, 3, 50, 57
5, 101952, Note_off_c, 3, 50, 0
5, 101980, Note_on_c, 3, 48, 56
5, 102136, Note_off_c, 3, 48, 0
5, 102160, Note_on_c, 3, 46, 54
5, 102316, Note_off_c, 3, 46, 0
5, 102340, Note_on_c, 3, 45, 54
5, 102496, Note_off_c, 3, 45, 0
5, 102520, Note_on_c, 3, 43, 53
5, 102676, Note_off_c, 3, 43, 0
5, 102700, Note_on_c, 3, 45, 54
5, 102856, Note_off_c, 3, 45, 0
5, 102880, Note_on_c, 3, 46, 54
5, 103036, Note_off_c, 3, 46, 0
5, 103064, Note_on_c, 3, 43, 53
5, 103216, Note_off_c, 3, 43, 0
5, 103244, Note_on_c, 3, 48, 56
5, 103400, Note_off_c, 3, 48, 0
5, 103424, Note_on_c, 3, 50, 57
5, 103580, Note_off_c, 3, 50, 0
5, 103604, Note_on_c, 3, 52, 58
5, 103760, Note_off_c, 3, 52, 0
5, 103784, Note_on_c, 3, 48, 56
5, 103940, Note_off_c, 3, 48, 0
5, 103964, Note_on_c, 3, 53, 59
5, 104120, Note_off_c, 3, 53, 0
5, 104144, Note_on_c, 3, 55, 60
5, 104300, Note_off_c, 3, 55, 0
5, 104328, Note_on_c, 3, 57, 62
5, 104480, Note_off_c, 3, 57, 0
5, 104508, Note_on_c, 3, 53, 59
5, 104660, Note_off_c, 3, 53, 0
5, 104688, Note_on_c, 3, 58, 63
5, 104840, Note_off_c, 3, 58, 0
5, 104868, Note_on_c, 3, 57, 62
5, 105024, Note_off_c, 3, 57, 0
5, 105048, Note_on_c, 3, 55, 60
5, 105204, Note_off_c, 3, 55, 0
5, 105228, Note_on_c, 3, 53, 59
5, 105384, Note_off_c, 3, 53, 0
5, 105408, Note_on_c, 3, 52, 58
5, 105564, Note_off_c, 3, 52, 0
5, 105588, Note_on_c, 3, 50, 57
5, 105744, Note_off_c, 3, 50, 0
5, 105768, Note_on_c, 3, 49, 56
5, 105924, Note_off_c, 3, 49, 0
5, 105952, Note_on_c, 3, 47, 55
5, 106104, Note_off_c, 3, 47, 0
5, 106132, Note_on_c, 3, 45, 54
5, 106288, Note_off_c, 3, 45, 0
5, 106312, Note_on_c, 3, 43, 53
5, 106468, Note_off_c, 3, 43, 0
5, 106492, Note_on_c, 3, 41, 51
5, 106648, Note_off_c, 3, 41, 0
5, 106672, Note_on_c, 3, 40, 51
5, 106828, Note_off_c, 3, 40, 0
5, 106852, Note_on_c, 3, 41, 53
5, 107220, Note_off_c, 3, 41, 0
5, 107232, Note_on_c, 3, 57, 63
5, 107580, Note_off_c, 3, 57, 0
5, 107592, Note_on_c, 3, 53, 60
5, 107944, Note_off_c, 3, 53, 0
5, 107952, Note_on_c, 3, 50, 58
5, 108304, Note_off_c, 3, 50, 0
5, 108672, Note_on_c, 3, 45, 55
5, 109024, Note_off_c, 3, 45, 0
5, 109036, Note_on_c, 3, 41, 53
5, 109384, Note_off_c, 3, 41, 0
5, 109396, Note_on_c, 3, 38, 51
5, 109912, Note_off_c, 3, 38, 0
5, 109936, Note_on_c, 3, 55, 60
5, 110092, Note_off_c, 3, 55, 0
5, 110116, Note_on_c, 3, 54, 60
5, 110272, Note_off_c, 3, 54, 0
5, 110296, Note_on_c, 3, 52, 58
5, 110456, Note_off_c, 3, 52, 0
5, 110480, Note_on_c, 3, 51, 58
5, 110632, Note_off_c, 3, 51, 0
5, 110660, Note_on_c, 3, 49, 56
5, 110816, Note_off_c, 3, 49, 0
5, 110840, Note_on_c, 3, 51, 58
5, 110996, Note_off_c, 3, 51, 0
5, 111020, Note_on_c, 3, 47, 55
5, 111192, Note_off_c, 3, 47, 0
5, 111216, Note_on_c, 3, 52, 60
5, 111504, Note_off_c, 3, 52, 0
5, 111576, Note_on_c, 3, 40, 52
5, 111944, Note_off_c, 3, 40, 0
5, 111956, Note_on_c, 3, 47, 56
5, 112324, Note_off_c, 3, 47, 0
5, 112332, Note_on_c, 3, 50, 58
5, 112684, Note_off_c, 3, 50, 0
5, 112692, Note_on_c, 3, 48, 57
5, 113044, Note_off_c, 3, 48, 0
5, 113776, Note_on_c, 3, 57, 63
5, 114128, Note_off_c, 3, 57, 0
5, 114136, Note_on_c, 3, 54, 62
5, 115136, Note_off_c, 3, 54, 0
5, 115220, Note_on_c, 3, 57, 63
5, 115572, Note_off_c, 3, 57, 0
5, 115580, Note_on_c, 3, 54, 61
5, 115952, Note_off_c, 3, 54, 0
5, 115960, Note_on_c, 3, 49, 58
5, 116312, Note_off_c, 3, 49, 0
5, 116320, Note_on_c, 3, 46, 56
5, 116688, Note_off_c, 3, 46, 0
5, 116696, Note_on_c, 3, 42, 53
5, 117048, Note_off_c, 3, 42, 0
5, 117416, Note_on_c, 3, 47, 56
5, 117788, Note_off_c, 3, 47, 0
5, 117796, Note_on_c, 3, 54, 61
5, 118164, Note_off_c, 3, 54, 0
5, 118172, Note_on_c, 3, 57, 63
5, 118888, Note_off_c, 3, 57, 0
5, 118896, Note_on_c, 3, 56, 63
5, 119248, Note_off_c, 3, 56, 0
5, 119256, Note_on_c, 3, 57, 64
5, 120168, Note_off_c, 3, 57, 0
5, 120192, Note_on_c, 3, 59, 63
5, 120348, Note_off_c, 3, 59, 0
5, 120372, Note_on_c, 3, 60, 64
5, 120528, Note_off_c, 3, 60, 0
5, 120552, Note_on_c, 3, 57, 62
5, 120708, Note_off_c, 3, 57, 0
5, 120732, Note_on_c, 3, 59, 65
5, 121100, Note_off_c, 3, 59, 0
5, 121112, Note_on_c, 3, 57, 63
5, 121464, Note_off_c, 3, 57, 0
5, 121472, Note_on_c, 3, 56, 63
5, 121824, Note_off_c, 3, 56, 0
5, 121832, Note_on_c, 3, 52, 60
5, 122184, Note_off_c, 3, 52, 0
5, 122192, Note_on_c, 3, 53, 60
5, 122560, Note_off_c, 3, 53, 0
5, 122568, Note_on_c, 3, 54, 61
5, 123284, Note_off_c, 3, 54, 0
5, 123292, Note_on_c, 3, 55, 63
5, 123948, Note_off_c, 3, 55, 0
5, 124032, Note_on_c, 3, 56, 63
5, 124760, Note_off_c, 3, 56, 0
5, 124768, Note_on_c, 3, 57, 64
5, 125244, Note_off_c, 3, 57, 0
5, 125328, Note_on_c, 3, 55, 60
5, 125480, Note_off_c, 3, 55, 0
5, 125508, Note_on_c, 3, 54, 60
5, 125664, Note_off_c, 3, 54, 0
5, 125688, Note_on_c, 3, 57, 62
5, 125840, Note_off_c, 3, 57, 0
5, 125868, Note_on_c, 3, 55, 63
5, 126592, Note_off_c, 3, 55, 0
5, 126592, Note_on_c, 3, 43, 54
5, 127312, Note_off_c, 3, 43, 0
5, 127312, Note_on_c, 3, 48, 58
5, 128164, Note_off_c, 3, 48, 0
5, 128248, Note_on_c, 3, 48, 56
5, 128400, Note_off_c, 3, 48, 0
5, 128428, Note_on_c, 3, 50, 57
5, 128584, Note_off_c, 3, 50, 0
5, 128608, Note_on_c, 3, 52, 58
5, 128764, Note_off_c, 3, 52, 0
5, 128788, Note_on_c, 3, 53, 61
5, 129624, Note_off_c, 3, 53, 0
5, 129708, Note_on_c, 3, 55, 60
5, 129864, Note_off_c, 3, 55, 0
5, 129888, Note_on_c, 3, 53, 59
5, 130044, Note_off_c, 3, 53, 0
5, 130068, Note_on_c, 3, 52, 58
5, 130224, Note_off_c, 3, 52, 0
5, 130248, Note_on_c, 3, 50, 59
5, 131100, Note_off_c, 3, 50, 0
5, 131184, Note_on_c, 3, 50, 57
5, 131340, Note_off_c, 3, 50, 0
5, 131364, Note_on_c, 3, 52, 58
5, 131520, Note_off_c, 3, 52, 0
5, 131544, Note_on_c, 3, 53, 59
5, 131700, Note_off_c, 3, 53, 0
5, 131724, Note_on_c, 3, 55, 63
5, 132560, Note_off_c, 3, 55, 0
5, 132644, Note_on_c, 3, 57, 62
5, 132800, Note_off_c, 3, 57, 0
5, 132824, Note_on_c, 3, 55, 60
5, 132980, Note_off_c, 3, 55, 0
5, 133004, Note_on_c, 3, 53, 59
5, 133160, Note_off_c, 3, 53, 0
5, 133184, Note_on_c, 3, 52, 60
5, 134036, Note_off_c, 3, 52, 0
5, 134120, Note_on_c, 3, 52, 58
5, 134276, Note_off_c, 3, 52, 0
5, 134300, Note_on_c, 3, 53, 59
5, 134456, Note_off_c, 3, 53, 0
5, 134480, Note_on_c, 3, 55, 60
5, 134636, Note_off_c, 3, 55, 0
5, 134660, Note_on_c, 3, 57, 64
5, 135676, Note_off_c, 3, 57, 0
5, 135760, Note_on_c, 3, 57, 63
5, 136112, Note_off_c, 3, 57, 0
5, 136120, Note_on_c, 3, 50, 59
5, 136976, Note_off_c, 3, 50, 0
5, 137056, Note_on_c, 3, 50, 57
5, 137212, Note_off_c, 3, 50, 0
5, 137236, Note_on_c, 3, 48, 56
5, 137392, Note_off_c, 3, 48, 0
5, 137416, Note_on_c, 3, 46, 54
5, 137592, Note_off_c, 3, 46, 0
5, 137616, Note_on_c, 3, 45, 55
5, 137968, Note_off_c, 3, 45, 0
5, 138712, Note_on_c, 3, 53, 60
5, 139064, Note_off_c, 3, 53, 0
5, 139072, Note_on_c, 3, 46, 56
5, 139444, Note_off_c, 3, 46, 0
5, 140008, Note_on_c, 3, 46, 54
5, 140164, Note_off_c, 3, 46, 0
5, 140192, Note_on_c, 3, 45, 54
5, 140344, Note_off_c, 3, 45, 0
5, 140372, Note_on_c, 3, 43, 53
5, 140544, Note_off_c, 3, 43, 0
5, 140568, Note_on_c, 3, 42, 53
5, 140920, Note_off_c, 3, 42, 0
5, 141664, Note_on_c, 3, 50, 58
5, 142020, Note_off_c, 3, 50, 0
5, 142028, Note_on_c, 3, 43, 54
5, 142396, Note_off_c, 3, 43, 0
5, 142404, Note_on_c, 3, 45, 55
5, 142756, Note_off_c, 3, 45, 0
5, 142768, Note_on_c, 3, 46, 56
5, 143136, Note_off_c, 3, 46, 0
5, 143144, Note_on_c, 3, 43, 54
5, 143512, Note_off_c, 3, 43, 0
5, 143520, Note_on_c, 3, 48, 57
5, 143872, Note_off_c, 3, 48, 0
5, 143880, Note_on_c, 3, 51, 59
5, 144232, Note_off_c, 3, 51, 0
5, 144240, Note_on_c, 3, 48, 57
5, 144612, Note_off_c, 3, 48, 0
5, 144620, Note_on_c, 3, 45, 55
5, 144988, Note_off_c, 3, 45, 0
5, 144996, Note_on_c, 3, 50, 58
5, 145348, Note_off_c, 3, 50, 0
5, 145360, Note_on_c, 3, 54, 61
5, 145712, Note_off_c, 3, 54, 0
5, 145720, Note_on_c, 3, 50, 58
5, 146072, Note_off_c, 3, 50, 0
5, 146080, Note_on_c, 3, 46, 56
5, 146432, Note_off_c, 3, 46, 0
5, 146440, Note_on_c, 3, 51, 59
5, 146792, Note_off_c, 3, 51, 0
5, 146800, Note_on_c, 3, 55, 62
5, 147152, Note_off_c, 3, 55, 0
5, 147164, Note_on_c, 3, 52, 60
5, 147532, Note_off_c, 3, 52, 0
5, 147540, Note_on_c, 3, 48, 57
5, 147892, Note_off_c, 3, 48, 0
5, 147900, Note_on_c, 3, 53, 60
5, 148252, Note_off_c, 3, 53, 0
5, 148264, Note_on_c, 3, 57, 63
5, 148616, Note_off_c, 3, 57, 0
5, 148624, Note_on_c, 3, 54, 61
5, 148976, Note_off_c, 3, 54, 0
5, 148984, Note_on_c, 3, 50, 58
5, 149336, Note_off_c, 3, 50, 0
5, 149344, Note_on_c, 3, 55, 62
5, 149712, Note_off_c, 3, 55, 0
5, 149720, Note_on_c, 3, 51, 59
5, 150108, Note_off_c, 3, 51, 0
5, 150116, Note_on_c, 3, 48, 57
5, 150464, Note_off_c, 3, 48, 0
5, 150472, Note_on_c, 3, 50, 58
5, 150816, Note_off_c, 3, 50, 0
5, 150828, Note_on_c, 3, 55, 62
5, 151196, Note_off_c, 3, 55, 0
5, 151204, Note_on_c, 3, 58, 64
5, 151556, Note_off_c, 3, 58, 0
5, 151564, Note_on_c, 3, 55, 63
5, 152680, Note_off_c, 3, 55, 0
5, 152680, Note_on_c, 3, 55, 62
5, 153032, Note_off_c, 3, 55, 0
5, 153040, Note_on_c, 3, 52, 60
5, 154132, Note_off_c, 3, 52, 0
5, 154140, Note_on_c, 3, 57, 63
5, 154492, Note_off_c, 3, 57, 0
5, 154504, Note_on_c, 3, 53, 61
5, 155616, Note_off_c, 3, 53, 0
5, 155616, Note_on_c, 3, 53, 60
5, 155968, Note_off_c, 3, 53, 0
5, 155980, Note_on_c, 3, 50, 59
5, 157068, Note_off_c, 3, 50, 0
5, 157080, Note_on_c, 3, 53, 61
5, 157732, Note_off_c, 3, 53, 0
5, 157816, Note_on_c, 3, 46, 56
5, 158544, Note_off_c, 3, 46, 0
5, 158552, Note_on_c, 3, 50, 59
5, 159208, Note_off_c, 3, 50, 0
5, 159292, Note_on_c, 3, 53, 60
5, 160020, Note_off_c, 3, 53, 0
5, 160032, Note_on_c, 3, 55, 63
5, 160488, Note_off_c, 3, 55, 0
5, 160572, Note_on_c, 3, 53, 61
5, 160880, Note_off_c, 3, 53, 0
5, 160948, Note_on_c, 3, 52, 60
5, 161104, Note_off_c, 3, 52, 0
5, 161128, Note_on_c, 3, 50, 59
5, 162032, Note_off_c, 3, 50, 0
5, 162116, Note_on_c, 3, 49, 56
5, 162272, Note_off_c, 3, 49, 0
5, 162296, Note_on_c, 3, 50, 57
5, 162452, Note_off_c, 3, 50, 0
5, 162476, Note_on_c, 3, 52, 58
5, 162632, Note_off_c, 3, 52, 0
5, 162656, Note_on_c, 3, 53, 61
5, 163476, Note_off_c, 3, 53, 0
5, 163560, Note_on_c, 3, 53, 59
5, 163716, Note_off_c, 3, 53, 0
5, 163740, Note_on_c, 3, 52, 58
5, 163896, Note_off_c, 3, 52, 0
5, 163920, Note_on_c, 3, 50, 57
5, 164092, Note_off_c, 3, 50, 0
5, 164120, Note_on_c, 3, 48, 58
5, 164936, Note_off_c, 3, 48, 0
5, 165020, Note_on_c, 3, 47, 57
5, 165308, Note_off_c, 3, 47, 0
5, 165380, Note_on_c, 3, 46, 56
5, 165536, Note_off_c, 3, 46, 0
5, 165560, Note_on_c, 3, 45, 56
5, 167192, Note_off_c, 3, 45, 0
5, 167220, Note_on_c, 3, 55, 60
5, 167376, Note_off_c, 3, 55, 0
5, 167400, Note_on_c, 3, 57, 62
5, 167556, Note_off_c, 3, 57, 0
5, 167580, Note_on_c, 3, 58, 63
5, 167736, Note_off_c, 3, 58, 0
5, 167760, Note_on_c, 3, 57, 62
5, 167916, Note_off_c, 3, 57, 0
5, 167940, Note_on_c, 3, 55, 60
5, 168096, Note_off_c, 3, 55, 0
5, 168120, Note_on_c, 3, 53, 59
5, 168276, Note_off_c, 3, 53, 0
5, 168300, Note_on_c, 3, 52, 58
5, 168456, Note_off_c, 3, 52, 0
5, 168484, Note_on_c, 3, 54, 62
5, 169484, Note_off_c, 3, 54, 0
5, 169564, Note_on_c, 3, 50, 58
5, 169916, Note_off_c, 3, 50, 0
5, 169928, Note_on_c, 3, 43, 54
5, 170296, Note_off_c, 3, 43, 0
5, 171024, Note_on_c, 3, 55, 62
5, 171376, Note_off_c, 3, 55, 0
5, 171388, Note_on_c, 3, 52, 60
5, 172384, Note_off_c, 3, 52, 0
5, 172468, Note_on_c, 3, 48, 57
5, 172820, Note_off_c, 3, 48, 0
5, 172832, Note_on_c, 3, 53, 60
5, 173184, Note_off_c, 3, 53, 0
5, 173192, Note_on_c, 3, 48, 57
5, 173544, Note_off_c, 3, 48, 0
5, 173552, Note_on_c, 3, 45, 55
5, 173904, Note_off_c, 3, 45, 0
5, 173912, Note_on_c, 3, 41, 53
5, 174264, Note_off_c, 3, 41, 0
5, 174272, Note_on_c, 3, 46, 56
5, 175128, Note_off_c, 3, 46, 0
5, 175208, Note_on_c, 3, 45, 54
5, 175364, Note_off_c, 3, 45, 0
5, 175388, Note_on_c, 3, 43, 53
5, 175544, Note_off_c, 3, 43, 0
5, 175568, Note_on_c, 3, 46, 54
5, 175728, Note_off_c, 3, 46, 0
5, 175752, Note_on_c, 3, 45, 54
5, 175904, Note_off_c, 3, 45, 0
5, 175932, Note_on_c, 3, 47, 55
5, 176088, Note_off_c, 3, 47, 0
5, 176112, Note_on_c, 3, 48, 58
5, 176588, Note_off_c, 3, 48, 0
5, 176668, Note_on_c, 3, 47, 55
5, 176824, Note_off_c, 3, 47, 0
5, 176848, Note_on_c, 3, 45, 54
5, 177004, Note_off_c, 3, 45, 0
5, 177032, Note_on_c, 3, 48, 56
5, 177184, Note_off_c, 3, 48, 0
5, 177212, Note_on_c, 3, 47, 55
5, 177368, Note_off_c, 3, 47, 0
5, 177392, Note_on_c, 3, 49, 56
5, 177548, Note_off_c, 3, 49, 0
5, 177572, Note_on_c, 3, 50, 59
5, 178048, Note_off_c, 3, 50, 0
5, 178128, Note_on_c, 3, 49, 56
5, 178284, Note_off_c, 3, 49, 0
5, 178312, Note_on_c, 3, 47, 55
5, 178464, Note_off_c, 3, 47, 0
5, 178492, Note_on_c, 3, 50, 57
5, 178648, Note_off_c, 3, 50, 0
5, 178672, Note_on_c, 3, 49, 56
5, 178824, Note_off_c, 3, 49, 0
5, 178852, Note_on_c, 3, 50, 57
5, 179008, Note_off_c, 3, 50, 0
5, 179032, Note_on_c, 3, 52, 60
5, 179508, Note_off_c, 3, 52, 0
5, 179588, Note_on_c, 3, 50, 57
5, 179744, Note_off_c, 3, 50, 0
5, 179768, Note_on_c, 3, 49, 56
5, 179928, Note_off_c, 3, 49, 0
5, 179952, Note_on_c, 3, 52, 58
5, 180104, Note_off_c, 3, 52, 0
5, 180132, Note_on_c, 3, 50, 58
5, 180500, Note_off_c, 3, 50, 0
5, 180508, Note_on_c, 3, 52, 60
5, 180860, Note_off_c, 3, 52, 0
5, 180868, Note_on_c, 3, 53, 60
5, 181220, Note_off_c, 3, 53, 0
5, 181232, Note_on_c, 3, 50, 58
5, 181584, Note_off_c, 3, 50, 0
5, 181592, Note_on_c, 3, 55, 63
5, 182624, Note_off_c, 3, 55, 0
5, 182708, Note_on_c, 3, 48, 57
5, 183060, Note_off_c, 3, 48, 0
5, 183068, Note_on_c, 3, 53, 61
5, 184100, Note_off_c, 3, 53, 0
5, 184184, Note_on_c, 3, 41, 53
5, 184536, Note_off_c, 3, 41, 0
5, 184544, Note_on_c, 3, 46, 56
5, 185396, Note_off_c, 3, 46, 0
5, 185480, Note_on_c, 3, 45, 54
5, 185636, Note_off_c, 3, 45, 0
5, 185660, Note_on_c, 3, 46, 54
5, 185816, Note_off_c, 3, 46, 0
5, 185840, Note_on_c, 3, 43, 53
5, 185996, Note_off_c, 3, 43, 0
5, 186020, Note_on_c, 3, 46, 54
5, 186176, Note_off_c, 3, 46, 0
5, 186200, Note_on_c, 3, 45, 54
5, 186356, Note_off_c, 3, 45, 0
5, 186384, Note_on_c, 3, 43, 53
5, 186536, Note_off_c, 3, 43, 0
5, 186560, Note_on_c, 3, 42, 52
5, 186720, Note_off_c, 3, 42, 0
5, 186744, Note_on_c, 3, 43, 54
5, 187636, Note_off_c, 3, 43, 0
5, 187660, Note_on_c, 3, 42, 52
5, 187816, Note_off_c, 3, 42, 0
5, 187840, Note_on_c, 3, 43, 53
5, 188000, Note_off_c, 3, 43, 0
5, 188024, Note_on_c, 3, 45, 54
5, 188176, Note_off_c, 3, 45, 0
5, 188204, Note_on_c, 3, 46, 54
5, 188360, Note_off_c, 3, 46, 0
5, 188384, Note_on_c, 3, 43, 53
5, 188540, Note_off_c, 3, 43, 0
5, 188564, Note_on_c, 3, 46, 54
5, 188720, Note_off_c, 3, 46, 0
5, 188744, Note_on_c, 3, 50, 57
5, 188900, Note_off_c, 3, 50, 0
5, 188924, Note_on_c, 3, 55, 63
5, 190540, Note_off_c, 3, 55, 0
5, 190564, Note_on_c, 3, 50, 57
5, 190720, Note_off_c, 3, 50, 0
5, 190744, Note_on_c, 3, 48, 56
5, 190900, Note_off_c, 3, 48, 0
5, 190928, Note_on_c, 3, 45, 54
5, 191080, Note_off_c, 3, 45, 0
5, 191108, Note_on_c, 3, 46, 54
5, 191264, Note_off_c, 3, 46, 0
5, 191288, Note_on_c, 3, 50, 57
5, 191444, Note_off_c, 3, 50, 0
5, 191468, Note_on_c, 3, 43, 53
5, 191624, Note_off_c, 3, 43, 0
5, 191648, Note_on_c, 3, 41, 51
5, 191804, Note_off_c, 3, 41, 0
5, 191828, Note_on_c, 3, 40, 51
5, 192000, Note_off_c, 3, 40, 0
5, 192024, Note_on_c, 3, 52, 58
5, 192180, Note_off_c, 3, 52, 0
5, 192208, Note_on_c, 3, 50, 57
5, 192360, Note_off_c, 3, 50, 0
5, 192388, Note_on_c, 3, 47, 55
5, 192544, Note_off_c, 3, 47, 0
5, 192568, Note_on_c, 3, 48, 56
5, 192720, Note_off_c, 3, 48, 0
5, 192748, Note_on_c, 3, 52, 58
5, 192904, Note_off_c, 3, 52, 0
5, 192928, Note_on_c, 3, 45, 54
5, 193084, Note_off_c, 3, 45, 0
5, 193108, Note_on_c, 3, 44, 53
5, 193264, Note_off_c, 3, 44, 0
5, 193288, Note_on_c, 3, 45, 54
5, 193460, Note_off_c, 3, 45, 0
5, 193488, Note_on_c, 3, 57, 62
5, 193640, Note_off_c, 3, 57, 0
5, 193664, Note_on_c, 3, 55, 60
5, 193824, Note_off_c, 3, 55, 0
5, 193848, Note_on_c, 3, 52, 58
5, 194004, Note_off_c, 3, 52, 0
5, 194028, Note_on_c, 3, 53, 61
5, 195488, Note_off_c, 3, 53, 0
5, 195488, Note_on_c, 3, 46, 56
5, 196224, Note_off_c, 3, 46, 0
5, 196224, Note_on_c, 3, 45, 56
5, 197688, Note_off_c, 3, 45, 0
5, 197688, Note_on_c, 3, 50, 59
5, 204288, Note_off_c, 3, 50, 64
5, 204288, End_track
6, 0, Start_track
6, 0, Key_signature, 0, "major"
6, 0, End_track
7, 0, Start_track
7, 0, Key_signature, 0, "major"
7, 0, End_track
8, 0, Start_track
8, 0, Key_signature, 0, "major"
8, 0, End_track
9, 0, Start_track
9, 1, Copyright_t, "___________________________________________________\012\012KUNSTDERFUGE.COM LARGE CLASSICAL MIDI COLLECTION\012ONCLASSICAL BY ALESSANDRO SIMONETTO, PROPRIETOR\012___________________________________________________\012\012! Attention: this file is under copyright !\012\012(c)onclassical, (c)onclassical, 2010\012___________________________________________________\012\012NO ONE MAY REPUBLISH THIS FILE WITHOUT PERMISSION\012COMMERCIAL USES OF THIS FILE IS STRICTLY PROHIBITED\012___________________________________________________\012\012Files & contributor's list: http://kunstderfuge.com/\012Terms and conditions: http://kunstderfuge.com/notes.htm"
9, 1, End_track
0, 0, End_of_file