0, 0, Header, 1, 9, 384
1, 0, Start_track
1, 0, Time_signature, 4, 2, 96, 8
1, 0, Sequencer_specific, 03, 00, 00, 41
1, 0, Tempo, 500000
1, 0, End_track
2, 0, Start_track
2, 0, Title_t, " "
2, 0, Control_c, 0, 0, 0
2, 0, Program_c, 0, 0
2, 0, Key_signature, 0, "major"
2, 0, Control_c, 0, 7, 125
2, 12096, Note_on_c, 0, 74, 79
2, 12820, Note_off_c, 0, 74, 0
2, 12820, Note_on_c, 0, 69, 74
2, 13580, Note_off_c, 0, 69, 0
2, 13580, Note_on_c, 0, 72, 77
2, 14304, Note_off_c, 0, 72, 0
2, 14304, Note_on_c, 0, 76, 81
2, 15024, Note_off_c, 0, 76, 0
2, 15024, Note_on_c, 0, 77, 82
2, 15700, Note_off_c, 0, 77, 0
2, 15760, Note_on_c, 0, 76, 80
2, 16112, Note_off_c, 0, 76, 0
2, 16120, Note_on_c, 0, 74, 78
2, 16472, Note_off_c, 0, 74, 0
2, 16480, Note_on_c, 0, 73, 78
2, 17348, Note_off_c, 0, 73, 0
2, 17408, Note_on_c, 0, 69, 72
2, 17564, Note_off_c, 0, 69, 0
2, 17588, Note_on_c, 0, 71, 74
2, 17744, Note_off_c, 0, 71, 0
2, 17768, Note_on_c, 0, 73, 75
2, 17936, Note_off_c, 0, 73, 0
2, 17960, Note_on_c, 0, 74, 79
2, 18816, Note_off_c, 0, 74, 0
2, 18872, Note_on_c, 0, 74, 76
2, 19032, Note_off_c, 0, 74, 0
2, 19056, Note_on_c, 0, 76, 78
2, 19212, Note_off_c, 0, 76, 0
2, 19236, Note_on_c, 0, 77, 79
2, 19392, Note_off_c, 0, 77, 0
2, 19416, Note_on_c, 0, 79, 81
2, 19584, Note_off_c, 0, 79, 0
2, 19608, Note_on_c, 0, 71, 74
2, 19764, Note_off_c, 0, 71, 0
2, 19788, Note_on_c, 0, 73, 75
2, 19944, Note_off_c, 0, 73, 0
2, 19968, Note_on_c, 0, 74, 76
2, 20136, Note_off_c, 0, 74, 0
2, 20160, Note_on_c, 0, 76, 80
2, 20512, Note_off_c, 0, 76, 0
2, 20524, Note_on_c, 0, 74, 78
2, 21040, Note_off_c, 0, 74, 0
2, 21064, Note_on_c, 0, 73, 75
2, 21220, Note_off_c, 0, 73, 0
2, 21244, Note_on_c, 0, 72, 77
2, 21920, Note_off_c, 0, 72, 0
2, 21976, Note_on_c, 0, 71, 74
2, 22136, Note_off_c, 0, 71, 0
2, 22160, Note_on_c, 0, 70, 73
2, 22312, Note_off_c, 0, 70, 0
2, 22340, Note_on_c, 0, 69, 72
2, 22496, Note_off_c, 0, 69, 0
2, 22520, Note_on_c, 0, 68, 71
2, 22676, Note_off_c, 0, 68, 0
2, 22700, Note_on_c, 0, 69, 72
2, 22856, Note_off_c, 0, 69, 0
2, 22880, Note_on_c, 0, 71, 74
2, 23048, Note_off_c, 0, 71, 0
2, 23072, Note_on_c, 0, 72, 76
2, 23424, Note_off_c, 0, 72, 0
2, 23432, Note_on_c, 0, 73, 77
2, 24100, Note_off_c, 0, 73, 0
2, 24156, Note_on_c, 0, 74, 76
2, 24312, Note_off_c, 0, 74, 0
2, 24336, Note_on_c, 0, 76, 78
2, 24504, Note_off_c, 0, 76, 0
2, 24528, Note_on_c, 0, 77, 81
2, 24880, Note_off_c, 0, 77, 0
2, 24888, Note_on_c, 0, 76, 80
2, 25408, Note_off_c, 0, 76, 0
2, 25432, Note_on_c, 0, 69, 72
2, 25588, Note_off_c, 0, 69, 0
2, 25612, Note_on_c, 0, 71, 74
2, 25768, Note_off_c, 0, 71, 0
2, 25792, Note_on_c, 0, 73, 75
2, 25948, Note_off_c, 0, 73, 0
2, 25972, Note_on_c, 0, 74, 79
2, 26464, Note_off_c, 0, 74, 0
2, 26524, Note_on_c, 0, 76, 78
2, 26680, Note_off_c, 0, 76, 0
2, 26704, Note_on_c, 0, 73, 77
2, 27072, Note_off_c, 0, 73, 0
2, 27080, Note_on_c, 0, 77, 81
2, 27440, Note_off_c, 0, 77, 0
2, 27452, Note_on_c, 0, 74, 79
2, 27932, Note_off_c, 0, 74, 0
2, 27992, Note_on_c, 0, 76, 78
2, 28148, Note_off_c, 0, 76, 0
2, 28172, Note_on_c, 0, 69, 73
2, 28536, Note_off_c, 0, 69, 0
2, 28544, Note_on_c, 0, 74, 79
2, 29220, Note_off_c, 0, 74, 0
2, 29280, Note_on_c, 0, 73, 75
2, 29436, Note_off_c, 0, 73, 0
2, 29460, Note_on_c, 0, 72, 74
2, 29808, Note_off_c, 0, 72, 0
2, 29832, Note_on_c, 0, 71, 74
2, 29988, Note_off_c, 0, 71, 0
2, 30012, Note_on_c, 0, 75, 79
2, 30376, Note_off_c, 0, 75, 0
2, 30384, Note_on_c, 0, 72, 77
2, 30868, Note_off_c, 0, 72, 0
2, 30928, Note_on_c, 0, 74, 76
2, 31084, Note_off_c, 0, 74, 0
2, 31108, Note_on_c, 0, 67, 72
2, 31472, Note_off_c, 0, 67, 0
2, 31480, Note_on_c, 0, 72, 77
2, 32156, Note_off_c, 0, 72, 0
2, 32216, Note_on_c, 0, 71, 74
2, 32368, Note_off_c, 0, 71, 0
2, 32396, Note_on_c, 0, 70, 73
2, 32744, Note_off_c, 0, 70, 0
2, 32768, Note_on_c, 0, 69, 72
2, 32924, Note_off_c, 0, 69, 0
2, 32948, Note_on_c, 0, 81, 87
2, 33624, Note_off_c, 0, 81, 0
2, 33680, Note_on_c, 0, 74, 78
2, 34212, Note_off_c, 0, 74, 0
2, 34236, Note_on_c, 0, 76, 78
2, 34392, Note_off_c, 0, 76, 0
2, 34416, Note_on_c, 0, 77, 82
2, 34920, Note_off_c, 0, 77, 0
2, 34980, Note_on_c, 0, 79, 81
2, 35136, Note_off_c, 0, 79, 0
2, 35160, Note_on_c, 0, 81, 86
2, 35676, Note_off_c, 0, 81, 0
2, 35704, Note_on_c, 0, 79, 81
2, 35872, Note_off_c, 0, 79, 0
2, 35896, Note_on_c, 0, 82, 88
2, 36580, Note_off_c, 0, 82, 0
2, 36640, Note_on_c, 0, 81, 83
2, 36796, Note_off_c, 0, 81, 0
2, 36820, Note_on_c, 0, 79, 81
2, 36976, Note_off_c, 0, 79, 0
2, 37000, Note_on_c, 0, 77, 82
2, 37880, Note_off_c, 0, 77, 0
2, 37940, Note_on_c, 0, 76, 78
2, 38096, Note_off_c, 0, 76, 0
2, 38120, Note_on_c, 0, 78, 80
2, 38276, Note_off_c, 0, 78, 0
2, 38300, Note_on_c, 0, 79, 81
2, 38456, Note_off_c, 0, 79, 0
2, 38480, Note_on_c, 0, 81, 86
2, 38828, Note_off_c, 0, 81, 0
2, 38836, Note_on_c, 0, 74, 79
2, 39312, Note_off_c, 0, 74, 0
2, 39372, Note_on_c, 0, 79, 81
2, 39528, Note_off_c, 0, 79, 0
2, 39552, Note_on_c, 0, 73, 75
2, 39708, Note_off_c, 0, 73, 0
2, 39732, Note_on_c, 0, 74, 76
2, 39888, Note_off_c, 0, 74, 0
2, 39912, Note_on_c, 0, 76, 78
2, 40068, Note_off_c, 0, 76, 0
2, 40092, Note_on_c, 0, 77, 79
2, 40244, Note_off_c, 0, 77, 0
2, 40268, Note_on_c, 0, 79, 81
2, 40424, Note_off_c, 0, 79, 0
2, 40448, Note_on_c, 0, 76, 78
2, 40600, Note_off_c, 0, 76, 0
2, 40624, Note_on_c, 0, 77, 82
2, 41540, Note_off_c, 0, 77, 0
2, 41540, Note_on_c, 0, 77, 79
2, 41696, Note_off_c, 0, 77, 0
2, 41720, Note_on_c, 0, 76, 78
2, 41876, Note_off_c, 0, 76, 0
2, 41900, Note_on_c, 0, 74, 76
2, 42056, Note_off_c, 0, 74, 0
2, 42080, Note_on_c, 0, 72, 77
2, 42572, Note_off_c, 0, 72, 0
2, 42632, Note_on_c, 0, 74, 76
2, 42788, Note_off_c, 0, 74, 0
2, 42812, Note_on_c, 0, 76, 80
2, 43164, Note_off_c, 0, 76, 0
2, 61720, Note_on_c, 0, 76, 81
2, 62464, Note_off_c, 0, 76, 0
2, 62464, Note_on_c, 0, 69, 74
2, 63184, Note_off_c, 0, 69, 0
2, 63184, Note_on_c, 0, 72, 77
2, 63908, Note_off_c, 0, 72, 0
2, 63908, Note_on_c, 0, 76, 81
2, 64640, Note_off_c, 0, 76, 0
2, 64640, Note_on_c, 0, 77, 82
2, 65316, Note_off_c, 0, 77, 0
2, 65376, Note_on_c, 0, 76, 80
2, 65740, Note_off_c, 0, 76, 0
2, 65748, Note_on_c, 0, 74, 78
2, 66100, Note_off_c, 0, 74, 0
2, 66108, Note_on_c, 0, 72, 77
2, 66964, Note_off_c, 0, 72, 0
2, 67024, Note_on_c, 0, 69, 72
2, 67180, Note_off_c, 0, 69, 0
2, 67204, Note_on_c, 0, 71, 74
2, 67360, Note_off_c, 0, 71, 0
2, 67384, Note_on_c, 0, 73, 75
2, 67540, Note_off_c, 0, 73, 0
2, 67564, Note_on_c, 0, 74, 76
2, 67732, Note_off_c, 0, 74, 0
2, 67756, Note_on_c, 0, 72, 74
2, 67912, Note_off_c, 0, 72, 0
2, 67936, Note_on_c, 0, 71, 74
2, 68092, Note_off_c, 0, 71, 0
2, 68120, Note_on_c, 0, 69, 72
2, 68272, Note_off_c, 0, 69, 0
2, 68296, Note_on_c, 0, 71, 75
2, 68648, Note_off_c, 0, 71, 0
2, 68660, Note_on_c, 0, 72, 76
2, 69176, Note_off_c, 0, 72, 0
2, 69200, Note_on_c, 0, 71, 74
2, 69356, Note_off_c, 0, 71, 0
2, 69380, Note_on_c, 0, 72, 74
2, 69536, Note_off_c, 0, 72, 0
2, 69560, Note_on_c, 0, 74, 76
2, 69716, Note_off_c, 0, 74, 0
2, 69744, Note_on_c, 0, 76, 78
2, 69908, Note_off_c, 0, 76, 0
2, 69936, Note_on_c, 0, 74, 76
2, 70088, Note_off_c, 0, 74, 0
2, 70116, Note_on_c, 0, 72, 74
2, 70272, Note_off_c, 0, 72, 0
2, 70296, Note_on_c, 0, 70, 73
2, 70452, Note_off_c, 0, 70, 0
2, 70476, Note_on_c, 0, 69, 73
2, 70828, Note_off_c, 0, 69, 0
2, 70836, Note_on_c, 0, 70, 75
2, 71320, Note_off_c, 0, 70, 0
2, 71376, Note_on_c, 0, 69, 72
2, 71536, Note_off_c, 0, 69, 0
2, 71560, Note_on_c, 0, 70, 73
2, 71712, Note_off_c, 0, 70, 0
2, 71740, Note_on_c, 0, 72, 74
2, 71896, Note_off_c, 0, 72, 0
2, 71920, Note_on_c, 0, 74, 76
2, 72088, Note_off_c, 0, 74, 0
2, 72112, Note_on_c, 0, 72, 74
2, 72268, Note_off_c, 0, 72, 0
2, 72292, Note_on_c, 0, 70, 73
2, 72448, Note_off_c, 0, 70, 0
2, 72472, Note_on_c, 0, 68, 71
2, 72628, Note_off_c, 0, 68, 0
2, 72652, Note_on_c, 0, 67, 73
2, 73532, Note_off_c, 0, 67, 0
2, 73556, Note_on_c, 0, 66, 69
2, 73712, Note_off_c, 0, 66, 0
2, 73736, Note_on_c, 0, 67, 70
2, 73892, Note_off_c, 0, 67, 0
2, 73916, Note_on_c, 0, 69, 72
2, 74072, Note_off_c, 0, 69, 0
2, 74096, Note_on_c, 0, 70, 73
2, 74252, Note_off_c, 0, 70, 0
2, 74280, Note_on_c, 0, 69, 72
2, 74432, Note_off_c, 0, 69, 0
2, 74456, Note_on_c, 0, 70, 73
2, 74612, Note_off_c, 0, 70, 0
2, 74640, Note_on_c, 0, 72, 74
2, 74792, Note_off_c, 0, 72, 0
2, 74820, Note_on_c, 0, 74, 76
2, 74976, Note_off_c, 0, 74, 0
2, 75000, Note_on_c, 0, 73, 75
2, 75156, Note_off_c, 0, 73, 0
2, 75180, Note_on_c, 0, 74, 76
2, 75348, Note_off_c, 0, 74, 0
2, 75372, Note_on_c, 0, 76, 78
2, 75528, Note_off_c, 0, 76, 0
2, 75552, Note_on_c, 0, 77, 81
2, 75916, Note_off_c, 0, 77, 0
2, 75924, Note_on_c, 0, 78, 82
2, 76592, Note_off_c, 0, 78, 0
2, 76648, Note_on_c, 0, 79, 81
2, 76804, Note_off_c, 0, 79, 0
2, 76828, Note_on_c, 0, 81, 83
2, 76996, Note_off_c, 0, 81, 0
2, 77020, Note_on_c, 0, 82, 87
2, 77372, Note_off_c, 0, 82, 0
2, 77380, Note_on_c, 0, 81, 86
2, 77908, Note_off_c, 0, 81, 0
2, 77936, Note_on_c, 0, 74, 76
2, 78088, Note_off_c, 0, 74, 0
2, 78116, Note_on_c, 0, 76, 78
2, 78272, Note_off_c, 0, 76, 0
2, 78296, Note_on_c, 0, 78, 80
2, 78448, Note_off_c, 0, 78, 0
2, 78476, Note_on_c, 0, 79, 85
2, 79364, Note_off_c, 0, 79, 0
2, 79388, Note_on_c, 0, 78, 80
2, 79556, Note_off_c, 0, 78, 0
2, 79584, Note_on_c, 0, 79, 81
2, 79736, Note_off_c, 0, 79, 0
2, 79764, Note_on_c, 0, 81, 87
2, 80068, Note_off_c, 0, 81, 0
2, 80124, Note_on_c, 0, 78, 83
2, 80280, Note_off_c, 0, 78, 0
2, 80304, Note_on_c, 0, 79, 83
2, 80656, Note_off_c, 0, 79, 0
2, 83600, Note_on_c, 0, 74, 79
2, 84332, Note_off_c, 0, 74, 0
2, 84332, Note_on_c, 0, 69, 74
2, 84828, Note_off_c, 0, 69, 0
2, 84888, Note_on_c, 0, 71, 74
2, 85040, Note_off_c, 0, 71, 0
2, 85068, Note_on_c, 0, 72, 77
2, 85548, Note_off_c, 0, 72, 0
2, 85608, Note_on_c, 0, 74, 76
2, 85776, Note_off_c, 0, 74, 0
2, 85800, Note_on_c, 0, 76, 81
2, 86280, Note_off_c, 0, 76, 0
2, 86344, Note_on_c, 0, 74, 76
2, 86496, Note_off_c, 0, 74, 0
2, 86524, Note_on_c, 0, 77, 82
2, 87364, Note_off_c, 0, 77, 0
2, 87424, Note_on_c, 0, 76, 81
2, 87732, Note_off_c, 0, 76, 0
2, 87784, Note_on_c, 0, 74, 79
2, 87952, Note_off_c, 0, 74, 0
2, 87980, Note_on_c, 0, 73, 77
2, 88332, Note_off_c, 0, 73, 0
2, 88340, Note_on_c, 0, 72, 77
2, 88832, Note_off_c, 0, 72, 0
2, 88892, Note_on_c, 0, 69, 72
2, 89060, Note_off_c, 0, 69, 0
2, 89084, Note_on_c, 0, 71, 74
2, 89240, Note_off_c, 0, 71, 0
2, 89264, Note_on_c, 0, 73, 75
2, 89420, Note_off_c, 0, 73, 0
2, 89448, Note_on_c, 0, 74, 79
2, 90288, Note_off_c, 0, 74, 0
2, 90348, Note_on_c, 0, 74, 76
2, 90504, Note_off_c, 0, 74, 0
2, 90528, Note_on_c, 0, 76, 78
2, 90684, Note_off_c, 0, 76, 0
2, 90708, Note_on_c, 0, 77, 79
2, 90876, Note_off_c, 0, 77, 0
2, 90904, Note_on_c, 0, 79, 85
2, 91384, Note_off_c, 0, 79, 0
2, 91444, Note_on_c, 0, 78, 80
2, 91600, Note_off_c, 0, 78, 0
2, 91624, Note_on_c, 0, 79, 85
2, 92116, Note_off_c, 0, 79, 0
2, 92176, Note_on_c, 0, 80, 82
2, 92332, Note_off_c, 0, 80, 0
2, 92356, Note_on_c, 0, 81, 87
2, 93212, Note_off_c, 0, 81, 0
2, 93272, Note_on_c, 0, 81, 83
2, 93428, Note_off_c, 0, 81, 0
2, 93452, Note_on_c, 0, 79, 81
2, 93608, Note_off_c, 0, 79, 0
2, 93632, Note_on_c, 0, 77, 79
2, 93788, Note_off_c, 0, 77, 0
2, 93812, Note_on_c, 0, 79, 83
2, 94128, Note_off_c, 0, 79, 0
2, 94184, Note_on_c, 0, 77, 79
2, 94340, Note_off_c, 0, 77, 0
2, 94368, Note_on_c, 0, 76, 78
2, 94520, Note_off_c, 0, 76, 0
2, 94548, Note_on_c, 0, 74, 76
2, 94704, Note_off_c, 0, 74, 0
2, 94728, Note_on_c, 0, 73, 75
2, 94880, Note_off_c, 0, 73, 0
2, 94908, Note_on_c, 0, 74, 76
2, 95064, Note_off_c, 0, 74, 0
2, 95088, Note_on_c, 0, 76, 78
2, 95244, Note_off_c, 0, 76, 0
2, 95268, Note_on_c, 0, 77, 79
2, 95436, Note_off_c, 0, 77, 0
2, 95460, Note_on_c, 0, 79, 81
2, 95616, Note_off_c, 0, 79, 0
2, 95640, Note_on_c, 0, 77, 79
2, 95796, Note_off_c, 0, 77, 0
2, 95824, Note_on_c, 0, 76, 78
2, 95976, Note_off_c, 0, 76, 0
2, 96000, Note_on_c, 0, 77, 79
2, 96168, Note_off_c, 0, 77, 0
2, 96192, Note_on_c, 0, 79, 81
2, 96352, Note_off_c, 0, 79, 0
2, 96376, Note_on_c, 0, 81, 86
2, 96728, Note_off_c, 0, 81, 0
2, 96736, Note_on_c, 0, 72, 77
2, 97592, Note_off_c, 0, 72, 0
2, 97648, Note_on_c, 0, 66, 69
2, 97804, Note_off_c, 0, 66, 0
2, 97832, Note_on_c, 0, 67, 70
2, 97984, Note_off_c, 0, 67, 0
2, 98012, Note_on_c, 0, 69, 72
2, 98168, Note_off_c, 0, 69, 0
2, 98192, Note_on_c, 0, 70, 75
2, 98936, Note_off_c, 0, 70, 0
2, 98936, Note_on_c, 0, 69, 74
2, 99824, Note_off_c, 0, 69, 0
2, 99852, Note_on_c, 0, 66, 69
2, 100008, Note_off_c, 0, 66, 0
2, 100032, Note_on_c, 0, 67, 73
2, 100512, Note_off_c, 0, 67, 0
2, 100572, Note_on_c, 0, 67, 70
2, 100728, Note_off_c, 0, 67, 0
2, 100752, Note_on_c, 0, 66, 69
2, 100908, Note_off_c, 0, 66, 0
2, 100936, Note_on_c, 0, 64, 67
2, 101088, Note_off_c, 0, 64, 0
2, 101116, Note_on_c, 0, 66, 69
2, 101272, Note_off_c, 0, 66, 0
2, 101296, Note_on_c, 0, 67, 70
2, 101448, Note_off_c, 0, 67, 0
2, 101476, Note_on_c, 0, 69, 73
2, 101840, Note_off_c, 0, 69, 0
2, 101848, Note_on_c, 0, 62, 68
2, 103112, Note_off_c, 0, 62, 0
2, 103112, Note_on_c, 0, 61, 65
2, 103268, Note_off_c, 0, 61, 0
2, 103292, Note_on_c, 0, 62, 66
2, 103460, Note_off_c, 0, 62, 0
2, 104024, Note_on_c, 0, 62, 68
2, 105912, Note_off_c, 0, 62, 64
2, 105912, End_track
3, 0, Start_track
3, 0, Title_t, "J.S. Bach's KDF"
3, 0, Control_c, 1, 0, 0
3, 0, Program_c, 1, 0
3, 0, Key_signature, 0, "major"
3, 0, Control_c, 1, 7, 125
3, 6128, Note_on_c, 1, 69, 74
3, 6888, Note_off_c, 1, 69, 0
3, 6888, Note_on_c, 1, 62, 68
3, 7648, Note_off_c, 1, 62, 0
3, 7648, Note_on_c, 1, 65, 71
3, 8372, Note_off_c, 1, 65, 0
3, 8372, Note_on_c, 1, 69, 74
3, 9132, Note_off_c, 1, 69, 0
3, 9132, Note_on_c, 1, 70, 75
3, 9832, Note_off_c, 1, 70, 0
3, 9892, Note_on_c, 1, 69, 73
3, 10264, Note_off_c, 1, 69, 0
3, 10272, Note_on_c, 1, 67, 72
3, 10644, Note_off_c, 1, 67, 0
3, 10656, Note_on_c, 1, 65, 71
3, 11496, Note_off_c, 1, 65, 0
3, 11556, Note_on_c, 1, 64, 67
3, 11712, Note_off_c, 1, 64, 0
3, 11736, Note_on_c, 1, 65, 68
3, 11892, Note_off_c, 1, 65, 0
3, 11916, Note_on_c, 1, 67, 70
3, 12072, Note_off_c, 1, 67, 0
3, 12096, Note_on_c, 1, 69, 73
3, 12448, Note_off_c, 1, 69, 0
3, 12460, Note_on_c, 1, 67, 73
3, 13160, Note_off_c, 1, 67, 0
3, 13220, Note_on_c, 1, 66, 69
3, 13376, Note_off_c, 1, 66, 0
3, 13400, Note_on_c, 1, 65, 68
3, 13556, Note_off_c, 1, 65, 0
3, 13580, Note_on_c, 1, 64, 67
3, 13736, Note_off_c, 1, 64, 0
3, 13760, Note_on_c, 1, 63, 67
3, 13920, Note_off_c, 1, 63, 0
3, 13944, Note_on_c, 1, 64, 67
3, 14096, Note_off_c, 1, 64, 0
3, 14124, Note_on_c, 1, 66, 69
3, 14280, Note_off_c, 1, 66, 0
3, 14304, Note_on_c, 1, 67, 72
3, 14656, Note_off_c, 1, 67, 0
3, 14664, Note_on_c, 1, 68, 73
3, 15340, Note_off_c, 1, 68, 0
3, 15400, Note_on_c, 1, 69, 72
3, 15552, Note_off_c, 1, 69, 0
3, 15580, Note_on_c, 1, 71, 74
3, 15736, Note_off_c, 1, 71, 0
3, 15760, Note_on_c, 1, 72, 76
3, 16112, Note_off_c, 1, 72, 0
3, 16120, Note_on_c, 1, 71, 75
3, 16608, Note_off_c, 1, 71, 0
3, 16664, Note_on_c, 1, 64, 67
3, 16816, Note_off_c, 1, 64, 0
3, 16840, Note_on_c, 1, 65, 68
3, 16996, Note_off_c, 1, 65, 0
3, 17024, Note_on_c, 1, 67, 70
3, 17192, Note_off_c, 1, 67, 0
3, 17216, Note_on_c, 1, 69, 73
3, 17580, Note_off_c, 1, 69, 0
3, 17588, Note_on_c, 1, 67, 72
3, 18128, Note_off_c, 1, 67, 0
3, 18152, Note_on_c, 1, 66, 69
3, 18308, Note_off_c, 1, 66, 0
3, 18332, Note_on_c, 1, 67, 70
3, 18488, Note_off_c, 1, 67, 0
3, 18512, Note_on_c, 1, 69, 72
3, 18668, Note_off_c, 1, 69, 0
3, 18696, Note_on_c, 1, 70, 74
3, 19048, Note_off_c, 1, 70, 0
3, 19056, Note_on_c, 1, 69, 73
3, 19408, Note_off_c, 1, 69, 0
3, 19416, Note_on_c, 1, 67, 73
3, 20280, Note_off_c, 1, 67, 0
3, 20344, Note_on_c, 1, 64, 67
3, 20496, Note_off_c, 1, 64, 0
3, 20524, Note_on_c, 1, 65, 68
3, 20676, Note_off_c, 1, 65, 0
3, 20704, Note_on_c, 1, 67, 70
3, 20856, Note_off_c, 1, 67, 0
3, 20884, Note_on_c, 1, 69, 74
3, 21364, Note_off_c, 1, 69, 0
3, 21424, Note_on_c, 1, 67, 70
3, 21580, Note_off_c, 1, 67, 0
3, 21604, Note_on_c, 1, 66, 69
3, 21760, Note_off_c, 1, 66, 0
3, 21784, Note_on_c, 1, 64, 67
3, 21952, Note_off_c, 1, 64, 0
3, 21976, Note_on_c, 1, 65, 70
3, 23192, Note_off_c, 1, 65, 0
3, 23252, Note_on_c, 1, 69, 72
3, 23408, Note_off_c, 1, 69, 0
3, 23432, Note_on_c, 1, 67, 70
3, 23588, Note_off_c, 1, 67, 0
3, 23616, Note_on_c, 1, 65, 68
3, 23768, Note_off_c, 1, 65, 0
3, 23796, Note_on_c, 1, 67, 70
3, 23952, Note_off_c, 1, 67, 0
3, 23976, Note_on_c, 1, 64, 67
3, 24132, Note_off_c, 1, 64, 0
3, 24156, Note_on_c, 1, 65, 68
3, 24312, Note_off_c, 1, 65, 0
3, 24336, Note_on_c, 1, 67, 70
3, 24504, Note_off_c, 1, 67, 0
3, 24528, Note_on_c, 1, 69, 74
3, 25408, Note_off_c, 1, 69, 0
3, 25432, Note_on_c, 1, 61, 65
3, 25588, Note_off_c, 1, 61, 0
3, 25612, Note_on_c, 1, 62, 66
3, 25768, Note_off_c, 1, 62, 0
3, 25792, Note_on_c, 1, 64, 67
3, 25948, Note_off_c, 1, 64, 0
3, 25972, Note_on_c, 1, 65, 68
3, 26140, Note_off_c, 1, 65, 0
3, 26164, Note_on_c, 1, 67, 70
3, 26320, Note_off_c, 1, 67, 0
3, 26344, Note_on_c, 1, 69, 72
3, 26500, Note_off_c, 1, 69, 0
3, 26524, Note_on_c, 1, 70, 73
3, 26680, Note_off_c, 1, 70, 0
3, 26704, Note_on_c, 1, 64, 69
3, 27072, Note_off_c, 1, 64, 0
3, 27080, Note_on_c, 1, 69, 74
3, 27752, Note_off_c, 1, 69, 0
3, 27812, Note_on_c, 1, 68, 71
3, 27968, Note_off_c, 1, 68, 0
3, 27992, Note_on_c, 1, 67, 70
3, 28340, Note_off_c, 1, 67, 0
3, 28364, Note_on_c, 1, 66, 69
3, 28520, Note_off_c, 1, 66, 0
3, 28544, Note_on_c, 1, 70, 74
3, 28912, Note_off_c, 1, 70, 0
3, 28920, Note_on_c, 1, 67, 73
3, 29400, Note_off_c, 1, 67, 0
3, 29460, Note_on_c, 1, 69, 72
3, 29616, Note_off_c, 1, 69, 0
3, 29640, Note_on_c, 1, 62, 67
3, 30004, Note_off_c, 1, 62, 0
3, 30012, Note_on_c, 1, 67, 73
3, 30688, Note_off_c, 1, 67, 0
3, 30748, Note_on_c, 1, 66, 69
3, 30904, Note_off_c, 1, 66, 0
3, 30928, Note_on_c, 1, 65, 68
3, 31276, Note_off_c, 1, 65, 0
3, 31300, Note_on_c, 1, 64, 67
3, 31456, Note_off_c, 1, 64, 0
3, 31480, Note_on_c, 1, 70, 74
3, 31844, Note_off_c, 1, 70, 0
3, 31852, Note_on_c, 1, 65, 71
3, 32336, Note_off_c, 1, 65, 0
3, 32396, Note_on_c, 1, 67, 70
3, 32552, Note_off_c, 1, 67, 0
3, 32576, Note_on_c, 1, 60, 66
3, 32940, Note_off_c, 1, 60, 0
3, 32948, Note_on_c, 1, 72, 77
3, 33624, Note_off_c, 1, 72, 0
3, 33680, Note_on_c, 1, 71, 74
3, 33848, Note_off_c, 1, 71, 0
3, 33872, Note_on_c, 1, 70, 73
3, 34032, Note_off_c, 1, 70, 0
3, 34056, Note_on_c, 1, 69, 72
3, 34212, Note_off_c, 1, 69, 0
3, 34236, Note_on_c, 1, 68, 71
3, 34392, Note_off_c, 1, 68, 0
3, 34416, Note_on_c, 1, 69, 72
3, 34584, Note_off_c, 1, 69, 0
3, 34608, Note_on_c, 1, 71, 74
3, 34764, Note_off_c, 1, 71, 0
3, 34788, Note_on_c, 1, 72, 76
3, 35152, Note_off_c, 1, 72, 0
3, 35160, Note_on_c, 1, 73, 77
3, 35840, Note_off_c, 1, 73, 0
3, 35896, Note_on_c, 1, 74, 76
3, 36052, Note_off_c, 1, 74, 0
3, 36076, Note_on_c, 1, 76, 78
3, 36232, Note_off_c, 1, 76, 0
3, 36256, Note_on_c, 1, 77, 79
3, 36424, Note_off_c, 1, 77, 0
3, 36448, Note_on_c, 1, 74, 76
3, 36616, Note_off_c, 1, 74, 0
3, 36640, Note_on_c, 1, 76, 80
3, 37168, Note_off_c, 1, 76, 0
3, 37192, Note_on_c, 1, 69, 72
3, 37348, Note_off_c, 1, 69, 0
3, 37376, Note_on_c, 1, 71, 74
3, 37540, Note_off_c, 1, 71, 0
3, 37568, Note_on_c, 1, 73, 75
3, 37720, Note_off_c, 1, 73, 0
3, 37748, Note_on_c, 1, 74, 79
3, 38632, Note_off_c, 1, 74, 0
3, 38660, Note_on_c, 1, 72, 74
3, 38812, Note_off_c, 1, 72, 0
3, 38836, Note_on_c, 1, 70, 73
3, 38988, Note_off_c, 1, 70, 0
3, 39016, Note_on_c, 1, 69, 72
3, 39168, Note_off_c, 1, 69, 0
3, 39192, Note_on_c, 1, 70, 75
3, 40260, Note_off_c, 1, 70, 0
3, 40268, Note_on_c, 1, 69, 74
3, 40744, Note_off_c, 1, 69, 0
3, 40808, Note_on_c, 1, 74, 76
3, 40936, Note_off_c, 1, 74, 0
3, 40988, Note_on_c, 1, 68, 71
3, 41144, Note_off_c, 1, 68, 0
3, 41168, Note_on_c, 1, 69, 72
3, 41320, Note_off_c, 1, 69, 0
3, 41348, Note_on_c, 1, 71, 76
3, 42212, Note_off_c, 1, 71, 0
3, 42272, Note_on_c, 1, 69, 73
3, 42348, Note_off_c, 1, 69, 0
3, 42360, Note_on_c, 1, 67, 71
3, 42436, Note_off_c, 1, 67, 0
3, 42452, Note_on_c, 1, 66, 69
3, 42608, Note_off_c, 1, 66, 0
3, 42632, Note_on_c, 1, 65, 68
3, 42788, Note_off_c, 1, 65, 0
3, 42812, Note_on_c, 1, 64, 67
3, 42968, Note_off_c, 1, 64, 0
3, 42992, Note_on_c, 1, 63, 67
3, 43148, Note_off_c, 1, 63, 0
3, 43172, Note_on_c, 1, 64, 67
3, 43340, Note_off_c, 1, 64, 0
3, 43364, Note_on_c, 1, 66, 69
3, 43520, Note_off_c, 1, 66, 0
3, 43544, Note_on_c, 1, 67, 72
3, 43896, Note_off_c, 1, 67, 0
3, 43908, Note_on_c, 1, 68, 73
3, 44584, Note_off_c, 1, 68, 0
3, 44640, Note_on_c, 1, 69, 72
3, 44796, Note_off_c, 1, 69, 0
3, 44820, Note_on_c, 1, 71, 74
3, 44976, Note_off_c, 1, 71, 0
3, 45000, Note_on_c, 1, 72, 74
3, 45168, Note_off_c, 1, 72, 0
3, 45192, Note_on_c, 1, 69, 72
3, 45360, Note_off_c, 1, 69, 0
3, 45384, Note_on_c, 1, 71, 75
3, 45904, Note_off_c, 1, 71, 0
3, 45928, Note_on_c, 1, 64, 67
3, 46084, Note_off_c, 1, 64, 0
3, 46108, Note_on_c, 1, 66, 69
3, 46264, Note_off_c, 1, 66, 0
3, 46288, Note_on_c, 1, 68, 71
3, 46444, Note_off_c, 1, 68, 0
3, 46468, Note_on_c, 1, 69, 74
3, 47344, Note_off_c, 1, 69, 0
3, 47372, Note_on_c, 1, 70, 73
3, 47528, Note_off_c, 1, 70, 0
3, 47552, Note_on_c, 1, 69, 72
3, 47708, Note_off_c, 1, 69, 0
3, 47732, Note_on_c, 1, 67, 70
3, 47888, Note_off_c, 1, 67, 0
3, 47912, Note_on_c, 1, 66, 71
3, 48264, Note_off_c, 1, 66, 0
3, 48272, Note_on_c, 1, 65, 70
3, 48792, Note_off_c, 1, 65, 0
3, 48816, Note_on_c, 1, 69, 72
3, 48972, Note_off_c, 1, 69, 0
3, 48996, Note_on_c, 1, 67, 70
3, 49152, Note_off_c, 1, 67, 0
3, 49176, Note_on_c, 1, 65, 68
3, 49332, Note_off_c, 1, 65, 0
3, 49356, Note_on_c, 1, 64, 69
3, 49708, Note_off_c, 1, 64, 0
3, 49716, Note_on_c, 1, 63, 68
3, 50232, Note_off_c, 1, 63, 0
3, 50260, Note_on_c, 1, 67, 70
3, 50416, Note_off_c, 1, 67, 0
3, 50440, Note_on_c, 1, 65, 68
3, 50596, Note_off_c, 1, 65, 0
3, 50620, Note_on_c, 1, 63, 67
3, 50776, Note_off_c, 1, 63, 0
3, 50800, Note_on_c, 1, 62, 68
3, 51280, Note_off_c, 1, 62, 0
3, 51340, Note_on_c, 1, 64, 67
3, 51496, Note_off_c, 1, 64, 0
3, 51520, Note_on_c, 1, 65, 68
3, 51680, Note_off_c, 1, 65, 0
3, 51704, Note_on_c, 1, 64, 67
3, 51856, Note_off_c, 1, 64, 0
3, 51884, Note_on_c, 1, 65, 68
3, 52040, Note_off_c, 1, 65, 0
3, 52064, Note_on_c, 1, 67, 70
3, 52220, Note_off_c, 1, 67, 0
3, 52244, Note_on_c, 1, 69, 72
3, 52412, Note_off_c, 1, 69, 0
3, 52436, Note_on_c, 1, 67, 70
3, 52592, Note_off_c, 1, 67, 0
3, 52616, Note_on_c, 1, 69, 73
3, 53144, Note_off_c, 1, 69, 0
3, 53168, Note_on_c, 1, 67, 70
3, 53328, Note_off_c, 1, 67, 0
3, 53352, Note_on_c, 1, 70, 73
3, 53520, Note_off_c, 1, 70, 0
3, 53544, Note_on_c, 1, 69, 72
3, 53700, Note_off_c, 1, 69, 0
3, 53724, Note_on_c, 1, 67, 70
3, 53880, Note_off_c, 1, 67, 0
3, 53904, Note_on_c, 1, 65, 68
3, 54060, Note_off_c, 1, 65, 0
3, 54084, Note_on_c, 1, 67, 72
3, 54600, Note_off_c, 1, 67, 0
3, 54624, Note_on_c, 1, 60, 64
3, 54780, Note_off_c, 1, 60, 0
3, 54808, Note_on_c, 1, 62, 66
3, 54960, Note_off_c, 1, 62, 0
3, 54988, Note_on_c, 1, 64, 67
3, 55144, Note_off_c, 1, 64, 0
3, 55168, Note_on_c, 1, 65, 68
3, 55336, Note_off_c, 1, 65, 0
3, 55360, Note_on_c, 1, 64, 67
3, 55516, Note_off_c, 1, 64, 0
3, 55540, Note_on_c, 1, 65, 70
3, 56068, Note_off_c, 1, 65, 0
3, 56092, Note_on_c, 1, 64, 68
3, 56168, Note_off_c, 1, 64, 0
3, 56184, Note_on_c, 1, 62, 67
3, 56256, Note_off_c, 1, 62, 0
3, 56272, Note_on_c, 1, 64, 69
3, 56636, Note_off_c, 1, 64, 0
3, 56644, Note_on_c, 1, 65, 71
3, 57124, Note_off_c, 1, 65, 0
3, 57184, Note_on_c, 1, 67, 70
3, 57340, Note_off_c, 1, 67, 0
3, 57368, Note_on_c, 1, 60, 66
3, 57716, Note_off_c, 1, 60, 0
3, 57728, Note_on_c, 1, 69, 74
3, 58388, Note_off_c, 1, 69, 0
3, 58448, Note_on_c, 1, 68, 71
3, 58604, Note_off_c, 1, 68, 0
3, 58628, Note_on_c, 1, 67, 70
3, 58952, Note_off_c, 1, 67, 0
3, 59000, Note_on_c, 1, 66, 70
3, 59076, Note_off_c, 1, 66, 0
3, 59092, Note_on_c, 1, 64, 68
3, 59168, Note_off_c, 1, 64, 0
3, 59180, Note_on_c, 1, 66, 71
3, 59544, Note_off_c, 1, 66, 0
3, 59552, Note_on_c, 1, 67, 73
3, 60032, Note_off_c, 1, 67, 0
3, 60096, Note_on_c, 1, 69, 72
3, 60248, Note_off_c, 1, 69, 0
3, 60272, Note_on_c, 1, 62, 67
3, 60628, Note_off_c, 1, 62, 0
3, 60636, Note_on_c, 1, 71, 76
3, 61296, Note_off_c, 1, 71, 0
3, 61356, Note_on_c, 1, 70, 73
3, 61512, Note_off_c, 1, 70, 0
3, 61536, Note_on_c, 1, 69, 72
3, 61884, Note_off_c, 1, 69, 0
3, 61912, Note_on_c, 1, 68, 71
3, 62064, Note_off_c, 1, 68, 0
3, 62092, Note_on_c, 1, 67, 73
3, 62764, Note_off_c, 1, 67, 0
3, 62824, Note_on_c, 1, 66, 69
3, 62980, Note_off_c, 1, 66, 0
3, 63004, Note_on_c, 1, 65, 68
3, 63160, Note_off_c, 1, 65, 0
3, 63184, Note_on_c, 1, 64, 67
3, 63340, Note_off_c, 1, 64, 0
3, 63368, Note_on_c, 1, 63, 67
3, 63520, Note_off_c, 1, 63, 0
3, 63548, Note_on_c, 1, 64, 67
3, 63704, Note_off_c, 1, 64, 0
3, 63728, Note_on_c, 1, 66, 69
3, 63884, Note_off_c, 1, 66, 0
3, 63908, Note_on_c, 1, 67, 72
3, 64260, Note_off_c, 1, 67, 0
3, 64268, Note_on_c, 1, 68, 73
3, 64956, Note_off_c, 1, 68, 0
3, 65016, Note_on_c, 1, 69, 72
3, 65168, Note_off_c, 1, 69, 0
3, 65196, Note_on_c, 1, 71, 74
3, 65352, Note_off_c, 1, 71, 0
3, 65376, Note_on_c, 1, 72, 76
3, 65740, Note_off_c, 1, 72, 0
3, 65748, Note_on_c, 1, 71, 75
3, 66248, Note_off_c, 1, 71, 0
3, 66300, Note_on_c, 1, 64, 67
3, 66456, Note_off_c, 1, 64, 0
3, 66480, Note_on_c, 1, 66, 69
3, 66636, Note_off_c, 1, 66, 0
3, 66660, Note_on_c, 1, 68, 71
3, 66816, Note_off_c, 1, 68, 0
3, 66840, Note_on_c, 1, 69, 72
3, 67000, Note_off_c, 1, 69, 0
3, 67024, Note_on_c, 1, 67, 70
3, 67180, Note_off_c, 1, 67, 0
3, 67204, Note_on_c, 1, 65, 68
3, 67360, Note_off_c, 1, 65, 0
3, 67384, Note_on_c, 1, 64, 67
3, 67540, Note_off_c, 1, 64, 0
3, 67564, Note_on_c, 1, 65, 68
3, 67732, Note_off_c, 1, 65, 0
3, 67756, Note_on_c, 1, 66, 69
3, 67912, Note_off_c, 1, 66, 0
3, 67936, Note_on_c, 1, 67, 70
3, 68092, Note_off_c, 1, 67, 0
3, 68120, Note_on_c, 1, 69, 73
3, 68424, Note_off_c, 1, 69, 0
3, 68480, Note_on_c, 1, 67, 70
3, 68632, Note_off_c, 1, 67, 0
3, 68660, Note_on_c, 1, 65, 68
3, 68816, Note_off_c, 1, 65, 0
3, 68840, Note_on_c, 1, 64, 67
3, 68996, Note_off_c, 1, 64, 0
3, 69020, Note_on_c, 1, 62, 66
3, 69148, Note_off_c, 1, 62, 0
3, 69200, Note_on_c, 1, 67, 70
3, 69356, Note_off_c, 1, 67, 0
3, 69380, Note_on_c, 1, 69, 72
3, 69536, Note_off_c, 1, 69, 0
3, 69560, Note_on_c, 1, 71, 74
3, 69716, Note_off_c, 1, 71, 0
3, 69744, Note_on_c, 1, 72, 74
3, 69884, Note_off_c, 1, 72, 0
3, 69936, Note_on_c, 1, 64, 67
3, 70088, Note_off_c, 1, 64, 0
3, 70116, Note_on_c, 1, 65, 68
3, 70272, Note_off_c, 1, 65, 0
3, 70296, Note_on_c, 1, 67, 70
3, 70632, Note_off_c, 1, 67, 0
3, 70656, Note_on_c, 1, 65, 68
3, 70812, Note_off_c, 1, 65, 0
3, 70836, Note_on_c, 1, 63, 67
3, 70992, Note_off_c, 1, 63, 0
3, 71016, Note_on_c, 1, 62, 66
3, 71172, Note_off_c, 1, 62, 0
3, 71196, Note_on_c, 1, 60, 64
3, 71328, Note_off_c, 1, 60, 0
3, 71376, Note_on_c, 1, 65, 68
3, 71536, Note_off_c, 1, 65, 0
3, 71560, Note_on_c, 1, 67, 70
3, 71712, Note_off_c, 1, 67, 0
3, 71740, Note_on_c, 1, 69, 72
3, 71896, Note_off_c, 1, 69, 0
3, 71920, Note_on_c, 1, 70, 73
3, 72060, Note_off_c, 1, 70, 0
3, 72112, Note_on_c, 1, 62, 66
3, 72268, Note_off_c, 1, 62, 0
3, 72292, Note_on_c, 1, 63, 67
3, 72448, Note_off_c, 1, 63, 0
3, 72472, Note_on_c, 1, 65, 68
3, 72600, Note_off_c, 1, 65, 0
3, 72652, Note_on_c, 1, 58, 63
3, 72808, Note_off_c, 1, 58, 0
3, 72832, Note_on_c, 1, 59, 63
3, 72988, Note_off_c, 1, 59, 0
3, 73016, Note_on_c, 1, 60, 64
3, 73168, Note_off_c, 1, 60, 0
3, 73196, Note_on_c, 1, 62, 66
3, 73352, Note_off_c, 1, 62, 0
3, 73376, Note_on_c, 1, 63, 67
3, 73532, Note_off_c, 1, 63, 0
3, 73556, Note_on_c, 1, 62, 66
3, 73712, Note_off_c, 1, 62, 0
3, 73736, Note_on_c, 1, 60, 64
3, 73892, Note_off_c, 1, 60, 0
3, 73916, Note_on_c, 1, 63, 67
3, 74072, Note_off_c, 1, 63, 0
3, 74096, Note_on_c, 1, 62, 66
3, 74252, Note_off_c, 1, 62, 0
3, 74280, Note_on_c, 1, 66, 69
3, 74432, Note_off_c, 1, 66, 0
3, 74456, Note_on_c, 1, 67, 72
3, 74976, Note_off_c, 1, 67, 0
3, 75000, Note_on_c, 1, 69, 72
3, 75156, Note_off_c, 1, 69, 0
3, 75180, Note_on_c, 1, 70, 75
3, 75672, Note_off_c, 1, 70, 0
3, 75732, Note_on_c, 1, 74, 76
3, 75900, Note_off_c, 1, 74, 0
3, 75924, Note_on_c, 1, 72, 74
3, 76080, Note_off_c, 1, 72, 0
3, 76104, Note_on_c, 1, 70, 73
3, 76260, Note_off_c, 1, 70, 0
3, 76288, Note_on_c, 1, 72, 74
3, 76440, Note_off_c, 1, 72, 0
3, 76468, Note_on_c, 1, 69, 72
3, 76624, Note_off_c, 1, 69, 0
3, 76648, Note_on_c, 1, 70, 73
3, 76804, Note_off_c, 1, 70, 0
3, 76828, Note_on_c, 1, 72, 74
3, 76996, Note_off_c, 1, 72, 0
3, 77020, Note_on_c, 1, 74, 79
3, 78608, Note_off_c, 1, 74, 0
3, 78668, Note_on_c, 1, 73, 75
3, 78824, Note_off_c, 1, 73, 0
3, 78848, Note_on_c, 1, 74, 76
3, 79004, Note_off_c, 1, 74, 0
3, 79028, Note_on_c, 1, 76, 78
3, 79184, Note_off_c, 1, 76, 0
3, 79208, Note_on_c, 1, 69, 74
3, 79884, Note_off_c, 1, 69, 0
3, 79944, Note_on_c, 1, 62, 68
3, 80424, Note_off_c, 1, 62, 0
3, 80484, Note_on_c, 1, 64, 67
3, 80640, Note_off_c, 1, 64, 0
3, 80664, Note_on_c, 1, 65, 71
3, 81148, Note_off_c, 1, 65, 0
3, 81208, Note_on_c, 1, 67, 70
3, 81376, Note_off_c, 1, 67, 0
3, 81400, Note_on_c, 1, 69, 74
3, 81892, Note_off_c, 1, 69, 0
3, 81952, Note_on_c, 1, 67, 70
3, 82108, Note_off_c, 1, 67, 0
3, 82132, Note_on_c, 1, 70, 75
3, 83000, Note_off_c, 1, 70, 0
3, 83056, Note_on_c, 1, 69, 74
3, 83364, Note_off_c, 1, 69, 0
3, 83420, Note_on_c, 1, 67, 73
3, 83576, Note_off_c, 1, 67, 0
3, 83600, Note_on_c, 1, 65, 71
3, 84456, Note_off_c, 1, 65, 0
3, 84512, Note_on_c, 1, 64, 67
3, 84668, Note_off_c, 1, 64, 0
3, 84696, Note_on_c, 1, 66, 69
3, 84860, Note_off_c, 1, 66, 0
3, 84888, Note_on_c, 1, 68, 71
3, 85040, Note_off_c, 1, 68, 0
3, 85068, Note_on_c, 1, 69, 72
3, 85224, Note_off_c, 1, 69, 0
3, 85248, Note_on_c, 1, 71, 74
3, 85404, Note_off_c, 1, 71, 0
3, 85428, Note_on_c, 1, 72, 76
3, 85744, Note_off_c, 1, 72, 0
3, 85800, Note_on_c, 1, 71, 74
3, 85956, Note_off_c, 1, 71, 0
3, 85980, Note_on_c, 1, 73, 75
3, 86136, Note_off_c, 1, 73, 0
3, 86160, Note_on_c, 1, 74, 78
3, 86464, Note_off_c, 1, 74, 0
3, 86524, Note_on_c, 1, 73, 75
3, 86680, Note_off_c, 1, 73, 0
3, 86704, Note_on_c, 1, 72, 74
3, 86860, Note_off_c, 1, 72, 0
3, 86884, Note_on_c, 1, 70, 73
3, 87040, Note_off_c, 1, 70, 0
3, 87064, Note_on_c, 1, 69, 72
3, 87220, Note_off_c, 1, 69, 0
3, 87244, Note_on_c, 1, 70, 74
3, 87596, Note_off_c, 1, 70, 0
3, 87604, Note_on_c, 1, 71, 75
3, 87920, Note_off_c, 1, 71, 0
3, 87980, Note_on_c, 1, 69, 72
3, 88136, Note_off_c, 1, 69, 0
3, 88160, Note_on_c, 1, 67, 70
3, 88316, Note_off_c, 1, 67, 0
3, 88340, Note_on_c, 1, 66, 69
3, 88496, Note_off_c, 1, 66, 0
3, 88520, Note_on_c, 1, 69, 72
3, 88676, Note_off_c, 1, 69, 0
3, 88700, Note_on_c, 1, 62, 68
3, 89600, Note_off_c, 1, 62, 0
3, 89624, Note_on_c, 1, 66, 69
3, 89784, Note_off_c, 1, 66, 0
3, 89808, Note_on_c, 1, 67, 70
3, 89964, Note_off_c, 1, 67, 0
3, 89988, Note_on_c, 1, 69, 72
3, 90144, Note_off_c, 1, 69, 0
3, 90168, Note_on_c, 1, 70, 73
3, 90324, Note_off_c, 1, 70, 0
3, 90348, Note_on_c, 1, 71, 74
3, 90504, Note_off_c, 1, 71, 0
3, 90528, Note_on_c, 1, 73, 75
3, 90684, Note_off_c, 1, 73, 0
3, 90708, Note_on_c, 1, 74, 76
3, 90876, Note_off_c, 1, 74, 0
3, 90904, Note_on_c, 1, 76, 78
3, 91056, Note_off_c, 1, 76, 0
3, 91080, Note_on_c, 1, 74, 76
3, 91236, Note_off_c, 1, 74, 0
3, 91264, Note_on_c, 1, 75, 77
3, 91392, Note_off_c, 1, 75, 0
3, 91444, Note_on_c, 1, 69, 72
3, 91600, Note_off_c, 1, 69, 0
3, 91624, Note_on_c, 1, 70, 73
3, 91780, Note_off_c, 1, 70, 0
3, 91804, Note_on_c, 1, 72, 74
3, 91972, Note_off_c, 1, 72, 0
3, 91996, Note_on_c, 1, 74, 78
3, 92660, Note_off_c, 1, 74, 0
3, 92720, Note_on_c, 1, 72, 74
3, 92872, Note_off_c, 1, 72, 0
3, 92900, Note_on_c, 1, 71, 74
3, 93056, Note_off_c, 1, 71, 0
3, 93080, Note_on_c, 1, 69, 73
3, 93396, Note_off_c, 1, 69, 0
3, 93452, Note_on_c, 1, 76, 80
3, 93992, Note_off_c, 1, 76, 0
3, 93992, Note_on_c, 1, 76, 78
3, 94160, Note_off_c, 1, 76, 0
3, 94184, Note_on_c, 1, 74, 76
3, 94340, Note_off_c, 1, 74, 0
3, 94368, Note_on_c, 1, 73, 75
3, 94520, Note_off_c, 1, 73, 0
3, 94548, Note_on_c, 1, 74, 76
3, 94676, Note_off_c, 1, 74, 0
3, 94728, Note_on_c, 1, 69, 72
3, 94880, Note_off_c, 1, 69, 0
3, 94908, Note_on_c, 1, 70, 73
3, 95064, Note_off_c, 1, 70, 0
3, 95088, Note_on_c, 1, 67, 70
3, 95244, Note_off_c, 1, 67, 0
3, 95268, Note_on_c, 1, 69, 74
3, 96136, Note_off_c, 1, 69, 0
3, 96192, Note_on_c, 1, 70, 73
3, 96352, Note_off_c, 1, 70, 0
3, 96376, Note_on_c, 1, 69, 72
3, 96532, Note_off_c, 1, 69, 0
3, 96556, Note_on_c, 1, 67, 70
3, 96712, Note_off_c, 1, 67, 0
3, 96736, Note_on_c, 1, 66, 69
3, 96904, Note_off_c, 1, 66, 0
3, 96928, Note_on_c, 1, 67, 70
3, 97084, Note_off_c, 1, 67, 0
3, 97108, Note_on_c, 1, 69, 73
3, 97460, Note_off_c, 1, 69, 0
3, 97472, Note_on_c, 1, 62, 68
3, 99068, Note_off_c, 1, 62, 0
3, 99128, Note_on_c, 1, 63, 67
3, 99284, Note_off_c, 1, 63, 0
3, 99312, Note_on_c, 1, 62, 66
3, 99464, Note_off_c, 1, 62, 0
3, 99488, Note_on_c, 1, 60, 64
3, 99644, Note_off_c, 1, 60, 0
3, 99672, Note_on_c, 1, 58, 63
3, 99824, Note_off_c, 1, 58, 0
3, 99852, Note_on_c, 1, 62, 66
3, 100008, Note_off_c, 1, 62, 0
3, 100032, Note_on_c, 1, 61, 65
3, 100188, Note_off_c, 1, 61, 0
3, 100212, Note_on_c, 1, 64, 69
3, 100524, Note_off_c, 1, 64, 0
3, 100572, Note_on_c, 1, 64, 67
3, 100728, Note_off_c, 1, 64, 0
3, 100752, Note_on_c, 1, 62, 66
3, 100908, Note_off_c, 1, 62, 0
3, 100936, Note_on_c, 1, 61, 65
3, 101088, Note_off_c, 1, 61, 0
3, 101116, Note_on_c, 1, 62, 68
3, 101608, Note_off_c, 1, 62, 0
3, 101668, Note_on_c, 1, 60, 64
3, 101824, Note_off_c, 1, 60, 0
3, 101848, Note_on_c, 1, 58, 65
3, 102728, Note_off_c, 1, 58, 0
3, 102752, Note_on_c, 1, 57, 62
3, 102904, Note_off_c, 1, 57, 0
3, 102932, Note_on_c, 1, 58, 65
3, 104192, Note_off_c, 1, 58, 0
3, 104216, Note_on_c, 1, 57, 62
3, 104372, Note_off_c, 1, 57, 0
3, 104400, Note_on_c, 1, 58, 63
3, 104568, Note_off_c, 1, 58, 0
3, 104592, Note_on_c, 1, 55, 61
3, 104784, Note_off_c, 1, 55, 0
3, 104804, Note_on_c, 1, 57, 64
3, 105952, Note_off_c, 1, 57, 0
3, 105952, End_track
4, 0, Start_track
4, 0, Title_t, "A.G. Simonetto, \251 2002"
4, 0, Control_c, 2, 0, 0
4, 0, Program_c, 2, 0
4, 0, Key_signature, 0, "major"
4, 0, Control_c, 2, 7, 125
4, 0, Note_on_c, 2, 62, 68
4, 768, Note_off_c, 2, 62, 0
4, 768, Note_on_c, 2, 57, 64
4, 1536, Note_off_c, 2, 57, 0
4, 1536, Note_on_c, 2, 60, 67
4, 2304, Note_off_c, 2, 60, 0
4, 2304, Note_on_c, 2, 64, 70
4, 3072, Note_off_c, 2, 64, 0
4, 3072, Note_on_c, 2, 65, 71
4, 3780, Note_off_c, 2, 65, 0
4, 3840, Note_on_c, 2, 64, 69
4, 4208, Note_off_c, 2, 64, 0
4, 4220, Note_on_c, 2, 62, 67
4, 4588, Note_off_c, 2, 62, 0
4, 4600, Note_on_c, 2, 61, 67
4, 5528, Note_off_c, 2, 61, 0
4, 5584, Note_on_c, 2, 57, 62
4, 5740, Note_off_c, 2, 57, 0
4, 5768, Note_on_c, 2, 59, 63
4, 5920, Note_off_c, 2, 59, 0
4, 5948, Note_on_c, 2, 61, 65
4, 6104, Note_off_c, 2, 61, 0
4, 6128, Note_on_c, 2, 62, 67
4, 6496, Note_off_c, 2, 62, 0
4, 6508, Note_on_c, 2, 60, 67
4, 7228, Note_off_c, 2, 60, 0
4, 7288, Note_on_c, 2, 59, 63
4, 7444, Note_off_c, 2, 59, 0
4, 7468, Note_on_c, 2, 58, 63
4, 7624, Note_off_c, 2, 58, 0
4, 7648, Note_on_c, 2, 57, 62
4, 7804, Note_off_c, 2, 57, 0
4, 7832, Note_on_c, 2, 56, 61
4, 7984, Note_off_c, 2, 56, 0
4, 8008, Note_on_c, 2, 57, 62
4, 8164, Note_off_c, 2, 57, 0
4, 8192, Note_on_c, 2, 59, 63
4, 8344, Note_off_c, 2, 59, 0
4, 8372, Note_on_c, 2, 60, 66
4, 8744, Note_off_c, 2, 60, 0
4, 8752, Note_on_c, 2, 61, 67
4, 9476, Note_off_c, 2, 61, 0
4, 9532, Note_on_c, 2, 62, 66
4, 9688, Note_off_c, 2, 62, 0
4, 9712, Note_on_c, 2, 64, 67
4, 9868, Note_off_c, 2, 64, 0
4, 9892, Note_on_c, 2, 65, 70
4, 10264, Note_off_c, 2, 65, 0
4, 10272, Note_on_c, 2, 64, 69
4, 10808, Note_off_c, 2, 64, 0
4, 10832, Note_on_c, 2, 57, 62
4, 10988, Note_off_c, 2, 57, 0
4, 11016, Note_on_c, 2, 59, 63
4, 11168, Note_off_c, 2, 59, 0
4, 11196, Note_on_c, 2, 61, 65
4, 11352, Note_off_c, 2, 61, 0
4, 11376, Note_on_c, 2, 62, 66
4, 11532, Note_off_c, 2, 62, 0
4, 11556, Note_on_c, 2, 61, 65
4, 11712, Note_off_c, 2, 61, 0
4, 11736, Note_on_c, 2, 62, 66
4, 11892, Note_off_c, 2, 62, 0
4, 11916, Note_on_c, 2, 64, 67
4, 12072, Note_off_c, 2, 64, 0
4, 12096, Note_on_c, 2, 65, 68
4, 12252, Note_off_c, 2, 65, 0
4, 12280, Note_on_c, 2, 64, 67
4, 12432, Note_off_c, 2, 64, 0
4, 12460, Note_on_c, 2, 62, 66
4, 12612, Note_off_c, 2, 62, 0
4, 12640, Note_on_c, 2, 61, 65
4, 12792, Note_off_c, 2, 61, 0
4, 12820, Note_on_c, 2, 62, 67
4, 13164, Note_off_c, 2, 62, 0
4, 13220, Note_on_c, 2, 50, 58
4, 13524, Note_off_c, 2, 50, 0
4, 13580, Note_on_c, 2, 57, 62
4, 13736, Note_off_c, 2, 57, 0
4, 13760, Note_on_c, 2, 59, 63
4, 13920, Note_off_c, 2, 59, 0
4, 13944, Note_on_c, 2, 60, 67
4, 14424, Note_off_c, 2, 60, 0
4, 14484, Note_on_c, 2, 64, 67
4, 14640, Note_off_c, 2, 64, 0
4, 14664, Note_on_c, 2, 62, 66
4, 14820, Note_off_c, 2, 62, 0
4, 14844, Note_on_c, 2, 60, 64
4, 15000, Note_off_c, 2, 60, 0
4, 15024, Note_on_c, 2, 59, 63
4, 15192, Note_off_c, 2, 59, 0
4, 15216, Note_on_c, 2, 47, 55
4, 15372, Note_off_c, 2, 47, 0
4, 15400, Note_on_c, 2, 48, 56
4, 15552, Note_off_c, 2, 48, 0
4, 15580, Note_on_c, 2, 50, 57
4, 15736, Note_off_c, 2, 50, 0
4, 15760, Note_on_c, 2, 52, 58
4, 15916, Note_off_c, 2, 52, 0
4, 15940, Note_on_c, 2, 54, 60
4, 16096, Note_off_c, 2, 54, 0
4, 16120, Note_on_c, 2, 56, 61
4, 16276, Note_off_c, 2, 56, 0
4, 16300, Note_on_c, 2, 52, 58
4, 16456, Note_off_c, 2, 52, 0
4, 16480, Note_on_c, 2, 57, 63
4, 16832, Note_off_c, 2, 57, 0
4, 16840, Note_on_c, 2, 55, 62
4, 17208, Note_off_c, 2, 55, 0
4, 17216, Note_on_c, 2, 53, 60
4, 17580, Note_off_c, 2, 53, 0
4, 17588, Note_on_c, 2, 52, 60
4, 17904, Note_off_c, 2, 52, 0
4, 17960, Note_on_c, 2, 50, 57
4, 18128, Note_off_c, 2, 50, 0
4, 18152, Note_on_c, 2, 62, 66
4, 18308, Note_off_c, 2, 62, 0
4, 18332, Note_on_c, 2, 64, 67
4, 18488, Note_off_c, 2, 64, 0
4, 18512, Note_on_c, 2, 66, 69
4, 18668, Note_off_c, 2, 66, 0
4, 18696, Note_on_c, 2, 67, 72
4, 19048, Note_off_c, 2, 67, 0
4, 19056, Note_on_c, 2, 65, 70
4, 19408, Note_off_c, 2, 65, 0
4, 19416, Note_on_c, 2, 64, 69
4, 19780, Note_off_c, 2, 64, 0
4, 19788, Note_on_c, 2, 62, 67
4, 20152, Note_off_c, 2, 62, 0
4, 20160, Note_on_c, 2, 61, 67
4, 20512, Note_off_c, 2, 61, 0
4, 20524, Note_on_c, 2, 62, 67
4, 20872, Note_off_c, 2, 62, 0
4, 20884, Note_on_c, 2, 64, 70
4, 21604, Note_off_c, 2, 64, 0
4, 21604, Note_on_c, 2, 62, 68
4, 22692, Note_off_c, 2, 62, 0
4, 22700, Note_on_c, 2, 60, 64
4, 22856, Note_off_c, 2, 60, 0
4, 22880, Note_on_c, 2, 59, 63
4, 23048, Note_off_c, 2, 59, 0
4, 23072, Note_on_c, 2, 57, 63
4, 23424, Note_off_c, 2, 57, 0
4, 24156, Note_on_c, 2, 62, 68
4, 24708, Note_off_c, 2, 62, 0
4, 24708, Note_on_c, 2, 59, 63
4, 24864, Note_off_c, 2, 59, 0
4, 24888, Note_on_c, 2, 61, 65
4, 25044, Note_off_c, 2, 61, 0
4, 25072, Note_on_c, 2, 64, 67
4, 25224, Note_off_c, 2, 64, 0
4, 25248, Note_on_c, 2, 57, 63
4, 25600, Note_off_c, 2, 57, 0
4, 41720, Note_on_c, 2, 64, 70
4, 42452, Note_off_c, 2, 64, 0
4, 42452, Note_on_c, 2, 57, 63
4, 42968, Note_off_c, 2, 57, 0
4, 42992, Note_on_c, 2, 59, 63
4, 43148, Note_off_c, 2, 59, 0
4, 43172, Note_on_c, 2, 60, 67
4, 43664, Note_off_c, 2, 60, 0
4, 43728, Note_on_c, 2, 62, 66
4, 43880, Note_off_c, 2, 62, 0
4, 43908, Note_on_c, 2, 64, 69
4, 44424, Note_off_c, 2, 64, 0
4, 44448, Note_on_c, 2, 62, 66
4, 44616, Note_off_c, 2, 62, 0
4, 44640, Note_on_c, 2, 65, 71
4, 45328, Note_off_c, 2, 65, 0
4, 45384, Note_on_c, 2, 64, 67
4, 45540, Note_off_c, 2, 64, 0
4, 45568, Note_on_c, 2, 62, 66
4, 45720, Note_off_c, 2, 62, 0
4, 45748, Note_on_c, 2, 60, 67
4, 46588, Note_off_c, 2, 60, 0
4, 46648, Note_on_c, 2, 59, 63
4, 46804, Note_off_c, 2, 59, 0
4, 46828, Note_on_c, 2, 61, 65
4, 46984, Note_off_c, 2, 61, 0
4, 47008, Note_on_c, 2, 62, 66
4, 47168, Note_off_c, 2, 62, 0
4, 47192, Note_on_c, 2, 64, 70
4, 48032, Note_off_c, 2, 64, 0
4, 48092, Note_on_c, 2, 57, 62
4, 48248, Note_off_c, 2, 57, 0
4, 48272, Note_on_c, 2, 59, 63
4, 48428, Note_off_c, 2, 59, 0
4, 48456, Note_on_c, 2, 60, 64
4, 48608, Note_off_c, 2, 60, 0
4, 48632, Note_on_c, 2, 62, 68
4, 49476, Note_off_c, 2, 62, 0
4, 49536, Note_on_c, 2, 55, 60
4, 49692, Note_off_c, 2, 55, 0
4, 49716, Note_on_c, 2, 57, 62
4, 49872, Note_off_c, 2, 57, 0
4, 49896, Note_on_c, 2, 58, 63
4, 50052, Note_off_c, 2, 58, 0
4, 50080, Note_on_c, 2, 60, 64
4, 50232, Note_off_c, 2, 60, 0
4, 50260, Note_on_c, 2, 58, 63
4, 50416, Note_off_c, 2, 58, 0
4, 50440, Note_on_c, 2, 60, 67
4, 51100, Note_off_c, 2, 60, 0
4, 51160, Note_on_c, 2, 53, 60
4, 51680, Note_off_c, 2, 53, 0
4, 51704, Note_on_c, 2, 55, 60
4, 51856, Note_off_c, 2, 55, 0
4, 51884, Note_on_c, 2, 57, 64
4, 52376, Note_off_c, 2, 57, 0
4, 52436, Note_on_c, 2, 58, 63
4, 52592, Note_off_c, 2, 58, 0
4, 52616, Note_on_c, 2, 60, 66
4, 53144, Note_off_c, 2, 60, 0
4, 53168, Note_on_c, 2, 58, 63
4, 53328, Note_off_c, 2, 58, 0
4, 53352, Note_on_c, 2, 62, 68
4, 54024, Note_off_c, 2, 62, 0
4, 54084, Note_on_c, 2, 60, 64
4, 54240, Note_off_c, 2, 60, 0
4, 54264, Note_on_c, 2, 58, 63
4, 54420, Note_off_c, 2, 58, 0
4, 54444, Note_on_c, 2, 57, 64
4, 55300, Note_off_c, 2, 57, 0
4, 55360, Note_on_c, 2, 55, 60
4, 55516, Note_off_c, 2, 55, 0
4, 55540, Note_on_c, 2, 57, 62
4, 55696, Note_off_c, 2, 57, 0
4, 55720, Note_on_c, 2, 59, 63
4, 55876, Note_off_c, 2, 59, 0
4, 55900, Note_on_c, 2, 60, 64
4, 56068, Note_off_c, 2, 60, 0
4, 56092, Note_on_c, 2, 55, 60
4, 56248, Note_off_c, 2, 55, 0
4, 56272, Note_on_c, 2, 60, 67
4, 56944, Note_off_c, 2, 60, 0
4, 57004, Note_on_c, 2, 59, 63
4, 57160, Note_off_c, 2, 59, 0
4, 57184, Note_on_c, 2, 58, 63
4, 57520, Note_off_c, 2, 58, 0
4, 57544, Note_on_c, 2, 57, 62
4, 57704, Note_off_c, 2, 57, 0
4, 57728, Note_on_c, 2, 65, 70
4, 58080, Note_off_c, 2, 65, 0
4, 58088, Note_on_c, 2, 62, 68
4, 58568, Note_off_c, 2, 62, 0
4, 58628, Note_on_c, 2, 64, 67
4, 58784, Note_off_c, 2, 64, 0
4, 58808, Note_on_c, 2, 57, 63
4, 59172, Note_off_c, 2, 57, 0
4, 59180, Note_on_c, 2, 62, 68
4, 59852, Note_off_c, 2, 62, 0
4, 59912, Note_on_c, 2, 61, 65
4, 60068, Note_off_c, 2, 61, 0
4, 60096, Note_on_c, 2, 60, 64
4, 60432, Note_off_c, 2, 60, 0
4, 60456, Note_on_c, 2, 59, 63
4, 60612, Note_off_c, 2, 59, 0
4, 60636, Note_on_c, 2, 67, 72
4, 60988, Note_off_c, 2, 67, 0
4, 60996, Note_on_c, 2, 64, 70
4, 61476, Note_off_c, 2, 64, 0
4, 61536, Note_on_c, 2, 66, 69
4, 61692, Note_off_c, 2, 66, 0
4, 61720, Note_on_c, 2, 59, 66
4, 62224, Note_off_c, 2, 59, 0
4, 62284, Note_on_c, 2, 61, 65
4, 62440, Note_off_c, 2, 61, 0
4, 62464, Note_on_c, 2, 62, 68
4, 62944, Note_off_c, 2, 62, 0
4, 63004, Note_on_c, 2, 62, 66
4, 63160, Note_off_c, 2, 62, 0
4, 63184, Note_on_c, 2, 60, 64
4, 63340, Note_off_c, 2, 60, 0
4, 63368, Note_on_c, 2, 59, 63
4, 63520, Note_off_c, 2, 59, 0
4, 63548, Note_on_c, 2, 60, 64
4, 63704, Note_off_c, 2, 60, 0
4, 63728, Note_on_c, 2, 57, 62
4, 63884, Note_off_c, 2, 57, 0
4, 63908, Note_on_c, 2, 59, 66
4, 64400, Note_off_c, 2, 59, 0
4, 64460, Note_on_c, 2, 60, 64
4, 64616, Note_off_c, 2, 60, 0
4, 64640, Note_on_c, 2, 62, 66
4, 64808, Note_off_c, 2, 62, 0
4, 64832, Note_on_c, 2, 60, 66
4, 65184, Note_off_c, 2, 60, 0
4, 65196, Note_on_c, 2, 59, 65
4, 65560, Note_off_c, 2, 59, 0
4, 65568, Note_on_c, 2, 57, 64
4, 65872, Note_off_c, 2, 57, 0
4, 65928, Note_on_c, 2, 56, 63
4, 66084, Note_off_c, 2, 56, 0
4, 66108, Note_on_c, 2, 57, 63
4, 66472, Note_off_c, 2, 57, 0
4, 67756, Note_on_c, 2, 50, 57
4, 67912, Note_off_c, 2, 50, 0
4, 67936, Note_on_c, 2, 52, 58
4, 68092, Note_off_c, 2, 52, 0
4, 68120, Note_on_c, 2, 54, 60
4, 68272, Note_off_c, 2, 54, 0
4, 68296, Note_on_c, 2, 55, 62
4, 68600, Note_off_c, 2, 55, 0
4, 68660, Note_on_c, 2, 57, 62
4, 68816, Note_off_c, 2, 57, 0
4, 68840, Note_on_c, 2, 53, 59
4, 68996, Note_off_c, 2, 53, 0
4, 69020, Note_on_c, 2, 55, 60
4, 69176, Note_off_c, 2, 55, 0
4, 69200, Note_on_c, 2, 65, 68
4, 69356, Note_off_c, 2, 65, 0
4, 69380, Note_on_c, 2, 64, 67
4, 69536, Note_off_c, 2, 64, 0
4, 69560, Note_on_c, 2, 62, 66
4, 69716, Note_off_c, 2, 62, 0
4, 69744, Note_on_c, 2, 60, 64
4, 69908, Note_off_c, 2, 60, 0
4, 69936, Note_on_c, 2, 48, 56
4, 70088, Note_off_c, 2, 48, 0
4, 70116, Note_on_c, 2, 50, 57
4, 70272, Note_off_c, 2, 50, 0
4, 70296, Note_on_c, 2, 52, 58
4, 70452, Note_off_c, 2, 52, 0
4, 70476, Note_on_c, 2, 53, 60
4, 70780, Note_off_c, 2, 53, 0
4, 70836, Note_on_c, 2, 55, 60
4, 70992, Note_off_c, 2, 55, 0
4, 71016, Note_on_c, 2, 51, 58
4, 71172, Note_off_c, 2, 51, 0
4, 71196, Note_on_c, 2, 53, 59
4, 71352, Note_off_c, 2, 53, 0
4, 71376, Note_on_c, 2, 63, 67
4, 71536, Note_off_c, 2, 63, 0
4, 71560, Note_on_c, 2, 62, 66
4, 71712, Note_off_c, 2, 62, 0
4, 71740, Note_on_c, 2, 60, 64
4, 71896, Note_off_c, 2, 60, 0
4, 71920, Note_on_c, 2, 58, 63
4, 72088, Note_off_c, 2, 58, 0
4, 72112, Note_on_c, 2, 46, 54
4, 72268, Note_off_c, 2, 46, 0
4, 72292, Note_on_c, 2, 48, 56
4, 72448, Note_off_c, 2, 48, 0
4, 72472, Note_on_c, 2, 50, 57
4, 72628, Note_off_c, 2, 50, 0
4, 72652, Note_on_c, 2, 51, 58
4, 72808, Note_off_c, 2, 51, 0
4, 72832, Note_on_c, 2, 53, 59
4, 72988, Note_off_c, 2, 53, 0
4, 73016, Note_on_c, 2, 51, 58
4, 73168, Note_off_c, 2, 51, 0
4, 73196, Note_on_c, 2, 50, 57
4, 73352, Note_off_c, 2, 50, 0
4, 73376, Note_on_c, 2, 48, 56
4, 73532, Note_off_c, 2, 48, 0
4, 73556, Note_on_c, 2, 50, 57
4, 73712, Note_off_c, 2, 50, 0
4, 73736, Note_on_c, 2, 52, 58
4, 73892, Note_off_c, 2, 52, 0
4, 73916, Note_on_c, 2, 54, 60
4, 74072, Note_off_c, 2, 54, 0
4, 74096, Note_on_c, 2, 55, 63
4, 74580, Note_off_c, 2, 55, 0
4, 74640, Note_on_c, 2, 51, 58
4, 74792, Note_off_c, 2, 51, 0
4, 74816, Note_on_c, 2, 50, 59
4, 75312, Note_off_c, 2, 50, 0
4, 75372, Note_on_c, 2, 55, 60
4, 75528, Note_off_c, 2, 55, 0
4, 75552, Note_on_c, 2, 53, 59
4, 75708, Note_off_c, 2, 53, 0
4, 75732, Note_on_c, 2, 58, 63
4, 75900, Note_off_c, 2, 58, 0
4, 75924, Note_on_c, 2, 57, 63
4, 76640, Note_off_c, 2, 57, 0
4, 76648, Note_on_c, 2, 55, 63
4, 77140, Note_off_c, 2, 55, 0
4, 77200, Note_on_c, 2, 52, 58
4, 77356, Note_off_c, 2, 52, 0
4, 77380, Note_on_c, 2, 54, 60
4, 77536, Note_off_c, 2, 54, 0
4, 77560, Note_on_c, 2, 57, 62
4, 77728, Note_off_c, 2, 57, 0
4, 77752, Note_on_c, 2, 50, 57
4, 77908, Note_off_c, 2, 50, 0
4, 77936, Note_on_c, 2, 54, 60
4, 78088, Note_off_c, 2, 54, 0
4, 78116, Note_on_c, 2, 55, 60
4, 78272, Note_off_c, 2, 55, 0
4, 78296, Note_on_c, 2, 57, 62
4, 78448, Note_off_c, 2, 57, 0
4, 78476, Note_on_c, 2, 58, 63
4, 78644, Note_off_c, 2, 58, 0
4, 79388, Note_on_c, 2, 62, 66
4, 79556, Note_off_c, 2, 62, 0
4, 79584, Note_on_c, 2, 61, 65
4, 79736, Note_off_c, 2, 61, 0
4, 79764, Note_on_c, 2, 60, 66
4, 80076, Note_off_c, 2, 60, 0
4, 80124, Note_on_c, 2, 60, 64
4, 80280, Note_off_c, 2, 60, 0
4, 80304, Note_on_c, 2, 59, 63
4, 80460, Note_off_c, 2, 59, 0
4, 80484, Note_on_c, 2, 58, 63
4, 80640, Note_off_c, 2, 58, 0
4, 80664, Note_on_c, 2, 57, 62
4, 80820, Note_off_c, 2, 57, 0
4, 80848, Note_on_c, 2, 56, 61
4, 81000, Note_off_c, 2, 56, 0
4, 81024, Note_on_c, 2, 57, 62
4, 81180, Note_off_c, 2, 57, 0
4, 81208, Note_on_c, 2, 59, 63
4, 81376, Note_off_c, 2, 59, 0
4, 81400, Note_on_c, 2, 60, 66
4, 81752, Note_off_c, 2, 60, 0
4, 81760, Note_on_c, 2, 61, 67
4, 82448, Note_off_c, 2, 61, 0
4, 82504, Note_on_c, 2, 62, 66
4, 82660, Note_off_c, 2, 62, 0
4, 82688, Note_on_c, 2, 64, 67
4, 82840, Note_off_c, 2, 64, 0
4, 82864, Note_on_c, 2, 65, 70
4, 83228, Note_off_c, 2, 65, 0
4, 83240, Note_on_c, 2, 64, 69
4, 83768, Note_off_c, 2, 64, 0
4, 83792, Note_on_c, 2, 57, 62
4, 83948, Note_off_c, 2, 57, 0
4, 83972, Note_on_c, 2, 59, 63
4, 84128, Note_off_c, 2, 59, 0
4, 84152, Note_on_c, 2, 61, 65
4, 84308, Note_off_c, 2, 61, 0
4, 84332, Note_on_c, 2, 62, 66
4, 84488, Note_off_c, 2, 62, 0
4, 84512, Note_on_c, 2, 57, 62
4, 84668, Note_off_c, 2, 57, 0
4, 84696, Note_on_c, 2, 50, 58
4, 85012, Note_off_c, 2, 50, 0
4, 85068, Note_on_c, 2, 52, 58
4, 85224, Note_off_c, 2, 52, 0
4, 85248, Note_on_c, 2, 51, 58
4, 85404, Note_off_c, 2, 51, 0
4, 85428, Note_on_c, 2, 52, 58
4, 85584, Note_off_c, 2, 52, 0
4, 85608, Note_on_c, 2, 54, 60
4, 85776, Note_off_c, 2, 54, 0
4, 85800, Note_on_c, 2, 55, 63
4, 86280, Note_off_c, 2, 55, 0
4, 86344, Note_on_c, 2, 56, 61
4, 86496, Note_off_c, 2, 56, 0
4, 86524, Note_on_c, 2, 57, 63
4, 86876, Note_off_c, 2, 57, 0
4, 87604, Note_on_c, 2, 64, 69
4, 87980, Note_off_c, 2, 64, 0
4, 87980, Note_on_c, 2, 64, 69
4, 88340, Note_off_c, 2, 64, 0
4, 90904, Note_on_c, 2, 57, 64
4, 91624, Note_off_c, 2, 57, 0
4, 91624, Note_on_c, 2, 50, 59
4, 92356, Note_off_c, 2, 50, 0
4, 92356, Note_on_c, 2, 53, 61
4, 93080, Note_off_c, 2, 53, 0
4, 93080, Note_on_c, 2, 57, 64
4, 93812, Note_off_c, 2, 57, 0
4, 93812, Note_on_c, 2, 58, 65
4, 94488, Note_off_c, 2, 58, 0
4, 94548, Note_on_c, 2, 57, 63
4, 94900, Note_off_c, 2, 57, 0
4, 94908, Note_on_c, 2, 55, 62
4, 95260, Note_off_c, 2, 55, 0
4, 95268, Note_on_c, 2, 53, 61
4, 96136, Note_off_c, 2, 53, 0
4, 96192, Note_on_c, 2, 52, 58
4, 96352, Note_off_c, 2, 52, 0
4, 96376, Note_on_c, 2, 54, 60
4, 96532, Note_off_c, 2, 54, 0
4, 96556, Note_on_c, 2, 55, 60
4, 96712, Note_off_c, 2, 55, 0
4, 96736, Note_on_c, 2, 57, 64
4, 97592, Note_off_c, 2, 57, 0
4, 97648, Note_on_c, 2, 50, 57
4, 97804, Note_off_c, 2, 50, 0
4, 97832, Note_on_c, 2, 52, 58
4, 97984, Note_off_c, 2, 52, 0
4, 98012, Note_on_c, 2, 54, 60
4, 98168, Note_off_c, 2, 54, 0
4, 98192, Note_on_c, 2, 55, 63
4, 99068, Note_off_c, 2, 55, 0
4, 99128, Note_on_c, 2, 54, 60
4, 99284, Note_off_c, 2, 54, 0
4, 99312, Note_on_c, 2, 55, 60
4, 99464, Note_off_c, 2, 55, 0
4, 99488, Note_on_c, 2, 57, 62
4, 99644, Note_off_c, 2, 57, 0
4, 99672, Note_on_c, 2, 58, 64
4, 99976, Note_off_c, 2, 58, 0
4, 100032, Note_on_c, 2, 57, 62
4, 100188, Note_off_c, 2, 57, 0
4, 100212, Note_on_c, 2, 55, 60
4, 100368, Note_off_c, 2, 55, 0
4, 100392, Note_on_c, 2, 57, 64
4, 101968, Note_off_c, 2, 57, 0
4, 102028, Note_on_c, 2, 57, 62
4, 102184, Note_off_c, 2, 57, 0
4, 102208, Note_on_c, 2, 55, 60
4, 102364, Note_off_c, 2, 55, 0
4, 102388, Note_on_c, 2, 54, 60
4, 102544, Note_off_c, 2, 54, 0
4, 102568, Note_on_c, 2, 55, 63
4, 104192, Note_off_c, 2, 55, 0
4, 104216, Note_on_c, 2, 54, 60
4, 104372, Note_off_c, 2, 54, 0
4, 104400, Note_on_c, 2, 55, 61
4, 104568, Note_off_c, 2, 55, 0
4, 104592, Note_on_c, 2, 52, 59
4, 104784, Note_off_c, 2, 52, 0
4, 104804, Note_on_c, 2, 54, 62
4, 105952, Note_off_c, 2, 54, 0
4, 105952, End_track
5, 0, Start_track
5, 0, Title_t, " "
5, 0, Control_c, 3, 0, 0
5, 0, Program_c, 3, 0
5, 0, Key_signature, 0, "major"
5, 0, Control_c, 3, 7, 125
5, 20884, Note_on_c, 3, 57, 64
5, 21604, Note_off_c, 3, 57, 0
5, 21604, Note_on_c, 3, 50, 59
5, 22340, Note_off_c, 3, 50, 0
5, 22340, Note_on_c, 3, 53, 61
5, 23072, Note_off_c, 3, 53, 0
5, 23072, Note_on_c, 3, 57, 64
5, 23796, Note_off_c, 3, 57, 0
5, 23796, Note_on_c, 3, 58, 65
5, 24468, Note_off_c, 3, 58, 0
5, 24528, Note_on_c, 3, 57, 63
5, 24880, Note_off_c, 3, 57, 0
5, 24888, Note_on_c, 3, 55, 62
5, 25240, Note_off_c, 3, 55, 0
5, 25248, Note_on_c, 3, 53, 61
5, 26104, Note_off_c, 3, 53, 0
5, 26164, Note_on_c, 3, 52, 58
5, 26320, Note_off_c, 3, 52, 0
5, 26344, Note_on_c, 3, 53, 59
5, 26500, Note_off_c, 3, 53, 0
5, 26524, Note_on_c, 3, 55, 60
5, 26680, Note_off_c, 3, 55, 0
5, 26704, Note_on_c, 3, 57, 62
5, 26872, Note_off_c, 3, 57, 0
5, 26896, Note_on_c, 3, 45, 54
5, 27052, Note_off_c, 3, 45, 0
5, 27272, Note_on_c, 3, 45, 54
5, 27428, Note_off_c, 3, 45, 0
5, 27452, Note_on_c, 3, 46, 54
5, 27608, Note_off_c, 3, 46, 0
5, 27632, Note_on_c, 3, 45, 54
5, 27788, Note_off_c, 3, 45, 0
5, 27812, Note_on_c, 3, 47, 55
5, 27968, Note_off_c, 3, 47, 0
5, 27992, Note_on_c, 3, 49, 56
5, 28148, Note_off_c, 3, 49, 0
5, 28172, Note_on_c, 3, 50, 57
5, 28340, Note_off_c, 3, 50, 0
5, 28364, Note_on_c, 3, 38, 50
5, 28520, Note_off_c, 3, 38, 0
5, 28740, Note_on_c, 3, 50, 57
5, 28896, Note_off_c, 3, 50, 0
5, 28920, Note_on_c, 3, 51, 58
5, 29072, Note_off_c, 3, 51, 0
5, 29100, Note_on_c, 3, 50, 57
5, 29256, Note_off_c, 3, 50, 0
5, 29280, Note_on_c, 3, 52, 58
5, 29436, Note_off_c, 3, 52, 0
5, 29460, Note_on_c, 3, 54, 60
5, 29616, Note_off_c, 3, 54, 0
5, 29640, Note_on_c, 3, 55, 60
5, 29808, Note_off_c, 3, 55, 0
5, 29832, Note_on_c, 3, 43, 53
5, 29988, Note_off_c, 3, 43, 0
5, 30204, Note_on_c, 3, 43, 53
5, 30360, Note_off_c, 3, 43, 0
5, 30384, Note_on_c, 3, 44, 53
5, 30544, Note_off_c, 3, 44, 0
5, 30568, Note_on_c, 3, 43, 53
5, 30720, Note_off_c, 3, 43, 0
5, 30748, Note_on_c, 3, 45, 54
5, 30904, Note_off_c, 3, 45, 0
5, 30928, Note_on_c, 3, 47, 55
5, 31084, Note_off_c, 3, 47, 0
5, 31108, Note_on_c, 3, 48, 56
5, 31276, Note_off_c, 3, 48, 0
5, 31300, Note_on_c, 3, 36, 49
5, 31456, Note_off_c, 3, 36, 0
5, 31672, Note_on_c, 3, 48, 56
5, 31828, Note_off_c, 3, 48, 0
5, 31852, Note_on_c, 3, 49, 56
5, 32008, Note_off_c, 3, 49, 0
5, 32032, Note_on_c, 3, 48, 56
5, 32192, Note_off_c, 3, 48, 0
5, 32216, Note_on_c, 3, 50, 57
5, 32368, Note_off_c, 3, 50, 0
5, 32396, Note_on_c, 3, 52, 58
5, 32552, Note_off_c, 3, 52, 0
5, 32576, Note_on_c, 3, 53, 59
5, 32744, Note_off_c, 3, 53, 0
5, 32768, Note_on_c, 3, 41, 51
5, 32924, Note_off_c, 3, 41, 0
5, 33140, Note_on_c, 3, 53, 59
5, 33296, Note_off_c, 3, 53, 0
5, 33320, Note_on_c, 3, 54, 60
5, 33476, Note_off_c, 3, 54, 0
5, 33504, Note_on_c, 3, 55, 60
5, 33656, Note_off_c, 3, 55, 0
5, 33872, Note_on_c, 3, 43, 53
5, 34032, Note_off_c, 3, 43, 0
5, 34056, Note_on_c, 3, 41, 51
5, 34212, Note_off_c, 3, 41, 0
5, 34236, Note_on_c, 3, 40, 51
5, 34392, Note_off_c, 3, 40, 0
5, 34416, Note_on_c, 3, 38, 50
5, 34584, Note_off_c, 3, 38, 0
5, 34608, Note_on_c, 3, 50, 57
5, 34764, Note_off_c, 3, 50, 0
5, 34788, Note_on_c, 3, 45, 54
5, 34956, Note_off_c, 3, 45, 0
5, 34980, Note_on_c, 3, 58, 63
5, 35136, Note_off_c, 3, 58, 0
5, 35160, Note_on_c, 3, 57, 62
5, 35316, Note_off_c, 3, 57, 0
5, 35344, Note_on_c, 3, 55, 60
5, 35496, Note_off_c, 3, 55, 0
5, 35520, Note_on_c, 3, 53, 59
5, 35676, Note_off_c, 3, 53, 0
5, 35704, Note_on_c, 3, 52, 58
5, 35872, Note_off_c, 3, 52, 0
5, 35896, Note_on_c, 3, 50, 59
5, 36388, Note_off_c, 3, 50, 0
5, 36448, Note_on_c, 3, 55, 60
5, 36616, Note_off_c, 3, 55, 0
5, 36640, Note_on_c, 3, 49, 58
5, 36992, Note_off_c, 3, 49, 0
5, 37000, Note_on_c, 3, 50, 59
5, 37508, Note_off_c, 3, 50, 0
5, 37568, Note_on_c, 3, 45, 54
5, 37720, Note_off_c, 3, 45, 0
5, 37748, Note_on_c, 3, 46, 54
5, 37916, Note_off_c, 3, 46, 0
5, 37940, Note_on_c, 3, 58, 63
5, 38096, Note_off_c, 3, 58, 0
5, 38120, Note_on_c, 3, 57, 62
5, 38276, Note_off_c, 3, 57, 0
5, 38300, Note_on_c, 3, 55, 60
5, 38480, Note_off_c, 3, 55, 0
5, 38480, Note_on_c, 3, 55, 61
5, 38556, Note_off_c, 3, 55, 0
5, 38568, Note_on_c, 3, 54, 61
5, 38644, Note_off_c, 3, 54, 0
5, 38660, Note_on_c, 3, 55, 61
5, 38736, Note_off_c, 3, 55, 0
5, 38748, Note_on_c, 3, 54, 61
5, 38824, Note_off_c, 3, 54, 0
5, 38836, Note_on_c, 3, 55, 61
5, 38912, Note_off_c, 3, 55, 0
5, 38924, Note_on_c, 3, 54, 61
5, 39000, Note_off_c, 3, 54, 0
5, 39016, Note_on_c, 3, 52, 59
5, 39088, Note_off_c, 3, 52, 0
5, 39104, Note_on_c, 3, 54, 61
5, 39180, Note_off_c, 3, 54, 0
5, 39192, Note_on_c, 3, 55, 60
5, 39348, Note_off_c, 3, 55, 0
5, 39372, Note_on_c, 3, 53, 59
5, 39528, Note_off_c, 3, 53, 0
5, 39552, Note_on_c, 3, 52, 58
5, 39708, Note_off_c, 3, 52, 0
5, 39732, Note_on_c, 3, 50, 57
5, 39912, Note_off_c, 3, 50, 0
5, 39912, Note_on_c, 3, 50, 58
5, 39992, Note_off_c, 3, 50, 0
5, 40004, Note_on_c, 3, 49, 57
5, 40080, Note_off_c, 3, 49, 0
5, 40092, Note_on_c, 3, 50, 58
5, 40168, Note_off_c, 3, 50, 0
5, 40180, Note_on_c, 3, 49, 57
5, 40256, Note_off_c, 3, 49, 0
5, 40268, Note_on_c, 3, 50, 58
5, 40344, Note_off_c, 3, 50, 0
5, 40360, Note_on_c, 3, 49, 57
5, 40432, Note_off_c, 3, 49, 0
5, 40448, Note_on_c, 3, 47, 56
5, 40524, Note_off_c, 3, 47, 0
5, 40536, Note_on_c, 3, 49, 57
5, 40612, Note_off_c, 3, 49, 0
5, 40624, Note_on_c, 3, 50, 57
5, 40780, Note_off_c, 3, 50, 0
5, 40808, Note_on_c, 3, 48, 56
5, 40960, Note_off_c, 3, 48, 0
5, 40988, Note_on_c, 3, 47, 55
5, 41144, Note_off_c, 3, 47, 0
5, 41168, Note_on_c, 3, 45, 54
5, 41320, Note_off_c, 3, 45, 0
5, 41348, Note_on_c, 3, 44, 54
5, 41664, Note_off_c, 3, 44, 0
5, 41720, Note_on_c, 3, 56, 63
5, 42072, Note_off_c, 3, 56, 0
5, 42080, Note_on_c, 3, 57, 63
5, 42392, Note_off_c, 3, 57, 0
5, 42452, Note_on_c, 3, 45, 54
5, 42608, Note_off_c, 3, 45, 0
5, 42632, Note_on_c, 3, 47, 55
5, 42788, Note_off_c, 3, 47, 0
5, 42812, Note_on_c, 3, 48, 58
5, 43304, Note_off_c, 3, 48, 0
5, 43364, Note_on_c, 3, 45, 54
5, 43520, Note_off_c, 3, 45, 0
5, 43544, Note_on_c, 3, 52, 58
5, 43700, Note_off_c, 3, 52, 0
5, 43728, Note_on_c, 3, 53, 59
5, 43880, Note_off_c, 3, 53, 0
5, 43908, Note_on_c, 3, 52, 58
5, 44064, Note_off_c, 3, 52, 0
5, 44088, Note_on_c, 3, 50, 57
5, 44244, Note_off_c, 3, 50, 0
5, 44268, Note_on_c, 3, 48, 56
5, 44424, Note_off_c, 3, 48, 0
5, 44448, Note_on_c, 3, 47, 55
5, 44616, Note_off_c, 3, 47, 0
5, 44640, Note_on_c, 3, 45, 56
5, 45136, Note_off_c, 3, 45, 0
5, 45192, Note_on_c, 3, 50, 57
5, 45360, Note_off_c, 3, 50, 0
5, 45384, Note_on_c, 3, 44, 54
5, 45736, Note_off_c, 3, 44, 0
5, 45748, Note_on_c, 3, 45, 54
5, 45904, Note_off_c, 3, 45, 0
5, 45928, Note_on_c, 3, 48, 56
5, 46084, Note_off_c, 3, 48, 0
5, 46108, Note_on_c, 3, 50, 57
5, 46264, Note_off_c, 3, 50, 0
5, 46288, Note_on_c, 3, 52, 58
5, 46444, Note_off_c, 3, 52, 0
5, 46468, Note_on_c, 3, 53, 60
5, 46772, Note_off_c, 3, 53, 0
5, 46828, Note_on_c, 3, 52, 58
5, 46984, Note_off_c, 3, 52, 0
5, 47008, Note_on_c, 3, 50, 57
5, 47168, Note_off_c, 3, 50, 0
5, 47192, Note_on_c, 3, 49, 56
5, 47348, Note_off_c, 3, 49, 0
5, 47372, Note_on_c, 3, 45, 54
5, 47528, Note_off_c, 3, 45, 0
5, 47552, Note_on_c, 3, 47, 55
5, 47708, Note_off_c, 3, 47, 0
5, 47732, Note_on_c, 3, 49, 56
5, 47888, Note_off_c, 3, 49, 0
5, 47912, Note_on_c, 3, 50, 57
5, 48068, Note_off_c, 3, 50, 0
5, 48092, Note_on_c, 3, 52, 58
5, 48248, Note_off_c, 3, 52, 0
5, 48272, Note_on_c, 3, 50, 57
5, 48428, Note_off_c, 3, 50, 0
5, 48456, Note_on_c, 3, 48, 56
5, 48608, Note_off_c, 3, 48, 0
5, 48632, Note_on_c, 3, 47, 55
5, 48792, Note_off_c, 3, 47, 0
5, 48816, Note_on_c, 3, 43, 53
5, 48972, Note_off_c, 3, 43, 0
5, 48996, Note_on_c, 3, 45, 54
5, 49152, Note_off_c, 3, 45, 0
5, 49176, Note_on_c, 3, 47, 55
5, 49332, Note_off_c, 3, 47, 0
5, 49356, Note_on_c, 3, 48, 56
5, 49512, Note_off_c, 3, 48, 0
5, 49536, Note_on_c, 3, 50, 57
5, 49692, Note_off_c, 3, 50, 0
5, 49716, Note_on_c, 3, 48, 56
5, 49872, Note_off_c, 3, 48, 0
5, 49896, Note_on_c, 3, 46, 54
5, 50056, Note_off_c, 3, 46, 0
5, 50080, Note_on_c, 3, 45, 54
5, 50232, Note_off_c, 3, 45, 0
5, 50260, Note_on_c, 3, 43, 53
5, 50416, Note_off_c, 3, 43, 0
5, 50440, Note_on_c, 3, 45, 54
5, 50596, Note_off_c, 3, 45, 0
5, 50620, Note_on_c, 3, 41, 51
5, 50776, Note_off_c, 3, 41, 0
5, 50800, Note_on_c, 3, 46, 54
5, 50956, Note_off_c, 3, 46, 0
5, 50980, Note_on_c, 3, 45, 54
5, 51136, Note_off_c, 3, 45, 0
5, 51160, Note_on_c, 3, 46, 54
5, 51316, Note_off_c, 3, 46, 0
5, 51340, Note_on_c, 3, 48, 56
5, 51496, Note_off_c, 3, 48, 0
5, 51520, Note_on_c, 3, 50, 59
5, 52004, Note_off_c, 3, 50, 0
5, 52064, Note_on_c, 3, 52, 58
5, 52220, Note_off_c, 3, 52, 0
5, 52244, Note_on_c, 3, 53, 61
5, 52748, Note_off_c, 3, 53, 0
5, 52808, Note_on_c, 3, 50, 57
5, 52964, Note_off_c, 3, 50, 0
5, 52992, Note_on_c, 3, 55, 63
5, 53484, Note_off_c, 3, 55, 0
5, 53544, Note_on_c, 3, 53, 59
5, 53700, Note_off_c, 3, 53, 0
5, 53724, Note_on_c, 3, 52, 58
5, 53880, Note_off_c, 3, 52, 0
5, 53904, Note_on_c, 3, 50, 57
5, 54060, Note_off_c, 3, 50, 0
5, 54084, Note_on_c, 3, 52, 58
5, 54240, Note_off_c, 3, 52, 0
5, 54264, Note_on_c, 3, 48, 56
5, 54420, Note_off_c, 3, 48, 0
5, 54444, Note_on_c, 3, 53, 60
5, 54796, Note_off_c, 3, 53, 0
5, 54808, Note_on_c, 3, 52, 60
5, 55160, Note_off_c, 3, 52, 0
5, 55168, Note_on_c, 3, 50, 59
5, 55840, Note_off_c, 3, 50, 0
5, 55900, Note_on_c, 3, 48, 58
5, 56464, Note_off_c, 3, 48, 0
5, 56464, Note_on_c, 3, 48, 56
5, 56620, Note_off_c, 3, 48, 0
5, 56644, Note_on_c, 3, 49, 56
5, 56800, Note_off_c, 3, 49, 0
5, 56824, Note_on_c, 3, 48, 56
5, 56980, Note_off_c, 3, 48, 0
5, 57004, Note_on_c, 3, 50, 57
5, 57160, Note_off_c, 3, 50, 0
5, 57184, Note_on_c, 3, 52, 58
5, 57340, Note_off_c, 3, 52, 0
5, 57368, Note_on_c, 3, 53, 59
5, 57520, Note_off_c, 3, 53, 0
5, 57544, Note_on_c, 3, 41, 51
5, 57704, Note_off_c, 3, 41, 0
5, 57908, Note_on_c, 3, 53, 59
5, 58064, Note_off_c, 3, 53, 0
5, 58088, Note_on_c, 3, 46, 54
5, 58244, Note_off_c, 3, 46, 0
5, 58268, Note_on_c, 3, 45, 54
5, 58424, Note_off_c, 3, 45, 0
5, 58448, Note_on_c, 3, 47, 55
5, 58604, Note_off_c, 3, 47, 0
5, 58628, Note_on_c, 3, 49, 56
5, 58784, Note_off_c, 3, 49, 0
5, 58808, Note_on_c, 3, 50, 57
5, 58976, Note_off_c, 3, 50, 0
5, 59000, Note_on_c, 3, 38, 50
5, 59152, Note_off_c, 3, 38, 0
5, 59372, Note_on_c, 3, 50, 57
5, 59528, Note_off_c, 3, 50, 0
5, 59552, Note_on_c, 3, 51, 58
5, 59708, Note_off_c, 3, 51, 0
5, 59732, Note_on_c, 3, 50, 57
5, 59888, Note_off_c, 3, 50, 0
5, 59912, Note_on_c, 3, 52, 58
5, 60068, Note_off_c, 3, 52, 0
5, 60096, Note_on_c, 3, 54, 60
5, 60248, Note_off_c, 3, 54, 0
5, 60272, Note_on_c, 3, 55, 60
5, 60432, Note_off_c, 3, 55, 0
5, 60456, Note_on_c, 3, 43, 53
5, 60612, Note_off_c, 3, 43, 0
5, 60816, Note_on_c, 3, 55, 60
5, 60972, Note_off_c, 3, 55, 0
5, 60996, Note_on_c, 3, 48, 56
5, 61152, Note_off_c, 3, 48, 0
5, 61176, Note_on_c, 3, 47, 55
5, 61332, Note_off_c, 3, 47, 0
5, 61356, Note_on_c, 3, 49, 56
5, 61512, Note_off_c, 3, 49, 0
5, 61536, Note_on_c, 3, 51, 58
5, 61692, Note_off_c, 3, 51, 0
5, 61720, Note_on_c, 3, 52, 60
5, 62224, Note_off_c, 3, 52, 0
5, 62284, Note_on_c, 3, 52, 58
5, 62440, Note_off_c, 3, 52, 0
5, 62464, Note_on_c, 3, 53, 59
5, 62620, Note_off_c, 3, 53, 0
5, 62644, Note_on_c, 3, 55, 60
5, 62800, Note_off_c, 3, 55, 0
5, 62824, Note_on_c, 3, 57, 63
5, 63668, Note_off_c, 3, 57, 0
5, 63728, Note_on_c, 3, 57, 62
5, 63884, Note_off_c, 3, 57, 0
5, 63908, Note_on_c, 3, 55, 60
5, 64064, Note_off_c, 3, 55, 0
5, 64088, Note_on_c, 3, 53, 59
5, 64244, Note_off_c, 3, 53, 0
5, 64268, Note_on_c, 3, 52, 60
5, 64808, Note_off_c, 3, 52, 0
5, 64832, Note_on_c, 3, 53, 59
5, 64988, Note_off_c, 3, 53, 0
5, 65016, Note_on_c, 3, 52, 58
5, 65168, Note_off_c, 3, 52, 0
5, 65196, Note_on_c, 3, 50, 57
5, 65352, Note_off_c, 3, 50, 0
5, 65376, Note_on_c, 3, 48, 57
5, 65740, Note_off_c, 3, 48, 0
5, 65748, Note_on_c, 3, 52, 60
5, 66100, Note_off_c, 3, 52, 0
5, 66108, Note_on_c, 3, 45, 55
5, 66472, Note_off_c, 3, 45, 0
5, 73376, Note_on_c, 3, 48, 58
5, 74096, Note_off_c, 3, 48, 0
5, 74096, Note_on_c, 3, 43, 54
5, 74820, Note_off_c, 3, 43, 0
5, 74820, Note_on_c, 3, 46, 56
5, 75552, Note_off_c, 3, 46, 0
5, 75552, Note_on_c, 3, 50, 59
5, 76288, Note_off_c, 3, 50, 0
5, 76288, Note_on_c, 3, 51, 60
5, 76960, Note_off_c, 3, 51, 0
5, 77020, Note_on_c, 3, 50, 58
5, 77372, Note_off_c, 3, 50, 0
5, 77380, Note_on_c, 3, 48, 57
5, 77744, Note_off_c, 3, 48, 0
5, 77752, Note_on_c, 3, 46, 56
5, 78608, Note_off_c, 3, 46, 0
5, 78668, Note_on_c, 3, 45, 54
5, 78824, Note_off_c, 3, 45, 0
5, 78848, Note_on_c, 3, 47, 55
5, 79004, Note_off_c, 3, 47, 0
5, 79028, Note_on_c, 3, 49, 56
5, 79184, Note_off_c, 3, 49, 0
5, 79208, Note_on_c, 3, 50, 58
5, 79524, Note_off_c, 3, 50, 0
5, 79584, Note_on_c, 3, 52, 58
5, 79736, Note_off_c, 3, 52, 0
5, 79764, Note_on_c, 3, 54, 60
5, 79920, Note_off_c, 3, 54, 0
5, 79944, Note_on_c, 3, 55, 63
5, 80664, Note_off_c, 3, 55, 0
5, 80664, Note_on_c, 3, 50, 59
5, 81340, Note_off_c, 3, 50, 0
5, 81400, Note_on_c, 3, 48, 56
5, 81556, Note_off_c, 3, 48, 0
5, 81580, Note_on_c, 3, 50, 57
5, 81736, Note_off_c, 3, 50, 0
5, 81760, Note_on_c, 3, 52, 60
5, 82300, Note_off_c, 3, 52, 0
5, 82324, Note_on_c, 3, 55, 60
5, 82480, Note_off_c, 3, 55, 0
5, 82504, Note_on_c, 3, 53, 59
5, 82660, Note_off_c, 3, 53, 0
5, 82688, Note_on_c, 3, 52, 58
5, 82840, Note_off_c, 3, 52, 0
5, 82864, Note_on_c, 3, 50, 58
5, 83228, Note_off_c, 3, 50, 0
5, 83240, Note_on_c, 3, 49, 58
5, 83592, Note_off_c, 3, 49, 0
5, 83600, Note_on_c, 3, 50, 59
5, 84456, Note_off_c, 3, 50, 0
5, 84512, Note_on_c, 3, 48, 58
5, 84832, Note_off_c, 3, 48, 0
5, 84888, Note_on_c, 3, 47, 57
5, 85044, Note_off_c, 3, 47, 0
5, 85068, Note_on_c, 3, 45, 56
5, 85740, Note_off_c, 3, 45, 0
5, 85800, Note_on_c, 3, 43, 53
5, 85956, Note_off_c, 3, 43, 0
5, 85980, Note_on_c, 3, 45, 54
5, 86136, Note_off_c, 3, 45, 0
5, 86160, Note_on_c, 3, 46, 56
5, 86464, Note_off_c, 3, 46, 0
5, 86524, Note_on_c, 3, 45, 54
5, 86680, Note_off_c, 3, 45, 0
5, 86704, Note_on_c, 3, 50, 57
5, 86860, Note_off_c, 3, 50, 0
5, 86884, Note_on_c, 3, 52, 58
5, 87040, Note_off_c, 3, 52, 0
5, 87064, Note_on_c, 3, 54, 60
5, 87220, Note_off_c, 3, 54, 0
5, 87244, Note_on_c, 3, 55, 62
5, 87596, Note_off_c, 3, 55, 0
5, 87608, Note_on_c, 3, 56, 63
5, 87920, Note_off_c, 3, 56, 0
5, 87980, Note_on_c, 3, 57, 62
5, 88136, Note_off_c, 3, 57, 0
5, 88160, Note_on_c, 3, 58, 63
5, 88316, Note_off_c, 3, 58, 0
5, 88340, Note_on_c, 3, 57, 62
5, 88496, Note_off_c, 3, 57, 0
5, 88520, Note_on_c, 3, 55, 60
5, 88676, Note_off_c, 3, 55, 0
5, 88700, Note_on_c, 3, 54, 61
5, 89028, Note_off_c, 3, 54, 0
5, 89084, Note_on_c, 3, 55, 60
5, 89240, Note_off_c, 3, 55, 0
5, 89264, Note_on_c, 3, 57, 62
5, 89420, Note_off_c, 3, 57, 0
5, 89448, Note_on_c, 3, 58, 63
5, 89600, Note_off_c, 3, 58, 0
5, 89624, Note_on_c, 3, 60, 64
5, 89784, Note_off_c, 3, 60, 0
5, 89808, Note_on_c, 3, 58, 63
5, 89964, Note_off_c, 3, 58, 0
5, 89988, Note_on_c, 3, 57, 62
5, 90144, Note_off_c, 3, 57, 0
5, 90168, Note_on_c, 3, 55, 60
5, 90324, Note_off_c, 3, 55, 0
5, 90348, Note_on_c, 3, 53, 59
5, 90504, Note_off_c, 3, 53, 0
5, 90528, Note_on_c, 3, 52, 58
5, 90684, Note_off_c, 3, 52, 0
5, 90708, Note_on_c, 3, 50, 57
5, 90876, Note_off_c, 3, 50, 0
5, 90904, Note_on_c, 3, 49, 58
5, 91256, Note_off_c, 3, 49, 0
5, 91264, Note_on_c, 3, 48, 58
5, 91936, Note_off_c, 3, 48, 0
5, 91996, Note_on_c, 3, 47, 55
5, 92152, Note_off_c, 3, 47, 0
5, 92176, Note_on_c, 3, 46, 54
5, 92332, Note_off_c, 3, 46, 0
5, 92356, Note_on_c, 3, 45, 54
5, 92512, Note_off_c, 3, 45, 0
5, 92536, Note_on_c, 3, 44, 53
5, 92696, Note_off_c, 3, 44, 0
5, 92720, Note_on_c, 3, 45, 54
5, 92872, Note_off_c, 3, 45, 0
5, 92900, Note_on_c, 3, 47, 55
5, 93056, Note_off_c, 3, 47, 0
5, 93080, Note_on_c, 3, 48, 57
5, 93444, Note_off_c, 3, 48, 0
5, 93452, Note_on_c, 3, 49, 58
5, 94128, Note_off_c, 3, 49, 0
5, 94184, Note_on_c, 3, 50, 57
5, 94340, Note_off_c, 3, 50, 0
5, 94368, Note_on_c, 3, 52, 58
5, 94520, Note_off_c, 3, 52, 0
5, 94548, Note_on_c, 3, 53, 60
5, 94900, Note_off_c, 3, 53, 0
5, 94908, Note_on_c, 3, 52, 60
5, 95436, Note_off_c, 3, 52, 0
5, 95460, Note_on_c, 3, 45, 54
5, 95616, Note_off_c, 3, 45, 0
5, 95640, Note_on_c, 3, 47, 55
5, 95796, Note_off_c, 3, 47, 0
5, 95824, Note_on_c, 3, 49, 56
5, 95976, Note_off_c, 3, 49, 0
5, 96000, Note_on_c, 3, 50, 59
5, 96904, Note_off_c, 3, 50, 0
5, 96928, Note_on_c, 3, 48, 56
5, 97084, Note_off_c, 3, 48, 0
5, 97108, Note_on_c, 3, 46, 54
5, 97264, Note_off_c, 3, 46, 0
5, 97288, Note_on_c, 3, 45, 54
5, 97444, Note_off_c, 3, 45, 0
5, 97472, Note_on_c, 3, 46, 56
5, 98360, Note_off_c, 3, 46, 0
5, 98384, Note_on_c, 3, 45, 54
5, 98540, Note_off_c, 3, 45, 0
5, 98564, Note_on_c, 3, 46, 54
5, 98720, Note_off_c, 3, 46, 0
5, 98744, Note_on_c, 3, 43, 53
5, 98912, Note_off_c, 3, 43, 0
5, 98936, Note_on_c, 3, 50, 59
5, 101116, Note_off_c, 3, 50, 0
5, 101116, Note_on_c, 3, 50, 59
5, 102512, Note_off_c, 3, 50, 0
5, 102568, Note_on_c, 3, 50, 59
5, 103484, Note_off_c, 3, 50, 0
5, 103484, Note_on_c, 3, 45, 54
5, 103640, Note_off_c, 3, 45, 0
5, 103664, Note_on_c, 3, 46, 54
5, 103820, Note_off_c, 3, 46, 0
5, 103848, Note_on_c, 3, 43, 53
5, 104000, Note_off_c, 3, 43, 0
5, 104024, Note_on_c, 3, 38, 51
5, 105912, Note_off_c, 3, 38, 64
5, 105912, End_track
6, 0, Start_track
6, 0, Key_signature, 0, "major"
6, 0, End_track
7, 0, Start_track
7, 0, Key_signature, 0, "major"
7, 0, End_track
8, 0, Start_track
8, 0, Key_signature, 0, "major"
8, 0, End_track
9, 0, Start_track
9, 1, Copyright_t, "___________________________________________________\012\012KUNSTDERFUGE.COM LARGE CLASSICAL MIDI COLLECTION\012ONCLASSICAL BY ALESSANDRO SIMONETTO, PROPRIETOR\012___________________________________________________\012\012! Attention: this file is under copyright !\012\012(c)onclassical, (c)onclassical, 2010\012___________________________________________________\012\012NO ONE MAY REPUBLISH THIS FILE WITHOUT PERMISSION\012COMMERCIAL USES OF THIS FILE IS STRICTLY PROHIBITED\012___________________________________________________\012\012Files & contributor's list: http://kunstderfuge.com/\012Terms and conditions: http://kunstderfuge.com/notes.htm"
9, 1, End_track
0, 0, End_of_file