0, 0, Header, 1, 10, 384
1, 0, Start_track
1, 0, Time_signature, 6, 3, 96, 8
1, 0, Sequencer_specific, 03, 00, 00, 41
1, 0, Sequencer_specific, 05, 00, 00, 77, 0E, 00
1, 0, Tempo, 571428
1, 8, Tempo, 571428
1, 18, Tempo, 566037
1, 28, Tempo, 566037
1, 38, Tempo, 560747
1, 48, Tempo, 560747
1, 56, Tempo, 555555
1, 66, Tempo, 555555
1, 76, Tempo, 550458
1, 86, Tempo, 550458
1, 96, Tempo, 545454
1, 104, Tempo, 545454
1, 114, Tempo, 540540
1, 124, Tempo, 540540
1, 134, Tempo, 535714
1, 144, Tempo, 535714
1, 152, Tempo, 530973
1, 162, Tempo, 530973
1, 172, Tempo, 526315
1, 182, Tempo, 526315
1, 192, Tempo, 521739
1, 200, Tempo, 521739
1, 210, Tempo, 517241
1, 220, Tempo, 517241
1, 230, Tempo, 512820
1, 240, Tempo, 512820
1, 248, Tempo, 508474
1, 258, Tempo, 508474
1, 268, Tempo, 504201
1, 278, Tempo, 504201
1, 288, Tempo, 500000
1, 4032, Tempo, 600000
1, 4034, Tempo, 600000
1, 4036, Tempo, 594059
1, 4038, Tempo, 594059
1, 4040, Tempo, 588235
1, 4044, Tempo, 588235
1, 4046, Tempo, 582524
1, 4048, Tempo, 582524
1, 4050, Tempo, 576923
1, 4052, Tempo, 576923
1, 4056, Tempo, 571428
1, 4058, Tempo, 571428
1, 4060, Tempo, 566037
1, 4062, Tempo, 566037
1, 4064, Tempo, 560747
1, 4068, Tempo, 560747
1, 4070, Tempo, 555555
1, 4072, Tempo, 555555
1, 4074, Tempo, 550458
1, 4076, Tempo, 550458
1, 4080, Tempo, 545454
1, 4082, Tempo, 545454
1, 4084, Tempo, 540540
1, 4086, Tempo, 540540
1, 4088, Tempo, 535714
1, 4092, Tempo, 535714
1, 4094, Tempo, 530973
1, 4096, Tempo, 530973
1, 4098, Tempo, 526315
1, 4100, Tempo, 526315
1, 4104, Tempo, 521739
1, 4106, Tempo, 521739
1, 4108, Tempo, 517241
1, 4110, Tempo, 517241
1, 4112, Tempo, 512820
1, 4116, Tempo, 512820
1, 4118, Tempo, 508474
1, 4120, Tempo, 508474
1, 4122, Tempo, 504201
1, 4124, Tempo, 504201
1, 4128, Tempo, 500000
1, 17568, Tempo, 500000
1, 17574, Tempo, 504201
1, 17580, Tempo, 504201
1, 17586, Tempo, 508474
1, 17592, Tempo, 508474
1, 17600, Tempo, 512820
1, 17606, Tempo, 512820
1, 17612, Tempo, 517241
1, 17618, Tempo, 517241
1, 17624, Tempo, 521739
1, 17632, Tempo, 521739
1, 17638, Tempo, 526315
1, 17644, Tempo, 526315
1, 17650, Tempo, 530973
1, 17656, Tempo, 530973
1, 17664, Tempo, 535714
1, 17670, Tempo, 535714
1, 17676, Tempo, 540540
1, 17682, Tempo, 540540
1, 17688, Tempo, 545454
1, 17696, Tempo, 545454
1, 17702, Tempo, 550458
1, 17708, Tempo, 550458
1, 17714, Tempo, 555555
1, 17720, Tempo, 555555
1, 17728, Tempo, 560747
1, 17734, Tempo, 560747
1, 17740, Tempo, 566037
1, 17746, Tempo, 566037
1, 17752, Tempo, 571428
1, 17760, Tempo, 571428
1, 18432, Tempo, 571428
1, 18440, Tempo, 571428
1, 18450, Tempo, 566037
1, 18460, Tempo, 566037
1, 18470, Tempo, 560747
1, 18480, Tempo, 560747
1, 18488, Tempo, 555555
1, 18498, Tempo, 555555
1, 18508, Tempo, 550458
1, 18518, Tempo, 550458
1, 18528, Tempo, 545454
1, 18536, Tempo, 545454
1, 18546, Tempo, 540540
1, 18556, Tempo, 540540
1, 18566, Tempo, 535714
1, 18576, Tempo, 535714
1, 18584, Tempo, 530973
1, 18594, Tempo, 530973
1, 18604, Tempo, 526315
1, 18614, Tempo, 526315
1, 18624, Tempo, 521739
1, 18632, Tempo, 521739
1, 18642, Tempo, 517241
1, 18652, Tempo, 517241
1, 18662, Tempo, 512820
1, 18672, Tempo, 512820
1, 18680, Tempo, 508474
1, 18690, Tempo, 508474
1, 18700, Tempo, 504201
1, 18710, Tempo, 504201
1, 18720, Tempo, 500000
1, 21888, Tempo, 500000
1, 22464, Tempo, 600000
1, 22466, Tempo, 600000
1, 22468, Tempo, 594059
1, 22470, Tempo, 594059
1, 22472, Tempo, 588235
1, 22476, Tempo, 588235
1, 22478, Tempo, 582524
1, 22480, Tempo, 582524
1, 22482, Tempo, 576923
1, 22484, Tempo, 576923
1, 22488, Tempo, 571428
1, 22490, Tempo, 571428
1, 22492, Tempo, 566037
1, 22494, Tempo, 566037
1, 22496, Tempo, 560747
1, 22500, Tempo, 560747
1, 22502, Tempo, 555555
1, 22504, Tempo, 555555
1, 22506, Tempo, 550458
1, 22508, Tempo, 550458
1, 22512, Tempo, 545454
1, 22514, Tempo, 545454
1, 22516, Tempo, 540540
1, 22518, Tempo, 540540
1, 22520, Tempo, 535714
1, 22524, Tempo, 535714
1, 22526, Tempo, 530973
1, 22528, Tempo, 530973
1, 22530, Tempo, 526315
1, 22532, Tempo, 526315
1, 22536, Tempo, 521739
1, 22538, Tempo, 521739
1, 22540, Tempo, 517241
1, 22542, Tempo, 517241
1, 22544, Tempo, 512820
1, 22548, Tempo, 512820
1, 22550, Tempo, 508474
1, 22552, Tempo, 508474
1, 22554, Tempo, 504201
1, 22556, Tempo, 504201
1, 22560, Tempo, 500000
1, 23904, Tempo, 500000
1, 36000, Tempo, 500000
1, 36006, Tempo, 504201
1, 36014, Tempo, 504201
1, 36020, Tempo, 508474
1, 36028, Tempo, 508474
1, 36036, Tempo, 512820
1, 36042, Tempo, 512820
1, 36050, Tempo, 517241
1, 36056, Tempo, 517241
1, 36064, Tempo, 521739
1, 36072, Tempo, 521739
1, 36078, Tempo, 526315
1, 36086, Tempo, 526315
1, 36092, Tempo, 530973
1, 36100, Tempo, 530973
1, 36108, Tempo, 535714
1, 36114, Tempo, 535714
1, 36122, Tempo, 540540
1, 36128, Tempo, 540540
1, 36136, Tempo, 545454
1, 36144, Tempo, 545454
1, 36150, Tempo, 550458
1, 36158, Tempo, 550458
1, 36164, Tempo, 555555
1, 36172, Tempo, 555555
1, 36180, Tempo, 560747
1, 36186, Tempo, 560747
1, 36194, Tempo, 566037
1, 36200, Tempo, 566037
1, 36208, Tempo, 571428
1, 36216, Tempo, 571428
1, 36222, Tempo, 576923
1, 36230, Tempo, 576923
1, 36236, Tempo, 582524
1, 36244, Tempo, 582524
1, 36252, Tempo, 588235
1, 36258, Tempo, 588235
1, 36266, Tempo, 594059
1, 36272, Tempo, 594059
1, 36280, Tempo, 600000
1, 36288, Tempo, 600000
1, 36816, Tempo, 571428
1, 36824, Tempo, 571428
1, 36834, Tempo, 566037
1, 36844, Tempo, 566037
1, 36854, Tempo, 560747
1, 36864, Tempo, 560747
1, 36872, Tempo, 555555
1, 36882, Tempo, 555555
1, 36892, Tempo, 550458
1, 36902, Tempo, 550458
1, 36912, Tempo, 545454
1, 36920, Tempo, 545454
1, 36930, Tempo, 540540
1, 36940, Tempo, 540540
1, 36950, Tempo, 535714
1, 36960, Tempo, 535714
1, 36968, Tempo, 530973
1, 36978, Tempo, 530973
1, 36988, Tempo, 526315
1, 36998, Tempo, 526315
1, 37008, Tempo, 521739
1, 37016, Tempo, 521739
1, 37026, Tempo, 517241
1, 37036, Tempo, 517241
1, 37046, Tempo, 512820
1, 37056, Tempo, 512820
1, 37064, Tempo, 508474
1, 37074, Tempo, 508474
1, 37084, Tempo, 504201
1, 37094, Tempo, 504201
1, 37104, Tempo, 500000
1, 40896, Tempo, 571428
1, 40904, Tempo, 571428
1, 40914, Tempo, 566037
1, 40924, Tempo, 566037
1, 40934, Tempo, 560747
1, 40944, Tempo, 560747
1, 40952, Tempo, 555555
1, 40962, Tempo, 555555
1, 40972, Tempo, 550458
1, 40982, Tempo, 550458
1, 40992, Tempo, 545454
1, 41000, Tempo, 545454
1, 41010, Tempo, 540540
1, 41020, Tempo, 540540
1, 41030, Tempo, 535714
1, 41040, Tempo, 535714
1, 41048, Tempo, 530973
1, 41058, Tempo, 530973
1, 41068, Tempo, 526315
1, 41078, Tempo, 526315
1, 41088, Tempo, 521739
1, 41096, Tempo, 521739
1, 41106, Tempo, 517241
1, 41116, Tempo, 517241
1, 41126, Tempo, 512820
1, 41136, Tempo, 512820
1, 41144, Tempo, 508474
1, 41154, Tempo, 508474
1, 41164, Tempo, 504201
1, 41174, Tempo, 504201
1, 41184, Tempo, 500000
1, 44640, Tempo, 500000
1, 44648, Tempo, 504201
1, 44658, Tempo, 504201
1, 44668, Tempo, 508474
1, 44678, Tempo, 508474
1, 44688, Tempo, 512820
1, 44696, Tempo, 512820
1, 44706, Tempo, 517241
1, 44716, Tempo, 517241
1, 44726, Tempo, 521739
1, 44736, Tempo, 521739
1, 44744, Tempo, 526315
1, 44754, Tempo, 526315
1, 44764, Tempo, 530973
1, 44774, Tempo, 530973
1, 44784, Tempo, 535714
1, 44792, Tempo, 535714
1, 44802, Tempo, 540540
1, 44812, Tempo, 540540
1, 44822, Tempo, 545454
1, 44832, Tempo, 545454
1, 45792, Tempo, 545454
1, 45818, Tempo, 545454
1, 45844, Tempo, 540540
1, 45870, Tempo, 540540
1, 45896, Tempo, 535714
1, 45924, Tempo, 535714
1, 45950, Tempo, 530973
1, 45976, Tempo, 530973
1, 46002, Tempo, 526315
1, 46028, Tempo, 526315
1, 46056, Tempo, 521739
1, 46082, Tempo, 521739
1, 46108, Tempo, 517241
1, 46134, Tempo, 517241
1, 46160, Tempo, 512820
1, 46188, Tempo, 512820
1, 46214, Tempo, 508474
1, 46240, Tempo, 508474
1, 46266, Tempo, 504201
1, 46292, Tempo, 504201
1, 46320, Tempo, 500000
1, 50112, Tempo, 571428
1, 50114, Tempo, 571428
1, 50118, Tempo, 566037
1, 50120, Tempo, 566037
1, 50124, Tempo, 560747
1, 50128, Tempo, 560747
1, 50130, Tempo, 555555
1, 50134, Tempo, 555555
1, 50136, Tempo, 550458
1, 50140, Tempo, 550458
1, 50144, Tempo, 545454
1, 50146, Tempo, 545454
1, 50150, Tempo, 540540
1, 50152, Tempo, 540540
1, 50156, Tempo, 535714
1, 50160, Tempo, 535714
1, 50162, Tempo, 530973
1, 50166, Tempo, 530973
1, 50168, Tempo, 526315
1, 50172, Tempo, 526315
1, 50176, Tempo, 521739
1, 50178, Tempo, 521739
1, 50182, Tempo, 517241
1, 50184, Tempo, 517241
1, 50188, Tempo, 512820
1, 50192, Tempo, 512820
1, 50194, Tempo, 508474
1, 50198, Tempo, 508474
1, 50200, Tempo, 504201
1, 50204, Tempo, 504201
1, 50208, Tempo, 500000
1, 54432, Tempo, 500000
1, 54440, Tempo, 504201
1, 54450, Tempo, 504201
1, 54460, Tempo, 508474
1, 54470, Tempo, 508474
1, 54480, Tempo, 512820
1, 54488, Tempo, 512820
1, 54498, Tempo, 517241
1, 54508, Tempo, 517241
1, 54518, Tempo, 521739
1, 54528, Tempo, 521739
1, 54536, Tempo, 526315
1, 54546, Tempo, 526315
1, 54556, Tempo, 530973
1, 54566, Tempo, 530973
1, 54576, Tempo, 535714
1, 54584, Tempo, 535714
1, 54594, Tempo, 540540
1, 54604, Tempo, 540540
1, 54614, Tempo, 545454
1, 54624, Tempo, 545454
1, 55248, Tempo, 545454
1, 55262, Tempo, 545454
1, 55276, Tempo, 540540
1, 55290, Tempo, 540540
1, 55304, Tempo, 535714
1, 55320, Tempo, 535714
1, 55334, Tempo, 530973
1, 55348, Tempo, 530973
1, 55362, Tempo, 526315
1, 55376, Tempo, 526315
1, 55392, Tempo, 521739
1, 55406, Tempo, 521739
1, 55420, Tempo, 517241
1, 55434, Tempo, 517241
1, 55448, Tempo, 512820
1, 55464, Tempo, 512820
1, 55478, Tempo, 508474
1, 55492, Tempo, 508474
1, 55506, Tempo, 504201
1, 55520, Tempo, 504201
1, 55536, Tempo, 500000
1, 63648, Tempo, 500000
1, 63654, Tempo, 504201
1, 63660, Tempo, 504201
1, 63666, Tempo, 508474
1, 63672, Tempo, 508474
1, 63680, Tempo, 512820
1, 63686, Tempo, 512820
1, 63692, Tempo, 517241
1, 63698, Tempo, 517241
1, 63704, Tempo, 521739
1, 63712, Tempo, 521739
1, 63718, Tempo, 526315
1, 63724, Tempo, 526315
1, 63730, Tempo, 530973
1, 63736, Tempo, 530973
1, 63744, Tempo, 535714
1, 63750, Tempo, 535714
1, 63756, Tempo, 540540
1, 63762, Tempo, 540540
1, 63768, Tempo, 545454
1, 63776, Tempo, 545454
1, 63782, Tempo, 550458
1, 63788, Tempo, 550458
1, 63794, Tempo, 555555
1, 63800, Tempo, 555555
1, 63808, Tempo, 560747
1, 63814, Tempo, 560747
1, 63820, Tempo, 566037
1, 63826, Tempo, 566037
1, 63832, Tempo, 571428
1, 63840, Tempo, 571428
1, 64224, Tempo, 545454
1, 64250, Tempo, 545454
1, 64276, Tempo, 540540
1, 64302, Tempo, 540540
1, 64328, Tempo, 535714
1, 64356, Tempo, 535714
1, 64382, Tempo, 530973
1, 64408, Tempo, 530973
1, 64434, Tempo, 526315
1, 64460, Tempo, 526315
1, 64488, Tempo, 521739
1, 64514, Tempo, 521739
1, 64540, Tempo, 517241
1, 64566, Tempo, 517241
1, 64592, Tempo, 512820
1, 64620, Tempo, 512820
1, 64646, Tempo, 508474
1, 64672, Tempo, 508474
1, 64698, Tempo, 504201
1, 64724, Tempo, 504201
1, 64752, Tempo, 500000
1, 68544, Tempo, 571428
1, 68546, Tempo, 571428
1, 68550, Tempo, 566037
1, 68552, Tempo, 566037
1, 68556, Tempo, 560747
1, 68560, Tempo, 560747
1, 68562, Tempo, 555555
1, 68566, Tempo, 555555
1, 68568, Tempo, 550458
1, 68572, Tempo, 550458
1, 68576, Tempo, 545454
1, 68578, Tempo, 545454
1, 68582, Tempo, 540540
1, 68584, Tempo, 540540
1, 68588, Tempo, 535714
1, 68592, Tempo, 535714
1, 68594, Tempo, 530973
1, 68598, Tempo, 530973
1, 68600, Tempo, 526315
1, 68604, Tempo, 526315
1, 68608, Tempo, 521739
1, 68610, Tempo, 521739
1, 68614, Tempo, 517241
1, 68616, Tempo, 517241
1, 68620, Tempo, 512820
1, 68624, Tempo, 512820
1, 68626, Tempo, 508474
1, 68630, Tempo, 508474
1, 68632, Tempo, 504201
1, 68636, Tempo, 504201
1, 68640, Tempo, 500000
1, 71424, Tempo, 500000
1, 71462, Tempo, 504201
1, 71500, Tempo, 504201
1, 71538, Tempo, 508474
1, 71576, Tempo, 508474
1, 71616, Tempo, 512820
1, 71654, Tempo, 512820
1, 71692, Tempo, 517241
1, 71730, Tempo, 517241
1, 71768, Tempo, 521739
1, 71808, Tempo, 521739
1, 71846, Tempo, 526315
1, 71884, Tempo, 526315
1, 71922, Tempo, 530973
1, 71960, Tempo, 530973
1, 72000, Tempo, 535714
1, 72038, Tempo, 535714
1, 72076, Tempo, 540540
1, 72114, Tempo, 540540
1, 72152, Tempo, 545454
1, 72192, Tempo, 545454
1, 72230, Tempo, 550458
1, 72268, Tempo, 550458
1, 72306, Tempo, 555555
1, 72344, Tempo, 555555
1, 72384, Tempo, 560747
1, 72422, Tempo, 560747
1, 72460, Tempo, 566037
1, 72498, Tempo, 566037
1, 72536, Tempo, 571428
1, 72576, Tempo, 666666
1, 72588, Tempo, 576923
1, 72600, Tempo, 576923
1, 72614, Tempo, 582524
1, 72626, Tempo, 582524
1, 72640, Tempo, 588235
1, 72652, Tempo, 588235
1, 72664, Tempo, 594059
1, 72678, Tempo, 594059
1, 72690, Tempo, 600000
1, 72704, Tempo, 600000
1, 72716, Tempo, 606060
1, 72728, Tempo, 606060
1, 72742, Tempo, 612244
1, 72754, Tempo, 612244
1, 72768, Tempo, 618556
1, 72780, Tempo, 618556
1, 72792, Tempo, 625000
1, 72806, Tempo, 625000
1, 72818, Tempo, 631578
1, 72832, Tempo, 631578
1, 72844, Tempo, 638297
1, 72856, Tempo, 638297
1, 72870, Tempo, 645161
1, 72882, Tempo, 645161
1, 72896, Tempo, 652173
1, 72908, Tempo, 652173
1, 72920, Tempo, 659340
1, 72934, Tempo, 659340
1, 72946, Tempo, 666666
1, 72960, Tempo, 666666
1, 72962, Tempo, 674157
1, 72964, Tempo, 674157
1, 72966, Tempo, 681818
1, 72968, Tempo, 681818
1, 72972, Tempo, 689655
1, 72974, Tempo, 689655
1, 72976, Tempo, 697674
1, 72978, Tempo, 697674
1, 72980, Tempo, 705882
1, 72984, Tempo, 705882
1, 72986, Tempo, 714285
1, 72988, Tempo, 714285
1, 72990, Tempo, 722891
1, 72992, Tempo, 722891
1, 72996, Tempo, 731707
1, 72998, Tempo, 731707
1, 73000, Tempo, 740740
1, 73002, Tempo, 740740
1, 73004, Tempo, 750000
1, 73008, Tempo, 750000
1, 73010, Tempo, 759493
1, 73012, Tempo, 759493
1, 73014, Tempo, 769230
1, 73016, Tempo, 769230
1, 73020, Tempo, 779220
1, 73022, Tempo, 779220
1, 73024, Tempo, 789473
1, 73026, Tempo, 789473
1, 73028, Tempo, 800000
1, 73032, Tempo, 800000
1, 73034, Tempo, 810810
1, 73036, Tempo, 810810
1, 73038, Tempo, 821917
1, 73040, Tempo, 821917
1, 73044, Tempo, 833333
1, 73046, Tempo, 833333
1, 73048, Tempo, 845070
1, 73050, Tempo, 845070
1, 73052, Tempo, 857142
1, 73056, Tempo, 857142
1, 73058, Tempo, 869565
1, 73060, Tempo, 869565
1, 73062, Tempo, 882352
1, 73064, Tempo, 882352
1, 73068, Tempo, 895522
1, 73070, Tempo, 895522
1, 73072, Tempo, 909090
1, 73074, Tempo, 909090
1, 73076, Tempo, 923076
1, 73080, Tempo, 923076
1, 73082, Tempo, 937500
1, 73084, Tempo, 937500
1, 73086, Tempo, 952380
1, 73088, Tempo, 952380
1, 73092, Tempo, 967741
1, 73094, Tempo, 967741
1, 73096, Tempo, 983606
1, 73098, Tempo, 983606
1, 73100, Tempo, 1000000
1, 73104, Tempo, 1000000
1, 73106, Tempo, 1016949
1, 73108, Tempo, 1016949
1, 73110, Tempo, 1034482
1, 73112, Tempo, 1034482
1, 73116, Tempo, 1052631
1, 73118, Tempo, 1052631
1, 73120, Tempo, 1071428
1, 73122, Tempo, 1071428
1, 73124, Tempo, 1090909
1, 73128, Tempo, 1090909
1, 73130, Tempo, 1111111
1, 73132, Tempo, 1111111
1, 73134, Tempo, 1132075
1, 73136, Tempo, 1132075
1, 73140, Tempo, 1153846
1, 73142, Tempo, 1153846
1, 73144, Tempo, 1176470
1, 73146, Tempo, 1176470
1, 73148, Tempo, 1200000
1, 73152, Tempo, 1200000
1, 73152, End_track
2, 0, Start_track
2, 0, Title_t, "Johann Sebastian Bach"
2, 0, Control_c, 0, 0, 0
2, 0, Program_c, 0, 6
2, 0, Control_c, 0, 7, 127
2, 0, Control_c, 0, 10, 42
2, 0, Control_c, 0, 91, 127
2, 0, Key_signature, 1, "major"
2, 0, Note_on_c, 0, 71, 112
2, 192, Note_off_c, 0, 71, 100
2, 288, Note_on_c, 0, 69, 112
2, 316, Note_off_c, 0, 69, 100
2, 384, Note_on_c, 0, 71, 112
2, 444, Note_off_c, 0, 71, 100
2, 576, Note_on_c, 0, 62, 112
2, 768, Note_off_c, 0, 62, 100
2, 864, Note_on_c, 0, 67, 112
2, 892, Note_off_c, 0, 67, 100
2, 960, Note_on_c, 0, 71, 112
2, 1020, Note_off_c, 0, 71, 100
2, 1104, Note_on_c, 0, 71, 112
2, 1148, Note_off_c, 0, 71, 100
2, 1152, Note_on_c, 0, 69, 112
2, 1196, Note_off_c, 0, 69, 100
2, 1200, Note_on_c, 0, 71, 112
2, 1244, Note_off_c, 0, 71, 100
2, 1248, Note_on_c, 0, 69, 112
2, 1376, Note_off_c, 0, 69, 100
2, 1440, Note_on_c, 0, 67, 112
2, 1468, Note_off_c, 0, 67, 100
2, 1536, Note_on_c, 0, 69, 112
2, 1596, Note_off_c, 0, 69, 100
2, 1728, Note_on_c, 0, 74, 112
2, 2112, Note_off_c, 0, 74, 100
2, 2304, Note_on_c, 0, 79, 112
2, 2348, Note_off_c, 0, 79, 100
2, 2352, Note_on_c, 0, 78, 112
2, 2396, Note_off_c, 0, 78, 100
2, 2400, Note_on_c, 0, 79, 112
2, 2528, Note_off_c, 0, 79, 100
2, 2592, Note_on_c, 0, 78, 112
2, 2620, Note_off_c, 0, 78, 100
2, 2688, Note_on_c, 0, 79, 112
2, 2748, Note_off_c, 0, 79, 100
2, 2880, Note_on_c, 0, 69, 112
2, 3072, Note_off_c, 0, 69, 100
2, 3168, Note_on_c, 0, 76, 112
2, 3196, Note_off_c, 0, 76, 100
2, 3264, Note_on_c, 0, 79, 112
2, 3324, Note_off_c, 0, 79, 100
2, 3408, Note_on_c, 0, 79, 112
2, 3452, Note_off_c, 0, 79, 100
2, 3456, Note_on_c, 0, 78, 112
2, 3500, Note_off_c, 0, 78, 100
2, 3504, Note_on_c, 0, 79, 112
2, 3548, Note_off_c, 0, 79, 100
2, 3552, Note_on_c, 0, 78, 112
2, 3680, Note_off_c, 0, 78, 100
2, 3744, Note_on_c, 0, 76, 112
2, 3772, Note_off_c, 0, 76, 100
2, 3840, Note_on_c, 0, 78, 112
2, 3900, Note_off_c, 0, 78, 100
2, 4032, Note_on_c, 0, 74, 112
2, 4796, Note_off_c, 0, 74, 100
2, 4992, Note_on_c, 0, 76, 112
2, 5036, Note_off_c, 0, 76, 100
2, 5040, Note_on_c, 0, 78, 112
2, 5084, Note_off_c, 0, 78, 100
2, 5088, Note_on_c, 0, 79, 112
2, 5132, Note_off_c, 0, 79, 100
2, 5136, Note_on_c, 0, 81, 112
2, 5180, Note_off_c, 0, 81, 100
2, 5184, Note_on_c, 0, 83, 112
2, 5376, Note_off_c, 0, 83, 100
2, 5472, Note_on_c, 0, 79, 112
2, 5500, Note_off_c, 0, 79, 100
2, 5568, Note_on_c, 0, 74, 112
2, 5628, Note_off_c, 0, 74, 100
2, 5760, Note_on_c, 0, 76, 112
2, 6016, Note_off_c, 0, 76, 100
2, 6144, Note_on_c, 0, 78, 112
2, 6188, Note_off_c, 0, 78, 100
2, 6192, Note_on_c, 0, 79, 112
2, 6236, Note_off_c, 0, 79, 100
2, 6240, Note_on_c, 0, 81, 112
2, 6284, Note_off_c, 0, 81, 100
2, 6288, Note_on_c, 0, 83, 112
2, 6332, Note_off_c, 0, 83, 100
2, 6336, Note_on_c, 0, 84, 112
2, 6528, Note_off_c, 0, 84, 100
2, 6624, Note_on_c, 0, 81, 112
2, 6652, Note_off_c, 0, 81, 100
2, 6720, Note_on_c, 0, 76, 112
2, 6780, Note_off_c, 0, 76, 100
2, 6912, Note_on_c, 0, 78, 112
2, 7104, Note_off_c, 0, 78, 100
2, 7200, Note_on_c, 0, 74, 112
2, 7228, Note_off_c, 0, 74, 100
2, 7296, Note_on_c, 0, 79, 112
2, 7356, Note_off_c, 0, 79, 100
2, 7488, Note_on_c, 0, 69, 112
2, 7680, Note_off_c, 0, 69, 100
2, 7776, Note_on_c, 0, 71, 112
2, 7804, Note_off_c, 0, 71, 100
2, 7872, Note_on_c, 0, 72, 112
2, 7932, Note_off_c, 0, 72, 100
2, 8064, Note_on_c, 0, 72, 112
2, 8252, Note_off_c, 0, 72, 100
2, 8256, Note_on_c, 0, 71, 112
2, 8920, Note_off_c, 0, 71, 100
2, 8928, Note_on_c, 0, 69, 112
2, 9020, Note_off_c, 0, 69, 100
2, 9024, Note_on_c, 0, 67, 112
2, 9116, Note_off_c, 0, 67, 100
2, 9120, Note_on_c, 0, 66, 112
2, 9212, Note_off_c, 0, 66, 100
2, 9216, Note_on_c, 0, 67, 112
2, 9472, Note_off_c, 0, 67, 100
2, 9600, Note_on_c, 0, 74, 112
2, 9660, Note_off_c, 0, 74, 100
2, 9792, Note_on_c, 0, 79, 112
2, 9836, Note_off_c, 0, 79, 100
2, 9840, Note_on_c, 0, 78, 112
2, 9884, Note_off_c, 0, 78, 100
2, 9888, Note_on_c, 0, 79, 112
2, 10552, Note_off_c, 0, 79, 100
2, 10560, Note_on_c, 0, 81, 112
2, 10652, Note_off_c, 0, 81, 100
2, 10656, Note_on_c, 0, 79, 112
2, 10748, Note_off_c, 0, 79, 100
2, 10752, Note_on_c, 0, 78, 112
2, 10844, Note_off_c, 0, 78, 100
2, 10848, Note_on_c, 0, 76, 112
2, 10940, Note_off_c, 0, 76, 100
2, 10944, Note_on_c, 0, 78, 112
2, 10988, Note_off_c, 0, 78, 100
2, 10992, Note_on_c, 0, 76, 112
2, 11036, Note_off_c, 0, 76, 100
2, 11040, Note_on_c, 0, 78, 112
2, 11704, Note_off_c, 0, 78, 100
2, 11808, Note_on_c, 0, 79, 112
2, 11836, Note_off_c, 0, 79, 100
2, 11904, Note_on_c, 0, 78, 112
2, 11964, Note_off_c, 0, 78, 100
2, 12096, Note_on_c, 0, 76, 112
2, 12288, Note_off_c, 0, 76, 100
2, 12384, Note_on_c, 0, 73, 112
2, 12412, Note_off_c, 0, 73, 100
2, 12480, Note_on_c, 0, 74, 112
2, 12540, Note_off_c, 0, 74, 100
2, 12624, Note_on_c, 0, 74, 112
2, 12668, Note_off_c, 0, 74, 100
2, 12672, Note_on_c, 0, 73, 112
2, 12716, Note_off_c, 0, 73, 100
2, 12720, Note_on_c, 0, 74, 112
2, 12764, Note_off_c, 0, 74, 100
2, 12768, Note_on_c, 0, 73, 112
2, 12860, Note_off_c, 0, 73, 100
2, 12960, Note_on_c, 0, 74, 112
2, 12988, Note_off_c, 0, 74, 100
2, 13056, Note_on_c, 0, 76, 112
2, 13116, Note_off_c, 0, 76, 100
2, 13248, Note_on_c, 0, 69, 112
2, 14012, Note_off_c, 0, 69, 100
2, 14208, Note_on_c, 0, 71, 112
2, 14252, Note_off_c, 0, 71, 100
2, 14256, Note_on_c, 0, 73, 112
2, 14300, Note_off_c, 0, 73, 100
2, 14304, Note_on_c, 0, 74, 112
2, 14348, Note_off_c, 0, 74, 100
2, 14352, Note_on_c, 0, 76, 112
2, 14396, Note_off_c, 0, 76, 100
2, 14400, Note_on_c, 0, 78, 112
2, 14592, Note_off_c, 0, 78, 100
2, 14688, Note_on_c, 0, 74, 112
2, 14716, Note_off_c, 0, 74, 100
2, 14784, Note_on_c, 0, 69, 112
2, 14844, Note_off_c, 0, 69, 100
2, 14976, Note_on_c, 0, 71, 112
2, 15232, Note_off_c, 0, 71, 100
2, 15360, Note_on_c, 0, 73, 112
2, 15404, Note_off_c, 0, 73, 100
2, 15408, Note_on_c, 0, 74, 112
2, 15452, Note_off_c, 0, 74, 100
2, 15456, Note_on_c, 0, 76, 112
2, 15500, Note_off_c, 0, 76, 100
2, 15504, Note_on_c, 0, 78, 112
2, 15548, Note_off_c, 0, 78, 100
2, 15552, Note_on_c, 0, 79, 112
2, 15744, Note_off_c, 0, 79, 100
2, 15840, Note_on_c, 0, 76, 112
2, 15868, Note_off_c, 0, 76, 100
2, 15936, Note_on_c, 0, 71, 112
2, 15996, Note_off_c, 0, 71, 100
2, 16128, Note_on_c, 0, 71, 112
2, 16220, Note_off_c, 0, 71, 100
2, 16224, Note_on_c, 0, 73, 112
2, 16316, Note_off_c, 0, 73, 100
2, 16416, Note_on_c, 0, 69, 112
2, 16444, Note_off_c, 0, 69, 100
2, 16512, Note_on_c, 0, 81, 112
2, 16572, Note_off_c, 0, 81, 100
2, 16704, Note_on_c, 0, 74, 112
2, 16896, Note_off_c, 0, 74, 100
2, 16992, Note_on_c, 0, 76, 112
2, 17020, Note_off_c, 0, 76, 100
2, 17088, Note_on_c, 0, 73, 112
2, 17148, Note_off_c, 0, 73, 100
2, 17280, Note_on_c, 0, 73, 112
2, 17468, Note_off_c, 0, 73, 100
2, 17472, Note_on_c, 0, 74, 112
2, 18240, Note_off_c, 0, 74, 100
2, 18432, Note_on_c, 0, 71, 112
2, 18624, Note_off_c, 0, 71, 100
2, 18720, Note_on_c, 0, 69, 112
2, 18748, Note_off_c, 0, 69, 100
2, 18816, Note_on_c, 0, 71, 112
2, 18876, Note_off_c, 0, 71, 100
2, 19008, Note_on_c, 0, 62, 112
2, 19200, Note_off_c, 0, 62, 100
2, 19296, Note_on_c, 0, 67, 112
2, 19324, Note_off_c, 0, 67, 100
2, 19392, Note_on_c, 0, 71, 112
2, 19452, Note_off_c, 0, 71, 100
2, 19536, Note_on_c, 0, 71, 112
2, 19580, Note_off_c, 0, 71, 100
2, 19584, Note_on_c, 0, 69, 112
2, 19628, Note_off_c, 0, 69, 100
2, 19632, Note_on_c, 0, 71, 112
2, 19676, Note_off_c, 0, 71, 100
2, 19680, Note_on_c, 0, 69, 112
2, 19808, Note_off_c, 0, 69, 100
2, 19872, Note_on_c, 0, 67, 112
2, 19900, Note_off_c, 0, 67, 100
2, 19968, Note_on_c, 0, 69, 112
2, 20028, Note_off_c, 0, 69, 100
2, 20160, Note_on_c, 0, 74, 112
2, 20544, Note_off_c, 0, 74, 100
2, 20736, Note_on_c, 0, 79, 112
2, 20780, Note_off_c, 0, 79, 100
2, 20784, Note_on_c, 0, 78, 112
2, 20828, Note_off_c, 0, 78, 100
2, 20832, Note_on_c, 0, 79, 112
2, 20960, Note_off_c, 0, 79, 100
2, 21024, Note_on_c, 0, 78, 112
2, 21052, Note_off_c, 0, 78, 100
2, 21120, Note_on_c, 0, 79, 112
2, 21180, Note_off_c, 0, 79, 100
2, 21312, Note_on_c, 0, 69, 112
2, 21504, Note_off_c, 0, 69, 100
2, 21600, Note_on_c, 0, 76, 112
2, 21628, Note_off_c, 0, 76, 100
2, 21696, Note_on_c, 0, 79, 112
2, 21756, Note_off_c, 0, 79, 100
2, 21840, Note_on_c, 0, 79, 112
2, 21884, Note_off_c, 0, 79, 100
2, 21888, Note_on_c, 0, 78, 112
2, 21932, Note_off_c, 0, 78, 100
2, 21936, Note_on_c, 0, 79, 112
2, 21980, Note_off_c, 0, 79, 100
2, 21984, Note_on_c, 0, 78, 112
2, 22112, Note_off_c, 0, 78, 100
2, 22176, Note_on_c, 0, 76, 112
2, 22204, Note_off_c, 0, 76, 100
2, 22272, Note_on_c, 0, 78, 112
2, 22332, Note_off_c, 0, 78, 100
2, 22464, Note_on_c, 0, 74, 112
2, 23228, Note_off_c, 0, 74, 100
2, 23424, Note_on_c, 0, 76, 112
2, 23468, Note_off_c, 0, 76, 100
2, 23472, Note_on_c, 0, 78, 112
2, 23516, Note_off_c, 0, 78, 100
2, 23520, Note_on_c, 0, 79, 112
2, 23564, Note_off_c, 0, 79, 100
2, 23568, Note_on_c, 0, 81, 112
2, 23612, Note_off_c, 0, 81, 100
2, 23616, Note_on_c, 0, 83, 112
2, 23808, Note_off_c, 0, 83, 100
2, 23904, Note_on_c, 0, 79, 112
2, 23932, Note_off_c, 0, 79, 100
2, 24000, Note_on_c, 0, 74, 112
2, 24060, Note_off_c, 0, 74, 100
2, 24144, Note_on_c, 0, 74, 112
2, 24188, Note_off_c, 0, 74, 100
2, 24192, Note_on_c, 0, 76, 112
2, 24236, Note_off_c, 0, 76, 100
2, 24240, Note_on_c, 0, 74, 112
2, 24284, Note_off_c, 0, 74, 100
2, 24288, Note_on_c, 0, 76, 112
2, 24476, Note_off_c, 0, 76, 100
2, 24576, Note_on_c, 0, 78, 112
2, 24620, Note_off_c, 0, 78, 100
2, 24624, Note_on_c, 0, 79, 112
2, 24668, Note_off_c, 0, 79, 100
2, 24672, Note_on_c, 0, 81, 112
2, 24716, Note_off_c, 0, 81, 100
2, 24720, Note_on_c, 0, 83, 112
2, 24764, Note_off_c, 0, 83, 100
2, 24768, Note_on_c, 0, 84, 112
2, 24960, Note_off_c, 0, 84, 100
2, 25056, Note_on_c, 0, 81, 112
2, 25084, Note_off_c, 0, 81, 100
2, 25152, Note_on_c, 0, 76, 112
2, 25212, Note_off_c, 0, 76, 100
2, 25296, Note_on_c, 0, 76, 112
2, 25340, Note_off_c, 0, 76, 100
2, 25344, Note_on_c, 0, 78, 112
2, 25388, Note_off_c, 0, 78, 100
2, 25392, Note_on_c, 0, 76, 112
2, 25436, Note_off_c, 0, 76, 100
2, 25440, Note_on_c, 0, 78, 112
2, 25532, Note_off_c, 0, 78, 100
2, 25632, Note_on_c, 0, 74, 112
2, 25660, Note_off_c, 0, 74, 100
2, 25728, Note_on_c, 0, 79, 112
2, 25788, Note_off_c, 0, 79, 100
2, 25920, Note_on_c, 0, 69, 112
2, 26112, Note_off_c, 0, 69, 100
2, 26208, Note_on_c, 0, 71, 112
2, 26236, Note_off_c, 0, 71, 100
2, 26304, Note_on_c, 0, 72, 112
2, 26364, Note_off_c, 0, 72, 100
2, 26496, Note_on_c, 0, 72, 112
2, 26684, Note_off_c, 0, 72, 100
2, 26688, Note_on_c, 0, 71, 112
2, 27352, Note_off_c, 0, 71, 100
2, 27360, Note_on_c, 0, 69, 112
2, 27452, Note_off_c, 0, 69, 100
2, 27456, Note_on_c, 0, 67, 112
2, 27548, Note_off_c, 0, 67, 100
2, 27552, Note_on_c, 0, 66, 112
2, 27644, Note_off_c, 0, 66, 100
2, 27648, Note_on_c, 0, 67, 112
2, 27904, Note_off_c, 0, 67, 100
2, 28032, Note_on_c, 0, 74, 112
2, 28092, Note_off_c, 0, 74, 100
2, 28224, Note_on_c, 0, 79, 112
2, 28268, Note_off_c, 0, 79, 100
2, 28272, Note_on_c, 0, 78, 112
2, 28316, Note_off_c, 0, 78, 100
2, 28320, Note_on_c, 0, 79, 112
2, 28984, Note_off_c, 0, 79, 100
2, 28992, Note_on_c, 0, 81, 112
2, 29084, Note_off_c, 0, 81, 100
2, 29088, Note_on_c, 0, 79, 112
2, 29180, Note_off_c, 0, 79, 100
2, 29184, Note_on_c, 0, 78, 112
2, 29276, Note_off_c, 0, 78, 100
2, 29280, Note_on_c, 0, 76, 112
2, 29372, Note_off_c, 0, 76, 100
2, 29376, Note_on_c, 0, 78, 112
2, 29420, Note_off_c, 0, 78, 100
2, 29424, Note_on_c, 0, 76, 112
2, 29468, Note_off_c, 0, 76, 100
2, 29472, Note_on_c, 0, 78, 112
2, 30136, Note_off_c, 0, 78, 100
2, 30240, Note_on_c, 0, 79, 112
2, 30268, Note_off_c, 0, 79, 100
2, 30336, Note_on_c, 0, 78, 112
2, 30396, Note_off_c, 0, 78, 100
2, 30480, Note_on_c, 0, 78, 112
2, 30524, Note_off_c, 0, 78, 100
2, 30528, Note_on_c, 0, 76, 112
2, 30572, Note_off_c, 0, 76, 100
2, 30576, Note_on_c, 0, 78, 112
2, 30620, Note_off_c, 0, 78, 100
2, 30624, Note_on_c, 0, 76, 112
2, 30716, Note_off_c, 0, 76, 100
2, 30816, Note_on_c, 0, 73, 112
2, 30844, Note_off_c, 0, 73, 100
2, 30912, Note_on_c, 0, 74, 112
2, 30972, Note_off_c, 0, 74, 100
2, 31056, Note_on_c, 0, 74, 112
2, 31100, Note_off_c, 0, 74, 100
2, 31104, Note_on_c, 0, 73, 112
2, 31148, Note_off_c, 0, 73, 100
2, 31152, Note_on_c, 0, 74, 112
2, 31196, Note_off_c, 0, 74, 100
2, 31200, Note_on_c, 0, 73, 112
2, 31292, Note_off_c, 0, 73, 100
2, 31392, Note_on_c, 0, 74, 112
2, 31420, Note_off_c, 0, 74, 100
2, 31488, Note_on_c, 0, 76, 112
2, 31548, Note_off_c, 0, 76, 100
2, 31680, Note_on_c, 0, 69, 112
2, 32444, Note_off_c, 0, 69, 100
2, 32640, Note_on_c, 0, 71, 112
2, 32684, Note_off_c, 0, 71, 100
2, 32688, Note_on_c, 0, 73, 112
2, 32732, Note_off_c, 0, 73, 100
2, 32736, Note_on_c, 0, 74, 112
2, 32780, Note_off_c, 0, 74, 100
2, 32784, Note_on_c, 0, 76, 112
2, 32828, Note_off_c, 0, 76, 100
2, 32832, Note_on_c, 0, 78, 112
2, 33024, Note_off_c, 0, 78, 100
2, 33120, Note_on_c, 0, 74, 112
2, 33148, Note_off_c, 0, 74, 100
2, 33216, Note_on_c, 0, 69, 112
2, 33276, Note_off_c, 0, 69, 100
2, 33360, Note_on_c, 0, 69, 112
2, 33404, Note_off_c, 0, 69, 100
2, 33408, Note_on_c, 0, 71, 112
2, 33452, Note_off_c, 0, 71, 100
2, 33456, Note_on_c, 0, 69, 112
2, 33500, Note_off_c, 0, 69, 100
2, 33504, Note_on_c, 0, 71, 112
2, 33692, Note_off_c, 0, 71, 100
2, 33792, Note_on_c, 0, 73, 112
2, 33836, Note_off_c, 0, 73, 100
2, 33840, Note_on_c, 0, 74, 112
2, 33884, Note_off_c, 0, 74, 100
2, 33888, Note_on_c, 0, 76, 112
2, 33932, Note_off_c, 0, 76, 100
2, 33936, Note_on_c, 0, 78, 112
2, 33980, Note_off_c, 0, 78, 100
2, 33984, Note_on_c, 0, 79, 112
2, 34176, Note_off_c, 0, 79, 100
2, 34272, Note_on_c, 0, 76, 112
2, 34300, Note_off_c, 0, 76, 100
2, 34368, Note_on_c, 0, 71, 112
2, 34428, Note_off_c, 0, 71, 100
2, 34560, Note_on_c, 0, 71, 112
2, 34652, Note_off_c, 0, 71, 100
2, 34656, Note_on_c, 0, 73, 112
2, 34748, Note_off_c, 0, 73, 100
2, 34848, Note_on_c, 0, 69, 112
2, 34876, Note_off_c, 0, 69, 100
2, 34944, Note_on_c, 0, 81, 112
2, 35004, Note_off_c, 0, 81, 100
2, 35088, Note_on_c, 0, 76, 112
2, 35132, Note_off_c, 0, 76, 100
2, 35136, Note_on_c, 0, 74, 112
2, 35180, Note_off_c, 0, 74, 100
2, 35184, Note_on_c, 0, 76, 112
2, 35228, Note_off_c, 0, 76, 100
2, 35232, Note_on_c, 0, 74, 112
2, 35324, Note_off_c, 0, 74, 100
2, 35424, Note_on_c, 0, 76, 112
2, 35452, Note_off_c, 0, 76, 100
2, 35520, Note_on_c, 0, 73, 112
2, 35580, Note_off_c, 0, 73, 100
2, 35712, Note_on_c, 0, 73, 112
2, 35900, Note_off_c, 0, 73, 100
2, 35904, Note_on_c, 0, 74, 112
2, 36672, Note_off_c, 0, 74, 100
2, 36816, Note_on_c, 0, 79, 112
2, 36860, Note_off_c, 0, 79, 100
2, 36864, Note_on_c, 0, 78, 112
2, 36908, Note_off_c, 0, 78, 100
2, 36912, Note_on_c, 0, 79, 112
2, 36956, Note_off_c, 0, 79, 100
2, 36960, Note_on_c, 0, 78, 112
2, 37052, Note_off_c, 0, 78, 100
2, 37152, Note_on_c, 0, 76, 112
2, 37180, Note_off_c, 0, 76, 100
2, 37248, Note_on_c, 0, 78, 112
2, 37308, Note_off_c, 0, 78, 100
2, 37440, Note_on_c, 0, 69, 112
2, 37632, Note_off_c, 0, 69, 100
2, 37728, Note_on_c, 0, 74, 112
2, 37756, Note_off_c, 0, 74, 100
2, 37824, Note_on_c, 0, 78, 112
2, 37884, Note_off_c, 0, 78, 100
2, 38016, Note_on_c, 0, 79, 112
2, 38208, Note_off_c, 0, 79, 100
2, 38304, Note_on_c, 0, 78, 112
2, 38332, Note_off_c, 0, 78, 100
2, 38400, Note_on_c, 0, 79, 112
2, 38460, Note_off_c, 0, 79, 100
2, 38592, Note_on_c, 0, 83, 112
2, 38976, Note_off_c, 0, 83, 100
2, 39168, Note_on_c, 0, 76, 112
2, 39424, Note_off_c, 0, 76, 100
2, 39552, Note_on_c, 0, 78, 112
2, 39596, Note_off_c, 0, 78, 100
2, 39600, Note_on_c, 0, 79, 112
2, 39644, Note_off_c, 0, 79, 100
2, 39648, Note_on_c, 0, 81, 112
2, 39692, Note_off_c, 0, 81, 100
2, 39696, Note_on_c, 0, 83, 112
2, 39740, Note_off_c, 0, 83, 100
2, 39744, Note_on_c, 0, 84, 112
2, 39772, Note_off_c, 0, 84, 100
2, 39840, Note_on_c, 0, 83, 112
2, 39868, Note_off_c, 0, 83, 100
2, 39936, Note_on_c, 0, 81, 112
2, 39964, Note_off_c, 0, 81, 100
2, 40032, Note_on_c, 0, 79, 112
2, 40060, Note_off_c, 0, 79, 100
2, 40128, Note_on_c, 0, 78, 112
2, 40156, Note_off_c, 0, 78, 100
2, 40224, Note_on_c, 0, 76, 112
2, 40252, Note_off_c, 0, 76, 100
2, 40272, Note_on_c, 0, 76, 112
2, 40316, Note_off_c, 0, 76, 100
2, 40320, Note_on_c, 0, 75, 112
2, 40364, Note_off_c, 0, 75, 100
2, 40368, Note_on_c, 0, 76, 112
2, 40412, Note_off_c, 0, 76, 100
2, 40416, Note_on_c, 0, 75, 112
2, 40508, Note_off_c, 0, 75, 100
2, 40608, Note_on_c, 0, 73, 112
2, 40636, Note_off_c, 0, 73, 100
2, 40704, Note_on_c, 0, 75, 112
2, 40764, Note_off_c, 0, 75, 100
2, 40896, Note_on_c, 0, 71, 112
2, 41760, Note_on_c, 0, 83, 112
2, 41788, Note_off_c, 0, 83, 100
2, 41856, Note_on_c, 0, 78, 112
2, 41916, Note_off_c, 0, 78, 100
2, 42048, Note_on_c, 0, 79, 112
2, 42240, Note_off_c, 0, 79, 100
2, 42336, Note_on_c, 0, 75, 112
2, 42364, Note_off_c, 0, 75, 100
2, 42428, Note_off_c, 0, 71, 100
2, 42432, Note_on_c, 0, 76, 112
2, 42492, Note_off_c, 0, 76, 100
2, 42624, Note_on_c, 0, 72, 112
2, 42816, Note_off_c, 0, 72, 100
2, 42912, Note_on_c, 0, 76, 112
2, 42940, Note_off_c, 0, 76, 100
2, 43008, Note_on_c, 0, 80, 112
2, 43068, Note_off_c, 0, 80, 100
2, 43200, Note_on_c, 0, 81, 112
2, 43456, Note_off_c, 0, 81, 100
2, 43584, Note_on_c, 0, 83, 112
2, 43628, Note_off_c, 0, 83, 100
2, 43632, Note_on_c, 0, 81, 112
2, 43676, Note_off_c, 0, 81, 100
2, 43680, Note_on_c, 0, 79, 112
2, 43724, Note_off_c, 0, 79, 100
2, 43728, Note_on_c, 0, 78, 112
2, 43772, Note_off_c, 0, 78, 100
2, 43776, Note_on_c, 0, 79, 112
2, 43968, Note_off_c, 0, 79, 100
2, 44064, Note_on_c, 0, 81, 112
2, 44092, Note_off_c, 0, 81, 100
2, 44160, Note_on_c, 0, 83, 112
2, 44220, Note_off_c, 0, 83, 100
2, 44352, Note_on_c, 0, 76, 112
2, 44544, Note_off_c, 0, 76, 100
2, 44640, Note_on_c, 0, 78, 112
2, 44668, Note_off_c, 0, 78, 100
2, 44736, Note_on_c, 0, 75, 112
2, 44796, Note_off_c, 0, 75, 100
2, 44928, Note_on_c, 0, 76, 112
2, 45120, Note_off_c, 0, 76, 100
2, 45216, Note_on_c, 0, 71, 112
2, 45244, Note_off_c, 0, 71, 100
2, 45312, Note_on_c, 0, 67, 112
2, 45372, Note_off_c, 0, 67, 100
2, 45504, Note_on_c, 0, 64, 112
2, 45760, Note_off_c, 0, 64, 100
2, 45888, Note_on_c, 0, 71, 112
2, 45948, Note_off_c, 0, 71, 100
2, 46080, Note_on_c, 0, 71, 112
2, 46272, Note_off_c, 0, 71, 100
2, 46368, Note_on_c, 0, 68, 112
2, 46396, Note_off_c, 0, 68, 100
2, 46464, Note_on_c, 0, 69, 112
2, 46524, Note_off_c, 0, 69, 100
2, 46656, Note_on_c, 0, 74, 112
2, 46844, Note_off_c, 0, 74, 100
2, 46848, Note_on_c, 0, 76, 112
2, 46940, Note_off_c, 0, 76, 100
2, 46944, Note_on_c, 0, 74, 112
2, 47036, Note_off_c, 0, 74, 100
2, 47040, Note_on_c, 0, 72, 112
2, 47132, Note_off_c, 0, 72, 100
2, 47136, Note_on_c, 0, 71, 112
2, 47228, Note_off_c, 0, 71, 100
2, 47232, Note_on_c, 0, 72, 112
2, 47424, Note_off_c, 0, 72, 100
2, 47520, Note_on_c, 0, 76, 112
2, 47548, Note_off_c, 0, 76, 100
2, 47616, Note_on_c, 0, 74, 112
2, 47676, Note_off_c, 0, 74, 100
2, 47808, Note_on_c, 0, 76, 112
2, 48000, Note_off_c, 0, 76, 100
2, 48096, Note_on_c, 0, 79, 112
2, 48124, Note_off_c, 0, 79, 100
2, 48192, Note_on_c, 0, 78, 112
2, 48252, Note_off_c, 0, 78, 100
2, 48384, Note_on_c, 0, 79, 112
2, 48512, Note_off_c, 0, 79, 100
2, 48576, Note_on_c, 0, 81, 112
2, 48668, Note_off_c, 0, 81, 100
2, 48672, Note_on_c, 0, 79, 112
2, 48764, Note_off_c, 0, 79, 100
2, 48768, Note_on_c, 0, 78, 112
2, 48860, Note_off_c, 0, 78, 100
2, 48864, Note_on_c, 0, 76, 112
2, 48956, Note_off_c, 0, 76, 100
2, 48960, Note_on_c, 0, 81, 112
2, 49152, Note_off_c, 0, 81, 100
2, 49248, Note_on_c, 0, 83, 112
2, 49276, Note_off_c, 0, 83, 100
2, 49344, Note_on_c, 0, 79, 112
2, 49404, Note_off_c, 0, 79, 100
2, 49488, Note_on_c, 0, 79, 112
2, 49532, Note_off_c, 0, 79, 100
2, 49536, Note_on_c, 0, 78, 112
2, 49580, Note_off_c, 0, 78, 100
2, 49584, Note_on_c, 0, 79, 112
2, 49628, Note_off_c, 0, 79, 100
2, 49632, Note_on_c, 0, 78, 112
2, 49724, Note_off_c, 0, 78, 100
2, 49824, Note_on_c, 0, 76, 112
2, 49852, Note_off_c, 0, 76, 100
2, 49920, Note_on_c, 0, 78, 112
2, 49980, Note_off_c, 0, 78, 100
2, 50112, Note_on_c, 0, 74, 112
2, 50876, Note_off_c, 0, 74, 100
2, 51072, Note_on_c, 0, 76, 112
2, 51116, Note_off_c, 0, 76, 100
2, 51120, Note_on_c, 0, 78, 112
2, 51164, Note_off_c, 0, 78, 100
2, 51168, Note_on_c, 0, 79, 112
2, 51212, Note_off_c, 0, 79, 100
2, 51216, Note_on_c, 0, 81, 112
2, 51260, Note_off_c, 0, 81, 100
2, 51264, Note_on_c, 0, 83, 112
2, 51456, Note_off_c, 0, 83, 100
2, 51552, Note_on_c, 0, 79, 112
2, 51580, Note_off_c, 0, 79, 100
2, 51648, Note_on_c, 0, 74, 112
2, 51708, Note_off_c, 0, 74, 100
2, 51840, Note_on_c, 0, 76, 112
2, 52096, Note_off_c, 0, 76, 100
2, 52224, Note_on_c, 0, 78, 112
2, 52256, Note_off_c, 0, 78, 100
2, 52272, Note_on_c, 0, 79, 112
2, 52304, Note_off_c, 0, 79, 100
2, 52320, Note_on_c, 0, 81, 112
2, 52352, Note_off_c, 0, 81, 100
2, 52368, Note_on_c, 0, 83, 112
2, 52400, Note_off_c, 0, 83, 100
2, 52416, Note_on_c, 0, 84, 112
2, 52608, Note_off_c, 0, 84, 100
2, 52704, Note_on_c, 0, 81, 112
2, 52732, Note_off_c, 0, 81, 100
2, 52800, Note_on_c, 0, 76, 112
2, 52860, Note_off_c, 0, 76, 100
2, 52992, Note_on_c, 0, 78, 112
2, 53184, Note_off_c, 0, 78, 100
2, 53280, Note_on_c, 0, 74, 112
2, 53308, Note_off_c, 0, 74, 100
2, 53376, Note_on_c, 0, 86, 112
2, 53436, Note_off_c, 0, 86, 100
2, 53568, Note_on_c, 0, 79, 112
2, 53760, Note_off_c, 0, 79, 100
2, 53856, Note_on_c, 0, 81, 112
2, 53884, Note_off_c, 0, 81, 100
2, 53952, Note_on_c, 0, 78, 112
2, 54012, Note_off_c, 0, 78, 100
2, 54144, Note_on_c, 0, 79, 112
2, 55106, Note_off_c, 0, 79, 100
2, 55248, Note_on_c, 0, 79, 112
2, 55292, Note_off_c, 0, 79, 100
2, 55296, Note_on_c, 0, 78, 112
2, 55340, Note_off_c, 0, 78, 100
2, 55344, Note_on_c, 0, 79, 112
2, 55388, Note_off_c, 0, 79, 100
2, 55392, Note_on_c, 0, 78, 112
2, 55484, Note_off_c, 0, 78, 100
2, 55584, Note_on_c, 0, 76, 112
2, 55612, Note_off_c, 0, 76, 100
2, 55680, Note_on_c, 0, 78, 112
2, 55740, Note_off_c, 0, 78, 100
2, 55872, Note_on_c, 0, 69, 112
2, 56064, Note_off_c, 0, 69, 100
2, 56160, Note_on_c, 0, 74, 112
2, 56188, Note_off_c, 0, 74, 100
2, 56256, Note_on_c, 0, 78, 112
2, 56316, Note_off_c, 0, 78, 100
2, 56448, Note_on_c, 0, 79, 112
2, 56640, Note_off_c, 0, 79, 100
2, 56736, Note_on_c, 0, 78, 112
2, 56764, Note_off_c, 0, 78, 100
2, 56832, Note_on_c, 0, 79, 112
2, 56892, Note_off_c, 0, 79, 100
2, 57024, Note_on_c, 0, 83, 112
2, 57408, Note_off_c, 0, 83, 100
2, 57600, Note_on_c, 0, 76, 112
2, 57856, Note_off_c, 0, 76, 100
2, 57984, Note_on_c, 0, 78, 112
2, 58028, Note_off_c, 0, 78, 100
2, 58032, Note_on_c, 0, 79, 112
2, 58076, Note_off_c, 0, 79, 100
2, 58080, Note_on_c, 0, 81, 112
2, 58124, Note_off_c, 0, 81, 100
2, 58128, Note_on_c, 0, 83, 112
2, 58172, Note_off_c, 0, 83, 100
2, 58176, Note_on_c, 0, 84, 112
2, 58204, Note_off_c, 0, 84, 100
2, 58272, Note_on_c, 0, 83, 112
2, 58300, Note_off_c, 0, 83, 100
2, 58368, Note_on_c, 0, 81, 112
2, 58396, Note_off_c, 0, 81, 100
2, 58464, Note_on_c, 0, 79, 112
2, 58492, Note_off_c, 0, 79, 100
2, 58560, Note_on_c, 0, 78, 112
2, 58588, Note_off_c, 0, 78, 100
2, 58656, Note_on_c, 0, 76, 112
2, 58684, Note_off_c, 0, 76, 100
2, 58704, Note_on_c, 0, 76, 112
2, 58748, Note_off_c, 0, 76, 100
2, 58752, Note_on_c, 0, 75, 112
2, 58796, Note_off_c, 0, 75, 100
2, 58800, Note_on_c, 0, 76, 112
2, 58844, Note_off_c, 0, 76, 100
2, 58848, Note_on_c, 0, 75, 112
2, 58940, Note_off_c, 0, 75, 100
2, 59040, Note_on_c, 0, 73, 112
2, 59068, Note_off_c, 0, 73, 100
2, 59136, Note_on_c, 0, 75, 112
2, 59196, Note_off_c, 0, 75, 100
2, 59328, Note_on_c, 0, 71, 112
2, 60192, Note_on_c, 0, 83, 112
2, 60220, Note_off_c, 0, 83, 100
2, 60288, Note_on_c, 0, 78, 112
2, 60348, Note_off_c, 0, 78, 100
2, 60480, Note_on_c, 0, 79, 112
2, 60672, Note_off_c, 0, 79, 100
2, 60768, Note_on_c, 0, 75, 112
2, 60796, Note_off_c, 0, 75, 100
2, 60860, Note_off_c, 0, 71, 100
2, 60864, Note_on_c, 0, 76, 112
2, 60924, Note_off_c, 0, 76, 100
2, 61056, Note_on_c, 0, 72, 112
2, 61248, Note_off_c, 0, 72, 100
2, 61344, Note_on_c, 0, 76, 112
2, 61372, Note_off_c, 0, 76, 100
2, 61440, Note_on_c, 0, 80, 112
2, 61500, Note_off_c, 0, 80, 100
2, 61632, Note_on_c, 0, 81, 112
2, 61888, Note_off_c, 0, 81, 100
2, 62016, Note_on_c, 0, 83, 112
2, 62060, Note_off_c, 0, 83, 100
2, 62064, Note_on_c, 0, 81, 112
2, 62108, Note_off_c, 0, 81, 100
2, 62112, Note_on_c, 0, 79, 112
2, 62156, Note_off_c, 0, 79, 100
2, 62160, Note_on_c, 0, 78, 112
2, 62204, Note_off_c, 0, 78, 100
2, 62208, Note_on_c, 0, 79, 112
2, 62400, Note_off_c, 0, 79, 100
2, 62496, Note_on_c, 0, 81, 112
2, 62524, Note_off_c, 0, 81, 100
2, 62592, Note_on_c, 0, 83, 112
2, 62652, Note_off_c, 0, 83, 100
2, 62784, Note_on_c, 0, 76, 112
2, 62976, Note_off_c, 0, 76, 100
2, 63072, Note_on_c, 0, 78, 112
2, 63100, Note_off_c, 0, 78, 100
2, 63168, Note_on_c, 0, 75, 112
2, 63228, Note_off_c, 0, 75, 100
2, 63312, Note_on_c, 0, 75, 112
2, 63356, Note_off_c, 0, 75, 100
2, 63360, Note_on_c, 0, 76, 112
2, 63404, Note_off_c, 0, 76, 100
2, 63408, Note_on_c, 0, 75, 112
2, 63452, Note_off_c, 0, 75, 100
2, 63456, Note_on_c, 0, 76, 112
2, 63548, Note_off_c, 0, 76, 100
2, 63648, Note_on_c, 0, 71, 112
2, 63676, Note_off_c, 0, 71, 100
2, 63744, Note_on_c, 0, 67, 112
2, 63804, Note_off_c, 0, 67, 100
2, 63936, Note_on_c, 0, 64, 112
2, 64192, Note_off_c, 0, 64, 100
2, 64320, Note_on_c, 0, 71, 112
2, 64380, Note_off_c, 0, 71, 100
2, 64512, Note_on_c, 0, 71, 112
2, 64704, Note_off_c, 0, 71, 100
2, 64800, Note_on_c, 0, 68, 112
2, 64828, Note_off_c, 0, 68, 100
2, 64896, Note_on_c, 0, 69, 112
2, 64956, Note_off_c, 0, 69, 100
2, 65088, Note_on_c, 0, 74, 112
2, 65276, Note_off_c, 0, 74, 100
2, 65280, Note_on_c, 0, 76, 112
2, 65372, Note_off_c, 0, 76, 100
2, 65376, Note_on_c, 0, 74, 112
2, 65468, Note_off_c, 0, 74, 100
2, 65472, Note_on_c, 0, 72, 112
2, 65564, Note_off_c, 0, 72, 100
2, 65568, Note_on_c, 0, 71, 112
2, 65660, Note_off_c, 0, 71, 100
2, 65664, Note_on_c, 0, 72, 112
2, 65856, Note_off_c, 0, 72, 100
2, 65952, Note_on_c, 0, 76, 112
2, 65980, Note_off_c, 0, 76, 100
2, 66048, Note_on_c, 0, 74, 112
2, 66108, Note_off_c, 0, 74, 100
2, 66240, Note_on_c, 0, 76, 112
2, 66284, Note_off_c, 0, 76, 100
2, 66288, Note_on_c, 0, 74, 112
2, 66332, Note_off_c, 0, 74, 100
2, 66336, Note_on_c, 0, 76, 112
2, 66428, Note_off_c, 0, 76, 100
2, 66528, Note_on_c, 0, 79, 112
2, 66556, Note_off_c, 0, 79, 100
2, 66624, Note_on_c, 0, 78, 112
2, 66684, Note_off_c, 0, 78, 100
2, 66816, Note_on_c, 0, 79, 112
2, 66944, Note_off_c, 0, 79, 100
2, 67008, Note_on_c, 0, 81, 112
2, 67100, Note_off_c, 0, 81, 100
2, 67104, Note_on_c, 0, 79, 112
2, 67196, Note_off_c, 0, 79, 100
2, 67200, Note_on_c, 0, 78, 112
2, 67292, Note_off_c, 0, 78, 100
2, 67296, Note_on_c, 0, 76, 112
2, 67388, Note_off_c, 0, 76, 100
2, 67392, Note_on_c, 0, 81, 112
2, 67584, Note_off_c, 0, 81, 100
2, 67680, Note_on_c, 0, 83, 112
2, 67708, Note_off_c, 0, 83, 100
2, 67776, Note_on_c, 0, 79, 112
2, 67836, Note_off_c, 0, 79, 100
2, 67920, Note_on_c, 0, 79, 112
2, 67964, Note_off_c, 0, 79, 100
2, 67968, Note_on_c, 0, 78, 112
2, 68012, Note_off_c, 0, 78, 100
2, 68016, Note_on_c, 0, 79, 112
2, 68060, Note_off_c, 0, 79, 100
2, 68064, Note_on_c, 0, 78, 112
2, 68156, Note_off_c, 0, 78, 100
2, 68256, Note_on_c, 0, 76, 112
2, 68284, Note_off_c, 0, 76, 100
2, 68352, Note_on_c, 0, 78, 112
2, 68412, Note_off_c, 0, 78, 100
2, 68544, Note_on_c, 0, 74, 112
2, 69308, Note_off_c, 0, 74, 100
2, 69504, Note_on_c, 0, 76, 112
2, 69548, Note_off_c, 0, 76, 100
2, 69552, Note_on_c, 0, 78, 112
2, 69596, Note_off_c, 0, 78, 100
2, 69600, Note_on_c, 0, 79, 112
2, 69644, Note_off_c, 0, 79, 100
2, 69648, Note_on_c, 0, 81, 112
2, 69692, Note_off_c, 0, 81, 100
2, 69696, Note_on_c, 0, 83, 112
2, 69888, Note_off_c, 0, 83, 100
2, 69984, Note_on_c, 0, 79, 112
2, 70012, Note_off_c, 0, 79, 100
2, 70080, Note_on_c, 0, 74, 112
2, 70140, Note_off_c, 0, 74, 100
2, 70224, Note_on_c, 0, 74, 112
2, 70268, Note_off_c, 0, 74, 100
2, 70272, Note_on_c, 0, 76, 112
2, 70316, Note_off_c, 0, 76, 100
2, 70320, Note_on_c, 0, 74, 112
2, 70364, Note_off_c, 0, 74, 100
2, 70368, Note_on_c, 0, 76, 112
2, 70556, Note_off_c, 0, 76, 100
2, 70656, Note_on_c, 0, 78, 112
2, 70688, Note_off_c, 0, 78, 100
2, 70704, Note_on_c, 0, 79, 112
2, 70736, Note_off_c, 0, 79, 100
2, 70752, Note_on_c, 0, 81, 112
2, 70784, Note_off_c, 0, 81, 100
2, 70800, Note_on_c, 0, 83, 112
2, 70832, Note_off_c, 0, 83, 100
2, 70848, Note_on_c, 0, 84, 112
2, 71040, Note_off_c, 0, 84, 100
2, 71136, Note_on_c, 0, 81, 112
2, 71164, Note_off_c, 0, 81, 100
2, 71232, Note_on_c, 0, 76, 112
2, 71292, Note_off_c, 0, 76, 100
2, 71376, Note_on_c, 0, 76, 112
2, 71420, Note_off_c, 0, 76, 100
2, 71424, Note_on_c, 0, 78, 112
2, 71468, Note_off_c, 0, 78, 100
2, 71472, Note_on_c, 0, 76, 112
2, 71516, Note_off_c, 0, 76, 100
2, 71520, Note_on_c, 0, 78, 112
2, 71612, Note_off_c, 0, 78, 100
2, 71712, Note_on_c, 0, 74, 112
2, 71740, Note_off_c, 0, 74, 100
2, 71808, Note_on_c, 0, 86, 112
2, 71868, Note_off_c, 0, 86, 100
2, 72000, Note_on_c, 0, 79, 112
2, 72192, Note_off_c, 0, 79, 100
2, 72288, Note_on_c, 0, 81, 112
2, 72316, Note_off_c, 0, 81, 100
2, 72384, Note_on_c, 0, 78, 112
2, 72444, Note_off_c, 0, 78, 100
2, 72576, Note_on_c, 0, 78, 112
2, 72764, Note_off_c, 0, 78, 100
2, 72768, Note_on_c, 0, 79, 112
2, 73536, Note_off_c, 0, 79, 100
2, 73536, End_track
3, 0, Start_track
3, 0, Title_t, "Goldberg Variations"
3, 0, Control_c, 1, 0, 0
3, 0, Program_c, 1, 6
3, 0, Control_c, 1, 7, 127
3, 0, Control_c, 1, 10, 87
3, 0, Control_c, 1, 91, 127
3, 0, Key_signature, 1, "major"
3, 0, Note_on_c, 1, 55, 112
3, 44, Note_off_c, 1, 55, 100
3, 48, Note_on_c, 1, 54, 112
3, 92, Note_off_c, 1, 54, 100
3, 96, Note_on_c, 1, 55, 112
3, 380, Note_off_c, 1, 55, 100
3, 384, Note_on_c, 1, 43, 112
3, 444, Note_off_c, 1, 43, 100
3, 576, Note_on_c, 1, 55, 112
3, 620, Note_off_c, 1, 55, 100
3, 624, Note_on_c, 1, 54, 112
3, 668, Note_off_c, 1, 54, 100
3, 672, Note_on_c, 1, 55, 112
3, 1436, Note_off_c, 1, 55, 100
3, 1680, Note_on_c, 1, 55, 112
3, 1724, Note_off_c, 1, 55, 100
3, 1728, Note_on_c, 1, 54, 112
3, 1772, Note_off_c, 1, 54, 100
3, 1776, Note_on_c, 1, 55, 112
3, 1820, Note_off_c, 1, 55, 100
3, 1824, Note_on_c, 1, 54, 112
3, 1952, Note_off_c, 1, 54, 100
3, 2016, Note_on_c, 1, 52, 112
3, 2044, Note_off_c, 1, 52, 100
3, 2112, Note_on_c, 1, 50, 112
3, 2172, Note_off_c, 1, 50, 100
3, 2304, Note_on_c, 1, 52, 112
3, 2684, Note_off_c, 1, 52, 100
3, 2688, Note_on_c, 1, 62, 112
3, 2748, Note_off_c, 1, 62, 100
3, 2880, Note_on_c, 1, 61, 112
3, 3260, Note_off_c, 1, 61, 100
3, 3264, Note_on_c, 1, 57, 112
3, 3324, Note_off_c, 1, 57, 100
3, 3456, Note_on_c, 1, 62, 112
3, 4220, Note_off_c, 1, 62, 100
3, 4320, Note_on_c, 1, 64, 112
3, 4348, Note_off_c, 1, 64, 100
3, 4416, Note_on_c, 1, 60, 112
3, 4476, Note_off_c, 1, 60, 100
3, 4608, Note_on_c, 1, 59, 112
3, 4800, Note_off_c, 1, 59, 100
3, 4896, Note_on_c, 1, 60, 112
3, 4924, Note_off_c, 1, 60, 100
3, 4992, Note_on_c, 1, 57, 112
3, 5052, Note_off_c, 1, 57, 100
3, 5184, Note_on_c, 1, 55, 112
3, 5376, Note_off_c, 1, 55, 100
3, 5472, Note_on_c, 1, 57, 112
3, 5500, Note_off_c, 1, 57, 100
3, 5568, Note_on_c, 1, 59, 112
3, 5628, Note_off_c, 1, 59, 100
3, 5760, Note_on_c, 1, 60, 112
3, 5952, Note_off_c, 1, 60, 100
3, 6048, Note_on_c, 1, 62, 112
3, 6076, Note_off_c, 1, 62, 100
3, 6144, Note_on_c, 1, 59, 112
3, 6204, Note_off_c, 1, 59, 100
3, 6336, Note_on_c, 1, 57, 112
3, 6528, Note_off_c, 1, 57, 100
3, 6624, Note_on_c, 1, 59, 112
3, 6652, Note_off_c, 1, 59, 100
3, 6720, Note_on_c, 1, 60, 112
3, 6780, Note_off_c, 1, 60, 100
3, 6912, Note_on_c, 1, 62, 112
3, 7104, Note_off_c, 1, 62, 100
3, 7200, Note_on_c, 1, 60, 112
3, 7228, Note_off_c, 1, 60, 100
3, 7296, Note_on_c, 1, 59, 112
3, 7356, Note_off_c, 1, 59, 100
3, 7488, Note_on_c, 1, 60, 112
3, 7868, Note_off_c, 1, 60, 100
3, 7872, Note_on_c, 1, 62, 112
3, 7932, Note_off_c, 1, 62, 100
3, 8064, Note_on_c, 1, 55, 112
3, 8256, Note_off_c, 1, 55, 100
3, 8352, Note_on_c, 1, 54, 112
3, 8380, Note_off_c, 1, 54, 100
3, 8448, Note_on_c, 1, 55, 112
3, 8508, Note_off_c, 1, 55, 100
3, 8640, Note_on_c, 1, 50, 112
3, 8832, Note_off_c, 1, 50, 100
3, 8928, Note_on_c, 1, 57, 112
3, 8956, Note_off_c, 1, 57, 100
3, 9024, Note_on_c, 1, 60, 112
3, 9084, Note_off_c, 1, 60, 100
3, 9168, Note_on_c, 1, 60, 112
3, 9212, Note_off_c, 1, 60, 100
3, 9216, Note_on_c, 1, 59, 112
3, 9260, Note_off_c, 1, 59, 100
3, 9264, Note_on_c, 1, 60, 112
3, 9308, Note_off_c, 1, 60, 100
3, 9312, Note_on_c, 1, 59, 112
3, 9404, Note_off_c, 1, 59, 100
3, 9504, Note_on_c, 1, 57, 112
3, 9532, Note_off_c, 1, 57, 100
3, 9600, Note_on_c, 1, 59, 112
3, 9660, Note_off_c, 1, 59, 100
3, 9792, Note_on_c, 1, 52, 112
3, 9984, Note_off_c, 1, 52, 100
3, 10080, Note_on_c, 1, 59, 112
3, 10108, Note_off_c, 1, 59, 100
3, 10176, Note_on_c, 1, 62, 112
3, 10236, Note_off_c, 1, 62, 100
3, 10320, Note_on_c, 1, 62, 112
3, 10364, Note_off_c, 1, 62, 100
3, 10368, Note_on_c, 1, 61, 112
3, 10412, Note_off_c, 1, 61, 100
3, 10416, Note_on_c, 1, 62, 112
3, 10460, Note_off_c, 1, 62, 100
3, 10464, Note_on_c, 1, 61, 112
3, 10556, Note_off_c, 1, 61, 100
3, 10656, Note_on_c, 1, 59, 112
3, 10684, Note_off_c, 1, 59, 100
3, 10752, Note_on_c, 1, 57, 112
3, 10812, Note_off_c, 1, 57, 100
3, 10944, Note_on_c, 1, 62, 112
3, 11136, Note_off_c, 1, 62, 100
3, 11232, Note_on_c, 1, 61, 112
3, 11260, Note_off_c, 1, 61, 100
3, 11328, Note_on_c, 1, 62, 112
3, 11388, Note_off_c, 1, 62, 100
3, 11520, Note_on_c, 1, 55, 112
3, 11712, Note_off_c, 1, 55, 100
3, 11808, Note_on_c, 1, 59, 112
3, 11836, Note_off_c, 1, 59, 100
3, 11904, Note_on_c, 1, 62, 112
3, 11964, Note_off_c, 1, 62, 100
3, 12096, Note_on_c, 1, 67, 112
3, 12860, Note_off_c, 1, 67, 100
3, 12864, Note_on_c, 1, 69, 112
3, 12956, Note_off_c, 1, 69, 100
3, 12960, Note_on_c, 1, 67, 112
3, 13052, Note_off_c, 1, 67, 100
3, 13056, Note_on_c, 1, 66, 112
3, 13148, Note_off_c, 1, 66, 100
3, 13152, Note_on_c, 1, 64, 112
3, 13244, Note_off_c, 1, 64, 100
3, 13248, Note_on_c, 1, 66, 112
3, 13440, Note_off_c, 1, 66, 100
3, 13536, Note_on_c, 1, 67, 112
3, 13564, Note_off_c, 1, 67, 100
3, 13632, Note_on_c, 1, 69, 112
3, 13692, Note_off_c, 1, 69, 100
3, 13824, Note_on_c, 1, 62, 112
3, 14016, Note_off_c, 1, 62, 100
3, 14112, Note_on_c, 1, 57, 112
3, 14140, Note_off_c, 1, 57, 100
3, 14208, Note_on_c, 1, 54, 112
3, 14268, Note_off_c, 1, 54, 100
3, 14400, Note_on_c, 1, 50, 112
3, 14592, Note_off_c, 1, 50, 100
3, 14688, Note_on_c, 1, 52, 112
3, 14716, Note_off_c, 1, 52, 100
3, 14784, Note_on_c, 1, 54, 112
3, 14844, Note_off_c, 1, 54, 100
3, 14976, Note_on_c, 1, 55, 112
3, 15168, Note_off_c, 1, 55, 100
3, 15264, Note_on_c, 1, 57, 112
3, 15292, Note_off_c, 1, 57, 100
3, 15360, Note_on_c, 1, 54, 112
3, 15420, Note_off_c, 1, 54, 100
3, 15552, Note_on_c, 1, 52, 112
3, 15744, Note_off_c, 1, 52, 100
3, 15840, Note_on_c, 1, 54, 112
3, 15868, Note_off_c, 1, 54, 100
3, 15936, Note_on_c, 1, 55, 112
3, 15996, Note_off_c, 1, 55, 100
3, 16128, Note_on_c, 1, 57, 112
3, 16320, Note_off_c, 1, 57, 100
3, 16416, Note_on_c, 1, 55, 112
3, 16444, Note_off_c, 1, 55, 100
3, 16512, Note_on_c, 1, 54, 112
3, 16572, Note_off_c, 1, 54, 100
3, 16704, Note_on_c, 1, 59, 112
3, 16896, Note_off_c, 1, 59, 100
3, 16992, Note_on_c, 1, 55, 112
3, 17020, Note_off_c, 1, 55, 100
3, 17088, Note_on_c, 1, 57, 112
3, 17148, Note_off_c, 1, 57, 100
3, 17280, Note_on_c, 1, 50, 112
3, 17472, Note_off_c, 1, 50, 100
3, 17568, Note_on_c, 1, 54, 112
3, 17596, Note_off_c, 1, 54, 100
3, 17664, Note_on_c, 1, 57, 112
3, 17724, Note_off_c, 1, 57, 100
3, 17856, Note_on_c, 1, 62, 112
3, 18240, Note_off_c, 1, 62, 100
3, 18432, Note_on_c, 1, 55, 112
3, 18476, Note_off_c, 1, 55, 100
3, 18480, Note_on_c, 1, 54, 112
3, 18524, Note_off_c, 1, 54, 100
3, 18528, Note_on_c, 1, 55, 112
3, 18812, Note_off_c, 1, 55, 100
3, 18816, Note_on_c, 1, 43, 112
3, 18876, Note_off_c, 1, 43, 100
3, 19008, Note_on_c, 1, 55, 112
3, 19052, Note_off_c, 1, 55, 100
3, 19056, Note_on_c, 1, 54, 112
3, 19100, Note_off_c, 1, 54, 100
3, 19104, Note_on_c, 1, 55, 112
3, 19868, Note_off_c, 1, 55, 64
3, 20112, Note_on_c, 1, 55, 112
3, 20156, Note_off_c, 1, 55, 100
3, 20160, Note_on_c, 1, 54, 112
3, 20204, Note_off_c, 1, 54, 100
3, 20208, Note_on_c, 1, 55, 112
3, 20252, Note_off_c, 1, 55, 100
3, 20256, Note_on_c, 1, 54, 112
3, 20384, Note_off_c, 1, 54, 100
3, 20448, Note_on_c, 1, 52, 112
3, 20476, Note_off_c, 1, 52, 100
3, 20544, Note_on_c, 1, 50, 112
3, 20604, Note_off_c, 1, 50, 100
3, 20736, Note_on_c, 1, 52, 112
3, 21116, Note_off_c, 1, 52, 100
3, 21120, Note_on_c, 1, 62, 112
3, 21180, Note_off_c, 1, 62, 100
3, 21264, Note_on_c, 1, 62, 112
3, 21308, Note_off_c, 1, 62, 100
3, 21312, Note_on_c, 1, 61, 112
3, 21356, Note_off_c, 1, 61, 100
3, 21360, Note_on_c, 1, 62, 112
3, 21404, Note_off_c, 1, 62, 100
3, 21408, Note_on_c, 1, 61, 112
3, 21692, Note_off_c, 1, 61, 100
3, 21696, Note_on_c, 1, 57, 112
3, 21756, Note_off_c, 1, 57, 100
3, 21888, Note_on_c, 1, 62, 112
3, 22652, Note_off_c, 1, 62, 100
3, 22752, Note_on_c, 1, 64, 112
3, 22780, Note_off_c, 1, 64, 100
3, 22848, Note_on_c, 1, 60, 112
3, 22908, Note_off_c, 1, 60, 100
3, 22992, Note_on_c, 1, 60, 112
3, 23036, Note_off_c, 1, 60, 100
3, 23040, Note_on_c, 1, 59, 112
3, 23084, Note_off_c, 1, 59, 100
3, 23088, Note_on_c, 1, 60, 112
3, 23132, Note_off_c, 1, 60, 100
3, 23136, Note_on_c, 1, 59, 112
3, 23228, Note_off_c, 1, 59, 100
3, 23328, Note_on_c, 1, 60, 112
3, 23356, Note_off_c, 1, 60, 100
3, 23424, Note_on_c, 1, 57, 112
3, 23484, Note_off_c, 1, 57, 100
3, 23616, Note_on_c, 1, 55, 112
3, 23808, Note_off_c, 1, 55, 100
3, 23904, Note_on_c, 1, 57, 112
3, 23932, Note_off_c, 1, 57, 100
3, 24000, Note_on_c, 1, 59, 112
3, 24060, Note_off_c, 1, 59, 100
3, 24192, Note_on_c, 1, 60, 112
3, 24384, Note_off_c, 1, 60, 100
3, 24480, Note_on_c, 1, 62, 112
3, 24508, Note_off_c, 1, 62, 100
3, 24576, Note_on_c, 1, 59, 112
3, 24636, Note_off_c, 1, 59, 100
3, 24768, Note_on_c, 1, 57, 112
3, 24960, Note_off_c, 1, 57, 100
3, 25056, Note_on_c, 1, 59, 112
3, 25084, Note_off_c, 1, 59, 100
3, 25152, Note_on_c, 1, 60, 112
3, 25212, Note_off_c, 1, 60, 100
3, 25344, Note_on_c, 1, 62, 112
3, 25536, Note_off_c, 1, 62, 100
3, 25632, Note_on_c, 1, 60, 112
3, 25660, Note_off_c, 1, 60, 100
3, 25728, Note_on_c, 1, 59, 112
3, 25788, Note_off_c, 1, 59, 100
3, 25872, Note_on_c, 1, 59, 112
3, 25916, Note_off_c, 1, 59, 100
3, 25920, Note_on_c, 1, 60, 112
3, 25964, Note_off_c, 1, 60, 100
3, 25968, Note_on_c, 1, 59, 112
3, 26012, Note_off_c, 1, 59, 100
3, 26016, Note_on_c, 1, 60, 112
3, 26300, Note_off_c, 1, 60, 100
3, 26304, Note_on_c, 1, 62, 112
3, 26364, Note_off_c, 1, 62, 100
3, 26496, Note_on_c, 1, 55, 112
3, 26688, Note_off_c, 1, 55, 100
3, 26784, Note_on_c, 1, 54, 112
3, 26812, Note_off_c, 1, 54, 100
3, 26880, Note_on_c, 1, 55, 112
3, 26940, Note_off_c, 1, 55, 100
3, 27072, Note_on_c, 1, 50, 112
3, 27264, Note_off_c, 1, 50, 100
3, 27360, Note_on_c, 1, 57, 112
3, 27388, Note_off_c, 1, 57, 100
3, 27456, Note_on_c, 1, 60, 112
3, 27516, Note_off_c, 1, 60, 100
3, 27600, Note_on_c, 1, 60, 112
3, 27644, Note_off_c, 1, 60, 100
3, 27648, Note_on_c, 1, 59, 112
3, 27692, Note_off_c, 1, 59, 100
3, 27696, Note_on_c, 1, 60, 112
3, 27740, Note_off_c, 1, 60, 100
3, 27744, Note_on_c, 1, 59, 112
3, 27836, Note_off_c, 1, 59, 100
3, 27936, Note_on_c, 1, 57, 112
3, 27964, Note_off_c, 1, 57, 100
3, 28032, Note_on_c, 1, 59, 112
3, 28092, Note_off_c, 1, 59, 100
3, 28224, Note_on_c, 1, 52, 112
3, 28416, Note_off_c, 1, 52, 100
3, 28512, Note_on_c, 1, 59, 112
3, 28540, Note_off_c, 1, 59, 100
3, 28608, Note_on_c, 1, 62, 112
3, 28668, Note_off_c, 1, 62, 100
3, 28752, Note_on_c, 1, 62, 112
3, 28796, Note_off_c, 1, 62, 100
3, 28800, Note_on_c, 1, 61, 112
3, 28844, Note_off_c, 1, 61, 100
3, 28848, Note_on_c, 1, 62, 112
3, 28892, Note_off_c, 1, 62, 100
3, 28896, Note_on_c, 1, 61, 112
3, 28988, Note_off_c, 1, 61, 100
3, 29088, Note_on_c, 1, 59, 112
3, 29116, Note_off_c, 1, 59, 100
3, 29184, Note_on_c, 1, 57, 112
3, 29244, Note_off_c, 1, 57, 100
3, 29376, Note_on_c, 1, 62, 112
3, 29568, Note_off_c, 1, 62, 100
3, 29664, Note_on_c, 1, 61, 112
3, 29692, Note_off_c, 1, 61, 100
3, 29760, Note_on_c, 1, 62, 112
3, 29820, Note_off_c, 1, 62, 100
3, 29952, Note_on_c, 1, 55, 112
3, 30144, Note_off_c, 1, 55, 100
3, 30240, Note_on_c, 1, 59, 112
3, 30268, Note_off_c, 1, 59, 100
3, 30336, Note_on_c, 1, 62, 112
3, 30396, Note_off_c, 1, 62, 100
3, 30528, Note_on_c, 1, 67, 112
3, 31292, Note_off_c, 1, 67, 100
3, 31296, Note_on_c, 1, 69, 112
3, 31388, Note_off_c, 1, 69, 100
3, 31392, Note_on_c, 1, 67, 112
3, 31484, Note_off_c, 1, 67, 100
3, 31488, Note_on_c, 1, 66, 112
3, 31580, Note_off_c, 1, 66, 100
3, 31584, Note_on_c, 1, 64, 112
3, 31676, Note_off_c, 1, 64, 100
3, 31680, Note_on_c, 1, 66, 112
3, 31724, Note_off_c, 1, 66, 100
3, 31728, Note_on_c, 1, 64, 112
3, 31772, Note_off_c, 1, 64, 100
3, 31776, Note_on_c, 1, 66, 112
3, 31868, Note_off_c, 1, 66, 100
3, 31968, Note_on_c, 1, 67, 112
3, 31996, Note_off_c, 1, 67, 100
3, 32064, Note_on_c, 1, 69, 112
3, 32124, Note_off_c, 1, 69, 100
3, 32256, Note_on_c, 1, 62, 112
3, 32300, Note_off_c, 1, 62, 100
3, 32304, Note_on_c, 1, 61, 112
3, 32348, Note_off_c, 1, 61, 100
3, 32352, Note_on_c, 1, 62, 112
3, 32444, Note_off_c, 1, 62, 100
3, 32544, Note_on_c, 1, 57, 112
3, 32572, Note_off_c, 1, 57, 100
3, 32640, Note_on_c, 1, 54, 112
3, 32700, Note_off_c, 1, 54, 100
3, 32832, Note_on_c, 1, 50, 112
3, 33024, Note_off_c, 1, 50, 100
3, 33120, Note_on_c, 1, 52, 112
3, 33148, Note_off_c, 1, 52, 100
3, 33216, Note_on_c, 1, 54, 112
3, 33276, Note_off_c, 1, 54, 100
3, 33408, Note_on_c, 1, 55, 112
3, 33600, Note_off_c, 1, 55, 100
3, 33696, Note_on_c, 1, 57, 112
3, 33724, Note_off_c, 1, 57, 100
3, 33792, Note_on_c, 1, 54, 112
3, 33852, Note_off_c, 1, 54, 100
3, 33984, Note_on_c, 1, 52, 112
3, 34176, Note_off_c, 1, 52, 100
3, 34272, Note_on_c, 1, 54, 112
3, 34300, Note_off_c, 1, 54, 100
3, 34368, Note_on_c, 1, 55, 112
3, 34428, Note_off_c, 1, 55, 100
3, 34512, Note_on_c, 1, 55, 112
3, 34556, Note_off_c, 1, 55, 100
3, 34560, Note_on_c, 1, 57, 112
3, 34604, Note_off_c, 1, 57, 100
3, 34608, Note_on_c, 1, 55, 112
3, 34652, Note_off_c, 1, 55, 100
3, 34656, Note_on_c, 1, 57, 112
3, 34748, Note_off_c, 1, 57, 100
3, 34848, Note_on_c, 1, 55, 112
3, 34876, Note_off_c, 1, 55, 100
3, 34944, Note_on_c, 1, 54, 112
3, 35004, Note_off_c, 1, 54, 100
3, 35136, Note_on_c, 1, 59, 112
3, 35328, Note_off_c, 1, 59, 100
3, 35424, Note_on_c, 1, 55, 112
3, 35452, Note_off_c, 1, 55, 100
3, 35520, Note_on_c, 1, 57, 112
3, 35580, Note_off_c, 1, 57, 100
3, 35712, Note_on_c, 1, 50, 112
3, 35904, Note_off_c, 1, 50, 100
3, 36000, Note_on_c, 1, 54, 112
3, 36028, Note_off_c, 1, 54, 100
3, 36096, Note_on_c, 1, 57, 112
3, 36156, Note_off_c, 1, 57, 100
3, 36288, Note_on_c, 1, 62, 112
3, 36332, Note_off_c, 1, 62, 100
3, 36336, Note_on_c, 1, 61, 112
3, 36380, Note_off_c, 1, 61, 100
3, 36384, Note_on_c, 1, 62, 112
3, 36672, Note_off_c, 1, 62, 100
3, 36864, Note_on_c, 1, 62, 112
3, 37120, Note_off_c, 1, 62, 100
3, 37248, Note_on_c, 1, 50, 112
3, 37308, Note_off_c, 1, 50, 100
3, 37440, Note_on_c, 1, 62, 112
3, 37696, Note_off_c, 1, 62, 100
3, 37824, Note_on_c, 1, 60, 112
3, 37884, Note_off_c, 1, 60, 100
3, 37968, Note_on_c, 1, 60, 112
3, 38012, Note_off_c, 1, 60, 100
3, 38016, Note_on_c, 1, 59, 112
3, 38060, Note_off_c, 1, 59, 100
3, 38064, Note_on_c, 1, 60, 112
3, 38108, Note_off_c, 1, 60, 100
3, 38112, Note_on_c, 1, 59, 112
3, 38204, Note_off_c, 1, 59, 100
3, 38304, Note_on_c, 1, 57, 112
3, 38332, Note_off_c, 1, 57, 100
3, 38400, Note_on_c, 1, 59, 112
3, 38460, Note_off_c, 1, 59, 100
3, 38592, Note_on_c, 1, 55, 112
3, 38784, Note_off_c, 1, 55, 100
3, 38880, Note_on_c, 1, 57, 112
3, 38908, Note_off_c, 1, 57, 100
3, 38976, Note_on_c, 1, 59, 112
3, 39036, Note_off_c, 1, 59, 100
3, 39168, Note_on_c, 1, 60, 112
3, 39360, Note_off_c, 1, 60, 100
3, 39456, Note_on_c, 1, 62, 112
3, 39484, Note_off_c, 1, 62, 100
3, 39552, Note_on_c, 1, 59, 112
3, 39612, Note_off_c, 1, 59, 100
3, 39744, Note_on_c, 1, 57, 112
3, 39936, Note_off_c, 1, 57, 100
3, 40032, Note_on_c, 1, 59, 112
3, 40060, Note_off_c, 1, 59, 100
3, 40128, Note_on_c, 1, 60, 112
3, 40188, Note_off_c, 1, 60, 100
3, 40320, Note_on_c, 1, 59, 112
3, 40576, Note_off_c, 1, 59, 100
3, 40704, Note_on_c, 1, 47, 112
3, 40764, Note_off_c, 1, 47, 100
3, 40896, Note_on_c, 1, 59, 112
3, 41088, Note_off_c, 1, 59, 100
3, 41184, Note_on_c, 1, 57, 112
3, 41212, Note_off_c, 1, 57, 100
3, 41280, Note_on_c, 1, 59, 112
3, 41340, Note_off_c, 1, 59, 100
3, 41472, Note_on_c, 1, 55, 112
3, 41728, Note_off_c, 1, 55, 100
3, 41856, Note_on_c, 1, 57, 112
3, 41900, Note_off_c, 1, 57, 100
3, 41904, Note_on_c, 1, 59, 112
3, 41948, Note_off_c, 1, 59, 100
3, 41952, Note_on_c, 1, 61, 112
3, 41996, Note_off_c, 1, 61, 100
3, 42000, Note_on_c, 1, 63, 112
3, 42044, Note_off_c, 1, 63, 100
3, 42048, Note_on_c, 1, 64, 112
3, 42240, Note_off_c, 1, 64, 100
3, 42336, Note_on_c, 1, 59, 112
3, 42364, Note_off_c, 1, 59, 100
3, 42432, Note_on_c, 1, 55, 112
3, 42492, Note_off_c, 1, 55, 100
3, 42624, Note_on_c, 1, 57, 112
3, 42880, Note_off_c, 1, 57, 100
3, 43008, Note_on_c, 1, 59, 112
3, 43052, Note_off_c, 1, 59, 100
3, 43056, Note_on_c, 1, 60, 112
3, 43100, Note_off_c, 1, 60, 100
3, 43104, Note_on_c, 1, 62, 112
3, 43148, Note_off_c, 1, 62, 100
3, 43152, Note_on_c, 1, 64, 112
3, 43196, Note_off_c, 1, 64, 100
3, 43200, Note_on_c, 1, 65, 112
3, 43392, Note_off_c, 1, 65, 100
3, 43488, Note_on_c, 1, 64, 112
3, 43516, Note_off_c, 1, 64, 100
3, 43584, Note_on_c, 1, 63, 112
3, 43644, Note_off_c, 1, 63, 100
3, 43776, Note_on_c, 1, 64, 112
3, 44032, Note_off_c, 1, 64, 100
3, 44160, Note_on_c, 1, 55, 112
3, 44220, Note_off_c, 1, 55, 100
3, 44352, Note_on_c, 1, 60, 112
3, 44544, Note_off_c, 1, 60, 100
3, 44640, Note_on_c, 1, 57, 112
3, 44668, Note_off_c, 1, 57, 100
3, 44736, Note_on_c, 1, 59, 112
3, 44796, Note_off_c, 1, 59, 100
3, 44928, Note_on_c, 1, 52, 112
3, 45692, Note_off_c, 1, 52, 100
3, 45792, Note_on_c, 1, 64, 112
3, 45820, Note_off_c, 1, 64, 100
3, 45888, Note_on_c, 1, 62, 112
3, 45948, Note_off_c, 1, 62, 100
3, 46032, Note_on_c, 1, 62, 112
3, 46076, Note_off_c, 1, 62, 100
3, 46080, Note_on_c, 1, 60, 112
3, 46124, Note_off_c, 1, 60, 100
3, 46128, Note_on_c, 1, 62, 112
3, 46172, Note_off_c, 1, 62, 100
3, 46176, Note_on_c, 1, 60, 112
3, 46268, Note_off_c, 1, 60, 100
3, 46368, Note_on_c, 1, 59, 112
3, 46396, Note_off_c, 1, 59, 100
3, 46464, Note_on_c, 1, 60, 112
3, 46524, Note_off_c, 1, 60, 100
3, 46656, Note_on_c, 1, 56, 112
3, 46848, Note_off_c, 1, 56, 100
3, 46944, Note_on_c, 1, 59, 112
3, 46972, Note_off_c, 1, 59, 100
3, 47040, Note_on_c, 1, 52, 112
3, 47100, Note_off_c, 1, 52, 100
3, 47232, Note_on_c, 1, 57, 112
3, 47424, Note_off_c, 1, 57, 100
3, 47520, Note_on_c, 1, 60, 112
3, 47548, Note_off_c, 1, 60, 100
3, 47616, Note_on_c, 1, 59, 112
3, 47676, Note_off_c, 1, 59, 100
3, 47808, Note_on_c, 1, 60, 112
3, 48000, Note_off_c, 1, 60, 100
3, 48096, Note_on_c, 1, 59, 112
3, 48124, Note_off_c, 1, 59, 100
3, 48192, Note_on_c, 1, 57, 112
3, 48252, Note_off_c, 1, 57, 100
3, 48384, Note_on_c, 1, 59, 112
3, 48576, Note_off_c, 1, 59, 100
3, 48672, Note_on_c, 1, 64, 112
3, 48700, Note_off_c, 1, 64, 100
3, 48768, Note_on_c, 1, 62, 112
3, 48828, Note_off_c, 1, 62, 100
3, 48912, Note_on_c, 1, 62, 112
3, 48956, Note_off_c, 1, 62, 100
3, 48960, Note_on_c, 1, 61, 112
3, 49004, Note_off_c, 1, 61, 100
3, 49008, Note_on_c, 1, 62, 112
3, 49052, Note_off_c, 1, 62, 100
3, 49056, Note_on_c, 1, 61, 112
3, 49148, Note_off_c, 1, 61, 100
3, 49248, Note_on_c, 1, 59, 112
3, 49276, Note_off_c, 1, 59, 100
3, 49344, Note_on_c, 1, 61, 112
3, 49404, Note_off_c, 1, 61, 100
3, 49536, Note_on_c, 1, 62, 112
3, 50300, Note_off_c, 1, 62, 100
3, 50400, Note_on_c, 1, 64, 112
3, 50428, Note_off_c, 1, 64, 100
3, 50496, Note_on_c, 1, 60, 112
3, 50556, Note_off_c, 1, 60, 100
3, 50688, Note_on_c, 1, 59, 112
3, 50880, Note_off_c, 1, 59, 100
3, 50976, Note_on_c, 1, 60, 112
3, 51004, Note_off_c, 1, 60, 100
3, 51072, Note_on_c, 1, 57, 112
3, 51132, Note_off_c, 1, 57, 100
3, 51264, Note_on_c, 1, 55, 112
3, 51456, Note_off_c, 1, 55, 100
3, 51552, Note_on_c, 1, 57, 112
3, 51580, Note_off_c, 1, 57, 100
3, 51648, Note_on_c, 1, 59, 112
3, 51708, Note_off_c, 1, 59, 100
3, 51840, Note_on_c, 1, 60, 112
3, 52032, Note_off_c, 1, 60, 100
3, 52128, Note_on_c, 1, 62, 112
3, 52156, Note_off_c, 1, 62, 100
3, 52224, Note_on_c, 1, 59, 112
3, 52284, Note_off_c, 1, 59, 100
3, 52416, Note_on_c, 1, 57, 112
3, 52608, Note_off_c, 1, 57, 100
3, 52704, Note_on_c, 1, 59, 112
3, 52732, Note_off_c, 1, 59, 100
3, 52800, Note_on_c, 1, 60, 112
3, 52860, Note_off_c, 1, 60, 100
3, 52992, Note_on_c, 1, 62, 112
3, 53184, Note_off_c, 1, 62, 100
3, 53280, Note_on_c, 1, 60, 112
3, 53308, Note_off_c, 1, 60, 100
3, 53376, Note_on_c, 1, 59, 112
3, 53436, Note_off_c, 1, 59, 100
3, 53568, Note_on_c, 1, 64, 112
3, 53760, Note_off_c, 1, 64, 100
3, 53856, Note_on_c, 1, 60, 112
3, 53884, Note_off_c, 1, 60, 100
3, 53952, Note_on_c, 1, 62, 112
3, 54012, Note_off_c, 1, 62, 100
3, 54144, Note_on_c, 1, 55, 112
3, 54336, Note_off_c, 1, 55, 100
3, 54432, Note_on_c, 1, 50, 112
3, 54460, Note_off_c, 1, 50, 100
3, 54528, Note_on_c, 1, 47, 112
3, 54588, Note_off_c, 1, 47, 100
3, 54720, Note_on_c, 1, 43, 112
3, 55106, Note_off_c, 1, 43, 100
3, 55296, Note_on_c, 1, 62, 112
3, 55552, Note_off_c, 1, 62, 100
3, 55680, Note_on_c, 1, 50, 112
3, 55740, Note_off_c, 1, 50, 100
3, 55872, Note_on_c, 1, 62, 112
3, 55916, Note_off_c, 1, 62, 100
3, 55920, Note_on_c, 1, 61, 112
3, 55964, Note_off_c, 1, 61, 100
3, 55968, Note_on_c, 1, 62, 112
3, 56156, Note_off_c, 1, 62, 100
3, 56256, Note_on_c, 1, 60, 112
3, 56316, Note_off_c, 1, 60, 100
3, 56400, Note_on_c, 1, 60, 112
3, 56444, Note_off_c, 1, 60, 100
3, 56448, Note_on_c, 1, 59, 112
3, 56492, Note_off_c, 1, 59, 100
3, 56496, Note_on_c, 1, 60, 112
3, 56540, Note_off_c, 1, 60, 100
3, 56544, Note_on_c, 1, 59, 112
3, 56636, Note_off_c, 1, 59, 100
3, 56736, Note_on_c, 1, 57, 112
3, 56764, Note_off_c, 1, 57, 100
3, 56832, Note_on_c, 1, 59, 112
3, 56892, Note_off_c, 1, 59, 100
3, 57024, Note_on_c, 1, 55, 112
3, 57216, Note_off_c, 1, 55, 100
3, 57312, Note_on_c, 1, 57, 112
3, 57340, Note_off_c, 1, 57, 100
3, 57408, Note_on_c, 1, 59, 112
3, 57468, Note_off_c, 1, 59, 100
3, 57600, Note_on_c, 1, 60, 112
3, 57644, Note_off_c, 1, 60, 100
3, 57648, Note_on_c, 1, 59, 112
3, 57692, Note_off_c, 1, 59, 100
3, 57696, Note_on_c, 1, 60, 112
3, 57788, Note_off_c, 1, 60, 100
3, 57888, Note_on_c, 1, 62, 112
3, 57916, Note_off_c, 1, 62, 100
3, 57984, Note_on_c, 1, 59, 112
3, 58044, Note_off_c, 1, 59, 100
3, 58176, Note_on_c, 1, 57, 112
3, 58368, Note_off_c, 1, 57, 100
3, 58464, Note_on_c, 1, 59, 112
3, 58492, Note_off_c, 1, 59, 100
3, 58560, Note_on_c, 1, 60, 112
3, 58620, Note_off_c, 1, 60, 100
3, 58752, Note_on_c, 1, 59, 112
3, 59008, Note_off_c, 1, 59, 100
3, 59136, Note_on_c, 1, 47, 112
3, 59196, Note_off_c, 1, 47, 100
3, 59328, Note_on_c, 1, 59, 112
3, 59372, Note_off_c, 1, 59, 100
3, 59376, Note_on_c, 1, 58, 112
3, 59420, Note_off_c, 1, 58, 100
3, 59424, Note_on_c, 1, 59, 112
3, 59516, Note_off_c, 1, 59, 100
3, 59616, Note_on_c, 1, 57, 112
3, 59644, Note_off_c, 1, 57, 100
3, 59712, Note_on_c, 1, 59, 112
3, 59772, Note_off_c, 1, 59, 100
3, 59856, Note_on_c, 1, 57, 112
3, 59900, Note_off_c, 1, 57, 100
3, 59904, Note_on_c, 1, 55, 112
3, 59948, Note_off_c, 1, 55, 100
3, 59952, Note_on_c, 1, 57, 112
3, 59996, Note_off_c, 1, 57, 100
3, 60000, Note_on_c, 1, 55, 112
3, 60188, Note_off_c, 1, 55, 100
3, 60288, Note_on_c, 1, 57, 112
3, 60332, Note_off_c, 1, 57, 100
3, 60336, Note_on_c, 1, 59, 112
3, 60380, Note_off_c, 1, 59, 100
3, 60384, Note_on_c, 1, 61, 112
3, 60428, Note_off_c, 1, 61, 100
3, 60432, Note_on_c, 1, 63, 112
3, 60476, Note_off_c, 1, 63, 100
3, 60480, Note_on_c, 1, 64, 112
3, 60672, Note_off_c, 1, 64, 100
3, 60768, Note_on_c, 1, 59, 112
3, 60796, Note_off_c, 1, 59, 100
3, 60864, Note_on_c, 1, 55, 112
3, 60924, Note_off_c, 1, 55, 100
3, 61008, Note_on_c, 1, 55, 112
3, 61052, Note_off_c, 1, 55, 100
3, 61056, Note_on_c, 1, 57, 112
3, 61100, Note_off_c, 1, 57, 100
3, 61104, Note_on_c, 1, 55, 112
3, 61148, Note_off_c, 1, 55, 100
3, 61152, Note_on_c, 1, 57, 112
3, 61340, Note_off_c, 1, 57, 100
3, 61440, Note_on_c, 1, 59, 112
3, 61484, Note_off_c, 1, 59, 100
3, 61488, Note_on_c, 1, 60, 112
3, 61532, Note_off_c, 1, 60, 100
3, 61536, Note_on_c, 1, 62, 112
3, 61580, Note_off_c, 1, 62, 100
3, 61584, Note_on_c, 1, 64, 112
3, 61628, Note_off_c, 1, 64, 100
3, 61632, Note_on_c, 1, 65, 112
3, 61824, Note_off_c, 1, 65, 100
3, 61920, Note_on_c, 1, 64, 112
3, 61948, Note_off_c, 1, 64, 100
3, 62016, Note_on_c, 1, 63, 112
3, 62076, Note_off_c, 1, 63, 100
3, 62208, Note_on_c, 1, 64, 112
3, 62464, Note_off_c, 1, 64, 100
3, 62592, Note_on_c, 1, 55, 112
3, 62652, Note_off_c, 1, 55, 100
3, 62784, Note_on_c, 1, 60, 112
3, 62828, Note_off_c, 1, 60, 100
3, 62832, Note_on_c, 1, 59, 112
3, 62876, Note_off_c, 1, 59, 100
3, 62880, Note_on_c, 1, 60, 112
3, 62972, Note_off_c, 1, 60, 100
3, 63072, Note_on_c, 1, 57, 112
3, 63100, Note_off_c, 1, 57, 100
3, 63168, Note_on_c, 1, 59, 112
3, 63228, Note_off_c, 1, 59, 100
3, 63360, Note_on_c, 1, 52, 112
3, 64124, Note_off_c, 1, 52, 100
3, 64224, Note_on_c, 1, 64, 112
3, 64252, Note_off_c, 1, 64, 100
3, 64320, Note_on_c, 1, 62, 112
3, 64380, Note_off_c, 1, 62, 100
3, 64464, Note_on_c, 1, 62, 112
3, 64508, Note_off_c, 1, 62, 100
3, 64512, Note_on_c, 1, 60, 112
3, 64556, Note_off_c, 1, 60, 100
3, 64560, Note_on_c, 1, 62, 112
3, 64604, Note_off_c, 1, 62, 100
3, 64608, Note_on_c, 1, 60, 112
3, 64700, Note_off_c, 1, 60, 100
3, 64800, Note_on_c, 1, 59, 112
3, 64828, Note_off_c, 1, 59, 100
3, 64896, Note_on_c, 1, 60, 112
3, 64956, Note_off_c, 1, 60, 100
3, 65088, Note_on_c, 1, 56, 112
3, 65280, Note_off_c, 1, 56, 100
3, 65376, Note_on_c, 1, 59, 112
3, 65404, Note_off_c, 1, 59, 100
3, 65472, Note_on_c, 1, 52, 112
3, 65532, Note_off_c, 1, 52, 100
3, 65664, Note_on_c, 1, 57, 112
3, 65856, Note_off_c, 1, 57, 100
3, 65952, Note_on_c, 1, 60, 112
3, 65980, Note_off_c, 1, 60, 100
3, 66048, Note_on_c, 1, 59, 112
3, 66108, Note_off_c, 1, 59, 100
3, 66240, Note_on_c, 1, 60, 112
3, 66432, Note_off_c, 1, 60, 100
3, 66528, Note_on_c, 1, 59, 112
3, 66556, Note_off_c, 1, 59, 100
3, 66624, Note_on_c, 1, 57, 112
3, 66684, Note_off_c, 1, 57, 100
3, 66816, Note_on_c, 1, 59, 112
3, 67008, Note_off_c, 1, 59, 100
3, 67104, Note_on_c, 1, 64, 112
3, 67132, Note_off_c, 1, 64, 100
3, 67200, Note_on_c, 1, 62, 112
3, 67260, Note_off_c, 1, 62, 100
3, 67344, Note_on_c, 1, 62, 112
3, 67388, Note_off_c, 1, 62, 100
3, 67392, Note_on_c, 1, 61, 112
3, 67436, Note_off_c, 1, 61, 100
3, 67440, Note_on_c, 1, 62, 112
3, 67484, Note_off_c, 1, 62, 100
3, 67488, Note_on_c, 1, 61, 112
3, 67580, Note_off_c, 1, 61, 100
3, 67680, Note_on_c, 1, 59, 112
3, 67708, Note_off_c, 1, 59, 100
3, 67776, Note_on_c, 1, 61, 112
3, 67836, Note_off_c, 1, 61, 100
3, 67968, Note_on_c, 1, 62, 112
3, 68732, Note_off_c, 1, 62, 100
3, 68832, Note_on_c, 1, 64, 112
3, 68860, Note_off_c, 1, 64, 100
3, 68928, Note_on_c, 1, 60, 112
3, 68988, Note_off_c, 1, 60, 100
3, 69072, Note_on_c, 1, 60, 112
3, 69116, Note_off_c, 1, 60, 100
3, 69120, Note_on_c, 1, 59, 112
3, 69164, Note_off_c, 1, 59, 100
3, 69168, Note_on_c, 1, 60, 112
3, 69212, Note_off_c, 1, 60, 100
3, 69216, Note_on_c, 1, 59, 112
3, 69308, Note_off_c, 1, 59, 100
3, 69408, Note_on_c, 1, 60, 112
3, 69436, Note_off_c, 1, 60, 100
3, 69504, Note_on_c, 1, 57, 112
3, 69564, Note_off_c, 1, 57, 100
3, 69696, Note_on_c, 1, 55, 112
3, 69888, Note_off_c, 1, 55, 100
3, 69984, Note_on_c, 1, 57, 112
3, 70012, Note_off_c, 1, 57, 100
3, 70080, Note_on_c, 1, 59, 112
3, 70140, Note_off_c, 1, 59, 100
3, 70272, Note_on_c, 1, 60, 112
3, 70464, Note_off_c, 1, 60, 100
3, 70560, Note_on_c, 1, 62, 112
3, 70588, Note_off_c, 1, 62, 100
3, 70656, Note_on_c, 1, 59, 112
3, 70716, Note_off_c, 1, 59, 100
3, 70848, Note_on_c, 1, 57, 112
3, 71040, Note_off_c, 1, 57, 100
3, 71136, Note_on_c, 1, 59, 112
3, 71164, Note_off_c, 1, 59, 100
3, 71232, Note_on_c, 1, 60, 112
3, 71292, Note_off_c, 1, 60, 100
3, 71424, Note_on_c, 1, 62, 112
3, 71616, Note_off_c, 1, 62, 100
3, 71712, Note_on_c, 1, 60, 112
3, 71740, Note_off_c, 1, 60, 100
3, 71808, Note_on_c, 1, 59, 112
3, 71868, Note_off_c, 1, 59, 100
3, 72000, Note_on_c, 1, 64, 112
3, 72192, Note_off_c, 1, 64, 100
3, 72288, Note_on_c, 1, 60, 112
3, 72316, Note_off_c, 1, 60, 100
3, 72384, Note_on_c, 1, 62, 112
3, 72444, Note_off_c, 1, 62, 100
3, 72576, Note_on_c, 1, 55, 112
3, 72768, Note_off_c, 1, 55, 100
3, 72864, Note_on_c, 1, 50, 112
3, 72892, Note_off_c, 1, 50, 100
3, 72960, Note_on_c, 1, 47, 112
3, 73020, Note_off_c, 1, 47, 100
3, 73152, Note_on_c, 1, 43, 112
3, 73536, Note_off_c, 1, 43, 100
3, 73536, End_track
4, 0, Start_track
4, 0, Title_t, "BWV 988"
4, 0, Control_c, 2, 0, 0
4, 0, Program_c, 2, 6
4, 0, Control_c, 2, 7, 0
4, 0, Control_c, 2, 10, 87
4, 0, Control_c, 2, 91, 127
4, 0, Key_signature, 1, "major"
4, 73152, Note_on_c, 2, 43, 1
4, 73920, Note_off_c, 2, 43, 64
4, 73920, End_track
5, 0, Start_track
5, 0, Title_t, "Var.VII: Un poco vivace (alla Siciliana)"
5, 0, Control_c, 2, 0, 0
5, 0, Program_c, 2, 6
5, 0, Control_c, 2, 7, 0
5, 0, Control_c, 2, 10, 87
5, 0, Control_c, 2, 91, 127
5, 0, Key_signature, 1, "major"
5, 0, End_track
6, 0, Start_track
6, 0, Title_t, "Bruno de Giusti"
6, 0, Control_c, 2, 0, 0
6, 0, Program_c, 2, 6
6, 0, Control_c, 2, 7, 0
6, 0, Control_c, 2, 10, 87
6, 0, Control_c, 2, 91, 127
6, 0, Key_signature, 1, "major"
6, 0, End_track
7, 0, Start_track
7, 0, Title_t, "bdg@bruno-de-giusti.net"
7, 0, Control_c, 2, 0, 0
7, 0, Program_c, 2, 6
7, 0, Control_c, 2, 7, 0
7, 0, Control_c, 2, 10, 87
7, 0, Control_c, 2, 91, 127
7, 0, Key_signature, 1, "major"
7, 0, End_track
8, 0, Start_track
8, 0, Title_t, "www.bruno-de-giusti.net"
8, 0, Control_c, 2, 0, 0
8, 0, Program_c, 2, 6
8, 0, Control_c, 2, 7, 0
8, 0, Control_c, 2, 10, 87
8, 0, Control_c, 2, 91, 127
8, 0, Key_signature, 1, "major"
8, 0, End_track
9, 0, Start_track
9, 0, Title_t, "All rights reserved"
9, 0, Control_c, 2, 0, 0
9, 0, Program_c, 2, 6
9, 0, Control_c, 2, 7, 0
9, 0, Control_c, 2, 10, 87
9, 0, Control_c, 2, 91, 127
9, 0, Key_signature, 1, "major"
9, 0, End_track
10, 0, Start_track
10, 1, Copyright_t, "___________________________________________________\012\012KUNSTDERFUGE.COM LARGE CLASSICAL MIDI COLLECTION\012ONCLASSICAL BY ALESSANDRO SIMONETTO, PROPRIETOR\012___________________________________________________\012\012! Attention: this file is under copyright !\012\012(c)onclassical, (c)degiusti, 2010\012___________________________________________________\012\012NO ONE MAY REPUBLISH THIS FILE WITHOUT PERMISSION\012COMMERCIAL USES OF THIS FILE IS STRICTLY PROHIBITED\012___________________________________________________\012\012Files & contributor's list: http://kunstderfuge.com/\012Terms and conditions: http://kunstderfuge.com/notes.htm"
10, 1, End_track
0, 0, End_of_file