0, 0, Header, 1, 6, 240
1, 0, Start_track
1, 0, Time_signature, 4, 2, 24, 8
1, 0, Key_signature, 0, "major"
1, 0, Tempo, 500000
1, 0, End_track
2, 0, Start_track
2, 0, Title_t, " "
2, 0, Program_c, 0, 0
2, 0, Control_c, 0, 7, 125
2, 5681, Note_on_c, 0, 74, 79
2, 6095, Note_on_c, 0, 74, 0
2, 6132, Note_on_c, 0, 81, 87
2, 6433, Note_on_c, 0, 81, 0
2, 6470, Note_on_c, 0, 79, 81
2, 6568, Note_on_c, 0, 79, 0
2, 6583, Note_on_c, 0, 77, 82
2, 6884, Note_on_c, 0, 77, 0
2, 6922, Note_on_c, 0, 76, 78
2, 7019, Note_on_c, 0, 76, 0
2, 7034, Note_on_c, 0, 74, 79
2, 7486, Note_on_c, 0, 74, 0
2, 7486, Note_on_c, 0, 73, 78
2, 7907, Note_on_c, 0, 73, 0
2, 7944, Note_on_c, 0, 74, 79
2, 8253, Note_on_c, 0, 74, 0
2, 8290, Note_on_c, 0, 76, 78
2, 8387, Note_on_c, 0, 76, 0
2, 8403, Note_on_c, 0, 77, 82
2, 8937, Note_on_c, 0, 77, 0
2, 8974, Note_on_c, 0, 81, 83
2, 9072, Note_on_c, 0, 81, 0
2, 9087, Note_on_c, 0, 79, 81
2, 9184, Note_on_c, 0, 79, 0
2, 9200, Note_on_c, 0, 77, 79
2, 9297, Note_on_c, 0, 77, 0
2, 9312, Note_on_c, 0, 76, 78
2, 9410, Note_on_c, 0, 76, 0
2, 9425, Note_on_c, 0, 80, 82
2, 9523, Note_on_c, 0, 80, 0
2, 9538, Note_on_c, 0, 81, 83
2, 9643, Note_on_c, 0, 81, 0
2, 9658, Note_on_c, 0, 83, 86
2, 9756, Note_on_c, 0, 83, 0
2, 9771, Note_on_c, 0, 84, 90
2, 10350, Note_on_c, 0, 84, 0
2, 10350, Note_on_c, 0, 84, 87
2, 10447, Note_on_c, 0, 84, 0
2, 10463, Note_on_c, 0, 82, 85
2, 10560, Note_on_c, 0, 82, 0
2, 10575, Note_on_c, 0, 81, 83
2, 10673, Note_on_c, 0, 81, 0
2, 10688, Note_on_c, 0, 82, 88
2, 11267, Note_on_c, 0, 82, 0
2, 11267, Note_on_c, 0, 82, 85
2, 11364, Note_on_c, 0, 82, 0
2, 11380, Note_on_c, 0, 81, 83
2, 11477, Note_on_c, 0, 81, 0
2, 11493, Note_on_c, 0, 79, 81
2, 11590, Note_on_c, 0, 79, 0
2, 11605, Note_on_c, 0, 81, 87
2, 12284, Note_on_c, 0, 81, 0
2, 12289, Note_on_c, 0, 82, 87
2, 12510, Note_on_c, 0, 82, 0
2, 12515, Note_on_c, 0, 79, 85
2, 13613, Note_on_c, 0, 79, 0
2, 13651, Note_on_c, 0, 77, 81
2, 13871, Note_on_c, 0, 77, 0
2, 13876, Note_on_c, 0, 76, 81
2, 14328, Note_on_c, 0, 76, 0
2, 14793, Note_on_c, 0, 74, 79
2, 15215, Note_on_c, 0, 74, 0
2, 15252, Note_on_c, 0, 69, 74
2, 15560, Note_on_c, 0, 69, 0
2, 15598, Note_on_c, 0, 71, 74
2, 15695, Note_on_c, 0, 71, 0
2, 15710, Note_on_c, 0, 72, 77
2, 16019, Note_on_c, 0, 72, 0
2, 16056, Note_on_c, 0, 74, 76
2, 16153, Note_on_c, 0, 74, 0
2, 16169, Note_on_c, 0, 76, 81
2, 16628, Note_on_c, 0, 76, 0
2, 16628, Note_on_c, 0, 77, 82
2, 17049, Note_on_c, 0, 77, 0
2, 17086, Note_on_c, 0, 76, 81
2, 17387, Note_on_c, 0, 76, 0
2, 17424, Note_on_c, 0, 74, 76
2, 17522, Note_on_c, 0, 74, 0
2, 17537, Note_on_c, 0, 72, 77
2, 18064, Note_on_c, 0, 72, 0
2, 18101, Note_on_c, 0, 71, 74
2, 18206, Note_on_c, 0, 71, 0
2, 18221, Note_on_c, 0, 72, 74
2, 18319, Note_on_c, 0, 72, 0
2, 18334, Note_on_c, 0, 74, 76
2, 18432, Note_on_c, 0, 74, 0
2, 18447, Note_on_c, 0, 76, 80
2, 18674, Note_on_c, 0, 76, 0
2, 18680, Note_on_c, 0, 75, 80
2, 18996, Note_on_c, 0, 75, 0
2, 19033, Note_on_c, 0, 78, 80
2, 19130, Note_on_c, 0, 78, 0
2, 19146, Note_on_c, 0, 76, 78
2, 19243, Note_on_c, 0, 76, 0
2, 19259, Note_on_c, 0, 75, 77
2, 19356, Note_on_c, 0, 75, 0
2, 19371, Note_on_c, 0, 76, 78
2, 19469, Note_on_c, 0, 76, 0
2, 19484, Note_on_c, 0, 74, 76
2, 19582, Note_on_c, 0, 74, 0
2, 19597, Note_on_c, 0, 72, 74
2, 19694, Note_on_c, 0, 72, 0
2, 19710, Note_on_c, 0, 71, 74
2, 19807, Note_on_c, 0, 71, 0
2, 19823, Note_on_c, 0, 72, 77
2, 20131, Note_on_c, 0, 72, 0
2, 20169, Note_on_c, 0, 71, 74
2, 20273, Note_on_c, 0, 71, 0
2, 20289, Note_on_c, 0, 69, 74
2, 20823, Note_on_c, 0, 69, 0
2, 20860, Note_on_c, 0, 70, 73
2, 20957, Note_on_c, 0, 70, 0
2, 20973, Note_on_c, 0, 69, 72
2, 21070, Note_on_c, 0, 69, 0
2, 21086, Note_on_c, 0, 67, 70
2, 21183, Note_on_c, 0, 67, 0
2, 21199, Note_on_c, 0, 69, 72
2, 21296, Note_on_c, 0, 69, 0
2, 21312, Note_on_c, 0, 72, 74
2, 21408, Note_on_c, 0, 72, 0
2, 21424, Note_on_c, 0, 74, 76
2, 21528, Note_on_c, 0, 74, 0
2, 21544, Note_on_c, 0, 76, 78
2, 21641, Note_on_c, 0, 76, 0
2, 21657, Note_on_c, 0, 77, 79
2, 21762, Note_on_c, 0, 77, 0
2, 21777, Note_on_c, 0, 79, 81
2, 21875, Note_on_c, 0, 79, 0
2, 21890, Note_on_c, 0, 81, 86
2, 22220, Note_on_c, 0, 81, 0
2, 22236, Note_on_c, 0, 79, 81
2, 22333, Note_on_c, 0, 79, 0
2, 22349, Note_on_c, 0, 77, 79
2, 22446, Note_on_c, 0, 77, 0
2, 22462, Note_on_c, 0, 76, 78
2, 22559, Note_on_c, 0, 76, 0
2, 22574, Note_on_c, 0, 77, 79
2, 22679, Note_on_c, 0, 77, 0
2, 22694, Note_on_c, 0, 76, 78
2, 22792, Note_on_c, 0, 76, 0
2, 22807, Note_on_c, 0, 74, 76
2, 22905, Note_on_c, 0, 74, 0
2, 22920, Note_on_c, 0, 73, 75
2, 23017, Note_on_c, 0, 73, 0
2, 23033, Note_on_c, 0, 74, 76
2, 23130, Note_on_c, 0, 74, 0
2, 23146, Note_on_c, 0, 69, 72
2, 23243, Note_on_c, 0, 69, 0
2, 23258, Note_on_c, 0, 71, 74
2, 23356, Note_on_c, 0, 71, 0
2, 23371, Note_on_c, 0, 73, 75
2, 23469, Note_on_c, 0, 73, 0
2, 23484, Note_on_c, 0, 74, 79
2, 24040, Note_on_c, 0, 74, 0
2, 24055, Note_on_c, 0, 72, 74
2, 24153, Note_on_c, 0, 72, 0
2, 24168, Note_on_c, 0, 70, 73
2, 24265, Note_on_c, 0, 70, 0
2, 24281, Note_on_c, 0, 69, 72
2, 24378, Note_on_c, 0, 69, 0
2, 24394, Note_on_c, 0, 67, 73
2, 25379, Note_on_c, 0, 67, 0
2, 25417, Note_on_c, 0, 65, 68
2, 25513, Note_on_c, 0, 65, 0
2, 25529, Note_on_c, 0, 70, 74
2, 25756, Note_on_c, 0, 70, 0
2, 25762, Note_on_c, 0, 69, 73
2, 25990, Note_on_c, 0, 69, 0
2, 29875, Note_on_c, 0, 72, 77
2, 30288, Note_on_c, 0, 72, 0
2, 30326, Note_on_c, 0, 65, 71
2, 30627, Note_on_c, 0, 65, 0
2, 30664, Note_on_c, 0, 67, 70
2, 30768, Note_on_c, 0, 67, 0
2, 30784, Note_on_c, 0, 69, 74
2, 31085, Note_on_c, 0, 69, 0
2, 31123, Note_on_c, 0, 70, 73
2, 31220, Note_on_c, 0, 70, 0
2, 31236, Note_on_c, 0, 72, 77
2, 31687, Note_on_c, 0, 72, 0
2, 31687, Note_on_c, 0, 74, 79
2, 32115, Note_on_c, 0, 74, 0
2, 32153, Note_on_c, 0, 72, 77
2, 32454, Note_on_c, 0, 72, 0
2, 32491, Note_on_c, 0, 70, 73
2, 32588, Note_on_c, 0, 70, 0
2, 32604, Note_on_c, 0, 69, 74
2, 33160, Note_on_c, 0, 69, 0
2, 33175, Note_on_c, 0, 67, 70
2, 33273, Note_on_c, 0, 67, 0
2, 33288, Note_on_c, 0, 69, 72
2, 33385, Note_on_c, 0, 69, 0
2, 33401, Note_on_c, 0, 70, 73
2, 33498, Note_on_c, 0, 70, 0
2, 33514, Note_on_c, 0, 72, 77
2, 34062, Note_on_c, 0, 72, 0
2, 34078, Note_on_c, 0, 74, 76
2, 34175, Note_on_c, 0, 74, 0
2, 34190, Note_on_c, 0, 72, 74
2, 34288, Note_on_c, 0, 72, 0
2, 34303, Note_on_c, 0, 70, 73
2, 34401, Note_on_c, 0, 70, 0
2, 34416, Note_on_c, 0, 69, 73
2, 34613, Note_on_c, 0, 69, 0
2, 34649, Note_on_c, 0, 77, 81
2, 35095, Note_on_c, 0, 77, 0
2, 35100, Note_on_c, 0, 76, 81
2, 35514, Note_on_c, 0, 76, 0
2, 35551, Note_on_c, 0, 74, 78
2, 35997, Note_on_c, 0, 74, 0
2, 36002, Note_on_c, 0, 72, 77
2, 36416, Note_on_c, 0, 72, 0
2, 36454, Note_on_c, 0, 70, 75
2, 37018, Note_on_c, 0, 70, 0
2, 37018, Note_on_c, 0, 69, 72
2, 37115, Note_on_c, 0, 69, 0
2, 37130, Note_on_c, 0, 72, 74
2, 37228, Note_on_c, 0, 72, 0
2, 37243, Note_on_c, 0, 71, 74
2, 37341, Note_on_c, 0, 71, 0
2, 37356, Note_on_c, 0, 72, 76
2, 37546, Note_on_c, 0, 72, 0
2, 37582, Note_on_c, 0, 66, 69
2, 37679, Note_on_c, 0, 66, 0
2, 37694, Note_on_c, 0, 62, 66
2, 37792, Note_on_c, 0, 62, 0
2, 37807, Note_on_c, 0, 67, 73
2, 38108, Note_on_c, 0, 67, 0
2, 38146, Note_on_c, 0, 79, 81
2, 38243, Note_on_c, 0, 79, 0
2, 38258, Note_on_c, 0, 77, 81
2, 38479, Note_on_c, 0, 77, 0
2, 38484, Note_on_c, 0, 70, 75
2, 38793, Note_on_c, 0, 70, 0
2, 38830, Note_on_c, 0, 69, 72
2, 38927, Note_on_c, 0, 69, 0
2, 38943, Note_on_c, 0, 74, 78
2, 39163, Note_on_c, 0, 74, 0
2, 40085, Note_on_c, 0, 74, 78
2, 40306, Note_on_c, 0, 74, 0
2, 40311, Note_on_c, 0, 79, 85
2, 40950, Note_on_c, 0, 79, 0
2, 40988, Note_on_c, 0, 77, 79
2, 41085, Note_on_c, 0, 77, 0
2, 41100, Note_on_c, 0, 75, 77
2, 41205, Note_on_c, 0, 75, 0
2, 41221, Note_on_c, 0, 77, 82
2, 41755, Note_on_c, 0, 77, 0
2, 41792, Note_on_c, 0, 75, 77
2, 41890, Note_on_c, 0, 75, 0
2, 41905, Note_on_c, 0, 74, 78
2, 42235, Note_on_c, 0, 74, 0
2, 42251, Note_on_c, 0, 67, 70
2, 42348, Note_on_c, 0, 67, 0
2, 42363, Note_on_c, 0, 65, 68
2, 42461, Note_on_c, 0, 65, 0
2, 42476, Note_on_c, 0, 63, 67
2, 42574, Note_on_c, 0, 63, 0
2, 42589, Note_on_c, 0, 62, 66
2, 42686, Note_on_c, 0, 62, 0
2, 42702, Note_on_c, 0, 65, 68
2, 42799, Note_on_c, 0, 65, 0
2, 42815, Note_on_c, 0, 67, 70
2, 42919, Note_on_c, 0, 67, 0
2, 42935, Note_on_c, 0, 69, 72
2, 43032, Note_on_c, 0, 69, 0
2, 43048, Note_on_c, 0, 70, 73
2, 43152, Note_on_c, 0, 70, 0
2, 43168, Note_on_c, 0, 65, 68
2, 43265, Note_on_c, 0, 65, 0
2, 43281, Note_on_c, 0, 70, 75
2, 43589, Note_on_c, 0, 70, 0
2, 43627, Note_on_c, 0, 72, 74
2, 43731, Note_on_c, 0, 72, 0
2, 43747, Note_on_c, 0, 70, 73
2, 43844, Note_on_c, 0, 70, 0
2, 43860, Note_on_c, 0, 69, 72
2, 43956, Note_on_c, 0, 69, 0
2, 43972, Note_on_c, 0, 70, 73
2, 44069, Note_on_c, 0, 70, 0
2, 44085, Note_on_c, 0, 72, 74
2, 44182, Note_on_c, 0, 72, 0
2, 44198, Note_on_c, 0, 74, 79
2, 44506, Note_on_c, 0, 74, 0
2, 44544, Note_on_c, 0, 75, 77
2, 44641, Note_on_c, 0, 75, 0
2, 44656, Note_on_c, 0, 77, 81
2, 44987, Note_on_c, 0, 77, 0
2, 45002, Note_on_c, 0, 75, 77
2, 45099, Note_on_c, 0, 75, 0
2, 45115, Note_on_c, 0, 74, 76
2, 45212, Note_on_c, 0, 74, 0
2, 45228, Note_on_c, 0, 72, 74
2, 45325, Note_on_c, 0, 72, 0
2, 45341, Note_on_c, 0, 70, 75
2, 45649, Note_on_c, 0, 70, 0
2, 45686, Note_on_c, 0, 72, 74
2, 45784, Note_on_c, 0, 72, 0
2, 45799, Note_on_c, 0, 74, 78
2, 46019, Note_on_c, 0, 74, 0
2, 46025, Note_on_c, 0, 72, 76
2, 46252, Note_on_c, 0, 72, 0
2, 46258, Note_on_c, 0, 77, 82
2, 46813, Note_on_c, 0, 77, 0
2, 46829, Note_on_c, 0, 76, 78
2, 46926, Note_on_c, 0, 76, 0
2, 46942, Note_on_c, 0, 77, 79
2, 47039, Note_on_c, 0, 77, 0
2, 47055, Note_on_c, 0, 79, 81
2, 47152, Note_on_c, 0, 79, 0
2, 47168, Note_on_c, 0, 72, 77
2, 47851, Note_on_c, 0, 72, 0
2, 47856, Note_on_c, 0, 77, 81
2, 48088, Note_on_c, 0, 77, 0
2, 48094, Note_on_c, 0, 72, 77
2, 48420, Note_on_c, 0, 72, 0
2, 48457, Note_on_c, 0, 74, 76
2, 48562, Note_on_c, 0, 74, 0
2, 48577, Note_on_c, 0, 75, 80
2, 48878, Note_on_c, 0, 75, 0
2, 48916, Note_on_c, 0, 77, 79
2, 49013, Note_on_c, 0, 77, 0
2, 49029, Note_on_c, 0, 79, 83
2, 49256, Note_on_c, 0, 79, 0
2, 49262, Note_on_c, 0, 74, 78
2, 49592, Note_on_c, 0, 74, 0
2, 49608, Note_on_c, 0, 76, 78
2, 49705, Note_on_c, 0, 76, 0
2, 49720, Note_on_c, 0, 77, 82
2, 50021, Note_on_c, 0, 77, 0
2, 50059, Note_on_c, 0, 79, 81
2, 50156, Note_on_c, 0, 79, 0
2, 50172, Note_on_c, 0, 81, 86
2, 50369, Note_on_c, 0, 81, 0
2, 50404, Note_on_c, 0, 76, 78
2, 50502, Note_on_c, 0, 76, 0
2, 50517, Note_on_c, 0, 77, 79
2, 50622, Note_on_c, 0, 77, 0
2, 50638, Note_on_c, 0, 79, 83
2, 50835, Note_on_c, 0, 79, 0
2, 50870, Note_on_c, 0, 74, 76
2, 50968, Note_on_c, 0, 74, 0
2, 50983, Note_on_c, 0, 76, 78
2, 51088, Note_on_c, 0, 76, 0
2, 51103, Note_on_c, 0, 77, 81
2, 51324, Note_on_c, 0, 77, 0
2, 51329, Note_on_c, 0, 76, 81
2, 51757, Note_on_c, 0, 76, 0
2, 51795, Note_on_c, 0, 81, 87
2, 52104, Note_on_c, 0, 81, 0
2, 52141, Note_on_c, 0, 79, 81
2, 52245, Note_on_c, 0, 79, 0
2, 52261, Note_on_c, 0, 77, 82
2, 52562, Note_on_c, 0, 77, 0
2, 52599, Note_on_c, 0, 76, 78
2, 52696, Note_on_c, 0, 76, 0
2, 52712, Note_on_c, 0, 74, 79
2, 53163, Note_on_c, 0, 74, 0
2, 53163, Note_on_c, 0, 73, 78
2, 53577, Note_on_c, 0, 73, 0
2, 53615, Note_on_c, 0, 74, 79
2, 53916, Note_on_c, 0, 74, 0
2, 53953, Note_on_c, 0, 76, 78
2, 54050, Note_on_c, 0, 76, 0
2, 54066, Note_on_c, 0, 77, 82
2, 54607, Note_on_c, 0, 77, 0
2, 54645, Note_on_c, 0, 79, 81
2, 54742, Note_on_c, 0, 79, 0
2, 54757, Note_on_c, 0, 77, 79
2, 54854, Note_on_c, 0, 77, 0
2, 54870, Note_on_c, 0, 76, 78
2, 54967, Note_on_c, 0, 76, 0
2, 54983, Note_on_c, 0, 74, 79
2, 55630, Note_on_c, 0, 74, 0
2, 55667, Note_on_c, 0, 69, 73
2, 56127, Note_on_c, 0, 69, 0
2, 56133, Note_on_c, 0, 72, 76
2, 56353, Note_on_c, 0, 72, 0
2, 56359, Note_on_c, 0, 65, 71
2, 56922, Note_on_c, 0, 65, 0
2, 56937, Note_on_c, 0, 69, 72
2, 57035, Note_on_c, 0, 69, 0
2, 57050, Note_on_c, 0, 67, 70
2, 57147, Note_on_c, 0, 67, 0
2, 57163, Note_on_c, 0, 65, 68
2, 57260, Note_on_c, 0, 65, 0
2, 57275, Note_on_c, 0, 64, 70
2, 58276, Note_on_c, 0, 64, 0
2, 58313, Note_on_c, 0, 62, 66
2, 58410, Note_on_c, 0, 62, 0
2, 58426, Note_on_c, 0, 61, 65
2, 58523, Note_on_c, 0, 61, 0
2, 58539, Note_on_c, 0, 62, 66
2, 58636, Note_on_c, 0, 62, 0
2, 58652, Note_on_c, 0, 61, 67
2, 58897, Note_on_c, 0, 61, 0
2, 58902, Note_on_c, 0, 76, 80
2, 59134, Note_on_c, 0, 76, 0
2, 59140, Note_on_c, 0, 81, 87
2, 59466, Note_on_c, 0, 81, 0
2, 59504, Note_on_c, 0, 79, 81
2, 59608, Note_on_c, 0, 79, 0
2, 59624, Note_on_c, 0, 77, 82
2, 59932, Note_on_c, 0, 77, 0
2, 59970, Note_on_c, 0, 76, 78
2, 60067, Note_on_c, 0, 76, 0
2, 60083, Note_on_c, 0, 74, 78
2, 60310, Note_on_c, 0, 74, 0
2, 60315, Note_on_c, 0, 79, 83
2, 60646, Note_on_c, 0, 79, 0
2, 60661, Note_on_c, 0, 77, 79
2, 60758, Note_on_c, 0, 77, 0
2, 60774, Note_on_c, 0, 76, 81
2, 61082, Note_on_c, 0, 76, 0
2, 61120, Note_on_c, 0, 74, 76
2, 61217, Note_on_c, 0, 74, 0
2, 61233, Note_on_c, 0, 72, 76
2, 61430, Note_on_c, 0, 72, 0
2, 61465, Note_on_c, 0, 77, 79
2, 61563, Note_on_c, 0, 77, 0
2, 61578, Note_on_c, 0, 76, 78
2, 61676, Note_on_c, 0, 76, 0
2, 61691, Note_on_c, 0, 74, 78
2, 61888, Note_on_c, 0, 74, 0
2, 61924, Note_on_c, 0, 79, 81
2, 62021, Note_on_c, 0, 79, 0
2, 62037, Note_on_c, 0, 77, 79
2, 62134, Note_on_c, 0, 77, 0
2, 62149, Note_on_c, 0, 76, 80
2, 62377, Note_on_c, 0, 76, 0
2, 62383, Note_on_c, 0, 81, 87
2, 62804, Note_on_c, 0, 81, 0
2, 62841, Note_on_c, 0, 74, 79
2, 63142, Note_on_c, 0, 74, 0
2, 63179, Note_on_c, 0, 76, 78
2, 63277, Note_on_c, 0, 76, 0
2, 63292, Note_on_c, 0, 77, 82
2, 63593, Note_on_c, 0, 77, 0
2, 63631, Note_on_c, 0, 79, 81
2, 63735, Note_on_c, 0, 79, 0
2, 63751, Note_on_c, 0, 81, 87
2, 64202, Note_on_c, 0, 81, 0
2, 64202, Note_on_c, 0, 82, 88
2, 64631, Note_on_c, 0, 82, 0
2, 64668, Note_on_c, 0, 81, 87
2, 64969, Note_on_c, 0, 81, 0
2, 65006, Note_on_c, 0, 79, 81
2, 65104, Note_on_c, 0, 79, 0
2, 65119, Note_on_c, 0, 77, 82
2, 65653, Note_on_c, 0, 77, 0
2, 65690, Note_on_c, 0, 76, 78
2, 65788, Note_on_c, 0, 76, 0
2, 65803, Note_on_c, 0, 77, 79
2, 65901, Note_on_c, 0, 77, 0
2, 65916, Note_on_c, 0, 79, 81
2, 66013, Note_on_c, 0, 79, 0
2, 66029, Note_on_c, 0, 81, 83
2, 66126, Note_on_c, 0, 81, 0
2, 66142, Note_on_c, 0, 79, 81
2, 66239, Note_on_c, 0, 79, 0
2, 66254, Note_on_c, 0, 77, 79
2, 66352, Note_on_c, 0, 77, 0
2, 66367, Note_on_c, 0, 81, 83
2, 66465, Note_on_c, 0, 81, 0
2, 66480, Note_on_c, 0, 74, 79
2, 67036, Note_on_c, 0, 74, 0
2, 67052, Note_on_c, 0, 70, 73
2, 67149, Note_on_c, 0, 70, 0
2, 67164, Note_on_c, 0, 72, 77
2, 67585, Note_on_c, 0, 72, 0
2, 67623, Note_on_c, 0, 70, 75
2, 67843, Note_on_c, 0, 70, 0
2, 67848, Note_on_c, 0, 69, 74
2, 68375, Note_on_c, 0, 69, 0
2, 68412, Note_on_c, 0, 62, 66
2, 68510, Note_on_c, 0, 62, 0
2, 68525, Note_on_c, 0, 67, 70
2, 68623, Note_on_c, 0, 67, 0
2, 68638, Note_on_c, 0, 70, 73
2, 68743, Note_on_c, 0, 70, 0
2, 68759, Note_on_c, 0, 64, 70
2, 69398, Note_on_c, 0, 64, 0
2, 69435, Note_on_c, 0, 62, 67
2, 69765, Note_on_c, 0, 62, 0
2, 69781, Note_on_c, 0, 61, 65
2, 69878, Note_on_c, 0, 61, 0
2, 69894, Note_on_c, 0, 62, 66
2, 69991, Note_on_c, 0, 62, 0
2, 70007, Note_on_c, 0, 59, 63
2, 70104, Note_on_c, 0, 59, 0
2, 70119, Note_on_c, 0, 61, 65
2, 70216, Note_on_c, 0, 61, 0
2, 70232, Note_on_c, 0, 64, 67
2, 70329, Note_on_c, 0, 64, 0
2, 70345, Note_on_c, 0, 69, 73
2, 70675, Note_on_c, 0, 69, 0
2, 70691, Note_on_c, 0, 70, 73
2, 70788, Note_on_c, 0, 70, 0
2, 70803, Note_on_c, 0, 69, 72
2, 70901, Note_on_c, 0, 69, 0
2, 70916, Note_on_c, 0, 67, 70
2, 71014, Note_on_c, 0, 67, 0
2, 71029, Note_on_c, 0, 65, 68
2, 71126, Note_on_c, 0, 65, 0
2, 71142, Note_on_c, 0, 64, 67
2, 71239, Note_on_c, 0, 64, 0
2, 71255, Note_on_c, 0, 62, 66
2, 71352, Note_on_c, 0, 62, 0
2, 71367, Note_on_c, 0, 64, 67
2, 71472, Note_on_c, 0, 64, 0
2, 71488, Note_on_c, 0, 65, 68
2, 71585, Note_on_c, 0, 65, 0
2, 71601, Note_on_c, 0, 67, 70
2, 71698, Note_on_c, 0, 67, 0
2, 71713, Note_on_c, 0, 69, 74
2, 72022, Note_on_c, 0, 69, 0
2, 72059, Note_on_c, 0, 67, 70
2, 72157, Note_on_c, 0, 67, 0
2, 72172, Note_on_c, 0, 65, 68
2, 72269, Note_on_c, 0, 65, 0
2, 72285, Note_on_c, 0, 67, 70
2, 72389, Note_on_c, 0, 67, 0
2, 72405, Note_on_c, 0, 69, 72
2, 72502, Note_on_c, 0, 69, 0
2, 72517, Note_on_c, 0, 67, 70
2, 72615, Note_on_c, 0, 67, 0
2, 72630, Note_on_c, 0, 65, 68
2, 72728, Note_on_c, 0, 65, 0
2, 72743, Note_on_c, 0, 64, 67
2, 72841, Note_on_c, 0, 64, 0
2, 72856, Note_on_c, 0, 62, 66
2, 72953, Note_on_c, 0, 62, 0
2, 72969, Note_on_c, 0, 70, 73
2, 73066, Note_on_c, 0, 70, 0
2, 73081, Note_on_c, 0, 69, 72
2, 73179, Note_on_c, 0, 69, 0
2, 73194, Note_on_c, 0, 67, 70
2, 73292, Note_on_c, 0, 67, 0
2, 73307, Note_on_c, 0, 65, 68
2, 73405, Note_on_c, 0, 65, 0
2, 73420, Note_on_c, 0, 69, 72
2, 73517, Note_on_c, 0, 69, 0
2, 73533, Note_on_c, 0, 71, 74
2, 73630, Note_on_c, 0, 71, 0
2, 73645, Note_on_c, 0, 73, 75
2, 73743, Note_on_c, 0, 73, 0
2, 73758, Note_on_c, 0, 74, 79
2, 74314, Note_on_c, 0, 74, 0
2, 74330, Note_on_c, 0, 75, 77
2, 74427, Note_on_c, 0, 75, 0
2, 74443, Note_on_c, 0, 74, 76
2, 74540, Note_on_c, 0, 74, 0
2, 74556, Note_on_c, 0, 72, 74
2, 74653, Note_on_c, 0, 72, 0
2, 74668, Note_on_c, 0, 70, 73
2, 74765, Note_on_c, 0, 70, 0
2, 74781, Note_on_c, 0, 74, 76
2, 74878, Note_on_c, 0, 74, 0
2, 74894, Note_on_c, 0, 76, 78
2, 74991, Note_on_c, 0, 76, 0
2, 75007, Note_on_c, 0, 78, 80
2, 75104, Note_on_c, 0, 78, 0
2, 75120, Note_on_c, 0, 79, 85
2, 75661, Note_on_c, 0, 79, 0
2, 75698, Note_on_c, 0, 81, 83
2, 75795, Note_on_c, 0, 81, 0
2, 75811, Note_on_c, 0, 79, 81
2, 75915, Note_on_c, 0, 79, 0
2, 75931, Note_on_c, 0, 77, 79
2, 76028, Note_on_c, 0, 77, 0
2, 76044, Note_on_c, 0, 76, 78
2, 76141, Note_on_c, 0, 76, 0
2, 76157, Note_on_c, 0, 73, 75
2, 76254, Note_on_c, 0, 73, 0
2, 76270, Note_on_c, 0, 74, 79
2, 76803, Note_on_c, 0, 74, 0
2, 76841, Note_on_c, 0, 79, 81
2, 76938, Note_on_c, 0, 79, 0
2, 76954, Note_on_c, 0, 73, 77
2, 77174, Note_on_c, 0, 73, 0
2, 77179, Note_on_c, 0, 74, 79
2, 77601, Note_on_c, 0, 74, 0
2, 77638, Note_on_c, 0, 73, 78
2, 77858, Note_on_c, 0, 73, 0
2, 77864, Note_on_c, 0, 74, 79
2, 78415, Note_on_c, 0, 74, 0
2, 78453, Note_on_c, 0, 74, 76
2, 78550, Note_on_c, 0, 74, 0
2, 78566, Note_on_c, 0, 72, 74
2, 78663, Note_on_c, 0, 72, 0
2, 78678, Note_on_c, 0, 70, 73
2, 78776, Note_on_c, 0, 70, 0
2, 78791, Note_on_c, 0, 69, 72
2, 78889, Note_on_c, 0, 69, 0
2, 78904, Note_on_c, 0, 70, 73
2, 79001, Note_on_c, 0, 70, 0
2, 79017, Note_on_c, 0, 69, 72
2, 79114, Note_on_c, 0, 69, 0
2, 79130, Note_on_c, 0, 67, 70
2, 79227, Note_on_c, 0, 67, 0
2, 79242, Note_on_c, 0, 66, 69
2, 79340, Note_on_c, 0, 66, 0
2, 79355, Note_on_c, 0, 67, 70
2, 79453, Note_on_c, 0, 67, 0
2, 79468, Note_on_c, 0, 66, 69
2, 79573, Note_on_c, 0, 66, 0
2, 79588, Note_on_c, 0, 69, 72
2, 79685, Note_on_c, 0, 69, 0
2, 79701, Note_on_c, 0, 64, 67
2, 79798, Note_on_c, 0, 64, 0
2, 79814, Note_on_c, 0, 62, 66
2, 79911, Note_on_c, 0, 62, 0
2, 79927, Note_on_c, 0, 64, 67
2, 80024, Note_on_c, 0, 64, 0
2, 80040, Note_on_c, 0, 67, 70
2, 80137, Note_on_c, 0, 67, 0
2, 80152, Note_on_c, 0, 66, 69
2, 80249, Note_on_c, 0, 66, 0
2, 80265, Note_on_c, 0, 69, 72
2, 80362, Note_on_c, 0, 69, 0
2, 80378, Note_on_c, 0, 72, 76
2, 81137, Note_on_c, 0, 72, 0
2, 81175, Note_on_c, 0, 70, 73
2, 81272, Note_on_c, 0, 70, 0
2, 81288, Note_on_c, 0, 74, 76
2, 81288, Note_on_c, 0, 69, 76
2, 81399, Note_on_c, 0, 74, 0
2, 81399, Note_on_c, 0, 69, 0
2, 81413, Note_on_c, 0, 73, 75
2, 81413, Note_on_c, 0, 67, 75
2, 81536, Note_on_c, 0, 73, 0
2, 81536, Note_on_c, 0, 67, 0
2, 81538, Note_on_c, 0, 74, 79
2, 81538, Note_on_c, 0, 66, 79
2, 82473, Note_on_c, 0, 74, 0
2, 82473, Note_on_c, 0, 66, 0
2, 82473, End_track
3, 0, Start_track
3, 0, Title_t, "J.S. Bach's KDF"
3, 0, Program_c, 1, 0
3, 0, Control_c, 1, 7, 125
3, 0, Note_on_c, 1, 69, 74
3, 443, Note_on_c, 1, 69, 0
3, 480, Note_on_c, 1, 62, 68
3, 803, Note_on_c, 1, 62, 0
3, 840, Note_on_c, 1, 64, 67
3, 937, Note_on_c, 1, 64, 0
3, 953, Note_on_c, 1, 65, 71
3, 1275, Note_on_c, 1, 65, 0
3, 1313, Note_on_c, 1, 67, 70
3, 1410, Note_on_c, 1, 67, 0
3, 1426, Note_on_c, 1, 69, 74
3, 1906, Note_on_c, 1, 69, 0
3, 1906, Note_on_c, 1, 70, 75
3, 2348, Note_on_c, 1, 70, 0
3, 2386, Note_on_c, 1, 69, 74
3, 2708, Note_on_c, 1, 69, 0
3, 2746, Note_on_c, 1, 67, 70
3, 2843, Note_on_c, 1, 67, 0
3, 2858, Note_on_c, 1, 65, 71
3, 3431, Note_on_c, 1, 65, 0
3, 3468, Note_on_c, 1, 64, 67
3, 3565, Note_on_c, 1, 64, 0
3, 3581, Note_on_c, 1, 65, 68
3, 3685, Note_on_c, 1, 65, 0
3, 3701, Note_on_c, 1, 67, 70
3, 3805, Note_on_c, 1, 67, 0
3, 3821, Note_on_c, 1, 69, 72
3, 3918, Note_on_c, 1, 69, 0
3, 3934, Note_on_c, 1, 70, 73
3, 4031, Note_on_c, 1, 70, 0
3, 4047, Note_on_c, 1, 72, 77
3, 4363, Note_on_c, 1, 72, 0
3, 4400, Note_on_c, 1, 70, 73
3, 4497, Note_on_c, 1, 70, 0
3, 4513, Note_on_c, 1, 69, 72
3, 4610, Note_on_c, 1, 69, 0
3, 4626, Note_on_c, 1, 70, 73
3, 4730, Note_on_c, 1, 70, 0
3, 4746, Note_on_c, 1, 64, 67
3, 4843, Note_on_c, 1, 64, 0
3, 4859, Note_on_c, 1, 65, 68
3, 4956, Note_on_c, 1, 65, 0
3, 4971, Note_on_c, 1, 67, 73
3, 5298, Note_on_c, 1, 67, 0
3, 5335, Note_on_c, 1, 69, 72
3, 5432, Note_on_c, 1, 69, 0
3, 5448, Note_on_c, 1, 65, 68
3, 5545, Note_on_c, 1, 65, 0
3, 5561, Note_on_c, 1, 67, 70
3, 5665, Note_on_c, 1, 67, 0
3, 5681, Note_on_c, 1, 69, 72
3, 5778, Note_on_c, 1, 69, 0
3, 5794, Note_on_c, 1, 67, 70
3, 5891, Note_on_c, 1, 67, 0
3, 5906, Note_on_c, 1, 65, 68
3, 6004, Note_on_c, 1, 65, 0
3, 6019, Note_on_c, 1, 64, 67
3, 6117, Note_on_c, 1, 64, 0
3, 6132, Note_on_c, 1, 62, 66
3, 6229, Note_on_c, 1, 62, 0
3, 6245, Note_on_c, 1, 59, 63
3, 6342, Note_on_c, 1, 59, 0
3, 6358, Note_on_c, 1, 61, 67
3, 6577, Note_on_c, 1, 61, 0
3, 6583, Note_on_c, 1, 62, 68
3, 7110, Note_on_c, 1, 62, 0
3, 7147, Note_on_c, 1, 64, 67
3, 7245, Note_on_c, 1, 64, 0
3, 7260, Note_on_c, 1, 65, 68
3, 7357, Note_on_c, 1, 65, 0
3, 7373, Note_on_c, 1, 67, 70
3, 7470, Note_on_c, 1, 67, 0
3, 7486, Note_on_c, 1, 69, 72
3, 7583, Note_on_c, 1, 69, 0
3, 7598, Note_on_c, 1, 64, 67
3, 7696, Note_on_c, 1, 64, 0
3, 7711, Note_on_c, 1, 69, 74
3, 8027, Note_on_c, 1, 69, 0
3, 8064, Note_on_c, 1, 62, 66
3, 8161, Note_on_c, 1, 62, 0
3, 8177, Note_on_c, 1, 67, 72
3, 8397, Note_on_c, 1, 67, 0
3, 8403, Note_on_c, 1, 65, 68
3, 8500, Note_on_c, 1, 65, 0
3, 8516, Note_on_c, 1, 69, 72
3, 8613, Note_on_c, 1, 69, 0
3, 8628, Note_on_c, 1, 71, 74
3, 8733, Note_on_c, 1, 71, 0
3, 8748, Note_on_c, 1, 73, 75
3, 8846, Note_on_c, 1, 73, 0
3, 8861, Note_on_c, 1, 74, 76
3, 8959, Note_on_c, 1, 74, 0
3, 8974, Note_on_c, 1, 69, 72
3, 9072, Note_on_c, 1, 69, 0
3, 9087, Note_on_c, 1, 74, 78
3, 9307, Note_on_c, 1, 74, 0
3, 9312, Note_on_c, 1, 72, 77
3, 9771, Note_on_c, 1, 72, 0
3, 10808, Note_on_c, 1, 81, 83
3, 10906, Note_on_c, 1, 81, 0
3, 10921, Note_on_c, 1, 79, 81
3, 11026, Note_on_c, 1, 79, 0
3, 11041, Note_on_c, 1, 77, 79
3, 11138, Note_on_c, 1, 77, 0
3, 11154, Note_on_c, 1, 76, 81
3, 11681, Note_on_c, 1, 76, 0
3, 11718, Note_on_c, 1, 79, 81
3, 11815, Note_on_c, 1, 79, 0
3, 11831, Note_on_c, 1, 77, 79
3, 11928, Note_on_c, 1, 77, 0
3, 11944, Note_on_c, 1, 76, 78
3, 12041, Note_on_c, 1, 76, 0
3, 12057, Note_on_c, 1, 77, 82
3, 12515, Note_on_c, 1, 77, 0
3, 12515, Note_on_c, 1, 76, 81
3, 13064, Note_on_c, 1, 76, 0
3, 13079, Note_on_c, 1, 69, 72
3, 13184, Note_on_c, 1, 69, 0
3, 13200, Note_on_c, 1, 71, 74
3, 13296, Note_on_c, 1, 71, 0
3, 13312, Note_on_c, 1, 73, 75
3, 13409, Note_on_c, 1, 73, 0
3, 13425, Note_on_c, 1, 74, 76
3, 13522, Note_on_c, 1, 74, 0
3, 13538, Note_on_c, 1, 69, 72
3, 13635, Note_on_c, 1, 69, 0
3, 13651, Note_on_c, 1, 74, 78
3, 13989, Note_on_c, 1, 74, 0
3, 13989, Note_on_c, 1, 74, 76
3, 14086, Note_on_c, 1, 74, 0
3, 14102, Note_on_c, 1, 73, 75
3, 14199, Note_on_c, 1, 73, 0
3, 14215, Note_on_c, 1, 71, 74
3, 14312, Note_on_c, 1, 71, 0
3, 14328, Note_on_c, 1, 73, 78
3, 14898, Note_on_c, 1, 73, 0
3, 14914, Note_on_c, 1, 57, 62
3, 15011, Note_on_c, 1, 57, 0
3, 15026, Note_on_c, 1, 59, 63
3, 15123, Note_on_c, 1, 59, 0
3, 15139, Note_on_c, 1, 61, 65
3, 15236, Note_on_c, 1, 61, 0
3, 15252, Note_on_c, 1, 62, 66
3, 15349, Note_on_c, 1, 62, 0
3, 15365, Note_on_c, 1, 64, 67
3, 15469, Note_on_c, 1, 64, 0
3, 15485, Note_on_c, 1, 65, 70
3, 15808, Note_on_c, 1, 65, 0
3, 15823, Note_on_c, 1, 67, 70
3, 15921, Note_on_c, 1, 67, 0
3, 15936, Note_on_c, 1, 69, 74
3, 16252, Note_on_c, 1, 69, 0
3, 16289, Note_on_c, 1, 67, 70
3, 16386, Note_on_c, 1, 67, 0
3, 16402, Note_on_c, 1, 65, 68
3, 16499, Note_on_c, 1, 65, 0
3, 16515, Note_on_c, 1, 64, 67
3, 16612, Note_on_c, 1, 64, 0
3, 16628, Note_on_c, 1, 62, 67
3, 16818, Note_on_c, 1, 62, 0
3, 16853, Note_on_c, 1, 74, 79
3, 17161, Note_on_c, 1, 74, 0
3, 17199, Note_on_c, 1, 74, 76
3, 17296, Note_on_c, 1, 74, 0
3, 17312, Note_on_c, 1, 72, 74
3, 17409, Note_on_c, 1, 72, 0
3, 17424, Note_on_c, 1, 71, 74
3, 17522, Note_on_c, 1, 71, 0
3, 17537, Note_on_c, 1, 69, 72
3, 17635, Note_on_c, 1, 69, 0
3, 17650, Note_on_c, 1, 64, 67
3, 17748, Note_on_c, 1, 64, 0
3, 17763, Note_on_c, 1, 66, 69
3, 17860, Note_on_c, 1, 66, 0
3, 17876, Note_on_c, 1, 68, 71
3, 17973, Note_on_c, 1, 68, 0
3, 17988, Note_on_c, 1, 69, 74
3, 18552, Note_on_c, 1, 69, 0
3, 18567, Note_on_c, 1, 68, 71
3, 18664, Note_on_c, 1, 68, 0
3, 18680, Note_on_c, 1, 69, 72
3, 18785, Note_on_c, 1, 69, 0
3, 18800, Note_on_c, 1, 71, 74
3, 18898, Note_on_c, 1, 71, 0
3, 18913, Note_on_c, 1, 72, 77
3, 19371, Note_on_c, 1, 72, 0
3, 19371, Note_on_c, 1, 71, 76
3, 19906, Note_on_c, 1, 71, 0
3, 19943, Note_on_c, 1, 71, 74
3, 20040, Note_on_c, 1, 71, 0
3, 20056, Note_on_c, 1, 69, 72
3, 20153, Note_on_c, 1, 69, 0
3, 20169, Note_on_c, 1, 68, 71
3, 20273, Note_on_c, 1, 68, 0
3, 20289, Note_on_c, 1, 69, 72
3, 20386, Note_on_c, 1, 69, 0
3, 20401, Note_on_c, 1, 67, 70
3, 20499, Note_on_c, 1, 67, 0
3, 20514, Note_on_c, 1, 65, 68
3, 20612, Note_on_c, 1, 65, 0
3, 20627, Note_on_c, 1, 64, 67
3, 20724, Note_on_c, 1, 64, 0
3, 20740, Note_on_c, 1, 65, 71
3, 21048, Note_on_c, 1, 65, 0
3, 21086, Note_on_c, 1, 67, 70
3, 21183, Note_on_c, 1, 67, 0
3, 21199, Note_on_c, 1, 60, 66
3, 21419, Note_on_c, 1, 60, 0
3, 23033, Note_on_c, 1, 62, 68
3, 23447, Note_on_c, 1, 62, 0
3, 23484, Note_on_c, 1, 69, 74
3, 23792, Note_on_c, 1, 69, 0
3, 23830, Note_on_c, 1, 67, 70
3, 23927, Note_on_c, 1, 67, 0
3, 23942, Note_on_c, 1, 65, 71
3, 24243, Note_on_c, 1, 65, 0
3, 24281, Note_on_c, 1, 64, 67
3, 24378, Note_on_c, 1, 64, 0
3, 24394, Note_on_c, 1, 62, 68
3, 24845, Note_on_c, 1, 62, 0
3, 24845, Note_on_c, 1, 61, 67
3, 25266, Note_on_c, 1, 61, 0
3, 25304, Note_on_c, 1, 62, 68
3, 25612, Note_on_c, 1, 62, 0
3, 25649, Note_on_c, 1, 64, 67
3, 25747, Note_on_c, 1, 64, 0
3, 25762, Note_on_c, 1, 65, 71
3, 26304, Note_on_c, 1, 65, 0
3, 26341, Note_on_c, 1, 67, 70
3, 26438, Note_on_c, 1, 67, 0
3, 26454, Note_on_c, 1, 65, 68
3, 26551, Note_on_c, 1, 65, 0
3, 26567, Note_on_c, 1, 63, 67
3, 26664, Note_on_c, 1, 63, 0
3, 26679, Note_on_c, 1, 62, 68
3, 27694, Note_on_c, 1, 62, 0
3, 27709, Note_on_c, 1, 63, 67
3, 27806, Note_on_c, 1, 63, 0
3, 27822, Note_on_c, 1, 62, 66
3, 27919, Note_on_c, 1, 62, 0
3, 27935, Note_on_c, 1, 60, 64
3, 28032, Note_on_c, 1, 60, 0
3, 28047, Note_on_c, 1, 58, 65
3, 29040, Note_on_c, 1, 58, 0
3, 29077, Note_on_c, 1, 62, 66
3, 29175, Note_on_c, 1, 62, 0
3, 29190, Note_on_c, 1, 60, 64
3, 29288, Note_on_c, 1, 60, 0
3, 29303, Note_on_c, 1, 58, 63
3, 29400, Note_on_c, 1, 58, 0
3, 29416, Note_on_c, 1, 57, 64
3, 29724, Note_on_c, 1, 57, 0
3, 29762, Note_on_c, 1, 69, 72
3, 29859, Note_on_c, 1, 69, 0
3, 29875, Note_on_c, 1, 67, 70
3, 29972, Note_on_c, 1, 67, 0
3, 29988, Note_on_c, 1, 65, 68
3, 30084, Note_on_c, 1, 65, 0
3, 30100, Note_on_c, 1, 67, 72
3, 30320, Note_on_c, 1, 67, 0
3, 30326, Note_on_c, 1, 60, 66
3, 30546, Note_on_c, 1, 60, 0
3, 30897, Note_on_c, 1, 65, 68
3, 30994, Note_on_c, 1, 65, 0
3, 31010, Note_on_c, 1, 64, 67
3, 31107, Note_on_c, 1, 64, 0
3, 31123, Note_on_c, 1, 62, 66
3, 31220, Note_on_c, 1, 62, 0
3, 31236, Note_on_c, 1, 67, 70
3, 31332, Note_on_c, 1, 67, 0
3, 31348, Note_on_c, 1, 69, 72
3, 31445, Note_on_c, 1, 69, 0
3, 31461, Note_on_c, 1, 70, 75
3, 31769, Note_on_c, 1, 70, 0
3, 31807, Note_on_c, 1, 69, 72
3, 31904, Note_on_c, 1, 69, 0
3, 31920, Note_on_c, 1, 70, 74
3, 32147, Note_on_c, 1, 70, 0
3, 32153, Note_on_c, 1, 69, 73
3, 32373, Note_on_c, 1, 69, 0
3, 32378, Note_on_c, 1, 64, 69
3, 32598, Note_on_c, 1, 64, 0
3, 32604, Note_on_c, 1, 65, 71
3, 33160, Note_on_c, 1, 65, 0
3, 33175, Note_on_c, 1, 64, 67
3, 33273, Note_on_c, 1, 64, 0
3, 33288, Note_on_c, 1, 65, 68
3, 33385, Note_on_c, 1, 65, 0
3, 33401, Note_on_c, 1, 67, 70
3, 33498, Note_on_c, 1, 67, 0
3, 33514, Note_on_c, 1, 69, 74
3, 34062, Note_on_c, 1, 69, 0
3, 34078, Note_on_c, 1, 70, 73
3, 34175, Note_on_c, 1, 70, 0
3, 34190, Note_on_c, 1, 69, 72
3, 34288, Note_on_c, 1, 69, 0
3, 34303, Note_on_c, 1, 67, 70
3, 34401, Note_on_c, 1, 67, 0
3, 34416, Note_on_c, 1, 65, 70
3, 34644, Note_on_c, 1, 65, 0
3, 34649, Note_on_c, 1, 69, 73
3, 34869, Note_on_c, 1, 69, 0
3, 34874, Note_on_c, 1, 67, 73
3, 35326, Note_on_c, 1, 67, 0
3, 35326, Note_on_c, 1, 65, 71
3, 35777, Note_on_c, 1, 65, 0
3, 35777, Note_on_c, 1, 64, 70
3, 36228, Note_on_c, 1, 64, 0
3, 36228, Note_on_c, 1, 62, 68
3, 36679, Note_on_c, 1, 62, 0
3, 36679, Note_on_c, 1, 60, 66
3, 36900, Note_on_c, 1, 60, 0
3, 37130, Note_on_c, 1, 67, 73
3, 37544, Note_on_c, 1, 67, 0
3, 37582, Note_on_c, 1, 74, 79
3, 37883, Note_on_c, 1, 74, 0
3, 37920, Note_on_c, 1, 72, 74
3, 38017, Note_on_c, 1, 72, 0
3, 38033, Note_on_c, 1, 70, 75
3, 38334, Note_on_c, 1, 70, 0
3, 38371, Note_on_c, 1, 69, 72
3, 38469, Note_on_c, 1, 69, 0
3, 38484, Note_on_c, 1, 67, 73
3, 38943, Note_on_c, 1, 67, 0
3, 38943, Note_on_c, 1, 66, 72
3, 39357, Note_on_c, 1, 66, 0
3, 39394, Note_on_c, 1, 67, 73
3, 39702, Note_on_c, 1, 67, 0
3, 39740, Note_on_c, 1, 69, 72
3, 39837, Note_on_c, 1, 69, 0
3, 39852, Note_on_c, 1, 70, 75
3, 40408, Note_on_c, 1, 70, 0
3, 40424, Note_on_c, 1, 72, 74
3, 40521, Note_on_c, 1, 72, 0
3, 40536, Note_on_c, 1, 70, 73
3, 40634, Note_on_c, 1, 70, 0
3, 40649, Note_on_c, 1, 69, 72
3, 40747, Note_on_c, 1, 69, 0
3, 40762, Note_on_c, 1, 67, 70
3, 40860, Note_on_c, 1, 67, 0
3, 40875, Note_on_c, 1, 70, 73
3, 40972, Note_on_c, 1, 70, 0
3, 40988, Note_on_c, 1, 69, 72
3, 41085, Note_on_c, 1, 69, 0
3, 41100, Note_on_c, 1, 67, 70
3, 41205, Note_on_c, 1, 67, 0
3, 41221, Note_on_c, 1, 69, 73
3, 41448, Note_on_c, 1, 69, 0
3, 41454, Note_on_c, 1, 72, 76
3, 41644, Note_on_c, 1, 72, 0
3, 41679, Note_on_c, 1, 65, 71
3, 41980, Note_on_c, 1, 65, 0
3, 42018, Note_on_c, 1, 67, 70
3, 42122, Note_on_c, 1, 67, 0
3, 42138, Note_on_c, 1, 65, 68
3, 42235, Note_on_c, 1, 65, 0
3, 42251, Note_on_c, 1, 63, 67
3, 42348, Note_on_c, 1, 63, 0
3, 42363, Note_on_c, 1, 62, 66
3, 42461, Note_on_c, 1, 62, 0
3, 42476, Note_on_c, 1, 60, 64
3, 42574, Note_on_c, 1, 60, 0
3, 42589, Note_on_c, 1, 62, 67
3, 42809, Note_on_c, 1, 62, 0
3, 43168, Note_on_c, 1, 57, 62
3, 43265, Note_on_c, 1, 57, 0
3, 43281, Note_on_c, 1, 58, 63
3, 43378, Note_on_c, 1, 58, 0
3, 43393, Note_on_c, 1, 60, 64
3, 43498, Note_on_c, 1, 60, 0
3, 43514, Note_on_c, 1, 62, 66
3, 43611, Note_on_c, 1, 62, 0
3, 43627, Note_on_c, 1, 60, 64
3, 43731, Note_on_c, 1, 60, 0
3, 43747, Note_on_c, 1, 63, 68
3, 43967, Note_on_c, 1, 63, 0
3, 43972, Note_on_c, 1, 62, 67
3, 44162, Note_on_c, 1, 62, 0
3, 44198, Note_on_c, 1, 67, 70
3, 44295, Note_on_c, 1, 67, 0
3, 44311, Note_on_c, 1, 69, 72
3, 44415, Note_on_c, 1, 69, 0
3, 44431, Note_on_c, 1, 70, 73
3, 44528, Note_on_c, 1, 70, 0
3, 44544, Note_on_c, 1, 72, 74
3, 44641, Note_on_c, 1, 72, 0
3, 44656, Note_on_c, 1, 74, 78
3, 44987, Note_on_c, 1, 74, 0
3, 45002, Note_on_c, 1, 72, 74
3, 45099, Note_on_c, 1, 72, 0
3, 45115, Note_on_c, 1, 70, 73
3, 45212, Note_on_c, 1, 70, 0
3, 45228, Note_on_c, 1, 69, 72
3, 45325, Note_on_c, 1, 69, 0
3, 45341, Note_on_c, 1, 67, 70
3, 45445, Note_on_c, 1, 67, 0
3, 45461, Note_on_c, 1, 69, 72
3, 45558, Note_on_c, 1, 69, 0
3, 45574, Note_on_c, 1, 70, 74
3, 45897, Note_on_c, 1, 70, 0
3, 45912, Note_on_c, 1, 67, 70
3, 46009, Note_on_c, 1, 67, 0
3, 46025, Note_on_c, 1, 69, 74
3, 46333, Note_on_c, 1, 69, 0
3, 46370, Note_on_c, 1, 65, 68
3, 46468, Note_on_c, 1, 65, 0
3, 46483, Note_on_c, 1, 67, 70
3, 46581, Note_on_c, 1, 67, 0
3, 46596, Note_on_c, 1, 69, 72
3, 46693, Note_on_c, 1, 69, 0
3, 46709, Note_on_c, 1, 70, 75
3, 47243, Note_on_c, 1, 70, 0
3, 47280, Note_on_c, 1, 70, 73
3, 47377, Note_on_c, 1, 70, 0
3, 47393, Note_on_c, 1, 69, 72
3, 47490, Note_on_c, 1, 69, 0
3, 47506, Note_on_c, 1, 67, 70
3, 47603, Note_on_c, 1, 67, 0
3, 47619, Note_on_c, 1, 69, 73
3, 47851, Note_on_c, 1, 69, 0
3, 48345, Note_on_c, 1, 72, 76
3, 48572, Note_on_c, 1, 72, 0
3, 48577, Note_on_c, 1, 67, 73
3, 48878, Note_on_c, 1, 67, 0
3, 48916, Note_on_c, 1, 69, 72
3, 49013, Note_on_c, 1, 69, 0
3, 49029, Note_on_c, 1, 70, 75
3, 49337, Note_on_c, 1, 70, 0
3, 49375, Note_on_c, 1, 72, 74
3, 49472, Note_on_c, 1, 72, 0
3, 49487, Note_on_c, 1, 74, 78
3, 49715, Note_on_c, 1, 74, 0
3, 49720, Note_on_c, 1, 69, 74
3, 50021, Note_on_c, 1, 69, 0
3, 50059, Note_on_c, 1, 70, 73
3, 50156, Note_on_c, 1, 70, 0
3, 50171, Note_on_c, 1, 72, 76
3, 50632, Note_on_c, 1, 72, 0
3, 50638, Note_on_c, 1, 70, 75
3, 51066, Note_on_c, 1, 70, 0
3, 51103, Note_on_c, 1, 69, 73
3, 51433, Note_on_c, 1, 69, 0
3, 51449, Note_on_c, 1, 71, 74
3, 51546, Note_on_c, 1, 71, 0
3, 51562, Note_on_c, 1, 69, 72
3, 51659, Note_on_c, 1, 69, 0
3, 51675, Note_on_c, 1, 68, 71
3, 51779, Note_on_c, 1, 68, 0
3, 51795, Note_on_c, 1, 69, 73
3, 52022, Note_on_c, 1, 69, 0
3, 52712, Note_on_c, 1, 62, 68
3, 53126, Note_on_c, 1, 62, 0
3, 53163, Note_on_c, 1, 69, 74
3, 53464, Note_on_c, 1, 69, 0
3, 53502, Note_on_c, 1, 67, 70
3, 53599, Note_on_c, 1, 67, 0
3, 53615, Note_on_c, 1, 65, 71
3, 53915, Note_on_c, 1, 65, 0
3, 53953, Note_on_c, 1, 64, 67
3, 54050, Note_on_c, 1, 64, 0
3, 54066, Note_on_c, 1, 62, 68
3, 54524, Note_on_c, 1, 62, 0
3, 54524, Note_on_c, 1, 61, 67
3, 54946, Note_on_c, 1, 61, 0
3, 54983, Note_on_c, 1, 62, 68
3, 55291, Note_on_c, 1, 62, 0
3, 55329, Note_on_c, 1, 64, 67
3, 55426, Note_on_c, 1, 64, 0
3, 55441, Note_on_c, 1, 65, 71
3, 56004, Note_on_c, 1, 65, 0
3, 56020, Note_on_c, 1, 67, 70
3, 56117, Note_on_c, 1, 67, 0
3, 56133, Note_on_c, 1, 65, 68
3, 56230, Note_on_c, 1, 65, 0
3, 56246, Note_on_c, 1, 63, 67
3, 56343, Note_on_c, 1, 63, 0
3, 56359, Note_on_c, 1, 62, 68
3, 57359, Note_on_c, 1, 62, 0
3, 57396, Note_on_c, 1, 62, 66
3, 57493, Note_on_c, 1, 62, 0
3, 57509, Note_on_c, 1, 60, 64
3, 57606, Note_on_c, 1, 60, 0
3, 57622, Note_on_c, 1, 58, 63
3, 57719, Note_on_c, 1, 58, 0
3, 57734, Note_on_c, 1, 57, 64
3, 58389, Note_on_c, 1, 57, 0
3, 58426, Note_on_c, 1, 56, 63
3, 58646, Note_on_c, 1, 56, 0
3, 58652, Note_on_c, 1, 57, 63
3, 58897, Note_on_c, 1, 57, 0
3, 59391, Note_on_c, 1, 69, 73
3, 59618, Note_on_c, 1, 69, 0
3, 59624, Note_on_c, 1, 74, 79
3, 59932, Note_on_c, 1, 74, 0
3, 59970, Note_on_c, 1, 72, 74
3, 60067, Note_on_c, 1, 72, 0
3, 60083, Note_on_c, 1, 70, 75
3, 60398, Note_on_c, 1, 70, 0
3, 60435, Note_on_c, 1, 69, 72
3, 60533, Note_on_c, 1, 69, 0
3, 60548, Note_on_c, 1, 67, 72
3, 60768, Note_on_c, 1, 67, 0
3, 60774, Note_on_c, 1, 72, 77
3, 61082, Note_on_c, 1, 72, 0
3, 61120, Note_on_c, 1, 70, 73
3, 61217, Note_on_c, 1, 70, 0
3, 61233, Note_on_c, 1, 69, 73
3, 61563, Note_on_c, 1, 69, 0
3, 61578, Note_on_c, 1, 67, 70
3, 61676, Note_on_c, 1, 67, 0
3, 61691, Note_on_c, 1, 65, 70
3, 61888, Note_on_c, 1, 65, 0
3, 61924, Note_on_c, 1, 70, 73
3, 62021, Note_on_c, 1, 70, 0
3, 62037, Note_on_c, 1, 69, 72
3, 62134, Note_on_c, 1, 69, 0
3, 62149, Note_on_c, 1, 67, 72
3, 62347, Note_on_c, 1, 67, 0
3, 62383, Note_on_c, 1, 72, 74
3, 62487, Note_on_c, 1, 72, 0
3, 62503, Note_on_c, 1, 70, 73
3, 62600, Note_on_c, 1, 70, 0
3, 62615, Note_on_c, 1, 72, 77
3, 62916, Note_on_c, 1, 72, 0
3, 62954, Note_on_c, 1, 69, 72
3, 63051, Note_on_c, 1, 69, 0
3, 63067, Note_on_c, 1, 70, 74
3, 63287, Note_on_c, 1, 70, 0
3, 63292, Note_on_c, 1, 69, 72
3, 63390, Note_on_c, 1, 69, 0
3, 63405, Note_on_c, 1, 73, 75
3, 63503, Note_on_c, 1, 73, 0
3, 63518, Note_on_c, 1, 74, 76
3, 63615, Note_on_c, 1, 74, 0
3, 63631, Note_on_c, 1, 76, 78
3, 63735, Note_on_c, 1, 76, 0
3, 63751, Note_on_c, 1, 77, 82
3, 64307, Note_on_c, 1, 77, 0
3, 64322, Note_on_c, 1, 81, 83
3, 64419, Note_on_c, 1, 81, 0
3, 64435, Note_on_c, 1, 79, 81
3, 64532, Note_on_c, 1, 79, 0
3, 64548, Note_on_c, 1, 77, 79
3, 64653, Note_on_c, 1, 77, 0
3, 64668, Note_on_c, 1, 76, 78
3, 64765, Note_on_c, 1, 76, 0
3, 64781, Note_on_c, 1, 74, 76
3, 64878, Note_on_c, 1, 74, 0
3, 64894, Note_on_c, 1, 76, 80
3, 65114, Note_on_c, 1, 76, 0
3, 65119, Note_on_c, 1, 74, 79
3, 65570, Note_on_c, 1, 74, 0
3, 70571, Note_on_c, 1, 62, 68
3, 70991, Note_on_c, 1, 62, 0
3, 71029, Note_on_c, 1, 69, 74
3, 71330, Note_on_c, 1, 69, 0
3, 71367, Note_on_c, 1, 67, 70
3, 71472, Note_on_c, 1, 67, 0
3, 71488, Note_on_c, 1, 65, 71
3, 71789, Note_on_c, 1, 65, 0
3, 71826, Note_on_c, 1, 64, 67
3, 71923, Note_on_c, 1, 64, 0
3, 71939, Note_on_c, 1, 62, 68
3, 72405, Note_on_c, 1, 62, 0
3, 72405, Note_on_c, 1, 61, 67
3, 72818, Note_on_c, 1, 61, 0
3, 72856, Note_on_c, 1, 62, 68
3, 73157, Note_on_c, 1, 62, 0
3, 73194, Note_on_c, 1, 64, 67
3, 73292, Note_on_c, 1, 64, 0
3, 73307, Note_on_c, 1, 65, 71
3, 73841, Note_on_c, 1, 65, 0
3, 73879, Note_on_c, 1, 67, 70
3, 73976, Note_on_c, 1, 67, 0
3, 73992, Note_on_c, 1, 65, 68
3, 74088, Note_on_c, 1, 65, 0
3, 74104, Note_on_c, 1, 64, 67
3, 74201, Note_on_c, 1, 64, 0
3, 74217, Note_on_c, 1, 62, 68
3, 75224, Note_on_c, 1, 62, 0
3, 75240, Note_on_c, 1, 69, 72
3, 75337, Note_on_c, 1, 69, 0
3, 75352, Note_on_c, 1, 70, 73
3, 75450, Note_on_c, 1, 70, 0
3, 75465, Note_on_c, 1, 72, 74
3, 75563, Note_on_c, 1, 72, 0
3, 75578, Note_on_c, 1, 74, 79
3, 76044, Note_on_c, 1, 74, 0
3, 76044, Note_on_c, 1, 69, 74
3, 76571, Note_on_c, 1, 69, 0
3, 76608, Note_on_c, 1, 69, 72
3, 76713, Note_on_c, 1, 69, 0
3, 76728, Note_on_c, 1, 67, 72
3, 77051, Note_on_c, 1, 67, 0
3, 77066, Note_on_c, 1, 69, 72
3, 77164, Note_on_c, 1, 69, 0
3, 77179, Note_on_c, 1, 70, 74
3, 77407, Note_on_c, 1, 70, 0
3, 77412, Note_on_c, 1, 69, 74
3, 77713, Note_on_c, 1, 69, 0
3, 77750, Note_on_c, 1, 67, 70
3, 77961, Note_on_c, 1, 67, 0
3, 77976, Note_on_c, 1, 64, 67
3, 78073, Note_on_c, 1, 64, 0
3, 78089, Note_on_c, 1, 66, 71
3, 78335, Note_on_c, 1, 66, 0
3, 78340, Note_on_c, 1, 69, 74
3, 78641, Note_on_c, 1, 69, 0
3, 78678, Note_on_c, 1, 67, 70
3, 78776, Note_on_c, 1, 67, 0
3, 78791, Note_on_c, 1, 66, 72
3, 79092, Note_on_c, 1, 66, 0
3, 79129, Note_on_c, 1, 64, 67
3, 79227, Note_on_c, 1, 64, 0
3, 79242, Note_on_c, 1, 62, 68
3, 79701, Note_on_c, 1, 62, 0
3, 79701, Note_on_c, 1, 61, 67
3, 80115, Note_on_c, 1, 61, 0
3, 80152, Note_on_c, 1, 62, 68
3, 80453, Note_on_c, 1, 62, 0
3, 80491, Note_on_c, 1, 64, 67
3, 80588, Note_on_c, 1, 64, 0
3, 80604, Note_on_c, 1, 66, 72
3, 81137, Note_on_c, 1, 66, 0
3, 81175, Note_on_c, 1, 67, 70
3, 81272, Note_on_c, 1, 67, 0
3, 81288, Note_on_c, 1, 66, 69
3, 81398, Note_on_c, 1, 66, 0
3, 81413, Note_on_c, 1, 64, 67
3, 81536, Note_on_c, 1, 64, 0
3, 81538, Note_on_c, 1, 62, 68
3, 82473, Note_on_c, 1, 62, 0
3, 82473, End_track
4, 0, Start_track
4, 0, Title_t, "A.G. Simonetto, \251 2002"
4, 0, Program_c, 2, 0
4, 0, Control_c, 2, 7, 125
4, 8403, Note_on_c, 2, 62, 68
4, 8824, Note_on_c, 2, 62, 0
4, 8861, Note_on_c, 2, 57, 64
4, 9162, Note_on_c, 2, 57, 0
4, 9200, Note_on_c, 2, 59, 63
4, 9297, Note_on_c, 2, 59, 0
4, 9312, Note_on_c, 2, 60, 67
4, 9621, Note_on_c, 2, 60, 0
4, 9658, Note_on_c, 2, 62, 66
4, 9756, Note_on_c, 2, 62, 0
4, 9771, Note_on_c, 2, 64, 70
4, 10230, Note_on_c, 2, 64, 0
4, 10230, Note_on_c, 2, 65, 71
4, 10651, Note_on_c, 2, 65, 0
4, 10688, Note_on_c, 2, 64, 70
4, 11004, Note_on_c, 2, 64, 0
4, 11041, Note_on_c, 2, 62, 66
4, 11138, Note_on_c, 2, 62, 0
4, 11154, Note_on_c, 2, 61, 67
4, 11681, Note_on_c, 2, 61, 0
4, 11718, Note_on_c, 2, 57, 62
4, 11815, Note_on_c, 2, 57, 0
4, 11831, Note_on_c, 2, 59, 63
4, 11928, Note_on_c, 2, 59, 0
4, 11944, Note_on_c, 2, 61, 65
4, 12041, Note_on_c, 2, 61, 0
4, 12057, Note_on_c, 2, 62, 68
4, 12590, Note_on_c, 2, 62, 0
4, 12628, Note_on_c, 2, 62, 66
4, 12725, Note_on_c, 2, 62, 0
4, 12741, Note_on_c, 2, 61, 65
4, 12838, Note_on_c, 2, 61, 0
4, 12853, Note_on_c, 2, 59, 63
4, 12951, Note_on_c, 2, 59, 0
4, 12966, Note_on_c, 2, 61, 67
4, 13164, Note_on_c, 2, 61, 0
4, 13200, Note_on_c, 2, 62, 66
4, 13296, Note_on_c, 2, 62, 0
4, 13312, Note_on_c, 2, 64, 67
4, 13409, Note_on_c, 2, 64, 0
4, 13425, Note_on_c, 2, 65, 68
4, 13522, Note_on_c, 2, 65, 0
4, 13538, Note_on_c, 2, 64, 67
4, 13635, Note_on_c, 2, 64, 0
4, 13651, Note_on_c, 2, 65, 68
4, 13748, Note_on_c, 2, 65, 0
4, 13764, Note_on_c, 2, 67, 70
4, 13860, Note_on_c, 2, 67, 0
4, 13876, Note_on_c, 2, 69, 73
4, 14096, Note_on_c, 2, 69, 0
4, 14102, Note_on_c, 2, 64, 69
4, 14322, Note_on_c, 2, 64, 0
4, 14328, Note_on_c, 2, 69, 74
4, 14793, Note_on_c, 2, 69, 0
4, 17537, Note_on_c, 2, 57, 64
4, 17951, Note_on_c, 2, 57, 0
4, 17988, Note_on_c, 2, 64, 70
4, 18297, Note_on_c, 2, 64, 0
4, 18334, Note_on_c, 2, 62, 66
4, 18432, Note_on_c, 2, 62, 0
4, 18447, Note_on_c, 2, 60, 67
4, 18763, Note_on_c, 2, 60, 0
4, 18800, Note_on_c, 2, 59, 63
4, 18898, Note_on_c, 2, 59, 0
4, 18913, Note_on_c, 2, 57, 64
4, 19371, Note_on_c, 2, 57, 0
4, 19371, Note_on_c, 2, 56, 63
4, 19785, Note_on_c, 2, 56, 0
4, 19823, Note_on_c, 2, 57, 64
4, 20131, Note_on_c, 2, 57, 0
4, 20169, Note_on_c, 2, 59, 63
4, 20273, Note_on_c, 2, 59, 0
4, 20289, Note_on_c, 2, 60, 67
4, 20823, Note_on_c, 2, 60, 0
4, 20860, Note_on_c, 2, 62, 66
4, 20957, Note_on_c, 2, 62, 0
4, 20973, Note_on_c, 2, 60, 64
4, 21070, Note_on_c, 2, 60, 0
4, 21086, Note_on_c, 2, 58, 63
4, 21183, Note_on_c, 2, 58, 0
4, 21199, Note_on_c, 2, 57, 64
4, 21740, Note_on_c, 2, 57, 0
4, 21777, Note_on_c, 2, 64, 67
4, 21875, Note_on_c, 2, 64, 0
4, 21890, Note_on_c, 2, 62, 66
4, 21987, Note_on_c, 2, 62, 0
4, 22003, Note_on_c, 2, 61, 65
4, 22100, Note_on_c, 2, 61, 0
4, 22116, Note_on_c, 2, 62, 68
4, 22657, Note_on_c, 2, 62, 0
4, 22694, Note_on_c, 2, 61, 65
4, 22792, Note_on_c, 2, 61, 0
4, 22807, Note_on_c, 2, 64, 69
4, 23027, Note_on_c, 2, 64, 0
4, 23033, Note_on_c, 2, 57, 64
4, 23679, Note_on_c, 2, 57, 0
4, 23717, Note_on_c, 2, 62, 67
4, 24243, Note_on_c, 2, 62, 0
4, 24281, Note_on_c, 2, 60, 64
4, 24378, Note_on_c, 2, 60, 0
4, 24394, Note_on_c, 2, 58, 65
4, 24965, Note_on_c, 2, 58, 0
4, 24965, Note_on_c, 2, 58, 63
4, 25062, Note_on_c, 2, 58, 0
4, 25078, Note_on_c, 2, 57, 62
4, 25175, Note_on_c, 2, 57, 0
4, 25191, Note_on_c, 2, 55, 60
4, 25288, Note_on_c, 2, 55, 0
4, 25304, Note_on_c, 2, 57, 64
4, 25612, Note_on_c, 2, 57, 0
4, 25649, Note_on_c, 2, 55, 60
4, 25747, Note_on_c, 2, 55, 0
4, 25762, Note_on_c, 2, 57, 63
4, 25990, Note_on_c, 2, 57, 0
4, 25995, Note_on_c, 2, 58, 64
4, 26215, Note_on_c, 2, 58, 0
4, 26220, Note_on_c, 2, 60, 67
4, 26784, Note_on_c, 2, 60, 0
4, 26799, Note_on_c, 2, 58, 63
4, 26897, Note_on_c, 2, 58, 0
4, 26912, Note_on_c, 2, 57, 62
4, 27010, Note_on_c, 2, 57, 0
4, 27025, Note_on_c, 2, 55, 60
4, 27122, Note_on_c, 2, 55, 0
4, 27138, Note_on_c, 2, 53, 60
4, 27358, Note_on_c, 2, 53, 0
4, 27363, Note_on_c, 2, 55, 62
4, 27583, Note_on_c, 2, 55, 0
4, 27589, Note_on_c, 2, 57, 64
4, 28130, Note_on_c, 2, 57, 0
4, 28168, Note_on_c, 2, 55, 60
4, 28265, Note_on_c, 2, 55, 0
4, 28281, Note_on_c, 2, 53, 59
4, 28378, Note_on_c, 2, 53, 0
4, 28393, Note_on_c, 2, 52, 58
4, 28490, Note_on_c, 2, 52, 0
4, 28506, Note_on_c, 2, 50, 58
4, 28726, Note_on_c, 2, 50, 0
4, 28732, Note_on_c, 2, 52, 60
4, 28952, Note_on_c, 2, 52, 0
4, 28957, Note_on_c, 2, 53, 60
4, 29185, Note_on_c, 2, 53, 0
4, 29190, Note_on_c, 2, 55, 62
4, 29529, Note_on_c, 2, 55, 0
4, 29529, Note_on_c, 2, 55, 60
4, 29626, Note_on_c, 2, 55, 0
4, 29641, Note_on_c, 2, 53, 61
4, 30063, Note_on_c, 2, 53, 0
4, 30100, Note_on_c, 2, 52, 60
4, 30320, Note_on_c, 2, 52, 0
4, 30326, Note_on_c, 2, 53, 59
4, 30423, Note_on_c, 2, 53, 0
4, 30439, Note_on_c, 2, 48, 56
4, 30536, Note_on_c, 2, 48, 0
4, 30552, Note_on_c, 2, 50, 57
4, 30648, Note_on_c, 2, 50, 0
4, 30664, Note_on_c, 2, 52, 58
4, 30768, Note_on_c, 2, 52, 0
4, 30784, Note_on_c, 2, 53, 60
4, 31004, Note_on_c, 2, 53, 0
4, 31574, Note_on_c, 2, 48, 56
4, 31671, Note_on_c, 2, 48, 0
4, 31687, Note_on_c, 2, 53, 61
4, 32003, Note_on_c, 2, 53, 0
4, 32040, Note_on_c, 2, 52, 58
4, 32137, Note_on_c, 2, 52, 0
4, 32153, Note_on_c, 2, 53, 59
4, 32250, Note_on_c, 2, 53, 0
4, 32266, Note_on_c, 2, 57, 62
4, 32363, Note_on_c, 2, 57, 0
4, 32378, Note_on_c, 2, 60, 67
4, 33160, Note_on_c, 2, 60, 0
4, 33175, Note_on_c, 2, 58, 63
4, 33273, Note_on_c, 2, 58, 0
4, 33288, Note_on_c, 2, 57, 62
4, 33385, Note_on_c, 2, 57, 0
4, 33401, Note_on_c, 2, 55, 60
4, 33498, Note_on_c, 2, 55, 0
4, 33514, Note_on_c, 2, 53, 61
4, 34062, Note_on_c, 2, 53, 0
4, 34078, Note_on_c, 2, 52, 58
4, 34175, Note_on_c, 2, 52, 0
4, 34190, Note_on_c, 2, 53, 59
4, 34288, Note_on_c, 2, 53, 0
4, 34303, Note_on_c, 2, 55, 60
4, 34401, Note_on_c, 2, 55, 0
4, 34416, Note_on_c, 2, 57, 63
4, 34644, Note_on_c, 2, 57, 0
4, 36679, Note_on_c, 2, 60, 67
4, 37093, Note_on_c, 2, 60, 0
4, 37130, Note_on_c, 2, 55, 63
4, 37431, Note_on_c, 2, 55, 0
4, 37469, Note_on_c, 2, 57, 62
4, 37566, Note_on_c, 2, 57, 0
4, 37582, Note_on_c, 2, 58, 65
4, 37883, Note_on_c, 2, 58, 0
4, 37920, Note_on_c, 2, 60, 64
4, 38017, Note_on_c, 2, 60, 0
4, 38033, Note_on_c, 2, 62, 68
4, 38484, Note_on_c, 2, 62, 0
4, 38484, Note_on_c, 2, 63, 69
4, 38905, Note_on_c, 2, 63, 0
4, 38943, Note_on_c, 2, 62, 68
4, 39244, Note_on_c, 2, 62, 0
4, 39281, Note_on_c, 2, 60, 64
4, 39378, Note_on_c, 2, 60, 0
4, 39394, Note_on_c, 2, 58, 65
4, 39935, Note_on_c, 2, 58, 0
4, 39972, Note_on_c, 2, 57, 62
4, 40070, Note_on_c, 2, 57, 0
4, 40085, Note_on_c, 2, 58, 63
4, 40183, Note_on_c, 2, 58, 0
4, 40198, Note_on_c, 2, 60, 64
4, 40296, Note_on_c, 2, 60, 0
4, 40311, Note_on_c, 2, 62, 68
4, 40837, Note_on_c, 2, 62, 0
4, 40875, Note_on_c, 2, 62, 66
4, 40972, Note_on_c, 2, 62, 0
4, 40988, Note_on_c, 2, 60, 64
4, 41085, Note_on_c, 2, 60, 0
4, 41100, Note_on_c, 2, 58, 63
4, 41205, Note_on_c, 2, 58, 0
4, 41221, Note_on_c, 2, 60, 67
4, 41755, Note_on_c, 2, 60, 0
4, 41792, Note_on_c, 2, 53, 59
4, 41890, Note_on_c, 2, 53, 0
4, 41905, Note_on_c, 2, 58, 64
4, 42358, Note_on_c, 2, 58, 0
4, 42363, Note_on_c, 2, 57, 63
4, 42584, Note_on_c, 2, 57, 0
4, 42589, Note_on_c, 2, 58, 64
4, 42809, Note_on_c, 2, 58, 0
4, 43514, Note_on_c, 2, 65, 71
4, 43935, Note_on_c, 2, 65, 0
4, 43972, Note_on_c, 2, 58, 65
4, 44273, Note_on_c, 2, 58, 0
4, 44311, Note_on_c, 2, 60, 64
4, 44415, Note_on_c, 2, 60, 0
4, 44431, Note_on_c, 2, 62, 68
4, 44739, Note_on_c, 2, 62, 0
4, 44777, Note_on_c, 2, 63, 67
4, 44874, Note_on_c, 2, 63, 0
4, 44890, Note_on_c, 2, 65, 71
4, 45341, Note_on_c, 2, 65, 0
4, 45341, Note_on_c, 2, 67, 73
4, 45762, Note_on_c, 2, 67, 0
4, 45799, Note_on_c, 2, 65, 71
4, 46107, Note_on_c, 2, 65, 0
4, 46145, Note_on_c, 2, 63, 67
4, 46242, Note_on_c, 2, 63, 0
4, 46258, Note_on_c, 2, 62, 68
4, 46813, Note_on_c, 2, 62, 0
4, 46829, Note_on_c, 2, 60, 64
4, 46926, Note_on_c, 2, 60, 0
4, 46942, Note_on_c, 2, 62, 66
4, 47039, Note_on_c, 2, 62, 0
4, 47055, Note_on_c, 2, 64, 67
4, 47152, Note_on_c, 2, 64, 0
4, 47168, Note_on_c, 2, 65, 71
4, 48056, Note_on_c, 2, 65, 0
4, 48094, Note_on_c, 2, 65, 70
4, 48339, Note_on_c, 2, 65, 0
4, 48345, Note_on_c, 2, 60, 66
4, 48675, Note_on_c, 2, 60, 0
4, 48690, Note_on_c, 2, 62, 66
4, 48788, Note_on_c, 2, 62, 0
4, 48803, Note_on_c, 2, 63, 69
4, 49112, Note_on_c, 2, 63, 0
4, 49149, Note_on_c, 2, 65, 68
4, 49246, Note_on_c, 2, 65, 0
4, 49262, Note_on_c, 2, 67, 72
4, 49482, Note_on_c, 2, 67, 0
4, 49487, Note_on_c, 2, 62, 68
4, 49796, Note_on_c, 2, 62, 0
4, 49833, Note_on_c, 2, 64, 67
4, 49931, Note_on_c, 2, 64, 0
4, 49946, Note_on_c, 2, 65, 71
4, 50247, Note_on_c, 2, 65, 0
4, 50284, Note_on_c, 2, 67, 70
4, 50389, Note_on_c, 2, 67, 0
4, 50404, Note_on_c, 2, 69, 73
4, 50602, Note_on_c, 2, 69, 0
4, 50638, Note_on_c, 2, 64, 67
4, 50735, Note_on_c, 2, 64, 0
4, 50750, Note_on_c, 2, 65, 68
4, 50855, Note_on_c, 2, 65, 0
4, 50870, Note_on_c, 2, 67, 72
4, 51098, Note_on_c, 2, 67, 0
4, 51103, Note_on_c, 2, 62, 67
4, 51449, Note_on_c, 2, 62, 0
4, 51449, Note_on_c, 2, 62, 66
4, 51546, Note_on_c, 2, 62, 0
4, 51562, Note_on_c, 2, 61, 65
4, 51659, Note_on_c, 2, 61, 0
4, 51675, Note_on_c, 2, 59, 63
4, 51779, Note_on_c, 2, 59, 0
4, 51795, Note_on_c, 2, 61, 67
4, 52223, Note_on_c, 2, 61, 0
4, 52261, Note_on_c, 2, 62, 66
4, 52358, Note_on_c, 2, 62, 0
4, 52374, Note_on_c, 2, 57, 62
4, 52471, Note_on_c, 2, 57, 0
4, 52487, Note_on_c, 2, 60, 67
4, 52787, Note_on_c, 2, 60, 0
4, 52825, Note_on_c, 2, 57, 62
4, 52922, Note_on_c, 2, 57, 0
4, 52938, Note_on_c, 2, 58, 63
4, 53035, Note_on_c, 2, 58, 0
4, 53051, Note_on_c, 2, 67, 70
4, 53147, Note_on_c, 2, 67, 0
4, 53163, Note_on_c, 2, 64, 69
4, 53383, Note_on_c, 2, 64, 0
4, 53389, Note_on_c, 2, 57, 64
4, 53690, Note_on_c, 2, 57, 0
4, 53727, Note_on_c, 2, 57, 62
4, 53824, Note_on_c, 2, 57, 0
4, 53840, Note_on_c, 2, 59, 63
4, 53937, Note_on_c, 2, 59, 0
4, 53953, Note_on_c, 2, 61, 65
4, 54050, Note_on_c, 2, 61, 0
4, 54066, Note_on_c, 2, 62, 67
4, 54293, Note_on_c, 2, 62, 0
4, 54757, Note_on_c, 2, 69, 73
4, 54977, Note_on_c, 2, 69, 0
4, 54983, Note_on_c, 2, 70, 74
4, 55180, Note_on_c, 2, 70, 0
4, 55216, Note_on_c, 2, 58, 64
4, 55406, Note_on_c, 2, 58, 0
4, 55441, Note_on_c, 2, 57, 62
4, 55539, Note_on_c, 2, 57, 0
4, 55554, Note_on_c, 2, 55, 60
4, 55652, Note_on_c, 2, 55, 0
4, 55667, Note_on_c, 2, 57, 62
4, 55764, Note_on_c, 2, 57, 0
4, 55780, Note_on_c, 2, 58, 63
4, 55884, Note_on_c, 2, 58, 0
4, 55900, Note_on_c, 2, 60, 67
4, 56441, Note_on_c, 2, 60, 0
4, 56479, Note_on_c, 2, 60, 64
4, 56576, Note_on_c, 2, 60, 0
4, 56591, Note_on_c, 2, 58, 63
4, 56689, Note_on_c, 2, 58, 0
4, 56704, Note_on_c, 2, 57, 62
4, 56802, Note_on_c, 2, 57, 0
4, 56817, Note_on_c, 2, 55, 63
4, 57854, Note_on_c, 2, 55, 0
4, 57854, Note_on_c, 2, 55, 60
4, 57952, Note_on_c, 2, 55, 0
4, 57967, Note_on_c, 2, 53, 59
4, 58065, Note_on_c, 2, 53, 0
4, 58080, Note_on_c, 2, 52, 58
4, 58177, Note_on_c, 2, 52, 0
4, 58193, Note_on_c, 2, 53, 61
4, 58652, Note_on_c, 2, 53, 0
4, 58652, Note_on_c, 2, 52, 60
4, 58897, Note_on_c, 2, 52, 0
4, 59624, Note_on_c, 2, 62, 67
4, 59844, Note_on_c, 2, 62, 0
4, 59849, Note_on_c, 2, 67, 73
4, 60165, Note_on_c, 2, 67, 0
4, 60203, Note_on_c, 2, 65, 68
4, 60299, Note_on_c, 2, 65, 0
4, 60315, Note_on_c, 2, 64, 69
4, 60646, Note_on_c, 2, 64, 0
4, 60661, Note_on_c, 2, 62, 66
4, 60758, Note_on_c, 2, 62, 0
4, 60774, Note_on_c, 2, 60, 66
4, 60994, Note_on_c, 2, 60, 0
4, 60999, Note_on_c, 2, 65, 71
4, 61315, Note_on_c, 2, 65, 0
4, 61353, Note_on_c, 2, 64, 67
4, 61450, Note_on_c, 2, 64, 0
4, 61465, Note_on_c, 2, 62, 68
4, 62112, Note_on_c, 2, 62, 0
4, 62149, Note_on_c, 2, 64, 69
4, 62487, Note_on_c, 2, 64, 0
4, 62503, Note_on_c, 2, 62, 66
4, 62600, Note_on_c, 2, 62, 0
4, 62615, Note_on_c, 2, 64, 67
4, 62713, Note_on_c, 2, 64, 0
4, 62728, Note_on_c, 2, 66, 69
4, 62826, Note_on_c, 2, 66, 0
4, 62841, Note_on_c, 2, 67, 73
4, 63292, Note_on_c, 2, 67, 0
4, 63292, Note_on_c, 2, 69, 74
4, 63713, Note_on_c, 2, 69, 0
4, 63751, Note_on_c, 2, 62, 68
4, 64052, Note_on_c, 2, 62, 0
4, 64089, Note_on_c, 2, 64, 67
4, 64187, Note_on_c, 2, 64, 0
4, 64202, Note_on_c, 2, 65, 71
4, 64511, Note_on_c, 2, 65, 0
4, 64548, Note_on_c, 2, 67, 70
4, 64653, Note_on_c, 2, 67, 0
4, 64668, Note_on_c, 2, 69, 74
4, 65119, Note_on_c, 2, 69, 0
4, 65119, Note_on_c, 2, 70, 75
4, 65533, Note_on_c, 2, 70, 0
4, 65570, Note_on_c, 2, 69, 74
4, 65879, Note_on_c, 2, 69, 0
4, 65916, Note_on_c, 2, 67, 70
4, 66013, Note_on_c, 2, 67, 0
4, 66029, Note_on_c, 2, 65, 71
4, 66555, Note_on_c, 2, 65, 0
4, 66593, Note_on_c, 2, 64, 67
4, 66690, Note_on_c, 2, 64, 0
4, 66706, Note_on_c, 2, 66, 69
4, 66803, Note_on_c, 2, 66, 0
4, 66818, Note_on_c, 2, 67, 70
4, 66923, Note_on_c, 2, 67, 0
4, 66939, Note_on_c, 2, 69, 72
4, 67036, Note_on_c, 2, 69, 0
4, 67052, Note_on_c, 2, 67, 70
4, 67149, Note_on_c, 2, 67, 0
4, 67164, Note_on_c, 2, 66, 69
4, 67261, Note_on_c, 2, 66, 0
4, 67277, Note_on_c, 2, 69, 72
4, 67374, Note_on_c, 2, 69, 0
4, 67390, Note_on_c, 2, 62, 67
4, 67618, Note_on_c, 2, 62, 0
4, 67623, Note_on_c, 2, 67, 72
4, 67946, Note_on_c, 2, 67, 0
4, 67961, Note_on_c, 2, 61, 65
4, 68059, Note_on_c, 2, 61, 0
4, 68074, Note_on_c, 2, 62, 66
4, 68172, Note_on_c, 2, 62, 0
4, 68187, Note_on_c, 2, 65, 68
4, 68284, Note_on_c, 2, 65, 0
4, 68300, Note_on_c, 2, 58, 65
4, 68856, Note_on_c, 2, 58, 0
4, 68871, Note_on_c, 2, 57, 62
4, 68968, Note_on_c, 2, 57, 0
4, 68984, Note_on_c, 2, 55, 60
4, 69081, Note_on_c, 2, 55, 0
4, 69097, Note_on_c, 2, 57, 62
4, 69194, Note_on_c, 2, 57, 0
4, 69210, Note_on_c, 2, 53, 61
4, 69668, Note_on_c, 2, 53, 0
4, 69668, Note_on_c, 2, 52, 60
4, 70082, Note_on_c, 2, 52, 0
4, 70119, Note_on_c, 2, 57, 64
4, 70420, Note_on_c, 2, 57, 0
4, 70458, Note_on_c, 2, 55, 60
4, 70555, Note_on_c, 2, 55, 0
4, 70571, Note_on_c, 2, 53, 61
4, 70879, Note_on_c, 2, 53, 0
4, 70916, Note_on_c, 2, 52, 58
4, 71014, Note_on_c, 2, 52, 0
4, 71029, Note_on_c, 2, 50, 59
4, 71488, Note_on_c, 2, 50, 0
4, 71488, Note_on_c, 2, 49, 58
4, 71902, Note_on_c, 2, 49, 0
4, 71939, Note_on_c, 2, 50, 59
4, 72247, Note_on_c, 2, 50, 0
4, 72285, Note_on_c, 2, 52, 58
4, 72389, Note_on_c, 2, 52, 0
4, 72405, Note_on_c, 2, 53, 61
4, 72931, Note_on_c, 2, 53, 0
4, 72969, Note_on_c, 2, 55, 60
4, 73066, Note_on_c, 2, 55, 0
4, 73081, Note_on_c, 2, 53, 59
4, 73179, Note_on_c, 2, 53, 0
4, 73194, Note_on_c, 2, 52, 58
4, 73292, Note_on_c, 2, 52, 0
4, 73307, Note_on_c, 2, 50, 57
4, 73404, Note_on_c, 2, 50, 0
4, 73420, Note_on_c, 2, 53, 59
4, 73517, Note_on_c, 2, 53, 0
4, 73533, Note_on_c, 2, 55, 60
4, 73630, Note_on_c, 2, 55, 0
4, 73645, Note_on_c, 2, 57, 62
4, 73743, Note_on_c, 2, 57, 0
4, 73758, Note_on_c, 2, 58, 65
4, 74314, Note_on_c, 2, 58, 0
4, 74330, Note_on_c, 2, 60, 64
4, 74427, Note_on_c, 2, 60, 0
4, 74443, Note_on_c, 2, 58, 63
4, 74540, Note_on_c, 2, 58, 0
4, 74556, Note_on_c, 2, 57, 62
4, 74653, Note_on_c, 2, 57, 0
4, 74668, Note_on_c, 2, 55, 60
4, 74765, Note_on_c, 2, 55, 0
4, 74781, Note_on_c, 2, 58, 63
4, 74878, Note_on_c, 2, 58, 0
4, 74894, Note_on_c, 2, 60, 64
4, 74991, Note_on_c, 2, 60, 0
4, 75007, Note_on_c, 2, 62, 66
4, 75104, Note_on_c, 2, 62, 0
4, 75120, Note_on_c, 2, 63, 69
4, 75541, Note_on_c, 2, 63, 0
4, 75578, Note_on_c, 2, 62, 67
4, 75805, Note_on_c, 2, 62, 0
4, 75811, Note_on_c, 2, 67, 72
4, 76234, Note_on_c, 2, 67, 0
4, 76270, Note_on_c, 2, 65, 68
4, 76367, Note_on_c, 2, 65, 0
4, 76382, Note_on_c, 2, 64, 67
4, 76479, Note_on_c, 2, 64, 0
4, 76495, Note_on_c, 2, 62, 66
4, 76592, Note_on_c, 2, 62, 0
4, 76608, Note_on_c, 2, 65, 68
4, 76713, Note_on_c, 2, 65, 0
4, 76728, Note_on_c, 2, 64, 67
4, 76826, Note_on_c, 2, 64, 0
4, 76841, Note_on_c, 2, 62, 66
4, 76938, Note_on_c, 2, 62, 0
4, 76954, Note_on_c, 2, 64, 69
4, 77174, Note_on_c, 2, 64, 0
4, 77179, Note_on_c, 2, 65, 70
4, 77377, Note_on_c, 2, 65, 0
4, 77413, Note_on_c, 2, 64, 67
4, 77510, Note_on_c, 2, 64, 0
4, 77525, Note_on_c, 2, 62, 66
4, 77622, Note_on_c, 2, 62, 0
4, 77638, Note_on_c, 2, 64, 69
4, 77858, Note_on_c, 2, 64, 0
4, 77864, Note_on_c, 2, 62, 68
4, 78415, Note_on_c, 2, 62, 0
4, 78453, Note_on_c, 2, 52, 58
4, 78550, Note_on_c, 2, 52, 0
4, 78566, Note_on_c, 2, 54, 60
4, 78663, Note_on_c, 2, 54, 0
4, 78678, Note_on_c, 2, 55, 60
4, 78776, Note_on_c, 2, 55, 0
4, 78791, Note_on_c, 2, 57, 62
4, 78889, Note_on_c, 2, 57, 0
4, 78904, Note_on_c, 2, 55, 60
4, 79001, Note_on_c, 2, 55, 0
4, 79017, Note_on_c, 2, 57, 62
4, 79114, Note_on_c, 2, 57, 0
4, 79130, Note_on_c, 2, 58, 63
4, 79227, Note_on_c, 2, 58, 0
4, 79242, Note_on_c, 2, 60, 64
4, 79340, Note_on_c, 2, 60, 0
4, 79355, Note_on_c, 2, 58, 63
4, 79453, Note_on_c, 2, 58, 0
4, 79468, Note_on_c, 2, 60, 64
4, 79573, Note_on_c, 2, 60, 0
4, 79588, Note_on_c, 2, 54, 60
4, 79685, Note_on_c, 2, 54, 0
4, 79701, Note_on_c, 2, 55, 60
4, 79798, Note_on_c, 2, 55, 0
4, 79814, Note_on_c, 2, 57, 62
4, 79911, Note_on_c, 2, 57, 0
4, 79927, Note_on_c, 2, 55, 60
4, 80024, Note_on_c, 2, 55, 0
4, 80040, Note_on_c, 2, 52, 58
4, 80137, Note_on_c, 2, 52, 0
4, 80152, Note_on_c, 2, 57, 62
4, 80249, Note_on_c, 2, 57, 0
4, 80265, Note_on_c, 2, 55, 60
4, 80362, Note_on_c, 2, 55, 0
4, 80378, Note_on_c, 2, 54, 60
4, 80475, Note_on_c, 2, 54, 0
4, 80491, Note_on_c, 2, 52, 58
4, 80588, Note_on_c, 2, 52, 0
4, 80604, Note_on_c, 2, 50, 59
4, 81137, Note_on_c, 2, 50, 0
4, 81175, Note_on_c, 2, 49, 56
4, 81272, Note_on_c, 2, 49, 0
4, 81288, Note_on_c, 2, 50, 57
4, 81399, Note_on_c, 2, 50, 0
4, 81413, Note_on_c, 2, 52, 58
4, 81536, Note_on_c, 2, 52, 0
4, 81538, Note_on_c, 2, 54, 62
4, 82473, Note_on_c, 2, 54, 0
4, 82473, End_track
5, 0, Start_track
5, 0, Title_t, " "
5, 0, Program_c, 3, 0
5, 0, Control_c, 3, 7, 125
5, 2858, Note_on_c, 3, 50, 59
5, 3318, Note_on_c, 3, 50, 0
5, 3355, Note_on_c, 3, 57, 64
5, 3663, Note_on_c, 3, 57, 0
5, 3701, Note_on_c, 3, 55, 60
5, 3805, Note_on_c, 3, 55, 0
5, 3821, Note_on_c, 3, 53, 61
5, 4129, Note_on_c, 3, 53, 0
5, 4167, Note_on_c, 3, 52, 58
5, 4264, Note_on_c, 3, 52, 0
5, 4280, Note_on_c, 3, 50, 59
5, 4746, Note_on_c, 3, 50, 0
5, 4746, Note_on_c, 3, 49, 58
5, 5185, Note_on_c, 3, 49, 0
5, 5222, Note_on_c, 3, 50, 59
5, 5523, Note_on_c, 3, 50, 0
5, 5561, Note_on_c, 3, 52, 58
5, 5665, Note_on_c, 3, 52, 0
5, 5681, Note_on_c, 3, 53, 61
5, 6207, Note_on_c, 3, 53, 0
5, 6245, Note_on_c, 3, 55, 60
5, 6342, Note_on_c, 3, 55, 0
5, 6358, Note_on_c, 3, 53, 59
5, 6455, Note_on_c, 3, 53, 0
5, 6470, Note_on_c, 3, 52, 58
5, 6568, Note_on_c, 3, 52, 0
5, 6583, Note_on_c, 3, 50, 57
5, 6681, Note_on_c, 3, 50, 0
5, 6696, Note_on_c, 3, 53, 59
5, 6793, Note_on_c, 3, 53, 0
5, 6809, Note_on_c, 3, 55, 60
5, 6906, Note_on_c, 3, 55, 0
5, 6922, Note_on_c, 3, 57, 62
5, 7019, Note_on_c, 3, 57, 0
5, 7034, Note_on_c, 3, 58, 65
5, 7448, Note_on_c, 3, 58, 0
5, 7486, Note_on_c, 3, 57, 64
5, 7794, Note_on_c, 3, 57, 0
5, 7831, Note_on_c, 3, 45, 54
5, 7929, Note_on_c, 3, 45, 0
5, 7944, Note_on_c, 3, 47, 57
5, 8253, Note_on_c, 3, 47, 0
5, 8290, Note_on_c, 3, 49, 56
5, 8387, Note_on_c, 3, 49, 0
5, 8403, Note_on_c, 3, 50, 59
5, 8711, Note_on_c, 3, 50, 0
5, 8748, Note_on_c, 3, 52, 58
5, 8846, Note_on_c, 3, 52, 0
5, 8861, Note_on_c, 3, 53, 60
5, 9081, Note_on_c, 3, 53, 0
5, 9087, Note_on_c, 3, 50, 58
5, 9307, Note_on_c, 3, 50, 0
5, 9312, Note_on_c, 3, 57, 64
5, 9854, Note_on_c, 3, 57, 0
5, 9891, Note_on_c, 3, 57, 62
5, 9988, Note_on_c, 3, 57, 0
5, 10004, Note_on_c, 3, 58, 63
5, 10101, Note_on_c, 3, 58, 0
5, 10117, Note_on_c, 3, 60, 64
5, 10214, Note_on_c, 3, 60, 0
5, 10230, Note_on_c, 3, 62, 68
5, 10688, Note_on_c, 3, 62, 0
5, 10688, Note_on_c, 3, 55, 63
5, 11267, Note_on_c, 3, 55, 0
5, 11267, Note_on_c, 3, 55, 60
5, 11364, Note_on_c, 3, 55, 0
5, 11380, Note_on_c, 3, 53, 59
5, 11477, Note_on_c, 3, 53, 0
5, 11493, Note_on_c, 3, 52, 58
5, 11590, Note_on_c, 3, 52, 0
5, 11605, Note_on_c, 3, 53, 61
5, 12177, Note_on_c, 3, 53, 0
5, 12177, Note_on_c, 3, 53, 59
5, 12274, Note_on_c, 3, 53, 0
5, 12289, Note_on_c, 3, 52, 58
5, 12387, Note_on_c, 3, 52, 0
5, 12402, Note_on_c, 3, 50, 57
5, 12500, Note_on_c, 3, 50, 0
5, 12515, Note_on_c, 3, 52, 60
5, 12966, Note_on_c, 3, 52, 0
5, 12966, Note_on_c, 3, 57, 64
5, 14448, Note_on_c, 3, 57, 0
5, 14448, Note_on_c, 3, 58, 63
5, 14544, Note_on_c, 3, 58, 0
5, 14560, Note_on_c, 3, 57, 62
5, 14657, Note_on_c, 3, 57, 0
5, 14673, Note_on_c, 3, 55, 60
5, 14778, Note_on_c, 3, 55, 0
5, 14793, Note_on_c, 3, 53, 61
5, 15447, Note_on_c, 3, 53, 0
5, 15485, Note_on_c, 3, 50, 58
5, 15675, Note_on_c, 3, 50, 0
5, 15710, Note_on_c, 3, 57, 63
5, 15930, Note_on_c, 3, 57, 0
5, 15936, Note_on_c, 3, 53, 60
5, 16164, Note_on_c, 3, 53, 0
5, 16169, Note_on_c, 3, 60, 67
5, 16740, Note_on_c, 3, 60, 0
5, 16740, Note_on_c, 3, 60, 64
5, 16837, Note_on_c, 3, 60, 0
5, 16853, Note_on_c, 3, 59, 63
5, 16950, Note_on_c, 3, 59, 0
5, 16966, Note_on_c, 3, 57, 62
5, 17071, Note_on_c, 3, 57, 0
5, 17086, Note_on_c, 3, 56, 63
5, 17537, Note_on_c, 3, 56, 0
5, 17537, Note_on_c, 3, 57, 64
5, 18064, Note_on_c, 3, 57, 0
5, 18101, Note_on_c, 3, 55, 60
5, 18206, Note_on_c, 3, 55, 0
5, 18221, Note_on_c, 3, 53, 60
5, 18442, Note_on_c, 3, 53, 0
5, 18447, Note_on_c, 3, 52, 60
5, 20251, Note_on_c, 3, 52, 0
5, 20289, Note_on_c, 3, 57, 64
5, 20740, Note_on_c, 3, 57, 0
5, 20740, Note_on_c, 3, 50, 59
5, 21048, Note_on_c, 3, 50, 0
5, 21086, Note_on_c, 3, 52, 58
5, 21183, Note_on_c, 3, 52, 0
5, 21199, Note_on_c, 3, 53, 61
5, 21507, Note_on_c, 3, 53, 0
5, 21544, Note_on_c, 3, 55, 60
5, 21641, Note_on_c, 3, 55, 0
5, 21657, Note_on_c, 3, 57, 64
5, 22116, Note_on_c, 3, 57, 0
5, 22116, Note_on_c, 3, 58, 65
5, 22537, Note_on_c, 3, 58, 0
5, 22574, Note_on_c, 3, 57, 64
5, 22883, Note_on_c, 3, 57, 0
5, 22920, Note_on_c, 3, 55, 60
5, 23017, Note_on_c, 3, 55, 0
5, 23033, Note_on_c, 3, 53, 61
5, 23567, Note_on_c, 3, 53, 0
5, 23604, Note_on_c, 3, 52, 58
5, 23701, Note_on_c, 3, 52, 0
5, 23717, Note_on_c, 3, 53, 59
5, 23814, Note_on_c, 3, 53, 0
5, 23830, Note_on_c, 3, 55, 60
5, 23927, Note_on_c, 3, 55, 0
5, 23942, Note_on_c, 3, 57, 64
5, 24469, Note_on_c, 3, 57, 0
5, 24506, Note_on_c, 3, 57, 62
5, 24604, Note_on_c, 3, 57, 0
5, 24619, Note_on_c, 3, 55, 60
5, 24717, Note_on_c, 3, 55, 0
5, 24732, Note_on_c, 3, 53, 59
5, 24829, Note_on_c, 3, 53, 0
5, 24845, Note_on_c, 3, 52, 60
5, 25304, Note_on_c, 3, 52, 0
5, 25304, Note_on_c, 3, 50, 59
5, 25882, Note_on_c, 3, 50, 0
5, 25882, Note_on_c, 3, 50, 57
5, 25980, Note_on_c, 3, 50, 0
5, 25995, Note_on_c, 3, 48, 56
5, 26092, Note_on_c, 3, 48, 0
5, 26108, Note_on_c, 3, 46, 54
5, 26205, Note_on_c, 3, 46, 0
5, 26220, Note_on_c, 3, 45, 56
5, 26679, Note_on_c, 3, 45, 0
5, 26679, Note_on_c, 3, 46, 56
5, 27213, Note_on_c, 3, 46, 0
5, 27251, Note_on_c, 3, 46, 54
5, 27348, Note_on_c, 3, 46, 0
5, 27363, Note_on_c, 3, 45, 54
5, 27461, Note_on_c, 3, 45, 0
5, 27476, Note_on_c, 3, 43, 53
5, 27574, Note_on_c, 3, 43, 0
5, 27589, Note_on_c, 3, 42, 54
5, 28047, Note_on_c, 3, 42, 0
5, 28047, Note_on_c, 3, 43, 54
5, 28619, Note_on_c, 3, 43, 0
5, 28619, Note_on_c, 3, 43, 53
5, 28716, Note_on_c, 3, 43, 0
5, 28732, Note_on_c, 3, 41, 51
5, 28829, Note_on_c, 3, 41, 0
5, 28845, Note_on_c, 3, 40, 51
5, 28942, Note_on_c, 3, 40, 0
5, 28957, Note_on_c, 3, 38, 51
5, 29185, Note_on_c, 3, 38, 0
5, 29190, Note_on_c, 3, 40, 52
5, 29411, Note_on_c, 3, 40, 0
5, 29416, Note_on_c, 3, 41, 53
5, 29837, Note_on_c, 3, 41, 0
5, 29875, Note_on_c, 3, 48, 58
5, 30176, Note_on_c, 3, 48, 0
5, 30213, Note_on_c, 3, 46, 54
5, 30310, Note_on_c, 3, 46, 0
5, 30326, Note_on_c, 3, 45, 56
5, 30627, Note_on_c, 3, 45, 0
5, 30664, Note_on_c, 3, 43, 53
5, 30768, Note_on_c, 3, 43, 0
5, 30784, Note_on_c, 3, 41, 53
5, 31236, Note_on_c, 3, 41, 0
5, 31236, Note_on_c, 3, 40, 53
5, 31649, Note_on_c, 3, 40, 0
5, 31687, Note_on_c, 3, 41, 53
5, 32003, Note_on_c, 3, 41, 0
5, 32040, Note_on_c, 3, 43, 53
5, 32137, Note_on_c, 3, 43, 0
5, 32153, Note_on_c, 3, 45, 56
5, 32679, Note_on_c, 3, 45, 0
5, 32717, Note_on_c, 3, 46, 54
5, 32814, Note_on_c, 3, 46, 0
5, 32830, Note_on_c, 3, 45, 54
5, 32927, Note_on_c, 3, 45, 0
5, 32942, Note_on_c, 3, 43, 53
5, 33039, Note_on_c, 3, 43, 0
5, 33055, Note_on_c, 3, 41, 53
5, 33589, Note_on_c, 3, 41, 0
5, 33626, Note_on_c, 3, 45, 54
5, 33724, Note_on_c, 3, 45, 0
5, 33739, Note_on_c, 3, 46, 54
5, 33837, Note_on_c, 3, 46, 0
5, 33852, Note_on_c, 3, 48, 56
5, 33949, Note_on_c, 3, 48, 0
5, 33965, Note_on_c, 3, 50, 59
5, 34499, Note_on_c, 3, 50, 0
5, 34536, Note_on_c, 3, 52, 58
5, 34633, Note_on_c, 3, 52, 0
5, 34649, Note_on_c, 3, 50, 57
5, 34746, Note_on_c, 3, 50, 0
5, 34762, Note_on_c, 3, 48, 56
5, 34859, Note_on_c, 3, 48, 0
5, 34874, Note_on_c, 3, 47, 55
5, 34972, Note_on_c, 3, 47, 0
5, 34987, Note_on_c, 3, 50, 57
5, 35085, Note_on_c, 3, 50, 0
5, 35100, Note_on_c, 3, 48, 56
5, 35197, Note_on_c, 3, 48, 0
5, 35213, Note_on_c, 3, 47, 55
5, 35310, Note_on_c, 3, 47, 0
5, 35326, Note_on_c, 3, 45, 54
5, 35423, Note_on_c, 3, 45, 0
5, 35438, Note_on_c, 3, 43, 53
5, 35536, Note_on_c, 3, 43, 0
5, 35551, Note_on_c, 3, 45, 54
5, 35649, Note_on_c, 3, 45, 0
5, 35664, Note_on_c, 3, 47, 55
5, 35761, Note_on_c, 3, 47, 0
5, 35777, Note_on_c, 3, 48, 56
5, 35874, Note_on_c, 3, 48, 0
5, 35890, Note_on_c, 3, 50, 57
5, 35987, Note_on_c, 3, 50, 0
5, 36002, Note_on_c, 3, 52, 58
5, 36100, Note_on_c, 3, 52, 0
5, 36115, Note_on_c, 3, 53, 59
5, 36213, Note_on_c, 3, 53, 0
5, 36228, Note_on_c, 3, 55, 60
5, 36325, Note_on_c, 3, 55, 0
5, 36341, Note_on_c, 3, 57, 62
5, 36438, Note_on_c, 3, 57, 0
5, 36454, Note_on_c, 3, 55, 60
5, 36551, Note_on_c, 3, 55, 0
5, 36566, Note_on_c, 3, 53, 59
5, 36664, Note_on_c, 3, 53, 0
5, 36679, Note_on_c, 3, 52, 58
5, 36777, Note_on_c, 3, 52, 0
5, 36792, Note_on_c, 3, 48, 56
5, 36889, Note_on_c, 3, 48, 0
5, 36905, Note_on_c, 3, 53, 61
5, 37319, Note_on_c, 3, 53, 0
5, 37356, Note_on_c, 3, 51, 60
5, 37576, Note_on_c, 3, 51, 0
5, 37582, Note_on_c, 3, 50, 59
5, 38589, Note_on_c, 3, 50, 0
5, 38604, Note_on_c, 3, 43, 53
5, 38701, Note_on_c, 3, 43, 0
5, 38717, Note_on_c, 3, 48, 58
5, 39018, Note_on_c, 3, 48, 0
5, 39056, Note_on_c, 3, 48, 56
5, 39153, Note_on_c, 3, 48, 0
5, 39168, Note_on_c, 3, 46, 54
5, 39265, Note_on_c, 3, 46, 0
5, 39281, Note_on_c, 3, 45, 54
5, 39378, Note_on_c, 3, 45, 0
5, 39394, Note_on_c, 3, 43, 53
5, 39499, Note_on_c, 3, 43, 0
5, 39514, Note_on_c, 3, 50, 57
5, 39611, Note_on_c, 3, 50, 0
5, 39627, Note_on_c, 3, 52, 58
5, 39724, Note_on_c, 3, 52, 0
5, 39740, Note_on_c, 3, 54, 60
5, 39837, Note_on_c, 3, 54, 0
5, 39852, Note_on_c, 3, 55, 63
5, 40531, Note_on_c, 3, 55, 0
5, 40536, Note_on_c, 3, 53, 60
5, 40757, Note_on_c, 3, 53, 0
5, 40762, Note_on_c, 3, 51, 60
5, 41341, Note_on_c, 3, 51, 0
5, 41341, Note_on_c, 3, 51, 58
5, 41438, Note_on_c, 3, 51, 0
5, 41454, Note_on_c, 3, 50, 57
5, 41551, Note_on_c, 3, 50, 0
5, 41567, Note_on_c, 3, 48, 56
5, 41664, Note_on_c, 3, 48, 0
5, 41679, Note_on_c, 3, 50, 59
5, 41980, Note_on_c, 3, 50, 0
5, 42018, Note_on_c, 3, 51, 58
5, 42122, Note_on_c, 3, 51, 0
5, 42138, Note_on_c, 3, 53, 61
5, 42551, Note_on_c, 3, 53, 0
5, 42589, Note_on_c, 3, 46, 56
5, 42898, Note_on_c, 3, 46, 0
5, 42935, Note_on_c, 3, 48, 56
5, 43032, Note_on_c, 3, 48, 0
5, 43048, Note_on_c, 3, 50, 59
5, 43356, Note_on_c, 3, 50, 0
5, 43393, Note_on_c, 3, 51, 58
5, 43498, Note_on_c, 3, 51, 0
5, 43514, Note_on_c, 3, 53, 61
5, 43972, Note_on_c, 3, 53, 0
5, 43972, Note_on_c, 3, 55, 63
5, 44393, Note_on_c, 3, 55, 0
5, 44431, Note_on_c, 3, 53, 61
5, 44739, Note_on_c, 3, 53, 0
5, 44777, Note_on_c, 3, 51, 58
5, 44874, Note_on_c, 3, 51, 0
5, 44890, Note_on_c, 3, 50, 59
5, 45423, Note_on_c, 3, 50, 0
5, 45461, Note_on_c, 3, 48, 56
5, 45558, Note_on_c, 3, 48, 0
5, 45574, Note_on_c, 3, 50, 57
5, 45671, Note_on_c, 3, 50, 0
5, 45686, Note_on_c, 3, 51, 58
5, 45784, Note_on_c, 3, 51, 0
5, 45799, Note_on_c, 3, 53, 61
5, 47619, Note_on_c, 3, 53, 0
5, 47619, Note_on_c, 3, 53, 61
5, 48540, Note_on_c, 3, 53, 0
5, 48577, Note_on_c, 3, 60, 66
5, 48798, Note_on_c, 3, 60, 0
5, 48803, Note_on_c, 3, 55, 63
5, 49112, Note_on_c, 3, 55, 0
5, 49149, Note_on_c, 3, 57, 62
5, 49246, Note_on_c, 3, 57, 0
5, 49262, Note_on_c, 3, 58, 64
5, 49592, Note_on_c, 3, 58, 0
5, 49607, Note_on_c, 3, 60, 64
5, 49705, Note_on_c, 3, 60, 0
5, 49720, Note_on_c, 3, 62, 67
5, 49940, Note_on_c, 3, 62, 0
5, 49946, Note_on_c, 3, 57, 64
5, 50247, Note_on_c, 3, 57, 0
5, 50284, Note_on_c, 3, 58, 63
5, 50389, Note_on_c, 3, 58, 0
5, 50404, Note_on_c, 3, 60, 66
5, 50602, Note_on_c, 3, 60, 0
5, 50638, Note_on_c, 3, 55, 60
5, 50735, Note_on_c, 3, 55, 0
5, 50750, Note_on_c, 3, 57, 62
5, 50855, Note_on_c, 3, 57, 0
5, 50870, Note_on_c, 3, 58, 64
5, 51068, Note_on_c, 3, 58, 0
5, 51103, Note_on_c, 3, 53, 59
5, 51201, Note_on_c, 3, 53, 0
5, 51216, Note_on_c, 3, 55, 60
5, 51313, Note_on_c, 3, 55, 0
5, 51329, Note_on_c, 3, 57, 64
5, 51878, Note_on_c, 3, 57, 0
5, 51915, Note_on_c, 3, 55, 60
5, 52012, Note_on_c, 3, 55, 0
5, 52028, Note_on_c, 3, 53, 59
5, 52125, Note_on_c, 3, 53, 0
5, 52141, Note_on_c, 3, 52, 58
5, 52245, Note_on_c, 3, 52, 0
5, 52261, Note_on_c, 3, 50, 59
5, 52900, Note_on_c, 3, 50, 0
5, 52938, Note_on_c, 3, 55, 62
5, 53260, Note_on_c, 3, 55, 0
5, 53276, Note_on_c, 3, 52, 58
5, 53373, Note_on_c, 3, 52, 0
5, 53389, Note_on_c, 3, 53, 61
5, 54170, Note_on_c, 3, 53, 0
5, 54186, Note_on_c, 3, 52, 58
5, 54283, Note_on_c, 3, 52, 0
5, 54298, Note_on_c, 3, 53, 59
5, 54396, Note_on_c, 3, 53, 0
5, 54411, Note_on_c, 3, 55, 60
5, 54509, Note_on_c, 3, 55, 0
5, 54524, Note_on_c, 3, 57, 64
5, 55088, Note_on_c, 3, 57, 0
5, 55103, Note_on_c, 3, 54, 60
5, 55200, Note_on_c, 3, 54, 0
5, 55216, Note_on_c, 3, 55, 62
5, 55436, Note_on_c, 3, 55, 0
5, 55441, Note_on_c, 3, 50, 59
5, 55900, Note_on_c, 3, 50, 0
5, 55900, Note_on_c, 3, 45, 56
5, 56359, Note_on_c, 3, 45, 0
5, 56359, Note_on_c, 3, 46, 56
5, 56817, Note_on_c, 3, 46, 0
5, 56817, Note_on_c, 3, 47, 57
5, 57275, Note_on_c, 3, 47, 0
5, 57275, Note_on_c, 3, 48, 58
5, 57734, Note_on_c, 3, 48, 0
5, 57734, Note_on_c, 3, 49, 58
5, 58193, Note_on_c, 3, 49, 0
5, 58193, Note_on_c, 3, 50, 59
5, 58652, Note_on_c, 3, 50, 0
5, 58652, Note_on_c, 3, 45, 55
5, 58897, Note_on_c, 3, 45, 0
5, 59140, Note_on_c, 3, 57, 63
5, 59385, Note_on_c, 3, 57, 0
5, 59391, Note_on_c, 3, 62, 67
5, 59721, Note_on_c, 3, 62, 0
5, 59736, Note_on_c, 3, 60, 64
5, 59834, Note_on_c, 3, 60, 0
5, 59849, Note_on_c, 3, 58, 65
5, 60165, Note_on_c, 3, 58, 0
5, 60203, Note_on_c, 3, 57, 62
5, 60299, Note_on_c, 3, 57, 0
5, 60315, Note_on_c, 3, 55, 62
5, 60543, Note_on_c, 3, 55, 0
5, 60548, Note_on_c, 3, 60, 67
5, 60849, Note_on_c, 3, 60, 0
5, 60887, Note_on_c, 3, 58, 63
5, 60984, Note_on_c, 3, 58, 0
5, 60999, Note_on_c, 3, 57, 64
5, 61315, Note_on_c, 3, 57, 0
5, 61353, Note_on_c, 3, 55, 60
5, 61450, Note_on_c, 3, 55, 0
5, 61465, Note_on_c, 3, 53, 60
5, 61655, Note_on_c, 3, 53, 0
5, 61691, Note_on_c, 3, 58, 63
5, 61788, Note_on_c, 3, 58, 0
5, 61804, Note_on_c, 3, 57, 62
5, 61908, Note_on_c, 3, 57, 0
5, 61924, Note_on_c, 3, 55, 62
5, 62114, Note_on_c, 3, 55, 0
5, 62149, Note_on_c, 3, 60, 64
5, 62247, Note_on_c, 3, 60, 0
5, 62262, Note_on_c, 3, 58, 63
5, 62367, Note_on_c, 3, 58, 0
5, 62383, Note_on_c, 3, 57, 64
5, 62841, Note_on_c, 3, 57, 0
5, 62841, Note_on_c, 3, 55, 63
5, 63292, Note_on_c, 3, 55, 0
5, 63292, Note_on_c, 3, 50, 59
5, 63826, Note_on_c, 3, 50, 0
5, 63863, Note_on_c, 3, 67, 70
5, 63961, Note_on_c, 3, 67, 0
5, 63976, Note_on_c, 3, 65, 68
5, 64074, Note_on_c, 3, 65, 0
5, 64089, Note_on_c, 3, 64, 67
5, 64187, Note_on_c, 3, 64, 0
5, 64202, Note_on_c, 3, 62, 68
5, 64856, Note_on_c, 3, 62, 0
5, 64894, Note_on_c, 3, 61, 67
5, 65114, Note_on_c, 3, 61, 0
5, 65119, Note_on_c, 3, 62, 66
5, 65217, Note_on_c, 3, 62, 0
5, 65232, Note_on_c, 3, 55, 60
5, 65329, Note_on_c, 3, 55, 0
5, 65345, Note_on_c, 3, 57, 62
5, 65442, Note_on_c, 3, 57, 0
5, 65458, Note_on_c, 3, 58, 63
5, 65555, Note_on_c, 3, 58, 0
5, 65570, Note_on_c, 3, 60, 64
5, 65675, Note_on_c, 3, 60, 0
5, 65690, Note_on_c, 3, 48, 56
5, 65788, Note_on_c, 3, 48, 0
5, 65803, Note_on_c, 3, 50, 57
5, 65901, Note_on_c, 3, 50, 0
5, 65916, Note_on_c, 3, 52, 58
5, 66013, Note_on_c, 3, 52, 0
5, 66029, Note_on_c, 3, 53, 59
5, 66126, Note_on_c, 3, 53, 0
5, 66142, Note_on_c, 3, 55, 60
5, 66239, Note_on_c, 3, 55, 0
5, 66254, Note_on_c, 3, 57, 62
5, 66352, Note_on_c, 3, 57, 0
5, 66367, Note_on_c, 3, 53, 59
5, 66465, Note_on_c, 3, 53, 0
5, 66480, Note_on_c, 3, 58, 64
5, 66671, Note_on_c, 3, 58, 0
5, 66706, Note_on_c, 3, 57, 62
5, 66803, Note_on_c, 3, 57, 0
5, 66818, Note_on_c, 3, 55, 60
5, 66923, Note_on_c, 3, 55, 0
5, 66939, Note_on_c, 3, 54, 61
5, 67159, Note_on_c, 3, 54, 0
5, 67164, Note_on_c, 3, 57, 63
5, 67355, Note_on_c, 3, 57, 0
5, 67390, Note_on_c, 3, 58, 63
5, 67495, Note_on_c, 3, 58, 0
5, 67510, Note_on_c, 3, 45, 54
5, 67607, Note_on_c, 3, 45, 0
5, 67623, Note_on_c, 3, 46, 54
5, 67720, Note_on_c, 3, 46, 0
5, 67736, Note_on_c, 3, 48, 56
5, 67833, Note_on_c, 3, 48, 0
5, 67848, Note_on_c, 3, 50, 57
5, 67946, Note_on_c, 3, 50, 0
5, 67961, Note_on_c, 3, 52, 58
5, 68059, Note_on_c, 3, 52, 0
5, 68074, Note_on_c, 3, 53, 59
5, 68171, Note_on_c, 3, 53, 0
5, 68187, Note_on_c, 3, 50, 57
5, 68284, Note_on_c, 3, 50, 0
5, 68300, Note_on_c, 3, 55, 60
5, 68397, Note_on_c, 3, 55, 0
5, 68412, Note_on_c, 3, 53, 59
5, 68510, Note_on_c, 3, 53, 0
5, 68525, Note_on_c, 3, 52, 58
5, 68623, Note_on_c, 3, 52, 0
5, 68638, Note_on_c, 3, 55, 60
5, 68743, Note_on_c, 3, 55, 0
5, 68759, Note_on_c, 3, 49, 56
5, 68855, Note_on_c, 3, 49, 0
5, 68871, Note_on_c, 3, 50, 57
5, 68968, Note_on_c, 3, 50, 0
5, 68984, Note_on_c, 3, 52, 58
5, 69081, Note_on_c, 3, 52, 0
5, 69097, Note_on_c, 3, 49, 56
5, 69194, Note_on_c, 3, 49, 0
5, 69210, Note_on_c, 3, 50, 57
5, 69307, Note_on_c, 3, 50, 0
5, 69323, Note_on_c, 3, 48, 56
5, 69420, Note_on_c, 3, 48, 0
5, 69435, Note_on_c, 3, 46, 54
5, 69532, Note_on_c, 3, 46, 0
5, 69548, Note_on_c, 3, 50, 57
5, 69652, Note_on_c, 3, 50, 0
5, 69668, Note_on_c, 3, 44, 53
5, 69765, Note_on_c, 3, 44, 0
5, 69781, Note_on_c, 3, 45, 54
5, 69878, Note_on_c, 3, 45, 0
5, 69894, Note_on_c, 3, 47, 55
5, 69991, Note_on_c, 3, 47, 0
5, 70007, Note_on_c, 3, 44, 53
5, 70104, Note_on_c, 3, 44, 0
5, 70119, Note_on_c, 3, 45, 54
5, 70216, Note_on_c, 3, 45, 0
5, 70232, Note_on_c, 3, 55, 60
5, 70329, Note_on_c, 3, 55, 0
5, 70345, Note_on_c, 3, 53, 59
5, 70442, Note_on_c, 3, 53, 0
5, 70458, Note_on_c, 3, 52, 58
5, 70555, Note_on_c, 3, 52, 0
5, 70571, Note_on_c, 3, 50, 59
5, 71104, Note_on_c, 3, 50, 0
5, 71142, Note_on_c, 3, 48, 56
5, 71239, Note_on_c, 3, 48, 0
5, 71255, Note_on_c, 3, 46, 56
5, 71482, Note_on_c, 3, 46, 0
5, 71488, Note_on_c, 3, 45, 54
5, 71585, Note_on_c, 3, 45, 0
5, 71601, Note_on_c, 3, 46, 54
5, 71698, Note_on_c, 3, 46, 0
5, 71713, Note_on_c, 3, 45, 54
5, 71810, Note_on_c, 3, 45, 0
5, 71826, Note_on_c, 3, 43, 53
5, 71923, Note_on_c, 3, 43, 0
5, 71939, Note_on_c, 3, 41, 53
5, 72166, Note_on_c, 3, 41, 0
5, 72172, Note_on_c, 3, 46, 56
5, 72399, Note_on_c, 3, 46, 0
5, 72405, Note_on_c, 3, 45, 56
5, 73044, Note_on_c, 3, 45, 0
5, 73081, Note_on_c, 3, 47, 55
5, 73179, Note_on_c, 3, 47, 0
5, 73194, Note_on_c, 3, 49, 56
5, 73292, Note_on_c, 3, 49, 0
5, 73307, Note_on_c, 3, 50, 59
5, 73841, Note_on_c, 3, 50, 0
5, 73879, Note_on_c, 3, 49, 56
5, 73976, Note_on_c, 3, 49, 0
5, 73992, Note_on_c, 3, 50, 57
5, 74089, Note_on_c, 3, 50, 0
5, 74104, Note_on_c, 3, 52, 58
5, 74201, Note_on_c, 3, 52, 0
5, 74217, Note_on_c, 3, 53, 60
5, 74437, Note_on_c, 3, 53, 0
5, 74443, Note_on_c, 3, 54, 61
5, 74663, Note_on_c, 3, 54, 0
5, 74668, Note_on_c, 3, 55, 63
5, 75224, Note_on_c, 3, 55, 0
5, 75240, Note_on_c, 3, 54, 60
5, 75337, Note_on_c, 3, 54, 0
5, 75352, Note_on_c, 3, 55, 60
5, 75450, Note_on_c, 3, 55, 0
5, 75465, Note_on_c, 3, 57, 62
5, 75563, Note_on_c, 3, 57, 0
5, 75578, Note_on_c, 3, 58, 65
5, 75894, Note_on_c, 3, 58, 0
5, 75931, Note_on_c, 3, 59, 63
5, 76028, Note_on_c, 3, 59, 0
5, 76044, Note_on_c, 3, 61, 65
5, 76141, Note_on_c, 3, 61, 0
5, 76157, Note_on_c, 3, 57, 62
5, 76254, Note_on_c, 3, 57, 0
5, 76270, Note_on_c, 3, 62, 66
5, 76367, Note_on_c, 3, 62, 0
5, 76382, Note_on_c, 3, 60, 64
5, 76479, Note_on_c, 3, 60, 0
5, 76495, Note_on_c, 3, 59, 63
5, 76592, Note_on_c, 3, 59, 0
5, 76608, Note_on_c, 3, 57, 62
5, 76713, Note_on_c, 3, 57, 0
5, 76728, Note_on_c, 3, 58, 65
5, 77052, Note_on_c, 3, 58, 0
5, 77066, Note_on_c, 3, 57, 64
5, 77258, Note_on_c, 3, 57, 0
5, 77292, Note_on_c, 3, 56, 63
5, 77397, Note_on_c, 3, 56, 0
5, 77413, Note_on_c, 3, 57, 63
5, 77632, Note_on_c, 3, 57, 0
5, 77638, Note_on_c, 3, 45, 55
5, 77858, Note_on_c, 3, 45, 0
5, 77864, Note_on_c, 3, 57, 64
5, 77864, Note_on_c, 3, 50, 64
5, 78302, Note_on_c, 3, 57, 0
5, 78302, Note_on_c, 3, 50, 0
5, 78340, Note_on_c, 3, 50, 59
5, 78641, Note_on_c, 3, 50, 0
5, 78678, Note_on_c, 3, 52, 58
5, 78776, Note_on_c, 3, 52, 0
5, 78791, Note_on_c, 3, 54, 62
5, 78791, Note_on_c, 3, 50, 62
5, 79092, Note_on_c, 3, 54, 0
5, 79092, Note_on_c, 3, 50, 0
5, 79130, Note_on_c, 3, 55, 60
5, 79227, Note_on_c, 3, 55, 0
5, 79242, Note_on_c, 3, 57, 64
5, 79701, Note_on_c, 3, 57, 0
5, 79701, Note_on_c, 3, 58, 65
5, 79701, Note_on_c, 3, 50, 65
5, 80115, Note_on_c, 3, 58, 0
5, 80115, Note_on_c, 3, 50, 0
5, 80152, Note_on_c, 3, 57, 64
5, 80491, Note_on_c, 3, 57, 0
5, 80491, Note_on_c, 3, 55, 60
5, 80588, Note_on_c, 3, 55, 0
5, 80604, Note_on_c, 3, 54, 60
5, 80701, Note_on_c, 3, 54, 0
5, 80716, Note_on_c, 3, 48, 56
5, 80813, Note_on_c, 3, 48, 0
5, 80829, Note_on_c, 3, 46, 54
5, 80926, Note_on_c, 3, 46, 0
5, 80942, Note_on_c, 3, 45, 54
5, 81039, Note_on_c, 3, 45, 0
5, 81055, Note_on_c, 3, 43, 53
5, 81159, Note_on_c, 3, 43, 0
5, 81175, Note_on_c, 3, 52, 58
5, 81272, Note_on_c, 3, 52, 0
5, 81288, Note_on_c, 3, 54, 60
5, 81399, Note_on_c, 3, 54, 0
5, 81413, Note_on_c, 3, 55, 60
5, 81536, Note_on_c, 3, 55, 0
5, 81538, Note_on_c, 3, 57, 64
5, 81538, Note_on_c, 3, 50, 64
5, 82473, Note_on_c, 3, 57, 0
5, 82473, Note_on_c, 3, 50, 0
5, 82473, End_track
6, 0, Start_track
6, 1, Copyright_t, "___________________________________________________\012\012KUNSTDERFUGE.COM LARGE CLASSICAL MIDI COLLECTION\012ONCLASSICAL BY ALESSANDRO SIMONETTO, PROPRIETOR\012___________________________________________________\012\012! Attention: this file is under copyright !\012\012(c)onclassical, (c)onclassical, 2010\012___________________________________________________\012\012NO ONE MAY REPUBLISH THIS FILE WITHOUT PERMISSION\012COMMERCIAL USES OF THIS FILE IS STRICTLY PROHIBITED\012___________________________________________________\012\012Files & contributor's list: http://kunstderfuge.com/\012Terms and conditions: http://kunstderfuge.com/notes.htm"
6, 1, End_track
0, 0, End_of_file