0, 0, Header, 1, 1, 480
1, 0, Start_track
1, 0, Sequence_number, 0
1, 0, Title_t, "Default Title"
1, 0, Channel_prefix, 0
1, 0, Instrument_name_t, "3"
1, 0, Program_c, 0, 0
1, 0, Tempo, 869565
1, 0, Time_signature, 4, 2, 24, 24
1, 0, Key_signature, 0, "major"
1, 120, Note_on_c, 0, 51, 90
1, 240, Note_off_c, 0, 51, 0
1, 240, Note_on_c, 0, 55, 90
1, 360, Note_off_c, 0, 55, 0
1, 360, Note_on_c, 0, 58, 90
1, 480, Note_off_c, 0, 58, 0
1, 480, Note_on_c, 0, 63, 90
1, 960, Note_off_c, 0, 63, 0
1, 960, Note_on_c, 0, 60, 90
1, 1440, Note_off_c, 0, 60, 0
1, 1560, Note_on_c, 0, 46, 90
1, 1680, Note_off_c, 0, 46, 0
1, 1680, Note_on_c, 0, 50, 90
1, 1800, Note_off_c, 0, 50, 0
1, 1800, Note_on_c, 0, 53, 90
1, 1920, Note_off_c, 0, 53, 0
1, 1920, Note_on_c, 0, 58, 90
1, 2400, Note_off_c, 0, 58, 0
1, 2400, Note_on_c, 0, 55, 90
1, 2880, Note_off_c, 0, 55, 0
1, 3000, Note_on_c, 0, 44, 90
1, 3120, Note_off_c, 0, 44, 0
1, 3120, Note_on_c, 0, 48, 90
1, 3240, Note_off_c, 0, 48, 0
1, 3240, Note_on_c, 0, 51, 90
1, 3360, Note_off_c, 0, 51, 0
1, 3360, Note_on_c, 0, 56, 90
1, 3840, Note_off_c, 0, 56, 0
1, 3840, Note_on_c, 0, 53, 90
1, 4320, Note_off_c, 0, 53, 0
1, 4440, Note_on_c, 0, 48, 90
1, 4560, Note_off_c, 0, 48, 0
1, 4560, Note_on_c, 0, 51, 90
1, 4680, Note_off_c, 0, 51, 0
1, 4680, Note_on_c, 0, 55, 90
1, 4800, Note_off_c, 0, 55, 0
1, 4800, Note_on_c, 0, 60, 90
1, 5280, Note_off_c, 0, 60, 0
1, 5280, Note_on_c, 0, 57, 90
1, 5760, Note_off_c, 0, 57, 0
1, 5880, Note_on_c, 0, 46, 90
1, 6000, Note_off_c, 0, 46, 0
1, 6000, Note_on_c, 0, 50, 90
1, 6120, Note_off_c, 0, 50, 0
1, 6120, Note_on_c, 0, 53, 90
1, 6240, Note_off_c, 0, 53, 0
1, 6240, Note_on_c, 0, 58, 90
1, 6720, Note_off_c, 0, 58, 0
1, 6720, Note_on_c, 0, 51, 90
1, 7200, Note_off_c, 0, 51, 0
1, 7320, Note_on_c, 0, 44, 90
1, 7440, Note_off_c, 0, 44, 0
1, 7440, Note_on_c, 0, 48, 90
1, 7560, Note_off_c, 0, 48, 0
1, 7560, Note_on_c, 0, 51, 90
1, 7680, Note_off_c, 0, 51, 0
1, 7680, Note_on_c, 0, 56, 90
1, 8160, Note_off_c, 0, 56, 0
1, 8160, Note_on_c, 0, 50, 90
1, 8640, Note_off_c, 0, 50, 0
1, 8760, Note_on_c, 0, 43, 90
1, 8880, Note_off_c, 0, 43, 0
1, 8880, Note_on_c, 0, 46, 90
1, 9000, Note_off_c, 0, 46, 0
1, 9000, Note_on_c, 0, 50, 90
1, 9120, Note_off_c, 0, 50, 0
1, 9120, Note_on_c, 0, 55, 90
1, 9600, Note_off_c, 0, 55, 0
1, 9600, Note_on_c, 0, 56, 90
1, 10080, Note_off_c, 0, 56, 0
1, 10200, Note_on_c, 0, 46, 90
1, 10320, Note_off_c, 0, 46, 0
1, 10320, Note_on_c, 0, 53, 90
1, 10440, Note_off_c, 0, 53, 0
1, 10440, Note_on_c, 0, 56, 90
1, 10560, Note_off_c, 0, 56, 0
1, 10560, Note_on_c, 0, 58, 90
1, 11040, Note_off_c, 0, 58, 0
1, 11040, Note_on_c, 0, 46, 90
1, 11520, Note_off_c, 0, 46, 0
1, 11640, Note_on_c, 0, 39, 90
1, 11760, Note_off_c, 0, 39, 0
1, 11760, Note_on_c, 0, 43, 90
1, 11880, Note_off_c, 0, 43, 0
1, 11880, Note_on_c, 0, 46, 90
1, 12000, Note_off_c, 0, 46, 0
1, 12000, Note_on_c, 0, 51, 90
1, 12480, Note_off_c, 0, 51, 0
1, 12480, Note_on_c, 0, 48, 90
1, 12960, Note_off_c, 0, 48, 0
1, 13080, Note_on_c, 0, 44, 90
1, 13200, Note_off_c, 0, 44, 0
1, 13200, Note_on_c, 0, 48, 90
1, 13320, Note_off_c, 0, 48, 0
1, 13320, Note_on_c, 0, 51, 90
1, 13440, Note_off_c, 0, 51, 0
1, 13440, Note_on_c, 0, 56, 90
1, 13920, Note_off_c, 0, 56, 0
1, 13920, Note_on_c, 0, 53, 90
1, 14400, Note_off_c, 0, 53, 0
1, 14520, Note_on_c, 0, 53, 90
1, 14640, Note_off_c, 0, 53, 0
1, 14640, Note_on_c, 0, 56, 90
1, 14760, Note_off_c, 0, 56, 0
1, 14760, Note_on_c, 0, 60, 90
1, 14880, Note_off_c, 0, 60, 0
1, 14880, Note_on_c, 0, 65, 90
1, 15360, Note_off_c, 0, 65, 0
1, 15480, Note_on_c, 0, 59, 90
1, 15600, Note_off_c, 0, 59, 0
1, 15600, Note_on_c, 0, 57, 90
1, 15720, Note_off_c, 0, 57, 0
1, 15720, Note_on_c, 0, 55, 90
1, 15840, Note_off_c, 0, 55, 0
1, 15840, Note_on_c, 0, 60, 90
1, 15960, Note_off_c, 0, 60, 0
1, 15960, Note_on_c, 0, 55, 90
1, 16080, Note_off_c, 0, 55, 0
1, 16080, Note_on_c, 0, 56, 90
1, 16200, Note_off_c, 0, 56, 0
1, 16200, Note_on_c, 0, 53, 90
1, 16320, Note_off_c, 0, 53, 0
1, 16320, Note_on_c, 0, 55, 90
1, 16800, Note_off_c, 0, 55, 0
1, 16800, Note_on_c, 0, 43, 90
1, 17280, Note_off_c, 0, 43, 0
1, 17520, Note_on_c, 0, 39, 90
1, 17640, Note_off_c, 0, 39, 0
1, 17640, Note_on_c, 0, 43, 90
1, 17760, Note_off_c, 0, 43, 0
1, 17760, Note_on_c, 0, 48, 90
1, 18240, Note_off_c, 0, 48, 0
1, 18240, Note_on_c, 0, 39, 90
1, 18720, Note_off_c, 0, 39, 0
1, 18840, Note_on_c, 0, 41, 90
1, 18960, Note_off_c, 0, 41, 0
1, 18960, Note_on_c, 0, 45, 90
1, 19080, Note_off_c, 0, 45, 0
1, 19080, Note_on_c, 0, 48, 90
1, 19200, Note_off_c, 0, 48, 0
1, 19200, Note_on_c, 0, 53, 90
1, 19680, Note_off_c, 0, 53, 0
1, 19680, Note_on_c, 0, 45, 90
1, 20160, Note_off_c, 0, 45, 0
1, 20280, Note_on_c, 0, 46, 90
1, 20400, Note_off_c, 0, 46, 0
1, 20400, Note_on_c, 0, 50, 90
1, 20520, Note_off_c, 0, 50, 0
1, 20520, Note_on_c, 0, 53, 90
1, 20640, Note_off_c, 0, 53, 0
1, 20640, Note_on_c, 0, 58, 90
1, 21120, Note_off_c, 0, 58, 0
1, 21120, Note_on_c, 0, 55, 90
1, 21600, Note_off_c, 0, 55, 0
1, 21720, Note_on_c, 0, 55, 90
1, 21840, Note_off_c, 0, 55, 0
1, 21840, Note_on_c, 0, 57, 90
1, 21960, Note_off_c, 0, 57, 0
1, 21960, Note_on_c, 0, 58, 90
1, 22080, Note_off_c, 0, 58, 0
1, 22080, Note_on_c, 0, 53, 90
1, 22560, Note_off_c, 0, 53, 0
1, 22560, Note_on_c, 0, 41, 90
1, 23040, Note_off_c, 0, 41, 0
1, 23160, Note_on_c, 0, 46, 90
1, 23280, Note_off_c, 0, 46, 0
1, 23280, Note_on_c, 0, 50, 90
1, 23400, Note_off_c, 0, 50, 0
1, 23400, Note_on_c, 0, 53, 90
1, 23520, Note_off_c, 0, 53, 0
1, 23520, Note_on_c, 0, 58, 90
1, 24000, Note_off_c, 0, 58, 0
1, 24000, Note_on_c, 0, 50, 90
1, 24480, Note_off_c, 0, 50, 0
1, 24600, Note_on_c, 0, 51, 90
1, 24720, Note_off_c, 0, 51, 0
1, 24720, Note_on_c, 0, 55, 90
1, 24840, Note_off_c, 0, 55, 0
1, 24840, Note_on_c, 0, 58, 90
1, 24960, Note_off_c, 0, 58, 0
1, 24960, Note_on_c, 0, 63, 90
1, 25440, Note_off_c, 0, 63, 0
1, 25440, Note_on_c, 0, 55, 90
1, 25920, Note_off_c, 0, 55, 0
1, 26040, Note_on_c, 0, 44, 90
1, 26160, Note_off_c, 0, 44, 0
1, 26160, Note_on_c, 0, 48, 90
1, 26280, Note_off_c, 0, 48, 0
1, 26280, Note_on_c, 0, 51, 90
1, 26400, Note_off_c, 0, 51, 0
1, 26400, Note_on_c, 0, 56, 90
1, 26880, Note_off_c, 0, 56, 0
1, 26880, Note_on_c, 0, 52, 90
1, 27360, Note_off_c, 0, 52, 0
1, 27480, Note_on_c, 0, 41, 90
1, 27600, Note_off_c, 0, 41, 0
1, 27600, Note_on_c, 0, 44, 90
1, 27720, Note_off_c, 0, 44, 0
1, 27720, Note_on_c, 0, 48, 90
1, 27840, Note_off_c, 0, 48, 0
1, 27840, Note_on_c, 0, 53, 90
1, 28320, Note_off_c, 0, 53, 0
1, 28320, Note_on_c, 0, 49, 90
1, 28800, Note_off_c, 0, 49, 0
1, 28920, Note_on_c, 0, 48, 90
1, 29040, Note_off_c, 0, 48, 0
1, 29040, Note_on_c, 0, 52, 90
1, 29160, Note_off_c, 0, 52, 0
1, 29160, Note_on_c, 0, 55, 90
1, 29280, Note_off_c, 0, 55, 0
1, 29280, Note_on_c, 0, 60, 90
1, 29760, Note_off_c, 0, 60, 0
1, 29760, Note_on_c, 0, 56, 90
1, 30240, Note_off_c, 0, 56, 0
1, 30360, Note_on_c, 0, 46, 90
1, 30480, Note_off_c, 0, 46, 0
1, 30480, Note_on_c, 0, 49, 90
1, 30600, Note_off_c, 0, 49, 0
1, 30600, Note_on_c, 0, 53, 90
1, 30720, Note_off_c, 0, 53, 0
1, 30720, Note_on_c, 0, 58, 90
1, 31200, Note_off_c, 0, 58, 0
1, 31200, Note_on_c, 0, 55, 90
1, 31680, Note_off_c, 0, 55, 0
1, 31920, Note_on_c, 0, 40, 90
1, 32040, Note_off_c, 0, 40, 0
1, 32040, Note_on_c, 0, 43, 90
1, 32160, Note_off_c, 0, 43, 0
1, 32160, Note_on_c, 0, 48, 90
1, 32640, Note_off_c, 0, 48, 0
1, 32640, Note_on_c, 0, 49, 90
1, 33120, Note_off_c, 0, 49, 0
1, 33240, Note_on_c, 0, 49, 90
1, 33360, Note_off_c, 0, 49, 0
1, 33360, Note_on_c, 0, 48, 90
1, 33480, Note_off_c, 0, 48, 0
1, 33480, Note_on_c, 0, 46, 90
1, 33600, Note_off_c, 0, 46, 0
1, 33600, Note_on_c, 0, 48, 90
1, 34080, Note_off_c, 0, 48, 0
1, 34680, Note_on_c, 0, 41, 90
1, 34800, Note_off_c, 0, 41, 0
1, 34800, Note_on_c, 0, 44, 90
1, 34920, Note_off_c, 0, 44, 0
1, 34920, Note_on_c, 0, 48, 90
1, 35040, Note_off_c, 0, 48, 0
1, 35040, Note_on_c, 0, 53, 90
1, 35520, Note_off_c, 0, 53, 0
1, 35520, Note_on_c, 0, 44, 90
1, 36000, Note_off_c, 0, 44, 0
1, 36120, Note_on_c, 0, 46, 90
1, 36240, Note_off_c, 0, 46, 0
1, 36240, Note_on_c, 0, 49, 90
1, 36360, Note_off_c, 0, 49, 0
1, 36360, Note_on_c, 0, 53, 90
1, 36480, Note_off_c, 0, 53, 0
1, 36480, Note_on_c, 0, 58, 90
1, 36960, Note_off_c, 0, 58, 0
1, 36960, Note_on_c, 0, 49, 90
1, 37440, Note_off_c, 0, 49, 0
1, 37560, Note_on_c, 0, 51, 90
1, 37680, Note_off_c, 0, 51, 0
1, 37680, Note_on_c, 0, 55, 90
1, 37800, Note_off_c, 0, 55, 0
1, 37800, Note_on_c, 0, 58, 90
1, 37920, Note_off_c, 0, 58, 0
1, 37920, Note_on_c, 0, 63, 90
1, 38400, Note_off_c, 0, 63, 0
1, 38520, Note_on_c, 0, 55, 90
1, 38640, Note_off_c, 0, 55, 0
1, 38640, Note_on_c, 0, 53, 90
1, 38760, Note_off_c, 0, 53, 0
1, 38760, Note_on_c, 0, 51, 90
1, 38880, Note_off_c, 0, 51, 0
1, 38880, Note_on_c, 0, 56, 90
1, 39000, Note_off_c, 0, 56, 0
1, 39000, Note_on_c, 0, 51, 90
1, 39120, Note_off_c, 0, 51, 0
1, 39120, Note_on_c, 0, 53, 90
1, 39240, Note_off_c, 0, 53, 0
1, 39240, Note_on_c, 0, 49, 90
1, 39360, Note_off_c, 0, 49, 0
1, 39360, Note_on_c, 0, 51, 90
1, 39840, Note_off_c, 0, 51, 0
1, 39840, Note_on_c, 0, 39, 90
1, 40320, Note_off_c, 0, 39, 0
1, 40440, Note_on_c, 0, 44, 90
1, 40560, Note_off_c, 0, 44, 0
1, 40560, Note_on_c, 0, 48, 90
1, 40680, Note_off_c, 0, 48, 0
1, 40680, Note_on_c, 0, 51, 90
1, 40800, Note_off_c, 0, 51, 0
1, 40800, Note_on_c, 0, 56, 90
1, 41280, Note_off_c, 0, 56, 0
1, 41280, Note_on_c, 0, 53, 90
1, 41760, Note_off_c, 0, 53, 0
1, 41880, Note_on_c, 0, 39, 90
1, 42000, Note_off_c, 0, 39, 0
1, 42000, Note_on_c, 0, 43, 90
1, 42120, Note_off_c, 0, 43, 0
1, 42120, Note_on_c, 0, 46, 90
1, 42240, Note_off_c, 0, 46, 0
1, 42240, Note_on_c, 0, 51, 90
1, 42720, Note_off_c, 0, 51, 0
1, 42720, Note_on_c, 0, 48, 90
1, 43200, Note_off_c, 0, 48, 0
1, 43320, Note_on_c, 0, 46, 90
1, 43440, Note_off_c, 0, 46, 0
1, 43440, Note_on_c, 0, 50, 90
1, 43560, Note_off_c, 0, 50, 0
1, 43560, Note_on_c, 0, 53, 90
1, 43680, Note_off_c, 0, 53, 0
1, 43680, Note_on_c, 0, 58, 90
1, 44160, Note_off_c, 0, 58, 0
1, 44160, Note_on_c, 0, 55, 90
1, 44640, Note_off_c, 0, 55, 0
1, 44760, Note_on_c, 0, 44, 90
1, 44880, Note_off_c, 0, 44, 0
1, 44880, Note_on_c, 0, 48, 90
1, 45000, Note_off_c, 0, 48, 0
1, 45000, Note_on_c, 0, 51, 90
1, 45120, Note_off_c, 0, 51, 0
1, 45120, Note_on_c, 0, 56, 90
1, 45600, Note_off_c, 0, 56, 0
1, 45600, Note_on_c, 0, 53, 90
1, 46080, Note_off_c, 0, 53, 0
1, 46200, Note_on_c, 0, 48, 90
1, 46320, Note_off_c, 0, 48, 0
1, 46320, Note_on_c, 0, 51, 90
1, 46440, Note_off_c, 0, 51, 0
1, 46440, Note_on_c, 0, 55, 90
1, 46560, Note_off_c, 0, 55, 0
1, 46560, Note_on_c, 0, 60, 90
1, 47040, Note_off_c, 0, 60, 0
1, 47040, Note_on_c, 0, 57, 90
1, 47520, Note_off_c, 0, 57, 0
1, 47640, Note_on_c, 0, 46, 90
1, 47760, Note_off_c, 0, 46, 0
1, 47760, Note_on_c, 0, 50, 90
1, 47880, Note_off_c, 0, 50, 0
1, 47880, Note_on_c, 0, 53, 90
1, 48000, Note_off_c, 0, 53, 0
1, 48000, Note_on_c, 0, 58, 90
1, 48480, Note_off_c, 0, 58, 0
1, 48480, Note_on_c, 0, 51, 90
1, 48960, Note_off_c, 0, 51, 0
1, 49080, Note_on_c, 0, 44, 90
1, 49200, Note_off_c, 0, 44, 0
1, 49200, Note_on_c, 0, 48, 90
1, 49320, Note_off_c, 0, 48, 0
1, 49320, Note_on_c, 0, 51, 90
1, 49440, Note_off_c, 0, 51, 0
1, 49440, Note_on_c, 0, 56, 90
1, 49920, Note_off_c, 0, 56, 0
1, 49920, Note_on_c, 0, 50, 90
1, 50400, Note_off_c, 0, 50, 0
1, 50520, Note_on_c, 0, 43, 90
1, 50640, Note_off_c, 0, 43, 0
1, 50640, Note_on_c, 0, 46, 90
1, 50760, Note_off_c, 0, 46, 0
1, 50760, Note_on_c, 0, 50, 90
1, 50880, Note_off_c, 0, 50, 0
1, 50880, Note_on_c, 0, 55, 90
1, 51360, Note_off_c, 0, 55, 0
1, 51360, Note_on_c, 0, 56, 90
1, 51840, Note_off_c, 0, 56, 0
1, 51960, Note_on_c, 0, 46, 90
1, 52080, Note_off_c, 0, 46, 0
1, 52080, Note_on_c, 0, 53, 90
1, 52200, Note_off_c, 0, 53, 0
1, 52200, Note_on_c, 0, 56, 90
1, 52320, Note_off_c, 0, 56, 0
1, 52320, Note_on_c, 0, 58, 90
1, 52800, Note_off_c, 0, 58, 0
1, 52800, Note_on_c, 0, 46, 90
1, 53280, Note_off_c, 0, 46, 0
1, 53280, Note_on_c, 0, 39, 90
1, 53760, Note_off_c, 0, 39, 0
1, 53760, End_track
0, 0, End_of_file