0, 0, Header, 1, 11, 384
1, 0, Start_track
1, 0, Time_signature, 3, 2, 96, 8
1, 0, Sequencer_specific, 03, 00, 00, 41
1, 0, Sequencer_specific, 05, 00, 00, 77, 0E, 00
1, 0, Tempo, 983606
1, 4, Tempo, 967741
1, 8, Tempo, 952380
1, 12, Tempo, 937500
1, 16, Tempo, 909090
1, 20, Tempo, 895522
1, 24, Tempo, 882352
1, 28, Tempo, 869565
1, 32, Tempo, 845070
1, 36, Tempo, 833333
1, 40, Tempo, 821917
1, 44, Tempo, 810810
1, 48, Tempo, 789473
1, 52, Tempo, 779220
1, 56, Tempo, 769230
1, 60, Tempo, 759493
1, 64, Tempo, 750000
1, 80, Tempo, 705882
1, 96, Tempo, 697674
1, 112, Tempo, 689655
1, 128, Tempo, 681818
1, 144, Tempo, 674157
1, 160, Tempo, 666666
1, 176, Tempo, 659340
1, 192, Tempo, 652173
1, 4288, Tempo, 652173
1, 4608, Tempo, 652173
1, 18240, Tempo, 1200000
1, 18244, Tempo, 1176470
1, 18252, Tempo, 1153846
1, 18256, Tempo, 1132075
1, 18264, Tempo, 1111111
1, 18272, Tempo, 1090909
1, 18276, Tempo, 1071428
1, 18284, Tempo, 1052631
1, 18288, Tempo, 1034482
1, 18296, Tempo, 1016949
1, 18304, Tempo, 1000000
1, 18308, Tempo, 983606
1, 18316, Tempo, 967741
1, 18320, Tempo, 952380
1, 18328, Tempo, 937500
1, 18336, Tempo, 923076
1, 18340, Tempo, 909090
1, 18348, Tempo, 895522
1, 18352, Tempo, 882352
1, 18360, Tempo, 869565
1, 18368, Tempo, 857142
1, 18372, Tempo, 845070
1, 18380, Tempo, 833333
1, 18384, Tempo, 821917
1, 18392, Tempo, 810810
1, 18400, Tempo, 800000
1, 18404, Tempo, 789473
1, 18412, Tempo, 779220
1, 18416, Tempo, 769230
1, 18424, Tempo, 759493
1, 18432, Tempo, 923076
1, 18436, Tempo, 909090
1, 18440, Tempo, 895522
1, 18444, Tempo, 882352
1, 18448, Tempo, 869565
1, 18452, Tempo, 857142
1, 18456, Tempo, 845070
1, 18460, Tempo, 833333
1, 18464, Tempo, 821917
1, 18468, Tempo, 810810
1, 18472, Tempo, 800000
1, 18476, Tempo, 789473
1, 18480, Tempo, 779220
1, 18484, Tempo, 769230
1, 18488, Tempo, 759493
1, 18496, Tempo, 750000
1, 18512, Tempo, 705882
1, 18528, Tempo, 697674
1, 18544, Tempo, 689655
1, 18560, Tempo, 681818
1, 18576, Tempo, 674157
1, 18592, Tempo, 666666
1, 18608, Tempo, 659340
1, 18624, Tempo, 652173
1, 36672, Tempo, 1500000
1, 36676, Tempo, 1463414
1, 36680, Tempo, 1428571
1, 36684, Tempo, 1395348
1, 36688, Tempo, 1363636
1, 36696, Tempo, 1333333
1, 36700, Tempo, 1304347
1, 36704, Tempo, 1276595
1, 36708, Tempo, 1250000
1, 36712, Tempo, 1224489
1, 36720, Tempo, 1200000
1, 36724, Tempo, 1176470
1, 36728, Tempo, 1153846
1, 36732, Tempo, 1132075
1, 36736, Tempo, 1111111
1, 36744, Tempo, 1090909
1, 36748, Tempo, 1071428
1, 36752, Tempo, 1052631
1, 36756, Tempo, 1034482
1, 36760, Tempo, 1016949
1, 36768, Tempo, 1000000
1, 36772, Tempo, 983606
1, 36776, Tempo, 967741
1, 36780, Tempo, 952380
1, 36784, Tempo, 937500
1, 36792, Tempo, 923076
1, 36796, Tempo, 909090
1, 36800, Tempo, 895522
1, 36804, Tempo, 882352
1, 36808, Tempo, 869565
1, 36816, Tempo, 857142
1, 36820, Tempo, 845070
1, 36824, Tempo, 833333
1, 36828, Tempo, 821917
1, 36832, Tempo, 810810
1, 36840, Tempo, 800000
1, 36844, Tempo, 789473
1, 36848, Tempo, 779220
1, 36852, Tempo, 769230
1, 36856, Tempo, 759493
1, 36864, Tempo, 983606
1, 36868, Tempo, 967741
1, 36872, Tempo, 952380
1, 36876, Tempo, 937500
1, 36880, Tempo, 909090
1, 36884, Tempo, 895522
1, 36888, Tempo, 882352
1, 36892, Tempo, 869565
1, 36896, Tempo, 845070
1, 36900, Tempo, 833333
1, 36904, Tempo, 821917
1, 36908, Tempo, 810810
1, 36912, Tempo, 789473
1, 36916, Tempo, 779220
1, 36920, Tempo, 769230
1, 36924, Tempo, 759493
1, 36928, Tempo, 750000
1, 36940, Tempo, 731707
1, 36952, Tempo, 722891
1, 36964, Tempo, 714285
1, 36976, Tempo, 705882
1, 36988, Tempo, 697674
1, 36996, Tempo, 689655
1, 37008, Tempo, 681818
1, 37020, Tempo, 674157
1, 37032, Tempo, 666666
1, 37044, Tempo, 659340
1, 37056, Tempo, 652173
1, 54912, Tempo, 1000000
1, 54928, Tempo, 983606
1, 54948, Tempo, 967741
1, 54968, Tempo, 952380
1, 54988, Tempo, 937500
1, 55008, Tempo, 923076
1, 55024, Tempo, 909090
1, 55044, Tempo, 895522
1, 55064, Tempo, 882352
1, 55084, Tempo, 869565
1, 55104, Tempo, 857142
1, 55120, Tempo, 845070
1, 55140, Tempo, 833333
1, 55160, Tempo, 821917
1, 55180, Tempo, 810810
1, 55200, Tempo, 800000
1, 55216, Tempo, 789473
1, 55236, Tempo, 779220
1, 55256, Tempo, 769230
1, 55276, Tempo, 759493
1, 55296, Tempo, 923076
1, 55300, Tempo, 909090
1, 55304, Tempo, 895522
1, 55308, Tempo, 882352
1, 55312, Tempo, 869565
1, 55316, Tempo, 857142
1, 55320, Tempo, 845070
1, 55324, Tempo, 833333
1, 55328, Tempo, 821917
1, 55332, Tempo, 810810
1, 55336, Tempo, 800000
1, 55340, Tempo, 789473
1, 55344, Tempo, 779220
1, 55348, Tempo, 769230
1, 55352, Tempo, 759493
1, 55360, Tempo, 750000
1, 55376, Tempo, 705882
1, 55392, Tempo, 697674
1, 55408, Tempo, 689655
1, 55424, Tempo, 681818
1, 55440, Tempo, 674157
1, 55456, Tempo, 666666
1, 55472, Tempo, 659340
1, 55488, Tempo, 652173
1, 72256, Tempo, 652173
1, 72356, Tempo, 659340
1, 72456, Tempo, 666666
1, 72556, Tempo, 674157
1, 72656, Tempo, 681818
1, 72756, Tempo, 689655
1, 72856, Tempo, 697674
1, 72960, Tempo, 705882
1, 73024, Tempo, 705882
1, 73044, Tempo, 714285
1, 73064, Tempo, 722891
1, 73088, Tempo, 731707
1, 73108, Tempo, 740740
1, 73128, Tempo, 750000
1, 73152, Tempo, 759493
1, 73172, Tempo, 769230
1, 73192, Tempo, 779220
1, 73216, Tempo, 789473
1, 73236, Tempo, 800000
1, 73256, Tempo, 810810
1, 73280, Tempo, 857142
1, 73284, Tempo, 869565
1, 73292, Tempo, 882352
1, 73296, Tempo, 895522
1, 73304, Tempo, 909090
1, 73312, Tempo, 923076
1, 73316, Tempo, 937500
1, 73324, Tempo, 952380
1, 73328, Tempo, 967741
1, 73336, Tempo, 983606
1, 73344, Tempo, 1000000
1, 73344, End_track
2, 0, Start_track
2, 0, Title_t, "Johann Sebastian Bach"
2, 0, Control_c, 0, 0, 0
2, 0, Program_c, 0, 6
2, 0, Control_c, 0, 7, 127
2, 0, Control_c, 0, 10, 0
2, 0, Control_c, 0, 91, 127
2, 0, Key_signature, 1, "major"
2, 0, Note_on_c, 0, 55, 127
2, 60, Note_off_c, 0, 55, 100
2, 64, Note_on_c, 0, 57, 127
2, 124, Note_off_c, 0, 57, 100
2, 128, Note_on_c, 0, 55, 127
2, 188, Note_off_c, 0, 55, 100
2, 192, Note_on_c, 0, 50, 127
2, 252, Note_off_c, 0, 50, 100
2, 256, Note_on_c, 0, 52, 127
2, 316, Note_off_c, 0, 52, 100
2, 320, Note_on_c, 0, 54, 127
2, 380, Note_off_c, 0, 54, 100
2, 384, Note_on_c, 0, 55, 127
2, 444, Note_off_c, 0, 55, 100
2, 448, Note_on_c, 0, 54, 127
2, 508, Note_off_c, 0, 54, 100
2, 512, Note_on_c, 0, 55, 127
2, 572, Note_off_c, 0, 55, 100
2, 576, Note_on_c, 0, 57, 127
2, 636, Note_off_c, 0, 57, 100
2, 640, Note_on_c, 0, 55, 127
2, 700, Note_off_c, 0, 55, 100
2, 704, Note_on_c, 0, 57, 127
2, 764, Note_off_c, 0, 57, 100
2, 768, Note_on_c, 0, 59, 127
2, 828, Note_off_c, 0, 59, 100
2, 832, Note_on_c, 0, 57, 127
2, 892, Note_off_c, 0, 57, 100
2, 896, Note_on_c, 0, 59, 127
2, 956, Note_off_c, 0, 59, 100
2, 960, Note_on_c, 0, 60, 127
2, 1020, Note_off_c, 0, 60, 100
2, 1024, Note_on_c, 0, 59, 127
2, 1084, Note_off_c, 0, 59, 100
2, 1088, Note_on_c, 0, 61, 127
2, 1148, Note_off_c, 0, 61, 100
2, 1152, Note_on_c, 0, 62, 127
2, 1212, Note_off_c, 0, 62, 100
2, 1216, Note_on_c, 0, 64, 127
2, 1276, Note_off_c, 0, 64, 100
2, 1280, Note_on_c, 0, 62, 127
2, 1340, Note_off_c, 0, 62, 100
2, 1344, Note_on_c, 0, 57, 127
2, 1404, Note_off_c, 0, 57, 100
2, 1408, Note_on_c, 0, 59, 127
2, 1468, Note_off_c, 0, 59, 100
2, 1472, Note_on_c, 0, 61, 127
2, 1532, Note_off_c, 0, 61, 100
2, 1536, Note_on_c, 0, 62, 127
2, 1596, Note_off_c, 0, 62, 100
2, 1600, Note_on_c, 0, 61, 127
2, 1660, Note_off_c, 0, 61, 100
2, 1664, Note_on_c, 0, 62, 127
2, 1724, Note_off_c, 0, 62, 100
2, 1728, Note_on_c, 0, 64, 127
2, 1788, Note_off_c, 0, 64, 100
2, 1792, Note_on_c, 0, 62, 127
2, 1852, Note_off_c, 0, 62, 100
2, 1856, Note_on_c, 0, 64, 127
2, 1916, Note_off_c, 0, 64, 100
2, 1920, Note_on_c, 0, 66, 127
2, 1980, Note_off_c, 0, 66, 100
2, 1984, Note_on_c, 0, 64, 127
2, 2044, Note_off_c, 0, 64, 100
2, 2048, Note_on_c, 0, 66, 127
2, 2108, Note_off_c, 0, 66, 100
2, 2112, Note_on_c, 0, 67, 127
2, 2172, Note_off_c, 0, 67, 100
2, 2176, Note_on_c, 0, 64, 127
2, 2236, Note_off_c, 0, 64, 100
2, 2240, Note_on_c, 0, 66, 127
2, 2300, Note_off_c, 0, 66, 100
2, 2304, Note_on_c, 0, 67, 127
2, 2364, Note_off_c, 0, 67, 100
2, 2368, Note_on_c, 0, 69, 127
2, 2428, Note_off_c, 0, 69, 100
2, 2432, Note_on_c, 0, 67, 127
2, 2492, Note_off_c, 0, 67, 100
2, 2496, Note_on_c, 0, 59, 127
2, 2556, Note_off_c, 0, 59, 100
2, 2560, Note_on_c, 0, 64, 127
2, 2620, Note_off_c, 0, 64, 100
2, 2624, Note_on_c, 0, 66, 127
2, 2684, Note_off_c, 0, 66, 100
2, 2688, Note_on_c, 0, 67, 127
2, 2748, Note_off_c, 0, 67, 100
2, 2752, Note_on_c, 0, 66, 127
2, 2812, Note_off_c, 0, 66, 100
2, 2816, Note_on_c, 0, 67, 127
2, 2876, Note_off_c, 0, 67, 100
2, 2880, Note_on_c, 0, 69, 127
2, 2940, Note_off_c, 0, 69, 100
2, 2944, Note_on_c, 0, 67, 127
2, 3004, Note_off_c, 0, 67, 100
2, 3008, Note_on_c, 0, 69, 127
2, 3068, Note_off_c, 0, 69, 100
2, 3072, Note_on_c, 0, 71, 127
2, 3132, Note_off_c, 0, 71, 100
2, 3136, Note_on_c, 0, 69, 127
2, 3196, Note_off_c, 0, 69, 100
2, 3200, Note_on_c, 0, 71, 127
2, 3260, Note_off_c, 0, 71, 100
2, 3264, Note_on_c, 0, 73, 127
2, 3324, Note_off_c, 0, 73, 100
2, 3328, Note_on_c, 0, 71, 127
2, 3388, Note_off_c, 0, 71, 100
2, 3392, Note_on_c, 0, 73, 127
2, 3452, Note_off_c, 0, 73, 100
2, 3456, Note_on_c, 0, 74, 127
2, 3516, Note_off_c, 0, 74, 100
2, 3520, Note_on_c, 0, 76, 127
2, 3580, Note_off_c, 0, 76, 100
2, 3584, Note_on_c, 0, 74, 127
2, 3644, Note_off_c, 0, 74, 100
2, 3648, Note_on_c, 0, 69, 127
2, 3708, Note_off_c, 0, 69, 100
2, 3712, Note_on_c, 0, 71, 127
2, 3772, Note_off_c, 0, 71, 100
2, 3776, Note_on_c, 0, 73, 127
2, 3836, Note_off_c, 0, 73, 100
2, 3840, Note_on_c, 0, 74, 127
2, 3900, Note_off_c, 0, 74, 100
2, 3904, Note_on_c, 0, 73, 127
2, 3964, Note_off_c, 0, 73, 100
2, 3968, Note_on_c, 0, 74, 127
2, 4028, Note_off_c, 0, 74, 100
2, 4032, Note_on_c, 0, 76, 127
2, 4092, Note_off_c, 0, 76, 100
2, 4096, Note_on_c, 0, 74, 127
2, 4156, Note_off_c, 0, 74, 100
2, 4160, Note_on_c, 0, 76, 127
2, 4220, Note_off_c, 0, 76, 100
2, 4224, Note_on_c, 0, 78, 127
2, 4284, Note_off_c, 0, 78, 100
2, 4288, Note_on_c, 0, 76, 127
2, 4348, Note_off_c, 0, 76, 100
2, 4352, Note_on_c, 0, 78, 127
2, 4412, Note_off_c, 0, 78, 100
2, 4416, Note_on_c, 0, 79, 127
2, 4476, Note_off_c, 0, 79, 100
2, 4480, Note_on_c, 0, 76, 127
2, 4540, Note_off_c, 0, 76, 100
2, 4544, Note_on_c, 0, 78, 127
2, 4604, Note_off_c, 0, 78, 100
2, 4608, Note_on_c, 0, 79, 127
2, 4668, Note_off_c, 0, 79, 100
2, 4672, Note_on_c, 0, 78, 127
2, 4732, Note_off_c, 0, 78, 100
2, 4736, Note_on_c, 0, 79, 127
2, 4796, Note_off_c, 0, 79, 100
2, 4800, Note_on_c, 0, 74, 127
2, 4860, Note_off_c, 0, 74, 100
2, 4864, Note_on_c, 0, 72, 127
2, 4924, Note_off_c, 0, 72, 100
2, 4928, Note_on_c, 0, 74, 127
2, 4988, Note_off_c, 0, 74, 100
2, 4992, Note_on_c, 0, 71, 127
2, 5052, Note_off_c, 0, 71, 100
2, 5056, Note_on_c, 0, 67, 127
2, 5116, Note_off_c, 0, 67, 100
2, 5120, Note_on_c, 0, 66, 127
2, 5180, Note_off_c, 0, 66, 100
2, 5184, Note_on_c, 0, 67, 127
2, 5244, Note_off_c, 0, 67, 100
2, 5248, Note_on_c, 0, 71, 127
2, 5308, Note_off_c, 0, 71, 100
2, 5312, Note_on_c, 0, 74, 127
2, 5372, Note_off_c, 0, 74, 100
2, 5376, Note_on_c, 0, 77, 127
2, 5436, Note_off_c, 0, 77, 100
2, 5440, Note_on_c, 0, 76, 127
2, 5500, Note_off_c, 0, 76, 100
2, 5504, Note_on_c, 0, 77, 127
2, 5564, Note_off_c, 0, 77, 100
2, 5568, Note_on_c, 0, 74, 127
2, 5628, Note_off_c, 0, 74, 100
2, 5632, Note_on_c, 0, 71, 127
2, 5692, Note_off_c, 0, 71, 100
2, 5696, Note_on_c, 0, 74, 127
2, 5756, Note_off_c, 0, 74, 100
2, 5760, Note_on_c, 0, 76, 127
2, 5820, Note_off_c, 0, 76, 100
2, 5824, Note_on_c, 0, 74, 127
2, 5884, Note_off_c, 0, 74, 100
2, 5888, Note_on_c, 0, 76, 127
2, 5948, Note_off_c, 0, 76, 100
2, 5952, Note_on_c, 0, 72, 127
2, 6012, Note_off_c, 0, 72, 100
2, 6016, Note_on_c, 0, 71, 127
2, 6076, Note_off_c, 0, 71, 100
2, 6080, Note_on_c, 0, 72, 127
2, 6140, Note_off_c, 0, 72, 100
2, 6144, Note_on_c, 0, 67, 127
2, 6204, Note_off_c, 0, 67, 100
2, 6208, Note_on_c, 0, 64, 127
2, 6268, Note_off_c, 0, 64, 100
2, 6272, Note_on_c, 0, 62, 127
2, 6332, Note_off_c, 0, 62, 100
2, 6336, Note_on_c, 0, 64, 127
2, 6396, Note_off_c, 0, 64, 100
2, 6400, Note_on_c, 0, 67, 127
2, 6460, Note_off_c, 0, 67, 100
2, 6464, Note_on_c, 0, 72, 127
2, 6524, Note_off_c, 0, 72, 100
2, 6528, Note_on_c, 0, 76, 127
2, 6588, Note_off_c, 0, 76, 100
2, 6592, Note_on_c, 0, 74, 127
2, 6652, Note_off_c, 0, 74, 100
2, 6656, Note_on_c, 0, 76, 127
2, 6716, Note_off_c, 0, 76, 100
2, 6720, Note_on_c, 0, 72, 127
2, 6780, Note_off_c, 0, 72, 100
2, 6784, Note_on_c, 0, 69, 127
2, 6844, Note_off_c, 0, 69, 100
2, 6848, Note_on_c, 0, 72, 127
2, 6908, Note_off_c, 0, 72, 100
2, 6912, Note_on_c, 0, 74, 127
2, 6972, Note_off_c, 0, 74, 100
2, 6976, Note_on_c, 0, 72, 127
2, 7036, Note_off_c, 0, 72, 100
2, 7040, Note_on_c, 0, 74, 127
2, 7100, Note_off_c, 0, 74, 100
2, 7104, Note_on_c, 0, 69, 127
2, 7164, Note_off_c, 0, 69, 100
2, 7168, Note_on_c, 0, 67, 127
2, 7228, Note_off_c, 0, 67, 100
2, 7232, Note_on_c, 0, 69, 127
2, 7292, Note_off_c, 0, 69, 100
2, 7296, Note_on_c, 0, 66, 127
2, 7356, Note_off_c, 0, 66, 100
2, 7360, Note_on_c, 0, 62, 127
2, 7420, Note_off_c, 0, 62, 100
2, 7424, Note_on_c, 0, 61, 127
2, 7484, Note_off_c, 0, 61, 100
2, 7488, Note_on_c, 0, 62, 127
2, 7548, Note_off_c, 0, 62, 100
2, 7552, Note_on_c, 0, 66, 127
2, 7612, Note_off_c, 0, 66, 100
2, 7616, Note_on_c, 0, 69, 127
2, 7676, Note_off_c, 0, 69, 100
2, 7680, Note_on_c, 0, 72, 127
2, 7740, Note_off_c, 0, 72, 100
2, 7744, Note_on_c, 0, 71, 127
2, 7804, Note_off_c, 0, 71, 100
2, 7808, Note_on_c, 0, 72, 127
2, 7868, Note_off_c, 0, 72, 100
2, 7872, Note_on_c, 0, 69, 127
2, 7932, Note_off_c, 0, 69, 100
2, 7936, Note_on_c, 0, 66, 127
2, 7996, Note_off_c, 0, 66, 100
2, 8000, Note_on_c, 0, 69, 127
2, 8060, Note_off_c, 0, 69, 100
2, 8064, Note_on_c, 0, 71, 127
2, 8124, Note_off_c, 0, 71, 100
2, 8128, Note_on_c, 0, 69, 127
2, 8188, Note_off_c, 0, 69, 100
2, 8192, Note_on_c, 0, 71, 127
2, 8252, Note_off_c, 0, 71, 100
2, 8256, Note_on_c, 0, 67, 127
2, 8316, Note_off_c, 0, 67, 100
2, 8320, Note_on_c, 0, 66, 127
2, 8380, Note_off_c, 0, 66, 100
2, 8384, Note_on_c, 0, 67, 127
2, 8444, Note_off_c, 0, 67, 100
2, 8448, Note_on_c, 0, 62, 127
2, 8508, Note_off_c, 0, 62, 100
2, 8512, Note_on_c, 0, 59, 127
2, 8572, Note_off_c, 0, 59, 100
2, 8576, Note_on_c, 0, 57, 127
2, 8636, Note_off_c, 0, 57, 100
2, 8640, Note_on_c, 0, 59, 127
2, 8700, Note_off_c, 0, 59, 100
2, 8704, Note_on_c, 0, 62, 127
2, 8764, Note_off_c, 0, 62, 100
2, 8768, Note_on_c, 0, 67, 127
2, 8828, Note_off_c, 0, 67, 100
2, 8832, Note_on_c, 0, 71, 127
2, 8892, Note_off_c, 0, 71, 100
2, 8896, Note_on_c, 0, 67, 127
2, 8956, Note_off_c, 0, 67, 100
2, 8960, Note_on_c, 0, 66, 127
2, 9020, Note_off_c, 0, 66, 100
2, 9024, Note_on_c, 0, 67, 127
2, 9084, Note_off_c, 0, 67, 100
2, 9088, Note_on_c, 0, 71, 127
2, 9148, Note_off_c, 0, 71, 100
2, 9152, Note_on_c, 0, 74, 127
2, 9212, Note_off_c, 0, 74, 100
2, 9216, Note_on_c, 0, 79, 127
2, 9500, Note_off_c, 0, 79, 100
2, 9504, Note_on_c, 0, 78, 127
2, 9548, Note_off_c, 0, 78, 100
2, 9552, Note_on_c, 0, 76, 127
2, 9596, Note_off_c, 0, 76, 100
2, 9600, Note_on_c, 0, 74, 127
2, 9980, Note_off_c, 0, 74, 100
2, 10176, Note_on_c, 0, 83, 127
2, 10236, Note_off_c, 0, 83, 100
2, 10368, Note_on_c, 0, 81, 127
2, 10748, Note_off_c, 0, 81, 100
2, 10752, Note_on_c, 0, 81, 127
2, 11132, Note_off_c, 0, 81, 100
2, 11328, Note_on_c, 0, 81, 127
2, 11388, Note_off_c, 0, 81, 100
2, 11520, Note_on_c, 0, 81, 127
2, 11900, Note_off_c, 0, 81, 100
2, 11904, Note_on_c, 0, 79, 127
2, 12284, Note_off_c, 0, 79, 100
2, 12480, Note_on_c, 0, 79, 127
2, 12540, Note_off_c, 0, 79, 100
2, 12672, Note_on_c, 0, 79, 127
2, 12956, Note_off_c, 0, 79, 100
2, 12960, Note_on_c, 0, 76, 127
2, 13052, Note_off_c, 0, 76, 100
2, 13056, Note_on_c, 0, 69, 127
2, 13436, Note_off_c, 0, 69, 100
2, 13632, Note_on_c, 0, 79, 127
2, 13692, Note_off_c, 0, 79, 100
2, 13824, Note_on_c, 0, 79, 127
2, 14108, Note_off_c, 0, 79, 100
2, 14112, Note_on_c, 0, 76, 127
2, 14204, Note_off_c, 0, 76, 100
2, 14208, Note_on_c, 0, 78, 127
2, 14588, Note_off_c, 0, 78, 100
2, 14784, Note_on_c, 0, 81, 127
2, 14844, Note_off_c, 0, 81, 100
2, 14976, Note_on_c, 0, 83, 127
2, 15260, Note_off_c, 0, 83, 100
2, 15264, Note_on_c, 0, 78, 127
2, 15356, Note_off_c, 0, 78, 100
2, 15360, Note_on_c, 0, 79, 127
2, 15740, Note_off_c, 0, 79, 100
2, 15936, Note_on_c, 0, 76, 127
2, 15936, Note_on_c, 0, 79, 127
2, 15996, Note_off_c, 0, 76, 100
2, 15996, Note_off_c, 0, 79, 100
2, 16128, Note_on_c, 0, 79, 127
2, 16508, Note_off_c, 0, 79, 100
2, 16512, Note_on_c, 0, 73, 127
2, 16892, Note_off_c, 0, 73, 100
2, 17088, Note_on_c, 0, 69, 127
2, 17148, Note_off_c, 0, 69, 100
2, 17280, Note_on_c, 0, 69, 127
2, 17564, Note_off_c, 0, 69, 100
2, 17568, Note_on_c, 0, 64, 127
2, 17660, Note_off_c, 0, 64, 100
2, 17664, Note_on_c, 0, 66, 127
2, 18044, Note_off_c, 0, 66, 100
2, 18432, Note_on_c, 0, 55, 112
2, 18492, Note_off_c, 0, 55, 100
2, 18496, Note_on_c, 0, 57, 112
2, 18556, Note_off_c, 0, 57, 100
2, 18560, Note_on_c, 0, 55, 112
2, 18620, Note_off_c, 0, 55, 100
2, 18624, Note_on_c, 0, 50, 112
2, 18684, Note_off_c, 0, 50, 100
2, 18688, Note_on_c, 0, 52, 112
2, 18748, Note_off_c, 0, 52, 100
2, 18752, Note_on_c, 0, 54, 112
2, 18812, Note_off_c, 0, 54, 100
2, 18816, Note_on_c, 0, 55, 112
2, 18876, Note_off_c, 0, 55, 100
2, 18880, Note_on_c, 0, 54, 112
2, 18940, Note_off_c, 0, 54, 100
2, 18944, Note_on_c, 0, 55, 112
2, 19004, Note_off_c, 0, 55, 100
2, 19008, Note_on_c, 0, 57, 112
2, 19068, Note_off_c, 0, 57, 100
2, 19072, Note_on_c, 0, 55, 112
2, 19132, Note_off_c, 0, 55, 100
2, 19136, Note_on_c, 0, 57, 112
2, 19196, Note_off_c, 0, 57, 100
2, 19200, Note_on_c, 0, 59, 112
2, 19260, Note_off_c, 0, 59, 100
2, 19264, Note_on_c, 0, 57, 112
2, 19324, Note_off_c, 0, 57, 100
2, 19328, Note_on_c, 0, 59, 112
2, 19388, Note_off_c, 0, 59, 100
2, 19392, Note_on_c, 0, 60, 112
2, 19452, Note_off_c, 0, 60, 100
2, 19456, Note_on_c, 0, 59, 112
2, 19516, Note_off_c, 0, 59, 100
2, 19520, Note_on_c, 0, 61, 112
2, 19580, Note_off_c, 0, 61, 100
2, 19584, Note_on_c, 0, 62, 112
2, 19644, Note_off_c, 0, 62, 100
2, 19648, Note_on_c, 0, 64, 112
2, 19708, Note_off_c, 0, 64, 100
2, 19712, Note_on_c, 0, 62, 112
2, 19772, Note_off_c, 0, 62, 100
2, 19776, Note_on_c, 0, 57, 112
2, 19836, Note_off_c, 0, 57, 100
2, 19840, Note_on_c, 0, 59, 112
2, 19900, Note_off_c, 0, 59, 100
2, 19904, Note_on_c, 0, 61, 112
2, 19964, Note_off_c, 0, 61, 100
2, 19968, Note_on_c, 0, 62, 112
2, 20028, Note_off_c, 0, 62, 100
2, 20032, Note_on_c, 0, 61, 112
2, 20092, Note_off_c, 0, 61, 100
2, 20096, Note_on_c, 0, 62, 112
2, 20156, Note_off_c, 0, 62, 100
2, 20160, Note_on_c, 0, 64, 112
2, 20220, Note_off_c, 0, 64, 100
2, 20224, Note_on_c, 0, 62, 112
2, 20284, Note_off_c, 0, 62, 100
2, 20288, Note_on_c, 0, 64, 112
2, 20348, Note_off_c, 0, 64, 100
2, 20352, Note_on_c, 0, 66, 112
2, 20412, Note_off_c, 0, 66, 100
2, 20416, Note_on_c, 0, 64, 112
2, 20476, Note_off_c, 0, 64, 100
2, 20480, Note_on_c, 0, 66, 112
2, 20540, Note_off_c, 0, 66, 100
2, 20544, Note_on_c, 0, 67, 112
2, 20604, Note_off_c, 0, 67, 100
2, 20608, Note_on_c, 0, 64, 112
2, 20668, Note_off_c, 0, 64, 100
2, 20672, Note_on_c, 0, 66, 112
2, 20732, Note_off_c, 0, 66, 100
2, 20736, Note_on_c, 0, 67, 112
2, 20796, Note_off_c, 0, 67, 100
2, 20800, Note_on_c, 0, 69, 112
2, 20860, Note_off_c, 0, 69, 100
2, 20864, Note_on_c, 0, 67, 112
2, 20924, Note_off_c, 0, 67, 100
2, 20928, Note_on_c, 0, 59, 112
2, 20988, Note_off_c, 0, 59, 100
2, 20992, Note_on_c, 0, 64, 112
2, 21052, Note_off_c, 0, 64, 100
2, 21056, Note_on_c, 0, 66, 112
2, 21116, Note_off_c, 0, 66, 100
2, 21120, Note_on_c, 0, 67, 112
2, 21180, Note_off_c, 0, 67, 100
2, 21184, Note_on_c, 0, 66, 112
2, 21244, Note_off_c, 0, 66, 100
2, 21248, Note_on_c, 0, 67, 112
2, 21308, Note_off_c, 0, 67, 100
2, 21312, Note_on_c, 0, 69, 112
2, 21372, Note_off_c, 0, 69, 100
2, 21376, Note_on_c, 0, 67, 112
2, 21436, Note_off_c, 0, 67, 100
2, 21440, Note_on_c, 0, 69, 112
2, 21500, Note_off_c, 0, 69, 100
2, 21504, Note_on_c, 0, 71, 112
2, 21564, Note_off_c, 0, 71, 100
2, 21568, Note_on_c, 0, 69, 112
2, 21628, Note_off_c, 0, 69, 100
2, 21632, Note_on_c, 0, 71, 112
2, 21692, Note_off_c, 0, 71, 100
2, 21696, Note_on_c, 0, 73, 112
2, 21756, Note_off_c, 0, 73, 100
2, 21760, Note_on_c, 0, 71, 112
2, 21820, Note_off_c, 0, 71, 100
2, 21824, Note_on_c, 0, 73, 112
2, 21884, Note_off_c, 0, 73, 100
2, 21888, Note_on_c, 0, 74, 112
2, 21948, Note_off_c, 0, 74, 100
2, 21952, Note_on_c, 0, 76, 112
2, 22012, Note_off_c, 0, 76, 100
2, 22016, Note_on_c, 0, 74, 112
2, 22076, Note_off_c, 0, 74, 100
2, 22080, Note_on_c, 0, 69, 112
2, 22140, Note_off_c, 0, 69, 100
2, 22144, Note_on_c, 0, 71, 112
2, 22204, Note_off_c, 0, 71, 100
2, 22208, Note_on_c, 0, 73, 112
2, 22268, Note_off_c, 0, 73, 100
2, 22272, Note_on_c, 0, 74, 112
2, 22332, Note_off_c, 0, 74, 100
2, 22336, Note_on_c, 0, 73, 112
2, 22396, Note_off_c, 0, 73, 100
2, 22400, Note_on_c, 0, 74, 112
2, 22460, Note_off_c, 0, 74, 100
2, 22464, Note_on_c, 0, 76, 112
2, 22524, Note_off_c, 0, 76, 100
2, 22528, Note_on_c, 0, 74, 112
2, 22588, Note_off_c, 0, 74, 100
2, 22592, Note_on_c, 0, 76, 112
2, 22652, Note_off_c, 0, 76, 100
2, 22656, Note_on_c, 0, 78, 112
2, 22716, Note_off_c, 0, 78, 100
2, 22720, Note_on_c, 0, 76, 112
2, 22780, Note_off_c, 0, 76, 100
2, 22784, Note_on_c, 0, 78, 112
2, 22844, Note_off_c, 0, 78, 100
2, 22848, Note_on_c, 0, 79, 112
2, 22908, Note_off_c, 0, 79, 100
2, 22912, Note_on_c, 0, 76, 112
2, 22972, Note_off_c, 0, 76, 100
2, 22976, Note_on_c, 0, 78, 112
2, 23036, Note_off_c, 0, 78, 100
2, 23040, Note_on_c, 0, 79, 112
2, 23100, Note_off_c, 0, 79, 100
2, 23104, Note_on_c, 0, 78, 112
2, 23164, Note_off_c, 0, 78, 100
2, 23168, Note_on_c, 0, 79, 112
2, 23228, Note_off_c, 0, 79, 100
2, 23232, Note_on_c, 0, 74, 112
2, 23292, Note_off_c, 0, 74, 100
2, 23296, Note_on_c, 0, 72, 112
2, 23356, Note_off_c, 0, 72, 100
2, 23360, Note_on_c, 0, 74, 112
2, 23420, Note_off_c, 0, 74, 100
2, 23424, Note_on_c, 0, 71, 112
2, 23484, Note_off_c, 0, 71, 100
2, 23488, Note_on_c, 0, 67, 112
2, 23548, Note_off_c, 0, 67, 100
2, 23552, Note_on_c, 0, 66, 112
2, 23612, Note_off_c, 0, 66, 100
2, 23616, Note_on_c, 0, 67, 112
2, 23676, Note_off_c, 0, 67, 100
2, 23680, Note_on_c, 0, 71, 112
2, 23740, Note_off_c, 0, 71, 100
2, 23744, Note_on_c, 0, 74, 112
2, 23804, Note_off_c, 0, 74, 100
2, 23808, Note_on_c, 0, 77, 112
2, 23868, Note_off_c, 0, 77, 100
2, 23872, Note_on_c, 0, 76, 112
2, 23932, Note_off_c, 0, 76, 100
2, 23936, Note_on_c, 0, 77, 112
2, 23996, Note_off_c, 0, 77, 100
2, 24000, Note_on_c, 0, 74, 112
2, 24060, Note_off_c, 0, 74, 100
2, 24064, Note_on_c, 0, 71, 112
2, 24124, Note_off_c, 0, 71, 100
2, 24128, Note_on_c, 0, 74, 112
2, 24188, Note_off_c, 0, 74, 100
2, 24192, Note_on_c, 0, 76, 112
2, 24252, Note_off_c, 0, 76, 100
2, 24256, Note_on_c, 0, 74, 112
2, 24316, Note_off_c, 0, 74, 100
2, 24320, Note_on_c, 0, 76, 112
2, 24380, Note_off_c, 0, 76, 100
2, 24384, Note_on_c, 0, 72, 112
2, 24444, Note_off_c, 0, 72, 100
2, 24448, Note_on_c, 0, 71, 112
2, 24508, Note_off_c, 0, 71, 100
2, 24512, Note_on_c, 0, 72, 112
2, 24572, Note_off_c, 0, 72, 100
2, 24576, Note_on_c, 0, 67, 112
2, 24636, Note_off_c, 0, 67, 100
2, 24640, Note_on_c, 0, 64, 112
2, 24700, Note_off_c, 0, 64, 100
2, 24704, Note_on_c, 0, 62, 112
2, 24764, Note_off_c, 0, 62, 100
2, 24768, Note_on_c, 0, 64, 112
2, 24828, Note_off_c, 0, 64, 100
2, 24832, Note_on_c, 0, 67, 112
2, 24892, Note_off_c, 0, 67, 100
2, 24896, Note_on_c, 0, 72, 112
2, 24956, Note_off_c, 0, 72, 100
2, 24960, Note_on_c, 0, 76, 112
2, 25020, Note_off_c, 0, 76, 100
2, 25024, Note_on_c, 0, 74, 112
2, 25084, Note_off_c, 0, 74, 100
2, 25088, Note_on_c, 0, 76, 112
2, 25148, Note_off_c, 0, 76, 100
2, 25152, Note_on_c, 0, 72, 112
2, 25212, Note_off_c, 0, 72, 100
2, 25216, Note_on_c, 0, 69, 112
2, 25276, Note_off_c, 0, 69, 100
2, 25280, Note_on_c, 0, 72, 112
2, 25340, Note_off_c, 0, 72, 100
2, 25344, Note_on_c, 0, 74, 112
2, 25404, Note_off_c, 0, 74, 100
2, 25408, Note_on_c, 0, 72, 112
2, 25468, Note_off_c, 0, 72, 100
2, 25472, Note_on_c, 0, 74, 112
2, 25532, Note_off_c, 0, 74, 100
2, 25536, Note_on_c, 0, 69, 112
2, 25596, Note_off_c, 0, 69, 100
2, 25600, Note_on_c, 0, 67, 112
2, 25660, Note_off_c, 0, 67, 100
2, 25664, Note_on_c, 0, 69, 112
2, 25724, Note_off_c, 0, 69, 100
2, 25728, Note_on_c, 0, 66, 112
2, 25788, Note_off_c, 0, 66, 100
2, 25792, Note_on_c, 0, 62, 112
2, 25852, Note_off_c, 0, 62, 100
2, 25856, Note_on_c, 0, 61, 112
2, 25916, Note_off_c, 0, 61, 100
2, 25920, Note_on_c, 0, 62, 112
2, 25980, Note_off_c, 0, 62, 100
2, 25984, Note_on_c, 0, 66, 112
2, 26044, Note_off_c, 0, 66, 100
2, 26048, Note_on_c, 0, 69, 112
2, 26108, Note_off_c, 0, 69, 100
2, 26112, Note_on_c, 0, 72, 112
2, 26172, Note_off_c, 0, 72, 100
2, 26176, Note_on_c, 0, 71, 112
2, 26236, Note_off_c, 0, 71, 100
2, 26240, Note_on_c, 0, 72, 112
2, 26300, Note_off_c, 0, 72, 100
2, 26304, Note_on_c, 0, 69, 112
2, 26364, Note_off_c, 0, 69, 100
2, 26368, Note_on_c, 0, 66, 112
2, 26428, Note_off_c, 0, 66, 100
2, 26432, Note_on_c, 0, 69, 112
2, 26492, Note_off_c, 0, 69, 100
2, 26496, Note_on_c, 0, 71, 112
2, 26556, Note_off_c, 0, 71, 100
2, 26560, Note_on_c, 0, 69, 112
2, 26620, Note_off_c, 0, 69, 100
2, 26624, Note_on_c, 0, 71, 112
2, 26684, Note_off_c, 0, 71, 100
2, 26688, Note_on_c, 0, 67, 112
2, 26748, Note_off_c, 0, 67, 100
2, 26752, Note_on_c, 0, 66, 112
2, 26812, Note_off_c, 0, 66, 100
2, 26816, Note_on_c, 0, 67, 112
2, 26876, Note_off_c, 0, 67, 100
2, 26880, Note_on_c, 0, 62, 112
2, 26940, Note_off_c, 0, 62, 100
2, 26944, Note_on_c, 0, 59, 112
2, 27004, Note_off_c, 0, 59, 100
2, 27008, Note_on_c, 0, 57, 112
2, 27068, Note_off_c, 0, 57, 100
2, 27072, Note_on_c, 0, 59, 112
2, 27132, Note_off_c, 0, 59, 100
2, 27136, Note_on_c, 0, 62, 112
2, 27196, Note_off_c, 0, 62, 100
2, 27200, Note_on_c, 0, 67, 112
2, 27260, Note_off_c, 0, 67, 100
2, 27264, Note_on_c, 0, 71, 112
2, 27324, Note_off_c, 0, 71, 100
2, 27328, Note_on_c, 0, 67, 112
2, 27388, Note_off_c, 0, 67, 100
2, 27392, Note_on_c, 0, 66, 112
2, 27452, Note_off_c, 0, 66, 100
2, 27456, Note_on_c, 0, 67, 112
2, 27516, Note_off_c, 0, 67, 100
2, 27520, Note_on_c, 0, 71, 112
2, 27580, Note_off_c, 0, 71, 100
2, 27584, Note_on_c, 0, 74, 112
2, 27644, Note_off_c, 0, 74, 100
2, 27648, Note_on_c, 0, 79, 112
2, 27932, Note_off_c, 0, 79, 100
2, 27936, Note_on_c, 0, 78, 112
2, 27980, Note_off_c, 0, 78, 100
2, 27984, Note_on_c, 0, 76, 112
2, 28028, Note_off_c, 0, 76, 100
2, 28032, Note_on_c, 0, 74, 112
2, 28412, Note_off_c, 0, 74, 100
2, 28608, Note_on_c, 0, 83, 112
2, 28668, Note_off_c, 0, 83, 100
2, 28800, Note_on_c, 0, 81, 112
2, 29180, Note_off_c, 0, 81, 100
2, 29184, Note_on_c, 0, 81, 112
2, 29564, Note_off_c, 0, 81, 100
2, 29760, Note_on_c, 0, 81, 112
2, 29820, Note_off_c, 0, 81, 100
2, 29952, Note_on_c, 0, 81, 112
2, 30332, Note_off_c, 0, 81, 100
2, 30336, Note_on_c, 0, 79, 112
2, 30716, Note_off_c, 0, 79, 100
2, 30912, Note_on_c, 0, 79, 112
2, 30972, Note_off_c, 0, 79, 100
2, 31104, Note_on_c, 0, 79, 112
2, 31388, Note_off_c, 0, 79, 100
2, 31392, Note_on_c, 0, 76, 112
2, 31484, Note_off_c, 0, 76, 100
2, 31488, Note_on_c, 0, 69, 112
2, 31868, Note_off_c, 0, 69, 100
2, 32064, Note_on_c, 0, 79, 112
2, 32124, Note_off_c, 0, 79, 100
2, 32256, Note_on_c, 0, 79, 112
2, 32540, Note_off_c, 0, 79, 100
2, 32544, Note_on_c, 0, 76, 112
2, 32636, Note_off_c, 0, 76, 100
2, 32640, Note_on_c, 0, 78, 112
2, 33020, Note_off_c, 0, 78, 100
2, 33216, Note_on_c, 0, 81, 112
2, 33276, Note_off_c, 0, 81, 100
2, 33408, Note_on_c, 0, 83, 112
2, 33692, Note_off_c, 0, 83, 100
2, 33696, Note_on_c, 0, 78, 112
2, 33788, Note_off_c, 0, 78, 100
2, 33792, Note_on_c, 0, 79, 112
2, 34172, Note_off_c, 0, 79, 100
2, 34368, Note_on_c, 0, 76, 112
2, 34368, Note_on_c, 0, 79, 112
2, 34428, Note_off_c, 0, 76, 100
2, 34428, Note_off_c, 0, 79, 100
2, 34560, Note_on_c, 0, 79, 112
2, 34940, Note_off_c, 0, 79, 100
2, 34944, Note_on_c, 0, 73, 112
2, 35324, Note_off_c, 0, 73, 100
2, 35520, Note_on_c, 0, 69, 112
2, 35580, Note_off_c, 0, 69, 100
2, 35712, Note_on_c, 0, 69, 112
2, 35996, Note_off_c, 0, 69, 100
2, 36000, Note_on_c, 0, 64, 112
2, 36092, Note_off_c, 0, 64, 100
2, 36096, Note_on_c, 0, 66, 112
2, 36476, Note_off_c, 0, 66, 100
2, 36864, Note_on_c, 0, 62, 127
2, 37244, Note_off_c, 0, 62, 100
2, 37248, Note_on_c, 0, 60, 127
2, 37628, Note_off_c, 0, 60, 100
2, 37824, Note_on_c, 0, 60, 127
2, 37884, Note_off_c, 0, 60, 100
2, 38016, Note_on_c, 0, 59, 127
2, 38300, Note_off_c, 0, 59, 100
2, 38304, Note_on_c, 0, 62, 127
2, 38396, Note_off_c, 0, 62, 100
2, 38400, Note_on_c, 0, 67, 127
2, 38780, Note_off_c, 0, 67, 100
2, 38976, Note_on_c, 0, 74, 127
2, 39036, Note_off_c, 0, 74, 100
2, 39168, Note_on_c, 0, 73, 127
2, 39548, Note_off_c, 0, 73, 100
2, 39552, Note_on_c, 0, 75, 127
2, 39932, Note_off_c, 0, 75, 100
2, 40128, Note_on_c, 0, 76, 127
2, 40188, Note_off_c, 0, 76, 100
2, 40320, Note_on_c, 0, 75, 127
2, 40700, Note_off_c, 0, 75, 100
2, 40704, Note_on_c, 0, 66, 127
2, 41084, Note_off_c, 0, 66, 100
2, 41280, Note_on_c, 0, 75, 127
2, 41340, Note_off_c, 0, 75, 100
2, 41472, Note_on_c, 0, 76, 127
2, 41852, Note_off_c, 0, 76, 100
2, 41856, Note_on_c, 0, 71, 127
2, 42236, Note_off_c, 0, 71, 100
2, 42432, Note_on_c, 0, 71, 127
2, 42492, Note_off_c, 0, 71, 100
2, 42624, Note_on_c, 0, 69, 127
2, 42908, Note_off_c, 0, 69, 100
2, 42912, Note_on_c, 0, 71, 127
2, 43004, Note_off_c, 0, 71, 100
2, 43008, Note_on_c, 0, 72, 127
2, 43388, Note_off_c, 0, 72, 100
2, 43584, Note_on_c, 0, 72, 127
2, 43644, Note_off_c, 0, 72, 100
2, 43776, Note_on_c, 0, 71, 127
2, 44156, Note_off_c, 0, 71, 100
2, 44160, Note_on_c, 0, 69, 127
2, 44540, Note_off_c, 0, 69, 100
2, 44736, Note_on_c, 0, 69, 127
2, 44796, Note_off_c, 0, 69, 100
2, 44928, Note_on_c, 0, 69, 127
2, 45212, Note_off_c, 0, 69, 100
2, 45216, Note_on_c, 0, 66, 127
2, 45308, Note_off_c, 0, 66, 100
2, 45312, Note_on_c, 0, 67, 127
2, 45692, Note_off_c, 0, 67, 100
2, 45760, Note_on_c, 0, 52, 127
2, 45820, Note_off_c, 0, 52, 100
2, 45824, Note_on_c, 0, 54, 127
2, 45884, Note_off_c, 0, 54, 100
2, 45888, Note_on_c, 0, 55, 127
2, 45948, Note_off_c, 0, 55, 100
2, 45952, Note_on_c, 0, 57, 127
2, 46012, Note_off_c, 0, 57, 100
2, 46016, Note_on_c, 0, 59, 127
2, 46076, Note_off_c, 0, 59, 100
2, 46080, Note_on_c, 0, 60, 127
2, 46140, Note_off_c, 0, 60, 100
2, 46144, Note_on_c, 0, 59, 127
2, 46204, Note_off_c, 0, 59, 100
2, 46208, Note_on_c, 0, 60, 127
2, 46268, Note_off_c, 0, 60, 100
2, 46272, Note_on_c, 0, 65, 127
2, 46332, Note_off_c, 0, 65, 100
2, 46336, Note_on_c, 0, 64, 127
2, 46396, Note_off_c, 0, 64, 100
2, 46400, Note_on_c, 0, 62, 127
2, 46460, Note_off_c, 0, 62, 100
2, 46464, Note_on_c, 0, 60, 127
2, 46524, Note_off_c, 0, 60, 100
2, 46528, Note_on_c, 0, 62, 127
2, 46588, Note_off_c, 0, 62, 100
2, 46592, Note_on_c, 0, 60, 127
2, 46652, Note_off_c, 0, 60, 100
2, 46656, Note_on_c, 0, 59, 127
2, 46716, Note_off_c, 0, 59, 100
2, 46720, Note_on_c, 0, 60, 127
2, 46780, Note_off_c, 0, 60, 100
2, 46784, Note_on_c, 0, 59, 127
2, 46844, Note_off_c, 0, 59, 100
2, 46848, Note_on_c, 0, 57, 127
2, 46908, Note_off_c, 0, 57, 100
2, 46912, Note_on_c, 0, 59, 127
2, 46972, Note_off_c, 0, 59, 100
2, 46976, Note_on_c, 0, 57, 127
2, 47036, Note_off_c, 0, 57, 100
2, 47040, Note_on_c, 0, 55, 127
2, 47100, Note_off_c, 0, 55, 100
2, 47104, Note_on_c, 0, 57, 127
2, 47164, Note_off_c, 0, 57, 100
2, 47168, Note_on_c, 0, 54, 127
2, 47228, Note_off_c, 0, 54, 100
2, 47232, Note_on_c, 0, 59, 127
2, 47292, Note_off_c, 0, 59, 100
2, 47296, Note_on_c, 0, 57, 127
2, 47356, Note_off_c, 0, 57, 100
2, 47360, Note_on_c, 0, 59, 127
2, 47420, Note_off_c, 0, 59, 100
2, 47424, Note_on_c, 0, 64, 127
2, 47484, Note_off_c, 0, 64, 100
2, 47488, Note_on_c, 0, 62, 127
2, 47548, Note_off_c, 0, 62, 100
2, 47552, Note_on_c, 0, 60, 127
2, 47612, Note_off_c, 0, 60, 100
2, 47616, Note_on_c, 0, 59, 127
2, 47676, Note_off_c, 0, 59, 100
2, 47680, Note_on_c, 0, 60, 127
2, 47740, Note_off_c, 0, 60, 100
2, 47744, Note_on_c, 0, 59, 127
2, 47804, Note_off_c, 0, 59, 100
2, 47808, Note_on_c, 0, 57, 127
2, 47868, Note_off_c, 0, 57, 100
2, 47872, Note_on_c, 0, 59, 127
2, 47932, Note_off_c, 0, 59, 100
2, 47936, Note_on_c, 0, 57, 127
2, 47996, Note_off_c, 0, 57, 100
2, 48000, Note_on_c, 0, 55, 127
2, 48060, Note_off_c, 0, 55, 100
2, 48064, Note_on_c, 0, 57, 127
2, 48124, Note_off_c, 0, 57, 100
2, 48128, Note_on_c, 0, 55, 127
2, 48188, Note_off_c, 0, 55, 100
2, 48192, Note_on_c, 0, 54, 127
2, 48252, Note_off_c, 0, 54, 100
2, 48256, Note_on_c, 0, 55, 127
2, 48316, Note_off_c, 0, 55, 100
2, 48320, Note_on_c, 0, 52, 127
2, 48380, Note_off_c, 0, 52, 100
2, 48384, Note_on_c, 0, 57, 127
2, 48444, Note_off_c, 0, 57, 100
2, 48448, Note_on_c, 0, 55, 127
2, 48508, Note_off_c, 0, 55, 100
2, 48512, Note_on_c, 0, 57, 127
2, 48572, Note_off_c, 0, 57, 100
2, 48576, Note_on_c, 0, 62, 127
2, 48636, Note_off_c, 0, 62, 100
2, 48640, Note_on_c, 0, 60, 127
2, 48700, Note_off_c, 0, 60, 100
2, 48704, Note_on_c, 0, 59, 127
2, 48764, Note_off_c, 0, 59, 100
2, 48768, Note_on_c, 0, 57, 127
2, 48828, Note_off_c, 0, 57, 100
2, 48832, Note_on_c, 0, 59, 127
2, 48892, Note_off_c, 0, 59, 100
2, 48896, Note_on_c, 0, 57, 127
2, 48956, Note_off_c, 0, 57, 100
2, 48960, Note_on_c, 0, 55, 127
2, 49020, Note_off_c, 0, 55, 100
2, 49024, Note_on_c, 0, 57, 127
2, 49084, Note_off_c, 0, 57, 100
2, 49088, Note_on_c, 0, 55, 127
2, 49148, Note_off_c, 0, 55, 100
2, 49152, Note_on_c, 0, 54, 127
2, 49212, Note_off_c, 0, 54, 100
2, 49216, Note_on_c, 0, 55, 127
2, 49276, Note_off_c, 0, 55, 100
2, 49280, Note_on_c, 0, 54, 127
2, 49340, Note_off_c, 0, 54, 100
2, 49344, Note_on_c, 0, 52, 127
2, 49404, Note_off_c, 0, 52, 100
2, 49408, Note_on_c, 0, 54, 127
2, 49468, Note_off_c, 0, 54, 100
2, 49472, Note_on_c, 0, 52, 127
2, 49532, Note_off_c, 0, 52, 100
2, 49536, Note_on_c, 0, 50, 127
2, 49596, Note_off_c, 0, 50, 100
2, 49600, Note_on_c, 0, 49, 127
2, 49660, Note_off_c, 0, 49, 100
2, 49664, Note_on_c, 0, 50, 127
2, 49724, Note_off_c, 0, 50, 100
2, 49728, Note_on_c, 0, 55, 127
2, 49788, Note_off_c, 0, 55, 100
2, 49792, Note_on_c, 0, 54, 127
2, 49852, Note_off_c, 0, 54, 100
2, 49856, Note_on_c, 0, 52, 127
2, 49916, Note_off_c, 0, 52, 100
2, 49920, Note_on_c, 0, 50, 127
2, 49980, Note_off_c, 0, 50, 100
2, 49984, Note_on_c, 0, 52, 127
2, 50044, Note_off_c, 0, 52, 100
2, 50048, Note_on_c, 0, 50, 127
2, 50108, Note_off_c, 0, 50, 100
2, 50112, Note_on_c, 0, 48, 127
2, 50172, Note_off_c, 0, 48, 100
2, 50176, Note_on_c, 0, 50, 127
2, 50236, Note_off_c, 0, 50, 100
2, 50240, Note_on_c, 0, 48, 127
2, 50300, Note_off_c, 0, 48, 100
2, 50304, Note_on_c, 0, 47, 127
2, 50364, Note_off_c, 0, 47, 100
2, 50368, Note_on_c, 0, 48, 127
2, 50428, Note_off_c, 0, 48, 100
2, 50432, Note_on_c, 0, 47, 127
2, 50492, Note_off_c, 0, 47, 100
2, 50496, Note_on_c, 0, 45, 127
2, 50556, Note_off_c, 0, 45, 100
2, 50560, Note_on_c, 0, 47, 127
2, 50620, Note_off_c, 0, 47, 100
2, 50624, Note_on_c, 0, 45, 127
2, 50684, Note_off_c, 0, 45, 100
2, 50688, Note_on_c, 0, 43, 127
2, 50748, Note_off_c, 0, 43, 100
2, 50752, Note_on_c, 0, 42, 127
2, 50812, Note_off_c, 0, 42, 100
2, 50816, Note_on_c, 0, 43, 127
2, 50876, Note_off_c, 0, 43, 100
2, 50880, Note_on_c, 0, 48, 127
2, 50940, Note_off_c, 0, 48, 100
2, 50944, Note_on_c, 0, 47, 127
2, 51004, Note_off_c, 0, 47, 100
2, 51008, Note_on_c, 0, 45, 127
2, 51068, Note_off_c, 0, 45, 100
2, 51072, Note_on_c, 0, 43, 127
2, 51132, Note_off_c, 0, 43, 100
2, 51136, Note_on_c, 0, 45, 127
2, 51196, Note_off_c, 0, 45, 100
2, 51200, Note_on_c, 0, 43, 127
2, 51260, Note_off_c, 0, 43, 100
2, 51264, Note_on_c, 0, 41, 127
2, 51324, Note_off_c, 0, 41, 100
2, 51328, Note_on_c, 0, 43, 127
2, 51388, Note_off_c, 0, 43, 100
2, 51392, Note_on_c, 0, 41, 127
2, 51452, Note_off_c, 0, 41, 100
2, 51456, Note_on_c, 0, 40, 127
2, 51516, Note_off_c, 0, 40, 100
2, 51520, Note_on_c, 0, 41, 127
2, 51580, Note_off_c, 0, 41, 100
2, 51584, Note_on_c, 0, 40, 127
2, 51644, Note_off_c, 0, 40, 100
2, 51648, Note_on_c, 0, 38, 127
2, 51708, Note_off_c, 0, 38, 100
2, 51712, Note_on_c, 0, 40, 127
2, 51772, Note_off_c, 0, 40, 100
2, 51776, Note_on_c, 0, 38, 127
2, 51836, Note_off_c, 0, 38, 100
2, 51840, Note_on_c, 0, 36, 127
2, 52028, Note_off_c, 0, 36, 100
2, 52032, Note_on_c, 0, 43, 127
2, 52092, Note_off_c, 0, 43, 100
2, 52096, Note_on_c, 0, 45, 127
2, 52156, Note_off_c, 0, 45, 100
2, 52160, Note_on_c, 0, 47, 127
2, 52220, Note_off_c, 0, 47, 100
2, 52224, Note_on_c, 0, 48, 127
2, 52284, Note_off_c, 0, 48, 100
2, 52288, Note_on_c, 0, 47, 127
2, 52348, Note_off_c, 0, 47, 100
2, 52352, Note_on_c, 0, 48, 127
2, 52412, Note_off_c, 0, 48, 100
2, 52416, Note_on_c, 0, 50, 127
2, 52476, Note_off_c, 0, 50, 100
2, 52480, Note_on_c, 0, 48, 127
2, 52540, Note_off_c, 0, 48, 100
2, 52544, Note_on_c, 0, 50, 127
2, 52604, Note_off_c, 0, 50, 100
2, 52608, Note_on_c, 0, 52, 127
2, 52668, Note_off_c, 0, 52, 100
2, 52672, Note_on_c, 0, 50, 127
2, 52732, Note_off_c, 0, 50, 100
2, 52736, Note_on_c, 0, 48, 127
2, 52796, Note_off_c, 0, 48, 100
2, 52800, Note_on_c, 0, 47, 127
2, 52860, Note_off_c, 0, 47, 100
2, 52864, Note_on_c, 0, 45, 127
2, 52924, Note_off_c, 0, 45, 100
2, 52928, Note_on_c, 0, 43, 127
2, 52988, Note_off_c, 0, 43, 100
2, 52992, Note_on_c, 0, 42, 127
2, 53052, Note_off_c, 0, 42, 100
2, 53056, Note_on_c, 0, 40, 127
2, 53116, Note_off_c, 0, 40, 100
2, 53120, Note_on_c, 0, 42, 127
2, 53180, Note_off_c, 0, 42, 100
2, 53184, Note_on_c, 0, 38, 127
2, 53244, Note_off_c, 0, 38, 100
2, 53248, Note_on_c, 0, 40, 127
2, 53308, Note_off_c, 0, 40, 100
2, 53312, Note_on_c, 0, 42, 127
2, 53372, Note_off_c, 0, 42, 100
2, 53376, Note_on_c, 0, 43, 127
2, 53436, Note_off_c, 0, 43, 100
2, 53440, Note_on_c, 0, 42, 127
2, 53500, Note_off_c, 0, 42, 100
2, 53504, Note_on_c, 0, 43, 127
2, 53564, Note_off_c, 0, 43, 100
2, 53568, Note_on_c, 0, 45, 127
2, 53628, Note_off_c, 0, 45, 100
2, 53632, Note_on_c, 0, 47, 127
2, 53692, Note_off_c, 0, 47, 100
2, 53696, Note_on_c, 0, 48, 127
2, 53756, Note_off_c, 0, 48, 100
2, 53760, Note_on_c, 0, 50, 127
2, 53820, Note_off_c, 0, 50, 100
2, 53824, Note_on_c, 0, 49, 127
2, 53884, Note_off_c, 0, 49, 100
2, 53888, Note_on_c, 0, 50, 127
2, 53948, Note_off_c, 0, 50, 100
2, 53952, Note_on_c, 0, 52, 127
2, 54012, Note_off_c, 0, 52, 100
2, 54016, Note_on_c, 0, 54, 127
2, 54076, Note_off_c, 0, 54, 100
2, 54080, Note_on_c, 0, 50, 127
2, 54140, Note_off_c, 0, 50, 100
2, 54144, Note_on_c, 0, 55, 127
2, 54332, Note_off_c, 0, 55, 100
2, 54592, Note_on_c, 0, 57, 127
2, 54652, Note_off_c, 0, 57, 100
2, 54656, Note_on_c, 0, 55, 127
2, 54716, Note_off_c, 0, 55, 100
2, 54720, Note_on_c, 0, 54, 127
2, 54780, Note_off_c, 0, 54, 100
2, 54784, Note_on_c, 0, 55, 127
2, 54844, Note_off_c, 0, 55, 100
2, 54848, Note_on_c, 0, 50, 127
2, 54908, Note_off_c, 0, 50, 100
2, 54912, Note_on_c, 0, 43, 127
2, 55168, Note_off_c, 0, 43, 100
2, 55296, Note_on_c, 0, 62, 112
2, 55676, Note_off_c, 0, 62, 100
2, 55680, Note_on_c, 0, 60, 112
2, 56060, Note_off_c, 0, 60, 100
2, 56256, Note_on_c, 0, 60, 112
2, 56316, Note_off_c, 0, 60, 100
2, 56448, Note_on_c, 0, 59, 112
2, 56732, Note_off_c, 0, 59, 100
2, 56736, Note_on_c, 0, 62, 112
2, 56828, Note_off_c, 0, 62, 100
2, 56832, Note_on_c, 0, 67, 112
2, 57212, Note_off_c, 0, 67, 100
2, 57408, Note_on_c, 0, 74, 112
2, 57468, Note_off_c, 0, 74, 100
2, 57600, Note_on_c, 0, 73, 112
2, 57980, Note_off_c, 0, 73, 100
2, 57984, Note_on_c, 0, 75, 112
2, 58364, Note_off_c, 0, 75, 100
2, 58560, Note_on_c, 0, 76, 112
2, 58620, Note_off_c, 0, 76, 100
2, 58752, Note_on_c, 0, 75, 112
2, 59132, Note_off_c, 0, 75, 100
2, 59136, Note_on_c, 0, 66, 112
2, 59516, Note_off_c, 0, 66, 100
2, 59712, Note_on_c, 0, 75, 112
2, 59772, Note_off_c, 0, 75, 100
2, 59904, Note_on_c, 0, 76, 112
2, 60284, Note_off_c, 0, 76, 100
2, 60288, Note_on_c, 0, 71, 112
2, 60668, Note_off_c, 0, 71, 100
2, 60864, Note_on_c, 0, 71, 112
2, 60924, Note_off_c, 0, 71, 100
2, 61056, Note_on_c, 0, 69, 112
2, 61340, Note_off_c, 0, 69, 100
2, 61344, Note_on_c, 0, 71, 112
2, 61436, Note_off_c, 0, 71, 100
2, 61440, Note_on_c, 0, 72, 112
2, 61820, Note_off_c, 0, 72, 100
2, 62016, Note_on_c, 0, 72, 112
2, 62076, Note_off_c, 0, 72, 100
2, 62208, Note_on_c, 0, 71, 112
2, 62588, Note_off_c, 0, 71, 100
2, 62592, Note_on_c, 0, 69, 112
2, 62972, Note_off_c, 0, 69, 100
2, 63168, Note_on_c, 0, 69, 112
2, 63228, Note_off_c, 0, 69, 100
2, 63360, Note_on_c, 0, 69, 112
2, 63644, Note_off_c, 0, 69, 100
2, 63648, Note_on_c, 0, 66, 112
2, 63740, Note_off_c, 0, 66, 100
2, 63744, Note_on_c, 0, 67, 112
2, 64124, Note_off_c, 0, 67, 100
2, 64192, Note_on_c, 0, 52, 112
2, 64252, Note_off_c, 0, 52, 100
2, 64256, Note_on_c, 0, 54, 112
2, 64316, Note_off_c, 0, 54, 100
2, 64320, Note_on_c, 0, 55, 112
2, 64380, Note_off_c, 0, 55, 100
2, 64384, Note_on_c, 0, 57, 112
2, 64444, Note_off_c, 0, 57, 100
2, 64448, Note_on_c, 0, 59, 112
2, 64508, Note_off_c, 0, 59, 100
2, 64512, Note_on_c, 0, 60, 112
2, 64572, Note_off_c, 0, 60, 100
2, 64576, Note_on_c, 0, 59, 112
2, 64636, Note_off_c, 0, 59, 100
2, 64640, Note_on_c, 0, 60, 112
2, 64700, Note_off_c, 0, 60, 100
2, 64704, Note_on_c, 0, 65, 112
2, 64764, Note_off_c, 0, 65, 100
2, 64768, Note_on_c, 0, 64, 112
2, 64828, Note_off_c, 0, 64, 100
2, 64832, Note_on_c, 0, 62, 112
2, 64892, Note_off_c, 0, 62, 100
2, 64896, Note_on_c, 0, 60, 112
2, 64956, Note_off_c, 0, 60, 100
2, 64960, Note_on_c, 0, 62, 112
2, 65020, Note_off_c, 0, 62, 100
2, 65024, Note_on_c, 0, 60, 112
2, 65084, Note_off_c, 0, 60, 100
2, 65088, Note_on_c, 0, 59, 112
2, 65148, Note_off_c, 0, 59, 100
2, 65152, Note_on_c, 0, 60, 112
2, 65212, Note_off_c, 0, 60, 100
2, 65216, Note_on_c, 0, 59, 112
2, 65276, Note_off_c, 0, 59, 100
2, 65280, Note_on_c, 0, 57, 112
2, 65340, Note_off_c, 0, 57, 100
2, 65344, Note_on_c, 0, 59, 112
2, 65404, Note_off_c, 0, 59, 100
2, 65408, Note_on_c, 0, 57, 112
2, 65468, Note_off_c, 0, 57, 100
2, 65472, Note_on_c, 0, 55, 112
2, 65532, Note_off_c, 0, 55, 100
2, 65536, Note_on_c, 0, 57, 112
2, 65596, Note_off_c, 0, 57, 100
2, 65600, Note_on_c, 0, 54, 112
2, 65660, Note_off_c, 0, 54, 100
2, 65664, Note_on_c, 0, 59, 112
2, 65724, Note_off_c, 0, 59, 100
2, 65728, Note_on_c, 0, 57, 112
2, 65788, Note_off_c, 0, 57, 100
2, 65792, Note_on_c, 0, 59, 112
2, 65852, Note_off_c, 0, 59, 100
2, 65856, Note_on_c, 0, 64, 112
2, 65916, Note_off_c, 0, 64, 100
2, 65920, Note_on_c, 0, 62, 112
2, 65980, Note_off_c, 0, 62, 100
2, 65984, Note_on_c, 0, 60, 112
2, 66044, Note_off_c, 0, 60, 100
2, 66048, Note_on_c, 0, 59, 112
2, 66108, Note_off_c, 0, 59, 100
2, 66112, Note_on_c, 0, 60, 112
2, 66172, Note_off_c, 0, 60, 100
2, 66176, Note_on_c, 0, 59, 112
2, 66236, Note_off_c, 0, 59, 100
2, 66240, Note_on_c, 0, 57, 112
2, 66300, Note_off_c, 0, 57, 100
2, 66304, Note_on_c, 0, 59, 112
2, 66364, Note_off_c, 0, 59, 100
2, 66368, Note_on_c, 0, 57, 112
2, 66428, Note_off_c, 0, 57, 100
2, 66432, Note_on_c, 0, 55, 112
2, 66492, Note_off_c, 0, 55, 100
2, 66496, Note_on_c, 0, 57, 112
2, 66556, Note_off_c, 0, 57, 100
2, 66560, Note_on_c, 0, 55, 112
2, 66620, Note_off_c, 0, 55, 100
2, 66624, Note_on_c, 0, 54, 112
2, 66684, Note_off_c, 0, 54, 100
2, 66688, Note_on_c, 0, 55, 112
2, 66748, Note_off_c, 0, 55, 100
2, 66752, Note_on_c, 0, 52, 112
2, 66812, Note_off_c, 0, 52, 100
2, 66816, Note_on_c, 0, 57, 112
2, 66876, Note_off_c, 0, 57, 100
2, 66880, Note_on_c, 0, 55, 112
2, 66940, Note_off_c, 0, 55, 100
2, 66944, Note_on_c, 0, 57, 112
2, 67004, Note_off_c, 0, 57, 100
2, 67008, Note_on_c, 0, 62, 112
2, 67068, Note_off_c, 0, 62, 100
2, 67072, Note_on_c, 0, 60, 112
2, 67132, Note_off_c, 0, 60, 100
2, 67136, Note_on_c, 0, 59, 112
2, 67196, Note_off_c, 0, 59, 100
2, 67200, Note_on_c, 0, 57, 112
2, 67260, Note_off_c, 0, 57, 100
2, 67264, Note_on_c, 0, 59, 112
2, 67324, Note_off_c, 0, 59, 100
2, 67328, Note_on_c, 0, 57, 112
2, 67388, Note_off_c, 0, 57, 100
2, 67392, Note_on_c, 0, 55, 112
2, 67452, Note_off_c, 0, 55, 100
2, 67456, Note_on_c, 0, 57, 112
2, 67516, Note_off_c, 0, 57, 100
2, 67520, Note_on_c, 0, 55, 112
2, 67580, Note_off_c, 0, 55, 100
2, 67584, Note_on_c, 0, 54, 112
2, 67644, Note_off_c, 0, 54, 100
2, 67648, Note_on_c, 0, 55, 112
2, 67708, Note_off_c, 0, 55, 100
2, 67712, Note_on_c, 0, 54, 112
2, 67772, Note_off_c, 0, 54, 100
2, 67776, Note_on_c, 0, 52, 112
2, 67836, Note_off_c, 0, 52, 100
2, 67840, Note_on_c, 0, 54, 112
2, 67900, Note_off_c, 0, 54, 100
2, 67904, Note_on_c, 0, 52, 112
2, 67964, Note_off_c, 0, 52, 100
2, 67968, Note_on_c, 0, 50, 112
2, 68028, Note_off_c, 0, 50, 100
2, 68032, Note_on_c, 0, 49, 112
2, 68092, Note_off_c, 0, 49, 100
2, 68096, Note_on_c, 0, 50, 112
2, 68156, Note_off_c, 0, 50, 100
2, 68160, Note_on_c, 0, 55, 112
2, 68220, Note_off_c, 0, 55, 100
2, 68224, Note_on_c, 0, 54, 112
2, 68284, Note_off_c, 0, 54, 100
2, 68288, Note_on_c, 0, 52, 112
2, 68348, Note_off_c, 0, 52, 100
2, 68352, Note_on_c, 0, 50, 112
2, 68412, Note_off_c, 0, 50, 100
2, 68416, Note_on_c, 0, 52, 112
2, 68476, Note_off_c, 0, 52, 100
2, 68480, Note_on_c, 0, 50, 112
2, 68540, Note_off_c, 0, 50, 100
2, 68544, Note_on_c, 0, 48, 112
2, 68604, Note_off_c, 0, 48, 100
2, 68608, Note_on_c, 0, 50, 112
2, 68668, Note_off_c, 0, 50, 100
2, 68672, Note_on_c, 0, 48, 112
2, 68732, Note_off_c, 0, 48, 100
2, 68736, Note_on_c, 0, 47, 112
2, 68796, Note_off_c, 0, 47, 100
2, 68800, Note_on_c, 0, 48, 112
2, 68860, Note_off_c, 0, 48, 100
2, 68864, Note_on_c, 0, 47, 112
2, 68924, Note_off_c, 0, 47, 100
2, 68928, Note_on_c, 0, 45, 112
2, 68988, Note_off_c, 0, 45, 100
2, 68992, Note_on_c, 0, 47, 112
2, 69052, Note_off_c, 0, 47, 100
2, 69056, Note_on_c, 0, 45, 112
2, 69116, Note_off_c, 0, 45, 100
2, 69120, Note_on_c, 0, 43, 112
2, 69180, Note_off_c, 0, 43, 100
2, 69184, Note_on_c, 0, 42, 112
2, 69244, Note_off_c, 0, 42, 100
2, 69248, Note_on_c, 0, 43, 112
2, 69308, Note_off_c, 0, 43, 100
2, 69312, Note_on_c, 0, 48, 112
2, 69372, Note_off_c, 0, 48, 100
2, 69376, Note_on_c, 0, 47, 112
2, 69436, Note_off_c, 0, 47, 100
2, 69440, Note_on_c, 0, 45, 112
2, 69500, Note_off_c, 0, 45, 100
2, 69504, Note_on_c, 0, 43, 112
2, 69564, Note_off_c, 0, 43, 100
2, 69568, Note_on_c, 0, 45, 112
2, 69628, Note_off_c, 0, 45, 100
2, 69632, Note_on_c, 0, 43, 112
2, 69692, Note_off_c, 0, 43, 100
2, 69696, Note_on_c, 0, 41, 112
2, 69756, Note_off_c, 0, 41, 100
2, 69760, Note_on_c, 0, 43, 112
2, 69820, Note_off_c, 0, 43, 100
2, 69824, Note_on_c, 0, 41, 112
2, 69884, Note_off_c, 0, 41, 100
2, 69888, Note_on_c, 0, 40, 112
2, 69948, Note_off_c, 0, 40, 100
2, 69952, Note_on_c, 0, 41, 112
2, 70012, Note_off_c, 0, 41, 100
2, 70016, Note_on_c, 0, 40, 112
2, 70076, Note_off_c, 0, 40, 100
2, 70080, Note_on_c, 0, 38, 112
2, 70140, Note_off_c, 0, 38, 100
2, 70144, Note_on_c, 0, 40, 112
2, 70204, Note_off_c, 0, 40, 100
2, 70208, Note_on_c, 0, 38, 112
2, 70268, Note_off_c, 0, 38, 100
2, 70272, Note_on_c, 0, 36, 112
2, 70460, Note_off_c, 0, 36, 100
2, 70464, Note_on_c, 0, 43, 112
2, 70524, Note_off_c, 0, 43, 100
2, 70528, Note_on_c, 0, 45, 112
2, 70588, Note_off_c, 0, 45, 100
2, 70592, Note_on_c, 0, 47, 112
2, 70652, Note_off_c, 0, 47, 100
2, 70656, Note_on_c, 0, 48, 112
2, 70716, Note_off_c, 0, 48, 100
2, 70720, Note_on_c, 0, 47, 112
2, 70780, Note_off_c, 0, 47, 100
2, 70784, Note_on_c, 0, 48, 112
2, 70844, Note_off_c, 0, 48, 100
2, 70848, Note_on_c, 0, 50, 112
2, 70908, Note_off_c, 0, 50, 100
2, 70912, Note_on_c, 0, 48, 112
2, 70972, Note_off_c, 0, 48, 100
2, 70976, Note_on_c, 0, 50, 112
2, 71036, Note_off_c, 0, 50, 100
2, 71040, Note_on_c, 0, 52, 112
2, 71100, Note_off_c, 0, 52, 100
2, 71104, Note_on_c, 0, 50, 112
2, 71164, Note_off_c, 0, 50, 100
2, 71168, Note_on_c, 0, 48, 112
2, 71228, Note_off_c, 0, 48, 100
2, 71232, Note_on_c, 0, 47, 112
2, 71292, Note_off_c, 0, 47, 100
2, 71296, Note_on_c, 0, 45, 112
2, 71356, Note_off_c, 0, 45, 100
2, 71360, Note_on_c, 0, 43, 112
2, 71420, Note_off_c, 0, 43, 100
2, 71424, Note_on_c, 0, 42, 112
2, 71484, Note_off_c, 0, 42, 100
2, 71488, Note_on_c, 0, 40, 112
2, 71548, Note_off_c, 0, 40, 100
2, 71552, Note_on_c, 0, 42, 112
2, 71612, Note_off_c, 0, 42, 100
2, 71616, Note_on_c, 0, 38, 112
2, 71676, Note_off_c, 0, 38, 100
2, 71680, Note_on_c, 0, 40, 112
2, 71740, Note_off_c, 0, 40, 100
2, 71744, Note_on_c, 0, 42, 112
2, 71804, Note_off_c, 0, 42, 100
2, 71808, Note_on_c, 0, 43, 112
2, 71868, Note_off_c, 0, 43, 100
2, 71872, Note_on_c, 0, 42, 112
2, 71932, Note_off_c, 0, 42, 100
2, 71936, Note_on_c, 0, 43, 112
2, 71996, Note_off_c, 0, 43, 100
2, 72000, Note_on_c, 0, 45, 112
2, 72060, Note_off_c, 0, 45, 100
2, 72064, Note_on_c, 0, 47, 112
2, 72124, Note_off_c, 0, 47, 100
2, 72128, Note_on_c, 0, 48, 112
2, 72188, Note_off_c, 0, 48, 100
2, 72192, Note_on_c, 0, 50, 112
2, 72252, Note_off_c, 0, 50, 100
2, 72256, Note_on_c, 0, 49, 112
2, 72316, Note_off_c, 0, 49, 100
2, 72320, Note_on_c, 0, 50, 112
2, 72380, Note_off_c, 0, 50, 100
2, 72384, Note_on_c, 0, 52, 112
2, 72444, Note_off_c, 0, 52, 100
2, 72448, Note_on_c, 0, 54, 112
2, 72508, Note_off_c, 0, 54, 100
2, 72512, Note_on_c, 0, 50, 112
2, 72572, Note_off_c, 0, 50, 100
2, 72576, Note_on_c, 0, 55, 112
2, 72764, Note_off_c, 0, 55, 100
2, 73024, Note_on_c, 0, 57, 112
2, 73084, Note_off_c, 0, 57, 100
2, 73088, Note_on_c, 0, 55, 112
2, 73148, Note_off_c, 0, 55, 100
2, 73152, Note_on_c, 0, 54, 112
2, 73212, Note_off_c, 0, 54, 100
2, 73216, Note_on_c, 0, 55, 112
2, 73276, Note_off_c, 0, 55, 100
2, 73280, Note_on_c, 0, 50, 112
2, 73340, Note_off_c, 0, 50, 100
2, 73344, Note_on_c, 0, 43, 1
2, 73344, Note_on_c, 0, 43, 112
2, 73724, Note_off_c, 0, 43, 100
2, 74108, Note_off_c, 0, 43, 100
2, 74108, End_track
3, 0, Start_track
3, 0, Title_t, "Goldberg Variations"
3, 0, Control_c, 1, 0, 0
3, 0, Program_c, 1, 6
3, 0, Control_c, 1, 7, 127
3, 0, Control_c, 1, 10, 60
3, 0, Control_c, 1, 91, 127
3, 0, Key_signature, 1, "major"
3, 0, Note_on_c, 1, 71, 127
3, 256, Note_off_c, 1, 71, 100
3, 384, Note_on_c, 1, 71, 127
3, 640, Note_off_c, 1, 71, 100
3, 960, Note_on_c, 1, 71, 127
3, 1020, Note_off_c, 1, 71, 100
3, 1152, Note_on_c, 1, 69, 127
3, 1408, Note_off_c, 1, 69, 100
3, 1536, Note_on_c, 1, 69, 127
3, 1792, Note_off_c, 1, 69, 100
3, 2112, Note_on_c, 1, 74, 127
3, 2172, Note_off_c, 1, 74, 100
3, 2304, Note_on_c, 1, 74, 127
3, 2560, Note_off_c, 1, 74, 100
3, 2656, Note_on_c, 1, 74, 127
3, 2684, Note_off_c, 1, 74, 100
3, 2688, Note_on_c, 1, 73, 127
3, 2716, Note_off_c, 1, 73, 100
3, 2720, Note_on_c, 1, 74, 127
3, 2748, Note_off_c, 1, 74, 100
3, 2752, Note_on_c, 1, 73, 127
3, 3036, Note_off_c, 1, 73, 100
3, 3264, Note_on_c, 1, 67, 127
3, 3324, Note_off_c, 1, 67, 100
3, 3456, Note_on_c, 1, 67, 127
3, 3740, Note_off_c, 1, 67, 100
3, 3744, Note_on_c, 1, 64, 127
3, 3836, Note_off_c, 1, 64, 100
3, 3840, Note_on_c, 1, 66, 127
3, 4220, Note_off_c, 1, 66, 100
3, 4416, Note_on_c, 1, 69, 127
3, 4476, Note_off_c, 1, 69, 100
3, 4608, Note_on_c, 1, 62, 127
3, 4892, Note_off_c, 1, 62, 100
3, 4896, Note_on_c, 1, 64, 127
3, 4988, Note_off_c, 1, 64, 100
3, 4992, Note_on_c, 1, 65, 127
3, 5372, Note_off_c, 1, 65, 100
3, 5568, Note_on_c, 1, 67, 127
3, 5628, Note_off_c, 1, 67, 100
3, 5760, Note_on_c, 1, 67, 127
3, 6044, Note_off_c, 1, 67, 100
3, 6048, Note_on_c, 1, 64, 127
3, 6140, Note_off_c, 1, 64, 100
3, 6144, Note_on_c, 1, 60, 127
3, 6524, Note_off_c, 1, 60, 100
3, 6720, Note_on_c, 1, 64, 127
3, 6780, Note_off_c, 1, 64, 100
3, 6912, Note_on_c, 1, 57, 127
3, 7196, Note_off_c, 1, 57, 100
3, 7200, Note_on_c, 1, 59, 127
3, 7292, Note_off_c, 1, 59, 100
3, 7296, Note_on_c, 1, 60, 127
3, 7676, Note_off_c, 1, 60, 100
3, 7872, Note_on_c, 1, 62, 127
3, 7932, Note_off_c, 1, 62, 100
3, 8064, Note_on_c, 1, 62, 127
3, 8348, Note_off_c, 1, 62, 100
3, 8352, Note_on_c, 1, 59, 127
3, 8444, Note_off_c, 1, 59, 100
3, 8448, Note_on_c, 1, 55, 127
3, 8828, Note_off_c, 1, 55, 100
3, 9216, Note_on_c, 1, 71, 127
3, 9472, Note_off_c, 1, 71, 100
3, 9600, Note_on_c, 1, 71, 127
3, 9856, Note_off_c, 1, 71, 100
3, 10176, Note_on_c, 1, 79, 127
3, 10236, Note_off_c, 1, 79, 100
3, 10368, Note_on_c, 1, 79, 127
3, 10652, Note_off_c, 1, 79, 100
3, 10656, Note_on_c, 1, 76, 127
3, 10748, Note_off_c, 1, 76, 100
3, 10752, Note_on_c, 1, 78, 127
3, 11132, Note_off_c, 1, 78, 100
3, 11328, Note_on_c, 1, 72, 127
3, 11388, Note_off_c, 1, 72, 100
3, 11520, Note_on_c, 1, 71, 127
3, 11804, Note_off_c, 1, 71, 100
3, 11808, Note_on_c, 1, 75, 127
3, 11900, Note_off_c, 1, 75, 100
3, 11904, Note_on_c, 1, 76, 127
3, 12284, Note_off_c, 1, 76, 100
3, 12480, Note_on_c, 1, 76, 127
3, 12540, Note_off_c, 1, 76, 100
3, 12672, Note_on_c, 1, 69, 127
3, 12956, Note_off_c, 1, 69, 100
3, 12960, Note_on_c, 1, 73, 127
3, 13052, Note_off_c, 1, 73, 100
3, 13056, Note_on_c, 1, 64, 127
3, 13436, Note_off_c, 1, 64, 100
3, 13632, Note_on_c, 1, 73, 127
3, 13692, Note_off_c, 1, 73, 100
3, 13824, Note_on_c, 1, 73, 127
3, 14204, Note_off_c, 1, 73, 100
3, 14208, Note_on_c, 1, 74, 127
3, 14588, Note_off_c, 1, 74, 100
3, 14784, Note_on_c, 1, 74, 127
3, 14844, Note_off_c, 1, 74, 100
3, 14976, Note_on_c, 1, 74, 127
3, 15356, Note_off_c, 1, 74, 100
3, 15360, Note_on_c, 1, 74, 127
3, 15740, Note_off_c, 1, 74, 100
3, 16128, Note_on_c, 1, 69, 127
3, 16412, Note_off_c, 1, 69, 100
3, 16416, Note_on_c, 1, 67, 127
3, 16460, Note_off_c, 1, 67, 100
3, 16464, Note_on_c, 1, 66, 127
3, 16508, Note_off_c, 1, 66, 100
3, 16512, Note_on_c, 1, 64, 127
3, 16892, Note_off_c, 1, 64, 100
3, 17088, Note_on_c, 1, 57, 127
3, 17148, Note_off_c, 1, 57, 100
3, 17280, Note_on_c, 1, 62, 127
3, 17660, Note_off_c, 1, 62, 100
3, 17664, Note_on_c, 1, 62, 127
3, 18044, Note_off_c, 1, 62, 100
3, 18432, Note_on_c, 1, 71, 112
3, 18688, Note_off_c, 1, 71, 100
3, 18816, Note_on_c, 1, 71, 112
3, 19072, Note_off_c, 1, 71, 100
3, 19392, Note_on_c, 1, 71, 112
3, 19452, Note_off_c, 1, 71, 100
3, 19584, Note_on_c, 1, 69, 112
3, 19840, Note_off_c, 1, 69, 100
3, 19968, Note_on_c, 1, 69, 112
3, 20224, Note_off_c, 1, 69, 100
3, 20544, Note_on_c, 1, 74, 112
3, 20604, Note_off_c, 1, 74, 100
3, 20736, Note_on_c, 1, 74, 112
3, 20992, Note_off_c, 1, 74, 100
3, 21088, Note_on_c, 1, 74, 112
3, 21116, Note_off_c, 1, 74, 100
3, 21120, Note_on_c, 1, 73, 112
3, 21148, Note_off_c, 1, 73, 100
3, 21152, Note_on_c, 1, 74, 112
3, 21180, Note_off_c, 1, 74, 100
3, 21184, Note_on_c, 1, 73, 112
3, 21468, Note_off_c, 1, 73, 100
3, 21696, Note_on_c, 1, 67, 112
3, 21756, Note_off_c, 1, 67, 100
3, 21888, Note_on_c, 1, 67, 112
3, 22172, Note_off_c, 1, 67, 100
3, 22176, Note_on_c, 1, 64, 112
3, 22268, Note_off_c, 1, 64, 100
3, 22272, Note_on_c, 1, 66, 112
3, 22652, Note_off_c, 1, 66, 100
3, 22848, Note_on_c, 1, 69, 112
3, 22908, Note_off_c, 1, 69, 100
3, 23040, Note_on_c, 1, 62, 112
3, 23324, Note_off_c, 1, 62, 100
3, 23328, Note_on_c, 1, 64, 112
3, 23420, Note_off_c, 1, 64, 100
3, 23424, Note_on_c, 1, 65, 112
3, 23804, Note_off_c, 1, 65, 100
3, 24000, Note_on_c, 1, 67, 112
3, 24060, Note_off_c, 1, 67, 100
3, 24192, Note_on_c, 1, 67, 112
3, 24476, Note_off_c, 1, 67, 100
3, 24480, Note_on_c, 1, 64, 112
3, 24572, Note_off_c, 1, 64, 100
3, 24576, Note_on_c, 1, 60, 112
3, 24956, Note_off_c, 1, 60, 100
3, 25152, Note_on_c, 1, 64, 112
3, 25212, Note_off_c, 1, 64, 100
3, 25344, Note_on_c, 1, 57, 112
3, 25628, Note_off_c, 1, 57, 100
3, 25632, Note_on_c, 1, 59, 112
3, 25724, Note_off_c, 1, 59, 100
3, 25728, Note_on_c, 1, 60, 112
3, 26108, Note_off_c, 1, 60, 100
3, 26304, Note_on_c, 1, 62, 112
3, 26364, Note_off_c, 1, 62, 100
3, 26496, Note_on_c, 1, 62, 112
3, 26780, Note_off_c, 1, 62, 100
3, 26784, Note_on_c, 1, 59, 112
3, 26876, Note_off_c, 1, 59, 100
3, 26880, Note_on_c, 1, 55, 112
3, 27260, Note_off_c, 1, 55, 100
3, 27648, Note_on_c, 1, 71, 112
3, 27904, Note_off_c, 1, 71, 100
3, 28032, Note_on_c, 1, 71, 112
3, 28288, Note_off_c, 1, 71, 100
3, 28608, Note_on_c, 1, 79, 112
3, 28668, Note_off_c, 1, 79, 100
3, 28800, Note_on_c, 1, 79, 112
3, 29084, Note_off_c, 1, 79, 100
3, 29088, Note_on_c, 1, 76, 112
3, 29180, Note_off_c, 1, 76, 100
3, 29184, Note_on_c, 1, 78, 112
3, 29564, Note_off_c, 1, 78, 100
3, 29760, Note_on_c, 1, 72, 112
3, 29820, Note_off_c, 1, 72, 100
3, 29952, Note_on_c, 1, 71, 112
3, 30236, Note_off_c, 1, 71, 100
3, 30240, Note_on_c, 1, 75, 112
3, 30332, Note_off_c, 1, 75, 100
3, 30336, Note_on_c, 1, 76, 112
3, 30716, Note_off_c, 1, 76, 100
3, 30912, Note_on_c, 1, 76, 112
3, 30972, Note_off_c, 1, 76, 100
3, 31104, Note_on_c, 1, 69, 112
3, 31388, Note_off_c, 1, 69, 100
3, 31392, Note_on_c, 1, 73, 112
3, 31484, Note_off_c, 1, 73, 100
3, 31488, Note_on_c, 1, 64, 112
3, 31868, Note_off_c, 1, 64, 100
3, 32064, Note_on_c, 1, 73, 112
3, 32124, Note_off_c, 1, 73, 100
3, 32256, Note_on_c, 1, 73, 112
3, 32636, Note_off_c, 1, 73, 100
3, 32640, Note_on_c, 1, 74, 112
3, 33020, Note_off_c, 1, 74, 100
3, 33216, Note_on_c, 1, 74, 112
3, 33276, Note_off_c, 1, 74, 100
3, 33408, Note_on_c, 1, 74, 112
3, 33788, Note_off_c, 1, 74, 100
3, 33792, Note_on_c, 1, 74, 112
3, 34172, Note_off_c, 1, 74, 100
3, 34560, Note_on_c, 1, 69, 112
3, 34844, Note_off_c, 1, 69, 100
3, 34848, Note_on_c, 1, 67, 112
3, 34892, Note_off_c, 1, 67, 100
3, 34896, Note_on_c, 1, 66, 112
3, 34940, Note_off_c, 1, 66, 100
3, 34944, Note_on_c, 1, 64, 112
3, 35324, Note_off_c, 1, 64, 100
3, 35520, Note_on_c, 1, 57, 112
3, 35580, Note_off_c, 1, 57, 100
3, 35712, Note_on_c, 1, 62, 112
3, 36092, Note_off_c, 1, 62, 100
3, 36096, Note_on_c, 1, 62, 112
3, 36476, Note_off_c, 1, 62, 100
3, 36864, Note_on_c, 1, 66, 127
3, 37148, Note_off_c, 1, 66, 100
3, 37152, Note_on_c, 1, 64, 127
3, 37244, Note_off_c, 1, 64, 100
3, 37248, Note_on_c, 1, 66, 127
3, 37628, Note_off_c, 1, 66, 100
3, 37824, Note_on_c, 1, 62, 127
3, 37884, Note_off_c, 1, 62, 100
3, 38016, Note_on_c, 1, 67, 127
3, 38300, Note_off_c, 1, 67, 100
3, 38304, Note_on_c, 1, 69, 127
3, 38396, Note_off_c, 1, 69, 100
3, 38400, Note_on_c, 1, 71, 127
3, 38780, Note_off_c, 1, 71, 100
3, 38976, Note_on_c, 1, 79, 127
3, 39036, Note_off_c, 1, 79, 100
3, 39168, Note_on_c, 1, 76, 127
3, 39452, Note_off_c, 1, 76, 100
3, 39456, Note_on_c, 1, 83, 127
3, 39548, Note_off_c, 1, 83, 100
3, 39552, Note_on_c, 1, 81, 127
3, 39932, Note_off_c, 1, 81, 100
3, 40128, Note_on_c, 1, 81, 127
3, 40188, Note_off_c, 1, 81, 100
3, 40320, Note_on_c, 1, 81, 127
3, 40604, Note_off_c, 1, 81, 100
3, 40608, Note_on_c, 1, 78, 127
3, 40700, Note_off_c, 1, 78, 100
3, 40704, Note_on_c, 1, 75, 127
3, 41084, Note_off_c, 1, 75, 100
3, 41280, Note_on_c, 1, 78, 127
3, 41340, Note_off_c, 1, 78, 100
3, 41472, Note_on_c, 1, 79, 127
3, 41756, Note_off_c, 1, 79, 100
3, 41760, Note_on_c, 1, 78, 127
3, 41852, Note_off_c, 1, 78, 100
3, 41856, Note_on_c, 1, 76, 127
3, 42236, Note_off_c, 1, 76, 100
3, 42432, Note_on_c, 1, 79, 127
3, 42492, Note_off_c, 1, 79, 100
3, 42624, Note_on_c, 1, 79, 127
3, 43004, Note_off_c, 1, 79, 100
3, 43008, Note_on_c, 1, 77, 127
3, 43388, Note_off_c, 1, 77, 100
3, 43584, Note_on_c, 1, 81, 127
3, 43644, Note_off_c, 1, 81, 100
3, 43776, Note_on_c, 1, 81, 127
3, 44060, Note_off_c, 1, 81, 100
3, 44064, Note_on_c, 1, 78, 127
3, 44156, Note_off_c, 1, 78, 100
3, 44160, Note_on_c, 1, 75, 127
3, 44540, Note_off_c, 1, 75, 100
3, 44736, Note_on_c, 1, 78, 127
3, 44796, Note_off_c, 1, 78, 100
3, 44928, Note_on_c, 1, 78, 127
3, 45212, Note_off_c, 1, 78, 100
3, 45216, Note_on_c, 1, 75, 127
3, 45308, Note_off_c, 1, 75, 100
3, 45312, Note_on_c, 1, 76, 127
3, 45692, Note_off_c, 1, 76, 100
3, 46080, Note_on_c, 1, 64, 127
3, 46268, Note_off_c, 1, 64, 100
3, 46368, Note_on_c, 1, 68, 127
3, 46460, Note_off_c, 1, 68, 100
3, 46464, Note_on_c, 1, 69, 127
3, 46748, Note_off_c, 1, 69, 100
3, 46752, Note_on_c, 1, 71, 127
3, 46844, Note_off_c, 1, 71, 100
3, 46848, Note_on_c, 1, 72, 127
3, 47420, Note_off_c, 1, 72, 100
3, 47520, Note_on_c, 1, 66, 127
3, 47612, Note_off_c, 1, 66, 100
3, 47616, Note_on_c, 1, 67, 127
3, 47900, Note_off_c, 1, 67, 100
3, 47904, Note_on_c, 1, 69, 127
3, 47996, Note_off_c, 1, 69, 100
3, 48000, Note_on_c, 1, 71, 127
3, 48572, Note_off_c, 1, 71, 100
3, 48672, Note_on_c, 1, 64, 127
3, 48764, Note_off_c, 1, 64, 100
3, 48768, Note_on_c, 1, 66, 127
3, 49052, Note_off_c, 1, 66, 100
3, 49056, Note_on_c, 1, 67, 127
3, 49148, Note_off_c, 1, 67, 100
3, 49152, Note_on_c, 1, 69, 127
3, 49436, Note_off_c, 1, 69, 100
3, 49440, Note_on_c, 1, 67, 127
3, 49504, Note_off_c, 1, 67, 100
3, 49536, Note_on_c, 1, 66, 127
3, 49596, Note_off_c, 1, 66, 100
3, 49600, Note_on_c, 1, 67, 127
3, 49660, Note_off_c, 1, 67, 100
3, 49664, Note_on_c, 1, 66, 127
3, 49724, Note_off_c, 1, 66, 100
3, 49728, Note_on_c, 1, 61, 127
3, 49788, Note_off_c, 1, 61, 100
3, 49792, Note_on_c, 1, 62, 127
3, 49852, Note_off_c, 1, 62, 100
3, 49856, Note_on_c, 1, 64, 127
3, 49916, Note_off_c, 1, 64, 100
3, 49920, Note_on_c, 1, 66, 127
3, 49980, Note_off_c, 1, 66, 100
3, 49984, Note_on_c, 1, 64, 127
3, 50044, Note_off_c, 1, 64, 100
3, 50048, Note_on_c, 1, 66, 127
3, 50108, Note_off_c, 1, 66, 100
3, 50112, Note_on_c, 1, 67, 127
3, 50172, Note_off_c, 1, 67, 100
3, 50176, Note_on_c, 1, 66, 127
3, 50236, Note_off_c, 1, 66, 100
3, 50240, Note_on_c, 1, 67, 127
3, 50300, Note_off_c, 1, 67, 100
3, 50304, Note_on_c, 1, 69, 127
3, 50364, Note_off_c, 1, 69, 100
3, 50368, Note_on_c, 1, 67, 127
3, 50428, Note_off_c, 1, 67, 100
3, 50432, Note_on_c, 1, 69, 127
3, 50492, Note_off_c, 1, 69, 100
3, 50496, Note_on_c, 1, 71, 127
3, 50556, Note_off_c, 1, 71, 100
3, 50560, Note_on_c, 1, 67, 127
3, 50620, Note_off_c, 1, 67, 100
3, 50624, Note_on_c, 1, 69, 127
3, 50684, Note_off_c, 1, 69, 100
3, 50688, Note_on_c, 1, 71, 127
3, 50748, Note_off_c, 1, 71, 100
3, 50752, Note_on_c, 1, 72, 127
3, 50812, Note_off_c, 1, 72, 100
3, 50816, Note_on_c, 1, 71, 127
3, 50876, Note_off_c, 1, 71, 100
3, 50880, Note_on_c, 1, 66, 127
3, 50940, Note_off_c, 1, 66, 100
3, 50944, Note_on_c, 1, 67, 127
3, 51004, Note_off_c, 1, 67, 100
3, 51008, Note_on_c, 1, 69, 127
3, 51068, Note_off_c, 1, 69, 100
3, 51072, Note_on_c, 1, 71, 127
3, 51132, Note_off_c, 1, 71, 100
3, 51136, Note_on_c, 1, 69, 127
3, 51196, Note_off_c, 1, 69, 100
3, 51200, Note_on_c, 1, 71, 127
3, 51260, Note_off_c, 1, 71, 100
3, 51264, Note_on_c, 1, 72, 127
3, 51324, Note_off_c, 1, 72, 100
3, 51328, Note_on_c, 1, 71, 127
3, 51388, Note_off_c, 1, 71, 100
3, 51392, Note_on_c, 1, 72, 127
3, 51452, Note_off_c, 1, 72, 100
3, 51456, Note_on_c, 1, 74, 127
3, 51516, Note_off_c, 1, 74, 100
3, 51520, Note_on_c, 1, 72, 127
3, 51580, Note_off_c, 1, 72, 100
3, 51584, Note_on_c, 1, 74, 127
3, 51644, Note_off_c, 1, 74, 100
3, 51648, Note_on_c, 1, 76, 127
3, 51708, Note_off_c, 1, 76, 100
3, 51712, Note_on_c, 1, 72, 127
3, 51772, Note_off_c, 1, 72, 100
3, 51776, Note_on_c, 1, 74, 127
3, 51836, Note_off_c, 1, 74, 100
3, 51840, Note_on_c, 1, 76, 127
3, 51900, Note_off_c, 1, 76, 100
3, 51904, Note_on_c, 1, 77, 127
3, 51964, Note_off_c, 1, 77, 100
3, 51968, Note_on_c, 1, 76, 127
3, 52028, Note_off_c, 1, 76, 100
3, 52032, Note_on_c, 1, 71, 127
3, 52092, Note_off_c, 1, 71, 100
3, 52096, Note_on_c, 1, 72, 127
3, 52156, Note_off_c, 1, 72, 100
3, 52160, Note_on_c, 1, 74, 127
3, 52220, Note_off_c, 1, 74, 100
3, 52224, Note_on_c, 1, 76, 127
3, 52284, Note_off_c, 1, 76, 100
3, 52288, Note_on_c, 1, 74, 127
3, 52348, Note_off_c, 1, 74, 100
3, 52352, Note_on_c, 1, 76, 127
3, 52412, Note_off_c, 1, 76, 100
3, 52416, Note_on_c, 1, 78, 127
3, 52476, Note_off_c, 1, 78, 100
3, 52480, Note_on_c, 1, 76, 127
3, 52540, Note_off_c, 1, 76, 100
3, 52544, Note_on_c, 1, 78, 127
3, 52604, Note_off_c, 1, 78, 100
3, 52608, Note_on_c, 1, 79, 127
3, 52668, Note_off_c, 1, 79, 100
3, 52672, Note_on_c, 1, 78, 127
3, 52732, Note_off_c, 1, 78, 100
3, 52736, Note_on_c, 1, 79, 127
3, 52796, Note_off_c, 1, 79, 100
3, 52800, Note_on_c, 1, 81, 127
3, 52860, Note_off_c, 1, 81, 100
3, 52864, Note_on_c, 1, 78, 127
3, 52924, Note_off_c, 1, 78, 100
3, 52928, Note_on_c, 1, 79, 127
3, 52988, Note_off_c, 1, 79, 100
3, 52992, Note_on_c, 1, 81, 127
3, 53052, Note_off_c, 1, 81, 100
3, 53056, Note_on_c, 1, 83, 127
3, 53116, Note_off_c, 1, 83, 100
3, 53120, Note_on_c, 1, 81, 127
3, 53180, Note_off_c, 1, 81, 100
3, 53184, Note_on_c, 1, 78, 127
3, 53244, Note_off_c, 1, 78, 100
3, 53248, Note_on_c, 1, 79, 127
3, 53308, Note_off_c, 1, 79, 100
3, 53312, Note_on_c, 1, 81, 127
3, 53372, Note_off_c, 1, 81, 100
3, 53376, Note_on_c, 1, 83, 127
3, 53436, Note_off_c, 1, 83, 100
3, 53440, Note_on_c, 1, 81, 127
3, 53500, Note_off_c, 1, 81, 100
3, 53504, Note_on_c, 1, 83, 127
3, 53564, Note_off_c, 1, 83, 100
3, 53568, Note_on_c, 1, 86, 127
3, 53628, Note_off_c, 1, 86, 100
3, 53632, Note_on_c, 1, 84, 127
3, 53692, Note_off_c, 1, 84, 100
3, 53696, Note_on_c, 1, 83, 127
3, 53756, Note_off_c, 1, 83, 100
3, 53760, Note_on_c, 1, 81, 127
3, 53820, Note_off_c, 1, 81, 100
3, 53824, Note_on_c, 1, 79, 127
3, 53884, Note_off_c, 1, 79, 100
3, 53888, Note_on_c, 1, 78, 127
3, 53948, Note_off_c, 1, 78, 100
3, 53952, Note_on_c, 1, 76, 127
3, 54012, Note_off_c, 1, 76, 100
3, 54016, Note_on_c, 1, 74, 127
3, 54076, Note_off_c, 1, 74, 100
3, 54080, Note_on_c, 1, 72, 127
3, 54140, Note_off_c, 1, 72, 100
3, 54144, Note_on_c, 1, 71, 127
3, 54204, Note_off_c, 1, 71, 100
3, 54208, Note_on_c, 1, 69, 127
3, 54268, Note_off_c, 1, 69, 100
3, 54272, Note_on_c, 1, 67, 127
3, 54332, Note_off_c, 1, 67, 100
3, 54336, Note_on_c, 1, 66, 127
3, 54396, Note_off_c, 1, 66, 100
3, 54400, Note_on_c, 1, 67, 127
3, 54460, Note_off_c, 1, 67, 100
3, 54464, Note_on_c, 1, 62, 127
3, 54524, Note_off_c, 1, 62, 100
3, 54528, Note_on_c, 1, 59, 127
3, 54716, Note_off_c, 1, 59, 100
3, 55296, Note_on_c, 1, 66, 127
3, 55580, Note_off_c, 1, 66, 100
3, 55584, Note_on_c, 1, 64, 127
3, 55676, Note_off_c, 1, 64, 100
3, 55680, Note_on_c, 1, 66, 127
3, 56060, Note_off_c, 1, 66, 100
3, 56256, Note_on_c, 1, 62, 127
3, 56316, Note_off_c, 1, 62, 100
3, 56448, Note_on_c, 1, 67, 127
3, 56732, Note_off_c, 1, 67, 100
3, 56736, Note_on_c, 1, 69, 127
3, 56828, Note_off_c, 1, 69, 100
3, 56832, Note_on_c, 1, 71, 127
3, 57212, Note_off_c, 1, 71, 100
3, 57408, Note_on_c, 1, 79, 127
3, 57468, Note_off_c, 1, 79, 100
3, 57600, Note_on_c, 1, 76, 127
3, 57884, Note_off_c, 1, 76, 100
3, 57888, Note_on_c, 1, 83, 127
3, 57980, Note_off_c, 1, 83, 100
3, 57984, Note_on_c, 1, 81, 127
3, 58364, Note_off_c, 1, 81, 100
3, 58560, Note_on_c, 1, 81, 127
3, 58620, Note_off_c, 1, 81, 100
3, 58752, Note_on_c, 1, 81, 127
3, 59036, Note_off_c, 1, 81, 100
3, 59040, Note_on_c, 1, 78, 127
3, 59132, Note_off_c, 1, 78, 100
3, 59136, Note_on_c, 1, 75, 127
3, 59516, Note_off_c, 1, 75, 100
3, 59712, Note_on_c, 1, 78, 127
3, 59772, Note_off_c, 1, 78, 100
3, 59904, Note_on_c, 1, 79, 127
3, 60188, Note_off_c, 1, 79, 100
3, 60192, Note_on_c, 1, 78, 127
3, 60284, Note_off_c, 1, 78, 100
3, 60288, Note_on_c, 1, 76, 127
3, 60668, Note_off_c, 1, 76, 100
3, 60864, Note_on_c, 1, 79, 127
3, 60924, Note_off_c, 1, 79, 100
3, 61056, Note_on_c, 1, 79, 127
3, 61436, Note_off_c, 1, 79, 100
3, 61440, Note_on_c, 1, 77, 127
3, 61820, Note_off_c, 1, 77, 100
3, 62016, Note_on_c, 1, 81, 127
3, 62076, Note_off_c, 1, 81, 100
3, 62208, Note_on_c, 1, 81, 127
3, 62492, Note_off_c, 1, 81, 100
3, 62496, Note_on_c, 1, 78, 127
3, 62588, Note_off_c, 1, 78, 100
3, 62592, Note_on_c, 1, 75, 127
3, 62972, Note_off_c, 1, 75, 100
3, 63168, Note_on_c, 1, 78, 127
3, 63228, Note_off_c, 1, 78, 100
3, 63360, Note_on_c, 1, 78, 127
3, 63644, Note_off_c, 1, 78, 100
3, 63648, Note_on_c, 1, 75, 127
3, 63740, Note_off_c, 1, 75, 100
3, 63744, Note_on_c, 1, 76, 127
3, 64124, Note_off_c, 1, 76, 100
3, 64512, Note_on_c, 1, 64, 127
3, 64700, Note_off_c, 1, 64, 100
3, 64800, Note_on_c, 1, 68, 127
3, 64892, Note_off_c, 1, 68, 100
3, 64896, Note_on_c, 1, 69, 127
3, 65180, Note_off_c, 1, 69, 100
3, 65184, Note_on_c, 1, 71, 127
3, 65276, Note_off_c, 1, 71, 100
3, 65280, Note_on_c, 1, 72, 127
3, 65852, Note_off_c, 1, 72, 100
3, 65952, Note_on_c, 1, 66, 127
3, 66044, Note_off_c, 1, 66, 100
3, 66048, Note_on_c, 1, 67, 127
3, 66332, Note_off_c, 1, 67, 100
3, 66336, Note_on_c, 1, 69, 127
3, 66428, Note_off_c, 1, 69, 100
3, 66432, Note_on_c, 1, 71, 127
3, 67004, Note_off_c, 1, 71, 100
3, 67104, Note_on_c, 1, 64, 127
3, 67196, Note_off_c, 1, 64, 100
3, 67200, Note_on_c, 1, 66, 127
3, 67484, Note_off_c, 1, 66, 100
3, 67488, Note_on_c, 1, 67, 127
3, 67580, Note_off_c, 1, 67, 100
3, 67584, Note_on_c, 1, 69, 127
3, 67868, Note_off_c, 1, 69, 100
3, 67872, Note_on_c, 1, 67, 127
3, 67936, Note_off_c, 1, 67, 100
3, 67968, Note_on_c, 1, 66, 127
3, 68028, Note_off_c, 1, 66, 100
3, 68032, Note_on_c, 1, 67, 127
3, 68092, Note_off_c, 1, 67, 100
3, 68096, Note_on_c, 1, 66, 127
3, 68156, Note_off_c, 1, 66, 100
3, 68160, Note_on_c, 1, 61, 127
3, 68220, Note_off_c, 1, 61, 100
3, 68224, Note_on_c, 1, 62, 127
3, 68284, Note_off_c, 1, 62, 100
3, 68288, Note_on_c, 1, 64, 127
3, 68348, Note_off_c, 1, 64, 100
3, 68352, Note_on_c, 1, 66, 127
3, 68412, Note_off_c, 1, 66, 100
3, 68416, Note_on_c, 1, 64, 127
3, 68476, Note_off_c, 1, 64, 100
3, 68480, Note_on_c, 1, 66, 127
3, 68540, Note_off_c, 1, 66, 100
3, 68544, Note_on_c, 1, 67, 127
3, 68604, Note_off_c, 1, 67, 100
3, 68608, Note_on_c, 1, 66, 127
3, 68668, Note_off_c, 1, 66, 100
3, 68672, Note_on_c, 1, 67, 127
3, 68732, Note_off_c, 1, 67, 100
3, 68736, Note_on_c, 1, 69, 127
3, 68796, Note_off_c, 1, 69, 100
3, 68800, Note_on_c, 1, 67, 127
3, 68860, Note_off_c, 1, 67, 100
3, 68864, Note_on_c, 1, 69, 127
3, 68924, Note_off_c, 1, 69, 100
3, 68928, Note_on_c, 1, 71, 127
3, 68988, Note_off_c, 1, 71, 100
3, 68992, Note_on_c, 1, 67, 127
3, 69052, Note_off_c, 1, 67, 100
3, 69056, Note_on_c, 1, 69, 127
3, 69116, Note_off_c, 1, 69, 100
3, 69120, Note_on_c, 1, 71, 127
3, 69180, Note_off_c, 1, 71, 100
3, 69184, Note_on_c, 1, 72, 127
3, 69244, Note_off_c, 1, 72, 100
3, 69248, Note_on_c, 1, 71, 127
3, 69308, Note_off_c, 1, 71, 100
3, 69312, Note_on_c, 1, 66, 127
3, 69372, Note_off_c, 1, 66, 100
3, 69376, Note_on_c, 1, 67, 127
3, 69436, Note_off_c, 1, 67, 100
3, 69440, Note_on_c, 1, 69, 127
3, 69500, Note_off_c, 1, 69, 100
3, 69504, Note_on_c, 1, 71, 127
3, 69564, Note_off_c, 1, 71, 100
3, 69568, Note_on_c, 1, 69, 127
3, 69628, Note_off_c, 1, 69, 100
3, 69632, Note_on_c, 1, 71, 127
3, 69692, Note_off_c, 1, 71, 100
3, 69696, Note_on_c, 1, 72, 127
3, 69756, Note_off_c, 1, 72, 100
3, 69760, Note_on_c, 1, 71, 127
3, 69820, Note_off_c, 1, 71, 100
3, 69824, Note_on_c, 1, 72, 127
3, 69884, Note_off_c, 1, 72, 100
3, 69888, Note_on_c, 1, 74, 127
3, 69948, Note_off_c, 1, 74, 100
3, 69952, Note_on_c, 1, 72, 127
3, 70012, Note_off_c, 1, 72, 100
3, 70016, Note_on_c, 1, 74, 127
3, 70076, Note_off_c, 1, 74, 100
3, 70080, Note_on_c, 1, 76, 127
3, 70140, Note_off_c, 1, 76, 100
3, 70144, Note_on_c, 1, 72, 127
3, 70204, Note_off_c, 1, 72, 100
3, 70208, Note_on_c, 1, 74, 127
3, 70268, Note_off_c, 1, 74, 100
3, 70272, Note_on_c, 1, 76, 127
3, 70332, Note_off_c, 1, 76, 100
3, 70336, Note_on_c, 1, 77, 127
3, 70396, Note_off_c, 1, 77, 100
3, 70400, Note_on_c, 1, 76, 127
3, 70460, Note_off_c, 1, 76, 100
3, 70464, Note_on_c, 1, 71, 127
3, 70524, Note_off_c, 1, 71, 100
3, 70528, Note_on_c, 1, 72, 127
3, 70588, Note_off_c, 1, 72, 100
3, 70592, Note_on_c, 1, 74, 127
3, 70652, Note_off_c, 1, 74, 100
3, 70656, Note_on_c, 1, 76, 127
3, 70716, Note_off_c, 1, 76, 100
3, 70720, Note_on_c, 1, 74, 127
3, 70780, Note_off_c, 1, 74, 100
3, 70784, Note_on_c, 1, 76, 127
3, 70844, Note_off_c, 1, 76, 100
3, 70848, Note_on_c, 1, 78, 127
3, 70908, Note_off_c, 1, 78, 100
3, 70912, Note_on_c, 1, 76, 127
3, 70972, Note_off_c, 1, 76, 100
3, 70976, Note_on_c, 1, 78, 127
3, 71036, Note_off_c, 1, 78, 100
3, 71040, Note_on_c, 1, 79, 127
3, 71100, Note_off_c, 1, 79, 100
3, 71104, Note_on_c, 1, 78, 127
3, 71164, Note_off_c, 1, 78, 100
3, 71168, Note_on_c, 1, 79, 127
3, 71228, Note_off_c, 1, 79, 100
3, 71232, Note_on_c, 1, 81, 127
3, 71292, Note_off_c, 1, 81, 100
3, 71296, Note_on_c, 1, 78, 127
3, 71356, Note_off_c, 1, 78, 100
3, 71360, Note_on_c, 1, 79, 127
3, 71420, Note_off_c, 1, 79, 100
3, 71424, Note_on_c, 1, 81, 127
3, 71484, Note_off_c, 1, 81, 100
3, 71488, Note_on_c, 1, 83, 127
3, 71548, Note_off_c, 1, 83, 100
3, 71552, Note_on_c, 1, 81, 127
3, 71612, Note_off_c, 1, 81, 100
3, 71616, Note_on_c, 1, 78, 127
3, 71676, Note_off_c, 1, 78, 100
3, 71680, Note_on_c, 1, 79, 127
3, 71740, Note_off_c, 1, 79, 100
3, 71744, Note_on_c, 1, 81, 127
3, 71804, Note_off_c, 1, 81, 100
3, 71808, Note_on_c, 1, 83, 127
3, 71868, Note_off_c, 1, 83, 100
3, 71872, Note_on_c, 1, 81, 127
3, 71932, Note_off_c, 1, 81, 100
3, 71936, Note_on_c, 1, 83, 127
3, 71996, Note_off_c, 1, 83, 100
3, 72000, Note_on_c, 1, 86, 127
3, 72060, Note_off_c, 1, 86, 100
3, 72064, Note_on_c, 1, 84, 127
3, 72124, Note_off_c, 1, 84, 100
3, 72128, Note_on_c, 1, 83, 127
3, 72188, Note_off_c, 1, 83, 100
3, 72192, Note_on_c, 1, 81, 127
3, 72252, Note_off_c, 1, 81, 100
3, 72256, Note_on_c, 1, 79, 127
3, 72316, Note_off_c, 1, 79, 100
3, 72320, Note_on_c, 1, 78, 127
3, 72380, Note_off_c, 1, 78, 100
3, 72384, Note_on_c, 1, 76, 127
3, 72444, Note_off_c, 1, 76, 100
3, 72448, Note_on_c, 1, 74, 127
3, 72508, Note_off_c, 1, 74, 100
3, 72512, Note_on_c, 1, 72, 127
3, 72572, Note_off_c, 1, 72, 100
3, 72576, Note_on_c, 1, 71, 127
3, 72636, Note_off_c, 1, 71, 100
3, 72640, Note_on_c, 1, 69, 127
3, 72700, Note_off_c, 1, 69, 100
3, 72704, Note_on_c, 1, 67, 127
3, 72764, Note_off_c, 1, 67, 100
3, 72768, Note_on_c, 1, 66, 127
3, 72828, Note_off_c, 1, 66, 100
3, 72832, Note_on_c, 1, 67, 127
3, 72892, Note_off_c, 1, 67, 100
3, 72896, Note_on_c, 1, 62, 127
3, 72956, Note_off_c, 1, 62, 100
3, 72960, Note_on_c, 1, 59, 127
3, 73148, Note_off_c, 1, 59, 100
3, 73148, End_track
4, 0, Start_track
4, 0, Title_t, "BWV 988"
4, 0, Control_c, 2, 0, 0
4, 0, Program_c, 2, 6
4, 0, Control_c, 2, 7, 127
4, 0, Control_c, 2, 10, 127
4, 0, Control_c, 2, 91, 127
4, 0, Key_signature, 1, "major"
4, 0, Note_on_c, 2, 67, 127
4, 380, Note_off_c, 2, 67, 100
4, 384, Note_on_c, 2, 62, 127
4, 764, Note_off_c, 2, 62, 100
4, 960, Note_on_c, 2, 67, 127
4, 1020, Note_off_c, 2, 67, 100
4, 1152, Note_on_c, 2, 67, 127
4, 1436, Note_off_c, 2, 67, 100
4, 1440, Note_on_c, 2, 64, 127
4, 1532, Note_off_c, 2, 64, 100
4, 1536, Note_on_c, 2, 66, 127
4, 1916, Note_off_c, 2, 66, 100
4, 2112, Note_on_c, 2, 69, 127
4, 2172, Note_off_c, 2, 69, 100
4, 2304, Note_on_c, 2, 71, 127
4, 2588, Note_off_c, 2, 71, 100
4, 2592, Note_on_c, 2, 67, 127
4, 2684, Note_off_c, 2, 67, 100
4, 2688, Note_on_c, 2, 64, 127
4, 3068, Note_off_c, 2, 64, 100
4, 3264, Note_on_c, 2, 57, 127
4, 3324, Note_off_c, 2, 57, 100
4, 3456, Note_on_c, 2, 62, 127
4, 3836, Note_off_c, 2, 62, 100
4, 3840, Note_on_c, 2, 62, 127
4, 4220, Note_off_c, 2, 62, 100
4, 4416, Note_on_c, 2, 60, 127
4, 4476, Note_off_c, 2, 60, 100
4, 4608, Note_on_c, 2, 59, 127
4, 4892, Note_off_c, 2, 59, 100
4, 4896, Note_on_c, 2, 60, 127
4, 4988, Note_off_c, 2, 60, 100
4, 4992, Note_on_c, 2, 62, 127
4, 5372, Note_off_c, 2, 62, 100
4, 5568, Note_on_c, 2, 55, 127
4, 5628, Note_off_c, 2, 55, 100
4, 5760, Note_on_c, 2, 60, 127
4, 6140, Note_off_c, 2, 60, 100
4, 6144, Note_on_c, 2, 52, 127
4, 6524, Note_off_c, 2, 52, 100
4, 6720, Note_on_c, 2, 55, 127
4, 6780, Note_off_c, 2, 55, 100
4, 6912, Note_on_c, 2, 54, 127
4, 7196, Note_off_c, 2, 54, 100
4, 7200, Note_on_c, 2, 55, 127
4, 7292, Note_off_c, 2, 55, 100
4, 7296, Note_on_c, 2, 57, 127
4, 7676, Note_off_c, 2, 57, 100
4, 7872, Note_on_c, 2, 50, 127
4, 7932, Note_off_c, 2, 50, 100
4, 8064, Note_on_c, 2, 55, 127
4, 8444, Note_off_c, 2, 55, 100
4, 8448, Note_on_c, 2, 43, 127
4, 8828, Note_off_c, 2, 43, 100
4, 9216, Note_on_c, 2, 43, 127
4, 9276, Note_off_c, 2, 43, 100
4, 9280, Note_on_c, 2, 45, 127
4, 9340, Note_off_c, 2, 45, 100
4, 9344, Note_on_c, 2, 43, 127
4, 9404, Note_off_c, 2, 43, 100
4, 9408, Note_on_c, 2, 38, 127
4, 9468, Note_off_c, 2, 38, 100
4, 9472, Note_on_c, 2, 40, 127
4, 9532, Note_off_c, 2, 40, 100
4, 9536, Note_on_c, 2, 42, 127
4, 9596, Note_off_c, 2, 42, 100
4, 9600, Note_on_c, 2, 43, 127
4, 9660, Note_off_c, 2, 43, 100
4, 9664, Note_on_c, 2, 42, 127
4, 9724, Note_off_c, 2, 42, 100
4, 9728, Note_on_c, 2, 43, 127
4, 9788, Note_off_c, 2, 43, 100
4, 9792, Note_on_c, 2, 45, 127
4, 9852, Note_off_c, 2, 45, 100
4, 9856, Note_on_c, 2, 43, 127
4, 9916, Note_off_c, 2, 43, 100
4, 9920, Note_on_c, 2, 45, 127
4, 9980, Note_off_c, 2, 45, 100
4, 9984, Note_on_c, 2, 47, 127
4, 10044, Note_off_c, 2, 47, 100
4, 10048, Note_on_c, 2, 45, 127
4, 10108, Note_off_c, 2, 45, 100
4, 10112, Note_on_c, 2, 47, 127
4, 10172, Note_off_c, 2, 47, 100
4, 10176, Note_on_c, 2, 48, 127
4, 10236, Note_off_c, 2, 48, 100
4, 10240, Note_on_c, 2, 47, 127
4, 10300, Note_off_c, 2, 47, 100
4, 10304, Note_on_c, 2, 49, 127
4, 10364, Note_off_c, 2, 49, 100
4, 10368, Note_on_c, 2, 50, 127
4, 10428, Note_off_c, 2, 50, 100
4, 10432, Note_on_c, 2, 52, 127
4, 10492, Note_off_c, 2, 52, 100
4, 10496, Note_on_c, 2, 50, 127
4, 10556, Note_off_c, 2, 50, 100
4, 10560, Note_on_c, 2, 45, 127
4, 10620, Note_off_c, 2, 45, 100
4, 10624, Note_on_c, 2, 47, 127
4, 10684, Note_off_c, 2, 47, 100
4, 10688, Note_on_c, 2, 49, 127
4, 10748, Note_off_c, 2, 49, 100
4, 10752, Note_on_c, 2, 50, 127
4, 10812, Note_off_c, 2, 50, 100
4, 10816, Note_on_c, 2, 49, 127
4, 10876, Note_off_c, 2, 49, 100
4, 10880, Note_on_c, 2, 50, 127
4, 10940, Note_off_c, 2, 50, 100
4, 10944, Note_on_c, 2, 52, 127
4, 11004, Note_off_c, 2, 52, 100
4, 11008, Note_on_c, 2, 50, 127
4, 11068, Note_off_c, 2, 50, 100
4, 11072, Note_on_c, 2, 52, 127
4, 11132, Note_off_c, 2, 52, 100
4, 11136, Note_on_c, 2, 54, 127
4, 11196, Note_off_c, 2, 54, 100
4, 11200, Note_on_c, 2, 52, 127
4, 11260, Note_off_c, 2, 52, 100
4, 11264, Note_on_c, 2, 54, 127
4, 11324, Note_off_c, 2, 54, 100
4, 11328, Note_on_c, 2, 55, 127
4, 11388, Note_off_c, 2, 55, 100
4, 11392, Note_on_c, 2, 52, 127
4, 11452, Note_off_c, 2, 52, 100
4, 11456, Note_on_c, 2, 54, 127
4, 11516, Note_off_c, 2, 54, 100
4, 11520, Note_on_c, 2, 55, 127
4, 11580, Note_off_c, 2, 55, 100
4, 11584, Note_on_c, 2, 57, 127
4, 11644, Note_off_c, 2, 57, 100
4, 11648, Note_on_c, 2, 55, 127
4, 11708, Note_off_c, 2, 55, 100
4, 11712, Note_on_c, 2, 47, 127
4, 11772, Note_off_c, 2, 47, 100
4, 11776, Note_on_c, 2, 52, 127
4, 11836, Note_off_c, 2, 52, 100
4, 11840, Note_on_c, 2, 54, 127
4, 11900, Note_off_c, 2, 54, 100
4, 11904, Note_on_c, 2, 55, 127
4, 11964, Note_off_c, 2, 55, 100
4, 11968, Note_on_c, 2, 54, 127
4, 12028, Note_off_c, 2, 54, 100
4, 12032, Note_on_c, 2, 55, 127
4, 12092, Note_off_c, 2, 55, 100
4, 12096, Note_on_c, 2, 57, 127
4, 12156, Note_off_c, 2, 57, 100
4, 12160, Note_on_c, 2, 55, 127
4, 12220, Note_off_c, 2, 55, 100
4, 12224, Note_on_c, 2, 57, 127
4, 12284, Note_off_c, 2, 57, 100
4, 12288, Note_on_c, 2, 59, 127
4, 12348, Note_off_c, 2, 59, 100
4, 12352, Note_on_c, 2, 57, 127
4, 12412, Note_off_c, 2, 57, 100
4, 12416, Note_on_c, 2, 59, 127
4, 12476, Note_off_c, 2, 59, 100
4, 12480, Note_on_c, 2, 61, 127
4, 12540, Note_off_c, 2, 61, 100
4, 12544, Note_on_c, 2, 57, 127
4, 12604, Note_off_c, 2, 57, 100
4, 12608, Note_on_c, 2, 59, 127
4, 12668, Note_off_c, 2, 59, 100
4, 12672, Note_on_c, 2, 61, 127
4, 12732, Note_off_c, 2, 61, 100
4, 12736, Note_on_c, 2, 62, 127
4, 12796, Note_off_c, 2, 62, 100
4, 12800, Note_on_c, 2, 61, 127
4, 12860, Note_off_c, 2, 61, 100
4, 12864, Note_on_c, 2, 52, 127
4, 12924, Note_off_c, 2, 52, 100
4, 12928, Note_on_c, 2, 57, 127
4, 12988, Note_off_c, 2, 57, 100
4, 12992, Note_on_c, 2, 59, 127
4, 13052, Note_off_c, 2, 59, 100
4, 13056, Note_on_c, 2, 61, 127
4, 13116, Note_off_c, 2, 61, 100
4, 13120, Note_on_c, 2, 59, 127
4, 13180, Note_off_c, 2, 59, 100
4, 13184, Note_on_c, 2, 61, 127
4, 13244, Note_off_c, 2, 61, 100
4, 13248, Note_on_c, 2, 62, 127
4, 13308, Note_off_c, 2, 62, 100
4, 13312, Note_on_c, 2, 61, 127
4, 13372, Note_off_c, 2, 61, 100
4, 13376, Note_on_c, 2, 62, 127
4, 13436, Note_off_c, 2, 62, 100
4, 13440, Note_on_c, 2, 64, 127
4, 13500, Note_off_c, 2, 64, 100
4, 13504, Note_on_c, 2, 62, 127
4, 13564, Note_off_c, 2, 62, 100
4, 13568, Note_on_c, 2, 64, 127
4, 13628, Note_off_c, 2, 64, 100
4, 13632, Note_on_c, 2, 66, 127
4, 13692, Note_off_c, 2, 66, 100
4, 13696, Note_on_c, 2, 62, 127
4, 13756, Note_off_c, 2, 62, 100
4, 13760, Note_on_c, 2, 64, 127
4, 13820, Note_off_c, 2, 64, 100
4, 13824, Note_on_c, 2, 66, 127
4, 13884, Note_off_c, 2, 66, 100
4, 13888, Note_on_c, 2, 64, 127
4, 13948, Note_off_c, 2, 64, 100
4, 13952, Note_on_c, 2, 66, 127
4, 14012, Note_off_c, 2, 66, 100
4, 14016, Note_on_c, 2, 69, 127
4, 14076, Note_off_c, 2, 69, 100
4, 14080, Note_on_c, 2, 67, 127
4, 14140, Note_off_c, 2, 67, 100
4, 14144, Note_on_c, 2, 69, 127
4, 14204, Note_off_c, 2, 69, 100
4, 14208, Note_on_c, 2, 62, 127
4, 14268, Note_off_c, 2, 62, 100
4, 14272, Note_on_c, 2, 61, 127
4, 14332, Note_off_c, 2, 61, 100
4, 14336, Note_on_c, 2, 62, 127
4, 14396, Note_off_c, 2, 62, 100
4, 14400, Note_on_c, 2, 66, 127
4, 14460, Note_off_c, 2, 66, 100
4, 14464, Note_on_c, 2, 69, 127
4, 14524, Note_off_c, 2, 69, 100
4, 14528, Note_on_c, 2, 71, 127
4, 14588, Note_off_c, 2, 71, 100
4, 14592, Note_on_c, 2, 72, 127
4, 14652, Note_off_c, 2, 72, 100
4, 14656, Note_on_c, 2, 71, 127
4, 14716, Note_off_c, 2, 71, 100
4, 14720, Note_on_c, 2, 72, 127
4, 14780, Note_off_c, 2, 72, 100
4, 14784, Note_on_c, 2, 69, 127
4, 14844, Note_off_c, 2, 69, 100
4, 14848, Note_on_c, 2, 66, 127
4, 14908, Note_off_c, 2, 66, 100
4, 14912, Note_on_c, 2, 69, 127
4, 14972, Note_off_c, 2, 69, 100
4, 14976, Note_on_c, 2, 67, 127
4, 15036, Note_off_c, 2, 67, 100
4, 15040, Note_on_c, 2, 66, 127
4, 15100, Note_off_c, 2, 66, 100
4, 15104, Note_on_c, 2, 67, 127
4, 15164, Note_off_c, 2, 67, 100
4, 15168, Note_on_c, 2, 71, 127
4, 15228, Note_off_c, 2, 71, 100
4, 15232, Note_on_c, 2, 69, 127
4, 15292, Note_off_c, 2, 69, 100
4, 15296, Note_on_c, 2, 71, 127
4, 15356, Note_off_c, 2, 71, 100
4, 15360, Note_on_c, 2, 64, 127
4, 15420, Note_off_c, 2, 64, 100
4, 15424, Note_on_c, 2, 63, 127
4, 15484, Note_off_c, 2, 63, 100
4, 15488, Note_on_c, 2, 64, 127
4, 15548, Note_off_c, 2, 64, 100
4, 15552, Note_on_c, 2, 67, 127
4, 15612, Note_off_c, 2, 67, 100
4, 15616, Note_on_c, 2, 71, 127
4, 15676, Note_off_c, 2, 71, 100
4, 15680, Note_on_c, 2, 73, 127
4, 15740, Note_off_c, 2, 73, 100
4, 15744, Note_on_c, 2, 74, 127
4, 15804, Note_off_c, 2, 74, 100
4, 15808, Note_on_c, 2, 73, 127
4, 15868, Note_off_c, 2, 73, 100
4, 15872, Note_on_c, 2, 74, 127
4, 15932, Note_off_c, 2, 74, 100
4, 15936, Note_on_c, 2, 71, 127
4, 15996, Note_off_c, 2, 71, 100
4, 16000, Note_on_c, 2, 67, 127
4, 16060, Note_off_c, 2, 67, 100
4, 16064, Note_on_c, 2, 71, 127
4, 16124, Note_off_c, 2, 71, 100
4, 16128, Note_on_c, 2, 73, 127
4, 16188, Note_off_c, 2, 73, 100
4, 16192, Note_on_c, 2, 71, 127
4, 16252, Note_off_c, 2, 71, 100
4, 16256, Note_on_c, 2, 73, 127
4, 16316, Note_off_c, 2, 73, 100
4, 16320, Note_on_c, 2, 76, 127
4, 16380, Note_off_c, 2, 76, 100
4, 16384, Note_on_c, 2, 74, 127
4, 16444, Note_off_c, 2, 74, 100
4, 16448, Note_on_c, 2, 76, 127
4, 16508, Note_off_c, 2, 76, 100
4, 16512, Note_on_c, 2, 69, 127
4, 16572, Note_off_c, 2, 69, 100
4, 16576, Note_on_c, 2, 68, 127
4, 16636, Note_off_c, 2, 68, 100
4, 16640, Note_on_c, 2, 69, 127
4, 16700, Note_off_c, 2, 69, 100
4, 16704, Note_on_c, 2, 73, 127
4, 16764, Note_off_c, 2, 73, 100
4, 16768, Note_on_c, 2, 76, 127
4, 16828, Note_off_c, 2, 76, 100
4, 16832, Note_on_c, 2, 78, 127
4, 16892, Note_off_c, 2, 78, 100
4, 16896, Note_on_c, 2, 79, 127
4, 16956, Note_off_c, 2, 79, 100
4, 16960, Note_on_c, 2, 78, 127
4, 17020, Note_off_c, 2, 78, 100
4, 17024, Note_on_c, 2, 79, 127
4, 17084, Note_off_c, 2, 79, 100
4, 17088, Note_on_c, 2, 76, 127
4, 17148, Note_off_c, 2, 76, 100
4, 17152, Note_on_c, 2, 73, 127
4, 17212, Note_off_c, 2, 73, 100
4, 17216, Note_on_c, 2, 76, 127
4, 17276, Note_off_c, 2, 76, 100
4, 17280, Note_on_c, 2, 78, 127
4, 17340, Note_off_c, 2, 78, 100
4, 17344, Note_on_c, 2, 76, 127
4, 17404, Note_off_c, 2, 76, 100
4, 17408, Note_on_c, 2, 78, 127
4, 17468, Note_off_c, 2, 78, 100
4, 17472, Note_on_c, 2, 81, 127
4, 17532, Note_off_c, 2, 81, 100
4, 17536, Note_on_c, 2, 79, 127
4, 17596, Note_off_c, 2, 79, 100
4, 17600, Note_on_c, 2, 81, 127
4, 17660, Note_off_c, 2, 81, 100
4, 17664, Note_on_c, 2, 74, 127
4, 17724, Note_off_c, 2, 74, 100
4, 17728, Note_on_c, 2, 73, 127
4, 17788, Note_off_c, 2, 73, 100
4, 17792, Note_on_c, 2, 74, 127
4, 17852, Note_off_c, 2, 74, 100
4, 17856, Note_on_c, 2, 78, 127
4, 17916, Note_off_c, 2, 78, 100
4, 17920, Note_on_c, 2, 81, 127
4, 17980, Note_off_c, 2, 81, 100
4, 17984, Note_on_c, 2, 85, 127
4, 18044, Note_off_c, 2, 85, 100
4, 18048, Note_on_c, 2, 86, 127
4, 18076, Note_off_c, 2, 86, 100
4, 18080, Note_on_c, 2, 85, 127
4, 18108, Note_off_c, 2, 85, 100
4, 18112, Note_on_c, 2, 86, 127
4, 18336, Note_off_c, 2, 86, 100
4, 18432, Note_on_c, 2, 67, 112
4, 18812, Note_off_c, 2, 67, 100
4, 18816, Note_on_c, 2, 62, 112
4, 19196, Note_off_c, 2, 62, 100
4, 19392, Note_on_c, 2, 67, 112
4, 19452, Note_off_c, 2, 67, 100
4, 19584, Note_on_c, 2, 67, 112
4, 19868, Note_off_c, 2, 67, 100
4, 19872, Note_on_c, 2, 64, 112
4, 19964, Note_off_c, 2, 64, 100
4, 19968, Note_on_c, 2, 66, 112
4, 20348, Note_off_c, 2, 66, 100
4, 20544, Note_on_c, 2, 69, 112
4, 20604, Note_off_c, 2, 69, 100
4, 20736, Note_on_c, 2, 71, 112
4, 21020, Note_off_c, 2, 71, 100
4, 21024, Note_on_c, 2, 67, 112
4, 21116, Note_off_c, 2, 67, 100
4, 21120, Note_on_c, 2, 64, 112
4, 21500, Note_off_c, 2, 64, 100
4, 21696, Note_on_c, 2, 57, 112
4, 21756, Note_off_c, 2, 57, 100
4, 21888, Note_on_c, 2, 62, 112
4, 22268, Note_off_c, 2, 62, 100
4, 22272, Note_on_c, 2, 62, 112
4, 22652, Note_off_c, 2, 62, 100
4, 22848, Note_on_c, 2, 60, 112
4, 22908, Note_off_c, 2, 60, 100
4, 23040, Note_on_c, 2, 59, 112
4, 23324, Note_off_c, 2, 59, 100
4, 23328, Note_on_c, 2, 60, 112
4, 23420, Note_off_c, 2, 60, 100
4, 23424, Note_on_c, 2, 62, 112
4, 23804, Note_off_c, 2, 62, 100
4, 24000, Note_on_c, 2, 55, 112
4, 24060, Note_off_c, 2, 55, 100
4, 24192, Note_on_c, 2, 60, 112
4, 24572, Note_off_c, 2, 60, 100
4, 24576, Note_on_c, 2, 52, 112
4, 24956, Note_off_c, 2, 52, 100
4, 25152, Note_on_c, 2, 55, 112
4, 25212, Note_off_c, 2, 55, 100
4, 25344, Note_on_c, 2, 54, 112
4, 25628, Note_off_c, 2, 54, 100
4, 25632, Note_on_c, 2, 55, 112
4, 25724, Note_off_c, 2, 55, 100
4, 25728, Note_on_c, 2, 57, 112
4, 26108, Note_off_c, 2, 57, 100
4, 26304, Note_on_c, 2, 50, 112
4, 26364, Note_off_c, 2, 50, 100
4, 26496, Note_on_c, 2, 55, 112
4, 26876, Note_off_c, 2, 55, 100
4, 26880, Note_on_c, 2, 43, 112
4, 27260, Note_off_c, 2, 43, 100
4, 27648, Note_on_c, 2, 43, 112
4, 27708, Note_off_c, 2, 43, 100
4, 27712, Note_on_c, 2, 45, 112
4, 27772, Note_off_c, 2, 45, 100
4, 27776, Note_on_c, 2, 43, 112
4, 27836, Note_off_c, 2, 43, 100
4, 27840, Note_on_c, 2, 38, 112
4, 27900, Note_off_c, 2, 38, 100
4, 27904, Note_on_c, 2, 40, 112
4, 27964, Note_off_c, 2, 40, 100
4, 27968, Note_on_c, 2, 42, 112
4, 28028, Note_off_c, 2, 42, 100
4, 28032, Note_on_c, 2, 43, 112
4, 28092, Note_off_c, 2, 43, 100
4, 28096, Note_on_c, 2, 42, 112
4, 28156, Note_off_c, 2, 42, 100
4, 28160, Note_on_c, 2, 43, 112
4, 28220, Note_off_c, 2, 43, 100
4, 28224, Note_on_c, 2, 45, 112
4, 28284, Note_off_c, 2, 45, 100
4, 28288, Note_on_c, 2, 43, 112
4, 28348, Note_off_c, 2, 43, 100
4, 28352, Note_on_c, 2, 45, 112
4, 28412, Note_off_c, 2, 45, 100
4, 28416, Note_on_c, 2, 47, 112
4, 28476, Note_off_c, 2, 47, 100
4, 28480, Note_on_c, 2, 45, 112
4, 28540, Note_off_c, 2, 45, 100
4, 28544, Note_on_c, 2, 47, 112
4, 28604, Note_off_c, 2, 47, 100
4, 28608, Note_on_c, 2, 48, 112
4, 28668, Note_off_c, 2, 48, 100
4, 28672, Note_on_c, 2, 47, 112
4, 28732, Note_off_c, 2, 47, 100
4, 28736, Note_on_c, 2, 49, 112
4, 28796, Note_off_c, 2, 49, 100
4, 28800, Note_on_c, 2, 50, 112
4, 28860, Note_off_c, 2, 50, 100
4, 28864, Note_on_c, 2, 52, 112
4, 28924, Note_off_c, 2, 52, 100
4, 28928, Note_on_c, 2, 50, 112
4, 28988, Note_off_c, 2, 50, 100
4, 28992, Note_on_c, 2, 45, 112
4, 29052, Note_off_c, 2, 45, 100
4, 29056, Note_on_c, 2, 47, 112
4, 29116, Note_off_c, 2, 47, 100
4, 29120, Note_on_c, 2, 49, 112
4, 29180, Note_off_c, 2, 49, 100
4, 29184, Note_on_c, 2, 50, 112
4, 29244, Note_off_c, 2, 50, 100
4, 29248, Note_on_c, 2, 49, 112
4, 29308, Note_off_c, 2, 49, 100
4, 29312, Note_on_c, 2, 50, 112
4, 29372, Note_off_c, 2, 50, 100
4, 29376, Note_on_c, 2, 52, 112
4, 29436, Note_off_c, 2, 52, 100
4, 29440, Note_on_c, 2, 50, 112
4, 29500, Note_off_c, 2, 50, 100
4, 29504, Note_on_c, 2, 52, 112
4, 29564, Note_off_c, 2, 52, 100
4, 29568, Note_on_c, 2, 54, 112
4, 29628, Note_off_c, 2, 54, 100
4, 29632, Note_on_c, 2, 52, 112
4, 29692, Note_off_c, 2, 52, 100
4, 29696, Note_on_c, 2, 54, 112
4, 29756, Note_off_c, 2, 54, 100
4, 29760, Note_on_c, 2, 55, 112
4, 29820, Note_off_c, 2, 55, 100
4, 29824, Note_on_c, 2, 52, 112
4, 29884, Note_off_c, 2, 52, 100
4, 29888, Note_on_c, 2, 54, 112
4, 29948, Note_off_c, 2, 54, 100
4, 29952, Note_on_c, 2, 55, 112
4, 30012, Note_off_c, 2, 55, 100
4, 30016, Note_on_c, 2, 57, 112
4, 30076, Note_off_c, 2, 57, 100
4, 30080, Note_on_c, 2, 55, 112
4, 30140, Note_off_c, 2, 55, 100
4, 30144, Note_on_c, 2, 47, 112
4, 30204, Note_off_c, 2, 47, 100
4, 30208, Note_on_c, 2, 52, 112
4, 30268, Note_off_c, 2, 52, 100
4, 30272, Note_on_c, 2, 54, 112
4, 30332, Note_off_c, 2, 54, 100
4, 30336, Note_on_c, 2, 55, 112
4, 30396, Note_off_c, 2, 55, 100
4, 30400, Note_on_c, 2, 54, 112
4, 30460, Note_off_c, 2, 54, 100
4, 30464, Note_on_c, 2, 55, 112
4, 30524, Note_off_c, 2, 55, 100
4, 30528, Note_on_c, 2, 57, 112
4, 30588, Note_off_c, 2, 57, 100
4, 30592, Note_on_c, 2, 55, 112
4, 30652, Note_off_c, 2, 55, 100
4, 30656, Note_on_c, 2, 57, 112
4, 30716, Note_off_c, 2, 57, 100
4, 30720, Note_on_c, 2, 59, 112
4, 30780, Note_off_c, 2, 59, 100
4, 30784, Note_on_c, 2, 57, 112
4, 30844, Note_off_c, 2, 57, 100
4, 30848, Note_on_c, 2, 59, 112
4, 30908, Note_off_c, 2, 59, 100
4, 30912, Note_on_c, 2, 61, 112
4, 30972, Note_off_c, 2, 61, 100
4, 30976, Note_on_c, 2, 57, 112
4, 31036, Note_off_c, 2, 57, 100
4, 31040, Note_on_c, 2, 59, 112
4, 31100, Note_off_c, 2, 59, 100
4, 31104, Note_on_c, 2, 61, 112
4, 31164, Note_off_c, 2, 61, 100
4, 31168, Note_on_c, 2, 62, 112
4, 31228, Note_off_c, 2, 62, 100
4, 31232, Note_on_c, 2, 61, 112
4, 31292, Note_off_c, 2, 61, 100
4, 31296, Note_on_c, 2, 52, 112
4, 31356, Note_off_c, 2, 52, 100
4, 31360, Note_on_c, 2, 57, 112
4, 31420, Note_off_c, 2, 57, 100
4, 31424, Note_on_c, 2, 59, 112
4, 31484, Note_off_c, 2, 59, 100
4, 31488, Note_on_c, 2, 61, 112
4, 31548, Note_off_c, 2, 61, 100
4, 31552, Note_on_c, 2, 59, 112
4, 31612, Note_off_c, 2, 59, 100
4, 31616, Note_on_c, 2, 61, 112
4, 31676, Note_off_c, 2, 61, 100
4, 31680, Note_on_c, 2, 62, 112
4, 31740, Note_off_c, 2, 62, 100
4, 31744, Note_on_c, 2, 61, 112
4, 31804, Note_off_c, 2, 61, 100
4, 31808, Note_on_c, 2, 62, 112
4, 31868, Note_off_c, 2, 62, 100
4, 31872, Note_on_c, 2, 64, 112
4, 31932, Note_off_c, 2, 64, 100
4, 31936, Note_on_c, 2, 62, 112
4, 31996, Note_off_c, 2, 62, 100
4, 32000, Note_on_c, 2, 64, 112
4, 32060, Note_off_c, 2, 64, 100
4, 32064, Note_on_c, 2, 66, 112
4, 32124, Note_off_c, 2, 66, 100
4, 32128, Note_on_c, 2, 62, 112
4, 32188, Note_off_c, 2, 62, 100
4, 32192, Note_on_c, 2, 64, 112
4, 32252, Note_off_c, 2, 64, 100
4, 32256, Note_on_c, 2, 66, 112
4, 32316, Note_off_c, 2, 66, 100
4, 32320, Note_on_c, 2, 64, 112
4, 32380, Note_off_c, 2, 64, 100
4, 32384, Note_on_c, 2, 66, 112
4, 32444, Note_off_c, 2, 66, 100
4, 32448, Note_on_c, 2, 69, 112
4, 32508, Note_off_c, 2, 69, 100
4, 32512, Note_on_c, 2, 67, 112
4, 32572, Note_off_c, 2, 67, 100
4, 32576, Note_on_c, 2, 69, 112
4, 32636, Note_off_c, 2, 69, 100
4, 32640, Note_on_c, 2, 62, 112
4, 32700, Note_off_c, 2, 62, 100
4, 32704, Note_on_c, 2, 61, 112
4, 32764, Note_off_c, 2, 61, 100
4, 32768, Note_on_c, 2, 62, 112
4, 32828, Note_off_c, 2, 62, 100
4, 32832, Note_on_c, 2, 66, 112
4, 32892, Note_off_c, 2, 66, 100
4, 32896, Note_on_c, 2, 69, 112
4, 32956, Note_off_c, 2, 69, 100
4, 32960, Note_on_c, 2, 71, 112
4, 33020, Note_off_c, 2, 71, 100
4, 33024, Note_on_c, 2, 72, 112
4, 33084, Note_off_c, 2, 72, 100
4, 33088, Note_on_c, 2, 71, 112
4, 33148, Note_off_c, 2, 71, 100
4, 33152, Note_on_c, 2, 72, 112
4, 33212, Note_off_c, 2, 72, 100
4, 33216, Note_on_c, 2, 69, 112
4, 33276, Note_off_c, 2, 69, 100
4, 33280, Note_on_c, 2, 66, 112
4, 33340, Note_off_c, 2, 66, 100
4, 33344, Note_on_c, 2, 69, 112
4, 33404, Note_off_c, 2, 69, 100
4, 33408, Note_on_c, 2, 67, 112
4, 33468, Note_off_c, 2, 67, 100
4, 33472, Note_on_c, 2, 66, 112
4, 33532, Note_off_c, 2, 66, 100
4, 33536, Note_on_c, 2, 67, 112
4, 33596, Note_off_c, 2, 67, 100
4, 33600, Note_on_c, 2, 71, 112
4, 33660, Note_off_c, 2, 71, 100
4, 33664, Note_on_c, 2, 69, 112
4, 33724, Note_off_c, 2, 69, 100
4, 33728, Note_on_c, 2, 71, 112
4, 33788, Note_off_c, 2, 71, 100
4, 33792, Note_on_c, 2, 64, 112
4, 33852, Note_off_c, 2, 64, 100
4, 33856, Note_on_c, 2, 63, 112
4, 33916, Note_off_c, 2, 63, 100
4, 33920, Note_on_c, 2, 64, 112
4, 33980, Note_off_c, 2, 64, 100
4, 33984, Note_on_c, 2, 67, 112
4, 34044, Note_off_c, 2, 67, 100
4, 34048, Note_on_c, 2, 71, 112
4, 34108, Note_off_c, 2, 71, 100
4, 34112, Note_on_c, 2, 73, 112
4, 34172, Note_off_c, 2, 73, 100
4, 34176, Note_on_c, 2, 74, 112
4, 34236, Note_off_c, 2, 74, 100
4, 34240, Note_on_c, 2, 73, 112
4, 34300, Note_off_c, 2, 73, 100
4, 34304, Note_on_c, 2, 74, 112
4, 34364, Note_off_c, 2, 74, 100
4, 34368, Note_on_c, 2, 71, 112
4, 34428, Note_off_c, 2, 71, 100
4, 34432, Note_on_c, 2, 67, 112
4, 34492, Note_off_c, 2, 67, 100
4, 34496, Note_on_c, 2, 71, 112
4, 34556, Note_off_c, 2, 71, 100
4, 34560, Note_on_c, 2, 73, 112
4, 34620, Note_off_c, 2, 73, 100
4, 34624, Note_on_c, 2, 71, 112
4, 34684, Note_off_c, 2, 71, 100
4, 34688, Note_on_c, 2, 73, 112
4, 34748, Note_off_c, 2, 73, 100
4, 34752, Note_on_c, 2, 76, 112
4, 34812, Note_off_c, 2, 76, 100
4, 34816, Note_on_c, 2, 74, 112
4, 34876, Note_off_c, 2, 74, 100
4, 34880, Note_on_c, 2, 76, 112
4, 34940, Note_off_c, 2, 76, 100
4, 34944, Note_on_c, 2, 69, 112
4, 35004, Note_off_c, 2, 69, 100
4, 35008, Note_on_c, 2, 68, 112
4, 35068, Note_off_c, 2, 68, 100
4, 35072, Note_on_c, 2, 69, 112
4, 35132, Note_off_c, 2, 69, 100
4, 35136, Note_on_c, 2, 73, 112
4, 35196, Note_off_c, 2, 73, 100
4, 35200, Note_on_c, 2, 76, 112
4, 35260, Note_off_c, 2, 76, 100
4, 35264, Note_on_c, 2, 78, 112
4, 35324, Note_off_c, 2, 78, 100
4, 35328, Note_on_c, 2, 79, 112
4, 35388, Note_off_c, 2, 79, 100
4, 35392, Note_on_c, 2, 78, 112
4, 35452, Note_off_c, 2, 78, 100
4, 35456, Note_on_c, 2, 79, 112
4, 35516, Note_off_c, 2, 79, 100
4, 35520, Note_on_c, 2, 76, 112
4, 35580, Note_off_c, 2, 76, 100
4, 35584, Note_on_c, 2, 73, 112
4, 35644, Note_off_c, 2, 73, 100
4, 35648, Note_on_c, 2, 76, 112
4, 35708, Note_off_c, 2, 76, 100
4, 35712, Note_on_c, 2, 78, 112
4, 35772, Note_off_c, 2, 78, 100
4, 35776, Note_on_c, 2, 76, 112
4, 35836, Note_off_c, 2, 76, 100
4, 35840, Note_on_c, 2, 78, 112
4, 35900, Note_off_c, 2, 78, 100
4, 35904, Note_on_c, 2, 81, 112
4, 35964, Note_off_c, 2, 81, 100
4, 35968, Note_on_c, 2, 79, 112
4, 36028, Note_off_c, 2, 79, 100
4, 36032, Note_on_c, 2, 81, 112
4, 36092, Note_off_c, 2, 81, 100
4, 36096, Note_on_c, 2, 74, 112
4, 36156, Note_off_c, 2, 74, 100
4, 36160, Note_on_c, 2, 73, 112
4, 36220, Note_off_c, 2, 73, 100
4, 36224, Note_on_c, 2, 74, 112
4, 36284, Note_off_c, 2, 74, 100
4, 36288, Note_on_c, 2, 78, 112
4, 36348, Note_off_c, 2, 78, 100
4, 36352, Note_on_c, 2, 81, 112
4, 36412, Note_off_c, 2, 81, 100
4, 36416, Note_on_c, 2, 85, 112
4, 36476, Note_off_c, 2, 85, 100
4, 36480, Note_on_c, 2, 86, 112
4, 36508, Note_off_c, 2, 86, 100
4, 36512, Note_on_c, 2, 85, 112
4, 36540, Note_off_c, 2, 85, 100
4, 36544, Note_on_c, 2, 86, 112
4, 36768, Note_off_c, 2, 86, 100
4, 36864, Note_on_c, 2, 81, 127
4, 36924, Note_off_c, 2, 81, 100
4, 36928, Note_on_c, 2, 79, 127
4, 36988, Note_off_c, 2, 79, 100
4, 36992, Note_on_c, 2, 81, 127
4, 37052, Note_off_c, 2, 81, 100
4, 37056, Note_on_c, 2, 86, 127
4, 37116, Note_off_c, 2, 86, 100
4, 37120, Note_on_c, 2, 84, 127
4, 37180, Note_off_c, 2, 84, 100
4, 37184, Note_on_c, 2, 83, 127
4, 37244, Note_off_c, 2, 83, 100
4, 37248, Note_on_c, 2, 81, 127
4, 37308, Note_off_c, 2, 81, 100
4, 37312, Note_on_c, 2, 83, 127
4, 37372, Note_off_c, 2, 83, 100
4, 37376, Note_on_c, 2, 81, 127
4, 37436, Note_off_c, 2, 81, 100
4, 37440, Note_on_c, 2, 79, 127
4, 37500, Note_off_c, 2, 79, 100
4, 37504, Note_on_c, 2, 81, 127
4, 37564, Note_off_c, 2, 81, 100
4, 37568, Note_on_c, 2, 79, 127
4, 37628, Note_off_c, 2, 79, 100
4, 37632, Note_on_c, 2, 78, 127
4, 37692, Note_off_c, 2, 78, 100
4, 37696, Note_on_c, 2, 79, 127
4, 37756, Note_off_c, 2, 79, 100
4, 37760, Note_on_c, 2, 78, 127
4, 37820, Note_off_c, 2, 78, 100
4, 37824, Note_on_c, 2, 76, 127
4, 37884, Note_off_c, 2, 76, 100
4, 37888, Note_on_c, 2, 78, 127
4, 37948, Note_off_c, 2, 78, 100
4, 37952, Note_on_c, 2, 76, 127
4, 38012, Note_off_c, 2, 76, 100
4, 38016, Note_on_c, 2, 74, 127
4, 38076, Note_off_c, 2, 74, 100
4, 38080, Note_on_c, 2, 72, 127
4, 38140, Note_off_c, 2, 72, 100
4, 38144, Note_on_c, 2, 74, 127
4, 38204, Note_off_c, 2, 74, 100
4, 38208, Note_on_c, 2, 79, 127
4, 38268, Note_off_c, 2, 79, 100
4, 38272, Note_on_c, 2, 78, 127
4, 38332, Note_off_c, 2, 78, 100
4, 38336, Note_on_c, 2, 76, 127
4, 38396, Note_off_c, 2, 76, 100
4, 38400, Note_on_c, 2, 74, 127
4, 38460, Note_off_c, 2, 74, 100
4, 38464, Note_on_c, 2, 76, 127
4, 38524, Note_off_c, 2, 76, 100
4, 38528, Note_on_c, 2, 74, 127
4, 38588, Note_off_c, 2, 74, 100
4, 38592, Note_on_c, 2, 72, 127
4, 38652, Note_off_c, 2, 72, 100
4, 38656, Note_on_c, 2, 74, 127
4, 38716, Note_off_c, 2, 74, 100
4, 38720, Note_on_c, 2, 72, 127
4, 38780, Note_off_c, 2, 72, 100
4, 38784, Note_on_c, 2, 71, 127
4, 38844, Note_off_c, 2, 71, 100
4, 38848, Note_on_c, 2, 72, 127
4, 38908, Note_off_c, 2, 72, 100
4, 38912, Note_on_c, 2, 71, 127
4, 38972, Note_off_c, 2, 71, 100
4, 38976, Note_on_c, 2, 69, 127
4, 39036, Note_off_c, 2, 69, 100
4, 39040, Note_on_c, 2, 71, 127
4, 39100, Note_off_c, 2, 71, 100
4, 39104, Note_on_c, 2, 69, 127
4, 39164, Note_off_c, 2, 69, 100
4, 39168, Note_on_c, 2, 67, 127
4, 39228, Note_off_c, 2, 67, 100
4, 39232, Note_on_c, 2, 66, 127
4, 39292, Note_off_c, 2, 66, 100
4, 39296, Note_on_c, 2, 67, 127
4, 39356, Note_off_c, 2, 67, 100
4, 39360, Note_on_c, 2, 71, 127
4, 39420, Note_off_c, 2, 71, 100
4, 39424, Note_on_c, 2, 69, 127
4, 39484, Note_off_c, 2, 69, 100
4, 39488, Note_on_c, 2, 67, 127
4, 39548, Note_off_c, 2, 67, 100
4, 39552, Note_on_c, 2, 66, 127
4, 39612, Note_off_c, 2, 66, 100
4, 39616, Note_on_c, 2, 67, 127
4, 39676, Note_off_c, 2, 67, 100
4, 39680, Note_on_c, 2, 66, 127
4, 39740, Note_off_c, 2, 66, 100
4, 39744, Note_on_c, 2, 64, 127
4, 39804, Note_off_c, 2, 64, 100
4, 39808, Note_on_c, 2, 66, 127
4, 39868, Note_off_c, 2, 66, 100
4, 39872, Note_on_c, 2, 64, 127
4, 39932, Note_off_c, 2, 64, 100
4, 39936, Note_on_c, 2, 63, 127
4, 39996, Note_off_c, 2, 63, 100
4, 40000, Note_on_c, 2, 64, 127
4, 40060, Note_off_c, 2, 64, 100
4, 40064, Note_on_c, 2, 63, 127
4, 40124, Note_off_c, 2, 63, 100
4, 40128, Note_on_c, 2, 61, 127
4, 40188, Note_off_c, 2, 61, 100
4, 40192, Note_on_c, 2, 63, 127
4, 40252, Note_off_c, 2, 63, 100
4, 40256, Note_on_c, 2, 61, 127
4, 40316, Note_off_c, 2, 61, 100
4, 40320, Note_on_c, 2, 59, 127
4, 40380, Note_off_c, 2, 59, 100
4, 40384, Note_on_c, 2, 58, 127
4, 40444, Note_off_c, 2, 58, 100
4, 40448, Note_on_c, 2, 59, 127
4, 40508, Note_off_c, 2, 59, 100
4, 40512, Note_on_c, 2, 64, 127
4, 40572, Note_off_c, 2, 64, 100
4, 40576, Note_on_c, 2, 63, 127
4, 40636, Note_off_c, 2, 63, 100
4, 40640, Note_on_c, 2, 61, 127
4, 40700, Note_off_c, 2, 61, 100
4, 40704, Note_on_c, 2, 59, 127
4, 40764, Note_off_c, 2, 59, 100
4, 40768, Note_on_c, 2, 60, 127
4, 40828, Note_off_c, 2, 60, 100
4, 40832, Note_on_c, 2, 59, 127
4, 40892, Note_off_c, 2, 59, 100
4, 40896, Note_on_c, 2, 57, 127
4, 40956, Note_off_c, 2, 57, 100
4, 40960, Note_on_c, 2, 59, 127
4, 41020, Note_off_c, 2, 59, 100
4, 41024, Note_on_c, 2, 57, 127
4, 41084, Note_off_c, 2, 57, 100
4, 41088, Note_on_c, 2, 55, 127
4, 41148, Note_off_c, 2, 55, 100
4, 41152, Note_on_c, 2, 57, 127
4, 41212, Note_off_c, 2, 57, 100
4, 41216, Note_on_c, 2, 55, 127
4, 41276, Note_off_c, 2, 55, 100
4, 41280, Note_on_c, 2, 54, 127
4, 41340, Note_off_c, 2, 54, 100
4, 41344, Note_on_c, 2, 55, 127
4, 41404, Note_off_c, 2, 55, 100
4, 41408, Note_on_c, 2, 54, 127
4, 41468, Note_off_c, 2, 54, 100
4, 41472, Note_on_c, 2, 52, 127
4, 41532, Note_off_c, 2, 52, 100
4, 41536, Note_on_c, 2, 51, 127
4, 41596, Note_off_c, 2, 51, 100
4, 41600, Note_on_c, 2, 52, 127
4, 41660, Note_off_c, 2, 52, 100
4, 41664, Note_on_c, 2, 59, 127
4, 41724, Note_off_c, 2, 59, 100
4, 41728, Note_on_c, 2, 57, 127
4, 41788, Note_off_c, 2, 57, 100
4, 41792, Note_on_c, 2, 59, 127
4, 41852, Note_off_c, 2, 59, 100
4, 41856, Note_on_c, 2, 55, 127
4, 41916, Note_off_c, 2, 55, 100
4, 41920, Note_on_c, 2, 54, 127
4, 41980, Note_off_c, 2, 54, 100
4, 41984, Note_on_c, 2, 55, 127
4, 42044, Note_off_c, 2, 55, 100
4, 42048, Note_on_c, 2, 59, 127
4, 42108, Note_off_c, 2, 59, 100
4, 42112, Note_on_c, 2, 64, 127
4, 42172, Note_off_c, 2, 64, 100
4, 42176, Note_on_c, 2, 66, 127
4, 42236, Note_off_c, 2, 66, 100
4, 42240, Note_on_c, 2, 67, 127
4, 42300, Note_off_c, 2, 67, 100
4, 42304, Note_on_c, 2, 66, 127
4, 42364, Note_off_c, 2, 66, 100
4, 42368, Note_on_c, 2, 67, 127
4, 42428, Note_off_c, 2, 67, 100
4, 42432, Note_on_c, 2, 64, 127
4, 42492, Note_off_c, 2, 64, 100
4, 42496, Note_on_c, 2, 63, 127
4, 42556, Note_off_c, 2, 63, 100
4, 42560, Note_on_c, 2, 64, 127
4, 42620, Note_off_c, 2, 64, 100
4, 42624, Note_on_c, 2, 60, 127
4, 42684, Note_off_c, 2, 60, 100
4, 42688, Note_on_c, 2, 59, 127
4, 42748, Note_off_c, 2, 59, 100
4, 42752, Note_on_c, 2, 60, 127
4, 42812, Note_off_c, 2, 60, 100
4, 42816, Note_on_c, 2, 64, 127
4, 42876, Note_off_c, 2, 64, 100
4, 42880, Note_on_c, 2, 62, 127
4, 42940, Note_off_c, 2, 62, 100
4, 42944, Note_on_c, 2, 64, 127
4, 43004, Note_off_c, 2, 64, 100
4, 43008, Note_on_c, 2, 57, 127
4, 43068, Note_off_c, 2, 57, 100
4, 43072, Note_on_c, 2, 56, 127
4, 43132, Note_off_c, 2, 56, 100
4, 43136, Note_on_c, 2, 57, 127
4, 43196, Note_off_c, 2, 57, 100
4, 43200, Note_on_c, 2, 60, 127
4, 43260, Note_off_c, 2, 60, 100
4, 43264, Note_on_c, 2, 65, 127
4, 43324, Note_off_c, 2, 65, 100
4, 43328, Note_on_c, 2, 69, 127
4, 43388, Note_off_c, 2, 69, 100
4, 43392, Note_on_c, 2, 72, 127
4, 43452, Note_off_c, 2, 72, 100
4, 43456, Note_on_c, 2, 71, 127
4, 43516, Note_off_c, 2, 71, 100
4, 43520, Note_on_c, 2, 72, 127
4, 43580, Note_off_c, 2, 72, 100
4, 43584, Note_on_c, 2, 69, 127
4, 43644, Note_off_c, 2, 69, 100
4, 43648, Note_on_c, 2, 65, 127
4, 43708, Note_off_c, 2, 65, 100
4, 43712, Note_on_c, 2, 69, 127
4, 43772, Note_off_c, 2, 69, 100
4, 43776, Note_on_c, 2, 63, 127
4, 43836, Note_off_c, 2, 63, 100
4, 43840, Note_on_c, 2, 61, 127
4, 43900, Note_off_c, 2, 61, 100
4, 43904, Note_on_c, 2, 63, 127
4, 43964, Note_off_c, 2, 63, 100
4, 43968, Note_on_c, 2, 66, 127
4, 44028, Note_off_c, 2, 66, 100
4, 44032, Note_on_c, 2, 64, 127
4, 44092, Note_off_c, 2, 64, 100
4, 44096, Note_on_c, 2, 66, 127
4, 44156, Note_off_c, 2, 66, 100
4, 44160, Note_on_c, 2, 59, 127
4, 44220, Note_off_c, 2, 59, 100
4, 44224, Note_on_c, 2, 58, 127
4, 44284, Note_off_c, 2, 58, 100
4, 44288, Note_on_c, 2, 59, 127
4, 44348, Note_off_c, 2, 59, 100
4, 44352, Note_on_c, 2, 63, 127
4, 44412, Note_off_c, 2, 63, 100
4, 44416, Note_on_c, 2, 66, 127
4, 44476, Note_off_c, 2, 66, 100
4, 44480, Note_on_c, 2, 67, 127
4, 44540, Note_off_c, 2, 67, 100
4, 44544, Note_on_c, 2, 69, 127
4, 44604, Note_off_c, 2, 69, 100
4, 44608, Note_on_c, 2, 67, 127
4, 44668, Note_off_c, 2, 67, 100
4, 44672, Note_on_c, 2, 69, 127
4, 44732, Note_off_c, 2, 69, 100
4, 44736, Note_on_c, 2, 66, 127
4, 44796, Note_off_c, 2, 66, 100
4, 44800, Note_on_c, 2, 63, 127
4, 44860, Note_off_c, 2, 63, 100
4, 44864, Note_on_c, 2, 66, 127
4, 44924, Note_off_c, 2, 66, 100
4, 44928, Note_on_c, 2, 67, 127
4, 44988, Note_off_c, 2, 67, 100
4, 44992, Note_on_c, 2, 66, 127
4, 45052, Note_off_c, 2, 66, 100
4, 45056, Note_on_c, 2, 67, 127
4, 45116, Note_off_c, 2, 67, 100
4, 45120, Note_on_c, 2, 71, 127
4, 45180, Note_off_c, 2, 71, 100
4, 45184, Note_on_c, 2, 69, 127
4, 45244, Note_off_c, 2, 69, 100
4, 45248, Note_on_c, 2, 71, 127
4, 45308, Note_off_c, 2, 71, 100
4, 45312, Note_on_c, 2, 64, 127
4, 45372, Note_off_c, 2, 64, 100
4, 45376, Note_on_c, 2, 63, 127
4, 45436, Note_off_c, 2, 63, 100
4, 45440, Note_on_c, 2, 64, 127
4, 45500, Note_off_c, 2, 64, 100
4, 45504, Note_on_c, 2, 67, 127
4, 45564, Note_off_c, 2, 67, 100
4, 45568, Note_on_c, 2, 71, 127
4, 45628, Note_off_c, 2, 71, 100
4, 45632, Note_on_c, 2, 75, 127
4, 45692, Note_off_c, 2, 75, 100
4, 45696, Note_on_c, 2, 76, 127
4, 45756, Note_off_c, 2, 76, 100
4, 45760, Note_on_c, 2, 72, 127
4, 45820, Note_off_c, 2, 72, 100
4, 45824, Note_on_c, 2, 71, 127
4, 45884, Note_off_c, 2, 71, 100
4, 45888, Note_on_c, 2, 69, 127
4, 45948, Note_off_c, 2, 69, 100
4, 45952, Note_on_c, 2, 67, 127
4, 46012, Note_off_c, 2, 67, 100
4, 46016, Note_on_c, 2, 66, 127
4, 46076, Note_off_c, 2, 66, 100
4, 46080, Note_on_c, 2, 64, 127
4, 46268, Note_off_c, 2, 64, 100
4, 46752, Note_on_c, 2, 79, 127
4, 46844, Note_off_c, 2, 79, 100
4, 46848, Note_on_c, 2, 78, 127
4, 47132, Note_off_c, 2, 78, 100
4, 47136, Note_on_c, 2, 76, 127
4, 47228, Note_off_c, 2, 76, 100
4, 47232, Note_on_c, 2, 74, 127
4, 47804, Note_off_c, 2, 74, 100
4, 47904, Note_on_c, 2, 77, 127
4, 47996, Note_off_c, 2, 77, 100
4, 48000, Note_on_c, 2, 76, 127
4, 48284, Note_off_c, 2, 76, 100
4, 48288, Note_on_c, 2, 74, 127
4, 48380, Note_off_c, 2, 74, 100
4, 48384, Note_on_c, 2, 72, 127
4, 49336, Note_off_c, 2, 72, 100
4, 49440, Note_on_c, 2, 72, 127
4, 49504, Note_off_c, 2, 72, 100
4, 49536, Note_on_c, 2, 72, 127
4, 49724, Note_off_c, 2, 72, 100
4, 50304, Note_on_c, 2, 66, 127
4, 50492, Note_off_c, 2, 66, 100
4, 50688, Note_on_c, 2, 67, 127
4, 50876, Note_off_c, 2, 67, 100
4, 51456, Note_on_c, 2, 71, 127
4, 51644, Note_off_c, 2, 71, 100
4, 51840, Note_on_c, 2, 72, 127
4, 52028, Note_off_c, 2, 72, 100
4, 55296, Note_on_c, 2, 81, 127
4, 55356, Note_off_c, 2, 81, 100
4, 55360, Note_on_c, 2, 79, 127
4, 55420, Note_off_c, 2, 79, 100
4, 55424, Note_on_c, 2, 81, 127
4, 55484, Note_off_c, 2, 81, 100
4, 55488, Note_on_c, 2, 86, 127
4, 55548, Note_off_c, 2, 86, 100
4, 55552, Note_on_c, 2, 84, 127
4, 55612, Note_off_c, 2, 84, 100
4, 55616, Note_on_c, 2, 83, 127
4, 55676, Note_off_c, 2, 83, 100
4, 55680, Note_on_c, 2, 81, 127
4, 55740, Note_off_c, 2, 81, 100
4, 55744, Note_on_c, 2, 83, 127
4, 55804, Note_off_c, 2, 83, 100
4, 55808, Note_on_c, 2, 81, 127
4, 55868, Note_off_c, 2, 81, 100
4, 55872, Note_on_c, 2, 79, 127
4, 55932, Note_off_c, 2, 79, 100
4, 55936, Note_on_c, 2, 81, 127
4, 55996, Note_off_c, 2, 81, 100
4, 56000, Note_on_c, 2, 79, 127
4, 56060, Note_off_c, 2, 79, 100
4, 56064, Note_on_c, 2, 78, 127
4, 56124, Note_off_c, 2, 78, 100
4, 56128, Note_on_c, 2, 79, 127
4, 56188, Note_off_c, 2, 79, 100
4, 56192, Note_on_c, 2, 78, 127
4, 56252, Note_off_c, 2, 78, 100
4, 56256, Note_on_c, 2, 76, 127
4, 56316, Note_off_c, 2, 76, 100
4, 56320, Note_on_c, 2, 78, 127
4, 56380, Note_off_c, 2, 78, 100
4, 56384, Note_on_c, 2, 76, 127
4, 56444, Note_off_c, 2, 76, 100
4, 56448, Note_on_c, 2, 74, 127
4, 56508, Note_off_c, 2, 74, 100
4, 56512, Note_on_c, 2, 72, 127
4, 56572, Note_off_c, 2, 72, 100
4, 56576, Note_on_c, 2, 74, 127
4, 56636, Note_off_c, 2, 74, 100
4, 56640, Note_on_c, 2, 79, 127
4, 56700, Note_off_c, 2, 79, 100
4, 56704, Note_on_c, 2, 78, 127
4, 56764, Note_off_c, 2, 78, 100
4, 56768, Note_on_c, 2, 76, 127
4, 56828, Note_off_c, 2, 76, 100
4, 56832, Note_on_c, 2, 74, 127
4, 56892, Note_off_c, 2, 74, 100
4, 56896, Note_on_c, 2, 76, 127
4, 56956, Note_off_c, 2, 76, 100
4, 56960, Note_on_c, 2, 74, 127
4, 57020, Note_off_c, 2, 74, 100
4, 57024, Note_on_c, 2, 72, 127
4, 57084, Note_off_c, 2, 72, 100
4, 57088, Note_on_c, 2, 74, 127
4, 57148, Note_off_c, 2, 74, 100
4, 57152, Note_on_c, 2, 72, 127
4, 57212, Note_off_c, 2, 72, 100
4, 57216, Note_on_c, 2, 71, 127
4, 57276, Note_off_c, 2, 71, 100
4, 57280, Note_on_c, 2, 72, 127
4, 57340, Note_off_c, 2, 72, 100
4, 57344, Note_on_c, 2, 71, 127
4, 57404, Note_off_c, 2, 71, 100
4, 57408, Note_on_c, 2, 69, 127
4, 57468, Note_off_c, 2, 69, 100
4, 57472, Note_on_c, 2, 71, 127
4, 57532, Note_off_c, 2, 71, 100
4, 57536, Note_on_c, 2, 69, 127
4, 57596, Note_off_c, 2, 69, 100
4, 57600, Note_on_c, 2, 67, 127
4, 57660, Note_off_c, 2, 67, 100
4, 57664, Note_on_c, 2, 66, 127
4, 57724, Note_off_c, 2, 66, 100
4, 57728, Note_on_c, 2, 67, 127
4, 57788, Note_off_c, 2, 67, 100
4, 57792, Note_on_c, 2, 71, 127
4, 57852, Note_off_c, 2, 71, 100
4, 57856, Note_on_c, 2, 69, 127
4, 57916, Note_off_c, 2, 69, 100
4, 57920, Note_on_c, 2, 67, 127
4, 57980, Note_off_c, 2, 67, 100
4, 57984, Note_on_c, 2, 66, 127
4, 58044, Note_off_c, 2, 66, 100
4, 58048, Note_on_c, 2, 67, 127
4, 58108, Note_off_c, 2, 67, 100
4, 58112, Note_on_c, 2, 66, 127
4, 58172, Note_off_c, 2, 66, 100
4, 58176, Note_on_c, 2, 64, 127
4, 58236, Note_off_c, 2, 64, 100
4, 58240, Note_on_c, 2, 66, 127
4, 58300, Note_off_c, 2, 66, 100
4, 58304, Note_on_c, 2, 64, 127
4, 58364, Note_off_c, 2, 64, 100
4, 58368, Note_on_c, 2, 63, 127
4, 58428, Note_off_c, 2, 63, 100
4, 58432, Note_on_c, 2, 64, 127
4, 58492, Note_off_c, 2, 64, 100
4, 58496, Note_on_c, 2, 63, 127
4, 58556, Note_off_c, 2, 63, 100
4, 58560, Note_on_c, 2, 61, 127
4, 58620, Note_off_c, 2, 61, 100
4, 58624, Note_on_c, 2, 63, 127
4, 58684, Note_off_c, 2, 63, 100
4, 58688, Note_on_c, 2, 61, 127
4, 58748, Note_off_c, 2, 61, 100
4, 58752, Note_on_c, 2, 59, 127
4, 58812, Note_off_c, 2, 59, 100
4, 58816, Note_on_c, 2, 58, 127
4, 58876, Note_off_c, 2, 58, 100
4, 58880, Note_on_c, 2, 59, 127
4, 58940, Note_off_c, 2, 59, 100
4, 58944, Note_on_c, 2, 64, 127
4, 59004, Note_off_c, 2, 64, 100
4, 59008, Note_on_c, 2, 63, 127
4, 59068, Note_off_c, 2, 63, 100
4, 59072, Note_on_c, 2, 61, 127
4, 59132, Note_off_c, 2, 61, 100
4, 59136, Note_on_c, 2, 59, 127
4, 59196, Note_off_c, 2, 59, 100
4, 59200, Note_on_c, 2, 60, 127
4, 59260, Note_off_c, 2, 60, 100
4, 59264, Note_on_c, 2, 59, 127
4, 59324, Note_off_c, 2, 59, 100
4, 59328, Note_on_c, 2, 57, 127
4, 59388, Note_off_c, 2, 57, 100
4, 59392, Note_on_c, 2, 59, 127
4, 59452, Note_off_c, 2, 59, 100
4, 59456, Note_on_c, 2, 57, 127
4, 59516, Note_off_c, 2, 57, 100
4, 59520, Note_on_c, 2, 55, 127
4, 59580, Note_off_c, 2, 55, 100
4, 59584, Note_on_c, 2, 57, 127
4, 59644, Note_off_c, 2, 57, 100
4, 59648, Note_on_c, 2, 55, 127
4, 59708, Note_off_c, 2, 55, 100
4, 59712, Note_on_c, 2, 54, 127
4, 59772, Note_off_c, 2, 54, 100
4, 59776, Note_on_c, 2, 55, 127
4, 59836, Note_off_c, 2, 55, 100
4, 59840, Note_on_c, 2, 54, 127
4, 59900, Note_off_c, 2, 54, 100
4, 59904, Note_on_c, 2, 52, 112
4, 59964, Note_off_c, 2, 52, 100
4, 59968, Note_on_c, 2, 51, 112
4, 60028, Note_off_c, 2, 51, 100
4, 60032, Note_on_c, 2, 52, 112
4, 60092, Note_off_c, 2, 52, 100
4, 60096, Note_on_c, 2, 59, 112
4, 60156, Note_off_c, 2, 59, 100
4, 60160, Note_on_c, 2, 57, 112
4, 60220, Note_off_c, 2, 57, 100
4, 60224, Note_on_c, 2, 59, 112
4, 60284, Note_off_c, 2, 59, 100
4, 60288, Note_on_c, 2, 55, 112
4, 60348, Note_off_c, 2, 55, 100
4, 60352, Note_on_c, 2, 54, 112
4, 60412, Note_off_c, 2, 54, 100
4, 60416, Note_on_c, 2, 55, 112
4, 60476, Note_off_c, 2, 55, 100
4, 60480, Note_on_c, 2, 59, 112
4, 60540, Note_off_c, 2, 59, 100
4, 60544, Note_on_c, 2, 64, 112
4, 60604, Note_off_c, 2, 64, 100
4, 60608, Note_on_c, 2, 66, 112
4, 60668, Note_off_c, 2, 66, 100
4, 60672, Note_on_c, 2, 67, 112
4, 60732, Note_off_c, 2, 67, 100
4, 60736, Note_on_c, 2, 66, 112
4, 60796, Note_off_c, 2, 66, 100
4, 60800, Note_on_c, 2, 67, 112
4, 60860, Note_off_c, 2, 67, 100
4, 60864, Note_on_c, 2, 64, 112
4, 60924, Note_off_c, 2, 64, 100
4, 60928, Note_on_c, 2, 63, 112
4, 60988, Note_off_c, 2, 63, 100
4, 60992, Note_on_c, 2, 64, 112
4, 61052, Note_off_c, 2, 64, 100
4, 61056, Note_on_c, 2, 60, 127
4, 61116, Note_off_c, 2, 60, 100
4, 61120, Note_on_c, 2, 59, 127
4, 61180, Note_off_c, 2, 59, 100
4, 61184, Note_on_c, 2, 60, 127
4, 61244, Note_off_c, 2, 60, 100
4, 61248, Note_on_c, 2, 64, 127
4, 61308, Note_off_c, 2, 64, 100
4, 61312, Note_on_c, 2, 62, 127
4, 61372, Note_off_c, 2, 62, 100
4, 61376, Note_on_c, 2, 64, 127
4, 61436, Note_off_c, 2, 64, 100
4, 61440, Note_on_c, 2, 57, 127
4, 61500, Note_off_c, 2, 57, 100
4, 61504, Note_on_c, 2, 56, 127
4, 61564, Note_off_c, 2, 56, 100
4, 61568, Note_on_c, 2, 57, 127
4, 61628, Note_off_c, 2, 57, 100
4, 61632, Note_on_c, 2, 60, 127
4, 61692, Note_off_c, 2, 60, 100
4, 61696, Note_on_c, 2, 65, 127
4, 61756, Note_off_c, 2, 65, 100
4, 61760, Note_on_c, 2, 69, 127
4, 61820, Note_off_c, 2, 69, 100
4, 61824, Note_on_c, 2, 72, 127
4, 61884, Note_off_c, 2, 72, 100
4, 61888, Note_on_c, 2, 71, 127
4, 61948, Note_off_c, 2, 71, 100
4, 61952, Note_on_c, 2, 72, 127
4, 62012, Note_off_c, 2, 72, 100
4, 62016, Note_on_c, 2, 69, 127
4, 62076, Note_off_c, 2, 69, 100
4, 62080, Note_on_c, 2, 65, 127
4, 62140, Note_off_c, 2, 65, 100
4, 62144, Note_on_c, 2, 69, 127
4, 62204, Note_off_c, 2, 69, 100
4, 62208, Note_on_c, 2, 63, 127
4, 62268, Note_off_c, 2, 63, 100
4, 62272, Note_on_c, 2, 61, 127
4, 62332, Note_off_c, 2, 61, 100
4, 62336, Note_on_c, 2, 63, 127
4, 62396, Note_off_c, 2, 63, 100
4, 62400, Note_on_c, 2, 66, 127
4, 62460, Note_off_c, 2, 66, 100
4, 62464, Note_on_c, 2, 64, 127
4, 62524, Note_off_c, 2, 64, 100
4, 62528, Note_on_c, 2, 66, 127
4, 62588, Note_off_c, 2, 66, 100
4, 62592, Note_on_c, 2, 59, 127
4, 62652, Note_off_c, 2, 59, 100
4, 62656, Note_on_c, 2, 58, 127
4, 62716, Note_off_c, 2, 58, 100
4, 62720, Note_on_c, 2, 59, 127
4, 62780, Note_off_c, 2, 59, 100
4, 62784, Note_on_c, 2, 63, 127
4, 62844, Note_off_c, 2, 63, 100
4, 62848, Note_on_c, 2, 66, 127
4, 62908, Note_off_c, 2, 66, 100
4, 62912, Note_on_c, 2, 67, 127
4, 62972, Note_off_c, 2, 67, 100
4, 62976, Note_on_c, 2, 69, 127
4, 63036, Note_off_c, 2, 69, 100
4, 63040, Note_on_c, 2, 67, 127
4, 63100, Note_off_c, 2, 67, 100
4, 63104, Note_on_c, 2, 69, 127
4, 63164, Note_off_c, 2, 69, 100
4, 63168, Note_on_c, 2, 66, 127
4, 63228, Note_off_c, 2, 66, 100
4, 63232, Note_on_c, 2, 63, 127
4, 63292, Note_off_c, 2, 63, 100
4, 63296, Note_on_c, 2, 66, 127
4, 63356, Note_off_c, 2, 66, 100
4, 63360, Note_on_c, 2, 67, 127
4, 63420, Note_off_c, 2, 67, 100
4, 63424, Note_on_c, 2, 66, 127
4, 63484, Note_off_c, 2, 66, 100
4, 63488, Note_on_c, 2, 67, 127
4, 63548, Note_off_c, 2, 67, 100
4, 63552, Note_on_c, 2, 71, 127
4, 63612, Note_off_c, 2, 71, 100
4, 63616, Note_on_c, 2, 69, 127
4, 63676, Note_off_c, 2, 69, 100
4, 63680, Note_on_c, 2, 71, 127
4, 63740, Note_off_c, 2, 71, 100
4, 63744, Note_on_c, 2, 64, 127
4, 63804, Note_off_c, 2, 64, 100
4, 63808, Note_on_c, 2, 63, 127
4, 63868, Note_off_c, 2, 63, 100
4, 63872, Note_on_c, 2, 64, 127
4, 63932, Note_off_c, 2, 64, 100
4, 63936, Note_on_c, 2, 67, 127
4, 63996, Note_off_c, 2, 67, 100
4, 64000, Note_on_c, 2, 71, 127
4, 64060, Note_off_c, 2, 71, 100
4, 64064, Note_on_c, 2, 75, 127
4, 64124, Note_off_c, 2, 75, 100
4, 64128, Note_on_c, 2, 76, 127
4, 64188, Note_off_c, 2, 76, 100
4, 64192, Note_on_c, 2, 72, 127
4, 64252, Note_off_c, 2, 72, 100
4, 64256, Note_on_c, 2, 71, 127
4, 64316, Note_off_c, 2, 71, 100
4, 64320, Note_on_c, 2, 69, 127
4, 64380, Note_off_c, 2, 69, 100
4, 64384, Note_on_c, 2, 67, 127
4, 64444, Note_off_c, 2, 67, 100
4, 64448, Note_on_c, 2, 66, 127
4, 64508, Note_off_c, 2, 66, 100
4, 64512, Note_on_c, 2, 64, 127
4, 64700, Note_off_c, 2, 64, 100
4, 65184, Note_on_c, 2, 79, 127
4, 65276, Note_off_c, 2, 79, 100
4, 65280, Note_on_c, 2, 78, 127
4, 65564, Note_off_c, 2, 78, 100
4, 65568, Note_on_c, 2, 76, 127
4, 65660, Note_off_c, 2, 76, 100
4, 65664, Note_on_c, 2, 74, 127
4, 66236, Note_off_c, 2, 74, 100
4, 66336, Note_on_c, 2, 77, 127
4, 66428, Note_off_c, 2, 77, 100
4, 66432, Note_on_c, 2, 76, 127
4, 66716, Note_off_c, 2, 76, 100
4, 66720, Note_on_c, 2, 74, 127
4, 66812, Note_off_c, 2, 74, 100
4, 66816, Note_on_c, 2, 72, 127
4, 67768, Note_off_c, 2, 72, 100
4, 67872, Note_on_c, 2, 72, 127
4, 67936, Note_off_c, 2, 72, 100
4, 67968, Note_on_c, 2, 72, 127
4, 68156, Note_off_c, 2, 72, 100
4, 68736, Note_on_c, 2, 66, 127
4, 68924, Note_off_c, 2, 66, 100
4, 69120, Note_on_c, 2, 67, 127
4, 69308, Note_off_c, 2, 67, 100
4, 69888, Note_on_c, 2, 71, 127
4, 70076, Note_off_c, 2, 71, 100
4, 70272, Note_on_c, 2, 72, 127
4, 70460, Note_off_c, 2, 72, 100
4, 70460, End_track
5, 0, Start_track
5, 0, Title_t, "Var.XXVI: Allegro"
5, 0, Control_c, 3, 0, 0
5, 0, Program_c, 3, 6
5, 0, Control_c, 3, 7, 127
5, 0, Control_c, 3, 10, 87
5, 0, Control_c, 3, 91, 127
5, 0, Key_signature, 1, "major"
5, 0, Note_on_c, 3, 67, 127
5, 60, Note_off_c, 3, 67, 100
5, 64, Note_on_c, 3, 69, 127
5, 124, Note_off_c, 3, 69, 100
5, 128, Note_on_c, 3, 67, 127
5, 188, Note_off_c, 3, 67, 100
5, 192, Note_on_c, 3, 62, 127
5, 252, Note_off_c, 3, 62, 100
5, 256, Note_on_c, 3, 64, 127
5, 316, Note_off_c, 3, 64, 100
5, 320, Note_on_c, 3, 66, 127
5, 380, Note_off_c, 3, 66, 100
5, 384, Note_on_c, 3, 67, 127
5, 444, Note_off_c, 3, 67, 100
5, 448, Note_on_c, 3, 66, 127
5, 508, Note_off_c, 3, 66, 100
5, 512, Note_on_c, 3, 67, 127
5, 572, Note_off_c, 3, 67, 100
5, 576, Note_on_c, 3, 69, 127
5, 636, Note_off_c, 3, 69, 100
5, 640, Note_on_c, 3, 67, 127
5, 700, Note_off_c, 3, 67, 100
5, 704, Note_on_c, 3, 69, 127
5, 764, Note_off_c, 3, 69, 100
5, 768, Note_on_c, 3, 71, 127
5, 828, Note_off_c, 3, 71, 100
5, 832, Note_on_c, 3, 69, 127
5, 892, Note_off_c, 3, 69, 100
5, 896, Note_on_c, 3, 71, 127
5, 956, Note_off_c, 3, 71, 100
5, 960, Note_on_c, 3, 72, 127
5, 1020, Note_off_c, 3, 72, 100
5, 1024, Note_on_c, 3, 71, 127
5, 1084, Note_off_c, 3, 71, 100
5, 1088, Note_on_c, 3, 73, 127
5, 1148, Note_off_c, 3, 73, 100
5, 1152, Note_on_c, 3, 74, 127
5, 1212, Note_off_c, 3, 74, 100
5, 1216, Note_on_c, 3, 76, 127
5, 1276, Note_off_c, 3, 76, 100
5, 1280, Note_on_c, 3, 74, 127
5, 1340, Note_off_c, 3, 74, 100
5, 1344, Note_on_c, 3, 69, 127
5, 1404, Note_off_c, 3, 69, 100
5, 1408, Note_on_c, 3, 71, 127
5, 1468, Note_off_c, 3, 71, 100
5, 1472, Note_on_c, 3, 73, 127
5, 1532, Note_off_c, 3, 73, 100
5, 1536, Note_on_c, 3, 74, 127
5, 1596, Note_off_c, 3, 74, 100
5, 1600, Note_on_c, 3, 73, 127
5, 1660, Note_off_c, 3, 73, 100
5, 1664, Note_on_c, 3, 74, 127
5, 1724, Note_off_c, 3, 74, 100
5, 1728, Note_on_c, 3, 76, 127
5, 1788, Note_off_c, 3, 76, 100
5, 1792, Note_on_c, 3, 74, 127
5, 1852, Note_off_c, 3, 74, 100
5, 1856, Note_on_c, 3, 76, 127
5, 1916, Note_off_c, 3, 76, 100
5, 1920, Note_on_c, 3, 78, 127
5, 1980, Note_off_c, 3, 78, 100
5, 1984, Note_on_c, 3, 76, 127
5, 2044, Note_off_c, 3, 76, 100
5, 2048, Note_on_c, 3, 78, 127
5, 2108, Note_off_c, 3, 78, 100
5, 2112, Note_on_c, 3, 79, 127
5, 2172, Note_off_c, 3, 79, 100
5, 2176, Note_on_c, 3, 76, 127
5, 2236, Note_off_c, 3, 76, 100
5, 2240, Note_on_c, 3, 78, 127
5, 2300, Note_off_c, 3, 78, 100
5, 2304, Note_on_c, 3, 79, 127
5, 2364, Note_off_c, 3, 79, 100
5, 2368, Note_on_c, 3, 81, 127
5, 2428, Note_off_c, 3, 81, 100
5, 2432, Note_on_c, 3, 79, 127
5, 2492, Note_off_c, 3, 79, 100
5, 2496, Note_on_c, 3, 71, 127
5, 2556, Note_off_c, 3, 71, 100
5, 2560, Note_on_c, 3, 76, 127
5, 2620, Note_off_c, 3, 76, 100
5, 2624, Note_on_c, 3, 78, 127
5, 2684, Note_off_c, 3, 78, 100
5, 2688, Note_on_c, 3, 79, 127
5, 2748, Note_off_c, 3, 79, 100
5, 2752, Note_on_c, 3, 78, 127
5, 2812, Note_off_c, 3, 78, 100
5, 2816, Note_on_c, 3, 79, 127
5, 2876, Note_off_c, 3, 79, 100
5, 2880, Note_on_c, 3, 81, 127
5, 2940, Note_off_c, 3, 81, 100
5, 2944, Note_on_c, 3, 79, 127
5, 3004, Note_off_c, 3, 79, 100
5, 3008, Note_on_c, 3, 81, 127
5, 3068, Note_off_c, 3, 81, 100
5, 3072, Note_on_c, 3, 83, 127
5, 3132, Note_off_c, 3, 83, 100
5, 3136, Note_on_c, 3, 81, 127
5, 3196, Note_off_c, 3, 81, 100
5, 3200, Note_on_c, 3, 83, 127
5, 3260, Note_off_c, 3, 83, 100
5, 3264, Note_on_c, 3, 85, 127
5, 3324, Note_off_c, 3, 85, 100
5, 3328, Note_on_c, 3, 83, 127
5, 3388, Note_off_c, 3, 83, 100
5, 3392, Note_on_c, 3, 85, 127
5, 3452, Note_off_c, 3, 85, 100
5, 3456, Note_on_c, 3, 86, 127
5, 3516, Note_off_c, 3, 86, 100
5, 3520, Note_on_c, 3, 88, 127
5, 3580, Note_off_c, 3, 88, 100
5, 3584, Note_on_c, 3, 86, 127
5, 3644, Note_off_c, 3, 86, 100
5, 3648, Note_on_c, 3, 81, 127
5, 3708, Note_off_c, 3, 81, 100
5, 3712, Note_on_c, 3, 83, 127
5, 3772, Note_off_c, 3, 83, 100
5, 3776, Note_on_c, 3, 85, 127
5, 3836, Note_off_c, 3, 85, 100
5, 3840, Note_on_c, 3, 86, 127
5, 3900, Note_off_c, 3, 86, 100
5, 3904, Note_on_c, 3, 85, 127
5, 3964, Note_off_c, 3, 85, 100
5, 3968, Note_on_c, 3, 86, 127
5, 4028, Note_off_c, 3, 86, 100
5, 4032, Note_on_c, 3, 88, 127
5, 4092, Note_off_c, 3, 88, 100
5, 4096, Note_on_c, 3, 86, 127
5, 4156, Note_off_c, 3, 86, 100
5, 4160, Note_on_c, 3, 88, 127
5, 4220, Note_off_c, 3, 88, 100
5, 4224, Note_on_c, 3, 90, 127
5, 4284, Note_off_c, 3, 90, 100
5, 4288, Note_on_c, 3, 88, 127
5, 4348, Note_off_c, 3, 88, 100
5, 4352, Note_on_c, 3, 90, 127
5, 4412, Note_off_c, 3, 90, 100
5, 4416, Note_on_c, 3, 91, 127
5, 4476, Note_off_c, 3, 91, 100
5, 4480, Note_on_c, 3, 88, 127
5, 4540, Note_off_c, 3, 88, 100
5, 4544, Note_on_c, 3, 90, 127
5, 4604, Note_off_c, 3, 90, 100
5, 4608, Note_on_c, 3, 91, 127
5, 4668, Note_off_c, 3, 91, 100
5, 4672, Note_on_c, 3, 90, 127
5, 4732, Note_off_c, 3, 90, 100
5, 4736, Note_on_c, 3, 91, 127
5, 4796, Note_off_c, 3, 91, 100
5, 4800, Note_on_c, 3, 86, 127
5, 4860, Note_off_c, 3, 86, 100
5, 4864, Note_on_c, 3, 84, 127
5, 4924, Note_off_c, 3, 84, 100
5, 4928, Note_on_c, 3, 86, 127
5, 4988, Note_off_c, 3, 86, 100
5, 4992, Note_on_c, 3, 83, 127
5, 5052, Note_off_c, 3, 83, 100
5, 5056, Note_on_c, 3, 79, 127
5, 5116, Note_off_c, 3, 79, 100
5, 5120, Note_on_c, 3, 78, 127
5, 5180, Note_off_c, 3, 78, 100
5, 5184, Note_on_c, 3, 79, 127
5, 5244, Note_off_c, 3, 79, 100
5, 5248, Note_on_c, 3, 83, 127
5, 5308, Note_off_c, 3, 83, 100
5, 5312, Note_on_c, 3, 86, 127
5, 5372, Note_off_c, 3, 86, 100
5, 5376, Note_on_c, 3, 89, 127
5, 5436, Note_off_c, 3, 89, 100
5, 5440, Note_on_c, 3, 88, 127
5, 5500, Note_off_c, 3, 88, 100
5, 5504, Note_on_c, 3, 89, 127
5, 5564, Note_off_c, 3, 89, 100
5, 5568, Note_on_c, 3, 86, 127
5, 5628, Note_off_c, 3, 86, 100
5, 5632, Note_on_c, 3, 83, 127
5, 5692, Note_off_c, 3, 83, 100
5, 5696, Note_on_c, 3, 86, 127
5, 5756, Note_off_c, 3, 86, 100
5, 5760, Note_on_c, 3, 88, 127
5, 5820, Note_off_c, 3, 88, 100
5, 5824, Note_on_c, 3, 86, 127
5, 5884, Note_off_c, 3, 86, 100
5, 5888, Note_on_c, 3, 88, 127
5, 5948, Note_off_c, 3, 88, 100
5, 5952, Note_on_c, 3, 84, 127
5, 6012, Note_off_c, 3, 84, 100
5, 6016, Note_on_c, 3, 83, 127
5, 6076, Note_off_c, 3, 83, 100
5, 6080, Note_on_c, 3, 84, 127
5, 6140, Note_off_c, 3, 84, 100
5, 6144, Note_on_c, 3, 79, 127
5, 6204, Note_off_c, 3, 79, 100
5, 6208, Note_on_c, 3, 76, 127
5, 6268, Note_off_c, 3, 76, 100
5, 6272, Note_on_c, 3, 74, 127
5, 6332, Note_off_c, 3, 74, 100
5, 6336, Note_on_c, 3, 76, 127
5, 6396, Note_off_c, 3, 76, 100
5, 6400, Note_on_c, 3, 79, 127
5, 6460, Note_off_c, 3, 79, 100
5, 6464, Note_on_c, 3, 84, 127
5, 6524, Note_off_c, 3, 84, 100
5, 6528, Note_on_c, 3, 88, 127
5, 6588, Note_off_c, 3, 88, 100
5, 6592, Note_on_c, 3, 86, 127
5, 6652, Note_off_c, 3, 86, 100
5, 6656, Note_on_c, 3, 88, 127
5, 6716, Note_off_c, 3, 88, 100
5, 6720, Note_on_c, 3, 84, 127
5, 6780, Note_off_c, 3, 84, 100
5, 6784, Note_on_c, 3, 81, 127
5, 6844, Note_off_c, 3, 81, 100
5, 6848, Note_on_c, 3, 84, 127
5, 6908, Note_off_c, 3, 84, 100
5, 6912, Note_on_c, 3, 86, 127
5, 6972, Note_off_c, 3, 86, 100
5, 6976, Note_on_c, 3, 84, 127
5, 7036, Note_off_c, 3, 84, 100
5, 7040, Note_on_c, 3, 86, 127
5, 7100, Note_off_c, 3, 86, 100
5, 7104, Note_on_c, 3, 81, 127
5, 7164, Note_off_c, 3, 81, 100
5, 7168, Note_on_c, 3, 79, 127
5, 7228, Note_off_c, 3, 79, 100
5, 7232, Note_on_c, 3, 81, 127
5, 7292, Note_off_c, 3, 81, 100
5, 7296, Note_on_c, 3, 78, 127
5, 7356, Note_off_c, 3, 78, 100
5, 7360, Note_on_c, 3, 74, 127
5, 7420, Note_off_c, 3, 74, 100
5, 7424, Note_on_c, 3, 73, 127
5, 7484, Note_off_c, 3, 73, 100
5, 7488, Note_on_c, 3, 74, 127
5, 7548, Note_off_c, 3, 74, 100
5, 7552, Note_on_c, 3, 78, 127
5, 7612, Note_off_c, 3, 78, 100
5, 7616, Note_on_c, 3, 81, 127
5, 7676, Note_off_c, 3, 81, 100
5, 7680, Note_on_c, 3, 84, 127
5, 7740, Note_off_c, 3, 84, 100
5, 7744, Note_on_c, 3, 83, 127
5, 7804, Note_off_c, 3, 83, 100
5, 7808, Note_on_c, 3, 84, 127
5, 7868, Note_off_c, 3, 84, 100
5, 7872, Note_on_c, 3, 81, 127
5, 7932, Note_off_c, 3, 81, 100
5, 7936, Note_on_c, 3, 78, 127
5, 7996, Note_off_c, 3, 78, 100
5, 8000, Note_on_c, 3, 81, 127
5, 8060, Note_off_c, 3, 81, 100
5, 8064, Note_on_c, 3, 83, 127
5, 8124, Note_off_c, 3, 83, 100
5, 8128, Note_on_c, 3, 81, 127
5, 8188, Note_off_c, 3, 81, 100
5, 8192, Note_on_c, 3, 83, 127
5, 8252, Note_off_c, 3, 83, 100
5, 8256, Note_on_c, 3, 79, 127
5, 8316, Note_off_c, 3, 79, 100
5, 8320, Note_on_c, 3, 78, 127
5, 8380, Note_off_c, 3, 78, 100
5, 8384, Note_on_c, 3, 79, 127
5, 8444, Note_off_c, 3, 79, 100
5, 8448, Note_on_c, 3, 74, 127
5, 8508, Note_off_c, 3, 74, 100
5, 8512, Note_on_c, 3, 71, 127
5, 8572, Note_off_c, 3, 71, 100
5, 8576, Note_on_c, 3, 69, 127
5, 8636, Note_off_c, 3, 69, 100
5, 8640, Note_on_c, 3, 71, 127
5, 8700, Note_off_c, 3, 71, 100
5, 8704, Note_on_c, 3, 74, 127
5, 8764, Note_off_c, 3, 74, 100
5, 8768, Note_on_c, 3, 79, 127
5, 8828, Note_off_c, 3, 79, 100
5, 8832, Note_on_c, 3, 83, 127
5, 8892, Note_off_c, 3, 83, 100
5, 8896, Note_on_c, 3, 79, 127
5, 8956, Note_off_c, 3, 79, 100
5, 8960, Note_on_c, 3, 78, 127
5, 9020, Note_off_c, 3, 78, 100
5, 9024, Note_on_c, 3, 79, 127
5, 9084, Note_off_c, 3, 79, 100
5, 9088, Note_on_c, 3, 83, 127
5, 9148, Note_off_c, 3, 83, 100
5, 9152, Note_on_c, 3, 86, 127
5, 9212, Note_off_c, 3, 86, 100
5, 9216, Note_on_c, 3, 91, 127
5, 9500, Note_off_c, 3, 91, 100
5, 9504, Note_on_c, 3, 90, 127
5, 9548, Note_off_c, 3, 90, 100
5, 9552, Note_on_c, 3, 88, 127
5, 9596, Note_off_c, 3, 88, 100
5, 9600, Note_on_c, 3, 86, 127
5, 9980, Note_off_c, 3, 86, 100
5, 10176, Note_on_c, 3, 95, 127
5, 10236, Note_off_c, 3, 95, 100
5, 10368, Note_on_c, 3, 93, 127
5, 10748, Note_off_c, 3, 93, 100
5, 10752, Note_on_c, 3, 93, 127
5, 11132, Note_off_c, 3, 93, 100
5, 11328, Note_on_c, 3, 93, 127
5, 11388, Note_off_c, 3, 93, 100
5, 11520, Note_on_c, 3, 93, 127
5, 11900, Note_off_c, 3, 93, 100
5, 11904, Note_on_c, 3, 91, 127
5, 12284, Note_off_c, 3, 91, 100
5, 12480, Note_on_c, 3, 91, 127
5, 12540, Note_off_c, 3, 91, 100
5, 12672, Note_on_c, 3, 91, 127
5, 12956, Note_off_c, 3, 91, 100
5, 12960, Note_on_c, 3, 88, 127
5, 13052, Note_off_c, 3, 88, 100
5, 13056, Note_on_c, 3, 81, 127
5, 13436, Note_off_c, 3, 81, 100
5, 13632, Note_on_c, 3, 91, 127
5, 13692, Note_off_c, 3, 91, 100
5, 13824, Note_on_c, 3, 91, 127
5, 14108, Note_off_c, 3, 91, 100
5, 14112, Note_on_c, 3, 88, 127
5, 14204, Note_off_c, 3, 88, 100
5, 14208, Note_on_c, 3, 90, 127
5, 14588, Note_off_c, 3, 90, 100
5, 14784, Note_on_c, 3, 93, 127
5, 14844, Note_off_c, 3, 93, 100
5, 14976, Note_on_c, 3, 95, 127
5, 15260, Note_off_c, 3, 95, 100
5, 15264, Note_on_c, 3, 90, 127
5, 15356, Note_off_c, 3, 90, 100
5, 15360, Note_on_c, 3, 91, 127
5, 15740, Note_off_c, 3, 91, 100
5, 15936, Note_on_c, 3, 88, 127
5, 15936, Note_on_c, 3, 91, 127
5, 15996, Note_off_c, 3, 88, 100
5, 15996, Note_off_c, 3, 91, 100
5, 16128, Note_on_c, 3, 91, 127
5, 16508, Note_off_c, 3, 91, 100
5, 16512, Note_on_c, 3, 85, 127
5, 16892, Note_off_c, 3, 85, 100
5, 17088, Note_on_c, 3, 81, 127
5, 17148, Note_off_c, 3, 81, 100
5, 17280, Note_on_c, 3, 81, 127
5, 17564, Note_off_c, 3, 81, 100
5, 17568, Note_on_c, 3, 76, 127
5, 17660, Note_off_c, 3, 76, 100
5, 17664, Note_on_c, 3, 78, 127
5, 18044, Note_off_c, 3, 78, 100
5, 36864, Note_on_c, 3, 74, 127
5, 37244, Note_off_c, 3, 74, 100
5, 37248, Note_on_c, 3, 72, 127
5, 37628, Note_off_c, 3, 72, 100
5, 37824, Note_on_c, 3, 72, 127
5, 37884, Note_off_c, 3, 72, 100
5, 38016, Note_on_c, 3, 71, 127
5, 38300, Note_off_c, 3, 71, 100
5, 38304, Note_on_c, 3, 74, 127
5, 38396, Note_off_c, 3, 74, 100
5, 38400, Note_on_c, 3, 79, 127
5, 38780, Note_off_c, 3, 79, 100
5, 38976, Note_on_c, 3, 86, 127
5, 39036, Note_off_c, 3, 86, 100
5, 39168, Note_on_c, 3, 85, 127
5, 39548, Note_off_c, 3, 85, 100
5, 39552, Note_on_c, 3, 87, 127
5, 39932, Note_off_c, 3, 87, 100
5, 40128, Note_on_c, 3, 88, 127
5, 40188, Note_off_c, 3, 88, 100
5, 40320, Note_on_c, 3, 87, 127
5, 40700, Note_off_c, 3, 87, 100
5, 40704, Note_on_c, 3, 78, 127
5, 41084, Note_off_c, 3, 78, 100
5, 41280, Note_on_c, 3, 87, 127
5, 41340, Note_off_c, 3, 87, 100
5, 41472, Note_on_c, 3, 88, 127
5, 41852, Note_off_c, 3, 88, 100
5, 41856, Note_on_c, 3, 83, 127
5, 42236, Note_off_c, 3, 83, 100
5, 42432, Note_on_c, 3, 83, 127
5, 42492, Note_off_c, 3, 83, 100
5, 42624, Note_on_c, 3, 81, 127
5, 42908, Note_off_c, 3, 81, 100
5, 42912, Note_on_c, 3, 83, 127
5, 43004, Note_off_c, 3, 83, 100
5, 43008, Note_on_c, 3, 84, 127
5, 43388, Note_off_c, 3, 84, 100
5, 43584, Note_on_c, 3, 84, 127
5, 43644, Note_off_c, 3, 84, 100
5, 43776, Note_on_c, 3, 83, 127
5, 44156, Note_off_c, 3, 83, 100
5, 44160, Note_on_c, 3, 81, 127
5, 44540, Note_off_c, 3, 81, 100
5, 44736, Note_on_c, 3, 81, 127
5, 44796, Note_off_c, 3, 81, 100
5, 44928, Note_on_c, 3, 81, 127
5, 45212, Note_off_c, 3, 81, 100
5, 45216, Note_on_c, 3, 78, 127
5, 45308, Note_off_c, 3, 78, 100
5, 45312, Note_on_c, 3, 79, 127
5, 45692, Note_off_c, 3, 79, 100
5, 45760, Note_on_c, 3, 64, 127
5, 45820, Note_off_c, 3, 64, 100
5, 45824, Note_on_c, 3, 66, 127
5, 45884, Note_off_c, 3, 66, 100
5, 45888, Note_on_c, 3, 67, 127
5, 45948, Note_off_c, 3, 67, 100
5, 45952, Note_on_c, 3, 69, 127
5, 46012, Note_off_c, 3, 69, 100
5, 46016, Note_on_c, 3, 71, 127
5, 46076, Note_off_c, 3, 71, 100
5, 46080, Note_on_c, 3, 72, 127
5, 46140, Note_off_c, 3, 72, 100
5, 46144, Note_on_c, 3, 71, 127
5, 46204, Note_off_c, 3, 71, 100
5, 46208, Note_on_c, 3, 72, 127
5, 46268, Note_off_c, 3, 72, 100
5, 46272, Note_on_c, 3, 77, 127
5, 46332, Note_off_c, 3, 77, 100
5, 46336, Note_on_c, 3, 76, 127
5, 46396, Note_off_c, 3, 76, 100
5, 46400, Note_on_c, 3, 74, 127
5, 46460, Note_off_c, 3, 74, 100
5, 46464, Note_on_c, 3, 72, 127
5, 46524, Note_off_c, 3, 72, 100
5, 46528, Note_on_c, 3, 74, 127
5, 46588, Note_off_c, 3, 74, 100
5, 46592, Note_on_c, 3, 72, 127
5, 46652, Note_off_c, 3, 72, 100
5, 46656, Note_on_c, 3, 71, 127
5, 46716, Note_off_c, 3, 71, 100
5, 46720, Note_on_c, 3, 72, 127
5, 46780, Note_off_c, 3, 72, 100
5, 46784, Note_on_c, 3, 71, 127
5, 46844, Note_off_c, 3, 71, 100
5, 46848, Note_on_c, 3, 69, 127
5, 46908, Note_off_c, 3, 69, 100
5, 46912, Note_on_c, 3, 71, 127
5, 46972, Note_off_c, 3, 71, 100
5, 46976, Note_on_c, 3, 69, 127
5, 47036, Note_off_c, 3, 69, 100
5, 47040, Note_on_c, 3, 67, 127
5, 47100, Note_off_c, 3, 67, 100
5, 47104, Note_on_c, 3, 69, 127
5, 47164, Note_off_c, 3, 69, 100
5, 47168, Note_on_c, 3, 66, 127
5, 47228, Note_off_c, 3, 66, 100
5, 47232, Note_on_c, 3, 71, 127
5, 47292, Note_off_c, 3, 71, 100
5, 47296, Note_on_c, 3, 69, 127
5, 47356, Note_off_c, 3, 69, 100
5, 47360, Note_on_c, 3, 71, 127
5, 47420, Note_off_c, 3, 71, 100
5, 47424, Note_on_c, 3, 76, 127
5, 47484, Note_off_c, 3, 76, 100
5, 47488, Note_on_c, 3, 74, 127
5, 47548, Note_off_c, 3, 74, 100
5, 47552, Note_on_c, 3, 72, 127
5, 47612, Note_off_c, 3, 72, 100
5, 47616, Note_on_c, 3, 71, 127
5, 47676, Note_off_c, 3, 71, 100
5, 47680, Note_on_c, 3, 72, 127
5, 47740, Note_off_c, 3, 72, 100
5, 47744, Note_on_c, 3, 71, 127
5, 47804, Note_off_c, 3, 71, 100
5, 47808, Note_on_c, 3, 69, 127
5, 47868, Note_off_c, 3, 69, 100
5, 47872, Note_on_c, 3, 71, 127
5, 47932, Note_off_c, 3, 71, 100
5, 47936, Note_on_c, 3, 69, 127
5, 47996, Note_off_c, 3, 69, 100
5, 48000, Note_on_c, 3, 67, 127
5, 48060, Note_off_c, 3, 67, 100
5, 48064, Note_on_c, 3, 69, 127
5, 48124, Note_off_c, 3, 69, 100
5, 48128, Note_on_c, 3, 67, 127
5, 48188, Note_off_c, 3, 67, 100
5, 48192, Note_on_c, 3, 66, 127
5, 48252, Note_off_c, 3, 66, 100
5, 48256, Note_on_c, 3, 67, 127
5, 48316, Note_off_c, 3, 67, 100
5, 48320, Note_on_c, 3, 64, 127
5, 48380, Note_off_c, 3, 64, 100
5, 48384, Note_on_c, 3, 69, 127
5, 48444, Note_off_c, 3, 69, 100
5, 48448, Note_on_c, 3, 67, 127
5, 48508, Note_off_c, 3, 67, 100
5, 48512, Note_on_c, 3, 69, 127
5, 48572, Note_off_c, 3, 69, 100
5, 48576, Note_on_c, 3, 74, 127
5, 48636, Note_off_c, 3, 74, 100
5, 48640, Note_on_c, 3, 72, 127
5, 48700, Note_off_c, 3, 72, 100
5, 48704, Note_on_c, 3, 71, 127
5, 48764, Note_off_c, 3, 71, 100
5, 48768, Note_on_c, 3, 69, 127
5, 48828, Note_off_c, 3, 69, 100
5, 48832, Note_on_c, 3, 71, 127
5, 48892, Note_off_c, 3, 71, 100
5, 48896, Note_on_c, 3, 69, 127
5, 48956, Note_off_c, 3, 69, 100
5, 48960, Note_on_c, 3, 67, 127
5, 49020, Note_off_c, 3, 67, 100
5, 49024, Note_on_c, 3, 69, 127
5, 49084, Note_off_c, 3, 69, 100
5, 49088, Note_on_c, 3, 67, 127
5, 49148, Note_off_c, 3, 67, 100
5, 49152, Note_on_c, 3, 66, 127
5, 49212, Note_off_c, 3, 66, 100
5, 49216, Note_on_c, 3, 67, 127
5, 49276, Note_off_c, 3, 67, 100
5, 49280, Note_on_c, 3, 66, 127
5, 49340, Note_off_c, 3, 66, 100
5, 49344, Note_on_c, 3, 64, 127
5, 49404, Note_off_c, 3, 64, 100
5, 49408, Note_on_c, 3, 66, 127
5, 49468, Note_off_c, 3, 66, 100
5, 49472, Note_on_c, 3, 64, 127
5, 49532, Note_off_c, 3, 64, 100
5, 49536, Note_on_c, 3, 62, 127
5, 49596, Note_off_c, 3, 62, 100
5, 49600, Note_on_c, 3, 61, 127
5, 49660, Note_off_c, 3, 61, 100
5, 49664, Note_on_c, 3, 62, 127
5, 49724, Note_off_c, 3, 62, 100
5, 49728, Note_on_c, 3, 67, 127
5, 49788, Note_off_c, 3, 67, 100
5, 49792, Note_on_c, 3, 66, 127
5, 49852, Note_off_c, 3, 66, 100
5, 49856, Note_on_c, 3, 64, 127
5, 49916, Note_off_c, 3, 64, 100
5, 49920, Note_on_c, 3, 62, 127
5, 49980, Note_off_c, 3, 62, 100
5, 49984, Note_on_c, 3, 64, 127
5, 50044, Note_off_c, 3, 64, 100
5, 50048, Note_on_c, 3, 62, 127
5, 50108, Note_off_c, 3, 62, 100
5, 50112, Note_on_c, 3, 60, 127
5, 50172, Note_off_c, 3, 60, 100
5, 50176, Note_on_c, 3, 62, 127
5, 50236, Note_off_c, 3, 62, 100
5, 50240, Note_on_c, 3, 60, 127
5, 50300, Note_off_c, 3, 60, 100
5, 50304, Note_on_c, 3, 59, 127
5, 50364, Note_off_c, 3, 59, 100
5, 50368, Note_on_c, 3, 60, 127
5, 50428, Note_off_c, 3, 60, 100
5, 50432, Note_on_c, 3, 59, 127
5, 50492, Note_off_c, 3, 59, 100
5, 50496, Note_on_c, 3, 57, 127
5, 50556, Note_off_c, 3, 57, 100
5, 50560, Note_on_c, 3, 59, 127
5, 50620, Note_off_c, 3, 59, 100
5, 50624, Note_on_c, 3, 57, 127
5, 50684, Note_off_c, 3, 57, 100
5, 50688, Note_on_c, 3, 55, 127
5, 50748, Note_off_c, 3, 55, 100
5, 50752, Note_on_c, 3, 54, 127
5, 50812, Note_off_c, 3, 54, 100
5, 50816, Note_on_c, 3, 55, 127
5, 50876, Note_off_c, 3, 55, 100
5, 50880, Note_on_c, 3, 60, 127
5, 50940, Note_off_c, 3, 60, 100
5, 50944, Note_on_c, 3, 59, 127
5, 51004, Note_off_c, 3, 59, 100
5, 51008, Note_on_c, 3, 57, 127
5, 51068, Note_off_c, 3, 57, 100
5, 51072, Note_on_c, 3, 55, 127
5, 51132, Note_off_c, 3, 55, 100
5, 51136, Note_on_c, 3, 57, 127
5, 51196, Note_off_c, 3, 57, 100
5, 51200, Note_on_c, 3, 55, 127
5, 51260, Note_off_c, 3, 55, 100
5, 51264, Note_on_c, 3, 53, 127
5, 51324, Note_off_c, 3, 53, 100
5, 51328, Note_on_c, 3, 55, 127
5, 51388, Note_off_c, 3, 55, 100
5, 51392, Note_on_c, 3, 53, 127
5, 51452, Note_off_c, 3, 53, 100
5, 51456, Note_on_c, 3, 52, 127
5, 51516, Note_off_c, 3, 52, 100
5, 51520, Note_on_c, 3, 53, 127
5, 51580, Note_off_c, 3, 53, 100
5, 51584, Note_on_c, 3, 52, 127
5, 51644, Note_off_c, 3, 52, 100
5, 51648, Note_on_c, 3, 50, 127
5, 51708, Note_off_c, 3, 50, 100
5, 51712, Note_on_c, 3, 52, 127
5, 51772, Note_off_c, 3, 52, 100
5, 51776, Note_on_c, 3, 50, 127
5, 51836, Note_off_c, 3, 50, 100
5, 51840, Note_on_c, 3, 48, 127
5, 52028, Note_off_c, 3, 48, 100
5, 52032, Note_on_c, 3, 55, 127
5, 52092, Note_off_c, 3, 55, 100
5, 52096, Note_on_c, 3, 57, 127
5, 52156, Note_off_c, 3, 57, 100
5, 52160, Note_on_c, 3, 59, 127
5, 52220, Note_off_c, 3, 59, 100
5, 52224, Note_on_c, 3, 60, 127
5, 52284, Note_off_c, 3, 60, 100
5, 52288, Note_on_c, 3, 59, 127
5, 52348, Note_off_c, 3, 59, 100
5, 52352, Note_on_c, 3, 60, 127
5, 52412, Note_off_c, 3, 60, 100
5, 52416, Note_on_c, 3, 62, 127
5, 52476, Note_off_c, 3, 62, 100
5, 52480, Note_on_c, 3, 60, 127
5, 52540, Note_off_c, 3, 60, 100
5, 52544, Note_on_c, 3, 62, 127
5, 52604, Note_off_c, 3, 62, 100
5, 52608, Note_on_c, 3, 64, 127
5, 52668, Note_off_c, 3, 64, 100
5, 52672, Note_on_c, 3, 62, 127
5, 52732, Note_off_c, 3, 62, 100
5, 52736, Note_on_c, 3, 60, 127
5, 52796, Note_off_c, 3, 60, 100
5, 52800, Note_on_c, 3, 59, 127
5, 52860, Note_off_c, 3, 59, 100
5, 52864, Note_on_c, 3, 57, 127
5, 52924, Note_off_c, 3, 57, 100
5, 52928, Note_on_c, 3, 55, 127
5, 52988, Note_off_c, 3, 55, 100
5, 52992, Note_on_c, 3, 54, 127
5, 53052, Note_off_c, 3, 54, 100
5, 53056, Note_on_c, 3, 52, 127
5, 53116, Note_off_c, 3, 52, 100
5, 53120, Note_on_c, 3, 54, 127
5, 53180, Note_off_c, 3, 54, 100
5, 53184, Note_on_c, 3, 50, 127
5, 53244, Note_off_c, 3, 50, 100
5, 53248, Note_on_c, 3, 52, 127
5, 53308, Note_off_c, 3, 52, 100
5, 53312, Note_on_c, 3, 54, 127
5, 53372, Note_off_c, 3, 54, 100
5, 53376, Note_on_c, 3, 55, 127
5, 53436, Note_off_c, 3, 55, 100
5, 53440, Note_on_c, 3, 54, 127
5, 53500, Note_off_c, 3, 54, 100
5, 53504, Note_on_c, 3, 55, 127
5, 53564, Note_off_c, 3, 55, 100
5, 53568, Note_on_c, 3, 57, 127
5, 53628, Note_off_c, 3, 57, 100
5, 53632, Note_on_c, 3, 59, 127
5, 53692, Note_off_c, 3, 59, 100
5, 53696, Note_on_c, 3, 60, 127
5, 53756, Note_off_c, 3, 60, 100
5, 53760, Note_on_c, 3, 62, 127
5, 53820, Note_off_c, 3, 62, 100
5, 53824, Note_on_c, 3, 61, 127
5, 53884, Note_off_c, 3, 61, 100
5, 53888, Note_on_c, 3, 62, 127
5, 53948, Note_off_c, 3, 62, 100
5, 53952, Note_on_c, 3, 64, 127
5, 54012, Note_off_c, 3, 64, 100
5, 54016, Note_on_c, 3, 66, 127
5, 54076, Note_off_c, 3, 66, 100
5, 54080, Note_on_c, 3, 62, 127
5, 54140, Note_off_c, 3, 62, 100
5, 54144, Note_on_c, 3, 67, 127
5, 54332, Note_off_c, 3, 67, 100
5, 54592, Note_on_c, 3, 69, 127
5, 54652, Note_off_c, 3, 69, 100
5, 54656, Note_on_c, 3, 67, 127
5, 54716, Note_off_c, 3, 67, 100
5, 54720, Note_on_c, 3, 66, 127
5, 54780, Note_off_c, 3, 66, 100
5, 54784, Note_on_c, 3, 67, 127
5, 54844, Note_off_c, 3, 67, 100
5, 54848, Note_on_c, 3, 62, 127
5, 54908, Note_off_c, 3, 62, 100
5, 54912, Note_on_c, 3, 55, 127
5, 55168, Note_off_c, 3, 55, 100
5, 55168, End_track
6, 0, Start_track
6, 0, Title_t, "Bruno de Giusti"
6, 0, Control_c, 4, 0, 0
6, 0, Program_c, 4, 6
6, 0, Control_c, 4, 7, 127
6, 0, Control_c, 4, 10, 0
6, 0, Control_c, 4, 91, 127
6, 0, Key_signature, 1, "major"
6, 0, Note_on_c, 4, 83, 127
6, 256, Note_off_c, 4, 83, 100
6, 384, Note_on_c, 4, 83, 127
6, 640, Note_off_c, 4, 83, 100
6, 960, Note_on_c, 4, 83, 127
6, 1020, Note_off_c, 4, 83, 100
6, 1152, Note_on_c, 4, 81, 127
6, 1408, Note_off_c, 4, 81, 100
6, 1536, Note_on_c, 4, 81, 127
6, 1792, Note_off_c, 4, 81, 100
6, 2112, Note_on_c, 4, 86, 127
6, 2172, Note_off_c, 4, 86, 100
6, 2304, Note_on_c, 4, 86, 127
6, 2560, Note_off_c, 4, 86, 100
6, 2656, Note_on_c, 4, 86, 127
6, 2684, Note_off_c, 4, 86, 100
6, 2688, Note_on_c, 4, 85, 127
6, 2716, Note_off_c, 4, 85, 100
6, 2720, Note_on_c, 4, 86, 127
6, 2748, Note_off_c, 4, 86, 100
6, 2752, Note_on_c, 4, 85, 127
6, 3036, Note_off_c, 4, 85, 100
6, 3264, Note_on_c, 4, 79, 127
6, 3324, Note_off_c, 4, 79, 100
6, 3456, Note_on_c, 4, 79, 127
6, 3740, Note_off_c, 4, 79, 100
6, 3744, Note_on_c, 4, 76, 127
6, 3836, Note_off_c, 4, 76, 100
6, 3840, Note_on_c, 4, 78, 127
6, 4220, Note_off_c, 4, 78, 100
6, 4416, Note_on_c, 4, 81, 127
6, 4476, Note_off_c, 4, 81, 100
6, 4608, Note_on_c, 4, 74, 127
6, 4892, Note_off_c, 4, 74, 100
6, 4896, Note_on_c, 4, 76, 127
6, 4988, Note_off_c, 4, 76, 100
6, 4992, Note_on_c, 4, 77, 127
6, 5372, Note_off_c, 4, 77, 100
6, 5568, Note_on_c, 4, 79, 127
6, 5628, Note_off_c, 4, 79, 100
6, 5760, Note_on_c, 4, 79, 127
6, 6044, Note_off_c, 4, 79, 100
6, 6048, Note_on_c, 4, 76, 127
6, 6140, Note_off_c, 4, 76, 100
6, 6144, Note_on_c, 4, 72, 127
6, 6524, Note_off_c, 4, 72, 100
6, 6720, Note_on_c, 4, 76, 127
6, 6780, Note_off_c, 4, 76, 100
6, 6912, Note_on_c, 4, 69, 127
6, 7196, Note_off_c, 4, 69, 100
6, 7200, Note_on_c, 4, 71, 127
6, 7292, Note_off_c, 4, 71, 100
6, 7296, Note_on_c, 4, 72, 127
6, 7676, Note_off_c, 4, 72, 100
6, 7872, Note_on_c, 4, 74, 127
6, 7932, Note_off_c, 4, 74, 100
6, 8064, Note_on_c, 4, 74, 127
6, 8348, Note_off_c, 4, 74, 100
6, 8352, Note_on_c, 4, 71, 127
6, 8444, Note_off_c, 4, 71, 100
6, 8448, Note_on_c, 4, 67, 127
6, 8828, Note_off_c, 4, 67, 100
6, 9216, Note_on_c, 4, 83, 127
6, 9472, Note_off_c, 4, 83, 100
6, 9600, Note_on_c, 4, 83, 127
6, 9856, Note_off_c, 4, 83, 100
6, 10176, Note_on_c, 4, 91, 127
6, 10236, Note_off_c, 4, 91, 100
6, 10368, Note_on_c, 4, 91, 127
6, 10652, Note_off_c, 4, 91, 100
6, 10656, Note_on_c, 4, 88, 127
6, 10748, Note_off_c, 4, 88, 100
6, 10752, Note_on_c, 4, 90, 127
6, 11132, Note_off_c, 4, 90, 100
6, 11328, Note_on_c, 4, 84, 127
6, 11388, Note_off_c, 4, 84, 100
6, 11520, Note_on_c, 4, 83, 127
6, 11804, Note_off_c, 4, 83, 100
6, 11808, Note_on_c, 4, 87, 127
6, 11900, Note_off_c, 4, 87, 100
6, 11904, Note_on_c, 4, 88, 127
6, 12284, Note_off_c, 4, 88, 100
6, 12480, Note_on_c, 4, 88, 127
6, 12540, Note_off_c, 4, 88, 100
6, 12672, Note_on_c, 4, 81, 127
6, 12956, Note_off_c, 4, 81, 100
6, 12960, Note_on_c, 4, 85, 127
6, 13052, Note_off_c, 4, 85, 100
6, 13056, Note_on_c, 4, 76, 127
6, 13436, Note_off_c, 4, 76, 100
6, 13632, Note_on_c, 4, 85, 127
6, 13692, Note_off_c, 4, 85, 100
6, 13824, Note_on_c, 4, 85, 127
6, 14204, Note_off_c, 4, 85, 100
6, 14208, Note_on_c, 4, 86, 127
6, 14588, Note_off_c, 4, 86, 100
6, 14784, Note_on_c, 4, 86, 127
6, 14844, Note_off_c, 4, 86, 100
6, 14976, Note_on_c, 4, 86, 127
6, 15356, Note_off_c, 4, 86, 100
6, 15360, Note_on_c, 4, 86, 127
6, 15740, Note_off_c, 4, 86, 100
6, 16128, Note_on_c, 4, 81, 127
6, 16412, Note_off_c, 4, 81, 100
6, 16416, Note_on_c, 4, 79, 127
6, 16460, Note_off_c, 4, 79, 100
6, 16464, Note_on_c, 4, 78, 127
6, 16508, Note_off_c, 4, 78, 100
6, 16512, Note_on_c, 4, 76, 127
6, 16892, Note_off_c, 4, 76, 100
6, 17088, Note_on_c, 4, 69, 127
6, 17148, Note_off_c, 4, 69, 100
6, 17280, Note_on_c, 4, 74, 127
6, 17660, Note_off_c, 4, 74, 100
6, 17664, Note_on_c, 4, 74, 127
6, 18044, Note_off_c, 4, 74, 100
6, 36864, Note_on_c, 4, 78, 127
6, 37148, Note_off_c, 4, 78, 100
6, 37152, Note_on_c, 4, 76, 127
6, 37244, Note_off_c, 4, 76, 100
6, 37248, Note_on_c, 4, 78, 127
6, 37628, Note_off_c, 4, 78, 100
6, 37824, Note_on_c, 4, 74, 127
6, 37884, Note_off_c, 4, 74, 100
6, 38016, Note_on_c, 4, 79, 127
6, 38300, Note_off_c, 4, 79, 100
6, 38304, Note_on_c, 4, 81, 127
6, 38396, Note_off_c, 4, 81, 100
6, 38400, Note_on_c, 4, 83, 127
6, 38780, Note_off_c, 4, 83, 100
6, 38976, Note_on_c, 4, 91, 127
6, 39036, Note_off_c, 4, 91, 100
6, 39168, Note_on_c, 4, 88, 127
6, 39452, Note_off_c, 4, 88, 100
6, 39456, Note_on_c, 4, 95, 127
6, 39548, Note_off_c, 4, 95, 100
6, 39552, Note_on_c, 4, 93, 127
6, 39932, Note_off_c, 4, 93, 100
6, 40128, Note_on_c, 4, 93, 127
6, 40188, Note_off_c, 4, 93, 100
6, 40320, Note_on_c, 4, 93, 127
6, 40604, Note_off_c, 4, 93, 100
6, 40608, Note_on_c, 4, 90, 127
6, 40700, Note_off_c, 4, 90, 100
6, 40704, Note_on_c, 4, 87, 127
6, 41084, Note_off_c, 4, 87, 100
6, 41280, Note_on_c, 4, 90, 127
6, 41340, Note_off_c, 4, 90, 100
6, 41472, Note_on_c, 4, 91, 127
6, 41756, Note_off_c, 4, 91, 100
6, 41760, Note_on_c, 4, 90, 127
6, 41852, Note_off_c, 4, 90, 100
6, 41856, Note_on_c, 4, 88, 127
6, 42236, Note_off_c, 4, 88, 100
6, 42432, Note_on_c, 4, 91, 127
6, 42492, Note_off_c, 4, 91, 100
6, 42624, Note_on_c, 4, 91, 127
6, 43004, Note_off_c, 4, 91, 100
6, 43008, Note_on_c, 4, 89, 127
6, 43388, Note_off_c, 4, 89, 100
6, 43584, Note_on_c, 4, 93, 127
6, 43644, Note_off_c, 4, 93, 100
6, 43776, Note_on_c, 4, 93, 127
6, 44060, Note_off_c, 4, 93, 100
6, 44064, Note_on_c, 4, 90, 127
6, 44156, Note_off_c, 4, 90, 100
6, 44160, Note_on_c, 4, 87, 127
6, 44540, Note_off_c, 4, 87, 100
6, 44736, Note_on_c, 4, 90, 127
6, 44796, Note_off_c, 4, 90, 100
6, 44928, Note_on_c, 4, 90, 127
6, 45212, Note_off_c, 4, 90, 100
6, 45216, Note_on_c, 4, 87, 127
6, 45308, Note_off_c, 4, 87, 100
6, 45312, Note_on_c, 4, 88, 127
6, 45692, Note_off_c, 4, 88, 100
6, 46080, Note_on_c, 4, 76, 127
6, 46268, Note_off_c, 4, 76, 100
6, 46368, Note_on_c, 4, 80, 127
6, 46460, Note_off_c, 4, 80, 100
6, 46464, Note_on_c, 4, 81, 127
6, 46748, Note_off_c, 4, 81, 100
6, 46752, Note_on_c, 4, 83, 127
6, 46844, Note_off_c, 4, 83, 100
6, 46848, Note_on_c, 4, 84, 127
6, 47420, Note_off_c, 4, 84, 100
6, 47520, Note_on_c, 4, 78, 127
6, 47612, Note_off_c, 4, 78, 100
6, 47616, Note_on_c, 4, 79, 127
6, 47900, Note_off_c, 4, 79, 100
6, 47904, Note_on_c, 4, 81, 127
6, 47996, Note_off_c, 4, 81, 100
6, 48000, Note_on_c, 4, 83, 127
6, 48572, Note_off_c, 4, 83, 100
6, 48672, Note_on_c, 4, 76, 127
6, 48764, Note_off_c, 4, 76, 100
6, 48768, Note_on_c, 4, 78, 127
6, 49052, Note_off_c, 4, 78, 100
6, 49056, Note_on_c, 4, 79, 127
6, 49148, Note_off_c, 4, 79, 100
6, 49152, Note_on_c, 4, 81, 127
6, 49436, Note_off_c, 4, 81, 100
6, 49440, Note_on_c, 4, 79, 127
6, 49504, Note_off_c, 4, 79, 100
6, 49536, Note_on_c, 4, 78, 127
6, 49596, Note_off_c, 4, 78, 100
6, 49600, Note_on_c, 4, 79, 127
6, 49660, Note_off_c, 4, 79, 100
6, 49664, Note_on_c, 4, 78, 127
6, 49724, Note_off_c, 4, 78, 100
6, 49728, Note_on_c, 4, 73, 127
6, 49788, Note_off_c, 4, 73, 100
6, 49792, Note_on_c, 4, 74, 127
6, 49852, Note_off_c, 4, 74, 100
6, 49856, Note_on_c, 4, 76, 127
6, 49916, Note_off_c, 4, 76, 100
6, 49920, Note_on_c, 4, 78, 127
6, 49980, Note_off_c, 4, 78, 100
6, 49984, Note_on_c, 4, 76, 127
6, 50044, Note_off_c, 4, 76, 100
6, 50048, Note_on_c, 4, 78, 127
6, 50108, Note_off_c, 4, 78, 100
6, 50112, Note_on_c, 4, 79, 127
6, 50172, Note_off_c, 4, 79, 100
6, 50176, Note_on_c, 4, 78, 127
6, 50236, Note_off_c, 4, 78, 100
6, 50240, Note_on_c, 4, 79, 127
6, 50300, Note_off_c, 4, 79, 100
6, 50304, Note_on_c, 4, 81, 127
6, 50364, Note_off_c, 4, 81, 100
6, 50368, Note_on_c, 4, 79, 127
6, 50428, Note_off_c, 4, 79, 100
6, 50432, Note_on_c, 4, 81, 127
6, 50492, Note_off_c, 4, 81, 100
6, 50496, Note_on_c, 4, 83, 127
6, 50556, Note_off_c, 4, 83, 100
6, 50560, Note_on_c, 4, 79, 127
6, 50620, Note_off_c, 4, 79, 100
6, 50624, Note_on_c, 4, 81, 127
6, 50684, Note_off_c, 4, 81, 100
6, 50688, Note_on_c, 4, 83, 127
6, 50748, Note_off_c, 4, 83, 100
6, 50752, Note_on_c, 4, 84, 127
6, 50812, Note_off_c, 4, 84, 100
6, 50816, Note_on_c, 4, 83, 127
6, 50876, Note_off_c, 4, 83, 100
6, 50880, Note_on_c, 4, 78, 127
6, 50940, Note_off_c, 4, 78, 100
6, 50944, Note_on_c, 4, 79, 127
6, 51004, Note_off_c, 4, 79, 100
6, 51008, Note_on_c, 4, 81, 127
6, 51068, Note_off_c, 4, 81, 100
6, 51072, Note_on_c, 4, 83, 127
6, 51132, Note_off_c, 4, 83, 100
6, 51136, Note_on_c, 4, 81, 127
6, 51196, Note_off_c, 4, 81, 100
6, 51200, Note_on_c, 4, 83, 127
6, 51260, Note_off_c, 4, 83, 100
6, 51264, Note_on_c, 4, 84, 127
6, 51324, Note_off_c, 4, 84, 100
6, 51328, Note_on_c, 4, 83, 127
6, 51388, Note_off_c, 4, 83, 100
6, 51392, Note_on_c, 4, 84, 127
6, 51452, Note_off_c, 4, 84, 100
6, 51456, Note_on_c, 4, 86, 127
6, 51516, Note_off_c, 4, 86, 100
6, 51520, Note_on_c, 4, 84, 127
6, 51580, Note_off_c, 4, 84, 100
6, 51584, Note_on_c, 4, 86, 127
6, 51644, Note_off_c, 4, 86, 100
6, 51648, Note_on_c, 4, 88, 127
6, 51708, Note_off_c, 4, 88, 100
6, 51712, Note_on_c, 4, 84, 127
6, 51772, Note_off_c, 4, 84, 100
6, 51776, Note_on_c, 4, 86, 127
6, 51836, Note_off_c, 4, 86, 100
6, 51840, Note_on_c, 4, 88, 127
6, 51900, Note_off_c, 4, 88, 100
6, 51904, Note_on_c, 4, 89, 127
6, 51964, Note_off_c, 4, 89, 100
6, 51968, Note_on_c, 4, 88, 127
6, 52028, Note_off_c, 4, 88, 100
6, 52032, Note_on_c, 4, 83, 127
6, 52092, Note_off_c, 4, 83, 100
6, 52096, Note_on_c, 4, 84, 127
6, 52156, Note_off_c, 4, 84, 100
6, 52160, Note_on_c, 4, 86, 127
6, 52220, Note_off_c, 4, 86, 100
6, 52224, Note_on_c, 4, 88, 127
6, 52284, Note_off_c, 4, 88, 100
6, 52288, Note_on_c, 4, 86, 127
6, 52348, Note_off_c, 4, 86, 100
6, 52352, Note_on_c, 4, 88, 127
6, 52412, Note_off_c, 4, 88, 100
6, 52416, Note_on_c, 4, 90, 127
6, 52476, Note_off_c, 4, 90, 100
6, 52480, Note_on_c, 4, 88, 127
6, 52540, Note_off_c, 4, 88, 100
6, 52544, Note_on_c, 4, 90, 127
6, 52604, Note_off_c, 4, 90, 100
6, 52608, Note_on_c, 4, 91, 127
6, 52668, Note_off_c, 4, 91, 100
6, 52672, Note_on_c, 4, 90, 127
6, 52732, Note_off_c, 4, 90, 100
6, 52736, Note_on_c, 4, 91, 127
6, 52796, Note_off_c, 4, 91, 100
6, 52800, Note_on_c, 4, 93, 127
6, 52860, Note_off_c, 4, 93, 100
6, 52864, Note_on_c, 4, 90, 127
6, 52924, Note_off_c, 4, 90, 100
6, 52928, Note_on_c, 4, 91, 127
6, 52988, Note_off_c, 4, 91, 100
6, 52992, Note_on_c, 4, 93, 127
6, 53052, Note_off_c, 4, 93, 100
6, 53056, Note_on_c, 4, 95, 127
6, 53116, Note_off_c, 4, 95, 100
6, 53120, Note_on_c, 4, 93, 127
6, 53180, Note_off_c, 4, 93, 100
6, 53184, Note_on_c, 4, 90, 127
6, 53244, Note_off_c, 4, 90, 100
6, 53248, Note_on_c, 4, 91, 127
6, 53308, Note_off_c, 4, 91, 100
6, 53312, Note_on_c, 4, 93, 127
6, 53372, Note_off_c, 4, 93, 100
6, 53376, Note_on_c, 4, 95, 127
6, 53436, Note_off_c, 4, 95, 100
6, 53440, Note_on_c, 4, 93, 127
6, 53500, Note_off_c, 4, 93, 100
6, 53504, Note_on_c, 4, 95, 127
6, 53564, Note_off_c, 4, 95, 100
6, 53568, Note_on_c, 4, 98, 127
6, 53628, Note_off_c, 4, 98, 100
6, 53632, Note_on_c, 4, 96, 127
6, 53692, Note_off_c, 4, 96, 100
6, 53696, Note_on_c, 4, 95, 127
6, 53756, Note_off_c, 4, 95, 100
6, 53760, Note_on_c, 4, 93, 127
6, 53820, Note_off_c, 4, 93, 100
6, 53824, Note_on_c, 4, 91, 127
6, 53884, Note_off_c, 4, 91, 100
6, 53888, Note_on_c, 4, 90, 127
6, 53948, Note_off_c, 4, 90, 100
6, 53952, Note_on_c, 4, 88, 127
6, 54012, Note_off_c, 4, 88, 100
6, 54016, Note_on_c, 4, 86, 127
6, 54076, Note_off_c, 4, 86, 100
6, 54080, Note_on_c, 4, 84, 127
6, 54140, Note_off_c, 4, 84, 100
6, 54144, Note_on_c, 4, 83, 127
6, 54204, Note_off_c, 4, 83, 100
6, 54208, Note_on_c, 4, 81, 127
6, 54268, Note_off_c, 4, 81, 100
6, 54272, Note_on_c, 4, 79, 127
6, 54332, Note_off_c, 4, 79, 100
6, 54336, Note_on_c, 4, 78, 127
6, 54396, Note_off_c, 4, 78, 100
6, 54400, Note_on_c, 4, 79, 127
6, 54460, Note_off_c, 4, 79, 100
6, 54464, Note_on_c, 4, 74, 127
6, 54524, Note_off_c, 4, 74, 100
6, 54528, Note_on_c, 4, 71, 127
6, 54716, Note_off_c, 4, 71, 100
6, 54716, End_track
7, 0, Start_track
7, 0, Title_t, "bdg@bruno-de-giusti.net"
7, 0, Control_c, 5, 0, 0
7, 0, Program_c, 5, 6
7, 0, Control_c, 5, 7, 127
7, 0, Control_c, 5, 10, 39
7, 0, Control_c, 5, 91, 127
7, 0, Key_signature, 1, "major"
7, 0, Note_on_c, 5, 79, 127
7, 380, Note_off_c, 5, 79, 100
7, 384, Note_on_c, 5, 74, 127
7, 764, Note_off_c, 5, 74, 100
7, 960, Note_on_c, 5, 79, 127
7, 1020, Note_off_c, 5, 79, 100
7, 1152, Note_on_c, 5, 79, 127
7, 1436, Note_off_c, 5, 79, 100
7, 1440, Note_on_c, 5, 76, 127
7, 1532, Note_off_c, 5, 76, 100
7, 1536, Note_on_c, 5, 78, 127
7, 1916, Note_off_c, 5, 78, 100
7, 2112, Note_on_c, 5, 81, 127
7, 2172, Note_off_c, 5, 81, 100
7, 2304, Note_on_c, 5, 83, 127
7, 2588, Note_off_c, 5, 83, 100
7, 2592, Note_on_c, 5, 79, 127
7, 2684, Note_off_c, 5, 79, 100
7, 2688, Note_on_c, 5, 76, 127
7, 3068, Note_off_c, 5, 76, 100
7, 3264, Note_on_c, 5, 69, 127
7, 3324, Note_off_c, 5, 69, 100
7, 3456, Note_on_c, 5, 74, 127
7, 3836, Note_off_c, 5, 74, 100
7, 3840, Note_on_c, 5, 74, 127
7, 4220, Note_off_c, 5, 74, 100
7, 4416, Note_on_c, 5, 72, 127
7, 4476, Note_off_c, 5, 72, 100
7, 4608, Note_on_c, 5, 71, 127
7, 4892, Note_off_c, 5, 71, 100
7, 4896, Note_on_c, 5, 72, 127
7, 4988, Note_off_c, 5, 72, 100
7, 4992, Note_on_c, 5, 74, 127
7, 5372, Note_off_c, 5, 74, 100
7, 5568, Note_on_c, 5, 67, 127
7, 5628, Note_off_c, 5, 67, 100
7, 5760, Note_on_c, 5, 72, 127
7, 6140, Note_off_c, 5, 72, 100
7, 6720, Note_on_c, 5, 67, 127
7, 6780, Note_off_c, 5, 67, 100
7, 7200, Note_on_c, 5, 67, 127
7, 7292, Note_off_c, 5, 67, 100
7, 7296, Note_on_c, 5, 69, 127
7, 7676, Note_off_c, 5, 69, 100
7, 8064, Note_on_c, 5, 67, 127
7, 8444, Note_off_c, 5, 67, 100
7, 11328, Note_on_c, 5, 67, 127
7, 11388, Note_off_c, 5, 67, 100
7, 11520, Note_on_c, 5, 67, 127
7, 11580, Note_off_c, 5, 67, 100
7, 11584, Note_on_c, 5, 69, 127
7, 11644, Note_off_c, 5, 69, 100
7, 11648, Note_on_c, 5, 67, 127
7, 11708, Note_off_c, 5, 67, 100
7, 11904, Note_on_c, 5, 67, 127
7, 11964, Note_off_c, 5, 67, 100
7, 12032, Note_on_c, 5, 67, 127
7, 12092, Note_off_c, 5, 67, 100
7, 12096, Note_on_c, 5, 69, 127
7, 12156, Note_off_c, 5, 69, 100
7, 12160, Note_on_c, 5, 67, 127
7, 12220, Note_off_c, 5, 67, 100
7, 12224, Note_on_c, 5, 69, 127
7, 12284, Note_off_c, 5, 69, 100
7, 12288, Note_on_c, 5, 71, 127
7, 12348, Note_off_c, 5, 71, 100
7, 12352, Note_on_c, 5, 69, 127
7, 12412, Note_off_c, 5, 69, 100
7, 12416, Note_on_c, 5, 71, 127
7, 12476, Note_off_c, 5, 71, 100
7, 12480, Note_on_c, 5, 73, 127
7, 12540, Note_off_c, 5, 73, 100
7, 12544, Note_on_c, 5, 69, 127
7, 12604, Note_off_c, 5, 69, 100
7, 12608, Note_on_c, 5, 71, 127
7, 12668, Note_off_c, 5, 71, 100
7, 12672, Note_on_c, 5, 73, 127
7, 12732, Note_off_c, 5, 73, 100
7, 12736, Note_on_c, 5, 74, 127
7, 12796, Note_off_c, 5, 74, 100
7, 12800, Note_on_c, 5, 73, 127
7, 12860, Note_off_c, 5, 73, 100
7, 12928, Note_on_c, 5, 69, 127
7, 12988, Note_off_c, 5, 69, 100
7, 12992, Note_on_c, 5, 71, 127
7, 13052, Note_off_c, 5, 71, 100
7, 13056, Note_on_c, 5, 73, 127
7, 13116, Note_off_c, 5, 73, 100
7, 13120, Note_on_c, 5, 71, 127
7, 13180, Note_off_c, 5, 71, 100
7, 13184, Note_on_c, 5, 73, 127
7, 13244, Note_off_c, 5, 73, 100
7, 13248, Note_on_c, 5, 74, 127
7, 13308, Note_off_c, 5, 74, 100
7, 13312, Note_on_c, 5, 73, 127
7, 13372, Note_off_c, 5, 73, 100
7, 13376, Note_on_c, 5, 74, 127
7, 13436, Note_off_c, 5, 74, 100
7, 13440, Note_on_c, 5, 76, 127
7, 13500, Note_off_c, 5, 76, 100
7, 13504, Note_on_c, 5, 74, 127
7, 13564, Note_off_c, 5, 74, 100
7, 13568, Note_on_c, 5, 76, 127
7, 13628, Note_off_c, 5, 76, 100
7, 13632, Note_on_c, 5, 78, 127
7, 13692, Note_off_c, 5, 78, 100
7, 13696, Note_on_c, 5, 74, 127
7, 13756, Note_off_c, 5, 74, 100
7, 13760, Note_on_c, 5, 76, 127
7, 13820, Note_off_c, 5, 76, 100
7, 13824, Note_on_c, 5, 78, 127
7, 13884, Note_off_c, 5, 78, 100
7, 13888, Note_on_c, 5, 76, 127
7, 13948, Note_off_c, 5, 76, 100
7, 13952, Note_on_c, 5, 78, 127
7, 14012, Note_off_c, 5, 78, 100
7, 14016, Note_on_c, 5, 81, 127
7, 14076, Note_off_c, 5, 81, 100
7, 14080, Note_on_c, 5, 79, 127
7, 14140, Note_off_c, 5, 79, 100
7, 14144, Note_on_c, 5, 81, 127
7, 14204, Note_off_c, 5, 81, 100
7, 14208, Note_on_c, 5, 74, 127
7, 14268, Note_off_c, 5, 74, 100
7, 14272, Note_on_c, 5, 73, 127
7, 14332, Note_off_c, 5, 73, 100
7, 14336, Note_on_c, 5, 74, 127
7, 14396, Note_off_c, 5, 74, 100
7, 14400, Note_on_c, 5, 78, 127
7, 14460, Note_off_c, 5, 78, 100
7, 14464, Note_on_c, 5, 81, 127
7, 14524, Note_off_c, 5, 81, 100
7, 14528, Note_on_c, 5, 83, 127
7, 14588, Note_off_c, 5, 83, 100
7, 14592, Note_on_c, 5, 84, 127
7, 14652, Note_off_c, 5, 84, 100
7, 14656, Note_on_c, 5, 83, 127
7, 14716, Note_off_c, 5, 83, 100
7, 14720, Note_on_c, 5, 84, 127
7, 14780, Note_off_c, 5, 84, 100
7, 14784, Note_on_c, 5, 81, 127
7, 14844, Note_off_c, 5, 81, 100
7, 14848, Note_on_c, 5, 78, 127
7, 14908, Note_off_c, 5, 78, 100
7, 14912, Note_on_c, 5, 81, 127
7, 14972, Note_off_c, 5, 81, 100
7, 14976, Note_on_c, 5, 79, 127
7, 15036, Note_off_c, 5, 79, 100
7, 15040, Note_on_c, 5, 78, 127
7, 15100, Note_off_c, 5, 78, 100
7, 15104, Note_on_c, 5, 79, 127
7, 15164, Note_off_c, 5, 79, 100
7, 15168, Note_on_c, 5, 83, 127
7, 15228, Note_off_c, 5, 83, 100
7, 15232, Note_on_c, 5, 81, 127
7, 15292, Note_off_c, 5, 81, 100
7, 15296, Note_on_c, 5, 83, 127
7, 15356, Note_off_c, 5, 83, 100
7, 15360, Note_on_c, 5, 76, 127
7, 15420, Note_off_c, 5, 76, 100
7, 15424, Note_on_c, 5, 75, 127
7, 15484, Note_off_c, 5, 75, 100
7, 15488, Note_on_c, 5, 76, 127
7, 15548, Note_off_c, 5, 76, 100
7, 15552, Note_on_c, 5, 79, 127
7, 15612, Note_off_c, 5, 79, 100
7, 15616, Note_on_c, 5, 83, 127
7, 15676, Note_off_c, 5, 83, 100
7, 15680, Note_on_c, 5, 85, 127
7, 15740, Note_off_c, 5, 85, 100
7, 15744, Note_on_c, 5, 86, 127
7, 15804, Note_off_c, 5, 86, 100
7, 15808, Note_on_c, 5, 85, 127
7, 15868, Note_off_c, 5, 85, 100
7, 15872, Note_on_c, 5, 86, 127
7, 15932, Note_off_c, 5, 86, 100
7, 15936, Note_on_c, 5, 83, 127
7, 15996, Note_off_c, 5, 83, 100
7, 16000, Note_on_c, 5, 79, 127
7, 16060, Note_off_c, 5, 79, 100
7, 16064, Note_on_c, 5, 83, 127
7, 16124, Note_off_c, 5, 83, 100
7, 16128, Note_on_c, 5, 85, 127
7, 16188, Note_off_c, 5, 85, 100
7, 16192, Note_on_c, 5, 83, 127
7, 16252, Note_off_c, 5, 83, 100
7, 16256, Note_on_c, 5, 85, 127
7, 16316, Note_off_c, 5, 85, 100
7, 16320, Note_on_c, 5, 88, 127
7, 16380, Note_off_c, 5, 88, 100
7, 16384, Note_on_c, 5, 86, 127
7, 16444, Note_off_c, 5, 86, 100
7, 16448, Note_on_c, 5, 88, 127
7, 16508, Note_off_c, 5, 88, 100
7, 16512, Note_on_c, 5, 81, 127
7, 16572, Note_off_c, 5, 81, 100
7, 16576, Note_on_c, 5, 80, 127
7, 16636, Note_off_c, 5, 80, 100
7, 16640, Note_on_c, 5, 81, 127
7, 16700, Note_off_c, 5, 81, 100
7, 16704, Note_on_c, 5, 85, 127
7, 16764, Note_off_c, 5, 85, 100
7, 16768, Note_on_c, 5, 88, 127
7, 16828, Note_off_c, 5, 88, 100
7, 16832, Note_on_c, 5, 90, 127
7, 16892, Note_off_c, 5, 90, 100
7, 16896, Note_on_c, 5, 91, 127
7, 16956, Note_off_c, 5, 91, 100
7, 16960, Note_on_c, 5, 90, 127
7, 17020, Note_off_c, 5, 90, 100
7, 17024, Note_on_c, 5, 91, 127
7, 17084, Note_off_c, 5, 91, 100
7, 17088, Note_on_c, 5, 88, 127
7, 17148, Note_off_c, 5, 88, 100
7, 17152, Note_on_c, 5, 85, 127
7, 17212, Note_off_c, 5, 85, 100
7, 17216, Note_on_c, 5, 88, 127
7, 17276, Note_off_c, 5, 88, 100
7, 17280, Note_on_c, 5, 90, 127
7, 17340, Note_off_c, 5, 90, 100
7, 17344, Note_on_c, 5, 88, 127
7, 17404, Note_off_c, 5, 88, 100
7, 17408, Note_on_c, 5, 90, 127
7, 17468, Note_off_c, 5, 90, 100
7, 17472, Note_on_c, 5, 93, 127
7, 17532, Note_off_c, 5, 93, 100
7, 17536, Note_on_c, 5, 91, 127
7, 17596, Note_off_c, 5, 91, 100
7, 17600, Note_on_c, 5, 93, 127
7, 17660, Note_off_c, 5, 93, 100
7, 17664, Note_on_c, 5, 86, 127
7, 17724, Note_off_c, 5, 86, 100
7, 17728, Note_on_c, 5, 85, 127
7, 17788, Note_off_c, 5, 85, 100
7, 17792, Note_on_c, 5, 86, 127
7, 17852, Note_off_c, 5, 86, 100
7, 17856, Note_on_c, 5, 90, 127
7, 17916, Note_off_c, 5, 90, 100
7, 17920, Note_on_c, 5, 93, 127
7, 17980, Note_off_c, 5, 93, 100
7, 17984, Note_on_c, 5, 97, 127
7, 18044, Note_off_c, 5, 97, 100
7, 18048, Note_on_c, 5, 98, 127
7, 18076, Note_off_c, 5, 98, 100
7, 18080, Note_on_c, 5, 97, 127
7, 18108, Note_off_c, 5, 97, 100
7, 18112, Note_on_c, 5, 98, 127
7, 18336, Note_off_c, 5, 98, 100
7, 36864, Note_on_c, 5, 93, 127
7, 36924, Note_off_c, 5, 93, 100
7, 36928, Note_on_c, 5, 91, 127
7, 36988, Note_off_c, 5, 91, 100
7, 36992, Note_on_c, 5, 93, 127
7, 37052, Note_off_c, 5, 93, 100
7, 37056, Note_on_c, 5, 98, 127
7, 37116, Note_off_c, 5, 98, 100
7, 37120, Note_on_c, 5, 96, 127
7, 37180, Note_off_c, 5, 96, 100
7, 37184, Note_on_c, 5, 95, 127
7, 37244, Note_off_c, 5, 95, 100
7, 37248, Note_on_c, 5, 93, 127
7, 37308, Note_off_c, 5, 93, 100
7, 37312, Note_on_c, 5, 95, 127
7, 37372, Note_off_c, 5, 95, 100
7, 37376, Note_on_c, 5, 93, 127
7, 37436, Note_off_c, 5, 93, 100
7, 37440, Note_on_c, 5, 91, 127
7, 37500, Note_off_c, 5, 91, 100
7, 37504, Note_on_c, 5, 93, 127
7, 37564, Note_off_c, 5, 93, 100
7, 37568, Note_on_c, 5, 91, 127
7, 37628, Note_off_c, 5, 91, 100
7, 37632, Note_on_c, 5, 90, 127
7, 37692, Note_off_c, 5, 90, 100
7, 37696, Note_on_c, 5, 91, 127
7, 37756, Note_off_c, 5, 91, 100
7, 37760, Note_on_c, 5, 90, 127
7, 37820, Note_off_c, 5, 90, 100
7, 37824, Note_on_c, 5, 88, 127
7, 37884, Note_off_c, 5, 88, 100
7, 37888, Note_on_c, 5, 90, 127
7, 37948, Note_off_c, 5, 90, 100
7, 37952, Note_on_c, 5, 88, 127
7, 38012, Note_off_c, 5, 88, 100
7, 38016, Note_on_c, 5, 86, 127
7, 38076, Note_off_c, 5, 86, 100
7, 38080, Note_on_c, 5, 84, 127
7, 38140, Note_off_c, 5, 84, 100
7, 38144, Note_on_c, 5, 86, 127
7, 38204, Note_off_c, 5, 86, 100
7, 38208, Note_on_c, 5, 91, 127
7, 38268, Note_off_c, 5, 91, 100
7, 38272, Note_on_c, 5, 90, 127
7, 38332, Note_off_c, 5, 90, 100
7, 38336, Note_on_c, 5, 88, 127
7, 38396, Note_off_c, 5, 88, 100
7, 38400, Note_on_c, 5, 86, 127
7, 38460, Note_off_c, 5, 86, 100
7, 38464, Note_on_c, 5, 88, 127
7, 38524, Note_off_c, 5, 88, 100
7, 38528, Note_on_c, 5, 86, 127
7, 38588, Note_off_c, 5, 86, 100
7, 38592, Note_on_c, 5, 84, 127
7, 38652, Note_off_c, 5, 84, 100
7, 38656, Note_on_c, 5, 86, 127
7, 38716, Note_off_c, 5, 86, 100
7, 38720, Note_on_c, 5, 84, 127
7, 38780, Note_off_c, 5, 84, 100
7, 38784, Note_on_c, 5, 83, 127
7, 38844, Note_off_c, 5, 83, 100
7, 38848, Note_on_c, 5, 84, 127
7, 38908, Note_off_c, 5, 84, 100
7, 38912, Note_on_c, 5, 83, 127
7, 38972, Note_off_c, 5, 83, 100
7, 38976, Note_on_c, 5, 81, 127
7, 39036, Note_off_c, 5, 81, 100
7, 39040, Note_on_c, 5, 83, 127
7, 39100, Note_off_c, 5, 83, 100
7, 39104, Note_on_c, 5, 81, 127
7, 39164, Note_off_c, 5, 81, 100
7, 39168, Note_on_c, 5, 79, 127
7, 39228, Note_off_c, 5, 79, 100
7, 39232, Note_on_c, 5, 78, 127
7, 39292, Note_off_c, 5, 78, 100
7, 39296, Note_on_c, 5, 79, 127
7, 39356, Note_off_c, 5, 79, 100
7, 39360, Note_on_c, 5, 83, 127
7, 39420, Note_off_c, 5, 83, 100
7, 39424, Note_on_c, 5, 81, 127
7, 39484, Note_off_c, 5, 81, 100
7, 39488, Note_on_c, 5, 79, 127
7, 39548, Note_off_c, 5, 79, 100
7, 39552, Note_on_c, 5, 78, 127
7, 39612, Note_off_c, 5, 78, 100
7, 39616, Note_on_c, 5, 79, 127
7, 39676, Note_off_c, 5, 79, 100
7, 39680, Note_on_c, 5, 78, 127
7, 39740, Note_off_c, 5, 78, 100
7, 39744, Note_on_c, 5, 76, 127
7, 39804, Note_off_c, 5, 76, 100
7, 39808, Note_on_c, 5, 78, 127
7, 39868, Note_off_c, 5, 78, 100
7, 39872, Note_on_c, 5, 76, 127
7, 39932, Note_off_c, 5, 76, 100
7, 39936, Note_on_c, 5, 75, 127
7, 39996, Note_off_c, 5, 75, 100
7, 40000, Note_on_c, 5, 76, 127
7, 40060, Note_off_c, 5, 76, 100
7, 40064, Note_on_c, 5, 75, 127
7, 40124, Note_off_c, 5, 75, 100
7, 40128, Note_on_c, 5, 73, 127
7, 40188, Note_off_c, 5, 73, 100
7, 40192, Note_on_c, 5, 75, 127
7, 40252, Note_off_c, 5, 75, 100
7, 40256, Note_on_c, 5, 73, 127
7, 40316, Note_off_c, 5, 73, 100
7, 40320, Note_on_c, 5, 71, 127
7, 40380, Note_off_c, 5, 71, 100
7, 40384, Note_on_c, 5, 70, 127
7, 40444, Note_off_c, 5, 70, 100
7, 40448, Note_on_c, 5, 71, 127
7, 40508, Note_off_c, 5, 71, 100
7, 40512, Note_on_c, 5, 76, 127
7, 40572, Note_off_c, 5, 76, 100
7, 40576, Note_on_c, 5, 75, 127
7, 40636, Note_off_c, 5, 75, 100
7, 40640, Note_on_c, 5, 73, 127
7, 40700, Note_off_c, 5, 73, 100
7, 40704, Note_on_c, 5, 71, 127
7, 40764, Note_off_c, 5, 71, 100
7, 40768, Note_on_c, 5, 72, 127
7, 40828, Note_off_c, 5, 72, 100
7, 40832, Note_on_c, 5, 71, 127
7, 40892, Note_off_c, 5, 71, 100
7, 40896, Note_on_c, 5, 69, 127
7, 40956, Note_off_c, 5, 69, 100
7, 40960, Note_on_c, 5, 71, 127
7, 41020, Note_off_c, 5, 71, 100
7, 41024, Note_on_c, 5, 69, 127
7, 41084, Note_off_c, 5, 69, 100
7, 41088, Note_on_c, 5, 67, 127
7, 41148, Note_off_c, 5, 67, 100
7, 41152, Note_on_c, 5, 69, 127
7, 41212, Note_off_c, 5, 69, 100
7, 41216, Note_on_c, 5, 67, 127
7, 41276, Note_off_c, 5, 67, 100
7, 41280, Note_on_c, 5, 66, 127
7, 41340, Note_off_c, 5, 66, 100
7, 41344, Note_on_c, 5, 67, 127
7, 41404, Note_off_c, 5, 67, 100
7, 41408, Note_on_c, 5, 66, 127
7, 41468, Note_off_c, 5, 66, 100
7, 41664, Note_on_c, 5, 71, 127
7, 41724, Note_off_c, 5, 71, 100
7, 41728, Note_on_c, 5, 69, 127
7, 41788, Note_off_c, 5, 69, 100
7, 41792, Note_on_c, 5, 71, 127
7, 41852, Note_off_c, 5, 71, 100
7, 41856, Note_on_c, 5, 67, 127
7, 41916, Note_off_c, 5, 67, 100
7, 41920, Note_on_c, 5, 66, 127
7, 41980, Note_off_c, 5, 66, 100
7, 41984, Note_on_c, 5, 67, 127
7, 42044, Note_off_c, 5, 67, 100
7, 42048, Note_on_c, 5, 71, 127
7, 42108, Note_off_c, 5, 71, 100
7, 42112, Note_on_c, 5, 76, 127
7, 42172, Note_off_c, 5, 76, 100
7, 42176, Note_on_c, 5, 78, 127
7, 42236, Note_off_c, 5, 78, 100
7, 42240, Note_on_c, 5, 79, 127
7, 42300, Note_off_c, 5, 79, 100
7, 42304, Note_on_c, 5, 78, 127
7, 42364, Note_off_c, 5, 78, 100
7, 42368, Note_on_c, 5, 79, 127
7, 42428, Note_off_c, 5, 79, 100
7, 42432, Note_on_c, 5, 76, 127
7, 42492, Note_off_c, 5, 76, 100
7, 42496, Note_on_c, 5, 75, 127
7, 42556, Note_off_c, 5, 75, 100
7, 42560, Note_on_c, 5, 76, 127
7, 42620, Note_off_c, 5, 76, 100
7, 42624, Note_on_c, 5, 72, 127
7, 42684, Note_off_c, 5, 72, 100
7, 42688, Note_on_c, 5, 71, 127
7, 42748, Note_off_c, 5, 71, 100
7, 42752, Note_on_c, 5, 72, 127
7, 42812, Note_off_c, 5, 72, 100
7, 42816, Note_on_c, 5, 76, 127
7, 42876, Note_off_c, 5, 76, 100
7, 42880, Note_on_c, 5, 74, 127
7, 42940, Note_off_c, 5, 74, 100
7, 42944, Note_on_c, 5, 76, 127
7, 43004, Note_off_c, 5, 76, 100
7, 43008, Note_on_c, 5, 69, 127
7, 43068, Note_off_c, 5, 69, 100
7, 43072, Note_on_c, 5, 68, 127
7, 43132, Note_off_c, 5, 68, 100
7, 43136, Note_on_c, 5, 69, 127
7, 43196, Note_off_c, 5, 69, 100
7, 43200, Note_on_c, 5, 72, 127
7, 43260, Note_off_c, 5, 72, 100
7, 43264, Note_on_c, 5, 77, 127
7, 43324, Note_off_c, 5, 77, 100
7, 43328, Note_on_c, 5, 81, 127
7, 43388, Note_off_c, 5, 81, 100
7, 43392, Note_on_c, 5, 84, 127
7, 43452, Note_off_c, 5, 84, 100
7, 43456, Note_on_c, 5, 83, 127
7, 43516, Note_off_c, 5, 83, 100
7, 43520, Note_on_c, 5, 84, 127
7, 43580, Note_off_c, 5, 84, 100
7, 43584, Note_on_c, 5, 81, 127
7, 43644, Note_off_c, 5, 81, 100
7, 43648, Note_on_c, 5, 77, 127
7, 43708, Note_off_c, 5, 77, 100
7, 43712, Note_on_c, 5, 81, 127
7, 43772, Note_off_c, 5, 81, 100
7, 43776, Note_on_c, 5, 75, 127
7, 43836, Note_off_c, 5, 75, 100
7, 43840, Note_on_c, 5, 73, 127
7, 43900, Note_off_c, 5, 73, 100
7, 43904, Note_on_c, 5, 75, 127
7, 43964, Note_off_c, 5, 75, 100
7, 43968, Note_on_c, 5, 78, 127
7, 44028, Note_off_c, 5, 78, 100
7, 44032, Note_on_c, 5, 76, 127
7, 44092, Note_off_c, 5, 76, 100
7, 44096, Note_on_c, 5, 78, 127
7, 44156, Note_off_c, 5, 78, 100
7, 44160, Note_on_c, 5, 71, 127
7, 44220, Note_off_c, 5, 71, 100
7, 44224, Note_on_c, 5, 70, 127
7, 44284, Note_off_c, 5, 70, 100
7, 44288, Note_on_c, 5, 71, 127
7, 44348, Note_off_c, 5, 71, 100
7, 44352, Note_on_c, 5, 75, 127
7, 44412, Note_off_c, 5, 75, 100
7, 44416, Note_on_c, 5, 78, 127
7, 44476, Note_off_c, 5, 78, 100
7, 44480, Note_on_c, 5, 79, 127
7, 44540, Note_off_c, 5, 79, 100
7, 44544, Note_on_c, 5, 81, 127
7, 44604, Note_off_c, 5, 81, 100
7, 44608, Note_on_c, 5, 79, 127
7, 44668, Note_off_c, 5, 79, 100
7, 44672, Note_on_c, 5, 81, 127
7, 44732, Note_off_c, 5, 81, 100
7, 44736, Note_on_c, 5, 78, 127
7, 44796, Note_off_c, 5, 78, 100
7, 44800, Note_on_c, 5, 75, 127
7, 44860, Note_off_c, 5, 75, 100
7, 44864, Note_on_c, 5, 78, 127
7, 44924, Note_off_c, 5, 78, 100
7, 44928, Note_on_c, 5, 79, 127
7, 44988, Note_off_c, 5, 79, 100
7, 44992, Note_on_c, 5, 78, 127
7, 45052, Note_off_c, 5, 78, 100
7, 45056, Note_on_c, 5, 79, 127
7, 45116, Note_off_c, 5, 79, 100
7, 45120, Note_on_c, 5, 83, 127
7, 45180, Note_off_c, 5, 83, 100
7, 45184, Note_on_c, 5, 81, 127
7, 45244, Note_off_c, 5, 81, 100
7, 45248, Note_on_c, 5, 83, 127
7, 45308, Note_off_c, 5, 83, 100
7, 45312, Note_on_c, 5, 76, 127
7, 45372, Note_off_c, 5, 76, 100
7, 45376, Note_on_c, 5, 75, 127
7, 45436, Note_off_c, 5, 75, 100
7, 45440, Note_on_c, 5, 76, 127
7, 45500, Note_off_c, 5, 76, 100
7, 45504, Note_on_c, 5, 79, 127
7, 45564, Note_off_c, 5, 79, 100
7, 45568, Note_on_c, 5, 83, 127
7, 45628, Note_off_c, 5, 83, 100
7, 45632, Note_on_c, 5, 87, 127
7, 45692, Note_off_c, 5, 87, 100
7, 45696, Note_on_c, 5, 88, 127
7, 45756, Note_off_c, 5, 88, 100
7, 45760, Note_on_c, 5, 84, 127
7, 45820, Note_off_c, 5, 84, 100
7, 45824, Note_on_c, 5, 83, 127
7, 45884, Note_off_c, 5, 83, 100
7, 45888, Note_on_c, 5, 81, 127
7, 45948, Note_off_c, 5, 81, 100
7, 45952, Note_on_c, 5, 79, 127
7, 46012, Note_off_c, 5, 79, 100
7, 46016, Note_on_c, 5, 78, 127
7, 46076, Note_off_c, 5, 78, 100
7, 46080, Note_on_c, 5, 76, 127
7, 46268, Note_off_c, 5, 76, 100
7, 46752, Note_on_c, 5, 91, 127
7, 46844, Note_off_c, 5, 91, 100
7, 46848, Note_on_c, 5, 90, 127
7, 47132, Note_off_c, 5, 90, 100
7, 47136, Note_on_c, 5, 88, 127
7, 47228, Note_off_c, 5, 88, 100
7, 47232, Note_on_c, 5, 86, 127
7, 47804, Note_off_c, 5, 86, 100
7, 47904, Note_on_c, 5, 89, 127
7, 47996, Note_off_c, 5, 89, 100
7, 48000, Note_on_c, 5, 88, 127
7, 48284, Note_off_c, 5, 88, 100
7, 48288, Note_on_c, 5, 86, 127
7, 48380, Note_off_c, 5, 86, 100
7, 48384, Note_on_c, 5, 84, 127
7, 49336, Note_off_c, 5, 84, 100
7, 49440, Note_on_c, 5, 84, 127
7, 49504, Note_off_c, 5, 84, 100
7, 49536, Note_on_c, 5, 84, 127
7, 49724, Note_off_c, 5, 84, 100
7, 50304, Note_on_c, 5, 78, 127
7, 50492, Note_off_c, 5, 78, 100
7, 50688, Note_on_c, 5, 79, 127
7, 50876, Note_off_c, 5, 79, 100
7, 51456, Note_on_c, 5, 83, 127
7, 51644, Note_off_c, 5, 83, 100
7, 51840, Note_on_c, 5, 84, 127
7, 52028, Note_off_c, 5, 84, 100
7, 52028, End_track
8, 0, Start_track
8, 0, Title_t, "www.bruno-de-giusti.net"
8, 0, Control_c, 6, 0, 0
8, 0, Program_c, 6, 6
8, 0, Control_c, 6, 7, 127
8, 0, Control_c, 6, 10, 42
8, 0, Control_c, 6, 91, 127
8, 0, Key_signature, 1, "major"
8, 0, Note_on_c, 6, 43, 96
8, 60, Note_off_c, 6, 43, 100
8, 64, Note_on_c, 6, 45, 96
8, 124, Note_off_c, 6, 45, 100
8, 128, Note_on_c, 6, 43, 96
8, 188, Note_off_c, 6, 43, 100
8, 192, Note_on_c, 6, 38, 96
8, 252, Note_off_c, 6, 38, 100
8, 256, Note_on_c, 6, 40, 96
8, 316, Note_off_c, 6, 40, 100
8, 320, Note_on_c, 6, 42, 96
8, 380, Note_off_c, 6, 42, 100
8, 384, Note_on_c, 6, 43, 96
8, 444, Note_off_c, 6, 43, 100
8, 448, Note_on_c, 6, 42, 96
8, 508, Note_off_c, 6, 42, 100
8, 512, Note_on_c, 6, 43, 96
8, 572, Note_off_c, 6, 43, 100
8, 576, Note_on_c, 6, 45, 96
8, 636, Note_off_c, 6, 45, 100
8, 640, Note_on_c, 6, 43, 96
8, 700, Note_off_c, 6, 43, 100
8, 704, Note_on_c, 6, 45, 96
8, 764, Note_off_c, 6, 45, 100
8, 768, Note_on_c, 6, 47, 96
8, 828, Note_off_c, 6, 47, 100
8, 832, Note_on_c, 6, 45, 96
8, 892, Note_off_c, 6, 45, 100
8, 896, Note_on_c, 6, 47, 96
8, 956, Note_off_c, 6, 47, 100
8, 960, Note_on_c, 6, 48, 96
8, 1020, Note_off_c, 6, 48, 100
8, 1024, Note_on_c, 6, 47, 96
8, 1084, Note_off_c, 6, 47, 100
8, 1088, Note_on_c, 6, 49, 96
8, 1148, Note_off_c, 6, 49, 100
8, 1152, Note_on_c, 6, 50, 96
8, 1212, Note_off_c, 6, 50, 100
8, 1216, Note_on_c, 6, 52, 96
8, 1276, Note_off_c, 6, 52, 100
8, 1280, Note_on_c, 6, 50, 96
8, 1340, Note_off_c, 6, 50, 100
8, 1344, Note_on_c, 6, 45, 96
8, 1404, Note_off_c, 6, 45, 100
8, 1408, Note_on_c, 6, 47, 96
8, 1468, Note_off_c, 6, 47, 100
8, 1472, Note_on_c, 6, 49, 96
8, 1532, Note_off_c, 6, 49, 100
8, 1536, Note_on_c, 6, 50, 96
8, 1596, Note_off_c, 6, 50, 100
8, 1600, Note_on_c, 6, 49, 96
8, 1660, Note_off_c, 6, 49, 100
8, 1664, Note_on_c, 6, 50, 96
8, 1724, Note_off_c, 6, 50, 100
8, 1728, Note_on_c, 6, 52, 96
8, 1788, Note_off_c, 6, 52, 100
8, 1792, Note_on_c, 6, 50, 96
8, 1852, Note_off_c, 6, 50, 100
8, 1856, Note_on_c, 6, 52, 96
8, 1916, Note_off_c, 6, 52, 100
8, 1920, Note_on_c, 6, 54, 96
8, 1980, Note_off_c, 6, 54, 100
8, 1984, Note_on_c, 6, 52, 96
8, 2044, Note_off_c, 6, 52, 100
8, 2048, Note_on_c, 6, 54, 96
8, 2108, Note_off_c, 6, 54, 100
8, 2112, Note_on_c, 6, 55, 96
8, 2172, Note_off_c, 6, 55, 100
8, 2176, Note_on_c, 6, 52, 96
8, 2236, Note_off_c, 6, 52, 100
8, 2240, Note_on_c, 6, 54, 96
8, 2300, Note_off_c, 6, 54, 100
8, 2304, Note_on_c, 6, 55, 96
8, 2364, Note_off_c, 6, 55, 100
8, 2368, Note_on_c, 6, 57, 96
8, 2428, Note_off_c, 6, 57, 100
8, 2432, Note_on_c, 6, 55, 96
8, 2492, Note_off_c, 6, 55, 100
8, 2496, Note_on_c, 6, 47, 96
8, 2556, Note_off_c, 6, 47, 100
8, 2560, Note_on_c, 6, 52, 96
8, 2620, Note_off_c, 6, 52, 100
8, 2624, Note_on_c, 6, 54, 96
8, 2684, Note_off_c, 6, 54, 100
8, 2688, Note_on_c, 6, 55, 96
8, 2748, Note_off_c, 6, 55, 100
8, 2752, Note_on_c, 6, 54, 96
8, 2812, Note_off_c, 6, 54, 100
8, 2816, Note_on_c, 6, 55, 96
8, 2876, Note_off_c, 6, 55, 100
8, 2880, Note_on_c, 6, 57, 96
8, 2940, Note_off_c, 6, 57, 100
8, 2944, Note_on_c, 6, 55, 96
8, 3004, Note_off_c, 6, 55, 100
8, 3008, Note_on_c, 6, 57, 96
8, 3068, Note_off_c, 6, 57, 100
8, 3072, Note_on_c, 6, 59, 96
8, 3132, Note_off_c, 6, 59, 100
8, 3136, Note_on_c, 6, 57, 96
8, 3196, Note_off_c, 6, 57, 100
8, 3200, Note_on_c, 6, 59, 96
8, 3260, Note_off_c, 6, 59, 100
8, 3264, Note_on_c, 6, 61, 96
8, 3324, Note_off_c, 6, 61, 100
8, 3328, Note_on_c, 6, 59, 96
8, 3388, Note_off_c, 6, 59, 100
8, 3392, Note_on_c, 6, 61, 96
8, 3452, Note_off_c, 6, 61, 100
8, 3456, Note_on_c, 6, 62, 96
8, 3516, Note_off_c, 6, 62, 100
8, 3520, Note_on_c, 6, 64, 96
8, 3580, Note_off_c, 6, 64, 100
8, 3584, Note_on_c, 6, 62, 96
8, 3644, Note_off_c, 6, 62, 100
8, 3648, Note_on_c, 6, 57, 96
8, 3708, Note_off_c, 6, 57, 100
8, 3712, Note_on_c, 6, 59, 96
8, 3772, Note_off_c, 6, 59, 100
8, 3776, Note_on_c, 6, 61, 96
8, 3836, Note_off_c, 6, 61, 100
8, 3840, Note_on_c, 6, 62, 96
8, 3900, Note_off_c, 6, 62, 100
8, 3904, Note_on_c, 6, 61, 96
8, 3964, Note_off_c, 6, 61, 100
8, 3968, Note_on_c, 6, 62, 96
8, 4028, Note_off_c, 6, 62, 100
8, 4032, Note_on_c, 6, 64, 96
8, 4092, Note_off_c, 6, 64, 100
8, 4096, Note_on_c, 6, 62, 96
8, 4156, Note_off_c, 6, 62, 100
8, 4160, Note_on_c, 6, 64, 96
8, 4220, Note_off_c, 6, 64, 100
8, 4224, Note_on_c, 6, 66, 96
8, 4284, Note_off_c, 6, 66, 100
8, 4288, Note_on_c, 6, 64, 96
8, 4348, Note_off_c, 6, 64, 100
8, 4352, Note_on_c, 6, 66, 96
8, 4412, Note_off_c, 6, 66, 100
8, 4416, Note_on_c, 6, 67, 96
8, 4476, Note_off_c, 6, 67, 100
8, 4480, Note_on_c, 6, 64, 96
8, 4540, Note_off_c, 6, 64, 100
8, 4544, Note_on_c, 6, 66, 96
8, 4604, Note_off_c, 6, 66, 100
8, 4608, Note_on_c, 6, 67, 96
8, 4668, Note_off_c, 6, 67, 100
8, 4672, Note_on_c, 6, 66, 96
8, 4732, Note_off_c, 6, 66, 100
8, 4736, Note_on_c, 6, 67, 96
8, 4796, Note_off_c, 6, 67, 100
8, 4800, Note_on_c, 6, 62, 96
8, 4860, Note_off_c, 6, 62, 100
8, 4864, Note_on_c, 6, 60, 96
8, 4924, Note_off_c, 6, 60, 100
8, 4928, Note_on_c, 6, 62, 96
8, 4988, Note_off_c, 6, 62, 100
8, 4992, Note_on_c, 6, 59, 96
8, 5052, Note_off_c, 6, 59, 100
8, 5056, Note_on_c, 6, 55, 96
8, 5116, Note_off_c, 6, 55, 100
8, 5120, Note_on_c, 6, 54, 96
8, 5180, Note_off_c, 6, 54, 100
8, 5184, Note_on_c, 6, 55, 96
8, 5244, Note_off_c, 6, 55, 100
8, 5248, Note_on_c, 6, 59, 96
8, 5308, Note_off_c, 6, 59, 100
8, 5312, Note_on_c, 6, 62, 96
8, 5372, Note_off_c, 6, 62, 100
8, 5376, Note_on_c, 6, 65, 96
8, 5436, Note_off_c, 6, 65, 100
8, 5440, Note_on_c, 6, 64, 96
8, 5500, Note_off_c, 6, 64, 100
8, 5504, Note_on_c, 6, 65, 96
8, 5564, Note_off_c, 6, 65, 100
8, 5568, Note_on_c, 6, 62, 96
8, 5628, Note_off_c, 6, 62, 100
8, 5632, Note_on_c, 6, 59, 96
8, 5692, Note_off_c, 6, 59, 100
8, 5696, Note_on_c, 6, 62, 96
8, 5756, Note_off_c, 6, 62, 100
8, 5760, Note_on_c, 6, 64, 96
8, 5820, Note_off_c, 6, 64, 100
8, 5824, Note_on_c, 6, 62, 96
8, 5884, Note_off_c, 6, 62, 100
8, 5888, Note_on_c, 6, 64, 96
8, 5948, Note_off_c, 6, 64, 100
8, 5952, Note_on_c, 6, 60, 96
8, 6012, Note_off_c, 6, 60, 100
8, 6016, Note_on_c, 6, 59, 96
8, 6076, Note_off_c, 6, 59, 100
8, 6080, Note_on_c, 6, 60, 96
8, 6140, Note_off_c, 6, 60, 100
8, 6144, Note_on_c, 6, 55, 96
8, 6204, Note_off_c, 6, 55, 100
8, 6208, Note_on_c, 6, 52, 96
8, 6268, Note_off_c, 6, 52, 100
8, 6272, Note_on_c, 6, 50, 96
8, 6332, Note_off_c, 6, 50, 100
8, 6336, Note_on_c, 6, 52, 96
8, 6396, Note_off_c, 6, 52, 100
8, 6400, Note_on_c, 6, 55, 96
8, 6460, Note_off_c, 6, 55, 100
8, 6464, Note_on_c, 6, 60, 96
8, 6524, Note_off_c, 6, 60, 100
8, 6528, Note_on_c, 6, 64, 96
8, 6588, Note_off_c, 6, 64, 100
8, 6592, Note_on_c, 6, 62, 96
8, 6652, Note_off_c, 6, 62, 100
8, 6656, Note_on_c, 6, 64, 96
8, 6716, Note_off_c, 6, 64, 100
8, 6720, Note_on_c, 6, 60, 96
8, 6780, Note_off_c, 6, 60, 100
8, 6784, Note_on_c, 6, 57, 96
8, 6844, Note_off_c, 6, 57, 100
8, 6848, Note_on_c, 6, 60, 96
8, 6908, Note_off_c, 6, 60, 100
8, 6912, Note_on_c, 6, 62, 96
8, 6972, Note_off_c, 6, 62, 100
8, 6976, Note_on_c, 6, 60, 96
8, 7036, Note_off_c, 6, 60, 100
8, 7040, Note_on_c, 6, 62, 96
8, 7100, Note_off_c, 6, 62, 100
8, 7104, Note_on_c, 6, 57, 96
8, 7164, Note_off_c, 6, 57, 100
8, 7168, Note_on_c, 6, 55, 96
8, 7228, Note_off_c, 6, 55, 100
8, 7232, Note_on_c, 6, 57, 96
8, 7292, Note_off_c, 6, 57, 100
8, 7296, Note_on_c, 6, 54, 96
8, 7356, Note_off_c, 6, 54, 100
8, 7360, Note_on_c, 6, 50, 96
8, 7420, Note_off_c, 6, 50, 100
8, 7424, Note_on_c, 6, 49, 96
8, 7484, Note_off_c, 6, 49, 100
8, 7488, Note_on_c, 6, 50, 96
8, 7548, Note_off_c, 6, 50, 100
8, 7552, Note_on_c, 6, 54, 96
8, 7612, Note_off_c, 6, 54, 100
8, 7616, Note_on_c, 6, 57, 96
8, 7676, Note_off_c, 6, 57, 100
8, 7680, Note_on_c, 6, 60, 96
8, 7740, Note_off_c, 6, 60, 100
8, 7744, Note_on_c, 6, 59, 96
8, 7804, Note_off_c, 6, 59, 100
8, 7808, Note_on_c, 6, 60, 96
8, 7868, Note_off_c, 6, 60, 100
8, 7872, Note_on_c, 6, 57, 96
8, 7932, Note_off_c, 6, 57, 100
8, 7936, Note_on_c, 6, 54, 96
8, 7996, Note_off_c, 6, 54, 100
8, 8000, Note_on_c, 6, 57, 96
8, 8060, Note_off_c, 6, 57, 100
8, 8064, Note_on_c, 6, 59, 96
8, 8124, Note_off_c, 6, 59, 100
8, 8128, Note_on_c, 6, 57, 96
8, 8188, Note_off_c, 6, 57, 100
8, 8192, Note_on_c, 6, 59, 96
8, 8252, Note_off_c, 6, 59, 100
8, 8256, Note_on_c, 6, 55, 96
8, 8316, Note_off_c, 6, 55, 100
8, 8320, Note_on_c, 6, 54, 96
8, 8380, Note_off_c, 6, 54, 100
8, 8384, Note_on_c, 6, 55, 96
8, 8444, Note_off_c, 6, 55, 100
8, 8448, Note_on_c, 6, 50, 96
8, 8508, Note_off_c, 6, 50, 100
8, 8512, Note_on_c, 6, 47, 96
8, 8572, Note_off_c, 6, 47, 100
8, 8576, Note_on_c, 6, 45, 96
8, 8636, Note_off_c, 6, 45, 100
8, 8640, Note_on_c, 6, 47, 96
8, 8700, Note_off_c, 6, 47, 100
8, 8704, Note_on_c, 6, 50, 96
8, 8764, Note_off_c, 6, 50, 100
8, 8768, Note_on_c, 6, 55, 96
8, 8828, Note_off_c, 6, 55, 100
8, 8832, Note_on_c, 6, 59, 96
8, 8892, Note_off_c, 6, 59, 100
8, 8896, Note_on_c, 6, 55, 96
8, 8956, Note_off_c, 6, 55, 100
8, 8960, Note_on_c, 6, 54, 96
8, 9020, Note_off_c, 6, 54, 100
8, 9024, Note_on_c, 6, 55, 96
8, 9084, Note_off_c, 6, 55, 100
8, 9088, Note_on_c, 6, 59, 96
8, 9148, Note_off_c, 6, 59, 100
8, 9152, Note_on_c, 6, 62, 96
8, 9212, Note_off_c, 6, 62, 100
8, 9216, Note_on_c, 6, 67, 96
8, 9500, Note_off_c, 6, 67, 100
8, 9504, Note_on_c, 6, 66, 96
8, 9548, Note_off_c, 6, 66, 100
8, 9552, Note_on_c, 6, 64, 96
8, 9596, Note_off_c, 6, 64, 100
8, 9600, Note_on_c, 6, 62, 96
8, 9980, Note_off_c, 6, 62, 100
8, 10176, Note_on_c, 6, 71, 96
8, 10236, Note_off_c, 6, 71, 100
8, 10368, Note_on_c, 6, 69, 96
8, 10748, Note_off_c, 6, 69, 100
8, 10752, Note_on_c, 6, 69, 96
8, 11132, Note_off_c, 6, 69, 100
8, 11328, Note_on_c, 6, 69, 96
8, 11388, Note_off_c, 6, 69, 100
8, 11520, Note_on_c, 6, 69, 96
8, 11900, Note_off_c, 6, 69, 100
8, 11904, Note_on_c, 6, 67, 96
8, 12284, Note_off_c, 6, 67, 100
8, 12480, Note_on_c, 6, 67, 96
8, 12540, Note_off_c, 6, 67, 100
8, 12672, Note_on_c, 6, 67, 96
8, 12956, Note_off_c, 6, 67, 100
8, 12960, Note_on_c, 6, 64, 96
8, 13052, Note_off_c, 6, 64, 100
8, 13056, Note_on_c, 6, 57, 96
8, 13436, Note_off_c, 6, 57, 100
8, 13632, Note_on_c, 6, 67, 96
8, 13692, Note_off_c, 6, 67, 100
8, 13824, Note_on_c, 6, 67, 96
8, 14108, Note_off_c, 6, 67, 100
8, 14112, Note_on_c, 6, 64, 96
8, 14204, Note_off_c, 6, 64, 100
8, 14208, Note_on_c, 6, 66, 96
8, 14588, Note_off_c, 6, 66, 100
8, 14784, Note_on_c, 6, 69, 96
8, 14844, Note_off_c, 6, 69, 100
8, 14976, Note_on_c, 6, 71, 96
8, 15260, Note_off_c, 6, 71, 100
8, 15264, Note_on_c, 6, 66, 96
8, 15356, Note_off_c, 6, 66, 100
8, 15360, Note_on_c, 6, 67, 96
8, 15740, Note_off_c, 6, 67, 100
8, 15936, Note_on_c, 6, 64, 96
8, 15936, Note_on_c, 6, 67, 96
8, 15996, Note_off_c, 6, 64, 100
8, 15996, Note_off_c, 6, 67, 100
8, 16128, Note_on_c, 6, 67, 96
8, 16508, Note_off_c, 6, 67, 100
8, 16512, Note_on_c, 6, 61, 96
8, 16892, Note_off_c, 6, 61, 100
8, 17088, Note_on_c, 6, 57, 96
8, 17148, Note_off_c, 6, 57, 100
8, 17280, Note_on_c, 6, 57, 96
8, 17564, Note_off_c, 6, 57, 100
8, 17568, Note_on_c, 6, 52, 96
8, 17660, Note_off_c, 6, 52, 100
8, 17664, Note_on_c, 6, 54, 96
8, 18044, Note_off_c, 6, 54, 100
8, 36864, Note_on_c, 6, 50, 96
8, 37244, Note_off_c, 6, 50, 100
8, 37248, Note_on_c, 6, 48, 96
8, 37628, Note_off_c, 6, 48, 100
8, 37824, Note_on_c, 6, 48, 96
8, 37884, Note_off_c, 6, 48, 100
8, 38016, Note_on_c, 6, 47, 96
8, 38300, Note_off_c, 6, 47, 100
8, 38304, Note_on_c, 6, 50, 96
8, 38396, Note_off_c, 6, 50, 100
8, 38400, Note_on_c, 6, 55, 96
8, 38780, Note_off_c, 6, 55, 100
8, 38976, Note_on_c, 6, 62, 96
8, 39036, Note_off_c, 6, 62, 100
8, 39168, Note_on_c, 6, 61, 96
8, 39548, Note_off_c, 6, 61, 100
8, 39552, Note_on_c, 6, 63, 96
8, 39932, Note_off_c, 6, 63, 100
8, 40128, Note_on_c, 6, 64, 96
8, 40188, Note_off_c, 6, 64, 100
8, 40320, Note_on_c, 6, 63, 96
8, 40700, Note_off_c, 6, 63, 100
8, 40704, Note_on_c, 6, 54, 96
8, 41084, Note_off_c, 6, 54, 100
8, 41280, Note_on_c, 6, 63, 96
8, 41340, Note_off_c, 6, 63, 100
8, 41472, Note_on_c, 6, 64, 96
8, 41852, Note_off_c, 6, 64, 100
8, 41856, Note_on_c, 6, 59, 96
8, 42236, Note_off_c, 6, 59, 100
8, 42432, Note_on_c, 6, 59, 96
8, 42492, Note_off_c, 6, 59, 100
8, 42624, Note_on_c, 6, 57, 96
8, 42908, Note_off_c, 6, 57, 100
8, 42912, Note_on_c, 6, 59, 96
8, 43004, Note_off_c, 6, 59, 100
8, 43008, Note_on_c, 6, 60, 96
8, 43388, Note_off_c, 6, 60, 100
8, 43584, Note_on_c, 6, 60, 96
8, 43644, Note_off_c, 6, 60, 100
8, 43776, Note_on_c, 6, 59, 96
8, 44156, Note_off_c, 6, 59, 100
8, 44160, Note_on_c, 6, 57, 96
8, 44540, Note_off_c, 6, 57, 100
8, 44736, Note_on_c, 6, 57, 96
8, 44796, Note_off_c, 6, 57, 100
8, 44928, Note_on_c, 6, 57, 96
8, 45212, Note_off_c, 6, 57, 100
8, 45216, Note_on_c, 6, 54, 96
8, 45308, Note_off_c, 6, 54, 100
8, 45312, Note_on_c, 6, 55, 96
8, 45692, Note_off_c, 6, 55, 100
8, 45760, Note_on_c, 6, 40, 96
8, 45820, Note_off_c, 6, 40, 100
8, 45824, Note_on_c, 6, 42, 96
8, 45884, Note_off_c, 6, 42, 100
8, 45888, Note_on_c, 6, 43, 96
8, 45948, Note_off_c, 6, 43, 100
8, 45952, Note_on_c, 6, 45, 96
8, 46012, Note_off_c, 6, 45, 100
8, 46016, Note_on_c, 6, 47, 96
8, 46076, Note_off_c, 6, 47, 100
8, 46080, Note_on_c, 6, 48, 96
8, 46140, Note_off_c, 6, 48, 100
8, 46144, Note_on_c, 6, 47, 96
8, 46204, Note_off_c, 6, 47, 100
8, 46208, Note_on_c, 6, 48, 96
8, 46268, Note_off_c, 6, 48, 100
8, 46272, Note_on_c, 6, 53, 96
8, 46332, Note_off_c, 6, 53, 100
8, 46336, Note_on_c, 6, 52, 96
8, 46396, Note_off_c, 6, 52, 100
8, 46400, Note_on_c, 6, 50, 96
8, 46460, Note_off_c, 6, 50, 100
8, 46464, Note_on_c, 6, 48, 96
8, 46524, Note_off_c, 6, 48, 100
8, 46528, Note_on_c, 6, 50, 96
8, 46588, Note_off_c, 6, 50, 100
8, 46592, Note_on_c, 6, 48, 96
8, 46652, Note_off_c, 6, 48, 100
8, 46656, Note_on_c, 6, 47, 96
8, 46716, Note_off_c, 6, 47, 100
8, 46720, Note_on_c, 6, 48, 96
8, 46780, Note_off_c, 6, 48, 100
8, 46784, Note_on_c, 6, 47, 96
8, 46844, Note_off_c, 6, 47, 100
8, 46848, Note_on_c, 6, 45, 96
8, 46908, Note_off_c, 6, 45, 100
8, 46912, Note_on_c, 6, 47, 96
8, 46972, Note_off_c, 6, 47, 100
8, 46976, Note_on_c, 6, 45, 96
8, 47036, Note_off_c, 6, 45, 100
8, 47040, Note_on_c, 6, 43, 96
8, 47100, Note_off_c, 6, 43, 100
8, 47104, Note_on_c, 6, 45, 96
8, 47164, Note_off_c, 6, 45, 100
8, 47168, Note_on_c, 6, 42, 96
8, 47228, Note_off_c, 6, 42, 100
8, 47232, Note_on_c, 6, 47, 96
8, 47292, Note_off_c, 6, 47, 100
8, 47296, Note_on_c, 6, 45, 96
8, 47356, Note_off_c, 6, 45, 100
8, 47360, Note_on_c, 6, 47, 96
8, 47420, Note_off_c, 6, 47, 100
8, 47424, Note_on_c, 6, 52, 96
8, 47484, Note_off_c, 6, 52, 100
8, 47488, Note_on_c, 6, 50, 96
8, 47548, Note_off_c, 6, 50, 100
8, 47552, Note_on_c, 6, 48, 96
8, 47612, Note_off_c, 6, 48, 100
8, 47616, Note_on_c, 6, 47, 96
8, 47676, Note_off_c, 6, 47, 100
8, 47680, Note_on_c, 6, 48, 96
8, 47740, Note_off_c, 6, 48, 100
8, 47744, Note_on_c, 6, 47, 96
8, 47804, Note_off_c, 6, 47, 100
8, 47808, Note_on_c, 6, 45, 96
8, 47868, Note_off_c, 6, 45, 100
8, 47872, Note_on_c, 6, 47, 96
8, 47932, Note_off_c, 6, 47, 100
8, 47936, Note_on_c, 6, 45, 96
8, 47996, Note_off_c, 6, 45, 100
8, 48000, Note_on_c, 6, 43, 96
8, 48060, Note_off_c, 6, 43, 100
8, 48064, Note_on_c, 6, 45, 96
8, 48124, Note_off_c, 6, 45, 100
8, 48128, Note_on_c, 6, 43, 96
8, 48188, Note_off_c, 6, 43, 100
8, 48192, Note_on_c, 6, 42, 96
8, 48252, Note_off_c, 6, 42, 100
8, 48256, Note_on_c, 6, 43, 96
8, 48316, Note_off_c, 6, 43, 100
8, 48320, Note_on_c, 6, 40, 96
8, 48380, Note_off_c, 6, 40, 100
8, 48384, Note_on_c, 6, 45, 96
8, 48444, Note_off_c, 6, 45, 100
8, 48448, Note_on_c, 6, 43, 96
8, 48508, Note_off_c, 6, 43, 100
8, 48512, Note_on_c, 6, 45, 96
8, 48572, Note_off_c, 6, 45, 100
8, 48576, Note_on_c, 6, 50, 96
8, 48636, Note_off_c, 6, 50, 100
8, 48640, Note_on_c, 6, 48, 96
8, 48700, Note_off_c, 6, 48, 100
8, 48704, Note_on_c, 6, 47, 96
8, 48764, Note_off_c, 6, 47, 100
8, 48768, Note_on_c, 6, 45, 96
8, 48828, Note_off_c, 6, 45, 100
8, 48832, Note_on_c, 6, 47, 96
8, 48892, Note_off_c, 6, 47, 100
8, 48896, Note_on_c, 6, 45, 96
8, 48956, Note_off_c, 6, 45, 100
8, 48960, Note_on_c, 6, 43, 96
8, 49020, Note_off_c, 6, 43, 100
8, 49024, Note_on_c, 6, 45, 96
8, 49084, Note_off_c, 6, 45, 100
8, 49088, Note_on_c, 6, 43, 96
8, 49148, Note_off_c, 6, 43, 100
8, 49152, Note_on_c, 6, 42, 96
8, 49212, Note_off_c, 6, 42, 100
8, 49216, Note_on_c, 6, 43, 96
8, 49276, Note_off_c, 6, 43, 100
8, 49280, Note_on_c, 6, 42, 96
8, 49340, Note_off_c, 6, 42, 100
8, 49344, Note_on_c, 6, 40, 96
8, 49404, Note_off_c, 6, 40, 100
8, 49408, Note_on_c, 6, 42, 96
8, 49468, Note_off_c, 6, 42, 100
8, 49472, Note_on_c, 6, 40, 96
8, 49532, Note_off_c, 6, 40, 100
8, 49536, Note_on_c, 6, 38, 96
8, 49596, Note_off_c, 6, 38, 100
8, 49600, Note_on_c, 6, 37, 96
8, 49660, Note_off_c, 6, 37, 100
8, 49664, Note_on_c, 6, 38, 96
8, 49724, Note_off_c, 6, 38, 100
8, 49728, Note_on_c, 6, 43, 96
8, 49788, Note_off_c, 6, 43, 100
8, 49792, Note_on_c, 6, 42, 96
8, 49852, Note_off_c, 6, 42, 100
8, 49856, Note_on_c, 6, 40, 96
8, 49916, Note_off_c, 6, 40, 100
8, 49920, Note_on_c, 6, 38, 96
8, 49980, Note_off_c, 6, 38, 100
8, 49984, Note_on_c, 6, 40, 96
8, 50044, Note_off_c, 6, 40, 100
8, 50048, Note_on_c, 6, 38, 96
8, 50108, Note_off_c, 6, 38, 100
8, 50112, Note_on_c, 6, 36, 96
8, 50172, Note_off_c, 6, 36, 100
8, 50176, Note_on_c, 6, 38, 96
8, 50236, Note_off_c, 6, 38, 100
8, 50240, Note_on_c, 6, 36, 96
8, 50300, Note_off_c, 6, 36, 100
8, 50304, Note_on_c, 6, 35, 96
8, 50364, Note_off_c, 6, 35, 100
8, 50368, Note_on_c, 6, 36, 96
8, 50428, Note_off_c, 6, 36, 100
8, 50432, Note_on_c, 6, 35, 96
8, 50492, Note_off_c, 6, 35, 100
8, 50496, Note_on_c, 6, 33, 96
8, 50556, Note_off_c, 6, 33, 100
8, 50560, Note_on_c, 6, 35, 96
8, 50620, Note_off_c, 6, 35, 100
8, 50624, Note_on_c, 6, 33, 96
8, 50684, Note_off_c, 6, 33, 100
8, 50688, Note_on_c, 6, 31, 96
8, 50748, Note_off_c, 6, 31, 100
8, 50752, Note_on_c, 6, 30, 96
8, 50812, Note_off_c, 6, 30, 100
8, 50816, Note_on_c, 6, 31, 96
8, 50876, Note_off_c, 6, 31, 100
8, 50880, Note_on_c, 6, 36, 96
8, 50940, Note_off_c, 6, 36, 100
8, 50944, Note_on_c, 6, 35, 96
8, 51004, Note_off_c, 6, 35, 100
8, 51008, Note_on_c, 6, 33, 96
8, 51068, Note_off_c, 6, 33, 100
8, 51072, Note_on_c, 6, 31, 96
8, 51132, Note_off_c, 6, 31, 100
8, 51136, Note_on_c, 6, 33, 96
8, 51196, Note_off_c, 6, 33, 100
8, 51200, Note_on_c, 6, 31, 96
8, 51260, Note_off_c, 6, 31, 100
8, 51264, Note_on_c, 6, 29, 96
8, 51324, Note_off_c, 6, 29, 100
8, 51328, Note_on_c, 6, 31, 96
8, 51388, Note_off_c, 6, 31, 100
8, 51392, Note_on_c, 6, 29, 96
8, 51452, Note_off_c, 6, 29, 100
8, 51456, Note_on_c, 6, 28, 96
8, 51516, Note_off_c, 6, 28, 100
8, 51520, Note_on_c, 6, 29, 96
8, 51580, Note_off_c, 6, 29, 100
8, 51584, Note_on_c, 6, 28, 96
8, 51644, Note_off_c, 6, 28, 100
8, 51648, Note_on_c, 6, 26, 96
8, 51708, Note_off_c, 6, 26, 100
8, 51712, Note_on_c, 6, 28, 96
8, 51772, Note_off_c, 6, 28, 100
8, 51776, Note_on_c, 6, 26, 96
8, 51836, Note_off_c, 6, 26, 100
8, 51840, Note_on_c, 6, 24, 96
8, 52028, Note_off_c, 6, 24, 100
8, 52032, Note_on_c, 6, 31, 96
8, 52092, Note_off_c, 6, 31, 100
8, 52096, Note_on_c, 6, 33, 96
8, 52156, Note_off_c, 6, 33, 100
8, 52160, Note_on_c, 6, 35, 96
8, 52220, Note_off_c, 6, 35, 100
8, 52224, Note_on_c, 6, 36, 96
8, 52284, Note_off_c, 6, 36, 100
8, 52288, Note_on_c, 6, 35, 96
8, 52348, Note_off_c, 6, 35, 100
8, 52352, Note_on_c, 6, 36, 96
8, 52412, Note_off_c, 6, 36, 100
8, 52416, Note_on_c, 6, 38, 96
8, 52476, Note_off_c, 6, 38, 100
8, 52480, Note_on_c, 6, 36, 96
8, 52540, Note_off_c, 6, 36, 100
8, 52544, Note_on_c, 6, 38, 96
8, 52604, Note_off_c, 6, 38, 100
8, 52608, Note_on_c, 6, 40, 96
8, 52668, Note_off_c, 6, 40, 100
8, 52672, Note_on_c, 6, 38, 96
8, 52732, Note_off_c, 6, 38, 100
8, 52736, Note_on_c, 6, 36, 96
8, 52796, Note_off_c, 6, 36, 100
8, 52800, Note_on_c, 6, 35, 96
8, 52860, Note_off_c, 6, 35, 100
8, 52864, Note_on_c, 6, 33, 96
8, 52924, Note_off_c, 6, 33, 100
8, 52928, Note_on_c, 6, 31, 96
8, 52988, Note_off_c, 6, 31, 100
8, 52992, Note_on_c, 6, 30, 96
8, 53052, Note_off_c, 6, 30, 100
8, 53056, Note_on_c, 6, 28, 96
8, 53116, Note_off_c, 6, 28, 100
8, 53120, Note_on_c, 6, 30, 96
8, 53180, Note_off_c, 6, 30, 100
8, 53184, Note_on_c, 6, 26, 96
8, 53244, Note_off_c, 6, 26, 100
8, 53248, Note_on_c, 6, 28, 96
8, 53308, Note_off_c, 6, 28, 100
8, 53312, Note_on_c, 6, 30, 96
8, 53372, Note_off_c, 6, 30, 100
8, 53376, Note_on_c, 6, 31, 96
8, 53436, Note_off_c, 6, 31, 100
8, 53440, Note_on_c, 6, 30, 96
8, 53500, Note_off_c, 6, 30, 100
8, 53504, Note_on_c, 6, 31, 96
8, 53564, Note_off_c, 6, 31, 100
8, 53568, Note_on_c, 6, 33, 96
8, 53628, Note_off_c, 6, 33, 100
8, 53632, Note_on_c, 6, 35, 96
8, 53692, Note_off_c, 6, 35, 100
8, 53696, Note_on_c, 6, 36, 96
8, 53756, Note_off_c, 6, 36, 100
8, 53760, Note_on_c, 6, 38, 96
8, 53820, Note_off_c, 6, 38, 100
8, 53824, Note_on_c, 6, 37, 96
8, 53884, Note_off_c, 6, 37, 100
8, 53888, Note_on_c, 6, 38, 96
8, 53948, Note_off_c, 6, 38, 100
8, 53952, Note_on_c, 6, 40, 96
8, 54012, Note_off_c, 6, 40, 100
8, 54016, Note_on_c, 6, 42, 96
8, 54076, Note_off_c, 6, 42, 100
8, 54080, Note_on_c, 6, 38, 96
8, 54140, Note_off_c, 6, 38, 100
8, 54144, Note_on_c, 6, 43, 96
8, 54332, Note_off_c, 6, 43, 100
8, 54592, Note_on_c, 6, 45, 96
8, 54652, Note_off_c, 6, 45, 100
8, 54656, Note_on_c, 6, 43, 96
8, 54716, Note_off_c, 6, 43, 100
8, 54720, Note_on_c, 6, 42, 96
8, 54780, Note_off_c, 6, 42, 100
8, 54784, Note_on_c, 6, 43, 96
8, 54844, Note_off_c, 6, 43, 100
8, 54848, Note_on_c, 6, 38, 96
8, 54908, Note_off_c, 6, 38, 100
8, 54912, Note_on_c, 6, 31, 96
8, 55168, Note_off_c, 6, 31, 100
8, 55168, End_track
9, 0, Start_track
9, 0, Title_t, "All rights reserved"
9, 0, Control_c, 7, 0, 0
9, 0, Program_c, 7, 6
9, 0, Control_c, 7, 7, 127
9, 0, Control_c, 7, 10, 127
9, 0, Control_c, 7, 91, 127
9, 0, Key_signature, 1, "major"
9, 0, Note_on_c, 7, 59, 96
9, 256, Note_off_c, 7, 59, 100
9, 384, Note_on_c, 7, 59, 96
9, 640, Note_off_c, 7, 59, 100
9, 960, Note_on_c, 7, 59, 96
9, 1020, Note_off_c, 7, 59, 100
9, 1152, Note_on_c, 7, 57, 96
9, 1408, Note_off_c, 7, 57, 100
9, 1536, Note_on_c, 7, 57, 96
9, 1792, Note_off_c, 7, 57, 100
9, 2112, Note_on_c, 7, 62, 96
9, 2172, Note_off_c, 7, 62, 100
9, 2304, Note_on_c, 7, 62, 96
9, 2560, Note_off_c, 7, 62, 100
9, 2656, Note_on_c, 7, 62, 96
9, 2684, Note_off_c, 7, 62, 100
9, 2688, Note_on_c, 7, 61, 96
9, 2716, Note_off_c, 7, 61, 100
9, 2720, Note_on_c, 7, 62, 96
9, 2748, Note_off_c, 7, 62, 100
9, 2752, Note_on_c, 7, 61, 96
9, 3036, Note_off_c, 7, 61, 100
9, 3264, Note_on_c, 7, 55, 96
9, 3324, Note_off_c, 7, 55, 100
9, 3456, Note_on_c, 7, 55, 96
9, 3740, Note_off_c, 7, 55, 100
9, 3744, Note_on_c, 7, 52, 96
9, 3836, Note_off_c, 7, 52, 100
9, 3840, Note_on_c, 7, 54, 96
9, 4220, Note_off_c, 7, 54, 100
9, 4416, Note_on_c, 7, 57, 96
9, 4476, Note_off_c, 7, 57, 100
9, 4608, Note_on_c, 7, 50, 96
9, 4892, Note_off_c, 7, 50, 100
9, 4896, Note_on_c, 7, 52, 96
9, 4988, Note_off_c, 7, 52, 100
9, 4992, Note_on_c, 7, 53, 96
9, 5372, Note_off_c, 7, 53, 100
9, 5568, Note_on_c, 7, 55, 96
9, 5628, Note_off_c, 7, 55, 100
9, 5760, Note_on_c, 7, 55, 96
9, 6044, Note_off_c, 7, 55, 100
9, 6048, Note_on_c, 7, 52, 96
9, 6140, Note_off_c, 7, 52, 100
9, 6144, Note_on_c, 7, 48, 96
9, 6524, Note_off_c, 7, 48, 100
9, 6720, Note_on_c, 7, 52, 96
9, 6780, Note_off_c, 7, 52, 100
9, 6912, Note_on_c, 7, 45, 96
9, 7196, Note_off_c, 7, 45, 100
9, 7200, Note_on_c, 7, 47, 96
9, 7292, Note_off_c, 7, 47, 100
9, 7296, Note_on_c, 7, 48, 96
9, 7676, Note_off_c, 7, 48, 100
9, 7872, Note_on_c, 7, 50, 96
9, 7932, Note_off_c, 7, 50, 100
9, 8064, Note_on_c, 7, 50, 96
9, 8348, Note_off_c, 7, 50, 100
9, 8352, Note_on_c, 7, 47, 96
9, 8444, Note_off_c, 7, 47, 100
9, 8448, Note_on_c, 7, 43, 96
9, 8828, Note_off_c, 7, 43, 100
9, 9216, Note_on_c, 7, 59, 96
9, 9472, Note_off_c, 7, 59, 100
9, 9600, Note_on_c, 7, 59, 96
9, 9856, Note_off_c, 7, 59, 100
9, 10176, Note_on_c, 7, 67, 96
9, 10236, Note_off_c, 7, 67, 100
9, 10368, Note_on_c, 7, 67, 96
9, 10652, Note_off_c, 7, 67, 100
9, 10656, Note_on_c, 7, 64, 96
9, 10748, Note_off_c, 7, 64, 100
9, 10752, Note_on_c, 7, 66, 96
9, 11132, Note_off_c, 7, 66, 100
9, 11328, Note_on_c, 7, 60, 96
9, 11388, Note_off_c, 7, 60, 100
9, 11520, Note_on_c, 7, 59, 96
9, 11804, Note_off_c, 7, 59, 100
9, 11808, Note_on_c, 7, 63, 96
9, 11900, Note_off_c, 7, 63, 100
9, 11904, Note_on_c, 7, 64, 96
9, 12284, Note_off_c, 7, 64, 100
9, 12480, Note_on_c, 7, 64, 96
9, 12540, Note_off_c, 7, 64, 100
9, 12672, Note_on_c, 7, 57, 96
9, 12956, Note_off_c, 7, 57, 100
9, 12960, Note_on_c, 7, 61, 96
9, 13052, Note_off_c, 7, 61, 100
9, 13056, Note_on_c, 7, 52, 96
9, 13436, Note_off_c, 7, 52, 100
9, 13632, Note_on_c, 7, 61, 96
9, 13692, Note_off_c, 7, 61, 100
9, 13824, Note_on_c, 7, 61, 96
9, 14204, Note_off_c, 7, 61, 100
9, 14208, Note_on_c, 7, 62, 96
9, 14588, Note_off_c, 7, 62, 100
9, 14784, Note_on_c, 7, 62, 96
9, 14844, Note_off_c, 7, 62, 100
9, 14976, Note_on_c, 7, 62, 96
9, 15356, Note_off_c, 7, 62, 100
9, 15360, Note_on_c, 7, 62, 96
9, 15740, Note_off_c, 7, 62, 100
9, 16128, Note_on_c, 7, 57, 96
9, 16412, Note_off_c, 7, 57, 100
9, 16416, Note_on_c, 7, 55, 96
9, 16460, Note_off_c, 7, 55, 100
9, 16464, Note_on_c, 7, 54, 96
9, 16508, Note_off_c, 7, 54, 100
9, 16512, Note_on_c, 7, 52, 96
9, 16892, Note_off_c, 7, 52, 100
9, 17088, Note_on_c, 7, 45, 96
9, 17148, Note_off_c, 7, 45, 100
9, 17280, Note_on_c, 7, 50, 96
9, 17660, Note_off_c, 7, 50, 100
9, 17664, Note_on_c, 7, 50, 96
9, 18044, Note_off_c, 7, 50, 100
9, 36864, Note_on_c, 7, 54, 96
9, 37148, Note_off_c, 7, 54, 100
9, 37152, Note_on_c, 7, 52, 96
9, 37244, Note_off_c, 7, 52, 100
9, 37248, Note_on_c, 7, 54, 96
9, 37628, Note_off_c, 7, 54, 100
9, 37824, Note_on_c, 7, 50, 96
9, 37884, Note_off_c, 7, 50, 100
9, 38016, Note_on_c, 7, 55, 96
9, 38300, Note_off_c, 7, 55, 100
9, 38304, Note_on_c, 7, 57, 96
9, 38396, Note_off_c, 7, 57, 100
9, 38400, Note_on_c, 7, 59, 96
9, 38780, Note_off_c, 7, 59, 100
9, 38976, Note_on_c, 7, 67, 96
9, 39036, Note_off_c, 7, 67, 100
9, 39168, Note_on_c, 7, 64, 96
9, 39452, Note_off_c, 7, 64, 100
9, 39456, Note_on_c, 7, 71, 96
9, 39548, Note_off_c, 7, 71, 100
9, 39552, Note_on_c, 7, 69, 96
9, 39932, Note_off_c, 7, 69, 100
9, 40128, Note_on_c, 7, 69, 96
9, 40188, Note_off_c, 7, 69, 100
9, 40320, Note_on_c, 7, 69, 96
9, 40604, Note_off_c, 7, 69, 100
9, 40608, Note_on_c, 7, 66, 96
9, 40700, Note_off_c, 7, 66, 100
9, 40704, Note_on_c, 7, 63, 96
9, 41084, Note_off_c, 7, 63, 100
9, 41280, Note_on_c, 7, 66, 96
9, 41340, Note_off_c, 7, 66, 100
9, 41472, Note_on_c, 7, 67, 96
9, 41756, Note_off_c, 7, 67, 100
9, 41760, Note_on_c, 7, 66, 96
9, 41852, Note_off_c, 7, 66, 100
9, 41856, Note_on_c, 7, 64, 96
9, 42236, Note_off_c, 7, 64, 100
9, 42432, Note_on_c, 7, 67, 96
9, 42492, Note_off_c, 7, 67, 100
9, 42624, Note_on_c, 7, 67, 96
9, 43004, Note_off_c, 7, 67, 100
9, 43008, Note_on_c, 7, 65, 96
9, 43388, Note_off_c, 7, 65, 100
9, 43584, Note_on_c, 7, 69, 96
9, 43644, Note_off_c, 7, 69, 100
9, 43776, Note_on_c, 7, 69, 96
9, 44060, Note_off_c, 7, 69, 100
9, 44064, Note_on_c, 7, 66, 96
9, 44156, Note_off_c, 7, 66, 100
9, 44160, Note_on_c, 7, 63, 96
9, 44540, Note_off_c, 7, 63, 100
9, 44736, Note_on_c, 7, 66, 96
9, 44796, Note_off_c, 7, 66, 100
9, 44928, Note_on_c, 7, 66, 96
9, 45212, Note_off_c, 7, 66, 100
9, 45216, Note_on_c, 7, 63, 96
9, 45308, Note_off_c, 7, 63, 100
9, 45312, Note_on_c, 7, 64, 96
9, 45692, Note_off_c, 7, 64, 100
9, 46080, Note_on_c, 7, 52, 96
9, 46268, Note_off_c, 7, 52, 100
9, 46368, Note_on_c, 7, 56, 96
9, 46460, Note_off_c, 7, 56, 100
9, 46464, Note_on_c, 7, 57, 96
9, 46748, Note_off_c, 7, 57, 100
9, 46752, Note_on_c, 7, 59, 96
9, 46844, Note_off_c, 7, 59, 100
9, 46848, Note_on_c, 7, 60, 96
9, 47420, Note_off_c, 7, 60, 100
9, 47520, Note_on_c, 7, 54, 96
9, 47612, Note_off_c, 7, 54, 100
9, 47616, Note_on_c, 7, 55, 96
9, 47900, Note_off_c, 7, 55, 100
9, 47904, Note_on_c, 7, 57, 96
9, 47996, Note_off_c, 7, 57, 100
9, 48000, Note_on_c, 7, 59, 96
9, 48572, Note_off_c, 7, 59, 100
9, 48672, Note_on_c, 7, 52, 96
9, 48764, Note_off_c, 7, 52, 100
9, 48768, Note_on_c, 7, 54, 96
9, 49052, Note_off_c, 7, 54, 100
9, 49056, Note_on_c, 7, 55, 96
9, 49148, Note_off_c, 7, 55, 100
9, 49152, Note_on_c, 7, 57, 96
9, 49436, Note_off_c, 7, 57, 100
9, 49440, Note_on_c, 7, 55, 96
9, 49504, Note_off_c, 7, 55, 100
9, 49536, Note_on_c, 7, 54, 96
9, 49596, Note_off_c, 7, 54, 100
9, 49600, Note_on_c, 7, 55, 96
9, 49660, Note_off_c, 7, 55, 100
9, 49664, Note_on_c, 7, 54, 96
9, 49724, Note_off_c, 7, 54, 100
9, 49728, Note_on_c, 7, 49, 96
9, 49788, Note_off_c, 7, 49, 100
9, 49792, Note_on_c, 7, 50, 96
9, 49852, Note_off_c, 7, 50, 100
9, 49856, Note_on_c, 7, 52, 96
9, 49916, Note_off_c, 7, 52, 100
9, 49920, Note_on_c, 7, 54, 96
9, 49980, Note_off_c, 7, 54, 100
9, 49984, Note_on_c, 7, 52, 96
9, 50044, Note_off_c, 7, 52, 100
9, 50048, Note_on_c, 7, 54, 96
9, 50108, Note_off_c, 7, 54, 100
9, 50112, Note_on_c, 7, 55, 96
9, 50172, Note_off_c, 7, 55, 100
9, 50176, Note_on_c, 7, 54, 96
9, 50236, Note_off_c, 7, 54, 100
9, 50240, Note_on_c, 7, 55, 96
9, 50300, Note_off_c, 7, 55, 100
9, 50304, Note_on_c, 7, 57, 96
9, 50364, Note_off_c, 7, 57, 100
9, 50368, Note_on_c, 7, 55, 96
9, 50428, Note_off_c, 7, 55, 100
9, 50432, Note_on_c, 7, 57, 96
9, 50492, Note_off_c, 7, 57, 100
9, 50496, Note_on_c, 7, 59, 96
9, 50556, Note_off_c, 7, 59, 100
9, 50560, Note_on_c, 7, 55, 96
9, 50620, Note_off_c, 7, 55, 100
9, 50624, Note_on_c, 7, 57, 96
9, 50684, Note_off_c, 7, 57, 100
9, 50688, Note_on_c, 7, 59, 96
9, 50748, Note_off_c, 7, 59, 100
9, 50752, Note_on_c, 7, 60, 96
9, 50812, Note_off_c, 7, 60, 100
9, 50816, Note_on_c, 7, 59, 96
9, 50876, Note_off_c, 7, 59, 100
9, 50880, Note_on_c, 7, 54, 96
9, 50940, Note_off_c, 7, 54, 100
9, 50944, Note_on_c, 7, 55, 96
9, 51004, Note_off_c, 7, 55, 100
9, 51008, Note_on_c, 7, 57, 96
9, 51068, Note_off_c, 7, 57, 100
9, 51072, Note_on_c, 7, 59, 96
9, 51132, Note_off_c, 7, 59, 100
9, 51136, Note_on_c, 7, 57, 96
9, 51196, Note_off_c, 7, 57, 100
9, 51200, Note_on_c, 7, 59, 96
9, 51260, Note_off_c, 7, 59, 100
9, 51264, Note_on_c, 7, 60, 96
9, 51324, Note_off_c, 7, 60, 100
9, 51328, Note_on_c, 7, 59, 96
9, 51388, Note_off_c, 7, 59, 100
9, 51392, Note_on_c, 7, 60, 96
9, 51452, Note_off_c, 7, 60, 100
9, 51456, Note_on_c, 7, 62, 96
9, 51516, Note_off_c, 7, 62, 100
9, 51520, Note_on_c, 7, 60, 96
9, 51580, Note_off_c, 7, 60, 100
9, 51584, Note_on_c, 7, 62, 96
9, 51644, Note_off_c, 7, 62, 100
9, 51648, Note_on_c, 7, 64, 96
9, 51708, Note_off_c, 7, 64, 100
9, 51712, Note_on_c, 7, 60, 96
9, 51772, Note_off_c, 7, 60, 100
9, 51776, Note_on_c, 7, 62, 96
9, 51836, Note_off_c, 7, 62, 100
9, 51840, Note_on_c, 7, 64, 96
9, 51900, Note_off_c, 7, 64, 100
9, 51904, Note_on_c, 7, 65, 96
9, 51964, Note_off_c, 7, 65, 100
9, 51968, Note_on_c, 7, 64, 96
9, 52028, Note_off_c, 7, 64, 100
9, 52032, Note_on_c, 7, 59, 96
9, 52092, Note_off_c, 7, 59, 100
9, 52096, Note_on_c, 7, 60, 96
9, 52156, Note_off_c, 7, 60, 100
9, 52160, Note_on_c, 7, 62, 96
9, 52220, Note_off_c, 7, 62, 100
9, 52224, Note_on_c, 7, 64, 96
9, 52284, Note_off_c, 7, 64, 100
9, 52288, Note_on_c, 7, 62, 96
9, 52348, Note_off_c, 7, 62, 100
9, 52352, Note_on_c, 7, 64, 96
9, 52412, Note_off_c, 7, 64, 100
9, 52416, Note_on_c, 7, 66, 96
9, 52476, Note_off_c, 7, 66, 100
9, 52480, Note_on_c, 7, 64, 96
9, 52540, Note_off_c, 7, 64, 100
9, 52544, Note_on_c, 7, 66, 96
9, 52604, Note_off_c, 7, 66, 100
9, 52608, Note_on_c, 7, 67, 96
9, 52668, Note_off_c, 7, 67, 100
9, 52672, Note_on_c, 7, 66, 96
9, 52732, Note_off_c, 7, 66, 100
9, 52736, Note_on_c, 7, 67, 96
9, 52796, Note_off_c, 7, 67, 100
9, 52800, Note_on_c, 7, 69, 96
9, 52860, Note_off_c, 7, 69, 100
9, 52864, Note_on_c, 7, 66, 96
9, 52924, Note_off_c, 7, 66, 100
9, 52928, Note_on_c, 7, 67, 96
9, 52988, Note_off_c, 7, 67, 100
9, 52992, Note_on_c, 7, 69, 96
9, 53052, Note_off_c, 7, 69, 100
9, 53056, Note_on_c, 7, 71, 96
9, 53116, Note_off_c, 7, 71, 100
9, 53120, Note_on_c, 7, 69, 96
9, 53180, Note_off_c, 7, 69, 100
9, 53184, Note_on_c, 7, 66, 96
9, 53244, Note_off_c, 7, 66, 100
9, 53248, Note_on_c, 7, 67, 96
9, 53308, Note_off_c, 7, 67, 100
9, 53312, Note_on_c, 7, 69, 96
9, 53372, Note_off_c, 7, 69, 100
9, 53376, Note_on_c, 7, 71, 96
9, 53436, Note_off_c, 7, 71, 100
9, 53440, Note_on_c, 7, 69, 96
9, 53500, Note_off_c, 7, 69, 100
9, 53504, Note_on_c, 7, 71, 96
9, 53564, Note_off_c, 7, 71, 100
9, 53568, Note_on_c, 7, 74, 96
9, 53628, Note_off_c, 7, 74, 100
9, 53632, Note_on_c, 7, 72, 96
9, 53692, Note_off_c, 7, 72, 100
9, 53696, Note_on_c, 7, 71, 96
9, 53756, Note_off_c, 7, 71, 100
9, 53760, Note_on_c, 7, 69, 96
9, 53820, Note_off_c, 7, 69, 100
9, 53824, Note_on_c, 7, 67, 96
9, 53884, Note_off_c, 7, 67, 100
9, 53888, Note_on_c, 7, 66, 96
9, 53948, Note_off_c, 7, 66, 100
9, 53952, Note_on_c, 7, 64, 96
9, 54012, Note_off_c, 7, 64, 100
9, 54016, Note_on_c, 7, 62, 96
9, 54076, Note_off_c, 7, 62, 100
9, 54080, Note_on_c, 7, 60, 96
9, 54140, Note_off_c, 7, 60, 100
9, 54144, Note_on_c, 7, 59, 96
9, 54204, Note_off_c, 7, 59, 100
9, 54208, Note_on_c, 7, 57, 96
9, 54268, Note_off_c, 7, 57, 100
9, 54272, Note_on_c, 7, 55, 96
9, 54332, Note_off_c, 7, 55, 100
9, 54336, Note_on_c, 7, 54, 96
9, 54396, Note_off_c, 7, 54, 100
9, 54400, Note_on_c, 7, 55, 96
9, 54460, Note_off_c, 7, 55, 100
9, 54464, Note_on_c, 7, 50, 96
9, 54524, Note_off_c, 7, 50, 100
9, 54528, Note_on_c, 7, 47, 96
9, 54716, Note_off_c, 7, 47, 100
9, 54716, End_track
10, 0, Start_track
10, 0, Control_c, 8, 0, 0
10, 0, Program_c, 8, 6
10, 0, Control_c, 8, 7, 127
10, 0, Control_c, 8, 10, 87
10, 0, Control_c, 8, 91, 127
10, 0, Key_signature, 1, "major"
10, 0, Note_on_c, 8, 55, 96
10, 380, Note_off_c, 8, 55, 100
10, 384, Note_on_c, 8, 50, 96
10, 764, Note_off_c, 8, 50, 100
10, 960, Note_on_c, 8, 55, 96
10, 1020, Note_off_c, 8, 55, 100
10, 1152, Note_on_c, 8, 55, 96
10, 1436, Note_off_c, 8, 55, 100
10, 1440, Note_on_c, 8, 52, 96
10, 1532, Note_off_c, 8, 52, 100
10, 1536, Note_on_c, 8, 54, 96
10, 1916, Note_off_c, 8, 54, 100
10, 2112, Note_on_c, 8, 57, 96
10, 2172, Note_off_c, 8, 57, 100
10, 2304, Note_on_c, 8, 59, 96
10, 2588, Note_off_c, 8, 59, 100
10, 2592, Note_on_c, 8, 55, 96
10, 2684, Note_off_c, 8, 55, 100
10, 2688, Note_on_c, 8, 52, 96
10, 3068, Note_off_c, 8, 52, 100
10, 3264, Note_on_c, 8, 45, 96
10, 3324, Note_off_c, 8, 45, 100
10, 3456, Note_on_c, 8, 50, 96
10, 3836, Note_off_c, 8, 50, 100
10, 3840, Note_on_c, 8, 50, 96
10, 4220, Note_off_c, 8, 50, 100
10, 4416, Note_on_c, 8, 48, 96
10, 4476, Note_off_c, 8, 48, 100
10, 4608, Note_on_c, 8, 47, 96
10, 4892, Note_off_c, 8, 47, 100
10, 4896, Note_on_c, 8, 48, 96
10, 4988, Note_off_c, 8, 48, 100
10, 4992, Note_on_c, 8, 50, 96
10, 5372, Note_off_c, 8, 50, 100
10, 5568, Note_on_c, 8, 43, 96
10, 5628, Note_off_c, 8, 43, 100
10, 5760, Note_on_c, 8, 48, 96
10, 6140, Note_off_c, 8, 48, 100
10, 6720, Note_on_c, 8, 43, 96
10, 6780, Note_off_c, 8, 43, 100
10, 7200, Note_on_c, 8, 43, 96
10, 7292, Note_off_c, 8, 43, 100
10, 7296, Note_on_c, 8, 45, 96
10, 7676, Note_off_c, 8, 45, 100
10, 8064, Note_on_c, 8, 43, 96
10, 8444, Note_off_c, 8, 43, 100
10, 11328, Note_on_c, 8, 43, 96
10, 11388, Note_off_c, 8, 43, 100
10, 11520, Note_on_c, 8, 43, 96
10, 11580, Note_off_c, 8, 43, 100
10, 11584, Note_on_c, 8, 45, 96
10, 11644, Note_off_c, 8, 45, 100
10, 11648, Note_on_c, 8, 43, 96
10, 11708, Note_off_c, 8, 43, 100
10, 11904, Note_on_c, 8, 43, 96
10, 11964, Note_off_c, 8, 43, 100
10, 12032, Note_on_c, 8, 43, 96
10, 12092, Note_off_c, 8, 43, 100
10, 12096, Note_on_c, 8, 45, 96
10, 12156, Note_off_c, 8, 45, 100
10, 12160, Note_on_c, 8, 43, 96
10, 12220, Note_off_c, 8, 43, 100
10, 12224, Note_on_c, 8, 45, 96
10, 12284, Note_off_c, 8, 45, 100
10, 12288, Note_on_c, 8, 47, 96
10, 12348, Note_off_c, 8, 47, 100
10, 12352, Note_on_c, 8, 45, 96
10, 12412, Note_off_c, 8, 45, 100
10, 12416, Note_on_c, 8, 47, 96
10, 12476, Note_off_c, 8, 47, 100
10, 12480, Note_on_c, 8, 49, 96
10, 12540, Note_off_c, 8, 49, 100
10, 12544, Note_on_c, 8, 45, 96
10, 12604, Note_off_c, 8, 45, 100
10, 12608, Note_on_c, 8, 47, 96
10, 12668, Note_off_c, 8, 47, 100
10, 12672, Note_on_c, 8, 49, 96
10, 12732, Note_off_c, 8, 49, 100
10, 12736, Note_on_c, 8, 50, 96
10, 12796, Note_off_c, 8, 50, 100
10, 12800, Note_on_c, 8, 49, 96
10, 12860, Note_off_c, 8, 49, 100
10, 12928, Note_on_c, 8, 45, 96
10, 12988, Note_off_c, 8, 45, 100
10, 12992, Note_on_c, 8, 47, 96
10, 13052, Note_off_c, 8, 47, 100
10, 13056, Note_on_c, 8, 49, 96
10, 13116, Note_off_c, 8, 49, 100
10, 13120, Note_on_c, 8, 47, 96
10, 13180, Note_off_c, 8, 47, 100
10, 13184, Note_on_c, 8, 49, 96
10, 13244, Note_off_c, 8, 49, 100
10, 13248, Note_on_c, 8, 50, 96
10, 13308, Note_off_c, 8, 50, 100
10, 13312, Note_on_c, 8, 49, 96
10, 13372, Note_off_c, 8, 49, 100
10, 13376, Note_on_c, 8, 50, 96
10, 13436, Note_off_c, 8, 50, 100
10, 13440, Note_on_c, 8, 52, 96
10, 13500, Note_off_c, 8, 52, 100
10, 13504, Note_on_c, 8, 50, 96
10, 13564, Note_off_c, 8, 50, 100
10, 13568, Note_on_c, 8, 52, 96
10, 13628, Note_off_c, 8, 52, 100
10, 13632, Note_on_c, 8, 54, 96
10, 13692, Note_off_c, 8, 54, 100
10, 13696, Note_on_c, 8, 50, 96
10, 13756, Note_off_c, 8, 50, 100
10, 13760, Note_on_c, 8, 52, 96
10, 13820, Note_off_c, 8, 52, 100
10, 13824, Note_on_c, 8, 54, 96
10, 13884, Note_off_c, 8, 54, 100
10, 13888, Note_on_c, 8, 52, 96
10, 13948, Note_off_c, 8, 52, 100
10, 13952, Note_on_c, 8, 54, 96
10, 14012, Note_off_c, 8, 54, 100
10, 14016, Note_on_c, 8, 57, 96
10, 14076, Note_off_c, 8, 57, 100
10, 14080, Note_on_c, 8, 55, 96
10, 14140, Note_off_c, 8, 55, 100
10, 14144, Note_on_c, 8, 57, 96
10, 14204, Note_off_c, 8, 57, 100
10, 14208, Note_on_c, 8, 50, 96
10, 14268, Note_off_c, 8, 50, 100
10, 14272, Note_on_c, 8, 49, 96
10, 14332, Note_off_c, 8, 49, 100
10, 14336, Note_on_c, 8, 50, 96
10, 14396, Note_off_c, 8, 50, 100
10, 14400, Note_on_c, 8, 54, 96
10, 14460, Note_off_c, 8, 54, 100
10, 14464, Note_on_c, 8, 57, 96
10, 14524, Note_off_c, 8, 57, 100
10, 14528, Note_on_c, 8, 59, 96
10, 14588, Note_off_c, 8, 59, 100
10, 14592, Note_on_c, 8, 60, 96
10, 14652, Note_off_c, 8, 60, 100
10, 14656, Note_on_c, 8, 59, 96
10, 14716, Note_off_c, 8, 59, 100
10, 14720, Note_on_c, 8, 60, 96
10, 14780, Note_off_c, 8, 60, 100
10, 14784, Note_on_c, 8, 57, 96
10, 14844, Note_off_c, 8, 57, 100
10, 14848, Note_on_c, 8, 54, 96
10, 14908, Note_off_c, 8, 54, 100
10, 14912, Note_on_c, 8, 57, 96
10, 14972, Note_off_c, 8, 57, 100
10, 14976, Note_on_c, 8, 55, 96
10, 15036, Note_off_c, 8, 55, 100
10, 15040, Note_on_c, 8, 54, 96
10, 15100, Note_off_c, 8, 54, 100
10, 15104, Note_on_c, 8, 55, 96
10, 15164, Note_off_c, 8, 55, 100
10, 15168, Note_on_c, 8, 59, 96
10, 15228, Note_off_c, 8, 59, 100
10, 15232, Note_on_c, 8, 57, 96
10, 15292, Note_off_c, 8, 57, 100
10, 15296, Note_on_c, 8, 59, 96
10, 15356, Note_off_c, 8, 59, 100
10, 15360, Note_on_c, 8, 52, 96
10, 15420, Note_off_c, 8, 52, 100
10, 15424, Note_on_c, 8, 51, 96
10, 15484, Note_off_c, 8, 51, 100
10, 15488, Note_on_c, 8, 52, 96
10, 15548, Note_off_c, 8, 52, 100
10, 15552, Note_on_c, 8, 55, 96
10, 15612, Note_off_c, 8, 55, 100
10, 15616, Note_on_c, 8, 59, 96
10, 15676, Note_off_c, 8, 59, 100
10, 15680, Note_on_c, 8, 61, 96
10, 15740, Note_off_c, 8, 61, 100
10, 15744, Note_on_c, 8, 62, 96
10, 15804, Note_off_c, 8, 62, 100
10, 15808, Note_on_c, 8, 61, 96
10, 15868, Note_off_c, 8, 61, 100
10, 15872, Note_on_c, 8, 62, 96
10, 15932, Note_off_c, 8, 62, 100
10, 15936, Note_on_c, 8, 59, 96
10, 15996, Note_off_c, 8, 59, 100
10, 16000, Note_on_c, 8, 55, 96
10, 16060, Note_off_c, 8, 55, 100
10, 16064, Note_on_c, 8, 59, 96
10, 16124, Note_off_c, 8, 59, 100
10, 16128, Note_on_c, 8, 61, 96
10, 16188, Note_off_c, 8, 61, 100
10, 16192, Note_on_c, 8, 59, 96
10, 16252, Note_off_c, 8, 59, 100
10, 16256, Note_on_c, 8, 61, 96
10, 16316, Note_off_c, 8, 61, 100
10, 16320, Note_on_c, 8, 64, 96
10, 16380, Note_off_c, 8, 64, 100
10, 16384, Note_on_c, 8, 62, 96
10, 16444, Note_off_c, 8, 62, 100
10, 16448, Note_on_c, 8, 64, 96
10, 16508, Note_off_c, 8, 64, 100
10, 16512, Note_on_c, 8, 57, 96
10, 16572, Note_off_c, 8, 57, 100
10, 16576, Note_on_c, 8, 56, 96
10, 16636, Note_off_c, 8, 56, 100
10, 16640, Note_on_c, 8, 57, 96
10, 16700, Note_off_c, 8, 57, 100
10, 16704, Note_on_c, 8, 61, 96
10, 16764, Note_off_c, 8, 61, 100
10, 16768, Note_on_c, 8, 64, 96
10, 16828, Note_off_c, 8, 64, 100
10, 16832, Note_on_c, 8, 66, 96
10, 16892, Note_off_c, 8, 66, 100
10, 16896, Note_on_c, 8, 67, 96
10, 16956, Note_off_c, 8, 67, 100
10, 16960, Note_on_c, 8, 66, 96
10, 17020, Note_off_c, 8, 66, 100
10, 17024, Note_on_c, 8, 67, 96
10, 17084, Note_off_c, 8, 67, 100
10, 17088, Note_on_c, 8, 64, 96
10, 17148, Note_off_c, 8, 64, 100
10, 17152, Note_on_c, 8, 61, 96
10, 17212, Note_off_c, 8, 61, 100
10, 17216, Note_on_c, 8, 64, 96
10, 17276, Note_off_c, 8, 64, 100
10, 17280, Note_on_c, 8, 66, 96
10, 17340, Note_off_c, 8, 66, 100
10, 17344, Note_on_c, 8, 64, 96
10, 17404, Note_off_c, 8, 64, 100
10, 17408, Note_on_c, 8, 66, 96
10, 17468, Note_off_c, 8, 66, 100
10, 17472, Note_on_c, 8, 69, 96
10, 17532, Note_off_c, 8, 69, 100
10, 17536, Note_on_c, 8, 67, 96
10, 17596, Note_off_c, 8, 67, 100
10, 17600, Note_on_c, 8, 69, 96
10, 17660, Note_off_c, 8, 69, 100
10, 17664, Note_on_c, 8, 62, 96
10, 17724, Note_off_c, 8, 62, 100
10, 17728, Note_on_c, 8, 61, 96
10, 17788, Note_off_c, 8, 61, 100
10, 17792, Note_on_c, 8, 62, 96
10, 17852, Note_off_c, 8, 62, 100
10, 17856, Note_on_c, 8, 66, 96
10, 17916, Note_off_c, 8, 66, 100
10, 17920, Note_on_c, 8, 69, 96
10, 17980, Note_off_c, 8, 69, 100
10, 17984, Note_on_c, 8, 73, 96
10, 18044, Note_off_c, 8, 73, 100
10, 18048, Note_on_c, 8, 74, 96
10, 18076, Note_off_c, 8, 74, 100
10, 18080, Note_on_c, 8, 73, 96
10, 18108, Note_off_c, 8, 73, 100
10, 18112, Note_on_c, 8, 74, 96
10, 18336, Note_off_c, 8, 74, 100
10, 36864, Note_on_c, 8, 69, 96
10, 36924, Note_off_c, 8, 69, 100
10, 36928, Note_on_c, 8, 67, 96
10, 36988, Note_off_c, 8, 67, 100
10, 36992, Note_on_c, 8, 69, 96
10, 37052, Note_off_c, 8, 69, 100
10, 37056, Note_on_c, 8, 74, 96
10, 37116, Note_off_c, 8, 74, 100
10, 37120, Note_on_c, 8, 72, 96
10, 37180, Note_off_c, 8, 72, 100
10, 37184, Note_on_c, 8, 71, 96
10, 37244, Note_off_c, 8, 71, 100
10, 37248, Note_on_c, 8, 69, 96
10, 37308, Note_off_c, 8, 69, 100
10, 37312, Note_on_c, 8, 71, 96
10, 37372, Note_off_c, 8, 71, 100
10, 37376, Note_on_c, 8, 69, 96
10, 37436, Note_off_c, 8, 69, 100
10, 37440, Note_on_c, 8, 67, 96
10, 37500, Note_off_c, 8, 67, 100
10, 37504, Note_on_c, 8, 69, 96
10, 37564, Note_off_c, 8, 69, 100
10, 37568, Note_on_c, 8, 67, 96
10, 37628, Note_off_c, 8, 67, 100
10, 37632, Note_on_c, 8, 66, 96
10, 37692, Note_off_c, 8, 66, 100
10, 37696, Note_on_c, 8, 67, 96
10, 37756, Note_off_c, 8, 67, 100
10, 37760, Note_on_c, 8, 66, 96
10, 37820, Note_off_c, 8, 66, 100
10, 37824, Note_on_c, 8, 64, 96
10, 37884, Note_off_c, 8, 64, 100
10, 37888, Note_on_c, 8, 66, 96
10, 37948, Note_off_c, 8, 66, 100
10, 37952, Note_on_c, 8, 64, 96
10, 38012, Note_off_c, 8, 64, 100
10, 38016, Note_on_c, 8, 62, 96
10, 38076, Note_off_c, 8, 62, 100
10, 38080, Note_on_c, 8, 60, 96
10, 38140, Note_off_c, 8, 60, 100
10, 38144, Note_on_c, 8, 62, 96
10, 38204, Note_off_c, 8, 62, 100
10, 38208, Note_on_c, 8, 67, 96
10, 38268, Note_off_c, 8, 67, 100
10, 38272, Note_on_c, 8, 66, 96
10, 38332, Note_off_c, 8, 66, 100
10, 38336, Note_on_c, 8, 64, 96
10, 38396, Note_off_c, 8, 64, 100
10, 38400, Note_on_c, 8, 62, 96
10, 38460, Note_off_c, 8, 62, 100
10, 38464, Note_on_c, 8, 64, 96
10, 38524, Note_off_c, 8, 64, 100
10, 38528, Note_on_c, 8, 62, 96
10, 38588, Note_off_c, 8, 62, 100
10, 38592, Note_on_c, 8, 60, 96
10, 38652, Note_off_c, 8, 60, 100
10, 38656, Note_on_c, 8, 62, 96
10, 38716, Note_off_c, 8, 62, 100
10, 38720, Note_on_c, 8, 60, 96
10, 38780, Note_off_c, 8, 60, 100
10, 38784, Note_on_c, 8, 59, 96
10, 38844, Note_off_c, 8, 59, 100
10, 38848, Note_on_c, 8, 60, 96
10, 38908, Note_off_c, 8, 60, 100
10, 38912, Note_on_c, 8, 59, 96
10, 38972, Note_off_c, 8, 59, 100
10, 38976, Note_on_c, 8, 57, 96
10, 39036, Note_off_c, 8, 57, 100
10, 39040, Note_on_c, 8, 59, 96
10, 39100, Note_off_c, 8, 59, 100
10, 39104, Note_on_c, 8, 57, 96
10, 39164, Note_off_c, 8, 57, 100
10, 39168, Note_on_c, 8, 55, 96
10, 39228, Note_off_c, 8, 55, 100
10, 39232, Note_on_c, 8, 54, 96
10, 39292, Note_off_c, 8, 54, 100
10, 39296, Note_on_c, 8, 55, 96
10, 39356, Note_off_c, 8, 55, 100
10, 39360, Note_on_c, 8, 59, 96
10, 39420, Note_off_c, 8, 59, 100
10, 39424, Note_on_c, 8, 57, 96
10, 39484, Note_off_c, 8, 57, 100
10, 39488, Note_on_c, 8, 55, 96
10, 39548, Note_off_c, 8, 55, 100
10, 39552, Note_on_c, 8, 54, 96
10, 39612, Note_off_c, 8, 54, 100
10, 39616, Note_on_c, 8, 55, 96
10, 39676, Note_off_c, 8, 55, 100
10, 39680, Note_on_c, 8, 54, 96
10, 39740, Note_off_c, 8, 54, 100
10, 39744, Note_on_c, 8, 52, 96
10, 39804, Note_off_c, 8, 52, 100
10, 39808, Note_on_c, 8, 54, 96
10, 39868, Note_off_c, 8, 54, 100
10, 39872, Note_on_c, 8, 52, 96
10, 39932, Note_off_c, 8, 52, 100
10, 39936, Note_on_c, 8, 51, 96
10, 39996, Note_off_c, 8, 51, 100
10, 40000, Note_on_c, 8, 52, 96
10, 40060, Note_off_c, 8, 52, 100
10, 40064, Note_on_c, 8, 51, 96
10, 40124, Note_off_c, 8, 51, 100
10, 40128, Note_on_c, 8, 49, 96
10, 40188, Note_off_c, 8, 49, 100
10, 40192, Note_on_c, 8, 51, 96
10, 40252, Note_off_c, 8, 51, 100
10, 40256, Note_on_c, 8, 49, 96
10, 40316, Note_off_c, 8, 49, 100
10, 40320, Note_on_c, 8, 47, 96
10, 40380, Note_off_c, 8, 47, 100
10, 40384, Note_on_c, 8, 46, 96
10, 40444, Note_off_c, 8, 46, 100
10, 40448, Note_on_c, 8, 47, 96
10, 40508, Note_off_c, 8, 47, 100
10, 40512, Note_on_c, 8, 52, 96
10, 40572, Note_off_c, 8, 52, 100
10, 40576, Note_on_c, 8, 51, 96
10, 40636, Note_off_c, 8, 51, 100
10, 40640, Note_on_c, 8, 49, 96
10, 40700, Note_off_c, 8, 49, 100
10, 40704, Note_on_c, 8, 47, 96
10, 40764, Note_off_c, 8, 47, 100
10, 40768, Note_on_c, 8, 48, 96
10, 40828, Note_off_c, 8, 48, 100
10, 40832, Note_on_c, 8, 47, 96
10, 40892, Note_off_c, 8, 47, 100
10, 40896, Note_on_c, 8, 45, 96
10, 40956, Note_off_c, 8, 45, 100
10, 40960, Note_on_c, 8, 47, 96
10, 41020, Note_off_c, 8, 47, 100
10, 41024, Note_on_c, 8, 45, 96
10, 41084, Note_off_c, 8, 45, 100
10, 41088, Note_on_c, 8, 43, 96
10, 41148, Note_off_c, 8, 43, 100
10, 41152, Note_on_c, 8, 45, 96
10, 41212, Note_off_c, 8, 45, 100
10, 41216, Note_on_c, 8, 43, 96
10, 41276, Note_off_c, 8, 43, 100
10, 41280, Note_on_c, 8, 42, 96
10, 41340, Note_off_c, 8, 42, 100
10, 41344, Note_on_c, 8, 43, 96
10, 41404, Note_off_c, 8, 43, 100
10, 41408, Note_on_c, 8, 42, 96
10, 41468, Note_off_c, 8, 42, 100
10, 41664, Note_on_c, 8, 47, 96
10, 41724, Note_off_c, 8, 47, 100
10, 41728, Note_on_c, 8, 45, 96
10, 41788, Note_off_c, 8, 45, 100
10, 41792, Note_on_c, 8, 47, 96
10, 41852, Note_off_c, 8, 47, 100
10, 41856, Note_on_c, 8, 43, 96
10, 41916, Note_off_c, 8, 43, 100
10, 41920, Note_on_c, 8, 42, 96
10, 41980, Note_off_c, 8, 42, 100
10, 41984, Note_on_c, 8, 43, 96
10, 42044, Note_off_c, 8, 43, 100
10, 42048, Note_on_c, 8, 47, 96
10, 42108, Note_off_c, 8, 47, 100
10, 42112, Note_on_c, 8, 52, 96
10, 42172, Note_off_c, 8, 52, 100
10, 42176, Note_on_c, 8, 54, 96
10, 42236, Note_off_c, 8, 54, 100
10, 42240, Note_on_c, 8, 55, 96
10, 42300, Note_off_c, 8, 55, 100
10, 42304, Note_on_c, 8, 54, 96
10, 42364, Note_off_c, 8, 54, 100
10, 42368, Note_on_c, 8, 55, 96
10, 42428, Note_off_c, 8, 55, 100
10, 42432, Note_on_c, 8, 52, 96
10, 42492, Note_off_c, 8, 52, 100
10, 42496, Note_on_c, 8, 51, 96
10, 42556, Note_off_c, 8, 51, 100
10, 42560, Note_on_c, 8, 52, 96
10, 42620, Note_off_c, 8, 52, 100
10, 42624, Note_on_c, 8, 48, 96
10, 42684, Note_off_c, 8, 48, 100
10, 42688, Note_on_c, 8, 47, 96
10, 42748, Note_off_c, 8, 47, 100
10, 42752, Note_on_c, 8, 48, 96
10, 42812, Note_off_c, 8, 48, 100
10, 42816, Note_on_c, 8, 52, 96
10, 42876, Note_off_c, 8, 52, 100
10, 42880, Note_on_c, 8, 50, 96
10, 42940, Note_off_c, 8, 50, 100
10, 42944, Note_on_c, 8, 52, 96
10, 43004, Note_off_c, 8, 52, 100
10, 43008, Note_on_c, 8, 45, 96
10, 43068, Note_off_c, 8, 45, 100
10, 43072, Note_on_c, 8, 44, 96
10, 43132, Note_off_c, 8, 44, 100
10, 43136, Note_on_c, 8, 45, 96
10, 43196, Note_off_c, 8, 45, 100
10, 43200, Note_on_c, 8, 48, 96
10, 43260, Note_off_c, 8, 48, 100
10, 43264, Note_on_c, 8, 53, 96
10, 43324, Note_off_c, 8, 53, 100
10, 43328, Note_on_c, 8, 57, 96
10, 43388, Note_off_c, 8, 57, 100
10, 43392, Note_on_c, 8, 60, 96
10, 43452, Note_off_c, 8, 60, 100
10, 43456, Note_on_c, 8, 59, 96
10, 43516, Note_off_c, 8, 59, 100
10, 43520, Note_on_c, 8, 60, 96
10, 43580, Note_off_c, 8, 60, 100
10, 43584, Note_on_c, 8, 57, 96
10, 43644, Note_off_c, 8, 57, 100
10, 43648, Note_on_c, 8, 53, 96
10, 43708, Note_off_c, 8, 53, 100
10, 43712, Note_on_c, 8, 57, 96
10, 43772, Note_off_c, 8, 57, 100
10, 43776, Note_on_c, 8, 51, 96
10, 43836, Note_off_c, 8, 51, 100
10, 43840, Note_on_c, 8, 49, 96
10, 43900, Note_off_c, 8, 49, 100
10, 43904, Note_on_c, 8, 51, 96
10, 43964, Note_off_c, 8, 51, 100
10, 43968, Note_on_c, 8, 54, 96
10, 44028, Note_off_c, 8, 54, 100
10, 44032, Note_on_c, 8, 52, 96
10, 44092, Note_off_c, 8, 52, 100
10, 44096, Note_on_c, 8, 54, 96
10, 44156, Note_off_c, 8, 54, 100
10, 44160, Note_on_c, 8, 47, 96
10, 44220, Note_off_c, 8, 47, 100
10, 44224, Note_on_c, 8, 46, 96
10, 44284, Note_off_c, 8, 46, 100
10, 44288, Note_on_c, 8, 47, 96
10, 44348, Note_off_c, 8, 47, 100
10, 44352, Note_on_c, 8, 51, 96
10, 44412, Note_off_c, 8, 51, 100
10, 44416, Note_on_c, 8, 54, 96
10, 44476, Note_off_c, 8, 54, 100
10, 44480, Note_on_c, 8, 55, 96
10, 44540, Note_off_c, 8, 55, 100
10, 44544, Note_on_c, 8, 57, 96
10, 44604, Note_off_c, 8, 57, 100
10, 44608, Note_on_c, 8, 55, 96
10, 44668, Note_off_c, 8, 55, 100
10, 44672, Note_on_c, 8, 57, 96
10, 44732, Note_off_c, 8, 57, 100
10, 44736, Note_on_c, 8, 54, 96
10, 44796, Note_off_c, 8, 54, 100
10, 44800, Note_on_c, 8, 51, 96
10, 44860, Note_off_c, 8, 51, 100
10, 44864, Note_on_c, 8, 54, 96
10, 44924, Note_off_c, 8, 54, 100
10, 44928, Note_on_c, 8, 55, 96
10, 44988, Note_off_c, 8, 55, 100
10, 44992, Note_on_c, 8, 54, 96
10, 45052, Note_off_c, 8, 54, 100
10, 45056, Note_on_c, 8, 55, 96
10, 45116, Note_off_c, 8, 55, 100
10, 45120, Note_on_c, 8, 59, 96
10, 45180, Note_off_c, 8, 59, 100
10, 45184, Note_on_c, 8, 57, 96
10, 45244, Note_off_c, 8, 57, 100
10, 45248, Note_on_c, 8, 59, 96
10, 45308, Note_off_c, 8, 59, 100
10, 45312, Note_on_c, 8, 52, 96
10, 45372, Note_off_c, 8, 52, 100
10, 45376, Note_on_c, 8, 51, 96
10, 45436, Note_off_c, 8, 51, 100
10, 45440, Note_on_c, 8, 52, 96
10, 45500, Note_off_c, 8, 52, 100
10, 45504, Note_on_c, 8, 55, 96
10, 45564, Note_off_c, 8, 55, 100
10, 45568, Note_on_c, 8, 59, 96
10, 45628, Note_off_c, 8, 59, 100
10, 45632, Note_on_c, 8, 63, 96
10, 45692, Note_off_c, 8, 63, 100
10, 45696, Note_on_c, 8, 64, 96
10, 45756, Note_off_c, 8, 64, 100
10, 45760, Note_on_c, 8, 60, 96
10, 45820, Note_off_c, 8, 60, 100
10, 45824, Note_on_c, 8, 59, 96
10, 45884, Note_off_c, 8, 59, 100
10, 45888, Note_on_c, 8, 57, 96
10, 45948, Note_off_c, 8, 57, 100
10, 45952, Note_on_c, 8, 55, 96
10, 46012, Note_off_c, 8, 55, 100
10, 46016, Note_on_c, 8, 54, 96
10, 46076, Note_off_c, 8, 54, 100
10, 46080, Note_on_c, 8, 52, 96
10, 46268, Note_off_c, 8, 52, 100
10, 46752, Note_on_c, 8, 67, 96
10, 46844, Note_off_c, 8, 67, 100
10, 46848, Note_on_c, 8, 66, 96
10, 47132, Note_off_c, 8, 66, 100
10, 47136, Note_on_c, 8, 64, 96
10, 47228, Note_off_c, 8, 64, 100
10, 47232, Note_on_c, 8, 62, 96
10, 47804, Note_off_c, 8, 62, 100
10, 47904, Note_on_c, 8, 65, 96
10, 47996, Note_off_c, 8, 65, 100
10, 48000, Note_on_c, 8, 64, 96
10, 48284, Note_off_c, 8, 64, 100
10, 48288, Note_on_c, 8, 62, 96
10, 48380, Note_off_c, 8, 62, 100
10, 48384, Note_on_c, 8, 60, 96
10, 49336, Note_off_c, 8, 60, 100
10, 49440, Note_on_c, 8, 60, 96
10, 49504, Note_off_c, 8, 60, 100
10, 49536, Note_on_c, 8, 60, 96
10, 49724, Note_off_c, 8, 60, 100
10, 50304, Note_on_c, 8, 54, 96
10, 50492, Note_off_c, 8, 54, 100
10, 50688, Note_on_c, 8, 55, 96
10, 50876, Note_off_c, 8, 55, 100
10, 51456, Note_on_c, 8, 59, 96
10, 51644, Note_off_c, 8, 59, 100
10, 51840, Note_on_c, 8, 60, 96
10, 52028, Note_off_c, 8, 60, 100
10, 52028, End_track
11, 0, Start_track
11, 1, Copyright_t, "___________________________________________________\012\012KUNSTDERFUGE.COM LARGE CLASSICAL MIDI COLLECTION\012ONCLASSICAL BY ALESSANDRO SIMONETTO, PROPRIETOR\012___________________________________________________\012\012! Attention: this file is under copyright !\012\012(c)onclassical, (c)degiusti, 2010\012___________________________________________________\012\012NO ONE MAY REPUBLISH THIS FILE WITHOUT PERMISSION\012COMMERCIAL USES OF THIS FILE IS STRICTLY PROHIBITED\012___________________________________________________\012\012Files & contributor's list: http://kunstderfuge.com/\012Terms and conditions: http://kunstderfuge.com/notes.htm"
11, 1, End_track
0, 0, End_of_file