0, 0, Header, 1, 11, 384
1, 0, Start_track
1, 0, Time_signature, 2, 1, 96, 8
1, 0, Sequencer_specific, 03, 00, 00, 41
1, 0, Sequencer_specific, 05, 00, 00, 77, 0E, 00
1, 0, Tempo, 375000
1, 72, Tempo, 370370
1, 152, Tempo, 365853
1, 224, Tempo, 361445
1, 304, Tempo, 357142
1, 384, Tempo, 352941
1, 456, Tempo, 348837
1, 536, Tempo, 344827
1, 608, Tempo, 340909
1, 688, Tempo, 337078
1, 768, Tempo, 333333
1, 11520, Tempo, 400000
1, 11528, Tempo, 394736
1, 11544, Tempo, 389610
1, 11552, Tempo, 384615
1, 11568, Tempo, 379746
1, 11584, Tempo, 375000
1, 11592, Tempo, 370370
1, 11608, Tempo, 365853
1, 11616, Tempo, 361445
1, 11632, Tempo, 357142
1, 11648, Tempo, 352941
1, 11656, Tempo, 348837
1, 11672, Tempo, 344827
1, 11680, Tempo, 340909
1, 11696, Tempo, 337078
1, 11712, Tempo, 333333
1, 23040, Tempo, 333333
1, 23424, Tempo, 333333
1, 23440, Tempo, 337078
1, 23456, Tempo, 340909
1, 23480, Tempo, 344827
1, 23496, Tempo, 348837
1, 23520, Tempo, 352941
1, 23536, Tempo, 357142
1, 23552, Tempo, 361445
1, 23576, Tempo, 365853
1, 23592, Tempo, 370370
1, 23616, Tempo, 375000
1, 23808, Tempo, 375000
1, 24576, Tempo, 375000
1, 24648, Tempo, 370370
1, 24728, Tempo, 365853
1, 24800, Tempo, 361445
1, 24880, Tempo, 357142
1, 24960, Tempo, 352941
1, 25032, Tempo, 348837
1, 25112, Tempo, 344827
1, 25184, Tempo, 340909
1, 25264, Tempo, 337078
1, 25344, Tempo, 333333
1, 36096, Tempo, 400000
1, 36120, Tempo, 394736
1, 36144, Tempo, 389610
1, 36168, Tempo, 384615
1, 36192, Tempo, 379746
1, 36224, Tempo, 375000
1, 36248, Tempo, 370370
1, 36272, Tempo, 365853
1, 36296, Tempo, 361445
1, 36320, Tempo, 357142
1, 36352, Tempo, 352941
1, 36376, Tempo, 348837
1, 36400, Tempo, 344827
1, 36424, Tempo, 340909
1, 36448, Tempo, 337078
1, 36480, Tempo, 333333
1, 46464, Tempo, 333333
1, 46768, Tempo, 337078
1, 47072, Tempo, 340909
1, 47384, Tempo, 344827
1, 47688, Tempo, 348837
1, 48000, Tempo, 352941
1, 48008, Tempo, 357142
1, 48024, Tempo, 361445
1, 48032, Tempo, 365853
1, 48048, Tempo, 370370
1, 48064, Tempo, 375000
1, 48072, Tempo, 379746
1, 48088, Tempo, 384615
1, 48096, Tempo, 389610
1, 48112, Tempo, 394736
1, 48128, Tempo, 400000
1, 48136, Tempo, 405405
1, 48152, Tempo, 410958
1, 48160, Tempo, 416666
1, 48176, Tempo, 422535
1, 48192, Tempo, 428571
1, 49152, Tempo, 375000
1, 49224, Tempo, 370370
1, 49304, Tempo, 365853
1, 49376, Tempo, 361445
1, 49456, Tempo, 357142
1, 49536, Tempo, 352941
1, 49608, Tempo, 348837
1, 49688, Tempo, 344827
1, 49760, Tempo, 340909
1, 49840, Tempo, 337078
1, 49920, Tempo, 333333
1, 59520, Tempo, 333333
1, 59712, Tempo, 337078
1, 59904, Tempo, 352941
1, 60096, Tempo, 344827
1, 60288, Tempo, 348837
1, 60480, Tempo, 352941
1, 60672, Tempo, 400000
1, 60680, Tempo, 394736
1, 60696, Tempo, 389610
1, 60704, Tempo, 384615
1, 60720, Tempo, 379746
1, 60736, Tempo, 375000
1, 60744, Tempo, 370370
1, 60760, Tempo, 365853
1, 60768, Tempo, 361445
1, 60784, Tempo, 357142
1, 60800, Tempo, 352941
1, 60808, Tempo, 348837
1, 60824, Tempo, 344827
1, 60832, Tempo, 340909
1, 60848, Tempo, 337078
1, 60864, Tempo, 333333
1, 72576, Tempo, 333333
1, 72584, Tempo, 337078
1, 72600, Tempo, 340909
1, 72608, Tempo, 344827
1, 72624, Tempo, 348837
1, 72640, Tempo, 352941
1, 72648, Tempo, 357142
1, 72664, Tempo, 361445
1, 72672, Tempo, 365853
1, 72688, Tempo, 370370
1, 72704, Tempo, 375000
1, 72712, Tempo, 379746
1, 72728, Tempo, 384615
1, 72736, Tempo, 389610
1, 72752, Tempo, 394736
1, 72768, Tempo, 400000
1, 73728, Tempo, 375000
1, 73800, Tempo, 370370
1, 73880, Tempo, 365853
1, 73952, Tempo, 361445
1, 74032, Tempo, 357142
1, 74112, Tempo, 352941
1, 74184, Tempo, 348837
1, 74264, Tempo, 344827
1, 74336, Tempo, 340909
1, 74416, Tempo, 337078
1, 74496, Tempo, 333333
1, 84288, Tempo, 333333
1, 84424, Tempo, 337078
1, 84560, Tempo, 340909
1, 84696, Tempo, 344827
1, 84832, Tempo, 348837
1, 84968, Tempo, 352941
1, 85104, Tempo, 357142
1, 85248, Tempo, 428571
1, 85256, Tempo, 422535
1, 85264, Tempo, 416666
1, 85272, Tempo, 410958
1, 85280, Tempo, 405405
1, 85296, Tempo, 400000
1, 85304, Tempo, 394736
1, 85312, Tempo, 389610
1, 85320, Tempo, 384615
1, 85328, Tempo, 379746
1, 85344, Tempo, 375000
1, 85352, Tempo, 370370
1, 85360, Tempo, 365853
1, 85368, Tempo, 361445
1, 85376, Tempo, 357142
1, 85392, Tempo, 352941
1, 85400, Tempo, 348837
1, 85408, Tempo, 344827
1, 85416, Tempo, 340909
1, 85424, Tempo, 337078
1, 85440, Tempo, 333333
1, 94464, Tempo, 333333
1, 94656, Tempo, 333333
1, 94864, Tempo, 337078
1, 95072, Tempo, 340909
1, 95288, Tempo, 344827
1, 95496, Tempo, 348837
1, 95712, Tempo, 352941
1, 95920, Tempo, 357142
1, 96128, Tempo, 361445
1, 96344, Tempo, 365853
1, 96552, Tempo, 370370
1, 96768, Tempo, 447761
1, 96792, Tempo, 379746
1, 96824, Tempo, 384615
1, 96848, Tempo, 389610
1, 96880, Tempo, 394736
1, 96912, Tempo, 400000
1, 96936, Tempo, 405405
1, 96968, Tempo, 410958
1, 96992, Tempo, 416666
1, 97024, Tempo, 422535
1, 97056, Tempo, 428571
1, 97080, Tempo, 434782
1, 97112, Tempo, 441176
1, 97136, Tempo, 447761
1, 97152, Tempo, 500000
1, 97168, Tempo, 508474
1, 97184, Tempo, 517241
1, 97208, Tempo, 526315
1, 97224, Tempo, 535714
1, 97248, Tempo, 545454
1, 97264, Tempo, 555555
1, 97280, Tempo, 566037
1, 97304, Tempo, 576923
1, 97320, Tempo, 588235
1, 97344, Tempo, 600000
1, 97344, End_track
2, 0, Start_track
2, 0, Title_t, "Johann Sebastian Bach"
2, 0, Control_c, 0, 0, 0
2, 0, Program_c, 0, 6
2, 0, Control_c, 0, 7, 127
2, 0, Control_c, 0, 10, 0
2, 0, Control_c, 0, 91, 127
2, 0, Key_signature, 1, "major"
2, 0, Note_on_c, 0, 71, 127
2, 1528, Note_off_c, 0, 71, 100
2, 1536, Note_on_c, 0, 69, 127
2, 2304, Note_off_c, 0, 69, 100
2, 2688, Note_on_c, 0, 71, 127
2, 2872, Note_off_c, 0, 71, 100
2, 2880, Note_on_c, 0, 69, 127
2, 3064, Note_off_c, 0, 69, 100
2, 3072, Note_on_c, 0, 67, 127
2, 3840, Note_off_c, 0, 67, 100
2, 4224, Note_on_c, 0, 66, 127
2, 4408, Note_off_c, 0, 66, 100
2, 4416, Note_on_c, 0, 64, 127
2, 4600, Note_off_c, 0, 64, 100
2, 4608, Note_on_c, 0, 66, 127
2, 5376, Note_off_c, 0, 66, 100
2, 6144, Note_on_c, 0, 67, 127
2, 6912, Note_off_c, 0, 67, 100
2, 7296, Note_on_c, 0, 66, 127
2, 7480, Note_off_c, 0, 66, 100
2, 7488, Note_on_c, 0, 67, 127
2, 7672, Note_off_c, 0, 67, 100
2, 7680, Note_on_c, 0, 69, 127
2, 8448, Note_off_c, 0, 69, 100
2, 8832, Note_on_c, 0, 72, 127
2, 9016, Note_off_c, 0, 72, 100
2, 9024, Note_on_c, 0, 71, 127
2, 9208, Note_off_c, 0, 71, 100
2, 9216, Note_on_c, 0, 72, 127
2, 9976, Note_off_c, 0, 72, 100
2, 10176, Note_on_c, 0, 71, 127
2, 10360, Note_off_c, 0, 71, 100
2, 10368, Note_on_c, 0, 72, 127
2, 10552, Note_off_c, 0, 72, 100
2, 10560, Note_on_c, 0, 69, 127
2, 10744, Note_off_c, 0, 69, 100
2, 10752, Note_on_c, 0, 71, 127
2, 11512, Note_off_c, 0, 71, 100
2, 12288, Note_on_c, 0, 67, 127
2, 13816, Note_off_c, 0, 67, 100
2, 13824, Note_on_c, 0, 66, 127
2, 14592, Note_off_c, 0, 66, 100
2, 14976, Note_on_c, 0, 67, 127
2, 15160, Note_off_c, 0, 67, 100
2, 15168, Note_on_c, 0, 69, 127
2, 15352, Note_off_c, 0, 69, 100
2, 15360, Note_on_c, 0, 71, 127
2, 16120, Note_off_c, 0, 71, 100
2, 16320, Note_on_c, 0, 69, 127
2, 16504, Note_off_c, 0, 69, 100
2, 16512, Note_on_c, 0, 71, 127
2, 16696, Note_off_c, 0, 71, 100
2, 16704, Note_on_c, 0, 67, 127
2, 16888, Note_off_c, 0, 67, 100
2, 16896, Note_on_c, 0, 69, 127
2, 17664, Note_off_c, 0, 69, 100
2, 18048, Note_on_c, 0, 69, 127
2, 18168, Note_off_c, 0, 69, 100
2, 18432, Note_on_c, 0, 67, 127
2, 19200, Note_off_c, 0, 67, 100
2, 19584, Note_on_c, 0, 67, 127
2, 19704, Note_off_c, 0, 67, 100
2, 19968, Note_on_c, 0, 66, 127
2, 20736, Note_off_c, 0, 66, 100
2, 21120, Note_on_c, 0, 71, 127
2, 21240, Note_off_c, 0, 71, 100
2, 21504, Note_on_c, 0, 64, 127
2, 21688, Note_off_c, 0, 64, 100
2, 21696, Note_on_c, 0, 66, 127
2, 21880, Note_off_c, 0, 66, 100
2, 21888, Note_on_c, 0, 67, 127
2, 23032, Note_off_c, 0, 67, 100
2, 23040, Note_on_c, 0, 66, 127
2, 24384, Note_off_c, 0, 66, 100
2, 24576, Note_on_c, 0, 71, 112
2, 26104, Note_off_c, 0, 71, 100
2, 26112, Note_on_c, 0, 69, 112
2, 26880, Note_off_c, 0, 69, 100
2, 27264, Note_on_c, 0, 71, 112
2, 27448, Note_off_c, 0, 71, 100
2, 27456, Note_on_c, 0, 69, 112
2, 27640, Note_off_c, 0, 69, 100
2, 27648, Note_on_c, 0, 67, 112
2, 28416, Note_off_c, 0, 67, 100
2, 28800, Note_on_c, 0, 66, 112
2, 28984, Note_off_c, 0, 66, 100
2, 28992, Note_on_c, 0, 64, 112
2, 29176, Note_off_c, 0, 64, 100
2, 29184, Note_on_c, 0, 66, 112
2, 29952, Note_off_c, 0, 66, 100
2, 30720, Note_on_c, 0, 67, 112
2, 31488, Note_off_c, 0, 67, 100
2, 31872, Note_on_c, 0, 66, 112
2, 32056, Note_off_c, 0, 66, 100
2, 32064, Note_on_c, 0, 67, 112
2, 32248, Note_off_c, 0, 67, 100
2, 32256, Note_on_c, 0, 69, 112
2, 33024, Note_off_c, 0, 69, 100
2, 33408, Note_on_c, 0, 72, 112
2, 33592, Note_off_c, 0, 72, 100
2, 33600, Note_on_c, 0, 71, 112
2, 33784, Note_off_c, 0, 71, 100
2, 33792, Note_on_c, 0, 72, 112
2, 34552, Note_off_c, 0, 72, 100
2, 34752, Note_on_c, 0, 71, 112
2, 34936, Note_off_c, 0, 71, 100
2, 34944, Note_on_c, 0, 72, 112
2, 35128, Note_off_c, 0, 72, 100
2, 35136, Note_on_c, 0, 69, 112
2, 35320, Note_off_c, 0, 69, 100
2, 35328, Note_on_c, 0, 71, 112
2, 36088, Note_off_c, 0, 71, 100
2, 36864, Note_on_c, 0, 67, 112
2, 38392, Note_off_c, 0, 67, 100
2, 38400, Note_on_c, 0, 66, 112
2, 39168, Note_off_c, 0, 66, 100
2, 39552, Note_on_c, 0, 67, 112
2, 39736, Note_off_c, 0, 67, 100
2, 39744, Note_on_c, 0, 69, 112
2, 39928, Note_off_c, 0, 69, 100
2, 39936, Note_on_c, 0, 71, 112
2, 40696, Note_off_c, 0, 71, 100
2, 40896, Note_on_c, 0, 69, 112
2, 41080, Note_off_c, 0, 69, 100
2, 41088, Note_on_c, 0, 71, 112
2, 41272, Note_off_c, 0, 71, 100
2, 41280, Note_on_c, 0, 67, 112
2, 41464, Note_off_c, 0, 67, 100
2, 41472, Note_on_c, 0, 69, 112
2, 42240, Note_off_c, 0, 69, 100
2, 42624, Note_on_c, 0, 69, 112
2, 42744, Note_off_c, 0, 69, 100
2, 43008, Note_on_c, 0, 69, 112
2, 43064, Note_off_c, 0, 69, 100
2, 43072, Note_on_c, 0, 67, 112
2, 43128, Note_off_c, 0, 67, 100
2, 43136, Note_on_c, 0, 69, 112
2, 43192, Note_off_c, 0, 69, 100
2, 43200, Note_on_c, 0, 67, 112
2, 43960, Note_off_c, 0, 67, 100
2, 44160, Note_on_c, 0, 67, 112
2, 44280, Note_off_c, 0, 67, 100
2, 44544, Note_on_c, 0, 67, 112
2, 44600, Note_off_c, 0, 67, 100
2, 44608, Note_on_c, 0, 66, 112
2, 44664, Note_off_c, 0, 66, 100
2, 44672, Note_on_c, 0, 67, 112
2, 44728, Note_off_c, 0, 67, 100
2, 44736, Note_on_c, 0, 66, 112
2, 45496, Note_off_c, 0, 66, 100
2, 45696, Note_on_c, 0, 71, 112
2, 45816, Note_off_c, 0, 71, 100
2, 46080, Note_on_c, 0, 64, 112
2, 46264, Note_off_c, 0, 64, 100
2, 46272, Note_on_c, 0, 66, 112
2, 46456, Note_off_c, 0, 66, 100
2, 46464, Note_on_c, 0, 67, 112
2, 47608, Note_off_c, 0, 67, 100
2, 47616, Note_on_c, 0, 66, 112
2, 48960, Note_off_c, 0, 66, 100
2, 49920, Note_on_c, 0, 81, 127
2, 51448, Note_off_c, 0, 81, 100
2, 51456, Note_on_c, 0, 79, 127
2, 52224, Note_off_c, 0, 79, 100
2, 52608, Note_on_c, 0, 81, 127
2, 52792, Note_off_c, 0, 81, 100
2, 52800, Note_on_c, 0, 83, 127
2, 52984, Note_off_c, 0, 83, 100
2, 52992, Note_on_c, 0, 84, 127
2, 53752, Note_off_c, 0, 84, 100
2, 53952, Note_on_c, 0, 83, 127
2, 54136, Note_off_c, 0, 83, 100
2, 54144, Note_on_c, 0, 84, 127
2, 54520, Note_off_c, 0, 84, 100
2, 54528, Note_on_c, 0, 83, 127
2, 55288, Note_off_c, 0, 83, 100
2, 56064, Note_on_c, 0, 76, 127
2, 57592, Note_off_c, 0, 76, 100
2, 57600, Note_on_c, 0, 75, 127
2, 57720, Note_off_c, 0, 75, 100
2, 57984, Note_on_c, 0, 76, 127
2, 58104, Note_off_c, 0, 76, 100
2, 58368, Note_on_c, 0, 78, 127
2, 59128, Note_off_c, 0, 78, 100
2, 59520, Note_on_c, 0, 76, 127
2, 59704, Note_off_c, 0, 76, 100
2, 59712, Note_on_c, 0, 78, 127
2, 59896, Note_off_c, 0, 78, 100
2, 59904, Note_on_c, 0, 79, 127
2, 60664, Note_off_c, 0, 79, 100
2, 60864, Note_on_c, 0, 78, 127
2, 61048, Note_off_c, 0, 78, 100
2, 61056, Note_on_c, 0, 76, 127
2, 61240, Note_off_c, 0, 76, 100
2, 61248, Note_on_c, 0, 74, 127
2, 61432, Note_off_c, 0, 74, 100
2, 61440, Note_on_c, 0, 72, 127
2, 61816, Note_off_c, 0, 72, 100
2, 62208, Note_on_c, 0, 81, 127
2, 63736, Note_off_c, 0, 81, 100
2, 63744, Note_on_c, 0, 79, 127
2, 64512, Note_off_c, 0, 79, 100
2, 64896, Note_on_c, 0, 81, 127
2, 65080, Note_off_c, 0, 81, 100
2, 65088, Note_on_c, 0, 83, 127
2, 65272, Note_off_c, 0, 83, 100
2, 65280, Note_on_c, 0, 84, 127
2, 66040, Note_off_c, 0, 84, 100
2, 66240, Note_on_c, 0, 83, 127
2, 66424, Note_off_c, 0, 83, 100
2, 66432, Note_on_c, 0, 84, 127
2, 66616, Note_off_c, 0, 84, 100
2, 66624, Note_on_c, 0, 81, 127
2, 66808, Note_off_c, 0, 81, 100
2, 66816, Note_on_c, 0, 83, 127
2, 67584, Note_off_c, 0, 83, 100
2, 67968, Note_on_c, 0, 83, 127
2, 68088, Note_off_c, 0, 83, 100
2, 68352, Note_on_c, 0, 81, 127
2, 69120, Note_off_c, 0, 81, 100
2, 69504, Note_on_c, 0, 81, 127
2, 69624, Note_off_c, 0, 81, 100
2, 69888, Note_on_c, 0, 79, 127
2, 70656, Note_off_c, 0, 79, 100
2, 71040, Note_on_c, 0, 84, 127
2, 71160, Note_off_c, 0, 84, 100
2, 71424, Note_on_c, 0, 78, 127
2, 71608, Note_off_c, 0, 78, 100
2, 71616, Note_on_c, 0, 79, 127
2, 71800, Note_off_c, 0, 79, 100
2, 71808, Note_on_c, 0, 81, 127
2, 72952, Note_off_c, 0, 81, 100
2, 72960, Note_on_c, 0, 79, 127
2, 73536, Note_off_c, 0, 79, 100
2, 74496, Note_on_c, 0, 81, 112
2, 76024, Note_off_c, 0, 81, 100
2, 76032, Note_on_c, 0, 79, 112
2, 76800, Note_off_c, 0, 79, 100
2, 77184, Note_on_c, 0, 81, 112
2, 77368, Note_off_c, 0, 81, 100
2, 77376, Note_on_c, 0, 83, 112
2, 77560, Note_off_c, 0, 83, 100
2, 77568, Note_on_c, 0, 84, 112
2, 78328, Note_off_c, 0, 84, 100
2, 78528, Note_on_c, 0, 83, 112
2, 78712, Note_off_c, 0, 83, 100
2, 78720, Note_on_c, 0, 84, 112
2, 79096, Note_off_c, 0, 84, 100
2, 79104, Note_on_c, 0, 83, 112
2, 79864, Note_off_c, 0, 83, 100
2, 80640, Note_on_c, 0, 76, 112
2, 82168, Note_off_c, 0, 76, 100
2, 82176, Note_on_c, 0, 75, 112
2, 82296, Note_off_c, 0, 75, 100
2, 82560, Note_on_c, 0, 76, 112
2, 82680, Note_off_c, 0, 76, 100
2, 82944, Note_on_c, 0, 78, 112
2, 83704, Note_off_c, 0, 78, 100
2, 84096, Note_on_c, 0, 76, 112
2, 84280, Note_off_c, 0, 76, 100
2, 84288, Note_on_c, 0, 78, 112
2, 84472, Note_off_c, 0, 78, 100
2, 84480, Note_on_c, 0, 79, 112
2, 85240, Note_off_c, 0, 79, 100
2, 85440, Note_on_c, 0, 78, 112
2, 85624, Note_off_c, 0, 78, 100
2, 85632, Note_on_c, 0, 76, 112
2, 85816, Note_off_c, 0, 76, 100
2, 85824, Note_on_c, 0, 74, 112
2, 86008, Note_off_c, 0, 74, 100
2, 86016, Note_on_c, 0, 72, 112
2, 86392, Note_off_c, 0, 72, 100
2, 86784, Note_on_c, 0, 81, 112
2, 88312, Note_off_c, 0, 81, 100
2, 88320, Note_on_c, 0, 79, 112
2, 89088, Note_off_c, 0, 79, 100
2, 89472, Note_on_c, 0, 81, 112
2, 89656, Note_off_c, 0, 81, 100
2, 89664, Note_on_c, 0, 83, 112
2, 89848, Note_off_c, 0, 83, 100
2, 89856, Note_on_c, 0, 84, 112
2, 90616, Note_off_c, 0, 84, 100
2, 90816, Note_on_c, 0, 83, 112
2, 91000, Note_off_c, 0, 83, 100
2, 91008, Note_on_c, 0, 84, 112
2, 91192, Note_off_c, 0, 84, 100
2, 91200, Note_on_c, 0, 81, 112
2, 91384, Note_off_c, 0, 81, 100
2, 91392, Note_on_c, 0, 83, 112
2, 92160, Note_off_c, 0, 83, 100
2, 92544, Note_on_c, 0, 83, 112
2, 92664, Note_off_c, 0, 83, 100
2, 92928, Note_on_c, 0, 83, 112
2, 92984, Note_off_c, 0, 83, 100
2, 92992, Note_on_c, 0, 81, 112
2, 93048, Note_off_c, 0, 81, 100
2, 93056, Note_on_c, 0, 83, 112
2, 93112, Note_off_c, 0, 83, 100
2, 93120, Note_on_c, 0, 81, 112
2, 93880, Note_off_c, 0, 81, 100
2, 94080, Note_on_c, 0, 81, 112
2, 94200, Note_off_c, 0, 81, 100
2, 94464, Note_on_c, 0, 81, 112
2, 94520, Note_off_c, 0, 81, 100
2, 94528, Note_on_c, 0, 79, 112
2, 94584, Note_off_c, 0, 79, 100
2, 94592, Note_on_c, 0, 81, 112
2, 94648, Note_off_c, 0, 81, 100
2, 94656, Note_on_c, 0, 79, 112
2, 95416, Note_off_c, 0, 79, 100
2, 95616, Note_on_c, 0, 84, 112
2, 95736, Note_off_c, 0, 84, 100
2, 96000, Note_on_c, 0, 78, 112
2, 96184, Note_off_c, 0, 78, 100
2, 96192, Note_on_c, 0, 79, 112
2, 96376, Note_off_c, 0, 79, 100
2, 96384, Note_on_c, 0, 81, 112
2, 97528, Note_off_c, 0, 81, 100
2, 97536, Note_on_c, 0, 79, 112
2, 98112, Note_off_c, 0, 79, 100
2, 98112, End_track
3, 0, Start_track
3, 0, Title_t, "Goldberg Variations"
3, 0, Control_c, 1, 0, 0
3, 0, Program_c, 1, 6
3, 0, Control_c, 1, 7, 127
3, 0, Control_c, 1, 10, 127
3, 0, Control_c, 1, 91, 127
3, 0, Key_signature, 1, "major"
3, 768, Note_on_c, 1, 79, 127
3, 2296, Note_off_c, 1, 79, 100
3, 2304, Note_on_c, 1, 78, 127
3, 3072, Note_off_c, 1, 78, 100
3, 3456, Note_on_c, 1, 79, 127
3, 3640, Note_off_c, 1, 79, 100
3, 3648, Note_on_c, 1, 78, 127
3, 3832, Note_off_c, 1, 78, 100
3, 3840, Note_on_c, 1, 76, 127
3, 4608, Note_off_c, 1, 76, 100
3, 4992, Note_on_c, 1, 74, 127
3, 5176, Note_off_c, 1, 74, 100
3, 5184, Note_on_c, 1, 73, 127
3, 5368, Note_off_c, 1, 73, 100
3, 5376, Note_on_c, 1, 74, 127
3, 6144, Note_off_c, 1, 74, 100
3, 6912, Note_on_c, 1, 76, 127
3, 7680, Note_off_c, 1, 76, 100
3, 8064, Note_on_c, 1, 74, 127
3, 8248, Note_off_c, 1, 74, 100
3, 8256, Note_on_c, 1, 76, 127
3, 8440, Note_off_c, 1, 76, 100
3, 8448, Note_on_c, 1, 78, 127
3, 9216, Note_off_c, 1, 78, 100
3, 9600, Note_on_c, 1, 81, 127
3, 9784, Note_off_c, 1, 81, 100
3, 9792, Note_on_c, 1, 79, 127
3, 9976, Note_off_c, 1, 79, 100
3, 9984, Note_on_c, 1, 81, 127
3, 10744, Note_off_c, 1, 81, 100
3, 10944, Note_on_c, 1, 79, 127
3, 11128, Note_off_c, 1, 79, 100
3, 11136, Note_on_c, 1, 81, 127
3, 11320, Note_off_c, 1, 81, 100
3, 11328, Note_on_c, 1, 78, 127
3, 11512, Note_off_c, 1, 78, 100
3, 11520, Note_on_c, 1, 79, 127
3, 12280, Note_off_c, 1, 79, 100
3, 13056, Note_on_c, 1, 76, 127
3, 14584, Note_off_c, 1, 76, 100
3, 14592, Note_on_c, 1, 74, 127
3, 15360, Note_off_c, 1, 74, 100
3, 15744, Note_on_c, 1, 76, 127
3, 15928, Note_off_c, 1, 76, 100
3, 15936, Note_on_c, 1, 78, 127
3, 16120, Note_off_c, 1, 78, 100
3, 16128, Note_on_c, 1, 79, 127
3, 16888, Note_off_c, 1, 79, 100
3, 17088, Note_on_c, 1, 78, 127
3, 17272, Note_off_c, 1, 78, 100
3, 17280, Note_on_c, 1, 79, 127
3, 17464, Note_off_c, 1, 79, 100
3, 17472, Note_on_c, 1, 76, 127
3, 17656, Note_off_c, 1, 76, 100
3, 17664, Note_on_c, 1, 78, 127
3, 18432, Note_off_c, 1, 78, 100
3, 18816, Note_on_c, 1, 78, 127
3, 18936, Note_off_c, 1, 78, 100
3, 19200, Note_on_c, 1, 76, 127
3, 19968, Note_off_c, 1, 76, 100
3, 20352, Note_on_c, 1, 76, 127
3, 20472, Note_off_c, 1, 76, 100
3, 20736, Note_on_c, 1, 74, 127
3, 21504, Note_off_c, 1, 74, 100
3, 21888, Note_on_c, 1, 79, 127
3, 22008, Note_off_c, 1, 79, 100
3, 22272, Note_on_c, 1, 73, 127
3, 22456, Note_off_c, 1, 73, 100
3, 22464, Note_on_c, 1, 74, 127
3, 22648, Note_off_c, 1, 74, 100
3, 22656, Note_on_c, 1, 76, 127
3, 23800, Note_off_c, 1, 76, 100
3, 23808, Note_on_c, 1, 74, 127
3, 24384, Note_off_c, 1, 74, 100
3, 25344, Note_on_c, 1, 79, 127
3, 26872, Note_off_c, 1, 79, 64
3, 26880, Note_on_c, 1, 78, 127
3, 27648, Note_off_c, 1, 78, 100
3, 28032, Note_on_c, 1, 79, 127
3, 28216, Note_off_c, 1, 79, 100
3, 28224, Note_on_c, 1, 78, 127
3, 28408, Note_off_c, 1, 78, 100
3, 28416, Note_on_c, 1, 76, 127
3, 29184, Note_off_c, 1, 76, 100
3, 29568, Note_on_c, 1, 74, 127
3, 29752, Note_off_c, 1, 74, 100
3, 29760, Note_on_c, 1, 73, 127
3, 29944, Note_off_c, 1, 73, 100
3, 29952, Note_on_c, 1, 74, 127
3, 30720, Note_off_c, 1, 74, 100
3, 31488, Note_on_c, 1, 76, 127
3, 32256, Note_off_c, 1, 76, 100
3, 32640, Note_on_c, 1, 74, 127
3, 32824, Note_off_c, 1, 74, 100
3, 32832, Note_on_c, 1, 76, 127
3, 33016, Note_off_c, 1, 76, 100
3, 33024, Note_on_c, 1, 78, 127
3, 33792, Note_off_c, 1, 78, 100
3, 34176, Note_on_c, 1, 81, 127
3, 34360, Note_off_c, 1, 81, 100
3, 34368, Note_on_c, 1, 79, 127
3, 34552, Note_off_c, 1, 79, 100
3, 34560, Note_on_c, 1, 81, 127
3, 35320, Note_off_c, 1, 81, 100
3, 35520, Note_on_c, 1, 79, 127
3, 35704, Note_off_c, 1, 79, 100
3, 35712, Note_on_c, 1, 81, 127
3, 35896, Note_off_c, 1, 81, 100
3, 35904, Note_on_c, 1, 78, 127
3, 36088, Note_off_c, 1, 78, 100
3, 36096, Note_on_c, 1, 79, 127
3, 36856, Note_off_c, 1, 79, 100
3, 37632, Note_on_c, 1, 76, 127
3, 39160, Note_off_c, 1, 76, 64
3, 39168, Note_on_c, 1, 74, 127
3, 39936, Note_off_c, 1, 74, 100
3, 40320, Note_on_c, 1, 76, 127
3, 40504, Note_off_c, 1, 76, 100
3, 40512, Note_on_c, 1, 78, 127
3, 40696, Note_off_c, 1, 78, 100
3, 40704, Note_on_c, 1, 79, 127
3, 41464, Note_off_c, 1, 79, 100
3, 41664, Note_on_c, 1, 78, 127
3, 41848, Note_off_c, 1, 78, 100
3, 41856, Note_on_c, 1, 79, 127
3, 42040, Note_off_c, 1, 79, 100
3, 42048, Note_on_c, 1, 76, 127
3, 42232, Note_off_c, 1, 76, 100
3, 42240, Note_on_c, 1, 78, 127
3, 43008, Note_off_c, 1, 78, 100
3, 43392, Note_on_c, 1, 78, 127
3, 43512, Note_off_c, 1, 78, 100
3, 43776, Note_on_c, 1, 78, 112
3, 43832, Note_off_c, 1, 78, 100
3, 43840, Note_on_c, 1, 76, 112
3, 43896, Note_off_c, 1, 76, 100
3, 43904, Note_on_c, 1, 78, 112
3, 43960, Note_off_c, 1, 78, 100
3, 43968, Note_on_c, 1, 76, 112
3, 44728, Note_off_c, 1, 76, 100
3, 44928, Note_on_c, 1, 76, 127
3, 45048, Note_off_c, 1, 76, 100
3, 45312, Note_on_c, 1, 76, 112
3, 45368, Note_off_c, 1, 76, 100
3, 45376, Note_on_c, 1, 74, 112
3, 45432, Note_off_c, 1, 74, 100
3, 45440, Note_on_c, 1, 76, 112
3, 45496, Note_off_c, 1, 76, 100
3, 45504, Note_on_c, 1, 74, 112
3, 46264, Note_off_c, 1, 74, 100
3, 46464, Note_on_c, 1, 79, 127
3, 46584, Note_off_c, 1, 79, 100
3, 46848, Note_on_c, 1, 73, 127
3, 47032, Note_off_c, 1, 73, 100
3, 47040, Note_on_c, 1, 74, 127
3, 47224, Note_off_c, 1, 74, 100
3, 47232, Note_on_c, 1, 76, 127
3, 48376, Note_off_c, 1, 76, 64
3, 48384, Note_on_c, 1, 74, 127
3, 48960, Note_off_c, 1, 74, 100
3, 49152, Note_on_c, 1, 72, 127
3, 50680, Note_off_c, 1, 72, 100
3, 50688, Note_on_c, 1, 71, 127
3, 51456, Note_off_c, 1, 71, 100
3, 51840, Note_on_c, 1, 72, 127
3, 52024, Note_off_c, 1, 72, 100
3, 52032, Note_on_c, 1, 74, 127
3, 52216, Note_off_c, 1, 74, 100
3, 52224, Note_on_c, 1, 76, 127
3, 52984, Note_off_c, 1, 76, 100
3, 53184, Note_on_c, 1, 75, 127
3, 53368, Note_off_c, 1, 75, 100
3, 53376, Note_on_c, 1, 76, 127
3, 53752, Note_off_c, 1, 76, 100
3, 53760, Note_on_c, 1, 75, 127
3, 54520, Note_off_c, 1, 75, 100
3, 55296, Note_on_c, 1, 67, 127
3, 56824, Note_off_c, 1, 67, 100
3, 56832, Note_on_c, 1, 66, 127
3, 56952, Note_off_c, 1, 66, 100
3, 57216, Note_on_c, 1, 67, 127
3, 57336, Note_off_c, 1, 67, 100
3, 57600, Note_on_c, 1, 69, 127
3, 58360, Note_off_c, 1, 69, 100
3, 58752, Note_on_c, 1, 67, 127
3, 58936, Note_off_c, 1, 67, 100
3, 58944, Note_on_c, 1, 69, 127
3, 59128, Note_off_c, 1, 69, 100
3, 59136, Note_on_c, 1, 71, 127
3, 59896, Note_off_c, 1, 71, 100
3, 60096, Note_on_c, 1, 69, 127
3, 60280, Note_off_c, 1, 69, 100
3, 60288, Note_on_c, 1, 67, 127
3, 60472, Note_off_c, 1, 67, 100
3, 60480, Note_on_c, 1, 66, 127
3, 60664, Note_off_c, 1, 66, 100
3, 60672, Note_on_c, 1, 64, 127
3, 61048, Note_off_c, 1, 64, 100
3, 61440, Note_on_c, 1, 72, 127
3, 62968, Note_off_c, 1, 72, 100
3, 62976, Note_on_c, 1, 71, 127
3, 63744, Note_off_c, 1, 71, 100
3, 64128, Note_on_c, 1, 72, 127
3, 64312, Note_off_c, 1, 72, 100
3, 64320, Note_on_c, 1, 74, 127
3, 64504, Note_off_c, 1, 74, 100
3, 64512, Note_on_c, 1, 76, 127
3, 65272, Note_off_c, 1, 76, 100
3, 65472, Note_on_c, 1, 74, 127
3, 65656, Note_off_c, 1, 74, 100
3, 65664, Note_on_c, 1, 76, 127
3, 65848, Note_off_c, 1, 76, 100
3, 65856, Note_on_c, 1, 72, 127
3, 66040, Note_off_c, 1, 72, 100
3, 66048, Note_on_c, 1, 74, 127
3, 66816, Note_off_c, 1, 74, 100
3, 67200, Note_on_c, 1, 74, 127
3, 67320, Note_off_c, 1, 74, 100
3, 67584, Note_on_c, 1, 72, 127
3, 68352, Note_off_c, 1, 72, 100
3, 68736, Note_on_c, 1, 72, 127
3, 68856, Note_off_c, 1, 72, 100
3, 69120, Note_on_c, 1, 71, 127
3, 69888, Note_off_c, 1, 71, 100
3, 70272, Note_on_c, 1, 76, 127
3, 70392, Note_off_c, 1, 76, 100
3, 70656, Note_on_c, 1, 69, 127
3, 70840, Note_off_c, 1, 69, 100
3, 70848, Note_on_c, 1, 71, 127
3, 71032, Note_off_c, 1, 71, 100
3, 71040, Note_on_c, 1, 72, 127
3, 72184, Note_off_c, 1, 72, 100
3, 72192, Note_on_c, 1, 71, 127
3, 73536, Note_off_c, 1, 71, 100
3, 73728, Note_on_c, 1, 72, 112
3, 75256, Note_off_c, 1, 72, 100
3, 75264, Note_on_c, 1, 71, 112
3, 76032, Note_off_c, 1, 71, 100
3, 76416, Note_on_c, 1, 72, 112
3, 76600, Note_off_c, 1, 72, 100
3, 76608, Note_on_c, 1, 74, 112
3, 76792, Note_off_c, 1, 74, 100
3, 76800, Note_on_c, 1, 76, 112
3, 77560, Note_off_c, 1, 76, 100
3, 77760, Note_on_c, 1, 75, 112
3, 77944, Note_off_c, 1, 75, 100
3, 77952, Note_on_c, 1, 76, 112
3, 78328, Note_off_c, 1, 76, 100
3, 78336, Note_on_c, 1, 75, 112
3, 79096, Note_off_c, 1, 75, 100
3, 79872, Note_on_c, 1, 67, 112
3, 81400, Note_off_c, 1, 67, 100
3, 81408, Note_on_c, 1, 66, 112
3, 81528, Note_off_c, 1, 66, 100
3, 81792, Note_on_c, 1, 67, 112
3, 81912, Note_off_c, 1, 67, 100
3, 82176, Note_on_c, 1, 69, 112
3, 82936, Note_off_c, 1, 69, 100
3, 83328, Note_on_c, 1, 67, 112
3, 83512, Note_off_c, 1, 67, 100
3, 83520, Note_on_c, 1, 69, 112
3, 83704, Note_off_c, 1, 69, 100
3, 83712, Note_on_c, 1, 71, 112
3, 84472, Note_off_c, 1, 71, 100
3, 84672, Note_on_c, 1, 69, 112
3, 84856, Note_off_c, 1, 69, 100
3, 84864, Note_on_c, 1, 67, 112
3, 85048, Note_off_c, 1, 67, 100
3, 85056, Note_on_c, 1, 66, 112
3, 85240, Note_off_c, 1, 66, 100
3, 85248, Note_on_c, 1, 64, 112
3, 85624, Note_off_c, 1, 64, 100
3, 86016, Note_on_c, 1, 72, 112
3, 87544, Note_off_c, 1, 72, 100
3, 87552, Note_on_c, 1, 71, 112
3, 88320, Note_off_c, 1, 71, 100
3, 88704, Note_on_c, 1, 72, 112
3, 88888, Note_off_c, 1, 72, 100
3, 88896, Note_on_c, 1, 74, 112
3, 89080, Note_off_c, 1, 74, 100
3, 89088, Note_on_c, 1, 76, 112
3, 89848, Note_off_c, 1, 76, 100
3, 90048, Note_on_c, 1, 74, 112
3, 90232, Note_off_c, 1, 74, 100
3, 90240, Note_on_c, 1, 76, 112
3, 90424, Note_off_c, 1, 76, 100
3, 90432, Note_on_c, 1, 72, 112
3, 90616, Note_off_c, 1, 72, 100
3, 90624, Note_on_c, 1, 74, 112
3, 91392, Note_off_c, 1, 74, 100
3, 91776, Note_on_c, 1, 74, 112
3, 91896, Note_off_c, 1, 74, 100
3, 92160, Note_on_c, 1, 74, 112
3, 92216, Note_off_c, 1, 74, 100
3, 92224, Note_on_c, 1, 72, 112
3, 92280, Note_off_c, 1, 72, 100
3, 92288, Note_on_c, 1, 74, 112
3, 92344, Note_off_c, 1, 74, 100
3, 92352, Note_on_c, 1, 72, 112
3, 93112, Note_off_c, 1, 72, 100
3, 93312, Note_on_c, 1, 72, 112
3, 93432, Note_off_c, 1, 72, 100
3, 93696, Note_on_c, 1, 72, 112
3, 93752, Note_off_c, 1, 72, 100
3, 93760, Note_on_c, 1, 71, 112
3, 93816, Note_off_c, 1, 71, 100
3, 93824, Note_on_c, 1, 72, 112
3, 93880, Note_off_c, 1, 72, 100
3, 93888, Note_on_c, 1, 71, 112
3, 94648, Note_off_c, 1, 71, 100
3, 94848, Note_on_c, 1, 76, 112
3, 94968, Note_off_c, 1, 76, 100
3, 95232, Note_on_c, 1, 69, 112
3, 95416, Note_off_c, 1, 69, 100
3, 95424, Note_on_c, 1, 71, 112
3, 95608, Note_off_c, 1, 71, 100
3, 95616, Note_on_c, 1, 72, 112
3, 96760, Note_off_c, 1, 72, 100
3, 96768, Note_on_c, 1, 71, 112
3, 98112, Note_off_c, 1, 71, 100
3, 98112, End_track
4, 0, Start_track
4, 0, Title_t, "BWV 988"
4, 0, Control_c, 2, 0, 0
4, 0, Program_c, 2, 6
4, 0, Control_c, 2, 7, 127
4, 0, Control_c, 2, 10, 64
4, 0, Control_c, 2, 91, 127
4, 0, Key_signature, 1, "major"
4, 384, Note_on_c, 2, 55, 127
4, 568, Note_off_c, 2, 55, 100
4, 576, Note_on_c, 2, 57, 127
4, 760, Note_off_c, 2, 57, 100
4, 768, Note_on_c, 2, 59, 127
4, 888, Note_off_c, 2, 59, 100
4, 1152, Note_on_c, 2, 60, 127
4, 1272, Note_off_c, 2, 60, 100
4, 1536, Note_on_c, 2, 62, 127
4, 1656, Note_off_c, 2, 62, 100
4, 1920, Note_on_c, 2, 50, 127
4, 2040, Note_off_c, 2, 50, 100
4, 2304, Note_on_c, 2, 62, 127
4, 3064, Note_off_c, 2, 62, 100
4, 3456, Note_on_c, 2, 64, 127
4, 3640, Note_off_c, 2, 64, 100
4, 3648, Note_on_c, 2, 62, 127
4, 3832, Note_off_c, 2, 62, 100
4, 3840, Note_on_c, 2, 61, 127
4, 3960, Note_off_c, 2, 61, 100
4, 4224, Note_on_c, 2, 57, 127
4, 4344, Note_off_c, 2, 57, 100
4, 4608, Note_on_c, 2, 62, 127
4, 4864, Note_off_c, 2, 62, 100
4, 4992, Note_on_c, 2, 50, 127
4, 5112, Note_off_c, 2, 50, 100
4, 5376, Note_on_c, 2, 62, 127
4, 5496, Note_off_c, 2, 62, 100
4, 5760, Note_on_c, 2, 60, 127
4, 5880, Note_off_c, 2, 60, 100
4, 6144, Note_on_c, 2, 60, 127
4, 6200, Note_off_c, 2, 60, 100
4, 6208, Note_on_c, 2, 59, 127
4, 6264, Note_off_c, 2, 59, 100
4, 6272, Note_on_c, 2, 60, 127
4, 6328, Note_off_c, 2, 60, 100
4, 6336, Note_on_c, 2, 59, 127
4, 6520, Note_off_c, 2, 59, 100
4, 6528, Note_on_c, 2, 57, 127
4, 6712, Note_off_c, 2, 57, 100
4, 6720, Note_on_c, 2, 59, 127
4, 6904, Note_off_c, 2, 59, 100
4, 6912, Note_on_c, 2, 60, 127
4, 7032, Note_off_c, 2, 60, 100
4, 7296, Note_on_c, 2, 48, 127
4, 7416, Note_off_c, 2, 48, 100
4, 7680, Note_on_c, 2, 60, 127
4, 8056, Note_off_c, 2, 60, 100
4, 8064, Note_on_c, 2, 59, 127
4, 8248, Note_off_c, 2, 59, 100
4, 8256, Note_on_c, 2, 60, 127
4, 8440, Note_off_c, 2, 60, 100
4, 8448, Note_on_c, 2, 62, 127
4, 8568, Note_off_c, 2, 62, 100
4, 8832, Note_on_c, 2, 57, 127
4, 8952, Note_off_c, 2, 57, 100
4, 9216, Note_on_c, 2, 50, 127
4, 9592, Note_off_c, 2, 50, 100
4, 9600, Note_on_c, 2, 54, 127
4, 9784, Note_off_c, 2, 54, 100
4, 9792, Note_on_c, 2, 52, 127
4, 9976, Note_off_c, 2, 52, 100
4, 9984, Note_on_c, 2, 54, 127
4, 10104, Note_off_c, 2, 54, 100
4, 10368, Note_on_c, 2, 50, 127
4, 10488, Note_off_c, 2, 50, 100
4, 10752, Note_on_c, 2, 55, 127
4, 11128, Note_off_c, 2, 55, 100
4, 11136, Note_on_c, 2, 50, 127
4, 11512, Note_off_c, 2, 50, 100
4, 11520, Note_on_c, 2, 43, 127
4, 11640, Note_off_c, 2, 43, 100
4, 11904, Note_on_c, 2, 55, 127
4, 12088, Note_off_c, 2, 55, 100
4, 12096, Note_on_c, 2, 57, 127
4, 12280, Note_off_c, 2, 57, 100
4, 12288, Note_on_c, 2, 59, 127
4, 12544, Note_off_c, 2, 59, 100
4, 12672, Note_on_c, 2, 57, 127
4, 12856, Note_off_c, 2, 57, 100
4, 12864, Note_on_c, 2, 59, 127
4, 13048, Note_off_c, 2, 59, 100
4, 13056, Note_on_c, 2, 61, 127
4, 13312, Note_off_c, 2, 61, 100
4, 13440, Note_on_c, 2, 59, 127
4, 13624, Note_off_c, 2, 59, 100
4, 13632, Note_on_c, 2, 61, 127
4, 13816, Note_off_c, 2, 61, 100
4, 13824, Note_on_c, 2, 62, 127
4, 14080, Note_off_c, 2, 62, 100
4, 14208, Note_on_c, 2, 61, 127
4, 14328, Note_off_c, 2, 61, 100
4, 14592, Note_on_c, 2, 59, 127
4, 14712, Note_off_c, 2, 59, 100
4, 14976, Note_on_c, 2, 57, 127
4, 15096, Note_off_c, 2, 57, 100
4, 15360, Note_on_c, 2, 55, 127
4, 15616, Note_off_c, 2, 55, 100
4, 15744, Note_on_c, 2, 54, 127
4, 15864, Note_off_c, 2, 54, 100
4, 16128, Note_on_c, 2, 52, 127
4, 16248, Note_off_c, 2, 52, 100
4, 16512, Note_on_c, 2, 50, 127
4, 16632, Note_off_c, 2, 50, 100
4, 16896, Note_on_c, 2, 49, 127
4, 17152, Note_off_c, 2, 49, 100
4, 17280, Note_on_c, 2, 47, 127
4, 17464, Note_off_c, 2, 47, 100
4, 17472, Note_on_c, 2, 49, 127
4, 17656, Note_off_c, 2, 49, 100
4, 17664, Note_on_c, 2, 50, 127
4, 17920, Note_off_c, 2, 50, 100
4, 18048, Note_on_c, 2, 49, 127
4, 18232, Note_off_c, 2, 49, 100
4, 18240, Note_on_c, 2, 50, 127
4, 18424, Note_off_c, 2, 50, 100
4, 18432, Note_on_c, 2, 47, 127
4, 18688, Note_off_c, 2, 47, 100
4, 18816, Note_on_c, 2, 45, 127
4, 19000, Note_off_c, 2, 45, 100
4, 19008, Note_on_c, 2, 47, 127
4, 19192, Note_off_c, 2, 47, 100
4, 19200, Note_on_c, 2, 49, 127
4, 19456, Note_off_c, 2, 49, 100
4, 19584, Note_on_c, 2, 47, 127
4, 19768, Note_off_c, 2, 47, 100
4, 19776, Note_on_c, 2, 49, 127
4, 19960, Note_off_c, 2, 49, 100
4, 19968, Note_on_c, 2, 46, 127
4, 20224, Note_off_c, 2, 46, 100
4, 20352, Note_on_c, 2, 44, 127
4, 20536, Note_off_c, 2, 44, 100
4, 20544, Note_on_c, 2, 46, 127
4, 20672, Note_off_c, 2, 46, 100
4, 20736, Note_on_c, 2, 47, 127
4, 20920, Note_off_c, 2, 47, 100
4, 20928, Note_on_c, 2, 45, 127
4, 21112, Note_off_c, 2, 45, 100
4, 21120, Note_on_c, 2, 43, 127
4, 21304, Note_off_c, 2, 43, 100
4, 21312, Note_on_c, 2, 42, 127
4, 21496, Note_off_c, 2, 42, 100
4, 21504, Note_on_c, 2, 43, 127
4, 21624, Note_off_c, 2, 43, 100
4, 21888, Note_on_c, 2, 40, 127
4, 22008, Note_off_c, 2, 40, 100
4, 22272, Note_on_c, 2, 45, 127
4, 22528, Note_off_c, 2, 45, 100
4, 22656, Note_on_c, 2, 33, 127
4, 22776, Note_off_c, 2, 33, 99
4, 23040, Note_on_c, 2, 38, 127
4, 23160, Note_off_c, 2, 38, 100
4, 23424, Note_on_c, 2, 45, 127
4, 23544, Note_off_c, 2, 45, 100
4, 23808, Note_on_c, 2, 50, 127
4, 24384, Note_off_c, 2, 50, 100
4, 24960, Note_on_c, 2, 55, 127
4, 25144, Note_off_c, 2, 55, 100
4, 25152, Note_on_c, 2, 57, 127
4, 25336, Note_off_c, 2, 57, 100
4, 25344, Note_on_c, 2, 59, 127
4, 25464, Note_off_c, 2, 59, 100
4, 25728, Note_on_c, 2, 60, 127
4, 25848, Note_off_c, 2, 60, 100
4, 26112, Note_on_c, 2, 62, 127
4, 26232, Note_off_c, 2, 62, 100
4, 26496, Note_on_c, 2, 50, 127
4, 26616, Note_off_c, 2, 50, 100
4, 26880, Note_on_c, 2, 62, 127
4, 27640, Note_off_c, 2, 62, 100
4, 28032, Note_on_c, 2, 64, 127
4, 28216, Note_off_c, 2, 64, 100
4, 28224, Note_on_c, 2, 62, 127
4, 28408, Note_off_c, 2, 62, 100
4, 28416, Note_on_c, 2, 61, 127
4, 28536, Note_off_c, 2, 61, 100
4, 28800, Note_on_c, 2, 57, 127
4, 28920, Note_off_c, 2, 57, 100
4, 29184, Note_on_c, 2, 62, 127
4, 29440, Note_off_c, 2, 62, 100
4, 29568, Note_on_c, 2, 50, 127
4, 29688, Note_off_c, 2, 50, 100
4, 29952, Note_on_c, 2, 62, 127
4, 30072, Note_off_c, 2, 62, 100
4, 30336, Note_on_c, 2, 60, 127
4, 30456, Note_off_c, 2, 60, 100
4, 30720, Note_on_c, 2, 60, 127
4, 30776, Note_off_c, 2, 60, 100
4, 30784, Note_on_c, 2, 59, 127
4, 30840, Note_off_c, 2, 59, 100
4, 30848, Note_on_c, 2, 60, 127
4, 30904, Note_off_c, 2, 60, 100
4, 30912, Note_on_c, 2, 59, 127
4, 31096, Note_off_c, 2, 59, 100
4, 31104, Note_on_c, 2, 57, 127
4, 31288, Note_off_c, 2, 57, 100
4, 31296, Note_on_c, 2, 59, 127
4, 31480, Note_off_c, 2, 59, 100
4, 31488, Note_on_c, 2, 60, 127
4, 31608, Note_off_c, 2, 60, 100
4, 31872, Note_on_c, 2, 48, 127
4, 31992, Note_off_c, 2, 48, 100
4, 32256, Note_on_c, 2, 62, 112
4, 32312, Note_off_c, 2, 62, 100
4, 32320, Note_on_c, 2, 60, 112
4, 32376, Note_off_c, 2, 60, 100
4, 32384, Note_on_c, 2, 62, 112
4, 32440, Note_off_c, 2, 62, 100
4, 32448, Note_on_c, 2, 60, 112
4, 32632, Note_off_c, 2, 60, 100
4, 32640, Note_on_c, 2, 59, 127
4, 32824, Note_off_c, 2, 59, 100
4, 32832, Note_on_c, 2, 60, 127
4, 33016, Note_off_c, 2, 60, 100
4, 33024, Note_on_c, 2, 62, 127
4, 33144, Note_off_c, 2, 62, 100
4, 33408, Note_on_c, 2, 57, 127
4, 33528, Note_off_c, 2, 57, 100
4, 33792, Note_on_c, 2, 50, 127
4, 34168, Note_off_c, 2, 50, 100
4, 34176, Note_on_c, 2, 54, 127
4, 34360, Note_off_c, 2, 54, 100
4, 34368, Note_on_c, 2, 52, 127
4, 34552, Note_off_c, 2, 52, 100
4, 34560, Note_on_c, 2, 54, 127
4, 34680, Note_off_c, 2, 54, 100
4, 34944, Note_on_c, 2, 50, 127
4, 35064, Note_off_c, 2, 50, 100
4, 35328, Note_on_c, 2, 55, 127
4, 35704, Note_off_c, 2, 55, 100
4, 35712, Note_on_c, 2, 50, 127
4, 35832, Note_off_c, 2, 50, 100
4, 36096, Note_on_c, 2, 43, 127
4, 36352, Note_off_c, 2, 43, 100
4, 36480, Note_on_c, 2, 55, 127
4, 36664, Note_off_c, 2, 55, 100
4, 36672, Note_on_c, 2, 57, 127
4, 36856, Note_off_c, 2, 57, 100
4, 36864, Note_on_c, 2, 59, 127
4, 37120, Note_off_c, 2, 59, 100
4, 37248, Note_on_c, 2, 57, 127
4, 37432, Note_off_c, 2, 57, 100
4, 37440, Note_on_c, 2, 59, 127
4, 37624, Note_off_c, 2, 59, 100
4, 37632, Note_on_c, 2, 61, 127
4, 37888, Note_off_c, 2, 61, 100
4, 38016, Note_on_c, 2, 59, 127
4, 38200, Note_off_c, 2, 59, 100
4, 38208, Note_on_c, 2, 61, 127
4, 38392, Note_off_c, 2, 61, 100
4, 38400, Note_on_c, 2, 62, 127
4, 38656, Note_off_c, 2, 62, 100
4, 38784, Note_on_c, 2, 61, 127
4, 38904, Note_off_c, 2, 61, 100
4, 39168, Note_on_c, 2, 59, 127
4, 39288, Note_off_c, 2, 59, 100
4, 39552, Note_on_c, 2, 57, 127
4, 39672, Note_off_c, 2, 57, 100
4, 39936, Note_on_c, 2, 57, 112
4, 39992, Note_off_c, 2, 57, 100
4, 40000, Note_on_c, 2, 55, 112
4, 40056, Note_off_c, 2, 55, 100
4, 40064, Note_on_c, 2, 57, 112
4, 40120, Note_off_c, 2, 57, 100
4, 40128, Note_on_c, 2, 55, 112
4, 40320, Note_on_c, 2, 54, 127
4, 40384, Note_off_c, 2, 55, 100
4, 40440, Note_off_c, 2, 54, 100
4, 40704, Note_on_c, 2, 52, 127
4, 40824, Note_off_c, 2, 52, 100
4, 41088, Note_on_c, 2, 50, 127
4, 41208, Note_off_c, 2, 50, 100
4, 41472, Note_on_c, 2, 49, 127
4, 41728, Note_off_c, 2, 49, 100
4, 41856, Note_on_c, 2, 47, 127
4, 42040, Note_off_c, 2, 47, 100
4, 42048, Note_on_c, 2, 49, 127
4, 42232, Note_off_c, 2, 49, 100
4, 42240, Note_on_c, 2, 50, 127
4, 42496, Note_off_c, 2, 50, 100
4, 42624, Note_on_c, 2, 49, 127
4, 42808, Note_off_c, 2, 49, 100
4, 42816, Note_on_c, 2, 50, 127
4, 43000, Note_off_c, 2, 50, 100
4, 43008, Note_on_c, 2, 47, 127
4, 43264, Note_off_c, 2, 47, 100
4, 43392, Note_on_c, 2, 45, 127
4, 43576, Note_off_c, 2, 45, 100
4, 43584, Note_on_c, 2, 47, 127
4, 43768, Note_off_c, 2, 47, 100
4, 43776, Note_on_c, 2, 49, 127
4, 44032, Note_off_c, 2, 49, 100
4, 44160, Note_on_c, 2, 47, 127
4, 44344, Note_off_c, 2, 47, 100
4, 44352, Note_on_c, 2, 49, 127
4, 44536, Note_off_c, 2, 49, 100
4, 44544, Note_on_c, 2, 46, 127
4, 44800, Note_off_c, 2, 46, 100
4, 44928, Note_on_c, 2, 44, 127
4, 45112, Note_off_c, 2, 44, 100
4, 45120, Note_on_c, 2, 46, 127
4, 45248, Note_off_c, 2, 46, 100
4, 45312, Note_on_c, 2, 47, 127
4, 45496, Note_off_c, 2, 47, 100
4, 45504, Note_on_c, 2, 45, 127
4, 45688, Note_off_c, 2, 45, 100
4, 45696, Note_on_c, 2, 43, 127
4, 45880, Note_off_c, 2, 43, 100
4, 45888, Note_on_c, 2, 42, 127
4, 46072, Note_off_c, 2, 42, 100
4, 46080, Note_on_c, 2, 43, 127
4, 46200, Note_off_c, 2, 43, 100
4, 46464, Note_on_c, 2, 40, 127
4, 46584, Note_off_c, 2, 40, 100
4, 46848, Note_on_c, 2, 45, 127
4, 47104, Note_off_c, 2, 45, 100
4, 47232, Note_on_c, 2, 33, 112
4, 47352, Note_off_c, 2, 33, 100
4, 47616, Note_on_c, 2, 38, 127
4, 47736, Note_off_c, 2, 38, 100
4, 48000, Note_on_c, 2, 45, 127
4, 48120, Note_off_c, 2, 45, 100
4, 48384, Note_on_c, 2, 50, 127
4, 48960, Note_off_c, 2, 50, 100
4, 49536, Note_on_c, 2, 50, 127
4, 49720, Note_off_c, 2, 50, 100
4, 49728, Note_on_c, 2, 52, 127
4, 49912, Note_off_c, 2, 52, 100
4, 49920, Note_on_c, 2, 54, 127
4, 50040, Note_off_c, 2, 54, 100
4, 50304, Note_on_c, 2, 50, 127
4, 50424, Note_off_c, 2, 50, 100
4, 50688, Note_on_c, 2, 55, 127
4, 50808, Note_off_c, 2, 55, 100
4, 51072, Note_on_c, 2, 43, 127
4, 51192, Note_off_c, 2, 43, 100
4, 51456, Note_on_c, 2, 55, 127
4, 51712, Note_off_c, 2, 55, 100
4, 51840, Note_on_c, 2, 57, 127
4, 52024, Note_off_c, 2, 57, 100
4, 52032, Note_on_c, 2, 59, 127
4, 52216, Note_off_c, 2, 59, 100
4, 52224, Note_on_c, 2, 60, 127
4, 52480, Note_off_c, 2, 60, 100
4, 52608, Note_on_c, 2, 59, 127
4, 52728, Note_off_c, 2, 59, 100
4, 52992, Note_on_c, 2, 57, 127
4, 53112, Note_off_c, 2, 57, 100
4, 53376, Note_on_c, 2, 55, 127
4, 53560, Note_off_c, 2, 55, 100
4, 53568, Note_on_c, 2, 57, 127
4, 53752, Note_off_c, 2, 57, 100
4, 53760, Note_on_c, 2, 59, 127
4, 54144, Note_off_c, 2, 59, 100
4, 54336, Note_on_c, 2, 57, 127
4, 54520, Note_off_c, 2, 57, 100
4, 54528, Note_on_c, 2, 55, 127
4, 54712, Note_off_c, 2, 55, 100
4, 54720, Note_on_c, 2, 54, 127
4, 54904, Note_off_c, 2, 54, 100
4, 54912, Note_on_c, 2, 52, 127
4, 55096, Note_off_c, 2, 52, 100
4, 55104, Note_on_c, 2, 51, 127
4, 55288, Note_off_c, 2, 51, 100
4, 55296, Note_on_c, 2, 52, 127
4, 55416, Note_off_c, 2, 52, 100
4, 55680, Note_on_c, 2, 64, 127
4, 55864, Note_off_c, 2, 64, 100
4, 55872, Note_on_c, 2, 62, 127
4, 56056, Note_off_c, 2, 62, 100
4, 56064, Note_on_c, 2, 60, 127
4, 56184, Note_off_c, 2, 60, 100
4, 56448, Note_on_c, 2, 59, 127
4, 56568, Note_off_c, 2, 59, 100
4, 56832, Note_on_c, 2, 57, 127
4, 57208, Note_off_c, 2, 57, 100
4, 57216, Note_on_c, 2, 59, 127
4, 57400, Note_off_c, 2, 59, 100
4, 57408, Note_on_c, 2, 60, 127
4, 57592, Note_off_c, 2, 60, 100
4, 57600, Note_on_c, 2, 54, 127
4, 57856, Note_off_c, 2, 54, 100
4, 57984, Note_on_c, 2, 55, 127
4, 58168, Note_off_c, 2, 55, 100
4, 58176, Note_on_c, 2, 57, 127
4, 58360, Note_off_c, 2, 57, 100
4, 58368, Note_on_c, 2, 51, 127
4, 58624, Note_off_c, 2, 51, 100
4, 58752, Note_on_c, 2, 52, 127
4, 58936, Note_off_c, 2, 52, 100
4, 58944, Note_on_c, 2, 54, 127
4, 59128, Note_off_c, 2, 54, 100
4, 59136, Note_on_c, 2, 47, 127
4, 59392, Note_off_c, 2, 47, 100
4, 59520, Note_on_c, 2, 49, 127
4, 59704, Note_off_c, 2, 49, 100
4, 59712, Note_on_c, 2, 51, 127
4, 59896, Note_off_c, 2, 51, 100
4, 59904, Note_on_c, 2, 52, 127
4, 60160, Note_off_c, 2, 52, 100
4, 60288, Note_on_c, 2, 64, 127
4, 60472, Note_off_c, 2, 64, 100
4, 60480, Note_on_c, 2, 63, 127
4, 60664, Note_off_c, 2, 63, 100
4, 60672, Note_on_c, 2, 64, 127
4, 60792, Note_off_c, 2, 64, 100
4, 61056, Note_on_c, 2, 66, 127
4, 61240, Note_off_c, 2, 66, 100
4, 61248, Note_on_c, 2, 67, 127
4, 61432, Note_off_c, 2, 67, 100
4, 61440, Note_on_c, 2, 69, 127
4, 61696, Note_off_c, 2, 69, 100
4, 61824, Note_on_c, 2, 67, 127
4, 62008, Note_off_c, 2, 67, 100
4, 62016, Note_on_c, 2, 69, 127
4, 62200, Note_off_c, 2, 69, 100
4, 62208, Note_on_c, 2, 66, 127
4, 62464, Note_off_c, 2, 66, 100
4, 62592, Note_on_c, 2, 64, 127
4, 62776, Note_off_c, 2, 64, 100
4, 62784, Note_on_c, 2, 66, 127
4, 62968, Note_off_c, 2, 66, 100
4, 62976, Note_on_c, 2, 67, 127
4, 63096, Note_off_c, 2, 67, 100
4, 63360, Note_on_c, 2, 66, 127
4, 63480, Note_off_c, 2, 66, 100
4, 63744, Note_on_c, 2, 64, 127
4, 63864, Note_off_c, 2, 64, 100
4, 64128, Note_on_c, 2, 62, 127
4, 64248, Note_off_c, 2, 62, 100
4, 64512, Note_on_c, 2, 60, 127
4, 64768, Note_off_c, 2, 60, 100
4, 64896, Note_on_c, 2, 59, 127
4, 65016, Note_off_c, 2, 59, 100
4, 65280, Note_on_c, 2, 57, 127
4, 65400, Note_off_c, 2, 57, 100
4, 65664, Note_on_c, 2, 55, 127
4, 65784, Note_off_c, 2, 55, 100
4, 66048, Note_on_c, 2, 54, 127
4, 66424, Note_off_c, 2, 54, 100
4, 66432, Note_on_c, 2, 52, 127
4, 66616, Note_off_c, 2, 52, 100
4, 66624, Note_on_c, 2, 54, 127
4, 66808, Note_off_c, 2, 54, 100
4, 66816, Note_on_c, 2, 55, 127
4, 67072, Note_off_c, 2, 55, 100
4, 67200, Note_on_c, 2, 54, 127
4, 67384, Note_off_c, 2, 54, 100
4, 67392, Note_on_c, 2, 55, 127
4, 67576, Note_off_c, 2, 55, 100
4, 67584, Note_on_c, 2, 52, 127
4, 67840, Note_off_c, 2, 52, 100
4, 67968, Note_on_c, 2, 50, 127
4, 68152, Note_off_c, 2, 50, 100
4, 68160, Note_on_c, 2, 52, 127
4, 68344, Note_off_c, 2, 52, 100
4, 68352, Note_on_c, 2, 54, 127
4, 68608, Note_off_c, 2, 54, 100
4, 68736, Note_on_c, 2, 52, 127
4, 68920, Note_off_c, 2, 52, 100
4, 68928, Note_on_c, 2, 54, 127
4, 69112, Note_off_c, 2, 54, 100
4, 69120, Note_on_c, 2, 51, 127
4, 69376, Note_off_c, 2, 51, 100
4, 69504, Note_on_c, 2, 49, 127
4, 69688, Note_off_c, 2, 49, 100
4, 69696, Note_on_c, 2, 51, 127
4, 69824, Note_off_c, 2, 51, 100
4, 69888, Note_on_c, 2, 52, 127
4, 70072, Note_off_c, 2, 52, 100
4, 70080, Note_on_c, 2, 50, 127
4, 70264, Note_off_c, 2, 50, 100
4, 70272, Note_on_c, 2, 48, 127
4, 70456, Note_off_c, 2, 48, 100
4, 70464, Note_on_c, 2, 47, 127
4, 70648, Note_off_c, 2, 47, 100
4, 70656, Note_on_c, 2, 48, 127
4, 70912, Note_off_c, 2, 48, 100
4, 71040, Note_on_c, 2, 45, 127
4, 71160, Note_off_c, 2, 45, 100
4, 71424, Note_on_c, 2, 50, 127
4, 71544, Note_off_c, 2, 50, 100
4, 71808, Note_on_c, 2, 38, 127
4, 71928, Note_off_c, 2, 38, 100
4, 72192, Note_on_c, 2, 43, 127
4, 72448, Note_off_c, 2, 43, 100
4, 72576, Note_on_c, 2, 50, 127
4, 72696, Note_off_c, 2, 50, 100
4, 72960, Note_on_c, 2, 55, 127
4, 73536, Note_off_c, 2, 55, 100
4, 74112, Note_on_c, 2, 50, 112
4, 74296, Note_off_c, 2, 50, 100
4, 74304, Note_on_c, 2, 52, 112
4, 74488, Note_off_c, 2, 52, 100
4, 74496, Note_on_c, 2, 54, 112
4, 74616, Note_off_c, 2, 54, 100
4, 74880, Note_on_c, 2, 50, 112
4, 75000, Note_off_c, 2, 50, 100
4, 75264, Note_on_c, 2, 55, 112
4, 75384, Note_off_c, 2, 55, 100
4, 75648, Note_on_c, 2, 43, 112
4, 75768, Note_off_c, 2, 43, 100
4, 76032, Note_on_c, 2, 55, 112
4, 76288, Note_off_c, 2, 55, 100
4, 76416, Note_on_c, 2, 57, 112
4, 76600, Note_off_c, 2, 57, 100
4, 76608, Note_on_c, 2, 59, 112
4, 76792, Note_off_c, 2, 59, 100
4, 76800, Note_on_c, 2, 60, 112
4, 77056, Note_off_c, 2, 60, 100
4, 77184, Note_on_c, 2, 59, 112
4, 77304, Note_off_c, 2, 59, 100
4, 77568, Note_on_c, 2, 57, 112
4, 77688, Note_off_c, 2, 57, 100
4, 77952, Note_on_c, 2, 55, 112
4, 78136, Note_off_c, 2, 55, 100
4, 78144, Note_on_c, 2, 57, 112
4, 78328, Note_off_c, 2, 57, 100
4, 78336, Note_on_c, 2, 59, 112
4, 78720, Note_off_c, 2, 59, 100
4, 78912, Note_on_c, 2, 57, 112
4, 79096, Note_off_c, 2, 57, 100
4, 79104, Note_on_c, 2, 55, 112
4, 79288, Note_off_c, 2, 55, 100
4, 79296, Note_on_c, 2, 54, 112
4, 79480, Note_off_c, 2, 54, 100
4, 79488, Note_on_c, 2, 52, 112
4, 79672, Note_off_c, 2, 52, 100
4, 79680, Note_on_c, 2, 51, 112
4, 79864, Note_off_c, 2, 51, 100
4, 79872, Note_on_c, 2, 52, 112
4, 79992, Note_off_c, 2, 52, 100
4, 80256, Note_on_c, 2, 64, 112
4, 80440, Note_off_c, 2, 64, 100
4, 80448, Note_on_c, 2, 62, 112
4, 80632, Note_off_c, 2, 62, 100
4, 80640, Note_on_c, 2, 60, 112
4, 80760, Note_off_c, 2, 60, 100
4, 81024, Note_on_c, 2, 59, 112
4, 81144, Note_off_c, 2, 59, 100
4, 81408, Note_on_c, 2, 57, 112
4, 81784, Note_off_c, 2, 57, 100
4, 81792, Note_on_c, 2, 59, 112
4, 81976, Note_off_c, 2, 59, 100
4, 81984, Note_on_c, 2, 60, 112
4, 82168, Note_off_c, 2, 60, 100
4, 82176, Note_on_c, 2, 54, 112
4, 82432, Note_off_c, 2, 54, 100
4, 82560, Note_on_c, 2, 55, 112
4, 82744, Note_off_c, 2, 55, 100
4, 82752, Note_on_c, 2, 57, 112
4, 82936, Note_off_c, 2, 57, 100
4, 82944, Note_on_c, 2, 51, 112
4, 83200, Note_off_c, 2, 51, 100
4, 83328, Note_on_c, 2, 52, 112
4, 83512, Note_off_c, 2, 52, 100
4, 83520, Note_on_c, 2, 54, 112
4, 83704, Note_off_c, 2, 54, 100
4, 83712, Note_on_c, 2, 47, 112
4, 83968, Note_off_c, 2, 47, 100
4, 84096, Note_on_c, 2, 49, 112
4, 84280, Note_off_c, 2, 49, 100
4, 84288, Note_on_c, 2, 51, 112
4, 84472, Note_off_c, 2, 51, 100
4, 84480, Note_on_c, 2, 52, 112
4, 84736, Note_off_c, 2, 52, 100
4, 84864, Note_on_c, 2, 64, 112
4, 85048, Note_off_c, 2, 64, 100
4, 85056, Note_on_c, 2, 63, 112
4, 85240, Note_off_c, 2, 63, 100
4, 85248, Note_on_c, 2, 64, 112
4, 85368, Note_off_c, 2, 64, 100
4, 85632, Note_on_c, 2, 66, 112
4, 85816, Note_off_c, 2, 66, 100
4, 85824, Note_on_c, 2, 67, 112
4, 86008, Note_off_c, 2, 67, 100
4, 86016, Note_on_c, 2, 69, 112
4, 86272, Note_off_c, 2, 69, 100
4, 86400, Note_on_c, 2, 67, 112
4, 86584, Note_off_c, 2, 67, 100
4, 86592, Note_on_c, 2, 69, 112
4, 86776, Note_off_c, 2, 69, 100
4, 86784, Note_on_c, 2, 66, 112
4, 87040, Note_off_c, 2, 66, 100
4, 87168, Note_on_c, 2, 64, 112
4, 87352, Note_off_c, 2, 64, 100
4, 87360, Note_on_c, 2, 66, 112
4, 87544, Note_off_c, 2, 66, 100
4, 87552, Note_on_c, 2, 67, 112
4, 87672, Note_off_c, 2, 67, 100
4, 87936, Note_on_c, 2, 66, 112
4, 88056, Note_off_c, 2, 66, 100
4, 88320, Note_on_c, 2, 66, 112
4, 88376, Note_off_c, 2, 66, 100
4, 88384, Note_on_c, 2, 64, 112
4, 88440, Note_off_c, 2, 64, 100
4, 88448, Note_on_c, 2, 66, 112
4, 88504, Note_off_c, 2, 66, 100
4, 88512, Note_on_c, 2, 64, 112
4, 88696, Note_off_c, 2, 64, 100
4, 88704, Note_on_c, 2, 62, 112
4, 88824, Note_off_c, 2, 62, 100
4, 89088, Note_on_c, 2, 60, 112
4, 89344, Note_off_c, 2, 60, 100
4, 89472, Note_on_c, 2, 59, 112
4, 89592, Note_off_c, 2, 59, 100
4, 89856, Note_on_c, 2, 57, 112
4, 89976, Note_off_c, 2, 57, 100
4, 90240, Note_on_c, 2, 55, 112
4, 90360, Note_off_c, 2, 55, 100
4, 90624, Note_on_c, 2, 55, 112
4, 90680, Note_off_c, 2, 55, 100
4, 90688, Note_on_c, 2, 54, 112
4, 90744, Note_off_c, 2, 54, 100
4, 90752, Note_on_c, 2, 55, 112
4, 90808, Note_off_c, 2, 55, 100
4, 90816, Note_on_c, 2, 54, 112
4, 91000, Note_off_c, 2, 54, 100
4, 91008, Note_on_c, 2, 52, 112
4, 91192, Note_off_c, 2, 52, 100
4, 91200, Note_on_c, 2, 54, 112
4, 91384, Note_off_c, 2, 54, 100
4, 91392, Note_on_c, 2, 55, 112
4, 91648, Note_off_c, 2, 55, 100
4, 91776, Note_on_c, 2, 54, 112
4, 91960, Note_off_c, 2, 54, 100
4, 91968, Note_on_c, 2, 55, 112
4, 92152, Note_off_c, 2, 55, 100
4, 92160, Note_on_c, 2, 52, 112
4, 92416, Note_off_c, 2, 52, 100
4, 92544, Note_on_c, 2, 50, 112
4, 92728, Note_off_c, 2, 50, 100
4, 92736, Note_on_c, 2, 52, 112
4, 92920, Note_off_c, 2, 52, 100
4, 92928, Note_on_c, 2, 54, 112
4, 93184, Note_off_c, 2, 54, 100
4, 93312, Note_on_c, 2, 52, 112
4, 93496, Note_off_c, 2, 52, 100
4, 93504, Note_on_c, 2, 54, 112
4, 93688, Note_off_c, 2, 54, 100
4, 93696, Note_on_c, 2, 51, 112
4, 93952, Note_off_c, 2, 51, 100
4, 94080, Note_on_c, 2, 49, 112
4, 94264, Note_off_c, 2, 49, 100
4, 94272, Note_on_c, 2, 51, 112
4, 94400, Note_off_c, 2, 51, 100
4, 94464, Note_on_c, 2, 52, 112
4, 94648, Note_off_c, 2, 52, 100
4, 94656, Note_on_c, 2, 50, 112
4, 94840, Note_off_c, 2, 50, 100
4, 94848, Note_on_c, 2, 48, 112
4, 95032, Note_off_c, 2, 48, 100
4, 95040, Note_on_c, 2, 47, 112
4, 95224, Note_off_c, 2, 47, 100
4, 95232, Note_on_c, 2, 48, 112
4, 95488, Note_off_c, 2, 48, 100
4, 95616, Note_on_c, 2, 45, 112
4, 95736, Note_off_c, 2, 45, 100
4, 96000, Note_on_c, 2, 50, 112
4, 96120, Note_off_c, 2, 50, 100
4, 96384, Note_on_c, 2, 38, 112
4, 96504, Note_off_c, 2, 38, 100
4, 96768, Note_on_c, 2, 43, 112
4, 97024, Note_off_c, 2, 43, 100
4, 97152, Note_on_c, 2, 50, 112
4, 97272, Note_off_c, 2, 50, 100
4, 97536, Note_on_c, 2, 43, 1
4, 97536, Note_on_c, 2, 55, 112
4, 98112, Note_off_c, 2, 55, 100
4, 99072, Note_off_c, 2, 43, 64
4, 99072, End_track
5, 0, Start_track
5, 0, Title_t, "Var.XVIII, Canone alla sesta: Con moto"
5, 0, Control_c, 3, 0, 0
5, 0, Program_c, 3, 6
5, 0, Control_c, 3, 7, 127
5, 0, Control_c, 3, 10, 87
5, 0, Control_c, 3, 91, 127
5, 0, Key_signature, 1, "major"
5, 0, Note_on_c, 3, 83, 127
5, 1528, Note_off_c, 3, 83, 100
5, 1536, Note_on_c, 3, 81, 127
5, 2304, Note_off_c, 3, 81, 100
5, 2688, Note_on_c, 3, 83, 127
5, 2872, Note_off_c, 3, 83, 100
5, 2880, Note_on_c, 3, 81, 127
5, 3064, Note_off_c, 3, 81, 100
5, 3072, Note_on_c, 3, 79, 127
5, 3840, Note_off_c, 3, 79, 100
5, 4224, Note_on_c, 3, 78, 127
5, 4408, Note_off_c, 3, 78, 100
5, 4416, Note_on_c, 3, 76, 127
5, 4600, Note_off_c, 3, 76, 100
5, 4608, Note_on_c, 3, 78, 127
5, 5376, Note_off_c, 3, 78, 100
5, 6144, Note_on_c, 3, 79, 127
5, 6912, Note_off_c, 3, 79, 100
5, 7296, Note_on_c, 3, 78, 127
5, 7480, Note_off_c, 3, 78, 100
5, 7488, Note_on_c, 3, 79, 127
5, 7672, Note_off_c, 3, 79, 100
5, 7680, Note_on_c, 3, 81, 127
5, 8448, Note_off_c, 3, 81, 100
5, 8832, Note_on_c, 3, 84, 127
5, 9016, Note_off_c, 3, 84, 100
5, 9024, Note_on_c, 3, 83, 127
5, 9208, Note_off_c, 3, 83, 100
5, 9216, Note_on_c, 3, 84, 127
5, 9976, Note_off_c, 3, 84, 100
5, 10176, Note_on_c, 3, 83, 127
5, 10360, Note_off_c, 3, 83, 100
5, 10368, Note_on_c, 3, 84, 127
5, 10552, Note_off_c, 3, 84, 100
5, 10560, Note_on_c, 3, 81, 127
5, 10744, Note_off_c, 3, 81, 100
5, 10752, Note_on_c, 3, 83, 127
5, 11512, Note_off_c, 3, 83, 100
5, 12288, Note_on_c, 3, 79, 127
5, 13816, Note_off_c, 3, 79, 100
5, 13824, Note_on_c, 3, 78, 127
5, 14592, Note_off_c, 3, 78, 100
5, 14976, Note_on_c, 3, 79, 127
5, 15160, Note_off_c, 3, 79, 100
5, 15168, Note_on_c, 3, 81, 127
5, 15352, Note_off_c, 3, 81, 100
5, 15360, Note_on_c, 3, 83, 127
5, 16120, Note_off_c, 3, 83, 100
5, 16320, Note_on_c, 3, 81, 127
5, 16504, Note_off_c, 3, 81, 100
5, 16512, Note_on_c, 3, 83, 127
5, 16696, Note_off_c, 3, 83, 100
5, 16704, Note_on_c, 3, 79, 127
5, 16888, Note_off_c, 3, 79, 100
5, 16896, Note_on_c, 3, 81, 127
5, 17664, Note_off_c, 3, 81, 100
5, 18048, Note_on_c, 3, 81, 127
5, 18168, Note_off_c, 3, 81, 100
5, 18432, Note_on_c, 3, 79, 127
5, 19200, Note_off_c, 3, 79, 100
5, 19584, Note_on_c, 3, 79, 127
5, 19704, Note_off_c, 3, 79, 100
5, 19968, Note_on_c, 3, 78, 127
5, 20736, Note_off_c, 3, 78, 100
5, 21120, Note_on_c, 3, 83, 127
5, 21240, Note_off_c, 3, 83, 100
5, 21504, Note_on_c, 3, 76, 127
5, 21688, Note_off_c, 3, 76, 100
5, 21696, Note_on_c, 3, 78, 127
5, 21880, Note_off_c, 3, 78, 100
5, 21888, Note_on_c, 3, 79, 127
5, 23032, Note_off_c, 3, 79, 100
5, 23040, Note_on_c, 3, 78, 127
5, 24384, Note_off_c, 3, 78, 100
5, 49920, Note_on_c, 3, 93, 127
5, 51448, Note_off_c, 3, 93, 100
5, 51456, Note_on_c, 3, 91, 127
5, 52224, Note_off_c, 3, 91, 100
5, 52608, Note_on_c, 3, 93, 127
5, 52792, Note_off_c, 3, 93, 100
5, 52800, Note_on_c, 3, 95, 127
5, 52984, Note_off_c, 3, 95, 100
5, 52992, Note_on_c, 3, 96, 127
5, 53752, Note_off_c, 3, 96, 100
5, 53952, Note_on_c, 3, 95, 127
5, 54136, Note_off_c, 3, 95, 100
5, 54144, Note_on_c, 3, 96, 127
5, 54520, Note_off_c, 3, 96, 100
5, 54528, Note_on_c, 3, 95, 127
5, 55288, Note_off_c, 3, 95, 100
5, 56064, Note_on_c, 3, 88, 127
5, 57592, Note_off_c, 3, 88, 100
5, 57600, Note_on_c, 3, 87, 127
5, 57720, Note_off_c, 3, 87, 100
5, 57984, Note_on_c, 3, 88, 127
5, 58104, Note_off_c, 3, 88, 100
5, 58368, Note_on_c, 3, 90, 127
5, 59128, Note_off_c, 3, 90, 100
5, 59520, Note_on_c, 3, 88, 127
5, 59704, Note_off_c, 3, 88, 100
5, 59712, Note_on_c, 3, 90, 127
5, 59896, Note_off_c, 3, 90, 100
5, 59904, Note_on_c, 3, 91, 127
5, 60664, Note_off_c, 3, 91, 100
5, 60864, Note_on_c, 3, 90, 127
5, 61048, Note_off_c, 3, 90, 100
5, 61056, Note_on_c, 3, 88, 127
5, 61240, Note_off_c, 3, 88, 100
5, 61248, Note_on_c, 3, 86, 127
5, 61432, Note_off_c, 3, 86, 100
5, 61440, Note_on_c, 3, 84, 127
5, 61816, Note_off_c, 3, 84, 100
5, 62208, Note_on_c, 3, 93, 127
5, 63736, Note_off_c, 3, 93, 100
5, 63744, Note_on_c, 3, 91, 127
5, 64512, Note_off_c, 3, 91, 100
5, 64896, Note_on_c, 3, 93, 127
5, 65080, Note_off_c, 3, 93, 100
5, 65088, Note_on_c, 3, 95, 127
5, 65272, Note_off_c, 3, 95, 100
5, 65280, Note_on_c, 3, 96, 127
5, 66040, Note_off_c, 3, 96, 100
5, 66240, Note_on_c, 3, 95, 127
5, 66424, Note_off_c, 3, 95, 100
5, 66432, Note_on_c, 3, 96, 127
5, 66616, Note_off_c, 3, 96, 100
5, 66624, Note_on_c, 3, 93, 127
5, 66808, Note_off_c, 3, 93, 100
5, 66816, Note_on_c, 3, 95, 127
5, 67584, Note_off_c, 3, 95, 100
5, 67968, Note_on_c, 3, 95, 127
5, 68088, Note_off_c, 3, 95, 100
5, 68352, Note_on_c, 3, 93, 127
5, 69120, Note_off_c, 3, 93, 100
5, 69504, Note_on_c, 3, 93, 127
5, 69624, Note_off_c, 3, 93, 100
5, 69888, Note_on_c, 3, 91, 127
5, 70656, Note_off_c, 3, 91, 100
5, 71040, Note_on_c, 3, 96, 127
5, 71160, Note_off_c, 3, 96, 100
5, 71424, Note_on_c, 3, 90, 127
5, 71608, Note_off_c, 3, 90, 100
5, 71616, Note_on_c, 3, 91, 127
5, 71800, Note_off_c, 3, 91, 100
5, 71808, Note_on_c, 3, 93, 127
5, 72952, Note_off_c, 3, 93, 100
5, 72960, Note_on_c, 3, 91, 127
5, 73536, Note_off_c, 3, 91, 100
5, 73536, End_track
6, 0, Start_track
6, 0, Title_t, "Bruno de Giusti"
6, 0, Control_c, 4, 0, 0
6, 0, Program_c, 4, 6
6, 0, Control_c, 4, 7, 127
6, 0, Control_c, 4, 10, 48
6, 0, Control_c, 4, 91, 127
6, 0, Key_signature, 1, "major"
6, 768, Note_on_c, 4, 91, 127
6, 2296, Note_off_c, 4, 91, 100
6, 2304, Note_on_c, 4, 90, 127
6, 3072, Note_off_c, 4, 90, 100
6, 3456, Note_on_c, 4, 91, 127
6, 3640, Note_off_c, 4, 91, 100
6, 3648, Note_on_c, 4, 90, 127
6, 3832, Note_off_c, 4, 90, 100
6, 3840, Note_on_c, 4, 88, 127
6, 4608, Note_off_c, 4, 88, 100
6, 4992, Note_on_c, 4, 86, 127
6, 5176, Note_off_c, 4, 86, 100
6, 5184, Note_on_c, 4, 85, 127
6, 5368, Note_off_c, 4, 85, 100
6, 5376, Note_on_c, 4, 86, 127
6, 6144, Note_off_c, 4, 86, 100
6, 6912, Note_on_c, 4, 88, 127
6, 7680, Note_off_c, 4, 88, 100
6, 8064, Note_on_c, 4, 86, 127
6, 8248, Note_off_c, 4, 86, 100
6, 8256, Note_on_c, 4, 88, 127
6, 8440, Note_off_c, 4, 88, 100
6, 8448, Note_on_c, 4, 90, 127
6, 9216, Note_off_c, 4, 90, 100
6, 9600, Note_on_c, 4, 93, 127
6, 9784, Note_off_c, 4, 93, 100
6, 9792, Note_on_c, 4, 91, 127
6, 9976, Note_off_c, 4, 91, 100
6, 9984, Note_on_c, 4, 93, 127
6, 10744, Note_off_c, 4, 93, 100
6, 10944, Note_on_c, 4, 91, 127
6, 11128, Note_off_c, 4, 91, 100
6, 11136, Note_on_c, 4, 93, 127
6, 11320, Note_off_c, 4, 93, 100
6, 11328, Note_on_c, 4, 90, 127
6, 11512, Note_off_c, 4, 90, 100
6, 11520, Note_on_c, 4, 91, 127
6, 12280, Note_off_c, 4, 91, 100
6, 13056, Note_on_c, 4, 88, 127
6, 14584, Note_off_c, 4, 88, 100
6, 14592, Note_on_c, 4, 86, 127
6, 15360, Note_off_c, 4, 86, 100
6, 15744, Note_on_c, 4, 88, 127
6, 15928, Note_off_c, 4, 88, 100
6, 15936, Note_on_c, 4, 90, 127
6, 16120, Note_off_c, 4, 90, 100
6, 16128, Note_on_c, 4, 91, 127
6, 16888, Note_off_c, 4, 91, 100
6, 17088, Note_on_c, 4, 90, 127
6, 17272, Note_off_c, 4, 90, 100
6, 17280, Note_on_c, 4, 91, 127
6, 17464, Note_off_c, 4, 91, 100
6, 17472, Note_on_c, 4, 88, 127
6, 17656, Note_off_c, 4, 88, 100
6, 17664, Note_on_c, 4, 90, 127
6, 18432, Note_off_c, 4, 90, 100
6, 18816, Note_on_c, 4, 90, 127
6, 18936, Note_off_c, 4, 90, 100
6, 19200, Note_on_c, 4, 88, 127
6, 19968, Note_off_c, 4, 88, 100
6, 20352, Note_on_c, 4, 88, 127
6, 20472, Note_off_c, 4, 88, 100
6, 20736, Note_on_c, 4, 86, 127
6, 21504, Note_off_c, 4, 86, 100
6, 21888, Note_on_c, 4, 91, 127
6, 22008, Note_off_c, 4, 91, 100
6, 22272, Note_on_c, 4, 85, 127
6, 22456, Note_off_c, 4, 85, 100
6, 22464, Note_on_c, 4, 86, 127
6, 22648, Note_off_c, 4, 86, 100
6, 22656, Note_on_c, 4, 88, 127
6, 23800, Note_off_c, 4, 88, 100
6, 23808, Note_on_c, 4, 86, 127
6, 24384, Note_off_c, 4, 86, 100
6, 49152, Note_on_c, 4, 84, 127
6, 50680, Note_off_c, 4, 84, 100
6, 50688, Note_on_c, 4, 83, 127
6, 51456, Note_off_c, 4, 83, 100
6, 51840, Note_on_c, 4, 84, 127
6, 52024, Note_off_c, 4, 84, 100
6, 52032, Note_on_c, 4, 86, 127
6, 52216, Note_off_c, 4, 86, 100
6, 52224, Note_on_c, 4, 88, 127
6, 52984, Note_off_c, 4, 88, 100
6, 53184, Note_on_c, 4, 87, 127
6, 53368, Note_off_c, 4, 87, 100
6, 53376, Note_on_c, 4, 88, 127
6, 53752, Note_off_c, 4, 88, 100
6, 53760, Note_on_c, 4, 87, 127
6, 54520, Note_off_c, 4, 87, 100
6, 55296, Note_on_c, 4, 79, 127
6, 56824, Note_off_c, 4, 79, 100
6, 56832, Note_on_c, 4, 78, 127
6, 56952, Note_off_c, 4, 78, 100
6, 57216, Note_on_c, 4, 79, 127
6, 57336, Note_off_c, 4, 79, 100
6, 57600, Note_on_c, 4, 81, 127
6, 58360, Note_off_c, 4, 81, 100
6, 58752, Note_on_c, 4, 79, 127
6, 58936, Note_off_c, 4, 79, 100
6, 58944, Note_on_c, 4, 81, 127
6, 59128, Note_off_c, 4, 81, 100
6, 59136, Note_on_c, 4, 83, 127
6, 59896, Note_off_c, 4, 83, 100
6, 60096, Note_on_c, 4, 81, 127
6, 60280, Note_off_c, 4, 81, 100
6, 60288, Note_on_c, 4, 79, 127
6, 60472, Note_off_c, 4, 79, 100
6, 60480, Note_on_c, 4, 78, 127
6, 60664, Note_off_c, 4, 78, 100
6, 60672, Note_on_c, 4, 76, 127
6, 61048, Note_off_c, 4, 76, 100
6, 61440, Note_on_c, 4, 84, 127
6, 62968, Note_off_c, 4, 84, 100
6, 62976, Note_on_c, 4, 83, 127
6, 63744, Note_off_c, 4, 83, 100
6, 64128, Note_on_c, 4, 84, 127
6, 64312, Note_off_c, 4, 84, 100
6, 64320, Note_on_c, 4, 86, 127
6, 64504, Note_off_c, 4, 86, 100
6, 64512, Note_on_c, 4, 88, 127
6, 65272, Note_off_c, 4, 88, 100
6, 65472, Note_on_c, 4, 86, 127
6, 65656, Note_off_c, 4, 86, 100
6, 65664, Note_on_c, 4, 88, 127
6, 65848, Note_off_c, 4, 88, 100
6, 65856, Note_on_c, 4, 84, 127
6, 66040, Note_off_c, 4, 84, 100
6, 66048, Note_on_c, 4, 86, 127
6, 66816, Note_off_c, 4, 86, 100
6, 67200, Note_on_c, 4, 86, 127
6, 67320, Note_off_c, 4, 86, 100
6, 67584, Note_on_c, 4, 84, 127
6, 68352, Note_off_c, 4, 84, 100
6, 68736, Note_on_c, 4, 84, 127
6, 68856, Note_off_c, 4, 84, 100
6, 69120, Note_on_c, 4, 83, 127
6, 69888, Note_off_c, 4, 83, 100
6, 70272, Note_on_c, 4, 88, 127
6, 70392, Note_off_c, 4, 88, 100
6, 70656, Note_on_c, 4, 81, 127
6, 70840, Note_off_c, 4, 81, 100
6, 70848, Note_on_c, 4, 83, 127
6, 71032, Note_off_c, 4, 83, 100
6, 71040, Note_on_c, 4, 84, 127
6, 72184, Note_off_c, 4, 84, 100
6, 72192, Note_on_c, 4, 83, 127
6, 73536, Note_off_c, 4, 83, 100
6, 73536, End_track
7, 0, Start_track
7, 0, Title_t, "bdg@bruno-de-giusti.net"
7, 0, Control_c, 5, 0, 0
7, 0, Program_c, 5, 6
7, 0, Control_c, 5, 7, 127
7, 0, Control_c, 5, 10, 0
7, 0, Control_c, 5, 91, 127
7, 0, Key_signature, 1, "major"
7, 384, Note_on_c, 5, 43, 96
7, 568, Note_off_c, 5, 43, 100
7, 576, Note_on_c, 5, 45, 96
7, 760, Note_off_c, 5, 45, 100
7, 768, Note_on_c, 5, 47, 96
7, 888, Note_off_c, 5, 47, 100
7, 1152, Note_on_c, 5, 48, 96
7, 1272, Note_off_c, 5, 48, 100
7, 1536, Note_on_c, 5, 50, 96
7, 1656, Note_off_c, 5, 50, 100
7, 1920, Note_on_c, 5, 38, 96
7, 2040, Note_off_c, 5, 38, 100
7, 2304, Note_on_c, 5, 50, 96
7, 3064, Note_off_c, 5, 50, 100
7, 3456, Note_on_c, 5, 52, 96
7, 3640, Note_off_c, 5, 52, 100
7, 3648, Note_on_c, 5, 50, 96
7, 3832, Note_off_c, 5, 50, 100
7, 3840, Note_on_c, 5, 49, 96
7, 3960, Note_off_c, 5, 49, 100
7, 4224, Note_on_c, 5, 45, 96
7, 4344, Note_off_c, 5, 45, 100
7, 4608, Note_on_c, 5, 50, 96
7, 4864, Note_off_c, 5, 50, 100
7, 4992, Note_on_c, 5, 38, 96
7, 5112, Note_off_c, 5, 38, 100
7, 5376, Note_on_c, 5, 50, 96
7, 5496, Note_off_c, 5, 50, 100
7, 5760, Note_on_c, 5, 48, 96
7, 5880, Note_off_c, 5, 48, 100
7, 6144, Note_on_c, 5, 48, 96
7, 6200, Note_off_c, 5, 48, 100
7, 6208, Note_on_c, 5, 47, 96
7, 6264, Note_off_c, 5, 47, 100
7, 6272, Note_on_c, 5, 48, 96
7, 6328, Note_off_c, 5, 48, 100
7, 6336, Note_on_c, 5, 47, 96
7, 6520, Note_off_c, 5, 47, 100
7, 6528, Note_on_c, 5, 45, 96
7, 6712, Note_off_c, 5, 45, 100
7, 6720, Note_on_c, 5, 47, 96
7, 6904, Note_off_c, 5, 47, 100
7, 6912, Note_on_c, 5, 48, 96
7, 7032, Note_off_c, 5, 48, 100
7, 7296, Note_on_c, 5, 36, 96
7, 7416, Note_off_c, 5, 36, 100
7, 7680, Note_on_c, 5, 48, 96
7, 8056, Note_off_c, 5, 48, 100
7, 8064, Note_on_c, 5, 47, 96
7, 8248, Note_off_c, 5, 47, 100
7, 8256, Note_on_c, 5, 48, 96
7, 8440, Note_off_c, 5, 48, 100
7, 8448, Note_on_c, 5, 50, 96
7, 8568, Note_off_c, 5, 50, 100
7, 8832, Note_on_c, 5, 45, 96
7, 8952, Note_off_c, 5, 45, 100
7, 9216, Note_on_c, 5, 38, 96
7, 9592, Note_off_c, 5, 38, 100
7, 9600, Note_on_c, 5, 42, 96
7, 9784, Note_off_c, 5, 42, 100
7, 9792, Note_on_c, 5, 40, 96
7, 9976, Note_off_c, 5, 40, 100
7, 9984, Note_on_c, 5, 42, 96
7, 10104, Note_off_c, 5, 42, 100
7, 10368, Note_on_c, 5, 38, 96
7, 10488, Note_off_c, 5, 38, 100
7, 10752, Note_on_c, 5, 43, 96
7, 11128, Note_off_c, 5, 43, 100
7, 11136, Note_on_c, 5, 38, 96
7, 11512, Note_off_c, 5, 38, 100
7, 11520, Note_on_c, 5, 31, 96
7, 11640, Note_off_c, 5, 31, 100
7, 11904, Note_on_c, 5, 43, 96
7, 12088, Note_off_c, 5, 43, 100
7, 12096, Note_on_c, 5, 45, 96
7, 12280, Note_off_c, 5, 45, 100
7, 12288, Note_on_c, 5, 47, 96
7, 12544, Note_off_c, 5, 47, 100
7, 12672, Note_on_c, 5, 45, 96
7, 12856, Note_off_c, 5, 45, 100
7, 12864, Note_on_c, 5, 47, 96
7, 13048, Note_off_c, 5, 47, 100
7, 13056, Note_on_c, 5, 49, 96
7, 13312, Note_off_c, 5, 49, 100
7, 13440, Note_on_c, 5, 47, 96
7, 13624, Note_off_c, 5, 47, 100
7, 13632, Note_on_c, 5, 49, 96
7, 13816, Note_off_c, 5, 49, 100
7, 13824, Note_on_c, 5, 50, 96
7, 14080, Note_off_c, 5, 50, 100
7, 14208, Note_on_c, 5, 49, 96
7, 14328, Note_off_c, 5, 49, 100
7, 14592, Note_on_c, 5, 47, 96
7, 14712, Note_off_c, 5, 47, 100
7, 14976, Note_on_c, 5, 45, 96
7, 15096, Note_off_c, 5, 45, 100
7, 15360, Note_on_c, 5, 43, 96
7, 15616, Note_off_c, 5, 43, 100
7, 15744, Note_on_c, 5, 42, 96
7, 15864, Note_off_c, 5, 42, 100
7, 16128, Note_on_c, 5, 40, 96
7, 16248, Note_off_c, 5, 40, 100
7, 16512, Note_on_c, 5, 38, 96
7, 16632, Note_off_c, 5, 38, 100
7, 16896, Note_on_c, 5, 37, 96
7, 17152, Note_off_c, 5, 37, 100
7, 17280, Note_on_c, 5, 35, 96
7, 17464, Note_off_c, 5, 35, 100
7, 17472, Note_on_c, 5, 37, 96
7, 17656, Note_off_c, 5, 37, 100
7, 17664, Note_on_c, 5, 38, 96
7, 17920, Note_off_c, 5, 38, 100
7, 18048, Note_on_c, 5, 37, 96
7, 18232, Note_off_c, 5, 37, 100
7, 18240, Note_on_c, 5, 38, 96
7, 18424, Note_off_c, 5, 38, 100
7, 18432, Note_on_c, 5, 35, 96
7, 18688, Note_off_c, 5, 35, 100
7, 18816, Note_on_c, 5, 33, 96
7, 19000, Note_off_c, 5, 33, 100
7, 19008, Note_on_c, 5, 35, 96
7, 19192, Note_off_c, 5, 35, 100
7, 19200, Note_on_c, 5, 37, 96
7, 19456, Note_off_c, 5, 37, 100
7, 19584, Note_on_c, 5, 35, 96
7, 19768, Note_off_c, 5, 35, 100
7, 19776, Note_on_c, 5, 37, 96
7, 19960, Note_off_c, 5, 37, 100
7, 19968, Note_on_c, 5, 34, 96
7, 20224, Note_off_c, 5, 34, 100
7, 20352, Note_on_c, 5, 32, 96
7, 20536, Note_off_c, 5, 32, 100
7, 20544, Note_on_c, 5, 34, 96
7, 20672, Note_off_c, 5, 34, 100
7, 20736, Note_on_c, 5, 35, 96
7, 20920, Note_off_c, 5, 35, 100
7, 20928, Note_on_c, 5, 33, 96
7, 21112, Note_off_c, 5, 33, 100
7, 21120, Note_on_c, 5, 31, 96
7, 21304, Note_off_c, 5, 31, 100
7, 21312, Note_on_c, 5, 30, 96
7, 21496, Note_off_c, 5, 30, 100
7, 21504, Note_on_c, 5, 31, 96
7, 21624, Note_off_c, 5, 31, 100
7, 21888, Note_on_c, 5, 28, 96
7, 22008, Note_off_c, 5, 28, 100
7, 22272, Note_on_c, 5, 33, 96
7, 22528, Note_off_c, 5, 33, 100
7, 22656, Note_on_c, 5, 33, 127
7, 22776, Note_off_c, 5, 33, 99
7, 23040, Note_on_c, 5, 26, 96
7, 23160, Note_off_c, 5, 26, 100
7, 23424, Note_on_c, 5, 33, 96
7, 23544, Note_off_c, 5, 33, 100
7, 23808, Note_on_c, 5, 38, 96
7, 24384, Note_off_c, 5, 38, 100
7, 49536, Note_on_c, 5, 38, 96
7, 49720, Note_off_c, 5, 38, 100
7, 49728, Note_on_c, 5, 40, 96
7, 49912, Note_off_c, 5, 40, 100
7, 49920, Note_on_c, 5, 42, 96
7, 50040, Note_off_c, 5, 42, 100
7, 50304, Note_on_c, 5, 38, 96
7, 50424, Note_off_c, 5, 38, 100
7, 50688, Note_on_c, 5, 43, 96
7, 50808, Note_off_c, 5, 43, 100
7, 51072, Note_on_c, 5, 31, 96
7, 51192, Note_off_c, 5, 31, 100
7, 51456, Note_on_c, 5, 43, 96
7, 51712, Note_off_c, 5, 43, 100
7, 51840, Note_on_c, 5, 45, 96
7, 52024, Note_off_c, 5, 45, 100
7, 52032, Note_on_c, 5, 47, 96
7, 52216, Note_off_c, 5, 47, 100
7, 52224, Note_on_c, 5, 48, 96
7, 52480, Note_off_c, 5, 48, 100
7, 52608, Note_on_c, 5, 47, 96
7, 52728, Note_off_c, 5, 47, 100
7, 52992, Note_on_c, 5, 45, 96
7, 53112, Note_off_c, 5, 45, 100
7, 53376, Note_on_c, 5, 43, 96
7, 53560, Note_off_c, 5, 43, 100
7, 53568, Note_on_c, 5, 45, 96
7, 53752, Note_off_c, 5, 45, 100
7, 53760, Note_on_c, 5, 47, 96
7, 54144, Note_off_c, 5, 47, 100
7, 54336, Note_on_c, 5, 45, 96
7, 54520, Note_off_c, 5, 45, 100
7, 54528, Note_on_c, 5, 43, 96
7, 54712, Note_off_c, 5, 43, 100
7, 54720, Note_on_c, 5, 42, 96
7, 54904, Note_off_c, 5, 42, 100
7, 54912, Note_on_c, 5, 40, 96
7, 55096, Note_off_c, 5, 40, 100
7, 55104, Note_on_c, 5, 39, 96
7, 55288, Note_off_c, 5, 39, 100
7, 55296, Note_on_c, 5, 40, 96
7, 55416, Note_off_c, 5, 40, 100
7, 55680, Note_on_c, 5, 52, 96
7, 55864, Note_off_c, 5, 52, 100
7, 55872, Note_on_c, 5, 50, 96
7, 56056, Note_off_c, 5, 50, 100
7, 56064, Note_on_c, 5, 48, 96
7, 56184, Note_off_c, 5, 48, 100
7, 56448, Note_on_c, 5, 47, 96
7, 56568, Note_off_c, 5, 47, 100
7, 56832, Note_on_c, 5, 45, 96
7, 57208, Note_off_c, 5, 45, 100
7, 57216, Note_on_c, 5, 47, 96
7, 57400, Note_off_c, 5, 47, 100
7, 57408, Note_on_c, 5, 48, 96
7, 57592, Note_off_c, 5, 48, 100
7, 57600, Note_on_c, 5, 42, 96
7, 57856, Note_off_c, 5, 42, 100
7, 57984, Note_on_c, 5, 43, 96
7, 58168, Note_off_c, 5, 43, 100
7, 58176, Note_on_c, 5, 45, 96
7, 58360, Note_off_c, 5, 45, 100
7, 58368, Note_on_c, 5, 39, 96
7, 58624, Note_off_c, 5, 39, 100
7, 58752, Note_on_c, 5, 40, 96
7, 58936, Note_off_c, 5, 40, 100
7, 58944, Note_on_c, 5, 42, 96
7, 59128, Note_off_c, 5, 42, 100
7, 59136, Note_on_c, 5, 35, 96
7, 59392, Note_off_c, 5, 35, 100
7, 59520, Note_on_c, 5, 37, 96
7, 59704, Note_off_c, 5, 37, 100
7, 59712, Note_on_c, 5, 39, 96
7, 59896, Note_off_c, 5, 39, 100
7, 59904, Note_on_c, 5, 40, 96
7, 60160, Note_off_c, 5, 40, 100
7, 60288, Note_on_c, 5, 52, 96
7, 60472, Note_off_c, 5, 52, 100
7, 60480, Note_on_c, 5, 51, 96
7, 60664, Note_off_c, 5, 51, 100
7, 60672, Note_on_c, 5, 52, 96
7, 60792, Note_off_c, 5, 52, 100
7, 61056, Note_on_c, 5, 54, 96
7, 61240, Note_off_c, 5, 54, 100
7, 61248, Note_on_c, 5, 55, 96
7, 61432, Note_off_c, 5, 55, 100
7, 61440, Note_on_c, 5, 57, 96
7, 61696, Note_off_c, 5, 57, 100
7, 61824, Note_on_c, 5, 55, 96
7, 62008, Note_off_c, 5, 55, 100
7, 62016, Note_on_c, 5, 57, 96
7, 62200, Note_off_c, 5, 57, 100
7, 62208, Note_on_c, 5, 54, 96
7, 62464, Note_off_c, 5, 54, 100
7, 62592, Note_on_c, 5, 52, 96
7, 62776, Note_off_c, 5, 52, 100
7, 62784, Note_on_c, 5, 54, 96
7, 62968, Note_off_c, 5, 54, 100
7, 62976, Note_on_c, 5, 55, 96
7, 63096, Note_off_c, 5, 55, 100
7, 63360, Note_on_c, 5, 54, 96
7, 63480, Note_off_c, 5, 54, 100
7, 63744, Note_on_c, 5, 52, 96
7, 63864, Note_off_c, 5, 52, 100
7, 64128, Note_on_c, 5, 50, 96
7, 64248, Note_off_c, 5, 50, 100
7, 64512, Note_on_c, 5, 48, 96
7, 64768, Note_off_c, 5, 48, 100
7, 64896, Note_on_c, 5, 47, 96
7, 65016, Note_off_c, 5, 47, 100
7, 65280, Note_on_c, 5, 45, 96
7, 65400, Note_off_c, 5, 45, 100
7, 65664, Note_on_c, 5, 43, 96
7, 65784, Note_off_c, 5, 43, 100
7, 66048, Note_on_c, 5, 42, 96
7, 66424, Note_off_c, 5, 42, 100
7, 66432, Note_on_c, 5, 40, 96
7, 66616, Note_off_c, 5, 40, 100
7, 66624, Note_on_c, 5, 42, 96
7, 66808, Note_off_c, 5, 42, 100
7, 66816, Note_on_c, 5, 43, 96
7, 67072, Note_off_c, 5, 43, 100
7, 67200, Note_on_c, 5, 42, 96
7, 67384, Note_off_c, 5, 42, 100
7, 67392, Note_on_c, 5, 43, 96
7, 67576, Note_off_c, 5, 43, 100
7, 67584, Note_on_c, 5, 40, 96
7, 67840, Note_off_c, 5, 40, 100
7, 67968, Note_on_c, 5, 38, 96
7, 68152, Note_off_c, 5, 38, 100
7, 68160, Note_on_c, 5, 40, 96
7, 68344, Note_off_c, 5, 40, 100
7, 68352, Note_on_c, 5, 42, 96
7, 68608, Note_off_c, 5, 42, 100
7, 68736, Note_on_c, 5, 40, 96
7, 68920, Note_off_c, 5, 40, 100
7, 68928, Note_on_c, 5, 42, 96
7, 69112, Note_off_c, 5, 42, 100
7, 69120, Note_on_c, 5, 39, 96
7, 69376, Note_off_c, 5, 39, 100
7, 69504, Note_on_c, 5, 37, 96
7, 69688, Note_off_c, 5, 37, 100
7, 69696, Note_on_c, 5, 39, 96
7, 69824, Note_off_c, 5, 39, 100
7, 69888, Note_on_c, 5, 40, 96
7, 70072, Note_off_c, 5, 40, 100
7, 70080, Note_on_c, 5, 38, 96
7, 70264, Note_off_c, 5, 38, 100
7, 70272, Note_on_c, 5, 36, 96
7, 70456, Note_off_c, 5, 36, 100
7, 70464, Note_on_c, 5, 35, 96
7, 70648, Note_off_c, 5, 35, 100
7, 70656, Note_on_c, 5, 36, 96
7, 70912, Note_off_c, 5, 36, 100
7, 71040, Note_on_c, 5, 33, 96
7, 71160, Note_off_c, 5, 33, 100
7, 71424, Note_on_c, 5, 38, 96
7, 71544, Note_off_c, 5, 38, 100
7, 71808, Note_on_c, 5, 26, 96
7, 71928, Note_off_c, 5, 26, 100
7, 72192, Note_on_c, 5, 31, 96
7, 72448, Note_off_c, 5, 31, 100
7, 72576, Note_on_c, 5, 38, 96
7, 72696, Note_off_c, 5, 38, 100
7, 72960, Note_on_c, 5, 43, 96
7, 73536, Note_off_c, 5, 43, 100
7, 73536, End_track
8, 0, Start_track
8, 0, Title_t, "www.bruno-de-giusti.net"
8, 0, Control_c, 6, 0, 0
8, 0, Program_c, 6, 6
8, 0, Control_c, 6, 7, 127
8, 0, Control_c, 6, 10, 64
8, 0, Control_c, 6, 91, 127
8, 0, Key_signature, 1, "major"
8, 0, Note_on_c, 6, 59, 64
8, 1528, Note_off_c, 6, 59, 100
8, 1536, Note_on_c, 6, 57, 64
8, 2304, Note_off_c, 6, 57, 100
8, 2688, Note_on_c, 6, 59, 64
8, 2872, Note_off_c, 6, 59, 100
8, 2880, Note_on_c, 6, 57, 64
8, 3064, Note_off_c, 6, 57, 100
8, 3072, Note_on_c, 6, 55, 64
8, 3840, Note_off_c, 6, 55, 100
8, 4224, Note_on_c, 6, 54, 64
8, 4408, Note_off_c, 6, 54, 100
8, 4416, Note_on_c, 6, 52, 64
8, 4600, Note_off_c, 6, 52, 100
8, 4608, Note_on_c, 6, 54, 64
8, 5376, Note_off_c, 6, 54, 100
8, 6144, Note_on_c, 6, 55, 64
8, 6912, Note_off_c, 6, 55, 100
8, 7296, Note_on_c, 6, 54, 64
8, 7480, Note_off_c, 6, 54, 100
8, 7488, Note_on_c, 6, 55, 64
8, 7672, Note_off_c, 6, 55, 100
8, 7680, Note_on_c, 6, 57, 64
8, 8448, Note_off_c, 6, 57, 100
8, 8832, Note_on_c, 6, 60, 64
8, 9016, Note_off_c, 6, 60, 100
8, 9024, Note_on_c, 6, 59, 64
8, 9208, Note_off_c, 6, 59, 100
8, 9216, Note_on_c, 6, 60, 64
8, 9976, Note_off_c, 6, 60, 100
8, 10176, Note_on_c, 6, 59, 64
8, 10360, Note_off_c, 6, 59, 100
8, 10368, Note_on_c, 6, 60, 64
8, 10552, Note_off_c, 6, 60, 100
8, 10560, Note_on_c, 6, 57, 64
8, 10744, Note_off_c, 6, 57, 100
8, 10752, Note_on_c, 6, 59, 64
8, 11512, Note_off_c, 6, 59, 100
8, 12288, Note_on_c, 6, 55, 64
8, 13816, Note_off_c, 6, 55, 100
8, 13824, Note_on_c, 6, 54, 64
8, 14592, Note_off_c, 6, 54, 100
8, 14976, Note_on_c, 6, 55, 64
8, 15160, Note_off_c, 6, 55, 100
8, 15168, Note_on_c, 6, 57, 64
8, 15352, Note_off_c, 6, 57, 100
8, 15360, Note_on_c, 6, 59, 64
8, 16120, Note_off_c, 6, 59, 100
8, 16320, Note_on_c, 6, 57, 64
8, 16504, Note_off_c, 6, 57, 100
8, 16512, Note_on_c, 6, 59, 64
8, 16696, Note_off_c, 6, 59, 100
8, 16704, Note_on_c, 6, 55, 64
8, 16888, Note_off_c, 6, 55, 100
8, 16896, Note_on_c, 6, 57, 64
8, 17664, Note_off_c, 6, 57, 100
8, 18048, Note_on_c, 6, 57, 64
8, 18168, Note_off_c, 6, 57, 100
8, 18432, Note_on_c, 6, 55, 64
8, 19200, Note_off_c, 6, 55, 100
8, 19584, Note_on_c, 6, 55, 64
8, 19704, Note_off_c, 6, 55, 100
8, 19968, Note_on_c, 6, 54, 64
8, 20736, Note_off_c, 6, 54, 100
8, 21120, Note_on_c, 6, 59, 64
8, 21240, Note_off_c, 6, 59, 100
8, 21504, Note_on_c, 6, 52, 64
8, 21688, Note_off_c, 6, 52, 100
8, 21696, Note_on_c, 6, 54, 64
8, 21880, Note_off_c, 6, 54, 100
8, 21888, Note_on_c, 6, 55, 64
8, 23032, Note_off_c, 6, 55, 100
8, 23040, Note_on_c, 6, 54, 64
8, 24384, Note_off_c, 6, 54, 100
8, 49920, Note_on_c, 6, 69, 64
8, 51448, Note_off_c, 6, 69, 100
8, 51456, Note_on_c, 6, 67, 64
8, 52224, Note_off_c, 6, 67, 100
8, 52608, Note_on_c, 6, 69, 64
8, 52792, Note_off_c, 6, 69, 100
8, 52800, Note_on_c, 6, 71, 64
8, 52984, Note_off_c, 6, 71, 100
8, 52992, Note_on_c, 6, 72, 64
8, 53752, Note_off_c, 6, 72, 100
8, 53952, Note_on_c, 6, 71, 64
8, 54136, Note_off_c, 6, 71, 100
8, 54144, Note_on_c, 6, 72, 64
8, 54520, Note_off_c, 6, 72, 100
8, 54528, Note_on_c, 6, 71, 64
8, 55288, Note_off_c, 6, 71, 100
8, 56064, Note_on_c, 6, 64, 64
8, 57592, Note_off_c, 6, 64, 100
8, 57600, Note_on_c, 6, 63, 64
8, 57720, Note_off_c, 6, 63, 100
8, 57984, Note_on_c, 6, 64, 64
8, 58104, Note_off_c, 6, 64, 100
8, 58368, Note_on_c, 6, 66, 64
8, 59128, Note_off_c, 6, 66, 100
8, 59520, Note_on_c, 6, 64, 64
8, 59704, Note_off_c, 6, 64, 100
8, 59712, Note_on_c, 6, 66, 64
8, 59896, Note_off_c, 6, 66, 100
8, 59904, Note_on_c, 6, 67, 64
8, 60664, Note_off_c, 6, 67, 100
8, 60864, Note_on_c, 6, 66, 64
8, 61048, Note_off_c, 6, 66, 100
8, 61056, Note_on_c, 6, 64, 64
8, 61240, Note_off_c, 6, 64, 100
8, 61248, Note_on_c, 6, 62, 64
8, 61432, Note_off_c, 6, 62, 100
8, 61440, Note_on_c, 6, 60, 64
8, 61816, Note_off_c, 6, 60, 100
8, 62208, Note_on_c, 6, 69, 64
8, 63736, Note_off_c, 6, 69, 100
8, 63744, Note_on_c, 6, 67, 64
8, 64512, Note_off_c, 6, 67, 100
8, 64896, Note_on_c, 6, 69, 64
8, 65080, Note_off_c, 6, 69, 100
8, 65088, Note_on_c, 6, 71, 64
8, 65272, Note_off_c, 6, 71, 100
8, 65280, Note_on_c, 6, 72, 64
8, 66040, Note_off_c, 6, 72, 100
8, 66240, Note_on_c, 6, 71, 64
8, 66424, Note_off_c, 6, 71, 100
8, 66432, Note_on_c, 6, 72, 64
8, 66616, Note_off_c, 6, 72, 100
8, 66624, Note_on_c, 6, 69, 64
8, 66808, Note_off_c, 6, 69, 100
8, 66816, Note_on_c, 6, 71, 64
8, 67584, Note_off_c, 6, 71, 100
8, 67968, Note_on_c, 6, 71, 64
8, 68088, Note_off_c, 6, 71, 100
8, 68352, Note_on_c, 6, 69, 64
8, 69120, Note_off_c, 6, 69, 100
8, 69504, Note_on_c, 6, 69, 64
8, 69624, Note_off_c, 6, 69, 100
8, 69888, Note_on_c, 6, 67, 64
8, 70656, Note_off_c, 6, 67, 100
8, 71040, Note_on_c, 6, 72, 64
8, 71160, Note_off_c, 6, 72, 100
8, 71424, Note_on_c, 6, 66, 64
8, 71608, Note_off_c, 6, 66, 100
8, 71616, Note_on_c, 6, 67, 64
8, 71800, Note_off_c, 6, 67, 100
8, 71808, Note_on_c, 6, 69, 64
8, 72952, Note_off_c, 6, 69, 100
8, 72960, Note_on_c, 6, 67, 64
8, 73536, Note_off_c, 6, 67, 100
8, 73536, End_track
9, 0, Start_track
9, 0, Title_t, "All rights reserved"
9, 0, Control_c, 7, 0, 0
9, 0, Program_c, 7, 6
9, 0, Control_c, 7, 7, 127
9, 0, Control_c, 7, 10, 64
9, 0, Control_c, 7, 91, 127
9, 0, Key_signature, 1, "major"
9, 768, Note_on_c, 7, 67, 64
9, 2296, Note_off_c, 7, 67, 100
9, 2304, Note_on_c, 7, 66, 64
9, 3072, Note_off_c, 7, 66, 100
9, 3456, Note_on_c, 7, 67, 64
9, 3640, Note_off_c, 7, 67, 100
9, 3648, Note_on_c, 7, 66, 64
9, 3832, Note_off_c, 7, 66, 100
9, 3840, Note_on_c, 7, 64, 64
9, 4608, Note_off_c, 7, 64, 100
9, 4992, Note_on_c, 7, 62, 64
9, 5176, Note_off_c, 7, 62, 100
9, 5184, Note_on_c, 7, 61, 64
9, 5368, Note_off_c, 7, 61, 100
9, 5376, Note_on_c, 7, 62, 64
9, 6144, Note_off_c, 7, 62, 100
9, 6912, Note_on_c, 7, 64, 64
9, 7680, Note_off_c, 7, 64, 100
9, 8064, Note_on_c, 7, 62, 64
9, 8248, Note_off_c, 7, 62, 100
9, 8256, Note_on_c, 7, 64, 64
9, 8440, Note_off_c, 7, 64, 100
9, 8448, Note_on_c, 7, 66, 64
9, 9216, Note_off_c, 7, 66, 100
9, 9600, Note_on_c, 7, 69, 64
9, 9784, Note_off_c, 7, 69, 100
9, 9792, Note_on_c, 7, 67, 64
9, 9976, Note_off_c, 7, 67, 100
9, 9984, Note_on_c, 7, 69, 64
9, 10744, Note_off_c, 7, 69, 100
9, 10944, Note_on_c, 7, 67, 64
9, 11128, Note_off_c, 7, 67, 100
9, 11136, Note_on_c, 7, 69, 64
9, 11320, Note_off_c, 7, 69, 100
9, 11328, Note_on_c, 7, 66, 64
9, 11512, Note_off_c, 7, 66, 100
9, 11520, Note_on_c, 7, 67, 64
9, 12280, Note_off_c, 7, 67, 100
9, 13056, Note_on_c, 7, 64, 64
9, 14584, Note_off_c, 7, 64, 100
9, 14592, Note_on_c, 7, 62, 64
9, 15360, Note_off_c, 7, 62, 100
9, 15744, Note_on_c, 7, 64, 64
9, 15928, Note_off_c, 7, 64, 100
9, 15936, Note_on_c, 7, 66, 64
9, 16120, Note_off_c, 7, 66, 100
9, 16128, Note_on_c, 7, 67, 64
9, 16888, Note_off_c, 7, 67, 100
9, 17088, Note_on_c, 7, 66, 64
9, 17272, Note_off_c, 7, 66, 100
9, 17280, Note_on_c, 7, 67, 64
9, 17464, Note_off_c, 7, 67, 100
9, 17472, Note_on_c, 7, 64, 64
9, 17656, Note_off_c, 7, 64, 100
9, 17664, Note_on_c, 7, 66, 64
9, 18432, Note_off_c, 7, 66, 100
9, 18816, Note_on_c, 7, 66, 64
9, 18936, Note_off_c, 7, 66, 100
9, 19200, Note_on_c, 7, 64, 64
9, 19968, Note_off_c, 7, 64, 100
9, 20352, Note_on_c, 7, 64, 64
9, 20472, Note_off_c, 7, 64, 100
9, 20736, Note_on_c, 7, 62, 64
9, 21504, Note_off_c, 7, 62, 100
9, 21888, Note_on_c, 7, 67, 64
9, 22008, Note_off_c, 7, 67, 100
9, 22272, Note_on_c, 7, 61, 64
9, 22456, Note_off_c, 7, 61, 100
9, 22464, Note_on_c, 7, 62, 64
9, 22648, Note_off_c, 7, 62, 100
9, 22656, Note_on_c, 7, 64, 64
9, 23800, Note_off_c, 7, 64, 100
9, 23808, Note_on_c, 7, 62, 64
9, 24384, Note_off_c, 7, 62, 100
9, 49152, Note_on_c, 7, 60, 64
9, 50680, Note_off_c, 7, 60, 100
9, 50688, Note_on_c, 7, 59, 64
9, 51456, Note_off_c, 7, 59, 100
9, 51840, Note_on_c, 7, 60, 64
9, 52024, Note_off_c, 7, 60, 100
9, 52032, Note_on_c, 7, 62, 64
9, 52216, Note_off_c, 7, 62, 100
9, 52224, Note_on_c, 7, 64, 64
9, 52984, Note_off_c, 7, 64, 100
9, 53184, Note_on_c, 7, 63, 64
9, 53368, Note_off_c, 7, 63, 100
9, 53376, Note_on_c, 7, 64, 64
9, 53752, Note_off_c, 7, 64, 100
9, 53760, Note_on_c, 7, 63, 64
9, 54520, Note_off_c, 7, 63, 100
9, 55296, Note_on_c, 7, 55, 64
9, 56824, Note_off_c, 7, 55, 100
9, 56832, Note_on_c, 7, 54, 64
9, 56952, Note_off_c, 7, 54, 100
9, 57216, Note_on_c, 7, 55, 64
9, 57336, Note_off_c, 7, 55, 100
9, 57600, Note_on_c, 7, 57, 64
9, 58360, Note_off_c, 7, 57, 100
9, 58752, Note_on_c, 7, 55, 64
9, 58936, Note_off_c, 7, 55, 100
9, 58944, Note_on_c, 7, 57, 64
9, 59128, Note_off_c, 7, 57, 100
9, 59136, Note_on_c, 7, 59, 64
9, 59896, Note_off_c, 7, 59, 100
9, 60096, Note_on_c, 7, 57, 64
9, 60280, Note_off_c, 7, 57, 100
9, 60288, Note_on_c, 7, 55, 64
9, 60472, Note_off_c, 7, 55, 100
9, 60480, Note_on_c, 7, 54, 64
9, 60664, Note_off_c, 7, 54, 100
9, 60672, Note_on_c, 7, 52, 64
9, 61048, Note_off_c, 7, 52, 100
9, 61440, Note_on_c, 7, 60, 64
9, 62968, Note_off_c, 7, 60, 100
9, 62976, Note_on_c, 7, 59, 64
9, 63744, Note_off_c, 7, 59, 100
9, 64128, Note_on_c, 7, 60, 64
9, 64312, Note_off_c, 7, 60, 100
9, 64320, Note_on_c, 7, 62, 64
9, 64504, Note_off_c, 7, 62, 100
9, 64512, Note_on_c, 7, 64, 64
9, 65272, Note_off_c, 7, 64, 100
9, 65472, Note_on_c, 7, 62, 64
9, 65656, Note_off_c, 7, 62, 100
9, 65664, Note_on_c, 7, 64, 64
9, 65848, Note_off_c, 7, 64, 100
9, 65856, Note_on_c, 7, 60, 64
9, 66040, Note_off_c, 7, 60, 100
9, 66048, Note_on_c, 7, 62, 64
9, 66816, Note_off_c, 7, 62, 100
9, 67200, Note_on_c, 7, 62, 64
9, 67320, Note_off_c, 7, 62, 100
9, 67584, Note_on_c, 7, 60, 64
9, 68352, Note_off_c, 7, 60, 100
9, 68736, Note_on_c, 7, 60, 64
9, 68856, Note_off_c, 7, 60, 100
9, 69120, Note_on_c, 7, 59, 64
9, 69888, Note_off_c, 7, 59, 100
9, 70272, Note_on_c, 7, 64, 64
9, 70392, Note_off_c, 7, 64, 100
9, 70656, Note_on_c, 7, 57, 64
9, 70840, Note_off_c, 7, 57, 100
9, 70848, Note_on_c, 7, 59, 64
9, 71032, Note_off_c, 7, 59, 100
9, 71040, Note_on_c, 7, 60, 64
9, 72184, Note_off_c, 7, 60, 100
9, 72192, Note_on_c, 7, 59, 64
9, 73536, Note_off_c, 7, 59, 100
9, 73536, End_track
10, 0, Start_track
10, 0, Control_c, 8, 0, 0
10, 0, Program_c, 8, 6
10, 0, Control_c, 8, 7, 127
10, 0, Control_c, 8, 10, 127
10, 0, Control_c, 8, 91, 127
10, 0, Key_signature, 1, "major"
10, 384, Note_on_c, 8, 67, 96
10, 568, Note_off_c, 8, 67, 100
10, 576, Note_on_c, 8, 69, 96
10, 760, Note_off_c, 8, 69, 100
10, 768, Note_on_c, 8, 71, 96
10, 888, Note_off_c, 8, 71, 100
10, 1152, Note_on_c, 8, 72, 96
10, 1272, Note_off_c, 8, 72, 100
10, 1536, Note_on_c, 8, 74, 96
10, 1656, Note_off_c, 8, 74, 100
10, 1920, Note_on_c, 8, 62, 96
10, 2040, Note_off_c, 8, 62, 100
10, 2304, Note_on_c, 8, 74, 96
10, 3064, Note_off_c, 8, 74, 100
10, 3456, Note_on_c, 8, 76, 96
10, 3640, Note_off_c, 8, 76, 100
10, 3648, Note_on_c, 8, 74, 96
10, 3832, Note_off_c, 8, 74, 100
10, 3840, Note_on_c, 8, 73, 96
10, 3960, Note_off_c, 8, 73, 100
10, 4224, Note_on_c, 8, 69, 96
10, 4344, Note_off_c, 8, 69, 100
10, 4608, Note_on_c, 8, 74, 96
10, 4864, Note_off_c, 8, 74, 100
10, 4992, Note_on_c, 8, 62, 96
10, 5112, Note_off_c, 8, 62, 100
10, 5376, Note_on_c, 8, 74, 96
10, 5496, Note_off_c, 8, 74, 100
10, 5760, Note_on_c, 8, 72, 96
10, 5880, Note_off_c, 8, 72, 100
10, 6144, Note_on_c, 8, 72, 96
10, 6200, Note_off_c, 8, 72, 100
10, 6208, Note_on_c, 8, 71, 96
10, 6264, Note_off_c, 8, 71, 100
10, 6272, Note_on_c, 8, 72, 96
10, 6328, Note_off_c, 8, 72, 100
10, 6336, Note_on_c, 8, 71, 96
10, 6520, Note_off_c, 8, 71, 100
10, 6528, Note_on_c, 8, 69, 96
10, 6712, Note_off_c, 8, 69, 100
10, 6720, Note_on_c, 8, 71, 96
10, 6904, Note_off_c, 8, 71, 100
10, 6912, Note_on_c, 8, 72, 96
10, 7032, Note_off_c, 8, 72, 100
10, 7296, Note_on_c, 8, 60, 96
10, 7416, Note_off_c, 8, 60, 100
10, 7680, Note_on_c, 8, 72, 96
10, 8056, Note_off_c, 8, 72, 100
10, 8064, Note_on_c, 8, 71, 96
10, 8248, Note_off_c, 8, 71, 100
10, 8256, Note_on_c, 8, 72, 96
10, 8440, Note_off_c, 8, 72, 100
10, 8448, Note_on_c, 8, 74, 96
10, 8568, Note_off_c, 8, 74, 100
10, 8832, Note_on_c, 8, 69, 96
10, 8952, Note_off_c, 8, 69, 100
10, 9216, Note_on_c, 8, 62, 96
10, 9592, Note_off_c, 8, 62, 100
10, 9600, Note_on_c, 8, 66, 96
10, 9784, Note_off_c, 8, 66, 100
10, 9792, Note_on_c, 8, 64, 96
10, 9976, Note_off_c, 8, 64, 100
10, 9984, Note_on_c, 8, 66, 96
10, 10104, Note_off_c, 8, 66, 100
10, 10368, Note_on_c, 8, 62, 96
10, 10488, Note_off_c, 8, 62, 100
10, 10752, Note_on_c, 8, 67, 96
10, 11128, Note_off_c, 8, 67, 100
10, 11136, Note_on_c, 8, 62, 96
10, 11512, Note_off_c, 8, 62, 100
10, 11520, Note_on_c, 8, 55, 96
10, 11640, Note_off_c, 8, 55, 100
10, 11904, Note_on_c, 8, 67, 96
10, 12088, Note_off_c, 8, 67, 100
10, 12096, Note_on_c, 8, 69, 96
10, 12280, Note_off_c, 8, 69, 100
10, 12288, Note_on_c, 8, 71, 96
10, 12544, Note_off_c, 8, 71, 100
10, 12672, Note_on_c, 8, 69, 96
10, 12856, Note_off_c, 8, 69, 100
10, 12864, Note_on_c, 8, 71, 96
10, 13048, Note_off_c, 8, 71, 100
10, 13056, Note_on_c, 8, 73, 96
10, 13312, Note_off_c, 8, 73, 100
10, 13440, Note_on_c, 8, 71, 96
10, 13624, Note_off_c, 8, 71, 100
10, 13632, Note_on_c, 8, 73, 96
10, 13816, Note_off_c, 8, 73, 100
10, 13824, Note_on_c, 8, 74, 96
10, 14080, Note_off_c, 8, 74, 100
10, 14208, Note_on_c, 8, 73, 96
10, 14328, Note_off_c, 8, 73, 100
10, 14592, Note_on_c, 8, 71, 96
10, 14712, Note_off_c, 8, 71, 100
10, 14976, Note_on_c, 8, 69, 96
10, 15096, Note_off_c, 8, 69, 100
10, 15360, Note_on_c, 8, 67, 96
10, 15616, Note_off_c, 8, 67, 100
10, 15744, Note_on_c, 8, 66, 96
10, 15864, Note_off_c, 8, 66, 100
10, 16128, Note_on_c, 8, 64, 96
10, 16248, Note_off_c, 8, 64, 100
10, 16512, Note_on_c, 8, 62, 96
10, 16632, Note_off_c, 8, 62, 100
10, 16896, Note_on_c, 8, 61, 96
10, 17152, Note_off_c, 8, 61, 100
10, 17280, Note_on_c, 8, 59, 96
10, 17464, Note_off_c, 8, 59, 100
10, 17472, Note_on_c, 8, 61, 96
10, 17656, Note_off_c, 8, 61, 100
10, 17664, Note_on_c, 8, 62, 96
10, 17920, Note_off_c, 8, 62, 100
10, 18048, Note_on_c, 8, 61, 96
10, 18232, Note_off_c, 8, 61, 100
10, 18240, Note_on_c, 8, 62, 96
10, 18424, Note_off_c, 8, 62, 100
10, 18432, Note_on_c, 8, 59, 96
10, 18688, Note_off_c, 8, 59, 100
10, 18816, Note_on_c, 8, 57, 96
10, 19000, Note_off_c, 8, 57, 100
10, 19008, Note_on_c, 8, 59, 96
10, 19192, Note_off_c, 8, 59, 100
10, 19200, Note_on_c, 8, 61, 96
10, 19456, Note_off_c, 8, 61, 100
10, 19584, Note_on_c, 8, 59, 96
10, 19768, Note_off_c, 8, 59, 100
10, 19776, Note_on_c, 8, 61, 96
10, 19960, Note_off_c, 8, 61, 100
10, 19968, Note_on_c, 8, 58, 96
10, 20224, Note_off_c, 8, 58, 100
10, 20352, Note_on_c, 8, 56, 96
10, 20536, Note_off_c, 8, 56, 100
10, 20544, Note_on_c, 8, 58, 96
10, 20672, Note_off_c, 8, 58, 100
10, 20736, Note_on_c, 8, 59, 96
10, 20920, Note_off_c, 8, 59, 100
10, 20928, Note_on_c, 8, 57, 96
10, 21112, Note_off_c, 8, 57, 100
10, 21120, Note_on_c, 8, 55, 96
10, 21304, Note_off_c, 8, 55, 100
10, 21312, Note_on_c, 8, 54, 96
10, 21496, Note_off_c, 8, 54, 100
10, 21504, Note_on_c, 8, 55, 96
10, 21624, Note_off_c, 8, 55, 100
10, 21888, Note_on_c, 8, 52, 96
10, 22008, Note_off_c, 8, 52, 100
10, 22272, Note_on_c, 8, 57, 96
10, 22528, Note_off_c, 8, 57, 100
10, 22656, Note_on_c, 8, 45, 96
10, 22776, Note_off_c, 8, 45, 100
10, 23040, Note_on_c, 8, 50, 96
10, 23160, Note_off_c, 8, 50, 100
10, 23424, Note_on_c, 8, 57, 96
10, 23544, Note_off_c, 8, 57, 100
10, 23808, Note_on_c, 8, 62, 96
10, 24384, Note_off_c, 8, 62, 100
10, 49536, Note_on_c, 8, 62, 96
10, 49720, Note_off_c, 8, 62, 100
10, 49728, Note_on_c, 8, 64, 96
10, 49912, Note_off_c, 8, 64, 100
10, 49920, Note_on_c, 8, 66, 96
10, 50040, Note_off_c, 8, 66, 100
10, 50304, Note_on_c, 8, 62, 96
10, 50424, Note_off_c, 8, 62, 100
10, 50688, Note_on_c, 8, 67, 96
10, 50808, Note_off_c, 8, 67, 100
10, 51072, Note_on_c, 8, 55, 96
10, 51192, Note_off_c, 8, 55, 100
10, 51456, Note_on_c, 8, 67, 96
10, 51712, Note_off_c, 8, 67, 100
10, 51840, Note_on_c, 8, 69, 96
10, 52024, Note_off_c, 8, 69, 100
10, 52032, Note_on_c, 8, 71, 96
10, 52216, Note_off_c, 8, 71, 100
10, 52224, Note_on_c, 8, 72, 96
10, 52480, Note_off_c, 8, 72, 100
10, 52608, Note_on_c, 8, 71, 96
10, 52728, Note_off_c, 8, 71, 100
10, 52992, Note_on_c, 8, 69, 96
10, 53112, Note_off_c, 8, 69, 100
10, 53376, Note_on_c, 8, 67, 96
10, 53560, Note_off_c, 8, 67, 100
10, 53568, Note_on_c, 8, 69, 96
10, 53752, Note_off_c, 8, 69, 100
10, 53760, Note_on_c, 8, 71, 96
10, 54144, Note_off_c, 8, 71, 100
10, 54336, Note_on_c, 8, 69, 96
10, 54520, Note_off_c, 8, 69, 100
10, 54528, Note_on_c, 8, 67, 96
10, 54712, Note_off_c, 8, 67, 100
10, 54720, Note_on_c, 8, 66, 96
10, 54904, Note_off_c, 8, 66, 100
10, 54912, Note_on_c, 8, 64, 96
10, 55096, Note_off_c, 8, 64, 100
10, 55104, Note_on_c, 8, 63, 96
10, 55288, Note_off_c, 8, 63, 100
10, 55296, Note_on_c, 8, 64, 96
10, 55416, Note_off_c, 8, 64, 100
10, 55680, Note_on_c, 8, 76, 96
10, 55864, Note_off_c, 8, 76, 100
10, 55872, Note_on_c, 8, 74, 96
10, 56056, Note_off_c, 8, 74, 100
10, 56064, Note_on_c, 8, 72, 96
10, 56184, Note_off_c, 8, 72, 100
10, 56448, Note_on_c, 8, 71, 96
10, 56568, Note_off_c, 8, 71, 100
10, 56832, Note_on_c, 8, 69, 96
10, 57208, Note_off_c, 8, 69, 100
10, 57216, Note_on_c, 8, 71, 96
10, 57400, Note_off_c, 8, 71, 100
10, 57408, Note_on_c, 8, 72, 96
10, 57592, Note_off_c, 8, 72, 100
10, 57600, Note_on_c, 8, 66, 96
10, 57856, Note_off_c, 8, 66, 100
10, 57984, Note_on_c, 8, 67, 96
10, 58168, Note_off_c, 8, 67, 100
10, 58176, Note_on_c, 8, 69, 96
10, 58360, Note_off_c, 8, 69, 100
10, 58368, Note_on_c, 8, 63, 96
10, 58624, Note_off_c, 8, 63, 100
10, 58752, Note_on_c, 8, 64, 96
10, 58936, Note_off_c, 8, 64, 100
10, 58944, Note_on_c, 8, 66, 96
10, 59128, Note_off_c, 8, 66, 100
10, 59136, Note_on_c, 8, 59, 96
10, 59392, Note_off_c, 8, 59, 100
10, 59520, Note_on_c, 8, 61, 96
10, 59704, Note_off_c, 8, 61, 100
10, 59712, Note_on_c, 8, 63, 96
10, 59896, Note_off_c, 8, 63, 100
10, 59904, Note_on_c, 8, 64, 96
10, 60160, Note_off_c, 8, 64, 100
10, 60288, Note_on_c, 8, 76, 96
10, 60472, Note_off_c, 8, 76, 100
10, 60480, Note_on_c, 8, 75, 96
10, 60664, Note_off_c, 8, 75, 100
10, 60672, Note_on_c, 8, 76, 96
10, 60792, Note_off_c, 8, 76, 100
10, 61056, Note_on_c, 8, 78, 96
10, 61240, Note_off_c, 8, 78, 100
10, 61248, Note_on_c, 8, 79, 96
10, 61432, Note_off_c, 8, 79, 100
10, 61440, Note_on_c, 8, 81, 96
10, 61696, Note_off_c, 8, 81, 100
10, 61824, Note_on_c, 8, 79, 96
10, 62008, Note_off_c, 8, 79, 100
10, 62016, Note_on_c, 8, 81, 96
10, 62200, Note_off_c, 8, 81, 100
10, 62208, Note_on_c, 8, 78, 96
10, 62464, Note_off_c, 8, 78, 100
10, 62592, Note_on_c, 8, 76, 96
10, 62776, Note_off_c, 8, 76, 100
10, 62784, Note_on_c, 8, 78, 96
10, 62968, Note_off_c, 8, 78, 100
10, 62976, Note_on_c, 8, 79, 96
10, 63096, Note_off_c, 8, 79, 100
10, 63360, Note_on_c, 8, 78, 96
10, 63480, Note_off_c, 8, 78, 100
10, 63744, Note_on_c, 8, 76, 96
10, 63864, Note_off_c, 8, 76, 100
10, 64128, Note_on_c, 8, 74, 96
10, 64248, Note_off_c, 8, 74, 100
10, 64512, Note_on_c, 8, 72, 96
10, 64768, Note_off_c, 8, 72, 100
10, 64896, Note_on_c, 8, 71, 96
10, 65016, Note_off_c, 8, 71, 100
10, 65280, Note_on_c, 8, 69, 96
10, 65400, Note_off_c, 8, 69, 100
10, 65664, Note_on_c, 8, 67, 96
10, 65784, Note_off_c, 8, 67, 100
10, 66048, Note_on_c, 8, 66, 96
10, 66424, Note_off_c, 8, 66, 100
10, 66432, Note_on_c, 8, 64, 96
10, 66616, Note_off_c, 8, 64, 100
10, 66624, Note_on_c, 8, 66, 96
10, 66808, Note_off_c, 8, 66, 100
10, 66816, Note_on_c, 8, 67, 96
10, 67072, Note_off_c, 8, 67, 100
10, 67200, Note_on_c, 8, 66, 96
10, 67384, Note_off_c, 8, 66, 100
10, 67392, Note_on_c, 8, 67, 96
10, 67576, Note_off_c, 8, 67, 100
10, 67584, Note_on_c, 8, 64, 96
10, 67840, Note_off_c, 8, 64, 100
10, 67968, Note_on_c, 8, 62, 96
10, 68152, Note_off_c, 8, 62, 100
10, 68160, Note_on_c, 8, 64, 96
10, 68344, Note_off_c, 8, 64, 100
10, 68352, Note_on_c, 8, 66, 96
10, 68608, Note_off_c, 8, 66, 100
10, 68736, Note_on_c, 8, 64, 96
10, 68920, Note_off_c, 8, 64, 100
10, 68928, Note_on_c, 8, 66, 96
10, 69112, Note_off_c, 8, 66, 100
10, 69120, Note_on_c, 8, 63, 96
10, 69376, Note_off_c, 8, 63, 100
10, 69504, Note_on_c, 8, 61, 96
10, 69688, Note_off_c, 8, 61, 100
10, 69696, Note_on_c, 8, 63, 96
10, 69824, Note_off_c, 8, 63, 100
10, 69888, Note_on_c, 8, 64, 96
10, 70072, Note_off_c, 8, 64, 100
10, 70080, Note_on_c, 8, 62, 96
10, 70264, Note_off_c, 8, 62, 100
10, 70272, Note_on_c, 8, 60, 96
10, 70456, Note_off_c, 8, 60, 100
10, 70464, Note_on_c, 8, 59, 96
10, 70648, Note_off_c, 8, 59, 100
10, 70656, Note_on_c, 8, 60, 96
10, 70912, Note_off_c, 8, 60, 100
10, 71040, Note_on_c, 8, 57, 96
10, 71160, Note_off_c, 8, 57, 100
10, 71424, Note_on_c, 8, 62, 96
10, 71544, Note_off_c, 8, 62, 100
10, 71808, Note_on_c, 8, 50, 96
10, 71928, Note_off_c, 8, 50, 100
10, 72192, Note_on_c, 8, 55, 96
10, 72448, Note_off_c, 8, 55, 100
10, 72576, Note_on_c, 8, 62, 96
10, 72696, Note_off_c, 8, 62, 100
10, 72960, Note_on_c, 8, 67, 96
10, 73536, Note_off_c, 8, 67, 100
10, 73536, End_track
11, 0, Start_track
11, 1, Copyright_t, "___________________________________________________\012\012KUNSTDERFUGE.COM LARGE CLASSICAL MIDI COLLECTION\012ONCLASSICAL BY ALESSANDRO SIMONETTO, PROPRIETOR\012___________________________________________________\012\012! Attention: this file is under copyright !\012\012(c)onclassical, (c)degiusti, 2010\012___________________________________________________\012\012NO ONE MAY REPUBLISH THIS FILE WITHOUT PERMISSION\012COMMERCIAL USES OF THIS FILE IS STRICTLY PROHIBITED\012___________________________________________________\012\012Files & contributor's list: http://kunstderfuge.com/\012Terms and conditions: http://kunstderfuge.com/notes.htm"
11, 1, End_track
0, 0, End_of_file