0, 0, Header, 1, 1, 480
1, 0, Start_track
1, 0, Sequence_number, 0
1, 0, Title_t, "c7"
1, 0, Channel_prefix, 0
1, 0, Instrument_name_t, "1"
1, 0, Program_c, 0, 0
1, 0, Tempo, 300000
1, 0, Time_signature, 4, 2, 24, 24
1, 0, Key_signature, 3, "major"
1, 0, Note_on_c, 0, 69, 90
1, 720, Note_off_c, 0, 69, 0
1, 720, Note_on_c, 0, 64, 90
1, 960, Note_off_c, 0, 64, 0
1, 960, Note_on_c, 0, 69, 90
1, 1200, Note_off_c, 0, 69, 0
1, 1200, Note_on_c, 0, 73, 90
1, 1440, Note_off_c, 0, 73, 0
1, 1440, Note_on_c, 0, 76, 90
1, 1680, Note_off_c, 0, 76, 0
1, 1680, Note_on_c, 0, 81, 90
1, 1920, Note_off_c, 0, 81, 0
1, 1920, Note_on_c, 0, 76, 90
1, 2640, Note_off_c, 0, 76, 0
1, 2640, Note_on_c, 0, 73, 90
1, 2880, Note_off_c, 0, 73, 0
1, 2880, Note_on_c, 0, 76, 90
1, 3360, Note_off_c, 0, 76, 0
1, 3360, Note_on_c, 0, 73, 90
1, 3600, Note_off_c, 0, 73, 0
1, 3600, Note_on_c, 0, 81, 90
1, 3840, Note_off_c, 0, 81, 0
1, 3840, Note_on_c, 0, 76, 90
1, 4320, Note_off_c, 0, 76, 0
1, 4320, Note_on_c, 0, 73, 90
1, 4560, Note_off_c, 0, 73, 0
1, 4560, Note_on_c, 0, 64, 90
1, 4800, Note_off_c, 0, 64, 0
1, 4800, Note_on_c, 0, 69, 90
1, 5280, Note_off_c, 0, 69, 0
1, 5280, Note_on_c, 0, 73, 90
1, 5520, Note_off_c, 0, 73, 0
1, 5520, Note_on_c, 0, 81, 90
1, 5760, Note_off_c, 0, 81, 0
1, 5760, Note_on_c, 0, 76, 90
1, 6480, Note_off_c, 0, 76, 0
1, 6480, Note_on_c, 0, 73, 90
1, 6720, Note_off_c, 0, 73, 0
1, 6720, Note_on_c, 0, 69, 90
1, 6960, Note_off_c, 0, 69, 0
1, 6960, Note_on_c, 0, 73, 90
1, 7200, Note_off_c, 0, 73, 0
1, 7200, Note_on_c, 0, 76, 90
1, 7440, Note_off_c, 0, 76, 0
1, 7440, Note_on_c, 0, 81, 90
1, 7680, Note_off_c, 0, 81, 0
1, 7680, Note_on_c, 0, 80, 90
1, 7920, Note_off_c, 0, 80, 0
1, 7920, Note_on_c, 0, 83, 90
1, 8160, Note_off_c, 0, 83, 0
1, 8160, Note_on_c, 0, 88, 90
1, 8880, Note_off_c, 0, 88, 0
1, 8880, Note_on_c, 0, 83, 90
1, 9120, Note_off_c, 0, 83, 0
1, 9120, Note_on_c, 0, 80, 90
1, 9840, Note_off_c, 0, 80, 0
1, 9840, Note_on_c, 0, 88, 90
1, 10080, Note_off_c, 0, 88, 0
1, 10080, Note_on_c, 0, 83, 90
1, 10800, Note_off_c, 0, 83, 0
1, 10800, Note_on_c, 0, 88, 90
1, 11040, Note_off_c, 0, 88, 0
1, 11040, Note_on_c, 0, 83, 90
1, 11760, Note_off_c, 0, 83, 0
1, 11760, Note_on_c, 0, 80, 90
1, 12000, Note_off_c, 0, 80, 0
1, 12000, Note_on_c, 0, 76, 90
1, 12720, Note_off_c, 0, 76, 0
1, 12720, Note_on_c, 0, 88, 90
1, 12960, Note_off_c, 0, 88, 0
1, 12960, Note_on_c, 0, 83, 90
1, 13680, Note_off_c, 0, 83, 0
1, 13680, Note_on_c, 0, 80, 90
1, 13920, Note_off_c, 0, 80, 0
1, 13920, Note_on_c, 0, 76, 90
1, 14880, Note_off_c, 0, 76, 0
1, 14880, Note_on_c, 0, 80, 90
1, 15360, Note_off_c, 0, 80, 0
1, 15360, Note_on_c, 0, 78, 90
1, 15600, Note_off_c, 0, 78, 0
1, 15600, Note_on_c, 0, 81, 90
1, 15840, Note_off_c, 0, 81, 0
1, 15840, Note_on_c, 0, 78, 90
1, 16320, Note_off_c, 0, 78, 0
1, 16320, Note_on_c, 0, 76, 90
1, 16560, Note_off_c, 0, 76, 0
1, 16560, Note_on_c, 0, 81, 90
1, 17040, Note_off_c, 0, 81, 0
1, 17040, Note_on_c, 0, 76, 90
1, 17280, Note_off_c, 0, 76, 0
1, 17280, Note_on_c, 0, 78, 90
1, 17520, Note_off_c, 0, 78, 0
1, 17520, Note_on_c, 0, 86, 90
1, 17760, Note_off_c, 0, 86, 0
1, 17760, Note_on_c, 0, 81, 90
1, 18480, Note_off_c, 0, 81, 0
1, 18480, Note_on_c, 0, 88, 90
1, 18720, Note_off_c, 0, 88, 0
1, 18720, Note_on_c, 0, 81, 90
1, 19680, Note_off_c, 0, 81, 0
1, 19680, Note_on_c, 0, 85, 90
1, 20640, Note_off_c, 0, 85, 0
1, 20640, Note_on_c, 0, 81, 90
1, 21120, Note_off_c, 0, 81, 0
1, 21120, Note_on_c, 0, 85, 90
1, 21840, Note_off_c, 0, 85, 0
1, 21840, Note_on_c, 0, 81, 90
1, 22080, Note_off_c, 0, 81, 0
1, 22080, Note_on_c, 0, 85, 90
1, 22800, Note_off_c, 0, 85, 0
1, 22800, Note_on_c, 0, 88, 90
1, 23040, Note_off_c, 0, 88, 0
1, 23040, Note_on_c, 0, 85, 90
1, 23760, Note_off_c, 0, 85, 0
1, 23760, Note_on_c, 0, 88, 90
1, 24000, Note_off_c, 0, 88, 0
1, 24000, Note_on_c, 0, 85, 90
1, 24720, Note_off_c, 0, 85, 0
1, 24720, Note_on_c, 0, 88, 90
1, 24960, Note_off_c, 0, 88, 0
1, 24960, Note_on_c, 0, 85, 90
1, 25200, Note_off_c, 0, 85, 0
1, 25200, Note_on_c, 0, 81, 90
1, 25440, Note_off_c, 0, 81, 0
1, 25440, Note_on_c, 0, 76, 90
1, 25680, Note_off_c, 0, 76, 0
1, 25680, Note_on_c, 0, 81, 90
1, 25920, Note_off_c, 0, 81, 0
1, 25920, Note_on_c, 0, 85, 90
1, 26880, Note_off_c, 0, 85, 0
1, 26880, Note_on_c, 0, 88, 90
1, 27120, Note_on_c, 0, 80, 90
1, 27360, Note_off_c, 0, 80, 0
1, 27360, Note_off_c, 0, 88, 0
1, 27360, Note_on_c, 0, 83, 90
1, 27600, Note_off_c, 0, 83, 0
1, 27840, Note_on_c, 0, 86, 90
1, 28320, Note_off_c, 0, 86, 0
1, 28320, Note_on_c, 0, 78, 90
1, 28800, Note_off_c, 0, 78, 0
1, 28800, Tempo, 306122
1, 28800, Note_on_c, 0, 76, 90
1, 29280, Note_off_c, 0, 76, 0
1, 29280, Note_on_c, 0, 83, 90
1, 29520, Note_off_c, 0, 83, 0
1, 29520, Note_on_c, 0, 80, 90
1, 29760, Note_off_c, 0, 80, 0
1, 29760, Note_on_c, 0, 81, 90
1, 30000, Note_off_c, 0, 81, 0
1, 30000, Note_on_c, 0, 86, 90
1, 30720, Note_off_c, 0, 86, 0
1, 30720, Note_on_c, 0, 85, 90
1, 31200, Note_off_c, 0, 85, 0
1, 31200, Note_on_c, 0, 76, 90
1, 31440, Note_off_c, 0, 76, 0
1, 31440, Note_on_c, 0, 80, 90
1, 31680, Note_off_c, 0, 80, 0
1, 31680, Note_on_c, 0, 83, 90
1, 32160, Note_off_c, 0, 83, 0
1, 32160, Note_on_c, 0, 74, 90
1, 32640, Note_off_c, 0, 74, 0
1, 32640, Note_on_c, 0, 73, 90
1, 33120, Note_off_c, 0, 73, 0
1, 33120, Note_on_c, 0, 80, 90
1, 33360, Note_off_c, 0, 80, 0
1, 33360, Note_on_c, 0, 76, 90
1, 33600, Note_off_c, 0, 76, 0
1, 33600, Note_on_c, 0, 78, 90
1, 33840, Note_off_c, 0, 78, 0
1, 33840, Note_on_c, 0, 83, 90
1, 34560, Note_off_c, 0, 83, 0
1, 35040, Note_on_c, 0, 85, 90
1, 35280, Note_off_c, 0, 85, 0
1, 35280, Note_on_c, 0, 81, 90
1, 35520, Note_off_c, 0, 81, 0
1, 35520, Note_on_c, 0, 76, 90
1, 36000, Note_off_c, 0, 76, 0
1, 36000, Note_on_c, 0, 74, 90
1, 36240, Note_off_c, 0, 74, 0
1, 36240, Note_on_c, 0, 78, 90
1, 36480, Note_off_c, 0, 78, 0
1, 36480, Tempo, 300000
1, 36480, Note_on_c, 0, 73, 90
1, 36960, Note_off_c, 0, 73, 0
1, 36960, Note_on_c, 0, 71, 90
1, 37200, Note_off_c, 0, 71, 0
1, 37200, Note_on_c, 0, 76, 90
1, 37440, Note_off_c, 0, 76, 0
1, 37440, Note_on_c, 0, 73, 90
1, 37920, Note_off_c, 0, 73, 0
1, 37920, Note_on_c, 0, 71, 90
1, 38400, Note_off_c, 0, 71, 0
1, 38400, Note_on_c, 0, 69, 90
1, 38640, Note_off_c, 0, 69, 0
1, 38640, Note_on_c, 0, 73, 90
1, 38880, Note_off_c, 0, 73, 0
1, 38880, Note_on_c, 0, 78, 90
1, 39600, Note_off_c, 0, 78, 0
1, 39600, Note_on_c, 0, 85, 90
1, 39840, Note_off_c, 0, 85, 0
1, 39840, Note_on_c, 0, 81, 90
1, 40560, Note_off_c, 0, 81, 0
1, 40560, Note_on_c, 0, 78, 90
1, 40800, Note_off_c, 0, 78, 0
1, 40800, Note_on_c, 0, 81, 90
1, 41280, Note_off_c, 0, 81, 0
1, 41280, Note_on_c, 0, 73, 90
1, 41520, Note_off_c, 0, 73, 0
1, 41520, Note_on_c, 0, 78, 90
1, 41760, Note_off_c, 0, 78, 0
1, 41760, Note_on_c, 0, 73, 90
1, 42240, Note_off_c, 0, 73, 0
1, 42240, Note_on_c, 0, 85, 90
1, 42480, Note_off_c, 0, 85, 0
1, 42480, Note_on_c, 0, 81, 90
1, 42720, Note_off_c, 0, 81, 0
1, 42720, Note_on_c, 0, 78, 90
1, 43440, Note_off_c, 0, 78, 0
1, 43440, Note_on_c, 0, 81, 90
1, 43680, Note_off_c, 0, 81, 0
1, 43680, Note_on_c, 0, 73, 90
1, 44160, Note_off_c, 0, 73, 0
1, 44160, Note_on_c, 0, 85, 90
1, 44400, Note_off_c, 0, 85, 0
1, 44400, Note_on_c, 0, 81, 90
1, 44640, Note_off_c, 0, 81, 0
1, 44640, Note_on_c, 0, 78, 90
1, 45600, Note_off_c, 0, 78, 0
1, 45600, Note_on_c, 0, 81, 90
1, 46080, Note_off_c, 0, 81, 0
1, 46080, Note_on_c, 0, 80, 90
1, 46560, Note_off_c, 0, 80, 0
1, 46560, Note_on_c, 0, 76, 90
1, 47520, Note_off_c, 0, 76, 0
1, 47520, Note_on_c, 0, 80, 90
1, 47760, Note_off_c, 0, 80, 0
1, 47760, Note_on_c, 0, 85, 90
1, 48000, Note_off_c, 0, 85, 0
1, 48000, Note_on_c, 0, 80, 90
1, 48720, Note_off_c, 0, 80, 0
1, 48720, Note_on_c, 0, 76, 90
1, 48960, Note_off_c, 0, 76, 0
1, 48960, Note_on_c, 0, 80, 90
1, 49440, Note_off_c, 0, 80, 0
1, 49440, Note_on_c, 0, 76, 90
1, 49680, Note_off_c, 0, 76, 0
1, 49680, Note_on_c, 0, 85, 90
1, 49920, Note_off_c, 0, 85, 0
1, 49920, Note_on_c, 0, 80, 90
1, 50400, Note_off_c, 0, 80, 0
1, 50400, Note_on_c, 0, 76, 90
1, 50640, Note_off_c, 0, 76, 0
1, 50640, Note_on_c, 0, 68, 90
1, 50880, Note_off_c, 0, 68, 0
1, 50880, Note_on_c, 0, 73, 90
1, 51360, Note_off_c, 0, 73, 0
1, 51360, Note_on_c, 0, 76, 90
1, 51600, Note_off_c, 0, 76, 0
1, 51600, Note_on_c, 0, 85, 90
1, 51840, Note_off_c, 0, 85, 0
1, 51840, Note_on_c, 0, 80, 90
1, 52560, Note_off_c, 0, 80, 0
1, 52560, Note_on_c, 0, 76, 90
1, 52800, Note_off_c, 0, 76, 0
1, 52800, Note_on_c, 0, 73, 90
1, 53040, Note_off_c, 0, 73, 0
1, 53040, Note_on_c, 0, 76, 90
1, 53280, Note_off_c, 0, 76, 0
1, 53280, Note_on_c, 0, 80, 90
1, 53520, Note_off_c, 0, 80, 0
1, 53520, Note_on_c, 0, 85, 90
1, 53760, Note_off_c, 0, 85, 0
1, 53760, Note_on_c, 0, 83, 90
1, 54480, Note_off_c, 0, 83, 0
1, 54480, Note_on_c, 0, 78, 90
1, 54720, Note_off_c, 0, 78, 0
1, 54720, Note_on_c, 0, 81, 90
1, 55200, Note_off_c, 0, 81, 0
1, 55200, Note_on_c, 0, 78, 90
1, 55440, Note_off_c, 0, 78, 0
1, 55440, Note_on_c, 0, 81, 90
1, 55680, Note_off_c, 0, 81, 0
1, 55680, Tempo, 303030
1, 55680, Note_on_c, 0, 83, 90
1, 56400, Note_off_c, 0, 83, 0
1, 56400, Note_on_c, 0, 86, 90
1, 56640, Note_off_c, 0, 86, 0
1, 56640, Note_on_c, 0, 81, 90
1, 57360, Note_off_c, 0, 81, 0
1, 57360, Note_on_c, 0, 78, 90
1, 57600, Note_off_c, 0, 78, 0
1, 57600, Tempo, 306122
1, 57600, Note_on_c, 0, 73, 90
1, 58320, Note_off_c, 0, 73, 0
1, 58320, Note_on_c, 0, 68, 90
1, 58560, Note_off_c, 0, 68, 0
1, 58560, Note_on_c, 0, 71, 90
1, 59040, Note_off_c, 0, 71, 0
1, 59040, Note_on_c, 0, 66, 90
1, 59280, Note_off_c, 0, 66, 0
1, 59280, Note_on_c, 0, 71, 90
1, 59520, Note_off_c, 0, 71, 0
1, 59520, Note_on_c, 0, 68, 90
1, 59760, Note_off_c, 0, 68, 0
1, 59760, Note_on_c, 0, 76, 90
1, 60000, Note_off_c, 0, 76, 0
1, 60000, Note_on_c, 0, 73, 90
1, 60480, Note_off_c, 0, 73, 0
1, 60480, Note_on_c, 0, 66, 90
1, 60720, Note_off_c, 0, 66, 0
1, 60720, Note_on_c, 0, 71, 90
1, 60960, Note_off_c, 0, 71, 0
1, 60960, Note_on_c, 0, 73, 90
1, 61200, Note_off_c, 0, 73, 0
1, 61200, Note_on_c, 0, 76, 90
1, 61440, Note_off_c, 0, 76, 0
1, 61440, Note_on_c, 0, 73, 90
1, 61680, Note_off_c, 0, 73, 0
1, 61680, Note_on_c, 0, 76, 90
1, 61920, Note_off_c, 0, 76, 0
1, 61920, Note_on_c, 0, 81, 90
1, 62640, Note_off_c, 0, 81, 0
1, 62640, Note_on_c, 0, 76, 90
1, 62880, Note_off_c, 0, 76, 0
1, 62880, Note_on_c, 0, 73, 90
1, 63360, Tempo, 300000
1, 63600, Note_off_c, 0, 73, 0
1, 63600, Note_on_c, 0, 81, 90
1, 63840, Note_off_c, 0, 81, 0
1, 63840, Note_on_c, 0, 76, 90
1, 64560, Note_off_c, 0, 76, 0
1, 64560, Note_on_c, 0, 81, 90
1, 64800, Note_off_c, 0, 81, 0
1, 64800, Note_on_c, 0, 76, 90
1, 65520, Note_off_c, 0, 76, 0
1, 65520, Note_on_c, 0, 73, 90
1, 65760, Note_off_c, 0, 73, 0
1, 65760, Note_on_c, 0, 69, 90
1, 66480, Note_off_c, 0, 69, 0
1, 66480, Note_on_c, 0, 81, 90
1, 66720, Note_off_c, 0, 81, 0
1, 66720, Note_on_c, 0, 76, 90
1, 67440, Note_off_c, 0, 76, 0
1, 67440, Note_on_c, 0, 73, 90
1, 67680, Note_off_c, 0, 73, 0
1, 67680, Note_on_c, 0, 69, 90
1, 68640, Note_off_c, 0, 69, 0
1, 68640, Note_on_c, 0, 73, 90
1, 69120, Note_off_c, 0, 73, 0
1, 69120, Note_on_c, 0, 64, 90
1, 69840, Note_off_c, 0, 64, 0
1, 69840, Note_on_c, 0, 59, 90
1, 70080, Note_off_c, 0, 59, 0
1, 70080, Note_on_c, 0, 64, 90
1, 70320, Note_off_c, 0, 64, 0
1, 70320, Note_on_c, 0, 68, 90
1, 70560, Note_off_c, 0, 68, 0
1, 70560, Note_on_c, 0, 71, 90
1, 70800, Note_off_c, 0, 71, 0
1, 70800, Note_on_c, 0, 76, 90
1, 71040, Note_off_c, 0, 76, 0
1, 71040, Note_on_c, 0, 71, 90
1, 71760, Note_off_c, 0, 71, 0
1, 71760, Note_on_c, 0, 68, 90
1, 72000, Note_off_c, 0, 68, 0
1, 72000, Note_on_c, 0, 71, 90
1, 72480, Note_off_c, 0, 71, 0
1, 72480, Note_on_c, 0, 68, 90
1, 72720, Note_off_c, 0, 68, 0
1, 72720, Note_on_c, 0, 76, 90
1, 72960, Note_off_c, 0, 76, 0
1, 72960, Note_on_c, 0, 71, 90
1, 73440, Note_off_c, 0, 71, 0
1, 73440, Note_on_c, 0, 68, 90
1, 73680, Note_off_c, 0, 68, 0
1, 73680, Note_on_c, 0, 59, 90
1, 73920, Note_off_c, 0, 59, 0
1, 73920, Note_on_c, 0, 64, 90
1, 74400, Note_off_c, 0, 64, 0
1, 74400, Note_on_c, 0, 68, 90
1, 74640, Note_off_c, 0, 68, 0
1, 74640, Note_on_c, 0, 76, 90
1, 74880, Note_off_c, 0, 76, 0
1, 74880, Note_on_c, 0, 71, 90
1, 75600, Note_off_c, 0, 71, 0
1, 75600, Note_on_c, 0, 68, 90
1, 75840, Note_off_c, 0, 68, 0
1, 75840, Note_on_c, 0, 64, 90
1, 76080, Note_off_c, 0, 64, 0
1, 76080, Note_on_c, 0, 68, 90
1, 76320, Note_off_c, 0, 68, 0
1, 76320, Note_on_c, 0, 71, 90
1, 76560, Note_off_c, 0, 71, 0
1, 76560, Note_on_c, 0, 76, 90
1, 76800, Note_off_c, 0, 76, 0
1, 76800, Note_on_c, 0, 74, 90
1, 77520, Note_off_c, 0, 74, 0
1, 77520, Note_on_c, 0, 69, 90
1, 77760, Note_off_c, 0, 69, 0
1, 77760, Note_on_c, 0, 73, 90
1, 78240, Note_off_c, 0, 73, 0
1, 78240, Note_on_c, 0, 69, 90
1, 78480, Note_off_c, 0, 69, 0
1, 78480, Note_on_c, 0, 73, 90
1, 78720, Note_off_c, 0, 73, 0
1, 78720, Note_on_c, 0, 74, 90
1, 79440, Note_off_c, 0, 74, 0
1, 79440, Note_on_c, 0, 78, 90
1, 79680, Note_off_c, 0, 78, 0
1, 79680, Note_on_c, 0, 73, 90
1, 80400, Note_off_c, 0, 73, 0
1, 80400, Note_on_c, 0, 69, 90
1, 80640, Note_off_c, 0, 69, 0
1, 80640, Note_on_c, 0, 72, 90
1, 81360, Note_off_c, 0, 72, 0
1, 81360, Note_on_c, 0, 69, 90
1, 81600, Note_off_c, 0, 69, 0
1, 81600, Note_on_c, 0, 70, 90
1, 82080, Note_off_c, 0, 70, 0
1, 82080, Note_on_c, 0, 65, 90
1, 82320, Note_off_c, 0, 65, 0
1, 82320, Note_on_c, 0, 70, 90
1, 82560, Note_off_c, 0, 70, 0
1, 82560, Note_on_c, 0, 69, 90
1, 83280, Note_off_c, 0, 69, 0
1, 83280, Note_on_c, 0, 65, 90
1, 83520, Note_off_c, 0, 65, 0
1, 83520, Note_on_c, 0, 72, 90
1, 84240, Note_off_c, 0, 72, 0
1, 84240, Note_on_c, 0, 69, 90
1, 84480, Note_off_c, 0, 69, 0
1, 84480, Note_on_c, 0, 72, 90
1, 84960, Note_off_c, 0, 72, 0
1, 84960, Note_on_c, 0, 81, 90
1, 85200, Note_off_c, 0, 81, 0
1, 85200, Note_on_c, 0, 77, 90
1, 85440, Note_off_c, 0, 77, 0
1, 85440, Note_on_c, 0, 72, 90
1, 85920, Note_off_c, 0, 72, 0
1, 85920, Note_on_c, 0, 70, 90
1, 86160, Note_off_c, 0, 70, 0
1, 86160, Note_on_c, 0, 74, 90
1, 86400, Note_off_c, 0, 74, 0
1, 86400, Note_on_c, 0, 69, 90
1, 86880, Note_off_c, 0, 69, 0
1, 86880, Note_on_c, 0, 67, 90
1, 87120, Note_off_c, 0, 67, 0
1, 87120, Note_on_c, 0, 72, 90
1, 87360, Note_off_c, 0, 72, 0
1, 87360, Note_on_c, 0, 65, 90
1, 87600, Note_off_c, 0, 65, 0
1, 87600, Note_on_c, 0, 70, 90
1, 87840, Note_off_c, 0, 70, 0
1, 87840, Note_on_c, 0, 67, 90
1, 88320, Note_off_c, 0, 67, 0
1, 88320, Note_on_c, 0, 69, 90
1, 88560, Note_off_c, 0, 69, 0
1, 88560, Note_on_c, 0, 72, 90
1, 88800, Note_off_c, 0, 72, 0
1, 88800, Note_on_c, 0, 77, 90
1, 89280, Note_off_c, 0, 77, 0
1, 89280, Note_on_c, 0, 65, 90
1, 89520, Note_off_c, 0, 65, 0
1, 89520, Note_on_c, 0, 69, 90
1, 89760, Note_off_c, 0, 69, 0
1, 89760, Note_on_c, 0, 72, 90
1, 90000, Note_off_c, 0, 72, 0
1, 90000, Note_on_c, 0, 77, 90
1, 90240, Note_off_c, 0, 77, 0
1, 90240, Note_on_c, 0, 72, 90
1, 90960, Note_off_c, 0, 72, 0
1, 90960, Note_on_c, 0, 69, 90
1, 91200, Note_off_c, 0, 69, 0
1, 91200, Note_on_c, 0, 72, 90
1, 91680, Note_off_c, 0, 72, 0
1, 91680, Note_on_c, 0, 69, 90
1, 91920, Note_off_c, 0, 69, 0
1, 91920, Note_on_c, 0, 77, 90
1, 92160, Note_off_c, 0, 77, 0
1, 92160, Note_on_c, 0, 72, 90
1, 92640, Note_off_c, 0, 72, 0
1, 92640, Note_on_c, 0, 69, 90
1, 92880, Note_off_c, 0, 69, 0
1, 92880, Note_on_c, 0, 60, 90
1, 93120, Note_off_c, 0, 60, 0
1, 93120, Note_on_c, 0, 65, 90
1, 93600, Note_off_c, 0, 65, 0
1, 93600, Note_on_c, 0, 69, 90
1, 93840, Note_off_c, 0, 69, 0
1, 93840, Note_on_c, 0, 77, 90
1, 94080, Note_off_c, 0, 77, 0
1, 94080, Note_on_c, 0, 72, 90
1, 94800, Note_off_c, 0, 72, 0
1, 94800, Note_on_c, 0, 69, 90
1, 95040, Note_off_c, 0, 69, 0
1, 95040, Note_on_c, 0, 65, 90
1, 95280, Note_off_c, 0, 65, 0
1, 95280, Note_on_c, 0, 69, 90
1, 95520, Note_off_c, 0, 69, 0
1, 95520, Note_on_c, 0, 72, 90
1, 95760, Note_off_c, 0, 72, 0
1, 95760, Note_on_c, 0, 77, 90
1, 96000, Note_off_c, 0, 77, 0
1, 96000, Note_on_c, 0, 70, 90
1, 96480, Note_off_c, 0, 70, 0
1, 96480, Note_on_c, 0, 74, 90
1, 97440, Note_off_c, 0, 74, 0
1, 97440, Note_on_c, 0, 70, 90
1, 97920, Note_off_c, 0, 70, 0
1, 97920, Note_on_c, 0, 74, 90
1, 98640, Note_off_c, 0, 74, 0
1, 98640, Note_on_c, 0, 70, 90
1, 98880, Note_off_c, 0, 70, 0
1, 98880, Note_on_c, 0, 74, 90
1, 99600, Note_off_c, 0, 74, 0
1, 99600, Note_on_c, 0, 77, 90
1, 99840, Note_off_c, 0, 77, 0
1, 99840, Note_on_c, 0, 74, 90
1, 100560, Note_off_c, 0, 74, 0
1, 100560, Note_on_c, 0, 77, 90
1, 100800, Note_off_c, 0, 77, 0
1, 100800, Note_on_c, 0, 74, 90
1, 101520, Note_off_c, 0, 74, 0
1, 101520, Note_on_c, 0, 77, 90
1, 101760, Note_off_c, 0, 77, 0
1, 101760, Note_on_c, 0, 74, 90
1, 102000, Note_off_c, 0, 74, 0
1, 102000, Note_on_c, 0, 70, 90
1, 102240, Note_off_c, 0, 70, 0
1, 102240, Note_on_c, 0, 65, 90
1, 102480, Note_off_c, 0, 65, 0
1, 102480, Note_on_c, 0, 70, 90
1, 102720, Note_off_c, 0, 70, 0
1, 102720, Note_on_c, 0, 74, 90
1, 103680, Note_off_c, 0, 74, 0
1, 103680, Note_on_c, 0, 75, 90
1, 104160, Note_off_c, 0, 75, 0
1, 104160, Note_on_c, 0, 67, 90
1, 104400, Note_off_c, 0, 67, 0
1, 104400, Note_on_c, 0, 70, 90
1, 104640, Note_off_c, 0, 70, 0
1, 104640, Note_on_c, 0, 74, 90
1, 105120, Note_off_c, 0, 74, 0
1, 105120, Note_on_c, 0, 65, 90
1, 105600, Note_off_c, 0, 65, 0
1, 105600, Note_on_c, 0, 63, 90
1, 106080, Note_off_c, 0, 63, 0
1, 106080, Note_on_c, 0, 70, 90
1, 106320, Note_off_c, 0, 70, 0
1, 106320, Note_on_c, 0, 67, 90
1, 106560, Note_off_c, 0, 67, 0
1, 106560, Note_on_c, 0, 69, 90
1, 106800, Note_off_c, 0, 69, 0
1, 106800, Note_on_c, 0, 74, 90
1, 107520, Note_off_c, 0, 74, 0
1, 107520, Note_on_c, 0, 79, 90
1, 108240, Note_off_c, 0, 79, 0
1, 108240, Note_on_c, 0, 82, 90
1, 108480, Note_off_c, 0, 82, 0
1, 108480, Note_on_c, 0, 77, 90
1, 108960, Note_off_c, 0, 77, 0
1, 108960, Note_on_c, 0, 82, 90
1, 109200, Note_off_c, 0, 82, 0
1, 109200, Note_on_c, 0, 77, 90
1, 109440, Note_off_c, 0, 77, 0
1, 109440, Note_on_c, 0, 75, 90
1, 109680, Note_off_c, 0, 75, 0
1, 109680, Note_on_c, 0, 84, 90
1, 109920, Note_off_c, 0, 84, 0
1, 109920, Note_on_c, 0, 79, 90
1, 110880, Note_off_c, 0, 79, 0
1, 110880, Note_on_c, 0, 75, 90
1, 111120, Note_off_c, 0, 75, 0
1, 111120, Note_on_c, 0, 79, 90
1, 111360, Note_off_c, 0, 79, 0
1, 111360, Note_on_c, 0, 75, 90
1, 111600, Note_off_c, 0, 75, 0
1, 111600, Note_on_c, 0, 74, 90
1, 111840, Note_off_c, 0, 74, 0
1, 111840, Note_on_c, 0, 77, 90
1, 112560, Note_off_c, 0, 77, 0
1, 112560, Note_on_c, 0, 82, 90
1, 112800, Note_off_c, 0, 82, 0
1, 112800, Note_on_c, 0, 86, 90
1, 113280, Note_off_c, 0, 86, 0
1, 113280, Note_on_c, 0, 82, 90
1, 114720, Note_off_c, 0, 82, 0
1, 114720, Note_on_c, 0, 87, 90
1, 115200, Note_off_c, 0, 87, 0
1, 115200, Note_on_c, 0, 89, 90
1, 115680, Note_off_c, 0, 89, 0
1, 115680, Note_on_c, 0, 90, 90
1, 116160, Note_off_c, 0, 90, 0
1, 116160, Note_on_c, 0, 69, 90
1, 116400, Note_off_c, 0, 69, 0
1, 116400, Note_on_c, 0, 73, 90
1, 116640, Note_off_c, 0, 73, 0
1, 116640, Note_on_c, 0, 78, 90
1, 116880, Note_off_c, 0, 78, 0
1, 116880, Note_on_c, 0, 81, 90
1, 117120, Note_off_c, 0, 81, 0
1, 117120, Note_on_c, 0, 69, 90
1, 117840, Note_off_c, 0, 69, 0
1, 117840, Note_on_c, 0, 64, 90
1, 118080, Note_off_c, 0, 64, 0
1, 118080, Note_on_c, 0, 69, 90
1, 118320, Note_off_c, 0, 69, 0
1, 118320, Note_on_c, 0, 73, 90
1, 118560, Note_off_c, 0, 73, 0
1, 118560, Note_on_c, 0, 76, 90
1, 118800, Note_off_c, 0, 76, 0
1, 118800, Note_on_c, 0, 81, 90
1, 119040, Note_off_c, 0, 81, 0
1, 119040, Note_on_c, 0, 76, 90
1, 119760, Note_off_c, 0, 76, 0
1, 119760, Note_on_c, 0, 73, 90
1, 120000, Note_off_c, 0, 73, 0
1, 120000, Note_on_c, 0, 76, 90
1, 120480, Note_off_c, 0, 76, 0
1, 120480, Note_on_c, 0, 73, 90
1, 120720, Note_off_c, 0, 73, 0
1, 120720, Note_on_c, 0, 81, 90
1, 120960, Note_off_c, 0, 81, 0
1, 120960, Note_on_c, 0, 76, 90
1, 121440, Note_off_c, 0, 76, 0
1, 121440, Note_on_c, 0, 73, 90
1, 121680, Note_off_c, 0, 73, 0
1, 121680, Note_on_c, 0, 64, 90
1, 121920, Note_off_c, 0, 64, 0
1, 121920, Note_on_c, 0, 69, 90
1, 122400, Note_off_c, 0, 69, 0
1, 122400, Note_on_c, 0, 73, 90
1, 122640, Note_off_c, 0, 73, 0
1, 122640, Note_on_c, 0, 81, 90
1, 122880, Note_off_c, 0, 81, 0
1, 122880, Note_on_c, 0, 76, 90
1, 123600, Note_off_c, 0, 76, 0
1, 123600, Note_on_c, 0, 73, 90
1, 123840, Note_off_c, 0, 73, 0
1, 123840, Note_on_c, 0, 69, 90
1, 124080, Note_off_c, 0, 69, 0
1, 124080, Note_on_c, 0, 73, 90
1, 124320, Note_off_c, 0, 73, 0
1, 124320, Note_on_c, 0, 76, 90
1, 124560, Note_off_c, 0, 76, 0
1, 124560, Note_on_c, 0, 81, 90
1, 124800, Note_off_c, 0, 81, 0
1, 124800, Tempo, 306122
1, 124800, Note_on_c, 0, 79, 90
1, 125280, Note_off_c, 0, 79, 0
1, 125280, Note_on_c, 0, 76, 90
1, 125520, Note_off_c, 0, 76, 0
1, 125520, Note_on_c, 0, 72, 90
1, 125760, Note_off_c, 0, 72, 0
1, 125760, Note_on_c, 0, 73, 90
1, 126240, Note_off_c, 0, 73, 0
1, 126240, Note_on_c, 0, 76, 90
1, 126480, Note_off_c, 0, 76, 0
1, 126480, Note_on_c, 0, 73, 90
1, 126720, Note_off_c, 0, 73, 0
1, 126720, Note_on_c, 0, 71, 90
1, 127200, Note_off_c, 0, 71, 0
1, 127200, Note_on_c, 0, 68, 90
1, 127440, Note_off_c, 0, 68, 0
1, 127440, Note_on_c, 0, 71, 90
1, 127680, Note_off_c, 0, 71, 0
1, 127680, Note_on_c, 0, 67, 90
1, 128160, Note_off_c, 0, 67, 0
1, 128160, Note_on_c, 0, 64, 90
1, 128400, Note_off_c, 0, 64, 0
1, 128400, Note_on_c, 0, 67, 90
1, 128640, Note_off_c, 0, 67, 0
1, 128640, Note_on_c, 0, 64, 90
1, 129360, Note_off_c, 0, 64, 0
1, 129360, Note_on_c, 0, 61, 90
1, 129600, Note_off_c, 0, 61, 0
1, 129600, Note_on_c, 0, 57, 90
1, 129840, Note_off_c, 0, 57, 0
1, 129840, Note_on_c, 0, 61, 90
1, 130080, Note_off_c, 0, 61, 0
1, 130080, Note_on_c, 0, 64, 90
1, 130320, Note_off_c, 0, 64, 0
1, 130320, Note_on_c, 0, 69, 90
1, 130560, Note_off_c, 0, 69, 0
1, 130560, Note_on_c, 0, 64, 90
1, 131280, Note_off_c, 0, 64, 0
1, 131280, Note_on_c, 0, 61, 90
1, 131520, Note_off_c, 0, 61, 0
1, 131520, Note_on_c, 0, 59, 90
1, 132000, Note_off_c, 0, 59, 0
1, 132000, Note_on_c, 0, 64, 90
1, 132240, Note_off_c, 0, 64, 0
1, 132240, Note_on_c, 0, 59, 90
1, 132480, Note_off_c, 0, 59, 0
1, 132480, Note_on_c, 0, 61, 90
1, 132720, Note_off_c, 0, 61, 0
1, 132720, Note_on_c, 0, 64, 90
1, 132960, Note_off_c, 0, 64, 0
1, 132960, Note_on_c, 0, 61, 90
1, 133440, Note_off_c, 0, 61, 0
1, 134400, Tempo, 300000
1, 136320, Note_on_c, 0, 73, 90
1, 137040, Note_off_c, 0, 73, 0
1, 137040, Note_on_c, 0, 69, 90
1, 137280, Note_off_c, 0, 69, 0
1, 137280, Note_on_c, 0, 73, 90
1, 137520, Note_off_c, 0, 73, 0
1, 137520, Note_on_c, 0, 76, 90
1, 137760, Note_off_c, 0, 76, 0
1, 137760, Note_on_c, 0, 81, 90
1, 138000, Note_off_c, 0, 81, 0
1, 138000, Note_on_c, 0, 85, 90
1, 138240, Note_off_c, 0, 85, 0
1, 138240, Note_on_c, 0, 81, 90
1, 138960, Note_off_c, 0, 81, 0
1, 138960, Note_on_c, 0, 76, 90
1, 139200, Note_off_c, 0, 76, 0
1, 139200, Note_on_c, 0, 81, 90
1, 139680, Note_off_c, 0, 81, 0
1, 139680, Note_on_c, 0, 76, 90
1, 139920, Note_off_c, 0, 76, 0
1, 139920, Note_on_c, 0, 85, 90
1, 140160, Note_off_c, 0, 85, 0
1, 140160, Note_on_c, 0, 81, 90
1, 140640, Note_off_c, 0, 81, 0
1, 140640, Note_on_c, 0, 76, 90
1, 140880, Note_off_c, 0, 76, 0
1, 140880, Note_on_c, 0, 69, 90
1, 141120, Note_off_c, 0, 69, 0
1, 141120, Note_on_c, 0, 73, 90
1, 141360, Note_off_c, 0, 73, 0
1, 141360, Note_on_c, 0, 76, 90
1, 141600, Note_off_c, 0, 76, 0
1, 141600, Note_on_c, 0, 81, 90
1, 141840, Note_off_c, 0, 81, 0
1, 141840, Note_on_c, 0, 85, 90
1, 142080, Note_off_c, 0, 85, 0
1, 142080, Note_on_c, 0, 81, 90
1, 142560, Note_off_c, 0, 81, 0
1, 142560, Note_on_c, 0, 76, 90
1, 142800, Note_off_c, 0, 76, 0
1, 142800, Note_on_c, 0, 69, 90
1, 143040, Note_off_c, 0, 69, 0
1, 143040, Note_on_c, 0, 73, 90
1, 143280, Note_off_c, 0, 73, 0
1, 143280, Note_on_c, 0, 76, 90
1, 143520, Note_off_c, 0, 76, 0
1, 143520, Note_on_c, 0, 81, 90
1, 143760, Note_off_c, 0, 81, 0
1, 143760, Note_on_c, 0, 85, 90
1, 144000, Note_off_c, 0, 85, 0
1, 144000, Note_on_c, 0, 86, 90
1, 144240, Note_off_c, 0, 86, 0
1, 144240, Note_on_c, 0, 81, 90
1, 144480, Note_off_c, 0, 81, 0
1, 144480, Note_on_c, 0, 78, 90
1, 145680, Note_off_c, 0, 78, 0
1, 145680, Note_on_c, 0, 74, 90
1, 145920, Note_off_c, 0, 74, 0
1, 145920, Note_on_c, 0, 78, 90
1, 146640, Note_off_c, 0, 78, 0
1, 146640, Note_on_c, 0, 81, 90
1, 146880, Note_off_c, 0, 81, 0
1, 146880, Note_on_c, 0, 78, 90
1, 147120, Note_off_c, 0, 78, 0
1, 147120, Note_on_c, 0, 81, 90
1, 147840, Note_off_c, 0, 81, 0
1, 147840, Note_on_c, 0, 78, 90
1, 148080, Note_off_c, 0, 78, 0
1, 148080, Note_on_c, 0, 86, 90
1, 149040, Note_off_c, 0, 86, 0
1, 149040, Note_on_c, 0, 81, 90
1, 149280, Note_off_c, 0, 81, 0
1, 149280, Note_on_c, 0, 78, 90
1, 149520, Note_off_c, 0, 78, 0
1, 149520, Note_on_c, 0, 81, 90
1, 149760, Note_off_c, 0, 81, 0
1, 149760, Note_on_c, 0, 76, 90
1, 150480, Note_off_c, 0, 76, 0
1, 150480, Note_on_c, 0, 73, 90
1, 150720, Note_off_c, 0, 73, 0
1, 150720, Note_on_c, 0, 69, 90
1, 150960, Note_off_c, 0, 69, 0
1, 150960, Note_on_c, 0, 73, 90
1, 151200, Note_off_c, 0, 73, 0
1, 151200, Note_on_c, 0, 76, 90
1, 151440, Note_off_c, 0, 76, 0
1, 151440, Note_on_c, 0, 81, 90
1, 151680, Note_off_c, 0, 81, 0
1, 151680, Note_on_c, 0, 76, 90
1, 152400, Note_off_c, 0, 76, 0
1, 152400, Note_on_c, 0, 73, 90
1, 152640, Note_off_c, 0, 73, 0
1, 152640, Note_on_c, 0, 76, 90
1, 153120, Note_off_c, 0, 76, 0
1, 153120, Note_on_c, 0, 73, 90
1, 153360, Note_off_c, 0, 73, 0
1, 153360, Note_on_c, 0, 81, 90
1, 153600, Note_off_c, 0, 81, 0
1, 153600, Note_on_c, 0, 76, 90
1, 154080, Note_off_c, 0, 76, 0
1, 154080, Note_on_c, 0, 73, 90
1, 154320, Note_off_c, 0, 73, 0
1, 154320, Note_on_c, 0, 64, 90
1, 154560, Note_off_c, 0, 64, 0
1, 154560, Note_on_c, 0, 69, 90
1, 154800, Note_off_c, 0, 69, 0
1, 154800, Note_on_c, 0, 73, 90
1, 155040, Note_off_c, 0, 73, 0
1, 155040, Note_on_c, 0, 76, 90
1, 155280, Note_off_c, 0, 76, 0
1, 155280, Note_on_c, 0, 81, 90
1, 155520, Note_off_c, 0, 81, 0
1, 155520, Tempo, 306122
1, 155520, Note_on_c, 0, 76, 90
1, 156240, Note_off_c, 0, 76, 0
1, 156240, Note_on_c, 0, 73, 90
1, 156480, Note_off_c, 0, 73, 0
1, 156480, Note_on_c, 0, 69, 90
1, 156720, Note_off_c, 0, 69, 0
1, 156720, Note_on_c, 0, 73, 90
1, 156960, Note_off_c, 0, 73, 0
1, 156960, Note_on_c, 0, 76, 90
1, 157200, Note_off_c, 0, 76, 0
1, 157200, Note_on_c, 0, 81, 90
1, 157440, Note_off_c, 0, 81, 0
1, 157440, Tempo, 300000
1, 157440, Note_on_c, 0, 79, 90
1, 157680, Note_off_c, 0, 79, 0
1, 157680, Note_on_c, 0, 76, 90
1, 157920, Note_off_c, 0, 76, 0
1, 157920, Note_on_c, 0, 79, 90
1, 158640, Note_off_c, 0, 79, 0
1, 158640, Note_on_c, 0, 76, 90
1, 158880, Note_off_c, 0, 76, 0
1, 158880, Note_on_c, 0, 79, 90
1, 159360, Note_off_c, 0, 79, 0
1, 159360, Tempo, 306122
1, 159360, Note_on_c, 0, 76, 90
1, 159600, Note_off_c, 0, 76, 0
1, 159600, Note_on_c, 0, 81, 90
1, 159840, Note_off_c, 0, 81, 0
1, 159840, Note_on_c, 0, 76, 90
1, 160800, Note_off_c, 0, 76, 0
1, 160800, Note_on_c, 0, 81, 90
1, 161280, Note_off_c, 0, 81, 0
1, 161280, Tempo, 300000
1, 161280, Note_on_c, 0, 80, 90
1, 161520, Note_off_c, 0, 80, 0
1, 161520, Note_on_c, 0, 77, 90
1, 161760, Note_off_c, 0, 77, 0
1, 161760, Note_on_c, 0, 80, 90
1, 162720, Note_off_c, 0, 80, 0
1, 162720, Note_on_c, 0, 82, 90
1, 163200, Tempo, 306122
1, 163920, Note_off_c, 0, 82, 0
1, 163920, Note_on_c, 0, 73, 90
1, 164160, Note_off_c, 0, 73, 0
1, 164160, Note_on_c, 0, 78, 90
1, 164400, Note_off_c, 0, 78, 0
1, 164400, Note_on_c, 0, 82, 90
1, 164640, Note_off_c, 0, 82, 0
1, 164640, Note_on_c, 0, 85, 90
1, 164880, Note_off_c, 0, 85, 0
1, 164880, Note_on_c, 0, 90, 90
1, 165120, Note_off_c, 0, 90, 0
1, 165120, Note_on_c, 0, 85, 90
1, 165840, Note_off_c, 0, 85, 0
1, 165840, Note_on_c, 0, 90, 90
1, 166080, Note_off_c, 0, 90, 0
1, 166080, Note_on_c, 0, 86, 90
1, 166320, Note_off_c, 0, 86, 0
1, 166320, Note_on_c, 0, 81, 90
1, 166560, Note_off_c, 0, 81, 0
1, 166560, Note_on_c, 0, 78, 90
1, 166800, Note_off_c, 0, 78, 0
1, 166800, Note_on_c, 0, 74, 90
1, 167040, Note_off_c, 0, 74, 0
1, 167040, Tempo, 300000
1, 167040, Note_on_c, 0, 73, 90
1, 167760, Note_off_c, 0, 73, 0
1, 167760, Note_on_c, 0, 78, 90
1, 168000, Note_off_c, 0, 78, 0
1, 168000, Note_on_c, 0, 74, 90
1, 168480, Note_off_c, 0, 74, 0
1, 168480, Note_on_c, 0, 69, 90
1, 169680, Note_off_c, 0, 69, 0
1, 169680, Note_on_c, 0, 64, 90
1, 169920, Note_off_c, 0, 64, 0
1, 169920, Note_on_c, 0, 69, 90
1, 170160, Note_off_c, 0, 69, 0
1, 170160, Note_on_c, 0, 73, 90
1, 170400, Note_off_c, 0, 73, 0
1, 170400, Note_on_c, 0, 76, 90
1, 170640, Note_off_c, 0, 76, 0
1, 170640, Note_on_c, 0, 81, 90
1, 170880, Note_off_c, 0, 81, 0
1, 170880, Note_on_c, 0, 76, 90
1, 171600, Note_off_c, 0, 76, 0
1, 171600, Note_on_c, 0, 73, 90
1, 171840, Note_off_c, 0, 73, 0
1, 171840, Note_on_c, 0, 69, 90
1, 172080, Note_off_c, 0, 69, 0
1, 172080, Note_on_c, 0, 73, 90
1, 172320, Note_off_c, 0, 73, 0
1, 172320, Note_on_c, 0, 76, 90
1, 172560, Note_off_c, 0, 76, 0
1, 172560, Note_on_c, 0, 81, 90
1, 172800, Note_off_c, 0, 81, 0
1, 172800, Note_on_c, 0, 76, 90
1, 173040, Note_off_c, 0, 76, 0
1, 173040, Note_on_c, 0, 71, 90
1, 173280, Note_off_c, 0, 71, 0
1, 173280, Note_on_c, 0, 76, 90
1, 174960, Note_off_c, 0, 76, 0
1, 174960, Note_on_c, 0, 81, 90
1, 175200, Note_off_c, 0, 81, 0
1, 175200, Note_on_c, 0, 76, 90
1, 176640, Tempo, 306122
1, 177120, Note_off_c, 0, 76, 0
1, 177120, Note_on_c, 0, 73, 90
1, 177600, Note_off_c, 0, 73, 0
1, 177600, Note_on_c, 0, 76, 90
1, 178080, Note_off_c, 0, 76, 0
1, 178080, Note_on_c, 0, 73, 90
1, 178560, Note_off_c, 0, 73, 0
1, 178560, Note_on_c, 0, 76, 90
1, 178800, Note_off_c, 0, 76, 0
1, 178800, Note_on_c, 0, 81, 90
1, 179040, Note_off_c, 0, 81, 0
1, 179040, Note_on_c, 0, 76, 90
1, 180960, Note_off_c, 0, 76, 0
1, 180960, Note_on_c, 0, 73, 90
1, 181440, Note_off_c, 0, 73, 0
1, 181440, Note_on_c, 0, 76, 90
1, 181920, Note_off_c, 0, 76, 0
1, 181920, Note_on_c, 0, 73, 90
1, 182400, Note_off_c, 0, 73, 0
1, 182400, Note_on_c, 0, 76, 90
1, 183120, Note_off_c, 0, 76, 0
1, 183120, Note_on_c, 0, 73, 90
1, 183360, Note_off_c, 0, 73, 0
1, 183360, Note_on_c, 0, 69, 90
1, 183600, Note_off_c, 0, 69, 0
1, 183600, Note_on_c, 0, 73, 90
1, 183840, Note_off_c, 0, 73, 0
1, 183840, Note_on_c, 0, 76, 90
1, 184080, Note_off_c, 0, 76, 0
1, 184080, Note_on_c, 0, 81, 90
1, 184320, Note_off_c, 0, 81, 0
1, 184320, Tempo, 324324
1, 184320, Note_on_c, 0, 76, 90
1, 185040, Note_off_c, 0, 76, 0
1, 185040, Note_on_c, 0, 73, 90
1, 185280, Note_off_c, 0, 73, 0
1, 185280, Note_on_c, 0, 76, 90
1, 185760, Note_off_c, 0, 76, 0
1, 185760, Note_on_c, 0, 73, 90
1, 186000, Note_off_c, 0, 73, 0
1, 186000, Note_on_c, 0, 81, 90
1, 186240, Note_off_c, 0, 81, 0
1, 186240, Tempo, 363636
1, 186240, Note_on_c, 0, 76, 90
1, 186720, Note_off_c, 0, 76, 0
1, 186720, Note_on_c, 0, 73, 90
1, 186960, Note_off_c, 0, 73, 0
1, 186960, Note_on_c, 0, 64, 90
1, 187200, Note_off_c, 0, 64, 0
1, 187200, Note_on_c, 0, 69, 90
1, 187440, Note_off_c, 0, 69, 0
1, 187440, Note_on_c, 0, 73, 90
1, 187680, Note_off_c, 0, 73, 0
1, 187680, Note_on_c, 0, 76, 90
1, 187920, Note_off_c, 0, 76, 0
1, 187920, Note_on_c, 0, 81, 90
1, 188160, Note_off_c, 0, 81, 0
1, 188160, Tempo, 571428
1, 188160, Note_on_c, 0, 76, 90
1, 189960, Note_off_c, 0, 76, 0
1, 192000, Tempo, 300000
1, 192000, Key_signature, 0, "major"
1, 192000, End_track
0, 0, End_of_file