0, 0, Header, 1, 12, 384
1, 0, Start_track
1, 0, Time_signature, 4, 2, 96, 8
1, 0, Sequencer_specific, 03, 00, 00, 41
1, 0, Tempo, 500000
1, 0, End_track
2, 0, Start_track
2, 0, Title_t, " "
2, 0, Control_c, 0, 0, 0
2, 0, Program_c, 0, 0
2, 0, Key_signature, 0, "major"
2, 0, Control_c, 0, 7, 125
2, 6896, Note_on_c, 0, 69, 74
2, 7656, Note_off_c, 0, 69, 0
2, 7656, Note_on_c, 0, 74, 79
2, 8416, Note_off_c, 0, 74, 0
2, 8416, Note_on_c, 0, 72, 77
2, 9176, Note_off_c, 0, 72, 0
2, 9176, Note_on_c, 0, 69, 74
2, 9940, Note_off_c, 0, 69, 0
2, 9940, Note_on_c, 0, 68, 74
2, 10656, Note_off_c, 0, 68, 0
2, 10712, Note_on_c, 0, 69, 73
2, 11064, Note_off_c, 0, 69, 0
2, 11076, Note_on_c, 0, 71, 75
2, 11428, Note_off_c, 0, 71, 0
2, 11436, Note_on_c, 0, 72, 77
2, 12372, Note_off_c, 0, 72, 0
2, 12400, Note_on_c, 0, 74, 76
2, 12552, Note_off_c, 0, 74, 0
2, 12576, Note_on_c, 0, 72, 74
2, 12732, Note_off_c, 0, 72, 0
2, 12760, Note_on_c, 0, 70, 73
2, 12912, Note_off_c, 0, 70, 0
2, 12940, Note_on_c, 0, 69, 72
2, 13096, Note_off_c, 0, 69, 0
2, 13120, Note_on_c, 0, 62, 66
2, 13276, Note_off_c, 0, 62, 0
2, 13300, Note_on_c, 0, 74, 78
2, 14072, Note_off_c, 0, 74, 0
2, 14080, Note_on_c, 0, 73, 77
2, 14424, Note_off_c, 0, 73, 0
2, 14484, Note_on_c, 0, 74, 76
2, 14640, Note_off_c, 0, 74, 0
2, 14664, Note_on_c, 0, 69, 72
2, 14820, Note_off_c, 0, 69, 0
2, 14844, Note_on_c, 0, 72, 76
2, 15372, Note_off_c, 0, 72, 0
2, 15396, Note_on_c, 0, 69, 72
2, 15552, Note_off_c, 0, 69, 0
2, 15576, Note_on_c, 0, 70, 75
2, 16060, Note_off_c, 0, 70, 0
2, 16120, Note_on_c, 0, 64, 67
2, 16276, Note_off_c, 0, 64, 0
2, 16300, Note_on_c, 0, 69, 73
2, 17504, Note_off_c, 0, 69, 0
2, 17564, Note_on_c, 0, 72, 77
2, 17872, Note_off_c, 0, 72, 0
2, 17924, Note_on_c, 0, 71, 76
2, 18080, Note_off_c, 0, 71, 0
2, 18104, Note_on_c, 0, 72, 77
2, 18968, Note_off_c, 0, 72, 0
2, 19032, Note_on_c, 0, 60, 64
2, 19184, Note_off_c, 0, 60, 0
2, 19212, Note_on_c, 0, 72, 76
2, 19740, Note_off_c, 0, 72, 0
2, 19764, Note_on_c, 0, 69, 72
2, 19920, Note_off_c, 0, 69, 0
2, 19944, Note_on_c, 0, 71, 76
2, 20660, Note_off_c, 0, 71, 0
2, 20720, Note_on_c, 0, 69, 72
2, 20872, Note_off_c, 0, 69, 0
2, 20900, Note_on_c, 0, 68, 71
2, 21056, Note_off_c, 0, 68, 0
2, 21080, Note_on_c, 0, 69, 74
2, 21812, Note_off_c, 0, 69, 0
2, 21812, Note_on_c, 0, 71, 76
2, 22500, Note_off_c, 0, 71, 0
2, 22560, Note_on_c, 0, 72, 76
2, 22912, Note_off_c, 0, 72, 0
2, 22920, Note_on_c, 0, 74, 78
2, 23224, Note_off_c, 0, 74, 0
2, 23280, Note_on_c, 0, 67, 70
2, 23436, Note_off_c, 0, 67, 0
2, 23460, Note_on_c, 0, 70, 73
2, 23616, Note_off_c, 0, 70, 0
2, 23640, Note_on_c, 0, 69, 73
2, 24172, Note_off_c, 0, 69, 0
2, 24196, Note_on_c, 0, 70, 73
2, 24352, Note_off_c, 0, 70, 0
2, 24376, Note_on_c, 0, 69, 72
2, 24532, Note_off_c, 0, 69, 0
2, 24556, Note_on_c, 0, 67, 72
2, 24872, Note_off_c, 0, 67, 0
2, 24928, Note_on_c, 0, 64, 67
2, 25084, Note_off_c, 0, 64, 0
2, 25108, Note_on_c, 0, 65, 68
2, 25264, Note_off_c, 0, 65, 0
2, 25288, Note_on_c, 0, 62, 66
2, 25444, Note_off_c, 0, 62, 0
2, 25472, Note_on_c, 0, 70, 75
2, 26324, Note_off_c, 0, 70, 0
2, 26384, Note_on_c, 0, 67, 70
2, 26552, Note_off_c, 0, 67, 0
2, 26576, Note_on_c, 0, 69, 73
2, 26928, Note_off_c, 0, 69, 0
2, 26936, Note_on_c, 0, 74, 79
2, 27780, Note_off_c, 0, 74, 0
2, 27840, Note_on_c, 0, 71, 74
2, 28008, Note_off_c, 0, 71, 0
2, 28032, Note_on_c, 0, 72, 76
2, 28384, Note_off_c, 0, 72, 0
2, 28392, Note_on_c, 0, 77, 82
2, 29236, Note_off_c, 0, 77, 0
2, 29296, Note_on_c, 0, 74, 76
2, 29464, Note_off_c, 0, 74, 0
2, 29488, Note_on_c, 0, 76, 80
2, 29840, Note_off_c, 0, 76, 0
2, 29848, Note_on_c, 0, 69, 73
2, 30200, Note_off_c, 0, 69, 0
2, 30208, Note_on_c, 0, 74, 79
2, 30692, Note_off_c, 0, 74, 0
2, 30752, Note_on_c, 0, 71, 74
2, 30908, Note_off_c, 0, 71, 0
2, 30932, Note_on_c, 0, 72, 76
2, 31284, Note_off_c, 0, 72, 0
2, 31292, Note_on_c, 0, 65, 70
2, 31644, Note_off_c, 0, 65, 0
2, 31656, Note_on_c, 0, 70, 74
2, 32004, Note_off_c, 0, 70, 0
2, 32016, Note_on_c, 0, 69, 74
2, 32676, Note_off_c, 0, 69, 0
2, 32736, Note_on_c, 0, 62, 68
2, 33100, Note_off_c, 0, 62, 0
2, 33108, Note_on_c, 0, 67, 73
2, 33652, Note_off_c, 0, 67, 0
2, 33652, Note_on_c, 0, 64, 67
2, 33808, Note_off_c, 0, 64, 0
2, 33832, Note_on_c, 0, 65, 68
2, 33988, Note_off_c, 0, 65, 0
2, 34012, Note_on_c, 0, 74, 76
2, 34168, Note_off_c, 0, 74, 0
2, 34192, Note_on_c, 0, 64, 70
2, 35088, Note_off_c, 0, 64, 0
2, 35148, Note_on_c, 0, 62, 66
2, 35304, Note_off_c, 0, 62, 0
2, 35328, Note_on_c, 0, 69, 73
2, 36092, Note_off_c, 0, 69, 0
2, 36100, Note_on_c, 0, 67, 72
2, 36496, Note_off_c, 0, 67, 0
2, 36504, Note_on_c, 0, 69, 74
2, 37236, Note_off_c, 0, 69, 0
2, 42376, Note_on_c, 0, 69, 74
2, 43112, Note_off_c, 0, 69, 0
2, 43112, Note_on_c, 0, 76, 81
2, 43844, Note_off_c, 0, 76, 0
2, 43844, Note_on_c, 0, 72, 77
2, 44580, Note_off_c, 0, 72, 0
2, 44580, Note_on_c, 0, 69, 74
2, 45300, Note_off_c, 0, 69, 0
2, 45300, Note_on_c, 0, 68, 74
2, 45976, Note_off_c, 0, 68, 0
2, 46036, Note_on_c, 0, 69, 73
2, 46388, Note_off_c, 0, 69, 0
2, 46396, Note_on_c, 0, 71, 75
2, 46760, Note_off_c, 0, 71, 0
2, 46768, Note_on_c, 0, 72, 77
2, 47656, Note_off_c, 0, 72, 0
2, 47684, Note_on_c, 0, 74, 76
2, 47840, Note_off_c, 0, 74, 0
2, 47864, Note_on_c, 0, 72, 74
2, 48016, Note_off_c, 0, 72, 0
2, 48044, Note_on_c, 0, 70, 73
2, 48200, Note_off_c, 0, 70, 0
2, 48224, Note_on_c, 0, 69, 73
2, 48576, Note_off_c, 0, 69, 0
2, 49308, Note_on_c, 0, 69, 74
2, 49800, Note_off_c, 0, 69, 0
2, 49860, Note_on_c, 0, 72, 74
2, 50016, Note_off_c, 0, 72, 0
2, 50040, Note_on_c, 0, 70, 73
2, 50196, Note_off_c, 0, 70, 0
2, 50220, Note_on_c, 0, 69, 72
2, 50376, Note_off_c, 0, 69, 0
2, 50400, Note_on_c, 0, 70, 73
2, 50556, Note_off_c, 0, 70, 0
2, 50584, Note_on_c, 0, 69, 72
2, 50736, Note_off_c, 0, 69, 0
2, 50764, Note_on_c, 0, 67, 70
2, 50920, Note_off_c, 0, 67, 0
2, 50944, Note_on_c, 0, 66, 69
2, 51100, Note_off_c, 0, 66, 0
2, 51124, Note_on_c, 0, 67, 73
2, 51604, Note_off_c, 0, 67, 0
2, 51664, Note_on_c, 0, 70, 73
2, 51820, Note_off_c, 0, 70, 0
2, 51844, Note_on_c, 0, 64, 70
2, 52328, Note_off_c, 0, 64, 0
2, 52388, Note_on_c, 0, 66, 69
2, 52552, Note_off_c, 0, 66, 0
2, 52580, Note_on_c, 0, 67, 73
2, 53072, Note_off_c, 0, 67, 0
2, 53132, Note_on_c, 0, 64, 67
2, 53288, Note_off_c, 0, 64, 0
2, 53312, Note_on_c, 0, 61, 67
2, 53808, Note_off_c, 0, 61, 0
2, 53864, Note_on_c, 0, 69, 72
2, 54024, Note_off_c, 0, 69, 0
2, 54048, Note_on_c, 0, 62, 68
2, 54528, Note_off_c, 0, 62, 0
2, 54588, Note_on_c, 0, 65, 68
2, 54744, Note_off_c, 0, 65, 0
2, 54768, Note_on_c, 0, 64, 70
2, 55264, Note_off_c, 0, 64, 0
2, 55320, Note_on_c, 0, 72, 74
2, 55476, Note_off_c, 0, 72, 0
2, 55504, Note_on_c, 0, 65, 71
2, 55984, Note_off_c, 0, 65, 0
2, 56044, Note_on_c, 0, 69, 72
2, 56200, Note_off_c, 0, 69, 0
2, 56224, Note_on_c, 0, 67, 73
2, 56716, Note_off_c, 0, 67, 0
2, 56776, Note_on_c, 0, 76, 78
2, 56932, Note_off_c, 0, 76, 0
2, 56960, Note_on_c, 0, 69, 74
2, 57440, Note_off_c, 0, 69, 0
2, 57500, Note_on_c, 0, 72, 74
2, 57656, Note_off_c, 0, 72, 0
2, 57680, Note_on_c, 0, 71, 76
2, 58172, Note_off_c, 0, 71, 0
2, 58232, Note_on_c, 0, 79, 81
2, 58388, Note_off_c, 0, 79, 0
2, 58412, Note_on_c, 0, 73, 78
2, 59100, Note_off_c, 0, 73, 0
2, 59160, Note_on_c, 0, 74, 79
2, 59512, Note_off_c, 0, 74, 0
2, 59520, Note_on_c, 0, 76, 81
2, 60012, Note_off_c, 0, 76, 0
2, 60072, Note_on_c, 0, 73, 75
2, 60228, Note_off_c, 0, 73, 0
2, 60252, Note_on_c, 0, 74, 78
2, 61108, Note_off_c, 0, 74, 0
2, 61168, Note_on_c, 0, 76, 78
2, 61324, Note_off_c, 0, 76, 0
2, 61348, Note_on_c, 0, 77, 79
2, 61504, Note_off_c, 0, 77, 0
2, 61528, Note_on_c, 0, 76, 78
2, 61684, Note_off_c, 0, 76, 0
2, 61708, Note_on_c, 0, 79, 83
2, 62240, Note_off_c, 0, 79, 0
2, 62264, Note_on_c, 0, 77, 79
2, 62416, Note_off_c, 0, 77, 0
2, 62444, Note_on_c, 0, 76, 78
2, 62600, Note_off_c, 0, 76, 0
2, 62624, Note_on_c, 0, 74, 76
2, 62780, Note_off_c, 0, 74, 0
2, 62804, Note_on_c, 0, 73, 75
2, 62960, Note_off_c, 0, 73, 0
2, 62984, Note_on_c, 0, 69, 72
2, 63140, Note_off_c, 0, 69, 0
2, 63164, Note_on_c, 0, 74, 78
2, 63680, Note_off_c, 0, 74, 0
2, 63704, Note_on_c, 0, 71, 74
2, 63872, Note_off_c, 0, 71, 0
2, 63900, Note_on_c, 0, 72, 77
2, 64572, Note_off_c, 0, 72, 0
2, 64632, Note_on_c, 0, 70, 74
2, 64996, Note_off_c, 0, 70, 0
2, 65004, Note_on_c, 0, 69, 73
2, 65356, Note_off_c, 0, 69, 0
2, 71536, Note_on_c, 0, 76, 81
2, 72284, Note_off_c, 0, 76, 0
2, 72284, Note_on_c, 0, 81, 87
2, 73004, Note_off_c, 0, 81, 0
2, 73004, Note_on_c, 0, 77, 82
2, 73728, Note_off_c, 0, 77, 0
2, 73728, Note_on_c, 0, 74, 79
2, 74448, Note_off_c, 0, 74, 0
2, 74448, Note_on_c, 0, 73, 78
2, 75112, Note_off_c, 0, 73, 0
2, 75172, Note_on_c, 0, 74, 78
2, 75536, Note_off_c, 0, 74, 0
2, 75544, Note_on_c, 0, 76, 80
2, 75896, Note_off_c, 0, 76, 0
2, 75904, Note_on_c, 0, 77, 82
2, 76792, Note_off_c, 0, 77, 0
2, 76820, Note_on_c, 0, 79, 81
2, 76976, Note_off_c, 0, 79, 0
2, 77000, Note_on_c, 0, 77, 79
2, 77156, Note_off_c, 0, 77, 0
2, 77180, Note_on_c, 0, 76, 78
2, 77336, Note_off_c, 0, 76, 0
2, 77360, Note_on_c, 0, 74, 79
2, 77840, Note_off_c, 0, 74, 0
2, 77904, Note_on_c, 0, 76, 78
2, 78056, Note_off_c, 0, 76, 0
2, 78084, Note_on_c, 0, 73, 77
2, 78432, Note_off_c, 0, 73, 0
2, 78444, Note_on_c, 0, 74, 76
2, 78600, Note_off_c, 0, 74, 0
2, 78624, Note_on_c, 0, 77, 79
2, 78792, Note_off_c, 0, 77, 0
2, 78816, Note_on_c, 0, 70, 75
2, 79732, Note_off_c, 0, 70, 0
2, 79732, Note_on_c, 0, 70, 73
2, 79888, Note_off_c, 0, 70, 0
2, 79912, Note_on_c, 0, 69, 72
2, 80064, Note_off_c, 0, 69, 0
2, 80092, Note_on_c, 0, 67, 70
2, 80248, Note_off_c, 0, 67, 0
2, 80272, Note_on_c, 0, 65, 71
2, 80992, Note_off_c, 0, 65, 0
2, 80992, Note_on_c, 0, 70, 75
2, 81716, Note_off_c, 0, 70, 0
2, 81716, Note_on_c, 0, 69, 74
2, 82788, Note_off_c, 0, 69, 0
2, 82800, Note_on_c, 0, 76, 81
2, 83340, Note_off_c, 0, 76, 0
2, 83340, Note_on_c, 0, 73, 75
2, 83496, Note_off_c, 0, 73, 0
2, 83520, Note_on_c, 0, 74, 76
2, 83676, Note_off_c, 0, 74, 0
2, 83700, Note_on_c, 0, 76, 78
2, 83856, Note_off_c, 0, 76, 0
2, 83880, Note_on_c, 0, 77, 79
2, 84036, Note_off_c, 0, 77, 0
2, 84064, Note_on_c, 0, 74, 76
2, 84216, Note_off_c, 0, 74, 0
2, 84240, Note_on_c, 0, 79, 85
2, 84724, Note_off_c, 0, 79, 0
2, 84784, Note_on_c, 0, 76, 78
2, 84940, Note_off_c, 0, 76, 0
2, 84964, Note_on_c, 0, 81, 83
2, 85120, Note_off_c, 0, 81, 0
2, 85144, Note_on_c, 0, 79, 81
2, 85300, Note_off_c, 0, 79, 0
2, 85324, Note_on_c, 0, 77, 79
2, 85480, Note_off_c, 0, 77, 0
2, 85504, Note_on_c, 0, 76, 78
2, 85660, Note_off_c, 0, 76, 0
2, 85684, Note_on_c, 0, 74, 76
2, 85840, Note_off_c, 0, 74, 0
2, 85868, Note_on_c, 0, 73, 75
2, 86032, Note_off_c, 0, 73, 0
2, 86060, Note_on_c, 0, 74, 76
2, 86216, Note_off_c, 0, 74, 0
2, 86240, Note_on_c, 0, 72, 74
2, 86396, Note_off_c, 0, 72, 0
2, 86420, Note_on_c, 0, 70, 73
2, 86576, Note_off_c, 0, 70, 0
2, 86600, Note_on_c, 0, 69, 72
2, 86756, Note_off_c, 0, 69, 0
2, 86780, Note_on_c, 0, 67, 73
2, 87636, Note_off_c, 0, 67, 0
2, 87696, Note_on_c, 0, 64, 67
2, 87852, Note_off_c, 0, 64, 0
2, 87876, Note_on_c, 0, 65, 68
2, 88032, Note_off_c, 0, 65, 0
2, 88056, Note_on_c, 0, 62, 66
2, 88212, Note_off_c, 0, 62, 0
2, 88236, Note_on_c, 0, 69, 74
2, 89104, Note_off_c, 0, 69, 0
2, 89160, Note_on_c, 0, 66, 69
2, 89316, Note_off_c, 0, 66, 0
2, 89344, Note_on_c, 0, 67, 70
2, 89496, Note_off_c, 0, 67, 0
2, 89524, Note_on_c, 0, 70, 73
2, 89680, Note_off_c, 0, 70, 0
2, 89704, Note_on_c, 0, 72, 77
2, 90568, Note_off_c, 0, 72, 0
2, 90632, Note_on_c, 0, 69, 72
2, 90784, Note_off_c, 0, 69, 0
2, 90812, Note_on_c, 0, 70, 73
2, 90964, Note_off_c, 0, 70, 0
2, 90992, Note_on_c, 0, 74, 76
2, 91144, Note_off_c, 0, 74, 0
2, 91172, Note_on_c, 0, 75, 79
2, 91524, Note_off_c, 0, 75, 0
2, 91532, Note_on_c, 0, 74, 78
2, 91884, Note_off_c, 0, 74, 0
2, 91892, Note_on_c, 0, 73, 77
2, 92208, Note_off_c, 0, 73, 0
2, 92264, Note_on_c, 0, 81, 86
2, 92784, Note_off_c, 0, 81, 0
2, 92808, Note_on_c, 0, 74, 76
2, 92964, Note_off_c, 0, 74, 0
2, 92988, Note_on_c, 0, 79, 85
2, 93468, Note_off_c, 0, 79, 0
2, 93528, Note_on_c, 0, 73, 75
2, 93684, Note_off_c, 0, 73, 0
2, 93712, Note_on_c, 0, 77, 81
2, 94228, Note_off_c, 0, 77, 0
2, 94252, Note_on_c, 0, 74, 76
2, 94408, Note_off_c, 0, 74, 0
2, 94432, Note_on_c, 0, 76, 81
2, 94924, Note_off_c, 0, 76, 0
2, 94984, Note_on_c, 0, 73, 75
2, 95140, Note_off_c, 0, 73, 0
2, 95164, Note_on_c, 0, 74, 78
2, 95680, Note_off_c, 0, 74, 0
2, 95708, Note_on_c, 0, 71, 74
2, 95864, Note_off_c, 0, 71, 0
2, 95888, Note_on_c, 0, 72, 77
2, 96560, Note_off_c, 0, 72, 0
2, 96620, Note_on_c, 0, 70, 75
2, 96976, Note_off_c, 0, 70, 0
2, 96984, Note_on_c, 0, 69, 74
2, 97524, Note_off_c, 0, 69, 0
2, 97524, Note_on_c, 0, 69, 72
2, 97680, Note_off_c, 0, 69, 0
2, 97704, Note_on_c, 0, 74, 76
2, 97860, Note_off_c, 0, 74, 0
2, 97884, Note_on_c, 0, 77, 79
2, 98040, Note_off_c, 0, 77, 0
2, 98064, Note_on_c, 0, 76, 78
2, 98220, Note_off_c, 0, 76, 0
2, 98244, Note_on_c, 0, 79, 81
2, 98400, Note_off_c, 0, 79, 0
2, 98424, Note_on_c, 0, 77, 79
2, 98592, Note_off_c, 0, 77, 0
2, 98616, Note_on_c, 0, 76, 78
2, 98776, Note_off_c, 0, 76, 0
2, 98800, Note_on_c, 0, 74, 79
2, 99304, Note_off_c, 0, 74, 0
2, 99364, Note_on_c, 0, 77, 81
2, 99728, Note_off_c, 0, 77, 0
2, 99736, Note_on_c, 0, 76, 78
2, 99892, Note_off_c, 0, 76, 0
2, 99916, Note_on_c, 0, 77, 79
2, 100084, Note_off_c, 0, 77, 0
2, 100108, Note_on_c, 0, 74, 76
2, 100264, Note_off_c, 0, 74, 0
2, 100288, Note_on_c, 0, 76, 81
2, 100772, Note_off_c, 0, 76, 0
2, 100832, Note_on_c, 0, 74, 76
2, 101000, Note_off_c, 0, 74, 0
2, 101024, Note_on_c, 0, 72, 74
2, 101176, Note_off_c, 0, 72, 0
2, 101204, Note_on_c, 0, 71, 74
2, 101360, Note_off_c, 0, 71, 0
2, 101384, Note_on_c, 0, 72, 77
2, 101876, Note_off_c, 0, 72, 0
2, 101936, Note_on_c, 0, 81, 83
2, 102092, Note_off_c, 0, 81, 0
2, 102120, Note_on_c, 0, 79, 81
2, 102272, Note_off_c, 0, 79, 0
2, 102296, Note_on_c, 0, 78, 80
2, 102456, Note_off_c, 0, 78, 0
2, 102480, Note_on_c, 0, 79, 81
2, 102636, Note_off_c, 0, 79, 0
2, 102660, Note_on_c, 0, 82, 85
2, 102816, Note_off_c, 0, 82, 0
2, 102840, Note_on_c, 0, 73, 77
2, 103212, Note_off_c, 0, 73, 0
2, 104372, Note_on_c, 0, 74, 78
2, 104744, Note_off_c, 0, 74, 0
2, 105904, Note_on_c, 0, 74, 79
2, 107568, Note_off_c, 0, 74, 0
2, 107592, Note_on_c, 0, 71, 74
2, 107748, Note_off_c, 0, 71, 0
2, 107772, Note_on_c, 0, 73, 77
2, 108136, Note_off_c, 0, 73, 0
2, 108148, Note_on_c, 0, 74, 79
2, 108628, Note_off_c, 0, 74, 0
2, 108688, Note_on_c, 0, 72, 74
2, 108844, Note_off_c, 0, 72, 0
2, 108868, Note_on_c, 0, 70, 75
2, 109352, Note_off_c, 0, 70, 0
2, 109408, Note_on_c, 0, 69, 72
2, 109564, Note_off_c, 0, 69, 0
2, 109592, Note_on_c, 0, 62, 68
2, 110480, Note_off_c, 0, 62, 0
2, 110504, Note_on_c, 0, 67, 70
2, 110660, Note_off_c, 0, 67, 0
2, 110684, Note_on_c, 0, 69, 72
2, 110840, Note_off_c, 0, 69, 0
2, 110864, Note_on_c, 0, 72, 76
2, 111168, Note_off_c, 0, 72, 0
2, 111224, Note_on_c, 0, 70, 73
2, 111384, Note_off_c, 0, 70, 0
2, 111408, Note_on_c, 0, 72, 74
2, 111564, Note_off_c, 0, 72, 0
2, 111588, Note_on_c, 0, 75, 77
2, 111924, Note_off_c, 0, 75, 0
2, 111948, Note_on_c, 0, 74, 76
2, 112104, Note_off_c, 0, 74, 0
2, 112128, Note_on_c, 0, 78, 80
2, 112284, Note_off_c, 0, 78, 0
2, 112308, Note_on_c, 0, 81, 86
2, 112624, Note_off_c, 0, 81, 0
2, 112680, Note_on_c, 0, 79, 83
2, 112756, Note_off_c, 0, 79, 0
2, 112772, Note_on_c, 0, 81, 85
2, 112848, Note_off_c, 0, 81, 0
2, 112860, Note_on_c, 0, 82, 85
2, 113016, Note_off_c, 0, 82, 0
2, 113040, Note_on_c, 0, 73, 75
2, 113196, Note_off_c, 0, 73, 0
2, 113220, Note_on_c, 0, 74, 79
2, 115968, Note_off_c, 0, 74, 64
2, 115968, End_track
3, 0, Start_track
3, 0, Title_t, "J.S. Bach's KDF"
3, 0, Control_c, 1, 0, 0
3, 0, Program_c, 1, 0
3, 0, Key_signature, 0, "major"
3, 672, Note_on_c, 1, 62, 68
3, 672, Control_c, 1, 7, 125
3, 1440, Note_off_c, 1, 62, 0
3, 1440, Note_on_c, 1, 69, 74
3, 2208, Note_off_c, 1, 69, 0
3, 2208, Note_on_c, 1, 65, 71
3, 2976, Note_off_c, 1, 65, 0
3, 2976, Note_on_c, 1, 62, 68
3, 3744, Note_off_c, 1, 62, 0
3, 3744, Note_on_c, 1, 61, 67
3, 4476, Note_off_c, 1, 61, 0
3, 4544, Note_on_c, 1, 62, 67
3, 4916, Note_off_c, 1, 62, 0
3, 4936, Note_on_c, 1, 64, 69
3, 5308, Note_off_c, 1, 64, 64
3, 5336, Note_on_c, 1, 65, 71
3, 6352, Note_on_c, 1, 67, 70
3, 6396, Note_off_c, 1, 65, 64
3, 6508, Note_off_c, 1, 67, 0
3, 6536, Note_on_c, 1, 65, 68
3, 6688, Note_off_c, 1, 65, 0
3, 6716, Note_on_c, 1, 64, 67
3, 6868, Note_off_c, 1, 64, 0
3, 6896, Note_on_c, 1, 62, 67
3, 7264, Note_off_c, 1, 62, 0
3, 7276, Note_on_c, 1, 64, 69
3, 7644, Note_off_c, 1, 64, 0
3, 7656, Note_on_c, 1, 65, 70
3, 8008, Note_off_c, 1, 65, 64
3, 8036, Note_on_c, 1, 67, 72
3, 8408, Note_off_c, 1, 67, 0
3, 8416, Note_on_c, 1, 69, 73
3, 8760, Note_off_c, 1, 69, 0
3, 8816, Note_on_c, 1, 57, 62
3, 8972, Note_off_c, 1, 57, 0
3, 8996, Note_on_c, 1, 59, 63
3, 9152, Note_off_c, 1, 59, 0
3, 9176, Note_on_c, 1, 60, 64
3, 9332, Note_off_c, 1, 60, 0
3, 9356, Note_on_c, 1, 57, 62
3, 9512, Note_off_c, 1, 57, 0
3, 9536, Note_on_c, 1, 65, 71
3, 10072, Note_off_c, 1, 65, 0
3, 10132, Note_on_c, 1, 59, 63
3, 10288, Note_off_c, 1, 59, 0
3, 10312, Note_on_c, 1, 64, 69
3, 10868, Note_off_c, 1, 64, 0
3, 10896, Note_on_c, 1, 65, 68
3, 11048, Note_off_c, 1, 65, 0
3, 11076, Note_on_c, 1, 64, 67
3, 11232, Note_off_c, 1, 64, 0
3, 11256, Note_on_c, 1, 62, 66
3, 11412, Note_off_c, 1, 62, 0
3, 11436, Note_on_c, 1, 64, 69
3, 11808, Note_off_c, 1, 64, 0
3, 11816, Note_on_c, 1, 66, 71
3, 12208, Note_off_c, 1, 66, 0
3, 12216, Note_on_c, 1, 67, 73
3, 13240, Note_off_c, 1, 67, 0
3, 13300, Note_on_c, 1, 65, 70
3, 13672, Note_off_c, 1, 65, 0
3, 13680, Note_on_c, 1, 64, 70
3, 14484, Note_off_c, 1, 64, 0
3, 14484, Note_on_c, 1, 62, 68
3, 14976, Note_off_c, 1, 62, 0
3, 15036, Note_on_c, 1, 64, 67
3, 15192, Note_off_c, 1, 64, 0
3, 15216, Note_on_c, 1, 65, 71
3, 15696, Note_off_c, 1, 65, 0
3, 15760, Note_on_c, 1, 62, 66
3, 15912, Note_off_c, 1, 62, 0
3, 15936, Note_on_c, 1, 67, 73
3, 16420, Note_off_c, 1, 67, 0
3, 16480, Note_on_c, 1, 67, 70
3, 16636, Note_off_c, 1, 67, 0
3, 16660, Note_on_c, 1, 65, 68
3, 16816, Note_off_c, 1, 65, 0
3, 16840, Note_on_c, 1, 64, 67
3, 16996, Note_off_c, 1, 64, 0
3, 17020, Note_on_c, 1, 62, 66
3, 17176, Note_off_c, 1, 62, 0
3, 17200, Note_on_c, 1, 61, 65
3, 17356, Note_off_c, 1, 61, 0
3, 17384, Note_on_c, 1, 62, 67
3, 17736, Note_off_c, 1, 62, 0
3, 17744, Note_on_c, 1, 67, 72
3, 18468, Note_off_c, 1, 67, 0
3, 18476, Note_on_c, 1, 60, 66
3, 18840, Note_off_c, 1, 60, 0
3, 18848, Note_on_c, 1, 65, 71
3, 19344, Note_off_c, 1, 65, 0
3, 19404, Note_on_c, 1, 64, 67
3, 19560, Note_off_c, 1, 64, 0
3, 19584, Note_on_c, 1, 65, 71
3, 20076, Note_off_c, 1, 65, 0
3, 20136, Note_on_c, 1, 56, 61
3, 20292, Note_off_c, 1, 56, 0
3, 20316, Note_on_c, 1, 64, 70
3, 21444, Note_off_c, 1, 64, 0
3, 21452, Note_on_c, 1, 62, 66
3, 21608, Note_off_c, 1, 62, 0
3, 21632, Note_on_c, 1, 60, 64
3, 21788, Note_off_c, 1, 60, 0
3, 21812, Note_on_c, 1, 62, 66
3, 21980, Note_off_c, 1, 62, 0
3, 22004, Note_on_c, 1, 65, 68
3, 22172, Note_off_c, 1, 65, 0
3, 22200, Note_on_c, 1, 64, 67
3, 22352, Note_off_c, 1, 64, 0
3, 22380, Note_on_c, 1, 62, 66
3, 22536, Note_off_c, 1, 62, 0
3, 22560, Note_on_c, 1, 60, 66
3, 22912, Note_off_c, 1, 60, 0
3, 33472, Note_on_c, 1, 62, 68
3, 34192, Note_off_c, 1, 62, 0
3, 34192, Note_on_c, 1, 69, 74
3, 34968, Note_off_c, 1, 69, 0
3, 34968, Note_on_c, 1, 65, 71
3, 35700, Note_off_c, 1, 65, 0
3, 35700, Note_on_c, 1, 62, 68
3, 36504, Note_off_c, 1, 62, 0
3, 36504, Note_on_c, 1, 61, 67
3, 37176, Note_off_c, 1, 61, 0
3, 37236, Note_on_c, 1, 62, 67
3, 37588, Note_off_c, 1, 62, 0
3, 37600, Note_on_c, 1, 64, 69
3, 37952, Note_off_c, 1, 64, 0
3, 37960, Note_on_c, 1, 65, 71
3, 38848, Note_off_c, 1, 65, 0
3, 38872, Note_on_c, 1, 67, 70
3, 39028, Note_off_c, 1, 67, 0
3, 39052, Note_on_c, 1, 65, 68
3, 39208, Note_off_c, 1, 65, 0
3, 39232, Note_on_c, 1, 64, 67
3, 39388, Note_off_c, 1, 64, 0
3, 39416, Note_on_c, 1, 62, 67
3, 39768, Note_off_c, 1, 62, 0
3, 39776, Note_on_c, 1, 67, 72
3, 40304, Note_off_c, 1, 67, 0
3, 40328, Note_on_c, 1, 64, 67
3, 40484, Note_off_c, 1, 64, 0
3, 40508, Note_on_c, 1, 65, 70
3, 40872, Note_off_c, 1, 65, 0
3, 40880, Note_on_c, 1, 64, 69
3, 41232, Note_off_c, 1, 64, 0
3, 41244, Note_on_c, 1, 69, 73
3, 41772, Note_off_c, 1, 69, 0
3, 41796, Note_on_c, 1, 66, 69
3, 41952, Note_off_c, 1, 66, 0
3, 41976, Note_on_c, 1, 67, 72
3, 42368, Note_off_c, 1, 67, 0
3, 42376, Note_on_c, 1, 66, 72
3, 42860, Note_off_c, 1, 66, 0
3, 42920, Note_on_c, 1, 74, 76
3, 43088, Note_off_c, 1, 74, 0
3, 43112, Note_on_c, 1, 68, 74
3, 43784, Note_off_c, 1, 68, 0
3, 43844, Note_on_c, 1, 69, 74
3, 44340, Note_off_c, 1, 69, 0
3, 44400, Note_on_c, 1, 57, 62
3, 44552, Note_off_c, 1, 57, 0
3, 44580, Note_on_c, 1, 60, 66
3, 44932, Note_off_c, 1, 60, 0
3, 44940, Note_on_c, 1, 57, 63
3, 45292, Note_off_c, 1, 57, 0
3, 45300, Note_on_c, 1, 62, 67
3, 45664, Note_off_c, 1, 62, 0
3, 45672, Note_on_c, 1, 65, 70
3, 46024, Note_off_c, 1, 65, 0
3, 46036, Note_on_c, 1, 64, 69
3, 46388, Note_off_c, 1, 64, 0
3, 46396, Note_on_c, 1, 62, 67
3, 46760, Note_off_c, 1, 62, 0
3, 46768, Note_on_c, 1, 60, 66
3, 47072, Note_off_c, 1, 60, 0
3, 47128, Note_on_c, 1, 69, 73
3, 47808, Note_off_c, 1, 69, 0
3, 47864, Note_on_c, 1, 62, 67
3, 48216, Note_off_c, 1, 62, 0
3, 48224, Note_on_c, 1, 64, 69
3, 48576, Note_off_c, 1, 64, 0
3, 48584, Note_on_c, 1, 69, 73
3, 49100, Note_off_c, 1, 69, 0
3, 49128, Note_on_c, 1, 67, 70
3, 49280, Note_off_c, 1, 67, 0
3, 49308, Note_on_c, 1, 65, 68
3, 49464, Note_off_c, 1, 65, 0
3, 49488, Note_on_c, 1, 64, 67
3, 49644, Note_off_c, 1, 64, 0
3, 49668, Note_on_c, 1, 62, 68
3, 51244, Note_off_c, 1, 62, 0
3, 51304, Note_on_c, 1, 62, 66
3, 51460, Note_off_c, 1, 62, 0
3, 51484, Note_on_c, 1, 67, 72
3, 52024, Note_off_c, 1, 67, 0
3, 52024, Note_on_c, 1, 67, 70
3, 52184, Note_off_c, 1, 67, 0
3, 52208, Note_on_c, 1, 60, 67
3, 52712, Note_off_c, 1, 60, 0
3, 52772, Note_on_c, 1, 57, 62
3, 52928, Note_off_c, 1, 57, 0
3, 52952, Note_on_c, 1, 58, 64
3, 53304, Note_off_c, 1, 58, 0
3, 53312, Note_on_c, 1, 57, 64
3, 54168, Note_off_c, 1, 57, 0
3, 54228, Note_on_c, 1, 53, 59
3, 54384, Note_off_c, 1, 53, 0
3, 54408, Note_on_c, 1, 55, 62
3, 54760, Note_off_c, 1, 55, 0
3, 54768, Note_on_c, 1, 60, 67
3, 55624, Note_off_c, 1, 60, 0
3, 55684, Note_on_c, 1, 57, 62
3, 55840, Note_off_c, 1, 57, 0
3, 55864, Note_on_c, 1, 59, 65
3, 56216, Note_off_c, 1, 59, 0
3, 56224, Note_on_c, 1, 64, 70
3, 57080, Note_off_c, 1, 64, 0
3, 57136, Note_on_c, 1, 61, 65
3, 57296, Note_off_c, 1, 61, 0
3, 57320, Note_on_c, 1, 62, 67
3, 57672, Note_off_c, 1, 62, 0
3, 57680, Note_on_c, 1, 67, 73
3, 58544, Note_off_c, 1, 67, 0
3, 58608, Note_on_c, 1, 69, 72
3, 58760, Note_off_c, 1, 69, 0
3, 58788, Note_on_c, 1, 70, 74
3, 59152, Note_off_c, 1, 70, 0
3, 59160, Note_on_c, 1, 69, 74
3, 60784, Note_off_c, 1, 69, 0
3, 60808, Note_on_c, 1, 65, 68
3, 60960, Note_off_c, 1, 65, 0
3, 60988, Note_on_c, 1, 67, 72
3, 61340, Note_off_c, 1, 67, 0
3, 61348, Note_on_c, 1, 69, 74
3, 61832, Note_off_c, 1, 69, 0
3, 61888, Note_on_c, 1, 70, 73
3, 62044, Note_off_c, 1, 70, 0
3, 62072, Note_on_c, 1, 69, 73
3, 62436, Note_off_c, 1, 69, 0
3, 62444, Note_on_c, 1, 67, 73
3, 63104, Note_off_c, 1, 67, 0
3, 63164, Note_on_c, 1, 65, 68
3, 63320, Note_off_c, 1, 65, 0
3, 63344, Note_on_c, 1, 62, 66
3, 63500, Note_off_c, 1, 62, 0
3, 63528, Note_on_c, 1, 69, 74
3, 64020, Note_off_c, 1, 69, 0
3, 64080, Note_on_c, 1, 67, 70
3, 64248, Note_off_c, 1, 67, 0
3, 64272, Note_on_c, 1, 66, 69
3, 64428, Note_off_c, 1, 66, 0
3, 64452, Note_on_c, 1, 62, 66
3, 64608, Note_off_c, 1, 62, 0
3, 64632, Note_on_c, 1, 67, 72
3, 65160, Note_off_c, 1, 67, 0
3, 65184, Note_on_c, 1, 64, 67
3, 65340, Note_off_c, 1, 64, 0
3, 65368, Note_on_c, 1, 65, 71
3, 65848, Note_off_c, 1, 65, 0
3, 65908, Note_on_c, 1, 62, 66
3, 66064, Note_off_c, 1, 62, 0
3, 66088, Note_on_c, 1, 67, 72
3, 66616, Note_off_c, 1, 67, 0
3, 66640, Note_on_c, 1, 64, 67
3, 66796, Note_off_c, 1, 64, 0
3, 66824, Note_on_c, 1, 69, 74
3, 67316, Note_off_c, 1, 69, 0
3, 67376, Note_on_c, 1, 65, 68
3, 67532, Note_off_c, 1, 65, 0
3, 67556, Note_on_c, 1, 70, 74
3, 68072, Note_off_c, 1, 70, 0
3, 68096, Note_on_c, 1, 67, 70
3, 68252, Note_off_c, 1, 67, 0
3, 68276, Note_on_c, 1, 69, 74
3, 68760, Note_off_c, 1, 69, 0
3, 68820, Note_on_c, 1, 65, 68
3, 68976, Note_off_c, 1, 65, 0
3, 69000, Note_on_c, 1, 67, 72
3, 69676, Note_off_c, 1, 67, 0
3, 69732, Note_on_c, 1, 65, 68
3, 69888, Note_off_c, 1, 65, 0
3, 69912, Note_on_c, 1, 62, 66
3, 70068, Note_off_c, 1, 62, 0
3, 70096, Note_on_c, 1, 69, 74
3, 70816, Note_off_c, 1, 69, 0
3, 70816, Note_on_c, 1, 74, 79
3, 71672, Note_off_c, 1, 74, 0
3, 71728, Note_on_c, 1, 73, 75
3, 71884, Note_off_c, 1, 73, 0
3, 71912, Note_on_c, 1, 71, 74
3, 72080, Note_off_c, 1, 71, 0
3, 72104, Note_on_c, 1, 73, 75
3, 72260, Note_off_c, 1, 73, 0
3, 72284, Note_on_c, 1, 74, 76
3, 72440, Note_off_c, 1, 74, 0
3, 72464, Note_on_c, 1, 69, 72
3, 72620, Note_off_c, 1, 69, 0
3, 72644, Note_on_c, 1, 76, 81
3, 73128, Note_off_c, 1, 76, 0
3, 73184, Note_on_c, 1, 69, 72
3, 73340, Note_off_c, 1, 69, 0
3, 73368, Note_on_c, 1, 74, 78
3, 73884, Note_off_c, 1, 74, 0
3, 73908, Note_on_c, 1, 65, 68
3, 74064, Note_off_c, 1, 65, 0
3, 74088, Note_on_c, 1, 70, 75
3, 74568, Note_off_c, 1, 70, 0
3, 74628, Note_on_c, 1, 64, 67
3, 74784, Note_off_c, 1, 64, 0
3, 74808, Note_on_c, 1, 69, 73
3, 75336, Note_off_c, 1, 69, 0
3, 75364, Note_on_c, 1, 67, 70
3, 75520, Note_off_c, 1, 67, 0
3, 75544, Note_on_c, 1, 65, 68
3, 75700, Note_off_c, 1, 65, 0
3, 75724, Note_on_c, 1, 64, 67
3, 75880, Note_off_c, 1, 64, 0
3, 75904, Note_on_c, 1, 62, 66
3, 76060, Note_off_c, 1, 62, 0
3, 76084, Note_on_c, 1, 69, 72
3, 76240, Note_off_c, 1, 69, 0
3, 76264, Note_on_c, 1, 74, 76
3, 76420, Note_off_c, 1, 74, 0
3, 76448, Note_on_c, 1, 70, 73
3, 76612, Note_off_c, 1, 70, 0
3, 76640, Note_on_c, 1, 67, 70
3, 76792, Note_off_c, 1, 67, 0
3, 76820, Note_on_c, 1, 64, 67
3, 76976, Note_off_c, 1, 64, 0
3, 77000, Note_on_c, 1, 72, 77
3, 77660, Note_off_c, 1, 72, 0
3, 77720, Note_on_c, 1, 70, 75
3, 78072, Note_off_c, 1, 70, 0
3, 78084, Note_on_c, 1, 69, 74
3, 78756, Note_off_c, 1, 69, 0
3, 78816, Note_on_c, 1, 67, 73
3, 79296, Note_off_c, 1, 67, 0
3, 79356, Note_on_c, 1, 65, 68
3, 79512, Note_off_c, 1, 65, 0
3, 79536, Note_on_c, 1, 64, 70
3, 80572, Note_off_c, 1, 64, 0
3, 80632, Note_on_c, 1, 62, 66
3, 80788, Note_off_c, 1, 62, 0
3, 80812, Note_on_c, 1, 61, 65
3, 80968, Note_off_c, 1, 61, 0
3, 80992, Note_on_c, 1, 62, 67
3, 81344, Note_off_c, 1, 62, 0
3, 81352, Note_on_c, 1, 67, 73
3, 82196, Note_off_c, 1, 67, 0
3, 82256, Note_on_c, 1, 65, 68
3, 82412, Note_off_c, 1, 65, 0
3, 82436, Note_on_c, 1, 64, 70
3, 82920, Note_off_c, 1, 64, 0
3, 82980, Note_on_c, 1, 64, 67
3, 83136, Note_off_c, 1, 64, 0
3, 83160, Note_on_c, 1, 69, 74
3, 84232, Note_off_c, 1, 69, 0
3, 84240, Note_on_c, 1, 67, 70
3, 84400, Note_off_c, 1, 67, 0
3, 84424, Note_on_c, 1, 70, 73
3, 84576, Note_off_c, 1, 70, 0
3, 84604, Note_on_c, 1, 69, 74
3, 85480, Note_off_c, 1, 69, 0
3, 85504, Note_on_c, 1, 67, 70
3, 85660, Note_off_c, 1, 67, 0
3, 85688, Note_on_c, 1, 65, 68
3, 85840, Note_off_c, 1, 65, 0
3, 85868, Note_on_c, 1, 64, 67
3, 86032, Note_off_c, 1, 64, 0
3, 86060, Note_on_c, 1, 62, 68
3, 87132, Note_off_c, 1, 62, 0
3, 87144, Note_on_c, 1, 64, 69
3, 87492, Note_off_c, 1, 64, 0
3, 87504, Note_on_c, 1, 57, 63
3, 87868, Note_off_c, 1, 57, 0
3, 88608, Note_on_c, 1, 63, 68
3, 88972, Note_off_c, 1, 63, 0
3, 88984, Note_on_c, 1, 62, 68
3, 90068, Note_off_c, 1, 62, 0
3, 90076, Note_on_c, 1, 66, 71
3, 90440, Note_off_c, 1, 66, 0
3, 90448, Note_on_c, 1, 67, 70
3, 90604, Note_off_c, 1, 67, 0
3, 90632, Note_on_c, 1, 66, 69
3, 90784, Note_off_c, 1, 66, 0
3, 90812, Note_on_c, 1, 67, 72
3, 91160, Note_off_c, 1, 67, 0
3, 91532, Note_on_c, 1, 70, 75
3, 92016, Note_off_c, 1, 70, 0
3, 92072, Note_on_c, 1, 69, 72
3, 92240, Note_off_c, 1, 69, 0
3, 92264, Note_on_c, 1, 77, 79
3, 92424, Note_off_c, 1, 77, 0
3, 92448, Note_on_c, 1, 74, 76
3, 92600, Note_off_c, 1, 74, 0
3, 92628, Note_on_c, 1, 71, 75
3, 92932, Note_off_c, 1, 71, 0
3, 92988, Note_on_c, 1, 76, 78
3, 93144, Note_off_c, 1, 76, 0
3, 93168, Note_on_c, 1, 73, 75
3, 93324, Note_off_c, 1, 73, 0
3, 93348, Note_on_c, 1, 69, 73
3, 93652, Note_off_c, 1, 69, 0
3, 93712, Note_on_c, 1, 74, 76
3, 93864, Note_off_c, 1, 74, 0
3, 93888, Note_on_c, 1, 69, 72
3, 94048, Note_off_c, 1, 69, 0
3, 94072, Note_on_c, 1, 70, 75
3, 94564, Note_off_c, 1, 70, 0
3, 94624, Note_on_c, 1, 67, 70
3, 94780, Note_off_c, 1, 67, 0
3, 94804, Note_on_c, 1, 69, 74
3, 95288, Note_off_c, 1, 69, 0
3, 95344, Note_on_c, 1, 65, 68
3, 95500, Note_off_c, 1, 65, 0
3, 95528, Note_on_c, 1, 64, 70
3, 96020, Note_off_c, 1, 64, 0
3, 96080, Note_on_c, 1, 67, 70
3, 96236, Note_off_c, 1, 67, 0
3, 96260, Note_on_c, 1, 66, 69
3, 96416, Note_off_c, 1, 66, 0
3, 96440, Note_on_c, 1, 62, 66
3, 96596, Note_off_c, 1, 62, 0
3, 96620, Note_on_c, 1, 67, 72
3, 97136, Note_off_c, 1, 67, 0
3, 97164, Note_on_c, 1, 64, 67
3, 97320, Note_off_c, 1, 64, 0
3, 97344, Note_on_c, 1, 65, 71
3, 97824, Note_off_c, 1, 65, 0
3, 97884, Note_on_c, 1, 74, 76
3, 98040, Note_off_c, 1, 74, 0
3, 98064, Note_on_c, 1, 72, 76
3, 98932, Note_off_c, 1, 72, 0
3, 98992, Note_on_c, 1, 72, 74
3, 99144, Note_off_c, 1, 72, 0
3, 99172, Note_on_c, 1, 70, 73
3, 99336, Note_off_c, 1, 70, 0
3, 99364, Note_on_c, 1, 69, 72
3, 99520, Note_off_c, 1, 69, 0
3, 99544, Note_on_c, 1, 68, 73
3, 99908, Note_off_c, 1, 68, 0
3, 99916, Note_on_c, 1, 69, 74
3, 100412, Note_off_c, 1, 69, 0
3, 100472, Note_on_c, 1, 64, 67
3, 100624, Note_off_c, 1, 64, 0
3, 100652, Note_on_c, 1, 69, 73
3, 101016, Note_off_c, 1, 69, 0
3, 101024, Note_on_c, 1, 65, 70
3, 101876, Note_off_c, 1, 65, 0
3, 101936, Note_on_c, 1, 72, 74
3, 102092, Note_off_c, 1, 72, 0
3, 102120, Note_on_c, 1, 69, 73
3, 102472, Note_off_c, 1, 69, 0
3, 102480, Note_on_c, 1, 67, 72
3, 103212, Note_off_c, 1, 67, 0
3, 104372, Note_on_c, 1, 69, 73
3, 104744, Note_off_c, 1, 69, 0
3, 105904, Note_on_c, 1, 71, 76
3, 106672, Note_off_c, 1, 71, 0
3, 106672, Note_on_c, 1, 69, 74
3, 107968, Note_off_c, 1, 69, 0
3, 107968, Note_on_c, 1, 67, 70
3, 108120, Note_off_c, 1, 67, 0
3, 108148, Note_on_c, 1, 66, 69
3, 108304, Note_off_c, 1, 66, 0
3, 108328, Note_on_c, 1, 67, 70
3, 108480, Note_off_c, 1, 67, 0
3, 108508, Note_on_c, 1, 69, 73
3, 109024, Note_off_c, 1, 69, 0
3, 109048, Note_on_c, 1, 67, 70
3, 109204, Note_off_c, 1, 67, 0
3, 109228, Note_on_c, 1, 72, 77
3, 109712, Note_off_c, 1, 72, 0
3, 109772, Note_on_c, 1, 66, 69
3, 109928, Note_off_c, 1, 66, 0
3, 109952, Note_on_c, 1, 67, 70
3, 110108, Note_off_c, 1, 67, 0
3, 110132, Note_on_c, 1, 70, 73
3, 110288, Note_off_c, 1, 70, 0
3, 110312, Note_on_c, 1, 63, 69
3, 110984, Note_off_c, 1, 63, 0
3, 111048, Note_on_c, 1, 62, 67
3, 111400, Note_off_c, 1, 62, 0
3, 111408, Note_on_c, 1, 57, 63
3, 111760, Note_off_c, 1, 57, 0
3, 111768, Note_on_c, 1, 58, 64
3, 112120, Note_off_c, 1, 58, 0
3, 112128, Note_on_c, 1, 60, 66
3, 112480, Note_off_c, 1, 60, 0
3, 112488, Note_on_c, 1, 62, 67
3, 112804, Note_off_c, 1, 62, 0
3, 112860, Note_on_c, 1, 55, 62
3, 113388, Note_off_c, 1, 55, 0
3, 113412, Note_on_c, 1, 70, 73
3, 113568, Note_off_c, 1, 70, 0
3, 113592, Note_on_c, 1, 69, 72
3, 113748, Note_off_c, 1, 69, 0
3, 113776, Note_on_c, 1, 67, 72
3, 114112, Note_off_c, 1, 67, 0
3, 114168, Note_on_c, 1, 66, 69
3, 114332, Note_off_c, 1, 66, 0
3, 114356, Note_on_c, 1, 64, 68
3, 114560, Note_off_c, 1, 64, 0
3, 114584, Note_on_c, 1, 67, 70
3, 114792, Note_off_c, 1, 67, 0
3, 114804, Note_on_c, 1, 66, 72
3, 115968, Note_off_c, 1, 66, 64
3, 115968, End_track
4, 0, Start_track
4, 0, Title_t, "A.G. Simonetto, \251 2002"
4, 0, Control_c, 2, 0, 0
4, 0, Program_c, 2, 0
4, 0, Key_signature, 0, "major"
4, 0, Control_c, 2, 7, 125
4, 18848, Note_on_c, 2, 57, 64
4, 19584, Note_off_c, 2, 57, 0
4, 19584, Note_on_c, 2, 62, 68
4, 20316, Note_off_c, 2, 62, 0
4, 20316, Note_on_c, 2, 60, 67
4, 21080, Note_off_c, 2, 60, 0
4, 21080, Note_on_c, 2, 57, 64
4, 21812, Note_off_c, 2, 57, 0
4, 21812, Note_on_c, 2, 56, 63
4, 22500, Note_off_c, 2, 56, 0
4, 22560, Note_on_c, 2, 57, 63
4, 22912, Note_off_c, 2, 57, 0
4, 22920, Note_on_c, 2, 59, 65
4, 23272, Note_off_c, 2, 59, 0
4, 23280, Note_on_c, 2, 60, 67
4, 24172, Note_off_c, 2, 60, 0
4, 24196, Note_on_c, 2, 62, 66
4, 24352, Note_off_c, 2, 62, 0
4, 24376, Note_on_c, 2, 60, 64
4, 24532, Note_off_c, 2, 60, 0
4, 24556, Note_on_c, 2, 58, 63
4, 24712, Note_off_c, 2, 58, 0
4, 24736, Note_on_c, 2, 57, 64
4, 25636, Note_off_c, 2, 57, 0
4, 25664, Note_on_c, 2, 53, 59
4, 25816, Note_off_c, 2, 53, 0
4, 25844, Note_on_c, 2, 55, 62
4, 26196, Note_off_c, 2, 55, 0
4, 26204, Note_on_c, 2, 60, 67
4, 27092, Note_off_c, 2, 60, 0
4, 27120, Note_on_c, 2, 57, 62
4, 27272, Note_off_c, 2, 57, 0
4, 27300, Note_on_c, 2, 59, 65
4, 27652, Note_off_c, 2, 59, 0
4, 27660, Note_on_c, 2, 64, 70
4, 28548, Note_off_c, 2, 64, 0
4, 28572, Note_on_c, 2, 61, 65
4, 28728, Note_off_c, 2, 61, 0
4, 28752, Note_on_c, 2, 62, 67
4, 29104, Note_off_c, 2, 62, 0
4, 29116, Note_on_c, 2, 67, 73
4, 30004, Note_off_c, 2, 67, 0
4, 30028, Note_on_c, 2, 64, 67
4, 30184, Note_off_c, 2, 64, 0
4, 30208, Note_on_c, 2, 65, 70
4, 30560, Note_off_c, 2, 65, 0
4, 30572, Note_on_c, 2, 64, 70
4, 31052, Note_off_c, 2, 64, 0
4, 31112, Note_on_c, 2, 69, 72
4, 31268, Note_off_c, 2, 69, 0
4, 31292, Note_on_c, 2, 62, 68
4, 31776, Note_off_c, 2, 62, 0
4, 31832, Note_on_c, 2, 64, 67
4, 31988, Note_off_c, 2, 64, 0
4, 32016, Note_on_c, 2, 61, 67
4, 32368, Note_off_c, 2, 61, 0
4, 32376, Note_on_c, 2, 62, 66
4, 32532, Note_off_c, 2, 62, 0
4, 32556, Note_on_c, 2, 57, 62
4, 32712, Note_off_c, 2, 57, 0
4, 32736, Note_on_c, 2, 59, 66
4, 33232, Note_off_c, 2, 59, 0
4, 33288, Note_on_c, 2, 61, 65
4, 33444, Note_off_c, 2, 61, 0
4, 33472, Note_on_c, 2, 62, 67
4, 33824, Note_off_c, 2, 62, 0
4, 33832, Note_on_c, 2, 57, 63
4, 35640, Note_off_c, 2, 57, 0
4, 35700, Note_on_c, 2, 58, 65
4, 36624, Note_off_c, 2, 58, 0
4, 36684, Note_on_c, 2, 52, 58
4, 36840, Note_off_c, 2, 52, 0
4, 36864, Note_on_c, 2, 57, 63
4, 37392, Note_off_c, 2, 57, 0
4, 37416, Note_on_c, 2, 58, 63
4, 37572, Note_off_c, 2, 58, 0
4, 37600, Note_on_c, 2, 57, 62
4, 37752, Note_off_c, 2, 57, 0
4, 37780, Note_on_c, 2, 55, 60
4, 37936, Note_off_c, 2, 55, 0
4, 37960, Note_on_c, 2, 57, 63
4, 38312, Note_off_c, 2, 57, 0
4, 38320, Note_on_c, 2, 59, 65
4, 38672, Note_off_c, 2, 59, 0
4, 38680, Note_on_c, 2, 60, 67
4, 39536, Note_off_c, 2, 60, 0
4, 39596, Note_on_c, 2, 57, 62
4, 39752, Note_off_c, 2, 57, 0
4, 39776, Note_on_c, 2, 58, 64
4, 40140, Note_off_c, 2, 58, 0
4, 40148, Note_on_c, 2, 57, 63
4, 40500, Note_off_c, 2, 57, 0
4, 40508, Note_on_c, 2, 62, 68
4, 41004, Note_off_c, 2, 62, 0
4, 41064, Note_on_c, 2, 59, 63
4, 41216, Note_off_c, 2, 59, 0
4, 41244, Note_on_c, 2, 60, 66
4, 41608, Note_off_c, 2, 60, 0
4, 41616, Note_on_c, 2, 59, 65
4, 41968, Note_off_c, 2, 59, 0
4, 41976, Note_on_c, 2, 64, 70
4, 42500, Note_off_c, 2, 64, 0
4, 42560, Note_on_c, 2, 57, 62
4, 42712, Note_off_c, 2, 57, 0
4, 42740, Note_on_c, 2, 62, 67
4, 43304, Note_off_c, 2, 62, 0
4, 43304, Note_on_c, 2, 62, 66
4, 43460, Note_off_c, 2, 62, 0
4, 43484, Note_on_c, 2, 60, 64
4, 43640, Note_off_c, 2, 60, 0
4, 43664, Note_on_c, 2, 59, 63
4, 43820, Note_off_c, 2, 59, 0
4, 43844, Note_on_c, 2, 60, 64
4, 44000, Note_off_c, 2, 60, 0
4, 44024, Note_on_c, 2, 62, 66
4, 44180, Note_off_c, 2, 62, 0
4, 44208, Note_on_c, 2, 64, 69
4, 44760, Note_off_c, 2, 64, 0
4, 44760, Note_on_c, 2, 64, 67
4, 44916, Note_off_c, 2, 64, 0
4, 44940, Note_on_c, 2, 62, 66
4, 45096, Note_off_c, 2, 62, 0
4, 45120, Note_on_c, 2, 60, 64
4, 45276, Note_off_c, 2, 60, 0
4, 45300, Note_on_c, 2, 59, 66
4, 45976, Note_off_c, 2, 59, 0
4, 46036, Note_on_c, 2, 60, 66
4, 46388, Note_off_c, 2, 60, 0
4, 46396, Note_on_c, 2, 56, 63
4, 46760, Note_off_c, 2, 56, 0
4, 46768, Note_on_c, 2, 57, 62
4, 46924, Note_off_c, 2, 57, 0
4, 46948, Note_on_c, 2, 55, 60
4, 47104, Note_off_c, 2, 55, 0
4, 47128, Note_on_c, 2, 53, 59
4, 47284, Note_off_c, 2, 53, 0
4, 47312, Note_on_c, 2, 52, 58
4, 47464, Note_off_c, 2, 52, 0
4, 47492, Note_on_c, 2, 54, 61
4, 47856, Note_off_c, 2, 54, 0
4, 47864, Note_on_c, 2, 55, 63
4, 48344, Note_off_c, 2, 55, 0
4, 48404, Note_on_c, 2, 55, 60
4, 48560, Note_off_c, 2, 55, 0
4, 48584, Note_on_c, 2, 53, 59
4, 48740, Note_off_c, 2, 53, 0
4, 48768, Note_on_c, 2, 52, 58
4, 48920, Note_off_c, 2, 52, 0
4, 48944, Note_on_c, 2, 53, 59
4, 49100, Note_off_c, 2, 53, 0
4, 49128, Note_on_c, 2, 52, 58
4, 49280, Note_off_c, 2, 52, 0
4, 49308, Note_on_c, 2, 50, 57
4, 49464, Note_off_c, 2, 50, 0
4, 49488, Note_on_c, 2, 49, 56
4, 49644, Note_off_c, 2, 49, 0
4, 49668, Note_on_c, 2, 50, 58
4, 50032, Note_off_c, 2, 50, 0
4, 58412, Note_on_c, 2, 52, 60
4, 59160, Note_off_c, 2, 52, 0
4, 59160, Note_on_c, 2, 57, 64
4, 59880, Note_off_c, 2, 57, 0
4, 59880, Note_on_c, 2, 53, 61
4, 60628, Note_off_c, 2, 53, 0
4, 60628, Note_on_c, 2, 50, 59
4, 61348, Note_off_c, 2, 50, 0
4, 61348, Note_on_c, 2, 49, 58
4, 62012, Note_off_c, 2, 49, 0
4, 62072, Note_on_c, 2, 50, 58
4, 62436, Note_off_c, 2, 50, 0
4, 62444, Note_on_c, 2, 52, 60
4, 62796, Note_off_c, 2, 52, 0
4, 62804, Note_on_c, 2, 53, 61
4, 63680, Note_off_c, 2, 53, 0
4, 63704, Note_on_c, 2, 55, 60
4, 63872, Note_off_c, 2, 55, 0
4, 63900, Note_on_c, 2, 53, 59
4, 64056, Note_off_c, 2, 53, 0
4, 64080, Note_on_c, 2, 52, 58
4, 64248, Note_off_c, 2, 52, 0
4, 64272, Note_on_c, 2, 50, 59
4, 65356, Note_off_c, 2, 50, 0
4, 65368, Note_on_c, 2, 57, 62
4, 65520, Note_off_c, 2, 57, 0
4, 65548, Note_on_c, 2, 53, 59
4, 65704, Note_off_c, 2, 53, 0
4, 65728, Note_on_c, 2, 58, 65
4, 66220, Note_off_c, 2, 58, 0
4, 66280, Note_on_c, 2, 55, 60
4, 66436, Note_off_c, 2, 55, 0
4, 66460, Note_on_c, 2, 60, 67
4, 66952, Note_off_c, 2, 60, 0
4, 67016, Note_on_c, 2, 57, 62
4, 67168, Note_off_c, 2, 57, 0
4, 67196, Note_on_c, 2, 62, 67
4, 67544, Note_off_c, 2, 62, 0
4, 67556, Note_on_c, 2, 55, 62
4, 67908, Note_off_c, 2, 55, 0
4, 67916, Note_on_c, 2, 60, 66
4, 68268, Note_off_c, 2, 60, 0
4, 68276, Note_on_c, 2, 53, 60
4, 68628, Note_off_c, 2, 53, 0
4, 68640, Note_on_c, 2, 58, 64
4, 68992, Note_off_c, 2, 58, 0
4, 69000, Note_on_c, 2, 52, 60
4, 69352, Note_off_c, 2, 52, 0
4, 69360, Note_on_c, 2, 57, 64
4, 70032, Note_off_c, 2, 57, 0
4, 70096, Note_on_c, 2, 52, 60
4, 70448, Note_off_c, 2, 52, 0
4, 70456, Note_on_c, 2, 57, 63
4, 70972, Note_off_c, 2, 57, 0
4, 70996, Note_on_c, 2, 56, 61
4, 71152, Note_off_c, 2, 56, 0
4, 71176, Note_on_c, 2, 54, 60
4, 71332, Note_off_c, 2, 54, 0
4, 71356, Note_on_c, 2, 56, 61
4, 71512, Note_off_c, 2, 56, 0
4, 71536, Note_on_c, 2, 57, 64
4, 72044, Note_off_c, 2, 57, 0
4, 72104, Note_on_c, 2, 55, 60
4, 72260, Note_off_c, 2, 55, 0
4, 72284, Note_on_c, 2, 53, 59
4, 72440, Note_off_c, 2, 53, 0
4, 72464, Note_on_c, 2, 52, 58
4, 72620, Note_off_c, 2, 52, 0
4, 72644, Note_on_c, 2, 50, 57
4, 72800, Note_off_c, 2, 50, 0
4, 72824, Note_on_c, 2, 49, 56
4, 72980, Note_off_c, 2, 49, 0
4, 73004, Note_on_c, 2, 50, 58
4, 73308, Note_off_c, 2, 50, 0
4, 73368, Note_on_c, 2, 53, 59
4, 73520, Note_off_c, 2, 53, 0
4, 73548, Note_on_c, 2, 50, 57
4, 73704, Note_off_c, 2, 50, 0
4, 73728, Note_on_c, 2, 58, 64
4, 74032, Note_off_c, 2, 58, 0
4, 74088, Note_on_c, 2, 55, 60
4, 74244, Note_off_c, 2, 55, 0
4, 74268, Note_on_c, 2, 52, 58
4, 74424, Note_off_c, 2, 52, 0
4, 74448, Note_on_c, 2, 57, 64
4, 74932, Note_off_c, 2, 57, 0
4, 74992, Note_on_c, 2, 65, 68
4, 75148, Note_off_c, 2, 65, 0
4, 75172, Note_on_c, 2, 59, 65
4, 75536, Note_off_c, 2, 59, 0
4, 75544, Note_on_c, 2, 61, 67
4, 75896, Note_off_c, 2, 61, 0
4, 75904, Note_on_c, 2, 62, 67
4, 76208, Note_off_c, 2, 62, 0
4, 76264, Note_on_c, 2, 58, 63
4, 76420, Note_off_c, 2, 58, 0
4, 76448, Note_on_c, 2, 55, 60
4, 76612, Note_off_c, 2, 55, 0
4, 76640, Note_on_c, 2, 60, 66
4, 76944, Note_off_c, 2, 60, 0
4, 77000, Note_on_c, 2, 57, 62
4, 77156, Note_off_c, 2, 57, 0
4, 77180, Note_on_c, 2, 53, 59
4, 77336, Note_off_c, 2, 53, 0
4, 77360, Note_on_c, 2, 58, 63
4, 77516, Note_off_c, 2, 58, 0
4, 77540, Note_on_c, 2, 62, 66
4, 77696, Note_off_c, 2, 62, 0
4, 77720, Note_on_c, 2, 67, 72
4, 78240, Note_off_c, 2, 67, 0
4, 78264, Note_on_c, 2, 64, 67
4, 78416, Note_off_c, 2, 64, 0
4, 78444, Note_on_c, 2, 65, 71
4, 78936, Note_off_c, 2, 65, 0
4, 78996, Note_on_c, 2, 65, 68
4, 79152, Note_off_c, 2, 65, 0
4, 79176, Note_on_c, 2, 64, 67
4, 79332, Note_off_c, 2, 64, 0
4, 79356, Note_on_c, 2, 62, 66
4, 79512, Note_off_c, 2, 62, 0
4, 79536, Note_on_c, 2, 61, 67
4, 80212, Note_off_c, 2, 61, 0
4, 80272, Note_on_c, 2, 62, 66
4, 80428, Note_off_c, 2, 62, 0
4, 80452, Note_on_c, 2, 60, 64
4, 80608, Note_off_c, 2, 60, 0
4, 80632, Note_on_c, 2, 58, 63
4, 80788, Note_off_c, 2, 58, 0
4, 80812, Note_on_c, 2, 57, 62
4, 80968, Note_off_c, 2, 57, 0
4, 80992, Note_on_c, 2, 55, 60
4, 81148, Note_off_c, 2, 55, 0
4, 81176, Note_on_c, 2, 57, 62
4, 81328, Note_off_c, 2, 57, 0
4, 81352, Note_on_c, 2, 58, 63
4, 81512, Note_off_c, 2, 58, 0
4, 81536, Note_on_c, 2, 60, 64
4, 81692, Note_off_c, 2, 60, 0
4, 81716, Note_on_c, 2, 62, 66
4, 81872, Note_off_c, 2, 62, 0
4, 81896, Note_on_c, 2, 57, 62
4, 82052, Note_off_c, 2, 57, 0
4, 82076, Note_on_c, 2, 62, 67
4, 82592, Note_off_c, 2, 62, 0
4, 82616, Note_on_c, 2, 59, 63
4, 82772, Note_off_c, 2, 59, 0
4, 82800, Note_on_c, 2, 61, 67
4, 83280, Note_off_c, 2, 61, 0
4, 83340, Note_on_c, 2, 64, 67
4, 83496, Note_off_c, 2, 64, 0
4, 83520, Note_on_c, 2, 57, 62
4, 83676, Note_off_c, 2, 57, 0
4, 83700, Note_on_c, 2, 61, 65
4, 83856, Note_off_c, 2, 61, 0
4, 83880, Note_on_c, 2, 62, 67
4, 84184, Note_off_c, 2, 62, 0
4, 84240, Note_on_c, 2, 58, 63
4, 84400, Note_off_c, 2, 58, 0
4, 84424, Note_on_c, 2, 55, 60
4, 84576, Note_off_c, 2, 55, 0
4, 84604, Note_on_c, 2, 52, 60
4, 85264, Note_off_c, 2, 52, 0
4, 85324, Note_on_c, 2, 53, 60
4, 85676, Note_off_c, 2, 53, 0
4, 85688, Note_on_c, 2, 55, 62
4, 86048, Note_off_c, 2, 55, 0
4, 86060, Note_on_c, 2, 57, 64
4, 86720, Note_off_c, 2, 57, 0
4, 86780, Note_on_c, 2, 59, 65
4, 87132, Note_off_c, 2, 59, 0
4, 87144, Note_on_c, 2, 61, 67
4, 87492, Note_off_c, 2, 61, 0
4, 87504, Note_on_c, 2, 62, 67
4, 87868, Note_off_c, 2, 62, 0
4, 88608, Note_on_c, 2, 54, 61
4, 88924, Note_off_c, 2, 54, 0
4, 88984, Note_on_c, 2, 55, 60
4, 89136, Note_off_c, 2, 55, 0
4, 89160, Note_on_c, 2, 57, 62
4, 89316, Note_off_c, 2, 57, 0
4, 89344, Note_on_c, 2, 58, 64
4, 89696, Note_off_c, 2, 58, 0
4, 90076, Note_on_c, 2, 60, 66
4, 90440, Note_off_c, 2, 60, 0
4, 90448, Note_on_c, 2, 62, 68
4, 91328, Note_off_c, 2, 62, 0
4, 91352, Note_on_c, 2, 55, 63
4, 91656, Note_off_c, 2, 55, 0
4, 91712, Note_on_c, 2, 53, 61
4, 91868, Note_off_c, 2, 53, 0
4, 91892, Note_on_c, 2, 52, 60
4, 92256, Note_off_c, 2, 52, 0
4, 93712, Note_on_c, 2, 53, 59
4, 93864, Note_off_c, 2, 53, 0
4, 93888, Note_on_c, 2, 50, 57
4, 94048, Note_off_c, 2, 50, 0
4, 94072, Note_on_c, 2, 55, 63
4, 94564, Note_off_c, 2, 55, 0
4, 94624, Note_on_c, 2, 49, 56
4, 94780, Note_off_c, 2, 49, 0
4, 94804, Note_on_c, 2, 53, 61
4, 95288, Note_off_c, 2, 53, 0
4, 95344, Note_on_c, 2, 50, 57
4, 95500, Note_off_c, 2, 50, 0
4, 95528, Note_on_c, 2, 57, 64
4, 96200, Note_off_c, 2, 57, 0
4, 96260, Note_on_c, 2, 50, 58
4, 96564, Note_off_c, 2, 50, 0
4, 96620, Note_on_c, 2, 62, 67
4, 97288, Note_off_c, 2, 62, 0
4, 97344, Note_on_c, 2, 57, 62
4, 97496, Note_off_c, 2, 57, 0
4, 97524, Note_on_c, 2, 53, 59
4, 97680, Note_off_c, 2, 53, 0
4, 97704, Note_on_c, 2, 58, 65
4, 98592, Note_off_c, 2, 58, 0
4, 98616, Note_on_c, 2, 55, 60
4, 98776, Note_off_c, 2, 55, 0
4, 98800, Note_on_c, 2, 57, 63
4, 99164, Note_off_c, 2, 57, 0
4, 99172, Note_on_c, 2, 62, 68
4, 100084, Note_off_c, 2, 62, 0
4, 100108, Note_on_c, 2, 59, 63
4, 100264, Note_off_c, 2, 59, 0
4, 100288, Note_on_c, 2, 60, 66
4, 100640, Note_off_c, 2, 60, 0
4, 100652, Note_on_c, 2, 65, 71
4, 101552, Note_off_c, 2, 65, 0
4, 101576, Note_on_c, 2, 62, 66
4, 101732, Note_off_c, 2, 62, 0
4, 101756, Note_on_c, 2, 63, 68
4, 102108, Note_off_c, 2, 63, 0
4, 102120, Note_on_c, 2, 62, 68
4, 102840, Note_off_c, 2, 62, 0
4, 102840, Note_on_c, 2, 64, 69
4, 103212, Note_off_c, 2, 64, 0
4, 104372, Note_on_c, 2, 65, 70
4, 104744, Note_off_c, 2, 65, 0
4, 105904, Note_on_c, 2, 65, 71
4, 106992, Note_off_c, 2, 65, 0
4, 107052, Note_on_c, 2, 64, 67
4, 107208, Note_off_c, 2, 64, 0
4, 107232, Note_on_c, 2, 62, 66
4, 107388, Note_off_c, 2, 62, 0
4, 107412, Note_on_c, 2, 64, 69
4, 107764, Note_off_c, 2, 64, 0
4, 108148, Note_on_c, 2, 57, 64
4, 108868, Note_off_c, 2, 57, 0
4, 108868, Note_on_c, 2, 62, 68
4, 109592, Note_off_c, 2, 62, 0
4, 109592, Note_on_c, 2, 58, 65
4, 110312, Note_off_c, 2, 58, 0
4, 110312, Note_on_c, 2, 55, 63
4, 111048, Note_off_c, 2, 55, 0
4, 111048, Note_on_c, 2, 54, 62
4, 111708, Note_off_c, 2, 54, 0
4, 111768, Note_on_c, 2, 55, 62
4, 112120, Note_off_c, 2, 55, 0
4, 112128, Note_on_c, 2, 57, 63
4, 112480, Note_off_c, 2, 57, 0
4, 112488, Note_on_c, 2, 58, 65
4, 113388, Note_off_c, 2, 58, 0
4, 113412, Note_on_c, 2, 62, 66
4, 113568, Note_off_c, 2, 62, 0
4, 113592, Note_on_c, 2, 60, 64
4, 113748, Note_off_c, 2, 60, 0
4, 113776, Note_on_c, 2, 58, 63
4, 113928, Note_off_c, 2, 58, 0
4, 113952, Note_on_c, 2, 57, 64
4, 115968, Note_off_c, 2, 57, 64
4, 115968, End_track
5, 0, Start_track
5, 0, Title_t, " "
5, 0, Control_c, 3, 0, 0
5, 0, Program_c, 3, 0
5, 0, Key_signature, 0, "major"
5, 0, Control_c, 3, 7, 125
5, 12940, Note_on_c, 3, 50, 59
5, 13680, Note_off_c, 3, 50, 0
5, 13680, Note_on_c, 3, 57, 64
5, 14484, Note_off_c, 3, 57, 0
5, 14484, Note_on_c, 3, 53, 61
5, 15216, Note_off_c, 3, 53, 0
5, 15216, Note_on_c, 3, 50, 59
5, 15936, Note_off_c, 3, 50, 0
5, 15936, Note_on_c, 3, 49, 58
5, 16600, Note_off_c, 3, 49, 0
5, 16660, Note_on_c, 3, 50, 58
5, 17012, Note_off_c, 3, 50, 0
5, 17020, Note_on_c, 3, 52, 60
5, 17376, Note_off_c, 3, 52, 0
5, 17384, Note_on_c, 3, 53, 61
5, 18272, Note_off_c, 3, 53, 0
5, 18296, Note_on_c, 3, 55, 60
5, 18452, Note_off_c, 3, 55, 0
5, 18476, Note_on_c, 3, 53, 59
5, 18632, Note_off_c, 3, 53, 0
5, 18656, Note_on_c, 3, 52, 58
5, 18824, Note_off_c, 3, 52, 0
5, 18848, Note_on_c, 3, 50, 59
5, 19584, Note_off_c, 3, 50, 0
5, 20720, Note_on_c, 3, 45, 54
5, 20872, Note_off_c, 3, 45, 0
5, 20900, Note_on_c, 3, 47, 55
5, 21056, Note_off_c, 3, 47, 0
5, 21080, Note_on_c, 3, 48, 56
5, 21236, Note_off_c, 3, 48, 0
5, 21260, Note_on_c, 3, 45, 54
5, 21428, Note_off_c, 3, 45, 0
5, 21452, Note_on_c, 3, 53, 61
5, 21944, Note_off_c, 3, 53, 0
5, 22004, Note_on_c, 3, 47, 55
5, 22172, Note_off_c, 3, 47, 0
5, 22200, Note_on_c, 3, 52, 60
5, 22712, Note_off_c, 3, 52, 0
5, 22740, Note_on_c, 3, 53, 59
5, 22896, Note_off_c, 3, 53, 0
5, 22920, Note_on_c, 3, 52, 58
5, 23076, Note_off_c, 3, 52, 0
5, 23100, Note_on_c, 3, 50, 57
5, 23256, Note_off_c, 3, 50, 0
5, 23280, Note_on_c, 3, 52, 58
5, 23436, Note_off_c, 3, 52, 0
5, 23460, Note_on_c, 3, 55, 60
5, 23616, Note_off_c, 3, 55, 0
5, 23640, Note_on_c, 3, 54, 60
5, 23796, Note_off_c, 3, 54, 0
5, 23824, Note_on_c, 3, 57, 62
5, 23976, Note_off_c, 3, 57, 0
5, 24004, Note_on_c, 3, 55, 63
5, 24736, Note_off_c, 3, 55, 0
5, 24736, Note_on_c, 3, 50, 59
5, 25832, Note_off_c, 3, 50, 0
5, 25844, Note_on_c, 3, 52, 58
5, 26000, Note_off_c, 3, 52, 0
5, 26024, Note_on_c, 3, 50, 57
5, 26180, Note_off_c, 3, 50, 0
5, 26204, Note_on_c, 3, 52, 60
5, 26520, Note_off_c, 3, 52, 0
5, 26576, Note_on_c, 3, 53, 59
5, 26732, Note_off_c, 3, 53, 0
5, 26756, Note_on_c, 3, 52, 58
5, 26912, Note_off_c, 3, 52, 0
5, 26936, Note_on_c, 3, 54, 61
5, 27240, Note_off_c, 3, 54, 0
5, 27300, Note_on_c, 3, 55, 60
5, 27456, Note_off_c, 3, 55, 0
5, 27480, Note_on_c, 3, 54, 60
5, 27636, Note_off_c, 3, 54, 0
5, 27660, Note_on_c, 3, 56, 63
5, 27976, Note_off_c, 3, 56, 0
5, 28032, Note_on_c, 3, 57, 62
5, 28188, Note_off_c, 3, 57, 0
5, 28212, Note_on_c, 3, 56, 61
5, 28368, Note_off_c, 3, 56, 0
5, 28392, Note_on_c, 3, 57, 63
5, 28696, Note_off_c, 3, 57, 0
5, 28752, Note_on_c, 3, 58, 63
5, 28912, Note_off_c, 3, 58, 0
5, 28936, Note_on_c, 3, 57, 62
5, 29088, Note_off_c, 3, 57, 0
5, 29116, Note_on_c, 3, 59, 65
5, 29432, Note_off_c, 3, 59, 0
5, 29488, Note_on_c, 3, 60, 64
5, 29644, Note_off_c, 3, 60, 0
5, 29668, Note_on_c, 3, 59, 63
5, 29824, Note_off_c, 3, 59, 0
5, 29848, Note_on_c, 3, 61, 67
5, 30152, Note_off_c, 3, 61, 0
5, 30208, Note_on_c, 3, 62, 66
5, 30364, Note_off_c, 3, 62, 0
5, 30392, Note_on_c, 3, 56, 61
5, 30544, Note_off_c, 3, 56, 0
5, 30572, Note_on_c, 3, 57, 64
5, 31448, Note_off_c, 3, 57, 0
5, 31472, Note_on_c, 3, 53, 59
5, 31628, Note_off_c, 3, 53, 0
5, 31656, Note_on_c, 3, 55, 63
5, 32136, Note_off_c, 3, 55, 0
5, 32196, Note_on_c, 3, 52, 58
5, 32352, Note_off_c, 3, 52, 0
5, 32376, Note_on_c, 3, 53, 60
5, 32904, Note_off_c, 3, 53, 0
5, 32928, Note_on_c, 3, 50, 57
5, 33084, Note_off_c, 3, 50, 0
5, 33108, Note_on_c, 3, 52, 60
5, 33464, Note_off_c, 3, 52, 0
5, 33472, Note_on_c, 3, 50, 59
5, 34360, Note_off_c, 3, 50, 0
5, 34384, Note_on_c, 3, 47, 55
5, 34540, Note_off_c, 3, 47, 0
5, 34564, Note_on_c, 3, 49, 58
5, 34960, Note_off_c, 3, 49, 0
5, 34968, Note_on_c, 3, 50, 59
5, 35460, Note_off_c, 3, 50, 0
5, 35520, Note_on_c, 3, 48, 56
5, 35676, Note_off_c, 3, 48, 0
5, 35700, Note_on_c, 3, 46, 56
5, 36444, Note_off_c, 3, 46, 0
5, 36504, Note_on_c, 3, 45, 56
5, 37056, Note_off_c, 3, 45, 0
5, 37056, Note_on_c, 3, 43, 53
5, 37212, Note_off_c, 3, 43, 0
5, 37236, Note_on_c, 3, 41, 51
5, 37392, Note_off_c, 3, 41, 0
5, 37416, Note_on_c, 3, 43, 53
5, 37572, Note_off_c, 3, 43, 0
5, 37600, Note_on_c, 3, 41, 51
5, 37752, Note_off_c, 3, 41, 0
5, 37780, Note_on_c, 3, 40, 51
5, 37936, Note_off_c, 3, 40, 0
5, 37960, Note_on_c, 3, 38, 50
5, 38112, Note_off_c, 3, 38, 0
5, 38140, Note_on_c, 3, 41, 51
5, 38296, Note_off_c, 3, 41, 0
5, 38320, Note_on_c, 3, 40, 51
5, 38476, Note_off_c, 3, 40, 0
5, 38500, Note_on_c, 3, 38, 50
5, 38656, Note_off_c, 3, 38, 0
5, 38680, Note_on_c, 3, 45, 56
5, 39176, Note_off_c, 3, 45, 0
5, 39232, Note_on_c, 3, 41, 51
5, 39388, Note_off_c, 3, 41, 0
5, 39416, Note_on_c, 3, 46, 56
5, 39908, Note_off_c, 3, 46, 0
5, 39968, Note_on_c, 3, 43, 53
5, 40124, Note_off_c, 3, 43, 0
5, 40148, Note_on_c, 3, 50, 59
5, 40640, Note_off_c, 3, 50, 0
5, 40704, Note_on_c, 3, 53, 59
5, 40856, Note_off_c, 3, 53, 0
5, 40880, Note_on_c, 3, 57, 64
5, 41376, Note_off_c, 3, 57, 0
5, 41436, Note_on_c, 3, 45, 54
5, 41592, Note_off_c, 3, 45, 0
5, 41616, Note_on_c, 3, 52, 60
5, 41968, Note_off_c, 3, 52, 0
5, 43112, Note_on_c, 3, 52, 60
5, 43844, Note_off_c, 3, 52, 0
5, 43844, Note_on_c, 3, 57, 64
5, 44580, Note_off_c, 3, 57, 0
5, 44580, Note_on_c, 3, 53, 61
5, 45432, Note_off_c, 3, 53, 0
5, 45492, Note_on_c, 3, 53, 59
5, 45648, Note_off_c, 3, 53, 0
5, 45672, Note_on_c, 3, 52, 58
5, 45828, Note_off_c, 3, 52, 0
5, 45856, Note_on_c, 3, 50, 57
5, 46008, Note_off_c, 3, 50, 0
5, 46036, Note_on_c, 3, 48, 56
5, 46192, Note_off_c, 3, 48, 0
5, 46216, Note_on_c, 3, 50, 57
5, 46372, Note_off_c, 3, 50, 0
5, 46396, Note_on_c, 3, 48, 56
5, 46552, Note_off_c, 3, 48, 0
5, 46576, Note_on_c, 3, 47, 55
5, 46744, Note_off_c, 3, 47, 0
5, 46768, Note_on_c, 3, 45, 56
5, 47492, Note_off_c, 3, 45, 0
5, 47492, Note_on_c, 3, 50, 59
5, 48224, Note_off_c, 3, 50, 0
5, 48224, Note_on_c, 3, 49, 58
5, 48944, Note_off_c, 3, 49, 0
5, 48944, Note_on_c, 3, 45, 56
5, 49668, Note_off_c, 3, 45, 0
5, 49668, Note_on_c, 3, 42, 54
5, 50344, Note_off_c, 3, 42, 0
5, 50400, Note_on_c, 3, 43, 54
5, 50752, Note_off_c, 3, 43, 0
5, 50764, Note_on_c, 3, 45, 55
5, 51116, Note_off_c, 3, 45, 0
5, 51124, Note_on_c, 3, 46, 56
5, 52000, Note_off_c, 3, 46, 0
5, 52024, Note_on_c, 3, 48, 56
5, 52184, Note_off_c, 3, 48, 0
5, 52208, Note_on_c, 3, 46, 54
5, 52360, Note_off_c, 3, 46, 0
5, 52388, Note_on_c, 3, 45, 54
5, 52552, Note_off_c, 3, 45, 0
5, 52580, Note_on_c, 3, 43, 54
5, 53480, Note_off_c, 3, 43, 0
5, 53504, Note_on_c, 3, 40, 51
5, 53660, Note_off_c, 3, 40, 0
5, 53684, Note_on_c, 3, 41, 53
5, 54040, Note_off_c, 3, 41, 0
5, 54048, Note_on_c, 3, 46, 56
5, 54936, Note_off_c, 3, 46, 0
5, 54960, Note_on_c, 3, 43, 53
5, 55116, Note_off_c, 3, 43, 0
5, 55140, Note_on_c, 3, 45, 55
5, 55492, Note_off_c, 3, 45, 0
5, 55504, Note_on_c, 3, 50, 59
5, 56392, Note_off_c, 3, 50, 0
5, 56416, Note_on_c, 3, 47, 55
5, 56572, Note_off_c, 3, 47, 0
5, 56596, Note_on_c, 3, 48, 57
5, 56948, Note_off_c, 3, 48, 0
5, 56960, Note_on_c, 3, 53, 61
5, 57848, Note_off_c, 3, 53, 0
5, 57872, Note_on_c, 3, 50, 57
5, 58028, Note_off_c, 3, 50, 0
5, 58052, Note_on_c, 3, 52, 60
5, 58404, Note_off_c, 3, 52, 0
5, 58412, Note_on_c, 3, 45, 56
5, 58920, Note_off_c, 3, 45, 0
5, 58980, Note_on_c, 3, 55, 60
5, 59136, Note_off_c, 3, 55, 0
5, 59160, Note_on_c, 3, 53, 59
5, 59316, Note_off_c, 3, 53, 0
5, 59340, Note_on_c, 3, 52, 58
5, 59496, Note_off_c, 3, 52, 0
5, 59520, Note_on_c, 3, 50, 57
5, 59676, Note_off_c, 3, 50, 0
5, 59700, Note_on_c, 3, 49, 56
5, 59856, Note_off_c, 3, 49, 0
5, 59880, Note_on_c, 3, 50, 59
5, 60384, Note_off_c, 3, 50, 0
5, 60448, Note_on_c, 3, 41, 51
5, 60600, Note_off_c, 3, 41, 0
5, 60628, Note_on_c, 3, 46, 56
5, 61348, Note_off_c, 3, 46, 0
5, 61348, Note_on_c, 3, 45, 56
5, 63284, Note_off_c, 3, 45, 0
5, 63344, Note_on_c, 3, 46, 54
5, 63500, Note_off_c, 3, 46, 0
5, 63528, Note_on_c, 3, 45, 54
5, 63680, Note_off_c, 3, 45, 0
5, 63704, Note_on_c, 3, 43, 53
5, 63872, Note_off_c, 3, 43, 0
5, 63900, Note_on_c, 3, 45, 55
5, 64264, Note_off_c, 3, 45, 0
5, 64272, Note_on_c, 3, 46, 56
5, 64764, Note_off_c, 3, 46, 0
5, 64824, Note_on_c, 3, 43, 53
5, 64980, Note_off_c, 3, 43, 0
5, 65004, Note_on_c, 3, 50, 59
5, 66028, Note_off_c, 3, 50, 0
5, 66088, Note_on_c, 3, 52, 60
5, 66812, Note_off_c, 3, 52, 0
5, 66824, Note_on_c, 3, 53, 61
5, 67676, Note_off_c, 3, 53, 0
5, 67736, Note_on_c, 3, 50, 57
5, 67892, Note_off_c, 3, 50, 0
5, 67916, Note_on_c, 3, 52, 60
5, 68400, Note_off_c, 3, 52, 0
5, 68456, Note_on_c, 3, 49, 56
5, 68616, Note_off_c, 3, 49, 0
5, 68640, Note_on_c, 3, 50, 59
5, 69120, Note_off_c, 3, 50, 0
5, 69180, Note_on_c, 3, 47, 55
5, 69336, Note_off_c, 3, 47, 0
5, 69360, Note_on_c, 3, 49, 56
5, 69516, Note_off_c, 3, 49, 0
5, 69540, Note_on_c, 3, 45, 54
5, 69708, Note_off_c, 3, 45, 0
5, 69732, Note_on_c, 3, 50, 59
5, 70216, Note_off_c, 3, 50, 0
5, 70272, Note_on_c, 3, 48, 56
5, 70432, Note_off_c, 3, 48, 0
5, 70456, Note_on_c, 3, 47, 55
5, 70612, Note_off_c, 3, 47, 0
5, 70636, Note_on_c, 3, 45, 54
5, 70792, Note_off_c, 3, 45, 0
5, 70816, Note_on_c, 3, 47, 57
5, 71536, Note_off_c, 3, 47, 0
5, 71536, Note_on_c, 3, 45, 55
5, 71904, Note_off_c, 3, 45, 0
5, 81716, Note_on_c, 3, 50, 59
5, 82436, Note_off_c, 3, 50, 0
5, 82436, Note_on_c, 3, 57, 64
5, 83160, Note_off_c, 3, 57, 0
5, 83160, Note_on_c, 3, 53, 61
5, 83880, Note_off_c, 3, 53, 0
5, 83880, Note_on_c, 3, 50, 59
5, 84604, Note_off_c, 3, 50, 0
5, 84604, Note_on_c, 3, 49, 58
5, 85264, Note_off_c, 3, 49, 0
5, 85324, Note_on_c, 3, 50, 58
5, 85676, Note_off_c, 3, 50, 0
5, 85688, Note_on_c, 3, 52, 60
5, 86048, Note_off_c, 3, 52, 0
5, 86060, Note_on_c, 3, 53, 61
5, 86936, Note_off_c, 3, 53, 0
5, 86960, Note_on_c, 3, 55, 60
5, 87116, Note_off_c, 3, 55, 0
5, 87144, Note_on_c, 3, 53, 59
5, 87296, Note_off_c, 3, 53, 0
5, 87320, Note_on_c, 3, 52, 58
5, 87476, Note_off_c, 3, 52, 0
5, 87504, Note_on_c, 3, 50, 59
5, 88404, Note_off_c, 3, 50, 0
5, 88428, Note_on_c, 3, 51, 58
5, 88584, Note_off_c, 3, 51, 0
5, 88608, Note_on_c, 3, 50, 57
5, 88764, Note_off_c, 3, 50, 0
5, 88792, Note_on_c, 3, 48, 56
5, 88956, Note_off_c, 3, 48, 0
5, 88984, Note_on_c, 3, 46, 56
5, 89872, Note_off_c, 3, 46, 0
5, 89896, Note_on_c, 3, 48, 56
5, 90052, Note_off_c, 3, 48, 0
5, 90076, Note_on_c, 3, 46, 54
5, 90232, Note_off_c, 3, 46, 0
5, 90256, Note_on_c, 3, 45, 54
5, 90424, Note_off_c, 3, 45, 0
5, 90448, Note_on_c, 3, 43, 54
5, 91532, Note_off_c, 3, 43, 0
5, 91532, Note_on_c, 3, 43, 54
5, 91884, Note_off_c, 3, 43, 0
5, 91892, Note_on_c, 3, 45, 56
5, 94072, Note_off_c, 3, 45, 0
5, 94072, Note_on_c, 3, 45, 56
5, 95464, Note_off_c, 3, 45, 0
5, 95528, Note_on_c, 3, 45, 55
5, 95888, Note_off_c, 3, 45, 0
5, 95888, Note_on_c, 3, 45, 55
5, 96252, Note_off_c, 3, 45, 0
5, 96260, Note_on_c, 3, 46, 56
5, 96744, Note_off_c, 3, 46, 0
5, 96800, Note_on_c, 3, 43, 53
5, 96956, Note_off_c, 3, 43, 0
5, 96984, Note_on_c, 3, 50, 59
5, 97824, Note_off_c, 3, 50, 0
5, 97884, Note_on_c, 3, 46, 54
5, 98040, Note_off_c, 3, 46, 0
5, 98064, Note_on_c, 3, 48, 57
5, 98416, Note_off_c, 3, 48, 0
5, 98424, Note_on_c, 3, 53, 61
5, 99304, Note_off_c, 3, 53, 0
5, 99364, Note_on_c, 3, 50, 57
5, 99520, Note_off_c, 3, 50, 0
5, 99544, Note_on_c, 3, 52, 60
5, 99908, Note_off_c, 3, 52, 0
5, 99916, Note_on_c, 3, 57, 64
5, 100772, Note_off_c, 3, 57, 0
5, 100832, Note_on_c, 3, 53, 59
5, 101000, Note_off_c, 3, 53, 0
5, 101024, Note_on_c, 3, 55, 62
5, 101376, Note_off_c, 3, 55, 0
5, 101384, Note_on_c, 3, 60, 67
5, 102056, Note_off_c, 3, 60, 0
5, 102120, Note_on_c, 3, 60, 64
5, 102272, Note_off_c, 3, 60, 0
5, 102296, Note_on_c, 3, 57, 62
5, 102456, Note_off_c, 3, 57, 0
5, 102480, Note_on_c, 3, 58, 64
5, 103212, Note_off_c, 3, 58, 0
5, 104372, Note_on_c, 3, 57, 63
5, 104744, Note_off_c, 3, 57, 0
5, 105904, Note_on_c, 3, 56, 63
5, 106672, Note_off_c, 3, 56, 0
5, 106672, Note_on_c, 3, 57, 64
5, 107764, Note_off_c, 3, 57, 0
5, 107772, Note_on_c, 3, 45, 55
5, 108136, Note_off_c, 3, 45, 0
5, 108148, Note_on_c, 3, 50, 59
5, 115968, Note_off_c, 3, 50, 64
5, 115968, End_track
6, 0, Start_track
6, 0, Key_signature, 0, "major"
6, 0, End_track
7, 0, Start_track
7, 0, Key_signature, 0, "major"
7, 0, End_track
8, 0, Start_track
8, 0, Key_signature, 0, "major"
8, 0, End_track
9, 0, Start_track
9, 0, Key_signature, 0, "major"
9, 0, End_track
10, 0, Start_track
10, 0, Key_signature, 0, "major"
10, 0, End_track
11, 0, Start_track
11, 0, Key_signature, 0, "major"
11, 0, End_track
12, 0, Start_track
12, 1, Copyright_t, "___________________________________________________\012\012KUNSTDERFUGE.COM LARGE CLASSICAL MIDI COLLECTION\012ONCLASSICAL BY ALESSANDRO SIMONETTO, PROPRIETOR\012___________________________________________________\012\012! Attention: this file is under copyright !\012\012(c)onclassical, (c)onclassical, 2010\012___________________________________________________\012\012NO ONE MAY REPUBLISH THIS FILE WITHOUT PERMISSION\012COMMERCIAL USES OF THIS FILE IS STRICTLY PROHIBITED\012___________________________________________________\012\012Files & contributor's list: http://kunstderfuge.com/\012Terms and conditions: http://kunstderfuge.com/notes.htm"
12, 1, End_track
0, 0, End_of_file