0, 0, Header, 1, 16, 384
1, 0, Start_track
1, 0, Time_signature, 3, 2, 96, 8
1, 0, Sequencer_specific, 03, 00, 00, 41
1, 0, Sequencer_specific, 05, 00, 00, 77, 0E, 00
1, 0, Tempo, 1276595
1, 96, Tempo, 1463414
1, 192, Tempo, 1428571
1, 288, Tempo, 1395348
1, 384, Tempo, 1363636
1, 480, Tempo, 1333333
1, 576, Tempo, 1304347
1, 672, Tempo, 1276595
1, 768, Tempo, 1500000
1, 780, Tempo, 1463414
1, 792, Tempo, 1428571
1, 804, Tempo, 1395348
1, 816, Tempo, 1363636
1, 828, Tempo, 1333333
1, 840, Tempo, 1304347
1, 852, Tempo, 1276595
1, 864, Tempo, 1250000
1, 1152, Tempo, 1500000
1, 1164, Tempo, 1463414
1, 1176, Tempo, 1428571
1, 1188, Tempo, 1395348
1, 1200, Tempo, 1363636
1, 1212, Tempo, 1333333
1, 1224, Tempo, 1304347
1, 1236, Tempo, 1276595
1, 1248, Tempo, 1250000
1, 2016, Tempo, 1250000
1, 2088, Tempo, 1276595
1, 2160, Tempo, 1304347
1, 2232, Tempo, 1333333
1, 2304, Tempo, 1250000
1, 2316, Tempo, 1463414
1, 2328, Tempo, 1428571
1, 2340, Tempo, 1395348
1, 2352, Tempo, 1363636
1, 2364, Tempo, 1333333
1, 2376, Tempo, 1304347
1, 2388, Tempo, 1276595
1, 2400, Tempo, 1250000
1, 3072, Tempo, 1500000
1, 3084, Tempo, 1463414
1, 3096, Tempo, 1428571
1, 3108, Tempo, 1395348
1, 3120, Tempo, 1363636
1, 3132, Tempo, 1333333
1, 3144, Tempo, 1304347
1, 3156, Tempo, 1276595
1, 3168, Tempo, 1250000
1, 3240, Tempo, 1276595
1, 3312, Tempo, 1304347
1, 3384, Tempo, 1333333
1, 3456, Tempo, 1250000
1, 3468, Tempo, 1463414
1, 3480, Tempo, 1428571
1, 3492, Tempo, 1395348
1, 3504, Tempo, 1363636
1, 3516, Tempo, 1333333
1, 3528, Tempo, 1304347
1, 3540, Tempo, 1276595
1, 3552, Tempo, 1250000
1, 4224, Tempo, 1500000
1, 4236, Tempo, 1463414
1, 4248, Tempo, 1428571
1, 4260, Tempo, 1395348
1, 4272, Tempo, 1363636
1, 4284, Tempo, 1333333
1, 4296, Tempo, 1304347
1, 4308, Tempo, 1276595
1, 4320, Tempo, 1250000
1, 4392, Tempo, 1276595
1, 4464, Tempo, 1304347
1, 4536, Tempo, 1333333
1, 4608, Tempo, 1500000
1, 4620, Tempo, 1463414
1, 4632, Tempo, 1428571
1, 4644, Tempo, 1395348
1, 4656, Tempo, 1363636
1, 4668, Tempo, 1333333
1, 4680, Tempo, 1304347
1, 4692, Tempo, 1276595
1, 4704, Tempo, 1250000
1, 5472, Tempo, 1250000
1, 5544, Tempo, 1276595
1, 5616, Tempo, 1304347
1, 5688, Tempo, 1333333
1, 5760, Tempo, 1500000
1, 5772, Tempo, 1463414
1, 5784, Tempo, 1428571
1, 5796, Tempo, 1395348
1, 5808, Tempo, 1363636
1, 5820, Tempo, 1333333
1, 5832, Tempo, 1304347
1, 5844, Tempo, 1276595
1, 5856, Tempo, 1250000
1, 6624, Tempo, 1250000
1, 6696, Tempo, 1276595
1, 6768, Tempo, 1304347
1, 6840, Tempo, 1333333
1, 6912, Tempo, 1500000
1, 6924, Tempo, 1463414
1, 6936, Tempo, 1428571
1, 6948, Tempo, 1395348
1, 6960, Tempo, 1363636
1, 6972, Tempo, 1333333
1, 6984, Tempo, 1304347
1, 6996, Tempo, 1276595
1, 7008, Tempo, 1250000
1, 7776, Tempo, 1250000
1, 7812, Tempo, 1276595
1, 7848, Tempo, 1304347
1, 7884, Tempo, 1333333
1, 7920, Tempo, 1363636
1, 7956, Tempo, 1395348
1, 7992, Tempo, 1428571
1, 8028, Tempo, 1463414
1, 8064, Tempo, 1500000
1, 8088, Tempo, 1463414
1, 8112, Tempo, 1428571
1, 8136, Tempo, 1395348
1, 8160, Tempo, 1363636
1, 8928, Tempo, 1363636
1, 8964, Tempo, 1395348
1, 9000, Tempo, 1428571
1, 9036, Tempo, 1463414
1, 9072, Tempo, 1500000
1, 9108, Tempo, 1538461
1, 9144, Tempo, 1578947
1, 9180, Tempo, 1621621
1, 9216, Tempo, 1578947
1, 9252, Tempo, 1538461
1, 9292, Tempo, 1500000
1, 9328, Tempo, 1463414
1, 9368, Tempo, 1428571
1, 9408, Tempo, 1395348
1, 9444, Tempo, 1363636
1, 9484, Tempo, 1333333
1, 9520, Tempo, 1304347
1, 9560, Tempo, 1276595
1, 9600, Tempo, 1250000
1, 10080, Tempo, 1250000
1, 10152, Tempo, 1276595
1, 10224, Tempo, 1304347
1, 10296, Tempo, 1333333
1, 10368, Tempo, 1500000
1, 10380, Tempo, 1463414
1, 10392, Tempo, 1428571
1, 10404, Tempo, 1395348
1, 10416, Tempo, 1363636
1, 10428, Tempo, 1333333
1, 10440, Tempo, 1304347
1, 10452, Tempo, 1276595
1, 10464, Tempo, 1250000
1, 11232, Tempo, 1250000
1, 11304, Tempo, 1276595
1, 11376, Tempo, 1304347
1, 11448, Tempo, 1333333
1, 11520, Tempo, 1250000
1, 11532, Tempo, 1463414
1, 11544, Tempo, 1428571
1, 11556, Tempo, 1395348
1, 11568, Tempo, 1363636
1, 11580, Tempo, 1333333
1, 11592, Tempo, 1304347
1, 11604, Tempo, 1276595
1, 11616, Tempo, 1250000
1, 12288, Tempo, 1500000
1, 12300, Tempo, 1463414
1, 12312, Tempo, 1428571
1, 12324, Tempo, 1395348
1, 12336, Tempo, 1363636
1, 12348, Tempo, 1333333
1, 12360, Tempo, 1304347
1, 12372, Tempo, 1276595
1, 12384, Tempo, 1250000
1, 12456, Tempo, 1276595
1, 12528, Tempo, 1304347
1, 12600, Tempo, 1333333
1, 12672, Tempo, 1250000
1, 12684, Tempo, 1463414
1, 12696, Tempo, 1428571
1, 12708, Tempo, 1395348
1, 12720, Tempo, 1363636
1, 12732, Tempo, 1333333
1, 12744, Tempo, 1304347
1, 12756, Tempo, 1276595
1, 12768, Tempo, 1250000
1, 13440, Tempo, 1500000
1, 13452, Tempo, 1463414
1, 13464, Tempo, 1428571
1, 13476, Tempo, 1395348
1, 13488, Tempo, 1363636
1, 13500, Tempo, 1333333
1, 13512, Tempo, 1304347
1, 13524, Tempo, 1276595
1, 13536, Tempo, 1250000
1, 13608, Tempo, 1276595
1, 13680, Tempo, 1304347
1, 13752, Tempo, 1333333
1, 13824, Tempo, 1250000
1, 13836, Tempo, 1463414
1, 13848, Tempo, 1428571
1, 13860, Tempo, 1395348
1, 13872, Tempo, 1363636
1, 13884, Tempo, 1333333
1, 13896, Tempo, 1304347
1, 13908, Tempo, 1276595
1, 13920, Tempo, 1250000
1, 14592, Tempo, 1500000
1, 14604, Tempo, 1463414
1, 14616, Tempo, 1428571
1, 14628, Tempo, 1395348
1, 14640, Tempo, 1363636
1, 14652, Tempo, 1333333
1, 14664, Tempo, 1304347
1, 14676, Tempo, 1276595
1, 14688, Tempo, 1250000
1, 14760, Tempo, 1276595
1, 14832, Tempo, 1304347
1, 14904, Tempo, 1333333
1, 14976, Tempo, 1500000
1, 14988, Tempo, 1463414
1, 15000, Tempo, 1428571
1, 15012, Tempo, 1395348
1, 15024, Tempo, 1363636
1, 15036, Tempo, 1333333
1, 15048, Tempo, 1304347
1, 15060, Tempo, 1276595
1, 15072, Tempo, 1250000
1, 15840, Tempo, 1250000
1, 15912, Tempo, 1276595
1, 15984, Tempo, 1304347
1, 16056, Tempo, 1333333
1, 16128, Tempo, 1714285
1, 16132, Tempo, 1666666
1, 16140, Tempo, 1621621
1, 16148, Tempo, 1578947
1, 16156, Tempo, 1538461
1, 16164, Tempo, 1500000
1, 16172, Tempo, 1463414
1, 16176, Tempo, 1428571
1, 16184, Tempo, 1395348
1, 16192, Tempo, 1363636
1, 16200, Tempo, 1333333
1, 16208, Tempo, 1304347
1, 16216, Tempo, 1276595
1, 16224, Tempo, 1250000
1, 16896, Tempo, 1500000
1, 16908, Tempo, 1463414
1, 16920, Tempo, 1428571
1, 16932, Tempo, 1395348
1, 16944, Tempo, 1363636
1, 16956, Tempo, 1333333
1, 16968, Tempo, 1304347
1, 16980, Tempo, 1276595
1, 16992, Tempo, 1250000
1, 17064, Tempo, 1276595
1, 17136, Tempo, 1304347
1, 17208, Tempo, 1333333
1, 17280, Tempo, 1463414
1, 17292, Tempo, 1621621
1, 17304, Tempo, 1578947
1, 17316, Tempo, 1538461
1, 17328, Tempo, 1500000
1, 17340, Tempo, 1463414
1, 17352, Tempo, 1428571
1, 17364, Tempo, 1395348
1, 17376, Tempo, 1363636
1, 17472, Tempo, 1363636
1, 17544, Tempo, 1395348
1, 17616, Tempo, 1428571
1, 17688, Tempo, 1463414
1, 17760, Tempo, 1463414
1, 17784, Tempo, 1500000
1, 17812, Tempo, 1538461
1, 17836, Tempo, 1578947
1, 17864, Tempo, 1621621
1, 17888, Tempo, 1666666
1, 17916, Tempo, 1714285
1, 17940, Tempo, 1764705
1, 17968, Tempo, 1818181
1, 17992, Tempo, 1875000
1, 18020, Tempo, 1935483
1, 18048, Tempo, 2000000
1, 18240, Tempo, 1714285
1, 18252, Tempo, 1764705
1, 18264, Tempo, 1818181
1, 18276, Tempo, 1875000
1, 18288, Tempo, 1935483
1, 18304, Tempo, 2000000
1, 18316, Tempo, 2068965
1, 18328, Tempo, 2142857
1, 18340, Tempo, 2222222
1, 18352, Tempo, 2307692
1, 18368, Tempo, 2400000
1, 18380, Tempo, 2500000
1, 18392, Tempo, 2608695
1, 18404, Tempo, 2727272
1, 18416, Tempo, 2857142
1, 18432, Tempo, 1250000
1, 18468, Tempo, 1538461
1, 18508, Tempo, 1500000
1, 18544, Tempo, 1463414
1, 18584, Tempo, 1428571
1, 18624, Tempo, 1395348
1, 18660, Tempo, 1363636
1, 18700, Tempo, 1333333
1, 18736, Tempo, 1304347
1, 18776, Tempo, 1276595
1, 18816, Tempo, 1250000
1, 19200, Tempo, 1578947
1, 19208, Tempo, 1538461
1, 19216, Tempo, 1500000
1, 19228, Tempo, 1463414
1, 19236, Tempo, 1428571
1, 19248, Tempo, 1395348
1, 19256, Tempo, 1363636
1, 19264, Tempo, 1333333
1, 19276, Tempo, 1304347
1, 19284, Tempo, 1276595
1, 19296, Tempo, 1250000
1, 19368, Tempo, 1276595
1, 19440, Tempo, 1304347
1, 19512, Tempo, 1333333
1, 19584, Tempo, 1578947
1, 19592, Tempo, 1538461
1, 19600, Tempo, 1500000
1, 19612, Tempo, 1463414
1, 19620, Tempo, 1428571
1, 19632, Tempo, 1395348
1, 19640, Tempo, 1363636
1, 19648, Tempo, 1333333
1, 19660, Tempo, 1304347
1, 19668, Tempo, 1276595
1, 19680, Tempo, 1250000
1, 20352, Tempo, 1500000
1, 20364, Tempo, 1463414
1, 20376, Tempo, 1428571
1, 20388, Tempo, 1395348
1, 20400, Tempo, 1363636
1, 20412, Tempo, 1333333
1, 20424, Tempo, 1304347
1, 20436, Tempo, 1276595
1, 20448, Tempo, 1250000
1, 20520, Tempo, 1276595
1, 20592, Tempo, 1304347
1, 20664, Tempo, 1333333
1, 20736, Tempo, 1250000
1, 20748, Tempo, 1463414
1, 20760, Tempo, 1428571
1, 20772, Tempo, 1395348
1, 20784, Tempo, 1363636
1, 20796, Tempo, 1333333
1, 20808, Tempo, 1304347
1, 20820, Tempo, 1276595
1, 20832, Tempo, 1250000
1, 21312, Tempo, 1500000
1, 21324, Tempo, 1463414
1, 21336, Tempo, 1428571
1, 21348, Tempo, 1395348
1, 21360, Tempo, 1363636
1, 21372, Tempo, 1333333
1, 21384, Tempo, 1304347
1, 21396, Tempo, 1276595
1, 21408, Tempo, 1250000
1, 21600, Tempo, 1250000
1, 21672, Tempo, 1276595
1, 21744, Tempo, 1304347
1, 21816, Tempo, 1333333
1, 21888, Tempo, 1500000
1, 21900, Tempo, 1463414
1, 21912, Tempo, 1428571
1, 21924, Tempo, 1395348
1, 21936, Tempo, 1363636
1, 21948, Tempo, 1333333
1, 21960, Tempo, 1304347
1, 21972, Tempo, 1276595
1, 21984, Tempo, 1250000
1, 22752, Tempo, 1250000
1, 22788, Tempo, 1276595
1, 22824, Tempo, 1304347
1, 22860, Tempo, 1333333
1, 22896, Tempo, 1363636
1, 22932, Tempo, 1395348
1, 22968, Tempo, 1428571
1, 23004, Tempo, 1463414
1, 23040, Tempo, 1714285
1, 23056, Tempo, 1666666
1, 23072, Tempo, 1621621
1, 23088, Tempo, 1578947
1, 23104, Tempo, 1538461
1, 23120, Tempo, 1500000
1, 23136, Tempo, 1463414
1, 23184, Tempo, 1395348
1, 23232, Tempo, 1363636
1, 23280, Tempo, 1333333
1, 23328, Tempo, 1304347
1, 23376, Tempo, 1276595
1, 23424, Tempo, 1250000
1, 23904, Tempo, 1250000
1, 23976, Tempo, 1276595
1, 24048, Tempo, 1304347
1, 24120, Tempo, 1333333
1, 24192, Tempo, 1250000
1, 24204, Tempo, 1463414
1, 24216, Tempo, 1428571
1, 24228, Tempo, 1395348
1, 24240, Tempo, 1363636
1, 24252, Tempo, 1333333
1, 24264, Tempo, 1304347
1, 24276, Tempo, 1276595
1, 24288, Tempo, 1250000
1, 24960, Tempo, 1500000
1, 24972, Tempo, 1463414
1, 24984, Tempo, 1428571
1, 24996, Tempo, 1395348
1, 25008, Tempo, 1363636
1, 25020, Tempo, 1333333
1, 25032, Tempo, 1304347
1, 25044, Tempo, 1276595
1, 25056, Tempo, 1250000
1, 25128, Tempo, 1276595
1, 25200, Tempo, 1304347
1, 25272, Tempo, 1333333
1, 25344, Tempo, 1250000
1, 25356, Tempo, 1463414
1, 25368, Tempo, 1428571
1, 25380, Tempo, 1395348
1, 25392, Tempo, 1363636
1, 25404, Tempo, 1333333
1, 25416, Tempo, 1304347
1, 25428, Tempo, 1276595
1, 25440, Tempo, 1250000
1, 26112, Tempo, 1500000
1, 26124, Tempo, 1463414
1, 26136, Tempo, 1428571
1, 26148, Tempo, 1395348
1, 26160, Tempo, 1363636
1, 26172, Tempo, 1333333
1, 26184, Tempo, 1304347
1, 26196, Tempo, 1276595
1, 26208, Tempo, 1250000
1, 26280, Tempo, 1276595
1, 26352, Tempo, 1304347
1, 26424, Tempo, 1333333
1, 26496, Tempo, 1333333
1, 26504, Tempo, 1621621
1, 26512, Tempo, 1578947
1, 26520, Tempo, 1538461
1, 26528, Tempo, 1500000
1, 26536, Tempo, 1463414
1, 26544, Tempo, 1428571
1, 26552, Tempo, 1395348
1, 26560, Tempo, 1363636
1, 26568, Tempo, 1333333
1, 26576, Tempo, 1304347
1, 26584, Tempo, 1276595
1, 26592, Tempo, 1304347
1, 26760, Tempo, 1333333
1, 26880, Tempo, 1666666
1, 26892, Tempo, 1621621
1, 26904, Tempo, 1578947
1, 26916, Tempo, 1538461
1, 26928, Tempo, 1500000
1, 26940, Tempo, 1463414
1, 26952, Tempo, 1428571
1, 26964, Tempo, 1395348
1, 26976, Tempo, 1363636
1, 27096, Tempo, 1395348
1, 27264, Tempo, 1428571
1, 27348, Tempo, 1621621
1, 27456, Tempo, 1666666
1, 27504, Tempo, 1304347
1, 27576, Tempo, 1333333
1, 27648, Tempo, 1714285
1, 27660, Tempo, 1666666
1, 27672, Tempo, 1621621
1, 27688, Tempo, 1578947
1, 27700, Tempo, 1538461
1, 27716, Tempo, 1500000
1, 27728, Tempo, 1463414
1, 27744, Tempo, 1428571
1, 27840, Tempo, 1428571
1, 27936, Tempo, 1395348
1, 28032, Tempo, 1363636
1, 28128, Tempo, 1333333
1, 28224, Tempo, 1304347
1, 28512, Tempo, 1250000
1, 28584, Tempo, 1276595
1, 28656, Tempo, 1304347
1, 28728, Tempo, 1333333
1, 28800, Tempo, 1250000
1, 28812, Tempo, 1463414
1, 28824, Tempo, 1428571
1, 28836, Tempo, 1395348
1, 28848, Tempo, 1363636
1, 28860, Tempo, 1333333
1, 28872, Tempo, 1304347
1, 28884, Tempo, 1276595
1, 28896, Tempo, 1250000
1, 29568, Tempo, 1500000
1, 29580, Tempo, 1463414
1, 29592, Tempo, 1428571
1, 29604, Tempo, 1395348
1, 29616, Tempo, 1363636
1, 29628, Tempo, 1333333
1, 29640, Tempo, 1304347
1, 29652, Tempo, 1276595
1, 29664, Tempo, 1250000
1, 29736, Tempo, 1276595
1, 29808, Tempo, 1304347
1, 29880, Tempo, 1333333
1, 29952, Tempo, 1250000
1, 29964, Tempo, 1463414
1, 29976, Tempo, 1428571
1, 29988, Tempo, 1395348
1, 30000, Tempo, 1363636
1, 30012, Tempo, 1333333
1, 30024, Tempo, 1304347
1, 30036, Tempo, 1276595
1, 30048, Tempo, 1250000
1, 30336, Tempo, 1428571
1, 30352, Tempo, 1395348
1, 30368, Tempo, 1363636
1, 30384, Tempo, 1333333
1, 30400, Tempo, 1304347
1, 30416, Tempo, 1276595
1, 30432, Tempo, 1250000
1, 30720, Tempo, 1500000
1, 30732, Tempo, 1463414
1, 30744, Tempo, 1428571
1, 30756, Tempo, 1395348
1, 30768, Tempo, 1363636
1, 30780, Tempo, 1333333
1, 30792, Tempo, 1304347
1, 30804, Tempo, 1276595
1, 30816, Tempo, 1250000
1, 30888, Tempo, 1276595
1, 30960, Tempo, 1304347
1, 31032, Tempo, 1333333
1, 31104, Tempo, 1250000
1, 31116, Tempo, 1463414
1, 31128, Tempo, 1428571
1, 31140, Tempo, 1395348
1, 31152, Tempo, 1363636
1, 31164, Tempo, 1333333
1, 31176, Tempo, 1304347
1, 31188, Tempo, 1276595
1, 31200, Tempo, 1250000
1, 31488, Tempo, 1428571
1, 31504, Tempo, 1395348
1, 31520, Tempo, 1363636
1, 31536, Tempo, 1333333
1, 31552, Tempo, 1304347
1, 31568, Tempo, 1276595
1, 31584, Tempo, 1250000
1, 31872, Tempo, 1500000
1, 31884, Tempo, 1463414
1, 31896, Tempo, 1428571
1, 31908, Tempo, 1395348
1, 31920, Tempo, 1363636
1, 31932, Tempo, 1333333
1, 31944, Tempo, 1304347
1, 31956, Tempo, 1276595
1, 31968, Tempo, 1250000
1, 32040, Tempo, 1276595
1, 32112, Tempo, 1304347
1, 32184, Tempo, 1333333
1, 32256, Tempo, 1250000
1, 32268, Tempo, 1463414
1, 32280, Tempo, 1428571
1, 32292, Tempo, 1395348
1, 32304, Tempo, 1363636
1, 32316, Tempo, 1333333
1, 32328, Tempo, 1304347
1, 32340, Tempo, 1276595
1, 32352, Tempo, 1250000
1, 33024, Tempo, 1578947
1, 33032, Tempo, 1538461
1, 33040, Tempo, 1500000
1, 33052, Tempo, 1463414
1, 33060, Tempo, 1428571
1, 33072, Tempo, 1395348
1, 33080, Tempo, 1363636
1, 33088, Tempo, 1333333
1, 33100, Tempo, 1304347
1, 33108, Tempo, 1276595
1, 33120, Tempo, 1250000
1, 33192, Tempo, 1276595
1, 33264, Tempo, 1304347
1, 33336, Tempo, 1333333
1, 33408, Tempo, 1250000
1, 33420, Tempo, 1463414
1, 33432, Tempo, 1428571
1, 33444, Tempo, 1395348
1, 33456, Tempo, 1363636
1, 33468, Tempo, 1333333
1, 33480, Tempo, 1304347
1, 33492, Tempo, 1276595
1, 33504, Tempo, 1250000
1, 34176, Tempo, 1500000
1, 34188, Tempo, 1463414
1, 34200, Tempo, 1428571
1, 34212, Tempo, 1395348
1, 34224, Tempo, 1363636
1, 34236, Tempo, 1333333
1, 34248, Tempo, 1304347
1, 34260, Tempo, 1276595
1, 34272, Tempo, 1250000
1, 34344, Tempo, 1276595
1, 34416, Tempo, 1304347
1, 34488, Tempo, 1333333
1, 34560, Tempo, 1276595
1, 34576, Tempo, 1666666
1, 34596, Tempo, 1621621
1, 34616, Tempo, 1578947
1, 34636, Tempo, 1538461
1, 34656, Tempo, 1500000
1, 34692, Tempo, 1463414
1, 34728, Tempo, 1428571
1, 34764, Tempo, 1395348
1, 34800, Tempo, 1363636
1, 34836, Tempo, 1333333
1, 34872, Tempo, 1304347
1, 34908, Tempo, 1276595
1, 34944, Tempo, 2000000
1, 34952, Tempo, 1935483
1, 34960, Tempo, 1875000
1, 34968, Tempo, 1818181
1, 34976, Tempo, 1764705
1, 34984, Tempo, 1714285
1, 34996, Tempo, 1666666
1, 35004, Tempo, 1621621
1, 35012, Tempo, 1578947
1, 35020, Tempo, 1538461
1, 35028, Tempo, 1500000
1, 35040, Tempo, 1463414
1, 35208, Tempo, 1463414
1, 35376, Tempo, 1428571
1, 35424, Tempo, 1363636
1, 35452, Tempo, 1395348
1, 35480, Tempo, 1428571
1, 35508, Tempo, 1463414
1, 35536, Tempo, 1500000
1, 35568, Tempo, 1538461
1, 35596, Tempo, 1578947
1, 35624, Tempo, 1621621
1, 35652, Tempo, 1666666
1, 35680, Tempo, 1714285
1, 35712, Tempo, 1764705
1, 35720, Tempo, 2307692
1, 35732, Tempo, 2222222
1, 35744, Tempo, 2142857
1, 35752, Tempo, 2068965
1, 35764, Tempo, 2000000
1, 35776, Tempo, 1935483
1, 35784, Tempo, 1875000
1, 35796, Tempo, 1818181
1, 35808, Tempo, 1764705
1, 35824, Tempo, 1666666
1, 35844, Tempo, 1621621
1, 35864, Tempo, 1578947
1, 35884, Tempo, 1538461
1, 35904, Tempo, 1500000
1, 35936, Tempo, 1538461
1, 35968, Tempo, 1578947
1, 36000, Tempo, 1621621
1, 36032, Tempo, 1666666
1, 36064, Tempo, 1714285
1, 36096, Tempo, 1764705
1, 36288, Tempo, 1764705
1, 36300, Tempo, 1818181
1, 36312, Tempo, 1875000
1, 36328, Tempo, 1935483
1, 36340, Tempo, 2000000
1, 36356, Tempo, 2068965
1, 36368, Tempo, 2142857
1, 36384, Tempo, 2222222
1, 36396, Tempo, 2307692
1, 36408, Tempo, 2400000
1, 36424, Tempo, 2500000
1, 36436, Tempo, 2608695
1, 36452, Tempo, 2727272
1, 36464, Tempo, 2857142
1, 36480, Tempo, 3000000
1, 36480, End_track
2, 0, Start_track
2, 0, Title_t, "Johann Sebastian Bach"
2, 0, Control_c, 0, 0, 0
2, 0, Program_c, 0, 6
2, 0, Control_c, 0, 7, 127
2, 0, Control_c, 0, 10, 0
2, 0, Control_c, 0, 91, 127
2, 0, Key_signature, 1, "major"
2, 192, Note_on_c, 0, 67, 64
2, 284, Note_off_c, 0, 67, 100
2, 288, Note_on_c, 0, 66, 64
2, 380, Note_off_c, 0, 66, 100
2, 384, Note_on_c, 0, 67, 64
2, 572, Note_off_c, 0, 67, 100
2, 576, Note_on_c, 0, 69, 64
2, 668, Note_off_c, 0, 69, 100
2, 672, Note_on_c, 0, 71, 64
2, 764, Note_off_c, 0, 71, 100
2, 768, Note_on_c, 0, 72, 64
2, 860, Note_off_c, 0, 72, 100
2, 864, Note_on_c, 0, 71, 64
2, 956, Note_off_c, 0, 71, 100
2, 960, Note_on_c, 0, 69, 64
2, 1052, Note_off_c, 0, 69, 100
2, 1056, Note_on_c, 0, 67, 64
2, 1148, Note_off_c, 0, 67, 100
2, 1152, Note_on_c, 0, 74, 64
2, 1244, Note_off_c, 0, 74, 100
2, 1248, Note_on_c, 0, 69, 64
2, 1340, Note_off_c, 0, 69, 100
2, 1344, Note_on_c, 0, 71, 64
2, 1436, Note_off_c, 0, 71, 100
2, 1440, Note_on_c, 0, 73, 64
2, 1532, Note_off_c, 0, 73, 100
2, 1536, Note_on_c, 0, 74, 64
2, 1628, Note_off_c, 0, 74, 100
2, 1632, Note_on_c, 0, 76, 64
2, 1724, Note_off_c, 0, 76, 100
2, 1728, Note_on_c, 0, 78, 64
2, 1820, Note_off_c, 0, 78, 100
2, 1824, Note_on_c, 0, 79, 64
2, 1916, Note_off_c, 0, 79, 100
2, 1920, Note_on_c, 0, 81, 64
2, 2108, Note_off_c, 0, 81, 100
2, 2496, Note_on_c, 0, 79, 64
2, 2588, Note_off_c, 0, 79, 100
2, 2592, Note_on_c, 0, 78, 64
2, 2684, Note_off_c, 0, 78, 100
2, 2688, Note_on_c, 0, 76, 64
2, 2780, Note_off_c, 0, 76, 100
2, 2784, Note_on_c, 0, 74, 64
2, 2876, Note_off_c, 0, 74, 100
2, 2880, Note_on_c, 0, 73, 64
2, 2972, Note_off_c, 0, 73, 100
2, 2976, Note_on_c, 0, 71, 64
2, 3068, Note_off_c, 0, 71, 100
2, 3072, Note_on_c, 0, 69, 64
2, 3164, Note_off_c, 0, 69, 100
2, 3168, Note_on_c, 0, 67, 64
2, 3260, Note_off_c, 0, 67, 100
2, 3264, Note_on_c, 0, 66, 64
2, 3356, Note_off_c, 0, 66, 100
2, 3360, Note_on_c, 0, 67, 64
2, 3424, Note_off_c, 0, 67, 100
2, 3456, Note_on_c, 0, 67, 64
2, 3584, Note_off_c, 0, 67, 100
2, 3648, Note_on_c, 0, 67, 64
2, 3660, Note_off_c, 0, 67, 100
2, 3664, Note_on_c, 0, 66, 64
2, 3676, Note_off_c, 0, 66, 100
2, 3680, Note_on_c, 0, 67, 64
2, 3692, Note_off_c, 0, 67, 100
2, 3696, Note_on_c, 0, 66, 64
2, 3740, Note_off_c, 0, 66, 100
2, 3744, Note_on_c, 0, 64, 64
2, 3836, Note_off_c, 0, 64, 100
2, 3840, Note_on_c, 0, 62, 64
2, 4028, Note_off_c, 0, 62, 100
2, 4704, Note_on_c, 0, 74, 64
2, 4988, Note_off_c, 0, 74, 100
2, 5088, Note_on_c, 0, 71, 64
2, 5180, Note_off_c, 0, 71, 100
2, 5184, Note_on_c, 0, 69, 64
2, 5276, Note_off_c, 0, 69, 100
2, 5280, Note_on_c, 0, 67, 64
2, 5372, Note_off_c, 0, 67, 100
2, 5376, Note_on_c, 0, 65, 64
2, 5468, Note_off_c, 0, 65, 100
2, 5472, Note_on_c, 0, 64, 64
2, 5564, Note_off_c, 0, 64, 100
2, 5568, Note_on_c, 0, 62, 64
2, 5660, Note_off_c, 0, 62, 100
2, 5664, Note_on_c, 0, 65, 64
2, 5756, Note_off_c, 0, 65, 100
2, 5760, Note_on_c, 0, 64, 64
2, 5852, Note_off_c, 0, 64, 100
2, 5856, Note_on_c, 0, 67, 64
2, 5948, Note_off_c, 0, 67, 100
2, 5952, Note_on_c, 0, 72, 64
2, 6044, Note_off_c, 0, 72, 100
2, 6048, Note_on_c, 0, 74, 64
2, 6140, Note_off_c, 0, 74, 100
2, 6144, Note_on_c, 0, 76, 64
2, 6272, Note_off_c, 0, 76, 100
2, 6336, Note_on_c, 0, 69, 64
2, 6592, Note_off_c, 0, 69, 100
2, 6720, Note_on_c, 0, 69, 64
2, 7004, Note_off_c, 0, 69, 100
2, 7008, Note_on_c, 0, 71, 64
2, 7100, Note_off_c, 0, 71, 100
2, 7104, Note_on_c, 0, 66, 64
2, 7196, Note_off_c, 0, 66, 100
2, 7200, Note_on_c, 0, 67, 64
2, 7292, Note_off_c, 0, 67, 100
2, 7296, Note_on_c, 0, 69, 64
2, 7388, Note_off_c, 0, 69, 100
2, 7392, Note_on_c, 0, 67, 64
2, 7484, Note_off_c, 0, 67, 100
2, 7488, Note_on_c, 0, 66, 64
2, 7580, Note_off_c, 0, 66, 100
2, 7584, Note_on_c, 0, 76, 64
2, 7676, Note_off_c, 0, 76, 100
2, 7680, Note_on_c, 0, 74, 64
2, 7772, Note_off_c, 0, 74, 100
2, 7776, Note_on_c, 0, 72, 64
2, 7868, Note_off_c, 0, 72, 100
2, 7872, Note_on_c, 0, 71, 64
2, 7964, Note_off_c, 0, 71, 100
2, 7968, Note_on_c, 0, 69, 64
2, 8060, Note_off_c, 0, 69, 100
2, 8064, Note_on_c, 0, 67, 64
2, 8444, Note_off_c, 0, 67, 100
2, 9312, Note_on_c, 0, 66, 64
2, 9404, Note_off_c, 0, 66, 100
2, 9408, Note_on_c, 0, 67, 64
2, 9500, Note_off_c, 0, 67, 100
2, 9504, Note_on_c, 0, 69, 64
2, 9596, Note_off_c, 0, 69, 100
2, 9600, Note_on_c, 0, 71, 64
2, 9692, Note_off_c, 0, 71, 100
2, 9696, Note_on_c, 0, 73, 64
2, 9788, Note_off_c, 0, 73, 100
2, 9792, Note_on_c, 0, 74, 64
2, 9884, Note_off_c, 0, 74, 100
2, 9888, Note_on_c, 0, 78, 64
2, 9980, Note_off_c, 0, 78, 100
2, 9984, Note_on_c, 0, 76, 64
2, 10076, Note_off_c, 0, 76, 100
2, 10080, Note_on_c, 0, 74, 64
2, 10172, Note_off_c, 0, 74, 100
2, 10176, Note_on_c, 0, 73, 64
2, 10268, Note_off_c, 0, 73, 100
2, 10272, Note_on_c, 0, 71, 64
2, 10364, Note_off_c, 0, 71, 100
2, 10368, Note_on_c, 0, 69, 64
2, 10460, Note_off_c, 0, 69, 100
2, 10464, Note_on_c, 0, 67, 64
2, 10556, Note_off_c, 0, 67, 100
2, 10560, Note_on_c, 0, 66, 64
2, 10652, Note_off_c, 0, 66, 100
2, 10656, Note_on_c, 0, 64, 64
2, 10748, Note_off_c, 0, 64, 100
2, 10752, Note_on_c, 0, 62, 64
2, 10940, Note_off_c, 0, 62, 100
2, 11712, Note_on_c, 0, 73, 64
2, 11900, Note_off_c, 0, 73, 100
2, 12000, Note_on_c, 0, 71, 64
2, 12092, Note_off_c, 0, 71, 100
2, 12096, Note_on_c, 0, 69, 64
2, 12188, Note_off_c, 0, 69, 100
2, 12192, Note_on_c, 0, 71, 64
2, 12284, Note_off_c, 0, 71, 100
2, 12288, Note_on_c, 0, 73, 64
2, 12380, Note_off_c, 0, 73, 100
2, 12384, Note_on_c, 0, 74, 64
2, 12476, Note_off_c, 0, 74, 100
2, 12480, Note_on_c, 0, 76, 64
2, 12572, Note_off_c, 0, 76, 100
2, 12576, Note_on_c, 0, 78, 64
2, 12668, Note_off_c, 0, 78, 100
2, 12672, Note_on_c, 0, 79, 64
2, 12800, Note_off_c, 0, 79, 100
2, 12864, Note_on_c, 0, 67, 64
2, 12956, Note_off_c, 0, 67, 100
2, 12960, Note_on_c, 0, 66, 64
2, 13052, Note_off_c, 0, 66, 100
2, 13056, Note_on_c, 0, 67, 64
2, 13436, Note_off_c, 0, 67, 100
2, 13536, Note_on_c, 0, 71, 64
2, 13628, Note_off_c, 0, 71, 100
2, 13632, Note_on_c, 0, 69, 64
2, 13724, Note_off_c, 0, 69, 100
2, 13728, Note_on_c, 0, 67, 64
2, 13820, Note_off_c, 0, 67, 100
2, 13824, Note_on_c, 0, 66, 64
2, 13916, Note_off_c, 0, 66, 100
2, 13920, Note_on_c, 0, 64, 64
2, 14012, Note_off_c, 0, 64, 100
2, 14016, Note_on_c, 0, 66, 64
2, 14108, Note_off_c, 0, 66, 100
2, 14112, Note_on_c, 0, 67, 64
2, 14204, Note_off_c, 0, 67, 100
2, 14208, Note_on_c, 0, 66, 64
2, 14300, Note_off_c, 0, 66, 100
2, 14304, Note_on_c, 0, 69, 64
2, 14396, Note_off_c, 0, 69, 100
2, 14400, Note_on_c, 0, 67, 64
2, 14492, Note_off_c, 0, 67, 100
2, 14496, Note_on_c, 0, 66, 64
2, 14588, Note_off_c, 0, 66, 100
2, 14592, Note_on_c, 0, 64, 64
2, 14972, Note_off_c, 0, 64, 100
2, 15168, Note_on_c, 0, 74, 64
2, 15296, Note_off_c, 0, 74, 100
2, 15360, Note_on_c, 0, 73, 64
2, 15488, Note_off_c, 0, 73, 100
2, 15552, Note_on_c, 0, 71, 64
2, 15680, Note_off_c, 0, 71, 100
2, 15744, Note_on_c, 0, 69, 64
2, 15872, Note_off_c, 0, 69, 100
2, 15936, Note_on_c, 0, 78, 64
2, 16064, Note_off_c, 0, 78, 100
2, 16128, Note_on_c, 0, 67, 64
2, 16512, Note_off_c, 0, 67, 100
2, 16704, Note_on_c, 0, 66, 64
2, 16892, Note_off_c, 0, 66, 100
2, 16896, Note_on_c, 0, 64, 64
2, 16988, Note_off_c, 0, 64, 100
2, 16992, Note_on_c, 0, 69, 64
2, 17084, Note_off_c, 0, 69, 100
2, 17088, Note_on_c, 0, 67, 64
2, 17468, Note_off_c, 0, 67, 100
2, 17472, Note_on_c, 0, 66, 64
2, 17564, Note_off_c, 0, 66, 100
2, 17568, Note_on_c, 0, 64, 64
2, 17660, Note_off_c, 0, 64, 100
2, 17664, Note_on_c, 0, 66, 64
2, 17728, Note_off_c, 0, 66, 100
2, 17760, Note_on_c, 0, 74, 64
2, 17948, Note_off_c, 0, 74, 100
2, 17952, Note_on_c, 0, 73, 64
2, 18044, Note_off_c, 0, 73, 100
2, 18048, Note_on_c, 0, 74, 64
2, 18236, Note_off_c, 0, 74, 100
2, 19776, Note_on_c, 0, 67, 64
2, 19868, Note_off_c, 0, 67, 100
2, 19872, Note_on_c, 0, 66, 64
2, 19964, Note_off_c, 0, 66, 100
2, 19968, Note_on_c, 0, 67, 64
2, 20156, Note_off_c, 0, 67, 100
2, 20160, Note_on_c, 0, 69, 64
2, 20252, Note_off_c, 0, 69, 100
2, 20256, Note_on_c, 0, 71, 64
2, 20348, Note_off_c, 0, 71, 100
2, 20352, Note_on_c, 0, 72, 64
2, 20444, Note_off_c, 0, 72, 100
2, 20448, Note_on_c, 0, 71, 64
2, 20540, Note_off_c, 0, 71, 100
2, 20544, Note_on_c, 0, 69, 64
2, 20636, Note_off_c, 0, 69, 100
2, 20640, Note_on_c, 0, 67, 64
2, 20732, Note_off_c, 0, 67, 100
2, 20736, Note_on_c, 0, 79, 64
2, 21116, Note_off_c, 0, 79, 100
2, 21216, Note_on_c, 0, 78, 64
2, 21308, Note_off_c, 0, 78, 100
2, 21312, Note_on_c, 0, 81, 64
2, 21404, Note_off_c, 0, 81, 100
2, 21408, Note_on_c, 0, 79, 64
2, 21500, Note_off_c, 0, 79, 100
2, 21504, Note_on_c, 0, 78, 64
2, 21596, Note_off_c, 0, 78, 100
2, 21600, Note_on_c, 0, 79, 64
2, 21692, Note_off_c, 0, 79, 100
2, 21696, Note_on_c, 0, 76, 64
2, 21824, Note_off_c, 0, 76, 100
2, 21888, Note_on_c, 0, 76, 64
2, 21980, Note_off_c, 0, 76, 100
2, 21984, Note_on_c, 0, 78, 64
2, 22124, Note_off_c, 0, 78, 100
2, 22128, Note_on_c, 0, 77, 64
2, 22172, Note_off_c, 0, 77, 100
2, 22176, Note_on_c, 0, 78, 64
2, 22220, Note_off_c, 0, 78, 100
2, 22224, Note_on_c, 0, 79, 64
2, 22268, Note_off_c, 0, 79, 100
2, 22272, Note_on_c, 0, 78, 64
2, 22460, Note_off_c, 0, 78, 100
2, 22464, Note_on_c, 0, 69, 64
2, 22592, Note_off_c, 0, 69, 100
2, 22848, Note_on_c, 0, 78, 64
2, 22976, Note_off_c, 0, 78, 100
2, 23040, Note_on_c, 0, 79, 64
2, 23132, Note_off_c, 0, 79, 100
2, 23136, Note_on_c, 0, 78, 64
2, 23228, Note_off_c, 0, 78, 100
2, 23232, Note_on_c, 0, 79, 64
2, 23324, Note_off_c, 0, 79, 100
2, 23328, Note_on_c, 0, 81, 64
2, 23420, Note_off_c, 0, 81, 100
2, 23424, Note_on_c, 0, 79, 64
2, 23516, Note_off_c, 0, 79, 100
2, 23520, Note_on_c, 0, 78, 64
2, 23612, Note_off_c, 0, 78, 100
2, 23616, Note_on_c, 0, 76, 64
2, 23708, Note_off_c, 0, 76, 100
2, 23712, Note_on_c, 0, 74, 64
2, 23804, Note_off_c, 0, 74, 100
2, 23808, Note_on_c, 0, 72, 64
2, 23900, Note_off_c, 0, 72, 100
2, 23904, Note_on_c, 0, 71, 64
2, 23996, Note_off_c, 0, 71, 100
2, 24000, Note_on_c, 0, 69, 64
2, 24092, Note_off_c, 0, 69, 100
2, 24096, Note_on_c, 0, 67, 64
2, 24188, Note_off_c, 0, 67, 100
2, 24192, Note_on_c, 0, 66, 64
2, 25340, Note_off_c, 0, 66, 100
2, 25536, Note_on_c, 0, 66, 64
2, 25628, Note_off_c, 0, 66, 100
2, 25632, Note_on_c, 0, 67, 64
2, 25724, Note_off_c, 0, 67, 100
2, 25728, Note_on_c, 0, 66, 64
2, 25856, Note_off_c, 0, 66, 100
2, 25920, Note_on_c, 0, 66, 64
2, 26048, Note_off_c, 0, 66, 100
2, 26112, Note_on_c, 0, 66, 64
2, 26240, Note_off_c, 0, 66, 100
2, 26304, Note_on_c, 0, 67, 64
2, 26396, Note_off_c, 0, 67, 100
2, 26400, Note_on_c, 0, 69, 64
2, 26492, Note_off_c, 0, 69, 100
2, 26496, Note_on_c, 0, 67, 64
2, 26876, Note_off_c, 0, 67, 100
2, 27264, Note_on_c, 0, 64, 64
2, 27644, Note_off_c, 0, 64, 100
2, 27744, Note_on_c, 0, 66, 64
2, 27836, Note_off_c, 0, 66, 100
2, 27840, Note_on_c, 0, 67, 64
2, 27932, Note_off_c, 0, 67, 100
2, 27936, Note_on_c, 0, 64, 64
2, 28028, Note_off_c, 0, 64, 100
2, 28032, Note_on_c, 0, 66, 64
2, 28124, Note_off_c, 0, 66, 100
2, 28128, Note_on_c, 0, 67, 64
2, 28220, Note_off_c, 0, 67, 100
2, 28224, Note_on_c, 0, 68, 64
2, 28316, Note_off_c, 0, 68, 100
2, 28320, Note_on_c, 0, 69, 64
2, 28412, Note_off_c, 0, 69, 100
2, 28416, Note_on_c, 0, 71, 64
2, 28508, Note_off_c, 0, 71, 100
2, 28512, Note_on_c, 0, 72, 64
2, 28604, Note_off_c, 0, 72, 100
2, 28608, Note_on_c, 0, 74, 64
2, 28700, Note_off_c, 0, 74, 100
2, 28704, Note_on_c, 0, 76, 64
2, 28796, Note_off_c, 0, 76, 100
2, 28800, Note_on_c, 0, 74, 64
2, 28988, Note_off_c, 0, 74, 100
2, 30048, Note_on_c, 0, 60, 64
2, 30140, Note_off_c, 0, 60, 100
2, 30144, Note_on_c, 0, 62, 64
2, 30236, Note_off_c, 0, 62, 100
2, 30240, Note_on_c, 0, 64, 64
2, 30332, Note_off_c, 0, 64, 100
2, 30336, Note_on_c, 0, 62, 64
2, 30428, Note_off_c, 0, 62, 100
2, 30432, Note_on_c, 0, 63, 64
2, 30524, Note_off_c, 0, 63, 100
2, 30528, Note_on_c, 0, 66, 64
2, 30620, Note_off_c, 0, 66, 100
2, 30624, Note_on_c, 0, 67, 64
2, 30716, Note_off_c, 0, 67, 100
2, 30720, Note_on_c, 0, 66, 64
2, 30812, Note_off_c, 0, 66, 100
2, 30816, Note_on_c, 0, 67, 64
2, 30908, Note_off_c, 0, 67, 100
2, 30912, Note_on_c, 0, 69, 64
2, 31004, Note_off_c, 0, 69, 100
2, 31008, Note_on_c, 0, 71, 64
2, 31100, Note_off_c, 0, 71, 100
2, 31104, Note_on_c, 0, 69, 64
2, 32252, Note_off_c, 0, 69, 100
2, 32448, Note_on_c, 0, 62, 64
2, 32576, Note_off_c, 0, 62, 100
2, 32640, Note_on_c, 0, 64, 64
2, 32768, Note_off_c, 0, 64, 100
2, 32832, Note_on_c, 0, 66, 64
2, 32960, Note_off_c, 0, 66, 100
2, 33024, Note_on_c, 0, 67, 64
2, 33116, Note_off_c, 0, 67, 100
2, 33120, Note_on_c, 0, 71, 64
2, 33212, Note_off_c, 0, 71, 100
2, 33216, Note_on_c, 0, 69, 64
2, 33308, Note_off_c, 0, 69, 100
2, 33312, Note_on_c, 0, 72, 64
2, 33404, Note_off_c, 0, 72, 100
2, 33408, Note_on_c, 0, 71, 64
2, 33536, Note_off_c, 0, 71, 100
2, 33600, Note_on_c, 0, 69, 64
2, 33788, Note_off_c, 0, 69, 100
2, 33792, Note_on_c, 0, 71, 64
2, 33980, Note_off_c, 0, 71, 100
2, 33984, Note_on_c, 0, 72, 64
2, 34172, Note_off_c, 0, 72, 100
2, 34176, Note_on_c, 0, 74, 64
2, 34196, Note_off_c, 0, 74, 100
2, 34200, Note_on_c, 0, 72, 64
2, 34220, Note_off_c, 0, 72, 100
2, 34224, Note_on_c, 0, 74, 64
2, 34460, Note_off_c, 0, 74, 100
2, 34464, Note_on_c, 0, 76, 64
2, 34556, Note_off_c, 0, 76, 100
2, 34560, Note_on_c, 0, 74, 64
2, 34940, Note_off_c, 0, 74, 100
2, 35040, Note_on_c, 0, 71, 64
2, 35132, Note_off_c, 0, 71, 100
2, 35136, Note_on_c, 0, 72, 64
2, 35228, Note_off_c, 0, 72, 100
2, 35232, Note_on_c, 0, 74, 64
2, 35324, Note_off_c, 0, 74, 100
2, 35328, Note_on_c, 0, 76, 64
2, 35420, Note_off_c, 0, 76, 100
2, 35424, Note_on_c, 0, 78, 64
2, 35516, Note_off_c, 0, 78, 100
2, 35520, Note_on_c, 0, 79, 64
2, 35612, Note_off_c, 0, 79, 100
2, 35616, Note_on_c, 0, 81, 64
2, 35708, Note_off_c, 0, 81, 100
2, 35712, Note_on_c, 0, 83, 64
2, 35804, Note_off_c, 0, 83, 100
2, 35808, Note_on_c, 0, 79, 64
2, 35900, Note_off_c, 0, 79, 100
2, 35904, Note_on_c, 0, 74, 64
2, 35996, Note_off_c, 0, 74, 100
2, 36000, Note_on_c, 0, 71, 64
2, 36092, Note_off_c, 0, 71, 100
2, 36096, Note_on_c, 0, 67, 64
2, 36284, Note_off_c, 0, 67, 100
2, 36284, End_track
3, 0, Start_track
3, 0, Title_t, "Goldberg Variations"
3, 0, Control_c, 1, 0, 0
3, 0, Program_c, 1, 6
3, 0, Control_c, 1, 7, 127
3, 0, Control_c, 1, 10, 127
3, 0, Control_c, 1, 91, 127
3, 0, Key_signature, 1, "major"
3, 1344, Note_on_c, 1, 62, 64
3, 1436, Note_off_c, 1, 62, 100
3, 1440, Note_on_c, 1, 64, 64
3, 1532, Note_off_c, 1, 64, 100
3, 1536, Note_on_c, 1, 62, 64
3, 1724, Note_off_c, 1, 62, 100
3, 1728, Note_on_c, 1, 60, 64
3, 1820, Note_off_c, 1, 60, 100
3, 1824, Note_on_c, 1, 59, 64
3, 1916, Note_off_c, 1, 59, 100
3, 1920, Note_on_c, 1, 57, 64
3, 2012, Note_off_c, 1, 57, 100
3, 2016, Note_on_c, 1, 59, 64
3, 2108, Note_off_c, 1, 59, 100
3, 2112, Note_on_c, 1, 60, 64
3, 2204, Note_off_c, 1, 60, 100
3, 2208, Note_on_c, 1, 62, 64
3, 2300, Note_off_c, 1, 62, 100
3, 2304, Note_on_c, 1, 55, 64
3, 2396, Note_off_c, 1, 55, 100
3, 2400, Note_on_c, 1, 60, 64
3, 2492, Note_off_c, 1, 60, 100
3, 2496, Note_on_c, 1, 59, 64
3, 2588, Note_off_c, 1, 59, 100
3, 2592, Note_on_c, 1, 57, 64
3, 2684, Note_off_c, 1, 57, 100
3, 2688, Note_on_c, 1, 55, 64
3, 2780, Note_off_c, 1, 55, 100
3, 2784, Note_on_c, 1, 54, 64
3, 2876, Note_off_c, 1, 54, 100
3, 2880, Note_on_c, 1, 52, 64
3, 2972, Note_off_c, 1, 52, 100
3, 2976, Note_on_c, 1, 50, 64
3, 3068, Note_off_c, 1, 50, 100
3, 3072, Note_on_c, 1, 49, 64
3, 3260, Note_off_c, 1, 49, 100
3, 3648, Note_on_c, 1, 50, 64
3, 3740, Note_off_c, 1, 50, 100
3, 3744, Note_on_c, 1, 52, 64
3, 3836, Note_off_c, 1, 52, 100
3, 3840, Note_on_c, 1, 54, 64
3, 3932, Note_off_c, 1, 54, 100
3, 3936, Note_on_c, 1, 55, 64
3, 4028, Note_off_c, 1, 55, 100
3, 4032, Note_on_c, 1, 57, 64
3, 4124, Note_off_c, 1, 57, 100
3, 4128, Note_on_c, 1, 59, 64
3, 4220, Note_off_c, 1, 59, 100
3, 4224, Note_on_c, 1, 60, 64
3, 4316, Note_off_c, 1, 60, 100
3, 4320, Note_on_c, 1, 62, 64
3, 4412, Note_off_c, 1, 62, 100
3, 4416, Note_on_c, 1, 64, 64
3, 4508, Note_off_c, 1, 64, 100
3, 4512, Note_on_c, 1, 62, 64
3, 4576, Note_off_c, 1, 62, 100
3, 4608, Note_on_c, 1, 62, 64
3, 4796, Note_off_c, 1, 62, 100
3, 4800, Note_on_c, 1, 64, 64
3, 4892, Note_off_c, 1, 64, 100
3, 4896, Note_on_c, 1, 66, 64
3, 4988, Note_off_c, 1, 66, 100
3, 4992, Note_on_c, 1, 67, 64
3, 5180, Note_off_c, 1, 67, 100
3, 5856, Note_on_c, 1, 55, 64
3, 6140, Note_off_c, 1, 55, 100
3, 6240, Note_on_c, 1, 59, 64
3, 6332, Note_off_c, 1, 59, 100
3, 6336, Note_on_c, 1, 60, 64
3, 6428, Note_off_c, 1, 60, 100
3, 6432, Note_on_c, 1, 62, 64
3, 6524, Note_off_c, 1, 62, 100
3, 6528, Note_on_c, 1, 64, 64
3, 6620, Note_off_c, 1, 64, 100
3, 6624, Note_on_c, 1, 66, 64
3, 6716, Note_off_c, 1, 66, 100
3, 6720, Note_on_c, 1, 67, 64
3, 6812, Note_off_c, 1, 67, 100
3, 6816, Note_on_c, 1, 64, 64
3, 6908, Note_off_c, 1, 64, 100
3, 6912, Note_on_c, 1, 66, 64
3, 7004, Note_off_c, 1, 66, 100
3, 7008, Note_on_c, 1, 62, 64
3, 7100, Note_off_c, 1, 62, 100
3, 7104, Note_on_c, 1, 57, 64
3, 7196, Note_off_c, 1, 57, 100
3, 7200, Note_on_c, 1, 55, 64
3, 7292, Note_off_c, 1, 55, 100
3, 7296, Note_on_c, 1, 54, 64
3, 7424, Note_off_c, 1, 54, 100
3, 7488, Note_on_c, 1, 60, 64
3, 7744, Note_off_c, 1, 60, 100
3, 7872, Note_on_c, 1, 60, 64
3, 8156, Note_off_c, 1, 60, 100
3, 8160, Note_on_c, 1, 59, 64
3, 8252, Note_off_c, 1, 59, 100
3, 8256, Note_on_c, 1, 64, 64
3, 8348, Note_off_c, 1, 64, 100
3, 8352, Note_on_c, 1, 62, 64
3, 8444, Note_off_c, 1, 62, 100
3, 8448, Note_on_c, 1, 60, 64
3, 8540, Note_off_c, 1, 60, 100
3, 8544, Note_on_c, 1, 62, 64
3, 8636, Note_off_c, 1, 62, 100
3, 8640, Note_on_c, 1, 64, 64
3, 8732, Note_off_c, 1, 64, 100
3, 8736, Note_on_c, 1, 54, 64
3, 8828, Note_off_c, 1, 54, 100
3, 8832, Note_on_c, 1, 55, 64
3, 8924, Note_off_c, 1, 55, 100
3, 8928, Note_on_c, 1, 57, 64
3, 9020, Note_off_c, 1, 57, 100
3, 9024, Note_on_c, 1, 59, 64
3, 9116, Note_off_c, 1, 59, 100
3, 9120, Note_on_c, 1, 60, 64
3, 9212, Note_off_c, 1, 60, 100
3, 9216, Note_on_c, 1, 62, 64
3, 9596, Note_off_c, 1, 62, 100
3, 10464, Note_on_c, 1, 64, 64
3, 10556, Note_off_c, 1, 64, 100
3, 10560, Note_on_c, 1, 62, 64
3, 10652, Note_off_c, 1, 62, 100
3, 10656, Note_on_c, 1, 61, 64
3, 10748, Note_off_c, 1, 61, 100
3, 10752, Note_on_c, 1, 59, 64
3, 10844, Note_off_c, 1, 59, 100
3, 10848, Note_on_c, 1, 57, 64
3, 10940, Note_off_c, 1, 57, 100
3, 10944, Note_on_c, 1, 55, 64
3, 11036, Note_off_c, 1, 55, 100
3, 11040, Note_on_c, 1, 52, 64
3, 11132, Note_off_c, 1, 52, 100
3, 11136, Note_on_c, 1, 54, 64
3, 11228, Note_off_c, 1, 54, 100
3, 11232, Note_on_c, 1, 55, 64
3, 11324, Note_off_c, 1, 55, 100
3, 11328, Note_on_c, 1, 57, 64
3, 11420, Note_off_c, 1, 57, 100
3, 11424, Note_on_c, 1, 59, 64
3, 11516, Note_off_c, 1, 59, 100
3, 11520, Note_on_c, 1, 61, 64
3, 11612, Note_off_c, 1, 61, 100
3, 11616, Note_on_c, 1, 62, 64
3, 11708, Note_off_c, 1, 62, 100
3, 11712, Note_on_c, 1, 64, 64
3, 11804, Note_off_c, 1, 64, 100
3, 11808, Note_on_c, 1, 66, 64
3, 11900, Note_off_c, 1, 66, 100
3, 11904, Note_on_c, 1, 67, 64
3, 12092, Note_off_c, 1, 67, 100
3, 12864, Note_on_c, 1, 57, 64
3, 13052, Note_off_c, 1, 57, 100
3, 13152, Note_on_c, 1, 59, 64
3, 13244, Note_off_c, 1, 59, 100
3, 13248, Note_on_c, 1, 61, 64
3, 13340, Note_off_c, 1, 61, 100
3, 13344, Note_on_c, 1, 59, 64
3, 13436, Note_off_c, 1, 59, 100
3, 13440, Note_on_c, 1, 57, 64
3, 13532, Note_off_c, 1, 57, 100
3, 13536, Note_on_c, 1, 55, 64
3, 13628, Note_off_c, 1, 55, 100
3, 13632, Note_on_c, 1, 54, 64
3, 13724, Note_off_c, 1, 54, 100
3, 13728, Note_on_c, 1, 52, 64
3, 13820, Note_off_c, 1, 52, 100
3, 13824, Note_on_c, 1, 50, 64
3, 13952, Note_off_c, 1, 50, 100
3, 14016, Note_on_c, 1, 62, 64
3, 14108, Note_off_c, 1, 62, 100
3, 14112, Note_on_c, 1, 64, 64
3, 14204, Note_off_c, 1, 64, 100
3, 14208, Note_on_c, 1, 62, 64
3, 14588, Note_off_c, 1, 62, 100
3, 14688, Note_on_c, 1, 59, 64
3, 14780, Note_off_c, 1, 59, 100
3, 14784, Note_on_c, 1, 61, 64
3, 14876, Note_off_c, 1, 61, 100
3, 14880, Note_on_c, 1, 62, 64
3, 14972, Note_off_c, 1, 62, 100
3, 14976, Note_on_c, 1, 64, 64
3, 15068, Note_off_c, 1, 64, 100
3, 15072, Note_on_c, 1, 66, 64
3, 15164, Note_off_c, 1, 66, 100
3, 15168, Note_on_c, 1, 64, 64
3, 15260, Note_off_c, 1, 64, 100
3, 15264, Note_on_c, 1, 62, 64
3, 15356, Note_off_c, 1, 62, 100
3, 15360, Note_on_c, 1, 64, 64
3, 15452, Note_off_c, 1, 64, 100
3, 15456, Note_on_c, 1, 61, 64
3, 15548, Note_off_c, 1, 61, 100
3, 15552, Note_on_c, 1, 62, 64
3, 15644, Note_off_c, 1, 62, 100
3, 15648, Note_on_c, 1, 64, 64
3, 15740, Note_off_c, 1, 64, 100
3, 15744, Note_on_c, 1, 66, 64
3, 16124, Note_off_c, 1, 66, 100
3, 16320, Note_on_c, 1, 55, 64
3, 16448, Note_off_c, 1, 55, 100
3, 16512, Note_on_c, 1, 57, 64
3, 16640, Note_off_c, 1, 57, 100
3, 16704, Note_on_c, 1, 59, 64
3, 16832, Note_off_c, 1, 59, 100
3, 16896, Note_on_c, 1, 61, 64
3, 17024, Note_off_c, 1, 61, 100
3, 17088, Note_on_c, 1, 52, 64
3, 17216, Note_off_c, 1, 52, 100
3, 17280, Note_on_c, 1, 62, 64
3, 17664, Note_off_c, 1, 62, 100
3, 17856, Note_on_c, 1, 64, 64
3, 18044, Note_off_c, 1, 64, 100
3, 18048, Note_on_c, 1, 66, 64
3, 18140, Note_off_c, 1, 66, 100
3, 18144, Note_on_c, 1, 61, 64
3, 18236, Note_off_c, 1, 61, 100
3, 18240, Note_on_c, 1, 62, 64
3, 18368, Note_off_c, 1, 62, 100
3, 18624, Note_on_c, 1, 62, 64
3, 18716, Note_off_c, 1, 62, 100
3, 18720, Note_on_c, 1, 64, 64
3, 18812, Note_off_c, 1, 64, 100
3, 18816, Note_on_c, 1, 62, 64
3, 19004, Note_off_c, 1, 62, 100
3, 19008, Note_on_c, 1, 60, 64
3, 19100, Note_off_c, 1, 60, 100
3, 19104, Note_on_c, 1, 59, 64
3, 19196, Note_off_c, 1, 59, 100
3, 19200, Note_on_c, 1, 57, 64
3, 19292, Note_off_c, 1, 57, 100
3, 19296, Note_on_c, 1, 59, 64
3, 19388, Note_off_c, 1, 59, 100
3, 19392, Note_on_c, 1, 60, 64
3, 19484, Note_off_c, 1, 60, 100
3, 19488, Note_on_c, 1, 62, 64
3, 19580, Note_off_c, 1, 62, 100
3, 19584, Note_on_c, 1, 50, 64
3, 19964, Note_off_c, 1, 50, 100
3, 20064, Note_on_c, 1, 52, 64
3, 20156, Note_off_c, 1, 52, 100
3, 20160, Note_on_c, 1, 48, 64
3, 20252, Note_off_c, 1, 48, 100
3, 20256, Note_on_c, 1, 50, 64
3, 20348, Note_off_c, 1, 50, 100
3, 20352, Note_on_c, 1, 52, 64
3, 20444, Note_off_c, 1, 52, 100
3, 20448, Note_on_c, 1, 50, 64
3, 20540, Note_off_c, 1, 50, 100
3, 20544, Note_on_c, 1, 53, 64
3, 20672, Note_off_c, 1, 53, 100
3, 20736, Note_on_c, 1, 53, 64
3, 20828, Note_off_c, 1, 53, 100
3, 20832, Note_on_c, 1, 52, 64
3, 20972, Note_off_c, 1, 52, 100
3, 20976, Note_on_c, 1, 53, 64
3, 21020, Note_off_c, 1, 53, 100
3, 21024, Note_on_c, 1, 52, 64
3, 21068, Note_off_c, 1, 52, 100
3, 21072, Note_on_c, 1, 51, 64
3, 21116, Note_off_c, 1, 51, 100
3, 21120, Note_on_c, 1, 52, 64
3, 21308, Note_off_c, 1, 52, 100
3, 21312, Note_on_c, 1, 60, 64
3, 21440, Note_off_c, 1, 60, 100
3, 21696, Note_on_c, 1, 52, 64
3, 21824, Note_off_c, 1, 52, 100
3, 21888, Note_on_c, 1, 51, 64
3, 21980, Note_off_c, 1, 51, 100
3, 21984, Note_on_c, 1, 52, 64
3, 22076, Note_off_c, 1, 52, 100
3, 22080, Note_on_c, 1, 51, 64
3, 22172, Note_off_c, 1, 51, 100
3, 22176, Note_on_c, 1, 49, 64
3, 22268, Note_off_c, 1, 49, 100
3, 22272, Note_on_c, 1, 51, 64
3, 22364, Note_off_c, 1, 51, 100
3, 22368, Note_on_c, 1, 52, 64
3, 22460, Note_off_c, 1, 52, 100
3, 22464, Note_on_c, 1, 54, 64
3, 22556, Note_off_c, 1, 54, 100
3, 22560, Note_on_c, 1, 55, 64
3, 22652, Note_off_c, 1, 55, 100
3, 22656, Note_on_c, 1, 57, 64
3, 22748, Note_off_c, 1, 57, 100
3, 22752, Note_on_c, 1, 59, 64
3, 22844, Note_off_c, 1, 59, 100
3, 22848, Note_on_c, 1, 61, 64
3, 22940, Note_off_c, 1, 61, 100
3, 22944, Note_on_c, 1, 63, 64
3, 23036, Note_off_c, 1, 63, 100
3, 23040, Note_on_c, 1, 64, 64
3, 24188, Note_off_c, 1, 64, 100
3, 24384, Note_on_c, 1, 64, 64
3, 24476, Note_off_c, 1, 64, 100
3, 24480, Note_on_c, 1, 63, 64
3, 24572, Note_off_c, 1, 63, 100
3, 24576, Note_on_c, 1, 64, 64
3, 24704, Note_off_c, 1, 64, 100
3, 24768, Note_on_c, 1, 64, 64
3, 24896, Note_off_c, 1, 64, 100
3, 24960, Note_on_c, 1, 64, 64
3, 25088, Note_off_c, 1, 64, 100
3, 25152, Note_on_c, 1, 63, 64
3, 25244, Note_off_c, 1, 63, 100
3, 25248, Note_on_c, 1, 61, 64
3, 25340, Note_off_c, 1, 61, 100
3, 25344, Note_on_c, 1, 63, 64
3, 25724, Note_off_c, 1, 63, 100
3, 26112, Note_on_c, 1, 66, 64
3, 26492, Note_off_c, 1, 66, 100
3, 26592, Note_on_c, 1, 64, 64
3, 26684, Note_off_c, 1, 64, 100
3, 26688, Note_on_c, 1, 63, 64
3, 26780, Note_off_c, 1, 63, 100
3, 26784, Note_on_c, 1, 66, 64
3, 26876, Note_off_c, 1, 66, 100
3, 26880, Note_on_c, 1, 64, 64
3, 26972, Note_off_c, 1, 64, 100
3, 26976, Note_on_c, 1, 62, 64
3, 27068, Note_off_c, 1, 62, 100
3, 27072, Note_on_c, 1, 61, 64
3, 27164, Note_off_c, 1, 61, 100
3, 27168, Note_on_c, 1, 60, 64
3, 27260, Note_off_c, 1, 60, 100
3, 27264, Note_on_c, 1, 59, 64
3, 27356, Note_off_c, 1, 59, 100
3, 27360, Note_on_c, 1, 57, 64
3, 27452, Note_off_c, 1, 57, 100
3, 27456, Note_on_c, 1, 55, 64
3, 27548, Note_off_c, 1, 55, 100
3, 27552, Note_on_c, 1, 54, 64
3, 27644, Note_off_c, 1, 54, 100
3, 27648, Note_on_c, 1, 55, 64
3, 27836, Note_off_c, 1, 55, 100
3, 28896, Note_on_c, 1, 69, 64
3, 28988, Note_off_c, 1, 69, 100
3, 28992, Note_on_c, 1, 68, 64
3, 29084, Note_off_c, 1, 68, 100
3, 29088, Note_on_c, 1, 66, 64
3, 29180, Note_off_c, 1, 66, 100
3, 29184, Note_on_c, 1, 68, 64
3, 29276, Note_off_c, 1, 68, 100
3, 29280, Note_on_c, 1, 65, 64
3, 29372, Note_off_c, 1, 65, 100
3, 29376, Note_on_c, 1, 64, 64
3, 29468, Note_off_c, 1, 64, 100
3, 29472, Note_on_c, 1, 62, 64
3, 29564, Note_off_c, 1, 62, 100
3, 29568, Note_on_c, 1, 64, 64
3, 29660, Note_off_c, 1, 64, 100
3, 29664, Note_on_c, 1, 62, 64
3, 29756, Note_off_c, 1, 62, 100
3, 29760, Note_on_c, 1, 60, 64
3, 29852, Note_off_c, 1, 60, 100
3, 29856, Note_on_c, 1, 59, 64
3, 29948, Note_off_c, 1, 59, 100
3, 29952, Note_on_c, 1, 60, 64
3, 31100, Note_off_c, 1, 60, 100
3, 31296, Note_on_c, 1, 67, 64
3, 31424, Note_off_c, 1, 67, 100
3, 31488, Note_on_c, 1, 66, 64
3, 31616, Note_off_c, 1, 66, 100
3, 31680, Note_on_c, 1, 64, 64
3, 31808, Note_off_c, 1, 64, 100
3, 31872, Note_on_c, 1, 62, 64
3, 31964, Note_off_c, 1, 62, 100
3, 31968, Note_on_c, 1, 59, 64
3, 32060, Note_off_c, 1, 59, 100
3, 32064, Note_on_c, 1, 60, 64
3, 32156, Note_off_c, 1, 60, 100
3, 32160, Note_on_c, 1, 57, 64
3, 32252, Note_off_c, 1, 57, 100
3, 32256, Note_on_c, 1, 59, 64
3, 32384, Note_off_c, 1, 59, 100
3, 32448, Note_on_c, 1, 60, 64
3, 32636, Note_off_c, 1, 60, 100
3, 32640, Note_on_c, 1, 59, 64
3, 32828, Note_off_c, 1, 59, 100
3, 32832, Note_on_c, 1, 57, 64
3, 32960, Note_off_c, 1, 57, 100
3, 33024, Note_on_c, 1, 57, 64
3, 33036, Note_off_c, 1, 57, 100
3, 33040, Note_on_c, 1, 55, 64
3, 33052, Note_off_c, 1, 55, 100
3, 33056, Note_on_c, 1, 57, 64
3, 33068, Note_off_c, 1, 57, 100
3, 33072, Note_on_c, 1, 55, 64
3, 33308, Note_off_c, 1, 55, 99
3, 33312, Note_on_c, 1, 54, 64
3, 33404, Note_off_c, 1, 54, 100
3, 33408, Note_on_c, 1, 55, 64
3, 33788, Note_off_c, 1, 55, 100
3, 33888, Note_on_c, 1, 59, 64
3, 33980, Note_off_c, 1, 59, 100
3, 33984, Note_on_c, 1, 57, 64
3, 34076, Note_off_c, 1, 57, 100
3, 34080, Note_on_c, 1, 55, 64
3, 34172, Note_off_c, 1, 55, 100
3, 34176, Note_on_c, 1, 54, 64
3, 34268, Note_off_c, 1, 54, 100
3, 34272, Note_on_c, 1, 52, 64
3, 34364, Note_off_c, 1, 52, 100
3, 34368, Note_on_c, 1, 50, 64
3, 34460, Note_off_c, 1, 50, 100
3, 34464, Note_on_c, 1, 48, 64
3, 34556, Note_off_c, 1, 48, 100
3, 34560, Note_on_c, 1, 47, 64
3, 34652, Note_off_c, 1, 47, 100
3, 34656, Note_on_c, 1, 50, 64
3, 34748, Note_off_c, 1, 50, 100
3, 34752, Note_on_c, 1, 55, 64
3, 34844, Note_off_c, 1, 55, 100
3, 34848, Note_on_c, 1, 59, 64
3, 34940, Note_off_c, 1, 59, 100
3, 34944, Note_on_c, 1, 62, 64
3, 35072, Note_off_c, 1, 62, 100
3, 35136, Note_on_c, 1, 55, 64
3, 35420, Note_off_c, 1, 55, 100
3, 35424, Note_on_c, 1, 57, 64
3, 35516, Note_off_c, 1, 57, 100
3, 35520, Note_on_c, 1, 54, 64
3, 35708, Note_off_c, 1, 54, 100
3, 35712, Note_on_c, 1, 55, 64
3, 36092, Note_off_c, 1, 55, 100
3, 36092, End_track
4, 0, Start_track
4, 0, Title_t, "BWV 988"
4, 0, Control_c, 2, 0, 0
4, 0, Program_c, 2, 6
4, 0, Control_c, 2, 7, 127
4, 0, Control_c, 2, 10, 60
4, 0, Control_c, 2, 91, 127
4, 0, Key_signature, 1, "major"
4, 0, Note_on_c, 2, 55, 64
4, 256, Note_off_c, 2, 55, 100
4, 384, Note_on_c, 2, 55, 64
4, 764, Note_off_c, 2, 55, 100
4, 768, Note_on_c, 2, 55, 64
4, 1148, Note_off_c, 2, 55, 100
4, 1152, Note_on_c, 2, 54, 64
4, 1408, Note_off_c, 2, 54, 100
4, 1536, Note_on_c, 2, 54, 64
4, 1916, Note_off_c, 2, 54, 100
4, 1920, Note_on_c, 2, 54, 64
4, 2300, Note_off_c, 2, 54, 100
4, 2304, Note_on_c, 2, 52, 64
4, 2560, Note_off_c, 2, 52, 100
4, 2688, Note_on_c, 2, 52, 64
4, 3068, Note_off_c, 2, 52, 100
4, 3072, Note_on_c, 2, 52, 64
4, 3452, Note_off_c, 2, 52, 100
4, 3456, Note_on_c, 2, 50, 64
4, 3548, Note_off_c, 2, 50, 100
4, 3552, Note_on_c, 2, 38, 64
4, 3644, Note_off_c, 2, 38, 100
4, 3648, Note_on_c, 2, 50, 64
4, 3836, Note_off_c, 2, 50, 100
4, 4032, Note_on_c, 2, 48, 64
4, 4124, Note_off_c, 2, 48, 100
4, 4128, Note_on_c, 2, 47, 64
4, 4220, Note_off_c, 2, 47, 100
4, 4224, Note_on_c, 2, 45, 64
4, 4412, Note_off_c, 2, 45, 100
4, 4416, Note_on_c, 2, 48, 64
4, 4604, Note_off_c, 2, 48, 100
4, 4608, Note_on_c, 2, 47, 64
4, 4864, Note_off_c, 2, 47, 100
4, 4992, Note_on_c, 2, 47, 64
4, 5372, Note_off_c, 2, 47, 100
4, 5376, Note_on_c, 2, 47, 64
4, 5756, Note_off_c, 2, 47, 100
4, 5760, Note_on_c, 2, 48, 64
4, 6016, Note_off_c, 2, 48, 100
4, 6144, Note_on_c, 2, 48, 64
4, 6524, Note_off_c, 2, 48, 100
4, 6528, Note_on_c, 2, 48, 64
4, 6908, Note_off_c, 2, 48, 100
4, 6912, Note_on_c, 2, 50, 64
4, 7168, Note_off_c, 2, 50, 100
4, 7296, Note_on_c, 2, 50, 64
4, 7676, Note_off_c, 2, 50, 100
4, 7680, Note_on_c, 2, 50, 64
4, 8060, Note_off_c, 2, 50, 100
4, 8064, Note_on_c, 2, 55, 64
4, 8256, Note_off_c, 2, 55, 100
4, 8352, Note_on_c, 2, 47, 64
4, 8444, Note_off_c, 2, 47, 100
4, 8448, Note_on_c, 2, 52, 64
4, 8540, Note_off_c, 2, 52, 100
4, 8544, Note_on_c, 2, 50, 64
4, 8636, Note_off_c, 2, 50, 100
4, 8640, Note_on_c, 2, 48, 64
4, 8732, Note_off_c, 2, 48, 100
4, 8736, Note_on_c, 2, 52, 64
4, 8828, Note_off_c, 2, 52, 100
4, 8832, Note_on_c, 2, 50, 64
4, 8924, Note_off_c, 2, 50, 100
4, 8928, Note_on_c, 2, 48, 64
4, 9020, Note_off_c, 2, 48, 100
4, 9024, Note_on_c, 2, 47, 64
4, 9116, Note_off_c, 2, 47, 100
4, 9120, Note_on_c, 2, 45, 64
4, 9212, Note_off_c, 2, 45, 100
4, 9216, Note_on_c, 2, 47, 64
4, 9344, Note_off_c, 2, 47, 100
4, 9408, Note_on_c, 2, 43, 64
4, 9536, Note_off_c, 2, 43, 100
4, 9792, Note_on_c, 2, 55, 64
4, 9884, Note_off_c, 2, 55, 100
4, 9888, Note_on_c, 2, 54, 64
4, 9980, Note_off_c, 2, 54, 100
4, 9984, Note_on_c, 2, 55, 64
4, 10112, Note_off_c, 2, 55, 100
4, 10176, Note_on_c, 2, 52, 64
4, 10304, Note_off_c, 2, 52, 100
4, 10368, Note_on_c, 2, 54, 64
4, 10496, Note_off_c, 2, 54, 100
4, 10560, Note_on_c, 2, 59, 64
4, 10688, Note_off_c, 2, 59, 100
4, 10944, Note_on_c, 2, 47, 64
4, 11036, Note_off_c, 2, 47, 100
4, 11040, Note_on_c, 2, 49, 64
4, 11132, Note_off_c, 2, 49, 100
4, 11136, Note_on_c, 2, 50, 64
4, 11264, Note_off_c, 2, 50, 100
4, 11328, Note_on_c, 2, 47, 64
4, 11456, Note_off_c, 2, 47, 100
4, 11520, Note_on_c, 2, 52, 64
4, 11612, Note_off_c, 2, 52, 100
4, 11616, Note_on_c, 2, 54, 64
4, 11708, Note_off_c, 2, 54, 100
4, 11712, Note_on_c, 2, 55, 64
4, 11804, Note_off_c, 2, 55, 100
4, 11808, Note_on_c, 2, 54, 64
4, 11900, Note_off_c, 2, 54, 100
4, 11904, Note_on_c, 2, 52, 64
4, 12032, Note_off_c, 2, 52, 100
4, 12096, Note_on_c, 2, 54, 64
4, 12224, Note_off_c, 2, 54, 100
4, 12288, Note_on_c, 2, 52, 64
4, 12416, Note_off_c, 2, 52, 100
4, 12480, Note_on_c, 2, 50, 64
4, 12608, Note_off_c, 2, 50, 100
4, 12672, Note_on_c, 2, 49, 64
4, 12764, Note_off_c, 2, 49, 100
4, 12768, Note_on_c, 2, 50, 64
4, 12860, Note_off_c, 2, 50, 100
4, 12864, Note_on_c, 2, 52, 64
4, 12956, Note_off_c, 2, 52, 100
4, 12960, Note_on_c, 2, 50, 64
4, 13052, Note_off_c, 2, 50, 100
4, 13056, Note_on_c, 2, 49, 64
4, 13184, Note_off_c, 2, 49, 100
4, 13248, Note_on_c, 2, 52, 64
4, 13376, Note_off_c, 2, 52, 100
4, 13440, Note_on_c, 2, 49, 64
4, 13568, Note_off_c, 2, 49, 100
4, 13632, Note_on_c, 2, 45, 64
4, 13760, Note_off_c, 2, 45, 100
4, 13824, Note_on_c, 2, 50, 64
4, 14204, Note_off_c, 2, 50, 100
4, 14208, Note_on_c, 2, 50, 64
4, 14300, Note_off_c, 2, 50, 100
4, 14304, Note_on_c, 2, 52, 64
4, 14396, Note_off_c, 2, 52, 100
4, 14400, Note_on_c, 2, 54, 64
4, 14492, Note_off_c, 2, 54, 100
4, 14496, Note_on_c, 2, 55, 64
4, 14588, Note_off_c, 2, 55, 100
4, 14592, Note_on_c, 2, 57, 64
4, 14684, Note_off_c, 2, 57, 100
4, 14688, Note_on_c, 2, 55, 64
4, 14780, Note_off_c, 2, 55, 100
4, 14784, Note_on_c, 2, 54, 64
4, 14876, Note_off_c, 2, 54, 100
4, 14976, Note_on_c, 2, 55, 64
4, 15104, Note_off_c, 2, 55, 100
4, 15168, Note_on_c, 2, 43, 64
4, 15296, Note_off_c, 2, 43, 100
4, 15456, Note_on_c, 2, 52, 64
4, 15548, Note_off_c, 2, 52, 100
4, 15552, Note_on_c, 2, 54, 64
4, 15644, Note_off_c, 2, 54, 100
4, 15648, Note_on_c, 2, 55, 64
4, 15740, Note_off_c, 2, 55, 100
4, 15744, Note_on_c, 2, 57, 64
4, 15836, Note_off_c, 2, 57, 100
4, 15840, Note_on_c, 2, 54, 64
4, 15932, Note_off_c, 2, 54, 100
4, 15936, Note_on_c, 2, 52, 64
4, 16028, Note_off_c, 2, 52, 100
4, 16032, Note_on_c, 2, 50, 64
4, 16096, Note_off_c, 2, 50, 100
4, 16128, Note_on_c, 2, 59, 64
4, 16220, Note_off_c, 2, 59, 100
4, 16224, Note_on_c, 2, 47, 64
4, 16316, Note_off_c, 2, 47, 100
4, 16320, Note_on_c, 2, 52, 64
4, 16412, Note_off_c, 2, 52, 100
4, 16416, Note_on_c, 2, 50, 64
4, 16508, Note_off_c, 2, 50, 100
4, 16512, Note_on_c, 2, 49, 64
4, 16604, Note_off_c, 2, 49, 100
4, 16608, Note_on_c, 2, 45, 64
4, 16700, Note_off_c, 2, 45, 100
4, 16704, Note_on_c, 2, 50, 64
4, 16796, Note_off_c, 2, 50, 100
4, 16800, Note_on_c, 2, 55, 64
4, 16892, Note_off_c, 2, 55, 100
4, 16896, Note_on_c, 2, 57, 64
4, 16988, Note_off_c, 2, 57, 100
4, 16992, Note_on_c, 2, 52, 64
4, 17084, Note_off_c, 2, 52, 100
4, 17088, Note_on_c, 2, 49, 64
4, 17180, Note_off_c, 2, 49, 100
4, 17184, Note_on_c, 2, 45, 64
4, 17276, Note_off_c, 2, 45, 100
4, 17280, Note_on_c, 2, 50, 64
4, 17344, Note_off_c, 2, 50, 100
4, 17376, Note_on_c, 2, 52, 64
4, 17468, Note_off_c, 2, 52, 100
4, 17472, Note_on_c, 2, 50, 64
4, 17564, Note_off_c, 2, 50, 100
4, 17568, Note_on_c, 2, 49, 64
4, 17660, Note_off_c, 2, 49, 100
4, 17664, Note_on_c, 2, 50, 64
4, 17792, Note_off_c, 2, 50, 100
4, 17856, Note_on_c, 2, 45, 64
4, 17984, Note_off_c, 2, 45, 100
4, 18048, Note_on_c, 2, 38, 64
4, 18176, Note_off_c, 2, 38, 100
4, 18432, Note_on_c, 2, 50, 64
4, 18688, Note_off_c, 2, 50, 100
4, 18816, Note_on_c, 2, 50, 64
4, 19196, Note_off_c, 2, 50, 100
4, 19200, Note_on_c, 2, 48, 64
4, 19580, Note_off_c, 2, 48, 100
4, 19584, Note_on_c, 2, 47, 64
4, 19772, Note_off_c, 2, 47, 100
4, 19776, Note_on_c, 2, 48, 64
4, 19964, Note_off_c, 2, 48, 100
4, 19968, Note_on_c, 2, 47, 64
4, 20156, Note_off_c, 2, 47, 100
4, 20160, Note_on_c, 2, 45, 64
4, 20348, Note_off_c, 2, 45, 100
4, 20352, Note_on_c, 2, 43, 64
4, 20540, Note_off_c, 2, 43, 100
4, 20544, Note_on_c, 2, 45, 64
4, 20636, Note_off_c, 2, 45, 100
4, 20640, Note_on_c, 2, 47, 64
4, 20732, Note_off_c, 2, 47, 100
4, 20736, Note_on_c, 2, 48, 64
4, 20924, Note_off_c, 2, 48, 100
4, 20928, Note_on_c, 2, 47, 64
4, 21116, Note_off_c, 2, 47, 100
4, 21120, Note_on_c, 2, 48, 64
4, 21308, Note_off_c, 2, 48, 100
4, 21312, Note_on_c, 2, 52, 64
4, 21500, Note_off_c, 2, 52, 100
4, 21504, Note_on_c, 2, 45, 64
4, 21692, Note_off_c, 2, 45, 100
4, 21696, Note_on_c, 2, 48, 64
4, 21884, Note_off_c, 2, 48, 100
4, 21888, Note_on_c, 2, 47, 64
4, 22268, Note_off_c, 2, 47, 100
4, 23232, Note_on_c, 2, 52, 64
4, 23420, Note_off_c, 2, 52, 100
4, 23424, Note_on_c, 2, 54, 64
4, 23612, Note_off_c, 2, 54, 100
4, 23616, Note_on_c, 2, 55, 64
4, 23804, Note_off_c, 2, 55, 100
4, 23808, Note_on_c, 2, 57, 64
4, 23996, Note_off_c, 2, 57, 100
4, 24000, Note_on_c, 2, 59, 64
4, 24188, Note_off_c, 2, 59, 100
4, 24192, Note_on_c, 2, 60, 64
4, 24256, Note_off_c, 2, 60, 100
4, 24288, Note_on_c, 2, 62, 64
4, 24380, Note_off_c, 2, 62, 100
4, 24384, Note_on_c, 2, 60, 64
4, 24476, Note_off_c, 2, 60, 100
4, 24480, Note_on_c, 2, 59, 64
4, 24572, Note_off_c, 2, 59, 100
4, 24576, Note_on_c, 2, 60, 64
4, 24668, Note_off_c, 2, 60, 100
4, 24672, Note_on_c, 2, 59, 64
4, 24764, Note_off_c, 2, 59, 100
4, 24768, Note_on_c, 2, 57, 64
4, 24860, Note_off_c, 2, 57, 100
4, 24864, Note_on_c, 2, 55, 64
4, 24956, Note_off_c, 2, 55, 100
4, 24960, Note_on_c, 2, 57, 64
4, 25052, Note_off_c, 2, 57, 100
4, 25056, Note_on_c, 2, 54, 64
4, 25148, Note_off_c, 2, 54, 100
4, 25152, Note_on_c, 2, 55, 64
4, 25244, Note_off_c, 2, 55, 100
4, 25248, Note_on_c, 2, 57, 64
4, 25340, Note_off_c, 2, 57, 100
4, 25344, Note_on_c, 2, 59, 64
4, 25408, Note_off_c, 2, 59, 100
4, 25440, Note_on_c, 2, 60, 64
4, 25532, Note_off_c, 2, 60, 100
4, 25536, Note_on_c, 2, 59, 64
4, 25628, Note_off_c, 2, 59, 100
4, 25632, Note_on_c, 2, 57, 64
4, 25724, Note_off_c, 2, 57, 100
4, 25728, Note_on_c, 2, 59, 64
4, 25820, Note_off_c, 2, 59, 100
4, 25824, Note_on_c, 2, 54, 64
4, 25916, Note_off_c, 2, 54, 100
4, 25920, Note_on_c, 2, 51, 64
4, 26012, Note_off_c, 2, 51, 100
4, 26016, Note_on_c, 2, 54, 64
4, 26108, Note_off_c, 2, 54, 100
4, 26112, Note_on_c, 2, 47, 64
4, 26204, Note_off_c, 2, 47, 100
4, 26208, Note_on_c, 2, 51, 64
4, 26300, Note_off_c, 2, 51, 100
4, 26304, Note_on_c, 2, 49, 64
4, 26396, Note_off_c, 2, 49, 100
4, 26400, Note_on_c, 2, 47, 64
4, 26492, Note_off_c, 2, 47, 100
4, 26496, Note_on_c, 2, 52, 64
4, 26560, Note_off_c, 2, 52, 100
4, 26592, Note_on_c, 2, 48, 64
4, 26684, Note_off_c, 2, 48, 100
4, 26688, Note_on_c, 2, 47, 64
4, 26780, Note_off_c, 2, 47, 100
4, 26784, Note_on_c, 2, 45, 64
4, 26876, Note_off_c, 2, 45, 100
4, 26880, Note_on_c, 2, 43, 64
4, 26972, Note_off_c, 2, 43, 100
4, 26976, Note_on_c, 2, 47, 64
4, 27068, Note_off_c, 2, 47, 100
4, 27072, Note_on_c, 2, 52, 64
4, 27164, Note_off_c, 2, 52, 100
4, 27168, Note_on_c, 2, 51, 64
4, 27260, Note_off_c, 2, 51, 100
4, 27264, Note_on_c, 2, 52, 64
4, 27452, Note_off_c, 2, 52, 100
4, 27456, Note_on_c, 2, 50, 64
4, 27644, Note_off_c, 2, 50, 100
4, 27648, Note_on_c, 2, 48, 64
4, 27776, Note_off_c, 2, 48, 100
4, 27840, Note_on_c, 2, 60, 64
4, 27968, Note_off_c, 2, 60, 100
4, 28128, Note_on_c, 2, 52, 64
4, 28220, Note_off_c, 2, 52, 100
4, 28224, Note_on_c, 2, 50, 64
4, 28316, Note_off_c, 2, 50, 100
4, 28320, Note_on_c, 2, 48, 64
4, 28412, Note_off_c, 2, 48, 100
4, 28416, Note_on_c, 2, 50, 64
4, 28508, Note_off_c, 2, 50, 100
4, 28512, Note_on_c, 2, 48, 64
4, 28604, Note_off_c, 2, 48, 100
4, 28608, Note_on_c, 2, 47, 64
4, 28700, Note_off_c, 2, 47, 100
4, 28704, Note_on_c, 2, 45, 64
4, 28796, Note_off_c, 2, 45, 100
4, 28800, Note_on_c, 2, 47, 64
4, 28928, Note_off_c, 2, 47, 100
4, 28992, Note_on_c, 2, 59, 64
4, 29120, Note_off_c, 2, 59, 100
4, 29280, Note_on_c, 2, 50, 64
4, 29372, Note_off_c, 2, 50, 100
4, 29376, Note_on_c, 2, 48, 64
4, 29468, Note_off_c, 2, 48, 100
4, 29472, Note_on_c, 2, 47, 64
4, 29564, Note_off_c, 2, 47, 100
4, 29568, Note_on_c, 2, 48, 64
4, 29660, Note_off_c, 2, 48, 100
4, 29664, Note_on_c, 2, 47, 64
4, 29756, Note_off_c, 2, 47, 100
4, 29760, Note_on_c, 2, 45, 64
4, 29852, Note_off_c, 2, 45, 100
4, 29856, Note_on_c, 2, 44, 64
4, 29948, Note_off_c, 2, 44, 100
4, 29952, Note_on_c, 2, 45, 64
4, 30080, Note_off_c, 2, 45, 100
4, 30144, Note_on_c, 2, 57, 64
4, 30272, Note_off_c, 2, 57, 100
4, 30432, Note_on_c, 2, 59, 64
4, 30524, Note_off_c, 2, 59, 100
4, 30528, Note_on_c, 2, 57, 64
4, 30620, Note_off_c, 2, 57, 100
4, 30624, Note_on_c, 2, 55, 64
4, 30704, Note_off_c, 2, 55, 100
4, 30720, Note_on_c, 2, 57, 64
4, 30812, Note_off_c, 2, 57, 100
4, 30816, Note_on_c, 2, 55, 64
4, 30908, Note_off_c, 2, 55, 100
4, 30912, Note_on_c, 2, 54, 64
4, 31004, Note_off_c, 2, 54, 100
4, 31008, Note_on_c, 2, 52, 64
4, 31088, Note_off_c, 2, 52, 100
4, 31104, Note_on_c, 2, 54, 64
4, 31196, Note_off_c, 2, 54, 100
4, 31200, Note_on_c, 2, 52, 64
4, 31292, Note_off_c, 2, 52, 100
4, 31296, Note_on_c, 2, 50, 64
4, 31388, Note_off_c, 2, 50, 100
4, 31392, Note_on_c, 2, 49, 64
4, 31472, Note_off_c, 2, 49, 100
4, 31488, Note_on_c, 2, 50, 64
4, 31580, Note_off_c, 2, 50, 100
4, 31584, Note_on_c, 2, 48, 64
4, 31676, Note_off_c, 2, 48, 100
4, 31680, Note_on_c, 2, 47, 64
4, 31772, Note_off_c, 2, 47, 100
4, 31776, Note_on_c, 2, 45, 64
4, 31856, Note_off_c, 2, 45, 100
4, 31872, Note_on_c, 2, 47, 64
4, 31964, Note_off_c, 2, 47, 100
4, 31968, Note_on_c, 2, 45, 64
4, 32060, Note_off_c, 2, 45, 100
4, 32064, Note_on_c, 2, 43, 64
4, 32156, Note_off_c, 2, 43, 100
4, 32160, Note_on_c, 2, 42, 64
4, 32252, Note_off_c, 2, 42, 100
4, 32256, Note_on_c, 2, 43, 64
4, 32320, Note_off_c, 2, 43, 100
4, 32352, Note_on_c, 2, 57, 64
4, 32444, Note_off_c, 2, 57, 100
4, 32448, Note_on_c, 2, 55, 64
4, 32540, Note_off_c, 2, 55, 100
4, 32544, Note_on_c, 2, 54, 64
4, 32624, Note_off_c, 2, 54, 100
4, 32640, Note_on_c, 2, 55, 64
4, 32732, Note_off_c, 2, 55, 100
4, 32736, Note_on_c, 2, 54, 64
4, 32828, Note_off_c, 2, 54, 100
4, 32832, Note_on_c, 2, 52, 64
4, 32924, Note_off_c, 2, 52, 100
4, 32928, Note_on_c, 2, 51, 64
4, 33020, Note_off_c, 2, 51, 100
4, 33024, Note_on_c, 2, 52, 64
4, 33404, Note_off_c, 2, 52, 100
4, 33504, Note_on_c, 2, 50, 64
4, 33596, Note_off_c, 2, 50, 100
4, 33600, Note_on_c, 2, 48, 64
4, 33692, Note_off_c, 2, 48, 100
4, 33696, Note_on_c, 2, 52, 64
4, 33788, Note_off_c, 2, 52, 100
4, 33792, Note_on_c, 2, 50, 64
4, 34364, Note_off_c, 2, 50, 100
4, 34368, Note_on_c, 2, 45, 64
4, 34556, Note_off_c, 2, 45, 100
4, 34560, Note_on_c, 2, 47, 64
4, 34748, Note_off_c, 2, 47, 100
4, 35136, Note_on_c, 2, 52, 64
4, 35324, Note_off_c, 2, 52, 100
4, 35328, Note_on_c, 2, 48, 64
4, 35516, Note_off_c, 2, 48, 100
4, 35520, Note_on_c, 2, 50, 64
4, 35708, Note_off_c, 2, 50, 100
4, 35712, Note_on_c, 2, 43, 64
4, 36092, Note_off_c, 2, 43, 100
4, 36192, Note_on_c, 2, 47, 64
4, 36284, Note_off_c, 2, 47, 100
4, 36288, Note_on_c, 2, 50, 64
4, 36380, Note_off_c, 2, 50, 100
4, 36384, Note_on_c, 2, 54, 64
4, 36568, Note_off_c, 2, 54, 100
4, 36572, Note_on_c, 2, 55, 64
4, 36952, Note_off_c, 2, 55, 64
4, 36952, End_track
5, 0, Start_track
5, 0, Title_t, "Johann Sebastian Bach"
5, 0, Control_c, 3, 0, 0
5, 0, Program_c, 3, 6
5, 0, Control_c, 3, 7, 127
5, 0, Control_c, 3, 10, 93
5, 0, Control_c, 3, 91, 127
5, 0, Key_signature, 1, "major"
5, 192, Note_on_c, 3, 79, 127
5, 284, Note_off_c, 3, 79, 100
5, 288, Note_on_c, 3, 78, 127
5, 380, Note_off_c, 3, 78, 100
5, 384, Note_on_c, 3, 79, 127
5, 572, Note_off_c, 3, 79, 100
5, 576, Note_on_c, 3, 81, 127
5, 668, Note_off_c, 3, 81, 100
5, 672, Note_on_c, 3, 83, 127
5, 764, Note_off_c, 3, 83, 100
5, 768, Note_on_c, 3, 84, 127
5, 860, Note_off_c, 3, 84, 100
5, 864, Note_on_c, 3, 83, 127
5, 956, Note_off_c, 3, 83, 100
5, 960, Note_on_c, 3, 81, 127
5, 1052, Note_off_c, 3, 81, 100
5, 1056, Note_on_c, 3, 79, 127
5, 1148, Note_off_c, 3, 79, 100
5, 1152, Note_on_c, 3, 86, 127
5, 1244, Note_off_c, 3, 86, 100
5, 1248, Note_on_c, 3, 81, 127
5, 1340, Note_off_c, 3, 81, 100
5, 1344, Note_on_c, 3, 83, 127
5, 1436, Note_off_c, 3, 83, 100
5, 1440, Note_on_c, 3, 85, 127
5, 1532, Note_off_c, 3, 85, 100
5, 1536, Note_on_c, 3, 86, 127
5, 1628, Note_off_c, 3, 86, 100
5, 1632, Note_on_c, 3, 88, 127
5, 1724, Note_off_c, 3, 88, 100
5, 1728, Note_on_c, 3, 90, 127
5, 1820, Note_off_c, 3, 90, 100
5, 1824, Note_on_c, 3, 91, 127
5, 1916, Note_off_c, 3, 91, 100
5, 1920, Note_on_c, 3, 93, 127
5, 2108, Note_off_c, 3, 93, 100
5, 2496, Note_on_c, 3, 91, 127
5, 2588, Note_off_c, 3, 91, 100
5, 2592, Note_on_c, 3, 90, 127
5, 2684, Note_off_c, 3, 90, 100
5, 2688, Note_on_c, 3, 88, 127
5, 2780, Note_off_c, 3, 88, 100
5, 2784, Note_on_c, 3, 86, 127
5, 2876, Note_off_c, 3, 86, 100
5, 2880, Note_on_c, 3, 85, 127
5, 2972, Note_off_c, 3, 85, 100
5, 2976, Note_on_c, 3, 83, 127
5, 3068, Note_off_c, 3, 83, 100
5, 3072, Note_on_c, 3, 81, 127
5, 3164, Note_off_c, 3, 81, 100
5, 3168, Note_on_c, 3, 79, 127
5, 3260, Note_off_c, 3, 79, 100
5, 3264, Note_on_c, 3, 78, 127
5, 3356, Note_off_c, 3, 78, 100
5, 3360, Note_on_c, 3, 79, 127
5, 3424, Note_off_c, 3, 79, 100
5, 3456, Note_on_c, 3, 79, 127
5, 3584, Note_off_c, 3, 79, 100
5, 3648, Note_on_c, 3, 79, 127
5, 3660, Note_off_c, 3, 79, 100
5, 3664, Note_on_c, 3, 78, 127
5, 3676, Note_off_c, 3, 78, 100
5, 3680, Note_on_c, 3, 79, 127
5, 3692, Note_off_c, 3, 79, 100
5, 3696, Note_on_c, 3, 78, 127
5, 3740, Note_off_c, 3, 78, 100
5, 3744, Note_on_c, 3, 76, 127
5, 3836, Note_off_c, 3, 76, 100
5, 3840, Note_on_c, 3, 74, 127
5, 4028, Note_off_c, 3, 74, 100
5, 4704, Note_on_c, 3, 86, 127
5, 4988, Note_off_c, 3, 86, 100
5, 5088, Note_on_c, 3, 83, 127
5, 5180, Note_off_c, 3, 83, 100
5, 5184, Note_on_c, 3, 81, 127
5, 5276, Note_off_c, 3, 81, 100
5, 5280, Note_on_c, 3, 79, 127
5, 5372, Note_off_c, 3, 79, 100
5, 5376, Note_on_c, 3, 77, 127
5, 5468, Note_off_c, 3, 77, 100
5, 5472, Note_on_c, 3, 76, 127
5, 5564, Note_off_c, 3, 76, 100
5, 5568, Note_on_c, 3, 74, 127
5, 5660, Note_off_c, 3, 74, 100
5, 5664, Note_on_c, 3, 77, 127
5, 5756, Note_off_c, 3, 77, 100
5, 5760, Note_on_c, 3, 76, 127
5, 5852, Note_off_c, 3, 76, 100
5, 5856, Note_on_c, 3, 79, 127
5, 5948, Note_off_c, 3, 79, 100
5, 5952, Note_on_c, 3, 84, 127
5, 6044, Note_off_c, 3, 84, 100
5, 6048, Note_on_c, 3, 86, 127
5, 6140, Note_off_c, 3, 86, 100
5, 6144, Note_on_c, 3, 88, 127
5, 6272, Note_off_c, 3, 88, 100
5, 6336, Note_on_c, 3, 81, 127
5, 6592, Note_off_c, 3, 81, 100
5, 6720, Note_on_c, 3, 81, 127
5, 7004, Note_off_c, 3, 81, 100
5, 7008, Note_on_c, 3, 83, 127
5, 7100, Note_off_c, 3, 83, 100
5, 7104, Note_on_c, 3, 78, 127
5, 7196, Note_off_c, 3, 78, 100
5, 7200, Note_on_c, 3, 79, 127
5, 7292, Note_off_c, 3, 79, 100
5, 7296, Note_on_c, 3, 81, 127
5, 7388, Note_off_c, 3, 81, 100
5, 7392, Note_on_c, 3, 79, 127
5, 7484, Note_off_c, 3, 79, 100
5, 7488, Note_on_c, 3, 78, 127
5, 7580, Note_off_c, 3, 78, 100
5, 7584, Note_on_c, 3, 88, 127
5, 7676, Note_off_c, 3, 88, 100
5, 7680, Note_on_c, 3, 86, 127
5, 7772, Note_off_c, 3, 86, 100
5, 7776, Note_on_c, 3, 84, 127
5, 7868, Note_off_c, 3, 84, 100
5, 7872, Note_on_c, 3, 83, 127
5, 7964, Note_off_c, 3, 83, 100
5, 7968, Note_on_c, 3, 81, 127
5, 8060, Note_off_c, 3, 81, 100
5, 8064, Note_on_c, 3, 79, 127
5, 8444, Note_off_c, 3, 79, 100
5, 9312, Note_on_c, 3, 78, 127
5, 9404, Note_off_c, 3, 78, 100
5, 9408, Note_on_c, 3, 79, 127
5, 9500, Note_off_c, 3, 79, 100
5, 9504, Note_on_c, 3, 81, 127
5, 9596, Note_off_c, 3, 81, 100
5, 9600, Note_on_c, 3, 83, 127
5, 9692, Note_off_c, 3, 83, 100
5, 9696, Note_on_c, 3, 85, 127
5, 9788, Note_off_c, 3, 85, 100
5, 9792, Note_on_c, 3, 86, 127
5, 9884, Note_off_c, 3, 86, 100
5, 9888, Note_on_c, 3, 90, 127
5, 9980, Note_off_c, 3, 90, 100
5, 9984, Note_on_c, 3, 88, 127
5, 10076, Note_off_c, 3, 88, 100
5, 10080, Note_on_c, 3, 86, 127
5, 10172, Note_off_c, 3, 86, 100
5, 10176, Note_on_c, 3, 85, 127
5, 10268, Note_off_c, 3, 85, 100
5, 10272, Note_on_c, 3, 83, 127
5, 10364, Note_off_c, 3, 83, 100
5, 10368, Note_on_c, 3, 81, 127
5, 10460, Note_off_c, 3, 81, 100
5, 10464, Note_on_c, 3, 79, 127
5, 10556, Note_off_c, 3, 79, 100
5, 10560, Note_on_c, 3, 78, 127
5, 10652, Note_off_c, 3, 78, 100
5, 10656, Note_on_c, 3, 76, 127
5, 10748, Note_off_c, 3, 76, 100
5, 10752, Note_on_c, 3, 74, 127
5, 10940, Note_off_c, 3, 74, 100
5, 11712, Note_on_c, 3, 85, 127
5, 11900, Note_off_c, 3, 85, 100
5, 12000, Note_on_c, 3, 83, 127
5, 12092, Note_off_c, 3, 83, 100
5, 12096, Note_on_c, 3, 81, 127
5, 12188, Note_off_c, 3, 81, 100
5, 12192, Note_on_c, 3, 83, 127
5, 12284, Note_off_c, 3, 83, 100
5, 12288, Note_on_c, 3, 85, 127
5, 12380, Note_off_c, 3, 85, 100
5, 12384, Note_on_c, 3, 86, 127
5, 12476, Note_off_c, 3, 86, 100
5, 12480, Note_on_c, 3, 88, 127
5, 12572, Note_off_c, 3, 88, 100
5, 12576, Note_on_c, 3, 90, 127
5, 12668, Note_off_c, 3, 90, 100
5, 12672, Note_on_c, 3, 91, 127
5, 12800, Note_off_c, 3, 91, 100
5, 12864, Note_on_c, 3, 79, 127
5, 12956, Note_off_c, 3, 79, 100
5, 12960, Note_on_c, 3, 78, 127
5, 13052, Note_off_c, 3, 78, 100
5, 13056, Note_on_c, 3, 79, 127
5, 13436, Note_off_c, 3, 79, 100
5, 13536, Note_on_c, 3, 83, 127
5, 13628, Note_off_c, 3, 83, 100
5, 13632, Note_on_c, 3, 81, 127
5, 13724, Note_off_c, 3, 81, 100
5, 13728, Note_on_c, 3, 79, 127
5, 13820, Note_off_c, 3, 79, 100
5, 13824, Note_on_c, 3, 78, 127
5, 13916, Note_off_c, 3, 78, 100
5, 13920, Note_on_c, 3, 76, 127
5, 14012, Note_off_c, 3, 76, 100
5, 14016, Note_on_c, 3, 78, 127
5, 14108, Note_off_c, 3, 78, 100
5, 14112, Note_on_c, 3, 79, 127
5, 14204, Note_off_c, 3, 79, 100
5, 14208, Note_on_c, 3, 78, 127
5, 14300, Note_off_c, 3, 78, 100
5, 14304, Note_on_c, 3, 81, 127
5, 14396, Note_off_c, 3, 81, 100
5, 14400, Note_on_c, 3, 79, 127
5, 14492, Note_off_c, 3, 79, 100
5, 14496, Note_on_c, 3, 78, 127
5, 14588, Note_off_c, 3, 78, 100
5, 14592, Note_on_c, 3, 76, 127
5, 14972, Note_off_c, 3, 76, 100
5, 15168, Note_on_c, 3, 86, 127
5, 15296, Note_off_c, 3, 86, 100
5, 15360, Note_on_c, 3, 85, 127
5, 15488, Note_off_c, 3, 85, 100
5, 15552, Note_on_c, 3, 83, 127
5, 15680, Note_off_c, 3, 83, 100
5, 15744, Note_on_c, 3, 81, 127
5, 15872, Note_off_c, 3, 81, 100
5, 15936, Note_on_c, 3, 90, 127
5, 16064, Note_off_c, 3, 90, 100
5, 16128, Note_on_c, 3, 79, 127
5, 16512, Note_off_c, 3, 79, 100
5, 16704, Note_on_c, 3, 78, 127
5, 16892, Note_off_c, 3, 78, 100
5, 16896, Note_on_c, 3, 76, 127
5, 16988, Note_off_c, 3, 76, 100
5, 16992, Note_on_c, 3, 81, 127
5, 17084, Note_off_c, 3, 81, 100
5, 17088, Note_on_c, 3, 79, 127
5, 17468, Note_off_c, 3, 79, 100
5, 17472, Note_on_c, 3, 78, 127
5, 17564, Note_off_c, 3, 78, 100
5, 17568, Note_on_c, 3, 76, 127
5, 17660, Note_off_c, 3, 76, 100
5, 17664, Note_on_c, 3, 78, 127
5, 17728, Note_off_c, 3, 78, 100
5, 17760, Note_on_c, 3, 86, 127
5, 17948, Note_off_c, 3, 86, 100
5, 17952, Note_on_c, 3, 85, 127
5, 18044, Note_off_c, 3, 85, 100
5, 18048, Note_on_c, 3, 86, 127
5, 18236, Note_off_c, 3, 86, 100
5, 19776, Note_on_c, 3, 79, 127
5, 19868, Note_off_c, 3, 79, 100
5, 19872, Note_on_c, 3, 78, 127
5, 19964, Note_off_c, 3, 78, 100
5, 19968, Note_on_c, 3, 79, 127
5, 20156, Note_off_c, 3, 79, 100
5, 20160, Note_on_c, 3, 81, 127
5, 20252, Note_off_c, 3, 81, 100
5, 20256, Note_on_c, 3, 83, 127
5, 20348, Note_off_c, 3, 83, 100
5, 20352, Note_on_c, 3, 84, 127
5, 20444, Note_off_c, 3, 84, 100
5, 20448, Note_on_c, 3, 83, 127
5, 20540, Note_off_c, 3, 83, 100
5, 20544, Note_on_c, 3, 81, 127
5, 20636, Note_off_c, 3, 81, 100
5, 20640, Note_on_c, 3, 79, 127
5, 20732, Note_off_c, 3, 79, 100
5, 20736, Note_on_c, 3, 91, 127
5, 21116, Note_off_c, 3, 91, 100
5, 21216, Note_on_c, 3, 90, 127
5, 21308, Note_off_c, 3, 90, 100
5, 21312, Note_on_c, 3, 93, 127
5, 21404, Note_off_c, 3, 93, 100
5, 21408, Note_on_c, 3, 91, 127
5, 21500, Note_off_c, 3, 91, 100
5, 21504, Note_on_c, 3, 90, 127
5, 21596, Note_off_c, 3, 90, 100
5, 21600, Note_on_c, 3, 91, 127
5, 21692, Note_off_c, 3, 91, 100
5, 21696, Note_on_c, 3, 88, 127
5, 21824, Note_off_c, 3, 88, 100
5, 21888, Note_on_c, 3, 88, 127
5, 21980, Note_off_c, 3, 88, 100
5, 21984, Note_on_c, 3, 90, 127
5, 22124, Note_off_c, 3, 90, 100
5, 22128, Note_on_c, 3, 89, 127
5, 22172, Note_off_c, 3, 89, 100
5, 22176, Note_on_c, 3, 90, 127
5, 22220, Note_off_c, 3, 90, 100
5, 22224, Note_on_c, 3, 91, 127
5, 22268, Note_off_c, 3, 91, 100
5, 22272, Note_on_c, 3, 90, 127
5, 22460, Note_off_c, 3, 90, 100
5, 22464, Note_on_c, 3, 81, 127
5, 22592, Note_off_c, 3, 81, 100
5, 22848, Note_on_c, 3, 90, 127
5, 22976, Note_off_c, 3, 90, 100
5, 23040, Note_on_c, 3, 91, 127
5, 23132, Note_off_c, 3, 91, 100
5, 23136, Note_on_c, 3, 90, 127
5, 23228, Note_off_c, 3, 90, 100
5, 23232, Note_on_c, 3, 91, 127
5, 23324, Note_off_c, 3, 91, 100
5, 23328, Note_on_c, 3, 93, 127
5, 23420, Note_off_c, 3, 93, 100
5, 23424, Note_on_c, 3, 91, 127
5, 23516, Note_off_c, 3, 91, 100
5, 23520, Note_on_c, 3, 90, 127
5, 23612, Note_off_c, 3, 90, 100
5, 23616, Note_on_c, 3, 88, 127
5, 23708, Note_off_c, 3, 88, 100
5, 23712, Note_on_c, 3, 86, 127
5, 23804, Note_off_c, 3, 86, 100
5, 23808, Note_on_c, 3, 84, 127
5, 23900, Note_off_c, 3, 84, 100
5, 23904, Note_on_c, 3, 83, 127
5, 23996, Note_off_c, 3, 83, 100
5, 24000, Note_on_c, 3, 81, 127
5, 24092, Note_off_c, 3, 81, 100
5, 24096, Note_on_c, 3, 79, 127
5, 24188, Note_off_c, 3, 79, 100
5, 24192, Note_on_c, 3, 78, 127
5, 25340, Note_off_c, 3, 78, 100
5, 25536, Note_on_c, 3, 78, 127
5, 25628, Note_off_c, 3, 78, 100
5, 25632, Note_on_c, 3, 79, 127
5, 25724, Note_off_c, 3, 79, 100
5, 25728, Note_on_c, 3, 78, 127
5, 25856, Note_off_c, 3, 78, 100
5, 25920, Note_on_c, 3, 78, 127
5, 26048, Note_off_c, 3, 78, 100
5, 26112, Note_on_c, 3, 78, 127
5, 26240, Note_off_c, 3, 78, 100
5, 26304, Note_on_c, 3, 79, 127
5, 26396, Note_off_c, 3, 79, 100
5, 26400, Note_on_c, 3, 81, 127
5, 26492, Note_off_c, 3, 81, 100
5, 26496, Note_on_c, 3, 79, 127
5, 26876, Note_off_c, 3, 79, 100
5, 27264, Note_on_c, 3, 76, 127
5, 27644, Note_off_c, 3, 76, 100
5, 27744, Note_on_c, 3, 78, 127
5, 27836, Note_off_c, 3, 78, 100
5, 27840, Note_on_c, 3, 79, 127
5, 27932, Note_off_c, 3, 79, 100
5, 27936, Note_on_c, 3, 76, 127
5, 28028, Note_off_c, 3, 76, 100
5, 28032, Note_on_c, 3, 78, 127
5, 28124, Note_off_c, 3, 78, 100
5, 28128, Note_on_c, 3, 79, 127
5, 28220, Note_off_c, 3, 79, 100
5, 28224, Note_on_c, 3, 80, 127
5, 28316, Note_off_c, 3, 80, 100
5, 28320, Note_on_c, 3, 81, 127
5, 28412, Note_off_c, 3, 81, 100
5, 28416, Note_on_c, 3, 83, 127
5, 28508, Note_off_c, 3, 83, 100
5, 28512, Note_on_c, 3, 84, 127
5, 28604, Note_off_c, 3, 84, 100
5, 28608, Note_on_c, 3, 86, 127
5, 28700, Note_off_c, 3, 86, 100
5, 28704, Note_on_c, 3, 88, 127
5, 28796, Note_off_c, 3, 88, 100
5, 28800, Note_on_c, 3, 86, 127
5, 28988, Note_off_c, 3, 86, 100
5, 30048, Note_on_c, 3, 72, 127
5, 30140, Note_off_c, 3, 72, 100
5, 30144, Note_on_c, 3, 74, 127
5, 30236, Note_off_c, 3, 74, 100
5, 30240, Note_on_c, 3, 76, 127
5, 30332, Note_off_c, 3, 76, 100
5, 30336, Note_on_c, 3, 74, 127
5, 30428, Note_off_c, 3, 74, 100
5, 30432, Note_on_c, 3, 75, 127
5, 30524, Note_off_c, 3, 75, 100
5, 30528, Note_on_c, 3, 78, 127
5, 30620, Note_off_c, 3, 78, 100
5, 30624, Note_on_c, 3, 79, 127
5, 30716, Note_off_c, 3, 79, 100
5, 30720, Note_on_c, 3, 78, 127
5, 30812, Note_off_c, 3, 78, 100
5, 30816, Note_on_c, 3, 79, 127
5, 30908, Note_off_c, 3, 79, 100
5, 30912, Note_on_c, 3, 81, 127
5, 31004, Note_off_c, 3, 81, 100
5, 31008, Note_on_c, 3, 83, 127
5, 31100, Note_off_c, 3, 83, 100
5, 31104, Note_on_c, 3, 81, 127
5, 32252, Note_off_c, 3, 81, 100
5, 32448, Note_on_c, 3, 74, 127
5, 32576, Note_off_c, 3, 74, 100
5, 32640, Note_on_c, 3, 76, 127
5, 32768, Note_off_c, 3, 76, 100
5, 32832, Note_on_c, 3, 78, 127
5, 32960, Note_off_c, 3, 78, 100
5, 33024, Note_on_c, 3, 79, 127
5, 33116, Note_off_c, 3, 79, 100
5, 33120, Note_on_c, 3, 83, 127
5, 33212, Note_off_c, 3, 83, 100
5, 33216, Note_on_c, 3, 81, 127
5, 33308, Note_off_c, 3, 81, 100
5, 33312, Note_on_c, 3, 84, 127
5, 33404, Note_off_c, 3, 84, 100
5, 33408, Note_on_c, 3, 83, 127
5, 33536, Note_off_c, 3, 83, 100
5, 33600, Note_on_c, 3, 81, 127
5, 33788, Note_off_c, 3, 81, 100
5, 33792, Note_on_c, 3, 83, 127
5, 33980, Note_off_c, 3, 83, 100
5, 33984, Note_on_c, 3, 84, 127
5, 34172, Note_off_c, 3, 84, 100
5, 34176, Note_on_c, 3, 86, 127
5, 34196, Note_off_c, 3, 86, 100
5, 34200, Note_on_c, 3, 84, 127
5, 34220, Note_off_c, 3, 84, 100
5, 34224, Note_on_c, 3, 86, 127
5, 34460, Note_off_c, 3, 86, 100
5, 34464, Note_on_c, 3, 88, 127
5, 34556, Note_off_c, 3, 88, 100
5, 34560, Note_on_c, 3, 86, 127
5, 34940, Note_off_c, 3, 86, 100
5, 35040, Note_on_c, 3, 83, 127
5, 35132, Note_off_c, 3, 83, 100
5, 35136, Note_on_c, 3, 84, 127
5, 35228, Note_off_c, 3, 84, 100
5, 35232, Note_on_c, 3, 86, 127
5, 35324, Note_off_c, 3, 86, 100
5, 35328, Note_on_c, 3, 88, 127
5, 35420, Note_off_c, 3, 88, 100
5, 35424, Note_on_c, 3, 90, 127
5, 35516, Note_off_c, 3, 90, 100
5, 35520, Note_on_c, 3, 91, 127
5, 35612, Note_off_c, 3, 91, 100
5, 35616, Note_on_c, 3, 93, 127
5, 35708, Note_off_c, 3, 93, 100
5, 35712, Note_on_c, 3, 95, 127
5, 35804, Note_off_c, 3, 95, 100
5, 35808, Note_on_c, 3, 91, 127
5, 35900, Note_off_c, 3, 91, 100
5, 35904, Note_on_c, 3, 86, 127
5, 35996, Note_off_c, 3, 86, 100
5, 36000, Note_on_c, 3, 83, 127
5, 36092, Note_off_c, 3, 83, 100
5, 36096, Note_on_c, 3, 79, 127
5, 36284, Note_off_c, 3, 79, 100
5, 36284, End_track
6, 0, Start_track
6, 0, Title_t, "Goldberg Variations"
6, 0, Control_c, 4, 0, 0
6, 0, Program_c, 4, 6
6, 0, Control_c, 4, 7, 127
6, 0, Control_c, 4, 10, 42
6, 0, Control_c, 4, 91, 127
6, 0, Key_signature, 1, "major"
6, 1344, Note_on_c, 4, 74, 127
6, 1436, Note_off_c, 4, 74, 100
6, 1440, Note_on_c, 4, 76, 127
6, 1532, Note_off_c, 4, 76, 100
6, 1536, Note_on_c, 4, 74, 127
6, 1724, Note_off_c, 4, 74, 100
6, 1728, Note_on_c, 4, 72, 127
6, 1820, Note_off_c, 4, 72, 100
6, 1824, Note_on_c, 4, 71, 127
6, 1916, Note_off_c, 4, 71, 100
6, 1920, Note_on_c, 4, 69, 127
6, 2012, Note_off_c, 4, 69, 100
6, 2016, Note_on_c, 4, 71, 127
6, 2108, Note_off_c, 4, 71, 100
6, 2112, Note_on_c, 4, 72, 127
6, 2204, Note_off_c, 4, 72, 100
6, 2208, Note_on_c, 4, 74, 127
6, 2300, Note_off_c, 4, 74, 100
6, 2304, Note_on_c, 4, 67, 127
6, 2396, Note_off_c, 4, 67, 100
6, 2400, Note_on_c, 4, 72, 127
6, 2492, Note_off_c, 4, 72, 100
6, 2496, Note_on_c, 4, 71, 127
6, 2588, Note_off_c, 4, 71, 100
6, 2592, Note_on_c, 4, 69, 127
6, 2684, Note_off_c, 4, 69, 100
6, 2688, Note_on_c, 4, 67, 127
6, 2780, Note_off_c, 4, 67, 100
6, 2784, Note_on_c, 4, 66, 127
6, 2876, Note_off_c, 4, 66, 100
6, 2880, Note_on_c, 4, 64, 127
6, 2972, Note_off_c, 4, 64, 100
6, 2976, Note_on_c, 4, 62, 127
6, 3068, Note_off_c, 4, 62, 100
6, 3072, Note_on_c, 4, 61, 127
6, 3260, Note_off_c, 4, 61, 100
6, 3648, Note_on_c, 4, 62, 127
6, 3740, Note_off_c, 4, 62, 100
6, 3744, Note_on_c, 4, 64, 127
6, 3836, Note_off_c, 4, 64, 100
6, 3840, Note_on_c, 4, 66, 127
6, 3932, Note_off_c, 4, 66, 100
6, 3936, Note_on_c, 4, 67, 127
6, 4028, Note_off_c, 4, 67, 100
6, 4032, Note_on_c, 4, 69, 127
6, 4124, Note_off_c, 4, 69, 100
6, 4128, Note_on_c, 4, 71, 127
6, 4220, Note_off_c, 4, 71, 100
6, 4224, Note_on_c, 4, 72, 127
6, 4316, Note_off_c, 4, 72, 100
6, 4320, Note_on_c, 4, 74, 127
6, 4412, Note_off_c, 4, 74, 100
6, 4416, Note_on_c, 4, 76, 127
6, 4508, Note_off_c, 4, 76, 100
6, 4512, Note_on_c, 4, 74, 127
6, 4576, Note_off_c, 4, 74, 100
6, 4608, Note_on_c, 4, 74, 127
6, 4796, Note_off_c, 4, 74, 100
6, 4800, Note_on_c, 4, 76, 127
6, 4892, Note_off_c, 4, 76, 100
6, 4896, Note_on_c, 4, 78, 127
6, 4988, Note_off_c, 4, 78, 100
6, 4992, Note_on_c, 4, 79, 127
6, 5180, Note_off_c, 4, 79, 100
6, 5856, Note_on_c, 4, 67, 127
6, 6140, Note_off_c, 4, 67, 100
6, 6240, Note_on_c, 4, 71, 127
6, 6332, Note_off_c, 4, 71, 100
6, 6336, Note_on_c, 4, 72, 127
6, 6428, Note_off_c, 4, 72, 100
6, 6432, Note_on_c, 4, 74, 127
6, 6524, Note_off_c, 4, 74, 100
6, 6528, Note_on_c, 4, 76, 127
6, 6620, Note_off_c, 4, 76, 100
6, 6624, Note_on_c, 4, 78, 127
6, 6716, Note_off_c, 4, 78, 100
6, 6720, Note_on_c, 4, 79, 127
6, 6812, Note_off_c, 4, 79, 100
6, 6816, Note_on_c, 4, 76, 127
6, 6908, Note_off_c, 4, 76, 100
6, 6912, Note_on_c, 4, 78, 127
6, 7004, Note_off_c, 4, 78, 100
6, 7008, Note_on_c, 4, 74, 127
6, 7100, Note_off_c, 4, 74, 100
6, 7104, Note_on_c, 4, 69, 127
6, 7196, Note_off_c, 4, 69, 100
6, 7200, Note_on_c, 4, 67, 127
6, 7292, Note_off_c, 4, 67, 100
6, 7296, Note_on_c, 4, 66, 127
6, 7424, Note_off_c, 4, 66, 100
6, 7488, Note_on_c, 4, 72, 127
6, 7744, Note_off_c, 4, 72, 100
6, 7872, Note_on_c, 4, 72, 127
6, 8156, Note_off_c, 4, 72, 100
6, 8160, Note_on_c, 4, 71, 127
6, 8252, Note_off_c, 4, 71, 100
6, 8256, Note_on_c, 4, 76, 127
6, 8348, Note_off_c, 4, 76, 100
6, 8352, Note_on_c, 4, 74, 127
6, 8444, Note_off_c, 4, 74, 100
6, 8448, Note_on_c, 4, 72, 127
6, 8540, Note_off_c, 4, 72, 100
6, 8544, Note_on_c, 4, 74, 127
6, 8636, Note_off_c, 4, 74, 100
6, 8640, Note_on_c, 4, 76, 127
6, 8732, Note_off_c, 4, 76, 100
6, 8736, Note_on_c, 4, 66, 127
6, 8828, Note_off_c, 4, 66, 100
6, 8832, Note_on_c, 4, 67, 127
6, 8924, Note_off_c, 4, 67, 100
6, 8928, Note_on_c, 4, 69, 127
6, 9020, Note_off_c, 4, 69, 100
6, 9024, Note_on_c, 4, 71, 127
6, 9116, Note_off_c, 4, 71, 100
6, 9120, Note_on_c, 4, 72, 127
6, 9212, Note_off_c, 4, 72, 100
6, 9216, Note_on_c, 4, 74, 127
6, 9596, Note_off_c, 4, 74, 100
6, 10464, Note_on_c, 4, 76, 127
6, 10556, Note_off_c, 4, 76, 100
6, 10560, Note_on_c, 4, 74, 127
6, 10652, Note_off_c, 4, 74, 100
6, 10656, Note_on_c, 4, 73, 127
6, 10748, Note_off_c, 4, 73, 100
6, 10752, Note_on_c, 4, 71, 127
6, 10844, Note_off_c, 4, 71, 100
6, 10848, Note_on_c, 4, 69, 127
6, 10940, Note_off_c, 4, 69, 100
6, 10944, Note_on_c, 4, 67, 127
6, 11036, Note_off_c, 4, 67, 100
6, 11040, Note_on_c, 4, 64, 127
6, 11132, Note_off_c, 4, 64, 100
6, 11136, Note_on_c, 4, 66, 127
6, 11228, Note_off_c, 4, 66, 100
6, 11232, Note_on_c, 4, 67, 127
6, 11324, Note_off_c, 4, 67, 100
6, 11328, Note_on_c, 4, 69, 127
6, 11420, Note_off_c, 4, 69, 100
6, 11424, Note_on_c, 4, 71, 127
6, 11516, Note_off_c, 4, 71, 100
6, 11520, Note_on_c, 4, 73, 127
6, 11612, Note_off_c, 4, 73, 100
6, 11616, Note_on_c, 4, 74, 127
6, 11708, Note_off_c, 4, 74, 100
6, 11712, Note_on_c, 4, 76, 127
6, 11804, Note_off_c, 4, 76, 100
6, 11808, Note_on_c, 4, 78, 127
6, 11900, Note_off_c, 4, 78, 100
6, 11904, Note_on_c, 4, 79, 127
6, 12092, Note_off_c, 4, 79, 100
6, 12864, Note_on_c, 4, 69, 127
6, 13052, Note_off_c, 4, 69, 100
6, 13152, Note_on_c, 4, 71, 127
6, 13244, Note_off_c, 4, 71, 100
6, 13248, Note_on_c, 4, 73, 127
6, 13340, Note_off_c, 4, 73, 100
6, 13344, Note_on_c, 4, 71, 127
6, 13436, Note_off_c, 4, 71, 100
6, 13440, Note_on_c, 4, 69, 127
6, 13532, Note_off_c, 4, 69, 100
6, 13536, Note_on_c, 4, 67, 127
6, 13628, Note_off_c, 4, 67, 100
6, 13632, Note_on_c, 4, 66, 127
6, 13724, Note_off_c, 4, 66, 100
6, 13728, Note_on_c, 4, 64, 127
6, 13820, Note_off_c, 4, 64, 100
6, 13824, Note_on_c, 4, 62, 127
6, 13952, Note_off_c, 4, 62, 100
6, 14016, Note_on_c, 4, 74, 127
6, 14108, Note_off_c, 4, 74, 100
6, 14112, Note_on_c, 4, 76, 127
6, 14204, Note_off_c, 4, 76, 100
6, 14208, Note_on_c, 4, 74, 127
6, 14588, Note_off_c, 4, 74, 100
6, 14688, Note_on_c, 4, 71, 127
6, 14780, Note_off_c, 4, 71, 100
6, 14784, Note_on_c, 4, 73, 127
6, 14876, Note_off_c, 4, 73, 100
6, 14880, Note_on_c, 4, 74, 127
6, 14972, Note_off_c, 4, 74, 100
6, 14976, Note_on_c, 4, 76, 127
6, 15068, Note_off_c, 4, 76, 100
6, 15072, Note_on_c, 4, 78, 127
6, 15164, Note_off_c, 4, 78, 100
6, 15168, Note_on_c, 4, 76, 127
6, 15260, Note_off_c, 4, 76, 100
6, 15264, Note_on_c, 4, 74, 127
6, 15356, Note_off_c, 4, 74, 100
6, 15360, Note_on_c, 4, 76, 127
6, 15452, Note_off_c, 4, 76, 100
6, 15456, Note_on_c, 4, 73, 127
6, 15548, Note_off_c, 4, 73, 100
6, 15552, Note_on_c, 4, 74, 127
6, 15644, Note_off_c, 4, 74, 100
6, 15648, Note_on_c, 4, 76, 127
6, 15740, Note_off_c, 4, 76, 100
6, 15744, Note_on_c, 4, 78, 127
6, 16124, Note_off_c, 4, 78, 100
6, 16320, Note_on_c, 4, 67, 127
6, 16448, Note_off_c, 4, 67, 100
6, 16512, Note_on_c, 4, 69, 127
6, 16640, Note_off_c, 4, 69, 100
6, 16704, Note_on_c, 4, 71, 127
6, 16832, Note_off_c, 4, 71, 100
6, 16896, Note_on_c, 4, 73, 127
6, 17024, Note_off_c, 4, 73, 100
6, 17088, Note_on_c, 4, 64, 127
6, 17216, Note_off_c, 4, 64, 100
6, 17280, Note_on_c, 4, 74, 127
6, 17664, Note_off_c, 4, 74, 100
6, 17856, Note_on_c, 4, 76, 127
6, 18044, Note_off_c, 4, 76, 100
6, 18048, Note_on_c, 4, 78, 127
6, 18140, Note_off_c, 4, 78, 100
6, 18144, Note_on_c, 4, 73, 127
6, 18236, Note_off_c, 4, 73, 100
6, 18240, Note_on_c, 4, 74, 127
6, 18368, Note_off_c, 4, 74, 100
6, 18624, Note_on_c, 4, 74, 127
6, 18716, Note_off_c, 4, 74, 100
6, 18720, Note_on_c, 4, 76, 127
6, 18812, Note_off_c, 4, 76, 100
6, 18816, Note_on_c, 4, 74, 127
6, 19004, Note_off_c, 4, 74, 100
6, 19008, Note_on_c, 4, 72, 127
6, 19100, Note_off_c, 4, 72, 100
6, 19104, Note_on_c, 4, 71, 127
6, 19196, Note_off_c, 4, 71, 100
6, 19200, Note_on_c, 4, 69, 127
6, 19292, Note_off_c, 4, 69, 100
6, 19296, Note_on_c, 4, 71, 127
6, 19388, Note_off_c, 4, 71, 100
6, 19392, Note_on_c, 4, 72, 127
6, 19484, Note_off_c, 4, 72, 100
6, 19488, Note_on_c, 4, 74, 127
6, 19580, Note_off_c, 4, 74, 100
6, 19584, Note_on_c, 4, 62, 127
6, 19964, Note_off_c, 4, 62, 100
6, 20064, Note_on_c, 4, 64, 127
6, 20156, Note_off_c, 4, 64, 100
6, 20160, Note_on_c, 4, 60, 127
6, 20252, Note_off_c, 4, 60, 100
6, 20256, Note_on_c, 4, 62, 127
6, 20348, Note_off_c, 4, 62, 100
6, 20352, Note_on_c, 4, 64, 127
6, 20444, Note_off_c, 4, 64, 100
6, 20448, Note_on_c, 4, 62, 127
6, 20540, Note_off_c, 4, 62, 100
6, 20544, Note_on_c, 4, 65, 127
6, 20672, Note_off_c, 4, 65, 100
6, 20736, Note_on_c, 4, 65, 127
6, 20828, Note_off_c, 4, 65, 100
6, 20832, Note_on_c, 4, 64, 127
6, 20972, Note_off_c, 4, 64, 100
6, 20976, Note_on_c, 4, 65, 127
6, 21020, Note_off_c, 4, 65, 100
6, 21024, Note_on_c, 4, 64, 127
6, 21068, Note_off_c, 4, 64, 100
6, 21072, Note_on_c, 4, 63, 127
6, 21116, Note_off_c, 4, 63, 100
6, 21120, Note_on_c, 4, 64, 127
6, 21308, Note_off_c, 4, 64, 100
6, 21312, Note_on_c, 4, 72, 127
6, 21440, Note_off_c, 4, 72, 100
6, 21696, Note_on_c, 4, 64, 127
6, 21824, Note_off_c, 4, 64, 100
6, 21888, Note_on_c, 4, 63, 127
6, 21980, Note_off_c, 4, 63, 100
6, 21984, Note_on_c, 4, 64, 127
6, 22076, Note_off_c, 4, 64, 100
6, 22080, Note_on_c, 4, 63, 127
6, 22172, Note_off_c, 4, 63, 100
6, 22176, Note_on_c, 4, 61, 127
6, 22268, Note_off_c, 4, 61, 100
6, 22272, Note_on_c, 4, 63, 127
6, 22364, Note_off_c, 4, 63, 100
6, 22368, Note_on_c, 4, 64, 127
6, 22460, Note_off_c, 4, 64, 100
6, 22464, Note_on_c, 4, 66, 127
6, 22556, Note_off_c, 4, 66, 100
6, 22560, Note_on_c, 4, 67, 127
6, 22652, Note_off_c, 4, 67, 100
6, 22656, Note_on_c, 4, 69, 127
6, 22748, Note_off_c, 4, 69, 100
6, 22752, Note_on_c, 4, 71, 127
6, 22844, Note_off_c, 4, 71, 100
6, 22848, Note_on_c, 4, 73, 127
6, 22940, Note_off_c, 4, 73, 100
6, 22944, Note_on_c, 4, 75, 127
6, 23036, Note_off_c, 4, 75, 100
6, 23040, Note_on_c, 4, 76, 127
6, 24188, Note_off_c, 4, 76, 100
6, 24384, Note_on_c, 4, 76, 127
6, 24476, Note_off_c, 4, 76, 100
6, 24480, Note_on_c, 4, 75, 127
6, 24572, Note_off_c, 4, 75, 100
6, 24576, Note_on_c, 4, 76, 127
6, 24704, Note_off_c, 4, 76, 100
6, 24768, Note_on_c, 4, 76, 127
6, 24896, Note_off_c, 4, 76, 100
6, 24960, Note_on_c, 4, 76, 127
6, 25088, Note_off_c, 4, 76, 100
6, 25152, Note_on_c, 4, 75, 127
6, 25244, Note_off_c, 4, 75, 100
6, 25248, Note_on_c, 4, 73, 127
6, 25340, Note_off_c, 4, 73, 100
6, 25344, Note_on_c, 4, 75, 127
6, 25724, Note_off_c, 4, 75, 100
6, 26112, Note_on_c, 4, 78, 127
6, 26492, Note_off_c, 4, 78, 100
6, 26592, Note_on_c, 4, 76, 127
6, 26684, Note_off_c, 4, 76, 100
6, 26688, Note_on_c, 4, 75, 127
6, 26780, Note_off_c, 4, 75, 100
6, 26784, Note_on_c, 4, 78, 127
6, 26876, Note_off_c, 4, 78, 100
6, 26880, Note_on_c, 4, 76, 127
6, 26972, Note_off_c, 4, 76, 100
6, 26976, Note_on_c, 4, 74, 127
6, 27068, Note_off_c, 4, 74, 100
6, 27072, Note_on_c, 4, 73, 127
6, 27164, Note_off_c, 4, 73, 100
6, 27168, Note_on_c, 4, 72, 127
6, 27260, Note_off_c, 4, 72, 100
6, 27264, Note_on_c, 4, 71, 127
6, 27356, Note_off_c, 4, 71, 100
6, 27360, Note_on_c, 4, 69, 127
6, 27452, Note_off_c, 4, 69, 100
6, 27456, Note_on_c, 4, 67, 127
6, 27548, Note_off_c, 4, 67, 100
6, 27552, Note_on_c, 4, 66, 127
6, 27644, Note_off_c, 4, 66, 100
6, 27648, Note_on_c, 4, 67, 127
6, 27836, Note_off_c, 4, 67, 100
6, 28896, Note_on_c, 4, 81, 127
6, 28988, Note_off_c, 4, 81, 100
6, 28992, Note_on_c, 4, 80, 127
6, 29084, Note_off_c, 4, 80, 100
6, 29088, Note_on_c, 4, 78, 127
6, 29180, Note_off_c, 4, 78, 100
6, 29184, Note_on_c, 4, 80, 127
6, 29276, Note_off_c, 4, 80, 100
6, 29280, Note_on_c, 4, 77, 127
6, 29372, Note_off_c, 4, 77, 100
6, 29376, Note_on_c, 4, 76, 127
6, 29468, Note_off_c, 4, 76, 100
6, 29472, Note_on_c, 4, 74, 127
6, 29564, Note_off_c, 4, 74, 100
6, 29568, Note_on_c, 4, 76, 127
6, 29660, Note_off_c, 4, 76, 100
6, 29664, Note_on_c, 4, 74, 127
6, 29756, Note_off_c, 4, 74, 100
6, 29760, Note_on_c, 4, 72, 127
6, 29852, Note_off_c, 4, 72, 100
6, 29856, Note_on_c, 4, 71, 127
6, 29948, Note_off_c, 4, 71, 100
6, 29952, Note_on_c, 4, 72, 127
6, 31100, Note_off_c, 4, 72, 100
6, 31296, Note_on_c, 4, 79, 127
6, 31424, Note_off_c, 4, 79, 100
6, 31488, Note_on_c, 4, 78, 127
6, 31616, Note_off_c, 4, 78, 100
6, 31680, Note_on_c, 4, 76, 127
6, 31808, Note_off_c, 4, 76, 100
6, 31872, Note_on_c, 4, 74, 127
6, 31964, Note_off_c, 4, 74, 100
6, 31968, Note_on_c, 4, 71, 127
6, 32060, Note_off_c, 4, 71, 100
6, 32064, Note_on_c, 4, 72, 127
6, 32156, Note_off_c, 4, 72, 100
6, 32160, Note_on_c, 4, 69, 127
6, 32252, Note_off_c, 4, 69, 100
6, 32256, Note_on_c, 4, 71, 127
6, 32384, Note_off_c, 4, 71, 100
6, 32448, Note_on_c, 4, 72, 127
6, 32636, Note_off_c, 4, 72, 100
6, 32640, Note_on_c, 4, 71, 127
6, 32828, Note_off_c, 4, 71, 100
6, 32832, Note_on_c, 4, 69, 127
6, 32960, Note_off_c, 4, 69, 100
6, 33024, Note_on_c, 4, 69, 127
6, 33036, Note_off_c, 4, 69, 100
6, 33040, Note_on_c, 4, 67, 127
6, 33052, Note_off_c, 4, 67, 100
6, 33056, Note_on_c, 4, 69, 127
6, 33068, Note_off_c, 4, 69, 100
6, 33072, Note_on_c, 4, 67, 127
6, 33308, Note_off_c, 4, 67, 99
6, 33312, Note_on_c, 4, 66, 127
6, 33404, Note_off_c, 4, 66, 100
6, 33408, Note_on_c, 4, 67, 127
6, 33788, Note_off_c, 4, 67, 100
6, 33888, Note_on_c, 4, 71, 127
6, 33980, Note_off_c, 4, 71, 100
6, 33984, Note_on_c, 4, 69, 127
6, 34076, Note_off_c, 4, 69, 100
6, 34080, Note_on_c, 4, 67, 127
6, 34172, Note_off_c, 4, 67, 100
6, 34176, Note_on_c, 4, 66, 127
6, 34268, Note_off_c, 4, 66, 100
6, 34272, Note_on_c, 4, 64, 127
6, 34364, Note_off_c, 4, 64, 100
6, 34368, Note_on_c, 4, 62, 127
6, 34460, Note_off_c, 4, 62, 100
6, 34464, Note_on_c, 4, 60, 127
6, 34556, Note_off_c, 4, 60, 100
6, 34560, Note_on_c, 4, 59, 127
6, 34652, Note_off_c, 4, 59, 100
6, 34656, Note_on_c, 4, 62, 127
6, 34748, Note_off_c, 4, 62, 100
6, 34752, Note_on_c, 4, 67, 127
6, 34844, Note_off_c, 4, 67, 100
6, 34848, Note_on_c, 4, 71, 127
6, 34940, Note_off_c, 4, 71, 100
6, 34944, Note_on_c, 4, 74, 127
6, 35072, Note_off_c, 4, 74, 100
6, 35136, Note_on_c, 4, 67, 127
6, 35420, Note_off_c, 4, 67, 100
6, 35424, Note_on_c, 4, 69, 127
6, 35516, Note_off_c, 4, 69, 100
6, 35520, Note_on_c, 4, 66, 127
6, 35708, Note_off_c, 4, 66, 100
6, 35712, Note_on_c, 4, 67, 127
6, 36092, Note_off_c, 4, 67, 100
6, 36092, End_track
7, 0, Start_track
7, 0, Title_t, "BWV 988"
7, 0, Control_c, 5, 0, 0
7, 0, Program_c, 5, 6
7, 0, Control_c, 5, 7, 127
7, 0, Control_c, 5, 10, 0
7, 0, Control_c, 5, 91, 127
7, 0, Key_signature, 1, "major"
7, 0, Note_on_c, 5, 43, 64
7, 256, Note_off_c, 5, 43, 100
7, 384, Note_on_c, 5, 43, 64
7, 764, Note_off_c, 5, 43, 100
7, 768, Note_on_c, 5, 43, 64
7, 1148, Note_off_c, 5, 43, 100
7, 1152, Note_on_c, 5, 42, 64
7, 1408, Note_off_c, 5, 42, 100
7, 1536, Note_on_c, 5, 42, 64
7, 1916, Note_off_c, 5, 42, 100
7, 1920, Note_on_c, 5, 42, 64
7, 2300, Note_off_c, 5, 42, 100
7, 2304, Note_on_c, 5, 40, 64
7, 2560, Note_off_c, 5, 40, 100
7, 2688, Note_on_c, 5, 40, 64
7, 3068, Note_off_c, 5, 40, 100
7, 3072, Note_on_c, 5, 40, 64
7, 3452, Note_off_c, 5, 40, 100
7, 3456, Note_on_c, 5, 38, 64
7, 3548, Note_off_c, 5, 38, 100
7, 3552, Note_on_c, 5, 26, 64
7, 3644, Note_off_c, 5, 26, 100
7, 3648, Note_on_c, 5, 38, 64
7, 3836, Note_off_c, 5, 38, 100
7, 4032, Note_on_c, 5, 36, 64
7, 4124, Note_off_c, 5, 36, 100
7, 4128, Note_on_c, 5, 35, 64
7, 4220, Note_off_c, 5, 35, 100
7, 4224, Note_on_c, 5, 33, 64
7, 4412, Note_off_c, 5, 33, 100
7, 4416, Note_on_c, 5, 36, 64
7, 4604, Note_off_c, 5, 36, 100
7, 4608, Note_on_c, 5, 35, 64
7, 4864, Note_off_c, 5, 35, 100
7, 4992, Note_on_c, 5, 35, 64
7, 5372, Note_off_c, 5, 35, 100
7, 5376, Note_on_c, 5, 35, 64
7, 5756, Note_off_c, 5, 35, 100
7, 5760, Note_on_c, 5, 36, 64
7, 6016, Note_off_c, 5, 36, 100
7, 6144, Note_on_c, 5, 36, 64
7, 6524, Note_off_c, 5, 36, 100
7, 6528, Note_on_c, 5, 36, 64
7, 6908, Note_off_c, 5, 36, 100
7, 6912, Note_on_c, 5, 38, 64
7, 7168, Note_off_c, 5, 38, 100
7, 7296, Note_on_c, 5, 38, 64
7, 7676, Note_off_c, 5, 38, 100
7, 7680, Note_on_c, 5, 38, 64
7, 8060, Note_off_c, 5, 38, 100
7, 8064, Note_on_c, 5, 43, 64
7, 8256, Note_off_c, 5, 43, 100
7, 8352, Note_on_c, 5, 35, 64
7, 8444, Note_off_c, 5, 35, 100
7, 8448, Note_on_c, 5, 40, 64
7, 8540, Note_off_c, 5, 40, 100
7, 8544, Note_on_c, 5, 38, 64
7, 8636, Note_off_c, 5, 38, 100
7, 8640, Note_on_c, 5, 36, 64
7, 8732, Note_off_c, 5, 36, 100
7, 8736, Note_on_c, 5, 40, 64
7, 8828, Note_off_c, 5, 40, 100
7, 8832, Note_on_c, 5, 38, 64
7, 8924, Note_off_c, 5, 38, 100
7, 8928, Note_on_c, 5, 36, 64
7, 9020, Note_off_c, 5, 36, 100
7, 9024, Note_on_c, 5, 35, 64
7, 9116, Note_off_c, 5, 35, 100
7, 9120, Note_on_c, 5, 33, 64
7, 9212, Note_off_c, 5, 33, 100
7, 9216, Note_on_c, 5, 35, 64
7, 9344, Note_off_c, 5, 35, 100
7, 9408, Note_on_c, 5, 31, 64
7, 9536, Note_off_c, 5, 31, 100
7, 9792, Note_on_c, 5, 43, 64
7, 9884, Note_off_c, 5, 43, 100
7, 9888, Note_on_c, 5, 42, 64
7, 9980, Note_off_c, 5, 42, 100
7, 9984, Note_on_c, 5, 43, 64
7, 10112, Note_off_c, 5, 43, 100
7, 10176, Note_on_c, 5, 40, 64
7, 10304, Note_off_c, 5, 40, 100
7, 10368, Note_on_c, 5, 42, 64
7, 10496, Note_off_c, 5, 42, 100
7, 10560, Note_on_c, 5, 47, 64
7, 10688, Note_off_c, 5, 47, 100
7, 10944, Note_on_c, 5, 35, 64
7, 11036, Note_off_c, 5, 35, 100
7, 11040, Note_on_c, 5, 37, 64
7, 11132, Note_off_c, 5, 37, 100
7, 11136, Note_on_c, 5, 38, 64
7, 11264, Note_off_c, 5, 38, 100
7, 11328, Note_on_c, 5, 35, 64
7, 11456, Note_off_c, 5, 35, 100
7, 11520, Note_on_c, 5, 40, 64
7, 11612, Note_off_c, 5, 40, 100
7, 11616, Note_on_c, 5, 42, 64
7, 11708, Note_off_c, 5, 42, 100
7, 11712, Note_on_c, 5, 43, 64
7, 11804, Note_off_c, 5, 43, 100
7, 11808, Note_on_c, 5, 42, 64
7, 11900, Note_off_c, 5, 42, 100
7, 11904, Note_on_c, 5, 40, 64
7, 12032, Note_off_c, 5, 40, 100
7, 12096, Note_on_c, 5, 42, 64
7, 12224, Note_off_c, 5, 42, 100
7, 12288, Note_on_c, 5, 40, 64
7, 12416, Note_off_c, 5, 40, 100
7, 12480, Note_on_c, 5, 38, 64
7, 12608, Note_off_c, 5, 38, 100
7, 12672, Note_on_c, 5, 37, 64
7, 12764, Note_off_c, 5, 37, 100
7, 12768, Note_on_c, 5, 38, 64
7, 12860, Note_off_c, 5, 38, 100
7, 12864, Note_on_c, 5, 40, 64
7, 12956, Note_off_c, 5, 40, 100
7, 12960, Note_on_c, 5, 38, 64
7, 13052, Note_off_c, 5, 38, 100
7, 13056, Note_on_c, 5, 37, 64
7, 13184, Note_off_c, 5, 37, 100
7, 13248, Note_on_c, 5, 40, 64
7, 13376, Note_off_c, 5, 40, 100
7, 13440, Note_on_c, 5, 37, 64
7, 13568, Note_off_c, 5, 37, 100
7, 13632, Note_on_c, 5, 33, 64
7, 13760, Note_off_c, 5, 33, 100
7, 13824, Note_on_c, 5, 38, 64
7, 14204, Note_off_c, 5, 38, 100
7, 14208, Note_on_c, 5, 38, 64
7, 14300, Note_off_c, 5, 38, 100
7, 14304, Note_on_c, 5, 40, 64
7, 14396, Note_off_c, 5, 40, 100
7, 14400, Note_on_c, 5, 42, 64
7, 14492, Note_off_c, 5, 42, 100
7, 14496, Note_on_c, 5, 43, 64
7, 14588, Note_off_c, 5, 43, 100
7, 14592, Note_on_c, 5, 45, 64
7, 14684, Note_off_c, 5, 45, 100
7, 14688, Note_on_c, 5, 43, 64
7, 14780, Note_off_c, 5, 43, 100
7, 14784, Note_on_c, 5, 42, 64
7, 14876, Note_off_c, 5, 42, 100
7, 14976, Note_on_c, 5, 43, 64
7, 15104, Note_off_c, 5, 43, 100
7, 15168, Note_on_c, 5, 31, 64
7, 15296, Note_off_c, 5, 31, 100
7, 15456, Note_on_c, 5, 40, 64
7, 15548, Note_off_c, 5, 40, 100
7, 15552, Note_on_c, 5, 42, 64
7, 15644, Note_off_c, 5, 42, 100
7, 15648, Note_on_c, 5, 43, 64
7, 15740, Note_off_c, 5, 43, 100
7, 15744, Note_on_c, 5, 45, 64
7, 15836, Note_off_c, 5, 45, 100
7, 15840, Note_on_c, 5, 42, 64
7, 15932, Note_off_c, 5, 42, 100
7, 15936, Note_on_c, 5, 40, 64
7, 16028, Note_off_c, 5, 40, 100
7, 16032, Note_on_c, 5, 38, 64
7, 16096, Note_off_c, 5, 38, 100
7, 16128, Note_on_c, 5, 47, 64
7, 16220, Note_off_c, 5, 47, 100
7, 16224, Note_on_c, 5, 35, 64
7, 16316, Note_off_c, 5, 35, 100
7, 16320, Note_on_c, 5, 40, 64
7, 16412, Note_off_c, 5, 40, 100
7, 16416, Note_on_c, 5, 38, 64
7, 16508, Note_off_c, 5, 38, 100
7, 16512, Note_on_c, 5, 37, 64
7, 16604, Note_off_c, 5, 37, 100
7, 16608, Note_on_c, 5, 33, 64
7, 16700, Note_off_c, 5, 33, 100
7, 16704, Note_on_c, 5, 38, 64
7, 16796, Note_off_c, 5, 38, 100
7, 16800, Note_on_c, 5, 43, 64
7, 16892, Note_off_c, 5, 43, 100
7, 16896, Note_on_c, 5, 45, 64
7, 16988, Note_off_c, 5, 45, 100
7, 16992, Note_on_c, 5, 40, 64
7, 17084, Note_off_c, 5, 40, 100
7, 17088, Note_on_c, 5, 37, 64
7, 17180, Note_off_c, 5, 37, 100
7, 17184, Note_on_c, 5, 33, 64
7, 17276, Note_off_c, 5, 33, 100
7, 17280, Note_on_c, 5, 38, 64
7, 17344, Note_off_c, 5, 38, 100
7, 17376, Note_on_c, 5, 40, 64
7, 17468, Note_off_c, 5, 40, 100
7, 17472, Note_on_c, 5, 38, 64
7, 17564, Note_off_c, 5, 38, 100
7, 17568, Note_on_c, 5, 37, 64
7, 17660, Note_off_c, 5, 37, 100
7, 17664, Note_on_c, 5, 38, 64
7, 17792, Note_off_c, 5, 38, 100
7, 17856, Note_on_c, 5, 33, 64
7, 17984, Note_off_c, 5, 33, 100
7, 18048, Note_on_c, 5, 26, 64
7, 18176, Note_off_c, 5, 26, 100
7, 18432, Note_on_c, 5, 38, 64
7, 18688, Note_off_c, 5, 38, 100
7, 18816, Note_on_c, 5, 38, 64
7, 19196, Note_off_c, 5, 38, 100
7, 19200, Note_on_c, 5, 36, 64
7, 19580, Note_off_c, 5, 36, 100
7, 19584, Note_on_c, 5, 35, 64
7, 19772, Note_off_c, 5, 35, 100
7, 19776, Note_on_c, 5, 36, 64
7, 19964, Note_off_c, 5, 36, 100
7, 19968, Note_on_c, 5, 35, 64
7, 20156, Note_off_c, 5, 35, 100
7, 20160, Note_on_c, 5, 33, 64
7, 20348, Note_off_c, 5, 33, 100
7, 20352, Note_on_c, 5, 31, 64
7, 20540, Note_off_c, 5, 31, 100
7, 20544, Note_on_c, 5, 33, 64
7, 20636, Note_off_c, 5, 33, 100
7, 20640, Note_on_c, 5, 35, 64
7, 20732, Note_off_c, 5, 35, 100
7, 20736, Note_on_c, 5, 36, 64
7, 20924, Note_off_c, 5, 36, 100
7, 20928, Note_on_c, 5, 35, 64
7, 21116, Note_off_c, 5, 35, 100
7, 21120, Note_on_c, 5, 36, 64
7, 21308, Note_off_c, 5, 36, 100
7, 21312, Note_on_c, 5, 40, 64
7, 21500, Note_off_c, 5, 40, 100
7, 21504, Note_on_c, 5, 33, 64
7, 21692, Note_off_c, 5, 33, 100
7, 21696, Note_on_c, 5, 36, 64
7, 21884, Note_off_c, 5, 36, 100
7, 21888, Note_on_c, 5, 35, 64
7, 22268, Note_off_c, 5, 35, 100
7, 23232, Note_on_c, 5, 40, 64
7, 23420, Note_off_c, 5, 40, 100
7, 23424, Note_on_c, 5, 42, 64
7, 23612, Note_off_c, 5, 42, 100
7, 23616, Note_on_c, 5, 43, 64
7, 23804, Note_off_c, 5, 43, 100
7, 23808, Note_on_c, 5, 45, 64
7, 23996, Note_off_c, 5, 45, 100
7, 24000, Note_on_c, 5, 47, 64
7, 24188, Note_off_c, 5, 47, 100
7, 24192, Note_on_c, 5, 48, 64
7, 24256, Note_off_c, 5, 48, 100
7, 24288, Note_on_c, 5, 50, 64
7, 24380, Note_off_c, 5, 50, 100
7, 24384, Note_on_c, 5, 48, 64
7, 24476, Note_off_c, 5, 48, 100
7, 24480, Note_on_c, 5, 47, 64
7, 24572, Note_off_c, 5, 47, 100
7, 24576, Note_on_c, 5, 48, 64
7, 24668, Note_off_c, 5, 48, 100
7, 24672, Note_on_c, 5, 47, 64
7, 24764, Note_off_c, 5, 47, 100
7, 24768, Note_on_c, 5, 45, 64
7, 24860, Note_off_c, 5, 45, 100
7, 24864, Note_on_c, 5, 43, 64
7, 24956, Note_off_c, 5, 43, 100
7, 24960, Note_on_c, 5, 45, 64
7, 25052, Note_off_c, 5, 45, 100
7, 25056, Note_on_c, 5, 42, 64
7, 25148, Note_off_c, 5, 42, 100
7, 25152, Note_on_c, 5, 43, 64
7, 25244, Note_off_c, 5, 43, 100
7, 25248, Note_on_c, 5, 45, 64
7, 25340, Note_off_c, 5, 45, 100
7, 25344, Note_on_c, 5, 47, 64
7, 25408, Note_off_c, 5, 47, 100
7, 25440, Note_on_c, 5, 48, 64
7, 25532, Note_off_c, 5, 48, 100
7, 25536, Note_on_c, 5, 47, 64
7, 25628, Note_off_c, 5, 47, 100
7, 25632, Note_on_c, 5, 45, 64
7, 25724, Note_off_c, 5, 45, 100
7, 25728, Note_on_c, 5, 47, 64
7, 25820, Note_off_c, 5, 47, 100
7, 25824, Note_on_c, 5, 42, 64
7, 25916, Note_off_c, 5, 42, 100
7, 25920, Note_on_c, 5, 39, 64
7, 26012, Note_off_c, 5, 39, 100
7, 26016, Note_on_c, 5, 42, 64
7, 26108, Note_off_c, 5, 42, 100
7, 26112, Note_on_c, 5, 35, 64
7, 26204, Note_off_c, 5, 35, 100
7, 26208, Note_on_c, 5, 39, 64
7, 26300, Note_off_c, 5, 39, 100
7, 26304, Note_on_c, 5, 37, 64
7, 26396, Note_off_c, 5, 37, 100
7, 26400, Note_on_c, 5, 35, 64
7, 26492, Note_off_c, 5, 35, 100
7, 26496, Note_on_c, 5, 40, 64
7, 26560, Note_off_c, 5, 40, 100
7, 26592, Note_on_c, 5, 36, 64
7, 26684, Note_off_c, 5, 36, 100
7, 26688, Note_on_c, 5, 35, 64
7, 26780, Note_off_c, 5, 35, 100
7, 26784, Note_on_c, 5, 33, 64
7, 26876, Note_off_c, 5, 33, 100
7, 26880, Note_on_c, 5, 31, 64
7, 26972, Note_off_c, 5, 31, 100
7, 26976, Note_on_c, 5, 35, 64
7, 27068, Note_off_c, 5, 35, 100
7, 27072, Note_on_c, 5, 40, 64
7, 27164, Note_off_c, 5, 40, 100
7, 27168, Note_on_c, 5, 39, 64
7, 27260, Note_off_c, 5, 39, 100
7, 27264, Note_on_c, 5, 40, 64
7, 27452, Note_off_c, 5, 40, 100
7, 27456, Note_on_c, 5, 38, 64
7, 27644, Note_off_c, 5, 38, 100
7, 27648, Note_on_c, 5, 36, 64
7, 27776, Note_off_c, 5, 36, 100
7, 27840, Note_on_c, 5, 48, 64
7, 27968, Note_off_c, 5, 48, 100
7, 28128, Note_on_c, 5, 40, 64
7, 28220, Note_off_c, 5, 40, 100
7, 28224, Note_on_c, 5, 38, 64
7, 28316, Note_off_c, 5, 38, 100
7, 28320, Note_on_c, 5, 36, 64
7, 28412, Note_off_c, 5, 36, 100
7, 28416, Note_on_c, 5, 38, 64
7, 28508, Note_off_c, 5, 38, 100
7, 28512, Note_on_c, 5, 36, 64
7, 28604, Note_off_c, 5, 36, 100
7, 28608, Note_on_c, 5, 35, 64
7, 28700, Note_off_c, 5, 35, 100
7, 28704, Note_on_c, 5, 33, 64
7, 28796, Note_off_c, 5, 33, 100
7, 28800, Note_on_c, 5, 35, 64
7, 28928, Note_off_c, 5, 35, 100
7, 28992, Note_on_c, 5, 47, 64
7, 29120, Note_off_c, 5, 47, 100
7, 29280, Note_on_c, 5, 38, 64
7, 29372, Note_off_c, 5, 38, 100
7, 29376, Note_on_c, 5, 36, 64
7, 29468, Note_off_c, 5, 36, 100
7, 29472, Note_on_c, 5, 35, 64
7, 29564, Note_off_c, 5, 35, 100
7, 29568, Note_on_c, 5, 36, 64
7, 29660, Note_off_c, 5, 36, 100
7, 29664, Note_on_c, 5, 35, 64
7, 29756, Note_off_c, 5, 35, 100
7, 29760, Note_on_c, 5, 33, 64
7, 29852, Note_off_c, 5, 33, 100
7, 29856, Note_on_c, 5, 32, 64
7, 29948, Note_off_c, 5, 32, 100
7, 29952, Note_on_c, 5, 33, 64
7, 30080, Note_off_c, 5, 33, 100
7, 30144, Note_on_c, 5, 45, 64
7, 30272, Note_off_c, 5, 45, 100
7, 30432, Note_on_c, 5, 47, 64
7, 30524, Note_off_c, 5, 47, 100
7, 30528, Note_on_c, 5, 45, 64
7, 30620, Note_off_c, 5, 45, 100
7, 30624, Note_on_c, 5, 43, 64
7, 30704, Note_off_c, 5, 43, 100
7, 30720, Note_on_c, 5, 45, 64
7, 30812, Note_off_c, 5, 45, 100
7, 30816, Note_on_c, 5, 43, 64
7, 30908, Note_off_c, 5, 43, 100
7, 30912, Note_on_c, 5, 42, 64
7, 31004, Note_off_c, 5, 42, 100
7, 31008, Note_on_c, 5, 40, 64
7, 31088, Note_off_c, 5, 40, 100
7, 31104, Note_on_c, 5, 42, 64
7, 31196, Note_off_c, 5, 42, 100
7, 31200, Note_on_c, 5, 40, 64
7, 31292, Note_off_c, 5, 40, 100
7, 31296, Note_on_c, 5, 38, 64
7, 31388, Note_off_c, 5, 38, 100
7, 31392, Note_on_c, 5, 37, 64
7, 31472, Note_off_c, 5, 37, 100
7, 31488, Note_on_c, 5, 38, 64
7, 31580, Note_off_c, 5, 38, 100
7, 31584, Note_on_c, 5, 36, 64
7, 31676, Note_off_c, 5, 36, 100
7, 31680, Note_on_c, 5, 35, 64
7, 31772, Note_off_c, 5, 35, 100
7, 31776, Note_on_c, 5, 33, 64
7, 31856, Note_off_c, 5, 33, 100
7, 31872, Note_on_c, 5, 35, 64
7, 31964, Note_off_c, 5, 35, 100
7, 31968, Note_on_c, 5, 33, 64
7, 32060, Note_off_c, 5, 33, 100
7, 32064, Note_on_c, 5, 31, 64
7, 32156, Note_off_c, 5, 31, 100
7, 32160, Note_on_c, 5, 30, 64
7, 32252, Note_off_c, 5, 30, 100
7, 32256, Note_on_c, 5, 31, 64
7, 32320, Note_off_c, 5, 31, 100
7, 32352, Note_on_c, 5, 45, 64
7, 32444, Note_off_c, 5, 45, 100
7, 32448, Note_on_c, 5, 43, 64
7, 32540, Note_off_c, 5, 43, 100
7, 32544, Note_on_c, 5, 42, 64
7, 32624, Note_off_c, 5, 42, 100
7, 32640, Note_on_c, 5, 43, 64
7, 32732, Note_off_c, 5, 43, 100
7, 32736, Note_on_c, 5, 42, 64
7, 32828, Note_off_c, 5, 42, 100
7, 32832, Note_on_c, 5, 40, 64
7, 32924, Note_off_c, 5, 40, 100
7, 32928, Note_on_c, 5, 39, 64
7, 33020, Note_off_c, 5, 39, 100
7, 33024, Note_on_c, 5, 40, 64
7, 33404, Note_off_c, 5, 40, 100
7, 33504, Note_on_c, 5, 38, 64
7, 33596, Note_off_c, 5, 38, 100
7, 33600, Note_on_c, 5, 36, 64
7, 33692, Note_off_c, 5, 36, 100
7, 33696, Note_on_c, 5, 40, 64
7, 33788, Note_off_c, 5, 40, 100
7, 33792, Note_on_c, 5, 38, 64
7, 34364, Note_off_c, 5, 38, 100
7, 34368, Note_on_c, 5, 33, 64
7, 34556, Note_off_c, 5, 33, 100
7, 34560, Note_on_c, 5, 35, 64
7, 34748, Note_off_c, 5, 35, 100
7, 35136, Note_on_c, 5, 40, 64
7, 35324, Note_off_c, 5, 40, 100
7, 35328, Note_on_c, 5, 36, 64
7, 35516, Note_off_c, 5, 36, 100
7, 35520, Note_on_c, 5, 38, 64
7, 35708, Note_off_c, 5, 38, 100
7, 35712, Note_on_c, 5, 31, 64
7, 36092, Note_off_c, 5, 31, 100
7, 36192, Note_on_c, 5, 35, 64
7, 36284, Note_off_c, 5, 35, 100
7, 36288, Note_on_c, 5, 38, 64
7, 36380, Note_off_c, 5, 38, 100
7, 36384, Note_on_c, 5, 42, 64
7, 36568, Note_off_c, 5, 42, 100
7, 36572, Note_on_c, 5, 31, 1
7, 36572, Note_on_c, 5, 43, 64
7, 36952, Note_off_c, 5, 31, 64
7, 37052, Note_off_c, 5, 43, 64
7, 37052, End_track
8, 0, Start_track
8, 0, Title_t, "Johann Sebastian Bach"
8, 0, Control_c, 6, 0, 0
8, 0, Program_c, 6, 6
8, 0, Control_c, 6, 7, 127
8, 0, Control_c, 6, 10, 64
8, 0, Control_c, 6, 91, 127
8, 0, Key_signature, 1, "major"
8, 192, Note_on_c, 6, 55, 96
8, 284, Note_off_c, 6, 55, 100
8, 288, Note_on_c, 6, 54, 96
8, 380, Note_off_c, 6, 54, 100
8, 384, Note_on_c, 6, 55, 96
8, 572, Note_off_c, 6, 55, 100
8, 576, Note_on_c, 6, 57, 96
8, 668, Note_off_c, 6, 57, 100
8, 672, Note_on_c, 6, 59, 96
8, 764, Note_off_c, 6, 59, 100
8, 768, Note_on_c, 6, 60, 96
8, 860, Note_off_c, 6, 60, 100
8, 864, Note_on_c, 6, 59, 96
8, 956, Note_off_c, 6, 59, 100
8, 960, Note_on_c, 6, 57, 96
8, 1052, Note_off_c, 6, 57, 100
8, 1056, Note_on_c, 6, 55, 96
8, 1148, Note_off_c, 6, 55, 100
8, 1152, Note_on_c, 6, 62, 96
8, 1244, Note_off_c, 6, 62, 100
8, 1248, Note_on_c, 6, 57, 96
8, 1340, Note_off_c, 6, 57, 100
8, 1344, Note_on_c, 6, 59, 96
8, 1436, Note_off_c, 6, 59, 100
8, 1440, Note_on_c, 6, 61, 96
8, 1532, Note_off_c, 6, 61, 100
8, 1536, Note_on_c, 6, 62, 96
8, 1628, Note_off_c, 6, 62, 100
8, 1632, Note_on_c, 6, 64, 96
8, 1724, Note_off_c, 6, 64, 100
8, 1728, Note_on_c, 6, 66, 96
8, 1820, Note_off_c, 6, 66, 100
8, 1824, Note_on_c, 6, 67, 96
8, 1916, Note_off_c, 6, 67, 100
8, 1920, Note_on_c, 6, 69, 96
8, 2108, Note_off_c, 6, 69, 100
8, 2496, Note_on_c, 6, 67, 96
8, 2588, Note_off_c, 6, 67, 100
8, 2592, Note_on_c, 6, 66, 96
8, 2684, Note_off_c, 6, 66, 100
8, 2688, Note_on_c, 6, 64, 96
8, 2780, Note_off_c, 6, 64, 100
8, 2784, Note_on_c, 6, 62, 96
8, 2876, Note_off_c, 6, 62, 100
8, 2880, Note_on_c, 6, 61, 96
8, 2972, Note_off_c, 6, 61, 100
8, 2976, Note_on_c, 6, 59, 96
8, 3068, Note_off_c, 6, 59, 100
8, 3072, Note_on_c, 6, 57, 96
8, 3164, Note_off_c, 6, 57, 100
8, 3168, Note_on_c, 6, 55, 96
8, 3260, Note_off_c, 6, 55, 100
8, 3264, Note_on_c, 6, 54, 96
8, 3356, Note_off_c, 6, 54, 100
8, 3360, Note_on_c, 6, 55, 96
8, 3424, Note_off_c, 6, 55, 100
8, 3456, Note_on_c, 6, 55, 96
8, 3584, Note_off_c, 6, 55, 100
8, 3648, Note_on_c, 6, 55, 96
8, 3660, Note_off_c, 6, 55, 100
8, 3664, Note_on_c, 6, 54, 96
8, 3676, Note_off_c, 6, 54, 100
8, 3680, Note_on_c, 6, 55, 96
8, 3692, Note_off_c, 6, 55, 100
8, 3696, Note_on_c, 6, 54, 96
8, 3740, Note_off_c, 6, 54, 100
8, 3744, Note_on_c, 6, 52, 96
8, 3836, Note_off_c, 6, 52, 100
8, 3840, Note_on_c, 6, 50, 96
8, 4028, Note_off_c, 6, 50, 100
8, 4704, Note_on_c, 6, 62, 96
8, 4988, Note_off_c, 6, 62, 100
8, 5088, Note_on_c, 6, 59, 96
8, 5180, Note_off_c, 6, 59, 100
8, 5184, Note_on_c, 6, 57, 96
8, 5276, Note_off_c, 6, 57, 100
8, 5280, Note_on_c, 6, 55, 96
8, 5372, Note_off_c, 6, 55, 100
8, 5376, Note_on_c, 6, 53, 96
8, 5468, Note_off_c, 6, 53, 100
8, 5472, Note_on_c, 6, 52, 96
8, 5564, Note_off_c, 6, 52, 100
8, 5568, Note_on_c, 6, 50, 96
8, 5660, Note_off_c, 6, 50, 100
8, 5664, Note_on_c, 6, 53, 96
8, 5756, Note_off_c, 6, 53, 100
8, 5760, Note_on_c, 6, 52, 96
8, 5852, Note_off_c, 6, 52, 100
8, 5856, Note_on_c, 6, 55, 96
8, 5948, Note_off_c, 6, 55, 100
8, 5952, Note_on_c, 6, 60, 96
8, 6044, Note_off_c, 6, 60, 100
8, 6048, Note_on_c, 6, 62, 96
8, 6140, Note_off_c, 6, 62, 100
8, 6144, Note_on_c, 6, 64, 96
8, 6272, Note_off_c, 6, 64, 100
8, 6336, Note_on_c, 6, 57, 96
8, 6592, Note_off_c, 6, 57, 100
8, 6720, Note_on_c, 6, 57, 96
8, 7004, Note_off_c, 6, 57, 100
8, 7008, Note_on_c, 6, 59, 96
8, 7100, Note_off_c, 6, 59, 100
8, 7104, Note_on_c, 6, 54, 96
8, 7196, Note_off_c, 6, 54, 100
8, 7200, Note_on_c, 6, 55, 96
8, 7292, Note_off_c, 6, 55, 100
8, 7296, Note_on_c, 6, 57, 96
8, 7388, Note_off_c, 6, 57, 100
8, 7392, Note_on_c, 6, 55, 96
8, 7484, Note_off_c, 6, 55, 100
8, 7488, Note_on_c, 6, 54, 96
8, 7580, Note_off_c, 6, 54, 100
8, 7584, Note_on_c, 6, 64, 96
8, 7676, Note_off_c, 6, 64, 100
8, 7680, Note_on_c, 6, 62, 96
8, 7772, Note_off_c, 6, 62, 100
8, 7776, Note_on_c, 6, 60, 96
8, 7868, Note_off_c, 6, 60, 100
8, 7872, Note_on_c, 6, 59, 96
8, 7964, Note_off_c, 6, 59, 100
8, 7968, Note_on_c, 6, 57, 96
8, 8060, Note_off_c, 6, 57, 100
8, 8064, Note_on_c, 6, 55, 96
8, 8444, Note_off_c, 6, 55, 100
8, 9312, Note_on_c, 6, 54, 96
8, 9404, Note_off_c, 6, 54, 100
8, 9408, Note_on_c, 6, 55, 96
8, 9500, Note_off_c, 6, 55, 100
8, 9504, Note_on_c, 6, 57, 96
8, 9596, Note_off_c, 6, 57, 100
8, 9600, Note_on_c, 6, 59, 96
8, 9692, Note_off_c, 6, 59, 100
8, 9696, Note_on_c, 6, 61, 96
8, 9788, Note_off_c, 6, 61, 100
8, 9792, Note_on_c, 6, 62, 96
8, 9884, Note_off_c, 6, 62, 100
8, 9888, Note_on_c, 6, 66, 96
8, 9980, Note_off_c, 6, 66, 100
8, 9984, Note_on_c, 6, 64, 96
8, 10076, Note_off_c, 6, 64, 100
8, 10080, Note_on_c, 6, 62, 96
8, 10172, Note_off_c, 6, 62, 100
8, 10176, Note_on_c, 6, 61, 96
8, 10268, Note_off_c, 6, 61, 100
8, 10272, Note_on_c, 6, 59, 96
8, 10364, Note_off_c, 6, 59, 100
8, 10368, Note_on_c, 6, 57, 96
8, 10460, Note_off_c, 6, 57, 100
8, 10464, Note_on_c, 6, 55, 96
8, 10556, Note_off_c, 6, 55, 100
8, 10560, Note_on_c, 6, 54, 96
8, 10652, Note_off_c, 6, 54, 100
8, 10656, Note_on_c, 6, 52, 96
8, 10748, Note_off_c, 6, 52, 100
8, 10752, Note_on_c, 6, 50, 96
8, 10940, Note_off_c, 6, 50, 100
8, 11712, Note_on_c, 6, 61, 96
8, 11900, Note_off_c, 6, 61, 100
8, 12000, Note_on_c, 6, 59, 96
8, 12092, Note_off_c, 6, 59, 100
8, 12096, Note_on_c, 6, 57, 96
8, 12188, Note_off_c, 6, 57, 100
8, 12192, Note_on_c, 6, 59, 96
8, 12284, Note_off_c, 6, 59, 100
8, 12288, Note_on_c, 6, 61, 96
8, 12380, Note_off_c, 6, 61, 100
8, 12384, Note_on_c, 6, 62, 96
8, 12476, Note_off_c, 6, 62, 100
8, 12480, Note_on_c, 6, 64, 96
8, 12572, Note_off_c, 6, 64, 100
8, 12576, Note_on_c, 6, 66, 96
8, 12668, Note_off_c, 6, 66, 100
8, 12672, Note_on_c, 6, 67, 96
8, 12800, Note_off_c, 6, 67, 100
8, 12864, Note_on_c, 6, 55, 96
8, 12956, Note_off_c, 6, 55, 100
8, 12960, Note_on_c, 6, 54, 96
8, 13052, Note_off_c, 6, 54, 100
8, 13056, Note_on_c, 6, 55, 96
8, 13436, Note_off_c, 6, 55, 100
8, 13536, Note_on_c, 6, 59, 96
8, 13628, Note_off_c, 6, 59, 100
8, 13632, Note_on_c, 6, 57, 96
8, 13724, Note_off_c, 6, 57, 100
8, 13728, Note_on_c, 6, 55, 96
8, 13820, Note_off_c, 6, 55, 100
8, 13824, Note_on_c, 6, 54, 96
8, 13916, Note_off_c, 6, 54, 100
8, 13920, Note_on_c, 6, 52, 96
8, 14012, Note_off_c, 6, 52, 100
8, 14016, Note_on_c, 6, 54, 96
8, 14108, Note_off_c, 6, 54, 100
8, 14112, Note_on_c, 6, 55, 96
8, 14204, Note_off_c, 6, 55, 100
8, 14208, Note_on_c, 6, 54, 96
8, 14300, Note_off_c, 6, 54, 100
8, 14304, Note_on_c, 6, 57, 96
8, 14396, Note_off_c, 6, 57, 100
8, 14400, Note_on_c, 6, 55, 96
8, 14492, Note_off_c, 6, 55, 100
8, 14496, Note_on_c, 6, 54, 96
8, 14588, Note_off_c, 6, 54, 100
8, 14592, Note_on_c, 6, 52, 96
8, 14972, Note_off_c, 6, 52, 100
8, 15168, Note_on_c, 6, 62, 96
8, 15296, Note_off_c, 6, 62, 100
8, 15360, Note_on_c, 6, 61, 96
8, 15488, Note_off_c, 6, 61, 100
8, 15552, Note_on_c, 6, 59, 96
8, 15680, Note_off_c, 6, 59, 100
8, 15744, Note_on_c, 6, 57, 96
8, 15872, Note_off_c, 6, 57, 100
8, 15936, Note_on_c, 6, 66, 96
8, 16064, Note_off_c, 6, 66, 100
8, 16128, Note_on_c, 6, 55, 96
8, 16512, Note_off_c, 6, 55, 100
8, 16704, Note_on_c, 6, 54, 96
8, 16892, Note_off_c, 6, 54, 100
8, 16896, Note_on_c, 6, 52, 96
8, 16988, Note_off_c, 6, 52, 100
8, 16992, Note_on_c, 6, 57, 96
8, 17084, Note_off_c, 6, 57, 100
8, 17088, Note_on_c, 6, 55, 96
8, 17468, Note_off_c, 6, 55, 100
8, 17472, Note_on_c, 6, 54, 96
8, 17564, Note_off_c, 6, 54, 100
8, 17568, Note_on_c, 6, 52, 96
8, 17660, Note_off_c, 6, 52, 100
8, 17664, Note_on_c, 6, 54, 96
8, 17728, Note_off_c, 6, 54, 100
8, 17760, Note_on_c, 6, 62, 96
8, 17948, Note_off_c, 6, 62, 100
8, 17952, Note_on_c, 6, 61, 96
8, 18044, Note_off_c, 6, 61, 100
8, 18048, Note_on_c, 6, 62, 96
8, 18236, Note_off_c, 6, 62, 100
8, 19776, Note_on_c, 6, 55, 96
8, 19868, Note_off_c, 6, 55, 100
8, 19872, Note_on_c, 6, 54, 96
8, 19964, Note_off_c, 6, 54, 100
8, 19968, Note_on_c, 6, 55, 96
8, 20156, Note_off_c, 6, 55, 100
8, 20160, Note_on_c, 6, 57, 96
8, 20252, Note_off_c, 6, 57, 100
8, 20256, Note_on_c, 6, 59, 96
8, 20348, Note_off_c, 6, 59, 100
8, 20352, Note_on_c, 6, 60, 96
8, 20444, Note_off_c, 6, 60, 100
8, 20448, Note_on_c, 6, 59, 96
8, 20540, Note_off_c, 6, 59, 100
8, 20544, Note_on_c, 6, 57, 96
8, 20636, Note_off_c, 6, 57, 100
8, 20640, Note_on_c, 6, 55, 96
8, 20732, Note_off_c, 6, 55, 100
8, 20736, Note_on_c, 6, 67, 96
8, 21116, Note_off_c, 6, 67, 100
8, 21216, Note_on_c, 6, 66, 96
8, 21308, Note_off_c, 6, 66, 100
8, 21312, Note_on_c, 6, 69, 96
8, 21404, Note_off_c, 6, 69, 100
8, 21408, Note_on_c, 6, 67, 96
8, 21500, Note_off_c, 6, 67, 100
8, 21504, Note_on_c, 6, 66, 96
8, 21596, Note_off_c, 6, 66, 100
8, 21600, Note_on_c, 6, 67, 96
8, 21692, Note_off_c, 6, 67, 100
8, 21696, Note_on_c, 6, 64, 96
8, 21824, Note_off_c, 6, 64, 100
8, 21888, Note_on_c, 6, 64, 96
8, 21980, Note_off_c, 6, 64, 100
8, 21984, Note_on_c, 6, 66, 96
8, 22124, Note_off_c, 6, 66, 100
8, 22128, Note_on_c, 6, 65, 96
8, 22172, Note_off_c, 6, 65, 100
8, 22176, Note_on_c, 6, 66, 96
8, 22220, Note_off_c, 6, 66, 100
8, 22224, Note_on_c, 6, 67, 96
8, 22268, Note_off_c, 6, 67, 100
8, 22272, Note_on_c, 6, 66, 96
8, 22460, Note_off_c, 6, 66, 100
8, 22464, Note_on_c, 6, 57, 96
8, 22592, Note_off_c, 6, 57, 100
8, 22848, Note_on_c, 6, 66, 96
8, 22976, Note_off_c, 6, 66, 100
8, 23040, Note_on_c, 6, 67, 96
8, 23132, Note_off_c, 6, 67, 100
8, 23136, Note_on_c, 6, 66, 96
8, 23228, Note_off_c, 6, 66, 100
8, 23232, Note_on_c, 6, 67, 96
8, 23324, Note_off_c, 6, 67, 100
8, 23328, Note_on_c, 6, 69, 96
8, 23420, Note_off_c, 6, 69, 100
8, 23424, Note_on_c, 6, 67, 96
8, 23516, Note_off_c, 6, 67, 100
8, 23520, Note_on_c, 6, 66, 96
8, 23612, Note_off_c, 6, 66, 100
8, 23616, Note_on_c, 6, 64, 96
8, 23708, Note_off_c, 6, 64, 100
8, 23712, Note_on_c, 6, 62, 96
8, 23804, Note_off_c, 6, 62, 100
8, 23808, Note_on_c, 6, 60, 96
8, 23900, Note_off_c, 6, 60, 100
8, 23904, Note_on_c, 6, 59, 96
8, 23996, Note_off_c, 6, 59, 100
8, 24000, Note_on_c, 6, 57, 96
8, 24092, Note_off_c, 6, 57, 100
8, 24096, Note_on_c, 6, 55, 96
8, 24188, Note_off_c, 6, 55, 100
8, 24192, Note_on_c, 6, 54, 96
8, 25340, Note_off_c, 6, 54, 100
8, 25536, Note_on_c, 6, 54, 96
8, 25628, Note_off_c, 6, 54, 100
8, 25632, Note_on_c, 6, 55, 96
8, 25724, Note_off_c, 6, 55, 100
8, 25728, Note_on_c, 6, 54, 96
8, 25856, Note_off_c, 6, 54, 100
8, 25920, Note_on_c, 6, 54, 96
8, 26048, Note_off_c, 6, 54, 100
8, 26112, Note_on_c, 6, 54, 96
8, 26240, Note_off_c, 6, 54, 100
8, 26304, Note_on_c, 6, 55, 96
8, 26396, Note_off_c, 6, 55, 100
8, 26400, Note_on_c, 6, 57, 96
8, 26492, Note_off_c, 6, 57, 100
8, 26496, Note_on_c, 6, 55, 96
8, 26876, Note_off_c, 6, 55, 100
8, 27264, Note_on_c, 6, 52, 96
8, 27644, Note_off_c, 6, 52, 100
8, 27744, Note_on_c, 6, 54, 96
8, 27836, Note_off_c, 6, 54, 100
8, 27840, Note_on_c, 6, 55, 96
8, 27932, Note_off_c, 6, 55, 100
8, 27936, Note_on_c, 6, 52, 96
8, 28028, Note_off_c, 6, 52, 100
8, 28032, Note_on_c, 6, 54, 96
8, 28124, Note_off_c, 6, 54, 100
8, 28128, Note_on_c, 6, 55, 96
8, 28220, Note_off_c, 6, 55, 100
8, 28224, Note_on_c, 6, 56, 96
8, 28316, Note_off_c, 6, 56, 100
8, 28320, Note_on_c, 6, 57, 96
8, 28412, Note_off_c, 6, 57, 100
8, 28416, Note_on_c, 6, 59, 96
8, 28508, Note_off_c, 6, 59, 100
8, 28512, Note_on_c, 6, 60, 96
8, 28604, Note_off_c, 6, 60, 100
8, 28608, Note_on_c, 6, 62, 96
8, 28700, Note_off_c, 6, 62, 100
8, 28704, Note_on_c, 6, 64, 96
8, 28796, Note_off_c, 6, 64, 100
8, 28800, Note_on_c, 6, 62, 96
8, 28988, Note_off_c, 6, 62, 100
8, 30048, Note_on_c, 6, 48, 96
8, 30140, Note_off_c, 6, 48, 100
8, 30144, Note_on_c, 6, 50, 96
8, 30236, Note_off_c, 6, 50, 100
8, 30240, Note_on_c, 6, 52, 96
8, 30332, Note_off_c, 6, 52, 100
8, 30336, Note_on_c, 6, 50, 96
8, 30428, Note_off_c, 6, 50, 100
8, 30432, Note_on_c, 6, 51, 96
8, 30524, Note_off_c, 6, 51, 100
8, 30528, Note_on_c, 6, 54, 96
8, 30620, Note_off_c, 6, 54, 100
8, 30624, Note_on_c, 6, 55, 96
8, 30716, Note_off_c, 6, 55, 100
8, 30720, Note_on_c, 6, 54, 96
8, 30812, Note_off_c, 6, 54, 100
8, 30816, Note_on_c, 6, 55, 96
8, 30908, Note_off_c, 6, 55, 100
8, 30912, Note_on_c, 6, 57, 96
8, 31004, Note_off_c, 6, 57, 100
8, 31008, Note_on_c, 6, 59, 96
8, 31100, Note_off_c, 6, 59, 100
8, 31104, Note_on_c, 6, 57, 96
8, 32252, Note_off_c, 6, 57, 100
8, 32448, Note_on_c, 6, 50, 96
8, 32576, Note_off_c, 6, 50, 100
8, 32640, Note_on_c, 6, 52, 96
8, 32768, Note_off_c, 6, 52, 100
8, 32832, Note_on_c, 6, 54, 96
8, 32960, Note_off_c, 6, 54, 100
8, 33024, Note_on_c, 6, 55, 96
8, 33116, Note_off_c, 6, 55, 100
8, 33120, Note_on_c, 6, 59, 96
8, 33212, Note_off_c, 6, 59, 100
8, 33216, Note_on_c, 6, 57, 96
8, 33308, Note_off_c, 6, 57, 100
8, 33312, Note_on_c, 6, 60, 96
8, 33404, Note_off_c, 6, 60, 100
8, 33408, Note_on_c, 6, 59, 96
8, 33536, Note_off_c, 6, 59, 100
8, 33600, Note_on_c, 6, 57, 96
8, 33788, Note_off_c, 6, 57, 100
8, 33792, Note_on_c, 6, 59, 96
8, 33980, Note_off_c, 6, 59, 100
8, 33984, Note_on_c, 6, 60, 96
8, 34172, Note_off_c, 6, 60, 100
8, 34176, Note_on_c, 6, 62, 96
8, 34196, Note_off_c, 6, 62, 100
8, 34200, Note_on_c, 6, 60, 96
8, 34220, Note_off_c, 6, 60, 100
8, 34224, Note_on_c, 6, 62, 96
8, 34460, Note_off_c, 6, 62, 100
8, 34464, Note_on_c, 6, 64, 96
8, 34556, Note_off_c, 6, 64, 100
8, 34560, Note_on_c, 6, 62, 96
8, 34940, Note_off_c, 6, 62, 100
8, 35040, Note_on_c, 6, 59, 96
8, 35132, Note_off_c, 6, 59, 100
8, 35136, Note_on_c, 6, 60, 96
8, 35228, Note_off_c, 6, 60, 100
8, 35232, Note_on_c, 6, 62, 96
8, 35324, Note_off_c, 6, 62, 100
8, 35328, Note_on_c, 6, 64, 96
8, 35420, Note_off_c, 6, 64, 100
8, 35424, Note_on_c, 6, 66, 96
8, 35516, Note_off_c, 6, 66, 100
8, 35520, Note_on_c, 6, 67, 96
8, 35612, Note_off_c, 6, 67, 100
8, 35616, Note_on_c, 6, 69, 96
8, 35708, Note_off_c, 6, 69, 100
8, 35712, Note_on_c, 6, 71, 96
8, 35804, Note_off_c, 6, 71, 100
8, 35808, Note_on_c, 6, 67, 96
8, 35900, Note_off_c, 6, 67, 100
8, 35904, Note_on_c, 6, 62, 96
8, 35996, Note_off_c, 6, 62, 100
8, 36000, Note_on_c, 6, 59, 96
8, 36092, Note_off_c, 6, 59, 100
8, 36096, Note_on_c, 6, 55, 96
8, 36284, Note_off_c, 6, 55, 100
8, 36284, End_track
9, 0, Start_track
9, 0, Title_t, "Goldberg Variations"
9, 0, Control_c, 7, 0, 0
9, 0, Program_c, 7, 6
9, 0, Control_c, 7, 7, 127
9, 0, Control_c, 7, 10, 64
9, 0, Control_c, 7, 91, 127
9, 0, Key_signature, 1, "major"
9, 1344, Note_on_c, 7, 50, 96
9, 1436, Note_off_c, 7, 50, 100
9, 1440, Note_on_c, 7, 52, 96
9, 1532, Note_off_c, 7, 52, 100
9, 1536, Note_on_c, 7, 50, 96
9, 1724, Note_off_c, 7, 50, 100
9, 1728, Note_on_c, 7, 48, 96
9, 1820, Note_off_c, 7, 48, 100
9, 1824, Note_on_c, 7, 47, 96
9, 1916, Note_off_c, 7, 47, 100
9, 1920, Note_on_c, 7, 45, 96
9, 2012, Note_off_c, 7, 45, 100
9, 2016, Note_on_c, 7, 47, 96
9, 2108, Note_off_c, 7, 47, 100
9, 2112, Note_on_c, 7, 48, 96
9, 2204, Note_off_c, 7, 48, 100
9, 2208, Note_on_c, 7, 50, 96
9, 2300, Note_off_c, 7, 50, 100
9, 2304, Note_on_c, 7, 43, 96
9, 2396, Note_off_c, 7, 43, 100
9, 2400, Note_on_c, 7, 48, 96
9, 2492, Note_off_c, 7, 48, 100
9, 2496, Note_on_c, 7, 47, 96
9, 2588, Note_off_c, 7, 47, 100
9, 2592, Note_on_c, 7, 45, 96
9, 2684, Note_off_c, 7, 45, 100
9, 2688, Note_on_c, 7, 43, 96
9, 2780, Note_off_c, 7, 43, 100
9, 2784, Note_on_c, 7, 42, 96
9, 2876, Note_off_c, 7, 42, 100
9, 2880, Note_on_c, 7, 40, 96
9, 2972, Note_off_c, 7, 40, 100
9, 2976, Note_on_c, 7, 38, 96
9, 3068, Note_off_c, 7, 38, 100
9, 3072, Note_on_c, 7, 37, 96
9, 3260, Note_off_c, 7, 37, 100
9, 3648, Note_on_c, 7, 38, 96
9, 3740, Note_off_c, 7, 38, 100
9, 3744, Note_on_c, 7, 40, 96
9, 3836, Note_off_c, 7, 40, 100
9, 3840, Note_on_c, 7, 42, 96
9, 3932, Note_off_c, 7, 42, 100
9, 3936, Note_on_c, 7, 43, 96
9, 4028, Note_off_c, 7, 43, 100
9, 4032, Note_on_c, 7, 45, 96
9, 4124, Note_off_c, 7, 45, 100
9, 4128, Note_on_c, 7, 47, 96
9, 4220, Note_off_c, 7, 47, 100
9, 4224, Note_on_c, 7, 48, 96
9, 4316, Note_off_c, 7, 48, 100
9, 4320, Note_on_c, 7, 50, 96
9, 4412, Note_off_c, 7, 50, 100
9, 4416, Note_on_c, 7, 52, 96
9, 4508, Note_off_c, 7, 52, 100
9, 4512, Note_on_c, 7, 50, 96
9, 4576, Note_off_c, 7, 50, 100
9, 4608, Note_on_c, 7, 50, 96
9, 4796, Note_off_c, 7, 50, 100
9, 4800, Note_on_c, 7, 52, 96
9, 4892, Note_off_c, 7, 52, 100
9, 4896, Note_on_c, 7, 54, 96
9, 4988, Note_off_c, 7, 54, 100
9, 4992, Note_on_c, 7, 55, 96
9, 5180, Note_off_c, 7, 55, 100
9, 5856, Note_on_c, 7, 43, 96
9, 6140, Note_off_c, 7, 43, 100
9, 6240, Note_on_c, 7, 47, 96
9, 6332, Note_off_c, 7, 47, 100
9, 6336, Note_on_c, 7, 48, 96
9, 6428, Note_off_c, 7, 48, 100
9, 6432, Note_on_c, 7, 50, 96
9, 6524, Note_off_c, 7, 50, 100
9, 6528, Note_on_c, 7, 52, 96
9, 6620, Note_off_c, 7, 52, 100
9, 6624, Note_on_c, 7, 54, 96
9, 6716, Note_off_c, 7, 54, 100
9, 6720, Note_on_c, 7, 55, 96
9, 6812, Note_off_c, 7, 55, 100
9, 6816, Note_on_c, 7, 52, 96
9, 6908, Note_off_c, 7, 52, 100
9, 6912, Note_on_c, 7, 54, 96
9, 7004, Note_off_c, 7, 54, 100
9, 7008, Note_on_c, 7, 50, 96
9, 7100, Note_off_c, 7, 50, 100
9, 7104, Note_on_c, 7, 45, 96
9, 7196, Note_off_c, 7, 45, 100
9, 7200, Note_on_c, 7, 43, 96
9, 7292, Note_off_c, 7, 43, 100
9, 7296, Note_on_c, 7, 42, 96
9, 7424, Note_off_c, 7, 42, 100
9, 7488, Note_on_c, 7, 48, 96
9, 7744, Note_off_c, 7, 48, 100
9, 7872, Note_on_c, 7, 48, 96
9, 8156, Note_off_c, 7, 48, 100
9, 8160, Note_on_c, 7, 47, 96
9, 8252, Note_off_c, 7, 47, 100
9, 8256, Note_on_c, 7, 52, 96
9, 8348, Note_off_c, 7, 52, 100
9, 8352, Note_on_c, 7, 50, 96
9, 8444, Note_off_c, 7, 50, 100
9, 8448, Note_on_c, 7, 48, 96
9, 8540, Note_off_c, 7, 48, 100
9, 8544, Note_on_c, 7, 50, 96
9, 8636, Note_off_c, 7, 50, 100
9, 8640, Note_on_c, 7, 52, 96
9, 8732, Note_off_c, 7, 52, 100
9, 8736, Note_on_c, 7, 42, 96
9, 8828, Note_off_c, 7, 42, 100
9, 8832, Note_on_c, 7, 43, 96
9, 8924, Note_off_c, 7, 43, 100
9, 8928, Note_on_c, 7, 45, 96
9, 9020, Note_off_c, 7, 45, 100
9, 9024, Note_on_c, 7, 47, 96
9, 9116, Note_off_c, 7, 47, 100
9, 9120, Note_on_c, 7, 48, 96
9, 9212, Note_off_c, 7, 48, 100
9, 9216, Note_on_c, 7, 50, 96
9, 9596, Note_off_c, 7, 50, 100
9, 10464, Note_on_c, 7, 52, 96
9, 10556, Note_off_c, 7, 52, 100
9, 10560, Note_on_c, 7, 50, 96
9, 10652, Note_off_c, 7, 50, 100
9, 10656, Note_on_c, 7, 49, 96
9, 10748, Note_off_c, 7, 49, 100
9, 10752, Note_on_c, 7, 47, 96
9, 10844, Note_off_c, 7, 47, 100
9, 10848, Note_on_c, 7, 45, 96
9, 10940, Note_off_c, 7, 45, 100
9, 10944, Note_on_c, 7, 43, 96
9, 11036, Note_off_c, 7, 43, 100
9, 11040, Note_on_c, 7, 40, 96
9, 11132, Note_off_c, 7, 40, 100
9, 11136, Note_on_c, 7, 42, 96
9, 11228, Note_off_c, 7, 42, 100
9, 11232, Note_on_c, 7, 43, 96
9, 11324, Note_off_c, 7, 43, 100
9, 11328, Note_on_c, 7, 45, 96
9, 11420, Note_off_c, 7, 45, 100
9, 11424, Note_on_c, 7, 47, 96
9, 11516, Note_off_c, 7, 47, 100
9, 11520, Note_on_c, 7, 49, 96
9, 11612, Note_off_c, 7, 49, 100
9, 11616, Note_on_c, 7, 50, 96
9, 11708, Note_off_c, 7, 50, 100
9, 11712, Note_on_c, 7, 52, 96
9, 11804, Note_off_c, 7, 52, 100
9, 11808, Note_on_c, 7, 54, 96
9, 11900, Note_off_c, 7, 54, 100
9, 11904, Note_on_c, 7, 55, 96
9, 12092, Note_off_c, 7, 55, 100
9, 12864, Note_on_c, 7, 45, 96
9, 13052, Note_off_c, 7, 45, 100
9, 13152, Note_on_c, 7, 47, 96
9, 13244, Note_off_c, 7, 47, 100
9, 13248, Note_on_c, 7, 49, 96
9, 13340, Note_off_c, 7, 49, 100
9, 13344, Note_on_c, 7, 47, 96
9, 13436, Note_off_c, 7, 47, 100
9, 13440, Note_on_c, 7, 45, 96
9, 13532, Note_off_c, 7, 45, 100
9, 13536, Note_on_c, 7, 43, 96
9, 13628, Note_off_c, 7, 43, 100
9, 13632, Note_on_c, 7, 42, 96
9, 13724, Note_off_c, 7, 42, 100
9, 13728, Note_on_c, 7, 40, 96
9, 13820, Note_off_c, 7, 40, 100
9, 13824, Note_on_c, 7, 38, 96
9, 13952, Note_off_c, 7, 38, 100
9, 14016, Note_on_c, 7, 50, 96
9, 14108, Note_off_c, 7, 50, 100
9, 14112, Note_on_c, 7, 52, 96
9, 14204, Note_off_c, 7, 52, 100
9, 14208, Note_on_c, 7, 50, 96
9, 14588, Note_off_c, 7, 50, 100
9, 14688, Note_on_c, 7, 47, 96
9, 14780, Note_off_c, 7, 47, 100
9, 14784, Note_on_c, 7, 49, 96
9, 14876, Note_off_c, 7, 49, 100
9, 14880, Note_on_c, 7, 50, 96
9, 14972, Note_off_c, 7, 50, 100
9, 14976, Note_on_c, 7, 52, 96
9, 15068, Note_off_c, 7, 52, 100
9, 15072, Note_on_c, 7, 54, 96
9, 15164, Note_off_c, 7, 54, 100
9, 15168, Note_on_c, 7, 52, 96
9, 15260, Note_off_c, 7, 52, 100
9, 15264, Note_on_c, 7, 50, 96
9, 15356, Note_off_c, 7, 50, 100
9, 15360, Note_on_c, 7, 52, 96
9, 15452, Note_off_c, 7, 52, 100
9, 15456, Note_on_c, 7, 49, 96
9, 15548, Note_off_c, 7, 49, 100
9, 15552, Note_on_c, 7, 50, 96
9, 15644, Note_off_c, 7, 50, 100
9, 15648, Note_on_c, 7, 52, 96
9, 15740, Note_off_c, 7, 52, 100
9, 15744, Note_on_c, 7, 54, 96
9, 16124, Note_off_c, 7, 54, 100
9, 16320, Note_on_c, 7, 43, 96
9, 16448, Note_off_c, 7, 43, 100
9, 16512, Note_on_c, 7, 45, 96
9, 16640, Note_off_c, 7, 45, 100
9, 16704, Note_on_c, 7, 47, 96
9, 16832, Note_off_c, 7, 47, 100
9, 16896, Note_on_c, 7, 49, 96
9, 17024, Note_off_c, 7, 49, 100
9, 17088, Note_on_c, 7, 40, 96
9, 17216, Note_off_c, 7, 40, 100
9, 17280, Note_on_c, 7, 50, 96
9, 17664, Note_off_c, 7, 50, 100
9, 17856, Note_on_c, 7, 52, 96
9, 18044, Note_off_c, 7, 52, 100
9, 18048, Note_on_c, 7, 54, 96
9, 18140, Note_off_c, 7, 54, 100
9, 18144, Note_on_c, 7, 49, 96
9, 18236, Note_off_c, 7, 49, 100
9, 18240, Note_on_c, 7, 50, 96
9, 18368, Note_off_c, 7, 50, 100
9, 18624, Note_on_c, 7, 50, 96
9, 18716, Note_off_c, 7, 50, 100
9, 18720, Note_on_c, 7, 52, 96
9, 18812, Note_off_c, 7, 52, 100
9, 18816, Note_on_c, 7, 50, 96
9, 19004, Note_off_c, 7, 50, 100
9, 19008, Note_on_c, 7, 48, 96
9, 19100, Note_off_c, 7, 48, 100
9, 19104, Note_on_c, 7, 47, 96
9, 19196, Note_off_c, 7, 47, 100
9, 19200, Note_on_c, 7, 45, 96
9, 19292, Note_off_c, 7, 45, 100
9, 19296, Note_on_c, 7, 47, 96
9, 19388, Note_off_c, 7, 47, 100
9, 19392, Note_on_c, 7, 48, 96
9, 19484, Note_off_c, 7, 48, 100
9, 19488, Note_on_c, 7, 50, 96
9, 19580, Note_off_c, 7, 50, 100
9, 19584, Note_on_c, 7, 38, 96
9, 19964, Note_off_c, 7, 38, 100
9, 20064, Note_on_c, 7, 40, 96
9, 20156, Note_off_c, 7, 40, 100
9, 20160, Note_on_c, 7, 36, 96
9, 20252, Note_off_c, 7, 36, 100
9, 20256, Note_on_c, 7, 38, 96
9, 20348, Note_off_c, 7, 38, 100
9, 20352, Note_on_c, 7, 40, 96
9, 20444, Note_off_c, 7, 40, 100
9, 20448, Note_on_c, 7, 38, 96
9, 20540, Note_off_c, 7, 38, 100
9, 20544, Note_on_c, 7, 41, 96
9, 20672, Note_off_c, 7, 41, 100
9, 20736, Note_on_c, 7, 41, 96
9, 20828, Note_off_c, 7, 41, 100
9, 20832, Note_on_c, 7, 40, 96
9, 20972, Note_off_c, 7, 40, 100
9, 20976, Note_on_c, 7, 41, 96
9, 21020, Note_off_c, 7, 41, 100
9, 21024, Note_on_c, 7, 40, 96
9, 21068, Note_off_c, 7, 40, 100
9, 21072, Note_on_c, 7, 39, 96
9, 21116, Note_off_c, 7, 39, 100
9, 21120, Note_on_c, 7, 40, 96
9, 21308, Note_off_c, 7, 40, 100
9, 21312, Note_on_c, 7, 48, 96
9, 21440, Note_off_c, 7, 48, 100
9, 21696, Note_on_c, 7, 40, 96
9, 21824, Note_off_c, 7, 40, 100
9, 21888, Note_on_c, 7, 39, 96
9, 21980, Note_off_c, 7, 39, 100
9, 21984, Note_on_c, 7, 40, 96
9, 22076, Note_off_c, 7, 40, 100
9, 22080, Note_on_c, 7, 39, 96
9, 22172, Note_off_c, 7, 39, 100
9, 22176, Note_on_c, 7, 37, 96
9, 22268, Note_off_c, 7, 37, 100
9, 22272, Note_on_c, 7, 39, 96
9, 22364, Note_off_c, 7, 39, 100
9, 22368, Note_on_c, 7, 40, 96
9, 22460, Note_off_c, 7, 40, 100
9, 22464, Note_on_c, 7, 42, 96
9, 22556, Note_off_c, 7, 42, 100
9, 22560, Note_on_c, 7, 43, 96
9, 22652, Note_off_c, 7, 43, 100
9, 22656, Note_on_c, 7, 45, 96
9, 22748, Note_off_c, 7, 45, 100
9, 22752, Note_on_c, 7, 47, 96
9, 22844, Note_off_c, 7, 47, 100
9, 22848, Note_on_c, 7, 49, 96
9, 22940, Note_off_c, 7, 49, 100
9, 22944, Note_on_c, 7, 51, 96
9, 23036, Note_off_c, 7, 51, 100
9, 23040, Note_on_c, 7, 52, 96
9, 24188, Note_off_c, 7, 52, 100
9, 24384, Note_on_c, 7, 52, 96
9, 24476, Note_off_c, 7, 52, 100
9, 24480, Note_on_c, 7, 51, 96
9, 24572, Note_off_c, 7, 51, 100
9, 24576, Note_on_c, 7, 52, 96
9, 24704, Note_off_c, 7, 52, 100
9, 24768, Note_on_c, 7, 52, 96
9, 24896, Note_off_c, 7, 52, 100
9, 24960, Note_on_c, 7, 52, 96
9, 25088, Note_off_c, 7, 52, 100
9, 25152, Note_on_c, 7, 51, 96
9, 25244, Note_off_c, 7, 51, 100
9, 25248, Note_on_c, 7, 49, 96
9, 25340, Note_off_c, 7, 49, 100
9, 25344, Note_on_c, 7, 51, 96
9, 25724, Note_off_c, 7, 51, 100
9, 26112, Note_on_c, 7, 54, 96
9, 26492, Note_off_c, 7, 54, 100
9, 26592, Note_on_c, 7, 52, 96
9, 26684, Note_off_c, 7, 52, 100
9, 26688, Note_on_c, 7, 51, 96
9, 26780, Note_off_c, 7, 51, 100
9, 26784, Note_on_c, 7, 54, 96
9, 26876, Note_off_c, 7, 54, 100
9, 26880, Note_on_c, 7, 52, 96
9, 26972, Note_off_c, 7, 52, 100
9, 26976, Note_on_c, 7, 50, 96
9, 27068, Note_off_c, 7, 50, 100
9, 27072, Note_on_c, 7, 49, 96
9, 27164, Note_off_c, 7, 49, 100
9, 27168, Note_on_c, 7, 48, 96
9, 27260, Note_off_c, 7, 48, 100
9, 27264, Note_on_c, 7, 47, 96
9, 27356, Note_off_c, 7, 47, 100
9, 27360, Note_on_c, 7, 45, 96
9, 27452, Note_off_c, 7, 45, 100
9, 27456, Note_on_c, 7, 43, 96
9, 27548, Note_off_c, 7, 43, 100
9, 27552, Note_on_c, 7, 42, 96
9, 27644, Note_off_c, 7, 42, 100
9, 27648, Note_on_c, 7, 43, 96
9, 27836, Note_off_c, 7, 43, 100
9, 28896, Note_on_c, 7, 57, 96
9, 28988, Note_off_c, 7, 57, 100
9, 28992, Note_on_c, 7, 56, 96
9, 29084, Note_off_c, 7, 56, 100
9, 29088, Note_on_c, 7, 54, 96
9, 29180, Note_off_c, 7, 54, 100
9, 29184, Note_on_c, 7, 56, 96
9, 29276, Note_off_c, 7, 56, 100
9, 29280, Note_on_c, 7, 53, 96
9, 29372, Note_off_c, 7, 53, 100
9, 29376, Note_on_c, 7, 52, 96
9, 29468, Note_off_c, 7, 52, 100
9, 29472, Note_on_c, 7, 50, 96
9, 29564, Note_off_c, 7, 50, 100
9, 29568, Note_on_c, 7, 52, 96
9, 29660, Note_off_c, 7, 52, 100
9, 29664, Note_on_c, 7, 50, 96
9, 29756, Note_off_c, 7, 50, 100
9, 29760, Note_on_c, 7, 48, 96
9, 29852, Note_off_c, 7, 48, 100
9, 29856, Note_on_c, 7, 47, 96
9, 29948, Note_off_c, 7, 47, 100
9, 29952, Note_on_c, 7, 48, 96
9, 31100, Note_off_c, 7, 48, 100
9, 31296, Note_on_c, 7, 55, 96
9, 31424, Note_off_c, 7, 55, 100
9, 31488, Note_on_c, 7, 54, 96
9, 31616, Note_off_c, 7, 54, 100
9, 31680, Note_on_c, 7, 52, 96
9, 31808, Note_off_c, 7, 52, 100
9, 31872, Note_on_c, 7, 50, 96
9, 31964, Note_off_c, 7, 50, 100
9, 31968, Note_on_c, 7, 47, 96
9, 32060, Note_off_c, 7, 47, 100
9, 32064, Note_on_c, 7, 48, 96
9, 32156, Note_off_c, 7, 48, 100
9, 32160, Note_on_c, 7, 45, 96
9, 32252, Note_off_c, 7, 45, 100
9, 32256, Note_on_c, 7, 47, 96
9, 32384, Note_off_c, 7, 47, 100
9, 32448, Note_on_c, 7, 48, 96
9, 32636, Note_off_c, 7, 48, 100
9, 32640, Note_on_c, 7, 47, 96
9, 32828, Note_off_c, 7, 47, 100
9, 32832, Note_on_c, 7, 45, 96
9, 32960, Note_off_c, 7, 45, 100
9, 33024, Note_on_c, 7, 45, 96
9, 33036, Note_off_c, 7, 45, 100
9, 33040, Note_on_c, 7, 43, 96
9, 33052, Note_off_c, 7, 43, 100
9, 33056, Note_on_c, 7, 45, 96
9, 33068, Note_off_c, 7, 45, 100
9, 33072, Note_on_c, 7, 43, 96
9, 33308, Note_off_c, 7, 43, 99
9, 33312, Note_on_c, 7, 42, 96
9, 33404, Note_off_c, 7, 42, 100
9, 33408, Note_on_c, 7, 43, 96
9, 33788, Note_off_c, 7, 43, 100
9, 33888, Note_on_c, 7, 47, 96
9, 33980, Note_off_c, 7, 47, 100
9, 33984, Note_on_c, 7, 45, 96
9, 34076, Note_off_c, 7, 45, 100
9, 34080, Note_on_c, 7, 43, 96
9, 34172, Note_off_c, 7, 43, 100
9, 34176, Note_on_c, 7, 42, 96
9, 34268, Note_off_c, 7, 42, 100
9, 34272, Note_on_c, 7, 40, 96
9, 34364, Note_off_c, 7, 40, 100
9, 34368, Note_on_c, 7, 38, 96
9, 34460, Note_off_c, 7, 38, 100
9, 34464, Note_on_c, 7, 36, 96
9, 34556, Note_off_c, 7, 36, 100
9, 34560, Note_on_c, 7, 35, 96
9, 34652, Note_off_c, 7, 35, 100
9, 34656, Note_on_c, 7, 38, 96
9, 34748, Note_off_c, 7, 38, 100
9, 34752, Note_on_c, 7, 43, 96
9, 34844, Note_off_c, 7, 43, 100
9, 34848, Note_on_c, 7, 47, 96
9, 34940, Note_off_c, 7, 47, 100
9, 34944, Note_on_c, 7, 50, 96
9, 35072, Note_off_c, 7, 50, 100
9, 35136, Note_on_c, 7, 43, 96
9, 35420, Note_off_c, 7, 43, 100
9, 35424, Note_on_c, 7, 45, 96
9, 35516, Note_off_c, 7, 45, 100
9, 35520, Note_on_c, 7, 42, 96
9, 35708, Note_off_c, 7, 42, 100
9, 35712, Note_on_c, 7, 43, 96
9, 36092, Note_off_c, 7, 43, 100
9, 36092, End_track
10, 0, Start_track
10, 0, Title_t, "BWV 988"
10, 0, Control_c, 8, 0, 0
10, 0, Program_c, 8, 6
10, 0, Control_c, 8, 7, 127
10, 0, Control_c, 8, 10, 127
10, 0, Control_c, 8, 91, 127
10, 0, Key_signature, 1, "major"
10, 0, Note_on_c, 8, 67, 96
10, 256, Note_off_c, 8, 67, 100
10, 384, Note_on_c, 8, 67, 96
10, 764, Note_off_c, 8, 67, 100
10, 768, Note_on_c, 8, 67, 96
10, 1148, Note_off_c, 8, 67, 100
10, 1152, Note_on_c, 8, 66, 96
10, 1408, Note_off_c, 8, 66, 100
10, 1536, Note_on_c, 8, 66, 96
10, 1916, Note_off_c, 8, 66, 100
10, 1920, Note_on_c, 8, 66, 96
10, 2300, Note_off_c, 8, 66, 100
10, 2304, Note_on_c, 8, 64, 96
10, 2560, Note_off_c, 8, 64, 100
10, 2688, Note_on_c, 8, 64, 96
10, 3068, Note_off_c, 8, 64, 100
10, 3072, Note_on_c, 8, 64, 96
10, 3452, Note_off_c, 8, 64, 100
10, 3456, Note_on_c, 8, 62, 96
10, 3548, Note_off_c, 8, 62, 100
10, 3552, Note_on_c, 8, 50, 96
10, 3644, Note_off_c, 8, 50, 100
10, 3648, Note_on_c, 8, 62, 96
10, 3836, Note_off_c, 8, 62, 100
10, 4032, Note_on_c, 8, 60, 96
10, 4124, Note_off_c, 8, 60, 100
10, 4128, Note_on_c, 8, 59, 96
10, 4220, Note_off_c, 8, 59, 100
10, 4224, Note_on_c, 8, 57, 96
10, 4412, Note_off_c, 8, 57, 100
10, 4416, Note_on_c, 8, 60, 96
10, 4604, Note_off_c, 8, 60, 100
10, 4608, Note_on_c, 8, 59, 96
10, 4864, Note_off_c, 8, 59, 100
10, 4992, Note_on_c, 8, 59, 96
10, 5372, Note_off_c, 8, 59, 100
10, 5376, Note_on_c, 8, 59, 96
10, 5756, Note_off_c, 8, 59, 100
10, 5760, Note_on_c, 8, 60, 96
10, 6016, Note_off_c, 8, 60, 100
10, 6144, Note_on_c, 8, 60, 96
10, 6524, Note_off_c, 8, 60, 100
10, 6528, Note_on_c, 8, 60, 96
10, 6908, Note_off_c, 8, 60, 100
10, 6912, Note_on_c, 8, 62, 96
10, 7168, Note_off_c, 8, 62, 100
10, 7296, Note_on_c, 8, 62, 96
10, 7676, Note_off_c, 8, 62, 100
10, 7680, Note_on_c, 8, 62, 96
10, 8060, Note_off_c, 8, 62, 100
10, 8064, Note_on_c, 8, 67, 96
10, 8256, Note_off_c, 8, 67, 100
10, 8352, Note_on_c, 8, 59, 96
10, 8444, Note_off_c, 8, 59, 100
10, 8448, Note_on_c, 8, 64, 96
10, 8540, Note_off_c, 8, 64, 100
10, 8544, Note_on_c, 8, 62, 96
10, 8636, Note_off_c, 8, 62, 100
10, 8640, Note_on_c, 8, 60, 96
10, 8732, Note_off_c, 8, 60, 100
10, 8736, Note_on_c, 8, 64, 96
10, 8828, Note_off_c, 8, 64, 100
10, 8832, Note_on_c, 8, 62, 96
10, 8924, Note_off_c, 8, 62, 100
10, 8928, Note_on_c, 8, 60, 96
10, 9020, Note_off_c, 8, 60, 100
10, 9024, Note_on_c, 8, 59, 96
10, 9116, Note_off_c, 8, 59, 100
10, 9120, Note_on_c, 8, 57, 96
10, 9212, Note_off_c, 8, 57, 100
10, 9216, Note_on_c, 8, 59, 96
10, 9344, Note_off_c, 8, 59, 100
10, 9408, Note_on_c, 8, 55, 96
10, 9536, Note_off_c, 8, 55, 100
10, 9792, Note_on_c, 8, 67, 96
10, 9884, Note_off_c, 8, 67, 100
10, 9888, Note_on_c, 8, 66, 96
10, 9980, Note_off_c, 8, 66, 100
10, 9984, Note_on_c, 8, 67, 96
10, 10112, Note_off_c, 8, 67, 100
10, 10176, Note_on_c, 8, 64, 96
10, 10304, Note_off_c, 8, 64, 100
10, 10368, Note_on_c, 8, 66, 96
10, 10496, Note_off_c, 8, 66, 100
10, 10560, Note_on_c, 8, 71, 96
10, 10688, Note_off_c, 8, 71, 100
10, 10944, Note_on_c, 8, 59, 96
10, 11036, Note_off_c, 8, 59, 100
10, 11040, Note_on_c, 8, 61, 96
10, 11132, Note_off_c, 8, 61, 100
10, 11136, Note_on_c, 8, 62, 96
10, 11264, Note_off_c, 8, 62, 100
10, 11328, Note_on_c, 8, 59, 96
10, 11456, Note_off_c, 8, 59, 100
10, 11520, Note_on_c, 8, 64, 96
10, 11612, Note_off_c, 8, 64, 100
10, 11616, Note_on_c, 8, 66, 96
10, 11708, Note_off_c, 8, 66, 100
10, 11712, Note_on_c, 8, 67, 96
10, 11804, Note_off_c, 8, 67, 100
10, 11808, Note_on_c, 8, 66, 96
10, 11900, Note_off_c, 8, 66, 100
10, 11904, Note_on_c, 8, 64, 96
10, 12032, Note_off_c, 8, 64, 100
10, 12096, Note_on_c, 8, 66, 96
10, 12224, Note_off_c, 8, 66, 100
10, 12288, Note_on_c, 8, 64, 96
10, 12416, Note_off_c, 8, 64, 100
10, 12480, Note_on_c, 8, 62, 96
10, 12608, Note_off_c, 8, 62, 100
10, 12672, Note_on_c, 8, 61, 96
10, 12764, Note_off_c, 8, 61, 100
10, 12768, Note_on_c, 8, 62, 96
10, 12860, Note_off_c, 8, 62, 100
10, 12864, Note_on_c, 8, 64, 96
10, 12956, Note_off_c, 8, 64, 100
10, 12960, Note_on_c, 8, 62, 96
10, 13052, Note_off_c, 8, 62, 100
10, 13056, Note_on_c, 8, 61, 96
10, 13184, Note_off_c, 8, 61, 100
10, 13248, Note_on_c, 8, 64, 96
10, 13376, Note_off_c, 8, 64, 100
10, 13440, Note_on_c, 8, 61, 96
10, 13568, Note_off_c, 8, 61, 100
10, 13632, Note_on_c, 8, 57, 96
10, 13760, Note_off_c, 8, 57, 100
10, 13824, Note_on_c, 8, 62, 96
10, 14204, Note_off_c, 8, 62, 100
10, 14208, Note_on_c, 8, 62, 96
10, 14300, Note_off_c, 8, 62, 100
10, 14304, Note_on_c, 8, 64, 96
10, 14396, Note_off_c, 8, 64, 100
10, 14400, Note_on_c, 8, 66, 96
10, 14492, Note_off_c, 8, 66, 100
10, 14496, Note_on_c, 8, 67, 96
10, 14588, Note_off_c, 8, 67, 100
10, 14592, Note_on_c, 8, 69, 96
10, 14684, Note_off_c, 8, 69, 100
10, 14688, Note_on_c, 8, 67, 96
10, 14780, Note_off_c, 8, 67, 100
10, 14784, Note_on_c, 8, 66, 96
10, 14876, Note_off_c, 8, 66, 100
10, 14976, Note_on_c, 8, 67, 96
10, 15104, Note_off_c, 8, 67, 100
10, 15168, Note_on_c, 8, 55, 96
10, 15296, Note_off_c, 8, 55, 100
10, 15456, Note_on_c, 8, 64, 96
10, 15548, Note_off_c, 8, 64, 100
10, 15552, Note_on_c, 8, 66, 96
10, 15644, Note_off_c, 8, 66, 100
10, 15648, Note_on_c, 8, 67, 96
10, 15740, Note_off_c, 8, 67, 100
10, 15744, Note_on_c, 8, 69, 96
10, 15836, Note_off_c, 8, 69, 100
10, 15840, Note_on_c, 8, 66, 96
10, 15932, Note_off_c, 8, 66, 100
10, 15936, Note_on_c, 8, 64, 96
10, 16028, Note_off_c, 8, 64, 100
10, 16032, Note_on_c, 8, 62, 96
10, 16096, Note_off_c, 8, 62, 100
10, 16128, Note_on_c, 8, 71, 96
10, 16220, Note_off_c, 8, 71, 100
10, 16224, Note_on_c, 8, 59, 96
10, 16316, Note_off_c, 8, 59, 100
10, 16320, Note_on_c, 8, 64, 96
10, 16412, Note_off_c, 8, 64, 100
10, 16416, Note_on_c, 8, 62, 96
10, 16508, Note_off_c, 8, 62, 100
10, 16512, Note_on_c, 8, 61, 96
10, 16604, Note_off_c, 8, 61, 100
10, 16608, Note_on_c, 8, 57, 96
10, 16700, Note_off_c, 8, 57, 100
10, 16704, Note_on_c, 8, 62, 96
10, 16796, Note_off_c, 8, 62, 100
10, 16800, Note_on_c, 8, 67, 96
10, 16892, Note_off_c, 8, 67, 100
10, 16896, Note_on_c, 8, 69, 96
10, 16988, Note_off_c, 8, 69, 100
10, 16992, Note_on_c, 8, 64, 96
10, 17084, Note_off_c, 8, 64, 100
10, 17088, Note_on_c, 8, 61, 96
10, 17180, Note_off_c, 8, 61, 100
10, 17184, Note_on_c, 8, 57, 96
10, 17276, Note_off_c, 8, 57, 100
10, 17280, Note_on_c, 8, 62, 96
10, 17344, Note_off_c, 8, 62, 100
10, 17376, Note_on_c, 8, 64, 96
10, 17468, Note_off_c, 8, 64, 100
10, 17472, Note_on_c, 8, 62, 96
10, 17564, Note_off_c, 8, 62, 100
10, 17568, Note_on_c, 8, 61, 96
10, 17660, Note_off_c, 8, 61, 100
10, 17664, Note_on_c, 8, 62, 96
10, 17792, Note_off_c, 8, 62, 100
10, 17856, Note_on_c, 8, 57, 96
10, 17984, Note_off_c, 8, 57, 100
10, 18048, Note_on_c, 8, 50, 96
10, 18176, Note_off_c, 8, 50, 100
10, 18432, Note_on_c, 8, 62, 96
10, 18688, Note_off_c, 8, 62, 100
10, 18816, Note_on_c, 8, 62, 96
10, 19196, Note_off_c, 8, 62, 100
10, 19200, Note_on_c, 8, 60, 96
10, 19580, Note_off_c, 8, 60, 100
10, 19584, Note_on_c, 8, 59, 96
10, 19772, Note_off_c, 8, 59, 100
10, 19776, Note_on_c, 8, 60, 96
10, 19964, Note_off_c, 8, 60, 100
10, 19968, Note_on_c, 8, 59, 96
10, 20156, Note_off_c, 8, 59, 100
10, 20160, Note_on_c, 8, 57, 96
10, 20348, Note_off_c, 8, 57, 100
10, 20352, Note_on_c, 8, 55, 96
10, 20540, Note_off_c, 8, 55, 100
10, 20544, Note_on_c, 8, 57, 96
10, 20636, Note_off_c, 8, 57, 100
10, 20640, Note_on_c, 8, 59, 96
10, 20732, Note_off_c, 8, 59, 100
10, 20736, Note_on_c, 8, 60, 96
10, 20924, Note_off_c, 8, 60, 100
10, 20928, Note_on_c, 8, 59, 96
10, 21116, Note_off_c, 8, 59, 100
10, 21120, Note_on_c, 8, 60, 96
10, 21308, Note_off_c, 8, 60, 100
10, 21312, Note_on_c, 8, 64, 96
10, 21500, Note_off_c, 8, 64, 100
10, 21504, Note_on_c, 8, 57, 96
10, 21692, Note_off_c, 8, 57, 100
10, 21696, Note_on_c, 8, 60, 96
10, 21884, Note_off_c, 8, 60, 100
10, 21888, Note_on_c, 8, 59, 96
10, 22268, Note_off_c, 8, 59, 100
10, 23232, Note_on_c, 8, 64, 96
10, 23420, Note_off_c, 8, 64, 100
10, 23424, Note_on_c, 8, 66, 96
10, 23612, Note_off_c, 8, 66, 100
10, 23616, Note_on_c, 8, 67, 96
10, 23804, Note_off_c, 8, 67, 100
10, 23808, Note_on_c, 8, 69, 96
10, 23996, Note_off_c, 8, 69, 100
10, 24000, Note_on_c, 8, 71, 96
10, 24188, Note_off_c, 8, 71, 100
10, 24192, Note_on_c, 8, 72, 96
10, 24256, Note_off_c, 8, 72, 100
10, 24288, Note_on_c, 8, 74, 96
10, 24380, Note_off_c, 8, 74, 100
10, 24384, Note_on_c, 8, 72, 96
10, 24476, Note_off_c, 8, 72, 100
10, 24480, Note_on_c, 8, 71, 96
10, 24572, Note_off_c, 8, 71, 100
10, 24576, Note_on_c, 8, 72, 96
10, 24668, Note_off_c, 8, 72, 100
10, 24672, Note_on_c, 8, 71, 96
10, 24764, Note_off_c, 8, 71, 100
10, 24768, Note_on_c, 8, 69, 96
10, 24860, Note_off_c, 8, 69, 100
10, 24864, Note_on_c, 8, 67, 96
10, 24956, Note_off_c, 8, 67, 100
10, 24960, Note_on_c, 8, 69, 96
10, 25052, Note_off_c, 8, 69, 100
10, 25056, Note_on_c, 8, 66, 96
10, 25148, Note_off_c, 8, 66, 100
10, 25152, Note_on_c, 8, 67, 96
10, 25244, Note_off_c, 8, 67, 100
10, 25248, Note_on_c, 8, 69, 96
10, 25340, Note_off_c, 8, 69, 100
10, 25344, Note_on_c, 8, 71, 96
10, 25408, Note_off_c, 8, 71, 100
10, 25440, Note_on_c, 8, 72, 96
10, 25532, Note_off_c, 8, 72, 100
10, 25536, Note_on_c, 8, 71, 96
10, 25628, Note_off_c, 8, 71, 100
10, 25632, Note_on_c, 8, 69, 96
10, 25724, Note_off_c, 8, 69, 100
10, 25728, Note_on_c, 8, 71, 96
10, 25820, Note_off_c, 8, 71, 100
10, 25824, Note_on_c, 8, 66, 96
10, 25916, Note_off_c, 8, 66, 100
10, 25920, Note_on_c, 8, 63, 96
10, 26012, Note_off_c, 8, 63, 100
10, 26016, Note_on_c, 8, 66, 96
10, 26108, Note_off_c, 8, 66, 100
10, 26112, Note_on_c, 8, 59, 96
10, 26204, Note_off_c, 8, 59, 100
10, 26208, Note_on_c, 8, 63, 96
10, 26300, Note_off_c, 8, 63, 100
10, 26304, Note_on_c, 8, 61, 96
10, 26396, Note_off_c, 8, 61, 100
10, 26400, Note_on_c, 8, 59, 96
10, 26492, Note_off_c, 8, 59, 100
10, 26496, Note_on_c, 8, 64, 96
10, 26560, Note_off_c, 8, 64, 100
10, 26592, Note_on_c, 8, 60, 96
10, 26684, Note_off_c, 8, 60, 100
10, 26688, Note_on_c, 8, 59, 96
10, 26780, Note_off_c, 8, 59, 100
10, 26784, Note_on_c, 8, 57, 96
10, 26876, Note_off_c, 8, 57, 100
10, 26880, Note_on_c, 8, 55, 96
10, 26972, Note_off_c, 8, 55, 100
10, 26976, Note_on_c, 8, 59, 96
10, 27068, Note_off_c, 8, 59, 100
10, 27072, Note_on_c, 8, 64, 96
10, 27164, Note_off_c, 8, 64, 100
10, 27168, Note_on_c, 8, 63, 96
10, 27260, Note_off_c, 8, 63, 100
10, 27264, Note_on_c, 8, 64, 96
10, 27452, Note_off_c, 8, 64, 100
10, 27456, Note_on_c, 8, 62, 96
10, 27644, Note_off_c, 8, 62, 100
10, 27648, Note_on_c, 8, 60, 96
10, 27776, Note_off_c, 8, 60, 100
10, 27840, Note_on_c, 8, 72, 96
10, 27968, Note_off_c, 8, 72, 100
10, 28128, Note_on_c, 8, 64, 96
10, 28220, Note_off_c, 8, 64, 100
10, 28224, Note_on_c, 8, 62, 96
10, 28316, Note_off_c, 8, 62, 100
10, 28320, Note_on_c, 8, 60, 96
10, 28412, Note_off_c, 8, 60, 100
10, 28416, Note_on_c, 8, 62, 96
10, 28508, Note_off_c, 8, 62, 100
10, 28512, Note_on_c, 8, 60, 96
10, 28604, Note_off_c, 8, 60, 100
10, 28608, Note_on_c, 8, 59, 96
10, 28700, Note_off_c, 8, 59, 100
10, 28704, Note_on_c, 8, 57, 96
10, 28796, Note_off_c, 8, 57, 100
10, 28800, Note_on_c, 8, 59, 96
10, 28928, Note_off_c, 8, 59, 100
10, 28992, Note_on_c, 8, 71, 96
10, 29120, Note_off_c, 8, 71, 100
10, 29280, Note_on_c, 8, 62, 96
10, 29372, Note_off_c, 8, 62, 100
10, 29376, Note_on_c, 8, 60, 96
10, 29468, Note_off_c, 8, 60, 100
10, 29472, Note_on_c, 8, 59, 96
10, 29564, Note_off_c, 8, 59, 100
10, 29568, Note_on_c, 8, 60, 96
10, 29660, Note_off_c, 8, 60, 100
10, 29664, Note_on_c, 8, 59, 96
10, 29756, Note_off_c, 8, 59, 100
10, 29760, Note_on_c, 8, 57, 96
10, 29852, Note_off_c, 8, 57, 100
10, 29856, Note_on_c, 8, 56, 96
10, 29948, Note_off_c, 8, 56, 100
10, 29952, Note_on_c, 8, 57, 96
10, 30080, Note_off_c, 8, 57, 100
10, 30144, Note_on_c, 8, 69, 96
10, 30272, Note_off_c, 8, 69, 100
10, 30432, Note_on_c, 8, 71, 96
10, 30524, Note_off_c, 8, 71, 100
10, 30528, Note_on_c, 8, 69, 96
10, 30620, Note_off_c, 8, 69, 100
10, 30624, Note_on_c, 8, 67, 96
10, 30704, Note_off_c, 8, 67, 100
10, 30720, Note_on_c, 8, 69, 96
10, 30812, Note_off_c, 8, 69, 100
10, 30816, Note_on_c, 8, 67, 96
10, 30908, Note_off_c, 8, 67, 100
10, 30912, Note_on_c, 8, 66, 96
10, 31004, Note_off_c, 8, 66, 100
10, 31008, Note_on_c, 8, 64, 96
10, 31088, Note_off_c, 8, 64, 100
10, 31104, Note_on_c, 8, 66, 96
10, 31196, Note_off_c, 8, 66, 100
10, 31200, Note_on_c, 8, 64, 96
10, 31292, Note_off_c, 8, 64, 100
10, 31296, Note_on_c, 8, 62, 96
10, 31388, Note_off_c, 8, 62, 100
10, 31392, Note_on_c, 8, 61, 96
10, 31472, Note_off_c, 8, 61, 100
10, 31488, Note_on_c, 8, 62, 96
10, 31580, Note_off_c, 8, 62, 100
10, 31584, Note_on_c, 8, 60, 96
10, 31676, Note_off_c, 8, 60, 100
10, 31680, Note_on_c, 8, 59, 96
10, 31772, Note_off_c, 8, 59, 100
10, 31776, Note_on_c, 8, 57, 96
10, 31856, Note_off_c, 8, 57, 100
10, 31872, Note_on_c, 8, 59, 96
10, 31964, Note_off_c, 8, 59, 100
10, 31968, Note_on_c, 8, 57, 96
10, 32060, Note_off_c, 8, 57, 100
10, 32064, Note_on_c, 8, 55, 96
10, 32156, Note_off_c, 8, 55, 100
10, 32160, Note_on_c, 8, 54, 96
10, 32252, Note_off_c, 8, 54, 100
10, 32256, Note_on_c, 8, 55, 96
10, 32320, Note_off_c, 8, 55, 100
10, 32352, Note_on_c, 8, 69, 96
10, 32444, Note_off_c, 8, 69, 100
10, 32448, Note_on_c, 8, 67, 96
10, 32540, Note_off_c, 8, 67, 100
10, 32544, Note_on_c, 8, 66, 96
10, 32624, Note_off_c, 8, 66, 100
10, 32640, Note_on_c, 8, 67, 96
10, 32732, Note_off_c, 8, 67, 100
10, 32736, Note_on_c, 8, 66, 96
10, 32828, Note_off_c, 8, 66, 100
10, 32832, Note_on_c, 8, 64, 96
10, 32924, Note_off_c, 8, 64, 100
10, 32928, Note_on_c, 8, 63, 96
10, 33020, Note_off_c, 8, 63, 100
10, 33024, Note_on_c, 8, 64, 96
10, 33404, Note_off_c, 8, 64, 100
10, 33504, Note_on_c, 8, 62, 96
10, 33596, Note_off_c, 8, 62, 100
10, 33600, Note_on_c, 8, 60, 96
10, 33692, Note_off_c, 8, 60, 100
10, 33696, Note_on_c, 8, 64, 96
10, 33788, Note_off_c, 8, 64, 100
10, 33792, Note_on_c, 8, 62, 96
10, 34364, Note_off_c, 8, 62, 100
10, 34368, Note_on_c, 8, 57, 96
10, 34556, Note_off_c, 8, 57, 100
10, 34560, Note_on_c, 8, 59, 96
10, 34748, Note_off_c, 8, 59, 100
10, 35136, Note_on_c, 8, 64, 96
10, 35324, Note_off_c, 8, 64, 100
10, 35328, Note_on_c, 8, 60, 96
10, 35516, Note_off_c, 8, 60, 100
10, 35520, Note_on_c, 8, 62, 96
10, 35708, Note_off_c, 8, 62, 100
10, 35712, Note_on_c, 8, 55, 96
10, 36092, Note_off_c, 8, 55, 100
10, 36192, Note_on_c, 8, 59, 96
10, 36284, Note_off_c, 8, 59, 100
10, 36288, Note_on_c, 8, 62, 96
10, 36380, Note_off_c, 8, 62, 100
10, 36384, Note_on_c, 8, 66, 96
10, 36568, Note_off_c, 8, 66, 100
10, 36572, Note_on_c, 8, 67, 96
10, 36952, Note_off_c, 8, 67, 64
10, 36952, End_track
11, 0, Start_track
11, 0, Title_t, "Var.XII, Canone alla quarta in moto contrario: Moderato"
11, 0, Control_c, 2, 0, 0
11, 0, Program_c, 2, 6
11, 0, Control_c, 2, 7, 127
11, 0, Control_c, 2, 10, 60
11, 0, Control_c, 2, 91, 127
11, 0, Key_signature, 1, "major"
11, 0, End_track
12, 0, Start_track
12, 0, Title_t, "Bruno de Giusti"
12, 0, Control_c, 2, 0, 0
12, 0, Program_c, 2, 6
12, 0, Control_c, 2, 7, 127
12, 0, Control_c, 2, 10, 60
12, 0, Control_c, 2, 91, 127
12, 0, Key_signature, 1, "major"
12, 0, End_track
13, 0, Start_track
13, 0, Title_t, "bdg@bruno-de-giusti.net"
13, 0, Control_c, 2, 0, 0
13, 0, Program_c, 2, 6
13, 0, Control_c, 2, 7, 127
13, 0, Control_c, 2, 10, 60
13, 0, Control_c, 2, 91, 127
13, 0, Key_signature, 1, "major"
13, 0, End_track
14, 0, Start_track
14, 0, Title_t, "www.bruno-de-giusti.net"
14, 0, Control_c, 2, 0, 0
14, 0, Program_c, 2, 6
14, 0, Control_c, 2, 7, 127
14, 0, Control_c, 2, 10, 60
14, 0, Control_c, 2, 91, 127
14, 0, Key_signature, 1, "major"
14, 0, End_track
15, 0, Start_track
15, 0, Title_t, "All rights reserved"
15, 0, Control_c, 2, 0, 0
15, 0, Program_c, 2, 6
15, 0, Control_c, 2, 7, 127
15, 0, Control_c, 2, 10, 60
15, 0, Control_c, 2, 91, 127
15, 0, Key_signature, 1, "major"
15, 0, End_track
16, 0, Start_track
16, 1, Copyright_t, "___________________________________________________\012\012KUNSTDERFUGE.COM LARGE CLASSICAL MIDI COLLECTION\012ONCLASSICAL BY ALESSANDRO SIMONETTO, PROPRIETOR\012___________________________________________________\012\012! Attention: this file is under copyright !\012\012(c)onclassical, (c)degiusti, 2010\012___________________________________________________\012\012NO ONE MAY REPUBLISH THIS FILE WITHOUT PERMISSION\012COMMERCIAL USES OF THIS FILE IS STRICTLY PROHIBITED\012___________________________________________________\012\012Files & contributor's list: http://kunstderfuge.com/\012Terms and conditions: http://kunstderfuge.com/notes.htm"
16, 1, End_track
0, 0, End_of_file