0, 0, Header, 1, 14, 384
1, 0, Start_track
1, 0, Time_signature, 3, 2, 96, 8
1, 0, Sequencer_specific, 03, 00, 00, 41
1, 0, Sequencer_specific, 05, 00, 00, 77, 0E, 00
1, 0, Tempo, 652173
1, 9216, Tempo, 750000
1, 9224, Tempo, 740740
1, 9232, Tempo, 731707
1, 9240, Tempo, 722891
1, 9248, Tempo, 714285
1, 9256, Tempo, 705882
1, 9264, Tempo, 697674
1, 9272, Tempo, 689655
1, 9280, Tempo, 681818
1, 9288, Tempo, 674157
1, 9296, Tempo, 666666
1, 9304, Tempo, 659340
1, 9312, Tempo, 652173
1, 10368, Tempo, 750000
1, 10376, Tempo, 740740
1, 10384, Tempo, 731707
1, 10392, Tempo, 722891
1, 10400, Tempo, 714285
1, 10408, Tempo, 705882
1, 10416, Tempo, 697674
1, 10424, Tempo, 689655
1, 10432, Tempo, 681818
1, 10440, Tempo, 674157
1, 10448, Tempo, 666666
1, 10456, Tempo, 659340
1, 10464, Tempo, 652173
1, 11520, Tempo, 750000
1, 11528, Tempo, 740740
1, 11536, Tempo, 731707
1, 11544, Tempo, 722891
1, 11552, Tempo, 714285
1, 11560, Tempo, 705882
1, 11568, Tempo, 697674
1, 11576, Tempo, 689655
1, 11584, Tempo, 681818
1, 11592, Tempo, 674157
1, 11600, Tempo, 666666
1, 11608, Tempo, 659340
1, 11616, Tempo, 652173
1, 12672, Tempo, 750000
1, 12680, Tempo, 740740
1, 12688, Tempo, 731707
1, 12696, Tempo, 722891
1, 12704, Tempo, 714285
1, 12712, Tempo, 705882
1, 12720, Tempo, 697674
1, 12728, Tempo, 689655
1, 12736, Tempo, 681818
1, 12744, Tempo, 674157
1, 12752, Tempo, 666666
1, 12760, Tempo, 659340
1, 12768, Tempo, 652173
1, 17280, Tempo, 800000
1, 17284, Tempo, 789473
1, 17288, Tempo, 779220
1, 17296, Tempo, 769230
1, 17300, Tempo, 759493
1, 17308, Tempo, 750000
1, 17312, Tempo, 740740
1, 17316, Tempo, 731707
1, 17324, Tempo, 722891
1, 17328, Tempo, 714285
1, 17336, Tempo, 705882
1, 17340, Tempo, 697674
1, 17344, Tempo, 689655
1, 17352, Tempo, 681818
1, 17356, Tempo, 674157
1, 17364, Tempo, 666666
1, 17368, Tempo, 659340
1, 17376, Tempo, 652173
1, 17472, Tempo, 666666
1, 17568, Tempo, 674157
1, 17664, Tempo, 681818
1, 17760, Tempo, 689655
1, 17856, Tempo, 697674
1, 17952, Tempo, 705882
1, 18048, Tempo, 1000000
1, 18060, Tempo, 983606
1, 18072, Tempo, 967741
1, 18084, Tempo, 952380
1, 18096, Tempo, 937500
1, 18108, Tempo, 923076
1, 18120, Tempo, 909090
1, 18132, Tempo, 895522
1, 18144, Tempo, 882352
1, 18156, Tempo, 869565
1, 18168, Tempo, 857142
1, 18180, Tempo, 845070
1, 18192, Tempo, 833333
1, 18204, Tempo, 821917
1, 18216, Tempo, 810810
1, 18228, Tempo, 800000
1, 18240, Tempo, 789473
1, 18252, Tempo, 779220
1, 18264, Tempo, 769230
1, 18276, Tempo, 759493
1, 18288, Tempo, 750000
1, 18300, Tempo, 740740
1, 18312, Tempo, 731707
1, 18324, Tempo, 722891
1, 18336, Tempo, 714285
1, 18348, Tempo, 705882
1, 18360, Tempo, 697674
1, 18372, Tempo, 689655
1, 18384, Tempo, 681818
1, 18396, Tempo, 674157
1, 18408, Tempo, 666666
1, 18420, Tempo, 659340
1, 18432, Tempo, 652173
1, 27648, Tempo, 800000
1, 27652, Tempo, 789473
1, 27656, Tempo, 779220
1, 27664, Tempo, 769230
1, 27668, Tempo, 759493
1, 27676, Tempo, 750000
1, 27680, Tempo, 740740
1, 27684, Tempo, 731707
1, 27692, Tempo, 722891
1, 27696, Tempo, 714285
1, 27704, Tempo, 705882
1, 27708, Tempo, 697674
1, 27712, Tempo, 689655
1, 27720, Tempo, 681818
1, 27724, Tempo, 674157
1, 27732, Tempo, 666666
1, 27736, Tempo, 659340
1, 27744, Tempo, 652173
1, 28800, Tempo, 750000
1, 28808, Tempo, 740740
1, 28816, Tempo, 731707
1, 28824, Tempo, 722891
1, 28832, Tempo, 714285
1, 28840, Tempo, 705882
1, 28848, Tempo, 697674
1, 28856, Tempo, 689655
1, 28864, Tempo, 681818
1, 28872, Tempo, 674157
1, 28880, Tempo, 666666
1, 28888, Tempo, 659340
1, 28896, Tempo, 652173
1, 29952, Tempo, 750000
1, 29960, Tempo, 740740
1, 29968, Tempo, 731707
1, 29976, Tempo, 722891
1, 29984, Tempo, 714285
1, 29992, Tempo, 705882
1, 30000, Tempo, 697674
1, 30008, Tempo, 689655
1, 30016, Tempo, 681818
1, 30024, Tempo, 674157
1, 30032, Tempo, 666666
1, 30040, Tempo, 659340
1, 30048, Tempo, 652173
1, 31104, Tempo, 750000
1, 31112, Tempo, 740740
1, 31120, Tempo, 731707
1, 31128, Tempo, 722891
1, 31136, Tempo, 714285
1, 31144, Tempo, 705882
1, 31152, Tempo, 697674
1, 31160, Tempo, 689655
1, 31168, Tempo, 681818
1, 31176, Tempo, 674157
1, 31184, Tempo, 666666
1, 31192, Tempo, 659340
1, 31200, Tempo, 652173
1, 35712, Tempo, 800000
1, 35716, Tempo, 789473
1, 35720, Tempo, 779220
1, 35728, Tempo, 769230
1, 35732, Tempo, 759493
1, 35740, Tempo, 750000
1, 35744, Tempo, 740740
1, 35748, Tempo, 731707
1, 35756, Tempo, 722891
1, 35760, Tempo, 714285
1, 35768, Tempo, 705882
1, 35772, Tempo, 697674
1, 35776, Tempo, 689655
1, 35784, Tempo, 681818
1, 35788, Tempo, 674157
1, 35796, Tempo, 666666
1, 35800, Tempo, 659340
1, 35808, Tempo, 652173
1, 36096, Tempo, 750000
1, 36104, Tempo, 740740
1, 36112, Tempo, 731707
1, 36120, Tempo, 722891
1, 36128, Tempo, 714285
1, 36136, Tempo, 705882
1, 36144, Tempo, 697674
1, 36152, Tempo, 689655
1, 36160, Tempo, 681818
1, 36168, Tempo, 674157
1, 36176, Tempo, 666666
1, 36184, Tempo, 659340
1, 36192, Tempo, 652173
1, 36208, Tempo, 659340
1, 36224, Tempo, 666666
1, 36240, Tempo, 674157
1, 36256, Tempo, 681818
1, 36276, Tempo, 689655
1, 36292, Tempo, 697674
1, 36308, Tempo, 705882
1, 36324, Tempo, 714285
1, 36344, Tempo, 722891
1, 36360, Tempo, 731707
1, 36376, Tempo, 740740
1, 36392, Tempo, 750000
1, 36412, Tempo, 759493
1, 36428, Tempo, 769230
1, 36444, Tempo, 779220
1, 36460, Tempo, 789473
1, 36480, Tempo, 1200000
1, 36488, Tempo, 1176470
1, 36496, Tempo, 1153846
1, 36504, Tempo, 1132075
1, 36516, Tempo, 1111111
1, 36524, Tempo, 1090909
1, 36532, Tempo, 1071428
1, 36544, Tempo, 1052631
1, 36552, Tempo, 1034482
1, 36560, Tempo, 1016949
1, 36568, Tempo, 1000000
1, 36580, Tempo, 983606
1, 36588, Tempo, 967741
1, 36596, Tempo, 952380
1, 36608, Tempo, 937500
1, 36616, Tempo, 923076
1, 36624, Tempo, 909090
1, 36632, Tempo, 895522
1, 36644, Tempo, 882352
1, 36652, Tempo, 869565
1, 36660, Tempo, 857142
1, 36672, Tempo, 845070
1, 36680, Tempo, 833333
1, 36688, Tempo, 821917
1, 36696, Tempo, 810810
1, 36708, Tempo, 800000
1, 36716, Tempo, 789473
1, 36724, Tempo, 779220
1, 36736, Tempo, 769230
1, 36744, Tempo, 759493
1, 36752, Tempo, 750000
1, 36760, Tempo, 740740
1, 36772, Tempo, 731707
1, 36780, Tempo, 722891
1, 36788, Tempo, 714285
1, 36800, Tempo, 705882
1, 36808, Tempo, 697674
1, 36816, Tempo, 689655
1, 36824, Tempo, 681818
1, 36836, Tempo, 674157
1, 36844, Tempo, 666666
1, 36852, Tempo, 659340
1, 36864, Tempo, 750000
1, 36872, Tempo, 740740
1, 36880, Tempo, 731707
1, 36888, Tempo, 722891
1, 36896, Tempo, 714285
1, 36904, Tempo, 705882
1, 36912, Tempo, 697674
1, 36920, Tempo, 689655
1, 36928, Tempo, 681818
1, 36936, Tempo, 674157
1, 36944, Tempo, 666666
1, 36952, Tempo, 659340
1, 36960, Tempo, 652173
1, 40704, Tempo, 750000
1, 40712, Tempo, 740740
1, 40720, Tempo, 731707
1, 40728, Tempo, 722891
1, 40736, Tempo, 714285
1, 40744, Tempo, 705882
1, 40752, Tempo, 697674
1, 40760, Tempo, 689655
1, 40768, Tempo, 681818
1, 40776, Tempo, 674157
1, 40784, Tempo, 666666
1, 40792, Tempo, 659340
1, 40800, Tempo, 652173
1, 44928, Tempo, 800000
1, 44932, Tempo, 789473
1, 44936, Tempo, 779220
1, 44944, Tempo, 769230
1, 44948, Tempo, 759493
1, 44956, Tempo, 750000
1, 44960, Tempo, 740740
1, 44964, Tempo, 731707
1, 44972, Tempo, 722891
1, 44976, Tempo, 714285
1, 44984, Tempo, 705882
1, 44988, Tempo, 697674
1, 44992, Tempo, 689655
1, 45000, Tempo, 681818
1, 45004, Tempo, 674157
1, 45012, Tempo, 666666
1, 45016, Tempo, 659340
1, 45024, Tempo, 652173
1, 52992, Tempo, 800000
1, 52996, Tempo, 789473
1, 53000, Tempo, 779220
1, 53008, Tempo, 769230
1, 53012, Tempo, 759493
1, 53020, Tempo, 750000
1, 53024, Tempo, 740740
1, 53028, Tempo, 731707
1, 53036, Tempo, 722891
1, 53040, Tempo, 714285
1, 53048, Tempo, 705882
1, 53052, Tempo, 697674
1, 53056, Tempo, 689655
1, 53064, Tempo, 681818
1, 53068, Tempo, 674157
1, 53076, Tempo, 666666
1, 53080, Tempo, 659340
1, 53088, Tempo, 652173
1, 54144, Tempo, 652173
1, 54148, Tempo, 789473
1, 54152, Tempo, 779220
1, 54160, Tempo, 769230
1, 54164, Tempo, 759493
1, 54172, Tempo, 750000
1, 54176, Tempo, 740740
1, 54180, Tempo, 731707
1, 54188, Tempo, 722891
1, 54192, Tempo, 714285
1, 54200, Tempo, 705882
1, 54204, Tempo, 697674
1, 54208, Tempo, 689655
1, 54216, Tempo, 681818
1, 54220, Tempo, 674157
1, 54228, Tempo, 666666
1, 54232, Tempo, 659340
1, 54240, Tempo, 652173
1, 54624, Tempo, 652173
1, 54648, Tempo, 659340
1, 54672, Tempo, 666666
1, 54696, Tempo, 674157
1, 54720, Tempo, 681818
1, 54744, Tempo, 689655
1, 54768, Tempo, 697674
1, 54792, Tempo, 705882
1, 54816, Tempo, 714285
1, 54840, Tempo, 722891
1, 54864, Tempo, 731707
1, 54888, Tempo, 740740
1, 54912, Tempo, 1000000
1, 54924, Tempo, 983606
1, 54936, Tempo, 967741
1, 54948, Tempo, 952380
1, 54960, Tempo, 937500
1, 54972, Tempo, 923076
1, 54984, Tempo, 909090
1, 54996, Tempo, 895522
1, 55008, Tempo, 882352
1, 55020, Tempo, 869565
1, 55032, Tempo, 857142
1, 55044, Tempo, 845070
1, 55056, Tempo, 833333
1, 55068, Tempo, 821917
1, 55080, Tempo, 810810
1, 55092, Tempo, 800000
1, 55104, Tempo, 789473
1, 55116, Tempo, 779220
1, 55128, Tempo, 769230
1, 55140, Tempo, 759493
1, 55152, Tempo, 750000
1, 55164, Tempo, 740740
1, 55176, Tempo, 731707
1, 55188, Tempo, 722891
1, 55200, Tempo, 714285
1, 55212, Tempo, 705882
1, 55224, Tempo, 697674
1, 55236, Tempo, 689655
1, 55248, Tempo, 681818
1, 55260, Tempo, 674157
1, 55272, Tempo, 666666
1, 55284, Tempo, 659340
1, 55296, Tempo, 750000
1, 55304, Tempo, 740740
1, 55312, Tempo, 731707
1, 55320, Tempo, 722891
1, 55328, Tempo, 714285
1, 55336, Tempo, 705882
1, 55344, Tempo, 697674
1, 55352, Tempo, 689655
1, 55360, Tempo, 681818
1, 55368, Tempo, 674157
1, 55376, Tempo, 666666
1, 55384, Tempo, 659340
1, 55392, Tempo, 652173
1, 63360, Tempo, 800000
1, 63364, Tempo, 789473
1, 63368, Tempo, 779220
1, 63376, Tempo, 769230
1, 63380, Tempo, 759493
1, 63388, Tempo, 750000
1, 63392, Tempo, 740740
1, 63396, Tempo, 731707
1, 63404, Tempo, 722891
1, 63408, Tempo, 714285
1, 63416, Tempo, 705882
1, 63420, Tempo, 697674
1, 63424, Tempo, 689655
1, 63432, Tempo, 681818
1, 63436, Tempo, 674157
1, 63444, Tempo, 666666
1, 63448, Tempo, 659340
1, 63456, Tempo, 652173
1, 71424, Tempo, 652173
1, 71428, Tempo, 789473
1, 71432, Tempo, 779220
1, 71440, Tempo, 769230
1, 71444, Tempo, 759493
1, 71452, Tempo, 750000
1, 71456, Tempo, 740740
1, 71460, Tempo, 731707
1, 71468, Tempo, 722891
1, 71472, Tempo, 714285
1, 71480, Tempo, 705882
1, 71484, Tempo, 697674
1, 71488, Tempo, 689655
1, 71496, Tempo, 681818
1, 71500, Tempo, 674157
1, 71508, Tempo, 666666
1, 71512, Tempo, 659340
1, 71520, Tempo, 750000
1, 71544, Tempo, 740740
1, 71568, Tempo, 731707
1, 71592, Tempo, 722891
1, 71616, Tempo, 714285
1, 71640, Tempo, 705882
1, 71664, Tempo, 697674
1, 71688, Tempo, 689655
1, 71712, Tempo, 681818
1, 71736, Tempo, 674157
1, 71760, Tempo, 666666
1, 71784, Tempo, 659340
1, 71808, Tempo, 652173
1, 72192, Tempo, 652173
1, 72576, Tempo, 895522
1, 72580, Tempo, 789473
1, 72584, Tempo, 779220
1, 72592, Tempo, 769230
1, 72596, Tempo, 759493
1, 72604, Tempo, 750000
1, 72608, Tempo, 740740
1, 72612, Tempo, 731707
1, 72620, Tempo, 722891
1, 72624, Tempo, 714285
1, 72632, Tempo, 705882
1, 72636, Tempo, 697674
1, 72640, Tempo, 689655
1, 72648, Tempo, 681818
1, 72652, Tempo, 674157
1, 72660, Tempo, 666666
1, 72664, Tempo, 659340
1, 72672, Tempo, 652173
1, 72960, Tempo, 800000
1, 72976, Tempo, 789473
1, 72996, Tempo, 779220
1, 73016, Tempo, 769230
1, 73036, Tempo, 759493
1, 73056, Tempo, 750000
1, 73068, Tempo, 759493
1, 73084, Tempo, 769230
1, 73096, Tempo, 779220
1, 73112, Tempo, 789473
1, 73128, Tempo, 800000
1, 73140, Tempo, 810810
1, 73156, Tempo, 821917
1, 73168, Tempo, 833333
1, 73184, Tempo, 845070
1, 73200, Tempo, 857142
1, 73212, Tempo, 869565
1, 73228, Tempo, 882352
1, 73240, Tempo, 895522
1, 73248, Tempo, 1000000
1, 73252, Tempo, 1016949
1, 73256, Tempo, 1034482
1, 73260, Tempo, 1052631
1, 73264, Tempo, 1071428
1, 73272, Tempo, 1090909
1, 73276, Tempo, 1111111
1, 73280, Tempo, 1132075
1, 73284, Tempo, 1153846
1, 73288, Tempo, 1176470
1, 73296, Tempo, 1200000
1, 73300, Tempo, 1224489
1, 73304, Tempo, 1250000
1, 73308, Tempo, 1276595
1, 73312, Tempo, 1304347
1, 73320, Tempo, 1333333
1, 73324, Tempo, 1363636
1, 73328, Tempo, 1395348
1, 73332, Tempo, 1428571
1, 73336, Tempo, 1463414
1, 73344, Tempo, 1500000
1, 73344, End_track
2, 0, Start_track
2, 0, Title_t, "Johann Sebastian Bach"
2, 0, Control_c, 0, 0, 0
2, 0, Program_c, 0, 6
2, 0, Control_c, 0, 7, 127
2, 0, Control_c, 0, 10, 0
2, 0, Control_c, 0, 91, 127
2, 0, Key_signature, 1, "major"
2, 0, Note_on_c, 0, 83, 127
2, 28, Note_off_c, 0, 83, 100
2, 384, Note_on_c, 0, 86, 127
2, 412, Note_off_c, 0, 86, 100
2, 768, Note_on_c, 0, 79, 127
2, 796, Note_off_c, 0, 79, 100
2, 1152, Note_on_c, 0, 81, 127
2, 1180, Note_off_c, 0, 81, 100
2, 1536, Note_on_c, 0, 86, 127
2, 1564, Note_off_c, 0, 86, 100
2, 1920, Note_on_c, 0, 78, 127
2, 1948, Note_off_c, 0, 78, 100
2, 2304, Note_on_c, 0, 79, 127
2, 2332, Note_off_c, 0, 79, 100
2, 2688, Note_on_c, 0, 83, 127
2, 2716, Note_off_c, 0, 83, 100
2, 3072, Note_on_c, 0, 81, 127
2, 3100, Note_off_c, 0, 81, 100
2, 3456, Note_on_c, 0, 78, 127
2, 3484, Note_off_c, 0, 78, 100
2, 3840, Note_on_c, 0, 85, 127
2, 3868, Note_off_c, 0, 85, 100
2, 4224, Note_on_c, 0, 86, 127
2, 4252, Note_off_c, 0, 86, 100
2, 4608, Note_on_c, 0, 79, 127
2, 4668, Note_off_c, 0, 79, 100
2, 5184, Note_on_c, 0, 76, 127
2, 5244, Note_off_c, 0, 76, 100
2, 5376, Note_on_c, 0, 77, 127
2, 5436, Note_off_c, 0, 77, 100
2, 5568, Note_on_c, 0, 74, 127
2, 5628, Note_off_c, 0, 74, 100
2, 5760, Note_on_c, 0, 76, 127
2, 5820, Note_off_c, 0, 76, 100
2, 5952, Note_on_c, 0, 57, 127
2, 6012, Note_off_c, 0, 57, 100
2, 6144, Note_on_c, 0, 59, 127
2, 6204, Note_off_c, 0, 59, 100
2, 6336, Note_on_c, 0, 78, 127
2, 6396, Note_off_c, 0, 78, 100
2, 6528, Note_on_c, 0, 79, 127
2, 6588, Note_off_c, 0, 79, 100
2, 6720, Note_on_c, 0, 73, 127
2, 6780, Note_off_c, 0, 73, 100
2, 6912, Note_on_c, 0, 74, 127
2, 6972, Note_off_c, 0, 74, 100
2, 7104, Note_on_c, 0, 57, 127
2, 7164, Note_off_c, 0, 57, 100
2, 7296, Note_on_c, 0, 59, 127
2, 7356, Note_off_c, 0, 59, 100
2, 7488, Note_on_c, 0, 52, 127
2, 7548, Note_off_c, 0, 52, 100
2, 7680, Note_on_c, 0, 54, 127
2, 7740, Note_off_c, 0, 54, 100
2, 8256, Note_on_c, 0, 84, 127
2, 8316, Note_off_c, 0, 84, 100
2, 8448, Note_on_c, 0, 83, 127
2, 8508, Note_off_c, 0, 83, 100
2, 8640, Note_on_c, 0, 81, 127
2, 8700, Note_off_c, 0, 81, 100
2, 8832, Note_on_c, 0, 79, 127
2, 8892, Note_off_c, 0, 79, 100
2, 9024, Note_on_c, 0, 78, 127
2, 9084, Note_off_c, 0, 78, 100
2, 9216, Note_on_c, 0, 79, 127
2, 9216, Note_on_c, 0, 83, 127
2, 9244, Note_off_c, 0, 83, 100
2, 9308, Note_off_c, 0, 79, 100
2, 9312, Note_on_c, 0, 79, 127
2, 9384, Note_off_c, 0, 79, 100
2, 9408, Note_on_c, 0, 78, 127
2, 9480, Note_off_c, 0, 78, 100
2, 9504, Note_on_c, 0, 79, 127
2, 9576, Note_off_c, 0, 79, 100
2, 9600, Note_on_c, 0, 76, 127
2, 9672, Note_off_c, 0, 76, 100
2, 9696, Note_on_c, 0, 71, 127
2, 9768, Note_off_c, 0, 71, 100
2, 9792, Note_on_c, 0, 69, 127
2, 9864, Note_off_c, 0, 69, 100
2, 9888, Note_on_c, 0, 71, 127
2, 9960, Note_off_c, 0, 71, 100
2, 9984, Note_on_c, 0, 67, 127
2, 10056, Note_off_c, 0, 67, 100
2, 10080, Note_on_c, 0, 71, 127
2, 10152, Note_off_c, 0, 71, 100
2, 10176, Note_on_c, 0, 76, 127
2, 10248, Note_off_c, 0, 76, 100
2, 10272, Note_on_c, 0, 79, 127
2, 10344, Note_off_c, 0, 79, 100
2, 10368, Note_on_c, 0, 81, 127
2, 10440, Note_off_c, 0, 81, 100
2, 10464, Note_on_c, 0, 78, 127
2, 10536, Note_off_c, 0, 78, 100
2, 10560, Note_on_c, 0, 76, 127
2, 10632, Note_off_c, 0, 76, 100
2, 10656, Note_on_c, 0, 78, 127
2, 10728, Note_off_c, 0, 78, 100
2, 10752, Note_on_c, 0, 74, 127
2, 10824, Note_off_c, 0, 74, 100
2, 10848, Note_on_c, 0, 69, 127
2, 10920, Note_off_c, 0, 69, 100
2, 10944, Note_on_c, 0, 67, 127
2, 11016, Note_off_c, 0, 67, 100
2, 11040, Note_on_c, 0, 69, 127
2, 11112, Note_off_c, 0, 69, 100
2, 11136, Note_on_c, 0, 66, 127
2, 11208, Note_off_c, 0, 66, 100
2, 11232, Note_on_c, 0, 69, 127
2, 11304, Note_off_c, 0, 69, 100
2, 11328, Note_on_c, 0, 74, 127
2, 11400, Note_off_c, 0, 74, 100
2, 11424, Note_on_c, 0, 78, 127
2, 11496, Note_off_c, 0, 78, 100
2, 11520, Note_on_c, 0, 79, 127
2, 11592, Note_off_c, 0, 79, 100
2, 11616, Note_on_c, 0, 76, 127
2, 11688, Note_off_c, 0, 76, 100
2, 11712, Note_on_c, 0, 75, 127
2, 11784, Note_off_c, 0, 75, 100
2, 11808, Note_on_c, 0, 76, 127
2, 11880, Note_off_c, 0, 76, 100
2, 11904, Note_on_c, 0, 71, 127
2, 11976, Note_off_c, 0, 71, 100
2, 12000, Note_on_c, 0, 67, 127
2, 12072, Note_off_c, 0, 67, 100
2, 12096, Note_on_c, 0, 66, 127
2, 12168, Note_off_c, 0, 66, 100
2, 12192, Note_on_c, 0, 67, 127
2, 12264, Note_off_c, 0, 67, 100
2, 12288, Note_on_c, 0, 64, 127
2, 12360, Note_off_c, 0, 64, 100
2, 12384, Note_on_c, 0, 67, 127
2, 12456, Note_off_c, 0, 67, 100
2, 12480, Note_on_c, 0, 71, 127
2, 12552, Note_off_c, 0, 71, 100
2, 12576, Note_on_c, 0, 74, 127
2, 12648, Note_off_c, 0, 74, 100
2, 12672, Note_on_c, 0, 73, 127
2, 12744, Note_off_c, 0, 73, 100
2, 12768, Note_on_c, 0, 67, 127
2, 12840, Note_off_c, 0, 67, 100
2, 12864, Note_on_c, 0, 66, 127
2, 12936, Note_off_c, 0, 66, 100
2, 12960, Note_on_c, 0, 67, 127
2, 13032, Note_off_c, 0, 67, 100
2, 13056, Note_on_c, 0, 64, 127
2, 13128, Note_off_c, 0, 64, 100
2, 13152, Note_on_c, 0, 61, 127
2, 13224, Note_off_c, 0, 61, 100
2, 13248, Note_on_c, 0, 59, 127
2, 13320, Note_off_c, 0, 59, 100
2, 13344, Note_on_c, 0, 61, 127
2, 13416, Note_off_c, 0, 61, 100
2, 13440, Note_on_c, 0, 57, 127
2, 13512, Note_off_c, 0, 57, 100
2, 13536, Note_on_c, 0, 61, 127
2, 13608, Note_off_c, 0, 61, 100
2, 13632, Note_on_c, 0, 64, 127
2, 13704, Note_off_c, 0, 64, 100
2, 13728, Note_on_c, 0, 67, 127
2, 13800, Note_off_c, 0, 67, 100
2, 13824, Note_on_c, 0, 66, 127
2, 13852, Note_off_c, 0, 66, 100
2, 14208, Note_on_c, 0, 67, 127
2, 14236, Note_off_c, 0, 67, 100
2, 14592, Note_on_c, 0, 69, 127
2, 14620, Note_off_c, 0, 69, 100
2, 14976, Note_on_c, 0, 71, 127
2, 15004, Note_off_c, 0, 71, 100
2, 15360, Note_on_c, 0, 69, 127
2, 15388, Note_off_c, 0, 69, 100
2, 15744, Note_on_c, 0, 67, 127
2, 15772, Note_off_c, 0, 67, 100
2, 16128, Note_on_c, 0, 69, 127
2, 16156, Note_off_c, 0, 69, 100
2, 16512, Note_on_c, 0, 71, 127
2, 16540, Note_off_c, 0, 71, 100
2, 16896, Note_on_c, 0, 69, 127
2, 16924, Note_off_c, 0, 69, 100
2, 17280, Note_on_c, 0, 66, 127
2, 17308, Note_off_c, 0, 66, 100
2, 17376, Note_on_c, 0, 62, 127
2, 17468, Note_off_c, 0, 62, 100
2, 17472, Note_on_c, 0, 61, 127
2, 17564, Note_off_c, 0, 61, 100
2, 17568, Note_on_c, 0, 62, 127
2, 17660, Note_off_c, 0, 62, 100
2, 17664, Note_on_c, 0, 57, 127
2, 17692, Note_off_c, 0, 57, 100
2, 17760, Note_on_c, 0, 54, 127
2, 17852, Note_off_c, 0, 54, 100
2, 17856, Note_on_c, 0, 52, 127
2, 17948, Note_off_c, 0, 52, 100
2, 17952, Note_on_c, 0, 54, 127
2, 18016, Note_off_c, 0, 54, 100
2, 18048, Note_on_c, 0, 50, 127
2, 18304, Note_off_c, 0, 50, 100
2, 18432, Note_on_c, 0, 83, 127
2, 18460, Note_off_c, 0, 83, 100
2, 18816, Note_on_c, 0, 86, 127
2, 18844, Note_off_c, 0, 86, 100
2, 19200, Note_on_c, 0, 79, 127
2, 19228, Note_off_c, 0, 79, 100
2, 19584, Note_on_c, 0, 81, 127
2, 19612, Note_off_c, 0, 81, 100
2, 19968, Note_on_c, 0, 86, 127
2, 19996, Note_off_c, 0, 86, 100
2, 20352, Note_on_c, 0, 78, 127
2, 20380, Note_off_c, 0, 78, 100
2, 20736, Note_on_c, 0, 79, 127
2, 20764, Note_off_c, 0, 79, 100
2, 21120, Note_on_c, 0, 83, 127
2, 21148, Note_off_c, 0, 83, 100
2, 21504, Note_on_c, 0, 81, 127
2, 21532, Note_off_c, 0, 81, 100
2, 21888, Note_on_c, 0, 78, 127
2, 21916, Note_off_c, 0, 78, 100
2, 22272, Note_on_c, 0, 85, 127
2, 22300, Note_off_c, 0, 85, 100
2, 22656, Note_on_c, 0, 86, 127
2, 22684, Note_off_c, 0, 86, 100
2, 23040, Note_on_c, 0, 79, 127
2, 23100, Note_off_c, 0, 79, 100
2, 23616, Note_on_c, 0, 76, 127
2, 23676, Note_off_c, 0, 76, 100
2, 23808, Note_on_c, 0, 77, 127
2, 23868, Note_off_c, 0, 77, 100
2, 24000, Note_on_c, 0, 74, 127
2, 24060, Note_off_c, 0, 74, 100
2, 24192, Note_on_c, 0, 76, 127
2, 24252, Note_off_c, 0, 76, 100
2, 24384, Note_on_c, 0, 57, 127
2, 24444, Note_off_c, 0, 57, 100
2, 24576, Note_on_c, 0, 59, 127
2, 24636, Note_off_c, 0, 59, 100
2, 24768, Note_on_c, 0, 78, 127
2, 24828, Note_off_c, 0, 78, 100
2, 24960, Note_on_c, 0, 79, 127
2, 25020, Note_off_c, 0, 79, 100
2, 25152, Note_on_c, 0, 73, 127
2, 25212, Note_off_c, 0, 73, 100
2, 25344, Note_on_c, 0, 74, 127
2, 25404, Note_off_c, 0, 74, 100
2, 25536, Note_on_c, 0, 57, 127
2, 25596, Note_off_c, 0, 57, 100
2, 25728, Note_on_c, 0, 59, 127
2, 25788, Note_off_c, 0, 59, 100
2, 25920, Note_on_c, 0, 52, 127
2, 25980, Note_off_c, 0, 52, 100
2, 26112, Note_on_c, 0, 54, 127
2, 26172, Note_off_c, 0, 54, 100
2, 26688, Note_on_c, 0, 84, 127
2, 26748, Note_off_c, 0, 84, 100
2, 26880, Note_on_c, 0, 83, 127
2, 26940, Note_off_c, 0, 83, 100
2, 27072, Note_on_c, 0, 81, 127
2, 27132, Note_off_c, 0, 81, 100
2, 27264, Note_on_c, 0, 79, 127
2, 27324, Note_off_c, 0, 79, 100
2, 27456, Note_on_c, 0, 78, 127
2, 27516, Note_off_c, 0, 78, 100
2, 27648, Note_on_c, 0, 79, 127
2, 27648, Note_on_c, 0, 83, 127
2, 27676, Note_off_c, 0, 83, 100
2, 27740, Note_off_c, 0, 79, 100
2, 27744, Note_on_c, 0, 79, 127
2, 27816, Note_off_c, 0, 79, 100
2, 27840, Note_on_c, 0, 78, 127
2, 27912, Note_off_c, 0, 78, 100
2, 27936, Note_on_c, 0, 79, 127
2, 28008, Note_off_c, 0, 79, 100
2, 28032, Note_on_c, 0, 76, 127
2, 28104, Note_off_c, 0, 76, 100
2, 28128, Note_on_c, 0, 71, 127
2, 28200, Note_off_c, 0, 71, 100
2, 28224, Note_on_c, 0, 69, 127
2, 28296, Note_off_c, 0, 69, 100
2, 28320, Note_on_c, 0, 71, 127
2, 28392, Note_off_c, 0, 71, 100
2, 28416, Note_on_c, 0, 67, 127
2, 28488, Note_off_c, 0, 67, 100
2, 28512, Note_on_c, 0, 71, 127
2, 28584, Note_off_c, 0, 71, 100
2, 28608, Note_on_c, 0, 76, 127
2, 28680, Note_off_c, 0, 76, 100
2, 28704, Note_on_c, 0, 79, 127
2, 28776, Note_off_c, 0, 79, 100
2, 28800, Note_on_c, 0, 81, 127
2, 28872, Note_off_c, 0, 81, 100
2, 28896, Note_on_c, 0, 78, 127
2, 28968, Note_off_c, 0, 78, 100
2, 28992, Note_on_c, 0, 76, 127
2, 29064, Note_off_c, 0, 76, 100
2, 29088, Note_on_c, 0, 78, 127
2, 29160, Note_off_c, 0, 78, 100
2, 29184, Note_on_c, 0, 74, 127
2, 29256, Note_off_c, 0, 74, 100
2, 29280, Note_on_c, 0, 69, 127
2, 29352, Note_off_c, 0, 69, 100
2, 29376, Note_on_c, 0, 67, 127
2, 29448, Note_off_c, 0, 67, 100
2, 29472, Note_on_c, 0, 69, 127
2, 29544, Note_off_c, 0, 69, 100
2, 29568, Note_on_c, 0, 66, 127
2, 29640, Note_off_c, 0, 66, 100
2, 29664, Note_on_c, 0, 69, 127
2, 29736, Note_off_c, 0, 69, 100
2, 29760, Note_on_c, 0, 74, 127
2, 29832, Note_off_c, 0, 74, 100
2, 29856, Note_on_c, 0, 78, 127
2, 29928, Note_off_c, 0, 78, 100
2, 29952, Note_on_c, 0, 79, 127
2, 30024, Note_off_c, 0, 79, 100
2, 30048, Note_on_c, 0, 76, 127
2, 30120, Note_off_c, 0, 76, 100
2, 30144, Note_on_c, 0, 75, 127
2, 30216, Note_off_c, 0, 75, 100
2, 30240, Note_on_c, 0, 76, 127
2, 30312, Note_off_c, 0, 76, 100
2, 30336, Note_on_c, 0, 71, 127
2, 30408, Note_off_c, 0, 71, 100
2, 30432, Note_on_c, 0, 67, 127
2, 30504, Note_off_c, 0, 67, 100
2, 30528, Note_on_c, 0, 66, 127
2, 30600, Note_off_c, 0, 66, 100
2, 30624, Note_on_c, 0, 67, 127
2, 30696, Note_off_c, 0, 67, 100
2, 30720, Note_on_c, 0, 64, 127
2, 30792, Note_off_c, 0, 64, 100
2, 30816, Note_on_c, 0, 67, 127
2, 30888, Note_off_c, 0, 67, 100
2, 30912, Note_on_c, 0, 71, 127
2, 30984, Note_off_c, 0, 71, 100
2, 31008, Note_on_c, 0, 74, 127
2, 31080, Note_off_c, 0, 74, 100
2, 31104, Note_on_c, 0, 73, 127
2, 31176, Note_off_c, 0, 73, 100
2, 31200, Note_on_c, 0, 67, 127
2, 31272, Note_off_c, 0, 67, 100
2, 31296, Note_on_c, 0, 66, 127
2, 31368, Note_off_c, 0, 66, 100
2, 31392, Note_on_c, 0, 67, 127
2, 31464, Note_off_c, 0, 67, 100
2, 31488, Note_on_c, 0, 64, 127
2, 31560, Note_off_c, 0, 64, 100
2, 31584, Note_on_c, 0, 61, 127
2, 31656, Note_off_c, 0, 61, 100
2, 31680, Note_on_c, 0, 59, 127
2, 31752, Note_off_c, 0, 59, 100
2, 31776, Note_on_c, 0, 61, 127
2, 31848, Note_off_c, 0, 61, 100
2, 31872, Note_on_c, 0, 57, 127
2, 31944, Note_off_c, 0, 57, 100
2, 31968, Note_on_c, 0, 61, 127
2, 32040, Note_off_c, 0, 61, 100
2, 32064, Note_on_c, 0, 64, 127
2, 32136, Note_off_c, 0, 64, 100
2, 32160, Note_on_c, 0, 67, 127
2, 32232, Note_off_c, 0, 67, 100
2, 32256, Note_on_c, 0, 66, 127
2, 32284, Note_off_c, 0, 66, 100
2, 32640, Note_on_c, 0, 67, 127
2, 32668, Note_off_c, 0, 67, 100
2, 33024, Note_on_c, 0, 69, 127
2, 33052, Note_off_c, 0, 69, 100
2, 33408, Note_on_c, 0, 71, 127
2, 33436, Note_off_c, 0, 71, 100
2, 33792, Note_on_c, 0, 69, 127
2, 33820, Note_off_c, 0, 69, 100
2, 34176, Note_on_c, 0, 67, 127
2, 34204, Note_off_c, 0, 67, 100
2, 34560, Note_on_c, 0, 69, 127
2, 34588, Note_off_c, 0, 69, 100
2, 34944, Note_on_c, 0, 71, 127
2, 34972, Note_off_c, 0, 71, 100
2, 35328, Note_on_c, 0, 69, 127
2, 35356, Note_off_c, 0, 69, 100
2, 35712, Note_on_c, 0, 66, 127
2, 35740, Note_off_c, 0, 66, 100
2, 35808, Note_on_c, 0, 62, 127
2, 35900, Note_off_c, 0, 62, 100
2, 35904, Note_on_c, 0, 61, 127
2, 35996, Note_off_c, 0, 61, 100
2, 36000, Note_on_c, 0, 62, 127
2, 36092, Note_off_c, 0, 62, 100
2, 36096, Note_on_c, 0, 57, 127
2, 36124, Note_off_c, 0, 57, 100
2, 36192, Note_on_c, 0, 54, 127
2, 36284, Note_off_c, 0, 54, 100
2, 36288, Note_on_c, 0, 52, 127
2, 36380, Note_off_c, 0, 52, 100
2, 36384, Note_on_c, 0, 54, 127
2, 36448, Note_off_c, 0, 54, 100
2, 36480, Note_on_c, 0, 50, 127
2, 36736, Note_off_c, 0, 50, 100
2, 36864, Note_on_c, 0, 66, 127
2, 36936, Note_off_c, 0, 66, 100
2, 36960, Note_on_c, 0, 69, 127
2, 37032, Note_off_c, 0, 69, 100
2, 37056, Note_on_c, 0, 67, 127
2, 37128, Note_off_c, 0, 67, 100
2, 37152, Note_on_c, 0, 69, 127
2, 37224, Note_off_c, 0, 69, 100
2, 37248, Note_on_c, 0, 74, 127
2, 37320, Note_off_c, 0, 74, 100
2, 37344, Note_on_c, 0, 78, 127
2, 37416, Note_off_c, 0, 78, 100
2, 37440, Note_on_c, 0, 76, 127
2, 37512, Note_off_c, 0, 76, 100
2, 37536, Note_on_c, 0, 78, 127
2, 37608, Note_off_c, 0, 78, 100
2, 37632, Note_on_c, 0, 81, 127
2, 37704, Note_off_c, 0, 81, 100
2, 37728, Note_on_c, 0, 78, 127
2, 37800, Note_off_c, 0, 78, 100
2, 37824, Note_on_c, 0, 72, 127
2, 37896, Note_off_c, 0, 72, 100
2, 37920, Note_on_c, 0, 69, 127
2, 37992, Note_off_c, 0, 69, 100
2, 38016, Note_on_c, 0, 71, 127
2, 38088, Note_off_c, 0, 71, 100
2, 38112, Note_on_c, 0, 74, 127
2, 38184, Note_off_c, 0, 74, 100
2, 38208, Note_on_c, 0, 72, 127
2, 38280, Note_off_c, 0, 72, 100
2, 38304, Note_on_c, 0, 74, 127
2, 38376, Note_off_c, 0, 74, 100
2, 38400, Note_on_c, 0, 79, 127
2, 38472, Note_off_c, 0, 79, 100
2, 38496, Note_on_c, 0, 83, 127
2, 38568, Note_off_c, 0, 83, 100
2, 38592, Note_on_c, 0, 81, 127
2, 38664, Note_off_c, 0, 81, 100
2, 38688, Note_on_c, 0, 83, 127
2, 38760, Note_off_c, 0, 83, 100
2, 38784, Note_on_c, 0, 86, 127
2, 38856, Note_off_c, 0, 86, 100
2, 38880, Note_on_c, 0, 83, 127
2, 38952, Note_off_c, 0, 83, 100
2, 38976, Note_on_c, 0, 77, 127
2, 39048, Note_off_c, 0, 77, 100
2, 39072, Note_on_c, 0, 74, 127
2, 39144, Note_off_c, 0, 74, 100
2, 39168, Note_on_c, 0, 76, 127
2, 39228, Note_off_c, 0, 76, 100
2, 39360, Note_on_c, 0, 71, 127
2, 39420, Note_off_c, 0, 71, 100
2, 39552, Note_on_c, 0, 72, 127
2, 39612, Note_off_c, 0, 72, 100
2, 39744, Note_on_c, 0, 63, 127
2, 39804, Note_off_c, 0, 63, 100
2, 39936, Note_on_c, 0, 64, 127
2, 39996, Note_off_c, 0, 64, 100
2, 40128, Note_on_c, 0, 55, 127
2, 40188, Note_off_c, 0, 55, 100
2, 40320, Note_on_c, 0, 54, 127
2, 40380, Note_off_c, 0, 54, 100
2, 40512, Note_on_c, 0, 76, 127
2, 40572, Note_off_c, 0, 76, 100
2, 40704, Note_on_c, 0, 75, 127
2, 40776, Note_off_c, 0, 75, 100
2, 41520, Note_on_c, 0, 79, 127
2, 41564, Note_off_c, 0, 79, 100
2, 41568, Note_on_c, 0, 81, 127
2, 41612, Note_off_c, 0, 81, 100
2, 41616, Note_on_c, 0, 79, 127
2, 41660, Note_off_c, 0, 79, 100
2, 41664, Note_on_c, 0, 81, 127
2, 41708, Note_off_c, 0, 81, 100
2, 41712, Note_on_c, 0, 79, 127
2, 41756, Note_off_c, 0, 79, 100
2, 41760, Note_on_c, 0, 81, 127
2, 41804, Note_off_c, 0, 81, 100
2, 41808, Note_on_c, 0, 79, 127
2, 41852, Note_off_c, 0, 79, 100
2, 41904, Note_on_c, 0, 79, 127
2, 41948, Note_off_c, 0, 79, 100
2, 41952, Note_on_c, 0, 81, 127
2, 41996, Note_off_c, 0, 81, 100
2, 42000, Note_on_c, 0, 79, 127
2, 42044, Note_off_c, 0, 79, 100
2, 42048, Note_on_c, 0, 81, 127
2, 42092, Note_off_c, 0, 81, 100
2, 42096, Note_on_c, 0, 79, 127
2, 42140, Note_off_c, 0, 79, 100
2, 42144, Note_on_c, 0, 81, 127
2, 42188, Note_off_c, 0, 81, 100
2, 42192, Note_on_c, 0, 79, 127
2, 42236, Note_off_c, 0, 79, 100
2, 42288, Note_on_c, 0, 79, 127
2, 42332, Note_off_c, 0, 79, 100
2, 42336, Note_on_c, 0, 81, 127
2, 42380, Note_off_c, 0, 81, 100
2, 42384, Note_on_c, 0, 79, 127
2, 42428, Note_off_c, 0, 79, 100
2, 42432, Note_on_c, 0, 81, 127
2, 42476, Note_off_c, 0, 81, 100
2, 42480, Note_on_c, 0, 79, 127
2, 42524, Note_off_c, 0, 79, 100
2, 42528, Note_on_c, 0, 81, 127
2, 42572, Note_off_c, 0, 81, 100
2, 42576, Note_on_c, 0, 79, 127
2, 42620, Note_off_c, 0, 79, 100
2, 42672, Note_on_c, 0, 79, 127
2, 42716, Note_off_c, 0, 79, 100
2, 42720, Note_on_c, 0, 81, 127
2, 42764, Note_off_c, 0, 81, 100
2, 42768, Note_on_c, 0, 79, 127
2, 42812, Note_off_c, 0, 79, 100
2, 42816, Note_on_c, 0, 81, 127
2, 42860, Note_off_c, 0, 81, 100
2, 42864, Note_on_c, 0, 79, 127
2, 42908, Note_off_c, 0, 79, 100
2, 42912, Note_on_c, 0, 81, 127
2, 42956, Note_off_c, 0, 81, 100
2, 42960, Note_on_c, 0, 79, 127
2, 43004, Note_off_c, 0, 79, 100
2, 43056, Note_on_c, 0, 79, 127
2, 43100, Note_off_c, 0, 79, 100
2, 43104, Note_on_c, 0, 81, 127
2, 43148, Note_off_c, 0, 81, 100
2, 43152, Note_on_c, 0, 79, 127
2, 43196, Note_off_c, 0, 79, 100
2, 43200, Note_on_c, 0, 81, 127
2, 43244, Note_off_c, 0, 81, 100
2, 43248, Note_on_c, 0, 79, 127
2, 43292, Note_off_c, 0, 79, 100
2, 43296, Note_on_c, 0, 81, 127
2, 43340, Note_off_c, 0, 81, 100
2, 43344, Note_on_c, 0, 79, 127
2, 43388, Note_off_c, 0, 79, 100
2, 43440, Note_on_c, 0, 79, 127
2, 43484, Note_off_c, 0, 79, 100
2, 43488, Note_on_c, 0, 81, 127
2, 43532, Note_off_c, 0, 81, 100
2, 43536, Note_on_c, 0, 79, 127
2, 43580, Note_off_c, 0, 79, 100
2, 43584, Note_on_c, 0, 81, 127
2, 43628, Note_off_c, 0, 81, 100
2, 43632, Note_on_c, 0, 79, 127
2, 43676, Note_off_c, 0, 79, 100
2, 43680, Note_on_c, 0, 81, 127
2, 43724, Note_off_c, 0, 81, 100
2, 43728, Note_on_c, 0, 79, 127
2, 43772, Note_off_c, 0, 79, 100
2, 43824, Note_on_c, 0, 79, 127
2, 43868, Note_off_c, 0, 79, 100
2, 43872, Note_on_c, 0, 81, 127
2, 43916, Note_off_c, 0, 81, 100
2, 43920, Note_on_c, 0, 79, 127
2, 43964, Note_off_c, 0, 79, 100
2, 43968, Note_on_c, 0, 81, 127
2, 44012, Note_off_c, 0, 81, 100
2, 44016, Note_on_c, 0, 79, 127
2, 44060, Note_off_c, 0, 79, 100
2, 44064, Note_on_c, 0, 81, 127
2, 44108, Note_off_c, 0, 81, 100
2, 44112, Note_on_c, 0, 79, 127
2, 44156, Note_off_c, 0, 79, 100
2, 44208, Note_on_c, 0, 79, 127
2, 44252, Note_off_c, 0, 79, 100
2, 44256, Note_on_c, 0, 81, 127
2, 44300, Note_off_c, 0, 81, 100
2, 44304, Note_on_c, 0, 79, 127
2, 44348, Note_off_c, 0, 79, 100
2, 44352, Note_on_c, 0, 81, 127
2, 44396, Note_off_c, 0, 81, 100
2, 44400, Note_on_c, 0, 79, 127
2, 44444, Note_off_c, 0, 79, 100
2, 44448, Note_on_c, 0, 81, 127
2, 44492, Note_off_c, 0, 81, 100
2, 44496, Note_on_c, 0, 79, 127
2, 44540, Note_off_c, 0, 79, 100
2, 44592, Note_on_c, 0, 78, 127
2, 44636, Note_off_c, 0, 78, 100
2, 44640, Note_on_c, 0, 79, 127
2, 44684, Note_off_c, 0, 79, 100
2, 44688, Note_on_c, 0, 78, 127
2, 44732, Note_off_c, 0, 78, 100
2, 44736, Note_on_c, 0, 79, 127
2, 44780, Note_off_c, 0, 79, 100
2, 44784, Note_on_c, 0, 78, 127
2, 44828, Note_off_c, 0, 78, 100
2, 44832, Note_on_c, 0, 79, 127
2, 44876, Note_off_c, 0, 79, 100
2, 44880, Note_on_c, 0, 78, 127
2, 44924, Note_off_c, 0, 78, 100
2, 44928, Note_on_c, 0, 76, 127
2, 44956, Note_off_c, 0, 76, 100
2, 45408, Note_on_c, 0, 76, 127
2, 45480, Note_off_c, 0, 76, 100
2, 45504, Note_on_c, 0, 75, 127
2, 45576, Note_off_c, 0, 75, 100
2, 45600, Note_on_c, 0, 76, 127
2, 45672, Note_off_c, 0, 76, 100
2, 45696, Note_on_c, 0, 79, 127
2, 45740, Note_off_c, 0, 79, 100
2, 45744, Note_on_c, 0, 77, 127
2, 45788, Note_off_c, 0, 77, 100
2, 45792, Note_on_c, 0, 76, 127
2, 45856, Note_off_c, 0, 76, 100
2, 45888, Note_on_c, 0, 77, 127
2, 45932, Note_off_c, 0, 77, 100
2, 45936, Note_on_c, 0, 76, 127
2, 45980, Note_off_c, 0, 76, 100
2, 45984, Note_on_c, 0, 74, 127
2, 46048, Note_off_c, 0, 74, 100
2, 46080, Note_on_c, 0, 76, 127
2, 46140, Note_off_c, 0, 76, 100
2, 47040, Note_on_c, 0, 76, 127
2, 47100, Note_off_c, 0, 76, 100
2, 47232, Note_on_c, 0, 74, 127
2, 47292, Note_off_c, 0, 74, 100
2, 48192, Note_on_c, 0, 74, 127
2, 48252, Note_off_c, 0, 74, 100
2, 48432, Note_on_c, 0, 72, 127
2, 48476, Note_off_c, 0, 72, 100
2, 48480, Note_on_c, 0, 74, 127
2, 48524, Note_off_c, 0, 74, 100
2, 48528, Note_on_c, 0, 72, 127
2, 48572, Note_off_c, 0, 72, 100
2, 48576, Note_on_c, 0, 74, 127
2, 48620, Note_off_c, 0, 74, 100
2, 48624, Note_on_c, 0, 72, 127
2, 48668, Note_off_c, 0, 72, 100
2, 48672, Note_on_c, 0, 74, 127
2, 48716, Note_off_c, 0, 74, 100
2, 48720, Note_on_c, 0, 72, 127
2, 48764, Note_off_c, 0, 72, 100
2, 48816, Note_on_c, 0, 72, 127
2, 48860, Note_off_c, 0, 72, 100
2, 48864, Note_on_c, 0, 74, 127
2, 48908, Note_off_c, 0, 74, 100
2, 48912, Note_on_c, 0, 72, 127
2, 48956, Note_off_c, 0, 72, 100
2, 48960, Note_on_c, 0, 74, 127
2, 49004, Note_off_c, 0, 74, 100
2, 49008, Note_on_c, 0, 72, 127
2, 49052, Note_off_c, 0, 72, 100
2, 49056, Note_on_c, 0, 74, 127
2, 49100, Note_off_c, 0, 74, 100
2, 49104, Note_on_c, 0, 72, 127
2, 49148, Note_off_c, 0, 72, 100
2, 49200, Note_on_c, 0, 72, 127
2, 49244, Note_off_c, 0, 72, 100
2, 49248, Note_on_c, 0, 74, 127
2, 49292, Note_off_c, 0, 74, 100
2, 49296, Note_on_c, 0, 72, 127
2, 49340, Note_off_c, 0, 72, 100
2, 49344, Note_on_c, 0, 74, 127
2, 49388, Note_off_c, 0, 74, 100
2, 49392, Note_on_c, 0, 72, 127
2, 49436, Note_off_c, 0, 72, 100
2, 49440, Note_on_c, 0, 74, 127
2, 49484, Note_off_c, 0, 74, 100
2, 49488, Note_on_c, 0, 72, 127
2, 49532, Note_off_c, 0, 72, 100
2, 49584, Note_on_c, 0, 72, 127
2, 49628, Note_off_c, 0, 72, 100
2, 49632, Note_on_c, 0, 74, 127
2, 49676, Note_off_c, 0, 74, 100
2, 49680, Note_on_c, 0, 72, 127
2, 49724, Note_off_c, 0, 72, 100
2, 49728, Note_on_c, 0, 74, 127
2, 49772, Note_off_c, 0, 74, 100
2, 49776, Note_on_c, 0, 72, 127
2, 49820, Note_off_c, 0, 72, 100
2, 49824, Note_on_c, 0, 74, 127
2, 49868, Note_off_c, 0, 74, 100
2, 49872, Note_on_c, 0, 72, 127
2, 49916, Note_off_c, 0, 72, 100
2, 49968, Note_on_c, 0, 72, 127
2, 50012, Note_off_c, 0, 72, 100
2, 50016, Note_on_c, 0, 74, 127
2, 50060, Note_off_c, 0, 74, 100
2, 50064, Note_on_c, 0, 72, 127
2, 50108, Note_off_c, 0, 72, 100
2, 50112, Note_on_c, 0, 74, 127
2, 50156, Note_off_c, 0, 74, 100
2, 50160, Note_on_c, 0, 72, 127
2, 50204, Note_off_c, 0, 72, 100
2, 50208, Note_on_c, 0, 74, 127
2, 50252, Note_off_c, 0, 74, 100
2, 50256, Note_on_c, 0, 72, 127
2, 50300, Note_off_c, 0, 72, 100
2, 50352, Note_on_c, 0, 72, 127
2, 50396, Note_off_c, 0, 72, 100
2, 50400, Note_on_c, 0, 74, 127
2, 50444, Note_off_c, 0, 74, 100
2, 50448, Note_on_c, 0, 72, 127
2, 50492, Note_off_c, 0, 72, 100
2, 50496, Note_on_c, 0, 74, 127
2, 50540, Note_off_c, 0, 74, 100
2, 50544, Note_on_c, 0, 72, 127
2, 50588, Note_off_c, 0, 72, 100
2, 50592, Note_on_c, 0, 74, 127
2, 50636, Note_off_c, 0, 74, 100
2, 50640, Note_on_c, 0, 72, 127
2, 50684, Note_off_c, 0, 72, 100
2, 50688, Note_on_c, 0, 71, 127
2, 50716, Note_off_c, 0, 71, 100
2, 51072, Note_on_c, 0, 72, 127
2, 51100, Note_off_c, 0, 72, 100
2, 51456, Note_on_c, 0, 74, 127
2, 51484, Note_off_c, 0, 74, 100
2, 52032, Note_on_c, 0, 76, 127
2, 52092, Note_off_c, 0, 76, 100
2, 52224, Note_on_c, 0, 77, 127
2, 52284, Note_off_c, 0, 77, 100
2, 52416, Note_on_c, 0, 78, 127
2, 52476, Note_off_c, 0, 78, 100
2, 52608, Note_on_c, 0, 79, 127
2, 52668, Note_off_c, 0, 79, 100
2, 52800, Note_on_c, 0, 80, 127
2, 52860, Note_off_c, 0, 80, 100
2, 52992, Note_on_c, 0, 81, 127
2, 53020, Note_off_c, 0, 81, 100
2, 54240, Note_on_c, 0, 71, 127
2, 54312, Note_off_c, 0, 71, 100
2, 54336, Note_on_c, 0, 69, 127
2, 54408, Note_off_c, 0, 69, 100
2, 54432, Note_on_c, 0, 71, 127
2, 54504, Note_off_c, 0, 71, 100
2, 54528, Note_on_c, 0, 74, 127
2, 54600, Note_off_c, 0, 74, 100
2, 54624, Note_on_c, 0, 79, 127
2, 54696, Note_off_c, 0, 79, 100
2, 54720, Note_on_c, 0, 78, 127
2, 54792, Note_off_c, 0, 78, 100
2, 54816, Note_on_c, 0, 79, 127
2, 54888, Note_off_c, 0, 79, 100
2, 54912, Note_on_c, 0, 83, 127
2, 55168, Note_off_c, 0, 83, 100
2, 55296, Note_on_c, 0, 66, 127
2, 55368, Note_off_c, 0, 66, 100
2, 55392, Note_on_c, 0, 69, 127
2, 55464, Note_off_c, 0, 69, 100
2, 55488, Note_on_c, 0, 67, 127
2, 55560, Note_off_c, 0, 67, 100
2, 55584, Note_on_c, 0, 69, 127
2, 55656, Note_off_c, 0, 69, 100
2, 55680, Note_on_c, 0, 74, 127
2, 55752, Note_off_c, 0, 74, 100
2, 55776, Note_on_c, 0, 78, 127
2, 55848, Note_off_c, 0, 78, 100
2, 55872, Note_on_c, 0, 76, 127
2, 55944, Note_off_c, 0, 76, 100
2, 55968, Note_on_c, 0, 78, 127
2, 56040, Note_off_c, 0, 78, 100
2, 56064, Note_on_c, 0, 81, 127
2, 56136, Note_off_c, 0, 81, 100
2, 56160, Note_on_c, 0, 78, 127
2, 56232, Note_off_c, 0, 78, 100
2, 56256, Note_on_c, 0, 72, 127
2, 56328, Note_off_c, 0, 72, 100
2, 56352, Note_on_c, 0, 69, 127
2, 56424, Note_off_c, 0, 69, 100
2, 56448, Note_on_c, 0, 71, 127
2, 56520, Note_off_c, 0, 71, 100
2, 56544, Note_on_c, 0, 74, 127
2, 56616, Note_off_c, 0, 74, 100
2, 56640, Note_on_c, 0, 72, 127
2, 56712, Note_off_c, 0, 72, 100
2, 56736, Note_on_c, 0, 74, 127
2, 56808, Note_off_c, 0, 74, 100
2, 56832, Note_on_c, 0, 79, 127
2, 56904, Note_off_c, 0, 79, 100
2, 56928, Note_on_c, 0, 83, 127
2, 57000, Note_off_c, 0, 83, 100
2, 57024, Note_on_c, 0, 81, 127
2, 57096, Note_off_c, 0, 81, 100
2, 57120, Note_on_c, 0, 83, 127
2, 57192, Note_off_c, 0, 83, 100
2, 57216, Note_on_c, 0, 86, 127
2, 57288, Note_off_c, 0, 86, 100
2, 57312, Note_on_c, 0, 83, 127
2, 57384, Note_off_c, 0, 83, 100
2, 57408, Note_on_c, 0, 77, 127
2, 57480, Note_off_c, 0, 77, 100
2, 57504, Note_on_c, 0, 74, 127
2, 57576, Note_off_c, 0, 74, 100
2, 57600, Note_on_c, 0, 76, 127
2, 57660, Note_off_c, 0, 76, 100
2, 57792, Note_on_c, 0, 71, 127
2, 57852, Note_off_c, 0, 71, 100
2, 57984, Note_on_c, 0, 72, 127
2, 58044, Note_off_c, 0, 72, 100
2, 58176, Note_on_c, 0, 63, 127
2, 58236, Note_off_c, 0, 63, 100
2, 58368, Note_on_c, 0, 64, 127
2, 58428, Note_off_c, 0, 64, 100
2, 58560, Note_on_c, 0, 55, 127
2, 58620, Note_off_c, 0, 55, 100
2, 58752, Note_on_c, 0, 54, 127
2, 58812, Note_off_c, 0, 54, 100
2, 58944, Note_on_c, 0, 76, 127
2, 59004, Note_off_c, 0, 76, 100
2, 59136, Note_on_c, 0, 75, 127
2, 59208, Note_off_c, 0, 75, 100
2, 59952, Note_on_c, 0, 79, 127
2, 59996, Note_off_c, 0, 79, 100
2, 60000, Note_on_c, 0, 81, 127
2, 60044, Note_off_c, 0, 81, 100
2, 60048, Note_on_c, 0, 79, 127
2, 60092, Note_off_c, 0, 79, 100
2, 60096, Note_on_c, 0, 81, 127
2, 60140, Note_off_c, 0, 81, 100
2, 60144, Note_on_c, 0, 79, 127
2, 60188, Note_off_c, 0, 79, 100
2, 60192, Note_on_c, 0, 81, 127
2, 60236, Note_off_c, 0, 81, 100
2, 60240, Note_on_c, 0, 79, 127
2, 60284, Note_off_c, 0, 79, 100
2, 60336, Note_on_c, 0, 79, 127
2, 60380, Note_off_c, 0, 79, 100
2, 60384, Note_on_c, 0, 81, 127
2, 60428, Note_off_c, 0, 81, 100
2, 60432, Note_on_c, 0, 79, 127
2, 60476, Note_off_c, 0, 79, 100
2, 60480, Note_on_c, 0, 81, 127
2, 60524, Note_off_c, 0, 81, 100
2, 60528, Note_on_c, 0, 79, 127
2, 60572, Note_off_c, 0, 79, 100
2, 60576, Note_on_c, 0, 81, 127
2, 60620, Note_off_c, 0, 81, 100
2, 60624, Note_on_c, 0, 79, 127
2, 60668, Note_off_c, 0, 79, 100
2, 60720, Note_on_c, 0, 79, 127
2, 60764, Note_off_c, 0, 79, 100
2, 60768, Note_on_c, 0, 81, 127
2, 60812, Note_off_c, 0, 81, 100
2, 60816, Note_on_c, 0, 79, 127
2, 60860, Note_off_c, 0, 79, 100
2, 60864, Note_on_c, 0, 81, 127
2, 60908, Note_off_c, 0, 81, 100
2, 60912, Note_on_c, 0, 79, 127
2, 60956, Note_off_c, 0, 79, 100
2, 60960, Note_on_c, 0, 81, 127
2, 61004, Note_off_c, 0, 81, 100
2, 61008, Note_on_c, 0, 79, 127
2, 61052, Note_off_c, 0, 79, 100
2, 61104, Note_on_c, 0, 79, 127
2, 61148, Note_off_c, 0, 79, 100
2, 61152, Note_on_c, 0, 81, 127
2, 61196, Note_off_c, 0, 81, 100
2, 61200, Note_on_c, 0, 79, 127
2, 61244, Note_off_c, 0, 79, 100
2, 61248, Note_on_c, 0, 81, 127
2, 61292, Note_off_c, 0, 81, 100
2, 61296, Note_on_c, 0, 79, 127
2, 61340, Note_off_c, 0, 79, 100
2, 61344, Note_on_c, 0, 81, 127
2, 61388, Note_off_c, 0, 81, 100
2, 61392, Note_on_c, 0, 79, 127
2, 61436, Note_off_c, 0, 79, 100
2, 61488, Note_on_c, 0, 79, 127
2, 61532, Note_off_c, 0, 79, 100
2, 61536, Note_on_c, 0, 81, 127
2, 61580, Note_off_c, 0, 81, 100
2, 61584, Note_on_c, 0, 79, 127
2, 61628, Note_off_c, 0, 79, 100
2, 61632, Note_on_c, 0, 81, 127
2, 61676, Note_off_c, 0, 81, 100
2, 61680, Note_on_c, 0, 79, 127
2, 61724, Note_off_c, 0, 79, 100
2, 61728, Note_on_c, 0, 81, 127
2, 61772, Note_off_c, 0, 81, 100
2, 61776, Note_on_c, 0, 79, 127
2, 61820, Note_off_c, 0, 79, 100
2, 61872, Note_on_c, 0, 79, 127
2, 61916, Note_off_c, 0, 79, 100
2, 61920, Note_on_c, 0, 81, 127
2, 61964, Note_off_c, 0, 81, 100
2, 61968, Note_on_c, 0, 79, 127
2, 62012, Note_off_c, 0, 79, 100
2, 62016, Note_on_c, 0, 81, 127
2, 62060, Note_off_c, 0, 81, 100
2, 62064, Note_on_c, 0, 79, 127
2, 62108, Note_off_c, 0, 79, 100
2, 62112, Note_on_c, 0, 81, 127
2, 62156, Note_off_c, 0, 81, 100
2, 62160, Note_on_c, 0, 79, 127
2, 62204, Note_off_c, 0, 79, 100
2, 62256, Note_on_c, 0, 79, 127
2, 62300, Note_off_c, 0, 79, 100
2, 62304, Note_on_c, 0, 81, 127
2, 62348, Note_off_c, 0, 81, 100
2, 62352, Note_on_c, 0, 79, 127
2, 62396, Note_off_c, 0, 79, 100
2, 62400, Note_on_c, 0, 81, 127
2, 62444, Note_off_c, 0, 81, 100
2, 62448, Note_on_c, 0, 79, 127
2, 62492, Note_off_c, 0, 79, 100
2, 62496, Note_on_c, 0, 81, 127
2, 62540, Note_off_c, 0, 81, 100
2, 62544, Note_on_c, 0, 79, 127
2, 62588, Note_off_c, 0, 79, 100
2, 62640, Note_on_c, 0, 79, 127
2, 62684, Note_off_c, 0, 79, 100
2, 62688, Note_on_c, 0, 81, 127
2, 62732, Note_off_c, 0, 81, 100
2, 62736, Note_on_c, 0, 79, 127
2, 62780, Note_off_c, 0, 79, 100
2, 62784, Note_on_c, 0, 81, 127
2, 62828, Note_off_c, 0, 81, 100
2, 62832, Note_on_c, 0, 79, 127
2, 62876, Note_off_c, 0, 79, 100
2, 62880, Note_on_c, 0, 81, 127
2, 62924, Note_off_c, 0, 81, 100
2, 62928, Note_on_c, 0, 79, 127
2, 62972, Note_off_c, 0, 79, 100
2, 63024, Note_on_c, 0, 78, 127
2, 63068, Note_off_c, 0, 78, 100
2, 63072, Note_on_c, 0, 79, 127
2, 63116, Note_off_c, 0, 79, 100
2, 63120, Note_on_c, 0, 78, 127
2, 63164, Note_off_c, 0, 78, 100
2, 63168, Note_on_c, 0, 79, 127
2, 63212, Note_off_c, 0, 79, 100
2, 63216, Note_on_c, 0, 78, 127
2, 63260, Note_off_c, 0, 78, 100
2, 63264, Note_on_c, 0, 79, 127
2, 63308, Note_off_c, 0, 79, 100
2, 63312, Note_on_c, 0, 78, 127
2, 63356, Note_off_c, 0, 78, 100
2, 63360, Note_on_c, 0, 76, 127
2, 63388, Note_off_c, 0, 76, 100
2, 63840, Note_on_c, 0, 76, 127
2, 63912, Note_off_c, 0, 76, 100
2, 63936, Note_on_c, 0, 75, 127
2, 64008, Note_off_c, 0, 75, 100
2, 64032, Note_on_c, 0, 76, 127
2, 64104, Note_off_c, 0, 76, 100
2, 64128, Note_on_c, 0, 79, 127
2, 64172, Note_off_c, 0, 79, 100
2, 64176, Note_on_c, 0, 77, 127
2, 64220, Note_off_c, 0, 77, 100
2, 64224, Note_on_c, 0, 76, 127
2, 64288, Note_off_c, 0, 76, 100
2, 64320, Note_on_c, 0, 77, 127
2, 64364, Note_off_c, 0, 77, 100
2, 64368, Note_on_c, 0, 76, 127
2, 64412, Note_off_c, 0, 76, 100
2, 64416, Note_on_c, 0, 74, 127
2, 64480, Note_off_c, 0, 74, 100
2, 64512, Note_on_c, 0, 76, 127
2, 64572, Note_off_c, 0, 76, 100
2, 65472, Note_on_c, 0, 76, 127
2, 65532, Note_off_c, 0, 76, 100
2, 65664, Note_on_c, 0, 74, 127
2, 65724, Note_off_c, 0, 74, 100
2, 66624, Note_on_c, 0, 74, 127
2, 66684, Note_off_c, 0, 74, 100
2, 66864, Note_on_c, 0, 72, 127
2, 66908, Note_off_c, 0, 72, 100
2, 66912, Note_on_c, 0, 74, 127
2, 66956, Note_off_c, 0, 74, 100
2, 66960, Note_on_c, 0, 72, 127
2, 67004, Note_off_c, 0, 72, 100
2, 67008, Note_on_c, 0, 74, 127
2, 67052, Note_off_c, 0, 74, 100
2, 67056, Note_on_c, 0, 72, 127
2, 67100, Note_off_c, 0, 72, 100
2, 67104, Note_on_c, 0, 74, 127
2, 67148, Note_off_c, 0, 74, 100
2, 67152, Note_on_c, 0, 72, 127
2, 67196, Note_off_c, 0, 72, 100
2, 67248, Note_on_c, 0, 72, 127
2, 67292, Note_off_c, 0, 72, 100
2, 67296, Note_on_c, 0, 74, 127
2, 67340, Note_off_c, 0, 74, 100
2, 67344, Note_on_c, 0, 72, 127
2, 67388, Note_off_c, 0, 72, 100
2, 67392, Note_on_c, 0, 74, 127
2, 67436, Note_off_c, 0, 74, 100
2, 67440, Note_on_c, 0, 72, 127
2, 67484, Note_off_c, 0, 72, 100
2, 67488, Note_on_c, 0, 74, 127
2, 67532, Note_off_c, 0, 74, 100
2, 67536, Note_on_c, 0, 72, 127
2, 67580, Note_off_c, 0, 72, 100
2, 67632, Note_on_c, 0, 72, 127
2, 67676, Note_off_c, 0, 72, 100
2, 67680, Note_on_c, 0, 74, 127
2, 67724, Note_off_c, 0, 74, 100
2, 67728, Note_on_c, 0, 72, 127
2, 67772, Note_off_c, 0, 72, 100
2, 67776, Note_on_c, 0, 74, 127
2, 67820, Note_off_c, 0, 74, 100
2, 67824, Note_on_c, 0, 72, 127
2, 67868, Note_off_c, 0, 72, 100
2, 67872, Note_on_c, 0, 74, 127
2, 67916, Note_off_c, 0, 74, 100
2, 67920, Note_on_c, 0, 72, 127
2, 67964, Note_off_c, 0, 72, 100
2, 68016, Note_on_c, 0, 72, 127
2, 68060, Note_off_c, 0, 72, 100
2, 68064, Note_on_c, 0, 74, 127
2, 68108, Note_off_c, 0, 74, 100
2, 68112, Note_on_c, 0, 72, 127
2, 68156, Note_off_c, 0, 72, 100
2, 68160, Note_on_c, 0, 74, 127
2, 68204, Note_off_c, 0, 74, 100
2, 68208, Note_on_c, 0, 72, 127
2, 68252, Note_off_c, 0, 72, 100
2, 68256, Note_on_c, 0, 74, 127
2, 68300, Note_off_c, 0, 74, 100
2, 68304, Note_on_c, 0, 72, 127
2, 68348, Note_off_c, 0, 72, 100
2, 68400, Note_on_c, 0, 72, 127
2, 68444, Note_off_c, 0, 72, 100
2, 68448, Note_on_c, 0, 74, 127
2, 68492, Note_off_c, 0, 74, 100
2, 68496, Note_on_c, 0, 72, 127
2, 68540, Note_off_c, 0, 72, 100
2, 68544, Note_on_c, 0, 74, 127
2, 68588, Note_off_c, 0, 74, 100
2, 68592, Note_on_c, 0, 72, 127
2, 68636, Note_off_c, 0, 72, 100
2, 68640, Note_on_c, 0, 74, 127
2, 68684, Note_off_c, 0, 74, 100
2, 68688, Note_on_c, 0, 72, 127
2, 68732, Note_off_c, 0, 72, 100
2, 68784, Note_on_c, 0, 72, 127
2, 68828, Note_off_c, 0, 72, 100
2, 68832, Note_on_c, 0, 74, 127
2, 68876, Note_off_c, 0, 74, 100
2, 68880, Note_on_c, 0, 72, 127
2, 68924, Note_off_c, 0, 72, 100
2, 68928, Note_on_c, 0, 74, 127
2, 68972, Note_off_c, 0, 74, 100
2, 68976, Note_on_c, 0, 72, 127
2, 69020, Note_off_c, 0, 72, 100
2, 69024, Note_on_c, 0, 74, 127
2, 69068, Note_off_c, 0, 74, 100
2, 69072, Note_on_c, 0, 72, 127
2, 69116, Note_off_c, 0, 72, 100
2, 69120, Note_on_c, 0, 71, 127
2, 69148, Note_off_c, 0, 71, 100
2, 69504, Note_on_c, 0, 72, 127
2, 69532, Note_off_c, 0, 72, 100
2, 69888, Note_on_c, 0, 74, 127
2, 69916, Note_off_c, 0, 74, 100
2, 70464, Note_on_c, 0, 76, 127
2, 70524, Note_off_c, 0, 76, 100
2, 70656, Note_on_c, 0, 77, 127
2, 70716, Note_off_c, 0, 77, 100
2, 70848, Note_on_c, 0, 78, 127
2, 70908, Note_off_c, 0, 78, 100
2, 71040, Note_on_c, 0, 79, 127
2, 71100, Note_off_c, 0, 79, 100
2, 71232, Note_on_c, 0, 80, 127
2, 71292, Note_off_c, 0, 80, 100
2, 71424, Note_on_c, 0, 81, 127
2, 71452, Note_off_c, 0, 81, 100
2, 72672, Note_on_c, 0, 71, 127
2, 72744, Note_off_c, 0, 71, 100
2, 72768, Note_on_c, 0, 69, 127
2, 72840, Note_off_c, 0, 69, 100
2, 72864, Note_on_c, 0, 71, 127
2, 72936, Note_off_c, 0, 71, 100
2, 72960, Note_on_c, 0, 74, 127
2, 73032, Note_off_c, 0, 74, 100
2, 73056, Note_on_c, 0, 79, 127
2, 73128, Note_off_c, 0, 79, 100
2, 73152, Note_on_c, 0, 78, 127
2, 73224, Note_off_c, 0, 78, 100
2, 73248, Note_on_c, 0, 79, 127
2, 73320, Note_off_c, 0, 79, 100
2, 73344, Note_on_c, 0, 83, 127
2, 73648, Note_off_c, 0, 83, 100
2, 73648, End_track
3, 0, Start_track
3, 0, Title_t, "Goldberg Variations"
3, 0, Control_c, 1, 0, 0
3, 0, Program_c, 1, 6
3, 0, Control_c, 1, 7, 127
3, 0, Control_c, 1, 10, 42
3, 0, Control_c, 1, 91, 127
3, 0, Key_signature, 1, "major"
3, 48, Note_on_c, 1, 74, 127
3, 92, Note_off_c, 1, 74, 100
3, 96, Note_on_c, 1, 76, 127
3, 140, Note_off_c, 1, 76, 100
3, 144, Note_on_c, 1, 74, 127
3, 188, Note_off_c, 1, 74, 100
3, 192, Note_on_c, 1, 76, 127
3, 236, Note_off_c, 1, 76, 100
3, 240, Note_on_c, 1, 74, 127
3, 284, Note_off_c, 1, 74, 100
3, 288, Note_on_c, 1, 76, 127
3, 332, Note_off_c, 1, 76, 100
3, 336, Note_on_c, 1, 74, 127
3, 380, Note_off_c, 1, 74, 100
3, 432, Note_on_c, 1, 74, 127
3, 476, Note_off_c, 1, 74, 100
3, 480, Note_on_c, 1, 76, 127
3, 524, Note_off_c, 1, 76, 100
3, 528, Note_on_c, 1, 74, 127
3, 572, Note_off_c, 1, 74, 100
3, 576, Note_on_c, 1, 76, 127
3, 620, Note_off_c, 1, 76, 100
3, 624, Note_on_c, 1, 74, 127
3, 668, Note_off_c, 1, 74, 100
3, 672, Note_on_c, 1, 76, 127
3, 716, Note_off_c, 1, 76, 100
3, 720, Note_on_c, 1, 74, 127
3, 764, Note_off_c, 1, 74, 100
3, 816, Note_on_c, 1, 74, 127
3, 860, Note_off_c, 1, 74, 100
3, 864, Note_on_c, 1, 76, 127
3, 908, Note_off_c, 1, 76, 100
3, 912, Note_on_c, 1, 74, 127
3, 956, Note_off_c, 1, 74, 100
3, 960, Note_on_c, 1, 76, 127
3, 1004, Note_off_c, 1, 76, 100
3, 1008, Note_on_c, 1, 74, 127
3, 1052, Note_off_c, 1, 74, 100
3, 1056, Note_on_c, 1, 76, 127
3, 1100, Note_off_c, 1, 76, 100
3, 1104, Note_on_c, 1, 74, 127
3, 1148, Note_off_c, 1, 74, 100
3, 1200, Note_on_c, 1, 74, 127
3, 1244, Note_off_c, 1, 74, 100
3, 1248, Note_on_c, 1, 76, 127
3, 1292, Note_off_c, 1, 76, 100
3, 1296, Note_on_c, 1, 74, 127
3, 1340, Note_off_c, 1, 74, 100
3, 1344, Note_on_c, 1, 76, 127
3, 1388, Note_off_c, 1, 76, 100
3, 1392, Note_on_c, 1, 74, 127
3, 1436, Note_off_c, 1, 74, 100
3, 1440, Note_on_c, 1, 76, 127
3, 1484, Note_off_c, 1, 76, 100
3, 1488, Note_on_c, 1, 74, 127
3, 1532, Note_off_c, 1, 74, 100
3, 1584, Note_on_c, 1, 74, 127
3, 1628, Note_off_c, 1, 74, 100
3, 1632, Note_on_c, 1, 76, 127
3, 1676, Note_off_c, 1, 76, 100
3, 1680, Note_on_c, 1, 74, 127
3, 1724, Note_off_c, 1, 74, 100
3, 1728, Note_on_c, 1, 76, 127
3, 1772, Note_off_c, 1, 76, 100
3, 1776, Note_on_c, 1, 74, 127
3, 1820, Note_off_c, 1, 74, 100
3, 1824, Note_on_c, 1, 76, 127
3, 1868, Note_off_c, 1, 76, 100
3, 1872, Note_on_c, 1, 74, 127
3, 1916, Note_off_c, 1, 74, 100
3, 1968, Note_on_c, 1, 74, 127
3, 2012, Note_off_c, 1, 74, 100
3, 2016, Note_on_c, 1, 76, 127
3, 2060, Note_off_c, 1, 76, 100
3, 2064, Note_on_c, 1, 74, 127
3, 2108, Note_off_c, 1, 74, 100
3, 2112, Note_on_c, 1, 76, 127
3, 2156, Note_off_c, 1, 76, 100
3, 2160, Note_on_c, 1, 74, 127
3, 2204, Note_off_c, 1, 74, 100
3, 2208, Note_on_c, 1, 76, 127
3, 2252, Note_off_c, 1, 76, 100
3, 2256, Note_on_c, 1, 74, 127
3, 2300, Note_off_c, 1, 74, 100
3, 2352, Note_on_c, 1, 74, 127
3, 2396, Note_off_c, 1, 74, 100
3, 2400, Note_on_c, 1, 76, 127
3, 2444, Note_off_c, 1, 76, 100
3, 2448, Note_on_c, 1, 74, 127
3, 2492, Note_off_c, 1, 74, 100
3, 2496, Note_on_c, 1, 76, 127
3, 2540, Note_off_c, 1, 76, 100
3, 2544, Note_on_c, 1, 74, 127
3, 2588, Note_off_c, 1, 74, 100
3, 2592, Note_on_c, 1, 76, 127
3, 2636, Note_off_c, 1, 76, 100
3, 2640, Note_on_c, 1, 74, 127
3, 2684, Note_off_c, 1, 74, 100
3, 2736, Note_on_c, 1, 74, 127
3, 2780, Note_off_c, 1, 74, 100
3, 2784, Note_on_c, 1, 76, 127
3, 2828, Note_off_c, 1, 76, 100
3, 2832, Note_on_c, 1, 74, 127
3, 2876, Note_off_c, 1, 74, 100
3, 2880, Note_on_c, 1, 76, 127
3, 2924, Note_off_c, 1, 76, 100
3, 2928, Note_on_c, 1, 74, 127
3, 2972, Note_off_c, 1, 74, 100
3, 2976, Note_on_c, 1, 76, 127
3, 3020, Note_off_c, 1, 76, 100
3, 3024, Note_on_c, 1, 74, 127
3, 3068, Note_off_c, 1, 74, 100
3, 3120, Note_on_c, 1, 73, 127
3, 3164, Note_off_c, 1, 73, 100
3, 3168, Note_on_c, 1, 74, 127
3, 3212, Note_off_c, 1, 74, 100
3, 3216, Note_on_c, 1, 73, 127
3, 3260, Note_off_c, 1, 73, 100
3, 3264, Note_on_c, 1, 74, 127
3, 3308, Note_off_c, 1, 74, 100
3, 3312, Note_on_c, 1, 73, 127
3, 3356, Note_off_c, 1, 73, 100
3, 3360, Note_on_c, 1, 74, 127
3, 3404, Note_off_c, 1, 74, 100
3, 3408, Note_on_c, 1, 73, 127
3, 3452, Note_off_c, 1, 73, 100
3, 3504, Note_on_c, 1, 74, 127
3, 3548, Note_off_c, 1, 74, 100
3, 3552, Note_on_c, 1, 76, 127
3, 3596, Note_off_c, 1, 76, 100
3, 3600, Note_on_c, 1, 74, 127
3, 3644, Note_off_c, 1, 74, 100
3, 3648, Note_on_c, 1, 76, 127
3, 3692, Note_off_c, 1, 76, 100
3, 3696, Note_on_c, 1, 74, 127
3, 3740, Note_off_c, 1, 74, 100
3, 3744, Note_on_c, 1, 76, 127
3, 3788, Note_off_c, 1, 76, 100
3, 3792, Note_on_c, 1, 74, 127
3, 3836, Note_off_c, 1, 74, 100
3, 3888, Note_on_c, 1, 74, 127
3, 3932, Note_off_c, 1, 74, 100
3, 3936, Note_on_c, 1, 76, 127
3, 3980, Note_off_c, 1, 76, 100
3, 3984, Note_on_c, 1, 74, 127
3, 4028, Note_off_c, 1, 74, 100
3, 4032, Note_on_c, 1, 76, 127
3, 4076, Note_off_c, 1, 76, 100
3, 4080, Note_on_c, 1, 74, 127
3, 4124, Note_off_c, 1, 74, 100
3, 4128, Note_on_c, 1, 76, 127
3, 4172, Note_off_c, 1, 76, 100
3, 4176, Note_on_c, 1, 74, 127
3, 4220, Note_off_c, 1, 74, 100
3, 4272, Note_on_c, 1, 74, 127
3, 4316, Note_off_c, 1, 74, 100
3, 4320, Note_on_c, 1, 76, 127
3, 4364, Note_off_c, 1, 76, 100
3, 4368, Note_on_c, 1, 74, 127
3, 4412, Note_off_c, 1, 74, 100
3, 4416, Note_on_c, 1, 76, 127
3, 4460, Note_off_c, 1, 76, 100
3, 4464, Note_on_c, 1, 74, 127
3, 4508, Note_off_c, 1, 74, 100
3, 4512, Note_on_c, 1, 76, 127
3, 4556, Note_off_c, 1, 76, 100
3, 4560, Note_on_c, 1, 74, 127
3, 4604, Note_off_c, 1, 74, 100
3, 4800, Note_on_c, 1, 55, 127
3, 4860, Note_off_c, 1, 55, 100
3, 4992, Note_on_c, 1, 57, 127
3, 5052, Note_off_c, 1, 57, 100
3, 5568, Note_on_c, 1, 71, 127
3, 5628, Note_off_c, 1, 71, 100
3, 5760, Note_on_c, 1, 72, 127
3, 5820, Note_off_c, 1, 72, 100
3, 6720, Note_on_c, 1, 81, 127
3, 6780, Note_off_c, 1, 81, 100
3, 6912, Note_on_c, 1, 83, 127
3, 6972, Note_off_c, 1, 83, 100
3, 7104, Note_on_c, 1, 54, 127
3, 7164, Note_off_c, 1, 54, 100
3, 7296, Note_on_c, 1, 55, 127
3, 7356, Note_off_c, 1, 55, 100
3, 7488, Note_on_c, 1, 49, 127
3, 7548, Note_off_c, 1, 49, 100
3, 7680, Note_on_c, 1, 50, 127
3, 7740, Note_off_c, 1, 50, 100
3, 7872, Note_on_c, 1, 38, 127
3, 7932, Note_off_c, 1, 38, 100
3, 8064, Note_on_c, 1, 43, 127
3, 8124, Note_off_c, 1, 43, 100
3, 8256, Note_on_c, 1, 76, 127
3, 8316, Note_off_c, 1, 76, 100
3, 8448, Note_on_c, 1, 74, 127
3, 8508, Note_off_c, 1, 74, 100
3, 8640, Note_on_c, 1, 72, 127
3, 8700, Note_off_c, 1, 72, 100
3, 8832, Note_on_c, 1, 71, 127
3, 8892, Note_off_c, 1, 71, 100
3, 9024, Note_on_c, 1, 69, 127
3, 9024, Note_on_c, 1, 72, 127
3, 9084, Note_off_c, 1, 69, 100
3, 9084, Note_off_c, 1, 72, 100
3, 9216, Note_on_c, 1, 71, 127
3, 9216, Note_on_c, 1, 74, 127
3, 9308, Note_off_c, 1, 71, 100
3, 9308, Note_off_c, 1, 74, 100
3, 13872, Note_on_c, 1, 62, 127
3, 13916, Note_off_c, 1, 62, 100
3, 13920, Note_on_c, 1, 64, 127
3, 13964, Note_off_c, 1, 64, 100
3, 13968, Note_on_c, 1, 62, 127
3, 14012, Note_off_c, 1, 62, 100
3, 14016, Note_on_c, 1, 64, 127
3, 14060, Note_off_c, 1, 64, 100
3, 14064, Note_on_c, 1, 62, 127
3, 14108, Note_off_c, 1, 62, 100
3, 14112, Note_on_c, 1, 64, 127
3, 14156, Note_off_c, 1, 64, 100
3, 14160, Note_on_c, 1, 62, 127
3, 14204, Note_off_c, 1, 62, 100
3, 14256, Note_on_c, 1, 62, 127
3, 14300, Note_off_c, 1, 62, 100
3, 14304, Note_on_c, 1, 64, 127
3, 14348, Note_off_c, 1, 64, 100
3, 14352, Note_on_c, 1, 62, 127
3, 14396, Note_off_c, 1, 62, 100
3, 14400, Note_on_c, 1, 64, 127
3, 14444, Note_off_c, 1, 64, 100
3, 14448, Note_on_c, 1, 62, 127
3, 14492, Note_off_c, 1, 62, 100
3, 14496, Note_on_c, 1, 64, 127
3, 14540, Note_off_c, 1, 64, 100
3, 14544, Note_on_c, 1, 62, 127
3, 14588, Note_off_c, 1, 62, 100
3, 14640, Note_on_c, 1, 62, 127
3, 14684, Note_off_c, 1, 62, 100
3, 14688, Note_on_c, 1, 64, 127
3, 14732, Note_off_c, 1, 64, 100
3, 14736, Note_on_c, 1, 62, 127
3, 14780, Note_off_c, 1, 62, 100
3, 14784, Note_on_c, 1, 64, 127
3, 14828, Note_off_c, 1, 64, 100
3, 14832, Note_on_c, 1, 62, 127
3, 14876, Note_off_c, 1, 62, 100
3, 14880, Note_on_c, 1, 64, 127
3, 14924, Note_off_c, 1, 64, 100
3, 14928, Note_on_c, 1, 62, 127
3, 14972, Note_off_c, 1, 62, 100
3, 15024, Note_on_c, 1, 62, 127
3, 15068, Note_off_c, 1, 62, 100
3, 15072, Note_on_c, 1, 64, 127
3, 15116, Note_off_c, 1, 64, 100
3, 15120, Note_on_c, 1, 62, 127
3, 15164, Note_off_c, 1, 62, 100
3, 15168, Note_on_c, 1, 64, 127
3, 15212, Note_off_c, 1, 64, 100
3, 15216, Note_on_c, 1, 62, 127
3, 15260, Note_off_c, 1, 62, 100
3, 15264, Note_on_c, 1, 64, 127
3, 15308, Note_off_c, 1, 64, 100
3, 15312, Note_on_c, 1, 62, 127
3, 15356, Note_off_c, 1, 62, 100
3, 15408, Note_on_c, 1, 62, 127
3, 15452, Note_off_c, 1, 62, 100
3, 15456, Note_on_c, 1, 64, 127
3, 15500, Note_off_c, 1, 64, 100
3, 15504, Note_on_c, 1, 62, 127
3, 15548, Note_off_c, 1, 62, 100
3, 15552, Note_on_c, 1, 64, 127
3, 15596, Note_off_c, 1, 64, 100
3, 15600, Note_on_c, 1, 62, 127
3, 15644, Note_off_c, 1, 62, 100
3, 15648, Note_on_c, 1, 64, 127
3, 15692, Note_off_c, 1, 64, 100
3, 15696, Note_on_c, 1, 62, 127
3, 15740, Note_off_c, 1, 62, 100
3, 15792, Note_on_c, 1, 62, 127
3, 15836, Note_off_c, 1, 62, 100
3, 15840, Note_on_c, 1, 64, 127
3, 15884, Note_off_c, 1, 64, 100
3, 15888, Note_on_c, 1, 62, 127
3, 15932, Note_off_c, 1, 62, 100
3, 15936, Note_on_c, 1, 64, 127
3, 15980, Note_off_c, 1, 64, 100
3, 15984, Note_on_c, 1, 62, 127
3, 16028, Note_off_c, 1, 62, 100
3, 16032, Note_on_c, 1, 64, 127
3, 16076, Note_off_c, 1, 64, 100
3, 16080, Note_on_c, 1, 62, 127
3, 16124, Note_off_c, 1, 62, 100
3, 16176, Note_on_c, 1, 62, 127
3, 16220, Note_off_c, 1, 62, 100
3, 16224, Note_on_c, 1, 64, 127
3, 16268, Note_off_c, 1, 64, 100
3, 16272, Note_on_c, 1, 62, 127
3, 16316, Note_off_c, 1, 62, 100
3, 16320, Note_on_c, 1, 64, 127
3, 16364, Note_off_c, 1, 64, 100
3, 16368, Note_on_c, 1, 62, 127
3, 16412, Note_off_c, 1, 62, 100
3, 16416, Note_on_c, 1, 64, 127
3, 16460, Note_off_c, 1, 64, 100
3, 16464, Note_on_c, 1, 62, 127
3, 16508, Note_off_c, 1, 62, 100
3, 16560, Note_on_c, 1, 62, 127
3, 16604, Note_off_c, 1, 62, 100
3, 16608, Note_on_c, 1, 64, 127
3, 16652, Note_off_c, 1, 64, 100
3, 16656, Note_on_c, 1, 62, 127
3, 16700, Note_off_c, 1, 62, 100
3, 16704, Note_on_c, 1, 64, 127
3, 16748, Note_off_c, 1, 64, 100
3, 16752, Note_on_c, 1, 62, 127
3, 16796, Note_off_c, 1, 62, 100
3, 16800, Note_on_c, 1, 64, 127
3, 16844, Note_off_c, 1, 64, 100
3, 16848, Note_on_c, 1, 62, 127
3, 16892, Note_off_c, 1, 62, 100
3, 16944, Note_on_c, 1, 61, 127
3, 16988, Note_off_c, 1, 61, 100
3, 16992, Note_on_c, 1, 62, 127
3, 17036, Note_off_c, 1, 62, 100
3, 17040, Note_on_c, 1, 61, 127
3, 17084, Note_off_c, 1, 61, 100
3, 17088, Note_on_c, 1, 62, 127
3, 17132, Note_off_c, 1, 62, 100
3, 17136, Note_on_c, 1, 61, 127
3, 17180, Note_off_c, 1, 61, 100
3, 17184, Note_on_c, 1, 62, 127
3, 17228, Note_off_c, 1, 62, 100
3, 17232, Note_on_c, 1, 61, 127
3, 17276, Note_off_c, 1, 61, 100
3, 18480, Note_on_c, 1, 74, 127
3, 18524, Note_off_c, 1, 74, 100
3, 18528, Note_on_c, 1, 76, 127
3, 18572, Note_off_c, 1, 76, 100
3, 18576, Note_on_c, 1, 74, 127
3, 18620, Note_off_c, 1, 74, 100
3, 18624, Note_on_c, 1, 76, 127
3, 18668, Note_off_c, 1, 76, 100
3, 18672, Note_on_c, 1, 74, 127
3, 18716, Note_off_c, 1, 74, 100
3, 18720, Note_on_c, 1, 76, 127
3, 18764, Note_off_c, 1, 76, 100
3, 18768, Note_on_c, 1, 74, 127
3, 18812, Note_off_c, 1, 74, 100
3, 18864, Note_on_c, 1, 74, 127
3, 18908, Note_off_c, 1, 74, 100
3, 18912, Note_on_c, 1, 76, 127
3, 18956, Note_off_c, 1, 76, 100
3, 18960, Note_on_c, 1, 74, 127
3, 19004, Note_off_c, 1, 74, 100
3, 19008, Note_on_c, 1, 76, 127
3, 19052, Note_off_c, 1, 76, 100
3, 19056, Note_on_c, 1, 74, 127
3, 19100, Note_off_c, 1, 74, 100
3, 19104, Note_on_c, 1, 76, 127
3, 19148, Note_off_c, 1, 76, 100
3, 19152, Note_on_c, 1, 74, 127
3, 19196, Note_off_c, 1, 74, 100
3, 19248, Note_on_c, 1, 74, 127
3, 19292, Note_off_c, 1, 74, 100
3, 19296, Note_on_c, 1, 76, 127
3, 19340, Note_off_c, 1, 76, 100
3, 19344, Note_on_c, 1, 74, 127
3, 19388, Note_off_c, 1, 74, 100
3, 19392, Note_on_c, 1, 76, 127
3, 19436, Note_off_c, 1, 76, 100
3, 19440, Note_on_c, 1, 74, 127
3, 19484, Note_off_c, 1, 74, 100
3, 19488, Note_on_c, 1, 76, 127
3, 19532, Note_off_c, 1, 76, 100
3, 19536, Note_on_c, 1, 74, 127
3, 19580, Note_off_c, 1, 74, 100
3, 19632, Note_on_c, 1, 74, 127
3, 19676, Note_off_c, 1, 74, 100
3, 19680, Note_on_c, 1, 76, 127
3, 19724, Note_off_c, 1, 76, 100
3, 19728, Note_on_c, 1, 74, 127
3, 19772, Note_off_c, 1, 74, 100
3, 19776, Note_on_c, 1, 76, 127
3, 19820, Note_off_c, 1, 76, 100
3, 19824, Note_on_c, 1, 74, 127
3, 19868, Note_off_c, 1, 74, 100
3, 19872, Note_on_c, 1, 76, 127
3, 19916, Note_off_c, 1, 76, 100
3, 19920, Note_on_c, 1, 74, 127
3, 19964, Note_off_c, 1, 74, 100
3, 20016, Note_on_c, 1, 74, 127
3, 20060, Note_off_c, 1, 74, 100
3, 20064, Note_on_c, 1, 76, 127
3, 20108, Note_off_c, 1, 76, 100
3, 20112, Note_on_c, 1, 74, 127
3, 20156, Note_off_c, 1, 74, 100
3, 20160, Note_on_c, 1, 76, 127
3, 20204, Note_off_c, 1, 76, 100
3, 20208, Note_on_c, 1, 74, 127
3, 20252, Note_off_c, 1, 74, 100
3, 20256, Note_on_c, 1, 76, 127
3, 20300, Note_off_c, 1, 76, 100
3, 20304, Note_on_c, 1, 74, 127
3, 20348, Note_off_c, 1, 74, 100
3, 20400, Note_on_c, 1, 74, 127
3, 20444, Note_off_c, 1, 74, 100
3, 20448, Note_on_c, 1, 76, 127
3, 20492, Note_off_c, 1, 76, 100
3, 20496, Note_on_c, 1, 74, 127
3, 20540, Note_off_c, 1, 74, 100
3, 20544, Note_on_c, 1, 76, 127
3, 20588, Note_off_c, 1, 76, 100
3, 20592, Note_on_c, 1, 74, 127
3, 20636, Note_off_c, 1, 74, 100
3, 20640, Note_on_c, 1, 76, 127
3, 20684, Note_off_c, 1, 76, 100
3, 20688, Note_on_c, 1, 74, 127
3, 20732, Note_off_c, 1, 74, 100
3, 20784, Note_on_c, 1, 74, 127
3, 20828, Note_off_c, 1, 74, 100
3, 20832, Note_on_c, 1, 76, 127
3, 20876, Note_off_c, 1, 76, 100
3, 20880, Note_on_c, 1, 74, 127
3, 20924, Note_off_c, 1, 74, 100
3, 20928, Note_on_c, 1, 76, 127
3, 20972, Note_off_c, 1, 76, 100
3, 20976, Note_on_c, 1, 74, 127
3, 21020, Note_off_c, 1, 74, 100
3, 21024, Note_on_c, 1, 76, 127
3, 21068, Note_off_c, 1, 76, 100
3, 21072, Note_on_c, 1, 74, 127
3, 21116, Note_off_c, 1, 74, 100
3, 21168, Note_on_c, 1, 74, 127
3, 21212, Note_off_c, 1, 74, 100
3, 21216, Note_on_c, 1, 76, 127
3, 21260, Note_off_c, 1, 76, 100
3, 21264, Note_on_c, 1, 74, 127
3, 21308, Note_off_c, 1, 74, 100
3, 21312, Note_on_c, 1, 76, 127
3, 21356, Note_off_c, 1, 76, 100
3, 21360, Note_on_c, 1, 74, 127
3, 21404, Note_off_c, 1, 74, 100
3, 21408, Note_on_c, 1, 76, 127
3, 21452, Note_off_c, 1, 76, 100
3, 21456, Note_on_c, 1, 74, 127
3, 21500, Note_off_c, 1, 74, 100
3, 21552, Note_on_c, 1, 73, 127
3, 21596, Note_off_c, 1, 73, 100
3, 21600, Note_on_c, 1, 74, 127
3, 21644, Note_off_c, 1, 74, 100
3, 21648, Note_on_c, 1, 73, 127
3, 21692, Note_off_c, 1, 73, 100
3, 21696, Note_on_c, 1, 74, 127
3, 21740, Note_off_c, 1, 74, 100
3, 21744, Note_on_c, 1, 73, 127
3, 21788, Note_off_c, 1, 73, 100
3, 21792, Note_on_c, 1, 74, 127
3, 21836, Note_off_c, 1, 74, 100
3, 21840, Note_on_c, 1, 73, 127
3, 21884, Note_off_c, 1, 73, 100
3, 21936, Note_on_c, 1, 74, 127
3, 21980, Note_off_c, 1, 74, 100
3, 21984, Note_on_c, 1, 76, 127
3, 22028, Note_off_c, 1, 76, 100
3, 22032, Note_on_c, 1, 74, 127
3, 22076, Note_off_c, 1, 74, 100
3, 22080, Note_on_c, 1, 76, 127
3, 22124, Note_off_c, 1, 76, 100
3, 22128, Note_on_c, 1, 74, 127
3, 22172, Note_off_c, 1, 74, 100
3, 22176, Note_on_c, 1, 76, 127
3, 22220, Note_off_c, 1, 76, 100
3, 22224, Note_on_c, 1, 74, 127
3, 22268, Note_off_c, 1, 74, 100
3, 22320, Note_on_c, 1, 74, 127
3, 22364, Note_off_c, 1, 74, 100
3, 22368, Note_on_c, 1, 76, 127
3, 22412, Note_off_c, 1, 76, 100
3, 22416, Note_on_c, 1, 74, 127
3, 22460, Note_off_c, 1, 74, 100
3, 22464, Note_on_c, 1, 76, 127
3, 22508, Note_off_c, 1, 76, 100
3, 22512, Note_on_c, 1, 74, 127
3, 22556, Note_off_c, 1, 74, 100
3, 22560, Note_on_c, 1, 76, 127
3, 22604, Note_off_c, 1, 76, 100
3, 22608, Note_on_c, 1, 74, 127
3, 22652, Note_off_c, 1, 74, 100
3, 22704, Note_on_c, 1, 74, 127
3, 22748, Note_off_c, 1, 74, 100
3, 22752, Note_on_c, 1, 76, 127
3, 22796, Note_off_c, 1, 76, 100
3, 22800, Note_on_c, 1, 74, 127
3, 22844, Note_off_c, 1, 74, 100
3, 22848, Note_on_c, 1, 76, 127
3, 22892, Note_off_c, 1, 76, 100
3, 22896, Note_on_c, 1, 74, 127
3, 22940, Note_off_c, 1, 74, 100
3, 22944, Note_on_c, 1, 76, 127
3, 22988, Note_off_c, 1, 76, 100
3, 22992, Note_on_c, 1, 74, 127
3, 23036, Note_off_c, 1, 74, 100
3, 23232, Note_on_c, 1, 55, 127
3, 23292, Note_off_c, 1, 55, 100
3, 23424, Note_on_c, 1, 57, 127
3, 23484, Note_off_c, 1, 57, 100
3, 24000, Note_on_c, 1, 71, 127
3, 24060, Note_off_c, 1, 71, 100
3, 24192, Note_on_c, 1, 72, 127
3, 24252, Note_off_c, 1, 72, 100
3, 25152, Note_on_c, 1, 81, 127
3, 25212, Note_off_c, 1, 81, 100
3, 25344, Note_on_c, 1, 83, 127
3, 25404, Note_off_c, 1, 83, 100
3, 25536, Note_on_c, 1, 54, 127
3, 25596, Note_off_c, 1, 54, 100
3, 25728, Note_on_c, 1, 55, 127
3, 25788, Note_off_c, 1, 55, 100
3, 25920, Note_on_c, 1, 49, 127
3, 25980, Note_off_c, 1, 49, 100
3, 26112, Note_on_c, 1, 50, 127
3, 26172, Note_off_c, 1, 50, 100
3, 26304, Note_on_c, 1, 38, 127
3, 26364, Note_off_c, 1, 38, 100
3, 26496, Note_on_c, 1, 43, 127
3, 26556, Note_off_c, 1, 43, 100
3, 26688, Note_on_c, 1, 76, 127
3, 26748, Note_off_c, 1, 76, 100
3, 26880, Note_on_c, 1, 74, 127
3, 26940, Note_off_c, 1, 74, 100
3, 27072, Note_on_c, 1, 72, 127
3, 27132, Note_off_c, 1, 72, 100
3, 27264, Note_on_c, 1, 71, 127
3, 27324, Note_off_c, 1, 71, 100
3, 27456, Note_on_c, 1, 69, 127
3, 27456, Note_on_c, 1, 72, 127
3, 27516, Note_off_c, 1, 69, 100
3, 27516, Note_off_c, 1, 72, 100
3, 27648, Note_on_c, 1, 71, 127
3, 27648, Note_on_c, 1, 74, 127
3, 27740, Note_off_c, 1, 71, 100
3, 27740, Note_off_c, 1, 74, 100
3, 32304, Note_on_c, 1, 62, 127
3, 32348, Note_off_c, 1, 62, 100
3, 32352, Note_on_c, 1, 64, 127
3, 32396, Note_off_c, 1, 64, 100
3, 32400, Note_on_c, 1, 62, 127
3, 32444, Note_off_c, 1, 62, 100
3, 32448, Note_on_c, 1, 64, 127
3, 32492, Note_off_c, 1, 64, 100
3, 32496, Note_on_c, 1, 62, 127
3, 32540, Note_off_c, 1, 62, 100
3, 32544, Note_on_c, 1, 64, 127
3, 32588, Note_off_c, 1, 64, 100
3, 32592, Note_on_c, 1, 62, 127
3, 32636, Note_off_c, 1, 62, 100
3, 32688, Note_on_c, 1, 62, 127
3, 32732, Note_off_c, 1, 62, 100
3, 32736, Note_on_c, 1, 64, 127
3, 32780, Note_off_c, 1, 64, 100
3, 32784, Note_on_c, 1, 62, 127
3, 32828, Note_off_c, 1, 62, 100
3, 32832, Note_on_c, 1, 64, 127
3, 32876, Note_off_c, 1, 64, 100
3, 32880, Note_on_c, 1, 62, 127
3, 32924, Note_off_c, 1, 62, 100
3, 32928, Note_on_c, 1, 64, 127
3, 32972, Note_off_c, 1, 64, 100
3, 32976, Note_on_c, 1, 62, 127
3, 33020, Note_off_c, 1, 62, 100
3, 33072, Note_on_c, 1, 62, 127
3, 33116, Note_off_c, 1, 62, 100
3, 33120, Note_on_c, 1, 64, 127
3, 33164, Note_off_c, 1, 64, 100
3, 33168, Note_on_c, 1, 62, 127
3, 33212, Note_off_c, 1, 62, 100
3, 33216, Note_on_c, 1, 64, 127
3, 33260, Note_off_c, 1, 64, 100
3, 33264, Note_on_c, 1, 62, 127
3, 33308, Note_off_c, 1, 62, 100
3, 33312, Note_on_c, 1, 64, 127
3, 33356, Note_off_c, 1, 64, 100
3, 33360, Note_on_c, 1, 62, 127
3, 33404, Note_off_c, 1, 62, 100
3, 33456, Note_on_c, 1, 62, 127
3, 33500, Note_off_c, 1, 62, 100
3, 33504, Note_on_c, 1, 64, 127
3, 33548, Note_off_c, 1, 64, 100
3, 33552, Note_on_c, 1, 62, 127
3, 33596, Note_off_c, 1, 62, 100
3, 33600, Note_on_c, 1, 64, 127
3, 33644, Note_off_c, 1, 64, 100
3, 33648, Note_on_c, 1, 62, 127
3, 33692, Note_off_c, 1, 62, 100
3, 33696, Note_on_c, 1, 64, 127
3, 33740, Note_off_c, 1, 64, 100
3, 33744, Note_on_c, 1, 62, 127
3, 33788, Note_off_c, 1, 62, 100
3, 33840, Note_on_c, 1, 62, 127
3, 33884, Note_off_c, 1, 62, 100
3, 33888, Note_on_c, 1, 64, 127
3, 33932, Note_off_c, 1, 64, 100
3, 33936, Note_on_c, 1, 62, 127
3, 33980, Note_off_c, 1, 62, 100
3, 33984, Note_on_c, 1, 64, 127
3, 34028, Note_off_c, 1, 64, 100
3, 34032, Note_on_c, 1, 62, 127
3, 34076, Note_off_c, 1, 62, 100
3, 34080, Note_on_c, 1, 64, 127
3, 34124, Note_off_c, 1, 64, 100
3, 34128, Note_on_c, 1, 62, 127
3, 34172, Note_off_c, 1, 62, 100
3, 34224, Note_on_c, 1, 62, 127
3, 34268, Note_off_c, 1, 62, 100
3, 34272, Note_on_c, 1, 64, 127
3, 34316, Note_off_c, 1, 64, 100
3, 34320, Note_on_c, 1, 62, 127
3, 34364, Note_off_c, 1, 62, 100
3, 34368, Note_on_c, 1, 64, 127
3, 34412, Note_off_c, 1, 64, 100
3, 34416, Note_on_c, 1, 62, 127
3, 34460, Note_off_c, 1, 62, 100
3, 34464, Note_on_c, 1, 64, 127
3, 34508, Note_off_c, 1, 64, 100
3, 34512, Note_on_c, 1, 62, 127
3, 34556, Note_off_c, 1, 62, 100
3, 34608, Note_on_c, 1, 62, 127
3, 34652, Note_off_c, 1, 62, 100
3, 34656, Note_on_c, 1, 64, 127
3, 34700, Note_off_c, 1, 64, 100
3, 34704, Note_on_c, 1, 62, 127
3, 34748, Note_off_c, 1, 62, 100
3, 34752, Note_on_c, 1, 64, 127
3, 34796, Note_off_c, 1, 64, 100
3, 34800, Note_on_c, 1, 62, 127
3, 34844, Note_off_c, 1, 62, 100
3, 34848, Note_on_c, 1, 64, 127
3, 34892, Note_off_c, 1, 64, 100
3, 34896, Note_on_c, 1, 62, 127
3, 34940, Note_off_c, 1, 62, 100
3, 34992, Note_on_c, 1, 62, 127
3, 35036, Note_off_c, 1, 62, 100
3, 35040, Note_on_c, 1, 64, 127
3, 35084, Note_off_c, 1, 64, 100
3, 35088, Note_on_c, 1, 62, 127
3, 35132, Note_off_c, 1, 62, 100
3, 35136, Note_on_c, 1, 64, 127
3, 35180, Note_off_c, 1, 64, 100
3, 35184, Note_on_c, 1, 62, 127
3, 35228, Note_off_c, 1, 62, 100
3, 35232, Note_on_c, 1, 64, 127
3, 35276, Note_off_c, 1, 64, 100
3, 35280, Note_on_c, 1, 62, 127
3, 35324, Note_off_c, 1, 62, 100
3, 35376, Note_on_c, 1, 61, 127
3, 35420, Note_off_c, 1, 61, 100
3, 35424, Note_on_c, 1, 62, 127
3, 35468, Note_off_c, 1, 62, 100
3, 35472, Note_on_c, 1, 61, 127
3, 35516, Note_off_c, 1, 61, 100
3, 35520, Note_on_c, 1, 62, 127
3, 35564, Note_off_c, 1, 62, 100
3, 35568, Note_on_c, 1, 61, 127
3, 35612, Note_off_c, 1, 61, 100
3, 35616, Note_on_c, 1, 62, 127
3, 35660, Note_off_c, 1, 62, 100
3, 35664, Note_on_c, 1, 61, 127
3, 35708, Note_off_c, 1, 61, 100
3, 40800, Note_on_c, 1, 78, 127
3, 40872, Note_off_c, 1, 78, 100
3, 40896, Note_on_c, 1, 76, 127
3, 40968, Note_off_c, 1, 76, 100
3, 40992, Note_on_c, 1, 78, 127
3, 41064, Note_off_c, 1, 78, 100
3, 41088, Note_on_c, 1, 81, 127
3, 41160, Note_off_c, 1, 81, 100
3, 41184, Note_on_c, 1, 78, 127
3, 41256, Note_off_c, 1, 78, 100
3, 41280, Note_on_c, 1, 75, 127
3, 41352, Note_off_c, 1, 75, 100
3, 41376, Note_on_c, 1, 78, 127
3, 41448, Note_off_c, 1, 78, 100
3, 41472, Note_on_c, 1, 71, 127
3, 41500, Note_off_c, 1, 71, 100
3, 41856, Note_on_c, 1, 73, 127
3, 41884, Note_off_c, 1, 73, 100
3, 42240, Note_on_c, 1, 75, 127
3, 42268, Note_off_c, 1, 75, 100
3, 42624, Note_on_c, 1, 76, 127
3, 42652, Note_off_c, 1, 76, 100
3, 43008, Note_on_c, 1, 75, 127
3, 43036, Note_off_c, 1, 75, 100
3, 43392, Note_on_c, 1, 76, 127
3, 43420, Note_off_c, 1, 76, 100
3, 43776, Note_on_c, 1, 73, 127
3, 43804, Note_off_c, 1, 73, 100
3, 44160, Note_on_c, 1, 71, 127
3, 44188, Note_off_c, 1, 71, 100
3, 44544, Note_on_c, 1, 69, 127
3, 44572, Note_off_c, 1, 69, 100
3, 45024, Note_on_c, 1, 67, 127
3, 45096, Note_off_c, 1, 67, 100
3, 45120, Note_on_c, 1, 66, 127
3, 45192, Note_off_c, 1, 66, 100
3, 45216, Note_on_c, 1, 67, 127
3, 45288, Note_off_c, 1, 67, 100
3, 45312, Note_on_c, 1, 71, 127
3, 45384, Note_off_c, 1, 71, 100
3, 46272, Note_on_c, 1, 64, 127
3, 46332, Note_off_c, 1, 64, 100
3, 46464, Note_on_c, 1, 63, 127
3, 46524, Note_off_c, 1, 63, 100
3, 46656, Note_on_c, 1, 62, 127
3, 46716, Note_off_c, 1, 62, 100
3, 46848, Note_on_c, 1, 61, 127
3, 46908, Note_off_c, 1, 61, 100
3, 47424, Note_on_c, 1, 62, 127
3, 47484, Note_off_c, 1, 62, 100
3, 47616, Note_on_c, 1, 61, 127
3, 47676, Note_off_c, 1, 61, 100
3, 47808, Note_on_c, 1, 60, 127
3, 47868, Note_off_c, 1, 60, 100
3, 48000, Note_on_c, 1, 59, 127
3, 48060, Note_off_c, 1, 59, 100
3, 48384, Note_on_c, 1, 64, 127
3, 48412, Note_off_c, 1, 64, 100
3, 48768, Note_on_c, 1, 62, 127
3, 48796, Note_off_c, 1, 62, 100
3, 49152, Note_on_c, 1, 64, 127
3, 49180, Note_off_c, 1, 64, 100
3, 49536, Note_on_c, 1, 66, 127
3, 49564, Note_off_c, 1, 66, 100
3, 49920, Note_on_c, 1, 64, 127
3, 49948, Note_off_c, 1, 64, 100
3, 50304, Note_on_c, 1, 66, 127
3, 50332, Note_off_c, 1, 66, 100
3, 50736, Note_on_c, 1, 67, 127
3, 50780, Note_off_c, 1, 67, 100
3, 50784, Note_on_c, 1, 69, 127
3, 50828, Note_off_c, 1, 69, 100
3, 50832, Note_on_c, 1, 67, 127
3, 50876, Note_off_c, 1, 67, 100
3, 50880, Note_on_c, 1, 69, 127
3, 50924, Note_off_c, 1, 69, 100
3, 50928, Note_on_c, 1, 67, 127
3, 50972, Note_off_c, 1, 67, 100
3, 50976, Note_on_c, 1, 69, 127
3, 51020, Note_off_c, 1, 69, 100
3, 51024, Note_on_c, 1, 67, 127
3, 51068, Note_off_c, 1, 67, 100
3, 51120, Note_on_c, 1, 66, 127
3, 51164, Note_off_c, 1, 66, 100
3, 51168, Note_on_c, 1, 67, 127
3, 51212, Note_off_c, 1, 67, 100
3, 51216, Note_on_c, 1, 66, 127
3, 51260, Note_off_c, 1, 66, 100
3, 51264, Note_on_c, 1, 67, 127
3, 51308, Note_off_c, 1, 67, 100
3, 51312, Note_on_c, 1, 66, 127
3, 51356, Note_off_c, 1, 66, 100
3, 51360, Note_on_c, 1, 67, 127
3, 51404, Note_off_c, 1, 67, 100
3, 51408, Note_on_c, 1, 66, 127
3, 51452, Note_off_c, 1, 66, 100
3, 51504, Note_on_c, 1, 65, 127
3, 51548, Note_off_c, 1, 65, 100
3, 51552, Note_on_c, 1, 67, 127
3, 51596, Note_off_c, 1, 67, 100
3, 51600, Note_on_c, 1, 65, 127
3, 51644, Note_off_c, 1, 65, 100
3, 51648, Note_on_c, 1, 67, 127
3, 51692, Note_off_c, 1, 67, 100
3, 51696, Note_on_c, 1, 65, 127
3, 51740, Note_off_c, 1, 65, 100
3, 51744, Note_on_c, 1, 67, 127
3, 51788, Note_off_c, 1, 67, 100
3, 51792, Note_on_c, 1, 65, 127
3, 51836, Note_off_c, 1, 65, 100
3, 51840, Note_on_c, 1, 64, 127
3, 51900, Note_off_c, 1, 64, 100
3, 53088, Note_on_c, 1, 66, 127
3, 53160, Note_off_c, 1, 66, 100
3, 53184, Note_on_c, 1, 64, 127
3, 53256, Note_off_c, 1, 64, 100
3, 53280, Note_on_c, 1, 66, 127
3, 53352, Note_off_c, 1, 66, 100
3, 53376, Note_on_c, 1, 67, 127
3, 53448, Note_off_c, 1, 67, 100
3, 53472, Note_on_c, 1, 71, 127
3, 53544, Note_off_c, 1, 71, 100
3, 53568, Note_on_c, 1, 69, 127
3, 53640, Note_off_c, 1, 69, 100
3, 53664, Note_on_c, 1, 71, 127
3, 53736, Note_off_c, 1, 71, 100
3, 53760, Note_on_c, 1, 72, 127
3, 53832, Note_off_c, 1, 72, 100
3, 53856, Note_on_c, 1, 69, 127
3, 53928, Note_off_c, 1, 69, 100
3, 53952, Note_on_c, 1, 66, 127
3, 54024, Note_off_c, 1, 66, 100
3, 54048, Note_on_c, 1, 62, 127
3, 54120, Note_off_c, 1, 62, 100
3, 54144, Note_on_c, 1, 67, 127
3, 54216, Note_off_c, 1, 67, 100
3, 59232, Note_on_c, 1, 78, 127
3, 59304, Note_off_c, 1, 78, 100
3, 59328, Note_on_c, 1, 76, 127
3, 59400, Note_off_c, 1, 76, 100
3, 59424, Note_on_c, 1, 78, 127
3, 59496, Note_off_c, 1, 78, 100
3, 59520, Note_on_c, 1, 81, 127
3, 59592, Note_off_c, 1, 81, 100
3, 59616, Note_on_c, 1, 78, 127
3, 59688, Note_off_c, 1, 78, 100
3, 59712, Note_on_c, 1, 75, 127
3, 59784, Note_off_c, 1, 75, 100
3, 59808, Note_on_c, 1, 78, 127
3, 59880, Note_off_c, 1, 78, 100
3, 59904, Note_on_c, 1, 71, 127
3, 59932, Note_off_c, 1, 71, 100
3, 60288, Note_on_c, 1, 73, 127
3, 60316, Note_off_c, 1, 73, 100
3, 60672, Note_on_c, 1, 75, 127
3, 60700, Note_off_c, 1, 75, 100
3, 61056, Note_on_c, 1, 76, 127
3, 61084, Note_off_c, 1, 76, 100
3, 61440, Note_on_c, 1, 75, 127
3, 61468, Note_off_c, 1, 75, 100
3, 61824, Note_on_c, 1, 76, 127
3, 61852, Note_off_c, 1, 76, 100
3, 62208, Note_on_c, 1, 73, 127
3, 62236, Note_off_c, 1, 73, 100
3, 62592, Note_on_c, 1, 71, 127
3, 62620, Note_off_c, 1, 71, 100
3, 62976, Note_on_c, 1, 69, 127
3, 63004, Note_off_c, 1, 69, 100
3, 63456, Note_on_c, 1, 67, 127
3, 63528, Note_off_c, 1, 67, 100
3, 63552, Note_on_c, 1, 66, 127
3, 63624, Note_off_c, 1, 66, 100
3, 63648, Note_on_c, 1, 67, 127
3, 63720, Note_off_c, 1, 67, 100
3, 63744, Note_on_c, 1, 71, 127
3, 63816, Note_off_c, 1, 71, 100
3, 64704, Note_on_c, 1, 64, 127
3, 64764, Note_off_c, 1, 64, 100
3, 64896, Note_on_c, 1, 63, 127
3, 64956, Note_off_c, 1, 63, 100
3, 65088, Note_on_c, 1, 62, 127
3, 65148, Note_off_c, 1, 62, 100
3, 65280, Note_on_c, 1, 61, 127
3, 65340, Note_off_c, 1, 61, 100
3, 65856, Note_on_c, 1, 62, 127
3, 65916, Note_off_c, 1, 62, 100
3, 66048, Note_on_c, 1, 61, 127
3, 66108, Note_off_c, 1, 61, 100
3, 66240, Note_on_c, 1, 60, 127
3, 66300, Note_off_c, 1, 60, 100
3, 66432, Note_on_c, 1, 59, 127
3, 66492, Note_off_c, 1, 59, 100
3, 66816, Note_on_c, 1, 64, 127
3, 66844, Note_off_c, 1, 64, 100
3, 67200, Note_on_c, 1, 62, 127
3, 67228, Note_off_c, 1, 62, 100
3, 67584, Note_on_c, 1, 64, 127
3, 67612, Note_off_c, 1, 64, 100
3, 67968, Note_on_c, 1, 66, 127
3, 67996, Note_off_c, 1, 66, 100
3, 68352, Note_on_c, 1, 64, 127
3, 68380, Note_off_c, 1, 64, 100
3, 68736, Note_on_c, 1, 66, 127
3, 68764, Note_off_c, 1, 66, 100
3, 69168, Note_on_c, 1, 67, 127
3, 69212, Note_off_c, 1, 67, 100
3, 69216, Note_on_c, 1, 69, 127
3, 69260, Note_off_c, 1, 69, 100
3, 69264, Note_on_c, 1, 67, 127
3, 69308, Note_off_c, 1, 67, 100
3, 69312, Note_on_c, 1, 69, 127
3, 69356, Note_off_c, 1, 69, 100
3, 69360, Note_on_c, 1, 67, 127
3, 69404, Note_off_c, 1, 67, 100
3, 69408, Note_on_c, 1, 69, 127
3, 69452, Note_off_c, 1, 69, 100
3, 69456, Note_on_c, 1, 67, 127
3, 69500, Note_off_c, 1, 67, 100
3, 69552, Note_on_c, 1, 66, 127
3, 69596, Note_off_c, 1, 66, 100
3, 69600, Note_on_c, 1, 67, 127
3, 69644, Note_off_c, 1, 67, 100
3, 69648, Note_on_c, 1, 66, 127
3, 69692, Note_off_c, 1, 66, 100
3, 69696, Note_on_c, 1, 67, 127
3, 69740, Note_off_c, 1, 67, 100
3, 69744, Note_on_c, 1, 66, 127
3, 69788, Note_off_c, 1, 66, 100
3, 69792, Note_on_c, 1, 67, 127
3, 69836, Note_off_c, 1, 67, 100
3, 69840, Note_on_c, 1, 66, 127
3, 69884, Note_off_c, 1, 66, 100
3, 69936, Note_on_c, 1, 65, 127
3, 69980, Note_off_c, 1, 65, 100
3, 69984, Note_on_c, 1, 67, 127
3, 70028, Note_off_c, 1, 67, 100
3, 70032, Note_on_c, 1, 65, 127
3, 70076, Note_off_c, 1, 65, 100
3, 70080, Note_on_c, 1, 67, 127
3, 70124, Note_off_c, 1, 67, 100
3, 70128, Note_on_c, 1, 65, 127
3, 70172, Note_off_c, 1, 65, 100
3, 70176, Note_on_c, 1, 67, 127
3, 70220, Note_off_c, 1, 67, 100
3, 70224, Note_on_c, 1, 65, 127
3, 70268, Note_off_c, 1, 65, 100
3, 70272, Note_on_c, 1, 64, 127
3, 70332, Note_off_c, 1, 64, 100
3, 71520, Note_on_c, 1, 66, 127
3, 71592, Note_off_c, 1, 66, 100
3, 71616, Note_on_c, 1, 64, 127
3, 71688, Note_off_c, 1, 64, 100
3, 71712, Note_on_c, 1, 66, 127
3, 71784, Note_off_c, 1, 66, 100
3, 71808, Note_on_c, 1, 67, 127
3, 71880, Note_off_c, 1, 67, 100
3, 71904, Note_on_c, 1, 71, 127
3, 71976, Note_off_c, 1, 71, 100
3, 72000, Note_on_c, 1, 69, 127
3, 72072, Note_off_c, 1, 69, 100
3, 72096, Note_on_c, 1, 71, 127
3, 72168, Note_off_c, 1, 71, 100
3, 72192, Note_on_c, 1, 72, 127
3, 72264, Note_off_c, 1, 72, 100
3, 72288, Note_on_c, 1, 69, 127
3, 72360, Note_off_c, 1, 69, 100
3, 72384, Note_on_c, 1, 66, 127
3, 72456, Note_off_c, 1, 66, 100
3, 72480, Note_on_c, 1, 62, 127
3, 72552, Note_off_c, 1, 62, 100
3, 72576, Note_on_c, 1, 67, 127
3, 72648, Note_off_c, 1, 67, 100
3, 72648, End_track
4, 0, Start_track
4, 0, Title_t, "BWV 988"
4, 0, Control_c, 2, 0, 0
4, 0, Program_c, 2, 6
4, 0, Control_c, 2, 7, 127
4, 0, Control_c, 2, 10, 91
4, 0, Control_c, 2, 91, 127
4, 0, Key_signature, 1, "major"
4, 192, Note_on_c, 2, 71, 127
4, 252, Note_off_c, 2, 71, 100
4, 384, Note_on_c, 2, 69, 127
4, 444, Note_off_c, 2, 69, 100
4, 960, Note_on_c, 2, 67, 127
4, 1020, Note_off_c, 2, 67, 100
4, 1344, Note_on_c, 2, 69, 127
4, 1404, Note_off_c, 2, 69, 100
4, 1536, Note_on_c, 2, 67, 127
4, 1596, Note_off_c, 2, 67, 100
4, 2112, Note_on_c, 2, 66, 127
4, 2172, Note_off_c, 2, 66, 100
4, 2496, Note_on_c, 2, 67, 127
4, 2556, Note_off_c, 2, 67, 100
4, 2688, Note_on_c, 2, 66, 127
4, 2748, Note_off_c, 2, 66, 100
4, 3264, Note_on_c, 2, 64, 127
4, 3324, Note_off_c, 2, 64, 100
4, 3648, Note_on_c, 2, 66, 127
4, 3708, Note_off_c, 2, 66, 100
4, 3840, Note_on_c, 2, 64, 127
4, 3900, Note_off_c, 2, 64, 100
4, 4416, Note_on_c, 2, 60, 127
4, 4476, Note_off_c, 2, 60, 100
4, 4656, Note_on_c, 2, 67, 127
4, 4700, Note_off_c, 2, 67, 100
4, 4704, Note_on_c, 2, 69, 127
4, 4748, Note_off_c, 2, 69, 100
4, 4752, Note_on_c, 2, 67, 127
4, 4796, Note_off_c, 2, 67, 100
4, 4800, Note_on_c, 2, 69, 127
4, 4844, Note_off_c, 2, 69, 100
4, 4848, Note_on_c, 2, 67, 127
4, 4892, Note_off_c, 2, 67, 100
4, 4896, Note_on_c, 2, 69, 127
4, 4940, Note_off_c, 2, 69, 100
4, 4944, Note_on_c, 2, 67, 127
4, 4988, Note_off_c, 2, 67, 100
4, 5040, Note_on_c, 2, 67, 127
4, 5084, Note_off_c, 2, 67, 100
4, 5088, Note_on_c, 2, 69, 127
4, 5132, Note_off_c, 2, 69, 100
4, 5136, Note_on_c, 2, 67, 127
4, 5180, Note_off_c, 2, 67, 100
4, 5184, Note_on_c, 2, 69, 127
4, 5228, Note_off_c, 2, 69, 100
4, 5232, Note_on_c, 2, 67, 127
4, 5276, Note_off_c, 2, 67, 100
4, 5280, Note_on_c, 2, 69, 127
4, 5324, Note_off_c, 2, 69, 100
4, 5328, Note_on_c, 2, 67, 127
4, 5372, Note_off_c, 2, 67, 100
4, 5424, Note_on_c, 2, 67, 127
4, 5468, Note_off_c, 2, 67, 100
4, 5472, Note_on_c, 2, 69, 127
4, 5516, Note_off_c, 2, 69, 100
4, 5520, Note_on_c, 2, 67, 127
4, 5564, Note_off_c, 2, 67, 100
4, 5568, Note_on_c, 2, 69, 127
4, 5612, Note_off_c, 2, 69, 100
4, 5616, Note_on_c, 2, 67, 127
4, 5660, Note_off_c, 2, 67, 100
4, 5664, Note_on_c, 2, 69, 127
4, 5708, Note_off_c, 2, 69, 100
4, 5712, Note_on_c, 2, 67, 127
4, 5756, Note_off_c, 2, 67, 100
4, 5808, Note_on_c, 2, 67, 127
4, 5852, Note_off_c, 2, 67, 100
4, 5856, Note_on_c, 2, 69, 127
4, 5900, Note_off_c, 2, 69, 100
4, 5904, Note_on_c, 2, 67, 127
4, 5948, Note_off_c, 2, 67, 100
4, 5952, Note_on_c, 2, 69, 127
4, 5996, Note_off_c, 2, 69, 100
4, 6000, Note_on_c, 2, 67, 127
4, 6044, Note_off_c, 2, 67, 100
4, 6048, Note_on_c, 2, 69, 127
4, 6092, Note_off_c, 2, 69, 100
4, 6096, Note_on_c, 2, 67, 127
4, 6140, Note_off_c, 2, 67, 100
4, 6192, Note_on_c, 2, 67, 127
4, 6236, Note_off_c, 2, 67, 100
4, 6240, Note_on_c, 2, 69, 127
4, 6284, Note_off_c, 2, 69, 100
4, 6288, Note_on_c, 2, 67, 127
4, 6332, Note_off_c, 2, 67, 100
4, 6336, Note_on_c, 2, 69, 127
4, 6380, Note_off_c, 2, 69, 100
4, 6384, Note_on_c, 2, 67, 127
4, 6428, Note_off_c, 2, 67, 100
4, 6432, Note_on_c, 2, 69, 127
4, 6476, Note_off_c, 2, 69, 100
4, 6480, Note_on_c, 2, 67, 127
4, 6524, Note_off_c, 2, 67, 100
4, 6576, Note_on_c, 2, 67, 127
4, 6620, Note_off_c, 2, 67, 100
4, 6624, Note_on_c, 2, 69, 127
4, 6668, Note_off_c, 2, 69, 100
4, 6672, Note_on_c, 2, 67, 127
4, 6716, Note_off_c, 2, 67, 100
4, 6720, Note_on_c, 2, 69, 127
4, 6764, Note_off_c, 2, 69, 100
4, 6768, Note_on_c, 2, 67, 127
4, 6812, Note_off_c, 2, 67, 100
4, 6816, Note_on_c, 2, 69, 127
4, 6860, Note_off_c, 2, 69, 100
4, 6864, Note_on_c, 2, 67, 127
4, 6908, Note_off_c, 2, 67, 100
4, 6960, Note_on_c, 2, 67, 127
4, 7004, Note_off_c, 2, 67, 100
4, 7008, Note_on_c, 2, 69, 127
4, 7052, Note_off_c, 2, 69, 100
4, 7056, Note_on_c, 2, 67, 127
4, 7100, Note_off_c, 2, 67, 100
4, 7104, Note_on_c, 2, 69, 127
4, 7148, Note_off_c, 2, 69, 100
4, 7152, Note_on_c, 2, 67, 127
4, 7196, Note_off_c, 2, 67, 100
4, 7200, Note_on_c, 2, 69, 127
4, 7244, Note_off_c, 2, 69, 100
4, 7248, Note_on_c, 2, 67, 127
4, 7292, Note_off_c, 2, 67, 100
4, 7344, Note_on_c, 2, 67, 127
4, 7388, Note_off_c, 2, 67, 100
4, 7392, Note_on_c, 2, 69, 127
4, 7436, Note_off_c, 2, 69, 100
4, 7440, Note_on_c, 2, 67, 127
4, 7484, Note_off_c, 2, 67, 100
4, 7488, Note_on_c, 2, 69, 127
4, 7532, Note_off_c, 2, 69, 100
4, 7536, Note_on_c, 2, 67, 127
4, 7580, Note_off_c, 2, 67, 100
4, 7584, Note_on_c, 2, 69, 127
4, 7628, Note_off_c, 2, 69, 100
4, 7632, Note_on_c, 2, 67, 127
4, 7676, Note_off_c, 2, 67, 100
4, 7728, Note_on_c, 2, 66, 127
4, 7772, Note_off_c, 2, 66, 100
4, 7776, Note_on_c, 2, 67, 127
4, 7820, Note_off_c, 2, 67, 100
4, 7824, Note_on_c, 2, 66, 127
4, 7868, Note_off_c, 2, 66, 100
4, 7872, Note_on_c, 2, 67, 127
4, 7916, Note_off_c, 2, 67, 100
4, 7920, Note_on_c, 2, 66, 127
4, 7964, Note_off_c, 2, 66, 100
4, 7968, Note_on_c, 2, 67, 127
4, 8012, Note_off_c, 2, 67, 100
4, 8016, Note_on_c, 2, 66, 127
4, 8060, Note_off_c, 2, 66, 100
4, 8112, Note_on_c, 2, 67, 127
4, 8156, Note_off_c, 2, 67, 100
4, 8160, Note_on_c, 2, 69, 127
4, 8204, Note_off_c, 2, 69, 100
4, 8208, Note_on_c, 2, 67, 127
4, 8252, Note_off_c, 2, 67, 100
4, 8256, Note_on_c, 2, 69, 127
4, 8300, Note_off_c, 2, 69, 100
4, 8304, Note_on_c, 2, 67, 127
4, 8348, Note_off_c, 2, 67, 100
4, 8352, Note_on_c, 2, 69, 127
4, 8396, Note_off_c, 2, 69, 100
4, 8400, Note_on_c, 2, 67, 127
4, 8444, Note_off_c, 2, 67, 100
4, 8496, Note_on_c, 2, 67, 127
4, 8540, Note_off_c, 2, 67, 100
4, 8544, Note_on_c, 2, 69, 127
4, 8588, Note_off_c, 2, 69, 100
4, 8592, Note_on_c, 2, 67, 127
4, 8636, Note_off_c, 2, 67, 100
4, 8640, Note_on_c, 2, 69, 127
4, 8684, Note_off_c, 2, 69, 100
4, 8688, Note_on_c, 2, 67, 127
4, 8732, Note_off_c, 2, 67, 100
4, 8736, Note_on_c, 2, 69, 127
4, 8780, Note_off_c, 2, 69, 100
4, 8784, Note_on_c, 2, 67, 127
4, 8828, Note_off_c, 2, 67, 100
4, 8880, Note_on_c, 2, 67, 127
4, 8924, Note_off_c, 2, 67, 100
4, 8928, Note_on_c, 2, 69, 127
4, 8972, Note_off_c, 2, 69, 100
4, 8976, Note_on_c, 2, 67, 127
4, 9020, Note_off_c, 2, 67, 100
4, 9024, Note_on_c, 2, 69, 127
4, 9068, Note_off_c, 2, 69, 100
4, 9072, Note_on_c, 2, 67, 127
4, 9116, Note_off_c, 2, 67, 100
4, 9120, Note_on_c, 2, 69, 127
4, 9164, Note_off_c, 2, 69, 100
4, 9168, Note_on_c, 2, 67, 127
4, 9212, Note_off_c, 2, 67, 100
4, 13872, Note_on_c, 2, 54, 127
4, 13916, Note_off_c, 2, 54, 100
4, 13920, Note_on_c, 2, 55, 127
4, 13964, Note_off_c, 2, 55, 100
4, 13968, Note_on_c, 2, 54, 127
4, 14012, Note_off_c, 2, 54, 100
4, 14016, Note_on_c, 2, 55, 127
4, 14060, Note_off_c, 2, 55, 100
4, 14064, Note_on_c, 2, 54, 127
4, 14108, Note_off_c, 2, 54, 100
4, 14112, Note_on_c, 2, 55, 127
4, 14156, Note_off_c, 2, 55, 100
4, 14160, Note_on_c, 2, 54, 127
4, 14204, Note_off_c, 2, 54, 100
4, 14256, Note_on_c, 2, 54, 127
4, 14300, Note_off_c, 2, 54, 100
4, 14304, Note_on_c, 2, 55, 127
4, 14348, Note_off_c, 2, 55, 100
4, 14352, Note_on_c, 2, 54, 127
4, 14396, Note_off_c, 2, 54, 100
4, 14400, Note_on_c, 2, 55, 127
4, 14444, Note_off_c, 2, 55, 100
4, 14448, Note_on_c, 2, 54, 127
4, 14492, Note_off_c, 2, 54, 100
4, 14496, Note_on_c, 2, 55, 127
4, 14540, Note_off_c, 2, 55, 100
4, 14544, Note_on_c, 2, 54, 127
4, 14588, Note_off_c, 2, 54, 100
4, 14640, Note_on_c, 2, 54, 127
4, 14684, Note_off_c, 2, 54, 100
4, 14688, Note_on_c, 2, 55, 127
4, 14732, Note_off_c, 2, 55, 100
4, 14736, Note_on_c, 2, 54, 127
4, 14780, Note_off_c, 2, 54, 100
4, 14784, Note_on_c, 2, 55, 127
4, 14828, Note_off_c, 2, 55, 100
4, 14832, Note_on_c, 2, 54, 127
4, 14876, Note_off_c, 2, 54, 100
4, 14880, Note_on_c, 2, 55, 127
4, 14924, Note_off_c, 2, 55, 100
4, 14928, Note_on_c, 2, 54, 127
4, 14972, Note_off_c, 2, 54, 100
4, 15024, Note_on_c, 2, 54, 127
4, 15068, Note_off_c, 2, 54, 100
4, 15072, Note_on_c, 2, 55, 127
4, 15116, Note_off_c, 2, 55, 100
4, 15120, Note_on_c, 2, 54, 127
4, 15164, Note_off_c, 2, 54, 100
4, 15168, Note_on_c, 2, 55, 127
4, 15212, Note_off_c, 2, 55, 100
4, 15216, Note_on_c, 2, 54, 127
4, 15260, Note_off_c, 2, 54, 100
4, 15264, Note_on_c, 2, 55, 127
4, 15308, Note_off_c, 2, 55, 100
4, 15312, Note_on_c, 2, 54, 127
4, 15356, Note_off_c, 2, 54, 100
4, 15408, Note_on_c, 2, 54, 127
4, 15452, Note_off_c, 2, 54, 100
4, 15456, Note_on_c, 2, 55, 127
4, 15500, Note_off_c, 2, 55, 100
4, 15504, Note_on_c, 2, 54, 127
4, 15548, Note_off_c, 2, 54, 100
4, 15552, Note_on_c, 2, 55, 127
4, 15596, Note_off_c, 2, 55, 100
4, 15600, Note_on_c, 2, 54, 127
4, 15644, Note_off_c, 2, 54, 100
4, 15648, Note_on_c, 2, 55, 127
4, 15692, Note_off_c, 2, 55, 100
4, 15696, Note_on_c, 2, 54, 127
4, 15740, Note_off_c, 2, 54, 100
4, 15792, Note_on_c, 2, 54, 127
4, 15836, Note_off_c, 2, 54, 100
4, 15840, Note_on_c, 2, 55, 127
4, 15884, Note_off_c, 2, 55, 100
4, 15888, Note_on_c, 2, 54, 127
4, 15932, Note_off_c, 2, 54, 100
4, 15936, Note_on_c, 2, 55, 127
4, 15980, Note_off_c, 2, 55, 100
4, 15984, Note_on_c, 2, 54, 127
4, 16028, Note_off_c, 2, 54, 100
4, 16032, Note_on_c, 2, 55, 127
4, 16076, Note_off_c, 2, 55, 100
4, 16080, Note_on_c, 2, 54, 127
4, 16124, Note_off_c, 2, 54, 100
4, 16176, Note_on_c, 2, 54, 127
4, 16220, Note_off_c, 2, 54, 100
4, 16224, Note_on_c, 2, 55, 127
4, 16268, Note_off_c, 2, 55, 100
4, 16272, Note_on_c, 2, 54, 127
4, 16316, Note_off_c, 2, 54, 100
4, 16320, Note_on_c, 2, 55, 127
4, 16364, Note_off_c, 2, 55, 100
4, 16368, Note_on_c, 2, 54, 127
4, 16412, Note_off_c, 2, 54, 100
4, 16416, Note_on_c, 2, 55, 127
4, 16460, Note_off_c, 2, 55, 100
4, 16464, Note_on_c, 2, 54, 127
4, 16508, Note_off_c, 2, 54, 100
4, 16560, Note_on_c, 2, 54, 127
4, 16604, Note_off_c, 2, 54, 100
4, 16608, Note_on_c, 2, 55, 127
4, 16652, Note_off_c, 2, 55, 100
4, 16656, Note_on_c, 2, 54, 127
4, 16700, Note_off_c, 2, 54, 100
4, 16704, Note_on_c, 2, 55, 127
4, 16748, Note_off_c, 2, 55, 100
4, 16752, Note_on_c, 2, 54, 127
4, 16796, Note_off_c, 2, 54, 100
4, 16800, Note_on_c, 2, 55, 127
4, 16844, Note_off_c, 2, 55, 100
4, 16848, Note_on_c, 2, 54, 127
4, 16892, Note_off_c, 2, 54, 100
4, 16944, Note_on_c, 2, 52, 127
4, 16988, Note_off_c, 2, 52, 100
4, 16992, Note_on_c, 2, 54, 127
4, 17036, Note_off_c, 2, 54, 100
4, 17040, Note_on_c, 2, 52, 127
4, 17084, Note_off_c, 2, 52, 100
4, 17088, Note_on_c, 2, 54, 127
4, 17132, Note_off_c, 2, 54, 100
4, 17136, Note_on_c, 2, 52, 127
4, 17180, Note_off_c, 2, 52, 100
4, 17184, Note_on_c, 2, 54, 127
4, 17228, Note_off_c, 2, 54, 100
4, 17232, Note_on_c, 2, 52, 127
4, 17276, Note_off_c, 2, 52, 100
4, 18624, Note_on_c, 2, 71, 127
4, 18684, Note_off_c, 2, 71, 100
4, 18816, Note_on_c, 2, 69, 127
4, 18876, Note_off_c, 2, 69, 100
4, 19392, Note_on_c, 2, 67, 127
4, 19452, Note_off_c, 2, 67, 100
4, 19776, Note_on_c, 2, 69, 127
4, 19836, Note_off_c, 2, 69, 100
4, 19968, Note_on_c, 2, 67, 127
4, 20028, Note_off_c, 2, 67, 100
4, 20544, Note_on_c, 2, 66, 127
4, 20604, Note_off_c, 2, 66, 100
4, 20928, Note_on_c, 2, 67, 127
4, 20988, Note_off_c, 2, 67, 100
4, 21120, Note_on_c, 2, 66, 127
4, 21180, Note_off_c, 2, 66, 100
4, 21696, Note_on_c, 2, 64, 127
4, 21756, Note_off_c, 2, 64, 100
4, 22080, Note_on_c, 2, 66, 127
4, 22140, Note_off_c, 2, 66, 100
4, 22272, Note_on_c, 2, 64, 127
4, 22332, Note_off_c, 2, 64, 100
4, 22848, Note_on_c, 2, 60, 127
4, 22908, Note_off_c, 2, 60, 100
4, 23088, Note_on_c, 2, 67, 127
4, 23132, Note_off_c, 2, 67, 100
4, 23136, Note_on_c, 2, 69, 127
4, 23180, Note_off_c, 2, 69, 100
4, 23184, Note_on_c, 2, 67, 127
4, 23228, Note_off_c, 2, 67, 100
4, 23232, Note_on_c, 2, 69, 127
4, 23276, Note_off_c, 2, 69, 100
4, 23280, Note_on_c, 2, 67, 127
4, 23324, Note_off_c, 2, 67, 100
4, 23328, Note_on_c, 2, 69, 127
4, 23372, Note_off_c, 2, 69, 100
4, 23376, Note_on_c, 2, 67, 127
4, 23420, Note_off_c, 2, 67, 100
4, 23472, Note_on_c, 2, 67, 127
4, 23516, Note_off_c, 2, 67, 100
4, 23520, Note_on_c, 2, 69, 127
4, 23564, Note_off_c, 2, 69, 100
4, 23568, Note_on_c, 2, 67, 127
4, 23612, Note_off_c, 2, 67, 100
4, 23616, Note_on_c, 2, 69, 127
4, 23660, Note_off_c, 2, 69, 100
4, 23664, Note_on_c, 2, 67, 127
4, 23708, Note_off_c, 2, 67, 100
4, 23712, Note_on_c, 2, 69, 127
4, 23756, Note_off_c, 2, 69, 100
4, 23760, Note_on_c, 2, 67, 127
4, 23804, Note_off_c, 2, 67, 100
4, 23856, Note_on_c, 2, 67, 127
4, 23900, Note_off_c, 2, 67, 100
4, 23904, Note_on_c, 2, 69, 127
4, 23948, Note_off_c, 2, 69, 100
4, 23952, Note_on_c, 2, 67, 127
4, 23996, Note_off_c, 2, 67, 100
4, 24000, Note_on_c, 2, 69, 127
4, 24044, Note_off_c, 2, 69, 100
4, 24048, Note_on_c, 2, 67, 127
4, 24092, Note_off_c, 2, 67, 100
4, 24096, Note_on_c, 2, 69, 127
4, 24140, Note_off_c, 2, 69, 100
4, 24144, Note_on_c, 2, 67, 127
4, 24188, Note_off_c, 2, 67, 100
4, 24240, Note_on_c, 2, 67, 127
4, 24284, Note_off_c, 2, 67, 100
4, 24288, Note_on_c, 2, 69, 127
4, 24332, Note_off_c, 2, 69, 100
4, 24336, Note_on_c, 2, 67, 127
4, 24380, Note_off_c, 2, 67, 100
4, 24384, Note_on_c, 2, 69, 127
4, 24428, Note_off_c, 2, 69, 100
4, 24432, Note_on_c, 2, 67, 127
4, 24476, Note_off_c, 2, 67, 100
4, 24480, Note_on_c, 2, 69, 127
4, 24524, Note_off_c, 2, 69, 100
4, 24528, Note_on_c, 2, 67, 127
4, 24572, Note_off_c, 2, 67, 100
4, 24624, Note_on_c, 2, 67, 127
4, 24668, Note_off_c, 2, 67, 100
4, 24672, Note_on_c, 2, 69, 127
4, 24716, Note_off_c, 2, 69, 100
4, 24720, Note_on_c, 2, 67, 127
4, 24764, Note_off_c, 2, 67, 100
4, 24768, Note_on_c, 2, 69, 127
4, 24812, Note_off_c, 2, 69, 100
4, 24816, Note_on_c, 2, 67, 127
4, 24860, Note_off_c, 2, 67, 100
4, 24864, Note_on_c, 2, 69, 127
4, 24908, Note_off_c, 2, 69, 100
4, 24912, Note_on_c, 2, 67, 127
4, 24956, Note_off_c, 2, 67, 100
4, 25008, Note_on_c, 2, 67, 127
4, 25052, Note_off_c, 2, 67, 100
4, 25056, Note_on_c, 2, 69, 127
4, 25100, Note_off_c, 2, 69, 100
4, 25104, Note_on_c, 2, 67, 127
4, 25148, Note_off_c, 2, 67, 100
4, 25152, Note_on_c, 2, 69, 127
4, 25196, Note_off_c, 2, 69, 100
4, 25200, Note_on_c, 2, 67, 127
4, 25244, Note_off_c, 2, 67, 100
4, 25248, Note_on_c, 2, 69, 127
4, 25292, Note_off_c, 2, 69, 100
4, 25296, Note_on_c, 2, 67, 127
4, 25340, Note_off_c, 2, 67, 100
4, 25392, Note_on_c, 2, 67, 127
4, 25436, Note_off_c, 2, 67, 100
4, 25440, Note_on_c, 2, 69, 127
4, 25484, Note_off_c, 2, 69, 100
4, 25488, Note_on_c, 2, 67, 127
4, 25532, Note_off_c, 2, 67, 100
4, 25536, Note_on_c, 2, 69, 127
4, 25580, Note_off_c, 2, 69, 100
4, 25584, Note_on_c, 2, 67, 127
4, 25628, Note_off_c, 2, 67, 100
4, 25632, Note_on_c, 2, 69, 127
4, 25676, Note_off_c, 2, 69, 100
4, 25680, Note_on_c, 2, 67, 127
4, 25724, Note_off_c, 2, 67, 100
4, 25776, Note_on_c, 2, 67, 127
4, 25820, Note_off_c, 2, 67, 100
4, 25824, Note_on_c, 2, 69, 127
4, 25868, Note_off_c, 2, 69, 100
4, 25872, Note_on_c, 2, 67, 127
4, 25916, Note_off_c, 2, 67, 100
4, 25920, Note_on_c, 2, 69, 127
4, 25964, Note_off_c, 2, 69, 100
4, 25968, Note_on_c, 2, 67, 127
4, 26012, Note_off_c, 2, 67, 100
4, 26016, Note_on_c, 2, 69, 127
4, 26060, Note_off_c, 2, 69, 100
4, 26064, Note_on_c, 2, 67, 127
4, 26108, Note_off_c, 2, 67, 100
4, 26160, Note_on_c, 2, 66, 127
4, 26204, Note_off_c, 2, 66, 100
4, 26208, Note_on_c, 2, 67, 127
4, 26252, Note_off_c, 2, 67, 100
4, 26256, Note_on_c, 2, 66, 127
4, 26300, Note_off_c, 2, 66, 100
4, 26304, Note_on_c, 2, 67, 127
4, 26348, Note_off_c, 2, 67, 100
4, 26352, Note_on_c, 2, 66, 127
4, 26396, Note_off_c, 2, 66, 100
4, 26400, Note_on_c, 2, 67, 127
4, 26444, Note_off_c, 2, 67, 100
4, 26448, Note_on_c, 2, 66, 127
4, 26492, Note_off_c, 2, 66, 100
4, 26544, Note_on_c, 2, 67, 127
4, 26588, Note_off_c, 2, 67, 100
4, 26592, Note_on_c, 2, 69, 127
4, 26636, Note_off_c, 2, 69, 100
4, 26640, Note_on_c, 2, 67, 127
4, 26684, Note_off_c, 2, 67, 100
4, 26688, Note_on_c, 2, 69, 127
4, 26732, Note_off_c, 2, 69, 100
4, 26736, Note_on_c, 2, 67, 127
4, 26780, Note_off_c, 2, 67, 100
4, 26784, Note_on_c, 2, 69, 127
4, 26828, Note_off_c, 2, 69, 100
4, 26832, Note_on_c, 2, 67, 127
4, 26876, Note_off_c, 2, 67, 100
4, 26928, Note_on_c, 2, 67, 127
4, 26972, Note_off_c, 2, 67, 100
4, 26976, Note_on_c, 2, 69, 127
4, 27020, Note_off_c, 2, 69, 100
4, 27024, Note_on_c, 2, 67, 127
4, 27068, Note_off_c, 2, 67, 100
4, 27072, Note_on_c, 2, 69, 127
4, 27116, Note_off_c, 2, 69, 100
4, 27120, Note_on_c, 2, 67, 127
4, 27164, Note_off_c, 2, 67, 100
4, 27168, Note_on_c, 2, 69, 127
4, 27212, Note_off_c, 2, 69, 100
4, 27216, Note_on_c, 2, 67, 127
4, 27260, Note_off_c, 2, 67, 100
4, 27312, Note_on_c, 2, 67, 127
4, 27356, Note_off_c, 2, 67, 100
4, 27360, Note_on_c, 2, 69, 127
4, 27404, Note_off_c, 2, 69, 100
4, 27408, Note_on_c, 2, 67, 127
4, 27452, Note_off_c, 2, 67, 100
4, 27456, Note_on_c, 2, 69, 127
4, 27500, Note_off_c, 2, 69, 100
4, 27504, Note_on_c, 2, 67, 127
4, 27548, Note_off_c, 2, 67, 100
4, 27552, Note_on_c, 2, 69, 127
4, 27596, Note_off_c, 2, 69, 100
4, 27600, Note_on_c, 2, 67, 127
4, 27644, Note_off_c, 2, 67, 100
4, 32304, Note_on_c, 2, 54, 127
4, 32348, Note_off_c, 2, 54, 100
4, 32352, Note_on_c, 2, 55, 127
4, 32396, Note_off_c, 2, 55, 100
4, 32400, Note_on_c, 2, 54, 127
4, 32444, Note_off_c, 2, 54, 100
4, 32448, Note_on_c, 2, 55, 127
4, 32492, Note_off_c, 2, 55, 100
4, 32496, Note_on_c, 2, 54, 127
4, 32540, Note_off_c, 2, 54, 100
4, 32544, Note_on_c, 2, 55, 127
4, 32588, Note_off_c, 2, 55, 100
4, 32592, Note_on_c, 2, 54, 127
4, 32636, Note_off_c, 2, 54, 100
4, 32688, Note_on_c, 2, 54, 127
4, 32732, Note_off_c, 2, 54, 100
4, 32736, Note_on_c, 2, 55, 127
4, 32780, Note_off_c, 2, 55, 100
4, 32784, Note_on_c, 2, 54, 127
4, 32828, Note_off_c, 2, 54, 100
4, 32832, Note_on_c, 2, 55, 127
4, 32876, Note_off_c, 2, 55, 100
4, 32880, Note_on_c, 2, 54, 127
4, 32924, Note_off_c, 2, 54, 100
4, 32928, Note_on_c, 2, 55, 127
4, 32972, Note_off_c, 2, 55, 100
4, 32976, Note_on_c, 2, 54, 127
4, 33020, Note_off_c, 2, 54, 100
4, 33072, Note_on_c, 2, 54, 127
4, 33116, Note_off_c, 2, 54, 100
4, 33120, Note_on_c, 2, 55, 127
4, 33164, Note_off_c, 2, 55, 100
4, 33168, Note_on_c, 2, 54, 127
4, 33212, Note_off_c, 2, 54, 100
4, 33216, Note_on_c, 2, 55, 127
4, 33260, Note_off_c, 2, 55, 100
4, 33264, Note_on_c, 2, 54, 127
4, 33308, Note_off_c, 2, 54, 100
4, 33312, Note_on_c, 2, 55, 127
4, 33356, Note_off_c, 2, 55, 100
4, 33360, Note_on_c, 2, 54, 127
4, 33404, Note_off_c, 2, 54, 100
4, 33456, Note_on_c, 2, 54, 127
4, 33500, Note_off_c, 2, 54, 100
4, 33504, Note_on_c, 2, 55, 127
4, 33548, Note_off_c, 2, 55, 100
4, 33552, Note_on_c, 2, 54, 127
4, 33596, Note_off_c, 2, 54, 100
4, 33600, Note_on_c, 2, 55, 127
4, 33644, Note_off_c, 2, 55, 100
4, 33648, Note_on_c, 2, 54, 127
4, 33692, Note_off_c, 2, 54, 100
4, 33696, Note_on_c, 2, 55, 127
4, 33740, Note_off_c, 2, 55, 100
4, 33744, Note_on_c, 2, 54, 127
4, 33788, Note_off_c, 2, 54, 100
4, 33840, Note_on_c, 2, 54, 127
4, 33884, Note_off_c, 2, 54, 100
4, 33888, Note_on_c, 2, 55, 127
4, 33932, Note_off_c, 2, 55, 100
4, 33936, Note_on_c, 2, 54, 127
4, 33980, Note_off_c, 2, 54, 100
4, 33984, Note_on_c, 2, 55, 127
4, 34028, Note_off_c, 2, 55, 100
4, 34032, Note_on_c, 2, 54, 127
4, 34076, Note_off_c, 2, 54, 100
4, 34080, Note_on_c, 2, 55, 127
4, 34124, Note_off_c, 2, 55, 100
4, 34128, Note_on_c, 2, 54, 127
4, 34172, Note_off_c, 2, 54, 100
4, 34224, Note_on_c, 2, 54, 127
4, 34268, Note_off_c, 2, 54, 100
4, 34272, Note_on_c, 2, 55, 127
4, 34316, Note_off_c, 2, 55, 100
4, 34320, Note_on_c, 2, 54, 127
4, 34364, Note_off_c, 2, 54, 100
4, 34368, Note_on_c, 2, 55, 127
4, 34412, Note_off_c, 2, 55, 100
4, 34416, Note_on_c, 2, 54, 127
4, 34460, Note_off_c, 2, 54, 100
4, 34464, Note_on_c, 2, 55, 127
4, 34508, Note_off_c, 2, 55, 100
4, 34512, Note_on_c, 2, 54, 127
4, 34556, Note_off_c, 2, 54, 100
4, 34608, Note_on_c, 2, 54, 127
4, 34652, Note_off_c, 2, 54, 100
4, 34656, Note_on_c, 2, 55, 127
4, 34700, Note_off_c, 2, 55, 100
4, 34704, Note_on_c, 2, 54, 127
4, 34748, Note_off_c, 2, 54, 100
4, 34752, Note_on_c, 2, 55, 127
4, 34796, Note_off_c, 2, 55, 100
4, 34800, Note_on_c, 2, 54, 127
4, 34844, Note_off_c, 2, 54, 100
4, 34848, Note_on_c, 2, 55, 127
4, 34892, Note_off_c, 2, 55, 100
4, 34896, Note_on_c, 2, 54, 127
4, 34940, Note_off_c, 2, 54, 100
4, 34992, Note_on_c, 2, 54, 127
4, 35036, Note_off_c, 2, 54, 100
4, 35040, Note_on_c, 2, 55, 127
4, 35084, Note_off_c, 2, 55, 100
4, 35088, Note_on_c, 2, 54, 127
4, 35132, Note_off_c, 2, 54, 100
4, 35136, Note_on_c, 2, 55, 127
4, 35180, Note_off_c, 2, 55, 100
4, 35184, Note_on_c, 2, 54, 127
4, 35228, Note_off_c, 2, 54, 100
4, 35232, Note_on_c, 2, 55, 127
4, 35276, Note_off_c, 2, 55, 100
4, 35280, Note_on_c, 2, 54, 127
4, 35324, Note_off_c, 2, 54, 100
4, 35376, Note_on_c, 2, 52, 127
4, 35420, Note_off_c, 2, 52, 100
4, 35424, Note_on_c, 2, 54, 127
4, 35468, Note_off_c, 2, 54, 100
4, 35472, Note_on_c, 2, 52, 127
4, 35516, Note_off_c, 2, 52, 100
4, 35520, Note_on_c, 2, 54, 127
4, 35564, Note_off_c, 2, 54, 100
4, 35568, Note_on_c, 2, 52, 127
4, 35612, Note_off_c, 2, 52, 100
4, 35616, Note_on_c, 2, 54, 127
4, 35660, Note_off_c, 2, 54, 100
4, 35664, Note_on_c, 2, 52, 127
4, 35708, Note_off_c, 2, 52, 100
4, 36864, Note_on_c, 2, 62, 127
4, 36924, Note_off_c, 2, 62, 100
4, 37440, Note_on_c, 2, 60, 127
4, 37500, Note_off_c, 2, 60, 100
4, 37824, Note_on_c, 2, 66, 127
4, 37884, Note_off_c, 2, 66, 100
4, 38016, Note_on_c, 2, 67, 127
4, 38076, Note_off_c, 2, 67, 100
4, 38592, Note_on_c, 2, 66, 127
4, 38652, Note_off_c, 2, 66, 100
4, 38976, Note_on_c, 2, 71, 127
4, 39036, Note_off_c, 2, 71, 100
4, 41520, Note_on_c, 2, 64, 127
4, 41564, Note_off_c, 2, 64, 100
4, 41568, Note_on_c, 2, 66, 127
4, 41612, Note_off_c, 2, 66, 100
4, 41616, Note_on_c, 2, 64, 127
4, 41660, Note_off_c, 2, 64, 100
4, 41664, Note_on_c, 2, 66, 127
4, 41708, Note_off_c, 2, 66, 100
4, 41712, Note_on_c, 2, 64, 127
4, 41756, Note_off_c, 2, 64, 100
4, 41760, Note_on_c, 2, 66, 127
4, 41804, Note_off_c, 2, 66, 100
4, 41808, Note_on_c, 2, 64, 127
4, 41852, Note_off_c, 2, 64, 100
4, 41904, Note_on_c, 2, 64, 127
4, 41948, Note_off_c, 2, 64, 100
4, 41952, Note_on_c, 2, 66, 127
4, 41996, Note_off_c, 2, 66, 100
4, 42000, Note_on_c, 2, 64, 127
4, 42044, Note_off_c, 2, 64, 100
4, 42048, Note_on_c, 2, 66, 127
4, 42092, Note_off_c, 2, 66, 100
4, 42096, Note_on_c, 2, 64, 127
4, 42140, Note_off_c, 2, 64, 100
4, 42144, Note_on_c, 2, 66, 127
4, 42188, Note_off_c, 2, 66, 100
4, 42192, Note_on_c, 2, 64, 127
4, 42236, Note_off_c, 2, 64, 100
4, 42288, Note_on_c, 2, 64, 127
4, 42332, Note_off_c, 2, 64, 100
4, 42336, Note_on_c, 2, 66, 127
4, 42380, Note_off_c, 2, 66, 100
4, 42384, Note_on_c, 2, 64, 127
4, 42428, Note_off_c, 2, 64, 100
4, 42432, Note_on_c, 2, 66, 127
4, 42476, Note_off_c, 2, 66, 100
4, 42480, Note_on_c, 2, 64, 127
4, 42524, Note_off_c, 2, 64, 100
4, 42528, Note_on_c, 2, 66, 127
4, 42572, Note_off_c, 2, 66, 100
4, 42576, Note_on_c, 2, 64, 127
4, 42620, Note_off_c, 2, 64, 100
4, 42672, Note_on_c, 2, 64, 127
4, 42716, Note_off_c, 2, 64, 100
4, 42720, Note_on_c, 2, 66, 127
4, 42764, Note_off_c, 2, 66, 100
4, 42768, Note_on_c, 2, 64, 127
4, 42812, Note_off_c, 2, 64, 100
4, 42816, Note_on_c, 2, 66, 127
4, 42860, Note_off_c, 2, 66, 100
4, 42864, Note_on_c, 2, 64, 127
4, 42908, Note_off_c, 2, 64, 100
4, 42912, Note_on_c, 2, 66, 127
4, 42956, Note_off_c, 2, 66, 100
4, 42960, Note_on_c, 2, 64, 127
4, 43004, Note_off_c, 2, 64, 100
4, 43056, Note_on_c, 2, 64, 127
4, 43100, Note_off_c, 2, 64, 100
4, 43104, Note_on_c, 2, 66, 127
4, 43148, Note_off_c, 2, 66, 100
4, 43152, Note_on_c, 2, 64, 127
4, 43196, Note_off_c, 2, 64, 100
4, 43200, Note_on_c, 2, 66, 127
4, 43244, Note_off_c, 2, 66, 100
4, 43248, Note_on_c, 2, 64, 127
4, 43292, Note_off_c, 2, 64, 100
4, 43296, Note_on_c, 2, 66, 127
4, 43340, Note_off_c, 2, 66, 100
4, 43344, Note_on_c, 2, 64, 127
4, 43388, Note_off_c, 2, 64, 100
4, 43440, Note_on_c, 2, 64, 127
4, 43484, Note_off_c, 2, 64, 100
4, 43488, Note_on_c, 2, 66, 127
4, 43532, Note_off_c, 2, 66, 100
4, 43536, Note_on_c, 2, 64, 127
4, 43580, Note_off_c, 2, 64, 100
4, 43584, Note_on_c, 2, 66, 127
4, 43628, Note_off_c, 2, 66, 100
4, 43632, Note_on_c, 2, 64, 127
4, 43676, Note_off_c, 2, 64, 100
4, 43680, Note_on_c, 2, 66, 127
4, 43724, Note_off_c, 2, 66, 100
4, 43728, Note_on_c, 2, 64, 127
4, 43772, Note_off_c, 2, 64, 100
4, 43824, Note_on_c, 2, 64, 127
4, 43868, Note_off_c, 2, 64, 100
4, 43872, Note_on_c, 2, 66, 127
4, 43916, Note_off_c, 2, 66, 100
4, 43920, Note_on_c, 2, 64, 127
4, 43964, Note_off_c, 2, 64, 100
4, 43968, Note_on_c, 2, 66, 127
4, 44012, Note_off_c, 2, 66, 100
4, 44016, Note_on_c, 2, 64, 127
4, 44060, Note_off_c, 2, 64, 100
4, 44064, Note_on_c, 2, 66, 127
4, 44108, Note_off_c, 2, 66, 100
4, 44112, Note_on_c, 2, 64, 127
4, 44156, Note_off_c, 2, 64, 100
4, 44208, Note_on_c, 2, 64, 127
4, 44252, Note_off_c, 2, 64, 100
4, 44256, Note_on_c, 2, 66, 127
4, 44300, Note_off_c, 2, 66, 100
4, 44304, Note_on_c, 2, 64, 127
4, 44348, Note_off_c, 2, 64, 100
4, 44352, Note_on_c, 2, 66, 127
4, 44396, Note_off_c, 2, 66, 100
4, 44400, Note_on_c, 2, 64, 127
4, 44444, Note_off_c, 2, 64, 100
4, 44448, Note_on_c, 2, 66, 127
4, 44492, Note_off_c, 2, 66, 100
4, 44496, Note_on_c, 2, 64, 127
4, 44540, Note_off_c, 2, 64, 100
4, 44592, Note_on_c, 2, 63, 127
4, 44636, Note_off_c, 2, 63, 100
4, 44640, Note_on_c, 2, 64, 127
4, 44684, Note_off_c, 2, 64, 100
4, 44688, Note_on_c, 2, 63, 127
4, 44732, Note_off_c, 2, 63, 100
4, 44736, Note_on_c, 2, 64, 127
4, 44780, Note_off_c, 2, 64, 100
4, 44784, Note_on_c, 2, 63, 127
4, 44828, Note_off_c, 2, 63, 100
4, 44832, Note_on_c, 2, 64, 127
4, 44876, Note_off_c, 2, 64, 100
4, 44880, Note_on_c, 2, 63, 127
4, 44924, Note_off_c, 2, 63, 100
4, 45024, Note_on_c, 2, 64, 127
4, 45096, Note_off_c, 2, 64, 100
4, 45120, Note_on_c, 2, 63, 127
4, 45192, Note_off_c, 2, 63, 100
4, 45216, Note_on_c, 2, 64, 127
4, 45288, Note_off_c, 2, 64, 100
4, 45312, Note_on_c, 2, 59, 127
4, 45384, Note_off_c, 2, 59, 100
4, 46128, Note_on_c, 2, 67, 127
4, 46172, Note_off_c, 2, 67, 100
4, 46176, Note_on_c, 2, 69, 127
4, 46220, Note_off_c, 2, 69, 100
4, 46224, Note_on_c, 2, 67, 127
4, 46268, Note_off_c, 2, 67, 100
4, 46272, Note_on_c, 2, 69, 127
4, 46316, Note_off_c, 2, 69, 100
4, 46320, Note_on_c, 2, 67, 127
4, 46364, Note_off_c, 2, 67, 100
4, 46368, Note_on_c, 2, 69, 127
4, 46412, Note_off_c, 2, 69, 100
4, 46416, Note_on_c, 2, 67, 127
4, 46460, Note_off_c, 2, 67, 100
4, 46512, Note_on_c, 2, 67, 127
4, 46556, Note_off_c, 2, 67, 100
4, 46560, Note_on_c, 2, 69, 127
4, 46604, Note_off_c, 2, 69, 100
4, 46608, Note_on_c, 2, 67, 127
4, 46652, Note_off_c, 2, 67, 100
4, 46656, Note_on_c, 2, 69, 127
4, 46700, Note_off_c, 2, 69, 100
4, 46704, Note_on_c, 2, 67, 127
4, 46748, Note_off_c, 2, 67, 100
4, 46752, Note_on_c, 2, 69, 127
4, 46796, Note_off_c, 2, 69, 100
4, 46800, Note_on_c, 2, 67, 127
4, 46844, Note_off_c, 2, 67, 100
4, 46896, Note_on_c, 2, 67, 127
4, 46940, Note_off_c, 2, 67, 100
4, 46944, Note_on_c, 2, 69, 127
4, 46988, Note_off_c, 2, 69, 100
4, 46992, Note_on_c, 2, 67, 127
4, 47036, Note_off_c, 2, 67, 100
4, 47040, Note_on_c, 2, 69, 127
4, 47084, Note_off_c, 2, 69, 100
4, 47088, Note_on_c, 2, 67, 127
4, 47132, Note_off_c, 2, 67, 100
4, 47136, Note_on_c, 2, 69, 127
4, 47180, Note_off_c, 2, 69, 100
4, 47184, Note_on_c, 2, 67, 127
4, 47228, Note_off_c, 2, 67, 100
4, 47280, Note_on_c, 2, 67, 127
4, 47324, Note_off_c, 2, 67, 100
4, 47328, Note_on_c, 2, 69, 127
4, 47372, Note_off_c, 2, 69, 100
4, 47376, Note_on_c, 2, 67, 127
4, 47420, Note_off_c, 2, 67, 100
4, 47424, Note_on_c, 2, 69, 127
4, 47468, Note_off_c, 2, 69, 100
4, 47472, Note_on_c, 2, 67, 127
4, 47516, Note_off_c, 2, 67, 100
4, 47520, Note_on_c, 2, 69, 127
4, 47564, Note_off_c, 2, 69, 100
4, 47568, Note_on_c, 2, 67, 127
4, 47612, Note_off_c, 2, 67, 100
4, 47664, Note_on_c, 2, 67, 127
4, 47708, Note_off_c, 2, 67, 100
4, 47712, Note_on_c, 2, 69, 127
4, 47756, Note_off_c, 2, 69, 100
4, 47760, Note_on_c, 2, 67, 127
4, 47804, Note_off_c, 2, 67, 100
4, 47808, Note_on_c, 2, 69, 127
4, 47852, Note_off_c, 2, 69, 100
4, 47856, Note_on_c, 2, 67, 127
4, 47900, Note_off_c, 2, 67, 100
4, 47904, Note_on_c, 2, 69, 127
4, 47948, Note_off_c, 2, 69, 100
4, 47952, Note_on_c, 2, 67, 127
4, 47996, Note_off_c, 2, 67, 100
4, 48048, Note_on_c, 2, 67, 127
4, 48092, Note_off_c, 2, 67, 100
4, 48096, Note_on_c, 2, 69, 127
4, 48140, Note_off_c, 2, 69, 100
4, 48144, Note_on_c, 2, 67, 127
4, 48188, Note_off_c, 2, 67, 100
4, 48192, Note_on_c, 2, 69, 127
4, 48236, Note_off_c, 2, 69, 100
4, 48240, Note_on_c, 2, 67, 127
4, 48284, Note_off_c, 2, 67, 100
4, 48288, Note_on_c, 2, 69, 127
4, 48332, Note_off_c, 2, 69, 100
4, 48336, Note_on_c, 2, 67, 127
4, 48380, Note_off_c, 2, 67, 100
4, 48576, Note_on_c, 2, 76, 127
4, 48636, Note_off_c, 2, 76, 100
4, 48768, Note_on_c, 2, 77, 127
4, 48828, Note_off_c, 2, 77, 100
4, 48960, Note_on_c, 2, 78, 127
4, 49020, Note_off_c, 2, 78, 100
4, 49152, Note_on_c, 2, 79, 127
4, 49212, Note_off_c, 2, 79, 100
4, 49728, Note_on_c, 2, 78, 127
4, 49788, Note_off_c, 2, 78, 100
4, 49920, Note_on_c, 2, 79, 127
4, 49980, Note_off_c, 2, 79, 100
4, 50112, Note_on_c, 2, 80, 127
4, 50172, Note_off_c, 2, 80, 100
4, 50304, Note_on_c, 2, 81, 127
4, 50364, Note_off_c, 2, 81, 100
4, 50688, Note_on_c, 2, 55, 127
4, 50748, Note_off_c, 2, 55, 100
4, 51888, Note_on_c, 2, 60, 127
4, 51932, Note_off_c, 2, 60, 100
4, 51936, Note_on_c, 2, 62, 127
4, 51980, Note_off_c, 2, 62, 100
4, 51984, Note_on_c, 2, 60, 127
4, 52028, Note_off_c, 2, 60, 100
4, 52032, Note_on_c, 2, 62, 127
4, 52076, Note_off_c, 2, 62, 100
4, 52080, Note_on_c, 2, 60, 127
4, 52124, Note_off_c, 2, 60, 100
4, 52128, Note_on_c, 2, 62, 127
4, 52172, Note_off_c, 2, 62, 100
4, 52176, Note_on_c, 2, 60, 127
4, 52220, Note_off_c, 2, 60, 100
4, 52272, Note_on_c, 2, 59, 127
4, 52316, Note_off_c, 2, 59, 100
4, 52320, Note_on_c, 2, 60, 127
4, 52364, Note_off_c, 2, 60, 100
4, 52368, Note_on_c, 2, 59, 127
4, 52412, Note_off_c, 2, 59, 100
4, 52416, Note_on_c, 2, 60, 127
4, 52460, Note_off_c, 2, 60, 100
4, 52464, Note_on_c, 2, 59, 127
4, 52508, Note_off_c, 2, 59, 100
4, 52512, Note_on_c, 2, 60, 127
4, 52556, Note_off_c, 2, 60, 100
4, 52560, Note_on_c, 2, 59, 127
4, 52604, Note_off_c, 2, 59, 100
4, 52656, Note_on_c, 2, 58, 127
4, 52700, Note_off_c, 2, 58, 100
4, 52704, Note_on_c, 2, 60, 127
4, 52748, Note_off_c, 2, 60, 100
4, 52752, Note_on_c, 2, 58, 127
4, 52796, Note_off_c, 2, 58, 100
4, 52800, Note_on_c, 2, 60, 127
4, 52844, Note_off_c, 2, 60, 100
4, 52848, Note_on_c, 2, 58, 127
4, 52892, Note_off_c, 2, 58, 100
4, 52896, Note_on_c, 2, 60, 127
4, 52940, Note_off_c, 2, 60, 100
4, 52944, Note_on_c, 2, 58, 127
4, 52988, Note_off_c, 2, 58, 100
4, 53088, Note_on_c, 2, 62, 127
4, 53160, Note_off_c, 2, 62, 100
4, 53184, Note_on_c, 2, 60, 127
4, 53256, Note_off_c, 2, 60, 100
4, 53280, Note_on_c, 2, 62, 127
4, 53352, Note_off_c, 2, 62, 100
4, 53376, Note_on_c, 2, 59, 127
4, 53448, Note_off_c, 2, 59, 100
4, 53472, Note_on_c, 2, 55, 127
4, 53544, Note_off_c, 2, 55, 100
4, 53568, Note_on_c, 2, 54, 127
4, 53640, Note_off_c, 2, 54, 100
4, 53664, Note_on_c, 2, 55, 127
4, 53736, Note_off_c, 2, 55, 100
4, 53760, Note_on_c, 2, 50, 127
4, 53832, Note_off_c, 2, 50, 100
4, 53856, Note_on_c, 2, 54, 127
4, 53928, Note_off_c, 2, 54, 100
4, 53952, Note_on_c, 2, 57, 127
4, 54024, Note_off_c, 2, 57, 100
4, 54048, Note_on_c, 2, 60, 127
4, 54120, Note_off_c, 2, 60, 100
4, 54144, Note_on_c, 2, 59, 127
4, 54216, Note_off_c, 2, 59, 100
4, 55296, Note_on_c, 2, 62, 127
4, 55356, Note_off_c, 2, 62, 100
4, 55872, Note_on_c, 2, 60, 127
4, 55932, Note_off_c, 2, 60, 100
4, 56256, Note_on_c, 2, 66, 127
4, 56316, Note_off_c, 2, 66, 100
4, 56448, Note_on_c, 2, 67, 127
4, 56508, Note_off_c, 2, 67, 100
4, 57024, Note_on_c, 2, 66, 127
4, 57084, Note_off_c, 2, 66, 100
4, 57408, Note_on_c, 2, 71, 127
4, 57468, Note_off_c, 2, 71, 100
4, 59952, Note_on_c, 2, 64, 127
4, 59996, Note_off_c, 2, 64, 100
4, 60000, Note_on_c, 2, 66, 127
4, 60044, Note_off_c, 2, 66, 100
4, 60048, Note_on_c, 2, 64, 127
4, 60092, Note_off_c, 2, 64, 100
4, 60096, Note_on_c, 2, 66, 127
4, 60140, Note_off_c, 2, 66, 100
4, 60144, Note_on_c, 2, 64, 127
4, 60188, Note_off_c, 2, 64, 100
4, 60192, Note_on_c, 2, 66, 127
4, 60236, Note_off_c, 2, 66, 100
4, 60240, Note_on_c, 2, 64, 127
4, 60284, Note_off_c, 2, 64, 100
4, 60336, Note_on_c, 2, 64, 127
4, 60380, Note_off_c, 2, 64, 100
4, 60384, Note_on_c, 2, 66, 127
4, 60428, Note_off_c, 2, 66, 100
4, 60432, Note_on_c, 2, 64, 127
4, 60476, Note_off_c, 2, 64, 100
4, 60480, Note_on_c, 2, 66, 127
4, 60524, Note_off_c, 2, 66, 100
4, 60528, Note_on_c, 2, 64, 127
4, 60572, Note_off_c, 2, 64, 100
4, 60576, Note_on_c, 2, 66, 127
4, 60620, Note_off_c, 2, 66, 100
4, 60624, Note_on_c, 2, 64, 127
4, 60668, Note_off_c, 2, 64, 100
4, 60720, Note_on_c, 2, 64, 127
4, 60764, Note_off_c, 2, 64, 100
4, 60768, Note_on_c, 2, 66, 127
4, 60812, Note_off_c, 2, 66, 100
4, 60816, Note_on_c, 2, 64, 127
4, 60860, Note_off_c, 2, 64, 100
4, 60864, Note_on_c, 2, 66, 127
4, 60908, Note_off_c, 2, 66, 100
4, 60912, Note_on_c, 2, 64, 127
4, 60956, Note_off_c, 2, 64, 100
4, 60960, Note_on_c, 2, 66, 127
4, 61004, Note_off_c, 2, 66, 100
4, 61008, Note_on_c, 2, 64, 127
4, 61052, Note_off_c, 2, 64, 100
4, 61104, Note_on_c, 2, 64, 127
4, 61148, Note_off_c, 2, 64, 100
4, 61152, Note_on_c, 2, 66, 127
4, 61196, Note_off_c, 2, 66, 100
4, 61200, Note_on_c, 2, 64, 127
4, 61244, Note_off_c, 2, 64, 100
4, 61248, Note_on_c, 2, 66, 127
4, 61292, Note_off_c, 2, 66, 100
4, 61296, Note_on_c, 2, 64, 127
4, 61340, Note_off_c, 2, 64, 100
4, 61344, Note_on_c, 2, 66, 127
4, 61388, Note_off_c, 2, 66, 100
4, 61392, Note_on_c, 2, 64, 127
4, 61436, Note_off_c, 2, 64, 100
4, 61488, Note_on_c, 2, 64, 127
4, 61532, Note_off_c, 2, 64, 100
4, 61536, Note_on_c, 2, 66, 127
4, 61580, Note_off_c, 2, 66, 100
4, 61584, Note_on_c, 2, 64, 127
4, 61628, Note_off_c, 2, 64, 100
4, 61632, Note_on_c, 2, 66, 127
4, 61676, Note_off_c, 2, 66, 100
4, 61680, Note_on_c, 2, 64, 127
4, 61724, Note_off_c, 2, 64, 100
4, 61728, Note_on_c, 2, 66, 127
4, 61772, Note_off_c, 2, 66, 100
4, 61776, Note_on_c, 2, 64, 127
4, 61820, Note_off_c, 2, 64, 100
4, 61872, Note_on_c, 2, 64, 127
4, 61916, Note_off_c, 2, 64, 100
4, 61920, Note_on_c, 2, 66, 127
4, 61964, Note_off_c, 2, 66, 100
4, 61968, Note_on_c, 2, 64, 127
4, 62012, Note_off_c, 2, 64, 100
4, 62016, Note_on_c, 2, 66, 127
4, 62060, Note_off_c, 2, 66, 100
4, 62064, Note_on_c, 2, 64, 127
4, 62108, Note_off_c, 2, 64, 100
4, 62112, Note_on_c, 2, 66, 127
4, 62156, Note_off_c, 2, 66, 100
4, 62160, Note_on_c, 2, 64, 127
4, 62204, Note_off_c, 2, 64, 100
4, 62256, Note_on_c, 2, 64, 127
4, 62300, Note_off_c, 2, 64, 100
4, 62304, Note_on_c, 2, 66, 127
4, 62348, Note_off_c, 2, 66, 100
4, 62352, Note_on_c, 2, 64, 127
4, 62396, Note_off_c, 2, 64, 100
4, 62400, Note_on_c, 2, 66, 127
4, 62444, Note_off_c, 2, 66, 100
4, 62448, Note_on_c, 2, 64, 127
4, 62492, Note_off_c, 2, 64, 100
4, 62496, Note_on_c, 2, 66, 127
4, 62540, Note_off_c, 2, 66, 100
4, 62544, Note_on_c, 2, 64, 127
4, 62588, Note_off_c, 2, 64, 100
4, 62640, Note_on_c, 2, 64, 127
4, 62684, Note_off_c, 2, 64, 100
4, 62688, Note_on_c, 2, 66, 127
4, 62732, Note_off_c, 2, 66, 100
4, 62736, Note_on_c, 2, 64, 127
4, 62780, Note_off_c, 2, 64, 100
4, 62784, Note_on_c, 2, 66, 127
4, 62828, Note_off_c, 2, 66, 100
4, 62832, Note_on_c, 2, 64, 127
4, 62876, Note_off_c, 2, 64, 100
4, 62880, Note_on_c, 2, 66, 127
4, 62924, Note_off_c, 2, 66, 100
4, 62928, Note_on_c, 2, 64, 127
4, 62972, Note_off_c, 2, 64, 100
4, 63024, Note_on_c, 2, 63, 127
4, 63068, Note_off_c, 2, 63, 100
4, 63072, Note_on_c, 2, 64, 127
4, 63116, Note_off_c, 2, 64, 100
4, 63120, Note_on_c, 2, 63, 127
4, 63164, Note_off_c, 2, 63, 100
4, 63168, Note_on_c, 2, 64, 127
4, 63212, Note_off_c, 2, 64, 100
4, 63216, Note_on_c, 2, 63, 127
4, 63260, Note_off_c, 2, 63, 100
4, 63264, Note_on_c, 2, 64, 127
4, 63308, Note_off_c, 2, 64, 100
4, 63312, Note_on_c, 2, 63, 127
4, 63356, Note_off_c, 2, 63, 100
4, 63456, Note_on_c, 2, 64, 127
4, 63528, Note_off_c, 2, 64, 100
4, 63552, Note_on_c, 2, 63, 127
4, 63624, Note_off_c, 2, 63, 100
4, 63648, Note_on_c, 2, 64, 127
4, 63720, Note_off_c, 2, 64, 100
4, 63744, Note_on_c, 2, 59, 127
4, 63816, Note_off_c, 2, 59, 100
4, 64560, Note_on_c, 2, 67, 127
4, 64604, Note_off_c, 2, 67, 100
4, 64608, Note_on_c, 2, 69, 127
4, 64652, Note_off_c, 2, 69, 100
4, 64656, Note_on_c, 2, 67, 127
4, 64700, Note_off_c, 2, 67, 100
4, 64704, Note_on_c, 2, 69, 127
4, 64748, Note_off_c, 2, 69, 100
4, 64752, Note_on_c, 2, 67, 127
4, 64796, Note_off_c, 2, 67, 100
4, 64800, Note_on_c, 2, 69, 127
4, 64844, Note_off_c, 2, 69, 100
4, 64848, Note_on_c, 2, 67, 127
4, 64892, Note_off_c, 2, 67, 100
4, 64944, Note_on_c, 2, 67, 127
4, 64988, Note_off_c, 2, 67, 100
4, 64992, Note_on_c, 2, 69, 127
4, 65036, Note_off_c, 2, 69, 100
4, 65040, Note_on_c, 2, 67, 127
4, 65084, Note_off_c, 2, 67, 100
4, 65088, Note_on_c, 2, 69, 127
4, 65132, Note_off_c, 2, 69, 100
4, 65136, Note_on_c, 2, 67, 127
4, 65180, Note_off_c, 2, 67, 100
4, 65184, Note_on_c, 2, 69, 127
4, 65228, Note_off_c, 2, 69, 100
4, 65232, Note_on_c, 2, 67, 127
4, 65276, Note_off_c, 2, 67, 100
4, 65328, Note_on_c, 2, 67, 127
4, 65372, Note_off_c, 2, 67, 100
4, 65376, Note_on_c, 2, 69, 127
4, 65420, Note_off_c, 2, 69, 100
4, 65424, Note_on_c, 2, 67, 127
4, 65468, Note_off_c, 2, 67, 100
4, 65472, Note_on_c, 2, 69, 127
4, 65516, Note_off_c, 2, 69, 100
4, 65520, Note_on_c, 2, 67, 127
4, 65564, Note_off_c, 2, 67, 100
4, 65568, Note_on_c, 2, 69, 127
4, 65612, Note_off_c, 2, 69, 100
4, 65616, Note_on_c, 2, 67, 127
4, 65660, Note_off_c, 2, 67, 100
4, 65712, Note_on_c, 2, 67, 127
4, 65756, Note_off_c, 2, 67, 100
4, 65760, Note_on_c, 2, 69, 127
4, 65804, Note_off_c, 2, 69, 100
4, 65808, Note_on_c, 2, 67, 127
4, 65852, Note_off_c, 2, 67, 100
4, 65856, Note_on_c, 2, 69, 127
4, 65900, Note_off_c, 2, 69, 100
4, 65904, Note_on_c, 2, 67, 127
4, 65948, Note_off_c, 2, 67, 100
4, 65952, Note_on_c, 2, 69, 127
4, 65996, Note_off_c, 2, 69, 100
4, 66000, Note_on_c, 2, 67, 127
4, 66044, Note_off_c, 2, 67, 100
4, 66096, Note_on_c, 2, 67, 127
4, 66140, Note_off_c, 2, 67, 100
4, 66144, Note_on_c, 2, 69, 127
4, 66188, Note_off_c, 2, 69, 100
4, 66192, Note_on_c, 2, 67, 127
4, 66236, Note_off_c, 2, 67, 100
4, 66240, Note_on_c, 2, 69, 127
4, 66284, Note_off_c, 2, 69, 100
4, 66288, Note_on_c, 2, 67, 127
4, 66332, Note_off_c, 2, 67, 100
4, 66336, Note_on_c, 2, 69, 127
4, 66380, Note_off_c, 2, 69, 100
4, 66384, Note_on_c, 2, 67, 127
4, 66428, Note_off_c, 2, 67, 100
4, 66480, Note_on_c, 2, 67, 127
4, 66524, Note_off_c, 2, 67, 100
4, 66528, Note_on_c, 2, 69, 127
4, 66572, Note_off_c, 2, 69, 100
4, 66576, Note_on_c, 2, 67, 127
4, 66620, Note_off_c, 2, 67, 100
4, 66624, Note_on_c, 2, 69, 127
4, 66668, Note_off_c, 2, 69, 100
4, 66672, Note_on_c, 2, 67, 127
4, 66716, Note_off_c, 2, 67, 100
4, 66720, Note_on_c, 2, 69, 127
4, 66764, Note_off_c, 2, 69, 100
4, 66768, Note_on_c, 2, 67, 127
4, 66812, Note_off_c, 2, 67, 100
4, 67008, Note_on_c, 2, 76, 127
4, 67068, Note_off_c, 2, 76, 100
4, 67200, Note_on_c, 2, 77, 127
4, 67260, Note_off_c, 2, 77, 100
4, 67392, Note_on_c, 2, 78, 127
4, 67452, Note_off_c, 2, 78, 100
4, 67584, Note_on_c, 2, 79, 127
4, 67644, Note_off_c, 2, 79, 100
4, 68160, Note_on_c, 2, 78, 127
4, 68220, Note_off_c, 2, 78, 100
4, 68352, Note_on_c, 2, 79, 127
4, 68412, Note_off_c, 2, 79, 100
4, 68544, Note_on_c, 2, 80, 127
4, 68604, Note_off_c, 2, 80, 100
4, 68736, Note_on_c, 2, 81, 127
4, 68796, Note_off_c, 2, 81, 100
4, 69120, Note_on_c, 2, 55, 127
4, 69180, Note_off_c, 2, 55, 100
4, 70320, Note_on_c, 2, 60, 127
4, 70364, Note_off_c, 2, 60, 100
4, 70368, Note_on_c, 2, 62, 127
4, 70412, Note_off_c, 2, 62, 100
4, 70416, Note_on_c, 2, 60, 127
4, 70460, Note_off_c, 2, 60, 100
4, 70464, Note_on_c, 2, 62, 127
4, 70508, Note_off_c, 2, 62, 100
4, 70512, Note_on_c, 2, 60, 127
4, 70556, Note_off_c, 2, 60, 100
4, 70560, Note_on_c, 2, 62, 127
4, 70604, Note_off_c, 2, 62, 100
4, 70608, Note_on_c, 2, 60, 127
4, 70652, Note_off_c, 2, 60, 100
4, 70704, Note_on_c, 2, 59, 127
4, 70748, Note_off_c, 2, 59, 100
4, 70752, Note_on_c, 2, 60, 127
4, 70796, Note_off_c, 2, 60, 100
4, 70800, Note_on_c, 2, 59, 127
4, 70844, Note_off_c, 2, 59, 100
4, 70848, Note_on_c, 2, 60, 127
4, 70892, Note_off_c, 2, 60, 100
4, 70896, Note_on_c, 2, 59, 127
4, 70940, Note_off_c, 2, 59, 100
4, 70944, Note_on_c, 2, 60, 127
4, 70988, Note_off_c, 2, 60, 100
4, 70992, Note_on_c, 2, 59, 127
4, 71036, Note_off_c, 2, 59, 100
4, 71088, Note_on_c, 2, 58, 127
4, 71132, Note_off_c, 2, 58, 100
4, 71136, Note_on_c, 2, 60, 127
4, 71180, Note_off_c, 2, 60, 100
4, 71184, Note_on_c, 2, 58, 127
4, 71228, Note_off_c, 2, 58, 100
4, 71232, Note_on_c, 2, 60, 127
4, 71276, Note_off_c, 2, 60, 100
4, 71280, Note_on_c, 2, 58, 127
4, 71324, Note_off_c, 2, 58, 100
4, 71328, Note_on_c, 2, 60, 127
4, 71372, Note_off_c, 2, 60, 100
4, 71376, Note_on_c, 2, 58, 127
4, 71420, Note_off_c, 2, 58, 100
4, 71520, Note_on_c, 2, 62, 127
4, 71592, Note_off_c, 2, 62, 100
4, 71616, Note_on_c, 2, 60, 127
4, 71688, Note_off_c, 2, 60, 100
4, 71712, Note_on_c, 2, 62, 127
4, 71784, Note_off_c, 2, 62, 100
4, 71808, Note_on_c, 2, 59, 127
4, 71880, Note_off_c, 2, 59, 100
4, 71904, Note_on_c, 2, 55, 127
4, 71976, Note_off_c, 2, 55, 100
4, 72000, Note_on_c, 2, 54, 127
4, 72072, Note_off_c, 2, 54, 100
4, 72096, Note_on_c, 2, 55, 127
4, 72168, Note_off_c, 2, 55, 100
4, 72192, Note_on_c, 2, 50, 127
4, 72264, Note_off_c, 2, 50, 100
4, 72288, Note_on_c, 2, 54, 127
4, 72360, Note_off_c, 2, 54, 100
4, 72384, Note_on_c, 2, 57, 127
4, 72456, Note_off_c, 2, 57, 100
4, 72480, Note_on_c, 2, 60, 127
4, 72552, Note_off_c, 2, 60, 100
4, 72576, Note_on_c, 2, 59, 127
4, 72648, Note_off_c, 2, 59, 100
4, 72648, End_track
5, 0, Start_track
5, 0, Title_t, "Var.XXVIII: Andante brillante"
5, 0, Control_c, 3, 0, 0
5, 0, Program_c, 3, 6
5, 0, Control_c, 3, 7, 127
5, 0, Control_c, 3, 10, 127
5, 0, Control_c, 3, 91, 127
5, 0, Key_signature, 1, "major"
5, 0, Note_on_c, 3, 55, 127
5, 60, Note_off_c, 3, 55, 100
5, 576, Note_on_c, 3, 54, 127
5, 636, Note_off_c, 3, 54, 100
5, 768, Note_on_c, 3, 52, 127
5, 828, Note_off_c, 3, 52, 100
5, 1152, Note_on_c, 3, 54, 127
5, 1212, Note_off_c, 3, 54, 100
5, 1728, Note_on_c, 3, 52, 127
5, 1788, Note_off_c, 3, 52, 100
5, 1920, Note_on_c, 3, 50, 127
5, 1980, Note_off_c, 3, 50, 100
5, 2304, Note_on_c, 3, 52, 127
5, 2364, Note_off_c, 3, 52, 100
5, 2880, Note_on_c, 3, 55, 127
5, 2940, Note_off_c, 3, 55, 100
5, 3072, Note_on_c, 3, 57, 127
5, 3132, Note_off_c, 3, 57, 100
5, 3456, Note_on_c, 3, 50, 127
5, 3516, Note_off_c, 3, 50, 100
5, 4032, Note_on_c, 3, 55, 127
5, 4092, Note_off_c, 3, 55, 100
5, 4224, Note_on_c, 3, 54, 127
5, 4284, Note_off_c, 3, 54, 100
5, 4608, Note_on_c, 3, 59, 127
5, 4636, Note_off_c, 3, 59, 100
5, 4992, Note_on_c, 3, 60, 127
5, 5020, Note_off_c, 3, 60, 100
5, 5376, Note_on_c, 3, 62, 127
5, 5404, Note_off_c, 3, 62, 100
5, 5760, Note_on_c, 3, 60, 127
5, 5788, Note_off_c, 3, 60, 100
5, 6144, Note_on_c, 3, 62, 127
5, 6172, Note_off_c, 3, 62, 100
5, 6528, Note_on_c, 3, 64, 127
5, 6556, Note_off_c, 3, 64, 100
5, 6912, Note_on_c, 3, 62, 127
5, 6940, Note_off_c, 3, 62, 100
5, 7296, Note_on_c, 3, 64, 127
5, 7324, Note_off_c, 3, 64, 100
5, 7680, Note_on_c, 3, 57, 127
5, 7708, Note_off_c, 3, 57, 100
5, 8064, Note_on_c, 3, 59, 127
5, 8092, Note_off_c, 3, 59, 100
5, 8448, Note_on_c, 3, 60, 127
5, 8476, Note_off_c, 3, 60, 100
5, 8832, Note_on_c, 3, 62, 127
5, 8860, Note_off_c, 3, 62, 100
5, 9216, Note_on_c, 3, 55, 127
5, 9288, Note_off_c, 3, 55, 100
5, 9312, Note_on_c, 3, 59, 127
5, 9384, Note_off_c, 3, 59, 100
5, 9408, Note_on_c, 3, 57, 127
5, 9480, Note_off_c, 3, 57, 100
5, 9504, Note_on_c, 3, 59, 127
5, 9576, Note_off_c, 3, 59, 100
5, 9600, Note_on_c, 3, 64, 127
5, 9672, Note_off_c, 3, 64, 100
5, 9696, Note_on_c, 3, 67, 127
5, 9768, Note_off_c, 3, 67, 100
5, 9792, Note_on_c, 3, 66, 127
5, 9864, Note_off_c, 3, 66, 100
5, 9888, Note_on_c, 3, 67, 127
5, 9960, Note_off_c, 3, 67, 100
5, 9984, Note_on_c, 3, 71, 127
5, 10056, Note_off_c, 3, 71, 100
5, 10080, Note_on_c, 3, 67, 127
5, 10152, Note_off_c, 3, 67, 100
5, 10176, Note_on_c, 3, 64, 127
5, 10248, Note_off_c, 3, 64, 100
5, 10272, Note_on_c, 3, 61, 127
5, 10344, Note_off_c, 3, 61, 100
5, 10368, Note_on_c, 3, 54, 127
5, 10440, Note_off_c, 3, 54, 100
5, 10464, Note_on_c, 3, 57, 127
5, 10536, Note_off_c, 3, 57, 100
5, 10560, Note_on_c, 3, 55, 127
5, 10632, Note_off_c, 3, 55, 100
5, 10656, Note_on_c, 3, 57, 127
5, 10728, Note_off_c, 3, 57, 100
5, 10752, Note_on_c, 3, 62, 127
5, 10824, Note_off_c, 3, 62, 100
5, 10848, Note_on_c, 3, 66, 127
5, 10920, Note_off_c, 3, 66, 100
5, 10944, Note_on_c, 3, 64, 127
5, 11016, Note_off_c, 3, 64, 100
5, 11040, Note_on_c, 3, 66, 127
5, 11112, Note_off_c, 3, 66, 100
5, 11136, Note_on_c, 3, 69, 127
5, 11208, Note_off_c, 3, 69, 100
5, 11232, Note_on_c, 3, 66, 127
5, 11304, Note_off_c, 3, 66, 100
5, 11328, Note_on_c, 3, 62, 127
5, 11400, Note_off_c, 3, 62, 100
5, 11424, Note_on_c, 3, 59, 127
5, 11496, Note_off_c, 3, 59, 100
5, 11520, Note_on_c, 3, 52, 127
5, 11592, Note_off_c, 3, 52, 100
5, 11616, Note_on_c, 3, 55, 127
5, 11688, Note_off_c, 3, 55, 100
5, 11712, Note_on_c, 3, 54, 127
5, 11784, Note_off_c, 3, 54, 100
5, 11808, Note_on_c, 3, 55, 127
5, 11880, Note_off_c, 3, 55, 100
5, 11904, Note_on_c, 3, 59, 127
5, 11976, Note_off_c, 3, 59, 100
5, 12000, Note_on_c, 3, 64, 127
5, 12072, Note_off_c, 3, 64, 100
5, 12096, Note_on_c, 3, 63, 127
5, 12168, Note_off_c, 3, 63, 100
5, 12192, Note_on_c, 3, 64, 127
5, 12264, Note_off_c, 3, 64, 100
5, 12288, Note_on_c, 3, 67, 127
5, 12360, Note_off_c, 3, 67, 100
5, 12384, Note_on_c, 3, 64, 127
5, 12456, Note_off_c, 3, 64, 100
5, 12480, Note_on_c, 3, 59, 127
5, 12552, Note_off_c, 3, 59, 100
5, 12576, Note_on_c, 3, 55, 127
5, 12648, Note_off_c, 3, 55, 100
5, 12672, Note_on_c, 3, 57, 127
5, 12744, Note_off_c, 3, 57, 100
5, 12768, Note_on_c, 3, 64, 127
5, 12840, Note_off_c, 3, 64, 100
5, 12864, Note_on_c, 3, 62, 127
5, 12936, Note_off_c, 3, 62, 100
5, 12960, Note_on_c, 3, 64, 127
5, 13032, Note_off_c, 3, 64, 100
5, 13056, Note_on_c, 3, 67, 127
5, 13128, Note_off_c, 3, 67, 100
5, 13152, Note_on_c, 3, 69, 127
5, 13224, Note_off_c, 3, 69, 100
5, 13248, Note_on_c, 3, 67, 127
5, 13320, Note_off_c, 3, 67, 100
5, 13344, Note_on_c, 3, 69, 127
5, 13416, Note_off_c, 3, 69, 100
5, 13440, Note_on_c, 3, 67, 127
5, 13512, Note_off_c, 3, 67, 100
5, 13536, Note_on_c, 3, 64, 127
5, 13608, Note_off_c, 3, 64, 100
5, 13632, Note_on_c, 3, 61, 127
5, 13704, Note_off_c, 3, 61, 100
5, 13728, Note_on_c, 3, 57, 127
5, 13800, Note_off_c, 3, 57, 100
5, 13824, Note_on_c, 3, 50, 127
5, 13852, Note_off_c, 3, 50, 100
5, 14208, Note_on_c, 3, 47, 127
5, 14236, Note_off_c, 3, 47, 100
5, 14592, Note_on_c, 3, 45, 127
5, 14620, Note_off_c, 3, 45, 100
5, 14976, Note_on_c, 3, 43, 127
5, 15004, Note_off_c, 3, 43, 100
5, 15360, Note_on_c, 3, 45, 127
5, 15388, Note_off_c, 3, 45, 100
5, 15744, Note_on_c, 3, 47, 127
5, 15772, Note_off_c, 3, 47, 100
5, 16128, Note_on_c, 3, 45, 127
5, 16156, Note_off_c, 3, 45, 100
5, 16512, Note_on_c, 3, 43, 127
5, 16540, Note_off_c, 3, 43, 100
5, 16896, Note_on_c, 3, 45, 127
5, 16924, Note_off_c, 3, 45, 100
5, 17280, Note_on_c, 3, 38, 127
5, 17308, Note_off_c, 3, 38, 100
5, 17376, Note_on_c, 3, 42, 127
5, 17468, Note_off_c, 3, 42, 100
5, 17472, Note_on_c, 3, 40, 127
5, 17564, Note_off_c, 3, 40, 100
5, 17568, Note_on_c, 3, 42, 127
5, 17660, Note_off_c, 3, 42, 100
5, 17664, Note_on_c, 3, 45, 127
5, 17692, Note_off_c, 3, 45, 100
5, 17760, Note_on_c, 3, 50, 127
5, 17852, Note_off_c, 3, 50, 100
5, 17856, Note_on_c, 3, 49, 127
5, 17948, Note_off_c, 3, 49, 100
5, 17952, Note_on_c, 3, 50, 127
5, 18016, Note_off_c, 3, 50, 100
5, 18048, Note_on_c, 3, 54, 127
5, 18304, Note_off_c, 3, 54, 100
5, 18432, Note_on_c, 3, 55, 127
5, 18492, Note_off_c, 3, 55, 100
5, 19008, Note_on_c, 3, 54, 127
5, 19068, Note_off_c, 3, 54, 100
5, 19200, Note_on_c, 3, 52, 127
5, 19260, Note_off_c, 3, 52, 100
5, 19584, Note_on_c, 3, 54, 127
5, 19644, Note_off_c, 3, 54, 100
5, 20160, Note_on_c, 3, 52, 127
5, 20220, Note_off_c, 3, 52, 100
5, 20352, Note_on_c, 3, 50, 127
5, 20412, Note_off_c, 3, 50, 100
5, 20736, Note_on_c, 3, 52, 127
5, 20796, Note_off_c, 3, 52, 100
5, 21312, Note_on_c, 3, 55, 127
5, 21372, Note_off_c, 3, 55, 100
5, 21504, Note_on_c, 3, 57, 127
5, 21564, Note_off_c, 3, 57, 100
5, 21888, Note_on_c, 3, 50, 127
5, 21948, Note_off_c, 3, 50, 100
5, 22464, Note_on_c, 3, 55, 127
5, 22524, Note_off_c, 3, 55, 100
5, 22656, Note_on_c, 3, 54, 127
5, 22716, Note_off_c, 3, 54, 100
5, 23040, Note_on_c, 3, 59, 127
5, 23068, Note_off_c, 3, 59, 100
5, 23424, Note_on_c, 3, 60, 127
5, 23452, Note_off_c, 3, 60, 100
5, 23808, Note_on_c, 3, 62, 127
5, 23836, Note_off_c, 3, 62, 100
5, 24192, Note_on_c, 3, 60, 127
5, 24220, Note_off_c, 3, 60, 100
5, 24576, Note_on_c, 3, 62, 127
5, 24604, Note_off_c, 3, 62, 100
5, 24960, Note_on_c, 3, 64, 127
5, 24988, Note_off_c, 3, 64, 100
5, 25344, Note_on_c, 3, 62, 127
5, 25372, Note_off_c, 3, 62, 100
5, 25728, Note_on_c, 3, 64, 127
5, 25756, Note_off_c, 3, 64, 100
5, 26112, Note_on_c, 3, 57, 127
5, 26140, Note_off_c, 3, 57, 100
5, 26496, Note_on_c, 3, 59, 127
5, 26524, Note_off_c, 3, 59, 100
5, 26880, Note_on_c, 3, 60, 127
5, 26908, Note_off_c, 3, 60, 100
5, 27264, Note_on_c, 3, 62, 127
5, 27292, Note_off_c, 3, 62, 100
5, 27648, Note_on_c, 3, 55, 127
5, 27720, Note_off_c, 3, 55, 100
5, 27744, Note_on_c, 3, 59, 127
5, 27816, Note_off_c, 3, 59, 100
5, 27840, Note_on_c, 3, 57, 127
5, 27912, Note_off_c, 3, 57, 100
5, 27936, Note_on_c, 3, 59, 127
5, 28008, Note_off_c, 3, 59, 100
5, 28032, Note_on_c, 3, 64, 127
5, 28104, Note_off_c, 3, 64, 100
5, 28128, Note_on_c, 3, 67, 127
5, 28200, Note_off_c, 3, 67, 100
5, 28224, Note_on_c, 3, 66, 127
5, 28296, Note_off_c, 3, 66, 100
5, 28320, Note_on_c, 3, 67, 127
5, 28392, Note_off_c, 3, 67, 100
5, 28416, Note_on_c, 3, 71, 127
5, 28488, Note_off_c, 3, 71, 100
5, 28512, Note_on_c, 3, 67, 127
5, 28584, Note_off_c, 3, 67, 100
5, 28608, Note_on_c, 3, 64, 127
5, 28680, Note_off_c, 3, 64, 100
5, 28704, Note_on_c, 3, 61, 127
5, 28776, Note_off_c, 3, 61, 100
5, 28800, Note_on_c, 3, 54, 127
5, 28872, Note_off_c, 3, 54, 100
5, 28896, Note_on_c, 3, 57, 127
5, 28968, Note_off_c, 3, 57, 100
5, 28992, Note_on_c, 3, 55, 127
5, 29064, Note_off_c, 3, 55, 100
5, 29088, Note_on_c, 3, 57, 127
5, 29160, Note_off_c, 3, 57, 100
5, 29184, Note_on_c, 3, 62, 127
5, 29256, Note_off_c, 3, 62, 100
5, 29280, Note_on_c, 3, 66, 127
5, 29352, Note_off_c, 3, 66, 100
5, 29376, Note_on_c, 3, 64, 127
5, 29448, Note_off_c, 3, 64, 100
5, 29472, Note_on_c, 3, 66, 127
5, 29544, Note_off_c, 3, 66, 100
5, 29568, Note_on_c, 3, 69, 127
5, 29640, Note_off_c, 3, 69, 100
5, 29664, Note_on_c, 3, 66, 127
5, 29736, Note_off_c, 3, 66, 100
5, 29760, Note_on_c, 3, 62, 127
5, 29832, Note_off_c, 3, 62, 100
5, 29856, Note_on_c, 3, 59, 127
5, 29928, Note_off_c, 3, 59, 100
5, 29952, Note_on_c, 3, 52, 127
5, 30024, Note_off_c, 3, 52, 100
5, 30048, Note_on_c, 3, 55, 127
5, 30120, Note_off_c, 3, 55, 100
5, 30144, Note_on_c, 3, 54, 127
5, 30216, Note_off_c, 3, 54, 100
5, 30240, Note_on_c, 3, 55, 127
5, 30312, Note_off_c, 3, 55, 100
5, 30336, Note_on_c, 3, 59, 127
5, 30408, Note_off_c, 3, 59, 100
5, 30432, Note_on_c, 3, 64, 127
5, 30504, Note_off_c, 3, 64, 100
5, 30528, Note_on_c, 3, 63, 127
5, 30600, Note_off_c, 3, 63, 100
5, 30624, Note_on_c, 3, 64, 127
5, 30696, Note_off_c, 3, 64, 100
5, 30720, Note_on_c, 3, 67, 127
5, 30792, Note_off_c, 3, 67, 100
5, 30816, Note_on_c, 3, 64, 127
5, 30888, Note_off_c, 3, 64, 100
5, 30912, Note_on_c, 3, 59, 127
5, 30984, Note_off_c, 3, 59, 100
5, 31008, Note_on_c, 3, 55, 127
5, 31080, Note_off_c, 3, 55, 100
5, 31104, Note_on_c, 3, 57, 127
5, 31176, Note_off_c, 3, 57, 100
5, 31200, Note_on_c, 3, 64, 127
5, 31272, Note_off_c, 3, 64, 100
5, 31296, Note_on_c, 3, 62, 127
5, 31368, Note_off_c, 3, 62, 100
5, 31392, Note_on_c, 3, 64, 127
5, 31464, Note_off_c, 3, 64, 100
5, 31488, Note_on_c, 3, 67, 127
5, 31560, Note_off_c, 3, 67, 100
5, 31584, Note_on_c, 3, 69, 127
5, 31656, Note_off_c, 3, 69, 100
5, 31680, Note_on_c, 3, 67, 127
5, 31752, Note_off_c, 3, 67, 100
5, 31776, Note_on_c, 3, 69, 127
5, 31848, Note_off_c, 3, 69, 100
5, 31872, Note_on_c, 3, 67, 127
5, 31944, Note_off_c, 3, 67, 100
5, 31968, Note_on_c, 3, 64, 127
5, 32040, Note_off_c, 3, 64, 100
5, 32064, Note_on_c, 3, 61, 127
5, 32136, Note_off_c, 3, 61, 100
5, 32160, Note_on_c, 3, 57, 127
5, 32232, Note_off_c, 3, 57, 100
5, 32256, Note_on_c, 3, 50, 127
5, 32284, Note_off_c, 3, 50, 100
5, 32640, Note_on_c, 3, 47, 127
5, 32668, Note_off_c, 3, 47, 100
5, 33024, Note_on_c, 3, 45, 127
5, 33052, Note_off_c, 3, 45, 100
5, 33408, Note_on_c, 3, 43, 127
5, 33436, Note_off_c, 3, 43, 100
5, 33792, Note_on_c, 3, 45, 127
5, 33820, Note_off_c, 3, 45, 100
5, 34176, Note_on_c, 3, 47, 127
5, 34204, Note_off_c, 3, 47, 100
5, 34560, Note_on_c, 3, 45, 127
5, 34588, Note_off_c, 3, 45, 100
5, 34944, Note_on_c, 3, 43, 127
5, 34972, Note_off_c, 3, 43, 100
5, 35328, Note_on_c, 3, 45, 127
5, 35356, Note_off_c, 3, 45, 100
5, 35712, Note_on_c, 3, 38, 127
5, 35740, Note_off_c, 3, 38, 100
5, 35808, Note_on_c, 3, 42, 127
5, 35900, Note_off_c, 3, 42, 100
5, 35904, Note_on_c, 3, 40, 127
5, 35996, Note_off_c, 3, 40, 100
5, 36000, Note_on_c, 3, 42, 127
5, 36092, Note_off_c, 3, 42, 100
5, 36096, Note_on_c, 3, 45, 127
5, 36124, Note_off_c, 3, 45, 100
5, 36192, Note_on_c, 3, 50, 127
5, 36284, Note_off_c, 3, 50, 100
5, 36288, Note_on_c, 3, 49, 127
5, 36380, Note_off_c, 3, 49, 100
5, 36384, Note_on_c, 3, 50, 127
5, 36448, Note_off_c, 3, 50, 100
5, 36480, Note_on_c, 3, 54, 127
5, 36736, Note_off_c, 3, 54, 100
5, 37056, Note_on_c, 3, 52, 127
5, 37116, Note_off_c, 3, 52, 100
5, 37248, Note_on_c, 3, 54, 127
5, 37308, Note_off_c, 3, 54, 100
5, 37632, Note_on_c, 3, 50, 127
5, 37692, Note_off_c, 3, 50, 100
5, 38208, Note_on_c, 3, 57, 127
5, 38268, Note_off_c, 3, 57, 100
5, 38400, Note_on_c, 3, 59, 127
5, 38460, Note_off_c, 3, 59, 100
5, 38784, Note_on_c, 3, 55, 127
5, 38844, Note_off_c, 3, 55, 100
5, 39168, Note_on_c, 3, 72, 127
5, 39240, Note_off_c, 3, 72, 100
5, 39264, Note_on_c, 3, 67, 127
5, 39336, Note_off_c, 3, 67, 100
5, 39360, Note_on_c, 3, 65, 127
5, 39432, Note_off_c, 3, 65, 100
5, 39456, Note_on_c, 3, 67, 127
5, 39528, Note_off_c, 3, 67, 100
5, 39552, Note_on_c, 3, 64, 127
5, 39624, Note_off_c, 3, 64, 100
5, 39648, Note_on_c, 3, 60, 127
5, 39720, Note_off_c, 3, 60, 100
5, 39744, Note_on_c, 3, 59, 127
5, 39816, Note_off_c, 3, 59, 100
5, 39840, Note_on_c, 3, 60, 127
5, 39912, Note_off_c, 3, 60, 100
5, 39936, Note_on_c, 3, 57, 127
5, 40008, Note_off_c, 3, 57, 100
5, 40032, Note_on_c, 3, 60, 127
5, 40104, Note_off_c, 3, 60, 100
5, 40128, Note_on_c, 3, 64, 127
5, 40200, Note_off_c, 3, 64, 100
5, 40224, Note_on_c, 3, 69, 127
5, 40296, Note_off_c, 3, 69, 100
5, 40320, Note_on_c, 3, 63, 127
5, 40392, Note_off_c, 3, 63, 100
5, 40416, Note_on_c, 3, 59, 127
5, 40488, Note_off_c, 3, 59, 100
5, 40512, Note_on_c, 3, 58, 127
5, 40584, Note_off_c, 3, 58, 100
5, 40608, Note_on_c, 3, 59, 127
5, 40680, Note_off_c, 3, 59, 100
5, 40704, Note_on_c, 3, 54, 127
5, 40776, Note_off_c, 3, 54, 100
5, 40800, Note_on_c, 3, 51, 127
5, 40872, Note_off_c, 3, 51, 100
5, 40896, Note_on_c, 3, 49, 127
5, 40968, Note_off_c, 3, 49, 100
5, 40992, Note_on_c, 3, 51, 127
5, 41064, Note_off_c, 3, 51, 100
5, 41088, Note_on_c, 3, 47, 127
5, 41160, Note_off_c, 3, 47, 100
5, 41184, Note_on_c, 3, 51, 127
5, 41256, Note_off_c, 3, 51, 100
5, 41280, Note_on_c, 3, 54, 127
5, 41352, Note_off_c, 3, 54, 100
5, 41376, Note_on_c, 3, 57, 127
5, 41448, Note_off_c, 3, 57, 100
5, 41472, Note_on_c, 3, 55, 127
5, 41500, Note_off_c, 3, 55, 100
5, 41856, Note_on_c, 3, 57, 127
5, 41884, Note_off_c, 3, 57, 100
5, 42240, Note_on_c, 3, 59, 127
5, 42268, Note_off_c, 3, 59, 100
5, 42624, Note_on_c, 3, 60, 127
5, 42652, Note_off_c, 3, 60, 100
5, 43008, Note_on_c, 3, 59, 127
5, 43036, Note_off_c, 3, 59, 100
5, 43392, Note_on_c, 3, 60, 127
5, 43420, Note_off_c, 3, 60, 100
5, 43776, Note_on_c, 3, 58, 127
5, 43804, Note_off_c, 3, 58, 100
5, 44160, Note_on_c, 3, 59, 127
5, 44188, Note_off_c, 3, 59, 100
5, 44544, Note_on_c, 3, 59, 127
5, 44572, Note_off_c, 3, 59, 100
5, 44928, Note_on_c, 3, 52, 127
5, 44956, Note_off_c, 3, 52, 100
5, 45408, Note_on_c, 3, 55, 127
5, 45480, Note_off_c, 3, 55, 100
5, 45504, Note_on_c, 3, 54, 127
5, 45576, Note_off_c, 3, 54, 100
5, 45600, Note_on_c, 3, 55, 127
5, 45672, Note_off_c, 3, 55, 100
5, 45696, Note_on_c, 3, 52, 127
5, 45768, Note_off_c, 3, 52, 100
5, 45792, Note_on_c, 3, 55, 127
5, 45864, Note_off_c, 3, 55, 100
5, 45888, Note_on_c, 3, 59, 127
5, 45960, Note_off_c, 3, 59, 100
5, 45984, Note_on_c, 3, 62, 127
5, 46056, Note_off_c, 3, 62, 100
5, 46080, Note_on_c, 3, 60, 127
5, 46108, Note_off_c, 3, 60, 100
5, 46464, Note_on_c, 3, 59, 127
5, 46492, Note_off_c, 3, 59, 100
5, 46848, Note_on_c, 3, 57, 127
5, 46876, Note_off_c, 3, 57, 100
5, 47232, Note_on_c, 3, 59, 127
5, 47260, Note_off_c, 3, 59, 100
5, 47616, Note_on_c, 3, 57, 127
5, 47644, Note_off_c, 3, 57, 100
5, 48000, Note_on_c, 3, 55, 127
5, 48028, Note_off_c, 3, 55, 100
5, 48384, Note_on_c, 3, 57, 127
5, 48444, Note_off_c, 3, 57, 100
5, 49344, Note_on_c, 3, 57, 127
5, 49404, Note_off_c, 3, 57, 100
5, 49536, Note_on_c, 3, 50, 127
5, 49596, Note_off_c, 3, 50, 100
5, 50496, Note_on_c, 3, 62, 127
5, 50556, Note_off_c, 3, 62, 100
5, 50880, Note_on_c, 3, 43, 127
5, 50940, Note_off_c, 3, 43, 100
5, 51072, Note_on_c, 3, 44, 127
5, 51132, Note_off_c, 3, 44, 100
5, 51264, Note_on_c, 3, 45, 127
5, 51324, Note_off_c, 3, 45, 100
5, 51456, Note_on_c, 3, 46, 127
5, 51516, Note_off_c, 3, 46, 100
5, 51648, Note_on_c, 3, 47, 127
5, 51708, Note_off_c, 3, 47, 100
5, 51840, Note_on_c, 3, 48, 127
5, 51868, Note_off_c, 3, 48, 100
5, 52224, Note_on_c, 3, 50, 127
5, 52252, Note_off_c, 3, 50, 100
5, 52608, Note_on_c, 3, 52, 127
5, 52636, Note_off_c, 3, 52, 100
5, 52992, Note_on_c, 3, 54, 127
5, 53020, Note_off_c, 3, 54, 100
5, 54240, Note_on_c, 3, 55, 127
5, 54312, Note_off_c, 3, 55, 100
5, 54336, Note_on_c, 3, 54, 127
5, 54408, Note_off_c, 3, 54, 100
5, 54432, Note_on_c, 3, 55, 127
5, 54504, Note_off_c, 3, 55, 100
5, 54528, Note_on_c, 3, 50, 127
5, 54600, Note_off_c, 3, 50, 100
5, 54624, Note_on_c, 3, 47, 127
5, 54696, Note_off_c, 3, 47, 100
5, 54720, Note_on_c, 3, 45, 127
5, 54792, Note_off_c, 3, 45, 100
5, 54816, Note_on_c, 3, 47, 127
5, 54888, Note_off_c, 3, 47, 100
5, 54912, Note_on_c, 3, 43, 127
5, 55168, Note_off_c, 3, 43, 100
5, 55488, Note_on_c, 3, 52, 127
5, 55548, Note_off_c, 3, 52, 100
5, 55680, Note_on_c, 3, 54, 127
5, 55740, Note_off_c, 3, 54, 100
5, 56064, Note_on_c, 3, 50, 127
5, 56124, Note_off_c, 3, 50, 100
5, 56640, Note_on_c, 3, 57, 127
5, 56700, Note_off_c, 3, 57, 100
5, 56832, Note_on_c, 3, 59, 127
5, 56892, Note_off_c, 3, 59, 100
5, 57216, Note_on_c, 3, 55, 127
5, 57276, Note_off_c, 3, 55, 100
5, 57600, Note_on_c, 3, 72, 127
5, 57672, Note_off_c, 3, 72, 100
5, 57696, Note_on_c, 3, 67, 127
5, 57768, Note_off_c, 3, 67, 100
5, 57792, Note_on_c, 3, 65, 127
5, 57864, Note_off_c, 3, 65, 100
5, 57888, Note_on_c, 3, 67, 127
5, 57960, Note_off_c, 3, 67, 100
5, 57984, Note_on_c, 3, 64, 127
5, 58056, Note_off_c, 3, 64, 100
5, 58080, Note_on_c, 3, 60, 127
5, 58152, Note_off_c, 3, 60, 100
5, 58176, Note_on_c, 3, 59, 127
5, 58248, Note_off_c, 3, 59, 100
5, 58272, Note_on_c, 3, 60, 127
5, 58344, Note_off_c, 3, 60, 100
5, 58368, Note_on_c, 3, 57, 127
5, 58440, Note_off_c, 3, 57, 100
5, 58464, Note_on_c, 3, 60, 127
5, 58536, Note_off_c, 3, 60, 100
5, 58560, Note_on_c, 3, 64, 127
5, 58632, Note_off_c, 3, 64, 100
5, 58656, Note_on_c, 3, 69, 127
5, 58728, Note_off_c, 3, 69, 100
5, 58752, Note_on_c, 3, 63, 127
5, 58824, Note_off_c, 3, 63, 100
5, 58848, Note_on_c, 3, 59, 127
5, 58920, Note_off_c, 3, 59, 100
5, 58944, Note_on_c, 3, 58, 127
5, 59016, Note_off_c, 3, 58, 100
5, 59040, Note_on_c, 3, 59, 127
5, 59112, Note_off_c, 3, 59, 100
5, 59136, Note_on_c, 3, 54, 127
5, 59208, Note_off_c, 3, 54, 100
5, 59232, Note_on_c, 3, 51, 127
5, 59304, Note_off_c, 3, 51, 100
5, 59328, Note_on_c, 3, 49, 127
5, 59400, Note_off_c, 3, 49, 100
5, 59424, Note_on_c, 3, 51, 127
5, 59496, Note_off_c, 3, 51, 100
5, 59520, Note_on_c, 3, 47, 127
5, 59592, Note_off_c, 3, 47, 100
5, 59616, Note_on_c, 3, 51, 127
5, 59688, Note_off_c, 3, 51, 100
5, 59712, Note_on_c, 3, 54, 127
5, 59784, Note_off_c, 3, 54, 100
5, 59808, Note_on_c, 3, 57, 127
5, 59880, Note_off_c, 3, 57, 100
5, 59904, Note_on_c, 3, 55, 127
5, 59932, Note_off_c, 3, 55, 100
5, 60288, Note_on_c, 3, 57, 127
5, 60316, Note_off_c, 3, 57, 100
5, 60672, Note_on_c, 3, 59, 127
5, 60700, Note_off_c, 3, 59, 100
5, 61056, Note_on_c, 3, 60, 127
5, 61084, Note_off_c, 3, 60, 100
5, 61440, Note_on_c, 3, 59, 127
5, 61468, Note_off_c, 3, 59, 100
5, 61824, Note_on_c, 3, 60, 127
5, 61852, Note_off_c, 3, 60, 100
5, 62208, Note_on_c, 3, 58, 127
5, 62236, Note_off_c, 3, 58, 100
5, 62592, Note_on_c, 3, 59, 127
5, 62620, Note_off_c, 3, 59, 100
5, 62976, Note_on_c, 3, 59, 127
5, 63004, Note_off_c, 3, 59, 100
5, 63360, Note_on_c, 3, 52, 127
5, 63388, Note_off_c, 3, 52, 100
5, 63840, Note_on_c, 3, 55, 127
5, 63912, Note_off_c, 3, 55, 100
5, 63936, Note_on_c, 3, 54, 127
5, 64008, Note_off_c, 3, 54, 100
5, 64032, Note_on_c, 3, 55, 127
5, 64104, Note_off_c, 3, 55, 100
5, 64128, Note_on_c, 3, 52, 127
5, 64200, Note_off_c, 3, 52, 100
5, 64224, Note_on_c, 3, 55, 127
5, 64296, Note_off_c, 3, 55, 100
5, 64320, Note_on_c, 3, 59, 127
5, 64392, Note_off_c, 3, 59, 100
5, 64416, Note_on_c, 3, 62, 127
5, 64488, Note_off_c, 3, 62, 100
5, 64512, Note_on_c, 3, 60, 127
5, 64540, Note_off_c, 3, 60, 100
5, 64896, Note_on_c, 3, 59, 127
5, 64924, Note_off_c, 3, 59, 100
5, 65280, Note_on_c, 3, 57, 127
5, 65308, Note_off_c, 3, 57, 100
5, 65664, Note_on_c, 3, 59, 127
5, 65692, Note_off_c, 3, 59, 100
5, 66048, Note_on_c, 3, 57, 127
5, 66076, Note_off_c, 3, 57, 100
5, 66432, Note_on_c, 3, 55, 127
5, 66460, Note_off_c, 3, 55, 100
5, 66816, Note_on_c, 3, 57, 127
5, 66876, Note_off_c, 3, 57, 100
5, 67776, Note_on_c, 3, 57, 127
5, 67836, Note_off_c, 3, 57, 100
5, 67968, Note_on_c, 3, 50, 127
5, 68028, Note_off_c, 3, 50, 100
5, 68928, Note_on_c, 3, 62, 127
5, 68988, Note_off_c, 3, 62, 100
5, 69312, Note_on_c, 3, 43, 127
5, 69372, Note_off_c, 3, 43, 100
5, 69504, Note_on_c, 3, 44, 127
5, 69564, Note_off_c, 3, 44, 100
5, 69696, Note_on_c, 3, 45, 127
5, 69756, Note_off_c, 3, 45, 100
5, 69888, Note_on_c, 3, 46, 127
5, 69948, Note_off_c, 3, 46, 100
5, 70080, Note_on_c, 3, 47, 127
5, 70140, Note_off_c, 3, 47, 100
5, 70272, Note_on_c, 3, 48, 127
5, 70300, Note_off_c, 3, 48, 100
5, 70656, Note_on_c, 3, 50, 127
5, 70684, Note_off_c, 3, 50, 100
5, 71040, Note_on_c, 3, 52, 127
5, 71068, Note_off_c, 3, 52, 100
5, 71424, Note_on_c, 3, 54, 127
5, 71452, Note_off_c, 3, 54, 100
5, 72672, Note_on_c, 3, 55, 127
5, 72744, Note_off_c, 3, 55, 100
5, 72768, Note_on_c, 3, 54, 127
5, 72840, Note_off_c, 3, 54, 100
5, 72864, Note_on_c, 3, 55, 127
5, 72936, Note_off_c, 3, 55, 100
5, 72960, Note_on_c, 3, 50, 127
5, 73032, Note_off_c, 3, 50, 100
5, 73056, Note_on_c, 3, 47, 127
5, 73128, Note_off_c, 3, 47, 100
5, 73152, Note_on_c, 3, 45, 127
5, 73224, Note_off_c, 3, 45, 100
5, 73248, Note_on_c, 3, 47, 127
5, 73320, Note_off_c, 3, 47, 100
5, 73344, Note_on_c, 3, 43, 1
5, 73344, Note_on_c, 3, 43, 127
5, 73648, Note_off_c, 3, 43, 100
5, 74032, Note_off_c, 3, 43, 100
5, 74032, End_track
6, 0, Start_track
6, 0, Title_t, "Bruno de Giusti"
6, 0, Control_c, 4, 0, 0
6, 0, Program_c, 4, 6
6, 0, Control_c, 4, 7, 127
6, 0, Control_c, 4, 10, 87
6, 0, Control_c, 4, 91, 127
6, 0, Key_signature, 1, "major"
6, 0, Note_on_c, 4, 95, 127
6, 28, Note_off_c, 4, 95, 100
6, 384, Note_on_c, 4, 98, 127
6, 412, Note_off_c, 4, 98, 100
6, 768, Note_on_c, 4, 91, 127
6, 796, Note_off_c, 4, 91, 100
6, 1152, Note_on_c, 4, 93, 127
6, 1180, Note_off_c, 4, 93, 100
6, 1536, Note_on_c, 4, 98, 127
6, 1564, Note_off_c, 4, 98, 100
6, 1920, Note_on_c, 4, 90, 127
6, 1948, Note_off_c, 4, 90, 100
6, 2304, Note_on_c, 4, 91, 127
6, 2332, Note_off_c, 4, 91, 100
6, 2688, Note_on_c, 4, 95, 127
6, 2716, Note_off_c, 4, 95, 100
6, 3072, Note_on_c, 4, 93, 127
6, 3100, Note_off_c, 4, 93, 100
6, 3456, Note_on_c, 4, 90, 127
6, 3484, Note_off_c, 4, 90, 100
6, 3840, Note_on_c, 4, 97, 127
6, 3868, Note_off_c, 4, 97, 100
6, 4224, Note_on_c, 4, 98, 127
6, 4252, Note_off_c, 4, 98, 100
6, 4608, Note_on_c, 4, 91, 127
6, 4668, Note_off_c, 4, 91, 100
6, 5184, Note_on_c, 4, 88, 127
6, 5244, Note_off_c, 4, 88, 100
6, 5376, Note_on_c, 4, 89, 127
6, 5436, Note_off_c, 4, 89, 100
6, 5568, Note_on_c, 4, 86, 127
6, 5628, Note_off_c, 4, 86, 100
6, 5760, Note_on_c, 4, 88, 127
6, 5820, Note_off_c, 4, 88, 100
6, 5952, Note_on_c, 4, 69, 127
6, 6012, Note_off_c, 4, 69, 100
6, 6144, Note_on_c, 4, 71, 127
6, 6204, Note_off_c, 4, 71, 100
6, 6336, Note_on_c, 4, 90, 127
6, 6396, Note_off_c, 4, 90, 100
6, 6528, Note_on_c, 4, 91, 127
6, 6588, Note_off_c, 4, 91, 100
6, 6720, Note_on_c, 4, 85, 127
6, 6780, Note_off_c, 4, 85, 100
6, 6912, Note_on_c, 4, 86, 127
6, 6972, Note_off_c, 4, 86, 100
6, 7104, Note_on_c, 4, 69, 127
6, 7164, Note_off_c, 4, 69, 100
6, 7296, Note_on_c, 4, 71, 127
6, 7356, Note_off_c, 4, 71, 100
6, 7488, Note_on_c, 4, 64, 127
6, 7548, Note_off_c, 4, 64, 100
6, 7680, Note_on_c, 4, 66, 127
6, 7740, Note_off_c, 4, 66, 100
6, 8256, Note_on_c, 4, 96, 127
6, 8316, Note_off_c, 4, 96, 100
6, 8448, Note_on_c, 4, 95, 127
6, 8508, Note_off_c, 4, 95, 100
6, 8640, Note_on_c, 4, 93, 127
6, 8700, Note_off_c, 4, 93, 100
6, 8832, Note_on_c, 4, 91, 127
6, 8892, Note_off_c, 4, 91, 100
6, 9024, Note_on_c, 4, 90, 127
6, 9084, Note_off_c, 4, 90, 100
6, 9216, Note_on_c, 4, 91, 127
6, 9216, Note_on_c, 4, 95, 127
6, 9244, Note_off_c, 4, 95, 100
6, 9308, Note_off_c, 4, 91, 100
6, 9312, Note_on_c, 4, 91, 127
6, 9384, Note_off_c, 4, 91, 100
6, 9408, Note_on_c, 4, 90, 127
6, 9480, Note_off_c, 4, 90, 100
6, 9504, Note_on_c, 4, 91, 127
6, 9576, Note_off_c, 4, 91, 100
6, 9600, Note_on_c, 4, 88, 127
6, 9672, Note_off_c, 4, 88, 100
6, 9696, Note_on_c, 4, 83, 127
6, 9768, Note_off_c, 4, 83, 100
6, 9792, Note_on_c, 4, 81, 127
6, 9864, Note_off_c, 4, 81, 100
6, 9888, Note_on_c, 4, 83, 127
6, 9960, Note_off_c, 4, 83, 100
6, 9984, Note_on_c, 4, 79, 127
6, 10056, Note_off_c, 4, 79, 100
6, 10080, Note_on_c, 4, 83, 127
6, 10152, Note_off_c, 4, 83, 100
6, 10176, Note_on_c, 4, 88, 127
6, 10248, Note_off_c, 4, 88, 100
6, 10272, Note_on_c, 4, 91, 127
6, 10344, Note_off_c, 4, 91, 100
6, 10368, Note_on_c, 4, 93, 127
6, 10440, Note_off_c, 4, 93, 100
6, 10464, Note_on_c, 4, 90, 127
6, 10536, Note_off_c, 4, 90, 100
6, 10560, Note_on_c, 4, 88, 127
6, 10632, Note_off_c, 4, 88, 100
6, 10656, Note_on_c, 4, 90, 127
6, 10728, Note_off_c, 4, 90, 100
6, 10752, Note_on_c, 4, 86, 127
6, 10824, Note_off_c, 4, 86, 100
6, 10848, Note_on_c, 4, 81, 127
6, 10920, Note_off_c, 4, 81, 100
6, 10944, Note_on_c, 4, 79, 127
6, 11016, Note_off_c, 4, 79, 100
6, 11040, Note_on_c, 4, 81, 127
6, 11112, Note_off_c, 4, 81, 100
6, 11136, Note_on_c, 4, 78, 127
6, 11208, Note_off_c, 4, 78, 100
6, 11232, Note_on_c, 4, 81, 127
6, 11304, Note_off_c, 4, 81, 100
6, 11328, Note_on_c, 4, 86, 127
6, 11400, Note_off_c, 4, 86, 100
6, 11424, Note_on_c, 4, 90, 127
6, 11496, Note_off_c, 4, 90, 100
6, 11520, Note_on_c, 4, 91, 127
6, 11592, Note_off_c, 4, 91, 100
6, 11616, Note_on_c, 4, 88, 127
6, 11688, Note_off_c, 4, 88, 100
6, 11712, Note_on_c, 4, 87, 127
6, 11784, Note_off_c, 4, 87, 100
6, 11808, Note_on_c, 4, 88, 127
6, 11880, Note_off_c, 4, 88, 100
6, 11904, Note_on_c, 4, 83, 127
6, 11976, Note_off_c, 4, 83, 100
6, 12000, Note_on_c, 4, 79, 127
6, 12072, Note_off_c, 4, 79, 100
6, 12096, Note_on_c, 4, 78, 127
6, 12168, Note_off_c, 4, 78, 100
6, 12192, Note_on_c, 4, 79, 127
6, 12264, Note_off_c, 4, 79, 100
6, 12288, Note_on_c, 4, 76, 127
6, 12360, Note_off_c, 4, 76, 100
6, 12384, Note_on_c, 4, 79, 127
6, 12456, Note_off_c, 4, 79, 100
6, 12480, Note_on_c, 4, 83, 127
6, 12552, Note_off_c, 4, 83, 100
6, 12576, Note_on_c, 4, 86, 127
6, 12648, Note_off_c, 4, 86, 100
6, 12672, Note_on_c, 4, 85, 127
6, 12744, Note_off_c, 4, 85, 100
6, 12768, Note_on_c, 4, 79, 127
6, 12840, Note_off_c, 4, 79, 100
6, 12864, Note_on_c, 4, 78, 127
6, 12936, Note_off_c, 4, 78, 100
6, 12960, Note_on_c, 4, 79, 127
6, 13032, Note_off_c, 4, 79, 100
6, 13056, Note_on_c, 4, 76, 127
6, 13128, Note_off_c, 4, 76, 100
6, 13152, Note_on_c, 4, 73, 127
6, 13224, Note_off_c, 4, 73, 100
6, 13248, Note_on_c, 4, 71, 127
6, 13320, Note_off_c, 4, 71, 100
6, 13344, Note_on_c, 4, 73, 127
6, 13416, Note_off_c, 4, 73, 100
6, 13440, Note_on_c, 4, 69, 127
6, 13512, Note_off_c, 4, 69, 100
6, 13536, Note_on_c, 4, 73, 127
6, 13608, Note_off_c, 4, 73, 100
6, 13632, Note_on_c, 4, 76, 127
6, 13704, Note_off_c, 4, 76, 100
6, 13728, Note_on_c, 4, 79, 127
6, 13800, Note_off_c, 4, 79, 100
6, 13824, Note_on_c, 4, 78, 127
6, 13852, Note_off_c, 4, 78, 100
6, 14208, Note_on_c, 4, 79, 127
6, 14236, Note_off_c, 4, 79, 100
6, 14592, Note_on_c, 4, 81, 127
6, 14620, Note_off_c, 4, 81, 100
6, 14976, Note_on_c, 4, 83, 127
6, 15004, Note_off_c, 4, 83, 100
6, 15360, Note_on_c, 4, 81, 127
6, 15388, Note_off_c, 4, 81, 100
6, 15744, Note_on_c, 4, 79, 127
6, 15772, Note_off_c, 4, 79, 100
6, 16128, Note_on_c, 4, 81, 127
6, 16156, Note_off_c, 4, 81, 100
6, 16512, Note_on_c, 4, 83, 127
6, 16540, Note_off_c, 4, 83, 100
6, 16896, Note_on_c, 4, 81, 127
6, 16924, Note_off_c, 4, 81, 100
6, 17280, Note_on_c, 4, 78, 127
6, 17308, Note_off_c, 4, 78, 100
6, 17376, Note_on_c, 4, 74, 127
6, 17468, Note_off_c, 4, 74, 100
6, 17472, Note_on_c, 4, 73, 127
6, 17564, Note_off_c, 4, 73, 100
6, 17568, Note_on_c, 4, 74, 127
6, 17660, Note_off_c, 4, 74, 100
6, 17664, Note_on_c, 4, 69, 127
6, 17692, Note_off_c, 4, 69, 100
6, 17760, Note_on_c, 4, 66, 127
6, 17852, Note_off_c, 4, 66, 100
6, 17856, Note_on_c, 4, 64, 127
6, 17948, Note_off_c, 4, 64, 100
6, 17952, Note_on_c, 4, 66, 127
6, 18016, Note_off_c, 4, 66, 100
6, 18048, Note_on_c, 4, 62, 127
6, 18304, Note_off_c, 4, 62, 100
6, 18432, Note_on_c, 4, 95, 127
6, 18460, Note_off_c, 4, 95, 100
6, 18816, Note_on_c, 4, 98, 127
6, 18844, Note_off_c, 4, 98, 100
6, 19200, Note_on_c, 4, 91, 127
6, 19228, Note_off_c, 4, 91, 100
6, 19584, Note_on_c, 4, 93, 127
6, 19612, Note_off_c, 4, 93, 100
6, 19968, Note_on_c, 4, 98, 127
6, 19996, Note_off_c, 4, 98, 100
6, 20352, Note_on_c, 4, 90, 127
6, 20380, Note_off_c, 4, 90, 100
6, 20736, Note_on_c, 4, 91, 127
6, 20764, Note_off_c, 4, 91, 100
6, 21120, Note_on_c, 4, 95, 127
6, 21148, Note_off_c, 4, 95, 100
6, 21504, Note_on_c, 4, 93, 127
6, 21532, Note_off_c, 4, 93, 100
6, 21888, Note_on_c, 4, 90, 127
6, 21916, Note_off_c, 4, 90, 100
6, 22272, Note_on_c, 4, 97, 127
6, 22300, Note_off_c, 4, 97, 100
6, 22656, Note_on_c, 4, 98, 127
6, 22684, Note_off_c, 4, 98, 100
6, 23040, Note_on_c, 4, 91, 127
6, 23100, Note_off_c, 4, 91, 100
6, 23808, Note_on_c, 4, 89, 127
6, 23868, Note_off_c, 4, 89, 100
6, 24768, Note_on_c, 4, 90, 127
6, 24828, Note_off_c, 4, 90, 100
6, 24960, Note_on_c, 4, 91, 127
6, 25020, Note_off_c, 4, 91, 100
6, 26688, Note_on_c, 4, 96, 127
6, 26748, Note_off_c, 4, 96, 100
6, 26880, Note_on_c, 4, 95, 127
6, 26940, Note_off_c, 4, 95, 100
6, 27072, Note_on_c, 4, 93, 127
6, 27132, Note_off_c, 4, 93, 100
6, 27264, Note_on_c, 4, 91, 127
6, 27324, Note_off_c, 4, 91, 100
6, 27456, Note_on_c, 4, 90, 127
6, 27516, Note_off_c, 4, 90, 100
6, 27648, Note_on_c, 4, 91, 127
6, 27648, Note_on_c, 4, 95, 127
6, 27676, Note_off_c, 4, 95, 100
6, 27740, Note_off_c, 4, 91, 100
6, 27744, Note_on_c, 4, 91, 127
6, 27816, Note_off_c, 4, 91, 100
6, 27840, Note_on_c, 4, 90, 127
6, 27912, Note_off_c, 4, 90, 100
6, 27936, Note_on_c, 4, 91, 127
6, 28008, Note_off_c, 4, 91, 100
6, 28704, Note_on_c, 4, 91, 127
6, 28776, Note_off_c, 4, 91, 100
6, 28800, Note_on_c, 4, 93, 127
6, 28872, Note_off_c, 4, 93, 100
6, 28896, Note_on_c, 4, 90, 127
6, 28968, Note_off_c, 4, 90, 100
6, 29088, Note_on_c, 4, 90, 127
6, 29160, Note_off_c, 4, 90, 100
6, 29856, Note_on_c, 4, 90, 127
6, 29928, Note_off_c, 4, 90, 100
6, 29952, Note_on_c, 4, 91, 127
6, 30024, Note_off_c, 4, 91, 100
6, 36864, Note_on_c, 4, 78, 127
6, 36936, Note_off_c, 4, 78, 100
6, 36960, Note_on_c, 4, 81, 127
6, 37032, Note_off_c, 4, 81, 100
6, 37056, Note_on_c, 4, 79, 127
6, 37128, Note_off_c, 4, 79, 100
6, 37152, Note_on_c, 4, 81, 127
6, 37224, Note_off_c, 4, 81, 100
6, 37248, Note_on_c, 4, 86, 127
6, 37320, Note_off_c, 4, 86, 100
6, 37344, Note_on_c, 4, 90, 127
6, 37416, Note_off_c, 4, 90, 100
6, 37440, Note_on_c, 4, 88, 127
6, 37512, Note_off_c, 4, 88, 100
6, 37536, Note_on_c, 4, 90, 127
6, 37608, Note_off_c, 4, 90, 100
6, 37632, Note_on_c, 4, 93, 127
6, 37704, Note_off_c, 4, 93, 100
6, 37728, Note_on_c, 4, 90, 127
6, 37800, Note_off_c, 4, 90, 100
6, 37824, Note_on_c, 4, 84, 127
6, 37896, Note_off_c, 4, 84, 100
6, 37920, Note_on_c, 4, 81, 127
6, 37992, Note_off_c, 4, 81, 100
6, 38016, Note_on_c, 4, 83, 127
6, 38088, Note_off_c, 4, 83, 100
6, 38112, Note_on_c, 4, 86, 127
6, 38184, Note_off_c, 4, 86, 100
6, 38208, Note_on_c, 4, 84, 127
6, 38280, Note_off_c, 4, 84, 100
6, 38304, Note_on_c, 4, 86, 127
6, 38376, Note_off_c, 4, 86, 100
6, 38400, Note_on_c, 4, 91, 127
6, 38472, Note_off_c, 4, 91, 100
6, 38496, Note_on_c, 4, 95, 127
6, 38568, Note_off_c, 4, 95, 100
6, 38592, Note_on_c, 4, 93, 127
6, 38664, Note_off_c, 4, 93, 100
6, 38688, Note_on_c, 4, 95, 127
6, 38760, Note_off_c, 4, 95, 100
6, 38784, Note_on_c, 4, 98, 127
6, 38856, Note_off_c, 4, 98, 100
6, 38880, Note_on_c, 4, 95, 127
6, 38952, Note_off_c, 4, 95, 100
6, 38976, Note_on_c, 4, 89, 127
6, 39048, Note_off_c, 4, 89, 100
6, 39072, Note_on_c, 4, 86, 127
6, 39144, Note_off_c, 4, 86, 100
6, 39168, Note_on_c, 4, 88, 127
6, 39228, Note_off_c, 4, 88, 100
6, 39360, Note_on_c, 4, 83, 127
6, 39420, Note_off_c, 4, 83, 100
6, 39552, Note_on_c, 4, 84, 127
6, 39612, Note_off_c, 4, 84, 100
6, 39744, Note_on_c, 4, 75, 127
6, 39804, Note_off_c, 4, 75, 100
6, 39936, Note_on_c, 4, 76, 127
6, 39996, Note_off_c, 4, 76, 100
6, 40128, Note_on_c, 4, 67, 127
6, 40188, Note_off_c, 4, 67, 100
6, 40320, Note_on_c, 4, 66, 127
6, 40380, Note_off_c, 4, 66, 100
6, 40512, Note_on_c, 4, 88, 127
6, 40572, Note_off_c, 4, 88, 100
6, 40704, Note_on_c, 4, 87, 127
6, 40776, Note_off_c, 4, 87, 100
6, 41520, Note_on_c, 4, 91, 127
6, 41564, Note_off_c, 4, 91, 100
6, 41568, Note_on_c, 4, 93, 127
6, 41612, Note_off_c, 4, 93, 100
6, 41616, Note_on_c, 4, 91, 127
6, 41660, Note_off_c, 4, 91, 100
6, 41664, Note_on_c, 4, 93, 127
6, 41708, Note_off_c, 4, 93, 100
6, 41712, Note_on_c, 4, 91, 127
6, 41756, Note_off_c, 4, 91, 100
6, 41760, Note_on_c, 4, 93, 127
6, 41804, Note_off_c, 4, 93, 100
6, 41808, Note_on_c, 4, 91, 127
6, 41852, Note_off_c, 4, 91, 100
6, 41904, Note_on_c, 4, 91, 127
6, 41948, Note_off_c, 4, 91, 100
6, 41952, Note_on_c, 4, 93, 127
6, 41996, Note_off_c, 4, 93, 100
6, 42000, Note_on_c, 4, 91, 127
6, 42044, Note_off_c, 4, 91, 100
6, 42048, Note_on_c, 4, 93, 127
6, 42092, Note_off_c, 4, 93, 100
6, 42096, Note_on_c, 4, 91, 127
6, 42140, Note_off_c, 4, 91, 100
6, 42144, Note_on_c, 4, 93, 127
6, 42188, Note_off_c, 4, 93, 100
6, 42192, Note_on_c, 4, 91, 127
6, 42236, Note_off_c, 4, 91, 100
6, 42288, Note_on_c, 4, 91, 127
6, 42332, Note_off_c, 4, 91, 100
6, 42336, Note_on_c, 4, 93, 127
6, 42380, Note_off_c, 4, 93, 100
6, 42384, Note_on_c, 4, 91, 127
6, 42428, Note_off_c, 4, 91, 100
6, 42432, Note_on_c, 4, 93, 127
6, 42476, Note_off_c, 4, 93, 100
6, 42480, Note_on_c, 4, 91, 127
6, 42524, Note_off_c, 4, 91, 100
6, 42528, Note_on_c, 4, 93, 127
6, 42572, Note_off_c, 4, 93, 100
6, 42576, Note_on_c, 4, 91, 127
6, 42620, Note_off_c, 4, 91, 100
6, 42672, Note_on_c, 4, 91, 127
6, 42716, Note_off_c, 4, 91, 100
6, 42720, Note_on_c, 4, 93, 127
6, 42764, Note_off_c, 4, 93, 100
6, 42768, Note_on_c, 4, 91, 127
6, 42812, Note_off_c, 4, 91, 100
6, 42816, Note_on_c, 4, 93, 127
6, 42860, Note_off_c, 4, 93, 100
6, 42864, Note_on_c, 4, 91, 127
6, 42908, Note_off_c, 4, 91, 100
6, 42912, Note_on_c, 4, 93, 127
6, 42956, Note_off_c, 4, 93, 100
6, 42960, Note_on_c, 4, 91, 127
6, 43004, Note_off_c, 4, 91, 100
6, 43056, Note_on_c, 4, 91, 127
6, 43100, Note_off_c, 4, 91, 100
6, 43104, Note_on_c, 4, 93, 127
6, 43148, Note_off_c, 4, 93, 100
6, 43152, Note_on_c, 4, 91, 127
6, 43196, Note_off_c, 4, 91, 100
6, 43200, Note_on_c, 4, 93, 127
6, 43244, Note_off_c, 4, 93, 100
6, 43248, Note_on_c, 4, 91, 127
6, 43292, Note_off_c, 4, 91, 100
6, 43296, Note_on_c, 4, 93, 127
6, 43340, Note_off_c, 4, 93, 100
6, 43344, Note_on_c, 4, 91, 127
6, 43388, Note_off_c, 4, 91, 100
6, 43440, Note_on_c, 4, 91, 127
6, 43484, Note_off_c, 4, 91, 100
6, 43488, Note_on_c, 4, 93, 127
6, 43532, Note_off_c, 4, 93, 100
6, 43536, Note_on_c, 4, 91, 127
6, 43580, Note_off_c, 4, 91, 100
6, 43584, Note_on_c, 4, 93, 127
6, 43628, Note_off_c, 4, 93, 100
6, 43632, Note_on_c, 4, 91, 127
6, 43676, Note_off_c, 4, 91, 100
6, 43680, Note_on_c, 4, 93, 127
6, 43724, Note_off_c, 4, 93, 100
6, 43728, Note_on_c, 4, 91, 127
6, 43772, Note_off_c, 4, 91, 100
6, 43824, Note_on_c, 4, 91, 127
6, 43868, Note_off_c, 4, 91, 100
6, 43872, Note_on_c, 4, 93, 127
6, 43916, Note_off_c, 4, 93, 100
6, 43920, Note_on_c, 4, 91, 127
6, 43964, Note_off_c, 4, 91, 100
6, 43968, Note_on_c, 4, 93, 127
6, 44012, Note_off_c, 4, 93, 100
6, 44016, Note_on_c, 4, 91, 127
6, 44060, Note_off_c, 4, 91, 100
6, 44064, Note_on_c, 4, 93, 127
6, 44108, Note_off_c, 4, 93, 100
6, 44112, Note_on_c, 4, 91, 127
6, 44156, Note_off_c, 4, 91, 100
6, 44208, Note_on_c, 4, 91, 127
6, 44252, Note_off_c, 4, 91, 100
6, 44256, Note_on_c, 4, 93, 127
6, 44300, Note_off_c, 4, 93, 100
6, 44304, Note_on_c, 4, 91, 127
6, 44348, Note_off_c, 4, 91, 100
6, 44352, Note_on_c, 4, 93, 127
6, 44396, Note_off_c, 4, 93, 100
6, 44400, Note_on_c, 4, 91, 127
6, 44444, Note_off_c, 4, 91, 100
6, 44448, Note_on_c, 4, 93, 127
6, 44492, Note_off_c, 4, 93, 100
6, 44496, Note_on_c, 4, 91, 127
6, 44540, Note_off_c, 4, 91, 100
6, 44592, Note_on_c, 4, 90, 127
6, 44636, Note_off_c, 4, 90, 100
6, 44640, Note_on_c, 4, 91, 127
6, 44684, Note_off_c, 4, 91, 100
6, 44688, Note_on_c, 4, 90, 127
6, 44732, Note_off_c, 4, 90, 100
6, 44736, Note_on_c, 4, 91, 127
6, 44780, Note_off_c, 4, 91, 100
6, 44784, Note_on_c, 4, 90, 127
6, 44828, Note_off_c, 4, 90, 100
6, 44832, Note_on_c, 4, 91, 127
6, 44876, Note_off_c, 4, 91, 100
6, 44880, Note_on_c, 4, 90, 127
6, 44924, Note_off_c, 4, 90, 100
6, 44928, Note_on_c, 4, 88, 127
6, 44956, Note_off_c, 4, 88, 100
6, 45408, Note_on_c, 4, 88, 127
6, 45480, Note_off_c, 4, 88, 100
6, 45504, Note_on_c, 4, 87, 127
6, 45576, Note_off_c, 4, 87, 100
6, 45600, Note_on_c, 4, 88, 127
6, 45672, Note_off_c, 4, 88, 100
6, 45696, Note_on_c, 4, 91, 127
6, 45740, Note_off_c, 4, 91, 100
6, 45744, Note_on_c, 4, 89, 127
6, 45788, Note_off_c, 4, 89, 100
6, 45792, Note_on_c, 4, 88, 127
6, 45856, Note_off_c, 4, 88, 100
6, 45888, Note_on_c, 4, 89, 127
6, 45932, Note_off_c, 4, 89, 100
6, 45936, Note_on_c, 4, 88, 127
6, 45980, Note_off_c, 4, 88, 100
6, 45984, Note_on_c, 4, 86, 127
6, 46048, Note_off_c, 4, 86, 100
6, 46080, Note_on_c, 4, 88, 127
6, 46140, Note_off_c, 4, 88, 100
6, 47040, Note_on_c, 4, 88, 127
6, 47100, Note_off_c, 4, 88, 100
6, 47232, Note_on_c, 4, 86, 127
6, 47292, Note_off_c, 4, 86, 100
6, 48192, Note_on_c, 4, 86, 127
6, 48252, Note_off_c, 4, 86, 100
6, 48432, Note_on_c, 4, 84, 127
6, 48476, Note_off_c, 4, 84, 100
6, 48480, Note_on_c, 4, 86, 127
6, 48524, Note_off_c, 4, 86, 100
6, 48528, Note_on_c, 4, 84, 127
6, 48572, Note_off_c, 4, 84, 100
6, 48576, Note_on_c, 4, 86, 127
6, 48620, Note_off_c, 4, 86, 100
6, 48624, Note_on_c, 4, 84, 127
6, 48668, Note_off_c, 4, 84, 100
6, 48672, Note_on_c, 4, 86, 127
6, 48716, Note_off_c, 4, 86, 100
6, 48720, Note_on_c, 4, 84, 127
6, 48764, Note_off_c, 4, 84, 100
6, 48816, Note_on_c, 4, 84, 127
6, 48860, Note_off_c, 4, 84, 100
6, 48864, Note_on_c, 4, 86, 127
6, 48908, Note_off_c, 4, 86, 100
6, 48912, Note_on_c, 4, 84, 127
6, 48956, Note_off_c, 4, 84, 100
6, 48960, Note_on_c, 4, 86, 127
6, 49004, Note_off_c, 4, 86, 100
6, 49008, Note_on_c, 4, 84, 127
6, 49052, Note_off_c, 4, 84, 100
6, 49056, Note_on_c, 4, 86, 127
6, 49100, Note_off_c, 4, 86, 100
6, 49104, Note_on_c, 4, 84, 127
6, 49148, Note_off_c, 4, 84, 100
6, 49200, Note_on_c, 4, 84, 127
6, 49244, Note_off_c, 4, 84, 100
6, 49248, Note_on_c, 4, 86, 127
6, 49292, Note_off_c, 4, 86, 100
6, 49296, Note_on_c, 4, 84, 127
6, 49340, Note_off_c, 4, 84, 100
6, 49344, Note_on_c, 4, 86, 127
6, 49388, Note_off_c, 4, 86, 100
6, 49392, Note_on_c, 4, 84, 127
6, 49436, Note_off_c, 4, 84, 100
6, 49440, Note_on_c, 4, 86, 127
6, 49484, Note_off_c, 4, 86, 100
6, 49488, Note_on_c, 4, 84, 127
6, 49532, Note_off_c, 4, 84, 100
6, 49584, Note_on_c, 4, 84, 127
6, 49628, Note_off_c, 4, 84, 100
6, 49632, Note_on_c, 4, 86, 127
6, 49676, Note_off_c, 4, 86, 100
6, 49680, Note_on_c, 4, 84, 127
6, 49724, Note_off_c, 4, 84, 100
6, 49728, Note_on_c, 4, 86, 127
6, 49772, Note_off_c, 4, 86, 100
6, 49776, Note_on_c, 4, 84, 127
6, 49820, Note_off_c, 4, 84, 100
6, 49824, Note_on_c, 4, 86, 127
6, 49868, Note_off_c, 4, 86, 100
6, 49872, Note_on_c, 4, 84, 127
6, 49916, Note_off_c, 4, 84, 100
6, 49968, Note_on_c, 4, 84, 127
6, 50012, Note_off_c, 4, 84, 100
6, 50016, Note_on_c, 4, 86, 127
6, 50060, Note_off_c, 4, 86, 100
6, 50064, Note_on_c, 4, 84, 127
6, 50108, Note_off_c, 4, 84, 100
6, 50112, Note_on_c, 4, 86, 127
6, 50156, Note_off_c, 4, 86, 100
6, 50160, Note_on_c, 4, 84, 127
6, 50204, Note_off_c, 4, 84, 100
6, 50208, Note_on_c, 4, 86, 127
6, 50252, Note_off_c, 4, 86, 100
6, 50256, Note_on_c, 4, 84, 127
6, 50300, Note_off_c, 4, 84, 100
6, 50352, Note_on_c, 4, 84, 127
6, 50396, Note_off_c, 4, 84, 100
6, 50400, Note_on_c, 4, 86, 127
6, 50444, Note_off_c, 4, 86, 100
6, 50448, Note_on_c, 4, 84, 127
6, 50492, Note_off_c, 4, 84, 100
6, 50496, Note_on_c, 4, 86, 127
6, 50540, Note_off_c, 4, 86, 100
6, 50544, Note_on_c, 4, 84, 127
6, 50588, Note_off_c, 4, 84, 100
6, 50592, Note_on_c, 4, 86, 127
6, 50636, Note_off_c, 4, 86, 100
6, 50640, Note_on_c, 4, 84, 127
6, 50684, Note_off_c, 4, 84, 100
6, 50688, Note_on_c, 4, 83, 127
6, 50716, Note_off_c, 4, 83, 100
6, 51072, Note_on_c, 4, 84, 127
6, 51100, Note_off_c, 4, 84, 100
6, 51456, Note_on_c, 4, 86, 127
6, 51484, Note_off_c, 4, 86, 100
6, 52032, Note_on_c, 4, 88, 127
6, 52092, Note_off_c, 4, 88, 100
6, 52224, Note_on_c, 4, 89, 127
6, 52284, Note_off_c, 4, 89, 100
6, 52416, Note_on_c, 4, 90, 127
6, 52476, Note_off_c, 4, 90, 100
6, 52608, Note_on_c, 4, 91, 127
6, 52668, Note_off_c, 4, 91, 100
6, 52800, Note_on_c, 4, 92, 127
6, 52860, Note_off_c, 4, 92, 100
6, 52992, Note_on_c, 4, 93, 127
6, 53020, Note_off_c, 4, 93, 100
6, 54240, Note_on_c, 4, 83, 127
6, 54312, Note_off_c, 4, 83, 100
6, 54336, Note_on_c, 4, 81, 127
6, 54408, Note_off_c, 4, 81, 100
6, 54432, Note_on_c, 4, 83, 127
6, 54504, Note_off_c, 4, 83, 100
6, 54528, Note_on_c, 4, 86, 127
6, 54600, Note_off_c, 4, 86, 100
6, 54624, Note_on_c, 4, 91, 127
6, 54696, Note_off_c, 4, 91, 100
6, 54720, Note_on_c, 4, 90, 127
6, 54792, Note_off_c, 4, 90, 100
6, 54816, Note_on_c, 4, 91, 127
6, 54888, Note_off_c, 4, 91, 100
6, 54912, Note_on_c, 4, 95, 127
6, 55216, Note_off_c, 4, 95, 100
6, 55216, End_track
7, 0, Start_track
7, 0, Title_t, "bdg@bruno-de-giusti.net"
7, 0, Control_c, 5, 0, 0
7, 0, Program_c, 5, 6
7, 0, Control_c, 5, 7, 127
7, 0, Control_c, 5, 10, 127
7, 0, Control_c, 5, 91, 127
7, 0, Key_signature, 1, "major"
7, 48, Note_on_c, 5, 86, 127
7, 92, Note_off_c, 5, 86, 100
7, 96, Note_on_c, 5, 88, 127
7, 140, Note_off_c, 5, 88, 100
7, 144, Note_on_c, 5, 86, 127
7, 188, Note_off_c, 5, 86, 100
7, 192, Note_on_c, 5, 88, 127
7, 236, Note_off_c, 5, 88, 100
7, 240, Note_on_c, 5, 86, 127
7, 284, Note_off_c, 5, 86, 100
7, 288, Note_on_c, 5, 88, 127
7, 332, Note_off_c, 5, 88, 100
7, 336, Note_on_c, 5, 86, 127
7, 380, Note_off_c, 5, 86, 100
7, 432, Note_on_c, 5, 86, 127
7, 476, Note_off_c, 5, 86, 100
7, 480, Note_on_c, 5, 88, 127
7, 524, Note_off_c, 5, 88, 100
7, 528, Note_on_c, 5, 86, 127
7, 572, Note_off_c, 5, 86, 100
7, 576, Note_on_c, 5, 88, 127
7, 620, Note_off_c, 5, 88, 100
7, 624, Note_on_c, 5, 86, 127
7, 668, Note_off_c, 5, 86, 100
7, 672, Note_on_c, 5, 88, 127
7, 716, Note_off_c, 5, 88, 100
7, 720, Note_on_c, 5, 86, 127
7, 764, Note_off_c, 5, 86, 100
7, 816, Note_on_c, 5, 86, 127
7, 860, Note_off_c, 5, 86, 100
7, 864, Note_on_c, 5, 88, 127
7, 908, Note_off_c, 5, 88, 100
7, 912, Note_on_c, 5, 86, 127
7, 956, Note_off_c, 5, 86, 100
7, 960, Note_on_c, 5, 88, 127
7, 1004, Note_off_c, 5, 88, 100
7, 1008, Note_on_c, 5, 86, 127
7, 1052, Note_off_c, 5, 86, 100
7, 1056, Note_on_c, 5, 88, 127
7, 1100, Note_off_c, 5, 88, 100
7, 1104, Note_on_c, 5, 86, 127
7, 1148, Note_off_c, 5, 86, 100
7, 1200, Note_on_c, 5, 86, 127
7, 1244, Note_off_c, 5, 86, 100
7, 1248, Note_on_c, 5, 88, 127
7, 1292, Note_off_c, 5, 88, 100
7, 1296, Note_on_c, 5, 86, 127
7, 1340, Note_off_c, 5, 86, 100
7, 1344, Note_on_c, 5, 88, 127
7, 1388, Note_off_c, 5, 88, 100
7, 1392, Note_on_c, 5, 86, 127
7, 1436, Note_off_c, 5, 86, 100
7, 1440, Note_on_c, 5, 88, 127
7, 1484, Note_off_c, 5, 88, 100
7, 1488, Note_on_c, 5, 86, 127
7, 1532, Note_off_c, 5, 86, 100
7, 1584, Note_on_c, 5, 86, 127
7, 1628, Note_off_c, 5, 86, 100
7, 1632, Note_on_c, 5, 88, 127
7, 1676, Note_off_c, 5, 88, 100
7, 1680, Note_on_c, 5, 86, 127
7, 1724, Note_off_c, 5, 86, 100
7, 1728, Note_on_c, 5, 88, 127
7, 1772, Note_off_c, 5, 88, 100
7, 1776, Note_on_c, 5, 86, 127
7, 1820, Note_off_c, 5, 86, 100
7, 1824, Note_on_c, 5, 88, 127
7, 1868, Note_off_c, 5, 88, 100
7, 1872, Note_on_c, 5, 86, 127
7, 1916, Note_off_c, 5, 86, 100
7, 1968, Note_on_c, 5, 86, 127
7, 2012, Note_off_c, 5, 86, 100
7, 2016, Note_on_c, 5, 88, 127
7, 2060, Note_off_c, 5, 88, 100
7, 2064, Note_on_c, 5, 86, 127
7, 2108, Note_off_c, 5, 86, 100
7, 2112, Note_on_c, 5, 88, 127
7, 2156, Note_off_c, 5, 88, 100
7, 2160, Note_on_c, 5, 86, 127
7, 2204, Note_off_c, 5, 86, 100
7, 2208, Note_on_c, 5, 88, 127
7, 2252, Note_off_c, 5, 88, 100
7, 2256, Note_on_c, 5, 86, 127
7, 2300, Note_off_c, 5, 86, 100
7, 2352, Note_on_c, 5, 86, 127
7, 2396, Note_off_c, 5, 86, 100
7, 2400, Note_on_c, 5, 88, 127
7, 2444, Note_off_c, 5, 88, 100
7, 2448, Note_on_c, 5, 86, 127
7, 2492, Note_off_c, 5, 86, 100
7, 2496, Note_on_c, 5, 88, 127
7, 2540, Note_off_c, 5, 88, 100
7, 2544, Note_on_c, 5, 86, 127
7, 2588, Note_off_c, 5, 86, 100
7, 2592, Note_on_c, 5, 88, 127
7, 2636, Note_off_c, 5, 88, 100
7, 2640, Note_on_c, 5, 86, 127
7, 2684, Note_off_c, 5, 86, 100
7, 2736, Note_on_c, 5, 86, 127
7, 2780, Note_off_c, 5, 86, 100
7, 2784, Note_on_c, 5, 88, 127
7, 2828, Note_off_c, 5, 88, 100
7, 2832, Note_on_c, 5, 86, 127
7, 2876, Note_off_c, 5, 86, 100
7, 2880, Note_on_c, 5, 88, 127
7, 2924, Note_off_c, 5, 88, 100
7, 2928, Note_on_c, 5, 86, 127
7, 2972, Note_off_c, 5, 86, 100
7, 2976, Note_on_c, 5, 88, 127
7, 3020, Note_off_c, 5, 88, 100
7, 3024, Note_on_c, 5, 86, 127
7, 3068, Note_off_c, 5, 86, 100
7, 3120, Note_on_c, 5, 85, 127
7, 3164, Note_off_c, 5, 85, 100
7, 3168, Note_on_c, 5, 86, 127
7, 3212, Note_off_c, 5, 86, 100
7, 3216, Note_on_c, 5, 85, 127
7, 3260, Note_off_c, 5, 85, 100
7, 3264, Note_on_c, 5, 86, 127
7, 3308, Note_off_c, 5, 86, 100
7, 3312, Note_on_c, 5, 85, 127
7, 3356, Note_off_c, 5, 85, 100
7, 3360, Note_on_c, 5, 86, 127
7, 3404, Note_off_c, 5, 86, 100
7, 3408, Note_on_c, 5, 85, 127
7, 3452, Note_off_c, 5, 85, 100
7, 3504, Note_on_c, 5, 86, 127
7, 3548, Note_off_c, 5, 86, 100
7, 3552, Note_on_c, 5, 88, 127
7, 3596, Note_off_c, 5, 88, 100
7, 3600, Note_on_c, 5, 86, 127
7, 3644, Note_off_c, 5, 86, 100
7, 3648, Note_on_c, 5, 88, 127
7, 3692, Note_off_c, 5, 88, 100
7, 3696, Note_on_c, 5, 86, 127
7, 3740, Note_off_c, 5, 86, 100
7, 3744, Note_on_c, 5, 88, 127
7, 3788, Note_off_c, 5, 88, 100
7, 3792, Note_on_c, 5, 86, 127
7, 3836, Note_off_c, 5, 86, 100
7, 3888, Note_on_c, 5, 86, 127
7, 3932, Note_off_c, 5, 86, 100
7, 3936, Note_on_c, 5, 88, 127
7, 3980, Note_off_c, 5, 88, 100
7, 3984, Note_on_c, 5, 86, 127
7, 4028, Note_off_c, 5, 86, 100
7, 4032, Note_on_c, 5, 88, 127
7, 4076, Note_off_c, 5, 88, 100
7, 4080, Note_on_c, 5, 86, 127
7, 4124, Note_off_c, 5, 86, 100
7, 4128, Note_on_c, 5, 88, 127
7, 4172, Note_off_c, 5, 88, 100
7, 4176, Note_on_c, 5, 86, 127
7, 4220, Note_off_c, 5, 86, 100
7, 4272, Note_on_c, 5, 86, 127
7, 4316, Note_off_c, 5, 86, 100
7, 4320, Note_on_c, 5, 88, 127
7, 4364, Note_off_c, 5, 88, 100
7, 4368, Note_on_c, 5, 86, 127
7, 4412, Note_off_c, 5, 86, 100
7, 4416, Note_on_c, 5, 88, 127
7, 4460, Note_off_c, 5, 88, 100
7, 4464, Note_on_c, 5, 86, 127
7, 4508, Note_off_c, 5, 86, 100
7, 4512, Note_on_c, 5, 88, 127
7, 4556, Note_off_c, 5, 88, 100
7, 4560, Note_on_c, 5, 86, 127
7, 4604, Note_off_c, 5, 86, 100
7, 4800, Note_on_c, 5, 67, 127
7, 4860, Note_off_c, 5, 67, 100
7, 4992, Note_on_c, 5, 69, 127
7, 5052, Note_off_c, 5, 69, 100
7, 5568, Note_on_c, 5, 83, 127
7, 5628, Note_off_c, 5, 83, 100
7, 5760, Note_on_c, 5, 84, 127
7, 5820, Note_off_c, 5, 84, 100
7, 6720, Note_on_c, 5, 93, 127
7, 6780, Note_off_c, 5, 93, 100
7, 6912, Note_on_c, 5, 95, 127
7, 6972, Note_off_c, 5, 95, 100
7, 7104, Note_on_c, 5, 66, 127
7, 7164, Note_off_c, 5, 66, 100
7, 7296, Note_on_c, 5, 67, 127
7, 7356, Note_off_c, 5, 67, 100
7, 7488, Note_on_c, 5, 61, 127
7, 7548, Note_off_c, 5, 61, 100
7, 7680, Note_on_c, 5, 62, 127
7, 7740, Note_off_c, 5, 62, 100
7, 7872, Note_on_c, 5, 50, 127
7, 7932, Note_off_c, 5, 50, 100
7, 8064, Note_on_c, 5, 55, 127
7, 8124, Note_off_c, 5, 55, 100
7, 8256, Note_on_c, 5, 88, 127
7, 8316, Note_off_c, 5, 88, 100
7, 8448, Note_on_c, 5, 86, 127
7, 8508, Note_off_c, 5, 86, 100
7, 8640, Note_on_c, 5, 84, 127
7, 8700, Note_off_c, 5, 84, 100
7, 8832, Note_on_c, 5, 83, 127
7, 8892, Note_off_c, 5, 83, 100
7, 9024, Note_on_c, 5, 81, 127
7, 9024, Note_on_c, 5, 84, 127
7, 9084, Note_off_c, 5, 81, 100
7, 9084, Note_off_c, 5, 84, 100
7, 9216, Note_on_c, 5, 83, 127
7, 9216, Note_on_c, 5, 86, 127
7, 9308, Note_off_c, 5, 83, 100
7, 9308, Note_off_c, 5, 86, 100
7, 13872, Note_on_c, 5, 74, 127
7, 13916, Note_off_c, 5, 74, 100
7, 13920, Note_on_c, 5, 76, 127
7, 13964, Note_off_c, 5, 76, 100
7, 13968, Note_on_c, 5, 74, 127
7, 14012, Note_off_c, 5, 74, 100
7, 14016, Note_on_c, 5, 76, 127
7, 14060, Note_off_c, 5, 76, 100
7, 14064, Note_on_c, 5, 74, 127
7, 14108, Note_off_c, 5, 74, 100
7, 14112, Note_on_c, 5, 76, 127
7, 14156, Note_off_c, 5, 76, 100
7, 14160, Note_on_c, 5, 74, 127
7, 14204, Note_off_c, 5, 74, 100
7, 14256, Note_on_c, 5, 74, 127
7, 14300, Note_off_c, 5, 74, 100
7, 14304, Note_on_c, 5, 76, 127
7, 14348, Note_off_c, 5, 76, 100
7, 14352, Note_on_c, 5, 74, 127
7, 14396, Note_off_c, 5, 74, 100
7, 14400, Note_on_c, 5, 76, 127
7, 14444, Note_off_c, 5, 76, 100
7, 14448, Note_on_c, 5, 74, 127
7, 14492, Note_off_c, 5, 74, 100
7, 14496, Note_on_c, 5, 76, 127
7, 14540, Note_off_c, 5, 76, 100
7, 14544, Note_on_c, 5, 74, 127
7, 14588, Note_off_c, 5, 74, 100
7, 14640, Note_on_c, 5, 74, 127
7, 14684, Note_off_c, 5, 74, 100
7, 14688, Note_on_c, 5, 76, 127
7, 14732, Note_off_c, 5, 76, 100
7, 14736, Note_on_c, 5, 74, 127
7, 14780, Note_off_c, 5, 74, 100
7, 14784, Note_on_c, 5, 76, 127
7, 14828, Note_off_c, 5, 76, 100
7, 14832, Note_on_c, 5, 74, 127
7, 14876, Note_off_c, 5, 74, 100
7, 14880, Note_on_c, 5, 76, 127
7, 14924, Note_off_c, 5, 76, 100
7, 14928, Note_on_c, 5, 74, 127
7, 14972, Note_off_c, 5, 74, 100
7, 15024, Note_on_c, 5, 74, 127
7, 15068, Note_off_c, 5, 74, 100
7, 15072, Note_on_c, 5, 76, 127
7, 15116, Note_off_c, 5, 76, 100
7, 15120, Note_on_c, 5, 74, 127
7, 15164, Note_off_c, 5, 74, 100
7, 15168, Note_on_c, 5, 76, 127
7, 15212, Note_off_c, 5, 76, 100
7, 15216, Note_on_c, 5, 74, 127
7, 15260, Note_off_c, 5, 74, 100
7, 15264, Note_on_c, 5, 76, 127
7, 15308, Note_off_c, 5, 76, 100
7, 15312, Note_on_c, 5, 74, 127
7, 15356, Note_off_c, 5, 74, 100
7, 15408, Note_on_c, 5, 74, 127
7, 15452, Note_off_c, 5, 74, 100
7, 15456, Note_on_c, 5, 76, 127
7, 15500, Note_off_c, 5, 76, 100
7, 15504, Note_on_c, 5, 74, 127
7, 15548, Note_off_c, 5, 74, 100
7, 15552, Note_on_c, 5, 76, 127
7, 15596, Note_off_c, 5, 76, 100
7, 15600, Note_on_c, 5, 74, 127
7, 15644, Note_off_c, 5, 74, 100
7, 15648, Note_on_c, 5, 76, 127
7, 15692, Note_off_c, 5, 76, 100
7, 15696, Note_on_c, 5, 74, 127
7, 15740, Note_off_c, 5, 74, 100
7, 15792, Note_on_c, 5, 74, 127
7, 15836, Note_off_c, 5, 74, 100
7, 15840, Note_on_c, 5, 76, 127
7, 15884, Note_off_c, 5, 76, 100
7, 15888, Note_on_c, 5, 74, 127
7, 15932, Note_off_c, 5, 74, 100
7, 15936, Note_on_c, 5, 76, 127
7, 15980, Note_off_c, 5, 76, 100
7, 15984, Note_on_c, 5, 74, 127
7, 16028, Note_off_c, 5, 74, 100
7, 16032, Note_on_c, 5, 76, 127
7, 16076, Note_off_c, 5, 76, 100
7, 16080, Note_on_c, 5, 74, 127
7, 16124, Note_off_c, 5, 74, 100
7, 16176, Note_on_c, 5, 74, 127
7, 16220, Note_off_c, 5, 74, 100
7, 16224, Note_on_c, 5, 76, 127
7, 16268, Note_off_c, 5, 76, 100
7, 16272, Note_on_c, 5, 74, 127
7, 16316, Note_off_c, 5, 74, 100
7, 16320, Note_on_c, 5, 76, 127
7, 16364, Note_off_c, 5, 76, 100
7, 16368, Note_on_c, 5, 74, 127
7, 16412, Note_off_c, 5, 74, 100
7, 16416, Note_on_c, 5, 76, 127
7, 16460, Note_off_c, 5, 76, 100
7, 16464, Note_on_c, 5, 74, 127
7, 16508, Note_off_c, 5, 74, 100
7, 16560, Note_on_c, 5, 74, 127
7, 16604, Note_off_c, 5, 74, 100
7, 16608, Note_on_c, 5, 76, 127
7, 16652, Note_off_c, 5, 76, 100
7, 16656, Note_on_c, 5, 74, 127
7, 16700, Note_off_c, 5, 74, 100
7, 16704, Note_on_c, 5, 76, 127
7, 16748, Note_off_c, 5, 76, 100
7, 16752, Note_on_c, 5, 74, 127
7, 16796, Note_off_c, 5, 74, 100
7, 16800, Note_on_c, 5, 76, 127
7, 16844, Note_off_c, 5, 76, 100
7, 16848, Note_on_c, 5, 74, 127
7, 16892, Note_off_c, 5, 74, 100
7, 16944, Note_on_c, 5, 73, 127
7, 16988, Note_off_c, 5, 73, 100
7, 16992, Note_on_c, 5, 74, 127
7, 17036, Note_off_c, 5, 74, 100
7, 17040, Note_on_c, 5, 73, 127
7, 17084, Note_off_c, 5, 73, 100
7, 17088, Note_on_c, 5, 74, 127
7, 17132, Note_off_c, 5, 74, 100
7, 17136, Note_on_c, 5, 73, 127
7, 17180, Note_off_c, 5, 73, 100
7, 17184, Note_on_c, 5, 74, 127
7, 17228, Note_off_c, 5, 74, 100
7, 17232, Note_on_c, 5, 73, 127
7, 17276, Note_off_c, 5, 73, 100
7, 40800, Note_on_c, 5, 90, 127
7, 40872, Note_off_c, 5, 90, 100
7, 40896, Note_on_c, 5, 88, 127
7, 40968, Note_off_c, 5, 88, 100
7, 40992, Note_on_c, 5, 90, 127
7, 41064, Note_off_c, 5, 90, 100
7, 41088, Note_on_c, 5, 93, 127
7, 41160, Note_off_c, 5, 93, 100
7, 41184, Note_on_c, 5, 90, 127
7, 41256, Note_off_c, 5, 90, 100
7, 41280, Note_on_c, 5, 87, 127
7, 41352, Note_off_c, 5, 87, 100
7, 41376, Note_on_c, 5, 90, 127
7, 41448, Note_off_c, 5, 90, 100
7, 41472, Note_on_c, 5, 83, 127
7, 41500, Note_off_c, 5, 83, 100
7, 41856, Note_on_c, 5, 85, 127
7, 41884, Note_off_c, 5, 85, 100
7, 42240, Note_on_c, 5, 87, 127
7, 42268, Note_off_c, 5, 87, 100
7, 42624, Note_on_c, 5, 88, 127
7, 42652, Note_off_c, 5, 88, 100
7, 43008, Note_on_c, 5, 87, 127
7, 43036, Note_off_c, 5, 87, 100
7, 43392, Note_on_c, 5, 88, 127
7, 43420, Note_off_c, 5, 88, 100
7, 43776, Note_on_c, 5, 85, 127
7, 43804, Note_off_c, 5, 85, 100
7, 44160, Note_on_c, 5, 83, 127
7, 44188, Note_off_c, 5, 83, 100
7, 44544, Note_on_c, 5, 81, 127
7, 44572, Note_off_c, 5, 81, 100
7, 45024, Note_on_c, 5, 79, 127
7, 45096, Note_off_c, 5, 79, 100
7, 45120, Note_on_c, 5, 78, 127
7, 45192, Note_off_c, 5, 78, 100
7, 45216, Note_on_c, 5, 79, 127
7, 45288, Note_off_c, 5, 79, 100
7, 45312, Note_on_c, 5, 83, 127
7, 45384, Note_off_c, 5, 83, 100
7, 46272, Note_on_c, 5, 76, 127
7, 46332, Note_off_c, 5, 76, 100
7, 46464, Note_on_c, 5, 75, 127
7, 46524, Note_off_c, 5, 75, 100
7, 46656, Note_on_c, 5, 74, 127
7, 46716, Note_off_c, 5, 74, 100
7, 46848, Note_on_c, 5, 73, 127
7, 46908, Note_off_c, 5, 73, 100
7, 47424, Note_on_c, 5, 74, 127
7, 47484, Note_off_c, 5, 74, 100
7, 47616, Note_on_c, 5, 73, 127
7, 47676, Note_off_c, 5, 73, 100
7, 47808, Note_on_c, 5, 72, 127
7, 47868, Note_off_c, 5, 72, 100
7, 48000, Note_on_c, 5, 71, 127
7, 48060, Note_off_c, 5, 71, 100
7, 48384, Note_on_c, 5, 76, 127
7, 48412, Note_off_c, 5, 76, 100
7, 48768, Note_on_c, 5, 74, 127
7, 48796, Note_off_c, 5, 74, 100
7, 49152, Note_on_c, 5, 76, 127
7, 49180, Note_off_c, 5, 76, 100
7, 49536, Note_on_c, 5, 78, 127
7, 49564, Note_off_c, 5, 78, 100
7, 49920, Note_on_c, 5, 76, 127
7, 49948, Note_off_c, 5, 76, 100
7, 50304, Note_on_c, 5, 78, 127
7, 50332, Note_off_c, 5, 78, 100
7, 50736, Note_on_c, 5, 79, 127
7, 50780, Note_off_c, 5, 79, 100
7, 50784, Note_on_c, 5, 81, 127
7, 50828, Note_off_c, 5, 81, 100
7, 50832, Note_on_c, 5, 79, 127
7, 50876, Note_off_c, 5, 79, 100
7, 50880, Note_on_c, 5, 81, 127
7, 50924, Note_off_c, 5, 81, 100
7, 50928, Note_on_c, 5, 79, 127
7, 50972, Note_off_c, 5, 79, 100
7, 50976, Note_on_c, 5, 81, 127
7, 51020, Note_off_c, 5, 81, 100
7, 51024, Note_on_c, 5, 79, 127
7, 51068, Note_off_c, 5, 79, 100
7, 51120, Note_on_c, 5, 78, 127
7, 51164, Note_off_c, 5, 78, 100
7, 51168, Note_on_c, 5, 79, 127
7, 51212, Note_off_c, 5, 79, 100
7, 51216, Note_on_c, 5, 78, 127
7, 51260, Note_off_c, 5, 78, 100
7, 51264, Note_on_c, 5, 79, 127
7, 51308, Note_off_c, 5, 79, 100
7, 51312, Note_on_c, 5, 78, 127
7, 51356, Note_off_c, 5, 78, 100
7, 51360, Note_on_c, 5, 79, 127
7, 51404, Note_off_c, 5, 79, 100
7, 51408, Note_on_c, 5, 78, 127
7, 51452, Note_off_c, 5, 78, 100
7, 51504, Note_on_c, 5, 77, 127
7, 51548, Note_off_c, 5, 77, 100
7, 51552, Note_on_c, 5, 79, 127
7, 51596, Note_off_c, 5, 79, 100
7, 51600, Note_on_c, 5, 77, 127
7, 51644, Note_off_c, 5, 77, 100
7, 51648, Note_on_c, 5, 79, 127
7, 51692, Note_off_c, 5, 79, 100
7, 51696, Note_on_c, 5, 77, 127
7, 51740, Note_off_c, 5, 77, 100
7, 51744, Note_on_c, 5, 79, 127
7, 51788, Note_off_c, 5, 79, 100
7, 51792, Note_on_c, 5, 77, 127
7, 51836, Note_off_c, 5, 77, 100
7, 51840, Note_on_c, 5, 76, 127
7, 51900, Note_off_c, 5, 76, 100
7, 53088, Note_on_c, 5, 78, 127
7, 53160, Note_off_c, 5, 78, 100
7, 53184, Note_on_c, 5, 76, 127
7, 53256, Note_off_c, 5, 76, 100
7, 53280, Note_on_c, 5, 78, 127
7, 53352, Note_off_c, 5, 78, 100
7, 53376, Note_on_c, 5, 79, 127
7, 53448, Note_off_c, 5, 79, 100
7, 53472, Note_on_c, 5, 83, 127
7, 53544, Note_off_c, 5, 83, 100
7, 53568, Note_on_c, 5, 81, 127
7, 53640, Note_off_c, 5, 81, 100
7, 53664, Note_on_c, 5, 83, 127
7, 53736, Note_off_c, 5, 83, 100
7, 53760, Note_on_c, 5, 84, 127
7, 53832, Note_off_c, 5, 84, 100
7, 53856, Note_on_c, 5, 81, 127
7, 53928, Note_off_c, 5, 81, 100
7, 53952, Note_on_c, 5, 78, 127
7, 54024, Note_off_c, 5, 78, 100
7, 54048, Note_on_c, 5, 74, 127
7, 54120, Note_off_c, 5, 74, 100
7, 54144, Note_on_c, 5, 79, 127
7, 54216, Note_off_c, 5, 79, 100
7, 54216, End_track
8, 0, Start_track
8, 0, Title_t, "www.bruno-de-giusti.net"
8, 0, Control_c, 6, 0, 0
8, 0, Program_c, 6, 6
8, 0, Control_c, 6, 7, 127
8, 0, Control_c, 6, 10, 0
8, 0, Control_c, 6, 91, 127
8, 0, Key_signature, 1, "major"
8, 192, Note_on_c, 6, 83, 127
8, 252, Note_off_c, 6, 83, 100
8, 384, Note_on_c, 6, 81, 127
8, 444, Note_off_c, 6, 81, 100
8, 960, Note_on_c, 6, 79, 127
8, 1020, Note_off_c, 6, 79, 100
8, 1344, Note_on_c, 6, 81, 127
8, 1404, Note_off_c, 6, 81, 100
8, 1536, Note_on_c, 6, 79, 127
8, 1596, Note_off_c, 6, 79, 100
8, 2112, Note_on_c, 6, 78, 127
8, 2172, Note_off_c, 6, 78, 100
8, 2496, Note_on_c, 6, 79, 127
8, 2556, Note_off_c, 6, 79, 100
8, 2688, Note_on_c, 6, 78, 127
8, 2748, Note_off_c, 6, 78, 100
8, 3264, Note_on_c, 6, 76, 127
8, 3324, Note_off_c, 6, 76, 100
8, 3648, Note_on_c, 6, 78, 127
8, 3708, Note_off_c, 6, 78, 100
8, 3840, Note_on_c, 6, 76, 127
8, 3900, Note_off_c, 6, 76, 100
8, 4416, Note_on_c, 6, 72, 127
8, 4476, Note_off_c, 6, 72, 100
8, 4656, Note_on_c, 6, 79, 127
8, 4700, Note_off_c, 6, 79, 100
8, 4704, Note_on_c, 6, 81, 127
8, 4748, Note_off_c, 6, 81, 100
8, 4752, Note_on_c, 6, 79, 127
8, 4796, Note_off_c, 6, 79, 100
8, 4800, Note_on_c, 6, 81, 127
8, 4844, Note_off_c, 6, 81, 100
8, 4848, Note_on_c, 6, 79, 127
8, 4892, Note_off_c, 6, 79, 100
8, 4896, Note_on_c, 6, 81, 127
8, 4940, Note_off_c, 6, 81, 100
8, 4944, Note_on_c, 6, 79, 127
8, 4988, Note_off_c, 6, 79, 100
8, 5040, Note_on_c, 6, 79, 127
8, 5084, Note_off_c, 6, 79, 100
8, 5088, Note_on_c, 6, 81, 127
8, 5132, Note_off_c, 6, 81, 100
8, 5136, Note_on_c, 6, 79, 127
8, 5180, Note_off_c, 6, 79, 100
8, 5184, Note_on_c, 6, 81, 127
8, 5228, Note_off_c, 6, 81, 100
8, 5232, Note_on_c, 6, 79, 127
8, 5276, Note_off_c, 6, 79, 100
8, 5280, Note_on_c, 6, 81, 127
8, 5324, Note_off_c, 6, 81, 100
8, 5328, Note_on_c, 6, 79, 127
8, 5372, Note_off_c, 6, 79, 100
8, 5424, Note_on_c, 6, 79, 127
8, 5468, Note_off_c, 6, 79, 100
8, 5472, Note_on_c, 6, 81, 127
8, 5516, Note_off_c, 6, 81, 100
8, 5520, Note_on_c, 6, 79, 127
8, 5564, Note_off_c, 6, 79, 100
8, 5568, Note_on_c, 6, 81, 127
8, 5612, Note_off_c, 6, 81, 100
8, 5616, Note_on_c, 6, 79, 127
8, 5660, Note_off_c, 6, 79, 100
8, 5664, Note_on_c, 6, 81, 127
8, 5708, Note_off_c, 6, 81, 100
8, 5712, Note_on_c, 6, 79, 127
8, 5756, Note_off_c, 6, 79, 100
8, 5808, Note_on_c, 6, 79, 127
8, 5852, Note_off_c, 6, 79, 100
8, 5856, Note_on_c, 6, 81, 127
8, 5900, Note_off_c, 6, 81, 100
8, 5904, Note_on_c, 6, 79, 127
8, 5948, Note_off_c, 6, 79, 100
8, 5952, Note_on_c, 6, 81, 127
8, 5996, Note_off_c, 6, 81, 100
8, 6000, Note_on_c, 6, 79, 127
8, 6044, Note_off_c, 6, 79, 100
8, 6048, Note_on_c, 6, 81, 127
8, 6092, Note_off_c, 6, 81, 100
8, 6096, Note_on_c, 6, 79, 127
8, 6140, Note_off_c, 6, 79, 100
8, 6192, Note_on_c, 6, 79, 127
8, 6236, Note_off_c, 6, 79, 100
8, 6240, Note_on_c, 6, 81, 127
8, 6284, Note_off_c, 6, 81, 100
8, 6288, Note_on_c, 6, 79, 127
8, 6332, Note_off_c, 6, 79, 100
8, 6336, Note_on_c, 6, 81, 127
8, 6380, Note_off_c, 6, 81, 100
8, 6384, Note_on_c, 6, 79, 127
8, 6428, Note_off_c, 6, 79, 100
8, 6432, Note_on_c, 6, 81, 127
8, 6476, Note_off_c, 6, 81, 100
8, 6480, Note_on_c, 6, 79, 127
8, 6524, Note_off_c, 6, 79, 100
8, 6576, Note_on_c, 6, 79, 127
8, 6620, Note_off_c, 6, 79, 100
8, 6624, Note_on_c, 6, 81, 127
8, 6668, Note_off_c, 6, 81, 100
8, 6672, Note_on_c, 6, 79, 127
8, 6716, Note_off_c, 6, 79, 100
8, 6720, Note_on_c, 6, 81, 127
8, 6764, Note_off_c, 6, 81, 100
8, 6768, Note_on_c, 6, 79, 127
8, 6812, Note_off_c, 6, 79, 100
8, 6816, Note_on_c, 6, 81, 127
8, 6860, Note_off_c, 6, 81, 100
8, 6864, Note_on_c, 6, 79, 127
8, 6908, Note_off_c, 6, 79, 100
8, 6960, Note_on_c, 6, 79, 127
8, 7004, Note_off_c, 6, 79, 100
8, 7008, Note_on_c, 6, 81, 127
8, 7052, Note_off_c, 6, 81, 100
8, 7056, Note_on_c, 6, 79, 127
8, 7100, Note_off_c, 6, 79, 100
8, 7104, Note_on_c, 6, 81, 127
8, 7148, Note_off_c, 6, 81, 100
8, 7152, Note_on_c, 6, 79, 127
8, 7196, Note_off_c, 6, 79, 100
8, 7200, Note_on_c, 6, 81, 127
8, 7244, Note_off_c, 6, 81, 100
8, 7248, Note_on_c, 6, 79, 127
8, 7292, Note_off_c, 6, 79, 100
8, 7344, Note_on_c, 6, 79, 127
8, 7388, Note_off_c, 6, 79, 100
8, 7392, Note_on_c, 6, 81, 127
8, 7436, Note_off_c, 6, 81, 100
8, 7440, Note_on_c, 6, 79, 127
8, 7484, Note_off_c, 6, 79, 100
8, 7488, Note_on_c, 6, 81, 127
8, 7532, Note_off_c, 6, 81, 100
8, 7536, Note_on_c, 6, 79, 127
8, 7580, Note_off_c, 6, 79, 100
8, 7584, Note_on_c, 6, 81, 127
8, 7628, Note_off_c, 6, 81, 100
8, 7632, Note_on_c, 6, 79, 127
8, 7676, Note_off_c, 6, 79, 100
8, 7728, Note_on_c, 6, 78, 127
8, 7772, Note_off_c, 6, 78, 100
8, 7776, Note_on_c, 6, 79, 127
8, 7820, Note_off_c, 6, 79, 100
8, 7824, Note_on_c, 6, 78, 127
8, 7868, Note_off_c, 6, 78, 100
8, 7872, Note_on_c, 6, 79, 127
8, 7916, Note_off_c, 6, 79, 100
8, 7920, Note_on_c, 6, 78, 127
8, 7964, Note_off_c, 6, 78, 100
8, 7968, Note_on_c, 6, 79, 127
8, 8012, Note_off_c, 6, 79, 100
8, 8016, Note_on_c, 6, 78, 127
8, 8060, Note_off_c, 6, 78, 100
8, 8112, Note_on_c, 6, 79, 127
8, 8156, Note_off_c, 6, 79, 100
8, 8160, Note_on_c, 6, 81, 127
8, 8204, Note_off_c, 6, 81, 100
8, 8208, Note_on_c, 6, 79, 127
8, 8252, Note_off_c, 6, 79, 100
8, 8256, Note_on_c, 6, 81, 127
8, 8300, Note_off_c, 6, 81, 100
8, 8304, Note_on_c, 6, 79, 127
8, 8348, Note_off_c, 6, 79, 100
8, 8352, Note_on_c, 6, 81, 127
8, 8396, Note_off_c, 6, 81, 100
8, 8400, Note_on_c, 6, 79, 127
8, 8444, Note_off_c, 6, 79, 100
8, 8496, Note_on_c, 6, 79, 127
8, 8540, Note_off_c, 6, 79, 100
8, 8544, Note_on_c, 6, 81, 127
8, 8588, Note_off_c, 6, 81, 100
8, 8592, Note_on_c, 6, 79, 127
8, 8636, Note_off_c, 6, 79, 100
8, 8640, Note_on_c, 6, 81, 127
8, 8684, Note_off_c, 6, 81, 100
8, 8688, Note_on_c, 6, 79, 127
8, 8732, Note_off_c, 6, 79, 100
8, 8736, Note_on_c, 6, 81, 127
8, 8780, Note_off_c, 6, 81, 100
8, 8784, Note_on_c, 6, 79, 127
8, 8828, Note_off_c, 6, 79, 100
8, 8880, Note_on_c, 6, 79, 127
8, 8924, Note_off_c, 6, 79, 100
8, 8928, Note_on_c, 6, 81, 127
8, 8972, Note_off_c, 6, 81, 100
8, 8976, Note_on_c, 6, 79, 127
8, 9020, Note_off_c, 6, 79, 100
8, 9024, Note_on_c, 6, 81, 127
8, 9068, Note_off_c, 6, 81, 100
8, 9072, Note_on_c, 6, 79, 127
8, 9116, Note_off_c, 6, 79, 100
8, 9120, Note_on_c, 6, 81, 127
8, 9164, Note_off_c, 6, 81, 100
8, 9168, Note_on_c, 6, 79, 127
8, 9212, Note_off_c, 6, 79, 100
8, 13872, Note_on_c, 6, 66, 127
8, 13916, Note_off_c, 6, 66, 100
8, 13920, Note_on_c, 6, 67, 127
8, 13964, Note_off_c, 6, 67, 100
8, 13968, Note_on_c, 6, 66, 127
8, 14012, Note_off_c, 6, 66, 100
8, 14016, Note_on_c, 6, 67, 127
8, 14060, Note_off_c, 6, 67, 100
8, 14064, Note_on_c, 6, 66, 127
8, 14108, Note_off_c, 6, 66, 100
8, 14112, Note_on_c, 6, 67, 127
8, 14156, Note_off_c, 6, 67, 100
8, 14160, Note_on_c, 6, 66, 127
8, 14204, Note_off_c, 6, 66, 100
8, 14256, Note_on_c, 6, 66, 127
8, 14300, Note_off_c, 6, 66, 100
8, 14304, Note_on_c, 6, 67, 127
8, 14348, Note_off_c, 6, 67, 100
8, 14352, Note_on_c, 6, 66, 127
8, 14396, Note_off_c, 6, 66, 100
8, 14400, Note_on_c, 6, 67, 127
8, 14444, Note_off_c, 6, 67, 100
8, 14448, Note_on_c, 6, 66, 127
8, 14492, Note_off_c, 6, 66, 100
8, 14496, Note_on_c, 6, 67, 127
8, 14540, Note_off_c, 6, 67, 100
8, 14544, Note_on_c, 6, 66, 127
8, 14588, Note_off_c, 6, 66, 100
8, 14640, Note_on_c, 6, 66, 127
8, 14684, Note_off_c, 6, 66, 100
8, 14688, Note_on_c, 6, 67, 127
8, 14732, Note_off_c, 6, 67, 100
8, 14736, Note_on_c, 6, 66, 127
8, 14780, Note_off_c, 6, 66, 100
8, 14784, Note_on_c, 6, 67, 127
8, 14828, Note_off_c, 6, 67, 100
8, 14832, Note_on_c, 6, 66, 127
8, 14876, Note_off_c, 6, 66, 100
8, 14880, Note_on_c, 6, 67, 127
8, 14924, Note_off_c, 6, 67, 100
8, 14928, Note_on_c, 6, 66, 127
8, 14972, Note_off_c, 6, 66, 100
8, 15024, Note_on_c, 6, 66, 127
8, 15068, Note_off_c, 6, 66, 100
8, 15072, Note_on_c, 6, 67, 127
8, 15116, Note_off_c, 6, 67, 100
8, 15120, Note_on_c, 6, 66, 127
8, 15164, Note_off_c, 6, 66, 100
8, 15168, Note_on_c, 6, 67, 127
8, 15212, Note_off_c, 6, 67, 100
8, 15216, Note_on_c, 6, 66, 127
8, 15260, Note_off_c, 6, 66, 100
8, 15264, Note_on_c, 6, 67, 127
8, 15308, Note_off_c, 6, 67, 100
8, 15312, Note_on_c, 6, 66, 127
8, 15356, Note_off_c, 6, 66, 100
8, 15408, Note_on_c, 6, 66, 127
8, 15452, Note_off_c, 6, 66, 100
8, 15456, Note_on_c, 6, 67, 127
8, 15500, Note_off_c, 6, 67, 100
8, 15504, Note_on_c, 6, 66, 127
8, 15548, Note_off_c, 6, 66, 100
8, 15552, Note_on_c, 6, 67, 127
8, 15596, Note_off_c, 6, 67, 100
8, 15600, Note_on_c, 6, 66, 127
8, 15644, Note_off_c, 6, 66, 100
8, 15648, Note_on_c, 6, 67, 127
8, 15692, Note_off_c, 6, 67, 100
8, 15696, Note_on_c, 6, 66, 127
8, 15740, Note_off_c, 6, 66, 100
8, 15792, Note_on_c, 6, 66, 127
8, 15836, Note_off_c, 6, 66, 100
8, 15840, Note_on_c, 6, 67, 127
8, 15884, Note_off_c, 6, 67, 100
8, 15888, Note_on_c, 6, 66, 127
8, 15932, Note_off_c, 6, 66, 100
8, 15936, Note_on_c, 6, 67, 127
8, 15980, Note_off_c, 6, 67, 100
8, 15984, Note_on_c, 6, 66, 127
8, 16028, Note_off_c, 6, 66, 100
8, 16032, Note_on_c, 6, 67, 127
8, 16076, Note_off_c, 6, 67, 100
8, 16080, Note_on_c, 6, 66, 127
8, 16124, Note_off_c, 6, 66, 100
8, 16176, Note_on_c, 6, 66, 127
8, 16220, Note_off_c, 6, 66, 100
8, 16224, Note_on_c, 6, 67, 127
8, 16268, Note_off_c, 6, 67, 100
8, 16272, Note_on_c, 6, 66, 127
8, 16316, Note_off_c, 6, 66, 100
8, 16320, Note_on_c, 6, 67, 127
8, 16364, Note_off_c, 6, 67, 100
8, 16368, Note_on_c, 6, 66, 127
8, 16412, Note_off_c, 6, 66, 100
8, 16416, Note_on_c, 6, 67, 127
8, 16460, Note_off_c, 6, 67, 100
8, 16464, Note_on_c, 6, 66, 127
8, 16508, Note_off_c, 6, 66, 100
8, 16560, Note_on_c, 6, 66, 127
8, 16604, Note_off_c, 6, 66, 100
8, 16608, Note_on_c, 6, 67, 127
8, 16652, Note_off_c, 6, 67, 100
8, 16656, Note_on_c, 6, 66, 127
8, 16700, Note_off_c, 6, 66, 100
8, 16704, Note_on_c, 6, 67, 127
8, 16748, Note_off_c, 6, 67, 100
8, 16752, Note_on_c, 6, 66, 127
8, 16796, Note_off_c, 6, 66, 100
8, 16800, Note_on_c, 6, 67, 127
8, 16844, Note_off_c, 6, 67, 100
8, 16848, Note_on_c, 6, 66, 127
8, 16892, Note_off_c, 6, 66, 100
8, 16944, Note_on_c, 6, 64, 127
8, 16988, Note_off_c, 6, 64, 100
8, 16992, Note_on_c, 6, 66, 127
8, 17036, Note_off_c, 6, 66, 100
8, 17040, Note_on_c, 6, 64, 127
8, 17084, Note_off_c, 6, 64, 100
8, 17088, Note_on_c, 6, 66, 127
8, 17132, Note_off_c, 6, 66, 100
8, 17136, Note_on_c, 6, 64, 127
8, 17180, Note_off_c, 6, 64, 100
8, 17184, Note_on_c, 6, 66, 127
8, 17228, Note_off_c, 6, 66, 100
8, 17232, Note_on_c, 6, 64, 127
8, 17276, Note_off_c, 6, 64, 100
8, 36864, Note_on_c, 6, 74, 127
8, 36924, Note_off_c, 6, 74, 100
8, 37440, Note_on_c, 6, 72, 127
8, 37500, Note_off_c, 6, 72, 100
8, 37824, Note_on_c, 6, 78, 127
8, 37884, Note_off_c, 6, 78, 100
8, 38016, Note_on_c, 6, 79, 127
8, 38076, Note_off_c, 6, 79, 100
8, 38592, Note_on_c, 6, 78, 127
8, 38652, Note_off_c, 6, 78, 100
8, 38976, Note_on_c, 6, 83, 127
8, 39036, Note_off_c, 6, 83, 100
8, 41520, Note_on_c, 6, 76, 127
8, 41564, Note_off_c, 6, 76, 100
8, 41568, Note_on_c, 6, 78, 127
8, 41612, Note_off_c, 6, 78, 100
8, 41616, Note_on_c, 6, 76, 127
8, 41660, Note_off_c, 6, 76, 100
8, 41664, Note_on_c, 6, 78, 127
8, 41708, Note_off_c, 6, 78, 100
8, 41712, Note_on_c, 6, 76, 127
8, 41756, Note_off_c, 6, 76, 100
8, 41760, Note_on_c, 6, 78, 127
8, 41804, Note_off_c, 6, 78, 100
8, 41808, Note_on_c, 6, 76, 127
8, 41852, Note_off_c, 6, 76, 100
8, 41904, Note_on_c, 6, 76, 127
8, 41948, Note_off_c, 6, 76, 100
8, 41952, Note_on_c, 6, 78, 127
8, 41996, Note_off_c, 6, 78, 100
8, 42000, Note_on_c, 6, 76, 127
8, 42044, Note_off_c, 6, 76, 100
8, 42048, Note_on_c, 6, 78, 127
8, 42092, Note_off_c, 6, 78, 100
8, 42096, Note_on_c, 6, 76, 127
8, 42140, Note_off_c, 6, 76, 100
8, 42144, Note_on_c, 6, 78, 127
8, 42188, Note_off_c, 6, 78, 100
8, 42192, Note_on_c, 6, 76, 127
8, 42236, Note_off_c, 6, 76, 100
8, 42288, Note_on_c, 6, 76, 127
8, 42332, Note_off_c, 6, 76, 100
8, 42336, Note_on_c, 6, 78, 127
8, 42380, Note_off_c, 6, 78, 100
8, 42384, Note_on_c, 6, 76, 127
8, 42428, Note_off_c, 6, 76, 100
8, 42432, Note_on_c, 6, 78, 127
8, 42476, Note_off_c, 6, 78, 100
8, 42480, Note_on_c, 6, 76, 127
8, 42524, Note_off_c, 6, 76, 100
8, 42528, Note_on_c, 6, 78, 127
8, 42572, Note_off_c, 6, 78, 100
8, 42576, Note_on_c, 6, 76, 127
8, 42620, Note_off_c, 6, 76, 100
8, 42672, Note_on_c, 6, 76, 127
8, 42716, Note_off_c, 6, 76, 100
8, 42720, Note_on_c, 6, 78, 127
8, 42764, Note_off_c, 6, 78, 100
8, 42768, Note_on_c, 6, 76, 127
8, 42812, Note_off_c, 6, 76, 100
8, 42816, Note_on_c, 6, 78, 127
8, 42860, Note_off_c, 6, 78, 100
8, 42864, Note_on_c, 6, 76, 127
8, 42908, Note_off_c, 6, 76, 100
8, 42912, Note_on_c, 6, 78, 127
8, 42956, Note_off_c, 6, 78, 100
8, 42960, Note_on_c, 6, 76, 127
8, 43004, Note_off_c, 6, 76, 100
8, 43056, Note_on_c, 6, 76, 127
8, 43100, Note_off_c, 6, 76, 100
8, 43104, Note_on_c, 6, 78, 127
8, 43148, Note_off_c, 6, 78, 100
8, 43152, Note_on_c, 6, 76, 127
8, 43196, Note_off_c, 6, 76, 100
8, 43200, Note_on_c, 6, 78, 127
8, 43244, Note_off_c, 6, 78, 100
8, 43248, Note_on_c, 6, 76, 127
8, 43292, Note_off_c, 6, 76, 100
8, 43296, Note_on_c, 6, 78, 127
8, 43340, Note_off_c, 6, 78, 100
8, 43344, Note_on_c, 6, 76, 127
8, 43388, Note_off_c, 6, 76, 100
8, 43440, Note_on_c, 6, 76, 127
8, 43484, Note_off_c, 6, 76, 100
8, 43488, Note_on_c, 6, 78, 127
8, 43532, Note_off_c, 6, 78, 100
8, 43536, Note_on_c, 6, 76, 127
8, 43580, Note_off_c, 6, 76, 100
8, 43584, Note_on_c, 6, 78, 127
8, 43628, Note_off_c, 6, 78, 100
8, 43632, Note_on_c, 6, 76, 127
8, 43676, Note_off_c, 6, 76, 100
8, 43680, Note_on_c, 6, 78, 127
8, 43724, Note_off_c, 6, 78, 100
8, 43728, Note_on_c, 6, 76, 127
8, 43772, Note_off_c, 6, 76, 100
8, 43824, Note_on_c, 6, 76, 127
8, 43868, Note_off_c, 6, 76, 100
8, 43872, Note_on_c, 6, 78, 127
8, 43916, Note_off_c, 6, 78, 100
8, 43920, Note_on_c, 6, 76, 127
8, 43964, Note_off_c, 6, 76, 100
8, 43968, Note_on_c, 6, 78, 127
8, 44012, Note_off_c, 6, 78, 100
8, 44016, Note_on_c, 6, 76, 127
8, 44060, Note_off_c, 6, 76, 100
8, 44064, Note_on_c, 6, 78, 127
8, 44108, Note_off_c, 6, 78, 100
8, 44112, Note_on_c, 6, 76, 127
8, 44156, Note_off_c, 6, 76, 100
8, 44208, Note_on_c, 6, 76, 127
8, 44252, Note_off_c, 6, 76, 100
8, 44256, Note_on_c, 6, 78, 127
8, 44300, Note_off_c, 6, 78, 100
8, 44304, Note_on_c, 6, 76, 127
8, 44348, Note_off_c, 6, 76, 100
8, 44352, Note_on_c, 6, 78, 127
8, 44396, Note_off_c, 6, 78, 100
8, 44400, Note_on_c, 6, 76, 127
8, 44444, Note_off_c, 6, 76, 100
8, 44448, Note_on_c, 6, 78, 127
8, 44492, Note_off_c, 6, 78, 100
8, 44496, Note_on_c, 6, 76, 127
8, 44540, Note_off_c, 6, 76, 100
8, 44592, Note_on_c, 6, 75, 127
8, 44636, Note_off_c, 6, 75, 100
8, 44640, Note_on_c, 6, 76, 127
8, 44684, Note_off_c, 6, 76, 100
8, 44688, Note_on_c, 6, 75, 127
8, 44732, Note_off_c, 6, 75, 100
8, 44736, Note_on_c, 6, 76, 127
8, 44780, Note_off_c, 6, 76, 100
8, 44784, Note_on_c, 6, 75, 127
8, 44828, Note_off_c, 6, 75, 100
8, 44832, Note_on_c, 6, 76, 127
8, 44876, Note_off_c, 6, 76, 100
8, 44880, Note_on_c, 6, 75, 127
8, 44924, Note_off_c, 6, 75, 100
8, 45024, Note_on_c, 6, 76, 127
8, 45096, Note_off_c, 6, 76, 100
8, 45120, Note_on_c, 6, 75, 127
8, 45192, Note_off_c, 6, 75, 100
8, 45216, Note_on_c, 6, 76, 127
8, 45288, Note_off_c, 6, 76, 100
8, 45312, Note_on_c, 6, 71, 127
8, 45384, Note_off_c, 6, 71, 100
8, 46128, Note_on_c, 6, 79, 127
8, 46172, Note_off_c, 6, 79, 100
8, 46176, Note_on_c, 6, 81, 127
8, 46220, Note_off_c, 6, 81, 100
8, 46224, Note_on_c, 6, 79, 127
8, 46268, Note_off_c, 6, 79, 100
8, 46272, Note_on_c, 6, 81, 127
8, 46316, Note_off_c, 6, 81, 100
8, 46320, Note_on_c, 6, 79, 127
8, 46364, Note_off_c, 6, 79, 100
8, 46368, Note_on_c, 6, 81, 127
8, 46412, Note_off_c, 6, 81, 100
8, 46416, Note_on_c, 6, 79, 127
8, 46460, Note_off_c, 6, 79, 100
8, 46512, Note_on_c, 6, 79, 127
8, 46556, Note_off_c, 6, 79, 100
8, 46560, Note_on_c, 6, 81, 127
8, 46604, Note_off_c, 6, 81, 100
8, 46608, Note_on_c, 6, 79, 127
8, 46652, Note_off_c, 6, 79, 100
8, 46656, Note_on_c, 6, 81, 127
8, 46700, Note_off_c, 6, 81, 100
8, 46704, Note_on_c, 6, 79, 127
8, 46748, Note_off_c, 6, 79, 100
8, 46752, Note_on_c, 6, 81, 127
8, 46796, Note_off_c, 6, 81, 100
8, 46800, Note_on_c, 6, 79, 127
8, 46844, Note_off_c, 6, 79, 100
8, 46896, Note_on_c, 6, 79, 127
8, 46940, Note_off_c, 6, 79, 100
8, 46944, Note_on_c, 6, 81, 127
8, 46988, Note_off_c, 6, 81, 100
8, 46992, Note_on_c, 6, 79, 127
8, 47036, Note_off_c, 6, 79, 100
8, 47040, Note_on_c, 6, 81, 127
8, 47084, Note_off_c, 6, 81, 100
8, 47088, Note_on_c, 6, 79, 127
8, 47132, Note_off_c, 6, 79, 100
8, 47136, Note_on_c, 6, 81, 127
8, 47180, Note_off_c, 6, 81, 100
8, 47184, Note_on_c, 6, 79, 127
8, 47228, Note_off_c, 6, 79, 100
8, 47280, Note_on_c, 6, 79, 127
8, 47324, Note_off_c, 6, 79, 100
8, 47328, Note_on_c, 6, 81, 127
8, 47372, Note_off_c, 6, 81, 100
8, 47376, Note_on_c, 6, 79, 127
8, 47420, Note_off_c, 6, 79, 100
8, 47424, Note_on_c, 6, 81, 127
8, 47468, Note_off_c, 6, 81, 100
8, 47472, Note_on_c, 6, 79, 127
8, 47516, Note_off_c, 6, 79, 100
8, 47520, Note_on_c, 6, 81, 127
8, 47564, Note_off_c, 6, 81, 100
8, 47568, Note_on_c, 6, 79, 127
8, 47612, Note_off_c, 6, 79, 100
8, 47664, Note_on_c, 6, 79, 127
8, 47708, Note_off_c, 6, 79, 100
8, 47712, Note_on_c, 6, 81, 127
8, 47756, Note_off_c, 6, 81, 100
8, 47760, Note_on_c, 6, 79, 127
8, 47804, Note_off_c, 6, 79, 100
8, 47808, Note_on_c, 6, 81, 127
8, 47852, Note_off_c, 6, 81, 100
8, 47856, Note_on_c, 6, 79, 127
8, 47900, Note_off_c, 6, 79, 100
8, 47904, Note_on_c, 6, 81, 127
8, 47948, Note_off_c, 6, 81, 100
8, 47952, Note_on_c, 6, 79, 127
8, 47996, Note_off_c, 6, 79, 100
8, 48048, Note_on_c, 6, 79, 127
8, 48092, Note_off_c, 6, 79, 100
8, 48096, Note_on_c, 6, 81, 127
8, 48140, Note_off_c, 6, 81, 100
8, 48144, Note_on_c, 6, 79, 127
8, 48188, Note_off_c, 6, 79, 100
8, 48192, Note_on_c, 6, 81, 127
8, 48236, Note_off_c, 6, 81, 100
8, 48240, Note_on_c, 6, 79, 127
8, 48284, Note_off_c, 6, 79, 100
8, 48288, Note_on_c, 6, 81, 127
8, 48332, Note_off_c, 6, 81, 100
8, 48336, Note_on_c, 6, 79, 127
8, 48380, Note_off_c, 6, 79, 100
8, 48576, Note_on_c, 6, 88, 127
8, 48636, Note_off_c, 6, 88, 100
8, 48768, Note_on_c, 6, 89, 127
8, 48828, Note_off_c, 6, 89, 100
8, 48960, Note_on_c, 6, 90, 127
8, 49020, Note_off_c, 6, 90, 100
8, 49152, Note_on_c, 6, 91, 127
8, 49212, Note_off_c, 6, 91, 100
8, 49728, Note_on_c, 6, 90, 127
8, 49788, Note_off_c, 6, 90, 100
8, 49920, Note_on_c, 6, 91, 127
8, 49980, Note_off_c, 6, 91, 100
8, 50112, Note_on_c, 6, 92, 127
8, 50172, Note_off_c, 6, 92, 100
8, 50304, Note_on_c, 6, 93, 127
8, 50364, Note_off_c, 6, 93, 100
8, 50688, Note_on_c, 6, 67, 127
8, 50748, Note_off_c, 6, 67, 100
8, 51888, Note_on_c, 6, 72, 127
8, 51932, Note_off_c, 6, 72, 100
8, 51936, Note_on_c, 6, 74, 127
8, 51980, Note_off_c, 6, 74, 100
8, 51984, Note_on_c, 6, 72, 127
8, 52028, Note_off_c, 6, 72, 100
8, 52032, Note_on_c, 6, 74, 127
8, 52076, Note_off_c, 6, 74, 100
8, 52080, Note_on_c, 6, 72, 127
8, 52124, Note_off_c, 6, 72, 100
8, 52128, Note_on_c, 6, 74, 127
8, 52172, Note_off_c, 6, 74, 100
8, 52176, Note_on_c, 6, 72, 127
8, 52220, Note_off_c, 6, 72, 100
8, 52272, Note_on_c, 6, 71, 127
8, 52316, Note_off_c, 6, 71, 100
8, 52320, Note_on_c, 6, 72, 127
8, 52364, Note_off_c, 6, 72, 100
8, 52368, Note_on_c, 6, 71, 127
8, 52412, Note_off_c, 6, 71, 100
8, 52416, Note_on_c, 6, 72, 127
8, 52460, Note_off_c, 6, 72, 100
8, 52464, Note_on_c, 6, 71, 127
8, 52508, Note_off_c, 6, 71, 100
8, 52512, Note_on_c, 6, 72, 127
8, 52556, Note_off_c, 6, 72, 100
8, 52560, Note_on_c, 6, 71, 127
8, 52604, Note_off_c, 6, 71, 100
8, 52656, Note_on_c, 6, 70, 127
8, 52700, Note_off_c, 6, 70, 100
8, 52704, Note_on_c, 6, 72, 127
8, 52748, Note_off_c, 6, 72, 100
8, 52752, Note_on_c, 6, 70, 127
8, 52796, Note_off_c, 6, 70, 100
8, 52800, Note_on_c, 6, 72, 127
8, 52844, Note_off_c, 6, 72, 100
8, 52848, Note_on_c, 6, 70, 127
8, 52892, Note_off_c, 6, 70, 100
8, 52896, Note_on_c, 6, 72, 127
8, 52940, Note_off_c, 6, 72, 100
8, 52944, Note_on_c, 6, 70, 127
8, 52988, Note_off_c, 6, 70, 100
8, 53088, Note_on_c, 6, 74, 127
8, 53160, Note_off_c, 6, 74, 100
8, 53184, Note_on_c, 6, 72, 127
8, 53256, Note_off_c, 6, 72, 100
8, 53280, Note_on_c, 6, 74, 127
8, 53352, Note_off_c, 6, 74, 100
8, 53376, Note_on_c, 6, 71, 127
8, 53448, Note_off_c, 6, 71, 100
8, 53472, Note_on_c, 6, 67, 127
8, 53544, Note_off_c, 6, 67, 100
8, 53568, Note_on_c, 6, 66, 127
8, 53640, Note_off_c, 6, 66, 100
8, 53664, Note_on_c, 6, 67, 127
8, 53736, Note_off_c, 6, 67, 100
8, 53760, Note_on_c, 6, 62, 127
8, 53832, Note_off_c, 6, 62, 100
8, 53856, Note_on_c, 6, 66, 127
8, 53928, Note_off_c, 6, 66, 100
8, 53952, Note_on_c, 6, 69, 127
8, 54024, Note_off_c, 6, 69, 100
8, 54048, Note_on_c, 6, 72, 127
8, 54120, Note_off_c, 6, 72, 100
8, 54144, Note_on_c, 6, 71, 127
8, 54216, Note_off_c, 6, 71, 100
8, 54216, End_track
9, 0, Start_track
9, 0, Title_t, "All rights reserved"
9, 0, Control_c, 7, 0, 0
9, 0, Program_c, 7, 6
9, 0, Control_c, 7, 7, 127
9, 0, Control_c, 7, 10, 42
9, 0, Control_c, 7, 91, 127
9, 0, Key_signature, 1, "major"
9, 0, Note_on_c, 7, 67, 127
9, 60, Note_off_c, 7, 67, 100
9, 576, Note_on_c, 7, 66, 127
9, 636, Note_off_c, 7, 66, 100
9, 768, Note_on_c, 7, 64, 127
9, 828, Note_off_c, 7, 64, 100
9, 1152, Note_on_c, 7, 66, 127
9, 1212, Note_off_c, 7, 66, 100
9, 1728, Note_on_c, 7, 64, 127
9, 1788, Note_off_c, 7, 64, 100
9, 1920, Note_on_c, 7, 62, 127
9, 1980, Note_off_c, 7, 62, 100
9, 2304, Note_on_c, 7, 64, 127
9, 2364, Note_off_c, 7, 64, 100
9, 2880, Note_on_c, 7, 67, 127
9, 2940, Note_off_c, 7, 67, 100
9, 3072, Note_on_c, 7, 69, 127
9, 3132, Note_off_c, 7, 69, 100
9, 3456, Note_on_c, 7, 62, 127
9, 3516, Note_off_c, 7, 62, 100
9, 4032, Note_on_c, 7, 67, 127
9, 4092, Note_off_c, 7, 67, 100
9, 4224, Note_on_c, 7, 66, 127
9, 4284, Note_off_c, 7, 66, 100
9, 4608, Note_on_c, 7, 71, 127
9, 4636, Note_off_c, 7, 71, 100
9, 4992, Note_on_c, 7, 72, 127
9, 5020, Note_off_c, 7, 72, 100
9, 5376, Note_on_c, 7, 74, 127
9, 5404, Note_off_c, 7, 74, 100
9, 5760, Note_on_c, 7, 72, 127
9, 5788, Note_off_c, 7, 72, 100
9, 6144, Note_on_c, 7, 74, 127
9, 6172, Note_off_c, 7, 74, 100
9, 6528, Note_on_c, 7, 76, 127
9, 6556, Note_off_c, 7, 76, 100
9, 6912, Note_on_c, 7, 74, 127
9, 6940, Note_off_c, 7, 74, 100
9, 7296, Note_on_c, 7, 76, 127
9, 7324, Note_off_c, 7, 76, 100
9, 7680, Note_on_c, 7, 69, 127
9, 7708, Note_off_c, 7, 69, 100
9, 8064, Note_on_c, 7, 71, 127
9, 8092, Note_off_c, 7, 71, 100
9, 8448, Note_on_c, 7, 72, 127
9, 8476, Note_off_c, 7, 72, 100
9, 8832, Note_on_c, 7, 74, 127
9, 8860, Note_off_c, 7, 74, 100
9, 9216, Note_on_c, 7, 67, 127
9, 9288, Note_off_c, 7, 67, 100
9, 9312, Note_on_c, 7, 71, 127
9, 9384, Note_off_c, 7, 71, 100
9, 9408, Note_on_c, 7, 69, 127
9, 9480, Note_off_c, 7, 69, 100
9, 9504, Note_on_c, 7, 71, 127
9, 9576, Note_off_c, 7, 71, 100
9, 9600, Note_on_c, 7, 76, 127
9, 9672, Note_off_c, 7, 76, 100
9, 9696, Note_on_c, 7, 79, 127
9, 9768, Note_off_c, 7, 79, 100
9, 9792, Note_on_c, 7, 78, 127
9, 9864, Note_off_c, 7, 78, 100
9, 9888, Note_on_c, 7, 79, 127
9, 9960, Note_off_c, 7, 79, 100
9, 9984, Note_on_c, 7, 83, 127
9, 10056, Note_off_c, 7, 83, 100
9, 10080, Note_on_c, 7, 79, 127
9, 10152, Note_off_c, 7, 79, 100
9, 10176, Note_on_c, 7, 76, 127
9, 10248, Note_off_c, 7, 76, 100
9, 10272, Note_on_c, 7, 73, 127
9, 10344, Note_off_c, 7, 73, 100
9, 10368, Note_on_c, 7, 66, 127
9, 10440, Note_off_c, 7, 66, 100
9, 10464, Note_on_c, 7, 69, 127
9, 10536, Note_off_c, 7, 69, 100
9, 10560, Note_on_c, 7, 67, 127
9, 10632, Note_off_c, 7, 67, 100
9, 10656, Note_on_c, 7, 69, 127
9, 10728, Note_off_c, 7, 69, 100
9, 10752, Note_on_c, 7, 74, 127
9, 10824, Note_off_c, 7, 74, 100
9, 10848, Note_on_c, 7, 78, 127
9, 10920, Note_off_c, 7, 78, 100
9, 10944, Note_on_c, 7, 76, 127
9, 11016, Note_off_c, 7, 76, 100
9, 11040, Note_on_c, 7, 78, 127
9, 11112, Note_off_c, 7, 78, 100
9, 11136, Note_on_c, 7, 81, 127
9, 11208, Note_off_c, 7, 81, 100
9, 11232, Note_on_c, 7, 78, 127
9, 11304, Note_off_c, 7, 78, 100
9, 11328, Note_on_c, 7, 74, 127
9, 11400, Note_off_c, 7, 74, 100
9, 11424, Note_on_c, 7, 71, 127
9, 11496, Note_off_c, 7, 71, 100
9, 11520, Note_on_c, 7, 64, 127
9, 11592, Note_off_c, 7, 64, 100
9, 11616, Note_on_c, 7, 67, 127
9, 11688, Note_off_c, 7, 67, 100
9, 11712, Note_on_c, 7, 66, 127
9, 11784, Note_off_c, 7, 66, 100
9, 11808, Note_on_c, 7, 67, 127
9, 11880, Note_off_c, 7, 67, 100
9, 11904, Note_on_c, 7, 71, 127
9, 11976, Note_off_c, 7, 71, 100
9, 12000, Note_on_c, 7, 76, 127
9, 12072, Note_off_c, 7, 76, 100
9, 12096, Note_on_c, 7, 75, 127
9, 12168, Note_off_c, 7, 75, 100
9, 12192, Note_on_c, 7, 76, 127
9, 12264, Note_off_c, 7, 76, 100
9, 12288, Note_on_c, 7, 79, 127
9, 12360, Note_off_c, 7, 79, 100
9, 12384, Note_on_c, 7, 76, 127
9, 12456, Note_off_c, 7, 76, 100
9, 12480, Note_on_c, 7, 71, 127
9, 12552, Note_off_c, 7, 71, 100
9, 12576, Note_on_c, 7, 67, 127
9, 12648, Note_off_c, 7, 67, 100
9, 12672, Note_on_c, 7, 69, 127
9, 12744, Note_off_c, 7, 69, 100
9, 12768, Note_on_c, 7, 76, 127
9, 12840, Note_off_c, 7, 76, 100
9, 12864, Note_on_c, 7, 74, 127
9, 12936, Note_off_c, 7, 74, 100
9, 12960, Note_on_c, 7, 76, 127
9, 13032, Note_off_c, 7, 76, 100
9, 13056, Note_on_c, 7, 79, 127
9, 13128, Note_off_c, 7, 79, 100
9, 13152, Note_on_c, 7, 81, 127
9, 13224, Note_off_c, 7, 81, 100
9, 13248, Note_on_c, 7, 79, 127
9, 13320, Note_off_c, 7, 79, 100
9, 13344, Note_on_c, 7, 81, 127
9, 13416, Note_off_c, 7, 81, 100
9, 13440, Note_on_c, 7, 79, 127
9, 13512, Note_off_c, 7, 79, 100
9, 13536, Note_on_c, 7, 76, 127
9, 13608, Note_off_c, 7, 76, 100
9, 13632, Note_on_c, 7, 73, 127
9, 13704, Note_off_c, 7, 73, 100
9, 13728, Note_on_c, 7, 69, 127
9, 13800, Note_off_c, 7, 69, 100
9, 13824, Note_on_c, 7, 62, 127
9, 13852, Note_off_c, 7, 62, 100
9, 14208, Note_on_c, 7, 59, 127
9, 14236, Note_off_c, 7, 59, 100
9, 14592, Note_on_c, 7, 57, 127
9, 14620, Note_off_c, 7, 57, 100
9, 14976, Note_on_c, 7, 55, 127
9, 15004, Note_off_c, 7, 55, 100
9, 15360, Note_on_c, 7, 57, 127
9, 15388, Note_off_c, 7, 57, 100
9, 15744, Note_on_c, 7, 59, 127
9, 15772, Note_off_c, 7, 59, 100
9, 16128, Note_on_c, 7, 57, 127
9, 16156, Note_off_c, 7, 57, 100
9, 16512, Note_on_c, 7, 55, 127
9, 16540, Note_off_c, 7, 55, 100
9, 16896, Note_on_c, 7, 57, 127
9, 16924, Note_off_c, 7, 57, 100
9, 17280, Note_on_c, 7, 50, 127
9, 17308, Note_off_c, 7, 50, 100
9, 17376, Note_on_c, 7, 54, 127
9, 17468, Note_off_c, 7, 54, 100
9, 17472, Note_on_c, 7, 52, 127
9, 17564, Note_off_c, 7, 52, 100
9, 17568, Note_on_c, 7, 54, 127
9, 17660, Note_off_c, 7, 54, 100
9, 17664, Note_on_c, 7, 57, 127
9, 17692, Note_off_c, 7, 57, 100
9, 17760, Note_on_c, 7, 62, 127
9, 17852, Note_off_c, 7, 62, 100
9, 17856, Note_on_c, 7, 61, 127
9, 17948, Note_off_c, 7, 61, 100
9, 17952, Note_on_c, 7, 62, 127
9, 18016, Note_off_c, 7, 62, 100
9, 18048, Note_on_c, 7, 66, 127
9, 18304, Note_off_c, 7, 66, 100
9, 37056, Note_on_c, 7, 64, 127
9, 37116, Note_off_c, 7, 64, 100
9, 37248, Note_on_c, 7, 66, 127
9, 37308, Note_off_c, 7, 66, 100
9, 37632, Note_on_c, 7, 62, 127
9, 37692, Note_off_c, 7, 62, 100
9, 38208, Note_on_c, 7, 69, 127
9, 38268, Note_off_c, 7, 69, 100
9, 38400, Note_on_c, 7, 71, 127
9, 38460, Note_off_c, 7, 71, 100
9, 38784, Note_on_c, 7, 67, 127
9, 38844, Note_off_c, 7, 67, 100
9, 39168, Note_on_c, 7, 84, 127
9, 39240, Note_off_c, 7, 84, 100
9, 39264, Note_on_c, 7, 79, 127
9, 39336, Note_off_c, 7, 79, 100
9, 39360, Note_on_c, 7, 77, 127
9, 39432, Note_off_c, 7, 77, 100
9, 39456, Note_on_c, 7, 79, 127
9, 39528, Note_off_c, 7, 79, 100
9, 39552, Note_on_c, 7, 76, 127
9, 39624, Note_off_c, 7, 76, 100
9, 39648, Note_on_c, 7, 72, 127
9, 39720, Note_off_c, 7, 72, 100
9, 39744, Note_on_c, 7, 71, 127
9, 39816, Note_off_c, 7, 71, 100
9, 39840, Note_on_c, 7, 72, 127
9, 39912, Note_off_c, 7, 72, 100
9, 39936, Note_on_c, 7, 69, 127
9, 40008, Note_off_c, 7, 69, 100
9, 40032, Note_on_c, 7, 72, 127
9, 40104, Note_off_c, 7, 72, 100
9, 40128, Note_on_c, 7, 76, 127
9, 40200, Note_off_c, 7, 76, 100
9, 40224, Note_on_c, 7, 81, 127
9, 40296, Note_off_c, 7, 81, 100
9, 40320, Note_on_c, 7, 75, 127
9, 40392, Note_off_c, 7, 75, 100
9, 40416, Note_on_c, 7, 71, 127
9, 40488, Note_off_c, 7, 71, 100
9, 40512, Note_on_c, 7, 70, 127
9, 40584, Note_off_c, 7, 70, 100
9, 40608, Note_on_c, 7, 71, 127
9, 40680, Note_off_c, 7, 71, 100
9, 40704, Note_on_c, 7, 66, 127
9, 40776, Note_off_c, 7, 66, 100
9, 40800, Note_on_c, 7, 63, 127
9, 40872, Note_off_c, 7, 63, 100
9, 40896, Note_on_c, 7, 61, 127
9, 40968, Note_off_c, 7, 61, 100
9, 40992, Note_on_c, 7, 63, 127
9, 41064, Note_off_c, 7, 63, 100
9, 41088, Note_on_c, 7, 59, 127
9, 41160, Note_off_c, 7, 59, 100
9, 41184, Note_on_c, 7, 63, 127
9, 41256, Note_off_c, 7, 63, 100
9, 41280, Note_on_c, 7, 66, 127
9, 41352, Note_off_c, 7, 66, 100
9, 41376, Note_on_c, 7, 69, 127
9, 41448, Note_off_c, 7, 69, 100
9, 41472, Note_on_c, 7, 67, 127
9, 41500, Note_off_c, 7, 67, 100
9, 41856, Note_on_c, 7, 69, 127
9, 41884, Note_off_c, 7, 69, 100
9, 42240, Note_on_c, 7, 71, 127
9, 42268, Note_off_c, 7, 71, 100
9, 42624, Note_on_c, 7, 72, 127
9, 42652, Note_off_c, 7, 72, 100
9, 43008, Note_on_c, 7, 71, 127
9, 43036, Note_off_c, 7, 71, 100
9, 43392, Note_on_c, 7, 72, 127
9, 43420, Note_off_c, 7, 72, 100
9, 43776, Note_on_c, 7, 70, 127
9, 43804, Note_off_c, 7, 70, 100
9, 44160, Note_on_c, 7, 71, 127
9, 44188, Note_off_c, 7, 71, 100
9, 44544, Note_on_c, 7, 71, 127
9, 44572, Note_off_c, 7, 71, 100
9, 44928, Note_on_c, 7, 64, 127
9, 44956, Note_off_c, 7, 64, 100
9, 45408, Note_on_c, 7, 67, 127
9, 45480, Note_off_c, 7, 67, 100
9, 45504, Note_on_c, 7, 66, 127
9, 45576, Note_off_c, 7, 66, 100
9, 45600, Note_on_c, 7, 67, 127
9, 45672, Note_off_c, 7, 67, 100
9, 45696, Note_on_c, 7, 64, 127
9, 45768, Note_off_c, 7, 64, 100
9, 45792, Note_on_c, 7, 67, 127
9, 45864, Note_off_c, 7, 67, 100
9, 45888, Note_on_c, 7, 71, 127
9, 45960, Note_off_c, 7, 71, 100
9, 45984, Note_on_c, 7, 74, 127
9, 46056, Note_off_c, 7, 74, 100
9, 46080, Note_on_c, 7, 72, 127
9, 46108, Note_off_c, 7, 72, 100
9, 46464, Note_on_c, 7, 71, 127
9, 46492, Note_off_c, 7, 71, 100
9, 46848, Note_on_c, 7, 69, 127
9, 46876, Note_off_c, 7, 69, 100
9, 47232, Note_on_c, 7, 71, 127
9, 47260, Note_off_c, 7, 71, 100
9, 47616, Note_on_c, 7, 69, 127
9, 47644, Note_off_c, 7, 69, 100
9, 48000, Note_on_c, 7, 67, 127
9, 48028, Note_off_c, 7, 67, 100
9, 48384, Note_on_c, 7, 69, 127
9, 48444, Note_off_c, 7, 69, 100
9, 49344, Note_on_c, 7, 69, 127
9, 49404, Note_off_c, 7, 69, 100
9, 49536, Note_on_c, 7, 62, 127
9, 49596, Note_off_c, 7, 62, 100
9, 50496, Note_on_c, 7, 74, 127
9, 50556, Note_off_c, 7, 74, 100
9, 50880, Note_on_c, 7, 55, 127
9, 50940, Note_off_c, 7, 55, 100
9, 51072, Note_on_c, 7, 56, 127
9, 51132, Note_off_c, 7, 56, 100
9, 51264, Note_on_c, 7, 57, 127
9, 51324, Note_off_c, 7, 57, 100
9, 51456, Note_on_c, 7, 58, 127
9, 51516, Note_off_c, 7, 58, 100
9, 51648, Note_on_c, 7, 59, 127
9, 51708, Note_off_c, 7, 59, 100
9, 51840, Note_on_c, 7, 60, 127
9, 51868, Note_off_c, 7, 60, 100
9, 52224, Note_on_c, 7, 62, 127
9, 52252, Note_off_c, 7, 62, 100
9, 52608, Note_on_c, 7, 64, 127
9, 52636, Note_off_c, 7, 64, 100
9, 52992, Note_on_c, 7, 66, 127
9, 53020, Note_off_c, 7, 66, 100
9, 54240, Note_on_c, 7, 67, 127
9, 54312, Note_off_c, 7, 67, 100
9, 54336, Note_on_c, 7, 66, 127
9, 54408, Note_off_c, 7, 66, 100
9, 54432, Note_on_c, 7, 67, 127
9, 54504, Note_off_c, 7, 67, 100
9, 54528, Note_on_c, 7, 62, 127
9, 54600, Note_off_c, 7, 62, 100
9, 54624, Note_on_c, 7, 59, 127
9, 54696, Note_off_c, 7, 59, 100
9, 54720, Note_on_c, 7, 57, 127
9, 54792, Note_off_c, 7, 57, 100
9, 54816, Note_on_c, 7, 59, 127
9, 54888, Note_off_c, 7, 59, 100
9, 54912, Note_on_c, 7, 55, 127
9, 55216, Note_off_c, 7, 55, 100
9, 55216, End_track
10, 0, Start_track
10, 0, Control_c, 8, 0, 0
10, 0, Program_c, 8, 6
10, 0, Control_c, 8, 7, 127
10, 0, Control_c, 8, 10, 42
10, 0, Control_c, 8, 91, 127
10, 0, Key_signature, 1, "major"
10, 0, Note_on_c, 8, 71, 96
10, 28, Note_off_c, 8, 71, 100
10, 384, Note_on_c, 8, 74, 96
10, 412, Note_off_c, 8, 74, 100
10, 768, Note_on_c, 8, 67, 96
10, 796, Note_off_c, 8, 67, 100
10, 1152, Note_on_c, 8, 69, 96
10, 1180, Note_off_c, 8, 69, 100
10, 1536, Note_on_c, 8, 74, 96
10, 1564, Note_off_c, 8, 74, 100
10, 1920, Note_on_c, 8, 66, 96
10, 1948, Note_off_c, 8, 66, 100
10, 2304, Note_on_c, 8, 67, 96
10, 2332, Note_off_c, 8, 67, 100
10, 2688, Note_on_c, 8, 71, 96
10, 2716, Note_off_c, 8, 71, 100
10, 3072, Note_on_c, 8, 69, 96
10, 3100, Note_off_c, 8, 69, 100
10, 3456, Note_on_c, 8, 66, 96
10, 3484, Note_off_c, 8, 66, 100
10, 3840, Note_on_c, 8, 73, 96
10, 3868, Note_off_c, 8, 73, 100
10, 4224, Note_on_c, 8, 74, 96
10, 4252, Note_off_c, 8, 74, 100
10, 4608, Note_on_c, 8, 67, 96
10, 4668, Note_off_c, 8, 67, 100
10, 5184, Note_on_c, 8, 64, 96
10, 5244, Note_off_c, 8, 64, 100
10, 5376, Note_on_c, 8, 65, 96
10, 5436, Note_off_c, 8, 65, 100
10, 5568, Note_on_c, 8, 62, 96
10, 5628, Note_off_c, 8, 62, 100
10, 5760, Note_on_c, 8, 64, 96
10, 5820, Note_off_c, 8, 64, 100
10, 5952, Note_on_c, 8, 45, 96
10, 6012, Note_off_c, 8, 45, 100
10, 6144, Note_on_c, 8, 47, 96
10, 6204, Note_off_c, 8, 47, 100
10, 6336, Note_on_c, 8, 66, 96
10, 6396, Note_off_c, 8, 66, 100
10, 6528, Note_on_c, 8, 67, 96
10, 6588, Note_off_c, 8, 67, 100
10, 6720, Note_on_c, 8, 61, 96
10, 6780, Note_off_c, 8, 61, 100
10, 6912, Note_on_c, 8, 62, 96
10, 6972, Note_off_c, 8, 62, 100
10, 7104, Note_on_c, 8, 45, 96
10, 7164, Note_off_c, 8, 45, 100
10, 7296, Note_on_c, 8, 47, 96
10, 7356, Note_off_c, 8, 47, 100
10, 7488, Note_on_c, 8, 40, 96
10, 7548, Note_off_c, 8, 40, 100
10, 7680, Note_on_c, 8, 42, 96
10, 7740, Note_off_c, 8, 42, 100
10, 8256, Note_on_c, 8, 72, 96
10, 8316, Note_off_c, 8, 72, 100
10, 8448, Note_on_c, 8, 71, 96
10, 8508, Note_off_c, 8, 71, 100
10, 8640, Note_on_c, 8, 69, 96
10, 8700, Note_off_c, 8, 69, 100
10, 8832, Note_on_c, 8, 67, 96
10, 8892, Note_off_c, 8, 67, 100
10, 9024, Note_on_c, 8, 66, 96
10, 9084, Note_off_c, 8, 66, 100
10, 9216, Note_on_c, 8, 67, 96
10, 9216, Note_on_c, 8, 71, 96
10, 9244, Note_off_c, 8, 71, 100
10, 9308, Note_off_c, 8, 67, 100
10, 9312, Note_on_c, 8, 67, 96
10, 9384, Note_off_c, 8, 67, 100
10, 9408, Note_on_c, 8, 66, 96
10, 9480, Note_off_c, 8, 66, 100
10, 9504, Note_on_c, 8, 67, 96
10, 9576, Note_off_c, 8, 67, 100
10, 9600, Note_on_c, 8, 64, 96
10, 9672, Note_off_c, 8, 64, 100
10, 9696, Note_on_c, 8, 59, 96
10, 9768, Note_off_c, 8, 59, 100
10, 9792, Note_on_c, 8, 57, 96
10, 9864, Note_off_c, 8, 57, 100
10, 9888, Note_on_c, 8, 59, 96
10, 9960, Note_off_c, 8, 59, 100
10, 9984, Note_on_c, 8, 55, 96
10, 10056, Note_off_c, 8, 55, 100
10, 10080, Note_on_c, 8, 59, 96
10, 10152, Note_off_c, 8, 59, 100
10, 10176, Note_on_c, 8, 64, 96
10, 10248, Note_off_c, 8, 64, 100
10, 10272, Note_on_c, 8, 67, 96
10, 10344, Note_off_c, 8, 67, 100
10, 10368, Note_on_c, 8, 69, 96
10, 10440, Note_off_c, 8, 69, 100
10, 10464, Note_on_c, 8, 66, 96
10, 10536, Note_off_c, 8, 66, 100
10, 10560, Note_on_c, 8, 64, 96
10, 10632, Note_off_c, 8, 64, 100
10, 10656, Note_on_c, 8, 66, 96
10, 10728, Note_off_c, 8, 66, 100
10, 10752, Note_on_c, 8, 62, 96
10, 10824, Note_off_c, 8, 62, 100
10, 10848, Note_on_c, 8, 57, 96
10, 10920, Note_off_c, 8, 57, 100
10, 10944, Note_on_c, 8, 55, 96
10, 11016, Note_off_c, 8, 55, 100
10, 11040, Note_on_c, 8, 57, 96
10, 11112, Note_off_c, 8, 57, 100
10, 11136, Note_on_c, 8, 54, 96
10, 11208, Note_off_c, 8, 54, 100
10, 11232, Note_on_c, 8, 57, 96
10, 11304, Note_off_c, 8, 57, 100
10, 11328, Note_on_c, 8, 62, 96
10, 11400, Note_off_c, 8, 62, 100
10, 11424, Note_on_c, 8, 66, 96
10, 11496, Note_off_c, 8, 66, 100
10, 11520, Note_on_c, 8, 67, 96
10, 11592, Note_off_c, 8, 67, 100
10, 11616, Note_on_c, 8, 64, 96
10, 11688, Note_off_c, 8, 64, 100
10, 11712, Note_on_c, 8, 63, 96
10, 11784, Note_off_c, 8, 63, 100
10, 11808, Note_on_c, 8, 64, 96
10, 11880, Note_off_c, 8, 64, 100
10, 11904, Note_on_c, 8, 59, 96
10, 11976, Note_off_c, 8, 59, 100
10, 12000, Note_on_c, 8, 55, 96
10, 12072, Note_off_c, 8, 55, 100
10, 12096, Note_on_c, 8, 54, 96
10, 12168, Note_off_c, 8, 54, 100
10, 12192, Note_on_c, 8, 55, 96
10, 12264, Note_off_c, 8, 55, 100
10, 12288, Note_on_c, 8, 52, 96
10, 12360, Note_off_c, 8, 52, 100
10, 12384, Note_on_c, 8, 55, 96
10, 12456, Note_off_c, 8, 55, 100
10, 12480, Note_on_c, 8, 59, 96
10, 12552, Note_off_c, 8, 59, 100
10, 12576, Note_on_c, 8, 62, 96
10, 12648, Note_off_c, 8, 62, 100
10, 12672, Note_on_c, 8, 61, 96
10, 12744, Note_off_c, 8, 61, 100
10, 12768, Note_on_c, 8, 55, 96
10, 12840, Note_off_c, 8, 55, 100
10, 12864, Note_on_c, 8, 54, 96
10, 12936, Note_off_c, 8, 54, 100
10, 12960, Note_on_c, 8, 55, 96
10, 13032, Note_off_c, 8, 55, 100
10, 13056, Note_on_c, 8, 52, 96
10, 13128, Note_off_c, 8, 52, 100
10, 13152, Note_on_c, 8, 49, 96
10, 13224, Note_off_c, 8, 49, 100
10, 13248, Note_on_c, 8, 47, 96
10, 13320, Note_off_c, 8, 47, 100
10, 13344, Note_on_c, 8, 49, 96
10, 13416, Note_off_c, 8, 49, 100
10, 13440, Note_on_c, 8, 45, 96
10, 13512, Note_off_c, 8, 45, 100
10, 13536, Note_on_c, 8, 49, 96
10, 13608, Note_off_c, 8, 49, 100
10, 13632, Note_on_c, 8, 52, 96
10, 13704, Note_off_c, 8, 52, 100
10, 13728, Note_on_c, 8, 55, 96
10, 13800, Note_off_c, 8, 55, 100
10, 13824, Note_on_c, 8, 54, 96
10, 13852, Note_off_c, 8, 54, 100
10, 14208, Note_on_c, 8, 55, 96
10, 14236, Note_off_c, 8, 55, 100
10, 14592, Note_on_c, 8, 57, 96
10, 14620, Note_off_c, 8, 57, 100
10, 14976, Note_on_c, 8, 59, 96
10, 15004, Note_off_c, 8, 59, 100
10, 15360, Note_on_c, 8, 57, 96
10, 15388, Note_off_c, 8, 57, 100
10, 15744, Note_on_c, 8, 55, 96
10, 15772, Note_off_c, 8, 55, 100
10, 16128, Note_on_c, 8, 57, 96
10, 16156, Note_off_c, 8, 57, 100
10, 16512, Note_on_c, 8, 59, 96
10, 16540, Note_off_c, 8, 59, 100
10, 16896, Note_on_c, 8, 57, 96
10, 16924, Note_off_c, 8, 57, 100
10, 17280, Note_on_c, 8, 54, 96
10, 17308, Note_off_c, 8, 54, 100
10, 17376, Note_on_c, 8, 50, 96
10, 17468, Note_off_c, 8, 50, 100
10, 17472, Note_on_c, 8, 49, 96
10, 17564, Note_off_c, 8, 49, 100
10, 17568, Note_on_c, 8, 50, 96
10, 17660, Note_off_c, 8, 50, 100
10, 17664, Note_on_c, 8, 45, 96
10, 17692, Note_off_c, 8, 45, 100
10, 17760, Note_on_c, 8, 42, 96
10, 17852, Note_off_c, 8, 42, 100
10, 17856, Note_on_c, 8, 40, 96
10, 17948, Note_off_c, 8, 40, 100
10, 17952, Note_on_c, 8, 42, 96
10, 18016, Note_off_c, 8, 42, 100
10, 18048, Note_on_c, 8, 38, 96
10, 18304, Note_off_c, 8, 38, 100
10, 36864, Note_on_c, 8, 54, 96
10, 36936, Note_off_c, 8, 54, 100
10, 36960, Note_on_c, 8, 57, 96
10, 37032, Note_off_c, 8, 57, 100
10, 37056, Note_on_c, 8, 55, 96
10, 37128, Note_off_c, 8, 55, 100
10, 37152, Note_on_c, 8, 57, 96
10, 37224, Note_off_c, 8, 57, 100
10, 37248, Note_on_c, 8, 62, 96
10, 37320, Note_off_c, 8, 62, 100
10, 37344, Note_on_c, 8, 66, 96
10, 37416, Note_off_c, 8, 66, 100
10, 37440, Note_on_c, 8, 64, 96
10, 37512, Note_off_c, 8, 64, 100
10, 37536, Note_on_c, 8, 66, 96
10, 37608, Note_off_c, 8, 66, 100
10, 37632, Note_on_c, 8, 69, 96
10, 37704, Note_off_c, 8, 69, 100
10, 37728, Note_on_c, 8, 66, 96
10, 37800, Note_off_c, 8, 66, 100
10, 37824, Note_on_c, 8, 60, 96
10, 37896, Note_off_c, 8, 60, 100
10, 37920, Note_on_c, 8, 57, 96
10, 37992, Note_off_c, 8, 57, 100
10, 38016, Note_on_c, 8, 59, 96
10, 38088, Note_off_c, 8, 59, 100
10, 38112, Note_on_c, 8, 62, 96
10, 38184, Note_off_c, 8, 62, 100
10, 38208, Note_on_c, 8, 60, 96
10, 38280, Note_off_c, 8, 60, 100
10, 38304, Note_on_c, 8, 62, 96
10, 38376, Note_off_c, 8, 62, 100
10, 38400, Note_on_c, 8, 67, 96
10, 38472, Note_off_c, 8, 67, 100
10, 38496, Note_on_c, 8, 71, 96
10, 38568, Note_off_c, 8, 71, 100
10, 38592, Note_on_c, 8, 69, 96
10, 38664, Note_off_c, 8, 69, 100
10, 38688, Note_on_c, 8, 71, 96
10, 38760, Note_off_c, 8, 71, 100
10, 38784, Note_on_c, 8, 74, 96
10, 38856, Note_off_c, 8, 74, 100
10, 38880, Note_on_c, 8, 71, 96
10, 38952, Note_off_c, 8, 71, 100
10, 38976, Note_on_c, 8, 65, 96
10, 39048, Note_off_c, 8, 65, 100
10, 39072, Note_on_c, 8, 62, 96
10, 39144, Note_off_c, 8, 62, 100
10, 39168, Note_on_c, 8, 64, 96
10, 39228, Note_off_c, 8, 64, 100
10, 39360, Note_on_c, 8, 59, 96
10, 39420, Note_off_c, 8, 59, 100
10, 39552, Note_on_c, 8, 60, 96
10, 39612, Note_off_c, 8, 60, 100
10, 39744, Note_on_c, 8, 51, 96
10, 39804, Note_off_c, 8, 51, 100
10, 39936, Note_on_c, 8, 52, 96
10, 39996, Note_off_c, 8, 52, 100
10, 40128, Note_on_c, 8, 43, 96
10, 40188, Note_off_c, 8, 43, 100
10, 40320, Note_on_c, 8, 42, 96
10, 40380, Note_off_c, 8, 42, 100
10, 40512, Note_on_c, 8, 64, 96
10, 40572, Note_off_c, 8, 64, 100
10, 40704, Note_on_c, 8, 63, 96
10, 40776, Note_off_c, 8, 63, 100
10, 41520, Note_on_c, 8, 67, 96
10, 41564, Note_off_c, 8, 67, 100
10, 41568, Note_on_c, 8, 69, 96
10, 41612, Note_off_c, 8, 69, 100
10, 41616, Note_on_c, 8, 67, 96
10, 41660, Note_off_c, 8, 67, 100
10, 41664, Note_on_c, 8, 69, 96
10, 41708, Note_off_c, 8, 69, 100
10, 41712, Note_on_c, 8, 67, 96
10, 41756, Note_off_c, 8, 67, 100
10, 41760, Note_on_c, 8, 69, 96
10, 41804, Note_off_c, 8, 69, 100
10, 41808, Note_on_c, 8, 67, 96
10, 41852, Note_off_c, 8, 67, 100
10, 41904, Note_on_c, 8, 67, 96
10, 41948, Note_off_c, 8, 67, 100
10, 41952, Note_on_c, 8, 69, 96
10, 41996, Note_off_c, 8, 69, 100
10, 42000, Note_on_c, 8, 67, 96
10, 42044, Note_off_c, 8, 67, 100
10, 42048, Note_on_c, 8, 69, 96
10, 42092, Note_off_c, 8, 69, 100
10, 42096, Note_on_c, 8, 67, 96
10, 42140, Note_off_c, 8, 67, 100
10, 42144, Note_on_c, 8, 69, 96
10, 42188, Note_off_c, 8, 69, 100
10, 42192, Note_on_c, 8, 67, 96
10, 42236, Note_off_c, 8, 67, 100
10, 42288, Note_on_c, 8, 67, 96
10, 42332, Note_off_c, 8, 67, 100
10, 42336, Note_on_c, 8, 69, 96
10, 42380, Note_off_c, 8, 69, 100
10, 42384, Note_on_c, 8, 67, 96
10, 42428, Note_off_c, 8, 67, 100
10, 42432, Note_on_c, 8, 69, 96
10, 42476, Note_off_c, 8, 69, 100
10, 42480, Note_on_c, 8, 67, 96
10, 42524, Note_off_c, 8, 67, 100
10, 42528, Note_on_c, 8, 69, 96
10, 42572, Note_off_c, 8, 69, 100
10, 42576, Note_on_c, 8, 67, 96
10, 42620, Note_off_c, 8, 67, 100
10, 42672, Note_on_c, 8, 67, 96
10, 42716, Note_off_c, 8, 67, 100
10, 42720, Note_on_c, 8, 69, 96
10, 42764, Note_off_c, 8, 69, 100
10, 42768, Note_on_c, 8, 67, 96
10, 42812, Note_off_c, 8, 67, 100
10, 42816, Note_on_c, 8, 69, 96
10, 42860, Note_off_c, 8, 69, 100
10, 42864, Note_on_c, 8, 67, 96
10, 42908, Note_off_c, 8, 67, 100
10, 42912, Note_on_c, 8, 69, 96
10, 42956, Note_off_c, 8, 69, 100
10, 42960, Note_on_c, 8, 67, 96
10, 43004, Note_off_c, 8, 67, 100
10, 43056, Note_on_c, 8, 67, 96
10, 43100, Note_off_c, 8, 67, 100
10, 43104, Note_on_c, 8, 69, 96
10, 43148, Note_off_c, 8, 69, 100
10, 43152, Note_on_c, 8, 67, 96
10, 43196, Note_off_c, 8, 67, 100
10, 43200, Note_on_c, 8, 69, 96
10, 43244, Note_off_c, 8, 69, 100
10, 43248, Note_on_c, 8, 67, 96
10, 43292, Note_off_c, 8, 67, 100
10, 43296, Note_on_c, 8, 69, 96
10, 43340, Note_off_c, 8, 69, 100
10, 43344, Note_on_c, 8, 67, 96
10, 43388, Note_off_c, 8, 67, 100
10, 43440, Note_on_c, 8, 67, 96
10, 43484, Note_off_c, 8, 67, 100
10, 43488, Note_on_c, 8, 69, 96
10, 43532, Note_off_c, 8, 69, 100
10, 43536, Note_on_c, 8, 67, 96
10, 43580, Note_off_c, 8, 67, 100
10, 43584, Note_on_c, 8, 69, 96
10, 43628, Note_off_c, 8, 69, 100
10, 43632, Note_on_c, 8, 67, 96
10, 43676, Note_off_c, 8, 67, 100
10, 43680, Note_on_c, 8, 69, 96
10, 43724, Note_off_c, 8, 69, 100
10, 43728, Note_on_c, 8, 67, 96
10, 43772, Note_off_c, 8, 67, 100
10, 43824, Note_on_c, 8, 67, 96
10, 43868, Note_off_c, 8, 67, 100
10, 43872, Note_on_c, 8, 69, 96
10, 43916, Note_off_c, 8, 69, 100
10, 43920, Note_on_c, 8, 67, 96
10, 43964, Note_off_c, 8, 67, 100
10, 43968, Note_on_c, 8, 69, 96
10, 44012, Note_off_c, 8, 69, 100
10, 44016, Note_on_c, 8, 67, 96
10, 44060, Note_off_c, 8, 67, 100
10, 44064, Note_on_c, 8, 69, 96
10, 44108, Note_off_c, 8, 69, 100
10, 44112, Note_on_c, 8, 67, 96
10, 44156, Note_off_c, 8, 67, 100
10, 44208, Note_on_c, 8, 67, 96
10, 44252, Note_off_c, 8, 67, 100
10, 44256, Note_on_c, 8, 69, 96
10, 44300, Note_off_c, 8, 69, 100
10, 44304, Note_on_c, 8, 67, 96
10, 44348, Note_off_c, 8, 67, 100
10, 44352, Note_on_c, 8, 69, 96
10, 44396, Note_off_c, 8, 69, 100
10, 44400, Note_on_c, 8, 67, 96
10, 44444, Note_off_c, 8, 67, 100
10, 44448, Note_on_c, 8, 69, 96
10, 44492, Note_off_c, 8, 69, 100
10, 44496, Note_on_c, 8, 67, 96
10, 44540, Note_off_c, 8, 67, 100
10, 44592, Note_on_c, 8, 66, 96
10, 44636, Note_off_c, 8, 66, 100
10, 44640, Note_on_c, 8, 67, 96
10, 44684, Note_off_c, 8, 67, 100
10, 44688, Note_on_c, 8, 66, 96
10, 44732, Note_off_c, 8, 66, 100
10, 44736, Note_on_c, 8, 67, 96
10, 44780, Note_off_c, 8, 67, 100
10, 44784, Note_on_c, 8, 66, 96
10, 44828, Note_off_c, 8, 66, 100
10, 44832, Note_on_c, 8, 67, 96
10, 44876, Note_off_c, 8, 67, 100
10, 44880, Note_on_c, 8, 66, 96
10, 44924, Note_off_c, 8, 66, 100
10, 44928, Note_on_c, 8, 64, 96
10, 44956, Note_off_c, 8, 64, 100
10, 45408, Note_on_c, 8, 64, 96
10, 45480, Note_off_c, 8, 64, 100
10, 45504, Note_on_c, 8, 63, 96
10, 45576, Note_off_c, 8, 63, 100
10, 45600, Note_on_c, 8, 64, 96
10, 45672, Note_off_c, 8, 64, 100
10, 45696, Note_on_c, 8, 67, 96
10, 45740, Note_off_c, 8, 67, 100
10, 45744, Note_on_c, 8, 65, 96
10, 45788, Note_off_c, 8, 65, 100
10, 45792, Note_on_c, 8, 64, 96
10, 45856, Note_off_c, 8, 64, 100
10, 45888, Note_on_c, 8, 65, 96
10, 45932, Note_off_c, 8, 65, 100
10, 45936, Note_on_c, 8, 64, 96
10, 45980, Note_off_c, 8, 64, 100
10, 45984, Note_on_c, 8, 62, 96
10, 46048, Note_off_c, 8, 62, 100
10, 46080, Note_on_c, 8, 64, 96
10, 46140, Note_off_c, 8, 64, 100
10, 47040, Note_on_c, 8, 64, 96
10, 47100, Note_off_c, 8, 64, 100
10, 47232, Note_on_c, 8, 62, 96
10, 47292, Note_off_c, 8, 62, 100
10, 48192, Note_on_c, 8, 62, 96
10, 48252, Note_off_c, 8, 62, 100
10, 48432, Note_on_c, 8, 60, 96
10, 48476, Note_off_c, 8, 60, 100
10, 48480, Note_on_c, 8, 62, 96
10, 48524, Note_off_c, 8, 62, 100
10, 48528, Note_on_c, 8, 60, 96
10, 48572, Note_off_c, 8, 60, 100
10, 48576, Note_on_c, 8, 62, 96
10, 48620, Note_off_c, 8, 62, 100
10, 48624, Note_on_c, 8, 60, 96
10, 48668, Note_off_c, 8, 60, 100
10, 48672, Note_on_c, 8, 62, 96
10, 48716, Note_off_c, 8, 62, 100
10, 48720, Note_on_c, 8, 60, 96
10, 48764, Note_off_c, 8, 60, 100
10, 48816, Note_on_c, 8, 60, 96
10, 48860, Note_off_c, 8, 60, 100
10, 48864, Note_on_c, 8, 62, 96
10, 48908, Note_off_c, 8, 62, 100
10, 48912, Note_on_c, 8, 60, 96
10, 48956, Note_off_c, 8, 60, 100
10, 48960, Note_on_c, 8, 62, 96
10, 49004, Note_off_c, 8, 62, 100
10, 49008, Note_on_c, 8, 60, 96
10, 49052, Note_off_c, 8, 60, 100
10, 49056, Note_on_c, 8, 62, 96
10, 49100, Note_off_c, 8, 62, 100
10, 49104, Note_on_c, 8, 60, 96
10, 49148, Note_off_c, 8, 60, 100
10, 49200, Note_on_c, 8, 60, 96
10, 49244, Note_off_c, 8, 60, 100
10, 49248, Note_on_c, 8, 62, 96
10, 49292, Note_off_c, 8, 62, 100
10, 49296, Note_on_c, 8, 60, 96
10, 49340, Note_off_c, 8, 60, 100
10, 49344, Note_on_c, 8, 62, 96
10, 49388, Note_off_c, 8, 62, 100
10, 49392, Note_on_c, 8, 60, 96
10, 49436, Note_off_c, 8, 60, 100
10, 49440, Note_on_c, 8, 62, 96
10, 49484, Note_off_c, 8, 62, 100
10, 49488, Note_on_c, 8, 60, 96
10, 49532, Note_off_c, 8, 60, 100
10, 49584, Note_on_c, 8, 60, 96
10, 49628, Note_off_c, 8, 60, 100
10, 49632, Note_on_c, 8, 62, 96
10, 49676, Note_off_c, 8, 62, 100
10, 49680, Note_on_c, 8, 60, 96
10, 49724, Note_off_c, 8, 60, 100
10, 49728, Note_on_c, 8, 62, 96
10, 49772, Note_off_c, 8, 62, 100
10, 49776, Note_on_c, 8, 60, 96
10, 49820, Note_off_c, 8, 60, 100
10, 49824, Note_on_c, 8, 62, 96
10, 49868, Note_off_c, 8, 62, 100
10, 49872, Note_on_c, 8, 60, 96
10, 49916, Note_off_c, 8, 60, 100
10, 49968, Note_on_c, 8, 60, 96
10, 50012, Note_off_c, 8, 60, 100
10, 50016, Note_on_c, 8, 62, 96
10, 50060, Note_off_c, 8, 62, 100
10, 50064, Note_on_c, 8, 60, 96
10, 50108, Note_off_c, 8, 60, 100
10, 50112, Note_on_c, 8, 62, 96
10, 50156, Note_off_c, 8, 62, 100
10, 50160, Note_on_c, 8, 60, 96
10, 50204, Note_off_c, 8, 60, 100
10, 50208, Note_on_c, 8, 62, 96
10, 50252, Note_off_c, 8, 62, 100
10, 50256, Note_on_c, 8, 60, 96
10, 50300, Note_off_c, 8, 60, 100
10, 50352, Note_on_c, 8, 60, 96
10, 50396, Note_off_c, 8, 60, 100
10, 50400, Note_on_c, 8, 62, 96
10, 50444, Note_off_c, 8, 62, 100
10, 50448, Note_on_c, 8, 60, 96
10, 50492, Note_off_c, 8, 60, 100
10, 50496, Note_on_c, 8, 62, 96
10, 50540, Note_off_c, 8, 62, 100
10, 50544, Note_on_c, 8, 60, 96
10, 50588, Note_off_c, 8, 60, 100
10, 50592, Note_on_c, 8, 62, 96
10, 50636, Note_off_c, 8, 62, 100
10, 50640, Note_on_c, 8, 60, 96
10, 50684, Note_off_c, 8, 60, 100
10, 50688, Note_on_c, 8, 59, 96
10, 50716, Note_off_c, 8, 59, 100
10, 51072, Note_on_c, 8, 60, 96
10, 51100, Note_off_c, 8, 60, 100
10, 51456, Note_on_c, 8, 62, 96
10, 51484, Note_off_c, 8, 62, 100
10, 52032, Note_on_c, 8, 64, 96
10, 52092, Note_off_c, 8, 64, 100
10, 52224, Note_on_c, 8, 65, 96
10, 52284, Note_off_c, 8, 65, 100
10, 52416, Note_on_c, 8, 66, 96
10, 52476, Note_off_c, 8, 66, 100
10, 52608, Note_on_c, 8, 67, 96
10, 52668, Note_off_c, 8, 67, 100
10, 52800, Note_on_c, 8, 68, 96
10, 52860, Note_off_c, 8, 68, 100
10, 52992, Note_on_c, 8, 69, 96
10, 53020, Note_off_c, 8, 69, 100
10, 54240, Note_on_c, 8, 59, 96
10, 54312, Note_off_c, 8, 59, 100
10, 54336, Note_on_c, 8, 57, 96
10, 54408, Note_off_c, 8, 57, 100
10, 54432, Note_on_c, 8, 59, 96
10, 54504, Note_off_c, 8, 59, 100
10, 54528, Note_on_c, 8, 62, 96
10, 54600, Note_off_c, 8, 62, 100
10, 54624, Note_on_c, 8, 67, 96
10, 54696, Note_off_c, 8, 67, 100
10, 54720, Note_on_c, 8, 66, 96
10, 54792, Note_off_c, 8, 66, 100
10, 54816, Note_on_c, 8, 67, 96
10, 54888, Note_off_c, 8, 67, 100
10, 54912, Note_on_c, 8, 71, 96
10, 55216, Note_off_c, 8, 71, 100
10, 55216, End_track
11, 0, Start_track
11, 0, Control_c, 10, 0, 0
11, 0, Program_c, 10, 6
11, 0, Control_c, 10, 7, 127
11, 0, Control_c, 10, 10, 87
11, 0, Control_c, 10, 91, 127
11, 0, Key_signature, 1, "major"
11, 48, Note_on_c, 10, 62, 96
11, 92, Note_off_c, 10, 62, 100
11, 96, Note_on_c, 10, 64, 96
11, 140, Note_off_c, 10, 64, 100
11, 144, Note_on_c, 10, 62, 96
11, 188, Note_off_c, 10, 62, 100
11, 192, Note_on_c, 10, 64, 96
11, 236, Note_off_c, 10, 64, 100
11, 240, Note_on_c, 10, 62, 96
11, 284, Note_off_c, 10, 62, 100
11, 288, Note_on_c, 10, 64, 96
11, 332, Note_off_c, 10, 64, 100
11, 336, Note_on_c, 10, 62, 96
11, 380, Note_off_c, 10, 62, 100
11, 432, Note_on_c, 10, 62, 96
11, 476, Note_off_c, 10, 62, 100
11, 480, Note_on_c, 10, 64, 96
11, 524, Note_off_c, 10, 64, 100
11, 528, Note_on_c, 10, 62, 96
11, 572, Note_off_c, 10, 62, 100
11, 576, Note_on_c, 10, 64, 96
11, 620, Note_off_c, 10, 64, 100
11, 624, Note_on_c, 10, 62, 96
11, 668, Note_off_c, 10, 62, 100
11, 672, Note_on_c, 10, 64, 96
11, 716, Note_off_c, 10, 64, 100
11, 720, Note_on_c, 10, 62, 96
11, 764, Note_off_c, 10, 62, 100
11, 816, Note_on_c, 10, 62, 96
11, 860, Note_off_c, 10, 62, 100
11, 864, Note_on_c, 10, 64, 96
11, 908, Note_off_c, 10, 64, 100
11, 912, Note_on_c, 10, 62, 96
11, 956, Note_off_c, 10, 62, 100
11, 960, Note_on_c, 10, 64, 96
11, 1004, Note_off_c, 10, 64, 100
11, 1008, Note_on_c, 10, 62, 96
11, 1052, Note_off_c, 10, 62, 100
11, 1056, Note_on_c, 10, 64, 96
11, 1100, Note_off_c, 10, 64, 100
11, 1104, Note_on_c, 10, 62, 96
11, 1148, Note_off_c, 10, 62, 100
11, 1200, Note_on_c, 10, 62, 96
11, 1244, Note_off_c, 10, 62, 100
11, 1248, Note_on_c, 10, 64, 96
11, 1292, Note_off_c, 10, 64, 100
11, 1296, Note_on_c, 10, 62, 96
11, 1340, Note_off_c, 10, 62, 100
11, 1344, Note_on_c, 10, 64, 96
11, 1388, Note_off_c, 10, 64, 100
11, 1392, Note_on_c, 10, 62, 96
11, 1436, Note_off_c, 10, 62, 100
11, 1440, Note_on_c, 10, 64, 96
11, 1484, Note_off_c, 10, 64, 100
11, 1488, Note_on_c, 10, 62, 96
11, 1532, Note_off_c, 10, 62, 100
11, 1584, Note_on_c, 10, 62, 96
11, 1628, Note_off_c, 10, 62, 100
11, 1632, Note_on_c, 10, 64, 96
11, 1676, Note_off_c, 10, 64, 100
11, 1680, Note_on_c, 10, 62, 96
11, 1724, Note_off_c, 10, 62, 100
11, 1728, Note_on_c, 10, 64, 96
11, 1772, Note_off_c, 10, 64, 100
11, 1776, Note_on_c, 10, 62, 96
11, 1820, Note_off_c, 10, 62, 100
11, 1824, Note_on_c, 10, 64, 96
11, 1868, Note_off_c, 10, 64, 100
11, 1872, Note_on_c, 10, 62, 96
11, 1916, Note_off_c, 10, 62, 100
11, 1968, Note_on_c, 10, 62, 96
11, 2012, Note_off_c, 10, 62, 100
11, 2016, Note_on_c, 10, 64, 96
11, 2060, Note_off_c, 10, 64, 100
11, 2064, Note_on_c, 10, 62, 96
11, 2108, Note_off_c, 10, 62, 100
11, 2112, Note_on_c, 10, 64, 96
11, 2156, Note_off_c, 10, 64, 100
11, 2160, Note_on_c, 10, 62, 96
11, 2204, Note_off_c, 10, 62, 100
11, 2208, Note_on_c, 10, 64, 96
11, 2252, Note_off_c, 10, 64, 100
11, 2256, Note_on_c, 10, 62, 96
11, 2300, Note_off_c, 10, 62, 100
11, 2352, Note_on_c, 10, 62, 96
11, 2396, Note_off_c, 10, 62, 100
11, 2400, Note_on_c, 10, 64, 96
11, 2444, Note_off_c, 10, 64, 100
11, 2448, Note_on_c, 10, 62, 96
11, 2492, Note_off_c, 10, 62, 100
11, 2496, Note_on_c, 10, 64, 96
11, 2540, Note_off_c, 10, 64, 100
11, 2544, Note_on_c, 10, 62, 96
11, 2588, Note_off_c, 10, 62, 100
11, 2592, Note_on_c, 10, 64, 96
11, 2636, Note_off_c, 10, 64, 100
11, 2640, Note_on_c, 10, 62, 96
11, 2684, Note_off_c, 10, 62, 100
11, 2736, Note_on_c, 10, 62, 96
11, 2780, Note_off_c, 10, 62, 100
11, 2784, Note_on_c, 10, 64, 96
11, 2828, Note_off_c, 10, 64, 100
11, 2832, Note_on_c, 10, 62, 96
11, 2876, Note_off_c, 10, 62, 100
11, 2880, Note_on_c, 10, 64, 96
11, 2924, Note_off_c, 10, 64, 100
11, 2928, Note_on_c, 10, 62, 96
11, 2972, Note_off_c, 10, 62, 100
11, 2976, Note_on_c, 10, 64, 96
11, 3020, Note_off_c, 10, 64, 100
11, 3024, Note_on_c, 10, 62, 96
11, 3068, Note_off_c, 10, 62, 100
11, 3120, Note_on_c, 10, 61, 96
11, 3164, Note_off_c, 10, 61, 100
11, 3168, Note_on_c, 10, 62, 96
11, 3212, Note_off_c, 10, 62, 100
11, 3216, Note_on_c, 10, 61, 96
11, 3260, Note_off_c, 10, 61, 100
11, 3264, Note_on_c, 10, 62, 96
11, 3308, Note_off_c, 10, 62, 100
11, 3312, Note_on_c, 10, 61, 96
11, 3356, Note_off_c, 10, 61, 100
11, 3360, Note_on_c, 10, 62, 96
11, 3404, Note_off_c, 10, 62, 100
11, 3408, Note_on_c, 10, 61, 96
11, 3452, Note_off_c, 10, 61, 100
11, 3504, Note_on_c, 10, 62, 96
11, 3548, Note_off_c, 10, 62, 100
11, 3552, Note_on_c, 10, 64, 96
11, 3596, Note_off_c, 10, 64, 100
11, 3600, Note_on_c, 10, 62, 96
11, 3644, Note_off_c, 10, 62, 100
11, 3648, Note_on_c, 10, 64, 96
11, 3692, Note_off_c, 10, 64, 100
11, 3696, Note_on_c, 10, 62, 96
11, 3740, Note_off_c, 10, 62, 100
11, 3744, Note_on_c, 10, 64, 96
11, 3788, Note_off_c, 10, 64, 100
11, 3792, Note_on_c, 10, 62, 96
11, 3836, Note_off_c, 10, 62, 100
11, 3888, Note_on_c, 10, 62, 96
11, 3932, Note_off_c, 10, 62, 100
11, 3936, Note_on_c, 10, 64, 96
11, 3980, Note_off_c, 10, 64, 100
11, 3984, Note_on_c, 10, 62, 96
11, 4028, Note_off_c, 10, 62, 100
11, 4032, Note_on_c, 10, 64, 96
11, 4076, Note_off_c, 10, 64, 100
11, 4080, Note_on_c, 10, 62, 96
11, 4124, Note_off_c, 10, 62, 100
11, 4128, Note_on_c, 10, 64, 96
11, 4172, Note_off_c, 10, 64, 100
11, 4176, Note_on_c, 10, 62, 96
11, 4220, Note_off_c, 10, 62, 100
11, 4272, Note_on_c, 10, 62, 96
11, 4316, Note_off_c, 10, 62, 100
11, 4320, Note_on_c, 10, 64, 96
11, 4364, Note_off_c, 10, 64, 100
11, 4368, Note_on_c, 10, 62, 96
11, 4412, Note_off_c, 10, 62, 100
11, 4416, Note_on_c, 10, 64, 96
11, 4460, Note_off_c, 10, 64, 100
11, 4464, Note_on_c, 10, 62, 96
11, 4508, Note_off_c, 10, 62, 100
11, 4512, Note_on_c, 10, 64, 96
11, 4556, Note_off_c, 10, 64, 100
11, 4560, Note_on_c, 10, 62, 96
11, 4604, Note_off_c, 10, 62, 100
11, 4800, Note_on_c, 10, 43, 96
11, 4860, Note_off_c, 10, 43, 100
11, 4992, Note_on_c, 10, 45, 96
11, 5052, Note_off_c, 10, 45, 100
11, 5568, Note_on_c, 10, 59, 96
11, 5628, Note_off_c, 10, 59, 100
11, 5760, Note_on_c, 10, 60, 96
11, 5820, Note_off_c, 10, 60, 100
11, 6720, Note_on_c, 10, 69, 96
11, 6780, Note_off_c, 10, 69, 100
11, 6912, Note_on_c, 10, 71, 96
11, 6972, Note_off_c, 10, 71, 100
11, 7104, Note_on_c, 10, 42, 96
11, 7164, Note_off_c, 10, 42, 100
11, 7296, Note_on_c, 10, 43, 96
11, 7356, Note_off_c, 10, 43, 100
11, 7488, Note_on_c, 10, 37, 96
11, 7548, Note_off_c, 10, 37, 100
11, 7680, Note_on_c, 10, 38, 96
11, 7740, Note_off_c, 10, 38, 100
11, 7872, Note_on_c, 10, 26, 96
11, 7932, Note_off_c, 10, 26, 100
11, 8064, Note_on_c, 10, 31, 96
11, 8124, Note_off_c, 10, 31, 100
11, 8256, Note_on_c, 10, 64, 96
11, 8316, Note_off_c, 10, 64, 100
11, 8448, Note_on_c, 10, 62, 96
11, 8508, Note_off_c, 10, 62, 100
11, 8640, Note_on_c, 10, 60, 96
11, 8700, Note_off_c, 10, 60, 100
11, 8832, Note_on_c, 10, 59, 96
11, 8892, Note_off_c, 10, 59, 100
11, 9024, Note_on_c, 10, 57, 96
11, 9024, Note_on_c, 10, 60, 96
11, 9084, Note_off_c, 10, 57, 100
11, 9084, Note_off_c, 10, 60, 100
11, 9216, Note_on_c, 10, 59, 96
11, 9216, Note_on_c, 10, 62, 96
11, 9308, Note_off_c, 10, 59, 100
11, 9308, Note_off_c, 10, 62, 100
11, 13872, Note_on_c, 10, 50, 96
11, 13916, Note_off_c, 10, 50, 100
11, 13920, Note_on_c, 10, 52, 96
11, 13964, Note_off_c, 10, 52, 100
11, 13968, Note_on_c, 10, 50, 96
11, 14012, Note_off_c, 10, 50, 100
11, 14016, Note_on_c, 10, 52, 96
11, 14060, Note_off_c, 10, 52, 100
11, 14064, Note_on_c, 10, 50, 96
11, 14108, Note_off_c, 10, 50, 100
11, 14112, Note_on_c, 10, 52, 96
11, 14156, Note_off_c, 10, 52, 100
11, 14160, Note_on_c, 10, 50, 96
11, 14204, Note_off_c, 10, 50, 100
11, 14256, Note_on_c, 10, 50, 96
11, 14300, Note_off_c, 10, 50, 100
11, 14304, Note_on_c, 10, 52, 96
11, 14348, Note_off_c, 10, 52, 100
11, 14352, Note_on_c, 10, 50, 96
11, 14396, Note_off_c, 10, 50, 100
11, 14400, Note_on_c, 10, 52, 96
11, 14444, Note_off_c, 10, 52, 100
11, 14448, Note_on_c, 10, 50, 96
11, 14492, Note_off_c, 10, 50, 100
11, 14496, Note_on_c, 10, 52, 96
11, 14540, Note_off_c, 10, 52, 100
11, 14544, Note_on_c, 10, 50, 96
11, 14588, Note_off_c, 10, 50, 100
11, 14640, Note_on_c, 10, 50, 96
11, 14684, Note_off_c, 10, 50, 100
11, 14688, Note_on_c, 10, 52, 96
11, 14732, Note_off_c, 10, 52, 100
11, 14736, Note_on_c, 10, 50, 96
11, 14780, Note_off_c, 10, 50, 100
11, 14784, Note_on_c, 10, 52, 96
11, 14828, Note_off_c, 10, 52, 100
11, 14832, Note_on_c, 10, 50, 96
11, 14876, Note_off_c, 10, 50, 100
11, 14880, Note_on_c, 10, 52, 96
11, 14924, Note_off_c, 10, 52, 100
11, 14928, Note_on_c, 10, 50, 96
11, 14972, Note_off_c, 10, 50, 100
11, 15024, Note_on_c, 10, 50, 96
11, 15068, Note_off_c, 10, 50, 100
11, 15072, Note_on_c, 10, 52, 96
11, 15116, Note_off_c, 10, 52, 100
11, 15120, Note_on_c, 10, 50, 96
11, 15164, Note_off_c, 10, 50, 100
11, 15168, Note_on_c, 10, 52, 96
11, 15212, Note_off_c, 10, 52, 100
11, 15216, Note_on_c, 10, 50, 96
11, 15260, Note_off_c, 10, 50, 100
11, 15264, Note_on_c, 10, 52, 96
11, 15308, Note_off_c, 10, 52, 100
11, 15312, Note_on_c, 10, 50, 96
11, 15356, Note_off_c, 10, 50, 100
11, 15408, Note_on_c, 10, 50, 96
11, 15452, Note_off_c, 10, 50, 100
11, 15456, Note_on_c, 10, 52, 96
11, 15500, Note_off_c, 10, 52, 100
11, 15504, Note_on_c, 10, 50, 96
11, 15548, Note_off_c, 10, 50, 100
11, 15552, Note_on_c, 10, 52, 96
11, 15596, Note_off_c, 10, 52, 100
11, 15600, Note_on_c, 10, 50, 96
11, 15644, Note_off_c, 10, 50, 100
11, 15648, Note_on_c, 10, 52, 96
11, 15692, Note_off_c, 10, 52, 100
11, 15696, Note_on_c, 10, 50, 96
11, 15740, Note_off_c, 10, 50, 100
11, 15792, Note_on_c, 10, 50, 96
11, 15836, Note_off_c, 10, 50, 100
11, 15840, Note_on_c, 10, 52, 96
11, 15884, Note_off_c, 10, 52, 100
11, 15888, Note_on_c, 10, 50, 96
11, 15932, Note_off_c, 10, 50, 100
11, 15936, Note_on_c, 10, 52, 96
11, 15980, Note_off_c, 10, 52, 100
11, 15984, Note_on_c, 10, 50, 96
11, 16028, Note_off_c, 10, 50, 100
11, 16032, Note_on_c, 10, 52, 96
11, 16076, Note_off_c, 10, 52, 100
11, 16080, Note_on_c, 10, 50, 96
11, 16124, Note_off_c, 10, 50, 100
11, 16176, Note_on_c, 10, 50, 96
11, 16220, Note_off_c, 10, 50, 100
11, 16224, Note_on_c, 10, 52, 96
11, 16268, Note_off_c, 10, 52, 100
11, 16272, Note_on_c, 10, 50, 96
11, 16316, Note_off_c, 10, 50, 100
11, 16320, Note_on_c, 10, 52, 96
11, 16364, Note_off_c, 10, 52, 100
11, 16368, Note_on_c, 10, 50, 96
11, 16412, Note_off_c, 10, 50, 100
11, 16416, Note_on_c, 10, 52, 96
11, 16460, Note_off_c, 10, 52, 100
11, 16464, Note_on_c, 10, 50, 96
11, 16508, Note_off_c, 10, 50, 100
11, 16560, Note_on_c, 10, 50, 96
11, 16604, Note_off_c, 10, 50, 100
11, 16608, Note_on_c, 10, 52, 96
11, 16652, Note_off_c, 10, 52, 100
11, 16656, Note_on_c, 10, 50, 96
11, 16700, Note_off_c, 10, 50, 100
11, 16704, Note_on_c, 10, 52, 96
11, 16748, Note_off_c, 10, 52, 100
11, 16752, Note_on_c, 10, 50, 96
11, 16796, Note_off_c, 10, 50, 100
11, 16800, Note_on_c, 10, 52, 96
11, 16844, Note_off_c, 10, 52, 100
11, 16848, Note_on_c, 10, 50, 96
11, 16892, Note_off_c, 10, 50, 100
11, 16944, Note_on_c, 10, 49, 96
11, 16988, Note_off_c, 10, 49, 100
11, 16992, Note_on_c, 10, 50, 96
11, 17036, Note_off_c, 10, 50, 100
11, 17040, Note_on_c, 10, 49, 96
11, 17084, Note_off_c, 10, 49, 100
11, 17088, Note_on_c, 10, 50, 96
11, 17132, Note_off_c, 10, 50, 100
11, 17136, Note_on_c, 10, 49, 96
11, 17180, Note_off_c, 10, 49, 100
11, 17184, Note_on_c, 10, 50, 96
11, 17228, Note_off_c, 10, 50, 100
11, 17232, Note_on_c, 10, 49, 96
11, 17276, Note_off_c, 10, 49, 100
11, 40800, Note_on_c, 10, 66, 96
11, 40872, Note_off_c, 10, 66, 100
11, 40896, Note_on_c, 10, 64, 96
11, 40968, Note_off_c, 10, 64, 100
11, 40992, Note_on_c, 10, 66, 96
11, 41064, Note_off_c, 10, 66, 100
11, 41088, Note_on_c, 10, 69, 96
11, 41160, Note_off_c, 10, 69, 100
11, 41184, Note_on_c, 10, 66, 96
11, 41256, Note_off_c, 10, 66, 100
11, 41280, Note_on_c, 10, 63, 96
11, 41352, Note_off_c, 10, 63, 100
11, 41376, Note_on_c, 10, 66, 96
11, 41448, Note_off_c, 10, 66, 100
11, 41472, Note_on_c, 10, 59, 96
11, 41500, Note_off_c, 10, 59, 100
11, 41856, Note_on_c, 10, 61, 96
11, 41884, Note_off_c, 10, 61, 100
11, 42240, Note_on_c, 10, 63, 96
11, 42268, Note_off_c, 10, 63, 100
11, 42624, Note_on_c, 10, 64, 96
11, 42652, Note_off_c, 10, 64, 100
11, 43008, Note_on_c, 10, 63, 96
11, 43036, Note_off_c, 10, 63, 100
11, 43392, Note_on_c, 10, 64, 96
11, 43420, Note_off_c, 10, 64, 100
11, 43776, Note_on_c, 10, 61, 96
11, 43804, Note_off_c, 10, 61, 100
11, 44160, Note_on_c, 10, 59, 96
11, 44188, Note_off_c, 10, 59, 100
11, 44544, Note_on_c, 10, 57, 96
11, 44572, Note_off_c, 10, 57, 100
11, 45024, Note_on_c, 10, 55, 96
11, 45096, Note_off_c, 10, 55, 100
11, 45120, Note_on_c, 10, 54, 96
11, 45192, Note_off_c, 10, 54, 100
11, 45216, Note_on_c, 10, 55, 96
11, 45288, Note_off_c, 10, 55, 100
11, 45312, Note_on_c, 10, 59, 96
11, 45384, Note_off_c, 10, 59, 100
11, 46272, Note_on_c, 10, 52, 96
11, 46332, Note_off_c, 10, 52, 100
11, 46464, Note_on_c, 10, 51, 96
11, 46524, Note_off_c, 10, 51, 100
11, 46656, Note_on_c, 10, 50, 96
11, 46716, Note_off_c, 10, 50, 100
11, 46848, Note_on_c, 10, 49, 96
11, 46908, Note_off_c, 10, 49, 100
11, 47424, Note_on_c, 10, 50, 96
11, 47484, Note_off_c, 10, 50, 100
11, 47616, Note_on_c, 10, 49, 96
11, 47676, Note_off_c, 10, 49, 100
11, 47808, Note_on_c, 10, 48, 96
11, 47868, Note_off_c, 10, 48, 100
11, 48000, Note_on_c, 10, 47, 96
11, 48060, Note_off_c, 10, 47, 100
11, 48384, Note_on_c, 10, 52, 96
11, 48412, Note_off_c, 10, 52, 100
11, 48768, Note_on_c, 10, 50, 96
11, 48796, Note_off_c, 10, 50, 100
11, 49152, Note_on_c, 10, 52, 96
11, 49180, Note_off_c, 10, 52, 100
11, 49536, Note_on_c, 10, 54, 96
11, 49564, Note_off_c, 10, 54, 100
11, 49920, Note_on_c, 10, 52, 96
11, 49948, Note_off_c, 10, 52, 100
11, 50304, Note_on_c, 10, 54, 96
11, 50332, Note_off_c, 10, 54, 100
11, 50736, Note_on_c, 10, 55, 96
11, 50780, Note_off_c, 10, 55, 100
11, 50784, Note_on_c, 10, 57, 96
11, 50828, Note_off_c, 10, 57, 100
11, 50832, Note_on_c, 10, 55, 96
11, 50876, Note_off_c, 10, 55, 100
11, 50880, Note_on_c, 10, 57, 96
11, 50924, Note_off_c, 10, 57, 100
11, 50928, Note_on_c, 10, 55, 96
11, 50972, Note_off_c, 10, 55, 100
11, 50976, Note_on_c, 10, 57, 96
11, 51020, Note_off_c, 10, 57, 100
11, 51024, Note_on_c, 10, 55, 96
11, 51068, Note_off_c, 10, 55, 100
11, 51120, Note_on_c, 10, 54, 96
11, 51164, Note_off_c, 10, 54, 100
11, 51168, Note_on_c, 10, 55, 96
11, 51212, Note_off_c, 10, 55, 100
11, 51216, Note_on_c, 10, 54, 96
11, 51260, Note_off_c, 10, 54, 100
11, 51264, Note_on_c, 10, 55, 96
11, 51308, Note_off_c, 10, 55, 100
11, 51312, Note_on_c, 10, 54, 96
11, 51356, Note_off_c, 10, 54, 100
11, 51360, Note_on_c, 10, 55, 96
11, 51404, Note_off_c, 10, 55, 100
11, 51408, Note_on_c, 10, 54, 96
11, 51452, Note_off_c, 10, 54, 100
11, 51504, Note_on_c, 10, 53, 96
11, 51548, Note_off_c, 10, 53, 100
11, 51552, Note_on_c, 10, 55, 96
11, 51596, Note_off_c, 10, 55, 100
11, 51600, Note_on_c, 10, 53, 96
11, 51644, Note_off_c, 10, 53, 100
11, 51648, Note_on_c, 10, 55, 96
11, 51692, Note_off_c, 10, 55, 100
11, 51696, Note_on_c, 10, 53, 96
11, 51740, Note_off_c, 10, 53, 100
11, 51744, Note_on_c, 10, 55, 96
11, 51788, Note_off_c, 10, 55, 100
11, 51792, Note_on_c, 10, 53, 96
11, 51836, Note_off_c, 10, 53, 100
11, 51840, Note_on_c, 10, 52, 96
11, 51900, Note_off_c, 10, 52, 100
11, 53088, Note_on_c, 10, 54, 96
11, 53160, Note_off_c, 10, 54, 100
11, 53184, Note_on_c, 10, 52, 96
11, 53256, Note_off_c, 10, 52, 100
11, 53280, Note_on_c, 10, 54, 96
11, 53352, Note_off_c, 10, 54, 100
11, 53376, Note_on_c, 10, 55, 96
11, 53448, Note_off_c, 10, 55, 100
11, 53472, Note_on_c, 10, 59, 96
11, 53544, Note_off_c, 10, 59, 100
11, 53568, Note_on_c, 10, 57, 96
11, 53640, Note_off_c, 10, 57, 100
11, 53664, Note_on_c, 10, 59, 96
11, 53736, Note_off_c, 10, 59, 100
11, 53760, Note_on_c, 10, 60, 96
11, 53832, Note_off_c, 10, 60, 100
11, 53856, Note_on_c, 10, 57, 96
11, 53928, Note_off_c, 10, 57, 100
11, 53952, Note_on_c, 10, 54, 96
11, 54024, Note_off_c, 10, 54, 100
11, 54048, Note_on_c, 10, 50, 96
11, 54120, Note_off_c, 10, 50, 100
11, 54144, Note_on_c, 10, 55, 96
11, 54216, Note_off_c, 10, 55, 100
11, 54216, End_track
12, 0, Start_track
12, 0, Control_c, 11, 0, 0
12, 0, Program_c, 11, 6
12, 0, Control_c, 11, 7, 127
12, 0, Control_c, 11, 10, 37
12, 0, Control_c, 11, 91, 127
12, 0, Key_signature, 1, "major"
12, 192, Note_on_c, 11, 59, 96
12, 252, Note_off_c, 11, 59, 100
12, 384, Note_on_c, 11, 57, 96
12, 444, Note_off_c, 11, 57, 100
12, 960, Note_on_c, 11, 55, 96
12, 1020, Note_off_c, 11, 55, 100
12, 1344, Note_on_c, 11, 57, 96
12, 1404, Note_off_c, 11, 57, 100
12, 1536, Note_on_c, 11, 55, 96
12, 1596, Note_off_c, 11, 55, 100
12, 2112, Note_on_c, 11, 54, 96
12, 2172, Note_off_c, 11, 54, 100
12, 2496, Note_on_c, 11, 55, 96
12, 2556, Note_off_c, 11, 55, 100
12, 2688, Note_on_c, 11, 54, 96
12, 2748, Note_off_c, 11, 54, 100
12, 3264, Note_on_c, 11, 52, 96
12, 3324, Note_off_c, 11, 52, 100
12, 3648, Note_on_c, 11, 54, 96
12, 3708, Note_off_c, 11, 54, 100
12, 3840, Note_on_c, 11, 52, 96
12, 3900, Note_off_c, 11, 52, 100
12, 4416, Note_on_c, 11, 48, 96
12, 4476, Note_off_c, 11, 48, 100
12, 4656, Note_on_c, 11, 55, 96
12, 4700, Note_off_c, 11, 55, 100
12, 4704, Note_on_c, 11, 57, 96
12, 4748, Note_off_c, 11, 57, 100
12, 4752, Note_on_c, 11, 55, 96
12, 4796, Note_off_c, 11, 55, 100
12, 4800, Note_on_c, 11, 57, 96
12, 4844, Note_off_c, 11, 57, 100
12, 4848, Note_on_c, 11, 55, 96
12, 4892, Note_off_c, 11, 55, 100
12, 4896, Note_on_c, 11, 57, 96
12, 4940, Note_off_c, 11, 57, 100
12, 4944, Note_on_c, 11, 55, 96
12, 4988, Note_off_c, 11, 55, 100
12, 5040, Note_on_c, 11, 55, 96
12, 5084, Note_off_c, 11, 55, 100
12, 5088, Note_on_c, 11, 57, 96
12, 5132, Note_off_c, 11, 57, 100
12, 5136, Note_on_c, 11, 55, 96
12, 5180, Note_off_c, 11, 55, 100
12, 5184, Note_on_c, 11, 57, 96
12, 5228, Note_off_c, 11, 57, 100
12, 5232, Note_on_c, 11, 55, 96
12, 5276, Note_off_c, 11, 55, 100
12, 5280, Note_on_c, 11, 57, 96
12, 5324, Note_off_c, 11, 57, 100
12, 5328, Note_on_c, 11, 55, 96
12, 5372, Note_off_c, 11, 55, 100
12, 5424, Note_on_c, 11, 55, 96
12, 5468, Note_off_c, 11, 55, 100
12, 5472, Note_on_c, 11, 57, 96
12, 5516, Note_off_c, 11, 57, 100
12, 5520, Note_on_c, 11, 55, 96
12, 5564, Note_off_c, 11, 55, 100
12, 5568, Note_on_c, 11, 57, 96
12, 5612, Note_off_c, 11, 57, 100
12, 5616, Note_on_c, 11, 55, 96
12, 5660, Note_off_c, 11, 55, 100
12, 5664, Note_on_c, 11, 57, 96
12, 5708, Note_off_c, 11, 57, 100
12, 5712, Note_on_c, 11, 55, 96
12, 5756, Note_off_c, 11, 55, 100
12, 5808, Note_on_c, 11, 55, 96
12, 5852, Note_off_c, 11, 55, 100
12, 5856, Note_on_c, 11, 57, 96
12, 5900, Note_off_c, 11, 57, 100
12, 5904, Note_on_c, 11, 55, 96
12, 5948, Note_off_c, 11, 55, 100
12, 5952, Note_on_c, 11, 57, 96
12, 5996, Note_off_c, 11, 57, 100
12, 6000, Note_on_c, 11, 55, 96
12, 6044, Note_off_c, 11, 55, 100
12, 6048, Note_on_c, 11, 57, 96
12, 6092, Note_off_c, 11, 57, 100
12, 6096, Note_on_c, 11, 55, 96
12, 6140, Note_off_c, 11, 55, 100
12, 6192, Note_on_c, 11, 55, 96
12, 6236, Note_off_c, 11, 55, 100
12, 6240, Note_on_c, 11, 57, 96
12, 6284, Note_off_c, 11, 57, 100
12, 6288, Note_on_c, 11, 55, 96
12, 6332, Note_off_c, 11, 55, 100
12, 6336, Note_on_c, 11, 57, 96
12, 6380, Note_off_c, 11, 57, 100
12, 6384, Note_on_c, 11, 55, 96
12, 6428, Note_off_c, 11, 55, 100
12, 6432, Note_on_c, 11, 57, 96
12, 6476, Note_off_c, 11, 57, 100
12, 6480, Note_on_c, 11, 55, 96
12, 6524, Note_off_c, 11, 55, 100
12, 6576, Note_on_c, 11, 55, 96
12, 6620, Note_off_c, 11, 55, 100
12, 6624, Note_on_c, 11, 57, 96
12, 6668, Note_off_c, 11, 57, 100
12, 6672, Note_on_c, 11, 55, 96
12, 6716, Note_off_c, 11, 55, 100
12, 6720, Note_on_c, 11, 57, 96
12, 6764, Note_off_c, 11, 57, 100
12, 6768, Note_on_c, 11, 55, 96
12, 6812, Note_off_c, 11, 55, 100
12, 6816, Note_on_c, 11, 57, 96
12, 6860, Note_off_c, 11, 57, 100
12, 6864, Note_on_c, 11, 55, 96
12, 6908, Note_off_c, 11, 55, 100
12, 6960, Note_on_c, 11, 55, 96
12, 7004, Note_off_c, 11, 55, 100
12, 7008, Note_on_c, 11, 57, 96
12, 7052, Note_off_c, 11, 57, 100
12, 7056, Note_on_c, 11, 55, 96
12, 7100, Note_off_c, 11, 55, 100
12, 7104, Note_on_c, 11, 57, 96
12, 7148, Note_off_c, 11, 57, 100
12, 7152, Note_on_c, 11, 55, 96
12, 7196, Note_off_c, 11, 55, 100
12, 7200, Note_on_c, 11, 57, 96
12, 7244, Note_off_c, 11, 57, 100
12, 7248, Note_on_c, 11, 55, 96
12, 7292, Note_off_c, 11, 55, 100
12, 7344, Note_on_c, 11, 55, 96
12, 7388, Note_off_c, 11, 55, 100
12, 7392, Note_on_c, 11, 57, 96
12, 7436, Note_off_c, 11, 57, 100
12, 7440, Note_on_c, 11, 55, 96
12, 7484, Note_off_c, 11, 55, 100
12, 7488, Note_on_c, 11, 57, 96
12, 7532, Note_off_c, 11, 57, 100
12, 7536, Note_on_c, 11, 55, 96
12, 7580, Note_off_c, 11, 55, 100
12, 7584, Note_on_c, 11, 57, 96
12, 7628, Note_off_c, 11, 57, 100
12, 7632, Note_on_c, 11, 55, 96
12, 7676, Note_off_c, 11, 55, 100
12, 7728, Note_on_c, 11, 54, 96
12, 7772, Note_off_c, 11, 54, 100
12, 7776, Note_on_c, 11, 55, 96
12, 7820, Note_off_c, 11, 55, 100
12, 7824, Note_on_c, 11, 54, 96
12, 7868, Note_off_c, 11, 54, 100
12, 7872, Note_on_c, 11, 55, 96
12, 7916, Note_off_c, 11, 55, 100
12, 7920, Note_on_c, 11, 54, 96
12, 7964, Note_off_c, 11, 54, 100
12, 7968, Note_on_c, 11, 55, 96
12, 8012, Note_off_c, 11, 55, 100
12, 8016, Note_on_c, 11, 54, 96
12, 8060, Note_off_c, 11, 54, 100
12, 8112, Note_on_c, 11, 55, 96
12, 8156, Note_off_c, 11, 55, 100
12, 8160, Note_on_c, 11, 57, 96
12, 8204, Note_off_c, 11, 57, 100
12, 8208, Note_on_c, 11, 55, 96
12, 8252, Note_off_c, 11, 55, 100
12, 8256, Note_on_c, 11, 57, 96
12, 8300, Note_off_c, 11, 57, 100
12, 8304, Note_on_c, 11, 55, 96
12, 8348, Note_off_c, 11, 55, 100
12, 8352, Note_on_c, 11, 57, 96
12, 8396, Note_off_c, 11, 57, 100
12, 8400, Note_on_c, 11, 55, 96
12, 8444, Note_off_c, 11, 55, 100
12, 8496, Note_on_c, 11, 55, 96
12, 8540, Note_off_c, 11, 55, 100
12, 8544, Note_on_c, 11, 57, 96
12, 8588, Note_off_c, 11, 57, 100
12, 8592, Note_on_c, 11, 55, 96
12, 8636, Note_off_c, 11, 55, 100
12, 8640, Note_on_c, 11, 57, 96
12, 8684, Note_off_c, 11, 57, 100
12, 8688, Note_on_c, 11, 55, 96
12, 8732, Note_off_c, 11, 55, 100
12, 8736, Note_on_c, 11, 57, 96
12, 8780, Note_off_c, 11, 57, 100
12, 8784, Note_on_c, 11, 55, 96
12, 8828, Note_off_c, 11, 55, 100
12, 8880, Note_on_c, 11, 55, 96
12, 8924, Note_off_c, 11, 55, 100
12, 8928, Note_on_c, 11, 57, 96
12, 8972, Note_off_c, 11, 57, 100
12, 8976, Note_on_c, 11, 55, 96
12, 9020, Note_off_c, 11, 55, 100
12, 9024, Note_on_c, 11, 57, 96
12, 9068, Note_off_c, 11, 57, 100
12, 9072, Note_on_c, 11, 55, 96
12, 9116, Note_off_c, 11, 55, 100
12, 9120, Note_on_c, 11, 57, 96
12, 9164, Note_off_c, 11, 57, 100
12, 9168, Note_on_c, 11, 55, 96
12, 9212, Note_off_c, 11, 55, 100
12, 13872, Note_on_c, 11, 42, 96
12, 13916, Note_off_c, 11, 42, 100
12, 13920, Note_on_c, 11, 43, 96
12, 13964, Note_off_c, 11, 43, 100
12, 13968, Note_on_c, 11, 42, 96
12, 14012, Note_off_c, 11, 42, 100
12, 14016, Note_on_c, 11, 43, 96
12, 14060, Note_off_c, 11, 43, 100
12, 14064, Note_on_c, 11, 42, 96
12, 14108, Note_off_c, 11, 42, 100
12, 14112, Note_on_c, 11, 43, 96
12, 14156, Note_off_c, 11, 43, 100
12, 14160, Note_on_c, 11, 42, 96
12, 14204, Note_off_c, 11, 42, 100
12, 14256, Note_on_c, 11, 42, 96
12, 14300, Note_off_c, 11, 42, 100
12, 14304, Note_on_c, 11, 43, 96
12, 14348, Note_off_c, 11, 43, 100
12, 14352, Note_on_c, 11, 42, 96
12, 14396, Note_off_c, 11, 42, 100
12, 14400, Note_on_c, 11, 43, 96
12, 14444, Note_off_c, 11, 43, 100
12, 14448, Note_on_c, 11, 42, 96
12, 14492, Note_off_c, 11, 42, 100
12, 14496, Note_on_c, 11, 43, 96
12, 14540, Note_off_c, 11, 43, 100
12, 14544, Note_on_c, 11, 42, 96
12, 14588, Note_off_c, 11, 42, 100
12, 14640, Note_on_c, 11, 42, 96
12, 14684, Note_off_c, 11, 42, 100
12, 14688, Note_on_c, 11, 43, 96
12, 14732, Note_off_c, 11, 43, 100
12, 14736, Note_on_c, 11, 42, 96
12, 14780, Note_off_c, 11, 42, 100
12, 14784, Note_on_c, 11, 43, 96
12, 14828, Note_off_c, 11, 43, 100
12, 14832, Note_on_c, 11, 42, 96
12, 14876, Note_off_c, 11, 42, 100
12, 14880, Note_on_c, 11, 43, 96
12, 14924, Note_off_c, 11, 43, 100
12, 14928, Note_on_c, 11, 42, 96
12, 14972, Note_off_c, 11, 42, 100
12, 15024, Note_on_c, 11, 42, 96
12, 15068, Note_off_c, 11, 42, 100
12, 15072, Note_on_c, 11, 43, 96
12, 15116, Note_off_c, 11, 43, 100
12, 15120, Note_on_c, 11, 42, 96
12, 15164, Note_off_c, 11, 42, 100
12, 15168, Note_on_c, 11, 43, 96
12, 15212, Note_off_c, 11, 43, 100
12, 15216, Note_on_c, 11, 42, 96
12, 15260, Note_off_c, 11, 42, 100
12, 15264, Note_on_c, 11, 43, 96
12, 15308, Note_off_c, 11, 43, 100
12, 15312, Note_on_c, 11, 42, 96
12, 15356, Note_off_c, 11, 42, 100
12, 15408, Note_on_c, 11, 42, 96
12, 15452, Note_off_c, 11, 42, 100
12, 15456, Note_on_c, 11, 43, 96
12, 15500, Note_off_c, 11, 43, 100
12, 15504, Note_on_c, 11, 42, 96
12, 15548, Note_off_c, 11, 42, 100
12, 15552, Note_on_c, 11, 43, 96
12, 15596, Note_off_c, 11, 43, 100
12, 15600, Note_on_c, 11, 42, 96
12, 15644, Note_off_c, 11, 42, 100
12, 15648, Note_on_c, 11, 43, 96
12, 15692, Note_off_c, 11, 43, 100
12, 15696, Note_on_c, 11, 42, 96
12, 15740, Note_off_c, 11, 42, 100
12, 15792, Note_on_c, 11, 42, 96
12, 15836, Note_off_c, 11, 42, 100
12, 15840, Note_on_c, 11, 43, 96
12, 15884, Note_off_c, 11, 43, 100
12, 15888, Note_on_c, 11, 42, 96
12, 15932, Note_off_c, 11, 42, 100
12, 15936, Note_on_c, 11, 43, 96
12, 15980, Note_off_c, 11, 43, 100
12, 15984, Note_on_c, 11, 42, 96
12, 16028, Note_off_c, 11, 42, 100
12, 16032, Note_on_c, 11, 43, 96
12, 16076, Note_off_c, 11, 43, 100
12, 16080, Note_on_c, 11, 42, 96
12, 16124, Note_off_c, 11, 42, 100
12, 16176, Note_on_c, 11, 42, 96
12, 16220, Note_off_c, 11, 42, 100
12, 16224, Note_on_c, 11, 43, 96
12, 16268, Note_off_c, 11, 43, 100
12, 16272, Note_on_c, 11, 42, 96
12, 16316, Note_off_c, 11, 42, 100
12, 16320, Note_on_c, 11, 43, 96
12, 16364, Note_off_c, 11, 43, 100
12, 16368, Note_on_c, 11, 42, 96
12, 16412, Note_off_c, 11, 42, 100
12, 16416, Note_on_c, 11, 43, 96
12, 16460, Note_off_c, 11, 43, 100
12, 16464, Note_on_c, 11, 42, 96
12, 16508, Note_off_c, 11, 42, 100
12, 16560, Note_on_c, 11, 42, 96
12, 16604, Note_off_c, 11, 42, 100
12, 16608, Note_on_c, 11, 43, 96
12, 16652, Note_off_c, 11, 43, 100
12, 16656, Note_on_c, 11, 42, 96
12, 16700, Note_off_c, 11, 42, 100
12, 16704, Note_on_c, 11, 43, 96
12, 16748, Note_off_c, 11, 43, 100
12, 16752, Note_on_c, 11, 42, 96
12, 16796, Note_off_c, 11, 42, 100
12, 16800, Note_on_c, 11, 43, 96
12, 16844, Note_off_c, 11, 43, 100
12, 16848, Note_on_c, 11, 42, 96
12, 16892, Note_off_c, 11, 42, 100
12, 16944, Note_on_c, 11, 40, 96
12, 16988, Note_off_c, 11, 40, 100
12, 16992, Note_on_c, 11, 42, 96
12, 17036, Note_off_c, 11, 42, 100
12, 17040, Note_on_c, 11, 40, 96
12, 17084, Note_off_c, 11, 40, 100
12, 17088, Note_on_c, 11, 42, 96
12, 17132, Note_off_c, 11, 42, 100
12, 17136, Note_on_c, 11, 40, 96
12, 17180, Note_off_c, 11, 40, 100
12, 17184, Note_on_c, 11, 42, 96
12, 17228, Note_off_c, 11, 42, 100
12, 17232, Note_on_c, 11, 40, 96
12, 17276, Note_off_c, 11, 40, 100
12, 36864, Note_on_c, 11, 50, 96
12, 36924, Note_off_c, 11, 50, 100
12, 37440, Note_on_c, 11, 48, 96
12, 37500, Note_off_c, 11, 48, 100
12, 37824, Note_on_c, 11, 54, 96
12, 37884, Note_off_c, 11, 54, 100
12, 38016, Note_on_c, 11, 55, 96
12, 38076, Note_off_c, 11, 55, 100
12, 38592, Note_on_c, 11, 54, 96
12, 38652, Note_off_c, 11, 54, 100
12, 38976, Note_on_c, 11, 59, 96
12, 39036, Note_off_c, 11, 59, 100
12, 41520, Note_on_c, 11, 52, 96
12, 41564, Note_off_c, 11, 52, 100
12, 41568, Note_on_c, 11, 54, 96
12, 41612, Note_off_c, 11, 54, 100
12, 41616, Note_on_c, 11, 52, 96
12, 41660, Note_off_c, 11, 52, 100
12, 41664, Note_on_c, 11, 54, 96
12, 41708, Note_off_c, 11, 54, 100
12, 41712, Note_on_c, 11, 52, 96
12, 41756, Note_off_c, 11, 52, 100
12, 41760, Note_on_c, 11, 54, 96
12, 41804, Note_off_c, 11, 54, 100
12, 41808, Note_on_c, 11, 52, 96
12, 41852, Note_off_c, 11, 52, 100
12, 41904, Note_on_c, 11, 52, 96
12, 41948, Note_off_c, 11, 52, 100
12, 41952, Note_on_c, 11, 54, 96
12, 41996, Note_off_c, 11, 54, 100
12, 42000, Note_on_c, 11, 52, 96
12, 42044, Note_off_c, 11, 52, 100
12, 42048, Note_on_c, 11, 54, 96
12, 42092, Note_off_c, 11, 54, 100
12, 42096, Note_on_c, 11, 52, 96
12, 42140, Note_off_c, 11, 52, 100
12, 42144, Note_on_c, 11, 54, 96
12, 42188, Note_off_c, 11, 54, 100
12, 42192, Note_on_c, 11, 52, 96
12, 42236, Note_off_c, 11, 52, 100
12, 42288, Note_on_c, 11, 52, 96
12, 42332, Note_off_c, 11, 52, 100
12, 42336, Note_on_c, 11, 54, 96
12, 42380, Note_off_c, 11, 54, 100
12, 42384, Note_on_c, 11, 52, 96
12, 42428, Note_off_c, 11, 52, 100
12, 42432, Note_on_c, 11, 54, 96
12, 42476, Note_off_c, 11, 54, 100
12, 42480, Note_on_c, 11, 52, 96
12, 42524, Note_off_c, 11, 52, 100
12, 42528, Note_on_c, 11, 54, 96
12, 42572, Note_off_c, 11, 54, 100
12, 42576, Note_on_c, 11, 52, 96
12, 42620, Note_off_c, 11, 52, 100
12, 42672, Note_on_c, 11, 52, 96
12, 42716, Note_off_c, 11, 52, 100
12, 42720, Note_on_c, 11, 54, 96
12, 42764, Note_off_c, 11, 54, 100
12, 42768, Note_on_c, 11, 52, 96
12, 42812, Note_off_c, 11, 52, 100
12, 42816, Note_on_c, 11, 54, 96
12, 42860, Note_off_c, 11, 54, 100
12, 42864, Note_on_c, 11, 52, 96
12, 42908, Note_off_c, 11, 52, 100
12, 42912, Note_on_c, 11, 54, 96
12, 42956, Note_off_c, 11, 54, 100
12, 42960, Note_on_c, 11, 52, 96
12, 43004, Note_off_c, 11, 52, 100
12, 43056, Note_on_c, 11, 52, 96
12, 43100, Note_off_c, 11, 52, 100
12, 43104, Note_on_c, 11, 54, 96
12, 43148, Note_off_c, 11, 54, 100
12, 43152, Note_on_c, 11, 52, 96
12, 43196, Note_off_c, 11, 52, 100
12, 43200, Note_on_c, 11, 54, 96
12, 43244, Note_off_c, 11, 54, 100
12, 43248, Note_on_c, 11, 52, 96
12, 43292, Note_off_c, 11, 52, 100
12, 43296, Note_on_c, 11, 54, 96
12, 43340, Note_off_c, 11, 54, 100
12, 43344, Note_on_c, 11, 52, 96
12, 43388, Note_off_c, 11, 52, 100
12, 43440, Note_on_c, 11, 52, 96
12, 43484, Note_off_c, 11, 52, 100
12, 43488, Note_on_c, 11, 54, 96
12, 43532, Note_off_c, 11, 54, 100
12, 43536, Note_on_c, 11, 52, 96
12, 43580, Note_off_c, 11, 52, 100
12, 43584, Note_on_c, 11, 54, 96
12, 43628, Note_off_c, 11, 54, 100
12, 43632, Note_on_c, 11, 52, 96
12, 43676, Note_off_c, 11, 52, 100
12, 43680, Note_on_c, 11, 54, 96
12, 43724, Note_off_c, 11, 54, 100
12, 43728, Note_on_c, 11, 52, 96
12, 43772, Note_off_c, 11, 52, 100
12, 43824, Note_on_c, 11, 52, 96
12, 43868, Note_off_c, 11, 52, 100
12, 43872, Note_on_c, 11, 54, 96
12, 43916, Note_off_c, 11, 54, 100
12, 43920, Note_on_c, 11, 52, 96
12, 43964, Note_off_c, 11, 52, 100
12, 43968, Note_on_c, 11, 54, 96
12, 44012, Note_off_c, 11, 54, 100
12, 44016, Note_on_c, 11, 52, 96
12, 44060, Note_off_c, 11, 52, 100
12, 44064, Note_on_c, 11, 54, 96
12, 44108, Note_off_c, 11, 54, 100
12, 44112, Note_on_c, 11, 52, 96
12, 44156, Note_off_c, 11, 52, 100
12, 44208, Note_on_c, 11, 52, 96
12, 44252, Note_off_c, 11, 52, 100
12, 44256, Note_on_c, 11, 54, 96
12, 44300, Note_off_c, 11, 54, 100
12, 44304, Note_on_c, 11, 52, 96
12, 44348, Note_off_c, 11, 52, 100
12, 44352, Note_on_c, 11, 54, 96
12, 44396, Note_off_c, 11, 54, 100
12, 44400, Note_on_c, 11, 52, 96
12, 44444, Note_off_c, 11, 52, 100
12, 44448, Note_on_c, 11, 54, 96
12, 44492, Note_off_c, 11, 54, 100
12, 44496, Note_on_c, 11, 52, 96
12, 44540, Note_off_c, 11, 52, 100
12, 44592, Note_on_c, 11, 51, 96
12, 44636, Note_off_c, 11, 51, 100
12, 44640, Note_on_c, 11, 52, 96
12, 44684, Note_off_c, 11, 52, 100
12, 44688, Note_on_c, 11, 51, 96
12, 44732, Note_off_c, 11, 51, 100
12, 44736, Note_on_c, 11, 52, 96
12, 44780, Note_off_c, 11, 52, 100
12, 44784, Note_on_c, 11, 51, 96
12, 44828, Note_off_c, 11, 51, 100
12, 44832, Note_on_c, 11, 52, 96
12, 44876, Note_off_c, 11, 52, 100
12, 44880, Note_on_c, 11, 51, 96
12, 44924, Note_off_c, 11, 51, 100
12, 45024, Note_on_c, 11, 52, 96
12, 45096, Note_off_c, 11, 52, 100
12, 45120, Note_on_c, 11, 51, 96
12, 45192, Note_off_c, 11, 51, 100
12, 45216, Note_on_c, 11, 52, 96
12, 45288, Note_off_c, 11, 52, 100
12, 45312, Note_on_c, 11, 47, 96
12, 45384, Note_off_c, 11, 47, 100
12, 46128, Note_on_c, 11, 55, 96
12, 46172, Note_off_c, 11, 55, 100
12, 46176, Note_on_c, 11, 57, 96
12, 46220, Note_off_c, 11, 57, 100
12, 46224, Note_on_c, 11, 55, 96
12, 46268, Note_off_c, 11, 55, 100
12, 46272, Note_on_c, 11, 57, 96
12, 46316, Note_off_c, 11, 57, 100
12, 46320, Note_on_c, 11, 55, 96
12, 46364, Note_off_c, 11, 55, 100
12, 46368, Note_on_c, 11, 57, 96
12, 46412, Note_off_c, 11, 57, 100
12, 46416, Note_on_c, 11, 55, 96
12, 46460, Note_off_c, 11, 55, 100
12, 46512, Note_on_c, 11, 55, 96
12, 46556, Note_off_c, 11, 55, 100
12, 46560, Note_on_c, 11, 57, 96
12, 46604, Note_off_c, 11, 57, 100
12, 46608, Note_on_c, 11, 55, 96
12, 46652, Note_off_c, 11, 55, 100
12, 46656, Note_on_c, 11, 57, 96
12, 46700, Note_off_c, 11, 57, 100
12, 46704, Note_on_c, 11, 55, 96
12, 46748, Note_off_c, 11, 55, 100
12, 46752, Note_on_c, 11, 57, 96
12, 46796, Note_off_c, 11, 57, 100
12, 46800, Note_on_c, 11, 55, 96
12, 46844, Note_off_c, 11, 55, 100
12, 46896, Note_on_c, 11, 55, 96
12, 46940, Note_off_c, 11, 55, 100
12, 46944, Note_on_c, 11, 57, 96
12, 46988, Note_off_c, 11, 57, 100
12, 46992, Note_on_c, 11, 55, 96
12, 47036, Note_off_c, 11, 55, 100
12, 47040, Note_on_c, 11, 57, 96
12, 47084, Note_off_c, 11, 57, 100
12, 47088, Note_on_c, 11, 55, 96
12, 47132, Note_off_c, 11, 55, 100
12, 47136, Note_on_c, 11, 57, 96
12, 47180, Note_off_c, 11, 57, 100
12, 47184, Note_on_c, 11, 55, 96
12, 47228, Note_off_c, 11, 55, 100
12, 47280, Note_on_c, 11, 55, 96
12, 47324, Note_off_c, 11, 55, 100
12, 47328, Note_on_c, 11, 57, 96
12, 47372, Note_off_c, 11, 57, 100
12, 47376, Note_on_c, 11, 55, 96
12, 47420, Note_off_c, 11, 55, 100
12, 47424, Note_on_c, 11, 57, 96
12, 47468, Note_off_c, 11, 57, 100
12, 47472, Note_on_c, 11, 55, 96
12, 47516, Note_off_c, 11, 55, 100
12, 47520, Note_on_c, 11, 57, 96
12, 47564, Note_off_c, 11, 57, 100
12, 47568, Note_on_c, 11, 55, 96
12, 47612, Note_off_c, 11, 55, 100
12, 47664, Note_on_c, 11, 55, 96
12, 47708, Note_off_c, 11, 55, 100
12, 47712, Note_on_c, 11, 57, 96
12, 47756, Note_off_c, 11, 57, 100
12, 47760, Note_on_c, 11, 55, 96
12, 47804, Note_off_c, 11, 55, 100
12, 47808, Note_on_c, 11, 57, 96
12, 47852, Note_off_c, 11, 57, 100
12, 47856, Note_on_c, 11, 55, 96
12, 47900, Note_off_c, 11, 55, 100
12, 47904, Note_on_c, 11, 57, 96
12, 47948, Note_off_c, 11, 57, 100
12, 47952, Note_on_c, 11, 55, 96
12, 47996, Note_off_c, 11, 55, 100
12, 48048, Note_on_c, 11, 55, 96
12, 48092, Note_off_c, 11, 55, 100
12, 48096, Note_on_c, 11, 57, 96
12, 48140, Note_off_c, 11, 57, 100
12, 48144, Note_on_c, 11, 55, 96
12, 48188, Note_off_c, 11, 55, 100
12, 48192, Note_on_c, 11, 57, 96
12, 48236, Note_off_c, 11, 57, 100
12, 48240, Note_on_c, 11, 55, 96
12, 48284, Note_off_c, 11, 55, 100
12, 48288, Note_on_c, 11, 57, 96
12, 48332, Note_off_c, 11, 57, 100
12, 48336, Note_on_c, 11, 55, 96
12, 48380, Note_off_c, 11, 55, 100
12, 48576, Note_on_c, 11, 64, 96
12, 48636, Note_off_c, 11, 64, 100
12, 48768, Note_on_c, 11, 65, 96
12, 48828, Note_off_c, 11, 65, 100
12, 48960, Note_on_c, 11, 66, 96
12, 49020, Note_off_c, 11, 66, 100
12, 49152, Note_on_c, 11, 67, 96
12, 49212, Note_off_c, 11, 67, 100
12, 49728, Note_on_c, 11, 66, 96
12, 49788, Note_off_c, 11, 66, 100
12, 49920, Note_on_c, 11, 67, 96
12, 49980, Note_off_c, 11, 67, 100
12, 50112, Note_on_c, 11, 68, 96
12, 50172, Note_off_c, 11, 68, 100
12, 50304, Note_on_c, 11, 69, 96
12, 50364, Note_off_c, 11, 69, 100
12, 50688, Note_on_c, 11, 43, 96
12, 50748, Note_off_c, 11, 43, 100
12, 51888, Note_on_c, 11, 48, 96
12, 51932, Note_off_c, 11, 48, 100
12, 51936, Note_on_c, 11, 50, 96
12, 51980, Note_off_c, 11, 50, 100
12, 51984, Note_on_c, 11, 48, 96
12, 52028, Note_off_c, 11, 48, 100
12, 52032, Note_on_c, 11, 50, 96
12, 52076, Note_off_c, 11, 50, 100
12, 52080, Note_on_c, 11, 48, 96
12, 52124, Note_off_c, 11, 48, 100
12, 52128, Note_on_c, 11, 50, 96
12, 52172, Note_off_c, 11, 50, 100
12, 52176, Note_on_c, 11, 48, 96
12, 52220, Note_off_c, 11, 48, 100
12, 52272, Note_on_c, 11, 47, 96
12, 52316, Note_off_c, 11, 47, 100
12, 52320, Note_on_c, 11, 48, 96
12, 52364, Note_off_c, 11, 48, 100
12, 52368, Note_on_c, 11, 47, 96
12, 52412, Note_off_c, 11, 47, 100
12, 52416, Note_on_c, 11, 48, 96
12, 52460, Note_off_c, 11, 48, 100
12, 52464, Note_on_c, 11, 47, 96
12, 52508, Note_off_c, 11, 47, 100
12, 52512, Note_on_c, 11, 48, 96
12, 52556, Note_off_c, 11, 48, 100
12, 52560, Note_on_c, 11, 47, 96
12, 52604, Note_off_c, 11, 47, 100
12, 52656, Note_on_c, 11, 46, 96
12, 52700, Note_off_c, 11, 46, 100
12, 52704, Note_on_c, 11, 48, 96
12, 52748, Note_off_c, 11, 48, 100
12, 52752, Note_on_c, 11, 46, 96
12, 52796, Note_off_c, 11, 46, 100
12, 52800, Note_on_c, 11, 48, 96
12, 52844, Note_off_c, 11, 48, 100
12, 52848, Note_on_c, 11, 46, 96
12, 52892, Note_off_c, 11, 46, 100
12, 52896, Note_on_c, 11, 48, 96
12, 52940, Note_off_c, 11, 48, 100
12, 52944, Note_on_c, 11, 46, 96
12, 52988, Note_off_c, 11, 46, 100
12, 53088, Note_on_c, 11, 50, 96
12, 53160, Note_off_c, 11, 50, 100
12, 53184, Note_on_c, 11, 48, 96
12, 53256, Note_off_c, 11, 48, 100
12, 53280, Note_on_c, 11, 50, 96
12, 53352, Note_off_c, 11, 50, 100
12, 53376, Note_on_c, 11, 47, 96
12, 53448, Note_off_c, 11, 47, 100
12, 53472, Note_on_c, 11, 43, 96
12, 53544, Note_off_c, 11, 43, 100
12, 53568, Note_on_c, 11, 42, 96
12, 53640, Note_off_c, 11, 42, 100
12, 53664, Note_on_c, 11, 43, 96
12, 53736, Note_off_c, 11, 43, 100
12, 53760, Note_on_c, 11, 38, 96
12, 53832, Note_off_c, 11, 38, 100
12, 53856, Note_on_c, 11, 42, 96
12, 53928, Note_off_c, 11, 42, 100
12, 53952, Note_on_c, 11, 45, 96
12, 54024, Note_off_c, 11, 45, 100
12, 54048, Note_on_c, 11, 48, 96
12, 54120, Note_off_c, 11, 48, 100
12, 54144, Note_on_c, 11, 47, 96
12, 54216, Note_off_c, 11, 47, 100
12, 54216, End_track
13, 0, Start_track
13, 0, Control_c, 12, 0, 0
13, 0, Program_c, 12, 6
13, 0, Control_c, 12, 7, 125
13, 0, Control_c, 12, 10, 91
13, 0, Control_c, 12, 91, 124
13, 0, Key_signature, 1, "major"
13, 0, Note_on_c, 12, 43, 96
13, 60, Note_off_c, 12, 43, 100
13, 576, Note_on_c, 12, 42, 96
13, 636, Note_off_c, 12, 42, 100
13, 768, Note_on_c, 12, 40, 96
13, 828, Note_off_c, 12, 40, 100
13, 1152, Note_on_c, 12, 42, 96
13, 1212, Note_off_c, 12, 42, 100
13, 1728, Note_on_c, 12, 40, 96
13, 1788, Note_off_c, 12, 40, 100
13, 1920, Note_on_c, 12, 38, 96
13, 1980, Note_off_c, 12, 38, 100
13, 2304, Note_on_c, 12, 40, 96
13, 2364, Note_off_c, 12, 40, 100
13, 2880, Note_on_c, 12, 43, 96
13, 2940, Note_off_c, 12, 43, 100
13, 3072, Note_on_c, 12, 45, 96
13, 3132, Note_off_c, 12, 45, 100
13, 3456, Note_on_c, 12, 38, 96
13, 3516, Note_off_c, 12, 38, 100
13, 4032, Note_on_c, 12, 43, 96
13, 4092, Note_off_c, 12, 43, 100
13, 4224, Note_on_c, 12, 42, 96
13, 4284, Note_off_c, 12, 42, 100
13, 4608, Note_on_c, 12, 47, 96
13, 4636, Note_off_c, 12, 47, 100
13, 4992, Note_on_c, 12, 48, 96
13, 5020, Note_off_c, 12, 48, 100
13, 5376, Note_on_c, 12, 50, 96
13, 5404, Note_off_c, 12, 50, 100
13, 5760, Note_on_c, 12, 48, 96
13, 5788, Note_off_c, 12, 48, 100
13, 6144, Note_on_c, 12, 50, 96
13, 6172, Note_off_c, 12, 50, 100
13, 6528, Note_on_c, 12, 52, 96
13, 6556, Note_off_c, 12, 52, 100
13, 6912, Note_on_c, 12, 50, 96
13, 6940, Note_off_c, 12, 50, 100
13, 7296, Note_on_c, 12, 52, 96
13, 7324, Note_off_c, 12, 52, 100
13, 7680, Note_on_c, 12, 45, 96
13, 7708, Note_off_c, 12, 45, 100
13, 8064, Note_on_c, 12, 47, 96
13, 8092, Note_off_c, 12, 47, 100
13, 8448, Note_on_c, 12, 48, 96
13, 8476, Note_off_c, 12, 48, 100
13, 8832, Note_on_c, 12, 50, 96
13, 8860, Note_off_c, 12, 50, 100
13, 9216, Note_on_c, 12, 43, 96
13, 9288, Note_off_c, 12, 43, 100
13, 9312, Note_on_c, 12, 47, 96
13, 9384, Note_off_c, 12, 47, 100
13, 9408, Note_on_c, 12, 45, 96
13, 9480, Note_off_c, 12, 45, 100
13, 9504, Note_on_c, 12, 47, 96
13, 9576, Note_off_c, 12, 47, 100
13, 9600, Note_on_c, 12, 52, 96
13, 9672, Note_off_c, 12, 52, 100
13, 9696, Note_on_c, 12, 55, 96
13, 9768, Note_off_c, 12, 55, 100
13, 9792, Note_on_c, 12, 54, 96
13, 9864, Note_off_c, 12, 54, 100
13, 9888, Note_on_c, 12, 55, 96
13, 9960, Note_off_c, 12, 55, 100
13, 9984, Note_on_c, 12, 59, 96
13, 10056, Note_off_c, 12, 59, 100
13, 10080, Note_on_c, 12, 55, 96
13, 10152, Note_off_c, 12, 55, 100
13, 10176, Note_on_c, 12, 52, 96
13, 10248, Note_off_c, 12, 52, 100
13, 10272, Note_on_c, 12, 49, 96
13, 10344, Note_off_c, 12, 49, 100
13, 10368, Note_on_c, 12, 42, 96
13, 10440, Note_off_c, 12, 42, 100
13, 10464, Note_on_c, 12, 45, 96
13, 10536, Note_off_c, 12, 45, 100
13, 10560, Note_on_c, 12, 43, 96
13, 10632, Note_off_c, 12, 43, 100
13, 10656, Note_on_c, 12, 45, 96
13, 10728, Note_off_c, 12, 45, 100
13, 10752, Note_on_c, 12, 50, 96
13, 10824, Note_off_c, 12, 50, 100
13, 10848, Note_on_c, 12, 54, 96
13, 10920, Note_off_c, 12, 54, 100
13, 10944, Note_on_c, 12, 52, 96
13, 11016, Note_off_c, 12, 52, 100
13, 11040, Note_on_c, 12, 54, 96
13, 11112, Note_off_c, 12, 54, 100
13, 11136, Note_on_c, 12, 57, 96
13, 11208, Note_off_c, 12, 57, 100
13, 11232, Note_on_c, 12, 54, 96
13, 11304, Note_off_c, 12, 54, 100
13, 11328, Note_on_c, 12, 50, 96
13, 11400, Note_off_c, 12, 50, 100
13, 11424, Note_on_c, 12, 47, 96
13, 11496, Note_off_c, 12, 47, 100
13, 11520, Note_on_c, 12, 40, 96
13, 11592, Note_off_c, 12, 40, 100
13, 11616, Note_on_c, 12, 43, 96
13, 11688, Note_off_c, 12, 43, 100
13, 11712, Note_on_c, 12, 42, 96
13, 11784, Note_off_c, 12, 42, 100
13, 11808, Note_on_c, 12, 43, 96
13, 11880, Note_off_c, 12, 43, 100
13, 11904, Note_on_c, 12, 47, 96
13, 11976, Note_off_c, 12, 47, 100
13, 12000, Note_on_c, 12, 52, 96
13, 12072, Note_off_c, 12, 52, 100
13, 12096, Note_on_c, 12, 51, 96
13, 12168, Note_off_c, 12, 51, 100
13, 12192, Note_on_c, 12, 52, 96
13, 12264, Note_off_c, 12, 52, 100
13, 12288, Note_on_c, 12, 55, 96
13, 12360, Note_off_c, 12, 55, 100
13, 12384, Note_on_c, 12, 52, 96
13, 12456, Note_off_c, 12, 52, 100
13, 12480, Note_on_c, 12, 47, 96
13, 12552, Note_off_c, 12, 47, 100
13, 12576, Note_on_c, 12, 43, 96
13, 12648, Note_off_c, 12, 43, 100
13, 12672, Note_on_c, 12, 45, 96
13, 12744, Note_off_c, 12, 45, 100
13, 12768, Note_on_c, 12, 52, 96
13, 12840, Note_off_c, 12, 52, 100
13, 12864, Note_on_c, 12, 50, 96
13, 12936, Note_off_c, 12, 50, 100
13, 12960, Note_on_c, 12, 52, 96
13, 13032, Note_off_c, 12, 52, 100
13, 13056, Note_on_c, 12, 55, 96
13, 13128, Note_off_c, 12, 55, 100
13, 13152, Note_on_c, 12, 57, 96
13, 13224, Note_off_c, 12, 57, 100
13, 13248, Note_on_c, 12, 55, 96
13, 13320, Note_off_c, 12, 55, 100
13, 13344, Note_on_c, 12, 57, 96
13, 13416, Note_off_c, 12, 57, 100
13, 13440, Note_on_c, 12, 55, 96
13, 13512, Note_off_c, 12, 55, 100
13, 13536, Note_on_c, 12, 52, 96
13, 13608, Note_off_c, 12, 52, 100
13, 13632, Note_on_c, 12, 49, 96
13, 13704, Note_off_c, 12, 49, 100
13, 13728, Note_on_c, 12, 45, 96
13, 13800, Note_off_c, 12, 45, 100
13, 13824, Note_on_c, 12, 38, 96
13, 13852, Note_off_c, 12, 38, 100
13, 14208, Note_on_c, 12, 35, 96
13, 14236, Note_off_c, 12, 35, 100
13, 14592, Note_on_c, 12, 33, 96
13, 14620, Note_off_c, 12, 33, 100
13, 14976, Note_on_c, 12, 31, 96
13, 15004, Note_off_c, 12, 31, 100
13, 15360, Note_on_c, 12, 33, 96
13, 15388, Note_off_c, 12, 33, 100
13, 15744, Note_on_c, 12, 35, 96
13, 15772, Note_off_c, 12, 35, 100
13, 16128, Note_on_c, 12, 33, 96
13, 16156, Note_off_c, 12, 33, 100
13, 16512, Note_on_c, 12, 31, 96
13, 16540, Note_off_c, 12, 31, 100
13, 16896, Note_on_c, 12, 33, 96
13, 16924, Note_off_c, 12, 33, 100
13, 17280, Note_on_c, 12, 26, 96
13, 17308, Note_off_c, 12, 26, 100
13, 17376, Note_on_c, 12, 30, 96
13, 17468, Note_off_c, 12, 30, 100
13, 17472, Note_on_c, 12, 28, 96
13, 17564, Note_off_c, 12, 28, 100
13, 17568, Note_on_c, 12, 30, 96
13, 17660, Note_off_c, 12, 30, 100
13, 17664, Note_on_c, 12, 33, 96
13, 17692, Note_off_c, 12, 33, 100
13, 17760, Note_on_c, 12, 38, 96
13, 17852, Note_off_c, 12, 38, 100
13, 17856, Note_on_c, 12, 37, 96
13, 17948, Note_off_c, 12, 37, 100
13, 17952, Note_on_c, 12, 38, 96
13, 18016, Note_off_c, 12, 38, 100
13, 18048, Note_on_c, 12, 42, 96
13, 18304, Note_off_c, 12, 42, 100
13, 37056, Note_on_c, 12, 40, 96
13, 37116, Note_off_c, 12, 40, 100
13, 37248, Note_on_c, 12, 42, 96
13, 37308, Note_off_c, 12, 42, 100
13, 37632, Note_on_c, 12, 38, 96
13, 37692, Note_off_c, 12, 38, 100
13, 38208, Note_on_c, 12, 45, 96
13, 38268, Note_off_c, 12, 45, 100
13, 38400, Note_on_c, 12, 47, 96
13, 38460, Note_off_c, 12, 47, 100
13, 38784, Note_on_c, 12, 43, 96
13, 38844, Note_off_c, 12, 43, 100
13, 39168, Note_on_c, 12, 60, 96
13, 39240, Note_off_c, 12, 60, 100
13, 39264, Note_on_c, 12, 55, 96
13, 39336, Note_off_c, 12, 55, 100
13, 39360, Note_on_c, 12, 53, 96
13, 39432, Note_off_c, 12, 53, 100
13, 39456, Note_on_c, 12, 55, 96
13, 39528, Note_off_c, 12, 55, 100
13, 39552, Note_on_c, 12, 52, 96
13, 39624, Note_off_c, 12, 52, 100
13, 39648, Note_on_c, 12, 48, 96
13, 39720, Note_off_c, 12, 48, 100
13, 39744, Note_on_c, 12, 47, 96
13, 39816, Note_off_c, 12, 47, 100
13, 39840, Note_on_c, 12, 48, 96
13, 39912, Note_off_c, 12, 48, 100
13, 39936, Note_on_c, 12, 45, 96
13, 40008, Note_off_c, 12, 45, 100
13, 40032, Note_on_c, 12, 48, 96
13, 40104, Note_off_c, 12, 48, 100
13, 40128, Note_on_c, 12, 52, 96
13, 40200, Note_off_c, 12, 52, 100
13, 40224, Note_on_c, 12, 57, 96
13, 40296, Note_off_c, 12, 57, 100
13, 40320, Note_on_c, 12, 51, 96
13, 40392, Note_off_c, 12, 51, 100
13, 40416, Note_on_c, 12, 47, 96
13, 40488, Note_off_c, 12, 47, 100
13, 40512, Note_on_c, 12, 46, 96
13, 40584, Note_off_c, 12, 46, 100
13, 40608, Note_on_c, 12, 47, 96
13, 40680, Note_off_c, 12, 47, 100
13, 40704, Note_on_c, 12, 42, 96
13, 40776, Note_off_c, 12, 42, 100
13, 40800, Note_on_c, 12, 39, 96
13, 40872, Note_off_c, 12, 39, 100
13, 40896, Note_on_c, 12, 37, 96
13, 40968, Note_off_c, 12, 37, 100
13, 40992, Note_on_c, 12, 39, 96
13, 41064, Note_off_c, 12, 39, 100
13, 41088, Note_on_c, 12, 35, 96
13, 41160, Note_off_c, 12, 35, 100
13, 41184, Note_on_c, 12, 39, 96
13, 41256, Note_off_c, 12, 39, 100
13, 41280, Note_on_c, 12, 42, 96
13, 41352, Note_off_c, 12, 42, 100
13, 41376, Note_on_c, 12, 45, 96
13, 41448, Note_off_c, 12, 45, 100
13, 41472, Note_on_c, 12, 43, 96
13, 41500, Note_off_c, 12, 43, 100
13, 41856, Note_on_c, 12, 45, 96
13, 41884, Note_off_c, 12, 45, 100
13, 42240, Note_on_c, 12, 47, 96
13, 42268, Note_off_c, 12, 47, 100
13, 42624, Note_on_c, 12, 48, 96
13, 42652, Note_off_c, 12, 48, 100
13, 43008, Note_on_c, 12, 47, 96
13, 43036, Note_off_c, 12, 47, 100
13, 43392, Note_on_c, 12, 48, 96
13, 43420, Note_off_c, 12, 48, 100
13, 43776, Note_on_c, 12, 46, 96
13, 43804, Note_off_c, 12, 46, 100
13, 44160, Note_on_c, 12, 47, 96
13, 44188, Note_off_c, 12, 47, 100
13, 44544, Note_on_c, 12, 47, 96
13, 44572, Note_off_c, 12, 47, 100
13, 44928, Note_on_c, 12, 40, 96
13, 44956, Note_off_c, 12, 40, 100
13, 45408, Note_on_c, 12, 43, 96
13, 45480, Note_off_c, 12, 43, 100
13, 45504, Note_on_c, 12, 42, 96
13, 45576, Note_off_c, 12, 42, 100
13, 45600, Note_on_c, 12, 43, 96
13, 45672, Note_off_c, 12, 43, 100
13, 45696, Note_on_c, 12, 40, 96
13, 45768, Note_off_c, 12, 40, 100
13, 45792, Note_on_c, 12, 43, 96
13, 45864, Note_off_c, 12, 43, 100
13, 45888, Note_on_c, 12, 47, 96
13, 45960, Note_off_c, 12, 47, 100
13, 45984, Note_on_c, 12, 50, 96
13, 46056, Note_off_c, 12, 50, 100
13, 46080, Note_on_c, 12, 48, 96
13, 46108, Note_off_c, 12, 48, 100
13, 46464, Note_on_c, 12, 47, 96
13, 46492, Note_off_c, 12, 47, 100
13, 46848, Note_on_c, 12, 45, 96
13, 46876, Note_off_c, 12, 45, 100
13, 47232, Note_on_c, 12, 47, 96
13, 47260, Note_off_c, 12, 47, 100
13, 47616, Note_on_c, 12, 45, 96
13, 47644, Note_off_c, 12, 45, 100
13, 48000, Note_on_c, 12, 43, 96
13, 48028, Note_off_c, 12, 43, 100
13, 48384, Note_on_c, 12, 45, 96
13, 48444, Note_off_c, 12, 45, 100
13, 49344, Note_on_c, 12, 45, 96
13, 49404, Note_off_c, 12, 45, 100
13, 49536, Note_on_c, 12, 38, 96
13, 49596, Note_off_c, 12, 38, 100
13, 50496, Note_on_c, 12, 50, 96
13, 50556, Note_off_c, 12, 50, 100
13, 50880, Note_on_c, 12, 31, 96
13, 50940, Note_off_c, 12, 31, 100
13, 51072, Note_on_c, 12, 32, 96
13, 51132, Note_off_c, 12, 32, 100
13, 51264, Note_on_c, 12, 33, 96
13, 51324, Note_off_c, 12, 33, 100
13, 51456, Note_on_c, 12, 34, 96
13, 51516, Note_off_c, 12, 34, 100
13, 51648, Note_on_c, 12, 35, 96
13, 51708, Note_off_c, 12, 35, 100
13, 51840, Note_on_c, 12, 36, 96
13, 51868, Note_off_c, 12, 36, 100
13, 52224, Note_on_c, 12, 38, 96
13, 52252, Note_off_c, 12, 38, 100
13, 52608, Note_on_c, 12, 40, 96
13, 52636, Note_off_c, 12, 40, 100
13, 52992, Note_on_c, 12, 42, 96
13, 53020, Note_off_c, 12, 42, 100
13, 54240, Note_on_c, 12, 43, 96
13, 54312, Note_off_c, 12, 43, 100
13, 54336, Note_on_c, 12, 42, 96
13, 54408, Note_off_c, 12, 42, 100
13, 54432, Note_on_c, 12, 43, 96
13, 54504, Note_off_c, 12, 43, 100
13, 54528, Note_on_c, 12, 38, 96
13, 54600, Note_off_c, 12, 38, 100
13, 54624, Note_on_c, 12, 35, 96
13, 54696, Note_off_c, 12, 35, 100
13, 54720, Note_on_c, 12, 33, 96
13, 54792, Note_off_c, 12, 33, 100
13, 54816, Note_on_c, 12, 35, 96
13, 54888, Note_off_c, 12, 35, 100
13, 54912, Note_on_c, 12, 31, 96
13, 55216, Note_off_c, 12, 31, 100
13, 55216, End_track
14, 0, Start_track
14, 1, Copyright_t, "___________________________________________________\012\012KUNSTDERFUGE.COM LARGE CLASSICAL MIDI COLLECTION\012ONCLASSICAL BY ALESSANDRO SIMONETTO, PROPRIETOR\012___________________________________________________\012\012! Attention: this file is under copyright !\012\012(c)onclassical, (c)degiusti, 2010\012___________________________________________________\012\012NO ONE MAY REPUBLISH THIS FILE WITHOUT PERMISSION\012COMMERCIAL USES OF THIS FILE IS STRICTLY PROHIBITED\012___________________________________________________\012\012Files & contributor's list: http://kunstderfuge.com/\012Terms and conditions: http://kunstderfuge.com/notes.htm"
14, 1, End_track
0, 0, End_of_file