0, 0, Header, 1, 1, 480
1, 0, Start_track
1, 0, Sequence_number, 0
1, 0, Title_t, "Default Title"
1, 0, Channel_prefix, 0
1, 0, Instrument_name_t, "1"
1, 0, Program_c, 0, 0
1, 0, Tempo, 869565
1, 0, Time_signature, 4, 2, 24, 24
1, 0, Key_signature, 0, "major"
1, 840, Note_on_c, 0, 70, 90
1, 960, Note_off_c, 0, 70, 0
1, 960, Note_on_c, 0, 75, 90
1, 1320, Note_off_c, 0, 75, 0
1, 1320, Note_on_c, 0, 77, 90
1, 1440, Note_off_c, 0, 77, 0
1, 1440, Note_on_c, 0, 74, 90
1, 2280, Note_off_c, 0, 74, 0
1, 2280, Note_on_c, 0, 72, 90
1, 2400, Note_off_c, 0, 72, 0
1, 2400, Note_on_c, 0, 73, 90
1, 2760, Note_off_c, 0, 73, 0
1, 2760, Note_on_c, 0, 75, 90
1, 2880, Note_off_c, 0, 75, 0
1, 2880, Note_on_c, 0, 72, 90
1, 3720, Note_off_c, 0, 72, 0
1, 3720, Note_on_c, 0, 72, 90
1, 3840, Note_off_c, 0, 72, 0
1, 3840, Note_on_c, 0, 77, 90
1, 4200, Note_off_c, 0, 77, 0
1, 4200, Note_on_c, 0, 79, 90
1, 4320, Note_off_c, 0, 79, 0
1, 4320, Note_on_c, 0, 75, 90
1, 5160, Note_off_c, 0, 75, 0
1, 5160, Note_on_c, 0, 74, 90
1, 5280, Note_off_c, 0, 74, 0
1, 5280, Note_on_c, 0, 75, 90
1, 5640, Note_off_c, 0, 75, 0
1, 5640, Note_on_c, 0, 77, 90
1, 5760, Note_off_c, 0, 77, 0
1, 5760, Note_on_c, 0, 74, 90
1, 6600, Note_off_c, 0, 74, 0
1, 6720, Note_on_c, 0, 79, 90
1, 7080, Note_off_c, 0, 79, 0
1, 7080, Note_on_c, 0, 79, 90
1, 7200, Note_off_c, 0, 79, 0
1, 7200, Note_on_c, 0, 72, 90
1, 7680, Note_off_c, 0, 72, 0
1, 7680, Note_on_c, 0, 72, 90
1, 8040, Note_off_c, 0, 72, 0
1, 8160, Note_on_c, 0, 77, 90
1, 8520, Note_off_c, 0, 77, 0
1, 8640, Note_on_c, 0, 70, 90
1, 9120, Note_off_c, 0, 70, 0
1, 9120, Note_on_c, 0, 75, 90
1, 10560, Note_off_c, 0, 75, 0
1, 10560, Note_on_c, 0, 74, 90
1, 11520, Note_off_c, 0, 74, 0
1, 11520, Note_on_c, 0, 75, 90
1, 12360, Note_off_c, 0, 75, 0
1, 13800, Note_on_c, 0, 80, 90
1, 13920, Note_off_c, 0, 80, 0
1, 13920, Note_on_c, 0, 74, 90
1, 14280, Note_off_c, 0, 74, 0
1, 14400, Note_on_c, 0, 74, 90
1, 15240, Note_off_c, 0, 74, 0
1, 15240, Note_on_c, 0, 75, 90
1, 15360, Note_off_c, 0, 75, 0
1, 15360, Note_on_c, 0, 77, 90
1, 16200, Note_off_c, 0, 77, 0
1, 16200, Note_on_c, 0, 75, 90
1, 16320, Note_off_c, 0, 75, 0
1, 16320, Note_on_c, 0, 75, 90
1, 16800, Note_off_c, 0, 75, 0
1, 16800, Note_on_c, 0, 74, 90
1, 17160, Note_off_c, 0, 74, 0
1, 17160, Note_on_c, 0, 72, 90
1, 17280, Note_off_c, 0, 72, 0
1, 17280, Note_on_c, 0, 72, 90
1, 17760, Note_off_c, 0, 72, 0
1, 19560, Note_on_c, 0, 72, 90
1, 19680, Note_off_c, 0, 72, 0
1, 19680, Note_on_c, 0, 77, 90
1, 20040, Note_off_c, 0, 77, 0
1, 20040, Note_on_c, 0, 79, 90
1, 20160, Note_off_c, 0, 79, 0
1, 20160, Note_on_c, 0, 74, 90
1, 21000, Note_off_c, 0, 74, 0
1, 21000, Note_on_c, 0, 75, 90
1, 21120, Note_off_c, 0, 75, 0
1, 21120, Note_on_c, 0, 77, 90
1, 21480, Note_off_c, 0, 77, 0
1, 21480, Note_on_c, 0, 79, 90
1, 21600, Note_off_c, 0, 79, 0
1, 21600, Note_on_c, 0, 75, 90
1, 21960, Note_off_c, 0, 75, 0
1, 21960, Note_on_c, 0, 74, 90
1, 22080, Note_off_c, 0, 74, 0
1, 22560, Note_on_c, 0, 72, 90
1, 22920, Note_off_c, 0, 72, 0
1, 22920, Note_on_c, 0, 70, 90
1, 23040, Note_off_c, 0, 70, 0
1, 23040, Note_on_c, 0, 70, 90
1, 23520, Note_off_c, 0, 70, 0
1, 23880, Note_on_c, 0, 82, 90
1, 24000, Note_off_c, 0, 82, 0
1, 24000, Note_on_c, 0, 80, 90
1, 24360, Note_off_c, 0, 80, 0
1, 24360, Note_on_c, 0, 82, 90
1, 24480, Note_off_c, 0, 82, 0
1, 24480, Note_on_c, 0, 79, 90
1, 25320, Note_off_c, 0, 79, 0
1, 25320, Note_on_c, 0, 80, 90
1, 25440, Note_off_c, 0, 80, 0
1, 25440, Note_on_c, 0, 82, 90
1, 26280, Note_off_c, 0, 82, 0
1, 26280, Note_on_c, 0, 79, 90
1, 26400, Note_off_c, 0, 79, 0
1, 26400, Note_on_c, 0, 76, 90
1, 26760, Note_off_c, 0, 76, 0
1, 26760, Note_on_c, 0, 77, 90
1, 26880, Note_off_c, 0, 77, 0
1, 26880, Note_on_c, 0, 79, 90
1, 27720, Note_off_c, 0, 79, 0
1, 27720, Note_on_c, 0, 77, 90
1, 27840, Note_off_c, 0, 77, 0
1, 27840, Note_on_c, 0, 73, 90
1, 28200, Note_off_c, 0, 73, 0
1, 28200, Note_on_c, 0, 72, 90
1, 28320, Note_off_c, 0, 72, 0
1, 28320, Note_on_c, 0, 77, 90
1, 28680, Note_off_c, 0, 77, 0
1, 28680, Note_on_c, 0, 79, 90
1, 28800, Note_off_c, 0, 79, 0
1, 28800, Note_on_c, 0, 76, 90
1, 29640, Note_off_c, 0, 76, 0
1, 29640, Note_on_c, 0, 76, 90
1, 29760, Note_off_c, 0, 76, 0
1, 29760, Note_on_c, 0, 80, 90
1, 30120, Note_off_c, 0, 80, 0
1, 30240, Note_on_c, 0, 80, 90
1, 30720, Note_off_c, 0, 80, 0
1, 30720, Note_on_c, 0, 79, 90
1, 31080, Note_off_c, 0, 79, 0
1, 31080, Note_on_c, 0, 77, 90
1, 31200, Note_off_c, 0, 77, 0
1, 31200, Note_on_c, 0, 82, 90
1, 31560, Note_off_c, 0, 82, 0
1, 31680, Note_on_c, 0, 82, 90
1, 32160, Note_off_c, 0, 82, 0
1, 32160, Note_on_c, 0, 76, 90
1, 32520, Note_off_c, 0, 76, 0
1, 32520, Note_on_c, 0, 76, 90
1, 32640, Note_off_c, 0, 76, 0
1, 32640, Note_on_c, 0, 77, 90
1, 33000, Note_off_c, 0, 77, 0
1, 33000, Note_on_c, 0, 76, 90
1, 33120, Note_off_c, 0, 76, 0
1, 33120, Note_on_c, 0, 77, 90
1, 33480, Note_off_c, 0, 77, 0
1, 33480, Note_on_c, 0, 79, 90
1, 33600, Note_off_c, 0, 79, 0
1, 33600, Note_on_c, 0, 77, 90
1, 34080, Note_off_c, 0, 77, 0
1, 34080, Note_on_c, 0, 76, 90
1, 34440, Note_off_c, 0, 76, 0
1, 34440, Note_on_c, 0, 77, 90
1, 34560, Note_off_c, 0, 77, 0
1, 34560, Note_on_c, 0, 77, 90
1, 35040, Note_off_c, 0, 77, 0
1, 36840, Note_on_c, 0, 77, 90
1, 36960, Note_off_c, 0, 77, 0
1, 36960, Note_on_c, 0, 82, 90
1, 37320, Note_off_c, 0, 82, 0
1, 37320, Note_on_c, 0, 80, 90
1, 37440, Note_off_c, 0, 80, 0
1, 37440, Note_on_c, 0, 79, 90
1, 38280, Note_off_c, 0, 79, 0
1, 38280, Note_on_c, 0, 80, 90
1, 38400, Note_off_c, 0, 80, 0
1, 38400, Note_on_c, 0, 73, 90
1, 39240, Note_off_c, 0, 73, 0
1, 39240, Note_on_c, 0, 72, 90
1, 39360, Note_off_c, 0, 72, 0
1, 39360, Note_on_c, 0, 72, 90
1, 39840, Note_off_c, 0, 72, 0
1, 39840, Note_on_c, 0, 70, 90
1, 40200, Note_off_c, 0, 70, 0
1, 40200, Note_on_c, 0, 68, 90
1, 40320, Note_off_c, 0, 68, 0
1, 40320, Note_on_c, 0, 68, 90
1, 41160, Note_off_c, 0, 68, 0
1, 41160, Note_on_c, 0, 63, 90
1, 41280, Note_off_c, 0, 63, 0
1, 41280, Note_on_c, 0, 68, 90
1, 41640, Note_off_c, 0, 68, 0
1, 41640, Note_on_c, 0, 70, 90
1, 41760, Note_off_c, 0, 70, 0
1, 41760, Note_on_c, 0, 67, 90
1, 42600, Note_off_c, 0, 67, 0
1, 42600, Note_on_c, 0, 65, 90
1, 42720, Note_off_c, 0, 65, 0
1, 42720, Note_on_c, 0, 67, 90
1, 43080, Note_off_c, 0, 67, 0
1, 43080, Note_on_c, 0, 68, 90
1, 43200, Note_off_c, 0, 68, 0
1, 43200, Note_on_c, 0, 70, 90
1, 44040, Note_off_c, 0, 70, 0
1, 44040, Note_on_c, 0, 65, 90
1, 44160, Note_off_c, 0, 65, 0
1, 44160, Note_on_c, 0, 70, 90
1, 44520, Note_off_c, 0, 70, 0
1, 44520, Note_on_c, 0, 72, 90
1, 44640, Note_off_c, 0, 72, 0
1, 44640, Note_on_c, 0, 68, 90
1, 45480, Note_off_c, 0, 68, 0
1, 45480, Note_on_c, 0, 67, 90
1, 45600, Note_off_c, 0, 67, 0
1, 45600, Note_on_c, 0, 68, 90
1, 45960, Note_off_c, 0, 68, 0
1, 45960, Note_on_c, 0, 70, 90
1, 46080, Note_off_c, 0, 70, 0
1, 46080, Note_on_c, 0, 67, 90
1, 46920, Note_off_c, 0, 67, 0
1, 46920, Note_on_c, 0, 67, 90
1, 47040, Note_off_c, 0, 67, 0
1, 47040, Note_on_c, 0, 72, 90
1, 47400, Note_off_c, 0, 72, 0
1, 47520, Note_on_c, 0, 72, 90
1, 48000, Note_off_c, 0, 72, 0
1, 48000, Note_on_c, 0, 70, 90
1, 49440, Note_off_c, 0, 70, 0
1, 49440, Note_on_c, 0, 68, 90
1, 51240, Note_off_c, 0, 68, 0
1, 51240, Note_on_c, 0, 67, 90
1, 51360, Note_off_c, 0, 67, 0
1, 51360, Note_on_c, 0, 72, 90
1, 51720, Note_off_c, 0, 72, 0
1, 51840, Note_on_c, 0, 65, 90
1, 52680, Note_off_c, 0, 65, 0
1, 52800, Note_on_c, 0, 70, 90
1, 53160, Note_off_c, 0, 70, 0
1, 53160, Note_on_c, 0, 72, 90
1, 53280, Note_off_c, 0, 72, 0
1, 53280, Note_on_c, 0, 67, 90
1, 53760, Note_off_c, 0, 67, 0
1, 53760, End_track
0, 0, End_of_file