0, 0, Header, 1, 12, 480
1, 0, Start_track
1, 0, Text_t, "D. SHOSTAKOVICH - Fugue in G Major opus 87 no. 3"
1, 0, Tempo, 317460
1, 0, Time_signature, 6, 3, 12, 8
1, 0, Key_signature, 1, "major"
1, 133920, Tempo, 335196
1, 142800, Tempo, 355030
1, 143280, Tempo, 402685
1, 144000, Tempo, 504202
1, 144480, Tempo, 674157
1, 144480, End_track
2, 0, Start_track
2, 0, Title_t, "High"
2, 0, MIDI_port, 0
2, 0, Channel_prefix, 0
2, 0, Control_c, 0, 7, 127
2, 0, Control_c, 0, 10, 70
2, 0, Program_c, 0, 0
2, 0, Note_on_c, 0, 67, 78
2, 0, Control_c, 0, 121, 0
2, 1, Control_c, 0, 91, 45
2, 115, Note_off_c, 0, 67, 64
2, 120, Note_on_c, 0, 69, 83
2, 235, Note_off_c, 0, 69, 64
2, 240, Note_on_c, 0, 71, 88
2, 355, Note_off_c, 0, 71, 64
2, 360, Note_on_c, 0, 72, 94
2, 475, Note_off_c, 0, 72, 64
2, 480, Note_on_c, 0, 74, 99
2, 595, Note_off_c, 0, 74, 64
2, 600, Note_on_c, 0, 76, 104
2, 715, Note_off_c, 0, 76, 64
2, 720, Note_on_c, 0, 78, 110
2, 950, Note_off_c, 0, 78, 64
2, 1200, Note_on_c, 0, 78, 100
2, 1373, Note_off_c, 0, 78, 64
2, 1440, Note_on_c, 0, 69, 113
2, 1901, Note_off_c, 0, 69, 64
2, 1920, Note_on_c, 0, 69, 100
2, 2093, Note_off_c, 0, 69, 64
2, 2160, Note_on_c, 0, 76, 113
2, 2621, Note_off_c, 0, 76, 64
2, 2640, Note_on_c, 0, 76, 100
2, 2813, Note_off_c, 0, 76, 64
2, 2880, Note_on_c, 0, 71, 111
2, 3341, Note_off_c, 0, 71, 64
2, 3360, Note_on_c, 0, 72, 78
2, 3590, Note_off_c, 0, 72, 64
2, 3600, Note_on_c, 0, 83, 100
2, 3773, Note_off_c, 0, 83, 64
2, 3840, Note_on_c, 0, 81, 100
2, 4013, Note_off_c, 0, 81, 64
2, 4080, Note_on_c, 0, 79, 100
2, 4253, Note_off_c, 0, 79, 64
2, 4320, Note_on_c, 0, 78, 100
2, 4493, Note_off_c, 0, 78, 64
2, 4560, Note_on_c, 0, 79, 100
2, 4733, Note_off_c, 0, 79, 64
2, 4800, Note_on_c, 0, 81, 100
2, 4973, Note_off_c, 0, 81, 64
2, 5040, Note_on_c, 0, 76, 100
2, 5213, Note_off_c, 0, 76, 64
2, 5280, Note_on_c, 0, 78, 100
2, 5453, Note_off_c, 0, 78, 64
2, 5520, Note_on_c, 0, 79, 100
2, 5693, Note_off_c, 0, 79, 64
2, 5760, Note_on_c, 0, 78, 100
2, 5933, Note_off_c, 0, 78, 64
2, 6000, Note_on_c, 0, 76, 100
2, 6173, Note_off_c, 0, 76, 64
2, 6240, Note_on_c, 0, 74, 100
2, 6413, Note_off_c, 0, 74, 64
2, 6720, Note_on_c, 0, 81, 117
2, 7411, Note_off_c, 0, 81, 64
2, 7440, Note_on_c, 0, 79, 114
2, 8131, Note_off_c, 0, 79, 64
2, 8160, Note_on_c, 0, 78, 115
2, 8851, Note_off_c, 0, 78, 64
2, 8880, Note_on_c, 0, 86, 114
2, 9571, Note_off_c, 0, 86, 64
2, 9600, Note_on_c, 0, 81, 100
2, 9715, Note_off_c, 0, 81, 64
2, 9720, Note_on_c, 0, 83, 100
2, 9830, Note_off_c, 0, 83, 64
2, 9840, Note_on_c, 0, 81, 100
2, 9950, Note_off_c, 0, 81, 64
2, 9960, Note_on_c, 0, 83, 100
2, 10070, Note_off_c, 0, 83, 64
2, 10080, Note_on_c, 0, 81, 100
2, 10246, Note_off_c, 0, 81, 64
2, 10320, Note_on_c, 0, 81, 100
2, 10430, Note_off_c, 0, 81, 64
2, 10440, Note_on_c, 0, 83, 100
2, 10550, Note_off_c, 0, 83, 64
2, 10560, Note_on_c, 0, 81, 100
2, 10670, Note_off_c, 0, 81, 64
2, 10680, Note_on_c, 0, 83, 100
2, 10790, Note_off_c, 0, 83, 64
2, 10800, Note_on_c, 0, 81, 100
2, 10966, Note_off_c, 0, 81, 64
2, 11040, Note_on_c, 0, 79, 100
2, 11150, Note_off_c, 0, 79, 64
2, 11160, Note_on_c, 0, 81, 100
2, 11270, Note_off_c, 0, 81, 64
2, 11280, Note_on_c, 0, 79, 100
2, 11390, Note_off_c, 0, 79, 64
2, 11400, Note_on_c, 0, 81, 100
2, 11510, Note_off_c, 0, 81, 64
2, 11520, Note_on_c, 0, 78, 112
2, 11963, Note_off_c, 0, 78, 64
2, 12000, Note_on_c, 0, 79, 100
2, 12166, Note_off_c, 0, 79, 64
2, 12240, Note_on_c, 0, 76, 113
2, 12683, Note_off_c, 0, 76, 64
2, 12720, Note_on_c, 0, 78, 100
2, 12886, Note_off_c, 0, 78, 64
2, 12960, Note_on_c, 0, 74, 77
2, 13070, Note_off_c, 0, 74, 64
2, 13080, Note_on_c, 0, 76, 82
2, 13190, Note_off_c, 0, 76, 64
2, 13200, Note_on_c, 0, 78, 88
2, 13310, Note_off_c, 0, 78, 64
2, 13320, Note_on_c, 0, 79, 94
2, 13430, Note_off_c, 0, 79, 64
2, 13440, Note_on_c, 0, 81, 101
2, 13550, Note_off_c, 0, 81, 64
2, 13560, Note_on_c, 0, 83, 107
2, 13670, Note_off_c, 0, 83, 64
2, 13680, Note_on_c, 0, 84, 113
2, 14123, Note_off_c, 0, 84, 64
2, 14160, Note_on_c, 0, 84, 100
2, 14326, Note_off_c, 0, 84, 64
2, 14400, Note_on_c, 0, 74, 116
2, 15063, Note_off_c, 0, 74, 64
2, 15120, Note_on_c, 0, 81, 112
2, 15783, Note_off_c, 0, 81, 64
2, 15840, Note_on_c, 0, 81, 113
2, 16503, Note_off_c, 0, 81, 64
2, 16560, Note_on_c, 0, 79, 113
2, 17223, Note_off_c, 0, 79, 64
2, 17280, Note_on_c, 0, 86, 114
2, 17723, Note_off_c, 0, 86, 64
2, 17760, Note_on_c, 0, 84, 100
2, 17981, Note_off_c, 0, 84, 64
2, 18000, Note_on_c, 0, 86, 114
2, 18443, Note_off_c, 0, 86, 64
2, 18480, Note_on_c, 0, 83, 100
2, 18701, Note_off_c, 0, 83, 64
2, 18720, Note_on_c, 0, 84, 114
2, 19163, Note_off_c, 0, 84, 64
2, 19200, Note_on_c, 0, 78, 100
2, 19421, Note_off_c, 0, 78, 64
2, 19440, Note_on_c, 0, 79, 114
2, 19883, Note_off_c, 0, 79, 64
2, 19920, Note_on_c, 0, 76, 100
2, 20141, Note_off_c, 0, 76, 64
2, 20160, Note_on_c, 0, 79, 112
2, 20823, Note_off_c, 0, 79, 64
2, 20880, Note_on_c, 0, 74, 106
2, 21543, Note_off_c, 0, 74, 64
2, 24480, Note_on_c, 0, 71, 67
2, 24590, Note_off_c, 0, 71, 64
2, 24600, Note_on_c, 0, 72, 71
2, 24710, Note_off_c, 0, 72, 64
2, 24720, Note_on_c, 0, 74, 76
2, 24830, Note_off_c, 0, 74, 64
2, 24840, Note_on_c, 0, 76, 82
2, 24950, Note_off_c, 0, 76, 64
2, 24960, Note_on_c, 0, 78, 87
2, 25070, Note_off_c, 0, 78, 64
2, 25080, Note_on_c, 0, 79, 92
2, 25190, Note_off_c, 0, 79, 64
2, 25200, Note_on_c, 0, 81, 97
2, 25421, Note_off_c, 0, 81, 64
2, 25680, Note_on_c, 0, 81, 87
2, 25846, Note_off_c, 0, 81, 64
2, 25920, Note_on_c, 0, 79, 88
2, 26086, Note_off_c, 0, 79, 64
2, 26160, Note_on_c, 0, 78, 88
2, 26326, Note_off_c, 0, 78, 64
2, 26400, Note_on_c, 0, 76, 89
2, 26566, Note_off_c, 0, 76, 64
2, 26640, Note_on_c, 0, 81, 90
2, 26806, Note_off_c, 0, 81, 64
2, 26880, Note_on_c, 0, 79, 90
2, 27046, Note_off_c, 0, 79, 64
2, 27120, Note_on_c, 0, 78, 91
2, 27563, Note_off_c, 0, 78, 64
2, 27600, Note_on_c, 0, 79, 92
2, 27766, Note_off_c, 0, 79, 64
2, 27840, Note_on_c, 0, 81, 93
2, 28006, Note_off_c, 0, 81, 64
2, 28080, Note_on_c, 0, 76, 94
2, 28246, Note_off_c, 0, 76, 64
2, 28320, Note_on_c, 0, 78, 94
2, 28486, Note_off_c, 0, 78, 64
2, 28560, Note_on_c, 0, 79, 95
2, 28726, Note_off_c, 0, 79, 64
2, 28800, Note_on_c, 0, 78, 96
2, 28966, Note_off_c, 0, 78, 64
2, 29040, Note_on_c, 0, 76, 96
2, 29206, Note_off_c, 0, 76, 64
2, 29280, Note_on_c, 0, 74, 97
2, 29446, Note_off_c, 0, 74, 64
2, 29520, Note_on_c, 0, 76, 98
2, 29630, Note_off_c, 0, 76, 64
2, 29640, Note_on_c, 0, 74, 98
2, 29750, Note_off_c, 0, 74, 64
2, 29760, Note_on_c, 0, 72, 98
2, 29870, Note_off_c, 0, 72, 64
2, 29880, Note_on_c, 0, 71, 99
2, 29990, Note_off_c, 0, 71, 64
2, 30000, Note_on_c, 0, 69, 99
2, 30110, Note_off_c, 0, 69, 64
2, 30120, Note_on_c, 0, 71, 99
2, 30230, Note_off_c, 0, 71, 64
2, 30240, Note_on_c, 0, 72, 100
2, 30406, Note_off_c, 0, 72, 64
2, 30480, Note_on_c, 0, 71, 100
2, 30646, Note_off_c, 0, 71, 64
2, 30720, Note_on_c, 0, 69, 100
2, 30886, Note_off_c, 0, 69, 64
2, 31200, Note_on_c, 0, 76, 100
2, 31863, Note_off_c, 0, 76, 64
2, 31920, Note_on_c, 0, 74, 114
2, 32583, Note_off_c, 0, 74, 64
2, 32640, Note_on_c, 0, 72, 114
2, 33303, Note_off_c, 0, 72, 64
2, 33360, Note_on_c, 0, 81, 114
2, 34023, Note_off_c, 0, 81, 64
2, 34080, Note_on_c, 0, 76, 100
2, 34190, Note_off_c, 0, 76, 64
2, 34200, Note_on_c, 0, 77, 100
2, 34310, Note_off_c, 0, 77, 64
2, 34320, Note_on_c, 0, 76, 100
2, 34430, Note_off_c, 0, 76, 64
2, 34440, Note_on_c, 0, 77, 100
2, 34550, Note_off_c, 0, 77, 64
2, 34560, Note_on_c, 0, 76, 100
2, 34726, Note_off_c, 0, 76, 64
2, 34800, Note_on_c, 0, 76, 100
2, 34910, Note_off_c, 0, 76, 64
2, 34920, Note_on_c, 0, 78, 100
2, 35030, Note_off_c, 0, 78, 64
2, 35040, Note_on_c, 0, 76, 100
2, 35150, Note_off_c, 0, 76, 64
2, 35160, Note_on_c, 0, 78, 100
2, 35270, Note_off_c, 0, 78, 64
2, 35280, Note_on_c, 0, 76, 100
2, 35446, Note_off_c, 0, 76, 64
2, 35520, Note_on_c, 0, 74, 100
2, 35630, Note_off_c, 0, 74, 64
2, 35640, Note_on_c, 0, 76, 100
2, 35750, Note_off_c, 0, 76, 64
2, 35760, Note_on_c, 0, 74, 100
2, 35870, Note_off_c, 0, 74, 64
2, 35880, Note_on_c, 0, 76, 100
2, 35990, Note_off_c, 0, 76, 64
2, 36000, Note_on_c, 0, 72, 100
2, 36166, Note_off_c, 0, 72, 64
2, 48960, Note_on_c, 0, 72, 78
2, 49070, Note_off_c, 0, 72, 64
2, 49080, Note_on_c, 0, 74, 83
2, 49190, Note_off_c, 0, 74, 64
2, 49200, Note_on_c, 0, 76, 89
2, 49310, Note_off_c, 0, 76, 64
2, 49320, Note_on_c, 0, 77, 95
2, 49430, Note_off_c, 0, 77, 64
2, 49440, Note_on_c, 0, 79, 101
2, 49550, Note_off_c, 0, 79, 64
2, 49560, Note_on_c, 0, 81, 107
2, 49670, Note_off_c, 0, 81, 64
2, 49680, Note_on_c, 0, 83, 113
2, 49901, Note_off_c, 0, 83, 64
2, 50160, Note_on_c, 0, 83, 100
2, 50326, Note_off_c, 0, 83, 64
2, 50400, Note_on_c, 0, 74, 113
2, 50843, Note_off_c, 0, 74, 64
2, 50880, Note_on_c, 0, 74, 100
2, 51046, Note_off_c, 0, 74, 64
2, 51120, Note_on_c, 0, 81, 117
2, 51563, Note_off_c, 0, 81, 64
2, 51600, Note_on_c, 0, 81, 100
2, 51766, Note_off_c, 0, 81, 64
2, 51840, Note_on_c, 0, 76, 117
2, 52283, Note_off_c, 0, 76, 64
2, 52320, Note_on_c, 0, 77, 100
2, 52541, Note_off_c, 0, 77, 64
2, 52560, Note_on_c, 0, 88, 100
2, 52726, Note_off_c, 0, 88, 64
2, 52800, Note_on_c, 0, 86, 100
2, 52966, Note_off_c, 0, 86, 64
2, 53040, Note_on_c, 0, 84, 100
2, 53206, Note_off_c, 0, 84, 64
2, 53280, Note_on_c, 0, 83, 100
2, 53446, Note_off_c, 0, 83, 64
2, 53520, Note_on_c, 0, 84, 100
2, 53686, Note_off_c, 0, 84, 64
2, 53760, Note_on_c, 0, 86, 100
2, 53926, Note_off_c, 0, 86, 64
2, 54000, Note_on_c, 0, 81, 100
2, 54166, Note_off_c, 0, 81, 64
2, 54240, Note_on_c, 0, 83, 100
2, 54406, Note_off_c, 0, 83, 64
2, 54480, Note_on_c, 0, 84, 100
2, 54646, Note_off_c, 0, 84, 64
2, 54720, Note_on_c, 0, 83, 100
2, 54886, Note_off_c, 0, 83, 64
2, 54960, Note_on_c, 0, 81, 100
2, 55126, Note_off_c, 0, 81, 64
2, 55200, Note_on_c, 0, 79, 100
2, 55366, Note_off_c, 0, 79, 64
2, 55440, Note_on_c, 0, 83, 95
2, 55606, Note_off_c, 0, 83, 64
2, 55680, Note_on_c, 0, 81, 90
2, 55846, Note_off_c, 0, 81, 64
2, 55920, Note_on_c, 0, 79, 85
2, 56086, Note_off_c, 0, 79, 64
2, 56160, Note_on_c, 0, 81, 80
2, 56326, Note_off_c, 0, 81, 64
2, 56400, Note_on_c, 0, 79, 80
2, 56566, Note_off_c, 0, 79, 64
2, 56640, Note_on_c, 0, 77, 80
2, 56806, Note_off_c, 0, 77, 64
2, 56880, Note_on_c, 0, 79, 80
2, 57046, Note_off_c, 0, 79, 64
2, 57120, Note_on_c, 0, 77, 80
2, 57286, Note_off_c, 0, 77, 64
2, 57360, Note_on_c, 0, 76, 80
2, 57526, Note_off_c, 0, 76, 64
2, 57600, Note_on_c, 0, 77, 57
2, 57710, Note_off_c, 0, 77, 64
2, 57720, Note_on_c, 0, 79, 64
2, 57830, Note_off_c, 0, 79, 64
2, 57840, Note_on_c, 0, 81, 71
2, 57950, Note_off_c, 0, 81, 64
2, 57960, Note_on_c, 0, 83, 78
2, 58070, Note_off_c, 0, 83, 64
2, 58080, Note_on_c, 0, 84, 85
2, 58190, Note_off_c, 0, 84, 64
2, 58200, Note_on_c, 0, 86, 92
2, 58310, Note_off_c, 0, 86, 64
2, 58320, Note_on_c, 0, 88, 99
2, 58763, Note_off_c, 0, 88, 64
2, 58800, Note_on_c, 0, 88, 92
2, 58966, Note_off_c, 0, 88, 64
2, 59040, Note_on_c, 0, 86, 93
2, 59206, Note_off_c, 0, 86, 64
2, 59280, Note_on_c, 0, 84, 93
2, 59446, Note_off_c, 0, 84, 64
2, 59520, Note_on_c, 0, 83, 94
2, 59686, Note_off_c, 0, 83, 64
2, 59760, Note_on_c, 0, 84, 94
2, 59926, Note_off_c, 0, 84, 64
2, 60000, Note_on_c, 0, 83, 95
2, 60166, Note_off_c, 0, 83, 64
2, 60240, Note_on_c, 0, 81, 95
2, 60406, Note_off_c, 0, 81, 64
2, 60480, Note_on_c, 0, 79, 59
2, 60590, Note_off_c, 0, 79, 64
2, 60600, Note_on_c, 0, 81, 68
2, 60710, Note_off_c, 0, 81, 64
2, 60720, Note_on_c, 0, 83, 76
2, 60830, Note_off_c, 0, 83, 64
2, 60840, Note_on_c, 0, 84, 85
2, 60950, Note_off_c, 0, 84, 64
2, 60960, Note_on_c, 0, 86, 93
2, 61070, Note_off_c, 0, 86, 64
2, 61080, Note_on_c, 0, 88, 101
2, 61190, Note_off_c, 0, 88, 64
2, 61200, Note_on_c, 0, 89, 110
2, 61643, Note_off_c, 0, 89, 64
2, 61680, Note_on_c, 0, 89, 99
2, 61846, Note_off_c, 0, 89, 64
2, 61920, Note_on_c, 0, 70, 79
2, 62030, Note_off_c, 0, 70, 64
2, 62040, Note_on_c, 0, 72, 85
2, 62150, Note_off_c, 0, 72, 64
2, 62160, Note_on_c, 0, 74, 90
2, 62270, Note_off_c, 0, 74, 64
2, 62280, Note_on_c, 0, 75, 96
2, 62390, Note_off_c, 0, 75, 64
2, 62400, Note_on_c, 0, 77, 102
2, 62510, Note_off_c, 0, 77, 64
2, 62520, Note_on_c, 0, 79, 108
2, 62630, Note_off_c, 0, 79, 64
2, 62640, Note_on_c, 0, 81, 114
2, 63083, Note_off_c, 0, 81, 64
2, 63120, Note_on_c, 0, 81, 100
2, 63286, Note_off_c, 0, 81, 64
2, 63360, Note_on_c, 0, 72, 116
2, 63803, Note_off_c, 0, 72, 64
2, 63840, Note_on_c, 0, 72, 100
2, 64006, Note_off_c, 0, 72, 64
2, 64080, Note_on_c, 0, 79, 113
2, 64523, Note_off_c, 0, 79, 64
2, 64560, Note_on_c, 0, 79, 100
2, 64726, Note_off_c, 0, 79, 64
2, 64800, Note_on_c, 0, 74, 115
2, 65243, Note_off_c, 0, 74, 64
2, 65280, Note_on_c, 0, 75, 100
2, 65501, Note_off_c, 0, 75, 64
2, 65520, Note_on_c, 0, 86, 100
2, 65686, Note_off_c, 0, 86, 64
2, 65760, Note_on_c, 0, 84, 100
2, 65926, Note_off_c, 0, 84, 64
2, 66000, Note_on_c, 0, 82, 100
2, 66166, Note_off_c, 0, 82, 64
2, 66240, Note_on_c, 0, 81, 100
2, 66406, Note_off_c, 0, 81, 64
2, 66480, Note_on_c, 0, 82, 100
2, 66646, Note_off_c, 0, 82, 64
2, 66720, Note_on_c, 0, 84, 100
2, 66886, Note_off_c, 0, 84, 64
2, 66960, Note_on_c, 0, 79, 100
2, 67126, Note_off_c, 0, 79, 64
2, 67200, Note_on_c, 0, 81, 100
2, 67366, Note_off_c, 0, 81, 64
2, 67440, Note_on_c, 0, 82, 100
2, 67606, Note_off_c, 0, 82, 64
2, 81360, Note_on_c, 0, 80, 68
2, 81470, Note_off_c, 0, 80, 64
2, 81480, Note_on_c, 0, 82, 75
2, 81590, Note_off_c, 0, 82, 64
2, 81600, Note_on_c, 0, 84, 83
2, 81710, Note_off_c, 0, 84, 64
2, 81720, Note_on_c, 0, 86, 90
2, 81830, Note_off_c, 0, 86, 64
2, 81840, Note_on_c, 0, 87, 98
2, 81950, Note_off_c, 0, 87, 64
2, 81960, Note_on_c, 0, 89, 105
2, 82070, Note_off_c, 0, 89, 64
2, 82080, Note_on_c, 0, 91, 112
2, 82523, Note_off_c, 0, 91, 64
2, 82560, Note_on_c, 0, 91, 106
2, 82726, Note_off_c, 0, 91, 64
2, 82800, Note_on_c, 0, 80, 84
2, 82910, Note_off_c, 0, 80, 64
2, 82920, Note_on_c, 0, 82, 89
2, 83030, Note_off_c, 0, 82, 64
2, 83040, Note_on_c, 0, 84, 94
2, 83150, Note_off_c, 0, 84, 64
2, 83160, Note_on_c, 0, 86, 99
2, 83270, Note_off_c, 0, 86, 64
2, 83280, Note_on_c, 0, 87, 104
2, 83390, Note_off_c, 0, 87, 64
2, 83400, Note_on_c, 0, 89, 109
2, 83510, Note_off_c, 0, 89, 64
2, 83520, Note_on_c, 0, 91, 114
2, 83963, Note_off_c, 0, 91, 64
2, 84000, Note_on_c, 0, 91, 109
2, 84166, Note_off_c, 0, 91, 64
2, 84240, Note_on_c, 0, 79, 109
2, 84406, Note_off_c, 0, 79, 64
2, 84480, Note_on_c, 0, 80, 110
2, 84646, Note_off_c, 0, 80, 64
2, 84720, Note_on_c, 0, 82, 110
2, 85163, Note_off_c, 0, 82, 64
2, 85200, Note_on_c, 0, 84, 112
2, 85366, Note_off_c, 0, 84, 64
2, 85440, Note_on_c, 0, 86, 112
2, 85606, Note_off_c, 0, 86, 64
2, 85680, Note_on_c, 0, 87, 113
2, 85846, Note_off_c, 0, 87, 64
2, 85920, Note_on_c, 0, 89, 113
2, 86086, Note_off_c, 0, 89, 64
2, 86160, Note_on_c, 0, 91, 114
2, 86326, Note_off_c, 0, 91, 64
2, 86400, Note_on_c, 0, 67, 92
2, 86510, Note_off_c, 0, 67, 64
2, 86520, Note_on_c, 0, 69, 95
2, 86630, Note_off_c, 0, 69, 64
2, 86640, Note_on_c, 0, 71, 99
2, 86750, Note_off_c, 0, 71, 64
2, 86760, Note_on_c, 0, 72, 104
2, 86870, Note_off_c, 0, 72, 64
2, 86880, Note_on_c, 0, 74, 108
2, 86990, Note_off_c, 0, 74, 64
2, 87000, Note_on_c, 0, 76, 112
2, 87110, Note_off_c, 0, 76, 64
2, 87120, Note_on_c, 0, 78, 116
2, 87341, Note_off_c, 0, 78, 64
2, 87600, Note_on_c, 0, 78, 115
2, 87766, Note_off_c, 0, 78, 64
2, 87840, Note_on_c, 0, 69, 124
2, 88283, Note_off_c, 0, 69, 64
2, 88320, Note_on_c, 0, 69, 115
2, 88486, Note_off_c, 0, 69, 64
2, 88560, Note_on_c, 0, 76, 124
2, 89003, Note_off_c, 0, 76, 64
2, 89040, Note_on_c, 0, 76, 115
2, 89206, Note_off_c, 0, 76, 64
2, 89280, Note_on_c, 0, 71, 122
2, 89723, Note_off_c, 0, 71, 64
2, 89760, Note_on_c, 0, 72, 115
2, 89981, Note_off_c, 0, 72, 64
2, 90000, Note_on_c, 0, 83, 115
2, 90166, Note_off_c, 0, 83, 64
2, 90240, Note_on_c, 0, 81, 115
2, 90406, Note_off_c, 0, 81, 64
2, 90480, Note_on_c, 0, 79, 115
2, 90646, Note_off_c, 0, 79, 64
2, 90720, Note_on_c, 0, 78, 115
2, 90886, Note_off_c, 0, 78, 64
2, 90960, Note_on_c, 0, 79, 115
2, 91126, Note_off_c, 0, 79, 64
2, 91200, Note_on_c, 0, 81, 115
2, 91366, Note_off_c, 0, 81, 64
2, 91440, Note_on_c, 0, 76, 115
2, 91606, Note_off_c, 0, 76, 64
2, 91680, Note_on_c, 0, 78, 115
2, 91846, Note_off_c, 0, 78, 64
2, 91920, Note_on_c, 0, 79, 115
2, 92086, Note_off_c, 0, 79, 64
2, 92160, Note_on_c, 0, 78, 115
2, 92326, Note_off_c, 0, 78, 64
2, 92400, Note_on_c, 0, 76, 115
2, 92566, Note_off_c, 0, 76, 64
2, 92640, Note_on_c, 0, 78, 115
2, 92806, Note_off_c, 0, 78, 64
2, 92880, Note_on_c, 0, 74, 89
2, 92990, Note_off_c, 0, 74, 64
2, 93000, Note_on_c, 0, 76, 95
2, 93110, Note_off_c, 0, 76, 64
2, 93120, Note_on_c, 0, 78, 100
2, 93230, Note_off_c, 0, 78, 64
2, 93240, Note_on_c, 0, 79, 106
2, 93350, Note_off_c, 0, 79, 64
2, 93360, Note_on_c, 0, 81, 111
2, 93475, Note_off_c, 0, 81, 64
2, 93480, Note_on_c, 0, 83, 117
2, 93595, Note_off_c, 0, 83, 64
2, 93600, Note_on_c, 0, 85, 122
2, 94061, Note_off_c, 0, 85, 64
2, 94080, Note_on_c, 0, 85, 115
2, 94253, Note_off_c, 0, 85, 64
2, 94320, Note_on_c, 0, 76, 126
2, 94781, Note_off_c, 0, 76, 64
2, 94800, Note_on_c, 0, 76, 115
2, 94973, Note_off_c, 0, 76, 64
2, 95040, Note_on_c, 0, 83, 124
2, 95501, Note_off_c, 0, 83, 64
2, 95520, Note_on_c, 0, 83, 115
2, 95693, Note_off_c, 0, 83, 64
2, 95760, Note_on_c, 0, 78, 115
2, 96221, Note_off_c, 0, 78, 64
2, 96240, Note_on_c, 0, 79, 115
2, 96470, Note_off_c, 0, 79, 64
2, 96480, Note_on_c, 0, 90, 115
2, 96653, Note_off_c, 0, 90, 64
2, 96720, Note_on_c, 0, 88, 115
2, 96893, Note_off_c, 0, 88, 64
2, 96960, Note_on_c, 0, 86, 115
2, 97133, Note_off_c, 0, 86, 64
2, 97200, Note_on_c, 0, 85, 115
2, 97373, Note_off_c, 0, 85, 64
2, 97440, Note_on_c, 0, 86, 115
2, 97613, Note_off_c, 0, 86, 64
2, 97680, Note_on_c, 0, 88, 115
2, 97853, Note_off_c, 0, 88, 64
2, 97920, Note_on_c, 0, 83, 115
2, 98093, Note_off_c, 0, 83, 64
2, 98160, Note_on_c, 0, 85, 115
2, 98333, Note_off_c, 0, 85, 64
2, 98400, Note_on_c, 0, 86, 115
2, 98573, Note_off_c, 0, 86, 64
2, 98640, Note_on_c, 0, 81, 109
2, 98813, Note_off_c, 0, 81, 64
2, 98880, Note_on_c, 0, 83, 106
2, 99053, Note_off_c, 0, 83, 64
2, 99120, Note_on_c, 0, 85, 103
2, 99293, Note_off_c, 0, 85, 64
2, 99360, Note_on_c, 0, 79, 100
2, 99533, Note_off_c, 0, 79, 64
2, 99600, Note_on_c, 0, 81, 97
2, 99773, Note_off_c, 0, 81, 64
2, 99840, Note_on_c, 0, 83, 94
2, 100013, Note_off_c, 0, 83, 64
2, 106560, Note_on_c, 0, 77, 99
2, 107251, Note_off_c, 0, 77, 64
2, 107280, Note_on_c, 0, 65, 81
2, 107395, Note_off_c, 0, 65, 64
2, 107400, Note_on_c, 0, 67, 86
2, 107515, Note_off_c, 0, 67, 64
2, 107520, Note_on_c, 0, 69, 91
2, 107635, Note_off_c, 0, 69, 64
2, 107640, Note_on_c, 0, 70, 96
2, 107755, Note_off_c, 0, 70, 64
2, 107760, Note_on_c, 0, 72, 102
2, 107875, Note_off_c, 0, 72, 64
2, 107880, Note_on_c, 0, 74, 107
2, 107995, Note_off_c, 0, 74, 64
2, 108000, Note_on_c, 0, 76, 112
2, 108230, Note_off_c, 0, 76, 64
2, 108480, Note_on_c, 0, 76, 100
2, 108653, Note_off_c, 0, 76, 64
2, 108720, Note_on_c, 0, 67, 116
2, 109181, Note_off_c, 0, 67, 64
2, 109200, Note_on_c, 0, 67, 100
2, 109373, Note_off_c, 0, 67, 64
2, 109440, Note_on_c, 0, 74, 116
2, 109901, Note_off_c, 0, 74, 64
2, 109920, Note_on_c, 0, 74, 100
2, 110093, Note_off_c, 0, 74, 64
2, 110160, Note_on_c, 0, 69, 100
2, 110621, Note_off_c, 0, 69, 64
2, 110640, Note_on_c, 0, 70, 100
2, 110870, Note_off_c, 0, 70, 64
2, 110880, Note_on_c, 0, 81, 100
2, 111053, Note_off_c, 0, 81, 64
2, 111120, Note_on_c, 0, 79, 100
2, 111293, Note_off_c, 0, 79, 64
2, 111360, Note_on_c, 0, 77, 100
2, 111533, Note_off_c, 0, 77, 64
2, 111600, Note_on_c, 0, 79, 100
2, 111773, Note_off_c, 0, 79, 64
2, 111840, Note_on_c, 0, 77, 100
2, 112013, Note_off_c, 0, 77, 64
2, 112080, Note_on_c, 0, 75, 100
2, 112253, Note_off_c, 0, 75, 64
2, 112320, Note_on_c, 0, 74, 100
2, 112493, Note_off_c, 0, 74, 64
2, 112560, Note_on_c, 0, 72, 100
2, 112733, Note_off_c, 0, 72, 64
2, 112800, Note_on_c, 0, 70, 100
2, 112973, Note_off_c, 0, 70, 64
2, 113280, Note_on_c, 0, 77, 116
2, 113971, Note_off_c, 0, 77, 64
2, 114000, Note_on_c, 0, 77, 116
2, 114691, Note_off_c, 0, 77, 64
2, 114720, Note_on_c, 0, 75, 115
2, 115411, Note_off_c, 0, 75, 64
2, 115440, Note_on_c, 0, 70, 100
2, 115613, Note_off_c, 0, 70, 64
2, 115680, Note_on_c, 0, 72, 100
2, 115853, Note_off_c, 0, 72, 64
2, 115920, Note_on_c, 0, 74, 100
2, 116611, Note_off_c, 0, 74, 64
2, 116640, Note_on_c, 0, 74, 100
2, 117331, Note_off_c, 0, 74, 64
2, 117360, Note_on_c, 0, 75, 100
2, 118051, Note_off_c, 0, 75, 64
2, 118080, Note_on_c, 0, 76, 127
2, 118195, Note_off_c, 0, 76, 64
2, 118200, Note_on_c, 0, 78, 84
2, 118315, Note_off_c, 0, 78, 64
2, 118320, Note_on_c, 0, 79, 90
2, 118435, Note_off_c, 0, 79, 64
2, 118440, Note_on_c, 0, 81, 96
2, 118555, Note_off_c, 0, 81, 64
2, 118560, Note_on_c, 0, 83, 102
2, 118675, Note_off_c, 0, 83, 64
2, 118680, Note_on_c, 0, 84, 108
2, 118795, Note_off_c, 0, 84, 64
2, 118800, Note_on_c, 0, 86, 114
2, 119030, Note_off_c, 0, 86, 64
2, 119280, Note_on_c, 0, 86, 102
2, 119453, Note_off_c, 0, 86, 64
2, 119520, Note_on_c, 0, 76, 83
2, 119635, Note_off_c, 0, 76, 64
2, 119640, Note_on_c, 0, 78, 88
2, 119755, Note_off_c, 0, 78, 64
2, 119760, Note_on_c, 0, 79, 92
2, 119875, Note_off_c, 0, 79, 64
2, 119880, Note_on_c, 0, 81, 97
2, 119995, Note_off_c, 0, 81, 64
2, 120000, Note_on_c, 0, 83, 101
2, 120115, Note_off_c, 0, 83, 64
2, 120120, Note_on_c, 0, 84, 106
2, 120235, Note_off_c, 0, 84, 64
2, 120240, Note_on_c, 0, 86, 110
2, 120470, Note_off_c, 0, 86, 64
2, 120720, Note_on_c, 0, 86, 103
2, 120893, Note_off_c, 0, 86, 64
2, 120960, Note_on_c, 0, 78, 118
2, 121421, Note_off_c, 0, 78, 64
2, 121440, Note_on_c, 0, 78, 104
2, 121613, Note_off_c, 0, 78, 64
2, 121680, Note_on_c, 0, 84, 118
2, 122141, Note_off_c, 0, 84, 64
2, 122160, Note_on_c, 0, 84, 104
2, 122333, Note_off_c, 0, 84, 64
2, 122400, Note_on_c, 0, 76, 89
2, 122515, Note_off_c, 0, 76, 64
2, 122520, Note_on_c, 0, 78, 94
2, 122635, Note_off_c, 0, 78, 64
2, 122640, Note_on_c, 0, 79, 99
2, 122755, Note_off_c, 0, 79, 64
2, 122760, Note_on_c, 0, 81, 104
2, 122875, Note_off_c, 0, 81, 64
2, 122880, Note_on_c, 0, 83, 109
2, 122995, Note_off_c, 0, 83, 64
2, 123000, Note_on_c, 0, 84, 114
2, 123115, Note_off_c, 0, 84, 64
2, 123120, Note_on_c, 0, 86, 119
2, 123350, Note_off_c, 0, 86, 64
2, 123600, Note_on_c, 0, 86, 105
2, 123773, Note_off_c, 0, 86, 64
2, 123840, Note_on_c, 0, 78, 118
2, 124301, Note_off_c, 0, 78, 64
2, 124320, Note_on_c, 0, 78, 100
2, 124493, Note_off_c, 0, 78, 64
2, 124560, Note_on_c, 0, 84, 115
2, 125021, Note_off_c, 0, 84, 64
2, 125040, Note_on_c, 0, 84, 100
2, 125213, Note_off_c, 0, 84, 64
2, 126720, Note_on_c, 0, 67, 100
2, 126835, Note_off_c, 0, 67, 64
2, 126840, Note_on_c, 0, 69, 100
2, 126955, Note_off_c, 0, 69, 64
2, 126960, Note_on_c, 0, 71, 100
2, 127075, Note_off_c, 0, 71, 64
2, 127080, Note_on_c, 0, 72, 100
2, 127195, Note_off_c, 0, 72, 64
2, 127200, Note_on_c, 0, 74, 100
2, 127315, Note_off_c, 0, 74, 64
2, 127320, Note_on_c, 0, 76, 100
2, 127435, Note_off_c, 0, 76, 64
2, 127440, Note_on_c, 0, 78, 114
2, 127901, Note_off_c, 0, 78, 64
2, 127920, Note_on_c, 0, 78, 100
2, 128093, Note_off_c, 0, 78, 64
2, 128160, Note_on_c, 0, 69, 115
2, 128621, Note_off_c, 0, 69, 64
2, 128640, Note_on_c, 0, 69, 103
2, 128813, Note_off_c, 0, 69, 64
2, 128880, Note_on_c, 0, 76, 115
2, 129341, Note_off_c, 0, 76, 64
2, 129360, Note_on_c, 0, 76, 104
2, 129533, Note_off_c, 0, 76, 64
2, 129600, Note_on_c, 0, 71, 105
2, 130061, Note_off_c, 0, 71, 64
2, 130080, Note_on_c, 0, 72, 106
2, 130310, Note_off_c, 0, 72, 64
2, 130320, Note_on_c, 0, 83, 106
2, 130493, Note_off_c, 0, 83, 64
2, 130560, Note_on_c, 0, 81, 107
2, 130733, Note_off_c, 0, 81, 64
2, 130800, Note_on_c, 0, 79, 107
2, 130973, Note_off_c, 0, 79, 64
2, 131040, Note_on_c, 0, 69, 88
2, 131155, Note_off_c, 0, 69, 64
2, 131160, Note_on_c, 0, 71, 92
2, 131275, Note_off_c, 0, 71, 64
2, 131280, Note_on_c, 0, 72, 97
2, 131395, Note_off_c, 0, 72, 64
2, 131400, Note_on_c, 0, 74, 101
2, 131515, Note_off_c, 0, 74, 64
2, 131520, Note_on_c, 0, 76, 106
2, 131635, Note_off_c, 0, 76, 64
2, 131640, Note_on_c, 0, 78, 110
2, 131755, Note_off_c, 0, 78, 64
2, 131760, Note_on_c, 0, 79, 115
2, 132221, Note_off_c, 0, 79, 64
2, 132240, Note_on_c, 0, 79, 111
2, 132413, Note_off_c, 0, 79, 64
2, 132480, Note_on_c, 0, 69, 87
2, 132595, Note_off_c, 0, 69, 64
2, 132600, Note_on_c, 0, 71, 93
2, 132715, Note_off_c, 0, 71, 64
2, 132720, Note_on_c, 0, 72, 98
2, 132835, Note_off_c, 0, 72, 64
2, 132840, Note_on_c, 0, 74, 104
2, 132955, Note_off_c, 0, 74, 64
2, 132960, Note_on_c, 0, 76, 109
2, 133075, Note_off_c, 0, 76, 64
2, 133080, Note_on_c, 0, 78, 115
2, 133195, Note_off_c, 0, 78, 64
2, 133200, Note_on_c, 0, 79, 120
2, 133661, Note_off_c, 0, 79, 64
2, 133680, Note_on_c, 0, 79, 114
2, 133853, Note_off_c, 0, 79, 64
2, 134640, Note_on_c, 0, 63, 115
2, 134813, Note_off_c, 0, 63, 64
2, 134880, Note_on_c, 0, 65, 115
2, 135053, Note_off_c, 0, 65, 64
2, 135120, Note_on_c, 0, 67, 115
2, 135293, Note_off_c, 0, 67, 64
2, 135360, Note_on_c, 0, 68, 115
2, 135533, Note_off_c, 0, 68, 64
2, 135600, Note_on_c, 0, 70, 115
2, 135773, Note_off_c, 0, 70, 64
2, 135840, Note_on_c, 0, 72, 115
2, 136013, Note_off_c, 0, 72, 64
2, 136080, Note_on_c, 0, 74, 124
2, 136541, Note_off_c, 0, 74, 64
2, 136560, Note_on_c, 0, 74, 115
2, 136733, Note_off_c, 0, 74, 64
2, 136800, Note_on_c, 0, 65, 127
2, 137261, Note_off_c, 0, 65, 64
2, 137280, Note_on_c, 0, 65, 115
2, 137453, Note_off_c, 0, 65, 64
2, 137520, Note_on_c, 0, 72, 125
2, 137981, Note_off_c, 0, 72, 64
2, 138000, Note_on_c, 0, 72, 115
2, 138173, Note_off_c, 0, 72, 64
2, 138240, Note_on_c, 0, 67, 124
2, 138701, Note_off_c, 0, 67, 64
2, 138720, Note_on_c, 0, 68, 115
2, 138950, Note_off_c, 0, 68, 64
2, 138960, Note_on_c, 0, 79, 115
2, 139133, Note_off_c, 0, 79, 64
2, 139200, Note_on_c, 0, 77, 115
2, 139373, Note_off_c, 0, 77, 64
2, 139440, Note_on_c, 0, 75, 115
2, 139613, Note_off_c, 0, 75, 64
2, 139680, Note_on_c, 0, 74, 115
2, 139853, Note_off_c, 0, 74, 64
2, 139920, Note_on_c, 0, 75, 115
2, 140093, Note_off_c, 0, 75, 64
2, 140160, Note_on_c, 0, 77, 115
2, 140333, Note_off_c, 0, 77, 64
2, 140400, Note_on_c, 0, 72, 115
2, 140573, Note_off_c, 0, 72, 64
2, 140640, Note_on_c, 0, 74, 115
2, 140813, Note_off_c, 0, 74, 64
2, 140880, Note_on_c, 0, 75, 115
2, 141053, Note_off_c, 0, 75, 64
2, 141120, Note_on_c, 0, 74, 115
2, 143194, Note_off_c, 0, 74, 64
2, 143280, Note_on_c, 0, 72, 115
2, 143971, Note_off_c, 0, 72, 64
2, 144000, Note_on_c, 0, 71, 115
2, 145382, Note_off_c, 0, 71, 64
2, 145437, Control_c, 0, 91, 0
2, 145438, Control_c, 0, 121, 0
2, 145438, End_track
3, 0, Start_track
3, 0, Title_t, "Middle"
3, 0, MIDI_port, 0
3, 0, Channel_prefix, 1
3, 0, Control_c, 1, 7, 127
3, 0, Control_c, 1, 10, 64
3, 0, Program_c, 1, 0
3, 0, Control_c, 1, 121, 0
3, 1, Control_c, 1, 91, 50
3, 5760, Note_on_c, 1, 62, 80
3, 5880, Note_off_c, 1, 62, 64
3, 5880, Note_on_c, 1, 64, 86
3, 6000, Note_off_c, 1, 64, 64
3, 6000, Note_on_c, 1, 66, 91
3, 6120, Note_off_c, 1, 66, 64
3, 6120, Note_on_c, 1, 67, 96
3, 6240, Note_off_c, 1, 67, 64
3, 6240, Note_on_c, 1, 69, 102
3, 6360, Note_off_c, 1, 69, 64
3, 6360, Note_on_c, 1, 71, 107
3, 6480, Note_off_c, 1, 71, 64
3, 6480, Note_on_c, 1, 73, 112
3, 6720, Note_off_c, 1, 73, 64
3, 6960, Note_on_c, 1, 73, 100
3, 7140, Note_off_c, 1, 73, 64
3, 7200, Note_on_c, 1, 64, 118
3, 7680, Note_off_c, 1, 64, 64
3, 7680, Note_on_c, 1, 64, 100
3, 7860, Note_off_c, 1, 64, 64
3, 7920, Note_on_c, 1, 71, 118
3, 8400, Note_off_c, 1, 71, 64
3, 8400, Note_on_c, 1, 71, 100
3, 8580, Note_off_c, 1, 71, 64
3, 8640, Note_on_c, 1, 66, 116
3, 9120, Note_off_c, 1, 66, 64
3, 9120, Note_on_c, 1, 67, 90
3, 9360, Note_off_c, 1, 67, 64
3, 9360, Note_on_c, 1, 78, 104
3, 9540, Note_off_c, 1, 78, 64
3, 9600, Note_on_c, 1, 76, 100
3, 9780, Note_off_c, 1, 76, 64
3, 9840, Note_on_c, 1, 74, 100
3, 10020, Note_off_c, 1, 74, 64
3, 10080, Note_on_c, 1, 73, 100
3, 10260, Note_off_c, 1, 73, 64
3, 10320, Note_on_c, 1, 74, 100
3, 10500, Note_off_c, 1, 74, 64
3, 10560, Note_on_c, 1, 76, 100
3, 10740, Note_off_c, 1, 76, 64
3, 10800, Note_on_c, 1, 71, 100
3, 10980, Note_off_c, 1, 71, 64
3, 11040, Note_on_c, 1, 73, 100
3, 11220, Note_off_c, 1, 73, 64
3, 11280, Note_on_c, 1, 74, 100
3, 11460, Note_off_c, 1, 74, 64
3, 11520, Note_on_c, 1, 73, 100
3, 11700, Note_off_c, 1, 73, 64
3, 11760, Note_on_c, 1, 71, 100
3, 11940, Note_off_c, 1, 71, 64
3, 12000, Note_on_c, 1, 69, 100
3, 12180, Note_off_c, 1, 69, 64
3, 12240, Note_on_c, 1, 72, 100
3, 12420, Note_off_c, 1, 72, 64
3, 12480, Note_on_c, 1, 71, 100
3, 12660, Note_off_c, 1, 71, 64
3, 12720, Note_on_c, 1, 69, 100
3, 12900, Note_off_c, 1, 69, 64
3, 12960, Note_on_c, 1, 71, 100
3, 13140, Note_off_c, 1, 71, 64
3, 13200, Note_on_c, 1, 69, 100
3, 13380, Note_off_c, 1, 69, 64
3, 13440, Note_on_c, 1, 67, 100
3, 13620, Note_off_c, 1, 67, 64
3, 13680, Note_on_c, 1, 69, 100
3, 13860, Note_off_c, 1, 69, 64
3, 13920, Note_on_c, 1, 67, 100
3, 14100, Note_off_c, 1, 67, 64
3, 14160, Note_on_c, 1, 66, 100
3, 14340, Note_off_c, 1, 66, 64
3, 14400, Note_on_c, 1, 71, 100
3, 14580, Note_off_c, 1, 71, 64
3, 14640, Note_on_c, 1, 69, 100
3, 14820, Note_off_c, 1, 69, 64
3, 14880, Note_on_c, 1, 67, 100
3, 15060, Note_off_c, 1, 67, 64
3, 15360, Note_on_c, 1, 74, 119
3, 16080, Note_off_c, 1, 74, 64
3, 16080, Note_on_c, 1, 72, 116
3, 16800, Note_off_c, 1, 72, 64
3, 16800, Note_on_c, 1, 71, 115
3, 17520, Note_off_c, 1, 71, 64
3, 17520, Note_on_c, 1, 79, 117
3, 18240, Note_off_c, 1, 79, 64
3, 18240, Note_on_c, 1, 74, 100
3, 18360, Note_off_c, 1, 74, 64
3, 18360, Note_on_c, 1, 76, 100
3, 18480, Note_off_c, 1, 76, 64
3, 18480, Note_on_c, 1, 74, 100
3, 18600, Note_off_c, 1, 74, 64
3, 18600, Note_on_c, 1, 76, 100
3, 18720, Note_off_c, 1, 76, 64
3, 18720, Note_on_c, 1, 74, 100
3, 18900, Note_off_c, 1, 74, 64
3, 18960, Note_on_c, 1, 74, 100
3, 19080, Note_off_c, 1, 74, 64
3, 19080, Note_on_c, 1, 76, 100
3, 19200, Note_off_c, 1, 76, 64
3, 19200, Note_on_c, 1, 74, 100
3, 19320, Note_off_c, 1, 74, 64
3, 19320, Note_on_c, 1, 76, 100
3, 19440, Note_off_c, 1, 76, 64
3, 19440, Note_on_c, 1, 74, 100
3, 19620, Note_off_c, 1, 74, 64
3, 19680, Note_on_c, 1, 72, 100
3, 19800, Note_off_c, 1, 72, 64
3, 19800, Note_on_c, 1, 74, 100
3, 19920, Note_off_c, 1, 74, 64
3, 19920, Note_on_c, 1, 72, 100
3, 20040, Note_off_c, 1, 72, 64
3, 20040, Note_on_c, 1, 74, 100
3, 20160, Note_off_c, 1, 74, 64
3, 20160, Note_on_c, 1, 71, 95
3, 20640, Note_off_c, 1, 71, 64
3, 20640, Note_on_c, 1, 72, 92
3, 20820, Note_off_c, 1, 72, 64
3, 20880, Note_on_c, 1, 69, 91
3, 21360, Note_off_c, 1, 69, 64
3, 21360, Note_on_c, 1, 71, 87
3, 21540, Note_off_c, 1, 71, 64
3, 21600, Note_on_c, 1, 67, 61
3, 21720, Note_off_c, 1, 67, 64
3, 21720, Note_on_c, 1, 69, 66
3, 21840, Note_off_c, 1, 69, 64
3, 21840, Note_on_c, 1, 71, 72
3, 21960, Note_off_c, 1, 71, 64
3, 21960, Note_on_c, 1, 72, 77
3, 22080, Note_off_c, 1, 72, 64
3, 22080, Note_on_c, 1, 74, 82
3, 22200, Note_off_c, 1, 74, 64
3, 22200, Note_on_c, 1, 76, 88
3, 22320, Note_off_c, 1, 76, 64
3, 22320, Note_on_c, 1, 78, 93
3, 22560, Note_off_c, 1, 78, 64
3, 22800, Note_on_c, 1, 78, 84
3, 22980, Note_off_c, 1, 78, 64
3, 23040, Note_on_c, 1, 76, 84
3, 23220, Note_off_c, 1, 76, 64
3, 23280, Note_on_c, 1, 74, 85
3, 23460, Note_off_c, 1, 74, 64
3, 23520, Note_on_c, 1, 72, 85
3, 23700, Note_off_c, 1, 72, 64
3, 23760, Note_on_c, 1, 74, 86
3, 23940, Note_off_c, 1, 74, 64
3, 24000, Note_on_c, 1, 76, 87
3, 24180, Note_off_c, 1, 76, 64
3, 24240, Note_on_c, 1, 78, 87
3, 24420, Note_off_c, 1, 78, 64
3, 25920, Note_on_c, 1, 62, 70
3, 26040, Note_off_c, 1, 62, 64
3, 26040, Note_on_c, 1, 64, 77
3, 26160, Note_off_c, 1, 64, 64
3, 26160, Note_on_c, 1, 66, 83
3, 26280, Note_off_c, 1, 66, 64
3, 26280, Note_on_c, 1, 67, 90
3, 26400, Note_off_c, 1, 67, 64
3, 26400, Note_on_c, 1, 69, 96
3, 26520, Note_off_c, 1, 69, 64
3, 26520, Note_on_c, 1, 71, 103
3, 26640, Note_off_c, 1, 71, 64
3, 26640, Note_on_c, 1, 72, 109
3, 26880, Note_off_c, 1, 72, 64
3, 27120, Note_on_c, 1, 74, 91
3, 27300, Note_off_c, 1, 74, 64
3, 27360, Note_on_c, 1, 71, 113
3, 27840, Note_off_c, 1, 71, 64
3, 27840, Note_on_c, 1, 72, 93
3, 28020, Note_off_c, 1, 72, 64
3, 28080, Note_on_c, 1, 69, 109
3, 28560, Note_off_c, 1, 69, 64
3, 28560, Note_on_c, 1, 71, 95
3, 28740, Note_off_c, 1, 71, 64
3, 28800, Note_on_c, 1, 67, 115
3, 29280, Note_off_c, 1, 67, 64
3, 29280, Note_on_c, 1, 69, 97
3, 29460, Note_off_c, 1, 69, 64
3, 29520, Note_on_c, 1, 66, 114
3, 30000, Note_off_c, 1, 66, 64
3, 30000, Note_on_c, 1, 67, 99
3, 30180, Note_off_c, 1, 67, 64
3, 30240, Note_on_c, 1, 64, 116
3, 30960, Note_off_c, 1, 64, 64
3, 30960, Note_on_c, 1, 71, 116
3, 31680, Note_off_c, 1, 71, 64
3, 31680, Note_on_c, 1, 71, 113
3, 32400, Note_off_c, 1, 71, 64
3, 32400, Note_on_c, 1, 69, 116
3, 33120, Note_off_c, 1, 69, 64
3, 33120, Note_on_c, 1, 76, 116
3, 33600, Note_off_c, 1, 76, 64
3, 33600, Note_on_c, 1, 74, 100
3, 33780, Note_off_c, 1, 74, 64
3, 33840, Note_on_c, 1, 76, 114
3, 34320, Note_off_c, 1, 76, 64
3, 34320, Note_on_c, 1, 72, 100
3, 34500, Note_off_c, 1, 72, 64
3, 34560, Note_on_c, 1, 74, 117
3, 35040, Note_off_c, 1, 74, 64
3, 35040, Note_on_c, 1, 67, 100
3, 35220, Note_off_c, 1, 67, 64
3, 35280, Note_on_c, 1, 69, 114
3, 35760, Note_off_c, 1, 69, 64
3, 35760, Note_on_c, 1, 66, 100
3, 35940, Note_off_c, 1, 66, 64
3, 36000, Note_on_c, 1, 64, 81
3, 36120, Note_off_c, 1, 64, 64
3, 36120, Note_on_c, 1, 66, 87
3, 36240, Note_off_c, 1, 66, 64
3, 36240, Note_on_c, 1, 67, 93
3, 36360, Note_off_c, 1, 67, 64
3, 36360, Note_on_c, 1, 69, 99
3, 36480, Note_off_c, 1, 69, 64
3, 36480, Note_on_c, 1, 71, 106
3, 36600, Note_off_c, 1, 71, 64
3, 36600, Note_on_c, 1, 72, 112
3, 36720, Note_off_c, 1, 72, 64
3, 36720, Note_on_c, 1, 74, 119
3, 36960, Note_off_c, 1, 74, 64
3, 37200, Note_on_c, 1, 74, 100
3, 37380, Note_off_c, 1, 74, 64
3, 37440, Note_on_c, 1, 66, 117
3, 37920, Note_off_c, 1, 66, 64
3, 37920, Note_on_c, 1, 66, 100
3, 38100, Note_off_c, 1, 66, 64
3, 38160, Note_on_c, 1, 72, 114
3, 38640, Note_off_c, 1, 72, 64
3, 38640, Note_on_c, 1, 72, 100
3, 38820, Note_off_c, 1, 72, 64
3, 38880, Note_on_c, 1, 67, 100
3, 39360, Note_off_c, 1, 67, 64
3, 39360, Note_on_c, 1, 69, 102
3, 39600, Note_off_c, 1, 69, 64
3, 39600, Note_on_c, 1, 79, 103
3, 39780, Note_off_c, 1, 79, 64
3, 39840, Note_on_c, 1, 78, 104
3, 40020, Note_off_c, 1, 78, 64
3, 40080, Note_on_c, 1, 76, 105
3, 40260, Note_off_c, 1, 76, 64
3, 40320, Note_on_c, 1, 74, 106
3, 40500, Note_off_c, 1, 74, 64
3, 40560, Note_on_c, 1, 76, 107
3, 40740, Note_off_c, 1, 76, 64
3, 40800, Note_on_c, 1, 78, 108
3, 40980, Note_off_c, 1, 78, 64
3, 41040, Note_on_c, 1, 72, 110
3, 41220, Note_off_c, 1, 72, 64
3, 41280, Note_on_c, 1, 74, 107
3, 41460, Note_off_c, 1, 74, 64
3, 41520, Note_on_c, 1, 76, 104
3, 41700, Note_off_c, 1, 76, 64
3, 41760, Note_on_c, 1, 74, 100
3, 41940, Note_off_c, 1, 74, 64
3, 42000, Note_on_c, 1, 72, 97
3, 42180, Note_off_c, 1, 72, 64
3, 42240, Note_on_c, 1, 71, 94
3, 42420, Note_off_c, 1, 71, 64
3, 42480, Note_on_c, 1, 74, 92
3, 42660, Note_off_c, 1, 74, 64
3, 42720, Note_on_c, 1, 72, 91
3, 42900, Note_off_c, 1, 72, 64
3, 42960, Note_on_c, 1, 71, 90
3, 43140, Note_off_c, 1, 71, 64
3, 43200, Note_on_c, 1, 72, 90
3, 43380, Note_off_c, 1, 72, 64
3, 43440, Note_on_c, 1, 71, 89
3, 43620, Note_off_c, 1, 71, 64
3, 43680, Note_on_c, 1, 69, 88
3, 43860, Note_off_c, 1, 69, 64
3, 43920, Note_on_c, 1, 71, 87
3, 44100, Note_off_c, 1, 71, 64
3, 44160, Note_on_c, 1, 69, 87
3, 44340, Note_off_c, 1, 69, 64
3, 44400, Note_on_c, 1, 67, 86
3, 44580, Note_off_c, 1, 67, 64
3, 44640, Note_on_c, 1, 69, 72
3, 44760, Note_off_c, 1, 69, 64
3, 44760, Note_on_c, 1, 71, 76
3, 44880, Note_off_c, 1, 71, 64
3, 44880, Note_on_c, 1, 72, 81
3, 45000, Note_off_c, 1, 72, 64
3, 45000, Note_on_c, 1, 74, 85
3, 45120, Note_off_c, 1, 74, 64
3, 45120, Note_on_c, 1, 76, 89
3, 45240, Note_off_c, 1, 76, 64
3, 45240, Note_on_c, 1, 78, 94
3, 45360, Note_off_c, 1, 78, 64
3, 45360, Note_on_c, 1, 79, 98
3, 45600, Note_off_c, 1, 79, 64
3, 45840, Note_on_c, 1, 79, 86
3, 46020, Note_off_c, 1, 79, 64
3, 46080, Note_on_c, 1, 78, 86
3, 46260, Note_off_c, 1, 78, 64
3, 46320, Note_on_c, 1, 76, 87
3, 46500, Note_off_c, 1, 76, 64
3, 46560, Note_on_c, 1, 74, 87
3, 46740, Note_off_c, 1, 74, 64
3, 46800, Note_on_c, 1, 76, 87
3, 46980, Note_off_c, 1, 76, 64
3, 47040, Note_on_c, 1, 74, 88
3, 47220, Note_off_c, 1, 74, 64
3, 47280, Note_on_c, 1, 72, 88
3, 47460, Note_off_c, 1, 72, 64
3, 47520, Note_on_c, 1, 71, 64
3, 47640, Note_off_c, 1, 71, 64
3, 47640, Note_on_c, 1, 72, 70
3, 47760, Note_off_c, 1, 72, 64
3, 47760, Note_on_c, 1, 74, 76
3, 47880, Note_off_c, 1, 74, 64
3, 47880, Note_on_c, 1, 76, 81
3, 48000, Note_off_c, 1, 76, 64
3, 48000, Note_on_c, 1, 78, 87
3, 48120, Note_off_c, 1, 78, 64
3, 48120, Note_on_c, 1, 79, 93
3, 48240, Note_off_c, 1, 79, 64
3, 48240, Note_on_c, 1, 81, 99
3, 48480, Note_off_c, 1, 81, 64
3, 48720, Note_on_c, 1, 81, 80
3, 48900, Note_off_c, 1, 81, 64
3, 48960, Note_on_c, 1, 67, 100
3, 49680, Note_off_c, 1, 67, 64
3, 49680, Note_on_c, 1, 74, 115
3, 50400, Note_off_c, 1, 74, 64
3, 50400, Note_on_c, 1, 74, 114
3, 51120, Note_off_c, 1, 74, 64
3, 51120, Note_on_c, 1, 72, 112
3, 51840, Note_off_c, 1, 72, 64
3, 51840, Note_on_c, 1, 79, 115
3, 52320, Note_off_c, 1, 79, 64
3, 52320, Note_on_c, 1, 77, 100
3, 52520, Note_off_c, 1, 77, 64
3, 52560, Note_on_c, 1, 79, 117
3, 53040, Note_off_c, 1, 79, 64
3, 53040, Note_on_c, 1, 76, 100
3, 53220, Note_off_c, 1, 76, 64
3, 53280, Note_on_c, 1, 77, 116
3, 53760, Note_off_c, 1, 77, 64
3, 53760, Note_on_c, 1, 71, 100
3, 53960, Note_off_c, 1, 71, 64
3, 54000, Note_on_c, 1, 72, 116
3, 54480, Note_off_c, 1, 72, 64
3, 54480, Note_on_c, 1, 69, 100
3, 54660, Note_off_c, 1, 69, 64
3, 54720, Note_on_c, 1, 72, 118
3, 55440, Note_off_c, 1, 72, 64
3, 55440, Note_on_c, 1, 67, 115
3, 56160, Note_off_c, 1, 67, 64
3, 56160, Note_on_c, 1, 76, 112
3, 56640, Note_off_c, 1, 76, 64
3, 56640, Note_on_c, 1, 77, 80
3, 56840, Note_off_c, 1, 77, 64
3, 56880, Note_on_c, 1, 74, 105
3, 57360, Note_off_c, 1, 74, 64
3, 57360, Note_on_c, 1, 76, 80
3, 57540, Note_off_c, 1, 76, 64
3, 57600, Note_on_c, 1, 72, 111
3, 58080, Note_off_c, 1, 72, 64
3, 58080, Note_on_c, 1, 74, 91
3, 58320, Note_off_c, 1, 74, 64
3, 58320, Note_on_c, 1, 77, 114
3, 59040, Note_off_c, 1, 77, 64
3, 59040, Note_on_c, 1, 79, 113
3, 59520, Note_off_c, 1, 79, 64
3, 59520, Note_on_c, 1, 81, 94
3, 59760, Note_off_c, 1, 81, 64
3, 59760, Note_on_c, 1, 77, 112
3, 60480, Note_off_c, 1, 77, 64
3, 60480, Note_on_c, 1, 76, 116
3, 60960, Note_off_c, 1, 76, 64
3, 60960, Note_on_c, 1, 77, 97
3, 61160, Note_off_c, 1, 77, 64
3, 61200, Note_on_c, 1, 79, 113
3, 61680, Note_off_c, 1, 79, 64
3, 61680, Note_on_c, 1, 81, 99
3, 61860, Note_off_c, 1, 81, 64
3, 61920, Note_on_c, 1, 65, 113
3, 62640, Note_off_c, 1, 65, 64
3, 62880, Note_on_c, 1, 65, 115
3, 63600, Note_off_c, 1, 65, 64
3, 63600, Note_on_c, 1, 63, 115
3, 64320, Note_off_c, 1, 63, 64
3, 64320, Note_on_c, 1, 62, 115
3, 65040, Note_off_c, 1, 62, 64
3, 65040, Note_on_c, 1, 70, 119
3, 65760, Note_off_c, 1, 70, 64
3, 65760, Note_on_c, 1, 65, 100
3, 65880, Note_off_c, 1, 65, 64
3, 65880, Note_on_c, 1, 67, 100
3, 66000, Note_off_c, 1, 67, 64
3, 66000, Note_on_c, 1, 65, 100
3, 66120, Note_off_c, 1, 65, 64
3, 66120, Note_on_c, 1, 67, 100
3, 66240, Note_off_c, 1, 67, 64
3, 66240, Note_on_c, 1, 65, 100
3, 66420, Note_off_c, 1, 65, 64
3, 66480, Note_on_c, 1, 65, 100
3, 66600, Note_off_c, 1, 65, 64
3, 66600, Note_on_c, 1, 67, 100
3, 66720, Note_off_c, 1, 67, 64
3, 66720, Note_on_c, 1, 65, 100
3, 66840, Note_off_c, 1, 65, 64
3, 66840, Note_on_c, 1, 67, 100
3, 66960, Note_off_c, 1, 67, 64
3, 66960, Note_on_c, 1, 65, 100
3, 67140, Note_off_c, 1, 65, 64
3, 67200, Note_on_c, 1, 62, 96
3, 67320, Note_off_c, 1, 62, 64
3, 67320, Note_on_c, 1, 63, 93
3, 67440, Note_off_c, 1, 63, 64
3, 67440, Note_on_c, 1, 60, 89
3, 67560, Note_off_c, 1, 60, 64
3, 67560, Note_on_c, 1, 62, 86
3, 67680, Note_off_c, 1, 62, 64
3, 67680, Note_on_c, 1, 63, 83
3, 67800, Note_off_c, 1, 63, 64
3, 67800, Note_on_c, 1, 65, 82
3, 67920, Note_off_c, 1, 65, 64
3, 67920, Note_on_c, 1, 67, 89
3, 68040, Note_off_c, 1, 67, 64
3, 68040, Note_on_c, 1, 68, 95
3, 68160, Note_off_c, 1, 68, 64
3, 68160, Note_on_c, 1, 70, 101
3, 68280, Note_off_c, 1, 70, 64
3, 68280, Note_on_c, 1, 72, 107
3, 68400, Note_off_c, 1, 72, 64
3, 68400, Note_on_c, 1, 74, 115
3, 68640, Note_off_c, 1, 74, 64
3, 68880, Note_on_c, 1, 74, 100
3, 69060, Note_off_c, 1, 74, 64
3, 69120, Note_on_c, 1, 65, 114
3, 69600, Note_off_c, 1, 65, 64
3, 69600, Note_on_c, 1, 65, 100
3, 69780, Note_off_c, 1, 65, 64
3, 69840, Note_on_c, 1, 72, 113
3, 70320, Note_off_c, 1, 72, 64
3, 70320, Note_on_c, 1, 72, 100
3, 70500, Note_off_c, 1, 72, 64
3, 70560, Note_on_c, 1, 67, 115
3, 71040, Note_off_c, 1, 67, 64
3, 71040, Note_on_c, 1, 68, 100
3, 71280, Note_off_c, 1, 68, 64
3, 71280, Note_on_c, 1, 79, 100
3, 71460, Note_off_c, 1, 79, 64
3, 71520, Note_on_c, 1, 77, 100
3, 71700, Note_off_c, 1, 77, 64
3, 71760, Note_on_c, 1, 75, 100
3, 71940, Note_off_c, 1, 75, 64
3, 72000, Note_on_c, 1, 74, 100
3, 72180, Note_off_c, 1, 74, 64
3, 72240, Note_on_c, 1, 75, 100
3, 72420, Note_off_c, 1, 75, 64
3, 72480, Note_on_c, 1, 77, 100
3, 72660, Note_off_c, 1, 77, 64
3, 72720, Note_on_c, 1, 72, 100
3, 72900, Note_off_c, 1, 72, 64
3, 72960, Note_on_c, 1, 74, 100
3, 73140, Note_off_c, 1, 74, 64
3, 73200, Note_on_c, 1, 75, 100
3, 73380, Note_off_c, 1, 75, 64
3, 73440, Note_on_c, 1, 74, 93
3, 73620, Note_off_c, 1, 74, 64
3, 73680, Note_on_c, 1, 72, 93
3, 73860, Note_off_c, 1, 72, 64
3, 73920, Note_on_c, 1, 70, 92
3, 74100, Note_off_c, 1, 70, 64
3, 74160, Note_on_c, 1, 74, 92
3, 74340, Note_off_c, 1, 74, 64
3, 74400, Note_on_c, 1, 72, 91
3, 74580, Note_off_c, 1, 72, 64
3, 74640, Note_on_c, 1, 70, 91
3, 74820, Note_off_c, 1, 70, 64
3, 74880, Note_on_c, 1, 72, 90
3, 75060, Note_off_c, 1, 72, 64
3, 75120, Note_on_c, 1, 70, 90
3, 75300, Note_off_c, 1, 70, 64
3, 75360, Note_on_c, 1, 68, 89
3, 75540, Note_off_c, 1, 68, 64
3, 75600, Note_on_c, 1, 70, 89
3, 75780, Note_off_c, 1, 70, 64
3, 75840, Note_on_c, 1, 68, 88
3, 76020, Note_off_c, 1, 68, 64
3, 76080, Note_on_c, 1, 67, 88
3, 76260, Note_off_c, 1, 67, 64
3, 76320, Note_on_c, 1, 68, 71
3, 76440, Note_off_c, 1, 68, 64
3, 76440, Note_on_c, 1, 70, 77
3, 76560, Note_off_c, 1, 70, 64
3, 76560, Note_on_c, 1, 72, 83
3, 76680, Note_off_c, 1, 72, 64
3, 76680, Note_on_c, 1, 74, 89
3, 76800, Note_off_c, 1, 74, 64
3, 76800, Note_on_c, 1, 75, 95
3, 76920, Note_off_c, 1, 75, 64
3, 76920, Note_on_c, 1, 77, 101
3, 77040, Note_off_c, 1, 77, 64
3, 77040, Note_on_c, 1, 79, 107
3, 77280, Note_off_c, 1, 79, 64
3, 77520, Note_on_c, 1, 79, 92
3, 77700, Note_off_c, 1, 79, 64
3, 77760, Note_on_c, 1, 77, 92
3, 77940, Note_off_c, 1, 77, 64
3, 78000, Note_on_c, 1, 75, 92
3, 78180, Note_off_c, 1, 75, 64
3, 78240, Note_on_c, 1, 74, 93
3, 78420, Note_off_c, 1, 74, 64
3, 78480, Note_on_c, 1, 75, 93
3, 78660, Note_off_c, 1, 75, 64
3, 78720, Note_on_c, 1, 74, 94
3, 78900, Note_off_c, 1, 74, 64
3, 78960, Note_on_c, 1, 72, 94
3, 79140, Note_off_c, 1, 72, 64
3, 79200, Note_on_c, 1, 70, 68
3, 79320, Note_off_c, 1, 70, 64
3, 79320, Note_on_c, 1, 72, 75
3, 79440, Note_off_c, 1, 72, 64
3, 79440, Note_on_c, 1, 74, 82
3, 79560, Note_off_c, 1, 74, 64
3, 79560, Note_on_c, 1, 75, 90
3, 79680, Note_off_c, 1, 75, 64
3, 79680, Note_on_c, 1, 77, 97
3, 79800, Note_off_c, 1, 77, 64
3, 79800, Note_on_c, 1, 79, 104
3, 79920, Note_off_c, 1, 79, 64
3, 79920, Note_on_c, 1, 80, 111
3, 80160, Note_off_c, 1, 80, 64
3, 80400, Note_on_c, 1, 80, 97
3, 80580, Note_off_c, 1, 80, 64
3, 80640, Note_on_c, 1, 79, 97
3, 80820, Note_off_c, 1, 79, 64
3, 80880, Note_on_c, 1, 77, 97
3, 81060, Note_off_c, 1, 77, 64
3, 81120, Note_on_c, 1, 75, 98
3, 81300, Note_off_c, 1, 75, 64
3, 84240, Note_on_c, 1, 75, 109
3, 84420, Note_off_c, 1, 75, 64
3, 84480, Note_on_c, 1, 77, 110
3, 84660, Note_off_c, 1, 77, 64
3, 84720, Note_on_c, 1, 79, 110
3, 85200, Note_off_c, 1, 79, 64
3, 85200, Note_on_c, 1, 80, 112
3, 85380, Note_off_c, 1, 80, 64
3, 85440, Note_on_c, 1, 82, 112
3, 85620, Note_off_c, 1, 82, 64
3, 85680, Note_on_c, 1, 84, 113
3, 85860, Note_off_c, 1, 84, 64
3, 85920, Note_on_c, 1, 86, 113
3, 86100, Note_off_c, 1, 86, 64
3, 86160, Note_on_c, 1, 87, 114
3, 86340, Note_off_c, 1, 87, 64
3, 87360, Note_on_c, 1, 62, 124
3, 88080, Note_off_c, 1, 62, 64
3, 88080, Note_on_c, 1, 62, 122
3, 88800, Note_off_c, 1, 62, 64
3, 88800, Note_on_c, 1, 60, 123
3, 89520, Note_off_c, 1, 60, 64
3, 89520, Note_on_c, 1, 67, 115
3, 90240, Note_off_c, 1, 67, 64
3, 90240, Note_on_c, 1, 62, 126
3, 90960, Note_off_c, 1, 62, 64
3, 90960, Note_on_c, 1, 62, 127
3, 91680, Note_off_c, 1, 62, 64
3, 91680, Note_on_c, 1, 61, 126
3, 92160, Note_off_c, 1, 61, 64
3, 92160, Note_on_c, 1, 69, 115
3, 92880, Note_off_c, 1, 69, 64
3, 93120, Note_on_c, 1, 62, 124
3, 93840, Note_off_c, 1, 62, 64
3, 93840, Note_on_c, 1, 67, 126
3, 94560, Note_off_c, 1, 67, 64
3, 94560, Note_on_c, 1, 67, 125
3, 95280, Note_off_c, 1, 67, 64
3, 95280, Note_on_c, 1, 74, 126
3, 96000, Note_off_c, 1, 74, 64
3, 96000, Note_on_c, 1, 73, 115
3, 96180, Note_off_c, 1, 73, 64
3, 96240, Note_on_c, 1, 71, 115
3, 96420, Note_off_c, 1, 71, 64
3, 96480, Note_on_c, 1, 79, 127
3, 97200, Note_off_c, 1, 79, 64
3, 97200, Note_on_c, 1, 79, 127
3, 97680, Note_off_c, 1, 79, 64
3, 97680, Note_on_c, 1, 79, 115
3, 97920, Note_off_c, 1, 79, 64
3, 97920, Note_on_c, 1, 69, 125
3, 98400, Note_off_c, 1, 69, 64
3, 98400, Note_on_c, 1, 69, 115
3, 98640, Note_off_c, 1, 69, 64
3, 98640, Note_on_c, 1, 78, 122
3, 99120, Note_off_c, 1, 78, 64
3, 99120, Note_on_c, 1, 78, 103
3, 99300, Note_off_c, 1, 78, 64
3, 99360, Note_on_c, 1, 71, 112
3, 99840, Note_off_c, 1, 71, 64
3, 99840, Note_on_c, 1, 71, 94
3, 100020, Note_off_c, 1, 71, 64
3, 100080, Note_on_c, 1, 61, 64
3, 100200, Note_off_c, 1, 61, 64
3, 100200, Note_on_c, 1, 62, 73
3, 100320, Note_off_c, 1, 62, 64
3, 100320, Note_on_c, 1, 64, 81
3, 100440, Note_off_c, 1, 64, 64
3, 100440, Note_on_c, 1, 66, 90
3, 100560, Note_off_c, 1, 66, 64
3, 100560, Note_on_c, 1, 67, 98
3, 100680, Note_off_c, 1, 67, 64
3, 100680, Note_on_c, 1, 69, 106
3, 100800, Note_off_c, 1, 69, 64
3, 100800, Note_on_c, 1, 71, 115
3, 101040, Note_off_c, 1, 71, 64
3, 101280, Note_on_c, 1, 71, 95
3, 101460, Note_off_c, 1, 71, 64
3, 101520, Note_on_c, 1, 69, 95
3, 101700, Note_off_c, 1, 69, 64
3, 101760, Note_on_c, 1, 67, 95
3, 101940, Note_off_c, 1, 67, 64
3, 102000, Note_on_c, 1, 66, 96
3, 102180, Note_off_c, 1, 66, 64
3, 102240, Note_on_c, 1, 67, 96
3, 102420, Note_off_c, 1, 67, 64
3, 102480, Note_on_c, 1, 69, 96
3, 102660, Note_off_c, 1, 69, 64
3, 102720, Note_on_c, 1, 71, 96
3, 102900, Note_off_c, 1, 71, 64
3, 102960, Note_on_c, 1, 64, 67
3, 103080, Note_off_c, 1, 64, 64
3, 103080, Note_on_c, 1, 66, 75
3, 103200, Note_off_c, 1, 66, 64
3, 103200, Note_on_c, 1, 67, 82
3, 103320, Note_off_c, 1, 67, 64
3, 103320, Note_on_c, 1, 69, 90
3, 103440, Note_off_c, 1, 69, 64
3, 103440, Note_on_c, 1, 71, 97
3, 103560, Note_off_c, 1, 71, 64
3, 103560, Note_on_c, 1, 73, 105
3, 103680, Note_off_c, 1, 73, 64
3, 103680, Note_on_c, 1, 74, 112
3, 103920, Note_off_c, 1, 74, 64
3, 104160, Note_on_c, 1, 74, 97
3, 104340, Note_off_c, 1, 74, 64
3, 104400, Note_on_c, 1, 73, 98
3, 104580, Note_off_c, 1, 73, 64
3, 104640, Note_on_c, 1, 71, 98
3, 104820, Note_off_c, 1, 71, 64
3, 104880, Note_on_c, 1, 69, 98
3, 105060, Note_off_c, 1, 69, 64
3, 105120, Note_on_c, 1, 74, 98
3, 105300, Note_off_c, 1, 74, 64
3, 105360, Note_on_c, 1, 73, 98
3, 105540, Note_off_c, 1, 73, 64
3, 105600, Note_on_c, 1, 71, 99
3, 105780, Note_off_c, 1, 71, 64
3, 105840, Note_on_c, 1, 76, 99
3, 106020, Note_off_c, 1, 76, 64
3, 106080, Note_on_c, 1, 74, 99
3, 106260, Note_off_c, 1, 74, 64
3, 106320, Note_on_c, 1, 73, 99
3, 106500, Note_off_c, 1, 73, 64
3, 106560, Note_on_c, 1, 69, 99
3, 106740, Note_off_c, 1, 69, 64
3, 106800, Note_on_c, 1, 67, 100
3, 106980, Note_off_c, 1, 67, 64
3, 107040, Note_on_c, 1, 69, 100
3, 107220, Note_off_c, 1, 69, 64
3, 107520, Note_on_c, 1, 60, 116
3, 108240, Note_off_c, 1, 60, 64
3, 108240, Note_on_c, 1, 60, 119
3, 108960, Note_off_c, 1, 60, 64
3, 108960, Note_on_c, 1, 58, 117
3, 109680, Note_off_c, 1, 58, 64
3, 109680, Note_on_c, 1, 67, 121
3, 110400, Note_off_c, 1, 67, 64
3, 110400, Note_on_c, 1, 60, 122
3, 111120, Note_off_c, 1, 60, 64
3, 111120, Note_on_c, 1, 72, 123
3, 111840, Note_off_c, 1, 72, 64
3, 111840, Note_on_c, 1, 69, 122
3, 112800, Note_off_c, 1, 69, 64
3, 112800, Note_on_c, 1, 70, 100
3, 112980, Note_off_c, 1, 70, 64
3, 113040, Note_on_c, 1, 69, 120
3, 113520, Note_off_c, 1, 69, 64
3, 113520, Note_on_c, 1, 69, 100
3, 113700, Note_off_c, 1, 69, 64
3, 113760, Note_on_c, 1, 60, 116
3, 114240, Note_off_c, 1, 60, 64
3, 114240, Note_on_c, 1, 60, 100
3, 114420, Note_off_c, 1, 60, 64
3, 114480, Note_on_c, 1, 67, 117
3, 114960, Note_off_c, 1, 67, 64
3, 114960, Note_on_c, 1, 67, 100
3, 115140, Note_off_c, 1, 67, 64
3, 115200, Note_on_c, 1, 62, 119
3, 115680, Note_off_c, 1, 62, 64
3, 115680, Note_on_c, 1, 63, 100
3, 115860, Note_off_c, 1, 63, 64
3, 115920, Note_on_c, 1, 74, 100
3, 116100, Note_off_c, 1, 74, 64
3, 116160, Note_on_c, 1, 72, 100
3, 116340, Note_off_c, 1, 72, 64
3, 116400, Note_on_c, 1, 70, 100
3, 116580, Note_off_c, 1, 70, 64
3, 116640, Note_on_c, 1, 69, 100
3, 116820, Note_off_c, 1, 69, 64
3, 116880, Note_on_c, 1, 70, 100
3, 117060, Note_off_c, 1, 70, 64
3, 117120, Note_on_c, 1, 72, 100
3, 117300, Note_off_c, 1, 72, 64
3, 117360, Note_on_c, 1, 67, 100
3, 117540, Note_off_c, 1, 67, 64
3, 117600, Note_on_c, 1, 69, 100
3, 117780, Note_off_c, 1, 69, 64
3, 117840, Note_on_c, 1, 70, 100
3, 118020, Note_off_c, 1, 70, 64
3, 118080, Note_on_c, 1, 72, 102
3, 118560, Note_off_c, 1, 72, 64
3, 118560, Note_on_c, 1, 72, 102
3, 118740, Note_off_c, 1, 72, 64
3, 118800, Note_on_c, 1, 62, 89
3, 118920, Note_off_c, 1, 62, 64
3, 118920, Note_on_c, 1, 64, 93
3, 119040, Note_off_c, 1, 64, 64
3, 119040, Note_on_c, 1, 66, 97
3, 119160, Note_off_c, 1, 66, 64
3, 119160, Note_on_c, 1, 67, 101
3, 119280, Note_off_c, 1, 67, 64
3, 119280, Note_on_c, 1, 69, 105
3, 119400, Note_off_c, 1, 69, 64
3, 119400, Note_on_c, 1, 71, 109
3, 119520, Note_off_c, 1, 71, 64
3, 119520, Note_on_c, 1, 72, 113
3, 120000, Note_off_c, 1, 72, 64
3, 120000, Note_on_c, 1, 72, 103
3, 120180, Note_off_c, 1, 72, 64
3, 120240, Note_on_c, 1, 62, 87
3, 120360, Note_off_c, 1, 62, 64
3, 120360, Note_on_c, 1, 64, 91
3, 120480, Note_off_c, 1, 64, 64
3, 120480, Note_on_c, 1, 66, 96
3, 120600, Note_off_c, 1, 66, 64
3, 120600, Note_on_c, 1, 67, 100
3, 120720, Note_off_c, 1, 67, 64
3, 120720, Note_on_c, 1, 69, 104
3, 120840, Note_off_c, 1, 69, 64
3, 120840, Note_on_c, 1, 71, 108
3, 120960, Note_off_c, 1, 71, 64
3, 120960, Note_on_c, 1, 72, 113
3, 121440, Note_off_c, 1, 72, 64
3, 121440, Note_on_c, 1, 72, 104
3, 121620, Note_off_c, 1, 72, 64
3, 121680, Note_on_c, 1, 64, 117
3, 122160, Note_off_c, 1, 64, 64
3, 122160, Note_on_c, 1, 64, 104
3, 122340, Note_off_c, 1, 64, 64
3, 122400, Note_on_c, 1, 71, 120
3, 122880, Note_off_c, 1, 71, 64
3, 122880, Note_on_c, 1, 71, 105
3, 123060, Note_off_c, 1, 71, 64
3, 123120, Note_on_c, 1, 62, 85
3, 123240, Note_off_c, 1, 62, 64
3, 123240, Note_on_c, 1, 64, 90
3, 123360, Note_off_c, 1, 64, 64
3, 123360, Note_on_c, 1, 66, 94
3, 123480, Note_off_c, 1, 66, 64
3, 123480, Note_on_c, 1, 67, 98
3, 123600, Note_off_c, 1, 67, 64
3, 123600, Note_on_c, 1, 69, 102
3, 123720, Note_off_c, 1, 69, 64
3, 123720, Note_on_c, 1, 71, 106
3, 123840, Note_off_c, 1, 71, 64
3, 123840, Note_on_c, 1, 72, 118
3, 124320, Note_off_c, 1, 72, 64
3, 124320, Note_on_c, 1, 72, 100
3, 124500, Note_off_c, 1, 72, 64
3, 124560, Note_on_c, 1, 64, 118
3, 125040, Note_off_c, 1, 64, 64
3, 125040, Note_on_c, 1, 64, 100
3, 125220, Note_off_c, 1, 64, 64
3, 126000, Note_on_c, 1, 55, 79
3, 126120, Note_off_c, 1, 55, 64
3, 126120, Note_on_c, 1, 57, 85
3, 126240, Note_off_c, 1, 57, 64
3, 126240, Note_on_c, 1, 59, 91
3, 126360, Note_off_c, 1, 59, 64
3, 126360, Note_on_c, 1, 60, 97
3, 126480, Note_off_c, 1, 60, 64
3, 126480, Note_on_c, 1, 62, 103
3, 126600, Note_off_c, 1, 62, 64
3, 126600, Note_on_c, 1, 64, 109
3, 126720, Note_off_c, 1, 64, 64
3, 126720, Note_on_c, 1, 66, 115
3, 127200, Note_off_c, 1, 66, 64
3, 127200, Note_on_c, 1, 66, 100
3, 127380, Note_off_c, 1, 66, 64
3, 127440, Note_on_c, 1, 57, 121
3, 127920, Note_off_c, 1, 57, 64
3, 127920, Note_on_c, 1, 57, 100
3, 128100, Note_off_c, 1, 57, 64
3, 128160, Note_on_c, 1, 64, 118
3, 128640, Note_off_c, 1, 64, 64
3, 128640, Note_on_c, 1, 64, 103
3, 128820, Note_off_c, 1, 64, 64
3, 128880, Note_on_c, 1, 59, 120
3, 129360, Note_off_c, 1, 59, 64
3, 129360, Note_on_c, 1, 60, 104
3, 129600, Note_off_c, 1, 60, 64
3, 129600, Note_on_c, 1, 71, 105
3, 129780, Note_off_c, 1, 71, 64
3, 129840, Note_on_c, 1, 69, 105
3, 130020, Note_off_c, 1, 69, 64
3, 130080, Note_on_c, 1, 67, 106
3, 130260, Note_off_c, 1, 67, 64
3, 130320, Note_on_c, 1, 72, 125
3, 131040, Note_off_c, 1, 72, 64
3, 131760, Note_on_c, 1, 72, 121
3, 132480, Note_off_c, 1, 72, 64
3, 133200, Note_on_c, 1, 72, 123
3, 133920, Note_off_c, 1, 72, 64
3, 134640, Note_on_c, 1, 60, 124
3, 135360, Note_off_c, 1, 60, 64
3, 135360, Note_on_c, 1, 62, 126
3, 135840, Note_off_c, 1, 62, 64
3, 135840, Note_on_c, 1, 63, 115
3, 136020, Note_off_c, 1, 63, 64
3, 136080, Note_on_c, 1, 65, 126
3, 136800, Note_off_c, 1, 65, 64
3, 136800, Note_on_c, 1, 63, 124
3, 137520, Note_off_c, 1, 63, 64
3, 137520, Note_on_c, 1, 64, 124
3, 138240, Note_off_c, 1, 64, 64
3, 138240, Note_on_c, 1, 65, 115
3, 138420, Note_off_c, 1, 65, 64
3, 138480, Note_on_c, 1, 63, 115
3, 138660, Note_off_c, 1, 63, 64
3, 138720, Note_on_c, 1, 62, 115
3, 138900, Note_off_c, 1, 62, 64
3, 138960, Note_on_c, 1, 63, 115
3, 139140, Note_off_c, 1, 63, 64
3, 139200, Note_on_c, 1, 62, 115
3, 139380, Note_off_c, 1, 62, 64
3, 139440, Note_on_c, 1, 60, 115
3, 139620, Note_off_c, 1, 60, 64
3, 139680, Note_on_c, 1, 58, 126
3, 140160, Note_off_c, 1, 58, 64
3, 140160, Note_on_c, 1, 58, 115
3, 140340, Note_off_c, 1, 58, 64
3, 140400, Note_on_c, 1, 65, 124
3, 140880, Note_off_c, 1, 65, 64
3, 140880, Note_on_c, 1, 65, 115
3, 141060, Note_off_c, 1, 65, 64
3, 141120, Note_on_c, 1, 59, 126
3, 141600, Note_off_c, 1, 59, 64
3, 141600, Note_on_c, 1, 60, 115
3, 141840, Note_off_c, 1, 60, 64
3, 141840, Note_on_c, 1, 71, 115
3, 142020, Note_off_c, 1, 71, 64
3, 142080, Note_on_c, 1, 69, 115
3, 142260, Note_off_c, 1, 69, 64
3, 142320, Note_on_c, 1, 67, 115
3, 142500, Note_off_c, 1, 67, 64
3, 142560, Note_on_c, 1, 66, 115
3, 142740, Note_off_c, 1, 66, 64
3, 142800, Note_on_c, 1, 67, 115
3, 142980, Note_off_c, 1, 67, 64
3, 143040, Note_on_c, 1, 69, 115
3, 143220, Note_off_c, 1, 69, 64
3, 143280, Note_on_c, 1, 64, 115
3, 143460, Note_off_c, 1, 64, 64
3, 143520, Note_on_c, 1, 66, 115
3, 143700, Note_off_c, 1, 66, 64
3, 143760, Note_on_c, 1, 67, 115
3, 143940, Note_off_c, 1, 67, 64
3, 144000, Note_on_c, 1, 66, 115
3, 144480, Note_off_c, 1, 66, 64
3, 144480, Note_on_c, 1, 64, 115
3, 144720, Note_off_c, 1, 64, 64
3, 144720, Note_on_c, 1, 62, 115
3, 145437, Control_c, 1, 91, 0
3, 145438, Control_c, 1, 121, 0
3, 145440, Note_off_c, 1, 62, 64
3, 145440, End_track
4, 0, Start_track
4, 0, Title_t, "Low"
4, 0, MIDI_port, 0
4, 0, Channel_prefix, 2
4, 0, Control_c, 2, 7, 127
4, 0, Control_c, 2, 10, 58
4, 0, Program_c, 2, 0
4, 0, Control_c, 2, 121, 0
4, 1, Control_c, 2, 91, 55
4, 14400, Note_on_c, 2, 55, 78
4, 14520, Note_off_c, 2, 55, 64
4, 14520, Note_on_c, 2, 57, 84
4, 14640, Note_off_c, 2, 57, 64
4, 14640, Note_on_c, 2, 59, 91
4, 14760, Note_off_c, 2, 59, 64
4, 14760, Note_on_c, 2, 60, 97
4, 14880, Note_off_c, 2, 60, 64
4, 14880, Note_on_c, 2, 62, 104
4, 15000, Note_off_c, 2, 62, 64
4, 15000, Note_on_c, 2, 64, 110
4, 15120, Note_off_c, 2, 64, 64
4, 15120, Note_on_c, 2, 66, 117
4, 15360, Note_off_c, 2, 66, 64
4, 15600, Note_on_c, 2, 66, 100
4, 15780, Note_off_c, 2, 66, 64
4, 15840, Note_on_c, 2, 57, 116
4, 16320, Note_off_c, 2, 57, 64
4, 16320, Note_on_c, 2, 57, 100
4, 16500, Note_off_c, 2, 57, 64
4, 16560, Note_on_c, 2, 64, 115
4, 17040, Note_off_c, 2, 64, 64
4, 17040, Note_on_c, 2, 64, 100
4, 17220, Note_off_c, 2, 64, 64
4, 17280, Note_on_c, 2, 59, 118
4, 17760, Note_off_c, 2, 59, 64
4, 17760, Note_on_c, 2, 60, 100
4, 18000, Note_off_c, 2, 60, 64
4, 18000, Note_on_c, 2, 71, 100
4, 18180, Note_off_c, 2, 71, 64
4, 18240, Note_on_c, 2, 69, 100
4, 18420, Note_off_c, 2, 69, 64
4, 18480, Note_on_c, 2, 67, 100
4, 18660, Note_off_c, 2, 67, 64
4, 18720, Note_on_c, 2, 66, 100
4, 18900, Note_off_c, 2, 66, 64
4, 18960, Note_on_c, 2, 67, 100
4, 19140, Note_off_c, 2, 67, 64
4, 19200, Note_on_c, 2, 69, 100
4, 19380, Note_off_c, 2, 69, 64
4, 19440, Note_on_c, 2, 64, 100
4, 19620, Note_off_c, 2, 64, 64
4, 19680, Note_on_c, 2, 66, 100
4, 19860, Note_off_c, 2, 66, 64
4, 19920, Note_on_c, 2, 67, 100
4, 20100, Note_off_c, 2, 67, 64
4, 20160, Note_on_c, 2, 66, 97
4, 20340, Note_off_c, 2, 66, 64
4, 20400, Note_on_c, 2, 64, 96
4, 20580, Note_off_c, 2, 64, 64
4, 20640, Note_on_c, 2, 62, 95
4, 20820, Note_off_c, 2, 62, 64
4, 20880, Note_on_c, 2, 66, 94
4, 21060, Note_off_c, 2, 66, 64
4, 21120, Note_on_c, 2, 64, 93
4, 21300, Note_off_c, 2, 64, 64
4, 21360, Note_on_c, 2, 62, 92
4, 21540, Note_off_c, 2, 62, 64
4, 21600, Note_on_c, 2, 64, 91
4, 21780, Note_off_c, 2, 64, 64
4, 21840, Note_on_c, 2, 62, 90
4, 22020, Note_off_c, 2, 62, 64
4, 22080, Note_on_c, 2, 60, 89
4, 22260, Note_off_c, 2, 60, 64
4, 22320, Note_on_c, 2, 62, 88
4, 22500, Note_off_c, 2, 62, 64
4, 22560, Note_on_c, 2, 60, 86
4, 22740, Note_off_c, 2, 60, 64
4, 22800, Note_on_c, 2, 59, 85
4, 22980, Note_off_c, 2, 59, 64
4, 23040, Note_on_c, 2, 60, 63
4, 23160, Note_off_c, 2, 60, 64
4, 23160, Note_on_c, 2, 62, 69
4, 23280, Note_off_c, 2, 62, 64
4, 23280, Note_on_c, 2, 64, 75
4, 23400, Note_off_c, 2, 64, 64
4, 23400, Note_on_c, 2, 66, 82
4, 23520, Note_off_c, 2, 66, 64
4, 23520, Note_on_c, 2, 67, 88
4, 23640, Note_off_c, 2, 67, 64
4, 23640, Note_on_c, 2, 69, 94
4, 23760, Note_off_c, 2, 69, 64
4, 23760, Note_on_c, 2, 71, 101
4, 24000, Note_off_c, 2, 71, 64
4, 24240, Note_on_c, 2, 71, 87
4, 24420, Note_off_c, 2, 71, 64
4, 24480, Note_on_c, 2, 69, 87
4, 24660, Note_off_c, 2, 69, 64
4, 24720, Note_on_c, 2, 67, 88
4, 24900, Note_off_c, 2, 67, 64
4, 24960, Note_on_c, 2, 66, 88
4, 25140, Note_off_c, 2, 66, 64
4, 25200, Note_on_c, 2, 67, 89
4, 25380, Note_off_c, 2, 67, 64
4, 25440, Note_on_c, 2, 66, 90
4, 25620, Note_off_c, 2, 66, 64
4, 25680, Note_on_c, 2, 64, 90
4, 25860, Note_off_c, 2, 64, 64
4, 30240, Note_on_c, 2, 45, 80
4, 30360, Note_off_c, 2, 45, 64
4, 30360, Note_on_c, 2, 47, 87
4, 30480, Note_off_c, 2, 47, 64
4, 30480, Note_on_c, 2, 48, 94
4, 30600, Note_off_c, 2, 48, 64
4, 30600, Note_on_c, 2, 50, 101
4, 30720, Note_off_c, 2, 50, 64
4, 30720, Note_on_c, 2, 52, 108
4, 30840, Note_off_c, 2, 52, 64
4, 30840, Note_on_c, 2, 53, 115
4, 30960, Note_off_c, 2, 53, 64
4, 30960, Note_on_c, 2, 55, 122
4, 31200, Note_off_c, 2, 55, 64
4, 31440, Note_on_c, 2, 55, 100
4, 31620, Note_off_c, 2, 55, 64
4, 31680, Note_on_c, 2, 47, 120
4, 32160, Note_off_c, 2, 47, 64
4, 32160, Note_on_c, 2, 47, 100
4, 32340, Note_off_c, 2, 47, 64
4, 32400, Note_on_c, 2, 53, 121
4, 32880, Note_off_c, 2, 53, 64
4, 32880, Note_on_c, 2, 53, 100
4, 33060, Note_off_c, 2, 53, 64
4, 33120, Note_on_c, 2, 48, 118
4, 33600, Note_off_c, 2, 48, 64
4, 33600, Note_on_c, 2, 50, 100
4, 33840, Note_off_c, 2, 50, 64
4, 33840, Note_on_c, 2, 60, 100
4, 34020, Note_off_c, 2, 60, 64
4, 34080, Note_on_c, 2, 59, 100
4, 34260, Note_off_c, 2, 59, 64
4, 34320, Note_on_c, 2, 57, 100
4, 34500, Note_off_c, 2, 57, 64
4, 34560, Note_on_c, 2, 55, 100
4, 34740, Note_off_c, 2, 55, 64
4, 34800, Note_on_c, 2, 57, 100
4, 34980, Note_off_c, 2, 57, 64
4, 35040, Note_on_c, 2, 59, 100
4, 35220, Note_off_c, 2, 59, 64
4, 35280, Note_on_c, 2, 54, 100
4, 35460, Note_off_c, 2, 54, 64
4, 35520, Note_on_c, 2, 55, 100
4, 35700, Note_off_c, 2, 55, 64
4, 35760, Note_on_c, 2, 57, 100
4, 35940, Note_off_c, 2, 57, 64
4, 36000, Note_on_c, 2, 55, 100
4, 36180, Note_off_c, 2, 55, 64
4, 36240, Note_on_c, 2, 54, 100
4, 36420, Note_off_c, 2, 54, 64
4, 36480, Note_on_c, 2, 52, 100
4, 36660, Note_off_c, 2, 52, 64
4, 36960, Note_on_c, 2, 59, 121
4, 37680, Note_off_c, 2, 59, 64
4, 37680, Note_on_c, 2, 57, 121
4, 38400, Note_off_c, 2, 57, 64
4, 38400, Note_on_c, 2, 55, 121
4, 39120, Note_off_c, 2, 55, 64
4, 39120, Note_on_c, 2, 64, 119
4, 39840, Note_off_c, 2, 64, 64
4, 39840, Note_on_c, 2, 59, 104
4, 39960, Note_off_c, 2, 59, 64
4, 39960, Note_on_c, 2, 60, 105
4, 40080, Note_off_c, 2, 60, 64
4, 40080, Note_on_c, 2, 59, 105
4, 40200, Note_off_c, 2, 59, 64
4, 40200, Note_on_c, 2, 60, 106
4, 40320, Note_off_c, 2, 60, 64
4, 40320, Note_on_c, 2, 59, 106
4, 40500, Note_off_c, 2, 59, 64
4, 40560, Note_on_c, 2, 59, 107
4, 40680, Note_off_c, 2, 59, 64
4, 40680, Note_on_c, 2, 60, 108
4, 40800, Note_off_c, 2, 60, 64
4, 40800, Note_on_c, 2, 59, 108
4, 40920, Note_off_c, 2, 59, 64
4, 40920, Note_on_c, 2, 60, 109
4, 41040, Note_off_c, 2, 60, 64
4, 41040, Note_on_c, 2, 59, 110
4, 41220, Note_off_c, 2, 59, 64
4, 41280, Note_on_c, 2, 57, 107
4, 41400, Note_off_c, 2, 57, 64
4, 41400, Note_on_c, 2, 59, 105
4, 41520, Note_off_c, 2, 59, 64
4, 41520, Note_on_c, 2, 57, 104
4, 41640, Note_off_c, 2, 57, 64
4, 41640, Note_on_c, 2, 59, 102
4, 41760, Note_off_c, 2, 59, 64
4, 41760, Note_on_c, 2, 55, 118
4, 42240, Note_off_c, 2, 55, 64
4, 42240, Note_on_c, 2, 57, 98
4, 42420, Note_off_c, 2, 57, 64
4, 42480, Note_on_c, 2, 54, 115
4, 42960, Note_off_c, 2, 54, 64
4, 42960, Note_on_c, 2, 55, 94
4, 43140, Note_off_c, 2, 55, 64
4, 43200, Note_on_c, 2, 52, 72
4, 43320, Note_off_c, 2, 52, 64
4, 43320, Note_on_c, 2, 54, 77
4, 43440, Note_off_c, 2, 54, 64
4, 43440, Note_on_c, 2, 55, 82
4, 43560, Note_off_c, 2, 55, 64
4, 43560, Note_on_c, 2, 57, 87
4, 43680, Note_off_c, 2, 57, 64
4, 43680, Note_on_c, 2, 59, 92
4, 43800, Note_off_c, 2, 59, 64
4, 43800, Note_on_c, 2, 60, 97
4, 43920, Note_off_c, 2, 60, 64
4, 43920, Note_on_c, 2, 62, 102
4, 44160, Note_off_c, 2, 62, 64
4, 44400, Note_on_c, 2, 62, 92
4, 44580, Note_off_c, 2, 62, 64
4, 44640, Note_on_c, 2, 60, 92
4, 44820, Note_off_c, 2, 60, 64
4, 44880, Note_on_c, 2, 59, 92
4, 45060, Note_off_c, 2, 59, 64
4, 45120, Note_on_c, 2, 57, 92
4, 45300, Note_off_c, 2, 57, 64
4, 45360, Note_on_c, 2, 59, 91
4, 45540, Note_off_c, 2, 59, 64
4, 45600, Note_on_c, 2, 60, 91
4, 45780, Note_off_c, 2, 60, 64
4, 45840, Note_on_c, 2, 62, 91
4, 46020, Note_off_c, 2, 62, 64
4, 46080, Note_on_c, 2, 55, 58
4, 46200, Note_off_c, 2, 55, 64
4, 46200, Note_on_c, 2, 57, 66
4, 46320, Note_off_c, 2, 57, 64
4, 46320, Note_on_c, 2, 59, 73
4, 46440, Note_off_c, 2, 59, 64
4, 46440, Note_on_c, 2, 60, 80
4, 46560, Note_off_c, 2, 60, 64
4, 46560, Note_on_c, 2, 62, 87
4, 46680, Note_off_c, 2, 62, 64
4, 46680, Note_on_c, 2, 64, 94
4, 46800, Note_off_c, 2, 64, 64
4, 46800, Note_on_c, 2, 66, 102
4, 47040, Note_off_c, 2, 66, 64
4, 47280, Note_on_c, 2, 66, 87
4, 47460, Note_off_c, 2, 66, 64
4, 47520, Note_on_c, 2, 64, 87
4, 47700, Note_off_c, 2, 64, 64
4, 47760, Note_on_c, 2, 62, 87
4, 47940, Note_off_c, 2, 62, 64
4, 48000, Note_on_c, 2, 60, 87
4, 48180, Note_off_c, 2, 60, 64
4, 48240, Note_on_c, 2, 65, 87
4, 48420, Note_off_c, 2, 65, 64
4, 48480, Note_on_c, 2, 64, 87
4, 48660, Note_off_c, 2, 64, 64
4, 48720, Note_on_c, 2, 62, 87
4, 48900, Note_off_c, 2, 62, 64
4, 48960, Note_on_c, 2, 64, 100
4, 49140, Note_off_c, 2, 64, 64
4, 49200, Note_on_c, 2, 62, 100
4, 49380, Note_off_c, 2, 62, 64
4, 49440, Note_on_c, 2, 60, 100
4, 49620, Note_off_c, 2, 60, 64
4, 49920, Note_on_c, 2, 67, 118
4, 50640, Note_off_c, 2, 67, 64
4, 50640, Note_on_c, 2, 65, 118
4, 51360, Note_off_c, 2, 65, 64
4, 51360, Note_on_c, 2, 64, 118
4, 52080, Note_off_c, 2, 64, 64
4, 52080, Note_on_c, 2, 72, 114
4, 52800, Note_off_c, 2, 72, 64
4, 52800, Note_on_c, 2, 67, 100
4, 52920, Note_off_c, 2, 67, 64
4, 52920, Note_on_c, 2, 69, 100
4, 53040, Note_off_c, 2, 69, 64
4, 53040, Note_on_c, 2, 67, 100
4, 53160, Note_off_c, 2, 67, 64
4, 53160, Note_on_c, 2, 69, 100
4, 53280, Note_off_c, 2, 69, 64
4, 53280, Note_on_c, 2, 67, 100
4, 53460, Note_off_c, 2, 67, 64
4, 53520, Note_on_c, 2, 67, 100
4, 53640, Note_off_c, 2, 67, 64
4, 53640, Note_on_c, 2, 69, 100
4, 53760, Note_off_c, 2, 69, 64
4, 53760, Note_on_c, 2, 67, 100
4, 53880, Note_off_c, 2, 67, 64
4, 53880, Note_on_c, 2, 69, 100
4, 54000, Note_off_c, 2, 69, 64
4, 54000, Note_on_c, 2, 67, 100
4, 54180, Note_off_c, 2, 67, 64
4, 54240, Note_on_c, 2, 65, 100
4, 54360, Note_off_c, 2, 65, 64
4, 54360, Note_on_c, 2, 67, 100
4, 54480, Note_off_c, 2, 67, 64
4, 54480, Note_on_c, 2, 65, 100
4, 54600, Note_off_c, 2, 65, 64
4, 54600, Note_on_c, 2, 67, 100
4, 54720, Note_off_c, 2, 67, 64
4, 54720, Note_on_c, 2, 64, 124
4, 55200, Note_off_c, 2, 64, 64
4, 55200, Note_on_c, 2, 65, 100
4, 55380, Note_off_c, 2, 65, 64
4, 55440, Note_on_c, 2, 62, 119
4, 55920, Note_off_c, 2, 62, 64
4, 55920, Note_on_c, 2, 64, 85
4, 56100, Note_off_c, 2, 64, 64
4, 56160, Note_on_c, 2, 60, 55
4, 56280, Note_off_c, 2, 60, 64
4, 56280, Note_on_c, 2, 62, 62
4, 56400, Note_off_c, 2, 62, 64
4, 56400, Note_on_c, 2, 64, 68
4, 56520, Note_off_c, 2, 64, 64
4, 56520, Note_on_c, 2, 65, 75
4, 56640, Note_off_c, 2, 65, 64
4, 56640, Note_on_c, 2, 67, 82
4, 56760, Note_off_c, 2, 67, 64
4, 56760, Note_on_c, 2, 69, 88
4, 56880, Note_off_c, 2, 69, 64
4, 56880, Note_on_c, 2, 71, 95
4, 57120, Note_off_c, 2, 71, 64
4, 57360, Note_on_c, 2, 71, 80
4, 57540, Note_off_c, 2, 71, 64
4, 57600, Note_on_c, 2, 69, 114
4, 57780, Note_off_c, 2, 69, 64
4, 57840, Note_on_c, 2, 67, 90
4, 58020, Note_off_c, 2, 67, 64
4, 58080, Note_on_c, 2, 65, 91
4, 58260, Note_off_c, 2, 65, 64
4, 58320, Note_on_c, 2, 71, 91
4, 58500, Note_off_c, 2, 71, 64
4, 58560, Note_on_c, 2, 69, 92
4, 58740, Note_off_c, 2, 69, 64
4, 58800, Note_on_c, 2, 67, 92
4, 58980, Note_off_c, 2, 67, 64
4, 59040, Note_on_c, 2, 64, 73
4, 59160, Note_off_c, 2, 64, 64
4, 59160, Note_on_c, 2, 65, 79
4, 59280, Note_off_c, 2, 65, 64
4, 59280, Note_on_c, 2, 67, 86
4, 59400, Note_off_c, 2, 67, 64
4, 59400, Note_on_c, 2, 69, 93
4, 59520, Note_off_c, 2, 69, 64
4, 59520, Note_on_c, 2, 71, 99
4, 59640, Note_off_c, 2, 71, 64
4, 59640, Note_on_c, 2, 72, 106
4, 59760, Note_off_c, 2, 72, 64
4, 59760, Note_on_c, 2, 74, 113
4, 60240, Note_off_c, 2, 74, 64
4, 60240, Note_on_c, 2, 74, 95
4, 60420, Note_off_c, 2, 74, 64
4, 60480, Note_on_c, 2, 72, 96
4, 60660, Note_off_c, 2, 72, 64
4, 60720, Note_on_c, 2, 71, 97
4, 60900, Note_off_c, 2, 71, 64
4, 60960, Note_on_c, 2, 69, 97
4, 61140, Note_off_c, 2, 69, 64
4, 61200, Note_on_c, 2, 71, 98
4, 61380, Note_off_c, 2, 71, 64
4, 61440, Note_on_c, 2, 72, 98
4, 61620, Note_off_c, 2, 72, 64
4, 61680, Note_on_c, 2, 74, 99
4, 61860, Note_off_c, 2, 74, 64
4, 61920, Note_on_c, 2, 62, 99
4, 62100, Note_off_c, 2, 62, 64
4, 62160, Note_on_c, 2, 60, 100
4, 62340, Note_off_c, 2, 60, 64
4, 62400, Note_on_c, 2, 58, 100
4, 62580, Note_off_c, 2, 58, 64
4, 62640, Note_on_c, 2, 60, 117
4, 63360, Note_off_c, 2, 60, 64
4, 63360, Note_on_c, 2, 60, 115
4, 64080, Note_off_c, 2, 60, 64
4, 64080, Note_on_c, 2, 58, 115
4, 64800, Note_off_c, 2, 58, 64
4, 64800, Note_on_c, 2, 53, 118
4, 65280, Note_off_c, 2, 53, 64
4, 65280, Note_on_c, 2, 51, 103
4, 65460, Note_off_c, 2, 51, 64
4, 65520, Note_on_c, 2, 53, 122
4, 66000, Note_off_c, 2, 53, 64
4, 66000, Note_on_c, 2, 62, 100
4, 66180, Note_off_c, 2, 62, 64
4, 66240, Note_on_c, 2, 63, 121
4, 66720, Note_off_c, 2, 63, 64
4, 66720, Note_on_c, 2, 57, 100
4, 66900, Note_off_c, 2, 57, 64
4, 66960, Note_on_c, 2, 58, 117
4, 67440, Note_off_c, 2, 58, 64
4, 67440, Note_on_c, 2, 55, 117
4, 67860, Note_off_c, 2, 55, 64
4, 67920, Note_on_c, 2, 53, 100
4, 68100, Note_off_c, 2, 53, 64
4, 68160, Note_on_c, 2, 51, 100
4, 68340, Note_off_c, 2, 51, 64
4, 68640, Note_on_c, 2, 58, 121
4, 69360, Note_off_c, 2, 58, 64
4, 69360, Note_on_c, 2, 56, 122
4, 70080, Note_off_c, 2, 56, 64
4, 70080, Note_on_c, 2, 55, 120
4, 70800, Note_off_c, 2, 55, 64
4, 70800, Note_on_c, 2, 63, 105
4, 71520, Note_off_c, 2, 63, 64
4, 71520, Note_on_c, 2, 58, 100
4, 71640, Note_off_c, 2, 58, 64
4, 71640, Note_on_c, 2, 60, 100
4, 71760, Note_off_c, 2, 60, 64
4, 71760, Note_on_c, 2, 58, 100
4, 71880, Note_off_c, 2, 58, 64
4, 71880, Note_on_c, 2, 60, 100
4, 72000, Note_off_c, 2, 60, 64
4, 72000, Note_on_c, 2, 58, 100
4, 72180, Note_off_c, 2, 58, 64
4, 72240, Note_on_c, 2, 58, 100
4, 72360, Note_off_c, 2, 58, 64
4, 72360, Note_on_c, 2, 60, 100
4, 72480, Note_off_c, 2, 60, 64
4, 72480, Note_on_c, 2, 58, 100
4, 72600, Note_off_c, 2, 58, 64
4, 72600, Note_on_c, 2, 60, 100
4, 72720, Note_off_c, 2, 60, 64
4, 72720, Note_on_c, 2, 58, 100
4, 72900, Note_off_c, 2, 58, 64
4, 72960, Note_on_c, 2, 56, 100
4, 73080, Note_off_c, 2, 56, 64
4, 73080, Note_on_c, 2, 58, 100
4, 73200, Note_off_c, 2, 58, 64
4, 73200, Note_on_c, 2, 56, 100
4, 73320, Note_off_c, 2, 56, 64
4, 73320, Note_on_c, 2, 58, 100
4, 73440, Note_off_c, 2, 58, 64
4, 73440, Note_on_c, 2, 55, 90
4, 73920, Note_off_c, 2, 55, 64
4, 73920, Note_on_c, 2, 56, 87
4, 74100, Note_off_c, 2, 56, 64
4, 74160, Note_on_c, 2, 53, 86
4, 74640, Note_off_c, 2, 53, 64
4, 74640, Note_on_c, 2, 55, 83
4, 74820, Note_off_c, 2, 55, 64
4, 74880, Note_on_c, 2, 51, 62
4, 75000, Note_off_c, 2, 51, 64
4, 75000, Note_on_c, 2, 53, 68
4, 75120, Note_off_c, 2, 53, 64
4, 75120, Note_on_c, 2, 55, 75
4, 75240, Note_off_c, 2, 55, 64
4, 75240, Note_on_c, 2, 56, 82
4, 75360, Note_off_c, 2, 56, 64
4, 75360, Note_on_c, 2, 58, 88
4, 75480, Note_off_c, 2, 58, 64
4, 75480, Note_on_c, 2, 60, 95
4, 75600, Note_off_c, 2, 60, 64
4, 75600, Note_on_c, 2, 62, 102
4, 75840, Note_off_c, 2, 62, 64
4, 76080, Note_on_c, 2, 62, 80
4, 76260, Note_off_c, 2, 62, 64
4, 76320, Note_on_c, 2, 60, 90
4, 76500, Note_off_c, 2, 60, 64
4, 76560, Note_on_c, 2, 58, 90
4, 76740, Note_off_c, 2, 58, 64
4, 76800, Note_on_c, 2, 56, 90
4, 76980, Note_off_c, 2, 56, 64
4, 77040, Note_on_c, 2, 58, 91
4, 77220, Note_off_c, 2, 58, 64
4, 77280, Note_on_c, 2, 60, 91
4, 77460, Note_off_c, 2, 60, 64
4, 77520, Note_on_c, 2, 62, 92
4, 77700, Note_off_c, 2, 62, 64
4, 77760, Note_on_c, 2, 55, 66
4, 77880, Note_off_c, 2, 55, 64
4, 77880, Note_on_c, 2, 56, 74
4, 78000, Note_off_c, 2, 56, 64
4, 78000, Note_on_c, 2, 58, 81
4, 78120, Note_off_c, 2, 58, 64
4, 78120, Note_on_c, 2, 60, 89
4, 78240, Note_off_c, 2, 60, 64
4, 78240, Note_on_c, 2, 62, 96
4, 78360, Note_off_c, 2, 62, 64
4, 78360, Note_on_c, 2, 63, 104
4, 78480, Note_off_c, 2, 63, 64
4, 78480, Note_on_c, 2, 65, 111
4, 78720, Note_off_c, 2, 65, 64
4, 78960, Note_on_c, 2, 65, 94
4, 79140, Note_off_c, 2, 65, 64
4, 79200, Note_on_c, 2, 63, 95
4, 79380, Note_off_c, 2, 63, 64
4, 79440, Note_on_c, 2, 62, 95
4, 79620, Note_off_c, 2, 62, 64
4, 79680, Note_on_c, 2, 60, 95
4, 79860, Note_off_c, 2, 60, 64
4, 79920, Note_on_c, 2, 65, 96
4, 80100, Note_off_c, 2, 65, 64
4, 80160, Note_on_c, 2, 63, 96
4, 80340, Note_off_c, 2, 63, 64
4, 80400, Note_on_c, 2, 62, 97
4, 80580, Note_off_c, 2, 62, 64
4, 80640, Note_on_c, 2, 63, 77
4, 80760, Note_off_c, 2, 63, 64
4, 80760, Note_on_c, 2, 65, 83
4, 80880, Note_off_c, 2, 65, 64
4, 80880, Note_on_c, 2, 67, 90
4, 81000, Note_off_c, 2, 67, 64
4, 81000, Note_on_c, 2, 68, 96
4, 81120, Note_off_c, 2, 68, 64
4, 81120, Note_on_c, 2, 70, 102
4, 81240, Note_off_c, 2, 70, 64
4, 81240, Note_on_c, 2, 72, 108
4, 81360, Note_off_c, 2, 72, 64
4, 81360, Note_on_c, 2, 74, 115
4, 81840, Note_off_c, 2, 74, 64
4, 81840, Note_on_c, 2, 74, 99
4, 82020, Note_off_c, 2, 74, 64
4, 82080, Note_on_c, 2, 63, 87
4, 82200, Note_off_c, 2, 63, 64
4, 82200, Note_on_c, 2, 65, 92
4, 82320, Note_off_c, 2, 65, 64
4, 82320, Note_on_c, 2, 67, 97
4, 82440, Note_off_c, 2, 67, 64
4, 82440, Note_on_c, 2, 68, 101
4, 82560, Note_off_c, 2, 68, 64
4, 82560, Note_on_c, 2, 70, 106
4, 82680, Note_off_c, 2, 70, 64
4, 82680, Note_on_c, 2, 72, 111
4, 82800, Note_off_c, 2, 72, 64
4, 82800, Note_on_c, 2, 74, 115
4, 83280, Note_off_c, 2, 74, 64
4, 83280, Note_on_c, 2, 74, 107
4, 83460, Note_off_c, 2, 74, 64
4, 83520, Note_on_c, 2, 63, 92
4, 83640, Note_off_c, 2, 63, 64
4, 83640, Note_on_c, 2, 65, 96
4, 83760, Note_off_c, 2, 65, 64
4, 83760, Note_on_c, 2, 67, 101
4, 83880, Note_off_c, 2, 67, 64
4, 83880, Note_on_c, 2, 68, 106
4, 84000, Note_off_c, 2, 68, 64
4, 84000, Note_on_c, 2, 70, 111
4, 84120, Note_off_c, 2, 70, 64
4, 84120, Note_on_c, 2, 72, 115
4, 84240, Note_off_c, 2, 72, 64
4, 84240, Note_on_c, 2, 74, 124
4, 84720, Note_off_c, 2, 74, 64
4, 84720, Note_on_c, 2, 74, 110
4, 84900, Note_off_c, 2, 74, 64
4, 84960, Note_on_c, 2, 65, 125
4, 85440, Note_off_c, 2, 65, 64
4, 85440, Note_on_c, 2, 65, 112
4, 85620, Note_off_c, 2, 65, 64
4, 85680, Note_on_c, 2, 72, 124
4, 86160, Note_off_c, 2, 72, 64
4, 86160, Note_on_c, 2, 72, 114
4, 86340, Note_off_c, 2, 72, 64
4, 87120, Note_on_c, 2, 43, 82
4, 87240, Note_off_c, 2, 43, 64
4, 87240, Note_on_c, 2, 45, 88
4, 87360, Note_off_c, 2, 45, 64
4, 87360, Note_on_c, 2, 47, 95
4, 87480, Note_off_c, 2, 47, 64
4, 87480, Note_on_c, 2, 48, 101
4, 87600, Note_off_c, 2, 48, 64
4, 87600, Note_on_c, 2, 50, 108
4, 87720, Note_off_c, 2, 50, 64
4, 87720, Note_on_c, 2, 52, 115
4, 87840, Note_off_c, 2, 52, 64
4, 87840, Note_on_c, 2, 54, 121
4, 88080, Note_off_c, 2, 54, 64
4, 88320, Note_on_c, 2, 54, 115
4, 88500, Note_off_c, 2, 54, 64
4, 88560, Note_on_c, 2, 45, 122
4, 89040, Note_off_c, 2, 45, 64
4, 89040, Note_on_c, 2, 45, 115
4, 89220, Note_off_c, 2, 45, 64
4, 89280, Note_on_c, 2, 52, 126
4, 89760, Note_off_c, 2, 52, 64
4, 89760, Note_on_c, 2, 52, 115
4, 89940, Note_off_c, 2, 52, 64
4, 90000, Note_on_c, 2, 47, 115
4, 90480, Note_off_c, 2, 47, 64
4, 90480, Note_on_c, 2, 48, 115
4, 90720, Note_off_c, 2, 48, 64
4, 90720, Note_on_c, 2, 59, 115
4, 90900, Note_off_c, 2, 59, 64
4, 90960, Note_on_c, 2, 57, 115
4, 91140, Note_off_c, 2, 57, 64
4, 91200, Note_on_c, 2, 55, 115
4, 91380, Note_off_c, 2, 55, 64
4, 91440, Note_on_c, 2, 57, 115
4, 92160, Note_off_c, 2, 57, 64
4, 92160, Note_on_c, 2, 50, 94
4, 92280, Note_off_c, 2, 50, 64
4, 92280, Note_on_c, 2, 52, 98
4, 92400, Note_off_c, 2, 52, 64
4, 92400, Note_on_c, 2, 54, 102
4, 92520, Note_off_c, 2, 54, 64
4, 92520, Note_on_c, 2, 55, 106
4, 92640, Note_off_c, 2, 55, 64
4, 92640, Note_on_c, 2, 57, 110
4, 92760, Note_off_c, 2, 57, 64
4, 92760, Note_on_c, 2, 59, 113
4, 92880, Note_off_c, 2, 59, 64
4, 92880, Note_on_c, 2, 61, 124
4, 93120, Note_off_c, 2, 61, 64
4, 93360, Note_on_c, 2, 61, 115
4, 93540, Note_off_c, 2, 61, 64
4, 93600, Note_on_c, 2, 52, 115
4, 94080, Note_off_c, 2, 52, 64
4, 94080, Note_on_c, 2, 52, 115
4, 94260, Note_off_c, 2, 52, 64
4, 94320, Note_on_c, 2, 59, 115
4, 94800, Note_off_c, 2, 59, 64
4, 94800, Note_on_c, 2, 59, 115
4, 94980, Note_off_c, 2, 59, 64
4, 95040, Note_on_c, 2, 54, 115
4, 95520, Note_off_c, 2, 54, 64
4, 95520, Note_on_c, 2, 55, 115
4, 95760, Note_off_c, 2, 55, 64
4, 95760, Note_on_c, 2, 66, 115
4, 95940, Note_off_c, 2, 66, 64
4, 96000, Note_on_c, 2, 64, 115
4, 96180, Note_off_c, 2, 64, 64
4, 96240, Note_on_c, 2, 62, 115
4, 96420, Note_off_c, 2, 62, 64
4, 96480, Note_on_c, 2, 61, 115
4, 96660, Note_off_c, 2, 61, 64
4, 96720, Note_on_c, 2, 62, 115
4, 96900, Note_off_c, 2, 62, 64
4, 96960, Note_on_c, 2, 64, 115
4, 97140, Note_off_c, 2, 64, 64
4, 97200, Note_on_c, 2, 59, 115
4, 97920, Note_off_c, 2, 59, 64
4, 97920, Note_on_c, 2, 61, 127
4, 98640, Note_off_c, 2, 61, 64
4, 98640, Note_on_c, 2, 62, 117
4, 99360, Note_off_c, 2, 62, 64
4, 99360, Note_on_c, 2, 64, 100
4, 99540, Note_off_c, 2, 64, 64
4, 99600, Note_on_c, 2, 66, 97
4, 99780, Note_off_c, 2, 66, 64
4, 99840, Note_on_c, 2, 67, 94
4, 100020, Note_off_c, 2, 67, 64
4, 100080, Note_on_c, 2, 57, 90
4, 100260, Note_off_c, 2, 57, 64
4, 100320, Note_on_c, 2, 55, 90
4, 100500, Note_off_c, 2, 55, 64
4, 100560, Note_on_c, 2, 54, 91
4, 100740, Note_off_c, 2, 54, 64
4, 100800, Note_on_c, 2, 55, 95
4, 100980, Note_off_c, 2, 55, 64
4, 101040, Note_on_c, 2, 54, 95
4, 101220, Note_off_c, 2, 54, 64
4, 101280, Note_on_c, 2, 52, 95
4, 101460, Note_off_c, 2, 52, 64
4, 101520, Note_on_c, 2, 54, 69
4, 101640, Note_off_c, 2, 54, 64
4, 101640, Note_on_c, 2, 55, 76
4, 101760, Note_off_c, 2, 55, 64
4, 101760, Note_on_c, 2, 57, 83
4, 101880, Note_off_c, 2, 57, 64
4, 101880, Note_on_c, 2, 59, 89
4, 102000, Note_off_c, 2, 59, 64
4, 102000, Note_on_c, 2, 61, 96
4, 102120, Note_off_c, 2, 61, 64
4, 102120, Note_on_c, 2, 62, 102
4, 102240, Note_off_c, 2, 62, 64
4, 102240, Note_on_c, 2, 64, 109
4, 102480, Note_off_c, 2, 64, 64
4, 102720, Note_on_c, 2, 64, 96
4, 102900, Note_off_c, 2, 64, 64
4, 102960, Note_on_c, 2, 62, 96
4, 103140, Note_off_c, 2, 62, 64
4, 103200, Note_on_c, 2, 61, 97
4, 103380, Note_off_c, 2, 61, 64
4, 103440, Note_on_c, 2, 59, 97
4, 103620, Note_off_c, 2, 59, 64
4, 103680, Note_on_c, 2, 61, 97
4, 103860, Note_off_c, 2, 61, 64
4, 103920, Note_on_c, 2, 59, 97
4, 104100, Note_off_c, 2, 59, 64
4, 104160, Note_on_c, 2, 57, 97
4, 104340, Note_off_c, 2, 57, 64
4, 104400, Note_on_c, 2, 55, 73
4, 104520, Note_off_c, 2, 55, 64
4, 104520, Note_on_c, 2, 57, 80
4, 104640, Note_off_c, 2, 57, 64
4, 104640, Note_on_c, 2, 59, 87
4, 104760, Note_off_c, 2, 59, 64
4, 104760, Note_on_c, 2, 61, 94
4, 104880, Note_off_c, 2, 61, 64
4, 104880, Note_on_c, 2, 62, 101
4, 105000, Note_off_c, 2, 62, 64
4, 105000, Note_on_c, 2, 64, 108
4, 105120, Note_off_c, 2, 64, 64
4, 105120, Note_on_c, 2, 66, 115
4, 105600, Note_off_c, 2, 66, 64
4, 105600, Note_on_c, 2, 67, 99
4, 105780, Note_off_c, 2, 67, 64
4, 105840, Note_on_c, 2, 69, 117
4, 106320, Note_off_c, 2, 69, 64
4, 106320, Note_on_c, 2, 70, 99
4, 106500, Note_off_c, 2, 70, 64
4, 106560, Note_on_c, 2, 41, 80
4, 106680, Note_off_c, 2, 41, 64
4, 106680, Note_on_c, 2, 43, 86
4, 106800, Note_off_c, 2, 43, 64
4, 106800, Note_on_c, 2, 45, 92
4, 106920, Note_off_c, 2, 45, 64
4, 106920, Note_on_c, 2, 46, 98
4, 107040, Note_off_c, 2, 46, 64
4, 107040, Note_on_c, 2, 48, 103
4, 107160, Note_off_c, 2, 48, 64
4, 107160, Note_on_c, 2, 50, 109
4, 107280, Note_off_c, 2, 50, 64
4, 107280, Note_on_c, 2, 52, 115
4, 107520, Note_off_c, 2, 52, 64
4, 107760, Note_on_c, 2, 52, 100
4, 107940, Note_off_c, 2, 52, 64
4, 108000, Note_on_c, 2, 43, 118
4, 108480, Note_off_c, 2, 43, 64
4, 108480, Note_on_c, 2, 43, 100
4, 108660, Note_off_c, 2, 43, 64
4, 108720, Note_on_c, 2, 50, 118
4, 109200, Note_off_c, 2, 50, 64
4, 109200, Note_on_c, 2, 50, 100
4, 109380, Note_off_c, 2, 50, 64
4, 109440, Note_on_c, 2, 45, 118
4, 109920, Note_off_c, 2, 45, 64
4, 109920, Note_on_c, 2, 46, 100
4, 110160, Note_off_c, 2, 46, 64
4, 110160, Note_on_c, 2, 57, 100
4, 110340, Note_off_c, 2, 57, 64
4, 110400, Note_on_c, 2, 55, 100
4, 110580, Note_off_c, 2, 55, 64
4, 110640, Note_on_c, 2, 53, 100
4, 110820, Note_off_c, 2, 53, 64
4, 110880, Note_on_c, 2, 52, 100
4, 111060, Note_off_c, 2, 52, 64
4, 111120, Note_on_c, 2, 53, 100
4, 111300, Note_off_c, 2, 53, 64
4, 111360, Note_on_c, 2, 55, 100
4, 111540, Note_off_c, 2, 55, 64
4, 111600, Note_on_c, 2, 50, 100
4, 111780, Note_off_c, 2, 50, 64
4, 111840, Note_on_c, 2, 51, 100
4, 112020, Note_off_c, 2, 51, 64
4, 112080, Note_on_c, 2, 53, 100
4, 112260, Note_off_c, 2, 53, 64
4, 112320, Note_on_c, 2, 58, 100
4, 112440, Note_off_c, 2, 58, 64
4, 112440, Note_on_c, 2, 60, 100
4, 112560, Note_off_c, 2, 60, 64
4, 112560, Note_on_c, 2, 62, 100
4, 112680, Note_off_c, 2, 62, 64
4, 112680, Note_on_c, 2, 63, 100
4, 112800, Note_off_c, 2, 63, 64
4, 112800, Note_on_c, 2, 65, 100
4, 112920, Note_off_c, 2, 65, 64
4, 112920, Note_on_c, 2, 67, 100
4, 113040, Note_off_c, 2, 67, 64
4, 113040, Note_on_c, 2, 46, 100
4, 113160, Note_off_c, 2, 46, 64
4, 113160, Note_on_c, 2, 48, 100
4, 113280, Note_off_c, 2, 48, 64
4, 113280, Note_on_c, 2, 50, 100
4, 113400, Note_off_c, 2, 50, 64
4, 113400, Note_on_c, 2, 51, 100
4, 113520, Note_off_c, 2, 51, 64
4, 113520, Note_on_c, 2, 53, 100
4, 113640, Note_off_c, 2, 53, 64
4, 113640, Note_on_c, 2, 55, 100
4, 113760, Note_off_c, 2, 55, 64
4, 113760, Note_on_c, 2, 57, 119
4, 114240, Note_off_c, 2, 57, 64
4, 114240, Note_on_c, 2, 57, 100
4, 114420, Note_off_c, 2, 57, 64
4, 114480, Note_on_c, 2, 48, 119
4, 114960, Note_off_c, 2, 48, 64
4, 114960, Note_on_c, 2, 48, 100
4, 115140, Note_off_c, 2, 48, 64
4, 115200, Note_on_c, 2, 55, 121
4, 115680, Note_off_c, 2, 55, 64
4, 115680, Note_on_c, 2, 55, 100
4, 115860, Note_off_c, 2, 55, 64
4, 115920, Note_on_c, 2, 50, 118
4, 116400, Note_off_c, 2, 50, 64
4, 116400, Note_on_c, 2, 51, 100
4, 116640, Note_off_c, 2, 51, 64
4, 116640, Note_on_c, 2, 62, 100
4, 116820, Note_off_c, 2, 62, 64
4, 116880, Note_on_c, 2, 60, 100
4, 117060, Note_off_c, 2, 60, 64
4, 117120, Note_on_c, 2, 58, 100
4, 117300, Note_off_c, 2, 58, 64
4, 117360, Note_on_c, 2, 60, 100
4, 117540, Note_off_c, 2, 60, 64
4, 117600, Note_on_c, 2, 58, 100
4, 117780, Note_off_c, 2, 58, 64
4, 117840, Note_on_c, 2, 57, 100
4, 118020, Note_off_c, 2, 57, 64
4, 118080, Note_on_c, 2, 55, 118
4, 118560, Note_off_c, 2, 55, 64
4, 118560, Note_on_c, 2, 50, 102
4, 118740, Note_off_c, 2, 50, 64
4, 118800, Note_on_c, 2, 55, 116
4, 120000, Note_off_c, 2, 55, 64
4, 120000, Note_on_c, 2, 50, 103
4, 120180, Note_off_c, 2, 50, 64
4, 120240, Note_on_c, 2, 55, 119
4, 121440, Note_off_c, 2, 55, 64
4, 121440, Note_on_c, 2, 50, 104
4, 121620, Note_off_c, 2, 50, 64
4, 121680, Note_on_c, 2, 55, 118
4, 122160, Note_off_c, 2, 55, 64
4, 122160, Note_on_c, 2, 50, 104
4, 122340, Note_off_c, 2, 50, 64
4, 122400, Note_on_c, 2, 55, 120
4, 122880, Note_off_c, 2, 55, 64
4, 122880, Note_on_c, 2, 50, 105
4, 123060, Note_off_c, 2, 50, 64
4, 123120, Note_on_c, 2, 55, 105
4, 124320, Note_off_c, 2, 55, 64
4, 124320, Note_on_c, 2, 50, 100
4, 124500, Note_off_c, 2, 50, 64
4, 124560, Note_on_c, 2, 55, 120
4, 125040, Note_off_c, 2, 55, 64
4, 125040, Note_on_c, 2, 50, 100
4, 125220, Note_off_c, 2, 50, 64
4, 125280, Note_on_c, 2, 43, 83
4, 125400, Note_off_c, 2, 43, 64
4, 125400, Note_on_c, 2, 45, 87
4, 125520, Note_off_c, 2, 45, 64
4, 125520, Note_on_c, 2, 47, 91
4, 125640, Note_off_c, 2, 47, 64
4, 125640, Note_on_c, 2, 48, 95
4, 125760, Note_off_c, 2, 48, 64
4, 125760, Note_on_c, 2, 50, 99
4, 125880, Note_off_c, 2, 50, 64
4, 125880, Note_on_c, 2, 52, 103
4, 126000, Note_off_c, 2, 52, 64
4, 126000, Note_on_c, 2, 54, 115
4, 126480, Note_off_c, 2, 54, 64
4, 126480, Note_on_c, 2, 54, 100
4, 126660, Note_off_c, 2, 54, 64
4, 126720, Note_on_c, 2, 45, 120
4, 127200, Note_off_c, 2, 45, 64
4, 127200, Note_on_c, 2, 45, 100
4, 127380, Note_off_c, 2, 45, 64
4, 127440, Note_on_c, 2, 52, 119
4, 127920, Note_off_c, 2, 52, 64
4, 127920, Note_on_c, 2, 52, 100
4, 128100, Note_off_c, 2, 52, 64
4, 128160, Note_on_c, 2, 47, 117
4, 128640, Note_off_c, 2, 47, 64
4, 128640, Note_on_c, 2, 48, 103
4, 128880, Note_off_c, 2, 48, 64
4, 128880, Note_on_c, 2, 59, 103
4, 129060, Note_off_c, 2, 59, 64
4, 129120, Note_on_c, 2, 57, 104
4, 129300, Note_off_c, 2, 57, 64
4, 129360, Note_on_c, 2, 55, 104
4, 129540, Note_off_c, 2, 55, 64
4, 129600, Note_on_c, 2, 54, 105
4, 129780, Note_off_c, 2, 54, 64
4, 129840, Note_on_c, 2, 55, 105
4, 130020, Note_off_c, 2, 55, 64
4, 130080, Note_on_c, 2, 57, 106
4, 130260, Note_off_c, 2, 57, 64
4, 130320, Note_on_c, 2, 52, 106
4, 130500, Note_off_c, 2, 52, 64
4, 130560, Note_on_c, 2, 54, 107
4, 130740, Note_off_c, 2, 54, 64
4, 130800, Note_on_c, 2, 55, 107
4, 130980, Note_off_c, 2, 55, 64
4, 131040, Note_on_c, 2, 54, 108
4, 131220, Note_off_c, 2, 54, 64
4, 131280, Note_on_c, 2, 52, 108
4, 131460, Note_off_c, 2, 52, 64
4, 131520, Note_on_c, 2, 50, 109
4, 131700, Note_off_c, 2, 50, 64
4, 131760, Note_on_c, 2, 52, 109
4, 131940, Note_off_c, 2, 52, 64
4, 132000, Note_on_c, 2, 50, 110
4, 132180, Note_off_c, 2, 50, 64
4, 132240, Note_on_c, 2, 48, 111
4, 132420, Note_off_c, 2, 48, 64
4, 132480, Note_on_c, 2, 47, 111
4, 132660, Note_off_c, 2, 47, 64
4, 132720, Note_on_c, 2, 48, 112
4, 132900, Note_off_c, 2, 48, 64
4, 132960, Note_on_c, 2, 50, 112
4, 133140, Note_off_c, 2, 50, 64
4, 133200, Note_on_c, 2, 45, 113
4, 133380, Note_off_c, 2, 45, 64
4, 133440, Note_on_c, 2, 47, 113
4, 133620, Note_off_c, 2, 47, 64
4, 133680, Note_on_c, 2, 48, 114
4, 133860, Note_off_c, 2, 48, 64
4, 133920, Note_on_c, 2, 44, 126
4, 136800, Note_off_c, 2, 44, 64
4, 136800, Note_on_c, 2, 45, 124
4, 137520, Note_off_c, 2, 45, 64
4, 137520, Note_on_c, 2, 50, 124
4, 138240, Note_off_c, 2, 50, 64
4, 138240, Note_on_c, 2, 43, 115
4, 141360, Note_off_c, 2, 43, 64
4, 141360, Note_on_c, 2, 43, 115
4, 144000, Note_off_c, 2, 43, 64
4, 144000, Note_on_c, 2, 43, 115
4, 145437, Control_c, 2, 91, 0
4, 145438, Control_c, 2, 121, 0
4, 145440, Note_off_c, 2, 43, 64
4, 145440, End_track
5, 0, Start_track
5, 0, Title_t, "============="
5, 0, MIDI_port, 0
5, 0, End_track
6, 0, Start_track
6, 0, Title_t, "D. SHOSTAKOVICH"
6, 0, MIDI_port, 0
6, 0, End_track
7, 0, Start_track
7, 0, Title_t, "Fugue in G Major"
7, 0, MIDI_port, 0
7, 0, End_track
8, 0, Start_track
8, 0, Title_t, "opus 87 no. 3"
8, 0, MIDI_port, 0
8, 0, End_track
9, 0, Start_track
9, 0, Title_t, "Seq. by J.Marques"
9, 0, MIDI_port, 0
9, 0, End_track
10, 0, Start_track
10, 0, Title_t, "jmarques@super.zippo.com"
10, 0, MIDI_port, 0
10, 0, End_track
11, 0, Start_track
11, 0, Title_t, "=============="
11, 0, MIDI_port, 0
11, 0, End_track
12, 0, Start_track
12, 1, Copyright_t, "___________________________________________________\012\012KUNSTDERFUGE.COM LARGE CLASSICAL MIDI COLLECTION\012ONCLASSICAL BY ALESSANDRO SIMONETTO, PROPRIETOR\012___________________________________________________\012\012! Attention: this file is under copyright !\012\012(c)onclassical, (c)marques, 2010\012___________________________________________________\012\012NO ONE MAY REPUBLISH THIS FILE WITHOUT PERMISSION\012COMMERCIAL USES OF THIS FILE IS STRICTLY PROHIBITED\012___________________________________________________\012\012Files & contributor's list: http://kunstderfuge.com/\012Terms and conditions: http://kunstderfuge.com/notes.htm"
12, 1, End_track
0, 0, End_of_file