0, 0, Header, 1, 10, 384
1, 0, Start_track
1, 0, Time_signature, 3, 2, 96, 8
1, 0, Sequencer_specific, 03, 00, 00, 41
1, 0, Sequencer_specific, 05, 00, 00, 77, 0E, 00
1, 0, Tempo, 705882
1, 8, Tempo, 697674
1, 16, Tempo, 689655
1, 28, Tempo, 681818
1, 36, Tempo, 674157
1, 48, Tempo, 666666
1, 56, Tempo, 659340
1, 64, Tempo, 652173
1, 76, Tempo, 645161
1, 84, Tempo, 638297
1, 96, Tempo, 631578
1, 104, Tempo, 625000
1, 112, Tempo, 618556
1, 124, Tempo, 612244
1, 132, Tempo, 606060
1, 144, Tempo, 600000
1, 152, Tempo, 594059
1, 160, Tempo, 588235
1, 172, Tempo, 582524
1, 180, Tempo, 576923
1, 192, Tempo, 571428
1, 4608, Tempo, 631578
1, 4616, Tempo, 625000
1, 4624, Tempo, 618556
1, 4636, Tempo, 612244
1, 4644, Tempo, 606060
1, 4656, Tempo, 600000
1, 4664, Tempo, 594059
1, 4672, Tempo, 588235
1, 4684, Tempo, 582524
1, 4692, Tempo, 576923
1, 4704, Tempo, 571428
1, 9216, Tempo, 631578
1, 9224, Tempo, 625000
1, 9232, Tempo, 618556
1, 9244, Tempo, 612244
1, 9252, Tempo, 606060
1, 9264, Tempo, 600000
1, 9272, Tempo, 594059
1, 9280, Tempo, 588235
1, 9292, Tempo, 582524
1, 9300, Tempo, 576923
1, 9312, Tempo, 571428
1, 17760, Tempo, 571428
1, 17776, Tempo, 576923
1, 17796, Tempo, 582524
1, 17816, Tempo, 588235
1, 17836, Tempo, 594059
1, 17856, Tempo, 600000
1, 17872, Tempo, 606060
1, 17892, Tempo, 612244
1, 17912, Tempo, 618556
1, 17932, Tempo, 625000
1, 17952, Tempo, 631578
1, 17968, Tempo, 638297
1, 17988, Tempo, 645161
1, 18008, Tempo, 652173
1, 18028, Tempo, 659340
1, 18048, Tempo, 666666
1, 18432, Tempo, 705882
1, 18440, Tempo, 697674
1, 18448, Tempo, 689655
1, 18460, Tempo, 681818
1, 18468, Tempo, 674157
1, 18480, Tempo, 666666
1, 18488, Tempo, 659340
1, 18496, Tempo, 652173
1, 18508, Tempo, 645161
1, 18516, Tempo, 638297
1, 18528, Tempo, 631578
1, 18536, Tempo, 625000
1, 18544, Tempo, 618556
1, 18556, Tempo, 612244
1, 18564, Tempo, 606060
1, 18576, Tempo, 600000
1, 18584, Tempo, 594059
1, 18592, Tempo, 588235
1, 18604, Tempo, 582524
1, 18612, Tempo, 576923
1, 18624, Tempo, 571428
1, 26208, Tempo, 571428
1, 26416, Tempo, 576923
1, 26628, Tempo, 582524
1, 26840, Tempo, 588235
1, 27052, Tempo, 594059
1, 27264, Tempo, 600000
1, 27280, Tempo, 606060
1, 27300, Tempo, 612244
1, 27320, Tempo, 618556
1, 27340, Tempo, 625000
1, 27360, Tempo, 631578
1, 27376, Tempo, 638297
1, 27396, Tempo, 645161
1, 27416, Tempo, 652173
1, 27436, Tempo, 659340
1, 27456, Tempo, 666666
1, 27648, Tempo, 666666
1, 27652, Tempo, 659340
1, 27660, Tempo, 652173
1, 27664, Tempo, 645161
1, 27672, Tempo, 638297
1, 27680, Tempo, 631578
1, 27684, Tempo, 625000
1, 27692, Tempo, 618556
1, 27696, Tempo, 612244
1, 27704, Tempo, 606060
1, 27712, Tempo, 600000
1, 27716, Tempo, 594059
1, 27724, Tempo, 588235
1, 27728, Tempo, 582524
1, 27736, Tempo, 576923
1, 27744, Tempo, 571428
1, 27748, Tempo, 612244
1, 27760, Tempo, 606060
1, 27776, Tempo, 600000
1, 27788, Tempo, 594059
1, 27800, Tempo, 588235
1, 27812, Tempo, 582524
1, 27824, Tempo, 576923
1, 27840, Tempo, 571428
1, 35040, Tempo, 571428
1, 35144, Tempo, 576923
1, 35248, Tempo, 582524
1, 35356, Tempo, 588235
1, 35460, Tempo, 594059
1, 35568, Tempo, 600000
1, 35672, Tempo, 606060
1, 35776, Tempo, 612244
1, 35884, Tempo, 618556
1, 35988, Tempo, 625000
1, 36096, Tempo, 631578
1, 36104, Tempo, 638297
1, 36116, Tempo, 645161
1, 36128, Tempo, 652173
1, 36136, Tempo, 659340
1, 36148, Tempo, 666666
1, 36160, Tempo, 674157
1, 36172, Tempo, 681818
1, 36180, Tempo, 689655
1, 36192, Tempo, 697674
1, 36204, Tempo, 705882
1, 36216, Tempo, 714285
1, 36224, Tempo, 722891
1, 36236, Tempo, 731707
1, 36248, Tempo, 740740
1, 36260, Tempo, 750000
1, 36268, Tempo, 759493
1, 36280, Tempo, 769230
1, 36292, Tempo, 779220
1, 36304, Tempo, 789473
1, 36312, Tempo, 800000
1, 36324, Tempo, 810810
1, 36336, Tempo, 821917
1, 36348, Tempo, 833333
1, 36356, Tempo, 845070
1, 36368, Tempo, 857142
1, 36380, Tempo, 869565
1, 36384, Tempo, 1016949
1, 36388, Tempo, 1034482
1, 36392, Tempo, 1052631
1, 36396, Tempo, 1071428
1, 36400, Tempo, 1111111
1, 36404, Tempo, 1132075
1, 36408, Tempo, 1153846
1, 36412, Tempo, 1176470
1, 36416, Tempo, 1224489
1, 36420, Tempo, 1250000
1, 36424, Tempo, 1276595
1, 36428, Tempo, 1304347
1, 36432, Tempo, 1363636
1, 36436, Tempo, 1395348
1, 36440, Tempo, 1428571
1, 36444, Tempo, 1463414
1, 36448, Tempo, 1538461
1, 36452, Tempo, 1578947
1, 36456, Tempo, 1621621
1, 36460, Tempo, 1666666
1, 36464, Tempo, 1764705
1, 36468, Tempo, 1818181
1, 36472, Tempo, 1875000
1, 36476, Tempo, 1935483
1, 36480, Tempo, 2000000
1, 36480, End_track
2, 0, Start_track
2, 0, Title_t, "Johann Sebastian Bach"
2, 0, Control_c, 0, 0, 0
2, 0, Program_c, 0, 6
2, 0, Control_c, 0, 7, 127
2, 0, Control_c, 0, 10, 31
2, 0, Control_c, 0, 91, 127
2, 0, Key_signature, 1, "major"
2, 0, Note_on_c, 0, 71, 112
2, 72, Note_off_c, 0, 71, 100
2, 96, Note_on_c, 0, 74, 112
2, 168, Note_off_c, 0, 74, 100
2, 192, Note_on_c, 0, 78, 112
2, 264, Note_off_c, 0, 78, 100
2, 288, Note_on_c, 0, 81, 112
2, 360, Note_off_c, 0, 81, 100
2, 384, Note_on_c, 0, 79, 112
2, 604, Note_off_c, 0, 79, 100
2, 672, Note_on_c, 0, 72, 112
2, 744, Note_off_c, 0, 72, 100
2, 768, Note_on_c, 0, 71, 112
2, 840, Note_off_c, 0, 71, 100
2, 864, Note_on_c, 0, 69, 112
2, 936, Note_off_c, 0, 69, 100
2, 960, Note_on_c, 0, 67, 112
2, 1032, Note_off_c, 0, 67, 100
2, 1056, Note_on_c, 0, 71, 112
2, 1128, Note_off_c, 0, 71, 100
2, 1152, Note_on_c, 0, 69, 112
2, 1224, Note_off_c, 0, 69, 100
2, 1248, Note_on_c, 0, 73, 112
2, 1320, Note_off_c, 0, 73, 100
2, 1344, Note_on_c, 0, 76, 112
2, 1416, Note_off_c, 0, 76, 100
2, 1440, Note_on_c, 0, 79, 112
2, 1512, Note_off_c, 0, 79, 100
2, 1536, Note_on_c, 0, 78, 112
2, 1756, Note_off_c, 0, 78, 100
2, 1824, Note_on_c, 0, 71, 112
2, 1896, Note_off_c, 0, 71, 100
2, 1920, Note_on_c, 0, 69, 112
2, 1992, Note_off_c, 0, 69, 100
2, 2016, Note_on_c, 0, 67, 112
2, 2088, Note_off_c, 0, 67, 100
2, 2112, Note_on_c, 0, 66, 112
2, 2184, Note_off_c, 0, 66, 100
2, 2208, Note_on_c, 0, 69, 112
2, 2280, Note_off_c, 0, 69, 100
2, 2304, Note_on_c, 0, 67, 112
2, 2376, Note_off_c, 0, 67, 100
2, 2400, Note_on_c, 0, 71, 112
2, 2472, Note_off_c, 0, 71, 100
2, 2496, Note_on_c, 0, 74, 112
2, 2568, Note_off_c, 0, 74, 100
2, 2592, Note_on_c, 0, 78, 112
2, 2664, Note_off_c, 0, 78, 100
2, 2688, Note_on_c, 0, 76, 112
2, 2908, Note_off_c, 0, 76, 100
2, 2976, Note_on_c, 0, 69, 112
2, 3048, Note_off_c, 0, 69, 100
2, 3072, Note_on_c, 0, 67, 112
2, 3144, Note_off_c, 0, 67, 100
2, 3168, Note_on_c, 0, 66, 112
2, 3240, Note_off_c, 0, 66, 100
2, 3264, Note_on_c, 0, 64, 112
2, 3336, Note_off_c, 0, 64, 100
2, 3360, Note_on_c, 0, 67, 112
2, 3432, Note_off_c, 0, 67, 100
2, 3456, Note_on_c, 0, 66, 112
2, 3508, Note_off_c, 0, 66, 100
2, 3552, Note_on_c, 0, 64, 112
2, 3604, Note_off_c, 0, 64, 100
2, 3648, Note_on_c, 0, 66, 112
2, 3700, Note_off_c, 0, 66, 100
2, 3744, Note_on_c, 0, 64, 112
2, 3796, Note_off_c, 0, 64, 100
2, 3840, Note_on_c, 0, 66, 112
2, 3912, Note_off_c, 0, 66, 100
2, 3936, Note_on_c, 0, 69, 112
2, 4008, Note_off_c, 0, 69, 100
2, 4032, Note_on_c, 0, 74, 112
2, 4104, Note_off_c, 0, 74, 100
2, 4128, Note_on_c, 0, 73, 112
2, 4200, Note_off_c, 0, 73, 100
2, 4224, Note_on_c, 0, 74, 112
2, 4296, Note_off_c, 0, 74, 100
2, 4320, Note_on_c, 0, 78, 112
2, 4392, Note_off_c, 0, 78, 100
2, 4416, Note_on_c, 0, 81, 112
2, 4488, Note_off_c, 0, 81, 100
2, 4512, Note_on_c, 0, 72, 112
2, 4584, Note_off_c, 0, 72, 100
2, 4608, Note_on_c, 0, 71, 112
2, 4660, Note_off_c, 0, 71, 100
2, 4704, Note_on_c, 0, 79, 112
2, 4756, Note_off_c, 0, 79, 100
2, 4800, Note_on_c, 0, 69, 112
2, 4852, Note_off_c, 0, 69, 100
2, 4896, Note_on_c, 0, 77, 112
2, 4948, Note_off_c, 0, 77, 100
2, 4992, Note_on_c, 0, 67, 112
2, 5044, Note_off_c, 0, 67, 100
2, 5088, Note_on_c, 0, 76, 112
2, 5140, Note_off_c, 0, 76, 100
2, 5184, Note_on_c, 0, 65, 112
2, 5236, Note_off_c, 0, 65, 100
2, 5280, Note_on_c, 0, 74, 112
2, 5332, Note_off_c, 0, 74, 100
2, 5376, Note_on_c, 0, 64, 112
2, 5428, Note_off_c, 0, 64, 100
2, 5472, Note_on_c, 0, 72, 112
2, 5524, Note_off_c, 0, 72, 100
2, 5568, Note_on_c, 0, 62, 112
2, 5620, Note_off_c, 0, 62, 100
2, 5664, Note_on_c, 0, 71, 112
2, 5716, Note_off_c, 0, 71, 100
2, 5760, Note_on_c, 0, 72, 112
2, 5812, Note_off_c, 0, 72, 100
2, 5856, Note_on_c, 0, 64, 112
2, 5908, Note_off_c, 0, 64, 100
2, 5952, Note_on_c, 0, 71, 112
2, 6004, Note_off_c, 0, 71, 100
2, 6048, Note_on_c, 0, 62, 112
2, 6100, Note_off_c, 0, 62, 100
2, 6144, Note_on_c, 0, 69, 112
2, 6196, Note_off_c, 0, 69, 100
2, 6240, Note_on_c, 0, 60, 112
2, 6292, Note_off_c, 0, 60, 100
2, 6336, Note_on_c, 0, 67, 112
2, 6388, Note_off_c, 0, 67, 100
2, 6432, Note_on_c, 0, 59, 112
2, 6484, Note_off_c, 0, 59, 100
2, 6528, Note_on_c, 0, 66, 112
2, 6580, Note_off_c, 0, 66, 100
2, 6624, Note_on_c, 0, 57, 112
2, 6676, Note_off_c, 0, 57, 100
2, 6720, Note_on_c, 0, 64, 112
2, 6772, Note_off_c, 0, 64, 100
2, 6816, Note_on_c, 0, 55, 112
2, 6868, Note_off_c, 0, 55, 100
2, 6912, Note_on_c, 0, 57, 112
2, 6964, Note_off_c, 0, 57, 100
2, 7008, Note_on_c, 0, 66, 112
2, 7060, Note_off_c, 0, 66, 100
2, 7104, Note_on_c, 0, 55, 112
2, 7156, Note_off_c, 0, 55, 100
2, 7200, Note_on_c, 0, 64, 112
2, 7252, Note_off_c, 0, 64, 100
2, 7296, Note_on_c, 0, 54, 112
2, 7348, Note_off_c, 0, 54, 100
2, 7392, Note_on_c, 0, 62, 112
2, 7444, Note_off_c, 0, 62, 100
2, 7488, Note_on_c, 0, 52, 112
2, 7540, Note_off_c, 0, 52, 100
2, 7584, Note_on_c, 0, 60, 112
2, 7636, Note_off_c, 0, 60, 100
2, 7680, Note_on_c, 0, 50, 112
2, 7732, Note_off_c, 0, 50, 100
2, 7776, Note_on_c, 0, 59, 112
2, 7828, Note_off_c, 0, 59, 100
2, 7872, Note_on_c, 0, 48, 112
2, 7924, Note_off_c, 0, 48, 100
2, 7968, Note_on_c, 0, 57, 112
2, 8020, Note_off_c, 0, 57, 100
2, 8064, Note_on_c, 0, 47, 112
2, 8116, Note_off_c, 0, 47, 100
2, 8160, Note_on_c, 0, 45, 112
2, 8212, Note_off_c, 0, 45, 100
2, 8256, Note_on_c, 0, 47, 112
2, 8308, Note_off_c, 0, 47, 100
2, 8352, Note_on_c, 0, 45, 112
2, 8404, Note_off_c, 0, 45, 100
2, 8448, Note_on_c, 0, 47, 112
2, 8500, Note_off_c, 0, 47, 100
2, 8544, Note_on_c, 0, 50, 112
2, 8616, Note_off_c, 0, 50, 100
2, 8640, Note_on_c, 0, 55, 112
2, 8712, Note_off_c, 0, 55, 100
2, 8736, Note_on_c, 0, 54, 112
2, 8808, Note_off_c, 0, 54, 100
2, 8832, Note_on_c, 0, 55, 112
2, 8976, Note_off_c, 0, 55, 100
2, 9216, Note_on_c, 0, 74, 112
2, 9288, Note_off_c, 0, 74, 100
2, 9312, Note_on_c, 0, 83, 112
2, 9384, Note_off_c, 0, 83, 100
2, 9408, Note_on_c, 0, 72, 112
2, 9480, Note_off_c, 0, 72, 100
2, 9504, Note_on_c, 0, 81, 112
2, 9576, Note_off_c, 0, 81, 100
2, 9600, Note_on_c, 0, 71, 112
2, 9672, Note_off_c, 0, 71, 100
2, 9696, Note_on_c, 0, 79, 112
2, 9768, Note_off_c, 0, 79, 100
2, 9792, Note_on_c, 0, 69, 112
2, 9864, Note_off_c, 0, 69, 100
2, 9888, Note_on_c, 0, 78, 112
2, 9960, Note_off_c, 0, 78, 100
2, 9984, Note_on_c, 0, 67, 112
2, 10056, Note_off_c, 0, 67, 100
2, 10080, Note_on_c, 0, 76, 112
2, 10152, Note_off_c, 0, 76, 100
2, 10176, Note_on_c, 0, 66, 112
2, 10248, Note_off_c, 0, 66, 100
2, 10272, Note_on_c, 0, 74, 112
2, 10344, Note_off_c, 0, 74, 100
2, 10368, Note_on_c, 0, 64, 112
2, 10440, Note_off_c, 0, 64, 100
2, 10464, Note_on_c, 0, 74, 112
2, 10536, Note_off_c, 0, 74, 100
2, 10560, Note_on_c, 0, 73, 112
2, 10632, Note_off_c, 0, 73, 100
2, 10656, Note_on_c, 0, 71, 112
2, 10728, Note_off_c, 0, 71, 100
2, 10752, Note_on_c, 0, 73, 112
2, 10824, Note_off_c, 0, 73, 100
2, 10848, Note_on_c, 0, 76, 112
2, 10920, Note_off_c, 0, 76, 100
2, 10944, Note_on_c, 0, 81, 112
2, 11004, Note_off_c, 0, 81, 100
2, 11136, Note_on_c, 0, 81, 112
2, 11180, Note_off_c, 0, 81, 100
2, 11184, Note_on_c, 0, 79, 112
2, 11228, Note_off_c, 0, 79, 100
2, 11232, Note_on_c, 0, 81, 112
2, 11324, Note_off_c, 0, 81, 100
2, 11520, Note_on_c, 0, 71, 112
2, 11592, Note_off_c, 0, 71, 100
2, 11616, Note_on_c, 0, 79, 112
2, 11688, Note_off_c, 0, 79, 100
2, 11712, Note_on_c, 0, 69, 112
2, 11784, Note_off_c, 0, 69, 100
2, 11808, Note_on_c, 0, 78, 112
2, 11880, Note_off_c, 0, 78, 100
2, 11904, Note_on_c, 0, 67, 112
2, 11976, Note_off_c, 0, 67, 100
2, 12000, Note_on_c, 0, 76, 112
2, 12072, Note_off_c, 0, 76, 100
2, 12096, Note_on_c, 0, 66, 112
2, 12168, Note_off_c, 0, 66, 100
2, 12192, Note_on_c, 0, 74, 112
2, 12264, Note_off_c, 0, 74, 100
2, 12288, Note_on_c, 0, 64, 112
2, 12360, Note_off_c, 0, 64, 100
2, 12384, Note_on_c, 0, 73, 112
2, 12456, Note_off_c, 0, 73, 100
2, 12480, Note_on_c, 0, 62, 112
2, 12552, Note_off_c, 0, 62, 100
2, 12576, Note_on_c, 0, 71, 112
2, 12648, Note_off_c, 0, 71, 100
2, 12672, Note_on_c, 0, 61, 112
2, 12744, Note_off_c, 0, 61, 100
2, 12768, Note_on_c, 0, 71, 112
2, 12840, Note_off_c, 0, 71, 100
2, 12864, Note_on_c, 0, 69, 112
2, 12936, Note_off_c, 0, 69, 100
2, 12960, Note_on_c, 0, 68, 112
2, 13032, Note_off_c, 0, 68, 100
2, 13056, Note_on_c, 0, 69, 112
2, 13128, Note_off_c, 0, 69, 100
2, 13152, Note_on_c, 0, 73, 112
2, 13224, Note_off_c, 0, 73, 100
2, 13248, Note_on_c, 0, 76, 112
2, 13308, Note_off_c, 0, 76, 100
2, 13440, Note_on_c, 0, 76, 112
2, 13484, Note_off_c, 0, 76, 100
2, 13488, Note_on_c, 0, 74, 112
2, 13532, Note_off_c, 0, 74, 100
2, 13536, Note_on_c, 0, 76, 112
2, 13820, Note_off_c, 0, 76, 100
2, 13920, Note_on_c, 0, 74, 112
2, 13972, Note_off_c, 0, 74, 100
2, 14016, Note_on_c, 0, 76, 112
2, 14068, Note_off_c, 0, 76, 100
2, 14112, Note_on_c, 0, 73, 112
2, 14164, Note_off_c, 0, 73, 100
2, 14208, Note_on_c, 0, 74, 112
2, 14260, Note_off_c, 0, 74, 100
2, 14304, Note_on_c, 0, 71, 112
2, 14356, Note_off_c, 0, 71, 100
2, 14400, Note_on_c, 0, 72, 112
2, 14452, Note_off_c, 0, 72, 100
2, 14496, Note_on_c, 0, 69, 112
2, 14548, Note_off_c, 0, 69, 100
2, 14592, Note_on_c, 0, 71, 112
2, 14644, Note_off_c, 0, 71, 100
2, 14688, Note_on_c, 0, 67, 112
2, 14740, Note_off_c, 0, 67, 100
2, 14784, Note_on_c, 0, 69, 112
2, 14836, Note_off_c, 0, 69, 100
2, 14880, Note_on_c, 0, 66, 112
2, 14932, Note_off_c, 0, 66, 100
2, 14976, Note_on_c, 0, 67, 112
2, 15028, Note_off_c, 0, 67, 100
2, 15072, Note_on_c, 0, 76, 112
2, 15124, Note_off_c, 0, 76, 100
2, 15168, Note_on_c, 0, 66, 112
2, 15220, Note_off_c, 0, 66, 100
2, 15264, Note_on_c, 0, 74, 112
2, 15316, Note_off_c, 0, 74, 100
2, 15360, Note_on_c, 0, 64, 112
2, 15412, Note_off_c, 0, 64, 100
2, 15456, Note_on_c, 0, 73, 112
2, 15508, Note_off_c, 0, 73, 100
2, 15552, Note_on_c, 0, 74, 112
2, 15580, Note_off_c, 0, 74, 100
2, 15584, Note_on_c, 0, 73, 112
2, 15644, Note_off_c, 0, 73, 100
2, 15648, Note_on_c, 0, 71, 112
2, 15712, Note_off_c, 0, 71, 100
2, 15744, Note_on_c, 0, 73, 112
2, 15772, Note_off_c, 0, 73, 100
2, 15776, Note_on_c, 0, 71, 112
2, 15836, Note_off_c, 0, 71, 100
2, 15840, Note_on_c, 0, 69, 112
2, 15932, Note_off_c, 0, 69, 100
2, 15936, Note_on_c, 0, 71, 112
2, 16028, Note_off_c, 0, 71, 100
2, 16032, Note_on_c, 0, 79, 112
2, 16084, Note_off_c, 0, 79, 100
2, 16128, Note_on_c, 0, 79, 112
2, 16412, Note_off_c, 0, 79, 100
2, 16416, Note_on_c, 0, 78, 112
2, 16460, Note_off_c, 0, 78, 100
2, 16464, Note_on_c, 0, 76, 112
2, 16496, Note_off_c, 0, 76, 100
2, 16512, Note_on_c, 0, 78, 112
2, 16604, Note_off_c, 0, 78, 100
2, 16608, Note_on_c, 0, 74, 112
2, 16700, Note_off_c, 0, 74, 100
2, 16704, Note_on_c, 0, 71, 112
2, 16796, Note_off_c, 0, 71, 100
2, 16800, Note_on_c, 0, 67, 112
2, 16864, Note_off_c, 0, 67, 100
2, 16896, Note_on_c, 0, 69, 112
2, 16988, Note_off_c, 0, 69, 100
2, 16992, Note_on_c, 0, 66, 112
2, 17084, Note_off_c, 0, 66, 100
2, 17088, Note_on_c, 0, 67, 112
2, 17180, Note_off_c, 0, 67, 100
2, 17184, Note_on_c, 0, 76, 112
2, 17248, Note_off_c, 0, 76, 100
2, 17280, Note_on_c, 0, 66, 112
2, 17332, Note_off_c, 0, 66, 100
2, 17376, Note_on_c, 0, 64, 112
2, 17428, Note_off_c, 0, 64, 100
2, 17472, Note_on_c, 0, 66, 112
2, 17524, Note_off_c, 0, 66, 100
2, 17568, Note_on_c, 0, 64, 112
2, 17620, Note_off_c, 0, 64, 100
2, 17664, Note_on_c, 0, 66, 112
2, 17716, Note_off_c, 0, 66, 100
2, 17760, Note_on_c, 0, 69, 112
2, 17852, Note_off_c, 0, 69, 100
2, 17856, Note_on_c, 0, 74, 112
2, 17948, Note_off_c, 0, 74, 100
2, 17952, Note_on_c, 0, 73, 112
2, 18044, Note_off_c, 0, 73, 100
2, 18048, Note_on_c, 0, 74, 112
2, 18236, Note_off_c, 0, 74, 100
2, 18432, Note_on_c, 0, 81, 112
2, 18504, Note_off_c, 0, 81, 100
2, 18528, Note_on_c, 0, 78, 112
2, 18600, Note_off_c, 0, 78, 100
2, 18624, Note_on_c, 0, 79, 112
2, 18696, Note_off_c, 0, 79, 100
2, 18720, Note_on_c, 0, 76, 112
2, 18792, Note_off_c, 0, 76, 100
2, 18816, Note_on_c, 0, 78, 112
2, 18888, Note_off_c, 0, 78, 100
2, 18912, Note_on_c, 0, 74, 112
2, 18984, Note_off_c, 0, 74, 100
2, 19008, Note_on_c, 0, 76, 112
2, 19080, Note_off_c, 0, 76, 100
2, 19104, Note_on_c, 0, 72, 112
2, 19176, Note_off_c, 0, 72, 100
2, 19200, Note_on_c, 0, 74, 112
2, 19272, Note_off_c, 0, 74, 100
2, 19296, Note_on_c, 0, 71, 112
2, 19368, Note_off_c, 0, 71, 100
2, 19392, Note_on_c, 0, 72, 112
2, 19464, Note_off_c, 0, 72, 100
2, 19488, Note_on_c, 0, 69, 112
2, 19560, Note_off_c, 0, 69, 100
2, 19584, Note_on_c, 0, 71, 112
2, 19656, Note_off_c, 0, 71, 100
2, 19680, Note_on_c, 0, 67, 112
2, 19752, Note_off_c, 0, 67, 100
2, 19776, Note_on_c, 0, 69, 112
2, 19848, Note_off_c, 0, 69, 100
2, 19872, Note_on_c, 0, 66, 112
2, 19944, Note_off_c, 0, 66, 100
2, 19968, Note_on_c, 0, 67, 112
2, 20040, Note_off_c, 0, 67, 100
2, 20064, Note_on_c, 0, 64, 112
2, 20136, Note_off_c, 0, 64, 100
2, 20160, Note_on_c, 0, 66, 112
2, 20232, Note_off_c, 0, 66, 100
2, 20256, Note_on_c, 0, 63, 112
2, 20328, Note_off_c, 0, 63, 100
2, 20352, Note_on_c, 0, 64, 112
2, 20424, Note_off_c, 0, 64, 100
2, 20448, Note_on_c, 0, 60, 112
2, 20520, Note_off_c, 0, 60, 100
2, 20544, Note_on_c, 0, 62, 112
2, 20616, Note_off_c, 0, 62, 100
2, 20640, Note_on_c, 0, 59, 112
2, 20712, Note_off_c, 0, 59, 100
2, 20736, Note_on_c, 0, 60, 112
2, 20808, Note_off_c, 0, 60, 100
2, 20832, Note_on_c, 0, 57, 112
2, 20904, Note_off_c, 0, 57, 100
2, 20928, Note_on_c, 0, 59, 112
2, 21000, Note_off_c, 0, 59, 100
2, 21024, Note_on_c, 0, 56, 112
2, 21096, Note_off_c, 0, 56, 100
2, 21120, Note_on_c, 0, 57, 112
2, 21192, Note_off_c, 0, 57, 100
2, 21216, Note_on_c, 0, 54, 112
2, 21288, Note_off_c, 0, 54, 100
2, 21312, Note_on_c, 0, 55, 112
2, 21384, Note_off_c, 0, 55, 100
2, 21408, Note_on_c, 0, 52, 112
2, 21480, Note_off_c, 0, 52, 100
2, 21504, Note_on_c, 0, 53, 112
2, 21576, Note_off_c, 0, 53, 100
2, 21600, Note_on_c, 0, 51, 112
2, 21672, Note_off_c, 0, 51, 100
2, 21696, Note_on_c, 0, 52, 112
2, 21768, Note_off_c, 0, 52, 100
2, 21792, Note_on_c, 0, 49, 112
2, 21864, Note_off_c, 0, 49, 100
2, 21888, Note_on_c, 0, 51, 112
2, 21940, Note_off_c, 0, 51, 100
2, 21984, Note_on_c, 0, 49, 112
2, 22036, Note_off_c, 0, 49, 100
2, 22080, Note_on_c, 0, 51, 112
2, 22132, Note_off_c, 0, 51, 100
2, 22176, Note_on_c, 0, 49, 112
2, 22228, Note_off_c, 0, 49, 100
2, 22272, Note_on_c, 0, 51, 112
2, 22652, Note_off_c, 0, 51, 100
2, 22752, Note_on_c, 0, 54, 112
2, 22824, Note_off_c, 0, 54, 100
2, 22848, Note_on_c, 0, 59, 112
2, 22920, Note_off_c, 0, 59, 100
2, 22944, Note_on_c, 0, 57, 112
2, 23016, Note_off_c, 0, 57, 100
2, 23040, Note_on_c, 0, 55, 112
2, 23112, Note_off_c, 0, 55, 100
2, 23136, Note_on_c, 0, 59, 112
2, 23208, Note_off_c, 0, 59, 100
2, 23232, Note_on_c, 0, 57, 112
2, 23304, Note_off_c, 0, 57, 100
2, 23328, Note_on_c, 0, 60, 112
2, 23400, Note_off_c, 0, 60, 100
2, 23424, Note_on_c, 0, 59, 112
2, 23496, Note_off_c, 0, 59, 100
2, 23520, Note_on_c, 0, 63, 112
2, 23592, Note_off_c, 0, 63, 100
2, 23616, Note_on_c, 0, 61, 112
2, 23688, Note_off_c, 0, 61, 100
2, 23712, Note_on_c, 0, 64, 112
2, 23784, Note_off_c, 0, 64, 100
2, 23808, Note_on_c, 0, 63, 112
2, 23880, Note_off_c, 0, 63, 100
2, 23904, Note_on_c, 0, 66, 112
2, 23976, Note_off_c, 0, 66, 100
2, 24000, Note_on_c, 0, 64, 112
2, 24072, Note_off_c, 0, 64, 100
2, 24096, Note_on_c, 0, 67, 112
2, 24168, Note_off_c, 0, 67, 100
2, 24192, Note_on_c, 0, 66, 112
2, 24264, Note_off_c, 0, 66, 100
2, 24288, Note_on_c, 0, 69, 112
2, 24360, Note_off_c, 0, 69, 100
2, 24384, Note_on_c, 0, 67, 112
2, 24456, Note_off_c, 0, 67, 100
2, 24480, Note_on_c, 0, 71, 112
2, 24552, Note_off_c, 0, 71, 100
2, 24576, Note_on_c, 0, 69, 112
2, 24648, Note_off_c, 0, 69, 100
2, 24672, Note_on_c, 0, 72, 112
2, 24744, Note_off_c, 0, 72, 100
2, 24768, Note_on_c, 0, 71, 112
2, 24840, Note_off_c, 0, 71, 100
2, 24864, Note_on_c, 0, 74, 112
2, 24936, Note_off_c, 0, 74, 100
2, 24960, Note_on_c, 0, 72, 112
2, 25032, Note_off_c, 0, 72, 100
2, 25056, Note_on_c, 0, 76, 112
2, 25128, Note_off_c, 0, 76, 100
2, 25152, Note_on_c, 0, 75, 112
2, 25224, Note_off_c, 0, 75, 100
2, 25248, Note_on_c, 0, 78, 112
2, 25320, Note_off_c, 0, 78, 100
2, 25344, Note_on_c, 0, 76, 112
2, 25416, Note_off_c, 0, 76, 100
2, 25440, Note_on_c, 0, 79, 112
2, 25512, Note_off_c, 0, 79, 100
2, 25536, Note_on_c, 0, 78, 112
2, 25608, Note_off_c, 0, 78, 100
2, 25632, Note_on_c, 0, 81, 112
2, 25704, Note_off_c, 0, 81, 100
2, 25728, Note_on_c, 0, 79, 112
2, 25800, Note_off_c, 0, 79, 100
2, 25824, Note_on_c, 0, 83, 112
2, 25896, Note_off_c, 0, 83, 100
2, 25920, Note_on_c, 0, 81, 112
2, 25992, Note_off_c, 0, 81, 100
2, 26016, Note_on_c, 0, 84, 112
2, 26088, Note_off_c, 0, 84, 100
2, 26112, Note_on_c, 0, 83, 112
2, 26184, Note_off_c, 0, 83, 100
2, 26208, Note_on_c, 0, 79, 112
2, 26280, Note_off_c, 0, 79, 100
2, 26304, Note_on_c, 0, 81, 112
2, 26376, Note_off_c, 0, 81, 100
2, 26400, Note_on_c, 0, 78, 112
2, 26472, Note_off_c, 0, 78, 100
2, 26496, Note_on_c, 0, 79, 112
2, 26568, Note_off_c, 0, 79, 100
2, 26592, Note_on_c, 0, 76, 112
2, 26664, Note_off_c, 0, 76, 100
2, 26688, Note_on_c, 0, 78, 112
2, 26760, Note_off_c, 0, 78, 100
2, 26784, Note_on_c, 0, 75, 112
2, 26856, Note_off_c, 0, 75, 100
2, 26880, Note_on_c, 0, 76, 112
2, 26952, Note_off_c, 0, 76, 100
2, 26976, Note_on_c, 0, 72, 112
2, 27048, Note_off_c, 0, 72, 100
2, 27072, Note_on_c, 0, 71, 112
2, 27144, Note_off_c, 0, 71, 100
2, 27168, Note_on_c, 0, 69, 112
2, 27240, Note_off_c, 0, 69, 100
2, 27264, Note_on_c, 0, 67, 112
2, 27336, Note_off_c, 0, 67, 100
2, 27360, Note_on_c, 0, 66, 112
2, 27432, Note_off_c, 0, 66, 100
2, 27456, Note_on_c, 0, 64, 112
2, 27644, Note_off_c, 0, 64, 100
2, 27744, Note_on_c, 0, 76, 112
2, 27816, Note_off_c, 0, 76, 100
2, 27840, Note_on_c, 0, 71, 112
2, 27912, Note_off_c, 0, 71, 100
2, 27936, Note_on_c, 0, 74, 112
2, 28008, Note_off_c, 0, 74, 100
2, 28032, Note_on_c, 0, 72, 112
2, 28104, Note_off_c, 0, 72, 100
2, 28128, Note_on_c, 0, 71, 112
2, 28200, Note_off_c, 0, 71, 100
2, 28224, Note_on_c, 0, 69, 112
2, 28296, Note_off_c, 0, 69, 100
2, 28320, Note_on_c, 0, 72, 112
2, 28392, Note_off_c, 0, 72, 100
2, 28416, Note_on_c, 0, 71, 112
2, 28488, Note_off_c, 0, 71, 100
2, 28512, Note_on_c, 0, 74, 112
2, 28584, Note_off_c, 0, 74, 100
2, 28608, Note_on_c, 0, 72, 112
2, 28680, Note_off_c, 0, 72, 100
2, 28704, Note_on_c, 0, 76, 112
2, 28776, Note_off_c, 0, 76, 100
2, 28800, Note_on_c, 0, 74, 112
2, 28872, Note_off_c, 0, 74, 100
2, 28896, Note_on_c, 0, 71, 112
2, 28968, Note_off_c, 0, 71, 100
2, 28992, Note_on_c, 0, 69, 112
2, 29064, Note_off_c, 0, 69, 100
2, 29088, Note_on_c, 0, 72, 112
2, 29160, Note_off_c, 0, 72, 100
2, 29184, Note_on_c, 0, 71, 112
2, 29256, Note_off_c, 0, 71, 100
2, 29280, Note_on_c, 0, 69, 112
2, 29352, Note_off_c, 0, 69, 100
2, 29376, Note_on_c, 0, 68, 112
2, 29448, Note_off_c, 0, 68, 100
2, 29472, Note_on_c, 0, 71, 112
2, 29544, Note_off_c, 0, 71, 100
2, 29568, Note_on_c, 0, 69, 112
2, 29640, Note_off_c, 0, 69, 100
2, 29664, Note_on_c, 0, 72, 112
2, 29736, Note_off_c, 0, 72, 100
2, 29760, Note_on_c, 0, 71, 112
2, 29832, Note_off_c, 0, 71, 100
2, 29856, Note_on_c, 0, 74, 112
2, 29928, Note_off_c, 0, 74, 100
2, 29952, Note_on_c, 0, 72, 112
2, 30024, Note_off_c, 0, 72, 100
2, 30048, Note_on_c, 0, 69, 112
2, 30120, Note_off_c, 0, 69, 100
2, 30144, Note_on_c, 0, 67, 112
2, 30216, Note_off_c, 0, 67, 100
2, 30240, Note_on_c, 0, 71, 112
2, 30312, Note_off_c, 0, 71, 100
2, 30336, Note_on_c, 0, 69, 112
2, 30408, Note_off_c, 0, 69, 100
2, 30432, Note_on_c, 0, 78, 112
2, 30504, Note_off_c, 0, 78, 100
2, 30528, Note_on_c, 0, 79, 112
2, 30600, Note_off_c, 0, 79, 100
2, 30624, Note_on_c, 0, 76, 112
2, 30696, Note_off_c, 0, 76, 100
2, 30720, Note_on_c, 0, 78, 112
2, 30792, Note_off_c, 0, 78, 100
2, 30816, Note_on_c, 0, 74, 112
2, 30888, Note_off_c, 0, 74, 100
2, 30912, Note_on_c, 0, 76, 112
2, 30984, Note_off_c, 0, 76, 100
2, 31008, Note_on_c, 0, 84, 112
2, 31060, Note_off_c, 0, 84, 100
2, 31104, Note_on_c, 0, 84, 112
2, 31292, Note_off_c, 0, 84, 100
2, 31344, Note_on_c, 0, 83, 112
2, 31388, Note_off_c, 0, 83, 100
2, 31392, Note_on_c, 0, 81, 112
2, 31436, Note_off_c, 0, 81, 100
2, 31440, Note_on_c, 0, 79, 112
2, 31484, Note_off_c, 0, 79, 100
2, 31488, Note_on_c, 0, 78, 112
2, 31552, Note_off_c, 0, 78, 100
2, 31584, Note_on_c, 0, 79, 112
2, 31656, Note_off_c, 0, 79, 100
2, 31680, Note_on_c, 0, 81, 112
2, 31752, Note_off_c, 0, 81, 100
2, 31776, Note_on_c, 0, 78, 112
2, 31848, Note_off_c, 0, 78, 100
2, 31872, Note_on_c, 0, 76, 112
2, 32060, Note_off_c, 0, 76, 100
2, 32064, Note_on_c, 0, 74, 112
2, 32252, Note_off_c, 0, 74, 100
2, 32352, Note_on_c, 0, 71, 112
2, 32444, Note_off_c, 0, 71, 100
2, 32448, Note_on_c, 0, 72, 112
2, 32540, Note_off_c, 0, 72, 100
2, 32544, Note_on_c, 0, 69, 112
2, 32636, Note_off_c, 0, 69, 100
2, 32640, Note_on_c, 0, 71, 112
2, 32732, Note_off_c, 0, 71, 100
2, 32736, Note_on_c, 0, 79, 112
2, 32828, Note_off_c, 0, 79, 100
2, 32832, Note_on_c, 0, 69, 112
2, 32924, Note_off_c, 0, 69, 100
2, 32928, Note_on_c, 0, 77, 112
2, 33020, Note_off_c, 0, 77, 100
2, 33024, Note_on_c, 0, 67, 112
2, 33116, Note_off_c, 0, 67, 100
2, 33120, Note_on_c, 0, 76, 112
2, 33212, Note_off_c, 0, 76, 100
2, 33216, Note_on_c, 0, 65, 112
2, 33308, Note_off_c, 0, 65, 100
2, 33312, Note_on_c, 0, 74, 112
2, 33404, Note_off_c, 0, 74, 100
2, 33408, Note_on_c, 0, 64, 112
2, 33596, Note_off_c, 0, 64, 100
2, 33648, Note_on_c, 0, 67, 112
2, 33692, Note_off_c, 0, 67, 100
2, 33696, Note_on_c, 0, 69, 112
2, 33740, Note_off_c, 0, 69, 100
2, 33744, Note_on_c, 0, 71, 112
2, 33788, Note_off_c, 0, 71, 100
2, 33792, Note_on_c, 0, 72, 112
2, 33856, Note_off_c, 0, 72, 100
2, 33888, Note_on_c, 0, 69, 112
2, 33960, Note_off_c, 0, 69, 100
2, 33984, Note_on_c, 0, 71, 112
2, 34056, Note_off_c, 0, 71, 100
2, 34080, Note_on_c, 0, 67, 112
2, 34152, Note_off_c, 0, 67, 100
2, 34176, Note_on_c, 0, 69, 112
2, 34248, Note_off_c, 0, 69, 100
2, 34272, Note_on_c, 0, 66, 112
2, 34344, Note_off_c, 0, 66, 100
2, 34368, Note_on_c, 0, 67, 112
2, 34440, Note_off_c, 0, 67, 100
2, 34464, Note_on_c, 0, 64, 112
2, 34536, Note_off_c, 0, 64, 100
2, 34560, Note_on_c, 0, 66, 112
2, 34632, Note_off_c, 0, 66, 100
2, 34656, Note_on_c, 0, 76, 112
2, 34728, Note_off_c, 0, 76, 100
2, 34752, Note_on_c, 0, 74, 112
2, 34940, Note_off_c, 0, 74, 100
2, 34992, Note_on_c, 0, 76, 112
2, 35036, Note_off_c, 0, 76, 100
2, 35040, Note_on_c, 0, 78, 112
2, 35084, Note_off_c, 0, 78, 100
2, 35088, Note_on_c, 0, 79, 112
2, 35132, Note_off_c, 0, 79, 100
2, 35136, Note_on_c, 0, 78, 112
2, 35180, Note_off_c, 0, 78, 100
2, 35184, Note_on_c, 0, 76, 112
2, 35228, Note_off_c, 0, 76, 100
2, 35232, Note_on_c, 0, 74, 112
2, 35276, Note_off_c, 0, 74, 100
2, 35280, Note_on_c, 0, 72, 112
2, 35324, Note_off_c, 0, 72, 100
2, 35328, Note_on_c, 0, 71, 112
2, 35392, Note_off_c, 0, 71, 100
2, 35424, Note_on_c, 0, 79, 112
2, 35496, Note_off_c, 0, 79, 100
2, 35520, Note_on_c, 0, 69, 112
2, 35592, Note_off_c, 0, 69, 100
2, 35616, Note_on_c, 0, 78, 112
2, 35688, Note_off_c, 0, 78, 100
2, 35712, Note_on_c, 0, 67, 112
2, 35764, Note_off_c, 0, 67, 100
2, 35808, Note_on_c, 0, 66, 112
2, 35860, Note_off_c, 0, 66, 100
2, 35904, Note_on_c, 0, 67, 112
2, 35956, Note_off_c, 0, 67, 100
2, 36000, Note_on_c, 0, 66, 112
2, 36052, Note_off_c, 0, 66, 100
2, 36096, Note_on_c, 0, 67, 112
2, 36148, Note_off_c, 0, 67, 100
2, 36192, Note_on_c, 0, 71, 112
2, 36284, Note_off_c, 0, 71, 100
2, 36288, Note_on_c, 0, 74, 112
2, 36380, Note_off_c, 0, 74, 100
2, 36384, Note_on_c, 0, 78, 112
2, 36476, Note_off_c, 0, 78, 100
2, 36480, Note_on_c, 0, 79, 112
2, 36668, Note_off_c, 0, 79, 100
2, 36668, End_track
3, 0, Start_track
3, 0, Title_t, "Goldberg Variations"
3, 0, Control_c, 1, 0, 0
3, 0, Program_c, 1, 6
3, 0, Control_c, 1, 7, 127
3, 0, Control_c, 1, 10, 101
3, 0, Control_c, 1, 91, 127
3, 0, Key_signature, 1, "major"
3, 0, Note_on_c, 1, 43, 112
3, 72, Note_off_c, 1, 43, 100
3, 96, Note_on_c, 1, 47, 112
3, 168, Note_off_c, 1, 47, 100
3, 192, Note_on_c, 1, 45, 112
3, 264, Note_off_c, 1, 45, 100
3, 288, Note_on_c, 1, 48, 112
3, 360, Note_off_c, 1, 48, 100
3, 384, Note_on_c, 1, 47, 112
3, 456, Note_off_c, 1, 47, 100
3, 480, Note_on_c, 1, 50, 112
3, 552, Note_off_c, 1, 50, 100
3, 576, Note_on_c, 1, 48, 112
3, 648, Note_off_c, 1, 48, 100
3, 672, Note_on_c, 1, 52, 112
3, 744, Note_off_c, 1, 52, 100
3, 768, Note_on_c, 1, 50, 112
3, 840, Note_off_c, 1, 50, 100
3, 864, Note_on_c, 1, 54, 112
3, 936, Note_off_c, 1, 54, 100
3, 960, Note_on_c, 1, 52, 112
3, 1032, Note_off_c, 1, 52, 100
3, 1056, Note_on_c, 1, 55, 112
3, 1128, Note_off_c, 1, 55, 100
3, 1152, Note_on_c, 1, 54, 112
3, 1224, Note_off_c, 1, 54, 100
3, 1248, Note_on_c, 1, 57, 112
3, 1320, Note_off_c, 1, 57, 100
3, 1344, Note_on_c, 1, 55, 112
3, 1416, Note_off_c, 1, 55, 100
3, 1440, Note_on_c, 1, 59, 112
3, 1512, Note_off_c, 1, 59, 100
3, 1536, Note_on_c, 1, 57, 112
3, 1608, Note_off_c, 1, 57, 100
3, 1632, Note_on_c, 1, 61, 112
3, 1704, Note_off_c, 1, 61, 100
3, 1728, Note_on_c, 1, 59, 112
3, 1800, Note_off_c, 1, 59, 100
3, 1824, Note_on_c, 1, 62, 112
3, 1896, Note_off_c, 1, 62, 100
3, 1920, Note_on_c, 1, 61, 112
3, 1992, Note_off_c, 1, 61, 100
3, 2016, Note_on_c, 1, 64, 112
3, 2088, Note_off_c, 1, 64, 100
3, 2112, Note_on_c, 1, 62, 112
3, 2184, Note_off_c, 1, 62, 100
3, 2208, Note_on_c, 1, 66, 112
3, 2280, Note_off_c, 1, 66, 100
3, 2304, Note_on_c, 1, 64, 112
3, 2376, Note_off_c, 1, 64, 100
3, 2400, Note_on_c, 1, 67, 112
3, 2472, Note_off_c, 1, 67, 100
3, 2496, Note_on_c, 1, 66, 112
3, 2568, Note_off_c, 1, 66, 100
3, 2592, Note_on_c, 1, 69, 112
3, 2664, Note_off_c, 1, 69, 100
3, 2688, Note_on_c, 1, 67, 112
3, 2760, Note_off_c, 1, 67, 100
3, 2784, Note_on_c, 1, 71, 112
3, 2856, Note_off_c, 1, 71, 100
3, 2880, Note_on_c, 1, 69, 112
3, 2952, Note_off_c, 1, 69, 100
3, 2976, Note_on_c, 1, 73, 112
3, 3048, Note_off_c, 1, 73, 100
3, 3072, Note_on_c, 1, 71, 112
3, 3144, Note_off_c, 1, 71, 100
3, 3168, Note_on_c, 1, 74, 112
3, 3240, Note_off_c, 1, 74, 100
3, 3264, Note_on_c, 1, 73, 112
3, 3336, Note_off_c, 1, 73, 100
3, 3360, Note_on_c, 1, 76, 112
3, 3432, Note_off_c, 1, 76, 100
3, 3456, Note_on_c, 1, 74, 112
3, 3508, Note_off_c, 1, 74, 100
3, 3552, Note_on_c, 1, 73, 112
3, 3604, Note_off_c, 1, 73, 100
3, 3648, Note_on_c, 1, 74, 112
3, 3700, Note_off_c, 1, 74, 100
3, 3744, Note_on_c, 1, 73, 112
3, 3796, Note_off_c, 1, 73, 100
3, 3840, Note_on_c, 1, 74, 112
3, 4604, Note_off_c, 1, 74, 100
3, 4704, Note_on_c, 1, 71, 112
3, 4756, Note_off_c, 1, 71, 100
3, 4800, Note_on_c, 1, 72, 112
3, 4852, Note_off_c, 1, 72, 100
3, 4896, Note_on_c, 1, 69, 112
3, 4948, Note_off_c, 1, 69, 100
3, 4992, Note_on_c, 1, 71, 112
3, 5044, Note_off_c, 1, 71, 100
3, 5088, Note_on_c, 1, 67, 112
3, 5140, Note_off_c, 1, 67, 100
3, 5184, Note_on_c, 1, 69, 112
3, 5236, Note_off_c, 1, 69, 100
3, 5280, Note_on_c, 1, 65, 112
3, 5332, Note_off_c, 1, 65, 100
3, 5376, Note_on_c, 1, 67, 112
3, 5428, Note_off_c, 1, 67, 100
3, 5472, Note_on_c, 1, 64, 112
3, 5524, Note_off_c, 1, 64, 100
3, 5568, Note_on_c, 1, 65, 112
3, 5620, Note_off_c, 1, 65, 100
3, 5664, Note_on_c, 1, 62, 112
3, 5716, Note_off_c, 1, 62, 100
3, 5760, Note_on_c, 1, 64, 112
3, 5812, Note_off_c, 1, 64, 100
3, 5856, Note_on_c, 1, 60, 112
3, 5908, Note_off_c, 1, 60, 100
3, 5952, Note_on_c, 1, 62, 112
3, 6004, Note_off_c, 1, 62, 100
3, 6048, Note_on_c, 1, 59, 112
3, 6100, Note_off_c, 1, 59, 100
3, 6144, Note_on_c, 1, 60, 112
3, 6196, Note_off_c, 1, 60, 100
3, 6240, Note_on_c, 1, 57, 112
3, 6292, Note_off_c, 1, 57, 100
3, 6336, Note_on_c, 1, 59, 112
3, 6388, Note_off_c, 1, 59, 100
3, 6432, Note_on_c, 1, 55, 112
3, 6484, Note_off_c, 1, 55, 100
3, 6528, Note_on_c, 1, 57, 112
3, 6580, Note_off_c, 1, 57, 100
3, 6624, Note_on_c, 1, 54, 112
3, 6676, Note_off_c, 1, 54, 100
3, 6720, Note_on_c, 1, 55, 112
3, 6772, Note_off_c, 1, 55, 100
3, 6816, Note_on_c, 1, 52, 112
3, 6868, Note_off_c, 1, 52, 100
3, 6912, Note_on_c, 1, 54, 112
3, 6964, Note_off_c, 1, 54, 100
3, 7008, Note_on_c, 1, 50, 112
3, 7060, Note_off_c, 1, 50, 100
3, 7104, Note_on_c, 1, 52, 112
3, 7156, Note_off_c, 1, 52, 100
3, 7200, Note_on_c, 1, 48, 112
3, 7252, Note_off_c, 1, 48, 100
3, 7296, Note_on_c, 1, 50, 112
3, 7348, Note_off_c, 1, 50, 100
3, 7392, Note_on_c, 1, 47, 112
3, 7444, Note_off_c, 1, 47, 100
3, 7488, Note_on_c, 1, 48, 112
3, 7540, Note_off_c, 1, 48, 100
3, 7584, Note_on_c, 1, 45, 112
3, 7636, Note_off_c, 1, 45, 100
3, 7680, Note_on_c, 1, 47, 112
3, 7732, Note_off_c, 1, 47, 100
3, 7776, Note_on_c, 1, 43, 112
3, 7828, Note_off_c, 1, 43, 100
3, 7872, Note_on_c, 1, 45, 112
3, 7924, Note_off_c, 1, 45, 100
3, 7968, Note_on_c, 1, 42, 112
3, 8020, Note_off_c, 1, 42, 100
3, 8064, Note_on_c, 1, 43, 112
3, 8116, Note_off_c, 1, 43, 100
3, 8160, Note_on_c, 1, 42, 112
3, 8212, Note_off_c, 1, 42, 100
3, 8256, Note_on_c, 1, 43, 112
3, 8308, Note_off_c, 1, 43, 100
3, 8352, Note_on_c, 1, 42, 112
3, 8404, Note_off_c, 1, 42, 100
3, 8448, Note_on_c, 1, 43, 112
3, 8828, Note_off_c, 1, 43, 100
3, 8928, Note_on_c, 1, 50, 112
3, 9000, Note_off_c, 1, 50, 100
3, 9024, Note_on_c, 1, 55, 112
3, 9096, Note_off_c, 1, 55, 100
3, 9120, Note_on_c, 1, 54, 112
3, 9192, Note_off_c, 1, 54, 100
3, 9216, Note_on_c, 1, 55, 112
3, 9288, Note_off_c, 1, 55, 100
3, 9312, Note_on_c, 1, 59, 112
3, 9384, Note_off_c, 1, 59, 100
3, 9408, Note_on_c, 1, 62, 112
3, 9480, Note_off_c, 1, 62, 100
3, 9504, Note_on_c, 1, 66, 112
3, 9576, Note_off_c, 1, 66, 100
3, 9600, Note_on_c, 1, 67, 112
3, 9820, Note_off_c, 1, 67, 100
3, 9888, Note_on_c, 1, 69, 112
3, 9960, Note_off_c, 1, 69, 100
3, 9984, Note_on_c, 1, 71, 112
3, 10056, Note_off_c, 1, 71, 100
3, 10080, Note_on_c, 1, 73, 112
3, 10152, Note_off_c, 1, 73, 100
3, 10176, Note_on_c, 1, 74, 112
3, 10248, Note_off_c, 1, 74, 100
3, 10272, Note_on_c, 1, 71, 112
3, 10344, Note_off_c, 1, 71, 100
3, 10368, Note_on_c, 1, 73, 112
3, 10440, Note_off_c, 1, 73, 100
3, 10464, Note_on_c, 1, 71, 112
3, 10536, Note_off_c, 1, 71, 100
3, 10560, Note_on_c, 1, 69, 112
3, 10632, Note_off_c, 1, 69, 100
3, 10656, Note_on_c, 1, 67, 112
3, 10728, Note_off_c, 1, 67, 100
3, 10752, Note_on_c, 1, 66, 112
3, 10824, Note_off_c, 1, 66, 100
3, 10848, Note_on_c, 1, 64, 112
3, 10920, Note_off_c, 1, 64, 100
3, 10944, Note_on_c, 1, 63, 112
3, 11016, Note_off_c, 1, 63, 100
3, 11040, Note_on_c, 1, 61, 112
3, 11112, Note_off_c, 1, 61, 100
3, 11136, Note_on_c, 1, 59, 112
3, 11208, Note_off_c, 1, 59, 100
3, 11232, Note_on_c, 1, 57, 112
3, 11304, Note_off_c, 1, 57, 100
3, 11328, Note_on_c, 1, 55, 112
3, 11400, Note_off_c, 1, 55, 100
3, 11424, Note_on_c, 1, 54, 112
3, 11496, Note_off_c, 1, 54, 100
3, 11520, Note_on_c, 1, 52, 112
3, 11592, Note_off_c, 1, 52, 100
3, 11616, Note_on_c, 1, 55, 112
3, 11688, Note_off_c, 1, 55, 100
3, 11712, Note_on_c, 1, 59, 112
3, 11784, Note_off_c, 1, 59, 100
3, 11808, Note_on_c, 1, 63, 112
3, 11880, Note_off_c, 1, 63, 100
3, 11904, Note_on_c, 1, 64, 112
3, 12124, Note_off_c, 1, 64, 100
3, 12192, Note_on_c, 1, 66, 112
3, 12264, Note_off_c, 1, 66, 100
3, 12288, Note_on_c, 1, 67, 112
3, 12360, Note_off_c, 1, 67, 100
3, 12384, Note_on_c, 1, 69, 112
3, 12456, Note_off_c, 1, 69, 100
3, 12480, Note_on_c, 1, 71, 112
3, 12552, Note_off_c, 1, 71, 100
3, 12576, Note_on_c, 1, 67, 112
3, 12648, Note_off_c, 1, 67, 100
3, 12672, Note_on_c, 1, 69, 112
3, 12744, Note_off_c, 1, 69, 100
3, 12768, Note_on_c, 1, 62, 112
3, 12840, Note_off_c, 1, 62, 100
3, 12864, Note_on_c, 1, 61, 112
3, 12936, Note_off_c, 1, 61, 100
3, 12960, Note_on_c, 1, 59, 112
3, 13032, Note_off_c, 1, 59, 100
3, 13056, Note_on_c, 1, 61, 112
3, 13128, Note_off_c, 1, 61, 100
3, 13152, Note_on_c, 1, 64, 112
3, 13224, Note_off_c, 1, 64, 100
3, 13248, Note_on_c, 1, 69, 112
3, 13320, Note_off_c, 1, 69, 100
3, 13344, Note_on_c, 1, 71, 112
3, 13416, Note_off_c, 1, 71, 100
3, 13440, Note_on_c, 1, 73, 112
3, 13512, Note_off_c, 1, 73, 100
3, 13536, Note_on_c, 1, 76, 112
3, 13608, Note_off_c, 1, 76, 100
3, 13632, Note_on_c, 1, 79, 112
3, 13704, Note_off_c, 1, 79, 100
3, 13728, Note_on_c, 1, 71, 112
3, 13800, Note_off_c, 1, 71, 100
3, 13824, Note_on_c, 1, 69, 112
3, 13876, Note_off_c, 1, 69, 100
3, 13920, Note_on_c, 1, 78, 112
3, 13972, Note_off_c, 1, 78, 100
3, 14016, Note_on_c, 1, 67, 112
3, 14068, Note_off_c, 1, 67, 100
3, 14112, Note_on_c, 1, 76, 112
3, 14164, Note_off_c, 1, 76, 100
3, 14208, Note_on_c, 1, 66, 112
3, 14260, Note_off_c, 1, 66, 100
3, 14304, Note_on_c, 1, 74, 112
3, 14356, Note_off_c, 1, 74, 100
3, 14400, Note_on_c, 1, 64, 112
3, 14452, Note_off_c, 1, 64, 100
3, 14496, Note_on_c, 1, 72, 112
3, 14548, Note_off_c, 1, 72, 100
3, 14592, Note_on_c, 1, 62, 112
3, 14644, Note_off_c, 1, 62, 100
3, 14688, Note_on_c, 1, 71, 112
3, 14740, Note_off_c, 1, 71, 100
3, 14784, Note_on_c, 1, 60, 112
3, 14836, Note_off_c, 1, 60, 100
3, 14880, Note_on_c, 1, 69, 112
3, 14932, Note_off_c, 1, 69, 100
3, 14976, Note_on_c, 1, 59, 112
3, 15028, Note_off_c, 1, 59, 100
3, 15072, Note_on_c, 1, 67, 112
3, 15124, Note_off_c, 1, 67, 100
3, 15168, Note_on_c, 1, 57, 112
3, 15220, Note_off_c, 1, 57, 100
3, 15264, Note_on_c, 1, 66, 112
3, 15316, Note_off_c, 1, 66, 100
3, 15360, Note_on_c, 1, 55, 112
3, 15412, Note_off_c, 1, 55, 100
3, 15456, Note_on_c, 1, 64, 112
3, 15508, Note_off_c, 1, 64, 100
3, 15552, Note_on_c, 1, 54, 112
3, 15604, Note_off_c, 1, 54, 100
3, 15648, Note_on_c, 1, 62, 112
3, 15700, Note_off_c, 1, 62, 100
3, 15744, Note_on_c, 1, 52, 112
3, 15796, Note_off_c, 1, 52, 100
3, 15840, Note_on_c, 1, 61, 112
3, 15892, Note_off_c, 1, 61, 100
3, 15936, Note_on_c, 1, 50, 112
3, 15988, Note_off_c, 1, 50, 100
3, 16032, Note_on_c, 1, 59, 112
3, 16084, Note_off_c, 1, 59, 100
3, 16128, Note_on_c, 1, 49, 112
3, 16180, Note_off_c, 1, 49, 100
3, 16224, Note_on_c, 1, 57, 112
3, 16276, Note_off_c, 1, 57, 100
3, 16320, Note_on_c, 1, 47, 112
3, 16372, Note_off_c, 1, 47, 100
3, 16416, Note_on_c, 1, 55, 112
3, 16468, Note_off_c, 1, 55, 100
3, 16512, Note_on_c, 1, 45, 112
3, 16584, Note_off_c, 1, 45, 100
3, 16608, Note_on_c, 1, 54, 112
3, 16680, Note_off_c, 1, 54, 100
3, 16704, Note_on_c, 1, 43, 112
3, 16776, Note_off_c, 1, 43, 100
3, 16800, Note_on_c, 1, 52, 112
3, 16872, Note_off_c, 1, 52, 100
3, 16896, Note_on_c, 1, 42, 112
3, 16968, Note_off_c, 1, 42, 100
3, 16992, Note_on_c, 1, 50, 112
3, 17064, Note_off_c, 1, 50, 100
3, 17088, Note_on_c, 1, 40, 112
3, 17160, Note_off_c, 1, 40, 100
3, 17184, Note_on_c, 1, 49, 112
3, 17256, Note_off_c, 1, 49, 100
3, 17280, Note_on_c, 1, 50, 112
3, 17332, Note_off_c, 1, 50, 100
3, 17376, Note_on_c, 1, 49, 112
3, 17428, Note_off_c, 1, 49, 100
3, 17472, Note_on_c, 1, 50, 112
3, 17524, Note_off_c, 1, 50, 100
3, 17568, Note_on_c, 1, 49, 112
3, 17620, Note_off_c, 1, 49, 100
3, 17664, Note_on_c, 1, 50, 112
3, 17716, Note_off_c, 1, 50, 100
3, 17760, Note_on_c, 1, 45, 112
3, 17852, Note_off_c, 1, 45, 100
3, 17856, Note_on_c, 1, 42, 112
3, 17948, Note_off_c, 1, 42, 100
3, 17952, Note_on_c, 1, 45, 112
3, 18044, Note_off_c, 1, 45, 100
3, 18048, Note_on_c, 1, 38, 112
3, 18236, Note_off_c, 1, 38, 100
3, 18432, Note_on_c, 1, 38, 112
3, 18504, Note_off_c, 1, 38, 100
3, 18528, Note_on_c, 1, 42, 112
3, 18600, Note_off_c, 1, 42, 100
3, 18624, Note_on_c, 1, 45, 112
3, 18696, Note_off_c, 1, 45, 100
3, 18720, Note_on_c, 1, 49, 112
3, 18792, Note_off_c, 1, 49, 100
3, 18816, Note_on_c, 1, 50, 112
3, 19036, Note_off_c, 1, 50, 100
3, 19104, Note_on_c, 1, 52, 112
3, 19176, Note_off_c, 1, 52, 100
3, 19200, Note_on_c, 1, 54, 112
3, 19272, Note_off_c, 1, 54, 100
3, 19296, Note_on_c, 1, 55, 112
3, 19368, Note_off_c, 1, 55, 100
3, 19392, Note_on_c, 1, 57, 112
3, 19464, Note_off_c, 1, 57, 100
3, 19488, Note_on_c, 1, 54, 112
3, 19560, Note_off_c, 1, 54, 100
3, 19584, Note_on_c, 1, 55, 112
3, 19656, Note_off_c, 1, 55, 100
3, 19680, Note_on_c, 1, 47, 112
3, 19752, Note_off_c, 1, 47, 100
3, 19776, Note_on_c, 1, 48, 112
3, 19848, Note_off_c, 1, 48, 100
3, 19872, Note_on_c, 1, 50, 112
3, 19944, Note_off_c, 1, 50, 100
3, 19968, Note_on_c, 1, 43, 112
3, 20188, Note_off_c, 1, 43, 100
3, 20256, Note_on_c, 1, 54, 112
3, 20328, Note_off_c, 1, 54, 100
3, 20352, Note_on_c, 1, 55, 112
3, 20424, Note_off_c, 1, 55, 100
3, 20448, Note_on_c, 1, 57, 112
3, 20520, Note_off_c, 1, 57, 100
3, 20544, Note_on_c, 1, 59, 112
3, 20616, Note_off_c, 1, 59, 100
3, 20640, Note_on_c, 1, 56, 112
3, 20712, Note_off_c, 1, 56, 100
3, 20736, Note_on_c, 1, 57, 112
3, 20808, Note_off_c, 1, 57, 100
3, 20832, Note_on_c, 1, 48, 112
3, 20904, Note_off_c, 1, 48, 100
3, 20928, Note_on_c, 1, 50, 112
3, 21000, Note_off_c, 1, 50, 100
3, 21024, Note_on_c, 1, 52, 112
3, 21096, Note_off_c, 1, 52, 100
3, 21120, Note_on_c, 1, 45, 112
3, 21340, Note_off_c, 1, 45, 100
3, 21408, Note_on_c, 1, 56, 112
3, 21480, Note_off_c, 1, 56, 100
3, 21504, Note_on_c, 1, 57, 112
3, 21576, Note_off_c, 1, 57, 100
3, 21600, Note_on_c, 1, 59, 112
3, 21672, Note_off_c, 1, 59, 100
3, 21696, Note_on_c, 1, 60, 112
3, 21768, Note_off_c, 1, 60, 100
3, 21792, Note_on_c, 1, 58, 112
3, 21864, Note_off_c, 1, 58, 100
3, 21888, Note_on_c, 1, 59, 112
3, 21940, Note_off_c, 1, 59, 100
3, 21984, Note_on_c, 1, 58, 112
3, 22036, Note_off_c, 1, 58, 100
3, 22080, Note_on_c, 1, 59, 112
3, 22132, Note_off_c, 1, 59, 100
3, 22176, Note_on_c, 1, 58, 112
3, 22228, Note_off_c, 1, 58, 100
3, 22272, Note_on_c, 1, 59, 112
3, 22324, Note_off_c, 1, 59, 100
3, 22368, Note_on_c, 1, 54, 112
3, 22440, Note_off_c, 1, 54, 100
3, 22464, Note_on_c, 1, 55, 112
3, 22536, Note_off_c, 1, 55, 100
3, 22560, Note_on_c, 1, 57, 112
3, 22632, Note_off_c, 1, 57, 100
3, 22656, Note_on_c, 1, 47, 112
3, 22716, Note_off_c, 1, 47, 100
3, 22848, Note_on_c, 1, 64, 112
3, 22892, Note_off_c, 1, 64, 100
3, 22896, Note_on_c, 1, 63, 112
3, 22940, Note_off_c, 1, 63, 100
3, 22944, Note_on_c, 1, 61, 112
3, 22988, Note_off_c, 1, 61, 100
3, 22992, Note_on_c, 1, 63, 112
3, 23036, Note_off_c, 1, 63, 100
3, 23040, Note_on_c, 1, 64, 112
3, 23104, Note_off_c, 1, 64, 100
3, 23136, Note_on_c, 1, 67, 112
3, 23208, Note_off_c, 1, 67, 100
3, 23232, Note_on_c, 1, 66, 112
3, 23304, Note_off_c, 1, 66, 100
3, 23328, Note_on_c, 1, 69, 112
3, 23400, Note_off_c, 1, 69, 100
3, 23424, Note_on_c, 1, 67, 112
3, 23496, Note_off_c, 1, 67, 100
3, 23520, Note_on_c, 1, 66, 112
3, 23592, Note_off_c, 1, 66, 100
3, 23616, Note_on_c, 1, 64, 112
3, 23688, Note_off_c, 1, 64, 100
3, 23712, Note_on_c, 1, 67, 112
3, 23784, Note_off_c, 1, 67, 100
3, 23808, Note_on_c, 1, 66, 112
3, 23880, Note_off_c, 1, 66, 100
3, 23904, Note_on_c, 1, 63, 112
3, 23976, Note_off_c, 1, 63, 100
3, 24000, Note_on_c, 1, 64, 112
3, 24072, Note_off_c, 1, 64, 100
3, 24096, Note_on_c, 1, 61, 112
3, 24168, Note_off_c, 1, 61, 100
3, 24192, Note_on_c, 1, 63, 112
3, 24264, Note_off_c, 1, 63, 100
3, 24288, Note_on_c, 1, 61, 112
3, 24360, Note_off_c, 1, 61, 100
3, 24384, Note_on_c, 1, 59, 112
3, 24456, Note_off_c, 1, 59, 100
3, 24480, Note_on_c, 1, 62, 112
3, 24552, Note_off_c, 1, 62, 100
3, 24576, Note_on_c, 1, 60, 112
3, 24648, Note_off_c, 1, 60, 100
3, 24672, Note_on_c, 1, 57, 112
3, 24744, Note_off_c, 1, 57, 100
3, 24768, Note_on_c, 1, 59, 112
3, 24840, Note_off_c, 1, 59, 100
3, 24864, Note_on_c, 1, 56, 112
3, 24936, Note_off_c, 1, 56, 100
3, 24960, Note_on_c, 1, 57, 112
3, 25032, Note_off_c, 1, 57, 100
3, 25056, Note_on_c, 1, 55, 112
3, 25128, Note_off_c, 1, 55, 100
3, 25152, Note_on_c, 1, 54, 112
3, 25224, Note_off_c, 1, 54, 100
3, 25248, Note_on_c, 1, 57, 112
3, 25320, Note_off_c, 1, 57, 100
3, 25344, Note_on_c, 1, 55, 112
3, 25416, Note_off_c, 1, 55, 100
3, 25440, Note_on_c, 1, 52, 112
3, 25512, Note_off_c, 1, 52, 100
3, 25536, Note_on_c, 1, 54, 112
3, 25608, Note_off_c, 1, 54, 100
3, 25632, Note_on_c, 1, 51, 112
3, 25704, Note_off_c, 1, 51, 100
3, 25728, Note_on_c, 1, 52, 112
3, 25800, Note_off_c, 1, 52, 100
3, 25824, Note_on_c, 1, 51, 112
3, 25896, Note_off_c, 1, 51, 100
3, 25920, Note_on_c, 1, 49, 112
3, 25992, Note_off_c, 1, 49, 100
3, 26016, Note_on_c, 1, 52, 112
3, 26088, Note_off_c, 1, 52, 100
3, 26112, Note_on_c, 1, 51, 112
3, 26184, Note_off_c, 1, 51, 100
3, 26208, Note_on_c, 1, 52, 112
3, 26280, Note_off_c, 1, 52, 100
3, 26304, Note_on_c, 1, 54, 112
3, 26376, Note_off_c, 1, 54, 100
3, 26400, Note_on_c, 1, 51, 112
3, 26472, Note_off_c, 1, 51, 100
3, 26496, Note_on_c, 1, 52, 112
3, 26568, Note_off_c, 1, 52, 100
3, 26592, Note_on_c, 1, 43, 112
3, 26664, Note_off_c, 1, 43, 100
3, 26688, Note_on_c, 1, 45, 112
3, 26760, Note_off_c, 1, 45, 100
3, 26784, Note_on_c, 1, 47, 112
3, 26856, Note_off_c, 1, 47, 100
3, 26880, Note_on_c, 1, 40, 112
3, 26952, Note_off_c, 1, 40, 100
3, 26976, Note_on_c, 1, 42, 112
3, 27048, Note_off_c, 1, 42, 100
3, 27072, Note_on_c, 1, 43, 112
3, 27144, Note_off_c, 1, 43, 100
3, 27168, Note_on_c, 1, 45, 112
3, 27240, Note_off_c, 1, 45, 100
3, 27264, Note_on_c, 1, 47, 112
3, 27336, Note_off_c, 1, 47, 100
3, 27360, Note_on_c, 1, 48, 112
3, 27432, Note_off_c, 1, 48, 100
3, 27456, Note_on_c, 1, 50, 112
3, 27528, Note_off_c, 1, 50, 100
3, 27552, Note_on_c, 1, 47, 112
3, 27624, Note_off_c, 1, 47, 100
3, 27648, Note_on_c, 1, 48, 112
3, 27720, Note_off_c, 1, 48, 100
3, 27744, Note_on_c, 1, 52, 112
3, 27816, Note_off_c, 1, 52, 100
3, 27840, Note_on_c, 1, 50, 112
3, 27912, Note_off_c, 1, 50, 100
3, 27936, Note_on_c, 1, 53, 112
3, 28008, Note_off_c, 1, 53, 100
3, 28032, Note_on_c, 1, 52, 112
3, 28104, Note_off_c, 1, 52, 100
3, 28128, Note_on_c, 1, 55, 112
3, 28200, Note_off_c, 1, 55, 100
3, 28224, Note_on_c, 1, 54, 112
3, 28296, Note_off_c, 1, 54, 100
3, 28320, Note_on_c, 1, 57, 112
3, 28392, Note_off_c, 1, 57, 100
3, 28416, Note_on_c, 1, 56, 112
3, 28488, Note_off_c, 1, 56, 100
3, 28512, Note_on_c, 1, 59, 112
3, 28584, Note_off_c, 1, 59, 100
3, 28608, Note_on_c, 1, 57, 112
3, 28680, Note_off_c, 1, 57, 100
3, 28704, Note_on_c, 1, 60, 112
3, 28776, Note_off_c, 1, 60, 100
3, 28800, Note_on_c, 1, 59, 112
3, 28872, Note_off_c, 1, 59, 100
3, 28896, Note_on_c, 1, 62, 112
3, 28968, Note_off_c, 1, 62, 100
3, 28992, Note_on_c, 1, 60, 112
3, 29064, Note_off_c, 1, 60, 100
3, 29088, Note_on_c, 1, 64, 112
3, 29160, Note_off_c, 1, 64, 100
3, 29184, Note_on_c, 1, 62, 112
3, 29256, Note_off_c, 1, 62, 100
3, 29280, Note_on_c, 1, 65, 112
3, 29352, Note_off_c, 1, 65, 100
3, 29376, Note_on_c, 1, 64, 112
3, 29448, Note_off_c, 1, 64, 100
3, 29472, Note_on_c, 1, 68, 112
3, 29544, Note_off_c, 1, 68, 100
3, 29568, Note_on_c, 1, 66, 112
3, 29640, Note_off_c, 1, 66, 100
3, 29664, Note_on_c, 1, 69, 112
3, 29736, Note_off_c, 1, 69, 100
3, 29760, Note_on_c, 1, 68, 112
3, 29832, Note_off_c, 1, 68, 100
3, 29856, Note_on_c, 1, 71, 112
3, 29928, Note_off_c, 1, 71, 100
3, 29952, Note_on_c, 1, 69, 112
3, 30024, Note_off_c, 1, 69, 100
3, 30048, Note_on_c, 1, 72, 112
3, 30120, Note_off_c, 1, 72, 100
3, 30144, Note_on_c, 1, 71, 112
3, 30216, Note_off_c, 1, 71, 100
3, 30240, Note_on_c, 1, 74, 112
3, 30312, Note_off_c, 1, 74, 100
3, 30336, Note_on_c, 1, 72, 112
3, 30408, Note_off_c, 1, 72, 100
3, 30432, Note_on_c, 1, 69, 112
3, 30504, Note_off_c, 1, 69, 100
3, 30528, Note_on_c, 1, 71, 112
3, 30600, Note_off_c, 1, 71, 100
3, 30624, Note_on_c, 1, 67, 112
3, 30696, Note_off_c, 1, 67, 100
3, 30720, Note_on_c, 1, 69, 112
3, 30792, Note_off_c, 1, 69, 100
3, 30816, Note_on_c, 1, 66, 112
3, 30888, Note_off_c, 1, 66, 100
3, 30912, Note_on_c, 1, 67, 112
3, 30984, Note_off_c, 1, 67, 100
3, 31008, Note_on_c, 1, 64, 112
3, 31080, Note_off_c, 1, 64, 100
3, 31104, Note_on_c, 1, 66, 112
3, 31176, Note_off_c, 1, 66, 100
3, 31200, Note_on_c, 1, 62, 112
3, 31272, Note_off_c, 1, 62, 100
3, 31296, Note_on_c, 1, 64, 112
3, 31368, Note_off_c, 1, 64, 100
3, 31392, Note_on_c, 1, 61, 112
3, 31464, Note_off_c, 1, 61, 100
3, 31488, Note_on_c, 1, 62, 112
3, 31560, Note_off_c, 1, 62, 100
3, 31584, Note_on_c, 1, 71, 112
3, 31656, Note_off_c, 1, 71, 100
3, 31680, Note_on_c, 1, 60, 112
3, 31752, Note_off_c, 1, 60, 100
3, 31776, Note_on_c, 1, 69, 112
3, 31848, Note_off_c, 1, 69, 100
3, 31872, Note_on_c, 1, 59, 112
3, 31944, Note_off_c, 1, 59, 100
3, 31968, Note_on_c, 1, 67, 112
3, 32040, Note_off_c, 1, 67, 100
3, 32064, Note_on_c, 1, 57, 112
3, 32136, Note_off_c, 1, 57, 100
3, 32160, Note_on_c, 1, 66, 112
3, 32232, Note_off_c, 1, 66, 100
3, 32256, Note_on_c, 1, 59, 112
3, 32444, Note_off_c, 1, 59, 100
3, 32496, Note_on_c, 1, 62, 112
3, 32540, Note_off_c, 1, 62, 100
3, 32544, Note_on_c, 1, 64, 112
3, 32588, Note_off_c, 1, 64, 100
3, 32592, Note_on_c, 1, 66, 112
3, 32636, Note_off_c, 1, 66, 100
3, 32640, Note_on_c, 1, 67, 112
3, 32704, Note_off_c, 1, 67, 100
3, 32736, Note_on_c, 1, 64, 112
3, 32808, Note_off_c, 1, 64, 100
3, 32832, Note_on_c, 1, 65, 112
3, 32904, Note_off_c, 1, 65, 100
3, 32928, Note_on_c, 1, 62, 112
3, 33000, Note_off_c, 1, 62, 100
3, 33024, Note_on_c, 1, 64, 112
3, 33096, Note_off_c, 1, 64, 100
3, 33120, Note_on_c, 1, 60, 112
3, 33192, Note_off_c, 1, 60, 100
3, 33216, Note_on_c, 1, 62, 112
3, 33288, Note_off_c, 1, 62, 100
3, 33312, Note_on_c, 1, 59, 112
3, 33384, Note_off_c, 1, 59, 100
3, 33408, Note_on_c, 1, 55, 112
3, 33480, Note_off_c, 1, 55, 100
3, 33504, Note_on_c, 1, 52, 112
3, 33576, Note_off_c, 1, 52, 100
3, 33600, Note_on_c, 1, 53, 112
3, 33672, Note_off_c, 1, 53, 100
3, 33696, Note_on_c, 1, 50, 112
3, 33768, Note_off_c, 1, 50, 100
3, 33792, Note_on_c, 1, 52, 112
3, 33864, Note_off_c, 1, 52, 100
3, 33888, Note_on_c, 1, 60, 112
3, 33960, Note_off_c, 1, 60, 100
3, 33984, Note_on_c, 1, 50, 112
3, 34056, Note_off_c, 1, 50, 100
3, 34080, Note_on_c, 1, 59, 112
3, 34152, Note_off_c, 1, 59, 100
3, 34176, Note_on_c, 1, 48, 112
3, 34248, Note_off_c, 1, 48, 100
3, 34272, Note_on_c, 1, 57, 112
3, 34344, Note_off_c, 1, 57, 100
3, 34368, Note_on_c, 1, 47, 112
3, 34440, Note_off_c, 1, 47, 100
3, 34464, Note_on_c, 1, 55, 112
3, 34536, Note_off_c, 1, 55, 100
3, 34560, Note_on_c, 1, 45, 112
3, 34632, Note_off_c, 1, 45, 100
3, 34656, Note_on_c, 1, 55, 112
3, 34728, Note_off_c, 1, 55, 100
3, 34752, Note_on_c, 1, 54, 112
3, 34824, Note_off_c, 1, 54, 100
3, 34848, Note_on_c, 1, 48, 112
3, 34920, Note_off_c, 1, 48, 100
3, 34944, Note_on_c, 1, 47, 112
3, 35016, Note_off_c, 1, 47, 100
3, 35040, Note_on_c, 1, 50, 112
3, 35112, Note_off_c, 1, 50, 100
3, 35136, Note_on_c, 1, 55, 112
3, 35208, Note_off_c, 1, 55, 100
3, 35232, Note_on_c, 1, 59, 112
3, 35304, Note_off_c, 1, 59, 100
3, 35328, Note_on_c, 1, 62, 112
3, 35400, Note_off_c, 1, 62, 100
3, 35424, Note_on_c, 1, 59, 112
3, 35496, Note_off_c, 1, 59, 100
3, 35520, Note_on_c, 1, 60, 112
3, 35592, Note_off_c, 1, 60, 100
3, 35616, Note_on_c, 1, 57, 112
3, 35680, Note_off_c, 1, 57, 100
3, 35712, Note_on_c, 1, 59, 112
3, 35764, Note_off_c, 1, 59, 100
3, 35808, Note_on_c, 1, 57, 112
3, 35860, Note_off_c, 1, 57, 100
3, 35904, Note_on_c, 1, 59, 112
3, 35956, Note_off_c, 1, 59, 100
3, 36000, Note_on_c, 1, 57, 112
3, 36052, Note_off_c, 1, 57, 100
3, 36096, Note_on_c, 1, 59, 112
3, 36148, Note_off_c, 1, 59, 100
3, 36192, Note_on_c, 1, 55, 112
3, 36284, Note_off_c, 1, 55, 100
3, 36288, Note_on_c, 1, 50, 112
3, 36380, Note_off_c, 1, 50, 100
3, 36384, Note_on_c, 1, 47, 112
3, 36476, Note_off_c, 1, 47, 100
3, 36480, Note_on_c, 1, 43, 112
3, 36480, Note_on_c, 1, 43, 1
3, 36668, Note_off_c, 1, 43, 100
3, 36864, Note_off_c, 1, 43, 100
3, 36864, End_track
4, 0, Start_track
4, 0, Title_t, "BWV 988"
4, 0, Control_c, 2, 0, 0
4, 0, Program_c, 2, 6
4, 0, Control_c, 2, 7, 0
4, 0, Key_signature, 1, "major"
4, 0, End_track
5, 0, Start_track
5, 0, Title_t, "Var.XVII: Allegro"
5, 0, Control_c, 2, 0, 0
5, 0, Program_c, 2, 6
5, 0, Control_c, 2, 7, 0
5, 0, Key_signature, 1, "major"
5, 0, End_track
6, 0, Start_track
6, 0, Title_t, "Bruno de Giusti"
6, 0, Control_c, 2, 0, 0
6, 0, Program_c, 2, 6
6, 0, Control_c, 2, 7, 0
6, 0, Key_signature, 1, "major"
6, 0, End_track
7, 0, Start_track
7, 0, Title_t, "bdg@bruno-de-giusti.net"
7, 0, Control_c, 2, 0, 0
7, 0, Program_c, 2, 6
7, 0, Control_c, 2, 7, 0
7, 0, Key_signature, 1, "major"
7, 0, End_track
8, 0, Start_track
8, 0, Title_t, "www.bruno-de-giusti.net"
8, 0, Control_c, 2, 0, 0
8, 0, Program_c, 2, 6
8, 0, Control_c, 2, 7, 0
8, 0, Key_signature, 1, "major"
8, 0, End_track
9, 0, Start_track
9, 0, Title_t, "All rights reserved"
9, 0, Control_c, 2, 0, 0
9, 0, Program_c, 2, 6
9, 0, Control_c, 2, 7, 0
9, 0, Key_signature, 1, "major"
9, 0, End_track
10, 0, Start_track
10, 1, Copyright_t, "___________________________________________________\012\012KUNSTDERFUGE.COM LARGE CLASSICAL MIDI COLLECTION\012ONCLASSICAL BY ALESSANDRO SIMONETTO, PROPRIETOR\012___________________________________________________\012\012! Attention: this file is under copyright !\012\012(c)onclassical, (c)degiusti, 2010\012___________________________________________________\012\012NO ONE MAY REPUBLISH THIS FILE WITHOUT PERMISSION\012COMMERCIAL USES OF THIS FILE IS STRICTLY PROHIBITED\012___________________________________________________\012\012Files & contributor's list: http://kunstderfuge.com/\012Terms and conditions: http://kunstderfuge.com/notes.htm"
10, 1, End_track
0, 0, End_of_file