0, 0, Header, 1, 21, 384
1, 0, Start_track
1, 0, Time_signature, 2, 2, 96, 8
1, 0, Sequencer_specific, 03, 00, 00, 41
1, 0, Sequencer_specific, 05, 00, 00, 77, 0E, 00
1, 0, Tempo, 3000000
1, 24, Tempo, 2857142
1, 48, Tempo, 2727272
1, 72, Tempo, 2608695
1, 96, Tempo, 2500000
1, 144, Tempo, 2222222
1, 192, Tempo, 2142857
1, 240, Tempo, 2068965
1, 288, Tempo, 2000000
1, 768, Tempo, 2500000
1, 784, Tempo, 2400000
1, 800, Tempo, 2307692
1, 816, Tempo, 2222222
1, 832, Tempo, 2142857
1, 848, Tempo, 2068965
1, 864, Tempo, 2000000
1, 1536, Tempo, 2500000
1, 1552, Tempo, 2400000
1, 1568, Tempo, 2307692
1, 1584, Tempo, 2222222
1, 1600, Tempo, 2142857
1, 1616, Tempo, 2068965
1, 1632, Tempo, 2000000
1, 2112, Tempo, 2000000
1, 2148, Tempo, 2068965
1, 2188, Tempo, 2142857
1, 2224, Tempo, 2222222
1, 2264, Tempo, 2307692
1, 2304, Tempo, 2400000
1, 2320, Tempo, 2400000
1, 2336, Tempo, 2307692
1, 2352, Tempo, 2222222
1, 2368, Tempo, 2142857
1, 2384, Tempo, 2068965
1, 2400, Tempo, 2000000
1, 2880, Tempo, 2000000
1, 2916, Tempo, 2068965
1, 2956, Tempo, 2142857
1, 2992, Tempo, 2222222
1, 3032, Tempo, 2307692
1, 3072, Tempo, 2500000
1, 3080, Tempo, 2400000
1, 3088, Tempo, 2307692
1, 3096, Tempo, 2222222
1, 3104, Tempo, 2142857
1, 3112, Tempo, 2068965
1, 3120, Tempo, 2000000
1, 3648, Tempo, 2000000
1, 3684, Tempo, 2068965
1, 3724, Tempo, 2142857
1, 3760, Tempo, 2222222
1, 3800, Tempo, 2307692
1, 3840, Tempo, 2500000
1, 3848, Tempo, 2400000
1, 3856, Tempo, 2307692
1, 3864, Tempo, 2222222
1, 3872, Tempo, 2142857
1, 3880, Tempo, 2068965
1, 3888, Tempo, 2000000
1, 4416, Tempo, 2000000
1, 4452, Tempo, 2068965
1, 4492, Tempo, 2142857
1, 4528, Tempo, 2222222
1, 4568, Tempo, 2307692
1, 4608, Tempo, 2500000
1, 4616, Tempo, 2400000
1, 4624, Tempo, 2307692
1, 4632, Tempo, 2222222
1, 4640, Tempo, 2142857
1, 4648, Tempo, 2068965
1, 4656, Tempo, 2000000
1, 5184, Tempo, 2000000
1, 5220, Tempo, 2068965
1, 5260, Tempo, 2142857
1, 5296, Tempo, 2222222
1, 5336, Tempo, 2307692
1, 5376, Tempo, 2857142
1, 5392, Tempo, 2400000
1, 5408, Tempo, 2307692
1, 5424, Tempo, 2222222
1, 5440, Tempo, 2142857
1, 5456, Tempo, 2068965
1, 5472, Tempo, 2000000
1, 5500, Tempo, 2068965
1, 5528, Tempo, 2142857
1, 5556, Tempo, 2222222
1, 5584, Tempo, 2307692
1, 5616, Tempo, 2400000
1, 5644, Tempo, 2500000
1, 5672, Tempo, 2608695
1, 5700, Tempo, 2727272
1, 5728, Tempo, 2857142
1, 5760, Tempo, 2500000
1, 5792, Tempo, 2400000
1, 5824, Tempo, 2307692
1, 5856, Tempo, 2222222
1, 5888, Tempo, 2142857
1, 5920, Tempo, 2068965
1, 5952, Tempo, 2000000
1, 5988, Tempo, 2068965
1, 6028, Tempo, 2142857
1, 6064, Tempo, 2222222
1, 6104, Tempo, 2307692
1, 6144, Tempo, 2500000
1, 6160, Tempo, 2400000
1, 6176, Tempo, 2307692
1, 6192, Tempo, 2222222
1, 6208, Tempo, 2142857
1, 6224, Tempo, 2068965
1, 6240, Tempo, 2000000
1, 6720, Tempo, 2000000
1, 6756, Tempo, 2068965
1, 6796, Tempo, 2142857
1, 6832, Tempo, 2222222
1, 6872, Tempo, 2307692
1, 6912, Tempo, 2500000
1, 6928, Tempo, 2400000
1, 6944, Tempo, 2307692
1, 6960, Tempo, 2222222
1, 6976, Tempo, 2142857
1, 6992, Tempo, 2068965
1, 7008, Tempo, 2000000
1, 7488, Tempo, 2000000
1, 7524, Tempo, 2068965
1, 7564, Tempo, 2142857
1, 7600, Tempo, 2222222
1, 7640, Tempo, 2307692
1, 7680, Tempo, 2500000
1, 7696, Tempo, 2400000
1, 7712, Tempo, 2307692
1, 7728, Tempo, 2222222
1, 7744, Tempo, 2142857
1, 7760, Tempo, 2068965
1, 7776, Tempo, 2000000
1, 8448, Tempo, 2500000
1, 8464, Tempo, 2400000
1, 8480, Tempo, 2307692
1, 8496, Tempo, 2222222
1, 8512, Tempo, 2142857
1, 8528, Tempo, 2068965
1, 8544, Tempo, 2000000
1, 9024, Tempo, 2000000
1, 9060, Tempo, 2068965
1, 9100, Tempo, 2142857
1, 9136, Tempo, 2222222
1, 9176, Tempo, 2307692
1, 9216, Tempo, 2000000
1, 9224, Tempo, 2400000
1, 9232, Tempo, 2307692
1, 9240, Tempo, 2222222
1, 9248, Tempo, 2142857
1, 9256, Tempo, 2068965
1, 9264, Tempo, 2000000
1, 9408, Tempo, 2727272
1, 9412, Tempo, 2608695
1, 9420, Tempo, 2500000
1, 9424, Tempo, 2400000
1, 9432, Tempo, 2307692
1, 9436, Tempo, 2222222
1, 9444, Tempo, 2142857
1, 9448, Tempo, 2068965
1, 9456, Tempo, 2000000
1, 9504, Tempo, 2500000
1, 9552, Tempo, 2400000
1, 9600, Tempo, 2307692
1, 9648, Tempo, 2222222
1, 9696, Tempo, 2142857
1, 9744, Tempo, 2068965
1, 9792, Tempo, 2000000
1, 9984, Tempo, 2000000
1, 9996, Tempo, 2400000
1, 10012, Tempo, 2307692
1, 10028, Tempo, 2222222
1, 10040, Tempo, 2142857
1, 10056, Tempo, 2068965
1, 10072, Tempo, 2000000
1, 10368, Tempo, 2500000
1, 10384, Tempo, 2400000
1, 10400, Tempo, 2307692
1, 10416, Tempo, 2222222
1, 10432, Tempo, 2142857
1, 10448, Tempo, 2068965
1, 10464, Tempo, 2000000
1, 10752, Tempo, 2068965
1, 10768, Tempo, 2400000
1, 10784, Tempo, 2307692
1, 10800, Tempo, 2222222
1, 10816, Tempo, 2142857
1, 10832, Tempo, 2068965
1, 10848, Tempo, 2500000
1, 10864, Tempo, 2400000
1, 10880, Tempo, 2307692
1, 10896, Tempo, 2222222
1, 10912, Tempo, 2142857
1, 10928, Tempo, 2068965
1, 10944, Tempo, 2000000
1, 11136, Tempo, 2500000
1, 11152, Tempo, 2400000
1, 11168, Tempo, 2307692
1, 11184, Tempo, 2222222
1, 11200, Tempo, 2142857
1, 11216, Tempo, 2068965
1, 11232, Tempo, 2000000
1, 11264, Tempo, 2068965
1, 11296, Tempo, 2142857
1, 11328, Tempo, 2222222
1, 11360, Tempo, 2307692
1, 11392, Tempo, 2400000
1, 11424, Tempo, 2500000
1, 11808, Tempo, 2500000
1, 11832, Tempo, 2608695
1, 11856, Tempo, 2727272
1, 11880, Tempo, 2857142
1, 11904, Tempo, 3000000
1, 12384, Tempo, 2500000
1, 12416, Tempo, 2400000
1, 12448, Tempo, 2307692
1, 12480, Tempo, 2222222
1, 12512, Tempo, 2142857
1, 12544, Tempo, 2068965
1, 12576, Tempo, 2000000
1, 12864, Tempo, 2000000
1, 12900, Tempo, 2068965
1, 12940, Tempo, 2142857
1, 12976, Tempo, 2222222
1, 13016, Tempo, 2307692
1, 13056, Tempo, 2500000
1, 13072, Tempo, 2400000
1, 13088, Tempo, 2307692
1, 13104, Tempo, 2222222
1, 13120, Tempo, 2142857
1, 13136, Tempo, 2068965
1, 13152, Tempo, 2000000
1, 13632, Tempo, 2000000
1, 13668, Tempo, 2068965
1, 13708, Tempo, 2142857
1, 13744, Tempo, 2222222
1, 13784, Tempo, 2307692
1, 13824, Tempo, 2500000
1, 13840, Tempo, 2400000
1, 13856, Tempo, 2307692
1, 13872, Tempo, 2222222
1, 13888, Tempo, 2142857
1, 13904, Tempo, 2068965
1, 13920, Tempo, 2000000
1, 14400, Tempo, 2000000
1, 14436, Tempo, 2068965
1, 14476, Tempo, 2142857
1, 14512, Tempo, 2222222
1, 14552, Tempo, 2307692
1, 14592, Tempo, 2500000
1, 14608, Tempo, 2400000
1, 14624, Tempo, 2307692
1, 14640, Tempo, 2222222
1, 14656, Tempo, 2142857
1, 14672, Tempo, 2068965
1, 14688, Tempo, 2000000
1, 15168, Tempo, 2000000
1, 15204, Tempo, 2068965
1, 15244, Tempo, 2142857
1, 15280, Tempo, 2222222
1, 15320, Tempo, 2307692
1, 15360, Tempo, 2000000
1, 15376, Tempo, 2400000
1, 15392, Tempo, 2307692
1, 15408, Tempo, 2222222
1, 15424, Tempo, 2142857
1, 15440, Tempo, 2068965
1, 15456, Tempo, 2000000
1, 15744, Tempo, 2500000
1, 15760, Tempo, 2400000
1, 15776, Tempo, 2307692
1, 15792, Tempo, 2222222
1, 15808, Tempo, 2142857
1, 15824, Tempo, 2068965
1, 15840, Tempo, 2000000
1, 15936, Tempo, 2000000
1, 15972, Tempo, 2068965
1, 16012, Tempo, 2142857
1, 16048, Tempo, 2222222
1, 16088, Tempo, 2307692
1, 16128, Tempo, 2000000
1, 16144, Tempo, 2400000
1, 16160, Tempo, 2307692
1, 16176, Tempo, 2222222
1, 16192, Tempo, 2142857
1, 16208, Tempo, 2068965
1, 16224, Tempo, 2000000
1, 16512, Tempo, 2500000
1, 16528, Tempo, 2400000
1, 16544, Tempo, 2307692
1, 16560, Tempo, 2222222
1, 16576, Tempo, 2142857
1, 16592, Tempo, 2068965
1, 16608, Tempo, 2000000
1, 16704, Tempo, 2000000
1, 16740, Tempo, 2068965
1, 16780, Tempo, 2142857
1, 16816, Tempo, 2222222
1, 16856, Tempo, 2307692
1, 16896, Tempo, 2000000
1, 16912, Tempo, 2400000
1, 16928, Tempo, 2307692
1, 16944, Tempo, 2222222
1, 16960, Tempo, 2142857
1, 16976, Tempo, 2068965
1, 16992, Tempo, 2000000
1, 17280, Tempo, 2500000
1, 17296, Tempo, 2400000
1, 17312, Tempo, 2307692
1, 17328, Tempo, 2222222
1, 17344, Tempo, 2142857
1, 17360, Tempo, 2068965
1, 17376, Tempo, 2000000
1, 17664, Tempo, 2000000
1, 17680, Tempo, 2400000
1, 17696, Tempo, 2307692
1, 17712, Tempo, 2222222
1, 17728, Tempo, 2142857
1, 17744, Tempo, 2068965
1, 17760, Tempo, 2000000
1, 18048, Tempo, 2500000
1, 18064, Tempo, 2400000
1, 18080, Tempo, 2307692
1, 18096, Tempo, 2222222
1, 18112, Tempo, 2142857
1, 18128, Tempo, 2068965
1, 18144, Tempo, 2000000
1, 18432, Tempo, 2500000
1, 18448, Tempo, 2400000
1, 18464, Tempo, 2307692
1, 18480, Tempo, 2222222
1, 18496, Tempo, 2142857
1, 18512, Tempo, 2068965
1, 18528, Tempo, 2000000
1, 19008, Tempo, 2000000
1, 19044, Tempo, 2068965
1, 19084, Tempo, 2142857
1, 19120, Tempo, 2222222
1, 19160, Tempo, 2307692
1, 19200, Tempo, 2500000
1, 19216, Tempo, 2400000
1, 19232, Tempo, 2307692
1, 19248, Tempo, 2222222
1, 19264, Tempo, 2142857
1, 19280, Tempo, 2068965
1, 19296, Tempo, 2000000
1, 19776, Tempo, 2000000
1, 19812, Tempo, 2068965
1, 19852, Tempo, 2142857
1, 19888, Tempo, 2222222
1, 19928, Tempo, 2307692
1, 19968, Tempo, 2500000
1, 19984, Tempo, 2400000
1, 20000, Tempo, 2307692
1, 20016, Tempo, 2222222
1, 20032, Tempo, 2142857
1, 20048, Tempo, 2068965
1, 20064, Tempo, 2000000
1, 20544, Tempo, 2000000
1, 20580, Tempo, 2068965
1, 20620, Tempo, 2142857
1, 20656, Tempo, 2222222
1, 20696, Tempo, 2307692
1, 20736, Tempo, 2000000
1, 20752, Tempo, 2400000
1, 20768, Tempo, 2307692
1, 20784, Tempo, 2222222
1, 20800, Tempo, 2142857
1, 20816, Tempo, 2068965
1, 20832, Tempo, 2000000
1, 21120, Tempo, 2500000
1, 21136, Tempo, 2400000
1, 21152, Tempo, 2307692
1, 21168, Tempo, 2222222
1, 21184, Tempo, 2142857
1, 21200, Tempo, 2068965
1, 21216, Tempo, 2000000
1, 21504, Tempo, 2000000
1, 21512, Tempo, 2400000
1, 21520, Tempo, 2307692
1, 21528, Tempo, 2222222
1, 21536, Tempo, 2142857
1, 21544, Tempo, 2068965
1, 21552, Tempo, 2000000
1, 21696, Tempo, 2307692
1, 21708, Tempo, 2222222
1, 21720, Tempo, 2142857
1, 21732, Tempo, 2068965
1, 21744, Tempo, 2000000
1, 21888, Tempo, 2307692
1, 21900, Tempo, 2222222
1, 21912, Tempo, 2142857
1, 21924, Tempo, 2068965
1, 21936, Tempo, 2000000
1, 21984, Tempo, 2000000
1, 22032, Tempo, 2068965
1, 22080, Tempo, 2142857
1, 22128, Tempo, 2222222
1, 22176, Tempo, 2307692
1, 22224, Tempo, 2400000
1, 22272, Tempo, 2857142
1, 22416, Tempo, 2608695
1, 22464, Tempo, 3000000
1, 22512, Tempo, 2857142
1, 22560, Tempo, 2727272
1, 22656, Tempo, 2608695
1, 22752, Tempo, 2500000
1, 23232, Tempo, 2500000
1, 23376, Tempo, 2608695
1, 23520, Tempo, 2727272
1, 23664, Tempo, 2857142
1, 23808, Tempo, 2857142
1, 24096, Tempo, 1500000
1, 24104, Tempo, 1538461
1, 24112, Tempo, 1578947
1, 24124, Tempo, 1621621
1, 24132, Tempo, 1666666
1, 24144, Tempo, 1714285
1, 24152, Tempo, 1764705
1, 24160, Tempo, 1818181
1, 24172, Tempo, 1875000
1, 24180, Tempo, 1935483
1, 24192, Tempo, 2000000
1, 24200, Tempo, 2068965
1, 24208, Tempo, 2142857
1, 24220, Tempo, 2222222
1, 24228, Tempo, 2307692
1, 24240, Tempo, 2400000
1, 24248, Tempo, 2500000
1, 24256, Tempo, 2608695
1, 24268, Tempo, 2727272
1, 24276, Tempo, 2857142
1, 24288, Tempo, 3000000
1, 24480, Tempo, 2857142
1, 24576, Tempo, 3000000
1, 24768, Tempo, 3000000
1, 24768, End_track
2, 0, Start_track
2, 0, Title_t, "Johann Sebastian Bach"
2, 0, Control_c, 0, 0, 0
2, 0, Program_c, 0, 6
2, 0, Control_c, 0, 7, 127
2, 0, Control_c, 0, 10, 21
2, 0, Control_c, 0, 91, 127
2, 0, Key_signature, -2, "minor"
2, 96, Note_on_c, 0, 67, 112
2, 160, Note_off_c, 0, 67, 100
2, 192, Note_on_c, 0, 67, 112
2, 284, Note_off_c, 0, 67, 100
2, 288, Note_on_c, 0, 65, 112
2, 352, Note_off_c, 0, 65, 100
2, 384, Note_on_c, 0, 65, 112
2, 476, Note_off_c, 0, 65, 100
2, 480, Note_on_c, 0, 63, 112
2, 544, Note_off_c, 0, 63, 100
2, 576, Note_on_c, 0, 63, 112
2, 668, Note_off_c, 0, 63, 100
2, 672, Note_on_c, 0, 62, 112
2, 736, Note_off_c, 0, 62, 100
2, 768, Note_on_c, 0, 62, 112
2, 1148, Note_off_c, 0, 62, 100
2, 1248, Note_on_c, 0, 60, 112
2, 1340, Note_off_c, 0, 60, 100
2, 1344, Note_on_c, 0, 58, 112
2, 1436, Note_off_c, 0, 58, 100
2, 1440, Note_on_c, 0, 57, 112
2, 1532, Note_off_c, 0, 57, 100
2, 1536, Note_on_c, 0, 55, 112
2, 1600, Note_off_c, 0, 55, 100
2, 1632, Note_on_c, 0, 61, 112
2, 1724, Note_off_c, 0, 61, 100
2, 1728, Note_on_c, 0, 61, 112
2, 1772, Note_off_c, 0, 61, 100
2, 1776, Note_on_c, 0, 62, 112
2, 1820, Note_off_c, 0, 62, 100
2, 1824, Note_on_c, 0, 61, 112
2, 1916, Note_off_c, 0, 61, 100
2, 1920, Note_on_c, 0, 67, 112
2, 2300, Note_off_c, 0, 67, 100
2, 2496, Note_on_c, 0, 66, 112
2, 2588, Note_off_c, 0, 66, 100
2, 2592, Note_on_c, 0, 64, 112
2, 2656, Note_off_c, 0, 64, 100
2, 2688, Note_on_c, 0, 66, 112
2, 2780, Note_off_c, 0, 66, 100
2, 2784, Note_on_c, 0, 67, 112
2, 2848, Note_off_c, 0, 67, 100
2, 2880, Note_on_c, 0, 67, 112
2, 2972, Note_off_c, 0, 67, 100
2, 2976, Note_on_c, 0, 69, 112
2, 3040, Note_off_c, 0, 69, 100
2, 3072, Note_on_c, 0, 70, 112
2, 3260, Note_off_c, 0, 70, 100
2, 3648, Note_on_c, 0, 69, 112
2, 3836, Note_off_c, 0, 69, 100
2, 3840, Note_on_c, 0, 62, 112
2, 3884, Note_off_c, 0, 62, 100
2, 3888, Note_on_c, 0, 60, 112
2, 3932, Note_off_c, 0, 60, 100
2, 3936, Note_on_c, 0, 63, 112
2, 4028, Note_off_c, 0, 63, 100
2, 4032, Note_on_c, 0, 62, 112
2, 4124, Note_off_c, 0, 62, 100
2, 4128, Note_on_c, 0, 60, 112
2, 4220, Note_off_c, 0, 60, 100
2, 4224, Note_on_c, 0, 58, 112
2, 4316, Note_off_c, 0, 58, 100
2, 4320, Note_on_c, 0, 57, 112
2, 4412, Note_off_c, 0, 57, 100
2, 4416, Note_on_c, 0, 55, 112
2, 4508, Note_off_c, 0, 55, 100
2, 4512, Note_on_c, 0, 57, 112
2, 4604, Note_off_c, 0, 57, 100
2, 4608, Note_on_c, 0, 58, 112
2, 4672, Note_off_c, 0, 58, 100
2, 4704, Note_on_c, 0, 62, 112
2, 4796, Note_off_c, 0, 62, 100
2, 4800, Note_on_c, 0, 67, 112
2, 5084, Note_off_c, 0, 67, 100
2, 5184, Note_on_c, 0, 67, 112
2, 5196, Note_off_c, 0, 67, 100
2, 5200, Note_on_c, 0, 66, 112
2, 5212, Note_off_c, 0, 66, 100
2, 5216, Note_on_c, 0, 67, 112
2, 5228, Note_off_c, 0, 67, 100
2, 5232, Note_on_c, 0, 66, 112
2, 5372, Note_off_c, 0, 66, 100
2, 5376, Note_on_c, 0, 67, 112
2, 5564, Note_off_c, 0, 67, 100
2, 5856, Note_on_c, 0, 66, 112
2, 5948, Note_off_c, 0, 66, 100
2, 5952, Note_on_c, 0, 67, 112
2, 6044, Note_off_c, 0, 67, 100
2, 6048, Note_on_c, 0, 69, 112
2, 6112, Note_off_c, 0, 69, 100
2, 6144, Note_on_c, 0, 70, 112
2, 6236, Note_off_c, 0, 70, 100
2, 6240, Note_on_c, 0, 69, 112
2, 6304, Note_off_c, 0, 69, 100
2, 6336, Note_on_c, 0, 69, 112
2, 6428, Note_off_c, 0, 69, 100
2, 6432, Note_on_c, 0, 67, 112
2, 6496, Note_off_c, 0, 67, 100
2, 6528, Note_on_c, 0, 67, 112
2, 6620, Note_off_c, 0, 67, 100
2, 6624, Note_on_c, 0, 66, 112
2, 6688, Note_off_c, 0, 66, 100
2, 6720, Note_on_c, 0, 66, 112
2, 6812, Note_off_c, 0, 66, 100
2, 6816, Note_on_c, 0, 67, 112
2, 6880, Note_off_c, 0, 67, 100
2, 6912, Note_on_c, 0, 67, 112
2, 7100, Note_off_c, 0, 67, 100
2, 7488, Note_on_c, 0, 60, 112
2, 7676, Note_off_c, 0, 60, 100
2, 7680, Note_on_c, 0, 58, 112
2, 7808, Note_off_c, 0, 58, 100
2, 7872, Note_on_c, 0, 67, 112
2, 7964, Note_off_c, 0, 67, 100
2, 7968, Note_on_c, 0, 65, 112
2, 8156, Note_off_c, 0, 65, 100
2, 8160, Note_on_c, 0, 64, 112
2, 8348, Note_off_c, 0, 64, 100
2, 8352, Note_on_c, 0, 62, 112
2, 8444, Note_off_c, 0, 62, 100
2, 8448, Note_on_c, 0, 61, 112
2, 8576, Note_off_c, 0, 61, 100
2, 8640, Note_on_c, 0, 70, 112
2, 8828, Note_off_c, 0, 70, 100
2, 8832, Note_on_c, 0, 69, 112
2, 9020, Note_off_c, 0, 69, 100
2, 9024, Note_on_c, 0, 61, 112
2, 9212, Note_off_c, 0, 61, 100
2, 9408, Note_on_c, 0, 62, 112
2, 9452, Note_off_c, 0, 62, 100
2, 9456, Note_on_c, 0, 61, 112
2, 9500, Note_off_c, 0, 61, 100
2, 9504, Note_on_c, 0, 62, 112
2, 9644, Note_off_c, 0, 62, 100
2, 9696, Note_on_c, 0, 62, 112
2, 9824, Note_off_c, 0, 62, 100
2, 9888, Note_on_c, 0, 62, 112
2, 10016, Note_off_c, 0, 62, 100
2, 10080, Note_on_c, 0, 64, 112
2, 10124, Note_off_c, 0, 64, 100
2, 10128, Note_on_c, 0, 62, 112
2, 10172, Note_off_c, 0, 62, 100
2, 10176, Note_on_c, 0, 61, 112
2, 10268, Note_off_c, 0, 61, 100
2, 10272, Note_on_c, 0, 59, 112
2, 10364, Note_off_c, 0, 59, 100
2, 10368, Note_on_c, 0, 61, 112
2, 10460, Note_off_c, 0, 61, 100
2, 10464, Note_on_c, 0, 64, 112
2, 10556, Note_off_c, 0, 64, 100
2, 10560, Note_on_c, 0, 69, 112
2, 10748, Note_off_c, 0, 69, 100
2, 10944, Note_on_c, 0, 62, 112
2, 11132, Note_off_c, 0, 62, 100
2, 11232, Note_on_c, 0, 64, 112
2, 11276, Note_off_c, 0, 64, 100
2, 11280, Note_on_c, 0, 65, 112
2, 11324, Note_off_c, 0, 65, 100
2, 11328, Note_on_c, 0, 64, 112
2, 11372, Note_off_c, 0, 64, 100
2, 11376, Note_on_c, 0, 62, 112
2, 11420, Note_off_c, 0, 62, 100
2, 11424, Note_on_c, 0, 64, 112
2, 11516, Note_off_c, 0, 64, 100
2, 11520, Note_on_c, 0, 62, 112
2, 11900, Note_off_c, 0, 62, 100
2, 13248, Note_on_c, 0, 75, 112
2, 13436, Note_off_c, 0, 75, 100
2, 13440, Note_on_c, 0, 74, 112
2, 13628, Note_off_c, 0, 74, 100
2, 13632, Note_on_c, 0, 72, 112
2, 13820, Note_off_c, 0, 72, 100
2, 13824, Note_on_c, 0, 79, 112
2, 13888, Note_off_c, 0, 79, 100
2, 13920, Note_on_c, 0, 67, 112
2, 14108, Note_off_c, 0, 67, 100
2, 14112, Note_on_c, 0, 68, 112
2, 14300, Note_off_c, 0, 68, 100
2, 14304, Note_on_c, 0, 70, 112
2, 14492, Note_off_c, 0, 70, 100
2, 14496, Note_on_c, 0, 72, 112
2, 14588, Note_off_c, 0, 72, 100
2, 14592, Note_on_c, 0, 70, 112
2, 14720, Note_off_c, 0, 70, 100
2, 14784, Note_on_c, 0, 77, 112
2, 14972, Note_off_c, 0, 77, 100
2, 14976, Note_on_c, 0, 79, 112
2, 15164, Note_off_c, 0, 79, 100
2, 15168, Note_on_c, 0, 74, 112
2, 15356, Note_off_c, 0, 74, 100
2, 15360, Note_on_c, 0, 75, 112
2, 15452, Note_off_c, 0, 75, 100
2, 15456, Note_on_c, 0, 74, 112
2, 15548, Note_off_c, 0, 74, 100
2, 15552, Note_on_c, 0, 72, 112
2, 15740, Note_off_c, 0, 72, 100
2, 15840, Note_on_c, 0, 70, 112
2, 16028, Note_off_c, 0, 70, 100
2, 16032, Note_on_c, 0, 72, 112
2, 16124, Note_off_c, 0, 72, 100
2, 16128, Note_on_c, 0, 74, 112
2, 16192, Note_off_c, 0, 74, 100
2, 16224, Note_on_c, 0, 70, 112
2, 16320, Note_on_c, 0, 65, 112
2, 16412, Note_off_c, 0, 65, 100
2, 16416, Note_on_c, 0, 62, 112
2, 16508, Note_off_c, 0, 62, 100
2, 16512, Note_on_c, 0, 63, 112
2, 16604, Note_off_c, 0, 63, 100
2, 16608, Note_on_c, 0, 65, 112
2, 16700, Note_off_c, 0, 65, 100
2, 16704, Note_on_c, 0, 67, 112
2, 16796, Note_off_c, 0, 70, 100
2, 16796, Note_off_c, 0, 67, 100
2, 16800, Note_on_c, 0, 68, 112
2, 16892, Note_off_c, 0, 68, 100
2, 16896, Note_on_c, 0, 70, 112
2, 17660, Note_off_c, 0, 70, 100
2, 17760, Note_on_c, 0, 72, 112
2, 17804, Note_off_c, 0, 72, 100
2, 17808, Note_on_c, 0, 74, 112
2, 17852, Note_off_c, 0, 74, 100
2, 17856, Note_on_c, 0, 75, 112
2, 17900, Note_off_c, 0, 75, 100
2, 17904, Note_on_c, 0, 74, 112
2, 17948, Note_off_c, 0, 74, 100
2, 17952, Note_on_c, 0, 72, 112
2, 18016, Note_off_c, 0, 72, 100
2, 18048, Note_on_c, 0, 74, 112
2, 18112, Note_off_c, 0, 74, 100
2, 18144, Note_on_c, 0, 75, 112
2, 18188, Note_off_c, 0, 75, 100
2, 18192, Note_on_c, 0, 77, 112
2, 18236, Note_off_c, 0, 77, 100
2, 18240, Note_on_c, 0, 75, 112
2, 18284, Note_off_c, 0, 75, 100
2, 18288, Note_on_c, 0, 77, 112
2, 18332, Note_off_c, 0, 77, 100
2, 18336, Note_on_c, 0, 79, 112
2, 18400, Note_off_c, 0, 79, 100
2, 18432, Note_on_c, 0, 77, 112
2, 18620, Note_off_c, 0, 77, 100
2, 19296, Note_on_c, 0, 72, 112
2, 19360, Note_off_c, 0, 72, 100
2, 19392, Note_on_c, 0, 72, 112
2, 19484, Note_off_c, 0, 72, 100
2, 19488, Note_on_c, 0, 74, 112
2, 19552, Note_off_c, 0, 74, 100
2, 19584, Note_on_c, 0, 75, 112
2, 19676, Note_off_c, 0, 75, 100
2, 19680, Note_on_c, 0, 76, 112
2, 19744, Note_off_c, 0, 76, 100
2, 19776, Note_on_c, 0, 67, 112
2, 19868, Note_off_c, 0, 67, 100
2, 19872, Note_on_c, 0, 76, 112
2, 19936, Note_off_c, 0, 76, 100
2, 19968, Note_on_c, 0, 78, 112
2, 20348, Note_off_c, 0, 78, 100
2, 20448, Note_on_c, 0, 79, 112
2, 20540, Note_off_c, 0, 79, 100
2, 20544, Note_on_c, 0, 81, 112
2, 20636, Note_off_c, 0, 81, 100
2, 20640, Note_on_c, 0, 82, 112
2, 20732, Note_off_c, 0, 82, 100
2, 20736, Note_on_c, 0, 84, 112
2, 20828, Note_off_c, 0, 84, 100
2, 20832, Note_on_c, 0, 82, 112
2, 20924, Note_off_c, 0, 82, 100
2, 20928, Note_on_c, 0, 81, 112
2, 21020, Note_off_c, 0, 81, 100
2, 21024, Note_on_c, 0, 79, 112
2, 21116, Note_off_c, 0, 79, 100
2, 21120, Note_on_c, 0, 78, 112
2, 21212, Note_off_c, 0, 78, 100
2, 21216, Note_on_c, 0, 79, 112
2, 21308, Note_off_c, 0, 79, 100
2, 21312, Note_on_c, 0, 78, 112
2, 21596, Note_off_c, 0, 78, 100
2, 21600, Note_on_c, 0, 81, 112
2, 21692, Note_off_c, 0, 81, 100
2, 21696, Note_on_c, 0, 79, 112
2, 21884, Note_off_c, 0, 79, 100
2, 22080, Note_on_c, 0, 72, 112
2, 22140, Note_off_c, 0, 72, 100
2, 22272, Note_on_c, 0, 67, 112
2, 22460, Note_off_c, 0, 67, 100
2, 22560, Note_on_c, 0, 69, 112
2, 22652, Note_off_c, 0, 69, 100
2, 22656, Note_on_c, 0, 70, 112
2, 22748, Note_off_c, 0, 70, 100
2, 22752, Note_on_c, 0, 72, 112
2, 22844, Note_off_c, 0, 72, 100
2, 22848, Note_on_c, 0, 74, 112
2, 22940, Note_off_c, 0, 74, 100
2, 22944, Note_on_c, 0, 76, 112
2, 23036, Note_off_c, 0, 76, 100
2, 23040, Note_on_c, 0, 78, 112
2, 23132, Note_off_c, 0, 78, 100
2, 23136, Note_on_c, 0, 79, 112
2, 23228, Note_off_c, 0, 79, 100
2, 23232, Note_on_c, 0, 81, 112
2, 23324, Note_off_c, 0, 81, 100
2, 23328, Note_on_c, 0, 78, 112
2, 23420, Note_off_c, 0, 78, 100
2, 23424, Note_on_c, 0, 79, 112
2, 23516, Note_off_c, 0, 79, 100
2, 23520, Note_on_c, 0, 78, 112
2, 23612, Note_off_c, 0, 78, 100
2, 23616, Note_on_c, 0, 76, 112
2, 23660, Note_off_c, 0, 76, 100
2, 23664, Note_on_c, 0, 74, 112
2, 23696, Note_off_c, 0, 74, 100
2, 23712, Note_on_c, 0, 84, 112
2, 23900, Note_off_c, 0, 84, 100
2, 23904, Note_on_c, 0, 78, 112
2, 23996, Note_off_c, 0, 78, 100
2, 24000, Note_on_c, 0, 79, 112
2, 24092, Note_off_c, 0, 79, 100
2, 24096, Note_on_c, 0, 81, 112
2, 24284, Note_off_c, 0, 81, 100
2, 24288, Note_on_c, 0, 82, 112
2, 24476, Note_off_c, 0, 82, 100
2, 24480, Note_on_c, 0, 84, 112
2, 24764, Note_off_c, 0, 84, 64
2, 24768, Note_on_c, 0, 86, 112
2, 25332, Note_off_c, 0, 86, 100
2, 25332, End_track
3, 0, Start_track
3, 0, Title_t, "Goldberg Variations"
3, 0, Control_c, 1, 0, 0
3, 0, Program_c, 1, 6
3, 0, Control_c, 1, 7, 127
3, 0, Control_c, 1, 10, 109
3, 0, Control_c, 1, 91, 127
3, 0, Key_signature, -2, "minor"
3, 864, Note_on_c, 1, 74, 112
3, 928, Note_off_c, 1, 74, 100
3, 960, Note_on_c, 1, 74, 112
3, 1052, Note_off_c, 1, 74, 100
3, 1056, Note_on_c, 1, 76, 112
3, 1120, Note_off_c, 1, 76, 100
3, 1152, Note_on_c, 1, 76, 112
3, 1244, Note_off_c, 1, 76, 100
3, 1248, Note_on_c, 1, 78, 112
3, 1312, Note_off_c, 1, 78, 100
3, 1344, Note_on_c, 1, 78, 112
3, 1436, Note_off_c, 1, 78, 100
3, 1440, Note_on_c, 1, 79, 112
3, 1504, Note_off_c, 1, 79, 100
3, 1536, Note_on_c, 1, 79, 112
3, 1916, Note_off_c, 1, 79, 100
3, 2016, Note_on_c, 1, 81, 112
3, 2108, Note_off_c, 1, 81, 100
3, 2112, Note_on_c, 1, 82, 112
3, 2204, Note_off_c, 1, 82, 100
3, 2208, Note_on_c, 1, 84, 112
3, 2300, Note_off_c, 1, 84, 100
3, 2304, Note_on_c, 1, 86, 112
3, 2396, Note_off_c, 1, 86, 100
3, 2400, Note_on_c, 1, 81, 112
3, 2492, Note_off_c, 1, 81, 100
3, 2496, Note_on_c, 1, 81, 112
3, 2540, Note_off_c, 1, 81, 100
3, 2544, Note_on_c, 1, 80, 112
3, 2588, Note_off_c, 1, 80, 100
3, 2592, Note_on_c, 1, 81, 112
3, 2684, Note_off_c, 1, 81, 100
3, 2688, Note_on_c, 1, 74, 112
3, 3068, Note_off_c, 1, 74, 100
3, 3264, Note_on_c, 1, 75, 112
3, 3356, Note_off_c, 1, 75, 100
3, 3360, Note_on_c, 1, 77, 112
3, 3424, Note_off_c, 1, 77, 100
3, 3456, Note_on_c, 1, 75, 112
3, 3548, Note_off_c, 1, 75, 100
3, 3552, Note_on_c, 1, 74, 112
3, 3616, Note_off_c, 1, 74, 100
3, 3648, Note_on_c, 1, 74, 112
3, 3740, Note_off_c, 1, 74, 100
3, 3744, Note_on_c, 1, 72, 112
3, 3808, Note_off_c, 1, 72, 100
3, 3840, Note_on_c, 1, 70, 112
3, 4028, Note_off_c, 1, 70, 100
3, 4416, Note_on_c, 1, 72, 112
3, 4604, Note_off_c, 1, 72, 100
3, 4608, Note_on_c, 1, 79, 112
3, 4652, Note_off_c, 1, 79, 100
3, 4656, Note_on_c, 1, 81, 112
3, 4700, Note_off_c, 1, 81, 100
3, 4704, Note_on_c, 1, 78, 112
3, 4796, Note_off_c, 1, 78, 100
3, 4800, Note_on_c, 1, 79, 112
3, 4892, Note_off_c, 1, 79, 100
3, 4896, Note_on_c, 1, 81, 112
3, 4988, Note_off_c, 1, 81, 100
3, 4992, Note_on_c, 1, 82, 112
3, 5084, Note_off_c, 1, 82, 100
3, 5088, Note_on_c, 1, 84, 112
3, 5180, Note_off_c, 1, 84, 100
3, 5184, Note_on_c, 1, 86, 112
3, 5276, Note_off_c, 1, 86, 100
3, 5280, Note_on_c, 1, 84, 112
3, 5372, Note_off_c, 1, 84, 100
3, 5376, Note_on_c, 1, 82, 112
3, 5440, Note_off_c, 1, 82, 100
3, 5472, Note_on_c, 1, 81, 112
3, 5660, Note_off_c, 1, 81, 100
3, 5664, Note_on_c, 1, 79, 112
3, 5756, Note_off_c, 1, 79, 100
3, 5760, Note_on_c, 1, 74, 112
3, 5948, Note_off_c, 1, 74, 100
3, 5952, Note_on_c, 1, 75, 112
3, 6140, Note_off_c, 1, 75, 100
3, 6144, Note_on_c, 1, 74, 112
3, 6332, Note_off_c, 1, 74, 100
3, 6624, Note_on_c, 1, 75, 112
3, 6716, Note_off_c, 1, 75, 100
3, 6720, Note_on_c, 1, 74, 112
3, 6812, Note_off_c, 1, 74, 100
3, 6816, Note_on_c, 1, 72, 112
3, 6880, Note_off_c, 1, 72, 100
3, 6912, Note_on_c, 1, 70, 112
3, 7004, Note_off_c, 1, 70, 100
3, 7008, Note_on_c, 1, 72, 112
3, 7072, Note_off_c, 1, 72, 100
3, 7104, Note_on_c, 1, 72, 112
3, 7196, Note_off_c, 1, 72, 100
3, 7200, Note_on_c, 1, 74, 112
3, 7264, Note_off_c, 1, 74, 100
3, 7296, Note_on_c, 1, 74, 112
3, 7388, Note_off_c, 1, 74, 100
3, 7392, Note_on_c, 1, 75, 112
3, 7456, Note_off_c, 1, 75, 100
3, 7488, Note_on_c, 1, 75, 112
3, 7580, Note_off_c, 1, 75, 100
3, 7584, Note_on_c, 1, 74, 112
3, 7648, Note_off_c, 1, 74, 100
3, 7680, Note_on_c, 1, 74, 112
3, 7868, Note_off_c, 1, 74, 100
3, 8256, Note_on_c, 1, 81, 112
3, 8444, Note_off_c, 1, 81, 100
3, 8448, Note_on_c, 1, 82, 112
3, 8576, Note_off_c, 1, 82, 100
3, 8640, Note_on_c, 1, 74, 112
3, 8732, Note_off_c, 1, 74, 100
3, 8736, Note_on_c, 1, 76, 112
3, 8924, Note_off_c, 1, 76, 100
3, 8928, Note_on_c, 1, 77, 112
3, 9116, Note_off_c, 1, 77, 100
3, 9120, Note_on_c, 1, 79, 112
3, 9212, Note_off_c, 1, 79, 100
3, 9216, Note_on_c, 1, 81, 112
3, 9344, Note_off_c, 1, 81, 100
3, 9408, Note_on_c, 1, 70, 112
3, 9596, Note_off_c, 1, 70, 100
3, 9600, Note_on_c, 1, 72, 112
3, 9788, Note_off_c, 1, 72, 100
3, 9792, Note_on_c, 1, 81, 112
3, 9980, Note_off_c, 1, 81, 100
3, 10176, Note_on_c, 1, 79, 112
3, 10220, Note_off_c, 1, 79, 100
3, 10224, Note_on_c, 1, 81, 112
3, 10268, Note_off_c, 1, 81, 100
3, 10272, Note_on_c, 1, 79, 112
3, 10400, Note_off_c, 1, 79, 100
3, 10464, Note_on_c, 1, 79, 112
3, 10592, Note_off_c, 1, 79, 100
3, 10656, Note_on_c, 1, 79, 112
3, 10784, Note_off_c, 1, 79, 100
3, 10848, Note_on_c, 1, 77, 112
3, 10892, Note_off_c, 1, 77, 100
3, 10896, Note_on_c, 1, 79, 112
3, 10940, Note_off_c, 1, 79, 100
3, 10944, Note_on_c, 1, 81, 112
3, 11036, Note_off_c, 1, 81, 100
3, 11040, Note_on_c, 1, 82, 112
3, 11132, Note_off_c, 1, 82, 100
3, 11136, Note_on_c, 1, 81, 112
3, 11228, Note_off_c, 1, 81, 100
3, 11232, Note_on_c, 1, 77, 112
3, 11324, Note_off_c, 1, 77, 100
3, 11328, Note_on_c, 1, 73, 112
3, 11516, Note_off_c, 1, 73, 100
3, 11712, Note_on_c, 1, 79, 112
3, 11900, Note_off_c, 1, 79, 100
3, 12000, Note_on_c, 1, 78, 112
3, 12044, Note_off_c, 1, 78, 100
3, 12048, Note_on_c, 1, 76, 112
3, 12092, Note_off_c, 1, 76, 100
3, 12096, Note_on_c, 1, 78, 112
3, 12224, Note_off_c, 1, 78, 100
3, 12480, Note_on_c, 1, 66, 112
3, 12668, Note_off_c, 1, 66, 100
3, 12672, Note_on_c, 1, 67, 112
3, 12860, Note_off_c, 1, 67, 100
3, 12864, Note_on_c, 1, 69, 112
3, 13052, Note_off_c, 1, 69, 100
3, 13056, Note_on_c, 1, 62, 112
3, 13120, Note_off_c, 1, 62, 100
3, 13152, Note_on_c, 1, 74, 112
3, 13340, Note_off_c, 1, 74, 100
3, 13344, Note_on_c, 1, 72, 112
3, 13532, Note_off_c, 1, 72, 100
3, 13536, Note_on_c, 1, 70, 112
3, 13724, Note_off_c, 1, 70, 100
3, 13728, Note_on_c, 1, 69, 112
3, 13820, Note_off_c, 1, 69, 100
3, 13824, Note_on_c, 1, 70, 112
3, 13952, Note_off_c, 1, 70, 100
3, 14016, Note_on_c, 1, 63, 112
3, 14204, Note_off_c, 1, 63, 100
3, 14208, Note_on_c, 1, 62, 112
3, 14396, Note_off_c, 1, 62, 100
3, 14400, Note_on_c, 1, 67, 112
3, 14588, Note_off_c, 1, 67, 100
3, 14592, Note_on_c, 1, 65, 112
3, 14684, Note_off_c, 1, 65, 100
3, 14688, Note_on_c, 1, 67, 112
3, 14780, Note_off_c, 1, 67, 100
3, 14784, Note_on_c, 1, 68, 112
3, 14972, Note_off_c, 1, 68, 100
3, 15072, Note_on_c, 1, 70, 112
3, 15260, Note_off_c, 1, 70, 100
3, 15264, Note_on_c, 1, 68, 112
3, 15356, Note_off_c, 1, 68, 100
3, 15360, Note_on_c, 1, 67, 112
3, 15424, Note_off_c, 1, 67, 100
3, 15456, Note_on_c, 1, 70, 112
3, 15548, Note_off_c, 1, 70, 100
3, 15552, Note_on_c, 1, 75, 112
3, 15644, Note_off_c, 1, 75, 100
3, 15648, Note_on_c, 1, 79, 112
3, 15740, Note_off_c, 1, 79, 100
3, 15744, Note_on_c, 1, 77, 112
3, 15836, Note_off_c, 1, 77, 100
3, 15840, Note_on_c, 1, 75, 112
3, 15932, Note_off_c, 1, 75, 100
3, 15936, Note_on_c, 1, 74, 112
3, 16028, Note_off_c, 1, 74, 100
3, 16032, Note_on_c, 1, 72, 112
3, 16124, Note_off_c, 1, 72, 100
3, 16128, Note_on_c, 1, 70, 112
3, 16892, Note_off_c, 1, 70, 100
3, 16992, Note_on_c, 1, 68, 112
3, 17036, Note_off_c, 1, 68, 100
3, 17040, Note_on_c, 1, 67, 112
3, 17084, Note_off_c, 1, 67, 100
3, 17088, Note_on_c, 1, 65, 112
3, 17132, Note_off_c, 1, 65, 100
3, 17136, Note_on_c, 1, 67, 112
3, 17180, Note_off_c, 1, 67, 100
3, 17184, Note_on_c, 1, 68, 112
3, 17248, Note_off_c, 1, 68, 100
3, 17280, Note_on_c, 1, 67, 112
3, 17344, Note_off_c, 1, 67, 100
3, 17376, Note_on_c, 1, 65, 112
3, 17420, Note_off_c, 1, 65, 100
3, 17424, Note_on_c, 1, 63, 112
3, 17468, Note_off_c, 1, 63, 100
3, 17472, Note_on_c, 1, 65, 112
3, 17516, Note_off_c, 1, 65, 100
3, 17520, Note_on_c, 1, 63, 112
3, 17564, Note_off_c, 1, 63, 100
3, 17568, Note_on_c, 1, 62, 112
3, 17632, Note_off_c, 1, 62, 100
3, 17664, Note_on_c, 1, 63, 112
3, 17852, Note_off_c, 1, 63, 100
3, 18528, Note_on_c, 1, 68, 112
3, 18592, Note_off_c, 1, 68, 100
3, 18624, Note_on_c, 1, 68, 112
3, 18716, Note_off_c, 1, 68, 100
3, 18720, Note_on_c, 1, 67, 112
3, 18784, Note_off_c, 1, 67, 100
3, 18816, Note_on_c, 1, 66, 112
3, 18908, Note_off_c, 1, 66, 100
3, 18912, Note_on_c, 1, 65, 112
3, 18976, Note_off_c, 1, 65, 100
3, 19008, Note_on_c, 1, 74, 112
3, 19100, Note_off_c, 1, 74, 100
3, 19104, Note_on_c, 1, 65, 112
3, 19168, Note_off_c, 1, 65, 100
3, 19200, Note_on_c, 1, 63, 112
3, 19580, Note_off_c, 1, 63, 100
3, 19680, Note_on_c, 1, 62, 112
3, 19772, Note_off_c, 1, 62, 100
3, 19776, Note_on_c, 1, 60, 112
3, 19868, Note_off_c, 1, 60, 100
3, 19872, Note_on_c, 1, 58, 112
3, 19964, Note_off_c, 1, 58, 100
3, 19968, Note_on_c, 1, 57, 112
3, 20060, Note_off_c, 1, 57, 100
3, 20064, Note_on_c, 1, 58, 112
3, 20156, Note_off_c, 1, 58, 100
3, 20160, Note_on_c, 1, 60, 112
3, 20252, Note_off_c, 1, 60, 100
3, 20256, Note_on_c, 1, 62, 112
3, 20348, Note_off_c, 1, 62, 100
3, 20352, Note_on_c, 1, 63, 112
3, 20444, Note_off_c, 1, 63, 100
3, 20448, Note_on_c, 1, 62, 112
3, 20540, Note_off_c, 1, 62, 100
3, 20544, Note_on_c, 1, 63, 112
3, 20828, Note_off_c, 1, 63, 100
3, 20832, Note_on_c, 1, 60, 112
3, 20924, Note_off_c, 1, 60, 100
3, 20928, Note_on_c, 1, 62, 112
3, 21116, Note_off_c, 1, 62, 100
3, 21312, Note_on_c, 1, 69, 112
3, 21372, Note_off_c, 1, 69, 100
3, 21504, Note_on_c, 1, 74, 112
3, 21788, Note_off_c, 1, 74, 100
3, 21792, Note_on_c, 1, 72, 112
3, 21884, Note_off_c, 1, 72, 100
3, 21888, Note_on_c, 1, 70, 112
3, 21980, Note_off_c, 1, 70, 100
3, 21984, Note_on_c, 1, 69, 112
3, 22076, Note_off_c, 1, 69, 100
3, 22080, Note_on_c, 1, 67, 112
3, 22172, Note_off_c, 1, 67, 100
3, 22176, Note_on_c, 1, 65, 112
3, 22268, Note_off_c, 1, 65, 100
3, 22272, Note_on_c, 1, 63, 112
3, 22364, Note_off_c, 1, 63, 100
3, 22368, Note_on_c, 1, 62, 112
3, 22460, Note_off_c, 1, 62, 100
3, 22464, Note_on_c, 1, 60, 112
3, 22556, Note_off_c, 1, 60, 100
3, 22560, Note_on_c, 1, 63, 112
3, 22652, Note_off_c, 1, 63, 100
3, 22656, Note_on_c, 1, 62, 112
3, 22748, Note_off_c, 1, 62, 100
3, 22752, Note_on_c, 1, 64, 112
3, 22844, Note_off_c, 1, 64, 100
3, 22848, Note_on_c, 1, 66, 112
3, 22892, Note_off_c, 1, 66, 100
3, 22896, Note_on_c, 1, 67, 112
3, 22928, Note_off_c, 1, 67, 100
3, 22944, Note_on_c, 1, 57, 112
3, 23036, Note_off_c, 1, 57, 100
3, 23040, Note_on_c, 1, 58, 112
3, 23104, Note_off_c, 1, 58, 100
3, 23136, Note_on_c, 1, 63, 112
3, 23228, Note_off_c, 1, 63, 100
3, 23232, Note_on_c, 1, 62, 112
3, 23296, Note_off_c, 1, 62, 100
3, 23328, Note_on_c, 1, 60, 112
3, 23392, Note_off_c, 1, 60, 100
3, 23424, Note_on_c, 1, 58, 112
3, 23516, Note_off_c, 1, 58, 100
3, 23520, Note_on_c, 1, 57, 112
3, 23584, Note_off_c, 1, 57, 100
3, 23616, Note_on_c, 1, 55, 112
3, 23708, Note_off_c, 1, 55, 100
3, 23712, Note_on_c, 1, 54, 112
3, 23804, Note_off_c, 1, 54, 100
3, 23808, Note_on_c, 1, 55, 112
3, 24188, Note_off_c, 1, 55, 100
3, 24188, End_track
4, 0, Start_track
4, 0, Title_t, "BWV 988"
4, 0, Control_c, 2, 0, 0
4, 0, Program_c, 2, 6
4, 0, Control_c, 2, 7, 127
4, 0, Control_c, 2, 10, 64
4, 0, Control_c, 2, 91, 127
4, 0, Control_c, 2, 93, 0
4, 0, Key_signature, -2, "minor"
4, 0, Note_on_c, 2, 55, 112
4, 188, Note_off_c, 2, 55, 100
4, 192, Note_on_c, 2, 43, 112
4, 380, Note_off_c, 2, 43, 100
4, 576, Note_on_c, 2, 55, 112
4, 860, Note_off_c, 2, 55, 100
4, 864, Note_on_c, 2, 54, 112
4, 908, Note_off_c, 2, 54, 100
4, 912, Note_on_c, 2, 52, 112
4, 956, Note_off_c, 2, 52, 100
4, 960, Note_on_c, 2, 54, 112
4, 1148, Note_off_c, 2, 54, 100
4, 1344, Note_on_c, 2, 50, 112
4, 1532, Note_off_c, 2, 50, 100
4, 1536, Note_on_c, 2, 51, 112
4, 1724, Note_off_c, 2, 51, 100
4, 1728, Note_on_c, 2, 52, 112
4, 1916, Note_off_c, 2, 52, 100
4, 2112, Note_on_c, 2, 63, 112
4, 2300, Note_off_c, 2, 63, 100
4, 2304, Note_on_c, 2, 62, 112
4, 2396, Note_off_c, 2, 62, 100
4, 2400, Note_on_c, 2, 61, 112
4, 2492, Note_off_c, 2, 61, 100
4, 2496, Note_on_c, 2, 62, 112
4, 2684, Note_off_c, 2, 62, 100
4, 2784, Note_on_c, 2, 60, 112
4, 2876, Note_off_c, 2, 60, 100
4, 2880, Note_on_c, 2, 58, 112
4, 2972, Note_off_c, 2, 58, 100
4, 2976, Note_on_c, 2, 57, 112
4, 3040, Note_off_c, 2, 57, 100
4, 3072, Note_on_c, 2, 55, 112
4, 3116, Note_off_c, 2, 55, 100
4, 3120, Note_on_c, 2, 54, 112
4, 3164, Note_off_c, 2, 54, 100
4, 3168, Note_on_c, 2, 55, 112
4, 3232, Note_off_c, 2, 55, 100
4, 3264, Note_on_c, 2, 48, 112
4, 3356, Note_off_c, 2, 48, 100
4, 3360, Note_on_c, 2, 55, 112
4, 3424, Note_off_c, 2, 55, 100
4, 3456, Note_on_c, 2, 60, 112
4, 3548, Note_off_c, 2, 60, 100
4, 3552, Note_on_c, 2, 54, 112
4, 3616, Note_off_c, 2, 54, 100
4, 3648, Note_on_c, 2, 54, 112
4, 3740, Note_off_c, 2, 54, 100
4, 3744, Note_on_c, 2, 55, 112
4, 3808, Note_off_c, 2, 55, 100
4, 3840, Note_on_c, 2, 55, 112
4, 3932, Note_off_c, 2, 55, 100
4, 3936, Note_on_c, 2, 54, 112
4, 4028, Note_off_c, 2, 54, 100
4, 4032, Note_on_c, 2, 55, 112
4, 4124, Note_off_c, 2, 55, 100
4, 4128, Note_on_c, 2, 57, 112
4, 4220, Note_off_c, 2, 57, 100
4, 4224, Note_on_c, 2, 50, 112
4, 4412, Note_off_c, 2, 50, 100
4, 4416, Note_on_c, 2, 51, 112
4, 4604, Note_off_c, 2, 51, 100
4, 4608, Note_on_c, 2, 46, 112
4, 4736, Note_off_c, 2, 46, 100
4, 4800, Note_on_c, 2, 58, 112
4, 4892, Note_off_c, 2, 58, 100
4, 4896, Note_on_c, 2, 60, 112
4, 4988, Note_off_c, 2, 60, 100
4, 4992, Note_on_c, 2, 62, 112
4, 5120, Note_off_c, 2, 62, 100
4, 5184, Note_on_c, 2, 62, 112
4, 5372, Note_off_c, 2, 62, 100
4, 5376, Note_on_c, 2, 55, 112
4, 5504, Note_off_c, 2, 55, 100
4, 5568, Note_on_c, 2, 46, 112
4, 5612, Note_off_c, 2, 46, 100
4, 5616, Note_on_c, 2, 48, 112
4, 5660, Note_off_c, 2, 48, 100
4, 5664, Note_on_c, 2, 50, 112
4, 5708, Note_off_c, 2, 50, 100
4, 5712, Note_on_c, 2, 46, 112
4, 5756, Note_off_c, 2, 46, 100
4, 5760, Note_on_c, 2, 43, 112
4, 5948, Note_off_c, 2, 43, 100
4, 6240, Note_on_c, 2, 54, 112
4, 6332, Note_off_c, 2, 54, 100
4, 6336, Note_on_c, 2, 55, 112
4, 6428, Note_off_c, 2, 55, 100
4, 6432, Note_on_c, 2, 57, 112
4, 6524, Note_off_c, 2, 57, 100
4, 6528, Note_on_c, 2, 58, 112
4, 6716, Note_off_c, 2, 58, 100
4, 6720, Note_on_c, 2, 57, 112
4, 6908, Note_off_c, 2, 57, 100
4, 6912, Note_on_c, 2, 55, 112
4, 7004, Note_off_c, 2, 55, 100
4, 7008, Note_on_c, 2, 54, 112
4, 7196, Note_off_c, 2, 54, 100
4, 7200, Note_on_c, 2, 52, 112
4, 7292, Note_off_c, 2, 52, 100
4, 7296, Note_on_c, 2, 54, 112
4, 7340, Note_off_c, 2, 54, 100
4, 7344, Note_on_c, 2, 57, 112
4, 7388, Note_off_c, 2, 57, 100
4, 7392, Note_on_c, 2, 55, 112
4, 7580, Note_off_c, 2, 55, 100
4, 7584, Note_on_c, 2, 54, 112
4, 7648, Note_off_c, 2, 54, 100
4, 7680, Note_on_c, 2, 55, 112
4, 7772, Note_off_c, 2, 55, 100
4, 7776, Note_on_c, 2, 57, 112
4, 7868, Note_off_c, 2, 57, 100
4, 7872, Note_on_c, 2, 58, 112
4, 7964, Note_off_c, 2, 58, 100
4, 7968, Note_on_c, 2, 57, 112
4, 8032, Note_off_c, 2, 57, 100
4, 8064, Note_on_c, 2, 55, 112
4, 8108, Note_off_c, 2, 55, 100
4, 8112, Note_on_c, 2, 57, 112
4, 8156, Note_off_c, 2, 57, 100
4, 8160, Note_on_c, 2, 55, 112
4, 8224, Note_off_c, 2, 55, 100
4, 8256, Note_on_c, 2, 53, 112
4, 8300, Note_off_c, 2, 53, 100
4, 8304, Note_on_c, 2, 55, 112
4, 8348, Note_off_c, 2, 55, 100
4, 8352, Note_on_c, 2, 53, 112
4, 8416, Note_off_c, 2, 53, 100
4, 8448, Note_on_c, 2, 52, 112
4, 8540, Note_off_c, 2, 52, 100
4, 8544, Note_on_c, 2, 53, 112
4, 8636, Note_off_c, 2, 53, 100
4, 8640, Note_on_c, 2, 55, 112
4, 8732, Note_off_c, 2, 55, 100
4, 8736, Note_on_c, 2, 52, 112
4, 8800, Note_off_c, 2, 52, 100
4, 8832, Note_on_c, 2, 49, 112
4, 8924, Note_off_c, 2, 49, 100
4, 8928, Note_on_c, 2, 50, 112
4, 9020, Note_off_c, 2, 50, 100
4, 9024, Note_on_c, 2, 52, 112
4, 9116, Note_off_c, 2, 52, 100
4, 9120, Note_on_c, 2, 49, 112
4, 9184, Note_off_c, 2, 49, 100
4, 9216, Note_on_c, 2, 53, 112
4, 9260, Note_off_c, 2, 53, 100
4, 9264, Note_on_c, 2, 52, 112
4, 9308, Note_off_c, 2, 52, 100
4, 9312, Note_on_c, 2, 50, 112
4, 9376, Note_off_c, 2, 50, 100
4, 9408, Note_on_c, 2, 55, 112
4, 9788, Note_off_c, 2, 55, 100
4, 9792, Note_on_c, 2, 54, 112
4, 9980, Note_off_c, 2, 54, 100
4, 9984, Note_on_c, 2, 58, 112
4, 10112, Note_off_c, 2, 58, 100
4, 10176, Note_on_c, 2, 52, 112
4, 10364, Note_off_c, 2, 52, 100
4, 10368, Note_on_c, 2, 57, 112
4, 10496, Note_off_c, 2, 57, 100
4, 10560, Note_on_c, 2, 49, 112
4, 10748, Note_off_c, 2, 49, 100
4, 10752, Note_on_c, 2, 50, 112
4, 10880, Note_off_c, 2, 50, 100
4, 10944, Note_on_c, 2, 53, 112
4, 11036, Note_off_c, 2, 53, 100
4, 11040, Note_on_c, 2, 52, 112
4, 11132, Note_off_c, 2, 52, 100
4, 11136, Note_on_c, 2, 53, 112
4, 11324, Note_off_c, 2, 53, 100
4, 11328, Note_on_c, 2, 57, 112
4, 11516, Note_off_c, 2, 57, 100
4, 11520, Note_on_c, 2, 62, 112
4, 11584, Note_off_c, 2, 62, 100
4, 11616, Note_on_c, 2, 60, 112
4, 11660, Note_off_c, 2, 60, 100
4, 11664, Note_on_c, 2, 58, 112
4, 11708, Note_off_c, 2, 58, 100
4, 11712, Note_on_c, 2, 57, 112
4, 11756, Note_off_c, 2, 57, 100
4, 11760, Note_on_c, 2, 55, 112
4, 11804, Note_off_c, 2, 55, 100
4, 11808, Note_on_c, 2, 57, 112
4, 11900, Note_off_c, 2, 57, 100
4, 11904, Note_on_c, 2, 50, 112
4, 12224, Note_off_c, 2, 50, 100
4, 12288, Note_on_c, 2, 50, 112
4, 12380, Note_off_c, 2, 50, 100
4, 12384, Note_on_c, 2, 63, 112
4, 12448, Note_off_c, 2, 63, 100
4, 12480, Note_on_c, 2, 63, 112
4, 12572, Note_off_c, 2, 63, 100
4, 12576, Note_on_c, 2, 62, 112
4, 12640, Note_off_c, 2, 62, 100
4, 12672, Note_on_c, 2, 62, 112
4, 12764, Note_off_c, 2, 62, 100
4, 12768, Note_on_c, 2, 60, 112
4, 12832, Note_off_c, 2, 60, 100
4, 12864, Note_on_c, 2, 60, 112
4, 12956, Note_off_c, 2, 60, 100
4, 12960, Note_on_c, 2, 58, 112
4, 13024, Note_off_c, 2, 58, 100
4, 13056, Note_on_c, 2, 58, 112
4, 13148, Note_off_c, 2, 58, 100
4, 13152, Note_on_c, 2, 54, 112
4, 13216, Note_off_c, 2, 54, 100
4, 13248, Note_on_c, 2, 54, 112
4, 13340, Note_off_c, 2, 54, 100
4, 13344, Note_on_c, 2, 55, 112
4, 13408, Note_off_c, 2, 55, 100
4, 13440, Note_on_c, 2, 55, 112
4, 13532, Note_off_c, 2, 55, 100
4, 13536, Note_on_c, 2, 50, 112
4, 13600, Note_off_c, 2, 50, 100
4, 13632, Note_on_c, 2, 50, 112
4, 13820, Note_off_c, 2, 50, 100
4, 13920, Note_on_c, 2, 48, 112
4, 13964, Note_off_c, 2, 48, 100
4, 13968, Note_on_c, 2, 46, 112
4, 14012, Note_off_c, 2, 46, 100
4, 14016, Note_on_c, 2, 48, 112
4, 14108, Note_off_c, 2, 48, 100
4, 14112, Note_on_c, 2, 41, 112
4, 14204, Note_off_c, 2, 41, 100
4, 14208, Note_on_c, 2, 53, 112
4, 14272, Note_off_c, 2, 53, 100
4, 14304, Note_on_c, 2, 46, 112
4, 14396, Note_off_c, 2, 46, 100
4, 14400, Note_on_c, 2, 51, 112
4, 14588, Note_off_c, 2, 51, 100
4, 14688, Note_on_c, 2, 50, 112
4, 14732, Note_off_c, 2, 50, 100
4, 14736, Note_on_c, 2, 48, 112
4, 14780, Note_off_c, 2, 48, 100
4, 14784, Note_on_c, 2, 50, 112
4, 14828, Note_off_c, 2, 50, 100
4, 14832, Note_on_c, 2, 48, 112
4, 14876, Note_off_c, 2, 48, 100
4, 14880, Note_on_c, 2, 46, 112
4, 14972, Note_off_c, 2, 46, 100
4, 14976, Note_on_c, 2, 51, 112
4, 15040, Note_off_c, 2, 51, 100
4, 15072, Note_on_c, 2, 43, 112
4, 15164, Note_off_c, 2, 43, 100
4, 15168, Note_on_c, 2, 44, 112
4, 15260, Note_off_c, 2, 44, 100
4, 15264, Note_on_c, 2, 46, 112
4, 15356, Note_off_c, 2, 46, 100
4, 15360, Note_on_c, 2, 36, 112
4, 15424, Note_off_c, 2, 36, 100
4, 15456, Note_on_c, 2, 43, 112
4, 15548, Note_off_c, 2, 43, 100
4, 15552, Note_on_c, 2, 48, 112
4, 15644, Note_off_c, 2, 48, 100
4, 15648, Note_on_c, 2, 46, 112
4, 15740, Note_off_c, 2, 46, 100
4, 15744, Note_on_c, 2, 44, 112
4, 15836, Note_off_c, 2, 44, 100
4, 15840, Note_on_c, 2, 43, 112
4, 15932, Note_off_c, 2, 43, 100
4, 15936, Note_on_c, 2, 44, 112
4, 16124, Note_off_c, 2, 44, 100
4, 16224, Note_on_c, 2, 56, 112
4, 16316, Note_off_c, 2, 56, 100
4, 16320, Note_on_c, 2, 58, 112
4, 16412, Note_off_c, 2, 58, 100
4, 16416, Note_on_c, 2, 56, 112
4, 16508, Note_off_c, 2, 56, 100
4, 16512, Note_on_c, 2, 55, 112
4, 16604, Note_off_c, 2, 55, 100
4, 16608, Note_on_c, 2, 53, 112
4, 16700, Note_off_c, 2, 53, 100
4, 16704, Note_on_c, 2, 51, 112
4, 16796, Note_off_c, 2, 51, 100
4, 16800, Note_on_c, 2, 53, 112
4, 16892, Note_off_c, 2, 53, 100
4, 16896, Note_on_c, 2, 55, 112
4, 16988, Note_off_c, 2, 55, 100
4, 16992, Note_on_c, 2, 56, 112
4, 17084, Note_off_c, 2, 56, 100
4, 17088, Note_on_c, 2, 58, 112
4, 17276, Note_off_c, 2, 58, 100
4, 17280, Note_on_c, 2, 46, 112
4, 17564, Note_off_c, 2, 46, 100
4, 17568, Note_on_c, 2, 56, 112
4, 17632, Note_off_c, 2, 56, 100
4, 17664, Note_on_c, 2, 55, 112
4, 17756, Note_off_c, 2, 55, 100
4, 17760, Note_on_c, 2, 53, 112
4, 17824, Note_off_c, 2, 53, 100
4, 17856, Note_on_c, 2, 53, 112
4, 17948, Note_off_c, 2, 53, 100
4, 17952, Note_on_c, 2, 51, 112
4, 18016, Note_off_c, 2, 51, 100
4, 18048, Note_on_c, 2, 53, 112
4, 18140, Note_off_c, 2, 53, 100
4, 18144, Note_on_c, 2, 55, 112
4, 18208, Note_off_c, 2, 55, 100
4, 18240, Note_on_c, 2, 55, 112
4, 18332, Note_off_c, 2, 55, 100
4, 18336, Note_on_c, 2, 56, 112
4, 18400, Note_off_c, 2, 56, 100
4, 18432, Note_on_c, 2, 48, 112
4, 18620, Note_off_c, 2, 48, 100
4, 18624, Note_on_c, 2, 47, 112
4, 18812, Note_off_c, 2, 47, 100
4, 18912, Note_on_c, 2, 45, 112
4, 19004, Note_off_c, 2, 45, 100
4, 19008, Note_on_c, 2, 47, 112
4, 19100, Note_off_c, 2, 47, 100
4, 19104, Note_on_c, 2, 43, 112
4, 19168, Note_off_c, 2, 43, 100
4, 19200, Note_on_c, 2, 48, 112
4, 19388, Note_off_c, 2, 48, 100
4, 19392, Note_on_c, 2, 60, 112
4, 19580, Note_off_c, 2, 60, 100
4, 19776, Note_on_c, 2, 48, 112
4, 20060, Note_off_c, 2, 48, 100
4, 20064, Note_on_c, 2, 62, 112
4, 20156, Note_off_c, 2, 62, 100
4, 20160, Note_on_c, 2, 63, 112
4, 20252, Note_off_c, 2, 63, 100
4, 20256, Note_on_c, 2, 58, 112
4, 20348, Note_off_c, 2, 58, 100
4, 20352, Note_on_c, 2, 57, 112
4, 20444, Note_off_c, 2, 57, 100
4, 20448, Note_on_c, 2, 58, 112
4, 20540, Note_off_c, 2, 58, 100
4, 20544, Note_on_c, 2, 60, 112
4, 20636, Note_off_c, 2, 60, 100
4, 20640, Note_on_c, 2, 55, 112
4, 20704, Note_off_c, 2, 55, 100
4, 20736, Note_on_c, 2, 55, 112
4, 20924, Note_off_c, 2, 55, 100
4, 20928, Note_on_c, 2, 54, 112
4, 20992, Note_off_c, 2, 54, 100
4, 21024, Note_on_c, 2, 55, 112
4, 21116, Note_off_c, 2, 55, 100
4, 21120, Note_on_c, 2, 57, 112
4, 21212, Note_off_c, 2, 57, 100
4, 21216, Note_on_c, 2, 58, 112
4, 21260, Note_off_c, 2, 58, 100
4, 21264, Note_on_c, 2, 60, 112
4, 21308, Note_off_c, 2, 60, 100
4, 21312, Note_on_c, 2, 62, 112
4, 21356, Note_off_c, 2, 62, 100
4, 21360, Note_on_c, 2, 63, 112
4, 21404, Note_off_c, 2, 63, 100
4, 21408, Note_on_c, 2, 60, 112
4, 21472, Note_off_c, 2, 60, 100
4, 21504, Note_on_c, 2, 58, 112
4, 21548, Note_off_c, 2, 58, 100
4, 21552, Note_on_c, 2, 62, 112
4, 21596, Note_off_c, 2, 62, 100
4, 21600, Note_on_c, 2, 60, 112
4, 21664, Note_off_c, 2, 60, 100
4, 21696, Note_on_c, 2, 58, 112
4, 21740, Note_off_c, 2, 58, 100
4, 21744, Note_on_c, 2, 60, 112
4, 21788, Note_off_c, 2, 60, 100
4, 21792, Note_on_c, 2, 57, 112
4, 21856, Note_off_c, 2, 57, 100
4, 21888, Note_on_c, 2, 55, 112
4, 21932, Note_off_c, 2, 55, 100
4, 21936, Note_on_c, 2, 57, 112
4, 21980, Note_off_c, 2, 57, 100
4, 21984, Note_on_c, 2, 53, 112
4, 22048, Note_off_c, 2, 53, 100
4, 22080, Note_on_c, 2, 51, 112
4, 22124, Note_off_c, 2, 51, 100
4, 22128, Note_on_c, 2, 53, 112
4, 22172, Note_off_c, 2, 53, 100
4, 22176, Note_on_c, 2, 50, 112
4, 22240, Note_off_c, 2, 50, 100
4, 22272, Note_on_c, 2, 48, 112
4, 22336, Note_off_c, 2, 48, 100
4, 22368, Note_on_c, 2, 51, 112
4, 22412, Note_off_c, 2, 51, 100
4, 22416, Note_on_c, 2, 50, 112
4, 22460, Note_off_c, 2, 50, 100
4, 22464, Note_on_c, 2, 51, 112
4, 22528, Note_off_c, 2, 51, 100
4, 22560, Note_on_c, 2, 42, 112
4, 22652, Note_off_c, 2, 42, 100
4, 22656, Note_on_c, 2, 43, 112
4, 22844, Note_off_c, 2, 43, 100
4, 22944, Note_on_c, 2, 48, 112
4, 23036, Note_off_c, 2, 48, 100
4, 23040, Note_on_c, 2, 50, 112
4, 23228, Note_off_c, 2, 50, 100
4, 23328, Note_on_c, 2, 51, 112
4, 23420, Note_off_c, 2, 51, 100
4, 23424, Note_on_c, 2, 48, 112
4, 23612, Note_off_c, 2, 48, 100
4, 23616, Note_on_c, 2, 50, 112
4, 23804, Note_off_c, 2, 50, 100
4, 23808, Note_on_c, 2, 55, 112
4, 23872, Note_off_c, 2, 55, 100
4, 23904, Note_on_c, 2, 50, 112
4, 23948, Note_off_c, 2, 50, 100
4, 23952, Note_on_c, 2, 48, 112
4, 23996, Note_off_c, 2, 48, 100
4, 24000, Note_on_c, 2, 46, 112
4, 24044, Note_off_c, 2, 46, 100
4, 24048, Note_on_c, 2, 48, 112
4, 24092, Note_off_c, 2, 48, 100
4, 24096, Note_on_c, 2, 45, 112
4, 24284, Note_off_c, 2, 45, 100
4, 24288, Note_on_c, 2, 43, 112
4, 25332, Note_off_c, 2, 43, 64
4, 25332, End_track
5, 0, Start_track
5, 0, Title_t, "Var.XV, Canone alla quinta in moto contrario: Andante"
5, 0, Control_c, 3, 0, 0
5, 0, Program_c, 3, 6
5, 0, Control_c, 3, 7, 127
5, 0, Control_c, 3, 10, 21
5, 0, Control_c, 3, 91, 127
5, 0, Key_signature, -2, "minor"
5, 0, End_track
6, 0, Start_track
6, 0, Title_t, "Bruno de Giusti"
6, 0, Control_c, 4, 0, 0
6, 0, Program_c, 4, 6
6, 0, Control_c, 4, 7, 127
6, 0, Control_c, 4, 10, 67
6, 0, Control_c, 4, 91, 127
6, 0, Key_signature, -2, "minor"
6, 0, End_track
7, 0, Start_track
7, 0, Title_t, "bdg@bruno-de-giusti.net"
7, 0, Control_c, 5, 0, 0
7, 0, Program_c, 5, 6
7, 0, Control_c, 5, 7, 127
7, 0, Control_c, 5, 10, 64
7, 0, Control_c, 5, 91, 127
7, 0, Key_signature, -2, "minor"
7, 0, End_track
8, 0, Start_track
8, 0, Title_t, "www.bruno-de-giusti.net"
8, 0, Control_c, 2, 0, 0
8, 0, Program_c, 2, 6
8, 0, Control_c, 2, 7, 127
8, 0, Control_c, 2, 10, 64
8, 0, Control_c, 2, 91, 127
8, 0, Control_c, 2, 93, 0
8, 0, Key_signature, -2, "minor"
8, 0, End_track
9, 0, Start_track
9, 0, Title_t, "All rights reserved"
9, 0, Control_c, 3, 0, 0
9, 0, Program_c, 3, 6
9, 0, Control_c, 3, 7, 127
9, 0, Control_c, 3, 10, 21
9, 0, Control_c, 3, 91, 127
9, 0, Key_signature, -2, "minor"
9, 0, End_track
10, 0, Start_track
10, 0, Title_t, "BWV 988"
10, 0, Control_c, 2, 0, 0
10, 0, Program_c, 2, 6
10, 0, Control_c, 2, 7, 127
10, 0, Control_c, 2, 10, 64
10, 0, Control_c, 2, 91, 127
10, 0, Control_c, 2, 93, 0
10, 0, Key_signature, -2, "minor"
10, 0, End_track
11, 0, Start_track
11, 0, Title_t, "Johann Sebastian Bach"
11, 0, Control_c, 3, 0, 0
11, 0, Program_c, 3, 6
11, 0, Control_c, 3, 7, 127
11, 0, Control_c, 3, 10, 21
11, 0, Control_c, 3, 91, 127
11, 0, Key_signature, -2, "minor"
11, 0, End_track
12, 0, Start_track
12, 0, Title_t, "Goldberg Variations"
12, 0, Control_c, 4, 0, 0
12, 0, Program_c, 4, 6
12, 0, Control_c, 4, 7, 127
12, 0, Control_c, 4, 10, 67
12, 0, Control_c, 4, 91, 127
12, 0, Key_signature, -2, "minor"
12, 0, End_track
13, 0, Start_track
13, 0, Title_t, "BWV 988"
13, 0, Control_c, 5, 0, 0
13, 0, Program_c, 5, 6
13, 0, Control_c, 5, 7, 127
13, 0, Control_c, 5, 10, 64
13, 0, Control_c, 5, 91, 127
13, 0, Key_signature, -2, "minor"
13, 0, End_track
14, 0, Start_track
14, 0, Title_t, "Johann Sebastian Bach"
14, 0, Control_c, 6, 0, 0
14, 0, Program_c, 6, 6
14, 0, Control_c, 6, 7, 127
14, 0, Control_c, 6, 10, 47
14, 0, Control_c, 6, 91, 127
14, 0, Key_signature, -2, "minor"
14, 0, End_track
15, 0, Start_track
15, 0, Title_t, "Goldberg Variations"
15, 0, Control_c, 7, 0, 0
15, 0, Program_c, 7, 6
15, 0, Control_c, 7, 7, 127
15, 0, Control_c, 7, 10, 91
15, 0, Control_c, 7, 91, 127
15, 0, Key_signature, -2, "minor"
15, 0, End_track
16, 0, Start_track
16, 0, Title_t, "BWV 988"
16, 0, Control_c, 8, 0, 0
16, 0, Program_c, 8, 6
16, 0, Control_c, 8, 7, 127
16, 0, Control_c, 8, 10, 67
16, 0, Control_c, 8, 91, 127
16, 0, Key_signature, -2, "minor"
16, 0, End_track
17, 0, Start_track
17, 0, Title_t, "Bruno de Giusti"
17, 0, Control_c, 2, 0, 0
17, 0, Program_c, 2, 6
17, 0, Control_c, 2, 7, 127
17, 0, Control_c, 2, 10, 64
17, 0, Control_c, 2, 91, 127
17, 0, Control_c, 2, 93, 0
17, 0, Key_signature, -2, "minor"
17, 0, End_track
18, 0, Start_track
18, 0, Title_t, "bdg@bruno-de-giusti.net"
18, 0, Control_c, 2, 0, 0
18, 0, Program_c, 2, 6
18, 0, Control_c, 2, 7, 127
18, 0, Control_c, 2, 10, 64
18, 0, Control_c, 2, 91, 127
18, 0, Control_c, 2, 93, 0
18, 0, Key_signature, -2, "minor"
18, 0, End_track
19, 0, Start_track
19, 0, Title_t, "www.bruno-de-giusti.net"
19, 0, Control_c, 2, 0, 0
19, 0, Program_c, 2, 6
19, 0, Control_c, 2, 7, 127
19, 0, Control_c, 2, 10, 64
19, 0, Control_c, 2, 91, 127
19, 0, Control_c, 2, 93, 0
19, 0, Key_signature, -2, "minor"
19, 0, End_track
20, 0, Start_track
20, 0, Title_t, "All rights reserved"
20, 0, Control_c, 2, 0, 0
20, 0, Program_c, 2, 6
20, 0, Control_c, 2, 7, 127
20, 0, Control_c, 2, 10, 64
20, 0, Control_c, 2, 91, 127
20, 0, Control_c, 2, 93, 0
20, 0, Key_signature, -2, "minor"
20, 0, End_track
21, 0, Start_track
21, 1, Copyright_t, "___________________________________________________\012\012KUNSTDERFUGE.COM LARGE CLASSICAL MIDI COLLECTION\012ONCLASSICAL BY ALESSANDRO SIMONETTO, PROPRIETOR\012___________________________________________________\012\012! Attention: this file is under copyright !\012\012(c)onclassical, (c)degiusti, 2010\012___________________________________________________\012\012NO ONE MAY REPUBLISH THIS FILE WITHOUT PERMISSION\012COMMERCIAL USES OF THIS FILE IS STRICTLY PROHIBITED\012___________________________________________________\012\012Files & contributor's list: http://kunstderfuge.com/\012Terms and conditions: http://kunstderfuge.com/notes.htm"
21, 1, End_track
0, 0, End_of_file