0, 0, Header, 1, 13, 480
1, 0, Start_track
1, 0, Text_t, "D. SHOSTAKOVICH - Fugue in E minor  opus 87 no. 4"
1, 0, Tempo, 576923
1, 0, Time_signature, 4, 2, 24, 8
1, 0, Key_signature, 1, "major"
1, 40, Tempo, 579710
1, 15320, Tempo, 582524
1, 15840, Tempo, 585366
1, 16320, Tempo, 588235
1, 16800, Tempo, 591133
1, 17280, Tempo, 594059
1, 17760, Tempo, 597015
1, 18240, Tempo, 600000
1, 18720, Tempo, 603015
1, 19200, Tempo, 582524
1, 36460, Tempo, 579710
1, 36820, Tempo, 582524
1, 37140, Tempo, 585366
1, 37460, Tempo, 588235
1, 37780, Tempo, 591133
1, 38100, Tempo, 594059
1, 38420, Tempo, 597015
1, 38780, Tempo, 600000
1, 39100, Tempo, 603015
1, 39420, Tempo, 606061
1, 39740, Tempo, 609137
1, 40060, Tempo, 612245
1, 40340, Tempo, 588235
1, 44660, Tempo, 585366
1, 44740, Tempo, 591133
1, 45100, Tempo, 594059
1, 45460, Tempo, 597015
1, 45820, Tempo, 600000
1, 46180, Tempo, 603015
1, 46540, Tempo, 606061
1, 46900, Tempo, 609137
1, 47260, Tempo, 612245
1, 47620, Tempo, 615385
1, 47940, Tempo, 618557
1, 47970, Tempo, 585366
1, 55590, Tempo, 582524
1, 73030, Tempo, 579710
1, 75390, Tempo, 576923
1, 87830, Tempo, 701754
1, 88350, Tempo, 697674
1, 88500, Tempo, 394737
1, 88520, Tempo, 392157
1, 89040, Tempo, 393443
1, 89560, Tempo, 394737
1, 90080, Tempo, 396040
1, 90600, Tempo, 397351
1, 91120, Tempo, 398671
1, 91640, Tempo, 400000
1, 92160, Tempo, 401338
1, 92680, Tempo, 402685
1, 93200, Tempo, 404040
1, 93720, Tempo, 405405
1, 94240, Tempo, 406780
1, 94760, Tempo, 408163
1, 95280, Tempo, 409556
1, 95840, Tempo, 396040
1, 96600, Tempo, 397351
1, 97360, Tempo, 398671
1, 98120, Tempo, 400000
1, 98840, Tempo, 401338
1, 99600, Tempo, 402685
1, 100360, Tempo, 404040
1, 101120, Tempo, 405405
1, 101840, Tempo, 406780
1, 102600, Tempo, 408163
1, 103360, Tempo, 409556
1, 104120, Tempo, 410959
1, 104840, Tempo, 412371
1, 104900, Tempo, 404040
1, 104920, Tempo, 398671
1, 104960, Tempo, 396040
1, 105120, Tempo, 398671
1, 105720, Tempo, 400000
1, 106280, Tempo, 401338
1, 106840, Tempo, 402685
1, 107400, Tempo, 404040
1, 107960, Tempo, 405405
1, 108520, Tempo, 406780
1, 109080, Tempo, 408163
1, 109640, Tempo, 409556
1, 110200, Tempo, 410959
1, 110760, Tempo, 412371
1, 111260, Tempo, 401338
1, 111300, Tempo, 397351
1, 118980, Tempo, 397351
1, 119700, Tempo, 398671
1, 119760, Tempo, 400000
1, 120920, Tempo, 401338
1, 122080, Tempo, 402685
1, 123240, Tempo, 404040
1, 124400, Tempo, 405405
1, 125560, Tempo, 406780
1, 126680, Tempo, 408163
1, 126960, Tempo, 394737
1, 127600, Tempo, 396040
1, 128200, Tempo, 397351
1, 128840, Tempo, 398671
1, 129440, Tempo, 400000
1, 130040, Tempo, 401338
1, 130680, Tempo, 402685
1, 131280, Tempo, 404040
1, 131920, Tempo, 405405
1, 132520, Tempo, 406780
1, 133120, Tempo, 408163
1, 133200, Tempo, 409556
1, 133340, Tempo, 401338
1, 141140, Tempo, 401338
1, 141620, Tempo, 402685
1, 142060, Tempo, 404040
1, 142500, Tempo, 405405
1, 142980, Tempo, 406780
1, 143420, Tempo, 408163
1, 143860, Tempo, 397351
1, 157440, Tempo, 397351
1, 158160, Tempo, 398671
1, 158840, Tempo, 400000
1, 159520, Tempo, 401338
1, 160200, Tempo, 402685
1, 160880, Tempo, 404040
1, 161560, Tempo, 405405
1, 162240, Tempo, 406780
1, 162960, Tempo, 408163
1, 163640, Tempo, 409556
1, 164320, Tempo, 410959
1, 165000, Tempo, 412371
1, 165680, Tempo, 413793
1, 166360, Tempo, 415225
1, 166980, Tempo, 396040
1, 170900, Tempo, 396040
1, 172320, Tempo, 396040
1, 172680, Tempo, 397351
1, 173000, Tempo, 398671
1, 173360, Tempo, 400000
1, 173680, Tempo, 401338
1, 174040, Tempo, 402685
1, 174360, Tempo, 404040
1, 174680, Tempo, 390879
1, 175160, Tempo, 392157
1, 180440, Tempo, 393443
1, 180960, Tempo, 394737
1, 181440, Tempo, 396040
1, 181920, Tempo, 397351
1, 182400, Tempo, 398671
1, 182920, Tempo, 400000
1, 183400, Tempo, 401338
1, 183880, Tempo, 402685
1, 184360, Tempo, 404040
1, 184560, Tempo, 402685
1, 185120, Tempo, 401338
1, 185640, Tempo, 400000
1, 186160, Tempo, 398671
1, 186720, Tempo, 397351
1, 187240, Tempo, 396040
1, 187760, Tempo, 394737
1, 188180, Tempo, 393443
1, 189620, Tempo, 392157
1, 191020, Tempo, 390879
1, 192460, Tempo, 389610
1, 193860, Tempo, 388350
1, 195300, Tempo, 387097
1, 196700, Tempo, 385852
1, 198140, Tempo, 384615
1, 199540, Tempo, 383387
1, 199600, Tempo, 393443
1, 200000, Tempo, 394737
1, 200400, Tempo, 396040
1, 200760, Tempo, 397351
1, 201160, Tempo, 398671
1, 201520, Tempo, 400000
1, 201920, Tempo, 401338
1, 202320, Tempo, 402685
1, 202680, Tempo, 404040
1, 203080, Tempo, 405405
1, 203440, Tempo, 406780
1, 203600, Tempo, 394737
1, 216960, Tempo, 393443
1, 218560, Tempo, 392157
1, 218580, Tempo, 396040
1, 219060, Tempo, 397351
1, 219540, Tempo, 398671
1, 220020, Tempo, 400000
1, 220460, Tempo, 401338
1, 220940, Tempo, 402685
1, 221420, Tempo, 404040
1, 221860, Tempo, 405405
1, 222340, Tempo, 406780
1, 222820, Tempo, 408163
1, 223300, Tempo, 409556
1, 223740, Tempo, 410959
1, 224220, Tempo, 412371
1, 224700, Tempo, 413793
1, 225140, Tempo, 415225
1, 225620, Tempo, 416667
1, 226100, Tempo, 418118
1, 226540, Tempo, 419580
1, 226560, Tempo, 409556
1, 226600, Tempo, 396040
1, 226680, Tempo, 397351
1, 227040, Tempo, 398671
1, 227360, Tempo, 400000
1, 227680, Tempo, 401338
1, 228000, Tempo, 402685
1, 228320, Tempo, 404040
1, 228640, Tempo, 405405
1, 228960, Tempo, 406780
1, 229280, Tempo, 408163
1, 229600, Tempo, 409556
1, 229960, Tempo, 410959
1, 230280, Tempo, 412371
1, 230380, Tempo, 409556
1, 235460, Tempo, 410959
1, 235500, Tempo, 410959
1, 235540, Tempo, 412371
1, 235700, Tempo, 410959
1, 235820, Tempo, 409556
1, 235940, Tempo, 408163
1, 236100, Tempo, 406780
1, 236220, Tempo, 405405
1, 236340, Tempo, 404040
1, 236500, Tempo, 402685
1, 236620, Tempo, 401338
1, 236740, Tempo, 400000
1, 236900, Tempo, 398671
1, 237020, Tempo, 397351
1, 237140, Tempo, 396040
1, 237300, Tempo, 394737
1, 237420, Tempo, 393443
1, 237540, Tempo, 392157
1, 237700, Tempo, 390879
1, 237820, Tempo, 389610
1, 237940, Tempo, 388350
1, 238100, Tempo, 387097
1, 238220, Tempo, 385852
1, 238340, Tempo, 384615
1, 238460, Tempo, 383387
1, 238620, Tempo, 382166
1, 238740, Tempo, 380952
1, 238860, Tempo, 379747
1, 239020, Tempo, 378549
1, 239140, Tempo, 377358
1, 239260, Tempo, 376176
1, 239420, Tempo, 375000
1, 239540, Tempo, 373832
1, 239660, Tempo, 372671
1, 239820, Tempo, 371517
1, 239940, Tempo, 370370
1, 240060, Tempo, 369231
1, 240220, Tempo, 368098
1, 240340, Tempo, 366972
1, 240460, Tempo, 365854
1, 240620, Tempo, 364742
1, 240740, Tempo, 363636
1, 240860, Tempo, 362538
1, 240980, Tempo, 362538
1, 241020, Tempo, 365854
1, 241060, Tempo, 369231
1, 241100, Tempo, 372671
1, 241140, Tempo, 376176
1, 241180, Tempo, 379747
1, 241220, Tempo, 384615
1, 241260, Tempo, 382166
1, 241300, Tempo, 387097
1, 241340, Tempo, 392157
1, 241380, Tempo, 397351
1, 241420, Tempo, 402685
1, 241460, Tempo, 408163
1, 241500, Tempo, 413793
1, 241540, Tempo, 421053
1, 241580, Tempo, 427046
1, 241620, Tempo, 433213
1, 241660, Tempo, 439560
1, 241700, Tempo, 446097
1, 241740, Tempo, 452830
1, 241780, Tempo, 459770
1, 241820, Tempo, 466926
1, 241860, Tempo, 476190
1, 241900, Tempo, 483871
1, 241940, Tempo, 491803
1, 241980, Tempo, 500000
1, 242020, Tempo, 508475
1, 242060, Tempo, 517241
1, 242100, Tempo, 526316
1, 242140, Tempo, 535714
1, 242180, Tempo, 545455
1, 242220, Tempo, 558140
1, 242260, Tempo, 568720
1, 242300, Tempo, 579710
1, 242340, Tempo, 591133
1, 242380, Tempo, 603015
1, 242420, Tempo, 615385
1, 242460, Tempo, 628272
1, 242500, Tempo, 641711
1, 242540, Tempo, 659341
1, 242580, Tempo, 674157
1, 242620, Tempo, 689655
1, 242660, Tempo, 705882
1, 242700, Tempo, 722892
1, 242740, Tempo, 740741
1, 242780, Tempo, 759494
1, 242820, Tempo, 779221
1, 242860, Tempo, 800000
1, 242900, Tempo, 827586
1, 242940, Tempo, 851064
1, 242980, Tempo, 875912
1, 243020, Tempo, 902256
1, 243060, Tempo, 930233
1, 243100, Tempo, 960000
1, 243140, Tempo, 991736
1, 243180, Tempo, 1025641
1, 243220, Tempo, 1071429
1, 243260, Tempo, 1111111
1, 243300, Tempo, 1153846
1, 243340, Tempo, 1200000
1, 243380, Tempo, 1250000
1, 243420, Tempo, 1304348
1, 243460, Tempo, 1363636
1, 243500, Tempo, 1428571
1, 243540, Tempo, 1518987
1, 243540, End_track
2, 0, Start_track
2, 0, Title_t, "sop"
2, 0, MIDI_port, 0
2, 0, Channel_prefix, 0
2, 0, Control_c, 0, 7, 115
2, 0, Control_c, 0, 10, 70
2, 0, Program_c, 0, 0
2, 0, Control_c, 0, 121, 0
2, 0, Control_c, 0, 0, 0
2, 1, Control_c, 0, 93, 16
2, 1, Control_c, 0, 91, 48
2, 26880, Note_on_c, 0, 71, 74
2, 27840, Note_off_c, 0, 71, 64
2, 27840, Note_on_c, 0, 74, 74
2, 28320, Note_off_c, 0, 74, 64
2, 28320, Note_on_c, 0, 76, 74
2, 28800, Note_off_c, 0, 76, 64
2, 28800, Note_on_c, 0, 78, 74
2, 29520, Note_off_c, 0, 78, 64
2, 29520, Note_on_c, 0, 79, 74
2, 29760, Note_off_c, 0, 79, 64
2, 29760, Note_on_c, 0, 78, 74
2, 30720, Note_off_c, 0, 78, 64
2, 30720, Note_on_c, 0, 79, 74
2, 31680, Note_off_c, 0, 79, 64
2, 31680, Note_on_c, 0, 78, 74
2, 32160, Note_off_c, 0, 78, 64
2, 32160, Note_on_c, 0, 76, 74
2, 32640, Note_off_c, 0, 76, 64
2, 32640, Note_on_c, 0, 81, 74
2, 34080, Note_off_c, 0, 81, 64
2, 34080, Note_on_c, 0, 79, 74
2, 34560, Note_off_c, 0, 79, 64
2, 34560, Note_on_c, 0, 78, 61
2, 36000, Note_off_c, 0, 78, 64
2, 36000, Note_on_c, 0, 76, 61
2, 36480, Note_off_c, 0, 76, 64
2, 36480, Note_on_c, 0, 74, 68
2, 36960, Note_off_c, 0, 74, 64
2, 36960, Note_on_c, 0, 76, 69
2, 37440, Note_off_c, 0, 76, 64
2, 37440, Note_on_c, 0, 72, 71
2, 37920, Note_off_c, 0, 72, 64
2, 37920, Note_on_c, 0, 74, 73
2, 38400, Note_off_c, 0, 74, 64
2, 38400, Note_on_c, 0, 76, 74
2, 39360, Note_off_c, 0, 76, 64
2, 39360, Note_on_c, 0, 74, 78
2, 39840, Note_off_c, 0, 74, 64
2, 39840, Note_on_c, 0, 76, 73
2, 40800, Note_off_c, 0, 76, 64
2, 40800, Note_on_c, 0, 71, 65
2, 41040, Note_off_c, 0, 71, 64
2, 41040, Note_on_c, 0, 72, 63
2, 41280, Note_off_c, 0, 72, 64
2, 41280, Note_on_c, 0, 74, 61
2, 41760, Note_off_c, 0, 74, 64
2, 41760, Note_on_c, 0, 76, 61
2, 42240, Note_off_c, 0, 76, 64
2, 42240, Note_on_c, 0, 78, 61
2, 43440, Note_off_c, 0, 78, 64
2, 43440, Note_on_c, 0, 74, 61
2, 43680, Note_off_c, 0, 74, 64
2, 43680, Note_on_c, 0, 76, 61
2, 43920, Note_off_c, 0, 76, 64
2, 43920, Note_on_c, 0, 78, 61
2, 44160, Note_off_c, 0, 78, 64
2, 44160, Note_on_c, 0, 79, 61
2, 44880, Note_off_c, 0, 79, 64
2, 44880, Note_on_c, 0, 76, 62
2, 45120, Note_off_c, 0, 76, 64
2, 45120, Note_on_c, 0, 77, 62
2, 45840, Note_off_c, 0, 77, 64
2, 45840, Note_on_c, 0, 76, 62
2, 46080, Note_off_c, 0, 76, 64
2, 46080, Note_on_c, 0, 74, 62
2, 47520, Note_off_c, 0, 74, 64
2, 47520, Note_on_c, 0, 71, 62
2, 47760, Note_off_c, 0, 71, 64
2, 47760, Note_on_c, 0, 73, 63
2, 48000, Note_off_c, 0, 73, 64
2, 48000, Note_on_c, 0, 74, 58
2, 49920, Note_off_c, 0, 74, 64
2, 49920, Note_on_c, 0, 73, 58
2, 50880, Note_off_c, 0, 73, 64
2, 50880, Note_on_c, 0, 78, 58
2, 51840, Note_off_c, 0, 78, 64
2, 51840, Note_on_c, 0, 76, 58
2, 52320, Note_off_c, 0, 76, 64
2, 52320, Note_on_c, 0, 78, 58
2, 52800, Note_off_c, 0, 78, 64
2, 52800, Note_on_c, 0, 73, 58
2, 53760, Note_off_c, 0, 73, 64
2, 53760, Note_on_c, 0, 72, 58
2, 54240, Note_off_c, 0, 72, 64
2, 54240, Note_on_c, 0, 78, 58
2, 55680, Note_off_c, 0, 78, 64
2, 55680, Note_on_c, 0, 78, 58
2, 57120, Note_off_c, 0, 78, 64
2, 57120, Note_on_c, 0, 79, 71
2, 57600, Note_off_c, 0, 79, 64
2, 57600, Note_on_c, 0, 81, 72
2, 59520, Note_off_c, 0, 81, 64
2, 59520, Note_on_c, 0, 74, 75
2, 60960, Note_off_c, 0, 74, 64
2, 60960, Note_on_c, 0, 76, 67
2, 61440, Note_off_c, 0, 76, 64
2, 61440, Note_on_c, 0, 78, 67
2, 63840, Note_off_c, 0, 78, 64
2, 63840, Note_on_c, 0, 79, 65
2, 64320, Note_off_c, 0, 79, 64
2, 64320, Note_on_c, 0, 76, 65
2, 64800, Note_off_c, 0, 76, 64
2, 64800, Note_on_c, 0, 74, 65
2, 65280, Note_off_c, 0, 74, 64
2, 65280, Note_on_c, 0, 72, 64
2, 66240, Note_off_c, 0, 72, 64
2, 66240, Note_on_c, 0, 71, 64
2, 67200, Note_off_c, 0, 71, 64
2, 67200, Note_on_c, 0, 72, 63
2, 67680, Note_off_c, 0, 72, 64
2, 67680, Note_on_c, 0, 71, 62
2, 68640, Note_off_c, 0, 71, 64
2, 68640, Note_on_c, 0, 69, 62
2, 69120, Note_off_c, 0, 69, 64
2, 69120, Note_on_c, 0, 76, 72
2, 69600, Note_off_c, 0, 76, 64
2, 69600, Note_on_c, 0, 74, 60
2, 70080, Note_off_c, 0, 74, 64
2, 70080, Note_on_c, 0, 76, 74
2, 70560, Note_off_c, 0, 76, 64
2, 70560, Note_on_c, 0, 74, 60
2, 71040, Note_off_c, 0, 74, 64
2, 71040, Note_on_c, 0, 77, 72
2, 71520, Note_off_c, 0, 77, 64
2, 71520, Note_on_c, 0, 76, 68
2, 72480, Note_off_c, 0, 76, 64
2, 72480, Note_on_c, 0, 74, 68
2, 73440, Note_off_c, 0, 74, 64
2, 73440, Note_on_c, 0, 70, 69
2, 73680, Note_off_c, 0, 70, 64
2, 73680, Note_on_c, 0, 72, 66
2, 73920, Note_off_c, 0, 72, 64
2, 73920, Note_on_c, 0, 74, 63
2, 75360, Note_off_c, 0, 74, 64
2, 75360, Note_on_c, 0, 69, 76
2, 75600, Note_off_c, 0, 69, 64
2, 75600, Note_on_c, 0, 70, 72
2, 75840, Note_off_c, 0, 70, 64
2, 75840, Note_on_c, 0, 72, 67
2, 76800, Note_off_c, 0, 72, 64
2, 76800, Note_on_c, 0, 74, 65
2, 77280, Note_off_c, 0, 74, 64
2, 77280, Note_on_c, 0, 69, 63
2, 77520, Note_off_c, 0, 69, 64
2, 77520, Note_on_c, 0, 70, 62
2, 77760, Note_off_c, 0, 70, 64
2, 77760, Note_on_c, 0, 72, 61
2, 78240, Note_off_c, 0, 72, 64
2, 78240, Note_on_c, 0, 74, 59
2, 78720, Note_off_c, 0, 74, 64
2, 78720, Note_on_c, 0, 76, 57
2, 79920, Note_off_c, 0, 76, 64
2, 79920, Note_on_c, 0, 72, 60
2, 80160, Note_off_c, 0, 72, 64
2, 80160, Note_on_c, 0, 74, 64
2, 80400, Note_off_c, 0, 74, 64
2, 80400, Note_on_c, 0, 76, 67
2, 80640, Note_off_c, 0, 76, 64
2, 80640, Note_on_c, 0, 77, 71
2, 81360, Note_off_c, 0, 77, 64
2, 81360, Note_on_c, 0, 74, 74
2, 81600, Note_off_c, 0, 74, 64
2, 81600, Note_on_c, 0, 75, 75
2, 82320, Note_off_c, 0, 75, 64
2, 82320, Note_on_c, 0, 74, 77
2, 82560, Note_off_c, 0, 74, 64
2, 82560, Note_on_c, 0, 75, 78
2, 84000, Note_off_c, 0, 75, 64
2, 84000, Note_on_c, 0, 74, 78
2, 84480, Note_off_c, 0, 74, 64
2, 84480, Note_on_c, 0, 72, 78
2, 84960, Note_off_c, 0, 72, 64
2, 88560, Note_on_c, 0, 71, 68
2, 88800, Note_off_c, 0, 71, 64
2, 88800, Note_on_c, 0, 78, 68
2, 89040, Note_off_c, 0, 78, 64
2, 89040, Note_on_c, 0, 79, 68
2, 89280, Note_off_c, 0, 79, 64
2, 89280, Note_on_c, 0, 78, 68
2, 90000, Note_off_c, 0, 78, 64
2, 90000, Note_on_c, 0, 79, 68
2, 90240, Note_off_c, 0, 79, 64
2, 90240, Note_on_c, 0, 78, 68
2, 90480, Note_off_c, 0, 78, 64
2, 90480, Note_on_c, 0, 76, 68
2, 90720, Note_off_c, 0, 76, 64
2, 90720, Note_on_c, 0, 74, 68
2, 90960, Note_off_c, 0, 74, 64
2, 90960, Note_on_c, 0, 73, 68
2, 91200, Note_off_c, 0, 73, 64
2, 91200, Note_on_c, 0, 74, 68
2, 91680, Note_off_c, 0, 74, 64
2, 91680, Note_on_c, 0, 73, 68
2, 91920, Note_off_c, 0, 73, 64
2, 91920, Note_on_c, 0, 74, 68
2, 92160, Note_off_c, 0, 74, 64
2, 92160, Note_on_c, 0, 71, 68
2, 92640, Note_off_c, 0, 71, 64
2, 92640, Note_on_c, 0, 71, 68
2, 92880, Note_off_c, 0, 71, 64
2, 92880, Note_on_c, 0, 73, 68
2, 93120, Note_off_c, 0, 73, 64
2, 93120, Note_on_c, 0, 74, 68
2, 93360, Note_off_c, 0, 74, 64
2, 93360, Note_on_c, 0, 78, 68
2, 93600, Note_off_c, 0, 78, 64
2, 93600, Note_on_c, 0, 79, 68
2, 93840, Note_off_c, 0, 79, 64
2, 93840, Note_on_c, 0, 81, 68
2, 94080, Note_off_c, 0, 81, 64
2, 94080, Note_on_c, 0, 78, 68
2, 94320, Note_off_c, 0, 78, 64
2, 94320, Note_on_c, 0, 76, 68
2, 94560, Note_off_c, 0, 76, 64
2, 94560, Note_on_c, 0, 78, 68
2, 94800, Note_off_c, 0, 78, 64
2, 94800, Note_on_c, 0, 79, 68
2, 95040, Note_off_c, 0, 79, 64
2, 95040, Note_on_c, 0, 76, 68
2, 96240, Note_off_c, 0, 76, 64
2, 96480, Note_on_c, 0, 78, 62
2, 97440, Note_off_c, 0, 78, 64
2, 97440, Note_on_c, 0, 73, 62
2, 97920, Note_off_c, 0, 73, 64
2, 97920, Note_on_c, 0, 78, 62
2, 98400, Note_off_c, 0, 78, 64
2, 98400, Note_on_c, 0, 76, 62
2, 98880, Note_off_c, 0, 76, 64
2, 98880, Note_on_c, 0, 74, 62
2, 99120, Note_off_c, 0, 74, 64
2, 99120, Note_on_c, 0, 76, 62
2, 99360, Note_off_c, 0, 76, 64
2, 99360, Note_on_c, 0, 73, 62
2, 99840, Note_off_c, 0, 73, 64
2, 99840, Note_on_c, 0, 78, 62
2, 100560, Note_off_c, 0, 78, 64
2, 100560, Note_on_c, 0, 80, 62
2, 100800, Note_off_c, 0, 80, 64
2, 100800, Note_on_c, 0, 81, 62
2, 101280, Note_off_c, 0, 81, 64
2, 101280, Note_on_c, 0, 80, 62
2, 102000, Note_off_c, 0, 80, 64
2, 102000, Note_on_c, 0, 78, 68
2, 102240, Note_off_c, 0, 78, 64
2, 102240, Note_on_c, 0, 80, 68
2, 102480, Note_off_c, 0, 80, 64
2, 102480, Note_on_c, 0, 81, 68
2, 102720, Note_off_c, 0, 81, 64
2, 102720, Note_on_c, 0, 78, 68
2, 103920, Note_off_c, 0, 78, 64
2, 103920, Note_on_c, 0, 76, 68
2, 104160, Note_off_c, 0, 76, 64
2, 104160, Note_on_c, 0, 78, 68
2, 104400, Note_off_c, 0, 78, 64
2, 104400, Note_on_c, 0, 79, 68
2, 104640, Note_off_c, 0, 79, 64
2, 104640, Note_on_c, 0, 76, 75
2, 105840, Note_off_c, 0, 76, 64
2, 105840, Note_on_c, 0, 78, 75
2, 106080, Note_off_c, 0, 78, 64
2, 106080, Note_on_c, 0, 74, 75
2, 106800, Note_off_c, 0, 74, 64
2, 106800, Note_on_c, 0, 76, 75
2, 107040, Note_off_c, 0, 76, 64
2, 107040, Note_on_c, 0, 78, 75
2, 107280, Note_off_c, 0, 78, 64
2, 107280, Note_on_c, 0, 79, 75
2, 107520, Note_off_c, 0, 79, 64
2, 107520, Note_on_c, 0, 78, 75
2, 108720, Note_off_c, 0, 78, 64
2, 108720, Note_on_c, 0, 76, 75
2, 108960, Note_off_c, 0, 76, 64
2, 108960, Note_on_c, 0, 74, 75
2, 109200, Note_off_c, 0, 74, 64
2, 109200, Note_on_c, 0, 76, 75
2, 109440, Note_off_c, 0, 76, 64
2, 109440, Note_on_c, 0, 78, 75
2, 109920, Note_off_c, 0, 78, 64
2, 109920, Note_on_c, 0, 83, 77
2, 110880, Note_off_c, 0, 83, 64
2, 110880, Note_on_c, 0, 81, 70
2, 111840, Note_off_c, 0, 81, 64
2, 111840, Note_on_c, 0, 79, 72
2, 112800, Note_off_c, 0, 79, 64
2, 112800, Note_on_c, 0, 78, 74
2, 114000, Note_off_c, 0, 78, 64
2, 114000, Note_on_c, 0, 76, 77
2, 114240, Note_off_c, 0, 76, 64
2, 114240, Note_on_c, 0, 78, 78
2, 114480, Note_off_c, 0, 78, 64
2, 114480, Note_on_c, 0, 80, 79
2, 114720, Note_off_c, 0, 80, 64
2, 114720, Note_on_c, 0, 81, 79
2, 115440, Note_off_c, 0, 81, 64
2, 115440, Note_on_c, 0, 80, 81
2, 115680, Note_off_c, 0, 80, 64
2, 115680, Note_on_c, 0, 85, 82
2, 116640, Note_off_c, 0, 85, 64
2, 116640, Note_on_c, 0, 83, 84
2, 117120, Note_off_c, 0, 83, 64
2, 117120, Note_on_c, 0, 81, 85
2, 118320, Note_off_c, 0, 81, 64
2, 118320, Note_on_c, 0, 80, 95
2, 118560, Note_off_c, 0, 80, 64
2, 118560, Note_on_c, 0, 81, 95
2, 118800, Note_off_c, 0, 81, 64
2, 118800, Note_on_c, 0, 83, 95
2, 119040, Note_off_c, 0, 83, 64
2, 119040, Note_on_c, 0, 80, 95
2, 120240, Note_off_c, 0, 80, 64
2, 120240, Note_on_c, 0, 78, 95
2, 120480, Note_off_c, 0, 78, 64
2, 120480, Note_on_c, 0, 80, 95
2, 120720, Note_off_c, 0, 80, 64
2, 120720, Note_on_c, 0, 81, 95
2, 120960, Note_off_c, 0, 81, 64
2, 120960, Note_on_c, 0, 78, 95
2, 122400, Note_off_c, 0, 78, 64
2, 122400, Note_on_c, 0, 76, 95
2, 123360, Note_off_c, 0, 76, 64
2, 123360, Note_on_c, 0, 74, 90
2, 125040, Note_off_c, 0, 74, 64
2, 125040, Note_on_c, 0, 72, 77
2, 125280, Note_off_c, 0, 72, 64
2, 125280, Note_on_c, 0, 74, 75
2, 125520, Note_off_c, 0, 74, 64
2, 125520, Note_on_c, 0, 75, 74
2, 125760, Note_off_c, 0, 75, 64
2, 125760, Note_on_c, 0, 72, 72
2, 127200, Note_off_c, 0, 72, 64
2, 127200, Note_on_c, 0, 74, 66
2, 128160, Note_off_c, 0, 74, 64
2, 128160, Note_on_c, 0, 69, 66
2, 128640, Note_off_c, 0, 69, 64
2, 128640, Note_on_c, 0, 74, 66
2, 129120, Note_off_c, 0, 74, 64
2, 129120, Note_on_c, 0, 72, 66
2, 129600, Note_off_c, 0, 72, 64
2, 129600, Note_on_c, 0, 70, 66
2, 129840, Note_off_c, 0, 70, 64
2, 129840, Note_on_c, 0, 72, 66
2, 130080, Note_off_c, 0, 72, 64
2, 130080, Note_on_c, 0, 69, 66
2, 130560, Note_off_c, 0, 69, 64
2, 130560, Note_on_c, 0, 74, 66
2, 131280, Note_off_c, 0, 74, 64
2, 131280, Note_on_c, 0, 76, 71
2, 131520, Note_off_c, 0, 76, 64
2, 131520, Note_on_c, 0, 77, 74
2, 132000, Note_off_c, 0, 77, 64
2, 132000, Note_on_c, 0, 76, 80
2, 132480, Note_off_c, 0, 76, 64
2, 132720, Note_on_c, 0, 69, 84
2, 132960, Note_off_c, 0, 69, 64
2, 132960, Note_on_c, 0, 76, 84
2, 133200, Note_off_c, 0, 76, 64
2, 133200, Note_on_c, 0, 77, 84
2, 133440, Note_off_c, 0, 77, 64
2, 133440, Note_on_c, 0, 76, 84
2, 134160, Note_off_c, 0, 76, 64
2, 134160, Note_on_c, 0, 77, 85
2, 134400, Note_off_c, 0, 77, 64
2, 134400, Note_on_c, 0, 76, 85
2, 134640, Note_off_c, 0, 76, 64
2, 134640, Note_on_c, 0, 74, 85
2, 134880, Note_off_c, 0, 74, 64
2, 134880, Note_on_c, 0, 72, 85
2, 135120, Note_off_c, 0, 72, 64
2, 135120, Note_on_c, 0, 71, 85
2, 135360, Note_off_c, 0, 71, 64
2, 135360, Note_on_c, 0, 72, 86
2, 135840, Note_off_c, 0, 72, 64
2, 135840, Note_on_c, 0, 71, 86
2, 136080, Note_off_c, 0, 71, 64
2, 136080, Note_on_c, 0, 72, 86
2, 136320, Note_off_c, 0, 72, 64
2, 136320, Note_on_c, 0, 69, 86
2, 136800, Note_off_c, 0, 69, 64
2, 136800, Note_on_c, 0, 69, 87
2, 137040, Note_off_c, 0, 69, 64
2, 137040, Note_on_c, 0, 71, 87
2, 137280, Note_off_c, 0, 71, 64
2, 137280, Note_on_c, 0, 72, 87
2, 137520, Note_off_c, 0, 72, 64
2, 137520, Note_on_c, 0, 76, 87
2, 137760, Note_off_c, 0, 76, 64
2, 137760, Note_on_c, 0, 77, 87
2, 138000, Note_off_c, 0, 77, 64
2, 138000, Note_on_c, 0, 79, 88
2, 138240, Note_off_c, 0, 79, 64
2, 138240, Note_on_c, 0, 76, 88
2, 138480, Note_off_c, 0, 76, 64
2, 138480, Note_on_c, 0, 74, 88
2, 138720, Note_off_c, 0, 74, 64
2, 138720, Note_on_c, 0, 76, 88
2, 138960, Note_off_c, 0, 76, 64
2, 138960, Note_on_c, 0, 77, 88
2, 139200, Note_off_c, 0, 77, 64
2, 139200, Note_on_c, 0, 74, 88
2, 140640, Note_off_c, 0, 74, 64
2, 140640, Note_on_c, 0, 72, 85
2, 141360, Note_off_c, 0, 72, 64
2, 141360, Note_on_c, 0, 71, 85
2, 141600, Note_off_c, 0, 71, 64
2, 141600, Note_on_c, 0, 72, 85
2, 141840, Note_off_c, 0, 72, 64
2, 141840, Note_on_c, 0, 74, 85
2, 142080, Note_off_c, 0, 74, 64
2, 142080, Note_on_c, 0, 72, 85
2, 143280, Note_off_c, 0, 72, 64
2, 143280, Note_on_c, 0, 71, 85
2, 143520, Note_off_c, 0, 71, 64
2, 143520, Note_on_c, 0, 72, 85
2, 143760, Note_off_c, 0, 72, 64
2, 143760, Note_on_c, 0, 74, 85
2, 144000, Note_off_c, 0, 74, 64
2, 144000, Note_on_c, 0, 71, 79
2, 145440, Note_off_c, 0, 71, 64
2, 145440, Note_on_c, 0, 72, 81
2, 146400, Note_off_c, 0, 72, 64
2, 146400, Note_on_c, 0, 71, 83
2, 147120, Note_off_c, 0, 71, 64
2, 147120, Note_on_c, 0, 69, 85
2, 147360, Note_off_c, 0, 69, 64
2, 147360, Note_on_c, 0, 71, 85
2, 147600, Note_off_c, 0, 71, 64
2, 147600, Note_on_c, 0, 72, 85
2, 147840, Note_off_c, 0, 72, 64
2, 147840, Note_on_c, 0, 69, 86
2, 148080, Note_off_c, 0, 69, 64
2, 148080, Note_on_c, 0, 71, 86
2, 148320, Note_off_c, 0, 71, 64
2, 148320, Note_on_c, 0, 72, 87
2, 149280, Note_off_c, 0, 72, 64
2, 149280, Note_on_c, 0, 74, 89
2, 149760, Note_off_c, 0, 74, 64
2, 149760, Note_on_c, 0, 75, 90
2, 150240, Note_off_c, 0, 75, 64
2, 150240, Note_on_c, 0, 74, 91
2, 150720, Note_off_c, 0, 74, 64
2, 150960, Note_on_c, 0, 67, 92
2, 151200, Note_off_c, 0, 67, 64
2, 151200, Note_on_c, 0, 74, 92
2, 151440, Note_off_c, 0, 74, 64
2, 151440, Note_on_c, 0, 75, 93
2, 151680, Note_off_c, 0, 75, 64
2, 151680, Note_on_c, 0, 74, 93
2, 152400, Note_off_c, 0, 74, 64
2, 152400, Note_on_c, 0, 75, 105
2, 152640, Note_off_c, 0, 75, 64
2, 152640, Note_on_c, 0, 74, 105
2, 152880, Note_off_c, 0, 74, 64
2, 152880, Note_on_c, 0, 72, 105
2, 153120, Note_off_c, 0, 72, 64
2, 153120, Note_on_c, 0, 70, 105
2, 153360, Note_off_c, 0, 70, 64
2, 153360, Note_on_c, 0, 69, 105
2, 153600, Note_off_c, 0, 69, 64
2, 153600, Note_on_c, 0, 70, 105
2, 154080, Note_off_c, 0, 70, 64
2, 154080, Note_on_c, 0, 69, 105
2, 154320, Note_off_c, 0, 69, 64
2, 154320, Note_on_c, 0, 70, 105
2, 154560, Note_off_c, 0, 70, 64
2, 154560, Note_on_c, 0, 67, 105
2, 155040, Note_off_c, 0, 67, 64
2, 155040, Note_on_c, 0, 67, 105
2, 155280, Note_off_c, 0, 67, 64
2, 155280, Note_on_c, 0, 69, 105
2, 155520, Note_off_c, 0, 69, 64
2, 155520, Note_on_c, 0, 70, 105
2, 155760, Note_off_c, 0, 70, 64
2, 155760, Note_on_c, 0, 74, 105
2, 156000, Note_off_c, 0, 74, 64
2, 156000, Note_on_c, 0, 75, 105
2, 156240, Note_off_c, 0, 75, 64
2, 156240, Note_on_c, 0, 77, 105
2, 156480, Note_off_c, 0, 77, 64
2, 156480, Note_on_c, 0, 74, 105
2, 156720, Note_off_c, 0, 74, 64
2, 156720, Note_on_c, 0, 72, 105
2, 156960, Note_off_c, 0, 72, 64
2, 156960, Note_on_c, 0, 74, 105
2, 157200, Note_off_c, 0, 74, 64
2, 157200, Note_on_c, 0, 75, 105
2, 157440, Note_off_c, 0, 75, 64
2, 157440, Note_on_c, 0, 72, 105
2, 158640, Note_off_c, 0, 72, 64
2, 158640, Note_on_c, 0, 70, 105
2, 158880, Note_off_c, 0, 70, 64
2, 158880, Note_on_c, 0, 72, 105
2, 159120, Note_off_c, 0, 72, 64
2, 159120, Note_on_c, 0, 74, 105
2, 159360, Note_off_c, 0, 74, 64
2, 159360, Note_on_c, 0, 75, 105
2, 160560, Note_off_c, 0, 75, 64
2, 160560, Note_on_c, 0, 74, 105
2, 160800, Note_off_c, 0, 74, 64
2, 160800, Note_on_c, 0, 75, 106
2, 161040, Note_off_c, 0, 75, 64
2, 161040, Note_on_c, 0, 77, 106
2, 161280, Note_off_c, 0, 77, 64
2, 161280, Note_on_c, 0, 79, 107
2, 162480, Note_off_c, 0, 79, 64
2, 162480, Note_on_c, 0, 77, 109
2, 162720, Note_off_c, 0, 77, 64
2, 162720, Note_on_c, 0, 79, 110
2, 162960, Note_off_c, 0, 79, 64
2, 162960, Note_on_c, 0, 81, 110
2, 163200, Note_off_c, 0, 81, 64
2, 163200, Note_on_c, 0, 82, 111
2, 163680, Note_off_c, 0, 82, 64
2, 163680, Note_on_c, 0, 81, 112
2, 163920, Note_off_c, 0, 81, 64
2, 163920, Note_on_c, 0, 82, 113
2, 164160, Note_off_c, 0, 82, 64
2, 164160, Note_on_c, 0, 84, 113
2, 164640, Note_off_c, 0, 84, 64
2, 164640, Note_on_c, 0, 82, 114
2, 164880, Note_off_c, 0, 82, 64
2, 164880, Note_on_c, 0, 84, 115
2, 165120, Note_off_c, 0, 84, 64
2, 165120, Note_on_c, 0, 86, 115
2, 165600, Note_off_c, 0, 86, 64
2, 165600, Note_on_c, 0, 84, 116
2, 165840, Note_off_c, 0, 84, 64
2, 165840, Note_on_c, 0, 86, 117
2, 166080, Note_off_c, 0, 86, 64
2, 166080, Note_on_c, 0, 88, 117
2, 166560, Note_off_c, 0, 88, 64
2, 167280, Note_on_c, 0, 76, 120
2, 167520, Note_off_c, 0, 76, 64
2, 167520, Note_on_c, 0, 83, 120
2, 167760, Note_off_c, 0, 83, 64
2, 167760, Note_on_c, 0, 84, 120
2, 168000, Note_off_c, 0, 84, 64
2, 168000, Note_on_c, 0, 83, 120
2, 168720, Note_off_c, 0, 83, 64
2, 168720, Note_on_c, 0, 84, 119
2, 168960, Note_off_c, 0, 84, 64
2, 168960, Note_on_c, 0, 83, 119
2, 169200, Note_off_c, 0, 83, 64
2, 169200, Note_on_c, 0, 81, 119
2, 169440, Note_off_c, 0, 81, 64
2, 169440, Note_on_c, 0, 79, 119
2, 169680, Note_off_c, 0, 79, 64
2, 169680, Note_on_c, 0, 78, 119
2, 169920, Note_off_c, 0, 78, 64
2, 169920, Note_on_c, 0, 79, 118
2, 170400, Note_off_c, 0, 79, 64
2, 170400, Note_on_c, 0, 78, 118
2, 170640, Note_off_c, 0, 78, 64
2, 170640, Note_on_c, 0, 79, 118
2, 170880, Note_off_c, 0, 79, 64
2, 170880, Note_on_c, 0, 76, 118
2, 171360, Note_off_c, 0, 76, 64
2, 171360, Note_on_c, 0, 76, 117
2, 171600, Note_off_c, 0, 76, 64
2, 171600, Note_on_c, 0, 78, 117
2, 171840, Note_off_c, 0, 78, 64
2, 171840, Note_on_c, 0, 79, 117
2, 172080, Note_off_c, 0, 79, 64
2, 172080, Note_on_c, 0, 83, 117
2, 172320, Note_off_c, 0, 83, 64
2, 172320, Note_on_c, 0, 84, 117
2, 172560, Note_off_c, 0, 84, 64
2, 172560, Note_on_c, 0, 86, 117
2, 172800, Note_off_c, 0, 86, 64
2, 172800, Note_on_c, 0, 83, 116
2, 173040, Note_off_c, 0, 83, 64
2, 173040, Note_on_c, 0, 81, 116
2, 173280, Note_off_c, 0, 81, 64
2, 173280, Note_on_c, 0, 83, 116
2, 173520, Note_off_c, 0, 83, 64
2, 173520, Note_on_c, 0, 84, 116
2, 173760, Note_off_c, 0, 84, 64
2, 173760, Note_on_c, 0, 81, 116
2, 174720, Note_off_c, 0, 81, 64
2, 174720, Note_on_c, 0, 83, 115
2, 175680, Note_off_c, 0, 83, 64
2, 175680, Note_on_c, 0, 74, 114
2, 176160, Note_off_c, 0, 74, 64
2, 176160, Note_on_c, 0, 76, 114
2, 176640, Note_off_c, 0, 76, 64
2, 176640, Note_on_c, 0, 78, 114
2, 177360, Note_off_c, 0, 78, 64
2, 177360, Note_on_c, 0, 79, 113
2, 177600, Note_off_c, 0, 79, 64
2, 177600, Note_on_c, 0, 78, 113
2, 178560, Note_off_c, 0, 78, 64
2, 178560, Note_on_c, 0, 79, 112
2, 179520, Note_off_c, 0, 79, 64
2, 179520, Note_on_c, 0, 78, 112
2, 180000, Note_off_c, 0, 78, 64
2, 180000, Note_on_c, 0, 76, 111
2, 180480, Note_off_c, 0, 76, 64
2, 180480, Note_on_c, 0, 81, 111
2, 181920, Note_off_c, 0, 81, 64
2, 181920, Note_on_c, 0, 79, 110
2, 182400, Note_off_c, 0, 79, 64
2, 182400, Note_on_c, 0, 78, 110
2, 182640, Note_off_c, 0, 78, 64
2, 182640, Note_on_c, 0, 76, 109
2, 182880, Note_off_c, 0, 76, 64
2, 182880, Note_on_c, 0, 78, 109
2, 183120, Note_off_c, 0, 78, 64
2, 183120, Note_on_c, 0, 79, 109
2, 183360, Note_off_c, 0, 79, 64
2, 183360, Note_on_c, 0, 76, 109
2, 183840, Note_off_c, 0, 76, 64
2, 183840, Note_on_c, 0, 74, 109
2, 184800, Note_off_c, 0, 74, 64
2, 184800, Note_on_c, 0, 73, 108
2, 185520, Note_off_c, 0, 73, 64
2, 185520, Note_on_c, 0, 71, 107
2, 185760, Note_off_c, 0, 71, 64
2, 185760, Note_on_c, 0, 73, 107
2, 186000, Note_off_c, 0, 73, 64
2, 186000, Note_on_c, 0, 74, 107
2, 186240, Note_off_c, 0, 74, 64
2, 186240, Note_on_c, 0, 76, 107
2, 186480, Note_off_c, 0, 76, 64
2, 186480, Note_on_c, 0, 73, 107
2, 186720, Note_off_c, 0, 73, 64
2, 186720, Note_on_c, 0, 74, 107
2, 186960, Note_off_c, 0, 74, 64
2, 186960, Note_on_c, 0, 76, 106
2, 187200, Note_off_c, 0, 76, 64
2, 187200, Note_on_c, 0, 78, 106
2, 187440, Note_off_c, 0, 78, 64
2, 187440, Note_on_c, 0, 74, 106
2, 187680, Note_off_c, 0, 74, 64
2, 187680, Note_on_c, 0, 76, 106
2, 187920, Note_off_c, 0, 76, 64
2, 187920, Note_on_c, 0, 78, 106
2, 188160, Note_off_c, 0, 78, 64
2, 188160, Note_on_c, 0, 79, 109
2, 188640, Note_off_c, 0, 79, 64
2, 188640, Note_on_c, 0, 78, 96
2, 189120, Note_off_c, 0, 78, 64
2, 189120, Note_on_c, 0, 79, 110
2, 189600, Note_off_c, 0, 79, 64
2, 189600, Note_on_c, 0, 78, 98
2, 190080, Note_off_c, 0, 78, 64
2, 190080, Note_on_c, 0, 81, 107
2, 190560, Note_off_c, 0, 81, 64
2, 190560, Note_on_c, 0, 79, 95
2, 191520, Note_off_c, 0, 79, 64
2, 191520, Note_on_c, 0, 78, 90
2, 192000, Note_off_c, 0, 78, 64
2, 192000, Note_on_c, 0, 81, 105
2, 192480, Note_off_c, 0, 81, 64
2, 192480, Note_on_c, 0, 79, 93
2, 192960, Note_off_c, 0, 79, 64
2, 192960, Note_on_c, 0, 81, 107
2, 193440, Note_off_c, 0, 81, 64
2, 193440, Note_on_c, 0, 79, 92
2, 193920, Note_off_c, 0, 79, 64
2, 193920, Note_on_c, 0, 83, 110
2, 194400, Note_off_c, 0, 83, 64
2, 194400, Note_on_c, 0, 81, 93
2, 195360, Note_off_c, 0, 81, 64
2, 195360, Note_on_c, 0, 79, 113
2, 195840, Note_off_c, 0, 79, 64
2, 196080, Note_on_c, 0, 71, 115
2, 196320, Note_off_c, 0, 71, 64
2, 196320, Note_on_c, 0, 78, 115
2, 196560, Note_off_c, 0, 78, 64
2, 196560, Note_on_c, 0, 79, 115
2, 196800, Note_off_c, 0, 79, 64
2, 196800, Note_on_c, 0, 78, 112
2, 197520, Note_off_c, 0, 78, 64
2, 197520, Note_on_c, 0, 79, 105
2, 197760, Note_off_c, 0, 79, 64
2, 197760, Note_on_c, 0, 81, 101
2, 198000, Note_off_c, 0, 81, 64
2, 198000, Note_on_c, 0, 74, 102
2, 198240, Note_off_c, 0, 74, 64
2, 198240, Note_on_c, 0, 81, 103
2, 198480, Note_off_c, 0, 81, 64
2, 198480, Note_on_c, 0, 83, 104
2, 198720, Note_off_c, 0, 83, 64
2, 198720, Note_on_c, 0, 81, 105
2, 199440, Note_off_c, 0, 81, 64
2, 199440, Note_on_c, 0, 83, 107
2, 199680, Note_off_c, 0, 83, 64
2, 199680, Note_on_c, 0, 84, 108
2, 200160, Note_off_c, 0, 84, 64
2, 200160, Note_on_c, 0, 83, 106
2, 200640, Note_off_c, 0, 83, 64
2, 200640, Note_on_c, 0, 86, 106
2, 201120, Note_off_c, 0, 86, 64
2, 201120, Note_on_c, 0, 81, 106
2, 201360, Note_off_c, 0, 81, 64
2, 201360, Note_on_c, 0, 83, 107
2, 201600, Note_off_c, 0, 83, 64
2, 201600, Note_on_c, 0, 84, 107
2, 202080, Note_off_c, 0, 84, 64
2, 202080, Note_on_c, 0, 83, 107
2, 202560, Note_off_c, 0, 83, 64
2, 202560, Note_on_c, 0, 88, 108
2, 203040, Note_off_c, 0, 88, 64
2, 203040, Note_on_c, 0, 81, 108
2, 203520, Note_off_c, 0, 81, 64
2, 203760, Note_on_c, 0, 69, 120
2, 204000, Note_off_c, 0, 69, 64
2, 204000, Note_on_c, 0, 76, 120
2, 204240, Note_off_c, 0, 76, 64
2, 204240, Note_on_c, 0, 78, 119
2, 204480, Note_off_c, 0, 78, 64
2, 204480, Note_on_c, 0, 76, 119
2, 205200, Note_off_c, 0, 76, 64
2, 205200, Note_on_c, 0, 78, 118
2, 205440, Note_off_c, 0, 78, 64
2, 205440, Note_on_c, 0, 76, 117
2, 205680, Note_off_c, 0, 76, 64
2, 205680, Note_on_c, 0, 74, 117
2, 205920, Note_off_c, 0, 74, 64
2, 205920, Note_on_c, 0, 72, 116
2, 206160, Note_off_c, 0, 72, 64
2, 206160, Note_on_c, 0, 71, 116
2, 206400, Note_off_c, 0, 71, 64
2, 206400, Note_on_c, 0, 72, 115
2, 206880, Note_off_c, 0, 72, 64
2, 206880, Note_on_c, 0, 71, 115
2, 207120, Note_off_c, 0, 71, 64
2, 207120, Note_on_c, 0, 72, 114
2, 207360, Note_off_c, 0, 72, 64
2, 207360, Note_on_c, 0, 69, 114
2, 207840, Note_off_c, 0, 69, 64
2, 207840, Note_on_c, 0, 69, 113
2, 208080, Note_off_c, 0, 69, 64
2, 208080, Note_on_c, 0, 71, 113
2, 208320, Note_off_c, 0, 71, 64
2, 208320, Note_on_c, 0, 72, 112
2, 208560, Note_off_c, 0, 72, 64
2, 208560, Note_on_c, 0, 76, 112
2, 208800, Note_off_c, 0, 76, 64
2, 208800, Note_on_c, 0, 77, 111
2, 209040, Note_off_c, 0, 77, 64
2, 209040, Note_on_c, 0, 79, 111
2, 209280, Note_off_c, 0, 79, 64
2, 209280, Note_on_c, 0, 76, 110
2, 209520, Note_off_c, 0, 76, 64
2, 209520, Note_on_c, 0, 74, 111
2, 209760, Note_off_c, 0, 74, 64
2, 209760, Note_on_c, 0, 76, 112
2, 210000, Note_off_c, 0, 76, 64
2, 210000, Note_on_c, 0, 77, 113
2, 210240, Note_off_c, 0, 77, 64
2, 210240, Note_on_c, 0, 74, 105
2, 211200, Note_off_c, 0, 74, 64
2, 211440, Note_on_c, 0, 76, 120
2, 211680, Note_off_c, 0, 76, 64
2, 211680, Note_on_c, 0, 83, 120
2, 211920, Note_off_c, 0, 83, 64
2, 211920, Note_on_c, 0, 84, 119
2, 212160, Note_off_c, 0, 84, 64
2, 212160, Note_on_c, 0, 83, 119
2, 212880, Note_off_c, 0, 83, 64
2, 212880, Note_on_c, 0, 84, 117
2, 213120, Note_off_c, 0, 84, 64
2, 213120, Note_on_c, 0, 83, 117
2, 213360, Note_off_c, 0, 83, 64
2, 213360, Note_on_c, 0, 81, 117
2, 213600, Note_off_c, 0, 81, 64
2, 213600, Note_on_c, 0, 79, 116
2, 213840, Note_off_c, 0, 79, 64
2, 213840, Note_on_c, 0, 78, 116
2, 214080, Note_off_c, 0, 78, 64
2, 214080, Note_on_c, 0, 79, 115
2, 214560, Note_off_c, 0, 79, 64
2, 214560, Note_on_c, 0, 78, 114
2, 214800, Note_off_c, 0, 78, 64
2, 214800, Note_on_c, 0, 79, 114
2, 215040, Note_off_c, 0, 79, 64
2, 215040, Note_on_c, 0, 76, 114
2, 215520, Note_off_c, 0, 76, 64
2, 215520, Note_on_c, 0, 76, 113
2, 215760, Note_off_c, 0, 76, 64
2, 215760, Note_on_c, 0, 78, 112
2, 216000, Note_off_c, 0, 78, 64
2, 216000, Note_on_c, 0, 79, 112
2, 216240, Note_off_c, 0, 79, 64
2, 216240, Note_on_c, 0, 83, 111
2, 216480, Note_off_c, 0, 83, 64
2, 216480, Note_on_c, 0, 84, 111
2, 216720, Note_off_c, 0, 84, 64
2, 216720, Note_on_c, 0, 86, 111
2, 216960, Note_off_c, 0, 86, 64
2, 216960, Note_on_c, 0, 83, 110
2, 217200, Note_off_c, 0, 83, 64
2, 217200, Note_on_c, 0, 81, 110
2, 217440, Note_off_c, 0, 81, 64
2, 217440, Note_on_c, 0, 83, 109
2, 217680, Note_off_c, 0, 83, 64
2, 217680, Note_on_c, 0, 84, 109
2, 217920, Note_off_c, 0, 84, 64
2, 217920, Note_on_c, 0, 81, 108
2, 218880, Note_off_c, 0, 81, 64
2, 218880, Note_on_c, 0, 81, 95
2, 220080, Note_off_c, 0, 81, 64
2, 220080, Note_on_c, 0, 79, 95
2, 220320, Note_off_c, 0, 79, 64
2, 220320, Note_on_c, 0, 81, 90
2, 220560, Note_off_c, 0, 81, 64
2, 220560, Note_on_c, 0, 83, 90
2, 220800, Note_off_c, 0, 83, 64
2, 220800, Note_on_c, 0, 79, 90
2, 221040, Note_off_c, 0, 79, 64
2, 221040, Note_on_c, 0, 78, 90
2, 221280, Note_off_c, 0, 78, 64
2, 221280, Note_on_c, 0, 79, 90
2, 221520, Note_off_c, 0, 79, 64
2, 221520, Note_on_c, 0, 81, 90
2, 221760, Note_off_c, 0, 81, 64
2, 221760, Note_on_c, 0, 78, 90
2, 222000, Note_off_c, 0, 78, 64
2, 222000, Note_on_c, 0, 76, 90
2, 222240, Note_off_c, 0, 76, 64
2, 222240, Note_on_c, 0, 78, 89
2, 222480, Note_off_c, 0, 78, 64
2, 222480, Note_on_c, 0, 79, 89
2, 222720, Note_off_c, 0, 79, 64
2, 222720, Note_on_c, 0, 76, 89
2, 223440, Note_off_c, 0, 76, 64
2, 223440, Note_on_c, 0, 74, 77
2, 223680, Note_off_c, 0, 74, 64
2, 223680, Note_on_c, 0, 76, 72
2, 223920, Note_off_c, 0, 76, 64
2, 223920, Note_on_c, 0, 74, 75
2, 224160, Note_off_c, 0, 74, 64
2, 224160, Note_on_c, 0, 76, 77
2, 224400, Note_off_c, 0, 76, 64
2, 224400, Note_on_c, 0, 78, 79
2, 224640, Note_off_c, 0, 78, 64
2, 224640, Note_on_c, 0, 79, 81
2, 224880, Note_off_c, 0, 79, 64
2, 224880, Note_on_c, 0, 78, 84
2, 225120, Note_off_c, 0, 78, 64
2, 225120, Note_on_c, 0, 79, 86
2, 225360, Note_off_c, 0, 79, 64
2, 225360, Note_on_c, 0, 81, 88
2, 225600, Note_off_c, 0, 81, 64
2, 225600, Note_on_c, 0, 82, 90
2, 227040, Note_off_c, 0, 82, 64
2, 227040, Note_on_c, 0, 83, 104
2, 227520, Note_off_c, 0, 83, 64
2, 227520, Note_on_c, 0, 81, 105
2, 228000, Note_off_c, 0, 81, 64
2, 228000, Note_on_c, 0, 79, 106
2, 228480, Note_off_c, 0, 79, 64
2, 228480, Note_on_c, 0, 78, 107
2, 229920, Note_off_c, 0, 78, 64
2, 229920, Note_on_c, 0, 76, 110
2, 230400, Note_off_c, 0, 76, 64
2, 230400, Note_on_c, 0, 74, 111
2, 231840, Note_off_c, 0, 74, 64
2, 231840, Note_on_c, 0, 74, 113
2, 232800, Note_off_c, 0, 74, 64
2, 232800, Note_on_c, 0, 72, 115
2, 233280, Note_off_c, 0, 72, 64
2, 233280, Note_on_c, 0, 74, 116
2, 233760, Note_off_c, 0, 74, 64
2, 233760, Note_on_c, 0, 76, 117
2, 234240, Note_off_c, 0, 76, 64
2, 234480, Note_on_c, 0, 62, 119
2, 234720, Note_off_c, 0, 62, 64
2, 234720, Note_on_c, 0, 69, 122
2, 234960, Note_off_c, 0, 69, 64
2, 234960, Note_on_c, 0, 71, 122
2, 235200, Note_off_c, 0, 71, 64
2, 235200, Note_on_c, 0, 69, 122
2, 235920, Note_off_c, 0, 69, 64
2, 235920, Note_on_c, 0, 71, 122
2, 236160, Note_off_c, 0, 71, 64
2, 236160, Note_on_c, 0, 69, 122
2, 236640, Note_off_c, 0, 69, 64
2, 236640, Note_on_c, 0, 67, 122
2, 237120, Note_off_c, 0, 67, 64
2, 237120, Note_on_c, 0, 66, 122
2, 237600, Note_off_c, 0, 66, 64
2, 237600, Note_on_c, 0, 64, 122
2, 238080, Note_off_c, 0, 64, 64
2, 238080, Note_on_c, 0, 64, 108
2, 239520, Note_off_c, 0, 64, 64
2, 239520, Note_on_c, 0, 62, 109
2, 240480, Note_off_c, 0, 62, 64
2, 240480, Note_on_c, 0, 60, 109
2, 241440, Note_off_c, 0, 60, 64
2, 241440, Note_on_c, 0, 59, 110
2, 242400, Note_off_c, 0, 59, 64
2, 242400, Note_on_c, 0, 64, 124
2, 242880, Note_off_c, 0, 64, 64
2, 242880, Note_on_c, 0, 71, 124
2, 243360, Note_off_c, 0, 71, 64
2, 243360, Note_on_c, 0, 72, 124
2, 243840, Note_off_c, 0, 72, 64
2, 243840, Note_on_c, 0, 71, 124
2, 245756, Control_c, 0, 93, 0
2, 245756, Control_c, 0, 91, 0
2, 245758, Control_c, 0, 121, 0
2, 245760, Note_off_c, 0, 71, 64
2, 245760, End_track
3, 0, Start_track
3, 0, Title_t, "alt"
3, 0, MIDI_port, 0
3, 0, Channel_prefix, 1
3, 0, Control_c, 1, 7, 119
3, 0, Control_c, 1, 10, 66
3, 0, Program_c, 1, 0
3, 0, Control_c, 1, 121, 0
3, 0, Control_c, 1, 0, 0
3, 1, Control_c, 1, 93, 16
3, 1, Control_c, 1, 91, 48
3, 7674, Note_on_c, 1, 59, 74
3, 8603, Note_off_c, 1, 59, 64
3, 8634, Note_on_c, 1, 62, 74
3, 9098, Note_off_c, 1, 62, 64
3, 9112, Note_on_c, 1, 64, 74
3, 9578, Note_off_c, 1, 64, 64
3, 9597, Note_on_c, 1, 66, 74
3, 10290, Note_off_c, 1, 66, 64
3, 10312, Note_on_c, 1, 67, 74
3, 10545, Note_off_c, 1, 67, 64
3, 10568, Note_on_c, 1, 66, 74
3, 11483, Note_off_c, 1, 66, 64
3, 11523, Note_on_c, 1, 67, 74
3, 12443, Note_off_c, 1, 67, 64
3, 12472, Note_on_c, 1, 66, 74
3, 12938, Note_off_c, 1, 66, 64
3, 12967, Note_on_c, 1, 64, 74
3, 13418, Note_off_c, 1, 64, 64
3, 13442, Note_on_c, 1, 69, 74
3, 14829, Note_off_c, 1, 69, 64
3, 14879, Note_on_c, 1, 67, 74
3, 15338, Note_off_c, 1, 67, 64
3, 15352, Note_on_c, 1, 66, 70
3, 16749, Note_off_c, 1, 66, 64
3, 16796, Note_on_c, 1, 64, 66
3, 17258, Note_off_c, 1, 64, 64
3, 17278, Note_on_c, 1, 62, 65
3, 17738, Note_off_c, 1, 62, 64
3, 17763, Note_on_c, 1, 64, 64
3, 18218, Note_off_c, 1, 64, 64
3, 18245, Note_on_c, 1, 60, 61
3, 18698, Note_off_c, 1, 60, 64
3, 18712, Note_on_c, 1, 62, 61
3, 19178, Note_off_c, 1, 62, 64
3, 19206, Note_on_c, 1, 64, 61
3, 19658, Note_off_c, 1, 64, 64
3, 19674, Note_on_c, 1, 62, 61
3, 20603, Note_off_c, 1, 62, 64
3, 20642, Note_on_c, 1, 60, 61
3, 21098, Note_off_c, 1, 60, 64
3, 21121, Note_on_c, 1, 67, 74
3, 21578, Note_off_c, 1, 67, 64
3, 21608, Note_on_c, 1, 66, 61
3, 22058, Note_off_c, 1, 66, 64
3, 22079, Note_on_c, 1, 67, 74
3, 22538, Note_off_c, 1, 67, 64
3, 22555, Note_on_c, 1, 66, 61
3, 23018, Note_off_c, 1, 66, 64
3, 23037, Note_on_c, 1, 69, 71
3, 23498, Note_off_c, 1, 69, 64
3, 23525, Note_on_c, 1, 67, 61
3, 24443, Note_off_c, 1, 67, 64
3, 24477, Note_on_c, 1, 66, 61
3, 25403, Note_off_c, 1, 66, 64
3, 25440, Note_on_c, 1, 62, 66
3, 25665, Note_off_c, 1, 62, 64
3, 25682, Note_on_c, 1, 64, 63
3, 25905, Note_off_c, 1, 64, 64
3, 25913, Note_on_c, 1, 66, 60
3, 26843, Note_off_c, 1, 66, 64
3, 26888, Note_on_c, 1, 67, 61
3, 27338, Note_off_c, 1, 67, 64
3, 27364, Note_on_c, 1, 62, 65
3, 27585, Note_off_c, 1, 62, 64
3, 27594, Note_on_c, 1, 64, 60
3, 27825, Note_off_c, 1, 64, 64
3, 27839, Note_on_c, 1, 66, 56
3, 28298, Note_off_c, 1, 66, 64
3, 28324, Note_on_c, 1, 67, 61
3, 28778, Note_off_c, 1, 67, 64
3, 28808, Note_on_c, 1, 69, 61
3, 29956, Note_off_c, 1, 69, 64
3, 30005, Note_on_c, 1, 66, 60
3, 30225, Note_off_c, 1, 66, 64
3, 30242, Note_on_c, 1, 67, 63
3, 30465, Note_off_c, 1, 67, 64
3, 30482, Note_on_c, 1, 69, 66
3, 30705, Note_off_c, 1, 69, 64
3, 30728, Note_on_c, 1, 71, 70
3, 31410, Note_off_c, 1, 71, 64
3, 31443, Note_on_c, 1, 67, 61
3, 31665, Note_off_c, 1, 67, 64
3, 31676, Note_on_c, 1, 69, 61
3, 32370, Note_off_c, 1, 69, 64
3, 32401, Note_on_c, 1, 67, 61
3, 32625, Note_off_c, 1, 67, 64
3, 32636, Note_on_c, 1, 66, 61
3, 34029, Note_off_c, 1, 66, 64
3, 34081, Note_on_c, 1, 62, 61
3, 34305, Note_off_c, 1, 62, 64
3, 34324, Note_on_c, 1, 64, 61
3, 34545, Note_off_c, 1, 64, 64
3, 34556, Note_on_c, 1, 66, 61
3, 35949, Note_off_c, 1, 66, 64
3, 36001, Note_on_c, 1, 67, 61
3, 36458, Note_off_c, 1, 67, 64
3, 36480, Note_on_c, 1, 69, 68
3, 37403, Note_off_c, 1, 69, 64
3, 37448, Note_on_c, 1, 67, 71
3, 38829, Note_off_c, 1, 67, 64
3, 38883, Note_on_c, 1, 66, 76
3, 39105, Note_off_c, 1, 66, 64
3, 39125, Note_on_c, 1, 67, 71
3, 39345, Note_off_c, 1, 67, 64
3, 39362, Note_on_c, 1, 69, 67
3, 40283, Note_off_c, 1, 69, 64
3, 40319, Note_on_c, 1, 67, 62
3, 40778, Note_off_c, 1, 67, 64
3, 40805, Note_on_c, 1, 66, 62
3, 41723, Note_off_c, 1, 66, 64
3, 41764, Note_on_c, 1, 64, 63
3, 42218, Note_off_c, 1, 64, 64
3, 42248, Note_on_c, 1, 71, 73
3, 42698, Note_off_c, 1, 71, 64
3, 42715, Note_on_c, 1, 69, 60
3, 43178, Note_off_c, 1, 69, 64
3, 43202, Note_on_c, 1, 71, 70
3, 43658, Note_off_c, 1, 71, 64
3, 43687, Note_on_c, 1, 69, 62
3, 44138, Note_off_c, 1, 69, 64
3, 44162, Note_on_c, 1, 72, 62
3, 44618, Note_off_c, 1, 72, 64
3, 44647, Note_on_c, 1, 71, 63
3, 45563, Note_off_c, 1, 71, 64
3, 45600, Note_on_c, 1, 69, 64
3, 46523, Note_off_c, 1, 69, 64
3, 46560, Note_on_c, 1, 65, 64
3, 46785, Note_off_c, 1, 65, 64
3, 46799, Note_on_c, 1, 67, 60
3, 47025, Note_off_c, 1, 67, 64
3, 47047, Note_on_c, 1, 69, 55
3, 47963, Note_off_c, 1, 69, 64
3, 48007, Note_on_c, 1, 62, 68
3, 48923, Note_off_c, 1, 62, 64
3, 48955, Note_on_c, 1, 66, 68
3, 49418, Note_off_c, 1, 66, 64
3, 49436, Note_on_c, 1, 67, 68
3, 49898, Note_off_c, 1, 67, 64
3, 49915, Note_on_c, 1, 69, 69
3, 50610, Note_off_c, 1, 69, 64
3, 50644, Note_on_c, 1, 71, 69
3, 50865, Note_off_c, 1, 71, 64
3, 50887, Note_on_c, 1, 69, 69
3, 51803, Note_off_c, 1, 69, 64
3, 51842, Note_on_c, 1, 71, 70
3, 52763, Note_off_c, 1, 71, 64
3, 52792, Note_on_c, 1, 69, 70
3, 53258, Note_off_c, 1, 69, 64
3, 53282, Note_on_c, 1, 67, 70
3, 53738, Note_off_c, 1, 67, 64
3, 53752, Note_on_c, 1, 72, 71
3, 55149, Note_off_c, 1, 72, 64
3, 55201, Note_on_c, 1, 71, 71
3, 55658, Note_off_c, 1, 71, 64
3, 55681, Note_on_c, 1, 69, 68
3, 57069, Note_off_c, 1, 69, 64
3, 57119, Note_on_c, 1, 67, 71
3, 57578, Note_off_c, 1, 67, 64
3, 57593, Note_on_c, 1, 66, 72
3, 58058, Note_off_c, 1, 66, 64
3, 58088, Note_on_c, 1, 67, 74
3, 58538, Note_off_c, 1, 67, 64
3, 58554, Note_on_c, 1, 64, 75
3, 59018, Note_off_c, 1, 64, 64
3, 59042, Note_on_c, 1, 66, 76
3, 60894, Note_off_c, 1, 66, 64
3, 60952, Note_on_c, 1, 64, 78
3, 61418, Note_off_c, 1, 64, 64
3, 61434, Note_on_c, 1, 62, 77
3, 61898, Note_off_c, 1, 62, 64
3, 61923, Note_on_c, 1, 64, 76
3, 62378, Note_off_c, 1, 64, 64
3, 62397, Note_on_c, 1, 60, 74
3, 62858, Note_off_c, 1, 60, 64
3, 62877, Note_on_c, 1, 62, 73
3, 63338, Note_off_c, 1, 62, 64
3, 63363, Note_on_c, 1, 64, 72
3, 64749, Note_off_c, 1, 64, 64
3, 64798, Note_on_c, 1, 66, 68
3, 65258, Note_off_c, 1, 66, 64
3, 65279, Note_on_c, 1, 67, 66
3, 65738, Note_off_c, 1, 67, 64
3, 65755, Note_on_c, 1, 69, 65
3, 66683, Note_off_c, 1, 69, 64
3, 66723, Note_on_c, 1, 67, 62
3, 67178, Note_off_c, 1, 67, 64
3, 67194, Note_on_c, 1, 69, 61
3, 67658, Note_off_c, 1, 69, 64
3, 67680, Note_on_c, 1, 64, 60
3, 67905, Note_off_c, 1, 64, 64
3, 67920, Note_on_c, 1, 65, 58
3, 68145, Note_off_c, 1, 65, 64
3, 68165, Note_on_c, 1, 67, 58
3, 68618, Note_off_c, 1, 67, 64
3, 68639, Note_on_c, 1, 69, 58
3, 69098, Note_off_c, 1, 69, 64
3, 69112, Note_on_c, 1, 71, 58
3, 70276, Note_off_c, 1, 71, 64
3, 70317, Note_on_c, 1, 67, 59
3, 70545, Note_off_c, 1, 67, 64
3, 70558, Note_on_c, 1, 69, 60
3, 70785, Note_off_c, 1, 69, 64
3, 70794, Note_on_c, 1, 71, 60
3, 71025, Note_off_c, 1, 71, 64
3, 71046, Note_on_c, 1, 72, 60
3, 71730, Note_off_c, 1, 72, 64
3, 71764, Note_on_c, 1, 69, 60
3, 71985, Note_off_c, 1, 69, 64
3, 72007, Note_on_c, 1, 70, 61
3, 72690, Note_off_c, 1, 70, 64
3, 72722, Note_on_c, 1, 69, 61
3, 72945, Note_off_c, 1, 69, 64
3, 72963, Note_on_c, 1, 67, 61
3, 74349, Note_off_c, 1, 67, 64
3, 74400, Note_on_c, 1, 64, 73
3, 74625, Note_off_c, 1, 64, 64
3, 74644, Note_on_c, 1, 65, 70
3, 74865, Note_off_c, 1, 65, 64
3, 74884, Note_on_c, 1, 67, 67
3, 75803, Note_off_c, 1, 67, 64
3, 75848, Note_on_c, 1, 65, 75
3, 76298, Note_off_c, 1, 65, 64
3, 76319, Note_on_c, 1, 67, 76
3, 76778, Note_off_c, 1, 67, 64
3, 76798, Note_on_c, 1, 69, 69
3, 77258, Note_off_c, 1, 69, 64
3, 77753, Note_on_c, 1, 69, 74
3, 78218, Note_off_c, 1, 69, 64
3, 78247, Note_on_c, 1, 70, 74
3, 78698, Note_off_c, 1, 70, 64
3, 78725, Note_on_c, 1, 72, 74
3, 79410, Note_off_c, 1, 72, 64
3, 79439, Note_on_c, 1, 74, 74
3, 79665, Note_off_c, 1, 74, 64
3, 79673, Note_on_c, 1, 72, 74
3, 80603, Note_off_c, 1, 72, 64
3, 80646, Note_on_c, 1, 74, 74
3, 81563, Note_off_c, 1, 74, 64
3, 81604, Note_on_c, 1, 72, 75
3, 82058, Note_off_c, 1, 72, 64
3, 82072, Note_on_c, 1, 70, 75
3, 82538, Note_off_c, 1, 70, 64
3, 82559, Note_on_c, 1, 72, 76
3, 83949, Note_off_c, 1, 72, 64
3, 84007, Note_on_c, 1, 69, 77
3, 84225, Note_off_c, 1, 69, 64
3, 84233, Note_on_c, 1, 70, 74
3, 84465, Note_off_c, 1, 70, 64
3, 84474, Note_on_c, 1, 72, 71
3, 85869, Note_off_c, 1, 72, 64
3, 85915, Note_on_c, 1, 70, 74
3, 86145, Note_off_c, 1, 70, 64
3, 86153, Note_on_c, 1, 69, 71
3, 86385, Note_off_c, 1, 69, 64
3, 86402, Note_on_c, 1, 67, 67
3, 87789, Note_off_c, 1, 67, 64
3, 87834, Note_on_c, 1, 69, 69
3, 88065, Note_off_c, 1, 69, 64
3, 88082, Note_on_c, 1, 67, 67
3, 88305, Note_off_c, 1, 67, 64
3, 88321, Note_on_c, 1, 66, 62
3, 90407, Note_off_c, 1, 66, 64
3, 90723, Note_on_c, 1, 67, 55
3, 91178, Note_off_c, 1, 67, 64
3, 91684, Note_on_c, 1, 66, 55
3, 92138, Note_off_c, 1, 66, 64
3, 92647, Note_on_c, 1, 66, 55
3, 93098, Note_off_c, 1, 66, 64
3, 93603, Note_on_c, 1, 64, 55
3, 94523, Note_off_c, 1, 64, 64
3, 95277, Note_on_c, 1, 66, 68
3, 95505, Note_off_c, 1, 66, 64
3, 95525, Note_on_c, 1, 73, 68
3, 95745, Note_off_c, 1, 73, 64
3, 95758, Note_on_c, 1, 74, 68
3, 95985, Note_off_c, 1, 74, 64
3, 96008, Note_on_c, 1, 73, 68
3, 96690, Note_off_c, 1, 73, 64
3, 96725, Note_on_c, 1, 74, 68
3, 96945, Note_off_c, 1, 74, 64
3, 96955, Note_on_c, 1, 73, 68
3, 97185, Note_off_c, 1, 73, 64
3, 97194, Note_on_c, 1, 71, 68
3, 97425, Note_off_c, 1, 71, 64
3, 97438, Note_on_c, 1, 69, 68
3, 97665, Note_off_c, 1, 69, 64
3, 97675, Note_on_c, 1, 68, 68
3, 97905, Note_off_c, 1, 68, 64
3, 97921, Note_on_c, 1, 69, 68
3, 98378, Note_off_c, 1, 69, 64
3, 98395, Note_on_c, 1, 68, 68
3, 98625, Note_off_c, 1, 68, 64
3, 98648, Note_on_c, 1, 69, 68
3, 98865, Note_off_c, 1, 69, 64
3, 98875, Note_on_c, 1, 66, 68
3, 99338, Note_off_c, 1, 66, 64
3, 99358, Note_on_c, 1, 66, 68
3, 99585, Note_off_c, 1, 66, 64
3, 99597, Note_on_c, 1, 68, 68
3, 99825, Note_off_c, 1, 68, 64
3, 99834, Note_on_c, 1, 69, 68
3, 100065, Note_off_c, 1, 69, 64
3, 100075, Note_on_c, 1, 73, 68
3, 100305, Note_off_c, 1, 73, 64
3, 100312, Note_on_c, 1, 74, 68
3, 100545, Note_off_c, 1, 74, 64
3, 100565, Note_on_c, 1, 76, 68
3, 100785, Note_off_c, 1, 76, 64
3, 100804, Note_on_c, 1, 73, 68
3, 101025, Note_off_c, 1, 73, 64
3, 101046, Note_on_c, 1, 71, 68
3, 101265, Note_off_c, 1, 71, 64
3, 101272, Note_on_c, 1, 73, 68
3, 101505, Note_off_c, 1, 73, 64
3, 101519, Note_on_c, 1, 74, 68
3, 101745, Note_off_c, 1, 74, 64
3, 101759, Note_on_c, 1, 71, 68
3, 102916, Note_off_c, 1, 71, 64
3, 102965, Note_on_c, 1, 69, 68
3, 103185, Note_off_c, 1, 69, 64
3, 103199, Note_on_c, 1, 71, 68
3, 103425, Note_off_c, 1, 71, 64
3, 103440, Note_on_c, 1, 73, 68
3, 103665, Note_off_c, 1, 73, 64
3, 103684, Note_on_c, 1, 69, 68
3, 106000, Note_off_c, 1, 69, 64
3, 106076, Note_on_c, 1, 71, 75
3, 107003, Note_off_c, 1, 71, 64
3, 107041, Note_on_c, 1, 66, 75
3, 107498, Note_off_c, 1, 66, 64
3, 107513, Note_on_c, 1, 71, 75
3, 107978, Note_off_c, 1, 71, 64
3, 108007, Note_on_c, 1, 69, 75
3, 108458, Note_off_c, 1, 69, 64
3, 108487, Note_on_c, 1, 67, 75
3, 108705, Note_off_c, 1, 67, 64
3, 108726, Note_on_c, 1, 69, 75
3, 108945, Note_off_c, 1, 69, 64
3, 108953, Note_on_c, 1, 66, 75
3, 109418, Note_off_c, 1, 66, 64
3, 109440, Note_on_c, 1, 71, 75
3, 110130, Note_off_c, 1, 71, 64
3, 110162, Note_on_c, 1, 73, 78
3, 110385, Note_off_c, 1, 73, 64
3, 110404, Note_on_c, 1, 74, 80
3, 110858, Note_off_c, 1, 74, 64
3, 110884, Note_on_c, 1, 73, 74
3, 111338, Note_off_c, 1, 73, 64
3, 111356, Note_on_c, 1, 71, 74
3, 112516, Note_off_c, 1, 71, 64
3, 112567, Note_on_c, 1, 73, 76
3, 112785, Note_off_c, 1, 73, 64
3, 112805, Note_on_c, 1, 69, 77
3, 113490, Note_off_c, 1, 69, 64
3, 113515, Note_on_c, 1, 71, 78
3, 113745, Note_off_c, 1, 71, 64
3, 113761, Note_on_c, 1, 73, 78
3, 113985, Note_off_c, 1, 73, 64
3, 113992, Note_on_c, 1, 74, 79
3, 114225, Note_off_c, 1, 74, 64
3, 114240, Note_on_c, 1, 73, 79
3, 115396, Note_off_c, 1, 73, 64
3, 115445, Note_on_c, 1, 71, 81
3, 115665, Note_off_c, 1, 71, 64
3, 115683, Note_on_c, 1, 69, 82
3, 115905, Note_off_c, 1, 69, 64
3, 115912, Note_on_c, 1, 71, 82
3, 116145, Note_off_c, 1, 71, 64
3, 116164, Note_on_c, 1, 73, 82
3, 116618, Note_off_c, 1, 73, 64
3, 116641, Note_on_c, 1, 78, 83
3, 117563, Note_off_c, 1, 78, 64
3, 117607, Note_on_c, 1, 76, 85
3, 118523, Note_off_c, 1, 76, 64
3, 118566, Note_on_c, 1, 74, 95
3, 119483, Note_off_c, 1, 74, 64
3, 119525, Note_on_c, 1, 73, 95
3, 121142, Note_off_c, 1, 73, 64
3, 121197, Note_on_c, 1, 71, 95
3, 121425, Note_off_c, 1, 71, 64
3, 121438, Note_on_c, 1, 73, 95
3, 121665, Note_off_c, 1, 73, 64
3, 121680, Note_on_c, 1, 74, 95
3, 121905, Note_off_c, 1, 74, 64
3, 121912, Note_on_c, 1, 71, 95
3, 122843, Note_off_c, 1, 71, 64
3, 122883, Note_on_c, 1, 69, 93
3, 124036, Note_off_c, 1, 69, 64
3, 124072, Note_on_c, 1, 67, 85
3, 124305, Note_off_c, 1, 67, 64
3, 124325, Note_on_c, 1, 69, 84
3, 124545, Note_off_c, 1, 69, 64
3, 124564, Note_on_c, 1, 70, 83
3, 124785, Note_off_c, 1, 70, 64
3, 124795, Note_on_c, 1, 67, 81
3, 125956, Note_off_c, 1, 67, 64
3, 125994, Note_on_c, 1, 62, 79
3, 126225, Note_off_c, 1, 62, 64
3, 126232, Note_on_c, 1, 69, 79
3, 126465, Note_off_c, 1, 69, 64
3, 126483, Note_on_c, 1, 70, 79
3, 126705, Note_off_c, 1, 70, 64
3, 126712, Note_on_c, 1, 69, 79
3, 127410, Note_off_c, 1, 69, 64
3, 127437, Note_on_c, 1, 70, 79
3, 127665, Note_off_c, 1, 70, 64
3, 127683, Note_on_c, 1, 69, 79
3, 127905, Note_off_c, 1, 69, 64
3, 127925, Note_on_c, 1, 67, 79
3, 128145, Note_off_c, 1, 67, 64
3, 128159, Note_on_c, 1, 65, 79
3, 128385, Note_off_c, 1, 65, 64
3, 128408, Note_on_c, 1, 64, 79
3, 128625, Note_off_c, 1, 64, 64
3, 128642, Note_on_c, 1, 65, 79
3, 129098, Note_off_c, 1, 65, 64
3, 129117, Note_on_c, 1, 64, 79
3, 129345, Note_off_c, 1, 64, 64
3, 129360, Note_on_c, 1, 65, 79
3, 129585, Note_off_c, 1, 65, 64
3, 129606, Note_on_c, 1, 62, 79
3, 130058, Note_off_c, 1, 62, 64
3, 130073, Note_on_c, 1, 62, 79
3, 130305, Note_off_c, 1, 62, 64
3, 130313, Note_on_c, 1, 64, 79
3, 130545, Note_off_c, 1, 64, 64
3, 130554, Note_on_c, 1, 65, 77
3, 130785, Note_off_c, 1, 65, 64
3, 130794, Note_on_c, 1, 69, 79
3, 131025, Note_off_c, 1, 69, 64
3, 131047, Note_on_c, 1, 70, 80
3, 131265, Note_off_c, 1, 70, 64
3, 131277, Note_on_c, 1, 72, 82
3, 131505, Note_off_c, 1, 72, 64
3, 131518, Note_on_c, 1, 69, 83
3, 131745, Note_off_c, 1, 69, 64
3, 131765, Note_on_c, 1, 67, 85
3, 131985, Note_off_c, 1, 67, 64
3, 131992, Note_on_c, 1, 69, 86
3, 132225, Note_off_c, 1, 69, 64
3, 132245, Note_on_c, 1, 70, 88
3, 132465, Note_off_c, 1, 70, 64
3, 132476, Note_on_c, 1, 67, 89
3, 133869, Note_off_c, 1, 67, 64
3, 133927, Note_on_c, 1, 69, 78
3, 134843, Note_off_c, 1, 69, 64
3, 134876, Note_on_c, 1, 64, 78
3, 135338, Note_off_c, 1, 64, 64
3, 135356, Note_on_c, 1, 69, 78
3, 135818, Note_off_c, 1, 69, 64
3, 135835, Note_on_c, 1, 67, 78
3, 136298, Note_off_c, 1, 67, 64
3, 136315, Note_on_c, 1, 65, 78
3, 136545, Note_off_c, 1, 65, 64
3, 136566, Note_on_c, 1, 67, 77
3, 136785, Note_off_c, 1, 67, 64
3, 136806, Note_on_c, 1, 64, 77
3, 137258, Note_off_c, 1, 64, 64
3, 137287, Note_on_c, 1, 69, 77
3, 137970, Note_off_c, 1, 69, 64
3, 138006, Note_on_c, 1, 71, 77
3, 138225, Note_off_c, 1, 71, 64
3, 138242, Note_on_c, 1, 72, 77
3, 138698, Note_off_c, 1, 72, 64
3, 138712, Note_on_c, 1, 71, 77
3, 139410, Note_off_c, 1, 71, 64
3, 139434, Note_on_c, 1, 69, 77
3, 139665, Note_off_c, 1, 69, 64
3, 139675, Note_on_c, 1, 71, 77
3, 139905, Note_off_c, 1, 71, 64
3, 139918, Note_on_c, 1, 72, 77
3, 140145, Note_off_c, 1, 72, 64
3, 140159, Note_on_c, 1, 69, 77
3, 141549, Note_off_c, 1, 69, 64
3, 141595, Note_on_c, 1, 67, 85
3, 142290, Note_off_c, 1, 67, 64
3, 142327, Note_on_c, 1, 65, 85
3, 142545, Note_off_c, 1, 65, 64
3, 142562, Note_on_c, 1, 67, 85
3, 142785, Note_off_c, 1, 67, 64
3, 142801, Note_on_c, 1, 68, 85
3, 143025, Note_off_c, 1, 68, 64
3, 143047, Note_on_c, 1, 65, 85
3, 144429, Note_off_c, 1, 65, 64
3, 144480, Note_on_c, 1, 65, 85
3, 145170, Note_off_c, 1, 65, 64
3, 145204, Note_on_c, 1, 63, 86
3, 145425, Note_off_c, 1, 63, 64
3, 145448, Note_on_c, 1, 65, 86
3, 145665, Note_off_c, 1, 65, 64
3, 145688, Note_on_c, 1, 67, 86
3, 145905, Note_off_c, 1, 67, 64
3, 145926, Note_on_c, 1, 65, 86
3, 147309, Note_off_c, 1, 65, 64
3, 147366, Note_on_c, 1, 63, 88
3, 147818, Note_off_c, 1, 63, 64
3, 147834, Note_on_c, 1, 65, 89
3, 148298, Note_off_c, 1, 65, 64
3, 148318, Note_on_c, 1, 67, 89
3, 149243, Note_off_c, 1, 67, 64
3, 149276, Note_on_c, 1, 65, 91
3, 149738, Note_off_c, 1, 65, 64
3, 149754, Note_on_c, 1, 70, 91
3, 150683, Note_off_c, 1, 70, 64
3, 151208, Note_on_c, 1, 58, 91
3, 151658, Note_off_c, 1, 58, 64
3, 151684, Note_on_c, 1, 60, 91
3, 152138, Note_off_c, 1, 60, 64
3, 152164, Note_on_c, 1, 62, 91
3, 152618, Note_off_c, 1, 62, 64
3, 152632, Note_on_c, 1, 63, 91
3, 153098, Note_off_c, 1, 63, 64
3, 153122, Note_on_c, 1, 65, 91
3, 153578, Note_off_c, 1, 65, 64
3, 153605, Note_on_c, 1, 63, 91
3, 154058, Note_off_c, 1, 63, 64
3, 154084, Note_on_c, 1, 62, 92
3, 154538, Note_off_c, 1, 62, 64
3, 154565, Note_on_c, 1, 60, 92
3, 155018, Note_off_c, 1, 60, 64
3, 155034, Note_on_c, 1, 62, 92
3, 155265, Note_off_c, 1, 62, 64
3, 155284, Note_on_c, 1, 63, 92
3, 155505, Note_off_c, 1, 63, 64
3, 155518, Note_on_c, 1, 65, 92
3, 155978, Note_off_c, 1, 65, 64
3, 156003, Note_on_c, 1, 69, 92
3, 156458, Note_off_c, 1, 69, 64
3, 156487, Note_on_c, 1, 67, 92
3, 156938, Note_off_c, 1, 67, 64
3, 156967, Note_on_c, 1, 67, 93
3, 157418, Note_off_c, 1, 67, 64
3, 157432, Note_on_c, 1, 65, 93
3, 158829, Note_off_c, 1, 65, 64
3, 158885, Note_on_c, 1, 67, 93
3, 159338, Note_off_c, 1, 67, 64
3, 159359, Note_on_c, 1, 70, 93
3, 159818, Note_off_c, 1, 70, 64
3, 159832, Note_on_c, 1, 69, 105
3, 160298, Note_off_c, 1, 69, 64
3, 160315, Note_on_c, 1, 72, 105
3, 160778, Note_off_c, 1, 72, 64
3, 160799, Note_on_c, 1, 70, 106
3, 161258, Note_off_c, 1, 70, 64
3, 161274, Note_on_c, 1, 72, 107
3, 161738, Note_off_c, 1, 72, 64
3, 161767, Note_on_c, 1, 74, 108
3, 162218, Note_off_c, 1, 74, 64
3, 162240, Note_on_c, 1, 75, 109
3, 162698, Note_off_c, 1, 75, 64
3, 162716, Note_on_c, 1, 74, 110
3, 163178, Note_off_c, 1, 74, 64
3, 163204, Note_on_c, 1, 75, 111
3, 163658, Note_off_c, 1, 75, 64
3, 163687, Note_on_c, 1, 74, 112
3, 164138, Note_off_c, 1, 74, 64
3, 164155, Note_on_c, 1, 79, 113
3, 164618, Note_off_c, 1, 79, 64
3, 164632, Note_on_c, 1, 74, 114
3, 164865, Note_off_c, 1, 74, 64
3, 164885, Note_on_c, 1, 76, 115
3, 165105, Note_off_c, 1, 76, 64
3, 165115, Note_on_c, 1, 81, 110
3, 166043, Note_off_c, 1, 81, 64
3, 166081, Note_on_c, 1, 84, 110
3, 166538, Note_off_c, 1, 84, 64
3, 166565, Note_on_c, 1, 74, 110
3, 166566, Note_on_c, 1, 71, 110
3, 167949, Note_off_c, 1, 71, 64
3, 167949, Note_off_c, 1, 74, 64
3, 167997, Note_on_c, 1, 76, 109
3, 168001, Note_on_c, 1, 72, 109
3, 169389, Note_off_c, 1, 72, 64
3, 169389, Note_off_c, 1, 76, 64
3, 169448, Note_on_c, 1, 71, 109
3, 169898, Note_off_c, 1, 71, 64
3, 169926, Note_on_c, 1, 76, 109
3, 170378, Note_off_c, 1, 76, 64
3, 170402, Note_on_c, 1, 74, 108
3, 170858, Note_off_c, 1, 74, 64
3, 170875, Note_on_c, 1, 72, 108
3, 171105, Note_off_c, 1, 72, 64
3, 171125, Note_on_c, 1, 74, 108
3, 171345, Note_off_c, 1, 74, 64
3, 171358, Note_on_c, 1, 71, 108
3, 171818, Note_off_c, 1, 71, 64
3, 171838, Note_on_c, 1, 76, 108
3, 172530, Note_off_c, 1, 76, 64
3, 172552, Note_on_c, 1, 78, 108
3, 172785, Note_off_c, 1, 78, 64
3, 172801, Note_on_c, 1, 79, 107
3, 173258, Note_off_c, 1, 79, 64
3, 173278, Note_on_c, 1, 78, 107
3, 173970, Note_off_c, 1, 78, 64
3, 173994, Note_on_c, 1, 76, 107
3, 174225, Note_off_c, 1, 76, 64
3, 174237, Note_on_c, 1, 78, 107
3, 174465, Note_off_c, 1, 78, 64
3, 174487, Note_on_c, 1, 79, 107
3, 174705, Note_off_c, 1, 79, 64
3, 174715, Note_on_c, 1, 71, 107
3, 174727, Note_on_c, 1, 74, 107
3, 175643, Note_off_c, 1, 74, 64
3, 175643, Note_off_c, 1, 71, 64
3, 175674, Note_on_c, 1, 71, 100
3, 176138, Note_off_c, 1, 71, 64
3, 176166, Note_on_c, 1, 73, 100
3, 176618, Note_off_c, 1, 73, 64
3, 176647, Note_on_c, 1, 74, 100
3, 177563, Note_off_c, 1, 74, 64
3, 177599, Note_on_c, 1, 74, 100
3, 178523, Note_off_c, 1, 74, 64
3, 178555, Note_on_c, 1, 76, 100
3, 179483, Note_off_c, 1, 76, 64
3, 179522, Note_on_c, 1, 73, 99
3, 179978, Note_off_c, 1, 73, 64
3, 180001, Note_on_c, 1, 71, 99
3, 180225, Note_off_c, 1, 71, 64
3, 180242, Note_on_c, 1, 73, 99
3, 180465, Note_off_c, 1, 73, 64
3, 180479, Note_on_c, 1, 74, 99
3, 181869, Note_off_c, 1, 74, 64
3, 181912, Note_on_c, 1, 74, 99
3, 182378, Note_off_c, 1, 74, 64
3, 182406, Note_on_c, 1, 74, 99
3, 183323, Note_off_c, 1, 74, 64
3, 183354, Note_on_c, 1, 73, 109
3, 183818, Note_off_c, 1, 73, 64
3, 183836, Note_on_c, 1, 71, 109
3, 184763, Note_off_c, 1, 71, 64
3, 184796, Note_on_c, 1, 69, 108
3, 185723, Note_off_c, 1, 69, 64
3, 185763, Note_on_c, 1, 67, 107
3, 187149, Note_off_c, 1, 67, 64
3, 187201, Note_on_c, 1, 66, 94
3, 187658, Note_off_c, 1, 66, 64
3, 187688, Note_on_c, 1, 67, 94
3, 188138, Note_off_c, 1, 67, 64
3, 188162, Note_on_c, 1, 76, 105
3, 188618, Note_off_c, 1, 76, 64
3, 188645, Note_on_c, 1, 74, 89
3, 189098, Note_off_c, 1, 74, 64
3, 189119, Note_on_c, 1, 76, 105
3, 189578, Note_off_c, 1, 76, 64
3, 189605, Note_on_c, 1, 74, 90
3, 190058, Note_off_c, 1, 74, 64
3, 190084, Note_on_c, 1, 74, 105
3, 190538, Note_off_c, 1, 74, 64
3, 190554, Note_on_c, 1, 76, 89
3, 191483, Note_off_c, 1, 76, 64
3, 191520, Note_on_c, 1, 76, 89
3, 191978, Note_off_c, 1, 76, 64
3, 191992, Note_on_c, 1, 78, 105
3, 192458, Note_off_c, 1, 78, 64
3, 192472, Note_on_c, 1, 76, 90
3, 192938, Note_off_c, 1, 76, 64
3, 192964, Note_on_c, 1, 78, 107
3, 193418, Note_off_c, 1, 78, 64
3, 193437, Note_on_c, 1, 76, 90
3, 193898, Note_off_c, 1, 76, 64
3, 193927, Note_on_c, 1, 79, 110
3, 194378, Note_off_c, 1, 79, 64
3, 194399, Note_on_c, 1, 78, 93
3, 195323, Note_off_c, 1, 78, 64
3, 195365, Note_on_c, 1, 76, 93
3, 195818, Note_off_c, 1, 76, 64
3, 197032, Note_on_c, 1, 62, 115
3, 197265, Note_off_c, 1, 62, 64
3, 197282, Note_on_c, 1, 69, 115
3, 197505, Note_off_c, 1, 69, 64
3, 197512, Note_on_c, 1, 71, 115
3, 197745, Note_off_c, 1, 71, 64
3, 197763, Note_on_c, 1, 69, 106
3, 198683, Note_off_c, 1, 69, 64
3, 198968, Note_on_c, 1, 65, 115
3, 199185, Note_off_c, 1, 65, 64
3, 199200, Note_on_c, 1, 72, 115
3, 199425, Note_off_c, 1, 72, 64
3, 199444, Note_on_c, 1, 74, 115
3, 199665, Note_off_c, 1, 74, 64
3, 199676, Note_on_c, 1, 76, 104
3, 200603, Note_off_c, 1, 76, 64
3, 200645, Note_on_c, 1, 77, 106
3, 201563, Note_off_c, 1, 77, 64
3, 201602, Note_on_c, 1, 79, 109
3, 202523, Note_off_c, 1, 79, 64
3, 202562, Note_on_c, 1, 81, 112
3, 203018, Note_off_c, 1, 81, 64
3, 203036, Note_on_c, 1, 77, 113
3, 203498, Note_off_c, 1, 77, 64
3, 203766, Note_on_c, 1, 69, 105
3, 203985, Note_off_c, 1, 69, 64
3, 203999, Note_on_c, 1, 72, 105
3, 204225, Note_off_c, 1, 72, 64
3, 204244, Note_on_c, 1, 74, 105
3, 204465, Note_off_c, 1, 74, 64
3, 204477, Note_on_c, 1, 72, 105
3, 205403, Note_off_c, 1, 72, 64
3, 205432, Note_on_c, 1, 67, 106
3, 206829, Note_off_c, 1, 67, 64
3, 206880, Note_on_c, 1, 65, 107
3, 207338, Note_off_c, 1, 65, 64
3, 207362, Note_on_c, 1, 64, 107
3, 207585, Note_off_c, 1, 64, 64
3, 207598, Note_on_c, 1, 65, 107
3, 207825, Note_off_c, 1, 65, 64
3, 207838, Note_on_c, 1, 62, 107
3, 208298, Note_off_c, 1, 62, 64
3, 208312, Note_on_c, 1, 69, 108
3, 208778, Note_off_c, 1, 69, 64
3, 208796, Note_on_c, 1, 71, 108
3, 209258, Note_off_c, 1, 71, 64
3, 209282, Note_on_c, 1, 72, 108
3, 209970, Note_off_c, 1, 72, 64
3, 210007, Note_on_c, 1, 71, 109
3, 210225, Note_off_c, 1, 71, 64
3, 210239, Note_on_c, 1, 69, 109
3, 210465, Note_off_c, 1, 69, 64
3, 210487, Note_on_c, 1, 67, 109
3, 210705, Note_off_c, 1, 67, 64
3, 210718, Note_on_c, 1, 69, 109
3, 210945, Note_off_c, 1, 69, 64
3, 210961, Note_on_c, 1, 71, 109
3, 211185, Note_off_c, 1, 71, 64
3, 211192, Note_on_c, 1, 64, 109
3, 212123, Note_off_c, 1, 64, 64
3, 212168, Note_on_c, 1, 67, 119
3, 212618, Note_off_c, 1, 67, 64
3, 212646, Note_on_c, 1, 69, 118
3, 213098, Note_off_c, 1, 69, 64
3, 213119, Note_on_c, 1, 71, 117
3, 213810, Note_off_c, 1, 71, 64
3, 213843, Note_on_c, 1, 72, 116
3, 214065, Note_off_c, 1, 72, 64
3, 214077, Note_on_c, 1, 71, 115
3, 215003, Note_off_c, 1, 71, 64
3, 215042, Note_on_c, 1, 72, 114
3, 215963, Note_off_c, 1, 72, 64
3, 216000, Note_on_c, 1, 71, 112
3, 216458, Note_off_c, 1, 71, 64
3, 216481, Note_on_c, 1, 69, 111
3, 216938, Note_off_c, 1, 69, 64
3, 216952, Note_on_c, 1, 74, 110
3, 218349, Note_off_c, 1, 74, 64
3, 218398, Note_on_c, 1, 72, 102
3, 218858, Note_off_c, 1, 72, 64
3, 218875, Note_on_c, 1, 71, 95
3, 220269, Note_off_c, 1, 71, 64
3, 220327, Note_on_c, 1, 72, 95
3, 220778, Note_off_c, 1, 72, 64
3, 220806, Note_on_c, 1, 74, 95
3, 221258, Note_off_c, 1, 74, 64
3, 221288, Note_on_c, 1, 72, 97
3, 221738, Note_off_c, 1, 72, 64
3, 221762, Note_on_c, 1, 71, 99
3, 222218, Note_off_c, 1, 71, 64
3, 222241, Note_on_c, 1, 72, 101
3, 222698, Note_off_c, 1, 72, 64
3, 222713, Note_on_c, 1, 72, 103
3, 223410, Note_off_c, 1, 72, 64
3, 223438, Note_on_c, 1, 71, 106
3, 223665, Note_off_c, 1, 71, 64
3, 223677, Note_on_c, 1, 72, 117
3, 224603, Note_off_c, 1, 72, 64
3, 224640, Note_on_c, 1, 74, 117
3, 225098, Note_off_c, 1, 74, 64
3, 225113, Note_on_c, 1, 76, 117
3, 225345, Note_off_c, 1, 76, 64
3, 225366, Note_on_c, 1, 78, 112
3, 225585, Note_off_c, 1, 78, 64
3, 225597, Note_on_c, 1, 79, 110
3, 226989, Note_off_c, 1, 79, 64
3, 227045, Note_on_c, 1, 79, 107
3, 227498, Note_off_c, 1, 79, 64
3, 227527, Note_on_c, 1, 78, 107
3, 227978, Note_off_c, 1, 78, 64
3, 228002, Note_on_c, 1, 76, 107
3, 228458, Note_off_c, 1, 76, 64
3, 228475, Note_on_c, 1, 74, 107
3, 229869, Note_off_c, 1, 74, 64
3, 229916, Note_on_c, 1, 72, 107
3, 230378, Note_off_c, 1, 72, 64
3, 230401, Note_on_c, 1, 71, 107
3, 231789, Note_off_c, 1, 71, 64
3, 231846, Note_on_c, 1, 71, 108
3, 232763, Note_off_c, 1, 71, 64
3, 232796, Note_on_c, 1, 69, 108
3, 233258, Note_off_c, 1, 69, 64
3, 233277, Note_on_c, 1, 71, 108
3, 233738, Note_off_c, 1, 71, 64
3, 233764, Note_on_c, 1, 72, 108
3, 234218, Note_off_c, 1, 72, 64
3, 235446, Note_on_c, 1, 54, 118
3, 235665, Note_off_c, 1, 54, 64
3, 235675, Note_on_c, 1, 60, 118
3, 235905, Note_off_c, 1, 60, 64
3, 235915, Note_on_c, 1, 62, 118
3, 236145, Note_off_c, 1, 62, 64
3, 236159, Note_on_c, 1, 60, 118
3, 236850, Note_off_c, 1, 60, 64
3, 236887, Note_on_c, 1, 62, 114
3, 237105, Note_off_c, 1, 62, 64
3, 237121, Note_on_c, 1, 60, 114
3, 237578, Note_off_c, 1, 60, 64
3, 237592, Note_on_c, 1, 60, 112
3, 238058, Note_off_c, 1, 60, 64
3, 238088, Note_on_c, 1, 59, 110
3, 239469, Note_off_c, 1, 59, 64
3, 239513, Note_on_c, 1, 59, 107
3, 240443, Note_off_c, 1, 59, 64
3, 240482, Note_on_c, 1, 57, 107
3, 241403, Note_off_c, 1, 57, 64
3, 241916, Note_on_c, 1, 59, 108
3, 242843, Note_off_c, 1, 59, 64
3, 242874, Note_on_c, 1, 60, 123
3, 243338, Note_off_c, 1, 60, 64
3, 243353, Note_on_c, 1, 62, 123
3, 243818, Note_off_c, 1, 62, 64
3, 243835, Note_on_c, 1, 64, 123
3, 245694, Note_off_c, 1, 64, 64
3, 245756, Control_c, 1, 93, 0
3, 245756, Control_c, 1, 91, 0
3, 245758, Control_c, 1, 121, 0
3, 245758, End_track
4, 0, Start_track
4, 0, Title_t, "ten"
4, 0, MIDI_port, 0
4, 0, Channel_prefix, 2
4, 0, Control_c, 2, 7, 121
4, 0, Control_c, 2, 10, 62
4, 0, Program_c, 2, 0
4, 0, Control_c, 2, 121, 0
4, 0, Control_c, 2, 0, 0
4, 1, Control_c, 2, 93, 16
4, 1, Control_c, 2, 91, 48
4, 48, Note_on_c, 2, 52, 74
4, 968, Note_on_c, 2, 55, 74
4, 971, Note_off_c, 2, 52, 64
4, 1418, Note_off_c, 2, 55, 64
4, 1432, Note_on_c, 2, 57, 74
4, 1898, Note_off_c, 2, 57, 64
4, 1913, Note_on_c, 2, 59, 74
4, 2610, Note_off_c, 2, 59, 64
4, 2637, Note_on_c, 2, 60, 74
4, 2865, Note_off_c, 2, 60, 64
4, 2876, Note_on_c, 2, 59, 74
4, 3803, Note_off_c, 2, 59, 64
4, 3840, Note_on_c, 2, 60, 74
4, 4763, Note_off_c, 2, 60, 64
4, 4800, Note_on_c, 2, 59, 74
4, 5258, Note_off_c, 2, 59, 64
4, 5279, Note_on_c, 2, 57, 74
4, 5738, Note_off_c, 2, 57, 64
4, 5767, Note_on_c, 2, 62, 74
4, 7149, Note_off_c, 2, 62, 64
4, 7202, Note_on_c, 2, 60, 72
4, 7658, Note_off_c, 2, 60, 64
4, 7676, Note_on_c, 2, 59, 69
4, 8138, Note_off_c, 2, 59, 64
4, 8160, Note_on_c, 2, 57, 66
4, 9083, Note_off_c, 2, 57, 64
4, 9118, Note_on_c, 2, 55, 60
4, 9578, Note_off_c, 2, 55, 64
4, 9608, Note_on_c, 2, 62, 67
4, 10058, Note_off_c, 2, 62, 64
4, 10081, Note_on_c, 2, 61, 57
4, 10538, Note_off_c, 2, 61, 64
4, 10566, Note_on_c, 2, 62, 65
4, 11018, Note_off_c, 2, 62, 64
4, 11045, Note_on_c, 2, 61, 55
4, 11498, Note_off_c, 2, 61, 64
4, 11525, Note_on_c, 2, 64, 66
4, 11978, Note_off_c, 2, 64, 64
4, 12002, Note_on_c, 2, 62, 54
4, 12923, Note_off_c, 2, 62, 64
4, 12966, Note_on_c, 2, 61, 53
4, 13883, Note_off_c, 2, 61, 64
4, 13917, Note_on_c, 2, 57, 56
4, 14145, Note_off_c, 2, 57, 64
4, 14167, Note_on_c, 2, 59, 53
4, 14385, Note_off_c, 2, 59, 64
4, 14396, Note_on_c, 2, 60, 49
4, 15789, Note_off_c, 2, 60, 64
4, 15848, Note_on_c, 2, 55, 53
4, 16065, Note_off_c, 2, 55, 64
4, 16084, Note_on_c, 2, 57, 49
4, 16305, Note_off_c, 2, 57, 64
4, 16314, Note_on_c, 2, 59, 44
4, 17709, Note_off_c, 2, 59, 64
4, 17765, Note_on_c, 2, 57, 47
4, 17985, Note_off_c, 2, 57, 64
4, 18000, Note_on_c, 2, 59, 45
4, 18225, Note_off_c, 2, 59, 64
4, 18234, Note_on_c, 2, 60, 42
4, 19629, Note_off_c, 2, 60, 64
4, 19672, Note_on_c, 2, 55, 49
4, 19905, Note_off_c, 2, 55, 64
4, 19912, Note_on_c, 2, 57, 53
4, 20145, Note_off_c, 2, 57, 64
4, 20159, Note_on_c, 2, 59, 57
4, 20618, Note_off_c, 2, 59, 64
4, 20646, Note_on_c, 2, 60, 61
4, 21098, Note_off_c, 2, 60, 64
4, 21114, Note_on_c, 2, 62, 61
4, 22276, Note_off_c, 2, 62, 64
4, 22312, Note_on_c, 2, 59, 49
4, 22545, Note_off_c, 2, 59, 64
4, 22555, Note_on_c, 2, 60, 54
4, 22785, Note_off_c, 2, 60, 64
4, 22805, Note_on_c, 2, 62, 60
4, 23025, Note_off_c, 2, 62, 64
4, 23045, Note_on_c, 2, 64, 65
4, 23730, Note_off_c, 2, 64, 64
4, 23765, Note_on_c, 2, 60, 61
4, 23985, Note_off_c, 2, 60, 64
4, 24003, Note_on_c, 2, 62, 61
4, 24690, Note_off_c, 2, 62, 64
4, 24717, Note_on_c, 2, 60, 61
4, 24945, Note_off_c, 2, 60, 64
4, 24965, Note_on_c, 2, 59, 61
4, 26349, Note_off_c, 2, 59, 64
4, 26407, Note_on_c, 2, 55, 57
4, 26625, Note_off_c, 2, 55, 64
4, 26646, Note_on_c, 2, 57, 55
4, 26865, Note_off_c, 2, 57, 64
4, 26876, Note_on_c, 2, 59, 54
4, 28734, Note_off_c, 2, 59, 64
4, 28800, Note_on_c, 2, 57, 61
4, 29723, Note_off_c, 2, 57, 64
4, 29752, Note_on_c, 2, 62, 61
4, 30683, Note_off_c, 2, 62, 64
4, 30713, Note_on_c, 2, 61, 61
4, 31178, Note_off_c, 2, 61, 64
4, 31192, Note_on_c, 2, 62, 61
4, 31658, Note_off_c, 2, 62, 64
4, 31678, Note_on_c, 2, 57, 61
4, 33069, Note_off_c, 2, 57, 64
4, 33124, Note_on_c, 2, 62, 61
4, 35906, Note_off_c, 2, 62, 64
4, 35998, Note_on_c, 2, 64, 61
4, 36458, Note_off_c, 2, 64, 64
4, 36475, Note_on_c, 2, 66, 68
4, 37636, Note_off_c, 2, 66, 64
4, 37677, Note_on_c, 2, 64, 72
4, 37905, Note_off_c, 2, 64, 64
4, 37915, Note_on_c, 2, 62, 73
4, 38145, Note_off_c, 2, 62, 64
4, 38164, Note_on_c, 2, 60, 73
4, 38385, Note_off_c, 2, 60, 64
4, 38394, Note_on_c, 2, 59, 74
4, 39323, Note_off_c, 2, 59, 64
4, 39352, Note_on_c, 2, 62, 69
4, 39818, Note_off_c, 2, 62, 64
4, 39840, Note_on_c, 2, 60, 66
4, 40298, Note_off_c, 2, 60, 64
4, 40318, Note_on_c, 2, 59, 63
4, 41010, Note_off_c, 2, 59, 64
4, 41285, Note_on_c, 2, 59, 63
4, 41738, Note_off_c, 2, 59, 64
4, 41754, Note_on_c, 2, 60, 63
4, 42218, Note_off_c, 2, 60, 64
4, 42247, Note_on_c, 2, 62, 63
4, 42930, Note_off_c, 2, 62, 64
4, 42954, Note_on_c, 2, 64, 64
4, 43185, Note_off_c, 2, 64, 64
4, 43192, Note_on_c, 2, 62, 64
4, 44123, Note_off_c, 2, 62, 64
4, 44155, Note_on_c, 2, 64, 64
4, 45083, Note_off_c, 2, 64, 64
4, 45125, Note_on_c, 2, 62, 64
4, 45578, Note_off_c, 2, 62, 64
4, 45596, Note_on_c, 2, 60, 65
4, 46058, Note_off_c, 2, 60, 64
4, 46081, Note_on_c, 2, 65, 65
4, 47469, Note_off_c, 2, 65, 64
4, 47517, Note_on_c, 2, 64, 53
4, 47978, Note_off_c, 2, 64, 64
4, 48001, Note_on_c, 2, 62, 53
4, 48458, Note_off_c, 2, 62, 64
4, 48483, Note_on_c, 2, 61, 53
4, 49403, Note_off_c, 2, 61, 64
4, 49446, Note_on_c, 2, 59, 53
4, 49898, Note_off_c, 2, 59, 64
4, 49927, Note_on_c, 2, 66, 66
4, 50378, Note_off_c, 2, 66, 64
4, 50408, Note_on_c, 2, 64, 53
4, 50858, Note_off_c, 2, 64, 64
4, 50873, Note_on_c, 2, 66, 66
4, 51338, Note_off_c, 2, 66, 64
4, 51354, Note_on_c, 2, 64, 53
4, 51818, Note_off_c, 2, 64, 64
4, 51841, Note_on_c, 2, 67, 67
4, 52298, Note_off_c, 2, 67, 64
4, 52325, Note_on_c, 2, 66, 53
4, 53243, Note_off_c, 2, 66, 64
4, 53287, Note_on_c, 2, 64, 53
4, 54203, Note_off_c, 2, 64, 64
4, 54233, Note_on_c, 2, 60, 59
4, 54465, Note_off_c, 2, 60, 64
4, 54486, Note_on_c, 2, 62, 55
4, 54705, Note_off_c, 2, 62, 64
4, 54725, Note_on_c, 2, 64, 51
4, 56109, Note_off_c, 2, 64, 64
4, 56158, Note_on_c, 2, 59, 62
4, 56385, Note_off_c, 2, 59, 64
4, 56401, Note_on_c, 2, 60, 60
4, 56625, Note_off_c, 2, 60, 64
4, 56643, Note_on_c, 2, 62, 58
4, 58494, Note_off_c, 2, 62, 64
4, 58559, Note_on_c, 2, 60, 64
4, 59949, Note_off_c, 2, 60, 64
4, 59996, Note_on_c, 2, 55, 67
4, 60225, Note_off_c, 2, 55, 64
4, 60248, Note_on_c, 2, 57, 64
4, 60465, Note_off_c, 2, 57, 64
4, 60488, Note_on_c, 2, 59, 61
4, 62334, Note_off_c, 2, 59, 64
4, 62404, Note_on_c, 2, 57, 68
4, 63789, Note_off_c, 2, 57, 64
4, 63842, Note_on_c, 2, 59, 68
4, 64298, Note_off_c, 2, 59, 64
4, 64316, Note_on_c, 2, 60, 71
4, 64778, Note_off_c, 2, 60, 64
4, 64794, Note_on_c, 2, 62, 74
4, 65258, Note_off_c, 2, 62, 64
4, 65275, Note_on_c, 2, 64, 77
4, 68066, Note_off_c, 2, 64, 64
4, 68162, Note_on_c, 2, 60, 60
4, 69083, Note_off_c, 2, 60, 64
4, 69120, Note_on_c, 2, 59, 60
4, 70043, Note_off_c, 2, 59, 64
4, 70078, Note_on_c, 2, 64, 61
4, 71003, Note_off_c, 2, 64, 64
4, 71035, Note_on_c, 2, 62, 68
4, 71498, Note_off_c, 2, 62, 64
4, 71520, Note_on_c, 2, 64, 68
4, 71978, Note_off_c, 2, 64, 64
4, 72003, Note_on_c, 2, 58, 68
4, 72923, Note_off_c, 2, 58, 64
4, 72968, Note_on_c, 2, 58, 68
4, 73418, Note_off_c, 2, 58, 64
4, 73443, Note_on_c, 2, 64, 68
4, 75760, Note_off_c, 2, 64, 64
4, 75848, Note_on_c, 2, 62, 75
4, 76298, Note_off_c, 2, 62, 64
4, 76316, Note_on_c, 2, 64, 67
4, 76778, Note_off_c, 2, 64, 64
4, 76800, Note_on_c, 2, 65, 65
4, 77723, Note_off_c, 2, 65, 64
4, 83036, Note_on_c, 2, 63, 77
4, 83265, Note_off_c, 2, 63, 64
4, 83287, Note_on_c, 2, 65, 73
4, 83505, Note_off_c, 2, 65, 64
4, 83520, Note_on_c, 2, 67, 69
4, 84909, Note_off_c, 2, 67, 64
4, 84957, Note_on_c, 2, 65, 78
4, 86814, Note_off_c, 2, 65, 64
4, 86881, Note_on_c, 2, 60, 75
4, 87105, Note_off_c, 2, 60, 64
4, 87121, Note_on_c, 2, 62, 69
4, 87345, Note_off_c, 2, 62, 64
4, 87357, Note_on_c, 2, 63, 66
4, 89680, Note_off_c, 2, 63, 64
4, 89757, Note_on_c, 2, 62, 62
4, 90450, Note_off_c, 2, 62, 64
4, 90714, Note_on_c, 2, 64, 55
4, 91178, Note_off_c, 2, 64, 64
4, 91676, Note_on_c, 2, 64, 55
4, 92138, Note_off_c, 2, 64, 64
4, 92635, Note_on_c, 2, 62, 55
4, 93098, Note_off_c, 2, 62, 64
4, 93607, Note_on_c, 2, 61, 55
4, 94523, Note_off_c, 2, 61, 64
4, 94564, Note_on_c, 2, 59, 55
4, 94565, Note_on_c, 2, 62, 55
4, 95483, Note_off_c, 2, 62, 64
4, 95483, Note_off_c, 2, 59, 64
4, 95523, Note_on_c, 2, 61, 55
4, 95523, Note_on_c, 2, 57, 55
4, 96210, Note_off_c, 2, 57, 64
4, 96210, Note_off_c, 2, 61, 64
4, 104876, Note_on_c, 2, 59, 75
4, 105105, Note_off_c, 2, 59, 64
4, 105125, Note_on_c, 2, 66, 75
4, 105345, Note_off_c, 2, 66, 64
4, 105353, Note_on_c, 2, 67, 75
4, 105585, Note_off_c, 2, 67, 64
4, 105604, Note_on_c, 2, 66, 75
4, 106290, Note_off_c, 2, 66, 64
4, 106326, Note_on_c, 2, 67, 75
4, 106545, Note_off_c, 2, 67, 64
4, 106557, Note_on_c, 2, 66, 75
4, 106785, Note_off_c, 2, 66, 64
4, 106792, Note_on_c, 2, 64, 75
4, 107025, Note_off_c, 2, 64, 64
4, 107040, Note_on_c, 2, 62, 75
4, 107265, Note_off_c, 2, 62, 64
4, 107272, Note_on_c, 2, 61, 75
4, 107505, Note_off_c, 2, 61, 64
4, 107526, Note_on_c, 2, 62, 75
4, 107978, Note_off_c, 2, 62, 64
4, 108002, Note_on_c, 2, 61, 75
4, 108225, Note_off_c, 2, 61, 64
4, 108241, Note_on_c, 2, 62, 75
4, 108465, Note_off_c, 2, 62, 64
4, 108482, Note_on_c, 2, 59, 75
4, 108938, Note_off_c, 2, 59, 64
4, 108961, Note_on_c, 2, 59, 75
4, 109185, Note_off_c, 2, 59, 64
4, 109205, Note_on_c, 2, 61, 75
4, 109425, Note_off_c, 2, 61, 64
4, 109442, Note_on_c, 2, 62, 75
4, 109665, Note_off_c, 2, 62, 64
4, 109683, Note_on_c, 2, 66, 76
4, 109905, Note_off_c, 2, 66, 64
4, 109924, Note_on_c, 2, 67, 77
4, 110145, Note_off_c, 2, 67, 64
4, 110166, Note_on_c, 2, 69, 78
4, 110385, Note_off_c, 2, 69, 64
4, 110394, Note_on_c, 2, 66, 80
4, 110625, Note_off_c, 2, 66, 64
4, 110639, Note_on_c, 2, 64, 81
4, 110865, Note_off_c, 2, 64, 64
4, 110885, Note_on_c, 2, 66, 82
4, 111105, Note_off_c, 2, 66, 64
4, 111112, Note_on_c, 2, 67, 83
4, 111345, Note_off_c, 2, 67, 64
4, 111359, Note_on_c, 2, 64, 85
4, 112749, Note_off_c, 2, 64, 64
4, 112792, Note_on_c, 2, 66, 72
4, 113723, Note_off_c, 2, 66, 64
4, 113760, Note_on_c, 2, 61, 75
4, 114218, Note_off_c, 2, 61, 64
4, 114236, Note_on_c, 2, 66, 76
4, 114698, Note_off_c, 2, 66, 64
4, 114713, Note_on_c, 2, 64, 77
4, 115178, Note_off_c, 2, 64, 64
4, 115196, Note_on_c, 2, 62, 79
4, 115425, Note_off_c, 2, 62, 64
4, 115448, Note_on_c, 2, 64, 80
4, 115665, Note_off_c, 2, 64, 64
4, 115680, Note_on_c, 2, 61, 80
4, 116138, Note_off_c, 2, 61, 64
4, 116162, Note_on_c, 2, 66, 82
4, 116850, Note_off_c, 2, 66, 64
4, 116873, Note_on_c, 2, 68, 84
4, 117105, Note_off_c, 2, 68, 64
4, 117118, Note_on_c, 2, 69, 85
4, 117578, Note_off_c, 2, 69, 64
4, 117608, Note_on_c, 2, 68, 86
4, 118523, Note_off_c, 2, 68, 64
4, 118566, Note_on_c, 2, 66, 95
4, 119018, Note_off_c, 2, 66, 64
4, 119037, Note_on_c, 2, 64, 95
4, 120429, Note_off_c, 2, 64, 64
4, 120476, Note_on_c, 2, 62, 95
4, 122102, Note_off_c, 2, 62, 64
4, 122156, Note_on_c, 2, 61, 95
4, 122385, Note_off_c, 2, 61, 64
4, 122392, Note_on_c, 2, 62, 95
4, 122625, Note_off_c, 2, 62, 64
4, 122648, Note_on_c, 2, 64, 94
4, 122865, Note_off_c, 2, 64, 64
4, 122874, Note_on_c, 2, 60, 93
4, 123105, Note_off_c, 2, 60, 64
4, 123113, Note_on_c, 2, 59, 91
4, 123345, Note_off_c, 2, 59, 64
4, 123355, Note_on_c, 2, 60, 90
4, 123585, Note_off_c, 2, 60, 64
4, 123597, Note_on_c, 2, 62, 88
4, 123825, Note_off_c, 2, 62, 64
4, 123845, Note_on_c, 2, 59, 87
4, 124298, Note_off_c, 2, 59, 64
4, 124323, Note_on_c, 2, 58, 84
4, 125476, Note_off_c, 2, 58, 64
4, 127913, Note_on_c, 2, 55, 72
4, 128145, Note_off_c, 2, 55, 64
4, 128156, Note_on_c, 2, 57, 72
4, 128385, Note_off_c, 2, 57, 64
4, 128394, Note_on_c, 2, 58, 73
4, 128625, Note_off_c, 2, 58, 64
4, 128635, Note_on_c, 2, 57, 73
4, 129796, Note_off_c, 2, 57, 64
4, 129841, Note_on_c, 2, 55, 75
4, 130065, Note_off_c, 2, 55, 64
4, 130075, Note_on_c, 2, 53, 76
4, 130305, Note_off_c, 2, 53, 64
4, 130322, Note_on_c, 2, 55, 76
4, 130545, Note_off_c, 2, 55, 64
4, 130553, Note_on_c, 2, 57, 77
4, 131018, Note_off_c, 2, 57, 64
4, 131039, Note_on_c, 2, 62, 78
4, 131963, Note_off_c, 2, 62, 64
4, 132004, Note_on_c, 2, 60, 83
4, 132458, Note_off_c, 2, 60, 64
4, 132477, Note_on_c, 2, 62, 74
4, 133636, Note_off_c, 2, 62, 64
4, 133672, Note_on_c, 2, 64, 74
4, 133905, Note_off_c, 2, 64, 64
4, 133916, Note_on_c, 2, 60, 74
4, 134610, Note_off_c, 2, 60, 64
4, 134643, Note_on_c, 2, 62, 74
4, 134865, Note_off_c, 2, 62, 64
4, 134886, Note_on_c, 2, 64, 74
4, 135105, Note_off_c, 2, 64, 64
4, 135121, Note_on_c, 2, 65, 74
4, 135345, Note_off_c, 2, 65, 64
4, 135366, Note_on_c, 2, 64, 74
4, 136516, Note_off_c, 2, 64, 64
4, 136553, Note_on_c, 2, 62, 74
4, 136785, Note_off_c, 2, 62, 64
4, 136805, Note_on_c, 2, 60, 74
4, 137025, Note_off_c, 2, 60, 64
4, 137048, Note_on_c, 2, 62, 74
4, 137265, Note_off_c, 2, 62, 64
4, 137282, Note_on_c, 2, 64, 74
4, 137738, Note_off_c, 2, 64, 64
4, 137762, Note_on_c, 2, 69, 74
4, 138683, Note_off_c, 2, 69, 64
4, 138722, Note_on_c, 2, 67, 74
4, 139643, Note_off_c, 2, 67, 64
4, 139682, Note_on_c, 2, 65, 74
4, 140370, Note_off_c, 2, 65, 64
4, 140395, Note_on_c, 2, 64, 85
4, 140625, Note_off_c, 2, 64, 64
4, 140648, Note_on_c, 2, 65, 85
4, 140865, Note_off_c, 2, 65, 64
4, 140875, Note_on_c, 2, 67, 85
4, 141105, Note_off_c, 2, 67, 64
4, 141112, Note_on_c, 2, 64, 85
4, 142509, Note_off_c, 2, 64, 64
4, 142556, Note_on_c, 2, 63, 85
4, 143483, Note_off_c, 2, 63, 64
4, 143516, Note_on_c, 2, 62, 85
4, 144443, Note_off_c, 2, 62, 64
4, 144478, Note_on_c, 2, 62, 80
4, 145170, Note_off_c, 2, 62, 64
4, 145205, Note_on_c, 2, 60, 81
4, 145425, Note_off_c, 2, 60, 64
4, 145436, Note_on_c, 2, 62, 81
4, 145665, Note_off_c, 2, 62, 64
4, 145687, Note_on_c, 2, 63, 82
4, 145905, Note_off_c, 2, 63, 64
4, 145918, Note_on_c, 2, 62, 82
4, 147309, Note_off_c, 2, 62, 64
4, 147364, Note_on_c, 2, 60, 85
4, 147818, Note_off_c, 2, 60, 64
4, 147835, Note_on_c, 2, 62, 86
4, 148298, Note_off_c, 2, 62, 64
4, 148312, Note_on_c, 2, 63, 87
4, 149243, Note_off_c, 2, 63, 64
4, 149282, Note_on_c, 2, 67, 89
4, 149505, Note_off_c, 2, 67, 64
4, 149518, Note_on_c, 2, 68, 90
4, 149745, Note_off_c, 2, 68, 64
4, 149758, Note_on_c, 2, 67, 90
4, 150683, Note_off_c, 2, 67, 64
4, 151203, Note_on_c, 2, 55, 82
4, 151658, Note_off_c, 2, 55, 64
4, 151688, Note_on_c, 2, 56, 82
4, 152138, Note_off_c, 2, 56, 64
4, 152155, Note_on_c, 2, 58, 83
4, 152618, Note_off_c, 2, 58, 64
4, 152647, Note_on_c, 2, 60, 84
4, 153098, Note_off_c, 2, 60, 64
4, 153117, Note_on_c, 2, 62, 84
4, 153578, Note_off_c, 2, 62, 64
4, 153608, Note_on_c, 2, 60, 85
4, 154058, Note_off_c, 2, 60, 64
4, 154083, Note_on_c, 2, 58, 86
4, 154538, Note_off_c, 2, 58, 64
4, 154555, Note_on_c, 2, 57, 86
4, 155018, Note_off_c, 2, 57, 64
4, 155036, Note_on_c, 2, 58, 87
4, 155265, Note_off_c, 2, 58, 64
4, 155278, Note_on_c, 2, 60, 87
4, 155505, Note_off_c, 2, 60, 64
4, 155521, Note_on_c, 2, 62, 88
4, 155978, Note_off_c, 2, 62, 64
4, 155996, Note_on_c, 2, 60, 88
4, 156458, Note_off_c, 2, 60, 64
4, 156475, Note_on_c, 2, 63, 89
4, 156938, Note_off_c, 2, 63, 64
4, 156953, Note_on_c, 2, 60, 90
4, 157418, Note_off_c, 2, 60, 64
4, 157433, Note_on_c, 2, 62, 91
4, 158829, Note_off_c, 2, 62, 64
4, 158884, Note_on_c, 2, 58, 93
4, 159338, Note_off_c, 2, 58, 64
4, 159366, Note_on_c, 2, 67, 93
4, 159818, Note_off_c, 2, 67, 64
4, 159843, Note_on_c, 2, 65, 105
4, 160298, Note_off_c, 2, 65, 64
4, 160325, Note_on_c, 2, 69, 105
4, 160778, Note_off_c, 2, 69, 64
4, 160792, Note_on_c, 2, 67, 106
4, 161258, Note_off_c, 2, 67, 64
4, 161280, Note_on_c, 2, 69, 107
4, 161738, Note_off_c, 2, 69, 64
4, 161762, Note_on_c, 2, 70, 108
4, 162218, Note_off_c, 2, 70, 64
4, 162247, Note_on_c, 2, 72, 109
4, 162698, Note_off_c, 2, 72, 64
4, 162716, Note_on_c, 2, 65, 110
4, 163178, Note_off_c, 2, 65, 64
4, 163202, Note_on_c, 2, 67, 111
4, 163658, Note_off_c, 2, 67, 64
4, 163684, Note_on_c, 2, 69, 112
4, 164138, Note_off_c, 2, 69, 64
4, 164166, Note_on_c, 2, 70, 113
4, 164385, Note_off_c, 2, 70, 64
4, 164407, Note_on_c, 2, 72, 114
4, 164625, Note_off_c, 2, 72, 64
4, 164646, Note_on_c, 2, 79, 114
4, 165098, Note_off_c, 2, 79, 64
4, 165122, Note_on_c, 2, 78, 106
4, 166043, Note_off_c, 2, 78, 64
4, 166077, Note_on_c, 2, 81, 106
4, 166538, Note_off_c, 2, 81, 64
4, 167045, Note_on_c, 2, 52, 106
4, 167963, Note_off_c, 2, 52, 64
4, 167994, Note_on_c, 2, 55, 106
4, 168458, Note_off_c, 2, 55, 64
4, 168481, Note_on_c, 2, 57, 107
4, 168938, Note_off_c, 2, 57, 64
4, 168963, Note_on_c, 2, 59, 107
4, 169650, Note_off_c, 2, 59, 64
4, 169678, Note_on_c, 2, 60, 107
4, 169905, Note_off_c, 2, 60, 64
4, 169928, Note_on_c, 2, 59, 107
4, 170843, Note_off_c, 2, 59, 64
4, 170873, Note_on_c, 2, 60, 107
4, 171803, Note_off_c, 2, 60, 64
4, 171838, Note_on_c, 2, 59, 108
4, 172298, Note_off_c, 2, 59, 64
4, 172312, Note_on_c, 2, 57, 108
4, 172778, Note_off_c, 2, 57, 64
4, 172803, Note_on_c, 2, 62, 108
4, 174189, Note_off_c, 2, 62, 64
4, 174236, Note_on_c, 2, 60, 108
4, 174698, Note_off_c, 2, 60, 64
4, 174714, Note_on_c, 2, 59, 97
4, 175643, Note_off_c, 2, 59, 64
4, 175915, Note_on_c, 2, 62, 97
4, 176145, Note_off_c, 2, 62, 64
4, 176155, Note_on_c, 2, 69, 97
4, 176385, Note_off_c, 2, 69, 64
4, 176406, Note_on_c, 2, 71, 97
4, 176625, Note_off_c, 2, 71, 64
4, 176644, Note_on_c, 2, 69, 97
4, 177330, Note_off_c, 2, 69, 64
4, 177352, Note_on_c, 2, 71, 97
4, 177585, Note_off_c, 2, 71, 64
4, 177600, Note_on_c, 2, 69, 97
4, 177825, Note_off_c, 2, 69, 64
4, 177832, Note_on_c, 2, 67, 97
4, 178065, Note_off_c, 2, 67, 64
4, 178088, Note_on_c, 2, 66, 97
4, 178305, Note_off_c, 2, 66, 64
4, 178313, Note_on_c, 2, 64, 97
4, 178545, Note_off_c, 2, 64, 64
4, 178561, Note_on_c, 2, 66, 97
4, 179018, Note_off_c, 2, 66, 64
4, 179048, Note_on_c, 2, 64, 97
4, 179265, Note_off_c, 2, 64, 64
4, 179281, Note_on_c, 2, 66, 97
4, 179505, Note_off_c, 2, 66, 64
4, 179526, Note_on_c, 2, 62, 97
4, 179978, Note_off_c, 2, 62, 64
4, 179998, Note_on_c, 2, 62, 97
4, 180225, Note_off_c, 2, 62, 64
4, 180238, Note_on_c, 2, 64, 97
4, 180465, Note_off_c, 2, 64, 64
4, 180479, Note_on_c, 2, 66, 97
4, 180705, Note_off_c, 2, 66, 64
4, 180723, Note_on_c, 2, 69, 97
4, 180945, Note_off_c, 2, 69, 64
4, 180965, Note_on_c, 2, 71, 97
4, 181185, Note_off_c, 2, 71, 64
4, 181208, Note_on_c, 2, 73, 97
4, 181425, Note_off_c, 2, 73, 64
4, 181436, Note_on_c, 2, 69, 97
4, 181665, Note_off_c, 2, 69, 64
4, 181672, Note_on_c, 2, 67, 97
4, 181905, Note_off_c, 2, 67, 64
4, 181922, Note_on_c, 2, 69, 97
4, 182145, Note_off_c, 2, 69, 64
4, 182152, Note_on_c, 2, 71, 97
4, 182385, Note_off_c, 2, 71, 64
4, 182403, Note_on_c, 2, 67, 97
4, 183556, Note_off_c, 2, 67, 64
4, 183599, Note_on_c, 2, 66, 109
4, 183825, Note_off_c, 2, 66, 64
4, 183848, Note_on_c, 2, 67, 109
4, 184065, Note_off_c, 2, 67, 64
4, 184082, Note_on_c, 2, 69, 108
4, 184305, Note_off_c, 2, 69, 64
4, 184315, Note_on_c, 2, 66, 108
4, 185709, Note_off_c, 2, 66, 64
4, 185759, Note_on_c, 2, 59, 107
4, 186683, Note_off_c, 2, 59, 64
4, 186717, Note_on_c, 2, 57, 80
4, 187643, Note_off_c, 2, 57, 64
4, 187682, Note_on_c, 2, 58, 83
4, 188138, Note_off_c, 2, 58, 64
4, 188165, Note_on_c, 2, 67, 85
4, 189083, Note_off_c, 2, 67, 64
4, 189112, Note_on_c, 2, 67, 88
4, 190043, Note_off_c, 2, 67, 64
4, 190073, Note_on_c, 2, 67, 92
4, 191469, Note_off_c, 2, 67, 64
4, 191518, Note_on_c, 2, 67, 96
4, 191978, Note_off_c, 2, 67, 64
4, 191996, Note_on_c, 2, 67, 98
4, 192923, Note_off_c, 2, 67, 64
4, 192957, Note_on_c, 2, 67, 101
4, 193883, Note_off_c, 2, 67, 64
4, 193926, Note_on_c, 2, 67, 105
4, 195309, Note_off_c, 2, 67, 64
4, 195366, Note_on_c, 2, 67, 110
4, 195818, Note_off_c, 2, 67, 64
4, 204717, Note_on_c, 2, 55, 113
4, 204945, Note_off_c, 2, 55, 64
4, 204955, Note_on_c, 2, 60, 118
4, 205185, Note_off_c, 2, 60, 64
4, 205201, Note_on_c, 2, 62, 118
4, 205425, Note_off_c, 2, 62, 64
4, 205439, Note_on_c, 2, 60, 117
4, 206130, Note_off_c, 2, 60, 64
4, 206168, Note_on_c, 2, 62, 116
4, 206385, Note_off_c, 2, 62, 64
4, 206399, Note_on_c, 2, 60, 115
4, 206625, Note_off_c, 2, 60, 64
4, 206638, Note_on_c, 2, 59, 115
4, 206865, Note_off_c, 2, 59, 64
4, 206879, Note_on_c, 2, 57, 115
4, 207105, Note_off_c, 2, 57, 64
4, 207118, Note_on_c, 2, 55, 114
4, 207345, Note_off_c, 2, 55, 64
4, 207361, Note_on_c, 2, 57, 114
4, 207818, Note_off_c, 2, 57, 64
4, 207846, Note_on_c, 2, 55, 113
4, 208065, Note_off_c, 2, 55, 64
4, 208077, Note_on_c, 2, 57, 113
4, 208305, Note_off_c, 2, 57, 64
4, 208318, Note_on_c, 2, 53, 112
4, 208778, Note_off_c, 2, 53, 64
4, 208808, Note_on_c, 2, 55, 111
4, 209025, Note_off_c, 2, 55, 64
4, 209040, Note_on_c, 2, 57, 111
4, 209265, Note_off_c, 2, 57, 64
4, 209279, Note_on_c, 2, 59, 110
4, 209738, Note_off_c, 2, 59, 64
4, 209762, Note_on_c, 2, 60, 112
4, 209985, Note_off_c, 2, 60, 64
4, 210005, Note_on_c, 2, 62, 113
4, 210225, Note_off_c, 2, 62, 64
4, 210233, Note_on_c, 2, 64, 115
4, 210698, Note_off_c, 2, 64, 64
4, 210714, Note_on_c, 2, 59, 117
4, 211178, Note_off_c, 2, 59, 64
4, 213355, Note_on_c, 2, 60, 117
4, 213585, Note_off_c, 2, 60, 64
4, 213593, Note_on_c, 2, 67, 116
4, 213825, Note_off_c, 2, 67, 64
4, 213837, Note_on_c, 2, 69, 116
4, 214065, Note_off_c, 2, 69, 64
4, 214080, Note_on_c, 2, 67, 115
4, 214770, Note_off_c, 2, 67, 64
4, 214802, Note_on_c, 2, 69, 114
4, 215025, Note_off_c, 2, 69, 64
4, 215037, Note_on_c, 2, 67, 114
4, 215265, Note_off_c, 2, 67, 64
4, 215273, Note_on_c, 2, 66, 113
4, 215505, Note_off_c, 2, 66, 64
4, 215522, Note_on_c, 2, 64, 113
4, 215745, Note_off_c, 2, 64, 64
4, 215754, Note_on_c, 2, 62, 112
4, 215985, Note_off_c, 2, 62, 64
4, 215996, Note_on_c, 2, 64, 112
4, 216458, Note_off_c, 2, 64, 64
4, 216486, Note_on_c, 2, 62, 111
4, 216705, Note_off_c, 2, 62, 64
4, 216719, Note_on_c, 2, 64, 111
4, 216945, Note_off_c, 2, 64, 64
4, 216968, Note_on_c, 2, 60, 110
4, 217418, Note_off_c, 2, 60, 64
4, 217435, Note_on_c, 2, 60, 109
4, 217665, Note_off_c, 2, 60, 64
4, 217673, Note_on_c, 2, 62, 109
4, 217905, Note_off_c, 2, 62, 64
4, 217920, Note_on_c, 2, 64, 108
4, 218145, Note_off_c, 2, 64, 64
4, 218156, Note_on_c, 2, 67, 105
4, 218385, Note_off_c, 2, 67, 64
4, 218392, Note_on_c, 2, 69, 102
4, 218625, Note_off_c, 2, 69, 64
4, 218641, Note_on_c, 2, 71, 99
4, 218865, Note_off_c, 2, 71, 64
4, 218885, Note_on_c, 2, 67, 95
4, 219105, Note_off_c, 2, 67, 64
4, 219113, Note_on_c, 2, 66, 95
4, 219345, Note_off_c, 2, 66, 64
4, 219368, Note_on_c, 2, 67, 95
4, 219585, Note_off_c, 2, 67, 64
4, 219598, Note_on_c, 2, 69, 95
4, 219825, Note_off_c, 2, 69, 64
4, 219847, Note_on_c, 2, 66, 95
4, 220763, Note_off_c, 2, 66, 64
4, 220800, Note_on_c, 2, 64, 95
4, 221258, Note_off_c, 2, 64, 64
4, 221275, Note_on_c, 2, 62, 97
4, 222203, Note_off_c, 2, 62, 64
4, 222237, Note_on_c, 2, 64, 101
4, 222698, Note_off_c, 2, 64, 64
4, 222720, Note_on_c, 2, 66, 103
4, 222945, Note_off_c, 2, 66, 64
4, 222957, Note_on_c, 2, 64, 104
4, 223185, Note_off_c, 2, 64, 64
4, 223199, Note_on_c, 2, 66, 105
4, 223425, Note_off_c, 2, 66, 64
4, 223445, Note_on_c, 2, 67, 106
4, 223665, Note_off_c, 2, 67, 64
4, 223686, Note_on_c, 2, 69, 115
4, 224603, Note_off_c, 2, 69, 64
4, 224638, Note_on_c, 2, 71, 115
4, 225098, Note_off_c, 2, 71, 64
4, 225119, Note_on_c, 2, 72, 112
4, 225345, Note_off_c, 2, 72, 64
4, 225364, Note_on_c, 2, 74, 111
4, 225585, Note_off_c, 2, 74, 64
4, 225604, Note_on_c, 2, 76, 109
4, 226989, Note_off_c, 2, 76, 64
4, 227033, Note_on_c, 2, 74, 104
4, 227498, Note_off_c, 2, 74, 64
4, 227513, Note_on_c, 2, 73, 104
4, 228443, Note_off_c, 2, 73, 64
4, 228484, Note_on_c, 2, 73, 105
4, 228938, Note_off_c, 2, 73, 64
4, 228966, Note_on_c, 2, 71, 106
4, 229418, Note_off_c, 2, 71, 64
4, 229442, Note_on_c, 2, 69, 106
4, 230363, Note_off_c, 2, 69, 64
4, 230398, Note_on_c, 2, 69, 107
4, 230858, Note_off_c, 2, 69, 64
4, 230880, Note_on_c, 2, 67, 108
4, 231803, Note_off_c, 2, 67, 64
4, 231833, Note_on_c, 2, 67, 109
4, 232763, Note_off_c, 2, 67, 64
4, 232799, Note_on_c, 2, 66, 110
4, 233258, Note_off_c, 2, 66, 64
4, 233275, Note_on_c, 2, 67, 110
4, 233738, Note_off_c, 2, 67, 64
4, 233757, Note_on_c, 2, 66, 111
4, 234218, Note_off_c, 2, 66, 64
4, 236407, Note_on_c, 2, 50, 122
4, 236625, Note_off_c, 2, 50, 64
4, 236635, Note_on_c, 2, 57, 122
4, 236865, Note_off_c, 2, 57, 64
4, 236877, Note_on_c, 2, 59, 122
4, 237105, Note_off_c, 2, 59, 64
4, 237114, Note_on_c, 2, 57, 122
4, 237578, Note_off_c, 2, 57, 64
4, 237597, Note_on_c, 2, 55, 110
4, 238058, Note_off_c, 2, 55, 64
4, 238075, Note_on_c, 2, 55, 110
4, 239469, Note_off_c, 2, 55, 64
4, 239516, Note_on_c, 2, 55, 110
4, 240443, Note_off_c, 2, 55, 64
4, 240475, Note_on_c, 2, 54, 110
4, 241403, Note_off_c, 2, 54, 64
4, 241434, Note_on_c, 2, 55, 110
4, 243294, Note_off_c, 2, 55, 64
4, 243357, Note_on_c, 2, 54, 123
4, 243585, Note_off_c, 2, 54, 64
4, 243593, Note_on_c, 2, 55, 123
4, 243825, Note_off_c, 2, 55, 64
4, 243840, Note_on_c, 2, 56, 123
4, 245694, Note_off_c, 2, 56, 64
4, 245756, Control_c, 2, 93, 0
4, 245756, Control_c, 2, 91, 0
4, 245758, Control_c, 2, 121, 0
4, 245758, End_track
5, 0, Start_track
5, 0, Title_t, "bas"
5, 0, MIDI_port, 0
5, 0, Channel_prefix, 3
5, 0, Control_c, 3, 7, 127
5, 0, Control_c, 3, 10, 58
5, 0, Program_c, 3, 0
5, 0, Control_c, 3, 121, 0
5, 0, Control_c, 3, 0, 0
5, 1, Control_c, 3, 93, 16
5, 1, Control_c, 3, 91, 48
5, 19200, Note_on_c, 3, 40, 70
5, 20160, Note_off_c, 3, 40, 64
5, 20160, Note_on_c, 3, 43, 70
5, 20640, Note_off_c, 3, 43, 64
5, 20640, Note_on_c, 3, 45, 70
5, 21120, Note_off_c, 3, 45, 64
5, 21120, Note_on_c, 3, 47, 70
5, 21840, Note_off_c, 3, 47, 64
5, 21840, Note_on_c, 3, 48, 70
5, 22080, Note_off_c, 3, 48, 64
5, 22080, Note_on_c, 3, 47, 70
5, 23040, Note_off_c, 3, 47, 64
5, 23040, Note_on_c, 3, 48, 70
5, 24000, Note_off_c, 3, 48, 64
5, 24000, Note_on_c, 3, 47, 70
5, 24480, Note_off_c, 3, 47, 64
5, 24480, Note_on_c, 3, 45, 70
5, 24960, Note_off_c, 3, 45, 64
5, 24960, Note_on_c, 3, 50, 70
5, 26400, Note_off_c, 3, 50, 64
5, 26400, Note_on_c, 3, 48, 70
5, 26880, Note_off_c, 3, 48, 64
5, 26880, Note_on_c, 3, 47, 69
5, 27360, Note_off_c, 3, 47, 64
5, 27360, Note_on_c, 3, 45, 61
5, 28320, Note_off_c, 3, 45, 64
5, 28320, Note_on_c, 3, 43, 61
5, 28800, Note_off_c, 3, 43, 64
5, 28800, Note_on_c, 3, 50, 70
5, 29280, Note_off_c, 3, 50, 64
5, 29280, Note_on_c, 3, 49, 61
5, 29760, Note_off_c, 3, 49, 64
5, 29760, Note_on_c, 3, 50, 71
5, 30240, Note_off_c, 3, 50, 64
5, 30240, Note_on_c, 3, 49, 61
5, 30720, Note_off_c, 3, 49, 64
5, 30720, Note_on_c, 3, 52, 70
5, 31200, Note_off_c, 3, 52, 64
5, 31200, Note_on_c, 3, 50, 61
5, 32160, Note_off_c, 3, 50, 64
5, 32160, Note_on_c, 3, 49, 61
5, 33120, Note_off_c, 3, 49, 64
5, 33120, Note_on_c, 3, 45, 60
5, 33360, Note_off_c, 3, 45, 64
5, 33360, Note_on_c, 3, 47, 57
5, 33600, Note_off_c, 3, 47, 64
5, 33600, Note_on_c, 3, 48, 54
5, 35040, Note_off_c, 3, 48, 64
5, 35040, Note_on_c, 3, 43, 57
5, 35280, Note_off_c, 3, 43, 64
5, 35280, Note_on_c, 3, 45, 54
5, 35520, Note_off_c, 3, 45, 64
5, 35520, Note_on_c, 3, 47, 50
5, 36960, Note_off_c, 3, 47, 64
5, 36960, Note_on_c, 3, 48, 68
5, 37200, Note_off_c, 3, 48, 64
5, 37200, Note_on_c, 3, 50, 65
5, 37440, Note_off_c, 3, 50, 64
5, 37440, Note_on_c, 3, 52, 61
5, 39360, Note_off_c, 3, 52, 64
5, 39360, Note_on_c, 3, 54, 74
5, 39840, Note_off_c, 3, 54, 64
5, 39840, Note_on_c, 3, 52, 72
5, 40080, Note_off_c, 3, 52, 64
5, 40080, Note_on_c, 3, 54, 70
5, 40320, Note_off_c, 3, 54, 64
5, 40320, Note_on_c, 3, 55, 69
5, 41280, Note_off_c, 3, 55, 64
5, 67200, Note_on_c, 3, 48, 73
5, 68160, Note_off_c, 3, 48, 64
5, 68160, Note_on_c, 3, 52, 73
5, 68640, Note_off_c, 3, 52, 64
5, 68640, Note_on_c, 3, 53, 73
5, 69120, Note_off_c, 3, 53, 64
5, 69120, Note_on_c, 3, 55, 73
5, 69840, Note_off_c, 3, 55, 64
5, 69840, Note_on_c, 3, 57, 73
5, 70080, Note_off_c, 3, 57, 64
5, 70080, Note_on_c, 3, 55, 73
5, 71040, Note_off_c, 3, 55, 64
5, 71040, Note_on_c, 3, 57, 73
5, 72000, Note_off_c, 3, 57, 64
5, 72000, Note_on_c, 3, 55, 72
5, 72480, Note_off_c, 3, 55, 64
5, 72480, Note_on_c, 3, 53, 72
5, 72960, Note_off_c, 3, 53, 64
5, 72968, Note_on_c, 3, 58, 72
5, 74400, Note_on_c, 3, 57, 70
5, 74408, Note_off_c, 3, 58, 64
5, 74880, Note_off_c, 3, 57, 64
5, 74880, Note_on_c, 3, 55, 72
5, 76320, Note_off_c, 3, 55, 64
5, 76320, Note_on_c, 3, 57, 76
5, 76560, Note_off_c, 3, 57, 64
5, 76560, Note_on_c, 3, 55, 77
5, 76800, Note_off_c, 3, 55, 64
5, 76800, Note_on_c, 3, 53, 68
5, 77280, Note_off_c, 3, 53, 64
5, 77280, Note_on_c, 3, 52, 67
5, 78240, Note_off_c, 3, 52, 64
5, 78240, Note_on_c, 3, 50, 63
5, 78720, Note_off_c, 3, 50, 64
5, 78720, Note_on_c, 3, 57, 61
5, 79200, Note_off_c, 3, 57, 64
5, 79200, Note_on_c, 3, 55, 59
5, 79680, Note_off_c, 3, 55, 64
5, 79680, Note_on_c, 3, 57, 57
5, 80160, Note_off_c, 3, 57, 64
5, 80160, Note_on_c, 3, 55, 62
5, 80640, Note_off_c, 3, 55, 64
5, 80640, Note_on_c, 3, 58, 65
5, 81120, Note_off_c, 3, 58, 64
5, 81120, Note_on_c, 3, 57, 67
5, 82080, Note_off_c, 3, 57, 64
5, 82080, Note_on_c, 3, 55, 71
5, 84000, Note_off_c, 3, 55, 64
5, 84000, Note_on_c, 3, 57, 78
5, 84960, Note_off_c, 3, 57, 64
5, 84960, Note_on_c, 3, 55, 78
5, 85200, Note_off_c, 3, 55, 64
5, 85200, Note_on_c, 3, 57, 72
5, 85440, Note_off_c, 3, 57, 64
5, 85440, Note_on_c, 3, 58, 67
5, 86880, Note_off_c, 3, 58, 64
5, 86880, Note_on_c, 3, 55, 75
5, 87360, Note_off_c, 3, 55, 64
5, 87360, Note_on_c, 3, 57, 72
5, 87840, Note_off_c, 3, 57, 64
5, 87840, Note_on_c, 3, 58, 69
5, 88320, Note_off_c, 3, 58, 64
5, 88320, Note_on_c, 3, 59, 62
5, 90480, Note_off_c, 3, 59, 64
5, 90720, Note_on_c, 3, 59, 55
5, 91200, Note_off_c, 3, 59, 64
5, 91680, Note_on_c, 3, 57, 55
5, 92160, Note_off_c, 3, 57, 64
5, 92640, Note_on_c, 3, 50, 55
5, 93120, Note_off_c, 3, 50, 64
5, 93600, Note_on_c, 3, 52, 55
5, 94080, Note_off_c, 3, 52, 64
5, 94080, Note_on_c, 3, 54, 55
5, 96240, Note_off_c, 3, 54, 64
5, 111600, Note_on_c, 3, 54, 86
5, 111840, Note_off_c, 3, 54, 64
5, 111840, Note_on_c, 3, 61, 86
5, 112080, Note_off_c, 3, 61, 64
5, 112080, Note_on_c, 3, 62, 86
5, 112320, Note_off_c, 3, 62, 64
5, 112320, Note_on_c, 3, 61, 86
5, 113040, Note_off_c, 3, 61, 64
5, 113040, Note_on_c, 3, 62, 86
5, 113280, Note_off_c, 3, 62, 64
5, 113280, Note_on_c, 3, 61, 86
5, 113520, Note_off_c, 3, 61, 64
5, 113520, Note_on_c, 3, 59, 86
5, 113760, Note_off_c, 3, 59, 64
5, 113760, Note_on_c, 3, 57, 86
5, 114000, Note_off_c, 3, 57, 64
5, 114000, Note_on_c, 3, 56, 86
5, 114240, Note_off_c, 3, 56, 64
5, 114240, Note_on_c, 3, 57, 86
5, 114720, Note_off_c, 3, 57, 64
5, 114720, Note_on_c, 3, 56, 86
5, 114960, Note_off_c, 3, 56, 64
5, 114960, Note_on_c, 3, 57, 86
5, 115200, Note_off_c, 3, 57, 64
5, 115200, Note_on_c, 3, 54, 86
5, 115680, Note_off_c, 3, 54, 64
5, 115680, Note_on_c, 3, 54, 88
5, 115920, Note_off_c, 3, 54, 64
5, 115920, Note_on_c, 3, 56, 89
5, 116160, Note_off_c, 3, 56, 64
5, 116160, Note_on_c, 3, 57, 90
5, 116400, Note_off_c, 3, 57, 64
5, 116400, Note_on_c, 3, 61, 91
5, 116640, Note_off_c, 3, 61, 64
5, 116640, Note_on_c, 3, 62, 92
5, 116880, Note_off_c, 3, 62, 64
5, 116880, Note_on_c, 3, 64, 93
5, 117120, Note_off_c, 3, 64, 64
5, 117120, Note_on_c, 3, 61, 94
5, 117360, Note_off_c, 3, 61, 64
5, 117360, Note_on_c, 3, 59, 95
5, 117600, Note_off_c, 3, 59, 64
5, 117600, Note_on_c, 3, 61, 96
5, 117840, Note_off_c, 3, 61, 64
5, 117840, Note_on_c, 3, 62, 97
5, 118080, Note_off_c, 3, 62, 64
5, 118080, Note_on_c, 3, 59, 98
5, 119280, Note_off_c, 3, 59, 64
5, 119280, Note_on_c, 3, 57, 96
5, 119520, Note_off_c, 3, 57, 64
5, 119520, Note_on_c, 3, 59, 96
5, 119760, Note_off_c, 3, 59, 64
5, 119760, Note_on_c, 3, 61, 96
5, 120000, Note_off_c, 3, 61, 64
5, 120000, Note_on_c, 3, 57, 96
5, 121440, Note_off_c, 3, 57, 64
5, 121440, Note_on_c, 3, 55, 96
5, 123840, Note_off_c, 3, 55, 64
5, 123840, Note_on_c, 3, 55, 87
5, 126960, Note_off_c, 3, 55, 64
5, 126960, Note_on_c, 3, 57, 66
5, 127200, Note_off_c, 3, 57, 64
5, 127200, Note_on_c, 3, 54, 67
5, 127920, Note_off_c, 3, 54, 64
5, 144240, Note_on_c, 3, 48, 95
5, 144480, Note_off_c, 3, 48, 64
5, 144480, Note_on_c, 3, 55, 95
5, 144720, Note_off_c, 3, 55, 64
5, 144720, Note_on_c, 3, 56, 95
5, 144960, Note_off_c, 3, 56, 64
5, 144960, Note_on_c, 3, 55, 95
5, 145680, Note_off_c, 3, 55, 64
5, 145680, Note_on_c, 3, 56, 95
5, 145920, Note_off_c, 3, 56, 64
5, 145920, Note_on_c, 3, 55, 95
5, 146160, Note_off_c, 3, 55, 64
5, 146160, Note_on_c, 3, 53, 95
5, 146400, Note_off_c, 3, 53, 64
5, 146400, Note_on_c, 3, 51, 95
5, 146640, Note_off_c, 3, 51, 64
5, 146640, Note_on_c, 3, 50, 95
5, 146880, Note_off_c, 3, 50, 64
5, 146880, Note_on_c, 3, 51, 95
5, 147360, Note_off_c, 3, 51, 64
5, 147360, Note_on_c, 3, 50, 95
5, 147600, Note_off_c, 3, 50, 64
5, 147600, Note_on_c, 3, 51, 95
5, 147840, Note_off_c, 3, 51, 64
5, 147840, Note_on_c, 3, 48, 95
5, 148320, Note_off_c, 3, 48, 64
5, 148320, Note_on_c, 3, 48, 96
5, 148560, Note_off_c, 3, 48, 64
5, 148560, Note_on_c, 3, 50, 97
5, 148800, Note_off_c, 3, 50, 64
5, 148800, Note_on_c, 3, 51, 97
5, 149040, Note_off_c, 3, 51, 64
5, 149040, Note_on_c, 3, 55, 98
5, 149280, Note_off_c, 3, 55, 64
5, 149280, Note_on_c, 3, 56, 99
5, 149520, Note_off_c, 3, 56, 64
5, 149520, Note_on_c, 3, 58, 100
5, 149760, Note_off_c, 3, 58, 64
5, 149760, Note_on_c, 3, 55, 100
5, 150000, Note_off_c, 3, 55, 64
5, 150000, Note_on_c, 3, 53, 101
5, 150240, Note_off_c, 3, 53, 64
5, 150240, Note_on_c, 3, 55, 102
5, 150480, Note_off_c, 3, 55, 64
5, 150480, Note_on_c, 3, 56, 102
5, 150720, Note_off_c, 3, 56, 64
5, 150720, Note_on_c, 3, 53, 94
5, 152160, Note_off_c, 3, 53, 64
5, 152160, Note_on_c, 3, 55, 94
5, 153120, Note_off_c, 3, 55, 64
5, 153120, Note_on_c, 3, 50, 94
5, 153600, Note_off_c, 3, 50, 64
5, 153600, Note_on_c, 3, 55, 95
5, 154080, Note_off_c, 3, 55, 64
5, 154080, Note_on_c, 3, 53, 95
5, 154560, Note_off_c, 3, 53, 64
5, 154560, Note_on_c, 3, 51, 95
5, 154800, Note_off_c, 3, 51, 64
5, 154800, Note_on_c, 3, 53, 95
5, 155040, Note_off_c, 3, 53, 64
5, 155040, Note_on_c, 3, 50, 95
5, 155520, Note_off_c, 3, 50, 64
5, 155520, Note_on_c, 3, 55, 95
5, 156240, Note_off_c, 3, 55, 64
5, 156240, Note_on_c, 3, 57, 95
5, 156480, Note_off_c, 3, 57, 64
5, 156480, Note_on_c, 3, 58, 95
5, 156960, Note_off_c, 3, 58, 64
5, 156960, Note_on_c, 3, 57, 96
5, 157680, Note_off_c, 3, 57, 64
5, 157680, Note_on_c, 3, 55, 96
5, 157920, Note_off_c, 3, 55, 64
5, 157920, Note_on_c, 3, 57, 96
5, 158160, Note_off_c, 3, 57, 64
5, 158160, Note_on_c, 3, 58, 96
5, 158400, Note_off_c, 3, 58, 64
5, 158400, Note_on_c, 3, 55, 96
5, 159600, Note_off_c, 3, 55, 64
5, 159600, Note_on_c, 3, 57, 96
5, 159840, Note_off_c, 3, 57, 64
5, 159840, Note_on_c, 3, 58, 105
5, 160080, Note_off_c, 3, 58, 64
5, 160080, Note_on_c, 3, 60, 105
5, 160320, Note_off_c, 3, 60, 64
5, 160320, Note_on_c, 3, 58, 105
5, 161520, Note_off_c, 3, 58, 64
5, 161520, Note_on_c, 3, 60, 107
5, 161760, Note_off_c, 3, 60, 64
5, 161760, Note_on_c, 3, 62, 108
5, 162000, Note_off_c, 3, 62, 64
5, 162000, Note_on_c, 3, 63, 108
5, 162240, Note_off_c, 3, 63, 64
5, 162240, Note_on_c, 3, 62, 109
5, 163440, Note_off_c, 3, 62, 64
5, 163440, Note_on_c, 3, 60, 111
5, 163680, Note_off_c, 3, 60, 64
5, 163680, Note_on_c, 3, 58, 112
5, 164400, Note_off_c, 3, 58, 64
5, 164400, Note_on_c, 3, 57, 114
5, 164640, Note_off_c, 3, 57, 64
5, 164640, Note_on_c, 3, 55, 114
5, 165360, Note_off_c, 3, 55, 64
5, 165360, Note_on_c, 3, 57, 116
5, 165600, Note_off_c, 3, 57, 64
5, 165600, Note_on_c, 3, 54, 116
5, 166320, Note_off_c, 3, 54, 64
5, 166320, Note_on_c, 3, 52, 118
5, 166560, Note_off_c, 3, 52, 64
5, 166560, Note_on_c, 3, 54, 118
5, 166800, Note_off_c, 3, 54, 64
5, 166800, Note_on_c, 3, 55, 119
5, 167040, Note_off_c, 3, 55, 64
5, 167040, Note_on_c, 3, 40, 120
5, 168000, Note_off_c, 3, 40, 64
5, 168000, Note_on_c, 3, 43, 120
5, 168480, Note_off_c, 3, 43, 64
5, 168480, Note_on_c, 3, 45, 119
5, 168960, Note_off_c, 3, 45, 64
5, 168960, Note_on_c, 3, 47, 119
5, 169680, Note_off_c, 3, 47, 64
5, 169680, Note_on_c, 3, 48, 119
5, 169920, Note_off_c, 3, 48, 64
5, 169920, Note_on_c, 3, 47, 118
5, 170880, Note_off_c, 3, 47, 64
5, 170880, Note_on_c, 3, 48, 118
5, 171840, Note_off_c, 3, 48, 64
5, 171840, Note_on_c, 3, 47, 117
5, 172320, Note_off_c, 3, 47, 64
5, 172320, Note_on_c, 3, 45, 117
5, 172800, Note_off_c, 3, 45, 64
5, 172800, Note_on_c, 3, 50, 116
5, 174240, Note_off_c, 3, 50, 64
5, 174240, Note_on_c, 3, 48, 115
5, 174720, Note_off_c, 3, 48, 64
5, 174960, Note_on_c, 3, 47, 115
5, 175200, Note_off_c, 3, 47, 64
5, 175200, Note_on_c, 3, 54, 115
5, 175440, Note_off_c, 3, 54, 64
5, 175440, Note_on_c, 3, 55, 115
5, 175680, Note_off_c, 3, 55, 64
5, 175680, Note_on_c, 3, 54, 114
5, 176400, Note_off_c, 3, 54, 64
5, 176400, Note_on_c, 3, 55, 114
5, 176640, Note_off_c, 3, 55, 64
5, 176640, Note_on_c, 3, 54, 114
5, 176880, Note_off_c, 3, 54, 64
5, 176880, Note_on_c, 3, 52, 114
5, 177120, Note_off_c, 3, 52, 64
5, 177120, Note_on_c, 3, 50, 113
5, 177360, Note_off_c, 3, 50, 64
5, 177360, Note_on_c, 3, 49, 113
5, 177600, Note_off_c, 3, 49, 64
5, 177600, Note_on_c, 3, 50, 113
5, 178080, Note_off_c, 3, 50, 64
5, 178080, Note_on_c, 3, 49, 113
5, 178320, Note_off_c, 3, 49, 64
5, 178320, Note_on_c, 3, 50, 112
5, 178560, Note_off_c, 3, 50, 64
5, 178560, Note_on_c, 3, 47, 112
5, 179040, Note_off_c, 3, 47, 64
5, 179040, Note_on_c, 3, 47, 112
5, 179280, Note_off_c, 3, 47, 64
5, 179280, Note_on_c, 3, 49, 112
5, 179520, Note_off_c, 3, 49, 64
5, 179520, Note_on_c, 3, 50, 112
5, 179760, Note_off_c, 3, 50, 64
5, 179760, Note_on_c, 3, 54, 111
5, 180000, Note_off_c, 3, 54, 64
5, 180000, Note_on_c, 3, 55, 111
5, 180240, Note_off_c, 3, 55, 64
5, 180240, Note_on_c, 3, 57, 111
5, 180480, Note_off_c, 3, 57, 64
5, 180480, Note_on_c, 3, 54, 111
5, 181200, Note_off_c, 3, 54, 64
5, 181200, Note_on_c, 3, 55, 110
5, 181440, Note_off_c, 3, 55, 64
5, 181440, Note_on_c, 3, 52, 110
5, 182400, Note_off_c, 3, 52, 64
5, 182400, Note_on_c, 3, 54, 110
5, 184560, Note_off_c, 3, 54, 64
5, 184560, Note_on_c, 3, 52, 108
5, 184800, Note_off_c, 3, 52, 64
5, 184800, Note_on_c, 3, 54, 108
5, 185040, Note_off_c, 3, 54, 64
5, 185040, Note_on_c, 3, 55, 108
5, 185280, Note_off_c, 3, 55, 64
5, 185280, Note_on_c, 3, 52, 108
5, 185760, Note_off_c, 3, 52, 64
5, 185760, Note_on_c, 3, 50, 107
5, 187680, Note_off_c, 3, 50, 64
5, 187680, Note_on_c, 3, 49, 106
5, 188160, Note_off_c, 3, 49, 64
5, 188400, Note_on_c, 3, 48, 88
5, 188640, Note_off_c, 3, 48, 64
5, 188640, Note_on_c, 3, 55, 88
5, 188880, Note_off_c, 3, 55, 64
5, 188880, Note_on_c, 3, 57, 89
5, 189120, Note_off_c, 3, 57, 64
5, 189120, Note_on_c, 3, 55, 89
5, 189840, Note_off_c, 3, 55, 64
5, 189840, Note_on_c, 3, 57, 90
5, 190080, Note_off_c, 3, 57, 64
5, 190080, Note_on_c, 3, 55, 91
5, 190320, Note_off_c, 3, 55, 64
5, 190320, Note_on_c, 3, 54, 91
5, 190560, Note_off_c, 3, 54, 64
5, 190560, Note_on_c, 3, 52, 92
5, 190800, Note_off_c, 3, 52, 64
5, 190800, Note_on_c, 3, 50, 92
5, 191040, Note_off_c, 3, 50, 64
5, 191040, Note_on_c, 3, 52, 93
5, 191520, Note_off_c, 3, 52, 64
5, 191520, Note_on_c, 3, 50, 94
5, 191760, Note_off_c, 3, 50, 64
5, 191760, Note_on_c, 3, 52, 94
5, 192000, Note_off_c, 3, 52, 64
5, 192240, Note_on_c, 3, 48, 91
5, 192480, Note_off_c, 3, 48, 64
5, 192480, Note_on_c, 3, 55, 93
5, 192720, Note_off_c, 3, 55, 64
5, 192720, Note_on_c, 3, 57, 94
5, 192960, Note_off_c, 3, 57, 64
5, 192960, Note_on_c, 3, 55, 96
5, 193680, Note_off_c, 3, 55, 64
5, 193680, Note_on_c, 3, 57, 101
5, 193920, Note_off_c, 3, 57, 64
5, 193920, Note_on_c, 3, 55, 103
5, 194160, Note_off_c, 3, 55, 64
5, 194160, Note_on_c, 3, 54, 104
5, 194400, Note_off_c, 3, 54, 64
5, 194400, Note_on_c, 3, 52, 106
5, 194640, Note_off_c, 3, 52, 64
5, 194640, Note_on_c, 3, 50, 108
5, 194880, Note_off_c, 3, 50, 64
5, 194880, Note_on_c, 3, 52, 109
5, 195360, Note_off_c, 3, 52, 64
5, 195360, Note_on_c, 3, 50, 113
5, 195600, Note_off_c, 3, 50, 64
5, 195600, Note_on_c, 3, 52, 114
5, 195840, Note_off_c, 3, 52, 64
5, 195840, Note_on_c, 3, 54, 115
5, 197760, Note_off_c, 3, 54, 64
5, 197760, Note_on_c, 3, 53, 115
5, 199920, Note_off_c, 3, 53, 64
5, 199920, Note_on_c, 3, 52, 95
5, 200160, Note_off_c, 3, 52, 64
5, 200160, Note_on_c, 3, 53, 96
5, 200400, Note_off_c, 3, 53, 64
5, 200400, Note_on_c, 3, 55, 98
5, 200640, Note_off_c, 3, 55, 64
5, 200640, Note_on_c, 3, 52, 99
5, 200880, Note_off_c, 3, 52, 64
5, 200880, Note_on_c, 3, 50, 100
5, 201120, Note_off_c, 3, 50, 64
5, 201120, Note_on_c, 3, 52, 102
5, 201360, Note_off_c, 3, 52, 64
5, 201360, Note_on_c, 3, 53, 103
5, 201600, Note_off_c, 3, 53, 64
5, 201600, Note_on_c, 3, 50, 104
5, 201840, Note_off_c, 3, 50, 64
5, 201840, Note_on_c, 3, 48, 106
5, 202080, Note_off_c, 3, 48, 64
5, 202080, Note_on_c, 3, 50, 107
5, 202320, Note_off_c, 3, 50, 64
5, 202320, Note_on_c, 3, 52, 108
5, 202560, Note_off_c, 3, 52, 64
5, 202560, Note_on_c, 3, 48, 110
5, 202800, Note_off_c, 3, 48, 64
5, 202800, Note_on_c, 3, 47, 111
5, 203040, Note_off_c, 3, 47, 64
5, 203040, Note_on_c, 3, 48, 112
5, 203280, Note_off_c, 3, 48, 64
5, 203280, Note_on_c, 3, 50, 114
5, 203520, Note_off_c, 3, 50, 64
5, 203520, Note_on_c, 3, 45, 104
5, 204480, Note_off_c, 3, 45, 64
5, 204480, Note_on_c, 3, 48, 104
5, 204960, Note_off_c, 3, 48, 64
5, 204960, Note_on_c, 3, 50, 104
5, 205440, Note_off_c, 3, 50, 64
5, 205440, Note_on_c, 3, 52, 104
5, 206160, Note_off_c, 3, 52, 64
5, 206160, Note_on_c, 3, 53, 104
5, 206400, Note_off_c, 3, 53, 64
5, 206400, Note_on_c, 3, 52, 105
5, 207360, Note_off_c, 3, 52, 64
5, 207360, Note_on_c, 3, 53, 105
5, 208320, Note_off_c, 3, 53, 64
5, 208320, Note_on_c, 3, 52, 105
5, 208800, Note_off_c, 3, 52, 64
5, 208800, Note_on_c, 3, 50, 105
5, 209280, Note_off_c, 3, 50, 64
5, 209280, Note_on_c, 3, 55, 106
5, 210720, Note_off_c, 3, 55, 64
5, 210720, Note_on_c, 3, 53, 106
5, 211200, Note_off_c, 3, 53, 64
5, 211200, Note_on_c, 3, 52, 117
5, 213120, Note_off_c, 3, 52, 64
5, 213120, Note_on_c, 3, 48, 117
5, 214080, Note_off_c, 3, 48, 64
5, 214080, Note_on_c, 3, 52, 115
5, 214560, Note_off_c, 3, 52, 64
5, 214560, Note_on_c, 3, 54, 114
5, 215040, Note_off_c, 3, 54, 64
5, 215040, Note_on_c, 3, 55, 114
5, 215760, Note_off_c, 3, 55, 64
5, 215760, Note_on_c, 3, 57, 112
5, 216000, Note_off_c, 3, 57, 64
5, 216000, Note_on_c, 3, 55, 112
5, 216960, Note_off_c, 3, 55, 64
5, 216960, Note_on_c, 3, 57, 110
5, 217920, Note_off_c, 3, 57, 64
5, 217920, Note_on_c, 3, 55, 108
5, 218400, Note_off_c, 3, 55, 64
5, 218400, Note_on_c, 3, 54, 102
5, 218880, Note_off_c, 3, 54, 64
5, 218880, Note_on_c, 3, 59, 95
5, 221280, Note_off_c, 3, 59, 64
5, 221280, Note_on_c, 3, 60, 97
5, 222240, Note_off_c, 3, 60, 64
5, 222240, Note_on_c, 3, 59, 101
5, 222720, Note_off_c, 3, 59, 64
5, 222720, Note_on_c, 3, 57, 103
5, 223200, Note_off_c, 3, 57, 64
5, 223200, Note_on_c, 3, 55, 105
5, 223680, Note_off_c, 3, 55, 64
5, 223680, Note_on_c, 3, 54, 91
5, 224160, Note_off_c, 3, 54, 64
5, 224160, Note_on_c, 3, 52, 96
5, 225120, Note_off_c, 3, 52, 64
5, 225120, Note_on_c, 3, 50, 106
5, 225600, Note_off_c, 3, 50, 64
5, 225600, Note_on_c, 3, 49, 111
5, 226560, Note_off_c, 3, 49, 64
5, 226560, Note_on_c, 3, 35, 122
5, 227520, Note_off_c, 3, 35, 64
5, 227520, Note_on_c, 3, 38, 120
5, 228000, Note_off_c, 3, 38, 64
5, 228000, Note_on_c, 3, 40, 120
5, 228480, Note_off_c, 3, 40, 64
5, 228480, Note_on_c, 3, 42, 120
5, 229200, Note_off_c, 3, 42, 64
5, 229200, Note_on_c, 3, 43, 120
5, 229440, Note_off_c, 3, 43, 64
5, 229440, Note_on_c, 3, 42, 120
5, 230400, Note_off_c, 3, 42, 64
5, 230400, Note_on_c, 3, 43, 119
5, 231360, Note_off_c, 3, 43, 64
5, 231360, Note_on_c, 3, 42, 119
5, 231840, Note_off_c, 3, 42, 64
5, 231840, Note_on_c, 3, 40, 119
5, 232320, Note_off_c, 3, 40, 64
5, 232320, Note_on_c, 3, 45, 119
5, 233760, Note_off_c, 3, 45, 64
5, 233760, Note_on_c, 3, 43, 119
5, 234240, Note_off_c, 3, 43, 64
5, 234240, Note_on_c, 3, 42, 118
5, 237600, Note_off_c, 3, 42, 64
5, 237600, Note_on_c, 3, 43, 121
5, 237840, Note_off_c, 3, 43, 64
5, 237840, Note_on_c, 3, 45, 121
5, 238080, Note_off_c, 3, 45, 64
5, 238080, Note_on_c, 3, 47, 120
5, 238320, Note_off_c, 3, 47, 64
5, 238320, Note_on_c, 3, 40, 120
5, 238560, Note_off_c, 3, 40, 64
5, 238560, Note_on_c, 3, 47, 119
5, 238800, Note_off_c, 3, 47, 64
5, 238800, Note_on_c, 3, 48, 119
5, 239040, Note_off_c, 3, 48, 64
5, 239040, Note_on_c, 3, 47, 118
5, 239760, Note_off_c, 3, 47, 64
5, 239760, Note_on_c, 3, 48, 117
5, 240000, Note_off_c, 3, 48, 64
5, 240000, Note_on_c, 3, 47, 116
5, 240240, Note_off_c, 3, 47, 64
5, 240240, Note_on_c, 3, 45, 116
5, 240480, Note_off_c, 3, 45, 64
5, 240480, Note_on_c, 3, 43, 115
5, 240720, Note_off_c, 3, 43, 64
5, 240720, Note_on_c, 3, 42, 115
5, 240960, Note_off_c, 3, 42, 64
5, 240960, Note_on_c, 3, 43, 114
5, 241440, Note_off_c, 3, 43, 64
5, 241440, Note_on_c, 3, 42, 113
5, 241680, Note_off_c, 3, 42, 64
5, 241680, Note_on_c, 3, 40, 113
5, 241920, Note_off_c, 3, 40, 64
5, 241920, Note_on_c, 3, 38, 116
5, 242880, Note_off_c, 3, 38, 64
5, 242880, Note_on_c, 3, 36, 126
5, 243360, Note_off_c, 3, 36, 64
5, 243360, Note_on_c, 3, 35, 126
5, 243840, Note_off_c, 3, 35, 64
5, 243840, Note_on_c, 3, 28, 125
5, 245756, Control_c, 3, 93, 0
5, 245756, Control_c, 3, 91, 0
5, 245758, Control_c, 3, 121, 0
5, 245760, Note_off_c, 3, 28, 64
5, 245760, End_track
6, 0, Start_track
6, 0, Title_t, "============="
6, 0, MIDI_port, 0
6, 0, End_track
7, 0, Start_track
7, 0, Title_t, "D. SHOSTAKOVICH"
7, 0, MIDI_port, 0
7, 0, End_track
8, 0, Start_track
8, 0, Title_t, "Fugue in E minor"
8, 0, MIDI_port, 0
8, 0, End_track
9, 0, Start_track
9, 0, Title_t, "opus 87 no. 4"
9, 0, MIDI_port, 0
9, 0, End_track
10, 0, Start_track
10, 0, Title_t, "Seq. by J. Marques"
10, 0, MIDI_port, 0
10, 0, End_track
11, 0, Start_track
11, 0, Title_t, "marques@super.zippo.com"
11, 0, MIDI_port, 0
11, 0, End_track
12, 0, Start_track
12, 0, Title_t, "=============="
12, 0, MIDI_port, 0
12, 0, End_track
13, 0, Start_track
13, 1, Copyright_t, "___________________________________________________\012\012KUNSTDERFUGE.COM LARGE CLASSICAL MIDI COLLECTION\012ONCLASSICAL BY ALESSANDRO SIMONETTO, PROPRIETOR\012___________________________________________________\012\012! Attention: this file is under copyright !\012\012(c)onclassical, (c)marques, 2010\012___________________________________________________\012\012NO ONE MAY REPUBLISH THIS FILE WITHOUT PERMISSION\012COMMERCIAL USES OF THIS FILE IS STRICTLY PROHIBITED\012___________________________________________________\012\012Files & contributor's list: http://kunstderfuge.com/\012Terms and conditions: http://kunstderfuge.com/notes.htm"
13, 1, End_track
0, 0, End_of_file