0, 0, Header, 1, 1, 480
1, 0, Start_track
1, 0, Sequence_number, 0
1, 0, Title_t, "c3"
1, 0, Channel_prefix, 0
1, 0, Instrument_name_t, "2"
1, 0, Program_c, 0, 0
1, 0, Tempo, 317460
1, 0, Time_signature, 6, 3, 24, 24
1, 0, Key_signature, 1, "major"
1, 5760, Note_on_c, 0, 62, 90
1, 5880, Note_off_c, 0, 62, 0
1, 5880, Note_on_c, 0, 64, 90
1, 6000, Note_off_c, 0, 64, 0
1, 6000, Note_on_c, 0, 66, 90
1, 6120, Note_off_c, 0, 66, 0
1, 6120, Note_on_c, 0, 67, 90
1, 6240, Note_off_c, 0, 67, 0
1, 6240, Note_on_c, 0, 69, 90
1, 6360, Note_off_c, 0, 69, 0
1, 6360, Note_on_c, 0, 71, 90
1, 6480, Note_off_c, 0, 71, 0
1, 6480, Note_on_c, 0, 73, 90
1, 6720, Note_off_c, 0, 73, 0
1, 6960, Note_on_c, 0, 73, 90
1, 7140, Note_off_c, 0, 73, 0
1, 7200, Note_on_c, 0, 64, 90
1, 7680, Note_off_c, 0, 64, 0
1, 7680, Note_on_c, 0, 64, 90
1, 7860, Note_off_c, 0, 64, 0
1, 7920, Note_on_c, 0, 71, 90
1, 8400, Note_off_c, 0, 71, 0
1, 8400, Note_on_c, 0, 71, 90
1, 8580, Note_off_c, 0, 71, 0
1, 8640, Note_on_c, 0, 66, 90
1, 9120, Note_off_c, 0, 66, 0
1, 9120, Note_on_c, 0, 67, 90
1, 9360, Note_off_c, 0, 67, 0
1, 9360, Note_on_c, 0, 78, 90
1, 9540, Note_off_c, 0, 78, 0
1, 9600, Note_on_c, 0, 76, 90
1, 9780, Note_off_c, 0, 76, 0
1, 9840, Note_on_c, 0, 74, 90
1, 10020, Note_off_c, 0, 74, 0
1, 10080, Note_on_c, 0, 73, 90
1, 10260, Note_off_c, 0, 73, 0
1, 10320, Note_on_c, 0, 74, 90
1, 10500, Note_off_c, 0, 74, 0
1, 10560, Note_on_c, 0, 76, 90
1, 10740, Note_off_c, 0, 76, 0
1, 10800, Note_on_c, 0, 71, 90
1, 10980, Note_off_c, 0, 71, 0
1, 11040, Note_on_c, 0, 73, 90
1, 11220, Note_off_c, 0, 73, 0
1, 11280, Note_on_c, 0, 74, 90
1, 11460, Note_off_c, 0, 74, 0
1, 11520, Note_on_c, 0, 73, 90
1, 11700, Note_off_c, 0, 73, 0
1, 11760, Note_on_c, 0, 71, 90
1, 11940, Note_off_c, 0, 71, 0
1, 12000, Note_on_c, 0, 69, 90
1, 12180, Note_off_c, 0, 69, 0
1, 12240, Note_on_c, 0, 72, 90
1, 12420, Note_off_c, 0, 72, 0
1, 12480, Note_on_c, 0, 71, 90
1, 12660, Note_off_c, 0, 71, 0
1, 12720, Note_on_c, 0, 69, 90
1, 12900, Note_off_c, 0, 69, 0
1, 12960, Note_on_c, 0, 71, 90
1, 13140, Note_off_c, 0, 71, 0
1, 13200, Note_on_c, 0, 69, 90
1, 13380, Note_off_c, 0, 69, 0
1, 13440, Note_on_c, 0, 67, 90
1, 13620, Note_off_c, 0, 67, 0
1, 13680, Note_on_c, 0, 69, 90
1, 13860, Note_off_c, 0, 69, 0
1, 13920, Note_on_c, 0, 67, 90
1, 14100, Note_off_c, 0, 67, 0
1, 14160, Note_on_c, 0, 66, 90
1, 14340, Note_off_c, 0, 66, 0
1, 14400, Note_on_c, 0, 71, 90
1, 14580, Note_off_c, 0, 71, 0
1, 14640, Note_on_c, 0, 69, 90
1, 14820, Note_off_c, 0, 69, 0
1, 14880, Note_on_c, 0, 67, 90
1, 15060, Note_off_c, 0, 67, 0
1, 15360, Note_on_c, 0, 74, 90
1, 16080, Note_off_c, 0, 74, 0
1, 16080, Note_on_c, 0, 72, 90
1, 16800, Note_off_c, 0, 72, 0
1, 16800, Note_on_c, 0, 71, 90
1, 17520, Note_off_c, 0, 71, 0
1, 17520, Note_on_c, 0, 79, 90
1, 18240, Note_off_c, 0, 79, 0
1, 18240, Note_on_c, 0, 74, 90
1, 18360, Note_off_c, 0, 74, 0
1, 18360, Note_on_c, 0, 76, 90
1, 18480, Note_off_c, 0, 76, 0
1, 18480, Note_on_c, 0, 74, 90
1, 18600, Note_off_c, 0, 74, 0
1, 18600, Note_on_c, 0, 76, 90
1, 18720, Note_off_c, 0, 76, 0
1, 18720, Note_on_c, 0, 74, 90
1, 18900, Note_off_c, 0, 74, 0
1, 18960, Note_on_c, 0, 74, 90
1, 19080, Note_off_c, 0, 74, 0
1, 19080, Note_on_c, 0, 76, 90
1, 19200, Note_off_c, 0, 76, 0
1, 19200, Note_on_c, 0, 74, 90
1, 19320, Note_off_c, 0, 74, 0
1, 19320, Note_on_c, 0, 76, 90
1, 19440, Note_off_c, 0, 76, 0
1, 19440, Note_on_c, 0, 74, 90
1, 19620, Note_off_c, 0, 74, 0
1, 19680, Note_on_c, 0, 72, 90
1, 19800, Note_off_c, 0, 72, 0
1, 19800, Note_on_c, 0, 74, 90
1, 19920, Note_off_c, 0, 74, 0
1, 19920, Note_on_c, 0, 72, 90
1, 20040, Note_off_c, 0, 72, 0
1, 20040, Note_on_c, 0, 74, 90
1, 20160, Note_off_c, 0, 74, 0
1, 20160, Note_on_c, 0, 71, 90
1, 20640, Note_off_c, 0, 71, 0
1, 20640, Note_on_c, 0, 72, 90
1, 20820, Note_off_c, 0, 72, 0
1, 20880, Note_on_c, 0, 69, 90
1, 21360, Note_off_c, 0, 69, 0
1, 21360, Note_on_c, 0, 71, 90
1, 21540, Note_off_c, 0, 71, 0
1, 21600, Note_on_c, 0, 67, 90
1, 21720, Note_off_c, 0, 67, 0
1, 21720, Note_on_c, 0, 69, 90
1, 21840, Note_off_c, 0, 69, 0
1, 21840, Note_on_c, 0, 71, 90
1, 21960, Note_off_c, 0, 71, 0
1, 21960, Note_on_c, 0, 72, 90
1, 22080, Note_off_c, 0, 72, 0
1, 22080, Note_on_c, 0, 74, 90
1, 22200, Note_off_c, 0, 74, 0
1, 22200, Note_on_c, 0, 76, 90
1, 22320, Note_off_c, 0, 76, 0
1, 22320, Note_on_c, 0, 78, 90
1, 22560, Note_off_c, 0, 78, 0
1, 22800, Note_on_c, 0, 78, 90
1, 22980, Note_off_c, 0, 78, 0
1, 23040, Note_on_c, 0, 76, 90
1, 23220, Note_off_c, 0, 76, 0
1, 23280, Note_on_c, 0, 74, 90
1, 23460, Note_off_c, 0, 74, 0
1, 23520, Note_on_c, 0, 72, 90
1, 23700, Note_off_c, 0, 72, 0
1, 23760, Note_on_c, 0, 74, 90
1, 23940, Note_off_c, 0, 74, 0
1, 24000, Note_on_c, 0, 76, 90
1, 24180, Note_off_c, 0, 76, 0
1, 24240, Note_on_c, 0, 78, 90
1, 24420, Note_off_c, 0, 78, 0
1, 25920, Note_on_c, 0, 62, 90
1, 26040, Note_off_c, 0, 62, 0
1, 26040, Note_on_c, 0, 64, 90
1, 26160, Note_off_c, 0, 64, 0
1, 26160, Note_on_c, 0, 66, 90
1, 26280, Note_off_c, 0, 66, 0
1, 26280, Note_on_c, 0, 67, 90
1, 26400, Note_off_c, 0, 67, 0
1, 26400, Note_on_c, 0, 69, 90
1, 26520, Note_off_c, 0, 69, 0
1, 26520, Note_on_c, 0, 71, 90
1, 26640, Note_off_c, 0, 71, 0
1, 26640, Note_on_c, 0, 72, 90
1, 26880, Note_off_c, 0, 72, 0
1, 27120, Note_on_c, 0, 74, 90
1, 27300, Note_off_c, 0, 74, 0
1, 27360, Note_on_c, 0, 71, 90
1, 27840, Note_off_c, 0, 71, 0
1, 27840, Note_on_c, 0, 72, 90
1, 28020, Note_off_c, 0, 72, 0
1, 28080, Note_on_c, 0, 69, 90
1, 28560, Note_off_c, 0, 69, 0
1, 28560, Note_on_c, 0, 71, 90
1, 28740, Note_off_c, 0, 71, 0
1, 28800, Note_on_c, 0, 67, 90
1, 29280, Note_off_c, 0, 67, 0
1, 29280, Note_on_c, 0, 69, 90
1, 29460, Note_off_c, 0, 69, 0
1, 29520, Note_on_c, 0, 66, 90
1, 30000, Note_off_c, 0, 66, 0
1, 30000, Note_on_c, 0, 67, 90
1, 30180, Note_off_c, 0, 67, 0
1, 30240, Note_on_c, 0, 64, 90
1, 30960, Note_off_c, 0, 64, 0
1, 30960, Note_on_c, 0, 71, 90
1, 31680, Note_off_c, 0, 71, 0
1, 31680, Note_on_c, 0, 71, 90
1, 32400, Note_off_c, 0, 71, 0
1, 32400, Note_on_c, 0, 69, 90
1, 33120, Note_off_c, 0, 69, 0
1, 33120, Note_on_c, 0, 76, 90
1, 33600, Note_off_c, 0, 76, 0
1, 33600, Note_on_c, 0, 74, 90
1, 33780, Note_off_c, 0, 74, 0
1, 33840, Note_on_c, 0, 76, 90
1, 34320, Note_off_c, 0, 76, 0
1, 34320, Note_on_c, 0, 72, 90
1, 34500, Note_off_c, 0, 72, 0
1, 34560, Note_on_c, 0, 74, 90
1, 35040, Note_off_c, 0, 74, 0
1, 35040, Note_on_c, 0, 67, 90
1, 35220, Note_off_c, 0, 67, 0
1, 35280, Note_on_c, 0, 69, 90
1, 35760, Note_off_c, 0, 69, 0
1, 35760, Note_on_c, 0, 66, 90
1, 35940, Note_off_c, 0, 66, 0
1, 36000, Note_on_c, 0, 64, 90
1, 36120, Note_off_c, 0, 64, 0
1, 36120, Note_on_c, 0, 66, 90
1, 36240, Note_off_c, 0, 66, 0
1, 36240, Note_on_c, 0, 67, 90
1, 36360, Note_off_c, 0, 67, 0
1, 36360, Note_on_c, 0, 69, 90
1, 36480, Note_off_c, 0, 69, 0
1, 36480, Note_on_c, 0, 71, 90
1, 36600, Note_off_c, 0, 71, 0
1, 36600, Note_on_c, 0, 72, 90
1, 36720, Note_off_c, 0, 72, 0
1, 36720, Note_on_c, 0, 74, 90
1, 36960, Note_off_c, 0, 74, 0
1, 37200, Note_on_c, 0, 74, 90
1, 37380, Note_off_c, 0, 74, 0
1, 37440, Note_on_c, 0, 66, 90
1, 37920, Note_off_c, 0, 66, 0
1, 37920, Note_on_c, 0, 66, 90
1, 38100, Note_off_c, 0, 66, 0
1, 38160, Note_on_c, 0, 72, 90
1, 38640, Note_off_c, 0, 72, 0
1, 38640, Note_on_c, 0, 72, 90
1, 38820, Note_off_c, 0, 72, 0
1, 38880, Note_on_c, 0, 67, 90
1, 39360, Note_off_c, 0, 67, 0
1, 39360, Note_on_c, 0, 69, 90
1, 39600, Note_off_c, 0, 69, 0
1, 39600, Note_on_c, 0, 79, 90
1, 39780, Note_off_c, 0, 79, 0
1, 39840, Note_on_c, 0, 78, 90
1, 40020, Note_off_c, 0, 78, 0
1, 40080, Note_on_c, 0, 76, 90
1, 40260, Note_off_c, 0, 76, 0
1, 40320, Note_on_c, 0, 74, 90
1, 40500, Note_off_c, 0, 74, 0
1, 40560, Note_on_c, 0, 76, 90
1, 40740, Note_off_c, 0, 76, 0
1, 40800, Note_on_c, 0, 78, 90
1, 40980, Note_off_c, 0, 78, 0
1, 41040, Note_on_c, 0, 72, 90
1, 41220, Note_off_c, 0, 72, 0
1, 41280, Note_on_c, 0, 74, 90
1, 41460, Note_off_c, 0, 74, 0
1, 41520, Note_on_c, 0, 76, 90
1, 41700, Note_off_c, 0, 76, 0
1, 41760, Note_on_c, 0, 74, 90
1, 41940, Note_off_c, 0, 74, 0
1, 42000, Note_on_c, 0, 72, 90
1, 42180, Note_off_c, 0, 72, 0
1, 42240, Note_on_c, 0, 71, 90
1, 42420, Note_off_c, 0, 71, 0
1, 42480, Note_on_c, 0, 74, 90
1, 42660, Note_off_c, 0, 74, 0
1, 42720, Note_on_c, 0, 72, 90
1, 42900, Note_off_c, 0, 72, 0
1, 42960, Note_on_c, 0, 71, 90
1, 43140, Note_off_c, 0, 71, 0
1, 43200, Note_on_c, 0, 72, 90
1, 43380, Note_off_c, 0, 72, 0
1, 43440, Note_on_c, 0, 71, 90
1, 43620, Note_off_c, 0, 71, 0
1, 43680, Note_on_c, 0, 69, 90
1, 43860, Note_off_c, 0, 69, 0
1, 43920, Note_on_c, 0, 71, 90
1, 44100, Note_off_c, 0, 71, 0
1, 44160, Note_on_c, 0, 69, 90
1, 44340, Note_off_c, 0, 69, 0
1, 44400, Note_on_c, 0, 67, 90
1, 44580, Note_off_c, 0, 67, 0
1, 44640, Note_on_c, 0, 69, 90
1, 44760, Note_off_c, 0, 69, 0
1, 44760, Note_on_c, 0, 71, 90
1, 44880, Note_off_c, 0, 71, 0
1, 44880, Note_on_c, 0, 72, 90
1, 45000, Note_off_c, 0, 72, 0
1, 45000, Note_on_c, 0, 74, 90
1, 45120, Note_off_c, 0, 74, 0
1, 45120, Note_on_c, 0, 76, 90
1, 45240, Note_off_c, 0, 76, 0
1, 45240, Note_on_c, 0, 78, 90
1, 45360, Note_off_c, 0, 78, 0
1, 45360, Note_on_c, 0, 79, 90
1, 45600, Note_off_c, 0, 79, 0
1, 45840, Note_on_c, 0, 79, 90
1, 46020, Note_off_c, 0, 79, 0
1, 46080, Note_on_c, 0, 78, 90
1, 46260, Note_off_c, 0, 78, 0
1, 46320, Note_on_c, 0, 76, 90
1, 46500, Note_off_c, 0, 76, 0
1, 46560, Note_on_c, 0, 74, 90
1, 46740, Note_off_c, 0, 74, 0
1, 46800, Note_on_c, 0, 76, 90
1, 46980, Note_off_c, 0, 76, 0
1, 47040, Note_on_c, 0, 74, 90
1, 47220, Note_off_c, 0, 74, 0
1, 47280, Note_on_c, 0, 72, 90
1, 47460, Note_off_c, 0, 72, 0
1, 47520, Note_on_c, 0, 71, 90
1, 47640, Note_off_c, 0, 71, 0
1, 47640, Note_on_c, 0, 72, 90
1, 47760, Note_off_c, 0, 72, 0
1, 47760, Note_on_c, 0, 74, 90
1, 47880, Note_off_c, 0, 74, 0
1, 47880, Note_on_c, 0, 76, 90
1, 48000, Note_off_c, 0, 76, 0
1, 48000, Note_on_c, 0, 78, 90
1, 48120, Note_off_c, 0, 78, 0
1, 48120, Note_on_c, 0, 79, 90
1, 48240, Note_off_c, 0, 79, 0
1, 48240, Note_on_c, 0, 81, 90
1, 48480, Note_off_c, 0, 81, 0
1, 48720, Note_on_c, 0, 81, 90
1, 48900, Note_off_c, 0, 81, 0
1, 48960, Note_on_c, 0, 67, 90
1, 49680, Note_off_c, 0, 67, 0
1, 49680, Note_on_c, 0, 74, 90
1, 50400, Note_off_c, 0, 74, 0
1, 50400, Note_on_c, 0, 74, 90
1, 51120, Note_off_c, 0, 74, 0
1, 51120, Note_on_c, 0, 72, 90
1, 51840, Note_off_c, 0, 72, 0
1, 51840, Note_on_c, 0, 79, 90
1, 52320, Note_off_c, 0, 79, 0
1, 52320, Note_on_c, 0, 77, 90
1, 52560, Note_off_c, 0, 77, 0
1, 52560, Note_on_c, 0, 79, 90
1, 53040, Note_off_c, 0, 79, 0
1, 53040, Note_on_c, 0, 76, 90
1, 53220, Note_off_c, 0, 76, 0
1, 53280, Note_on_c, 0, 77, 90
1, 53760, Note_off_c, 0, 77, 0
1, 53760, Note_on_c, 0, 71, 90
1, 54000, Note_off_c, 0, 71, 0
1, 54000, Note_on_c, 0, 72, 90
1, 54480, Note_off_c, 0, 72, 0
1, 54480, Note_on_c, 0, 69, 90
1, 54660, Note_off_c, 0, 69, 0
1, 54720, Note_on_c, 0, 72, 90
1, 55440, Note_off_c, 0, 72, 0
1, 55440, Note_on_c, 0, 67, 90
1, 56160, Note_off_c, 0, 67, 0
1, 56160, Note_on_c, 0, 76, 90
1, 56640, Note_off_c, 0, 76, 0
1, 56640, Note_on_c, 0, 77, 90
1, 56880, Note_off_c, 0, 77, 0
1, 56880, Note_on_c, 0, 74, 90
1, 57360, Note_off_c, 0, 74, 0
1, 57360, Note_on_c, 0, 76, 90
1, 57540, Note_off_c, 0, 76, 0
1, 57600, Note_on_c, 0, 72, 90
1, 58080, Note_off_c, 0, 72, 0
1, 58080, Note_on_c, 0, 74, 90
1, 58320, Note_off_c, 0, 74, 0
1, 58320, Note_on_c, 0, 77, 90
1, 59040, Note_off_c, 0, 77, 0
1, 59040, Note_on_c, 0, 79, 90
1, 59520, Note_off_c, 0, 79, 0
1, 59520, Note_on_c, 0, 81, 90
1, 59760, Note_off_c, 0, 81, 0
1, 59760, Note_on_c, 0, 77, 90
1, 60480, Note_off_c, 0, 77, 0
1, 60480, Note_on_c, 0, 76, 90
1, 60960, Note_off_c, 0, 76, 0
1, 60960, Note_on_c, 0, 77, 90
1, 61200, Note_off_c, 0, 77, 0
1, 61200, Note_on_c, 0, 79, 90
1, 61680, Note_off_c, 0, 79, 0
1, 61680, Note_on_c, 0, 81, 90
1, 61860, Note_off_c, 0, 81, 0
1, 61920, Note_on_c, 0, 65, 90
1, 62640, Note_off_c, 0, 65, 0
1, 62880, Note_on_c, 0, 65, 90
1, 63600, Note_off_c, 0, 65, 0
1, 63600, Note_on_c, 0, 63, 90
1, 64320, Note_off_c, 0, 63, 0
1, 64320, Note_on_c, 0, 62, 90
1, 65040, Note_off_c, 0, 62, 0
1, 65040, Note_on_c, 0, 70, 90
1, 65760, Note_off_c, 0, 70, 0
1, 65760, Note_on_c, 0, 65, 90
1, 65880, Note_off_c, 0, 65, 0
1, 65880, Note_on_c, 0, 67, 90
1, 66000, Note_off_c, 0, 67, 0
1, 66000, Note_on_c, 0, 65, 90
1, 66120, Note_off_c, 0, 65, 0
1, 66120, Note_on_c, 0, 67, 90
1, 66240, Note_off_c, 0, 67, 0
1, 66240, Note_on_c, 0, 65, 90
1, 66420, Note_off_c, 0, 65, 0
1, 66480, Note_on_c, 0, 65, 90
1, 66600, Note_off_c, 0, 65, 0
1, 66600, Note_on_c, 0, 67, 90
1, 66720, Note_off_c, 0, 67, 0
1, 66720, Note_on_c, 0, 65, 90
1, 66840, Note_off_c, 0, 65, 0
1, 66840, Note_on_c, 0, 67, 90
1, 66960, Note_off_c, 0, 67, 0
1, 66960, Note_on_c, 0, 65, 90
1, 67140, Note_off_c, 0, 65, 0
1, 67200, Note_on_c, 0, 62, 90
1, 67320, Note_off_c, 0, 62, 0
1, 67320, Note_on_c, 0, 63, 90
1, 67440, Note_off_c, 0, 63, 0
1, 67440, Note_on_c, 0, 60, 90
1, 67560, Note_off_c, 0, 60, 0
1, 67560, Note_on_c, 0, 62, 90
1, 67680, Note_off_c, 0, 62, 0
1, 67680, Note_on_c, 0, 63, 90
1, 67800, Note_off_c, 0, 63, 0
1, 67800, Note_on_c, 0, 65, 90
1, 67920, Note_off_c, 0, 65, 0
1, 67920, Note_on_c, 0, 67, 90
1, 68040, Note_off_c, 0, 67, 0
1, 68040, Note_on_c, 0, 68, 90
1, 68160, Note_off_c, 0, 68, 0
1, 68160, Note_on_c, 0, 70, 90
1, 68280, Note_off_c, 0, 70, 0
1, 68280, Note_on_c, 0, 72, 90
1, 68400, Note_off_c, 0, 72, 0
1, 68400, Note_on_c, 0, 74, 90
1, 68640, Note_off_c, 0, 74, 0
1, 68880, Note_on_c, 0, 74, 90
1, 69060, Note_off_c, 0, 74, 0
1, 69120, Note_on_c, 0, 65, 90
1, 69600, Note_off_c, 0, 65, 0
1, 69600, Note_on_c, 0, 65, 90
1, 69780, Note_off_c, 0, 65, 0
1, 69840, Note_on_c, 0, 72, 90
1, 70320, Note_off_c, 0, 72, 0
1, 70320, Note_on_c, 0, 72, 90
1, 70500, Note_off_c, 0, 72, 0
1, 70560, Note_on_c, 0, 67, 90
1, 71040, Note_off_c, 0, 67, 0
1, 71040, Note_on_c, 0, 68, 90
1, 71280, Note_off_c, 0, 68, 0
1, 71280, Note_on_c, 0, 79, 90
1, 71460, Note_off_c, 0, 79, 0
1, 71520, Note_on_c, 0, 77, 90
1, 71700, Note_off_c, 0, 77, 0
1, 71760, Note_on_c, 0, 75, 90
1, 71940, Note_off_c, 0, 75, 0
1, 72000, Note_on_c, 0, 74, 90
1, 72180, Note_off_c, 0, 74, 0
1, 72240, Note_on_c, 0, 75, 90
1, 72420, Note_off_c, 0, 75, 0
1, 72480, Note_on_c, 0, 77, 90
1, 72660, Note_off_c, 0, 77, 0
1, 72720, Note_on_c, 0, 72, 90
1, 72900, Note_off_c, 0, 72, 0
1, 72960, Note_on_c, 0, 74, 90
1, 73140, Note_off_c, 0, 74, 0
1, 73200, Note_on_c, 0, 75, 90
1, 73380, Note_off_c, 0, 75, 0
1, 73440, Note_on_c, 0, 74, 90
1, 73620, Note_off_c, 0, 74, 0
1, 73680, Note_on_c, 0, 72, 90
1, 73860, Note_off_c, 0, 72, 0
1, 73920, Note_on_c, 0, 70, 90
1, 74100, Note_off_c, 0, 70, 0
1, 74160, Note_on_c, 0, 74, 90
1, 74340, Note_off_c, 0, 74, 0
1, 74400, Note_on_c, 0, 72, 90
1, 74580, Note_off_c, 0, 72, 0
1, 74640, Note_on_c, 0, 70, 90
1, 74820, Note_off_c, 0, 70, 0
1, 74880, Note_on_c, 0, 72, 90
1, 75060, Note_off_c, 0, 72, 0
1, 75120, Note_on_c, 0, 70, 90
1, 75300, Note_off_c, 0, 70, 0
1, 75360, Note_on_c, 0, 68, 90
1, 75540, Note_off_c, 0, 68, 0
1, 75600, Note_on_c, 0, 70, 90
1, 75780, Note_off_c, 0, 70, 0
1, 75840, Note_on_c, 0, 68, 90
1, 76020, Note_off_c, 0, 68, 0
1, 76080, Note_on_c, 0, 67, 90
1, 76260, Note_off_c, 0, 67, 0
1, 76320, Note_on_c, 0, 68, 90
1, 76440, Note_off_c, 0, 68, 0
1, 76440, Note_on_c, 0, 70, 90
1, 76560, Note_off_c, 0, 70, 0
1, 76560, Note_on_c, 0, 72, 90
1, 76680, Note_off_c, 0, 72, 0
1, 76680, Note_on_c, 0, 74, 90
1, 76800, Note_off_c, 0, 74, 0
1, 76800, Note_on_c, 0, 75, 90
1, 76920, Note_off_c, 0, 75, 0
1, 76920, Note_on_c, 0, 77, 90
1, 77040, Note_off_c, 0, 77, 0
1, 77040, Note_on_c, 0, 79, 90
1, 77280, Note_off_c, 0, 79, 0
1, 77520, Note_on_c, 0, 79, 90
1, 77700, Note_off_c, 0, 79, 0
1, 77760, Note_on_c, 0, 77, 90
1, 77940, Note_off_c, 0, 77, 0
1, 78000, Note_on_c, 0, 75, 90
1, 78180, Note_off_c, 0, 75, 0
1, 78240, Note_on_c, 0, 74, 90
1, 78420, Note_off_c, 0, 74, 0
1, 78480, Note_on_c, 0, 75, 90
1, 78660, Note_off_c, 0, 75, 0
1, 78720, Note_on_c, 0, 74, 90
1, 78900, Note_off_c, 0, 74, 0
1, 78960, Note_on_c, 0, 72, 90
1, 79140, Note_off_c, 0, 72, 0
1, 79200, Note_on_c, 0, 70, 90
1, 79320, Note_off_c, 0, 70, 0
1, 79320, Note_on_c, 0, 72, 90
1, 79440, Note_off_c, 0, 72, 0
1, 79440, Note_on_c, 0, 74, 90
1, 79560, Note_off_c, 0, 74, 0
1, 79560, Note_on_c, 0, 75, 90
1, 79680, Note_off_c, 0, 75, 0
1, 79680, Note_on_c, 0, 77, 90
1, 79800, Note_off_c, 0, 77, 0
1, 79800, Note_on_c, 0, 79, 90
1, 79920, Note_off_c, 0, 79, 0
1, 79920, Note_on_c, 0, 80, 90
1, 80160, Note_off_c, 0, 80, 0
1, 80400, Note_on_c, 0, 80, 90
1, 80580, Note_off_c, 0, 80, 0
1, 80640, Note_on_c, 0, 79, 90
1, 80820, Note_off_c, 0, 79, 0
1, 80880, Note_on_c, 0, 77, 90
1, 81060, Note_off_c, 0, 77, 0
1, 81120, Note_on_c, 0, 75, 90
1, 81300, Note_off_c, 0, 75, 0
1, 84240, Note_on_c, 0, 75, 90
1, 84420, Note_off_c, 0, 75, 0
1, 84480, Note_on_c, 0, 77, 90
1, 84660, Note_off_c, 0, 77, 0
1, 84720, Note_on_c, 0, 79, 90
1, 85200, Note_off_c, 0, 79, 0
1, 85200, Note_on_c, 0, 80, 90
1, 85380, Note_off_c, 0, 80, 0
1, 85440, Note_on_c, 0, 82, 90
1, 85620, Note_off_c, 0, 82, 0
1, 85680, Note_on_c, 0, 84, 90
1, 85860, Note_off_c, 0, 84, 0
1, 85920, Note_on_c, 0, 86, 90
1, 86100, Note_off_c, 0, 86, 0
1, 86160, Note_on_c, 0, 87, 90
1, 86340, Note_off_c, 0, 87, 0
1, 87360, Note_on_c, 0, 62, 90
1, 88080, Note_off_c, 0, 62, 0
1, 88080, Note_on_c, 0, 62, 90
1, 88800, Note_off_c, 0, 62, 0
1, 88800, Note_on_c, 0, 60, 90
1, 89520, Note_off_c, 0, 60, 0
1, 89520, Note_on_c, 0, 67, 90
1, 90240, Note_off_c, 0, 67, 0
1, 90240, Note_on_c, 0, 62, 90
1, 90960, Note_off_c, 0, 62, 0
1, 90960, Note_on_c, 0, 62, 90
1, 91680, Note_off_c, 0, 62, 0
1, 91680, Note_on_c, 0, 61, 90
1, 92160, Note_off_c, 0, 61, 0
1, 92160, Note_on_c, 0, 69, 90
1, 92880, Note_off_c, 0, 69, 0
1, 93120, Note_on_c, 0, 62, 90
1, 93840, Note_off_c, 0, 62, 0
1, 93840, Note_on_c, 0, 67, 90
1, 94560, Note_off_c, 0, 67, 0
1, 94560, Note_on_c, 0, 67, 90
1, 95280, Note_off_c, 0, 67, 0
1, 95280, Note_on_c, 0, 74, 90
1, 96000, Note_off_c, 0, 74, 0
1, 96000, Note_on_c, 0, 73, 90
1, 96180, Note_off_c, 0, 73, 0
1, 96240, Note_on_c, 0, 71, 90
1, 96420, Note_off_c, 0, 71, 0
1, 96480, Note_on_c, 0, 79, 90
1, 97200, Note_off_c, 0, 79, 0
1, 97200, Note_on_c, 0, 79, 90
1, 97680, Note_off_c, 0, 79, 0
1, 97680, Note_on_c, 0, 79, 90
1, 97920, Note_off_c, 0, 79, 0
1, 97920, Note_on_c, 0, 69, 90
1, 98400, Note_off_c, 0, 69, 0
1, 98400, Note_on_c, 0, 69, 90
1, 98640, Note_off_c, 0, 69, 0
1, 98640, Note_on_c, 0, 78, 90
1, 99120, Note_off_c, 0, 78, 0
1, 99120, Note_on_c, 0, 78, 90
1, 99300, Note_off_c, 0, 78, 0
1, 99360, Note_on_c, 0, 71, 90
1, 99840, Note_off_c, 0, 71, 0
1, 99840, Note_on_c, 0, 71, 90
1, 100020, Note_off_c, 0, 71, 0
1, 100080, Note_on_c, 0, 61, 90
1, 100200, Note_off_c, 0, 61, 0
1, 100200, Note_on_c, 0, 62, 90
1, 100320, Note_off_c, 0, 62, 0
1, 100320, Note_on_c, 0, 64, 90
1, 100440, Note_off_c, 0, 64, 0
1, 100440, Note_on_c, 0, 66, 90
1, 100560, Note_off_c, 0, 66, 0
1, 100560, Note_on_c, 0, 67, 90
1, 100680, Note_off_c, 0, 67, 0
1, 100680, Note_on_c, 0, 69, 90
1, 100800, Note_off_c, 0, 69, 0
1, 100800, Note_on_c, 0, 71, 90
1, 101040, Note_off_c, 0, 71, 0
1, 101280, Note_on_c, 0, 71, 90
1, 101460, Note_off_c, 0, 71, 0
1, 101520, Note_on_c, 0, 69, 90
1, 101700, Note_off_c, 0, 69, 0
1, 101760, Note_on_c, 0, 67, 90
1, 101940, Note_off_c, 0, 67, 0
1, 102000, Note_on_c, 0, 66, 90
1, 102180, Note_off_c, 0, 66, 0
1, 102240, Note_on_c, 0, 67, 90
1, 102420, Note_off_c, 0, 67, 0
1, 102480, Note_on_c, 0, 69, 90
1, 102660, Note_off_c, 0, 69, 0
1, 102720, Note_on_c, 0, 71, 90
1, 102900, Note_off_c, 0, 71, 0
1, 102960, Note_on_c, 0, 64, 90
1, 103080, Note_off_c, 0, 64, 0
1, 103080, Note_on_c, 0, 66, 90
1, 103200, Note_off_c, 0, 66, 0
1, 103200, Note_on_c, 0, 67, 90
1, 103320, Note_off_c, 0, 67, 0
1, 103320, Note_on_c, 0, 69, 90
1, 103440, Note_off_c, 0, 69, 0
1, 103440, Note_on_c, 0, 71, 90
1, 103560, Note_off_c, 0, 71, 0
1, 103560, Note_on_c, 0, 73, 90
1, 103680, Note_off_c, 0, 73, 0
1, 103680, Note_on_c, 0, 74, 90
1, 103920, Note_off_c, 0, 74, 0
1, 104160, Note_on_c, 0, 74, 90
1, 104340, Note_off_c, 0, 74, 0
1, 104400, Note_on_c, 0, 73, 90
1, 104580, Note_off_c, 0, 73, 0
1, 104640, Note_on_c, 0, 71, 90
1, 104820, Note_off_c, 0, 71, 0
1, 104880, Note_on_c, 0, 69, 90
1, 105060, Note_off_c, 0, 69, 0
1, 105120, Note_on_c, 0, 74, 90
1, 105300, Note_off_c, 0, 74, 0
1, 105360, Note_on_c, 0, 73, 90
1, 105540, Note_off_c, 0, 73, 0
1, 105600, Note_on_c, 0, 71, 90
1, 105780, Note_off_c, 0, 71, 0
1, 105840, Note_on_c, 0, 76, 90
1, 106020, Note_off_c, 0, 76, 0
1, 106080, Note_on_c, 0, 74, 90
1, 106260, Note_off_c, 0, 74, 0
1, 106320, Note_on_c, 0, 73, 90
1, 106500, Note_off_c, 0, 73, 0
1, 106560, Note_on_c, 0, 69, 90
1, 106740, Note_off_c, 0, 69, 0
1, 106800, Note_on_c, 0, 67, 90
1, 106980, Note_off_c, 0, 67, 0
1, 107040, Note_on_c, 0, 69, 90
1, 107220, Note_off_c, 0, 69, 0
1, 107520, Note_on_c, 0, 60, 90
1, 108240, Note_off_c, 0, 60, 0
1, 108240, Note_on_c, 0, 60, 90
1, 108960, Note_off_c, 0, 60, 0
1, 108960, Note_on_c, 0, 58, 90
1, 109680, Note_off_c, 0, 58, 0
1, 109680, Note_on_c, 0, 67, 90
1, 110400, Note_off_c, 0, 67, 0
1, 110400, Note_on_c, 0, 60, 90
1, 111120, Note_off_c, 0, 60, 0
1, 111120, Note_on_c, 0, 72, 90
1, 111840, Note_off_c, 0, 72, 0
1, 111840, Note_on_c, 0, 69, 90
1, 112800, Note_off_c, 0, 69, 0
1, 112800, Note_on_c, 0, 70, 90
1, 112980, Note_off_c, 0, 70, 0
1, 113040, Note_on_c, 0, 69, 90
1, 113520, Note_off_c, 0, 69, 0
1, 113520, Note_on_c, 0, 69, 90
1, 113700, Note_off_c, 0, 69, 0
1, 113760, Note_on_c, 0, 60, 90
1, 114240, Note_off_c, 0, 60, 0
1, 114240, Note_on_c, 0, 60, 90
1, 114420, Note_off_c, 0, 60, 0
1, 114480, Note_on_c, 0, 67, 90
1, 114960, Note_off_c, 0, 67, 0
1, 114960, Note_on_c, 0, 67, 90
1, 115140, Note_off_c, 0, 67, 0
1, 115200, Note_on_c, 0, 62, 90
1, 115680, Note_off_c, 0, 62, 0
1, 115680, Note_on_c, 0, 63, 90
1, 115860, Note_off_c, 0, 63, 0
1, 115920, Note_on_c, 0, 74, 90
1, 116100, Note_off_c, 0, 74, 0
1, 116160, Note_on_c, 0, 72, 90
1, 116340, Note_off_c, 0, 72, 0
1, 116400, Note_on_c, 0, 70, 90
1, 116580, Note_off_c, 0, 70, 0
1, 116640, Note_on_c, 0, 69, 90
1, 116820, Note_off_c, 0, 69, 0
1, 116880, Note_on_c, 0, 70, 90
1, 117060, Note_off_c, 0, 70, 0
1, 117120, Note_on_c, 0, 72, 90
1, 117300, Note_off_c, 0, 72, 0
1, 117360, Note_on_c, 0, 67, 90
1, 117540, Note_off_c, 0, 67, 0
1, 117600, Note_on_c, 0, 69, 90
1, 117780, Note_off_c, 0, 69, 0
1, 117840, Note_on_c, 0, 70, 90
1, 118020, Note_off_c, 0, 70, 0
1, 118080, Note_on_c, 0, 72, 90
1, 118560, Note_off_c, 0, 72, 0
1, 118560, Note_on_c, 0, 72, 90
1, 118740, Note_off_c, 0, 72, 0
1, 118800, Note_on_c, 0, 62, 90
1, 118920, Note_off_c, 0, 62, 0
1, 118920, Note_on_c, 0, 64, 90
1, 119040, Note_off_c, 0, 64, 0
1, 119040, Note_on_c, 0, 66, 90
1, 119160, Note_off_c, 0, 66, 0
1, 119160, Note_on_c, 0, 67, 90
1, 119280, Note_off_c, 0, 67, 0
1, 119280, Note_on_c, 0, 69, 90
1, 119400, Note_off_c, 0, 69, 0
1, 119400, Note_on_c, 0, 71, 90
1, 119520, Note_off_c, 0, 71, 0
1, 119520, Note_on_c, 0, 72, 90
1, 120000, Note_off_c, 0, 72, 0
1, 120000, Note_on_c, 0, 72, 90
1, 120180, Note_off_c, 0, 72, 0
1, 120240, Note_on_c, 0, 62, 90
1, 120360, Note_off_c, 0, 62, 0
1, 120360, Note_on_c, 0, 64, 90
1, 120480, Note_off_c, 0, 64, 0
1, 120480, Note_on_c, 0, 66, 90
1, 120600, Note_off_c, 0, 66, 0
1, 120600, Note_on_c, 0, 67, 90
1, 120720, Note_off_c, 0, 67, 0
1, 120720, Note_on_c, 0, 69, 90
1, 120840, Note_off_c, 0, 69, 0
1, 120840, Note_on_c, 0, 71, 90
1, 120960, Note_off_c, 0, 71, 0
1, 120960, Note_on_c, 0, 72, 90
1, 121440, Note_off_c, 0, 72, 0
1, 121440, Note_on_c, 0, 72, 90
1, 121620, Note_off_c, 0, 72, 0
1, 121680, Note_on_c, 0, 64, 90
1, 122160, Note_off_c, 0, 64, 0
1, 122160, Note_on_c, 0, 64, 90
1, 122340, Note_off_c, 0, 64, 0
1, 122400, Note_on_c, 0, 71, 90
1, 122880, Note_off_c, 0, 71, 0
1, 122880, Note_on_c, 0, 71, 90
1, 123060, Note_off_c, 0, 71, 0
1, 123120, Note_on_c, 0, 62, 90
1, 123240, Note_off_c, 0, 62, 0
1, 123240, Note_on_c, 0, 64, 90
1, 123360, Note_off_c, 0, 64, 0
1, 123360, Note_on_c, 0, 66, 90
1, 123480, Note_off_c, 0, 66, 0
1, 123480, Note_on_c, 0, 67, 90
1, 123600, Note_off_c, 0, 67, 0
1, 123600, Note_on_c, 0, 69, 90
1, 123720, Note_off_c, 0, 69, 0
1, 123720, Note_on_c, 0, 71, 90
1, 123840, Note_off_c, 0, 71, 0
1, 123840, Note_on_c, 0, 72, 90
1, 124320, Note_off_c, 0, 72, 0
1, 124320, Note_on_c, 0, 72, 90
1, 124500, Note_off_c, 0, 72, 0
1, 124560, Note_on_c, 0, 64, 90
1, 125040, Note_off_c, 0, 64, 0
1, 125040, Note_on_c, 0, 64, 90
1, 125220, Note_off_c, 0, 64, 0
1, 126000, Note_on_c, 0, 55, 90
1, 126120, Note_off_c, 0, 55, 0
1, 126120, Note_on_c, 0, 57, 90
1, 126240, Note_off_c, 0, 57, 0
1, 126240, Note_on_c, 0, 59, 90
1, 126360, Note_off_c, 0, 59, 0
1, 126360, Note_on_c, 0, 60, 90
1, 126480, Note_off_c, 0, 60, 0
1, 126480, Note_on_c, 0, 62, 90
1, 126600, Note_off_c, 0, 62, 0
1, 126600, Note_on_c, 0, 64, 90
1, 126720, Note_off_c, 0, 64, 0
1, 126720, Note_on_c, 0, 66, 90
1, 127200, Note_off_c, 0, 66, 0
1, 127200, Note_on_c, 0, 66, 90
1, 127380, Note_off_c, 0, 66, 0
1, 127440, Note_on_c, 0, 57, 90
1, 127920, Note_off_c, 0, 57, 0
1, 127920, Note_on_c, 0, 57, 90
1, 128100, Note_off_c, 0, 57, 0
1, 128160, Note_on_c, 0, 64, 90
1, 128640, Note_off_c, 0, 64, 0
1, 128640, Note_on_c, 0, 64, 90
1, 128820, Note_off_c, 0, 64, 0
1, 128880, Note_on_c, 0, 59, 90
1, 129360, Note_off_c, 0, 59, 0
1, 129360, Note_on_c, 0, 60, 90
1, 129600, Note_off_c, 0, 60, 0
1, 129600, Note_on_c, 0, 71, 90
1, 129780, Note_off_c, 0, 71, 0
1, 129840, Note_on_c, 0, 69, 90
1, 130020, Note_off_c, 0, 69, 0
1, 130080, Note_on_c, 0, 67, 90
1, 130260, Note_off_c, 0, 67, 0
1, 130320, Note_on_c, 0, 72, 90
1, 131040, Note_off_c, 0, 72, 0
1, 131760, Note_on_c, 0, 72, 90
1, 132480, Note_off_c, 0, 72, 0
1, 133200, Note_on_c, 0, 72, 90
1, 133920, Note_off_c, 0, 72, 0
1, 133920, Tempo, 337078
1, 134640, Note_on_c, 0, 60, 90
1, 135360, Note_off_c, 0, 60, 0
1, 135360, Note_on_c, 0, 62, 90
1, 135840, Note_off_c, 0, 62, 0
1, 135840, Note_on_c, 0, 63, 90
1, 136020, Note_off_c, 0, 63, 0
1, 136080, Note_on_c, 0, 65, 90
1, 136800, Note_off_c, 0, 65, 0
1, 136800, Note_on_c, 0, 63, 90
1, 137520, Note_off_c, 0, 63, 0
1, 137520, Note_on_c, 0, 64, 90
1, 138240, Note_off_c, 0, 64, 0
1, 138240, Note_on_c, 0, 65, 90
1, 138420, Note_off_c, 0, 65, 0
1, 138480, Note_on_c, 0, 63, 90
1, 138660, Note_off_c, 0, 63, 0
1, 138720, Note_on_c, 0, 62, 90
1, 138900, Note_off_c, 0, 62, 0
1, 138960, Note_on_c, 0, 63, 90
1, 139140, Note_off_c, 0, 63, 0
1, 139200, Note_on_c, 0, 62, 90
1, 139380, Note_off_c, 0, 62, 0
1, 139440, Note_on_c, 0, 60, 90
1, 139620, Note_off_c, 0, 60, 0
1, 139680, Note_on_c, 0, 58, 90
1, 140160, Note_off_c, 0, 58, 0
1, 140160, Note_on_c, 0, 58, 90
1, 140340, Note_off_c, 0, 58, 0
1, 140400, Note_on_c, 0, 65, 90
1, 140880, Note_off_c, 0, 65, 0
1, 140880, Note_on_c, 0, 65, 90
1, 141060, Note_off_c, 0, 65, 0
1, 141120, Note_on_c, 0, 59, 90
1, 141600, Note_off_c, 0, 59, 0
1, 141600, Note_on_c, 0, 60, 90
1, 141840, Note_off_c, 0, 60, 0
1, 141840, Note_on_c, 0, 71, 90
1, 142020, Note_off_c, 0, 71, 0
1, 142080, Note_on_c, 0, 69, 90
1, 142260, Note_off_c, 0, 69, 0
1, 142320, Note_on_c, 0, 67, 90
1, 142500, Note_off_c, 0, 67, 0
1, 142560, Note_on_c, 0, 66, 90
1, 142740, Note_off_c, 0, 66, 0
1, 142800, Note_on_c, 0, 67, 90
1, 142980, Note_off_c, 0, 67, 0
1, 143040, Note_on_c, 0, 69, 90
1, 143220, Note_off_c, 0, 69, 0
1, 143280, Note_on_c, 0, 64, 90
1, 143460, Note_off_c, 0, 64, 0
1, 143520, Note_on_c, 0, 66, 90
1, 143700, Note_off_c, 0, 66, 0
1, 143760, Note_on_c, 0, 67, 90
1, 143940, Note_off_c, 0, 67, 0
1, 144000, Tempo, 508474
1, 144000, Note_on_c, 0, 66, 90
1, 144480, Note_off_c, 0, 66, 0
1, 144480, Note_on_c, 0, 64, 90
1, 144720, Note_off_c, 0, 64, 0
1, 144720, Note_on_c, 0, 62, 90
1, 145440, Note_off_c, 0, 62, 0
1, 145440, Tempo, 674157
1, 146880, Tempo, 317460
1, 146880, Key_signature, 0, "major"
1, 146880, End_track
0, 0, End_of_file