0, 0, Header, 1, 10, 384
1, 0, Start_track
1, 0, Time_signature, 12, 3, 96, 8
1, 0, Sequencer_specific, 03, 00, 00, 41
1, 0, Sequencer_specific, 05, 00, 00, 77, 0E, 00
1, 0, Tempo, 857142
1, 18, Tempo, 857142
1, 38, Tempo, 845070
1, 56, Tempo, 845070
1, 76, Tempo, 833333
1, 96, Tempo, 833333
1, 114, Tempo, 821917
1, 134, Tempo, 821917
1, 152, Tempo, 810810
1, 172, Tempo, 810810
1, 192, Tempo, 800000
1, 210, Tempo, 800000
1, 230, Tempo, 789473
1, 248, Tempo, 789473
1, 268, Tempo, 779220
1, 288, Tempo, 779220
1, 306, Tempo, 769230
1, 326, Tempo, 769230
1, 344, Tempo, 759493
1, 364, Tempo, 759493
1, 384, Tempo, 750000
1, 4608, Tempo, 923076
1, 4610, Tempo, 923076
1, 4614, Tempo, 909090
1, 4616, Tempo, 909090
1, 4620, Tempo, 895522
1, 4624, Tempo, 895522
1, 4626, Tempo, 882352
1, 4630, Tempo, 882352
1, 4632, Tempo, 869565
1, 4636, Tempo, 869565
1, 4640, Tempo, 857142
1, 4642, Tempo, 857142
1, 4646, Tempo, 845070
1, 4648, Tempo, 845070
1, 4652, Tempo, 833333
1, 4656, Tempo, 833333
1, 4658, Tempo, 821917
1, 4662, Tempo, 821917
1, 4664, Tempo, 810810
1, 4668, Tempo, 810810
1, 4672, Tempo, 800000
1, 4674, Tempo, 800000
1, 4678, Tempo, 789473
1, 4680, Tempo, 789473
1, 4684, Tempo, 779220
1, 4688, Tempo, 779220
1, 4690, Tempo, 769230
1, 4694, Tempo, 769230
1, 4696, Tempo, 759493
1, 4700, Tempo, 759493
1, 4704, Tempo, 750000
1, 9216, Tempo, 923076
1, 9218, Tempo, 923076
1, 9222, Tempo, 909090
1, 9224, Tempo, 909090
1, 9228, Tempo, 895522
1, 9232, Tempo, 895522
1, 9234, Tempo, 882352
1, 9238, Tempo, 882352
1, 9240, Tempo, 869565
1, 9244, Tempo, 869565
1, 9248, Tempo, 857142
1, 9250, Tempo, 857142
1, 9254, Tempo, 845070
1, 9256, Tempo, 845070
1, 9260, Tempo, 833333
1, 9264, Tempo, 833333
1, 9266, Tempo, 821917
1, 9270, Tempo, 821917
1, 9272, Tempo, 810810
1, 9276, Tempo, 810810
1, 9280, Tempo, 800000
1, 9282, Tempo, 800000
1, 9286, Tempo, 789473
1, 9288, Tempo, 789473
1, 9292, Tempo, 779220
1, 9296, Tempo, 779220
1, 9298, Tempo, 769230
1, 9302, Tempo, 769230
1, 9304, Tempo, 759493
1, 9308, Tempo, 759493
1, 9312, Tempo, 750000
1, 16800, Tempo, 750000
1, 16824, Tempo, 759493
1, 16848, Tempo, 759493
1, 16872, Tempo, 769230
1, 16896, Tempo, 750000
1, 16934, Tempo, 759493
1, 16972, Tempo, 759493
1, 17010, Tempo, 769230
1, 17048, Tempo, 769230
1, 17088, Tempo, 779220
1, 17126, Tempo, 779220
1, 17164, Tempo, 789473
1, 17202, Tempo, 789473
1, 17240, Tempo, 800000
1, 17280, Tempo, 800000
1, 17664, Tempo, 800000
1, 17670, Tempo, 810810
1, 17676, Tempo, 810810
1, 17682, Tempo, 821917
1, 17688, Tempo, 821917
1, 17696, Tempo, 833333
1, 17702, Tempo, 833333
1, 17708, Tempo, 845070
1, 17714, Tempo, 845070
1, 17720, Tempo, 857142
1, 17728, Tempo, 857142
1, 17734, Tempo, 869565
1, 17740, Tempo, 869565
1, 17746, Tempo, 882352
1, 17752, Tempo, 882352
1, 17760, Tempo, 895522
1, 17766, Tempo, 895522
1, 17772, Tempo, 909090
1, 17778, Tempo, 909090
1, 17784, Tempo, 923076
1, 17792, Tempo, 923076
1, 17798, Tempo, 937500
1, 17804, Tempo, 937500
1, 17810, Tempo, 952380
1, 17816, Tempo, 952380
1, 17824, Tempo, 967741
1, 17830, Tempo, 967741
1, 17836, Tempo, 983606
1, 17842, Tempo, 983606
1, 17848, Tempo, 1000000
1, 17856, Tempo, 1000000
1, 18432, Tempo, 857142
1, 18450, Tempo, 857142
1, 18470, Tempo, 845070
1, 18488, Tempo, 845070
1, 18508, Tempo, 833333
1, 18528, Tempo, 833333
1, 18546, Tempo, 821917
1, 18566, Tempo, 821917
1, 18584, Tempo, 810810
1, 18604, Tempo, 810810
1, 18624, Tempo, 800000
1, 18642, Tempo, 800000
1, 18662, Tempo, 789473
1, 18680, Tempo, 789473
1, 18700, Tempo, 779220
1, 18720, Tempo, 779220
1, 18738, Tempo, 769230
1, 18758, Tempo, 769230
1, 18776, Tempo, 759493
1, 18796, Tempo, 759493
1, 18816, Tempo, 750000
1, 21888, Tempo, 800000
1, 21896, Tempo, 800000
1, 21906, Tempo, 789473
1, 21916, Tempo, 789473
1, 21926, Tempo, 779220
1, 21936, Tempo, 779220
1, 21944, Tempo, 769230
1, 21954, Tempo, 769230
1, 21964, Tempo, 759493
1, 21974, Tempo, 759493
1, 21984, Tempo, 750000
1, 26496, Tempo, 857142
1, 26504, Tempo, 857142
1, 26514, Tempo, 845070
1, 26524, Tempo, 845070
1, 26534, Tempo, 833333
1, 26544, Tempo, 833333
1, 26552, Tempo, 821917
1, 26562, Tempo, 821917
1, 26572, Tempo, 810810
1, 26582, Tempo, 810810
1, 26592, Tempo, 800000
1, 26600, Tempo, 800000
1, 26610, Tempo, 789473
1, 26620, Tempo, 789473
1, 26630, Tempo, 779220
1, 26640, Tempo, 779220
1, 26648, Tempo, 769230
1, 26658, Tempo, 769230
1, 26668, Tempo, 759493
1, 26678, Tempo, 759493
1, 26688, Tempo, 750000
1, 32256, Tempo, 750000
1, 32262, Tempo, 821917
1, 32268, Tempo, 821917
1, 32274, Tempo, 810810
1, 32280, Tempo, 810810
1, 32288, Tempo, 800000
1, 32294, Tempo, 800000
1, 32300, Tempo, 789473
1, 32306, Tempo, 789473
1, 32312, Tempo, 779220
1, 32320, Tempo, 779220
1, 32326, Tempo, 769230
1, 32332, Tempo, 769230
1, 32338, Tempo, 759493
1, 32344, Tempo, 759493
1, 32352, Tempo, 750000
1, 33408, Tempo, 857142
1, 33412, Tempo, 857142
1, 33418, Tempo, 845070
1, 33422, Tempo, 845070
1, 33428, Tempo, 833333
1, 33432, Tempo, 833333
1, 33438, Tempo, 821917
1, 33442, Tempo, 821917
1, 33448, Tempo, 810810
1, 33452, Tempo, 810810
1, 33458, Tempo, 800000
1, 33462, Tempo, 800000
1, 33468, Tempo, 789473
1, 33472, Tempo, 789473
1, 33478, Tempo, 779220
1, 33482, Tempo, 779220
1, 33488, Tempo, 769230
1, 33492, Tempo, 769230
1, 33498, Tempo, 759493
1, 33504, Tempo, 759493
1, 33580, Tempo, 759493
1, 33752, Tempo, 759493
1, 33926, Tempo, 769230
1, 34098, Tempo, 769230
1, 34272, Tempo, 779220
1, 34444, Tempo, 779220
1, 34616, Tempo, 789473
1, 34790, Tempo, 789473
1, 34962, Tempo, 800000
1, 35136, Tempo, 1000000
1, 35138, Tempo, 1000000
1, 35142, Tempo, 983606
1, 35146, Tempo, 983606
1, 35150, Tempo, 967741
1, 35154, Tempo, 967741
1, 35158, Tempo, 952380
1, 35162, Tempo, 952380
1, 35166, Tempo, 937500
1, 35170, Tempo, 937500
1, 35174, Tempo, 923076
1, 35178, Tempo, 923076
1, 35182, Tempo, 909090
1, 35184, Tempo, 909090
1, 35188, Tempo, 895522
1, 35192, Tempo, 895522
1, 35196, Tempo, 882352
1, 35200, Tempo, 882352
1, 35204, Tempo, 869565
1, 35208, Tempo, 869565
1, 35212, Tempo, 857142
1, 35216, Tempo, 857142
1, 35220, Tempo, 845070
1, 35224, Tempo, 845070
1, 35228, Tempo, 833333
1, 35232, Tempo, 810810
1, 35258, Tempo, 821917
1, 35284, Tempo, 821917
1, 35312, Tempo, 833333
1, 35338, Tempo, 833333
1, 35364, Tempo, 845070
1, 35392, Tempo, 845070
1, 35418, Tempo, 857142
1, 35444, Tempo, 857142
1, 35472, Tempo, 869565
1, 35498, Tempo, 869565
1, 35524, Tempo, 882352
1, 35552, Tempo, 882352
1, 35578, Tempo, 895522
1, 35604, Tempo, 895522
1, 35632, Tempo, 909090
1, 35658, Tempo, 909090
1, 35684, Tempo, 923076
1, 35712, Tempo, 1090909
1, 35716, Tempo, 1090909
1, 35720, Tempo, 1071428
1, 35726, Tempo, 1071428
1, 35730, Tempo, 1052631
1, 35736, Tempo, 1052631
1, 35740, Tempo, 1034482
1, 35744, Tempo, 1034482
1, 35750, Tempo, 1016949
1, 35754, Tempo, 1016949
1, 35760, Tempo, 1000000
1, 35764, Tempo, 1000000
1, 35768, Tempo, 983606
1, 35774, Tempo, 983606
1, 35778, Tempo, 967741
1, 35784, Tempo, 967741
1, 35788, Tempo, 952380
1, 35792, Tempo, 952380
1, 35798, Tempo, 937500
1, 35802, Tempo, 937500
1, 35808, Tempo, 923076
1, 36000, Tempo, 923076
1, 36004, Tempo, 937500
1, 36010, Tempo, 937500
1, 36016, Tempo, 952380
1, 36022, Tempo, 952380
1, 36028, Tempo, 967741
1, 36034, Tempo, 967741
1, 36040, Tempo, 983606
1, 36046, Tempo, 983606
1, 36050, Tempo, 1000000
1, 36056, Tempo, 1000000
1, 36062, Tempo, 1016949
1, 36068, Tempo, 1016949
1, 36074, Tempo, 1034482
1, 36080, Tempo, 1034482
1, 36086, Tempo, 1052631
1, 36092, Tempo, 1052631
1, 36096, Tempo, 1071428
1, 36102, Tempo, 1071428
1, 36108, Tempo, 1090909
1, 36114, Tempo, 1090909
1, 36120, Tempo, 1111111
1, 36126, Tempo, 1111111
1, 36132, Tempo, 1132075
1, 36138, Tempo, 1132075
1, 36144, Tempo, 1153846
1, 36148, Tempo, 1153846
1, 36154, Tempo, 1176470
1, 36160, Tempo, 1176470
1, 36166, Tempo, 1200000
1, 36172, Tempo, 1200000
1, 36178, Tempo, 1224489
1, 36184, Tempo, 1224489
1, 36190, Tempo, 1250000
1, 36192, Tempo, 1500000
1, 36194, Tempo, 1538461
1, 36198, Tempo, 1538461
1, 36200, Tempo, 1578947
1, 36204, Tempo, 1578947
1, 36208, Tempo, 1621621
1, 36210, Tempo, 1621621
1, 36214, Tempo, 1666666
1, 36216, Tempo, 1666666
1, 36220, Tempo, 1714285
1, 36224, Tempo, 1714285
1, 36226, Tempo, 1764705
1, 36230, Tempo, 1764705
1, 36232, Tempo, 1818181
1, 36236, Tempo, 1818181
1, 36240, Tempo, 1875000
1, 36242, Tempo, 1875000
1, 36246, Tempo, 1935483
1, 36248, Tempo, 1935483
1, 36252, Tempo, 2000000
1, 36256, Tempo, 2000000
1, 36258, Tempo, 2068965
1, 36262, Tempo, 2068965
1, 36264, Tempo, 2142857
1, 36268, Tempo, 2142857
1, 36272, Tempo, 2222222
1, 36274, Tempo, 2222222
1, 36278, Tempo, 2307692
1, 36280, Tempo, 2307692
1, 36284, Tempo, 2400000
1, 36288, Tempo, 2400000
1, 36288, End_track
2, 0, Start_track
2, 0, Title_t, "Johann Sebastian Bach"
2, 0, Control_c, 0, 0, 0
2, 0, Program_c, 0, 6
2, 0, Control_c, 0, 7, 127
2, 0, Control_c, 0, 10, 38
2, 0, Control_c, 0, 91, 127
2, 0, Key_signature, 1, "major"
2, 0, Note_on_c, 0, 71, 112
2, 670, Note_off_c, 0, 71, 100
2, 672, Note_on_c, 0, 72, 112
2, 764, Note_off_c, 0, 72, 100
2, 768, Note_on_c, 0, 74, 112
2, 860, Note_off_c, 0, 74, 100
2, 864, Note_on_c, 0, 72, 112
2, 956, Note_off_c, 0, 72, 100
2, 960, Note_on_c, 0, 74, 112
2, 1052, Note_off_c, 0, 74, 100
2, 1056, Note_on_c, 0, 76, 112
2, 1120, Note_off_c, 0, 76, 100
2, 1152, Note_on_c, 0, 69, 112
2, 1822, Note_off_c, 0, 69, 100
2, 1824, Note_on_c, 0, 71, 112
2, 1916, Note_off_c, 0, 71, 100
2, 1920, Note_on_c, 0, 72, 112
2, 2012, Note_off_c, 0, 72, 100
2, 2016, Note_on_c, 0, 71, 112
2, 2108, Note_off_c, 0, 71, 100
2, 2112, Note_on_c, 0, 72, 112
2, 2204, Note_off_c, 0, 72, 100
2, 2208, Note_on_c, 0, 74, 112
2, 2272, Note_off_c, 0, 74, 100
2, 2304, Note_on_c, 0, 67, 112
2, 2876, Note_off_c, 0, 67, 100
2, 2880, Note_on_c, 0, 79, 112
2, 3452, Note_off_c, 0, 79, 100
2, 3648, Note_on_c, 0, 81, 112
2, 3740, Note_off_c, 0, 81, 100
2, 3744, Note_on_c, 0, 79, 112
2, 3836, Note_off_c, 0, 79, 100
2, 3840, Note_on_c, 0, 78, 112
2, 3932, Note_off_c, 0, 78, 100
2, 3936, Note_on_c, 0, 79, 112
2, 4028, Note_off_c, 0, 79, 100
2, 4032, Note_on_c, 0, 81, 112
2, 4092, Note_off_c, 0, 81, 100
2, 4800, Note_on_c, 0, 74, 112
2, 4892, Note_off_c, 0, 74, 100
2, 4896, Note_on_c, 0, 72, 112
2, 4988, Note_off_c, 0, 72, 100
2, 4992, Note_on_c, 0, 71, 112
2, 5084, Note_off_c, 0, 71, 100
2, 5088, Note_on_c, 0, 69, 112
2, 5180, Note_off_c, 0, 69, 100
2, 5184, Note_on_c, 0, 67, 112
2, 5244, Note_off_c, 0, 67, 100
2, 5376, Note_on_c, 0, 72, 112
2, 5468, Note_off_c, 0, 72, 100
2, 5472, Note_on_c, 0, 71, 112
2, 5564, Note_off_c, 0, 71, 100
2, 5568, Note_on_c, 0, 69, 112
2, 5660, Note_off_c, 0, 69, 100
2, 5664, Note_on_c, 0, 71, 112
2, 5756, Note_off_c, 0, 71, 100
2, 5760, Note_on_c, 0, 67, 112
2, 5820, Note_off_c, 0, 67, 100
2, 5952, Note_on_c, 0, 76, 112
2, 6012, Note_off_c, 0, 76, 100
2, 6144, Note_on_c, 0, 74, 112
2, 6204, Note_off_c, 0, 74, 100
2, 6336, Note_on_c, 0, 72, 112
2, 6396, Note_off_c, 0, 72, 100
2, 6528, Note_on_c, 0, 78, 112
2, 6588, Note_off_c, 0, 78, 100
2, 6720, Note_on_c, 0, 81, 112
2, 6780, Note_off_c, 0, 81, 100
2, 6912, Note_on_c, 0, 71, 112
2, 7292, Note_off_c, 0, 71, 100
2, 7296, Note_on_c, 0, 79, 112
2, 7356, Note_off_c, 0, 79, 100
2, 7488, Note_on_c, 0, 79, 112
2, 7868, Note_off_c, 0, 79, 100
2, 7872, Note_on_c, 0, 78, 112
2, 7932, Note_off_c, 0, 78, 100
2, 8448, Note_on_c, 0, 83, 112
2, 8636, Note_off_c, 0, 83, 100
2, 8640, Note_on_c, 0, 81, 112
2, 9020, Note_off_c, 0, 81, 100
2, 9024, Note_on_c, 0, 74, 112
2, 9212, Note_off_c, 0, 74, 100
2, 9312, Note_on_c, 0, 76, 112
2, 9404, Note_off_c, 0, 76, 100
2, 9408, Note_on_c, 0, 74, 112
2, 9500, Note_off_c, 0, 74, 100
2, 9504, Note_on_c, 0, 72, 112
2, 9596, Note_off_c, 0, 72, 100
2, 9600, Note_on_c, 0, 71, 112
2, 9660, Note_off_c, 0, 71, 100
2, 9792, Note_on_c, 0, 76, 112
2, 9852, Note_off_c, 0, 76, 100
2, 9984, Note_on_c, 0, 71, 112
2, 10044, Note_off_c, 0, 71, 100
2, 10176, Note_on_c, 0, 74, 112
2, 10236, Note_off_c, 0, 74, 100
2, 10368, Note_on_c, 0, 73, 112
2, 10556, Note_off_c, 0, 73, 100
2, 10560, Note_on_c, 0, 74, 112
2, 10620, Note_off_c, 0, 74, 100
2, 10752, Note_on_c, 0, 76, 112
2, 10940, Note_off_c, 0, 76, 100
2, 11136, Note_on_c, 0, 73, 112
2, 11196, Note_off_c, 0, 73, 100
2, 11328, Note_on_c, 0, 69, 112
2, 11388, Note_off_c, 0, 69, 100
2, 11904, Note_on_c, 0, 74, 112
2, 11964, Note_off_c, 0, 74, 100
2, 12096, Note_on_c, 0, 67, 112
2, 12668, Note_off_c, 0, 67, 100
2, 12864, Note_on_c, 0, 66, 112
2, 13052, Note_off_c, 0, 66, 100
2, 13056, Note_on_c, 0, 67, 112
2, 13244, Note_off_c, 0, 67, 100
2, 13248, Note_on_c, 0, 64, 112
2, 13308, Note_off_c, 0, 64, 100
2, 13440, Note_on_c, 0, 69, 112
2, 13532, Note_off_c, 0, 69, 100
2, 13536, Note_on_c, 0, 67, 112
2, 13628, Note_off_c, 0, 67, 100
2, 13632, Note_on_c, 0, 66, 112
2, 13724, Note_off_c, 0, 66, 100
2, 13728, Note_on_c, 0, 64, 112
2, 13820, Note_off_c, 0, 64, 100
2, 13824, Note_on_c, 0, 62, 112
2, 13884, Note_off_c, 0, 62, 100
2, 14016, Note_on_c, 0, 64, 112
2, 14108, Note_off_c, 0, 64, 100
2, 14112, Note_on_c, 0, 66, 112
2, 14204, Note_off_c, 0, 66, 100
2, 14208, Note_on_c, 0, 67, 112
2, 14300, Note_off_c, 0, 67, 100
2, 14304, Note_on_c, 0, 69, 112
2, 14396, Note_off_c, 0, 69, 100
2, 14400, Note_on_c, 0, 71, 112
2, 14460, Note_off_c, 0, 71, 100
2, 14592, Note_on_c, 0, 74, 112
2, 14720, Note_off_c, 0, 74, 100
2, 14784, Note_on_c, 0, 73, 112
2, 14912, Note_off_c, 0, 73, 100
2, 14976, Note_on_c, 0, 74, 112
2, 15548, Note_off_c, 0, 74, 100
2, 15744, Note_on_c, 0, 73, 112
2, 15804, Note_off_c, 0, 73, 100
2, 16128, Note_on_c, 0, 74, 112
2, 16700, Note_off_c, 0, 74, 100
2, 16800, Note_on_c, 0, 69, 112
2, 16892, Note_off_c, 0, 69, 100
2, 16896, Note_on_c, 0, 67, 112
2, 16988, Note_off_c, 0, 67, 100
2, 16992, Note_on_c, 0, 66, 112
2, 17084, Note_off_c, 0, 66, 100
2, 17088, Note_on_c, 0, 67, 112
2, 17180, Note_off_c, 0, 67, 100
2, 17184, Note_on_c, 0, 64, 112
2, 17276, Note_off_c, 0, 64, 100
2, 17280, Note_on_c, 0, 66, 112
2, 18240, Note_off_c, 0, 66, 100
2, 21312, Note_on_c, 0, 81, 112
2, 21884, Note_off_c, 0, 81, 100
2, 21984, Note_on_c, 0, 83, 112
2, 22076, Note_off_c, 0, 83, 100
2, 22080, Note_on_c, 0, 84, 112
2, 22172, Note_off_c, 0, 84, 100
2, 22176, Note_on_c, 0, 81, 112
2, 22268, Note_off_c, 0, 81, 100
2, 22272, Note_on_c, 0, 83, 112
2, 22364, Note_off_c, 0, 83, 100
2, 22368, Note_on_c, 0, 84, 112
2, 22460, Note_off_c, 0, 84, 100
2, 22464, Note_on_c, 0, 83, 112
2, 22556, Note_off_c, 0, 83, 100
2, 22560, Note_on_c, 0, 81, 112
2, 22652, Note_off_c, 0, 81, 100
2, 22656, Note_on_c, 0, 79, 112
2, 22748, Note_off_c, 0, 79, 100
2, 22752, Note_on_c, 0, 78, 112
2, 22844, Note_off_c, 0, 78, 100
2, 22848, Note_on_c, 0, 76, 112
2, 22940, Note_off_c, 0, 76, 100
2, 22944, Note_on_c, 0, 75, 112
2, 23036, Note_off_c, 0, 75, 100
2, 23040, Note_on_c, 0, 76, 112
2, 23100, Note_off_c, 0, 76, 100
2, 23232, Note_on_c, 0, 78, 112
2, 23292, Note_off_c, 0, 78, 100
2, 23424, Note_on_c, 0, 79, 112
2, 23612, Note_off_c, 0, 79, 100
2, 23808, Note_on_c, 0, 78, 112
2, 23868, Note_off_c, 0, 78, 100
2, 24000, Note_on_c, 0, 76, 112
2, 24060, Note_off_c, 0, 76, 100
2, 24192, Note_on_c, 0, 75, 112
2, 25144, Note_off_c, 0, 75, 100
2, 25920, Note_on_c, 0, 69, 112
2, 26492, Note_off_c, 0, 69, 100
2, 26688, Note_on_c, 0, 71, 112
2, 26780, Note_off_c, 0, 71, 100
2, 26784, Note_on_c, 0, 69, 112
2, 26876, Note_off_c, 0, 69, 100
2, 26880, Note_on_c, 0, 67, 112
2, 26972, Note_off_c, 0, 67, 100
2, 26976, Note_on_c, 0, 66, 112
2, 27040, Note_off_c, 0, 66, 100
2, 27072, Note_on_c, 0, 67, 112
2, 27164, Note_off_c, 0, 67, 100
2, 27168, Note_on_c, 0, 69, 112
2, 27260, Note_off_c, 0, 69, 100
2, 27264, Note_on_c, 0, 71, 112
2, 27356, Note_off_c, 0, 71, 100
2, 27360, Note_on_c, 0, 67, 112
2, 27452, Note_off_c, 0, 67, 100
2, 27456, Note_on_c, 0, 69, 112
2, 27548, Note_off_c, 0, 69, 100
2, 27552, Note_on_c, 0, 71, 112
2, 27616, Note_off_c, 0, 71, 100
2, 27648, Note_on_c, 0, 64, 112
2, 27776, Note_off_c, 0, 64, 100
2, 27840, Note_on_c, 0, 66, 112
2, 27932, Note_off_c, 0, 66, 100
2, 27936, Note_on_c, 0, 67, 112
2, 28028, Note_off_c, 0, 67, 100
2, 28032, Note_on_c, 0, 69, 112
2, 28124, Note_off_c, 0, 69, 100
2, 28128, Note_on_c, 0, 71, 112
2, 28220, Note_off_c, 0, 71, 100
2, 28224, Note_on_c, 0, 72, 112
2, 28284, Note_off_c, 0, 72, 100
2, 28416, Note_on_c, 0, 64, 112
2, 28544, Note_off_c, 0, 64, 100
2, 28608, Note_on_c, 0, 63, 112
2, 28736, Note_off_c, 0, 63, 100
2, 28800, Note_on_c, 0, 64, 112
2, 29372, Note_off_c, 0, 64, 100
2, 29952, Note_on_c, 0, 76, 112
2, 30524, Note_off_c, 0, 76, 100
2, 30624, Note_on_c, 0, 78, 112
2, 30716, Note_off_c, 0, 78, 100
2, 30720, Note_on_c, 0, 79, 112
2, 30812, Note_off_c, 0, 79, 100
2, 30816, Note_on_c, 0, 76, 112
2, 30908, Note_off_c, 0, 76, 100
2, 30912, Note_on_c, 0, 78, 112
2, 31004, Note_off_c, 0, 78, 100
2, 31008, Note_on_c, 0, 79, 112
2, 31072, Note_off_c, 0, 79, 100
2, 31104, Note_on_c, 0, 72, 112
2, 31196, Note_off_c, 0, 72, 100
2, 31200, Note_on_c, 0, 74, 112
2, 31292, Note_off_c, 0, 74, 100
2, 31296, Note_on_c, 0, 76, 112
2, 31388, Note_off_c, 0, 76, 100
2, 31392, Note_on_c, 0, 72, 112
2, 31484, Note_off_c, 0, 72, 100
2, 31488, Note_on_c, 0, 74, 112
2, 31580, Note_off_c, 0, 74, 100
2, 31584, Note_on_c, 0, 76, 112
2, 31648, Note_off_c, 0, 76, 100
2, 31680, Note_on_c, 0, 69, 112
2, 31772, Note_off_c, 0, 69, 100
2, 31776, Note_on_c, 0, 71, 112
2, 31868, Note_off_c, 0, 71, 100
2, 31872, Note_on_c, 0, 72, 112
2, 31964, Note_off_c, 0, 72, 100
2, 31968, Note_on_c, 0, 69, 112
2, 32060, Note_off_c, 0, 69, 100
2, 32064, Note_on_c, 0, 71, 112
2, 32156, Note_off_c, 0, 71, 100
2, 32160, Note_on_c, 0, 72, 112
2, 32224, Note_off_c, 0, 72, 100
2, 32256, Note_on_c, 0, 71, 112
2, 32348, Note_off_c, 0, 71, 100
2, 32352, Note_on_c, 0, 72, 112
2, 32444, Note_off_c, 0, 72, 100
2, 32448, Note_on_c, 0, 74, 112
2, 32540, Note_off_c, 0, 74, 100
2, 32544, Note_on_c, 0, 71, 112
2, 32636, Note_off_c, 0, 71, 100
2, 32640, Note_on_c, 0, 72, 112
2, 32732, Note_off_c, 0, 72, 100
2, 32736, Note_on_c, 0, 74, 112
2, 32800, Note_off_c, 0, 74, 100
2, 32832, Note_on_c, 0, 67, 112
2, 33344, Note_off_c, 0, 67, 100
2, 33600, Note_on_c, 0, 79, 112
2, 34172, Note_off_c, 0, 79, 100
2, 34176, Note_on_c, 0, 78, 112
2, 34236, Note_off_c, 0, 78, 100
2, 34368, Note_on_c, 0, 81, 112
2, 34624, Note_off_c, 0, 81, 100
2, 34752, Note_on_c, 0, 79, 112
2, 34896, Note_off_c, 0, 79, 100
2, 34944, Note_on_c, 0, 77, 112
2, 35088, Note_off_c, 0, 77, 100
2, 35136, Note_on_c, 0, 76, 112
2, 35228, Note_off_c, 0, 76, 100
2, 35232, Note_on_c, 0, 74, 112
2, 35324, Note_off_c, 0, 74, 100
2, 35328, Note_on_c, 0, 72, 112
2, 35420, Note_off_c, 0, 72, 100
2, 35424, Note_on_c, 0, 76, 112
2, 35516, Note_off_c, 0, 76, 100
2, 35520, Note_on_c, 0, 74, 112
2, 35612, Note_off_c, 0, 74, 100
2, 35616, Note_on_c, 0, 72, 112
2, 35708, Note_off_c, 0, 72, 100
2, 35712, Note_on_c, 0, 71, 112
2, 36672, Note_off_c, 0, 71, 100
2, 36672, End_track
3, 0, Start_track
3, 0, Title_t, "Goldberg Variations"
3, 0, Control_c, 1, 0, 0
3, 0, Program_c, 1, 6
3, 0, Control_c, 1, 7, 127
3, 0, Control_c, 1, 10, 97
3, 0, Control_c, 1, 91, 127
3, 0, Key_signature, 1, "major"
3, 2304, Note_on_c, 1, 71, 112
3, 2974, Note_off_c, 1, 71, 100
3, 2976, Note_on_c, 1, 72, 112
3, 3068, Note_off_c, 1, 72, 100
3, 3072, Note_on_c, 1, 74, 112
3, 3164, Note_off_c, 1, 74, 100
3, 3168, Note_on_c, 1, 72, 112
3, 3260, Note_off_c, 1, 72, 100
3, 3264, Note_on_c, 1, 74, 112
3, 3356, Note_off_c, 1, 74, 100
3, 3360, Note_on_c, 1, 76, 112
3, 3424, Note_off_c, 1, 76, 100
3, 3456, Note_on_c, 1, 69, 112
3, 4126, Note_off_c, 1, 69, 100
3, 4128, Note_on_c, 1, 71, 112
3, 4220, Note_off_c, 1, 71, 100
3, 4224, Note_on_c, 1, 72, 112
3, 4316, Note_off_c, 1, 72, 100
3, 4320, Note_on_c, 1, 71, 112
3, 4412, Note_off_c, 1, 71, 100
3, 4416, Note_on_c, 1, 72, 112
3, 4508, Note_off_c, 1, 72, 100
3, 4512, Note_on_c, 1, 74, 112
3, 4576, Note_off_c, 1, 74, 100
3, 4608, Note_on_c, 1, 67, 112
3, 5180, Note_off_c, 1, 67, 100
3, 5184, Note_on_c, 1, 79, 112
3, 5756, Note_off_c, 1, 79, 100
3, 5952, Note_on_c, 1, 81, 112
3, 6044, Note_off_c, 1, 81, 100
3, 6048, Note_on_c, 1, 79, 112
3, 6140, Note_off_c, 1, 79, 100
3, 6144, Note_on_c, 1, 78, 112
3, 6236, Note_off_c, 1, 78, 100
3, 6240, Note_on_c, 1, 79, 112
3, 6332, Note_off_c, 1, 79, 100
3, 6336, Note_on_c, 1, 81, 112
3, 6396, Note_off_c, 1, 81, 100
3, 7104, Note_on_c, 1, 74, 112
3, 7196, Note_off_c, 1, 74, 100
3, 7200, Note_on_c, 1, 72, 112
3, 7292, Note_off_c, 1, 72, 100
3, 7296, Note_on_c, 1, 71, 112
3, 7388, Note_off_c, 1, 71, 100
3, 7392, Note_on_c, 1, 69, 112
3, 7484, Note_off_c, 1, 69, 100
3, 7488, Note_on_c, 1, 67, 112
3, 7548, Note_off_c, 1, 67, 100
3, 7680, Note_on_c, 1, 72, 112
3, 7772, Note_off_c, 1, 72, 100
3, 7776, Note_on_c, 1, 71, 112
3, 7868, Note_off_c, 1, 71, 100
3, 7872, Note_on_c, 1, 69, 112
3, 7964, Note_off_c, 1, 69, 100
3, 7968, Note_on_c, 1, 71, 112
3, 8060, Note_off_c, 1, 71, 100
3, 8064, Note_on_c, 1, 67, 112
3, 8124, Note_off_c, 1, 67, 100
3, 8256, Note_on_c, 1, 76, 112
3, 8316, Note_off_c, 1, 76, 100
3, 8448, Note_on_c, 1, 74, 112
3, 8508, Note_off_c, 1, 74, 100
3, 8640, Note_on_c, 1, 72, 112
3, 8700, Note_off_c, 1, 72, 100
3, 8832, Note_on_c, 1, 78, 112
3, 8892, Note_off_c, 1, 78, 100
3, 9024, Note_on_c, 1, 81, 112
3, 9084, Note_off_c, 1, 81, 100
3, 9216, Note_on_c, 1, 71, 112
3, 9596, Note_off_c, 1, 71, 100
3, 9600, Note_on_c, 1, 79, 112
3, 9660, Note_off_c, 1, 79, 100
3, 9792, Note_on_c, 1, 79, 112
3, 10172, Note_off_c, 1, 79, 100
3, 10176, Note_on_c, 1, 78, 112
3, 10236, Note_off_c, 1, 78, 100
3, 10752, Note_on_c, 1, 83, 112
3, 10940, Note_off_c, 1, 83, 100
3, 10944, Note_on_c, 1, 81, 112
3, 11324, Note_off_c, 1, 81, 100
3, 11328, Note_on_c, 1, 74, 112
3, 11516, Note_off_c, 1, 74, 100
3, 11616, Note_on_c, 1, 76, 112
3, 11708, Note_off_c, 1, 76, 100
3, 11712, Note_on_c, 1, 74, 112
3, 11804, Note_off_c, 1, 74, 100
3, 11808, Note_on_c, 1, 72, 112
3, 11900, Note_off_c, 1, 72, 100
3, 11904, Note_on_c, 1, 71, 112
3, 11964, Note_off_c, 1, 71, 100
3, 12096, Note_on_c, 1, 76, 112
3, 12156, Note_off_c, 1, 76, 100
3, 12288, Note_on_c, 1, 71, 112
3, 12348, Note_off_c, 1, 71, 100
3, 12480, Note_on_c, 1, 74, 112
3, 12540, Note_off_c, 1, 74, 100
3, 12672, Note_on_c, 1, 73, 112
3, 12860, Note_off_c, 1, 73, 100
3, 12864, Note_on_c, 1, 74, 112
3, 12924, Note_off_c, 1, 74, 100
3, 13056, Note_on_c, 1, 76, 112
3, 13244, Note_off_c, 1, 76, 100
3, 13440, Note_on_c, 1, 73, 112
3, 13500, Note_off_c, 1, 73, 100
3, 13632, Note_on_c, 1, 69, 112
3, 13692, Note_off_c, 1, 69, 100
3, 14208, Note_on_c, 1, 74, 112
3, 14268, Note_off_c, 1, 74, 100
3, 14400, Note_on_c, 1, 67, 112
3, 14972, Note_off_c, 1, 67, 100
3, 15168, Note_on_c, 1, 66, 112
3, 15356, Note_off_c, 1, 66, 100
3, 15360, Note_on_c, 1, 67, 112
3, 15548, Note_off_c, 1, 67, 100
3, 15552, Note_on_c, 1, 64, 112
3, 15612, Note_off_c, 1, 64, 100
3, 15744, Note_on_c, 1, 69, 112
3, 15836, Note_off_c, 1, 69, 100
3, 15840, Note_on_c, 1, 67, 112
3, 15932, Note_off_c, 1, 67, 100
3, 15936, Note_on_c, 1, 66, 112
3, 16028, Note_off_c, 1, 66, 100
3, 16032, Note_on_c, 1, 64, 112
3, 16124, Note_off_c, 1, 64, 100
3, 16128, Note_on_c, 1, 62, 112
3, 16188, Note_off_c, 1, 62, 100
3, 16320, Note_on_c, 1, 64, 112
3, 16412, Note_off_c, 1, 64, 100
3, 16416, Note_on_c, 1, 66, 112
3, 16508, Note_off_c, 1, 66, 100
3, 16512, Note_on_c, 1, 67, 112
3, 16604, Note_off_c, 1, 67, 100
3, 16608, Note_on_c, 1, 69, 112
3, 16700, Note_off_c, 1, 69, 100
3, 16704, Note_on_c, 1, 71, 112
3, 16764, Note_off_c, 1, 71, 100
3, 16896, Note_on_c, 1, 74, 112
3, 17024, Note_off_c, 1, 74, 100
3, 17088, Note_on_c, 1, 73, 112
3, 17216, Note_off_c, 1, 73, 100
3, 17280, Note_on_c, 1, 74, 112
3, 18240, Note_off_c, 1, 74, 100
3, 19008, Note_on_c, 1, 81, 112
3, 19580, Note_off_c, 1, 81, 100
3, 19680, Note_on_c, 1, 83, 112
3, 19772, Note_off_c, 1, 83, 100
3, 19776, Note_on_c, 1, 84, 112
3, 19868, Note_off_c, 1, 84, 100
3, 19872, Note_on_c, 1, 81, 112
3, 19964, Note_off_c, 1, 81, 100
3, 19968, Note_on_c, 1, 83, 112
3, 20060, Note_off_c, 1, 83, 100
3, 20064, Note_on_c, 1, 84, 112
3, 20156, Note_off_c, 1, 84, 100
3, 20160, Note_on_c, 1, 83, 112
3, 20252, Note_off_c, 1, 83, 100
3, 20256, Note_on_c, 1, 81, 112
3, 20348, Note_off_c, 1, 81, 100
3, 20352, Note_on_c, 1, 79, 112
3, 20444, Note_off_c, 1, 79, 100
3, 20448, Note_on_c, 1, 78, 112
3, 20540, Note_off_c, 1, 78, 100
3, 20544, Note_on_c, 1, 76, 112
3, 20636, Note_off_c, 1, 76, 100
3, 20640, Note_on_c, 1, 75, 112
3, 20732, Note_off_c, 1, 75, 100
3, 20736, Note_on_c, 1, 76, 112
3, 20796, Note_off_c, 1, 76, 100
3, 20928, Note_on_c, 1, 78, 112
3, 20988, Note_off_c, 1, 78, 100
3, 21120, Note_on_c, 1, 79, 112
3, 21308, Note_off_c, 1, 79, 100
3, 21504, Note_on_c, 1, 78, 112
3, 21564, Note_off_c, 1, 78, 100
3, 21696, Note_on_c, 1, 76, 112
3, 21756, Note_off_c, 1, 76, 100
3, 21888, Note_on_c, 1, 75, 112
3, 22840, Note_off_c, 1, 75, 100
3, 23616, Note_on_c, 1, 69, 112
3, 24188, Note_off_c, 1, 69, 100
3, 24384, Note_on_c, 1, 71, 112
3, 24476, Note_off_c, 1, 71, 100
3, 24480, Note_on_c, 1, 69, 112
3, 24572, Note_off_c, 1, 69, 100
3, 24576, Note_on_c, 1, 67, 112
3, 24668, Note_off_c, 1, 67, 100
3, 24672, Note_on_c, 1, 66, 112
3, 24736, Note_off_c, 1, 66, 100
3, 24768, Note_on_c, 1, 67, 112
3, 24860, Note_off_c, 1, 67, 100
3, 24864, Note_on_c, 1, 69, 112
3, 24956, Note_off_c, 1, 69, 100
3, 24960, Note_on_c, 1, 71, 112
3, 25052, Note_off_c, 1, 71, 100
3, 25056, Note_on_c, 1, 67, 112
3, 25148, Note_off_c, 1, 67, 100
3, 25152, Note_on_c, 1, 69, 112
3, 25244, Note_off_c, 1, 69, 100
3, 25248, Note_on_c, 1, 71, 112
3, 25312, Note_off_c, 1, 71, 100
3, 25344, Note_on_c, 1, 64, 112
3, 25472, Note_off_c, 1, 64, 100
3, 25536, Note_on_c, 1, 66, 112
3, 25628, Note_off_c, 1, 66, 100
3, 25632, Note_on_c, 1, 67, 112
3, 25724, Note_off_c, 1, 67, 100
3, 25728, Note_on_c, 1, 69, 112
3, 25820, Note_off_c, 1, 69, 100
3, 25824, Note_on_c, 1, 71, 112
3, 25916, Note_off_c, 1, 71, 100
3, 25920, Note_on_c, 1, 72, 112
3, 25980, Note_off_c, 1, 72, 100
3, 26112, Note_on_c, 1, 64, 112
3, 26240, Note_off_c, 1, 64, 100
3, 26304, Note_on_c, 1, 63, 112
3, 26432, Note_off_c, 1, 63, 100
3, 26496, Note_on_c, 1, 64, 112
3, 27068, Note_off_c, 1, 64, 100
3, 27648, Note_on_c, 1, 76, 112
3, 28220, Note_off_c, 1, 76, 100
3, 28320, Note_on_c, 1, 78, 112
3, 28412, Note_off_c, 1, 78, 100
3, 28416, Note_on_c, 1, 79, 112
3, 28508, Note_off_c, 1, 79, 100
3, 28512, Note_on_c, 1, 76, 112
3, 28604, Note_off_c, 1, 76, 100
3, 28608, Note_on_c, 1, 78, 112
3, 28700, Note_off_c, 1, 78, 100
3, 28704, Note_on_c, 1, 79, 112
3, 28768, Note_off_c, 1, 79, 100
3, 28800, Note_on_c, 1, 72, 112
3, 28892, Note_off_c, 1, 72, 100
3, 28896, Note_on_c, 1, 74, 112
3, 28988, Note_off_c, 1, 74, 100
3, 28992, Note_on_c, 1, 76, 112
3, 29084, Note_off_c, 1, 76, 100
3, 29088, Note_on_c, 1, 72, 112
3, 29180, Note_off_c, 1, 72, 100
3, 29184, Note_on_c, 1, 74, 112
3, 29276, Note_off_c, 1, 74, 100
3, 29280, Note_on_c, 1, 76, 112
3, 29344, Note_off_c, 1, 76, 100
3, 29376, Note_on_c, 1, 69, 112
3, 29468, Note_off_c, 1, 69, 100
3, 29472, Note_on_c, 1, 71, 112
3, 29564, Note_off_c, 1, 71, 100
3, 29568, Note_on_c, 1, 72, 112
3, 29660, Note_off_c, 1, 72, 100
3, 29664, Note_on_c, 1, 69, 112
3, 29756, Note_off_c, 1, 69, 100
3, 29760, Note_on_c, 1, 71, 112
3, 29852, Note_off_c, 1, 71, 100
3, 29856, Note_on_c, 1, 72, 112
3, 29920, Note_off_c, 1, 72, 100
3, 29952, Note_on_c, 1, 71, 112
3, 30044, Note_off_c, 1, 71, 100
3, 30048, Note_on_c, 1, 72, 112
3, 30140, Note_off_c, 1, 72, 100
3, 30144, Note_on_c, 1, 74, 112
3, 30236, Note_off_c, 1, 74, 100
3, 30240, Note_on_c, 1, 71, 112
3, 30332, Note_off_c, 1, 71, 100
3, 30336, Note_on_c, 1, 72, 112
3, 30428, Note_off_c, 1, 72, 100
3, 30432, Note_on_c, 1, 74, 112
3, 30496, Note_off_c, 1, 74, 100
3, 30528, Note_on_c, 1, 67, 112
3, 31040, Note_off_c, 1, 67, 100
3, 31296, Note_on_c, 1, 79, 112
3, 31868, Note_off_c, 1, 79, 100
3, 31872, Note_on_c, 1, 78, 112
3, 31932, Note_off_c, 1, 78, 100
3, 32064, Note_on_c, 1, 81, 112
3, 32320, Note_off_c, 1, 81, 100
3, 32448, Note_on_c, 1, 79, 112
3, 32592, Note_off_c, 1, 79, 100
3, 32640, Note_on_c, 1, 77, 112
3, 32784, Note_off_c, 1, 77, 100
3, 32832, Note_on_c, 1, 76, 112
3, 32924, Note_off_c, 1, 76, 100
3, 32928, Note_on_c, 1, 74, 112
3, 33020, Note_off_c, 1, 74, 100
3, 33024, Note_on_c, 1, 72, 112
3, 33116, Note_off_c, 1, 72, 100
3, 33120, Note_on_c, 1, 76, 112
3, 33212, Note_off_c, 1, 76, 100
3, 33216, Note_on_c, 1, 74, 112
3, 33308, Note_off_c, 1, 74, 100
3, 33312, Note_on_c, 1, 72, 112
3, 33404, Note_off_c, 1, 72, 100
3, 33408, Note_on_c, 1, 71, 112
3, 33664, Note_off_c, 1, 71, 100
3, 33792, Note_on_c, 1, 83, 112
3, 33980, Note_off_c, 1, 83, 100
3, 33984, Note_on_c, 1, 81, 112
3, 34240, Note_off_c, 1, 81, 100
3, 34368, Note_on_c, 1, 84, 112
3, 34556, Note_off_c, 1, 84, 100
3, 34560, Note_on_c, 1, 83, 112
3, 34816, Note_off_c, 1, 83, 100
3, 34944, Note_on_c, 1, 86, 112
3, 35132, Note_off_c, 1, 86, 100
3, 35136, Note_on_c, 1, 79, 112
3, 35280, Note_off_c, 1, 79, 100
3, 35328, Note_on_c, 1, 81, 112
3, 35472, Note_off_c, 1, 81, 100
3, 35520, Note_on_c, 1, 78, 112
3, 35664, Note_off_c, 1, 78, 100
3, 35712, Note_on_c, 1, 79, 112
3, 36672, Note_off_c, 1, 79, 100
3, 36672, End_track
4, 0, Start_track
4, 0, Title_t, "BWV 988"
4, 0, Control_c, 2, 0, 0
4, 0, Program_c, 2, 6
4, 0, Control_c, 2, 7, 127
4, 0, Control_c, 2, 10, 64
4, 0, Control_c, 2, 91, 127
4, 0, Key_signature, 1, "major"
4, 0, Note_on_c, 2, 43, 112
4, 144, Note_off_c, 2, 43, 100
4, 192, Note_on_c, 2, 47, 112
4, 336, Note_off_c, 2, 47, 100
4, 384, Note_on_c, 2, 50, 112
4, 528, Note_off_c, 2, 50, 100
4, 576, Note_on_c, 2, 55, 112
4, 720, Note_off_c, 2, 55, 100
4, 768, Note_on_c, 2, 59, 112
4, 912, Note_off_c, 2, 59, 100
4, 960, Note_on_c, 2, 52, 112
4, 1088, Note_off_c, 2, 52, 100
4, 1152, Note_on_c, 2, 42, 112
4, 1296, Note_off_c, 2, 42, 100
4, 1344, Note_on_c, 2, 45, 112
4, 1488, Note_off_c, 2, 45, 100
4, 1536, Note_on_c, 2, 50, 112
4, 1680, Note_off_c, 2, 50, 100
4, 1728, Note_on_c, 2, 54, 112
4, 1872, Note_off_c, 2, 54, 100
4, 1920, Note_on_c, 2, 57, 112
4, 2064, Note_off_c, 2, 57, 100
4, 2112, Note_on_c, 2, 50, 112
4, 2256, Note_off_c, 2, 50, 100
4, 2304, Note_on_c, 2, 40, 112
4, 2448, Note_off_c, 2, 40, 100
4, 2496, Note_on_c, 2, 43, 112
4, 2640, Note_off_c, 2, 43, 100
4, 2688, Note_on_c, 2, 47, 112
4, 2832, Note_off_c, 2, 47, 100
4, 2880, Note_on_c, 2, 52, 112
4, 3024, Note_off_c, 2, 52, 100
4, 3072, Note_on_c, 2, 47, 112
4, 3216, Note_off_c, 2, 47, 100
4, 3264, Note_on_c, 2, 49, 112
4, 3392, Note_off_c, 2, 49, 100
4, 3456, Note_on_c, 2, 38, 112
4, 3600, Note_off_c, 2, 38, 100
4, 3648, Note_on_c, 2, 42, 112
4, 3792, Note_off_c, 2, 42, 100
4, 3840, Note_on_c, 2, 45, 112
4, 3984, Note_off_c, 2, 45, 100
4, 4032, Note_on_c, 2, 50, 112
4, 4176, Note_off_c, 2, 50, 100
4, 4224, Note_on_c, 2, 54, 112
4, 4368, Note_off_c, 2, 54, 100
4, 4416, Note_on_c, 2, 45, 112
4, 4544, Note_off_c, 2, 45, 100
4, 4608, Note_on_c, 2, 47, 112
4, 4700, Note_off_c, 2, 47, 100
4, 4704, Note_on_c, 2, 45, 112
4, 4796, Note_off_c, 2, 45, 100
4, 4800, Note_on_c, 2, 47, 112
4, 4892, Note_off_c, 2, 47, 100
4, 4896, Note_on_c, 2, 48, 112
4, 4988, Note_off_c, 2, 48, 100
4, 4992, Note_on_c, 2, 50, 112
4, 5180, Note_off_c, 2, 50, 100
4, 5280, Note_on_c, 2, 43, 112
4, 5372, Note_off_c, 2, 43, 100
4, 5376, Note_on_c, 2, 45, 112
4, 5468, Note_off_c, 2, 45, 100
4, 5472, Note_on_c, 2, 47, 112
4, 5564, Note_off_c, 2, 47, 100
4, 5568, Note_on_c, 2, 48, 112
4, 5660, Note_off_c, 2, 48, 100
4, 5664, Note_on_c, 2, 50, 112
4, 5756, Note_off_c, 2, 50, 100
4, 5760, Note_on_c, 2, 52, 112
4, 5852, Note_off_c, 2, 52, 100
4, 5856, Note_on_c, 2, 50, 112
4, 5948, Note_off_c, 2, 50, 100
4, 5952, Note_on_c, 2, 48, 112
4, 6044, Note_off_c, 2, 48, 100
4, 6048, Note_on_c, 2, 47, 112
4, 6140, Note_off_c, 2, 47, 100
4, 6144, Note_on_c, 2, 48, 112
4, 6236, Note_off_c, 2, 48, 100
4, 6240, Note_on_c, 2, 52, 112
4, 6332, Note_off_c, 2, 52, 100
4, 6336, Note_on_c, 2, 42, 112
4, 6428, Note_off_c, 2, 42, 100
4, 6432, Note_on_c, 2, 45, 112
4, 6524, Note_off_c, 2, 45, 100
4, 6528, Note_on_c, 2, 43, 112
4, 6620, Note_off_c, 2, 43, 100
4, 6624, Note_on_c, 2, 42, 112
4, 6716, Note_off_c, 2, 42, 100
4, 6720, Note_on_c, 2, 40, 112
4, 6812, Note_off_c, 2, 40, 100
4, 6816, Note_on_c, 2, 38, 112
4, 6880, Note_off_c, 2, 38, 100
4, 6912, Note_on_c, 2, 43, 112
4, 7004, Note_off_c, 2, 43, 100
4, 7008, Note_on_c, 2, 42, 112
4, 7100, Note_off_c, 2, 42, 100
4, 7104, Note_on_c, 2, 43, 112
4, 7196, Note_off_c, 2, 43, 100
4, 7200, Note_on_c, 2, 45, 112
4, 7292, Note_off_c, 2, 45, 100
4, 7296, Note_on_c, 2, 47, 112
4, 7388, Note_off_c, 2, 47, 100
4, 7392, Note_on_c, 2, 48, 112
4, 7484, Note_off_c, 2, 48, 100
4, 7488, Note_on_c, 2, 50, 112
4, 7580, Note_off_c, 2, 50, 100
4, 7584, Note_on_c, 2, 52, 112
4, 7676, Note_off_c, 2, 52, 100
4, 7680, Note_on_c, 2, 45, 112
4, 7772, Note_off_c, 2, 45, 100
4, 7776, Note_on_c, 2, 47, 112
4, 7868, Note_off_c, 2, 47, 100
4, 7872, Note_on_c, 2, 48, 112
4, 7964, Note_off_c, 2, 48, 100
4, 7968, Note_on_c, 2, 45, 112
4, 8060, Note_off_c, 2, 45, 100
4, 8064, Note_on_c, 2, 47, 112
4, 8156, Note_off_c, 2, 47, 100
4, 8160, Note_on_c, 2, 45, 112
4, 8252, Note_off_c, 2, 45, 100
4, 8256, Note_on_c, 2, 43, 112
4, 8348, Note_off_c, 2, 43, 100
4, 8352, Note_on_c, 2, 42, 112
4, 8444, Note_off_c, 2, 42, 100
4, 8448, Note_on_c, 2, 43, 112
4, 8636, Note_off_c, 2, 43, 100
4, 8736, Note_on_c, 2, 42, 112
4, 8828, Note_off_c, 2, 42, 100
4, 8832, Note_on_c, 2, 40, 112
4, 8924, Note_off_c, 2, 40, 100
4, 8928, Note_on_c, 2, 38, 112
4, 9020, Note_off_c, 2, 38, 100
4, 9024, Note_on_c, 2, 40, 112
4, 9116, Note_off_c, 2, 40, 100
4, 9120, Note_on_c, 2, 42, 112
4, 9184, Note_off_c, 2, 42, 100
4, 9216, Note_on_c, 2, 43, 112
4, 9308, Note_off_c, 2, 43, 100
4, 9312, Note_on_c, 2, 42, 112
4, 9404, Note_off_c, 2, 42, 100
4, 9408, Note_on_c, 2, 43, 112
4, 9500, Note_off_c, 2, 43, 100
4, 9504, Note_on_c, 2, 45, 112
4, 9596, Note_off_c, 2, 45, 100
4, 9600, Note_on_c, 2, 43, 112
4, 9692, Note_off_c, 2, 43, 100
4, 9696, Note_on_c, 2, 42, 112
4, 9760, Note_off_c, 2, 42, 100
4, 9792, Note_on_c, 2, 40, 112
4, 9884, Note_off_c, 2, 40, 100
4, 9888, Note_on_c, 2, 42, 112
4, 9980, Note_off_c, 2, 42, 100
4, 9984, Note_on_c, 2, 43, 112
4, 10076, Note_off_c, 2, 43, 100
4, 10080, Note_on_c, 2, 40, 112
4, 10172, Note_off_c, 2, 40, 100
4, 10176, Note_on_c, 2, 42, 112
4, 10268, Note_off_c, 2, 42, 100
4, 10272, Note_on_c, 2, 43, 112
4, 10336, Note_off_c, 2, 43, 100
4, 10368, Note_on_c, 2, 45, 112
4, 10460, Note_off_c, 2, 45, 100
4, 10464, Note_on_c, 2, 43, 112
4, 10556, Note_off_c, 2, 43, 100
4, 10560, Note_on_c, 2, 45, 112
4, 10652, Note_off_c, 2, 45, 100
4, 10656, Note_on_c, 2, 47, 112
4, 10748, Note_off_c, 2, 47, 100
4, 10752, Note_on_c, 2, 45, 112
4, 10844, Note_off_c, 2, 45, 100
4, 10848, Note_on_c, 2, 43, 112
4, 10940, Note_off_c, 2, 43, 100
4, 10944, Note_on_c, 2, 42, 112
4, 11008, Note_off_c, 2, 42, 100
4, 11040, Note_on_c, 2, 54, 112
4, 11132, Note_off_c, 2, 54, 100
4, 11136, Note_on_c, 2, 55, 112
4, 11228, Note_off_c, 2, 55, 100
4, 11232, Note_on_c, 2, 54, 112
4, 11324, Note_off_c, 2, 54, 100
4, 11328, Note_on_c, 2, 52, 112
4, 11420, Note_off_c, 2, 52, 100
4, 11424, Note_on_c, 2, 54, 112
4, 11488, Note_off_c, 2, 54, 100
4, 11520, Note_on_c, 2, 47, 112
4, 11612, Note_off_c, 2, 47, 100
4, 11616, Note_on_c, 2, 45, 112
4, 11708, Note_off_c, 2, 45, 100
4, 11712, Note_on_c, 2, 47, 112
4, 11804, Note_off_c, 2, 47, 100
4, 11808, Note_on_c, 2, 48, 112
4, 11900, Note_off_c, 2, 48, 100
4, 11904, Note_on_c, 2, 50, 112
4, 11996, Note_off_c, 2, 50, 100
4, 12000, Note_on_c, 2, 47, 112
4, 12064, Note_off_c, 2, 47, 100
4, 12096, Note_on_c, 2, 49, 112
4, 12188, Note_off_c, 2, 49, 100
4, 12192, Note_on_c, 2, 50, 112
4, 12284, Note_off_c, 2, 50, 100
4, 12288, Note_on_c, 2, 52, 112
4, 12380, Note_off_c, 2, 52, 100
4, 12384, Note_on_c, 2, 50, 112
4, 12476, Note_off_c, 2, 50, 100
4, 12480, Note_on_c, 2, 49, 112
4, 12572, Note_off_c, 2, 49, 100
4, 12576, Note_on_c, 2, 47, 112
4, 12668, Note_off_c, 2, 47, 100
4, 12672, Note_on_c, 2, 45, 112
4, 12736, Note_off_c, 2, 45, 100
4, 12768, Note_on_c, 2, 52, 112
4, 12860, Note_off_c, 2, 52, 100
4, 12864, Note_on_c, 2, 50, 112
4, 12956, Note_off_c, 2, 50, 100
4, 12960, Note_on_c, 2, 49, 112
4, 13052, Note_off_c, 2, 49, 100
4, 13056, Note_on_c, 2, 50, 112
4, 13148, Note_off_c, 2, 50, 100
4, 13152, Note_on_c, 2, 47, 112
4, 13244, Note_off_c, 2, 47, 100
4, 13248, Note_on_c, 2, 49, 112
4, 13312, Note_off_c, 2, 49, 100
4, 13344, Note_on_c, 2, 45, 112
4, 13436, Note_off_c, 2, 45, 100
4, 13440, Note_on_c, 2, 47, 112
4, 13532, Note_off_c, 2, 47, 100
4, 13536, Note_on_c, 2, 49, 112
4, 13628, Note_off_c, 2, 49, 100
4, 13632, Note_on_c, 2, 50, 112
4, 13724, Note_off_c, 2, 50, 100
4, 13728, Note_on_c, 2, 52, 112
4, 13820, Note_off_c, 2, 52, 100
4, 13824, Note_on_c, 2, 54, 112
4, 13888, Note_off_c, 2, 54, 100
4, 13920, Note_on_c, 2, 47, 112
4, 14012, Note_off_c, 2, 47, 100
4, 14016, Note_on_c, 2, 49, 112
4, 14108, Note_off_c, 2, 49, 100
4, 14112, Note_on_c, 2, 50, 112
4, 14204, Note_off_c, 2, 50, 100
4, 14208, Note_on_c, 2, 52, 112
4, 14300, Note_off_c, 2, 52, 100
4, 14304, Note_on_c, 2, 54, 112
4, 14396, Note_off_c, 2, 54, 100
4, 14400, Note_on_c, 2, 55, 112
4, 14492, Note_off_c, 2, 55, 100
4, 14496, Note_on_c, 2, 54, 112
4, 14588, Note_off_c, 2, 54, 100
4, 14592, Note_on_c, 2, 52, 112
4, 14684, Note_off_c, 2, 52, 100
4, 14688, Note_on_c, 2, 50, 112
4, 14780, Note_off_c, 2, 50, 100
4, 14784, Note_on_c, 2, 52, 112
4, 14876, Note_off_c, 2, 52, 100
4, 14880, Note_on_c, 2, 46, 112
4, 14944, Note_off_c, 2, 46, 100
4, 14976, Note_on_c, 2, 47, 112
4, 15068, Note_off_c, 2, 47, 100
4, 15072, Note_on_c, 2, 49, 112
4, 15164, Note_off_c, 2, 49, 100
4, 15168, Note_on_c, 2, 50, 112
4, 15260, Note_off_c, 2, 50, 100
4, 15264, Note_on_c, 2, 49, 112
4, 15356, Note_off_c, 2, 49, 100
4, 15360, Note_on_c, 2, 47, 112
4, 15452, Note_off_c, 2, 47, 100
4, 15456, Note_on_c, 2, 45, 112
4, 15548, Note_off_c, 2, 45, 100
4, 15552, Note_on_c, 2, 43, 112
4, 15644, Note_off_c, 2, 43, 100
4, 15648, Note_on_c, 2, 42, 112
4, 15740, Note_off_c, 2, 42, 100
4, 15744, Note_on_c, 2, 43, 112
4, 15836, Note_off_c, 2, 43, 100
4, 15840, Note_on_c, 2, 47, 112
4, 15932, Note_off_c, 2, 47, 100
4, 15936, Note_on_c, 2, 45, 112
4, 16028, Note_off_c, 2, 45, 100
4, 16032, Note_on_c, 2, 43, 112
4, 16124, Note_off_c, 2, 43, 100
4, 16128, Note_on_c, 2, 42, 112
4, 16192, Note_off_c, 2, 42, 100
4, 16224, Note_on_c, 2, 45, 112
4, 16316, Note_off_c, 2, 45, 100
4, 16320, Note_on_c, 2, 43, 112
4, 16412, Note_off_c, 2, 43, 100
4, 16416, Note_on_c, 2, 42, 112
4, 16508, Note_off_c, 2, 42, 100
4, 16512, Note_on_c, 2, 40, 112
4, 16604, Note_off_c, 2, 40, 100
4, 16608, Note_on_c, 2, 38, 112
4, 16700, Note_off_c, 2, 38, 100
4, 16704, Note_on_c, 2, 43, 112
4, 16764, Note_off_c, 2, 43, 100
4, 16896, Note_on_c, 2, 40, 112
4, 16956, Note_off_c, 2, 40, 100
4, 17088, Note_on_c, 2, 45, 112
4, 17148, Note_off_c, 2, 45, 100
4, 17280, Note_on_c, 2, 38, 112
4, 17372, Note_off_c, 2, 38, 100
4, 17376, Note_on_c, 2, 42, 112
4, 17468, Note_off_c, 2, 42, 100
4, 17472, Note_on_c, 2, 45, 112
4, 17564, Note_off_c, 2, 45, 100
4, 17568, Note_on_c, 2, 50, 112
4, 17660, Note_off_c, 2, 50, 100
4, 17664, Note_on_c, 2, 45, 112
4, 17756, Note_off_c, 2, 45, 100
4, 17760, Note_on_c, 2, 42, 112
4, 17852, Note_off_c, 2, 42, 100
4, 17856, Note_on_c, 2, 38, 112
4, 18240, Note_off_c, 2, 38, 100
4, 18432, Note_on_c, 2, 50, 112
4, 18576, Note_off_c, 2, 50, 100
4, 18624, Note_on_c, 2, 54, 112
4, 18768, Note_off_c, 2, 54, 100
4, 18816, Note_on_c, 2, 57, 112
4, 18960, Note_off_c, 2, 57, 100
4, 19008, Note_on_c, 2, 62, 112
4, 19152, Note_off_c, 2, 62, 100
4, 19200, Note_on_c, 2, 60, 112
4, 19292, Note_off_c, 2, 60, 100
4, 19296, Note_on_c, 2, 59, 112
4, 19388, Note_off_c, 2, 59, 100
4, 19392, Note_on_c, 2, 57, 112
4, 19484, Note_off_c, 2, 57, 100
4, 19488, Note_on_c, 2, 55, 112
4, 19580, Note_off_c, 2, 55, 100
4, 19584, Note_on_c, 2, 54, 112
4, 19728, Note_off_c, 2, 54, 100
4, 19776, Note_on_c, 2, 57, 112
4, 19920, Note_off_c, 2, 57, 100
4, 19968, Note_on_c, 2, 50, 112
4, 20112, Note_off_c, 2, 50, 100
4, 20160, Note_on_c, 2, 55, 112
4, 20304, Note_off_c, 2, 55, 100
4, 20352, Note_on_c, 2, 57, 112
4, 20496, Note_off_c, 2, 57, 100
4, 20544, Note_on_c, 2, 59, 112
4, 20688, Note_off_c, 2, 59, 100
4, 20736, Note_on_c, 2, 60, 112
4, 20828, Note_off_c, 2, 60, 100
4, 20832, Note_on_c, 2, 62, 112
4, 20924, Note_off_c, 2, 62, 100
4, 20928, Note_on_c, 2, 60, 112
4, 21020, Note_off_c, 2, 60, 100
4, 21024, Note_on_c, 2, 59, 112
4, 21116, Note_off_c, 2, 59, 100
4, 21120, Note_on_c, 2, 57, 112
4, 21212, Note_off_c, 2, 57, 100
4, 21216, Note_on_c, 2, 55, 112
4, 21308, Note_off_c, 2, 55, 100
4, 21312, Note_on_c, 2, 54, 112
4, 21404, Note_off_c, 2, 54, 100
4, 21408, Note_on_c, 2, 52, 112
4, 21500, Note_off_c, 2, 52, 100
4, 21504, Note_on_c, 2, 54, 112
4, 21596, Note_off_c, 2, 54, 100
4, 21600, Note_on_c, 2, 55, 112
4, 21692, Note_off_c, 2, 55, 100
4, 21696, Note_on_c, 2, 57, 112
4, 21788, Note_off_c, 2, 57, 100
4, 21792, Note_on_c, 2, 54, 112
4, 21884, Note_off_c, 2, 54, 100
4, 21888, Note_on_c, 2, 59, 112
4, 21948, Note_off_c, 2, 59, 100
4, 22080, Note_on_c, 2, 54, 112
4, 22224, Note_off_c, 2, 54, 100
4, 22272, Note_on_c, 2, 55, 112
4, 22416, Note_off_c, 2, 55, 100
4, 22464, Note_on_c, 2, 57, 112
4, 22556, Note_off_c, 2, 57, 100
4, 22560, Note_on_c, 2, 60, 112
4, 22652, Note_off_c, 2, 60, 100
4, 22656, Note_on_c, 2, 59, 112
4, 22748, Note_off_c, 2, 59, 100
4, 22752, Note_on_c, 2, 57, 112
4, 22844, Note_off_c, 2, 57, 100
4, 22848, Note_on_c, 2, 55, 112
4, 22940, Note_off_c, 2, 55, 100
4, 22944, Note_on_c, 2, 54, 112
4, 23008, Note_off_c, 2, 54, 100
4, 23040, Note_on_c, 2, 55, 112
4, 23132, Note_off_c, 2, 55, 100
4, 23136, Note_on_c, 2, 57, 112
4, 23228, Note_off_c, 2, 57, 100
4, 23232, Note_on_c, 2, 55, 112
4, 23324, Note_off_c, 2, 55, 100
4, 23328, Note_on_c, 2, 54, 112
4, 23420, Note_off_c, 2, 54, 100
4, 23424, Note_on_c, 2, 52, 112
4, 23516, Note_off_c, 2, 52, 100
4, 23520, Note_on_c, 2, 50, 112
4, 23612, Note_off_c, 2, 50, 100
4, 23616, Note_on_c, 2, 48, 112
4, 23708, Note_off_c, 2, 48, 100
4, 23712, Note_on_c, 2, 47, 112
4, 23804, Note_off_c, 2, 47, 100
4, 23808, Note_on_c, 2, 45, 112
4, 23900, Note_off_c, 2, 45, 100
4, 23904, Note_on_c, 2, 47, 112
4, 23996, Note_off_c, 2, 47, 100
4, 24000, Note_on_c, 2, 48, 112
4, 24092, Note_off_c, 2, 48, 100
4, 24096, Note_on_c, 2, 45, 112
4, 24188, Note_off_c, 2, 45, 100
4, 24192, Note_on_c, 2, 47, 112
4, 24252, Note_off_c, 2, 47, 100
4, 24384, Note_on_c, 2, 54, 112
4, 24528, Note_off_c, 2, 54, 100
4, 24576, Note_on_c, 2, 59, 112
4, 24764, Note_off_c, 2, 59, 100
4, 24960, Note_on_c, 2, 55, 112
4, 25104, Note_off_c, 2, 55, 100
4, 25152, Note_on_c, 2, 52, 112
4, 25296, Note_off_c, 2, 52, 100
4, 25344, Note_on_c, 2, 60, 112
4, 25436, Note_off_c, 2, 60, 100
4, 25440, Note_on_c, 2, 62, 112
4, 25532, Note_off_c, 2, 62, 100
4, 25536, Note_on_c, 2, 60, 112
4, 25628, Note_off_c, 2, 60, 100
4, 25632, Note_on_c, 2, 59, 112
4, 25724, Note_off_c, 2, 59, 100
4, 25728, Note_on_c, 2, 57, 112
4, 25820, Note_off_c, 2, 57, 100
4, 25824, Note_on_c, 2, 55, 112
4, 25916, Note_off_c, 2, 55, 100
4, 25920, Note_on_c, 2, 54, 112
4, 26012, Note_off_c, 2, 54, 100
4, 26016, Note_on_c, 2, 52, 112
4, 26108, Note_off_c, 2, 52, 100
4, 26112, Note_on_c, 2, 54, 112
4, 26204, Note_off_c, 2, 54, 100
4, 26208, Note_on_c, 2, 59, 112
4, 26300, Note_off_c, 2, 59, 100
4, 26304, Note_on_c, 2, 57, 112
4, 26396, Note_off_c, 2, 57, 100
4, 26400, Note_on_c, 2, 59, 112
4, 26464, Note_off_c, 2, 59, 100
4, 26496, Note_on_c, 2, 52, 112
4, 26640, Note_off_c, 2, 52, 100
4, 26688, Note_on_c, 2, 55, 112
4, 26832, Note_off_c, 2, 55, 100
4, 26880, Note_on_c, 2, 59, 112
4, 27024, Note_off_c, 2, 59, 100
4, 27072, Note_on_c, 2, 64, 112
4, 27216, Note_off_c, 2, 64, 100
4, 27264, Note_on_c, 2, 52, 112
4, 27408, Note_off_c, 2, 52, 100
4, 27456, Note_on_c, 2, 50, 112
4, 27600, Note_off_c, 2, 50, 100
4, 27648, Note_on_c, 2, 48, 112
4, 27708, Note_off_c, 2, 48, 100
4, 27840, Note_on_c, 2, 60, 112
4, 27984, Note_off_c, 2, 60, 100
4, 28032, Note_on_c, 2, 59, 112
4, 28176, Note_off_c, 2, 59, 100
4, 28224, Note_on_c, 2, 57, 112
4, 28796, Note_off_c, 2, 57, 100
4, 28992, Note_on_c, 2, 60, 112
4, 29052, Note_off_c, 2, 60, 100
4, 29184, Note_on_c, 2, 57, 112
4, 29244, Note_off_c, 2, 57, 100
4, 29376, Note_on_c, 2, 54, 112
4, 29436, Note_off_c, 2, 54, 100
4, 29568, Note_on_c, 2, 50, 112
4, 29628, Note_off_c, 2, 50, 100
4, 29760, Note_on_c, 2, 62, 112
4, 29820, Note_off_c, 2, 62, 100
4, 29952, Note_on_c, 2, 55, 112
4, 30044, Note_off_c, 2, 55, 100
4, 30048, Note_on_c, 2, 57, 112
4, 30140, Note_off_c, 2, 57, 100
4, 30144, Note_on_c, 2, 55, 112
4, 30236, Note_off_c, 2, 55, 100
4, 30240, Note_on_c, 2, 53, 112
4, 30332, Note_off_c, 2, 53, 100
4, 30336, Note_on_c, 2, 52, 112
4, 30428, Note_off_c, 2, 52, 100
4, 30432, Note_on_c, 2, 50, 112
4, 30524, Note_off_c, 2, 50, 100
4, 30528, Note_on_c, 2, 48, 112
4, 30672, Note_off_c, 2, 48, 100
4, 30720, Note_on_c, 2, 52, 112
4, 30864, Note_off_c, 2, 52, 100
4, 30912, Note_on_c, 2, 48, 112
4, 31056, Note_off_c, 2, 48, 100
4, 31104, Note_on_c, 2, 45, 112
4, 31196, Note_off_c, 2, 45, 100
4, 31200, Note_on_c, 2, 47, 112
4, 31292, Note_off_c, 2, 47, 100
4, 31296, Note_on_c, 2, 48, 112
4, 31388, Note_off_c, 2, 48, 100
4, 31392, Note_on_c, 2, 45, 112
4, 31484, Note_off_c, 2, 45, 100
4, 31488, Note_on_c, 2, 47, 112
4, 31580, Note_off_c, 2, 47, 100
4, 31584, Note_on_c, 2, 48, 112
4, 31676, Note_off_c, 2, 48, 100
4, 31680, Note_on_c, 2, 50, 112
4, 31868, Note_off_c, 2, 50, 100
4, 31872, Note_on_c, 2, 38, 112
4, 31932, Note_off_c, 2, 38, 100
4, 32064, Note_on_c, 2, 54, 112
4, 32124, Note_off_c, 2, 54, 100
4, 32256, Note_on_c, 2, 55, 112
4, 32348, Note_off_c, 2, 55, 100
4, 32352, Note_on_c, 2, 57, 112
4, 32444, Note_off_c, 2, 57, 100
4, 32448, Note_on_c, 2, 59, 112
4, 32540, Note_off_c, 2, 59, 100
4, 32544, Note_on_c, 2, 55, 112
4, 32636, Note_off_c, 2, 55, 100
4, 32640, Note_on_c, 2, 57, 112
4, 32732, Note_off_c, 2, 57, 100
4, 32736, Note_on_c, 2, 59, 112
4, 32828, Note_off_c, 2, 59, 100
4, 32832, Note_on_c, 2, 60, 112
4, 32976, Note_off_c, 2, 60, 100
4, 33024, Note_on_c, 2, 64, 112
4, 33168, Note_off_c, 2, 64, 100
4, 33216, Note_on_c, 2, 57, 112
4, 33360, Note_off_c, 2, 57, 100
4, 33408, Note_on_c, 2, 62, 112
4, 33500, Note_off_c, 2, 62, 100
4, 33504, Note_on_c, 2, 60, 112
4, 33596, Note_off_c, 2, 60, 100
4, 33600, Note_on_c, 2, 59, 112
4, 33692, Note_off_c, 2, 59, 100
4, 33696, Note_on_c, 2, 62, 112
4, 33788, Note_off_c, 2, 62, 100
4, 33792, Note_on_c, 2, 60, 112
4, 33884, Note_off_c, 2, 60, 100
4, 33888, Note_on_c, 2, 59, 112
4, 33952, Note_off_c, 2, 59, 100
4, 33984, Note_on_c, 2, 60, 112
4, 34076, Note_off_c, 2, 60, 100
4, 34080, Note_on_c, 2, 59, 112
4, 34172, Note_off_c, 2, 59, 100
4, 34176, Note_on_c, 2, 57, 112
4, 34268, Note_off_c, 2, 57, 100
4, 34272, Note_on_c, 2, 55, 112
4, 34364, Note_off_c, 2, 55, 100
4, 34368, Note_on_c, 2, 54, 112
4, 34460, Note_off_c, 2, 54, 100
4, 34464, Note_on_c, 2, 57, 112
4, 34528, Note_off_c, 2, 57, 100
4, 34560, Note_on_c, 2, 55, 112
4, 34652, Note_off_c, 2, 55, 100
4, 34656, Note_on_c, 2, 54, 112
4, 34748, Note_off_c, 2, 54, 100
4, 34752, Note_on_c, 2, 52, 112
4, 34844, Note_off_c, 2, 52, 100
4, 34848, Note_on_c, 2, 50, 112
4, 34940, Note_off_c, 2, 50, 100
4, 34944, Note_on_c, 2, 48, 112
4, 35036, Note_off_c, 2, 48, 100
4, 35040, Note_on_c, 2, 47, 112
4, 35104, Note_off_c, 2, 47, 100
4, 35136, Note_on_c, 2, 48, 112
4, 35280, Note_off_c, 2, 48, 100
4, 35328, Note_on_c, 2, 45, 112
4, 35472, Note_off_c, 2, 45, 100
4, 35520, Note_on_c, 2, 50, 112
4, 35664, Note_off_c, 2, 50, 100
4, 35712, Note_on_c, 2, 43, 112
4, 35804, Note_off_c, 2, 43, 100
4, 35808, Note_on_c, 2, 47, 112
4, 35900, Note_off_c, 2, 47, 100
4, 35904, Note_on_c, 2, 50, 112
4, 35996, Note_off_c, 2, 50, 100
4, 36000, Note_on_c, 2, 55, 112
4, 36092, Note_off_c, 2, 55, 100
4, 36096, Note_on_c, 2, 50, 112
4, 36188, Note_off_c, 2, 50, 100
4, 36192, Note_on_c, 2, 47, 112
4, 36284, Note_off_c, 2, 47, 100
4, 36288, Note_on_c, 2, 43, 112
4, 36672, Note_off_c, 2, 43, 100
4, 36672, End_track
5, 0, Start_track
5, 0, Title_t, "Var.III, Canone all'unisono: Andante, con moto"
5, 0, Control_c, 3, 0, 0
5, 0, Program_c, 3, 6
5, 0, Control_c, 3, 7, 0
5, 0, Key_signature, 1, "major"
5, 36288, Note_on_c, 3, 43, 1
5, 36864, Note_off_c, 3, 43, 64
5, 36864, End_track
6, 0, Start_track
6, 0, Title_t, "Bruno de Giusti"
6, 0, Control_c, 3, 0, 0
6, 0, Program_c, 3, 6
6, 0, Control_c, 3, 7, 0
6, 0, Key_signature, 1, "major"
6, 0, End_track
7, 0, Start_track
7, 0, Title_t, "bdg@bruno-de-giusti.net"
7, 0, Control_c, 3, 0, 0
7, 0, Program_c, 3, 6
7, 0, Control_c, 3, 7, 0
7, 0, Key_signature, 1, "major"
7, 0, End_track
8, 0, Start_track
8, 0, Title_t, "www.bruno-de-giusti.net"
8, 0, Control_c, 3, 0, 0
8, 0, Program_c, 3, 6
8, 0, Control_c, 3, 7, 0
8, 0, Key_signature, 1, "major"
8, 0, End_track
9, 0, Start_track
9, 0, Title_t, "All rights reserved"
9, 0, Control_c, 3, 0, 0
9, 0, Program_c, 3, 6
9, 0, Control_c, 3, 7, 0
9, 0, Key_signature, 1, "major"
9, 0, End_track
10, 0, Start_track
10, 1, Copyright_t, "___________________________________________________\012\012KUNSTDERFUGE.COM LARGE CLASSICAL MIDI COLLECTION\012ONCLASSICAL BY ALESSANDRO SIMONETTO, PROPRIETOR\012___________________________________________________\012\012! Attention: this file is under copyright !\012\012(c)onclassical, (c)degiusti, 2010\012___________________________________________________\012\012NO ONE MAY REPUBLISH THIS FILE WITHOUT PERMISSION\012COMMERCIAL USES OF THIS FILE IS STRICTLY PROHIBITED\012___________________________________________________\012\012Files & contributor's list: http://kunstderfuge.com/\012Terms and conditions: http://kunstderfuge.com/notes.htm"
10, 1, End_track
0, 0, End_of_file