0, 0, Header, 1, 9, 384
1, 0, Start_track
1, 0, Time_signature, 4, 2, 96, 8
1, 0, Sequencer_specific, 03, 00, 00, 41
1, 0, Tempo, 500000
1, 0, End_track
2, 0, Start_track
2, 0, Title_t, " "
2, 0, Control_c, 0, 0, 0
2, 0, Program_c, 0, 0
2, 0, Key_signature, 0, "major"
2, 0, Control_c, 0, 7, 125
2, 18480, Note_on_c, 0, 69, 66
2, 19248, Note_off_c, 0, 69, 0
2, 19248, Note_on_c, 0, 74, 70
2, 20016, Note_off_c, 0, 74, 0
2, 20016, Note_on_c, 0, 72, 68
2, 20784, Note_off_c, 0, 72, 0
2, 20784, Note_on_c, 0, 69, 66
2, 21552, Note_off_c, 0, 69, 0
2, 21552, Note_on_c, 0, 68, 65
2, 22268, Note_off_c, 0, 68, 0
2, 22316, Note_on_c, 0, 69, 65
2, 22688, Note_off_c, 0, 69, 0
2, 22700, Note_on_c, 0, 71, 66
2, 23072, Note_off_c, 0, 71, 0
2, 23084, Note_on_c, 0, 72, 68
2, 24096, Note_off_c, 0, 72, 0
2, 24148, Note_on_c, 0, 74, 68
2, 24216, Note_off_c, 0, 74, 0
2, 24236, Note_on_c, 0, 72, 66
2, 24472, Note_off_c, 0, 72, 0
2, 24532, Note_on_c, 0, 71, 66
2, 24600, Note_off_c, 0, 71, 0
2, 24620, Note_on_c, 0, 69, 66
2, 27692, Note_off_c, 0, 69, 0
2, 27692, Note_on_c, 0, 62, 60
2, 30712, Note_off_c, 0, 62, 0
2, 30760, Note_on_c, 0, 62, 59
2, 31032, Note_off_c, 0, 62, 0
2, 31056, Note_on_c, 0, 61, 58
2, 31128, Note_off_c, 0, 61, 0
2, 31144, Note_on_c, 0, 62, 59
2, 31384, Note_off_c, 0, 62, 0
2, 31440, Note_on_c, 0, 65, 61
2, 31512, Note_off_c, 0, 65, 0
2, 31528, Note_on_c, 0, 64, 60
2, 31768, Note_off_c, 0, 64, 0
2, 31824, Note_on_c, 0, 62, 59
2, 31896, Note_off_c, 0, 62, 0
2, 31912, Note_on_c, 0, 68, 63
2, 32152, Note_off_c, 0, 68, 0
2, 32208, Note_on_c, 0, 69, 64
2, 32280, Note_off_c, 0, 69, 0
2, 32296, Note_on_c, 0, 71, 65
2, 32536, Note_off_c, 0, 71, 0
2, 32592, Note_on_c, 0, 72, 66
2, 32664, Note_off_c, 0, 72, 0
2, 32680, Note_on_c, 0, 74, 68
2, 32920, Note_off_c, 0, 74, 0
2, 32976, Note_on_c, 0, 65, 62
2, 33308, Note_off_c, 0, 65, 0
2, 33360, Note_on_c, 0, 64, 61
2, 33400, Note_off_c, 0, 64, 0
2, 33408, Note_on_c, 0, 62, 60
2, 33444, Note_off_c, 0, 62, 0
2, 33452, Note_on_c, 0, 61, 58
2, 33688, Note_off_c, 0, 61, 0
2, 33744, Note_on_c, 0, 62, 59
2, 33816, Note_off_c, 0, 62, 0
2, 33836, Note_on_c, 0, 61, 59
2, 34208, Note_off_c, 0, 61, 0
2, 38440, Note_on_c, 0, 69, 66
2, 39208, Note_off_c, 0, 69, 0
2, 39208, Note_on_c, 0, 74, 70
2, 39976, Note_off_c, 0, 74, 0
2, 39976, Note_on_c, 0, 72, 68
2, 40744, Note_off_c, 0, 72, 0
2, 40744, Note_on_c, 0, 69, 66
2, 41512, Note_off_c, 0, 69, 0
2, 41512, Note_on_c, 0, 68, 65
2, 42228, Note_off_c, 0, 68, 0
2, 42280, Note_on_c, 0, 69, 65
2, 42652, Note_off_c, 0, 69, 0
2, 42664, Note_on_c, 0, 71, 66
2, 43036, Note_off_c, 0, 71, 0
2, 43048, Note_on_c, 0, 72, 68
2, 44060, Note_off_c, 0, 72, 0
2, 44112, Note_on_c, 0, 74, 68
2, 44180, Note_off_c, 0, 74, 0
2, 44200, Note_on_c, 0, 72, 66
2, 44436, Note_off_c, 0, 72, 0
2, 44496, Note_on_c, 0, 71, 66
2, 44564, Note_off_c, 0, 71, 0
2, 44584, Note_on_c, 0, 72, 67
2, 44952, Note_off_c, 0, 72, 0
2, 44968, Note_on_c, 0, 81, 76
2, 45596, Note_off_c, 0, 81, 0
2, 45644, Note_on_c, 0, 79, 72
2, 45716, Note_off_c, 0, 79, 0
2, 45736, Note_on_c, 0, 77, 70
2, 45972, Note_off_c, 0, 77, 0
2, 46028, Note_on_c, 0, 76, 70
2, 46356, Note_off_c, 0, 76, 0
2, 46412, Note_on_c, 0, 77, 71
2, 46484, Note_off_c, 0, 77, 0
2, 46504, Note_on_c, 0, 76, 69
2, 46768, Note_off_c, 0, 76, 0
2, 46796, Note_on_c, 0, 74, 69
2, 47128, Note_off_c, 0, 74, 0
2, 47180, Note_on_c, 0, 76, 70
2, 47248, Note_off_c, 0, 76, 0
2, 47268, Note_on_c, 0, 74, 68
2, 47508, Note_off_c, 0, 74, 0
2, 47564, Note_on_c, 0, 73, 67
2, 47632, Note_off_c, 0, 73, 0
2, 47652, Note_on_c, 0, 74, 70
2, 48420, Note_off_c, 0, 74, 0
2, 51020, Note_on_c, 0, 81, 74
2, 51088, Note_off_c, 0, 81, 0
2, 51108, Note_on_c, 0, 80, 73
2, 51344, Note_off_c, 0, 80, 0
2, 51404, Note_on_c, 0, 81, 74
2, 51472, Note_off_c, 0, 81, 0
2, 51492, Note_on_c, 0, 74, 69
2, 51864, Note_off_c, 0, 74, 0
2, 51876, Note_on_c, 0, 79, 73
2, 52496, Note_off_c, 0, 79, 0
2, 52552, Note_on_c, 0, 77, 71
2, 52624, Note_off_c, 0, 77, 0
2, 52644, Note_on_c, 0, 76, 69
2, 52880, Note_off_c, 0, 76, 0
2, 52936, Note_on_c, 0, 74, 68
2, 53008, Note_off_c, 0, 74, 0
2, 53028, Note_on_c, 0, 76, 70
2, 53400, Note_off_c, 0, 76, 0
2, 53412, Note_on_c, 0, 81, 75
2, 53744, Note_off_c, 0, 81, 0
2, 53796, Note_on_c, 0, 74, 69
2, 54168, Note_off_c, 0, 74, 0
2, 54180, Note_on_c, 0, 76, 70
2, 54508, Note_off_c, 0, 76, 0
2, 54564, Note_on_c, 0, 64, 61
2, 54936, Note_off_c, 0, 64, 0
2, 54948, Note_on_c, 0, 65, 62
2, 55320, Note_off_c, 0, 65, 0
2, 55332, Note_on_c, 0, 64, 61
2, 55660, Note_off_c, 0, 64, 0
2, 55716, Note_on_c, 0, 76, 71
2, 56344, Note_off_c, 0, 76, 0
2, 56392, Note_on_c, 0, 74, 68
2, 56464, Note_off_c, 0, 74, 0
2, 56484, Note_on_c, 0, 72, 66
2, 56720, Note_off_c, 0, 72, 0
2, 56776, Note_on_c, 0, 71, 66
2, 56848, Note_off_c, 0, 71, 0
2, 56864, Note_on_c, 0, 72, 66
2, 57104, Note_off_c, 0, 72, 0
2, 57160, Note_on_c, 0, 74, 68
2, 57232, Note_off_c, 0, 74, 0
2, 57248, Note_on_c, 0, 76, 71
2, 57880, Note_off_c, 0, 76, 0
2, 57928, Note_on_c, 0, 77, 71
2, 58000, Note_off_c, 0, 77, 0
2, 58016, Note_on_c, 0, 76, 69
2, 58256, Note_off_c, 0, 76, 0
2, 58312, Note_on_c, 0, 74, 68
2, 58384, Note_off_c, 0, 74, 0
2, 58400, Note_on_c, 0, 81, 75
2, 58772, Note_off_c, 0, 81, 0
2, 61768, Note_on_c, 0, 76, 70
2, 61836, Note_off_c, 0, 76, 0
2, 61856, Note_on_c, 0, 75, 69
2, 62092, Note_off_c, 0, 75, 0
2, 62152, Note_on_c, 0, 76, 70
2, 62220, Note_off_c, 0, 76, 0
2, 62240, Note_on_c, 0, 69, 65
2, 62612, Note_off_c, 0, 69, 0
2, 62624, Note_on_c, 0, 74, 69
2, 63244, Note_off_c, 0, 74, 0
2, 63304, Note_on_c, 0, 72, 66
2, 63372, Note_off_c, 0, 72, 0
2, 63392, Note_on_c, 0, 70, 65
2, 63628, Note_off_c, 0, 70, 0
2, 63688, Note_on_c, 0, 69, 64
2, 63756, Note_off_c, 0, 69, 0
2, 63776, Note_on_c, 0, 70, 66
2, 64812, Note_off_c, 0, 70, 0
2, 64836, Note_on_c, 0, 69, 64
2, 64908, Note_off_c, 0, 69, 0
2, 64928, Note_on_c, 0, 67, 62
2, 65164, Note_off_c, 0, 67, 0
2, 65220, Note_on_c, 0, 65, 61
2, 65292, Note_off_c, 0, 65, 0
2, 65312, Note_on_c, 0, 67, 64
2, 66348, Note_off_c, 0, 67, 0
2, 66372, Note_on_c, 0, 65, 61
2, 66444, Note_off_c, 0, 65, 0
2, 66464, Note_on_c, 0, 67, 62
2, 66700, Note_off_c, 0, 67, 0
2, 66756, Note_on_c, 0, 69, 64
2, 66828, Note_off_c, 0, 69, 0
2, 66848, Note_on_c, 0, 70, 65
2, 67084, Note_off_c, 0, 70, 0
2, 67140, Note_on_c, 0, 72, 66
2, 67212, Note_off_c, 0, 72, 0
2, 67232, Note_on_c, 0, 74, 68
2, 67468, Note_off_c, 0, 74, 0
2, 67524, Note_on_c, 0, 76, 70
2, 67596, Note_off_c, 0, 76, 0
2, 67616, Note_on_c, 0, 77, 72
2, 68384, Note_off_c, 0, 77, 0
2, 68384, Note_on_c, 0, 84, 79
2, 69148, Note_off_c, 0, 84, 0
2, 69148, Note_on_c, 0, 81, 76
2, 69916, Note_off_c, 0, 81, 0
2, 69916, Note_on_c, 0, 77, 72
2, 70684, Note_off_c, 0, 77, 0
2, 70684, Note_on_c, 0, 76, 71
2, 71400, Note_off_c, 0, 76, 0
2, 71452, Note_on_c, 0, 77, 71
2, 71824, Note_off_c, 0, 77, 0
2, 71836, Note_on_c, 0, 79, 73
2, 72208, Note_off_c, 0, 79, 0
2, 72220, Note_on_c, 0, 81, 76
2, 73232, Note_off_c, 0, 81, 0
2, 73284, Note_on_c, 0, 82, 75
2, 73352, Note_off_c, 0, 82, 0
2, 73372, Note_on_c, 0, 81, 74
2, 73608, Note_off_c, 0, 81, 0
2, 73668, Note_on_c, 0, 79, 72
2, 73736, Note_off_c, 0, 79, 0
2, 73756, Note_on_c, 0, 78, 73
2, 74472, Note_off_c, 0, 78, 0
2, 74524, Note_on_c, 0, 79, 73
2, 74896, Note_off_c, 0, 79, 0
2, 74908, Note_on_c, 0, 81, 75
2, 75528, Note_off_c, 0, 81, 0
2, 75584, Note_on_c, 0, 74, 68
2, 75656, Note_off_c, 0, 74, 0
2, 75676, Note_on_c, 0, 79, 72
2, 75912, Note_off_c, 0, 79, 0
2, 75968, Note_on_c, 0, 77, 71
2, 76040, Note_off_c, 0, 77, 0
2, 76060, Note_on_c, 0, 75, 69
2, 76296, Note_off_c, 0, 75, 0
2, 76352, Note_on_c, 0, 74, 68
2, 76424, Note_off_c, 0, 74, 0
2, 76444, Note_on_c, 0, 72, 66
2, 76680, Note_off_c, 0, 72, 0
2, 76736, Note_on_c, 0, 70, 65
2, 76808, Note_off_c, 0, 70, 0
2, 76824, Note_on_c, 0, 69, 66
2, 77592, Note_off_c, 0, 69, 0
2, 83264, Note_on_c, 0, 79, 72
2, 83332, Note_off_c, 0, 79, 0
2, 83352, Note_on_c, 0, 77, 70
2, 83588, Note_off_c, 0, 77, 0
2, 83648, Note_on_c, 0, 75, 69
2, 83716, Note_off_c, 0, 75, 0
2, 83736, Note_on_c, 0, 74, 68
2, 83972, Note_off_c, 0, 74, 0
2, 84032, Note_on_c, 0, 72, 66
2, 84100, Note_off_c, 0, 72, 0
2, 84120, Note_on_c, 0, 70, 65
2, 84356, Note_off_c, 0, 70, 0
2, 84416, Note_on_c, 0, 69, 64
2, 84484, Note_off_c, 0, 69, 0
2, 84504, Note_on_c, 0, 70, 66
2, 85272, Note_off_c, 0, 70, 0
2, 85272, Note_on_c, 0, 75, 71
2, 86304, Note_off_c, 0, 75, 0
2, 86332, Note_on_c, 0, 74, 68
2, 86404, Note_off_c, 0, 74, 0
2, 86424, Note_on_c, 0, 72, 66
2, 86660, Note_off_c, 0, 72, 0
2, 86716, Note_on_c, 0, 74, 68
2, 86788, Note_off_c, 0, 74, 0
2, 86808, Note_on_c, 0, 67, 63
2, 87176, Note_off_c, 0, 67, 0
2, 87192, Note_on_c, 0, 72, 67
2, 87944, Note_off_c, 0, 72, 0
2, 87960, Note_on_c, 0, 70, 65
2, 88328, Note_off_c, 0, 70, 0
2, 88340, Note_on_c, 0, 69, 66
2, 89376, Note_off_c, 0, 69, 0
2, 89404, Note_on_c, 0, 77, 71
2, 89472, Note_off_c, 0, 77, 0
2, 89492, Note_on_c, 0, 79, 72
2, 89728, Note_off_c, 0, 79, 0
2, 89788, Note_on_c, 0, 77, 71
2, 89856, Note_off_c, 0, 77, 0
2, 89876, Note_on_c, 0, 76, 69
2, 90112, Note_off_c, 0, 76, 0
2, 90172, Note_on_c, 0, 74, 68
2, 90240, Note_off_c, 0, 74, 0
2, 90260, Note_on_c, 0, 73, 67
2, 90496, Note_off_c, 0, 73, 0
2, 90556, Note_on_c, 0, 74, 68
2, 90624, Note_off_c, 0, 74, 0
2, 90644, Note_on_c, 0, 73, 67
2, 90880, Note_off_c, 0, 73, 0
2, 90940, Note_on_c, 0, 81, 74
2, 91008, Note_off_c, 0, 81, 0
2, 91028, Note_on_c, 0, 82, 75
2, 91264, Note_off_c, 0, 82, 0
2, 91324, Note_on_c, 0, 81, 74
2, 91392, Note_off_c, 0, 81, 0
2, 91412, Note_on_c, 0, 79, 72
2, 91648, Note_off_c, 0, 79, 0
2, 91708, Note_on_c, 0, 77, 71
2, 91776, Note_off_c, 0, 77, 0
2, 91796, Note_on_c, 0, 76, 69
2, 92032, Note_off_c, 0, 76, 0
2, 92092, Note_on_c, 0, 77, 71
2, 92160, Note_off_c, 0, 77, 0
2, 92180, Note_on_c, 0, 79, 72
2, 92416, Note_off_c, 0, 79, 0
2, 92476, Note_on_c, 0, 77, 71
2, 92544, Note_off_c, 0, 77, 0
2, 92564, Note_on_c, 0, 76, 69
2, 92832, Note_off_c, 0, 76, 0
2, 92860, Note_on_c, 0, 74, 69
2, 93188, Note_off_c, 0, 74, 0
2, 93244, Note_on_c, 0, 76, 70
2, 93312, Note_off_c, 0, 76, 0
2, 93332, Note_on_c, 0, 74, 68
2, 93568, Note_off_c, 0, 74, 0
2, 93628, Note_on_c, 0, 73, 67
2, 93696, Note_off_c, 0, 73, 0
2, 93716, Note_on_c, 0, 74, 69
2, 94088, Note_off_c, 0, 74, 0
2, 94868, Note_on_c, 0, 70, 65
2, 95516, Note_off_c, 0, 70, 0
2, 95544, Note_on_c, 0, 70, 65
2, 95616, Note_off_c, 0, 70, 0
2, 95636, Note_on_c, 0, 69, 64
2, 95872, Note_off_c, 0, 69, 0
2, 95928, Note_on_c, 0, 67, 63
2, 96000, Note_off_c, 0, 67, 0
2, 96020, Note_on_c, 0, 65, 61
2, 96256, Note_off_c, 0, 65, 0
2, 96312, Note_on_c, 0, 64, 60
2, 96384, Note_off_c, 0, 64, 0
2, 96400, Note_on_c, 0, 62, 59
2, 96640, Note_off_c, 0, 62, 0
2, 96696, Note_on_c, 0, 61, 58
2, 96768, Note_off_c, 0, 61, 0
2, 96784, Note_on_c, 0, 62, 59
2, 97024, Note_off_c, 0, 62, 0
2, 97080, Note_on_c, 0, 74, 68
2, 97152, Note_off_c, 0, 74, 0
2, 97168, Note_on_c, 0, 76, 69
2, 97408, Note_off_c, 0, 76, 0
2, 97464, Note_on_c, 0, 77, 71
2, 97536, Note_off_c, 0, 77, 0
2, 97552, Note_on_c, 0, 79, 74
2, 98692, Note_off_c, 0, 79, 0
2, 98704, Note_on_c, 0, 77, 70
2, 98944, Note_off_c, 0, 77, 0
2, 99000, Note_on_c, 0, 76, 70
2, 99072, Note_off_c, 0, 76, 0
2, 99088, Note_on_c, 0, 77, 71
2, 99460, Note_off_c, 0, 77, 0
2, 99472, Note_on_c, 0, 81, 75
2, 99844, Note_off_c, 0, 81, 0
2, 99856, Note_on_c, 0, 74, 70
2, 100576, Note_off_c, 0, 74, 0
2, 100624, Note_on_c, 0, 76, 70
2, 100996, Note_off_c, 0, 76, 0
2, 101008, Note_on_c, 0, 78, 72
2, 101380, Note_off_c, 0, 78, 0
2, 101392, Note_on_c, 0, 79, 74
2, 102492, Note_off_c, 0, 79, 0
2, 102544, Note_on_c, 0, 74, 69
2, 103164, Note_off_c, 0, 74, 0
2, 103224, Note_on_c, 0, 76, 70
2, 103292, Note_off_c, 0, 76, 0
2, 103312, Note_on_c, 0, 74, 68
2, 103580, Note_off_c, 0, 74, 0
2, 103608, Note_on_c, 0, 72, 67
2, 103936, Note_off_c, 0, 72, 0
2, 103992, Note_on_c, 0, 74, 68
2, 104060, Note_off_c, 0, 74, 0
2, 104080, Note_on_c, 0, 72, 66
2, 104316, Note_off_c, 0, 72, 0
2, 104376, Note_on_c, 0, 70, 65
2, 104728, Note_off_c, 0, 70, 0
2, 104760, Note_on_c, 0, 70, 65
2, 104828, Note_off_c, 0, 70, 0
2, 104848, Note_on_c, 0, 69, 64
2, 105084, Note_off_c, 0, 69, 0
2, 105144, Note_on_c, 0, 67, 63
2, 105212, Note_off_c, 0, 67, 0
2, 105232, Note_on_c, 0, 65, 61
2, 105468, Note_off_c, 0, 65, 0
2, 105524, Note_on_c, 0, 72, 66
2, 105596, Note_off_c, 0, 72, 0
2, 105616, Note_on_c, 0, 70, 65
2, 105852, Note_off_c, 0, 70, 0
2, 105908, Note_on_c, 0, 69, 64
2, 105980, Note_off_c, 0, 69, 0
2, 106000, Note_on_c, 0, 68, 65
2, 106628, Note_off_c, 0, 68, 0
2, 106676, Note_on_c, 0, 68, 63
2, 106748, Note_off_c, 0, 68, 0
2, 106768, Note_on_c, 0, 69, 66
2, 107392, Note_off_c, 0, 69, 0
2, 107444, Note_on_c, 0, 69, 64
2, 107516, Note_off_c, 0, 69, 0
2, 107536, Note_on_c, 0, 74, 68
2, 107772, Note_off_c, 0, 74, 0
2, 107828, Note_on_c, 0, 76, 70
2, 107900, Note_off_c, 0, 76, 0
2, 107920, Note_on_c, 0, 77, 71
2, 108288, Note_off_c, 0, 77, 0
2, 108304, Note_on_c, 0, 76, 71
2, 109336, Note_off_c, 0, 76, 0
2, 109364, Note_on_c, 0, 81, 74
2, 109436, Note_off_c, 0, 81, 0
2, 109456, Note_on_c, 0, 80, 73
2, 109688, Note_off_c, 0, 80, 0
2, 109748, Note_on_c, 0, 81, 74
2, 109816, Note_off_c, 0, 81, 0
2, 109836, Note_on_c, 0, 76, 69
2, 110072, Note_off_c, 0, 76, 0
2, 110132, Note_on_c, 0, 78, 72
2, 110200, Note_off_c, 0, 78, 0
2, 110220, Note_on_c, 0, 79, 73
2, 110976, Note_off_c, 0, 79, 0
2, 110988, Note_on_c, 0, 77, 72
2, 111704, Note_off_c, 0, 77, 0
2, 111756, Note_on_c, 0, 76, 69
2, 111992, Note_off_c, 0, 76, 0
2, 112052, Note_on_c, 0, 74, 68
2, 112120, Note_off_c, 0, 74, 0
2, 112140, Note_on_c, 0, 73, 68
2, 112512, Note_off_c, 0, 73, 0
2, 112524, Note_on_c, 0, 76, 70
2, 112896, Note_off_c, 0, 76, 0
2, 112908, Note_on_c, 0, 69, 66
2, 114048, Note_off_c, 0, 69, 0
2, 114060, Note_on_c, 0, 62, 60
2, 114776, Note_off_c, 0, 62, 0
2, 114828, Note_on_c, 0, 67, 63
2, 115448, Note_off_c, 0, 67, 0
2, 115504, Note_on_c, 0, 70, 65
2, 115576, Note_off_c, 0, 70, 0
2, 115596, Note_on_c, 0, 69, 64
2, 115864, Note_off_c, 0, 69, 0
2, 115888, Note_on_c, 0, 67, 63
2, 116220, Note_off_c, 0, 67, 0
2, 116272, Note_on_c, 0, 69, 64
2, 116344, Note_off_c, 0, 69, 0
2, 116364, Note_on_c, 0, 67, 62
2, 116600, Note_off_c, 0, 67, 0
2, 116656, Note_on_c, 0, 65, 61
2, 116984, Note_off_c, 0, 65, 0
2, 117040, Note_on_c, 0, 67, 63
2, 117112, Note_off_c, 0, 67, 0
2, 117132, Note_on_c, 0, 65, 61
2, 117400, Note_off_c, 0, 65, 0
2, 117424, Note_on_c, 0, 64, 61
2, 117756, Note_off_c, 0, 64, 0
2, 117808, Note_on_c, 0, 65, 61
2, 117880, Note_off_c, 0, 65, 0
2, 117896, Note_on_c, 0, 64, 60
2, 118136, Note_off_c, 0, 64, 0
2, 118192, Note_on_c, 0, 62, 59
2, 118520, Note_off_c, 0, 62, 0
2, 118576, Note_on_c, 0, 59, 57
2, 118648, Note_off_c, 0, 59, 0
2, 118664, Note_on_c, 0, 61, 58
2, 118904, Note_off_c, 0, 61, 0
2, 118960, Note_on_c, 0, 64, 60
2, 119032, Note_off_c, 0, 64, 0
2, 119048, Note_on_c, 0, 57, 55
2, 119288, Note_off_c, 0, 57, 0
2, 119344, Note_on_c, 0, 67, 63
2, 119416, Note_off_c, 0, 67, 0
2, 119432, Note_on_c, 0, 65, 61
2, 119672, Note_off_c, 0, 65, 0
2, 119728, Note_on_c, 0, 64, 60
2, 119800, Note_off_c, 0, 64, 0
2, 119816, Note_on_c, 0, 62, 60
2, 120584, Note_off_c, 0, 62, 0
2, 120584, Note_on_c, 0, 69, 66
2, 121352, Note_off_c, 0, 69, 0
2, 121352, Note_on_c, 0, 65, 62
2, 122120, Note_off_c, 0, 65, 0
2, 122120, Note_on_c, 0, 62, 60
2, 122888, Note_off_c, 0, 62, 0
2, 122888, Note_on_c, 0, 61, 60
2, 123604, Note_off_c, 0, 61, 0
2, 123656, Note_on_c, 0, 62, 60
2, 124028, Note_off_c, 0, 62, 0
2, 124040, Note_on_c, 0, 64, 61
2, 124412, Note_off_c, 0, 64, 0
2, 124424, Note_on_c, 0, 65, 62
2, 125436, Note_off_c, 0, 65, 0
2, 125488, Note_on_c, 0, 67, 63
2, 125556, Note_off_c, 0, 67, 0
2, 125576, Note_on_c, 0, 65, 61
2, 125812, Note_off_c, 0, 65, 0
2, 125872, Note_on_c, 0, 64, 60
2, 125940, Note_off_c, 0, 64, 0
2, 125960, Note_on_c, 0, 62, 60
2, 129500, Note_off_c, 0, 62, 0
2, 129500, End_track
3, 0, Start_track
3, 0, Title_t, "J.S. Bach's KDF"
3, 0, Control_c, 1, 0, 0
3, 0, Program_c, 1, 0
3, 0, Key_signature, 0, "major"
3, 0, Control_c, 1, 7, 125
3, 12336, Note_on_c, 1, 62, 65
3, 13104, Note_off_c, 1, 62, 0
3, 13104, Note_on_c, 1, 69, 71
3, 13872, Note_off_c, 1, 69, 0
3, 13872, Note_on_c, 1, 65, 68
3, 14640, Note_off_c, 1, 65, 0
3, 14640, Note_on_c, 1, 62, 65
3, 15408, Note_off_c, 1, 62, 0
3, 15408, Note_on_c, 1, 61, 65
3, 16124, Note_off_c, 1, 61, 0
3, 16176, Note_on_c, 1, 62, 65
3, 16548, Note_off_c, 1, 62, 0
3, 16560, Note_on_c, 1, 64, 66
3, 16932, Note_off_c, 1, 64, 0
3, 16944, Note_on_c, 1, 65, 68
3, 17956, Note_off_c, 1, 65, 0
3, 18008, Note_on_c, 1, 67, 68
3, 18076, Note_off_c, 1, 67, 0
3, 18096, Note_on_c, 1, 65, 66
3, 18332, Note_off_c, 1, 65, 0
3, 18392, Note_on_c, 1, 64, 66
3, 18460, Note_off_c, 1, 64, 0
3, 18480, Note_on_c, 1, 62, 64
3, 18716, Note_off_c, 1, 62, 0
3, 18776, Note_on_c, 1, 64, 66
3, 18844, Note_off_c, 1, 64, 0
3, 18864, Note_on_c, 1, 65, 66
3, 19100, Note_off_c, 1, 65, 0
3, 19156, Note_on_c, 1, 67, 68
3, 19228, Note_off_c, 1, 67, 0
3, 19248, Note_on_c, 1, 69, 71
3, 20280, Note_off_c, 1, 69, 0
3, 20308, Note_on_c, 1, 67, 68
3, 20380, Note_off_c, 1, 67, 0
3, 20400, Note_on_c, 1, 65, 66
3, 20664, Note_off_c, 1, 65, 0
3, 20692, Note_on_c, 1, 64, 66
3, 21024, Note_off_c, 1, 64, 0
3, 21076, Note_on_c, 1, 65, 66
3, 21148, Note_off_c, 1, 65, 0
3, 21168, Note_on_c, 1, 64, 65
3, 21404, Note_off_c, 1, 64, 0
3, 21460, Note_on_c, 1, 62, 64
3, 21812, Note_off_c, 1, 62, 0
3, 21844, Note_on_c, 1, 62, 64
3, 21912, Note_off_c, 1, 62, 0
3, 21932, Note_on_c, 1, 64, 65
3, 22168, Note_off_c, 1, 64, 0
3, 22228, Note_on_c, 1, 65, 66
3, 22296, Note_off_c, 1, 65, 0
3, 22316, Note_on_c, 1, 64, 66
3, 22688, Note_off_c, 1, 64, 0
3, 22700, Note_on_c, 1, 62, 65
3, 23072, Note_off_c, 1, 62, 0
3, 23084, Note_on_c, 1, 60, 63
3, 23456, Note_off_c, 1, 60, 0
3, 23468, Note_on_c, 1, 64, 66
3, 23840, Note_off_c, 1, 64, 0
3, 23852, Note_on_c, 1, 65, 67
3, 24224, Note_off_c, 1, 65, 0
3, 24236, Note_on_c, 1, 64, 66
3, 24856, Note_off_c, 1, 64, 0
3, 24916, Note_on_c, 1, 61, 63
3, 24984, Note_off_c, 1, 61, 0
3, 25004, Note_on_c, 1, 62, 64
3, 25240, Note_off_c, 1, 62, 0
3, 25300, Note_on_c, 1, 64, 66
3, 25368, Note_off_c, 1, 64, 0
3, 25388, Note_on_c, 1, 65, 67
3, 25760, Note_off_c, 1, 65, 0
3, 25772, Note_on_c, 1, 64, 66
3, 26420, Note_off_c, 1, 64, 0
3, 26452, Note_on_c, 1, 64, 66
3, 26520, Note_off_c, 1, 64, 0
3, 26540, Note_on_c, 1, 62, 64
3, 26776, Note_off_c, 1, 62, 0
3, 26836, Note_on_c, 1, 61, 63
3, 26904, Note_off_c, 1, 61, 0
3, 26924, Note_on_c, 1, 62, 65
3, 27296, Note_off_c, 1, 62, 0
3, 27308, Note_on_c, 1, 60, 63
3, 28024, Note_off_c, 1, 60, 0
3, 28076, Note_on_c, 1, 58, 61
3, 28312, Note_off_c, 1, 58, 0
3, 28368, Note_on_c, 1, 57, 60
3, 28440, Note_off_c, 1, 57, 0
3, 28460, Note_on_c, 1, 58, 62
3, 28832, Note_off_c, 1, 58, 0
3, 28844, Note_on_c, 1, 57, 61
3, 29464, Note_off_c, 1, 57, 0
3, 29520, Note_on_c, 1, 54, 58
3, 29592, Note_off_c, 1, 54, 0
3, 29608, Note_on_c, 1, 55, 59
3, 29848, Note_off_c, 1, 55, 0
3, 29904, Note_on_c, 1, 57, 60
3, 29976, Note_off_c, 1, 57, 0
3, 29992, Note_on_c, 1, 58, 62
3, 30364, Note_off_c, 1, 58, 0
3, 30376, Note_on_c, 1, 57, 61
3, 30748, Note_off_c, 1, 57, 0
3, 30760, Note_on_c, 1, 56, 60
3, 31132, Note_off_c, 1, 56, 0
3, 33064, Note_on_c, 1, 59, 63
3, 33784, Note_off_c, 1, 59, 0
3, 33836, Note_on_c, 1, 57, 60
3, 34072, Note_off_c, 1, 57, 0
3, 34128, Note_on_c, 1, 64, 66
3, 34200, Note_off_c, 1, 64, 0
3, 34220, Note_on_c, 1, 65, 66
3, 34456, Note_off_c, 1, 65, 0
3, 34512, Note_on_c, 1, 67, 68
3, 34584, Note_off_c, 1, 67, 0
3, 34604, Note_on_c, 1, 69, 71
3, 35368, Note_off_c, 1, 69, 0
3, 35368, Note_on_c, 1, 65, 68
3, 36136, Note_off_c, 1, 65, 0
3, 36136, Note_on_c, 1, 62, 65
3, 36904, Note_off_c, 1, 62, 0
3, 36904, Note_on_c, 1, 61, 65
3, 37624, Note_off_c, 1, 61, 0
3, 37672, Note_on_c, 1, 62, 65
3, 38044, Note_off_c, 1, 62, 0
3, 38056, Note_on_c, 1, 64, 66
3, 38428, Note_off_c, 1, 64, 0
3, 38440, Note_on_c, 1, 65, 68
3, 39452, Note_off_c, 1, 65, 0
3, 39504, Note_on_c, 1, 69, 70
3, 39572, Note_off_c, 1, 69, 0
3, 39592, Note_on_c, 1, 68, 68
3, 39828, Note_off_c, 1, 68, 0
3, 39888, Note_on_c, 1, 66, 67
3, 39956, Note_off_c, 1, 66, 0
3, 39976, Note_on_c, 1, 64, 67
3, 40988, Note_off_c, 1, 64, 0
3, 41040, Note_on_c, 1, 57, 60
3, 41108, Note_off_c, 1, 57, 0
3, 41128, Note_on_c, 1, 62, 64
3, 41364, Note_off_c, 1, 62, 0
3, 41424, Note_on_c, 1, 60, 62
3, 41492, Note_off_c, 1, 60, 0
3, 41512, Note_on_c, 1, 59, 63
3, 42524, Note_off_c, 1, 59, 0
3, 42576, Note_on_c, 1, 64, 66
3, 42644, Note_off_c, 1, 64, 0
3, 42664, Note_on_c, 1, 66, 67
3, 42900, Note_off_c, 1, 66, 0
3, 42960, Note_on_c, 1, 68, 69
3, 43028, Note_off_c, 1, 68, 0
3, 43048, Note_on_c, 1, 69, 71
3, 44148, Note_off_c, 1, 69, 0
3, 44200, Note_on_c, 1, 68, 70
3, 44568, Note_off_c, 1, 68, 0
3, 44584, Note_on_c, 1, 69, 69
3, 44820, Note_off_c, 1, 69, 0
3, 44876, Note_on_c, 1, 67, 68
3, 44948, Note_off_c, 1, 67, 0
3, 44968, Note_on_c, 1, 65, 66
3, 45204, Note_off_c, 1, 65, 0
3, 45260, Note_on_c, 1, 64, 66
3, 45332, Note_off_c, 1, 64, 0
3, 45352, Note_on_c, 1, 62, 65
3, 45720, Note_off_c, 1, 62, 0
3, 45736, Note_on_c, 1, 67, 69
3, 46104, Note_off_c, 1, 67, 0
3, 46120, Note_on_c, 1, 65, 68
3, 46888, Note_off_c, 1, 65, 0
3, 46888, Note_on_c, 1, 64, 67
3, 47652, Note_off_c, 1, 64, 0
3, 47652, Note_on_c, 1, 62, 65
3, 48420, Note_off_c, 1, 62, 0
3, 49484, Note_on_c, 1, 70, 71
3, 49552, Note_off_c, 1, 70, 0
3, 49572, Note_on_c, 1, 69, 69
3, 49808, Note_off_c, 1, 69, 0
3, 49868, Note_on_c, 1, 67, 68
3, 49936, Note_off_c, 1, 67, 0
3, 49956, Note_on_c, 1, 65, 66
3, 50192, Note_off_c, 1, 65, 0
3, 50252, Note_on_c, 1, 64, 66
3, 50320, Note_off_c, 1, 64, 0
3, 50340, Note_on_c, 1, 62, 64
3, 50576, Note_off_c, 1, 62, 0
3, 50636, Note_on_c, 1, 61, 63
3, 50704, Note_off_c, 1, 61, 0
3, 50724, Note_on_c, 1, 62, 65
3, 51096, Note_off_c, 1, 62, 0
3, 51108, Note_on_c, 1, 74, 75
3, 51480, Note_off_c, 1, 74, 0
3, 51492, Note_on_c, 1, 71, 72
3, 51864, Note_off_c, 1, 71, 0
3, 51876, Note_on_c, 1, 73, 74
3, 52248, Note_off_c, 1, 73, 0
3, 52260, Note_on_c, 1, 74, 75
3, 52632, Note_off_c, 1, 74, 0
3, 53412, Note_on_c, 1, 72, 73
3, 54032, Note_off_c, 1, 72, 0
3, 54088, Note_on_c, 1, 70, 71
3, 54160, Note_off_c, 1, 70, 0
3, 54180, Note_on_c, 1, 69, 69
3, 54416, Note_off_c, 1, 69, 0
3, 54472, Note_on_c, 1, 67, 68
3, 54544, Note_off_c, 1, 67, 0
3, 54564, Note_on_c, 1, 69, 71
3, 55280, Note_off_c, 1, 69, 0
3, 55332, Note_on_c, 1, 68, 70
3, 55700, Note_off_c, 1, 68, 0
3, 55716, Note_on_c, 1, 72, 73
3, 56084, Note_off_c, 1, 72, 0
3, 56100, Note_on_c, 1, 66, 68
3, 56468, Note_off_c, 1, 66, 0
3, 56484, Note_on_c, 1, 68, 70
3, 56812, Note_off_c, 1, 68, 0
3, 56864, Note_on_c, 1, 69, 69
3, 57104, Note_off_c, 1, 69, 0
3, 57160, Note_on_c, 1, 70, 71
3, 57232, Note_off_c, 1, 70, 0
3, 57248, Note_on_c, 1, 69, 69
3, 57488, Note_off_c, 1, 69, 0
3, 57544, Note_on_c, 1, 67, 68
3, 57616, Note_off_c, 1, 67, 0
3, 57632, Note_on_c, 1, 65, 66
3, 57872, Note_off_c, 1, 65, 0
3, 57928, Note_on_c, 1, 69, 70
3, 58000, Note_off_c, 1, 69, 0
3, 58016, Note_on_c, 1, 67, 68
3, 58256, Note_off_c, 1, 67, 0
3, 58312, Note_on_c, 1, 65, 66
3, 58640, Note_off_c, 1, 65, 0
3, 58696, Note_on_c, 1, 64, 66
3, 58768, Note_off_c, 1, 64, 0
3, 58784, Note_on_c, 1, 66, 67
3, 59024, Note_off_c, 1, 66, 0
3, 59080, Note_on_c, 1, 68, 69
3, 59152, Note_off_c, 1, 68, 0
3, 59168, Note_on_c, 1, 69, 69
3, 59404, Note_off_c, 1, 69, 0
3, 59464, Note_on_c, 1, 71, 71
3, 59536, Note_off_c, 1, 71, 0
3, 59552, Note_on_c, 1, 72, 72
3, 59788, Note_off_c, 1, 72, 0
3, 59848, Note_on_c, 1, 69, 70
3, 59920, Note_off_c, 1, 69, 0
3, 59936, Note_on_c, 1, 71, 73
3, 60948, Note_off_c, 1, 71, 0
3, 61000, Note_on_c, 1, 69, 70
3, 61068, Note_off_c, 1, 69, 0
3, 61088, Note_on_c, 1, 68, 68
3, 61324, Note_off_c, 1, 68, 0
3, 61384, Note_on_c, 1, 69, 70
3, 61452, Note_off_c, 1, 69, 0
3, 61472, Note_on_c, 1, 63, 64
3, 61708, Note_off_c, 1, 63, 0
3, 61768, Note_on_c, 1, 57, 60
3, 61836, Note_off_c, 1, 57, 0
3, 61856, Note_on_c, 1, 69, 71
3, 62572, Note_off_c, 1, 69, 0
3, 62624, Note_on_c, 1, 64, 66
3, 63380, Note_off_c, 1, 64, 0
3, 63392, Note_on_c, 1, 65, 67
3, 63760, Note_off_c, 1, 65, 0
3, 63776, Note_on_c, 1, 62, 65
3, 64144, Note_off_c, 1, 62, 0
3, 64160, Note_on_c, 1, 67, 69
3, 64488, Note_off_c, 1, 67, 0
3, 64544, Note_on_c, 1, 60, 62
3, 64780, Note_off_c, 1, 60, 0
3, 64836, Note_on_c, 1, 65, 66
3, 64908, Note_off_c, 1, 65, 0
3, 64928, Note_on_c, 1, 64, 65
3, 65196, Note_off_c, 1, 64, 0
3, 65220, Note_on_c, 1, 62, 65
3, 65552, Note_off_c, 1, 62, 0
3, 65604, Note_on_c, 1, 64, 66
3, 65676, Note_off_c, 1, 64, 0
3, 65696, Note_on_c, 1, 62, 64
3, 65932, Note_off_c, 1, 62, 0
3, 65988, Note_on_c, 1, 61, 63
3, 66060, Note_off_c, 1, 61, 0
3, 66080, Note_on_c, 1, 62, 65
3, 67180, Note_off_c, 1, 62, 0
3, 67232, Note_on_c, 1, 67, 69
3, 67600, Note_off_c, 1, 67, 0
3, 67616, Note_on_c, 1, 60, 64
3, 68624, Note_off_c, 1, 60, 0
3, 68676, Note_on_c, 1, 58, 61
3, 68744, Note_off_c, 1, 58, 0
3, 68764, Note_on_c, 1, 57, 60
3, 69004, Note_off_c, 1, 57, 0
3, 69060, Note_on_c, 1, 55, 59
3, 69128, Note_off_c, 1, 55, 0
3, 69148, Note_on_c, 1, 53, 57
3, 69384, Note_off_c, 1, 53, 0
3, 69444, Note_on_c, 1, 65, 66
3, 69512, Note_off_c, 1, 65, 0
3, 69532, Note_on_c, 1, 67, 68
3, 69768, Note_off_c, 1, 67, 0
3, 69828, Note_on_c, 1, 69, 70
3, 69896, Note_off_c, 1, 69, 0
3, 69916, Note_on_c, 1, 70, 70
3, 70152, Note_off_c, 1, 70, 0
3, 70212, Note_on_c, 1, 72, 72
3, 70280, Note_off_c, 1, 72, 0
3, 70300, Note_on_c, 1, 74, 74
3, 70536, Note_off_c, 1, 74, 0
3, 70596, Note_on_c, 1, 70, 71
3, 70664, Note_off_c, 1, 70, 0
3, 70684, Note_on_c, 1, 72, 73
3, 71056, Note_off_c, 1, 72, 0
3, 71068, Note_on_c, 1, 67, 69
3, 71440, Note_off_c, 1, 67, 0
3, 71452, Note_on_c, 1, 72, 74
3, 72936, Note_off_c, 1, 72, 0
3, 72988, Note_on_c, 1, 74, 75
3, 73360, Note_off_c, 1, 74, 0
3, 73372, Note_on_c, 1, 72, 72
3, 73608, Note_off_c, 1, 72, 0
3, 73668, Note_on_c, 1, 70, 71
3, 73736, Note_off_c, 1, 70, 0
3, 73756, Note_on_c, 1, 69, 71
3, 74524, Note_off_c, 1, 69, 0
3, 74524, Note_on_c, 1, 74, 76
3, 75292, Note_off_c, 1, 74, 0
3, 75292, Note_on_c, 1, 70, 72
3, 76060, Note_off_c, 1, 70, 0
3, 76060, Note_on_c, 1, 67, 70
3, 76824, Note_off_c, 1, 67, 0
3, 76824, Note_on_c, 1, 66, 69
3, 77544, Note_off_c, 1, 66, 0
3, 77592, Note_on_c, 1, 67, 69
3, 77964, Note_off_c, 1, 67, 0
3, 77976, Note_on_c, 1, 69, 70
3, 78348, Note_off_c, 1, 69, 0
3, 78360, Note_on_c, 1, 70, 72
3, 79372, Note_off_c, 1, 70, 0
3, 79424, Note_on_c, 1, 72, 72
3, 79496, Note_off_c, 1, 72, 0
3, 79512, Note_on_c, 1, 70, 70
3, 79752, Note_off_c, 1, 70, 0
3, 79808, Note_on_c, 1, 69, 70
3, 79880, Note_off_c, 1, 69, 0
3, 79896, Note_on_c, 1, 67, 69
3, 80268, Note_off_c, 1, 67, 0
3, 80280, Note_on_c, 1, 70, 71
3, 80652, Note_off_c, 1, 70, 0
3, 80664, Note_on_c, 1, 69, 70
3, 81036, Note_off_c, 1, 69, 0
3, 81048, Note_on_c, 1, 72, 73
3, 81668, Note_off_c, 1, 72, 0
3, 81728, Note_on_c, 1, 65, 66
3, 81796, Note_off_c, 1, 65, 0
3, 81816, Note_on_c, 1, 67, 68
3, 82052, Note_off_c, 1, 67, 0
3, 82112, Note_on_c, 1, 69, 70
3, 82180, Note_off_c, 1, 69, 0
3, 82200, Note_on_c, 1, 70, 70
3, 82436, Note_off_c, 1, 70, 0
3, 82496, Note_on_c, 1, 72, 72
3, 82564, Note_off_c, 1, 72, 0
3, 82584, Note_on_c, 1, 74, 74
3, 82820, Note_off_c, 1, 74, 0
3, 82880, Note_on_c, 1, 70, 71
3, 82948, Note_off_c, 1, 70, 0
3, 82968, Note_on_c, 1, 72, 74
3, 83736, Note_off_c, 1, 72, 0
3, 83736, Note_on_c, 1, 65, 68
3, 84772, Note_off_c, 1, 65, 0
3, 84800, Note_on_c, 1, 68, 69
3, 84868, Note_off_c, 1, 68, 0
3, 84888, Note_on_c, 1, 67, 68
3, 85124, Note_off_c, 1, 67, 0
3, 85184, Note_on_c, 1, 65, 66
3, 85252, Note_off_c, 1, 65, 0
3, 85272, Note_on_c, 1, 67, 69
3, 85640, Note_off_c, 1, 67, 0
3, 85656, Note_on_c, 1, 69, 70
3, 86024, Note_off_c, 1, 69, 0
3, 86040, Note_on_c, 1, 70, 72
3, 86808, Note_off_c, 1, 70, 0
3, 87868, Note_on_c, 1, 67, 68
3, 87940, Note_off_c, 1, 67, 0
3, 87960, Note_on_c, 1, 66, 67
3, 88196, Note_off_c, 1, 66, 0
3, 88252, Note_on_c, 1, 67, 68
3, 88324, Note_off_c, 1, 67, 0
3, 88340, Note_on_c, 1, 64, 66
3, 88712, Note_off_c, 1, 64, 0
3, 88724, Note_on_c, 1, 65, 67
3, 89344, Note_off_c, 1, 65, 0
3, 89404, Note_on_c, 1, 62, 64
3, 89472, Note_off_c, 1, 62, 0
3, 89492, Note_on_c, 1, 61, 63
3, 89728, Note_off_c, 1, 61, 0
3, 89788, Note_on_c, 1, 62, 64
3, 89856, Note_off_c, 1, 62, 0
3, 89876, Note_on_c, 1, 67, 70
3, 91016, Note_off_c, 1, 67, 0
3, 91028, Note_on_c, 1, 65, 67
3, 91400, Note_off_c, 1, 65, 0
3, 91412, Note_on_c, 1, 64, 66
3, 91784, Note_off_c, 1, 64, 0
3, 91796, Note_on_c, 1, 69, 70
3, 92552, Note_off_c, 1, 69, 0
3, 94008, Note_on_c, 1, 70, 71
3, 94080, Note_off_c, 1, 70, 0
3, 94100, Note_on_c, 1, 69, 69
3, 94368, Note_off_c, 1, 69, 0
3, 94392, Note_on_c, 1, 67, 69
3, 94724, Note_off_c, 1, 67, 0
3, 94776, Note_on_c, 1, 69, 70
3, 94848, Note_off_c, 1, 69, 0
3, 94868, Note_on_c, 1, 67, 68
3, 95104, Note_off_c, 1, 67, 0
3, 95160, Note_on_c, 1, 65, 66
3, 95232, Note_off_c, 1, 65, 0
3, 95252, Note_on_c, 1, 64, 66
3, 95624, Note_off_c, 1, 64, 0
3, 95636, Note_on_c, 1, 57, 61
3, 96008, Note_off_c, 1, 57, 0
3, 96020, Note_on_c, 1, 58, 62
3, 96736, Note_off_c, 1, 58, 0
3, 96784, Note_on_c, 1, 57, 61
3, 97116, Note_off_c, 1, 57, 0
3, 97168, Note_on_c, 1, 69, 70
3, 97540, Note_off_c, 1, 69, 0
3, 97552, Note_on_c, 1, 71, 72
3, 97924, Note_off_c, 1, 71, 0
3, 97936, Note_on_c, 1, 73, 74
3, 98308, Note_off_c, 1, 73, 0
3, 98320, Note_on_c, 1, 74, 75
3, 98692, Note_off_c, 1, 74, 0
3, 100152, Note_on_c, 1, 67, 68
3, 100224, Note_off_c, 1, 67, 0
3, 100240, Note_on_c, 1, 69, 69
3, 100480, Note_off_c, 1, 69, 0
3, 100536, Note_on_c, 1, 70, 71
3, 100608, Note_off_c, 1, 70, 0
3, 100624, Note_on_c, 1, 72, 74
3, 101764, Note_off_c, 1, 72, 0
3, 101776, Note_on_c, 1, 70, 70
3, 102012, Note_off_c, 1, 70, 0
3, 102072, Note_on_c, 1, 69, 70
3, 102140, Note_off_c, 1, 69, 0
3, 102160, Note_on_c, 1, 70, 71
3, 102532, Note_off_c, 1, 70, 0
3, 102544, Note_on_c, 1, 69, 70
3, 102916, Note_off_c, 1, 69, 0
3, 102928, Note_on_c, 1, 67, 70
3, 103696, Note_off_c, 1, 67, 0
3, 103696, Note_on_c, 1, 65, 68
3, 104464, Note_off_c, 1, 65, 0
3, 104464, Note_on_c, 1, 64, 67
3, 105180, Note_off_c, 1, 64, 0
3, 105232, Note_on_c, 1, 62, 65
3, 105600, Note_off_c, 1, 62, 0
3, 105616, Note_on_c, 1, 65, 67
3, 106264, Note_off_c, 1, 65, 0
3, 106292, Note_on_c, 1, 65, 66
3, 106364, Note_off_c, 1, 65, 0
3, 106384, Note_on_c, 1, 64, 67
3, 107012, Note_off_c, 1, 64, 0
3, 107060, Note_on_c, 1, 64, 66
3, 107132, Note_off_c, 1, 64, 0
3, 107152, Note_on_c, 1, 62, 65
3, 107520, Note_off_c, 1, 62, 0
3, 108212, Note_on_c, 1, 74, 74
3, 108284, Note_off_c, 1, 74, 0
3, 108304, Note_on_c, 1, 72, 72
3, 108536, Note_off_c, 1, 72, 0
3, 108596, Note_on_c, 1, 71, 71
3, 108668, Note_off_c, 1, 71, 0
3, 108688, Note_on_c, 1, 69, 69
3, 108920, Note_off_c, 1, 69, 0
3, 108980, Note_on_c, 1, 68, 69
3, 109052, Note_off_c, 1, 68, 0
3, 109072, Note_on_c, 1, 69, 71
3, 110168, Note_off_c, 1, 69, 0
3, 110220, Note_on_c, 1, 76, 77
3, 110840, Note_off_c, 1, 76, 0
3, 110900, Note_on_c, 1, 69, 70
3, 110968, Note_off_c, 1, 69, 0
3, 110988, Note_on_c, 1, 74, 74
3, 111224, Note_off_c, 1, 74, 0
3, 111284, Note_on_c, 1, 72, 72
3, 111352, Note_off_c, 1, 72, 0
3, 111372, Note_on_c, 1, 70, 70
3, 111608, Note_off_c, 1, 70, 0
3, 111668, Note_on_c, 1, 69, 70
3, 111736, Note_off_c, 1, 69, 0
3, 111756, Note_on_c, 1, 67, 68
3, 111992, Note_off_c, 1, 67, 0
3, 112052, Note_on_c, 1, 65, 66
3, 112120, Note_off_c, 1, 65, 0
3, 112140, Note_on_c, 1, 64, 67
3, 113152, Note_off_c, 1, 64, 0
3, 113200, Note_on_c, 1, 67, 68
3, 113272, Note_off_c, 1, 67, 0
3, 113292, Note_on_c, 1, 65, 66
3, 113528, Note_off_c, 1, 65, 0
3, 113584, Note_on_c, 1, 64, 66
3, 113656, Note_off_c, 1, 64, 0
3, 113676, Note_on_c, 1, 62, 64
3, 113912, Note_off_c, 1, 62, 0
3, 113968, Note_on_c, 1, 60, 62
3, 114040, Note_off_c, 1, 60, 0
3, 114060, Note_on_c, 1, 58, 61
3, 114296, Note_off_c, 1, 58, 0
3, 114352, Note_on_c, 1, 57, 60
3, 114424, Note_off_c, 1, 57, 0
3, 114444, Note_on_c, 1, 58, 62
3, 115212, Note_off_c, 1, 58, 0
3, 115212, Note_on_c, 1, 57, 62
3, 116312, Note_off_c, 1, 57, 0
3, 116364, Note_on_c, 1, 59, 62
3, 116736, Note_off_c, 1, 59, 0
3, 116748, Note_on_c, 1, 61, 65
3, 117512, Note_off_c, 1, 61, 0
3, 117512, Note_on_c, 1, 56, 61
3, 118280, Note_off_c, 1, 56, 0
3, 118280, Note_on_c, 1, 57, 62
3, 119384, Note_off_c, 1, 57, 0
3, 119432, Note_on_c, 1, 61, 64
3, 119804, Note_off_c, 1, 61, 0
3, 119816, Note_on_c, 1, 62, 64
3, 120056, Note_off_c, 1, 62, 0
3, 120112, Note_on_c, 1, 65, 66
3, 120184, Note_off_c, 1, 65, 0
3, 120200, Note_on_c, 1, 64, 65
3, 120440, Note_off_c, 1, 64, 0
3, 120496, Note_on_c, 1, 62, 64
3, 120568, Note_off_c, 1, 62, 0
3, 120584, Note_on_c, 1, 61, 63
3, 120824, Note_off_c, 1, 61, 0
3, 120880, Note_on_c, 1, 57, 60
3, 120948, Note_off_c, 1, 57, 0
3, 120968, Note_on_c, 1, 59, 61
3, 121208, Note_off_c, 1, 59, 0
3, 121264, Note_on_c, 1, 61, 63
3, 121332, Note_off_c, 1, 61, 0
3, 121352, Note_on_c, 1, 62, 65
3, 121724, Note_off_c, 1, 62, 0
3, 121736, Note_on_c, 1, 60, 64
3, 122456, Note_off_c, 1, 60, 0
3, 122504, Note_on_c, 1, 58, 62
3, 123152, Note_off_c, 1, 58, 0
3, 123184, Note_on_c, 1, 58, 61
3, 123252, Note_off_c, 1, 58, 0
3, 123272, Note_on_c, 1, 57, 60
3, 123508, Note_off_c, 1, 57, 0
3, 123568, Note_on_c, 1, 55, 59
3, 123636, Note_off_c, 1, 55, 0
3, 123656, Note_on_c, 1, 53, 58
3, 124028, Note_off_c, 1, 53, 0
3, 124040, Note_on_c, 1, 58, 62
3, 124412, Note_off_c, 1, 58, 0
3, 124424, Note_on_c, 1, 57, 62
3, 125140, Note_off_c, 1, 57, 0
3, 125192, Note_on_c, 1, 58, 62
3, 125560, Note_off_c, 1, 58, 0
3, 125576, Note_on_c, 1, 57, 61
3, 126196, Note_off_c, 1, 57, 0
3, 126252, Note_on_c, 1, 54, 58
3, 126324, Note_off_c, 1, 54, 0
3, 126344, Note_on_c, 1, 55, 59
3, 126580, Note_off_c, 1, 55, 0
3, 126636, Note_on_c, 1, 57, 60
3, 126708, Note_off_c, 1, 57, 0
3, 126728, Note_on_c, 1, 58, 62
3, 127760, Note_off_c, 1, 58, 0
3, 127784, Note_on_c, 1, 57, 60
3, 127872, Note_off_c, 1, 57, 0
3, 127896, Note_on_c, 1, 58, 61
3, 128176, Note_off_c, 1, 58, 0
3, 128236, Note_on_c, 1, 55, 58
3, 128352, Note_off_c, 1, 55, 0
3, 128384, Note_on_c, 1, 57, 62
3, 129728, Note_off_c, 1, 57, 0
3, 129728, End_track
4, 0, Start_track
4, 0, Title_t, "A.G. Simonetto, \251 2002"
4, 0, Control_c, 2, 0, 0
4, 0, Program_c, 2, 0
4, 0, Key_signature, 0, "major"
4, 0, Control_c, 2, 7, 125
4, 6196, Note_on_c, 2, 57, 68
4, 6964, Note_off_c, 2, 57, 0
4, 6964, Note_on_c, 2, 62, 72
4, 7732, Note_off_c, 2, 62, 0
4, 7732, Note_on_c, 2, 60, 70
4, 8500, Note_off_c, 2, 60, 0
4, 8500, Note_on_c, 2, 57, 68
4, 9268, Note_off_c, 2, 57, 0
4, 9268, Note_on_c, 2, 56, 67
4, 9984, Note_off_c, 2, 56, 0
4, 10032, Note_on_c, 2, 57, 67
4, 10404, Note_off_c, 2, 57, 0
4, 10416, Note_on_c, 2, 59, 69
4, 10788, Note_off_c, 2, 59, 0
4, 10800, Note_on_c, 2, 60, 70
4, 11812, Note_off_c, 2, 60, 0
4, 11864, Note_on_c, 2, 62, 70
4, 11936, Note_off_c, 2, 62, 0
4, 11952, Note_on_c, 2, 60, 68
4, 12192, Note_off_c, 2, 60, 0
4, 12248, Note_on_c, 2, 58, 67
4, 12320, Note_off_c, 2, 58, 0
4, 12336, Note_on_c, 2, 57, 68
4, 13348, Note_off_c, 2, 57, 0
4, 13400, Note_on_c, 2, 67, 75
4, 13472, Note_off_c, 2, 67, 0
4, 13488, Note_on_c, 2, 65, 73
4, 13728, Note_off_c, 2, 65, 0
4, 13784, Note_on_c, 2, 64, 72
4, 13852, Note_off_c, 2, 64, 0
4, 13872, Note_on_c, 2, 62, 70
4, 14112, Note_off_c, 2, 62, 0
4, 14168, Note_on_c, 2, 60, 69
4, 14236, Note_off_c, 2, 60, 0
4, 14256, Note_on_c, 2, 58, 67
4, 14492, Note_off_c, 2, 58, 0
4, 14552, Note_on_c, 2, 57, 66
4, 14620, Note_off_c, 2, 57, 0
4, 14640, Note_on_c, 2, 58, 67
4, 14876, Note_off_c, 2, 58, 0
4, 14936, Note_on_c, 2, 57, 66
4, 15004, Note_off_c, 2, 57, 0
4, 15024, Note_on_c, 2, 55, 64
4, 15260, Note_off_c, 2, 55, 0
4, 15320, Note_on_c, 2, 53, 63
4, 15388, Note_off_c, 2, 53, 0
4, 15408, Note_on_c, 2, 52, 64
4, 16420, Note_off_c, 2, 52, 0
4, 16472, Note_on_c, 2, 57, 66
4, 16540, Note_off_c, 2, 57, 0
4, 16560, Note_on_c, 2, 59, 68
4, 16796, Note_off_c, 2, 59, 0
4, 16856, Note_on_c, 2, 61, 70
4, 16924, Note_off_c, 2, 61, 0
4, 16944, Note_on_c, 2, 62, 72
4, 18044, Note_off_c, 2, 62, 0
4, 18096, Note_on_c, 2, 61, 70
4, 18468, Note_off_c, 2, 61, 0
4, 18480, Note_on_c, 2, 62, 72
4, 19104, Note_off_c, 2, 62, 0
4, 19156, Note_on_c, 2, 64, 72
4, 19228, Note_off_c, 2, 64, 0
4, 19248, Note_on_c, 2, 65, 75
4, 19964, Note_off_c, 2, 65, 0
4, 20016, Note_on_c, 2, 64, 74
4, 20384, Note_off_c, 2, 64, 0
4, 20400, Note_on_c, 2, 60, 70
4, 21116, Note_off_c, 2, 60, 0
4, 21168, Note_on_c, 2, 57, 68
4, 21536, Note_off_c, 2, 57, 0
4, 21552, Note_on_c, 2, 59, 69
4, 22560, Note_off_c, 2, 59, 0
4, 22612, Note_on_c, 2, 52, 62
4, 22680, Note_off_c, 2, 52, 0
4, 22700, Note_on_c, 2, 54, 64
4, 22936, Note_off_c, 2, 54, 0
4, 22996, Note_on_c, 2, 56, 65
4, 23064, Note_off_c, 2, 56, 0
4, 23084, Note_on_c, 2, 57, 68
4, 24184, Note_off_c, 2, 57, 0
4, 24236, Note_on_c, 2, 56, 66
4, 24608, Note_off_c, 2, 56, 0
4, 24620, Note_on_c, 2, 57, 67
4, 24992, Note_off_c, 2, 57, 0
4, 25004, Note_on_c, 2, 59, 68
4, 25240, Note_off_c, 2, 59, 0
4, 25300, Note_on_c, 2, 61, 70
4, 25368, Note_off_c, 2, 61, 0
4, 25388, Note_on_c, 2, 62, 71
4, 25720, Note_off_c, 2, 62, 0
4, 25772, Note_on_c, 2, 55, 65
4, 26420, Note_off_c, 2, 55, 0
4, 26452, Note_on_c, 2, 55, 65
4, 26520, Note_off_c, 2, 55, 0
4, 26540, Note_on_c, 2, 53, 63
4, 26776, Note_off_c, 2, 53, 0
4, 26836, Note_on_c, 2, 52, 62
4, 26904, Note_off_c, 2, 52, 0
4, 26924, Note_on_c, 2, 53, 64
4, 27296, Note_off_c, 2, 53, 0
4, 27308, Note_on_c, 2, 54, 64
4, 27928, Note_off_c, 2, 54, 0
4, 27984, Note_on_c, 2, 50, 61
4, 28056, Note_off_c, 2, 50, 0
4, 28076, Note_on_c, 2, 52, 62
4, 28312, Note_off_c, 2, 52, 0
4, 28368, Note_on_c, 2, 54, 64
4, 28440, Note_off_c, 2, 54, 0
4, 28460, Note_on_c, 2, 55, 65
4, 28792, Note_off_c, 2, 55, 0
4, 28844, Note_on_c, 2, 48, 60
4, 29464, Note_off_c, 2, 48, 0
4, 29520, Note_on_c, 2, 45, 57
4, 29592, Note_off_c, 2, 45, 0
4, 29608, Note_on_c, 2, 46, 58
4, 29848, Note_off_c, 2, 46, 0
4, 29904, Note_on_c, 2, 48, 59
4, 29976, Note_off_c, 2, 48, 0
4, 29992, Note_on_c, 2, 50, 61
4, 30232, Note_off_c, 2, 50, 0
4, 30288, Note_on_c, 2, 49, 60
4, 30360, Note_off_c, 2, 49, 0
4, 30376, Note_on_c, 2, 50, 61
4, 30748, Note_off_c, 2, 50, 0
4, 30760, Note_on_c, 2, 52, 63
4, 31132, Note_off_c, 2, 52, 0
4, 33064, Note_on_c, 2, 56, 67
4, 33836, Note_off_c, 2, 56, 0
4, 33836, Note_on_c, 2, 52, 63
4, 34208, Note_off_c, 2, 52, 0
4, 34896, Note_on_c, 2, 57, 66
4, 34968, Note_off_c, 2, 57, 0
4, 34988, Note_on_c, 2, 59, 68
4, 35224, Note_off_c, 2, 59, 0
4, 35280, Note_on_c, 2, 61, 70
4, 35352, Note_off_c, 2, 61, 0
4, 35368, Note_on_c, 2, 62, 71
4, 35744, Note_off_c, 2, 62, 0
4, 35752, Note_on_c, 2, 60, 70
4, 36472, Note_off_c, 2, 60, 0
4, 36520, Note_on_c, 2, 58, 68
4, 37144, Note_off_c, 2, 58, 0
4, 37200, Note_on_c, 2, 55, 65
4, 37272, Note_off_c, 2, 55, 0
4, 37288, Note_on_c, 2, 53, 63
4, 37528, Note_off_c, 2, 53, 0
4, 37584, Note_on_c, 2, 52, 62
4, 37656, Note_off_c, 2, 52, 0
4, 37672, Note_on_c, 2, 57, 68
4, 38708, Note_off_c, 2, 57, 0
4, 38736, Note_on_c, 2, 50, 61
4, 38808, Note_off_c, 2, 50, 0
4, 38824, Note_on_c, 2, 49, 60
4, 39064, Note_off_c, 2, 49, 0
4, 39120, Note_on_c, 2, 50, 61
4, 39188, Note_off_c, 2, 50, 0
4, 39208, Note_on_c, 2, 56, 66
4, 39580, Note_off_c, 2, 56, 0
4, 39592, Note_on_c, 2, 59, 69
4, 40212, Note_off_c, 2, 59, 0
4, 40272, Note_on_c, 2, 52, 62
4, 40340, Note_off_c, 2, 52, 0
4, 40360, Note_on_c, 2, 57, 66
4, 40596, Note_off_c, 2, 57, 0
4, 40656, Note_on_c, 2, 55, 65
4, 40724, Note_off_c, 2, 55, 0
4, 40744, Note_on_c, 2, 53, 65
4, 41884, Note_off_c, 2, 53, 0
4, 41896, Note_on_c, 2, 52, 63
4, 42268, Note_off_c, 2, 52, 0
4, 43344, Note_on_c, 2, 67, 75
4, 43412, Note_off_c, 2, 67, 0
4, 43432, Note_on_c, 2, 65, 73
4, 43668, Note_off_c, 2, 65, 0
4, 43728, Note_on_c, 2, 64, 72
4, 43796, Note_off_c, 2, 64, 0
4, 43816, Note_on_c, 2, 63, 72
4, 44184, Note_off_c, 2, 63, 0
4, 44200, Note_on_c, 2, 64, 73
4, 44568, Note_off_c, 2, 64, 0
4, 44584, Note_on_c, 2, 57, 68
4, 45300, Note_off_c, 2, 57, 0
4, 45352, Note_on_c, 2, 59, 69
4, 45720, Note_off_c, 2, 59, 0
4, 45736, Note_on_c, 2, 61, 70
4, 46104, Note_off_c, 2, 61, 0
4, 46120, Note_on_c, 2, 62, 72
4, 46888, Note_off_c, 2, 62, 0
4, 47948, Note_on_c, 2, 57, 66
4, 48016, Note_off_c, 2, 57, 0
4, 48036, Note_on_c, 2, 59, 68
4, 48272, Note_off_c, 2, 59, 0
4, 48332, Note_on_c, 2, 61, 70
4, 48400, Note_off_c, 2, 61, 0
4, 48420, Note_on_c, 2, 62, 70
4, 48656, Note_off_c, 2, 62, 0
4, 48716, Note_on_c, 2, 64, 72
4, 48784, Note_off_c, 2, 64, 0
4, 48804, Note_on_c, 2, 65, 73
4, 49040, Note_off_c, 2, 65, 0
4, 49100, Note_on_c, 2, 62, 70
4, 49168, Note_off_c, 2, 62, 0
4, 49188, Note_on_c, 2, 64, 73
4, 49520, Note_off_c, 2, 64, 0
4, 49572, Note_on_c, 2, 52, 63
4, 49944, Note_off_c, 2, 52, 0
4, 49956, Note_on_c, 2, 53, 64
4, 50328, Note_off_c, 2, 53, 0
4, 50340, Note_on_c, 2, 55, 65
4, 50712, Note_off_c, 2, 55, 0
4, 50724, Note_on_c, 2, 57, 67
4, 51096, Note_off_c, 2, 57, 0
4, 52644, Note_on_c, 2, 62, 72
4, 53272, Note_off_c, 2, 62, 0
4, 53320, Note_on_c, 2, 60, 69
4, 53392, Note_off_c, 2, 60, 0
4, 53412, Note_on_c, 2, 58, 67
4, 53648, Note_off_c, 2, 58, 0
4, 53704, Note_on_c, 2, 57, 66
4, 53776, Note_off_c, 2, 57, 0
4, 53796, Note_on_c, 2, 58, 68
4, 54168, Note_off_c, 2, 58, 0
4, 54180, Note_on_c, 2, 59, 69
4, 54552, Note_off_c, 2, 59, 0
4, 54564, Note_on_c, 2, 61, 70
4, 54936, Note_off_c, 2, 61, 0
4, 54948, Note_on_c, 2, 62, 71
4, 55568, Note_off_c, 2, 62, 0
4, 55624, Note_on_c, 2, 60, 69
4, 55696, Note_off_c, 2, 60, 0
4, 55716, Note_on_c, 2, 59, 68
4, 55952, Note_off_c, 2, 59, 0
4, 56008, Note_on_c, 2, 57, 66
4, 56080, Note_off_c, 2, 57, 0
4, 56100, Note_on_c, 2, 59, 69
4, 56468, Note_off_c, 2, 59, 0
4, 56484, Note_on_c, 2, 64, 73
4, 56852, Note_off_c, 2, 64, 0
4, 56864, Note_on_c, 2, 57, 68
4, 57632, Note_off_c, 2, 57, 0
4, 57632, Note_on_c, 2, 62, 72
4, 58400, Note_off_c, 2, 62, 0
4, 58400, Note_on_c, 2, 60, 70
4, 59168, Note_off_c, 2, 60, 0
4, 59168, Note_on_c, 2, 57, 68
4, 59936, Note_off_c, 2, 57, 0
4, 59936, Note_on_c, 2, 56, 67
4, 60656, Note_off_c, 2, 56, 0
4, 60704, Note_on_c, 2, 57, 67
4, 61076, Note_off_c, 2, 57, 0
4, 61088, Note_on_c, 2, 59, 69
4, 61460, Note_off_c, 2, 59, 0
4, 61472, Note_on_c, 2, 60, 70
4, 62484, Note_off_c, 2, 60, 0
4, 62536, Note_on_c, 2, 62, 70
4, 62604, Note_off_c, 2, 62, 0
4, 62624, Note_on_c, 2, 60, 68
4, 62860, Note_off_c, 2, 60, 0
4, 62920, Note_on_c, 2, 59, 68
4, 62988, Note_off_c, 2, 59, 0
4, 63008, Note_on_c, 2, 57, 68
4, 64020, Note_off_c, 2, 57, 0
4, 64072, Note_on_c, 2, 55, 65
4, 64140, Note_off_c, 2, 55, 0
4, 64160, Note_on_c, 2, 53, 63
4, 64396, Note_off_c, 2, 53, 0
4, 64456, Note_on_c, 2, 52, 62
4, 64524, Note_off_c, 2, 52, 0
4, 64544, Note_on_c, 2, 53, 64
4, 64916, Note_off_c, 2, 53, 0
4, 64928, Note_on_c, 2, 58, 68
4, 65296, Note_off_c, 2, 58, 0
4, 65312, Note_on_c, 2, 52, 63
4, 65680, Note_off_c, 2, 52, 0
4, 65696, Note_on_c, 2, 57, 67
4, 66024, Note_off_c, 2, 57, 0
4, 66080, Note_on_c, 2, 50, 61
4, 66408, Note_off_c, 2, 50, 0
4, 66464, Note_on_c, 2, 52, 62
4, 66700, Note_off_c, 2, 52, 0
4, 66756, Note_on_c, 2, 53, 63
4, 66828, Note_off_c, 2, 53, 0
4, 66848, Note_on_c, 2, 55, 64
4, 67084, Note_off_c, 2, 55, 0
4, 67140, Note_on_c, 2, 57, 66
4, 67212, Note_off_c, 2, 57, 0
4, 67232, Note_on_c, 2, 58, 68
4, 67880, Note_off_c, 2, 58, 0
4, 67908, Note_on_c, 2, 57, 66
4, 67980, Note_off_c, 2, 57, 0
4, 68000, Note_on_c, 2, 55, 64
4, 68236, Note_off_c, 2, 55, 0
4, 68292, Note_on_c, 2, 53, 63
4, 68364, Note_off_c, 2, 53, 0
4, 68384, Note_on_c, 2, 52, 64
4, 69148, Note_off_c, 2, 52, 0
4, 69148, Note_on_c, 2, 53, 64
4, 69520, Note_off_c, 2, 53, 0
4, 70300, Note_on_c, 2, 58, 68
4, 70920, Note_off_c, 2, 58, 0
4, 70980, Note_on_c, 2, 62, 70
4, 71048, Note_off_c, 2, 62, 0
4, 71068, Note_on_c, 2, 60, 68
4, 71304, Note_off_c, 2, 60, 0
4, 71364, Note_on_c, 2, 58, 67
4, 71432, Note_off_c, 2, 58, 0
4, 71452, Note_on_c, 2, 57, 66
4, 71688, Note_off_c, 2, 57, 0
4, 71748, Note_on_c, 2, 55, 65
4, 71816, Note_off_c, 2, 55, 0
4, 71836, Note_on_c, 2, 53, 63
4, 72072, Note_off_c, 2, 53, 0
4, 72132, Note_on_c, 2, 52, 62
4, 72200, Note_off_c, 2, 52, 0
4, 72220, Note_on_c, 2, 53, 63
4, 72456, Note_off_c, 2, 53, 0
4, 72516, Note_on_c, 2, 65, 73
4, 72584, Note_off_c, 2, 65, 0
4, 72604, Note_on_c, 2, 64, 72
4, 72840, Note_off_c, 2, 64, 0
4, 72900, Note_on_c, 2, 65, 73
4, 72968, Note_off_c, 2, 65, 0
4, 72988, Note_on_c, 2, 58, 68
4, 73360, Note_off_c, 2, 58, 0
4, 73372, Note_on_c, 2, 63, 72
4, 74020, Note_off_c, 2, 63, 0
4, 74048, Note_on_c, 2, 63, 71
4, 74120, Note_off_c, 2, 63, 0
4, 74140, Note_on_c, 2, 62, 70
4, 74376, Note_off_c, 2, 62, 0
4, 74432, Note_on_c, 2, 60, 69
4, 74504, Note_off_c, 2, 60, 0
4, 74524, Note_on_c, 2, 58, 67
4, 74760, Note_off_c, 2, 58, 0
4, 74816, Note_on_c, 2, 57, 66
4, 74888, Note_off_c, 2, 57, 0
4, 74908, Note_on_c, 2, 55, 64
4, 75144, Note_off_c, 2, 55, 0
4, 75200, Note_on_c, 2, 54, 64
4, 75272, Note_off_c, 2, 54, 0
4, 75292, Note_on_c, 2, 55, 64
4, 75528, Note_off_c, 2, 55, 0
4, 75584, Note_on_c, 2, 57, 66
4, 75656, Note_off_c, 2, 57, 0
4, 75676, Note_on_c, 2, 58, 69
4, 76392, Note_off_c, 2, 58, 0
4, 76444, Note_on_c, 2, 57, 66
4, 76680, Note_off_c, 2, 57, 0
4, 76736, Note_on_c, 2, 58, 67
4, 76808, Note_off_c, 2, 58, 0
4, 76824, Note_on_c, 2, 60, 69
4, 77200, Note_off_c, 2, 60, 0
4, 77208, Note_on_c, 2, 63, 72
4, 77580, Note_off_c, 2, 63, 0
4, 77592, Note_on_c, 2, 62, 72
4, 78744, Note_off_c, 2, 62, 0
4, 78744, Note_on_c, 2, 62, 71
4, 79116, Note_off_c, 2, 62, 0
4, 79128, Note_on_c, 2, 64, 73
4, 79500, Note_off_c, 2, 64, 0
4, 79512, Note_on_c, 2, 65, 74
4, 80160, Note_off_c, 2, 65, 0
4, 80192, Note_on_c, 2, 65, 73
4, 80264, Note_off_c, 2, 65, 0
4, 80280, Note_on_c, 2, 63, 71
4, 80520, Note_off_c, 2, 63, 0
4, 80576, Note_on_c, 2, 62, 70
4, 80644, Note_off_c, 2, 62, 0
4, 80664, Note_on_c, 2, 60, 68
4, 80904, Note_off_c, 2, 60, 0
4, 80960, Note_on_c, 2, 58, 67
4, 81028, Note_off_c, 2, 58, 0
4, 81048, Note_on_c, 2, 57, 66
4, 81284, Note_off_c, 2, 57, 0
4, 81344, Note_on_c, 2, 55, 65
4, 81412, Note_off_c, 2, 55, 0
4, 81432, Note_on_c, 2, 53, 62
4, 81576, Note_off_c, 2, 53, 0
4, 83352, Note_on_c, 2, 48, 60
4, 83724, Note_off_c, 2, 48, 0
4, 83736, Note_on_c, 2, 50, 61
4, 84108, Note_off_c, 2, 50, 0
4, 84120, Note_on_c, 2, 51, 62
4, 84492, Note_off_c, 2, 51, 0
4, 84504, Note_on_c, 2, 53, 64
4, 84876, Note_off_c, 2, 53, 0
4, 84888, Note_on_c, 2, 58, 69
4, 85604, Note_off_c, 2, 58, 0
4, 85656, Note_on_c, 2, 63, 73
4, 86028, Note_off_c, 2, 63, 0
4, 86040, Note_on_c, 2, 65, 75
4, 87052, Note_off_c, 2, 65, 0
4, 87100, Note_on_c, 2, 60, 69
4, 87172, Note_off_c, 2, 60, 0
4, 87192, Note_on_c, 2, 58, 67
4, 87428, Note_off_c, 2, 58, 0
4, 87484, Note_on_c, 2, 57, 66
4, 87556, Note_off_c, 2, 57, 0
4, 87576, Note_on_c, 2, 55, 65
4, 87904, Note_off_c, 2, 55, 0
4, 87960, Note_on_c, 2, 63, 72
4, 88328, Note_off_c, 2, 63, 0
4, 88340, Note_on_c, 2, 61, 70
4, 88712, Note_off_c, 2, 61, 0
4, 88724, Note_on_c, 2, 62, 71
4, 89256, Note_off_c, 2, 62, 0
4, 91028, Note_on_c, 2, 62, 72
4, 91744, Note_off_c, 2, 62, 0
4, 91796, Note_on_c, 2, 61, 71
4, 92168, Note_off_c, 2, 61, 0
4, 92180, Note_on_c, 2, 62, 72
4, 92948, Note_off_c, 2, 62, 0
4, 92948, Note_on_c, 2, 64, 74
4, 93664, Note_off_c, 2, 64, 0
4, 93716, Note_on_c, 2, 57, 67
4, 94088, Note_off_c, 2, 57, 0
4, 94100, Note_on_c, 2, 59, 68
4, 94336, Note_off_c, 2, 59, 0
4, 94392, Note_on_c, 2, 61, 70
4, 94464, Note_off_c, 2, 61, 0
4, 94484, Note_on_c, 2, 62, 71
4, 94856, Note_off_c, 2, 62, 0
4, 95636, Note_on_c, 2, 52, 63
4, 96008, Note_off_c, 2, 52, 0
4, 96020, Note_on_c, 2, 53, 64
4, 96392, Note_off_c, 2, 53, 0
4, 96400, Note_on_c, 2, 55, 65
4, 96776, Note_off_c, 2, 55, 0
4, 96784, Note_on_c, 2, 57, 68
4, 97552, Note_off_c, 2, 57, 0
4, 98616, Note_on_c, 2, 57, 66
4, 98688, Note_off_c, 2, 57, 0
4, 98704, Note_on_c, 2, 59, 68
4, 98944, Note_off_c, 2, 59, 0
4, 99000, Note_on_c, 2, 61, 70
4, 99072, Note_off_c, 2, 61, 0
4, 99088, Note_on_c, 2, 62, 71
4, 99420, Note_off_c, 2, 62, 0
4, 99472, Note_on_c, 2, 54, 64
4, 99844, Note_off_c, 2, 54, 0
4, 99856, Note_on_c, 2, 55, 65
4, 100228, Note_off_c, 2, 55, 0
4, 104848, Note_on_c, 2, 57, 68
4, 105564, Note_off_c, 2, 57, 0
4, 105616, Note_on_c, 2, 62, 71
4, 106368, Note_off_c, 2, 62, 0
4, 106384, Note_on_c, 2, 60, 70
4, 107100, Note_off_c, 2, 60, 0
4, 107152, Note_on_c, 2, 57, 67
4, 107904, Note_off_c, 2, 57, 0
4, 107920, Note_on_c, 2, 56, 66
4, 108288, Note_off_c, 2, 56, 0
4, 108304, Note_on_c, 2, 57, 67
4, 108672, Note_off_c, 2, 57, 0
4, 108688, Note_on_c, 2, 59, 69
4, 109056, Note_off_c, 2, 59, 0
4, 109072, Note_on_c, 2, 60, 70
4, 110080, Note_off_c, 2, 60, 0
4, 110132, Note_on_c, 2, 62, 70
4, 110200, Note_off_c, 2, 62, 0
4, 110220, Note_on_c, 2, 61, 69
4, 110456, Note_off_c, 2, 61, 0
4, 110516, Note_on_c, 2, 59, 68
4, 110584, Note_off_c, 2, 59, 0
4, 110604, Note_on_c, 2, 57, 68
4, 111372, Note_off_c, 2, 57, 0
4, 111372, Note_on_c, 2, 58, 69
4, 112436, Note_off_c, 2, 58, 0
4, 112436, Note_on_c, 2, 58, 67
4, 112504, Note_off_c, 2, 58, 0
4, 112524, Note_on_c, 2, 57, 66
4, 112760, Note_off_c, 2, 57, 0
4, 112820, Note_on_c, 2, 55, 65
4, 112888, Note_off_c, 2, 55, 0
4, 112908, Note_on_c, 2, 53, 63
4, 113144, Note_off_c, 2, 53, 0
4, 113200, Note_on_c, 2, 52, 62
4, 113272, Note_off_c, 2, 52, 0
4, 113292, Note_on_c, 2, 50, 61
4, 113528, Note_off_c, 2, 50, 0
4, 113584, Note_on_c, 2, 49, 60
4, 113656, Note_off_c, 2, 49, 0
4, 113676, Note_on_c, 2, 50, 61
4, 114008, Note_off_c, 2, 50, 0
4, 114060, Note_on_c, 2, 52, 62
4, 114296, Note_off_c, 2, 52, 0
4, 114352, Note_on_c, 2, 54, 64
4, 114424, Note_off_c, 2, 54, 0
4, 114444, Note_on_c, 2, 55, 64
4, 114680, Note_off_c, 2, 55, 0
4, 114736, Note_on_c, 2, 53, 63
4, 114808, Note_off_c, 2, 53, 0
4, 114828, Note_on_c, 2, 52, 62
4, 115064, Note_off_c, 2, 52, 0
4, 115120, Note_on_c, 2, 50, 61
4, 115192, Note_off_c, 2, 50, 0
4, 115212, Note_on_c, 2, 49, 61
4, 115980, Note_off_c, 2, 49, 0
4, 115980, Note_on_c, 2, 50, 62
4, 116748, Note_off_c, 2, 50, 0
4, 116748, Note_on_c, 2, 52, 64
4, 117512, Note_off_c, 2, 52, 0
4, 117512, Note_on_c, 2, 53, 65
4, 118280, Note_off_c, 2, 53, 0
4, 118280, Note_on_c, 2, 52, 64
4, 119384, Note_off_c, 2, 52, 0
4, 119432, Note_on_c, 2, 57, 67
4, 119816, Note_off_c, 2, 57, 0
4, 119816, Note_on_c, 2, 57, 68
4, 120584, Note_off_c, 2, 57, 0
4, 121648, Note_on_c, 2, 50, 61
4, 121716, Note_off_c, 2, 50, 0
4, 121736, Note_on_c, 2, 52, 62
4, 121972, Note_off_c, 2, 52, 0
4, 122032, Note_on_c, 2, 53, 63
4, 122100, Note_off_c, 2, 53, 0
4, 122120, Note_on_c, 2, 55, 64
4, 122356, Note_off_c, 2, 55, 0
4, 122416, Note_on_c, 2, 57, 66
4, 122484, Note_off_c, 2, 57, 0
4, 122504, Note_on_c, 2, 55, 64
4, 122740, Note_off_c, 2, 55, 0
4, 122800, Note_on_c, 2, 53, 63
4, 122868, Note_off_c, 2, 53, 0
4, 122888, Note_on_c, 2, 52, 62
4, 123124, Note_off_c, 2, 52, 0
4, 123184, Note_on_c, 2, 55, 65
4, 123252, Note_off_c, 2, 55, 0
4, 123272, Note_on_c, 2, 53, 63
4, 123508, Note_off_c, 2, 53, 0
4, 123568, Note_on_c, 2, 52, 62
4, 123636, Note_off_c, 2, 52, 0
4, 123656, Note_on_c, 2, 50, 62
4, 124372, Note_off_c, 2, 50, 0
4, 124424, Note_on_c, 2, 49, 61
4, 124796, Note_off_c, 2, 49, 0
4, 124808, Note_on_c, 2, 50, 62
4, 125524, Note_off_c, 2, 50, 0
4, 125576, Note_on_c, 2, 49, 61
4, 125944, Note_off_c, 2, 49, 0
4, 125960, Note_on_c, 2, 50, 61
4, 126328, Note_off_c, 2, 50, 0
4, 126344, Note_on_c, 2, 52, 62
4, 126580, Note_off_c, 2, 52, 0
4, 126636, Note_on_c, 2, 54, 64
4, 126708, Note_off_c, 2, 54, 0
4, 126728, Note_on_c, 2, 55, 66
4, 127760, Note_off_c, 2, 55, 0
4, 127784, Note_on_c, 2, 54, 63
4, 127872, Note_off_c, 2, 54, 0
4, 127896, Note_on_c, 2, 55, 64
4, 128176, Note_off_c, 2, 55, 0
4, 128236, Note_on_c, 2, 52, 62
4, 128352, Note_off_c, 2, 52, 0
4, 128384, Note_on_c, 2, 54, 65
4, 129728, Note_off_c, 2, 54, 0
4, 129728, End_track
5, 0, Start_track
5, 0, Title_t, " "
5, 0, Control_c, 3, 0, 0
5, 0, Program_c, 3, 0
5, 0, Key_signature, 0, "major"
5, 0, Control_c, 3, 7, 125
5, 0, Note_on_c, 3, 50, 68
5, 768, Note_off_c, 3, 50, 0
5, 768, Note_on_c, 3, 57, 74
5, 1540, Note_off_c, 3, 57, 0
5, 1540, Note_on_c, 3, 53, 71
5, 2312, Note_off_c, 3, 53, 0
5, 2312, Note_on_c, 3, 50, 68
5, 3084, Note_off_c, 3, 50, 0
5, 3084, Note_on_c, 3, 49, 67
5, 3824, Note_off_c, 3, 49, 0
5, 3876, Note_on_c, 3, 50, 67
5, 4244, Note_off_c, 3, 50, 0
5, 4256, Note_on_c, 3, 52, 69
5, 4624, Note_off_c, 3, 52, 0
5, 4640, Note_on_c, 3, 53, 71
5, 5672, Note_off_c, 3, 53, 0
5, 5720, Note_on_c, 3, 55, 71
5, 5792, Note_off_c, 3, 55, 0
5, 5812, Note_on_c, 3, 53, 69
5, 6048, Note_off_c, 3, 53, 0
5, 6104, Note_on_c, 3, 52, 68
5, 6176, Note_off_c, 3, 52, 0
5, 6196, Note_on_c, 3, 50, 66
5, 6432, Note_off_c, 3, 50, 0
5, 6488, Note_on_c, 3, 52, 68
5, 6560, Note_off_c, 3, 52, 0
5, 6580, Note_on_c, 3, 50, 66
5, 6848, Note_off_c, 3, 50, 0
5, 6872, Note_on_c, 3, 48, 66
5, 7204, Note_off_c, 3, 48, 0
5, 7256, Note_on_c, 3, 50, 67
5, 7328, Note_off_c, 3, 50, 0
5, 7348, Note_on_c, 3, 48, 65
5, 7584, Note_off_c, 3, 48, 0
5, 7640, Note_on_c, 3, 47, 64
5, 7968, Note_off_c, 3, 47, 0
5, 8024, Note_on_c, 3, 45, 63
5, 8096, Note_off_c, 3, 45, 0
5, 8116, Note_on_c, 3, 47, 64
5, 8352, Note_off_c, 3, 47, 0
5, 8408, Note_on_c, 3, 48, 65
5, 8480, Note_off_c, 3, 48, 0
5, 8500, Note_on_c, 3, 50, 66
5, 8736, Note_off_c, 3, 50, 0
5, 8792, Note_on_c, 3, 52, 68
5, 8864, Note_off_c, 3, 52, 0
5, 8884, Note_on_c, 3, 53, 69
5, 9120, Note_off_c, 3, 53, 0
5, 9176, Note_on_c, 3, 50, 67
5, 9248, Note_off_c, 3, 50, 0
5, 9268, Note_on_c, 3, 52, 68
5, 9504, Note_off_c, 3, 52, 0
5, 9560, Note_on_c, 3, 53, 69
5, 9632, Note_off_c, 3, 53, 0
5, 9652, Note_on_c, 3, 52, 68
5, 9888, Note_off_c, 3, 52, 0
5, 9944, Note_on_c, 3, 50, 67
5, 10016, Note_off_c, 3, 50, 0
5, 10032, Note_on_c, 3, 48, 65
5, 10272, Note_off_c, 3, 48, 0
5, 10328, Note_on_c, 3, 47, 64
5, 10400, Note_off_c, 3, 47, 0
5, 10416, Note_on_c, 3, 45, 63
5, 10656, Note_off_c, 3, 45, 0
5, 10712, Note_on_c, 3, 44, 62
5, 10784, Note_off_c, 3, 44, 0
5, 10800, Note_on_c, 3, 45, 63
5, 11040, Note_off_c, 3, 45, 0
5, 11096, Note_on_c, 3, 57, 73
5, 11168, Note_off_c, 3, 57, 0
5, 11184, Note_on_c, 3, 56, 71
5, 11424, Note_off_c, 3, 56, 0
5, 11480, Note_on_c, 3, 57, 73
5, 11552, Note_off_c, 3, 57, 0
5, 11568, Note_on_c, 3, 50, 67
5, 11940, Note_off_c, 3, 50, 0
5, 11952, Note_on_c, 3, 55, 72
5, 12576, Note_off_c, 3, 55, 0
5, 12632, Note_on_c, 3, 53, 69
5, 12704, Note_off_c, 3, 53, 0
5, 12720, Note_on_c, 3, 52, 68
5, 12960, Note_off_c, 3, 52, 0
5, 13016, Note_on_c, 3, 50, 67
5, 13088, Note_off_c, 3, 50, 0
5, 13104, Note_on_c, 3, 49, 67
5, 13824, Note_off_c, 3, 49, 0
5, 13872, Note_on_c, 3, 50, 67
5, 14204, Note_off_c, 3, 50, 0
5, 14256, Note_on_c, 3, 38, 58
5, 14628, Note_off_c, 3, 38, 0
5, 14640, Note_on_c, 3, 43, 61
5, 14876, Note_off_c, 3, 43, 0
5, 14936, Note_on_c, 3, 45, 63
5, 15004, Note_off_c, 3, 45, 0
5, 15024, Note_on_c, 3, 46, 64
5, 15704, Note_off_c, 3, 46, 0
5, 15704, Note_on_c, 3, 46, 64
5, 15772, Note_off_c, 3, 46, 0
5, 15792, Note_on_c, 3, 45, 63
5, 16028, Note_off_c, 3, 45, 0
5, 16088, Note_on_c, 3, 43, 61
5, 16156, Note_off_c, 3, 43, 0
5, 16176, Note_on_c, 3, 41, 60
5, 16548, Note_off_c, 3, 41, 0
5, 16560, Note_on_c, 3, 40, 60
5, 16892, Note_off_c, 3, 40, 0
5, 16944, Note_on_c, 3, 38, 58
5, 17180, Note_off_c, 3, 38, 0
5, 17240, Note_on_c, 3, 50, 67
5, 17308, Note_off_c, 3, 50, 0
5, 17328, Note_on_c, 3, 52, 68
5, 17564, Note_off_c, 3, 52, 0
5, 17624, Note_on_c, 3, 53, 69
5, 17692, Note_off_c, 3, 53, 0
5, 17712, Note_on_c, 3, 55, 71
5, 17948, Note_off_c, 3, 55, 0
5, 18008, Note_on_c, 3, 58, 74
5, 18076, Note_off_c, 3, 58, 0
5, 18096, Note_on_c, 3, 57, 72
5, 18332, Note_off_c, 3, 57, 0
5, 18392, Note_on_c, 3, 55, 71
5, 18460, Note_off_c, 3, 55, 0
5, 18480, Note_on_c, 3, 53, 69
5, 18716, Note_off_c, 3, 53, 0
5, 18776, Note_on_c, 3, 55, 71
5, 18844, Note_off_c, 3, 55, 0
5, 18864, Note_on_c, 3, 53, 69
5, 19100, Note_off_c, 3, 53, 0
5, 19156, Note_on_c, 3, 52, 68
5, 19228, Note_off_c, 3, 52, 0
5, 19248, Note_on_c, 3, 50, 66
5, 19484, Note_off_c, 3, 50, 0
5, 19540, Note_on_c, 3, 52, 68
5, 19612, Note_off_c, 3, 52, 0
5, 19632, Note_on_c, 3, 53, 69
5, 19868, Note_off_c, 3, 53, 0
5, 19924, Note_on_c, 3, 55, 71
5, 19996, Note_off_c, 3, 55, 0
5, 20016, Note_on_c, 3, 57, 74
5, 20784, Note_off_c, 3, 57, 0
5, 20784, Note_on_c, 3, 53, 71
5, 21844, Note_off_c, 3, 53, 0
5, 21844, Note_on_c, 3, 53, 69
5, 21912, Note_off_c, 3, 53, 0
5, 21932, Note_on_c, 3, 52, 68
5, 22168, Note_off_c, 3, 52, 0
5, 22228, Note_on_c, 3, 50, 67
5, 22296, Note_off_c, 3, 50, 0
5, 22316, Note_on_c, 3, 48, 66
5, 22688, Note_off_c, 3, 48, 0
5, 22700, Note_on_c, 3, 47, 65
5, 23072, Note_off_c, 3, 47, 0
5, 23380, Note_on_c, 3, 45, 63
5, 23448, Note_off_c, 3, 45, 0
5, 23468, Note_on_c, 3, 47, 64
5, 23704, Note_off_c, 3, 47, 0
5, 23764, Note_on_c, 3, 48, 65
5, 23832, Note_off_c, 3, 48, 0
5, 23852, Note_on_c, 3, 50, 67
5, 24224, Note_off_c, 3, 50, 0
5, 24236, Note_on_c, 3, 52, 69
5, 24608, Note_off_c, 3, 52, 0
5, 24620, Note_on_c, 3, 53, 71
5, 25632, Note_off_c, 3, 53, 0
5, 25684, Note_on_c, 3, 52, 68
5, 25752, Note_off_c, 3, 52, 0
5, 25772, Note_on_c, 3, 50, 66
5, 26008, Note_off_c, 3, 50, 0
5, 26068, Note_on_c, 3, 49, 66
5, 26136, Note_off_c, 3, 49, 0
5, 26156, Note_on_c, 3, 50, 68
5, 27168, Note_off_c, 3, 50, 0
5, 27216, Note_on_c, 3, 48, 65
5, 27288, Note_off_c, 3, 48, 0
5, 27308, Note_on_c, 3, 46, 63
5, 27544, Note_off_c, 3, 46, 0
5, 27600, Note_on_c, 3, 45, 63
5, 27672, Note_off_c, 3, 45, 0
5, 27692, Note_on_c, 3, 46, 65
5, 28704, Note_off_c, 3, 46, 0
5, 28752, Note_on_c, 3, 45, 63
5, 28824, Note_off_c, 3, 45, 0
5, 28844, Note_on_c, 3, 43, 61
5, 29080, Note_off_c, 3, 43, 0
5, 29136, Note_on_c, 3, 42, 61
5, 29208, Note_off_c, 3, 42, 0
5, 29228, Note_on_c, 3, 43, 63
5, 30624, Note_off_c, 3, 43, 0
5, 30672, Note_on_c, 3, 41, 60
5, 30744, Note_off_c, 3, 41, 0
5, 30760, Note_on_c, 3, 40, 60
5, 33064, Note_off_c, 3, 40, 0
5, 33064, Note_on_c, 3, 52, 70
5, 33836, Note_off_c, 3, 52, 0
5, 33836, Note_on_c, 3, 45, 63
5, 34208, Note_off_c, 3, 45, 0
5, 35664, Note_on_c, 3, 50, 67
5, 35736, Note_off_c, 3, 50, 0
5, 35752, Note_on_c, 3, 52, 68
5, 35992, Note_off_c, 3, 52, 0
5, 36048, Note_on_c, 3, 53, 69
5, 36120, Note_off_c, 3, 53, 0
5, 36136, Note_on_c, 3, 55, 71
5, 36376, Note_off_c, 3, 55, 0
5, 36432, Note_on_c, 3, 57, 73
5, 36504, Note_off_c, 3, 57, 0
5, 36520, Note_on_c, 3, 55, 71
5, 36760, Note_off_c, 3, 55, 0
5, 36816, Note_on_c, 3, 53, 69
5, 36888, Note_off_c, 3, 53, 0
5, 36904, Note_on_c, 3, 52, 68
5, 37144, Note_off_c, 3, 52, 0
5, 37200, Note_on_c, 3, 58, 74
5, 37272, Note_off_c, 3, 58, 0
5, 37288, Note_on_c, 3, 57, 72
5, 37528, Note_off_c, 3, 57, 0
5, 37584, Note_on_c, 3, 55, 71
5, 37656, Note_off_c, 3, 55, 0
5, 37672, Note_on_c, 3, 53, 69
5, 37912, Note_off_c, 3, 53, 0
5, 37968, Note_on_c, 3, 52, 68
5, 38040, Note_off_c, 3, 52, 0
5, 38056, Note_on_c, 3, 50, 66
5, 38296, Note_off_c, 3, 50, 0
5, 38352, Note_on_c, 3, 49, 66
5, 38424, Note_off_c, 3, 49, 0
5, 38440, Note_on_c, 3, 50, 67
5, 38812, Note_off_c, 3, 50, 0
5, 38824, Note_on_c, 3, 53, 70
5, 39196, Note_off_c, 3, 53, 0
5, 39208, Note_on_c, 3, 47, 65
5, 39580, Note_off_c, 3, 47, 0
5, 39592, Note_on_c, 3, 52, 69
5, 39964, Note_off_c, 3, 52, 0
5, 39976, Note_on_c, 3, 45, 64
5, 40744, Note_off_c, 3, 45, 0
5, 40744, Note_on_c, 3, 50, 68
5, 41780, Note_off_c, 3, 50, 0
5, 41808, Note_on_c, 3, 47, 64
5, 41876, Note_off_c, 3, 47, 0
5, 41896, Note_on_c, 3, 52, 68
5, 42132, Note_off_c, 3, 52, 0
5, 42192, Note_on_c, 3, 50, 67
5, 42260, Note_off_c, 3, 50, 0
5, 42280, Note_on_c, 3, 48, 66
5, 42652, Note_off_c, 3, 48, 0
5, 42664, Note_on_c, 3, 47, 65
5, 43036, Note_off_c, 3, 47, 0
5, 43048, Note_on_c, 3, 45, 63
5, 43420, Note_off_c, 3, 45, 0
5, 46120, Note_on_c, 3, 50, 68
5, 46888, Note_off_c, 3, 50, 0
5, 46888, Note_on_c, 3, 57, 74
5, 47652, Note_off_c, 3, 57, 0
5, 47652, Note_on_c, 3, 53, 71
5, 48420, Note_off_c, 3, 53, 0
5, 48420, Note_on_c, 3, 50, 68
5, 49188, Note_off_c, 3, 50, 0
5, 49188, Note_on_c, 3, 49, 67
5, 49904, Note_off_c, 3, 49, 0
5, 49956, Note_on_c, 3, 50, 67
5, 50328, Note_off_c, 3, 50, 0
5, 50340, Note_on_c, 3, 52, 69
5, 50712, Note_off_c, 3, 52, 0
5, 50724, Note_on_c, 3, 53, 71
5, 51736, Note_off_c, 3, 53, 0
5, 51788, Note_on_c, 3, 55, 71
5, 51856, Note_off_c, 3, 55, 0
5, 51876, Note_on_c, 3, 53, 69
5, 52112, Note_off_c, 3, 53, 0
5, 52172, Note_on_c, 3, 52, 68
5, 52240, Note_off_c, 3, 52, 0
5, 52260, Note_on_c, 3, 50, 67
5, 52632, Note_off_c, 3, 50, 0
5, 54180, Note_on_c, 3, 55, 73
5, 54808, Note_off_c, 3, 55, 0
5, 54856, Note_on_c, 3, 53, 69
5, 54928, Note_off_c, 3, 53, 0
5, 54948, Note_on_c, 3, 52, 68
5, 55184, Note_off_c, 3, 52, 0
5, 55240, Note_on_c, 3, 50, 67
5, 55312, Note_off_c, 3, 50, 0
5, 55332, Note_on_c, 3, 52, 70
5, 56100, Note_off_c, 3, 52, 0
5, 60232, Note_on_c, 3, 53, 69
5, 60304, Note_off_c, 3, 53, 0
5, 60320, Note_on_c, 3, 52, 68
5, 60556, Note_off_c, 3, 52, 0
5, 60616, Note_on_c, 3, 50, 67
5, 60688, Note_off_c, 3, 50, 0
5, 60704, Note_on_c, 3, 48, 66
5, 61076, Note_off_c, 3, 48, 0
5, 61088, Note_on_c, 3, 53, 70
5, 61844, Note_off_c, 3, 53, 0
5, 61856, Note_on_c, 3, 54, 72
5, 62572, Note_off_c, 3, 54, 0
5, 62624, Note_on_c, 3, 56, 74
5, 62996, Note_off_c, 3, 56, 0
5, 63008, Note_on_c, 3, 57, 74
5, 63776, Note_off_c, 3, 57, 0
5, 77120, Note_on_c, 3, 51, 68
5, 77192, Note_off_c, 3, 51, 0
5, 77208, Note_on_c, 3, 50, 66
5, 77448, Note_off_c, 3, 50, 0
5, 77504, Note_on_c, 3, 48, 65
5, 77576, Note_off_c, 3, 48, 0
5, 77592, Note_on_c, 3, 46, 63
5, 77832, Note_off_c, 3, 46, 0
5, 77888, Note_on_c, 3, 45, 63
5, 77960, Note_off_c, 3, 45, 0
5, 77976, Note_on_c, 3, 43, 61
5, 78216, Note_off_c, 3, 43, 0
5, 78272, Note_on_c, 3, 42, 61
5, 78344, Note_off_c, 3, 42, 0
5, 78360, Note_on_c, 3, 43, 61
5, 78600, Note_off_c, 3, 43, 0
5, 78656, Note_on_c, 3, 55, 71
5, 78728, Note_off_c, 3, 55, 0
5, 78744, Note_on_c, 3, 54, 70
5, 78984, Note_off_c, 3, 54, 0
5, 79040, Note_on_c, 3, 55, 71
5, 79112, Note_off_c, 3, 55, 0
5, 79128, Note_on_c, 3, 48, 67
5, 80664, Note_off_c, 3, 48, 0
5, 80664, Note_on_c, 3, 53, 71
5, 81432, Note_off_c, 3, 53, 0
5, 81432, Note_on_c, 3, 50, 68
5, 82200, Note_off_c, 3, 50, 0
5, 82200, Note_on_c, 3, 46, 65
5, 82968, Note_off_c, 3, 46, 0
5, 82968, Note_on_c, 3, 45, 64
5, 83684, Note_off_c, 3, 45, 0
5, 83736, Note_on_c, 3, 46, 64
5, 84108, Note_off_c, 3, 46, 0
5, 84120, Note_on_c, 3, 48, 66
5, 84492, Note_off_c, 3, 48, 0
5, 84504, Note_on_c, 3, 50, 68
5, 85516, Note_off_c, 3, 50, 0
5, 85568, Note_on_c, 3, 51, 68
5, 85636, Note_off_c, 3, 51, 0
5, 85656, Note_on_c, 3, 50, 66
5, 85892, Note_off_c, 3, 50, 0
5, 85948, Note_on_c, 3, 48, 65
5, 86020, Note_off_c, 3, 48, 0
5, 86040, Note_on_c, 3, 46, 63
5, 86276, Note_off_c, 3, 46, 0
5, 86332, Note_on_c, 3, 58, 74
5, 86404, Note_off_c, 3, 58, 0
5, 86424, Note_on_c, 3, 57, 72
5, 86660, Note_off_c, 3, 57, 0
5, 86716, Note_on_c, 3, 58, 74
5, 86788, Note_off_c, 3, 58, 0
5, 86808, Note_on_c, 3, 52, 69
5, 87176, Note_off_c, 3, 52, 0
5, 87192, Note_on_c, 3, 54, 71
5, 87560, Note_off_c, 3, 54, 0
5, 87576, Note_on_c, 3, 55, 73
5, 88584, Note_off_c, 3, 55, 0
5, 88636, Note_on_c, 3, 53, 69
5, 88704, Note_off_c, 3, 53, 0
5, 88724, Note_on_c, 3, 52, 68
5, 88960, Note_off_c, 3, 52, 0
5, 89020, Note_on_c, 3, 50, 67
5, 89088, Note_off_c, 3, 50, 0
5, 89108, Note_on_c, 3, 58, 75
5, 90644, Note_off_c, 3, 58, 0
5, 90644, Note_on_c, 3, 57, 73
5, 91016, Note_off_c, 3, 57, 0
5, 92180, Note_on_c, 3, 50, 68
5, 92948, Note_off_c, 3, 50, 0
5, 92948, Note_on_c, 3, 57, 74
5, 93716, Note_off_c, 3, 57, 0
5, 93716, Note_on_c, 3, 53, 71
5, 94484, Note_off_c, 3, 53, 0
5, 94484, Note_on_c, 3, 50, 68
5, 95252, Note_off_c, 3, 50, 0
5, 95252, Note_on_c, 3, 49, 67
5, 95968, Note_off_c, 3, 49, 0
5, 96020, Note_on_c, 3, 50, 67
5, 96392, Note_off_c, 3, 50, 0
5, 96400, Note_on_c, 3, 52, 69
5, 96776, Note_off_c, 3, 52, 0
5, 96784, Note_on_c, 3, 53, 71
5, 97800, Note_off_c, 3, 53, 0
5, 97848, Note_on_c, 3, 55, 71
5, 97920, Note_off_c, 3, 55, 0
5, 97936, Note_on_c, 3, 53, 69
5, 98176, Note_off_c, 3, 53, 0
5, 98232, Note_on_c, 3, 52, 68
5, 98304, Note_off_c, 3, 52, 0
5, 98320, Note_on_c, 3, 50, 68
5, 99336, Note_off_c, 3, 50, 0
5, 99384, Note_on_c, 3, 51, 68
5, 99456, Note_off_c, 3, 51, 0
5, 99472, Note_on_c, 3, 50, 66
5, 99712, Note_off_c, 3, 50, 0
5, 99768, Note_on_c, 3, 48, 65
5, 99840, Note_off_c, 3, 48, 0
5, 99856, Note_on_c, 3, 46, 65
5, 100868, Note_off_c, 3, 46, 0
5, 100920, Note_on_c, 3, 48, 65
5, 100992, Note_off_c, 3, 48, 0
5, 101008, Note_on_c, 3, 46, 63
5, 101244, Note_off_c, 3, 46, 0
5, 101304, Note_on_c, 3, 45, 63
5, 101376, Note_off_c, 3, 45, 0
5, 101392, Note_on_c, 3, 43, 61
5, 101628, Note_off_c, 3, 43, 0
5, 101688, Note_on_c, 3, 50, 67
5, 101760, Note_off_c, 3, 50, 0
5, 101776, Note_on_c, 3, 52, 68
5, 102012, Note_off_c, 3, 52, 0
5, 102072, Note_on_c, 3, 54, 70
5, 102140, Note_off_c, 3, 54, 0
5, 102160, Note_on_c, 3, 55, 71
5, 102396, Note_off_c, 3, 55, 0
5, 102456, Note_on_c, 3, 57, 73
5, 102524, Note_off_c, 3, 57, 0
5, 102544, Note_on_c, 3, 55, 71
5, 102780, Note_off_c, 3, 55, 0
5, 102840, Note_on_c, 3, 53, 69
5, 102908, Note_off_c, 3, 53, 0
5, 102928, Note_on_c, 3, 52, 69
5, 103300, Note_off_c, 3, 52, 0
5, 103312, Note_on_c, 3, 57, 73
5, 103684, Note_off_c, 3, 57, 0
5, 103696, Note_on_c, 3, 50, 67
5, 104068, Note_off_c, 3, 50, 0
5, 104080, Note_on_c, 3, 55, 72
5, 104452, Note_off_c, 3, 55, 0
5, 104464, Note_on_c, 3, 49, 67
5, 105232, Note_off_c, 3, 49, 0
5, 105232, Note_on_c, 3, 50, 68
5, 106000, Note_off_c, 3, 50, 0
5, 106000, Note_on_c, 3, 52, 70
5, 106768, Note_off_c, 3, 52, 0
5, 106768, Note_on_c, 3, 53, 71
5, 107536, Note_off_c, 3, 53, 0
5, 107536, Note_on_c, 3, 47, 66
5, 108304, Note_off_c, 3, 47, 0
5, 108304, Note_on_c, 3, 48, 67
5, 109440, Note_off_c, 3, 48, 0
5, 109456, Note_on_c, 3, 50, 67
5, 109824, Note_off_c, 3, 50, 0
5, 109836, Note_on_c, 3, 52, 70
5, 110552, Note_off_c, 3, 52, 0
5, 110604, Note_on_c, 3, 53, 70
5, 110976, Note_off_c, 3, 53, 0
5, 110988, Note_on_c, 3, 50, 67
5, 111360, Note_off_c, 3, 50, 0
5, 111372, Note_on_c, 3, 55, 73
5, 112512, Note_off_c, 3, 55, 0
5, 112524, Note_on_c, 3, 49, 67
5, 112896, Note_off_c, 3, 49, 0
5, 112908, Note_on_c, 3, 50, 67
5, 113280, Note_off_c, 3, 50, 0
5, 113292, Note_on_c, 3, 45, 63
5, 113664, Note_off_c, 3, 45, 0
5, 113676, Note_on_c, 3, 46, 65
5, 114776, Note_off_c, 3, 46, 0
5, 114828, Note_on_c, 3, 43, 62
5, 115200, Note_off_c, 3, 43, 0
5, 115212, Note_on_c, 3, 45, 64
5, 118232, Note_off_c, 3, 45, 0
5, 118280, Note_on_c, 3, 45, 64
5, 119344, Note_off_c, 3, 45, 0
5, 119344, Note_on_c, 3, 46, 64
5, 119416, Note_off_c, 3, 46, 0
5, 119432, Note_on_c, 3, 45, 63
5, 119672, Note_off_c, 3, 45, 0
5, 119728, Note_on_c, 3, 43, 61
5, 120056, Note_off_c, 3, 43, 0
5, 120112, Note_on_c, 3, 45, 63
5, 120184, Note_off_c, 3, 45, 0
5, 120200, Note_on_c, 3, 43, 61
5, 120468, Note_off_c, 3, 43, 0
5, 120496, Note_on_c, 3, 41, 60
5, 120824, Note_off_c, 3, 41, 0
5, 120880, Note_on_c, 3, 43, 61
5, 120948, Note_off_c, 3, 43, 0
5, 120968, Note_on_c, 3, 41, 60
5, 121208, Note_off_c, 3, 41, 0
5, 121264, Note_on_c, 3, 40, 59
5, 121332, Note_off_c, 3, 40, 0
5, 121352, Note_on_c, 3, 38, 58
5, 121724, Note_off_c, 3, 38, 0
5, 122416, Note_on_c, 3, 40, 59
5, 122484, Note_off_c, 3, 40, 0
5, 122504, Note_on_c, 3, 41, 60
5, 122740, Note_off_c, 3, 41, 0
5, 122800, Note_on_c, 3, 43, 61
5, 122868, Note_off_c, 3, 43, 0
5, 122888, Note_on_c, 3, 45, 64
5, 123900, Note_off_c, 3, 45, 0
5, 123952, Note_on_c, 3, 46, 64
5, 124020, Note_off_c, 3, 46, 0
5, 124040, Note_on_c, 3, 45, 63
5, 124276, Note_off_c, 3, 45, 0
5, 124336, Note_on_c, 3, 43, 61
5, 124404, Note_off_c, 3, 43, 0
5, 124424, Note_on_c, 3, 45, 63
5, 124660, Note_off_c, 3, 45, 0
5, 124720, Note_on_c, 3, 41, 60
5, 124788, Note_off_c, 3, 41, 0
5, 124808, Note_on_c, 3, 40, 59
5, 125044, Note_off_c, 3, 40, 0
5, 125104, Note_on_c, 3, 38, 58
5, 125172, Note_off_c, 3, 38, 0
5, 125192, Note_on_c, 3, 43, 62
5, 125560, Note_off_c, 3, 43, 0
5, 125576, Note_on_c, 3, 45, 63
5, 125904, Note_off_c, 3, 45, 0
5, 125960, Note_on_c, 3, 46, 63
5, 126196, Note_off_c, 3, 46, 0
5, 126252, Note_on_c, 3, 48, 65
5, 126324, Note_off_c, 3, 48, 0
5, 126344, Note_on_c, 3, 46, 63
5, 126580, Note_off_c, 3, 46, 0
5, 126636, Note_on_c, 3, 45, 63
5, 126708, Note_off_c, 3, 45, 0
5, 126728, Note_on_c, 3, 43, 61
5, 126964, Note_off_c, 3, 43, 0
5, 127020, Note_on_c, 3, 45, 63
5, 127092, Note_off_c, 3, 45, 0
5, 127112, Note_on_c, 3, 46, 63
5, 127332, Note_off_c, 3, 46, 0
5, 127392, Note_on_c, 3, 43, 61
5, 127504, Note_off_c, 3, 43, 0
5, 127504, Note_on_c, 3, 50, 68
5, 128336, Note_off_c, 3, 50, 0
5, 128388, Note_on_c, 3, 38, 59
5, 129792, Note_off_c, 3, 38, 64
5, 129792, End_track
6, 0, Start_track
6, 0, Key_signature, 0, "major"
6, 0, End_track
7, 0, Start_track
7, 0, Key_signature, 0, "major"
7, 0, End_track
8, 0, Start_track
8, 0, Key_signature, 0, "major"
8, 0, End_track
9, 0, Start_track
9, 1, Copyright_t, "___________________________________________________\012\012KUNSTDERFUGE.COM LARGE CLASSICAL MIDI COLLECTION\012ONCLASSICAL BY ALESSANDRO SIMONETTO, PROPRIETOR\012___________________________________________________\012\012! Attention: this file is under copyright !\012\012(c)onclassical, (c)onclassical, 2010\012___________________________________________________\012\012NO ONE MAY REPUBLISH THIS FILE WITHOUT PERMISSION\012COMMERCIAL USES OF THIS FILE IS STRICTLY PROHIBITED\012___________________________________________________\012\012Files & contributor's list: http://kunstderfuge.com/\012Terms and conditions: http://kunstderfuge.com/notes.htm"
9, 1, End_track
0, 0, End_of_file