0, 0, Header, 1, 14, 384
1, 0, Start_track
1, 0, Time_signature, 3, 3, 96, 8
1, 0, Sequencer_specific, 03, 00, 00, 41
1, 0, Sequencer_specific, 05, 00, 00, 77, 0E, 00
1, 0, Tempo, 750000
1, 8832, Tempo, 923076
1, 8834, Tempo, 923076
1, 8838, Tempo, 909090
1, 8840, Tempo, 909090
1, 8844, Tempo, 895522
1, 8848, Tempo, 895522
1, 8850, Tempo, 882352
1, 8854, Tempo, 882352
1, 8856, Tempo, 869565
1, 8860, Tempo, 869565
1, 8864, Tempo, 857142
1, 8866, Tempo, 857142
1, 8870, Tempo, 845070
1, 8872, Tempo, 845070
1, 8876, Tempo, 833333
1, 8880, Tempo, 833333
1, 8882, Tempo, 821917
1, 8886, Tempo, 821917
1, 8888, Tempo, 810810
1, 8892, Tempo, 810810
1, 8896, Tempo, 800000
1, 8898, Tempo, 800000
1, 8902, Tempo, 789473
1, 8904, Tempo, 789473
1, 8908, Tempo, 779220
1, 8912, Tempo, 779220
1, 8914, Tempo, 769230
1, 8918, Tempo, 769230
1, 8920, Tempo, 759493
1, 8924, Tempo, 759493
1, 8928, Tempo, 750000
1, 9216, Tempo, 750000
1, 18048, Tempo, 1000000
1, 18050, Tempo, 1000000
1, 18052, Tempo, 983606
1, 18054, Tempo, 983606
1, 18056, Tempo, 967741
1, 18060, Tempo, 967741
1, 18062, Tempo, 952380
1, 18064, Tempo, 952380
1, 18066, Tempo, 937500
1, 18068, Tempo, 937500
1, 18072, Tempo, 923076
1, 18074, Tempo, 923076
1, 18076, Tempo, 909090
1, 18078, Tempo, 909090
1, 18080, Tempo, 895522
1, 18084, Tempo, 895522
1, 18086, Tempo, 882352
1, 18088, Tempo, 882352
1, 18090, Tempo, 869565
1, 18092, Tempo, 869565
1, 18096, Tempo, 857142
1, 18098, Tempo, 857142
1, 18100, Tempo, 845070
1, 18102, Tempo, 845070
1, 18104, Tempo, 833333
1, 18108, Tempo, 833333
1, 18110, Tempo, 821917
1, 18112, Tempo, 821917
1, 18114, Tempo, 810810
1, 18116, Tempo, 810810
1, 18120, Tempo, 800000
1, 18122, Tempo, 800000
1, 18124, Tempo, 789473
1, 18126, Tempo, 789473
1, 18128, Tempo, 779220
1, 18132, Tempo, 779220
1, 18134, Tempo, 769230
1, 18136, Tempo, 769230
1, 18138, Tempo, 759493
1, 18140, Tempo, 759493
1, 18144, Tempo, 750000
1, 27264, Tempo, 923076
1, 27266, Tempo, 923076
1, 27270, Tempo, 909090
1, 27272, Tempo, 909090
1, 27276, Tempo, 895522
1, 27280, Tempo, 895522
1, 27282, Tempo, 882352
1, 27286, Tempo, 882352
1, 27288, Tempo, 869565
1, 27292, Tempo, 869565
1, 27296, Tempo, 857142
1, 27298, Tempo, 857142
1, 27302, Tempo, 845070
1, 27304, Tempo, 845070
1, 27308, Tempo, 833333
1, 27312, Tempo, 833333
1, 27314, Tempo, 821917
1, 27318, Tempo, 821917
1, 27320, Tempo, 810810
1, 27324, Tempo, 810810
1, 27328, Tempo, 800000
1, 27330, Tempo, 800000
1, 27334, Tempo, 789473
1, 27336, Tempo, 789473
1, 27340, Tempo, 779220
1, 27344, Tempo, 779220
1, 27346, Tempo, 769230
1, 27350, Tempo, 769230
1, 27352, Tempo, 759493
1, 27356, Tempo, 759493
1, 27360, Tempo, 750000
1, 34752, Tempo, 750000
1, 34812, Tempo, 759493
1, 34874, Tempo, 759493
1, 34936, Tempo, 769230
1, 34996, Tempo, 769230
1, 35058, Tempo, 779220
1, 35120, Tempo, 779220
1, 35182, Tempo, 789473
1, 35242, Tempo, 789473
1, 35304, Tempo, 800000
1, 35366, Tempo, 800000
1, 35426, Tempo, 810810
1, 35488, Tempo, 810810
1, 35550, Tempo, 821917
1, 35612, Tempo, 821917
1, 35672, Tempo, 833333
1, 35734, Tempo, 833333
1, 35796, Tempo, 845070
1, 35856, Tempo, 845070
1, 35918, Tempo, 857142
1, 35980, Tempo, 857142
1, 36042, Tempo, 869565
1, 36102, Tempo, 869565
1, 36164, Tempo, 882352
1, 36226, Tempo, 882352
1, 36288, Tempo, 895522
1, 36294, Tempo, 895522
1, 36302, Tempo, 909090
1, 36310, Tempo, 909090
1, 36318, Tempo, 923076
1, 36326, Tempo, 923076
1, 36334, Tempo, 937500
1, 36340, Tempo, 937500
1, 36348, Tempo, 952380
1, 36356, Tempo, 952380
1, 36364, Tempo, 967741
1, 36372, Tempo, 967741
1, 36380, Tempo, 983606
1, 36386, Tempo, 983606
1, 36394, Tempo, 1000000
1, 36402, Tempo, 1000000
1, 36410, Tempo, 1016949
1, 36418, Tempo, 1016949
1, 36426, Tempo, 1034482
1, 36432, Tempo, 1034482
1, 36440, Tempo, 1052631
1, 36448, Tempo, 1052631
1, 36456, Tempo, 1071428
1, 36464, Tempo, 1071428
1, 36472, Tempo, 1090909
1, 36480, Tempo, 1090909
1, 36480, End_track
2, 0, Start_track
2, 0, Title_t, "Johann Sebastian Bach"
2, 0, Control_c, 0, 0, 0
2, 0, Program_c, 0, 6
2, 0, Control_c, 0, 7, 127
2, 0, Control_c, 0, 10, 0
2, 0, Control_c, 0, 91, 127
2, 0, Key_signature, 1, "major"
2, 192, Note_on_c, 0, 71, 127
2, 252, Note_off_c, 0, 71, 100
2, 384, Note_on_c, 0, 67, 127
2, 444, Note_off_c, 0, 67, 100
2, 576, Note_on_c, 0, 74, 127
2, 636, Note_off_c, 0, 74, 100
2, 768, Note_on_c, 0, 69, 127
2, 828, Note_off_c, 0, 69, 100
2, 960, Note_on_c, 0, 74, 127
2, 1020, Note_off_c, 0, 74, 100
2, 1152, Note_on_c, 0, 79, 127
2, 1916, Note_off_c, 0, 79, 100
2, 1920, Note_on_c, 0, 78, 127
2, 2108, Note_off_c, 0, 78, 100
2, 3648, Note_on_c, 0, 69, 127
2, 3708, Note_off_c, 0, 69, 100
2, 3840, Note_on_c, 0, 72, 127
2, 4124, Note_off_c, 0, 72, 100
2, 4128, Note_on_c, 0, 69, 127
2, 4220, Note_off_c, 0, 69, 100
2, 4224, Note_on_c, 0, 71, 127
2, 4284, Note_off_c, 0, 71, 100
2, 4800, Note_on_c, 0, 76, 127
2, 4860, Note_off_c, 0, 76, 100
2, 4992, Note_on_c, 0, 79, 127
2, 5052, Note_off_c, 0, 79, 100
2, 5184, Note_on_c, 0, 73, 127
2, 5244, Note_off_c, 0, 73, 100
2, 5376, Note_on_c, 0, 81, 127
2, 5632, Note_off_c, 0, 81, 100
2, 5760, Note_on_c, 0, 74, 127
2, 5820, Note_off_c, 0, 74, 100
2, 5952, Note_on_c, 0, 79, 127
2, 6332, Note_off_c, 0, 79, 100
2, 6528, Note_on_c, 0, 78, 127
2, 6588, Note_off_c, 0, 78, 100
2, 6720, Note_on_c, 0, 76, 127
2, 7100, Note_off_c, 0, 76, 100
2, 7104, Note_on_c, 0, 74, 127
2, 7164, Note_off_c, 0, 74, 100
2, 7296, Note_on_c, 0, 72, 127
2, 7552, Note_off_c, 0, 72, 100
2, 7680, Note_on_c, 0, 71, 127
2, 8060, Note_off_c, 0, 71, 100
2, 8064, Note_on_c, 0, 69, 127
2, 8124, Note_off_c, 0, 69, 100
2, 8256, Note_on_c, 0, 74, 127
2, 8316, Note_off_c, 0, 74, 100
2, 8448, Note_on_c, 0, 73, 127
2, 8828, Note_off_c, 0, 73, 100
2, 8832, Note_on_c, 0, 74, 127
2, 9020, Note_off_c, 0, 74, 100
2, 9408, Note_on_c, 0, 71, 112
2, 9468, Note_off_c, 0, 71, 100
2, 9600, Note_on_c, 0, 67, 112
2, 9660, Note_off_c, 0, 67, 100
2, 9792, Note_on_c, 0, 74, 112
2, 9852, Note_off_c, 0, 74, 100
2, 9984, Note_on_c, 0, 69, 112
2, 10044, Note_off_c, 0, 69, 100
2, 10176, Note_on_c, 0, 74, 112
2, 10236, Note_off_c, 0, 74, 100
2, 10368, Note_on_c, 0, 79, 112
2, 11132, Note_off_c, 0, 79, 100
2, 11136, Note_on_c, 0, 78, 112
2, 11324, Note_off_c, 0, 78, 100
2, 12864, Note_on_c, 0, 69, 112
2, 12924, Note_off_c, 0, 69, 100
2, 13056, Note_on_c, 0, 72, 112
2, 13340, Note_off_c, 0, 72, 100
2, 13344, Note_on_c, 0, 69, 112
2, 13436, Note_off_c, 0, 69, 100
2, 13440, Note_on_c, 0, 71, 112
2, 13500, Note_off_c, 0, 71, 100
2, 14016, Note_on_c, 0, 76, 112
2, 14076, Note_off_c, 0, 76, 100
2, 14208, Note_on_c, 0, 79, 112
2, 14268, Note_off_c, 0, 79, 100
2, 14400, Note_on_c, 0, 73, 112
2, 14460, Note_off_c, 0, 73, 100
2, 14592, Note_on_c, 0, 81, 112
2, 14848, Note_off_c, 0, 81, 100
2, 14976, Note_on_c, 0, 74, 112
2, 15036, Note_off_c, 0, 74, 100
2, 15168, Note_on_c, 0, 79, 112
2, 15548, Note_off_c, 0, 79, 100
2, 15744, Note_on_c, 0, 78, 112
2, 15804, Note_off_c, 0, 78, 100
2, 15936, Note_on_c, 0, 76, 112
2, 16316, Note_off_c, 0, 76, 100
2, 16320, Note_on_c, 0, 74, 112
2, 16380, Note_off_c, 0, 74, 100
2, 16512, Note_on_c, 0, 72, 112
2, 16768, Note_off_c, 0, 72, 100
2, 16896, Note_on_c, 0, 71, 112
2, 17276, Note_off_c, 0, 71, 100
2, 17280, Note_on_c, 0, 69, 112
2, 17340, Note_off_c, 0, 69, 100
2, 17472, Note_on_c, 0, 74, 112
2, 17532, Note_off_c, 0, 74, 100
2, 17664, Note_on_c, 0, 73, 112
2, 18044, Note_off_c, 0, 73, 100
2, 18048, Note_on_c, 0, 74, 112
2, 18236, Note_off_c, 0, 74, 100
2, 19200, Note_on_c, 0, 74, 127
2, 19260, Note_off_c, 0, 74, 100
2, 19392, Note_on_c, 0, 71, 127
2, 19452, Note_off_c, 0, 71, 100
2, 19584, Note_on_c, 0, 67, 127
2, 19644, Note_off_c, 0, 67, 100
2, 19776, Note_on_c, 0, 69, 127
2, 19836, Note_off_c, 0, 69, 100
2, 19968, Note_on_c, 0, 72, 127
2, 20028, Note_off_c, 0, 72, 100
2, 20160, Note_on_c, 0, 66, 127
2, 20284, Note_off_c, 0, 66, 100
2, 20928, Note_on_c, 0, 71, 127
2, 20988, Note_off_c, 0, 71, 100
2, 21120, Note_on_c, 0, 67, 127
2, 21180, Note_off_c, 0, 67, 100
2, 21312, Note_on_c, 0, 64, 127
2, 21372, Note_off_c, 0, 64, 100
2, 21504, Note_on_c, 0, 66, 127
2, 21564, Note_off_c, 0, 66, 100
2, 21696, Note_on_c, 0, 67, 127
2, 21756, Note_off_c, 0, 67, 100
2, 21888, Note_on_c, 0, 66, 127
2, 22460, Note_off_c, 0, 66, 100
2, 22464, Note_on_c, 0, 64, 127
2, 22844, Note_off_c, 0, 64, 100
2, 23232, Note_on_c, 0, 69, 127
2, 23292, Note_off_c, 0, 69, 100
2, 23424, Note_on_c, 0, 72, 127
2, 23484, Note_off_c, 0, 72, 100
2, 23616, Note_on_c, 0, 66, 127
2, 23676, Note_off_c, 0, 66, 100
2, 23808, Note_on_c, 0, 67, 127
2, 23868, Note_off_c, 0, 67, 100
2, 24000, Note_on_c, 0, 71, 127
2, 24060, Note_off_c, 0, 71, 100
2, 24192, Note_on_c, 0, 64, 127
2, 24252, Note_off_c, 0, 64, 100
2, 24384, Note_on_c, 0, 69, 127
2, 24764, Note_off_c, 0, 69, 100
2, 24960, Note_on_c, 0, 66, 127
2, 25020, Note_off_c, 0, 66, 100
2, 25152, Note_on_c, 0, 69, 127
2, 25532, Note_off_c, 0, 69, 100
2, 25536, Note_on_c, 0, 67, 127
2, 25596, Note_off_c, 0, 67, 100
2, 25728, Note_on_c, 0, 71, 127
2, 25788, Note_off_c, 0, 71, 100
2, 25920, Note_on_c, 0, 64, 127
2, 26492, Note_off_c, 0, 64, 100
2, 26496, Note_on_c, 0, 57, 127
2, 26556, Note_off_c, 0, 57, 100
2, 26688, Note_on_c, 0, 62, 127
2, 26748, Note_off_c, 0, 62, 100
2, 26880, Note_on_c, 0, 60, 127
2, 27164, Note_off_c, 0, 60, 100
2, 27168, Note_on_c, 0, 57, 127
2, 27260, Note_off_c, 0, 57, 100
2, 27264, Note_on_c, 0, 59, 127
2, 27324, Note_off_c, 0, 59, 100
2, 28416, Note_on_c, 0, 74, 112
2, 28476, Note_off_c, 0, 74, 100
2, 28608, Note_on_c, 0, 71, 112
2, 28668, Note_off_c, 0, 71, 100
2, 28800, Note_on_c, 0, 67, 112
2, 28860, Note_off_c, 0, 67, 100
2, 28992, Note_on_c, 0, 69, 112
2, 29052, Note_off_c, 0, 69, 100
2, 29184, Note_on_c, 0, 72, 112
2, 29244, Note_off_c, 0, 72, 100
2, 29376, Note_on_c, 0, 66, 112
2, 29500, Note_off_c, 0, 66, 100
2, 30144, Note_on_c, 0, 71, 112
2, 30204, Note_off_c, 0, 71, 100
2, 30336, Note_on_c, 0, 67, 112
2, 30396, Note_off_c, 0, 67, 100
2, 30528, Note_on_c, 0, 64, 112
2, 30588, Note_off_c, 0, 64, 100
2, 30720, Note_on_c, 0, 66, 112
2, 30780, Note_off_c, 0, 66, 100
2, 30912, Note_on_c, 0, 67, 112
2, 30972, Note_off_c, 0, 67, 100
2, 31104, Note_on_c, 0, 66, 112
2, 31676, Note_off_c, 0, 66, 100
2, 31680, Note_on_c, 0, 64, 112
2, 32060, Note_off_c, 0, 64, 100
2, 32448, Note_on_c, 0, 69, 112
2, 32508, Note_off_c, 0, 69, 100
2, 32640, Note_on_c, 0, 72, 112
2, 32700, Note_off_c, 0, 72, 100
2, 32832, Note_on_c, 0, 66, 112
2, 32892, Note_off_c, 0, 66, 100
2, 33024, Note_on_c, 0, 67, 112
2, 33084, Note_off_c, 0, 67, 100
2, 33216, Note_on_c, 0, 71, 112
2, 33276, Note_off_c, 0, 71, 100
2, 33408, Note_on_c, 0, 64, 112
2, 33468, Note_off_c, 0, 64, 100
2, 33600, Note_on_c, 0, 69, 112
2, 33980, Note_off_c, 0, 69, 100
2, 34176, Note_on_c, 0, 66, 112
2, 34236, Note_off_c, 0, 66, 100
2, 34368, Note_on_c, 0, 69, 112
2, 34748, Note_off_c, 0, 69, 100
2, 34752, Note_on_c, 0, 67, 112
2, 34812, Note_off_c, 0, 67, 100
2, 34944, Note_on_c, 0, 71, 112
2, 35004, Note_off_c, 0, 71, 100
2, 35136, Note_on_c, 0, 64, 112
2, 35708, Note_off_c, 0, 64, 100
2, 35712, Note_on_c, 0, 57, 112
2, 35772, Note_off_c, 0, 57, 100
2, 35904, Note_on_c, 0, 62, 112
2, 35964, Note_off_c, 0, 62, 100
2, 36096, Note_on_c, 0, 60, 112
2, 36380, Note_off_c, 0, 60, 100
2, 36384, Note_on_c, 0, 57, 112
2, 36476, Note_off_c, 0, 57, 100
2, 36480, Note_on_c, 0, 59, 112
2, 36668, Note_off_c, 0, 59, 100
2, 36668, End_track
3, 0, Start_track
3, 0, Title_t, "Goldberg Variations"
3, 0, Control_c, 1, 0, 0
3, 0, Program_c, 1, 6
3, 0, Control_c, 1, 7, 127
3, 0, Control_c, 1, 10, 127
3, 0, Control_c, 1, 91, 127
3, 0, Key_signature, 1, "major"
3, 1344, Note_on_c, 1, 67, 127
3, 1404, Note_off_c, 1, 67, 100
3, 1536, Note_on_c, 1, 72, 127
3, 1596, Note_off_c, 1, 72, 100
3, 1728, Note_on_c, 1, 71, 127
3, 1820, Note_off_c, 1, 71, 100
3, 1824, Note_on_c, 1, 67, 127
3, 1916, Note_off_c, 1, 67, 100
3, 1920, Note_on_c, 1, 69, 127
3, 2108, Note_off_c, 1, 69, 100
3, 3072, Note_on_c, 1, 60, 127
3, 3260, Note_off_c, 1, 60, 100
3, 3264, Note_on_c, 1, 64, 127
3, 3324, Note_off_c, 1, 64, 100
3, 3456, Note_on_c, 1, 57, 127
3, 3516, Note_off_c, 1, 57, 100
3, 3648, Note_on_c, 1, 62, 127
3, 4220, Note_off_c, 1, 62, 100
3, 4224, Note_on_c, 1, 67, 127
3, 4284, Note_off_c, 1, 67, 100
3, 5952, Note_on_c, 1, 73, 127
3, 6012, Note_off_c, 1, 73, 100
3, 6144, Note_on_c, 1, 76, 127
3, 6204, Note_off_c, 1, 76, 100
3, 6336, Note_on_c, 1, 69, 127
3, 6460, Note_off_c, 1, 69, 100
3, 6720, Note_on_c, 1, 67, 127
3, 7100, Note_off_c, 1, 67, 100
3, 7104, Note_on_c, 1, 66, 127
3, 7164, Note_off_c, 1, 66, 100
3, 7296, Note_on_c, 1, 69, 127
3, 7356, Note_off_c, 1, 69, 100
3, 7488, Note_on_c, 1, 62, 127
3, 7548, Note_off_c, 1, 62, 100
3, 7680, Note_on_c, 1, 64, 127
3, 7740, Note_off_c, 1, 64, 100
3, 7872, Note_on_c, 1, 67, 127
3, 7932, Note_off_c, 1, 67, 100
3, 8064, Note_on_c, 1, 61, 127
3, 8124, Note_off_c, 1, 61, 100
3, 8256, Note_on_c, 1, 69, 127
3, 8316, Note_off_c, 1, 69, 100
3, 8448, Note_on_c, 1, 67, 127
3, 8732, Note_off_c, 1, 67, 100
3, 8736, Note_on_c, 1, 64, 127
3, 8828, Note_off_c, 1, 64, 100
3, 8832, Note_on_c, 1, 66, 127
3, 9020, Note_off_c, 1, 66, 100
3, 10560, Note_on_c, 1, 67, 112
3, 10620, Note_off_c, 1, 67, 100
3, 10752, Note_on_c, 1, 72, 112
3, 10812, Note_off_c, 1, 72, 100
3, 10944, Note_on_c, 1, 71, 112
3, 11036, Note_off_c, 1, 71, 100
3, 11040, Note_on_c, 1, 67, 112
3, 11132, Note_off_c, 1, 67, 100
3, 11136, Note_on_c, 1, 69, 112
3, 11324, Note_off_c, 1, 69, 100
3, 12288, Note_on_c, 1, 60, 112
3, 12476, Note_off_c, 1, 60, 100
3, 12480, Note_on_c, 1, 64, 112
3, 12540, Note_off_c, 1, 64, 100
3, 12672, Note_on_c, 1, 57, 112
3, 12732, Note_off_c, 1, 57, 100
3, 12864, Note_on_c, 1, 62, 112
3, 13436, Note_off_c, 1, 62, 100
3, 13440, Note_on_c, 1, 67, 112
3, 13500, Note_off_c, 1, 67, 100
3, 15168, Note_on_c, 1, 73, 112
3, 15228, Note_off_c, 1, 73, 100
3, 15360, Note_on_c, 1, 76, 112
3, 15420, Note_off_c, 1, 76, 100
3, 15552, Note_on_c, 1, 69, 112
3, 15676, Note_off_c, 1, 69, 100
3, 15936, Note_on_c, 1, 67, 112
3, 16316, Note_off_c, 1, 67, 100
3, 16320, Note_on_c, 1, 66, 112
3, 16380, Note_off_c, 1, 66, 100
3, 16512, Note_on_c, 1, 69, 112
3, 16572, Note_off_c, 1, 69, 100
3, 16704, Note_on_c, 1, 62, 112
3, 16764, Note_off_c, 1, 62, 100
3, 16896, Note_on_c, 1, 64, 112
3, 16956, Note_off_c, 1, 64, 100
3, 17088, Note_on_c, 1, 67, 112
3, 17148, Note_off_c, 1, 67, 100
3, 17280, Note_on_c, 1, 61, 112
3, 17340, Note_off_c, 1, 61, 100
3, 17472, Note_on_c, 1, 69, 112
3, 17532, Note_off_c, 1, 69, 100
3, 17664, Note_on_c, 1, 67, 112
3, 17948, Note_off_c, 1, 67, 100
3, 17952, Note_on_c, 1, 64, 112
3, 18044, Note_off_c, 1, 64, 100
3, 18048, Note_on_c, 1, 66, 112
3, 18236, Note_off_c, 1, 66, 100
3, 18624, Note_on_c, 1, 78, 127
3, 18684, Note_off_c, 1, 78, 100
3, 18816, Note_on_c, 1, 74, 127
3, 18876, Note_off_c, 1, 74, 100
3, 19008, Note_on_c, 1, 79, 127
3, 19068, Note_off_c, 1, 79, 100
3, 19200, Note_on_c, 1, 83, 127
3, 19580, Note_off_c, 1, 83, 100
3, 19776, Note_on_c, 1, 81, 127
3, 19868, Note_off_c, 1, 81, 100
3, 19872, Note_on_c, 1, 79, 127
3, 19964, Note_off_c, 1, 79, 100
3, 19968, Note_on_c, 1, 78, 127
3, 20060, Note_off_c, 1, 78, 100
3, 20064, Note_on_c, 1, 76, 127
3, 20156, Note_off_c, 1, 76, 100
3, 20160, Note_on_c, 1, 75, 127
3, 20252, Note_off_c, 1, 75, 100
3, 20256, Note_on_c, 1, 76, 127
3, 20348, Note_off_c, 1, 76, 100
3, 20352, Note_on_c, 1, 78, 127
3, 20732, Note_off_c, 1, 78, 100
3, 20928, Note_on_c, 1, 76, 127
3, 20988, Note_off_c, 1, 76, 100
3, 21120, Note_on_c, 1, 79, 127
3, 21180, Note_off_c, 1, 79, 100
3, 21312, Note_on_c, 1, 73, 127
3, 21372, Note_off_c, 1, 73, 100
3, 21504, Note_on_c, 1, 75, 127
3, 21564, Note_off_c, 1, 75, 100
3, 21696, Note_on_c, 1, 76, 127
3, 21884, Note_off_c, 1, 76, 100
3, 22080, Note_on_c, 1, 75, 127
3, 22172, Note_off_c, 1, 75, 100
3, 22176, Note_on_c, 1, 73, 127
3, 22268, Note_off_c, 1, 73, 100
3, 22272, Note_on_c, 1, 71, 127
3, 22364, Note_off_c, 1, 71, 100
3, 22368, Note_on_c, 1, 69, 127
3, 22432, Note_off_c, 1, 69, 100
3, 22464, Note_on_c, 1, 69, 127
3, 22484, Note_off_c, 1, 69, 100
3, 22488, Note_on_c, 1, 67, 127
3, 22508, Note_off_c, 1, 67, 100
3, 22512, Note_on_c, 1, 69, 127
3, 22532, Note_off_c, 1, 69, 100
3, 22536, Note_on_c, 1, 67, 127
3, 22556, Note_off_c, 1, 67, 100
3, 22560, Note_on_c, 1, 66, 127
3, 22652, Note_off_c, 1, 66, 100
3, 22656, Note_on_c, 1, 64, 127
3, 22716, Note_off_c, 1, 64, 100
3, 23232, Note_on_c, 1, 72, 127
3, 23292, Note_off_c, 1, 72, 100
3, 23424, Note_on_c, 1, 76, 127
3, 23484, Note_off_c, 1, 76, 100
3, 23616, Note_on_c, 1, 69, 127
3, 23676, Note_off_c, 1, 69, 100
3, 23808, Note_on_c, 1, 71, 127
3, 23868, Note_off_c, 1, 71, 100
3, 24000, Note_on_c, 1, 74, 127
3, 24060, Note_off_c, 1, 74, 100
3, 24192, Note_on_c, 1, 67, 127
3, 24252, Note_off_c, 1, 67, 100
3, 24384, Note_on_c, 1, 72, 127
3, 24764, Note_off_c, 1, 72, 100
3, 24960, Note_on_c, 1, 74, 127
3, 25020, Note_off_c, 1, 74, 100
3, 25152, Note_on_c, 1, 72, 127
3, 25212, Note_off_c, 1, 72, 100
3, 25344, Note_on_c, 1, 71, 127
3, 25436, Note_off_c, 1, 71, 100
3, 25440, Note_on_c, 1, 72, 127
3, 25532, Note_off_c, 1, 72, 100
3, 25536, Note_on_c, 1, 74, 127
3, 25916, Note_off_c, 1, 74, 100
3, 26016, Note_on_c, 1, 72, 127
3, 26108, Note_off_c, 1, 72, 100
3, 26112, Note_on_c, 1, 74, 127
3, 26204, Note_off_c, 1, 74, 100
3, 26208, Note_on_c, 1, 72, 127
3, 26300, Note_off_c, 1, 72, 100
3, 26304, Note_on_c, 1, 71, 127
3, 26396, Note_off_c, 1, 71, 100
3, 26400, Note_on_c, 1, 69, 127
3, 26492, Note_off_c, 1, 69, 100
3, 26496, Note_on_c, 1, 74, 127
3, 26556, Note_off_c, 1, 74, 100
3, 26688, Note_on_c, 1, 67, 127
3, 26748, Note_off_c, 1, 67, 100
3, 26880, Note_on_c, 1, 66, 127
3, 27260, Note_off_c, 1, 66, 100
3, 27264, Note_on_c, 1, 67, 127
3, 27324, Note_off_c, 1, 67, 100
3, 27840, Note_on_c, 1, 78, 112
3, 27900, Note_off_c, 1, 78, 100
3, 28032, Note_on_c, 1, 74, 112
3, 28092, Note_off_c, 1, 74, 100
3, 28224, Note_on_c, 1, 79, 112
3, 28284, Note_off_c, 1, 79, 100
3, 28416, Note_on_c, 1, 83, 112
3, 28796, Note_off_c, 1, 83, 100
3, 28992, Note_on_c, 1, 81, 112
3, 29084, Note_off_c, 1, 81, 100
3, 29088, Note_on_c, 1, 79, 112
3, 29180, Note_off_c, 1, 79, 100
3, 29184, Note_on_c, 1, 78, 112
3, 29276, Note_off_c, 1, 78, 100
3, 29280, Note_on_c, 1, 76, 100
3, 29344, Note_off_c, 1, 76, 100
3, 29376, Note_on_c, 1, 76, 100
3, 29396, Note_off_c, 1, 76, 100
3, 29400, Note_on_c, 1, 75, 100
3, 29420, Note_off_c, 1, 75, 100
3, 29424, Note_on_c, 1, 76, 100
3, 29444, Note_off_c, 1, 76, 100
3, 29448, Note_on_c, 1, 75, 100
3, 29468, Note_off_c, 1, 75, 100
3, 29472, Note_on_c, 1, 76, 112
3, 29564, Note_off_c, 1, 76, 100
3, 29568, Note_on_c, 1, 78, 112
3, 29948, Note_off_c, 1, 78, 100
3, 30144, Note_on_c, 1, 76, 112
3, 30204, Note_off_c, 1, 76, 100
3, 30336, Note_on_c, 1, 79, 112
3, 30396, Note_off_c, 1, 79, 100
3, 30528, Note_on_c, 1, 73, 112
3, 30588, Note_off_c, 1, 73, 100
3, 30720, Note_on_c, 1, 76, 100
3, 30740, Note_off_c, 1, 76, 100
3, 30744, Note_on_c, 1, 75, 100
3, 30764, Note_off_c, 1, 75, 100
3, 30768, Note_on_c, 1, 76, 100
3, 30788, Note_off_c, 1, 76, 100
3, 30792, Note_on_c, 1, 75, 100
3, 30812, Note_off_c, 1, 75, 100
3, 30816, Note_on_c, 1, 76, 100
3, 30836, Note_off_c, 1, 76, 100
3, 30840, Note_on_c, 1, 75, 100
3, 30860, Note_off_c, 1, 75, 100
3, 30864, Note_on_c, 1, 73, 100
3, 30884, Note_off_c, 1, 73, 100
3, 30888, Note_on_c, 1, 75, 100
3, 30908, Note_off_c, 1, 75, 100
3, 30912, Note_on_c, 1, 76, 112
3, 31100, Note_off_c, 1, 76, 100
3, 31296, Note_on_c, 1, 76, 100
3, 31316, Note_off_c, 1, 76, 100
3, 31320, Note_on_c, 1, 75, 100
3, 31340, Note_off_c, 1, 75, 100
3, 31344, Note_on_c, 1, 76, 100
3, 31364, Note_off_c, 1, 76, 100
3, 31368, Note_on_c, 1, 75, 100
3, 31388, Note_off_c, 1, 75, 100
3, 31392, Note_on_c, 1, 73, 112
3, 31484, Note_off_c, 1, 73, 100
3, 31488, Note_on_c, 1, 71, 112
3, 31580, Note_off_c, 1, 71, 100
3, 31584, Note_on_c, 1, 69, 112
3, 31648, Note_off_c, 1, 69, 100
3, 31680, Note_on_c, 1, 69, 112
3, 31700, Note_off_c, 1, 69, 100
3, 31704, Note_on_c, 1, 67, 112
3, 31724, Note_off_c, 1, 67, 100
3, 31728, Note_on_c, 1, 69, 112
3, 31748, Note_off_c, 1, 69, 100
3, 31752, Note_on_c, 1, 67, 112
3, 31772, Note_off_c, 1, 67, 100
3, 31776, Note_on_c, 1, 66, 112
3, 31868, Note_off_c, 1, 66, 100
3, 31872, Note_on_c, 1, 64, 112
3, 31932, Note_off_c, 1, 64, 100
3, 32448, Note_on_c, 1, 72, 112
3, 32508, Note_off_c, 1, 72, 100
3, 32640, Note_on_c, 1, 76, 112
3, 32700, Note_off_c, 1, 76, 100
3, 32832, Note_on_c, 1, 69, 112
3, 32892, Note_off_c, 1, 69, 100
3, 33024, Note_on_c, 1, 71, 112
3, 33084, Note_off_c, 1, 71, 100
3, 33216, Note_on_c, 1, 74, 112
3, 33276, Note_off_c, 1, 74, 100
3, 33408, Note_on_c, 1, 67, 112
3, 33468, Note_off_c, 1, 67, 100
3, 33600, Note_on_c, 1, 72, 112
3, 33980, Note_off_c, 1, 72, 100
3, 34176, Note_on_c, 1, 74, 112
3, 34236, Note_off_c, 1, 74, 100
3, 34368, Note_on_c, 1, 72, 112
3, 34428, Note_off_c, 1, 72, 100
3, 34560, Note_on_c, 1, 71, 112
3, 34652, Note_off_c, 1, 71, 100
3, 34656, Note_on_c, 1, 72, 112
3, 34748, Note_off_c, 1, 72, 100
3, 34752, Note_on_c, 1, 74, 112
3, 35132, Note_off_c, 1, 74, 100
3, 35232, Note_on_c, 1, 72, 112
3, 35324, Note_off_c, 1, 72, 100
3, 35328, Note_on_c, 1, 74, 112
3, 35420, Note_off_c, 1, 74, 100
3, 35424, Note_on_c, 1, 72, 112
3, 35516, Note_off_c, 1, 72, 100
3, 35520, Note_on_c, 1, 71, 112
3, 35612, Note_off_c, 1, 71, 100
3, 35616, Note_on_c, 1, 69, 112
3, 35708, Note_off_c, 1, 69, 100
3, 35712, Note_on_c, 1, 74, 112
3, 35772, Note_off_c, 1, 74, 100
3, 35904, Note_on_c, 1, 67, 112
3, 35964, Note_off_c, 1, 67, 100
3, 36096, Note_on_c, 1, 66, 112
3, 36476, Note_off_c, 1, 66, 100
3, 36480, Note_on_c, 1, 67, 112
3, 36668, Note_off_c, 1, 67, 100
3, 36668, End_track
4, 0, Start_track
4, 0, Title_t, "BWV 988"
4, 0, Control_c, 2, 0, 0
4, 0, Program_c, 2, 6
4, 0, Control_c, 2, 7, 127
4, 0, Control_c, 2, 10, 42
4, 0, Control_c, 2, 91, 127
4, 0, Key_signature, 1, "major"
4, 768, Note_on_c, 2, 62, 127
4, 828, Note_off_c, 2, 62, 100
4, 960, Note_on_c, 2, 66, 127
4, 1020, Note_off_c, 2, 66, 100
4, 1152, Note_on_c, 2, 59, 127
4, 1212, Note_off_c, 2, 59, 100
4, 1344, Note_on_c, 2, 59, 127
4, 1404, Note_off_c, 2, 59, 100
4, 1536, Note_on_c, 2, 55, 127
4, 1596, Note_off_c, 2, 55, 100
4, 1728, Note_on_c, 2, 62, 127
4, 1788, Note_off_c, 2, 62, 100
4, 2496, Note_on_c, 2, 55, 127
4, 2556, Note_off_c, 2, 55, 100
4, 2688, Note_on_c, 2, 59, 127
4, 2748, Note_off_c, 2, 59, 100
4, 2880, Note_on_c, 2, 52, 127
4, 2940, Note_off_c, 2, 52, 100
4, 3072, Note_on_c, 2, 57, 127
4, 3132, Note_off_c, 2, 57, 100
4, 3264, Note_on_c, 2, 55, 127
4, 3644, Note_off_c, 2, 55, 100
4, 3648, Note_on_c, 2, 54, 127
4, 3740, Note_off_c, 2, 54, 100
4, 3744, Note_on_c, 2, 52, 127
4, 3836, Note_off_c, 2, 52, 100
4, 3840, Note_on_c, 2, 54, 127
4, 3900, Note_off_c, 2, 54, 100
4, 4032, Note_on_c, 2, 55, 127
4, 4092, Note_off_c, 2, 55, 100
4, 4224, Note_on_c, 2, 50, 127
4, 4284, Note_off_c, 2, 50, 100
4, 5376, Note_on_c, 2, 62, 127
4, 5436, Note_off_c, 2, 62, 100
4, 5568, Note_on_c, 2, 66, 127
4, 5628, Note_off_c, 2, 66, 100
4, 5760, Note_on_c, 2, 59, 127
4, 5820, Note_off_c, 2, 59, 100
4, 5952, Note_on_c, 2, 64, 127
4, 6012, Note_off_c, 2, 64, 100
4, 6528, Note_on_c, 2, 61, 127
4, 6588, Note_off_c, 2, 61, 100
4, 6720, Note_on_c, 2, 64, 127
4, 6780, Note_off_c, 2, 64, 100
4, 6912, Note_on_c, 2, 57, 127
4, 7676, Note_off_c, 2, 57, 100
4, 7680, Note_on_c, 2, 55, 127
4, 7740, Note_off_c, 2, 55, 100
4, 7872, Note_on_c, 2, 59, 127
4, 7932, Note_off_c, 2, 59, 100
4, 8064, Note_on_c, 2, 52, 127
4, 8124, Note_off_c, 2, 52, 100
4, 8256, Note_on_c, 2, 54, 127
4, 8316, Note_off_c, 2, 54, 100
4, 8448, Note_on_c, 2, 52, 127
4, 8508, Note_off_c, 2, 52, 100
4, 8640, Note_on_c, 2, 50, 127
4, 9020, Note_off_c, 2, 50, 100
4, 9984, Note_on_c, 2, 62, 112
4, 10044, Note_off_c, 2, 62, 100
4, 10176, Note_on_c, 2, 66, 112
4, 10236, Note_off_c, 2, 66, 100
4, 10368, Note_on_c, 2, 59, 112
4, 10428, Note_off_c, 2, 59, 100
4, 10560, Note_on_c, 2, 59, 112
4, 10620, Note_off_c, 2, 59, 100
4, 10752, Note_on_c, 2, 55, 112
4, 10812, Note_off_c, 2, 55, 100
4, 10944, Note_on_c, 2, 62, 112
4, 11004, Note_off_c, 2, 62, 100
4, 11712, Note_on_c, 2, 55, 112
4, 11772, Note_off_c, 2, 55, 100
4, 11904, Note_on_c, 2, 59, 112
4, 11964, Note_off_c, 2, 59, 100
4, 12096, Note_on_c, 2, 52, 112
4, 12156, Note_off_c, 2, 52, 100
4, 12288, Note_on_c, 2, 57, 112
4, 12348, Note_off_c, 2, 57, 100
4, 12480, Note_on_c, 2, 55, 112
4, 12860, Note_off_c, 2, 55, 100
4, 12864, Note_on_c, 2, 54, 112
4, 12956, Note_off_c, 2, 54, 100
4, 12960, Note_on_c, 2, 52, 112
4, 13052, Note_off_c, 2, 52, 100
4, 13056, Note_on_c, 2, 54, 112
4, 13116, Note_off_c, 2, 54, 100
4, 13248, Note_on_c, 2, 55, 112
4, 13308, Note_off_c, 2, 55, 100
4, 13440, Note_on_c, 2, 50, 112
4, 13500, Note_off_c, 2, 50, 100
4, 14592, Note_on_c, 2, 62, 112
4, 14652, Note_off_c, 2, 62, 100
4, 14784, Note_on_c, 2, 66, 112
4, 14844, Note_off_c, 2, 66, 100
4, 14976, Note_on_c, 2, 59, 112
4, 15036, Note_off_c, 2, 59, 100
4, 15168, Note_on_c, 2, 64, 112
4, 15228, Note_off_c, 2, 64, 100
4, 15744, Note_on_c, 2, 61, 112
4, 15804, Note_off_c, 2, 61, 100
4, 15936, Note_on_c, 2, 64, 112
4, 15996, Note_off_c, 2, 64, 100
4, 16128, Note_on_c, 2, 57, 112
4, 16892, Note_off_c, 2, 57, 100
4, 16896, Note_on_c, 2, 55, 112
4, 16956, Note_off_c, 2, 55, 100
4, 17088, Note_on_c, 2, 59, 112
4, 17148, Note_off_c, 2, 59, 100
4, 17280, Note_on_c, 2, 52, 112
4, 17340, Note_off_c, 2, 52, 100
4, 17472, Note_on_c, 2, 54, 112
4, 17532, Note_off_c, 2, 54, 100
4, 17664, Note_on_c, 2, 52, 112
4, 17724, Note_off_c, 2, 52, 100
4, 17856, Note_on_c, 2, 50, 112
4, 18048, Note_off_c, 2, 50, 100
4, 18144, Note_on_c, 2, 57, 127
4, 18236, Note_off_c, 2, 57, 100
4, 18240, Note_on_c, 2, 59, 127
4, 18332, Note_off_c, 2, 59, 100
4, 18336, Note_on_c, 2, 61, 127
4, 18400, Note_off_c, 2, 61, 100
4, 18432, Note_on_c, 2, 62, 127
4, 18812, Note_off_c, 2, 62, 100
4, 18816, Note_on_c, 2, 60, 127
4, 18876, Note_off_c, 2, 60, 100
4, 19008, Note_on_c, 2, 59, 127
4, 19388, Note_off_c, 2, 59, 100
4, 19392, Note_on_c, 2, 55, 127
4, 19452, Note_off_c, 2, 55, 100
4, 19584, Note_on_c, 2, 60, 127
4, 19644, Note_off_c, 2, 60, 100
4, 19776, Note_on_c, 2, 54, 127
4, 19836, Note_off_c, 2, 54, 100
4, 19968, Note_on_c, 2, 57, 127
4, 20028, Note_off_c, 2, 57, 100
4, 20160, Note_on_c, 2, 59, 127
4, 20220, Note_off_c, 2, 59, 100
4, 20352, Note_on_c, 2, 51, 127
4, 20412, Note_off_c, 2, 51, 100
4, 20544, Note_on_c, 2, 47, 127
4, 20604, Note_off_c, 2, 47, 100
4, 20736, Note_on_c, 2, 52, 127
4, 20796, Note_off_c, 2, 52, 100
4, 20928, Note_on_c, 2, 55, 127
4, 20988, Note_off_c, 2, 55, 100
4, 21120, Note_on_c, 2, 52, 127
4, 21180, Note_off_c, 2, 52, 100
4, 21312, Note_on_c, 2, 57, 127
4, 21372, Note_off_c, 2, 57, 100
4, 21504, Note_on_c, 2, 54, 127
4, 21564, Note_off_c, 2, 54, 100
4, 21696, Note_on_c, 2, 52, 127
4, 21756, Note_off_c, 2, 52, 100
4, 21888, Note_on_c, 2, 57, 127
4, 21948, Note_off_c, 2, 57, 100
4, 22080, Note_on_c, 2, 59, 127
4, 22140, Note_off_c, 2, 59, 100
4, 22272, Note_on_c, 2, 47, 127
4, 22332, Note_off_c, 2, 47, 100
4, 22464, Note_on_c, 2, 52, 127
4, 22844, Note_off_c, 2, 52, 100
4, 22848, Note_on_c, 2, 50, 127
4, 22908, Note_off_c, 2, 50, 100
4, 23040, Note_on_c, 2, 48, 127
4, 23804, Note_off_c, 2, 48, 100
4, 23808, Note_on_c, 2, 47, 127
4, 24380, Note_off_c, 2, 47, 100
4, 24384, Note_on_c, 2, 45, 127
4, 24444, Note_off_c, 2, 45, 100
4, 24576, Note_on_c, 2, 48, 127
4, 24636, Note_off_c, 2, 48, 100
4, 24768, Note_on_c, 2, 42, 127
4, 24828, Note_off_c, 2, 42, 100
4, 24960, Note_on_c, 2, 38, 127
4, 25020, Note_off_c, 2, 38, 100
4, 25152, Note_on_c, 2, 42, 127
4, 25212, Note_off_c, 2, 42, 100
4, 25344, Note_on_c, 2, 43, 127
4, 25404, Note_off_c, 2, 43, 100
4, 25536, Note_on_c, 2, 47, 127
4, 25596, Note_off_c, 2, 47, 100
4, 25728, Note_on_c, 2, 43, 127
4, 25788, Note_off_c, 2, 43, 100
4, 25920, Note_on_c, 2, 48, 127
4, 26684, Note_off_c, 2, 48, 100
4, 26688, Note_on_c, 2, 47, 127
4, 26748, Note_off_c, 2, 47, 100
4, 26880, Note_on_c, 2, 50, 127
4, 26940, Note_off_c, 2, 50, 100
4, 27072, Note_on_c, 2, 43, 127
4, 27260, Note_off_c, 2, 43, 100
4, 27360, Note_on_c, 2, 57, 112
4, 27452, Note_off_c, 2, 57, 100
4, 27456, Note_on_c, 2, 59, 112
4, 27548, Note_off_c, 2, 59, 100
4, 27552, Note_on_c, 2, 60, 112
4, 27644, Note_off_c, 2, 60, 100
4, 27648, Note_on_c, 2, 62, 112
4, 28028, Note_off_c, 2, 62, 100
4, 28032, Note_on_c, 2, 60, 112
4, 28092, Note_off_c, 2, 60, 100
4, 28224, Note_on_c, 2, 59, 112
4, 28604, Note_off_c, 2, 59, 100
4, 28608, Note_on_c, 2, 55, 112
4, 28668, Note_off_c, 2, 55, 100
4, 28800, Note_on_c, 2, 60, 112
4, 28860, Note_off_c, 2, 60, 100
4, 28992, Note_on_c, 2, 54, 112
4, 29052, Note_off_c, 2, 54, 100
4, 29184, Note_on_c, 2, 57, 112
4, 29244, Note_off_c, 2, 57, 100
4, 29376, Note_on_c, 2, 59, 112
4, 29436, Note_off_c, 2, 59, 100
4, 29568, Note_on_c, 2, 51, 112
4, 29628, Note_off_c, 2, 51, 100
4, 29760, Note_on_c, 2, 47, 112
4, 29820, Note_off_c, 2, 47, 100
4, 29952, Note_on_c, 2, 52, 112
4, 30012, Note_off_c, 2, 52, 100
4, 30144, Note_on_c, 2, 55, 112
4, 30204, Note_off_c, 2, 55, 100
4, 30336, Note_on_c, 2, 52, 112
4, 30396, Note_off_c, 2, 52, 100
4, 30528, Note_on_c, 2, 57, 112
4, 30588, Note_off_c, 2, 57, 100
4, 30720, Note_on_c, 2, 54, 112
4, 30780, Note_off_c, 2, 54, 100
4, 30912, Note_on_c, 2, 52, 112
4, 30972, Note_off_c, 2, 52, 100
4, 31104, Note_on_c, 2, 57, 112
4, 31164, Note_off_c, 2, 57, 100
4, 31296, Note_on_c, 2, 59, 112
4, 31356, Note_off_c, 2, 59, 100
4, 31488, Note_on_c, 2, 47, 112
4, 31548, Note_off_c, 2, 47, 100
4, 31680, Note_on_c, 2, 52, 112
4, 32060, Note_off_c, 2, 52, 100
4, 32064, Note_on_c, 2, 50, 112
4, 32124, Note_off_c, 2, 50, 100
4, 32256, Note_on_c, 2, 48, 112
4, 33020, Note_off_c, 2, 48, 100
4, 33024, Note_on_c, 2, 47, 112
4, 33596, Note_off_c, 2, 47, 100
4, 33600, Note_on_c, 2, 45, 112
4, 33660, Note_off_c, 2, 45, 100
4, 33792, Note_on_c, 2, 48, 112
4, 33852, Note_off_c, 2, 48, 100
4, 33984, Note_on_c, 2, 42, 112
4, 34044, Note_off_c, 2, 42, 100
4, 34176, Note_on_c, 2, 38, 112
4, 34236, Note_off_c, 2, 38, 100
4, 34368, Note_on_c, 2, 42, 112
4, 34428, Note_off_c, 2, 42, 100
4, 34560, Note_on_c, 2, 43, 112
4, 34620, Note_off_c, 2, 43, 100
4, 34752, Note_on_c, 2, 47, 112
4, 34812, Note_off_c, 2, 47, 100
4, 34944, Note_on_c, 2, 43, 112
4, 35004, Note_off_c, 2, 43, 100
4, 35136, Note_on_c, 2, 48, 112
4, 35900, Note_off_c, 2, 48, 100
4, 35904, Note_on_c, 2, 47, 112
4, 35964, Note_off_c, 2, 47, 100
4, 36096, Note_on_c, 2, 50, 112
4, 36156, Note_off_c, 2, 50, 100
4, 36288, Note_on_c, 2, 43, 112
4, 36668, Note_off_c, 2, 43, 100
4, 36668, End_track
5, 0, Start_track
5, 0, Title_t, "Var.IV: L'istesso tempo"
5, 0, Control_c, 3, 0, 0
5, 0, Program_c, 3, 6
5, 0, Control_c, 3, 7, 127
5, 0, Control_c, 3, 10, 87
5, 0, Control_c, 3, 91, 127
5, 0, Key_signature, 1, "major"
5, 0, Note_on_c, 3, 55, 127
5, 572, Note_off_c, 3, 55, 100
5, 576, Note_on_c, 3, 54, 127
5, 1148, Note_off_c, 3, 54, 100
5, 1152, Note_on_c, 3, 52, 127
5, 1724, Note_off_c, 3, 52, 100
5, 1920, Note_on_c, 3, 50, 127
5, 1980, Note_off_c, 3, 50, 100
5, 2112, Note_on_c, 3, 54, 127
5, 2172, Note_off_c, 3, 54, 100
5, 2304, Note_on_c, 3, 47, 127
5, 2876, Note_off_c, 3, 47, 100
5, 2880, Note_on_c, 3, 48, 127
5, 3452, Note_off_c, 3, 48, 100
5, 3456, Note_on_c, 3, 50, 127
5, 4028, Note_off_c, 3, 50, 100
5, 4224, Note_on_c, 3, 47, 127
5, 4284, Note_off_c, 3, 47, 100
5, 4416, Note_on_c, 3, 50, 127
5, 4476, Note_off_c, 3, 50, 100
5, 4608, Note_on_c, 3, 43, 127
5, 4668, Note_off_c, 3, 43, 100
5, 4800, Note_on_c, 3, 55, 127
5, 5372, Note_off_c, 3, 55, 100
5, 5376, Note_on_c, 3, 54, 127
5, 5948, Note_off_c, 3, 54, 100
5, 5952, Note_on_c, 3, 52, 127
5, 6012, Note_off_c, 3, 52, 100
5, 6144, Note_on_c, 3, 55, 127
5, 6204, Note_off_c, 3, 55, 100
5, 6336, Note_on_c, 3, 49, 127
5, 6396, Note_off_c, 3, 49, 100
5, 6528, Note_on_c, 3, 57, 127
5, 6588, Note_off_c, 3, 57, 100
5, 6720, Note_on_c, 3, 61, 127
5, 6780, Note_off_c, 3, 61, 100
5, 6912, Note_on_c, 3, 54, 127
5, 7484, Note_off_c, 3, 54, 100
5, 7488, Note_on_c, 3, 55, 127
5, 7548, Note_off_c, 3, 55, 100
5, 7680, Note_on_c, 3, 43, 127
5, 8252, Note_off_c, 3, 43, 100
5, 8256, Note_on_c, 3, 42, 127
5, 8316, Note_off_c, 3, 42, 100
5, 8448, Note_on_c, 3, 45, 127
5, 8508, Note_off_c, 3, 45, 100
5, 8640, Note_on_c, 3, 38, 127
5, 8832, Note_off_c, 3, 38, 100
5, 8928, Note_on_c, 3, 50, 112
5, 9020, Note_off_c, 3, 50, 100
5, 9024, Note_on_c, 3, 52, 112
5, 9116, Note_off_c, 3, 52, 100
5, 9120, Note_on_c, 3, 54, 112
5, 9184, Note_off_c, 3, 54, 100
5, 9216, Note_on_c, 3, 55, 112
5, 9788, Note_off_c, 3, 55, 100
5, 9792, Note_on_c, 3, 54, 112
5, 10364, Note_off_c, 3, 54, 100
5, 10368, Note_on_c, 3, 52, 112
5, 10940, Note_off_c, 3, 52, 100
5, 11136, Note_on_c, 3, 50, 112
5, 11196, Note_off_c, 3, 50, 100
5, 11328, Note_on_c, 3, 54, 112
5, 11388, Note_off_c, 3, 54, 100
5, 11520, Note_on_c, 3, 47, 112
5, 12092, Note_off_c, 3, 47, 100
5, 12096, Note_on_c, 3, 48, 112
5, 12668, Note_off_c, 3, 48, 100
5, 12672, Note_on_c, 3, 50, 112
5, 13244, Note_off_c, 3, 50, 100
5, 13440, Note_on_c, 3, 47, 112
5, 13500, Note_off_c, 3, 47, 100
5, 13632, Note_on_c, 3, 50, 112
5, 13692, Note_off_c, 3, 50, 100
5, 13824, Note_on_c, 3, 43, 112
5, 13884, Note_off_c, 3, 43, 100
5, 14016, Note_on_c, 3, 55, 112
5, 14588, Note_off_c, 3, 55, 100
5, 14592, Note_on_c, 3, 54, 112
5, 15164, Note_off_c, 3, 54, 100
5, 15168, Note_on_c, 3, 52, 112
5, 15228, Note_off_c, 3, 52, 100
5, 15360, Note_on_c, 3, 55, 112
5, 15420, Note_off_c, 3, 55, 100
5, 15552, Note_on_c, 3, 49, 112
5, 15612, Note_off_c, 3, 49, 100
5, 15744, Note_on_c, 3, 57, 112
5, 15804, Note_off_c, 3, 57, 100
5, 15936, Note_on_c, 3, 61, 112
5, 15996, Note_off_c, 3, 61, 100
5, 16128, Note_on_c, 3, 54, 112
5, 16700, Note_off_c, 3, 54, 100
5, 16704, Note_on_c, 3, 55, 112
5, 16764, Note_off_c, 3, 55, 100
5, 16896, Note_on_c, 3, 43, 112
5, 17468, Note_off_c, 3, 43, 100
5, 17472, Note_on_c, 3, 42, 112
5, 17532, Note_off_c, 3, 42, 100
5, 17664, Note_on_c, 3, 45, 112
5, 17724, Note_off_c, 3, 45, 100
5, 17856, Note_on_c, 3, 38, 112
5, 18048, Note_off_c, 3, 38, 100
5, 19200, Note_on_c, 3, 62, 127
5, 19260, Note_off_c, 3, 62, 100
5, 19392, Note_on_c, 3, 67, 127
5, 19452, Note_off_c, 3, 67, 100
5, 19584, Note_on_c, 3, 64, 127
5, 19644, Note_off_c, 3, 64, 100
5, 19776, Note_on_c, 3, 60, 127
5, 20156, Note_off_c, 3, 60, 100
5, 20352, Note_on_c, 3, 59, 127
5, 20444, Note_off_c, 3, 59, 100
5, 20448, Note_on_c, 3, 57, 127
5, 20540, Note_off_c, 3, 57, 100
5, 20544, Note_on_c, 3, 55, 127
5, 20636, Note_off_c, 3, 55, 100
5, 20640, Note_on_c, 3, 54, 127
5, 20732, Note_off_c, 3, 54, 100
5, 20736, Note_on_c, 3, 55, 127
5, 20828, Note_off_c, 3, 55, 100
5, 20832, Note_on_c, 3, 57, 127
5, 20924, Note_off_c, 3, 57, 100
5, 20928, Note_on_c, 3, 59, 127
5, 21500, Note_off_c, 3, 59, 100
5, 21504, Note_on_c, 3, 57, 127
5, 21564, Note_off_c, 3, 57, 100
5, 21696, Note_on_c, 3, 59, 127
5, 21756, Note_off_c, 3, 59, 100
5, 21888, Note_on_c, 3, 60, 127
5, 21948, Note_off_c, 3, 60, 100
5, 22080, Note_on_c, 3, 59, 127
5, 22652, Note_off_c, 3, 59, 100
5, 22656, Note_on_c, 3, 55, 127
5, 22716, Note_off_c, 3, 55, 100
5, 22848, Note_on_c, 3, 59, 127
5, 22908, Note_off_c, 3, 59, 100
5, 23040, Note_on_c, 3, 52, 127
5, 23100, Note_off_c, 3, 52, 100
5, 23232, Note_on_c, 3, 57, 127
5, 23324, Note_off_c, 3, 57, 100
5, 23328, Note_on_c, 3, 55, 127
5, 23420, Note_off_c, 3, 55, 100
5, 23424, Note_on_c, 3, 54, 127
5, 23516, Note_off_c, 3, 54, 100
5, 23520, Note_on_c, 3, 55, 127
5, 23612, Note_off_c, 3, 55, 100
5, 23616, Note_on_c, 3, 62, 127
5, 24188, Note_off_c, 3, 62, 100
5, 24192, Note_on_c, 3, 60, 127
5, 24252, Note_off_c, 3, 60, 100
5, 24384, Note_on_c, 3, 54, 127
5, 24444, Note_off_c, 3, 54, 100
5, 24576, Note_on_c, 3, 57, 127
5, 24636, Note_off_c, 3, 57, 100
5, 24768, Note_on_c, 3, 50, 127
5, 25724, Note_off_c, 3, 50, 100
5, 25728, Note_on_c, 3, 55, 127
5, 26108, Note_off_c, 3, 55, 100
5, 26112, Note_on_c, 3, 57, 127
5, 26172, Note_off_c, 3, 57, 100
5, 26304, Note_on_c, 3, 60, 127
5, 26364, Note_off_c, 3, 60, 100
5, 26496, Note_on_c, 3, 54, 127
5, 26556, Note_off_c, 3, 54, 100
5, 26688, Note_on_c, 3, 55, 127
5, 26748, Note_off_c, 3, 55, 100
5, 26880, Note_on_c, 3, 57, 127
5, 26940, Note_off_c, 3, 57, 100
5, 27072, Note_on_c, 3, 55, 127
5, 27452, Note_off_c, 3, 55, 100
5, 28416, Note_on_c, 3, 62, 112
5, 28476, Note_off_c, 3, 62, 100
5, 28608, Note_on_c, 3, 67, 112
5, 28668, Note_off_c, 3, 67, 100
5, 28800, Note_on_c, 3, 64, 112
5, 28860, Note_off_c, 3, 64, 100
5, 28992, Note_on_c, 3, 60, 112
5, 29372, Note_off_c, 3, 60, 100
5, 29568, Note_on_c, 3, 59, 112
5, 29660, Note_off_c, 3, 59, 100
5, 29664, Note_on_c, 3, 57, 112
5, 29756, Note_off_c, 3, 57, 100
5, 29760, Note_on_c, 3, 55, 112
5, 29852, Note_off_c, 3, 55, 100
5, 29856, Note_on_c, 3, 54, 112
5, 29948, Note_off_c, 3, 54, 100
5, 29952, Note_on_c, 3, 55, 112
5, 30044, Note_off_c, 3, 55, 100
5, 30048, Note_on_c, 3, 57, 112
5, 30140, Note_off_c, 3, 57, 100
5, 30144, Note_on_c, 3, 59, 112
5, 30716, Note_off_c, 3, 59, 100
5, 30720, Note_on_c, 3, 57, 112
5, 30780, Note_off_c, 3, 57, 100
5, 30912, Note_on_c, 3, 59, 112
5, 30972, Note_off_c, 3, 59, 100
5, 31104, Note_on_c, 3, 60, 112
5, 31164, Note_off_c, 3, 60, 100
5, 31296, Note_on_c, 3, 59, 112
5, 31868, Note_off_c, 3, 59, 100
5, 31872, Note_on_c, 3, 55, 112
5, 31932, Note_off_c, 3, 55, 100
5, 32064, Note_on_c, 3, 59, 112
5, 32124, Note_off_c, 3, 59, 100
5, 32256, Note_on_c, 3, 52, 112
5, 32316, Note_off_c, 3, 52, 100
5, 32448, Note_on_c, 3, 57, 112
5, 32540, Note_off_c, 3, 57, 100
5, 32544, Note_on_c, 3, 55, 112
5, 32636, Note_off_c, 3, 55, 100
5, 32640, Note_on_c, 3, 54, 112
5, 32732, Note_off_c, 3, 54, 100
5, 32736, Note_on_c, 3, 55, 112
5, 32828, Note_off_c, 3, 55, 100
5, 32832, Note_on_c, 3, 62, 112
5, 33404, Note_off_c, 3, 62, 100
5, 33408, Note_on_c, 3, 60, 112
5, 33468, Note_off_c, 3, 60, 100
5, 33600, Note_on_c, 3, 54, 112
5, 33660, Note_off_c, 3, 54, 100
5, 33792, Note_on_c, 3, 57, 112
5, 33852, Note_off_c, 3, 57, 100
5, 33984, Note_on_c, 3, 50, 112
5, 34940, Note_off_c, 3, 50, 100
5, 34944, Note_on_c, 3, 55, 112
5, 35324, Note_off_c, 3, 55, 100
5, 35328, Note_on_c, 3, 57, 112
5, 35388, Note_off_c, 3, 57, 100
5, 35520, Note_on_c, 3, 60, 112
5, 35580, Note_off_c, 3, 60, 100
5, 35712, Note_on_c, 3, 54, 112
5, 35772, Note_off_c, 3, 54, 100
5, 35904, Note_on_c, 3, 55, 112
5, 35964, Note_off_c, 3, 55, 100
5, 36096, Note_on_c, 3, 57, 112
5, 36156, Note_off_c, 3, 57, 100
5, 36288, Note_on_c, 3, 55, 112
5, 36668, Note_off_c, 3, 55, 100
5, 36668, End_track
6, 0, Start_track
6, 0, Title_t, "Bruno de Giusti"
6, 0, Control_c, 4, 0, 0
6, 0, Program_c, 4, 6
6, 0, Control_c, 4, 7, 127
6, 0, Control_c, 4, 10, 91
6, 0, Control_c, 4, 91, 127
6, 0, Key_signature, 1, "major"
6, 192, Note_on_c, 4, 83, 127
6, 252, Note_off_c, 4, 83, 100
6, 384, Note_on_c, 4, 79, 127
6, 444, Note_off_c, 4, 79, 100
6, 576, Note_on_c, 4, 86, 127
6, 636, Note_off_c, 4, 86, 100
6, 768, Note_on_c, 4, 81, 127
6, 828, Note_off_c, 4, 81, 100
6, 960, Note_on_c, 4, 86, 127
6, 1020, Note_off_c, 4, 86, 100
6, 1152, Note_on_c, 4, 91, 127
6, 1916, Note_off_c, 4, 91, 100
6, 1920, Note_on_c, 4, 90, 127
6, 2108, Note_off_c, 4, 90, 100
6, 3648, Note_on_c, 4, 81, 127
6, 3708, Note_off_c, 4, 81, 100
6, 3840, Note_on_c, 4, 84, 127
6, 4124, Note_off_c, 4, 84, 100
6, 4128, Note_on_c, 4, 81, 127
6, 4220, Note_off_c, 4, 81, 100
6, 4224, Note_on_c, 4, 83, 127
6, 4284, Note_off_c, 4, 83, 100
6, 4800, Note_on_c, 4, 88, 127
6, 4860, Note_off_c, 4, 88, 100
6, 4992, Note_on_c, 4, 91, 127
6, 5052, Note_off_c, 4, 91, 100
6, 5184, Note_on_c, 4, 85, 127
6, 5244, Note_off_c, 4, 85, 100
6, 5376, Note_on_c, 4, 93, 127
6, 5632, Note_off_c, 4, 93, 100
6, 5760, Note_on_c, 4, 86, 127
6, 5820, Note_off_c, 4, 86, 100
6, 5952, Note_on_c, 4, 91, 127
6, 6332, Note_off_c, 4, 91, 100
6, 6528, Note_on_c, 4, 90, 127
6, 6588, Note_off_c, 4, 90, 100
6, 6720, Note_on_c, 4, 88, 127
6, 7100, Note_off_c, 4, 88, 100
6, 7104, Note_on_c, 4, 86, 127
6, 7164, Note_off_c, 4, 86, 100
6, 7296, Note_on_c, 4, 84, 127
6, 7552, Note_off_c, 4, 84, 100
6, 7680, Note_on_c, 4, 83, 127
6, 8060, Note_off_c, 4, 83, 100
6, 8064, Note_on_c, 4, 81, 127
6, 8124, Note_off_c, 4, 81, 100
6, 8256, Note_on_c, 4, 86, 127
6, 8316, Note_off_c, 4, 86, 100
6, 8448, Note_on_c, 4, 85, 127
6, 8828, Note_off_c, 4, 85, 100
6, 8832, Note_on_c, 4, 86, 127
6, 9020, Note_off_c, 4, 86, 100
6, 19200, Note_on_c, 4, 86, 127
6, 19260, Note_off_c, 4, 86, 100
6, 19392, Note_on_c, 4, 83, 127
6, 19452, Note_off_c, 4, 83, 100
6, 19584, Note_on_c, 4, 79, 127
6, 19644, Note_off_c, 4, 79, 100
6, 19776, Note_on_c, 4, 81, 127
6, 19836, Note_off_c, 4, 81, 100
6, 19968, Note_on_c, 4, 84, 127
6, 20028, Note_off_c, 4, 84, 100
6, 20160, Note_on_c, 4, 78, 127
6, 20284, Note_off_c, 4, 78, 100
6, 20928, Note_on_c, 4, 83, 127
6, 20988, Note_off_c, 4, 83, 100
6, 21120, Note_on_c, 4, 79, 127
6, 21180, Note_off_c, 4, 79, 100
6, 21312, Note_on_c, 4, 76, 127
6, 21372, Note_off_c, 4, 76, 100
6, 21504, Note_on_c, 4, 78, 127
6, 21564, Note_off_c, 4, 78, 100
6, 21696, Note_on_c, 4, 79, 127
6, 21756, Note_off_c, 4, 79, 100
6, 21888, Note_on_c, 4, 78, 127
6, 22460, Note_off_c, 4, 78, 100
6, 22464, Note_on_c, 4, 76, 127
6, 22844, Note_off_c, 4, 76, 100
6, 23232, Note_on_c, 4, 81, 127
6, 23292, Note_off_c, 4, 81, 100
6, 23424, Note_on_c, 4, 84, 127
6, 23484, Note_off_c, 4, 84, 100
6, 23616, Note_on_c, 4, 78, 127
6, 23676, Note_off_c, 4, 78, 100
6, 23808, Note_on_c, 4, 79, 127
6, 23868, Note_off_c, 4, 79, 100
6, 24000, Note_on_c, 4, 83, 127
6, 24060, Note_off_c, 4, 83, 100
6, 24192, Note_on_c, 4, 76, 127
6, 24252, Note_off_c, 4, 76, 100
6, 24384, Note_on_c, 4, 81, 127
6, 24764, Note_off_c, 4, 81, 100
6, 24960, Note_on_c, 4, 78, 127
6, 25020, Note_off_c, 4, 78, 100
6, 25152, Note_on_c, 4, 81, 127
6, 25532, Note_off_c, 4, 81, 100
6, 25536, Note_on_c, 4, 79, 127
6, 25596, Note_off_c, 4, 79, 100
6, 25728, Note_on_c, 4, 83, 127
6, 25788, Note_off_c, 4, 83, 100
6, 25920, Note_on_c, 4, 76, 127
6, 26492, Note_off_c, 4, 76, 100
6, 26496, Note_on_c, 4, 69, 127
6, 26556, Note_off_c, 4, 69, 100
6, 26688, Note_on_c, 4, 74, 127
6, 26748, Note_off_c, 4, 74, 100
6, 26880, Note_on_c, 4, 72, 127
6, 27164, Note_off_c, 4, 72, 100
6, 27168, Note_on_c, 4, 69, 127
6, 27260, Note_off_c, 4, 69, 100
6, 27264, Note_on_c, 4, 71, 127
6, 27324, Note_off_c, 4, 71, 100
6, 27324, End_track
7, 0, Start_track
7, 0, Title_t, "bdg@bruno-de-giusti.net"
7, 0, Control_c, 5, 0, 0
7, 0, Program_c, 5, 6
7, 0, Control_c, 5, 7, 127
7, 0, Control_c, 5, 10, 42
7, 0, Control_c, 5, 91, 127
7, 0, Key_signature, 1, "major"
7, 1344, Note_on_c, 5, 79, 127
7, 1404, Note_off_c, 5, 79, 100
7, 1536, Note_on_c, 5, 84, 127
7, 1596, Note_off_c, 5, 84, 100
7, 1728, Note_on_c, 5, 83, 127
7, 1820, Note_off_c, 5, 83, 100
7, 1824, Note_on_c, 5, 79, 127
7, 1916, Note_off_c, 5, 79, 100
7, 1920, Note_on_c, 5, 81, 127
7, 2108, Note_off_c, 5, 81, 100
7, 3072, Note_on_c, 5, 72, 127
7, 3260, Note_off_c, 5, 72, 100
7, 3264, Note_on_c, 5, 76, 127
7, 3324, Note_off_c, 5, 76, 100
7, 3456, Note_on_c, 5, 69, 127
7, 3516, Note_off_c, 5, 69, 100
7, 3648, Note_on_c, 5, 74, 127
7, 4220, Note_off_c, 5, 74, 100
7, 4224, Note_on_c, 5, 79, 127
7, 4284, Note_off_c, 5, 79, 100
7, 5952, Note_on_c, 5, 85, 127
7, 6012, Note_off_c, 5, 85, 100
7, 6144, Note_on_c, 5, 88, 127
7, 6204, Note_off_c, 5, 88, 100
7, 6336, Note_on_c, 5, 81, 127
7, 6460, Note_off_c, 5, 81, 100
7, 6720, Note_on_c, 5, 79, 127
7, 7100, Note_off_c, 5, 79, 100
7, 7104, Note_on_c, 5, 78, 127
7, 7164, Note_off_c, 5, 78, 100
7, 7296, Note_on_c, 5, 81, 127
7, 7356, Note_off_c, 5, 81, 100
7, 7488, Note_on_c, 5, 74, 127
7, 7548, Note_off_c, 5, 74, 100
7, 7680, Note_on_c, 5, 76, 127
7, 7740, Note_off_c, 5, 76, 100
7, 7872, Note_on_c, 5, 79, 127
7, 7932, Note_off_c, 5, 79, 100
7, 8064, Note_on_c, 5, 73, 127
7, 8124, Note_off_c, 5, 73, 100
7, 8256, Note_on_c, 5, 81, 127
7, 8316, Note_off_c, 5, 81, 100
7, 8448, Note_on_c, 5, 79, 127
7, 8732, Note_off_c, 5, 79, 100
7, 8736, Note_on_c, 5, 76, 127
7, 8828, Note_off_c, 5, 76, 100
7, 8832, Note_on_c, 5, 78, 127
7, 9020, Note_off_c, 5, 78, 100
7, 18624, Note_on_c, 5, 90, 127
7, 18684, Note_off_c, 5, 90, 100
7, 18816, Note_on_c, 5, 86, 127
7, 18876, Note_off_c, 5, 86, 100
7, 19008, Note_on_c, 5, 91, 127
7, 19068, Note_off_c, 5, 91, 100
7, 19200, Note_on_c, 5, 95, 127
7, 19580, Note_off_c, 5, 95, 100
7, 19776, Note_on_c, 5, 93, 127
7, 19868, Note_off_c, 5, 93, 100
7, 19872, Note_on_c, 5, 91, 127
7, 19964, Note_off_c, 5, 91, 100
7, 19968, Note_on_c, 5, 90, 127
7, 20060, Note_off_c, 5, 90, 100
7, 20064, Note_on_c, 5, 88, 127
7, 20156, Note_off_c, 5, 88, 100
7, 20160, Note_on_c, 5, 87, 127
7, 20252, Note_off_c, 5, 87, 100
7, 20256, Note_on_c, 5, 88, 127
7, 20348, Note_off_c, 5, 88, 100
7, 20352, Note_on_c, 5, 90, 127
7, 20732, Note_off_c, 5, 90, 100
7, 20928, Note_on_c, 5, 88, 127
7, 20988, Note_off_c, 5, 88, 100
7, 21120, Note_on_c, 5, 91, 127
7, 21180, Note_off_c, 5, 91, 100
7, 21312, Note_on_c, 5, 85, 127
7, 21372, Note_off_c, 5, 85, 100
7, 21504, Note_on_c, 5, 87, 127
7, 21564, Note_off_c, 5, 87, 100
7, 21696, Note_on_c, 5, 88, 127
7, 21884, Note_off_c, 5, 88, 100
7, 22080, Note_on_c, 5, 87, 127
7, 22172, Note_off_c, 5, 87, 100
7, 22176, Note_on_c, 5, 85, 127
7, 22268, Note_off_c, 5, 85, 100
7, 22272, Note_on_c, 5, 83, 127
7, 22364, Note_off_c, 5, 83, 100
7, 22368, Note_on_c, 5, 81, 127
7, 22432, Note_off_c, 5, 81, 100
7, 22464, Note_on_c, 5, 81, 127
7, 22484, Note_off_c, 5, 81, 100
7, 22488, Note_on_c, 5, 79, 127
7, 22508, Note_off_c, 5, 79, 100
7, 22512, Note_on_c, 5, 81, 127
7, 22532, Note_off_c, 5, 81, 100
7, 22536, Note_on_c, 5, 79, 127
7, 22556, Note_off_c, 5, 79, 100
7, 22560, Note_on_c, 5, 78, 127
7, 22652, Note_off_c, 5, 78, 100
7, 22656, Note_on_c, 5, 76, 127
7, 22716, Note_off_c, 5, 76, 100
7, 23232, Note_on_c, 5, 84, 127
7, 23292, Note_off_c, 5, 84, 100
7, 23424, Note_on_c, 5, 88, 127
7, 23484, Note_off_c, 5, 88, 100
7, 23616, Note_on_c, 5, 81, 127
7, 23676, Note_off_c, 5, 81, 100
7, 23808, Note_on_c, 5, 83, 127
7, 23868, Note_off_c, 5, 83, 100
7, 24000, Note_on_c, 5, 86, 127
7, 24060, Note_off_c, 5, 86, 100
7, 24192, Note_on_c, 5, 79, 127
7, 24252, Note_off_c, 5, 79, 100
7, 24384, Note_on_c, 5, 84, 127
7, 24764, Note_off_c, 5, 84, 100
7, 24960, Note_on_c, 5, 86, 127
7, 25020, Note_off_c, 5, 86, 100
7, 25152, Note_on_c, 5, 84, 127
7, 25212, Note_off_c, 5, 84, 100
7, 25344, Note_on_c, 5, 83, 127
7, 25436, Note_off_c, 5, 83, 100
7, 25440, Note_on_c, 5, 84, 127
7, 25532, Note_off_c, 5, 84, 100
7, 25536, Note_on_c, 5, 86, 127
7, 25916, Note_off_c, 5, 86, 100
7, 26016, Note_on_c, 5, 84, 127
7, 26108, Note_off_c, 5, 84, 100
7, 26112, Note_on_c, 5, 86, 127
7, 26204, Note_off_c, 5, 86, 100
7, 26208, Note_on_c, 5, 84, 127
7, 26300, Note_off_c, 5, 84, 100
7, 26304, Note_on_c, 5, 83, 127
7, 26396, Note_off_c, 5, 83, 100
7, 26400, Note_on_c, 5, 81, 127
7, 26492, Note_off_c, 5, 81, 100
7, 26496, Note_on_c, 5, 86, 127
7, 26556, Note_off_c, 5, 86, 100
7, 26688, Note_on_c, 5, 79, 127
7, 26748, Note_off_c, 5, 79, 100
7, 26880, Note_on_c, 5, 78, 127
7, 27260, Note_off_c, 5, 78, 100
7, 27264, Note_on_c, 5, 79, 127
7, 27324, Note_off_c, 5, 79, 100
7, 27324, End_track
8, 0, Start_track
8, 0, Title_t, "www.bruno-de-giusti.net"
8, 0, Control_c, 6, 0, 0
8, 0, Program_c, 6, 6
8, 0, Control_c, 6, 7, 127
8, 0, Control_c, 6, 10, 127
8, 0, Control_c, 6, 91, 127
8, 0, Key_signature, 1, "major"
8, 768, Note_on_c, 6, 50, 96
8, 828, Note_off_c, 6, 50, 100
8, 960, Note_on_c, 6, 54, 96
8, 1020, Note_off_c, 6, 54, 100
8, 1152, Note_on_c, 6, 47, 96
8, 1212, Note_off_c, 6, 47, 100
8, 1344, Note_on_c, 6, 47, 96
8, 1404, Note_off_c, 6, 47, 100
8, 1536, Note_on_c, 6, 43, 96
8, 1596, Note_off_c, 6, 43, 100
8, 1728, Note_on_c, 6, 50, 96
8, 1788, Note_off_c, 6, 50, 100
8, 2496, Note_on_c, 6, 43, 96
8, 2556, Note_off_c, 6, 43, 100
8, 2688, Note_on_c, 6, 47, 96
8, 2748, Note_off_c, 6, 47, 100
8, 2880, Note_on_c, 6, 40, 96
8, 2940, Note_off_c, 6, 40, 100
8, 3072, Note_on_c, 6, 45, 96
8, 3132, Note_off_c, 6, 45, 100
8, 3264, Note_on_c, 6, 43, 96
8, 3644, Note_off_c, 6, 43, 100
8, 3648, Note_on_c, 6, 42, 96
8, 3740, Note_off_c, 6, 42, 100
8, 3744, Note_on_c, 6, 40, 96
8, 3836, Note_off_c, 6, 40, 100
8, 3840, Note_on_c, 6, 42, 96
8, 3900, Note_off_c, 6, 42, 100
8, 4032, Note_on_c, 6, 43, 96
8, 4092, Note_off_c, 6, 43, 100
8, 4224, Note_on_c, 6, 38, 96
8, 4284, Note_off_c, 6, 38, 100
8, 5376, Note_on_c, 6, 50, 96
8, 5436, Note_off_c, 6, 50, 100
8, 5568, Note_on_c, 6, 54, 96
8, 5628, Note_off_c, 6, 54, 100
8, 5760, Note_on_c, 6, 47, 96
8, 5820, Note_off_c, 6, 47, 100
8, 5952, Note_on_c, 6, 52, 96
8, 6012, Note_off_c, 6, 52, 100
8, 6528, Note_on_c, 6, 49, 96
8, 6588, Note_off_c, 6, 49, 100
8, 6720, Note_on_c, 6, 52, 96
8, 6780, Note_off_c, 6, 52, 100
8, 6912, Note_on_c, 6, 45, 96
8, 7676, Note_off_c, 6, 45, 100
8, 7680, Note_on_c, 6, 43, 96
8, 7740, Note_off_c, 6, 43, 100
8, 7872, Note_on_c, 6, 47, 96
8, 7932, Note_off_c, 6, 47, 100
8, 8064, Note_on_c, 6, 40, 96
8, 8124, Note_off_c, 6, 40, 100
8, 8256, Note_on_c, 6, 42, 96
8, 8316, Note_off_c, 6, 42, 100
8, 8448, Note_on_c, 6, 40, 96
8, 8508, Note_off_c, 6, 40, 100
8, 8640, Note_on_c, 6, 38, 56
8, 9020, Note_off_c, 6, 38, 100
8, 9984, Note_on_c, 6, 50, 56
8, 10044, Note_off_c, 6, 50, 100
8, 10176, Note_on_c, 6, 54, 56
8, 10236, Note_off_c, 6, 54, 100
8, 10368, Note_on_c, 6, 47, 56
8, 10428, Note_off_c, 6, 47, 100
8, 10560, Note_on_c, 6, 47, 56
8, 10620, Note_off_c, 6, 47, 100
8, 10752, Note_on_c, 6, 43, 56
8, 10812, Note_off_c, 6, 43, 100
8, 10944, Note_on_c, 6, 50, 56
8, 11004, Note_off_c, 6, 50, 100
8, 11712, Note_on_c, 6, 43, 56
8, 11772, Note_off_c, 6, 43, 100
8, 11904, Note_on_c, 6, 47, 56
8, 11964, Note_off_c, 6, 47, 100
8, 12096, Note_on_c, 6, 40, 56
8, 12156, Note_off_c, 6, 40, 100
8, 12288, Note_on_c, 6, 45, 56
8, 12348, Note_off_c, 6, 45, 100
8, 12480, Note_on_c, 6, 43, 56
8, 12860, Note_off_c, 6, 43, 100
8, 12864, Note_on_c, 6, 42, 56
8, 12956, Note_off_c, 6, 42, 100
8, 12960, Note_on_c, 6, 40, 56
8, 13052, Note_off_c, 6, 40, 100
8, 13056, Note_on_c, 6, 42, 56
8, 13116, Note_off_c, 6, 42, 100
8, 13248, Note_on_c, 6, 43, 56
8, 13308, Note_off_c, 6, 43, 100
8, 13440, Note_on_c, 6, 38, 56
8, 13500, Note_off_c, 6, 38, 100
8, 14592, Note_on_c, 6, 50, 56
8, 14652, Note_off_c, 6, 50, 100
8, 14784, Note_on_c, 6, 54, 56
8, 14844, Note_off_c, 6, 54, 100
8, 14976, Note_on_c, 6, 47, 56
8, 15036, Note_off_c, 6, 47, 100
8, 15168, Note_on_c, 6, 52, 56
8, 15228, Note_off_c, 6, 52, 100
8, 15744, Note_on_c, 6, 49, 56
8, 15804, Note_off_c, 6, 49, 100
8, 15936, Note_on_c, 6, 52, 56
8, 15996, Note_off_c, 6, 52, 100
8, 16128, Note_on_c, 6, 45, 56
8, 16892, Note_off_c, 6, 45, 100
8, 16896, Note_on_c, 6, 43, 56
8, 16956, Note_off_c, 6, 43, 100
8, 17088, Note_on_c, 6, 47, 56
8, 17148, Note_off_c, 6, 47, 100
8, 17280, Note_on_c, 6, 40, 56
8, 17340, Note_off_c, 6, 40, 100
8, 17472, Note_on_c, 6, 42, 56
8, 17532, Note_off_c, 6, 42, 100
8, 17664, Note_on_c, 6, 40, 56
8, 17724, Note_off_c, 6, 40, 100
8, 17856, Note_on_c, 6, 38, 56
8, 18048, Note_off_c, 6, 38, 100
8, 18144, Note_on_c, 6, 45, 96
8, 18236, Note_off_c, 6, 45, 100
8, 18240, Note_on_c, 6, 47, 96
8, 18332, Note_off_c, 6, 47, 100
8, 18336, Note_on_c, 6, 49, 96
8, 18400, Note_off_c, 6, 49, 100
8, 18432, Note_on_c, 6, 50, 96
8, 18812, Note_off_c, 6, 50, 100
8, 18816, Note_on_c, 6, 48, 96
8, 18876, Note_off_c, 6, 48, 100
8, 19008, Note_on_c, 6, 47, 96
8, 19388, Note_off_c, 6, 47, 100
8, 19392, Note_on_c, 6, 43, 96
8, 19452, Note_off_c, 6, 43, 100
8, 19584, Note_on_c, 6, 48, 96
8, 19644, Note_off_c, 6, 48, 100
8, 19776, Note_on_c, 6, 42, 96
8, 19836, Note_off_c, 6, 42, 100
8, 19968, Note_on_c, 6, 45, 96
8, 20028, Note_off_c, 6, 45, 100
8, 20160, Note_on_c, 6, 47, 96
8, 20220, Note_off_c, 6, 47, 100
8, 20352, Note_on_c, 6, 39, 96
8, 20412, Note_off_c, 6, 39, 100
8, 20544, Note_on_c, 6, 35, 96
8, 20604, Note_off_c, 6, 35, 100
8, 20736, Note_on_c, 6, 40, 96
8, 20796, Note_off_c, 6, 40, 100
8, 20928, Note_on_c, 6, 43, 96
8, 20988, Note_off_c, 6, 43, 100
8, 21120, Note_on_c, 6, 40, 96
8, 21180, Note_off_c, 6, 40, 100
8, 21312, Note_on_c, 6, 45, 96
8, 21372, Note_off_c, 6, 45, 100
8, 21504, Note_on_c, 6, 42, 96
8, 21564, Note_off_c, 6, 42, 100
8, 21696, Note_on_c, 6, 40, 96
8, 21756, Note_off_c, 6, 40, 100
8, 21888, Note_on_c, 6, 45, 96
8, 21948, Note_off_c, 6, 45, 100
8, 22080, Note_on_c, 6, 47, 96
8, 22140, Note_off_c, 6, 47, 100
8, 22272, Note_on_c, 6, 35, 96
8, 22332, Note_off_c, 6, 35, 100
8, 22464, Note_on_c, 6, 40, 96
8, 22844, Note_off_c, 6, 40, 100
8, 22848, Note_on_c, 6, 38, 96
8, 22908, Note_off_c, 6, 38, 100
8, 23040, Note_on_c, 6, 36, 96
8, 23804, Note_off_c, 6, 36, 100
8, 23808, Note_on_c, 6, 35, 96
8, 24380, Note_off_c, 6, 35, 100
8, 24384, Note_on_c, 6, 33, 96
8, 24444, Note_off_c, 6, 33, 100
8, 24576, Note_on_c, 6, 36, 96
8, 24636, Note_off_c, 6, 36, 100
8, 24768, Note_on_c, 6, 30, 96
8, 24828, Note_off_c, 6, 30, 100
8, 24960, Note_on_c, 6, 26, 96
8, 25020, Note_off_c, 6, 26, 100
8, 25152, Note_on_c, 6, 30, 96
8, 25212, Note_off_c, 6, 30, 100
8, 25344, Note_on_c, 6, 31, 96
8, 25404, Note_off_c, 6, 31, 100
8, 25536, Note_on_c, 6, 35, 96
8, 25596, Note_off_c, 6, 35, 100
8, 25728, Note_on_c, 6, 31, 96
8, 25788, Note_off_c, 6, 31, 100
8, 25920, Note_on_c, 6, 36, 96
8, 26684, Note_off_c, 6, 36, 100
8, 26688, Note_on_c, 6, 35, 96
8, 26748, Note_off_c, 6, 35, 100
8, 26880, Note_on_c, 6, 38, 96
8, 26940, Note_off_c, 6, 38, 100
8, 27072, Note_on_c, 6, 31, 96
8, 27260, Note_off_c, 6, 31, 100
8, 27360, Note_on_c, 6, 45, 56
8, 27452, Note_off_c, 6, 45, 100
8, 27456, Note_on_c, 6, 47, 56
8, 27548, Note_off_c, 6, 47, 100
8, 27552, Note_on_c, 6, 48, 56
8, 27644, Note_off_c, 6, 48, 100
8, 27648, Note_on_c, 6, 50, 56
8, 28028, Note_off_c, 6, 50, 100
8, 28032, Note_on_c, 6, 48, 56
8, 28092, Note_off_c, 6, 48, 100
8, 28224, Note_on_c, 6, 47, 56
8, 28604, Note_off_c, 6, 47, 100
8, 28608, Note_on_c, 6, 43, 56
8, 28668, Note_off_c, 6, 43, 100
8, 28800, Note_on_c, 6, 48, 56
8, 28860, Note_off_c, 6, 48, 100
8, 28992, Note_on_c, 6, 42, 56
8, 29052, Note_off_c, 6, 42, 100
8, 29184, Note_on_c, 6, 45, 56
8, 29244, Note_off_c, 6, 45, 100
8, 29376, Note_on_c, 6, 47, 56
8, 29436, Note_off_c, 6, 47, 100
8, 29568, Note_on_c, 6, 39, 56
8, 29628, Note_off_c, 6, 39, 100
8, 29760, Note_on_c, 6, 35, 56
8, 29820, Note_off_c, 6, 35, 100
8, 29952, Note_on_c, 6, 40, 56
8, 30012, Note_off_c, 6, 40, 100
8, 30144, Note_on_c, 6, 43, 56
8, 30204, Note_off_c, 6, 43, 100
8, 30336, Note_on_c, 6, 40, 56
8, 30396, Note_off_c, 6, 40, 100
8, 30528, Note_on_c, 6, 45, 56
8, 30588, Note_off_c, 6, 45, 100
8, 30720, Note_on_c, 6, 42, 56
8, 30780, Note_off_c, 6, 42, 100
8, 30912, Note_on_c, 6, 40, 56
8, 30972, Note_off_c, 6, 40, 100
8, 31104, Note_on_c, 6, 45, 56
8, 31164, Note_off_c, 6, 45, 100
8, 31296, Note_on_c, 6, 47, 56
8, 31356, Note_off_c, 6, 47, 100
8, 31488, Note_on_c, 6, 35, 56
8, 31548, Note_off_c, 6, 35, 100
8, 31680, Note_on_c, 6, 40, 56
8, 32060, Note_off_c, 6, 40, 100
8, 32064, Note_on_c, 6, 38, 56
8, 32124, Note_off_c, 6, 38, 100
8, 32256, Note_on_c, 6, 36, 56
8, 33020, Note_off_c, 6, 36, 100
8, 33024, Note_on_c, 6, 35, 56
8, 33596, Note_off_c, 6, 35, 100
8, 33600, Note_on_c, 6, 33, 56
8, 33660, Note_off_c, 6, 33, 100
8, 33792, Note_on_c, 6, 36, 56
8, 33852, Note_off_c, 6, 36, 100
8, 33984, Note_on_c, 6, 30, 56
8, 34044, Note_off_c, 6, 30, 100
8, 34176, Note_on_c, 6, 26, 56
8, 34236, Note_off_c, 6, 26, 100
8, 34368, Note_on_c, 6, 30, 56
8, 34428, Note_off_c, 6, 30, 100
8, 34560, Note_on_c, 6, 31, 56
8, 34620, Note_off_c, 6, 31, 100
8, 34752, Note_on_c, 6, 35, 56
8, 34812, Note_off_c, 6, 35, 100
8, 34944, Note_on_c, 6, 31, 56
8, 35004, Note_off_c, 6, 31, 100
8, 35136, Note_on_c, 6, 36, 56
8, 35900, Note_off_c, 6, 36, 100
8, 35904, Note_on_c, 6, 35, 56
8, 35964, Note_off_c, 6, 35, 100
8, 36096, Note_on_c, 6, 38, 56
8, 36156, Note_off_c, 6, 38, 100
8, 36288, Note_on_c, 6, 43, 1
8, 36288, Note_on_c, 6, 31, 56
8, 36668, Note_off_c, 6, 31, 100
8, 37244, Note_off_c, 6, 43, 64
8, 37244, End_track
9, 0, Start_track
9, 0, Title_t, "All rights reserved"
9, 0, Control_c, 7, 0, 0
9, 0, Program_c, 7, 6
9, 0, Control_c, 7, 7, 127
9, 0, Control_c, 7, 10, 0
9, 0, Control_c, 7, 91, 127
9, 0, Key_signature, 1, "major"
9, 0, Note_on_c, 7, 43, 96
9, 572, Note_off_c, 7, 43, 100
9, 576, Note_on_c, 7, 42, 96
9, 1148, Note_off_c, 7, 42, 100
9, 1152, Note_on_c, 7, 40, 96
9, 1724, Note_off_c, 7, 40, 100
9, 1920, Note_on_c, 7, 38, 96
9, 1980, Note_off_c, 7, 38, 100
9, 2112, Note_on_c, 7, 42, 96
9, 2172, Note_off_c, 7, 42, 100
9, 2304, Note_on_c, 7, 35, 96
9, 2876, Note_off_c, 7, 35, 100
9, 2880, Note_on_c, 7, 36, 96
9, 3452, Note_off_c, 7, 36, 100
9, 3456, Note_on_c, 7, 38, 96
9, 4028, Note_off_c, 7, 38, 100
9, 4224, Note_on_c, 7, 35, 96
9, 4284, Note_off_c, 7, 35, 100
9, 4416, Note_on_c, 7, 38, 96
9, 4476, Note_off_c, 7, 38, 100
9, 4608, Note_on_c, 7, 31, 96
9, 4668, Note_off_c, 7, 31, 100
9, 4800, Note_on_c, 7, 43, 96
9, 5372, Note_off_c, 7, 43, 100
9, 5376, Note_on_c, 7, 42, 96
9, 5948, Note_off_c, 7, 42, 100
9, 5952, Note_on_c, 7, 40, 96
9, 6012, Note_off_c, 7, 40, 100
9, 6144, Note_on_c, 7, 43, 96
9, 6204, Note_off_c, 7, 43, 100
9, 6336, Note_on_c, 7, 37, 96
9, 6396, Note_off_c, 7, 37, 100
9, 6528, Note_on_c, 7, 45, 96
9, 6588, Note_off_c, 7, 45, 100
9, 6720, Note_on_c, 7, 49, 96
9, 6780, Note_off_c, 7, 49, 100
9, 6912, Note_on_c, 7, 42, 96
9, 7484, Note_off_c, 7, 42, 100
9, 7488, Note_on_c, 7, 43, 96
9, 7548, Note_off_c, 7, 43, 100
9, 7680, Note_on_c, 7, 31, 96
9, 8252, Note_off_c, 7, 31, 100
9, 8256, Note_on_c, 7, 30, 96
9, 8316, Note_off_c, 7, 30, 100
9, 8448, Note_on_c, 7, 33, 96
9, 8508, Note_off_c, 7, 33, 100
9, 8640, Note_on_c, 7, 26, 96
9, 8832, Note_off_c, 7, 26, 100
9, 8928, Note_on_c, 7, 38, 48
9, 9020, Note_off_c, 7, 38, 100
9, 9024, Note_on_c, 7, 40, 48
9, 9116, Note_off_c, 7, 40, 100
9, 9120, Note_on_c, 7, 42, 48
9, 9184, Note_off_c, 7, 42, 100
9, 9216, Note_on_c, 7, 43, 56
9, 9788, Note_off_c, 7, 43, 100
9, 9792, Note_on_c, 7, 42, 56
9, 10364, Note_off_c, 7, 42, 100
9, 10368, Note_on_c, 7, 40, 56
9, 10940, Note_off_c, 7, 40, 100
9, 11136, Note_on_c, 7, 38, 56
9, 11196, Note_off_c, 7, 38, 100
9, 11328, Note_on_c, 7, 42, 56
9, 11388, Note_off_c, 7, 42, 100
9, 11520, Note_on_c, 7, 35, 56
9, 12092, Note_off_c, 7, 35, 100
9, 12096, Note_on_c, 7, 36, 56
9, 12668, Note_off_c, 7, 36, 100
9, 12672, Note_on_c, 7, 38, 56
9, 13244, Note_off_c, 7, 38, 100
9, 13440, Note_on_c, 7, 35, 56
9, 13500, Note_off_c, 7, 35, 100
9, 13632, Note_on_c, 7, 38, 56
9, 13692, Note_off_c, 7, 38, 100
9, 13824, Note_on_c, 7, 31, 56
9, 13884, Note_off_c, 7, 31, 100
9, 14016, Note_on_c, 7, 43, 56
9, 14588, Note_off_c, 7, 43, 100
9, 14592, Note_on_c, 7, 42, 56
9, 15164, Note_off_c, 7, 42, 100
9, 15168, Note_on_c, 7, 40, 56
9, 15228, Note_off_c, 7, 40, 100
9, 15360, Note_on_c, 7, 43, 56
9, 15420, Note_off_c, 7, 43, 100
9, 15552, Note_on_c, 7, 37, 56
9, 15612, Note_off_c, 7, 37, 100
9, 15744, Note_on_c, 7, 45, 56
9, 15804, Note_off_c, 7, 45, 100
9, 15936, Note_on_c, 7, 49, 56
9, 15996, Note_off_c, 7, 49, 100
9, 16128, Note_on_c, 7, 42, 56
9, 16700, Note_off_c, 7, 42, 100
9, 16704, Note_on_c, 7, 43, 56
9, 16764, Note_off_c, 7, 43, 100
9, 16896, Note_on_c, 7, 31, 56
9, 17468, Note_off_c, 7, 31, 100
9, 17472, Note_on_c, 7, 30, 56
9, 17532, Note_off_c, 7, 30, 100
9, 17664, Note_on_c, 7, 33, 56
9, 17724, Note_off_c, 7, 33, 100
9, 17856, Note_on_c, 7, 26, 56
9, 18048, Note_off_c, 7, 26, 100
9, 19200, Note_on_c, 7, 50, 96
9, 19260, Note_off_c, 7, 50, 100
9, 19392, Note_on_c, 7, 55, 96
9, 19452, Note_off_c, 7, 55, 100
9, 19584, Note_on_c, 7, 52, 96
9, 19644, Note_off_c, 7, 52, 100
9, 19776, Note_on_c, 7, 48, 96
9, 20156, Note_off_c, 7, 48, 100
9, 20352, Note_on_c, 7, 47, 96
9, 20444, Note_off_c, 7, 47, 100
9, 20448, Note_on_c, 7, 45, 96
9, 20540, Note_off_c, 7, 45, 100
9, 20544, Note_on_c, 7, 43, 96
9, 20636, Note_off_c, 7, 43, 100
9, 20640, Note_on_c, 7, 42, 96
9, 20732, Note_off_c, 7, 42, 100
9, 20736, Note_on_c, 7, 43, 96
9, 20828, Note_off_c, 7, 43, 100
9, 20832, Note_on_c, 7, 45, 96
9, 20924, Note_off_c, 7, 45, 100
9, 20928, Note_on_c, 7, 47, 96
9, 21500, Note_off_c, 7, 47, 100
9, 21504, Note_on_c, 7, 45, 96
9, 21564, Note_off_c, 7, 45, 100
9, 21696, Note_on_c, 7, 47, 96
9, 21756, Note_off_c, 7, 47, 100
9, 21888, Note_on_c, 7, 48, 96
9, 21948, Note_off_c, 7, 48, 100
9, 22080, Note_on_c, 7, 47, 96
9, 22652, Note_off_c, 7, 47, 100
9, 22656, Note_on_c, 7, 43, 96
9, 22716, Note_off_c, 7, 43, 100
9, 22848, Note_on_c, 7, 47, 96
9, 22908, Note_off_c, 7, 47, 100
9, 23040, Note_on_c, 7, 40, 96
9, 23100, Note_off_c, 7, 40, 100
9, 23232, Note_on_c, 7, 45, 96
9, 23324, Note_off_c, 7, 45, 100
9, 23328, Note_on_c, 7, 43, 96
9, 23420, Note_off_c, 7, 43, 100
9, 23424, Note_on_c, 7, 42, 96
9, 23516, Note_off_c, 7, 42, 100
9, 23520, Note_on_c, 7, 43, 96
9, 23612, Note_off_c, 7, 43, 100
9, 23616, Note_on_c, 7, 50, 96
9, 24188, Note_off_c, 7, 50, 100
9, 24192, Note_on_c, 7, 48, 96
9, 24252, Note_off_c, 7, 48, 100
9, 24384, Note_on_c, 7, 42, 96
9, 24444, Note_off_c, 7, 42, 100
9, 24576, Note_on_c, 7, 45, 96
9, 24636, Note_off_c, 7, 45, 100
9, 24768, Note_on_c, 7, 38, 96
9, 25724, Note_off_c, 7, 38, 100
9, 25728, Note_on_c, 7, 43, 96
9, 26108, Note_off_c, 7, 43, 100
9, 26112, Note_on_c, 7, 45, 96
9, 26172, Note_off_c, 7, 45, 100
9, 26304, Note_on_c, 7, 48, 96
9, 26364, Note_off_c, 7, 48, 100
9, 26496, Note_on_c, 7, 42, 96
9, 26556, Note_off_c, 7, 42, 100
9, 26688, Note_on_c, 7, 43, 96
9, 26748, Note_off_c, 7, 43, 100
9, 26880, Note_on_c, 7, 45, 96
9, 26940, Note_off_c, 7, 45, 100
9, 27072, Note_on_c, 7, 43, 96
9, 27452, Note_off_c, 7, 43, 100
9, 28416, Note_on_c, 7, 50, 56
9, 28476, Note_off_c, 7, 50, 100
9, 28608, Note_on_c, 7, 55, 56
9, 28668, Note_off_c, 7, 55, 100
9, 28800, Note_on_c, 7, 52, 56
9, 28860, Note_off_c, 7, 52, 100
9, 28992, Note_on_c, 7, 48, 56
9, 29372, Note_off_c, 7, 48, 100
9, 31104, Note_on_c, 7, 48, 56
9, 31164, Note_off_c, 7, 48, 100
9, 32832, Note_on_c, 7, 50, 56
9, 33404, Note_off_c, 7, 50, 100
9, 33408, Note_on_c, 7, 48, 56
9, 33468, Note_off_c, 7, 48, 100
9, 35520, Note_on_c, 7, 48, 56
9, 35580, Note_off_c, 7, 48, 100
9, 35580, End_track
10, 0, Start_track
10, 0, Control_c, 8, 0, 0
10, 0, Program_c, 8, 6
10, 0, Control_c, 8, 7, 127
10, 0, Control_c, 8, 10, 64
10, 0, Control_c, 8, 91, 127
10, 0, Key_signature, 1, "major"
10, 192, Note_on_c, 8, 59, 64
10, 252, Note_off_c, 8, 59, 100
10, 384, Note_on_c, 8, 55, 64
10, 444, Note_off_c, 8, 55, 100
10, 576, Note_on_c, 8, 62, 64
10, 636, Note_off_c, 8, 62, 100
10, 768, Note_on_c, 8, 57, 64
10, 828, Note_off_c, 8, 57, 100
10, 960, Note_on_c, 8, 62, 64
10, 1020, Note_off_c, 8, 62, 100
10, 1152, Note_on_c, 8, 67, 64
10, 1916, Note_off_c, 8, 67, 100
10, 1920, Note_on_c, 8, 66, 64
10, 2108, Note_off_c, 8, 66, 100
10, 3648, Note_on_c, 8, 57, 64
10, 3708, Note_off_c, 8, 57, 100
10, 3840, Note_on_c, 8, 60, 64
10, 4124, Note_off_c, 8, 60, 100
10, 4128, Note_on_c, 8, 57, 64
10, 4220, Note_off_c, 8, 57, 100
10, 4224, Note_on_c, 8, 59, 64
10, 4284, Note_off_c, 8, 59, 100
10, 4800, Note_on_c, 8, 64, 64
10, 4860, Note_off_c, 8, 64, 100
10, 4992, Note_on_c, 8, 67, 64
10, 5052, Note_off_c, 8, 67, 100
10, 5184, Note_on_c, 8, 61, 64
10, 5244, Note_off_c, 8, 61, 100
10, 5376, Note_on_c, 8, 69, 64
10, 5632, Note_off_c, 8, 69, 100
10, 5760, Note_on_c, 8, 62, 64
10, 5820, Note_off_c, 8, 62, 100
10, 5952, Note_on_c, 8, 67, 64
10, 6332, Note_off_c, 8, 67, 100
10, 6528, Note_on_c, 8, 66, 64
10, 6588, Note_off_c, 8, 66, 100
10, 6720, Note_on_c, 8, 64, 64
10, 7100, Note_off_c, 8, 64, 100
10, 7104, Note_on_c, 8, 62, 64
10, 7164, Note_off_c, 8, 62, 100
10, 7296, Note_on_c, 8, 60, 64
10, 7552, Note_off_c, 8, 60, 100
10, 7680, Note_on_c, 8, 59, 64
10, 8060, Note_off_c, 8, 59, 100
10, 8064, Note_on_c, 8, 57, 64
10, 8124, Note_off_c, 8, 57, 100
10, 8256, Note_on_c, 8, 62, 64
10, 8316, Note_off_c, 8, 62, 100
10, 8448, Note_on_c, 8, 61, 64
10, 8828, Note_off_c, 8, 61, 100
10, 8832, Note_on_c, 8, 62, 64
10, 9020, Note_off_c, 8, 62, 100
10, 19200, Note_on_c, 8, 62, 64
10, 19260, Note_off_c, 8, 62, 100
10, 19392, Note_on_c, 8, 59, 64
10, 19452, Note_off_c, 8, 59, 100
10, 19584, Note_on_c, 8, 55, 64
10, 19644, Note_off_c, 8, 55, 100
10, 19776, Note_on_c, 8, 57, 64
10, 19836, Note_off_c, 8, 57, 100
10, 19968, Note_on_c, 8, 60, 64
10, 20028, Note_off_c, 8, 60, 100
10, 20160, Note_on_c, 8, 54, 64
10, 20284, Note_off_c, 8, 54, 100
10, 20928, Note_on_c, 8, 59, 64
10, 20988, Note_off_c, 8, 59, 100
10, 21120, Note_on_c, 8, 55, 64
10, 21180, Note_off_c, 8, 55, 100
10, 21312, Note_on_c, 8, 52, 64
10, 21372, Note_off_c, 8, 52, 100
10, 21504, Note_on_c, 8, 54, 64
10, 21564, Note_off_c, 8, 54, 100
10, 21696, Note_on_c, 8, 55, 64
10, 21756, Note_off_c, 8, 55, 100
10, 21888, Note_on_c, 8, 54, 64
10, 22460, Note_off_c, 8, 54, 100
10, 22464, Note_on_c, 8, 52, 64
10, 22844, Note_off_c, 8, 52, 100
10, 23232, Note_on_c, 8, 57, 64
10, 23292, Note_off_c, 8, 57, 100
10, 23424, Note_on_c, 8, 60, 64
10, 23484, Note_off_c, 8, 60, 100
10, 23616, Note_on_c, 8, 54, 64
10, 23676, Note_off_c, 8, 54, 100
10, 23808, Note_on_c, 8, 55, 64
10, 23868, Note_off_c, 8, 55, 100
10, 24000, Note_on_c, 8, 59, 64
10, 24060, Note_off_c, 8, 59, 100
10, 24192, Note_on_c, 8, 52, 64
10, 24252, Note_off_c, 8, 52, 100
10, 24384, Note_on_c, 8, 57, 64
10, 24764, Note_off_c, 8, 57, 100
10, 24960, Note_on_c, 8, 54, 64
10, 25020, Note_off_c, 8, 54, 100
10, 25152, Note_on_c, 8, 57, 64
10, 25532, Note_off_c, 8, 57, 100
10, 25536, Note_on_c, 8, 55, 64
10, 25596, Note_off_c, 8, 55, 100
10, 25728, Note_on_c, 8, 59, 64
10, 25788, Note_off_c, 8, 59, 100
10, 25920, Note_on_c, 8, 52, 64
10, 26492, Note_off_c, 8, 52, 100
10, 26496, Note_on_c, 8, 45, 64
10, 26556, Note_off_c, 8, 45, 100
10, 26688, Note_on_c, 8, 50, 64
10, 26748, Note_off_c, 8, 50, 100
10, 26880, Note_on_c, 8, 48, 64
10, 27164, Note_off_c, 8, 48, 100
10, 27168, Note_on_c, 8, 45, 64
10, 27260, Note_off_c, 8, 45, 100
10, 27264, Note_on_c, 8, 47, 64
10, 27324, Note_off_c, 8, 47, 100
10, 27324, End_track
11, 0, Start_track
11, 0, Control_c, 10, 0, 0
11, 0, Program_c, 10, 6
11, 0, Control_c, 10, 7, 127
11, 0, Control_c, 10, 10, 64
11, 0, Control_c, 10, 91, 127
11, 0, Key_signature, 1, "major"
11, 1344, Note_on_c, 10, 55, 64
11, 1404, Note_off_c, 10, 55, 100
11, 1536, Note_on_c, 10, 60, 64
11, 1596, Note_off_c, 10, 60, 100
11, 1728, Note_on_c, 10, 59, 64
11, 1820, Note_off_c, 10, 59, 100
11, 1824, Note_on_c, 10, 55, 64
11, 1916, Note_off_c, 10, 55, 100
11, 1920, Note_on_c, 10, 57, 64
11, 2108, Note_off_c, 10, 57, 100
11, 3072, Note_on_c, 10, 48, 64
11, 3260, Note_off_c, 10, 48, 100
11, 3264, Note_on_c, 10, 52, 64
11, 3324, Note_off_c, 10, 52, 100
11, 3456, Note_on_c, 10, 45, 64
11, 3516, Note_off_c, 10, 45, 100
11, 3648, Note_on_c, 10, 50, 64
11, 4220, Note_off_c, 10, 50, 100
11, 4224, Note_on_c, 10, 55, 64
11, 4284, Note_off_c, 10, 55, 100
11, 5952, Note_on_c, 10, 61, 64
11, 6012, Note_off_c, 10, 61, 100
11, 6144, Note_on_c, 10, 64, 64
11, 6204, Note_off_c, 10, 64, 100
11, 6336, Note_on_c, 10, 57, 64
11, 6460, Note_off_c, 10, 57, 100
11, 6720, Note_on_c, 10, 55, 64
11, 7100, Note_off_c, 10, 55, 100
11, 7104, Note_on_c, 10, 54, 64
11, 7164, Note_off_c, 10, 54, 100
11, 7296, Note_on_c, 10, 57, 64
11, 7356, Note_off_c, 10, 57, 100
11, 7488, Note_on_c, 10, 50, 64
11, 7548, Note_off_c, 10, 50, 100
11, 7680, Note_on_c, 10, 52, 64
11, 7740, Note_off_c, 10, 52, 100
11, 7872, Note_on_c, 10, 55, 64
11, 7932, Note_off_c, 10, 55, 100
11, 8064, Note_on_c, 10, 49, 64
11, 8124, Note_off_c, 10, 49, 100
11, 8256, Note_on_c, 10, 57, 64
11, 8316, Note_off_c, 10, 57, 100
11, 8448, Note_on_c, 10, 55, 64
11, 8732, Note_off_c, 10, 55, 100
11, 8736, Note_on_c, 10, 52, 64
11, 8828, Note_off_c, 10, 52, 100
11, 8832, Note_on_c, 10, 54, 64
11, 9020, Note_off_c, 10, 54, 100
11, 18624, Note_on_c, 10, 66, 64
11, 18684, Note_off_c, 10, 66, 100
11, 18816, Note_on_c, 10, 62, 64
11, 18876, Note_off_c, 10, 62, 100
11, 19008, Note_on_c, 10, 67, 64
11, 19068, Note_off_c, 10, 67, 100
11, 19200, Note_on_c, 10, 71, 64
11, 19580, Note_off_c, 10, 71, 100
11, 19776, Note_on_c, 10, 69, 64
11, 19868, Note_off_c, 10, 69, 100
11, 19872, Note_on_c, 10, 67, 64
11, 19964, Note_off_c, 10, 67, 100
11, 19968, Note_on_c, 10, 66, 64
11, 20060, Note_off_c, 10, 66, 100
11, 20064, Note_on_c, 10, 64, 64
11, 20156, Note_off_c, 10, 64, 100
11, 20160, Note_on_c, 10, 63, 64
11, 20252, Note_off_c, 10, 63, 100
11, 20256, Note_on_c, 10, 64, 64
11, 20348, Note_off_c, 10, 64, 100
11, 20352, Note_on_c, 10, 66, 64
11, 20732, Note_off_c, 10, 66, 100
11, 20928, Note_on_c, 10, 64, 64
11, 20988, Note_off_c, 10, 64, 100
11, 21120, Note_on_c, 10, 67, 64
11, 21180, Note_off_c, 10, 67, 100
11, 21312, Note_on_c, 10, 61, 64
11, 21372, Note_off_c, 10, 61, 100
11, 21504, Note_on_c, 10, 63, 64
11, 21564, Note_off_c, 10, 63, 100
11, 21696, Note_on_c, 10, 64, 64
11, 21884, Note_off_c, 10, 64, 100
11, 22080, Note_on_c, 10, 63, 64
11, 22172, Note_off_c, 10, 63, 100
11, 22176, Note_on_c, 10, 61, 64
11, 22268, Note_off_c, 10, 61, 100
11, 22272, Note_on_c, 10, 59, 64
11, 22364, Note_off_c, 10, 59, 100
11, 22368, Note_on_c, 10, 57, 64
11, 22432, Note_off_c, 10, 57, 100
11, 22464, Note_on_c, 10, 57, 64
11, 22484, Note_off_c, 10, 57, 100
11, 22488, Note_on_c, 10, 55, 64
11, 22508, Note_off_c, 10, 55, 100
11, 22512, Note_on_c, 10, 57, 64
11, 22532, Note_off_c, 10, 57, 100
11, 22536, Note_on_c, 10, 55, 64
11, 22556, Note_off_c, 10, 55, 100
11, 22560, Note_on_c, 10, 54, 64
11, 22652, Note_off_c, 10, 54, 100
11, 22656, Note_on_c, 10, 52, 64
11, 22716, Note_off_c, 10, 52, 100
11, 23232, Note_on_c, 10, 60, 64
11, 23292, Note_off_c, 10, 60, 100
11, 23424, Note_on_c, 10, 64, 64
11, 23484, Note_off_c, 10, 64, 100
11, 23616, Note_on_c, 10, 57, 64
11, 23676, Note_off_c, 10, 57, 100
11, 23808, Note_on_c, 10, 59, 64
11, 23868, Note_off_c, 10, 59, 100
11, 24000, Note_on_c, 10, 62, 64
11, 24060, Note_off_c, 10, 62, 100
11, 24192, Note_on_c, 10, 55, 64
11, 24252, Note_off_c, 10, 55, 100
11, 24384, Note_on_c, 10, 60, 64
11, 24764, Note_off_c, 10, 60, 100
11, 24960, Note_on_c, 10, 62, 64
11, 25020, Note_off_c, 10, 62, 100
11, 25152, Note_on_c, 10, 60, 64
11, 25212, Note_off_c, 10, 60, 100
11, 25344, Note_on_c, 10, 59, 64
11, 25436, Note_off_c, 10, 59, 100
11, 25440, Note_on_c, 10, 60, 64
11, 25532, Note_off_c, 10, 60, 100
11, 25536, Note_on_c, 10, 62, 64
11, 25916, Note_off_c, 10, 62, 100
11, 26016, Note_on_c, 10, 60, 64
11, 26108, Note_off_c, 10, 60, 100
11, 26112, Note_on_c, 10, 62, 64
11, 26204, Note_off_c, 10, 62, 100
11, 26208, Note_on_c, 10, 60, 64
11, 26300, Note_off_c, 10, 60, 100
11, 26304, Note_on_c, 10, 59, 64
11, 26396, Note_off_c, 10, 59, 100
11, 26400, Note_on_c, 10, 57, 64
11, 26492, Note_off_c, 10, 57, 100
11, 26496, Note_on_c, 10, 62, 64
11, 26556, Note_off_c, 10, 62, 100
11, 26688, Note_on_c, 10, 55, 64
11, 26748, Note_off_c, 10, 55, 100
11, 26880, Note_on_c, 10, 54, 64
11, 27260, Note_off_c, 10, 54, 100
11, 27264, Note_on_c, 10, 55, 64
11, 27324, Note_off_c, 10, 55, 100
11, 27324, End_track
12, 0, Start_track
12, 0, Control_c, 11, 0, 0
12, 0, Program_c, 11, 6
12, 0, Control_c, 11, 7, 127
12, 0, Control_c, 11, 10, 64
12, 0, Control_c, 11, 91, 127
12, 0, Key_signature, 1, "major"
12, 768, Note_on_c, 11, 74, 96
12, 828, Note_off_c, 11, 74, 100
12, 960, Note_on_c, 11, 78, 96
12, 1020, Note_off_c, 11, 78, 100
12, 1152, Note_on_c, 11, 71, 96
12, 1212, Note_off_c, 11, 71, 100
12, 1344, Note_on_c, 11, 71, 96
12, 1404, Note_off_c, 11, 71, 100
12, 1536, Note_on_c, 11, 67, 96
12, 1596, Note_off_c, 11, 67, 100
12, 1728, Note_on_c, 11, 74, 96
12, 1788, Note_off_c, 11, 74, 100
12, 2496, Note_on_c, 11, 67, 96
12, 2556, Note_off_c, 11, 67, 100
12, 2688, Note_on_c, 11, 71, 96
12, 2748, Note_off_c, 11, 71, 100
12, 2880, Note_on_c, 11, 64, 96
12, 2940, Note_off_c, 11, 64, 100
12, 3072, Note_on_c, 11, 69, 96
12, 3132, Note_off_c, 11, 69, 100
12, 3264, Note_on_c, 11, 67, 96
12, 3644, Note_off_c, 11, 67, 100
12, 3648, Note_on_c, 11, 66, 96
12, 3740, Note_off_c, 11, 66, 100
12, 3744, Note_on_c, 11, 64, 96
12, 3836, Note_off_c, 11, 64, 100
12, 3840, Note_on_c, 11, 66, 96
12, 3900, Note_off_c, 11, 66, 100
12, 4032, Note_on_c, 11, 67, 96
12, 4092, Note_off_c, 11, 67, 100
12, 4224, Note_on_c, 11, 62, 96
12, 4284, Note_off_c, 11, 62, 100
12, 5376, Note_on_c, 11, 74, 96
12, 5436, Note_off_c, 11, 74, 100
12, 5568, Note_on_c, 11, 78, 96
12, 5628, Note_off_c, 11, 78, 100
12, 5760, Note_on_c, 11, 71, 96
12, 5820, Note_off_c, 11, 71, 100
12, 5952, Note_on_c, 11, 76, 96
12, 6012, Note_off_c, 11, 76, 100
12, 6528, Note_on_c, 11, 73, 96
12, 6588, Note_off_c, 11, 73, 100
12, 6720, Note_on_c, 11, 76, 96
12, 6780, Note_off_c, 11, 76, 100
12, 6912, Note_on_c, 11, 69, 96
12, 7676, Note_off_c, 11, 69, 100
12, 7680, Note_on_c, 11, 67, 96
12, 7740, Note_off_c, 11, 67, 100
12, 7872, Note_on_c, 11, 71, 96
12, 7932, Note_off_c, 11, 71, 100
12, 8064, Note_on_c, 11, 64, 96
12, 8124, Note_off_c, 11, 64, 100
12, 8256, Note_on_c, 11, 66, 96
12, 8316, Note_off_c, 11, 66, 100
12, 8448, Note_on_c, 11, 64, 96
12, 8508, Note_off_c, 11, 64, 100
12, 8640, Note_on_c, 11, 62, 96
12, 9020, Note_off_c, 11, 62, 100
12, 18144, Note_on_c, 11, 69, 96
12, 18236, Note_off_c, 11, 69, 100
12, 18240, Note_on_c, 11, 71, 96
12, 18332, Note_off_c, 11, 71, 100
12, 18336, Note_on_c, 11, 73, 96
12, 18400, Note_off_c, 11, 73, 100
12, 18432, Note_on_c, 11, 74, 96
12, 18812, Note_off_c, 11, 74, 100
12, 18816, Note_on_c, 11, 72, 96
12, 18876, Note_off_c, 11, 72, 100
12, 19008, Note_on_c, 11, 71, 96
12, 19388, Note_off_c, 11, 71, 100
12, 19392, Note_on_c, 11, 67, 96
12, 19452, Note_off_c, 11, 67, 100
12, 19584, Note_on_c, 11, 72, 96
12, 19644, Note_off_c, 11, 72, 100
12, 19776, Note_on_c, 11, 66, 96
12, 19836, Note_off_c, 11, 66, 100
12, 19968, Note_on_c, 11, 69, 96
12, 20028, Note_off_c, 11, 69, 100
12, 20160, Note_on_c, 11, 71, 96
12, 20220, Note_off_c, 11, 71, 100
12, 20352, Note_on_c, 11, 63, 96
12, 20412, Note_off_c, 11, 63, 100
12, 20544, Note_on_c, 11, 59, 96
12, 20604, Note_off_c, 11, 59, 100
12, 20736, Note_on_c, 11, 64, 96
12, 20796, Note_off_c, 11, 64, 100
12, 20928, Note_on_c, 11, 67, 96
12, 20988, Note_off_c, 11, 67, 100
12, 21120, Note_on_c, 11, 64, 96
12, 21180, Note_off_c, 11, 64, 100
12, 21312, Note_on_c, 11, 69, 96
12, 21372, Note_off_c, 11, 69, 100
12, 21504, Note_on_c, 11, 66, 96
12, 21564, Note_off_c, 11, 66, 100
12, 21696, Note_on_c, 11, 64, 96
12, 21756, Note_off_c, 11, 64, 100
12, 21888, Note_on_c, 11, 69, 96
12, 21948, Note_off_c, 11, 69, 100
12, 22080, Note_on_c, 11, 71, 96
12, 22140, Note_off_c, 11, 71, 100
12, 22272, Note_on_c, 11, 59, 96
12, 22332, Note_off_c, 11, 59, 100
12, 22464, Note_on_c, 11, 64, 96
12, 22844, Note_off_c, 11, 64, 100
12, 22848, Note_on_c, 11, 62, 96
12, 22908, Note_off_c, 11, 62, 100
12, 23040, Note_on_c, 11, 60, 96
12, 23804, Note_off_c, 11, 60, 100
12, 23808, Note_on_c, 11, 59, 96
12, 24380, Note_off_c, 11, 59, 100
12, 24384, Note_on_c, 11, 57, 96
12, 24444, Note_off_c, 11, 57, 100
12, 24576, Note_on_c, 11, 60, 96
12, 24636, Note_off_c, 11, 60, 100
12, 24768, Note_on_c, 11, 54, 96
12, 24828, Note_off_c, 11, 54, 100
12, 24960, Note_on_c, 11, 50, 96
12, 25020, Note_off_c, 11, 50, 100
12, 25152, Note_on_c, 11, 54, 96
12, 25212, Note_off_c, 11, 54, 100
12, 25344, Note_on_c, 11, 55, 96
12, 25404, Note_off_c, 11, 55, 100
12, 25536, Note_on_c, 11, 59, 96
12, 25596, Note_off_c, 11, 59, 100
12, 25728, Note_on_c, 11, 55, 96
12, 25788, Note_off_c, 11, 55, 100
12, 25920, Note_on_c, 11, 60, 96
12, 26684, Note_off_c, 11, 60, 100
12, 26688, Note_on_c, 11, 59, 96
12, 26748, Note_off_c, 11, 59, 100
12, 26880, Note_on_c, 11, 62, 96
12, 26940, Note_off_c, 11, 62, 100
12, 27072, Note_on_c, 11, 55, 96
12, 27260, Note_off_c, 11, 55, 100
12, 27260, End_track
13, 0, Start_track
13, 0, Control_c, 12, 0, 0
13, 0, Program_c, 12, 6
13, 0, Control_c, 12, 7, 125
13, 0, Control_c, 12, 10, 67
13, 0, Control_c, 12, 91, 124
13, 0, Key_signature, 1, "major"
13, 0, Note_on_c, 12, 67, 96
13, 572, Note_off_c, 12, 67, 100
13, 576, Note_on_c, 12, 66, 96
13, 1148, Note_off_c, 12, 66, 100
13, 1152, Note_on_c, 12, 64, 96
13, 1724, Note_off_c, 12, 64, 100
13, 1920, Note_on_c, 12, 62, 96
13, 1980, Note_off_c, 12, 62, 100
13, 2112, Note_on_c, 12, 66, 96
13, 2172, Note_off_c, 12, 66, 100
13, 2304, Note_on_c, 12, 59, 96
13, 2876, Note_off_c, 12, 59, 100
13, 2880, Note_on_c, 12, 60, 96
13, 3452, Note_off_c, 12, 60, 100
13, 3456, Note_on_c, 12, 62, 96
13, 4028, Note_off_c, 12, 62, 100
13, 4224, Note_on_c, 12, 59, 96
13, 4284, Note_off_c, 12, 59, 100
13, 4416, Note_on_c, 12, 62, 96
13, 4476, Note_off_c, 12, 62, 100
13, 4608, Note_on_c, 12, 55, 96
13, 4668, Note_off_c, 12, 55, 100
13, 4800, Note_on_c, 12, 67, 96
13, 5372, Note_off_c, 12, 67, 100
13, 5376, Note_on_c, 12, 66, 96
13, 5948, Note_off_c, 12, 66, 100
13, 5952, Note_on_c, 12, 64, 96
13, 6012, Note_off_c, 12, 64, 100
13, 6144, Note_on_c, 12, 67, 96
13, 6204, Note_off_c, 12, 67, 100
13, 6336, Note_on_c, 12, 61, 96
13, 6396, Note_off_c, 12, 61, 100
13, 6528, Note_on_c, 12, 69, 96
13, 6588, Note_off_c, 12, 69, 100
13, 6720, Note_on_c, 12, 73, 96
13, 6780, Note_off_c, 12, 73, 100
13, 6912, Note_on_c, 12, 66, 96
13, 7484, Note_off_c, 12, 66, 100
13, 7488, Note_on_c, 12, 67, 96
13, 7548, Note_off_c, 12, 67, 100
13, 7680, Note_on_c, 12, 55, 96
13, 8252, Note_off_c, 12, 55, 100
13, 8256, Note_on_c, 12, 54, 96
13, 8316, Note_off_c, 12, 54, 100
13, 8448, Note_on_c, 12, 57, 96
13, 8508, Note_off_c, 12, 57, 100
13, 8640, Note_on_c, 12, 50, 96
13, 8832, Note_off_c, 12, 50, 100
13, 19200, Note_on_c, 12, 74, 96
13, 19260, Note_off_c, 12, 74, 100
13, 19392, Note_on_c, 12, 79, 96
13, 19452, Note_off_c, 12, 79, 100
13, 19584, Note_on_c, 12, 76, 96
13, 19644, Note_off_c, 12, 76, 100
13, 19776, Note_on_c, 12, 72, 96
13, 20156, Note_off_c, 12, 72, 100
13, 20352, Note_on_c, 12, 71, 96
13, 20444, Note_off_c, 12, 71, 100
13, 20448, Note_on_c, 12, 69, 96
13, 20540, Note_off_c, 12, 69, 100
13, 20544, Note_on_c, 12, 67, 96
13, 20636, Note_off_c, 12, 67, 100
13, 20640, Note_on_c, 12, 66, 96
13, 20732, Note_off_c, 12, 66, 100
13, 20736, Note_on_c, 12, 67, 96
13, 20828, Note_off_c, 12, 67, 100
13, 20832, Note_on_c, 12, 69, 96
13, 20924, Note_off_c, 12, 69, 100
13, 20928, Note_on_c, 12, 71, 96
13, 21500, Note_off_c, 12, 71, 100
13, 21504, Note_on_c, 12, 69, 96
13, 21564, Note_off_c, 12, 69, 100
13, 21696, Note_on_c, 12, 71, 96
13, 21756, Note_off_c, 12, 71, 100
13, 21888, Note_on_c, 12, 72, 96
13, 21948, Note_off_c, 12, 72, 100
13, 22080, Note_on_c, 12, 71, 96
13, 22652, Note_off_c, 12, 71, 100
13, 22656, Note_on_c, 12, 67, 96
13, 22716, Note_off_c, 12, 67, 100
13, 22848, Note_on_c, 12, 71, 96
13, 22908, Note_off_c, 12, 71, 100
13, 23040, Note_on_c, 12, 64, 96
13, 23100, Note_off_c, 12, 64, 100
13, 23232, Note_on_c, 12, 69, 96
13, 23324, Note_off_c, 12, 69, 100
13, 23328, Note_on_c, 12, 67, 96
13, 23420, Note_off_c, 12, 67, 100
13, 23424, Note_on_c, 12, 66, 96
13, 23516, Note_off_c, 12, 66, 100
13, 23520, Note_on_c, 12, 67, 96
13, 23612, Note_off_c, 12, 67, 100
13, 23616, Note_on_c, 12, 74, 96
13, 24188, Note_off_c, 12, 74, 100
13, 24192, Note_on_c, 12, 72, 96
13, 24252, Note_off_c, 12, 72, 100
13, 24384, Note_on_c, 12, 66, 96
13, 24444, Note_off_c, 12, 66, 100
13, 24576, Note_on_c, 12, 69, 96
13, 24636, Note_off_c, 12, 69, 100
13, 24768, Note_on_c, 12, 62, 96
13, 25724, Note_off_c, 12, 62, 100
13, 25728, Note_on_c, 12, 67, 96
13, 26108, Note_off_c, 12, 67, 100
13, 26112, Note_on_c, 12, 69, 96
13, 26172, Note_off_c, 12, 69, 100
13, 26304, Note_on_c, 12, 72, 96
13, 26364, Note_off_c, 12, 72, 100
13, 26496, Note_on_c, 12, 66, 96
13, 26556, Note_off_c, 12, 66, 100
13, 26688, Note_on_c, 12, 67, 96
13, 26748, Note_off_c, 12, 67, 100
13, 26880, Note_on_c, 12, 69, 96
13, 26940, Note_off_c, 12, 69, 100
13, 27072, Note_on_c, 12, 67, 96
13, 27452, Note_off_c, 12, 67, 100
13, 27452, End_track
14, 0, Start_track
14, 1, Copyright_t, "___________________________________________________\012\012KUNSTDERFUGE.COM LARGE CLASSICAL MIDI COLLECTION\012ONCLASSICAL BY ALESSANDRO SIMONETTO, PROPRIETOR\012___________________________________________________\012\012! Attention: this file is under copyright !\012\012(c)onclassical, (c)degiusti, 2010\012___________________________________________________\012\012NO ONE MAY REPUBLISH THIS FILE WITHOUT PERMISSION\012COMMERCIAL USES OF THIS FILE IS STRICTLY PROHIBITED\012___________________________________________________\012\012Files & contributor's list: http://kunstderfuge.com/\012Terms and conditions: http://kunstderfuge.com/notes.htm"
14, 1, End_track
0, 0, End_of_file