0, 0, Header, 1, 14, 384
1, 0, Start_track
1, 0, Time_signature, 4, 2, 96, 8
1, 0, Sequencer_specific, 03, 00, 00, 41
1, 0, Sequencer_specific, 05, 00, 00, 77, 0E, 00
1, 0, Tempo, 125000
1, 1152, Tempo, 127118
1, 1156, Tempo, 129589
1, 1160, Tempo, 132158
1, 1164, Tempo, 134529
1, 1168, Tempo, 137299
1, 1172, Tempo, 140186
1, 1176, Tempo, 143198
1, 1180, Tempo, 145985
1, 1184, Tempo, 149253
1, 1188, Tempo, 152671
1, 1192, Tempo, 156250
1, 1196, Tempo, 159574
1, 1200, Tempo, 163487
1, 1204, Tempo, 167597
1, 1208, Tempo, 171919
1, 1212, Tempo, 175953
1, 1216, Tempo, 180722
1, 1220, Tempo, 185758
1, 1224, Tempo, 191082
1, 1228, Tempo, 196078
1, 1232, Tempo, 202020
1, 1236, Tempo, 208333
1, 1240, Tempo, 215053
1, 1244, Tempo, 221402
1, 1248, Tempo, 229007
1, 1252, Tempo, 237154
1, 1256, Tempo, 245901
1, 1260, Tempo, 254237
1, 1264, Tempo, 264317
1, 1268, Tempo, 275229
1, 1272, Tempo, 287081
1, 1276, Tempo, 298507
1, 1280, Tempo, 312500
1, 1284, Tempo, 327868
1, 1288, Tempo, 344827
1, 1292, Tempo, 361445
1, 1296, Tempo, 382165
1, 1300, Tempo, 405405
1, 1304, Tempo, 431654
1, 1308, Tempo, 458015
1, 1312, Tempo, 491803
1, 1316, Tempo, 530973
1, 1320, Tempo, 576923
1, 1324, Tempo, 625000
1, 1328, Tempo, 689655
1, 1332, Tempo, 769230
1, 1336, Tempo, 869565
1, 1340, Tempo, 983606
1, 1344, Tempo, 1200000
1, 1360, Tempo, 1176470
1, 1380, Tempo, 1153846
1, 1400, Tempo, 1132075
1, 1420, Tempo, 1111111
1, 1440, Tempo, 1090909
1, 1456, Tempo, 1071428
1, 1476, Tempo, 1052631
1, 1496, Tempo, 1034482
1, 1516, Tempo, 1016949
1, 1536, Tempo, 1200000
1, 1552, Tempo, 1176470
1, 1572, Tempo, 1153846
1, 1592, Tempo, 1132075
1, 1612, Tempo, 1111111
1, 1632, Tempo, 1090909
1, 1648, Tempo, 1071428
1, 1668, Tempo, 1052631
1, 1688, Tempo, 1034482
1, 1708, Tempo, 1016949
1, 1728, Tempo, 1000000
1, 1764, Tempo, 1071428
1, 1804, Tempo, 1052631
1, 1840, Tempo, 1034482
1, 1880, Tempo, 1016949
1, 1920, Tempo, 1000000
1, 4608, Tempo, 1200000
1, 4624, Tempo, 1176470
1, 4644, Tempo, 1153846
1, 4664, Tempo, 1132075
1, 4684, Tempo, 1111111
1, 4704, Tempo, 1090909
1, 4720, Tempo, 1071428
1, 4740, Tempo, 1052631
1, 4760, Tempo, 1034482
1, 4780, Tempo, 1016949
1, 4800, Tempo, 1000000
1, 7296, Tempo, 1333333
1, 7308, Tempo, 1304347
1, 7320, Tempo, 1276595
1, 7332, Tempo, 1250000
1, 7344, Tempo, 1224489
1, 7360, Tempo, 1200000
1, 7372, Tempo, 1176470
1, 7384, Tempo, 1153846
1, 7396, Tempo, 1132075
1, 7408, Tempo, 1111111
1, 7424, Tempo, 1090909
1, 7436, Tempo, 1071428
1, 7448, Tempo, 1052631
1, 7460, Tempo, 1034482
1, 7472, Tempo, 1016949
1, 7488, Tempo, 1000000
1, 7680, Tempo, 1111111
1, 7712, Tempo, 1090909
1, 7744, Tempo, 1071428
1, 7776, Tempo, 1052631
1, 7808, Tempo, 1034482
1, 7840, Tempo, 1016949
1, 7872, Tempo, 1000000
1, 8832, Tempo, 1153846
1, 8856, Tempo, 1132075
1, 8880, Tempo, 1111111
1, 8904, Tempo, 1090909
1, 8928, Tempo, 1071428
1, 8952, Tempo, 1052631
1, 8976, Tempo, 1034482
1, 9000, Tempo, 1016949
1, 9024, Tempo, 1000000
1, 10368, Tempo, 1111111
1, 10400, Tempo, 1090909
1, 10432, Tempo, 1071428
1, 10464, Tempo, 1052631
1, 10496, Tempo, 1034482
1, 10528, Tempo, 1016949
1, 10560, Tempo, 1000000
1, 12288, Tempo, 1200000
1, 12304, Tempo, 1176470
1, 12324, Tempo, 1153846
1, 12344, Tempo, 1132075
1, 12364, Tempo, 1111111
1, 12384, Tempo, 1090909
1, 12400, Tempo, 1071428
1, 12420, Tempo, 1052631
1, 12440, Tempo, 1034482
1, 12460, Tempo, 1016949
1, 12480, Tempo, 1000000
1, 13248, Tempo, 1000000
1, 13260, Tempo, 1016949
1, 13272, Tempo, 1034482
1, 13284, Tempo, 1052631
1, 13296, Tempo, 1071428
1, 13312, Tempo, 1090909
1, 13324, Tempo, 1111111
1, 13336, Tempo, 1132075
1, 13348, Tempo, 1153846
1, 13360, Tempo, 1176470
1, 13376, Tempo, 1200000
1, 13388, Tempo, 1224489
1, 13400, Tempo, 1250000
1, 13412, Tempo, 1276595
1, 13424, Tempo, 1304347
1, 13440, Tempo, 1333333
1, 13632, Tempo, 1200000
1, 13640, Tempo, 1176470
1, 13648, Tempo, 1153846
1, 13660, Tempo, 1132075
1, 13668, Tempo, 1111111
1, 13680, Tempo, 1090909
1, 13688, Tempo, 1071428
1, 13696, Tempo, 1052631
1, 13708, Tempo, 1034482
1, 13716, Tempo, 1016949
1, 13728, Tempo, 1000000
1, 13824, Tempo, 1200000
1, 13840, Tempo, 1176470
1, 13860, Tempo, 1153846
1, 13880, Tempo, 1132075
1, 13900, Tempo, 1111111
1, 13920, Tempo, 1090909
1, 13936, Tempo, 1071428
1, 13956, Tempo, 1052631
1, 13976, Tempo, 1034482
1, 13996, Tempo, 1016949
1, 14016, Tempo, 1000000
1, 16896, Tempo, 1200000
1, 16912, Tempo, 1176470
1, 16932, Tempo, 1153846
1, 16952, Tempo, 1132075
1, 16972, Tempo, 1111111
1, 16992, Tempo, 1090909
1, 17008, Tempo, 1071428
1, 17028, Tempo, 1052631
1, 17048, Tempo, 1034482
1, 17068, Tempo, 1016949
1, 17088, Tempo, 1000000
1, 18432, Tempo, 1000000
1, 18464, Tempo, 1090909
1, 18496, Tempo, 1071428
1, 18528, Tempo, 1052631
1, 18560, Tempo, 1034482
1, 18592, Tempo, 1016949
1, 18624, Tempo, 1000000
1, 19584, Tempo, 1333333
1, 19596, Tempo, 1304347
1, 19608, Tempo, 1276595
1, 19620, Tempo, 1250000
1, 19632, Tempo, 1224489
1, 19648, Tempo, 1200000
1, 19660, Tempo, 1176470
1, 19672, Tempo, 1153846
1, 19684, Tempo, 1132075
1, 19696, Tempo, 1111111
1, 19712, Tempo, 1090909
1, 19724, Tempo, 1071428
1, 19736, Tempo, 1052631
1, 19748, Tempo, 1034482
1, 19760, Tempo, 1016949
1, 19776, Tempo, 1000000
1, 19968, Tempo, 1000000
1, 19984, Tempo, 1176470
1, 20004, Tempo, 1153846
1, 20024, Tempo, 1132075
1, 20044, Tempo, 1111111
1, 20064, Tempo, 1090909
1, 20080, Tempo, 1071428
1, 20100, Tempo, 1052631
1, 20120, Tempo, 1034482
1, 20140, Tempo, 1016949
1, 20160, Tempo, 1000000
1, 21120, Tempo, 1200000
1, 21136, Tempo, 1176470
1, 21156, Tempo, 1153846
1, 21176, Tempo, 1132075
1, 21196, Tempo, 1111111
1, 21216, Tempo, 1090909
1, 21232, Tempo, 1071428
1, 21252, Tempo, 1052631
1, 21272, Tempo, 1034482
1, 21292, Tempo, 1016949
1, 21312, Tempo, 1000000
1, 22656, Tempo, 1500000
1, 22660, Tempo, 1463414
1, 22664, Tempo, 1428571
1, 22668, Tempo, 1395348
1, 22672, Tempo, 1363636
1, 22680, Tempo, 1333333
1, 22684, Tempo, 1304347
1, 22688, Tempo, 1276595
1, 22692, Tempo, 1250000
1, 22696, Tempo, 1224489
1, 22704, Tempo, 1200000
1, 22708, Tempo, 1176470
1, 22712, Tempo, 1153846
1, 22716, Tempo, 1132075
1, 22720, Tempo, 1111111
1, 22728, Tempo, 1090909
1, 22732, Tempo, 1071428
1, 22736, Tempo, 1052631
1, 22740, Tempo, 1034482
1, 22744, Tempo, 1016949
1, 22752, Tempo, 1000000
1, 24576, Tempo, 1500000
1, 24608, Tempo, 1090909
1, 24640, Tempo, 1071428
1, 24672, Tempo, 1052631
1, 24704, Tempo, 1034482
1, 24736, Tempo, 1016949
1, 24768, Tempo, 1000000
1, 25632, Tempo, 1000000
1, 25636, Tempo, 1016949
1, 25640, Tempo, 1034482
1, 25644, Tempo, 1052631
1, 25648, Tempo, 1071428
1, 25656, Tempo, 1090909
1, 25660, Tempo, 1111111
1, 25664, Tempo, 1132075
1, 25668, Tempo, 1153846
1, 25672, Tempo, 1176470
1, 25680, Tempo, 1200000
1, 25684, Tempo, 1224489
1, 25688, Tempo, 1250000
1, 25692, Tempo, 1276595
1, 25696, Tempo, 1304347
1, 25704, Tempo, 1333333
1, 25708, Tempo, 1363636
1, 25712, Tempo, 1395348
1, 25716, Tempo, 1428571
1, 25720, Tempo, 1463414
1, 25728, Tempo, 1500000
1, 25920, Tempo, 1333333
1, 25924, Tempo, 1304347
1, 25932, Tempo, 1276595
1, 25936, Tempo, 1250000
1, 25944, Tempo, 1224489
1, 25952, Tempo, 1200000
1, 25956, Tempo, 1176470
1, 25964, Tempo, 1153846
1, 25968, Tempo, 1132075
1, 25976, Tempo, 1111111
1, 25984, Tempo, 1090909
1, 25988, Tempo, 1071428
1, 25996, Tempo, 1052631
1, 26000, Tempo, 1034482
1, 26008, Tempo, 1016949
1, 26016, Tempo, 1000000
1, 26112, Tempo, 1000000
1, 26128, Tempo, 1176470
1, 26148, Tempo, 1153846
1, 26168, Tempo, 1132075
1, 26188, Tempo, 1111111
1, 26208, Tempo, 1090909
1, 26224, Tempo, 1071428
1, 26244, Tempo, 1052631
1, 26264, Tempo, 1034482
1, 26284, Tempo, 1016949
1, 26304, Tempo, 1000000
1, 27264, Tempo, 1200000
1, 27280, Tempo, 1176470
1, 27300, Tempo, 1153846
1, 27320, Tempo, 1132075
1, 27340, Tempo, 1111111
1, 27360, Tempo, 1090909
1, 27376, Tempo, 1071428
1, 27396, Tempo, 1052631
1, 27416, Tempo, 1034482
1, 27436, Tempo, 1016949
1, 27456, Tempo, 1000000
1, 27648, Tempo, 1000000
1, 27664, Tempo, 1176470
1, 27684, Tempo, 1153846
1, 27704, Tempo, 1132075
1, 27724, Tempo, 1111111
1, 27744, Tempo, 1090909
1, 27760, Tempo, 1071428
1, 27780, Tempo, 1052631
1, 27800, Tempo, 1034482
1, 27820, Tempo, 1016949
1, 27840, Tempo, 1000000
1, 28800, Tempo, 1333333
1, 28812, Tempo, 1304347
1, 28824, Tempo, 1276595
1, 28836, Tempo, 1250000
1, 28848, Tempo, 1224489
1, 28864, Tempo, 1200000
1, 28876, Tempo, 1176470
1, 28888, Tempo, 1153846
1, 28900, Tempo, 1132075
1, 28912, Tempo, 1111111
1, 28928, Tempo, 1090909
1, 28940, Tempo, 1071428
1, 28952, Tempo, 1052631
1, 28964, Tempo, 1034482
1, 28976, Tempo, 1016949
1, 28992, Tempo, 1000000
1, 29184, Tempo, 1000000
1, 29200, Tempo, 1176470
1, 29220, Tempo, 1153846
1, 29240, Tempo, 1132075
1, 29260, Tempo, 1111111
1, 29280, Tempo, 1090909
1, 29296, Tempo, 1071428
1, 29316, Tempo, 1052631
1, 29336, Tempo, 1034482
1, 29356, Tempo, 1016949
1, 29376, Tempo, 1000000
1, 30336, Tempo, 1200000
1, 30352, Tempo, 1176470
1, 30372, Tempo, 1153846
1, 30392, Tempo, 1132075
1, 30412, Tempo, 1111111
1, 30432, Tempo, 1090909
1, 30448, Tempo, 1071428
1, 30468, Tempo, 1052631
1, 30488, Tempo, 1034482
1, 30508, Tempo, 1016949
1, 30528, Tempo, 1000000
1, 30720, Tempo, 1052631
1, 30736, Tempo, 1176470
1, 30756, Tempo, 1153846
1, 30776, Tempo, 1132075
1, 30796, Tempo, 1111111
1, 30816, Tempo, 1090909
1, 30832, Tempo, 1071428
1, 30852, Tempo, 1052631
1, 30872, Tempo, 1034482
1, 30892, Tempo, 1016949
1, 30912, Tempo, 1000000
1, 31488, Tempo, 1276595
1, 31504, Tempo, 1250000
1, 31524, Tempo, 1224489
1, 31544, Tempo, 1200000
1, 31564, Tempo, 1176470
1, 31584, Tempo, 1153846
1, 31600, Tempo, 1132075
1, 31620, Tempo, 1111111
1, 31640, Tempo, 1090909
1, 31660, Tempo, 1071428
1, 31680, Tempo, 1052631
1, 31872, Tempo, 1333333
1, 31884, Tempo, 1304347
1, 31896, Tempo, 1276595
1, 31908, Tempo, 1250000
1, 31920, Tempo, 1224489
1, 31936, Tempo, 1200000
1, 31948, Tempo, 1176470
1, 31960, Tempo, 1153846
1, 31972, Tempo, 1132075
1, 31984, Tempo, 1111111
1, 32000, Tempo, 1090909
1, 32012, Tempo, 1071428
1, 32024, Tempo, 1052631
1, 32036, Tempo, 1034482
1, 32048, Tempo, 1016949
1, 32064, Tempo, 1200000
1, 32080, Tempo, 1176470
1, 32100, Tempo, 1153846
1, 32120, Tempo, 1132075
1, 32140, Tempo, 1111111
1, 32160, Tempo, 1090909
1, 32176, Tempo, 1071428
1, 32196, Tempo, 1052631
1, 32216, Tempo, 1034482
1, 32236, Tempo, 1016949
1, 32256, Tempo, 1016949
1, 33408, Tempo, 1153846
1, 33432, Tempo, 1132075
1, 33456, Tempo, 1111111
1, 33480, Tempo, 1090909
1, 33504, Tempo, 1071428
1, 33528, Tempo, 1052631
1, 33552, Tempo, 1034482
1, 33576, Tempo, 1016949
1, 33600, Tempo, 1000000
1, 35328, Tempo, 1000000
1, 35344, Tempo, 1176470
1, 35364, Tempo, 1153846
1, 35384, Tempo, 1132075
1, 35404, Tempo, 1111111
1, 35424, Tempo, 1090909
1, 35440, Tempo, 1071428
1, 35460, Tempo, 1052631
1, 35480, Tempo, 1034482
1, 35500, Tempo, 1016949
1, 35520, Tempo, 1000000
1, 36096, Tempo, 1132075
1, 36120, Tempo, 1111111
1, 36148, Tempo, 1090909
1, 36176, Tempo, 1071428
1, 36204, Tempo, 1052631
1, 36232, Tempo, 1034482
1, 36260, Tempo, 1016949
1, 36288, Tempo, 1000000
1, 37632, Tempo, 1200000
1, 37648, Tempo, 1176470
1, 37668, Tempo, 1153846
1, 37688, Tempo, 1132075
1, 37708, Tempo, 1111111
1, 37728, Tempo, 1090909
1, 37744, Tempo, 1071428
1, 37764, Tempo, 1052631
1, 37784, Tempo, 1034482
1, 37804, Tempo, 1016949
1, 37824, Tempo, 1000000
1, 37920, Tempo, 1000000
1, 37924, Tempo, 1016949
1, 37932, Tempo, 1034482
1, 37936, Tempo, 1052631
1, 37944, Tempo, 1071428
1, 37952, Tempo, 1090909
1, 37956, Tempo, 1111111
1, 37964, Tempo, 1132075
1, 37968, Tempo, 1153846
1, 37976, Tempo, 1176470
1, 37984, Tempo, 1200000
1, 37988, Tempo, 1224489
1, 37996, Tempo, 1250000
1, 38000, Tempo, 1276595
1, 38008, Tempo, 1304347
1, 38016, Tempo, 1333333
1, 38208, Tempo, 1333333
1, 38212, Tempo, 1304347
1, 38220, Tempo, 1276595
1, 38224, Tempo, 1250000
1, 38232, Tempo, 1224489
1, 38240, Tempo, 1200000
1, 38244, Tempo, 1176470
1, 38252, Tempo, 1153846
1, 38256, Tempo, 1132075
1, 38264, Tempo, 1111111
1, 38272, Tempo, 1090909
1, 38276, Tempo, 1071428
1, 38284, Tempo, 1052631
1, 38288, Tempo, 1034482
1, 38296, Tempo, 1016949
1, 38304, Tempo, 1000000
1, 38400, Tempo, 1000000
1, 38416, Tempo, 1176470
1, 38436, Tempo, 1153846
1, 38456, Tempo, 1132075
1, 38476, Tempo, 1111111
1, 38496, Tempo, 1090909
1, 38512, Tempo, 1071428
1, 38532, Tempo, 1052631
1, 38552, Tempo, 1034482
1, 38572, Tempo, 1016949
1, 38592, Tempo, 1000000
1, 39552, Tempo, 1200000
1, 39568, Tempo, 1176470
1, 39588, Tempo, 1153846
1, 39608, Tempo, 1132075
1, 39628, Tempo, 1111111
1, 39648, Tempo, 1090909
1, 39664, Tempo, 1071428
1, 39684, Tempo, 1052631
1, 39704, Tempo, 1034482
1, 39724, Tempo, 1016949
1, 39744, Tempo, 1000000
1, 39936, Tempo, 1000000
1, 39952, Tempo, 1176470
1, 39972, Tempo, 1153846
1, 39992, Tempo, 1132075
1, 40012, Tempo, 1111111
1, 40032, Tempo, 1090909
1, 40048, Tempo, 1071428
1, 40068, Tempo, 1052631
1, 40088, Tempo, 1034482
1, 40108, Tempo, 1016949
1, 40128, Tempo, 1000000
1, 41088, Tempo, 1333333
1, 41100, Tempo, 1304347
1, 41112, Tempo, 1276595
1, 41124, Tempo, 1250000
1, 41136, Tempo, 1224489
1, 41152, Tempo, 1200000
1, 41164, Tempo, 1176470
1, 41176, Tempo, 1153846
1, 41188, Tempo, 1132075
1, 41200, Tempo, 1111111
1, 41216, Tempo, 1090909
1, 41228, Tempo, 1071428
1, 41240, Tempo, 1052631
1, 41252, Tempo, 1034482
1, 41264, Tempo, 1016949
1, 41280, Tempo, 1000000
1, 41472, Tempo, 1000000
1, 41488, Tempo, 1176470
1, 41508, Tempo, 1153846
1, 41528, Tempo, 1132075
1, 41548, Tempo, 1111111
1, 41568, Tempo, 1090909
1, 41584, Tempo, 1071428
1, 41604, Tempo, 1052631
1, 41624, Tempo, 1034482
1, 41644, Tempo, 1016949
1, 41664, Tempo, 1000000
1, 42624, Tempo, 1200000
1, 42640, Tempo, 1176470
1, 42660, Tempo, 1153846
1, 42680, Tempo, 1132075
1, 42700, Tempo, 1111111
1, 42720, Tempo, 1090909
1, 42736, Tempo, 1071428
1, 42756, Tempo, 1052631
1, 42776, Tempo, 1034482
1, 42796, Tempo, 1016949
1, 42816, Tempo, 1000000
1, 43008, Tempo, 1090909
1, 43032, Tempo, 1132075
1, 43056, Tempo, 1111111
1, 43080, Tempo, 1090909
1, 43104, Tempo, 1071428
1, 43128, Tempo, 1052631
1, 43152, Tempo, 1034482
1, 43176, Tempo, 1016949
1, 43200, Tempo, 1000000
1, 43776, Tempo, 1333333
1, 43792, Tempo, 1304347
1, 43812, Tempo, 1276595
1, 43832, Tempo, 1250000
1, 43852, Tempo, 1224489
1, 43872, Tempo, 1200000
1, 43888, Tempo, 1176470
1, 43908, Tempo, 1153846
1, 43928, Tempo, 1132075
1, 43948, Tempo, 1111111
1, 43968, Tempo, 1090909
1, 44160, Tempo, 1333333
1, 44172, Tempo, 1304347
1, 44184, Tempo, 1276595
1, 44196, Tempo, 1250000
1, 44208, Tempo, 1224489
1, 44224, Tempo, 1200000
1, 44236, Tempo, 1176470
1, 44248, Tempo, 1153846
1, 44260, Tempo, 1132075
1, 44272, Tempo, 1111111
1, 44288, Tempo, 1090909
1, 44300, Tempo, 1071428
1, 44312, Tempo, 1052631
1, 44324, Tempo, 1034482
1, 44336, Tempo, 1016949
1, 44352, Tempo, 1200000
1, 44368, Tempo, 1176470
1, 44388, Tempo, 1153846
1, 44408, Tempo, 1132075
1, 44428, Tempo, 1111111
1, 44448, Tempo, 1090909
1, 44464, Tempo, 1071428
1, 44484, Tempo, 1052631
1, 44504, Tempo, 1034482
1, 44524, Tempo, 1016949
1, 44544, Tempo, 1000000
1, 45312, Tempo, 1153846
1, 45336, Tempo, 1132075
1, 45360, Tempo, 1111111
1, 45384, Tempo, 1090909
1, 45408, Tempo, 1071428
1, 45432, Tempo, 1052631
1, 45456, Tempo, 1034482
1, 45480, Tempo, 1016949
1, 45504, Tempo, 1000000
1, 45696, Tempo, 1153846
1, 45720, Tempo, 1132075
1, 45744, Tempo, 1111111
1, 45768, Tempo, 1090909
1, 45792, Tempo, 1071428
1, 45816, Tempo, 1052631
1, 45840, Tempo, 1034482
1, 45864, Tempo, 1016949
1, 45888, Tempo, 1000000
1, 46080, Tempo, 1000000
1, 46112, Tempo, 1090909
1, 46144, Tempo, 1071428
1, 46176, Tempo, 1052631
1, 46208, Tempo, 1034482
1, 46240, Tempo, 1016949
1, 46272, Tempo, 1000000
1, 47232, Tempo, 1200000
1, 47248, Tempo, 1176470
1, 47268, Tempo, 1153846
1, 47288, Tempo, 1132075
1, 47308, Tempo, 1111111
1, 47328, Tempo, 1090909
1, 47344, Tempo, 1071428
1, 47364, Tempo, 1052631
1, 47384, Tempo, 1034482
1, 47404, Tempo, 1016949
1, 47424, Tempo, 1000000
1, 47616, Tempo, 1000000
1, 47632, Tempo, 1176470
1, 47652, Tempo, 1153846
1, 47672, Tempo, 1132075
1, 47692, Tempo, 1111111
1, 47712, Tempo, 1090909
1, 47728, Tempo, 1071428
1, 47748, Tempo, 1052631
1, 47768, Tempo, 1034482
1, 47788, Tempo, 1016949
1, 47808, Tempo, 1000000
1, 48384, Tempo, 1200000
1, 48400, Tempo, 1176470
1, 48420, Tempo, 1153846
1, 48440, Tempo, 1132075
1, 48460, Tempo, 1111111
1, 48480, Tempo, 1090909
1, 48496, Tempo, 1071428
1, 48516, Tempo, 1052631
1, 48536, Tempo, 1034482
1, 48556, Tempo, 1016949
1, 48576, Tempo, 1000000
1, 49152, Tempo, 1500000
1, 49156, Tempo, 1304347
1, 49164, Tempo, 1276595
1, 49168, Tempo, 1250000
1, 49176, Tempo, 1224489
1, 49184, Tempo, 1200000
1, 49188, Tempo, 1176470
1, 49196, Tempo, 1153846
1, 49200, Tempo, 1132075
1, 49208, Tempo, 1111111
1, 49216, Tempo, 1090909
1, 49220, Tempo, 1071428
1, 49228, Tempo, 1052631
1, 49232, Tempo, 1034482
1, 49240, Tempo, 1016949
1, 49248, Tempo, 1000000
1, 49536, Tempo, 1200000
1, 49544, Tempo, 1176470
1, 49552, Tempo, 1153846
1, 49564, Tempo, 1132075
1, 49572, Tempo, 1111111
1, 49584, Tempo, 1090909
1, 49592, Tempo, 1071428
1, 49600, Tempo, 1052631
1, 49612, Tempo, 1034482
1, 49620, Tempo, 1016949
1, 49632, Tempo, 1000000
1, 49728, Tempo, 1200000
1, 49736, Tempo, 1224489
1, 49744, Tempo, 1250000
1, 49756, Tempo, 1276595
1, 49764, Tempo, 1304347
1, 49776, Tempo, 1333333
1, 49784, Tempo, 1363636
1, 49792, Tempo, 1395348
1, 49804, Tempo, 1428571
1, 49812, Tempo, 1463414
1, 49824, Tempo, 1500000
1, 50208, Tempo, 1714285
1, 50220, Tempo, 1764705
1, 50232, Tempo, 1818181
1, 50244, Tempo, 1875000
1, 50256, Tempo, 1935483
1, 50272, Tempo, 2000000
1, 50284, Tempo, 2068965
1, 50296, Tempo, 2142857
1, 50308, Tempo, 2222222
1, 50320, Tempo, 2307692
1, 50336, Tempo, 2400000
1, 50348, Tempo, 2500000
1, 50360, Tempo, 2608695
1, 50372, Tempo, 2727272
1, 50384, Tempo, 2857142
1, 50400, Tempo, 3000000
1, 50400, End_track
2, 0, Start_track
2, 0, Title_t, "Johann Sebastian Bach"
2, 0, Control_c, 0, 0, 0
2, 0, Program_c, 0, 6
2, 0, Control_c, 0, 7, 127
2, 0, Control_c, 0, 10, 45
2, 0, Control_c, 0, 91, 127
2, 0, Key_signature, 1, "major"
2, 2880, Note_on_c, 0, 62, 127
2, 2940, Note_off_c, 0, 62, 100
2, 3072, Note_on_c, 0, 67, 127
2, 3260, Note_off_c, 0, 67, 100
2, 3264, Note_on_c, 0, 69, 127
2, 3452, Note_off_c, 0, 69, 100
2, 3456, Note_on_c, 0, 71, 127
2, 3516, Note_off_c, 0, 71, 100
2, 3648, Note_on_c, 0, 72, 127
2, 3708, Note_off_c, 0, 72, 100
2, 3840, Note_on_c, 0, 74, 127
2, 4028, Note_off_c, 0, 74, 100
2, 4032, Note_on_c, 0, 72, 127
2, 4124, Note_off_c, 0, 72, 100
2, 4128, Note_on_c, 0, 71, 127
2, 4220, Note_off_c, 0, 71, 100
2, 4224, Note_on_c, 0, 69, 127
2, 4412, Note_off_c, 0, 69, 100
2, 4608, Note_on_c, 0, 74, 127
2, 4864, Note_off_c, 0, 74, 100
2, 4992, Note_on_c, 0, 74, 127
2, 5248, Note_off_c, 0, 74, 100
2, 5376, Note_on_c, 0, 76, 127
2, 5632, Note_off_c, 0, 76, 100
2, 5760, Note_on_c, 0, 76, 127
2, 6016, Note_off_c, 0, 76, 100
2, 6144, Note_on_c, 0, 74, 127
2, 6332, Note_off_c, 0, 74, 100
2, 6336, Note_on_c, 0, 76, 127
2, 6524, Note_off_c, 0, 76, 100
2, 6528, Note_on_c, 0, 74, 127
2, 6588, Note_off_c, 0, 74, 100
2, 6720, Note_on_c, 0, 72, 127
2, 6780, Note_off_c, 0, 72, 100
2, 6912, Note_on_c, 0, 72, 127
2, 6940, Note_off_c, 0, 72, 100
2, 6944, Note_on_c, 0, 71, 127
2, 6972, Note_off_c, 0, 71, 100
2, 6976, Note_on_c, 0, 72, 127
2, 7004, Note_off_c, 0, 72, 100
2, 7008, Note_on_c, 0, 71, 127
2, 7100, Note_off_c, 0, 71, 100
2, 7104, Note_on_c, 0, 69, 127
2, 7292, Note_off_c, 0, 69, 100
2, 7296, Note_on_c, 0, 67, 127
2, 7552, Note_off_c, 0, 67, 100
2, 9024, Note_on_c, 0, 74, 127
2, 9404, Note_off_c, 0, 74, 100
2, 9408, Note_on_c, 0, 72, 127
2, 9468, Note_off_c, 0, 72, 100
2, 9600, Note_on_c, 0, 71, 127
2, 9980, Note_off_c, 0, 71, 100
2, 9984, Note_on_c, 0, 69, 127
2, 10556, Note_off_c, 0, 69, 100
2, 10560, Note_on_c, 0, 71, 127
2, 10652, Note_off_c, 0, 71, 100
2, 10656, Note_on_c, 0, 73, 127
2, 10748, Note_off_c, 0, 73, 100
2, 10752, Note_on_c, 0, 74, 127
2, 10940, Note_off_c, 0, 74, 100
2, 10944, Note_on_c, 0, 76, 127
2, 11132, Note_off_c, 0, 76, 100
2, 11136, Note_on_c, 0, 78, 127
2, 11196, Note_off_c, 0, 78, 100
2, 11328, Note_on_c, 0, 74, 127
2, 11388, Note_off_c, 0, 74, 100
2, 11520, Note_on_c, 0, 71, 127
2, 11708, Note_off_c, 0, 71, 100
2, 11712, Note_on_c, 0, 74, 127
2, 11900, Note_off_c, 0, 74, 100
2, 11904, Note_on_c, 0, 79, 127
2, 12032, Note_off_c, 0, 79, 100
2, 12096, Note_on_c, 0, 78, 127
2, 12156, Note_off_c, 0, 78, 100
2, 12288, Note_on_c, 0, 76, 127
2, 12572, Note_off_c, 0, 76, 100
2, 12576, Note_on_c, 0, 74, 127
2, 12764, Note_off_c, 0, 74, 100
2, 12768, Note_on_c, 0, 73, 127
2, 12860, Note_off_c, 0, 73, 100
2, 12864, Note_on_c, 0, 76, 127
2, 13148, Note_off_c, 0, 76, 100
2, 13152, Note_on_c, 0, 74, 127
2, 13340, Note_off_c, 0, 74, 100
2, 13344, Note_on_c, 0, 73, 127
2, 13436, Note_off_c, 0, 73, 100
2, 13440, Note_on_c, 0, 74, 127
2, 13568, Note_off_c, 0, 74, 100
2, 15168, Note_on_c, 0, 62, 127
2, 15228, Note_off_c, 0, 62, 100
2, 15360, Note_on_c, 0, 67, 127
2, 15548, Note_off_c, 0, 67, 100
2, 15552, Note_on_c, 0, 69, 127
2, 15740, Note_off_c, 0, 69, 100
2, 15744, Note_on_c, 0, 71, 127
2, 15804, Note_off_c, 0, 71, 100
2, 15936, Note_on_c, 0, 72, 127
2, 15996, Note_off_c, 0, 72, 100
2, 16128, Note_on_c, 0, 74, 127
2, 16316, Note_off_c, 0, 74, 100
2, 16320, Note_on_c, 0, 72, 127
2, 16412, Note_off_c, 0, 72, 100
2, 16416, Note_on_c, 0, 71, 127
2, 16508, Note_off_c, 0, 71, 100
2, 16512, Note_on_c, 0, 69, 127
2, 16700, Note_off_c, 0, 69, 100
2, 16896, Note_on_c, 0, 74, 127
2, 17152, Note_off_c, 0, 74, 100
2, 17280, Note_on_c, 0, 74, 127
2, 17536, Note_off_c, 0, 74, 100
2, 17664, Note_on_c, 0, 76, 127
2, 17920, Note_off_c, 0, 76, 100
2, 18048, Note_on_c, 0, 76, 127
2, 18304, Note_off_c, 0, 76, 100
2, 18432, Note_on_c, 0, 74, 127
2, 18620, Note_off_c, 0, 74, 100
2, 18624, Note_on_c, 0, 76, 127
2, 18812, Note_off_c, 0, 76, 100
2, 18816, Note_on_c, 0, 74, 127
2, 18876, Note_off_c, 0, 74, 100
2, 19008, Note_on_c, 0, 72, 127
2, 19068, Note_off_c, 0, 72, 100
2, 19200, Note_on_c, 0, 72, 127
2, 19228, Note_off_c, 0, 72, 100
2, 19232, Note_on_c, 0, 71, 127
2, 19260, Note_off_c, 0, 71, 100
2, 19264, Note_on_c, 0, 72, 127
2, 19292, Note_off_c, 0, 72, 100
2, 19296, Note_on_c, 0, 71, 127
2, 19388, Note_off_c, 0, 71, 100
2, 19392, Note_on_c, 0, 69, 127
2, 19580, Note_off_c, 0, 69, 100
2, 19584, Note_on_c, 0, 67, 127
2, 19840, Note_off_c, 0, 67, 100
2, 21312, Note_on_c, 0, 74, 127
2, 21692, Note_off_c, 0, 74, 100
2, 21696, Note_on_c, 0, 72, 127
2, 21756, Note_off_c, 0, 72, 100
2, 21888, Note_on_c, 0, 71, 127
2, 22268, Note_off_c, 0, 71, 100
2, 22272, Note_on_c, 0, 69, 127
2, 22844, Note_off_c, 0, 69, 100
2, 22848, Note_on_c, 0, 71, 127
2, 22940, Note_off_c, 0, 71, 100
2, 22944, Note_on_c, 0, 73, 127
2, 23036, Note_off_c, 0, 73, 100
2, 23040, Note_on_c, 0, 74, 127
2, 23228, Note_off_c, 0, 74, 100
2, 23232, Note_on_c, 0, 76, 127
2, 23420, Note_off_c, 0, 76, 100
2, 23424, Note_on_c, 0, 78, 127
2, 23484, Note_off_c, 0, 78, 100
2, 23616, Note_on_c, 0, 74, 127
2, 23676, Note_off_c, 0, 74, 100
2, 23808, Note_on_c, 0, 71, 127
2, 23996, Note_off_c, 0, 71, 100
2, 24000, Note_on_c, 0, 74, 127
2, 24188, Note_off_c, 0, 74, 100
2, 24192, Note_on_c, 0, 79, 127
2, 24380, Note_off_c, 0, 79, 100
2, 24384, Note_on_c, 0, 78, 127
2, 24444, Note_off_c, 0, 78, 100
2, 24576, Note_on_c, 0, 76, 127
2, 24860, Note_off_c, 0, 76, 100
2, 24864, Note_on_c, 0, 74, 127
2, 25052, Note_off_c, 0, 74, 100
2, 25056, Note_on_c, 0, 73, 127
2, 25148, Note_off_c, 0, 73, 100
2, 25152, Note_on_c, 0, 76, 127
2, 25436, Note_off_c, 0, 76, 100
2, 25440, Note_on_c, 0, 74, 127
2, 25628, Note_off_c, 0, 74, 100
2, 25632, Note_on_c, 0, 73, 127
2, 25724, Note_off_c, 0, 73, 100
2, 25728, Note_on_c, 0, 74, 127
2, 25856, Note_off_c, 0, 74, 100
2, 26112, Note_on_c, 0, 69, 127
2, 26368, Note_off_c, 0, 69, 100
2, 26496, Note_on_c, 0, 69, 127
2, 26752, Note_off_c, 0, 69, 100
2, 26880, Note_on_c, 0, 71, 127
2, 27136, Note_off_c, 0, 71, 100
2, 27264, Note_on_c, 0, 71, 127
2, 27520, Note_off_c, 0, 71, 100
2, 27648, Note_on_c, 0, 69, 127
2, 27836, Note_off_c, 0, 69, 100
2, 27840, Note_on_c, 0, 71, 127
2, 28028, Note_off_c, 0, 71, 100
2, 28032, Note_on_c, 0, 69, 127
2, 28092, Note_off_c, 0, 69, 100
2, 28224, Note_on_c, 0, 67, 127
2, 28284, Note_off_c, 0, 67, 100
2, 28416, Note_on_c, 0, 66, 127
2, 28604, Note_off_c, 0, 66, 100
2, 28608, Note_on_c, 0, 64, 127
2, 28796, Note_off_c, 0, 64, 100
2, 28800, Note_on_c, 0, 66, 127
2, 29056, Note_off_c, 0, 66, 100
2, 29184, Note_on_c, 0, 71, 127
2, 29440, Note_off_c, 0, 71, 100
2, 29568, Note_on_c, 0, 71, 127
2, 29824, Note_off_c, 0, 71, 100
2, 29952, Note_on_c, 0, 72, 127
2, 30208, Note_off_c, 0, 72, 100
2, 30336, Note_on_c, 0, 72, 127
2, 30592, Note_off_c, 0, 72, 100
2, 30720, Note_on_c, 0, 71, 127
2, 30908, Note_off_c, 0, 71, 100
2, 30912, Note_on_c, 0, 72, 127
2, 31100, Note_off_c, 0, 72, 100
2, 31104, Note_on_c, 0, 71, 127
2, 31164, Note_off_c, 0, 71, 100
2, 31296, Note_on_c, 0, 69, 127
2, 31356, Note_off_c, 0, 69, 100
2, 31488, Note_on_c, 0, 67, 127
2, 31676, Note_off_c, 0, 67, 100
2, 31680, Note_on_c, 0, 66, 127
2, 31772, Note_off_c, 0, 66, 100
2, 31776, Note_on_c, 0, 67, 127
2, 31868, Note_off_c, 0, 67, 100
2, 31872, Note_on_c, 0, 64, 127
2, 32000, Note_off_c, 0, 64, 100
2, 33024, Note_on_c, 0, 67, 127
2, 33280, Note_off_c, 0, 67, 100
2, 33408, Note_on_c, 0, 67, 127
2, 33664, Note_off_c, 0, 67, 100
2, 33792, Note_on_c, 0, 72, 127
2, 34076, Note_off_c, 0, 72, 100
2, 34080, Note_on_c, 0, 74, 127
2, 34172, Note_off_c, 0, 74, 100
2, 34176, Note_on_c, 0, 72, 127
2, 34236, Note_off_c, 0, 72, 100
2, 34368, Note_on_c, 0, 71, 127
2, 34428, Note_off_c, 0, 71, 100
2, 34560, Note_on_c, 0, 69, 127
2, 34748, Note_off_c, 0, 69, 100
2, 34752, Note_on_c, 0, 71, 127
2, 34940, Note_off_c, 0, 71, 100
2, 34944, Note_on_c, 0, 72, 127
2, 35072, Note_off_c, 0, 72, 100
2, 35136, Note_on_c, 0, 74, 127
2, 35196, Note_off_c, 0, 74, 100
2, 35328, Note_on_c, 0, 71, 127
2, 35516, Note_off_c, 0, 71, 100
2, 35520, Note_on_c, 0, 69, 127
2, 35612, Note_off_c, 0, 69, 100
2, 35616, Note_on_c, 0, 71, 127
2, 35708, Note_off_c, 0, 71, 100
2, 35712, Note_on_c, 0, 67, 127
2, 35772, Note_off_c, 0, 67, 100
2, 36288, Note_on_c, 0, 76, 127
2, 36380, Note_off_c, 0, 76, 100
2, 36384, Note_on_c, 0, 74, 127
2, 36476, Note_off_c, 0, 74, 100
2, 36480, Note_on_c, 0, 72, 127
2, 36608, Note_off_c, 0, 72, 100
2, 36672, Note_on_c, 0, 76, 127
2, 36732, Note_off_c, 0, 76, 100
2, 36864, Note_on_c, 0, 69, 127
2, 36928, Note_off_c, 0, 69, 100
2, 36960, Note_on_c, 0, 74, 127
2, 37052, Note_off_c, 0, 74, 100
2, 37056, Note_on_c, 0, 72, 127
2, 37148, Note_off_c, 0, 72, 100
2, 37152, Note_on_c, 0, 71, 127
2, 37216, Note_off_c, 0, 71, 100
2, 37248, Note_on_c, 0, 72, 127
2, 37340, Note_off_c, 0, 72, 100
2, 37344, Note_on_c, 0, 69, 127
2, 37408, Note_off_c, 0, 69, 100
2, 37440, Note_on_c, 0, 74, 127
2, 37696, Note_off_c, 0, 74, 100
2, 37824, Note_on_c, 0, 72, 127
2, 37916, Note_off_c, 0, 72, 100
2, 37920, Note_on_c, 0, 74, 127
2, 37984, Note_off_c, 0, 74, 100
2, 38016, Note_on_c, 0, 71, 127
2, 38144, Note_off_c, 0, 71, 100
2, 38400, Note_on_c, 0, 69, 127
2, 38656, Note_off_c, 0, 69, 100
2, 38784, Note_on_c, 0, 69, 127
2, 39040, Note_off_c, 0, 69, 100
2, 39168, Note_on_c, 0, 71, 127
2, 39424, Note_off_c, 0, 71, 100
2, 39552, Note_on_c, 0, 71, 127
2, 39808, Note_off_c, 0, 71, 100
2, 39936, Note_on_c, 0, 69, 127
2, 40124, Note_off_c, 0, 69, 100
2, 40128, Note_on_c, 0, 71, 127
2, 40316, Note_off_c, 0, 71, 100
2, 40320, Note_on_c, 0, 69, 127
2, 40380, Note_off_c, 0, 69, 100
2, 40512, Note_on_c, 0, 67, 127
2, 40572, Note_off_c, 0, 67, 100
2, 40704, Note_on_c, 0, 67, 127
2, 40724, Note_off_c, 0, 67, 100
2, 40728, Note_on_c, 0, 66, 127
2, 40748, Note_off_c, 0, 66, 100
2, 40752, Note_on_c, 0, 67, 127
2, 40772, Note_off_c, 0, 67, 100
2, 40776, Note_on_c, 0, 66, 127
2, 40892, Note_off_c, 0, 66, 100
2, 40896, Note_on_c, 0, 64, 127
2, 41084, Note_off_c, 0, 64, 100
2, 41088, Note_on_c, 0, 66, 127
2, 41344, Note_off_c, 0, 66, 100
2, 41472, Note_on_c, 0, 71, 127
2, 41728, Note_off_c, 0, 71, 100
2, 41856, Note_on_c, 0, 71, 127
2, 42112, Note_off_c, 0, 71, 100
2, 42240, Note_on_c, 0, 72, 127
2, 42496, Note_off_c, 0, 72, 100
2, 42624, Note_on_c, 0, 72, 127
2, 42880, Note_off_c, 0, 72, 100
2, 43008, Note_on_c, 0, 71, 127
2, 43196, Note_off_c, 0, 71, 100
2, 43200, Note_on_c, 0, 72, 127
2, 43388, Note_off_c, 0, 72, 100
2, 43392, Note_on_c, 0, 71, 127
2, 43452, Note_off_c, 0, 71, 100
2, 43584, Note_on_c, 0, 69, 127
2, 43644, Note_off_c, 0, 69, 100
2, 43776, Note_on_c, 0, 67, 127
2, 43964, Note_off_c, 0, 67, 100
2, 43968, Note_on_c, 0, 66, 127
2, 44060, Note_off_c, 0, 66, 100
2, 44064, Note_on_c, 0, 67, 127
2, 44156, Note_off_c, 0, 67, 100
2, 44160, Note_on_c, 0, 64, 127
2, 44288, Note_off_c, 0, 64, 100
2, 45312, Note_on_c, 0, 67, 127
2, 45568, Note_off_c, 0, 67, 100
2, 45696, Note_on_c, 0, 67, 127
2, 45952, Note_off_c, 0, 67, 100
2, 46080, Note_on_c, 0, 72, 127
2, 46364, Note_off_c, 0, 72, 100
2, 46368, Note_on_c, 0, 74, 127
2, 46460, Note_off_c, 0, 74, 100
2, 46464, Note_on_c, 0, 72, 127
2, 46524, Note_off_c, 0, 72, 100
2, 46656, Note_on_c, 0, 71, 127
2, 46716, Note_off_c, 0, 71, 100
2, 46848, Note_on_c, 0, 69, 127
2, 47036, Note_off_c, 0, 69, 100
2, 47040, Note_on_c, 0, 71, 127
2, 47228, Note_off_c, 0, 71, 100
2, 47232, Note_on_c, 0, 72, 127
2, 47360, Note_off_c, 0, 72, 100
2, 47424, Note_on_c, 0, 74, 127
2, 47484, Note_off_c, 0, 74, 100
2, 47616, Note_on_c, 0, 71, 127
2, 47804, Note_off_c, 0, 71, 100
2, 47808, Note_on_c, 0, 69, 127
2, 47900, Note_off_c, 0, 69, 100
2, 47904, Note_on_c, 0, 71, 127
2, 47996, Note_off_c, 0, 71, 100
2, 48000, Note_on_c, 0, 67, 127
2, 48060, Note_off_c, 0, 67, 100
2, 48576, Note_on_c, 0, 76, 127
2, 48668, Note_off_c, 0, 76, 100
2, 48672, Note_on_c, 0, 74, 127
2, 48764, Note_off_c, 0, 74, 100
2, 48768, Note_on_c, 0, 72, 127
2, 48896, Note_off_c, 0, 72, 100
2, 48960, Note_on_c, 0, 76, 127
2, 49020, Note_off_c, 0, 76, 100
2, 49152, Note_on_c, 0, 69, 127
2, 49216, Note_off_c, 0, 69, 100
2, 49248, Note_on_c, 0, 74, 127
2, 49340, Note_off_c, 0, 74, 100
2, 49344, Note_on_c, 0, 72, 127
2, 49436, Note_off_c, 0, 72, 100
2, 49440, Note_on_c, 0, 71, 127
2, 49504, Note_off_c, 0, 71, 100
2, 49536, Note_on_c, 0, 72, 127
2, 49628, Note_off_c, 0, 72, 100
2, 49632, Note_on_c, 0, 69, 127
2, 49696, Note_off_c, 0, 69, 100
2, 49728, Note_on_c, 0, 74, 127
2, 49984, Note_off_c, 0, 74, 100
2, 50112, Note_on_c, 0, 72, 127
2, 50204, Note_off_c, 0, 72, 100
2, 50208, Note_on_c, 0, 74, 127
2, 50304, Note_off_c, 0, 74, 100
2, 50352, Note_on_c, 0, 71, 127
2, 50632, Note_off_c, 0, 71, 100
2, 50632, End_track
3, 0, Start_track
3, 0, Title_t, "Goldberg Variations"
3, 0, Control_c, 1, 0, 0
3, 0, Program_c, 1, 6
3, 0, Control_c, 1, 7, 127
3, 0, Control_c, 1, 10, 0
3, 0, Control_c, 1, 91, 127
3, 0, Key_signature, 1, "major"
3, 3072, Note_on_c, 1, 67, 127
3, 3328, Note_off_c, 1, 67, 100
3, 3456, Note_on_c, 1, 67, 127
3, 3712, Note_off_c, 1, 67, 100
3, 3840, Note_on_c, 1, 69, 127
3, 4096, Note_off_c, 1, 69, 100
3, 4224, Note_on_c, 1, 69, 127
3, 4480, Note_off_c, 1, 69, 100
3, 4608, Note_on_c, 1, 67, 127
3, 4796, Note_off_c, 1, 67, 100
3, 4800, Note_on_c, 1, 69, 127
3, 4988, Note_off_c, 1, 69, 100
3, 4992, Note_on_c, 1, 67, 127
3, 5052, Note_off_c, 1, 67, 100
3, 5184, Note_on_c, 1, 65, 127
3, 5244, Note_off_c, 1, 65, 100
3, 5376, Note_on_c, 1, 64, 127
3, 5564, Note_off_c, 1, 64, 100
3, 5568, Note_on_c, 1, 62, 127
3, 5756, Note_off_c, 1, 62, 100
3, 5760, Note_on_c, 1, 60, 127
3, 5888, Note_off_c, 1, 60, 100
3, 5952, Note_on_c, 1, 71, 127
3, 6012, Note_off_c, 1, 71, 100
3, 6144, Note_on_c, 1, 69, 127
3, 6332, Note_off_c, 1, 69, 100
3, 6336, Note_on_c, 1, 67, 127
3, 6524, Note_off_c, 1, 67, 100
3, 6528, Note_on_c, 1, 69, 127
3, 6588, Note_off_c, 1, 69, 100
3, 6720, Note_on_c, 1, 66, 127
3, 6780, Note_off_c, 1, 66, 100
3, 6912, Note_on_c, 1, 67, 127
3, 7168, Note_off_c, 1, 67, 100
3, 7296, Note_on_c, 1, 67, 127
3, 7424, Note_off_c, 1, 67, 100
3, 7488, Note_on_c, 1, 62, 127
3, 7548, Note_off_c, 1, 62, 100
3, 7680, Note_on_c, 1, 67, 127
3, 7868, Note_off_c, 1, 67, 100
3, 7872, Note_on_c, 1, 69, 127
3, 8060, Note_off_c, 1, 69, 100
3, 8064, Note_on_c, 1, 71, 127
3, 8124, Note_off_c, 1, 71, 100
3, 8256, Note_on_c, 1, 72, 127
3, 8316, Note_off_c, 1, 72, 100
3, 8448, Note_on_c, 1, 74, 127
3, 8636, Note_off_c, 1, 74, 100
3, 8640, Note_on_c, 1, 72, 127
3, 8732, Note_off_c, 1, 72, 100
3, 8736, Note_on_c, 1, 71, 127
3, 8828, Note_off_c, 1, 71, 100
3, 8832, Note_on_c, 1, 69, 127
3, 8960, Note_off_c, 1, 69, 100
3, 9024, Note_on_c, 1, 74, 127
3, 9084, Note_off_c, 1, 74, 100
3, 9216, Note_on_c, 1, 79, 127
3, 9404, Note_off_c, 1, 79, 100
3, 9408, Note_on_c, 1, 78, 127
3, 9596, Note_off_c, 1, 78, 100
3, 9600, Note_on_c, 1, 76, 127
3, 9660, Note_off_c, 1, 76, 100
3, 9792, Note_on_c, 1, 74, 127
3, 9852, Note_off_c, 1, 74, 100
3, 9984, Note_on_c, 1, 74, 127
3, 10012, Note_off_c, 1, 74, 100
3, 10016, Note_on_c, 1, 73, 127
3, 10044, Note_off_c, 1, 73, 100
3, 10048, Note_on_c, 1, 74, 127
3, 10076, Note_off_c, 1, 74, 100
3, 10080, Note_on_c, 1, 73, 127
3, 10172, Note_off_c, 1, 73, 100
3, 10176, Note_on_c, 1, 71, 127
3, 10268, Note_off_c, 1, 71, 100
3, 10272, Note_on_c, 1, 73, 127
3, 10364, Note_off_c, 1, 73, 100
3, 10368, Note_on_c, 1, 69, 127
3, 10496, Note_off_c, 1, 69, 100
3, 10752, Note_on_c, 1, 81, 127
3, 11008, Note_off_c, 1, 81, 100
3, 11136, Note_on_c, 1, 81, 127
3, 11392, Note_off_c, 1, 81, 100
3, 11520, Note_on_c, 1, 83, 127
3, 11776, Note_off_c, 1, 83, 100
3, 11904, Note_on_c, 1, 83, 127
3, 12160, Note_off_c, 1, 83, 100
3, 12288, Note_on_c, 1, 81, 127
3, 12476, Note_off_c, 1, 81, 100
3, 12480, Note_on_c, 1, 83, 127
3, 12668, Note_off_c, 1, 83, 100
3, 12672, Note_on_c, 1, 81, 127
3, 12732, Note_off_c, 1, 81, 100
3, 12864, Note_on_c, 1, 79, 127
3, 12924, Note_off_c, 1, 79, 100
3, 13056, Note_on_c, 1, 78, 127
3, 13244, Note_off_c, 1, 78, 100
3, 13248, Note_on_c, 1, 76, 127
3, 13436, Note_off_c, 1, 76, 100
3, 13440, Note_on_c, 1, 74, 127
3, 13568, Note_off_c, 1, 74, 100
3, 15360, Note_on_c, 1, 67, 127
3, 15616, Note_off_c, 1, 67, 100
3, 15744, Note_on_c, 1, 67, 127
3, 16000, Note_off_c, 1, 67, 100
3, 16128, Note_on_c, 1, 69, 127
3, 16384, Note_off_c, 1, 69, 100
3, 16512, Note_on_c, 1, 69, 127
3, 16768, Note_off_c, 1, 69, 100
3, 16896, Note_on_c, 1, 67, 127
3, 17084, Note_off_c, 1, 67, 100
3, 17088, Note_on_c, 1, 69, 127
3, 17228, Note_off_c, 1, 69, 100
3, 17232, Note_on_c, 1, 67, 127
3, 17252, Note_off_c, 1, 67, 100
3, 17256, Note_on_c, 1, 69, 127
3, 17276, Note_off_c, 1, 69, 100
3, 17280, Note_on_c, 1, 67, 127
3, 17340, Note_off_c, 1, 67, 100
3, 17472, Note_on_c, 1, 65, 127
3, 17532, Note_off_c, 1, 65, 100
3, 17664, Note_on_c, 1, 65, 127
3, 17684, Note_off_c, 1, 65, 100
3, 17688, Note_on_c, 1, 64, 127
3, 17708, Note_off_c, 1, 64, 100
3, 17712, Note_on_c, 1, 65, 127
3, 17732, Note_off_c, 1, 65, 100
3, 17736, Note_on_c, 1, 64, 127
3, 17852, Note_off_c, 1, 64, 100
3, 17856, Note_on_c, 1, 62, 127
3, 18044, Note_off_c, 1, 62, 100
3, 18048, Note_on_c, 1, 60, 127
3, 18176, Note_off_c, 1, 60, 100
3, 18240, Note_on_c, 1, 71, 127
3, 18300, Note_off_c, 1, 71, 100
3, 18432, Note_on_c, 1, 69, 127
3, 18620, Note_off_c, 1, 69, 100
3, 18624, Note_on_c, 1, 67, 127
3, 18812, Note_off_c, 1, 67, 100
3, 18816, Note_on_c, 1, 69, 127
3, 18876, Note_off_c, 1, 69, 100
3, 19008, Note_on_c, 1, 66, 127
3, 19068, Note_off_c, 1, 66, 100
3, 19200, Note_on_c, 1, 67, 127
3, 19456, Note_off_c, 1, 67, 100
3, 19584, Note_on_c, 1, 67, 127
3, 19712, Note_off_c, 1, 67, 100
3, 19776, Note_on_c, 1, 62, 127
3, 19836, Note_off_c, 1, 62, 100
3, 19968, Note_on_c, 1, 67, 127
3, 20156, Note_off_c, 1, 67, 100
3, 20160, Note_on_c, 1, 69, 127
3, 20348, Note_off_c, 1, 69, 100
3, 20352, Note_on_c, 1, 71, 127
3, 20412, Note_off_c, 1, 71, 100
3, 20544, Note_on_c, 1, 72, 127
3, 20604, Note_off_c, 1, 72, 100
3, 20688, Note_on_c, 1, 71, 127
3, 20708, Note_off_c, 1, 71, 100
3, 20712, Note_on_c, 1, 72, 127
3, 20732, Note_off_c, 1, 72, 100
3, 20736, Note_on_c, 1, 74, 127
3, 20924, Note_off_c, 1, 74, 100
3, 20928, Note_on_c, 1, 72, 127
3, 21020, Note_off_c, 1, 72, 100
3, 21024, Note_on_c, 1, 71, 127
3, 21116, Note_off_c, 1, 71, 100
3, 21120, Note_on_c, 1, 69, 127
3, 21248, Note_off_c, 1, 69, 100
3, 21312, Note_on_c, 1, 74, 127
3, 21372, Note_off_c, 1, 74, 100
3, 21504, Note_on_c, 1, 79, 127
3, 21692, Note_off_c, 1, 79, 100
3, 21696, Note_on_c, 1, 78, 127
3, 21840, Note_off_c, 1, 78, 100
3, 21840, Note_on_c, 1, 76, 127
3, 21860, Note_off_c, 1, 76, 100
3, 21864, Note_on_c, 1, 78, 127
3, 21884, Note_off_c, 1, 78, 100
3, 21888, Note_on_c, 1, 76, 127
3, 21948, Note_off_c, 1, 76, 100
3, 22080, Note_on_c, 1, 74, 127
3, 22140, Note_off_c, 1, 74, 100
3, 22272, Note_on_c, 1, 74, 127
3, 22300, Note_off_c, 1, 74, 100
3, 22304, Note_on_c, 1, 73, 127
3, 22332, Note_off_c, 1, 73, 100
3, 22336, Note_on_c, 1, 74, 127
3, 22364, Note_off_c, 1, 74, 100
3, 22368, Note_on_c, 1, 73, 127
3, 22460, Note_off_c, 1, 73, 100
3, 22464, Note_on_c, 1, 71, 127
3, 22556, Note_off_c, 1, 71, 100
3, 22560, Note_on_c, 1, 73, 127
3, 22652, Note_off_c, 1, 73, 100
3, 22656, Note_on_c, 1, 69, 127
3, 22784, Note_off_c, 1, 69, 100
3, 23040, Note_on_c, 1, 81, 127
3, 23296, Note_off_c, 1, 81, 100
3, 23424, Note_on_c, 1, 81, 127
3, 23680, Note_off_c, 1, 81, 100
3, 23808, Note_on_c, 1, 83, 127
3, 24064, Note_off_c, 1, 83, 100
3, 24192, Note_on_c, 1, 83, 127
3, 24448, Note_off_c, 1, 83, 100
3, 24576, Note_on_c, 1, 81, 127
3, 24764, Note_off_c, 1, 81, 100
3, 24768, Note_on_c, 1, 83, 127
3, 24956, Note_off_c, 1, 83, 100
3, 24960, Note_on_c, 1, 81, 127
3, 25020, Note_off_c, 1, 81, 100
3, 25152, Note_on_c, 1, 79, 127
3, 25212, Note_off_c, 1, 79, 100
3, 25344, Note_on_c, 1, 79, 127
3, 25372, Note_off_c, 1, 79, 100
3, 25376, Note_on_c, 1, 78, 127
3, 25404, Note_off_c, 1, 78, 100
3, 25408, Note_on_c, 1, 79, 127
3, 25436, Note_off_c, 1, 79, 100
3, 25440, Note_on_c, 1, 78, 127
3, 25532, Note_off_c, 1, 78, 100
3, 25536, Note_on_c, 1, 76, 127
3, 25724, Note_off_c, 1, 76, 100
3, 25728, Note_on_c, 1, 74, 127
3, 25856, Note_off_c, 1, 74, 100
3, 25920, Note_on_c, 1, 81, 127
3, 25980, Note_off_c, 1, 81, 100
3, 26112, Note_on_c, 1, 78, 127
3, 26300, Note_off_c, 1, 78, 100
3, 26304, Note_on_c, 1, 81, 127
3, 26364, Note_off_c, 1, 81, 100
3, 26496, Note_on_c, 1, 78, 127
3, 26684, Note_off_c, 1, 78, 100
3, 26688, Note_on_c, 1, 81, 127
3, 26748, Note_off_c, 1, 81, 100
3, 26880, Note_on_c, 1, 74, 127
3, 27068, Note_off_c, 1, 74, 100
3, 27072, Note_on_c, 1, 76, 127
3, 27164, Note_off_c, 1, 76, 100
3, 27168, Note_on_c, 1, 78, 127
3, 27260, Note_off_c, 1, 78, 100
3, 27264, Note_on_c, 1, 79, 127
3, 27392, Note_off_c, 1, 79, 100
3, 27456, Note_on_c, 1, 76, 127
3, 27516, Note_off_c, 1, 76, 100
3, 27648, Note_on_c, 1, 81, 127
3, 27836, Note_off_c, 1, 81, 100
3, 27840, Note_on_c, 1, 79, 127
3, 28028, Note_off_c, 1, 79, 100
3, 28032, Note_on_c, 1, 78, 127
3, 28092, Note_off_c, 1, 78, 100
3, 28224, Note_on_c, 1, 76, 127
3, 28284, Note_off_c, 1, 76, 100
3, 28416, Note_on_c, 1, 75, 127
3, 28604, Note_off_c, 1, 75, 100
3, 28608, Note_on_c, 1, 73, 127
3, 28700, Note_off_c, 1, 73, 100
3, 28704, Note_on_c, 1, 75, 127
3, 28796, Note_off_c, 1, 75, 100
3, 28800, Note_on_c, 1, 71, 127
3, 28928, Note_off_c, 1, 71, 100
3, 28992, Note_on_c, 1, 83, 127
3, 29052, Note_off_c, 1, 83, 100
3, 29184, Note_on_c, 1, 76, 127
3, 29372, Note_off_c, 1, 76, 100
3, 29376, Note_on_c, 1, 83, 127
3, 29436, Note_off_c, 1, 83, 100
3, 29568, Note_on_c, 1, 76, 127
3, 29756, Note_off_c, 1, 76, 100
3, 29760, Note_on_c, 1, 83, 127
3, 29820, Note_off_c, 1, 83, 100
3, 29952, Note_on_c, 1, 75, 127
3, 30044, Note_off_c, 1, 75, 100
3, 30048, Note_on_c, 1, 76, 127
3, 30140, Note_off_c, 1, 76, 100
3, 30144, Note_on_c, 1, 78, 127
3, 30236, Note_off_c, 1, 78, 100
3, 30240, Note_on_c, 1, 79, 127
3, 30332, Note_off_c, 1, 79, 100
3, 30336, Note_on_c, 1, 81, 127
3, 30464, Note_off_c, 1, 81, 100
3, 30528, Note_on_c, 1, 79, 127
3, 30620, Note_off_c, 1, 79, 100
3, 30624, Note_on_c, 1, 78, 127
3, 30716, Note_off_c, 1, 78, 100
3, 30720, Note_on_c, 1, 79, 127
3, 30848, Note_off_c, 1, 79, 100
3, 30912, Note_on_c, 1, 78, 127
3, 31004, Note_off_c, 1, 78, 100
3, 31008, Note_on_c, 1, 76, 127
3, 31100, Note_off_c, 1, 76, 100
3, 31104, Note_on_c, 1, 75, 127
3, 31196, Note_off_c, 1, 75, 100
3, 31200, Note_on_c, 1, 76, 127
3, 31292, Note_off_c, 1, 76, 100
3, 31296, Note_on_c, 1, 78, 127
3, 31388, Note_off_c, 1, 78, 100
3, 31392, Note_on_c, 1, 75, 127
3, 31484, Note_off_c, 1, 75, 100
3, 31488, Note_on_c, 1, 76, 127
3, 32348, Note_off_c, 1, 76, 100
3, 32352, Note_on_c, 1, 74, 127
3, 32416, Note_off_c, 1, 74, 100
3, 32448, Note_on_c, 1, 78, 127
3, 32540, Note_off_c, 1, 78, 100
3, 32544, Note_on_c, 1, 76, 127
3, 32608, Note_off_c, 1, 76, 100
3, 32640, Note_on_c, 1, 79, 127
3, 32732, Note_off_c, 1, 79, 100
3, 32736, Note_on_c, 1, 78, 127
3, 32800, Note_off_c, 1, 78, 100
3, 32832, Note_on_c, 1, 81, 127
3, 32892, Note_off_c, 1, 81, 100
3, 33024, Note_on_c, 1, 74, 127
3, 33408, Note_off_c, 1, 74, 100
3, 33600, Note_on_c, 1, 72, 127
3, 33692, Note_off_c, 1, 72, 100
3, 33696, Note_on_c, 1, 74, 127
3, 33788, Note_off_c, 1, 74, 100
3, 33792, Note_on_c, 1, 76, 127
3, 33920, Note_off_c, 1, 76, 100
3, 33984, Note_on_c, 1, 78, 127
3, 34076, Note_off_c, 1, 78, 100
3, 34080, Note_on_c, 1, 79, 127
3, 34172, Note_off_c, 1, 79, 100
3, 34176, Note_on_c, 1, 81, 127
3, 34236, Note_off_c, 1, 81, 100
3, 34368, Note_on_c, 1, 79, 127
3, 34428, Note_off_c, 1, 79, 100
3, 34560, Note_on_c, 1, 79, 127
3, 34580, Note_off_c, 1, 79, 100
3, 34584, Note_on_c, 1, 78, 127
3, 34604, Note_off_c, 1, 78, 100
3, 34608, Note_on_c, 1, 79, 127
3, 34628, Note_off_c, 1, 79, 100
3, 34632, Note_on_c, 1, 78, 127
3, 34652, Note_off_c, 1, 78, 100
3, 34656, Note_on_c, 1, 76, 127
3, 34700, Note_off_c, 1, 76, 100
3, 34704, Note_on_c, 1, 78, 127
3, 34748, Note_off_c, 1, 78, 100
3, 34752, Note_on_c, 1, 74, 127
3, 34940, Note_off_c, 1, 74, 100
3, 35328, Note_on_c, 1, 83, 127
3, 35516, Note_off_c, 1, 83, 100
3, 35520, Note_on_c, 1, 84, 127
3, 35708, Note_off_c, 1, 84, 100
3, 35712, Note_on_c, 1, 86, 127
3, 35772, Note_off_c, 1, 86, 100
3, 35904, Note_on_c, 1, 83, 127
3, 35964, Note_off_c, 1, 83, 100
3, 36096, Note_on_c, 1, 84, 127
3, 36284, Note_off_c, 1, 84, 100
3, 36288, Note_on_c, 1, 83, 127
3, 36476, Note_off_c, 1, 83, 100
3, 36480, Note_on_c, 1, 81, 127
3, 36608, Note_off_c, 1, 81, 100
3, 36672, Note_on_c, 1, 79, 127
3, 36732, Note_off_c, 1, 79, 100
3, 36864, Note_on_c, 1, 78, 127
3, 37052, Note_off_c, 1, 78, 100
3, 37056, Note_on_c, 1, 79, 127
3, 37244, Note_off_c, 1, 79, 100
3, 37248, Note_on_c, 1, 81, 127
3, 37308, Note_off_c, 1, 81, 100
3, 37440, Note_on_c, 1, 78, 127
3, 37500, Note_off_c, 1, 78, 100
3, 37632, Note_on_c, 1, 79, 127
3, 37888, Note_off_c, 1, 79, 100
3, 38016, Note_on_c, 1, 79, 127
3, 38144, Note_off_c, 1, 79, 100
3, 38208, Note_on_c, 1, 81, 127
3, 38268, Note_off_c, 1, 81, 100
3, 38400, Note_on_c, 1, 78, 127
3, 38588, Note_off_c, 1, 78, 100
3, 38592, Note_on_c, 1, 81, 127
3, 38652, Note_off_c, 1, 81, 100
3, 38784, Note_on_c, 1, 78, 127
3, 38972, Note_off_c, 1, 78, 100
3, 38976, Note_on_c, 1, 81, 127
3, 39036, Note_off_c, 1, 81, 100
3, 39168, Note_on_c, 1, 74, 127
3, 39356, Note_off_c, 1, 74, 100
3, 39360, Note_on_c, 1, 76, 127
3, 39452, Note_off_c, 1, 76, 100
3, 39456, Note_on_c, 1, 78, 127
3, 39548, Note_off_c, 1, 78, 100
3, 39552, Note_on_c, 1, 79, 127
3, 39680, Note_off_c, 1, 79, 100
3, 39744, Note_on_c, 1, 76, 127
3, 39804, Note_off_c, 1, 76, 100
3, 39936, Note_on_c, 1, 81, 127
3, 40124, Note_off_c, 1, 81, 100
3, 40128, Note_on_c, 1, 79, 127
3, 40316, Note_off_c, 1, 79, 100
3, 40320, Note_on_c, 1, 78, 127
3, 40380, Note_off_c, 1, 78, 100
3, 40512, Note_on_c, 1, 76, 127
3, 40572, Note_off_c, 1, 76, 100
3, 40704, Note_on_c, 1, 76, 127
3, 40724, Note_off_c, 1, 76, 100
3, 40728, Note_on_c, 1, 75, 127
3, 40748, Note_off_c, 1, 75, 100
3, 40752, Note_on_c, 1, 76, 127
3, 40772, Note_off_c, 1, 76, 100
3, 40776, Note_on_c, 1, 75, 127
3, 40892, Note_off_c, 1, 75, 100
3, 40896, Note_on_c, 1, 73, 127
3, 40988, Note_off_c, 1, 73, 100
3, 40992, Note_on_c, 1, 75, 127
3, 41084, Note_off_c, 1, 75, 100
3, 41088, Note_on_c, 1, 71, 127
3, 41216, Note_off_c, 1, 71, 100
3, 41280, Note_on_c, 1, 83, 127
3, 41340, Note_off_c, 1, 83, 100
3, 41472, Note_on_c, 1, 76, 127
3, 41660, Note_off_c, 1, 76, 100
3, 41664, Note_on_c, 1, 83, 127
3, 41724, Note_off_c, 1, 83, 100
3, 41856, Note_on_c, 1, 76, 127
3, 42044, Note_off_c, 1, 76, 100
3, 42048, Note_on_c, 1, 83, 127
3, 42108, Note_off_c, 1, 83, 100
3, 42240, Note_on_c, 1, 75, 127
3, 42332, Note_off_c, 1, 75, 100
3, 42336, Note_on_c, 1, 76, 127
3, 42428, Note_off_c, 1, 76, 100
3, 42432, Note_on_c, 1, 78, 127
3, 42524, Note_off_c, 1, 78, 100
3, 42528, Note_on_c, 1, 79, 127
3, 42620, Note_off_c, 1, 79, 100
3, 42624, Note_on_c, 1, 81, 127
3, 42752, Note_off_c, 1, 81, 100
3, 42816, Note_on_c, 1, 79, 127
3, 42908, Note_off_c, 1, 79, 100
3, 42912, Note_on_c, 1, 78, 127
3, 43004, Note_off_c, 1, 78, 100
3, 43008, Note_on_c, 1, 79, 127
3, 43136, Note_off_c, 1, 79, 100
3, 43200, Note_on_c, 1, 78, 127
3, 43292, Note_off_c, 1, 78, 100
3, 43296, Note_on_c, 1, 76, 127
3, 43388, Note_off_c, 1, 76, 100
3, 43392, Note_on_c, 1, 75, 127
3, 43484, Note_off_c, 1, 75, 100
3, 43488, Note_on_c, 1, 76, 127
3, 43580, Note_off_c, 1, 76, 100
3, 43584, Note_on_c, 1, 78, 127
3, 43676, Note_off_c, 1, 78, 100
3, 43680, Note_on_c, 1, 75, 127
3, 43744, Note_off_c, 1, 75, 100
3, 43776, Note_on_c, 1, 78, 127
3, 43796, Note_off_c, 1, 78, 100
3, 43800, Note_on_c, 1, 76, 127
3, 43820, Note_off_c, 1, 76, 100
3, 43824, Note_on_c, 1, 78, 127
3, 43844, Note_off_c, 1, 78, 100
3, 43848, Note_on_c, 1, 76, 127
3, 44640, Note_on_c, 1, 74, 127
3, 44704, Note_off_c, 1, 74, 100
3, 44708, Note_off_c, 1, 76, 100
3, 44736, Note_on_c, 1, 78, 127
3, 44828, Note_off_c, 1, 78, 100
3, 44832, Note_on_c, 1, 76, 127
3, 44896, Note_off_c, 1, 76, 100
3, 44928, Note_on_c, 1, 79, 127
3, 45020, Note_off_c, 1, 79, 100
3, 45024, Note_on_c, 1, 78, 127
3, 45088, Note_off_c, 1, 78, 100
3, 45120, Note_on_c, 1, 81, 127
3, 45180, Note_off_c, 1, 81, 100
3, 45312, Note_on_c, 1, 74, 127
3, 45696, Note_off_c, 1, 74, 100
3, 45888, Note_on_c, 1, 72, 127
3, 45980, Note_off_c, 1, 72, 100
3, 45984, Note_on_c, 1, 74, 127
3, 46076, Note_off_c, 1, 74, 100
3, 46080, Note_on_c, 1, 76, 127
3, 46208, Note_off_c, 1, 76, 100
3, 46272, Note_on_c, 1, 78, 127
3, 46364, Note_off_c, 1, 78, 100
3, 46368, Note_on_c, 1, 79, 127
3, 46460, Note_off_c, 1, 79, 100
3, 46464, Note_on_c, 1, 81, 127
3, 46524, Note_off_c, 1, 81, 100
3, 46656, Note_on_c, 1, 79, 127
3, 46716, Note_off_c, 1, 79, 100
3, 46848, Note_on_c, 1, 79, 127
3, 46868, Note_off_c, 1, 79, 100
3, 46872, Note_on_c, 1, 78, 127
3, 46892, Note_off_c, 1, 78, 100
3, 46896, Note_on_c, 1, 79, 127
3, 46916, Note_off_c, 1, 79, 100
3, 46920, Note_on_c, 1, 78, 127
3, 46940, Note_off_c, 1, 78, 100
3, 46944, Note_on_c, 1, 76, 127
3, 46988, Note_off_c, 1, 76, 100
3, 46992, Note_on_c, 1, 78, 127
3, 47036, Note_off_c, 1, 78, 100
3, 47040, Note_on_c, 1, 74, 127
3, 47228, Note_off_c, 1, 74, 100
3, 47616, Note_on_c, 1, 83, 127
3, 47804, Note_off_c, 1, 83, 100
3, 47808, Note_on_c, 1, 84, 127
3, 47952, Note_off_c, 1, 84, 100
3, 47952, Note_on_c, 1, 83, 127
3, 47972, Note_off_c, 1, 83, 100
3, 47976, Note_on_c, 1, 84, 127
3, 47996, Note_off_c, 1, 84, 100
3, 48000, Note_on_c, 1, 86, 127
3, 48060, Note_off_c, 1, 86, 100
3, 48192, Note_on_c, 1, 83, 127
3, 48252, Note_off_c, 1, 83, 100
3, 48384, Note_on_c, 1, 84, 127
3, 48572, Note_off_c, 1, 84, 100
3, 48576, Note_on_c, 1, 83, 127
3, 48764, Note_off_c, 1, 83, 100
3, 48768, Note_on_c, 1, 81, 127
3, 48896, Note_off_c, 1, 81, 100
3, 48960, Note_on_c, 1, 79, 127
3, 49020, Note_off_c, 1, 79, 100
3, 49152, Note_on_c, 1, 78, 127
3, 49340, Note_off_c, 1, 78, 100
3, 49344, Note_on_c, 1, 79, 127
3, 49532, Note_off_c, 1, 79, 100
3, 49536, Note_on_c, 1, 81, 127
3, 49596, Note_off_c, 1, 81, 100
3, 49728, Note_on_c, 1, 78, 127
3, 49788, Note_off_c, 1, 78, 100
3, 49920, Note_on_c, 1, 79, 127
3, 50208, Note_off_c, 1, 79, 100
3, 50352, Note_on_c, 1, 79, 127
3, 50632, Note_off_c, 1, 79, 100
3, 50632, End_track
4, 0, Start_track
4, 0, Title_t, "BWV 988"
4, 0, Control_c, 2, 0, 0
4, 0, Program_c, 2, 6
4, 0, Control_c, 2, 7, 127
4, 0, Control_c, 2, 10, 127
4, 0, Control_c, 2, 91, 127
4, 0, Key_signature, 1, "major"
4, 1344, Note_on_c, 2, 50, 127
4, 1404, Note_off_c, 2, 50, 100
4, 1536, Note_on_c, 2, 55, 127
4, 1724, Note_off_c, 2, 55, 100
4, 1728, Note_on_c, 2, 57, 127
4, 1916, Note_off_c, 2, 57, 100
4, 1920, Note_on_c, 2, 59, 127
4, 1980, Note_off_c, 2, 59, 100
4, 2112, Note_on_c, 2, 60, 127
4, 2172, Note_off_c, 2, 60, 100
4, 2304, Note_on_c, 2, 62, 127
4, 2492, Note_off_c, 2, 62, 100
4, 2496, Note_on_c, 2, 60, 127
4, 2588, Note_off_c, 2, 60, 100
4, 2592, Note_on_c, 2, 59, 127
4, 2684, Note_off_c, 2, 59, 100
4, 2688, Note_on_c, 2, 57, 127
4, 2876, Note_off_c, 2, 57, 100
4, 2880, Note_on_c, 2, 55, 127
4, 2972, Note_off_c, 2, 55, 100
4, 2976, Note_on_c, 2, 57, 127
4, 3068, Note_off_c, 2, 57, 100
4, 3072, Note_on_c, 2, 59, 127
4, 3132, Note_off_c, 2, 59, 100
4, 3264, Note_on_c, 2, 57, 127
4, 3324, Note_off_c, 2, 57, 100
4, 3456, Note_on_c, 2, 55, 127
4, 3968, Note_off_c, 2, 55, 100
4, 4224, Note_on_c, 2, 55, 127
4, 4252, Note_off_c, 2, 55, 100
4, 4256, Note_on_c, 2, 54, 127
4, 4284, Note_off_c, 2, 54, 100
4, 4288, Note_on_c, 2, 55, 127
4, 4316, Note_off_c, 2, 55, 100
4, 4320, Note_on_c, 2, 54, 127
4, 4412, Note_off_c, 2, 54, 100
4, 4416, Note_on_c, 2, 52, 127
4, 4508, Note_off_c, 2, 52, 100
4, 4512, Note_on_c, 2, 54, 127
4, 4604, Note_off_c, 2, 54, 100
4, 4608, Note_on_c, 2, 55, 127
4, 4988, Note_off_c, 2, 55, 100
4, 6144, Note_on_c, 2, 55, 127
4, 6220, Note_off_c, 2, 55, 100
4, 6224, Note_on_c, 2, 54, 127
4, 6272, Note_off_c, 2, 54, 100
4, 6276, Note_on_c, 2, 55, 127
4, 6312, Note_off_c, 2, 55, 100
4, 6316, Note_on_c, 2, 54, 127
4, 6340, Note_off_c, 2, 54, 100
4, 6344, Note_on_c, 2, 55, 127
4, 6368, Note_off_c, 2, 55, 100
4, 6372, Note_on_c, 2, 54, 127
4, 6396, Note_off_c, 2, 54, 100
4, 6400, Note_on_c, 2, 55, 127
4, 6424, Note_off_c, 2, 55, 100
4, 6428, Note_on_c, 2, 54, 127
4, 6452, Note_off_c, 2, 54, 100
4, 6456, Note_on_c, 2, 55, 127
4, 6480, Note_off_c, 2, 55, 100
4, 6484, Note_on_c, 2, 54, 127
4, 6508, Note_off_c, 2, 54, 100
4, 6512, Note_on_c, 2, 55, 127
4, 6536, Note_off_c, 2, 55, 100
4, 6540, Note_on_c, 2, 54, 127
4, 6564, Note_off_c, 2, 54, 100
4, 6568, Note_on_c, 2, 55, 127
4, 6592, Note_off_c, 2, 55, 100
4, 6596, Note_on_c, 2, 54, 127
4, 6620, Note_off_c, 2, 54, 100
4, 6624, Note_on_c, 2, 52, 127
4, 6668, Note_off_c, 2, 52, 100
4, 6672, Note_on_c, 2, 54, 127
4, 6716, Note_off_c, 2, 54, 100
4, 6720, Note_on_c, 2, 50, 127
4, 7288, Note_off_c, 2, 50, 100
4, 7680, Note_on_c, 2, 67, 127
4, 7936, Note_off_c, 2, 67, 100
4, 8064, Note_on_c, 2, 67, 127
4, 8320, Note_off_c, 2, 67, 100
4, 8448, Note_on_c, 2, 69, 127
4, 8704, Note_off_c, 2, 69, 100
4, 8832, Note_on_c, 2, 69, 127
4, 9088, Note_off_c, 2, 69, 100
4, 9216, Note_on_c, 2, 67, 127
4, 9404, Note_off_c, 2, 67, 100
4, 9408, Note_on_c, 2, 69, 127
4, 9596, Note_off_c, 2, 69, 100
4, 9600, Note_on_c, 2, 67, 127
4, 9660, Note_off_c, 2, 67, 100
4, 9792, Note_on_c, 2, 66, 127
4, 9852, Note_off_c, 2, 66, 100
4, 9984, Note_on_c, 2, 64, 127
4, 10172, Note_off_c, 2, 64, 100
4, 10176, Note_on_c, 2, 62, 127
4, 10364, Note_off_c, 2, 62, 100
4, 10368, Note_on_c, 2, 61, 127
4, 10496, Note_off_c, 2, 61, 100
4, 10752, Note_on_c, 2, 54, 127
4, 10940, Note_off_c, 2, 54, 100
4, 10944, Note_on_c, 2, 55, 127
4, 11132, Note_off_c, 2, 55, 100
4, 11136, Note_on_c, 2, 57, 127
4, 11196, Note_off_c, 2, 57, 100
4, 11328, Note_on_c, 2, 54, 127
4, 11388, Note_off_c, 2, 54, 100
4, 11520, Note_on_c, 2, 55, 127
4, 11708, Note_off_c, 2, 55, 100
4, 11712, Note_on_c, 2, 54, 127
4, 11900, Note_off_c, 2, 54, 100
4, 11904, Note_on_c, 2, 52, 127
4, 12032, Note_off_c, 2, 52, 100
4, 12096, Note_on_c, 2, 50, 127
4, 12156, Note_off_c, 2, 50, 100
4, 12288, Note_on_c, 2, 49, 127
4, 12476, Note_off_c, 2, 49, 100
4, 12480, Note_on_c, 2, 50, 127
4, 12668, Note_off_c, 2, 50, 100
4, 12672, Note_on_c, 2, 52, 127
4, 12732, Note_off_c, 2, 52, 100
4, 12864, Note_on_c, 2, 49, 127
4, 12924, Note_off_c, 2, 49, 100
4, 13056, Note_on_c, 2, 50, 127
4, 13312, Note_off_c, 2, 50, 100
4, 13440, Note_on_c, 2, 50, 127
4, 13568, Note_off_c, 2, 50, 100
4, 13632, Note_on_c, 2, 50, 127
4, 13692, Note_off_c, 2, 50, 100
4, 13824, Note_on_c, 2, 55, 127
4, 14012, Note_off_c, 2, 55, 100
4, 14016, Note_on_c, 2, 57, 127
4, 14204, Note_off_c, 2, 57, 100
4, 14208, Note_on_c, 2, 59, 127
4, 14268, Note_off_c, 2, 59, 100
4, 14400, Note_on_c, 2, 60, 127
4, 14460, Note_off_c, 2, 60, 100
4, 14592, Note_on_c, 2, 62, 127
4, 14780, Note_off_c, 2, 62, 100
4, 14784, Note_on_c, 2, 60, 127
4, 14876, Note_off_c, 2, 60, 100
4, 14880, Note_on_c, 2, 59, 127
4, 14972, Note_off_c, 2, 59, 100
4, 14976, Note_on_c, 2, 57, 127
4, 15164, Note_off_c, 2, 57, 100
4, 15168, Note_on_c, 2, 55, 127
4, 15260, Note_off_c, 2, 55, 100
4, 15264, Note_on_c, 2, 57, 127
4, 15356, Note_off_c, 2, 57, 100
4, 15360, Note_on_c, 2, 59, 127
4, 15420, Note_off_c, 2, 59, 100
4, 15552, Note_on_c, 2, 57, 127
4, 15612, Note_off_c, 2, 57, 100
4, 15744, Note_on_c, 2, 55, 127
4, 16256, Note_off_c, 2, 55, 100
4, 16512, Note_on_c, 2, 55, 127
4, 16540, Note_off_c, 2, 55, 100
4, 16544, Note_on_c, 2, 54, 127
4, 16572, Note_off_c, 2, 54, 100
4, 16576, Note_on_c, 2, 55, 127
4, 16604, Note_off_c, 2, 55, 100
4, 16608, Note_on_c, 2, 54, 127
4, 16700, Note_off_c, 2, 54, 100
4, 16704, Note_on_c, 2, 52, 127
4, 16796, Note_off_c, 2, 52, 100
4, 16800, Note_on_c, 2, 54, 127
4, 16892, Note_off_c, 2, 54, 100
4, 16896, Note_on_c, 2, 55, 127
4, 17276, Note_off_c, 2, 55, 100
4, 18432, Note_on_c, 2, 55, 127
4, 18508, Note_off_c, 2, 55, 100
4, 18512, Note_on_c, 2, 54, 127
4, 18560, Note_off_c, 2, 54, 100
4, 18564, Note_on_c, 2, 55, 127
4, 18600, Note_off_c, 2, 55, 100
4, 18604, Note_on_c, 2, 54, 127
4, 18628, Note_off_c, 2, 54, 100
4, 18632, Note_on_c, 2, 55, 127
4, 18656, Note_off_c, 2, 55, 100
4, 18660, Note_on_c, 2, 54, 127
4, 18684, Note_off_c, 2, 54, 100
4, 18688, Note_on_c, 2, 55, 127
4, 18712, Note_off_c, 2, 55, 100
4, 18716, Note_on_c, 2, 54, 127
4, 18740, Note_off_c, 2, 54, 100
4, 18744, Note_on_c, 2, 55, 127
4, 18768, Note_off_c, 2, 55, 100
4, 18772, Note_on_c, 2, 54, 127
4, 18796, Note_off_c, 2, 54, 100
4, 18800, Note_on_c, 2, 55, 127
4, 18824, Note_off_c, 2, 55, 100
4, 18828, Note_on_c, 2, 54, 127
4, 18852, Note_off_c, 2, 54, 100
4, 18856, Note_on_c, 2, 55, 127
4, 18880, Note_off_c, 2, 55, 100
4, 18884, Note_on_c, 2, 54, 127
4, 18908, Note_off_c, 2, 54, 100
4, 18912, Note_on_c, 2, 52, 127
4, 18956, Note_off_c, 2, 52, 100
4, 18960, Note_on_c, 2, 54, 127
4, 19004, Note_off_c, 2, 54, 100
4, 19008, Note_on_c, 2, 50, 127
4, 19576, Note_off_c, 2, 50, 100
4, 19968, Note_on_c, 2, 67, 127
4, 20224, Note_off_c, 2, 67, 100
4, 20352, Note_on_c, 2, 67, 127
4, 20608, Note_off_c, 2, 67, 100
4, 20736, Note_on_c, 2, 69, 127
4, 20992, Note_off_c, 2, 69, 100
4, 21120, Note_on_c, 2, 69, 127
4, 21376, Note_off_c, 2, 69, 100
4, 21504, Note_on_c, 2, 67, 127
4, 21692, Note_off_c, 2, 67, 100
4, 21696, Note_on_c, 2, 69, 127
4, 21884, Note_off_c, 2, 69, 100
4, 21888, Note_on_c, 2, 67, 127
4, 21948, Note_off_c, 2, 67, 100
4, 22080, Note_on_c, 2, 66, 127
4, 22140, Note_off_c, 2, 66, 100
4, 22272, Note_on_c, 2, 64, 127
4, 22460, Note_off_c, 2, 64, 100
4, 22464, Note_on_c, 2, 62, 127
4, 22652, Note_off_c, 2, 62, 100
4, 22656, Note_on_c, 2, 61, 127
4, 22784, Note_off_c, 2, 61, 100
4, 23040, Note_on_c, 2, 54, 127
4, 23228, Note_off_c, 2, 54, 100
4, 23232, Note_on_c, 2, 55, 127
4, 23420, Note_off_c, 2, 55, 100
4, 23424, Note_on_c, 2, 57, 127
4, 23484, Note_off_c, 2, 57, 100
4, 23568, Note_on_c, 2, 54, 127
4, 23588, Note_off_c, 2, 54, 100
4, 23592, Note_on_c, 2, 55, 127
4, 23612, Note_off_c, 2, 55, 100
4, 23616, Note_on_c, 2, 54, 127
4, 23676, Note_off_c, 2, 54, 100
4, 23808, Note_on_c, 2, 55, 127
4, 23996, Note_off_c, 2, 55, 100
4, 24000, Note_on_c, 2, 54, 127
4, 24188, Note_off_c, 2, 54, 100
4, 24192, Note_on_c, 2, 52, 127
4, 24380, Note_off_c, 2, 52, 100
4, 24384, Note_on_c, 2, 50, 127
4, 24444, Note_off_c, 2, 50, 100
4, 24576, Note_on_c, 2, 49, 127
4, 24764, Note_off_c, 2, 49, 100
4, 24768, Note_on_c, 2, 50, 127
4, 24956, Note_off_c, 2, 50, 100
4, 24960, Note_on_c, 2, 52, 127
4, 25020, Note_off_c, 2, 52, 100
4, 25152, Note_on_c, 2, 49, 127
4, 25212, Note_off_c, 2, 49, 100
4, 25344, Note_on_c, 2, 50, 127
4, 25600, Note_off_c, 2, 50, 100
4, 25728, Note_on_c, 2, 50, 127
4, 25856, Note_off_c, 2, 50, 100
4, 25920, Note_on_c, 2, 66, 127
4, 25980, Note_off_c, 2, 66, 100
4, 26112, Note_on_c, 2, 62, 127
4, 26300, Note_off_c, 2, 62, 100
4, 26304, Note_on_c, 2, 66, 127
4, 26364, Note_off_c, 2, 66, 100
4, 26496, Note_on_c, 2, 62, 127
4, 26684, Note_off_c, 2, 62, 100
4, 26688, Note_on_c, 2, 66, 127
4, 26748, Note_off_c, 2, 66, 100
4, 26880, Note_on_c, 2, 67, 127
4, 27068, Note_off_c, 2, 67, 100
4, 27072, Note_on_c, 2, 62, 127
4, 27132, Note_off_c, 2, 62, 100
4, 27264, Note_on_c, 2, 62, 127
4, 27392, Note_off_c, 2, 62, 100
4, 27456, Note_on_c, 2, 67, 127
4, 27516, Note_off_c, 2, 67, 100
4, 27648, Note_on_c, 2, 64, 127
4, 27836, Note_off_c, 2, 64, 100
4, 28416, Note_on_c, 2, 66, 127
4, 28796, Note_off_c, 2, 66, 100
4, 28800, Note_on_c, 2, 63, 127
4, 28928, Note_off_c, 2, 63, 100
4, 29184, Note_on_c, 2, 67, 127
4, 29440, Note_off_c, 2, 67, 100
4, 29568, Note_on_c, 2, 67, 127
4, 29824, Note_off_c, 2, 67, 100
4, 29952, Note_on_c, 2, 66, 127
4, 30140, Note_off_c, 2, 66, 100
4, 30144, Note_on_c, 2, 67, 127
4, 30332, Note_off_c, 2, 67, 100
4, 30336, Note_on_c, 2, 66, 127
4, 30464, Note_off_c, 2, 66, 100
4, 30528, Note_on_c, 2, 64, 127
4, 30588, Note_off_c, 2, 64, 100
4, 30720, Note_on_c, 2, 63, 127
4, 30908, Note_off_c, 2, 63, 100
4, 30912, Note_on_c, 2, 64, 127
4, 31004, Note_off_c, 2, 64, 100
4, 31008, Note_on_c, 2, 66, 127
4, 31100, Note_off_c, 2, 66, 100
4, 31104, Note_on_c, 2, 59, 127
4, 31676, Note_off_c, 2, 59, 100
4, 31680, Note_on_c, 2, 57, 127
4, 31772, Note_off_c, 2, 57, 100
4, 31776, Note_on_c, 2, 59, 127
4, 31868, Note_off_c, 2, 59, 100
4, 31872, Note_on_c, 2, 55, 127
4, 32000, Note_off_c, 2, 55, 100
4, 32064, Note_on_c, 2, 57, 127
4, 32156, Note_off_c, 2, 57, 100
4, 32160, Note_on_c, 2, 59, 127
4, 32224, Note_off_c, 2, 59, 100
4, 32256, Note_on_c, 2, 60, 127
4, 32444, Note_off_c, 2, 60, 100
4, 32448, Note_on_c, 2, 62, 127
4, 32636, Note_off_c, 2, 62, 100
4, 32640, Note_on_c, 2, 64, 127
4, 32700, Note_off_c, 2, 64, 100
4, 32832, Note_on_c, 2, 66, 127
4, 32892, Note_off_c, 2, 66, 100
4, 33024, Note_on_c, 2, 67, 127
4, 33212, Note_off_c, 2, 67, 100
4, 33216, Note_on_c, 2, 66, 127
4, 33308, Note_off_c, 2, 66, 100
4, 33312, Note_on_c, 2, 64, 127
4, 33404, Note_off_c, 2, 64, 100
4, 33408, Note_on_c, 2, 62, 127
4, 33536, Note_off_c, 2, 62, 100
4, 33984, Note_on_c, 2, 69, 127
4, 34172, Note_off_c, 2, 69, 100
4, 34176, Note_on_c, 2, 64, 127
4, 34236, Note_off_c, 2, 64, 100
4, 34368, Note_on_c, 2, 62, 127
4, 34460, Note_off_c, 2, 62, 100
4, 34464, Note_on_c, 2, 64, 127
4, 34556, Note_off_c, 2, 64, 100
4, 34560, Note_on_c, 2, 66, 127
4, 34748, Note_off_c, 2, 66, 100
4, 34752, Note_on_c, 2, 67, 127
4, 35072, Note_off_c, 2, 67, 100
4, 35136, Note_on_c, 2, 66, 127
4, 35196, Note_off_c, 2, 66, 100
4, 35328, Note_on_c, 2, 62, 127
4, 35584, Note_off_c, 2, 62, 100
4, 35712, Note_on_c, 2, 62, 127
4, 35968, Note_off_c, 2, 62, 100
4, 36096, Note_on_c, 2, 64, 127
4, 36352, Note_off_c, 2, 64, 100
4, 36480, Note_on_c, 2, 64, 127
4, 36736, Note_off_c, 2, 64, 100
4, 36864, Note_on_c, 2, 62, 127
4, 37052, Note_off_c, 2, 62, 100
4, 37056, Note_on_c, 2, 64, 127
4, 37244, Note_off_c, 2, 64, 100
4, 37248, Note_on_c, 2, 62, 127
4, 37308, Note_off_c, 2, 62, 100
4, 37440, Note_on_c, 2, 60, 127
4, 37500, Note_off_c, 2, 60, 100
4, 37632, Note_on_c, 2, 59, 127
4, 37820, Note_off_c, 2, 59, 100
4, 37824, Note_on_c, 2, 57, 127
4, 38012, Note_off_c, 2, 57, 100
4, 38016, Note_on_c, 2, 55, 127
4, 38144, Note_off_c, 2, 55, 100
4, 38208, Note_on_c, 2, 66, 127
4, 38268, Note_off_c, 2, 66, 100
4, 38400, Note_on_c, 2, 62, 127
4, 38588, Note_off_c, 2, 62, 100
4, 38592, Note_on_c, 2, 66, 127
4, 38652, Note_off_c, 2, 66, 100
4, 38784, Note_on_c, 2, 62, 127
4, 38972, Note_off_c, 2, 62, 100
4, 38976, Note_on_c, 2, 66, 127
4, 39036, Note_off_c, 2, 66, 100
4, 39168, Note_on_c, 2, 67, 127
4, 39356, Note_off_c, 2, 67, 100
4, 39360, Note_on_c, 2, 62, 127
4, 39420, Note_off_c, 2, 62, 100
4, 39552, Note_on_c, 2, 62, 127
4, 39680, Note_off_c, 2, 62, 100
4, 39744, Note_on_c, 2, 67, 127
4, 39804, Note_off_c, 2, 67, 100
4, 39936, Note_on_c, 2, 64, 127
4, 40124, Note_off_c, 2, 64, 100
4, 40704, Note_on_c, 2, 66, 127
4, 41084, Note_off_c, 2, 66, 100
4, 41088, Note_on_c, 2, 63, 127
4, 41216, Note_off_c, 2, 63, 100
4, 41472, Note_on_c, 2, 67, 127
4, 41728, Note_off_c, 2, 67, 100
4, 41856, Note_on_c, 2, 67, 127
4, 42112, Note_off_c, 2, 67, 100
4, 42240, Note_on_c, 2, 66, 127
4, 42428, Note_off_c, 2, 66, 100
4, 42432, Note_on_c, 2, 67, 127
4, 42620, Note_off_c, 2, 67, 100
4, 42624, Note_on_c, 2, 66, 127
4, 42752, Note_off_c, 2, 66, 100
4, 42816, Note_on_c, 2, 64, 127
4, 42876, Note_off_c, 2, 64, 100
4, 43008, Note_on_c, 2, 63, 127
4, 43196, Note_off_c, 2, 63, 100
4, 43200, Note_on_c, 2, 64, 127
4, 43292, Note_off_c, 2, 64, 100
4, 43296, Note_on_c, 2, 66, 127
4, 43388, Note_off_c, 2, 66, 100
4, 43392, Note_on_c, 2, 59, 127
4, 43964, Note_off_c, 2, 59, 100
4, 43968, Note_on_c, 2, 57, 127
4, 44060, Note_off_c, 2, 57, 100
4, 44064, Note_on_c, 2, 59, 127
4, 44156, Note_off_c, 2, 59, 100
4, 44160, Note_on_c, 2, 55, 127
4, 44288, Note_off_c, 2, 55, 100
4, 44352, Note_on_c, 2, 57, 127
4, 44444, Note_off_c, 2, 57, 100
4, 44448, Note_on_c, 2, 59, 127
4, 44512, Note_off_c, 2, 59, 100
4, 44544, Note_on_c, 2, 60, 127
4, 44732, Note_off_c, 2, 60, 100
4, 44736, Note_on_c, 2, 62, 127
4, 44924, Note_off_c, 2, 62, 100
4, 44928, Note_on_c, 2, 64, 127
4, 44988, Note_off_c, 2, 64, 100
4, 45120, Note_on_c, 2, 66, 127
4, 45180, Note_off_c, 2, 66, 100
4, 45312, Note_on_c, 2, 67, 127
4, 45500, Note_off_c, 2, 67, 100
4, 45504, Note_on_c, 2, 66, 127
4, 45596, Note_off_c, 2, 66, 100
4, 45600, Note_on_c, 2, 64, 127
4, 45692, Note_off_c, 2, 64, 100
4, 45696, Note_on_c, 2, 62, 127
4, 45824, Note_off_c, 2, 62, 100
4, 46272, Note_on_c, 2, 69, 127
4, 46460, Note_off_c, 2, 69, 100
4, 46464, Note_on_c, 2, 64, 127
4, 46524, Note_off_c, 2, 64, 100
4, 46656, Note_on_c, 2, 62, 127
4, 46748, Note_off_c, 2, 62, 100
4, 46752, Note_on_c, 2, 64, 127
4, 46844, Note_off_c, 2, 64, 100
4, 46848, Note_on_c, 2, 66, 127
4, 47036, Note_off_c, 2, 66, 100
4, 47040, Note_on_c, 2, 67, 127
4, 47360, Note_off_c, 2, 67, 100
4, 47424, Note_on_c, 2, 66, 127
4, 47484, Note_off_c, 2, 66, 100
4, 47616, Note_on_c, 2, 62, 127
4, 47872, Note_off_c, 2, 62, 100
4, 48000, Note_on_c, 2, 62, 127
4, 48256, Note_off_c, 2, 62, 100
4, 48384, Note_on_c, 2, 64, 127
4, 48640, Note_off_c, 2, 64, 100
4, 48768, Note_on_c, 2, 64, 127
4, 49024, Note_off_c, 2, 64, 100
4, 49152, Note_on_c, 2, 62, 127
4, 49340, Note_off_c, 2, 62, 100
4, 49344, Note_on_c, 2, 64, 127
4, 49532, Note_off_c, 2, 64, 100
4, 49536, Note_on_c, 2, 62, 127
4, 49596, Note_off_c, 2, 62, 100
4, 49728, Note_on_c, 2, 60, 127
4, 49788, Note_off_c, 2, 60, 100
4, 49920, Note_on_c, 2, 59, 127
4, 50108, Note_off_c, 2, 59, 100
4, 50112, Note_on_c, 2, 57, 127
4, 50348, Note_off_c, 2, 57, 100
4, 50352, Note_on_c, 2, 55, 127
4, 50632, Note_off_c, 2, 55, 100
4, 50632, End_track
5, 0, Start_track
5, 0, Title_t, "Var.XXX, Quodlibet: Moderato"
5, 0, Control_c, 3, 0, 0
5, 0, Program_c, 3, 6
5, 0, Control_c, 3, 7, 127
5, 0, Control_c, 3, 10, 89
5, 0, Control_c, 3, 91, 124
5, 0, Key_signature, 1, "major"
5, 1536, Note_on_c, 3, 55, 127
5, 2300, Note_off_c, 3, 55, 100
5, 2304, Note_on_c, 3, 54, 127
5, 3068, Note_off_c, 3, 54, 100
5, 3072, Note_on_c, 3, 52, 127
5, 3836, Note_off_c, 3, 52, 100
5, 3840, Note_on_c, 3, 50, 127
5, 4412, Note_off_c, 3, 50, 100
5, 4416, Note_on_c, 3, 48, 127
5, 4604, Note_off_c, 3, 48, 100
5, 4608, Note_on_c, 3, 47, 127
5, 5372, Note_off_c, 3, 47, 100
5, 5376, Note_on_c, 3, 48, 127
5, 6140, Note_off_c, 3, 48, 100
5, 6144, Note_on_c, 3, 50, 127
5, 6908, Note_off_c, 3, 50, 100
5, 6912, Note_on_c, 3, 43, 127
5, 7292, Note_off_c, 3, 43, 100
5, 7488, Note_on_c, 3, 59, 127
5, 7580, Note_off_c, 3, 59, 100
5, 7584, Note_on_c, 3, 57, 127
5, 7676, Note_off_c, 3, 57, 100
5, 7680, Note_on_c, 3, 55, 127
5, 7868, Note_off_c, 3, 55, 100
5, 7872, Note_on_c, 3, 54, 127
5, 7964, Note_off_c, 3, 54, 100
5, 7968, Note_on_c, 3, 55, 127
5, 8060, Note_off_c, 3, 55, 100
5, 8064, Note_on_c, 3, 52, 127
5, 8252, Note_off_c, 3, 52, 100
5, 8256, Note_on_c, 3, 50, 127
5, 8348, Note_off_c, 3, 50, 100
5, 8352, Note_on_c, 3, 52, 127
5, 8444, Note_off_c, 3, 52, 100
5, 8448, Note_on_c, 3, 54, 127
5, 8832, Note_off_c, 3, 54, 100
5, 9024, Note_on_c, 3, 59, 127
5, 9084, Note_off_c, 3, 59, 100
5, 9216, Note_on_c, 3, 52, 127
5, 9600, Note_off_c, 3, 52, 100
5, 9792, Note_on_c, 3, 54, 127
5, 9884, Note_off_c, 3, 54, 100
5, 9888, Note_on_c, 3, 55, 127
5, 9980, Note_off_c, 3, 55, 100
5, 9984, Note_on_c, 3, 57, 127
5, 10364, Note_off_c, 3, 57, 100
5, 10464, Note_on_c, 3, 55, 127
5, 10556, Note_off_c, 3, 55, 100
5, 10560, Note_on_c, 3, 54, 127
5, 10652, Note_off_c, 3, 54, 100
5, 10656, Note_on_c, 3, 52, 127
5, 10748, Note_off_c, 3, 52, 100
5, 10752, Note_on_c, 3, 54, 127
5, 11008, Note_off_c, 3, 54, 100
5, 11136, Note_on_c, 3, 50, 127
5, 11392, Note_off_c, 3, 50, 100
5, 11520, Note_on_c, 3, 55, 127
5, 11776, Note_off_c, 3, 55, 100
5, 11904, Note_on_c, 3, 43, 127
5, 12160, Note_off_c, 3, 43, 100
5, 12288, Note_on_c, 3, 45, 127
5, 13052, Note_off_c, 3, 45, 100
5, 13056, Note_on_c, 3, 38, 127
5, 13436, Note_off_c, 3, 38, 100
5, 13824, Note_on_c, 3, 55, 127
5, 14588, Note_off_c, 3, 55, 100
5, 14592, Note_on_c, 3, 54, 127
5, 15356, Note_off_c, 3, 54, 100
5, 15360, Note_on_c, 3, 52, 127
5, 16124, Note_off_c, 3, 52, 100
5, 16128, Note_on_c, 3, 50, 127
5, 16700, Note_off_c, 3, 50, 100
5, 16704, Note_on_c, 3, 48, 127
5, 16892, Note_off_c, 3, 48, 100
5, 16896, Note_on_c, 3, 47, 127
5, 17660, Note_off_c, 3, 47, 100
5, 17664, Note_on_c, 3, 48, 127
5, 18428, Note_off_c, 3, 48, 100
5, 18432, Note_on_c, 3, 50, 127
5, 19196, Note_off_c, 3, 50, 100
5, 19200, Note_on_c, 3, 43, 127
5, 19580, Note_off_c, 3, 43, 100
5, 19776, Note_on_c, 3, 59, 127
5, 19868, Note_off_c, 3, 59, 100
5, 19872, Note_on_c, 3, 57, 127
5, 19964, Note_off_c, 3, 57, 100
5, 19968, Note_on_c, 3, 55, 127
5, 20156, Note_off_c, 3, 55, 100
5, 20160, Note_on_c, 3, 54, 127
5, 20252, Note_off_c, 3, 54, 100
5, 20256, Note_on_c, 3, 55, 127
5, 20348, Note_off_c, 3, 55, 100
5, 20352, Note_on_c, 3, 52, 127
5, 20540, Note_off_c, 3, 52, 100
5, 20544, Note_on_c, 3, 50, 127
5, 20636, Note_off_c, 3, 50, 100
5, 20640, Note_on_c, 3, 52, 127
5, 20732, Note_off_c, 3, 52, 100
5, 20736, Note_on_c, 3, 54, 127
5, 21120, Note_off_c, 3, 54, 100
5, 21312, Note_on_c, 3, 59, 127
5, 21372, Note_off_c, 3, 59, 100
5, 21504, Note_on_c, 3, 52, 127
5, 21888, Note_off_c, 3, 52, 100
5, 22080, Note_on_c, 3, 54, 127
5, 22172, Note_off_c, 3, 54, 100
5, 22176, Note_on_c, 3, 55, 127
5, 22268, Note_off_c, 3, 55, 100
5, 22272, Note_on_c, 3, 57, 127
5, 22652, Note_off_c, 3, 57, 100
5, 22752, Note_on_c, 3, 55, 127
5, 22844, Note_off_c, 3, 55, 100
5, 22848, Note_on_c, 3, 54, 127
5, 22940, Note_off_c, 3, 54, 100
5, 22944, Note_on_c, 3, 52, 127
5, 23036, Note_off_c, 3, 52, 100
5, 23040, Note_on_c, 3, 54, 127
5, 23296, Note_off_c, 3, 54, 100
5, 23424, Note_on_c, 3, 50, 127
5, 23680, Note_off_c, 3, 50, 100
5, 23808, Note_on_c, 3, 55, 127
5, 24064, Note_off_c, 3, 55, 100
5, 24192, Note_on_c, 3, 43, 127
5, 24448, Note_off_c, 3, 43, 100
5, 24576, Note_on_c, 3, 45, 127
5, 25340, Note_off_c, 3, 45, 100
5, 25344, Note_on_c, 3, 38, 127
5, 25724, Note_off_c, 3, 38, 100
5, 26112, Note_on_c, 3, 62, 127
5, 26492, Note_off_c, 3, 62, 100
5, 26496, Note_on_c, 3, 60, 127
5, 26876, Note_off_c, 3, 60, 100
5, 26880, Note_on_c, 3, 59, 127
5, 27260, Note_off_c, 3, 59, 100
5, 27264, Note_on_c, 3, 55, 127
5, 27520, Note_off_c, 3, 55, 100
5, 27648, Note_on_c, 3, 60, 127
5, 27836, Note_off_c, 3, 60, 100
5, 27840, Note_on_c, 3, 59, 127
5, 28028, Note_off_c, 3, 59, 100
5, 28032, Note_on_c, 3, 60, 127
5, 28092, Note_off_c, 3, 60, 100
5, 28224, Note_on_c, 3, 57, 127
5, 28284, Note_off_c, 3, 57, 100
5, 28416, Note_on_c, 3, 59, 127
5, 28800, Note_off_c, 3, 59, 100
5, 28992, Note_on_c, 3, 57, 127
5, 29052, Note_off_c, 3, 57, 100
5, 29184, Note_on_c, 3, 55, 127
5, 29372, Note_off_c, 3, 55, 100
5, 29376, Note_on_c, 3, 64, 127
5, 29436, Note_off_c, 3, 64, 100
5, 29568, Note_on_c, 3, 55, 127
5, 29756, Note_off_c, 3, 55, 100
5, 29760, Note_on_c, 3, 64, 127
5, 29820, Note_off_c, 3, 64, 100
5, 29952, Note_on_c, 3, 57, 127
5, 30336, Note_off_c, 3, 57, 100
5, 30528, Note_on_c, 3, 58, 127
5, 30588, Note_off_c, 3, 58, 100
5, 30720, Note_on_c, 3, 59, 127
5, 30976, Note_off_c, 3, 59, 100
5, 31104, Note_on_c, 3, 47, 127
5, 31360, Note_off_c, 3, 47, 100
5, 31488, Note_on_c, 3, 52, 127
5, 32060, Note_off_c, 3, 52, 100
5, 32064, Note_on_c, 3, 50, 127
5, 32124, Note_off_c, 3, 50, 100
5, 32256, Note_on_c, 3, 48, 127
5, 32512, Note_off_c, 3, 48, 100
5, 32640, Note_on_c, 3, 60, 127
5, 33020, Note_off_c, 3, 60, 100
5, 33024, Note_on_c, 3, 59, 127
5, 33496, Note_off_c, 3, 59, 100
5, 33600, Note_on_c, 3, 60, 127
5, 33692, Note_off_c, 3, 60, 100
5, 33696, Note_on_c, 3, 59, 127
5, 33788, Note_off_c, 3, 59, 100
5, 33792, Note_on_c, 3, 57, 127
5, 34268, Note_off_c, 3, 57, 100
5, 34368, Note_on_c, 3, 59, 127
5, 34460, Note_off_c, 3, 59, 100
5, 34464, Note_on_c, 3, 60, 127
5, 34556, Note_off_c, 3, 60, 100
5, 34560, Note_on_c, 3, 62, 127
5, 35036, Note_off_c, 3, 62, 100
5, 35136, Note_on_c, 3, 60, 127
5, 35228, Note_off_c, 3, 60, 100
5, 35232, Note_on_c, 3, 62, 127
5, 35296, Note_off_c, 3, 62, 100
5, 35328, Note_on_c, 3, 55, 127
5, 35516, Note_off_c, 3, 55, 100
5, 35520, Note_on_c, 3, 57, 127
5, 35708, Note_off_c, 3, 57, 100
5, 35712, Note_on_c, 3, 59, 127
5, 35772, Note_off_c, 3, 59, 100
5, 35904, Note_on_c, 3, 55, 127
5, 35964, Note_off_c, 3, 55, 100
5, 36096, Note_on_c, 3, 60, 127
5, 36480, Note_off_c, 3, 60, 100
5, 36672, Note_on_c, 3, 61, 127
5, 36732, Note_off_c, 3, 61, 100
5, 36864, Note_on_c, 3, 62, 127
5, 37120, Note_off_c, 3, 62, 100
5, 37248, Note_on_c, 3, 50, 127
5, 37504, Note_off_c, 3, 50, 100
5, 37632, Note_on_c, 3, 55, 127
5, 37888, Note_off_c, 3, 55, 100
5, 38016, Note_on_c, 3, 43, 127
5, 38144, Note_off_c, 3, 43, 100
5, 38400, Note_on_c, 3, 62, 127
5, 38780, Note_off_c, 3, 62, 100
5, 38784, Note_on_c, 3, 60, 127
5, 39164, Note_off_c, 3, 60, 100
5, 39168, Note_on_c, 3, 59, 127
5, 39548, Note_off_c, 3, 59, 100
5, 39552, Note_on_c, 3, 55, 127
5, 39808, Note_off_c, 3, 55, 100
5, 39936, Note_on_c, 3, 60, 127
5, 40124, Note_off_c, 3, 60, 100
5, 40128, Note_on_c, 3, 59, 127
5, 40316, Note_off_c, 3, 59, 100
5, 40320, Note_on_c, 3, 60, 127
5, 40380, Note_off_c, 3, 60, 100
5, 40512, Note_on_c, 3, 57, 127
5, 40572, Note_off_c, 3, 57, 100
5, 40704, Note_on_c, 3, 59, 127
5, 41088, Note_off_c, 3, 59, 100
5, 41280, Note_on_c, 3, 57, 127
5, 41340, Note_off_c, 3, 57, 100
5, 41472, Note_on_c, 3, 55, 127
5, 41660, Note_off_c, 3, 55, 100
5, 41664, Note_on_c, 3, 64, 127
5, 41724, Note_off_c, 3, 64, 100
5, 41856, Note_on_c, 3, 55, 127
5, 42044, Note_off_c, 3, 55, 100
5, 42048, Note_on_c, 3, 64, 127
5, 42108, Note_off_c, 3, 64, 100
5, 42240, Note_on_c, 3, 57, 127
5, 42624, Note_off_c, 3, 57, 100
5, 42816, Note_on_c, 3, 58, 127
5, 42876, Note_off_c, 3, 58, 100
5, 43008, Note_on_c, 3, 59, 127
5, 43264, Note_off_c, 3, 59, 100
5, 43392, Note_on_c, 3, 47, 127
5, 43648, Note_off_c, 3, 47, 100
5, 43776, Note_on_c, 3, 52, 127
5, 44288, Note_off_c, 3, 52, 100
5, 44352, Note_on_c, 3, 50, 127
5, 44412, Note_off_c, 3, 50, 100
5, 44544, Note_on_c, 3, 48, 127
5, 44800, Note_off_c, 3, 48, 100
5, 44928, Note_on_c, 3, 60, 127
5, 45308, Note_off_c, 3, 60, 100
5, 45312, Note_on_c, 3, 59, 127
5, 45788, Note_off_c, 3, 59, 100
5, 45888, Note_on_c, 3, 60, 127
5, 45980, Note_off_c, 3, 60, 100
5, 45984, Note_on_c, 3, 59, 127
5, 46076, Note_off_c, 3, 59, 100
5, 46080, Note_on_c, 3, 57, 127
5, 46556, Note_off_c, 3, 57, 100
5, 46656, Note_on_c, 3, 59, 127
5, 46748, Note_off_c, 3, 59, 100
5, 46752, Note_on_c, 3, 60, 127
5, 46844, Note_off_c, 3, 60, 100
5, 46848, Note_on_c, 3, 62, 127
5, 47360, Note_off_c, 3, 62, 100
5, 47424, Note_on_c, 3, 60, 127
5, 47516, Note_off_c, 3, 60, 100
5, 47520, Note_on_c, 3, 62, 127
5, 47584, Note_off_c, 3, 62, 100
5, 47616, Note_on_c, 3, 55, 127
5, 47804, Note_off_c, 3, 55, 100
5, 47808, Note_on_c, 3, 57, 127
5, 47996, Note_off_c, 3, 57, 100
5, 48000, Note_on_c, 3, 59, 127
5, 48060, Note_off_c, 3, 59, 100
5, 48192, Note_on_c, 3, 55, 127
5, 48252, Note_off_c, 3, 55, 100
5, 48384, Note_on_c, 3, 60, 127
5, 48768, Note_off_c, 3, 60, 100
5, 48960, Note_on_c, 3, 61, 127
5, 49020, Note_off_c, 3, 61, 100
5, 49152, Note_on_c, 3, 62, 127
5, 49408, Note_off_c, 3, 62, 100
5, 49536, Note_on_c, 3, 50, 127
5, 49792, Note_off_c, 3, 50, 100
5, 49920, Note_on_c, 3, 55, 127
5, 50288, Note_off_c, 3, 55, 100
5, 50352, Note_on_c, 3, 43, 127
5, 50352, Note_on_c, 3, 43, 1
5, 50632, Note_off_c, 3, 43, 100
5, 50824, Note_off_c, 3, 43, 64
5, 50824, End_track
6, 0, Start_track
6, 0, Title_t, "Bruno de Giusti"
6, 0, Control_c, 4, 0, 0
6, 0, Program_c, 4, 6
6, 0, Control_c, 4, 7, 125
6, 0, Control_c, 4, 10, 127
6, 0, Control_c, 4, 91, 127
6, 0, Key_signature, 1, "major"
6, 2880, Note_on_c, 4, 74, 127
6, 2940, Note_off_c, 4, 74, 100
6, 3072, Note_on_c, 4, 79, 127
6, 3260, Note_off_c, 4, 79, 100
6, 3264, Note_on_c, 4, 81, 127
6, 3452, Note_off_c, 4, 81, 100
6, 3456, Note_on_c, 4, 83, 127
6, 3516, Note_off_c, 4, 83, 100
6, 3648, Note_on_c, 4, 84, 127
6, 3708, Note_off_c, 4, 84, 100
6, 3840, Note_on_c, 4, 86, 127
6, 4028, Note_off_c, 4, 86, 100
6, 4032, Note_on_c, 4, 84, 127
6, 4124, Note_off_c, 4, 84, 100
6, 4128, Note_on_c, 4, 83, 127
6, 4220, Note_off_c, 4, 83, 100
6, 4224, Note_on_c, 4, 81, 127
6, 4412, Note_off_c, 4, 81, 100
6, 4608, Note_on_c, 4, 86, 127
6, 4864, Note_off_c, 4, 86, 100
6, 4992, Note_on_c, 4, 86, 127
6, 5248, Note_off_c, 4, 86, 100
6, 5376, Note_on_c, 4, 88, 127
6, 5632, Note_off_c, 4, 88, 100
6, 5760, Note_on_c, 4, 88, 127
6, 6016, Note_off_c, 4, 88, 100
6, 6144, Note_on_c, 4, 86, 127
6, 6332, Note_off_c, 4, 86, 100
6, 6336, Note_on_c, 4, 88, 127
6, 6524, Note_off_c, 4, 88, 100
6, 6528, Note_on_c, 4, 86, 127
6, 6588, Note_off_c, 4, 86, 100
6, 6720, Note_on_c, 4, 84, 127
6, 6780, Note_off_c, 4, 84, 100
6, 6912, Note_on_c, 4, 84, 127
6, 6940, Note_off_c, 4, 84, 100
6, 6944, Note_on_c, 4, 83, 127
6, 6972, Note_off_c, 4, 83, 100
6, 6976, Note_on_c, 4, 84, 127
6, 7004, Note_off_c, 4, 84, 100
6, 7008, Note_on_c, 4, 83, 127
6, 7100, Note_off_c, 4, 83, 100
6, 7104, Note_on_c, 4, 81, 127
6, 7292, Note_off_c, 4, 81, 100
6, 7296, Note_on_c, 4, 79, 127
6, 7552, Note_off_c, 4, 79, 100
6, 9024, Note_on_c, 4, 86, 127
6, 9404, Note_off_c, 4, 86, 64
6, 9408, Note_on_c, 4, 84, 127
6, 9468, Note_off_c, 4, 84, 100
6, 9600, Note_on_c, 4, 83, 127
6, 9980, Note_off_c, 4, 83, 100
6, 9984, Note_on_c, 4, 81, 127
6, 10556, Note_off_c, 4, 81, 100
6, 10560, Note_on_c, 4, 83, 127
6, 10652, Note_off_c, 4, 83, 100
6, 10656, Note_on_c, 4, 85, 127
6, 10748, Note_off_c, 4, 85, 100
6, 10752, Note_on_c, 4, 86, 127
6, 10940, Note_off_c, 4, 86, 100
6, 10944, Note_on_c, 4, 88, 127
6, 11132, Note_off_c, 4, 88, 100
6, 11136, Note_on_c, 4, 90, 127
6, 11196, Note_off_c, 4, 90, 100
6, 11328, Note_on_c, 4, 86, 127
6, 11388, Note_off_c, 4, 86, 100
6, 11520, Note_on_c, 4, 83, 127
6, 11708, Note_off_c, 4, 83, 100
6, 11712, Note_on_c, 4, 86, 127
6, 11900, Note_off_c, 4, 86, 100
6, 11904, Note_on_c, 4, 91, 127
6, 12032, Note_off_c, 4, 91, 100
6, 12096, Note_on_c, 4, 90, 127
6, 12156, Note_off_c, 4, 90, 100
6, 12288, Note_on_c, 4, 88, 127
6, 12572, Note_off_c, 4, 88, 100
6, 12576, Note_on_c, 4, 86, 127
6, 12764, Note_off_c, 4, 86, 100
6, 12768, Note_on_c, 4, 85, 127
6, 12860, Note_off_c, 4, 85, 100
6, 12864, Note_on_c, 4, 88, 127
6, 13148, Note_off_c, 4, 88, 100
6, 13152, Note_on_c, 4, 86, 127
6, 13340, Note_off_c, 4, 86, 100
6, 13344, Note_on_c, 4, 85, 127
6, 13436, Note_off_c, 4, 85, 100
6, 13440, Note_on_c, 4, 86, 127
6, 13568, Note_off_c, 4, 86, 100
6, 38400, Note_on_c, 4, 81, 127
6, 38656, Note_off_c, 4, 81, 100
6, 38784, Note_on_c, 4, 81, 127
6, 39040, Note_off_c, 4, 81, 100
6, 39168, Note_on_c, 4, 83, 127
6, 39424, Note_off_c, 4, 83, 100
6, 39552, Note_on_c, 4, 83, 127
6, 39808, Note_off_c, 4, 83, 100
6, 39936, Note_on_c, 4, 81, 127
6, 40124, Note_off_c, 4, 81, 100
6, 40128, Note_on_c, 4, 83, 127
6, 40316, Note_off_c, 4, 83, 100
6, 40320, Note_on_c, 4, 81, 127
6, 40380, Note_off_c, 4, 81, 100
6, 40512, Note_on_c, 4, 79, 127
6, 40572, Note_off_c, 4, 79, 100
6, 40704, Note_on_c, 4, 79, 127
6, 40724, Note_off_c, 4, 79, 100
6, 40728, Note_on_c, 4, 78, 127
6, 40748, Note_off_c, 4, 78, 100
6, 40752, Note_on_c, 4, 79, 127
6, 40772, Note_off_c, 4, 79, 100
6, 40776, Note_on_c, 4, 78, 127
6, 40892, Note_off_c, 4, 78, 100
6, 40896, Note_on_c, 4, 76, 127
6, 41084, Note_off_c, 4, 76, 100
6, 41088, Note_on_c, 4, 78, 127
6, 41344, Note_off_c, 4, 78, 100
6, 41472, Note_on_c, 4, 83, 127
6, 41728, Note_off_c, 4, 83, 100
6, 41856, Note_on_c, 4, 83, 127
6, 42112, Note_off_c, 4, 83, 100
6, 42240, Note_on_c, 4, 84, 127
6, 42496, Note_off_c, 4, 84, 100
6, 42624, Note_on_c, 4, 84, 127
6, 42880, Note_off_c, 4, 84, 100
6, 43008, Note_on_c, 4, 83, 127
6, 43196, Note_off_c, 4, 83, 100
6, 43200, Note_on_c, 4, 84, 127
6, 43388, Note_off_c, 4, 84, 100
6, 43392, Note_on_c, 4, 83, 127
6, 43452, Note_off_c, 4, 83, 100
6, 43584, Note_on_c, 4, 81, 127
6, 43644, Note_off_c, 4, 81, 100
6, 43776, Note_on_c, 4, 79, 127
6, 43964, Note_off_c, 4, 79, 100
6, 43968, Note_on_c, 4, 78, 127
6, 44060, Note_off_c, 4, 78, 100
6, 44064, Note_on_c, 4, 79, 127
6, 44156, Note_off_c, 4, 79, 100
6, 44160, Note_on_c, 4, 76, 127
6, 44288, Note_off_c, 4, 76, 100
6, 45312, Note_on_c, 4, 79, 127
6, 45568, Note_off_c, 4, 79, 100
6, 45696, Note_on_c, 4, 79, 127
6, 45952, Note_off_c, 4, 79, 100
6, 46080, Note_on_c, 4, 84, 127
6, 46364, Note_off_c, 4, 84, 100
6, 46368, Note_on_c, 4, 86, 127
6, 46460, Note_off_c, 4, 86, 100
6, 46464, Note_on_c, 4, 84, 127
6, 46524, Note_off_c, 4, 84, 100
6, 46656, Note_on_c, 4, 83, 127
6, 46716, Note_off_c, 4, 83, 100
6, 46848, Note_on_c, 4, 81, 127
6, 47036, Note_off_c, 4, 81, 100
6, 47040, Note_on_c, 4, 83, 127
6, 47228, Note_off_c, 4, 83, 100
6, 47232, Note_on_c, 4, 84, 127
6, 47360, Note_off_c, 4, 84, 100
6, 47424, Note_on_c, 4, 86, 127
6, 47484, Note_off_c, 4, 86, 100
6, 47616, Note_on_c, 4, 83, 127
6, 47804, Note_off_c, 4, 83, 100
6, 47808, Note_on_c, 4, 81, 127
6, 47900, Note_off_c, 4, 81, 100
6, 47904, Note_on_c, 4, 83, 127
6, 47996, Note_off_c, 4, 83, 100
6, 48000, Note_on_c, 4, 79, 127
6, 48060, Note_off_c, 4, 79, 100
6, 48576, Note_on_c, 4, 88, 127
6, 48668, Note_off_c, 4, 88, 100
6, 48672, Note_on_c, 4, 86, 127
6, 48764, Note_off_c, 4, 86, 100
6, 48768, Note_on_c, 4, 84, 127
6, 48896, Note_off_c, 4, 84, 100
6, 48960, Note_on_c, 4, 88, 127
6, 49020, Note_off_c, 4, 88, 100
6, 49152, Note_on_c, 4, 81, 127
6, 49216, Note_off_c, 4, 81, 100
6, 49248, Note_on_c, 4, 86, 127
6, 49340, Note_off_c, 4, 86, 100
6, 49344, Note_on_c, 4, 84, 127
6, 49436, Note_off_c, 4, 84, 100
6, 49440, Note_on_c, 4, 83, 127
6, 49504, Note_off_c, 4, 83, 100
6, 49536, Note_on_c, 4, 84, 127
6, 49628, Note_off_c, 4, 84, 100
6, 49632, Note_on_c, 4, 81, 127
6, 49696, Note_off_c, 4, 81, 100
6, 49728, Note_on_c, 4, 86, 127
6, 49984, Note_off_c, 4, 86, 100
6, 50112, Note_on_c, 4, 84, 127
6, 50204, Note_off_c, 4, 84, 100
6, 50208, Note_on_c, 4, 86, 127
6, 50304, Note_off_c, 4, 86, 100
6, 50352, Note_on_c, 4, 83, 127
6, 50632, Note_off_c, 4, 83, 100
6, 50632, End_track
7, 0, Start_track
7, 0, Title_t, "bdg@bruno-de-giusti.net"
7, 0, Control_c, 5, 0, 0
7, 0, Program_c, 5, 6
7, 0, Control_c, 5, 7, 127
7, 0, Control_c, 5, 10, 87
7, 0, Control_c, 5, 91, 127
7, 0, Key_signature, 1, "major"
7, 3072, Note_on_c, 5, 79, 127
7, 3328, Note_off_c, 5, 79, 100
7, 3456, Note_on_c, 5, 79, 127
7, 3712, Note_off_c, 5, 79, 100
7, 3840, Note_on_c, 5, 81, 127
7, 4096, Note_off_c, 5, 81, 100
7, 4224, Note_on_c, 5, 81, 127
7, 4480, Note_off_c, 5, 81, 100
7, 4608, Note_on_c, 5, 79, 127
7, 4796, Note_off_c, 5, 79, 100
7, 4800, Note_on_c, 5, 81, 127
7, 4988, Note_off_c, 5, 81, 100
7, 4992, Note_on_c, 5, 79, 127
7, 5052, Note_off_c, 5, 79, 100
7, 5184, Note_on_c, 5, 77, 127
7, 5244, Note_off_c, 5, 77, 100
7, 5376, Note_on_c, 5, 76, 127
7, 5564, Note_off_c, 5, 76, 100
7, 5568, Note_on_c, 5, 74, 127
7, 5756, Note_off_c, 5, 74, 100
7, 5760, Note_on_c, 5, 72, 127
7, 5888, Note_off_c, 5, 72, 100
7, 5952, Note_on_c, 5, 83, 127
7, 6012, Note_off_c, 5, 83, 100
7, 6144, Note_on_c, 5, 81, 127
7, 6332, Note_off_c, 5, 81, 100
7, 6336, Note_on_c, 5, 79, 127
7, 6524, Note_off_c, 5, 79, 100
7, 6528, Note_on_c, 5, 81, 127
7, 6588, Note_off_c, 5, 81, 100
7, 6720, Note_on_c, 5, 78, 127
7, 6780, Note_off_c, 5, 78, 100
7, 6912, Note_on_c, 5, 79, 127
7, 7168, Note_off_c, 5, 79, 100
7, 7296, Note_on_c, 5, 79, 127
7, 7424, Note_off_c, 5, 79, 100
7, 7488, Note_on_c, 5, 74, 127
7, 7548, Note_off_c, 5, 74, 100
7, 7680, Note_on_c, 5, 79, 127
7, 7868, Note_off_c, 5, 79, 100
7, 7872, Note_on_c, 5, 81, 127
7, 8060, Note_off_c, 5, 81, 100
7, 8064, Note_on_c, 5, 83, 127
7, 8124, Note_off_c, 5, 83, 100
7, 8256, Note_on_c, 5, 84, 127
7, 8316, Note_off_c, 5, 84, 100
7, 8448, Note_on_c, 5, 86, 127
7, 8636, Note_off_c, 5, 86, 100
7, 8640, Note_on_c, 5, 84, 127
7, 8732, Note_off_c, 5, 84, 100
7, 8736, Note_on_c, 5, 83, 127
7, 8828, Note_off_c, 5, 83, 100
7, 8832, Note_on_c, 5, 81, 127
7, 8960, Note_off_c, 5, 81, 100
7, 9024, Note_on_c, 5, 86, 127
7, 9084, Note_off_c, 5, 86, 100
7, 9216, Note_on_c, 5, 91, 127
7, 9404, Note_off_c, 5, 91, 100
7, 9408, Note_on_c, 5, 90, 127
7, 9596, Note_off_c, 5, 90, 100
7, 9600, Note_on_c, 5, 88, 127
7, 9660, Note_off_c, 5, 88, 100
7, 9792, Note_on_c, 5, 86, 127
7, 9852, Note_off_c, 5, 86, 100
7, 9984, Note_on_c, 5, 86, 127
7, 10012, Note_off_c, 5, 86, 100
7, 10016, Note_on_c, 5, 85, 127
7, 10044, Note_off_c, 5, 85, 100
7, 10048, Note_on_c, 5, 86, 127
7, 10076, Note_off_c, 5, 86, 100
7, 10080, Note_on_c, 5, 85, 127
7, 10172, Note_off_c, 5, 85, 100
7, 10176, Note_on_c, 5, 83, 127
7, 10268, Note_off_c, 5, 83, 100
7, 10272, Note_on_c, 5, 85, 127
7, 10364, Note_off_c, 5, 85, 100
7, 10368, Note_on_c, 5, 81, 127
7, 10496, Note_off_c, 5, 81, 100
7, 10752, Note_on_c, 5, 93, 127
7, 11008, Note_off_c, 5, 93, 100
7, 11136, Note_on_c, 5, 93, 127
7, 11392, Note_off_c, 5, 93, 100
7, 11520, Note_on_c, 5, 95, 127
7, 11776, Note_off_c, 5, 95, 100
7, 11904, Note_on_c, 5, 95, 127
7, 12160, Note_off_c, 5, 95, 100
7, 12288, Note_on_c, 5, 93, 127
7, 12476, Note_off_c, 5, 93, 100
7, 12480, Note_on_c, 5, 95, 127
7, 12668, Note_off_c, 5, 95, 100
7, 12672, Note_on_c, 5, 93, 127
7, 12732, Note_off_c, 5, 93, 100
7, 12864, Note_on_c, 5, 91, 127
7, 12924, Note_off_c, 5, 91, 100
7, 13056, Note_on_c, 5, 90, 127
7, 13244, Note_off_c, 5, 90, 100
7, 13248, Note_on_c, 5, 88, 127
7, 13436, Note_off_c, 5, 88, 100
7, 13440, Note_on_c, 5, 86, 127
7, 13568, Note_off_c, 5, 86, 100
7, 38208, Note_on_c, 5, 93, 127
7, 38268, Note_off_c, 5, 93, 100
7, 38400, Note_on_c, 5, 90, 127
7, 38588, Note_off_c, 5, 90, 100
7, 38592, Note_on_c, 5, 93, 127
7, 38652, Note_off_c, 5, 93, 100
7, 38784, Note_on_c, 5, 90, 127
7, 38972, Note_off_c, 5, 90, 100
7, 38976, Note_on_c, 5, 93, 127
7, 39036, Note_off_c, 5, 93, 100
7, 39168, Note_on_c, 5, 86, 127
7, 39356, Note_off_c, 5, 86, 100
7, 39360, Note_on_c, 5, 88, 127
7, 39452, Note_off_c, 5, 88, 100
7, 39456, Note_on_c, 5, 90, 127
7, 39548, Note_off_c, 5, 90, 100
7, 39552, Note_on_c, 5, 91, 127
7, 39680, Note_off_c, 5, 91, 100
7, 39744, Note_on_c, 5, 88, 127
7, 39804, Note_off_c, 5, 88, 100
7, 39936, Note_on_c, 5, 93, 127
7, 40124, Note_off_c, 5, 93, 100
7, 40128, Note_on_c, 5, 91, 127
7, 40316, Note_off_c, 5, 91, 100
7, 40320, Note_on_c, 5, 90, 127
7, 40380, Note_off_c, 5, 90, 100
7, 40512, Note_on_c, 5, 88, 127
7, 40572, Note_off_c, 5, 88, 100
7, 40704, Note_on_c, 5, 88, 127
7, 40724, Note_off_c, 5, 88, 100
7, 40728, Note_on_c, 5, 87, 127
7, 40748, Note_off_c, 5, 87, 100
7, 40752, Note_on_c, 5, 88, 127
7, 40772, Note_off_c, 5, 88, 100
7, 40776, Note_on_c, 5, 87, 127
7, 40892, Note_off_c, 5, 87, 100
7, 40896, Note_on_c, 5, 85, 127
7, 40988, Note_off_c, 5, 85, 100
7, 40992, Note_on_c, 5, 87, 127
7, 41084, Note_off_c, 5, 87, 100
7, 41088, Note_on_c, 5, 83, 127
7, 41216, Note_off_c, 5, 83, 100
7, 41280, Note_on_c, 5, 95, 127
7, 41340, Note_off_c, 5, 95, 100
7, 41472, Note_on_c, 5, 88, 127
7, 41660, Note_off_c, 5, 88, 100
7, 41664, Note_on_c, 5, 95, 127
7, 41724, Note_off_c, 5, 95, 100
7, 41856, Note_on_c, 5, 88, 127
7, 42044, Note_off_c, 5, 88, 100
7, 42048, Note_on_c, 5, 95, 127
7, 42108, Note_off_c, 5, 95, 100
7, 42240, Note_on_c, 5, 87, 127
7, 42332, Note_off_c, 5, 87, 100
7, 42336, Note_on_c, 5, 88, 127
7, 42428, Note_off_c, 5, 88, 100
7, 42432, Note_on_c, 5, 90, 127
7, 42524, Note_off_c, 5, 90, 100
7, 42528, Note_on_c, 5, 91, 127
7, 42620, Note_off_c, 5, 91, 100
7, 42624, Note_on_c, 5, 93, 127
7, 42752, Note_off_c, 5, 93, 100
7, 42816, Note_on_c, 5, 91, 127
7, 42908, Note_off_c, 5, 91, 100
7, 42912, Note_on_c, 5, 90, 127
7, 43004, Note_off_c, 5, 90, 100
7, 43008, Note_on_c, 5, 91, 127
7, 43136, Note_off_c, 5, 91, 100
7, 43200, Note_on_c, 5, 90, 127
7, 43292, Note_off_c, 5, 90, 100
7, 43296, Note_on_c, 5, 88, 127
7, 43388, Note_off_c, 5, 88, 100
7, 43392, Note_on_c, 5, 87, 127
7, 43484, Note_off_c, 5, 87, 100
7, 43488, Note_on_c, 5, 88, 127
7, 43580, Note_off_c, 5, 88, 100
7, 43584, Note_on_c, 5, 90, 127
7, 43676, Note_off_c, 5, 90, 100
7, 43680, Note_on_c, 5, 87, 127
7, 43744, Note_off_c, 5, 87, 100
7, 43776, Note_on_c, 5, 90, 127
7, 43796, Note_off_c, 5, 90, 100
7, 43800, Note_on_c, 5, 88, 127
7, 43820, Note_off_c, 5, 88, 100
7, 43824, Note_on_c, 5, 90, 127
7, 43844, Note_off_c, 5, 90, 100
7, 43848, Note_on_c, 5, 88, 127
7, 44640, Note_on_c, 5, 86, 127
7, 44704, Note_off_c, 5, 86, 100
7, 44708, Note_off_c, 5, 88, 100
7, 44736, Note_on_c, 5, 90, 127
7, 44828, Note_off_c, 5, 90, 100
7, 44832, Note_on_c, 5, 88, 127
7, 44896, Note_off_c, 5, 88, 100
7, 44928, Note_on_c, 5, 91, 127
7, 45020, Note_off_c, 5, 91, 100
7, 45024, Note_on_c, 5, 90, 127
7, 45088, Note_off_c, 5, 90, 100
7, 45120, Note_on_c, 5, 93, 127
7, 45180, Note_off_c, 5, 93, 100
7, 45312, Note_on_c, 5, 86, 127
7, 45696, Note_off_c, 5, 86, 100
7, 45888, Note_on_c, 5, 84, 127
7, 45980, Note_off_c, 5, 84, 100
7, 45984, Note_on_c, 5, 86, 127
7, 46076, Note_off_c, 5, 86, 100
7, 46080, Note_on_c, 5, 88, 127
7, 46208, Note_off_c, 5, 88, 100
7, 46272, Note_on_c, 5, 90, 127
7, 46364, Note_off_c, 5, 90, 100
7, 46368, Note_on_c, 5, 91, 127
7, 46460, Note_off_c, 5, 91, 100
7, 46464, Note_on_c, 5, 93, 127
7, 46524, Note_off_c, 5, 93, 100
7, 46656, Note_on_c, 5, 91, 127
7, 46716, Note_off_c, 5, 91, 100
7, 46848, Note_on_c, 5, 91, 127
7, 46868, Note_off_c, 5, 91, 100
7, 46872, Note_on_c, 5, 90, 127
7, 46892, Note_off_c, 5, 90, 100
7, 46896, Note_on_c, 5, 91, 127
7, 46916, Note_off_c, 5, 91, 100
7, 46920, Note_on_c, 5, 90, 127
7, 46940, Note_off_c, 5, 90, 100
7, 46944, Note_on_c, 5, 88, 127
7, 46988, Note_off_c, 5, 88, 100
7, 46992, Note_on_c, 5, 90, 127
7, 47036, Note_off_c, 5, 90, 100
7, 47040, Note_on_c, 5, 86, 127
7, 47228, Note_off_c, 5, 86, 100
7, 47616, Note_on_c, 5, 95, 127
7, 47804, Note_off_c, 5, 95, 100
7, 47808, Note_on_c, 5, 96, 127
7, 47952, Note_off_c, 5, 96, 100
7, 47952, Note_on_c, 5, 95, 127
7, 47972, Note_off_c, 5, 95, 100
7, 47976, Note_on_c, 5, 96, 127
7, 47996, Note_off_c, 5, 96, 100
7, 48000, Note_on_c, 5, 98, 127
7, 48060, Note_off_c, 5, 98, 100
7, 48192, Note_on_c, 5, 95, 127
7, 48252, Note_off_c, 5, 95, 100
7, 48384, Note_on_c, 5, 96, 127
7, 48572, Note_off_c, 5, 96, 100
7, 48576, Note_on_c, 5, 95, 127
7, 48764, Note_off_c, 5, 95, 100
7, 48768, Note_on_c, 5, 93, 127
7, 48896, Note_off_c, 5, 93, 100
7, 48960, Note_on_c, 5, 91, 127
7, 49020, Note_off_c, 5, 91, 100
7, 49152, Note_on_c, 5, 90, 127
7, 49340, Note_off_c, 5, 90, 100
7, 49344, Note_on_c, 5, 91, 127
7, 49532, Note_off_c, 5, 91, 100
7, 49536, Note_on_c, 5, 93, 127
7, 49596, Note_off_c, 5, 93, 100
7, 49728, Note_on_c, 5, 90, 127
7, 49788, Note_off_c, 5, 90, 100
7, 49920, Note_on_c, 5, 91, 127
7, 50208, Note_off_c, 5, 91, 100
7, 50352, Note_on_c, 5, 91, 127
7, 50632, Note_off_c, 5, 91, 100
7, 50632, End_track
8, 0, Start_track
8, 0, Title_t, "www.bruno-de-giusti.net"
8, 0, Control_c, 6, 0, 0
8, 0, Program_c, 6, 6
8, 0, Control_c, 6, 7, 127
8, 0, Control_c, 6, 10, 39
8, 0, Control_c, 6, 91, 123
8, 0, Key_signature, 1, "major"
8, 1344, Note_on_c, 6, 38, 96
8, 1404, Note_off_c, 6, 38, 100
8, 1536, Note_on_c, 6, 43, 96
8, 1724, Note_off_c, 6, 43, 100
8, 1728, Note_on_c, 6, 45, 96
8, 1916, Note_off_c, 6, 45, 100
8, 1920, Note_on_c, 6, 47, 96
8, 1980, Note_off_c, 6, 47, 100
8, 2112, Note_on_c, 6, 48, 96
8, 2172, Note_off_c, 6, 48, 100
8, 2304, Note_on_c, 6, 50, 96
8, 2492, Note_off_c, 6, 50, 100
8, 2496, Note_on_c, 6, 48, 96
8, 2588, Note_off_c, 6, 48, 100
8, 2592, Note_on_c, 6, 47, 96
8, 2684, Note_off_c, 6, 47, 100
8, 2688, Note_on_c, 6, 45, 96
8, 2876, Note_off_c, 6, 45, 100
8, 2880, Note_on_c, 6, 43, 96
8, 2972, Note_off_c, 6, 43, 100
8, 2976, Note_on_c, 6, 45, 96
8, 3068, Note_off_c, 6, 45, 100
8, 3072, Note_on_c, 6, 47, 96
8, 3132, Note_off_c, 6, 47, 100
8, 3264, Note_on_c, 6, 45, 96
8, 3324, Note_off_c, 6, 45, 100
8, 3456, Note_on_c, 6, 43, 96
8, 3968, Note_off_c, 6, 43, 100
8, 4224, Note_on_c, 6, 43, 96
8, 4252, Note_off_c, 6, 43, 100
8, 4256, Note_on_c, 6, 42, 96
8, 4284, Note_off_c, 6, 42, 100
8, 4288, Note_on_c, 6, 43, 96
8, 4316, Note_off_c, 6, 43, 100
8, 4320, Note_on_c, 6, 42, 96
8, 4412, Note_off_c, 6, 42, 100
8, 4416, Note_on_c, 6, 40, 96
8, 4508, Note_off_c, 6, 40, 100
8, 4512, Note_on_c, 6, 42, 96
8, 4604, Note_off_c, 6, 42, 100
8, 4608, Note_on_c, 6, 43, 96
8, 4988, Note_off_c, 6, 43, 100
8, 6144, Note_on_c, 6, 43, 96
8, 6220, Note_off_c, 6, 43, 100
8, 6224, Note_on_c, 6, 42, 96
8, 6272, Note_off_c, 6, 42, 100
8, 6276, Note_on_c, 6, 43, 96
8, 6312, Note_off_c, 6, 43, 100
8, 6316, Note_on_c, 6, 42, 96
8, 6340, Note_off_c, 6, 42, 100
8, 6344, Note_on_c, 6, 43, 96
8, 6368, Note_off_c, 6, 43, 100
8, 6372, Note_on_c, 6, 42, 96
8, 6396, Note_off_c, 6, 42, 100
8, 6400, Note_on_c, 6, 43, 96
8, 6424, Note_off_c, 6, 43, 100
8, 6428, Note_on_c, 6, 42, 96
8, 6452, Note_off_c, 6, 42, 100
8, 6456, Note_on_c, 6, 43, 96
8, 6480, Note_off_c, 6, 43, 100
8, 6484, Note_on_c, 6, 42, 96
8, 6508, Note_off_c, 6, 42, 100
8, 6512, Note_on_c, 6, 43, 96
8, 6536, Note_off_c, 6, 43, 100
8, 6540, Note_on_c, 6, 42, 96
8, 6564, Note_off_c, 6, 42, 100
8, 6568, Note_on_c, 6, 43, 96
8, 6592, Note_off_c, 6, 43, 100
8, 6596, Note_on_c, 6, 42, 96
8, 6620, Note_off_c, 6, 42, 100
8, 6624, Note_on_c, 6, 40, 96
8, 6668, Note_off_c, 6, 40, 100
8, 6672, Note_on_c, 6, 42, 96
8, 6716, Note_off_c, 6, 42, 100
8, 6720, Note_on_c, 6, 38, 96
8, 7288, Note_off_c, 6, 38, 100
8, 7680, Note_on_c, 6, 55, 96
8, 7936, Note_off_c, 6, 55, 100
8, 8064, Note_on_c, 6, 55, 96
8, 8320, Note_off_c, 6, 55, 100
8, 8448, Note_on_c, 6, 57, 96
8, 8704, Note_off_c, 6, 57, 100
8, 8832, Note_on_c, 6, 57, 96
8, 9088, Note_off_c, 6, 57, 100
8, 9216, Note_on_c, 6, 55, 96
8, 9404, Note_off_c, 6, 55, 100
8, 9408, Note_on_c, 6, 57, 96
8, 9596, Note_off_c, 6, 57, 100
8, 9600, Note_on_c, 6, 55, 96
8, 9660, Note_off_c, 6, 55, 100
8, 9792, Note_on_c, 6, 54, 96
8, 9852, Note_off_c, 6, 54, 100
8, 9984, Note_on_c, 6, 52, 96
8, 10172, Note_off_c, 6, 52, 100
8, 10176, Note_on_c, 6, 50, 96
8, 10364, Note_off_c, 6, 50, 100
8, 10368, Note_on_c, 6, 49, 96
8, 10496, Note_off_c, 6, 49, 100
8, 10752, Note_on_c, 6, 42, 96
8, 10940, Note_off_c, 6, 42, 100
8, 10944, Note_on_c, 6, 43, 96
8, 11132, Note_off_c, 6, 43, 100
8, 11136, Note_on_c, 6, 45, 96
8, 11196, Note_off_c, 6, 45, 100
8, 11328, Note_on_c, 6, 42, 96
8, 11388, Note_off_c, 6, 42, 100
8, 11520, Note_on_c, 6, 43, 96
8, 11708, Note_off_c, 6, 43, 100
8, 11712, Note_on_c, 6, 42, 96
8, 11900, Note_off_c, 6, 42, 100
8, 11904, Note_on_c, 6, 40, 96
8, 12032, Note_off_c, 6, 40, 100
8, 12096, Note_on_c, 6, 38, 96
8, 12156, Note_off_c, 6, 38, 100
8, 12288, Note_on_c, 6, 37, 96
8, 12476, Note_off_c, 6, 37, 100
8, 12480, Note_on_c, 6, 38, 96
8, 12668, Note_off_c, 6, 38, 100
8, 12672, Note_on_c, 6, 40, 96
8, 12732, Note_off_c, 6, 40, 100
8, 12864, Note_on_c, 6, 37, 96
8, 12924, Note_off_c, 6, 37, 100
8, 13056, Note_on_c, 6, 38, 96
8, 13312, Note_off_c, 6, 38, 100
8, 13440, Note_on_c, 6, 38, 96
8, 13568, Note_off_c, 6, 38, 100
8, 38208, Note_on_c, 6, 54, 96
8, 38268, Note_off_c, 6, 54, 100
8, 38400, Note_on_c, 6, 50, 96
8, 38588, Note_off_c, 6, 50, 100
8, 38592, Note_on_c, 6, 54, 96
8, 38652, Note_off_c, 6, 54, 100
8, 38784, Note_on_c, 6, 50, 96
8, 38972, Note_off_c, 6, 50, 100
8, 38976, Note_on_c, 6, 54, 96
8, 39036, Note_off_c, 6, 54, 100
8, 39168, Note_on_c, 6, 55, 96
8, 39356, Note_off_c, 6, 55, 100
8, 39360, Note_on_c, 6, 50, 96
8, 39420, Note_off_c, 6, 50, 100
8, 39552, Note_on_c, 6, 50, 96
8, 39680, Note_off_c, 6, 50, 100
8, 39744, Note_on_c, 6, 55, 96
8, 39804, Note_off_c, 6, 55, 100
8, 39936, Note_on_c, 6, 52, 96
8, 40124, Note_off_c, 6, 52, 100
8, 40704, Note_on_c, 6, 54, 96
8, 41084, Note_off_c, 6, 54, 100
8, 41088, Note_on_c, 6, 51, 96
8, 41216, Note_off_c, 6, 51, 100
8, 41472, Note_on_c, 6, 55, 96
8, 41728, Note_off_c, 6, 55, 100
8, 41856, Note_on_c, 6, 55, 96
8, 42112, Note_off_c, 6, 55, 100
8, 42240, Note_on_c, 6, 54, 96
8, 42428, Note_off_c, 6, 54, 100
8, 42432, Note_on_c, 6, 55, 96
8, 42620, Note_off_c, 6, 55, 100
8, 42624, Note_on_c, 6, 54, 96
8, 42752, Note_off_c, 6, 54, 100
8, 42816, Note_on_c, 6, 52, 96
8, 42876, Note_off_c, 6, 52, 100
8, 43008, Note_on_c, 6, 51, 96
8, 43196, Note_off_c, 6, 51, 100
8, 43200, Note_on_c, 6, 52, 96
8, 43292, Note_off_c, 6, 52, 100
8, 43296, Note_on_c, 6, 54, 96
8, 43388, Note_off_c, 6, 54, 100
8, 43392, Note_on_c, 6, 47, 96
8, 43964, Note_off_c, 6, 47, 100
8, 43968, Note_on_c, 6, 45, 96
8, 44060, Note_off_c, 6, 45, 100
8, 44064, Note_on_c, 6, 47, 96
8, 44156, Note_off_c, 6, 47, 100
8, 44160, Note_on_c, 6, 43, 96
8, 44288, Note_off_c, 6, 43, 100
8, 44352, Note_on_c, 6, 45, 96
8, 44444, Note_off_c, 6, 45, 100
8, 44448, Note_on_c, 6, 47, 96
8, 44512, Note_off_c, 6, 47, 100
8, 44544, Note_on_c, 6, 48, 96
8, 44732, Note_off_c, 6, 48, 100
8, 44736, Note_on_c, 6, 50, 96
8, 44924, Note_off_c, 6, 50, 100
8, 44928, Note_on_c, 6, 52, 96
8, 44988, Note_off_c, 6, 52, 100
8, 45120, Note_on_c, 6, 54, 96
8, 45180, Note_off_c, 6, 54, 100
8, 45312, Note_on_c, 6, 55, 96
8, 45500, Note_off_c, 6, 55, 100
8, 45504, Note_on_c, 6, 54, 96
8, 45596, Note_off_c, 6, 54, 100
8, 45600, Note_on_c, 6, 52, 96
8, 45692, Note_off_c, 6, 52, 100
8, 45696, Note_on_c, 6, 50, 96
8, 45824, Note_off_c, 6, 50, 100
8, 46272, Note_on_c, 6, 57, 96
8, 46460, Note_off_c, 6, 57, 100
8, 46464, Note_on_c, 6, 52, 96
8, 46524, Note_off_c, 6, 52, 100
8, 46656, Note_on_c, 6, 50, 96
8, 46748, Note_off_c, 6, 50, 100
8, 46752, Note_on_c, 6, 52, 96
8, 46844, Note_off_c, 6, 52, 100
8, 46848, Note_on_c, 6, 54, 96
8, 47036, Note_off_c, 6, 54, 100
8, 47040, Note_on_c, 6, 55, 96
8, 47360, Note_off_c, 6, 55, 100
8, 47424, Note_on_c, 6, 54, 96
8, 47484, Note_off_c, 6, 54, 100
8, 47616, Note_on_c, 6, 50, 96
8, 47872, Note_off_c, 6, 50, 100
8, 48000, Note_on_c, 6, 50, 96
8, 48256, Note_off_c, 6, 50, 100
8, 48384, Note_on_c, 6, 52, 96
8, 48640, Note_off_c, 6, 52, 100
8, 48768, Note_on_c, 6, 52, 96
8, 49024, Note_off_c, 6, 52, 100
8, 49152, Note_on_c, 6, 50, 127
8, 49340, Note_off_c, 6, 50, 100
8, 49344, Note_on_c, 6, 52, 127
8, 49532, Note_off_c, 6, 52, 100
8, 49536, Note_on_c, 6, 50, 127
8, 49596, Note_off_c, 6, 50, 100
8, 49728, Note_on_c, 6, 48, 127
8, 49788, Note_off_c, 6, 48, 100
8, 49920, Note_on_c, 6, 47, 127
8, 50108, Note_off_c, 6, 47, 100
8, 50112, Note_on_c, 6, 45, 127
8, 50348, Note_off_c, 6, 45, 100
8, 50352, Note_on_c, 6, 43, 127
8, 50632, Note_off_c, 6, 43, 100
8, 50632, End_track
9, 0, Start_track
9, 0, Title_t, "All rights reserved"
9, 0, Control_c, 7, 0, 0
9, 0, Program_c, 7, 6
9, 0, Control_c, 7, 7, 127
9, 0, Control_c, 7, 10, 0
9, 0, Control_c, 7, 91, 127
9, 0, Key_signature, 1, "major"
9, 1536, Note_on_c, 7, 43, 96
9, 2300, Note_off_c, 7, 43, 100
9, 2304, Note_on_c, 7, 42, 96
9, 3068, Note_off_c, 7, 42, 100
9, 3072, Note_on_c, 7, 40, 96
9, 3836, Note_off_c, 7, 40, 100
9, 3840, Note_on_c, 7, 38, 96
9, 4412, Note_off_c, 7, 38, 100
9, 4416, Note_on_c, 7, 36, 96
9, 4604, Note_off_c, 7, 36, 100
9, 4608, Note_on_c, 7, 35, 96
9, 5372, Note_off_c, 7, 35, 100
9, 5376, Note_on_c, 7, 36, 96
9, 6140, Note_off_c, 7, 36, 100
9, 6144, Note_on_c, 7, 38, 96
9, 6908, Note_off_c, 7, 38, 100
9, 6912, Note_on_c, 7, 31, 96
9, 7292, Note_off_c, 7, 31, 100
9, 7488, Note_on_c, 7, 47, 96
9, 7580, Note_off_c, 7, 47, 100
9, 7584, Note_on_c, 7, 45, 96
9, 7676, Note_off_c, 7, 45, 100
9, 7680, Note_on_c, 7, 43, 96
9, 7868, Note_off_c, 7, 43, 100
9, 7872, Note_on_c, 7, 42, 96
9, 7964, Note_off_c, 7, 42, 100
9, 7968, Note_on_c, 7, 43, 96
9, 8060, Note_off_c, 7, 43, 100
9, 8064, Note_on_c, 7, 40, 96
9, 8252, Note_off_c, 7, 40, 100
9, 8256, Note_on_c, 7, 38, 96
9, 8348, Note_off_c, 7, 38, 100
9, 8352, Note_on_c, 7, 40, 96
9, 8444, Note_off_c, 7, 40, 100
9, 8448, Note_on_c, 7, 42, 96
9, 8832, Note_off_c, 7, 42, 100
9, 9024, Note_on_c, 7, 47, 96
9, 9084, Note_off_c, 7, 47, 100
9, 9216, Note_on_c, 7, 40, 96
9, 9600, Note_off_c, 7, 40, 100
9, 9792, Note_on_c, 7, 42, 96
9, 9884, Note_off_c, 7, 42, 100
9, 9888, Note_on_c, 7, 43, 96
9, 9980, Note_off_c, 7, 43, 100
9, 9984, Note_on_c, 7, 45, 96
9, 10364, Note_off_c, 7, 45, 100
9, 10464, Note_on_c, 7, 43, 96
9, 10556, Note_off_c, 7, 43, 100
9, 10560, Note_on_c, 7, 42, 96
9, 10652, Note_off_c, 7, 42, 100
9, 10656, Note_on_c, 7, 40, 96
9, 10748, Note_off_c, 7, 40, 100
9, 10752, Note_on_c, 7, 42, 96
9, 11008, Note_off_c, 7, 42, 100
9, 11136, Note_on_c, 7, 38, 96
9, 11392, Note_off_c, 7, 38, 100
9, 11520, Note_on_c, 7, 43, 96
9, 11776, Note_off_c, 7, 43, 100
9, 11904, Note_on_c, 7, 31, 96
9, 12160, Note_off_c, 7, 31, 100
9, 12288, Note_on_c, 7, 33, 96
9, 13052, Note_off_c, 7, 33, 100
9, 13056, Note_on_c, 7, 26, 96
9, 13436, Note_off_c, 7, 26, 100
9, 38400, Note_on_c, 7, 50, 96
9, 38780, Note_off_c, 7, 50, 100
9, 38784, Note_on_c, 7, 48, 96
9, 39164, Note_off_c, 7, 48, 100
9, 39168, Note_on_c, 7, 47, 96
9, 39548, Note_off_c, 7, 47, 100
9, 39552, Note_on_c, 7, 43, 96
9, 39808, Note_off_c, 7, 43, 100
9, 39936, Note_on_c, 7, 48, 96
9, 40124, Note_off_c, 7, 48, 100
9, 40128, Note_on_c, 7, 47, 96
9, 40316, Note_off_c, 7, 47, 100
9, 40320, Note_on_c, 7, 48, 96
9, 40380, Note_off_c, 7, 48, 100
9, 40512, Note_on_c, 7, 45, 96
9, 40572, Note_off_c, 7, 45, 100
9, 40704, Note_on_c, 7, 47, 96
9, 41088, Note_off_c, 7, 47, 100
9, 41280, Note_on_c, 7, 45, 96
9, 41340, Note_off_c, 7, 45, 100
9, 41472, Note_on_c, 7, 43, 96
9, 41660, Note_off_c, 7, 43, 100
9, 41664, Note_on_c, 7, 52, 96
9, 41724, Note_off_c, 7, 52, 100
9, 41856, Note_on_c, 7, 43, 96
9, 42044, Note_off_c, 7, 43, 100
9, 42048, Note_on_c, 7, 52, 96
9, 42108, Note_off_c, 7, 52, 100
9, 42240, Note_on_c, 7, 45, 96
9, 42624, Note_off_c, 7, 45, 100
9, 42816, Note_on_c, 7, 46, 96
9, 42876, Note_off_c, 7, 46, 100
9, 43008, Note_on_c, 7, 47, 96
9, 43264, Note_off_c, 7, 47, 100
9, 43392, Note_on_c, 7, 35, 96
9, 43648, Note_off_c, 7, 35, 100
9, 43776, Note_on_c, 7, 40, 96
9, 44288, Note_off_c, 7, 40, 100
9, 44352, Note_on_c, 7, 38, 96
9, 44412, Note_off_c, 7, 38, 100
9, 44544, Note_on_c, 7, 36, 96
9, 44800, Note_off_c, 7, 36, 100
9, 44928, Note_on_c, 7, 48, 96
9, 45308, Note_off_c, 7, 48, 100
9, 45312, Note_on_c, 7, 47, 96
9, 45788, Note_off_c, 7, 47, 100
9, 45888, Note_on_c, 7, 48, 96
9, 45980, Note_off_c, 7, 48, 100
9, 45984, Note_on_c, 7, 47, 96
9, 46076, Note_off_c, 7, 47, 100
9, 46080, Note_on_c, 7, 45, 96
9, 46556, Note_off_c, 7, 45, 100
9, 46656, Note_on_c, 7, 47, 96
9, 46748, Note_off_c, 7, 47, 100
9, 46752, Note_on_c, 7, 48, 96
9, 46844, Note_off_c, 7, 48, 100
9, 46848, Note_on_c, 7, 50, 96
9, 47360, Note_off_c, 7, 50, 100
9, 47424, Note_on_c, 7, 48, 96
9, 47516, Note_off_c, 7, 48, 100
9, 47520, Note_on_c, 7, 50, 96
9, 47584, Note_off_c, 7, 50, 100
9, 47616, Note_on_c, 7, 43, 96
9, 47804, Note_off_c, 7, 43, 100
9, 47808, Note_on_c, 7, 45, 96
9, 47996, Note_off_c, 7, 45, 100
9, 48000, Note_on_c, 7, 47, 96
9, 48060, Note_off_c, 7, 47, 100
9, 48192, Note_on_c, 7, 43, 96
9, 48252, Note_off_c, 7, 43, 100
9, 48384, Note_on_c, 7, 48, 96
9, 48768, Note_off_c, 7, 48, 100
9, 48960, Note_on_c, 7, 49, 96
9, 49020, Note_off_c, 7, 49, 100
9, 49152, Note_on_c, 7, 50, 127
9, 49408, Note_off_c, 7, 50, 100
9, 49536, Note_on_c, 7, 38, 127
9, 49792, Note_off_c, 7, 38, 100
9, 49920, Note_on_c, 7, 43, 127
9, 50288, Note_off_c, 7, 43, 100
9, 50352, Note_on_c, 7, 31, 127
9, 50632, Note_off_c, 7, 31, 64
9, 50632, End_track
10, 0, Start_track
10, 0, Control_c, 8, 0, 0
10, 0, Program_c, 8, 6
10, 0, Control_c, 8, 7, 127
10, 0, Control_c, 8, 10, 91
10, 0, Control_c, 8, 91, 127
10, 0, Key_signature, 1, "major"
10, 2880, Note_on_c, 8, 50, 64
10, 2940, Note_off_c, 8, 50, 100
10, 3072, Note_on_c, 8, 55, 64
10, 3260, Note_off_c, 8, 55, 100
10, 3264, Note_on_c, 8, 57, 64
10, 3452, Note_off_c, 8, 57, 100
10, 3456, Note_on_c, 8, 59, 64
10, 3516, Note_off_c, 8, 59, 100
10, 3648, Note_on_c, 8, 60, 64
10, 3708, Note_off_c, 8, 60, 100
10, 3840, Note_on_c, 8, 62, 64
10, 4028, Note_off_c, 8, 62, 100
10, 4032, Note_on_c, 8, 60, 64
10, 4124, Note_off_c, 8, 60, 100
10, 4128, Note_on_c, 8, 59, 64
10, 4220, Note_off_c, 8, 59, 100
10, 4224, Note_on_c, 8, 57, 64
10, 4412, Note_off_c, 8, 57, 100
10, 4608, Note_on_c, 8, 62, 64
10, 4864, Note_off_c, 8, 62, 100
10, 4992, Note_on_c, 8, 62, 64
10, 5248, Note_off_c, 8, 62, 100
10, 5376, Note_on_c, 8, 64, 64
10, 5632, Note_off_c, 8, 64, 100
10, 5760, Note_on_c, 8, 64, 64
10, 6016, Note_off_c, 8, 64, 100
10, 6144, Note_on_c, 8, 62, 64
10, 6332, Note_off_c, 8, 62, 100
10, 6336, Note_on_c, 8, 64, 64
10, 6524, Note_off_c, 8, 64, 100
10, 6528, Note_on_c, 8, 62, 64
10, 6588, Note_off_c, 8, 62, 100
10, 6720, Note_on_c, 8, 60, 64
10, 6780, Note_off_c, 8, 60, 100
10, 6912, Note_on_c, 8, 60, 64
10, 6940, Note_off_c, 8, 60, 100
10, 6944, Note_on_c, 8, 59, 64
10, 6972, Note_off_c, 8, 59, 100
10, 6976, Note_on_c, 8, 60, 64
10, 7004, Note_off_c, 8, 60, 100
10, 7008, Note_on_c, 8, 59, 64
10, 7100, Note_off_c, 8, 59, 100
10, 7104, Note_on_c, 8, 57, 64
10, 7292, Note_off_c, 8, 57, 100
10, 7296, Note_on_c, 8, 55, 64
10, 7552, Note_off_c, 8, 55, 100
10, 9024, Note_on_c, 8, 62, 64
10, 9404, Note_off_c, 8, 62, 64
10, 9408, Note_on_c, 8, 60, 64
10, 9468, Note_off_c, 8, 60, 100
10, 9600, Note_on_c, 8, 59, 64
10, 9980, Note_off_c, 8, 59, 100
10, 9984, Note_on_c, 8, 57, 64
10, 10556, Note_off_c, 8, 57, 100
10, 10560, Note_on_c, 8, 59, 64
10, 10652, Note_off_c, 8, 59, 100
10, 10656, Note_on_c, 8, 61, 64
10, 10748, Note_off_c, 8, 61, 100
10, 10752, Note_on_c, 8, 62, 64
10, 10940, Note_off_c, 8, 62, 100
10, 10944, Note_on_c, 8, 64, 64
10, 11132, Note_off_c, 8, 64, 100
10, 11136, Note_on_c, 8, 66, 64
10, 11196, Note_off_c, 8, 66, 100
10, 11328, Note_on_c, 8, 62, 64
10, 11388, Note_off_c, 8, 62, 100
10, 11520, Note_on_c, 8, 59, 64
10, 11708, Note_off_c, 8, 59, 100
10, 11712, Note_on_c, 8, 62, 64
10, 11900, Note_off_c, 8, 62, 100
10, 11904, Note_on_c, 8, 67, 64
10, 12032, Note_off_c, 8, 67, 100
10, 12096, Note_on_c, 8, 66, 64
10, 12156, Note_off_c, 8, 66, 100
10, 12288, Note_on_c, 8, 64, 64
10, 12572, Note_off_c, 8, 64, 100
10, 12576, Note_on_c, 8, 62, 64
10, 12764, Note_off_c, 8, 62, 100
10, 12768, Note_on_c, 8, 61, 64
10, 12860, Note_off_c, 8, 61, 100
10, 12864, Note_on_c, 8, 64, 64
10, 13148, Note_off_c, 8, 64, 100
10, 13152, Note_on_c, 8, 62, 64
10, 13340, Note_off_c, 8, 62, 100
10, 13344, Note_on_c, 8, 61, 64
10, 13436, Note_off_c, 8, 61, 100
10, 13440, Note_on_c, 8, 62, 64
10, 13568, Note_off_c, 8, 62, 100
10, 38400, Note_on_c, 8, 57, 64
10, 38656, Note_off_c, 8, 57, 100
10, 38784, Note_on_c, 8, 57, 64
10, 39040, Note_off_c, 8, 57, 100
10, 39168, Note_on_c, 8, 59, 64
10, 39424, Note_off_c, 8, 59, 100
10, 39552, Note_on_c, 8, 59, 64
10, 39808, Note_off_c, 8, 59, 100
10, 39936, Note_on_c, 8, 57, 64
10, 40124, Note_off_c, 8, 57, 100
10, 40128, Note_on_c, 8, 59, 64
10, 40316, Note_off_c, 8, 59, 100
10, 40320, Note_on_c, 8, 57, 64
10, 40380, Note_off_c, 8, 57, 100
10, 40512, Note_on_c, 8, 55, 64
10, 40572, Note_off_c, 8, 55, 100
10, 40704, Note_on_c, 8, 55, 64
10, 40724, Note_off_c, 8, 55, 100
10, 40728, Note_on_c, 8, 54, 64
10, 40748, Note_off_c, 8, 54, 100
10, 40752, Note_on_c, 8, 55, 64
10, 40772, Note_off_c, 8, 55, 100
10, 40776, Note_on_c, 8, 54, 64
10, 40892, Note_off_c, 8, 54, 100
10, 40896, Note_on_c, 8, 52, 64
10, 41084, Note_off_c, 8, 52, 100
10, 41088, Note_on_c, 8, 54, 64
10, 41344, Note_off_c, 8, 54, 100
10, 41472, Note_on_c, 8, 59, 64
10, 41728, Note_off_c, 8, 59, 100
10, 41856, Note_on_c, 8, 59, 64
10, 42112, Note_off_c, 8, 59, 100
10, 42240, Note_on_c, 8, 60, 64
10, 42496, Note_off_c, 8, 60, 100
10, 42624, Note_on_c, 8, 60, 64
10, 42880, Note_off_c, 8, 60, 100
10, 43008, Note_on_c, 8, 59, 64
10, 43196, Note_off_c, 8, 59, 100
10, 43200, Note_on_c, 8, 60, 64
10, 43388, Note_off_c, 8, 60, 100
10, 43392, Note_on_c, 8, 59, 64
10, 43452, Note_off_c, 8, 59, 100
10, 43584, Note_on_c, 8, 57, 64
10, 43644, Note_off_c, 8, 57, 100
10, 43776, Note_on_c, 8, 55, 64
10, 43964, Note_off_c, 8, 55, 100
10, 43968, Note_on_c, 8, 54, 64
10, 44060, Note_off_c, 8, 54, 100
10, 44064, Note_on_c, 8, 55, 64
10, 44156, Note_off_c, 8, 55, 100
10, 44160, Note_on_c, 8, 52, 64
10, 44288, Note_off_c, 8, 52, 100
10, 45312, Note_on_c, 8, 55, 64
10, 45568, Note_off_c, 8, 55, 100
10, 45696, Note_on_c, 8, 55, 64
10, 45952, Note_off_c, 8, 55, 100
10, 46080, Note_on_c, 8, 60, 64
10, 46364, Note_off_c, 8, 60, 100
10, 46368, Note_on_c, 8, 62, 64
10, 46460, Note_off_c, 8, 62, 100
10, 46464, Note_on_c, 8, 60, 64
10, 46524, Note_off_c, 8, 60, 100
10, 46656, Note_on_c, 8, 59, 64
10, 46716, Note_off_c, 8, 59, 100
10, 46848, Note_on_c, 8, 57, 64
10, 47036, Note_off_c, 8, 57, 100
10, 47040, Note_on_c, 8, 59, 64
10, 47228, Note_off_c, 8, 59, 100
10, 47232, Note_on_c, 8, 60, 64
10, 47360, Note_off_c, 8, 60, 100
10, 47424, Note_on_c, 8, 62, 64
10, 47484, Note_off_c, 8, 62, 100
10, 47616, Note_on_c, 8, 59, 64
10, 47804, Note_off_c, 8, 59, 100
10, 47808, Note_on_c, 8, 57, 64
10, 47900, Note_off_c, 8, 57, 100
10, 47904, Note_on_c, 8, 59, 64
10, 47996, Note_off_c, 8, 59, 100
10, 48000, Note_on_c, 8, 55, 64
10, 48060, Note_off_c, 8, 55, 100
10, 48576, Note_on_c, 8, 64, 64
10, 48668, Note_off_c, 8, 64, 100
10, 48672, Note_on_c, 8, 62, 64
10, 48764, Note_off_c, 8, 62, 100
10, 48768, Note_on_c, 8, 60, 64
10, 48896, Note_off_c, 8, 60, 100
10, 48960, Note_on_c, 8, 64, 64
10, 49020, Note_off_c, 8, 64, 100
10, 49152, Note_on_c, 8, 57, 127
10, 49216, Note_off_c, 8, 57, 100
10, 49248, Note_on_c, 8, 62, 127
10, 49340, Note_off_c, 8, 62, 100
10, 49344, Note_on_c, 8, 60, 127
10, 49436, Note_off_c, 8, 60, 100
10, 49440, Note_on_c, 8, 59, 127
10, 49504, Note_off_c, 8, 59, 100
10, 49536, Note_on_c, 8, 60, 127
10, 49628, Note_off_c, 8, 60, 100
10, 49632, Note_on_c, 8, 57, 127
10, 49696, Note_off_c, 8, 57, 100
10, 49728, Note_on_c, 8, 62, 127
10, 49984, Note_off_c, 8, 62, 100
10, 50112, Note_on_c, 8, 60, 127
10, 50204, Note_off_c, 8, 60, 100
10, 50208, Note_on_c, 8, 62, 127
10, 50304, Note_off_c, 8, 62, 100
10, 50352, Note_on_c, 8, 59, 127
10, 50632, Note_off_c, 8, 59, 100
10, 50632, End_track
11, 0, Start_track
11, 0, Control_c, 10, 0, 0
11, 0, Program_c, 10, 6
11, 0, Control_c, 10, 7, 127
11, 0, Control_c, 10, 10, 42
11, 0, Control_c, 10, 91, 127
11, 0, Key_signature, 1, "major"
11, 3072, Note_on_c, 10, 55, 64
11, 3328, Note_off_c, 10, 55, 100
11, 3456, Note_on_c, 10, 55, 64
11, 3712, Note_off_c, 10, 55, 100
11, 3840, Note_on_c, 10, 57, 64
11, 4096, Note_off_c, 10, 57, 100
11, 4224, Note_on_c, 10, 57, 64
11, 4480, Note_off_c, 10, 57, 100
11, 4608, Note_on_c, 10, 55, 64
11, 4796, Note_off_c, 10, 55, 100
11, 4800, Note_on_c, 10, 57, 64
11, 4988, Note_off_c, 10, 57, 100
11, 4992, Note_on_c, 10, 55, 64
11, 5052, Note_off_c, 10, 55, 100
11, 5184, Note_on_c, 10, 53, 64
11, 5244, Note_off_c, 10, 53, 100
11, 5376, Note_on_c, 10, 52, 64
11, 5564, Note_off_c, 10, 52, 100
11, 5568, Note_on_c, 10, 50, 64
11, 5756, Note_off_c, 10, 50, 100
11, 5760, Note_on_c, 10, 48, 64
11, 5888, Note_off_c, 10, 48, 100
11, 5952, Note_on_c, 10, 59, 64
11, 6012, Note_off_c, 10, 59, 100
11, 6144, Note_on_c, 10, 57, 64
11, 6332, Note_off_c, 10, 57, 100
11, 6336, Note_on_c, 10, 55, 64
11, 6524, Note_off_c, 10, 55, 100
11, 6528, Note_on_c, 10, 57, 64
11, 6588, Note_off_c, 10, 57, 100
11, 6720, Note_on_c, 10, 54, 64
11, 6780, Note_off_c, 10, 54, 100
11, 6912, Note_on_c, 10, 55, 64
11, 7168, Note_off_c, 10, 55, 100
11, 7296, Note_on_c, 10, 55, 64
11, 7424, Note_off_c, 10, 55, 100
11, 7488, Note_on_c, 10, 50, 64
11, 7548, Note_off_c, 10, 50, 100
11, 7680, Note_on_c, 10, 55, 64
11, 7868, Note_off_c, 10, 55, 100
11, 7872, Note_on_c, 10, 57, 64
11, 8060, Note_off_c, 10, 57, 100
11, 8064, Note_on_c, 10, 59, 64
11, 8124, Note_off_c, 10, 59, 100
11, 8256, Note_on_c, 10, 60, 64
11, 8316, Note_off_c, 10, 60, 100
11, 8448, Note_on_c, 10, 62, 64
11, 8636, Note_off_c, 10, 62, 100
11, 8640, Note_on_c, 10, 60, 64
11, 8732, Note_off_c, 10, 60, 100
11, 8736, Note_on_c, 10, 59, 64
11, 8828, Note_off_c, 10, 59, 100
11, 8832, Note_on_c, 10, 57, 64
11, 8960, Note_off_c, 10, 57, 100
11, 9024, Note_on_c, 10, 62, 64
11, 9084, Note_off_c, 10, 62, 100
11, 9216, Note_on_c, 10, 67, 64
11, 9404, Note_off_c, 10, 67, 100
11, 9408, Note_on_c, 10, 66, 64
11, 9596, Note_off_c, 10, 66, 100
11, 9600, Note_on_c, 10, 64, 64
11, 9660, Note_off_c, 10, 64, 100
11, 9792, Note_on_c, 10, 62, 64
11, 9852, Note_off_c, 10, 62, 100
11, 9984, Note_on_c, 10, 62, 64
11, 10012, Note_off_c, 10, 62, 100
11, 10016, Note_on_c, 10, 61, 64
11, 10044, Note_off_c, 10, 61, 100
11, 10048, Note_on_c, 10, 62, 64
11, 10076, Note_off_c, 10, 62, 100
11, 10080, Note_on_c, 10, 61, 64
11, 10172, Note_off_c, 10, 61, 100
11, 10176, Note_on_c, 10, 59, 64
11, 10268, Note_off_c, 10, 59, 100
11, 10272, Note_on_c, 10, 61, 64
11, 10364, Note_off_c, 10, 61, 100
11, 10368, Note_on_c, 10, 57, 64
11, 10496, Note_off_c, 10, 57, 100
11, 10752, Note_on_c, 10, 69, 64
11, 11008, Note_off_c, 10, 69, 100
11, 11136, Note_on_c, 10, 69, 64
11, 11392, Note_off_c, 10, 69, 100
11, 11520, Note_on_c, 10, 71, 64
11, 11776, Note_off_c, 10, 71, 100
11, 11904, Note_on_c, 10, 71, 64
11, 12160, Note_off_c, 10, 71, 100
11, 12288, Note_on_c, 10, 69, 64
11, 12476, Note_off_c, 10, 69, 100
11, 12480, Note_on_c, 10, 71, 64
11, 12668, Note_off_c, 10, 71, 100
11, 12672, Note_on_c, 10, 69, 64
11, 12732, Note_off_c, 10, 69, 100
11, 12864, Note_on_c, 10, 67, 64
11, 12924, Note_off_c, 10, 67, 100
11, 13056, Note_on_c, 10, 66, 64
11, 13244, Note_off_c, 10, 66, 100
11, 13248, Note_on_c, 10, 64, 64
11, 13436, Note_off_c, 10, 64, 100
11, 13440, Note_on_c, 10, 62, 64
11, 13568, Note_off_c, 10, 62, 100
11, 38208, Note_on_c, 10, 69, 64
11, 38268, Note_off_c, 10, 69, 100
11, 38400, Note_on_c, 10, 66, 64
11, 38588, Note_off_c, 10, 66, 100
11, 38592, Note_on_c, 10, 69, 64
11, 38652, Note_off_c, 10, 69, 100
11, 38784, Note_on_c, 10, 66, 64
11, 38972, Note_off_c, 10, 66, 100
11, 38976, Note_on_c, 10, 69, 64
11, 39036, Note_off_c, 10, 69, 100
11, 39168, Note_on_c, 10, 62, 64
11, 39356, Note_off_c, 10, 62, 100
11, 39360, Note_on_c, 10, 64, 64
11, 39452, Note_off_c, 10, 64, 100
11, 39456, Note_on_c, 10, 66, 64
11, 39548, Note_off_c, 10, 66, 100
11, 39552, Note_on_c, 10, 67, 64
11, 39680, Note_off_c, 10, 67, 100
11, 39744, Note_on_c, 10, 64, 64
11, 39804, Note_off_c, 10, 64, 100
11, 39936, Note_on_c, 10, 69, 64
11, 40124, Note_off_c, 10, 69, 100
11, 40128, Note_on_c, 10, 67, 64
11, 40316, Note_off_c, 10, 67, 100
11, 40320, Note_on_c, 10, 66, 64
11, 40380, Note_off_c, 10, 66, 100
11, 40512, Note_on_c, 10, 64, 64
11, 40572, Note_off_c, 10, 64, 100
11, 40704, Note_on_c, 10, 64, 64
11, 40724, Note_off_c, 10, 64, 100
11, 40728, Note_on_c, 10, 63, 64
11, 40748, Note_off_c, 10, 63, 100
11, 40752, Note_on_c, 10, 64, 64
11, 40772, Note_off_c, 10, 64, 100
11, 40776, Note_on_c, 10, 63, 64
11, 40892, Note_off_c, 10, 63, 100
11, 40896, Note_on_c, 10, 61, 64
11, 40988, Note_off_c, 10, 61, 100
11, 40992, Note_on_c, 10, 63, 64
11, 41084, Note_off_c, 10, 63, 100
11, 41088, Note_on_c, 10, 59, 64
11, 41216, Note_off_c, 10, 59, 100
11, 41280, Note_on_c, 10, 71, 64
11, 41340, Note_off_c, 10, 71, 100
11, 41472, Note_on_c, 10, 64, 64
11, 41660, Note_off_c, 10, 64, 100
11, 41664, Note_on_c, 10, 71, 64
11, 41724, Note_off_c, 10, 71, 100
11, 41856, Note_on_c, 10, 64, 64
11, 42044, Note_off_c, 10, 64, 100
11, 42048, Note_on_c, 10, 71, 64
11, 42108, Note_off_c, 10, 71, 100
11, 42240, Note_on_c, 10, 63, 64
11, 42332, Note_off_c, 10, 63, 100
11, 42336, Note_on_c, 10, 64, 64
11, 42428, Note_off_c, 10, 64, 100
11, 42432, Note_on_c, 10, 66, 64
11, 42524, Note_off_c, 10, 66, 100
11, 42528, Note_on_c, 10, 67, 64
11, 42620, Note_off_c, 10, 67, 100
11, 42624, Note_on_c, 10, 69, 64
11, 42752, Note_off_c, 10, 69, 100
11, 42816, Note_on_c, 10, 67, 64
11, 42908, Note_off_c, 10, 67, 100
11, 42912, Note_on_c, 10, 66, 64
11, 43004, Note_off_c, 10, 66, 100
11, 43008, Note_on_c, 10, 67, 64
11, 43136, Note_off_c, 10, 67, 100
11, 43200, Note_on_c, 10, 66, 64
11, 43292, Note_off_c, 10, 66, 100
11, 43296, Note_on_c, 10, 64, 64
11, 43388, Note_off_c, 10, 64, 100
11, 43392, Note_on_c, 10, 63, 64
11, 43484, Note_off_c, 10, 63, 100
11, 43488, Note_on_c, 10, 64, 64
11, 43580, Note_off_c, 10, 64, 100
11, 43584, Note_on_c, 10, 66, 64
11, 43676, Note_off_c, 10, 66, 100
11, 43680, Note_on_c, 10, 63, 64
11, 43744, Note_off_c, 10, 63, 100
11, 43776, Note_on_c, 10, 66, 64
11, 43796, Note_off_c, 10, 66, 100
11, 43800, Note_on_c, 10, 64, 64
11, 43820, Note_off_c, 10, 64, 100
11, 43824, Note_on_c, 10, 66, 64
11, 43844, Note_off_c, 10, 66, 100
11, 43848, Note_on_c, 10, 64, 64
11, 44640, Note_on_c, 10, 62, 64
11, 44704, Note_off_c, 10, 62, 100
11, 44708, Note_off_c, 10, 64, 100
11, 44736, Note_on_c, 10, 66, 64
11, 44828, Note_off_c, 10, 66, 100
11, 44832, Note_on_c, 10, 64, 64
11, 44896, Note_off_c, 10, 64, 100
11, 44928, Note_on_c, 10, 67, 64
11, 45020, Note_off_c, 10, 67, 100
11, 45024, Note_on_c, 10, 66, 64
11, 45088, Note_off_c, 10, 66, 100
11, 45120, Note_on_c, 10, 69, 64
11, 45180, Note_off_c, 10, 69, 100
11, 45312, Note_on_c, 10, 62, 64
11, 45696, Note_off_c, 10, 62, 100
11, 45888, Note_on_c, 10, 60, 64
11, 45980, Note_off_c, 10, 60, 100
11, 45984, Note_on_c, 10, 62, 64
11, 46076, Note_off_c, 10, 62, 100
11, 46080, Note_on_c, 10, 64, 64
11, 46208, Note_off_c, 10, 64, 100
11, 46272, Note_on_c, 10, 66, 64
11, 46364, Note_off_c, 10, 66, 100
11, 46368, Note_on_c, 10, 67, 64
11, 46460, Note_off_c, 10, 67, 100
11, 46464, Note_on_c, 10, 69, 64
11, 46524, Note_off_c, 10, 69, 100
11, 46656, Note_on_c, 10, 67, 64
11, 46716, Note_off_c, 10, 67, 100
11, 46848, Note_on_c, 10, 67, 64
11, 46868, Note_off_c, 10, 67, 100
11, 46872, Note_on_c, 10, 66, 64
11, 46892, Note_off_c, 10, 66, 100
11, 46896, Note_on_c, 10, 67, 64
11, 46916, Note_off_c, 10, 67, 100
11, 46920, Note_on_c, 10, 66, 64
11, 46940, Note_off_c, 10, 66, 100
11, 46944, Note_on_c, 10, 64, 64
11, 46988, Note_off_c, 10, 64, 100
11, 46992, Note_on_c, 10, 66, 64
11, 47036, Note_off_c, 10, 66, 100
11, 47040, Note_on_c, 10, 62, 64
11, 47228, Note_off_c, 10, 62, 100
11, 47616, Note_on_c, 10, 71, 64
11, 47804, Note_off_c, 10, 71, 100
11, 47808, Note_on_c, 10, 72, 64
11, 47952, Note_off_c, 10, 72, 100
11, 47952, Note_on_c, 10, 71, 64
11, 47972, Note_off_c, 10, 71, 100
11, 47976, Note_on_c, 10, 72, 64
11, 47996, Note_off_c, 10, 72, 100
11, 48000, Note_on_c, 10, 74, 64
11, 48060, Note_off_c, 10, 74, 100
11, 48192, Note_on_c, 10, 71, 64
11, 48252, Note_off_c, 10, 71, 100
11, 48384, Note_on_c, 10, 72, 64
11, 48572, Note_off_c, 10, 72, 100
11, 48576, Note_on_c, 10, 71, 64
11, 48764, Note_off_c, 10, 71, 100
11, 48768, Note_on_c, 10, 69, 64
11, 48896, Note_off_c, 10, 69, 100
11, 48960, Note_on_c, 10, 67, 64
11, 49020, Note_off_c, 10, 67, 100
11, 49152, Note_on_c, 10, 66, 127
11, 49340, Note_off_c, 10, 66, 100
11, 49344, Note_on_c, 10, 67, 127
11, 49532, Note_off_c, 10, 67, 100
11, 49536, Note_on_c, 10, 69, 127
11, 49596, Note_off_c, 10, 69, 100
11, 49728, Note_on_c, 10, 66, 127
11, 49788, Note_off_c, 10, 66, 100
11, 49920, Note_on_c, 10, 67, 127
11, 50208, Note_off_c, 10, 67, 100
11, 50352, Note_on_c, 10, 67, 127
11, 50632, Note_off_c, 10, 67, 100
11, 50632, End_track
12, 0, Start_track
12, 0, Control_c, 11, 0, 0
12, 0, Program_c, 11, 6
12, 0, Control_c, 11, 7, 127
12, 0, Control_c, 11, 10, 87
12, 0, Control_c, 11, 91, 127
12, 0, Key_signature, 1, "major"
12, 1344, Note_on_c, 11, 62, 96
12, 1404, Note_off_c, 11, 62, 100
12, 1536, Note_on_c, 11, 67, 96
12, 1724, Note_off_c, 11, 67, 100
12, 1728, Note_on_c, 11, 69, 96
12, 1916, Note_off_c, 11, 69, 100
12, 1920, Note_on_c, 11, 71, 96
12, 1980, Note_off_c, 11, 71, 100
12, 2112, Note_on_c, 11, 72, 96
12, 2172, Note_off_c, 11, 72, 100
12, 2304, Note_on_c, 11, 74, 96
12, 2492, Note_off_c, 11, 74, 100
12, 2496, Note_on_c, 11, 72, 96
12, 2588, Note_off_c, 11, 72, 100
12, 2592, Note_on_c, 11, 71, 96
12, 2684, Note_off_c, 11, 71, 100
12, 2688, Note_on_c, 11, 69, 96
12, 2876, Note_off_c, 11, 69, 100
12, 2880, Note_on_c, 11, 67, 96
12, 2972, Note_off_c, 11, 67, 100
12, 2976, Note_on_c, 11, 69, 96
12, 3068, Note_off_c, 11, 69, 100
12, 3072, Note_on_c, 11, 71, 96
12, 3132, Note_off_c, 11, 71, 100
12, 3264, Note_on_c, 11, 69, 96
12, 3324, Note_off_c, 11, 69, 100
12, 3456, Note_on_c, 11, 67, 96
12, 3968, Note_off_c, 11, 67, 100
12, 4224, Note_on_c, 11, 67, 96
12, 4252, Note_off_c, 11, 67, 100
12, 4256, Note_on_c, 11, 66, 96
12, 4284, Note_off_c, 11, 66, 100
12, 4288, Note_on_c, 11, 67, 96
12, 4316, Note_off_c, 11, 67, 100
12, 4320, Note_on_c, 11, 66, 96
12, 4412, Note_off_c, 11, 66, 100
12, 4416, Note_on_c, 11, 64, 96
12, 4508, Note_off_c, 11, 64, 100
12, 4512, Note_on_c, 11, 66, 96
12, 4604, Note_off_c, 11, 66, 100
12, 4608, Note_on_c, 11, 67, 96
12, 4988, Note_off_c, 11, 67, 100
12, 6144, Note_on_c, 11, 67, 96
12, 6220, Note_off_c, 11, 67, 100
12, 6224, Note_on_c, 11, 66, 96
12, 6272, Note_off_c, 11, 66, 100
12, 6276, Note_on_c, 11, 67, 96
12, 6312, Note_off_c, 11, 67, 100
12, 6316, Note_on_c, 11, 66, 96
12, 6340, Note_off_c, 11, 66, 100
12, 6344, Note_on_c, 11, 67, 96
12, 6368, Note_off_c, 11, 67, 100
12, 6372, Note_on_c, 11, 66, 96
12, 6396, Note_off_c, 11, 66, 100
12, 6400, Note_on_c, 11, 67, 96
12, 6424, Note_off_c, 11, 67, 100
12, 6428, Note_on_c, 11, 66, 96
12, 6452, Note_off_c, 11, 66, 100
12, 6456, Note_on_c, 11, 67, 96
12, 6480, Note_off_c, 11, 67, 100
12, 6484, Note_on_c, 11, 66, 96
12, 6508, Note_off_c, 11, 66, 100
12, 6512, Note_on_c, 11, 67, 96
12, 6536, Note_off_c, 11, 67, 100
12, 6540, Note_on_c, 11, 66, 96
12, 6564, Note_off_c, 11, 66, 100
12, 6568, Note_on_c, 11, 67, 96
12, 6592, Note_off_c, 11, 67, 100
12, 6596, Note_on_c, 11, 66, 96
12, 6620, Note_off_c, 11, 66, 100
12, 6624, Note_on_c, 11, 64, 96
12, 6668, Note_off_c, 11, 64, 100
12, 6672, Note_on_c, 11, 66, 96
12, 6716, Note_off_c, 11, 66, 100
12, 6720, Note_on_c, 11, 62, 96
12, 7288, Note_off_c, 11, 62, 100
12, 7680, Note_on_c, 11, 79, 96
12, 7936, Note_off_c, 11, 79, 100
12, 8064, Note_on_c, 11, 79, 96
12, 8320, Note_off_c, 11, 79, 100
12, 8448, Note_on_c, 11, 81, 96
12, 8704, Note_off_c, 11, 81, 100
12, 8832, Note_on_c, 11, 81, 96
12, 9088, Note_off_c, 11, 81, 100
12, 9216, Note_on_c, 11, 79, 96
12, 9404, Note_off_c, 11, 79, 100
12, 9408, Note_on_c, 11, 81, 96
12, 9596, Note_off_c, 11, 81, 100
12, 9600, Note_on_c, 11, 79, 96
12, 9660, Note_off_c, 11, 79, 100
12, 9792, Note_on_c, 11, 78, 96
12, 9852, Note_off_c, 11, 78, 100
12, 9984, Note_on_c, 11, 76, 96
12, 10172, Note_off_c, 11, 76, 100
12, 10176, Note_on_c, 11, 74, 96
12, 10364, Note_off_c, 11, 74, 100
12, 10368, Note_on_c, 11, 73, 96
12, 10496, Note_off_c, 11, 73, 100
12, 10752, Note_on_c, 11, 66, 96
12, 10940, Note_off_c, 11, 66, 100
12, 10944, Note_on_c, 11, 67, 96
12, 11132, Note_off_c, 11, 67, 100
12, 11136, Note_on_c, 11, 69, 96
12, 11196, Note_off_c, 11, 69, 100
12, 11328, Note_on_c, 11, 66, 96
12, 11388, Note_off_c, 11, 66, 100
12, 11520, Note_on_c, 11, 67, 96
12, 11708, Note_off_c, 11, 67, 100
12, 11712, Note_on_c, 11, 66, 96
12, 11900, Note_off_c, 11, 66, 100
12, 11904, Note_on_c, 11, 64, 96
12, 12032, Note_off_c, 11, 64, 100
12, 12096, Note_on_c, 11, 62, 96
12, 12156, Note_off_c, 11, 62, 100
12, 12288, Note_on_c, 11, 61, 96
12, 12476, Note_off_c, 11, 61, 100
12, 12480, Note_on_c, 11, 62, 96
12, 12668, Note_off_c, 11, 62, 100
12, 12672, Note_on_c, 11, 64, 96
12, 12732, Note_off_c, 11, 64, 100
12, 12864, Note_on_c, 11, 61, 96
12, 12924, Note_off_c, 11, 61, 100
12, 13056, Note_on_c, 11, 62, 96
12, 13312, Note_off_c, 11, 62, 100
12, 13440, Note_on_c, 11, 62, 96
12, 13568, Note_off_c, 11, 62, 100
12, 38208, Note_on_c, 11, 78, 96
12, 38268, Note_off_c, 11, 78, 100
12, 38400, Note_on_c, 11, 74, 96
12, 38588, Note_off_c, 11, 74, 100
12, 38592, Note_on_c, 11, 78, 96
12, 38652, Note_off_c, 11, 78, 100
12, 38784, Note_on_c, 11, 74, 96
12, 38972, Note_off_c, 11, 74, 100
12, 38976, Note_on_c, 11, 78, 96
12, 39036, Note_off_c, 11, 78, 100
12, 39168, Note_on_c, 11, 79, 96
12, 39356, Note_off_c, 11, 79, 100
12, 39360, Note_on_c, 11, 74, 96
12, 39420, Note_off_c, 11, 74, 100
12, 39552, Note_on_c, 11, 74, 96
12, 39680, Note_off_c, 11, 74, 100
12, 39744, Note_on_c, 11, 79, 96
12, 39804, Note_off_c, 11, 79, 100
12, 39936, Note_on_c, 11, 76, 96
12, 40124, Note_off_c, 11, 76, 100
12, 40704, Note_on_c, 11, 78, 96
12, 41084, Note_off_c, 11, 78, 100
12, 41088, Note_on_c, 11, 75, 96
12, 41216, Note_off_c, 11, 75, 100
12, 41472, Note_on_c, 11, 79, 96
12, 41728, Note_off_c, 11, 79, 100
12, 41856, Note_on_c, 11, 79, 96
12, 42112, Note_off_c, 11, 79, 100
12, 42240, Note_on_c, 11, 78, 96
12, 42428, Note_off_c, 11, 78, 100
12, 42432, Note_on_c, 11, 79, 96
12, 42620, Note_off_c, 11, 79, 100
12, 42624, Note_on_c, 11, 78, 96
12, 42752, Note_off_c, 11, 78, 100
12, 42816, Note_on_c, 11, 76, 96
12, 42876, Note_off_c, 11, 76, 100
12, 43008, Note_on_c, 11, 75, 96
12, 43196, Note_off_c, 11, 75, 100
12, 43200, Note_on_c, 11, 76, 96
12, 43292, Note_off_c, 11, 76, 100
12, 43296, Note_on_c, 11, 78, 96
12, 43388, Note_off_c, 11, 78, 100
12, 43392, Note_on_c, 11, 71, 96
12, 43964, Note_off_c, 11, 71, 100
12, 43968, Note_on_c, 11, 69, 96
12, 44060, Note_off_c, 11, 69, 100
12, 44064, Note_on_c, 11, 71, 96
12, 44156, Note_off_c, 11, 71, 100
12, 44160, Note_on_c, 11, 67, 96
12, 44288, Note_off_c, 11, 67, 100
12, 44352, Note_on_c, 11, 69, 96
12, 44444, Note_off_c, 11, 69, 100
12, 44448, Note_on_c, 11, 71, 96
12, 44512, Note_off_c, 11, 71, 100
12, 44544, Note_on_c, 11, 72, 96
12, 44732, Note_off_c, 11, 72, 100
12, 44736, Note_on_c, 11, 74, 96
12, 44924, Note_off_c, 11, 74, 100
12, 44928, Note_on_c, 11, 76, 96
12, 44988, Note_off_c, 11, 76, 100
12, 45120, Note_on_c, 11, 78, 96
12, 45180, Note_off_c, 11, 78, 100
12, 45312, Note_on_c, 11, 79, 96
12, 45500, Note_off_c, 11, 79, 100
12, 45504, Note_on_c, 11, 78, 96
12, 45596, Note_off_c, 11, 78, 100
12, 45600, Note_on_c, 11, 76, 96
12, 45692, Note_off_c, 11, 76, 100
12, 45696, Note_on_c, 11, 74, 96
12, 45824, Note_off_c, 11, 74, 100
12, 46272, Note_on_c, 11, 81, 96
12, 46460, Note_off_c, 11, 81, 100
12, 46464, Note_on_c, 11, 76, 96
12, 46524, Note_off_c, 11, 76, 100
12, 46656, Note_on_c, 11, 74, 96
12, 46748, Note_off_c, 11, 74, 100
12, 46752, Note_on_c, 11, 76, 96
12, 46844, Note_off_c, 11, 76, 100
12, 46848, Note_on_c, 11, 78, 96
12, 47036, Note_off_c, 11, 78, 100
12, 47040, Note_on_c, 11, 79, 96
12, 47360, Note_off_c, 11, 79, 100
12, 47424, Note_on_c, 11, 78, 96
12, 47484, Note_off_c, 11, 78, 100
12, 47616, Note_on_c, 11, 74, 96
12, 47872, Note_off_c, 11, 74, 100
12, 48000, Note_on_c, 11, 74, 96
12, 48256, Note_off_c, 11, 74, 100
12, 48384, Note_on_c, 11, 76, 96
12, 48640, Note_off_c, 11, 76, 100
12, 48768, Note_on_c, 11, 76, 96
12, 49024, Note_off_c, 11, 76, 100
12, 49152, Note_on_c, 11, 74, 127
12, 49340, Note_off_c, 11, 74, 100
12, 49344, Note_on_c, 11, 76, 127
12, 49532, Note_off_c, 11, 76, 100
12, 49536, Note_on_c, 11, 74, 127
12, 49596, Note_off_c, 11, 74, 100
12, 49728, Note_on_c, 11, 72, 127
12, 49788, Note_off_c, 11, 72, 100
12, 49920, Note_on_c, 11, 71, 127
12, 50108, Note_off_c, 11, 71, 100
12, 50112, Note_on_c, 11, 69, 127
12, 50348, Note_off_c, 11, 69, 100
12, 50352, Note_on_c, 11, 67, 127
12, 50632, Note_off_c, 11, 67, 100
12, 50632, End_track
13, 0, Start_track
13, 0, Control_c, 12, 0, 0
13, 0, Program_c, 12, 6
13, 0, Control_c, 12, 7, 127
13, 0, Control_c, 12, 10, 37
13, 0, Control_c, 12, 91, 127
13, 0, Key_signature, 1, "major"
13, 1536, Note_on_c, 12, 67, 96
13, 2300, Note_off_c, 12, 67, 100
13, 2304, Note_on_c, 12, 66, 96
13, 3068, Note_off_c, 12, 66, 100
13, 3072, Note_on_c, 12, 64, 96
13, 3836, Note_off_c, 12, 64, 100
13, 3840, Note_on_c, 12, 62, 96
13, 4412, Note_off_c, 12, 62, 100
13, 4416, Note_on_c, 12, 60, 96
13, 4604, Note_off_c, 12, 60, 100
13, 4608, Note_on_c, 12, 59, 96
13, 5372, Note_off_c, 12, 59, 100
13, 5376, Note_on_c, 12, 60, 96
13, 6140, Note_off_c, 12, 60, 100
13, 6144, Note_on_c, 12, 62, 96
13, 6908, Note_off_c, 12, 62, 100
13, 6912, Note_on_c, 12, 55, 96
13, 7292, Note_off_c, 12, 55, 100
13, 7488, Note_on_c, 12, 71, 96
13, 7580, Note_off_c, 12, 71, 100
13, 7584, Note_on_c, 12, 69, 96
13, 7676, Note_off_c, 12, 69, 100
13, 7680, Note_on_c, 12, 67, 96
13, 7868, Note_off_c, 12, 67, 100
13, 7872, Note_on_c, 12, 66, 96
13, 7964, Note_off_c, 12, 66, 100
13, 7968, Note_on_c, 12, 67, 96
13, 8060, Note_off_c, 12, 67, 100
13, 8064, Note_on_c, 12, 64, 96
13, 8252, Note_off_c, 12, 64, 100
13, 8256, Note_on_c, 12, 62, 96
13, 8348, Note_off_c, 12, 62, 100
13, 8352, Note_on_c, 12, 64, 96
13, 8444, Note_off_c, 12, 64, 100
13, 8448, Note_on_c, 12, 66, 96
13, 8832, Note_off_c, 12, 66, 100
13, 9024, Note_on_c, 12, 71, 96
13, 9084, Note_off_c, 12, 71, 100
13, 9216, Note_on_c, 12, 64, 96
13, 9600, Note_off_c, 12, 64, 100
13, 9792, Note_on_c, 12, 66, 96
13, 9884, Note_off_c, 12, 66, 100
13, 9888, Note_on_c, 12, 67, 96
13, 9980, Note_off_c, 12, 67, 100
13, 9984, Note_on_c, 12, 69, 96
13, 10364, Note_off_c, 12, 69, 100
13, 10464, Note_on_c, 12, 67, 96
13, 10556, Note_off_c, 12, 67, 100
13, 10560, Note_on_c, 12, 66, 96
13, 10652, Note_off_c, 12, 66, 100
13, 10656, Note_on_c, 12, 64, 96
13, 10748, Note_off_c, 12, 64, 100
13, 10752, Note_on_c, 12, 66, 96
13, 11008, Note_off_c, 12, 66, 100
13, 11136, Note_on_c, 12, 62, 96
13, 11392, Note_off_c, 12, 62, 100
13, 11520, Note_on_c, 12, 67, 96
13, 11776, Note_off_c, 12, 67, 100
13, 11904, Note_on_c, 12, 55, 96
13, 12160, Note_off_c, 12, 55, 100
13, 12288, Note_on_c, 12, 57, 96
13, 13052, Note_off_c, 12, 57, 100
13, 13056, Note_on_c, 12, 50, 96
13, 13436, Note_off_c, 12, 50, 100
13, 38400, Note_on_c, 12, 74, 96
13, 38780, Note_off_c, 12, 74, 100
13, 38784, Note_on_c, 12, 72, 96
13, 39164, Note_off_c, 12, 72, 100
13, 39168, Note_on_c, 12, 71, 96
13, 39548, Note_off_c, 12, 71, 100
13, 39552, Note_on_c, 12, 67, 96
13, 39808, Note_off_c, 12, 67, 100
13, 39936, Note_on_c, 12, 72, 96
13, 40124, Note_off_c, 12, 72, 100
13, 40128, Note_on_c, 12, 71, 96
13, 40316, Note_off_c, 12, 71, 100
13, 40320, Note_on_c, 12, 72, 96
13, 40380, Note_off_c, 12, 72, 100
13, 40512, Note_on_c, 12, 69, 96
13, 40572, Note_off_c, 12, 69, 100
13, 40704, Note_on_c, 12, 71, 96
13, 41088, Note_off_c, 12, 71, 100
13, 41280, Note_on_c, 12, 69, 96
13, 41340, Note_off_c, 12, 69, 100
13, 41472, Note_on_c, 12, 67, 96
13, 41660, Note_off_c, 12, 67, 100
13, 41664, Note_on_c, 12, 76, 96
13, 41724, Note_off_c, 12, 76, 100
13, 41856, Note_on_c, 12, 67, 96
13, 42044, Note_off_c, 12, 67, 100
13, 42048, Note_on_c, 12, 76, 96
13, 42108, Note_off_c, 12, 76, 100
13, 42240, Note_on_c, 12, 69, 96
13, 42624, Note_off_c, 12, 69, 100
13, 42816, Note_on_c, 12, 70, 96
13, 42876, Note_off_c, 12, 70, 100
13, 43008, Note_on_c, 12, 71, 96
13, 43264, Note_off_c, 12, 71, 100
13, 43392, Note_on_c, 12, 59, 96
13, 43648, Note_off_c, 12, 59, 100
13, 43776, Note_on_c, 12, 64, 96
13, 44288, Note_off_c, 12, 64, 100
13, 44352, Note_on_c, 12, 62, 96
13, 44412, Note_off_c, 12, 62, 100
13, 44544, Note_on_c, 12, 60, 96
13, 44800, Note_off_c, 12, 60, 100
13, 44928, Note_on_c, 12, 72, 96
13, 45308, Note_off_c, 12, 72, 100
13, 45312, Note_on_c, 12, 71, 96
13, 45788, Note_off_c, 12, 71, 100
13, 45888, Note_on_c, 12, 72, 96
13, 45980, Note_off_c, 12, 72, 100
13, 45984, Note_on_c, 12, 71, 96
13, 46076, Note_off_c, 12, 71, 100
13, 46080, Note_on_c, 12, 69, 96
13, 46556, Note_off_c, 12, 69, 100
13, 46656, Note_on_c, 12, 71, 96
13, 46748, Note_off_c, 12, 71, 100
13, 46752, Note_on_c, 12, 72, 96
13, 46844, Note_off_c, 12, 72, 100
13, 46848, Note_on_c, 12, 74, 96
13, 47360, Note_off_c, 12, 74, 100
13, 47424, Note_on_c, 12, 72, 96
13, 47516, Note_off_c, 12, 72, 100
13, 47520, Note_on_c, 12, 74, 96
13, 47584, Note_off_c, 12, 74, 100
13, 47616, Note_on_c, 12, 67, 96
13, 47804, Note_off_c, 12, 67, 100
13, 47808, Note_on_c, 12, 69, 96
13, 47996, Note_off_c, 12, 69, 100
13, 48000, Note_on_c, 12, 71, 96
13, 48060, Note_off_c, 12, 71, 100
13, 48192, Note_on_c, 12, 67, 96
13, 48252, Note_off_c, 12, 67, 100
13, 48384, Note_on_c, 12, 72, 96
13, 48768, Note_off_c, 12, 72, 100
13, 48960, Note_on_c, 12, 73, 96
13, 49020, Note_off_c, 12, 73, 100
13, 49152, Note_on_c, 12, 74, 127
13, 49408, Note_off_c, 12, 74, 100
13, 49536, Note_on_c, 12, 62, 127
13, 49792, Note_off_c, 12, 62, 100
13, 49920, Note_on_c, 12, 67, 127
13, 50288, Note_off_c, 12, 67, 100
13, 50352, Note_on_c, 12, 55, 127
13, 50632, Note_off_c, 12, 55, 64
13, 50632, End_track
14, 0, Start_track
14, 1, Copyright_t, "___________________________________________________\012\012KUNSTDERFUGE.COM LARGE CLASSICAL MIDI COLLECTION\012ONCLASSICAL BY ALESSANDRO SIMONETTO, PROPRIETOR\012___________________________________________________\012\012! Attention: this file is under copyright !\012\012(c)onclassical, (c)degiusti, 2010\012___________________________________________________\012\012NO ONE MAY REPUBLISH THIS FILE WITHOUT PERMISSION\012COMMERCIAL USES OF THIS FILE IS STRICTLY PROHIBITED\012___________________________________________________\012\012Files & contributor's list: http://kunstderfuge.com/\012Terms and conditions: http://kunstderfuge.com/notes.htm"
14, 1, End_track
0, 0, End_of_file