0, 0, Header, 1, 14, 384
1, 0, Start_track
1, 0, Time_signature, 2, 1, 96, 8
1, 0, Sequencer_specific, 03, 00, 00, 41
1, 0, Sequencer_specific, 05, 00, 00, 77, 0E, 00
1, 0, Tempo, 375000
1, 72, Tempo, 370370
1, 152, Tempo, 365853
1, 224, Tempo, 361445
1, 304, Tempo, 357142
1, 384, Tempo, 352941
1, 456, Tempo, 348837
1, 536, Tempo, 344827
1, 608, Tempo, 340909
1, 688, Tempo, 337078
1, 768, Tempo, 333333
1, 11520, Tempo, 491803
1, 11528, Tempo, 483870
1, 11536, Tempo, 476190
1, 11544, Tempo, 468750
1, 11552, Tempo, 454545
1, 11560, Tempo, 447761
1, 11568, Tempo, 441176
1, 11576, Tempo, 434782
1, 11584, Tempo, 422535
1, 11592, Tempo, 416666
1, 11600, Tempo, 410958
1, 11608, Tempo, 405405
1, 11616, Tempo, 394736
1, 11624, Tempo, 389610
1, 11632, Tempo, 384615
1, 11640, Tempo, 379746
1, 11648, Tempo, 370370
1, 11656, Tempo, 365853
1, 11664, Tempo, 361445
1, 11672, Tempo, 357142
1, 11680, Tempo, 348837
1, 11688, Tempo, 344827
1, 11696, Tempo, 340909
1, 11704, Tempo, 337078
1, 11712, Tempo, 333333
1, 11904, Tempo, 400000
1, 11912, Tempo, 394736
1, 11928, Tempo, 389610
1, 11936, Tempo, 384615
1, 11952, Tempo, 379746
1, 11968, Tempo, 375000
1, 11976, Tempo, 370370
1, 11992, Tempo, 365853
1, 12000, Tempo, 361445
1, 12016, Tempo, 357142
1, 12032, Tempo, 352941
1, 12040, Tempo, 348837
1, 12056, Tempo, 344827
1, 12064, Tempo, 340909
1, 12080, Tempo, 337078
1, 12096, Tempo, 333333
1, 18432, Tempo, 337078
1, 18464, Tempo, 370370
1, 18504, Tempo, 365853
1, 18544, Tempo, 361445
1, 18584, Tempo, 357142
1, 18624, Tempo, 352941
1, 18656, Tempo, 348837
1, 18696, Tempo, 344827
1, 18736, Tempo, 340909
1, 18776, Tempo, 337078
1, 18816, Tempo, 375000
1, 18848, Tempo, 370370
1, 18888, Tempo, 365853
1, 18928, Tempo, 361445
1, 18968, Tempo, 357142
1, 19008, Tempo, 352941
1, 19040, Tempo, 348837
1, 19080, Tempo, 344827
1, 19120, Tempo, 340909
1, 19160, Tempo, 337078
1, 19200, Tempo, 333333
1, 23040, Tempo, 337078
1, 23072, Tempo, 370370
1, 23112, Tempo, 365853
1, 23152, Tempo, 361445
1, 23192, Tempo, 357142
1, 23232, Tempo, 352941
1, 23264, Tempo, 348837
1, 23304, Tempo, 344827
1, 23344, Tempo, 340909
1, 23384, Tempo, 337078
1, 23424, Tempo, 333333
1, 23808, Tempo, 500000
1, 23832, Tempo, 491803
1, 23856, Tempo, 483870
1, 23880, Tempo, 476190
1, 23904, Tempo, 468750
1, 23936, Tempo, 461538
1, 23960, Tempo, 454545
1, 23984, Tempo, 447761
1, 24008, Tempo, 441176
1, 24032, Tempo, 434782
1, 24064, Tempo, 428571
1, 24088, Tempo, 422535
1, 24112, Tempo, 416666
1, 24136, Tempo, 410958
1, 24160, Tempo, 405405
1, 24192, Tempo, 400000
1, 24216, Tempo, 394736
1, 24240, Tempo, 389610
1, 24264, Tempo, 384615
1, 24288, Tempo, 379746
1, 24320, Tempo, 375000
1, 24344, Tempo, 370370
1, 24368, Tempo, 365853
1, 24392, Tempo, 361445
1, 24416, Tempo, 357142
1, 24448, Tempo, 352941
1, 24472, Tempo, 348837
1, 24496, Tempo, 344827
1, 24520, Tempo, 340909
1, 24544, Tempo, 337078
1, 24576, Tempo, 333333
1, 24648, Tempo, 370370
1, 24728, Tempo, 365853
1, 24800, Tempo, 361445
1, 24880, Tempo, 357142
1, 24960, Tempo, 352941
1, 25032, Tempo, 348837
1, 25112, Tempo, 344827
1, 25184, Tempo, 340909
1, 25264, Tempo, 337078
1, 25344, Tempo, 333333
1, 33792, Tempo, 337078
1, 33824, Tempo, 370370
1, 33864, Tempo, 365853
1, 33904, Tempo, 361445
1, 33944, Tempo, 357142
1, 33984, Tempo, 352941
1, 34016, Tempo, 348837
1, 34056, Tempo, 344827
1, 34096, Tempo, 340909
1, 34136, Tempo, 337078
1, 34176, Tempo, 375000
1, 34208, Tempo, 370370
1, 34248, Tempo, 365853
1, 34288, Tempo, 361445
1, 34328, Tempo, 357142
1, 34368, Tempo, 352941
1, 34400, Tempo, 348837
1, 34440, Tempo, 344827
1, 34480, Tempo, 340909
1, 34520, Tempo, 337078
1, 34560, Tempo, 333333
1, 36096, Tempo, 491803
1, 36104, Tempo, 483870
1, 36112, Tempo, 476190
1, 36120, Tempo, 468750
1, 36128, Tempo, 454545
1, 36136, Tempo, 447761
1, 36144, Tempo, 441176
1, 36152, Tempo, 434782
1, 36160, Tempo, 422535
1, 36168, Tempo, 416666
1, 36176, Tempo, 410958
1, 36184, Tempo, 405405
1, 36192, Tempo, 394736
1, 36200, Tempo, 389610
1, 36208, Tempo, 384615
1, 36216, Tempo, 379746
1, 36224, Tempo, 370370
1, 36232, Tempo, 365853
1, 36240, Tempo, 361445
1, 36248, Tempo, 357142
1, 36256, Tempo, 348837
1, 36264, Tempo, 344827
1, 36272, Tempo, 340909
1, 36280, Tempo, 337078
1, 36288, Tempo, 333333
1, 36296, Tempo, 361445
1, 36320, Tempo, 357142
1, 36352, Tempo, 352941
1, 36376, Tempo, 348837
1, 36400, Tempo, 344827
1, 36424, Tempo, 340909
1, 36448, Tempo, 337078
1, 36480, Tempo, 400000
1, 36488, Tempo, 394736
1, 36504, Tempo, 389610
1, 36512, Tempo, 384615
1, 36528, Tempo, 379746
1, 36544, Tempo, 375000
1, 36552, Tempo, 370370
1, 36568, Tempo, 365853
1, 36576, Tempo, 361445
1, 36592, Tempo, 357142
1, 36608, Tempo, 352941
1, 36616, Tempo, 348837
1, 36632, Tempo, 344827
1, 36640, Tempo, 340909
1, 36656, Tempo, 337078
1, 36672, Tempo, 333333
1, 43008, Tempo, 337078
1, 43040, Tempo, 370370
1, 43080, Tempo, 365853
1, 43120, Tempo, 361445
1, 43160, Tempo, 357142
1, 43200, Tempo, 352941
1, 43232, Tempo, 348837
1, 43272, Tempo, 344827
1, 43312, Tempo, 340909
1, 43352, Tempo, 337078
1, 43392, Tempo, 375000
1, 43424, Tempo, 370370
1, 43464, Tempo, 365853
1, 43504, Tempo, 361445
1, 43544, Tempo, 357142
1, 43584, Tempo, 352941
1, 43616, Tempo, 348837
1, 43656, Tempo, 344827
1, 43696, Tempo, 340909
1, 43736, Tempo, 337078
1, 43776, Tempo, 333333
1, 46464, Tempo, 333333
1, 46768, Tempo, 337078
1, 47072, Tempo, 340909
1, 47384, Tempo, 344827
1, 47616, Tempo, 337078
1, 47632, Tempo, 422535
1, 47648, Tempo, 416666
1, 47672, Tempo, 410958
1, 47688, Tempo, 405405
1, 47712, Tempo, 400000
1, 47728, Tempo, 394736
1, 47744, Tempo, 389610
1, 47768, Tempo, 384615
1, 47784, Tempo, 379746
1, 47808, Tempo, 375000
1, 47824, Tempo, 370370
1, 47840, Tempo, 365853
1, 47864, Tempo, 361445
1, 47880, Tempo, 357142
1, 47904, Tempo, 352941
1, 47920, Tempo, 348837
1, 47936, Tempo, 344827
1, 47960, Tempo, 340909
1, 47976, Tempo, 337078
1, 48000, Tempo, 352941
1, 48384, Tempo, 600000
1, 48400, Tempo, 588235
1, 48416, Tempo, 576923
1, 48440, Tempo, 566037
1, 48456, Tempo, 555555
1, 48480, Tempo, 545454
1, 48496, Tempo, 535714
1, 48512, Tempo, 526315
1, 48536, Tempo, 517241
1, 48552, Tempo, 508474
1, 48576, Tempo, 500000
1, 48592, Tempo, 491803
1, 48608, Tempo, 483870
1, 48632, Tempo, 476190
1, 48648, Tempo, 468750
1, 48672, Tempo, 461538
1, 48688, Tempo, 454545
1, 48704, Tempo, 447761
1, 48728, Tempo, 441176
1, 48744, Tempo, 434782
1, 48768, Tempo, 428571
1, 48784, Tempo, 422535
1, 48800, Tempo, 416666
1, 48824, Tempo, 410958
1, 48840, Tempo, 405405
1, 48864, Tempo, 400000
1, 48880, Tempo, 394736
1, 48896, Tempo, 389610
1, 48920, Tempo, 384615
1, 48936, Tempo, 379746
1, 48960, Tempo, 375000
1, 48976, Tempo, 370370
1, 48992, Tempo, 365853
1, 49016, Tempo, 361445
1, 49032, Tempo, 357142
1, 49056, Tempo, 352941
1, 49072, Tempo, 348837
1, 49088, Tempo, 344827
1, 49112, Tempo, 340909
1, 49128, Tempo, 337078
1, 49152, Tempo, 333333
1, 49224, Tempo, 370370
1, 49304, Tempo, 365853
1, 49376, Tempo, 361445
1, 49456, Tempo, 357142
1, 49536, Tempo, 352941
1, 49608, Tempo, 348837
1, 49688, Tempo, 344827
1, 49760, Tempo, 340909
1, 49840, Tempo, 337078
1, 49920, Tempo, 333333
1, 55296, Tempo, 400000
1, 55320, Tempo, 394736
1, 55344, Tempo, 389610
1, 55368, Tempo, 384615
1, 55392, Tempo, 379746
1, 55424, Tempo, 375000
1, 55448, Tempo, 370370
1, 55472, Tempo, 365853
1, 55496, Tempo, 361445
1, 55520, Tempo, 357142
1, 55552, Tempo, 352941
1, 55576, Tempo, 348837
1, 55600, Tempo, 344827
1, 55624, Tempo, 340909
1, 55648, Tempo, 337078
1, 55680, Tempo, 333333
1, 58368, Tempo, 375000
1, 58424, Tempo, 370370
1, 58480, Tempo, 365853
1, 58536, Tempo, 361445
1, 58592, Tempo, 357142
1, 58656, Tempo, 352941
1, 58712, Tempo, 348837
1, 58768, Tempo, 344827
1, 58824, Tempo, 340909
1, 58880, Tempo, 337078
1, 58944, Tempo, 333333
1, 59520, Tempo, 333333
1, 59712, Tempo, 337078
1, 59904, Tempo, 337078
1, 59920, Tempo, 422535
1, 59936, Tempo, 416666
1, 59960, Tempo, 410958
1, 59976, Tempo, 405405
1, 60000, Tempo, 400000
1, 60016, Tempo, 394736
1, 60032, Tempo, 389610
1, 60056, Tempo, 384615
1, 60072, Tempo, 379746
1, 60096, Tempo, 375000
1, 60112, Tempo, 370370
1, 60128, Tempo, 365853
1, 60152, Tempo, 361445
1, 60168, Tempo, 357142
1, 60192, Tempo, 352941
1, 60208, Tempo, 348837
1, 60224, Tempo, 344827
1, 60248, Tempo, 340909
1, 60264, Tempo, 337078
1, 60288, Tempo, 400000
1, 60312, Tempo, 394736
1, 60336, Tempo, 389610
1, 60360, Tempo, 384615
1, 60384, Tempo, 379746
1, 60416, Tempo, 375000
1, 60440, Tempo, 370370
1, 60464, Tempo, 365853
1, 60488, Tempo, 361445
1, 60512, Tempo, 357142
1, 60544, Tempo, 352941
1, 60568, Tempo, 348837
1, 60592, Tempo, 344827
1, 60616, Tempo, 340909
1, 60640, Tempo, 337078
1, 60672, Tempo, 333333
1, 61440, Tempo, 375000
1, 61472, Tempo, 370370
1, 61512, Tempo, 365853
1, 61552, Tempo, 361445
1, 61592, Tempo, 357142
1, 61632, Tempo, 352941
1, 61664, Tempo, 348837
1, 61704, Tempo, 344827
1, 61744, Tempo, 340909
1, 61784, Tempo, 337078
1, 61824, Tempo, 333333
1, 66048, Tempo, 337078
1, 66080, Tempo, 370370
1, 66120, Tempo, 365853
1, 66160, Tempo, 361445
1, 66200, Tempo, 357142
1, 66240, Tempo, 352941
1, 66272, Tempo, 348837
1, 66312, Tempo, 344827
1, 66352, Tempo, 340909
1, 66392, Tempo, 337078
1, 66432, Tempo, 375000
1, 66464, Tempo, 370370
1, 66504, Tempo, 365853
1, 66544, Tempo, 361445
1, 66584, Tempo, 357142
1, 66624, Tempo, 352941
1, 66656, Tempo, 348837
1, 66696, Tempo, 344827
1, 66736, Tempo, 340909
1, 66776, Tempo, 337078
1, 66816, Tempo, 333333
1, 67584, Tempo, 337078
1, 67616, Tempo, 370370
1, 67656, Tempo, 365853
1, 67696, Tempo, 361445
1, 67736, Tempo, 357142
1, 67776, Tempo, 352941
1, 67808, Tempo, 348837
1, 67848, Tempo, 344827
1, 67888, Tempo, 340909
1, 67928, Tempo, 337078
1, 67968, Tempo, 375000
1, 68000, Tempo, 370370
1, 68040, Tempo, 365853
1, 68080, Tempo, 361445
1, 68120, Tempo, 357142
1, 68160, Tempo, 352941
1, 68192, Tempo, 348837
1, 68232, Tempo, 344827
1, 68272, Tempo, 340909
1, 68312, Tempo, 337078
1, 68352, Tempo, 333333
1, 70656, Tempo, 375000
1, 70688, Tempo, 370370
1, 70728, Tempo, 365853
1, 70768, Tempo, 361445
1, 70808, Tempo, 357142
1, 70848, Tempo, 352941
1, 70880, Tempo, 348837
1, 70920, Tempo, 344827
1, 70960, Tempo, 340909
1, 71000, Tempo, 337078
1, 71040, Tempo, 333333
1, 72192, Tempo, 337078
1, 72216, Tempo, 394736
1, 72240, Tempo, 389610
1, 72264, Tempo, 384615
1, 72288, Tempo, 379746
1, 72320, Tempo, 375000
1, 72344, Tempo, 370370
1, 72368, Tempo, 365853
1, 72392, Tempo, 361445
1, 72416, Tempo, 357142
1, 72448, Tempo, 352941
1, 72472, Tempo, 348837
1, 72496, Tempo, 344827
1, 72520, Tempo, 340909
1, 72544, Tempo, 337078
1, 72576, Tempo, 352941
1, 72960, Tempo, 500000
1, 72984, Tempo, 491803
1, 73008, Tempo, 483870
1, 73032, Tempo, 476190
1, 73056, Tempo, 468750
1, 73088, Tempo, 461538
1, 73112, Tempo, 454545
1, 73136, Tempo, 447761
1, 73160, Tempo, 441176
1, 73184, Tempo, 434782
1, 73216, Tempo, 428571
1, 73240, Tempo, 422535
1, 73264, Tempo, 416666
1, 73288, Tempo, 410958
1, 73312, Tempo, 405405
1, 73344, Tempo, 400000
1, 73368, Tempo, 394736
1, 73392, Tempo, 389610
1, 73416, Tempo, 384615
1, 73440, Tempo, 379746
1, 73472, Tempo, 375000
1, 73496, Tempo, 370370
1, 73520, Tempo, 365853
1, 73544, Tempo, 361445
1, 73568, Tempo, 357142
1, 73600, Tempo, 352941
1, 73624, Tempo, 348837
1, 73648, Tempo, 344827
1, 73672, Tempo, 340909
1, 73696, Tempo, 337078
1, 73728, Tempo, 333333
1, 73800, Tempo, 370370
1, 73880, Tempo, 365853
1, 73952, Tempo, 361445
1, 74032, Tempo, 357142
1, 74112, Tempo, 352941
1, 74184, Tempo, 348837
1, 74264, Tempo, 344827
1, 74336, Tempo, 340909
1, 74416, Tempo, 337078
1, 74496, Tempo, 333333
1, 79872, Tempo, 337078
1, 79896, Tempo, 394736
1, 79920, Tempo, 389610
1, 79944, Tempo, 384615
1, 79968, Tempo, 379746
1, 80000, Tempo, 375000
1, 80024, Tempo, 370370
1, 80048, Tempo, 365853
1, 80072, Tempo, 361445
1, 80096, Tempo, 357142
1, 80128, Tempo, 352941
1, 80152, Tempo, 348837
1, 80176, Tempo, 344827
1, 80200, Tempo, 340909
1, 80224, Tempo, 337078
1, 80256, Tempo, 375000
1, 80288, Tempo, 370370
1, 80328, Tempo, 365853
1, 80368, Tempo, 361445
1, 80408, Tempo, 357142
1, 80448, Tempo, 352941
1, 80480, Tempo, 348837
1, 80520, Tempo, 344827
1, 80560, Tempo, 340909
1, 80600, Tempo, 337078
1, 80640, Tempo, 333333
1, 82944, Tempo, 333333
1, 84096, Tempo, 375000
1, 84112, Tempo, 370370
1, 84128, Tempo, 365853
1, 84152, Tempo, 361445
1, 84168, Tempo, 357142
1, 84192, Tempo, 352941
1, 84208, Tempo, 348837
1, 84224, Tempo, 344827
1, 84248, Tempo, 340909
1, 84264, Tempo, 337078
1, 84288, Tempo, 333333
1, 84480, Tempo, 333333
1, 84504, Tempo, 394736
1, 84528, Tempo, 389610
1, 84552, Tempo, 384615
1, 84576, Tempo, 379746
1, 84608, Tempo, 375000
1, 84632, Tempo, 370370
1, 84656, Tempo, 365853
1, 84680, Tempo, 361445
1, 84704, Tempo, 357142
1, 84736, Tempo, 352941
1, 84760, Tempo, 348837
1, 84784, Tempo, 344827
1, 84808, Tempo, 340909
1, 84832, Tempo, 337078
1, 84864, Tempo, 400000
1, 84888, Tempo, 394736
1, 84912, Tempo, 389610
1, 84936, Tempo, 384615
1, 84960, Tempo, 379746
1, 84992, Tempo, 375000
1, 85016, Tempo, 370370
1, 85040, Tempo, 365853
1, 85064, Tempo, 361445
1, 85088, Tempo, 357142
1, 85120, Tempo, 352941
1, 85144, Tempo, 348837
1, 85168, Tempo, 344827
1, 85192, Tempo, 340909
1, 85216, Tempo, 337078
1, 85248, Tempo, 333333
1, 86016, Tempo, 375000
1, 86048, Tempo, 370370
1, 86088, Tempo, 365853
1, 86128, Tempo, 361445
1, 86168, Tempo, 357142
1, 86208, Tempo, 352941
1, 86240, Tempo, 348837
1, 86280, Tempo, 344827
1, 86320, Tempo, 340909
1, 86360, Tempo, 337078
1, 86400, Tempo, 333333
1, 92160, Tempo, 337078
1, 92192, Tempo, 370370
1, 92232, Tempo, 365853
1, 92272, Tempo, 361445
1, 92312, Tempo, 357142
1, 92352, Tempo, 352941
1, 92384, Tempo, 348837
1, 92424, Tempo, 344827
1, 92464, Tempo, 340909
1, 92504, Tempo, 337078
1, 92544, Tempo, 375000
1, 92576, Tempo, 370370
1, 92616, Tempo, 365853
1, 92656, Tempo, 361445
1, 92696, Tempo, 357142
1, 92736, Tempo, 352941
1, 92768, Tempo, 348837
1, 92808, Tempo, 344827
1, 92848, Tempo, 340909
1, 92888, Tempo, 337078
1, 92928, Tempo, 333333
1, 94464, Tempo, 333333
1, 94656, Tempo, 333333
1, 94864, Tempo, 337078
1, 95072, Tempo, 340909
1, 95232, Tempo, 365853
1, 95264, Tempo, 370370
1, 95304, Tempo, 365853
1, 95344, Tempo, 361445
1, 95384, Tempo, 357142
1, 95424, Tempo, 352941
1, 95456, Tempo, 348837
1, 95496, Tempo, 344827
1, 95536, Tempo, 340909
1, 95576, Tempo, 337078
1, 95616, Tempo, 375000
1, 95648, Tempo, 370370
1, 95688, Tempo, 365853
1, 95728, Tempo, 361445
1, 95768, Tempo, 357142
1, 95808, Tempo, 352941
1, 95840, Tempo, 348837
1, 95880, Tempo, 344827
1, 95920, Tempo, 340909
1, 95960, Tempo, 337078
1, 96000, Tempo, 333333
1, 96128, Tempo, 361445
1, 96344, Tempo, 365853
1, 96384, Tempo, 428571
1, 96392, Tempo, 422535
1, 96400, Tempo, 416666
1, 96408, Tempo, 410958
1, 96416, Tempo, 405405
1, 96432, Tempo, 400000
1, 96440, Tempo, 394736
1, 96448, Tempo, 389610
1, 96456, Tempo, 384615
1, 96464, Tempo, 379746
1, 96480, Tempo, 375000
1, 96488, Tempo, 370370
1, 96496, Tempo, 365853
1, 96504, Tempo, 361445
1, 96512, Tempo, 357142
1, 96528, Tempo, 352941
1, 96536, Tempo, 348837
1, 96544, Tempo, 344827
1, 96552, Tempo, 340909
1, 96560, Tempo, 337078
1, 96576, Tempo, 333333
1, 96768, Tempo, 508474
1, 96800, Tempo, 588235
1, 96840, Tempo, 576923
1, 96880, Tempo, 566037
1, 96920, Tempo, 555555
1, 96960, Tempo, 545454
1, 96992, Tempo, 535714
1, 97032, Tempo, 526315
1, 97072, Tempo, 517241
1, 97112, Tempo, 508474
1, 97152, Tempo, 500000
1, 97536, Tempo, 750000
1, 97536, End_track
2, 0, Start_track
2, 0, Title_t, "Johann Sebastian Bach"
2, 0, Control_c, 0, 0, 0
2, 0, Program_c, 0, 6
2, 0, Control_c, 0, 7, 127
2, 0, Control_c, 0, 10, 0
2, 0, Control_c, 0, 91, 127
2, 0, Key_signature, 1, "major"
2, 6912, Note_on_c, 0, 74, 127
2, 7672, Note_off_c, 0, 74, 100
2, 8064, Note_on_c, 0, 72, 127
2, 8248, Note_off_c, 0, 72, 100
2, 8256, Note_on_c, 0, 71, 127
2, 8440, Note_off_c, 0, 71, 100
2, 8448, Note_on_c, 0, 72, 127
2, 8568, Note_off_c, 0, 72, 100
2, 8832, Note_on_c, 0, 76, 127
2, 8952, Note_off_c, 0, 76, 100
2, 9216, Note_on_c, 0, 69, 127
2, 9336, Note_off_c, 0, 69, 100
2, 9600, Note_on_c, 0, 74, 127
2, 10112, Note_off_c, 0, 74, 100
2, 10368, Note_on_c, 0, 72, 127
2, 10744, Note_off_c, 0, 72, 100
2, 11136, Note_on_c, 0, 71, 127
2, 11320, Note_off_c, 0, 71, 100
2, 11328, Note_on_c, 0, 69, 127
2, 11512, Note_off_c, 0, 69, 100
2, 11520, Note_on_c, 0, 71, 127
2, 12472, Note_off_c, 0, 71, 100
2, 12672, Note_on_c, 0, 71, 127
2, 12856, Note_off_c, 0, 71, 100
2, 12864, Note_on_c, 0, 69, 127
2, 13048, Note_off_c, 0, 69, 100
2, 13056, Note_on_c, 0, 71, 127
2, 13176, Note_off_c, 0, 71, 100
2, 13440, Note_on_c, 0, 76, 127
2, 13560, Note_off_c, 0, 76, 100
2, 13824, Note_on_c, 0, 73, 127
2, 13944, Note_off_c, 0, 73, 100
2, 14208, Note_on_c, 0, 81, 127
2, 14720, Note_off_c, 0, 81, 100
2, 14976, Note_on_c, 0, 79, 127
2, 15160, Note_off_c, 0, 79, 100
2, 15168, Note_on_c, 0, 78, 127
2, 15352, Note_off_c, 0, 78, 100
2, 15360, Note_on_c, 0, 81, 127
2, 15624, Note_off_c, 0, 81, 100
2, 15632, Note_on_c, 0, 79, 127
2, 15832, Note_off_c, 0, 79, 100
2, 15840, Note_on_c, 0, 81, 127
2, 16000, Note_off_c, 0, 81, 99
2, 16008, Note_on_c, 0, 79, 127
2, 16128, Note_off_c, 0, 79, 100
2, 16128, Note_on_c, 0, 81, 127
2, 16224, Note_off_c, 0, 81, 100
2, 16232, Note_on_c, 0, 79, 127
2, 16320, Note_off_c, 0, 79, 100
2, 16328, Note_on_c, 0, 81, 127
2, 16408, Note_off_c, 0, 81, 100
2, 16416, Note_on_c, 0, 79, 127
2, 16488, Note_off_c, 0, 79, 100
2, 16496, Note_on_c, 0, 81, 127
2, 16568, Note_off_c, 0, 81, 100
2, 16576, Note_on_c, 0, 79, 127
2, 16648, Note_off_c, 0, 79, 100
2, 16656, Note_on_c, 0, 81, 127
2, 16728, Note_off_c, 0, 81, 100
2, 16736, Note_on_c, 0, 79, 127
2, 16808, Note_off_c, 0, 79, 100
2, 16816, Note_on_c, 0, 81, 127
2, 16888, Note_off_c, 0, 81, 100
2, 16896, Note_on_c, 0, 79, 127
2, 16968, Note_off_c, 0, 79, 100
2, 16976, Note_on_c, 0, 81, 127
2, 17048, Note_off_c, 0, 81, 100
2, 17056, Note_on_c, 0, 79, 127
2, 17128, Note_off_c, 0, 79, 100
2, 17136, Note_on_c, 0, 81, 127
2, 17208, Note_off_c, 0, 81, 100
2, 17216, Note_on_c, 0, 79, 127
2, 17288, Note_off_c, 0, 79, 100
2, 17296, Note_on_c, 0, 81, 127
2, 17368, Note_off_c, 0, 81, 100
2, 17376, Note_on_c, 0, 79, 127
2, 17448, Note_off_c, 0, 79, 100
2, 17456, Note_on_c, 0, 81, 127
2, 17528, Note_off_c, 0, 81, 100
2, 17536, Note_on_c, 0, 79, 127
2, 17608, Note_off_c, 0, 79, 100
2, 17616, Note_on_c, 0, 81, 127
2, 17688, Note_off_c, 0, 81, 100
2, 17696, Note_on_c, 0, 79, 127
2, 17768, Note_off_c, 0, 79, 100
2, 17776, Note_on_c, 0, 81, 127
2, 17848, Note_off_c, 0, 81, 100
2, 17856, Note_on_c, 0, 79, 127
2, 17928, Note_off_c, 0, 79, 100
2, 17936, Note_on_c, 0, 81, 127
2, 18008, Note_off_c, 0, 81, 100
2, 18016, Note_on_c, 0, 79, 127
2, 18088, Note_off_c, 0, 79, 100
2, 18096, Note_on_c, 0, 81, 127
2, 18168, Note_off_c, 0, 81, 100
2, 18176, Note_on_c, 0, 79, 127
2, 18248, Note_off_c, 0, 79, 100
2, 18256, Note_on_c, 0, 81, 127
2, 18328, Note_off_c, 0, 81, 100
2, 18336, Note_on_c, 0, 79, 127
2, 18560, Note_off_c, 0, 79, 100
2, 18816, Note_on_c, 0, 78, 127
2, 19000, Note_off_c, 0, 78, 100
2, 19008, Note_on_c, 0, 76, 127
2, 19192, Note_off_c, 0, 76, 100
2, 19200, Note_on_c, 0, 78, 127
2, 19320, Note_off_c, 0, 78, 100
2, 19584, Note_on_c, 0, 81, 127
2, 19704, Note_off_c, 0, 81, 100
2, 19968, Note_on_c, 0, 74, 127
2, 20480, Note_off_c, 0, 74, 100
2, 20736, Note_on_c, 0, 79, 127
2, 21496, Note_off_c, 0, 79, 100
2, 21888, Note_on_c, 0, 78, 127
2, 22008, Note_off_c, 0, 78, 100
2, 22272, Note_on_c, 0, 76, 127
2, 22784, Note_off_c, 0, 76, 100
2, 23040, Note_on_c, 0, 74, 127
2, 24320, Note_off_c, 0, 74, 100
2, 31488, Note_on_c, 0, 74, 112
2, 32248, Note_off_c, 0, 74, 100
2, 32640, Note_on_c, 0, 72, 112
2, 32824, Note_off_c, 0, 72, 100
2, 32832, Note_on_c, 0, 71, 112
2, 33016, Note_off_c, 0, 71, 100
2, 33024, Note_on_c, 0, 72, 112
2, 33144, Note_off_c, 0, 72, 100
2, 33280, Note_on_c, 0, 72, 112
2, 33336, Note_off_c, 0, 72, 100
2, 33344, Note_on_c, 0, 74, 112
2, 33400, Note_off_c, 0, 74, 100
2, 33408, Note_on_c, 0, 76, 112
2, 33528, Note_off_c, 0, 76, 100
2, 33792, Note_on_c, 0, 69, 112
2, 33912, Note_off_c, 0, 69, 100
2, 34176, Note_on_c, 0, 74, 112
2, 34688, Note_off_c, 0, 74, 100
2, 34944, Note_on_c, 0, 72, 112
2, 35320, Note_off_c, 0, 72, 100
2, 35712, Note_on_c, 0, 71, 112
2, 35896, Note_off_c, 0, 71, 100
2, 35904, Note_on_c, 0, 69, 112
2, 36088, Note_off_c, 0, 69, 100
2, 36096, Note_on_c, 0, 71, 112
2, 37048, Note_off_c, 0, 71, 100
2, 37248, Note_on_c, 0, 71, 112
2, 37432, Note_off_c, 0, 71, 100
2, 37440, Note_on_c, 0, 69, 112
2, 37624, Note_off_c, 0, 69, 100
2, 37632, Note_on_c, 0, 71, 112
2, 37752, Note_off_c, 0, 71, 100
2, 38016, Note_on_c, 0, 76, 112
2, 38136, Note_off_c, 0, 76, 100
2, 38400, Note_on_c, 0, 73, 112
2, 38520, Note_off_c, 0, 73, 100
2, 38784, Note_on_c, 0, 81, 112
2, 39296, Note_off_c, 0, 81, 100
2, 39552, Note_on_c, 0, 79, 112
2, 39736, Note_off_c, 0, 79, 100
2, 39744, Note_on_c, 0, 78, 112
2, 39928, Note_off_c, 0, 78, 100
2, 39936, Note_on_c, 0, 81, 112
2, 40200, Note_off_c, 0, 81, 100
2, 40208, Note_on_c, 0, 79, 112
2, 40408, Note_off_c, 0, 79, 100
2, 40416, Note_on_c, 0, 78, 112
2, 40576, Note_off_c, 0, 78, 99
2, 40584, Note_on_c, 0, 79, 112
2, 40704, Note_off_c, 0, 79, 100
2, 40704, Note_on_c, 0, 81, 112
2, 40800, Note_off_c, 0, 81, 100
2, 40808, Note_on_c, 0, 79, 112
2, 40896, Note_off_c, 0, 79, 100
2, 40904, Note_on_c, 0, 81, 112
2, 40984, Note_off_c, 0, 81, 100
2, 40992, Note_on_c, 0, 79, 112
2, 41064, Note_off_c, 0, 79, 100
2, 41072, Note_on_c, 0, 81, 112
2, 41144, Note_off_c, 0, 81, 100
2, 41152, Note_on_c, 0, 79, 112
2, 41224, Note_off_c, 0, 79, 100
2, 41232, Note_on_c, 0, 81, 112
2, 41304, Note_off_c, 0, 81, 100
2, 41312, Note_on_c, 0, 79, 112
2, 41384, Note_off_c, 0, 79, 100
2, 41392, Note_on_c, 0, 81, 112
2, 41464, Note_off_c, 0, 81, 100
2, 41472, Note_on_c, 0, 79, 112
2, 41544, Note_off_c, 0, 79, 100
2, 41552, Note_on_c, 0, 81, 112
2, 41624, Note_off_c, 0, 81, 100
2, 41632, Note_on_c, 0, 79, 112
2, 41704, Note_off_c, 0, 79, 100
2, 41712, Note_on_c, 0, 81, 112
2, 41784, Note_off_c, 0, 81, 100
2, 41792, Note_on_c, 0, 79, 112
2, 41864, Note_off_c, 0, 79, 100
2, 41872, Note_on_c, 0, 81, 112
2, 41944, Note_off_c, 0, 81, 100
2, 41952, Note_on_c, 0, 79, 112
2, 42024, Note_off_c, 0, 79, 100
2, 42032, Note_on_c, 0, 81, 112
2, 42104, Note_off_c, 0, 81, 100
2, 42112, Note_on_c, 0, 79, 112
2, 42184, Note_off_c, 0, 79, 100
2, 42192, Note_on_c, 0, 81, 112
2, 42264, Note_off_c, 0, 81, 100
2, 42272, Note_on_c, 0, 79, 112
2, 42344, Note_off_c, 0, 79, 100
2, 42352, Note_on_c, 0, 81, 112
2, 42424, Note_off_c, 0, 81, 100
2, 42432, Note_on_c, 0, 79, 112
2, 42504, Note_off_c, 0, 79, 100
2, 42512, Note_on_c, 0, 81, 112
2, 42584, Note_off_c, 0, 81, 100
2, 42592, Note_on_c, 0, 79, 112
2, 42664, Note_off_c, 0, 79, 100
2, 42672, Note_on_c, 0, 81, 112
2, 42744, Note_off_c, 0, 81, 100
2, 42752, Note_on_c, 0, 79, 112
2, 42824, Note_off_c, 0, 79, 100
2, 42832, Note_on_c, 0, 81, 112
2, 42904, Note_off_c, 0, 81, 100
2, 42912, Note_on_c, 0, 79, 112
2, 43136, Note_off_c, 0, 79, 100
2, 43392, Note_on_c, 0, 78, 112
2, 43576, Note_off_c, 0, 78, 100
2, 43584, Note_on_c, 0, 76, 112
2, 43768, Note_off_c, 0, 76, 100
2, 43776, Note_on_c, 0, 78, 112
2, 43896, Note_off_c, 0, 78, 100
2, 44032, Note_on_c, 0, 78, 112
2, 44088, Note_off_c, 0, 78, 100
2, 44096, Note_on_c, 0, 79, 112
2, 44152, Note_off_c, 0, 79, 100
2, 44160, Note_on_c, 0, 81, 112
2, 44280, Note_off_c, 0, 81, 100
2, 44544, Note_on_c, 0, 74, 112
2, 45056, Note_off_c, 0, 74, 100
2, 45312, Note_on_c, 0, 79, 112
2, 46072, Note_off_c, 0, 79, 100
2, 46464, Note_on_c, 0, 78, 112
2, 46584, Note_off_c, 0, 78, 100
2, 46848, Note_on_c, 0, 76, 112
2, 47360, Note_off_c, 0, 76, 100
2, 47616, Note_on_c, 0, 74, 112
2, 48896, Note_off_c, 0, 74, 100
2, 51456, Note_on_c, 0, 71, 127
2, 52216, Note_off_c, 0, 71, 100
2, 52608, Note_on_c, 0, 69, 127
2, 52792, Note_off_c, 0, 69, 100
2, 52800, Note_on_c, 0, 67, 127
2, 52984, Note_off_c, 0, 67, 100
2, 52992, Note_on_c, 0, 69, 127
2, 53112, Note_off_c, 0, 69, 100
2, 53376, Note_on_c, 0, 72, 127
2, 53496, Note_off_c, 0, 72, 100
2, 53760, Note_on_c, 0, 66, 127
2, 54272, Note_off_c, 0, 66, 100
2, 54528, Note_on_c, 0, 71, 127
2, 55040, Note_off_c, 0, 71, 100
2, 56064, Note_on_c, 0, 79, 127
2, 56824, Note_off_c, 0, 79, 100
2, 57216, Note_on_c, 0, 78, 127
2, 57400, Note_off_c, 0, 78, 100
2, 57408, Note_on_c, 0, 76, 127
2, 57592, Note_off_c, 0, 76, 100
2, 57600, Note_on_c, 0, 78, 127
2, 57720, Note_off_c, 0, 78, 100
2, 57984, Note_on_c, 0, 81, 127
2, 58104, Note_off_c, 0, 81, 100
2, 58368, Note_on_c, 0, 75, 127
2, 58488, Note_off_c, 0, 75, 100
2, 58752, Note_on_c, 0, 76, 127
2, 59264, Note_off_c, 0, 76, 100
2, 59520, Note_on_c, 0, 75, 127
2, 59640, Note_off_c, 0, 75, 100
2, 59904, Note_on_c, 0, 76, 127
2, 60416, Note_off_c, 0, 76, 100
2, 60672, Note_on_c, 0, 71, 127
2, 61432, Note_off_c, 0, 71, 100
2, 61824, Note_on_c, 0, 69, 127
2, 62008, Note_off_c, 0, 69, 100
2, 62016, Note_on_c, 0, 67, 127
2, 62200, Note_off_c, 0, 67, 100
2, 62208, Note_on_c, 0, 69, 127
2, 62328, Note_off_c, 0, 69, 100
2, 62592, Note_on_c, 0, 72, 127
2, 62712, Note_off_c, 0, 72, 100
2, 62976, Note_on_c, 0, 66, 127
2, 63096, Note_off_c, 0, 66, 100
2, 63360, Note_on_c, 0, 62, 127
2, 63480, Note_off_c, 0, 62, 100
2, 63744, Note_on_c, 0, 67, 127
2, 64504, Note_off_c, 0, 67, 100
2, 64896, Note_on_c, 0, 66, 127
2, 65080, Note_off_c, 0, 66, 100
2, 65088, Note_on_c, 0, 64, 127
2, 65272, Note_off_c, 0, 64, 100
2, 65280, Note_on_c, 0, 66, 127
2, 65400, Note_off_c, 0, 66, 100
2, 65664, Note_on_c, 0, 69, 127
2, 65784, Note_off_c, 0, 69, 100
2, 66048, Note_on_c, 0, 62, 127
2, 66808, Note_off_c, 0, 62, 100
2, 68352, Note_on_c, 0, 67, 127
2, 69112, Note_off_c, 0, 67, 100
2, 69504, Note_on_c, 0, 67, 127
2, 69688, Note_off_c, 0, 67, 100
2, 69696, Note_on_c, 0, 66, 127
2, 69880, Note_off_c, 0, 66, 100
2, 69888, Note_on_c, 0, 67, 127
2, 70648, Note_off_c, 0, 67, 100
2, 71040, Note_on_c, 0, 66, 127
2, 71224, Note_off_c, 0, 66, 100
2, 71232, Note_on_c, 0, 64, 127
2, 71416, Note_off_c, 0, 64, 100
2, 71424, Note_on_c, 0, 66, 127
2, 71544, Note_off_c, 0, 66, 100
2, 71808, Note_on_c, 0, 69, 127
2, 72184, Note_off_c, 0, 69, 100
2, 72576, Note_on_c, 0, 67, 127
2, 72704, Note_off_c, 0, 67, 100
2, 72768, Note_on_c, 0, 66, 127
2, 72896, Note_off_c, 0, 66, 100
2, 72960, Note_on_c, 0, 67, 127
2, 73472, Note_off_c, 0, 67, 100
2, 76032, Note_on_c, 0, 71, 112
2, 76792, Note_off_c, 0, 71, 100
2, 77184, Note_on_c, 0, 69, 112
2, 77368, Note_off_c, 0, 69, 100
2, 77376, Note_on_c, 0, 67, 112
2, 77560, Note_off_c, 0, 67, 100
2, 77568, Note_on_c, 0, 69, 112
2, 77688, Note_off_c, 0, 69, 100
2, 77952, Note_on_c, 0, 72, 112
2, 78072, Note_off_c, 0, 72, 100
2, 78336, Note_on_c, 0, 66, 112
2, 78848, Note_off_c, 0, 66, 100
2, 79104, Note_on_c, 0, 71, 112
2, 79616, Note_off_c, 0, 71, 100
2, 80640, Note_on_c, 0, 79, 112
2, 81400, Note_off_c, 0, 79, 100
2, 81792, Note_on_c, 0, 78, 112
2, 81976, Note_off_c, 0, 78, 100
2, 81984, Note_on_c, 0, 76, 112
2, 82168, Note_off_c, 0, 76, 100
2, 82176, Note_on_c, 0, 78, 112
2, 82296, Note_off_c, 0, 78, 100
2, 82560, Note_on_c, 0, 81, 112
2, 82680, Note_off_c, 0, 81, 100
2, 82944, Note_on_c, 0, 75, 112
2, 83064, Note_off_c, 0, 75, 100
2, 83328, Note_on_c, 0, 76, 112
2, 83840, Note_off_c, 0, 76, 100
2, 84096, Note_on_c, 0, 75, 112
2, 84216, Note_off_c, 0, 75, 100
2, 84480, Note_on_c, 0, 76, 112
2, 84992, Note_off_c, 0, 76, 100
2, 85248, Note_on_c, 0, 71, 112
2, 86008, Note_off_c, 0, 71, 100
2, 86400, Note_on_c, 0, 69, 112
2, 86584, Note_off_c, 0, 69, 100
2, 86592, Note_on_c, 0, 67, 112
2, 86776, Note_off_c, 0, 67, 100
2, 86784, Note_on_c, 0, 69, 112
2, 86904, Note_off_c, 0, 69, 100
2, 87168, Note_on_c, 0, 72, 112
2, 87288, Note_off_c, 0, 72, 100
2, 87552, Note_on_c, 0, 66, 112
2, 87672, Note_off_c, 0, 66, 100
2, 87936, Note_on_c, 0, 62, 112
2, 88056, Note_off_c, 0, 62, 100
2, 88320, Note_on_c, 0, 67, 112
2, 89080, Note_off_c, 0, 67, 100
2, 89472, Note_on_c, 0, 66, 112
2, 89656, Note_off_c, 0, 66, 100
2, 89664, Note_on_c, 0, 64, 112
2, 89848, Note_off_c, 0, 64, 100
2, 89856, Note_on_c, 0, 66, 112
2, 89976, Note_off_c, 0, 66, 100
2, 90240, Note_on_c, 0, 69, 112
2, 90360, Note_off_c, 0, 69, 100
2, 90624, Note_on_c, 0, 62, 112
2, 91384, Note_off_c, 0, 62, 100
2, 92928, Note_on_c, 0, 67, 112
2, 93688, Note_off_c, 0, 67, 100
2, 94080, Note_on_c, 0, 67, 112
2, 94264, Note_off_c, 0, 67, 100
2, 94272, Note_on_c, 0, 66, 112
2, 94456, Note_off_c, 0, 66, 100
2, 94464, Note_on_c, 0, 67, 112
2, 95224, Note_off_c, 0, 67, 100
2, 95616, Note_on_c, 0, 66, 112
2, 95800, Note_off_c, 0, 66, 100
2, 95808, Note_on_c, 0, 64, 112
2, 95992, Note_off_c, 0, 64, 100
2, 96000, Note_on_c, 0, 66, 112
2, 96120, Note_off_c, 0, 66, 100
2, 96256, Note_on_c, 0, 66, 112
2, 96312, Note_off_c, 0, 66, 100
2, 96320, Note_on_c, 0, 67, 112
2, 96376, Note_off_c, 0, 67, 100
2, 96384, Note_on_c, 0, 69, 112
2, 96760, Note_off_c, 0, 69, 100
2, 97152, Note_on_c, 0, 67, 112
2, 97280, Note_off_c, 0, 67, 100
2, 97344, Note_on_c, 0, 66, 112
2, 97472, Note_off_c, 0, 66, 100
2, 97536, Note_on_c, 0, 67, 112
2, 98048, Note_off_c, 0, 67, 100
2, 98048, End_track
3, 0, Start_track
3, 0, Title_t, "Goldberg Variations"
3, 0, Control_c, 1, 0, 0
3, 0, Program_c, 1, 6
3, 0, Control_c, 1, 7, 127
3, 0, Control_c, 1, 10, 42
3, 0, Control_c, 1, 91, 127
3, 0, Key_signature, 1, "major"
3, 3840, Note_on_c, 1, 67, 127
3, 4600, Note_off_c, 1, 67, 100
3, 4992, Note_on_c, 1, 66, 127
3, 5176, Note_off_c, 1, 66, 100
3, 5184, Note_on_c, 1, 64, 127
3, 5368, Note_off_c, 1, 64, 100
3, 5376, Note_on_c, 1, 66, 127
3, 5496, Note_off_c, 1, 66, 100
3, 5760, Note_on_c, 1, 69, 127
3, 5880, Note_off_c, 1, 69, 100
3, 6144, Note_on_c, 1, 62, 127
3, 6912, Note_off_c, 1, 62, 100
3, 7296, Note_on_c, 1, 65, 127
3, 7416, Note_off_c, 1, 65, 100
3, 7680, Note_on_c, 1, 64, 127
3, 8448, Note_off_c, 1, 64, 100
3, 8832, Note_on_c, 1, 67, 127
3, 9208, Note_off_c, 1, 67, 100
3, 9600, Note_on_c, 1, 66, 127
3, 9784, Note_off_c, 1, 66, 100
3, 9792, Note_on_c, 1, 64, 127
3, 9976, Note_off_c, 1, 64, 100
3, 9984, Note_on_c, 1, 66, 127
3, 10104, Note_off_c, 1, 66, 100
3, 10368, Note_on_c, 1, 69, 127
3, 10744, Note_off_c, 1, 69, 100
3, 11136, Note_on_c, 1, 67, 127
3, 11320, Note_off_c, 1, 67, 100
3, 11328, Note_on_c, 1, 66, 127
3, 11512, Note_off_c, 1, 66, 100
3, 11520, Note_on_c, 1, 67, 127
3, 11640, Note_off_c, 1, 67, 100
3, 11904, Note_on_c, 1, 71, 127
3, 12024, Note_off_c, 1, 71, 100
3, 12288, Note_on_c, 1, 64, 127
3, 12800, Note_off_c, 1, 64, 100
3, 13056, Note_on_c, 1, 71, 127
3, 13568, Note_off_c, 1, 71, 100
3, 13824, Note_on_c, 1, 69, 127
3, 14336, Note_off_c, 1, 69, 100
3, 14592, Note_on_c, 1, 74, 127
3, 15104, Note_off_c, 1, 74, 100
3, 15360, Note_on_c, 1, 76, 127
3, 18424, Note_off_c, 1, 76, 100
3, 18816, Note_on_c, 1, 74, 127
3, 19000, Note_off_c, 1, 74, 100
3, 19008, Note_on_c, 1, 73, 127
3, 19192, Note_off_c, 1, 73, 100
3, 19200, Note_on_c, 1, 74, 127
3, 19320, Note_off_c, 1, 74, 100
3, 19584, Note_on_c, 1, 78, 127
3, 19704, Note_off_c, 1, 78, 100
3, 19968, Note_on_c, 1, 71, 127
3, 20736, Note_off_c, 1, 71, 100
3, 21120, Note_on_c, 1, 76, 127
3, 21304, Note_off_c, 1, 76, 100
3, 21312, Note_on_c, 1, 74, 127
3, 21496, Note_off_c, 1, 74, 100
3, 21504, Note_on_c, 1, 76, 127
3, 21624, Note_off_c, 1, 76, 100
3, 21888, Note_on_c, 1, 74, 127
3, 22400, Note_off_c, 1, 74, 100
3, 22656, Note_on_c, 1, 73, 127
3, 22776, Note_off_c, 1, 73, 100
3, 23040, Note_on_c, 1, 74, 127
3, 23160, Note_off_c, 1, 74, 100
3, 23424, Note_on_c, 1, 69, 127
3, 23552, Note_off_c, 1, 69, 100
3, 23616, Note_on_c, 1, 67, 127
3, 23744, Note_off_c, 1, 67, 100
3, 23808, Note_on_c, 1, 69, 127
3, 24320, Note_off_c, 1, 69, 100
3, 28416, Note_on_c, 1, 67, 112
3, 29176, Note_off_c, 1, 67, 100
3, 29568, Note_on_c, 1, 66, 112
3, 29752, Note_off_c, 1, 66, 100
3, 29760, Note_on_c, 1, 64, 112
3, 29944, Note_off_c, 1, 64, 100
3, 29952, Note_on_c, 1, 66, 112
3, 30072, Note_off_c, 1, 66, 100
3, 30208, Note_on_c, 1, 66, 112
3, 30264, Note_off_c, 1, 66, 100
3, 30272, Note_on_c, 1, 67, 112
3, 30328, Note_off_c, 1, 67, 100
3, 30336, Note_on_c, 1, 69, 112
3, 30456, Note_off_c, 1, 69, 100
3, 30720, Note_on_c, 1, 62, 112
3, 31488, Note_off_c, 1, 62, 100
3, 31872, Note_on_c, 1, 65, 112
3, 31992, Note_off_c, 1, 65, 100
3, 32256, Note_on_c, 1, 64, 112
3, 33024, Note_off_c, 1, 64, 100
3, 33408, Note_on_c, 1, 67, 112
3, 33784, Note_off_c, 1, 67, 100
3, 34176, Note_on_c, 1, 66, 112
3, 34360, Note_off_c, 1, 66, 100
3, 34368, Note_on_c, 1, 64, 112
3, 34552, Note_off_c, 1, 64, 100
3, 34560, Note_on_c, 1, 66, 112
3, 34680, Note_off_c, 1, 66, 100
3, 34944, Note_on_c, 1, 69, 112
3, 35320, Note_off_c, 1, 69, 100
3, 35712, Note_on_c, 1, 67, 112
3, 35896, Note_off_c, 1, 67, 100
3, 35904, Note_on_c, 1, 66, 112
3, 36088, Note_off_c, 1, 66, 100
3, 36096, Note_on_c, 1, 67, 112
3, 36216, Note_off_c, 1, 67, 100
3, 36480, Note_on_c, 1, 71, 112
3, 36600, Note_off_c, 1, 71, 100
3, 36864, Note_on_c, 1, 64, 112
3, 37376, Note_off_c, 1, 64, 100
3, 37632, Note_on_c, 1, 71, 112
3, 38144, Note_off_c, 1, 71, 100
3, 38400, Note_on_c, 1, 69, 112
3, 38912, Note_off_c, 1, 69, 100
3, 39168, Note_on_c, 1, 74, 112
3, 39680, Note_off_c, 1, 74, 100
3, 39936, Note_on_c, 1, 76, 112
3, 43000, Note_off_c, 1, 76, 100
3, 43392, Note_on_c, 1, 74, 112
3, 43576, Note_off_c, 1, 74, 100
3, 43584, Note_on_c, 1, 73, 112
3, 43768, Note_off_c, 1, 73, 100
3, 43776, Note_on_c, 1, 74, 112
3, 43896, Note_off_c, 1, 74, 100
3, 44160, Note_on_c, 1, 78, 112
3, 44280, Note_off_c, 1, 78, 100
3, 44544, Note_on_c, 1, 71, 112
3, 45312, Note_off_c, 1, 71, 100
3, 45696, Note_on_c, 1, 76, 112
3, 45880, Note_off_c, 1, 76, 100
3, 45888, Note_on_c, 1, 74, 112
3, 46072, Note_off_c, 1, 74, 100
3, 46080, Note_on_c, 1, 76, 112
3, 46200, Note_off_c, 1, 76, 100
3, 46464, Note_on_c, 1, 74, 112
3, 46976, Note_off_c, 1, 74, 100
3, 47168, Note_on_c, 1, 74, 112
3, 47224, Note_off_c, 1, 74, 100
3, 47232, Note_on_c, 1, 73, 112
3, 47288, Note_off_c, 1, 73, 100
3, 47296, Note_on_c, 1, 74, 112
3, 47352, Note_off_c, 1, 74, 100
3, 47360, Note_on_c, 1, 73, 112
3, 47416, Note_off_c, 1, 73, 100
3, 47616, Note_on_c, 1, 74, 112
3, 47736, Note_off_c, 1, 74, 100
3, 48000, Note_on_c, 1, 69, 112
3, 48128, Note_off_c, 1, 69, 100
3, 48192, Note_on_c, 1, 67, 112
3, 48320, Note_off_c, 1, 67, 100
3, 48384, Note_on_c, 1, 69, 112
3, 48896, Note_off_c, 1, 69, 100
3, 49920, Note_on_c, 1, 81, 127
3, 50680, Note_off_c, 1, 81, 100
3, 51072, Note_on_c, 1, 79, 127
3, 51256, Note_off_c, 1, 79, 100
3, 51264, Note_on_c, 1, 78, 127
3, 51448, Note_off_c, 1, 78, 100
3, 51456, Note_on_c, 1, 79, 127
3, 51576, Note_off_c, 1, 79, 100
3, 51840, Note_on_c, 1, 83, 127
3, 51960, Note_off_c, 1, 83, 100
3, 52224, Note_on_c, 1, 76, 127
3, 53752, Note_off_c, 1, 76, 100
3, 54144, Note_on_c, 1, 75, 127
3, 54328, Note_off_c, 1, 75, 100
3, 54336, Note_on_c, 1, 73, 127
3, 54520, Note_off_c, 1, 73, 100
3, 54528, Note_on_c, 1, 75, 127
3, 54648, Note_off_c, 1, 75, 100
3, 54912, Note_on_c, 1, 78, 127
3, 55032, Note_off_c, 1, 78, 100
3, 55296, Note_on_c, 1, 83, 127
3, 55416, Note_off_c, 1, 83, 100
3, 55680, Note_on_c, 1, 71, 127
3, 55800, Note_off_c, 1, 71, 100
3, 56064, Note_on_c, 1, 83, 127
3, 56824, Note_off_c, 1, 83, 100
3, 57216, Note_on_c, 1, 81, 127
3, 57400, Note_off_c, 1, 81, 100
3, 57408, Note_on_c, 1, 79, 127
3, 57592, Note_off_c, 1, 79, 100
3, 57600, Note_on_c, 1, 81, 127
3, 57720, Note_off_c, 1, 81, 100
3, 57984, Note_on_c, 1, 84, 127
3, 58104, Note_off_c, 1, 84, 100
3, 58368, Note_on_c, 1, 78, 127
3, 58488, Note_off_c, 1, 78, 100
3, 58752, Note_on_c, 1, 79, 127
3, 58872, Note_off_c, 1, 79, 100
3, 59136, Note_on_c, 1, 81, 127
3, 59896, Note_off_c, 1, 81, 100
3, 60288, Note_on_c, 1, 79, 127
3, 60472, Note_off_c, 1, 79, 100
3, 60480, Note_on_c, 1, 78, 127
3, 60664, Note_off_c, 1, 78, 100
3, 60672, Note_on_c, 1, 79, 127
3, 60792, Note_off_c, 1, 79, 100
3, 61056, Note_on_c, 1, 83, 127
3, 61176, Note_off_c, 1, 83, 100
3, 61440, Note_on_c, 1, 76, 127
3, 62464, Note_off_c, 1, 76, 100
3, 62976, Note_on_c, 1, 74, 127
3, 64000, Note_off_c, 1, 74, 100
3, 64512, Note_on_c, 1, 72, 127
3, 65536, Note_off_c, 1, 72, 100
3, 66816, Note_on_c, 1, 74, 127
3, 67576, Note_off_c, 1, 74, 100
3, 67968, Note_on_c, 1, 72, 127
3, 68152, Note_off_c, 1, 72, 100
3, 68160, Note_on_c, 1, 71, 127
3, 68344, Note_off_c, 1, 71, 100
3, 68352, Note_on_c, 1, 72, 127
3, 68472, Note_off_c, 1, 72, 100
3, 68736, Note_on_c, 1, 76, 127
3, 68856, Note_off_c, 1, 76, 100
3, 69120, Note_on_c, 1, 69, 127
3, 69880, Note_off_c, 1, 69, 100
3, 70080, Note_on_c, 1, 76, 127
3, 70264, Note_off_c, 1, 76, 100
3, 70272, Note_on_c, 1, 74, 127
3, 70456, Note_off_c, 1, 74, 100
3, 70464, Note_on_c, 1, 76, 127
3, 70648, Note_off_c, 1, 76, 100
3, 70656, Note_on_c, 1, 69, 127
3, 70776, Note_off_c, 1, 69, 100
3, 71040, Note_on_c, 1, 74, 127
3, 71800, Note_off_c, 1, 74, 100
3, 71808, Note_on_c, 1, 72, 127
3, 72184, Note_off_c, 1, 72, 100
3, 72576, Note_on_c, 1, 71, 127
3, 72704, Note_off_c, 1, 71, 100
3, 72768, Note_on_c, 1, 69, 127
3, 72896, Note_off_c, 1, 69, 100
3, 72960, Note_on_c, 1, 71, 127
3, 73472, Note_off_c, 1, 71, 100
3, 74496, Note_on_c, 1, 81, 127
3, 75256, Note_off_c, 1, 81, 100
3, 75648, Note_on_c, 1, 79, 127
3, 75832, Note_off_c, 1, 79, 100
3, 75840, Note_on_c, 1, 78, 127
3, 76024, Note_off_c, 1, 78, 100
3, 76032, Note_on_c, 1, 79, 127
3, 76152, Note_off_c, 1, 79, 100
3, 76416, Note_on_c, 1, 83, 127
3, 76536, Note_off_c, 1, 83, 100
3, 76800, Note_on_c, 1, 76, 127
3, 78328, Note_off_c, 1, 76, 100
3, 78720, Note_on_c, 1, 75, 127
3, 78904, Note_off_c, 1, 75, 100
3, 78912, Note_on_c, 1, 73, 127
3, 79096, Note_off_c, 1, 73, 100
3, 79104, Note_on_c, 1, 75, 127
3, 79224, Note_off_c, 1, 75, 100
3, 79360, Note_on_c, 1, 78, 127
3, 79416, Note_off_c, 1, 78, 100
3, 79424, Note_on_c, 1, 76, 127
3, 79480, Note_off_c, 1, 76, 100
3, 79488, Note_on_c, 1, 78, 127
3, 79608, Note_off_c, 1, 78, 100
3, 79872, Note_on_c, 1, 83, 127
3, 79992, Note_off_c, 1, 83, 100
3, 80256, Note_on_c, 1, 71, 127
3, 80376, Note_off_c, 1, 71, 100
3, 80640, Note_on_c, 1, 83, 127
3, 81400, Note_off_c, 1, 83, 100
3, 81792, Note_on_c, 1, 81, 127
3, 81976, Note_off_c, 1, 81, 100
3, 81984, Note_on_c, 1, 79, 127
3, 82168, Note_off_c, 1, 79, 100
3, 82176, Note_on_c, 1, 81, 127
3, 82296, Note_off_c, 1, 81, 100
3, 82432, Note_on_c, 1, 81, 127
3, 82488, Note_off_c, 1, 81, 100
3, 82496, Note_on_c, 1, 83, 127
3, 82552, Note_off_c, 1, 83, 100
3, 82560, Note_on_c, 1, 84, 127
3, 82680, Note_off_c, 1, 84, 100
3, 82944, Note_on_c, 1, 78, 127
3, 83064, Note_off_c, 1, 78, 100
3, 83328, Note_on_c, 1, 81, 127
3, 83384, Note_off_c, 1, 81, 100
3, 83392, Note_on_c, 1, 79, 127
3, 83448, Note_off_c, 1, 79, 100
3, 83456, Note_on_c, 1, 81, 127
3, 83512, Note_off_c, 1, 81, 100
3, 83520, Note_on_c, 1, 79, 127
3, 83576, Note_off_c, 1, 79, 100
3, 83584, Note_on_c, 1, 78, 127
3, 83640, Note_off_c, 1, 78, 100
3, 83648, Note_on_c, 1, 79, 127
3, 83704, Note_off_c, 1, 79, 100
3, 83712, Note_on_c, 1, 81, 127
3, 84472, Note_off_c, 1, 81, 100
3, 84864, Note_on_c, 1, 79, 127
3, 85048, Note_off_c, 1, 79, 100
3, 85056, Note_on_c, 1, 78, 127
3, 85240, Note_off_c, 1, 78, 100
3, 85248, Note_on_c, 1, 79, 127
3, 85368, Note_off_c, 1, 79, 100
3, 85632, Note_on_c, 1, 83, 127
3, 85752, Note_off_c, 1, 83, 100
3, 86016, Note_on_c, 1, 76, 127
3, 87040, Note_off_c, 1, 76, 100
3, 87552, Note_on_c, 1, 74, 127
3, 88576, Note_off_c, 1, 74, 100
3, 89088, Note_on_c, 1, 72, 127
3, 90112, Note_off_c, 1, 72, 100
3, 91392, Note_on_c, 1, 74, 127
3, 92152, Note_off_c, 1, 74, 100
3, 92544, Note_on_c, 1, 72, 127
3, 92728, Note_off_c, 1, 72, 100
3, 92736, Note_on_c, 1, 71, 127
3, 92920, Note_off_c, 1, 71, 100
3, 92928, Note_on_c, 1, 72, 127
3, 93048, Note_off_c, 1, 72, 100
3, 93184, Note_on_c, 1, 72, 127
3, 93240, Note_off_c, 1, 72, 100
3, 93248, Note_on_c, 1, 74, 127
3, 93304, Note_off_c, 1, 74, 100
3, 93312, Note_on_c, 1, 76, 127
3, 93432, Note_off_c, 1, 76, 100
3, 93696, Note_on_c, 1, 69, 127
3, 94456, Note_off_c, 1, 69, 100
3, 94656, Note_on_c, 1, 76, 127
3, 94840, Note_off_c, 1, 76, 100
3, 94848, Note_on_c, 1, 74, 127
3, 95032, Note_off_c, 1, 74, 100
3, 95040, Note_on_c, 1, 76, 127
3, 95224, Note_off_c, 1, 76, 100
3, 95232, Note_on_c, 1, 69, 127
3, 95352, Note_off_c, 1, 69, 100
3, 95616, Note_on_c, 1, 74, 127
3, 96376, Note_off_c, 1, 74, 100
3, 96384, Note_on_c, 1, 72, 127
3, 96760, Note_off_c, 1, 72, 100
3, 97152, Note_on_c, 1, 71, 127
3, 97280, Note_off_c, 1, 71, 100
3, 97344, Note_on_c, 1, 69, 127
3, 97472, Note_off_c, 1, 69, 100
3, 97536, Note_on_c, 1, 71, 127
3, 98048, Note_off_c, 1, 71, 100
3, 98048, End_track
4, 0, Start_track
4, 0, Title_t, "BWV 988"
4, 0, Control_c, 2, 0, 0
4, 0, Program_c, 2, 6
4, 0, Control_c, 2, 7, 127
4, 0, Control_c, 2, 10, 93
4, 0, Control_c, 2, 91, 127
4, 0, Key_signature, 1, "major"
4, 768, Note_on_c, 2, 64, 127
4, 1528, Note_off_c, 2, 64, 100
4, 1920, Note_on_c, 2, 62, 127
4, 2104, Note_off_c, 2, 62, 100
4, 2112, Note_on_c, 2, 61, 127
4, 2296, Note_off_c, 2, 61, 100
4, 2304, Note_on_c, 2, 62, 127
4, 3064, Note_off_c, 2, 62, 100
4, 3456, Note_on_c, 2, 61, 127
4, 3640, Note_off_c, 2, 61, 100
4, 3648, Note_on_c, 2, 59, 127
4, 3832, Note_off_c, 2, 59, 100
4, 3840, Note_on_c, 2, 61, 127
4, 3960, Note_off_c, 2, 61, 100
4, 4224, Note_on_c, 2, 64, 127
4, 4344, Note_off_c, 2, 64, 100
4, 4608, Note_on_c, 2, 57, 127
4, 6136, Note_off_c, 2, 57, 100
4, 6528, Note_on_c, 2, 55, 127
4, 6712, Note_off_c, 2, 55, 100
4, 6720, Note_on_c, 2, 54, 127
4, 6904, Note_off_c, 2, 54, 100
4, 6912, Note_on_c, 2, 55, 127
4, 7672, Note_off_c, 2, 55, 100
4, 8064, Note_on_c, 2, 52, 127
4, 8184, Note_off_c, 2, 52, 100
4, 8448, Note_on_c, 2, 57, 127
4, 9208, Note_off_c, 2, 57, 100
4, 9600, Note_on_c, 2, 57, 127
4, 9784, Note_off_c, 2, 57, 100
4, 9792, Note_on_c, 2, 55, 127
4, 9976, Note_off_c, 2, 55, 100
4, 9984, Note_on_c, 2, 57, 127
4, 10104, Note_off_c, 2, 57, 100
4, 10368, Note_on_c, 2, 54, 127
4, 10488, Note_off_c, 2, 54, 100
4, 10752, Note_on_c, 2, 62, 127
4, 11512, Note_off_c, 2, 62, 100
4, 13056, Note_on_c, 2, 64, 127
4, 13816, Note_off_c, 2, 64, 100
4, 14208, Note_on_c, 2, 62, 127
4, 14392, Note_off_c, 2, 62, 100
4, 14400, Note_on_c, 2, 61, 127
4, 14584, Note_off_c, 2, 61, 100
4, 14592, Note_on_c, 2, 62, 127
4, 15352, Note_off_c, 2, 62, 100
4, 15744, Note_on_c, 2, 61, 127
4, 15928, Note_off_c, 2, 61, 100
4, 15936, Note_on_c, 2, 59, 127
4, 16120, Note_off_c, 2, 59, 100
4, 16128, Note_on_c, 2, 61, 127
4, 16248, Note_off_c, 2, 61, 100
4, 16512, Note_on_c, 2, 64, 127
4, 16632, Note_off_c, 2, 64, 100
4, 16896, Note_on_c, 2, 57, 127
4, 18424, Note_off_c, 2, 57, 100
4, 19200, Note_on_c, 2, 57, 127
4, 19960, Note_off_c, 2, 57, 100
4, 20352, Note_on_c, 2, 55, 127
4, 20536, Note_off_c, 2, 55, 100
4, 20544, Note_on_c, 2, 54, 127
4, 20728, Note_off_c, 2, 54, 100
4, 20736, Note_on_c, 2, 55, 127
4, 20856, Note_off_c, 2, 55, 100
4, 21120, Note_on_c, 2, 59, 127
4, 21240, Note_off_c, 2, 59, 100
4, 21504, Note_on_c, 2, 49, 127
4, 21624, Note_off_c, 2, 49, 100
4, 21888, Note_on_c, 2, 50, 127
4, 22008, Note_off_c, 2, 50, 100
4, 22272, Note_on_c, 2, 52, 127
4, 22456, Note_off_c, 2, 52, 100
4, 22464, Note_on_c, 2, 54, 127
4, 22648, Note_off_c, 2, 54, 100
4, 22656, Note_on_c, 2, 55, 127
4, 23032, Note_off_c, 2, 55, 100
4, 23424, Note_on_c, 2, 54, 127
4, 23552, Note_off_c, 2, 54, 100
4, 23616, Note_on_c, 2, 52, 127
4, 23744, Note_off_c, 2, 52, 100
4, 23808, Note_on_c, 2, 54, 127
4, 24320, Note_off_c, 2, 54, 100
4, 25344, Note_on_c, 2, 64, 112
4, 26104, Note_off_c, 2, 64, 100
4, 26496, Note_on_c, 2, 62, 112
4, 26680, Note_off_c, 2, 62, 100
4, 26688, Note_on_c, 2, 61, 112
4, 26872, Note_off_c, 2, 61, 100
4, 26880, Note_on_c, 2, 62, 112
4, 27640, Note_off_c, 2, 62, 100
4, 28032, Note_on_c, 2, 61, 112
4, 28216, Note_off_c, 2, 61, 100
4, 28224, Note_on_c, 2, 59, 112
4, 28408, Note_off_c, 2, 59, 100
4, 28416, Note_on_c, 2, 61, 112
4, 28536, Note_off_c, 2, 61, 100
4, 28800, Note_on_c, 2, 64, 112
4, 28920, Note_off_c, 2, 64, 100
4, 29184, Note_on_c, 2, 57, 112
4, 30712, Note_off_c, 2, 57, 100
4, 31104, Note_on_c, 2, 55, 112
4, 31288, Note_off_c, 2, 55, 100
4, 31296, Note_on_c, 2, 54, 112
4, 31480, Note_off_c, 2, 54, 100
4, 31488, Note_on_c, 2, 55, 112
4, 32248, Note_off_c, 2, 55, 100
4, 32640, Note_on_c, 2, 52, 112
4, 32760, Note_off_c, 2, 52, 100
4, 33024, Note_on_c, 2, 57, 112
4, 33784, Note_off_c, 2, 57, 100
4, 34176, Note_on_c, 2, 57, 112
4, 34360, Note_off_c, 2, 57, 100
4, 34368, Note_on_c, 2, 55, 112
4, 34552, Note_off_c, 2, 55, 100
4, 34560, Note_on_c, 2, 57, 112
4, 34680, Note_off_c, 2, 57, 100
4, 34944, Note_on_c, 2, 54, 112
4, 35064, Note_off_c, 2, 54, 100
4, 35328, Note_on_c, 2, 62, 112
4, 36088, Note_off_c, 2, 62, 100
4, 37632, Note_on_c, 2, 64, 112
4, 38392, Note_off_c, 2, 64, 100
4, 38784, Note_on_c, 2, 62, 112
4, 38968, Note_off_c, 2, 62, 100
4, 38976, Note_on_c, 2, 61, 112
4, 39160, Note_off_c, 2, 61, 100
4, 39168, Note_on_c, 2, 62, 112
4, 39928, Note_off_c, 2, 62, 100
4, 40320, Note_on_c, 2, 61, 112
4, 40504, Note_off_c, 2, 61, 100
4, 40512, Note_on_c, 2, 59, 112
4, 40696, Note_off_c, 2, 59, 100
4, 40704, Note_on_c, 2, 61, 112
4, 40824, Note_off_c, 2, 61, 100
4, 41088, Note_on_c, 2, 64, 112
4, 41208, Note_off_c, 2, 64, 100
4, 41472, Note_on_c, 2, 57, 112
4, 43000, Note_off_c, 2, 57, 100
4, 43776, Note_on_c, 2, 57, 112
4, 44536, Note_off_c, 2, 57, 100
4, 44928, Note_on_c, 2, 55, 112
4, 45112, Note_off_c, 2, 55, 100
4, 45120, Note_on_c, 2, 54, 112
4, 45304, Note_off_c, 2, 54, 100
4, 45312, Note_on_c, 2, 55, 112
4, 45432, Note_off_c, 2, 55, 100
4, 45696, Note_on_c, 2, 59, 112
4, 45816, Note_off_c, 2, 59, 100
4, 46080, Note_on_c, 2, 49, 112
4, 46200, Note_off_c, 2, 49, 100
4, 46464, Note_on_c, 2, 50, 112
4, 46584, Note_off_c, 2, 50, 100
4, 46848, Note_on_c, 2, 52, 112
4, 47032, Note_off_c, 2, 52, 100
4, 47040, Note_on_c, 2, 54, 112
4, 47224, Note_off_c, 2, 54, 100
4, 47232, Note_on_c, 2, 55, 112
4, 47608, Note_off_c, 2, 55, 100
4, 48000, Note_on_c, 2, 54, 112
4, 48128, Note_off_c, 2, 54, 100
4, 48192, Note_on_c, 2, 52, 112
4, 48320, Note_off_c, 2, 52, 100
4, 48384, Note_on_c, 2, 54, 112
4, 48896, Note_off_c, 2, 54, 100
4, 49152, Note_on_c, 2, 62, 127
4, 49920, Note_off_c, 2, 62, 100
4, 50304, Note_on_c, 2, 60, 127
4, 50424, Note_off_c, 2, 60, 100
4, 50688, Note_on_c, 2, 59, 127
4, 50808, Note_off_c, 2, 59, 100
4, 51072, Note_on_c, 2, 62, 127
4, 51192, Note_off_c, 2, 62, 100
4, 51456, Note_on_c, 2, 67, 127
4, 51576, Note_off_c, 2, 67, 100
4, 51840, Note_on_c, 2, 55, 127
4, 51960, Note_off_c, 2, 55, 100
4, 52224, Note_on_c, 2, 60, 127
4, 52344, Note_off_c, 2, 60, 100
4, 52608, Note_on_c, 2, 64, 127
4, 52728, Note_off_c, 2, 64, 100
4, 52992, Note_on_c, 2, 60, 127
4, 53112, Note_off_c, 2, 60, 100
4, 53376, Note_on_c, 2, 57, 127
4, 53496, Note_off_c, 2, 57, 100
4, 53760, Note_on_c, 2, 59, 127
4, 53880, Note_off_c, 2, 59, 100
4, 54144, Note_on_c, 2, 47, 127
4, 54264, Note_off_c, 2, 47, 100
4, 54528, Note_on_c, 2, 59, 127
4, 54648, Note_off_c, 2, 59, 100
4, 54912, Note_on_c, 2, 57, 127
4, 55032, Note_off_c, 2, 57, 100
4, 55296, Note_on_c, 2, 55, 127
4, 56320, Note_off_c, 2, 55, 100
4, 56832, Note_on_c, 2, 57, 127
4, 57856, Note_off_c, 2, 57, 100
4, 58368, Note_on_c, 2, 59, 127
4, 59392, Note_off_c, 2, 59, 100
4, 59904, Note_on_c, 2, 52, 127
4, 60672, Note_off_c, 2, 52, 100
4, 61056, Note_on_c, 2, 50, 127
4, 61176, Note_off_c, 2, 50, 100
4, 61440, Note_on_c, 2, 48, 127
4, 61952, Note_off_c, 2, 48, 100
4, 62208, Note_on_c, 2, 60, 127
4, 62968, Note_off_c, 2, 60, 100
4, 63360, Note_on_c, 2, 59, 127
4, 63544, Note_off_c, 2, 59, 100
4, 63552, Note_on_c, 2, 57, 127
4, 63736, Note_off_c, 2, 57, 100
4, 63744, Note_on_c, 2, 59, 127
4, 63864, Note_off_c, 2, 59, 100
4, 64128, Note_on_c, 2, 64, 127
4, 64248, Note_off_c, 2, 64, 100
4, 64512, Note_on_c, 2, 57, 127
4, 65280, Note_off_c, 2, 57, 100
4, 65664, Note_on_c, 2, 55, 127
4, 65784, Note_off_c, 2, 55, 100
4, 66048, Note_on_c, 2, 54, 127
4, 66560, Note_off_c, 2, 54, 100
4, 66816, Note_on_c, 2, 55, 127
4, 67328, Note_off_c, 2, 55, 100
4, 67584, Note_on_c, 2, 52, 127
4, 68352, Note_off_c, 2, 52, 100
4, 68736, Note_on_c, 2, 50, 127
4, 68856, Note_off_c, 2, 50, 100
4, 69120, Note_on_c, 2, 48, 127
4, 69632, Note_off_c, 2, 48, 100
4, 69888, Note_on_c, 2, 49, 127
4, 70648, Note_off_c, 2, 49, 100
4, 70656, Note_on_c, 2, 50, 127
4, 71680, Note_off_c, 2, 50, 100
4, 72192, Note_on_c, 2, 43, 127
4, 73472, Note_off_c, 2, 43, 100
4, 73728, Note_on_c, 2, 62, 127
4, 74496, Note_off_c, 2, 62, 100
4, 74880, Note_on_c, 2, 60, 127
4, 75000, Note_off_c, 2, 60, 100
4, 75264, Note_on_c, 2, 59, 127
4, 75384, Note_off_c, 2, 59, 100
4, 75648, Note_on_c, 2, 62, 127
4, 75768, Note_off_c, 2, 62, 100
4, 76032, Note_on_c, 2, 67, 127
4, 76152, Note_off_c, 2, 67, 100
4, 76416, Note_on_c, 2, 55, 127
4, 76536, Note_off_c, 2, 55, 100
4, 76800, Note_on_c, 2, 60, 127
4, 76920, Note_off_c, 2, 60, 100
4, 77184, Note_on_c, 2, 64, 127
4, 77304, Note_off_c, 2, 64, 100
4, 77568, Note_on_c, 2, 60, 127
4, 77688, Note_off_c, 2, 60, 100
4, 77952, Note_on_c, 2, 57, 127
4, 78072, Note_off_c, 2, 57, 100
4, 78336, Note_on_c, 2, 59, 127
4, 78456, Note_off_c, 2, 59, 100
4, 78720, Note_on_c, 2, 47, 127
4, 78840, Note_off_c, 2, 47, 100
4, 79104, Note_on_c, 2, 59, 127
4, 79224, Note_off_c, 2, 59, 100
4, 79488, Note_on_c, 2, 57, 127
4, 79608, Note_off_c, 2, 57, 100
4, 79872, Note_on_c, 2, 55, 127
4, 80896, Note_off_c, 2, 55, 100
4, 81408, Note_on_c, 2, 57, 127
4, 82432, Note_off_c, 2, 57, 100
4, 82944, Note_on_c, 2, 59, 127
4, 83968, Note_off_c, 2, 59, 100
4, 84480, Note_on_c, 2, 52, 127
4, 85248, Note_off_c, 2, 52, 100
4, 85632, Note_on_c, 2, 50, 127
4, 85752, Note_off_c, 2, 50, 100
4, 86016, Note_on_c, 2, 48, 127
4, 86528, Note_off_c, 2, 48, 100
4, 86784, Note_on_c, 2, 60, 127
4, 87544, Note_off_c, 2, 60, 100
4, 87936, Note_on_c, 2, 59, 127
4, 88120, Note_off_c, 2, 59, 100
4, 88128, Note_on_c, 2, 57, 127
4, 88312, Note_off_c, 2, 57, 100
4, 88320, Note_on_c, 2, 59, 127
4, 88440, Note_off_c, 2, 59, 100
4, 88704, Note_on_c, 2, 64, 127
4, 88824, Note_off_c, 2, 64, 100
4, 89088, Note_on_c, 2, 57, 127
4, 89856, Note_off_c, 2, 57, 100
4, 90240, Note_on_c, 2, 55, 127
4, 90360, Note_off_c, 2, 55, 100
4, 90624, Note_on_c, 2, 54, 127
4, 91136, Note_off_c, 2, 54, 100
4, 91392, Note_on_c, 2, 55, 127
4, 91904, Note_off_c, 2, 55, 100
4, 92160, Note_on_c, 2, 52, 127
4, 92928, Note_off_c, 2, 52, 100
4, 93312, Note_on_c, 2, 50, 127
4, 93432, Note_off_c, 2, 50, 100
4, 93696, Note_on_c, 2, 48, 127
4, 94208, Note_off_c, 2, 48, 100
4, 94464, Note_on_c, 2, 49, 112
4, 95224, Note_off_c, 2, 49, 100
4, 95232, Note_on_c, 2, 50, 112
4, 96256, Note_off_c, 2, 50, 100
4, 96768, Note_on_c, 2, 43, 1
4, 96768, Note_on_c, 2, 43, 127
4, 98048, Note_off_c, 2, 43, 100
4, 99064, Note_off_c, 2, 43, 100
4, 99064, End_track
5, 0, Start_track
5, 0, Title_t, "Var.XXII: Alla breve"
5, 0, Control_c, 3, 0, 0
5, 0, Program_c, 3, 6
5, 0, Control_c, 3, 7, 127
5, 0, Control_c, 3, 10, 127
5, 0, Control_c, 3, 91, 127
5, 0, Key_signature, 1, "major"
5, 0, Note_on_c, 3, 55, 127
5, 1024, Note_off_c, 3, 55, 100
5, 1536, Note_on_c, 3, 54, 127
5, 2560, Note_off_c, 3, 54, 100
5, 3072, Note_on_c, 3, 52, 127
5, 4096, Note_off_c, 3, 52, 100
5, 4608, Note_on_c, 3, 50, 127
5, 5376, Note_off_c, 3, 50, 100
5, 5760, Note_on_c, 3, 48, 127
5, 5880, Note_off_c, 3, 48, 100
5, 6144, Note_on_c, 3, 47, 127
5, 7168, Note_off_c, 3, 47, 100
5, 7680, Note_on_c, 3, 48, 127
5, 8704, Note_off_c, 3, 48, 100
5, 9216, Note_on_c, 3, 50, 127
5, 10240, Note_off_c, 3, 50, 100
5, 10752, Note_on_c, 3, 43, 127
5, 12280, Note_off_c, 3, 43, 100
5, 12672, Note_on_c, 3, 55, 127
5, 12856, Note_off_c, 3, 55, 100
5, 12864, Note_on_c, 3, 54, 127
5, 13048, Note_off_c, 3, 54, 100
5, 13056, Note_on_c, 3, 55, 127
5, 13816, Note_off_c, 3, 55, 100
5, 14208, Note_on_c, 3, 54, 127
5, 14392, Note_off_c, 3, 54, 100
5, 14400, Note_on_c, 3, 52, 127
5, 14584, Note_off_c, 3, 52, 100
5, 14592, Note_on_c, 3, 54, 127
5, 14712, Note_off_c, 3, 54, 100
5, 14976, Note_on_c, 3, 59, 127
5, 15096, Note_off_c, 3, 59, 100
5, 15360, Note_on_c, 3, 52, 127
5, 16128, Note_off_c, 3, 52, 100
5, 16512, Note_on_c, 3, 50, 127
5, 16888, Note_off_c, 3, 50, 100
5, 17280, Note_on_c, 3, 49, 127
5, 17464, Note_off_c, 3, 49, 100
5, 17472, Note_on_c, 3, 47, 127
5, 17656, Note_off_c, 3, 47, 100
5, 17664, Note_on_c, 3, 49, 127
5, 17784, Note_off_c, 3, 49, 100
5, 18048, Note_on_c, 3, 52, 127
5, 18168, Note_off_c, 3, 52, 100
5, 18432, Note_on_c, 3, 42, 127
5, 18944, Note_off_c, 3, 42, 100
5, 19200, Note_on_c, 3, 54, 127
5, 19712, Note_off_c, 3, 54, 100
5, 19968, Note_on_c, 3, 43, 127
5, 20480, Note_off_c, 3, 43, 100
5, 20736, Note_on_c, 3, 52, 127
5, 21248, Note_off_c, 3, 52, 100
5, 21504, Note_on_c, 3, 45, 127
5, 22528, Note_off_c, 3, 45, 100
5, 23040, Note_on_c, 3, 50, 127
5, 24320, Note_off_c, 3, 50, 100
5, 24576, Note_on_c, 3, 55, 112
5, 25600, Note_off_c, 3, 55, 100
5, 26112, Note_on_c, 3, 54, 112
5, 27136, Note_off_c, 3, 54, 100
5, 27648, Note_on_c, 3, 52, 112
5, 28672, Note_off_c, 3, 52, 100
5, 29184, Note_on_c, 3, 50, 112
5, 29952, Note_off_c, 3, 50, 100
5, 30336, Note_on_c, 3, 48, 112
5, 30456, Note_off_c, 3, 48, 100
5, 30720, Note_on_c, 3, 47, 112
5, 31744, Note_off_c, 3, 47, 100
5, 32256, Note_on_c, 3, 48, 112
5, 33280, Note_off_c, 3, 48, 100
5, 33792, Note_on_c, 3, 50, 112
5, 34816, Note_off_c, 3, 50, 100
5, 35328, Note_on_c, 3, 43, 112
5, 36856, Note_off_c, 3, 43, 100
5, 37248, Note_on_c, 3, 55, 112
5, 37432, Note_off_c, 3, 55, 100
5, 37440, Note_on_c, 3, 54, 112
5, 37624, Note_off_c, 3, 54, 100
5, 37632, Note_on_c, 3, 55, 112
5, 38392, Note_off_c, 3, 55, 100
5, 38784, Note_on_c, 3, 54, 112
5, 38968, Note_off_c, 3, 54, 100
5, 38976, Note_on_c, 3, 52, 112
5, 39160, Note_off_c, 3, 52, 100
5, 39168, Note_on_c, 3, 54, 112
5, 39288, Note_off_c, 3, 54, 100
5, 39552, Note_on_c, 3, 59, 112
5, 39672, Note_off_c, 3, 59, 100
5, 39936, Note_on_c, 3, 52, 112
5, 40704, Note_off_c, 3, 52, 100
5, 41088, Note_on_c, 3, 50, 112
5, 41464, Note_off_c, 3, 50, 100
5, 41856, Note_on_c, 3, 49, 112
5, 42040, Note_off_c, 3, 49, 100
5, 42048, Note_on_c, 3, 47, 112
5, 42232, Note_off_c, 3, 47, 100
5, 42240, Note_on_c, 3, 49, 112
5, 42360, Note_off_c, 3, 49, 100
5, 42624, Note_on_c, 3, 52, 112
5, 42744, Note_off_c, 3, 52, 100
5, 43008, Note_on_c, 3, 42, 112
5, 43520, Note_off_c, 3, 42, 100
5, 43776, Note_on_c, 3, 54, 112
5, 44288, Note_off_c, 3, 54, 100
5, 44544, Note_on_c, 3, 43, 112
5, 45056, Note_off_c, 3, 43, 100
5, 45312, Note_on_c, 3, 52, 112
5, 45824, Note_off_c, 3, 52, 100
5, 46080, Note_on_c, 3, 45, 112
5, 47104, Note_off_c, 3, 45, 100
5, 47616, Note_on_c, 3, 50, 112
5, 48896, Note_off_c, 3, 50, 100
5, 54528, Note_on_c, 3, 66, 127
5, 55288, Note_off_c, 3, 66, 100
5, 55680, Note_on_c, 3, 64, 127
5, 55864, Note_off_c, 3, 64, 100
5, 55872, Note_on_c, 3, 63, 127
5, 56056, Note_off_c, 3, 63, 100
5, 56064, Note_on_c, 3, 64, 127
5, 56184, Note_off_c, 3, 64, 100
5, 56448, Note_on_c, 3, 67, 127
5, 56568, Note_off_c, 3, 67, 100
5, 56832, Note_on_c, 3, 60, 127
5, 56952, Note_off_c, 3, 60, 100
5, 57216, Note_on_c, 3, 64, 127
5, 57336, Note_off_c, 3, 64, 100
5, 57600, Note_on_c, 3, 69, 127
5, 58360, Note_off_c, 3, 69, 100
5, 58752, Note_on_c, 3, 67, 127
5, 58872, Note_off_c, 3, 67, 100
5, 59136, Note_on_c, 3, 66, 127
5, 59648, Note_off_c, 3, 66, 100
5, 59904, Note_on_c, 3, 64, 127
5, 60664, Note_off_c, 3, 64, 100
5, 65280, Note_on_c, 3, 60, 127
5, 66040, Note_off_c, 3, 60, 100
5, 66432, Note_on_c, 3, 59, 127
5, 66616, Note_off_c, 3, 59, 100
5, 66624, Note_on_c, 3, 57, 127
5, 66808, Note_off_c, 3, 57, 100
5, 66816, Note_on_c, 3, 59, 127
5, 66936, Note_off_c, 3, 59, 100
5, 67200, Note_on_c, 3, 62, 127
5, 67320, Note_off_c, 3, 62, 100
5, 67584, Note_on_c, 3, 55, 127
5, 68352, Note_off_c, 3, 55, 100
5, 68736, Note_on_c, 3, 59, 127
5, 68856, Note_off_c, 3, 59, 100
5, 69120, Note_on_c, 3, 52, 127
5, 69632, Note_off_c, 3, 52, 100
5, 69888, Note_on_c, 3, 57, 127
5, 70648, Note_off_c, 3, 57, 100
5, 71040, Note_on_c, 3, 57, 127
5, 71224, Note_off_c, 3, 57, 100
5, 71232, Note_on_c, 3, 55, 127
5, 71416, Note_off_c, 3, 55, 100
5, 71424, Note_on_c, 3, 57, 127
5, 71544, Note_off_c, 3, 57, 100
5, 71808, Note_on_c, 3, 54, 127
5, 71928, Note_off_c, 3, 54, 100
5, 72192, Note_on_c, 3, 62, 127
5, 73472, Note_off_c, 3, 62, 100
5, 79104, Note_on_c, 3, 66, 127
5, 79864, Note_off_c, 3, 66, 100
5, 80256, Note_on_c, 3, 64, 127
5, 80440, Note_off_c, 3, 64, 100
5, 80448, Note_on_c, 3, 63, 127
5, 80632, Note_off_c, 3, 63, 100
5, 80640, Note_on_c, 3, 64, 127
5, 80760, Note_off_c, 3, 64, 100
5, 81024, Note_on_c, 3, 67, 127
5, 81144, Note_off_c, 3, 67, 100
5, 81408, Note_on_c, 3, 60, 127
5, 81528, Note_off_c, 3, 60, 100
5, 81792, Note_on_c, 3, 64, 127
5, 81912, Note_off_c, 3, 64, 100
5, 82176, Note_on_c, 3, 69, 127
5, 82936, Note_off_c, 3, 69, 100
5, 83328, Note_on_c, 3, 67, 127
5, 83448, Note_off_c, 3, 67, 100
5, 83712, Note_on_c, 3, 66, 127
5, 84224, Note_off_c, 3, 66, 100
5, 84480, Note_on_c, 3, 64, 127
5, 85240, Note_off_c, 3, 64, 100
5, 89856, Note_on_c, 3, 60, 127
5, 90616, Note_off_c, 3, 60, 100
5, 91008, Note_on_c, 3, 59, 127
5, 91192, Note_off_c, 3, 59, 100
5, 91200, Note_on_c, 3, 57, 127
5, 91384, Note_off_c, 3, 57, 100
5, 91392, Note_on_c, 3, 59, 127
5, 91512, Note_off_c, 3, 59, 100
5, 91776, Note_on_c, 3, 62, 127
5, 91896, Note_off_c, 3, 62, 100
5, 92160, Note_on_c, 3, 55, 127
5, 92928, Note_off_c, 3, 55, 100
5, 93312, Note_on_c, 3, 59, 127
5, 93432, Note_off_c, 3, 59, 100
5, 93696, Note_on_c, 3, 52, 127
5, 94208, Note_off_c, 3, 52, 100
5, 94464, Note_on_c, 3, 57, 127
5, 95224, Note_off_c, 3, 57, 100
5, 95616, Note_on_c, 3, 57, 127
5, 95800, Note_off_c, 3, 57, 100
5, 95808, Note_on_c, 3, 55, 127
5, 95992, Note_off_c, 3, 55, 100
5, 96000, Note_on_c, 3, 57, 127
5, 96120, Note_off_c, 3, 57, 100
5, 96384, Note_on_c, 3, 54, 127
5, 96504, Note_off_c, 3, 54, 100
5, 96768, Note_on_c, 3, 62, 127
5, 98048, Note_off_c, 3, 62, 100
5, 98048, End_track
6, 0, Start_track
6, 0, Title_t, "Bruno de Giusti"
6, 0, Control_c, 4, 0, 0
6, 0, Program_c, 4, 6
6, 0, Control_c, 4, 7, 127
6, 0, Control_c, 4, 10, 84
6, 0, Control_c, 4, 91, 127
6, 0, Key_signature, 1, "major"
6, 6912, Note_on_c, 4, 86, 127
6, 7672, Note_off_c, 4, 86, 100
6, 8064, Note_on_c, 4, 84, 127
6, 8248, Note_off_c, 4, 84, 100
6, 8256, Note_on_c, 4, 83, 127
6, 8440, Note_off_c, 4, 83, 100
6, 8448, Note_on_c, 4, 84, 127
6, 8568, Note_off_c, 4, 84, 100
6, 8832, Note_on_c, 4, 88, 127
6, 8952, Note_off_c, 4, 88, 100
6, 9216, Note_on_c, 4, 81, 127
6, 9336, Note_off_c, 4, 81, 100
6, 9600, Note_on_c, 4, 86, 127
6, 10112, Note_off_c, 4, 86, 100
6, 10368, Note_on_c, 4, 84, 127
6, 10744, Note_off_c, 4, 84, 100
6, 11136, Note_on_c, 4, 83, 127
6, 11320, Note_off_c, 4, 83, 100
6, 11328, Note_on_c, 4, 81, 127
6, 11512, Note_off_c, 4, 81, 100
6, 11520, Note_on_c, 4, 83, 127
6, 12472, Note_off_c, 4, 83, 100
6, 12672, Note_on_c, 4, 83, 127
6, 12856, Note_off_c, 4, 83, 100
6, 12864, Note_on_c, 4, 81, 127
6, 13048, Note_off_c, 4, 81, 100
6, 13056, Note_on_c, 4, 83, 127
6, 13176, Note_off_c, 4, 83, 100
6, 13440, Note_on_c, 4, 88, 127
6, 13560, Note_off_c, 4, 88, 100
6, 13824, Note_on_c, 4, 85, 127
6, 13944, Note_off_c, 4, 85, 100
6, 14208, Note_on_c, 4, 93, 127
6, 14720, Note_off_c, 4, 93, 100
6, 14976, Note_on_c, 4, 91, 127
6, 15160, Note_off_c, 4, 91, 100
6, 15168, Note_on_c, 4, 90, 127
6, 15352, Note_off_c, 4, 90, 100
6, 15360, Note_on_c, 4, 93, 127
6, 15624, Note_off_c, 4, 93, 100
6, 15632, Note_on_c, 4, 91, 127
6, 15832, Note_off_c, 4, 91, 100
6, 15840, Note_on_c, 4, 93, 127
6, 16000, Note_off_c, 4, 93, 99
6, 16008, Note_on_c, 4, 91, 127
6, 16128, Note_off_c, 4, 91, 100
6, 16128, Note_on_c, 4, 93, 127
6, 16224, Note_off_c, 4, 93, 100
6, 16232, Note_on_c, 4, 91, 127
6, 16320, Note_off_c, 4, 91, 100
6, 16328, Note_on_c, 4, 93, 127
6, 16408, Note_off_c, 4, 93, 100
6, 16416, Note_on_c, 4, 91, 127
6, 16488, Note_off_c, 4, 91, 100
6, 16496, Note_on_c, 4, 93, 127
6, 16568, Note_off_c, 4, 93, 100
6, 16576, Note_on_c, 4, 91, 127
6, 16648, Note_off_c, 4, 91, 100
6, 16656, Note_on_c, 4, 93, 127
6, 16728, Note_off_c, 4, 93, 100
6, 16736, Note_on_c, 4, 91, 127
6, 16808, Note_off_c, 4, 91, 100
6, 16816, Note_on_c, 4, 93, 127
6, 16888, Note_off_c, 4, 93, 100
6, 16896, Note_on_c, 4, 91, 127
6, 16968, Note_off_c, 4, 91, 100
6, 16976, Note_on_c, 4, 93, 127
6, 17048, Note_off_c, 4, 93, 100
6, 17056, Note_on_c, 4, 91, 127
6, 17128, Note_off_c, 4, 91, 100
6, 17136, Note_on_c, 4, 93, 127
6, 17208, Note_off_c, 4, 93, 100
6, 17216, Note_on_c, 4, 91, 127
6, 17288, Note_off_c, 4, 91, 100
6, 17296, Note_on_c, 4, 93, 127
6, 17368, Note_off_c, 4, 93, 100
6, 17376, Note_on_c, 4, 91, 127
6, 17448, Note_off_c, 4, 91, 100
6, 17456, Note_on_c, 4, 93, 127
6, 17528, Note_off_c, 4, 93, 100
6, 17536, Note_on_c, 4, 91, 127
6, 17608, Note_off_c, 4, 91, 100
6, 17616, Note_on_c, 4, 93, 127
6, 17688, Note_off_c, 4, 93, 100
6, 17696, Note_on_c, 4, 91, 127
6, 17768, Note_off_c, 4, 91, 100
6, 17776, Note_on_c, 4, 93, 127
6, 17848, Note_off_c, 4, 93, 100
6, 17856, Note_on_c, 4, 91, 127
6, 17928, Note_off_c, 4, 91, 100
6, 17936, Note_on_c, 4, 93, 127
6, 18008, Note_off_c, 4, 93, 100
6, 18016, Note_on_c, 4, 91, 127
6, 18088, Note_off_c, 4, 91, 100
6, 18096, Note_on_c, 4, 93, 127
6, 18168, Note_off_c, 4, 93, 100
6, 18176, Note_on_c, 4, 91, 127
6, 18248, Note_off_c, 4, 91, 100
6, 18256, Note_on_c, 4, 93, 127
6, 18328, Note_off_c, 4, 93, 100
6, 18336, Note_on_c, 4, 91, 127
6, 18560, Note_off_c, 4, 91, 100
6, 18816, Note_on_c, 4, 90, 127
6, 19000, Note_off_c, 4, 90, 100
6, 19008, Note_on_c, 4, 88, 127
6, 19192, Note_off_c, 4, 88, 100
6, 19200, Note_on_c, 4, 90, 127
6, 19320, Note_off_c, 4, 90, 100
6, 19584, Note_on_c, 4, 93, 127
6, 19704, Note_off_c, 4, 93, 100
6, 19968, Note_on_c, 4, 86, 127
6, 20480, Note_off_c, 4, 86, 100
6, 20736, Note_on_c, 4, 91, 127
6, 21496, Note_off_c, 4, 91, 100
6, 21888, Note_on_c, 4, 90, 127
6, 22008, Note_off_c, 4, 90, 100
6, 22272, Note_on_c, 4, 88, 127
6, 22784, Note_off_c, 4, 88, 100
6, 23040, Note_on_c, 4, 86, 127
6, 24320, Note_off_c, 4, 86, 100
6, 51456, Note_on_c, 4, 83, 127
6, 52216, Note_off_c, 4, 83, 100
6, 52608, Note_on_c, 4, 81, 127
6, 52792, Note_off_c, 4, 81, 100
6, 52800, Note_on_c, 4, 79, 127
6, 52984, Note_off_c, 4, 79, 100
6, 52992, Note_on_c, 4, 81, 127
6, 53112, Note_off_c, 4, 81, 100
6, 53376, Note_on_c, 4, 84, 127
6, 53496, Note_off_c, 4, 84, 100
6, 53760, Note_on_c, 4, 78, 127
6, 54272, Note_off_c, 4, 78, 100
6, 54528, Note_on_c, 4, 83, 127
6, 55040, Note_off_c, 4, 83, 100
6, 56064, Note_on_c, 4, 91, 127
6, 56824, Note_off_c, 4, 91, 100
6, 57216, Note_on_c, 4, 90, 127
6, 57400, Note_off_c, 4, 90, 100
6, 57408, Note_on_c, 4, 88, 127
6, 57592, Note_off_c, 4, 88, 100
6, 57600, Note_on_c, 4, 90, 127
6, 57720, Note_off_c, 4, 90, 100
6, 57984, Note_on_c, 4, 93, 127
6, 58104, Note_off_c, 4, 93, 100
6, 58368, Note_on_c, 4, 87, 127
6, 58488, Note_off_c, 4, 87, 100
6, 58752, Note_on_c, 4, 88, 127
6, 59264, Note_off_c, 4, 88, 100
6, 59520, Note_on_c, 4, 87, 127
6, 59640, Note_off_c, 4, 87, 100
6, 59904, Note_on_c, 4, 88, 127
6, 60416, Note_off_c, 4, 88, 100
6, 60672, Note_on_c, 4, 83, 127
6, 61432, Note_off_c, 4, 83, 100
6, 61824, Note_on_c, 4, 81, 127
6, 62008, Note_off_c, 4, 81, 100
6, 62016, Note_on_c, 4, 79, 127
6, 62200, Note_off_c, 4, 79, 100
6, 62208, Note_on_c, 4, 81, 127
6, 62328, Note_off_c, 4, 81, 100
6, 62592, Note_on_c, 4, 84, 127
6, 62712, Note_off_c, 4, 84, 100
6, 62976, Note_on_c, 4, 78, 127
6, 63096, Note_off_c, 4, 78, 100
6, 63360, Note_on_c, 4, 74, 127
6, 63480, Note_off_c, 4, 74, 100
6, 63744, Note_on_c, 4, 79, 127
6, 64504, Note_off_c, 4, 79, 100
6, 64896, Note_on_c, 4, 78, 127
6, 65080, Note_off_c, 4, 78, 100
6, 65088, Note_on_c, 4, 76, 127
6, 65272, Note_off_c, 4, 76, 100
6, 65280, Note_on_c, 4, 78, 127
6, 65400, Note_off_c, 4, 78, 100
6, 65664, Note_on_c, 4, 81, 127
6, 65784, Note_off_c, 4, 81, 100
6, 66048, Note_on_c, 4, 74, 127
6, 66808, Note_off_c, 4, 74, 100
6, 68352, Note_on_c, 4, 79, 127
6, 69112, Note_off_c, 4, 79, 100
6, 69504, Note_on_c, 4, 79, 127
6, 69688, Note_off_c, 4, 79, 100
6, 69696, Note_on_c, 4, 78, 127
6, 69880, Note_off_c, 4, 78, 100
6, 69888, Note_on_c, 4, 79, 127
6, 70648, Note_off_c, 4, 79, 100
6, 71040, Note_on_c, 4, 78, 127
6, 71224, Note_off_c, 4, 78, 100
6, 71232, Note_on_c, 4, 76, 127
6, 71416, Note_off_c, 4, 76, 100
6, 71424, Note_on_c, 4, 78, 127
6, 71544, Note_off_c, 4, 78, 100
6, 71808, Note_on_c, 4, 81, 127
6, 72184, Note_off_c, 4, 81, 100
6, 72576, Note_on_c, 4, 79, 127
6, 72704, Note_off_c, 4, 79, 100
6, 72768, Note_on_c, 4, 78, 127
6, 72896, Note_off_c, 4, 78, 100
6, 72960, Note_on_c, 4, 79, 127
6, 73472, Note_off_c, 4, 79, 100
6, 73472, End_track
7, 0, Start_track
7, 0, Title_t, "bdg@bruno-de-giusti.net"
7, 0, Control_c, 5, 0, 0
7, 0, Program_c, 5, 6
7, 0, Control_c, 5, 7, 127
7, 0, Control_c, 5, 10, 127
7, 0, Control_c, 5, 91, 127
7, 0, Key_signature, 1, "major"
7, 3840, Note_on_c, 5, 79, 127
7, 4600, Note_off_c, 5, 79, 100
7, 4992, Note_on_c, 5, 78, 127
7, 5176, Note_off_c, 5, 78, 100
7, 5184, Note_on_c, 5, 76, 127
7, 5368, Note_off_c, 5, 76, 100
7, 5376, Note_on_c, 5, 78, 127
7, 5496, Note_off_c, 5, 78, 100
7, 5760, Note_on_c, 5, 81, 127
7, 5880, Note_off_c, 5, 81, 100
7, 6144, Note_on_c, 5, 74, 127
7, 6912, Note_off_c, 5, 74, 100
7, 7296, Note_on_c, 5, 77, 127
7, 7416, Note_off_c, 5, 77, 100
7, 7680, Note_on_c, 5, 76, 127
7, 8448, Note_off_c, 5, 76, 100
7, 8832, Note_on_c, 5, 79, 127
7, 9208, Note_off_c, 5, 79, 100
7, 9600, Note_on_c, 5, 78, 127
7, 9784, Note_off_c, 5, 78, 100
7, 9792, Note_on_c, 5, 76, 127
7, 9976, Note_off_c, 5, 76, 100
7, 9984, Note_on_c, 5, 78, 127
7, 10104, Note_off_c, 5, 78, 100
7, 10368, Note_on_c, 5, 81, 127
7, 10744, Note_off_c, 5, 81, 100
7, 11136, Note_on_c, 5, 79, 127
7, 11320, Note_off_c, 5, 79, 100
7, 11328, Note_on_c, 5, 78, 127
7, 11512, Note_off_c, 5, 78, 100
7, 11520, Note_on_c, 5, 79, 127
7, 11640, Note_off_c, 5, 79, 100
7, 11904, Note_on_c, 5, 83, 127
7, 12024, Note_off_c, 5, 83, 100
7, 12288, Note_on_c, 5, 76, 127
7, 12800, Note_off_c, 5, 76, 100
7, 13056, Note_on_c, 5, 83, 127
7, 13568, Note_off_c, 5, 83, 100
7, 13824, Note_on_c, 5, 81, 127
7, 14336, Note_off_c, 5, 81, 100
7, 14592, Note_on_c, 5, 86, 127
7, 15104, Note_off_c, 5, 86, 100
7, 15360, Note_on_c, 5, 88, 127
7, 18424, Note_off_c, 5, 88, 100
7, 18816, Note_on_c, 5, 86, 127
7, 19000, Note_off_c, 5, 86, 100
7, 19008, Note_on_c, 5, 85, 127
7, 19192, Note_off_c, 5, 85, 100
7, 19200, Note_on_c, 5, 86, 127
7, 19320, Note_off_c, 5, 86, 100
7, 19584, Note_on_c, 5, 90, 127
7, 19704, Note_off_c, 5, 90, 100
7, 19968, Note_on_c, 5, 83, 127
7, 20736, Note_off_c, 5, 83, 100
7, 21120, Note_on_c, 5, 88, 127
7, 21304, Note_off_c, 5, 88, 100
7, 21312, Note_on_c, 5, 86, 127
7, 21496, Note_off_c, 5, 86, 100
7, 21504, Note_on_c, 5, 88, 127
7, 21624, Note_off_c, 5, 88, 100
7, 21888, Note_on_c, 5, 86, 127
7, 22400, Note_off_c, 5, 86, 100
7, 22656, Note_on_c, 5, 85, 127
7, 22776, Note_off_c, 5, 85, 100
7, 23040, Note_on_c, 5, 86, 127
7, 23160, Note_off_c, 5, 86, 100
7, 23424, Note_on_c, 5, 81, 127
7, 23552, Note_off_c, 5, 81, 100
7, 23616, Note_on_c, 5, 79, 127
7, 23744, Note_off_c, 5, 79, 100
7, 23808, Note_on_c, 5, 81, 127
7, 24320, Note_off_c, 5, 81, 100
7, 49920, Note_on_c, 5, 93, 127
7, 50680, Note_off_c, 5, 93, 100
7, 51072, Note_on_c, 5, 91, 127
7, 51256, Note_off_c, 5, 91, 100
7, 51264, Note_on_c, 5, 90, 127
7, 51448, Note_off_c, 5, 90, 100
7, 51456, Note_on_c, 5, 91, 127
7, 51576, Note_off_c, 5, 91, 100
7, 51840, Note_on_c, 5, 95, 127
7, 51960, Note_off_c, 5, 95, 100
7, 52224, Note_on_c, 5, 88, 127
7, 53752, Note_off_c, 5, 88, 100
7, 54144, Note_on_c, 5, 87, 127
7, 54328, Note_off_c, 5, 87, 100
7, 54336, Note_on_c, 5, 85, 127
7, 54520, Note_off_c, 5, 85, 100
7, 54528, Note_on_c, 5, 87, 127
7, 54648, Note_off_c, 5, 87, 100
7, 54912, Note_on_c, 5, 90, 127
7, 55032, Note_off_c, 5, 90, 100
7, 55296, Note_on_c, 5, 95, 127
7, 55416, Note_off_c, 5, 95, 100
7, 55680, Note_on_c, 5, 83, 127
7, 55800, Note_off_c, 5, 83, 100
7, 56064, Note_on_c, 5, 95, 127
7, 56824, Note_off_c, 5, 95, 100
7, 57216, Note_on_c, 5, 93, 127
7, 57400, Note_off_c, 5, 93, 100
7, 57408, Note_on_c, 5, 91, 127
7, 57592, Note_off_c, 5, 91, 100
7, 57600, Note_on_c, 5, 93, 127
7, 57720, Note_off_c, 5, 93, 100
7, 57984, Note_on_c, 5, 96, 127
7, 58104, Note_off_c, 5, 96, 100
7, 58368, Note_on_c, 5, 90, 127
7, 58488, Note_off_c, 5, 90, 100
7, 58752, Note_on_c, 5, 91, 127
7, 58872, Note_off_c, 5, 91, 100
7, 59136, Note_on_c, 5, 93, 127
7, 59896, Note_off_c, 5, 93, 100
7, 60288, Note_on_c, 5, 91, 127
7, 60472, Note_off_c, 5, 91, 100
7, 60480, Note_on_c, 5, 90, 127
7, 60664, Note_off_c, 5, 90, 100
7, 60672, Note_on_c, 5, 91, 127
7, 60792, Note_off_c, 5, 91, 100
7, 61056, Note_on_c, 5, 95, 127
7, 61176, Note_off_c, 5, 95, 100
7, 61440, Note_on_c, 5, 88, 127
7, 62464, Note_off_c, 5, 88, 100
7, 62976, Note_on_c, 5, 86, 127
7, 64000, Note_off_c, 5, 86, 100
7, 64512, Note_on_c, 5, 84, 127
7, 65536, Note_off_c, 5, 84, 100
7, 66816, Note_on_c, 5, 86, 127
7, 67576, Note_off_c, 5, 86, 100
7, 67968, Note_on_c, 5, 84, 127
7, 68152, Note_off_c, 5, 84, 100
7, 68160, Note_on_c, 5, 83, 127
7, 68344, Note_off_c, 5, 83, 100
7, 68352, Note_on_c, 5, 84, 127
7, 68472, Note_off_c, 5, 84, 100
7, 68736, Note_on_c, 5, 88, 127
7, 68856, Note_off_c, 5, 88, 100
7, 69120, Note_on_c, 5, 81, 127
7, 69880, Note_off_c, 5, 81, 100
7, 70080, Note_on_c, 5, 88, 127
7, 70264, Note_off_c, 5, 88, 100
7, 70272, Note_on_c, 5, 86, 127
7, 70456, Note_off_c, 5, 86, 100
7, 70464, Note_on_c, 5, 88, 127
7, 70648, Note_off_c, 5, 88, 100
7, 70656, Note_on_c, 5, 81, 127
7, 70776, Note_off_c, 5, 81, 100
7, 71040, Note_on_c, 5, 86, 127
7, 71800, Note_off_c, 5, 86, 100
7, 71808, Note_on_c, 5, 84, 127
7, 72184, Note_off_c, 5, 84, 100
7, 72576, Note_on_c, 5, 83, 127
7, 72704, Note_off_c, 5, 83, 100
7, 72768, Note_on_c, 5, 81, 127
7, 72896, Note_off_c, 5, 81, 100
7, 72960, Note_on_c, 5, 83, 127
7, 73472, Note_off_c, 5, 83, 100
7, 73472, End_track
8, 0, Start_track
8, 0, Title_t, "www.bruno-de-giusti.net"
8, 0, Control_c, 6, 0, 0
8, 0, Program_c, 6, 6
8, 0, Control_c, 6, 7, 127
8, 0, Control_c, 6, 10, 0
8, 0, Control_c, 6, 91, 127
8, 0, Key_signature, 1, "major"
8, 768, Note_on_c, 6, 52, 96
8, 1528, Note_off_c, 6, 52, 100
8, 1920, Note_on_c, 6, 50, 96
8, 2104, Note_off_c, 6, 50, 100
8, 2112, Note_on_c, 6, 49, 96
8, 2296, Note_off_c, 6, 49, 100
8, 2304, Note_on_c, 6, 50, 96
8, 3064, Note_off_c, 6, 50, 100
8, 3456, Note_on_c, 6, 49, 96
8, 3640, Note_off_c, 6, 49, 100
8, 3648, Note_on_c, 6, 47, 96
8, 3832, Note_off_c, 6, 47, 100
8, 3840, Note_on_c, 6, 49, 96
8, 3960, Note_off_c, 6, 49, 100
8, 4224, Note_on_c, 6, 52, 96
8, 4344, Note_off_c, 6, 52, 100
8, 4608, Note_on_c, 6, 45, 96
8, 6136, Note_off_c, 6, 45, 100
8, 6528, Note_on_c, 6, 43, 96
8, 6712, Note_off_c, 6, 43, 100
8, 6720, Note_on_c, 6, 42, 96
8, 6904, Note_off_c, 6, 42, 100
8, 6912, Note_on_c, 6, 43, 96
8, 7672, Note_off_c, 6, 43, 100
8, 8064, Note_on_c, 6, 40, 96
8, 8184, Note_off_c, 6, 40, 100
8, 8448, Note_on_c, 6, 45, 96
8, 9208, Note_off_c, 6, 45, 100
8, 9600, Note_on_c, 6, 45, 96
8, 9784, Note_off_c, 6, 45, 100
8, 9792, Note_on_c, 6, 43, 96
8, 9976, Note_off_c, 6, 43, 100
8, 9984, Note_on_c, 6, 45, 96
8, 10104, Note_off_c, 6, 45, 100
8, 10368, Note_on_c, 6, 42, 96
8, 10488, Note_off_c, 6, 42, 100
8, 10752, Note_on_c, 6, 50, 96
8, 11512, Note_off_c, 6, 50, 100
8, 13056, Note_on_c, 6, 52, 96
8, 13816, Note_off_c, 6, 52, 100
8, 14208, Note_on_c, 6, 50, 96
8, 14392, Note_off_c, 6, 50, 100
8, 14400, Note_on_c, 6, 49, 96
8, 14584, Note_off_c, 6, 49, 100
8, 14592, Note_on_c, 6, 50, 96
8, 15352, Note_off_c, 6, 50, 100
8, 15744, Note_on_c, 6, 49, 96
8, 15928, Note_off_c, 6, 49, 100
8, 15936, Note_on_c, 6, 47, 96
8, 16120, Note_off_c, 6, 47, 100
8, 16128, Note_on_c, 6, 49, 96
8, 16248, Note_off_c, 6, 49, 100
8, 16512, Note_on_c, 6, 52, 96
8, 16632, Note_off_c, 6, 52, 100
8, 16896, Note_on_c, 6, 45, 96
8, 18424, Note_off_c, 6, 45, 100
8, 19200, Note_on_c, 6, 45, 96
8, 19960, Note_off_c, 6, 45, 100
8, 20352, Note_on_c, 6, 43, 96
8, 20536, Note_off_c, 6, 43, 100
8, 20544, Note_on_c, 6, 42, 96
8, 20728, Note_off_c, 6, 42, 100
8, 20736, Note_on_c, 6, 43, 96
8, 20856, Note_off_c, 6, 43, 100
8, 21120, Note_on_c, 6, 47, 96
8, 21240, Note_off_c, 6, 47, 100
8, 21504, Note_on_c, 6, 37, 96
8, 21624, Note_off_c, 6, 37, 100
8, 21888, Note_on_c, 6, 38, 96
8, 22008, Note_off_c, 6, 38, 100
8, 22272, Note_on_c, 6, 40, 96
8, 22456, Note_off_c, 6, 40, 100
8, 22464, Note_on_c, 6, 42, 96
8, 22648, Note_off_c, 6, 42, 100
8, 22656, Note_on_c, 6, 43, 96
8, 23032, Note_off_c, 6, 43, 100
8, 23424, Note_on_c, 6, 42, 96
8, 23552, Note_off_c, 6, 42, 100
8, 23616, Note_on_c, 6, 40, 96
8, 23744, Note_off_c, 6, 40, 100
8, 23808, Note_on_c, 6, 42, 96
8, 24320, Note_off_c, 6, 42, 100
8, 49152, Note_on_c, 6, 50, 96
8, 49920, Note_off_c, 6, 50, 100
8, 50304, Note_on_c, 6, 48, 96
8, 50424, Note_off_c, 6, 48, 100
8, 50688, Note_on_c, 6, 47, 96
8, 50808, Note_off_c, 6, 47, 100
8, 51072, Note_on_c, 6, 50, 96
8, 51192, Note_off_c, 6, 50, 100
8, 51456, Note_on_c, 6, 55, 96
8, 51576, Note_off_c, 6, 55, 100
8, 51840, Note_on_c, 6, 43, 96
8, 51960, Note_off_c, 6, 43, 100
8, 52224, Note_on_c, 6, 48, 96
8, 52344, Note_off_c, 6, 48, 100
8, 52608, Note_on_c, 6, 52, 96
8, 52728, Note_off_c, 6, 52, 100
8, 52992, Note_on_c, 6, 48, 96
8, 53112, Note_off_c, 6, 48, 100
8, 53376, Note_on_c, 6, 45, 96
8, 53496, Note_off_c, 6, 45, 100
8, 53760, Note_on_c, 6, 47, 96
8, 53880, Note_off_c, 6, 47, 100
8, 54144, Note_on_c, 6, 35, 96
8, 54264, Note_off_c, 6, 35, 100
8, 54528, Note_on_c, 6, 47, 96
8, 54648, Note_off_c, 6, 47, 100
8, 54912, Note_on_c, 6, 45, 96
8, 55032, Note_off_c, 6, 45, 100
8, 55296, Note_on_c, 6, 43, 96
8, 56320, Note_off_c, 6, 43, 100
8, 56832, Note_on_c, 6, 45, 96
8, 57856, Note_off_c, 6, 45, 100
8, 58368, Note_on_c, 6, 47, 96
8, 59392, Note_off_c, 6, 47, 100
8, 59904, Note_on_c, 6, 40, 96
8, 60672, Note_off_c, 6, 40, 100
8, 61056, Note_on_c, 6, 38, 96
8, 61176, Note_off_c, 6, 38, 100
8, 61440, Note_on_c, 6, 36, 96
8, 61952, Note_off_c, 6, 36, 100
8, 62208, Note_on_c, 6, 48, 96
8, 62968, Note_off_c, 6, 48, 100
8, 63360, Note_on_c, 6, 47, 96
8, 63544, Note_off_c, 6, 47, 100
8, 63552, Note_on_c, 6, 45, 96
8, 63736, Note_off_c, 6, 45, 100
8, 63744, Note_on_c, 6, 47, 96
8, 63864, Note_off_c, 6, 47, 100
8, 64128, Note_on_c, 6, 52, 96
8, 64248, Note_off_c, 6, 52, 100
8, 64512, Note_on_c, 6, 45, 96
8, 65280, Note_off_c, 6, 45, 100
8, 65664, Note_on_c, 6, 43, 96
8, 65784, Note_off_c, 6, 43, 100
8, 66048, Note_on_c, 6, 42, 96
8, 66560, Note_off_c, 6, 42, 100
8, 66816, Note_on_c, 6, 43, 96
8, 67328, Note_off_c, 6, 43, 100
8, 67584, Note_on_c, 6, 40, 96
8, 68352, Note_off_c, 6, 40, 100
8, 68736, Note_on_c, 6, 38, 96
8, 68856, Note_off_c, 6, 38, 100
8, 69120, Note_on_c, 6, 36, 96
8, 69632, Note_off_c, 6, 36, 100
8, 69888, Note_on_c, 6, 37, 96
8, 70648, Note_off_c, 6, 37, 100
8, 70656, Note_on_c, 6, 38, 96
8, 71680, Note_off_c, 6, 38, 100
8, 72192, Note_on_c, 6, 31, 96
8, 73472, Note_off_c, 6, 31, 100
8, 73472, End_track
9, 0, Start_track
9, 0, Title_t, "All rights reserved"
9, 0, Control_c, 7, 0, 0
9, 0, Program_c, 7, 6
9, 0, Control_c, 7, 7, 127
9, 0, Control_c, 7, 10, 42
9, 0, Control_c, 7, 91, 127
9, 0, Key_signature, 1, "major"
9, 0, Note_on_c, 7, 43, 96
9, 1024, Note_off_c, 7, 43, 100
9, 1536, Note_on_c, 7, 42, 96
9, 2560, Note_off_c, 7, 42, 100
9, 3072, Note_on_c, 7, 40, 96
9, 4096, Note_off_c, 7, 40, 100
9, 4608, Note_on_c, 7, 38, 96
9, 5376, Note_off_c, 7, 38, 100
9, 5760, Note_on_c, 7, 36, 96
9, 5880, Note_off_c, 7, 36, 100
9, 6144, Note_on_c, 7, 35, 96
9, 7168, Note_off_c, 7, 35, 100
9, 7680, Note_on_c, 7, 36, 96
9, 8704, Note_off_c, 7, 36, 100
9, 9216, Note_on_c, 7, 38, 96
9, 10240, Note_off_c, 7, 38, 100
9, 10752, Note_on_c, 7, 31, 96
9, 12280, Note_off_c, 7, 31, 100
9, 12672, Note_on_c, 7, 43, 96
9, 12856, Note_off_c, 7, 43, 100
9, 12864, Note_on_c, 7, 42, 96
9, 13048, Note_off_c, 7, 42, 100
9, 13056, Note_on_c, 7, 43, 96
9, 13816, Note_off_c, 7, 43, 100
9, 14208, Note_on_c, 7, 42, 96
9, 14392, Note_off_c, 7, 42, 100
9, 14400, Note_on_c, 7, 40, 96
9, 14584, Note_off_c, 7, 40, 100
9, 14592, Note_on_c, 7, 42, 96
9, 14712, Note_off_c, 7, 42, 100
9, 14976, Note_on_c, 7, 47, 96
9, 15096, Note_off_c, 7, 47, 100
9, 15360, Note_on_c, 7, 40, 96
9, 16128, Note_off_c, 7, 40, 100
9, 16512, Note_on_c, 7, 38, 96
9, 16888, Note_off_c, 7, 38, 100
9, 17280, Note_on_c, 7, 37, 96
9, 17464, Note_off_c, 7, 37, 100
9, 17472, Note_on_c, 7, 35, 96
9, 17656, Note_off_c, 7, 35, 100
9, 17664, Note_on_c, 7, 37, 96
9, 17784, Note_off_c, 7, 37, 100
9, 18048, Note_on_c, 7, 40, 96
9, 18168, Note_off_c, 7, 40, 100
9, 18432, Note_on_c, 7, 30, 96
9, 18944, Note_off_c, 7, 30, 100
9, 19200, Note_on_c, 7, 42, 96
9, 19712, Note_off_c, 7, 42, 100
9, 19968, Note_on_c, 7, 31, 96
9, 20480, Note_off_c, 7, 31, 100
9, 20736, Note_on_c, 7, 40, 96
9, 21248, Note_off_c, 7, 40, 100
9, 21504, Note_on_c, 7, 33, 96
9, 22528, Note_off_c, 7, 33, 100
9, 23040, Note_on_c, 7, 38, 96
9, 24320, Note_off_c, 7, 38, 100
9, 54528, Note_on_c, 7, 54, 96
9, 55288, Note_off_c, 7, 54, 100
9, 55680, Note_on_c, 7, 52, 96
9, 55864, Note_off_c, 7, 52, 100
9, 55872, Note_on_c, 7, 51, 96
9, 56056, Note_off_c, 7, 51, 100
9, 56064, Note_on_c, 7, 52, 96
9, 56184, Note_off_c, 7, 52, 100
9, 56448, Note_on_c, 7, 55, 96
9, 56568, Note_off_c, 7, 55, 100
9, 56832, Note_on_c, 7, 48, 96
9, 56952, Note_off_c, 7, 48, 100
9, 57216, Note_on_c, 7, 52, 96
9, 57336, Note_off_c, 7, 52, 100
9, 57600, Note_on_c, 7, 57, 96
9, 58360, Note_off_c, 7, 57, 100
9, 58752, Note_on_c, 7, 55, 96
9, 58872, Note_off_c, 7, 55, 100
9, 59136, Note_on_c, 7, 54, 96
9, 59648, Note_off_c, 7, 54, 100
9, 59904, Note_on_c, 7, 52, 96
9, 60664, Note_off_c, 7, 52, 100
9, 65280, Note_on_c, 7, 48, 96
9, 66040, Note_off_c, 7, 48, 100
9, 66432, Note_on_c, 7, 47, 96
9, 66616, Note_off_c, 7, 47, 100
9, 66624, Note_on_c, 7, 45, 96
9, 66808, Note_off_c, 7, 45, 100
9, 66816, Note_on_c, 7, 47, 96
9, 66936, Note_off_c, 7, 47, 100
9, 67200, Note_on_c, 7, 50, 96
9, 67320, Note_off_c, 7, 50, 100
9, 67584, Note_on_c, 7, 43, 96
9, 68352, Note_off_c, 7, 43, 100
9, 68736, Note_on_c, 7, 47, 96
9, 68856, Note_off_c, 7, 47, 100
9, 69120, Note_on_c, 7, 40, 96
9, 69632, Note_off_c, 7, 40, 100
9, 69888, Note_on_c, 7, 45, 96
9, 70648, Note_off_c, 7, 45, 100
9, 71040, Note_on_c, 7, 45, 96
9, 71224, Note_off_c, 7, 45, 100
9, 71232, Note_on_c, 7, 43, 96
9, 71416, Note_off_c, 7, 43, 100
9, 71424, Note_on_c, 7, 45, 96
9, 71544, Note_off_c, 7, 45, 100
9, 71808, Note_on_c, 7, 42, 96
9, 71928, Note_off_c, 7, 42, 100
9, 72192, Note_on_c, 7, 50, 96
9, 73472, Note_off_c, 7, 50, 100
9, 73472, End_track
10, 0, Start_track
10, 0, Control_c, 8, 0, 0
10, 0, Program_c, 8, 6
10, 0, Control_c, 8, 7, 127
10, 0, Control_c, 8, 10, 64
10, 0, Control_c, 8, 91, 127
10, 0, Key_signature, 1, "major"
10, 6912, Note_on_c, 8, 62, 64
10, 7672, Note_off_c, 8, 62, 100
10, 8064, Note_on_c, 8, 60, 64
10, 8248, Note_off_c, 8, 60, 100
10, 8256, Note_on_c, 8, 59, 64
10, 8440, Note_off_c, 8, 59, 100
10, 8448, Note_on_c, 8, 60, 64
10, 8568, Note_off_c, 8, 60, 100
10, 8832, Note_on_c, 8, 64, 64
10, 8952, Note_off_c, 8, 64, 100
10, 9216, Note_on_c, 8, 57, 64
10, 9336, Note_off_c, 8, 57, 100
10, 9600, Note_on_c, 8, 62, 64
10, 10112, Note_off_c, 8, 62, 100
10, 10368, Note_on_c, 8, 60, 64
10, 10744, Note_off_c, 8, 60, 100
10, 11136, Note_on_c, 8, 59, 64
10, 11320, Note_off_c, 8, 59, 100
10, 11328, Note_on_c, 8, 57, 64
10, 11512, Note_off_c, 8, 57, 100
10, 11520, Note_on_c, 8, 59, 64
10, 12472, Note_off_c, 8, 59, 100
10, 12672, Note_on_c, 8, 59, 64
10, 12856, Note_off_c, 8, 59, 100
10, 12864, Note_on_c, 8, 57, 64
10, 13048, Note_off_c, 8, 57, 100
10, 13056, Note_on_c, 8, 59, 64
10, 13176, Note_off_c, 8, 59, 100
10, 13440, Note_on_c, 8, 64, 64
10, 13560, Note_off_c, 8, 64, 100
10, 13824, Note_on_c, 8, 61, 64
10, 13944, Note_off_c, 8, 61, 100
10, 14208, Note_on_c, 8, 69, 64
10, 14720, Note_off_c, 8, 69, 100
10, 14976, Note_on_c, 8, 67, 64
10, 15160, Note_off_c, 8, 67, 100
10, 15168, Note_on_c, 8, 66, 64
10, 15352, Note_off_c, 8, 66, 100
10, 15360, Note_on_c, 8, 69, 64
10, 15624, Note_off_c, 8, 69, 100
10, 15632, Note_on_c, 8, 67, 64
10, 15832, Note_off_c, 8, 67, 100
10, 15840, Note_on_c, 8, 69, 64
10, 16000, Note_off_c, 8, 69, 99
10, 16008, Note_on_c, 8, 67, 64
10, 16128, Note_off_c, 8, 67, 100
10, 16128, Note_on_c, 8, 69, 64
10, 16224, Note_off_c, 8, 69, 100
10, 16232, Note_on_c, 8, 67, 64
10, 16320, Note_off_c, 8, 67, 100
10, 16328, Note_on_c, 8, 69, 64
10, 16408, Note_off_c, 8, 69, 100
10, 16416, Note_on_c, 8, 67, 64
10, 16488, Note_off_c, 8, 67, 100
10, 16496, Note_on_c, 8, 69, 64
10, 16568, Note_off_c, 8, 69, 100
10, 16576, Note_on_c, 8, 67, 64
10, 16648, Note_off_c, 8, 67, 100
10, 16656, Note_on_c, 8, 69, 64
10, 16728, Note_off_c, 8, 69, 100
10, 16736, Note_on_c, 8, 67, 64
10, 16808, Note_off_c, 8, 67, 100
10, 16816, Note_on_c, 8, 69, 64
10, 16888, Note_off_c, 8, 69, 100
10, 16896, Note_on_c, 8, 67, 64
10, 16968, Note_off_c, 8, 67, 100
10, 16976, Note_on_c, 8, 69, 64
10, 17048, Note_off_c, 8, 69, 100
10, 17056, Note_on_c, 8, 67, 64
10, 17128, Note_off_c, 8, 67, 100
10, 17136, Note_on_c, 8, 69, 64
10, 17208, Note_off_c, 8, 69, 100
10, 17216, Note_on_c, 8, 67, 64
10, 17288, Note_off_c, 8, 67, 100
10, 17296, Note_on_c, 8, 69, 64
10, 17368, Note_off_c, 8, 69, 100
10, 17376, Note_on_c, 8, 67, 64
10, 17448, Note_off_c, 8, 67, 100
10, 17456, Note_on_c, 8, 69, 64
10, 17528, Note_off_c, 8, 69, 100
10, 17536, Note_on_c, 8, 67, 64
10, 17608, Note_off_c, 8, 67, 100
10, 17616, Note_on_c, 8, 69, 64
10, 17688, Note_off_c, 8, 69, 100
10, 17696, Note_on_c, 8, 67, 64
10, 17768, Note_off_c, 8, 67, 100
10, 17776, Note_on_c, 8, 69, 64
10, 17848, Note_off_c, 8, 69, 100
10, 17856, Note_on_c, 8, 67, 64
10, 17928, Note_off_c, 8, 67, 100
10, 17936, Note_on_c, 8, 69, 64
10, 18008, Note_off_c, 8, 69, 100
10, 18016, Note_on_c, 8, 67, 64
10, 18088, Note_off_c, 8, 67, 100
10, 18096, Note_on_c, 8, 69, 64
10, 18168, Note_off_c, 8, 69, 100
10, 18176, Note_on_c, 8, 67, 64
10, 18248, Note_off_c, 8, 67, 100
10, 18256, Note_on_c, 8, 69, 64
10, 18328, Note_off_c, 8, 69, 100
10, 18336, Note_on_c, 8, 67, 64
10, 18560, Note_off_c, 8, 67, 100
10, 18816, Note_on_c, 8, 66, 64
10, 19000, Note_off_c, 8, 66, 100
10, 19008, Note_on_c, 8, 64, 64
10, 19192, Note_off_c, 8, 64, 100
10, 19200, Note_on_c, 8, 66, 64
10, 19320, Note_off_c, 8, 66, 100
10, 19584, Note_on_c, 8, 69, 64
10, 19704, Note_off_c, 8, 69, 100
10, 19968, Note_on_c, 8, 62, 64
10, 20480, Note_off_c, 8, 62, 100
10, 20736, Note_on_c, 8, 67, 64
10, 21496, Note_off_c, 8, 67, 100
10, 21888, Note_on_c, 8, 66, 64
10, 22008, Note_off_c, 8, 66, 100
10, 22272, Note_on_c, 8, 64, 64
10, 22784, Note_off_c, 8, 64, 100
10, 23040, Note_on_c, 8, 62, 64
10, 24320, Note_off_c, 8, 62, 100
10, 51456, Note_on_c, 8, 59, 64
10, 52216, Note_off_c, 8, 59, 100
10, 52608, Note_on_c, 8, 57, 64
10, 52792, Note_off_c, 8, 57, 100
10, 52800, Note_on_c, 8, 55, 64
10, 52984, Note_off_c, 8, 55, 100
10, 52992, Note_on_c, 8, 57, 64
10, 53112, Note_off_c, 8, 57, 100
10, 53376, Note_on_c, 8, 60, 64
10, 53496, Note_off_c, 8, 60, 100
10, 53760, Note_on_c, 8, 54, 64
10, 54272, Note_off_c, 8, 54, 100
10, 54528, Note_on_c, 8, 59, 64
10, 55040, Note_off_c, 8, 59, 100
10, 56064, Note_on_c, 8, 67, 64
10, 56824, Note_off_c, 8, 67, 100
10, 57216, Note_on_c, 8, 66, 64
10, 57400, Note_off_c, 8, 66, 100
10, 57408, Note_on_c, 8, 64, 64
10, 57592, Note_off_c, 8, 64, 100
10, 57600, Note_on_c, 8, 66, 64
10, 57720, Note_off_c, 8, 66, 100
10, 57984, Note_on_c, 8, 69, 64
10, 58104, Note_off_c, 8, 69, 100
10, 58368, Note_on_c, 8, 63, 64
10, 58488, Note_off_c, 8, 63, 100
10, 58752, Note_on_c, 8, 64, 64
10, 59264, Note_off_c, 8, 64, 100
10, 59520, Note_on_c, 8, 63, 64
10, 59640, Note_off_c, 8, 63, 100
10, 59904, Note_on_c, 8, 64, 64
10, 60416, Note_off_c, 8, 64, 100
10, 60672, Note_on_c, 8, 59, 64
10, 61432, Note_off_c, 8, 59, 100
10, 61824, Note_on_c, 8, 57, 64
10, 62008, Note_off_c, 8, 57, 100
10, 62016, Note_on_c, 8, 55, 64
10, 62200, Note_off_c, 8, 55, 100
10, 62208, Note_on_c, 8, 57, 64
10, 62328, Note_off_c, 8, 57, 100
10, 62592, Note_on_c, 8, 60, 64
10, 62712, Note_off_c, 8, 60, 100
10, 62976, Note_on_c, 8, 54, 64
10, 63096, Note_off_c, 8, 54, 100
10, 63360, Note_on_c, 8, 50, 64
10, 63480, Note_off_c, 8, 50, 100
10, 63744, Note_on_c, 8, 55, 64
10, 64504, Note_off_c, 8, 55, 100
10, 64896, Note_on_c, 8, 54, 64
10, 65080, Note_off_c, 8, 54, 100
10, 65088, Note_on_c, 8, 52, 64
10, 65272, Note_off_c, 8, 52, 100
10, 65280, Note_on_c, 8, 54, 64
10, 65400, Note_off_c, 8, 54, 100
10, 65664, Note_on_c, 8, 57, 64
10, 65784, Note_off_c, 8, 57, 100
10, 66048, Note_on_c, 8, 50, 64
10, 66808, Note_off_c, 8, 50, 100
10, 68352, Note_on_c, 8, 55, 64
10, 69112, Note_off_c, 8, 55, 100
10, 69504, Note_on_c, 8, 55, 64
10, 69688, Note_off_c, 8, 55, 100
10, 69696, Note_on_c, 8, 54, 64
10, 69880, Note_off_c, 8, 54, 100
10, 69888, Note_on_c, 8, 55, 64
10, 70648, Note_off_c, 8, 55, 100
10, 71040, Note_on_c, 8, 54, 64
10, 71224, Note_off_c, 8, 54, 100
10, 71232, Note_on_c, 8, 52, 64
10, 71416, Note_off_c, 8, 52, 100
10, 71424, Note_on_c, 8, 54, 64
10, 71544, Note_off_c, 8, 54, 100
10, 71808, Note_on_c, 8, 57, 64
10, 72184, Note_off_c, 8, 57, 100
10, 72576, Note_on_c, 8, 55, 64
10, 72704, Note_off_c, 8, 55, 100
10, 72768, Note_on_c, 8, 54, 64
10, 72896, Note_off_c, 8, 54, 100
10, 72960, Note_on_c, 8, 55, 64
10, 73472, Note_off_c, 8, 55, 100
10, 73472, End_track
11, 0, Start_track
11, 0, Control_c, 10, 0, 0
11, 0, Program_c, 10, 6
11, 0, Control_c, 10, 7, 125
11, 0, Control_c, 10, 91, 127
11, 3840, Note_on_c, 10, 55, 64
11, 4600, Note_off_c, 10, 55, 100
11, 4992, Note_on_c, 10, 54, 64
11, 5176, Note_off_c, 10, 54, 100
11, 5184, Note_on_c, 10, 52, 64
11, 5368, Note_off_c, 10, 52, 100
11, 5376, Note_on_c, 10, 54, 64
11, 5496, Note_off_c, 10, 54, 100
11, 5760, Note_on_c, 10, 57, 64
11, 5880, Note_off_c, 10, 57, 100
11, 6144, Note_on_c, 10, 50, 64
11, 6912, Note_off_c, 10, 50, 100
11, 7296, Note_on_c, 10, 53, 64
11, 7416, Note_off_c, 10, 53, 100
11, 7680, Note_on_c, 10, 52, 64
11, 8448, Note_off_c, 10, 52, 100
11, 8832, Note_on_c, 10, 55, 64
11, 9208, Note_off_c, 10, 55, 100
11, 9600, Note_on_c, 10, 54, 64
11, 9784, Note_off_c, 10, 54, 100
11, 9792, Note_on_c, 10, 52, 64
11, 9976, Note_off_c, 10, 52, 100
11, 9984, Note_on_c, 10, 54, 64
11, 10104, Note_off_c, 10, 54, 100
11, 10368, Note_on_c, 10, 57, 64
11, 10744, Note_off_c, 10, 57, 100
11, 11136, Note_on_c, 10, 55, 64
11, 11320, Note_off_c, 10, 55, 100
11, 11328, Note_on_c, 10, 54, 64
11, 11512, Note_off_c, 10, 54, 100
11, 11520, Note_on_c, 10, 55, 64
11, 11640, Note_off_c, 10, 55, 100
11, 11904, Note_on_c, 10, 59, 64
11, 12024, Note_off_c, 10, 59, 100
11, 12288, Note_on_c, 10, 52, 64
11, 12800, Note_off_c, 10, 52, 100
11, 13056, Note_on_c, 10, 59, 64
11, 13568, Note_off_c, 10, 59, 100
11, 13824, Note_on_c, 10, 57, 64
11, 14336, Note_off_c, 10, 57, 100
11, 14592, Note_on_c, 10, 62, 64
11, 15104, Note_off_c, 10, 62, 100
11, 15360, Note_on_c, 10, 64, 64
11, 18424, Note_off_c, 10, 64, 100
11, 18816, Note_on_c, 10, 62, 64
11, 19000, Note_off_c, 10, 62, 100
11, 19008, Note_on_c, 10, 61, 64
11, 19192, Note_off_c, 10, 61, 100
11, 19200, Note_on_c, 10, 62, 64
11, 19320, Note_off_c, 10, 62, 100
11, 19584, Note_on_c, 10, 66, 64
11, 19704, Note_off_c, 10, 66, 100
11, 19968, Note_on_c, 10, 59, 64
11, 20736, Note_off_c, 10, 59, 100
11, 21120, Note_on_c, 10, 64, 64
11, 21304, Note_off_c, 10, 64, 100
11, 21312, Note_on_c, 10, 62, 64
11, 21496, Note_off_c, 10, 62, 100
11, 21504, Note_on_c, 10, 64, 64
11, 21624, Note_off_c, 10, 64, 100
11, 21888, Note_on_c, 10, 62, 64
11, 22400, Note_off_c, 10, 62, 100
11, 22656, Note_on_c, 10, 61, 64
11, 22776, Note_off_c, 10, 61, 100
11, 23040, Note_on_c, 10, 62, 64
11, 23160, Note_off_c, 10, 62, 100
11, 23424, Note_on_c, 10, 57, 64
11, 23552, Note_off_c, 10, 57, 100
11, 23616, Note_on_c, 10, 55, 64
11, 23744, Note_off_c, 10, 55, 100
11, 23808, Note_on_c, 10, 57, 64
11, 24320, Note_off_c, 10, 57, 100
11, 49920, Note_on_c, 10, 69, 64
11, 50680, Note_off_c, 10, 69, 100
11, 51072, Note_on_c, 10, 67, 64
11, 51256, Note_off_c, 10, 67, 100
11, 51264, Note_on_c, 10, 66, 64
11, 51448, Note_off_c, 10, 66, 100
11, 51456, Note_on_c, 10, 67, 64
11, 51576, Note_off_c, 10, 67, 100
11, 51840, Note_on_c, 10, 71, 64
11, 51960, Note_off_c, 10, 71, 100
11, 52224, Note_on_c, 10, 64, 64
11, 53752, Note_off_c, 10, 64, 100
11, 54144, Note_on_c, 10, 63, 64
11, 54328, Note_off_c, 10, 63, 100
11, 54336, Note_on_c, 10, 61, 64
11, 54520, Note_off_c, 10, 61, 100
11, 54528, Note_on_c, 10, 63, 64
11, 54648, Note_off_c, 10, 63, 100
11, 54912, Note_on_c, 10, 66, 64
11, 55032, Note_off_c, 10, 66, 100
11, 55296, Note_on_c, 10, 71, 64
11, 55416, Note_off_c, 10, 71, 100
11, 55680, Note_on_c, 10, 59, 64
11, 55800, Note_off_c, 10, 59, 100
11, 56064, Note_on_c, 10, 71, 64
11, 56824, Note_off_c, 10, 71, 100
11, 57216, Note_on_c, 10, 69, 64
11, 57400, Note_off_c, 10, 69, 100
11, 57408, Note_on_c, 10, 67, 64
11, 57592, Note_off_c, 10, 67, 100
11, 57600, Note_on_c, 10, 69, 64
11, 57720, Note_off_c, 10, 69, 100
11, 57984, Note_on_c, 10, 72, 64
11, 58104, Note_off_c, 10, 72, 100
11, 58368, Note_on_c, 10, 66, 64
11, 58488, Note_off_c, 10, 66, 100
11, 58752, Note_on_c, 10, 67, 64
11, 58872, Note_off_c, 10, 67, 100
11, 59136, Note_on_c, 10, 69, 64
11, 59896, Note_off_c, 10, 69, 100
11, 60288, Note_on_c, 10, 67, 64
11, 60472, Note_off_c, 10, 67, 100
11, 60480, Note_on_c, 10, 66, 64
11, 60664, Note_off_c, 10, 66, 100
11, 60672, Note_on_c, 10, 67, 64
11, 60792, Note_off_c, 10, 67, 100
11, 61056, Note_on_c, 10, 71, 64
11, 61176, Note_off_c, 10, 71, 100
11, 61440, Note_on_c, 10, 64, 64
11, 62464, Note_off_c, 10, 64, 100
11, 62976, Note_on_c, 10, 62, 64
11, 64000, Note_off_c, 10, 62, 100
11, 64512, Note_on_c, 10, 60, 64
11, 65536, Note_off_c, 10, 60, 100
11, 66816, Note_on_c, 10, 62, 64
11, 67576, Note_off_c, 10, 62, 100
11, 67968, Note_on_c, 10, 60, 64
11, 68152, Note_off_c, 10, 60, 100
11, 68160, Note_on_c, 10, 59, 64
11, 68344, Note_off_c, 10, 59, 100
11, 68352, Note_on_c, 10, 60, 64
11, 68472, Note_off_c, 10, 60, 100
11, 68736, Note_on_c, 10, 64, 64
11, 68856, Note_off_c, 10, 64, 100
11, 69120, Note_on_c, 10, 57, 64
11, 69880, Note_off_c, 10, 57, 100
11, 70080, Note_on_c, 10, 64, 64
11, 70264, Note_off_c, 10, 64, 100
11, 70272, Note_on_c, 10, 62, 64
11, 70456, Note_off_c, 10, 62, 100
11, 70464, Note_on_c, 10, 64, 64
11, 70648, Note_off_c, 10, 64, 100
11, 70656, Note_on_c, 10, 57, 64
11, 70776, Note_off_c, 10, 57, 100
11, 71040, Note_on_c, 10, 62, 64
11, 71800, Note_off_c, 10, 62, 100
11, 71808, Note_on_c, 10, 60, 64
11, 72184, Note_off_c, 10, 60, 100
11, 72576, Note_on_c, 10, 59, 64
11, 72704, Note_off_c, 10, 59, 100
11, 72768, Note_on_c, 10, 57, 64
11, 72896, Note_off_c, 10, 57, 100
11, 72960, Note_on_c, 10, 59, 64
11, 73472, Note_off_c, 10, 59, 100
11, 73472, End_track
12, 0, Start_track
12, 0, Control_c, 11, 0, 0
12, 0, Program_c, 11, 6
12, 0, Control_c, 11, 7, 125
12, 0, Control_c, 11, 91, 127
12, 768, Note_on_c, 11, 76, 96
12, 1528, Note_off_c, 11, 76, 100
12, 1920, Note_on_c, 11, 74, 96
12, 2104, Note_off_c, 11, 74, 100
12, 2112, Note_on_c, 11, 73, 96
12, 2296, Note_off_c, 11, 73, 100
12, 2304, Note_on_c, 11, 74, 96
12, 3064, Note_off_c, 11, 74, 100
12, 3456, Note_on_c, 11, 73, 96
12, 3640, Note_off_c, 11, 73, 100
12, 3648, Note_on_c, 11, 71, 96
12, 3832, Note_off_c, 11, 71, 100
12, 3840, Note_on_c, 11, 73, 96
12, 3960, Note_off_c, 11, 73, 100
12, 4224, Note_on_c, 11, 76, 96
12, 4344, Note_off_c, 11, 76, 100
12, 4608, Note_on_c, 11, 69, 96
12, 6136, Note_off_c, 11, 69, 100
12, 6528, Note_on_c, 11, 67, 96
12, 6712, Note_off_c, 11, 67, 100
12, 6720, Note_on_c, 11, 66, 96
12, 6904, Note_off_c, 11, 66, 100
12, 6912, Note_on_c, 11, 67, 96
12, 7672, Note_off_c, 11, 67, 100
12, 8064, Note_on_c, 11, 64, 96
12, 8184, Note_off_c, 11, 64, 100
12, 8448, Note_on_c, 11, 69, 96
12, 9208, Note_off_c, 11, 69, 100
12, 9600, Note_on_c, 11, 69, 96
12, 9784, Note_off_c, 11, 69, 100
12, 9792, Note_on_c, 11, 67, 96
12, 9976, Note_off_c, 11, 67, 100
12, 9984, Note_on_c, 11, 69, 96
12, 10104, Note_off_c, 11, 69, 100
12, 10368, Note_on_c, 11, 66, 96
12, 10488, Note_off_c, 11, 66, 100
12, 10752, Note_on_c, 11, 74, 96
12, 11512, Note_off_c, 11, 74, 100
12, 13056, Note_on_c, 11, 76, 96
12, 13816, Note_off_c, 11, 76, 100
12, 14208, Note_on_c, 11, 74, 96
12, 14392, Note_off_c, 11, 74, 100
12, 14400, Note_on_c, 11, 73, 96
12, 14584, Note_off_c, 11, 73, 100
12, 14592, Note_on_c, 11, 74, 96
12, 15352, Note_off_c, 11, 74, 100
12, 15744, Note_on_c, 11, 73, 96
12, 15928, Note_off_c, 11, 73, 100
12, 15936, Note_on_c, 11, 71, 96
12, 16120, Note_off_c, 11, 71, 100
12, 16128, Note_on_c, 11, 73, 96
12, 16248, Note_off_c, 11, 73, 100
12, 16512, Note_on_c, 11, 76, 96
12, 16632, Note_off_c, 11, 76, 100
12, 16896, Note_on_c, 11, 69, 96
12, 18424, Note_off_c, 11, 69, 100
12, 19200, Note_on_c, 11, 69, 96
12, 19960, Note_off_c, 11, 69, 100
12, 20352, Note_on_c, 11, 67, 96
12, 20536, Note_off_c, 11, 67, 100
12, 20544, Note_on_c, 11, 66, 96
12, 20728, Note_off_c, 11, 66, 100
12, 20736, Note_on_c, 11, 67, 96
12, 20856, Note_off_c, 11, 67, 100
12, 21120, Note_on_c, 11, 71, 96
12, 21240, Note_off_c, 11, 71, 100
12, 21504, Note_on_c, 11, 61, 96
12, 21624, Note_off_c, 11, 61, 100
12, 21888, Note_on_c, 11, 62, 96
12, 22008, Note_off_c, 11, 62, 100
12, 22272, Note_on_c, 11, 64, 96
12, 22456, Note_off_c, 11, 64, 100
12, 22464, Note_on_c, 11, 66, 96
12, 22648, Note_off_c, 11, 66, 100
12, 22656, Note_on_c, 11, 67, 96
12, 23032, Note_off_c, 11, 67, 100
12, 23424, Note_on_c, 11, 66, 96
12, 23552, Note_off_c, 11, 66, 100
12, 23616, Note_on_c, 11, 64, 96
12, 23744, Note_off_c, 11, 64, 100
12, 23808, Note_on_c, 11, 66, 96
12, 24320, Note_off_c, 11, 66, 100
12, 49152, Note_on_c, 11, 74, 96
12, 49920, Note_off_c, 11, 74, 100
12, 50304, Note_on_c, 11, 72, 96
12, 50424, Note_off_c, 11, 72, 100
12, 50688, Note_on_c, 11, 71, 96
12, 50808, Note_off_c, 11, 71, 100
12, 51072, Note_on_c, 11, 74, 96
12, 51192, Note_off_c, 11, 74, 100
12, 51456, Note_on_c, 11, 79, 96
12, 51576, Note_off_c, 11, 79, 100
12, 51840, Note_on_c, 11, 67, 96
12, 51960, Note_off_c, 11, 67, 100
12, 52224, Note_on_c, 11, 72, 96
12, 52344, Note_off_c, 11, 72, 100
12, 52608, Note_on_c, 11, 76, 96
12, 52728, Note_off_c, 11, 76, 100
12, 52992, Note_on_c, 11, 72, 96
12, 53112, Note_off_c, 11, 72, 100
12, 53376, Note_on_c, 11, 69, 96
12, 53496, Note_off_c, 11, 69, 100
12, 53760, Note_on_c, 11, 71, 96
12, 53880, Note_off_c, 11, 71, 100
12, 54144, Note_on_c, 11, 59, 96
12, 54264, Note_off_c, 11, 59, 100
12, 54528, Note_on_c, 11, 71, 96
12, 54648, Note_off_c, 11, 71, 100
12, 54912, Note_on_c, 11, 69, 96
12, 55032, Note_off_c, 11, 69, 100
12, 55296, Note_on_c, 11, 67, 96
12, 56320, Note_off_c, 11, 67, 100
12, 56832, Note_on_c, 11, 69, 96
12, 57856, Note_off_c, 11, 69, 100
12, 58368, Note_on_c, 11, 71, 96
12, 59392, Note_off_c, 11, 71, 100
12, 59904, Note_on_c, 11, 64, 96
12, 60672, Note_off_c, 11, 64, 100
12, 61056, Note_on_c, 11, 62, 96
12, 61176, Note_off_c, 11, 62, 100
12, 61440, Note_on_c, 11, 60, 96
12, 61952, Note_off_c, 11, 60, 100
12, 62208, Note_on_c, 11, 72, 96
12, 62968, Note_off_c, 11, 72, 100
12, 63360, Note_on_c, 11, 71, 96
12, 63544, Note_off_c, 11, 71, 100
12, 63552, Note_on_c, 11, 69, 96
12, 63736, Note_off_c, 11, 69, 100
12, 63744, Note_on_c, 11, 71, 96
12, 63864, Note_off_c, 11, 71, 100
12, 64128, Note_on_c, 11, 76, 96
12, 64248, Note_off_c, 11, 76, 100
12, 64512, Note_on_c, 11, 69, 96
12, 65280, Note_off_c, 11, 69, 100
12, 65664, Note_on_c, 11, 67, 96
12, 65784, Note_off_c, 11, 67, 100
12, 66048, Note_on_c, 11, 66, 96
12, 66560, Note_off_c, 11, 66, 100
12, 66816, Note_on_c, 11, 67, 96
12, 67328, Note_off_c, 11, 67, 100
12, 67584, Note_on_c, 11, 64, 96
12, 68352, Note_off_c, 11, 64, 100
12, 68736, Note_on_c, 11, 62, 96
12, 68856, Note_off_c, 11, 62, 100
12, 69120, Note_on_c, 11, 60, 96
12, 69632, Note_off_c, 11, 60, 100
12, 69888, Note_on_c, 11, 61, 96
12, 70648, Note_off_c, 11, 61, 100
12, 70656, Note_on_c, 11, 62, 96
12, 71680, Note_off_c, 11, 62, 100
12, 72192, Note_on_c, 11, 55, 96
12, 73472, Note_off_c, 11, 55, 100
12, 73472, End_track
13, 0, Start_track
13, 0, Control_c, 12, 0, 0
13, 0, Program_c, 12, 6
13, 0, Control_c, 12, 7, 127
13, 0, Note_on_c, 12, 67, 96
13, 1024, Note_off_c, 12, 67, 100
13, 1536, Note_on_c, 12, 66, 96
13, 2560, Note_off_c, 12, 66, 100
13, 3072, Note_on_c, 12, 64, 96
13, 4096, Note_off_c, 12, 64, 100
13, 4608, Note_on_c, 12, 62, 96
13, 5376, Note_off_c, 12, 62, 100
13, 5760, Note_on_c, 12, 60, 96
13, 5880, Note_off_c, 12, 60, 100
13, 6144, Note_on_c, 12, 59, 96
13, 7168, Note_off_c, 12, 59, 100
13, 7680, Note_on_c, 12, 60, 96
13, 8704, Note_off_c, 12, 60, 100
13, 9216, Note_on_c, 12, 62, 96
13, 10240, Note_off_c, 12, 62, 100
13, 10752, Note_on_c, 12, 55, 96
13, 12280, Note_off_c, 12, 55, 100
13, 12672, Note_on_c, 12, 67, 96
13, 12856, Note_off_c, 12, 67, 100
13, 12864, Note_on_c, 12, 66, 96
13, 13048, Note_off_c, 12, 66, 100
13, 13056, Note_on_c, 12, 67, 96
13, 13816, Note_off_c, 12, 67, 100
13, 14208, Note_on_c, 12, 66, 96
13, 14392, Note_off_c, 12, 66, 100
13, 14400, Note_on_c, 12, 64, 96
13, 14584, Note_off_c, 12, 64, 100
13, 14592, Note_on_c, 12, 66, 96
13, 14712, Note_off_c, 12, 66, 100
13, 14976, Note_on_c, 12, 71, 96
13, 15096, Note_off_c, 12, 71, 100
13, 15360, Note_on_c, 12, 64, 96
13, 16128, Note_off_c, 12, 64, 100
13, 16512, Note_on_c, 12, 62, 96
13, 16888, Note_off_c, 12, 62, 100
13, 17280, Note_on_c, 12, 61, 96
13, 17464, Note_off_c, 12, 61, 100
13, 17472, Note_on_c, 12, 59, 96
13, 17656, Note_off_c, 12, 59, 100
13, 17664, Note_on_c, 12, 61, 96
13, 17784, Note_off_c, 12, 61, 100
13, 18048, Note_on_c, 12, 64, 96
13, 18168, Note_off_c, 12, 64, 100
13, 18432, Note_on_c, 12, 54, 96
13, 18944, Note_off_c, 12, 54, 100
13, 19200, Note_on_c, 12, 66, 96
13, 19712, Note_off_c, 12, 66, 100
13, 19968, Note_on_c, 12, 55, 96
13, 20480, Note_off_c, 12, 55, 100
13, 20736, Note_on_c, 12, 64, 96
13, 21248, Note_off_c, 12, 64, 100
13, 21504, Note_on_c, 12, 57, 96
13, 22528, Note_off_c, 12, 57, 100
13, 23040, Note_on_c, 12, 62, 96
13, 24320, Note_off_c, 12, 62, 100
13, 54528, Note_on_c, 12, 78, 96
13, 55288, Note_off_c, 12, 78, 100
13, 55680, Note_on_c, 12, 76, 96
13, 55864, Note_off_c, 12, 76, 100
13, 55872, Note_on_c, 12, 75, 96
13, 56056, Note_off_c, 12, 75, 100
13, 56064, Note_on_c, 12, 76, 96
13, 56184, Note_off_c, 12, 76, 100
13, 56448, Note_on_c, 12, 79, 96
13, 56568, Note_off_c, 12, 79, 100
13, 56832, Note_on_c, 12, 72, 96
13, 56952, Note_off_c, 12, 72, 100
13, 57216, Note_on_c, 12, 76, 96
13, 57336, Note_off_c, 12, 76, 100
13, 57600, Note_on_c, 12, 81, 96
13, 58360, Note_off_c, 12, 81, 100
13, 58752, Note_on_c, 12, 79, 96
13, 58872, Note_off_c, 12, 79, 100
13, 59136, Note_on_c, 12, 78, 96
13, 59648, Note_off_c, 12, 78, 100
13, 59904, Note_on_c, 12, 76, 96
13, 60664, Note_off_c, 12, 76, 100
13, 65280, Note_on_c, 12, 72, 96
13, 66040, Note_off_c, 12, 72, 100
13, 66432, Note_on_c, 12, 71, 96
13, 66616, Note_off_c, 12, 71, 100
13, 66624, Note_on_c, 12, 69, 96
13, 66808, Note_off_c, 12, 69, 100
13, 66816, Note_on_c, 12, 71, 96
13, 66936, Note_off_c, 12, 71, 100
13, 67200, Note_on_c, 12, 74, 96
13, 67320, Note_off_c, 12, 74, 100
13, 67584, Note_on_c, 12, 67, 96
13, 68352, Note_off_c, 12, 67, 100
13, 68736, Note_on_c, 12, 71, 96
13, 68856, Note_off_c, 12, 71, 100
13, 69120, Note_on_c, 12, 64, 96
13, 69632, Note_off_c, 12, 64, 100
13, 69888, Note_on_c, 12, 69, 96
13, 70648, Note_off_c, 12, 69, 100
13, 71040, Note_on_c, 12, 69, 96
13, 71224, Note_off_c, 12, 69, 100
13, 71232, Note_on_c, 12, 67, 96
13, 71416, Note_off_c, 12, 67, 100
13, 71424, Note_on_c, 12, 69, 96
13, 71544, Note_off_c, 12, 69, 100
13, 71808, Note_on_c, 12, 66, 96
13, 71928, Note_off_c, 12, 66, 100
13, 72192, Note_on_c, 12, 74, 96
13, 73472, Note_off_c, 12, 74, 100
13, 73472, End_track
14, 0, Start_track
14, 1, Copyright_t, "___________________________________________________\012\012KUNSTDERFUGE.COM LARGE CLASSICAL MIDI COLLECTION\012ONCLASSICAL BY ALESSANDRO SIMONETTO, PROPRIETOR\012___________________________________________________\012\012! Attention: this file is under copyright !\012\012(c)onclassical, (c)degiusti, 2010\012___________________________________________________\012\012NO ONE MAY REPUBLISH THIS FILE WITHOUT PERMISSION\012COMMERCIAL USES OF THIS FILE IS STRICTLY PROHIBITED\012___________________________________________________\012\012Files & contributor's list: http://kunstderfuge.com/\012Terms and conditions: http://kunstderfuge.com/notes.htm"
14, 1, End_track
0, 0, End_of_file