0, 0, Header, 1, 13, 480
1, 0, Start_track
1, 0, Text_t, "D. SHOSTAKOVICH - Fugue in C Major opus 87 no. 1"
1, 0, Tempo, 326087
1, 0, Time_signature, 4, 2, 24, 8
1, 0, Key_signature, 0, "major"
1, 199620, Tempo, 324324
1, 199640, Tempo, 335196
1, 199660, Tempo, 346821
1, 199680, Tempo, 375000
1, 201080, Tempo, 428571
1, 201100, Tempo, 431655
1, 201620, Tempo, 491803
1, 201640, Tempo, 495868
1, 201700, Tempo, 500000
1, 202600, Tempo, 606061
1, 202620, Tempo, 612245
1, 203000, Tempo, 923077
1, 203020, Tempo, 909091
1, 203020, End_track
2, 0, Start_track
2, 0, Title_t, "sop"
2, 0, MIDI_port, 0
2, 0, Channel_prefix, 0
2, 0, Control_c, 0, 7, 127
2, 0, Control_c, 0, 10, 72
2, 0, Program_c, 0, 0
2, 0, Control_c, 0, 121, 0
2, 1, Control_c, 0, 11, 64
2, 1, Control_c, 0, 91, 60
2, 49920, Control_c, 0, 11, 123
2, 50880, Note_on_c, 0, 67, 64
2, 51839, Note_off_c, 0, 67, 64
2, 51840, Note_on_c, 0, 74, 64
2, 54719, Note_off_c, 0, 74, 64
2, 54720, Note_on_c, 0, 67, 64
2, 55679, Note_off_c, 0, 67, 64
2, 55680, Note_on_c, 0, 74, 64
2, 56159, Note_off_c, 0, 74, 64
2, 56160, Note_on_c, 0, 76, 66
2, 56639, Note_off_c, 0, 76, 64
2, 56640, Note_on_c, 0, 74, 69
2, 58559, Note_off_c, 0, 74, 64
2, 58560, Note_on_c, 0, 79, 75
2, 59519, Note_off_c, 0, 79, 64
2, 59520, Note_on_c, 0, 74, 75
2, 60959, Note_off_c, 0, 74, 64
2, 60960, Note_on_c, 0, 76, 75
2, 61439, Note_off_c, 0, 76, 64
2, 61440, Note_on_c, 0, 72, 75
2, 62399, Note_off_c, 0, 72, 64
2, 62400, Note_on_c, 0, 79, 75
2, 63359, Note_off_c, 0, 79, 64
2, 63360, Note_on_c, 0, 72, 75
2, 64799, Note_off_c, 0, 72, 64
2, 64800, Note_on_c, 0, 74, 75
2, 65279, Note_off_c, 0, 74, 64
2, 65280, Note_on_c, 0, 71, 75
2, 66719, Note_off_c, 0, 71, 64
2, 66720, Note_on_c, 0, 72, 75
2, 67199, Note_off_c, 0, 72, 64
2, 67200, Note_on_c, 0, 69, 75
2, 67200, Control_c, 0, 11, 115
2, 68639, Note_off_c, 0, 69, 64
2, 68640, Note_on_c, 0, 71, 82
2, 69119, Note_off_c, 0, 71, 64
2, 69120, Note_on_c, 0, 67, 85
2, 72959, Note_off_c, 0, 67, 64
2, 72960, Note_on_c, 0, 71, 77
2, 73919, Note_off_c, 0, 71, 64
2, 73920, Note_on_c, 0, 69, 73
2, 75359, Note_off_c, 0, 69, 64
2, 75360, Note_on_c, 0, 71, 67
2, 75839, Note_off_c, 0, 71, 64
2, 75840, Note_on_c, 0, 72, 64
2, 76799, Note_off_c, 0, 72, 64
2, 76800, Note_on_c, 0, 71, 64
2, 77759, Note_off_c, 0, 71, 64
2, 77760, Note_on_c, 0, 79, 64
2, 78239, Note_off_c, 0, 79, 64
2, 78240, Note_on_c, 0, 77, 64
2, 78719, Note_off_c, 0, 77, 64
2, 78720, Note_on_c, 0, 76, 64
2, 79199, Note_off_c, 0, 76, 64
2, 79200, Note_on_c, 0, 74, 64
2, 79679, Note_off_c, 0, 74, 64
2, 79680, Note_on_c, 0, 72, 64
2, 80639, Note_off_c, 0, 72, 64
2, 80640, Note_on_c, 0, 71, 64
2, 81599, Note_off_c, 0, 71, 64
2, 81600, Note_on_c, 0, 79, 64
2, 82079, Note_off_c, 0, 79, 64
2, 82080, Note_on_c, 0, 77, 64
2, 82559, Note_off_c, 0, 77, 64
2, 82560, Note_on_c, 0, 76, 64
2, 83039, Note_off_c, 0, 76, 64
2, 83040, Note_on_c, 0, 77, 64
2, 83519, Note_off_c, 0, 77, 64
2, 83520, Note_on_c, 0, 79, 64
2, 83999, Note_off_c, 0, 79, 64
2, 84000, Note_on_c, 0, 81, 64
2, 84479, Note_off_c, 0, 81, 64
2, 84480, Note_on_c, 0, 83, 64
2, 84959, Note_off_c, 0, 83, 64
2, 84960, Note_on_c, 0, 81, 64
2, 85439, Note_off_c, 0, 81, 64
2, 85440, Note_on_c, 0, 79, 64
2, 86879, Note_off_c, 0, 79, 64
2, 86880, Note_on_c, 0, 77, 64
2, 87359, Note_off_c, 0, 77, 64
2, 87360, Note_on_c, 0, 79, 64
2, 87839, Note_off_c, 0, 79, 64
2, 87840, Note_on_c, 0, 76, 64
2, 88319, Note_off_c, 0, 76, 64
2, 88320, Note_on_c, 0, 77, 64
2, 88799, Note_off_c, 0, 77, 64
2, 88800, Note_on_c, 0, 79, 64
2, 89279, Note_off_c, 0, 79, 64
2, 89280, Note_on_c, 0, 77, 64
2, 90719, Note_off_c, 0, 77, 64
2, 90720, Note_on_c, 0, 76, 66
2, 91199, Note_off_c, 0, 76, 64
2, 91200, Note_on_c, 0, 74, 69
2, 91679, Note_off_c, 0, 74, 64
2, 91680, Note_on_c, 0, 72, 71
2, 92159, Note_off_c, 0, 72, 64
2, 92160, Note_on_c, 0, 74, 75
2, 92639, Note_off_c, 0, 74, 64
2, 92640, Note_on_c, 0, 72, 75
2, 93119, Note_off_c, 0, 72, 64
2, 93120, Note_on_c, 0, 71, 75
2, 93599, Note_off_c, 0, 71, 64
2, 93600, Note_on_c, 0, 72, 75
2, 94079, Note_off_c, 0, 72, 64
2, 94080, Note_on_c, 0, 74, 75
2, 95519, Note_off_c, 0, 74, 64
2, 95520, Note_on_c, 0, 76, 75
2, 95999, Note_off_c, 0, 76, 64
2, 96000, Note_on_c, 0, 74, 75
2, 98399, Note_off_c, 0, 74, 64
2, 98400, Note_on_c, 0, 72, 75
2, 98879, Note_off_c, 0, 72, 64
2, 98880, Note_on_c, 0, 71, 70
2, 99359, Note_off_c, 0, 71, 64
2, 99360, Note_on_c, 0, 72, 70
2, 99839, Note_off_c, 0, 72, 64
2, 99840, Note_on_c, 0, 74, 70
2, 100319, Note_off_c, 0, 74, 64
2, 100320, Note_on_c, 0, 72, 70
2, 100799, Note_off_c, 0, 72, 64
2, 100800, Note_on_c, 0, 71, 69
2, 102239, Note_off_c, 0, 71, 64
2, 102240, Note_on_c, 0, 69, 69
2, 102719, Note_off_c, 0, 69, 64
2, 102720, Note_on_c, 0, 67, 68
2, 103679, Note_off_c, 0, 67, 64
2, 103680, Note_on_c, 0, 72, 68
2, 104159, Note_off_c, 0, 72, 64
2, 104160, Note_on_c, 0, 71, 68
2, 104639, Note_off_c, 0, 71, 64
2, 104640, Note_on_c, 0, 69, 67
2, 106079, Note_off_c, 0, 69, 64
2, 106080, Note_on_c, 0, 67, 67
2, 106559, Note_off_c, 0, 67, 64
2, 106560, Note_on_c, 0, 65, 67
2, 107999, Note_off_c, 0, 65, 64
2, 108000, Note_on_c, 0, 67, 66
2, 108479, Note_off_c, 0, 67, 64
2, 108480, Note_on_c, 0, 64, 66
2, 110399, Note_off_c, 0, 64, 64
2, 110400, Control_c, 0, 11, 127
2, 110400, Note_on_c, 0, 69, 65
2, 111359, Note_off_c, 0, 69, 64
2, 111360, Note_on_c, 0, 76, 64
2, 114239, Note_off_c, 0, 76, 64
2, 114240, Note_on_c, 0, 69, 64
2, 115199, Note_off_c, 0, 69, 64
2, 115200, Note_on_c, 0, 76, 64
2, 115679, Note_off_c, 0, 76, 64
2, 115680, Note_on_c, 0, 77, 64
2, 116159, Note_off_c, 0, 77, 64
2, 116160, Note_on_c, 0, 76, 64
2, 118079, Note_off_c, 0, 76, 64
2, 118080, Note_on_c, 0, 81, 64
2, 119039, Note_off_c, 0, 81, 64
2, 119040, Note_on_c, 0, 76, 64
2, 120479, Note_off_c, 0, 76, 64
2, 120480, Note_on_c, 0, 77, 64
2, 120959, Note_off_c, 0, 77, 64
2, 120960, Note_on_c, 0, 74, 64
2, 121919, Note_off_c, 0, 74, 64
2, 121920, Note_on_c, 0, 81, 64
2, 122879, Note_off_c, 0, 81, 64
2, 122880, Note_on_c, 0, 74, 64
2, 124319, Note_off_c, 0, 74, 64
2, 124320, Note_on_c, 0, 76, 64
2, 124799, Note_off_c, 0, 76, 64
2, 124800, Note_on_c, 0, 72, 66
2, 125760, Control_c, 0, 11, 109
2, 126239, Note_off_c, 0, 72, 64
2, 126240, Note_on_c, 0, 71, 75
2, 126719, Note_off_c, 0, 71, 64
2, 126720, Note_on_c, 0, 69, 75
2, 127679, Note_off_c, 0, 69, 64
2, 127680, Note_on_c, 0, 77, 75
2, 128159, Note_off_c, 0, 77, 64
2, 128160, Note_on_c, 0, 76, 75
2, 128639, Note_off_c, 0, 76, 64
2, 128640, Note_on_c, 0, 74, 75
2, 129119, Note_off_c, 0, 74, 64
2, 129120, Note_on_c, 0, 72, 75
2, 129599, Note_off_c, 0, 72, 64
2, 129600, Note_on_c, 0, 71, 75
2, 130559, Note_off_c, 0, 71, 64
2, 130560, Note_on_c, 0, 69, 75
2, 131519, Note_off_c, 0, 69, 64
2, 131520, Note_on_c, 0, 77, 75
2, 131999, Note_off_c, 0, 77, 64
2, 132000, Note_on_c, 0, 76, 75
2, 132479, Note_off_c, 0, 76, 64
2, 132480, Note_on_c, 0, 74, 75
2, 132959, Note_off_c, 0, 74, 64
2, 132960, Note_on_c, 0, 76, 75
2, 133439, Note_off_c, 0, 76, 64
2, 133440, Note_on_c, 0, 77, 80
2, 133919, Note_off_c, 0, 77, 64
2, 133920, Note_on_c, 0, 79, 80
2, 134399, Note_off_c, 0, 79, 64
2, 134400, Note_on_c, 0, 81, 81
2, 134879, Note_off_c, 0, 81, 64
2, 134880, Note_on_c, 0, 79, 82
2, 135359, Note_off_c, 0, 79, 64
2, 135360, Note_on_c, 0, 77, 83
2, 136799, Note_off_c, 0, 77, 64
2, 136800, Note_on_c, 0, 76, 85
2, 137279, Note_off_c, 0, 76, 64
2, 137280, Note_on_c, 0, 77, 86
2, 137759, Note_off_c, 0, 77, 64
2, 137760, Note_on_c, 0, 74, 86
2, 138239, Note_off_c, 0, 74, 64
2, 138240, Note_on_c, 0, 76, 87
2, 138719, Note_off_c, 0, 76, 64
2, 138720, Note_on_c, 0, 77, 88
2, 139199, Note_off_c, 0, 77, 64
2, 139200, Note_on_c, 0, 76, 89
2, 140639, Note_off_c, 0, 76, 64
2, 140640, Note_on_c, 0, 74, 91
2, 141119, Note_off_c, 0, 74, 64
2, 141120, Note_on_c, 0, 72, 92
2, 141599, Note_off_c, 0, 72, 64
2, 141600, Note_on_c, 0, 74, 92
2, 142079, Note_off_c, 0, 74, 64
2, 142080, Note_on_c, 0, 71, 93
2, 143519, Note_off_c, 0, 71, 64
2, 143520, Note_on_c, 0, 72, 90
2, 143999, Note_off_c, 0, 72, 64
2, 144000, Note_on_c, 0, 69, 89
2, 145439, Note_off_c, 0, 69, 64
2, 145440, Note_on_c, 0, 71, 86
2, 145919, Note_off_c, 0, 71, 64
2, 145920, Note_on_c, 0, 67, 85
2, 147839, Note_off_c, 0, 67, 64
2, 147840, Note_on_c, 0, 65, 81
2, 150719, Note_off_c, 0, 65, 64
2, 150720, Note_on_c, 0, 72, 75
2, 150720, Control_c, 0, 11, 127
2, 151679, Note_off_c, 0, 72, 64
2, 151680, Note_on_c, 0, 79, 75
2, 154559, Note_off_c, 0, 79, 64
2, 154560, Note_on_c, 0, 72, 75
2, 155519, Note_off_c, 0, 72, 64
2, 155520, Note_on_c, 0, 79, 75
2, 155999, Note_off_c, 0, 79, 64
2, 156000, Note_on_c, 0, 81, 75
2, 156479, Note_off_c, 0, 81, 64
2, 156480, Note_on_c, 0, 79, 75
2, 158399, Note_off_c, 0, 79, 64
2, 158400, Note_on_c, 0, 84, 75
2, 159359, Note_off_c, 0, 84, 64
2, 159360, Note_on_c, 0, 79, 75
2, 160799, Note_off_c, 0, 79, 64
2, 160800, Note_on_c, 0, 81, 75
2, 161279, Note_off_c, 0, 81, 64
2, 161280, Note_on_c, 0, 77, 75
2, 162239, Note_off_c, 0, 77, 64
2, 162240, Note_on_c, 0, 84, 75
2, 163199, Note_off_c, 0, 84, 64
2, 163200, Note_on_c, 0, 77, 75
2, 164639, Note_off_c, 0, 77, 64
2, 164640, Note_on_c, 0, 79, 80
2, 165119, Note_off_c, 0, 79, 64
2, 165120, Note_on_c, 0, 76, 85
2, 166080, Control_c, 0, 11, 110
2, 166559, Note_off_c, 0, 76, 64
2, 166560, Note_on_c, 0, 74, 95
2, 167039, Note_off_c, 0, 74, 64
2, 167040, Note_on_c, 0, 72, 95
2, 168479, Note_off_c, 0, 72, 64
2, 168480, Note_on_c, 0, 74, 95
2, 168959, Note_off_c, 0, 74, 64
2, 168960, Note_on_c, 0, 71, 95
2, 170399, Note_off_c, 0, 71, 64
2, 170400, Note_on_c, 0, 72, 95
2, 170879, Note_off_c, 0, 72, 64
2, 170880, Note_on_c, 0, 69, 95
2, 171839, Note_off_c, 0, 69, 64
2, 171840, Note_on_c, 0, 81, 95
2, 172319, Note_off_c, 0, 81, 64
2, 172320, Note_on_c, 0, 79, 95
2, 172799, Note_off_c, 0, 79, 64
2, 172800, Note_on_c, 0, 77, 95
2, 173759, Note_off_c, 0, 77, 64
2, 173760, Note_on_c, 0, 69, 95
2, 174239, Note_off_c, 0, 69, 64
2, 174240, Note_on_c, 0, 71, 95
2, 174719, Note_off_c, 0, 71, 64
2, 174720, Note_on_c, 0, 72, 95
2, 175679, Note_off_c, 0, 72, 64
2, 175680, Note_on_c, 0, 81, 95
2, 176159, Note_off_c, 0, 81, 64
2, 176160, Note_on_c, 0, 79, 95
2, 176639, Note_off_c, 0, 79, 64
2, 176640, Note_on_c, 0, 77, 95
2, 177119, Note_off_c, 0, 77, 64
2, 177120, Note_on_c, 0, 79, 95
2, 177599, Note_off_c, 0, 79, 64
2, 177600, Note_on_c, 0, 76, 95
2, 178559, Note_off_c, 0, 76, 64
2, 178560, Note_on_c, 0, 76, 95
2, 179519, Note_off_c, 0, 76, 64
2, 179520, Note_on_c, 0, 74, 90
2, 180959, Note_off_c, 0, 74, 64
2, 180960, Note_on_c, 0, 72, 88
2, 181439, Note_off_c, 0, 72, 64
2, 181440, Note_on_c, 0, 71, 87
2, 181919, Note_off_c, 0, 71, 64
2, 181920, Note_on_c, 0, 69, 86
2, 183839, Note_off_c, 0, 69, 64
2, 183840, Note_on_c, 0, 71, 82
2, 184319, Note_off_c, 0, 71, 64
2, 184320, Note_on_c, 0, 67, 81
2, 185759, Note_off_c, 0, 67, 64
2, 185760, Note_on_c, 0, 69, 78
2, 186239, Note_off_c, 0, 69, 64
2, 186240, Note_on_c, 0, 65, 78
2, 188159, Note_off_c, 0, 65, 64
2, 188160, Note_on_c, 0, 64, 75
2, 189119, Note_off_c, 0, 64, 64
2, 189120, Note_on_c, 0, 72, 75
2, 190559, Note_off_c, 0, 72, 64
2, 190560, Note_on_c, 0, 74, 75
2, 191039, Note_off_c, 0, 74, 64
2, 191040, Note_on_c, 0, 72, 75
2, 191999, Note_off_c, 0, 72, 64
2, 192000, Note_on_c, 0, 64, 75
2, 192959, Note_off_c, 0, 64, 64
2, 192960, Note_on_c, 0, 72, 70
2, 194879, Note_off_c, 0, 72, 64
2, 194880, Control_c, 0, 11, 127
2, 194880, Note_on_c, 0, 74, 69
2, 195839, Note_off_c, 0, 74, 64
2, 195840, Note_on_c, 0, 67, 68
2, 197279, Note_off_c, 0, 67, 64
2, 197280, Note_on_c, 0, 69, 67
2, 197759, Note_off_c, 0, 69, 64
2, 197760, Note_on_c, 0, 65, 67
2, 198719, Note_off_c, 0, 65, 64
2, 198720, Note_on_c, 0, 72, 66
2, 199679, Note_off_c, 0, 72, 64
2, 199680, Note_on_c, 0, 65, 65
2, 202559, Note_off_c, 0, 65, 64
2, 202560, Note_on_c, 0, 67, 63
2, 203519, Note_off_c, 0, 67, 64
2, 203520, Note_on_c, 0, 64, 62
2, 205200, Note_off_c, 0, 64, 64
2, 205438, Control_c, 0, 91, 0
2, 205439, Control_c, 0, 121, 0
2, 205439, End_track
3, 0, Start_track
3, 0, Title_t, "alt"
3, 0, MIDI_port, 0
3, 0, Channel_prefix, 1
3, 0, Control_c, 1, 7, 127
3, 0, Control_c, 1, 10, 68
3, 0, Program_c, 1, 0
3, 0, Control_c, 1, 121, 0
3, 1, Control_c, 1, 11, 64
3, 1, Control_c, 1, 91, 60
3, 34560, Control_c, 1, 11, 123
3, 35520, Note_on_c, 1, 60, 64
3, 36479, Note_off_c, 1, 60, 64
3, 36480, Note_on_c, 1, 67, 64
3, 39359, Note_off_c, 1, 67, 64
3, 39360, Note_on_c, 1, 60, 64
3, 40319, Note_off_c, 1, 60, 64
3, 40320, Note_on_c, 1, 67, 64
3, 40799, Note_off_c, 1, 67, 64
3, 40800, Note_on_c, 1, 69, 64
3, 41279, Note_off_c, 1, 69, 64
3, 41280, Note_on_c, 1, 67, 64
3, 43199, Note_off_c, 1, 67, 64
3, 43200, Note_on_c, 1, 72, 64
3, 44159, Note_off_c, 1, 72, 64
3, 44160, Note_on_c, 1, 67, 64
3, 45599, Note_off_c, 1, 67, 64
3, 45600, Note_on_c, 1, 69, 64
3, 46079, Note_off_c, 1, 69, 64
3, 46080, Note_on_c, 1, 65, 64
3, 47039, Note_off_c, 1, 65, 64
3, 47040, Note_on_c, 1, 72, 64
3, 47999, Note_off_c, 1, 72, 64
3, 48000, Note_on_c, 1, 65, 64
3, 49439, Note_off_c, 1, 65, 64
3, 49440, Note_on_c, 1, 67, 64
3, 49919, Note_off_c, 1, 67, 64
3, 49920, Note_on_c, 1, 64, 64
3, 49920, Control_c, 1, 11, 105
3, 51839, Note_off_c, 1, 64, 64
3, 51840, Note_on_c, 1, 62, 64
3, 52799, Note_off_c, 1, 62, 64
3, 52800, Note_on_c, 1, 71, 64
3, 53279, Note_off_c, 1, 71, 64
3, 53280, Note_on_c, 1, 69, 64
3, 53759, Note_off_c, 1, 69, 64
3, 53760, Note_on_c, 1, 67, 64
3, 54239, Note_off_c, 1, 67, 64
3, 54240, Note_on_c, 1, 65, 64
3, 54719, Note_off_c, 1, 65, 64
3, 54720, Note_on_c, 1, 64, 64
3, 55679, Note_off_c, 1, 64, 64
3, 55680, Note_on_c, 1, 62, 64
3, 56639, Note_off_c, 1, 62, 64
3, 56640, Note_on_c, 1, 71, 69
3, 57119, Note_off_c, 1, 71, 64
3, 57120, Note_on_c, 1, 69, 72
3, 57599, Note_off_c, 1, 69, 64
3, 57600, Note_on_c, 1, 67, 75
3, 58079, Note_off_c, 1, 67, 64
3, 58080, Note_on_c, 1, 69, 75
3, 58559, Note_off_c, 1, 69, 64
3, 58560, Note_on_c, 1, 71, 75
3, 59039, Note_off_c, 1, 71, 64
3, 59040, Note_on_c, 1, 72, 75
3, 59519, Note_off_c, 1, 72, 64
3, 59520, Note_on_c, 1, 74, 75
3, 59999, Note_off_c, 1, 74, 64
3, 60000, Note_on_c, 1, 72, 75
3, 60479, Note_off_c, 1, 72, 64
3, 60480, Note_on_c, 1, 71, 75
3, 61919, Note_off_c, 1, 71, 64
3, 61920, Note_on_c, 1, 69, 75
3, 62399, Note_off_c, 1, 69, 64
3, 62400, Note_on_c, 1, 71, 75
3, 62879, Note_off_c, 1, 71, 64
3, 62880, Note_on_c, 1, 67, 75
3, 63359, Note_off_c, 1, 67, 64
3, 63360, Note_on_c, 1, 69, 75
3, 63839, Note_off_c, 1, 69, 64
3, 63840, Note_on_c, 1, 71, 75
3, 64319, Note_off_c, 1, 71, 64
3, 64320, Note_on_c, 1, 69, 75
3, 65759, Note_off_c, 1, 69, 64
3, 65760, Note_on_c, 1, 67, 75
3, 66239, Note_off_c, 1, 67, 64
3, 66240, Note_on_c, 1, 65, 75
3, 66719, Note_off_c, 1, 65, 64
3, 66720, Note_on_c, 1, 64, 75
3, 67199, Note_off_c, 1, 64, 64
3, 67200, Control_c, 1, 11, 114
3, 67200, Note_on_c, 1, 65, 75
3, 67679, Note_off_c, 1, 65, 64
3, 67680, Note_on_c, 1, 64, 77
3, 68159, Note_off_c, 1, 64, 64
3, 68160, Note_on_c, 1, 62, 79
3, 69119, Note_off_c, 1, 62, 64
3, 69120, Note_on_c, 1, 64, 85
3, 69599, Note_off_c, 1, 64, 64
3, 69600, Note_on_c, 1, 62, 85
3, 70079, Note_off_c, 1, 62, 64
3, 70080, Note_on_c, 1, 60, 85
3, 71519, Note_off_c, 1, 60, 64
3, 71520, Note_on_c, 1, 62, 83
3, 71999, Note_off_c, 1, 62, 64
3, 72000, Note_on_c, 1, 59, 81
3, 72959, Note_off_c, 1, 59, 64
3, 72960, Note_on_c, 1, 67, 77
3, 73919, Note_off_c, 1, 67, 64
3, 73920, Note_on_c, 1, 65, 73
3, 75839, Note_off_c, 1, 65, 64
3, 75840, Note_on_c, 1, 64, 64
3, 76319, Note_off_c, 1, 64, 64
3, 76320, Note_on_c, 1, 65, 64
3, 76799, Note_off_c, 1, 65, 64
3, 76800, Note_on_c, 1, 67, 64
3, 77279, Note_off_c, 1, 67, 64
3, 77280, Note_on_c, 1, 65, 64
3, 77759, Note_off_c, 1, 65, 64
3, 77760, Note_on_c, 1, 64, 64
3, 78239, Note_off_c, 1, 64, 64
3, 78240, Note_on_c, 1, 65, 64
3, 78719, Note_off_c, 1, 65, 64
3, 78720, Note_on_c, 1, 67, 64
3, 80159, Note_off_c, 1, 67, 64
3, 80160, Note_on_c, 1, 69, 64
3, 80639, Note_off_c, 1, 69, 64
3, 80640, Note_on_c, 1, 67, 64
3, 83039, Note_off_c, 1, 67, 64
3, 83040, Note_on_c, 1, 65, 64
3, 83519, Note_off_c, 1, 65, 64
3, 83520, Note_on_c, 1, 64, 64
3, 83999, Note_off_c, 1, 64, 64
3, 84000, Note_on_c, 1, 65, 64
3, 84479, Note_off_c, 1, 65, 64
3, 84480, Note_on_c, 1, 67, 64
3, 84959, Note_off_c, 1, 67, 64
3, 84960, Note_on_c, 1, 65, 64
3, 85439, Note_off_c, 1, 65, 64
3, 85440, Note_on_c, 1, 64, 64
3, 86879, Note_off_c, 1, 64, 64
3, 86880, Note_on_c, 1, 74, 64
3, 87359, Note_off_c, 1, 74, 64
3, 87360, Note_on_c, 1, 72, 64
3, 88319, Note_off_c, 1, 72, 64
3, 88320, Note_on_c, 1, 77, 64
3, 88799, Note_off_c, 1, 77, 64
3, 88800, Note_on_c, 1, 76, 64
3, 89279, Note_off_c, 1, 76, 64
3, 89280, Note_on_c, 1, 74, 64
3, 90719, Note_off_c, 1, 74, 64
3, 90720, Note_on_c, 1, 72, 66
3, 91199, Note_off_c, 1, 72, 64
3, 91200, Note_on_c, 1, 71, 69
3, 91679, Note_off_c, 1, 71, 64
3, 91680, Note_on_c, 1, 69, 71
3, 92159, Note_off_c, 1, 69, 64
3, 92160, Note_on_c, 1, 71, 75
3, 92639, Note_off_c, 1, 71, 64
3, 92640, Note_on_c, 1, 69, 75
3, 93119, Note_off_c, 1, 69, 64
3, 93120, Note_on_c, 1, 67, 75
3, 93599, Note_off_c, 1, 67, 64
3, 93600, Note_on_c, 1, 69, 75
3, 94079, Note_off_c, 1, 69, 64
3, 94080, Note_on_c, 1, 71, 75
3, 95519, Note_off_c, 1, 71, 64
3, 95520, Note_on_c, 1, 72, 75
3, 95999, Note_off_c, 1, 72, 64
3, 96000, Note_on_c, 1, 71, 75
3, 98399, Note_off_c, 1, 71, 64
3, 98400, Note_on_c, 1, 69, 75
3, 98879, Note_off_c, 1, 69, 64
3, 98880, Note_on_c, 1, 67, 70
3, 99839, Note_off_c, 1, 67, 64
3, 99840, Note_on_c, 1, 69, 70
3, 100800, Note_off_c, 1, 69, 64
3, 125760, Note_on_c, 1, 62, 75
3, 125760, Control_c, 1, 11, 126
3, 126719, Note_off_c, 1, 62, 64
3, 126720, Note_on_c, 1, 69, 75
3, 129599, Note_off_c, 1, 69, 64
3, 129600, Note_on_c, 1, 62, 75
3, 130559, Note_off_c, 1, 62, 64
3, 130560, Note_on_c, 1, 69, 75
3, 131039, Note_off_c, 1, 69, 64
3, 131040, Note_on_c, 1, 71, 75
3, 131519, Note_off_c, 1, 71, 64
3, 131520, Note_on_c, 1, 69, 75
3, 133439, Note_off_c, 1, 69, 64
3, 133440, Note_on_c, 1, 74, 80
3, 134399, Note_off_c, 1, 74, 64
3, 134400, Note_on_c, 1, 69, 81
3, 135839, Note_off_c, 1, 69, 64
3, 135840, Note_on_c, 1, 71, 83
3, 136319, Note_off_c, 1, 71, 64
3, 136320, Note_on_c, 1, 67, 84
3, 137279, Note_off_c, 1, 67, 64
3, 137280, Note_on_c, 1, 74, 86
3, 138239, Note_off_c, 1, 74, 64
3, 138240, Note_on_c, 1, 67, 87
3, 139679, Note_off_c, 1, 67, 64
3, 139680, Note_on_c, 1, 69, 89
3, 140159, Note_off_c, 1, 69, 64
3, 140160, Note_on_c, 1, 65, 90
3, 142080, Control_c, 1, 11, 108
3, 142559, Note_off_c, 1, 65, 64
3, 142560, Note_on_c, 1, 62, 94
3, 143039, Note_off_c, 1, 62, 64
3, 143040, Note_on_c, 1, 64, 90
3, 144479, Note_off_c, 1, 64, 64
3, 144480, Note_on_c, 1, 60, 88
3, 144959, Note_off_c, 1, 60, 64
3, 144960, Note_on_c, 1, 62, 87
3, 146399, Note_off_c, 1, 62, 64
3, 146400, Note_on_c, 1, 57, 84
3, 146879, Note_off_c, 1, 57, 64
3, 146880, Note_on_c, 1, 59, 83
3, 147359, Note_off_c, 1, 59, 64
3, 147360, Note_on_c, 1, 60, 82
3, 147839, Note_off_c, 1, 60, 64
3, 147840, Note_on_c, 1, 62, 81
3, 148319, Note_off_c, 1, 62, 64
3, 148320, Note_on_c, 1, 55, 80
3, 148799, Note_off_c, 1, 55, 64
3, 148800, Note_on_c, 1, 57, 79
3, 149279, Note_off_c, 1, 57, 64
3, 149280, Note_on_c, 1, 59, 78
3, 149759, Note_off_c, 1, 59, 64
3, 149760, Note_on_c, 1, 60, 77
3, 150719, Note_off_c, 1, 60, 64
3, 150720, Note_on_c, 1, 64, 75
3, 151551, Note_off_c, 1, 64, 64
3, 151552, Note_on_c, 1, 60, 81
3, 151679, Note_off_c, 1, 60, 64
3, 151680, Control_c, 1, 11, 127
3, 151680, Note_on_c, 1, 60, 75
3, 152639, Note_off_c, 1, 60, 64
3, 152640, Note_on_c, 1, 67, 75
3, 155391, Note_off_c, 1, 67, 64
3, 155392, Note_on_c, 1, 60, 77
3, 155548, Note_off_c, 1, 60, 64
3, 155549, Note_on_c, 1, 60, 75
3, 156479, Note_off_c, 1, 60, 64
3, 156480, Note_on_c, 1, 67, 75
3, 156959, Note_off_c, 1, 67, 64
3, 156960, Note_on_c, 1, 69, 75
3, 157439, Note_off_c, 1, 69, 64
3, 157440, Note_on_c, 1, 67, 75
3, 159359, Note_off_c, 1, 67, 64
3, 159360, Note_on_c, 1, 72, 75
3, 160319, Note_off_c, 1, 72, 64
3, 160320, Note_on_c, 1, 67, 75
3, 161759, Note_off_c, 1, 67, 64
3, 161760, Note_on_c, 1, 69, 75
3, 162131, Note_off_c, 1, 69, 64
3, 162132, Note_on_c, 1, 65, 77
3, 162258, Note_off_c, 1, 65, 64
3, 162259, Note_on_c, 1, 65, 75
3, 163199, Note_off_c, 1, 65, 64
3, 163200, Note_on_c, 1, 72, 75
3, 164159, Note_off_c, 1, 72, 64
3, 164160, Note_on_c, 1, 65, 76
3, 165599, Note_off_c, 1, 65, 64
3, 165600, Note_on_c, 1, 67, 89
3, 166079, Note_off_c, 1, 67, 64
3, 166080, Control_c, 1, 11, 108
3, 166080, Note_on_c, 1, 64, 95
3, 167519, Note_off_c, 1, 64, 64
3, 167520, Note_on_c, 1, 65, 95
3, 167999, Note_off_c, 1, 65, 64
3, 168000, Note_on_c, 1, 62, 95
3, 169439, Note_off_c, 1, 62, 64
3, 169440, Note_on_c, 1, 64, 95
3, 169919, Note_off_c, 1, 64, 64
3, 169920, Note_on_c, 1, 65, 95
3, 172319, Note_off_c, 1, 65, 64
3, 172320, Note_on_c, 1, 67, 95
3, 172799, Note_off_c, 1, 67, 64
3, 172800, Note_on_c, 1, 69, 95
3, 173759, Note_off_c, 1, 69, 64
3, 173760, Note_on_c, 1, 67, 95
3, 174719, Note_off_c, 1, 67, 64
3, 174720, Note_on_c, 1, 69, 95
3, 175199, Note_off_c, 1, 69, 64
3, 175200, Note_on_c, 1, 71, 95
3, 175679, Note_off_c, 1, 71, 64
3, 175680, Note_on_c, 1, 72, 95
3, 177599, Note_off_c, 1, 72, 64
3, 177600, Note_on_c, 1, 71, 95
3, 179039, Note_off_c, 1, 71, 64
3, 179040, Note_on_c, 1, 72, 95
3, 179519, Note_off_c, 1, 72, 64
3, 179520, Note_on_c, 1, 69, 90
3, 181439, Note_off_c, 1, 69, 64
3, 181440, Note_on_c, 1, 67, 87
3, 181919, Note_off_c, 1, 67, 64
3, 181920, Note_on_c, 1, 65, 86
3, 182879, Note_off_c, 1, 65, 64
3, 182880, Note_on_c, 1, 64, 84
3, 183359, Note_off_c, 1, 64, 64
3, 183360, Note_on_c, 1, 62, 83
3, 184319, Note_off_c, 1, 62, 64
3, 184320, Note_on_c, 1, 64, 81
3, 184799, Note_off_c, 1, 64, 64
3, 184800, Note_on_c, 1, 62, 80
3, 185279, Note_off_c, 1, 62, 64
3, 185280, Note_on_c, 1, 60, 79
3, 186719, Note_off_c, 1, 60, 64
3, 186720, Note_on_c, 1, 62, 77
3, 187199, Note_off_c, 1, 62, 64
3, 187200, Note_on_c, 1, 60, 75
3, 189119, Note_off_c, 1, 60, 64
3, 189120, Note_on_c, 1, 69, 75
3, 189599, Note_off_c, 1, 69, 64
3, 189600, Note_on_c, 1, 67, 75
3, 190079, Note_off_c, 1, 67, 64
3, 190080, Note_on_c, 1, 65, 75
3, 191999, Note_off_c, 1, 65, 64
3, 192000, Note_on_c, 1, 60, 75
3, 192959, Note_off_c, 1, 60, 64
3, 192960, Note_on_c, 1, 69, 70
3, 193439, Note_off_c, 1, 69, 64
3, 193440, Note_on_c, 1, 67, 70
3, 193919, Note_off_c, 1, 67, 64
3, 193920, Note_on_c, 1, 65, 70
3, 194399, Note_off_c, 1, 65, 64
3, 194400, Note_on_c, 1, 64, 69
3, 194879, Note_off_c, 1, 64, 64
3, 194880, Note_on_c, 1, 65, 69
3, 195359, Note_off_c, 1, 65, 64
3, 195360, Note_on_c, 1, 62, 69
3, 195839, Note_off_c, 1, 62, 64
3, 195840, Note_on_c, 1, 65, 68
3, 196319, Note_off_c, 1, 65, 64
3, 196320, Note_on_c, 1, 64, 68
3, 196799, Note_off_c, 1, 64, 64
3, 196800, Note_on_c, 1, 65, 67
3, 197279, Note_off_c, 1, 65, 64
3, 197280, Note_on_c, 1, 62, 67
3, 197759, Note_off_c, 1, 62, 64
3, 197760, Note_on_c, 1, 64, 67
3, 198239, Note_off_c, 1, 64, 64
3, 198240, Note_on_c, 1, 62, 66
3, 198719, Note_off_c, 1, 62, 64
3, 198720, Note_on_c, 1, 64, 66
3, 199199, Note_off_c, 1, 64, 64
3, 199200, Note_on_c, 1, 60, 65
3, 199679, Note_off_c, 1, 60, 64
3, 199680, Note_on_c, 1, 64, 65
3, 200159, Note_off_c, 1, 64, 64
3, 200160, Note_on_c, 1, 62, 65
3, 200639, Note_off_c, 1, 62, 64
3, 200640, Note_on_c, 1, 64, 64
3, 201119, Note_off_c, 1, 64, 64
3, 201120, Note_on_c, 1, 60, 64
3, 201599, Note_off_c, 1, 60, 64
3, 201600, Note_on_c, 1, 62, 64
3, 202079, Note_off_c, 1, 62, 64
3, 202080, Note_on_c, 1, 57, 63
3, 203039, Note_off_c, 1, 57, 64
3, 203040, Note_on_c, 1, 59, 62
3, 203519, Note_off_c, 1, 59, 64
3, 203520, Note_on_c, 1, 60, 62
3, 205200, Note_off_c, 1, 60, 64
3, 205438, Control_c, 1, 91, 0
3, 205439, Control_c, 1, 121, 0
3, 205439, End_track
4, 0, Start_track
4, 0, Title_t, "ten"
4, 0, MIDI_port, 0
4, 0, Channel_prefix, 2
4, 0, Control_c, 2, 7, 127
4, 0, Control_c, 2, 10, 60
4, 0, Program_c, 2, 0
4, 0, Control_c, 2, 121, 0
4, 1, Control_c, 2, 11, 64
4, 1, Control_c, 2, 91, 60
4, 15360, Control_c, 2, 11, 123
4, 16320, Note_on_c, 2, 55, 64
4, 17279, Note_off_c, 2, 55, 64
4, 17280, Note_on_c, 2, 62, 64
4, 20159, Note_off_c, 2, 62, 64
4, 20160, Note_on_c, 2, 55, 64
4, 21119, Note_off_c, 2, 55, 64
4, 21120, Note_on_c, 2, 62, 64
4, 21599, Note_off_c, 2, 62, 64
4, 21600, Note_on_c, 2, 64, 64
4, 22079, Note_off_c, 2, 64, 64
4, 22080, Note_on_c, 2, 62, 64
4, 23999, Note_off_c, 2, 62, 64
4, 24000, Note_on_c, 2, 67, 64
4, 24959, Note_off_c, 2, 67, 64
4, 24960, Note_on_c, 2, 62, 64
4, 26399, Note_off_c, 2, 62, 64
4, 26400, Note_on_c, 2, 64, 64
4, 26879, Note_off_c, 2, 64, 64
4, 26880, Note_on_c, 2, 60, 64
4, 27839, Note_off_c, 2, 60, 64
4, 27840, Note_on_c, 2, 67, 64
4, 28799, Note_off_c, 2, 67, 64
4, 28800, Note_on_c, 2, 60, 64
4, 30239, Note_off_c, 2, 60, 64
4, 30240, Note_on_c, 2, 62, 64
4, 30719, Note_off_c, 2, 62, 64
4, 30720, Note_on_c, 2, 59, 64
4, 32159, Note_off_c, 2, 59, 64
4, 32160, Note_on_c, 2, 60, 64
4, 32639, Note_off_c, 2, 60, 64
4, 32640, Note_on_c, 2, 57, 64
4, 32640, Control_c, 2, 11, 112
4, 34079, Note_off_c, 2, 57, 64
4, 34080, Note_on_c, 2, 59, 64
4, 34559, Note_off_c, 2, 59, 64
4, 34560, Note_on_c, 2, 55, 64
4, 34560, Control_c, 2, 11, 105
4, 35519, Note_off_c, 2, 55, 64
4, 35520, Note_on_c, 2, 57, 64
4, 36479, Note_off_c, 2, 57, 64
4, 36480, Note_on_c, 2, 55, 64
4, 37439, Note_off_c, 2, 55, 64
4, 37440, Note_on_c, 2, 64, 64
4, 37919, Note_off_c, 2, 64, 64
4, 37920, Note_on_c, 2, 62, 64
4, 38399, Note_off_c, 2, 62, 64
4, 38400, Note_on_c, 2, 60, 64
4, 38879, Note_off_c, 2, 60, 64
4, 38880, Note_on_c, 2, 59, 64
4, 39359, Note_off_c, 2, 59, 64
4, 39360, Note_on_c, 2, 57, 64
4, 40319, Note_off_c, 2, 57, 64
4, 40320, Note_on_c, 2, 55, 64
4, 41279, Note_off_c, 2, 55, 64
4, 41280, Note_on_c, 2, 64, 64
4, 41759, Note_off_c, 2, 64, 64
4, 41760, Note_on_c, 2, 62, 64
4, 42239, Note_off_c, 2, 62, 64
4, 42240, Note_on_c, 2, 60, 64
4, 42719, Note_off_c, 2, 60, 64
4, 42720, Note_on_c, 2, 62, 64
4, 43199, Note_off_c, 2, 62, 64
4, 43200, Note_on_c, 2, 64, 64
4, 43679, Note_off_c, 2, 64, 64
4, 43680, Note_on_c, 2, 65, 64
4, 44159, Note_off_c, 2, 65, 64
4, 44160, Note_on_c, 2, 67, 64
4, 44639, Note_off_c, 2, 67, 64
4, 44640, Note_on_c, 2, 65, 64
4, 45119, Note_off_c, 2, 65, 64
4, 45120, Note_on_c, 2, 64, 64
4, 46559, Note_off_c, 2, 64, 64
4, 46560, Note_on_c, 2, 62, 64
4, 47039, Note_off_c, 2, 62, 64
4, 47040, Note_on_c, 2, 64, 64
4, 47519, Note_off_c, 2, 64, 64
4, 47520, Note_on_c, 2, 60, 64
4, 47999, Note_off_c, 2, 60, 64
4, 48000, Note_on_c, 2, 62, 64
4, 48479, Note_off_c, 2, 62, 64
4, 48480, Note_on_c, 2, 64, 64
4, 48959, Note_off_c, 2, 64, 64
4, 48960, Note_on_c, 2, 62, 64
4, 50399, Note_off_c, 2, 62, 64
4, 50400, Note_on_c, 2, 60, 64
4, 50879, Note_off_c, 2, 60, 64
4, 50880, Note_on_c, 2, 59, 64
4, 51359, Note_off_c, 2, 59, 64
4, 51360, Note_on_c, 2, 57, 64
4, 51839, Note_off_c, 2, 57, 64
4, 51840, Note_on_c, 2, 59, 64
4, 52319, Note_off_c, 2, 59, 64
4, 52320, Note_on_c, 2, 57, 64
4, 52799, Note_off_c, 2, 57, 64
4, 52800, Note_on_c, 2, 55, 64
4, 53279, Note_off_c, 2, 55, 64
4, 53280, Note_on_c, 2, 57, 64
4, 53759, Note_off_c, 2, 57, 64
4, 53760, Note_on_c, 2, 59, 64
4, 55199, Note_off_c, 2, 59, 64
4, 55200, Note_on_c, 2, 60, 64
4, 55679, Note_off_c, 2, 60, 64
4, 55680, Note_on_c, 2, 59, 64
4, 58079, Note_off_c, 2, 59, 64
4, 58080, Note_on_c, 2, 57, 75
4, 58559, Note_off_c, 2, 57, 64
4, 58560, Note_on_c, 2, 55, 75
4, 59039, Note_off_c, 2, 55, 64
4, 59040, Note_on_c, 2, 57, 75
4, 59519, Note_off_c, 2, 57, 64
4, 59520, Note_on_c, 2, 59, 75
4, 59999, Note_off_c, 2, 59, 64
4, 60000, Note_on_c, 2, 57, 75
4, 60479, Note_off_c, 2, 57, 64
4, 60480, Note_on_c, 2, 55, 75
4, 61919, Note_off_c, 2, 55, 64
4, 61920, Note_on_c, 2, 53, 75
4, 62399, Note_off_c, 2, 53, 64
4, 62400, Note_on_c, 2, 52, 75
4, 63359, Note_off_c, 2, 52, 64
4, 63360, Note_on_c, 2, 57, 75
4, 63839, Note_off_c, 2, 57, 64
4, 63840, Note_on_c, 2, 55, 75
4, 64319, Note_off_c, 2, 55, 64
4, 64320, Note_on_c, 2, 53, 75
4, 65759, Note_off_c, 2, 53, 64
4, 65760, Note_on_c, 2, 52, 75
4, 66239, Note_off_c, 2, 52, 64
4, 66240, Note_on_c, 2, 57, 75
4, 67199, Note_off_c, 2, 57, 64
4, 67200, Note_on_c, 2, 55, 75
4, 67200, Control_c, 2, 11, 114
4, 68400, Note_off_c, 2, 55, 64
4, 74880, Control_c, 2, 11, 125
4, 75840, Note_on_c, 2, 52, 64
4, 76799, Note_off_c, 2, 52, 64
4, 76800, Note_on_c, 2, 59, 64
4, 79679, Note_off_c, 2, 59, 64
4, 79680, Note_on_c, 2, 52, 64
4, 80639, Note_off_c, 2, 52, 64
4, 80640, Note_on_c, 2, 59, 64
4, 81119, Note_off_c, 2, 59, 64
4, 81120, Note_on_c, 2, 60, 64
4, 81599, Note_off_c, 2, 60, 64
4, 81600, Note_on_c, 2, 59, 64
4, 83519, Note_off_c, 2, 59, 64
4, 83520, Note_on_c, 2, 64, 64
4, 84479, Note_off_c, 2, 64, 64
4, 84480, Note_on_c, 2, 59, 64
4, 85919, Note_off_c, 2, 59, 64
4, 85920, Note_on_c, 2, 60, 64
4, 86399, Note_off_c, 2, 60, 64
4, 86400, Note_on_c, 2, 57, 64
4, 87359, Note_off_c, 2, 57, 64
4, 87360, Note_on_c, 2, 64, 64
4, 88319, Note_off_c, 2, 64, 64
4, 88320, Note_on_c, 2, 57, 64
4, 89759, Note_off_c, 2, 57, 64
4, 89760, Note_on_c, 2, 59, 64
4, 90239, Note_off_c, 2, 59, 64
4, 90240, Note_on_c, 2, 55, 64
4, 91200, Control_c, 2, 11, 112
4, 92159, Note_off_c, 2, 55, 64
4, 92160, Note_on_c, 2, 53, 75
4, 93119, Note_off_c, 2, 53, 64
4, 93120, Note_on_c, 2, 62, 75
4, 93599, Note_off_c, 2, 62, 64
4, 93600, Note_on_c, 2, 60, 75
4, 94079, Note_off_c, 2, 60, 64
4, 94080, Note_on_c, 2, 59, 75
4, 94559, Note_off_c, 2, 59, 64
4, 94560, Note_on_c, 2, 57, 75
4, 95039, Note_off_c, 2, 57, 64
4, 95040, Note_on_c, 2, 55, 75
4, 95999, Note_off_c, 2, 55, 64
4, 96000, Note_on_c, 2, 53, 75
4, 96959, Note_off_c, 2, 53, 64
4, 96960, Note_on_c, 2, 62, 75
4, 97439, Note_off_c, 2, 62, 64
4, 97440, Note_on_c, 2, 60, 75
4, 97919, Note_off_c, 2, 60, 64
4, 97920, Note_on_c, 2, 59, 75
4, 98399, Note_off_c, 2, 59, 64
4, 98400, Note_on_c, 2, 60, 75
4, 98879, Note_off_c, 2, 60, 64
4, 98880, Note_on_c, 2, 62, 70
4, 99359, Note_off_c, 2, 62, 64
4, 99360, Note_on_c, 2, 64, 70
4, 99839, Note_off_c, 2, 64, 64
4, 99840, Note_on_c, 2, 65, 70
4, 100319, Note_off_c, 2, 65, 64
4, 100320, Note_on_c, 2, 64, 70
4, 100799, Note_off_c, 2, 64, 64
4, 100800, Note_on_c, 2, 62, 69
4, 102239, Note_off_c, 2, 62, 64
4, 102240, Note_on_c, 2, 60, 69
4, 102719, Note_off_c, 2, 60, 64
4, 102720, Note_on_c, 2, 62, 68
4, 103199, Note_off_c, 2, 62, 64
4, 103200, Note_on_c, 2, 59, 68
4, 103679, Note_off_c, 2, 59, 64
4, 103680, Note_on_c, 2, 60, 68
4, 104159, Note_off_c, 2, 60, 64
4, 104160, Note_on_c, 2, 62, 68
4, 104639, Note_off_c, 2, 62, 64
4, 104640, Note_on_c, 2, 60, 67
4, 106079, Note_off_c, 2, 60, 64
4, 106080, Note_on_c, 2, 59, 67
4, 106559, Note_off_c, 2, 59, 64
4, 106560, Note_on_c, 2, 57, 67
4, 108479, Note_off_c, 2, 57, 64
4, 108480, Note_on_c, 2, 59, 66
4, 109919, Note_off_c, 2, 59, 64
4, 109920, Note_on_c, 2, 52, 65
4, 110399, Note_off_c, 2, 52, 64
4, 110400, Note_on_c, 2, 57, 65
4, 110879, Note_off_c, 2, 57, 64
4, 110880, Note_on_c, 2, 59, 64
4, 111359, Note_off_c, 2, 59, 64
4, 111360, Note_on_c, 2, 60, 64
4, 111839, Note_off_c, 2, 60, 64
4, 111840, Note_on_c, 2, 59, 64
4, 112319, Note_off_c, 2, 59, 64
4, 112320, Note_on_c, 2, 57, 64
4, 112799, Note_off_c, 2, 57, 64
4, 112800, Note_on_c, 2, 59, 64
4, 113279, Note_off_c, 2, 59, 64
4, 113280, Note_on_c, 2, 60, 64
4, 114719, Note_off_c, 2, 60, 64
4, 114720, Note_on_c, 2, 62, 64
4, 115199, Note_off_c, 2, 62, 64
4, 115200, Note_on_c, 2, 60, 64
4, 117599, Note_off_c, 2, 60, 64
4, 117600, Note_on_c, 2, 59, 64
4, 118079, Note_off_c, 2, 59, 64
4, 118080, Note_on_c, 2, 57, 64
4, 118559, Note_off_c, 2, 57, 64
4, 118560, Note_on_c, 2, 59, 64
4, 119039, Note_off_c, 2, 59, 64
4, 119040, Note_on_c, 2, 60, 64
4, 119519, Note_off_c, 2, 60, 64
4, 119520, Note_on_c, 2, 59, 64
4, 119999, Note_off_c, 2, 59, 64
4, 120000, Note_on_c, 2, 57, 64
4, 121439, Note_off_c, 2, 57, 64
4, 121440, Note_on_c, 2, 55, 64
4, 121919, Note_off_c, 2, 55, 64
4, 121920, Note_on_c, 2, 53, 64
4, 122879, Note_off_c, 2, 53, 64
4, 122880, Note_on_c, 2, 59, 64
4, 123359, Note_off_c, 2, 59, 64
4, 123360, Note_on_c, 2, 57, 64
4, 123839, Note_off_c, 2, 57, 64
4, 123840, Note_on_c, 2, 55, 64
4, 125279, Note_off_c, 2, 55, 64
4, 125280, Note_on_c, 2, 53, 69
4, 125759, Note_off_c, 2, 53, 64
4, 125760, Note_on_c, 2, 52, 75
4, 126719, Note_off_c, 2, 52, 64
4, 126720, Note_on_c, 2, 53, 75
4, 127199, Note_off_c, 2, 53, 64
4, 127200, Note_on_c, 2, 52, 75
4, 127679, Note_off_c, 2, 52, 64
4, 127680, Note_on_c, 2, 50, 75
4, 128159, Note_off_c, 2, 50, 64
4, 128160, Note_on_c, 2, 52, 75
4, 128639, Note_off_c, 2, 52, 64
4, 128640, Note_on_c, 2, 53, 75
4, 130080, Note_off_c, 2, 53, 64
4, 142080, Control_c, 2, 11, 109
4, 143040, Note_on_c, 2, 55, 90
4, 144959, Note_off_c, 2, 55, 64
4, 144960, Note_on_c, 2, 53, 87
4, 146879, Note_off_c, 2, 53, 64
4, 146880, Note_on_c, 2, 52, 83
4, 148799, Note_off_c, 2, 52, 64
4, 148800, Note_on_c, 2, 50, 79
4, 149759, Note_off_c, 2, 50, 64
4, 149760, Note_on_c, 2, 48, 77
4, 151199, Note_off_c, 2, 48, 64
4, 151200, Note_on_c, 2, 50, 75
4, 151679, Note_off_c, 2, 50, 64
4, 151680, Note_on_c, 2, 52, 75
4, 152159, Note_off_c, 2, 52, 64
4, 152160, Note_on_c, 2, 50, 75
4, 152639, Note_off_c, 2, 50, 64
4, 152640, Note_on_c, 2, 48, 75
4, 153119, Note_off_c, 2, 48, 64
4, 153120, Note_on_c, 2, 50, 75
4, 153599, Note_off_c, 2, 50, 64
4, 153600, Note_on_c, 2, 52, 75
4, 155039, Note_off_c, 2, 52, 64
4, 155040, Note_on_c, 2, 53, 75
4, 155519, Note_off_c, 2, 53, 64
4, 155520, Note_on_c, 2, 52, 75
4, 157919, Note_off_c, 2, 52, 64
4, 157920, Note_on_c, 2, 50, 75
4, 158399, Note_off_c, 2, 50, 64
4, 158400, Note_on_c, 2, 48, 75
4, 158879, Note_off_c, 2, 48, 64
4, 158880, Note_on_c, 2, 50, 75
4, 159359, Note_off_c, 2, 50, 64
4, 159360, Note_on_c, 2, 52, 75
4, 159839, Note_off_c, 2, 52, 64
4, 159840, Note_on_c, 2, 53, 75
4, 160319, Note_off_c, 2, 53, 64
4, 160320, Note_on_c, 2, 52, 75
4, 162239, Note_off_c, 2, 52, 64
4, 162240, Note_on_c, 2, 50, 75
4, 163679, Note_off_c, 2, 50, 64
4, 163680, Note_on_c, 2, 47, 75
4, 164159, Note_off_c, 2, 47, 64
4, 164160, Note_on_c, 2, 48, 76
4, 164639, Note_off_c, 2, 48, 64
4, 164640, Note_on_c, 2, 50, 80
4, 165119, Note_off_c, 2, 50, 64
4, 165120, Note_on_c, 2, 52, 85
4, 166080, Note_off_c, 2, 52, 64
4, 168000, Control_c, 2, 11, 126
4, 168000, Note_on_c, 2, 53, 95
4, 168959, Note_off_c, 2, 53, 64
4, 168960, Note_on_c, 2, 60, 95
4, 171839, Note_off_c, 2, 60, 64
4, 171840, Note_on_c, 2, 53, 95
4, 172799, Note_off_c, 2, 53, 64
4, 172800, Note_on_c, 2, 60, 95
4, 173279, Note_off_c, 2, 60, 64
4, 173280, Note_on_c, 2, 62, 95
4, 173759, Note_off_c, 2, 62, 64
4, 173760, Note_on_c, 2, 60, 95
4, 175679, Note_off_c, 2, 60, 64
4, 175680, Note_on_c, 2, 65, 95
4, 176639, Note_off_c, 2, 65, 64
4, 176640, Note_on_c, 2, 60, 95
4, 178079, Note_off_c, 2, 60, 64
4, 178080, Note_on_c, 2, 62, 95
4, 178559, Note_off_c, 2, 62, 64
4, 178560, Note_on_c, 2, 59, 95
4, 179519, Note_off_c, 2, 59, 64
4, 179520, Control_c, 2, 11, 113
4, 179520, Note_on_c, 2, 65, 90
4, 180479, Note_off_c, 2, 65, 64
4, 180480, Note_on_c, 2, 59, 88
4, 181919, Note_off_c, 2, 59, 64
4, 181920, Note_on_c, 2, 60, 86
4, 182399, Note_off_c, 2, 60, 64
4, 182400, Note_on_c, 2, 57, 85
4, 187679, Note_off_c, 2, 57, 64
4, 187680, Note_on_c, 2, 55, 75
4, 188159, Note_off_c, 2, 55, 64
4, 188160, Note_on_c, 2, 57, 75
4, 191519, Note_off_c, 2, 57, 64
4, 191520, Note_on_c, 2, 55, 75
4, 191999, Note_off_c, 2, 55, 64
4, 192000, Note_on_c, 2, 57, 75
4, 193919, Note_off_c, 2, 57, 64
4, 193920, Note_on_c, 2, 59, 70
4, 194879, Note_off_c, 2, 59, 64
4, 194880, Note_on_c, 2, 57, 69
4, 198719, Note_off_c, 2, 57, 64
4, 198720, Note_on_c, 2, 57, 66
4, 200639, Note_off_c, 2, 57, 64
4, 200640, Note_on_c, 2, 55, 64
4, 205195, Note_off_c, 2, 55, 64
4, 205438, Control_c, 2, 91, 0
4, 205439, Control_c, 2, 121, 0
4, 205439, End_track
5, 0, Start_track
5, 0, Title_t, "bas"
5, 0, MIDI_port, 0
5, 0, Channel_prefix, 3
5, 0, Control_c, 3, 7, 127
5, 0, Control_c, 3, 10, 56
5, 0, Program_c, 3, 0
5, 0, Control_c, 3, 121, 0
5, 1, Control_c, 3, 11, 124
5, 1, Control_c, 3, 91, 60
5, 960, Note_on_c, 3, 48, 64
5, 1919, Note_off_c, 3, 48, 64
5, 1920, Note_on_c, 3, 55, 64
5, 4799, Note_off_c, 3, 55, 64
5, 4800, Note_on_c, 3, 48, 64
5, 5759, Note_off_c, 3, 48, 64
5, 5760, Note_on_c, 3, 55, 64
5, 6239, Note_off_c, 3, 55, 64
5, 6240, Note_on_c, 3, 57, 64
5, 6719, Note_off_c, 3, 57, 64
5, 6720, Note_on_c, 3, 55, 64
5, 8639, Note_off_c, 3, 55, 64
5, 8640, Note_on_c, 3, 60, 64
5, 9599, Note_off_c, 3, 60, 64
5, 9600, Note_on_c, 3, 55, 64
5, 11039, Note_off_c, 3, 55, 64
5, 11040, Note_on_c, 3, 57, 64
5, 11519, Note_off_c, 3, 57, 64
5, 11520, Note_on_c, 3, 53, 64
5, 12479, Note_off_c, 3, 53, 64
5, 12480, Note_on_c, 3, 60, 64
5, 13439, Note_off_c, 3, 60, 64
5, 13440, Note_on_c, 3, 53, 64
5, 14879, Note_off_c, 3, 53, 64
5, 14880, Note_on_c, 3, 55, 64
5, 15359, Note_off_c, 3, 55, 64
5, 15360, Note_on_c, 3, 52, 64
5, 15360, Control_c, 3, 11, 105
5, 17279, Note_off_c, 3, 52, 64
5, 17280, Note_on_c, 3, 50, 64
5, 18239, Note_off_c, 3, 50, 64
5, 18240, Note_on_c, 3, 59, 64
5, 18719, Note_off_c, 3, 59, 64
5, 18720, Note_on_c, 3, 57, 64
5, 19199, Note_off_c, 3, 57, 64
5, 19200, Note_on_c, 3, 55, 64
5, 19679, Note_off_c, 3, 55, 64
5, 19680, Note_on_c, 3, 53, 64
5, 20159, Note_off_c, 3, 53, 64
5, 20160, Note_on_c, 3, 52, 64
5, 21119, Note_off_c, 3, 52, 64
5, 21120, Note_on_c, 3, 50, 64
5, 22079, Note_off_c, 3, 50, 64
5, 22080, Note_on_c, 3, 59, 64
5, 22559, Note_off_c, 3, 59, 64
5, 22560, Note_on_c, 3, 57, 64
5, 23039, Note_off_c, 3, 57, 64
5, 23040, Note_on_c, 3, 55, 64
5, 23519, Note_off_c, 3, 55, 64
5, 23520, Note_on_c, 3, 57, 64
5, 23999, Note_off_c, 3, 57, 64
5, 24000, Note_on_c, 3, 59, 64
5, 24479, Note_off_c, 3, 59, 64
5, 24480, Note_on_c, 3, 60, 64
5, 24959, Note_off_c, 3, 60, 64
5, 24960, Note_on_c, 3, 62, 64
5, 25439, Note_off_c, 3, 62, 64
5, 25440, Note_on_c, 3, 60, 64
5, 25919, Note_off_c, 3, 60, 64
5, 25920, Note_on_c, 3, 59, 64
5, 27359, Note_off_c, 3, 59, 64
5, 27360, Note_on_c, 3, 57, 64
5, 27839, Note_off_c, 3, 57, 64
5, 27840, Note_on_c, 3, 59, 64
5, 28319, Note_off_c, 3, 59, 64
5, 28320, Note_on_c, 3, 55, 64
5, 28799, Note_off_c, 3, 55, 64
5, 28800, Note_on_c, 3, 57, 64
5, 29279, Note_off_c, 3, 57, 64
5, 29280, Note_on_c, 3, 59, 64
5, 29759, Note_off_c, 3, 59, 64
5, 29760, Note_on_c, 3, 57, 64
5, 31199, Note_off_c, 3, 57, 64
5, 31200, Note_on_c, 3, 55, 64
5, 31679, Note_off_c, 3, 55, 64
5, 31680, Note_on_c, 3, 53, 64
5, 32159, Note_off_c, 3, 53, 64
5, 32160, Note_on_c, 3, 52, 64
5, 32639, Note_off_c, 3, 52, 64
5, 32640, Note_on_c, 3, 53, 64
5, 33119, Note_off_c, 3, 53, 64
5, 33120, Note_on_c, 3, 52, 64
5, 33599, Note_off_c, 3, 52, 64
5, 33600, Note_on_c, 3, 50, 64
5, 34559, Note_off_c, 3, 50, 64
5, 34560, Note_on_c, 3, 52, 64
5, 35039, Note_off_c, 3, 52, 64
5, 35040, Note_on_c, 3, 50, 64
5, 35519, Note_off_c, 3, 50, 64
5, 35520, Note_on_c, 3, 48, 64
5, 35999, Note_off_c, 3, 48, 64
5, 36000, Note_on_c, 3, 50, 64
5, 36479, Note_off_c, 3, 50, 64
5, 36480, Note_on_c, 3, 52, 64
5, 36959, Note_off_c, 3, 52, 64
5, 36960, Note_on_c, 3, 50, 64
5, 37439, Note_off_c, 3, 50, 64
5, 37440, Note_on_c, 3, 48, 64
5, 37919, Note_off_c, 3, 48, 64
5, 37920, Note_on_c, 3, 50, 64
5, 38399, Note_off_c, 3, 50, 64
5, 38400, Note_on_c, 3, 52, 64
5, 39839, Note_off_c, 3, 52, 64
5, 39840, Note_on_c, 3, 53, 64
5, 40319, Note_off_c, 3, 53, 64
5, 40320, Note_on_c, 3, 52, 64
5, 42719, Note_off_c, 3, 52, 64
5, 42720, Note_on_c, 3, 50, 64
5, 43199, Note_off_c, 3, 50, 64
5, 43200, Note_on_c, 3, 48, 64
5, 43679, Note_off_c, 3, 48, 64
5, 43680, Note_on_c, 3, 50, 64
5, 44159, Note_off_c, 3, 50, 64
5, 44160, Note_on_c, 3, 52, 64
5, 44639, Note_off_c, 3, 52, 64
5, 44640, Note_on_c, 3, 50, 64
5, 45119, Note_off_c, 3, 50, 64
5, 45120, Note_on_c, 3, 48, 64
5, 46559, Note_off_c, 3, 48, 64
5, 46560, Note_on_c, 3, 47, 64
5, 47039, Note_off_c, 3, 47, 64
5, 47040, Note_on_c, 3, 45, 64
5, 47999, Note_off_c, 3, 45, 64
5, 48000, Note_on_c, 3, 50, 64
5, 48479, Note_off_c, 3, 50, 64
5, 48480, Note_on_c, 3, 48, 64
5, 48959, Note_off_c, 3, 48, 64
5, 48960, Note_on_c, 3, 47, 64
5, 50399, Note_off_c, 3, 47, 64
5, 50400, Note_on_c, 3, 45, 64
5, 50879, Note_off_c, 3, 45, 64
5, 50880, Note_on_c, 3, 43, 64
5, 53279, Note_off_c, 3, 43, 64
5, 53280, Note_on_c, 3, 50, 64
5, 53759, Note_off_c, 3, 50, 64
5, 53760, Note_on_c, 3, 55, 64
5, 57119, Note_off_c, 3, 55, 64
5, 57120, Note_on_c, 3, 50, 72
5, 57599, Note_off_c, 3, 50, 64
5, 57600, Note_on_c, 3, 55, 75
5, 59039, Note_off_c, 3, 55, 64
5, 59040, Note_on_c, 3, 53, 75
5, 59519, Note_off_c, 3, 53, 64
5, 59520, Note_on_c, 3, 52, 75
5, 61439, Note_off_c, 3, 52, 64
5, 61440, Note_on_c, 3, 45, 75
5, 62399, Note_off_c, 3, 45, 64
5, 62400, Note_on_c, 3, 43, 75
5, 64319, Note_off_c, 3, 43, 64
5, 64320, Note_on_c, 3, 45, 75
5, 64799, Note_off_c, 3, 45, 64
5, 64800, Note_on_c, 3, 47, 75
5, 65279, Note_off_c, 3, 47, 64
5, 65280, Note_on_c, 3, 48, 75
5, 67199, Note_off_c, 3, 48, 64
5, 67200, Note_on_c, 3, 43, 75
5, 67200, Control_c, 3, 11, 115
5, 70559, Note_off_c, 3, 43, 64
5, 70560, Note_on_c, 3, 45, 85
5, 71039, Note_off_c, 3, 45, 64
5, 71040, Note_on_c, 3, 41, 85
5, 72479, Note_off_c, 3, 41, 64
5, 72480, Note_on_c, 3, 43, 79
5, 72959, Note_off_c, 3, 43, 64
5, 72960, Note_on_c, 3, 40, 77
5, 73439, Note_off_c, 3, 40, 64
5, 73440, Note_on_c, 3, 38, 75
5, 73919, Note_off_c, 3, 38, 64
5, 73920, Note_on_c, 3, 36, 73
5, 74399, Note_off_c, 3, 36, 64
5, 74400, Note_on_c, 3, 38, 71
5, 74879, Note_off_c, 3, 38, 64
5, 74880, Note_on_c, 3, 40, 69
5, 76800, Note_off_c, 3, 40, 64
5, 90240, Control_c, 3, 11, 126
5, 91200, Note_on_c, 3, 35, 69
5, 92159, Note_off_c, 3, 35, 64
5, 92160, Note_on_c, 3, 41, 75
5, 95039, Note_off_c, 3, 41, 64
5, 95040, Note_on_c, 3, 35, 75
5, 95999, Note_off_c, 3, 35, 64
5, 96000, Note_on_c, 3, 41, 75
5, 96479, Note_off_c, 3, 41, 64
5, 96480, Note_on_c, 3, 43, 75
5, 96959, Note_off_c, 3, 43, 64
5, 96960, Note_on_c, 3, 41, 75
5, 98879, Note_off_c, 3, 41, 64
5, 98880, Note_on_c, 3, 47, 70
5, 99839, Note_off_c, 3, 47, 64
5, 99840, Note_on_c, 3, 41, 70
5, 101279, Note_off_c, 3, 41, 64
5, 101280, Note_on_c, 3, 43, 69
5, 101759, Note_off_c, 3, 43, 64
5, 101760, Note_on_c, 3, 40, 69
5, 102719, Note_off_c, 3, 40, 64
5, 102720, Note_on_c, 3, 47, 68
5, 103679, Note_off_c, 3, 47, 64
5, 103680, Note_on_c, 3, 40, 68
5, 105119, Note_off_c, 3, 40, 64
5, 105120, Note_on_c, 3, 41, 67
5, 105599, Note_off_c, 3, 41, 64
5, 105600, Note_on_c, 3, 38, 67
5, 107039, Note_off_c, 3, 38, 64
5, 107040, Note_on_c, 3, 40, 66
5, 107519, Note_off_c, 3, 40, 64
5, 107520, Note_on_c, 3, 36, 66
5, 108959, Note_off_c, 3, 36, 64
5, 108960, Note_on_c, 3, 38, 65
5, 109439, Note_off_c, 3, 38, 64
5, 109440, Note_on_c, 3, 40, 65
5, 110399, Note_off_c, 3, 40, 64
5, 110400, Note_on_c, 3, 53, 65
5, 110400, Control_c, 3, 11, 113
5, 111359, Note_off_c, 3, 53, 64
5, 111360, Note_on_c, 3, 52, 64
5, 112319, Note_off_c, 3, 52, 64
5, 112320, Note_on_c, 3, 48, 64
5, 112799, Note_off_c, 3, 48, 64
5, 112800, Note_on_c, 3, 47, 64
5, 113279, Note_off_c, 3, 47, 64
5, 113280, Note_on_c, 3, 45, 64
5, 113759, Note_off_c, 3, 45, 64
5, 113760, Note_on_c, 3, 43, 64
5, 114239, Note_off_c, 3, 43, 64
5, 114240, Note_on_c, 3, 41, 64
5, 115199, Note_off_c, 3, 41, 64
5, 115200, Note_on_c, 3, 40, 64
5, 116159, Note_off_c, 3, 40, 64
5, 116160, Note_on_c, 3, 48, 64
5, 116639, Note_off_c, 3, 48, 64
5, 116640, Note_on_c, 3, 47, 64
5, 117119, Note_off_c, 3, 47, 64
5, 117120, Note_on_c, 3, 45, 64
5, 117599, Note_off_c, 3, 45, 64
5, 117600, Note_on_c, 3, 47, 64
5, 118079, Note_off_c, 3, 47, 64
5, 118080, Note_on_c, 3, 48, 64
5, 118559, Note_off_c, 3, 48, 64
5, 118560, Note_on_c, 3, 50, 64
5, 119039, Note_off_c, 3, 50, 64
5, 119040, Note_on_c, 3, 52, 64
5, 119519, Note_off_c, 3, 52, 64
5, 119520, Note_on_c, 3, 50, 64
5, 119999, Note_off_c, 3, 50, 64
5, 120000, Note_on_c, 3, 48, 64
5, 121439, Note_off_c, 3, 48, 64
5, 121440, Note_on_c, 3, 47, 64
5, 121919, Note_off_c, 3, 47, 64
5, 121920, Note_on_c, 3, 48, 64
5, 122399, Note_off_c, 3, 48, 64
5, 122400, Note_on_c, 3, 45, 64
5, 122879, Note_off_c, 3, 45, 64
5, 122880, Note_on_c, 3, 47, 64
5, 123359, Note_off_c, 3, 47, 64
5, 123360, Note_on_c, 3, 48, 64
5, 123839, Note_off_c, 3, 48, 64
5, 123840, Note_on_c, 3, 47, 64
5, 125279, Note_off_c, 3, 47, 64
5, 125280, Note_on_c, 3, 45, 69
5, 125759, Note_off_c, 3, 45, 64
5, 125760, Note_on_c, 3, 43, 75
5, 130079, Note_off_c, 3, 43, 64
5, 130080, Note_on_c, 3, 55, 75
5, 130559, Note_off_c, 3, 55, 64
5, 130560, Note_on_c, 3, 53, 75
5, 132959, Note_off_c, 3, 53, 64
5, 132960, Note_on_c, 3, 52, 75
5, 133439, Note_off_c, 3, 52, 64
5, 133440, Note_on_c, 3, 50, 80
5, 133919, Note_off_c, 3, 50, 64
5, 133920, Note_on_c, 3, 52, 80
5, 134399, Note_off_c, 3, 52, 64
5, 134400, Note_on_c, 3, 53, 81
5, 134879, Note_off_c, 3, 53, 64
5, 134880, Note_on_c, 3, 52, 82
5, 135359, Note_off_c, 3, 52, 64
5, 135360, Note_on_c, 3, 50, 83
5, 136799, Note_off_c, 3, 50, 64
5, 136800, Note_on_c, 3, 48, 85
5, 137279, Note_off_c, 3, 48, 64
5, 137280, Note_on_c, 3, 47, 86
5, 138239, Note_off_c, 3, 47, 64
5, 138240, Note_on_c, 3, 52, 87
5, 138719, Note_off_c, 3, 52, 64
5, 138720, Note_on_c, 3, 50, 88
5, 139199, Note_off_c, 3, 50, 64
5, 139200, Note_on_c, 3, 48, 89
5, 140639, Note_off_c, 3, 48, 64
5, 140640, Note_on_c, 3, 47, 91
5, 141119, Note_off_c, 3, 47, 64
5, 141120, Note_on_c, 3, 45, 92
5, 142079, Note_off_c, 3, 45, 64
5, 142080, Control_c, 3, 11, 110
5, 142080, Note_on_c, 3, 43, 93
5, 147839, Note_off_c, 3, 43, 64
5, 147840, Note_on_c, 3, 43, 81
5, 149759, Note_off_c, 3, 43, 64
5, 149760, Note_on_c, 3, 36, 77
5, 151199, Note_off_c, 3, 36, 64
5, 151200, Note_on_c, 3, 38, 75
5, 151679, Note_off_c, 3, 38, 64
5, 151680, Note_on_c, 3, 40, 75
5, 152159, Note_off_c, 3, 40, 64
5, 152160, Note_on_c, 3, 38, 75
5, 152639, Note_off_c, 3, 38, 64
5, 152640, Note_on_c, 3, 36, 75
5, 153119, Note_off_c, 3, 36, 64
5, 153120, Note_on_c, 3, 38, 75
5, 153599, Note_off_c, 3, 38, 64
5, 153600, Note_on_c, 3, 40, 75
5, 155039, Note_off_c, 3, 40, 64
5, 155040, Note_on_c, 3, 41, 75
5, 155519, Note_off_c, 3, 41, 64
5, 155520, Note_on_c, 3, 40, 75
5, 157919, Note_off_c, 3, 40, 64
5, 157920, Note_on_c, 3, 38, 75
5, 158399, Note_off_c, 3, 38, 64
5, 158400, Note_on_c, 3, 36, 75
5, 158879, Note_off_c, 3, 36, 64
5, 158880, Note_on_c, 3, 38, 75
5, 159359, Note_off_c, 3, 38, 64
5, 159360, Note_on_c, 3, 40, 75
5, 159839, Note_off_c, 3, 40, 64
5, 159840, Note_on_c, 3, 41, 75
5, 160319, Note_off_c, 3, 41, 64
5, 160320, Note_on_c, 3, 40, 75
5, 162239, Note_off_c, 3, 40, 64
5, 162240, Note_on_c, 3, 38, 75
5, 163679, Note_off_c, 3, 38, 64
5, 163680, Note_on_c, 3, 35, 75
5, 164159, Note_off_c, 3, 35, 64
5, 164160, Note_on_c, 3, 36, 76
5, 164639, Note_off_c, 3, 36, 64
5, 164640, Note_on_c, 3, 38, 80
5, 165119, Note_off_c, 3, 38, 64
5, 165120, Note_on_c, 3, 40, 85
5, 166079, Note_off_c, 3, 40, 64
5, 166080, Note_on_c, 3, 41, 95
5, 166080, Control_c, 3, 11, 127
5, 167039, Note_off_c, 3, 41, 64
5, 167040, Note_on_c, 3, 48, 95
5, 169919, Note_off_c, 3, 48, 64
5, 169920, Note_on_c, 3, 41, 95
5, 170879, Note_off_c, 3, 41, 64
5, 170880, Note_on_c, 3, 48, 95
5, 171359, Note_off_c, 3, 48, 64
5, 171360, Note_on_c, 3, 50, 95
5, 171839, Note_off_c, 3, 50, 64
5, 171840, Note_on_c, 3, 48, 95
5, 173759, Note_off_c, 3, 48, 64
5, 173760, Note_on_c, 3, 53, 95
5, 174719, Note_off_c, 3, 53, 64
5, 174720, Note_on_c, 3, 48, 95
5, 176159, Note_off_c, 3, 48, 64
5, 176160, Note_on_c, 3, 50, 95
5, 176639, Note_off_c, 3, 50, 64
5, 176640, Note_on_c, 3, 47, 95
5, 177599, Note_off_c, 3, 47, 64
5, 177600, Note_on_c, 3, 53, 95
5, 178559, Note_off_c, 3, 53, 64
5, 178560, Note_on_c, 3, 47, 95
5, 179520, Control_c, 3, 11, 111
5, 179999, Note_off_c, 3, 47, 64
5, 180000, Note_on_c, 3, 48, 89
5, 180479, Note_off_c, 3, 48, 64
5, 180480, Note_on_c, 3, 45, 88
5, 182640, Note_off_c, 3, 45, 64
5, 187200, Control_c, 3, 11, 127
5, 187200, Note_on_c, 3, 41, 75
5, 188159, Note_off_c, 3, 41, 64
5, 188160, Note_on_c, 3, 48, 75
5, 191039, Note_off_c, 3, 48, 64
5, 191040, Note_on_c, 3, 41, 75
5, 191999, Note_off_c, 3, 41, 64
5, 192000, Note_on_c, 3, 48, 75
5, 192479, Note_off_c, 3, 48, 64
5, 192480, Note_on_c, 3, 50, 75
5, 192959, Note_off_c, 3, 50, 64
5, 192960, Note_on_c, 3, 48, 70
5, 194880, Control_c, 3, 11, 109
5, 198719, Note_off_c, 3, 48, 64
5, 198720, Note_on_c, 3, 48, 66
5, 205195, Note_off_c, 3, 48, 64
5, 205438, Control_c, 3, 91, 0
5, 205439, Control_c, 3, 121, 0
5, 205439, End_track
6, 0, Start_track
6, 0, Title_t, "=============="
6, 0, MIDI_port, 0
6, 0, End_track
7, 0, Start_track
7, 0, Title_t, "D. SHOSTAKOVICH"
7, 0, MIDI_port, 0
7, 0, End_track
8, 0, Start_track
8, 0, Title_t, "Fugue in C major"
8, 0, MIDI_port, 0
8, 0, End_track
9, 0, Start_track
9, 0, Title_t, "opus 87 no. 1"
9, 0, MIDI_port, 0
9, 0, End_track
10, 0, Start_track
10, 0, Title_t, "Seq. by J. Marques"
10, 0, MIDI_port, 0
10, 0, End_track
11, 0, Start_track
11, 0, Title_t, "jmarques@super.zippo.com"
11, 0, MIDI_port, 0
11, 0, End_track
12, 0, Start_track
12, 0, Title_t, "=============="
12, 0, MIDI_port, 0
12, 0, End_track
13, 0, Start_track
13, 1, Copyright_t, "___________________________________________________\012\012KUNSTDERFUGE.COM LARGE CLASSICAL MIDI COLLECTION\012ONCLASSICAL BY ALESSANDRO SIMONETTO, PROPRIETOR\012___________________________________________________\012\012! Attention: this file is under copyright !\012\012(c)onclassical, (c)marques, 2010\012___________________________________________________\012\012NO ONE MAY REPUBLISH THIS FILE WITHOUT PERMISSION\012COMMERCIAL USES OF THIS FILE IS STRICTLY PROHIBITED\012___________________________________________________\012\012Files & contributor's list: http://kunstderfuge.com/\012Terms and conditions: http://kunstderfuge.com/notes.htm"
13, 1, End_track
0, 0, End_of_file