0, 0, Header, 1, 10, 384
1, 0, Start_track
1, 0, Time_signature, 3, 2, 96, 8
1, 0, Sequencer_specific, 03, 00, 00, 41
1, 0, Sequencer_specific, 05, 00, 00, 77, 0E, 00
1, 0, Tempo, 631578
1, 12, Tempo, 625000
1, 28, Tempo, 618556
1, 44, Tempo, 612244
1, 56, Tempo, 606060
1, 72, Tempo, 600000
1, 88, Tempo, 594059
1, 100, Tempo, 588235
1, 116, Tempo, 582524
1, 132, Tempo, 576923
1, 144, Tempo, 571428
1, 160, Tempo, 566037
1, 176, Tempo, 560747
1, 192, Tempo, 555555
1, 18048, Tempo, 750000
1, 18060, Tempo, 740740
1, 18072, Tempo, 731707
1, 18088, Tempo, 722891
1, 18100, Tempo, 714285
1, 18116, Tempo, 705882
1, 18128, Tempo, 697674
1, 18144, Tempo, 689655
1, 18156, Tempo, 681818
1, 18168, Tempo, 674157
1, 18184, Tempo, 666666
1, 18196, Tempo, 659340
1, 18212, Tempo, 652173
1, 18224, Tempo, 645161
1, 18240, Tempo, 638297
1, 18252, Tempo, 631578
1, 18264, Tempo, 625000
1, 18280, Tempo, 618556
1, 18292, Tempo, 612244
1, 18308, Tempo, 606060
1, 18320, Tempo, 600000
1, 18336, Tempo, 594059
1, 18348, Tempo, 588235
1, 18360, Tempo, 582524
1, 18376, Tempo, 576923
1, 18388, Tempo, 571428
1, 18404, Tempo, 566037
1, 18416, Tempo, 560747
1, 18432, Tempo, 631578
1, 18444, Tempo, 625000
1, 18460, Tempo, 618556
1, 18476, Tempo, 612244
1, 18488, Tempo, 606060
1, 18504, Tempo, 600000
1, 18520, Tempo, 594059
1, 18532, Tempo, 588235
1, 18548, Tempo, 582524
1, 18564, Tempo, 576923
1, 18576, Tempo, 571428
1, 18592, Tempo, 566037
1, 18608, Tempo, 560747
1, 18624, Tempo, 555555
1, 25536, Tempo, 555555
1, 25656, Tempo, 560747
1, 25776, Tempo, 566037
1, 25896, Tempo, 571428
1, 26016, Tempo, 576923
1, 26136, Tempo, 582524
1, 26256, Tempo, 588235
1, 26376, Tempo, 594059
1, 26496, Tempo, 600000
1, 27360, Tempo, 631578
1, 27380, Tempo, 625000
1, 27404, Tempo, 618556
1, 27424, Tempo, 612244
1, 27448, Tempo, 606060
1, 27468, Tempo, 600000
1, 27492, Tempo, 594059
1, 27512, Tempo, 588235
1, 27536, Tempo, 582524
1, 27556, Tempo, 576923
1, 27580, Tempo, 571428
1, 27600, Tempo, 566037
1, 27624, Tempo, 560747
1, 27648, Tempo, 555555
1, 31968, Tempo, 555555
1, 31988, Tempo, 560747
1, 32012, Tempo, 566037
1, 32032, Tempo, 571428
1, 32056, Tempo, 576923
1, 32076, Tempo, 582524
1, 32100, Tempo, 588235
1, 32120, Tempo, 594059
1, 32144, Tempo, 600000
1, 32164, Tempo, 606060
1, 32188, Tempo, 612244
1, 32208, Tempo, 618556
1, 32232, Tempo, 625000
1, 32256, Tempo, 666666
1, 32264, Tempo, 659340
1, 32272, Tempo, 652173
1, 32284, Tempo, 645161
1, 32292, Tempo, 638297
1, 32304, Tempo, 631578
1, 32312, Tempo, 625000
1, 32320, Tempo, 618556
1, 32332, Tempo, 612244
1, 32340, Tempo, 606060
1, 32352, Tempo, 600000
1, 32364, Tempo, 612244
1, 32400, Tempo, 606060
1, 32440, Tempo, 600000
1, 32476, Tempo, 594059
1, 32512, Tempo, 588235
1, 32548, Tempo, 582524
1, 32588, Tempo, 576923
1, 32624, Tempo, 571428
1, 32660, Tempo, 566037
1, 32696, Tempo, 560747
1, 32736, Tempo, 555555
1, 35520, Tempo, 555555
1, 35576, Tempo, 560747
1, 35632, Tempo, 566037
1, 35692, Tempo, 571428
1, 35748, Tempo, 576923
1, 35808, Tempo, 582524
1, 35864, Tempo, 588235
1, 35920, Tempo, 594059
1, 35980, Tempo, 600000
1, 36036, Tempo, 606060
1, 36096, Tempo, 612244
1, 36112, Tempo, 618556
1, 36132, Tempo, 625000
1, 36152, Tempo, 631578
1, 36172, Tempo, 638297
1, 36192, Tempo, 645161
1, 36208, Tempo, 652173
1, 36228, Tempo, 659340
1, 36248, Tempo, 666666
1, 36268, Tempo, 674157
1, 36288, Tempo, 681818
1, 36304, Tempo, 689655
1, 36324, Tempo, 697674
1, 36344, Tempo, 705882
1, 36364, Tempo, 714285
1, 36384, Tempo, 759493
1, 36388, Tempo, 779220
1, 36392, Tempo, 789473
1, 36396, Tempo, 810810
1, 36400, Tempo, 833333
1, 36404, Tempo, 845070
1, 36408, Tempo, 869565
1, 36412, Tempo, 895522
1, 36416, Tempo, 909090
1, 36420, Tempo, 937500
1, 36424, Tempo, 967741
1, 36428, Tempo, 983606
1, 36432, Tempo, 1016949
1, 36436, Tempo, 1052631
1, 36440, Tempo, 1071428
1, 36444, Tempo, 1111111
1, 36448, Tempo, 1153846
1, 36452, Tempo, 1176470
1, 36456, Tempo, 1224489
1, 36460, Tempo, 1276595
1, 36464, Tempo, 1304347
1, 36468, Tempo, 1363636
1, 36472, Tempo, 1428571
1, 36476, Tempo, 1463414
1, 36480, Tempo, 1500000
1, 36480, End_track
2, 0, Start_track
2, 0, Title_t, "Johann Sebastian Bach"
2, 0, Control_c, 0, 0, 0
2, 0, Program_c, 0, 6
2, 0, Control_c, 0, 7, 127
2, 0, Control_c, 0, 10, 42
2, 0, Control_c, 0, 91, 127
2, 0, Key_signature, 1, "major"
2, 0, Note_on_c, 0, 62, 112
2, 92, Note_off_c, 0, 62, 100
2, 96, Note_on_c, 0, 67, 112
2, 160, Note_off_c, 0, 67, 100
2, 192, Note_on_c, 0, 71, 112
2, 284, Note_off_c, 0, 71, 100
2, 288, Note_on_c, 0, 69, 112
2, 352, Note_off_c, 0, 69, 100
2, 384, Note_on_c, 0, 67, 112
2, 476, Note_off_c, 0, 67, 100
2, 480, Note_on_c, 0, 71, 112
2, 544, Note_off_c, 0, 71, 100
2, 576, Note_on_c, 0, 74, 112
2, 668, Note_off_c, 0, 74, 100
2, 672, Note_on_c, 0, 72, 112
2, 736, Note_off_c, 0, 72, 100
2, 768, Note_on_c, 0, 71, 112
2, 860, Note_off_c, 0, 71, 100
2, 864, Note_on_c, 0, 74, 112
2, 928, Note_off_c, 0, 74, 100
2, 960, Note_on_c, 0, 79, 112
2, 988, Note_off_c, 0, 79, 100
2, 1152, Note_on_c, 0, 62, 112
2, 1244, Note_off_c, 0, 62, 100
2, 1248, Note_on_c, 0, 66, 112
2, 1312, Note_off_c, 0, 66, 100
2, 1344, Note_on_c, 0, 69, 112
2, 1436, Note_off_c, 0, 69, 100
2, 1440, Note_on_c, 0, 67, 112
2, 1504, Note_off_c, 0, 67, 100
2, 1536, Note_on_c, 0, 66, 112
2, 1628, Note_off_c, 0, 66, 100
2, 1632, Note_on_c, 0, 69, 112
2, 1696, Note_off_c, 0, 69, 100
2, 1728, Note_on_c, 0, 72, 112
2, 1820, Note_off_c, 0, 72, 100
2, 1824, Note_on_c, 0, 71, 112
2, 1888, Note_off_c, 0, 71, 100
2, 1920, Note_on_c, 0, 69, 112
2, 2012, Note_off_c, 0, 69, 100
2, 2016, Note_on_c, 0, 74, 112
2, 2080, Note_off_c, 0, 74, 100
2, 2112, Note_on_c, 0, 78, 112
2, 2140, Note_off_c, 0, 78, 100
2, 2304, Note_on_c, 0, 59, 112
2, 2396, Note_off_c, 0, 59, 100
2, 2400, Note_on_c, 0, 62, 112
2, 2464, Note_off_c, 0, 62, 100
2, 2496, Note_on_c, 0, 67, 112
2, 2588, Note_off_c, 0, 67, 100
2, 2592, Note_on_c, 0, 66, 112
2, 2656, Note_off_c, 0, 66, 100
2, 2688, Note_on_c, 0, 64, 112
2, 2780, Note_off_c, 0, 64, 100
2, 2784, Note_on_c, 0, 67, 112
2, 2848, Note_off_c, 0, 67, 100
2, 2880, Note_on_c, 0, 71, 112
2, 2972, Note_off_c, 0, 71, 100
2, 2976, Note_on_c, 0, 69, 112
2, 3040, Note_off_c, 0, 69, 100
2, 3072, Note_on_c, 0, 67, 112
2, 3164, Note_off_c, 0, 67, 100
2, 3168, Note_on_c, 0, 73, 112
2, 3232, Note_off_c, 0, 73, 100
2, 3264, Note_on_c, 0, 76, 112
2, 3292, Note_off_c, 0, 76, 100
2, 3456, Note_on_c, 0, 57, 112
2, 3548, Note_off_c, 0, 57, 100
2, 3552, Note_on_c, 0, 62, 112
2, 3616, Note_off_c, 0, 62, 100
2, 3648, Note_on_c, 0, 66, 112
2, 3740, Note_off_c, 0, 66, 100
2, 3744, Note_on_c, 0, 64, 112
2, 3808, Note_off_c, 0, 64, 100
2, 3840, Note_on_c, 0, 62, 112
2, 3932, Note_off_c, 0, 62, 100
2, 3936, Note_on_c, 0, 66, 112
2, 4000, Note_off_c, 0, 66, 100
2, 4032, Note_on_c, 0, 69, 112
2, 4124, Note_off_c, 0, 69, 100
2, 4128, Note_on_c, 0, 67, 112
2, 4192, Note_off_c, 0, 67, 100
2, 4224, Note_on_c, 0, 66, 112
2, 4316, Note_off_c, 0, 66, 100
2, 4320, Note_on_c, 0, 69, 112
2, 4384, Note_off_c, 0, 69, 100
2, 4416, Note_on_c, 0, 74, 112
2, 4604, Note_off_c, 0, 74, 100
2, 4704, Note_on_c, 0, 71, 112
2, 4768, Note_off_c, 0, 71, 100
2, 4800, Note_on_c, 0, 67, 112
2, 4892, Note_off_c, 0, 67, 100
2, 4896, Note_on_c, 0, 69, 112
2, 4960, Note_off_c, 0, 69, 100
2, 4992, Note_on_c, 0, 71, 112
2, 5084, Note_off_c, 0, 71, 100
2, 5088, Note_on_c, 0, 67, 112
2, 5152, Note_off_c, 0, 67, 100
2, 5184, Note_on_c, 0, 62, 112
2, 5276, Note_off_c, 0, 62, 100
2, 5280, Note_on_c, 0, 64, 112
2, 5344, Note_off_c, 0, 64, 100
2, 5376, Note_on_c, 0, 65, 112
2, 5468, Note_off_c, 0, 65, 100
2, 5472, Note_on_c, 0, 62, 112
2, 5536, Note_off_c, 0, 62, 100
2, 5568, Note_on_c, 0, 59, 112
2, 5596, Note_off_c, 0, 59, 100
2, 5760, Note_on_c, 0, 76, 112
2, 5852, Note_off_c, 0, 76, 100
2, 5856, Note_on_c, 0, 72, 112
2, 5920, Note_off_c, 0, 72, 100
2, 5952, Note_on_c, 0, 69, 112
2, 6044, Note_off_c, 0, 69, 100
2, 6048, Note_on_c, 0, 71, 112
2, 6112, Note_off_c, 0, 71, 100
2, 6144, Note_on_c, 0, 72, 112
2, 6236, Note_off_c, 0, 72, 100
2, 6240, Note_on_c, 0, 69, 112
2, 6304, Note_off_c, 0, 69, 100
2, 6336, Note_on_c, 0, 64, 112
2, 6428, Note_off_c, 0, 64, 100
2, 6432, Note_on_c, 0, 66, 112
2, 6496, Note_off_c, 0, 66, 100
2, 6528, Note_on_c, 0, 67, 112
2, 6620, Note_off_c, 0, 67, 100
2, 6624, Note_on_c, 0, 64, 112
2, 6688, Note_off_c, 0, 64, 100
2, 6720, Note_on_c, 0, 60, 112
2, 6748, Note_off_c, 0, 60, 100
2, 6912, Note_on_c, 0, 81, 112
2, 7004, Note_off_c, 0, 81, 100
2, 7008, Note_on_c, 0, 78, 112
2, 7072, Note_off_c, 0, 78, 100
2, 7104, Note_on_c, 0, 74, 112
2, 7196, Note_off_c, 0, 74, 100
2, 7200, Note_on_c, 0, 76, 112
2, 7264, Note_off_c, 0, 76, 100
2, 7296, Note_on_c, 0, 78, 112
2, 7388, Note_off_c, 0, 78, 100
2, 7392, Note_on_c, 0, 74, 112
2, 7456, Note_off_c, 0, 74, 100
2, 7488, Note_on_c, 0, 69, 112
2, 7580, Note_off_c, 0, 69, 100
2, 7584, Note_on_c, 0, 71, 112
2, 7648, Note_off_c, 0, 71, 100
2, 7680, Note_on_c, 0, 72, 112
2, 7772, Note_off_c, 0, 72, 100
2, 7776, Note_on_c, 0, 69, 112
2, 7840, Note_off_c, 0, 69, 100
2, 7872, Note_on_c, 0, 66, 112
2, 7936, Note_off_c, 0, 66, 100
2, 7968, Note_on_c, 0, 72, 112
2, 8032, Note_off_c, 0, 72, 100
2, 8064, Note_on_c, 0, 71, 112
2, 8156, Note_off_c, 0, 71, 100
2, 8160, Note_on_c, 0, 67, 112
2, 8224, Note_off_c, 0, 67, 100
2, 8256, Note_on_c, 0, 62, 112
2, 8348, Note_off_c, 0, 62, 100
2, 8352, Note_on_c, 0, 66, 112
2, 8416, Note_off_c, 0, 66, 100
2, 8448, Note_on_c, 0, 67, 112
2, 8540, Note_off_c, 0, 67, 100
2, 8544, Note_on_c, 0, 62, 112
2, 8608, Note_off_c, 0, 62, 100
2, 8640, Note_on_c, 0, 59, 112
2, 8732, Note_off_c, 0, 59, 100
2, 8736, Note_on_c, 0, 60, 112
2, 8800, Note_off_c, 0, 60, 100
2, 8832, Note_on_c, 0, 62, 112
2, 8924, Note_off_c, 0, 62, 100
2, 8928, Note_on_c, 0, 59, 112
2, 8992, Note_off_c, 0, 59, 100
2, 9024, Note_on_c, 0, 55, 112
2, 9116, Note_off_c, 0, 55, 100
2, 9120, Note_on_c, 0, 57, 112
2, 9184, Note_off_c, 0, 57, 100
2, 9216, Note_on_c, 0, 59, 112
2, 9244, Note_off_c, 0, 59, 100
2, 9408, Note_on_c, 0, 83, 112
2, 9500, Note_off_c, 0, 83, 100
2, 9504, Note_on_c, 0, 81, 112
2, 9596, Note_off_c, 0, 81, 100
2, 9600, Note_on_c, 0, 79, 112
2, 9692, Note_off_c, 0, 79, 100
2, 9696, Note_on_c, 0, 78, 112
2, 9788, Note_off_c, 0, 78, 100
2, 9792, Note_on_c, 0, 76, 112
2, 9884, Note_off_c, 0, 76, 100
2, 9888, Note_on_c, 0, 74, 112
2, 9980, Note_off_c, 0, 74, 100
2, 9984, Note_on_c, 0, 73, 112
2, 10076, Note_off_c, 0, 73, 100
2, 10080, Note_on_c, 0, 76, 112
2, 10172, Note_off_c, 0, 76, 100
2, 10176, Note_on_c, 0, 74, 112
2, 10268, Note_off_c, 0, 74, 100
2, 10272, Note_on_c, 0, 76, 112
2, 10364, Note_off_c, 0, 76, 100
2, 10368, Note_on_c, 0, 69, 112
2, 10428, Note_off_c, 0, 69, 100
2, 10560, Note_on_c, 0, 81, 112
2, 10652, Note_off_c, 0, 81, 100
2, 10656, Note_on_c, 0, 79, 112
2, 10748, Note_off_c, 0, 79, 100
2, 10752, Note_on_c, 0, 78, 112
2, 10844, Note_off_c, 0, 78, 100
2, 10848, Note_on_c, 0, 76, 112
2, 10940, Note_off_c, 0, 76, 100
2, 10944, Note_on_c, 0, 74, 112
2, 11036, Note_off_c, 0, 74, 100
2, 11040, Note_on_c, 0, 73, 112
2, 11132, Note_off_c, 0, 73, 100
2, 11136, Note_on_c, 0, 71, 112
2, 11228, Note_off_c, 0, 71, 100
2, 11232, Note_on_c, 0, 74, 112
2, 11324, Note_off_c, 0, 74, 100
2, 11328, Note_on_c, 0, 73, 112
2, 11420, Note_off_c, 0, 73, 100
2, 11424, Note_on_c, 0, 74, 112
2, 11516, Note_off_c, 0, 74, 100
2, 11520, Note_on_c, 0, 67, 112
2, 11580, Note_off_c, 0, 67, 100
2, 11712, Note_on_c, 0, 79, 112
2, 11804, Note_off_c, 0, 79, 100
2, 11808, Note_on_c, 0, 78, 112
2, 11900, Note_off_c, 0, 78, 100
2, 11904, Note_on_c, 0, 76, 112
2, 11996, Note_off_c, 0, 76, 100
2, 12000, Note_on_c, 0, 74, 112
2, 12092, Note_off_c, 0, 74, 100
2, 12096, Note_on_c, 0, 73, 112
2, 12188, Note_off_c, 0, 73, 100
2, 12192, Note_on_c, 0, 71, 112
2, 12284, Note_off_c, 0, 71, 100
2, 12288, Note_on_c, 0, 69, 112
2, 12352, Note_off_c, 0, 69, 100
2, 12384, Note_on_c, 0, 73, 112
2, 12448, Note_off_c, 0, 73, 100
2, 12480, Note_on_c, 0, 71, 112
2, 12572, Note_off_c, 0, 71, 100
2, 12576, Note_on_c, 0, 74, 112
2, 12640, Note_off_c, 0, 74, 100
2, 12672, Note_on_c, 0, 73, 112
2, 12764, Note_off_c, 0, 73, 100
2, 12768, Note_on_c, 0, 76, 112
2, 12832, Note_off_c, 0, 76, 100
2, 12864, Note_on_c, 0, 69, 112
2, 12956, Note_off_c, 0, 69, 100
2, 12960, Note_on_c, 0, 71, 112
2, 13024, Note_off_c, 0, 71, 100
2, 13056, Note_on_c, 0, 73, 112
2, 13148, Note_off_c, 0, 73, 100
2, 13152, Note_on_c, 0, 69, 112
2, 13216, Note_off_c, 0, 69, 100
2, 13248, Note_on_c, 0, 64, 112
2, 13340, Note_off_c, 0, 64, 100
2, 13344, Note_on_c, 0, 66, 112
2, 13408, Note_off_c, 0, 66, 100
2, 13440, Note_on_c, 0, 67, 112
2, 13532, Note_off_c, 0, 67, 100
2, 13536, Note_on_c, 0, 64, 112
2, 13600, Note_off_c, 0, 64, 100
2, 13632, Note_on_c, 0, 61, 112
2, 13724, Note_off_c, 0, 61, 100
2, 13728, Note_on_c, 0, 64, 112
2, 13792, Note_off_c, 0, 64, 100
2, 13824, Note_on_c, 0, 62, 112
2, 13884, Note_off_c, 0, 62, 100
2, 14016, Note_on_c, 0, 66, 112
2, 14076, Note_off_c, 0, 66, 100
2, 14208, Note_on_c, 0, 69, 112
2, 14268, Note_off_c, 0, 69, 100
2, 14400, Note_on_c, 0, 74, 112
2, 14460, Note_off_c, 0, 74, 100
2, 14688, Note_on_c, 0, 72, 112
2, 14780, Note_off_c, 0, 72, 100
2, 14784, Note_on_c, 0, 69, 112
2, 14876, Note_off_c, 0, 69, 100
2, 14880, Note_on_c, 0, 66, 112
2, 14972, Note_off_c, 0, 66, 100
2, 14976, Note_on_c, 0, 67, 112
2, 15036, Note_off_c, 0, 67, 100
2, 15168, Note_on_c, 0, 71, 112
2, 15228, Note_off_c, 0, 71, 100
2, 15360, Note_on_c, 0, 74, 112
2, 15420, Note_off_c, 0, 74, 100
2, 15552, Note_on_c, 0, 79, 112
2, 15612, Note_off_c, 0, 79, 100
2, 15840, Note_on_c, 0, 79, 112
2, 15932, Note_off_c, 0, 79, 100
2, 15936, Note_on_c, 0, 78, 112
2, 16028, Note_off_c, 0, 78, 100
2, 16032, Note_on_c, 0, 79, 112
2, 16124, Note_off_c, 0, 79, 100
2, 16128, Note_on_c, 0, 69, 112
2, 16188, Note_off_c, 0, 69, 100
2, 16320, Note_on_c, 0, 73, 112
2, 16380, Note_off_c, 0, 73, 100
2, 16512, Note_on_c, 0, 76, 112
2, 16572, Note_off_c, 0, 76, 100
2, 16704, Note_on_c, 0, 79, 112
2, 16764, Note_off_c, 0, 79, 100
2, 16992, Note_on_c, 0, 79, 112
2, 17084, Note_off_c, 0, 79, 100
2, 17088, Note_on_c, 0, 81, 112
2, 17180, Note_off_c, 0, 81, 100
2, 17184, Note_on_c, 0, 73, 112
2, 17276, Note_off_c, 0, 73, 100
2, 17280, Note_on_c, 0, 74, 112
2, 17344, Note_off_c, 0, 74, 100
2, 17376, Note_on_c, 0, 78, 112
2, 17468, Note_off_c, 0, 78, 100
2, 17472, Note_on_c, 0, 81, 112
2, 17564, Note_off_c, 0, 81, 100
2, 17568, Note_on_c, 0, 85, 112
2, 17632, Note_off_c, 0, 85, 100
2, 17664, Note_on_c, 0, 86, 112
2, 17756, Note_off_c, 0, 86, 100
2, 17760, Note_on_c, 0, 85, 112
2, 17804, Note_off_c, 0, 85, 100
2, 17808, Note_on_c, 0, 83, 112
2, 17852, Note_off_c, 0, 83, 100
2, 17856, Note_on_c, 0, 81, 112
2, 17900, Note_off_c, 0, 81, 100
2, 17904, Note_on_c, 0, 79, 112
2, 17948, Note_off_c, 0, 79, 100
2, 17952, Note_on_c, 0, 78, 112
2, 17996, Note_off_c, 0, 78, 100
2, 18000, Note_on_c, 0, 76, 112
2, 18044, Note_off_c, 0, 76, 100
2, 18048, Note_on_c, 0, 74, 112
2, 18304, Note_off_c, 0, 74, 100
2, 18432, Note_on_c, 0, 69, 112
2, 18524, Note_off_c, 0, 69, 100
2, 18528, Note_on_c, 0, 74, 112
2, 18592, Note_off_c, 0, 74, 100
2, 18624, Note_on_c, 0, 78, 112
2, 18716, Note_off_c, 0, 78, 100
2, 18720, Note_on_c, 0, 76, 112
2, 18784, Note_off_c, 0, 76, 100
2, 18816, Note_on_c, 0, 74, 112
2, 18908, Note_off_c, 0, 74, 100
2, 18912, Note_on_c, 0, 78, 112
2, 18976, Note_off_c, 0, 78, 100
2, 19008, Note_on_c, 0, 81, 112
2, 19100, Note_off_c, 0, 81, 100
2, 19104, Note_on_c, 0, 79, 112
2, 19168, Note_off_c, 0, 79, 100
2, 19200, Note_on_c, 0, 78, 112
2, 19292, Note_off_c, 0, 78, 100
2, 19296, Note_on_c, 0, 81, 112
2, 19360, Note_off_c, 0, 81, 100
2, 19392, Note_on_c, 0, 84, 112
2, 19420, Note_off_c, 0, 84, 100
2, 19584, Note_on_c, 0, 62, 112
2, 19676, Note_off_c, 0, 62, 100
2, 19680, Note_on_c, 0, 67, 112
2, 19744, Note_off_c, 0, 67, 100
2, 19776, Note_on_c, 0, 71, 112
2, 19868, Note_off_c, 0, 71, 100
2, 19872, Note_on_c, 0, 69, 112
2, 19936, Note_off_c, 0, 69, 100
2, 19968, Note_on_c, 0, 67, 112
2, 20060, Note_off_c, 0, 67, 100
2, 20064, Note_on_c, 0, 71, 112
2, 20128, Note_off_c, 0, 71, 100
2, 20160, Note_on_c, 0, 74, 112
2, 20252, Note_off_c, 0, 74, 100
2, 20256, Note_on_c, 0, 72, 112
2, 20320, Note_off_c, 0, 72, 100
2, 20352, Note_on_c, 0, 71, 112
2, 20444, Note_off_c, 0, 71, 100
2, 20448, Note_on_c, 0, 74, 112
2, 20512, Note_off_c, 0, 74, 100
2, 20544, Note_on_c, 0, 77, 112
2, 20572, Note_off_c, 0, 77, 100
2, 20736, Note_on_c, 0, 76, 112
2, 20828, Note_off_c, 0, 76, 100
2, 20832, Note_on_c, 0, 72, 112
2, 20896, Note_off_c, 0, 72, 100
2, 20928, Note_on_c, 0, 69, 112
2, 21020, Note_off_c, 0, 69, 100
2, 21024, Note_on_c, 0, 71, 112
2, 21088, Note_off_c, 0, 71, 100
2, 21120, Note_on_c, 0, 72, 112
2, 21212, Note_off_c, 0, 72, 100
2, 21216, Note_on_c, 0, 69, 112
2, 21280, Note_off_c, 0, 69, 100
2, 21312, Note_on_c, 0, 66, 112
2, 21404, Note_off_c, 0, 66, 100
2, 21408, Note_on_c, 0, 67, 112
2, 21472, Note_off_c, 0, 67, 100
2, 21504, Note_on_c, 0, 69, 112
2, 21596, Note_off_c, 0, 69, 100
2, 21600, Note_on_c, 0, 66, 112
2, 21664, Note_off_c, 0, 66, 100
2, 21696, Note_on_c, 0, 63, 112
2, 21788, Note_off_c, 0, 63, 100
2, 21792, Note_on_c, 0, 64, 112
2, 21856, Note_off_c, 0, 64, 100
2, 21888, Note_on_c, 0, 66, 112
2, 21980, Note_off_c, 0, 66, 100
2, 21984, Note_on_c, 0, 63, 112
2, 22048, Note_off_c, 0, 63, 100
2, 22080, Note_on_c, 0, 59, 112
2, 22172, Note_off_c, 0, 59, 100
2, 22176, Note_on_c, 0, 61, 112
2, 22240, Note_off_c, 0, 61, 100
2, 22272, Note_on_c, 0, 63, 112
2, 22364, Note_off_c, 0, 63, 100
2, 22368, Note_on_c, 0, 59, 112
2, 22432, Note_off_c, 0, 59, 100
2, 22464, Note_on_c, 0, 54, 112
2, 22556, Note_off_c, 0, 54, 100
2, 22560, Note_on_c, 0, 55, 112
2, 22624, Note_off_c, 0, 55, 100
2, 22656, Note_on_c, 0, 57, 112
2, 22748, Note_off_c, 0, 57, 100
2, 22752, Note_on_c, 0, 54, 112
2, 22816, Note_off_c, 0, 54, 100
2, 22848, Note_on_c, 0, 51, 112
2, 22940, Note_off_c, 0, 51, 100
2, 22944, Note_on_c, 0, 54, 112
2, 23008, Note_off_c, 0, 54, 100
2, 23040, Note_on_c, 0, 55, 112
2, 23132, Note_off_c, 0, 55, 100
2, 23136, Note_on_c, 0, 59, 112
2, 23200, Note_off_c, 0, 59, 100
2, 23232, Note_on_c, 0, 64, 112
2, 23324, Note_off_c, 0, 64, 100
2, 23328, Note_on_c, 0, 63, 112
2, 23392, Note_off_c, 0, 63, 100
2, 23424, Note_on_c, 0, 64, 112
2, 23516, Note_off_c, 0, 64, 100
2, 23520, Note_on_c, 0, 67, 112
2, 23584, Note_off_c, 0, 67, 100
2, 23616, Note_on_c, 0, 71, 112
2, 23708, Note_off_c, 0, 71, 100
2, 23712, Note_on_c, 0, 69, 112
2, 23776, Note_off_c, 0, 69, 100
2, 23808, Note_on_c, 0, 67, 112
2, 23900, Note_off_c, 0, 67, 100
2, 23904, Note_on_c, 0, 71, 112
2, 23968, Note_off_c, 0, 71, 100
2, 24000, Note_on_c, 0, 76, 112
2, 24028, Note_off_c, 0, 76, 100
2, 24192, Note_on_c, 0, 64, 112
2, 24284, Note_off_c, 0, 64, 100
2, 24288, Note_on_c, 0, 69, 112
2, 24352, Note_off_c, 0, 69, 100
2, 24384, Note_on_c, 0, 72, 112
2, 24476, Note_off_c, 0, 72, 100
2, 24480, Note_on_c, 0, 71, 112
2, 24544, Note_off_c, 0, 71, 100
2, 24576, Note_on_c, 0, 69, 112
2, 24668, Note_off_c, 0, 69, 100
2, 24672, Note_on_c, 0, 72, 112
2, 24736, Note_off_c, 0, 72, 100
2, 24768, Note_on_c, 0, 76, 112
2, 24860, Note_off_c, 0, 76, 100
2, 24864, Note_on_c, 0, 74, 112
2, 24928, Note_off_c, 0, 74, 100
2, 24960, Note_on_c, 0, 72, 112
2, 25052, Note_off_c, 0, 72, 100
2, 25056, Note_on_c, 0, 76, 112
2, 25120, Note_off_c, 0, 76, 100
2, 25152, Note_on_c, 0, 81, 112
2, 25180, Note_off_c, 0, 81, 100
2, 25440, Note_on_c, 0, 72, 112
2, 25504, Note_off_c, 0, 72, 100
2, 25536, Note_on_c, 0, 71, 112
2, 25628, Note_off_c, 0, 71, 100
2, 25632, Note_on_c, 0, 78, 112
2, 25696, Note_off_c, 0, 78, 100
2, 25728, Note_on_c, 0, 79, 112
2, 25820, Note_off_c, 0, 79, 100
2, 25824, Note_on_c, 0, 75, 112
2, 25888, Note_off_c, 0, 75, 100
2, 25920, Note_on_c, 0, 76, 112
2, 26012, Note_off_c, 0, 76, 100
2, 26016, Note_on_c, 0, 67, 112
2, 26080, Note_off_c, 0, 67, 100
2, 26112, Note_on_c, 0, 66, 112
2, 26204, Note_off_c, 0, 66, 100
2, 26208, Note_on_c, 0, 76, 112
2, 26272, Note_off_c, 0, 76, 100
2, 26304, Note_on_c, 0, 75, 112
2, 26396, Note_off_c, 0, 75, 100
2, 26400, Note_on_c, 0, 81, 112
2, 26444, Note_off_c, 0, 81, 100
2, 26464, Note_on_c, 0, 81, 112
2, 26492, Note_off_c, 0, 81, 100
2, 26496, Note_on_c, 0, 79, 112
2, 26524, Note_off_c, 0, 79, 100
2, 26528, Note_on_c, 0, 81, 112
2, 26556, Note_off_c, 0, 81, 100
2, 26560, Note_on_c, 0, 79, 112
2, 26588, Note_off_c, 0, 79, 100
2, 26592, Note_on_c, 0, 78, 112
2, 26684, Note_off_c, 0, 78, 100
2, 26688, Note_on_c, 0, 76, 112
2, 26876, Note_off_c, 0, 76, 100
2, 26976, Note_on_c, 0, 69, 112
2, 27068, Note_off_c, 0, 69, 100
2, 27072, Note_on_c, 0, 67, 112
2, 27164, Note_off_c, 0, 67, 100
2, 27168, Note_on_c, 0, 66, 112
2, 27232, Note_off_c, 0, 66, 100
2, 27264, Note_on_c, 0, 66, 112
2, 27452, Note_off_c, 0, 66, 100
2, 27456, Note_on_c, 0, 64, 112
2, 27740, Note_off_c, 0, 64, 100
2, 27840, Note_on_c, 0, 76, 112
2, 27932, Note_off_c, 0, 76, 100
2, 27936, Note_on_c, 0, 74, 112
2, 28028, Note_off_c, 0, 74, 100
2, 28032, Note_on_c, 0, 72, 112
2, 28124, Note_off_c, 0, 72, 100
2, 28128, Note_on_c, 0, 71, 112
2, 28220, Note_off_c, 0, 71, 100
2, 28224, Note_on_c, 0, 69, 112
2, 28316, Note_off_c, 0, 69, 100
2, 28320, Note_on_c, 0, 67, 112
2, 28384, Note_off_c, 0, 67, 100
2, 28416, Note_on_c, 0, 66, 112
2, 28508, Note_off_c, 0, 66, 100
2, 28512, Note_on_c, 0, 70, 112
2, 28604, Note_off_c, 0, 70, 100
2, 28608, Note_on_c, 0, 73, 112
2, 28700, Note_off_c, 0, 73, 100
2, 28704, Note_on_c, 0, 76, 112
2, 28768, Note_off_c, 0, 76, 100
2, 28800, Note_on_c, 0, 74, 112
2, 28892, Note_off_c, 0, 74, 100
2, 28896, Note_on_c, 0, 66, 112
2, 28960, Note_off_c, 0, 66, 100
2, 28992, Note_on_c, 0, 74, 112
2, 29084, Note_off_c, 0, 74, 100
2, 29088, Note_on_c, 0, 72, 112
2, 29180, Note_off_c, 0, 72, 100
2, 29184, Note_on_c, 0, 71, 112
2, 29276, Note_off_c, 0, 71, 100
2, 29280, Note_on_c, 0, 69, 112
2, 29372, Note_off_c, 0, 69, 100
2, 29376, Note_on_c, 0, 68, 112
2, 29468, Note_off_c, 0, 68, 100
2, 29472, Note_on_c, 0, 66, 112
2, 29536, Note_off_c, 0, 66, 100
2, 29568, Note_on_c, 0, 64, 112
2, 29660, Note_off_c, 0, 64, 100
2, 29664, Note_on_c, 0, 68, 112
2, 29756, Note_off_c, 0, 68, 100
2, 29760, Note_on_c, 0, 71, 112
2, 29852, Note_off_c, 0, 71, 100
2, 29856, Note_on_c, 0, 74, 112
2, 29920, Note_off_c, 0, 74, 100
2, 29952, Note_on_c, 0, 72, 112
2, 30044, Note_off_c, 0, 72, 100
2, 30048, Note_on_c, 0, 64, 112
2, 30112, Note_off_c, 0, 64, 100
2, 30144, Note_on_c, 0, 72, 112
2, 30236, Note_off_c, 0, 72, 100
2, 30240, Note_on_c, 0, 71, 112
2, 30304, Note_off_c, 0, 71, 100
2, 30336, Note_on_c, 0, 69, 112
2, 30428, Note_off_c, 0, 69, 100
2, 30432, Note_on_c, 0, 72, 112
2, 30496, Note_off_c, 0, 72, 100
2, 30528, Note_on_c, 0, 76, 112
2, 30620, Note_off_c, 0, 76, 100
2, 30624, Note_on_c, 0, 74, 112
2, 30688, Note_off_c, 0, 74, 100
2, 30720, Note_on_c, 0, 72, 112
2, 30812, Note_off_c, 0, 72, 100
2, 30816, Note_on_c, 0, 76, 112
2, 30880, Note_off_c, 0, 76, 100
2, 30912, Note_on_c, 0, 81, 112
2, 31004, Note_off_c, 0, 81, 100
2, 31008, Note_on_c, 0, 79, 112
2, 31072, Note_off_c, 0, 79, 100
2, 31104, Note_on_c, 0, 78, 112
2, 31196, Note_off_c, 0, 78, 100
2, 31200, Note_on_c, 0, 81, 112
2, 31264, Note_off_c, 0, 81, 100
2, 31296, Note_on_c, 0, 84, 112
2, 31388, Note_off_c, 0, 84, 100
2, 31392, Note_on_c, 0, 83, 112
2, 31484, Note_off_c, 0, 83, 100
2, 31488, Note_on_c, 0, 81, 112
2, 31580, Note_off_c, 0, 81, 100
2, 31584, Note_on_c, 0, 79, 112
2, 31676, Note_off_c, 0, 79, 100
2, 31680, Note_on_c, 0, 78, 112
2, 31772, Note_off_c, 0, 78, 100
2, 31776, Note_on_c, 0, 76, 112
2, 31840, Note_off_c, 0, 76, 100
2, 31872, Note_on_c, 0, 74, 112
2, 31964, Note_off_c, 0, 74, 100
2, 31968, Note_on_c, 0, 78, 112
2, 32060, Note_off_c, 0, 78, 100
2, 32064, Note_on_c, 0, 81, 112
2, 32156, Note_off_c, 0, 81, 100
2, 32160, Note_on_c, 0, 84, 112
2, 32224, Note_off_c, 0, 84, 100
2, 32256, Note_on_c, 0, 83, 112
2, 32348, Note_off_c, 0, 83, 100
2, 32352, Note_on_c, 0, 86, 112
2, 32416, Note_off_c, 0, 86, 100
2, 32448, Note_on_c, 0, 79, 112
2, 32540, Note_off_c, 0, 79, 100
2, 32544, Note_on_c, 0, 81, 112
2, 32608, Note_off_c, 0, 81, 100
2, 32640, Note_on_c, 0, 83, 112
2, 32732, Note_off_c, 0, 83, 100
2, 32736, Note_on_c, 0, 79, 112
2, 32800, Note_off_c, 0, 79, 100
2, 32832, Note_on_c, 0, 74, 112
2, 32924, Note_off_c, 0, 74, 100
2, 32928, Note_on_c, 0, 76, 112
2, 32992, Note_off_c, 0, 76, 100
2, 33024, Note_on_c, 0, 77, 112
2, 33116, Note_off_c, 0, 77, 100
2, 33120, Note_on_c, 0, 74, 112
2, 33184, Note_off_c, 0, 74, 100
2, 33216, Note_on_c, 0, 71, 112
2, 33308, Note_off_c, 0, 71, 100
2, 33312, Note_on_c, 0, 74, 112
2, 33376, Note_off_c, 0, 74, 100
2, 33408, Note_on_c, 0, 76, 112
2, 33500, Note_off_c, 0, 76, 100
2, 33504, Note_on_c, 0, 79, 112
2, 33568, Note_off_c, 0, 79, 100
2, 33600, Note_on_c, 0, 72, 112
2, 33692, Note_off_c, 0, 72, 100
2, 33696, Note_on_c, 0, 74, 112
2, 33760, Note_off_c, 0, 74, 100
2, 33792, Note_on_c, 0, 76, 112
2, 33884, Note_off_c, 0, 76, 100
2, 33888, Note_on_c, 0, 72, 112
2, 33952, Note_off_c, 0, 72, 100
2, 33984, Note_on_c, 0, 69, 112
2, 34076, Note_off_c, 0, 69, 100
2, 34080, Note_on_c, 0, 71, 112
2, 34144, Note_off_c, 0, 71, 100
2, 34176, Note_on_c, 0, 72, 112
2, 34268, Note_off_c, 0, 72, 100
2, 34272, Note_on_c, 0, 69, 112
2, 34336, Note_off_c, 0, 69, 100
2, 34368, Note_on_c, 0, 64, 112
2, 34460, Note_off_c, 0, 64, 100
2, 34464, Note_on_c, 0, 67, 112
2, 34528, Note_off_c, 0, 67, 100
2, 34560, Note_on_c, 0, 66, 112
2, 34652, Note_off_c, 0, 66, 100
2, 34656, Note_on_c, 0, 69, 112
2, 34720, Note_off_c, 0, 69, 100
2, 34752, Note_on_c, 0, 62, 112
2, 34844, Note_off_c, 0, 62, 100
2, 34848, Note_on_c, 0, 64, 112
2, 34912, Note_off_c, 0, 64, 100
2, 34944, Note_on_c, 0, 66, 112
2, 35036, Note_off_c, 0, 66, 100
2, 35040, Note_on_c, 0, 62, 112
2, 35104, Note_off_c, 0, 62, 100
2, 35136, Note_on_c, 0, 57, 112
2, 35228, Note_off_c, 0, 57, 100
2, 35232, Note_on_c, 0, 59, 112
2, 35296, Note_off_c, 0, 59, 100
2, 35328, Note_on_c, 0, 60, 112
2, 35420, Note_off_c, 0, 60, 100
2, 35424, Note_on_c, 0, 57, 112
2, 35488, Note_off_c, 0, 57, 100
2, 35520, Note_on_c, 0, 54, 112
2, 35612, Note_off_c, 0, 54, 100
2, 35616, Note_on_c, 0, 57, 112
2, 35680, Note_off_c, 0, 57, 100
2, 35712, Note_on_c, 0, 59, 112
2, 35804, Note_off_c, 0, 59, 100
2, 35808, Note_on_c, 0, 62, 112
2, 35872, Note_off_c, 0, 62, 100
2, 35904, Note_on_c, 0, 55, 112
2, 35996, Note_off_c, 0, 55, 100
2, 36000, Note_on_c, 0, 57, 112
2, 36064, Note_off_c, 0, 57, 100
2, 36096, Note_on_c, 0, 59, 112
2, 36188, Note_off_c, 0, 59, 100
2, 36192, Note_on_c, 0, 55, 112
2, 36256, Note_off_c, 0, 55, 100
2, 36288, Note_on_c, 0, 59, 112
2, 36380, Note_off_c, 0, 59, 100
2, 36384, Note_on_c, 0, 62, 112
2, 36448, Note_off_c, 0, 62, 100
2, 36480, Note_on_c, 0, 67, 112
2, 36736, Note_off_c, 0, 67, 100
2, 36736, End_track
3, 0, Start_track
3, 0, Title_t, "Goldberg Variations"
3, 0, Control_c, 1, 0, 0
3, 0, Program_c, 1, 6
3, 0, Control_c, 1, 7, 127
3, 0, Control_c, 1, 10, 87
3, 0, Control_c, 1, 91, 127
3, 0, Key_signature, 1, "major"
3, 0, Note_on_c, 1, 55, 112
3, 60, Note_off_c, 1, 55, 100
3, 192, Note_on_c, 1, 50, 112
3, 252, Note_off_c, 1, 50, 100
3, 384, Note_on_c, 1, 47, 112
3, 444, Note_off_c, 1, 47, 100
3, 576, Note_on_c, 1, 43, 112
3, 636, Note_off_c, 1, 43, 100
3, 864, Note_on_c, 1, 55, 112
3, 956, Note_off_c, 1, 55, 100
3, 960, Note_on_c, 1, 54, 112
3, 1052, Note_off_c, 1, 54, 100
3, 1056, Note_on_c, 1, 52, 112
3, 1148, Note_off_c, 1, 52, 100
3, 1152, Note_on_c, 1, 54, 112
3, 1212, Note_off_c, 1, 54, 100
3, 1344, Note_on_c, 1, 50, 112
3, 1404, Note_off_c, 1, 50, 100
3, 1536, Note_on_c, 1, 45, 112
3, 1596, Note_off_c, 1, 45, 100
3, 1728, Note_on_c, 1, 42, 112
3, 1788, Note_off_c, 1, 42, 100
3, 2016, Note_on_c, 1, 54, 112
3, 2108, Note_off_c, 1, 54, 100
3, 2112, Note_on_c, 1, 52, 112
3, 2204, Note_off_c, 1, 52, 100
3, 2208, Note_on_c, 1, 50, 112
3, 2300, Note_off_c, 1, 50, 100
3, 2304, Note_on_c, 1, 52, 112
3, 2364, Note_off_c, 1, 52, 100
3, 2496, Note_on_c, 1, 47, 112
3, 2556, Note_off_c, 1, 47, 100
3, 2688, Note_on_c, 1, 43, 112
3, 2748, Note_off_c, 1, 43, 100
3, 2880, Note_on_c, 1, 40, 112
3, 2940, Note_off_c, 1, 40, 100
3, 3168, Note_on_c, 1, 52, 112
3, 3260, Note_off_c, 1, 52, 100
3, 3264, Note_on_c, 1, 50, 112
3, 3356, Note_off_c, 1, 50, 100
3, 3360, Note_on_c, 1, 49, 112
3, 3452, Note_off_c, 1, 49, 100
3, 3456, Note_on_c, 1, 50, 112
3, 3516, Note_off_c, 1, 50, 100
3, 3648, Note_on_c, 1, 45, 112
3, 3708, Note_off_c, 1, 45, 100
3, 3840, Note_on_c, 1, 42, 112
3, 3900, Note_off_c, 1, 42, 100
3, 4032, Note_on_c, 1, 38, 112
3, 4092, Note_off_c, 1, 38, 100
3, 4320, Note_on_c, 1, 48, 112
3, 4412, Note_off_c, 1, 48, 100
3, 4416, Note_on_c, 1, 47, 112
3, 4508, Note_off_c, 1, 47, 100
3, 4512, Note_on_c, 1, 45, 112
3, 4604, Note_off_c, 1, 45, 100
3, 4608, Note_on_c, 1, 47, 112
3, 4668, Note_off_c, 1, 47, 100
3, 4800, Note_on_c, 1, 50, 112
3, 4860, Note_off_c, 1, 50, 100
3, 4992, Note_on_c, 1, 55, 112
3, 5052, Note_off_c, 1, 55, 100
3, 5184, Note_on_c, 1, 59, 112
3, 5244, Note_off_c, 1, 59, 100
3, 5472, Note_on_c, 1, 55, 112
3, 5564, Note_off_c, 1, 55, 100
3, 5568, Note_on_c, 1, 53, 112
3, 5660, Note_off_c, 1, 53, 100
3, 5664, Note_on_c, 1, 55, 112
3, 5756, Note_off_c, 1, 55, 100
3, 5760, Note_on_c, 1, 48, 112
3, 5820, Note_off_c, 1, 48, 100
3, 5952, Note_on_c, 1, 52, 112
3, 6012, Note_off_c, 1, 52, 100
3, 6144, Note_on_c, 1, 57, 112
3, 6204, Note_off_c, 1, 57, 100
3, 6336, Note_on_c, 1, 60, 112
3, 6396, Note_off_c, 1, 60, 100
3, 6624, Note_on_c, 1, 57, 112
3, 6716, Note_off_c, 1, 57, 100
3, 6720, Note_on_c, 1, 55, 112
3, 6812, Note_off_c, 1, 55, 100
3, 6816, Note_on_c, 1, 57, 112
3, 6908, Note_off_c, 1, 57, 100
3, 6912, Note_on_c, 1, 50, 112
3, 6972, Note_off_c, 1, 50, 100
3, 7104, Note_on_c, 1, 54, 112
3, 7164, Note_off_c, 1, 54, 100
3, 7296, Note_on_c, 1, 57, 112
3, 7356, Note_off_c, 1, 57, 100
3, 7488, Note_on_c, 1, 62, 112
3, 7548, Note_off_c, 1, 62, 100
3, 7776, Note_on_c, 1, 50, 112
3, 7868, Note_off_c, 1, 50, 100
3, 7872, Note_on_c, 1, 48, 112
3, 7964, Note_off_c, 1, 48, 100
3, 7968, Note_on_c, 1, 50, 112
3, 8060, Note_off_c, 1, 50, 100
3, 8064, Note_on_c, 1, 43, 112
3, 8124, Note_off_c, 1, 43, 100
3, 8256, Note_on_c, 1, 55, 112
3, 8316, Note_off_c, 1, 55, 100
3, 8448, Note_on_c, 1, 47, 112
3, 8508, Note_off_c, 1, 47, 100
3, 8640, Note_on_c, 1, 50, 112
3, 8700, Note_off_c, 1, 50, 100
3, 8832, Note_on_c, 1, 43, 112
3, 8892, Note_off_c, 1, 43, 100
3, 9216, Note_on_c, 1, 55, 112
3, 9308, Note_off_c, 1, 55, 100
3, 9312, Note_on_c, 1, 59, 112
3, 9376, Note_off_c, 1, 59, 100
3, 9408, Note_on_c, 1, 62, 112
3, 9500, Note_off_c, 1, 62, 100
3, 9504, Note_on_c, 1, 60, 112
3, 9568, Note_off_c, 1, 60, 100
3, 9600, Note_on_c, 1, 59, 112
3, 9692, Note_off_c, 1, 59, 100
3, 9696, Note_on_c, 1, 62, 112
3, 9760, Note_off_c, 1, 62, 100
3, 9792, Note_on_c, 1, 67, 112
3, 9884, Note_off_c, 1, 67, 100
3, 9888, Note_on_c, 1, 66, 112
3, 9952, Note_off_c, 1, 66, 100
3, 9984, Note_on_c, 1, 64, 112
3, 10076, Note_off_c, 1, 64, 100
3, 10080, Note_on_c, 1, 67, 112
3, 10144, Note_off_c, 1, 67, 100
3, 10176, Note_on_c, 1, 71, 112
3, 10204, Note_off_c, 1, 71, 100
3, 10368, Note_on_c, 1, 54, 112
3, 10460, Note_off_c, 1, 54, 100
3, 10464, Note_on_c, 1, 57, 112
3, 10528, Note_off_c, 1, 57, 100
3, 10560, Note_on_c, 1, 61, 112
3, 10652, Note_off_c, 1, 61, 100
3, 10656, Note_on_c, 1, 59, 112
3, 10720, Note_off_c, 1, 59, 100
3, 10752, Note_on_c, 1, 57, 112
3, 10844, Note_off_c, 1, 57, 100
3, 10848, Note_on_c, 1, 61, 112
3, 10912, Note_off_c, 1, 61, 100
3, 10944, Note_on_c, 1, 66, 112
3, 11036, Note_off_c, 1, 66, 100
3, 11040, Note_on_c, 1, 64, 112
3, 11104, Note_off_c, 1, 64, 100
3, 11136, Note_on_c, 1, 62, 112
3, 11228, Note_off_c, 1, 62, 100
3, 11232, Note_on_c, 1, 66, 112
3, 11296, Note_off_c, 1, 66, 100
3, 11328, Note_on_c, 1, 69, 112
3, 11356, Note_off_c, 1, 69, 100
3, 11520, Note_on_c, 1, 52, 112
3, 11612, Note_off_c, 1, 52, 100
3, 11616, Note_on_c, 1, 55, 112
3, 11680, Note_off_c, 1, 55, 100
3, 11712, Note_on_c, 1, 59, 112
3, 11804, Note_off_c, 1, 59, 100
3, 11808, Note_on_c, 1, 57, 112
3, 11872, Note_off_c, 1, 57, 100
3, 11904, Note_on_c, 1, 55, 112
3, 11996, Note_off_c, 1, 55, 100
3, 12000, Note_on_c, 1, 59, 112
3, 12064, Note_off_c, 1, 59, 100
3, 12096, Note_on_c, 1, 64, 112
3, 12188, Note_off_c, 1, 64, 100
3, 12192, Note_on_c, 1, 62, 112
3, 12256, Note_off_c, 1, 62, 100
3, 12288, Note_on_c, 1, 61, 112
3, 12380, Note_off_c, 1, 61, 100
3, 12384, Note_on_c, 1, 64, 112
3, 12448, Note_off_c, 1, 64, 100
3, 12480, Note_on_c, 1, 67, 112
3, 12572, Note_off_c, 1, 67, 100
3, 12576, Note_on_c, 1, 66, 112
3, 12640, Note_off_c, 1, 66, 100
3, 12672, Note_on_c, 1, 64, 112
3, 12764, Note_off_c, 1, 64, 100
3, 12768, Note_on_c, 1, 67, 112
3, 12832, Note_off_c, 1, 67, 100
3, 12864, Note_on_c, 1, 73, 112
3, 12956, Note_off_c, 1, 73, 100
3, 12960, Note_on_c, 1, 71, 112
3, 13024, Note_off_c, 1, 71, 100
3, 13056, Note_on_c, 1, 69, 112
3, 13148, Note_off_c, 1, 69, 100
3, 13152, Note_on_c, 1, 73, 112
3, 13216, Note_off_c, 1, 73, 100
3, 13248, Note_on_c, 1, 76, 112
3, 13340, Note_off_c, 1, 76, 100
3, 13344, Note_on_c, 1, 74, 112
3, 13408, Note_off_c, 1, 74, 100
3, 13440, Note_on_c, 1, 73, 112
3, 13532, Note_off_c, 1, 73, 100
3, 13536, Note_on_c, 1, 76, 112
3, 13600, Note_off_c, 1, 76, 100
3, 13632, Note_on_c, 1, 81, 112
3, 13724, Note_off_c, 1, 81, 100
3, 13728, Note_on_c, 1, 79, 112
3, 13792, Note_off_c, 1, 79, 100
3, 13824, Note_on_c, 1, 78, 112
3, 13916, Note_off_c, 1, 78, 100
3, 13920, Note_on_c, 1, 81, 112
3, 13984, Note_off_c, 1, 81, 100
3, 14016, Note_on_c, 1, 74, 112
3, 14108, Note_off_c, 1, 74, 100
3, 14112, Note_on_c, 1, 76, 112
3, 14176, Note_off_c, 1, 76, 100
3, 14208, Note_on_c, 1, 78, 112
3, 14300, Note_off_c, 1, 78, 100
3, 14304, Note_on_c, 1, 74, 112
3, 14368, Note_off_c, 1, 74, 100
3, 14400, Note_on_c, 1, 69, 112
3, 14492, Note_off_c, 1, 69, 100
3, 14496, Note_on_c, 1, 71, 112
3, 14560, Note_off_c, 1, 71, 100
3, 14592, Note_on_c, 1, 72, 112
3, 14684, Note_off_c, 1, 72, 100
3, 14688, Note_on_c, 1, 69, 112
3, 14752, Note_off_c, 1, 69, 100
3, 14784, Note_on_c, 1, 66, 112
3, 14876, Note_off_c, 1, 66, 100
3, 14880, Note_on_c, 1, 69, 112
3, 14944, Note_off_c, 1, 69, 100
3, 14976, Note_on_c, 1, 71, 112
3, 15068, Note_off_c, 1, 71, 100
3, 15072, Note_on_c, 1, 74, 112
3, 15136, Note_off_c, 1, 74, 100
3, 15168, Note_on_c, 1, 67, 112
3, 15260, Note_off_c, 1, 67, 100
3, 15264, Note_on_c, 1, 69, 112
3, 15328, Note_off_c, 1, 69, 100
3, 15360, Note_on_c, 1, 71, 112
3, 15452, Note_off_c, 1, 71, 100
3, 15456, Note_on_c, 1, 67, 112
3, 15520, Note_off_c, 1, 67, 100
3, 15552, Note_on_c, 1, 64, 112
3, 15644, Note_off_c, 1, 64, 100
3, 15648, Note_on_c, 1, 66, 112
3, 15712, Note_off_c, 1, 66, 100
3, 15744, Note_on_c, 1, 67, 112
3, 15836, Note_off_c, 1, 67, 100
3, 15840, Note_on_c, 1, 64, 112
3, 15904, Note_off_c, 1, 64, 100
3, 15936, Note_on_c, 1, 59, 112
3, 16028, Note_off_c, 1, 59, 100
3, 16032, Note_on_c, 1, 62, 112
3, 16096, Note_off_c, 1, 62, 100
3, 16128, Note_on_c, 1, 61, 112
3, 16220, Note_off_c, 1, 61, 100
3, 16224, Note_on_c, 1, 64, 112
3, 16288, Note_off_c, 1, 64, 100
3, 16320, Note_on_c, 1, 57, 112
3, 16412, Note_off_c, 1, 57, 100
3, 16416, Note_on_c, 1, 59, 112
3, 16480, Note_off_c, 1, 59, 100
3, 16512, Note_on_c, 1, 61, 112
3, 16604, Note_off_c, 1, 61, 100
3, 16608, Note_on_c, 1, 57, 112
3, 16672, Note_off_c, 1, 57, 100
3, 16704, Note_on_c, 1, 52, 112
3, 16796, Note_off_c, 1, 52, 100
3, 16800, Note_on_c, 1, 54, 112
3, 16864, Note_off_c, 1, 54, 100
3, 16896, Note_on_c, 1, 55, 112
3, 16988, Note_off_c, 1, 55, 100
3, 16992, Note_on_c, 1, 52, 112
3, 17056, Note_off_c, 1, 52, 100
3, 17088, Note_on_c, 1, 49, 112
3, 17180, Note_off_c, 1, 49, 100
3, 17184, Note_on_c, 1, 50, 112
3, 17248, Note_off_c, 1, 50, 100
3, 17280, Note_on_c, 1, 54, 112
3, 17372, Note_off_c, 1, 54, 100
3, 17376, Note_on_c, 1, 57, 112
3, 17440, Note_off_c, 1, 57, 100
3, 17472, Note_on_c, 1, 50, 112
3, 17564, Note_off_c, 1, 50, 100
3, 17568, Note_on_c, 1, 52, 112
3, 17632, Note_off_c, 1, 52, 100
3, 17664, Note_on_c, 1, 54, 112
3, 17756, Note_off_c, 1, 54, 100
3, 17760, Note_on_c, 1, 50, 112
3, 17824, Note_off_c, 1, 50, 100
3, 17856, Note_on_c, 1, 54, 112
3, 17948, Note_off_c, 1, 54, 100
3, 17952, Note_on_c, 1, 57, 112
3, 18016, Note_off_c, 1, 57, 100
3, 18048, Note_on_c, 1, 62, 112
3, 18304, Note_off_c, 1, 62, 100
3, 18432, Note_on_c, 1, 62, 112
3, 18492, Note_off_c, 1, 62, 100
3, 18624, Note_on_c, 1, 57, 112
3, 18684, Note_off_c, 1, 57, 100
3, 18816, Note_on_c, 1, 54, 112
3, 18876, Note_off_c, 1, 54, 100
3, 19008, Note_on_c, 1, 50, 112
3, 19068, Note_off_c, 1, 50, 100
3, 19296, Note_on_c, 1, 60, 112
3, 19388, Note_off_c, 1, 60, 100
3, 19392, Note_on_c, 1, 59, 112
3, 19484, Note_off_c, 1, 59, 100
3, 19488, Note_on_c, 1, 57, 112
3, 19580, Note_off_c, 1, 57, 100
3, 19584, Note_on_c, 1, 55, 112
3, 19644, Note_off_c, 1, 55, 100
3, 19776, Note_on_c, 1, 50, 112
3, 19836, Note_off_c, 1, 50, 100
3, 19968, Note_on_c, 1, 47, 112
3, 20028, Note_off_c, 1, 47, 100
3, 20160, Note_on_c, 1, 43, 112
3, 20220, Note_off_c, 1, 43, 100
3, 20448, Note_on_c, 1, 53, 112
3, 20540, Note_off_c, 1, 53, 100
3, 20544, Note_on_c, 1, 52, 112
3, 20636, Note_off_c, 1, 52, 100
3, 20640, Note_on_c, 1, 50, 112
3, 20732, Note_off_c, 1, 50, 100
3, 20736, Note_on_c, 1, 48, 112
3, 20800, Note_off_c, 1, 48, 100
3, 20832, Note_on_c, 1, 52, 112
3, 20896, Note_off_c, 1, 52, 100
3, 20928, Note_on_c, 1, 57, 112
3, 21020, Note_off_c, 1, 57, 100
3, 21024, Note_on_c, 1, 55, 112
3, 21088, Note_off_c, 1, 55, 100
3, 21120, Note_on_c, 1, 54, 112
3, 21212, Note_off_c, 1, 54, 100
3, 21216, Note_on_c, 1, 57, 112
3, 21280, Note_off_c, 1, 57, 100
3, 21312, Note_on_c, 1, 60, 112
3, 21404, Note_off_c, 1, 60, 100
3, 21408, Note_on_c, 1, 59, 112
3, 21472, Note_off_c, 1, 59, 100
3, 21504, Note_on_c, 1, 57, 112
3, 21596, Note_off_c, 1, 57, 100
3, 21600, Note_on_c, 1, 60, 112
3, 21664, Note_off_c, 1, 60, 100
3, 21696, Note_on_c, 1, 63, 112
3, 21788, Note_off_c, 1, 63, 100
3, 21792, Note_on_c, 1, 60, 112
3, 21856, Note_off_c, 1, 60, 100
3, 21888, Note_on_c, 1, 59, 112
3, 21980, Note_off_c, 1, 59, 100
3, 21984, Note_on_c, 1, 63, 112
3, 22048, Note_off_c, 1, 63, 100
3, 22080, Note_on_c, 1, 66, 112
3, 22172, Note_off_c, 1, 66, 100
3, 22176, Note_on_c, 1, 64, 112
3, 22240, Note_off_c, 1, 64, 100
3, 22272, Note_on_c, 1, 63, 112
3, 22364, Note_off_c, 1, 63, 100
3, 22368, Note_on_c, 1, 66, 112
3, 22432, Note_off_c, 1, 66, 100
3, 22464, Note_on_c, 1, 69, 112
3, 22556, Note_off_c, 1, 69, 100
3, 22560, Note_on_c, 1, 67, 112
3, 22624, Note_off_c, 1, 67, 100
3, 22656, Note_on_c, 1, 66, 112
3, 22748, Note_off_c, 1, 66, 100
3, 22752, Note_on_c, 1, 69, 112
3, 22816, Note_off_c, 1, 69, 100
3, 22848, Note_on_c, 1, 72, 112
3, 22940, Note_off_c, 1, 72, 100
3, 23040, Note_on_c, 1, 71, 112
3, 23132, Note_off_c, 1, 71, 100
3, 23136, Note_on_c, 1, 67, 112
3, 23200, Note_off_c, 1, 67, 100
3, 23232, Note_on_c, 1, 64, 112
3, 23324, Note_off_c, 1, 64, 100
3, 23328, Note_on_c, 1, 66, 112
3, 23392, Note_off_c, 1, 66, 100
3, 23424, Note_on_c, 1, 67, 112
3, 23516, Note_off_c, 1, 67, 100
3, 23520, Note_on_c, 1, 64, 112
3, 23584, Note_off_c, 1, 64, 100
3, 23616, Note_on_c, 1, 59, 112
3, 23708, Note_off_c, 1, 59, 100
3, 23712, Note_on_c, 1, 63, 112
3, 23776, Note_off_c, 1, 63, 100
3, 23808, Note_on_c, 1, 64, 112
3, 23900, Note_off_c, 1, 64, 100
3, 23904, Note_on_c, 1, 59, 112
3, 23968, Note_off_c, 1, 59, 100
3, 24000, Note_on_c, 1, 55, 112
3, 24092, Note_off_c, 1, 55, 100
3, 24096, Note_on_c, 1, 59, 112
3, 24160, Note_off_c, 1, 59, 100
3, 24192, Note_on_c, 1, 60, 112
3, 24284, Note_off_c, 1, 60, 100
3, 24288, Note_on_c, 1, 57, 112
3, 24352, Note_off_c, 1, 57, 100
3, 24384, Note_on_c, 1, 52, 112
3, 24476, Note_off_c, 1, 52, 100
3, 24480, Note_on_c, 1, 56, 112
3, 24544, Note_off_c, 1, 56, 100
3, 24576, Note_on_c, 1, 57, 112
3, 24668, Note_off_c, 1, 57, 100
3, 24672, Note_on_c, 1, 52, 112
3, 24736, Note_off_c, 1, 52, 100
3, 24768, Note_on_c, 1, 48, 112
3, 24860, Note_off_c, 1, 48, 100
3, 24864, Note_on_c, 1, 50, 112
3, 24928, Note_off_c, 1, 50, 100
3, 24960, Note_on_c, 1, 52, 112
3, 25052, Note_off_c, 1, 52, 100
3, 25056, Note_on_c, 1, 48, 112
3, 25120, Note_off_c, 1, 48, 100
3, 25152, Note_on_c, 1, 45, 112
3, 25244, Note_off_c, 1, 45, 100
3, 25248, Note_on_c, 1, 48, 112
3, 25312, Note_off_c, 1, 48, 100
3, 25344, Note_on_c, 1, 39, 112
3, 25404, Note_off_c, 1, 39, 100
3, 25536, Note_on_c, 1, 51, 112
3, 25596, Note_off_c, 1, 51, 100
3, 25728, Note_on_c, 1, 52, 112
3, 25788, Note_off_c, 1, 52, 100
3, 25920, Note_on_c, 1, 48, 112
3, 25980, Note_off_c, 1, 48, 100
3, 26112, Note_on_c, 1, 45, 112
3, 26172, Note_off_c, 1, 45, 100
3, 26304, Note_on_c, 1, 47, 112
3, 26364, Note_off_c, 1, 47, 100
3, 26496, Note_on_c, 1, 40, 112
3, 26556, Note_off_c, 1, 40, 100
3, 26688, Note_on_c, 1, 43, 112
3, 26748, Note_off_c, 1, 43, 100
3, 26880, Note_on_c, 1, 47, 112
3, 26940, Note_off_c, 1, 47, 100
3, 27072, Note_on_c, 1, 52, 112
3, 27132, Note_off_c, 1, 52, 100
3, 27360, Note_on_c, 1, 50, 112
3, 27452, Note_off_c, 1, 50, 100
3, 27456, Note_on_c, 1, 48, 112
3, 27548, Note_off_c, 1, 48, 100
3, 27552, Note_on_c, 1, 47, 112
3, 27644, Note_off_c, 1, 47, 100
3, 27648, Note_on_c, 1, 48, 112
3, 27712, Note_off_c, 1, 48, 100
3, 27744, Note_on_c, 1, 52, 112
3, 27808, Note_off_c, 1, 52, 100
3, 27840, Note_on_c, 1, 55, 112
3, 27932, Note_off_c, 1, 55, 100
3, 27936, Note_on_c, 1, 53, 112
3, 28000, Note_off_c, 1, 53, 100
3, 28032, Note_on_c, 1, 52, 112
3, 28124, Note_off_c, 1, 52, 100
3, 28128, Note_on_c, 1, 55, 112
3, 28192, Note_off_c, 1, 55, 100
3, 28224, Note_on_c, 1, 60, 112
3, 28316, Note_off_c, 1, 60, 100
3, 28320, Note_on_c, 1, 59, 112
3, 28384, Note_off_c, 1, 59, 100
3, 28416, Note_on_c, 1, 58, 112
3, 28508, Note_off_c, 1, 58, 100
3, 28512, Note_on_c, 1, 61, 112
3, 28576, Note_off_c, 1, 61, 100
3, 28608, Note_on_c, 1, 66, 112
3, 28636, Note_off_c, 1, 66, 100
3, 28800, Note_on_c, 1, 47, 112
3, 28892, Note_off_c, 1, 47, 100
3, 28896, Note_on_c, 1, 50, 112
3, 28960, Note_off_c, 1, 50, 100
3, 28992, Note_on_c, 1, 54, 112
3, 29084, Note_off_c, 1, 54, 100
3, 29088, Note_on_c, 1, 52, 112
3, 29152, Note_off_c, 1, 52, 100
3, 29184, Note_on_c, 1, 50, 112
3, 29276, Note_off_c, 1, 50, 100
3, 29280, Note_on_c, 1, 54, 112
3, 29344, Note_off_c, 1, 54, 100
3, 29376, Note_on_c, 1, 59, 112
3, 29468, Note_off_c, 1, 59, 100
3, 29472, Note_on_c, 1, 57, 112
3, 29536, Note_off_c, 1, 57, 100
3, 29568, Note_on_c, 1, 56, 112
3, 29660, Note_off_c, 1, 56, 100
3, 29664, Note_on_c, 1, 59, 112
3, 29728, Note_off_c, 1, 59, 100
3, 29760, Note_on_c, 1, 64, 112
3, 29788, Note_off_c, 1, 64, 100
3, 29952, Note_on_c, 1, 45, 112
3, 30044, Note_off_c, 1, 45, 100
3, 30048, Note_on_c, 1, 48, 112
3, 30112, Note_off_c, 1, 48, 100
3, 30144, Note_on_c, 1, 52, 112
3, 30236, Note_off_c, 1, 52, 100
3, 30240, Note_on_c, 1, 50, 112
3, 30304, Note_off_c, 1, 50, 100
3, 30336, Note_on_c, 1, 48, 112
3, 30428, Note_off_c, 1, 48, 100
3, 30432, Note_on_c, 1, 45, 112
3, 30496, Note_off_c, 1, 45, 100
3, 30528, Note_on_c, 1, 48, 112
3, 30620, Note_off_c, 1, 48, 100
3, 30624, Note_on_c, 1, 52, 112
3, 30688, Note_off_c, 1, 52, 100
3, 30720, Note_on_c, 1, 57, 112
3, 30812, Note_off_c, 1, 57, 100
3, 30816, Note_on_c, 1, 60, 112
3, 30880, Note_off_c, 1, 60, 100
3, 30912, Note_on_c, 1, 54, 112
3, 31004, Note_off_c, 1, 54, 100
3, 31008, Note_on_c, 1, 55, 112
3, 31072, Note_off_c, 1, 55, 100
3, 31104, Note_on_c, 1, 57, 112
3, 31196, Note_off_c, 1, 57, 100
3, 31200, Note_on_c, 1, 54, 112
3, 31264, Note_off_c, 1, 54, 100
3, 31296, Note_on_c, 1, 50, 112
3, 31388, Note_off_c, 1, 50, 100
3, 31392, Note_on_c, 1, 52, 112
3, 31456, Note_off_c, 1, 52, 100
3, 31488, Note_on_c, 1, 54, 112
3, 31580, Note_off_c, 1, 54, 100
3, 31584, Note_on_c, 1, 50, 112
3, 31648, Note_off_c, 1, 50, 100
3, 31680, Note_on_c, 1, 45, 112
3, 31772, Note_off_c, 1, 45, 100
3, 31776, Note_on_c, 1, 47, 112
3, 31840, Note_off_c, 1, 47, 100
3, 31872, Note_on_c, 1, 48, 112
3, 31964, Note_off_c, 1, 48, 100
3, 31968, Note_on_c, 1, 45, 112
3, 32032, Note_off_c, 1, 45, 100
3, 32064, Note_on_c, 1, 42, 112
3, 32156, Note_off_c, 1, 42, 100
3, 32160, Note_on_c, 1, 38, 112
3, 32224, Note_off_c, 1, 38, 100
3, 32256, Note_on_c, 1, 43, 112
3, 32316, Note_off_c, 1, 43, 100
3, 32448, Note_on_c, 1, 47, 112
3, 32508, Note_off_c, 1, 47, 100
3, 32640, Note_on_c, 1, 50, 112
3, 32700, Note_off_c, 1, 50, 100
3, 32832, Note_on_c, 1, 53, 112
3, 32892, Note_off_c, 1, 53, 100
3, 33120, Note_on_c, 1, 53, 112
3, 33212, Note_off_c, 1, 53, 100
3, 33216, Note_on_c, 1, 52, 112
3, 33308, Note_off_c, 1, 52, 100
3, 33312, Note_on_c, 1, 50, 112
3, 33404, Note_off_c, 1, 50, 100
3, 33408, Note_on_c, 1, 48, 112
3, 33468, Note_off_c, 1, 48, 100
3, 33600, Note_on_c, 1, 52, 112
3, 33660, Note_off_c, 1, 52, 100
3, 33792, Note_on_c, 1, 55, 112
3, 33852, Note_off_c, 1, 55, 100
3, 33984, Note_on_c, 1, 60, 112
3, 34044, Note_off_c, 1, 60, 100
3, 34272, Note_on_c, 1, 60, 112
3, 34364, Note_off_c, 1, 60, 100
3, 34368, Note_on_c, 1, 59, 112
3, 34460, Note_off_c, 1, 59, 100
3, 34464, Note_on_c, 1, 60, 112
3, 34556, Note_off_c, 1, 60, 100
3, 34560, Note_on_c, 1, 50, 112
3, 34620, Note_off_c, 1, 50, 100
3, 34752, Note_on_c, 1, 54, 112
3, 34812, Note_off_c, 1, 54, 100
3, 34944, Note_on_c, 1, 57, 112
3, 35004, Note_off_c, 1, 57, 100
3, 35136, Note_on_c, 1, 60, 112
3, 35196, Note_off_c, 1, 60, 100
3, 35424, Note_on_c, 1, 60, 112
3, 35516, Note_off_c, 1, 60, 100
3, 35520, Note_on_c, 1, 60, 112
3, 35612, Note_off_c, 1, 60, 100
3, 35616, Note_on_c, 1, 54, 112
3, 35708, Note_off_c, 1, 54, 100
3, 35712, Note_on_c, 1, 55, 112
3, 35776, Note_off_c, 1, 55, 100
3, 35808, Note_on_c, 1, 59, 112
3, 35900, Note_off_c, 1, 59, 100
3, 35904, Note_on_c, 1, 62, 112
3, 35996, Note_off_c, 1, 62, 100
3, 36000, Note_on_c, 1, 66, 112
3, 36064, Note_off_c, 1, 66, 100
3, 36096, Note_on_c, 1, 67, 112
3, 36188, Note_off_c, 1, 67, 100
3, 36192, Note_on_c, 1, 66, 112
3, 36236, Note_off_c, 1, 66, 100
3, 36240, Note_on_c, 1, 64, 112
3, 36284, Note_off_c, 1, 64, 100
3, 36288, Note_on_c, 1, 62, 112
3, 36332, Note_off_c, 1, 62, 100
3, 36336, Note_on_c, 1, 60, 112
3, 36380, Note_off_c, 1, 60, 100
3, 36384, Note_on_c, 1, 59, 112
3, 36428, Note_off_c, 1, 59, 100
3, 36432, Note_on_c, 1, 57, 112
3, 36476, Note_off_c, 1, 57, 100
3, 36480, Note_on_c, 1, 55, 112
3, 36736, Note_off_c, 1, 55, 100
3, 36736, End_track
4, 0, Start_track
4, 0, Title_t, "BWV 988"
4, 0, Control_c, 2, 0, 0
4, 0, Program_c, 2, 6
4, 0, Control_c, 2, 7, 0
4, 0, Key_signature, 1, "major"
4, 36480, Note_on_c, 2, 55, 1
4, 36992, Note_off_c, 2, 55, 64
4, 36992, End_track
5, 0, Start_track
5, 0, Title_t, "Var.VIII: Allegro"
5, 0, Control_c, 2, 0, 0
5, 0, Program_c, 2, 6
5, 0, Control_c, 2, 7, 0
5, 0, Key_signature, 1, "major"
5, 0, End_track
6, 0, Start_track
6, 0, Title_t, "Bruno de Giusti"
6, 0, Control_c, 2, 0, 0
6, 0, Program_c, 2, 6
6, 0, Control_c, 2, 7, 0
6, 0, Key_signature, 1, "major"
6, 0, End_track
7, 0, Start_track
7, 0, Title_t, "bdg@bruno-de-giusti.net"
7, 0, Control_c, 2, 0, 0
7, 0, Program_c, 2, 6
7, 0, Control_c, 2, 7, 0
7, 0, Key_signature, 1, "major"
7, 0, End_track
8, 0, Start_track
8, 0, Title_t, "www.bruno-de-giusti.net"
8, 0, Control_c, 2, 0, 0
8, 0, Program_c, 2, 6
8, 0, Control_c, 2, 7, 0
8, 0, Key_signature, 1, "major"
8, 0, End_track
9, 0, Start_track
9, 0, Title_t, "All rights reserved"
9, 0, Control_c, 2, 0, 0
9, 0, Program_c, 2, 6
9, 0, Control_c, 2, 7, 0
9, 0, Key_signature, 1, "major"
9, 0, End_track
10, 0, Start_track
10, 1, Copyright_t, "___________________________________________________\012\012KUNSTDERFUGE.COM LARGE CLASSICAL MIDI COLLECTION\012ONCLASSICAL BY ALESSANDRO SIMONETTO, PROPRIETOR\012___________________________________________________\012\012! Attention: this file is under copyright !\012\012(c)onclassical, (c)degiusti, 2010\012___________________________________________________\012\012NO ONE MAY REPUBLISH THIS FILE WITHOUT PERMISSION\012COMMERCIAL USES OF THIS FILE IS STRICTLY PROHIBITED\012___________________________________________________\012\012Files & contributor's list: http://kunstderfuge.com/\012Terms and conditions: http://kunstderfuge.com/notes.htm"
10, 1, End_track
0, 0, End_of_file