0, 0, Header, 1, 10, 384
1, 0, Start_track
1, 0, Time_signature, 3, 2, 96, 8
1, 0, Sequencer_specific, 03, 00, 00, 41
1, 0, Sequencer_specific, 05, 00, 00, 77, 0E, 00
1, 0, Tempo, 600000
1, 18048, Tempo, 600000
1, 18056, Tempo, 606060
1, 18064, Tempo, 612244
1, 18076, Tempo, 618556
1, 18084, Tempo, 625000
1, 18096, Tempo, 631578
1, 18104, Tempo, 638297
1, 18112, Tempo, 645161
1, 18124, Tempo, 652173
1, 18132, Tempo, 659340
1, 18144, Tempo, 666666
1, 18152, Tempo, 674157
1, 18160, Tempo, 681818
1, 18172, Tempo, 689655
1, 18180, Tempo, 697674
1, 18192, Tempo, 705882
1, 18200, Tempo, 714285
1, 18208, Tempo, 722891
1, 18220, Tempo, 731707
1, 18228, Tempo, 740740
1, 18240, Tempo, 750000
1, 18432, Tempo, 600000
1, 36352, Tempo, 600000
1, 36416, Tempo, 606060
1, 36420, Tempo, 612244
1, 36424, Tempo, 618556
1, 36428, Tempo, 625000
1, 36432, Tempo, 638297
1, 36436, Tempo, 645161
1, 36440, Tempo, 652173
1, 36444, Tempo, 659340
1, 36448, Tempo, 674157
1, 36452, Tempo, 681818
1, 36456, Tempo, 689655
1, 36460, Tempo, 697674
1, 36464, Tempo, 714285
1, 36468, Tempo, 722891
1, 36472, Tempo, 731707
1, 36476, Tempo, 740740
1, 36480, Tempo, 750000
1, 36488, Tempo, 759493
1, 36496, Tempo, 769230
1, 36508, Tempo, 779220
1, 36516, Tempo, 789473
1, 36528, Tempo, 800000
1, 36536, Tempo, 810810
1, 36544, Tempo, 821917
1, 36556, Tempo, 833333
1, 36564, Tempo, 845070
1, 36576, Tempo, 857142
1, 36864, Tempo, 600000
1, 54912, Tempo, 600000
1, 54916, Tempo, 606060
1, 54920, Tempo, 612244
1, 54924, Tempo, 618556
1, 54928, Tempo, 625000
1, 54936, Tempo, 631578
1, 54940, Tempo, 638297
1, 54944, Tempo, 645161
1, 54948, Tempo, 652173
1, 54952, Tempo, 659340
1, 54960, Tempo, 666666
1, 54964, Tempo, 674157
1, 54968, Tempo, 681818
1, 54972, Tempo, 689655
1, 54976, Tempo, 697674
1, 54984, Tempo, 705882
1, 54988, Tempo, 714285
1, 54992, Tempo, 722891
1, 54996, Tempo, 731707
1, 55000, Tempo, 740740
1, 55008, Tempo, 750000
1, 55296, Tempo, 600000
1, 72768, Tempo, 600000
1, 72784, Tempo, 606060
1, 72804, Tempo, 612244
1, 72824, Tempo, 618556
1, 72844, Tempo, 625000
1, 72864, Tempo, 631578
1, 72880, Tempo, 638297
1, 72900, Tempo, 645161
1, 72920, Tempo, 652173
1, 72940, Tempo, 659340
1, 72960, Tempo, 750000
1, 72972, Tempo, 740740
1, 72988, Tempo, 731707
1, 73000, Tempo, 722891
1, 73016, Tempo, 714285
1, 73032, Tempo, 705882
1, 73044, Tempo, 697674
1, 73060, Tempo, 689655
1, 73072, Tempo, 681818
1, 73088, Tempo, 674157
1, 73104, Tempo, 666666
1, 73116, Tempo, 659340
1, 73132, Tempo, 652173
1, 73144, Tempo, 645161
1, 73160, Tempo, 638297
1, 73176, Tempo, 631578
1, 73188, Tempo, 625000
1, 73204, Tempo, 618556
1, 73216, Tempo, 612244
1, 73232, Tempo, 606060
1, 73248, Tempo, 600000
1, 73252, Tempo, 638297
1, 73260, Tempo, 645161
1, 73264, Tempo, 652173
1, 73272, Tempo, 659340
1, 73280, Tempo, 606060
1, 73284, Tempo, 618556
1, 73288, Tempo, 631578
1, 73292, Tempo, 645161
1, 73296, Tempo, 659340
1, 73300, Tempo, 674157
1, 73304, Tempo, 689655
1, 73308, Tempo, 697674
1, 73312, Tempo, 714285
1, 73316, Tempo, 731707
1, 73320, Tempo, 750000
1, 73324, Tempo, 769230
1, 73328, Tempo, 789473
1, 73332, Tempo, 810810
1, 73336, Tempo, 833333
1, 73340, Tempo, 845070
1, 73344, Tempo, 857142
1, 73344, End_track
2, 0, Start_track
2, 0, Title_t, "Johann Sebastian Bach"
2, 0, Control_c, 0, 0, 0
2, 0, Program_c, 0, 6
2, 0, Control_c, 0, 7, 127
2, 0, Control_c, 0, 10, 42
2, 0, Control_c, 0, 91, 127
2, 0, Key_signature, 1, "major"
2, 96, Note_on_c, 0, 71, 127
2, 188, Note_off_c, 0, 71, 100
2, 288, Note_on_c, 0, 67, 127
2, 380, Note_off_c, 0, 67, 100
2, 480, Note_on_c, 0, 62, 127
2, 572, Note_off_c, 0, 62, 100
2, 672, Note_on_c, 0, 59, 127
2, 764, Note_off_c, 0, 59, 100
2, 864, Note_on_c, 0, 55, 127
2, 956, Note_off_c, 0, 55, 100
2, 960, Note_on_c, 0, 54, 127
2, 1052, Note_off_c, 0, 54, 100
2, 1056, Note_on_c, 0, 52, 127
2, 1148, Note_off_c, 0, 52, 100
2, 1152, Note_on_c, 0, 54, 127
2, 1212, Note_off_c, 0, 54, 100
2, 1344, Note_on_c, 0, 57, 127
2, 1404, Note_off_c, 0, 57, 100
2, 1536, Note_on_c, 0, 62, 127
2, 1596, Note_off_c, 0, 62, 100
2, 1728, Note_on_c, 0, 66, 127
2, 1788, Note_off_c, 0, 66, 100
2, 1920, Note_on_c, 0, 69, 127
2, 1980, Note_off_c, 0, 69, 100
2, 2112, Note_on_c, 0, 74, 127
2, 2172, Note_off_c, 0, 74, 100
2, 2400, Note_on_c, 0, 67, 127
2, 2492, Note_off_c, 0, 67, 100
2, 2592, Note_on_c, 0, 64, 127
2, 2684, Note_off_c, 0, 64, 100
2, 2784, Note_on_c, 0, 61, 127
2, 2876, Note_off_c, 0, 61, 100
2, 2976, Note_on_c, 0, 57, 127
2, 3068, Note_off_c, 0, 57, 100
2, 3168, Note_on_c, 0, 55, 127
2, 3260, Note_off_c, 0, 55, 100
2, 3264, Note_on_c, 0, 54, 127
2, 3356, Note_off_c, 0, 54, 100
2, 3360, Note_on_c, 0, 52, 127
2, 3452, Note_off_c, 0, 52, 100
2, 3456, Note_on_c, 0, 50, 127
2, 3516, Note_off_c, 0, 50, 100
2, 3648, Note_on_c, 0, 54, 127
2, 3708, Note_off_c, 0, 54, 100
2, 3840, Note_on_c, 0, 57, 127
2, 3900, Note_off_c, 0, 57, 100
2, 4032, Note_on_c, 0, 62, 127
2, 4092, Note_off_c, 0, 62, 100
2, 4224, Note_on_c, 0, 66, 127
2, 4284, Note_off_c, 0, 66, 100
2, 4416, Note_on_c, 0, 69, 127
2, 4476, Note_off_c, 0, 69, 100
2, 4704, Note_on_c, 0, 67, 127
2, 4796, Note_off_c, 0, 67, 100
2, 4896, Note_on_c, 0, 62, 127
2, 4988, Note_off_c, 0, 62, 100
2, 5088, Note_on_c, 0, 59, 127
2, 5180, Note_off_c, 0, 59, 100
2, 5280, Note_on_c, 0, 55, 127
2, 5372, Note_off_c, 0, 55, 100
2, 5472, Note_on_c, 0, 53, 127
2, 5564, Note_off_c, 0, 53, 100
2, 5568, Note_on_c, 0, 52, 127
2, 5660, Note_off_c, 0, 52, 100
2, 5664, Note_on_c, 0, 50, 127
2, 5756, Note_off_c, 0, 50, 100
2, 5760, Note_on_c, 0, 48, 127
2, 5820, Note_off_c, 0, 48, 100
2, 5952, Note_on_c, 0, 52, 127
2, 6012, Note_off_c, 0, 52, 100
2, 6144, Note_on_c, 0, 55, 127
2, 6204, Note_off_c, 0, 55, 100
2, 6336, Note_on_c, 0, 60, 127
2, 6396, Note_off_c, 0, 60, 100
2, 6528, Note_on_c, 0, 64, 127
2, 6588, Note_off_c, 0, 64, 100
2, 6720, Note_on_c, 0, 67, 127
2, 6780, Note_off_c, 0, 67, 100
2, 7008, Note_on_c, 0, 66, 127
2, 7100, Note_off_c, 0, 66, 100
2, 7200, Note_on_c, 0, 62, 127
2, 7292, Note_off_c, 0, 62, 100
2, 7392, Note_on_c, 0, 57, 127
2, 7484, Note_off_c, 0, 57, 100
2, 7584, Note_on_c, 0, 54, 127
2, 7676, Note_off_c, 0, 54, 100
2, 7776, Note_on_c, 0, 50, 127
2, 7868, Note_off_c, 0, 50, 100
2, 7872, Note_on_c, 0, 48, 127
2, 7964, Note_off_c, 0, 48, 100
2, 7968, Note_on_c, 0, 50, 127
2, 8060, Note_off_c, 0, 50, 100
2, 8064, Note_on_c, 0, 43, 127
2, 8124, Note_off_c, 0, 43, 100
2, 8256, Note_on_c, 0, 47, 127
2, 8316, Note_off_c, 0, 47, 100
2, 8448, Note_on_c, 0, 50, 127
2, 8508, Note_off_c, 0, 50, 100
2, 8640, Note_on_c, 0, 55, 127
2, 8700, Note_off_c, 0, 55, 100
2, 8832, Note_on_c, 0, 54, 127
2, 8892, Note_off_c, 0, 54, 100
2, 9024, Note_on_c, 0, 60, 127
2, 9084, Note_off_c, 0, 60, 100
2, 9216, Note_on_c, 0, 59, 127
2, 9276, Note_off_c, 0, 59, 100
2, 9280, Note_on_c, 0, 57, 127
2, 9340, Note_off_c, 0, 57, 100
2, 9344, Note_on_c, 0, 59, 127
2, 9404, Note_off_c, 0, 59, 100
2, 9408, Note_on_c, 0, 60, 127
2, 9468, Note_off_c, 0, 60, 100
2, 9472, Note_on_c, 0, 59, 127
2, 9532, Note_off_c, 0, 59, 100
2, 9536, Note_on_c, 0, 60, 127
2, 9596, Note_off_c, 0, 60, 100
2, 9600, Note_on_c, 0, 62, 127
2, 9660, Note_off_c, 0, 62, 100
2, 9664, Note_on_c, 0, 60, 127
2, 9724, Note_off_c, 0, 60, 100
2, 9728, Note_on_c, 0, 62, 127
2, 9788, Note_off_c, 0, 62, 100
2, 9792, Note_on_c, 0, 64, 127
2, 9852, Note_off_c, 0, 64, 100
2, 9856, Note_on_c, 0, 62, 127
2, 9916, Note_off_c, 0, 62, 100
2, 9920, Note_on_c, 0, 64, 127
2, 9980, Note_off_c, 0, 64, 100
2, 9984, Note_on_c, 0, 66, 127
2, 10044, Note_off_c, 0, 66, 100
2, 10048, Note_on_c, 0, 64, 127
2, 10108, Note_off_c, 0, 64, 100
2, 10112, Note_on_c, 0, 66, 127
2, 10172, Note_off_c, 0, 66, 100
2, 10176, Note_on_c, 0, 67, 127
2, 10236, Note_off_c, 0, 67, 100
2, 10240, Note_on_c, 0, 66, 127
2, 10300, Note_off_c, 0, 66, 100
2, 10304, Note_on_c, 0, 67, 127
2, 10364, Note_off_c, 0, 67, 100
2, 10368, Note_on_c, 0, 69, 127
2, 10428, Note_off_c, 0, 69, 100
2, 10432, Note_on_c, 0, 67, 127
2, 10492, Note_off_c, 0, 67, 100
2, 10496, Note_on_c, 0, 69, 127
2, 10556, Note_off_c, 0, 69, 100
2, 10560, Note_on_c, 0, 71, 127
2, 10620, Note_off_c, 0, 71, 100
2, 10624, Note_on_c, 0, 69, 127
2, 10684, Note_off_c, 0, 69, 100
2, 10688, Note_on_c, 0, 71, 127
2, 10748, Note_off_c, 0, 71, 100
2, 10752, Note_on_c, 0, 73, 127
2, 10812, Note_off_c, 0, 73, 100
2, 10816, Note_on_c, 0, 71, 127
2, 10876, Note_off_c, 0, 71, 100
2, 10880, Note_on_c, 0, 73, 127
2, 10940, Note_off_c, 0, 73, 100
2, 10944, Note_on_c, 0, 74, 127
2, 11004, Note_off_c, 0, 74, 100
2, 11008, Note_on_c, 0, 73, 127
2, 11068, Note_off_c, 0, 73, 100
2, 11072, Note_on_c, 0, 74, 127
2, 11132, Note_off_c, 0, 74, 100
2, 11136, Note_on_c, 0, 76, 127
2, 11196, Note_off_c, 0, 76, 100
2, 11200, Note_on_c, 0, 74, 127
2, 11260, Note_off_c, 0, 74, 100
2, 11264, Note_on_c, 0, 76, 127
2, 11324, Note_off_c, 0, 76, 100
2, 11328, Note_on_c, 0, 78, 127
2, 11388, Note_off_c, 0, 78, 100
2, 11392, Note_on_c, 0, 76, 127
2, 11452, Note_off_c, 0, 76, 100
2, 11456, Note_on_c, 0, 78, 127
2, 11516, Note_off_c, 0, 78, 100
2, 11520, Note_on_c, 0, 79, 127
2, 11580, Note_off_c, 0, 79, 100
2, 11904, Note_on_c, 0, 52, 127
2, 11948, Note_off_c, 0, 52, 100
2, 11952, Note_on_c, 0, 50, 127
2, 11996, Note_off_c, 0, 50, 100
2, 12000, Note_on_c, 0, 52, 127
2, 12284, Note_off_c, 0, 52, 100
2, 12480, Note_on_c, 0, 71, 127
2, 12540, Note_off_c, 0, 71, 100
2, 12672, Note_on_c, 0, 79, 127
2, 12732, Note_off_c, 0, 79, 100
2, 13056, Note_on_c, 0, 49, 127
2, 13100, Note_off_c, 0, 49, 100
2, 13104, Note_on_c, 0, 47, 127
2, 13148, Note_off_c, 0, 47, 100
2, 13152, Note_on_c, 0, 49, 127
2, 13436, Note_off_c, 0, 49, 100
2, 13632, Note_on_c, 0, 79, 127
2, 13692, Note_off_c, 0, 79, 100
2, 13824, Note_on_c, 0, 78, 127
2, 13884, Note_off_c, 0, 78, 100
2, 13888, Note_on_c, 0, 81, 127
2, 13948, Note_off_c, 0, 81, 100
2, 13952, Note_on_c, 0, 74, 127
2, 14012, Note_off_c, 0, 74, 100
2, 14016, Note_on_c, 0, 76, 127
2, 14076, Note_off_c, 0, 76, 100
2, 14080, Note_on_c, 0, 79, 127
2, 14140, Note_off_c, 0, 79, 100
2, 14144, Note_on_c, 0, 73, 127
2, 14204, Note_off_c, 0, 73, 100
2, 14208, Note_on_c, 0, 74, 127
2, 14268, Note_off_c, 0, 74, 100
2, 14272, Note_on_c, 0, 78, 127
2, 14332, Note_off_c, 0, 78, 100
2, 14336, Note_on_c, 0, 71, 127
2, 14396, Note_off_c, 0, 71, 100
2, 14400, Note_on_c, 0, 72, 127
2, 14460, Note_off_c, 0, 72, 100
2, 14464, Note_on_c, 0, 76, 127
2, 14524, Note_off_c, 0, 76, 100
2, 14528, Note_on_c, 0, 69, 127
2, 14588, Note_off_c, 0, 69, 100
2, 14592, Note_on_c, 0, 71, 127
2, 14652, Note_off_c, 0, 71, 100
2, 14656, Note_on_c, 0, 74, 127
2, 14716, Note_off_c, 0, 74, 100
2, 14720, Note_on_c, 0, 67, 127
2, 14780, Note_off_c, 0, 67, 100
2, 14784, Note_on_c, 0, 69, 127
2, 14844, Note_off_c, 0, 69, 100
2, 14848, Note_on_c, 0, 72, 127
2, 14908, Note_off_c, 0, 72, 100
2, 14912, Note_on_c, 0, 66, 127
2, 14972, Note_off_c, 0, 66, 100
2, 14976, Note_on_c, 0, 67, 127
2, 15036, Note_off_c, 0, 67, 100
2, 15168, Note_on_c, 0, 55, 127
2, 15228, Note_off_c, 0, 55, 100
2, 15360, Note_on_c, 0, 54, 127
2, 15420, Note_off_c, 0, 54, 100
2, 15552, Note_on_c, 0, 57, 127
2, 15612, Note_off_c, 0, 57, 100
2, 15744, Note_on_c, 0, 50, 127
2, 15804, Note_off_c, 0, 50, 100
2, 15936, Note_on_c, 0, 62, 127
2, 15996, Note_off_c, 0, 62, 100
2, 16128, Note_on_c, 0, 61, 127
2, 16188, Note_off_c, 0, 61, 100
2, 16192, Note_on_c, 0, 57, 127
2, 16252, Note_off_c, 0, 57, 100
2, 16256, Note_on_c, 0, 59, 127
2, 16316, Note_off_c, 0, 59, 100
2, 16320, Note_on_c, 0, 61, 127
2, 16380, Note_off_c, 0, 61, 100
2, 16384, Note_on_c, 0, 62, 127
2, 16444, Note_off_c, 0, 62, 100
2, 16448, Note_on_c, 0, 64, 127
2, 16508, Note_off_c, 0, 64, 100
2, 16512, Note_on_c, 0, 66, 127
2, 16764, Note_off_c, 0, 66, 100
2, 16768, Note_on_c, 0, 64, 127
2, 16828, Note_off_c, 0, 64, 100
2, 16832, Note_on_c, 0, 62, 127
2, 16892, Note_off_c, 0, 62, 100
2, 16960, Note_on_c, 0, 67, 127
2, 17020, Note_off_c, 0, 67, 100
2, 17024, Note_on_c, 0, 66, 127
2, 17084, Note_off_c, 0, 66, 100
2, 17088, Note_on_c, 0, 64, 127
2, 17148, Note_off_c, 0, 64, 100
2, 17152, Note_on_c, 0, 66, 127
2, 17212, Note_off_c, 0, 66, 100
2, 17216, Note_on_c, 0, 67, 127
2, 17276, Note_off_c, 0, 67, 100
2, 17280, Note_on_c, 0, 66, 127
2, 17468, Note_off_c, 0, 66, 100
2, 17728, Note_on_c, 0, 66, 127
2, 17788, Note_off_c, 0, 66, 100
2, 17792, Note_on_c, 0, 69, 127
2, 17852, Note_off_c, 0, 69, 100
2, 17856, Note_on_c, 0, 74, 127
2, 17916, Note_off_c, 0, 74, 100
2, 17920, Note_on_c, 0, 78, 127
2, 17980, Note_off_c, 0, 78, 100
2, 17984, Note_on_c, 0, 81, 127
2, 18044, Note_off_c, 0, 81, 100
2, 18048, Note_on_c, 0, 86, 127
2, 18108, Note_off_c, 0, 86, 100
2, 18528, Note_on_c, 0, 71, 112
2, 18620, Note_off_c, 0, 71, 100
2, 18720, Note_on_c, 0, 67, 112
2, 18812, Note_off_c, 0, 67, 100
2, 18912, Note_on_c, 0, 62, 112
2, 19004, Note_off_c, 0, 62, 100
2, 19104, Note_on_c, 0, 59, 112
2, 19196, Note_off_c, 0, 59, 100
2, 19296, Note_on_c, 0, 55, 112
2, 19388, Note_off_c, 0, 55, 100
2, 19392, Note_on_c, 0, 54, 112
2, 19484, Note_off_c, 0, 54, 100
2, 19488, Note_on_c, 0, 52, 112
2, 19580, Note_off_c, 0, 52, 100
2, 19584, Note_on_c, 0, 54, 112
2, 19644, Note_off_c, 0, 54, 100
2, 19776, Note_on_c, 0, 57, 112
2, 19836, Note_off_c, 0, 57, 100
2, 19968, Note_on_c, 0, 62, 112
2, 20028, Note_off_c, 0, 62, 100
2, 20160, Note_on_c, 0, 66, 112
2, 20220, Note_off_c, 0, 66, 100
2, 20352, Note_on_c, 0, 69, 112
2, 20412, Note_off_c, 0, 69, 100
2, 20544, Note_on_c, 0, 74, 112
2, 20604, Note_off_c, 0, 74, 100
2, 20832, Note_on_c, 0, 67, 112
2, 20924, Note_off_c, 0, 67, 100
2, 21024, Note_on_c, 0, 64, 112
2, 21116, Note_off_c, 0, 64, 100
2, 21216, Note_on_c, 0, 61, 112
2, 21308, Note_off_c, 0, 61, 100
2, 21408, Note_on_c, 0, 57, 112
2, 21500, Note_off_c, 0, 57, 100
2, 21600, Note_on_c, 0, 55, 112
2, 21692, Note_off_c, 0, 55, 100
2, 21696, Note_on_c, 0, 54, 112
2, 21788, Note_off_c, 0, 54, 100
2, 21792, Note_on_c, 0, 52, 112
2, 21884, Note_off_c, 0, 52, 100
2, 21888, Note_on_c, 0, 50, 112
2, 21948, Note_off_c, 0, 50, 100
2, 22080, Note_on_c, 0, 54, 112
2, 22140, Note_off_c, 0, 54, 100
2, 22272, Note_on_c, 0, 57, 112
2, 22332, Note_off_c, 0, 57, 100
2, 22464, Note_on_c, 0, 62, 112
2, 22524, Note_off_c, 0, 62, 100
2, 22656, Note_on_c, 0, 66, 112
2, 22716, Note_off_c, 0, 66, 100
2, 22848, Note_on_c, 0, 69, 112
2, 22908, Note_off_c, 0, 69, 100
2, 23136, Note_on_c, 0, 67, 112
2, 23228, Note_off_c, 0, 67, 100
2, 23328, Note_on_c, 0, 62, 112
2, 23420, Note_off_c, 0, 62, 100
2, 23520, Note_on_c, 0, 59, 112
2, 23612, Note_off_c, 0, 59, 100
2, 23712, Note_on_c, 0, 55, 112
2, 23804, Note_off_c, 0, 55, 100
2, 23904, Note_on_c, 0, 53, 112
2, 23996, Note_off_c, 0, 53, 100
2, 24000, Note_on_c, 0, 52, 112
2, 24092, Note_off_c, 0, 52, 100
2, 24096, Note_on_c, 0, 50, 112
2, 24188, Note_off_c, 0, 50, 100
2, 24192, Note_on_c, 0, 48, 112
2, 24252, Note_off_c, 0, 48, 100
2, 24384, Note_on_c, 0, 52, 112
2, 24444, Note_off_c, 0, 52, 100
2, 24576, Note_on_c, 0, 55, 112
2, 24636, Note_off_c, 0, 55, 100
2, 24768, Note_on_c, 0, 60, 112
2, 24828, Note_off_c, 0, 60, 100
2, 24960, Note_on_c, 0, 64, 112
2, 25020, Note_off_c, 0, 64, 100
2, 25152, Note_on_c, 0, 67, 112
2, 25212, Note_off_c, 0, 67, 100
2, 25440, Note_on_c, 0, 66, 112
2, 25532, Note_off_c, 0, 66, 100
2, 25632, Note_on_c, 0, 62, 112
2, 25724, Note_off_c, 0, 62, 100
2, 25824, Note_on_c, 0, 57, 112
2, 25916, Note_off_c, 0, 57, 100
2, 26016, Note_on_c, 0, 54, 112
2, 26108, Note_off_c, 0, 54, 100
2, 26208, Note_on_c, 0, 50, 112
2, 26300, Note_off_c, 0, 50, 100
2, 26304, Note_on_c, 0, 48, 112
2, 26396, Note_off_c, 0, 48, 100
2, 26400, Note_on_c, 0, 50, 112
2, 26492, Note_off_c, 0, 50, 100
2, 26496, Note_on_c, 0, 43, 112
2, 26556, Note_off_c, 0, 43, 100
2, 26688, Note_on_c, 0, 47, 112
2, 26748, Note_off_c, 0, 47, 100
2, 26880, Note_on_c, 0, 50, 112
2, 26940, Note_off_c, 0, 50, 100
2, 27072, Note_on_c, 0, 55, 112
2, 27132, Note_off_c, 0, 55, 100
2, 27264, Note_on_c, 0, 54, 112
2, 27324, Note_off_c, 0, 54, 100
2, 27456, Note_on_c, 0, 60, 112
2, 27516, Note_off_c, 0, 60, 100
2, 27648, Note_on_c, 0, 59, 112
2, 27708, Note_off_c, 0, 59, 100
2, 27712, Note_on_c, 0, 57, 112
2, 27772, Note_off_c, 0, 57, 100
2, 27776, Note_on_c, 0, 59, 112
2, 27836, Note_off_c, 0, 59, 100
2, 27840, Note_on_c, 0, 60, 112
2, 27900, Note_off_c, 0, 60, 100
2, 27904, Note_on_c, 0, 59, 112
2, 27964, Note_off_c, 0, 59, 100
2, 27968, Note_on_c, 0, 60, 112
2, 28028, Note_off_c, 0, 60, 100
2, 28032, Note_on_c, 0, 62, 112
2, 28092, Note_off_c, 0, 62, 100
2, 28096, Note_on_c, 0, 60, 112
2, 28156, Note_off_c, 0, 60, 100
2, 28160, Note_on_c, 0, 62, 112
2, 28220, Note_off_c, 0, 62, 100
2, 28224, Note_on_c, 0, 64, 112
2, 28284, Note_off_c, 0, 64, 100
2, 28288, Note_on_c, 0, 62, 112
2, 28348, Note_off_c, 0, 62, 100
2, 28352, Note_on_c, 0, 64, 112
2, 28412, Note_off_c, 0, 64, 100
2, 28416, Note_on_c, 0, 66, 112
2, 28476, Note_off_c, 0, 66, 100
2, 28480, Note_on_c, 0, 64, 112
2, 28540, Note_off_c, 0, 64, 100
2, 28544, Note_on_c, 0, 66, 112
2, 28604, Note_off_c, 0, 66, 100
2, 28608, Note_on_c, 0, 67, 112
2, 28668, Note_off_c, 0, 67, 100
2, 28672, Note_on_c, 0, 66, 112
2, 28732, Note_off_c, 0, 66, 100
2, 28736, Note_on_c, 0, 67, 112
2, 28796, Note_off_c, 0, 67, 100
2, 28800, Note_on_c, 0, 69, 112
2, 28860, Note_off_c, 0, 69, 100
2, 28864, Note_on_c, 0, 67, 112
2, 28924, Note_off_c, 0, 67, 100
2, 28928, Note_on_c, 0, 69, 112
2, 28988, Note_off_c, 0, 69, 100
2, 28992, Note_on_c, 0, 71, 112
2, 29052, Note_off_c, 0, 71, 100
2, 29056, Note_on_c, 0, 69, 112
2, 29116, Note_off_c, 0, 69, 100
2, 29120, Note_on_c, 0, 71, 112
2, 29180, Note_off_c, 0, 71, 100
2, 29184, Note_on_c, 0, 73, 112
2, 29244, Note_off_c, 0, 73, 100
2, 29248, Note_on_c, 0, 71, 112
2, 29308, Note_off_c, 0, 71, 100
2, 29312, Note_on_c, 0, 73, 112
2, 29372, Note_off_c, 0, 73, 100
2, 29376, Note_on_c, 0, 74, 112
2, 29436, Note_off_c, 0, 74, 100
2, 29440, Note_on_c, 0, 73, 112
2, 29500, Note_off_c, 0, 73, 100
2, 29504, Note_on_c, 0, 74, 112
2, 29564, Note_off_c, 0, 74, 100
2, 29568, Note_on_c, 0, 76, 112
2, 29628, Note_off_c, 0, 76, 100
2, 29632, Note_on_c, 0, 74, 112
2, 29692, Note_off_c, 0, 74, 100
2, 29696, Note_on_c, 0, 76, 112
2, 29756, Note_off_c, 0, 76, 100
2, 29760, Note_on_c, 0, 78, 112
2, 29820, Note_off_c, 0, 78, 100
2, 29824, Note_on_c, 0, 76, 112
2, 29884, Note_off_c, 0, 76, 100
2, 29888, Note_on_c, 0, 78, 112
2, 29948, Note_off_c, 0, 78, 100
2, 29952, Note_on_c, 0, 79, 112
2, 30012, Note_off_c, 0, 79, 100
2, 30336, Note_on_c, 0, 52, 112
2, 30380, Note_off_c, 0, 52, 100
2, 30384, Note_on_c, 0, 50, 112
2, 30428, Note_off_c, 0, 50, 100
2, 30432, Note_on_c, 0, 52, 112
2, 30716, Note_off_c, 0, 52, 100
2, 30912, Note_on_c, 0, 71, 112
2, 30972, Note_off_c, 0, 71, 100
2, 31104, Note_on_c, 0, 79, 112
2, 31164, Note_off_c, 0, 79, 100
2, 31488, Note_on_c, 0, 49, 112
2, 31532, Note_off_c, 0, 49, 100
2, 31536, Note_on_c, 0, 47, 112
2, 31580, Note_off_c, 0, 47, 100
2, 31584, Note_on_c, 0, 49, 112
2, 31868, Note_off_c, 0, 49, 100
2, 32064, Note_on_c, 0, 79, 112
2, 32124, Note_off_c, 0, 79, 100
2, 32256, Note_on_c, 0, 78, 112
2, 32316, Note_off_c, 0, 78, 100
2, 32320, Note_on_c, 0, 81, 112
2, 32380, Note_off_c, 0, 81, 100
2, 32384, Note_on_c, 0, 74, 112
2, 32444, Note_off_c, 0, 74, 100
2, 32448, Note_on_c, 0, 76, 112
2, 32508, Note_off_c, 0, 76, 100
2, 32512, Note_on_c, 0, 79, 112
2, 32572, Note_off_c, 0, 79, 100
2, 32576, Note_on_c, 0, 73, 112
2, 32636, Note_off_c, 0, 73, 100
2, 32640, Note_on_c, 0, 74, 112
2, 32700, Note_off_c, 0, 74, 100
2, 32704, Note_on_c, 0, 78, 112
2, 32764, Note_off_c, 0, 78, 100
2, 32768, Note_on_c, 0, 71, 112
2, 32828, Note_off_c, 0, 71, 100
2, 32832, Note_on_c, 0, 72, 112
2, 32892, Note_off_c, 0, 72, 100
2, 32896, Note_on_c, 0, 76, 112
2, 32956, Note_off_c, 0, 76, 100
2, 32960, Note_on_c, 0, 69, 112
2, 33020, Note_off_c, 0, 69, 100
2, 33024, Note_on_c, 0, 71, 112
2, 33084, Note_off_c, 0, 71, 100
2, 33088, Note_on_c, 0, 74, 112
2, 33148, Note_off_c, 0, 74, 100
2, 33152, Note_on_c, 0, 67, 112
2, 33212, Note_off_c, 0, 67, 100
2, 33216, Note_on_c, 0, 69, 112
2, 33276, Note_off_c, 0, 69, 100
2, 33280, Note_on_c, 0, 72, 112
2, 33340, Note_off_c, 0, 72, 100
2, 33344, Note_on_c, 0, 66, 112
2, 33404, Note_off_c, 0, 66, 100
2, 33408, Note_on_c, 0, 67, 112
2, 33468, Note_off_c, 0, 67, 100
2, 33600, Note_on_c, 0, 55, 112
2, 33660, Note_off_c, 0, 55, 100
2, 33792, Note_on_c, 0, 54, 112
2, 33852, Note_off_c, 0, 54, 100
2, 33984, Note_on_c, 0, 57, 112
2, 34044, Note_off_c, 0, 57, 100
2, 34176, Note_on_c, 0, 50, 112
2, 34236, Note_off_c, 0, 50, 100
2, 34368, Note_on_c, 0, 62, 112
2, 34428, Note_off_c, 0, 62, 100
2, 34560, Note_on_c, 0, 61, 112
2, 34620, Note_off_c, 0, 61, 100
2, 34624, Note_on_c, 0, 57, 112
2, 34684, Note_off_c, 0, 57, 100
2, 34688, Note_on_c, 0, 59, 112
2, 34748, Note_off_c, 0, 59, 100
2, 34752, Note_on_c, 0, 61, 112
2, 34812, Note_off_c, 0, 61, 100
2, 34816, Note_on_c, 0, 62, 112
2, 34876, Note_off_c, 0, 62, 100
2, 34880, Note_on_c, 0, 64, 112
2, 34940, Note_off_c, 0, 64, 100
2, 34944, Note_on_c, 0, 66, 112
2, 35196, Note_off_c, 0, 66, 100
2, 35200, Note_on_c, 0, 64, 112
2, 35260, Note_off_c, 0, 64, 100
2, 35264, Note_on_c, 0, 62, 112
2, 35324, Note_off_c, 0, 62, 100
2, 35392, Note_on_c, 0, 67, 112
2, 35452, Note_off_c, 0, 67, 100
2, 35456, Note_on_c, 0, 66, 112
2, 35516, Note_off_c, 0, 66, 100
2, 35520, Note_on_c, 0, 64, 112
2, 35580, Note_off_c, 0, 64, 100
2, 35584, Note_on_c, 0, 66, 112
2, 35644, Note_off_c, 0, 66, 100
2, 35648, Note_on_c, 0, 67, 112
2, 35708, Note_off_c, 0, 67, 100
2, 35712, Note_on_c, 0, 66, 112
2, 35900, Note_off_c, 0, 66, 100
2, 36160, Note_on_c, 0, 66, 112
2, 36220, Note_off_c, 0, 66, 100
2, 36224, Note_on_c, 0, 69, 112
2, 36284, Note_off_c, 0, 69, 100
2, 36288, Note_on_c, 0, 74, 112
2, 36348, Note_off_c, 0, 74, 100
2, 36352, Note_on_c, 0, 78, 112
2, 36412, Note_off_c, 0, 78, 100
2, 36416, Note_on_c, 0, 81, 112
2, 36476, Note_off_c, 0, 81, 100
2, 36480, Note_on_c, 0, 86, 112
2, 36540, Note_off_c, 0, 86, 100
2, 36960, Note_on_c, 0, 81, 127
2, 37052, Note_off_c, 0, 81, 100
2, 37152, Note_on_c, 0, 78, 127
2, 37244, Note_off_c, 0, 78, 100
2, 37344, Note_on_c, 0, 74, 127
2, 37436, Note_off_c, 0, 74, 100
2, 37536, Note_on_c, 0, 69, 127
2, 37628, Note_off_c, 0, 69, 100
2, 37728, Note_on_c, 0, 66, 127
2, 37820, Note_off_c, 0, 66, 100
2, 37920, Note_on_c, 0, 62, 127
2, 38012, Note_off_c, 0, 62, 100
2, 38112, Note_on_c, 0, 59, 127
2, 38204, Note_off_c, 0, 59, 100
2, 38304, Note_on_c, 0, 55, 127
2, 38396, Note_off_c, 0, 55, 100
2, 38496, Note_on_c, 0, 50, 127
2, 38588, Note_off_c, 0, 50, 100
2, 38688, Note_on_c, 0, 47, 127
2, 38780, Note_off_c, 0, 47, 100
2, 38880, Note_on_c, 0, 43, 127
2, 38972, Note_off_c, 0, 43, 100
2, 38976, Note_on_c, 0, 45, 127
2, 39068, Note_off_c, 0, 45, 100
2, 39072, Note_on_c, 0, 47, 127
2, 39164, Note_off_c, 0, 47, 100
2, 39168, Note_on_c, 0, 48, 127
2, 39228, Note_off_c, 0, 48, 100
2, 39360, Note_on_c, 0, 55, 127
2, 39420, Note_off_c, 0, 55, 100
2, 39552, Note_on_c, 0, 60, 127
2, 39612, Note_off_c, 0, 60, 100
2, 39744, Note_on_c, 0, 64, 127
2, 39804, Note_off_c, 0, 64, 100
2, 39936, Note_on_c, 0, 57, 127
2, 39996, Note_off_c, 0, 57, 100
2, 40128, Note_on_c, 0, 72, 127
2, 40316, Note_off_c, 0, 72, 100
2, 40384, Note_on_c, 0, 71, 127
2, 40444, Note_off_c, 0, 71, 100
2, 40448, Note_on_c, 0, 70, 127
2, 40508, Note_off_c, 0, 70, 100
2, 40512, Note_on_c, 0, 71, 127
2, 40572, Note_off_c, 0, 71, 100
2, 40576, Note_on_c, 0, 73, 127
2, 40636, Note_off_c, 0, 73, 100
2, 40640, Note_on_c, 0, 75, 127
2, 40700, Note_off_c, 0, 75, 100
2, 40704, Note_on_c, 0, 76, 127
2, 40764, Note_off_c, 0, 76, 100
2, 40768, Note_on_c, 0, 75, 127
2, 40828, Note_off_c, 0, 75, 100
2, 40832, Note_on_c, 0, 73, 127
2, 40892, Note_off_c, 0, 73, 100
2, 40896, Note_on_c, 0, 75, 127
2, 40956, Note_off_c, 0, 75, 100
2, 40960, Note_on_c, 0, 76, 127
2, 41020, Note_off_c, 0, 76, 100
2, 41024, Note_on_c, 0, 78, 127
2, 41084, Note_off_c, 0, 78, 100
2, 41088, Note_on_c, 0, 79, 127
2, 41148, Note_off_c, 0, 79, 100
2, 41152, Note_on_c, 0, 78, 127
2, 41212, Note_off_c, 0, 78, 100
2, 41216, Note_on_c, 0, 76, 127
2, 41276, Note_off_c, 0, 76, 100
2, 41280, Note_on_c, 0, 78, 127
2, 41340, Note_off_c, 0, 78, 100
2, 41344, Note_on_c, 0, 79, 127
2, 41404, Note_off_c, 0, 79, 100
2, 41408, Note_on_c, 0, 81, 127
2, 41448, Note_off_c, 0, 81, 100
2, 41472, Note_on_c, 0, 83, 127
2, 41532, Note_off_c, 0, 83, 100
2, 41536, Note_on_c, 0, 81, 127
2, 41596, Note_off_c, 0, 81, 100
2, 41600, Note_on_c, 0, 79, 127
2, 41660, Note_off_c, 0, 79, 100
2, 41664, Note_on_c, 0, 81, 127
2, 41724, Note_off_c, 0, 81, 100
2, 41728, Note_on_c, 0, 83, 127
2, 41788, Note_off_c, 0, 83, 100
2, 41792, Note_on_c, 0, 84, 127
2, 41832, Note_off_c, 0, 84, 100
2, 41856, Note_on_c, 0, 75, 127
2, 41916, Note_off_c, 0, 75, 100
2, 42048, Note_on_c, 0, 84, 127
2, 42236, Note_off_c, 0, 84, 100
2, 42240, Note_on_c, 0, 83, 127
2, 42428, Note_off_c, 0, 83, 100
2, 42432, Note_on_c, 0, 74, 127
2, 42620, Note_off_c, 0, 74, 100
2, 42688, Note_on_c, 0, 73, 127
2, 42748, Note_off_c, 0, 73, 100
2, 42752, Note_on_c, 0, 75, 127
2, 42812, Note_off_c, 0, 75, 100
2, 42816, Note_on_c, 0, 76, 127
2, 42876, Note_off_c, 0, 76, 100
2, 42880, Note_on_c, 0, 78, 127
2, 42940, Note_off_c, 0, 78, 100
2, 42944, Note_on_c, 0, 79, 127
2, 43004, Note_off_c, 0, 79, 100
2, 43008, Note_on_c, 0, 70, 127
2, 43068, Note_off_c, 0, 70, 100
2, 43200, Note_on_c, 0, 79, 127
2, 43388, Note_off_c, 0, 79, 100
2, 43392, Note_on_c, 0, 78, 127
2, 43580, Note_off_c, 0, 78, 100
2, 43584, Note_on_c, 0, 69, 127
2, 43772, Note_off_c, 0, 69, 100
2, 43776, Note_on_c, 0, 67, 127
2, 43964, Note_off_c, 0, 67, 100
2, 43968, Note_on_c, 0, 63, 127
2, 44028, Note_off_c, 0, 63, 100
2, 44160, Note_on_c, 0, 64, 127
2, 44220, Note_off_c, 0, 64, 100
2, 44352, Note_on_c, 0, 60, 127
2, 44412, Note_off_c, 0, 60, 100
2, 44544, Note_on_c, 0, 51, 127
2, 44604, Note_off_c, 0, 51, 100
2, 44736, Note_on_c, 0, 75, 127
2, 44796, Note_off_c, 0, 75, 100
2, 44928, Note_on_c, 0, 76, 127
2, 44988, Note_off_c, 0, 76, 100
2, 45120, Note_on_c, 0, 64, 127
2, 45180, Note_off_c, 0, 64, 100
2, 45376, Note_on_c, 0, 67, 127
2, 45436, Note_off_c, 0, 67, 100
2, 45440, Note_on_c, 0, 71, 127
2, 45500, Note_off_c, 0, 71, 100
2, 45504, Note_on_c, 0, 76, 127
2, 45564, Note_off_c, 0, 76, 100
2, 45568, Note_on_c, 0, 79, 127
2, 45628, Note_off_c, 0, 79, 100
2, 45632, Note_on_c, 0, 75, 127
2, 45692, Note_off_c, 0, 75, 100
2, 45696, Note_on_c, 0, 76, 127
2, 45756, Note_off_c, 0, 76, 100
2, 45760, Note_on_c, 0, 71, 127
2, 45820, Note_off_c, 0, 71, 100
2, 45824, Note_on_c, 0, 67, 127
2, 45884, Note_off_c, 0, 67, 100
2, 45952, Note_on_c, 0, 68, 127
2, 46012, Note_off_c, 0, 68, 100
2, 46016, Note_on_c, 0, 77, 127
2, 46076, Note_off_c, 0, 77, 100
2, 46080, Note_on_c, 0, 76, 127
2, 46140, Note_off_c, 0, 76, 100
2, 46144, Note_on_c, 0, 72, 127
2, 46204, Note_off_c, 0, 72, 100
2, 46208, Note_on_c, 0, 69, 127
2, 46268, Note_off_c, 0, 69, 100
2, 46336, Note_on_c, 0, 62, 127
2, 46396, Note_off_c, 0, 62, 100
2, 46400, Note_on_c, 0, 71, 127
2, 46460, Note_off_c, 0, 71, 100
2, 46528, Note_on_c, 0, 60, 127
2, 46588, Note_off_c, 0, 60, 100
2, 46592, Note_on_c, 0, 69, 127
2, 46652, Note_off_c, 0, 69, 100
2, 46720, Note_on_c, 0, 59, 127
2, 46780, Note_off_c, 0, 59, 100
2, 46784, Note_on_c, 0, 68, 127
2, 46844, Note_off_c, 0, 68, 100
2, 46912, Note_on_c, 0, 60, 127
2, 46972, Note_off_c, 0, 60, 100
2, 46976, Note_on_c, 0, 69, 127
2, 47036, Note_off_c, 0, 69, 100
2, 47104, Note_on_c, 0, 66, 127
2, 47164, Note_off_c, 0, 66, 100
2, 47168, Note_on_c, 0, 75, 127
2, 47228, Note_off_c, 0, 75, 100
2, 47232, Note_on_c, 0, 74, 127
2, 47292, Note_off_c, 0, 74, 100
2, 47296, Note_on_c, 0, 71, 127
2, 47356, Note_off_c, 0, 71, 100
2, 47360, Note_on_c, 0, 67, 127
2, 47420, Note_off_c, 0, 67, 100
2, 47488, Note_on_c, 0, 60, 127
2, 47548, Note_off_c, 0, 60, 100
2, 47552, Note_on_c, 0, 69, 127
2, 47612, Note_off_c, 0, 69, 100
2, 47680, Note_on_c, 0, 59, 127
2, 47740, Note_off_c, 0, 59, 100
2, 47744, Note_on_c, 0, 67, 127
2, 47804, Note_off_c, 0, 67, 100
2, 47872, Note_on_c, 0, 57, 127
2, 47932, Note_off_c, 0, 57, 100
2, 47936, Note_on_c, 0, 66, 127
2, 47996, Note_off_c, 0, 66, 100
2, 48064, Note_on_c, 0, 59, 127
2, 48124, Note_off_c, 0, 59, 100
2, 48128, Note_on_c, 0, 67, 127
2, 48188, Note_off_c, 0, 67, 100
2, 48256, Note_on_c, 0, 64, 127
2, 48316, Note_off_c, 0, 64, 100
2, 48320, Note_on_c, 0, 74, 127
2, 48360, Note_off_c, 0, 74, 100
2, 48384, Note_on_c, 0, 72, 127
2, 48444, Note_off_c, 0, 72, 100
2, 48448, Note_on_c, 0, 69, 127
2, 48508, Note_off_c, 0, 69, 100
2, 48512, Note_on_c, 0, 64, 127
2, 48572, Note_off_c, 0, 64, 100
2, 48576, Note_on_c, 0, 60, 127
2, 48636, Note_off_c, 0, 60, 100
2, 48768, Note_on_c, 0, 60, 127
2, 48828, Note_off_c, 0, 60, 100
2, 48960, Note_on_c, 0, 60, 127
2, 49020, Note_off_c, 0, 60, 100
2, 49152, Note_on_c, 0, 60, 127
2, 49212, Note_off_c, 0, 60, 100
2, 49344, Note_on_c, 0, 72, 127
2, 49404, Note_off_c, 0, 72, 100
2, 49536, Note_on_c, 0, 72, 127
2, 49596, Note_off_c, 0, 72, 100
2, 49600, Note_on_c, 0, 69, 127
2, 49660, Note_off_c, 0, 69, 100
2, 49664, Note_on_c, 0, 66, 127
2, 49724, Note_off_c, 0, 66, 100
2, 49728, Note_on_c, 0, 62, 127
2, 49788, Note_off_c, 0, 62, 100
2, 49920, Note_on_c, 0, 62, 127
2, 49980, Note_off_c, 0, 62, 100
2, 50112, Note_on_c, 0, 62, 127
2, 50172, Note_off_c, 0, 62, 100
2, 50304, Note_on_c, 0, 62, 127
2, 50364, Note_off_c, 0, 62, 100
2, 50496, Note_on_c, 0, 72, 127
2, 50556, Note_off_c, 0, 72, 100
2, 50688, Note_on_c, 0, 71, 127
2, 50748, Note_off_c, 0, 71, 100
2, 50752, Note_on_c, 0, 67, 127
2, 50812, Note_off_c, 0, 67, 100
2, 50816, Note_on_c, 0, 74, 127
2, 50876, Note_off_c, 0, 74, 100
2, 50880, Note_on_c, 0, 72, 127
2, 50940, Note_off_c, 0, 72, 100
2, 50944, Note_on_c, 0, 69, 127
2, 51004, Note_off_c, 0, 69, 100
2, 51008, Note_on_c, 0, 76, 127
2, 51068, Note_off_c, 0, 76, 100
2, 51072, Note_on_c, 0, 74, 127
2, 51132, Note_off_c, 0, 74, 100
2, 51264, Note_on_c, 0, 59, 127
2, 51324, Note_off_c, 0, 59, 100
2, 51456, Note_on_c, 0, 55, 127
2, 51516, Note_off_c, 0, 55, 100
2, 51648, Note_on_c, 0, 77, 127
2, 51708, Note_off_c, 0, 77, 100
2, 51840, Note_on_c, 0, 76, 127
2, 51900, Note_off_c, 0, 76, 100
2, 51904, Note_on_c, 0, 79, 127
2, 51964, Note_off_c, 0, 79, 100
2, 51968, Note_on_c, 0, 72, 127
2, 52028, Note_off_c, 0, 72, 100
2, 52032, Note_on_c, 0, 74, 127
2, 52092, Note_off_c, 0, 74, 100
2, 52096, Note_on_c, 0, 77, 127
2, 52156, Note_off_c, 0, 77, 100
2, 52160, Note_on_c, 0, 71, 127
2, 52220, Note_off_c, 0, 71, 100
2, 52224, Note_on_c, 0, 72, 127
2, 52284, Note_off_c, 0, 72, 100
2, 52288, Note_on_c, 0, 76, 127
2, 52348, Note_off_c, 0, 76, 100
2, 52352, Note_on_c, 0, 69, 127
2, 52412, Note_off_c, 0, 69, 100
2, 52416, Note_on_c, 0, 71, 127
2, 52476, Note_off_c, 0, 71, 100
2, 52480, Note_on_c, 0, 74, 127
2, 52540, Note_off_c, 0, 74, 100
2, 52544, Note_on_c, 0, 67, 127
2, 52604, Note_off_c, 0, 67, 100
2, 52608, Note_on_c, 0, 69, 127
2, 52668, Note_off_c, 0, 69, 100
2, 52672, Note_on_c, 0, 72, 127
2, 52732, Note_off_c, 0, 72, 100
2, 52736, Note_on_c, 0, 66, 127
2, 52796, Note_off_c, 0, 66, 100
2, 52800, Note_on_c, 0, 67, 127
2, 52860, Note_off_c, 0, 67, 100
2, 52864, Note_on_c, 0, 71, 127
2, 52924, Note_off_c, 0, 71, 100
2, 52928, Note_on_c, 0, 64, 127
2, 52988, Note_off_c, 0, 64, 100
2, 52992, Note_on_c, 0, 66, 127
2, 53052, Note_off_c, 0, 66, 100
2, 53056, Note_on_c, 0, 62, 127
2, 53116, Note_off_c, 0, 62, 100
2, 53120, Note_on_c, 0, 64, 127
2, 53180, Note_off_c, 0, 64, 100
2, 53184, Note_on_c, 0, 66, 127
2, 53244, Note_off_c, 0, 66, 100
2, 53248, Note_on_c, 0, 67, 127
2, 53308, Note_off_c, 0, 67, 100
2, 53312, Note_on_c, 0, 69, 127
2, 53352, Note_off_c, 0, 69, 100
2, 53376, Note_on_c, 0, 59, 127
2, 53628, Note_off_c, 0, 59, 100
2, 53632, Note_on_c, 0, 57, 127
2, 53692, Note_off_c, 0, 57, 100
2, 53696, Note_on_c, 0, 55, 127
2, 53756, Note_off_c, 0, 55, 100
2, 53760, Note_on_c, 0, 64, 127
2, 53820, Note_off_c, 0, 64, 100
2, 53952, Note_on_c, 0, 67, 127
2, 53996, Note_off_c, 0, 67, 100
2, 54000, Note_on_c, 0, 66, 127
2, 54044, Note_off_c, 0, 66, 100
2, 54048, Note_on_c, 0, 64, 127
2, 54092, Note_off_c, 0, 64, 100
2, 54096, Note_on_c, 0, 66, 127
2, 54140, Note_off_c, 0, 66, 100
2, 54144, Note_on_c, 0, 67, 127
2, 54184, Note_off_c, 0, 67, 100
2, 54208, Note_on_c, 0, 62, 127
2, 54268, Note_off_c, 0, 62, 100
2, 54272, Note_on_c, 0, 59, 127
2, 54332, Note_off_c, 0, 59, 100
2, 54336, Note_on_c, 0, 55, 127
2, 54396, Note_off_c, 0, 55, 100
2, 54400, Note_on_c, 0, 50, 127
2, 54460, Note_off_c, 0, 50, 100
2, 54464, Note_on_c, 0, 47, 127
2, 54524, Note_off_c, 0, 47, 100
2, 54528, Note_on_c, 0, 43, 127
2, 54716, Note_off_c, 0, 43, 100
2, 55392, Note_on_c, 0, 81, 112
2, 55484, Note_off_c, 0, 81, 100
2, 55584, Note_on_c, 0, 78, 112
2, 55676, Note_off_c, 0, 78, 100
2, 55776, Note_on_c, 0, 74, 112
2, 55868, Note_off_c, 0, 74, 100
2, 55968, Note_on_c, 0, 69, 112
2, 56060, Note_off_c, 0, 69, 100
2, 56160, Note_on_c, 0, 66, 112
2, 56252, Note_off_c, 0, 66, 100
2, 56352, Note_on_c, 0, 62, 112
2, 56444, Note_off_c, 0, 62, 100
2, 56544, Note_on_c, 0, 59, 112
2, 56636, Note_off_c, 0, 59, 100
2, 56736, Note_on_c, 0, 55, 112
2, 56828, Note_off_c, 0, 55, 100
2, 56928, Note_on_c, 0, 50, 112
2, 57020, Note_off_c, 0, 50, 100
2, 57120, Note_on_c, 0, 47, 112
2, 57212, Note_off_c, 0, 47, 100
2, 57312, Note_on_c, 0, 43, 112
2, 57404, Note_off_c, 0, 43, 100
2, 57408, Note_on_c, 0, 45, 112
2, 57500, Note_off_c, 0, 45, 100
2, 57504, Note_on_c, 0, 47, 112
2, 57596, Note_off_c, 0, 47, 100
2, 57600, Note_on_c, 0, 48, 112
2, 57660, Note_off_c, 0, 48, 100
2, 57792, Note_on_c, 0, 55, 112
2, 57852, Note_off_c, 0, 55, 100
2, 57984, Note_on_c, 0, 60, 112
2, 58044, Note_off_c, 0, 60, 100
2, 58176, Note_on_c, 0, 64, 112
2, 58236, Note_off_c, 0, 64, 100
2, 58368, Note_on_c, 0, 57, 112
2, 58428, Note_off_c, 0, 57, 100
2, 58560, Note_on_c, 0, 72, 112
2, 58748, Note_off_c, 0, 72, 100
2, 58816, Note_on_c, 0, 71, 112
2, 58876, Note_off_c, 0, 71, 100
2, 58880, Note_on_c, 0, 70, 112
2, 58940, Note_off_c, 0, 70, 100
2, 58944, Note_on_c, 0, 71, 112
2, 59004, Note_off_c, 0, 71, 100
2, 59008, Note_on_c, 0, 73, 112
2, 59068, Note_off_c, 0, 73, 100
2, 59072, Note_on_c, 0, 75, 112
2, 59132, Note_off_c, 0, 75, 100
2, 59136, Note_on_c, 0, 76, 112
2, 59196, Note_off_c, 0, 76, 100
2, 59200, Note_on_c, 0, 75, 112
2, 59260, Note_off_c, 0, 75, 100
2, 59264, Note_on_c, 0, 73, 112
2, 59324, Note_off_c, 0, 73, 100
2, 59328, Note_on_c, 0, 75, 112
2, 59388, Note_off_c, 0, 75, 100
2, 59392, Note_on_c, 0, 76, 112
2, 59452, Note_off_c, 0, 76, 100
2, 59456, Note_on_c, 0, 78, 112
2, 59516, Note_off_c, 0, 78, 100
2, 59520, Note_on_c, 0, 79, 112
2, 59580, Note_off_c, 0, 79, 100
2, 59584, Note_on_c, 0, 78, 112
2, 59644, Note_off_c, 0, 78, 100
2, 59648, Note_on_c, 0, 76, 112
2, 59708, Note_off_c, 0, 76, 100
2, 59712, Note_on_c, 0, 78, 112
2, 59772, Note_off_c, 0, 78, 100
2, 59776, Note_on_c, 0, 79, 112
2, 59836, Note_off_c, 0, 79, 100
2, 59840, Note_on_c, 0, 81, 112
2, 59880, Note_off_c, 0, 81, 100
2, 59904, Note_on_c, 0, 83, 112
2, 59964, Note_off_c, 0, 83, 100
2, 59968, Note_on_c, 0, 81, 112
2, 60028, Note_off_c, 0, 81, 100
2, 60032, Note_on_c, 0, 79, 112
2, 60092, Note_off_c, 0, 79, 100
2, 60096, Note_on_c, 0, 81, 112
2, 60156, Note_off_c, 0, 81, 100
2, 60160, Note_on_c, 0, 83, 112
2, 60220, Note_off_c, 0, 83, 100
2, 60224, Note_on_c, 0, 84, 112
2, 60264, Note_off_c, 0, 84, 100
2, 60288, Note_on_c, 0, 75, 112
2, 60348, Note_off_c, 0, 75, 100
2, 60480, Note_on_c, 0, 84, 112
2, 60668, Note_off_c, 0, 84, 100
2, 60672, Note_on_c, 0, 83, 112
2, 60860, Note_off_c, 0, 83, 100
2, 60864, Note_on_c, 0, 74, 112
2, 61052, Note_off_c, 0, 74, 100
2, 61120, Note_on_c, 0, 73, 112
2, 61180, Note_off_c, 0, 73, 100
2, 61184, Note_on_c, 0, 75, 112
2, 61244, Note_off_c, 0, 75, 100
2, 61248, Note_on_c, 0, 76, 112
2, 61308, Note_off_c, 0, 76, 100
2, 61312, Note_on_c, 0, 78, 112
2, 61372, Note_off_c, 0, 78, 100
2, 61376, Note_on_c, 0, 79, 112
2, 61436, Note_off_c, 0, 79, 100
2, 61440, Note_on_c, 0, 70, 112
2, 61500, Note_off_c, 0, 70, 100
2, 61632, Note_on_c, 0, 79, 112
2, 61820, Note_off_c, 0, 79, 100
2, 61824, Note_on_c, 0, 78, 112
2, 62012, Note_off_c, 0, 78, 100
2, 62016, Note_on_c, 0, 69, 112
2, 62204, Note_off_c, 0, 69, 100
2, 62208, Note_on_c, 0, 67, 112
2, 62396, Note_off_c, 0, 67, 100
2, 62400, Note_on_c, 0, 63, 112
2, 62460, Note_off_c, 0, 63, 100
2, 62592, Note_on_c, 0, 64, 112
2, 62652, Note_off_c, 0, 64, 100
2, 62784, Note_on_c, 0, 60, 112
2, 62844, Note_off_c, 0, 60, 100
2, 62976, Note_on_c, 0, 51, 112
2, 63036, Note_off_c, 0, 51, 100
2, 63168, Note_on_c, 0, 75, 112
2, 63228, Note_off_c, 0, 75, 100
2, 63360, Note_on_c, 0, 76, 112
2, 63420, Note_off_c, 0, 76, 100
2, 63552, Note_on_c, 0, 64, 112
2, 63612, Note_off_c, 0, 64, 100
2, 63808, Note_on_c, 0, 67, 112
2, 63868, Note_off_c, 0, 67, 100
2, 63872, Note_on_c, 0, 71, 112
2, 63932, Note_off_c, 0, 71, 100
2, 63936, Note_on_c, 0, 76, 112
2, 63996, Note_off_c, 0, 76, 100
2, 64000, Note_on_c, 0, 79, 112
2, 64060, Note_off_c, 0, 79, 100
2, 64064, Note_on_c, 0, 75, 112
2, 64124, Note_off_c, 0, 75, 100
2, 64128, Note_on_c, 0, 76, 112
2, 64188, Note_off_c, 0, 76, 100
2, 64192, Note_on_c, 0, 71, 112
2, 64252, Note_off_c, 0, 71, 100
2, 64256, Note_on_c, 0, 67, 112
2, 64316, Note_off_c, 0, 67, 100
2, 64384, Note_on_c, 0, 68, 112
2, 64444, Note_off_c, 0, 68, 100
2, 64448, Note_on_c, 0, 77, 112
2, 64508, Note_off_c, 0, 77, 100
2, 64512, Note_on_c, 0, 76, 112
2, 64572, Note_off_c, 0, 76, 100
2, 64576, Note_on_c, 0, 72, 112
2, 64636, Note_off_c, 0, 72, 100
2, 64640, Note_on_c, 0, 69, 112
2, 64700, Note_off_c, 0, 69, 100
2, 64768, Note_on_c, 0, 62, 112
2, 64828, Note_off_c, 0, 62, 100
2, 64832, Note_on_c, 0, 71, 112
2, 64892, Note_off_c, 0, 71, 100
2, 64960, Note_on_c, 0, 60, 112
2, 65020, Note_off_c, 0, 60, 100
2, 65024, Note_on_c, 0, 69, 112
2, 65084, Note_off_c, 0, 69, 100
2, 65152, Note_on_c, 0, 59, 112
2, 65212, Note_off_c, 0, 59, 100
2, 65216, Note_on_c, 0, 68, 112
2, 65276, Note_off_c, 0, 68, 100
2, 65344, Note_on_c, 0, 60, 112
2, 65404, Note_off_c, 0, 60, 100
2, 65408, Note_on_c, 0, 69, 112
2, 65468, Note_off_c, 0, 69, 100
2, 65536, Note_on_c, 0, 66, 112
2, 65596, Note_off_c, 0, 66, 100
2, 65600, Note_on_c, 0, 75, 112
2, 65660, Note_off_c, 0, 75, 100
2, 65664, Note_on_c, 0, 74, 112
2, 65724, Note_off_c, 0, 74, 100
2, 65728, Note_on_c, 0, 71, 112
2, 65788, Note_off_c, 0, 71, 100
2, 65792, Note_on_c, 0, 67, 112
2, 65852, Note_off_c, 0, 67, 100
2, 65920, Note_on_c, 0, 60, 112
2, 65980, Note_off_c, 0, 60, 100
2, 65984, Note_on_c, 0, 69, 112
2, 66044, Note_off_c, 0, 69, 100
2, 66112, Note_on_c, 0, 59, 112
2, 66172, Note_off_c, 0, 59, 100
2, 66176, Note_on_c, 0, 67, 112
2, 66236, Note_off_c, 0, 67, 100
2, 66304, Note_on_c, 0, 57, 112
2, 66364, Note_off_c, 0, 57, 100
2, 66368, Note_on_c, 0, 66, 112
2, 66428, Note_off_c, 0, 66, 100
2, 66496, Note_on_c, 0, 59, 112
2, 66556, Note_off_c, 0, 59, 100
2, 66560, Note_on_c, 0, 67, 112
2, 66620, Note_off_c, 0, 67, 100
2, 66688, Note_on_c, 0, 64, 112
2, 66748, Note_off_c, 0, 64, 100
2, 66752, Note_on_c, 0, 74, 112
2, 66792, Note_off_c, 0, 74, 100
2, 66816, Note_on_c, 0, 72, 112
2, 66876, Note_off_c, 0, 72, 100
2, 66880, Note_on_c, 0, 69, 112
2, 66940, Note_off_c, 0, 69, 100
2, 66944, Note_on_c, 0, 64, 112
2, 67004, Note_off_c, 0, 64, 100
2, 67008, Note_on_c, 0, 60, 112
2, 67068, Note_off_c, 0, 60, 100
2, 67200, Note_on_c, 0, 60, 112
2, 67260, Note_off_c, 0, 60, 100
2, 67392, Note_on_c, 0, 60, 112
2, 67452, Note_off_c, 0, 60, 100
2, 67584, Note_on_c, 0, 60, 112
2, 67644, Note_off_c, 0, 60, 100
2, 67776, Note_on_c, 0, 72, 112
2, 67836, Note_off_c, 0, 72, 100
2, 67968, Note_on_c, 0, 72, 112
2, 68028, Note_off_c, 0, 72, 100
2, 68032, Note_on_c, 0, 69, 112
2, 68092, Note_off_c, 0, 69, 100
2, 68096, Note_on_c, 0, 66, 112
2, 68156, Note_off_c, 0, 66, 100
2, 68160, Note_on_c, 0, 62, 112
2, 68220, Note_off_c, 0, 62, 100
2, 68352, Note_on_c, 0, 62, 112
2, 68412, Note_off_c, 0, 62, 100
2, 68544, Note_on_c, 0, 62, 112
2, 68604, Note_off_c, 0, 62, 100
2, 68736, Note_on_c, 0, 62, 112
2, 68796, Note_off_c, 0, 62, 100
2, 68928, Note_on_c, 0, 72, 112
2, 68988, Note_off_c, 0, 72, 100
2, 69120, Note_on_c, 0, 71, 112
2, 69180, Note_off_c, 0, 71, 100
2, 69184, Note_on_c, 0, 67, 112
2, 69244, Note_off_c, 0, 67, 100
2, 69248, Note_on_c, 0, 74, 112
2, 69308, Note_off_c, 0, 74, 100
2, 69312, Note_on_c, 0, 72, 112
2, 69372, Note_off_c, 0, 72, 100
2, 69376, Note_on_c, 0, 69, 112
2, 69436, Note_off_c, 0, 69, 100
2, 69440, Note_on_c, 0, 76, 112
2, 69500, Note_off_c, 0, 76, 100
2, 69504, Note_on_c, 0, 74, 112
2, 69564, Note_off_c, 0, 74, 100
2, 69696, Note_on_c, 0, 59, 112
2, 69756, Note_off_c, 0, 59, 100
2, 69888, Note_on_c, 0, 55, 112
2, 69948, Note_off_c, 0, 55, 100
2, 70080, Note_on_c, 0, 77, 112
2, 70140, Note_off_c, 0, 77, 100
2, 70272, Note_on_c, 0, 76, 112
2, 70332, Note_off_c, 0, 76, 100
2, 70336, Note_on_c, 0, 79, 112
2, 70396, Note_off_c, 0, 79, 100
2, 70400, Note_on_c, 0, 72, 112
2, 70460, Note_off_c, 0, 72, 100
2, 70464, Note_on_c, 0, 74, 112
2, 70524, Note_off_c, 0, 74, 100
2, 70528, Note_on_c, 0, 77, 112
2, 70588, Note_off_c, 0, 77, 100
2, 70592, Note_on_c, 0, 71, 112
2, 70652, Note_off_c, 0, 71, 100
2, 70656, Note_on_c, 0, 72, 112
2, 70716, Note_off_c, 0, 72, 100
2, 70720, Note_on_c, 0, 76, 112
2, 70780, Note_off_c, 0, 76, 100
2, 70784, Note_on_c, 0, 69, 112
2, 70844, Note_off_c, 0, 69, 100
2, 70848, Note_on_c, 0, 71, 112
2, 70908, Note_off_c, 0, 71, 100
2, 70912, Note_on_c, 0, 74, 112
2, 70972, Note_off_c, 0, 74, 100
2, 70976, Note_on_c, 0, 67, 112
2, 71036, Note_off_c, 0, 67, 100
2, 71040, Note_on_c, 0, 69, 112
2, 71100, Note_off_c, 0, 69, 100
2, 71104, Note_on_c, 0, 72, 112
2, 71164, Note_off_c, 0, 72, 100
2, 71168, Note_on_c, 0, 66, 112
2, 71228, Note_off_c, 0, 66, 100
2, 71232, Note_on_c, 0, 67, 112
2, 71292, Note_off_c, 0, 67, 100
2, 71296, Note_on_c, 0, 71, 112
2, 71356, Note_off_c, 0, 71, 100
2, 71360, Note_on_c, 0, 64, 112
2, 71420, Note_off_c, 0, 64, 100
2, 71424, Note_on_c, 0, 66, 112
2, 71484, Note_off_c, 0, 66, 100
2, 71488, Note_on_c, 0, 62, 112
2, 71548, Note_off_c, 0, 62, 100
2, 71552, Note_on_c, 0, 64, 112
2, 71612, Note_off_c, 0, 64, 100
2, 71616, Note_on_c, 0, 66, 112
2, 71676, Note_off_c, 0, 66, 100
2, 71680, Note_on_c, 0, 67, 112
2, 71740, Note_off_c, 0, 67, 100
2, 71744, Note_on_c, 0, 69, 112
2, 71784, Note_off_c, 0, 69, 100
2, 71808, Note_on_c, 0, 59, 112
2, 72060, Note_off_c, 0, 59, 100
2, 72064, Note_on_c, 0, 57, 112
2, 72124, Note_off_c, 0, 57, 100
2, 72128, Note_on_c, 0, 55, 112
2, 72188, Note_off_c, 0, 55, 100
2, 72192, Note_on_c, 0, 64, 112
2, 72252, Note_off_c, 0, 64, 100
2, 72384, Note_on_c, 0, 67, 112
2, 72428, Note_off_c, 0, 67, 100
2, 72432, Note_on_c, 0, 66, 112
2, 72476, Note_off_c, 0, 66, 100
2, 72480, Note_on_c, 0, 64, 112
2, 72524, Note_off_c, 0, 64, 100
2, 72528, Note_on_c, 0, 66, 112
2, 72572, Note_off_c, 0, 66, 100
2, 72576, Note_on_c, 0, 67, 112
2, 72616, Note_off_c, 0, 67, 100
2, 72640, Note_on_c, 0, 62, 112
2, 72700, Note_off_c, 0, 62, 100
2, 72704, Note_on_c, 0, 59, 112
2, 72764, Note_off_c, 0, 59, 100
2, 72768, Note_on_c, 0, 55, 112
2, 72828, Note_off_c, 0, 55, 100
2, 72832, Note_on_c, 0, 50, 112
2, 72892, Note_off_c, 0, 50, 100
2, 72896, Note_on_c, 0, 47, 112
2, 72956, Note_off_c, 0, 47, 100
2, 72960, Note_on_c, 0, 43, 112
2, 73148, Note_off_c, 0, 43, 100
2, 73148, End_track
3, 0, Start_track
3, 0, Title_t, "Goldberg Variations"
3, 0, Control_c, 1, 0, 0
3, 0, Program_c, 1, 6
3, 0, Control_c, 1, 7, 127
3, 0, Control_c, 1, 10, 87
3, 0, Control_c, 1, 91, 127
3, 0, Key_signature, 1, "major"
3, 0, Note_on_c, 1, 55, 127
3, 60, Note_off_c, 1, 55, 100
3, 192, Note_on_c, 1, 59, 127
3, 252, Note_off_c, 1, 59, 100
3, 384, Note_on_c, 1, 62, 127
3, 444, Note_off_c, 1, 62, 100
3, 576, Note_on_c, 1, 67, 127
3, 636, Note_off_c, 1, 67, 100
3, 768, Note_on_c, 1, 71, 127
3, 828, Note_off_c, 1, 71, 100
3, 960, Note_on_c, 1, 73, 127
3, 1020, Note_off_c, 1, 73, 100
3, 1248, Note_on_c, 1, 74, 127
3, 1340, Note_off_c, 1, 74, 100
3, 1440, Note_on_c, 1, 69, 127
3, 1532, Note_off_c, 1, 69, 100
3, 1632, Note_on_c, 1, 66, 127
3, 1724, Note_off_c, 1, 66, 100
3, 1824, Note_on_c, 1, 62, 127
3, 1916, Note_off_c, 1, 62, 100
3, 2016, Note_on_c, 1, 57, 127
3, 2108, Note_off_c, 1, 57, 100
3, 2112, Note_on_c, 1, 55, 127
3, 2204, Note_off_c, 1, 55, 100
3, 2208, Note_on_c, 1, 54, 127
3, 2300, Note_off_c, 1, 54, 100
3, 2304, Note_on_c, 1, 52, 127
3, 2364, Note_off_c, 1, 52, 100
3, 2496, Note_on_c, 1, 55, 127
3, 2556, Note_off_c, 1, 55, 100
3, 2688, Note_on_c, 1, 57, 127
3, 2748, Note_off_c, 1, 57, 100
3, 2880, Note_on_c, 1, 61, 127
3, 2940, Note_off_c, 1, 61, 100
3, 3072, Note_on_c, 1, 64, 127
3, 3132, Note_off_c, 1, 64, 100
3, 3264, Note_on_c, 1, 67, 127
3, 3324, Note_off_c, 1, 67, 100
3, 3552, Note_on_c, 1, 66, 127
3, 3644, Note_off_c, 1, 66, 100
3, 3744, Note_on_c, 1, 62, 127
3, 3836, Note_off_c, 1, 62, 100
3, 3936, Note_on_c, 1, 57, 127
3, 4028, Note_off_c, 1, 57, 100
3, 4128, Note_on_c, 1, 54, 127
3, 4220, Note_off_c, 1, 54, 100
3, 4320, Note_on_c, 1, 52, 127
3, 4412, Note_off_c, 1, 52, 100
3, 4416, Note_on_c, 1, 50, 127
3, 4508, Note_off_c, 1, 50, 100
3, 4512, Note_on_c, 1, 48, 127
3, 4604, Note_off_c, 1, 48, 100
3, 4608, Note_on_c, 1, 47, 127
3, 4668, Note_off_c, 1, 47, 100
3, 4800, Note_on_c, 1, 50, 127
3, 4860, Note_off_c, 1, 50, 100
3, 4992, Note_on_c, 1, 55, 127
3, 5052, Note_off_c, 1, 55, 100
3, 5184, Note_on_c, 1, 59, 127
3, 5244, Note_off_c, 1, 59, 100
3, 5376, Note_on_c, 1, 62, 127
3, 5436, Note_off_c, 1, 62, 100
3, 5568, Note_on_c, 1, 65, 127
3, 5628, Note_off_c, 1, 65, 100
3, 5856, Note_on_c, 1, 64, 127
3, 5948, Note_off_c, 1, 64, 100
3, 6048, Note_on_c, 1, 60, 127
3, 6140, Note_off_c, 1, 60, 100
3, 6240, Note_on_c, 1, 55, 127
3, 6332, Note_off_c, 1, 55, 100
3, 6432, Note_on_c, 1, 52, 127
3, 6524, Note_off_c, 1, 52, 100
3, 6624, Note_on_c, 1, 48, 127
3, 6716, Note_off_c, 1, 48, 100
3, 6720, Note_on_c, 1, 47, 127
3, 6812, Note_off_c, 1, 47, 100
3, 6816, Note_on_c, 1, 45, 127
3, 6908, Note_off_c, 1, 45, 100
3, 6912, Note_on_c, 1, 50, 127
3, 6972, Note_off_c, 1, 50, 100
3, 7104, Note_on_c, 1, 54, 127
3, 7164, Note_off_c, 1, 54, 100
3, 7296, Note_on_c, 1, 57, 127
3, 7356, Note_off_c, 1, 57, 100
3, 7488, Note_on_c, 1, 62, 127
3, 7548, Note_off_c, 1, 62, 100
3, 7680, Note_on_c, 1, 66, 127
3, 7740, Note_off_c, 1, 66, 100
3, 7872, Note_on_c, 1, 69, 127
3, 7932, Note_off_c, 1, 69, 100
3, 8160, Note_on_c, 1, 71, 127
3, 8252, Note_off_c, 1, 71, 100
3, 8352, Note_on_c, 1, 67, 127
3, 8444, Note_off_c, 1, 67, 100
3, 8544, Note_on_c, 1, 62, 127
3, 8636, Note_off_c, 1, 62, 100
3, 8736, Note_on_c, 1, 59, 127
3, 8828, Note_off_c, 1, 59, 100
3, 8928, Note_on_c, 1, 57, 127
3, 9020, Note_off_c, 1, 57, 100
3, 9024, Note_on_c, 1, 55, 127
3, 9116, Note_off_c, 1, 55, 100
3, 9120, Note_on_c, 1, 54, 127
3, 9212, Note_off_c, 1, 54, 100
3, 9216, Note_on_c, 1, 55, 127
3, 9276, Note_off_c, 1, 55, 100
3, 9600, Note_on_c, 1, 83, 127
3, 9644, Note_off_c, 1, 83, 100
3, 9648, Note_on_c, 1, 81, 127
3, 9692, Note_off_c, 1, 81, 100
3, 9696, Note_on_c, 1, 83, 127
3, 9980, Note_off_c, 1, 83, 100
3, 10176, Note_on_c, 1, 64, 127
3, 10236, Note_off_c, 1, 64, 100
3, 10368, Note_on_c, 1, 54, 127
3, 10428, Note_off_c, 1, 54, 100
3, 10752, Note_on_c, 1, 81, 127
3, 10796, Note_off_c, 1, 81, 100
3, 10800, Note_on_c, 1, 79, 127
3, 10844, Note_off_c, 1, 79, 100
3, 10848, Note_on_c, 1, 81, 127
3, 11132, Note_off_c, 1, 81, 100
3, 11328, Note_on_c, 1, 62, 127
3, 11388, Note_off_c, 1, 62, 100
3, 11520, Note_on_c, 1, 71, 127
3, 11580, Note_off_c, 1, 71, 100
3, 11584, Note_on_c, 1, 72, 127
3, 11644, Note_off_c, 1, 72, 100
3, 11648, Note_on_c, 1, 71, 127
3, 11708, Note_off_c, 1, 71, 100
3, 11712, Note_on_c, 1, 69, 127
3, 11772, Note_off_c, 1, 69, 100
3, 11776, Note_on_c, 1, 71, 127
3, 11836, Note_off_c, 1, 71, 100
3, 11840, Note_on_c, 1, 69, 127
3, 11900, Note_off_c, 1, 69, 100
3, 11904, Note_on_c, 1, 67, 127
3, 11964, Note_off_c, 1, 67, 100
3, 11968, Note_on_c, 1, 69, 127
3, 12028, Note_off_c, 1, 69, 100
3, 12032, Note_on_c, 1, 67, 127
3, 12092, Note_off_c, 1, 67, 100
3, 12096, Note_on_c, 1, 66, 127
3, 12156, Note_off_c, 1, 66, 100
3, 12160, Note_on_c, 1, 67, 127
3, 12220, Note_off_c, 1, 67, 100
3, 12224, Note_on_c, 1, 66, 127
3, 12284, Note_off_c, 1, 66, 100
3, 12288, Note_on_c, 1, 64, 127
3, 12348, Note_off_c, 1, 64, 100
3, 12352, Note_on_c, 1, 66, 127
3, 12412, Note_off_c, 1, 66, 100
3, 12416, Note_on_c, 1, 64, 127
3, 12476, Note_off_c, 1, 64, 100
3, 12480, Note_on_c, 1, 62, 127
3, 12540, Note_off_c, 1, 62, 100
3, 12544, Note_on_c, 1, 64, 127
3, 12604, Note_off_c, 1, 64, 100
3, 12608, Note_on_c, 1, 62, 127
3, 12668, Note_off_c, 1, 62, 100
3, 12672, Note_on_c, 1, 61, 127
3, 12732, Note_off_c, 1, 61, 100
3, 12736, Note_on_c, 1, 62, 127
3, 12796, Note_off_c, 1, 62, 100
3, 12800, Note_on_c, 1, 61, 127
3, 12860, Note_off_c, 1, 61, 100
3, 12864, Note_on_c, 1, 59, 127
3, 12924, Note_off_c, 1, 59, 100
3, 12928, Note_on_c, 1, 61, 127
3, 12988, Note_off_c, 1, 61, 100
3, 12992, Note_on_c, 1, 59, 127
3, 13052, Note_off_c, 1, 59, 100
3, 13056, Note_on_c, 1, 57, 127
3, 13116, Note_off_c, 1, 57, 100
3, 13120, Note_on_c, 1, 59, 127
3, 13180, Note_off_c, 1, 59, 100
3, 13184, Note_on_c, 1, 57, 127
3, 13244, Note_off_c, 1, 57, 100
3, 13248, Note_on_c, 1, 55, 127
3, 13308, Note_off_c, 1, 55, 100
3, 13312, Note_on_c, 1, 57, 127
3, 13372, Note_off_c, 1, 57, 100
3, 13376, Note_on_c, 1, 55, 127
3, 13436, Note_off_c, 1, 55, 100
3, 13440, Note_on_c, 1, 54, 127
3, 13500, Note_off_c, 1, 54, 100
3, 13504, Note_on_c, 1, 55, 127
3, 13564, Note_off_c, 1, 55, 100
3, 13568, Note_on_c, 1, 54, 127
3, 13628, Note_off_c, 1, 54, 100
3, 13632, Note_on_c, 1, 52, 127
3, 13692, Note_off_c, 1, 52, 100
3, 13696, Note_on_c, 1, 54, 127
3, 13756, Note_off_c, 1, 54, 100
3, 13760, Note_on_c, 1, 52, 127
3, 13820, Note_off_c, 1, 52, 100
3, 13824, Note_on_c, 1, 50, 127
3, 13884, Note_off_c, 1, 50, 100
3, 14016, Note_on_c, 1, 57, 127
3, 14076, Note_off_c, 1, 57, 100
3, 14208, Note_on_c, 1, 66, 127
3, 14268, Note_off_c, 1, 66, 100
3, 14400, Note_on_c, 1, 57, 127
3, 14460, Note_off_c, 1, 57, 100
3, 14592, Note_on_c, 1, 50, 127
3, 14652, Note_off_c, 1, 50, 100
3, 14784, Note_on_c, 1, 60, 127
3, 14844, Note_off_c, 1, 60, 100
3, 14976, Note_on_c, 1, 59, 127
3, 15036, Note_off_c, 1, 59, 100
3, 15040, Note_on_c, 1, 55, 127
3, 15100, Note_off_c, 1, 55, 100
3, 15104, Note_on_c, 1, 62, 127
3, 15164, Note_off_c, 1, 62, 100
3, 15168, Note_on_c, 1, 61, 127
3, 15228, Note_off_c, 1, 61, 100
3, 15232, Note_on_c, 1, 57, 127
3, 15292, Note_off_c, 1, 57, 100
3, 15296, Note_on_c, 1, 64, 127
3, 15356, Note_off_c, 1, 64, 100
3, 15360, Note_on_c, 1, 62, 127
3, 15420, Note_off_c, 1, 62, 100
3, 15424, Note_on_c, 1, 59, 127
3, 15484, Note_off_c, 1, 59, 100
3, 15488, Note_on_c, 1, 66, 127
3, 15548, Note_off_c, 1, 66, 100
3, 15552, Note_on_c, 1, 64, 127
3, 15612, Note_off_c, 1, 64, 100
3, 15616, Note_on_c, 1, 61, 127
3, 15676, Note_off_c, 1, 61, 100
3, 15680, Note_on_c, 1, 67, 127
3, 15740, Note_off_c, 1, 67, 100
3, 15744, Note_on_c, 1, 66, 127
3, 15804, Note_off_c, 1, 66, 100
3, 15808, Note_on_c, 1, 62, 127
3, 15868, Note_off_c, 1, 62, 100
3, 15872, Note_on_c, 1, 69, 127
3, 15932, Note_off_c, 1, 69, 100
3, 15936, Note_on_c, 1, 67, 127
3, 16000, Note_on_c, 1, 64, 127
3, 16056, Note_off_c, 1, 67, 100
3, 16060, Note_off_c, 1, 64, 100
3, 16064, Note_on_c, 1, 71, 127
3, 16124, Note_off_c, 1, 71, 100
3, 16128, Note_on_c, 1, 69, 127
3, 16316, Note_off_c, 1, 69, 100
3, 16384, Note_on_c, 1, 71, 127
3, 16444, Note_off_c, 1, 71, 100
3, 16448, Note_on_c, 1, 73, 127
3, 16508, Note_off_c, 1, 73, 100
3, 16512, Note_on_c, 1, 74, 127
3, 16572, Note_off_c, 1, 74, 100
3, 16576, Note_on_c, 1, 73, 127
3, 16636, Note_off_c, 1, 73, 100
3, 16640, Note_on_c, 1, 71, 127
3, 16700, Note_off_c, 1, 71, 100
3, 16704, Note_on_c, 1, 69, 127
3, 16828, Note_off_c, 1, 69, 100
3, 16896, Note_on_c, 1, 71, 127
3, 16936, Note_off_c, 1, 71, 100
3, 17088, Note_on_c, 1, 74, 127
3, 17132, Note_off_c, 1, 74, 100
3, 17136, Note_on_c, 1, 73, 127
3, 17180, Note_off_c, 1, 73, 100
3, 17184, Note_on_c, 1, 71, 127
3, 17228, Note_off_c, 1, 71, 100
3, 17232, Note_on_c, 1, 73, 127
3, 17276, Note_off_c, 1, 73, 100
3, 17280, Note_on_c, 1, 74, 127
3, 17320, Note_off_c, 1, 74, 100
3, 17344, Note_on_c, 1, 69, 127
3, 17404, Note_off_c, 1, 69, 100
3, 17408, Note_on_c, 1, 66, 127
3, 17468, Note_off_c, 1, 66, 100
3, 17472, Note_on_c, 1, 62, 127
3, 17532, Note_off_c, 1, 62, 100
3, 17536, Note_on_c, 1, 57, 127
3, 17596, Note_off_c, 1, 57, 100
3, 17600, Note_on_c, 1, 54, 127
3, 17660, Note_off_c, 1, 54, 100
3, 17664, Note_on_c, 1, 50, 127
3, 17724, Note_off_c, 1, 50, 100
3, 18432, Note_on_c, 1, 55, 112
3, 18492, Note_off_c, 1, 55, 100
3, 18624, Note_on_c, 1, 59, 112
3, 18684, Note_off_c, 1, 59, 100
3, 18816, Note_on_c, 1, 62, 112
3, 18876, Note_off_c, 1, 62, 100
3, 19008, Note_on_c, 1, 67, 112
3, 19068, Note_off_c, 1, 67, 100
3, 19200, Note_on_c, 1, 71, 112
3, 19260, Note_off_c, 1, 71, 100
3, 19392, Note_on_c, 1, 73, 112
3, 19452, Note_off_c, 1, 73, 100
3, 19680, Note_on_c, 1, 74, 112
3, 19772, Note_off_c, 1, 74, 100
3, 19872, Note_on_c, 1, 69, 112
3, 19964, Note_off_c, 1, 69, 100
3, 20064, Note_on_c, 1, 66, 112
3, 20156, Note_off_c, 1, 66, 100
3, 20256, Note_on_c, 1, 62, 112
3, 20348, Note_off_c, 1, 62, 100
3, 20448, Note_on_c, 1, 57, 112
3, 20540, Note_off_c, 1, 57, 100
3, 20544, Note_on_c, 1, 55, 112
3, 20636, Note_off_c, 1, 55, 100
3, 20640, Note_on_c, 1, 54, 112
3, 20732, Note_off_c, 1, 54, 100
3, 20736, Note_on_c, 1, 52, 112
3, 20796, Note_off_c, 1, 52, 100
3, 20928, Note_on_c, 1, 55, 112
3, 20988, Note_off_c, 1, 55, 100
3, 21120, Note_on_c, 1, 57, 112
3, 21180, Note_off_c, 1, 57, 100
3, 21312, Note_on_c, 1, 61, 112
3, 21372, Note_off_c, 1, 61, 100
3, 21504, Note_on_c, 1, 64, 112
3, 21564, Note_off_c, 1, 64, 100
3, 21696, Note_on_c, 1, 67, 112
3, 21756, Note_off_c, 1, 67, 100
3, 21984, Note_on_c, 1, 66, 112
3, 22076, Note_off_c, 1, 66, 100
3, 22176, Note_on_c, 1, 62, 112
3, 22268, Note_off_c, 1, 62, 100
3, 22368, Note_on_c, 1, 57, 112
3, 22460, Note_off_c, 1, 57, 100
3, 22560, Note_on_c, 1, 54, 112
3, 22652, Note_off_c, 1, 54, 100
3, 22752, Note_on_c, 1, 52, 112
3, 22844, Note_off_c, 1, 52, 100
3, 22848, Note_on_c, 1, 50, 112
3, 22940, Note_off_c, 1, 50, 100
3, 22944, Note_on_c, 1, 48, 112
3, 23036, Note_off_c, 1, 48, 100
3, 23040, Note_on_c, 1, 47, 112
3, 23100, Note_off_c, 1, 47, 100
3, 23232, Note_on_c, 1, 50, 112
3, 23292, Note_off_c, 1, 50, 100
3, 23424, Note_on_c, 1, 55, 112
3, 23484, Note_off_c, 1, 55, 100
3, 23616, Note_on_c, 1, 59, 112
3, 23676, Note_off_c, 1, 59, 100
3, 23808, Note_on_c, 1, 62, 112
3, 23868, Note_off_c, 1, 62, 100
3, 24000, Note_on_c, 1, 65, 112
3, 24060, Note_off_c, 1, 65, 100
3, 24288, Note_on_c, 1, 64, 112
3, 24380, Note_off_c, 1, 64, 100
3, 24480, Note_on_c, 1, 60, 112
3, 24572, Note_off_c, 1, 60, 100
3, 24672, Note_on_c, 1, 55, 112
3, 24764, Note_off_c, 1, 55, 100
3, 24864, Note_on_c, 1, 52, 112
3, 24956, Note_off_c, 1, 52, 100
3, 25056, Note_on_c, 1, 48, 112
3, 25148, Note_off_c, 1, 48, 100
3, 25152, Note_on_c, 1, 47, 112
3, 25244, Note_off_c, 1, 47, 100
3, 25248, Note_on_c, 1, 45, 112
3, 25340, Note_off_c, 1, 45, 100
3, 25344, Note_on_c, 1, 50, 112
3, 25404, Note_off_c, 1, 50, 100
3, 25536, Note_on_c, 1, 54, 112
3, 25596, Note_off_c, 1, 54, 100
3, 25728, Note_on_c, 1, 57, 112
3, 25788, Note_off_c, 1, 57, 100
3, 25920, Note_on_c, 1, 62, 112
3, 25980, Note_off_c, 1, 62, 100
3, 26112, Note_on_c, 1, 66, 112
3, 26172, Note_off_c, 1, 66, 100
3, 26304, Note_on_c, 1, 69, 112
3, 26364, Note_off_c, 1, 69, 100
3, 26592, Note_on_c, 1, 71, 112
3, 26684, Note_off_c, 1, 71, 100
3, 26784, Note_on_c, 1, 67, 112
3, 26876, Note_off_c, 1, 67, 100
3, 26976, Note_on_c, 1, 62, 112
3, 27068, Note_off_c, 1, 62, 100
3, 27168, Note_on_c, 1, 59, 112
3, 27260, Note_off_c, 1, 59, 100
3, 27360, Note_on_c, 1, 57, 112
3, 27452, Note_off_c, 1, 57, 100
3, 27456, Note_on_c, 1, 55, 112
3, 27548, Note_off_c, 1, 55, 100
3, 27552, Note_on_c, 1, 54, 112
3, 27644, Note_off_c, 1, 54, 100
3, 27648, Note_on_c, 1, 55, 112
3, 27708, Note_off_c, 1, 55, 100
3, 28032, Note_on_c, 1, 83, 112
3, 28076, Note_off_c, 1, 83, 100
3, 28080, Note_on_c, 1, 81, 112
3, 28124, Note_off_c, 1, 81, 100
3, 28128, Note_on_c, 1, 83, 112
3, 28412, Note_off_c, 1, 83, 100
3, 28608, Note_on_c, 1, 64, 112
3, 28668, Note_off_c, 1, 64, 100
3, 28800, Note_on_c, 1, 54, 112
3, 28860, Note_off_c, 1, 54, 100
3, 29184, Note_on_c, 1, 81, 112
3, 29228, Note_off_c, 1, 81, 100
3, 29232, Note_on_c, 1, 79, 112
3, 29276, Note_off_c, 1, 79, 100
3, 29280, Note_on_c, 1, 81, 112
3, 29564, Note_off_c, 1, 81, 100
3, 29760, Note_on_c, 1, 62, 112
3, 29820, Note_off_c, 1, 62, 100
3, 29952, Note_on_c, 1, 71, 112
3, 30012, Note_off_c, 1, 71, 100
3, 30016, Note_on_c, 1, 72, 112
3, 30076, Note_off_c, 1, 72, 100
3, 30080, Note_on_c, 1, 71, 112
3, 30140, Note_off_c, 1, 71, 100
3, 30144, Note_on_c, 1, 69, 112
3, 30204, Note_off_c, 1, 69, 100
3, 30208, Note_on_c, 1, 71, 112
3, 30268, Note_off_c, 1, 71, 100
3, 30272, Note_on_c, 1, 69, 112
3, 30332, Note_off_c, 1, 69, 100
3, 30336, Note_on_c, 1, 67, 112
3, 30396, Note_off_c, 1, 67, 100
3, 30400, Note_on_c, 1, 69, 112
3, 30460, Note_off_c, 1, 69, 100
3, 30464, Note_on_c, 1, 67, 112
3, 30524, Note_off_c, 1, 67, 100
3, 30528, Note_on_c, 1, 66, 112
3, 30588, Note_off_c, 1, 66, 100
3, 30592, Note_on_c, 1, 67, 112
3, 30652, Note_off_c, 1, 67, 100
3, 30656, Note_on_c, 1, 66, 112
3, 30716, Note_off_c, 1, 66, 100
3, 30720, Note_on_c, 1, 64, 112
3, 30780, Note_off_c, 1, 64, 100
3, 30784, Note_on_c, 1, 66, 112
3, 30844, Note_off_c, 1, 66, 100
3, 30848, Note_on_c, 1, 64, 112
3, 30908, Note_off_c, 1, 64, 100
3, 30912, Note_on_c, 1, 62, 112
3, 30972, Note_off_c, 1, 62, 100
3, 30976, Note_on_c, 1, 64, 112
3, 31036, Note_off_c, 1, 64, 100
3, 31040, Note_on_c, 1, 62, 112
3, 31100, Note_off_c, 1, 62, 100
3, 31104, Note_on_c, 1, 61, 112
3, 31164, Note_off_c, 1, 61, 100
3, 31168, Note_on_c, 1, 62, 112
3, 31228, Note_off_c, 1, 62, 100
3, 31232, Note_on_c, 1, 61, 112
3, 31292, Note_off_c, 1, 61, 100
3, 31296, Note_on_c, 1, 59, 112
3, 31356, Note_off_c, 1, 59, 100
3, 31360, Note_on_c, 1, 61, 112
3, 31420, Note_off_c, 1, 61, 100
3, 31424, Note_on_c, 1, 59, 112
3, 31484, Note_off_c, 1, 59, 100
3, 31488, Note_on_c, 1, 57, 112
3, 31548, Note_off_c, 1, 57, 100
3, 31552, Note_on_c, 1, 59, 112
3, 31612, Note_off_c, 1, 59, 100
3, 31616, Note_on_c, 1, 57, 112
3, 31676, Note_off_c, 1, 57, 100
3, 31680, Note_on_c, 1, 55, 112
3, 31740, Note_off_c, 1, 55, 100
3, 31744, Note_on_c, 1, 57, 112
3, 31804, Note_off_c, 1, 57, 100
3, 31808, Note_on_c, 1, 55, 112
3, 31868, Note_off_c, 1, 55, 100
3, 31872, Note_on_c, 1, 54, 112
3, 31932, Note_off_c, 1, 54, 100
3, 31936, Note_on_c, 1, 55, 112
3, 31996, Note_off_c, 1, 55, 100
3, 32000, Note_on_c, 1, 54, 112
3, 32060, Note_off_c, 1, 54, 100
3, 32064, Note_on_c, 1, 52, 112
3, 32124, Note_off_c, 1, 52, 100
3, 32128, Note_on_c, 1, 54, 112
3, 32188, Note_off_c, 1, 54, 100
3, 32192, Note_on_c, 1, 52, 112
3, 32252, Note_off_c, 1, 52, 100
3, 32256, Note_on_c, 1, 50, 112
3, 32316, Note_off_c, 1, 50, 100
3, 32448, Note_on_c, 1, 57, 112
3, 32508, Note_off_c, 1, 57, 100
3, 32640, Note_on_c, 1, 66, 112
3, 32700, Note_off_c, 1, 66, 100
3, 32832, Note_on_c, 1, 57, 112
3, 32892, Note_off_c, 1, 57, 100
3, 33024, Note_on_c, 1, 50, 112
3, 33084, Note_off_c, 1, 50, 100
3, 33216, Note_on_c, 1, 60, 112
3, 33276, Note_off_c, 1, 60, 100
3, 33408, Note_on_c, 1, 59, 112
3, 33468, Note_off_c, 1, 59, 100
3, 33472, Note_on_c, 1, 55, 112
3, 33532, Note_off_c, 1, 55, 100
3, 33536, Note_on_c, 1, 62, 112
3, 33596, Note_off_c, 1, 62, 100
3, 33600, Note_on_c, 1, 61, 112
3, 33660, Note_off_c, 1, 61, 100
3, 33664, Note_on_c, 1, 57, 112
3, 33724, Note_off_c, 1, 57, 100
3, 33728, Note_on_c, 1, 64, 112
3, 33788, Note_off_c, 1, 64, 100
3, 33792, Note_on_c, 1, 62, 112
3, 33852, Note_off_c, 1, 62, 100
3, 33856, Note_on_c, 1, 59, 112
3, 33916, Note_off_c, 1, 59, 100
3, 33920, Note_on_c, 1, 66, 112
3, 33980, Note_off_c, 1, 66, 100
3, 33984, Note_on_c, 1, 64, 112
3, 34044, Note_off_c, 1, 64, 100
3, 34048, Note_on_c, 1, 61, 112
3, 34108, Note_off_c, 1, 61, 100
3, 34112, Note_on_c, 1, 67, 112
3, 34172, Note_off_c, 1, 67, 100
3, 34176, Note_on_c, 1, 66, 112
3, 34236, Note_off_c, 1, 66, 100
3, 34240, Note_on_c, 1, 62, 112
3, 34300, Note_off_c, 1, 62, 100
3, 34304, Note_on_c, 1, 69, 112
3, 34364, Note_off_c, 1, 69, 100
3, 34368, Note_on_c, 1, 67, 112
3, 34432, Note_on_c, 1, 64, 112
3, 34488, Note_off_c, 1, 67, 100
3, 34492, Note_off_c, 1, 64, 100
3, 34496, Note_on_c, 1, 71, 112
3, 34556, Note_off_c, 1, 71, 100
3, 34560, Note_on_c, 1, 69, 112
3, 34748, Note_off_c, 1, 69, 100
3, 34816, Note_on_c, 1, 71, 112
3, 34876, Note_off_c, 1, 71, 100
3, 34880, Note_on_c, 1, 73, 112
3, 34940, Note_off_c, 1, 73, 100
3, 34944, Note_on_c, 1, 74, 112
3, 35004, Note_off_c, 1, 74, 100
3, 35008, Note_on_c, 1, 73, 112
3, 35068, Note_off_c, 1, 73, 100
3, 35072, Note_on_c, 1, 71, 112
3, 35132, Note_off_c, 1, 71, 100
3, 35136, Note_on_c, 1, 69, 112
3, 35260, Note_off_c, 1, 69, 100
3, 35328, Note_on_c, 1, 71, 112
3, 35368, Note_off_c, 1, 71, 100
3, 35520, Note_on_c, 1, 74, 112
3, 35564, Note_off_c, 1, 74, 100
3, 35568, Note_on_c, 1, 73, 112
3, 35612, Note_off_c, 1, 73, 100
3, 35616, Note_on_c, 1, 71, 112
3, 35660, Note_off_c, 1, 71, 100
3, 35664, Note_on_c, 1, 73, 112
3, 35708, Note_off_c, 1, 73, 100
3, 35712, Note_on_c, 1, 74, 112
3, 35752, Note_off_c, 1, 74, 100
3, 35776, Note_on_c, 1, 69, 112
3, 35836, Note_off_c, 1, 69, 100
3, 35840, Note_on_c, 1, 66, 112
3, 35900, Note_off_c, 1, 66, 100
3, 35904, Note_on_c, 1, 62, 112
3, 35964, Note_off_c, 1, 62, 100
3, 35968, Note_on_c, 1, 57, 112
3, 36028, Note_off_c, 1, 57, 100
3, 36032, Note_on_c, 1, 54, 112
3, 36092, Note_off_c, 1, 54, 100
3, 36096, Note_on_c, 1, 50, 112
3, 36156, Note_off_c, 1, 50, 100
3, 36864, Note_on_c, 1, 50, 127
3, 36924, Note_off_c, 1, 50, 100
3, 37056, Note_on_c, 1, 38, 127
3, 37116, Note_off_c, 1, 38, 100
3, 37248, Note_on_c, 1, 42, 127
3, 37308, Note_off_c, 1, 42, 100
3, 37440, Note_on_c, 1, 45, 127
3, 37500, Note_off_c, 1, 45, 100
3, 37632, Note_on_c, 1, 50, 127
3, 37692, Note_off_c, 1, 50, 100
3, 37824, Note_on_c, 1, 54, 127
3, 37884, Note_off_c, 1, 54, 100
3, 38016, Note_on_c, 1, 55, 127
3, 38076, Note_off_c, 1, 55, 100
3, 38208, Note_on_c, 1, 59, 127
3, 38268, Note_off_c, 1, 59, 100
3, 38400, Note_on_c, 1, 62, 127
3, 38460, Note_off_c, 1, 62, 100
3, 38592, Note_on_c, 1, 67, 127
3, 38652, Note_off_c, 1, 67, 100
3, 38784, Note_on_c, 1, 71, 127
3, 38828, Note_off_c, 1, 71, 100
3, 38832, Note_on_c, 1, 69, 127
3, 38876, Note_off_c, 1, 69, 100
3, 38880, Note_on_c, 1, 71, 127
3, 39164, Note_off_c, 1, 71, 100
3, 39232, Note_on_c, 1, 64, 127
3, 39292, Note_off_c, 1, 64, 100
3, 39296, Note_on_c, 1, 63, 127
3, 39356, Note_off_c, 1, 63, 100
3, 39360, Note_on_c, 1, 64, 127
3, 39420, Note_off_c, 1, 64, 100
3, 39424, Note_on_c, 1, 66, 127
3, 39484, Note_off_c, 1, 66, 100
3, 39488, Note_on_c, 1, 67, 127
3, 39548, Note_off_c, 1, 67, 100
3, 39552, Note_on_c, 1, 69, 127
3, 39612, Note_off_c, 1, 69, 100
3, 39616, Note_on_c, 1, 67, 127
3, 39676, Note_off_c, 1, 67, 100
3, 39680, Note_on_c, 1, 66, 127
3, 39740, Note_off_c, 1, 66, 100
3, 39744, Note_on_c, 1, 67, 127
3, 39804, Note_off_c, 1, 67, 100
3, 39808, Note_on_c, 1, 69, 127
3, 39868, Note_off_c, 1, 69, 100
3, 39872, Note_on_c, 1, 71, 127
3, 39932, Note_off_c, 1, 71, 100
3, 39936, Note_on_c, 1, 72, 127
3, 39996, Note_off_c, 1, 72, 100
3, 40000, Note_on_c, 1, 71, 127
3, 40060, Note_off_c, 1, 71, 100
3, 40064, Note_on_c, 1, 69, 127
3, 40124, Note_off_c, 1, 69, 100
3, 40128, Note_on_c, 1, 67, 127
3, 40188, Note_off_c, 1, 67, 100
3, 40192, Note_on_c, 1, 66, 127
3, 40252, Note_off_c, 1, 66, 100
3, 40256, Note_on_c, 1, 64, 127
3, 40316, Note_off_c, 1, 64, 100
3, 40320, Note_on_c, 1, 63, 127
3, 40572, Note_off_c, 1, 63, 100
3, 40576, Note_on_c, 1, 64, 127
3, 40636, Note_off_c, 1, 64, 100
3, 40640, Note_on_c, 1, 66, 127
3, 40700, Note_off_c, 1, 66, 100
3, 40704, Note_on_c, 1, 67, 127
3, 40764, Note_off_c, 1, 67, 100
3, 40768, Note_on_c, 1, 66, 127
3, 40828, Note_off_c, 1, 66, 100
3, 40832, Note_on_c, 1, 64, 127
3, 40892, Note_off_c, 1, 64, 100
3, 40896, Note_on_c, 1, 66, 127
3, 40956, Note_off_c, 1, 66, 100
3, 40960, Note_on_c, 1, 67, 127
3, 41020, Note_off_c, 1, 67, 100
3, 41024, Note_on_c, 1, 69, 127
3, 41084, Note_off_c, 1, 69, 100
3, 41088, Note_on_c, 1, 59, 127
3, 41148, Note_off_c, 1, 59, 100
3, 41280, Note_on_c, 1, 57, 127
3, 41340, Note_off_c, 1, 57, 100
3, 41472, Note_on_c, 1, 55, 127
3, 41532, Note_off_c, 1, 55, 100
3, 41536, Note_on_c, 1, 54, 127
3, 41596, Note_off_c, 1, 54, 100
3, 41600, Note_on_c, 1, 52, 127
3, 41724, Note_off_c, 1, 52, 100
3, 41728, Note_on_c, 1, 51, 127
3, 41788, Note_off_c, 1, 51, 100
3, 41792, Note_on_c, 1, 52, 127
3, 41852, Note_off_c, 1, 52, 100
3, 41856, Note_on_c, 1, 53, 127
3, 41916, Note_off_c, 1, 53, 100
3, 41920, Note_on_c, 1, 52, 127
3, 41980, Note_off_c, 1, 52, 100
3, 41984, Note_on_c, 1, 53, 127
3, 42044, Note_off_c, 1, 53, 100
3, 42048, Note_on_c, 1, 54, 127
3, 42108, Note_off_c, 1, 54, 100
3, 42112, Note_on_c, 1, 52, 127
3, 42172, Note_off_c, 1, 52, 100
3, 42176, Note_on_c, 1, 54, 127
3, 42236, Note_off_c, 1, 54, 100
3, 42240, Note_on_c, 1, 55, 127
3, 42300, Note_off_c, 1, 55, 100
3, 42304, Note_on_c, 1, 54, 127
3, 42364, Note_off_c, 1, 54, 100
3, 42368, Note_on_c, 1, 55, 127
3, 42428, Note_off_c, 1, 55, 100
3, 42432, Note_on_c, 1, 56, 127
3, 42492, Note_off_c, 1, 56, 100
3, 42496, Note_on_c, 1, 54, 127
3, 42556, Note_off_c, 1, 54, 100
3, 42560, Note_on_c, 1, 56, 127
3, 42620, Note_off_c, 1, 56, 100
3, 42624, Note_on_c, 1, 57, 127
3, 42812, Note_off_c, 1, 57, 100
3, 42880, Note_on_c, 1, 58, 127
3, 42940, Note_off_c, 1, 58, 100
3, 42944, Note_on_c, 1, 59, 127
3, 43004, Note_off_c, 1, 59, 100
3, 43008, Note_on_c, 1, 60, 127
3, 43068, Note_off_c, 1, 60, 100
3, 43072, Note_on_c, 1, 59, 127
3, 43132, Note_off_c, 1, 59, 100
3, 43136, Note_on_c, 1, 60, 127
3, 43196, Note_off_c, 1, 60, 100
3, 43200, Note_on_c, 1, 61, 127
3, 43260, Note_off_c, 1, 61, 100
3, 43264, Note_on_c, 1, 59, 127
3, 43324, Note_off_c, 1, 59, 100
3, 43328, Note_on_c, 1, 61, 127
3, 43388, Note_off_c, 1, 61, 100
3, 43392, Note_on_c, 1, 62, 127
3, 43452, Note_off_c, 1, 62, 100
3, 43456, Note_on_c, 1, 61, 127
3, 43516, Note_off_c, 1, 61, 100
3, 43520, Note_on_c, 1, 62, 127
3, 43580, Note_off_c, 1, 62, 100
3, 43584, Note_on_c, 1, 63, 127
3, 43644, Note_off_c, 1, 63, 100
3, 43648, Note_on_c, 1, 61, 127
3, 43708, Note_off_c, 1, 61, 100
3, 43712, Note_on_c, 1, 63, 127
3, 43752, Note_off_c, 1, 63, 100
3, 43776, Note_on_c, 1, 64, 127
3, 43836, Note_off_c, 1, 64, 100
3, 43840, Note_on_c, 1, 63, 127
3, 43900, Note_off_c, 1, 63, 100
3, 43904, Note_on_c, 1, 64, 127
3, 43964, Note_off_c, 1, 64, 100
3, 43968, Note_on_c, 1, 66, 127
3, 44028, Note_off_c, 1, 66, 100
3, 44032, Note_on_c, 1, 64, 127
3, 44092, Note_off_c, 1, 64, 100
3, 44096, Note_on_c, 1, 66, 127
3, 44156, Note_off_c, 1, 66, 100
3, 44160, Note_on_c, 1, 67, 127
3, 44220, Note_off_c, 1, 67, 100
3, 44224, Note_on_c, 1, 66, 127
3, 44284, Note_off_c, 1, 66, 100
3, 44288, Note_on_c, 1, 67, 127
3, 44348, Note_off_c, 1, 67, 100
3, 44352, Note_on_c, 1, 69, 127
3, 44412, Note_off_c, 1, 69, 100
3, 44416, Note_on_c, 1, 67, 127
3, 44476, Note_off_c, 1, 67, 100
3, 44480, Note_on_c, 1, 69, 127
3, 44540, Note_off_c, 1, 69, 100
3, 44544, Note_on_c, 1, 71, 127
3, 44604, Note_off_c, 1, 71, 100
3, 44608, Note_on_c, 1, 69, 127
3, 44668, Note_off_c, 1, 69, 100
3, 44672, Note_on_c, 1, 71, 127
3, 44732, Note_off_c, 1, 71, 100
3, 44736, Note_on_c, 1, 72, 127
3, 44796, Note_off_c, 1, 72, 100
3, 44800, Note_on_c, 1, 71, 127
3, 44860, Note_off_c, 1, 71, 100
3, 44864, Note_on_c, 1, 69, 127
3, 44924, Note_off_c, 1, 69, 100
3, 44928, Note_on_c, 1, 67, 127
3, 44988, Note_off_c, 1, 67, 100
3, 44992, Note_on_c, 1, 66, 127
3, 45052, Note_off_c, 1, 66, 100
3, 45056, Note_on_c, 1, 67, 127
3, 45116, Note_off_c, 1, 67, 100
3, 45120, Note_on_c, 1, 69, 127
3, 45180, Note_off_c, 1, 69, 100
3, 45184, Note_on_c, 1, 67, 127
3, 45244, Note_off_c, 1, 67, 100
3, 45248, Note_on_c, 1, 66, 127
3, 45308, Note_off_c, 1, 66, 100
3, 45312, Note_on_c, 1, 64, 127
3, 45696, Note_off_c, 1, 64, 100
3, 45888, Note_on_c, 1, 50, 127
3, 46076, Note_off_c, 1, 50, 100
3, 46080, Note_on_c, 1, 48, 127
3, 46140, Note_off_c, 1, 48, 100
3, 46272, Note_on_c, 1, 64, 127
3, 46332, Note_off_c, 1, 64, 100
3, 46464, Note_on_c, 1, 64, 127
3, 46524, Note_off_c, 1, 64, 100
3, 46656, Note_on_c, 1, 64, 127
3, 46716, Note_off_c, 1, 64, 100
3, 46848, Note_on_c, 1, 64, 127
3, 46908, Note_off_c, 1, 64, 100
3, 47040, Note_on_c, 1, 48, 127
3, 47228, Note_off_c, 1, 48, 100
3, 47232, Note_on_c, 1, 47, 127
3, 47292, Note_off_c, 1, 47, 100
3, 47424, Note_on_c, 1, 62, 127
3, 47484, Note_off_c, 1, 62, 100
3, 47616, Note_on_c, 1, 62, 127
3, 47676, Note_off_c, 1, 62, 100
3, 47808, Note_on_c, 1, 62, 127
3, 47868, Note_off_c, 1, 62, 100
3, 48000, Note_on_c, 1, 62, 127
3, 48060, Note_off_c, 1, 62, 100
3, 48192, Note_on_c, 1, 47, 127
3, 48380, Note_off_c, 1, 47, 100
3, 48384, Note_on_c, 1, 45, 127
3, 48444, Note_off_c, 1, 45, 100
3, 48640, Note_on_c, 1, 59, 127
3, 48700, Note_off_c, 1, 59, 100
3, 48704, Note_on_c, 1, 67, 127
3, 48764, Note_off_c, 1, 67, 100
3, 48832, Note_on_c, 1, 57, 127
3, 48892, Note_off_c, 1, 57, 100
3, 48896, Note_on_c, 1, 66, 127
3, 48956, Note_off_c, 1, 66, 100
3, 49024, Note_on_c, 1, 55, 127
3, 49084, Note_off_c, 1, 55, 100
3, 49088, Note_on_c, 1, 64, 127
3, 49148, Note_off_c, 1, 64, 100
3, 49216, Note_on_c, 1, 54, 127
3, 49276, Note_off_c, 1, 54, 100
3, 49280, Note_on_c, 1, 62, 127
3, 49340, Note_off_c, 1, 62, 100
3, 49408, Note_on_c, 1, 55, 127
3, 49468, Note_off_c, 1, 55, 100
3, 49472, Note_on_c, 1, 64, 127
3, 49512, Note_off_c, 1, 64, 100
3, 49536, Note_on_c, 1, 50, 127
3, 49596, Note_off_c, 1, 50, 100
3, 49792, Note_on_c, 1, 57, 127
3, 49852, Note_off_c, 1, 57, 100
3, 49856, Note_on_c, 1, 66, 127
3, 49916, Note_off_c, 1, 66, 100
3, 49984, Note_on_c, 1, 59, 127
3, 50044, Note_off_c, 1, 59, 100
3, 50048, Note_on_c, 1, 67, 127
3, 50108, Note_off_c, 1, 67, 100
3, 50176, Note_on_c, 1, 60, 127
3, 50236, Note_off_c, 1, 60, 100
3, 50240, Note_on_c, 1, 69, 127
3, 50300, Note_off_c, 1, 69, 100
3, 50368, Note_on_c, 1, 59, 127
3, 50428, Note_off_c, 1, 59, 100
3, 50432, Note_on_c, 1, 67, 127
3, 50492, Note_off_c, 1, 67, 100
3, 50560, Note_on_c, 1, 57, 127
3, 50620, Note_off_c, 1, 57, 100
3, 50624, Note_on_c, 1, 66, 127
3, 50664, Note_off_c, 1, 66, 100
3, 50688, Note_on_c, 1, 55, 127
3, 50748, Note_off_c, 1, 55, 100
3, 50880, Note_on_c, 1, 67, 127
3, 51132, Note_off_c, 1, 67, 100
3, 51136, Note_on_c, 1, 71, 127
3, 51196, Note_off_c, 1, 71, 100
3, 51200, Note_on_c, 1, 64, 127
3, 51260, Note_off_c, 1, 64, 100
3, 51264, Note_on_c, 1, 65, 127
3, 51324, Note_off_c, 1, 65, 100
3, 51328, Note_on_c, 1, 69, 127
3, 51388, Note_off_c, 1, 69, 100
3, 51392, Note_on_c, 1, 62, 127
3, 51452, Note_off_c, 1, 62, 100
3, 51456, Note_on_c, 1, 64, 127
3, 51516, Note_off_c, 1, 64, 100
3, 51520, Note_on_c, 1, 67, 127
3, 51580, Note_off_c, 1, 67, 100
3, 51584, Note_on_c, 1, 60, 127
3, 51644, Note_off_c, 1, 60, 100
3, 51648, Note_on_c, 1, 62, 127
3, 51708, Note_off_c, 1, 62, 100
3, 51712, Note_on_c, 1, 65, 127
3, 51772, Note_off_c, 1, 65, 100
3, 51776, Note_on_c, 1, 59, 127
3, 51816, Note_off_c, 1, 59, 100
3, 51840, Note_on_c, 1, 60, 127
3, 51900, Note_off_c, 1, 60, 100
3, 51904, Note_on_c, 1, 55, 127
3, 51964, Note_off_c, 1, 55, 100
3, 51968, Note_on_c, 1, 64, 127
3, 52028, Note_off_c, 1, 64, 100
3, 52032, Note_on_c, 1, 62, 127
3, 52092, Note_off_c, 1, 62, 100
3, 52096, Note_on_c, 1, 59, 127
3, 52156, Note_off_c, 1, 59, 100
3, 52160, Note_on_c, 1, 65, 127
3, 52220, Note_off_c, 1, 65, 100
3, 52224, Note_on_c, 1, 64, 127
3, 52284, Note_off_c, 1, 64, 100
3, 52416, Note_on_c, 1, 79, 127
3, 52476, Note_off_c, 1, 79, 100
3, 52608, Note_on_c, 1, 84, 127
3, 52668, Note_off_c, 1, 84, 100
3, 52800, Note_on_c, 1, 76, 127
3, 52860, Note_off_c, 1, 76, 100
3, 52992, Note_on_c, 1, 74, 127
3, 53180, Note_off_c, 1, 74, 100
3, 53248, Note_on_c, 1, 76, 127
3, 53308, Note_off_c, 1, 76, 100
3, 53312, Note_on_c, 1, 78, 127
3, 53372, Note_off_c, 1, 78, 100
3, 53376, Note_on_c, 1, 79, 127
3, 53436, Note_off_c, 1, 79, 100
3, 53440, Note_on_c, 1, 78, 127
3, 53500, Note_off_c, 1, 78, 100
3, 53504, Note_on_c, 1, 76, 127
3, 53544, Note_off_c, 1, 76, 100
3, 53568, Note_on_c, 1, 74, 127
3, 53756, Note_off_c, 1, 74, 100
3, 53824, Note_on_c, 1, 72, 127
3, 53884, Note_off_c, 1, 72, 100
3, 53888, Note_on_c, 1, 71, 127
3, 53948, Note_off_c, 1, 71, 100
3, 53952, Note_on_c, 1, 69, 127
3, 54012, Note_off_c, 1, 69, 100
3, 54016, Note_on_c, 1, 71, 127
3, 54076, Note_off_c, 1, 71, 100
3, 54080, Note_on_c, 1, 72, 127
3, 54140, Note_off_c, 1, 72, 100
3, 54144, Note_on_c, 1, 71, 127
3, 54332, Note_off_c, 1, 71, 100
3, 54592, Note_on_c, 1, 59, 127
3, 54652, Note_off_c, 1, 59, 100
3, 54656, Note_on_c, 1, 62, 127
3, 54716, Note_off_c, 1, 62, 100
3, 54720, Note_on_c, 1, 67, 127
3, 54780, Note_off_c, 1, 67, 100
3, 54784, Note_on_c, 1, 71, 127
3, 54844, Note_off_c, 1, 71, 100
3, 54848, Note_on_c, 1, 74, 127
3, 54908, Note_off_c, 1, 74, 100
3, 54912, Note_on_c, 1, 79, 127
3, 54972, Note_off_c, 1, 79, 100
3, 55296, Note_on_c, 1, 50, 112
3, 55356, Note_off_c, 1, 50, 100
3, 55488, Note_on_c, 1, 38, 112
3, 55548, Note_off_c, 1, 38, 100
3, 55680, Note_on_c, 1, 42, 112
3, 55740, Note_off_c, 1, 42, 100
3, 55872, Note_on_c, 1, 45, 112
3, 55932, Note_off_c, 1, 45, 100
3, 56064, Note_on_c, 1, 50, 112
3, 56124, Note_off_c, 1, 50, 100
3, 56256, Note_on_c, 1, 54, 112
3, 56316, Note_off_c, 1, 54, 100
3, 56448, Note_on_c, 1, 55, 112
3, 56508, Note_off_c, 1, 55, 100
3, 56640, Note_on_c, 1, 59, 112
3, 56700, Note_off_c, 1, 59, 100
3, 56832, Note_on_c, 1, 62, 112
3, 56892, Note_off_c, 1, 62, 100
3, 57024, Note_on_c, 1, 67, 112
3, 57084, Note_off_c, 1, 67, 100
3, 57216, Note_on_c, 1, 71, 112
3, 57260, Note_off_c, 1, 71, 100
3, 57264, Note_on_c, 1, 69, 112
3, 57308, Note_off_c, 1, 69, 100
3, 57312, Note_on_c, 1, 71, 112
3, 57596, Note_off_c, 1, 71, 100
3, 57664, Note_on_c, 1, 64, 112
3, 57724, Note_off_c, 1, 64, 100
3, 57728, Note_on_c, 1, 63, 112
3, 57788, Note_off_c, 1, 63, 100
3, 57792, Note_on_c, 1, 64, 112
3, 57852, Note_off_c, 1, 64, 100
3, 57856, Note_on_c, 1, 66, 112
3, 57916, Note_off_c, 1, 66, 100
3, 57920, Note_on_c, 1, 67, 112
3, 57980, Note_off_c, 1, 67, 100
3, 57984, Note_on_c, 1, 69, 112
3, 58044, Note_off_c, 1, 69, 100
3, 58048, Note_on_c, 1, 67, 112
3, 58108, Note_off_c, 1, 67, 100
3, 58112, Note_on_c, 1, 66, 112
3, 58172, Note_off_c, 1, 66, 100
3, 58176, Note_on_c, 1, 67, 112
3, 58236, Note_off_c, 1, 67, 100
3, 58240, Note_on_c, 1, 69, 112
3, 58300, Note_off_c, 1, 69, 100
3, 58304, Note_on_c, 1, 71, 112
3, 58364, Note_off_c, 1, 71, 100
3, 58368, Note_on_c, 1, 72, 112
3, 58428, Note_off_c, 1, 72, 100
3, 58432, Note_on_c, 1, 71, 112
3, 58492, Note_off_c, 1, 71, 100
3, 58496, Note_on_c, 1, 69, 112
3, 58556, Note_off_c, 1, 69, 100
3, 58560, Note_on_c, 1, 67, 112
3, 58620, Note_off_c, 1, 67, 100
3, 58624, Note_on_c, 1, 66, 112
3, 58684, Note_off_c, 1, 66, 100
3, 58688, Note_on_c, 1, 64, 112
3, 58748, Note_off_c, 1, 64, 100
3, 58752, Note_on_c, 1, 63, 112
3, 59004, Note_off_c, 1, 63, 100
3, 59008, Note_on_c, 1, 64, 112
3, 59068, Note_off_c, 1, 64, 100
3, 59072, Note_on_c, 1, 66, 112
3, 59132, Note_off_c, 1, 66, 100
3, 59136, Note_on_c, 1, 67, 112
3, 59196, Note_off_c, 1, 67, 100
3, 59200, Note_on_c, 1, 66, 112
3, 59260, Note_off_c, 1, 66, 100
3, 59264, Note_on_c, 1, 64, 112
3, 59324, Note_off_c, 1, 64, 100
3, 59328, Note_on_c, 1, 66, 112
3, 59388, Note_off_c, 1, 66, 100
3, 59392, Note_on_c, 1, 67, 112
3, 59452, Note_off_c, 1, 67, 100
3, 59456, Note_on_c, 1, 69, 112
3, 59516, Note_off_c, 1, 69, 100
3, 59520, Note_on_c, 1, 59, 112
3, 59580, Note_off_c, 1, 59, 100
3, 59712, Note_on_c, 1, 57, 112
3, 59772, Note_off_c, 1, 57, 100
3, 59904, Note_on_c, 1, 55, 112
3, 59964, Note_off_c, 1, 55, 100
3, 59968, Note_on_c, 1, 54, 112
3, 60028, Note_off_c, 1, 54, 100
3, 60032, Note_on_c, 1, 52, 112
3, 60156, Note_off_c, 1, 52, 100
3, 60160, Note_on_c, 1, 51, 112
3, 60220, Note_off_c, 1, 51, 100
3, 60224, Note_on_c, 1, 52, 112
3, 60284, Note_off_c, 1, 52, 100
3, 60288, Note_on_c, 1, 53, 112
3, 60348, Note_off_c, 1, 53, 100
3, 60352, Note_on_c, 1, 52, 112
3, 60412, Note_off_c, 1, 52, 100
3, 60416, Note_on_c, 1, 53, 112
3, 60476, Note_off_c, 1, 53, 100
3, 60480, Note_on_c, 1, 54, 112
3, 60540, Note_off_c, 1, 54, 100
3, 60544, Note_on_c, 1, 52, 112
3, 60604, Note_off_c, 1, 52, 100
3, 60608, Note_on_c, 1, 54, 112
3, 60668, Note_off_c, 1, 54, 100
3, 60672, Note_on_c, 1, 55, 112
3, 60732, Note_off_c, 1, 55, 100
3, 60736, Note_on_c, 1, 54, 112
3, 60796, Note_off_c, 1, 54, 100
3, 60800, Note_on_c, 1, 55, 112
3, 60860, Note_off_c, 1, 55, 100
3, 60864, Note_on_c, 1, 56, 112
3, 60924, Note_off_c, 1, 56, 100
3, 60928, Note_on_c, 1, 54, 112
3, 60988, Note_off_c, 1, 54, 100
3, 60992, Note_on_c, 1, 56, 112
3, 61052, Note_off_c, 1, 56, 100
3, 61056, Note_on_c, 1, 57, 112
3, 61244, Note_off_c, 1, 57, 100
3, 61312, Note_on_c, 1, 58, 112
3, 61372, Note_off_c, 1, 58, 100
3, 61376, Note_on_c, 1, 59, 112
3, 61436, Note_off_c, 1, 59, 100
3, 61440, Note_on_c, 1, 60, 112
3, 61500, Note_off_c, 1, 60, 100
3, 61504, Note_on_c, 1, 59, 112
3, 61564, Note_off_c, 1, 59, 100
3, 61568, Note_on_c, 1, 60, 112
3, 61628, Note_off_c, 1, 60, 100
3, 61632, Note_on_c, 1, 61, 112
3, 61692, Note_off_c, 1, 61, 100
3, 61696, Note_on_c, 1, 59, 112
3, 61756, Note_off_c, 1, 59, 100
3, 61760, Note_on_c, 1, 61, 112
3, 61820, Note_off_c, 1, 61, 100
3, 61824, Note_on_c, 1, 62, 112
3, 61884, Note_off_c, 1, 62, 100
3, 61888, Note_on_c, 1, 61, 112
3, 61948, Note_off_c, 1, 61, 100
3, 61952, Note_on_c, 1, 62, 112
3, 62012, Note_off_c, 1, 62, 100
3, 62016, Note_on_c, 1, 63, 112
3, 62076, Note_off_c, 1, 63, 100
3, 62080, Note_on_c, 1, 61, 112
3, 62140, Note_off_c, 1, 61, 100
3, 62144, Note_on_c, 1, 63, 112
3, 62184, Note_off_c, 1, 63, 100
3, 62208, Note_on_c, 1, 64, 112
3, 62268, Note_off_c, 1, 64, 100
3, 62272, Note_on_c, 1, 63, 112
3, 62332, Note_off_c, 1, 63, 100
3, 62336, Note_on_c, 1, 64, 112
3, 62396, Note_off_c, 1, 64, 100
3, 62400, Note_on_c, 1, 66, 112
3, 62460, Note_off_c, 1, 66, 100
3, 62464, Note_on_c, 1, 64, 112
3, 62524, Note_off_c, 1, 64, 100
3, 62528, Note_on_c, 1, 66, 112
3, 62588, Note_off_c, 1, 66, 100
3, 62592, Note_on_c, 1, 67, 112
3, 62652, Note_off_c, 1, 67, 100
3, 62656, Note_on_c, 1, 66, 112
3, 62716, Note_off_c, 1, 66, 100
3, 62720, Note_on_c, 1, 67, 112
3, 62780, Note_off_c, 1, 67, 100
3, 62784, Note_on_c, 1, 69, 112
3, 62844, Note_off_c, 1, 69, 100
3, 62848, Note_on_c, 1, 67, 112
3, 62908, Note_off_c, 1, 67, 100
3, 62912, Note_on_c, 1, 69, 112
3, 62972, Note_off_c, 1, 69, 100
3, 62976, Note_on_c, 1, 71, 112
3, 63036, Note_off_c, 1, 71, 100
3, 63040, Note_on_c, 1, 69, 112
3, 63100, Note_off_c, 1, 69, 100
3, 63104, Note_on_c, 1, 71, 112
3, 63164, Note_off_c, 1, 71, 100
3, 63168, Note_on_c, 1, 72, 112
3, 63228, Note_off_c, 1, 72, 100
3, 63232, Note_on_c, 1, 71, 112
3, 63292, Note_off_c, 1, 71, 100
3, 63296, Note_on_c, 1, 69, 112
3, 63356, Note_off_c, 1, 69, 100
3, 63360, Note_on_c, 1, 67, 112
3, 63420, Note_off_c, 1, 67, 100
3, 63424, Note_on_c, 1, 66, 112
3, 63484, Note_off_c, 1, 66, 100
3, 63488, Note_on_c, 1, 67, 112
3, 63548, Note_off_c, 1, 67, 100
3, 63552, Note_on_c, 1, 69, 112
3, 63612, Note_off_c, 1, 69, 100
3, 63616, Note_on_c, 1, 67, 112
3, 63676, Note_off_c, 1, 67, 100
3, 63680, Note_on_c, 1, 66, 112
3, 63740, Note_off_c, 1, 66, 100
3, 63744, Note_on_c, 1, 64, 112
3, 64128, Note_off_c, 1, 64, 100
3, 64320, Note_on_c, 1, 50, 112
3, 64508, Note_off_c, 1, 50, 100
3, 64512, Note_on_c, 1, 48, 112
3, 64572, Note_off_c, 1, 48, 100
3, 64704, Note_on_c, 1, 64, 112
3, 64764, Note_off_c, 1, 64, 100
3, 64896, Note_on_c, 1, 64, 112
3, 64956, Note_off_c, 1, 64, 100
3, 65088, Note_on_c, 1, 64, 112
3, 65148, Note_off_c, 1, 64, 100
3, 65280, Note_on_c, 1, 64, 112
3, 65340, Note_off_c, 1, 64, 100
3, 65472, Note_on_c, 1, 48, 112
3, 65660, Note_off_c, 1, 48, 100
3, 65664, Note_on_c, 1, 47, 112
3, 65724, Note_off_c, 1, 47, 100
3, 65856, Note_on_c, 1, 62, 112
3, 65916, Note_off_c, 1, 62, 100
3, 66048, Note_on_c, 1, 62, 112
3, 66108, Note_off_c, 1, 62, 100
3, 66240, Note_on_c, 1, 62, 112
3, 66300, Note_off_c, 1, 62, 100
3, 66432, Note_on_c, 1, 62, 112
3, 66492, Note_off_c, 1, 62, 100
3, 66624, Note_on_c, 1, 47, 112
3, 66812, Note_off_c, 1, 47, 100
3, 66816, Note_on_c, 1, 45, 112
3, 66876, Note_off_c, 1, 45, 100
3, 67072, Note_on_c, 1, 59, 112
3, 67132, Note_off_c, 1, 59, 100
3, 67136, Note_on_c, 1, 67, 112
3, 67196, Note_off_c, 1, 67, 100
3, 67264, Note_on_c, 1, 57, 112
3, 67324, Note_off_c, 1, 57, 100
3, 67328, Note_on_c, 1, 66, 112
3, 67388, Note_off_c, 1, 66, 100
3, 67456, Note_on_c, 1, 55, 112
3, 67516, Note_off_c, 1, 55, 100
3, 67520, Note_on_c, 1, 64, 112
3, 67580, Note_off_c, 1, 64, 100
3, 67648, Note_on_c, 1, 54, 112
3, 67708, Note_off_c, 1, 54, 100
3, 67712, Note_on_c, 1, 62, 112
3, 67772, Note_off_c, 1, 62, 100
3, 67840, Note_on_c, 1, 55, 112
3, 67900, Note_off_c, 1, 55, 100
3, 67904, Note_on_c, 1, 64, 112
3, 67944, Note_off_c, 1, 64, 100
3, 67968, Note_on_c, 1, 50, 112
3, 68028, Note_off_c, 1, 50, 100
3, 68224, Note_on_c, 1, 57, 112
3, 68284, Note_off_c, 1, 57, 100
3, 68288, Note_on_c, 1, 66, 112
3, 68348, Note_off_c, 1, 66, 100
3, 68416, Note_on_c, 1, 59, 112
3, 68476, Note_off_c, 1, 59, 100
3, 68480, Note_on_c, 1, 67, 112
3, 68540, Note_off_c, 1, 67, 100
3, 68608, Note_on_c, 1, 60, 112
3, 68668, Note_off_c, 1, 60, 100
3, 68672, Note_on_c, 1, 69, 112
3, 68732, Note_off_c, 1, 69, 100
3, 68800, Note_on_c, 1, 59, 112
3, 68860, Note_off_c, 1, 59, 100
3, 68864, Note_on_c, 1, 67, 112
3, 68924, Note_off_c, 1, 67, 100
3, 68992, Note_on_c, 1, 57, 112
3, 69052, Note_off_c, 1, 57, 100
3, 69056, Note_on_c, 1, 66, 112
3, 69096, Note_off_c, 1, 66, 100
3, 69120, Note_on_c, 1, 55, 112
3, 69180, Note_off_c, 1, 55, 100
3, 69312, Note_on_c, 1, 67, 112
3, 69564, Note_off_c, 1, 67, 100
3, 69568, Note_on_c, 1, 71, 112
3, 69628, Note_off_c, 1, 71, 100
3, 69632, Note_on_c, 1, 64, 112
3, 69692, Note_off_c, 1, 64, 100
3, 69696, Note_on_c, 1, 65, 112
3, 69756, Note_off_c, 1, 65, 100
3, 69760, Note_on_c, 1, 69, 112
3, 69820, Note_off_c, 1, 69, 100
3, 69824, Note_on_c, 1, 62, 112
3, 69884, Note_off_c, 1, 62, 100
3, 69888, Note_on_c, 1, 64, 112
3, 69948, Note_off_c, 1, 64, 100
3, 69952, Note_on_c, 1, 67, 112
3, 70012, Note_off_c, 1, 67, 100
3, 70016, Note_on_c, 1, 60, 112
3, 70076, Note_off_c, 1, 60, 100
3, 70080, Note_on_c, 1, 62, 112
3, 70140, Note_off_c, 1, 62, 100
3, 70144, Note_on_c, 1, 65, 112
3, 70204, Note_off_c, 1, 65, 100
3, 70208, Note_on_c, 1, 59, 112
3, 70248, Note_off_c, 1, 59, 100
3, 70272, Note_on_c, 1, 60, 112
3, 70332, Note_off_c, 1, 60, 100
3, 70336, Note_on_c, 1, 55, 112
3, 70396, Note_off_c, 1, 55, 100
3, 70400, Note_on_c, 1, 64, 112
3, 70460, Note_off_c, 1, 64, 100
3, 70464, Note_on_c, 1, 62, 112
3, 70524, Note_off_c, 1, 62, 100
3, 70528, Note_on_c, 1, 59, 112
3, 70588, Note_off_c, 1, 59, 100
3, 70592, Note_on_c, 1, 65, 112
3, 70652, Note_off_c, 1, 65, 100
3, 70656, Note_on_c, 1, 64, 112
3, 70716, Note_off_c, 1, 64, 100
3, 70848, Note_on_c, 1, 79, 112
3, 70908, Note_off_c, 1, 79, 100
3, 71040, Note_on_c, 1, 84, 112
3, 71100, Note_off_c, 1, 84, 100
3, 71232, Note_on_c, 1, 76, 112
3, 71292, Note_off_c, 1, 76, 100
3, 71424, Note_on_c, 1, 74, 112
3, 71612, Note_off_c, 1, 74, 100
3, 71680, Note_on_c, 1, 76, 112
3, 71740, Note_off_c, 1, 76, 100
3, 71744, Note_on_c, 1, 78, 112
3, 71804, Note_off_c, 1, 78, 100
3, 71808, Note_on_c, 1, 79, 112
3, 71868, Note_off_c, 1, 79, 100
3, 71872, Note_on_c, 1, 78, 112
3, 71932, Note_off_c, 1, 78, 100
3, 71936, Note_on_c, 1, 76, 112
3, 71976, Note_off_c, 1, 76, 100
3, 72000, Note_on_c, 1, 74, 112
3, 72188, Note_off_c, 1, 74, 100
3, 72256, Note_on_c, 1, 72, 112
3, 72316, Note_off_c, 1, 72, 100
3, 72320, Note_on_c, 1, 71, 112
3, 72380, Note_off_c, 1, 71, 100
3, 72384, Note_on_c, 1, 69, 112
3, 72444, Note_off_c, 1, 69, 100
3, 72448, Note_on_c, 1, 71, 112
3, 72508, Note_off_c, 1, 71, 100
3, 72512, Note_on_c, 1, 72, 112
3, 72572, Note_off_c, 1, 72, 100
3, 72576, Note_on_c, 1, 71, 112
3, 72764, Note_off_c, 1, 71, 100
3, 73024, Note_on_c, 1, 59, 112
3, 73084, Note_off_c, 1, 59, 100
3, 73088, Note_on_c, 1, 62, 112
3, 73148, Note_off_c, 1, 62, 100
3, 73152, Note_on_c, 1, 67, 112
3, 73212, Note_off_c, 1, 67, 100
3, 73216, Note_on_c, 1, 71, 112
3, 73276, Note_off_c, 1, 71, 100
3, 73280, Note_on_c, 1, 74, 112
3, 73340, Note_off_c, 1, 74, 100
3, 73344, Note_on_c, 1, 79, 1
3, 73344, Note_on_c, 1, 79, 112
3, 73544, Note_off_c, 1, 79, 100
3, 74312, Note_off_c, 1, 79, 100
3, 74312, End_track
4, 0, Start_track
4, 0, Title_t, "BWV 988"
4, 0, Control_c, 2, 0, 0
4, 0, Program_c, 2, 6
4, 0, Control_c, 2, 7, 127
4, 0, Control_c, 2, 10, 127
4, 0, Control_c, 2, 91, 127
4, 0, Key_signature, 1, "major"
4, 96, Note_on_c, 2, 83, 127
4, 188, Note_off_c, 2, 83, 100
4, 288, Note_on_c, 2, 79, 127
4, 380, Note_off_c, 2, 79, 100
4, 480, Note_on_c, 2, 74, 127
4, 572, Note_off_c, 2, 74, 100
4, 672, Note_on_c, 2, 71, 127
4, 764, Note_off_c, 2, 71, 100
4, 864, Note_on_c, 2, 67, 127
4, 956, Note_off_c, 2, 67, 100
4, 960, Note_on_c, 2, 66, 127
4, 1052, Note_off_c, 2, 66, 100
4, 1056, Note_on_c, 2, 64, 127
4, 1148, Note_off_c, 2, 64, 100
4, 1152, Note_on_c, 2, 66, 127
4, 1212, Note_off_c, 2, 66, 100
4, 1344, Note_on_c, 2, 69, 127
4, 1404, Note_off_c, 2, 69, 100
4, 1536, Note_on_c, 2, 74, 127
4, 1596, Note_off_c, 2, 74, 100
4, 1728, Note_on_c, 2, 78, 127
4, 1788, Note_off_c, 2, 78, 100
4, 1920, Note_on_c, 2, 81, 127
4, 1980, Note_off_c, 2, 81, 100
4, 2112, Note_on_c, 2, 86, 127
4, 2172, Note_off_c, 2, 86, 100
4, 2400, Note_on_c, 2, 79, 127
4, 2492, Note_off_c, 2, 79, 100
4, 2592, Note_on_c, 2, 76, 127
4, 2684, Note_off_c, 2, 76, 100
4, 2784, Note_on_c, 2, 73, 127
4, 2876, Note_off_c, 2, 73, 100
4, 2976, Note_on_c, 2, 69, 127
4, 3068, Note_off_c, 2, 69, 100
4, 3168, Note_on_c, 2, 67, 127
4, 3260, Note_off_c, 2, 67, 100
4, 3264, Note_on_c, 2, 66, 127
4, 3356, Note_off_c, 2, 66, 100
4, 3360, Note_on_c, 2, 64, 127
4, 3452, Note_off_c, 2, 64, 100
4, 3456, Note_on_c, 2, 62, 127
4, 3516, Note_off_c, 2, 62, 100
4, 3648, Note_on_c, 2, 66, 127
4, 3708, Note_off_c, 2, 66, 100
4, 3840, Note_on_c, 2, 69, 127
4, 3900, Note_off_c, 2, 69, 100
4, 4032, Note_on_c, 2, 74, 127
4, 4092, Note_off_c, 2, 74, 100
4, 4224, Note_on_c, 2, 78, 127
4, 4284, Note_off_c, 2, 78, 100
4, 4416, Note_on_c, 2, 81, 127
4, 4476, Note_off_c, 2, 81, 100
4, 4704, Note_on_c, 2, 79, 127
4, 4796, Note_off_c, 2, 79, 100
4, 4896, Note_on_c, 2, 74, 127
4, 4988, Note_off_c, 2, 74, 100
4, 5088, Note_on_c, 2, 71, 127
4, 5180, Note_off_c, 2, 71, 100
4, 5280, Note_on_c, 2, 67, 127
4, 5372, Note_off_c, 2, 67, 100
4, 5472, Note_on_c, 2, 65, 127
4, 5564, Note_off_c, 2, 65, 100
4, 5568, Note_on_c, 2, 64, 127
4, 5660, Note_off_c, 2, 64, 100
4, 5664, Note_on_c, 2, 62, 127
4, 5756, Note_off_c, 2, 62, 100
4, 5760, Note_on_c, 2, 60, 127
4, 5820, Note_off_c, 2, 60, 100
4, 5952, Note_on_c, 2, 64, 127
4, 6012, Note_off_c, 2, 64, 100
4, 6144, Note_on_c, 2, 67, 127
4, 6204, Note_off_c, 2, 67, 100
4, 6336, Note_on_c, 2, 72, 127
4, 6396, Note_off_c, 2, 72, 100
4, 6528, Note_on_c, 2, 76, 127
4, 6588, Note_off_c, 2, 76, 100
4, 6720, Note_on_c, 2, 79, 127
4, 6780, Note_off_c, 2, 79, 100
4, 7008, Note_on_c, 2, 78, 127
4, 7100, Note_off_c, 2, 78, 100
4, 7200, Note_on_c, 2, 74, 127
4, 7292, Note_off_c, 2, 74, 100
4, 7392, Note_on_c, 2, 69, 127
4, 7484, Note_off_c, 2, 69, 100
4, 7584, Note_on_c, 2, 66, 127
4, 7676, Note_off_c, 2, 66, 100
4, 7776, Note_on_c, 2, 62, 127
4, 7868, Note_off_c, 2, 62, 100
4, 7872, Note_on_c, 2, 60, 127
4, 7964, Note_off_c, 2, 60, 100
4, 7968, Note_on_c, 2, 62, 127
4, 8060, Note_off_c, 2, 62, 100
4, 8064, Note_on_c, 2, 55, 127
4, 8124, Note_off_c, 2, 55, 100
4, 8256, Note_on_c, 2, 59, 127
4, 8316, Note_off_c, 2, 59, 100
4, 8448, Note_on_c, 2, 62, 127
4, 8508, Note_off_c, 2, 62, 100
4, 8640, Note_on_c, 2, 67, 127
4, 8700, Note_off_c, 2, 67, 100
4, 8832, Note_on_c, 2, 66, 127
4, 8892, Note_off_c, 2, 66, 100
4, 9024, Note_on_c, 2, 72, 127
4, 9084, Note_off_c, 2, 72, 100
4, 9216, Note_on_c, 2, 71, 127
4, 9276, Note_off_c, 2, 71, 100
4, 9280, Note_on_c, 2, 69, 127
4, 9340, Note_off_c, 2, 69, 100
4, 9344, Note_on_c, 2, 71, 127
4, 9404, Note_off_c, 2, 71, 100
4, 9408, Note_on_c, 2, 72, 127
4, 9468, Note_off_c, 2, 72, 100
4, 9472, Note_on_c, 2, 71, 127
4, 9532, Note_off_c, 2, 71, 100
4, 9536, Note_on_c, 2, 72, 127
4, 9596, Note_off_c, 2, 72, 100
4, 9600, Note_on_c, 2, 74, 127
4, 9660, Note_off_c, 2, 74, 100
4, 9664, Note_on_c, 2, 72, 127
4, 9724, Note_off_c, 2, 72, 100
4, 9728, Note_on_c, 2, 74, 127
4, 9788, Note_off_c, 2, 74, 100
4, 9792, Note_on_c, 2, 76, 127
4, 9852, Note_off_c, 2, 76, 100
4, 9856, Note_on_c, 2, 74, 127
4, 9916, Note_off_c, 2, 74, 100
4, 9920, Note_on_c, 2, 76, 127
4, 9980, Note_off_c, 2, 76, 100
4, 9984, Note_on_c, 2, 78, 127
4, 10044, Note_off_c, 2, 78, 100
4, 10048, Note_on_c, 2, 76, 127
4, 10108, Note_off_c, 2, 76, 100
4, 10112, Note_on_c, 2, 78, 127
4, 10172, Note_off_c, 2, 78, 100
4, 10176, Note_on_c, 2, 79, 127
4, 10236, Note_off_c, 2, 79, 100
4, 10240, Note_on_c, 2, 78, 127
4, 10300, Note_off_c, 2, 78, 100
4, 10304, Note_on_c, 2, 79, 127
4, 10364, Note_off_c, 2, 79, 100
4, 10368, Note_on_c, 2, 81, 127
4, 10428, Note_off_c, 2, 81, 100
4, 10432, Note_on_c, 2, 79, 127
4, 10492, Note_off_c, 2, 79, 100
4, 10496, Note_on_c, 2, 81, 127
4, 10556, Note_off_c, 2, 81, 100
4, 10560, Note_on_c, 2, 83, 127
4, 10620, Note_off_c, 2, 83, 100
4, 10624, Note_on_c, 2, 81, 127
4, 10684, Note_off_c, 2, 81, 100
4, 10688, Note_on_c, 2, 83, 127
4, 10748, Note_off_c, 2, 83, 100
4, 10752, Note_on_c, 2, 85, 127
4, 10812, Note_off_c, 2, 85, 100
4, 10816, Note_on_c, 2, 83, 127
4, 10876, Note_off_c, 2, 83, 100
4, 10880, Note_on_c, 2, 85, 127
4, 10940, Note_off_c, 2, 85, 100
4, 10944, Note_on_c, 2, 86, 127
4, 11004, Note_off_c, 2, 86, 100
4, 11008, Note_on_c, 2, 85, 127
4, 11068, Note_off_c, 2, 85, 100
4, 11072, Note_on_c, 2, 86, 127
4, 11132, Note_off_c, 2, 86, 100
4, 11136, Note_on_c, 2, 88, 127
4, 11196, Note_off_c, 2, 88, 100
4, 11200, Note_on_c, 2, 86, 127
4, 11260, Note_off_c, 2, 86, 100
4, 11264, Note_on_c, 2, 88, 127
4, 11324, Note_off_c, 2, 88, 100
4, 11328, Note_on_c, 2, 90, 127
4, 11388, Note_off_c, 2, 90, 100
4, 11392, Note_on_c, 2, 88, 127
4, 11452, Note_off_c, 2, 88, 100
4, 11456, Note_on_c, 2, 90, 127
4, 11516, Note_off_c, 2, 90, 100
4, 11520, Note_on_c, 2, 91, 127
4, 11580, Note_off_c, 2, 91, 100
4, 11904, Note_on_c, 2, 64, 127
4, 11948, Note_off_c, 2, 64, 100
4, 11952, Note_on_c, 2, 62, 127
4, 11996, Note_off_c, 2, 62, 100
4, 12000, Note_on_c, 2, 64, 127
4, 12284, Note_off_c, 2, 64, 100
4, 12480, Note_on_c, 2, 83, 127
4, 12540, Note_off_c, 2, 83, 100
4, 12672, Note_on_c, 2, 91, 127
4, 12732, Note_off_c, 2, 91, 100
4, 13056, Note_on_c, 2, 61, 127
4, 13100, Note_off_c, 2, 61, 100
4, 13104, Note_on_c, 2, 59, 127
4, 13148, Note_off_c, 2, 59, 100
4, 13152, Note_on_c, 2, 61, 127
4, 13436, Note_off_c, 2, 61, 100
4, 13632, Note_on_c, 2, 91, 127
4, 13692, Note_off_c, 2, 91, 100
4, 13824, Note_on_c, 2, 90, 127
4, 13884, Note_off_c, 2, 90, 100
4, 13888, Note_on_c, 2, 93, 127
4, 13948, Note_off_c, 2, 93, 100
4, 13952, Note_on_c, 2, 86, 127
4, 14012, Note_off_c, 2, 86, 100
4, 14016, Note_on_c, 2, 88, 127
4, 14076, Note_off_c, 2, 88, 100
4, 14080, Note_on_c, 2, 91, 127
4, 14140, Note_off_c, 2, 91, 100
4, 14144, Note_on_c, 2, 85, 127
4, 14204, Note_off_c, 2, 85, 100
4, 14208, Note_on_c, 2, 86, 127
4, 14268, Note_off_c, 2, 86, 100
4, 14272, Note_on_c, 2, 90, 127
4, 14332, Note_off_c, 2, 90, 100
4, 14336, Note_on_c, 2, 83, 127
4, 14396, Note_off_c, 2, 83, 100
4, 14400, Note_on_c, 2, 84, 127
4, 14460, Note_off_c, 2, 84, 100
4, 14464, Note_on_c, 2, 88, 127
4, 14524, Note_off_c, 2, 88, 100
4, 14528, Note_on_c, 2, 81, 127
4, 14588, Note_off_c, 2, 81, 100
4, 14592, Note_on_c, 2, 83, 127
4, 14652, Note_off_c, 2, 83, 100
4, 14656, Note_on_c, 2, 86, 127
4, 14716, Note_off_c, 2, 86, 100
4, 14720, Note_on_c, 2, 79, 127
4, 14780, Note_off_c, 2, 79, 100
4, 14784, Note_on_c, 2, 81, 127
4, 14844, Note_off_c, 2, 81, 100
4, 14848, Note_on_c, 2, 84, 127
4, 14908, Note_off_c, 2, 84, 100
4, 14912, Note_on_c, 2, 78, 127
4, 14972, Note_off_c, 2, 78, 100
4, 14976, Note_on_c, 2, 79, 127
4, 15036, Note_off_c, 2, 79, 100
4, 15168, Note_on_c, 2, 67, 127
4, 15228, Note_off_c, 2, 67, 100
4, 15360, Note_on_c, 2, 66, 127
4, 15420, Note_off_c, 2, 66, 100
4, 15552, Note_on_c, 2, 69, 127
4, 15612, Note_off_c, 2, 69, 100
4, 15744, Note_on_c, 2, 62, 127
4, 15804, Note_off_c, 2, 62, 100
4, 15936, Note_on_c, 2, 74, 127
4, 15996, Note_off_c, 2, 74, 100
4, 16128, Note_on_c, 2, 73, 127
4, 16188, Note_off_c, 2, 73, 100
4, 16192, Note_on_c, 2, 69, 127
4, 16252, Note_off_c, 2, 69, 100
4, 16256, Note_on_c, 2, 71, 127
4, 16316, Note_off_c, 2, 71, 100
4, 16320, Note_on_c, 2, 73, 127
4, 16380, Note_off_c, 2, 73, 100
4, 16384, Note_on_c, 2, 74, 127
4, 16444, Note_off_c, 2, 74, 100
4, 16448, Note_on_c, 2, 76, 127
4, 16508, Note_off_c, 2, 76, 100
4, 16512, Note_on_c, 2, 78, 127
4, 16764, Note_off_c, 2, 78, 100
4, 16768, Note_on_c, 2, 76, 127
4, 16828, Note_off_c, 2, 76, 100
4, 16832, Note_on_c, 2, 74, 127
4, 16892, Note_off_c, 2, 74, 100
4, 16960, Note_on_c, 2, 79, 127
4, 17020, Note_off_c, 2, 79, 100
4, 17024, Note_on_c, 2, 78, 127
4, 17084, Note_off_c, 2, 78, 100
4, 17088, Note_on_c, 2, 76, 127
4, 17148, Note_off_c, 2, 76, 100
4, 17152, Note_on_c, 2, 78, 127
4, 17212, Note_off_c, 2, 78, 100
4, 17216, Note_on_c, 2, 79, 127
4, 17276, Note_off_c, 2, 79, 100
4, 17280, Note_on_c, 2, 78, 127
4, 17468, Note_off_c, 2, 78, 100
4, 17728, Note_on_c, 2, 78, 127
4, 17788, Note_off_c, 2, 78, 100
4, 17792, Note_on_c, 2, 81, 127
4, 17852, Note_off_c, 2, 81, 100
4, 17856, Note_on_c, 2, 86, 127
4, 17916, Note_off_c, 2, 86, 100
4, 17920, Note_on_c, 2, 90, 127
4, 17980, Note_off_c, 2, 90, 100
4, 17984, Note_on_c, 2, 93, 127
4, 18044, Note_off_c, 2, 93, 100
4, 18048, Note_on_c, 2, 98, 127
4, 18108, Note_off_c, 2, 98, 100
4, 36960, Note_on_c, 2, 93, 127
4, 37052, Note_off_c, 2, 93, 100
4, 37152, Note_on_c, 2, 90, 127
4, 37244, Note_off_c, 2, 90, 100
4, 37344, Note_on_c, 2, 86, 127
4, 37436, Note_off_c, 2, 86, 100
4, 37536, Note_on_c, 2, 81, 127
4, 37628, Note_off_c, 2, 81, 100
4, 37728, Note_on_c, 2, 78, 127
4, 37820, Note_off_c, 2, 78, 100
4, 37920, Note_on_c, 2, 74, 127
4, 38012, Note_off_c, 2, 74, 100
4, 38112, Note_on_c, 2, 71, 127
4, 38204, Note_off_c, 2, 71, 100
4, 38304, Note_on_c, 2, 67, 127
4, 38396, Note_off_c, 2, 67, 100
4, 38496, Note_on_c, 2, 62, 127
4, 38588, Note_off_c, 2, 62, 100
4, 38688, Note_on_c, 2, 59, 127
4, 38780, Note_off_c, 2, 59, 100
4, 38880, Note_on_c, 2, 55, 127
4, 38972, Note_off_c, 2, 55, 100
4, 38976, Note_on_c, 2, 57, 127
4, 39068, Note_off_c, 2, 57, 100
4, 39072, Note_on_c, 2, 59, 127
4, 39164, Note_off_c, 2, 59, 100
4, 39168, Note_on_c, 2, 60, 127
4, 39228, Note_off_c, 2, 60, 100
4, 39360, Note_on_c, 2, 67, 127
4, 39420, Note_off_c, 2, 67, 100
4, 39552, Note_on_c, 2, 72, 127
4, 39612, Note_off_c, 2, 72, 100
4, 39744, Note_on_c, 2, 76, 127
4, 39804, Note_off_c, 2, 76, 100
4, 39936, Note_on_c, 2, 69, 127
4, 39996, Note_off_c, 2, 69, 100
4, 40128, Note_on_c, 2, 84, 127
4, 40316, Note_off_c, 2, 84, 100
4, 40384, Note_on_c, 2, 83, 127
4, 40444, Note_off_c, 2, 83, 100
4, 40448, Note_on_c, 2, 82, 127
4, 40508, Note_off_c, 2, 82, 100
4, 40512, Note_on_c, 2, 83, 127
4, 40572, Note_off_c, 2, 83, 100
4, 40576, Note_on_c, 2, 85, 127
4, 40636, Note_off_c, 2, 85, 100
4, 40640, Note_on_c, 2, 87, 127
4, 40700, Note_off_c, 2, 87, 100
4, 40704, Note_on_c, 2, 88, 127
4, 40764, Note_off_c, 2, 88, 100
4, 40768, Note_on_c, 2, 87, 127
4, 40828, Note_off_c, 2, 87, 100
4, 40832, Note_on_c, 2, 85, 127
4, 40892, Note_off_c, 2, 85, 100
4, 40896, Note_on_c, 2, 87, 127
4, 40956, Note_off_c, 2, 87, 100
4, 40960, Note_on_c, 2, 88, 127
4, 41020, Note_off_c, 2, 88, 100
4, 41024, Note_on_c, 2, 90, 127
4, 41084, Note_off_c, 2, 90, 100
4, 41088, Note_on_c, 2, 91, 127
4, 41148, Note_off_c, 2, 91, 100
4, 41152, Note_on_c, 2, 90, 127
4, 41212, Note_off_c, 2, 90, 100
4, 41216, Note_on_c, 2, 88, 127
4, 41276, Note_off_c, 2, 88, 100
4, 41280, Note_on_c, 2, 90, 127
4, 41340, Note_off_c, 2, 90, 100
4, 41344, Note_on_c, 2, 91, 127
4, 41404, Note_off_c, 2, 91, 100
4, 41408, Note_on_c, 2, 93, 127
4, 41448, Note_off_c, 2, 93, 100
4, 41472, Note_on_c, 2, 95, 127
4, 41532, Note_off_c, 2, 95, 100
4, 41536, Note_on_c, 2, 93, 127
4, 41596, Note_off_c, 2, 93, 100
4, 41600, Note_on_c, 2, 91, 127
4, 41660, Note_off_c, 2, 91, 100
4, 41664, Note_on_c, 2, 93, 127
4, 41724, Note_off_c, 2, 93, 100
4, 41728, Note_on_c, 2, 95, 127
4, 41788, Note_off_c, 2, 95, 100
4, 41792, Note_on_c, 2, 96, 127
4, 41832, Note_off_c, 2, 96, 100
4, 41856, Note_on_c, 2, 87, 127
4, 41916, Note_off_c, 2, 87, 100
4, 42048, Note_on_c, 2, 96, 127
4, 42236, Note_off_c, 2, 96, 100
4, 42240, Note_on_c, 2, 95, 127
4, 42428, Note_off_c, 2, 95, 100
4, 42432, Note_on_c, 2, 86, 127
4, 42620, Note_off_c, 2, 86, 100
4, 42688, Note_on_c, 2, 85, 127
4, 42748, Note_off_c, 2, 85, 100
4, 42752, Note_on_c, 2, 87, 127
4, 42812, Note_off_c, 2, 87, 100
4, 42816, Note_on_c, 2, 88, 127
4, 42876, Note_off_c, 2, 88, 100
4, 42880, Note_on_c, 2, 90, 127
4, 42940, Note_off_c, 2, 90, 100
4, 42944, Note_on_c, 2, 91, 127
4, 43004, Note_off_c, 2, 91, 100
4, 43008, Note_on_c, 2, 82, 127
4, 43068, Note_off_c, 2, 82, 100
4, 43200, Note_on_c, 2, 91, 127
4, 43388, Note_off_c, 2, 91, 100
4, 43392, Note_on_c, 2, 90, 127
4, 43580, Note_off_c, 2, 90, 100
4, 43584, Note_on_c, 2, 81, 127
4, 43772, Note_off_c, 2, 81, 100
4, 43776, Note_on_c, 2, 79, 127
4, 43964, Note_off_c, 2, 79, 100
4, 43968, Note_on_c, 2, 75, 127
4, 44028, Note_off_c, 2, 75, 100
4, 44160, Note_on_c, 2, 76, 127
4, 44220, Note_off_c, 2, 76, 100
4, 44352, Note_on_c, 2, 72, 127
4, 44412, Note_off_c, 2, 72, 100
4, 44544, Note_on_c, 2, 63, 127
4, 44604, Note_off_c, 2, 63, 100
4, 44736, Note_on_c, 2, 87, 127
4, 44796, Note_off_c, 2, 87, 100
4, 44928, Note_on_c, 2, 88, 127
4, 44988, Note_off_c, 2, 88, 100
4, 45120, Note_on_c, 2, 76, 127
4, 45180, Note_off_c, 2, 76, 100
4, 45376, Note_on_c, 2, 79, 127
4, 45436, Note_off_c, 2, 79, 100
4, 45440, Note_on_c, 2, 83, 127
4, 45500, Note_off_c, 2, 83, 100
4, 45504, Note_on_c, 2, 88, 127
4, 45564, Note_off_c, 2, 88, 100
4, 45568, Note_on_c, 2, 91, 127
4, 45628, Note_off_c, 2, 91, 100
4, 45632, Note_on_c, 2, 87, 127
4, 45692, Note_off_c, 2, 87, 100
4, 45696, Note_on_c, 2, 88, 127
4, 45756, Note_off_c, 2, 88, 100
4, 45760, Note_on_c, 2, 83, 127
4, 45820, Note_off_c, 2, 83, 100
4, 45824, Note_on_c, 2, 79, 127
4, 45884, Note_off_c, 2, 79, 100
4, 45952, Note_on_c, 2, 80, 127
4, 46012, Note_off_c, 2, 80, 100
4, 46016, Note_on_c, 2, 89, 127
4, 46076, Note_off_c, 2, 89, 100
4, 46080, Note_on_c, 2, 88, 127
4, 46140, Note_off_c, 2, 88, 100
4, 46144, Note_on_c, 2, 84, 127
4, 46204, Note_off_c, 2, 84, 100
4, 46208, Note_on_c, 2, 81, 127
4, 46268, Note_off_c, 2, 81, 100
4, 46336, Note_on_c, 2, 74, 127
4, 46396, Note_off_c, 2, 74, 100
4, 46400, Note_on_c, 2, 83, 127
4, 46460, Note_off_c, 2, 83, 100
4, 46528, Note_on_c, 2, 72, 127
4, 46588, Note_off_c, 2, 72, 100
4, 46592, Note_on_c, 2, 81, 127
4, 46652, Note_off_c, 2, 81, 100
4, 46720, Note_on_c, 2, 71, 127
4, 46780, Note_off_c, 2, 71, 100
4, 46784, Note_on_c, 2, 80, 127
4, 46844, Note_off_c, 2, 80, 100
4, 46912, Note_on_c, 2, 72, 127
4, 46972, Note_off_c, 2, 72, 100
4, 46976, Note_on_c, 2, 81, 127
4, 47036, Note_off_c, 2, 81, 100
4, 47104, Note_on_c, 2, 78, 127
4, 47164, Note_off_c, 2, 78, 100
4, 47168, Note_on_c, 2, 87, 127
4, 47228, Note_off_c, 2, 87, 100
4, 47232, Note_on_c, 2, 86, 127
4, 47292, Note_off_c, 2, 86, 100
4, 47296, Note_on_c, 2, 83, 127
4, 47356, Note_off_c, 2, 83, 100
4, 47360, Note_on_c, 2, 79, 127
4, 47420, Note_off_c, 2, 79, 100
4, 47488, Note_on_c, 2, 72, 127
4, 47548, Note_off_c, 2, 72, 100
4, 47552, Note_on_c, 2, 81, 127
4, 47612, Note_off_c, 2, 81, 100
4, 47680, Note_on_c, 2, 71, 127
4, 47740, Note_off_c, 2, 71, 100
4, 47744, Note_on_c, 2, 79, 127
4, 47804, Note_off_c, 2, 79, 100
4, 47872, Note_on_c, 2, 69, 127
4, 47932, Note_off_c, 2, 69, 100
4, 47936, Note_on_c, 2, 78, 127
4, 47996, Note_off_c, 2, 78, 100
4, 48064, Note_on_c, 2, 71, 127
4, 48124, Note_off_c, 2, 71, 100
4, 48128, Note_on_c, 2, 79, 127
4, 48188, Note_off_c, 2, 79, 100
4, 48256, Note_on_c, 2, 76, 127
4, 48316, Note_off_c, 2, 76, 100
4, 48320, Note_on_c, 2, 86, 127
4, 48360, Note_off_c, 2, 86, 100
4, 48384, Note_on_c, 2, 84, 127
4, 48444, Note_off_c, 2, 84, 100
4, 48448, Note_on_c, 2, 81, 127
4, 48508, Note_off_c, 2, 81, 100
4, 48512, Note_on_c, 2, 76, 127
4, 48572, Note_off_c, 2, 76, 100
4, 48576, Note_on_c, 2, 72, 127
4, 48636, Note_off_c, 2, 72, 100
4, 48768, Note_on_c, 2, 72, 127
4, 48828, Note_off_c, 2, 72, 100
4, 48960, Note_on_c, 2, 72, 127
4, 49020, Note_off_c, 2, 72, 100
4, 49152, Note_on_c, 2, 72, 127
4, 49212, Note_off_c, 2, 72, 100
4, 49344, Note_on_c, 2, 84, 127
4, 49404, Note_off_c, 2, 84, 100
4, 49536, Note_on_c, 2, 84, 127
4, 49596, Note_off_c, 2, 84, 100
4, 49600, Note_on_c, 2, 81, 127
4, 49660, Note_off_c, 2, 81, 100
4, 49664, Note_on_c, 2, 78, 127
4, 49724, Note_off_c, 2, 78, 100
4, 49728, Note_on_c, 2, 74, 127
4, 49788, Note_off_c, 2, 74, 100
4, 49920, Note_on_c, 2, 74, 127
4, 49980, Note_off_c, 2, 74, 100
4, 50112, Note_on_c, 2, 74, 127
4, 50172, Note_off_c, 2, 74, 100
4, 50304, Note_on_c, 2, 74, 127
4, 50364, Note_off_c, 2, 74, 100
4, 50496, Note_on_c, 2, 84, 127
4, 50556, Note_off_c, 2, 84, 100
4, 50688, Note_on_c, 2, 83, 127
4, 50748, Note_off_c, 2, 83, 100
4, 50752, Note_on_c, 2, 79, 127
4, 50812, Note_off_c, 2, 79, 100
4, 50816, Note_on_c, 2, 86, 127
4, 50876, Note_off_c, 2, 86, 100
4, 50880, Note_on_c, 2, 84, 127
4, 50940, Note_off_c, 2, 84, 100
4, 50944, Note_on_c, 2, 81, 127
4, 51004, Note_off_c, 2, 81, 100
4, 51008, Note_on_c, 2, 88, 127
4, 51068, Note_off_c, 2, 88, 100
4, 51072, Note_on_c, 2, 86, 127
4, 51132, Note_off_c, 2, 86, 100
4, 51264, Note_on_c, 2, 71, 127
4, 51324, Note_off_c, 2, 71, 100
4, 51456, Note_on_c, 2, 67, 127
4, 51516, Note_off_c, 2, 67, 100
4, 51648, Note_on_c, 2, 89, 127
4, 51708, Note_off_c, 2, 89, 100
4, 51840, Note_on_c, 2, 88, 127
4, 51900, Note_off_c, 2, 88, 100
4, 51904, Note_on_c, 2, 91, 127
4, 51964, Note_off_c, 2, 91, 100
4, 51968, Note_on_c, 2, 84, 127
4, 52028, Note_off_c, 2, 84, 100
4, 52032, Note_on_c, 2, 86, 127
4, 52092, Note_off_c, 2, 86, 100
4, 52096, Note_on_c, 2, 89, 127
4, 52156, Note_off_c, 2, 89, 100
4, 52160, Note_on_c, 2, 83, 127
4, 52220, Note_off_c, 2, 83, 100
4, 52224, Note_on_c, 2, 84, 127
4, 52284, Note_off_c, 2, 84, 100
4, 52288, Note_on_c, 2, 88, 127
4, 52348, Note_off_c, 2, 88, 100
4, 52352, Note_on_c, 2, 81, 127
4, 52412, Note_off_c, 2, 81, 100
4, 52416, Note_on_c, 2, 83, 127
4, 52476, Note_off_c, 2, 83, 100
4, 52480, Note_on_c, 2, 86, 127
4, 52540, Note_off_c, 2, 86, 100
4, 52544, Note_on_c, 2, 79, 127
4, 52604, Note_off_c, 2, 79, 100
4, 52608, Note_on_c, 2, 81, 127
4, 52668, Note_off_c, 2, 81, 100
4, 52672, Note_on_c, 2, 84, 127
4, 52732, Note_off_c, 2, 84, 100
4, 52736, Note_on_c, 2, 78, 127
4, 52796, Note_off_c, 2, 78, 100
4, 52800, Note_on_c, 2, 79, 127
4, 52860, Note_off_c, 2, 79, 100
4, 52864, Note_on_c, 2, 83, 127
4, 52924, Note_off_c, 2, 83, 100
4, 52928, Note_on_c, 2, 76, 127
4, 52988, Note_off_c, 2, 76, 100
4, 52992, Note_on_c, 2, 78, 127
4, 53052, Note_off_c, 2, 78, 100
4, 53056, Note_on_c, 2, 74, 127
4, 53116, Note_off_c, 2, 74, 100
4, 53120, Note_on_c, 2, 76, 127
4, 53180, Note_off_c, 2, 76, 100
4, 53184, Note_on_c, 2, 78, 127
4, 53244, Note_off_c, 2, 78, 100
4, 53248, Note_on_c, 2, 79, 127
4, 53308, Note_off_c, 2, 79, 100
4, 53312, Note_on_c, 2, 81, 127
4, 53352, Note_off_c, 2, 81, 100
4, 53376, Note_on_c, 2, 71, 127
4, 53628, Note_off_c, 2, 71, 100
4, 53632, Note_on_c, 2, 69, 127
4, 53692, Note_off_c, 2, 69, 100
4, 53696, Note_on_c, 2, 67, 127
4, 53756, Note_off_c, 2, 67, 100
4, 53760, Note_on_c, 2, 76, 127
4, 53820, Note_off_c, 2, 76, 100
4, 53952, Note_on_c, 2, 79, 127
4, 53996, Note_off_c, 2, 79, 100
4, 54000, Note_on_c, 2, 78, 127
4, 54044, Note_off_c, 2, 78, 100
4, 54048, Note_on_c, 2, 76, 127
4, 54092, Note_off_c, 2, 76, 100
4, 54096, Note_on_c, 2, 78, 127
4, 54140, Note_off_c, 2, 78, 100
4, 54144, Note_on_c, 2, 79, 127
4, 54184, Note_off_c, 2, 79, 100
4, 54208, Note_on_c, 2, 74, 127
4, 54268, Note_off_c, 2, 74, 100
4, 54272, Note_on_c, 2, 71, 127
4, 54332, Note_off_c, 2, 71, 100
4, 54336, Note_on_c, 2, 67, 127
4, 54396, Note_off_c, 2, 67, 100
4, 54400, Note_on_c, 2, 62, 127
4, 54460, Note_off_c, 2, 62, 100
4, 54464, Note_on_c, 2, 59, 127
4, 54524, Note_off_c, 2, 59, 100
4, 54528, Note_on_c, 2, 55, 127
4, 54716, Note_off_c, 2, 55, 100
4, 54716, End_track
5, 0, Start_track
5, 0, Title_t, "Var.XX: Allegro giusto"
5, 0, Control_c, 3, 0, 0
5, 0, Program_c, 3, 6
5, 0, Control_c, 3, 7, 127
5, 0, Control_c, 3, 10, 0
5, 0, Control_c, 3, 91, 127
5, 0, Key_signature, 1, "major"
5, 0, Note_on_c, 3, 67, 127
5, 60, Note_off_c, 3, 67, 100
5, 192, Note_on_c, 3, 71, 127
5, 252, Note_off_c, 3, 71, 100
5, 384, Note_on_c, 3, 74, 127
5, 444, Note_off_c, 3, 74, 100
5, 576, Note_on_c, 3, 79, 127
5, 636, Note_off_c, 3, 79, 100
5, 768, Note_on_c, 3, 83, 127
5, 828, Note_off_c, 3, 83, 100
5, 960, Note_on_c, 3, 85, 127
5, 1020, Note_off_c, 3, 85, 100
5, 1248, Note_on_c, 3, 86, 127
5, 1340, Note_off_c, 3, 86, 100
5, 1440, Note_on_c, 3, 81, 127
5, 1532, Note_off_c, 3, 81, 100
5, 1632, Note_on_c, 3, 78, 127
5, 1724, Note_off_c, 3, 78, 100
5, 1824, Note_on_c, 3, 74, 127
5, 1916, Note_off_c, 3, 74, 100
5, 2016, Note_on_c, 3, 69, 127
5, 2108, Note_off_c, 3, 69, 100
5, 2112, Note_on_c, 3, 67, 127
5, 2204, Note_off_c, 3, 67, 100
5, 2208, Note_on_c, 3, 66, 127
5, 2300, Note_off_c, 3, 66, 100
5, 2304, Note_on_c, 3, 64, 127
5, 2364, Note_off_c, 3, 64, 100
5, 2496, Note_on_c, 3, 67, 127
5, 2556, Note_off_c, 3, 67, 100
5, 2688, Note_on_c, 3, 69, 127
5, 2748, Note_off_c, 3, 69, 100
5, 2880, Note_on_c, 3, 73, 127
5, 2940, Note_off_c, 3, 73, 100
5, 3072, Note_on_c, 3, 76, 127
5, 3132, Note_off_c, 3, 76, 100
5, 3264, Note_on_c, 3, 79, 127
5, 3324, Note_off_c, 3, 79, 100
5, 3552, Note_on_c, 3, 78, 127
5, 3644, Note_off_c, 3, 78, 100
5, 3744, Note_on_c, 3, 74, 127
5, 3836, Note_off_c, 3, 74, 100
5, 3936, Note_on_c, 3, 69, 127
5, 4028, Note_off_c, 3, 69, 100
5, 4128, Note_on_c, 3, 66, 127
5, 4220, Note_off_c, 3, 66, 100
5, 4320, Note_on_c, 3, 64, 127
5, 4412, Note_off_c, 3, 64, 100
5, 4416, Note_on_c, 3, 62, 127
5, 4508, Note_off_c, 3, 62, 100
5, 4512, Note_on_c, 3, 60, 127
5, 4604, Note_off_c, 3, 60, 100
5, 4608, Note_on_c, 3, 59, 127
5, 4668, Note_off_c, 3, 59, 100
5, 4800, Note_on_c, 3, 62, 127
5, 4860, Note_off_c, 3, 62, 100
5, 4992, Note_on_c, 3, 67, 127
5, 5052, Note_off_c, 3, 67, 100
5, 5184, Note_on_c, 3, 71, 127
5, 5244, Note_off_c, 3, 71, 100
5, 5376, Note_on_c, 3, 74, 127
5, 5436, Note_off_c, 3, 74, 100
5, 5568, Note_on_c, 3, 77, 127
5, 5628, Note_off_c, 3, 77, 100
5, 5856, Note_on_c, 3, 76, 127
5, 5948, Note_off_c, 3, 76, 100
5, 6048, Note_on_c, 3, 72, 127
5, 6140, Note_off_c, 3, 72, 100
5, 6240, Note_on_c, 3, 67, 127
5, 6332, Note_off_c, 3, 67, 100
5, 6432, Note_on_c, 3, 64, 127
5, 6524, Note_off_c, 3, 64, 100
5, 6624, Note_on_c, 3, 60, 127
5, 6716, Note_off_c, 3, 60, 100
5, 6720, Note_on_c, 3, 59, 127
5, 6812, Note_off_c, 3, 59, 100
5, 6816, Note_on_c, 3, 57, 127
5, 6908, Note_off_c, 3, 57, 100
5, 6912, Note_on_c, 3, 62, 127
5, 6972, Note_off_c, 3, 62, 100
5, 7104, Note_on_c, 3, 66, 127
5, 7164, Note_off_c, 3, 66, 100
5, 7296, Note_on_c, 3, 69, 127
5, 7356, Note_off_c, 3, 69, 100
5, 7488, Note_on_c, 3, 74, 127
5, 7548, Note_off_c, 3, 74, 100
5, 7680, Note_on_c, 3, 78, 127
5, 7740, Note_off_c, 3, 78, 100
5, 7872, Note_on_c, 3, 81, 127
5, 7932, Note_off_c, 3, 81, 100
5, 8160, Note_on_c, 3, 83, 127
5, 8252, Note_off_c, 3, 83, 100
5, 8352, Note_on_c, 3, 79, 127
5, 8444, Note_off_c, 3, 79, 100
5, 8544, Note_on_c, 3, 74, 127
5, 8636, Note_off_c, 3, 74, 100
5, 8736, Note_on_c, 3, 71, 127
5, 8828, Note_off_c, 3, 71, 100
5, 8928, Note_on_c, 3, 69, 127
5, 9020, Note_off_c, 3, 69, 100
5, 9024, Note_on_c, 3, 67, 127
5, 9116, Note_off_c, 3, 67, 100
5, 9120, Note_on_c, 3, 66, 127
5, 9212, Note_off_c, 3, 66, 100
5, 9216, Note_on_c, 3, 67, 127
5, 9276, Note_off_c, 3, 67, 100
5, 9600, Note_on_c, 3, 95, 127
5, 9644, Note_off_c, 3, 95, 100
5, 9648, Note_on_c, 3, 93, 127
5, 9692, Note_off_c, 3, 93, 100
5, 9696, Note_on_c, 3, 95, 127
5, 9980, Note_off_c, 3, 95, 100
5, 10176, Note_on_c, 3, 76, 127
5, 10236, Note_off_c, 3, 76, 100
5, 10368, Note_on_c, 3, 66, 127
5, 10428, Note_off_c, 3, 66, 100
5, 10752, Note_on_c, 3, 93, 127
5, 10796, Note_off_c, 3, 93, 100
5, 10800, Note_on_c, 3, 91, 127
5, 10844, Note_off_c, 3, 91, 100
5, 10848, Note_on_c, 3, 93, 127
5, 11132, Note_off_c, 3, 93, 100
5, 11328, Note_on_c, 3, 74, 127
5, 11388, Note_off_c, 3, 74, 100
5, 11520, Note_on_c, 3, 83, 127
5, 11580, Note_off_c, 3, 83, 100
5, 11584, Note_on_c, 3, 84, 127
5, 11644, Note_off_c, 3, 84, 100
5, 11648, Note_on_c, 3, 83, 127
5, 11708, Note_off_c, 3, 83, 100
5, 11712, Note_on_c, 3, 81, 127
5, 11772, Note_off_c, 3, 81, 100
5, 11776, Note_on_c, 3, 83, 127
5, 11836, Note_off_c, 3, 83, 100
5, 11840, Note_on_c, 3, 81, 127
5, 11900, Note_off_c, 3, 81, 100
5, 11904, Note_on_c, 3, 79, 127
5, 11964, Note_off_c, 3, 79, 100
5, 11968, Note_on_c, 3, 81, 127
5, 12028, Note_off_c, 3, 81, 100
5, 12032, Note_on_c, 3, 79, 127
5, 12092, Note_off_c, 3, 79, 100
5, 12096, Note_on_c, 3, 78, 127
5, 12156, Note_off_c, 3, 78, 100
5, 12160, Note_on_c, 3, 79, 127
5, 12220, Note_off_c, 3, 79, 100
5, 12224, Note_on_c, 3, 78, 127
5, 12284, Note_off_c, 3, 78, 100
5, 12288, Note_on_c, 3, 76, 127
5, 12348, Note_off_c, 3, 76, 100
5, 12352, Note_on_c, 3, 78, 127
5, 12412, Note_off_c, 3, 78, 100
5, 12416, Note_on_c, 3, 76, 127
5, 12476, Note_off_c, 3, 76, 100
5, 12480, Note_on_c, 3, 74, 127
5, 12540, Note_off_c, 3, 74, 100
5, 12544, Note_on_c, 3, 76, 127
5, 12604, Note_off_c, 3, 76, 100
5, 12608, Note_on_c, 3, 74, 127
5, 12668, Note_off_c, 3, 74, 100
5, 12672, Note_on_c, 3, 73, 127
5, 12732, Note_off_c, 3, 73, 100
5, 12736, Note_on_c, 3, 74, 127
5, 12796, Note_off_c, 3, 74, 100
5, 12800, Note_on_c, 3, 73, 127
5, 12860, Note_off_c, 3, 73, 100
5, 12864, Note_on_c, 3, 71, 127
5, 12924, Note_off_c, 3, 71, 100
5, 12928, Note_on_c, 3, 73, 127
5, 12988, Note_off_c, 3, 73, 100
5, 12992, Note_on_c, 3, 71, 127
5, 13052, Note_off_c, 3, 71, 100
5, 13056, Note_on_c, 3, 69, 127
5, 13116, Note_off_c, 3, 69, 100
5, 13120, Note_on_c, 3, 71, 127
5, 13180, Note_off_c, 3, 71, 100
5, 13184, Note_on_c, 3, 69, 127
5, 13244, Note_off_c, 3, 69, 100
5, 13248, Note_on_c, 3, 67, 127
5, 13308, Note_off_c, 3, 67, 100
5, 13312, Note_on_c, 3, 69, 127
5, 13372, Note_off_c, 3, 69, 100
5, 13376, Note_on_c, 3, 67, 127
5, 13436, Note_off_c, 3, 67, 100
5, 13440, Note_on_c, 3, 66, 127
5, 13500, Note_off_c, 3, 66, 100
5, 13504, Note_on_c, 3, 67, 127
5, 13564, Note_off_c, 3, 67, 100
5, 13568, Note_on_c, 3, 66, 127
5, 13628, Note_off_c, 3, 66, 100
5, 13632, Note_on_c, 3, 64, 127
5, 13692, Note_off_c, 3, 64, 100
5, 13696, Note_on_c, 3, 66, 127
5, 13756, Note_off_c, 3, 66, 100
5, 13760, Note_on_c, 3, 64, 127
5, 13820, Note_off_c, 3, 64, 100
5, 13824, Note_on_c, 3, 62, 127
5, 13884, Note_off_c, 3, 62, 100
5, 14016, Note_on_c, 3, 69, 127
5, 14076, Note_off_c, 3, 69, 100
5, 14208, Note_on_c, 3, 78, 127
5, 14268, Note_off_c, 3, 78, 100
5, 14400, Note_on_c, 3, 69, 127
5, 14460, Note_off_c, 3, 69, 100
5, 14592, Note_on_c, 3, 62, 127
5, 14652, Note_off_c, 3, 62, 100
5, 14784, Note_on_c, 3, 72, 127
5, 14844, Note_off_c, 3, 72, 100
5, 14976, Note_on_c, 3, 71, 127
5, 15036, Note_off_c, 3, 71, 100
5, 15040, Note_on_c, 3, 67, 127
5, 15100, Note_off_c, 3, 67, 100
5, 15104, Note_on_c, 3, 74, 127
5, 15164, Note_off_c, 3, 74, 100
5, 15168, Note_on_c, 3, 73, 127
5, 15228, Note_off_c, 3, 73, 100
5, 15232, Note_on_c, 3, 69, 127
5, 15292, Note_off_c, 3, 69, 100
5, 15296, Note_on_c, 3, 76, 127
5, 15356, Note_off_c, 3, 76, 100
5, 15360, Note_on_c, 3, 74, 127
5, 15420, Note_off_c, 3, 74, 100
5, 15424, Note_on_c, 3, 71, 127
5, 15484, Note_off_c, 3, 71, 100
5, 15488, Note_on_c, 3, 78, 127
5, 15548, Note_off_c, 3, 78, 100
5, 15552, Note_on_c, 3, 76, 127
5, 15612, Note_off_c, 3, 76, 100
5, 15616, Note_on_c, 3, 73, 127
5, 15676, Note_off_c, 3, 73, 100
5, 15680, Note_on_c, 3, 79, 127
5, 15740, Note_off_c, 3, 79, 100
5, 15744, Note_on_c, 3, 78, 127
5, 15804, Note_off_c, 3, 78, 100
5, 15808, Note_on_c, 3, 74, 127
5, 15868, Note_off_c, 3, 74, 100
5, 15872, Note_on_c, 3, 81, 127
5, 15932, Note_off_c, 3, 81, 100
5, 15936, Note_on_c, 3, 79, 127
5, 16000, Note_on_c, 3, 76, 127
5, 16056, Note_off_c, 3, 79, 100
5, 16060, Note_off_c, 3, 76, 100
5, 16064, Note_on_c, 3, 83, 127
5, 16124, Note_off_c, 3, 83, 100
5, 16128, Note_on_c, 3, 81, 127
5, 16316, Note_off_c, 3, 81, 100
5, 16384, Note_on_c, 3, 83, 127
5, 16444, Note_off_c, 3, 83, 100
5, 16448, Note_on_c, 3, 85, 127
5, 16508, Note_off_c, 3, 85, 100
5, 16512, Note_on_c, 3, 86, 127
5, 16572, Note_off_c, 3, 86, 100
5, 16576, Note_on_c, 3, 85, 127
5, 16636, Note_off_c, 3, 85, 100
5, 16640, Note_on_c, 3, 83, 127
5, 16700, Note_off_c, 3, 83, 100
5, 16704, Note_on_c, 3, 81, 127
5, 16828, Note_off_c, 3, 81, 100
5, 16896, Note_on_c, 3, 83, 127
5, 16936, Note_off_c, 3, 83, 100
5, 17088, Note_on_c, 3, 86, 127
5, 17132, Note_off_c, 3, 86, 100
5, 17136, Note_on_c, 3, 85, 127
5, 17180, Note_off_c, 3, 85, 100
5, 17184, Note_on_c, 3, 83, 127
5, 17228, Note_off_c, 3, 83, 100
5, 17232, Note_on_c, 3, 85, 127
5, 17276, Note_off_c, 3, 85, 100
5, 17280, Note_on_c, 3, 86, 127
5, 17320, Note_off_c, 3, 86, 100
5, 17344, Note_on_c, 3, 81, 127
5, 17404, Note_off_c, 3, 81, 100
5, 17408, Note_on_c, 3, 78, 127
5, 17468, Note_off_c, 3, 78, 100
5, 17472, Note_on_c, 3, 74, 127
5, 17532, Note_off_c, 3, 74, 100
5, 17536, Note_on_c, 3, 69, 127
5, 17596, Note_off_c, 3, 69, 100
5, 17600, Note_on_c, 3, 66, 127
5, 17660, Note_off_c, 3, 66, 100
5, 17664, Note_on_c, 3, 62, 127
5, 17724, Note_off_c, 3, 62, 100
5, 36864, Note_on_c, 3, 62, 127
5, 36924, Note_off_c, 3, 62, 100
5, 37056, Note_on_c, 3, 50, 127
5, 37116, Note_off_c, 3, 50, 100
5, 37248, Note_on_c, 3, 54, 127
5, 37308, Note_off_c, 3, 54, 100
5, 37440, Note_on_c, 3, 57, 127
5, 37500, Note_off_c, 3, 57, 100
5, 37632, Note_on_c, 3, 62, 127
5, 37692, Note_off_c, 3, 62, 100
5, 37824, Note_on_c, 3, 66, 127
5, 37884, Note_off_c, 3, 66, 100
5, 38016, Note_on_c, 3, 67, 127
5, 38076, Note_off_c, 3, 67, 100
5, 38208, Note_on_c, 3, 71, 127
5, 38268, Note_off_c, 3, 71, 100
5, 38400, Note_on_c, 3, 74, 127
5, 38460, Note_off_c, 3, 74, 100
5, 38592, Note_on_c, 3, 79, 127
5, 38652, Note_off_c, 3, 79, 100
5, 38784, Note_on_c, 3, 83, 127
5, 38828, Note_off_c, 3, 83, 100
5, 38832, Note_on_c, 3, 81, 127
5, 38876, Note_off_c, 3, 81, 100
5, 38880, Note_on_c, 3, 83, 127
5, 39164, Note_off_c, 3, 83, 100
5, 39232, Note_on_c, 3, 76, 127
5, 39292, Note_off_c, 3, 76, 100
5, 39296, Note_on_c, 3, 75, 127
5, 39356, Note_off_c, 3, 75, 100
5, 39360, Note_on_c, 3, 76, 127
5, 39420, Note_off_c, 3, 76, 100
5, 39424, Note_on_c, 3, 78, 127
5, 39484, Note_off_c, 3, 78, 100
5, 39488, Note_on_c, 3, 79, 127
5, 39548, Note_off_c, 3, 79, 100
5, 39552, Note_on_c, 3, 81, 127
5, 39612, Note_off_c, 3, 81, 100
5, 39616, Note_on_c, 3, 79, 127
5, 39676, Note_off_c, 3, 79, 100
5, 39680, Note_on_c, 3, 78, 127
5, 39740, Note_off_c, 3, 78, 100
5, 39744, Note_on_c, 3, 79, 127
5, 39804, Note_off_c, 3, 79, 100
5, 39808, Note_on_c, 3, 81, 127
5, 39868, Note_off_c, 3, 81, 100
5, 39872, Note_on_c, 3, 83, 127
5, 39932, Note_off_c, 3, 83, 100
5, 39936, Note_on_c, 3, 84, 127
5, 39996, Note_off_c, 3, 84, 100
5, 40000, Note_on_c, 3, 83, 127
5, 40060, Note_off_c, 3, 83, 100
5, 40064, Note_on_c, 3, 81, 127
5, 40124, Note_off_c, 3, 81, 100
5, 40128, Note_on_c, 3, 79, 127
5, 40188, Note_off_c, 3, 79, 100
5, 40192, Note_on_c, 3, 78, 127
5, 40252, Note_off_c, 3, 78, 100
5, 40256, Note_on_c, 3, 76, 127
5, 40316, Note_off_c, 3, 76, 100
5, 40320, Note_on_c, 3, 75, 127
5, 40572, Note_off_c, 3, 75, 100
5, 40576, Note_on_c, 3, 76, 127
5, 40636, Note_off_c, 3, 76, 100
5, 40640, Note_on_c, 3, 78, 127
5, 40700, Note_off_c, 3, 78, 100
5, 40704, Note_on_c, 3, 79, 127
5, 40764, Note_off_c, 3, 79, 100
5, 40768, Note_on_c, 3, 78, 127
5, 40828, Note_off_c, 3, 78, 100
5, 40832, Note_on_c, 3, 76, 127
5, 40892, Note_off_c, 3, 76, 100
5, 40896, Note_on_c, 3, 78, 127
5, 40956, Note_off_c, 3, 78, 100
5, 40960, Note_on_c, 3, 79, 127
5, 41020, Note_off_c, 3, 79, 100
5, 41024, Note_on_c, 3, 81, 127
5, 41084, Note_off_c, 3, 81, 100
5, 41088, Note_on_c, 3, 71, 127
5, 41148, Note_off_c, 3, 71, 100
5, 41280, Note_on_c, 3, 69, 127
5, 41340, Note_off_c, 3, 69, 100
5, 41472, Note_on_c, 3, 67, 127
5, 41532, Note_off_c, 3, 67, 100
5, 41536, Note_on_c, 3, 66, 127
5, 41596, Note_off_c, 3, 66, 100
5, 41600, Note_on_c, 3, 64, 127
5, 41724, Note_off_c, 3, 64, 100
5, 41728, Note_on_c, 3, 63, 127
5, 41788, Note_off_c, 3, 63, 100
5, 41792, Note_on_c, 3, 64, 127
5, 41852, Note_off_c, 3, 64, 100
5, 41856, Note_on_c, 3, 65, 127
5, 41916, Note_off_c, 3, 65, 100
5, 41920, Note_on_c, 3, 64, 127
5, 41980, Note_off_c, 3, 64, 100
5, 41984, Note_on_c, 3, 65, 127
5, 42044, Note_off_c, 3, 65, 100
5, 42048, Note_on_c, 3, 66, 127
5, 42108, Note_off_c, 3, 66, 100
5, 42112, Note_on_c, 3, 64, 127
5, 42172, Note_off_c, 3, 64, 100
5, 42176, Note_on_c, 3, 66, 127
5, 42236, Note_off_c, 3, 66, 100
5, 42240, Note_on_c, 3, 67, 127
5, 42300, Note_off_c, 3, 67, 100
5, 42304, Note_on_c, 3, 66, 127
5, 42364, Note_off_c, 3, 66, 100
5, 42368, Note_on_c, 3, 67, 127
5, 42428, Note_off_c, 3, 67, 100
5, 42432, Note_on_c, 3, 68, 127
5, 42492, Note_off_c, 3, 68, 100
5, 42496, Note_on_c, 3, 66, 127
5, 42556, Note_off_c, 3, 66, 100
5, 42560, Note_on_c, 3, 68, 127
5, 42620, Note_off_c, 3, 68, 100
5, 42624, Note_on_c, 3, 69, 127
5, 42812, Note_off_c, 3, 69, 100
5, 42880, Note_on_c, 3, 70, 127
5, 42940, Note_off_c, 3, 70, 100
5, 42944, Note_on_c, 3, 71, 127
5, 43004, Note_off_c, 3, 71, 100
5, 43008, Note_on_c, 3, 72, 127
5, 43068, Note_off_c, 3, 72, 100
5, 43072, Note_on_c, 3, 71, 127
5, 43132, Note_off_c, 3, 71, 100
5, 43136, Note_on_c, 3, 72, 127
5, 43196, Note_off_c, 3, 72, 100
5, 43200, Note_on_c, 3, 73, 127
5, 43260, Note_off_c, 3, 73, 100
5, 43264, Note_on_c, 3, 71, 127
5, 43324, Note_off_c, 3, 71, 100
5, 43328, Note_on_c, 3, 73, 127
5, 43388, Note_off_c, 3, 73, 100
5, 43392, Note_on_c, 3, 74, 127
5, 43452, Note_off_c, 3, 74, 100
5, 43456, Note_on_c, 3, 73, 127
5, 43516, Note_off_c, 3, 73, 100
5, 43520, Note_on_c, 3, 74, 127
5, 43580, Note_off_c, 3, 74, 100
5, 43584, Note_on_c, 3, 75, 127
5, 43644, Note_off_c, 3, 75, 100
5, 43648, Note_on_c, 3, 73, 127
5, 43708, Note_off_c, 3, 73, 100
5, 43712, Note_on_c, 3, 75, 127
5, 43752, Note_off_c, 3, 75, 100
5, 43776, Note_on_c, 3, 76, 127
5, 43836, Note_off_c, 3, 76, 100
5, 43840, Note_on_c, 3, 75, 127
5, 43900, Note_off_c, 3, 75, 100
5, 43904, Note_on_c, 3, 76, 127
5, 43964, Note_off_c, 3, 76, 100
5, 43968, Note_on_c, 3, 78, 127
5, 44028, Note_off_c, 3, 78, 100
5, 44032, Note_on_c, 3, 76, 127
5, 44092, Note_off_c, 3, 76, 100
5, 44096, Note_on_c, 3, 78, 127
5, 44156, Note_off_c, 3, 78, 100
5, 44160, Note_on_c, 3, 79, 127
5, 44220, Note_off_c, 3, 79, 100
5, 44224, Note_on_c, 3, 78, 127
5, 44284, Note_off_c, 3, 78, 100
5, 44288, Note_on_c, 3, 79, 127
5, 44348, Note_off_c, 3, 79, 100
5, 44352, Note_on_c, 3, 81, 127
5, 44412, Note_off_c, 3, 81, 100
5, 44416, Note_on_c, 3, 79, 127
5, 44476, Note_off_c, 3, 79, 100
5, 44480, Note_on_c, 3, 81, 127
5, 44540, Note_off_c, 3, 81, 100
5, 44544, Note_on_c, 3, 83, 127
5, 44604, Note_off_c, 3, 83, 100
5, 44608, Note_on_c, 3, 81, 127
5, 44668, Note_off_c, 3, 81, 100
5, 44672, Note_on_c, 3, 83, 127
5, 44732, Note_off_c, 3, 83, 100
5, 44736, Note_on_c, 3, 84, 127
5, 44796, Note_off_c, 3, 84, 100
5, 44800, Note_on_c, 3, 83, 127
5, 44860, Note_off_c, 3, 83, 100
5, 44864, Note_on_c, 3, 81, 127
5, 44924, Note_off_c, 3, 81, 100
5, 44928, Note_on_c, 3, 79, 127
5, 44988, Note_off_c, 3, 79, 100
5, 44992, Note_on_c, 3, 78, 127
5, 45052, Note_off_c, 3, 78, 100
5, 45056, Note_on_c, 3, 79, 127
5, 45116, Note_off_c, 3, 79, 100
5, 45120, Note_on_c, 3, 81, 127
5, 45180, Note_off_c, 3, 81, 100
5, 45184, Note_on_c, 3, 79, 127
5, 45244, Note_off_c, 3, 79, 100
5, 45248, Note_on_c, 3, 78, 127
5, 45308, Note_off_c, 3, 78, 100
5, 45312, Note_on_c, 3, 76, 127
5, 45696, Note_off_c, 3, 76, 100
5, 45888, Note_on_c, 3, 62, 127
5, 46076, Note_off_c, 3, 62, 100
5, 46080, Note_on_c, 3, 60, 127
5, 46140, Note_off_c, 3, 60, 100
5, 46272, Note_on_c, 3, 76, 127
5, 46332, Note_off_c, 3, 76, 100
5, 46464, Note_on_c, 3, 76, 127
5, 46524, Note_off_c, 3, 76, 100
5, 46656, Note_on_c, 3, 76, 127
5, 46716, Note_off_c, 3, 76, 100
5, 46848, Note_on_c, 3, 76, 127
5, 46908, Note_off_c, 3, 76, 100
5, 47040, Note_on_c, 3, 60, 127
5, 47228, Note_off_c, 3, 60, 100
5, 47232, Note_on_c, 3, 59, 127
5, 47292, Note_off_c, 3, 59, 100
5, 47424, Note_on_c, 3, 74, 127
5, 47484, Note_off_c, 3, 74, 100
5, 47616, Note_on_c, 3, 74, 127
5, 47676, Note_off_c, 3, 74, 100
5, 47808, Note_on_c, 3, 74, 127
5, 47868, Note_off_c, 3, 74, 100
5, 48000, Note_on_c, 3, 74, 127
5, 48060, Note_off_c, 3, 74, 100
5, 48192, Note_on_c, 3, 59, 127
5, 48380, Note_off_c, 3, 59, 100
5, 48384, Note_on_c, 3, 57, 127
5, 48444, Note_off_c, 3, 57, 100
5, 48640, Note_on_c, 3, 71, 127
5, 48700, Note_off_c, 3, 71, 100
5, 48704, Note_on_c, 3, 79, 127
5, 48764, Note_off_c, 3, 79, 100
5, 48832, Note_on_c, 3, 69, 127
5, 48892, Note_off_c, 3, 69, 100
5, 48896, Note_on_c, 3, 78, 127
5, 48956, Note_off_c, 3, 78, 100
5, 49024, Note_on_c, 3, 67, 127
5, 49084, Note_off_c, 3, 67, 100
5, 49088, Note_on_c, 3, 76, 127
5, 49148, Note_off_c, 3, 76, 100
5, 49216, Note_on_c, 3, 66, 127
5, 49276, Note_off_c, 3, 66, 100
5, 49280, Note_on_c, 3, 74, 127
5, 49340, Note_off_c, 3, 74, 100
5, 49408, Note_on_c, 3, 67, 127
5, 49468, Note_off_c, 3, 67, 100
5, 49472, Note_on_c, 3, 76, 127
5, 49512, Note_off_c, 3, 76, 100
5, 49536, Note_on_c, 3, 62, 127
5, 49596, Note_off_c, 3, 62, 100
5, 49792, Note_on_c, 3, 69, 127
5, 49852, Note_off_c, 3, 69, 100
5, 49856, Note_on_c, 3, 78, 127
5, 49916, Note_off_c, 3, 78, 100
5, 49984, Note_on_c, 3, 71, 127
5, 50044, Note_off_c, 3, 71, 100
5, 50048, Note_on_c, 3, 79, 127
5, 50108, Note_off_c, 3, 79, 100
5, 50176, Note_on_c, 3, 72, 127
5, 50236, Note_off_c, 3, 72, 100
5, 50240, Note_on_c, 3, 81, 127
5, 50300, Note_off_c, 3, 81, 100
5, 50368, Note_on_c, 3, 71, 127
5, 50428, Note_off_c, 3, 71, 100
5, 50432, Note_on_c, 3, 79, 127
5, 50492, Note_off_c, 3, 79, 100
5, 50560, Note_on_c, 3, 69, 127
5, 50620, Note_off_c, 3, 69, 100
5, 50624, Note_on_c, 3, 78, 127
5, 50664, Note_off_c, 3, 78, 100
5, 50688, Note_on_c, 3, 67, 127
5, 50748, Note_off_c, 3, 67, 100
5, 50880, Note_on_c, 3, 79, 127
5, 51132, Note_off_c, 3, 79, 100
5, 51136, Note_on_c, 3, 83, 127
5, 51196, Note_off_c, 3, 83, 100
5, 51200, Note_on_c, 3, 76, 127
5, 51260, Note_off_c, 3, 76, 100
5, 51264, Note_on_c, 3, 77, 127
5, 51324, Note_off_c, 3, 77, 100
5, 51328, Note_on_c, 3, 81, 127
5, 51388, Note_off_c, 3, 81, 100
5, 51392, Note_on_c, 3, 74, 127
5, 51452, Note_off_c, 3, 74, 100
5, 51456, Note_on_c, 3, 76, 127
5, 51516, Note_off_c, 3, 76, 100
5, 51520, Note_on_c, 3, 79, 127
5, 51580, Note_off_c, 3, 79, 100
5, 51584, Note_on_c, 3, 72, 127
5, 51644, Note_off_c, 3, 72, 100
5, 51648, Note_on_c, 3, 74, 127
5, 51708, Note_off_c, 3, 74, 100
5, 51712, Note_on_c, 3, 77, 127
5, 51772, Note_off_c, 3, 77, 100
5, 51776, Note_on_c, 3, 71, 127
5, 51816, Note_off_c, 3, 71, 100
5, 51840, Note_on_c, 3, 72, 127
5, 51900, Note_off_c, 3, 72, 100
5, 51904, Note_on_c, 3, 67, 127
5, 51964, Note_off_c, 3, 67, 100
5, 51968, Note_on_c, 3, 76, 127
5, 52028, Note_off_c, 3, 76, 100
5, 52032, Note_on_c, 3, 74, 127
5, 52092, Note_off_c, 3, 74, 100
5, 52096, Note_on_c, 3, 71, 127
5, 52156, Note_off_c, 3, 71, 100
5, 52160, Note_on_c, 3, 77, 127
5, 52220, Note_off_c, 3, 77, 100
5, 52224, Note_on_c, 3, 76, 127
5, 52284, Note_off_c, 3, 76, 100
5, 52416, Note_on_c, 3, 91, 127
5, 52476, Note_off_c, 3, 91, 100
5, 52608, Note_on_c, 3, 96, 127
5, 52668, Note_off_c, 3, 96, 100
5, 52800, Note_on_c, 3, 88, 127
5, 52860, Note_off_c, 3, 88, 100
5, 52992, Note_on_c, 3, 86, 127
5, 53180, Note_off_c, 3, 86, 100
5, 53248, Note_on_c, 3, 88, 127
5, 53308, Note_off_c, 3, 88, 100
5, 53312, Note_on_c, 3, 90, 127
5, 53372, Note_off_c, 3, 90, 100
5, 53376, Note_on_c, 3, 91, 127
5, 53436, Note_off_c, 3, 91, 100
5, 53440, Note_on_c, 3, 90, 127
5, 53500, Note_off_c, 3, 90, 100
5, 53504, Note_on_c, 3, 88, 127
5, 53544, Note_off_c, 3, 88, 100
5, 53568, Note_on_c, 3, 86, 127
5, 53756, Note_off_c, 3, 86, 100
5, 53824, Note_on_c, 3, 84, 127
5, 53884, Note_off_c, 3, 84, 100
5, 53888, Note_on_c, 3, 83, 127
5, 53948, Note_off_c, 3, 83, 100
5, 53952, Note_on_c, 3, 81, 127
5, 54012, Note_off_c, 3, 81, 100
5, 54016, Note_on_c, 3, 83, 127
5, 54076, Note_off_c, 3, 83, 100
5, 54080, Note_on_c, 3, 84, 127
5, 54140, Note_off_c, 3, 84, 100
5, 54144, Note_on_c, 3, 83, 127
5, 54332, Note_off_c, 3, 83, 100
5, 54592, Note_on_c, 3, 71, 127
5, 54652, Note_off_c, 3, 71, 100
5, 54656, Note_on_c, 3, 74, 127
5, 54716, Note_off_c, 3, 74, 100
5, 54720, Note_on_c, 3, 79, 127
5, 54780, Note_off_c, 3, 79, 100
5, 54784, Note_on_c, 3, 83, 127
5, 54844, Note_off_c, 3, 83, 100
5, 54848, Note_on_c, 3, 86, 127
5, 54908, Note_off_c, 3, 86, 100
5, 54912, Note_on_c, 3, 91, 127
5, 54972, Note_off_c, 3, 91, 100
5, 54972, End_track
6, 0, Start_track
6, 0, Title_t, "Bruno de Giusti"
6, 0, Control_c, 4, 0, 0
6, 0, Program_c, 4, 6
6, 0, Control_c, 4, 7, 127
6, 0, Control_c, 4, 10, 89
6, 0, Control_c, 4, 91, 127
6, 0, Key_signature, 1, "major"
6, 96, Note_on_c, 4, 59, 96
6, 188, Note_off_c, 4, 59, 100
6, 288, Note_on_c, 4, 55, 96
6, 380, Note_off_c, 4, 55, 100
6, 480, Note_on_c, 4, 50, 96
6, 572, Note_off_c, 4, 50, 100
6, 672, Note_on_c, 4, 47, 96
6, 764, Note_off_c, 4, 47, 100
6, 864, Note_on_c, 4, 43, 96
6, 956, Note_off_c, 4, 43, 100
6, 960, Note_on_c, 4, 42, 96
6, 1052, Note_off_c, 4, 42, 100
6, 1056, Note_on_c, 4, 40, 96
6, 1148, Note_off_c, 4, 40, 100
6, 1152, Note_on_c, 4, 42, 96
6, 1212, Note_off_c, 4, 42, 100
6, 1344, Note_on_c, 4, 45, 96
6, 1404, Note_off_c, 4, 45, 100
6, 1536, Note_on_c, 4, 50, 96
6, 1596, Note_off_c, 4, 50, 100
6, 1728, Note_on_c, 4, 54, 96
6, 1788, Note_off_c, 4, 54, 100
6, 1920, Note_on_c, 4, 57, 96
6, 1980, Note_off_c, 4, 57, 100
6, 2112, Note_on_c, 4, 62, 96
6, 2172, Note_off_c, 4, 62, 100
6, 2400, Note_on_c, 4, 55, 96
6, 2492, Note_off_c, 4, 55, 100
6, 2592, Note_on_c, 4, 52, 96
6, 2684, Note_off_c, 4, 52, 100
6, 2784, Note_on_c, 4, 49, 96
6, 2876, Note_off_c, 4, 49, 100
6, 2976, Note_on_c, 4, 45, 96
6, 3068, Note_off_c, 4, 45, 100
6, 3168, Note_on_c, 4, 43, 96
6, 3260, Note_off_c, 4, 43, 100
6, 3264, Note_on_c, 4, 42, 96
6, 3356, Note_off_c, 4, 42, 100
6, 3360, Note_on_c, 4, 40, 96
6, 3452, Note_off_c, 4, 40, 100
6, 3456, Note_on_c, 4, 38, 96
6, 3516, Note_off_c, 4, 38, 100
6, 3648, Note_on_c, 4, 42, 96
6, 3708, Note_off_c, 4, 42, 100
6, 3840, Note_on_c, 4, 45, 96
6, 3900, Note_off_c, 4, 45, 100
6, 4032, Note_on_c, 4, 50, 96
6, 4092, Note_off_c, 4, 50, 100
6, 4224, Note_on_c, 4, 54, 96
6, 4284, Note_off_c, 4, 54, 100
6, 4416, Note_on_c, 4, 57, 96
6, 4476, Note_off_c, 4, 57, 100
6, 4704, Note_on_c, 4, 55, 96
6, 4796, Note_off_c, 4, 55, 100
6, 4896, Note_on_c, 4, 50, 96
6, 4988, Note_off_c, 4, 50, 100
6, 5088, Note_on_c, 4, 47, 96
6, 5180, Note_off_c, 4, 47, 100
6, 5280, Note_on_c, 4, 43, 96
6, 5372, Note_off_c, 4, 43, 100
6, 5472, Note_on_c, 4, 41, 96
6, 5564, Note_off_c, 4, 41, 100
6, 5568, Note_on_c, 4, 40, 96
6, 5660, Note_off_c, 4, 40, 100
6, 5664, Note_on_c, 4, 38, 96
6, 5756, Note_off_c, 4, 38, 100
6, 5760, Note_on_c, 4, 36, 96
6, 5820, Note_off_c, 4, 36, 100
6, 5952, Note_on_c, 4, 40, 96
6, 6012, Note_off_c, 4, 40, 100
6, 6144, Note_on_c, 4, 43, 96
6, 6204, Note_off_c, 4, 43, 100
6, 6336, Note_on_c, 4, 48, 96
6, 6396, Note_off_c, 4, 48, 100
6, 6528, Note_on_c, 4, 52, 96
6, 6588, Note_off_c, 4, 52, 100
6, 6720, Note_on_c, 4, 55, 96
6, 6780, Note_off_c, 4, 55, 100
6, 7008, Note_on_c, 4, 54, 96
6, 7100, Note_off_c, 4, 54, 100
6, 7200, Note_on_c, 4, 50, 96
6, 7292, Note_off_c, 4, 50, 100
6, 7392, Note_on_c, 4, 45, 96
6, 7484, Note_off_c, 4, 45, 100
6, 7584, Note_on_c, 4, 42, 96
6, 7676, Note_off_c, 4, 42, 100
6, 7776, Note_on_c, 4, 38, 96
6, 7868, Note_off_c, 4, 38, 100
6, 7872, Note_on_c, 4, 36, 96
6, 7964, Note_off_c, 4, 36, 100
6, 7968, Note_on_c, 4, 38, 96
6, 8060, Note_off_c, 4, 38, 100
6, 8064, Note_on_c, 4, 31, 96
6, 8124, Note_off_c, 4, 31, 100
6, 8256, Note_on_c, 4, 35, 96
6, 8316, Note_off_c, 4, 35, 100
6, 8448, Note_on_c, 4, 38, 96
6, 8508, Note_off_c, 4, 38, 100
6, 8640, Note_on_c, 4, 43, 96
6, 8700, Note_off_c, 4, 43, 100
6, 8832, Note_on_c, 4, 42, 96
6, 8892, Note_off_c, 4, 42, 100
6, 9024, Note_on_c, 4, 48, 96
6, 9084, Note_off_c, 4, 48, 100
6, 9216, Note_on_c, 4, 47, 96
6, 9276, Note_off_c, 4, 47, 100
6, 9280, Note_on_c, 4, 45, 96
6, 9340, Note_off_c, 4, 45, 100
6, 9344, Note_on_c, 4, 47, 96
6, 9404, Note_off_c, 4, 47, 100
6, 9408, Note_on_c, 4, 48, 96
6, 9468, Note_off_c, 4, 48, 100
6, 9472, Note_on_c, 4, 47, 96
6, 9532, Note_off_c, 4, 47, 100
6, 9536, Note_on_c, 4, 48, 96
6, 9596, Note_off_c, 4, 48, 100
6, 9600, Note_on_c, 4, 50, 96
6, 9660, Note_off_c, 4, 50, 100
6, 9664, Note_on_c, 4, 48, 96
6, 9724, Note_off_c, 4, 48, 100
6, 9728, Note_on_c, 4, 50, 96
6, 9788, Note_off_c, 4, 50, 100
6, 9792, Note_on_c, 4, 52, 96
6, 9852, Note_off_c, 4, 52, 100
6, 9856, Note_on_c, 4, 50, 96
6, 9916, Note_off_c, 4, 50, 100
6, 9920, Note_on_c, 4, 52, 96
6, 9980, Note_off_c, 4, 52, 100
6, 9984, Note_on_c, 4, 54, 96
6, 10044, Note_off_c, 4, 54, 100
6, 10048, Note_on_c, 4, 52, 96
6, 10108, Note_off_c, 4, 52, 100
6, 10112, Note_on_c, 4, 54, 96
6, 10172, Note_off_c, 4, 54, 100
6, 10176, Note_on_c, 4, 55, 96
6, 10236, Note_off_c, 4, 55, 100
6, 10240, Note_on_c, 4, 54, 96
6, 10300, Note_off_c, 4, 54, 100
6, 10304, Note_on_c, 4, 55, 96
6, 10364, Note_off_c, 4, 55, 100
6, 10368, Note_on_c, 4, 57, 96
6, 10428, Note_off_c, 4, 57, 100
6, 10432, Note_on_c, 4, 55, 96
6, 10492, Note_off_c, 4, 55, 100
6, 10496, Note_on_c, 4, 57, 96
6, 10556, Note_off_c, 4, 57, 100
6, 10560, Note_on_c, 4, 59, 96
6, 10620, Note_off_c, 4, 59, 100
6, 10624, Note_on_c, 4, 57, 96
6, 10684, Note_off_c, 4, 57, 100
6, 10688, Note_on_c, 4, 59, 96
6, 10748, Note_off_c, 4, 59, 100
6, 10752, Note_on_c, 4, 61, 96
6, 10812, Note_off_c, 4, 61, 100
6, 10816, Note_on_c, 4, 59, 96
6, 10876, Note_off_c, 4, 59, 100
6, 10880, Note_on_c, 4, 61, 96
6, 10940, Note_off_c, 4, 61, 100
6, 10944, Note_on_c, 4, 62, 96
6, 11004, Note_off_c, 4, 62, 100
6, 11008, Note_on_c, 4, 61, 96
6, 11068, Note_off_c, 4, 61, 100
6, 11072, Note_on_c, 4, 62, 96
6, 11132, Note_off_c, 4, 62, 100
6, 11136, Note_on_c, 4, 64, 96
6, 11196, Note_off_c, 4, 64, 100
6, 11200, Note_on_c, 4, 62, 96
6, 11260, Note_off_c, 4, 62, 100
6, 11264, Note_on_c, 4, 64, 96
6, 11324, Note_off_c, 4, 64, 100
6, 11328, Note_on_c, 4, 66, 96
6, 11388, Note_off_c, 4, 66, 100
6, 11392, Note_on_c, 4, 64, 96
6, 11452, Note_off_c, 4, 64, 100
6, 11456, Note_on_c, 4, 66, 96
6, 11516, Note_off_c, 4, 66, 100
6, 11520, Note_on_c, 4, 67, 96
6, 11580, Note_off_c, 4, 67, 100
6, 11904, Note_on_c, 4, 40, 96
6, 11948, Note_off_c, 4, 40, 100
6, 11952, Note_on_c, 4, 38, 96
6, 11996, Note_off_c, 4, 38, 100
6, 12000, Note_on_c, 4, 40, 96
6, 12284, Note_off_c, 4, 40, 100
6, 12480, Note_on_c, 4, 59, 96
6, 12540, Note_off_c, 4, 59, 100
6, 12672, Note_on_c, 4, 67, 96
6, 12732, Note_off_c, 4, 67, 100
6, 13056, Note_on_c, 4, 37, 96
6, 13100, Note_off_c, 4, 37, 100
6, 13104, Note_on_c, 4, 35, 96
6, 13148, Note_off_c, 4, 35, 100
6, 13152, Note_on_c, 4, 37, 96
6, 13436, Note_off_c, 4, 37, 100
6, 13632, Note_on_c, 4, 67, 96
6, 13692, Note_off_c, 4, 67, 100
6, 13824, Note_on_c, 4, 66, 96
6, 13884, Note_off_c, 4, 66, 100
6, 13888, Note_on_c, 4, 69, 96
6, 13948, Note_off_c, 4, 69, 100
6, 13952, Note_on_c, 4, 62, 96
6, 14012, Note_off_c, 4, 62, 100
6, 14016, Note_on_c, 4, 64, 96
6, 14076, Note_off_c, 4, 64, 100
6, 14080, Note_on_c, 4, 67, 96
6, 14140, Note_off_c, 4, 67, 100
6, 14144, Note_on_c, 4, 61, 96
6, 14204, Note_off_c, 4, 61, 100
6, 14208, Note_on_c, 4, 62, 96
6, 14268, Note_off_c, 4, 62, 100
6, 14272, Note_on_c, 4, 66, 96
6, 14332, Note_off_c, 4, 66, 100
6, 14336, Note_on_c, 4, 59, 96
6, 14396, Note_off_c, 4, 59, 100
6, 14400, Note_on_c, 4, 60, 96
6, 14460, Note_off_c, 4, 60, 100
6, 14464, Note_on_c, 4, 64, 96
6, 14524, Note_off_c, 4, 64, 100
6, 14528, Note_on_c, 4, 57, 96
6, 14588, Note_off_c, 4, 57, 100
6, 14592, Note_on_c, 4, 59, 96
6, 14652, Note_off_c, 4, 59, 100
6, 14656, Note_on_c, 4, 62, 96
6, 14716, Note_off_c, 4, 62, 100
6, 14720, Note_on_c, 4, 55, 96
6, 14780, Note_off_c, 4, 55, 100
6, 14784, Note_on_c, 4, 57, 96
6, 14844, Note_off_c, 4, 57, 100
6, 14848, Note_on_c, 4, 60, 96
6, 14908, Note_off_c, 4, 60, 100
6, 14912, Note_on_c, 4, 54, 96
6, 14972, Note_off_c, 4, 54, 100
6, 14976, Note_on_c, 4, 55, 96
6, 15036, Note_off_c, 4, 55, 100
6, 15168, Note_on_c, 4, 43, 96
6, 15228, Note_off_c, 4, 43, 100
6, 15360, Note_on_c, 4, 42, 96
6, 15420, Note_off_c, 4, 42, 100
6, 15552, Note_on_c, 4, 45, 96
6, 15612, Note_off_c, 4, 45, 100
6, 15744, Note_on_c, 4, 38, 96
6, 15804, Note_off_c, 4, 38, 100
6, 15936, Note_on_c, 4, 50, 96
6, 15996, Note_off_c, 4, 50, 100
6, 16128, Note_on_c, 4, 49, 96
6, 16188, Note_off_c, 4, 49, 100
6, 16192, Note_on_c, 4, 45, 96
6, 16252, Note_off_c, 4, 45, 100
6, 16256, Note_on_c, 4, 47, 96
6, 16316, Note_off_c, 4, 47, 100
6, 16320, Note_on_c, 4, 49, 96
6, 16380, Note_off_c, 4, 49, 100
6, 16384, Note_on_c, 4, 50, 96
6, 16444, Note_off_c, 4, 50, 100
6, 16448, Note_on_c, 4, 52, 96
6, 16508, Note_off_c, 4, 52, 100
6, 16512, Note_on_c, 4, 54, 96
6, 16764, Note_off_c, 4, 54, 100
6, 16768, Note_on_c, 4, 52, 96
6, 16828, Note_off_c, 4, 52, 100
6, 16832, Note_on_c, 4, 50, 96
6, 16892, Note_off_c, 4, 50, 100
6, 16960, Note_on_c, 4, 55, 96
6, 17020, Note_off_c, 4, 55, 100
6, 17024, Note_on_c, 4, 54, 96
6, 17084, Note_off_c, 4, 54, 100
6, 17088, Note_on_c, 4, 52, 96
6, 17148, Note_off_c, 4, 52, 100
6, 17152, Note_on_c, 4, 54, 96
6, 17212, Note_off_c, 4, 54, 100
6, 17216, Note_on_c, 4, 55, 96
6, 17276, Note_off_c, 4, 55, 100
6, 17280, Note_on_c, 4, 54, 96
6, 17468, Note_off_c, 4, 54, 100
6, 17728, Note_on_c, 4, 54, 96
6, 17788, Note_off_c, 4, 54, 100
6, 17792, Note_on_c, 4, 57, 96
6, 17852, Note_off_c, 4, 57, 100
6, 17856, Note_on_c, 4, 62, 96
6, 17916, Note_off_c, 4, 62, 100
6, 17920, Note_on_c, 4, 66, 96
6, 17980, Note_off_c, 4, 66, 100
6, 17984, Note_on_c, 4, 69, 96
6, 18044, Note_off_c, 4, 69, 100
6, 18048, Note_on_c, 4, 74, 96
6, 18108, Note_off_c, 4, 74, 100
6, 36960, Note_on_c, 4, 69, 96
6, 37052, Note_off_c, 4, 69, 100
6, 37152, Note_on_c, 4, 66, 96
6, 37244, Note_off_c, 4, 66, 100
6, 37344, Note_on_c, 4, 62, 96
6, 37436, Note_off_c, 4, 62, 100
6, 37536, Note_on_c, 4, 57, 96
6, 37628, Note_off_c, 4, 57, 100
6, 37728, Note_on_c, 4, 54, 96
6, 37820, Note_off_c, 4, 54, 100
6, 37920, Note_on_c, 4, 50, 96
6, 38012, Note_off_c, 4, 50, 100
6, 38112, Note_on_c, 4, 47, 96
6, 38204, Note_off_c, 4, 47, 100
6, 38304, Note_on_c, 4, 43, 96
6, 38396, Note_off_c, 4, 43, 100
6, 38496, Note_on_c, 4, 38, 96
6, 38588, Note_off_c, 4, 38, 100
6, 38688, Note_on_c, 4, 35, 96
6, 38780, Note_off_c, 4, 35, 100
6, 38880, Note_on_c, 4, 31, 96
6, 38972, Note_off_c, 4, 31, 100
6, 38976, Note_on_c, 4, 33, 96
6, 39068, Note_off_c, 4, 33, 100
6, 39072, Note_on_c, 4, 35, 96
6, 39164, Note_off_c, 4, 35, 100
6, 39168, Note_on_c, 4, 36, 96
6, 39228, Note_off_c, 4, 36, 100
6, 39360, Note_on_c, 4, 43, 96
6, 39420, Note_off_c, 4, 43, 100
6, 39552, Note_on_c, 4, 48, 96
6, 39612, Note_off_c, 4, 48, 100
6, 39744, Note_on_c, 4, 52, 96
6, 39804, Note_off_c, 4, 52, 100
6, 39936, Note_on_c, 4, 45, 96
6, 39996, Note_off_c, 4, 45, 100
6, 40128, Note_on_c, 4, 60, 96
6, 40316, Note_off_c, 4, 60, 100
6, 40384, Note_on_c, 4, 59, 96
6, 40444, Note_off_c, 4, 59, 100
6, 40448, Note_on_c, 4, 58, 96
6, 40508, Note_off_c, 4, 58, 100
6, 40512, Note_on_c, 4, 59, 96
6, 40572, Note_off_c, 4, 59, 100
6, 40576, Note_on_c, 4, 61, 96
6, 40636, Note_off_c, 4, 61, 100
6, 40640, Note_on_c, 4, 63, 96
6, 40700, Note_off_c, 4, 63, 100
6, 40704, Note_on_c, 4, 64, 96
6, 40764, Note_off_c, 4, 64, 100
6, 40768, Note_on_c, 4, 63, 96
6, 40828, Note_off_c, 4, 63, 100
6, 40832, Note_on_c, 4, 61, 96
6, 40892, Note_off_c, 4, 61, 100
6, 40896, Note_on_c, 4, 63, 96
6, 40956, Note_off_c, 4, 63, 100
6, 40960, Note_on_c, 4, 64, 96
6, 41020, Note_off_c, 4, 64, 100
6, 41024, Note_on_c, 4, 66, 96
6, 41084, Note_off_c, 4, 66, 100
6, 41088, Note_on_c, 4, 67, 96
6, 41148, Note_off_c, 4, 67, 100
6, 41152, Note_on_c, 4, 66, 96
6, 41212, Note_off_c, 4, 66, 100
6, 41216, Note_on_c, 4, 64, 96
6, 41276, Note_off_c, 4, 64, 100
6, 41280, Note_on_c, 4, 66, 96
6, 41340, Note_off_c, 4, 66, 100
6, 41344, Note_on_c, 4, 67, 96
6, 41404, Note_off_c, 4, 67, 100
6, 41408, Note_on_c, 4, 69, 96
6, 41448, Note_off_c, 4, 69, 100
6, 41472, Note_on_c, 4, 71, 96
6, 41532, Note_off_c, 4, 71, 100
6, 41536, Note_on_c, 4, 69, 96
6, 41596, Note_off_c, 4, 69, 100
6, 41600, Note_on_c, 4, 67, 96
6, 41660, Note_off_c, 4, 67, 100
6, 41664, Note_on_c, 4, 69, 96
6, 41724, Note_off_c, 4, 69, 100
6, 41728, Note_on_c, 4, 71, 96
6, 41788, Note_off_c, 4, 71, 100
6, 41792, Note_on_c, 4, 72, 96
6, 41832, Note_off_c, 4, 72, 100
6, 41856, Note_on_c, 4, 63, 96
6, 41916, Note_off_c, 4, 63, 100
6, 42048, Note_on_c, 4, 72, 96
6, 42236, Note_off_c, 4, 72, 100
6, 42240, Note_on_c, 4, 71, 96
6, 42428, Note_off_c, 4, 71, 100
6, 42432, Note_on_c, 4, 62, 96
6, 42620, Note_off_c, 4, 62, 100
6, 42688, Note_on_c, 4, 61, 96
6, 42748, Note_off_c, 4, 61, 100
6, 42752, Note_on_c, 4, 63, 96
6, 42812, Note_off_c, 4, 63, 100
6, 42816, Note_on_c, 4, 64, 96
6, 42876, Note_off_c, 4, 64, 100
6, 42880, Note_on_c, 4, 66, 96
6, 42940, Note_off_c, 4, 66, 100
6, 42944, Note_on_c, 4, 67, 96
6, 43004, Note_off_c, 4, 67, 100
6, 43008, Note_on_c, 4, 58, 96
6, 43068, Note_off_c, 4, 58, 100
6, 43200, Note_on_c, 4, 67, 96
6, 43388, Note_off_c, 4, 67, 100
6, 43392, Note_on_c, 4, 66, 96
6, 43580, Note_off_c, 4, 66, 100
6, 43584, Note_on_c, 4, 57, 96
6, 43772, Note_off_c, 4, 57, 100
6, 43776, Note_on_c, 4, 55, 96
6, 43964, Note_off_c, 4, 55, 100
6, 43968, Note_on_c, 4, 51, 96
6, 44028, Note_off_c, 4, 51, 100
6, 44160, Note_on_c, 4, 52, 96
6, 44220, Note_off_c, 4, 52, 100
6, 44352, Note_on_c, 4, 48, 96
6, 44412, Note_off_c, 4, 48, 100
6, 44544, Note_on_c, 4, 39, 96
6, 44604, Note_off_c, 4, 39, 100
6, 44736, Note_on_c, 4, 63, 96
6, 44796, Note_off_c, 4, 63, 100
6, 44928, Note_on_c, 4, 64, 96
6, 44988, Note_off_c, 4, 64, 100
6, 45120, Note_on_c, 4, 52, 96
6, 45180, Note_off_c, 4, 52, 100
6, 45376, Note_on_c, 4, 55, 96
6, 45436, Note_off_c, 4, 55, 100
6, 45440, Note_on_c, 4, 59, 96
6, 45500, Note_off_c, 4, 59, 100
6, 45504, Note_on_c, 4, 64, 96
6, 45564, Note_off_c, 4, 64, 100
6, 45568, Note_on_c, 4, 67, 96
6, 45628, Note_off_c, 4, 67, 100
6, 45632, Note_on_c, 4, 63, 96
6, 45692, Note_off_c, 4, 63, 100
6, 45696, Note_on_c, 4, 64, 96
6, 45756, Note_off_c, 4, 64, 100
6, 45760, Note_on_c, 4, 59, 96
6, 45820, Note_off_c, 4, 59, 100
6, 45824, Note_on_c, 4, 55, 96
6, 45884, Note_off_c, 4, 55, 100
6, 45952, Note_on_c, 4, 56, 96
6, 46012, Note_off_c, 4, 56, 100
6, 46016, Note_on_c, 4, 65, 96
6, 46076, Note_off_c, 4, 65, 100
6, 46080, Note_on_c, 4, 64, 96
6, 46140, Note_off_c, 4, 64, 100
6, 46144, Note_on_c, 4, 60, 96
6, 46204, Note_off_c, 4, 60, 100
6, 46208, Note_on_c, 4, 57, 96
6, 46268, Note_off_c, 4, 57, 100
6, 46336, Note_on_c, 4, 50, 96
6, 46396, Note_off_c, 4, 50, 100
6, 46400, Note_on_c, 4, 59, 96
6, 46460, Note_off_c, 4, 59, 100
6, 46528, Note_on_c, 4, 48, 96
6, 46588, Note_off_c, 4, 48, 100
6, 46592, Note_on_c, 4, 57, 96
6, 46652, Note_off_c, 4, 57, 100
6, 46720, Note_on_c, 4, 47, 96
6, 46780, Note_off_c, 4, 47, 100
6, 46784, Note_on_c, 4, 56, 96
6, 46844, Note_off_c, 4, 56, 100
6, 46912, Note_on_c, 4, 48, 96
6, 46972, Note_off_c, 4, 48, 100
6, 46976, Note_on_c, 4, 57, 96
6, 47036, Note_off_c, 4, 57, 100
6, 47104, Note_on_c, 4, 54, 96
6, 47164, Note_off_c, 4, 54, 100
6, 47168, Note_on_c, 4, 63, 96
6, 47228, Note_off_c, 4, 63, 100
6, 47232, Note_on_c, 4, 62, 96
6, 47292, Note_off_c, 4, 62, 100
6, 47296, Note_on_c, 4, 59, 96
6, 47356, Note_off_c, 4, 59, 100
6, 47360, Note_on_c, 4, 55, 96
6, 47420, Note_off_c, 4, 55, 100
6, 47488, Note_on_c, 4, 48, 96
6, 47548, Note_off_c, 4, 48, 100
6, 47552, Note_on_c, 4, 57, 96
6, 47612, Note_off_c, 4, 57, 100
6, 47680, Note_on_c, 4, 47, 96
6, 47740, Note_off_c, 4, 47, 100
6, 47744, Note_on_c, 4, 55, 96
6, 47804, Note_off_c, 4, 55, 100
6, 47872, Note_on_c, 4, 45, 96
6, 47932, Note_off_c, 4, 45, 100
6, 47936, Note_on_c, 4, 54, 96
6, 47996, Note_off_c, 4, 54, 100
6, 48064, Note_on_c, 4, 47, 96
6, 48124, Note_off_c, 4, 47, 100
6, 48128, Note_on_c, 4, 55, 96
6, 48188, Note_off_c, 4, 55, 100
6, 48256, Note_on_c, 4, 52, 96
6, 48316, Note_off_c, 4, 52, 100
6, 48320, Note_on_c, 4, 62, 96
6, 48360, Note_off_c, 4, 62, 100
6, 48384, Note_on_c, 4, 60, 96
6, 48444, Note_off_c, 4, 60, 100
6, 48448, Note_on_c, 4, 57, 96
6, 48508, Note_off_c, 4, 57, 100
6, 48512, Note_on_c, 4, 52, 96
6, 48572, Note_off_c, 4, 52, 100
6, 48576, Note_on_c, 4, 48, 96
6, 48636, Note_off_c, 4, 48, 100
6, 48768, Note_on_c, 4, 48, 96
6, 48828, Note_off_c, 4, 48, 100
6, 48960, Note_on_c, 4, 48, 96
6, 49020, Note_off_c, 4, 48, 100
6, 49152, Note_on_c, 4, 48, 96
6, 49212, Note_off_c, 4, 48, 100
6, 49344, Note_on_c, 4, 60, 96
6, 49404, Note_off_c, 4, 60, 100
6, 49536, Note_on_c, 4, 60, 96
6, 49596, Note_off_c, 4, 60, 100
6, 49600, Note_on_c, 4, 57, 96
6, 49660, Note_off_c, 4, 57, 100
6, 49664, Note_on_c, 4, 54, 96
6, 49724, Note_off_c, 4, 54, 100
6, 49728, Note_on_c, 4, 50, 96
6, 49788, Note_off_c, 4, 50, 100
6, 49920, Note_on_c, 4, 50, 96
6, 49980, Note_off_c, 4, 50, 100
6, 50112, Note_on_c, 4, 50, 96
6, 50172, Note_off_c, 4, 50, 100
6, 50304, Note_on_c, 4, 50, 96
6, 50364, Note_off_c, 4, 50, 100
6, 50496, Note_on_c, 4, 60, 96
6, 50556, Note_off_c, 4, 60, 100
6, 50688, Note_on_c, 4, 59, 96
6, 50748, Note_off_c, 4, 59, 100
6, 50752, Note_on_c, 4, 55, 96
6, 50812, Note_off_c, 4, 55, 100
6, 50816, Note_on_c, 4, 62, 96
6, 50876, Note_off_c, 4, 62, 100
6, 50880, Note_on_c, 4, 60, 96
6, 50940, Note_off_c, 4, 60, 100
6, 50944, Note_on_c, 4, 57, 96
6, 51004, Note_off_c, 4, 57, 100
6, 51008, Note_on_c, 4, 64, 96
6, 51068, Note_off_c, 4, 64, 100
6, 51072, Note_on_c, 4, 62, 96
6, 51132, Note_off_c, 4, 62, 100
6, 51264, Note_on_c, 4, 47, 96
6, 51324, Note_off_c, 4, 47, 100
6, 51456, Note_on_c, 4, 43, 96
6, 51516, Note_off_c, 4, 43, 100
6, 51648, Note_on_c, 4, 65, 96
6, 51708, Note_off_c, 4, 65, 100
6, 51840, Note_on_c, 4, 64, 96
6, 51900, Note_off_c, 4, 64, 100
6, 51904, Note_on_c, 4, 67, 96
6, 51964, Note_off_c, 4, 67, 100
6, 51968, Note_on_c, 4, 60, 96
6, 52028, Note_off_c, 4, 60, 100
6, 52032, Note_on_c, 4, 62, 96
6, 52092, Note_off_c, 4, 62, 100
6, 52096, Note_on_c, 4, 65, 96
6, 52156, Note_off_c, 4, 65, 100
6, 52160, Note_on_c, 4, 59, 96
6, 52220, Note_off_c, 4, 59, 100
6, 52224, Note_on_c, 4, 60, 96
6, 52284, Note_off_c, 4, 60, 100
6, 52288, Note_on_c, 4, 64, 96
6, 52348, Note_off_c, 4, 64, 100
6, 52352, Note_on_c, 4, 57, 96
6, 52412, Note_off_c, 4, 57, 100
6, 52416, Note_on_c, 4, 59, 96
6, 52476, Note_off_c, 4, 59, 100
6, 52480, Note_on_c, 4, 62, 96
6, 52540, Note_off_c, 4, 62, 100
6, 52544, Note_on_c, 4, 55, 96
6, 52604, Note_off_c, 4, 55, 100
6, 52608, Note_on_c, 4, 57, 96
6, 52668, Note_off_c, 4, 57, 100
6, 52672, Note_on_c, 4, 60, 96
6, 52732, Note_off_c, 4, 60, 100
6, 52736, Note_on_c, 4, 54, 96
6, 52796, Note_off_c, 4, 54, 100
6, 52800, Note_on_c, 4, 55, 96
6, 52860, Note_off_c, 4, 55, 100
6, 52864, Note_on_c, 4, 59, 96
6, 52924, Note_off_c, 4, 59, 100
6, 52928, Note_on_c, 4, 52, 96
6, 52988, Note_off_c, 4, 52, 100
6, 52992, Note_on_c, 4, 54, 96
6, 53052, Note_off_c, 4, 54, 100
6, 53056, Note_on_c, 4, 50, 96
6, 53116, Note_off_c, 4, 50, 100
6, 53120, Note_on_c, 4, 52, 96
6, 53180, Note_off_c, 4, 52, 100
6, 53184, Note_on_c, 4, 54, 96
6, 53244, Note_off_c, 4, 54, 100
6, 53248, Note_on_c, 4, 55, 96
6, 53308, Note_off_c, 4, 55, 100
6, 53312, Note_on_c, 4, 57, 96
6, 53352, Note_off_c, 4, 57, 100
6, 53376, Note_on_c, 4, 47, 96
6, 53628, Note_off_c, 4, 47, 100
6, 53632, Note_on_c, 4, 45, 96
6, 53692, Note_off_c, 4, 45, 100
6, 53696, Note_on_c, 4, 43, 96
6, 53756, Note_off_c, 4, 43, 100
6, 53760, Note_on_c, 4, 52, 96
6, 53820, Note_off_c, 4, 52, 100
6, 53952, Note_on_c, 4, 55, 96
6, 53996, Note_off_c, 4, 55, 100
6, 54000, Note_on_c, 4, 54, 96
6, 54044, Note_off_c, 4, 54, 100
6, 54048, Note_on_c, 4, 52, 96
6, 54092, Note_off_c, 4, 52, 100
6, 54096, Note_on_c, 4, 54, 96
6, 54140, Note_off_c, 4, 54, 100
6, 54144, Note_on_c, 4, 55, 96
6, 54184, Note_off_c, 4, 55, 100
6, 54208, Note_on_c, 4, 50, 96
6, 54268, Note_off_c, 4, 50, 100
6, 54272, Note_on_c, 4, 47, 96
6, 54332, Note_off_c, 4, 47, 100
6, 54336, Note_on_c, 4, 43, 96
6, 54396, Note_off_c, 4, 43, 100
6, 54400, Note_on_c, 4, 38, 96
6, 54460, Note_off_c, 4, 38, 100
6, 54464, Note_on_c, 4, 35, 96
6, 54524, Note_off_c, 4, 35, 100
6, 54528, Note_on_c, 4, 31, 96
6, 54716, Note_off_c, 4, 31, 100
6, 54716, End_track
7, 0, Start_track
7, 0, Title_t, "bdg@bruno-de-giusti.net"
7, 0, Control_c, 5, 0, 0
7, 0, Program_c, 5, 6
7, 0, Control_c, 5, 7, 127
7, 0, Control_c, 5, 10, 47
7, 0, Control_c, 5, 91, 127
7, 0, Key_signature, 1, "major"
7, 0, Note_on_c, 5, 43, 96
7, 60, Note_off_c, 5, 43, 100
7, 192, Note_on_c, 5, 47, 96
7, 252, Note_off_c, 5, 47, 100
7, 384, Note_on_c, 5, 50, 96
7, 444, Note_off_c, 5, 50, 100
7, 576, Note_on_c, 5, 55, 96
7, 636, Note_off_c, 5, 55, 100
7, 768, Note_on_c, 5, 59, 96
7, 828, Note_off_c, 5, 59, 100
7, 960, Note_on_c, 5, 61, 96
7, 1020, Note_off_c, 5, 61, 100
7, 1248, Note_on_c, 5, 62, 96
7, 1340, Note_off_c, 5, 62, 100
7, 1440, Note_on_c, 5, 57, 96
7, 1532, Note_off_c, 5, 57, 100
7, 1632, Note_on_c, 5, 54, 96
7, 1724, Note_off_c, 5, 54, 100
7, 1824, Note_on_c, 5, 50, 96
7, 1916, Note_off_c, 5, 50, 100
7, 2016, Note_on_c, 5, 45, 96
7, 2108, Note_off_c, 5, 45, 100
7, 2112, Note_on_c, 5, 43, 96
7, 2204, Note_off_c, 5, 43, 100
7, 2208, Note_on_c, 5, 42, 96
7, 2300, Note_off_c, 5, 42, 100
7, 2304, Note_on_c, 5, 40, 96
7, 2364, Note_off_c, 5, 40, 100
7, 2496, Note_on_c, 5, 43, 96
7, 2556, Note_off_c, 5, 43, 100
7, 2688, Note_on_c, 5, 45, 96
7, 2748, Note_off_c, 5, 45, 100
7, 2880, Note_on_c, 5, 49, 96
7, 2940, Note_off_c, 5, 49, 100
7, 3072, Note_on_c, 5, 52, 96
7, 3132, Note_off_c, 5, 52, 100
7, 3264, Note_on_c, 5, 55, 96
7, 3324, Note_off_c, 5, 55, 100
7, 3552, Note_on_c, 5, 54, 96
7, 3644, Note_off_c, 5, 54, 100
7, 3744, Note_on_c, 5, 50, 96
7, 3836, Note_off_c, 5, 50, 100
7, 3936, Note_on_c, 5, 45, 96
7, 4028, Note_off_c, 5, 45, 100
7, 4128, Note_on_c, 5, 42, 96
7, 4220, Note_off_c, 5, 42, 100
7, 4320, Note_on_c, 5, 40, 96
7, 4412, Note_off_c, 5, 40, 100
7, 4416, Note_on_c, 5, 38, 96
7, 4508, Note_off_c, 5, 38, 100
7, 4512, Note_on_c, 5, 36, 96
7, 4604, Note_off_c, 5, 36, 100
7, 4608, Note_on_c, 5, 35, 96
7, 4668, Note_off_c, 5, 35, 100
7, 4800, Note_on_c, 5, 38, 96
7, 4860, Note_off_c, 5, 38, 100
7, 4992, Note_on_c, 5, 43, 96
7, 5052, Note_off_c, 5, 43, 100
7, 5184, Note_on_c, 5, 47, 96
7, 5244, Note_off_c, 5, 47, 100
7, 5376, Note_on_c, 5, 50, 96
7, 5436, Note_off_c, 5, 50, 100
7, 5568, Note_on_c, 5, 53, 96
7, 5628, Note_off_c, 5, 53, 100
7, 5856, Note_on_c, 5, 52, 96
7, 5948, Note_off_c, 5, 52, 100
7, 6048, Note_on_c, 5, 48, 96
7, 6140, Note_off_c, 5, 48, 100
7, 6240, Note_on_c, 5, 43, 96
7, 6332, Note_off_c, 5, 43, 100
7, 6432, Note_on_c, 5, 40, 96
7, 6524, Note_off_c, 5, 40, 100
7, 6624, Note_on_c, 5, 36, 96
7, 6716, Note_off_c, 5, 36, 100
7, 6720, Note_on_c, 5, 35, 96
7, 6812, Note_off_c, 5, 35, 100
7, 6816, Note_on_c, 5, 33, 96
7, 6908, Note_off_c, 5, 33, 100
7, 6912, Note_on_c, 5, 38, 96
7, 6972, Note_off_c, 5, 38, 100
7, 7104, Note_on_c, 5, 42, 96
7, 7164, Note_off_c, 5, 42, 100
7, 7296, Note_on_c, 5, 45, 96
7, 7356, Note_off_c, 5, 45, 100
7, 7488, Note_on_c, 5, 50, 96
7, 7548, Note_off_c, 5, 50, 100
7, 7680, Note_on_c, 5, 54, 96
7, 7740, Note_off_c, 5, 54, 100
7, 7872, Note_on_c, 5, 57, 96
7, 7932, Note_off_c, 5, 57, 100
7, 8160, Note_on_c, 5, 59, 96
7, 8252, Note_off_c, 5, 59, 100
7, 8352, Note_on_c, 5, 55, 96
7, 8444, Note_off_c, 5, 55, 100
7, 8544, Note_on_c, 5, 50, 96
7, 8636, Note_off_c, 5, 50, 100
7, 8736, Note_on_c, 5, 47, 96
7, 8828, Note_off_c, 5, 47, 100
7, 8928, Note_on_c, 5, 45, 96
7, 9020, Note_off_c, 5, 45, 100
7, 9024, Note_on_c, 5, 43, 96
7, 9116, Note_off_c, 5, 43, 100
7, 9120, Note_on_c, 5, 42, 96
7, 9212, Note_off_c, 5, 42, 100
7, 9216, Note_on_c, 5, 43, 96
7, 9276, Note_off_c, 5, 43, 100
7, 9600, Note_on_c, 5, 71, 96
7, 9644, Note_off_c, 5, 71, 100
7, 9648, Note_on_c, 5, 69, 96
7, 9692, Note_off_c, 5, 69, 100
7, 9696, Note_on_c, 5, 71, 96
7, 9980, Note_off_c, 5, 71, 100
7, 10176, Note_on_c, 5, 52, 96
7, 10236, Note_off_c, 5, 52, 100
7, 10368, Note_on_c, 5, 42, 96
7, 10428, Note_off_c, 5, 42, 100
7, 10752, Note_on_c, 5, 69, 96
7, 10796, Note_off_c, 5, 69, 100
7, 10800, Note_on_c, 5, 67, 96
7, 10844, Note_off_c, 5, 67, 100
7, 10848, Note_on_c, 5, 69, 96
7, 11132, Note_off_c, 5, 69, 100
7, 11328, Note_on_c, 5, 50, 96
7, 11388, Note_off_c, 5, 50, 100
7, 11520, Note_on_c, 5, 59, 96
7, 11580, Note_off_c, 5, 59, 100
7, 11584, Note_on_c, 5, 60, 96
7, 11644, Note_off_c, 5, 60, 100
7, 11648, Note_on_c, 5, 59, 96
7, 11708, Note_off_c, 5, 59, 100
7, 11712, Note_on_c, 5, 57, 96
7, 11772, Note_off_c, 5, 57, 100
7, 11776, Note_on_c, 5, 59, 96
7, 11836, Note_off_c, 5, 59, 100
7, 11840, Note_on_c, 5, 57, 96
7, 11900, Note_off_c, 5, 57, 100
7, 11904, Note_on_c, 5, 55, 96
7, 11964, Note_off_c, 5, 55, 100
7, 11968, Note_on_c, 5, 57, 96
7, 12028, Note_off_c, 5, 57, 100
7, 12032, Note_on_c, 5, 55, 96
7, 12092, Note_off_c, 5, 55, 100
7, 12096, Note_on_c, 5, 54, 96
7, 12156, Note_off_c, 5, 54, 100
7, 12160, Note_on_c, 5, 55, 96
7, 12220, Note_off_c, 5, 55, 100
7, 12224, Note_on_c, 5, 54, 96
7, 12284, Note_off_c, 5, 54, 100
7, 12288, Note_on_c, 5, 52, 96
7, 12348, Note_off_c, 5, 52, 100
7, 12352, Note_on_c, 5, 54, 96
7, 12412, Note_off_c, 5, 54, 100
7, 12416, Note_on_c, 5, 52, 96
7, 12476, Note_off_c, 5, 52, 100
7, 12480, Note_on_c, 5, 50, 96
7, 12540, Note_off_c, 5, 50, 100
7, 12544, Note_on_c, 5, 52, 96
7, 12604, Note_off_c, 5, 52, 100
7, 12608, Note_on_c, 5, 50, 96
7, 12668, Note_off_c, 5, 50, 100
7, 12672, Note_on_c, 5, 49, 96
7, 12732, Note_off_c, 5, 49, 100
7, 12736, Note_on_c, 5, 50, 96
7, 12796, Note_off_c, 5, 50, 100
7, 12800, Note_on_c, 5, 49, 96
7, 12860, Note_off_c, 5, 49, 100
7, 12864, Note_on_c, 5, 47, 96
7, 12924, Note_off_c, 5, 47, 100
7, 12928, Note_on_c, 5, 49, 96
7, 12988, Note_off_c, 5, 49, 100
7, 12992, Note_on_c, 5, 47, 96
7, 13052, Note_off_c, 5, 47, 100
7, 13056, Note_on_c, 5, 45, 96
7, 13116, Note_off_c, 5, 45, 100
7, 13120, Note_on_c, 5, 47, 96
7, 13180, Note_off_c, 5, 47, 100
7, 13184, Note_on_c, 5, 45, 96
7, 13244, Note_off_c, 5, 45, 100
7, 13248, Note_on_c, 5, 43, 96
7, 13308, Note_off_c, 5, 43, 100
7, 13312, Note_on_c, 5, 45, 96
7, 13372, Note_off_c, 5, 45, 100
7, 13376, Note_on_c, 5, 43, 96
7, 13436, Note_off_c, 5, 43, 100
7, 13440, Note_on_c, 5, 42, 96
7, 13500, Note_off_c, 5, 42, 100
7, 13504, Note_on_c, 5, 43, 96
7, 13564, Note_off_c, 5, 43, 100
7, 13568, Note_on_c, 5, 42, 96
7, 13628, Note_off_c, 5, 42, 100
7, 13632, Note_on_c, 5, 40, 96
7, 13692, Note_off_c, 5, 40, 100
7, 13696, Note_on_c, 5, 42, 96
7, 13756, Note_off_c, 5, 42, 100
7, 13760, Note_on_c, 5, 40, 96
7, 13820, Note_off_c, 5, 40, 100
7, 13824, Note_on_c, 5, 38, 96
7, 13884, Note_off_c, 5, 38, 100
7, 14016, Note_on_c, 5, 45, 96
7, 14076, Note_off_c, 5, 45, 100
7, 14208, Note_on_c, 5, 54, 96
7, 14268, Note_off_c, 5, 54, 100
7, 14400, Note_on_c, 5, 45, 96
7, 14460, Note_off_c, 5, 45, 100
7, 14592, Note_on_c, 5, 38, 96
7, 14652, Note_off_c, 5, 38, 100
7, 14784, Note_on_c, 5, 48, 96
7, 14844, Note_off_c, 5, 48, 100
7, 14976, Note_on_c, 5, 47, 96
7, 15036, Note_off_c, 5, 47, 100
7, 15040, Note_on_c, 5, 43, 96
7, 15100, Note_off_c, 5, 43, 100
7, 15104, Note_on_c, 5, 50, 96
7, 15164, Note_off_c, 5, 50, 100
7, 15168, Note_on_c, 5, 49, 96
7, 15228, Note_off_c, 5, 49, 100
7, 15232, Note_on_c, 5, 45, 96
7, 15292, Note_off_c, 5, 45, 100
7, 15296, Note_on_c, 5, 52, 96
7, 15356, Note_off_c, 5, 52, 100
7, 15360, Note_on_c, 5, 50, 96
7, 15420, Note_off_c, 5, 50, 100
7, 15424, Note_on_c, 5, 47, 96
7, 15484, Note_off_c, 5, 47, 100
7, 15488, Note_on_c, 5, 54, 96
7, 15548, Note_off_c, 5, 54, 100
7, 15552, Note_on_c, 5, 52, 96
7, 15612, Note_off_c, 5, 52, 100
7, 15616, Note_on_c, 5, 49, 96
7, 15676, Note_off_c, 5, 49, 100
7, 15680, Note_on_c, 5, 55, 96
7, 15740, Note_off_c, 5, 55, 100
7, 15744, Note_on_c, 5, 54, 96
7, 15804, Note_off_c, 5, 54, 100
7, 15808, Note_on_c, 5, 50, 96
7, 15868, Note_off_c, 5, 50, 100
7, 15872, Note_on_c, 5, 57, 96
7, 15932, Note_off_c, 5, 57, 100
7, 15936, Note_on_c, 5, 55, 96
7, 16000, Note_on_c, 5, 52, 96
7, 16056, Note_off_c, 5, 55, 100
7, 16060, Note_off_c, 5, 52, 100
7, 16064, Note_on_c, 5, 59, 96
7, 16124, Note_off_c, 5, 59, 100
7, 16128, Note_on_c, 5, 57, 96
7, 16316, Note_off_c, 5, 57, 100
7, 16384, Note_on_c, 5, 59, 96
7, 16444, Note_off_c, 5, 59, 100
7, 16448, Note_on_c, 5, 61, 96
7, 16508, Note_off_c, 5, 61, 100
7, 16512, Note_on_c, 5, 62, 96
7, 16572, Note_off_c, 5, 62, 100
7, 16576, Note_on_c, 5, 61, 96
7, 16636, Note_off_c, 5, 61, 100
7, 16640, Note_on_c, 5, 59, 96
7, 16700, Note_off_c, 5, 59, 100
7, 16704, Note_on_c, 5, 57, 96
7, 16828, Note_off_c, 5, 57, 100
7, 16896, Note_on_c, 5, 59, 96
7, 16936, Note_off_c, 5, 59, 100
7, 17088, Note_on_c, 5, 62, 96
7, 17132, Note_off_c, 5, 62, 100
7, 17136, Note_on_c, 5, 61, 96
7, 17180, Note_off_c, 5, 61, 100
7, 17184, Note_on_c, 5, 59, 96
7, 17228, Note_off_c, 5, 59, 100
7, 17232, Note_on_c, 5, 61, 96
7, 17276, Note_off_c, 5, 61, 100
7, 17280, Note_on_c, 5, 62, 96
7, 17320, Note_off_c, 5, 62, 100
7, 17344, Note_on_c, 5, 57, 96
7, 17404, Note_off_c, 5, 57, 100
7, 17408, Note_on_c, 5, 54, 96
7, 17468, Note_off_c, 5, 54, 100
7, 17472, Note_on_c, 5, 50, 96
7, 17532, Note_off_c, 5, 50, 100
7, 17536, Note_on_c, 5, 45, 96
7, 17596, Note_off_c, 5, 45, 100
7, 17600, Note_on_c, 5, 42, 96
7, 17660, Note_off_c, 5, 42, 100
7, 17664, Note_on_c, 5, 38, 96
7, 17724, Note_off_c, 5, 38, 100
7, 36864, Note_on_c, 5, 38, 96
7, 36924, Note_off_c, 5, 38, 100
7, 37056, Note_on_c, 5, 26, 96
7, 37116, Note_off_c, 5, 26, 100
7, 37248, Note_on_c, 5, 30, 96
7, 37308, Note_off_c, 5, 30, 100
7, 37440, Note_on_c, 5, 33, 96
7, 37500, Note_off_c, 5, 33, 100
7, 37632, Note_on_c, 5, 38, 96
7, 37692, Note_off_c, 5, 38, 100
7, 37824, Note_on_c, 5, 42, 96
7, 37884, Note_off_c, 5, 42, 100
7, 38016, Note_on_c, 5, 43, 96
7, 38076, Note_off_c, 5, 43, 100
7, 38208, Note_on_c, 5, 47, 96
7, 38268, Note_off_c, 5, 47, 100
7, 38400, Note_on_c, 5, 50, 96
7, 38460, Note_off_c, 5, 50, 100
7, 38592, Note_on_c, 5, 55, 96
7, 38652, Note_off_c, 5, 55, 100
7, 38784, Note_on_c, 5, 59, 96
7, 38828, Note_off_c, 5, 59, 100
7, 38832, Note_on_c, 5, 57, 96
7, 38876, Note_off_c, 5, 57, 100
7, 38880, Note_on_c, 5, 59, 96
7, 39164, Note_off_c, 5, 59, 100
7, 39232, Note_on_c, 5, 52, 96
7, 39292, Note_off_c, 5, 52, 100
7, 39296, Note_on_c, 5, 51, 96
7, 39356, Note_off_c, 5, 51, 100
7, 39360, Note_on_c, 5, 52, 96
7, 39420, Note_off_c, 5, 52, 100
7, 39424, Note_on_c, 5, 54, 96
7, 39484, Note_off_c, 5, 54, 100
7, 39488, Note_on_c, 5, 55, 96
7, 39548, Note_off_c, 5, 55, 100
7, 39552, Note_on_c, 5, 57, 96
7, 39612, Note_off_c, 5, 57, 100
7, 39616, Note_on_c, 5, 55, 96
7, 39676, Note_off_c, 5, 55, 100
7, 39680, Note_on_c, 5, 54, 96
7, 39740, Note_off_c, 5, 54, 100
7, 39744, Note_on_c, 5, 55, 96
7, 39804, Note_off_c, 5, 55, 100
7, 39808, Note_on_c, 5, 57, 96
7, 39868, Note_off_c, 5, 57, 100
7, 39872, Note_on_c, 5, 59, 96
7, 39932, Note_off_c, 5, 59, 100
7, 39936, Note_on_c, 5, 60, 96
7, 39996, Note_off_c, 5, 60, 100
7, 40000, Note_on_c, 5, 59, 96
7, 40060, Note_off_c, 5, 59, 100
7, 40064, Note_on_c, 5, 57, 96
7, 40124, Note_off_c, 5, 57, 100
7, 40128, Note_on_c, 5, 55, 96
7, 40188, Note_off_c, 5, 55, 100
7, 40192, Note_on_c, 5, 54, 96
7, 40252, Note_off_c, 5, 54, 100
7, 40256, Note_on_c, 5, 52, 96
7, 40316, Note_off_c, 5, 52, 100
7, 40320, Note_on_c, 5, 51, 96
7, 40572, Note_off_c, 5, 51, 100
7, 40576, Note_on_c, 5, 52, 96
7, 40636, Note_off_c, 5, 52, 100
7, 40640, Note_on_c, 5, 54, 96
7, 40700, Note_off_c, 5, 54, 100
7, 40704, Note_on_c, 5, 55, 96
7, 40764, Note_off_c, 5, 55, 100
7, 40768, Note_on_c, 5, 54, 96
7, 40828, Note_off_c, 5, 54, 100
7, 40832, Note_on_c, 5, 52, 96
7, 40892, Note_off_c, 5, 52, 100
7, 40896, Note_on_c, 5, 54, 96
7, 40956, Note_off_c, 5, 54, 100
7, 40960, Note_on_c, 5, 55, 96
7, 41020, Note_off_c, 5, 55, 100
7, 41024, Note_on_c, 5, 57, 96
7, 41084, Note_off_c, 5, 57, 100
7, 41088, Note_on_c, 5, 47, 96
7, 41148, Note_off_c, 5, 47, 100
7, 41280, Note_on_c, 5, 45, 96
7, 41340, Note_off_c, 5, 45, 100
7, 41472, Note_on_c, 5, 43, 96
7, 41532, Note_off_c, 5, 43, 100
7, 41536, Note_on_c, 5, 42, 96
7, 41596, Note_off_c, 5, 42, 100
7, 41600, Note_on_c, 5, 40, 96
7, 41724, Note_off_c, 5, 40, 100
7, 41728, Note_on_c, 5, 39, 96
7, 41788, Note_off_c, 5, 39, 100
7, 41792, Note_on_c, 5, 40, 96
7, 41852, Note_off_c, 5, 40, 100
7, 41856, Note_on_c, 5, 41, 96
7, 41916, Note_off_c, 5, 41, 100
7, 41920, Note_on_c, 5, 40, 96
7, 41980, Note_off_c, 5, 40, 100
7, 41984, Note_on_c, 5, 41, 96
7, 42044, Note_off_c, 5, 41, 100
7, 42048, Note_on_c, 5, 42, 96
7, 42108, Note_off_c, 5, 42, 100
7, 42112, Note_on_c, 5, 40, 96
7, 42172, Note_off_c, 5, 40, 100
7, 42176, Note_on_c, 5, 42, 96
7, 42236, Note_off_c, 5, 42, 100
7, 42240, Note_on_c, 5, 43, 96
7, 42300, Note_off_c, 5, 43, 100
7, 42304, Note_on_c, 5, 42, 96
7, 42364, Note_off_c, 5, 42, 100
7, 42368, Note_on_c, 5, 43, 96
7, 42428, Note_off_c, 5, 43, 100
7, 42432, Note_on_c, 5, 44, 96
7, 42492, Note_off_c, 5, 44, 100
7, 42496, Note_on_c, 5, 42, 96
7, 42556, Note_off_c, 5, 42, 100
7, 42560, Note_on_c, 5, 44, 96
7, 42620, Note_off_c, 5, 44, 100
7, 42624, Note_on_c, 5, 45, 96
7, 42812, Note_off_c, 5, 45, 100
7, 42880, Note_on_c, 5, 46, 96
7, 42940, Note_off_c, 5, 46, 100
7, 42944, Note_on_c, 5, 47, 96
7, 43004, Note_off_c, 5, 47, 100
7, 43008, Note_on_c, 5, 48, 96
7, 43068, Note_off_c, 5, 48, 100
7, 43072, Note_on_c, 5, 47, 96
7, 43132, Note_off_c, 5, 47, 100
7, 43136, Note_on_c, 5, 48, 96
7, 43196, Note_off_c, 5, 48, 100
7, 43200, Note_on_c, 5, 49, 96
7, 43260, Note_off_c, 5, 49, 100
7, 43264, Note_on_c, 5, 47, 96
7, 43324, Note_off_c, 5, 47, 100
7, 43328, Note_on_c, 5, 49, 96
7, 43388, Note_off_c, 5, 49, 100
7, 43392, Note_on_c, 5, 50, 96
7, 43452, Note_off_c, 5, 50, 100
7, 43456, Note_on_c, 5, 49, 96
7, 43516, Note_off_c, 5, 49, 100
7, 43520, Note_on_c, 5, 50, 96
7, 43580, Note_off_c, 5, 50, 100
7, 43584, Note_on_c, 5, 51, 96
7, 43644, Note_off_c, 5, 51, 100
7, 43648, Note_on_c, 5, 49, 96
7, 43708, Note_off_c, 5, 49, 100
7, 43712, Note_on_c, 5, 51, 96
7, 43752, Note_off_c, 5, 51, 100
7, 43776, Note_on_c, 5, 52, 96
7, 43836, Note_off_c, 5, 52, 100
7, 43840, Note_on_c, 5, 51, 96
7, 43900, Note_off_c, 5, 51, 100
7, 43904, Note_on_c, 5, 52, 96
7, 43964, Note_off_c, 5, 52, 100
7, 43968, Note_on_c, 5, 54, 96
7, 44028, Note_off_c, 5, 54, 100
7, 44032, Note_on_c, 5, 52, 96
7, 44092, Note_off_c, 5, 52, 100
7, 44096, Note_on_c, 5, 54, 96
7, 44156, Note_off_c, 5, 54, 100
7, 44160, Note_on_c, 5, 55, 96
7, 44220, Note_off_c, 5, 55, 100
7, 44224, Note_on_c, 5, 54, 96
7, 44284, Note_off_c, 5, 54, 100
7, 44288, Note_on_c, 5, 55, 96
7, 44348, Note_off_c, 5, 55, 100
7, 44352, Note_on_c, 5, 57, 96
7, 44412, Note_off_c, 5, 57, 100
7, 44416, Note_on_c, 5, 55, 96
7, 44476, Note_off_c, 5, 55, 100
7, 44480, Note_on_c, 5, 57, 96
7, 44540, Note_off_c, 5, 57, 100
7, 44544, Note_on_c, 5, 59, 96
7, 44604, Note_off_c, 5, 59, 100
7, 44608, Note_on_c, 5, 57, 96
7, 44668, Note_off_c, 5, 57, 100
7, 44672, Note_on_c, 5, 59, 96
7, 44732, Note_off_c, 5, 59, 100
7, 44736, Note_on_c, 5, 60, 96
7, 44796, Note_off_c, 5, 60, 100
7, 44800, Note_on_c, 5, 59, 96
7, 44860, Note_off_c, 5, 59, 100
7, 44864, Note_on_c, 5, 57, 96
7, 44924, Note_off_c, 5, 57, 100
7, 44928, Note_on_c, 5, 55, 96
7, 44988, Note_off_c, 5, 55, 100
7, 44992, Note_on_c, 5, 54, 96
7, 45052, Note_off_c, 5, 54, 100
7, 45056, Note_on_c, 5, 55, 96
7, 45116, Note_off_c, 5, 55, 100
7, 45120, Note_on_c, 5, 57, 96
7, 45180, Note_off_c, 5, 57, 100
7, 45184, Note_on_c, 5, 55, 96
7, 45244, Note_off_c, 5, 55, 100
7, 45248, Note_on_c, 5, 54, 96
7, 45308, Note_off_c, 5, 54, 100
7, 45312, Note_on_c, 5, 52, 96
7, 45696, Note_off_c, 5, 52, 100
7, 45888, Note_on_c, 5, 38, 96
7, 46076, Note_off_c, 5, 38, 100
7, 46080, Note_on_c, 5, 36, 96
7, 46140, Note_off_c, 5, 36, 100
7, 46272, Note_on_c, 5, 52, 96
7, 46332, Note_off_c, 5, 52, 100
7, 46464, Note_on_c, 5, 52, 96
7, 46524, Note_off_c, 5, 52, 100
7, 46656, Note_on_c, 5, 52, 96
7, 46716, Note_off_c, 5, 52, 100
7, 46848, Note_on_c, 5, 52, 96
7, 46908, Note_off_c, 5, 52, 100
7, 47040, Note_on_c, 5, 36, 96
7, 47228, Note_off_c, 5, 36, 100
7, 47232, Note_on_c, 5, 35, 96
7, 47292, Note_off_c, 5, 35, 100
7, 47424, Note_on_c, 5, 50, 96
7, 47484, Note_off_c, 5, 50, 100
7, 47616, Note_on_c, 5, 50, 96
7, 47676, Note_off_c, 5, 50, 100
7, 47808, Note_on_c, 5, 50, 96
7, 47868, Note_off_c, 5, 50, 100
7, 48000, Note_on_c, 5, 50, 96
7, 48060, Note_off_c, 5, 50, 100
7, 48192, Note_on_c, 5, 35, 96
7, 48380, Note_off_c, 5, 35, 100
7, 48384, Note_on_c, 5, 33, 96
7, 48444, Note_off_c, 5, 33, 100
7, 48640, Note_on_c, 5, 47, 96
7, 48700, Note_off_c, 5, 47, 100
7, 48704, Note_on_c, 5, 55, 96
7, 48764, Note_off_c, 5, 55, 100
7, 48832, Note_on_c, 5, 45, 96
7, 48892, Note_off_c, 5, 45, 100
7, 48896, Note_on_c, 5, 54, 96
7, 48956, Note_off_c, 5, 54, 100
7, 49024, Note_on_c, 5, 43, 96
7, 49084, Note_off_c, 5, 43, 100
7, 49088, Note_on_c, 5, 52, 96
7, 49148, Note_off_c, 5, 52, 100
7, 49216, Note_on_c, 5, 42, 96
7, 49276, Note_off_c, 5, 42, 100
7, 49280, Note_on_c, 5, 50, 96
7, 49340, Note_off_c, 5, 50, 100
7, 49408, Note_on_c, 5, 43, 96
7, 49468, Note_off_c, 5, 43, 100
7, 49472, Note_on_c, 5, 52, 96
7, 49512, Note_off_c, 5, 52, 100
7, 49536, Note_on_c, 5, 38, 96
7, 49596, Note_off_c, 5, 38, 100
7, 49792, Note_on_c, 5, 45, 96
7, 49852, Note_off_c, 5, 45, 100
7, 49856, Note_on_c, 5, 54, 96
7, 49916, Note_off_c, 5, 54, 100
7, 49984, Note_on_c, 5, 47, 96
7, 50044, Note_off_c, 5, 47, 100
7, 50048, Note_on_c, 5, 55, 96
7, 50108, Note_off_c, 5, 55, 100
7, 50176, Note_on_c, 5, 48, 96
7, 50236, Note_off_c, 5, 48, 100
7, 50240, Note_on_c, 5, 57, 96
7, 50300, Note_off_c, 5, 57, 100
7, 50368, Note_on_c, 5, 47, 96
7, 50428, Note_off_c, 5, 47, 100
7, 50432, Note_on_c, 5, 55, 96
7, 50492, Note_off_c, 5, 55, 100
7, 50560, Note_on_c, 5, 45, 96
7, 50620, Note_off_c, 5, 45, 100
7, 50624, Note_on_c, 5, 54, 96
7, 50664, Note_off_c, 5, 54, 100
7, 50688, Note_on_c, 5, 43, 96
7, 50748, Note_off_c, 5, 43, 100
7, 50880, Note_on_c, 5, 55, 96
7, 51132, Note_off_c, 5, 55, 100
7, 51136, Note_on_c, 5, 59, 96
7, 51196, Note_off_c, 5, 59, 100
7, 51200, Note_on_c, 5, 52, 96
7, 51260, Note_off_c, 5, 52, 100
7, 51264, Note_on_c, 5, 53, 96
7, 51324, Note_off_c, 5, 53, 100
7, 51328, Note_on_c, 5, 57, 96
7, 51388, Note_off_c, 5, 57, 100
7, 51392, Note_on_c, 5, 50, 96
7, 51452, Note_off_c, 5, 50, 100
7, 51456, Note_on_c, 5, 52, 96
7, 51516, Note_off_c, 5, 52, 100
7, 51520, Note_on_c, 5, 55, 96
7, 51580, Note_off_c, 5, 55, 100
7, 51584, Note_on_c, 5, 48, 96
7, 51644, Note_off_c, 5, 48, 100
7, 51648, Note_on_c, 5, 50, 96
7, 51708, Note_off_c, 5, 50, 100
7, 51712, Note_on_c, 5, 53, 96
7, 51772, Note_off_c, 5, 53, 100
7, 51776, Note_on_c, 5, 47, 96
7, 51816, Note_off_c, 5, 47, 100
7, 51840, Note_on_c, 5, 48, 96
7, 51900, Note_off_c, 5, 48, 100
7, 51904, Note_on_c, 5, 43, 96
7, 51964, Note_off_c, 5, 43, 100
7, 51968, Note_on_c, 5, 52, 96
7, 52028, Note_off_c, 5, 52, 100
7, 52032, Note_on_c, 5, 50, 96
7, 52092, Note_off_c, 5, 50, 100
7, 52096, Note_on_c, 5, 47, 96
7, 52156, Note_off_c, 5, 47, 100
7, 52160, Note_on_c, 5, 53, 96
7, 52220, Note_off_c, 5, 53, 100
7, 52224, Note_on_c, 5, 52, 96
7, 52284, Note_off_c, 5, 52, 100
7, 52416, Note_on_c, 5, 67, 96
7, 52476, Note_off_c, 5, 67, 100
7, 52608, Note_on_c, 5, 72, 96
7, 52668, Note_off_c, 5, 72, 100
7, 52800, Note_on_c, 5, 64, 96
7, 52860, Note_off_c, 5, 64, 100
7, 52992, Note_on_c, 5, 62, 96
7, 53180, Note_off_c, 5, 62, 100
7, 53248, Note_on_c, 5, 64, 96
7, 53308, Note_off_c, 5, 64, 100
7, 53312, Note_on_c, 5, 66, 96
7, 53372, Note_off_c, 5, 66, 100
7, 53376, Note_on_c, 5, 67, 96
7, 53436, Note_off_c, 5, 67, 100
7, 53440, Note_on_c, 5, 66, 96
7, 53500, Note_off_c, 5, 66, 100
7, 53504, Note_on_c, 5, 64, 96
7, 53544, Note_off_c, 5, 64, 100
7, 53568, Note_on_c, 5, 62, 96
7, 53756, Note_off_c, 5, 62, 100
7, 53824, Note_on_c, 5, 60, 96
7, 53884, Note_off_c, 5, 60, 100
7, 53888, Note_on_c, 5, 59, 96
7, 53948, Note_off_c, 5, 59, 100
7, 53952, Note_on_c, 5, 57, 96
7, 54012, Note_off_c, 5, 57, 100
7, 54016, Note_on_c, 5, 59, 96
7, 54076, Note_off_c, 5, 59, 100
7, 54080, Note_on_c, 5, 60, 96
7, 54140, Note_off_c, 5, 60, 100
7, 54144, Note_on_c, 5, 59, 96
7, 54332, Note_off_c, 5, 59, 100
7, 54592, Note_on_c, 5, 47, 96
7, 54652, Note_off_c, 5, 47, 100
7, 54656, Note_on_c, 5, 50, 96
7, 54716, Note_off_c, 5, 50, 100
7, 54720, Note_on_c, 5, 55, 96
7, 54780, Note_off_c, 5, 55, 100
7, 54784, Note_on_c, 5, 59, 96
7, 54844, Note_off_c, 5, 59, 100
7, 54848, Note_on_c, 5, 62, 96
7, 54908, Note_off_c, 5, 62, 100
7, 54912, Note_on_c, 5, 67, 96
7, 54972, Note_off_c, 5, 67, 100
7, 54972, End_track
8, 0, Start_track
8, 0, Title_t, "www.bruno-de-giusti.net"
8, 0, Control_c, 2, 0, 0
8, 0, Program_c, 2, 6
8, 0, Control_c, 2, 7, 127
8, 0, Control_c, 2, 10, 127
8, 0, Control_c, 2, 91, 127
8, 0, Key_signature, 1, "major"
8, 0, End_track
9, 0, Start_track
9, 0, Title_t, "All rights reserved"
9, 0, Control_c, 2, 0, 0
9, 0, Program_c, 2, 6
9, 0, Control_c, 2, 7, 127
9, 0, Control_c, 2, 10, 127
9, 0, Control_c, 2, 91, 127
9, 0, Key_signature, 1, "major"
9, 0, End_track
10, 0, Start_track
10, 1, Copyright_t, "___________________________________________________\012\012KUNSTDERFUGE.COM LARGE CLASSICAL MIDI COLLECTION\012ONCLASSICAL BY ALESSANDRO SIMONETTO, PROPRIETOR\012___________________________________________________\012\012! Attention: this file is under copyright !\012\012(c)onclassical, (c)degiusti, 2010\012___________________________________________________\012\012NO ONE MAY REPUBLISH THIS FILE WITHOUT PERMISSION\012COMMERCIAL USES OF THIS FILE IS STRICTLY PROHIBITED\012___________________________________________________\012\012Files & contributor's list: http://kunstderfuge.com/\012Terms and conditions: http://kunstderfuge.com/notes.htm"
10, 1, End_track
0, 0, End_of_file