0, 0, Header, 1, 21, 384
1, 0, Start_track
1, 0, Time_signature, 3, 2, 96, 8
1, 0, Sequencer_specific, 03, 00, 00, 41
1, 0, Sequencer_specific, 05, 00, 00, 77, 0E, 00
1, 0, Tempo, 750000
1, 36, Tempo, 740740
1, 76, Tempo, 731707
1, 112, Tempo, 722891
1, 152, Tempo, 714285
1, 192, Tempo, 705882
1, 228, Tempo, 697674
1, 268, Tempo, 689655
1, 304, Tempo, 681818
1, 344, Tempo, 674157
1, 384, Tempo, 666666
1, 4608, Tempo, 857142
1, 4612, Tempo, 845070
1, 4616, Tempo, 833333
1, 4620, Tempo, 821917
1, 4624, Tempo, 810810
1, 4632, Tempo, 800000
1, 4636, Tempo, 789473
1, 4640, Tempo, 779220
1, 4644, Tempo, 769230
1, 4648, Tempo, 759493
1, 4656, Tempo, 750000
1, 4660, Tempo, 740740
1, 4664, Tempo, 731707
1, 4668, Tempo, 722891
1, 4672, Tempo, 714285
1, 4680, Tempo, 705882
1, 4684, Tempo, 697674
1, 4688, Tempo, 689655
1, 4692, Tempo, 681818
1, 4696, Tempo, 674157
1, 4704, Tempo, 666666
1, 4720, Tempo, 722891
1, 4760, Tempo, 714285
1, 4800, Tempo, 705882
1, 4836, Tempo, 697674
1, 4876, Tempo, 689655
1, 4912, Tempo, 681818
1, 4952, Tempo, 674157
1, 4992, Tempo, 666666
1, 9216, Tempo, 800000
1, 9220, Tempo, 789473
1, 9228, Tempo, 779220
1, 9232, Tempo, 769230
1, 9240, Tempo, 759493
1, 9248, Tempo, 750000
1, 9252, Tempo, 740740
1, 9260, Tempo, 731707
1, 9264, Tempo, 722891
1, 9272, Tempo, 714285
1, 9280, Tempo, 705882
1, 9284, Tempo, 697674
1, 9292, Tempo, 689655
1, 9296, Tempo, 681818
1, 9304, Tempo, 674157
1, 9312, Tempo, 666666
1, 13248, Tempo, 666666
1, 13304, Tempo, 674157
1, 13360, Tempo, 681818
1, 13420, Tempo, 689655
1, 13476, Tempo, 697674
1, 13536, Tempo, 705882
1, 13592, Tempo, 714285
1, 13648, Tempo, 722891
1, 13708, Tempo, 731707
1, 13764, Tempo, 740740
1, 13824, Tempo, 740740
1, 13920, Tempo, 750000
1, 13948, Tempo, 740740
1, 13976, Tempo, 731707
1, 14004, Tempo, 722891
1, 14032, Tempo, 714285
1, 14064, Tempo, 705882
1, 14092, Tempo, 697674
1, 14120, Tempo, 689655
1, 14148, Tempo, 681818
1, 14176, Tempo, 674157
1, 14208, Tempo, 666666
1, 18048, Tempo, 750000
1, 18432, Tempo, 750000
1, 18468, Tempo, 740740
1, 18508, Tempo, 731707
1, 18544, Tempo, 722891
1, 18584, Tempo, 714285
1, 18624, Tempo, 705882
1, 18660, Tempo, 697674
1, 18700, Tempo, 689655
1, 18736, Tempo, 681818
1, 18776, Tempo, 674157
1, 18816, Tempo, 666666
1, 23040, Tempo, 857142
1, 23044, Tempo, 845070
1, 23048, Tempo, 833333
1, 23052, Tempo, 821917
1, 23056, Tempo, 810810
1, 23064, Tempo, 800000
1, 23068, Tempo, 789473
1, 23072, Tempo, 779220
1, 23076, Tempo, 769230
1, 23080, Tempo, 759493
1, 23088, Tempo, 750000
1, 23092, Tempo, 740740
1, 23096, Tempo, 731707
1, 23100, Tempo, 722891
1, 23104, Tempo, 714285
1, 23112, Tempo, 705882
1, 23116, Tempo, 697674
1, 23120, Tempo, 689655
1, 23124, Tempo, 681818
1, 23128, Tempo, 674157
1, 23136, Tempo, 666666
1, 23232, Tempo, 750000
1, 23248, Tempo, 740740
1, 23268, Tempo, 731707
1, 23288, Tempo, 722891
1, 23308, Tempo, 714285
1, 23328, Tempo, 705882
1, 23344, Tempo, 697674
1, 23364, Tempo, 689655
1, 23384, Tempo, 681818
1, 23404, Tempo, 674157
1, 23424, Tempo, 666666
1, 27648, Tempo, 800000
1, 27652, Tempo, 789473
1, 27660, Tempo, 779220
1, 27664, Tempo, 769230
1, 27672, Tempo, 759493
1, 27680, Tempo, 750000
1, 27684, Tempo, 740740
1, 27692, Tempo, 731707
1, 27696, Tempo, 722891
1, 27704, Tempo, 714285
1, 27712, Tempo, 705882
1, 27716, Tempo, 697674
1, 27724, Tempo, 689655
1, 27728, Tempo, 681818
1, 27736, Tempo, 674157
1, 27744, Tempo, 666666
1, 31776, Tempo, 666666
1, 31824, Tempo, 674157
1, 31872, Tempo, 681818
1, 31920, Tempo, 689655
1, 31968, Tempo, 697674
1, 32016, Tempo, 705882
1, 32064, Tempo, 714285
1, 32112, Tempo, 722891
1, 32160, Tempo, 731707
1, 32208, Tempo, 740740
1, 32256, Tempo, 740740
1, 32352, Tempo, 750000
1, 32380, Tempo, 740740
1, 32408, Tempo, 731707
1, 32436, Tempo, 722891
1, 32464, Tempo, 714285
1, 32496, Tempo, 705882
1, 32524, Tempo, 697674
1, 32552, Tempo, 689655
1, 32580, Tempo, 681818
1, 32608, Tempo, 674157
1, 32640, Tempo, 666666
1, 36480, Tempo, 857142
1, 36864, Tempo, 750000
1, 36892, Tempo, 740740
1, 36920, Tempo, 731707
1, 36948, Tempo, 722891
1, 36976, Tempo, 714285
1, 37008, Tempo, 705882
1, 37036, Tempo, 697674
1, 37064, Tempo, 689655
1, 37092, Tempo, 681818
1, 37120, Tempo, 674157
1, 37152, Tempo, 666666
1, 40752, Tempo, 666666
1, 40824, Tempo, 674157
1, 40896, Tempo, 681818
1, 40968, Tempo, 689655
1, 41040, Tempo, 697674
1, 41112, Tempo, 705882
1, 41184, Tempo, 714285
1, 41256, Tempo, 722891
1, 41328, Tempo, 731707
1, 41400, Tempo, 740740
1, 41472, Tempo, 674157
1, 41476, Tempo, 845070
1, 41480, Tempo, 833333
1, 41484, Tempo, 821917
1, 41488, Tempo, 810810
1, 41496, Tempo, 800000
1, 41500, Tempo, 789473
1, 41504, Tempo, 779220
1, 41508, Tempo, 769230
1, 41512, Tempo, 759493
1, 41520, Tempo, 750000
1, 41524, Tempo, 740740
1, 41528, Tempo, 731707
1, 41532, Tempo, 722891
1, 41536, Tempo, 714285
1, 41544, Tempo, 705882
1, 41548, Tempo, 697674
1, 41552, Tempo, 689655
1, 41556, Tempo, 681818
1, 41560, Tempo, 674157
1, 41568, Tempo, 750000
1, 41596, Tempo, 740740
1, 41624, Tempo, 731707
1, 41652, Tempo, 722891
1, 41680, Tempo, 714285
1, 41712, Tempo, 705882
1, 41740, Tempo, 697674
1, 41768, Tempo, 689655
1, 41796, Tempo, 681818
1, 41824, Tempo, 674157
1, 41856, Tempo, 666666
1, 42624, Tempo, 674157
1, 42628, Tempo, 789473
1, 42636, Tempo, 779220
1, 42640, Tempo, 769230
1, 42648, Tempo, 759493
1, 42656, Tempo, 750000
1, 42660, Tempo, 740740
1, 42668, Tempo, 731707
1, 42672, Tempo, 722891
1, 42680, Tempo, 714285
1, 42688, Tempo, 705882
1, 42692, Tempo, 697674
1, 42700, Tempo, 689655
1, 42704, Tempo, 681818
1, 42712, Tempo, 674157
1, 42720, Tempo, 750000
1, 42748, Tempo, 740740
1, 42776, Tempo, 731707
1, 42804, Tempo, 722891
1, 42832, Tempo, 714285
1, 42864, Tempo, 705882
1, 42892, Tempo, 697674
1, 42920, Tempo, 689655
1, 42948, Tempo, 681818
1, 42976, Tempo, 674157
1, 43008, Tempo, 666666
1, 44928, Tempo, 1395348
1, 44932, Tempo, 1304347
1, 44936, Tempo, 1224489
1, 44940, Tempo, 1132075
1, 44944, Tempo, 1071428
1, 44948, Tempo, 1016949
1, 44952, Tempo, 952380
1, 44956, Tempo, 909090
1, 44960, Tempo, 869565
1, 44964, Tempo, 821917
1, 44968, Tempo, 789473
1, 44972, Tempo, 759493
1, 44976, Tempo, 750000
1, 44988, Tempo, 909090
1, 45004, Tempo, 895522
1, 45016, Tempo, 882352
1, 45032, Tempo, 869565
1, 45048, Tempo, 857142
1, 45060, Tempo, 845070
1, 45076, Tempo, 833333
1, 45088, Tempo, 821917
1, 45104, Tempo, 810810
1, 45120, Tempo, 800000
1, 45148, Tempo, 789473
1, 45176, Tempo, 779220
1, 45204, Tempo, 769230
1, 45232, Tempo, 759493
1, 45264, Tempo, 750000
1, 45292, Tempo, 740740
1, 45320, Tempo, 731707
1, 45348, Tempo, 722891
1, 45376, Tempo, 714285
1, 45408, Tempo, 705882
1, 45436, Tempo, 697674
1, 45464, Tempo, 689655
1, 45492, Tempo, 681818
1, 45520, Tempo, 674157
1, 45552, Tempo, 666666
1, 46080, Tempo, 674157
1, 46084, Tempo, 789473
1, 46092, Tempo, 779220
1, 46096, Tempo, 769230
1, 46104, Tempo, 759493
1, 46112, Tempo, 750000
1, 46116, Tempo, 740740
1, 46124, Tempo, 731707
1, 46128, Tempo, 722891
1, 46136, Tempo, 714285
1, 46144, Tempo, 705882
1, 46148, Tempo, 697674
1, 46156, Tempo, 689655
1, 46160, Tempo, 681818
1, 46168, Tempo, 674157
1, 46176, Tempo, 750000
1, 46204, Tempo, 740740
1, 46232, Tempo, 731707
1, 46260, Tempo, 722891
1, 46288, Tempo, 714285
1, 46320, Tempo, 705882
1, 46348, Tempo, 697674
1, 46376, Tempo, 689655
1, 46404, Tempo, 681818
1, 46432, Tempo, 674157
1, 46464, Tempo, 666666
1, 48384, Tempo, 750000
1, 48392, Tempo, 740740
1, 48400, Tempo, 731707
1, 48412, Tempo, 722891
1, 48420, Tempo, 714285
1, 48432, Tempo, 705882
1, 48440, Tempo, 697674
1, 48448, Tempo, 689655
1, 48460, Tempo, 681818
1, 48468, Tempo, 674157
1, 48480, Tempo, 666666
1, 52992, Tempo, 800000
1, 53000, Tempo, 789473
1, 53008, Tempo, 779220
1, 53020, Tempo, 769230
1, 53028, Tempo, 759493
1, 53040, Tempo, 750000
1, 53048, Tempo, 740740
1, 53056, Tempo, 731707
1, 53068, Tempo, 722891
1, 53076, Tempo, 714285
1, 53088, Tempo, 705882
1, 53096, Tempo, 697674
1, 53104, Tempo, 689655
1, 53116, Tempo, 681818
1, 53124, Tempo, 674157
1, 53136, Tempo, 666666
1, 54528, Tempo, 666666
1, 54552, Tempo, 674157
1, 54576, Tempo, 681818
1, 54604, Tempo, 689655
1, 54628, Tempo, 697674
1, 54656, Tempo, 705882
1, 54680, Tempo, 714285
1, 54704, Tempo, 722891
1, 54732, Tempo, 731707
1, 54756, Tempo, 740740
1, 54784, Tempo, 750000
1, 54808, Tempo, 759493
1, 54832, Tempo, 769230
1, 54860, Tempo, 779220
1, 54884, Tempo, 789473
1, 54912, Tempo, 857142
1, 54924, Tempo, 845070
1, 54940, Tempo, 833333
1, 54952, Tempo, 821917
1, 54968, Tempo, 810810
1, 54984, Tempo, 800000
1, 54996, Tempo, 789473
1, 55012, Tempo, 779220
1, 55024, Tempo, 769230
1, 55040, Tempo, 759493
1, 55056, Tempo, 750000
1, 55068, Tempo, 740740
1, 55084, Tempo, 731707
1, 55096, Tempo, 722891
1, 55112, Tempo, 714285
1, 55128, Tempo, 705882
1, 55140, Tempo, 697674
1, 55156, Tempo, 689655
1, 55168, Tempo, 681818
1, 55184, Tempo, 674157
1, 55200, Tempo, 666666
1, 59280, Tempo, 666666
1, 59320, Tempo, 674157
1, 59360, Tempo, 681818
1, 59404, Tempo, 689655
1, 59444, Tempo, 697674
1, 59488, Tempo, 705882
1, 59528, Tempo, 714285
1, 59568, Tempo, 722891
1, 59612, Tempo, 731707
1, 59652, Tempo, 740740
1, 59696, Tempo, 750000
1, 59736, Tempo, 759493
1, 59776, Tempo, 769230
1, 59820, Tempo, 779220
1, 59860, Tempo, 789473
1, 59904, Tempo, 674157
1, 59908, Tempo, 845070
1, 59912, Tempo, 833333
1, 59916, Tempo, 821917
1, 59920, Tempo, 810810
1, 59928, Tempo, 800000
1, 59932, Tempo, 789473
1, 59936, Tempo, 779220
1, 59940, Tempo, 769230
1, 59944, Tempo, 759493
1, 59952, Tempo, 750000
1, 59956, Tempo, 740740
1, 59960, Tempo, 731707
1, 59964, Tempo, 722891
1, 59968, Tempo, 714285
1, 59976, Tempo, 705882
1, 59980, Tempo, 697674
1, 59984, Tempo, 689655
1, 59988, Tempo, 681818
1, 59992, Tempo, 674157
1, 60000, Tempo, 800000
1, 60016, Tempo, 789473
1, 60036, Tempo, 779220
1, 60056, Tempo, 769230
1, 60076, Tempo, 759493
1, 60096, Tempo, 750000
1, 60112, Tempo, 740740
1, 60132, Tempo, 731707
1, 60152, Tempo, 722891
1, 60172, Tempo, 714285
1, 60192, Tempo, 705882
1, 60208, Tempo, 697674
1, 60228, Tempo, 689655
1, 60248, Tempo, 681818
1, 60268, Tempo, 674157
1, 60288, Tempo, 666666
1, 61056, Tempo, 674157
1, 61060, Tempo, 789473
1, 61068, Tempo, 779220
1, 61072, Tempo, 769230
1, 61080, Tempo, 759493
1, 61088, Tempo, 750000
1, 61092, Tempo, 740740
1, 61100, Tempo, 731707
1, 61104, Tempo, 722891
1, 61112, Tempo, 714285
1, 61120, Tempo, 705882
1, 61124, Tempo, 697674
1, 61132, Tempo, 689655
1, 61136, Tempo, 681818
1, 61144, Tempo, 674157
1, 61152, Tempo, 800000
1, 61168, Tempo, 789473
1, 61188, Tempo, 779220
1, 61208, Tempo, 769230
1, 61228, Tempo, 759493
1, 61248, Tempo, 750000
1, 61264, Tempo, 740740
1, 61284, Tempo, 731707
1, 61304, Tempo, 722891
1, 61324, Tempo, 714285
1, 61344, Tempo, 705882
1, 61360, Tempo, 697674
1, 61380, Tempo, 689655
1, 61400, Tempo, 681818
1, 61420, Tempo, 674157
1, 61440, Tempo, 666666
1, 63360, Tempo, 1428571
1, 63364, Tempo, 1333333
1, 63368, Tempo, 1250000
1, 63372, Tempo, 1176470
1, 63376, Tempo, 1111111
1, 63380, Tempo, 1052631
1, 63384, Tempo, 1000000
1, 63388, Tempo, 952380
1, 63392, Tempo, 909090
1, 63396, Tempo, 869565
1, 63400, Tempo, 833333
1, 63404, Tempo, 810810
1, 63408, Tempo, 800000
1, 63420, Tempo, 909090
1, 63436, Tempo, 895522
1, 63448, Tempo, 882352
1, 63464, Tempo, 869565
1, 63480, Tempo, 857142
1, 63492, Tempo, 845070
1, 63508, Tempo, 833333
1, 63520, Tempo, 821917
1, 63536, Tempo, 810810
1, 63552, Tempo, 800000
1, 63580, Tempo, 789473
1, 63608, Tempo, 779220
1, 63636, Tempo, 769230
1, 63664, Tempo, 759493
1, 63696, Tempo, 750000
1, 63724, Tempo, 740740
1, 63752, Tempo, 731707
1, 63780, Tempo, 722891
1, 63808, Tempo, 714285
1, 63840, Tempo, 705882
1, 63868, Tempo, 697674
1, 63896, Tempo, 689655
1, 63924, Tempo, 681818
1, 63952, Tempo, 674157
1, 63984, Tempo, 666666
1, 64512, Tempo, 674157
1, 64516, Tempo, 845070
1, 64520, Tempo, 833333
1, 64524, Tempo, 821917
1, 64528, Tempo, 810810
1, 64536, Tempo, 800000
1, 64540, Tempo, 789473
1, 64544, Tempo, 779220
1, 64548, Tempo, 769230
1, 64552, Tempo, 759493
1, 64560, Tempo, 750000
1, 64564, Tempo, 740740
1, 64568, Tempo, 731707
1, 64572, Tempo, 722891
1, 64576, Tempo, 714285
1, 64584, Tempo, 705882
1, 64588, Tempo, 697674
1, 64592, Tempo, 689655
1, 64596, Tempo, 681818
1, 64600, Tempo, 674157
1, 64608, Tempo, 800000
1, 64624, Tempo, 789473
1, 64644, Tempo, 779220
1, 64664, Tempo, 769230
1, 64684, Tempo, 759493
1, 64704, Tempo, 750000
1, 64720, Tempo, 740740
1, 64740, Tempo, 731707
1, 64760, Tempo, 722891
1, 64780, Tempo, 714285
1, 64800, Tempo, 705882
1, 64816, Tempo, 697674
1, 64836, Tempo, 689655
1, 64856, Tempo, 681818
1, 64876, Tempo, 674157
1, 64896, Tempo, 666666
1, 65664, Tempo, 674157
1, 65672, Tempo, 740740
1, 65680, Tempo, 731707
1, 65692, Tempo, 722891
1, 65700, Tempo, 714285
1, 65712, Tempo, 705882
1, 65720, Tempo, 697674
1, 65728, Tempo, 689655
1, 65740, Tempo, 681818
1, 65748, Tempo, 674157
1, 65760, Tempo, 750000
1, 65776, Tempo, 740740
1, 65796, Tempo, 731707
1, 65816, Tempo, 722891
1, 65836, Tempo, 714285
1, 65856, Tempo, 705882
1, 65872, Tempo, 697674
1, 65892, Tempo, 689655
1, 65912, Tempo, 681818
1, 65932, Tempo, 674157
1, 65952, Tempo, 666666
1, 66816, Tempo, 800000
1, 66820, Tempo, 789473
1, 66828, Tempo, 779220
1, 66832, Tempo, 769230
1, 66840, Tempo, 759493
1, 66848, Tempo, 750000
1, 66852, Tempo, 740740
1, 66860, Tempo, 731707
1, 66864, Tempo, 722891
1, 66872, Tempo, 714285
1, 66880, Tempo, 705882
1, 66884, Tempo, 697674
1, 66892, Tempo, 689655
1, 66896, Tempo, 681818
1, 66904, Tempo, 674157
1, 66912, Tempo, 666666
1, 66928, Tempo, 740740
1, 66948, Tempo, 731707
1, 66968, Tempo, 722891
1, 66988, Tempo, 714285
1, 67008, Tempo, 705882
1, 67024, Tempo, 697674
1, 67044, Tempo, 689655
1, 67064, Tempo, 681818
1, 67084, Tempo, 674157
1, 67104, Tempo, 666666
1, 71424, Tempo, 666666
1, 71428, Tempo, 789473
1, 71436, Tempo, 779220
1, 71440, Tempo, 769230
1, 71448, Tempo, 759493
1, 71456, Tempo, 750000
1, 71460, Tempo, 740740
1, 71468, Tempo, 731707
1, 71472, Tempo, 722891
1, 71480, Tempo, 714285
1, 71488, Tempo, 705882
1, 71492, Tempo, 697674
1, 71500, Tempo, 689655
1, 71504, Tempo, 681818
1, 71512, Tempo, 674157
1, 71520, Tempo, 750000
1, 71536, Tempo, 740740
1, 71556, Tempo, 731707
1, 71576, Tempo, 722891
1, 71596, Tempo, 714285
1, 71616, Tempo, 705882
1, 71632, Tempo, 697674
1, 71652, Tempo, 689655
1, 71672, Tempo, 681818
1, 71692, Tempo, 674157
1, 71712, Tempo, 666666
1, 72192, Tempo, 666666
1, 72576, Tempo, 769230
1, 72580, Tempo, 845070
1, 72584, Tempo, 833333
1, 72588, Tempo, 821917
1, 72592, Tempo, 810810
1, 72600, Tempo, 800000
1, 72604, Tempo, 789473
1, 72608, Tempo, 779220
1, 72612, Tempo, 769230
1, 72616, Tempo, 759493
1, 72624, Tempo, 750000
1, 72628, Tempo, 740740
1, 72632, Tempo, 731707
1, 72636, Tempo, 722891
1, 72640, Tempo, 714285
1, 72648, Tempo, 705882
1, 72652, Tempo, 697674
1, 72656, Tempo, 689655
1, 72660, Tempo, 681818
1, 72664, Tempo, 674157
1, 72672, Tempo, 857142
1, 72684, Tempo, 845070
1, 72696, Tempo, 833333
1, 72708, Tempo, 821917
1, 72720, Tempo, 810810
1, 72736, Tempo, 800000
1, 72748, Tempo, 789473
1, 72760, Tempo, 779220
1, 72772, Tempo, 769230
1, 72784, Tempo, 759493
1, 72800, Tempo, 750000
1, 72812, Tempo, 740740
1, 72824, Tempo, 731707
1, 72836, Tempo, 722891
1, 72848, Tempo, 714285
1, 72864, Tempo, 705882
1, 72912, Tempo, 714285
1, 72960, Tempo, 722891
1, 73008, Tempo, 731707
1, 73056, Tempo, 740740
1, 73104, Tempo, 750000
1, 73152, Tempo, 759493
1, 73200, Tempo, 769230
1, 73248, Tempo, 800000
1, 73252, Tempo, 810810
1, 73260, Tempo, 821917
1, 73264, Tempo, 833333
1, 73272, Tempo, 845070
1, 73280, Tempo, 857142
1, 73284, Tempo, 869565
1, 73292, Tempo, 882352
1, 73296, Tempo, 895522
1, 73304, Tempo, 909090
1, 73312, Tempo, 923076
1, 73316, Tempo, 937500
1, 73324, Tempo, 952380
1, 73328, Tempo, 967741
1, 73336, Tempo, 983606
1, 73344, Tempo, 1000000
1, 73344, End_track
2, 0, Start_track
2, 0, Title_t, "Johann Sebastian Bach"
2, 0, Control_c, 0, 0, 0
2, 0, Program_c, 0, 6
2, 0, Control_c, 0, 7, 127
2, 0, Control_c, 0, 10, 47
2, 0, Control_c, 0, 91, 127
2, 0, Key_signature, 1, "major"
2, 192, Note_on_c, 0, 67, 96
2, 252, Note_off_c, 0, 67, 100
2, 384, Note_on_c, 0, 83, 96
2, 476, Note_off_c, 0, 83, 100
2, 480, Note_on_c, 0, 81, 96
2, 572, Note_off_c, 0, 81, 100
2, 576, Note_on_c, 0, 79, 96
2, 668, Note_off_c, 0, 79, 100
2, 672, Note_on_c, 0, 78, 96
2, 764, Note_off_c, 0, 78, 100
2, 768, Note_on_c, 0, 76, 96
2, 860, Note_off_c, 0, 76, 100
2, 864, Note_on_c, 0, 74, 96
2, 956, Note_off_c, 0, 74, 100
2, 960, Note_on_c, 0, 73, 96
2, 1052, Note_off_c, 0, 73, 100
2, 1056, Note_on_c, 0, 71, 96
2, 1148, Note_off_c, 0, 71, 100
2, 1152, Note_on_c, 0, 69, 96
2, 1244, Note_off_c, 0, 69, 100
2, 1248, Note_on_c, 0, 67, 96
2, 1340, Note_off_c, 0, 67, 100
2, 1344, Note_on_c, 0, 66, 96
2, 1404, Note_off_c, 0, 66, 100
2, 1536, Note_on_c, 0, 81, 96
2, 1628, Note_off_c, 0, 81, 100
2, 1632, Note_on_c, 0, 79, 96
2, 1724, Note_off_c, 0, 79, 100
2, 1728, Note_on_c, 0, 78, 96
2, 1820, Note_off_c, 0, 78, 100
2, 1824, Note_on_c, 0, 76, 96
2, 1916, Note_off_c, 0, 76, 100
2, 1920, Note_on_c, 0, 74, 96
2, 2012, Note_off_c, 0, 74, 100
2, 2016, Note_on_c, 0, 73, 96
2, 2108, Note_off_c, 0, 73, 100
2, 2112, Note_on_c, 0, 71, 96
2, 2204, Note_off_c, 0, 71, 100
2, 2208, Note_on_c, 0, 69, 96
2, 2300, Note_off_c, 0, 69, 100
2, 2304, Note_on_c, 0, 67, 96
2, 2396, Note_off_c, 0, 67, 100
2, 2400, Note_on_c, 0, 66, 96
2, 2492, Note_off_c, 0, 66, 100
2, 2496, Note_on_c, 0, 64, 96
2, 2556, Note_off_c, 0, 64, 100
2, 2688, Note_on_c, 0, 79, 96
2, 2780, Note_off_c, 0, 79, 100
2, 2784, Note_on_c, 0, 78, 96
2, 2876, Note_off_c, 0, 78, 100
2, 2880, Note_on_c, 0, 76, 96
2, 2972, Note_off_c, 0, 76, 100
2, 2976, Note_on_c, 0, 74, 96
2, 3068, Note_off_c, 0, 74, 100
2, 3072, Note_on_c, 0, 73, 96
2, 3164, Note_off_c, 0, 73, 100
2, 3168, Note_on_c, 0, 71, 96
2, 3260, Note_off_c, 0, 71, 100
2, 3264, Note_on_c, 0, 69, 96
2, 3356, Note_off_c, 0, 69, 100
2, 3360, Note_on_c, 0, 67, 96
2, 3452, Note_off_c, 0, 67, 100
2, 3456, Note_on_c, 0, 66, 96
2, 3548, Note_off_c, 0, 66, 100
2, 3552, Note_on_c, 0, 64, 96
2, 3644, Note_off_c, 0, 64, 100
2, 3648, Note_on_c, 0, 62, 96
2, 3708, Note_off_c, 0, 62, 100
2, 4128, Note_on_c, 0, 64, 96
2, 4172, Note_off_c, 0, 64, 100
2, 4176, Note_on_c, 0, 66, 96
2, 4220, Note_off_c, 0, 66, 100
2, 4224, Note_on_c, 0, 67, 96
2, 4268, Note_off_c, 0, 67, 100
2, 4272, Note_on_c, 0, 69, 96
2, 4316, Note_off_c, 0, 69, 100
2, 4320, Note_on_c, 0, 71, 96
2, 4364, Note_off_c, 0, 71, 100
2, 4368, Note_on_c, 0, 73, 96
2, 4412, Note_off_c, 0, 73, 100
2, 4416, Note_on_c, 0, 74, 96
2, 4700, Note_off_c, 0, 74, 100
2, 4800, Note_on_c, 0, 59, 96
2, 4892, Note_off_c, 0, 59, 100
2, 4896, Note_on_c, 0, 60, 96
2, 4988, Note_off_c, 0, 60, 100
2, 4992, Note_on_c, 0, 62, 96
2, 5084, Note_off_c, 0, 62, 100
2, 5088, Note_on_c, 0, 64, 96
2, 5180, Note_off_c, 0, 64, 100
2, 5184, Note_on_c, 0, 66, 96
2, 5276, Note_off_c, 0, 66, 100
2, 5280, Note_on_c, 0, 67, 96
2, 5372, Note_off_c, 0, 67, 100
2, 5376, Note_on_c, 0, 69, 96
2, 5468, Note_off_c, 0, 69, 100
2, 5472, Note_on_c, 0, 71, 96
2, 5564, Note_off_c, 0, 71, 100
2, 5568, Note_on_c, 0, 72, 96
2, 5660, Note_off_c, 0, 72, 100
2, 5664, Note_on_c, 0, 74, 96
2, 5756, Note_off_c, 0, 74, 100
2, 5760, Note_on_c, 0, 76, 96
2, 5820, Note_off_c, 0, 76, 100
2, 5952, Note_on_c, 0, 60, 96
2, 6044, Note_off_c, 0, 60, 100
2, 6048, Note_on_c, 0, 62, 96
2, 6140, Note_off_c, 0, 62, 100
2, 6144, Note_on_c, 0, 64, 96
2, 6236, Note_off_c, 0, 64, 100
2, 6240, Note_on_c, 0, 66, 96
2, 6332, Note_off_c, 0, 66, 100
2, 6336, Note_on_c, 0, 67, 96
2, 6428, Note_off_c, 0, 67, 100
2, 6432, Note_on_c, 0, 69, 96
2, 6524, Note_off_c, 0, 69, 100
2, 6528, Note_on_c, 0, 71, 96
2, 6620, Note_off_c, 0, 71, 100
2, 6624, Note_on_c, 0, 72, 96
2, 6716, Note_off_c, 0, 72, 100
2, 6720, Note_on_c, 0, 74, 96
2, 6812, Note_off_c, 0, 74, 100
2, 6816, Note_on_c, 0, 76, 96
2, 6908, Note_off_c, 0, 76, 100
2, 6912, Note_on_c, 0, 78, 96
2, 6972, Note_off_c, 0, 78, 100
2, 7104, Note_on_c, 0, 62, 96
2, 7196, Note_off_c, 0, 62, 100
2, 7200, Note_on_c, 0, 64, 96
2, 7292, Note_off_c, 0, 64, 100
2, 7296, Note_on_c, 0, 66, 96
2, 7388, Note_off_c, 0, 66, 100
2, 7392, Note_on_c, 0, 67, 96
2, 7484, Note_off_c, 0, 67, 100
2, 7488, Note_on_c, 0, 69, 96
2, 7580, Note_off_c, 0, 69, 100
2, 7584, Note_on_c, 0, 71, 96
2, 7676, Note_off_c, 0, 71, 100
2, 7680, Note_on_c, 0, 72, 96
2, 7772, Note_off_c, 0, 72, 100
2, 7776, Note_on_c, 0, 74, 96
2, 7868, Note_off_c, 0, 74, 100
2, 7872, Note_on_c, 0, 76, 96
2, 7964, Note_off_c, 0, 76, 100
2, 7968, Note_on_c, 0, 78, 96
2, 8060, Note_off_c, 0, 78, 100
2, 8064, Note_on_c, 0, 79, 96
2, 8124, Note_off_c, 0, 79, 100
2, 8544, Note_on_c, 0, 78, 96
2, 8588, Note_off_c, 0, 78, 100
2, 8592, Note_on_c, 0, 76, 96
2, 8636, Note_off_c, 0, 76, 100
2, 8640, Note_on_c, 0, 74, 96
2, 8684, Note_off_c, 0, 74, 100
2, 8688, Note_on_c, 0, 72, 96
2, 8732, Note_off_c, 0, 72, 100
2, 8736, Note_on_c, 0, 71, 96
2, 8780, Note_off_c, 0, 71, 100
2, 8784, Note_on_c, 0, 69, 96
2, 8828, Note_off_c, 0, 69, 100
2, 8832, Note_on_c, 0, 67, 96
2, 8860, Note_off_c, 0, 67, 100
2, 9312, Note_on_c, 0, 74, 96
2, 9312, Note_on_c, 0, 83, 96
2, 9340, Note_off_c, 0, 74, 100
2, 9340, Note_off_c, 0, 83, 100
2, 9408, Note_on_c, 0, 74, 96
2, 9408, Note_on_c, 0, 83, 96
2, 9436, Note_off_c, 0, 74, 100
2, 9436, Note_off_c, 0, 83, 100
2, 9648, Note_on_c, 0, 79, 96
2, 9692, Note_off_c, 0, 79, 100
2, 9696, Note_on_c, 0, 78, 96
2, 9740, Note_off_c, 0, 78, 100
2, 9744, Note_on_c, 0, 76, 96
2, 9788, Note_off_c, 0, 76, 100
2, 9792, Note_on_c, 0, 74, 96
2, 9820, Note_off_c, 0, 74, 100
2, 10032, Note_on_c, 0, 72, 96
2, 10076, Note_off_c, 0, 72, 100
2, 10080, Note_on_c, 0, 71, 96
2, 10124, Note_off_c, 0, 71, 100
2, 10128, Note_on_c, 0, 69, 96
2, 10172, Note_off_c, 0, 69, 100
2, 10176, Note_on_c, 0, 67, 96
2, 10204, Note_off_c, 0, 67, 100
2, 10464, Note_on_c, 0, 74, 96
2, 10464, Note_on_c, 0, 81, 96
2, 10492, Note_off_c, 0, 74, 100
2, 10492, Note_off_c, 0, 81, 100
2, 10560, Note_on_c, 0, 74, 96
2, 10560, Note_on_c, 0, 81, 96
2, 10588, Note_off_c, 0, 74, 100
2, 10588, Note_off_c, 0, 81, 100
2, 10800, Note_on_c, 0, 74, 96
2, 10844, Note_off_c, 0, 74, 100
2, 10848, Note_on_c, 0, 73, 96
2, 10892, Note_off_c, 0, 73, 100
2, 10896, Note_on_c, 0, 71, 96
2, 10940, Note_off_c, 0, 71, 100
2, 10944, Note_on_c, 0, 69, 96
2, 10972, Note_off_c, 0, 69, 100
2, 11184, Note_on_c, 0, 67, 96
2, 11228, Note_off_c, 0, 67, 100
2, 11232, Note_on_c, 0, 66, 96
2, 11276, Note_off_c, 0, 66, 100
2, 11280, Note_on_c, 0, 64, 96
2, 11324, Note_off_c, 0, 64, 100
2, 11328, Note_on_c, 0, 62, 96
2, 11356, Note_off_c, 0, 62, 100
2, 11616, Note_on_c, 0, 71, 96
2, 11616, Note_on_c, 0, 79, 96
2, 11644, Note_off_c, 0, 71, 100
2, 11644, Note_off_c, 0, 79, 100
2, 11712, Note_on_c, 0, 71, 96
2, 11712, Note_on_c, 0, 79, 96
2, 11740, Note_off_c, 0, 71, 100
2, 11740, Note_off_c, 0, 79, 100
2, 11952, Note_on_c, 0, 72, 96
2, 11996, Note_off_c, 0, 72, 100
2, 12000, Note_on_c, 0, 71, 96
2, 12044, Note_off_c, 0, 71, 100
2, 12048, Note_on_c, 0, 69, 96
2, 12092, Note_off_c, 0, 69, 100
2, 12096, Note_on_c, 0, 67, 96
2, 12124, Note_off_c, 0, 67, 100
2, 12336, Note_on_c, 0, 69, 96
2, 12380, Note_off_c, 0, 69, 100
2, 12384, Note_on_c, 0, 67, 96
2, 12428, Note_off_c, 0, 67, 100
2, 12432, Note_on_c, 0, 66, 96
2, 12476, Note_off_c, 0, 66, 100
2, 12480, Note_on_c, 0, 64, 96
2, 12508, Note_off_c, 0, 64, 100
2, 12768, Note_on_c, 0, 69, 96
2, 12768, Note_on_c, 0, 79, 96
2, 12796, Note_off_c, 0, 69, 100
2, 12796, Note_off_c, 0, 79, 100
2, 12864, Note_on_c, 0, 69, 96
2, 12864, Note_on_c, 0, 79, 96
2, 12892, Note_off_c, 0, 69, 100
2, 12892, Note_off_c, 0, 79, 100
2, 13104, Note_on_c, 0, 66, 96
2, 13148, Note_off_c, 0, 66, 100
2, 13152, Note_on_c, 0, 64, 96
2, 13196, Note_off_c, 0, 64, 100
2, 13200, Note_on_c, 0, 62, 96
2, 13244, Note_off_c, 0, 62, 100
2, 13248, Note_on_c, 0, 61, 96
2, 13276, Note_off_c, 0, 61, 100
2, 13488, Note_on_c, 0, 62, 96
2, 13532, Note_off_c, 0, 62, 100
2, 13536, Note_on_c, 0, 61, 96
2, 13580, Note_off_c, 0, 61, 100
2, 13584, Note_on_c, 0, 59, 96
2, 13628, Note_off_c, 0, 59, 100
2, 13632, Note_on_c, 0, 57, 96
2, 13660, Note_off_c, 0, 57, 100
2, 13920, Note_on_c, 0, 69, 96
2, 14012, Note_off_c, 0, 69, 100
2, 14016, Note_on_c, 0, 81, 96
2, 14108, Note_off_c, 0, 81, 100
2, 14112, Note_on_c, 0, 79, 96
2, 14204, Note_off_c, 0, 79, 100
2, 14208, Note_on_c, 0, 78, 96
2, 14300, Note_off_c, 0, 78, 100
2, 14304, Note_on_c, 0, 76, 96
2, 14396, Note_off_c, 0, 76, 100
2, 14400, Note_on_c, 0, 74, 96
2, 14492, Note_off_c, 0, 74, 100
2, 14496, Note_on_c, 0, 72, 96
2, 14588, Note_off_c, 0, 72, 100
2, 14592, Note_on_c, 0, 71, 96
2, 14684, Note_off_c, 0, 71, 100
2, 14688, Note_on_c, 0, 69, 96
2, 14780, Note_off_c, 0, 69, 100
2, 14784, Note_on_c, 0, 67, 96
2, 14876, Note_off_c, 0, 67, 100
2, 14880, Note_on_c, 0, 66, 96
2, 14944, Note_off_c, 0, 66, 100
2, 14976, Note_on_c, 0, 71, 96
2, 15068, Note_off_c, 0, 71, 100
2, 15072, Note_on_c, 0, 67, 96
2, 15164, Note_off_c, 0, 67, 100
2, 15168, Note_on_c, 0, 66, 96
2, 15260, Note_off_c, 0, 66, 100
2, 15264, Note_on_c, 0, 64, 96
2, 15356, Note_off_c, 0, 64, 100
2, 15360, Note_on_c, 0, 62, 96
2, 15452, Note_off_c, 0, 62, 100
2, 15456, Note_on_c, 0, 60, 96
2, 15548, Note_off_c, 0, 60, 100
2, 15552, Note_on_c, 0, 59, 96
2, 15644, Note_off_c, 0, 59, 100
2, 15648, Note_on_c, 0, 57, 96
2, 15740, Note_off_c, 0, 57, 100
2, 15744, Note_on_c, 0, 55, 96
2, 15836, Note_off_c, 0, 55, 100
2, 15840, Note_on_c, 0, 59, 96
2, 15904, Note_off_c, 0, 59, 100
2, 15936, Note_on_c, 0, 64, 96
2, 16028, Note_off_c, 0, 64, 100
2, 16032, Note_on_c, 0, 62, 96
2, 16124, Note_off_c, 0, 62, 100
2, 16128, Note_on_c, 0, 61, 96
2, 16220, Note_off_c, 0, 61, 100
2, 16224, Note_on_c, 0, 59, 96
2, 16316, Note_off_c, 0, 59, 100
2, 16320, Note_on_c, 0, 57, 96
2, 16412, Note_off_c, 0, 57, 100
2, 16416, Note_on_c, 0, 59, 96
2, 16508, Note_off_c, 0, 59, 100
2, 16512, Note_on_c, 0, 61, 96
2, 16604, Note_off_c, 0, 61, 100
2, 16608, Note_on_c, 0, 62, 96
2, 16700, Note_off_c, 0, 62, 100
2, 16704, Note_on_c, 0, 64, 96
2, 16796, Note_off_c, 0, 64, 100
2, 16800, Note_on_c, 0, 66, 96
2, 16892, Note_off_c, 0, 66, 100
2, 16896, Note_on_c, 0, 67, 96
2, 16988, Note_off_c, 0, 67, 100
2, 16992, Note_on_c, 0, 69, 96
2, 17084, Note_off_c, 0, 69, 100
2, 17088, Note_on_c, 0, 71, 96
2, 17180, Note_off_c, 0, 71, 100
2, 17184, Note_on_c, 0, 73, 96
2, 17276, Note_off_c, 0, 73, 100
2, 17280, Note_on_c, 0, 74, 96
2, 17344, Note_off_c, 0, 74, 100
2, 17376, Note_on_c, 0, 73, 96
2, 17420, Note_off_c, 0, 73, 100
2, 17424, Note_on_c, 0, 71, 96
2, 17468, Note_off_c, 0, 71, 100
2, 17472, Note_on_c, 0, 69, 96
2, 17516, Note_off_c, 0, 69, 100
2, 17520, Note_on_c, 0, 67, 96
2, 17564, Note_off_c, 0, 67, 100
2, 17568, Note_on_c, 0, 66, 96
2, 17612, Note_off_c, 0, 66, 100
2, 17616, Note_on_c, 0, 64, 96
2, 17660, Note_off_c, 0, 64, 100
2, 17664, Note_on_c, 0, 62, 96
2, 17852, Note_off_c, 0, 62, 100
2, 18624, Note_on_c, 0, 67, 96
2, 18684, Note_off_c, 0, 67, 100
2, 18816, Note_on_c, 0, 83, 96
2, 18908, Note_off_c, 0, 83, 100
2, 18912, Note_on_c, 0, 81, 96
2, 19004, Note_off_c, 0, 81, 100
2, 19008, Note_on_c, 0, 79, 96
2, 19100, Note_off_c, 0, 79, 100
2, 19104, Note_on_c, 0, 78, 96
2, 19196, Note_off_c, 0, 78, 100
2, 19200, Note_on_c, 0, 76, 96
2, 19292, Note_off_c, 0, 76, 100
2, 19296, Note_on_c, 0, 74, 96
2, 19388, Note_off_c, 0, 74, 100
2, 19392, Note_on_c, 0, 73, 96
2, 19484, Note_off_c, 0, 73, 100
2, 19488, Note_on_c, 0, 71, 96
2, 19580, Note_off_c, 0, 71, 100
2, 19584, Note_on_c, 0, 69, 96
2, 19676, Note_off_c, 0, 69, 100
2, 19680, Note_on_c, 0, 67, 96
2, 19772, Note_off_c, 0, 67, 100
2, 19776, Note_on_c, 0, 66, 96
2, 19836, Note_off_c, 0, 66, 100
2, 19968, Note_on_c, 0, 81, 96
2, 20060, Note_off_c, 0, 81, 100
2, 20064, Note_on_c, 0, 79, 96
2, 20156, Note_off_c, 0, 79, 100
2, 20160, Note_on_c, 0, 78, 96
2, 20252, Note_off_c, 0, 78, 100
2, 20256, Note_on_c, 0, 76, 96
2, 20348, Note_off_c, 0, 76, 100
2, 20352, Note_on_c, 0, 74, 96
2, 20444, Note_off_c, 0, 74, 100
2, 20448, Note_on_c, 0, 73, 96
2, 20540, Note_off_c, 0, 73, 100
2, 20544, Note_on_c, 0, 71, 96
2, 20636, Note_off_c, 0, 71, 100
2, 20640, Note_on_c, 0, 69, 96
2, 20732, Note_off_c, 0, 69, 100
2, 20736, Note_on_c, 0, 67, 96
2, 20828, Note_off_c, 0, 67, 100
2, 20832, Note_on_c, 0, 66, 96
2, 20924, Note_off_c, 0, 66, 100
2, 20928, Note_on_c, 0, 64, 96
2, 20988, Note_off_c, 0, 64, 100
2, 21120, Note_on_c, 0, 79, 96
2, 21212, Note_off_c, 0, 79, 100
2, 21216, Note_on_c, 0, 78, 96
2, 21308, Note_off_c, 0, 78, 100
2, 21312, Note_on_c, 0, 76, 96
2, 21404, Note_off_c, 0, 76, 100
2, 21408, Note_on_c, 0, 74, 96
2, 21500, Note_off_c, 0, 74, 100
2, 21504, Note_on_c, 0, 73, 96
2, 21596, Note_off_c, 0, 73, 100
2, 21600, Note_on_c, 0, 71, 96
2, 21692, Note_off_c, 0, 71, 100
2, 21696, Note_on_c, 0, 69, 96
2, 21788, Note_off_c, 0, 69, 100
2, 21792, Note_on_c, 0, 67, 96
2, 21884, Note_off_c, 0, 67, 100
2, 21888, Note_on_c, 0, 66, 96
2, 21980, Note_off_c, 0, 66, 100
2, 21984, Note_on_c, 0, 64, 96
2, 22076, Note_off_c, 0, 64, 100
2, 22080, Note_on_c, 0, 62, 96
2, 22140, Note_off_c, 0, 62, 100
2, 22560, Note_on_c, 0, 64, 96
2, 22604, Note_off_c, 0, 64, 100
2, 22608, Note_on_c, 0, 66, 96
2, 22652, Note_off_c, 0, 66, 100
2, 22656, Note_on_c, 0, 67, 96
2, 22700, Note_off_c, 0, 67, 100
2, 22704, Note_on_c, 0, 69, 96
2, 22748, Note_off_c, 0, 69, 100
2, 22752, Note_on_c, 0, 71, 96
2, 22796, Note_off_c, 0, 71, 100
2, 22800, Note_on_c, 0, 73, 96
2, 22844, Note_off_c, 0, 73, 100
2, 22848, Note_on_c, 0, 74, 96
2, 23132, Note_off_c, 0, 74, 100
2, 23232, Note_on_c, 0, 59, 96
2, 23324, Note_off_c, 0, 59, 100
2, 23328, Note_on_c, 0, 60, 96
2, 23420, Note_off_c, 0, 60, 100
2, 23424, Note_on_c, 0, 62, 96
2, 23516, Note_off_c, 0, 62, 100
2, 23520, Note_on_c, 0, 64, 96
2, 23612, Note_off_c, 0, 64, 100
2, 23616, Note_on_c, 0, 66, 96
2, 23708, Note_off_c, 0, 66, 100
2, 23712, Note_on_c, 0, 67, 96
2, 23804, Note_off_c, 0, 67, 100
2, 23808, Note_on_c, 0, 69, 96
2, 23900, Note_off_c, 0, 69, 100
2, 23904, Note_on_c, 0, 71, 96
2, 23996, Note_off_c, 0, 71, 100
2, 24000, Note_on_c, 0, 72, 96
2, 24092, Note_off_c, 0, 72, 100
2, 24096, Note_on_c, 0, 74, 96
2, 24188, Note_off_c, 0, 74, 100
2, 24192, Note_on_c, 0, 76, 96
2, 24252, Note_off_c, 0, 76, 100
2, 24384, Note_on_c, 0, 60, 96
2, 24476, Note_off_c, 0, 60, 100
2, 24480, Note_on_c, 0, 62, 96
2, 24572, Note_off_c, 0, 62, 100
2, 24576, Note_on_c, 0, 64, 96
2, 24668, Note_off_c, 0, 64, 100
2, 24672, Note_on_c, 0, 66, 96
2, 24764, Note_off_c, 0, 66, 100
2, 24768, Note_on_c, 0, 67, 96
2, 24860, Note_off_c, 0, 67, 100
2, 24864, Note_on_c, 0, 69, 96
2, 24956, Note_off_c, 0, 69, 100
2, 24960, Note_on_c, 0, 71, 96
2, 25052, Note_off_c, 0, 71, 100
2, 25056, Note_on_c, 0, 72, 96
2, 25148, Note_off_c, 0, 72, 100
2, 25152, Note_on_c, 0, 74, 96
2, 25244, Note_off_c, 0, 74, 100
2, 25248, Note_on_c, 0, 76, 96
2, 25340, Note_off_c, 0, 76, 100
2, 25344, Note_on_c, 0, 78, 96
2, 25404, Note_off_c, 0, 78, 100
2, 25536, Note_on_c, 0, 62, 96
2, 25628, Note_off_c, 0, 62, 100
2, 25632, Note_on_c, 0, 64, 96
2, 25724, Note_off_c, 0, 64, 100
2, 25728, Note_on_c, 0, 66, 96
2, 25820, Note_off_c, 0, 66, 100
2, 25824, Note_on_c, 0, 67, 96
2, 25916, Note_off_c, 0, 67, 100
2, 25920, Note_on_c, 0, 69, 96
2, 26012, Note_off_c, 0, 69, 100
2, 26016, Note_on_c, 0, 71, 96
2, 26108, Note_off_c, 0, 71, 100
2, 26112, Note_on_c, 0, 72, 96
2, 26204, Note_off_c, 0, 72, 100
2, 26208, Note_on_c, 0, 74, 96
2, 26300, Note_off_c, 0, 74, 100
2, 26304, Note_on_c, 0, 76, 96
2, 26396, Note_off_c, 0, 76, 100
2, 26400, Note_on_c, 0, 78, 96
2, 26492, Note_off_c, 0, 78, 100
2, 26496, Note_on_c, 0, 79, 96
2, 26556, Note_off_c, 0, 79, 100
2, 26976, Note_on_c, 0, 78, 96
2, 27020, Note_off_c, 0, 78, 100
2, 27024, Note_on_c, 0, 76, 96
2, 27068, Note_off_c, 0, 76, 100
2, 27072, Note_on_c, 0, 74, 96
2, 27116, Note_off_c, 0, 74, 100
2, 27120, Note_on_c, 0, 72, 96
2, 27164, Note_off_c, 0, 72, 100
2, 27168, Note_on_c, 0, 71, 96
2, 27212, Note_off_c, 0, 71, 100
2, 27216, Note_on_c, 0, 69, 96
2, 27260, Note_off_c, 0, 69, 100
2, 27264, Note_on_c, 0, 67, 96
2, 27292, Note_off_c, 0, 67, 100
2, 27744, Note_on_c, 0, 74, 96
2, 27744, Note_on_c, 0, 83, 96
2, 27772, Note_off_c, 0, 74, 100
2, 27772, Note_off_c, 0, 83, 100
2, 27840, Note_on_c, 0, 74, 96
2, 27840, Note_on_c, 0, 83, 96
2, 27868, Note_off_c, 0, 74, 100
2, 27868, Note_off_c, 0, 83, 100
2, 28080, Note_on_c, 0, 79, 96
2, 28124, Note_off_c, 0, 79, 100
2, 28128, Note_on_c, 0, 78, 96
2, 28172, Note_off_c, 0, 78, 100
2, 28176, Note_on_c, 0, 76, 96
2, 28220, Note_off_c, 0, 76, 100
2, 28224, Note_on_c, 0, 74, 96
2, 28252, Note_off_c, 0, 74, 100
2, 28464, Note_on_c, 0, 72, 96
2, 28508, Note_off_c, 0, 72, 100
2, 28512, Note_on_c, 0, 71, 96
2, 28556, Note_off_c, 0, 71, 100
2, 28560, Note_on_c, 0, 69, 96
2, 28604, Note_off_c, 0, 69, 100
2, 28608, Note_on_c, 0, 67, 96
2, 28636, Note_off_c, 0, 67, 100
2, 28896, Note_on_c, 0, 74, 96
2, 28896, Note_on_c, 0, 81, 96
2, 28924, Note_off_c, 0, 74, 100
2, 28924, Note_off_c, 0, 81, 100
2, 28992, Note_on_c, 0, 74, 96
2, 28992, Note_on_c, 0, 81, 96
2, 29020, Note_off_c, 0, 74, 100
2, 29020, Note_off_c, 0, 81, 100
2, 29232, Note_on_c, 0, 74, 96
2, 29276, Note_off_c, 0, 74, 100
2, 29280, Note_on_c, 0, 73, 96
2, 29324, Note_off_c, 0, 73, 100
2, 29328, Note_on_c, 0, 71, 96
2, 29372, Note_off_c, 0, 71, 100
2, 29376, Note_on_c, 0, 69, 96
2, 29404, Note_off_c, 0, 69, 100
2, 29616, Note_on_c, 0, 67, 96
2, 29660, Note_off_c, 0, 67, 100
2, 29664, Note_on_c, 0, 66, 96
2, 29708, Note_off_c, 0, 66, 100
2, 29712, Note_on_c, 0, 64, 96
2, 29756, Note_off_c, 0, 64, 100
2, 29760, Note_on_c, 0, 62, 96
2, 29788, Note_off_c, 0, 62, 100
2, 30048, Note_on_c, 0, 71, 96
2, 30048, Note_on_c, 0, 79, 96
2, 30076, Note_off_c, 0, 71, 100
2, 30076, Note_off_c, 0, 79, 100
2, 30144, Note_on_c, 0, 71, 96
2, 30144, Note_on_c, 0, 79, 96
2, 30172, Note_off_c, 0, 71, 100
2, 30172, Note_off_c, 0, 79, 100
2, 30384, Note_on_c, 0, 72, 96
2, 30428, Note_off_c, 0, 72, 100
2, 30432, Note_on_c, 0, 71, 96
2, 30476, Note_off_c, 0, 71, 100
2, 30480, Note_on_c, 0, 69, 96
2, 30524, Note_off_c, 0, 69, 100
2, 30528, Note_on_c, 0, 67, 96
2, 30556, Note_off_c, 0, 67, 100
2, 30768, Note_on_c, 0, 69, 96
2, 30812, Note_off_c, 0, 69, 100
2, 30816, Note_on_c, 0, 67, 96
2, 30860, Note_off_c, 0, 67, 100
2, 30864, Note_on_c, 0, 66, 96
2, 30908, Note_off_c, 0, 66, 100
2, 30912, Note_on_c, 0, 64, 96
2, 30940, Note_off_c, 0, 64, 100
2, 31200, Note_on_c, 0, 69, 96
2, 31200, Note_on_c, 0, 79, 96
2, 31228, Note_off_c, 0, 69, 100
2, 31228, Note_off_c, 0, 79, 100
2, 31296, Note_on_c, 0, 69, 96
2, 31296, Note_on_c, 0, 79, 96
2, 31324, Note_off_c, 0, 69, 100
2, 31324, Note_off_c, 0, 79, 100
2, 31536, Note_on_c, 0, 66, 96
2, 31580, Note_off_c, 0, 66, 100
2, 31584, Note_on_c, 0, 64, 96
2, 31628, Note_off_c, 0, 64, 100
2, 31632, Note_on_c, 0, 62, 96
2, 31676, Note_off_c, 0, 62, 100
2, 31680, Note_on_c, 0, 61, 96
2, 31708, Note_off_c, 0, 61, 100
2, 31920, Note_on_c, 0, 62, 96
2, 31964, Note_off_c, 0, 62, 100
2, 31968, Note_on_c, 0, 61, 96
2, 32012, Note_off_c, 0, 61, 100
2, 32016, Note_on_c, 0, 59, 96
2, 32060, Note_off_c, 0, 59, 100
2, 32064, Note_on_c, 0, 57, 96
2, 32092, Note_off_c, 0, 57, 100
2, 32352, Note_on_c, 0, 69, 96
2, 32444, Note_off_c, 0, 69, 100
2, 32448, Note_on_c, 0, 81, 96
2, 32540, Note_off_c, 0, 81, 100
2, 32544, Note_on_c, 0, 79, 96
2, 32636, Note_off_c, 0, 79, 100
2, 32640, Note_on_c, 0, 78, 96
2, 32732, Note_off_c, 0, 78, 100
2, 32736, Note_on_c, 0, 76, 96
2, 32828, Note_off_c, 0, 76, 100
2, 32832, Note_on_c, 0, 74, 96
2, 32924, Note_off_c, 0, 74, 100
2, 32928, Note_on_c, 0, 72, 96
2, 33020, Note_off_c, 0, 72, 100
2, 33024, Note_on_c, 0, 71, 96
2, 33116, Note_off_c, 0, 71, 100
2, 33120, Note_on_c, 0, 69, 96
2, 33212, Note_off_c, 0, 69, 100
2, 33216, Note_on_c, 0, 67, 96
2, 33308, Note_off_c, 0, 67, 100
2, 33312, Note_on_c, 0, 66, 96
2, 33376, Note_off_c, 0, 66, 100
2, 33408, Note_on_c, 0, 71, 96
2, 33500, Note_off_c, 0, 71, 100
2, 33504, Note_on_c, 0, 67, 96
2, 33596, Note_off_c, 0, 67, 100
2, 33600, Note_on_c, 0, 66, 96
2, 33692, Note_off_c, 0, 66, 100
2, 33696, Note_on_c, 0, 64, 96
2, 33788, Note_off_c, 0, 64, 100
2, 33792, Note_on_c, 0, 62, 96
2, 33884, Note_off_c, 0, 62, 100
2, 33888, Note_on_c, 0, 60, 96
2, 33980, Note_off_c, 0, 60, 100
2, 33984, Note_on_c, 0, 59, 96
2, 34076, Note_off_c, 0, 59, 100
2, 34080, Note_on_c, 0, 57, 96
2, 34172, Note_off_c, 0, 57, 100
2, 34176, Note_on_c, 0, 55, 96
2, 34268, Note_off_c, 0, 55, 100
2, 34272, Note_on_c, 0, 59, 96
2, 34336, Note_off_c, 0, 59, 100
2, 34368, Note_on_c, 0, 64, 96
2, 34460, Note_off_c, 0, 64, 100
2, 34464, Note_on_c, 0, 62, 96
2, 34556, Note_off_c, 0, 62, 100
2, 34560, Note_on_c, 0, 61, 96
2, 34652, Note_off_c, 0, 61, 100
2, 34656, Note_on_c, 0, 59, 96
2, 34748, Note_off_c, 0, 59, 100
2, 34752, Note_on_c, 0, 57, 96
2, 34844, Note_off_c, 0, 57, 100
2, 34848, Note_on_c, 0, 59, 96
2, 34940, Note_off_c, 0, 59, 100
2, 34944, Note_on_c, 0, 61, 96
2, 35036, Note_off_c, 0, 61, 100
2, 35040, Note_on_c, 0, 62, 96
2, 35132, Note_off_c, 0, 62, 100
2, 35136, Note_on_c, 0, 64, 96
2, 35228, Note_off_c, 0, 64, 100
2, 35232, Note_on_c, 0, 66, 96
2, 35324, Note_off_c, 0, 66, 100
2, 35328, Note_on_c, 0, 67, 96
2, 35420, Note_off_c, 0, 67, 100
2, 35424, Note_on_c, 0, 69, 96
2, 35516, Note_off_c, 0, 69, 100
2, 35520, Note_on_c, 0, 71, 96
2, 35612, Note_off_c, 0, 71, 100
2, 35616, Note_on_c, 0, 73, 96
2, 35708, Note_off_c, 0, 73, 100
2, 35712, Note_on_c, 0, 74, 96
2, 35776, Note_off_c, 0, 74, 100
2, 35808, Note_on_c, 0, 73, 96
2, 35852, Note_off_c, 0, 73, 100
2, 35856, Note_on_c, 0, 71, 96
2, 35900, Note_off_c, 0, 71, 100
2, 35904, Note_on_c, 0, 69, 96
2, 35948, Note_off_c, 0, 69, 100
2, 35952, Note_on_c, 0, 67, 96
2, 35996, Note_off_c, 0, 67, 100
2, 36000, Note_on_c, 0, 66, 96
2, 36044, Note_off_c, 0, 66, 100
2, 36048, Note_on_c, 0, 64, 96
2, 36092, Note_off_c, 0, 64, 100
2, 36096, Note_on_c, 0, 62, 96
2, 36284, Note_off_c, 0, 62, 100
2, 36864, Note_on_c, 0, 81, 112
2, 36892, Note_off_c, 0, 81, 100
2, 36896, Note_on_c, 0, 79, 112
2, 36924, Note_off_c, 0, 79, 100
2, 36928, Note_on_c, 0, 81, 112
2, 36956, Note_off_c, 0, 81, 100
2, 37152, Note_on_c, 0, 79, 112
2, 37180, Note_off_c, 0, 79, 100
2, 37248, Note_on_c, 0, 79, 112
2, 37340, Note_off_c, 0, 79, 100
2, 37344, Note_on_c, 0, 78, 112
2, 37436, Note_off_c, 0, 78, 100
2, 37536, Note_on_c, 0, 76, 112
2, 37564, Note_off_c, 0, 76, 100
2, 37632, Note_on_c, 0, 76, 112
2, 37724, Note_off_c, 0, 76, 100
2, 37728, Note_on_c, 0, 74, 112
2, 37820, Note_off_c, 0, 74, 100
2, 37920, Note_on_c, 0, 72, 112
2, 38012, Note_off_c, 0, 72, 100
2, 38016, Note_on_c, 0, 71, 112
2, 38044, Note_off_c, 0, 71, 100
2, 38048, Note_on_c, 0, 69, 112
2, 38076, Note_off_c, 0, 69, 100
2, 38080, Note_on_c, 0, 71, 112
2, 38108, Note_off_c, 0, 71, 100
2, 38304, Note_on_c, 0, 69, 112
2, 38332, Note_off_c, 0, 69, 100
2, 38400, Note_on_c, 0, 69, 112
2, 38492, Note_off_c, 0, 69, 100
2, 38496, Note_on_c, 0, 67, 112
2, 38588, Note_off_c, 0, 67, 100
2, 38688, Note_on_c, 0, 66, 112
2, 38716, Note_off_c, 0, 66, 100
2, 38784, Note_on_c, 0, 66, 112
2, 38876, Note_off_c, 0, 66, 100
2, 38880, Note_on_c, 0, 64, 112
2, 38972, Note_off_c, 0, 64, 100
2, 39072, Note_on_c, 0, 62, 112
2, 39164, Note_off_c, 0, 62, 100
2, 39168, Note_on_c, 0, 60, 112
2, 39196, Note_off_c, 0, 60, 100
2, 39200, Note_on_c, 0, 59, 112
2, 39228, Note_off_c, 0, 59, 100
2, 39232, Note_on_c, 0, 60, 112
2, 39260, Note_off_c, 0, 60, 100
2, 39456, Note_on_c, 0, 59, 112
2, 39484, Note_off_c, 0, 59, 100
2, 39552, Note_on_c, 0, 59, 112
2, 39644, Note_off_c, 0, 59, 100
2, 39648, Note_on_c, 0, 57, 112
2, 39740, Note_off_c, 0, 57, 100
2, 39840, Note_on_c, 0, 55, 112
2, 39868, Note_off_c, 0, 55, 100
2, 39936, Note_on_c, 0, 55, 112
2, 40028, Note_off_c, 0, 55, 100
2, 40032, Note_on_c, 0, 54, 112
2, 40124, Note_off_c, 0, 54, 100
2, 40224, Note_on_c, 0, 52, 112
2, 40252, Note_off_c, 0, 52, 100
2, 40320, Note_on_c, 0, 52, 112
2, 40412, Note_off_c, 0, 52, 100
2, 40416, Note_on_c, 0, 51, 112
2, 40508, Note_off_c, 0, 51, 100
2, 40608, Note_on_c, 0, 54, 112
2, 40700, Note_off_c, 0, 54, 100
2, 40704, Note_on_c, 0, 57, 112
2, 40732, Note_off_c, 0, 57, 100
2, 40736, Note_on_c, 0, 55, 112
2, 40764, Note_off_c, 0, 55, 100
2, 40768, Note_on_c, 0, 57, 112
2, 40796, Note_off_c, 0, 57, 100
2, 40992, Note_on_c, 0, 60, 112
2, 41084, Note_off_c, 0, 60, 100
2, 41088, Note_on_c, 0, 59, 112
2, 41116, Note_off_c, 0, 59, 100
2, 41120, Note_on_c, 0, 57, 112
2, 41148, Note_off_c, 0, 57, 100
2, 41152, Note_on_c, 0, 59, 112
2, 41180, Note_off_c, 0, 59, 100
2, 41376, Note_on_c, 0, 57, 112
2, 41468, Note_off_c, 0, 57, 100
2, 41472, Note_on_c, 0, 55, 112
2, 41660, Note_off_c, 0, 55, 100
2, 41952, Note_on_c, 0, 75, 112
2, 42044, Note_off_c, 0, 75, 100
2, 42048, Note_on_c, 0, 76, 112
2, 42140, Note_off_c, 0, 76, 100
2, 42144, Note_on_c, 0, 78, 112
2, 42236, Note_off_c, 0, 78, 100
2, 42240, Note_on_c, 0, 79, 112
2, 42332, Note_off_c, 0, 79, 100
2, 42336, Note_on_c, 0, 80, 112
2, 42428, Note_off_c, 0, 80, 100
2, 42432, Note_on_c, 0, 81, 112
2, 42524, Note_off_c, 0, 81, 100
2, 42528, Note_on_c, 0, 83, 112
2, 42620, Note_off_c, 0, 83, 100
2, 42624, Note_on_c, 0, 84, 112
2, 42688, Note_off_c, 0, 84, 100
2, 42720, Note_on_c, 0, 81, 112
2, 42812, Note_off_c, 0, 81, 100
2, 42816, Note_on_c, 0, 79, 112
2, 42908, Note_off_c, 0, 79, 100
2, 42912, Note_on_c, 0, 77, 112
2, 43004, Note_off_c, 0, 77, 100
2, 43008, Note_on_c, 0, 76, 112
2, 43100, Note_off_c, 0, 76, 100
2, 43104, Note_on_c, 0, 74, 112
2, 43196, Note_off_c, 0, 74, 100
2, 43200, Note_on_c, 0, 72, 112
2, 43292, Note_off_c, 0, 72, 100
2, 43296, Note_on_c, 0, 71, 112
2, 43388, Note_off_c, 0, 71, 100
2, 43392, Note_on_c, 0, 69, 112
2, 43484, Note_off_c, 0, 69, 100
2, 43488, Note_on_c, 0, 67, 112
2, 43580, Note_off_c, 0, 67, 100
2, 43584, Note_on_c, 0, 66, 112
2, 43676, Note_off_c, 0, 66, 100
2, 43680, Note_on_c, 0, 64, 112
2, 43772, Note_off_c, 0, 64, 100
2, 43776, Note_on_c, 0, 63, 112
2, 43868, Note_off_c, 0, 63, 100
2, 43872, Note_on_c, 0, 72, 112
2, 43964, Note_off_c, 0, 72, 100
2, 43968, Note_on_c, 0, 71, 112
2, 44028, Note_off_c, 0, 71, 100
2, 44208, Note_on_c, 0, 71, 112
2, 44252, Note_off_c, 0, 71, 100
2, 44256, Note_on_c, 0, 73, 112
2, 44300, Note_off_c, 0, 73, 100
2, 44304, Note_on_c, 0, 75, 112
2, 44348, Note_off_c, 0, 75, 100
2, 44352, Note_on_c, 0, 76, 112
2, 44396, Note_off_c, 0, 76, 100
2, 44400, Note_on_c, 0, 78, 112
2, 44444, Note_off_c, 0, 78, 100
2, 44448, Note_on_c, 0, 79, 112
2, 44540, Note_off_c, 0, 79, 100
2, 44640, Note_on_c, 0, 78, 112
2, 44672, Note_off_c, 0, 78, 100
2, 44704, Note_on_c, 0, 78, 112
2, 44732, Note_off_c, 0, 78, 100
2, 44736, Note_on_c, 0, 76, 112
2, 44764, Note_off_c, 0, 76, 100
2, 44768, Note_on_c, 0, 78, 112
2, 44796, Note_off_c, 0, 78, 100
2, 44800, Note_on_c, 0, 76, 112
2, 44828, Note_off_c, 0, 76, 100
2, 44832, Note_on_c, 0, 75, 112
2, 44924, Note_off_c, 0, 75, 100
2, 44928, Note_on_c, 0, 76, 112
2, 44960, Note_off_c, 0, 76, 100
2, 44976, Note_on_c, 0, 72, 112
2, 45020, Note_off_c, 0, 72, 100
2, 45024, Note_on_c, 0, 71, 112
2, 45068, Note_off_c, 0, 71, 100
2, 45072, Note_on_c, 0, 69, 112
2, 45116, Note_off_c, 0, 69, 100
2, 45120, Note_on_c, 0, 71, 112
2, 45164, Note_off_c, 0, 71, 100
2, 45360, Note_on_c, 0, 66, 112
2, 45404, Note_off_c, 0, 66, 100
2, 45408, Note_on_c, 0, 64, 112
2, 45452, Note_off_c, 0, 64, 100
2, 45456, Note_on_c, 0, 63, 112
2, 45500, Note_off_c, 0, 63, 100
2, 45504, Note_on_c, 0, 64, 112
2, 45548, Note_off_c, 0, 64, 100
2, 45744, Note_on_c, 0, 57, 112
2, 45788, Note_off_c, 0, 57, 100
2, 45792, Note_on_c, 0, 55, 112
2, 45836, Note_off_c, 0, 55, 100
2, 45840, Note_on_c, 0, 54, 112
2, 45884, Note_off_c, 0, 54, 100
2, 45888, Note_on_c, 0, 55, 112
2, 45932, Note_off_c, 0, 55, 100
2, 46176, Note_on_c, 0, 60, 112
2, 46176, Note_on_c, 0, 64, 112
2, 46204, Note_off_c, 0, 60, 100
2, 46268, Note_off_c, 0, 64, 100
2, 46272, Note_on_c, 0, 62, 112
2, 46272, Note_on_c, 0, 66, 112
2, 46300, Note_off_c, 0, 62, 100
2, 46364, Note_off_c, 0, 66, 100
2, 46368, Note_on_c, 0, 64, 112
2, 46368, Note_on_c, 0, 67, 112
2, 46396, Note_off_c, 0, 64, 100
2, 46460, Note_off_c, 0, 67, 100
2, 46464, Note_on_c, 0, 66, 112
2, 46464, Note_on_c, 0, 69, 112
2, 46492, Note_off_c, 0, 66, 100
2, 46556, Note_off_c, 0, 69, 100
2, 46560, Note_on_c, 0, 67, 112
2, 46560, Note_on_c, 0, 71, 112
2, 46588, Note_off_c, 0, 67, 100
2, 46652, Note_off_c, 0, 71, 100
2, 46656, Note_on_c, 0, 69, 112
2, 46656, Note_on_c, 0, 72, 112
2, 46684, Note_off_c, 0, 69, 100
2, 46748, Note_off_c, 0, 72, 100
2, 46752, Note_on_c, 0, 71, 112
2, 46752, Note_on_c, 0, 74, 112
2, 46780, Note_off_c, 0, 71, 100
2, 46844, Note_off_c, 0, 74, 100
2, 46848, Note_on_c, 0, 72, 112
2, 46848, Note_on_c, 0, 76, 112
2, 46908, Note_off_c, 0, 72, 100
2, 47036, Note_off_c, 0, 76, 100
2, 47328, Note_on_c, 0, 71, 112
2, 47328, Note_on_c, 0, 74, 112
2, 47356, Note_off_c, 0, 71, 100
2, 47420, Note_off_c, 0, 74, 100
2, 47424, Note_on_c, 0, 69, 112
2, 47424, Note_on_c, 0, 72, 112
2, 47452, Note_off_c, 0, 69, 100
2, 47516, Note_off_c, 0, 72, 100
2, 47520, Note_on_c, 0, 67, 112
2, 47520, Note_on_c, 0, 71, 112
2, 47548, Note_off_c, 0, 67, 100
2, 47612, Note_off_c, 0, 71, 100
2, 47616, Note_on_c, 0, 66, 112
2, 47616, Note_on_c, 0, 69, 112
2, 47644, Note_off_c, 0, 66, 100
2, 47708, Note_off_c, 0, 69, 100
2, 47712, Note_on_c, 0, 64, 112
2, 47712, Note_on_c, 0, 67, 112
2, 47740, Note_off_c, 0, 64, 100
2, 47804, Note_off_c, 0, 67, 100
2, 47808, Note_on_c, 0, 62, 112
2, 47808, Note_on_c, 0, 66, 112
2, 47836, Note_off_c, 0, 62, 100
2, 47900, Note_off_c, 0, 66, 100
2, 47904, Note_on_c, 0, 60, 112
2, 47904, Note_on_c, 0, 64, 112
2, 47932, Note_off_c, 0, 60, 100
2, 47996, Note_off_c, 0, 64, 100
2, 48000, Note_on_c, 0, 62, 112
2, 48000, Note_on_c, 0, 59, 112
2, 48060, Note_off_c, 0, 59, 100
2, 48188, Note_off_c, 0, 62, 100
2, 48480, Note_on_c, 0, 59, 112
2, 48480, Note_on_c, 0, 62, 112
2, 48572, Note_off_c, 0, 59, 100
2, 48572, Note_off_c, 0, 62, 100
2, 48672, Note_on_c, 0, 56, 112
2, 48672, Note_on_c, 0, 59, 112
2, 48764, Note_off_c, 0, 56, 100
2, 48764, Note_off_c, 0, 59, 100
2, 48864, Note_on_c, 0, 59, 112
2, 48864, Note_on_c, 0, 62, 112
2, 48956, Note_off_c, 0, 59, 100
2, 48956, Note_off_c, 0, 62, 100
2, 49056, Note_on_c, 0, 55, 112
2, 49056, Note_on_c, 0, 59, 112
2, 49148, Note_off_c, 0, 55, 100
2, 49148, Note_off_c, 0, 59, 100
2, 49248, Note_on_c, 0, 55, 112
2, 49248, Note_on_c, 0, 59, 112
2, 49340, Note_off_c, 0, 55, 100
2, 49340, Note_off_c, 0, 59, 100
2, 49440, Note_on_c, 0, 52, 112
2, 49440, Note_on_c, 0, 55, 112
2, 49532, Note_off_c, 0, 52, 100
2, 49532, Note_off_c, 0, 55, 100
2, 49632, Note_on_c, 0, 52, 112
2, 49632, Note_on_c, 0, 55, 112
2, 49724, Note_off_c, 0, 52, 100
2, 49724, Note_off_c, 0, 55, 100
2, 49824, Note_on_c, 0, 49, 112
2, 49824, Note_on_c, 0, 52, 112
2, 49916, Note_off_c, 0, 49, 100
2, 49916, Note_off_c, 0, 52, 100
2, 50016, Note_on_c, 0, 52, 112
2, 50016, Note_on_c, 0, 55, 112
2, 50108, Note_off_c, 0, 52, 100
2, 50108, Note_off_c, 0, 55, 100
2, 50208, Note_on_c, 0, 48, 112
2, 50208, Note_on_c, 0, 52, 112
2, 50300, Note_off_c, 0, 48, 100
2, 50300, Note_off_c, 0, 52, 100
2, 50400, Note_on_c, 0, 48, 112
2, 50400, Note_on_c, 0, 52, 112
2, 50492, Note_off_c, 0, 48, 100
2, 50492, Note_off_c, 0, 52, 100
2, 50592, Note_on_c, 0, 45, 112
2, 50592, Note_on_c, 0, 48, 112
2, 50684, Note_off_c, 0, 45, 100
2, 50684, Note_off_c, 0, 48, 100
2, 50784, Note_on_c, 0, 45, 112
2, 50784, Note_on_c, 0, 48, 112
2, 50876, Note_off_c, 0, 45, 100
2, 50876, Note_off_c, 0, 48, 100
2, 50976, Note_on_c, 0, 42, 112
2, 50976, Note_on_c, 0, 45, 112
2, 51068, Note_off_c, 0, 42, 100
2, 51068, Note_off_c, 0, 45, 100
2, 51168, Note_on_c, 0, 45, 112
2, 51168, Note_on_c, 0, 48, 112
2, 51260, Note_off_c, 0, 45, 100
2, 51260, Note_off_c, 0, 48, 100
2, 51360, Note_on_c, 0, 48, 112
2, 51360, Note_on_c, 0, 52, 112
2, 51452, Note_off_c, 0, 48, 100
2, 51452, Note_off_c, 0, 52, 100
2, 51552, Note_on_c, 0, 52, 112
2, 51552, Note_on_c, 0, 55, 112
2, 51644, Note_off_c, 0, 52, 100
2, 51644, Note_off_c, 0, 55, 100
2, 51744, Note_on_c, 0, 55, 112
2, 51744, Note_on_c, 0, 59, 112
2, 51836, Note_off_c, 0, 55, 100
2, 51836, Note_off_c, 0, 59, 100
2, 51936, Note_on_c, 0, 53, 112
2, 51936, Note_on_c, 0, 62, 112
2, 52028, Note_off_c, 0, 53, 100
2, 52028, Note_off_c, 0, 62, 100
2, 52128, Note_on_c, 0, 50, 112
2, 52128, Note_on_c, 0, 59, 112
2, 52220, Note_off_c, 0, 50, 100
2, 52220, Note_off_c, 0, 59, 100
2, 52320, Note_on_c, 0, 53, 112
2, 52320, Note_on_c, 0, 62, 112
2, 52412, Note_off_c, 0, 53, 100
2, 52412, Note_off_c, 0, 62, 100
2, 52512, Note_on_c, 0, 57, 112
2, 52512, Note_on_c, 0, 66, 112
2, 52604, Note_off_c, 0, 57, 100
2, 52604, Note_off_c, 0, 66, 100
2, 52704, Note_on_c, 0, 60, 112
2, 52704, Note_on_c, 0, 69, 112
2, 52796, Note_off_c, 0, 60, 100
2, 52796, Note_off_c, 0, 69, 100
2, 52896, Note_on_c, 0, 64, 112
2, 52896, Note_on_c, 0, 72, 112
2, 52988, Note_off_c, 0, 64, 100
2, 52988, Note_off_c, 0, 72, 100
2, 53088, Note_on_c, 0, 69, 112
2, 53088, Note_on_c, 0, 72, 112
2, 53116, Note_off_c, 0, 69, 100
2, 53180, Note_off_c, 0, 72, 100
2, 53184, Note_on_c, 0, 71, 112
2, 53184, Note_on_c, 0, 74, 112
2, 53212, Note_off_c, 0, 71, 100
2, 53276, Note_off_c, 0, 74, 100
2, 53280, Note_on_c, 0, 72, 112
2, 53280, Note_on_c, 0, 76, 112
2, 53308, Note_off_c, 0, 72, 100
2, 53372, Note_off_c, 0, 76, 100
2, 53376, Note_on_c, 0, 74, 112
2, 53376, Note_on_c, 0, 78, 112
2, 53404, Note_off_c, 0, 74, 100
2, 53468, Note_off_c, 0, 78, 100
2, 53472, Note_on_c, 0, 76, 112
2, 53472, Note_on_c, 0, 79, 112
2, 53500, Note_off_c, 0, 76, 100
2, 53564, Note_off_c, 0, 79, 100
2, 53568, Note_on_c, 0, 78, 112
2, 53568, Note_on_c, 0, 81, 112
2, 53596, Note_off_c, 0, 78, 100
2, 53660, Note_off_c, 0, 81, 100
2, 53664, Note_on_c, 0, 79, 112
2, 53664, Note_on_c, 0, 83, 112
2, 53692, Note_off_c, 0, 79, 100
2, 53756, Note_off_c, 0, 83, 100
2, 53760, Note_on_c, 0, 81, 112
2, 53760, Note_on_c, 0, 84, 112
2, 53820, Note_off_c, 0, 81, 100
2, 53948, Note_off_c, 0, 84, 100
2, 54240, Note_on_c, 0, 74, 112
2, 54240, Note_on_c, 0, 83, 112
2, 54268, Note_off_c, 0, 83, 100
2, 54332, Note_off_c, 0, 74, 100
2, 54336, Note_on_c, 0, 72, 112
2, 54336, Note_on_c, 0, 81, 112
2, 54364, Note_off_c, 0, 81, 100
2, 54428, Note_off_c, 0, 72, 100
2, 54432, Note_on_c, 0, 71, 112
2, 54432, Note_on_c, 0, 79, 112
2, 54460, Note_off_c, 0, 79, 100
2, 54524, Note_off_c, 0, 71, 100
2, 54528, Note_on_c, 0, 69, 112
2, 54528, Note_on_c, 0, 78, 112
2, 54556, Note_off_c, 0, 78, 100
2, 54620, Note_off_c, 0, 69, 100
2, 54624, Note_on_c, 0, 67, 112
2, 54624, Note_on_c, 0, 76, 112
2, 54652, Note_off_c, 0, 76, 100
2, 54716, Note_off_c, 0, 67, 100
2, 54720, Note_on_c, 0, 66, 112
2, 54720, Note_on_c, 0, 74, 112
2, 54748, Note_off_c, 0, 74, 100
2, 54812, Note_off_c, 0, 66, 100
2, 54816, Note_on_c, 0, 64, 112
2, 54816, Note_on_c, 0, 72, 112
2, 54844, Note_off_c, 0, 72, 100
2, 54908, Note_off_c, 0, 64, 100
2, 54912, Note_on_c, 0, 62, 112
2, 54912, Note_on_c, 0, 71, 112
2, 55100, Note_off_c, 0, 62, 100
2, 55100, Note_off_c, 0, 71, 100
2, 55296, Note_on_c, 0, 81, 112
2, 55324, Note_off_c, 0, 81, 100
2, 55328, Note_on_c, 0, 79, 112
2, 55356, Note_off_c, 0, 79, 100
2, 55360, Note_on_c, 0, 81, 112
2, 55388, Note_off_c, 0, 81, 100
2, 55584, Note_on_c, 0, 79, 112
2, 55612, Note_off_c, 0, 79, 100
2, 55680, Note_on_c, 0, 79, 112
2, 55772, Note_off_c, 0, 79, 100
2, 55776, Note_on_c, 0, 78, 112
2, 55868, Note_off_c, 0, 78, 100
2, 55968, Note_on_c, 0, 76, 112
2, 55996, Note_off_c, 0, 76, 100
2, 56064, Note_on_c, 0, 76, 112
2, 56156, Note_off_c, 0, 76, 100
2, 56160, Note_on_c, 0, 74, 112
2, 56252, Note_off_c, 0, 74, 100
2, 56352, Note_on_c, 0, 72, 112
2, 56444, Note_off_c, 0, 72, 100
2, 56448, Note_on_c, 0, 71, 112
2, 56476, Note_off_c, 0, 71, 100
2, 56480, Note_on_c, 0, 69, 112
2, 56508, Note_off_c, 0, 69, 100
2, 56512, Note_on_c, 0, 71, 112
2, 56540, Note_off_c, 0, 71, 100
2, 56736, Note_on_c, 0, 69, 112
2, 56764, Note_off_c, 0, 69, 100
2, 56832, Note_on_c, 0, 69, 112
2, 56924, Note_off_c, 0, 69, 100
2, 56928, Note_on_c, 0, 67, 112
2, 57020, Note_off_c, 0, 67, 100
2, 57120, Note_on_c, 0, 66, 112
2, 57148, Note_off_c, 0, 66, 100
2, 57216, Note_on_c, 0, 66, 112
2, 57308, Note_off_c, 0, 66, 100
2, 57312, Note_on_c, 0, 64, 112
2, 57404, Note_off_c, 0, 64, 100
2, 57504, Note_on_c, 0, 62, 112
2, 57596, Note_off_c, 0, 62, 100
2, 57600, Note_on_c, 0, 60, 112
2, 57628, Note_off_c, 0, 60, 100
2, 57632, Note_on_c, 0, 59, 112
2, 57660, Note_off_c, 0, 59, 100
2, 57664, Note_on_c, 0, 60, 112
2, 57692, Note_off_c, 0, 60, 100
2, 57888, Note_on_c, 0, 59, 112
2, 57916, Note_off_c, 0, 59, 100
2, 57984, Note_on_c, 0, 59, 112
2, 58076, Note_off_c, 0, 59, 100
2, 58080, Note_on_c, 0, 57, 112
2, 58172, Note_off_c, 0, 57, 100
2, 58272, Note_on_c, 0, 55, 112
2, 58300, Note_off_c, 0, 55, 100
2, 58368, Note_on_c, 0, 55, 112
2, 58460, Note_off_c, 0, 55, 100
2, 58464, Note_on_c, 0, 54, 112
2, 58556, Note_off_c, 0, 54, 100
2, 58656, Note_on_c, 0, 52, 112
2, 58684, Note_off_c, 0, 52, 100
2, 58752, Note_on_c, 0, 52, 112
2, 58844, Note_off_c, 0, 52, 100
2, 58848, Note_on_c, 0, 51, 112
2, 58940, Note_off_c, 0, 51, 100
2, 59040, Note_on_c, 0, 54, 112
2, 59132, Note_off_c, 0, 54, 100
2, 59136, Note_on_c, 0, 57, 112
2, 59164, Note_off_c, 0, 57, 100
2, 59168, Note_on_c, 0, 55, 112
2, 59196, Note_off_c, 0, 55, 100
2, 59200, Note_on_c, 0, 57, 112
2, 59228, Note_off_c, 0, 57, 100
2, 59424, Note_on_c, 0, 60, 112
2, 59516, Note_off_c, 0, 60, 100
2, 59520, Note_on_c, 0, 59, 112
2, 59548, Note_off_c, 0, 59, 100
2, 59552, Note_on_c, 0, 57, 112
2, 59580, Note_off_c, 0, 57, 100
2, 59584, Note_on_c, 0, 59, 112
2, 59612, Note_off_c, 0, 59, 100
2, 59808, Note_on_c, 0, 57, 112
2, 59900, Note_off_c, 0, 57, 100
2, 59904, Note_on_c, 0, 55, 112
2, 60092, Note_off_c, 0, 55, 100
2, 60384, Note_on_c, 0, 75, 112
2, 60476, Note_off_c, 0, 75, 100
2, 60480, Note_on_c, 0, 76, 112
2, 60572, Note_off_c, 0, 76, 100
2, 60576, Note_on_c, 0, 78, 112
2, 60668, Note_off_c, 0, 78, 100
2, 60672, Note_on_c, 0, 79, 112
2, 60764, Note_off_c, 0, 79, 100
2, 60768, Note_on_c, 0, 80, 112
2, 60860, Note_off_c, 0, 80, 100
2, 60864, Note_on_c, 0, 81, 112
2, 60956, Note_off_c, 0, 81, 100
2, 60960, Note_on_c, 0, 83, 112
2, 61052, Note_off_c, 0, 83, 100
2, 61056, Note_on_c, 0, 84, 112
2, 61120, Note_off_c, 0, 84, 100
2, 61152, Note_on_c, 0, 81, 112
2, 61244, Note_off_c, 0, 81, 100
2, 61248, Note_on_c, 0, 79, 112
2, 61340, Note_off_c, 0, 79, 100
2, 61344, Note_on_c, 0, 77, 112
2, 61436, Note_off_c, 0, 77, 100
2, 61440, Note_on_c, 0, 76, 112
2, 61532, Note_off_c, 0, 76, 100
2, 61536, Note_on_c, 0, 74, 112
2, 61628, Note_off_c, 0, 74, 100
2, 61632, Note_on_c, 0, 72, 112
2, 61724, Note_off_c, 0, 72, 100
2, 61728, Note_on_c, 0, 71, 112
2, 61820, Note_off_c, 0, 71, 100
2, 61824, Note_on_c, 0, 69, 112
2, 61916, Note_off_c, 0, 69, 100
2, 61920, Note_on_c, 0, 67, 112
2, 62012, Note_off_c, 0, 67, 100
2, 62016, Note_on_c, 0, 66, 112
2, 62108, Note_off_c, 0, 66, 100
2, 62112, Note_on_c, 0, 64, 112
2, 62204, Note_off_c, 0, 64, 100
2, 62208, Note_on_c, 0, 63, 112
2, 62300, Note_off_c, 0, 63, 100
2, 62304, Note_on_c, 0, 72, 112
2, 62396, Note_off_c, 0, 72, 100
2, 62400, Note_on_c, 0, 71, 112
2, 62460, Note_off_c, 0, 71, 100
2, 62640, Note_on_c, 0, 71, 112
2, 62684, Note_off_c, 0, 71, 100
2, 62688, Note_on_c, 0, 73, 112
2, 62732, Note_off_c, 0, 73, 100
2, 62736, Note_on_c, 0, 75, 112
2, 62780, Note_off_c, 0, 75, 100
2, 62784, Note_on_c, 0, 76, 112
2, 62828, Note_off_c, 0, 76, 100
2, 62832, Note_on_c, 0, 78, 112
2, 62876, Note_off_c, 0, 78, 100
2, 62880, Note_on_c, 0, 79, 112
2, 62972, Note_off_c, 0, 79, 100
2, 63072, Note_on_c, 0, 78, 112
2, 63104, Note_off_c, 0, 78, 100
2, 63136, Note_on_c, 0, 78, 112
2, 63164, Note_off_c, 0, 78, 100
2, 63168, Note_on_c, 0, 76, 112
2, 63196, Note_off_c, 0, 76, 100
2, 63200, Note_on_c, 0, 78, 112
2, 63228, Note_off_c, 0, 78, 100
2, 63232, Note_on_c, 0, 76, 112
2, 63260, Note_off_c, 0, 76, 100
2, 63264, Note_on_c, 0, 75, 112
2, 63356, Note_off_c, 0, 75, 100
2, 63360, Note_on_c, 0, 76, 112
2, 63392, Note_off_c, 0, 76, 100
2, 63408, Note_on_c, 0, 72, 112
2, 63452, Note_off_c, 0, 72, 100
2, 63456, Note_on_c, 0, 71, 112
2, 63500, Note_off_c, 0, 71, 100
2, 63504, Note_on_c, 0, 69, 112
2, 63548, Note_off_c, 0, 69, 100
2, 63552, Note_on_c, 0, 71, 112
2, 63596, Note_off_c, 0, 71, 100
2, 63792, Note_on_c, 0, 66, 112
2, 63836, Note_off_c, 0, 66, 100
2, 63840, Note_on_c, 0, 64, 112
2, 63884, Note_off_c, 0, 64, 100
2, 63888, Note_on_c, 0, 63, 112
2, 63932, Note_off_c, 0, 63, 100
2, 63936, Note_on_c, 0, 64, 112
2, 63980, Note_off_c, 0, 64, 100
2, 64176, Note_on_c, 0, 57, 112
2, 64220, Note_off_c, 0, 57, 100
2, 64224, Note_on_c, 0, 55, 112
2, 64268, Note_off_c, 0, 55, 100
2, 64272, Note_on_c, 0, 54, 112
2, 64316, Note_off_c, 0, 54, 100
2, 64320, Note_on_c, 0, 55, 112
2, 64364, Note_off_c, 0, 55, 100
2, 64608, Note_on_c, 0, 60, 112
2, 64608, Note_on_c, 0, 64, 112
2, 64636, Note_off_c, 0, 60, 100
2, 64700, Note_off_c, 0, 64, 100
2, 64704, Note_on_c, 0, 62, 112
2, 64704, Note_on_c, 0, 66, 112
2, 64732, Note_off_c, 0, 62, 100
2, 64796, Note_off_c, 0, 66, 100
2, 64800, Note_on_c, 0, 64, 112
2, 64800, Note_on_c, 0, 67, 112
2, 64828, Note_off_c, 0, 64, 100
2, 64892, Note_off_c, 0, 67, 100
2, 64896, Note_on_c, 0, 66, 112
2, 64896, Note_on_c, 0, 69, 112
2, 64924, Note_off_c, 0, 66, 100
2, 64988, Note_off_c, 0, 69, 100
2, 64992, Note_on_c, 0, 67, 112
2, 64992, Note_on_c, 0, 71, 112
2, 65020, Note_off_c, 0, 67, 100
2, 65084, Note_off_c, 0, 71, 100
2, 65088, Note_on_c, 0, 69, 112
2, 65088, Note_on_c, 0, 72, 112
2, 65116, Note_off_c, 0, 69, 100
2, 65180, Note_off_c, 0, 72, 100
2, 65184, Note_on_c, 0, 71, 112
2, 65184, Note_on_c, 0, 74, 112
2, 65212, Note_off_c, 0, 71, 100
2, 65276, Note_off_c, 0, 74, 100
2, 65280, Note_on_c, 0, 72, 112
2, 65280, Note_on_c, 0, 76, 112
2, 65340, Note_off_c, 0, 72, 100
2, 65468, Note_off_c, 0, 76, 100
2, 65760, Note_on_c, 0, 71, 112
2, 65760, Note_on_c, 0, 74, 112
2, 65788, Note_off_c, 0, 71, 100
2, 65852, Note_off_c, 0, 74, 100
2, 65856, Note_on_c, 0, 69, 112
2, 65856, Note_on_c, 0, 72, 112
2, 65884, Note_off_c, 0, 69, 100
2, 65948, Note_off_c, 0, 72, 100
2, 65952, Note_on_c, 0, 67, 112
2, 65952, Note_on_c, 0, 71, 112
2, 65980, Note_off_c, 0, 67, 100
2, 66044, Note_off_c, 0, 71, 100
2, 66048, Note_on_c, 0, 66, 112
2, 66048, Note_on_c, 0, 69, 112
2, 66076, Note_off_c, 0, 66, 100
2, 66140, Note_off_c, 0, 69, 100
2, 66144, Note_on_c, 0, 64, 112
2, 66144, Note_on_c, 0, 67, 112
2, 66172, Note_off_c, 0, 64, 100
2, 66236, Note_off_c, 0, 67, 100
2, 66240, Note_on_c, 0, 62, 112
2, 66240, Note_on_c, 0, 66, 112
2, 66268, Note_off_c, 0, 62, 100
2, 66332, Note_off_c, 0, 66, 100
2, 66336, Note_on_c, 0, 60, 112
2, 66336, Note_on_c, 0, 64, 112
2, 66364, Note_off_c, 0, 60, 100
2, 66428, Note_off_c, 0, 64, 100
2, 66432, Note_on_c, 0, 62, 112
2, 66432, Note_on_c, 0, 59, 112
2, 66492, Note_off_c, 0, 59, 100
2, 66620, Note_off_c, 0, 62, 100
2, 66912, Note_on_c, 0, 59, 112
2, 66912, Note_on_c, 0, 62, 112
2, 67004, Note_off_c, 0, 59, 100
2, 67004, Note_off_c, 0, 62, 100
2, 67104, Note_on_c, 0, 56, 112
2, 67104, Note_on_c, 0, 59, 112
2, 67196, Note_off_c, 0, 56, 100
2, 67196, Note_off_c, 0, 59, 100
2, 67296, Note_on_c, 0, 59, 112
2, 67296, Note_on_c, 0, 62, 112
2, 67388, Note_off_c, 0, 59, 100
2, 67388, Note_off_c, 0, 62, 100
2, 67488, Note_on_c, 0, 55, 112
2, 67488, Note_on_c, 0, 59, 112
2, 67580, Note_off_c, 0, 55, 100
2, 67580, Note_off_c, 0, 59, 100
2, 67680, Note_on_c, 0, 55, 112
2, 67680, Note_on_c, 0, 59, 112
2, 67772, Note_off_c, 0, 55, 100
2, 67772, Note_off_c, 0, 59, 100
2, 67872, Note_on_c, 0, 52, 112
2, 67872, Note_on_c, 0, 55, 112
2, 67964, Note_off_c, 0, 52, 100
2, 67964, Note_off_c, 0, 55, 100
2, 68064, Note_on_c, 0, 52, 112
2, 68064, Note_on_c, 0, 55, 112
2, 68156, Note_off_c, 0, 52, 100
2, 68156, Note_off_c, 0, 55, 100
2, 68256, Note_on_c, 0, 49, 112
2, 68256, Note_on_c, 0, 52, 112
2, 68348, Note_off_c, 0, 49, 100
2, 68348, Note_off_c, 0, 52, 100
2, 68448, Note_on_c, 0, 52, 112
2, 68448, Note_on_c, 0, 55, 112
2, 68540, Note_off_c, 0, 52, 100
2, 68540, Note_off_c, 0, 55, 100
2, 68640, Note_on_c, 0, 48, 112
2, 68640, Note_on_c, 0, 52, 112
2, 68732, Note_off_c, 0, 48, 100
2, 68732, Note_off_c, 0, 52, 100
2, 68832, Note_on_c, 0, 48, 112
2, 68832, Note_on_c, 0, 52, 112
2, 68924, Note_off_c, 0, 48, 100
2, 68924, Note_off_c, 0, 52, 100
2, 69024, Note_on_c, 0, 45, 112
2, 69024, Note_on_c, 0, 48, 112
2, 69116, Note_off_c, 0, 45, 100
2, 69116, Note_off_c, 0, 48, 100
2, 69216, Note_on_c, 0, 45, 112
2, 69216, Note_on_c, 0, 48, 112
2, 69308, Note_off_c, 0, 45, 100
2, 69308, Note_off_c, 0, 48, 100
2, 69408, Note_on_c, 0, 42, 112
2, 69408, Note_on_c, 0, 45, 112
2, 69500, Note_off_c, 0, 42, 100
2, 69500, Note_off_c, 0, 45, 100
2, 69600, Note_on_c, 0, 45, 112
2, 69600, Note_on_c, 0, 48, 112
2, 69692, Note_off_c, 0, 45, 100
2, 69692, Note_off_c, 0, 48, 100
2, 69792, Note_on_c, 0, 48, 112
2, 69792, Note_on_c, 0, 52, 112
2, 69884, Note_off_c, 0, 48, 100
2, 69884, Note_off_c, 0, 52, 100
2, 69984, Note_on_c, 0, 52, 112
2, 69984, Note_on_c, 0, 55, 112
2, 70076, Note_off_c, 0, 52, 100
2, 70076, Note_off_c, 0, 55, 100
2, 70176, Note_on_c, 0, 55, 112
2, 70176, Note_on_c, 0, 59, 112
2, 70268, Note_off_c, 0, 55, 100
2, 70268, Note_off_c, 0, 59, 100
2, 70368, Note_on_c, 0, 53, 112
2, 70368, Note_on_c, 0, 62, 112
2, 70460, Note_off_c, 0, 53, 100
2, 70460, Note_off_c, 0, 62, 100
2, 70560, Note_on_c, 0, 50, 112
2, 70560, Note_on_c, 0, 59, 112
2, 70652, Note_off_c, 0, 50, 100
2, 70652, Note_off_c, 0, 59, 100
2, 70752, Note_on_c, 0, 53, 112
2, 70752, Note_on_c, 0, 62, 112
2, 70844, Note_off_c, 0, 53, 100
2, 70844, Note_off_c, 0, 62, 100
2, 70944, Note_on_c, 0, 57, 112
2, 70944, Note_on_c, 0, 66, 112
2, 71036, Note_off_c, 0, 57, 100
2, 71036, Note_off_c, 0, 66, 100
2, 71136, Note_on_c, 0, 60, 112
2, 71136, Note_on_c, 0, 69, 112
2, 71228, Note_off_c, 0, 60, 100
2, 71228, Note_off_c, 0, 69, 100
2, 71328, Note_on_c, 0, 64, 112
2, 71328, Note_on_c, 0, 72, 112
2, 71420, Note_off_c, 0, 64, 100
2, 71420, Note_off_c, 0, 72, 100
2, 71520, Note_on_c, 0, 69, 112
2, 71520, Note_on_c, 0, 72, 112
2, 71548, Note_off_c, 0, 69, 100
2, 71612, Note_off_c, 0, 72, 100
2, 71616, Note_on_c, 0, 71, 112
2, 71616, Note_on_c, 0, 74, 112
2, 71644, Note_off_c, 0, 71, 100
2, 71708, Note_off_c, 0, 74, 100
2, 71712, Note_on_c, 0, 72, 112
2, 71712, Note_on_c, 0, 76, 112
2, 71740, Note_off_c, 0, 72, 100
2, 71804, Note_off_c, 0, 76, 100
2, 71808, Note_on_c, 0, 74, 112
2, 71808, Note_on_c, 0, 78, 112
2, 71836, Note_off_c, 0, 74, 100
2, 71900, Note_off_c, 0, 78, 100
2, 71904, Note_on_c, 0, 76, 112
2, 71904, Note_on_c, 0, 79, 112
2, 71932, Note_off_c, 0, 76, 100
2, 71996, Note_off_c, 0, 79, 100
2, 72000, Note_on_c, 0, 78, 112
2, 72000, Note_on_c, 0, 81, 112
2, 72028, Note_off_c, 0, 78, 100
2, 72092, Note_off_c, 0, 81, 100
2, 72096, Note_on_c, 0, 79, 112
2, 72096, Note_on_c, 0, 83, 112
2, 72124, Note_off_c, 0, 79, 100
2, 72188, Note_off_c, 0, 83, 100
2, 72192, Note_on_c, 0, 81, 112
2, 72192, Note_on_c, 0, 84, 112
2, 72252, Note_off_c, 0, 81, 100
2, 72380, Note_off_c, 0, 84, 100
2, 72672, Note_on_c, 0, 74, 112
2, 72672, Note_on_c, 0, 83, 112
2, 72700, Note_off_c, 0, 83, 100
2, 72764, Note_off_c, 0, 74, 100
2, 72768, Note_on_c, 0, 72, 112
2, 72768, Note_on_c, 0, 81, 112
2, 72796, Note_off_c, 0, 81, 100
2, 72860, Note_off_c, 0, 72, 100
2, 72864, Note_on_c, 0, 71, 112
2, 72864, Note_on_c, 0, 79, 112
2, 72892, Note_off_c, 0, 79, 100
2, 72956, Note_off_c, 0, 71, 100
2, 72960, Note_on_c, 0, 69, 112
2, 72960, Note_on_c, 0, 78, 112
2, 72988, Note_off_c, 0, 78, 100
2, 73052, Note_off_c, 0, 69, 100
2, 73056, Note_on_c, 0, 67, 112
2, 73056, Note_on_c, 0, 76, 112
2, 73084, Note_off_c, 0, 76, 100
2, 73148, Note_off_c, 0, 67, 100
2, 73152, Note_on_c, 0, 66, 112
2, 73152, Note_on_c, 0, 74, 112
2, 73180, Note_off_c, 0, 74, 100
2, 73244, Note_off_c, 0, 66, 100
2, 73248, Note_on_c, 0, 64, 112
2, 73248, Note_on_c, 0, 72, 112
2, 73276, Note_off_c, 0, 72, 100
2, 73340, Note_off_c, 0, 64, 100
2, 73344, Note_on_c, 0, 62, 112
2, 73344, Note_on_c, 0, 71, 112
2, 73532, Note_off_c, 0, 62, 100
2, 73532, Note_off_c, 0, 71, 100
2, 73532, End_track
3, 0, Start_track
3, 0, Title_t, "Goldberg Variations"
3, 0, Control_c, 1, 0, 0
3, 0, Program_c, 1, 6
3, 0, Control_c, 1, 7, 127
3, 0, Control_c, 1, 10, 82
3, 0, Control_c, 1, 91, 127
3, 0, Key_signature, 1, "major"
3, 0, Note_on_c, 1, 67, 112
3, 60, Note_off_c, 1, 67, 100
3, 192, Note_on_c, 1, 83, 112
3, 284, Note_off_c, 1, 83, 100
3, 288, Note_on_c, 1, 81, 112
3, 380, Note_off_c, 1, 81, 100
3, 384, Note_on_c, 1, 79, 112
3, 476, Note_off_c, 1, 79, 100
3, 480, Note_on_c, 1, 78, 112
3, 572, Note_off_c, 1, 78, 100
3, 576, Note_on_c, 1, 76, 112
3, 668, Note_off_c, 1, 76, 100
3, 672, Note_on_c, 1, 74, 112
3, 764, Note_off_c, 1, 74, 100
3, 768, Note_on_c, 1, 73, 112
3, 860, Note_off_c, 1, 73, 100
3, 864, Note_on_c, 1, 71, 112
3, 956, Note_off_c, 1, 71, 100
3, 960, Note_on_c, 1, 69, 112
3, 1052, Note_off_c, 1, 69, 100
3, 1056, Note_on_c, 1, 67, 112
3, 1148, Note_off_c, 1, 67, 100
3, 1152, Note_on_c, 1, 66, 112
3, 1212, Note_off_c, 1, 66, 100
3, 1344, Note_on_c, 1, 81, 112
3, 1436, Note_off_c, 1, 81, 100
3, 1440, Note_on_c, 1, 79, 112
3, 1532, Note_off_c, 1, 79, 100
3, 1536, Note_on_c, 1, 78, 112
3, 1628, Note_off_c, 1, 78, 100
3, 1632, Note_on_c, 1, 76, 112
3, 1724, Note_off_c, 1, 76, 100
3, 1728, Note_on_c, 1, 74, 112
3, 1820, Note_off_c, 1, 74, 100
3, 1824, Note_on_c, 1, 73, 112
3, 1916, Note_off_c, 1, 73, 100
3, 1920, Note_on_c, 1, 71, 112
3, 2012, Note_off_c, 1, 71, 100
3, 2016, Note_on_c, 1, 69, 112
3, 2108, Note_off_c, 1, 69, 100
3, 2112, Note_on_c, 1, 67, 112
3, 2204, Note_off_c, 1, 67, 100
3, 2208, Note_on_c, 1, 66, 112
3, 2300, Note_off_c, 1, 66, 100
3, 2304, Note_on_c, 1, 64, 112
3, 2364, Note_off_c, 1, 64, 100
3, 2496, Note_on_c, 1, 79, 112
3, 2588, Note_off_c, 1, 79, 100
3, 2592, Note_on_c, 1, 78, 112
3, 2684, Note_off_c, 1, 78, 100
3, 2688, Note_on_c, 1, 76, 112
3, 2780, Note_off_c, 1, 76, 100
3, 2784, Note_on_c, 1, 74, 112
3, 2876, Note_off_c, 1, 74, 100
3, 2880, Note_on_c, 1, 73, 112
3, 2972, Note_off_c, 1, 73, 100
3, 2976, Note_on_c, 1, 71, 112
3, 3068, Note_off_c, 1, 71, 100
3, 3072, Note_on_c, 1, 69, 112
3, 3164, Note_off_c, 1, 69, 100
3, 3168, Note_on_c, 1, 67, 112
3, 3260, Note_off_c, 1, 67, 100
3, 3264, Note_on_c, 1, 66, 112
3, 3356, Note_off_c, 1, 66, 100
3, 3360, Note_on_c, 1, 64, 112
3, 3452, Note_off_c, 1, 64, 100
3, 3456, Note_on_c, 1, 62, 112
3, 3516, Note_off_c, 1, 62, 100
3, 3744, Note_on_c, 1, 60, 112
3, 3788, Note_off_c, 1, 60, 100
3, 3792, Note_on_c, 1, 59, 112
3, 3836, Note_off_c, 1, 59, 100
3, 3840, Note_on_c, 1, 57, 112
3, 3884, Note_off_c, 1, 57, 100
3, 3888, Note_on_c, 1, 55, 112
3, 3932, Note_off_c, 1, 55, 100
3, 3936, Note_on_c, 1, 54, 112
3, 3980, Note_off_c, 1, 54, 100
3, 3984, Note_on_c, 1, 52, 112
3, 4028, Note_off_c, 1, 52, 100
3, 4032, Note_on_c, 1, 50, 112
3, 4092, Note_off_c, 1, 50, 100
3, 4512, Note_on_c, 1, 48, 112
3, 4604, Note_off_c, 1, 48, 100
3, 4608, Note_on_c, 1, 47, 112
3, 4668, Note_off_c, 1, 47, 100
3, 4992, Note_on_c, 1, 59, 112
3, 5084, Note_off_c, 1, 59, 100
3, 5088, Note_on_c, 1, 60, 112
3, 5180, Note_off_c, 1, 60, 100
3, 5184, Note_on_c, 1, 62, 112
3, 5276, Note_off_c, 1, 62, 100
3, 5280, Note_on_c, 1, 64, 112
3, 5372, Note_off_c, 1, 64, 100
3, 5376, Note_on_c, 1, 66, 112
3, 5468, Note_off_c, 1, 66, 100
3, 5472, Note_on_c, 1, 67, 112
3, 5564, Note_off_c, 1, 67, 100
3, 5568, Note_on_c, 1, 69, 112
3, 5660, Note_off_c, 1, 69, 100
3, 5664, Note_on_c, 1, 71, 112
3, 5756, Note_off_c, 1, 71, 100
3, 5760, Note_on_c, 1, 72, 112
3, 5852, Note_off_c, 1, 72, 100
3, 5856, Note_on_c, 1, 74, 112
3, 5948, Note_off_c, 1, 74, 100
3, 5952, Note_on_c, 1, 76, 112
3, 6012, Note_off_c, 1, 76, 100
3, 6144, Note_on_c, 1, 60, 112
3, 6236, Note_off_c, 1, 60, 100
3, 6240, Note_on_c, 1, 62, 112
3, 6332, Note_off_c, 1, 62, 100
3, 6336, Note_on_c, 1, 64, 112
3, 6428, Note_off_c, 1, 64, 100
3, 6432, Note_on_c, 1, 66, 112
3, 6524, Note_off_c, 1, 66, 100
3, 6528, Note_on_c, 1, 67, 112
3, 6620, Note_off_c, 1, 67, 100
3, 6624, Note_on_c, 1, 69, 112
3, 6716, Note_off_c, 1, 69, 100
3, 6720, Note_on_c, 1, 71, 112
3, 6812, Note_off_c, 1, 71, 100
3, 6816, Note_on_c, 1, 72, 112
3, 6908, Note_off_c, 1, 72, 100
3, 6912, Note_on_c, 1, 74, 112
3, 7004, Note_off_c, 1, 74, 100
3, 7008, Note_on_c, 1, 76, 112
3, 7100, Note_off_c, 1, 76, 100
3, 7104, Note_on_c, 1, 78, 112
3, 7164, Note_off_c, 1, 78, 100
3, 7296, Note_on_c, 1, 62, 112
3, 7388, Note_off_c, 1, 62, 100
3, 7392, Note_on_c, 1, 64, 112
3, 7484, Note_off_c, 1, 64, 100
3, 7488, Note_on_c, 1, 66, 112
3, 7580, Note_off_c, 1, 66, 100
3, 7584, Note_on_c, 1, 67, 112
3, 7676, Note_off_c, 1, 67, 100
3, 7680, Note_on_c, 1, 69, 112
3, 7772, Note_off_c, 1, 69, 100
3, 7776, Note_on_c, 1, 71, 112
3, 7868, Note_off_c, 1, 71, 100
3, 7872, Note_on_c, 1, 72, 112
3, 7964, Note_off_c, 1, 72, 100
3, 7968, Note_on_c, 1, 69, 112
3, 8060, Note_off_c, 1, 69, 100
3, 8064, Note_on_c, 1, 71, 112
3, 8096, Note_off_c, 1, 71, 100
3, 8112, Note_on_c, 1, 67, 112
3, 8156, Note_off_c, 1, 67, 100
3, 8160, Note_on_c, 1, 69, 112
3, 8204, Note_off_c, 1, 69, 100
3, 8208, Note_on_c, 1, 71, 112
3, 8252, Note_off_c, 1, 71, 100
3, 8256, Note_on_c, 1, 72, 112
3, 8300, Note_off_c, 1, 72, 100
3, 8304, Note_on_c, 1, 74, 112
3, 8348, Note_off_c, 1, 74, 100
3, 8352, Note_on_c, 1, 76, 112
3, 8396, Note_off_c, 1, 76, 100
3, 8400, Note_on_c, 1, 78, 112
3, 8444, Note_off_c, 1, 78, 100
3, 8448, Note_on_c, 1, 79, 112
3, 8476, Note_off_c, 1, 79, 100
3, 8928, Note_on_c, 1, 66, 112
3, 8972, Note_off_c, 1, 66, 100
3, 8976, Note_on_c, 1, 64, 112
3, 9020, Note_off_c, 1, 64, 100
3, 9024, Note_on_c, 1, 62, 112
3, 9068, Note_off_c, 1, 62, 100
3, 9072, Note_on_c, 1, 60, 112
3, 9116, Note_off_c, 1, 60, 100
3, 9120, Note_on_c, 1, 59, 112
3, 9164, Note_off_c, 1, 59, 100
3, 9168, Note_on_c, 1, 57, 112
3, 9212, Note_off_c, 1, 57, 100
3, 9216, Note_on_c, 1, 55, 112
3, 9276, Note_off_c, 1, 55, 100
3, 9504, Note_on_c, 1, 57, 112
3, 9596, Note_off_c, 1, 57, 100
3, 9600, Note_on_c, 1, 59, 112
3, 9628, Note_off_c, 1, 59, 100
3, 9632, Note_on_c, 1, 57, 112
3, 9660, Note_off_c, 1, 57, 100
3, 9664, Note_on_c, 1, 59, 112
3, 9692, Note_off_c, 1, 59, 100
3, 9888, Note_on_c, 1, 60, 112
3, 9980, Note_off_c, 1, 60, 100
3, 9984, Note_on_c, 1, 62, 112
3, 10012, Note_off_c, 1, 62, 100
3, 10016, Note_on_c, 1, 60, 112
3, 10044, Note_off_c, 1, 60, 100
3, 10048, Note_on_c, 1, 62, 112
3, 10076, Note_off_c, 1, 62, 100
3, 10272, Note_on_c, 1, 64, 112
3, 10364, Note_off_c, 1, 64, 100
3, 10368, Note_on_c, 1, 66, 112
3, 10396, Note_off_c, 1, 66, 100
3, 10400, Note_on_c, 1, 64, 112
3, 10428, Note_off_c, 1, 64, 100
3, 10432, Note_on_c, 1, 66, 112
3, 10460, Note_off_c, 1, 66, 100
3, 10656, Note_on_c, 1, 67, 112
3, 10748, Note_off_c, 1, 67, 100
3, 10752, Note_on_c, 1, 69, 112
3, 10780, Note_off_c, 1, 69, 100
3, 10784, Note_on_c, 1, 67, 112
3, 10812, Note_off_c, 1, 67, 100
3, 10816, Note_on_c, 1, 69, 112
3, 10844, Note_off_c, 1, 69, 100
3, 11040, Note_on_c, 1, 71, 112
3, 11132, Note_off_c, 1, 71, 100
3, 11136, Note_on_c, 1, 73, 112
3, 11164, Note_off_c, 1, 73, 100
3, 11168, Note_on_c, 1, 71, 112
3, 11196, Note_off_c, 1, 71, 100
3, 11200, Note_on_c, 1, 73, 112
3, 11228, Note_off_c, 1, 73, 100
3, 11424, Note_on_c, 1, 74, 112
3, 11516, Note_off_c, 1, 74, 100
3, 11520, Note_on_c, 1, 76, 112
3, 11548, Note_off_c, 1, 76, 100
3, 11552, Note_on_c, 1, 74, 112
3, 11580, Note_off_c, 1, 74, 100
3, 11584, Note_on_c, 1, 76, 112
3, 11612, Note_off_c, 1, 76, 100
3, 11808, Note_on_c, 1, 78, 112
3, 11900, Note_off_c, 1, 78, 100
3, 11904, Note_on_c, 1, 79, 112
3, 11932, Note_off_c, 1, 79, 100
3, 11936, Note_on_c, 1, 78, 112
3, 11964, Note_off_c, 1, 78, 100
3, 11968, Note_on_c, 1, 79, 112
3, 11996, Note_off_c, 1, 79, 100
3, 12192, Note_on_c, 1, 81, 112
3, 12284, Note_off_c, 1, 81, 100
3, 12288, Note_on_c, 1, 83, 112
3, 12316, Note_off_c, 1, 83, 100
3, 12320, Note_on_c, 1, 81, 112
3, 12348, Note_off_c, 1, 81, 100
3, 12352, Note_on_c, 1, 83, 112
3, 12380, Note_off_c, 1, 83, 100
3, 12576, Note_on_c, 1, 74, 112
3, 12668, Note_off_c, 1, 74, 100
3, 12672, Note_on_c, 1, 73, 112
3, 12700, Note_off_c, 1, 73, 100
3, 12704, Note_on_c, 1, 71, 112
3, 12732, Note_off_c, 1, 71, 100
3, 12736, Note_on_c, 1, 73, 112
3, 12764, Note_off_c, 1, 73, 100
3, 12960, Note_on_c, 1, 76, 112
3, 13052, Note_off_c, 1, 76, 100
3, 13056, Note_on_c, 1, 67, 112
3, 13084, Note_off_c, 1, 67, 100
3, 13088, Note_on_c, 1, 66, 112
3, 13116, Note_off_c, 1, 66, 100
3, 13120, Note_on_c, 1, 67, 112
3, 13148, Note_off_c, 1, 67, 100
3, 13344, Note_on_c, 1, 71, 112
3, 13436, Note_off_c, 1, 71, 100
3, 13440, Note_on_c, 1, 69, 112
3, 13468, Note_off_c, 1, 69, 100
3, 13472, Note_on_c, 1, 67, 112
3, 13500, Note_off_c, 1, 67, 100
3, 13504, Note_on_c, 1, 69, 112
3, 13532, Note_off_c, 1, 69, 100
3, 13728, Note_on_c, 1, 67, 112
3, 13820, Note_off_c, 1, 67, 100
3, 13824, Note_on_c, 1, 66, 112
3, 13852, Note_off_c, 1, 66, 100
3, 13856, Note_on_c, 1, 64, 112
3, 13884, Note_off_c, 1, 64, 100
3, 13888, Note_on_c, 1, 66, 112
3, 13916, Note_off_c, 1, 66, 100
3, 14112, Note_on_c, 1, 57, 112
3, 14204, Note_off_c, 1, 57, 100
3, 14208, Note_on_c, 1, 69, 112
3, 14300, Note_off_c, 1, 69, 100
3, 14304, Note_on_c, 1, 67, 112
3, 14396, Note_off_c, 1, 67, 100
3, 14400, Note_on_c, 1, 66, 112
3, 14492, Note_off_c, 1, 66, 100
3, 14496, Note_on_c, 1, 64, 112
3, 14588, Note_off_c, 1, 64, 100
3, 14592, Note_on_c, 1, 62, 112
3, 14684, Note_off_c, 1, 62, 100
3, 14688, Note_on_c, 1, 60, 112
3, 14780, Note_off_c, 1, 60, 100
3, 14784, Note_on_c, 1, 59, 112
3, 14876, Note_off_c, 1, 59, 100
3, 14880, Note_on_c, 1, 57, 112
3, 14972, Note_off_c, 1, 57, 100
3, 14976, Note_on_c, 1, 55, 112
3, 15068, Note_off_c, 1, 55, 100
3, 15072, Note_on_c, 1, 59, 112
3, 15136, Note_off_c, 1, 59, 100
3, 15168, Note_on_c, 1, 62, 112
3, 15260, Note_off_c, 1, 62, 100
3, 15264, Note_on_c, 1, 60, 112
3, 15356, Note_off_c, 1, 60, 100
3, 15360, Note_on_c, 1, 59, 112
3, 15452, Note_off_c, 1, 59, 100
3, 15456, Note_on_c, 1, 57, 112
3, 15548, Note_off_c, 1, 57, 100
3, 15552, Note_on_c, 1, 55, 112
3, 15644, Note_off_c, 1, 55, 100
3, 15648, Note_on_c, 1, 54, 112
3, 15740, Note_off_c, 1, 54, 100
3, 15744, Note_on_c, 1, 52, 112
3, 15836, Note_off_c, 1, 52, 100
3, 15840, Note_on_c, 1, 50, 112
3, 15932, Note_off_c, 1, 50, 100
3, 15936, Note_on_c, 1, 49, 112
3, 16028, Note_off_c, 1, 49, 100
3, 16032, Note_on_c, 1, 47, 112
3, 16124, Note_off_c, 1, 47, 100
3, 16128, Note_on_c, 1, 45, 112
3, 16192, Note_off_c, 1, 45, 100
3, 16224, Note_on_c, 1, 52, 112
3, 16316, Note_off_c, 1, 52, 100
3, 16320, Note_on_c, 1, 55, 112
3, 16412, Note_off_c, 1, 55, 100
3, 16416, Note_on_c, 1, 54, 112
3, 16508, Note_off_c, 1, 54, 100
3, 16512, Note_on_c, 1, 52, 112
3, 16604, Note_off_c, 1, 52, 100
3, 16608, Note_on_c, 1, 50, 112
3, 16700, Note_off_c, 1, 50, 100
3, 16704, Note_on_c, 1, 49, 112
3, 16796, Note_off_c, 1, 49, 100
3, 16800, Note_on_c, 1, 47, 112
3, 16892, Note_off_c, 1, 47, 100
3, 16896, Note_on_c, 1, 45, 112
3, 16988, Note_off_c, 1, 45, 100
3, 16992, Note_on_c, 1, 43, 112
3, 17084, Note_off_c, 1, 43, 100
3, 17088, Note_on_c, 1, 42, 112
3, 17180, Note_off_c, 1, 42, 100
3, 17184, Note_on_c, 1, 40, 112
3, 17276, Note_off_c, 1, 40, 100
3, 17280, Note_on_c, 1, 38, 112
3, 17660, Note_off_c, 1, 38, 100
3, 17760, Note_on_c, 1, 40, 112
3, 17804, Note_off_c, 1, 40, 100
3, 17808, Note_on_c, 1, 42, 112
3, 17852, Note_off_c, 1, 42, 100
3, 17856, Note_on_c, 1, 43, 112
3, 17900, Note_off_c, 1, 43, 100
3, 17904, Note_on_c, 1, 45, 112
3, 17948, Note_off_c, 1, 45, 100
3, 17952, Note_on_c, 1, 47, 112
3, 17996, Note_off_c, 1, 47, 100
3, 18000, Note_on_c, 1, 49, 112
3, 18044, Note_off_c, 1, 49, 100
3, 18048, Note_on_c, 1, 50, 112
3, 18236, Note_off_c, 1, 50, 100
3, 18432, Note_on_c, 1, 67, 112
3, 18492, Note_off_c, 1, 67, 100
3, 18624, Note_on_c, 1, 83, 112
3, 18716, Note_off_c, 1, 83, 100
3, 18720, Note_on_c, 1, 81, 112
3, 18812, Note_off_c, 1, 81, 100
3, 18816, Note_on_c, 1, 79, 112
3, 18908, Note_off_c, 1, 79, 100
3, 18912, Note_on_c, 1, 78, 112
3, 19004, Note_off_c, 1, 78, 100
3, 19008, Note_on_c, 1, 76, 112
3, 19100, Note_off_c, 1, 76, 100
3, 19104, Note_on_c, 1, 74, 112
3, 19196, Note_off_c, 1, 74, 100
3, 19200, Note_on_c, 1, 73, 112
3, 19292, Note_off_c, 1, 73, 100
3, 19296, Note_on_c, 1, 71, 112
3, 19388, Note_off_c, 1, 71, 100
3, 19392, Note_on_c, 1, 69, 112
3, 19484, Note_off_c, 1, 69, 100
3, 19488, Note_on_c, 1, 67, 112
3, 19580, Note_off_c, 1, 67, 100
3, 19584, Note_on_c, 1, 66, 112
3, 19644, Note_off_c, 1, 66, 100
3, 19776, Note_on_c, 1, 81, 112
3, 19868, Note_off_c, 1, 81, 100
3, 19872, Note_on_c, 1, 79, 112
3, 19964, Note_off_c, 1, 79, 100
3, 19968, Note_on_c, 1, 78, 112
3, 20060, Note_off_c, 1, 78, 100
3, 20064, Note_on_c, 1, 76, 112
3, 20156, Note_off_c, 1, 76, 100
3, 20160, Note_on_c, 1, 74, 112
3, 20252, Note_off_c, 1, 74, 100
3, 20256, Note_on_c, 1, 73, 112
3, 20348, Note_off_c, 1, 73, 100
3, 20352, Note_on_c, 1, 71, 112
3, 20444, Note_off_c, 1, 71, 100
3, 20448, Note_on_c, 1, 69, 112
3, 20540, Note_off_c, 1, 69, 100
3, 20544, Note_on_c, 1, 67, 112
3, 20636, Note_off_c, 1, 67, 100
3, 20640, Note_on_c, 1, 66, 112
3, 20732, Note_off_c, 1, 66, 100
3, 20736, Note_on_c, 1, 64, 112
3, 20796, Note_off_c, 1, 64, 100
3, 20928, Note_on_c, 1, 79, 112
3, 21020, Note_off_c, 1, 79, 100
3, 21024, Note_on_c, 1, 78, 112
3, 21116, Note_off_c, 1, 78, 100
3, 21120, Note_on_c, 1, 76, 112
3, 21212, Note_off_c, 1, 76, 100
3, 21216, Note_on_c, 1, 74, 112
3, 21308, Note_off_c, 1, 74, 100
3, 21312, Note_on_c, 1, 73, 112
3, 21404, Note_off_c, 1, 73, 100
3, 21408, Note_on_c, 1, 71, 112
3, 21500, Note_off_c, 1, 71, 100
3, 21504, Note_on_c, 1, 69, 112
3, 21596, Note_off_c, 1, 69, 100
3, 21600, Note_on_c, 1, 67, 112
3, 21692, Note_off_c, 1, 67, 100
3, 21696, Note_on_c, 1, 66, 112
3, 21788, Note_off_c, 1, 66, 100
3, 21792, Note_on_c, 1, 64, 112
3, 21884, Note_off_c, 1, 64, 100
3, 21888, Note_on_c, 1, 62, 112
3, 21948, Note_off_c, 1, 62, 100
3, 22176, Note_on_c, 1, 60, 112
3, 22220, Note_off_c, 1, 60, 100
3, 22224, Note_on_c, 1, 59, 112
3, 22268, Note_off_c, 1, 59, 100
3, 22272, Note_on_c, 1, 57, 112
3, 22316, Note_off_c, 1, 57, 100
3, 22320, Note_on_c, 1, 55, 112
3, 22364, Note_off_c, 1, 55, 100
3, 22368, Note_on_c, 1, 54, 112
3, 22412, Note_off_c, 1, 54, 100
3, 22416, Note_on_c, 1, 52, 112
3, 22460, Note_off_c, 1, 52, 100
3, 22464, Note_on_c, 1, 50, 112
3, 22524, Note_off_c, 1, 50, 100
3, 22944, Note_on_c, 1, 48, 112
3, 23036, Note_off_c, 1, 48, 100
3, 23040, Note_on_c, 1, 47, 112
3, 23100, Note_off_c, 1, 47, 100
3, 23424, Note_on_c, 1, 59, 112
3, 23516, Note_off_c, 1, 59, 100
3, 23520, Note_on_c, 1, 60, 112
3, 23612, Note_off_c, 1, 60, 100
3, 23616, Note_on_c, 1, 62, 112
3, 23708, Note_off_c, 1, 62, 100
3, 23712, Note_on_c, 1, 64, 112
3, 23804, Note_off_c, 1, 64, 100
3, 23808, Note_on_c, 1, 66, 112
3, 23900, Note_off_c, 1, 66, 100
3, 23904, Note_on_c, 1, 67, 112
3, 23996, Note_off_c, 1, 67, 100
3, 24000, Note_on_c, 1, 69, 112
3, 24092, Note_off_c, 1, 69, 100
3, 24096, Note_on_c, 1, 71, 112
3, 24188, Note_off_c, 1, 71, 100
3, 24192, Note_on_c, 1, 72, 112
3, 24284, Note_off_c, 1, 72, 100
3, 24288, Note_on_c, 1, 74, 112
3, 24380, Note_off_c, 1, 74, 100
3, 24384, Note_on_c, 1, 76, 112
3, 24444, Note_off_c, 1, 76, 100
3, 24576, Note_on_c, 1, 60, 112
3, 24668, Note_off_c, 1, 60, 100
3, 24672, Note_on_c, 1, 62, 112
3, 24764, Note_off_c, 1, 62, 100
3, 24768, Note_on_c, 1, 64, 112
3, 24860, Note_off_c, 1, 64, 100
3, 24864, Note_on_c, 1, 66, 112
3, 24956, Note_off_c, 1, 66, 100
3, 24960, Note_on_c, 1, 67, 112
3, 25052, Note_off_c, 1, 67, 100
3, 25056, Note_on_c, 1, 69, 112
3, 25148, Note_off_c, 1, 69, 100
3, 25152, Note_on_c, 1, 71, 112
3, 25244, Note_off_c, 1, 71, 100
3, 25248, Note_on_c, 1, 72, 112
3, 25340, Note_off_c, 1, 72, 100
3, 25344, Note_on_c, 1, 74, 112
3, 25436, Note_off_c, 1, 74, 100
3, 25440, Note_on_c, 1, 76, 112
3, 25532, Note_off_c, 1, 76, 100
3, 25536, Note_on_c, 1, 78, 112
3, 25596, Note_off_c, 1, 78, 100
3, 25728, Note_on_c, 1, 62, 112
3, 25820, Note_off_c, 1, 62, 100
3, 25824, Note_on_c, 1, 64, 112
3, 25916, Note_off_c, 1, 64, 100
3, 25920, Note_on_c, 1, 66, 112
3, 26012, Note_off_c, 1, 66, 100
3, 26016, Note_on_c, 1, 67, 112
3, 26108, Note_off_c, 1, 67, 100
3, 26112, Note_on_c, 1, 69, 112
3, 26204, Note_off_c, 1, 69, 100
3, 26208, Note_on_c, 1, 71, 112
3, 26300, Note_off_c, 1, 71, 100
3, 26304, Note_on_c, 1, 72, 112
3, 26396, Note_off_c, 1, 72, 100
3, 26400, Note_on_c, 1, 69, 112
3, 26492, Note_off_c, 1, 69, 100
3, 26496, Note_on_c, 1, 71, 112
3, 26528, Note_off_c, 1, 71, 100
3, 26544, Note_on_c, 1, 67, 112
3, 26588, Note_off_c, 1, 67, 100
3, 26592, Note_on_c, 1, 69, 112
3, 26636, Note_off_c, 1, 69, 100
3, 26640, Note_on_c, 1, 71, 112
3, 26684, Note_off_c, 1, 71, 100
3, 26688, Note_on_c, 1, 72, 112
3, 26732, Note_off_c, 1, 72, 100
3, 26736, Note_on_c, 1, 74, 112
3, 26780, Note_off_c, 1, 74, 100
3, 26784, Note_on_c, 1, 76, 112
3, 26828, Note_off_c, 1, 76, 100
3, 26832, Note_on_c, 1, 78, 112
3, 26876, Note_off_c, 1, 78, 100
3, 26880, Note_on_c, 1, 79, 112
3, 26908, Note_off_c, 1, 79, 100
3, 27360, Note_on_c, 1, 66, 112
3, 27404, Note_off_c, 1, 66, 100
3, 27408, Note_on_c, 1, 64, 112
3, 27452, Note_off_c, 1, 64, 100
3, 27456, Note_on_c, 1, 62, 112
3, 27500, Note_off_c, 1, 62, 100
3, 27504, Note_on_c, 1, 60, 112
3, 27548, Note_off_c, 1, 60, 100
3, 27552, Note_on_c, 1, 59, 112
3, 27596, Note_off_c, 1, 59, 100
3, 27600, Note_on_c, 1, 57, 112
3, 27644, Note_off_c, 1, 57, 100
3, 27648, Note_on_c, 1, 55, 112
3, 27708, Note_off_c, 1, 55, 100
3, 27936, Note_on_c, 1, 57, 112
3, 28028, Note_off_c, 1, 57, 100
3, 28032, Note_on_c, 1, 59, 112
3, 28060, Note_off_c, 1, 59, 100
3, 28064, Note_on_c, 1, 57, 112
3, 28092, Note_off_c, 1, 57, 100
3, 28096, Note_on_c, 1, 59, 112
3, 28124, Note_off_c, 1, 59, 100
3, 28320, Note_on_c, 1, 60, 112
3, 28412, Note_off_c, 1, 60, 100
3, 28416, Note_on_c, 1, 62, 112
3, 28444, Note_off_c, 1, 62, 100
3, 28448, Note_on_c, 1, 60, 112
3, 28476, Note_off_c, 1, 60, 100
3, 28480, Note_on_c, 1, 62, 112
3, 28508, Note_off_c, 1, 62, 100
3, 28704, Note_on_c, 1, 64, 112
3, 28796, Note_off_c, 1, 64, 100
3, 28800, Note_on_c, 1, 66, 112
3, 28828, Note_off_c, 1, 66, 100
3, 28832, Note_on_c, 1, 64, 112
3, 28860, Note_off_c, 1, 64, 100
3, 28864, Note_on_c, 1, 66, 112
3, 28892, Note_off_c, 1, 66, 100
3, 29088, Note_on_c, 1, 67, 112
3, 29180, Note_off_c, 1, 67, 100
3, 29184, Note_on_c, 1, 69, 112
3, 29212, Note_off_c, 1, 69, 100
3, 29216, Note_on_c, 1, 67, 112
3, 29244, Note_off_c, 1, 67, 100
3, 29248, Note_on_c, 1, 69, 112
3, 29276, Note_off_c, 1, 69, 100
3, 29472, Note_on_c, 1, 71, 112
3, 29564, Note_off_c, 1, 71, 100
3, 29568, Note_on_c, 1, 73, 112
3, 29596, Note_off_c, 1, 73, 100
3, 29600, Note_on_c, 1, 71, 112
3, 29628, Note_off_c, 1, 71, 100
3, 29632, Note_on_c, 1, 73, 112
3, 29660, Note_off_c, 1, 73, 100
3, 29856, Note_on_c, 1, 74, 112
3, 29948, Note_off_c, 1, 74, 100
3, 29952, Note_on_c, 1, 76, 112
3, 29980, Note_off_c, 1, 76, 100
3, 29984, Note_on_c, 1, 74, 112
3, 30012, Note_off_c, 1, 74, 100
3, 30016, Note_on_c, 1, 76, 112
3, 30044, Note_off_c, 1, 76, 100
3, 30240, Note_on_c, 1, 78, 112
3, 30332, Note_off_c, 1, 78, 100
3, 30336, Note_on_c, 1, 79, 112
3, 30364, Note_off_c, 1, 79, 100
3, 30368, Note_on_c, 1, 78, 112
3, 30396, Note_off_c, 1, 78, 100
3, 30400, Note_on_c, 1, 79, 112
3, 30428, Note_off_c, 1, 79, 100
3, 30624, Note_on_c, 1, 81, 112
3, 30716, Note_off_c, 1, 81, 100
3, 30720, Note_on_c, 1, 83, 112
3, 30748, Note_off_c, 1, 83, 100
3, 30752, Note_on_c, 1, 81, 112
3, 30780, Note_off_c, 1, 81, 100
3, 30784, Note_on_c, 1, 83, 112
3, 30812, Note_off_c, 1, 83, 100
3, 31008, Note_on_c, 1, 74, 112
3, 31100, Note_off_c, 1, 74, 100
3, 31104, Note_on_c, 1, 73, 112
3, 31132, Note_off_c, 1, 73, 100
3, 31136, Note_on_c, 1, 71, 112
3, 31164, Note_off_c, 1, 71, 100
3, 31168, Note_on_c, 1, 73, 112
3, 31196, Note_off_c, 1, 73, 100
3, 31392, Note_on_c, 1, 76, 112
3, 31484, Note_off_c, 1, 76, 100
3, 31488, Note_on_c, 1, 67, 112
3, 31516, Note_off_c, 1, 67, 100
3, 31520, Note_on_c, 1, 66, 112
3, 31548, Note_off_c, 1, 66, 100
3, 31552, Note_on_c, 1, 67, 112
3, 31580, Note_off_c, 1, 67, 100
3, 31776, Note_on_c, 1, 71, 112
3, 31868, Note_off_c, 1, 71, 100
3, 31872, Note_on_c, 1, 69, 112
3, 31900, Note_off_c, 1, 69, 100
3, 31904, Note_on_c, 1, 67, 112
3, 31932, Note_off_c, 1, 67, 100
3, 31936, Note_on_c, 1, 69, 112
3, 31964, Note_off_c, 1, 69, 100
3, 32160, Note_on_c, 1, 67, 112
3, 32252, Note_off_c, 1, 67, 100
3, 32256, Note_on_c, 1, 66, 112
3, 32284, Note_off_c, 1, 66, 100
3, 32288, Note_on_c, 1, 64, 112
3, 32316, Note_off_c, 1, 64, 100
3, 32320, Note_on_c, 1, 66, 112
3, 32348, Note_off_c, 1, 66, 100
3, 32544, Note_on_c, 1, 57, 112
3, 32636, Note_off_c, 1, 57, 100
3, 32640, Note_on_c, 1, 69, 112
3, 32732, Note_off_c, 1, 69, 100
3, 32736, Note_on_c, 1, 67, 112
3, 32828, Note_off_c, 1, 67, 100
3, 32832, Note_on_c, 1, 66, 112
3, 32924, Note_off_c, 1, 66, 100
3, 32928, Note_on_c, 1, 64, 112
3, 33020, Note_off_c, 1, 64, 100
3, 33024, Note_on_c, 1, 62, 112
3, 33116, Note_off_c, 1, 62, 100
3, 33120, Note_on_c, 1, 60, 112
3, 33212, Note_off_c, 1, 60, 100
3, 33216, Note_on_c, 1, 59, 112
3, 33308, Note_off_c, 1, 59, 100
3, 33312, Note_on_c, 1, 57, 112
3, 33404, Note_off_c, 1, 57, 100
3, 33408, Note_on_c, 1, 55, 112
3, 33500, Note_off_c, 1, 55, 100
3, 33504, Note_on_c, 1, 59, 112
3, 33568, Note_off_c, 1, 59, 100
3, 33600, Note_on_c, 1, 62, 112
3, 33692, Note_off_c, 1, 62, 100
3, 33696, Note_on_c, 1, 60, 112
3, 33788, Note_off_c, 1, 60, 100
3, 33792, Note_on_c, 1, 59, 112
3, 33884, Note_off_c, 1, 59, 100
3, 33888, Note_on_c, 1, 57, 112
3, 33980, Note_off_c, 1, 57, 100
3, 33984, Note_on_c, 1, 55, 112
3, 34076, Note_off_c, 1, 55, 100
3, 34080, Note_on_c, 1, 54, 112
3, 34172, Note_off_c, 1, 54, 100
3, 34176, Note_on_c, 1, 52, 112
3, 34268, Note_off_c, 1, 52, 100
3, 34272, Note_on_c, 1, 50, 112
3, 34364, Note_off_c, 1, 50, 100
3, 34368, Note_on_c, 1, 49, 112
3, 34460, Note_off_c, 1, 49, 100
3, 34464, Note_on_c, 1, 47, 112
3, 34556, Note_off_c, 1, 47, 100
3, 34560, Note_on_c, 1, 45, 112
3, 34624, Note_off_c, 1, 45, 100
3, 34656, Note_on_c, 1, 52, 112
3, 34748, Note_off_c, 1, 52, 100
3, 34752, Note_on_c, 1, 55, 112
3, 34844, Note_off_c, 1, 55, 100
3, 34848, Note_on_c, 1, 54, 112
3, 34940, Note_off_c, 1, 54, 100
3, 34944, Note_on_c, 1, 52, 112
3, 35036, Note_off_c, 1, 52, 100
3, 35040, Note_on_c, 1, 50, 112
3, 35132, Note_off_c, 1, 50, 100
3, 35136, Note_on_c, 1, 49, 112
3, 35228, Note_off_c, 1, 49, 100
3, 35232, Note_on_c, 1, 47, 112
3, 35324, Note_off_c, 1, 47, 100
3, 35328, Note_on_c, 1, 45, 112
3, 35420, Note_off_c, 1, 45, 100
3, 35424, Note_on_c, 1, 43, 112
3, 35516, Note_off_c, 1, 43, 100
3, 35520, Note_on_c, 1, 42, 112
3, 35612, Note_off_c, 1, 42, 100
3, 35616, Note_on_c, 1, 40, 112
3, 35708, Note_off_c, 1, 40, 100
3, 35712, Note_on_c, 1, 38, 112
3, 36092, Note_off_c, 1, 38, 100
3, 36192, Note_on_c, 1, 40, 112
3, 36236, Note_off_c, 1, 40, 100
3, 36240, Note_on_c, 1, 42, 112
3, 36284, Note_off_c, 1, 42, 100
3, 36288, Note_on_c, 1, 43, 112
3, 36332, Note_off_c, 1, 43, 100
3, 36336, Note_on_c, 1, 45, 112
3, 36380, Note_off_c, 1, 45, 100
3, 36384, Note_on_c, 1, 47, 112
3, 36428, Note_off_c, 1, 47, 100
3, 36432, Note_on_c, 1, 49, 112
3, 36476, Note_off_c, 1, 49, 100
3, 36480, Note_on_c, 1, 50, 112
3, 36668, Note_off_c, 1, 50, 100
3, 36960, Note_on_c, 1, 38, 112
3, 36960, Note_on_c, 1, 50, 112
3, 36988, Note_off_c, 1, 38, 100
3, 36988, Note_off_c, 1, 50, 100
3, 37056, Note_on_c, 1, 38, 112
3, 37056, Note_on_c, 1, 50, 112
3, 37084, Note_off_c, 1, 38, 100
3, 37084, Note_off_c, 1, 50, 100
3, 37296, Note_on_c, 1, 52, 112
3, 37340, Note_off_c, 1, 52, 100
3, 37344, Note_on_c, 1, 54, 112
3, 37388, Note_off_c, 1, 54, 100
3, 37392, Note_on_c, 1, 55, 112
3, 37436, Note_off_c, 1, 55, 100
3, 37440, Note_on_c, 1, 57, 112
3, 37468, Note_off_c, 1, 57, 100
3, 37680, Note_on_c, 1, 57, 112
3, 37724, Note_off_c, 1, 57, 100
3, 37728, Note_on_c, 1, 59, 112
3, 37772, Note_off_c, 1, 59, 100
3, 37776, Note_on_c, 1, 60, 112
3, 37820, Note_off_c, 1, 60, 100
3, 37824, Note_on_c, 1, 62, 112
3, 37852, Note_off_c, 1, 62, 100
3, 38112, Note_on_c, 1, 43, 112
3, 38112, Note_on_c, 1, 55, 112
3, 38140, Note_off_c, 1, 43, 100
3, 38140, Note_off_c, 1, 55, 100
3, 38208, Note_on_c, 1, 43, 112
3, 38208, Note_on_c, 1, 55, 112
3, 38236, Note_off_c, 1, 43, 100
3, 38236, Note_off_c, 1, 55, 100
3, 38448, Note_on_c, 1, 62, 112
3, 38492, Note_off_c, 1, 62, 100
3, 38496, Note_on_c, 1, 64, 112
3, 38540, Note_off_c, 1, 64, 100
3, 38544, Note_on_c, 1, 66, 112
3, 38588, Note_off_c, 1, 66, 100
3, 38592, Note_on_c, 1, 67, 112
3, 38620, Note_off_c, 1, 67, 100
3, 38832, Note_on_c, 1, 66, 112
3, 38876, Note_off_c, 1, 66, 100
3, 38880, Note_on_c, 1, 67, 112
3, 38924, Note_off_c, 1, 67, 100
3, 38928, Note_on_c, 1, 69, 112
3, 38972, Note_off_c, 1, 69, 100
3, 38976, Note_on_c, 1, 71, 112
3, 39004, Note_off_c, 1, 71, 100
3, 39264, Note_on_c, 1, 64, 112
3, 39264, Note_on_c, 1, 69, 112
3, 39292, Note_off_c, 1, 64, 100
3, 39292, Note_off_c, 1, 69, 100
3, 39360, Note_on_c, 1, 64, 112
3, 39360, Note_on_c, 1, 69, 112
3, 39388, Note_off_c, 1, 64, 100
3, 39388, Note_off_c, 1, 69, 100
3, 39600, Note_on_c, 1, 71, 112
3, 39644, Note_off_c, 1, 71, 100
3, 39648, Note_on_c, 1, 72, 112
3, 39692, Note_off_c, 1, 72, 100
3, 39696, Note_on_c, 1, 74, 112
3, 39740, Note_off_c, 1, 74, 100
3, 39744, Note_on_c, 1, 76, 112
3, 39772, Note_off_c, 1, 76, 100
3, 39984, Note_on_c, 1, 76, 112
3, 40028, Note_off_c, 1, 76, 100
3, 40032, Note_on_c, 1, 78, 112
3, 40076, Note_off_c, 1, 78, 100
3, 40080, Note_on_c, 1, 79, 112
3, 40124, Note_off_c, 1, 79, 100
3, 40128, Note_on_c, 1, 81, 112
3, 40156, Note_off_c, 1, 81, 100
3, 40416, Note_on_c, 1, 81, 112
3, 40416, Note_on_c, 1, 84, 112
3, 40444, Note_off_c, 1, 81, 100
3, 40444, Note_off_c, 1, 84, 100
3, 40512, Note_on_c, 1, 81, 112
3, 40512, Note_on_c, 1, 84, 112
3, 40540, Note_off_c, 1, 81, 100
3, 40540, Note_off_c, 1, 84, 100
3, 40752, Note_on_c, 1, 83, 112
3, 40796, Note_off_c, 1, 83, 100
3, 40800, Note_on_c, 1, 81, 112
3, 40844, Note_off_c, 1, 81, 100
3, 40848, Note_on_c, 1, 79, 112
3, 40892, Note_off_c, 1, 79, 100
3, 40896, Note_on_c, 1, 78, 112
3, 40924, Note_off_c, 1, 78, 100
3, 41136, Note_on_c, 1, 79, 112
3, 41180, Note_off_c, 1, 79, 100
3, 41184, Note_on_c, 1, 78, 112
3, 41228, Note_off_c, 1, 78, 100
3, 41232, Note_on_c, 1, 76, 112
3, 41276, Note_off_c, 1, 76, 100
3, 41280, Note_on_c, 1, 75, 112
3, 41308, Note_off_c, 1, 75, 100
3, 41568, Note_on_c, 1, 76, 112
3, 41660, Note_off_c, 1, 76, 100
3, 41664, Note_on_c, 1, 74, 112
3, 41756, Note_off_c, 1, 74, 100
3, 41760, Note_on_c, 1, 72, 112
3, 41852, Note_off_c, 1, 72, 100
3, 41856, Note_on_c, 1, 71, 112
3, 41948, Note_off_c, 1, 71, 100
3, 41952, Note_on_c, 1, 69, 112
3, 42044, Note_off_c, 1, 69, 100
3, 42048, Note_on_c, 1, 67, 112
3, 42140, Note_off_c, 1, 67, 100
3, 42144, Note_on_c, 1, 66, 112
3, 42236, Note_off_c, 1, 66, 100
3, 42240, Note_on_c, 1, 64, 112
3, 42332, Note_off_c, 1, 64, 100
3, 42336, Note_on_c, 1, 62, 112
3, 42428, Note_off_c, 1, 62, 100
3, 42432, Note_on_c, 1, 60, 112
3, 42524, Note_off_c, 1, 60, 100
3, 42528, Note_on_c, 1, 59, 112
3, 42620, Note_off_c, 1, 59, 100
3, 42624, Note_on_c, 1, 57, 112
3, 42812, Note_off_c, 1, 57, 100
3, 43104, Note_on_c, 1, 56, 112
3, 43196, Note_off_c, 1, 56, 100
3, 43200, Note_on_c, 1, 57, 112
3, 43292, Note_off_c, 1, 57, 100
3, 43296, Note_on_c, 1, 59, 112
3, 43388, Note_off_c, 1, 59, 100
3, 43392, Note_on_c, 1, 60, 112
3, 43484, Note_off_c, 1, 60, 100
3, 43488, Note_on_c, 1, 61, 112
3, 43580, Note_off_c, 1, 61, 100
3, 43584, Note_on_c, 1, 63, 112
3, 43676, Note_off_c, 1, 63, 100
3, 43680, Note_on_c, 1, 64, 112
3, 43772, Note_off_c, 1, 64, 100
3, 43776, Note_on_c, 1, 66, 112
3, 43836, Note_off_c, 1, 66, 100
3, 44064, Note_on_c, 1, 57, 112
3, 44156, Note_off_c, 1, 57, 100
3, 44160, Note_on_c, 1, 55, 112
3, 44220, Note_off_c, 1, 55, 100
3, 44352, Note_on_c, 1, 60, 112
3, 44412, Note_off_c, 1, 60, 100
3, 44544, Note_on_c, 1, 57, 112
3, 44604, Note_off_c, 1, 57, 100
3, 44736, Note_on_c, 1, 59, 112
3, 44796, Note_off_c, 1, 59, 100
3, 44928, Note_on_c, 1, 52, 112
3, 44988, Note_off_c, 1, 52, 100
3, 45168, Note_on_c, 1, 69, 112
3, 45212, Note_off_c, 1, 69, 100
3, 45216, Note_on_c, 1, 67, 112
3, 45260, Note_off_c, 1, 67, 100
3, 45264, Note_on_c, 1, 66, 112
3, 45308, Note_off_c, 1, 66, 100
3, 45312, Note_on_c, 1, 67, 112
3, 45356, Note_off_c, 1, 67, 100
3, 45552, Note_on_c, 1, 60, 112
3, 45596, Note_off_c, 1, 60, 100
3, 45600, Note_on_c, 1, 59, 112
3, 45644, Note_off_c, 1, 59, 100
3, 45648, Note_on_c, 1, 57, 112
3, 45692, Note_off_c, 1, 57, 100
3, 45696, Note_on_c, 1, 59, 112
3, 45740, Note_off_c, 1, 59, 100
3, 45936, Note_on_c, 1, 53, 112
3, 45980, Note_off_c, 1, 53, 100
3, 45984, Note_on_c, 1, 52, 112
3, 46028, Note_off_c, 1, 52, 100
3, 46032, Note_on_c, 1, 50, 112
3, 46076, Note_off_c, 1, 50, 100
3, 46080, Note_on_c, 1, 48, 112
3, 46140, Note_off_c, 1, 48, 100
3, 46560, Note_on_c, 1, 59, 112
3, 46560, Note_on_c, 1, 62, 112
3, 46588, Note_off_c, 1, 59, 100
3, 46652, Note_off_c, 1, 62, 100
3, 46656, Note_on_c, 1, 57, 112
3, 46656, Note_on_c, 1, 60, 112
3, 46684, Note_off_c, 1, 57, 100
3, 46748, Note_off_c, 1, 60, 100
3, 46752, Note_on_c, 1, 55, 112
3, 46752, Note_on_c, 1, 59, 112
3, 46780, Note_off_c, 1, 55, 100
3, 46844, Note_off_c, 1, 59, 100
3, 46848, Note_on_c, 1, 57, 112
3, 46848, Note_on_c, 1, 54, 112
3, 46876, Note_off_c, 1, 57, 100
3, 46940, Note_off_c, 1, 54, 100
3, 46944, Note_on_c, 1, 55, 112
3, 46944, Note_on_c, 1, 52, 112
3, 46972, Note_off_c, 1, 55, 100
3, 47036, Note_off_c, 1, 52, 100
3, 47040, Note_on_c, 1, 54, 112
3, 47040, Note_on_c, 1, 50, 112
3, 47068, Note_off_c, 1, 54, 100
3, 47132, Note_off_c, 1, 50, 100
3, 47136, Note_on_c, 1, 52, 112
3, 47136, Note_on_c, 1, 48, 112
3, 47164, Note_off_c, 1, 52, 100
3, 47228, Note_off_c, 1, 48, 100
3, 47232, Note_on_c, 1, 47, 112
3, 47232, Note_on_c, 1, 50, 112
3, 47292, Note_off_c, 1, 50, 100
3, 47420, Note_off_c, 1, 47, 100
3, 47712, Note_on_c, 1, 48, 112
3, 47712, Note_on_c, 1, 45, 112
3, 47740, Note_off_c, 1, 48, 100
3, 47804, Note_off_c, 1, 45, 100
3, 47808, Note_on_c, 1, 50, 112
3, 47808, Note_on_c, 1, 47, 112
3, 47836, Note_off_c, 1, 50, 100
3, 47900, Note_off_c, 1, 47, 100
3, 47904, Note_on_c, 1, 52, 112
3, 47904, Note_on_c, 1, 48, 112
3, 47932, Note_off_c, 1, 52, 100
3, 47996, Note_off_c, 1, 48, 100
3, 48000, Note_on_c, 1, 54, 112
3, 48000, Note_on_c, 1, 50, 112
3, 48028, Note_off_c, 1, 54, 100
3, 48092, Note_off_c, 1, 50, 100
3, 48096, Note_on_c, 1, 55, 112
3, 48096, Note_on_c, 1, 52, 112
3, 48124, Note_off_c, 1, 55, 100
3, 48188, Note_off_c, 1, 52, 100
3, 48192, Note_on_c, 1, 57, 112
3, 48192, Note_on_c, 1, 54, 112
3, 48220, Note_off_c, 1, 57, 100
3, 48284, Note_off_c, 1, 54, 100
3, 48288, Note_on_c, 1, 59, 112
3, 48288, Note_on_c, 1, 55, 112
3, 48316, Note_off_c, 1, 59, 100
3, 48380, Note_off_c, 1, 55, 100
3, 48384, Note_on_c, 1, 57, 112
3, 48384, Note_on_c, 1, 60, 112
3, 48444, Note_off_c, 1, 57, 100
3, 48444, Note_off_c, 1, 60, 100
3, 48576, Note_on_c, 1, 57, 112
3, 48576, Note_on_c, 1, 60, 112
3, 48636, Note_off_c, 1, 57, 100
3, 48636, Note_off_c, 1, 60, 100
3, 48768, Note_on_c, 1, 57, 112
3, 48768, Note_on_c, 1, 60, 112
3, 48828, Note_off_c, 1, 57, 100
3, 48828, Note_off_c, 1, 60, 100
3, 48960, Note_on_c, 1, 57, 112
3, 48960, Note_on_c, 1, 60, 112
3, 49020, Note_off_c, 1, 57, 100
3, 49020, Note_off_c, 1, 60, 100
3, 49152, Note_on_c, 1, 54, 112
3, 49152, Note_on_c, 1, 57, 112
3, 49212, Note_off_c, 1, 54, 100
3, 49212, Note_off_c, 1, 57, 100
3, 49344, Note_on_c, 1, 54, 112
3, 49344, Note_on_c, 1, 57, 112
3, 49404, Note_off_c, 1, 54, 100
3, 49404, Note_off_c, 1, 57, 100
3, 49536, Note_on_c, 1, 50, 112
3, 49536, Note_on_c, 1, 54, 112
3, 49596, Note_off_c, 1, 50, 100
3, 49596, Note_off_c, 1, 54, 100
3, 49728, Note_on_c, 1, 50, 112
3, 49728, Note_on_c, 1, 54, 112
3, 49788, Note_off_c, 1, 50, 100
3, 49788, Note_off_c, 1, 54, 100
3, 49920, Note_on_c, 1, 50, 112
3, 49920, Note_on_c, 1, 54, 112
3, 49980, Note_off_c, 1, 50, 100
3, 49980, Note_off_c, 1, 54, 100
3, 50112, Note_on_c, 1, 50, 112
3, 50112, Note_on_c, 1, 54, 112
3, 50172, Note_off_c, 1, 50, 100
3, 50172, Note_off_c, 1, 54, 100
3, 50304, Note_on_c, 1, 47, 112
3, 50304, Note_on_c, 1, 50, 112
3, 50364, Note_off_c, 1, 47, 100
3, 50364, Note_off_c, 1, 50, 100
3, 50496, Note_on_c, 1, 47, 112
3, 50496, Note_on_c, 1, 50, 112
3, 50556, Note_off_c, 1, 47, 100
3, 50556, Note_off_c, 1, 50, 100
3, 50688, Note_on_c, 1, 43, 112
3, 50688, Note_on_c, 1, 47, 112
3, 50748, Note_off_c, 1, 43, 100
3, 50748, Note_off_c, 1, 47, 100
3, 50880, Note_on_c, 1, 43, 112
3, 50880, Note_on_c, 1, 47, 112
3, 50940, Note_off_c, 1, 43, 100
3, 50940, Note_off_c, 1, 47, 100
3, 51072, Note_on_c, 1, 43, 112
3, 51072, Note_on_c, 1, 47, 112
3, 51132, Note_off_c, 1, 43, 100
3, 51132, Note_off_c, 1, 47, 100
3, 51264, Note_on_c, 1, 47, 112
3, 51264, Note_on_c, 1, 50, 112
3, 51324, Note_off_c, 1, 47, 100
3, 51324, Note_off_c, 1, 50, 100
3, 51456, Note_on_c, 1, 50, 112
3, 51456, Note_on_c, 1, 53, 112
3, 51516, Note_off_c, 1, 50, 100
3, 51516, Note_off_c, 1, 53, 100
3, 51648, Note_on_c, 1, 53, 112
3, 51648, Note_on_c, 1, 57, 112
3, 51708, Note_off_c, 1, 53, 100
3, 51708, Note_off_c, 1, 57, 100
3, 51840, Note_on_c, 1, 52, 112
3, 51840, Note_on_c, 1, 60, 112
3, 51900, Note_off_c, 1, 52, 100
3, 51900, Note_off_c, 1, 60, 100
3, 52032, Note_on_c, 1, 52, 112
3, 52032, Note_on_c, 1, 60, 112
3, 52092, Note_off_c, 1, 52, 100
3, 52092, Note_off_c, 1, 60, 100
3, 52224, Note_on_c, 1, 52, 112
3, 52224, Note_on_c, 1, 60, 112
3, 52284, Note_off_c, 1, 52, 100
3, 52284, Note_off_c, 1, 60, 100
3, 52416, Note_on_c, 1, 55, 112
3, 52416, Note_on_c, 1, 64, 112
3, 52476, Note_off_c, 1, 55, 100
3, 52476, Note_off_c, 1, 64, 100
3, 52608, Note_on_c, 1, 59, 112
3, 52608, Note_on_c, 1, 67, 112
3, 52668, Note_off_c, 1, 59, 100
3, 52668, Note_off_c, 1, 67, 100
3, 52800, Note_on_c, 1, 62, 112
3, 52800, Note_on_c, 1, 71, 112
3, 52860, Note_off_c, 1, 62, 100
3, 52860, Note_off_c, 1, 71, 100
3, 52992, Note_on_c, 1, 66, 112
3, 52992, Note_on_c, 1, 74, 112
3, 53084, Note_off_c, 1, 66, 100
3, 53084, Note_off_c, 1, 74, 100
3, 53472, Note_on_c, 1, 55, 112
3, 53472, Note_on_c, 1, 64, 112
3, 53500, Note_off_c, 1, 64, 100
3, 53564, Note_off_c, 1, 55, 100
3, 53568, Note_on_c, 1, 54, 112
3, 53568, Note_on_c, 1, 62, 112
3, 53596, Note_off_c, 1, 62, 100
3, 53660, Note_off_c, 1, 54, 100
3, 53664, Note_on_c, 1, 52, 112
3, 53664, Note_on_c, 1, 60, 112
3, 53692, Note_off_c, 1, 60, 100
3, 53756, Note_off_c, 1, 52, 100
3, 53760, Note_on_c, 1, 50, 112
3, 53760, Note_on_c, 1, 59, 112
3, 53788, Note_off_c, 1, 59, 100
3, 53852, Note_off_c, 1, 50, 100
3, 53856, Note_on_c, 1, 48, 112
3, 53856, Note_on_c, 1, 57, 112
3, 53884, Note_off_c, 1, 57, 100
3, 53948, Note_off_c, 1, 48, 100
3, 53952, Note_on_c, 1, 47, 112
3, 53952, Note_on_c, 1, 55, 112
3, 53980, Note_off_c, 1, 55, 100
3, 54044, Note_off_c, 1, 47, 100
3, 54048, Note_on_c, 1, 45, 112
3, 54048, Note_on_c, 1, 54, 112
3, 54076, Note_off_c, 1, 54, 100
3, 54140, Note_off_c, 1, 45, 100
3, 54144, Note_on_c, 1, 55, 112
3, 54144, Note_on_c, 1, 43, 112
3, 54208, Note_off_c, 1, 43, 100
3, 54236, Note_off_c, 1, 55, 100
3, 54240, Note_on_c, 1, 47, 112
3, 54304, Note_off_c, 1, 47, 100
3, 54336, Note_on_c, 1, 48, 112
3, 54336, Note_on_c, 1, 45, 112
3, 54364, Note_off_c, 1, 48, 100
3, 54364, Note_off_c, 1, 45, 100
3, 54432, Note_on_c, 1, 50, 112
3, 54432, Note_on_c, 1, 47, 112
3, 54460, Note_off_c, 1, 50, 100
3, 54460, Note_off_c, 1, 47, 100
3, 54528, Note_on_c, 1, 52, 112
3, 54528, Note_on_c, 1, 48, 112
3, 54556, Note_off_c, 1, 52, 100
3, 54556, Note_off_c, 1, 48, 100
3, 54624, Note_on_c, 1, 54, 112
3, 54624, Note_on_c, 1, 50, 112
3, 54652, Note_off_c, 1, 54, 100
3, 54652, Note_off_c, 1, 50, 100
3, 54720, Note_on_c, 1, 55, 112
3, 54720, Note_on_c, 1, 52, 112
3, 54748, Note_off_c, 1, 55, 100
3, 54748, Note_off_c, 1, 52, 100
3, 54816, Note_on_c, 1, 57, 112
3, 54816, Note_on_c, 1, 54, 112
3, 54844, Note_off_c, 1, 57, 100
3, 54844, Note_off_c, 1, 54, 100
3, 54912, Note_on_c, 1, 59, 112
3, 54912, Note_on_c, 1, 55, 112
3, 55100, Note_off_c, 1, 59, 100
3, 55100, Note_off_c, 1, 55, 100
3, 55392, Note_on_c, 1, 38, 112
3, 55392, Note_on_c, 1, 50, 112
3, 55420, Note_off_c, 1, 38, 100
3, 55420, Note_off_c, 1, 50, 100
3, 55488, Note_on_c, 1, 38, 112
3, 55488, Note_on_c, 1, 50, 112
3, 55516, Note_off_c, 1, 38, 100
3, 55516, Note_off_c, 1, 50, 100
3, 55728, Note_on_c, 1, 52, 112
3, 55772, Note_off_c, 1, 52, 100
3, 55776, Note_on_c, 1, 54, 112
3, 55820, Note_off_c, 1, 54, 100
3, 55824, Note_on_c, 1, 55, 112
3, 55868, Note_off_c, 1, 55, 100
3, 55872, Note_on_c, 1, 57, 112
3, 55900, Note_off_c, 1, 57, 100
3, 56112, Note_on_c, 1, 57, 112
3, 56156, Note_off_c, 1, 57, 100
3, 56160, Note_on_c, 1, 59, 112
3, 56204, Note_off_c, 1, 59, 100
3, 56208, Note_on_c, 1, 60, 112
3, 56252, Note_off_c, 1, 60, 100
3, 56256, Note_on_c, 1, 62, 112
3, 56284, Note_off_c, 1, 62, 100
3, 56544, Note_on_c, 1, 43, 112
3, 56544, Note_on_c, 1, 55, 112
3, 56572, Note_off_c, 1, 43, 100
3, 56572, Note_off_c, 1, 55, 100
3, 56640, Note_on_c, 1, 43, 112
3, 56640, Note_on_c, 1, 55, 112
3, 56668, Note_off_c, 1, 43, 100
3, 56668, Note_off_c, 1, 55, 100
3, 56880, Note_on_c, 1, 62, 112
3, 56924, Note_off_c, 1, 62, 100
3, 56928, Note_on_c, 1, 64, 112
3, 56972, Note_off_c, 1, 64, 100
3, 56976, Note_on_c, 1, 66, 112
3, 57020, Note_off_c, 1, 66, 100
3, 57024, Note_on_c, 1, 67, 112
3, 57052, Note_off_c, 1, 67, 100
3, 57264, Note_on_c, 1, 66, 112
3, 57308, Note_off_c, 1, 66, 100
3, 57312, Note_on_c, 1, 67, 112
3, 57356, Note_off_c, 1, 67, 100
3, 57360, Note_on_c, 1, 69, 112
3, 57404, Note_off_c, 1, 69, 100
3, 57408, Note_on_c, 1, 71, 112
3, 57436, Note_off_c, 1, 71, 100
3, 57696, Note_on_c, 1, 64, 112
3, 57696, Note_on_c, 1, 69, 112
3, 57724, Note_off_c, 1, 64, 100
3, 57724, Note_off_c, 1, 69, 100
3, 57792, Note_on_c, 1, 64, 112
3, 57792, Note_on_c, 1, 69, 112
3, 57820, Note_off_c, 1, 64, 100
3, 57820, Note_off_c, 1, 69, 100
3, 58032, Note_on_c, 1, 71, 112
3, 58076, Note_off_c, 1, 71, 100
3, 58080, Note_on_c, 1, 72, 112
3, 58124, Note_off_c, 1, 72, 100
3, 58128, Note_on_c, 1, 74, 112
3, 58172, Note_off_c, 1, 74, 100
3, 58176, Note_on_c, 1, 76, 112
3, 58204, Note_off_c, 1, 76, 100
3, 58416, Note_on_c, 1, 76, 112
3, 58460, Note_off_c, 1, 76, 100
3, 58464, Note_on_c, 1, 78, 112
3, 58508, Note_off_c, 1, 78, 100
3, 58512, Note_on_c, 1, 79, 112
3, 58556, Note_off_c, 1, 79, 100
3, 58560, Note_on_c, 1, 81, 112
3, 58588, Note_off_c, 1, 81, 100
3, 58848, Note_on_c, 1, 81, 112
3, 58848, Note_on_c, 1, 84, 112
3, 58876, Note_off_c, 1, 81, 100
3, 58876, Note_off_c, 1, 84, 100
3, 58944, Note_on_c, 1, 81, 112
3, 58944, Note_on_c, 1, 84, 112
3, 58972, Note_off_c, 1, 81, 100
3, 58972, Note_off_c, 1, 84, 100
3, 59184, Note_on_c, 1, 83, 112
3, 59228, Note_off_c, 1, 83, 100
3, 59232, Note_on_c, 1, 81, 112
3, 59276, Note_off_c, 1, 81, 100
3, 59280, Note_on_c, 1, 79, 112
3, 59324, Note_off_c, 1, 79, 100
3, 59328, Note_on_c, 1, 78, 112
3, 59356, Note_off_c, 1, 78, 100
3, 59568, Note_on_c, 1, 79, 112
3, 59612, Note_off_c, 1, 79, 100
3, 59616, Note_on_c, 1, 78, 112
3, 59660, Note_off_c, 1, 78, 100
3, 59664, Note_on_c, 1, 76, 112
3, 59708, Note_off_c, 1, 76, 100
3, 59712, Note_on_c, 1, 75, 112
3, 59740, Note_off_c, 1, 75, 100
3, 60000, Note_on_c, 1, 76, 112
3, 60092, Note_off_c, 1, 76, 100
3, 60096, Note_on_c, 1, 74, 112
3, 60188, Note_off_c, 1, 74, 100
3, 60192, Note_on_c, 1, 72, 112
3, 60284, Note_off_c, 1, 72, 100
3, 60288, Note_on_c, 1, 71, 112
3, 60380, Note_off_c, 1, 71, 100
3, 60384, Note_on_c, 1, 69, 112
3, 60476, Note_off_c, 1, 69, 100
3, 60480, Note_on_c, 1, 67, 112
3, 60572, Note_off_c, 1, 67, 100
3, 60576, Note_on_c, 1, 66, 112
3, 60668, Note_off_c, 1, 66, 100
3, 60672, Note_on_c, 1, 64, 112
3, 60764, Note_off_c, 1, 64, 100
3, 60768, Note_on_c, 1, 62, 112
3, 60860, Note_off_c, 1, 62, 100
3, 60864, Note_on_c, 1, 60, 112
3, 60956, Note_off_c, 1, 60, 100
3, 60960, Note_on_c, 1, 59, 112
3, 61052, Note_off_c, 1, 59, 100
3, 61056, Note_on_c, 1, 57, 112
3, 61244, Note_off_c, 1, 57, 100
3, 61536, Note_on_c, 1, 56, 112
3, 61628, Note_off_c, 1, 56, 100
3, 61632, Note_on_c, 1, 57, 112
3, 61724, Note_off_c, 1, 57, 100
3, 61728, Note_on_c, 1, 59, 112
3, 61820, Note_off_c, 1, 59, 100
3, 61824, Note_on_c, 1, 60, 112
3, 61916, Note_off_c, 1, 60, 100
3, 61920, Note_on_c, 1, 61, 112
3, 62012, Note_off_c, 1, 61, 100
3, 62016, Note_on_c, 1, 63, 112
3, 62108, Note_off_c, 1, 63, 100
3, 62112, Note_on_c, 1, 64, 112
3, 62204, Note_off_c, 1, 64, 100
3, 62208, Note_on_c, 1, 66, 112
3, 62268, Note_off_c, 1, 66, 100
3, 62496, Note_on_c, 1, 57, 112
3, 62588, Note_off_c, 1, 57, 100
3, 62592, Note_on_c, 1, 55, 112
3, 62652, Note_off_c, 1, 55, 100
3, 62784, Note_on_c, 1, 60, 112
3, 62844, Note_off_c, 1, 60, 100
3, 62976, Note_on_c, 1, 57, 112
3, 63036, Note_off_c, 1, 57, 100
3, 63168, Note_on_c, 1, 59, 112
3, 63228, Note_off_c, 1, 59, 100
3, 63360, Note_on_c, 1, 52, 112
3, 63420, Note_off_c, 1, 52, 100
3, 63600, Note_on_c, 1, 69, 112
3, 63644, Note_off_c, 1, 69, 100
3, 63648, Note_on_c, 1, 67, 112
3, 63692, Note_off_c, 1, 67, 100
3, 63696, Note_on_c, 1, 66, 112
3, 63740, Note_off_c, 1, 66, 100
3, 63744, Note_on_c, 1, 67, 112
3, 63788, Note_off_c, 1, 67, 100
3, 63984, Note_on_c, 1, 60, 112
3, 64028, Note_off_c, 1, 60, 100
3, 64032, Note_on_c, 1, 59, 112
3, 64076, Note_off_c, 1, 59, 100
3, 64080, Note_on_c, 1, 57, 112
3, 64124, Note_off_c, 1, 57, 100
3, 64128, Note_on_c, 1, 59, 112
3, 64172, Note_off_c, 1, 59, 100
3, 64368, Note_on_c, 1, 53, 112
3, 64412, Note_off_c, 1, 53, 100
3, 64416, Note_on_c, 1, 52, 112
3, 64460, Note_off_c, 1, 52, 100
3, 64464, Note_on_c, 1, 50, 112
3, 64508, Note_off_c, 1, 50, 100
3, 64512, Note_on_c, 1, 48, 112
3, 64572, Note_off_c, 1, 48, 100
3, 64992, Note_on_c, 1, 59, 112
3, 64992, Note_on_c, 1, 62, 112
3, 65020, Note_off_c, 1, 59, 100
3, 65084, Note_off_c, 1, 62, 100
3, 65088, Note_on_c, 1, 57, 112
3, 65088, Note_on_c, 1, 60, 112
3, 65116, Note_off_c, 1, 57, 100
3, 65180, Note_off_c, 1, 60, 100
3, 65184, Note_on_c, 1, 55, 112
3, 65184, Note_on_c, 1, 59, 112
3, 65212, Note_off_c, 1, 55, 100
3, 65276, Note_off_c, 1, 59, 100
3, 65280, Note_on_c, 1, 57, 112
3, 65280, Note_on_c, 1, 54, 112
3, 65308, Note_off_c, 1, 57, 100
3, 65372, Note_off_c, 1, 54, 100
3, 65376, Note_on_c, 1, 55, 112
3, 65376, Note_on_c, 1, 52, 112
3, 65404, Note_off_c, 1, 55, 100
3, 65468, Note_off_c, 1, 52, 100
3, 65472, Note_on_c, 1, 54, 112
3, 65472, Note_on_c, 1, 50, 112
3, 65500, Note_off_c, 1, 54, 100
3, 65564, Note_off_c, 1, 50, 100
3, 65568, Note_on_c, 1, 52, 112
3, 65568, Note_on_c, 1, 48, 112
3, 65596, Note_off_c, 1, 52, 100
3, 65660, Note_off_c, 1, 48, 100
3, 65664, Note_on_c, 1, 47, 112
3, 65664, Note_on_c, 1, 50, 112
3, 65724, Note_off_c, 1, 50, 100
3, 65852, Note_off_c, 1, 47, 100
3, 66144, Note_on_c, 1, 48, 112
3, 66144, Note_on_c, 1, 45, 112
3, 66172, Note_off_c, 1, 48, 100
3, 66236, Note_off_c, 1, 45, 100
3, 66240, Note_on_c, 1, 50, 112
3, 66240, Note_on_c, 1, 47, 112
3, 66268, Note_off_c, 1, 50, 100
3, 66332, Note_off_c, 1, 47, 100
3, 66336, Note_on_c, 1, 52, 112
3, 66336, Note_on_c, 1, 48, 112
3, 66364, Note_off_c, 1, 52, 100
3, 66428, Note_off_c, 1, 48, 100
3, 66432, Note_on_c, 1, 54, 112
3, 66432, Note_on_c, 1, 50, 112
3, 66460, Note_off_c, 1, 54, 100
3, 66524, Note_off_c, 1, 50, 100
3, 66528, Note_on_c, 1, 55, 112
3, 66528, Note_on_c, 1, 52, 112
3, 66556, Note_off_c, 1, 55, 100
3, 66620, Note_off_c, 1, 52, 100
3, 66624, Note_on_c, 1, 57, 112
3, 66624, Note_on_c, 1, 54, 112
3, 66652, Note_off_c, 1, 57, 100
3, 66716, Note_off_c, 1, 54, 100
3, 66720, Note_on_c, 1, 59, 112
3, 66720, Note_on_c, 1, 55, 112
3, 66748, Note_off_c, 1, 59, 100
3, 66812, Note_off_c, 1, 55, 100
3, 66816, Note_on_c, 1, 57, 112
3, 66816, Note_on_c, 1, 60, 112
3, 66876, Note_off_c, 1, 57, 100
3, 66876, Note_off_c, 1, 60, 100
3, 67008, Note_on_c, 1, 57, 112
3, 67008, Note_on_c, 1, 60, 112
3, 67068, Note_off_c, 1, 57, 100
3, 67068, Note_off_c, 1, 60, 100
3, 67200, Note_on_c, 1, 57, 112
3, 67200, Note_on_c, 1, 60, 112
3, 67260, Note_off_c, 1, 57, 100
3, 67260, Note_off_c, 1, 60, 100
3, 67392, Note_on_c, 1, 57, 112
3, 67392, Note_on_c, 1, 60, 112
3, 67452, Note_off_c, 1, 57, 100
3, 67452, Note_off_c, 1, 60, 100
3, 67584, Note_on_c, 1, 54, 112
3, 67584, Note_on_c, 1, 57, 112
3, 67644, Note_off_c, 1, 54, 100
3, 67644, Note_off_c, 1, 57, 100
3, 67776, Note_on_c, 1, 54, 112
3, 67776, Note_on_c, 1, 57, 112
3, 67836, Note_off_c, 1, 54, 100
3, 67836, Note_off_c, 1, 57, 100
3, 67968, Note_on_c, 1, 50, 112
3, 67968, Note_on_c, 1, 54, 112
3, 68028, Note_off_c, 1, 50, 100
3, 68028, Note_off_c, 1, 54, 100
3, 68160, Note_on_c, 1, 50, 112
3, 68160, Note_on_c, 1, 54, 112
3, 68220, Note_off_c, 1, 50, 100
3, 68220, Note_off_c, 1, 54, 100
3, 68352, Note_on_c, 1, 50, 112
3, 68352, Note_on_c, 1, 54, 112
3, 68412, Note_off_c, 1, 50, 100
3, 68412, Note_off_c, 1, 54, 100
3, 68544, Note_on_c, 1, 50, 112
3, 68544, Note_on_c, 1, 54, 112
3, 68604, Note_off_c, 1, 50, 100
3, 68604, Note_off_c, 1, 54, 100
3, 68736, Note_on_c, 1, 47, 112
3, 68736, Note_on_c, 1, 50, 112
3, 68796, Note_off_c, 1, 47, 100
3, 68796, Note_off_c, 1, 50, 100
3, 68928, Note_on_c, 1, 47, 112
3, 68928, Note_on_c, 1, 50, 112
3, 68988, Note_off_c, 1, 47, 100
3, 68988, Note_off_c, 1, 50, 100
3, 69120, Note_on_c, 1, 43, 112
3, 69120, Note_on_c, 1, 47, 112
3, 69180, Note_off_c, 1, 43, 100
3, 69180, Note_off_c, 1, 47, 100
3, 69312, Note_on_c, 1, 43, 112
3, 69312, Note_on_c, 1, 47, 112
3, 69372, Note_off_c, 1, 43, 100
3, 69372, Note_off_c, 1, 47, 100
3, 69504, Note_on_c, 1, 43, 112
3, 69504, Note_on_c, 1, 47, 112
3, 69564, Note_off_c, 1, 43, 100
3, 69564, Note_off_c, 1, 47, 100
3, 69696, Note_on_c, 1, 47, 112
3, 69696, Note_on_c, 1, 50, 112
3, 69756, Note_off_c, 1, 47, 100
3, 69756, Note_off_c, 1, 50, 100
3, 69888, Note_on_c, 1, 50, 112
3, 69888, Note_on_c, 1, 53, 112
3, 69948, Note_off_c, 1, 50, 100
3, 69948, Note_off_c, 1, 53, 100
3, 70080, Note_on_c, 1, 53, 112
3, 70080, Note_on_c, 1, 57, 112
3, 70140, Note_off_c, 1, 53, 100
3, 70140, Note_off_c, 1, 57, 100
3, 70272, Note_on_c, 1, 52, 112
3, 70272, Note_on_c, 1, 60, 112
3, 70332, Note_off_c, 1, 52, 100
3, 70332, Note_off_c, 1, 60, 100
3, 70464, Note_on_c, 1, 52, 112
3, 70464, Note_on_c, 1, 60, 112
3, 70524, Note_off_c, 1, 52, 100
3, 70524, Note_off_c, 1, 60, 100
3, 70656, Note_on_c, 1, 52, 112
3, 70656, Note_on_c, 1, 60, 112
3, 70716, Note_off_c, 1, 52, 100
3, 70716, Note_off_c, 1, 60, 100
3, 70848, Note_on_c, 1, 55, 112
3, 70848, Note_on_c, 1, 64, 112
3, 70908, Note_off_c, 1, 55, 100
3, 70908, Note_off_c, 1, 64, 100
3, 71040, Note_on_c, 1, 59, 112
3, 71040, Note_on_c, 1, 67, 112
3, 71100, Note_off_c, 1, 59, 100
3, 71100, Note_off_c, 1, 67, 100
3, 71232, Note_on_c, 1, 62, 112
3, 71232, Note_on_c, 1, 71, 112
3, 71292, Note_off_c, 1, 62, 100
3, 71292, Note_off_c, 1, 71, 100
3, 71424, Note_on_c, 1, 66, 112
3, 71424, Note_on_c, 1, 74, 112
3, 71516, Note_off_c, 1, 66, 100
3, 71516, Note_off_c, 1, 74, 100
3, 71904, Note_on_c, 1, 55, 112
3, 71904, Note_on_c, 1, 64, 112
3, 71932, Note_off_c, 1, 64, 100
3, 71996, Note_off_c, 1, 55, 100
3, 72000, Note_on_c, 1, 54, 112
3, 72000, Note_on_c, 1, 62, 112
3, 72028, Note_off_c, 1, 62, 100
3, 72092, Note_off_c, 1, 54, 100
3, 72096, Note_on_c, 1, 52, 112
3, 72096, Note_on_c, 1, 60, 112
3, 72124, Note_off_c, 1, 60, 100
3, 72188, Note_off_c, 1, 52, 100
3, 72192, Note_on_c, 1, 50, 112
3, 72192, Note_on_c, 1, 59, 112
3, 72220, Note_off_c, 1, 59, 100
3, 72284, Note_off_c, 1, 50, 100
3, 72288, Note_on_c, 1, 48, 112
3, 72288, Note_on_c, 1, 57, 112
3, 72316, Note_off_c, 1, 57, 100
3, 72380, Note_off_c, 1, 48, 100
3, 72384, Note_on_c, 1, 47, 112
3, 72384, Note_on_c, 1, 55, 112
3, 72412, Note_off_c, 1, 55, 100
3, 72476, Note_off_c, 1, 47, 100
3, 72480, Note_on_c, 1, 45, 112
3, 72480, Note_on_c, 1, 54, 112
3, 72508, Note_off_c, 1, 54, 100
3, 72572, Note_off_c, 1, 45, 100
3, 72576, Note_on_c, 1, 55, 112
3, 72576, Note_on_c, 1, 43, 112
3, 72640, Note_off_c, 1, 43, 100
3, 72668, Note_off_c, 1, 55, 100
3, 72672, Note_on_c, 1, 47, 112
3, 72736, Note_off_c, 1, 47, 100
3, 72768, Note_on_c, 1, 48, 112
3, 72768, Note_on_c, 1, 45, 112
3, 72796, Note_off_c, 1, 48, 100
3, 72796, Note_off_c, 1, 45, 100
3, 72864, Note_on_c, 1, 50, 112
3, 72864, Note_on_c, 1, 47, 112
3, 72892, Note_off_c, 1, 50, 100
3, 72892, Note_off_c, 1, 47, 100
3, 72960, Note_on_c, 1, 52, 112
3, 72960, Note_on_c, 1, 48, 112
3, 72988, Note_off_c, 1, 52, 100
3, 72988, Note_off_c, 1, 48, 100
3, 73056, Note_on_c, 1, 54, 112
3, 73056, Note_on_c, 1, 50, 112
3, 73084, Note_off_c, 1, 54, 100
3, 73084, Note_off_c, 1, 50, 100
3, 73152, Note_on_c, 1, 55, 112
3, 73152, Note_on_c, 1, 52, 112
3, 73180, Note_off_c, 1, 55, 100
3, 73180, Note_off_c, 1, 52, 100
3, 73248, Note_on_c, 1, 57, 112
3, 73248, Note_on_c, 1, 54, 112
3, 73276, Note_off_c, 1, 57, 100
3, 73276, Note_off_c, 1, 54, 100
3, 73344, Note_on_c, 1, 55, 1
3, 73344, Note_on_c, 1, 55, 112
3, 73344, Note_on_c, 1, 59, 112
3, 73532, Note_off_c, 1, 55, 100
3, 73532, Note_off_c, 1, 59, 100
3, 74300, Note_off_c, 1, 55, 100
3, 74300, End_track
4, 0, Start_track
4, 0, Title_t, "BWV 988"
4, 0, Control_c, 2, 0, 0
4, 0, Program_c, 2, 6
4, 0, Control_c, 2, 7, 0
4, 0, Key_signature, 1, "major"
4, 0, End_track
5, 0, Start_track
5, 0, Title_t, "Var.XXIII: Allegro moderato"
5, 0, Control_c, 2, 0, 0
5, 0, Program_c, 2, 6
5, 0, Control_c, 2, 7, 0
5, 0, Key_signature, 1, "major"
5, 0, End_track
6, 0, Start_track
6, 0, Title_t, "Bruno de Giusti"
6, 0, Control_c, 2, 0, 0
6, 0, Program_c, 2, 6
6, 0, Control_c, 2, 7, 0
6, 0, Key_signature, 1, "major"
6, 0, End_track
7, 0, Start_track
7, 0, Title_t, "bdg@bruno-de-giusti.net"
7, 0, Control_c, 2, 0, 0
7, 0, Program_c, 2, 6
7, 0, Control_c, 2, 7, 0
7, 0, Key_signature, 1, "major"
7, 0, End_track
8, 0, Start_track
8, 0, Title_t, "www.bruno-de-giusti.net"
8, 0, Control_c, 2, 0, 0
8, 0, Program_c, 2, 6
8, 0, Control_c, 2, 7, 0
8, 0, Key_signature, 1, "major"
8, 0, End_track
9, 0, Start_track
9, 0, Title_t, "All rights reserved"
9, 0, Control_c, 2, 0, 0
9, 0, Program_c, 2, 6
9, 0, Control_c, 2, 7, 0
9, 0, Key_signature, 1, "major"
9, 0, End_track
10, 0, Start_track
10, 0, End_track
11, 0, Start_track
11, 0, End_track
12, 0, Start_track
12, 0, End_track
13, 0, Start_track
13, 0, End_track
14, 0, Start_track
14, 0, End_track
15, 0, Start_track
15, 0, End_track
16, 0, Start_track
16, 0, End_track
17, 0, Start_track
17, 0, End_track
18, 0, Start_track
18, 0, End_track
19, 0, Start_track
19, 0, End_track
20, 0, Start_track
20, 0, End_track
21, 0, Start_track
21, 1, Copyright_t, "___________________________________________________\012\012KUNSTDERFUGE.COM LARGE CLASSICAL MIDI COLLECTION\012ONCLASSICAL BY ALESSANDRO SIMONETTO, PROPRIETOR\012___________________________________________________\012\012! Attention: this file is under copyright !\012\012(c)onclassical, (c)degiusti, 2010\012___________________________________________________\012\012NO ONE MAY REPUBLISH THIS FILE WITHOUT PERMISSION\012COMMERCIAL USES OF THIS FILE IS STRICTLY PROHIBITED\012___________________________________________________\012\012Files & contributor's list: http://kunstderfuge.com/\012Terms and conditions: http://kunstderfuge.com/notes.htm"
21, 1, End_track
0, 0, End_of_file