0, 0, Header, 1, 1, 480
1, 0, Start_track
1, 0, Sequence_number, 0
1, 0, Title_t, "sinfonien15"
1, 0, Channel_prefix, 0
1, 0, Instrument_name_t, "15-1"
1, 0, Program_c, 0, 0
1, 0, Tempo, 1304347
1, 0, Time_signature, 4, 2, 24, 24
1, 0, Key_signature, 0, "major"
1, 0, Note_on_c, 0, 71, 90
1, 120, Note_off_c, 0, 71, 0
1, 120, Note_on_c, 0, 66, 90
1, 240, Note_off_c, 0, 66, 0
1, 360, Note_on_c, 0, 67, 90
1, 480, Note_off_c, 0, 67, 0
1, 480, Note_on_c, 0, 66, 90
1, 600, Note_off_c, 0, 66, 0
1, 720, Note_on_c, 0, 71, 90
1, 840, Note_off_c, 0, 71, 0
1, 840, Note_on_c, 0, 66, 90
1, 960, Note_off_c, 0, 66, 0
1, 960, Note_on_c, 0, 66, 90
1, 1080, Note_off_c, 0, 66, 0
1, 1080, Note_on_c, 0, 73, 90
1, 1200, Note_off_c, 0, 73, 0
1, 1200, Note_on_c, 0, 66, 90
1, 1320, Note_off_c, 0, 66, 0
1, 1320, Note_on_c, 0, 66, 90
1, 1440, Note_off_c, 0, 66, 0
1, 1440, Note_on_c, 0, 67, 90
1, 1560, Note_off_c, 0, 67, 0
1, 1560, Note_on_c, 0, 66, 90
1, 1680, Note_off_c, 0, 66, 0
1, 1680, Note_on_c, 0, 66, 90
1, 1800, Note_off_c, 0, 66, 0
1, 1800, Note_on_c, 0, 73, 90
1, 1920, Note_off_c, 0, 73, 0
1, 1920, Note_on_c, 0, 66, 90
1, 2040, Note_off_c, 0, 66, 0
1, 2040, Note_on_c, 0, 66, 90
1, 2160, Note_off_c, 0, 66, 0
1, 2160, Note_on_c, 0, 74, 90
1, 2220, Note_off_c, 0, 74, 0
1, 2220, Note_on_c, 0, 71, 90
1, 2280, Note_off_c, 0, 71, 0
1, 2280, Note_on_c, 0, 74, 90
1, 2340, Note_off_c, 0, 74, 0
1, 2340, Note_on_c, 0, 78, 90
1, 2400, Note_off_c, 0, 78, 0
1, 2400, Note_on_c, 0, 83, 90
1, 2460, Note_off_c, 0, 83, 0
1, 2460, Note_on_c, 0, 78, 90
1, 2520, Note_off_c, 0, 78, 0
1, 2520, Note_on_c, 0, 74, 90
1, 2580, Note_off_c, 0, 74, 0
1, 2580, Note_on_c, 0, 78, 90
1, 2640, Note_off_c, 0, 78, 0
1, 2640, Note_on_c, 0, 74, 90
1, 2700, Note_off_c, 0, 74, 0
1, 2700, Note_on_c, 0, 71, 90
1, 2760, Note_off_c, 0, 71, 0
1, 2760, Note_on_c, 0, 74, 90
1, 2820, Note_off_c, 0, 74, 0
1, 2820, Note_on_c, 0, 71, 90
1, 2880, Note_off_c, 0, 71, 0
1, 2880, Note_on_c, 0, 66, 90
1, 2940, Note_off_c, 0, 66, 0
1, 2940, Note_on_c, 0, 71, 90
1, 3000, Note_off_c, 0, 71, 0
1, 3000, Note_on_c, 0, 66, 90
1, 3060, Note_off_c, 0, 66, 0
1, 3060, Note_on_c, 0, 62, 90
1, 3120, Note_off_c, 0, 62, 0
1, 3120, Note_on_c, 0, 66, 90
1, 3180, Note_off_c, 0, 66, 0
1, 3180, Note_on_c, 0, 62, 90
1, 3240, Note_off_c, 0, 62, 0
1, 3240, Note_on_c, 0, 59, 90
1, 3360, Note_off_c, 0, 59, 0
1, 3720, Note_on_c, 0, 71, 90
1, 3840, Note_off_c, 0, 71, 0
1, 3840, Note_on_c, 0, 73, 90
1, 3960, Note_off_c, 0, 73, 0
1, 3960, Note_on_c, 0, 74, 90
1, 4080, Note_off_c, 0, 74, 0
1, 4080, Note_on_c, 0, 73, 90
1, 4200, Note_off_c, 0, 73, 0
1, 4200, Note_on_c, 0, 71, 90
1, 4320, Note_off_c, 0, 71, 0
1, 4320, Note_on_c, 0, 70, 90
1, 4800, Note_off_c, 0, 70, 0
1, 4800, Note_on_c, 0, 71, 90
1, 4920, Note_off_c, 0, 71, 0
1, 4920, Note_on_c, 0, 73, 90
1, 5040, Note_off_c, 0, 73, 0
1, 5040, Note_on_c, 0, 71, 90
1, 5160, Note_off_c, 0, 71, 0
1, 5160, Note_on_c, 0, 73, 90
1, 5280, Note_off_c, 0, 73, 0
1, 5280, Note_on_c, 0, 70, 90
1, 5400, Note_off_c, 0, 70, 0
1, 5400, Note_on_c, 0, 71, 90
1, 5460, Note_off_c, 0, 71, 0
1, 5460, Note_on_c, 0, 66, 90
1, 5520, Note_off_c, 0, 66, 0
1, 5520, Note_on_c, 0, 71, 90
1, 5580, Note_off_c, 0, 71, 0
1, 5580, Note_on_c, 0, 74, 90
1, 5640, Note_off_c, 0, 74, 0
1, 5640, Note_on_c, 0, 78, 90
1, 5700, Note_off_c, 0, 78, 0
1, 5700, Note_on_c, 0, 74, 90
1, 5760, Note_off_c, 0, 74, 0
1, 5760, Note_on_c, 0, 71, 90
1, 5820, Note_off_c, 0, 71, 0
1, 5820, Note_on_c, 0, 74, 90
1, 5880, Note_off_c, 0, 74, 0
1, 5880, Note_on_c, 0, 71, 90
1, 5940, Note_off_c, 0, 71, 0
1, 5940, Note_on_c, 0, 66, 90
1, 6000, Note_off_c, 0, 66, 0
1, 6000, Note_on_c, 0, 71, 90
1, 6060, Note_off_c, 0, 71, 0
1, 6060, Note_on_c, 0, 66, 90
1, 6120, Note_off_c, 0, 66, 0
1, 6120, Note_on_c, 0, 62, 90
1, 6180, Note_off_c, 0, 62, 0
1, 6180, Note_on_c, 0, 66, 90
1, 6240, Note_off_c, 0, 66, 0
1, 6240, Note_on_c, 0, 62, 90
1, 6300, Note_off_c, 0, 62, 0
1, 6300, Note_on_c, 0, 59, 90
1, 6360, Note_off_c, 0, 59, 0
1, 6360, Note_on_c, 0, 62, 90
1, 6420, Note_off_c, 0, 62, 0
1, 6420, Note_on_c, 0, 59, 90
1, 6480, Note_off_c, 0, 59, 0
1, 6480, Note_on_c, 0, 74, 90
1, 7680, Note_off_c, 0, 74, 0
1, 7680, Note_on_c, 0, 71, 90
1, 7800, Note_off_c, 0, 71, 0
1, 7800, Note_on_c, 0, 71, 90
1, 7920, Note_off_c, 0, 71, 0
1, 7920, Note_on_c, 0, 73, 90
1, 8040, Note_off_c, 0, 73, 0
1, 8040, Note_on_c, 0, 71, 90
1, 8160, Note_off_c, 0, 71, 0
1, 8160, Note_on_c, 0, 71, 90
1, 8280, Note_off_c, 0, 71, 0
1, 8280, Note_on_c, 0, 76, 90
1, 8400, Note_off_c, 0, 76, 0
1, 8400, Note_on_c, 0, 71, 90
1, 8520, Note_off_c, 0, 71, 0
1, 8640, Note_on_c, 0, 73, 90
1, 9840, Note_off_c, 0, 73, 0
1, 9840, Note_on_c, 0, 69, 90
1, 9960, Note_off_c, 0, 69, 0
1, 9960, Note_on_c, 0, 69, 90
1, 10080, Note_off_c, 0, 69, 0
1, 10080, Note_on_c, 0, 71, 90
1, 10200, Note_off_c, 0, 71, 0
1, 10200, Note_on_c, 0, 69, 90
1, 10320, Note_off_c, 0, 69, 0
1, 10320, Note_on_c, 0, 69, 90
1, 10440, Note_off_c, 0, 69, 0
1, 10440, Note_on_c, 0, 74, 90
1, 10560, Note_off_c, 0, 74, 0
1, 10560, Note_on_c, 0, 69, 90
1, 10680, Note_off_c, 0, 69, 0
1, 10800, Note_on_c, 0, 71, 90
1, 10860, Note_off_c, 0, 71, 0
1, 10860, Note_on_c, 0, 74, 90
1, 10920, Note_off_c, 0, 74, 0
1, 10920, Note_on_c, 0, 71, 90
1, 10980, Note_off_c, 0, 71, 0
1, 10980, Note_on_c, 0, 67, 90
1, 11040, Note_off_c, 0, 67, 0
1, 11040, Note_on_c, 0, 71, 90
1, 11100, Note_off_c, 0, 71, 0
1, 11100, Note_on_c, 0, 67, 90
1, 11160, Note_off_c, 0, 67, 0
1, 11160, Note_on_c, 0, 64, 90
1, 11520, Note_off_c, 0, 64, 0
1, 11520, Note_on_c, 0, 76, 90
1, 11580, Note_off_c, 0, 76, 0
1, 11580, Note_on_c, 0, 79, 90
1, 11640, Note_off_c, 0, 79, 0
1, 11640, Note_on_c, 0, 76, 90
1, 11700, Note_off_c, 0, 76, 0
1, 11700, Note_on_c, 0, 73, 90
1, 11760, Note_off_c, 0, 73, 0
1, 11760, Note_on_c, 0, 76, 90
1, 11820, Note_off_c, 0, 76, 0
1, 11820, Note_on_c, 0, 73, 90
1, 11880, Note_off_c, 0, 73, 0
1, 11880, Note_on_c, 0, 69, 90
1, 11940, Note_off_c, 0, 69, 0
1, 11940, Note_on_c, 0, 73, 90
1, 12000, Note_off_c, 0, 73, 0
1, 12000, Note_on_c, 0, 69, 90
1, 12060, Note_off_c, 0, 69, 0
1, 12060, Note_on_c, 0, 66, 90
1, 12120, Note_off_c, 0, 66, 0
1, 12120, Note_on_c, 0, 69, 90
1, 12180, Note_off_c, 0, 69, 0
1, 12180, Note_on_c, 0, 66, 90
1, 12240, Note_off_c, 0, 66, 0
1, 12240, Note_on_c, 0, 62, 90
1, 12600, Note_off_c, 0, 62, 0
1, 12600, Note_on_c, 0, 74, 90
1, 12660, Note_off_c, 0, 74, 0
1, 12660, Note_on_c, 0, 78, 90
1, 12720, Note_off_c, 0, 78, 0
1, 12720, Note_on_c, 0, 74, 90
1, 12780, Note_off_c, 0, 74, 0
1, 12780, Note_on_c, 0, 71, 90
1, 12840, Note_off_c, 0, 71, 0
1, 12840, Note_on_c, 0, 74, 90
1, 12900, Note_off_c, 0, 74, 0
1, 12900, Note_on_c, 0, 71, 90
1, 12960, Note_off_c, 0, 71, 0
1, 12960, Note_on_c, 0, 67, 90
1, 13020, Note_off_c, 0, 67, 0
1, 13020, Note_on_c, 0, 71, 90
1, 13080, Note_off_c, 0, 71, 0
1, 13080, Note_on_c, 0, 67, 90
1, 13140, Note_off_c, 0, 67, 0
1, 13140, Note_on_c, 0, 64, 90
1, 13200, Note_off_c, 0, 64, 0
1, 13200, Note_on_c, 0, 67, 90
1, 13260, Note_off_c, 0, 67, 0
1, 13260, Note_on_c, 0, 64, 90
1, 13320, Note_off_c, 0, 64, 0
1, 13320, Note_on_c, 0, 61, 90
1, 13380, Note_off_c, 0, 61, 0
1, 13380, Note_on_c, 0, 64, 90
1, 13440, Note_off_c, 0, 64, 0
1, 13440, Note_on_c, 0, 61, 90
1, 13500, Note_off_c, 0, 61, 0
1, 13500, Note_on_c, 0, 57, 90
1, 13560, Note_off_c, 0, 57, 0
1, 13560, Note_on_c, 0, 61, 90
1, 13620, Note_off_c, 0, 61, 0
1, 13620, Note_on_c, 0, 57, 90
1, 13680, Note_off_c, 0, 57, 0
1, 13680, Note_on_c, 0, 69, 90
1, 13800, Note_off_c, 0, 69, 0
1, 13800, Note_on_c, 0, 66, 90
1, 13920, Note_off_c, 0, 66, 0
1, 13920, Note_on_c, 0, 67, 90
1, 14040, Note_off_c, 0, 67, 0
1, 14040, Note_on_c, 0, 66, 90
1, 14400, Note_off_c, 0, 66, 0
1, 17280, Note_on_c, 0, 69, 90
1, 17400, Note_off_c, 0, 69, 0
1, 17400, Note_on_c, 0, 64, 90
1, 17520, Note_off_c, 0, 64, 0
1, 17520, Note_on_c, 0, 64, 90
1, 17640, Note_off_c, 0, 64, 0
1, 17640, Note_on_c, 0, 66, 90
1, 17760, Note_off_c, 0, 66, 0
1, 17760, Note_on_c, 0, 64, 90
1, 17880, Note_off_c, 0, 64, 0
1, 17880, Note_on_c, 0, 64, 90
1, 18000, Note_off_c, 0, 64, 0
1, 18000, Note_on_c, 0, 69, 90
1, 18120, Note_off_c, 0, 69, 0
1, 18120, Note_on_c, 0, 64, 90
1, 18240, Note_off_c, 0, 64, 0
1, 18360, Note_on_c, 0, 71, 90
1, 18480, Note_off_c, 0, 71, 0
1, 18480, Note_on_c, 0, 64, 90
1, 18600, Note_off_c, 0, 64, 0
1, 18600, Note_on_c, 0, 64, 90
1, 18720, Note_off_c, 0, 64, 0
1, 18720, Note_on_c, 0, 66, 90
1, 18840, Note_off_c, 0, 66, 0
1, 18840, Note_on_c, 0, 64, 90
1, 18960, Note_off_c, 0, 64, 0
1, 18960, Note_on_c, 0, 64, 90
1, 19080, Note_off_c, 0, 64, 0
1, 19080, Note_on_c, 0, 71, 90
1, 19200, Note_off_c, 0, 71, 0
1, 19200, Note_on_c, 0, 64, 90
1, 19320, Note_off_c, 0, 64, 0
1, 19440, Note_on_c, 0, 73, 90
1, 19500, Note_off_c, 0, 73, 0
1, 19500, Note_on_c, 0, 69, 90
1, 19560, Note_off_c, 0, 69, 0
1, 19560, Note_on_c, 0, 73, 90
1, 19620, Note_off_c, 0, 73, 0
1, 19620, Note_on_c, 0, 76, 90
1, 19680, Note_off_c, 0, 76, 0
1, 19680, Note_on_c, 0, 81, 90
1, 19740, Note_off_c, 0, 81, 0
1, 19740, Note_on_c, 0, 78, 90
1, 19800, Note_off_c, 0, 78, 0
1, 19800, Note_on_c, 0, 75, 90
1, 19860, Note_off_c, 0, 75, 0
1, 19860, Note_on_c, 0, 78, 90
1, 19920, Note_off_c, 0, 78, 0
1, 19920, Note_on_c, 0, 75, 90
1, 19980, Note_off_c, 0, 75, 0
1, 19980, Note_on_c, 0, 71, 90
1, 20040, Note_off_c, 0, 71, 0
1, 20040, Note_on_c, 0, 75, 90
1, 20100, Note_off_c, 0, 75, 0
1, 20100, Note_on_c, 0, 71, 90
1, 20160, Note_off_c, 0, 71, 0
1, 20160, Note_on_c, 0, 66, 90
1, 20220, Note_off_c, 0, 66, 0
1, 20220, Note_on_c, 0, 71, 90
1, 20280, Note_off_c, 0, 71, 0
1, 20280, Note_on_c, 0, 66, 90
1, 20340, Note_off_c, 0, 66, 0
1, 20340, Note_on_c, 0, 63, 90
1, 20400, Note_off_c, 0, 63, 0
1, 20400, Note_on_c, 0, 66, 90
1, 20460, Note_off_c, 0, 66, 0
1, 20460, Note_on_c, 0, 63, 90
1, 20520, Note_off_c, 0, 63, 0
1, 20520, Note_on_c, 0, 64, 90
1, 20880, Note_off_c, 0, 64, 0
1, 21240, Note_on_c, 0, 67, 90
1, 21720, Note_off_c, 0, 67, 0
1, 21720, Note_on_c, 0, 64, 90
1, 21840, Note_off_c, 0, 64, 0
1, 21840, Note_on_c, 0, 64, 90
1, 21960, Note_off_c, 0, 64, 0
1, 21960, Note_on_c, 0, 66, 90
1, 22080, Note_off_c, 0, 66, 0
1, 22080, Note_on_c, 0, 64, 90
1, 22200, Note_off_c, 0, 64, 0
1, 22200, Note_on_c, 0, 64, 90
1, 22320, Note_off_c, 0, 64, 0
1, 22320, Note_on_c, 0, 69, 90
1, 22440, Note_off_c, 0, 69, 0
1, 22440, Note_on_c, 0, 64, 90
1, 22560, Note_off_c, 0, 64, 0
1, 22680, Note_on_c, 0, 66, 90
1, 23880, Note_off_c, 0, 66, 0
1, 23880, Note_on_c, 0, 62, 90
1, 24000, Note_off_c, 0, 62, 0
1, 24000, Note_on_c, 0, 62, 90
1, 24120, Note_off_c, 0, 62, 0
1, 24120, Note_on_c, 0, 64, 90
1, 24240, Note_off_c, 0, 64, 0
1, 24240, Note_on_c, 0, 62, 90
1, 24360, Note_off_c, 0, 62, 0
1, 24360, Note_on_c, 0, 62, 90
1, 24480, Note_off_c, 0, 62, 0
1, 24480, Note_on_c, 0, 67, 90
1, 24600, Note_off_c, 0, 67, 0
1, 24600, Note_on_c, 0, 62, 90
1, 24720, Note_off_c, 0, 62, 0
1, 24840, Note_on_c, 0, 64, 90
1, 26040, Note_off_c, 0, 64, 0
1, 26040, Note_on_c, 0, 61, 90
1, 26160, Note_off_c, 0, 61, 0
1, 26160, Note_on_c, 0, 61, 90
1, 26280, Note_off_c, 0, 61, 0
1, 26280, Note_on_c, 0, 62, 90
1, 26400, Note_off_c, 0, 62, 0
1, 26400, Note_on_c, 0, 61, 90
1, 26520, Note_off_c, 0, 61, 0
1, 26520, Note_on_c, 0, 61, 90
1, 26640, Note_off_c, 0, 61, 0
1, 26640, Note_on_c, 0, 66, 90
1, 26760, Note_off_c, 0, 66, 0
1, 26760, Note_on_c, 0, 61, 90
1, 26880, Note_off_c, 0, 61, 0
1, 27000, Note_on_c, 0, 62, 90
1, 27060, Note_off_c, 0, 62, 0
1, 27060, Note_on_c, 0, 59, 90
1, 27120, Note_off_c, 0, 59, 0
1, 27120, Note_on_c, 0, 62, 90
1, 27180, Note_off_c, 0, 62, 0
1, 27180, Note_on_c, 0, 66, 90
1, 27240, Note_off_c, 0, 66, 0
1, 27240, Note_on_c, 0, 62, 90
1, 27300, Note_off_c, 0, 62, 0
1, 27300, Note_on_c, 0, 66, 90
1, 27360, Note_off_c, 0, 66, 0
1, 27360, Note_on_c, 0, 71, 90
1, 27420, Note_off_c, 0, 71, 0
1, 27420, Note_on_c, 0, 66, 90
1, 27480, Note_off_c, 0, 66, 0
1, 27480, Note_on_c, 0, 71, 90
1, 27540, Note_off_c, 0, 71, 0
1, 27540, Note_on_c, 0, 74, 90
1, 27600, Note_off_c, 0, 74, 0
1, 27600, Note_on_c, 0, 71, 90
1, 27660, Note_off_c, 0, 71, 0
1, 27660, Note_on_c, 0, 74, 90
1, 27720, Note_off_c, 0, 74, 0
1, 27720, Note_on_c, 0, 79, 90
1, 28080, Note_off_c, 0, 79, 0
1, 28080, Note_on_c, 0, 61, 90
1, 28140, Note_off_c, 0, 61, 0
1, 28140, Note_on_c, 0, 57, 90
1, 28200, Note_off_c, 0, 57, 0
1, 28200, Note_on_c, 0, 61, 90
1, 28260, Note_off_c, 0, 61, 0
1, 28260, Note_on_c, 0, 64, 90
1, 28320, Note_off_c, 0, 64, 0
1, 28320, Note_on_c, 0, 61, 90
1, 28380, Note_off_c, 0, 61, 0
1, 28380, Note_on_c, 0, 64, 90
1, 28440, Note_off_c, 0, 64, 0
1, 28440, Note_on_c, 0, 69, 90
1, 28500, Note_off_c, 0, 69, 0
1, 28500, Note_on_c, 0, 64, 90
1, 28560, Note_off_c, 0, 64, 0
1, 28560, Note_on_c, 0, 69, 90
1, 28620, Note_off_c, 0, 69, 0
1, 28620, Note_on_c, 0, 73, 90
1, 28680, Note_off_c, 0, 73, 0
1, 28680, Note_on_c, 0, 69, 90
1, 28740, Note_off_c, 0, 69, 0
1, 28740, Note_on_c, 0, 73, 90
1, 28800, Note_off_c, 0, 73, 0
1, 28800, Note_on_c, 0, 78, 90
1, 29160, Note_off_c, 0, 78, 0
1, 29160, Note_on_c, 0, 59, 90
1, 29220, Note_off_c, 0, 59, 0
1, 29220, Note_on_c, 0, 55, 90
1, 29280, Note_off_c, 0, 55, 0
1, 29280, Note_on_c, 0, 59, 90
1, 29340, Note_off_c, 0, 59, 0
1, 29340, Note_on_c, 0, 62, 90
1, 29400, Note_off_c, 0, 62, 0
1, 29400, Note_on_c, 0, 59, 90
1, 29460, Note_off_c, 0, 59, 0
1, 29460, Note_on_c, 0, 62, 90
1, 29520, Note_off_c, 0, 62, 0
1, 29520, Note_on_c, 0, 67, 90
1, 29580, Note_off_c, 0, 67, 0
1, 29580, Note_on_c, 0, 62, 90
1, 29640, Note_off_c, 0, 62, 0
1, 29640, Note_on_c, 0, 67, 90
1, 29700, Note_off_c, 0, 67, 0
1, 29700, Note_on_c, 0, 71, 90
1, 29760, Note_off_c, 0, 71, 0
1, 29760, Note_on_c, 0, 67, 90
1, 29820, Note_off_c, 0, 67, 0
1, 29820, Note_on_c, 0, 71, 90
1, 29880, Note_off_c, 0, 71, 0
1, 29880, Note_on_c, 0, 76, 90
1, 30360, Note_off_c, 0, 76, 0
1, 30360, Note_on_c, 0, 66, 90
1, 30480, Note_off_c, 0, 66, 0
1, 30480, Note_on_c, 0, 66, 90
1, 30600, Note_off_c, 0, 66, 0
1, 30600, Note_on_c, 0, 67, 90
1, 30720, Note_off_c, 0, 67, 0
1, 30720, Note_on_c, 0, 66, 90
1, 30840, Note_off_c, 0, 66, 0
1, 30840, Note_on_c, 0, 66, 90
1, 30960, Note_off_c, 0, 66, 0
1, 30960, Note_on_c, 0, 76, 90
1, 31080, Note_off_c, 0, 76, 0
1, 31080, Note_on_c, 0, 66, 90
1, 31200, Note_off_c, 0, 66, 0
1, 31200, Note_on_c, 0, 66, 90
1, 31320, Note_off_c, 0, 66, 0
1, 31320, Note_on_c, 0, 74, 90
1, 32520, Note_off_c, 0, 74, 0
1, 32520, Note_on_c, 0, 71, 90
1, 32640, Note_off_c, 0, 71, 0
1, 32640, Note_on_c, 0, 71, 90
1, 32760, Note_off_c, 0, 71, 0
1, 32760, Note_on_c, 0, 72, 90
1, 32880, Note_off_c, 0, 72, 0
1, 32880, Note_on_c, 0, 71, 90
1, 33000, Note_off_c, 0, 71, 0
1, 33120, Note_on_c, 0, 79, 90
1, 33240, Note_off_c, 0, 79, 0
1, 33240, Note_on_c, 0, 71, 90
1, 33360, Note_off_c, 0, 71, 0
1, 33360, Note_on_c, 0, 71, 90
1, 33480, Note_off_c, 0, 71, 0
1, 33480, Note_on_c, 0, 70, 90
1, 33840, Note_off_c, 0, 70, 0
1, 33840, Note_on_c, 0, 78, 90
1, 34620, Note_off_c, 0, 78, 0
1, 34620, Note_on_c, 0, 71, 90
1, 34680, Note_off_c, 0, 71, 0
1, 34680, Note_on_c, 0, 74, 90
1, 34740, Note_off_c, 0, 74, 0
1, 34740, Note_on_c, 0, 78, 90
1, 34800, Note_off_c, 0, 78, 0
1, 34800, Note_on_c, 0, 83, 90
1, 34860, Note_off_c, 0, 83, 0
1, 34860, Note_on_c, 0, 78, 90
1, 34920, Note_off_c, 0, 78, 0
1, 34920, Note_on_c, 0, 74, 90
1, 34980, Note_off_c, 0, 74, 0
1, 34980, Note_on_c, 0, 78, 90
1, 35040, Note_off_c, 0, 78, 0
1, 35040, Note_on_c, 0, 74, 90
1, 35100, Note_off_c, 0, 74, 0
1, 35100, Note_on_c, 0, 71, 90
1, 35160, Note_off_c, 0, 71, 0
1, 35160, Note_on_c, 0, 74, 90
1, 35220, Note_off_c, 0, 74, 0
1, 35220, Note_on_c, 0, 71, 90
1, 35280, Note_off_c, 0, 71, 0
1, 35280, Note_on_c, 0, 66, 90
1, 35340, Note_off_c, 0, 66, 0
1, 35340, Note_on_c, 0, 71, 90
1, 35400, Note_off_c, 0, 71, 0
1, 35400, Note_on_c, 0, 66, 90
1, 35460, Note_off_c, 0, 66, 0
1, 35460, Note_on_c, 0, 62, 90
1, 35520, Note_off_c, 0, 62, 0
1, 35520, Note_on_c, 0, 66, 90
1, 35580, Note_off_c, 0, 66, 0
1, 35580, Note_on_c, 0, 62, 90
1, 35640, Note_off_c, 0, 62, 0
1, 35640, Note_on_c, 0, 74, 90
1, 36480, Note_off_c, 0, 74, 0
1, 36480, Note_on_c, 0, 74, 90
1, 36840, Note_off_c, 0, 74, 0
1, 36840, Note_on_c, 0, 73, 90
1, 36960, Note_off_c, 0, 73, 0
1, 36960, Note_on_c, 0, 73, 90
1, 37080, Note_off_c, 0, 73, 0
1, 37080, Note_on_c, 0, 80, 90
1, 37200, Note_off_c, 0, 80, 0
1, 37200, Note_on_c, 0, 73, 90
1, 37320, Note_off_c, 0, 73, 0
1, 37440, Note_on_c, 0, 74, 90
1, 37560, Note_off_c, 0, 74, 0
1, 37560, Note_on_c, 0, 73, 90
1, 37680, Note_off_c, 0, 73, 0
1, 37680, Note_on_c, 0, 73, 90
1, 37800, Note_off_c, 0, 73, 0
1, 37800, Note_on_c, 0, 76, 90
1, 37920, Note_off_c, 0, 76, 0
1, 37920, Note_on_c, 0, 73, 90
1, 38040, Note_off_c, 0, 73, 0
1, 38040, Note_on_c, 0, 73, 90
1, 38160, Note_off_c, 0, 73, 0
1, 38160, Note_on_c, 0, 82, 90
1, 38280, Note_off_c, 0, 82, 0
1, 38280, Note_on_c, 0, 73, 90
1, 38400, Note_off_c, 0, 73, 0
1, 38400, Note_on_c, 0, 74, 90
1, 38520, Note_off_c, 0, 74, 0
1, 38520, Note_on_c, 0, 76, 90
1, 38640, Note_off_c, 0, 76, 0
1, 38640, Note_on_c, 0, 74, 90
1, 38760, Note_off_c, 0, 74, 0
1, 38760, Note_on_c, 0, 73, 90
1, 38880, Note_off_c, 0, 73, 0
1, 38880, Note_on_c, 0, 78, 90
1, 39000, Note_off_c, 0, 78, 0
1, 39000, Note_on_c, 0, 79, 90
1, 39120, Note_off_c, 0, 79, 0
1, 39120, Note_on_c, 0, 76, 90
1, 39240, Note_off_c, 0, 76, 0
1, 39240, Note_on_c, 0, 74, 90
1, 39600, Note_off_c, 0, 74, 0
1, 39600, Note_on_c, 0, 73, 90
1, 39840, Note_off_c, 0, 73, 0
1, 39840, Note_on_c, 0, 71, 90
1, 39960, Note_off_c, 0, 71, 0
1, 39960, Note_on_c, 0, 71, 90
1, 40320, Note_off_c, 0, 71, 0
1, 40320, End_track
0, 0, End_of_file