0, 0, Header, 1, 1, 480
1, 0, Start_track
1, 0, Sequence_number, 0
1, 0, Title_t, "sinfonien15"
1, 0, Channel_prefix, 0
1, 0, Instrument_name_t, "15-3"
1, 0, Program_c, 0, 0
1, 0, Tempo, 1304347
1, 0, Time_signature, 4, 2, 24, 24
1, 0, Key_signature, 0, "major"
1, 0, Note_on_c, 0, 47, 90
1, 360, Note_off_c, 0, 47, 0
1, 480, Note_on_c, 0, 59, 90
1, 600, Note_off_c, 0, 59, 0
1, 600, Note_on_c, 0, 61, 90
1, 720, Note_off_c, 0, 61, 0
1, 720, Note_on_c, 0, 62, 90
1, 840, Note_off_c, 0, 62, 0
1, 840, Note_on_c, 0, 61, 90
1, 960, Note_off_c, 0, 61, 0
1, 960, Note_on_c, 0, 59, 90
1, 1080, Note_off_c, 0, 59, 0
1, 1080, Note_on_c, 0, 58, 90
1, 1560, Note_off_c, 0, 58, 0
1, 1560, Note_on_c, 0, 59, 90
1, 1680, Note_off_c, 0, 59, 0
1, 1680, Note_on_c, 0, 61, 90
1, 1800, Note_off_c, 0, 61, 0
1, 1800, Note_on_c, 0, 59, 90
1, 1920, Note_off_c, 0, 59, 0
1, 1920, Note_on_c, 0, 61, 90
1, 2040, Note_off_c, 0, 61, 0
1, 2040, Note_on_c, 0, 58, 90
1, 2160, Note_off_c, 0, 58, 0
1, 2160, Note_on_c, 0, 59, 90
1, 2520, Note_off_c, 0, 59, 0
1, 3240, Note_on_c, 0, 59, 90
1, 3360, Note_off_c, 0, 59, 0
1, 3360, Note_on_c, 0, 54, 90
1, 3480, Note_off_c, 0, 54, 0
1, 3480, Note_on_c, 0, 54, 90
1, 3600, Note_off_c, 0, 54, 0
1, 3600, Note_on_c, 0, 55, 90
1, 3720, Note_off_c, 0, 55, 0
1, 3720, Note_on_c, 0, 54, 90
1, 3840, Note_off_c, 0, 54, 0
1, 3960, Note_on_c, 0, 59, 90
1, 4080, Note_off_c, 0, 59, 0
1, 4080, Note_on_c, 0, 54, 90
1, 4200, Note_off_c, 0, 54, 0
1, 4320, Note_on_c, 0, 61, 90
1, 4440, Note_off_c, 0, 61, 0
1, 4440, Note_on_c, 0, 54, 90
1, 4560, Note_off_c, 0, 54, 0
1, 4560, Note_on_c, 0, 54, 90
1, 4680, Note_off_c, 0, 54, 0
1, 4680, Note_on_c, 0, 55, 90
1, 4800, Note_off_c, 0, 55, 0
1, 4800, Note_on_c, 0, 54, 90
1, 4920, Note_off_c, 0, 54, 0
1, 5040, Note_on_c, 0, 61, 90
1, 5160, Note_off_c, 0, 61, 0
1, 5160, Note_on_c, 0, 54, 90
1, 5280, Note_off_c, 0, 54, 0
1, 5400, Note_on_c, 0, 62, 90
1, 5460, Note_off_c, 0, 62, 0
1, 5460, Note_on_c, 0, 59, 90
1, 5520, Note_off_c, 0, 59, 0
1, 5520, Note_on_c, 0, 62, 90
1, 5580, Note_off_c, 0, 62, 0
1, 5580, Note_on_c, 0, 66, 90
1, 5640, Note_off_c, 0, 66, 0
1, 5640, Note_on_c, 0, 71, 90
1, 5700, Note_off_c, 0, 71, 0
1, 5700, Note_on_c, 0, 66, 90
1, 5760, Note_off_c, 0, 66, 0
1, 5760, Note_on_c, 0, 62, 90
1, 5820, Note_off_c, 0, 62, 0
1, 5820, Note_on_c, 0, 66, 90
1, 5880, Note_off_c, 0, 66, 0
1, 5880, Note_on_c, 0, 62, 90
1, 5940, Note_off_c, 0, 62, 0
1, 5940, Note_on_c, 0, 59, 90
1, 6000, Note_off_c, 0, 59, 0
1, 6000, Note_on_c, 0, 62, 90
1, 6060, Note_off_c, 0, 62, 0
1, 6060, Note_on_c, 0, 59, 90
1, 6120, Note_off_c, 0, 59, 0
1, 6120, Note_on_c, 0, 54, 90
1, 6180, Note_off_c, 0, 54, 0
1, 6180, Note_on_c, 0, 59, 90
1, 6240, Note_off_c, 0, 59, 0
1, 6240, Note_on_c, 0, 54, 90
1, 6300, Note_off_c, 0, 54, 0
1, 6300, Note_on_c, 0, 50, 90
1, 6360, Note_off_c, 0, 50, 0
1, 6360, Note_on_c, 0, 54, 90
1, 6420, Note_off_c, 0, 54, 0
1, 6420, Note_on_c, 0, 50, 90
1, 6480, Note_off_c, 0, 50, 0
1, 6480, Note_on_c, 0, 47, 90
1, 6840, Note_off_c, 0, 47, 0
1, 6960, Note_on_c, 0, 59, 90
1, 7080, Note_off_c, 0, 59, 0
1, 7080, Note_on_c, 0, 61, 90
1, 7200, Note_off_c, 0, 61, 0
1, 7200, Note_on_c, 0, 62, 90
1, 7320, Note_off_c, 0, 62, 0
1, 7320, Note_on_c, 0, 61, 90
1, 7440, Note_off_c, 0, 61, 0
1, 7440, Note_on_c, 0, 59, 90
1, 7560, Note_off_c, 0, 59, 0
1, 7560, Note_on_c, 0, 64, 90
1, 7920, Note_off_c, 0, 64, 0
1, 8040, Note_on_c, 0, 52, 90
1, 8160, Note_off_c, 0, 52, 0
1, 8160, Note_on_c, 0, 54, 90
1, 8280, Note_off_c, 0, 54, 0
1, 8280, Note_on_c, 0, 56, 90
1, 8400, Note_off_c, 0, 56, 0
1, 8400, Note_on_c, 0, 54, 90
1, 8520, Note_off_c, 0, 54, 0
1, 8520, Note_on_c, 0, 52, 90
1, 8640, Note_off_c, 0, 52, 0
1, 8640, Note_on_c, 0, 57, 90
1, 9000, Note_off_c, 0, 57, 0
1, 9120, Note_on_c, 0, 45, 90
1, 9240, Note_off_c, 0, 45, 0
1, 9240, Note_on_c, 0, 47, 90
1, 9360, Note_off_c, 0, 47, 0
1, 9360, Note_on_c, 0, 49, 90
1, 9480, Note_off_c, 0, 49, 0
1, 9480, Note_on_c, 0, 47, 90
1, 9600, Note_off_c, 0, 47, 0
1, 9600, Note_on_c, 0, 45, 90
1, 9720, Note_off_c, 0, 45, 0
1, 9720, Note_on_c, 0, 50, 90
1, 10080, Note_off_c, 0, 50, 0
1, 10200, Note_on_c, 0, 38, 90
1, 10320, Note_off_c, 0, 38, 0
1, 10320, Note_on_c, 0, 40, 90
1, 10440, Note_off_c, 0, 40, 0
1, 10440, Note_on_c, 0, 42, 90
1, 10560, Note_off_c, 0, 42, 0
1, 10560, Note_on_c, 0, 40, 90
1, 10680, Note_off_c, 0, 40, 0
1, 10680, Note_on_c, 0, 38, 90
1, 10800, Note_off_c, 0, 38, 0
1, 10800, Note_on_c, 0, 43, 90
1, 11160, Note_off_c, 0, 43, 0
1, 11160, Note_on_c, 0, 55, 90
1, 11220, Note_off_c, 0, 55, 0
1, 11220, Note_on_c, 0, 59, 90
1, 11280, Note_off_c, 0, 59, 0
1, 11280, Note_on_c, 0, 55, 90
1, 11340, Note_off_c, 0, 55, 0
1, 11340, Note_on_c, 0, 52, 90
1, 11400, Note_off_c, 0, 52, 0
1, 11400, Note_on_c, 0, 55, 90
1, 11460, Note_off_c, 0, 55, 0
1, 11460, Note_on_c, 0, 52, 90
1, 11520, Note_off_c, 0, 52, 0
1, 11520, Note_on_c, 0, 49, 90
1, 11580, Note_off_c, 0, 49, 0
1, 11580, Note_on_c, 0, 52, 90
1, 11640, Note_off_c, 0, 52, 0
1, 11640, Note_on_c, 0, 49, 90
1, 11700, Note_off_c, 0, 49, 0
1, 11700, Note_on_c, 0, 45, 90
1, 11760, Note_off_c, 0, 45, 0
1, 11760, Note_on_c, 0, 49, 90
1, 11820, Note_off_c, 0, 49, 0
1, 11820, Note_on_c, 0, 45, 90
1, 11880, Note_off_c, 0, 45, 0
1, 11880, Note_on_c, 0, 42, 90
1, 12240, Note_off_c, 0, 42, 0
1, 12240, Note_on_c, 0, 54, 90
1, 12300, Note_off_c, 0, 54, 0
1, 12300, Note_on_c, 0, 57, 90
1, 12360, Note_off_c, 0, 57, 0
1, 12360, Note_on_c, 0, 54, 90
1, 12420, Note_off_c, 0, 54, 0
1, 12420, Note_on_c, 0, 50, 90
1, 12480, Note_off_c, 0, 50, 0
1, 12480, Note_on_c, 0, 54, 90
1, 12540, Note_off_c, 0, 54, 0
1, 12540, Note_on_c, 0, 50, 90
1, 12600, Note_off_c, 0, 50, 0
1, 12600, Note_on_c, 0, 47, 90
1, 12660, Note_off_c, 0, 47, 0
1, 12660, Note_on_c, 0, 50, 90
1, 12720, Note_off_c, 0, 50, 0
1, 12720, Note_on_c, 0, 47, 90
1, 12780, Note_off_c, 0, 47, 0
1, 12780, Note_on_c, 0, 43, 90
1, 12840, Note_off_c, 0, 43, 0
1, 12840, Note_on_c, 0, 47, 90
1, 12900, Note_off_c, 0, 47, 0
1, 12900, Note_on_c, 0, 43, 90
1, 12960, Note_off_c, 0, 43, 0
1, 12960, Note_on_c, 0, 40, 90
1, 13320, Note_off_c, 0, 40, 0
1, 13320, Note_on_c, 0, 52, 90
1, 13380, Note_off_c, 0, 52, 0
1, 13380, Note_on_c, 0, 55, 90
1, 13440, Note_off_c, 0, 55, 0
1, 13440, Note_on_c, 0, 52, 90
1, 13500, Note_off_c, 0, 52, 0
1, 13500, Note_on_c, 0, 49, 90
1, 13560, Note_off_c, 0, 49, 0
1, 13560, Note_on_c, 0, 52, 90
1, 13620, Note_off_c, 0, 52, 0
1, 13620, Note_on_c, 0, 49, 90
1, 13680, Note_off_c, 0, 49, 0
1, 13680, Note_on_c, 0, 45, 90
1, 13740, Note_off_c, 0, 45, 0
1, 13740, Note_on_c, 0, 49, 90
1, 13800, Note_off_c, 0, 49, 0
1, 13800, Note_on_c, 0, 45, 90
1, 13860, Note_off_c, 0, 45, 0
1, 13860, Note_on_c, 0, 42, 90
1, 13920, Note_off_c, 0, 42, 0
1, 13920, Note_on_c, 0, 45, 90
1, 13980, Note_off_c, 0, 45, 0
1, 13980, Note_on_c, 0, 42, 90
1, 14040, Note_off_c, 0, 42, 0
1, 14040, Note_on_c, 0, 38, 90
1, 14400, Note_off_c, 0, 38, 0
1, 14520, Note_on_c, 0, 38, 90
1, 14640, Note_off_c, 0, 38, 0
1, 14640, Note_on_c, 0, 40, 90
1, 14760, Note_off_c, 0, 40, 0
1, 14760, Note_on_c, 0, 42, 90
1, 14880, Note_off_c, 0, 42, 0
1, 14880, Note_on_c, 0, 40, 90
1, 15000, Note_off_c, 0, 40, 0
1, 15000, Note_on_c, 0, 38, 90
1, 15120, Note_off_c, 0, 38, 0
1, 15120, Note_on_c, 0, 37, 90
1, 15360, Note_off_c, 0, 37, 0
1, 15600, Note_on_c, 0, 45, 90
1, 15720, Note_off_c, 0, 45, 0
1, 15720, Note_on_c, 0, 47, 90
1, 15840, Note_off_c, 0, 47, 0
1, 15840, Note_on_c, 0, 49, 90
1, 15960, Note_off_c, 0, 49, 0
1, 15960, Note_on_c, 0, 47, 90
1, 16080, Note_off_c, 0, 47, 0
1, 16080, Note_on_c, 0, 45, 90
1, 16200, Note_off_c, 0, 45, 0
1, 16200, Note_on_c, 0, 50, 90
1, 16680, Note_off_c, 0, 50, 0
1, 16680, Note_on_c, 0, 52, 90
1, 16800, Note_off_c, 0, 52, 0
1, 16800, Note_on_c, 0, 54, 90
1, 16920, Note_off_c, 0, 54, 0
1, 16920, Note_on_c, 0, 52, 90
1, 17040, Note_off_c, 0, 52, 0
1, 17040, Note_on_c, 0, 54, 90
1, 17160, Note_off_c, 0, 54, 0
1, 17160, Note_on_c, 0, 50, 90
1, 17280, Note_off_c, 0, 50, 0
1, 17280, Note_on_c, 0, 49, 90
1, 17640, Note_off_c, 0, 49, 0
1, 18360, Note_on_c, 0, 52, 90
1, 18720, Note_off_c, 0, 52, 0
1, 19440, Note_on_c, 0, 45, 90
1, 19800, Note_off_c, 0, 45, 0
1, 19800, Note_on_c, 0, 54, 90
1, 20520, Note_off_c, 0, 54, 0
1, 20520, Note_on_c, 0, 55, 90
1, 20880, Note_off_c, 0, 55, 0
1, 21000, Note_on_c, 0, 52, 90
1, 21120, Note_off_c, 0, 52, 0
1, 21120, Note_on_c, 0, 54, 90
1, 21240, Note_off_c, 0, 54, 0
1, 21240, Note_on_c, 0, 55, 90
1, 21360, Note_off_c, 0, 55, 0
1, 21360, Note_on_c, 0, 54, 90
1, 21480, Note_off_c, 0, 54, 0
1, 21480, Note_on_c, 0, 52, 90
1, 21600, Note_off_c, 0, 52, 0
1, 21600, Note_on_c, 0, 57, 90
1, 21960, Note_off_c, 0, 57, 0
1, 22080, Note_on_c, 0, 45, 90
1, 22200, Note_off_c, 0, 45, 0
1, 22200, Note_on_c, 0, 47, 90
1, 22320, Note_off_c, 0, 47, 0
1, 22320, Note_on_c, 0, 49, 90
1, 22440, Note_off_c, 0, 49, 0
1, 22440, Note_on_c, 0, 47, 90
1, 22560, Note_off_c, 0, 47, 0
1, 22560, Note_on_c, 0, 45, 90
1, 22680, Note_off_c, 0, 45, 0
1, 22680, Note_on_c, 0, 50, 90
1, 23040, Note_off_c, 0, 50, 0
1, 23160, Note_on_c, 0, 50, 90
1, 23280, Note_off_c, 0, 50, 0
1, 23280, Note_on_c, 0, 52, 90
1, 23400, Note_off_c, 0, 52, 0
1, 23400, Note_on_c, 0, 54, 90
1, 23520, Note_off_c, 0, 54, 0
1, 23520, Note_on_c, 0, 52, 90
1, 23640, Note_off_c, 0, 52, 0
1, 23640, Note_on_c, 0, 50, 90
1, 23760, Note_off_c, 0, 50, 0
1, 23760, Note_on_c, 0, 55, 90
1, 24120, Note_off_c, 0, 55, 0
1, 24240, Note_on_c, 0, 55, 90
1, 24360, Note_off_c, 0, 55, 0
1, 24360, Note_on_c, 0, 54, 90
1, 24480, Note_off_c, 0, 54, 0
1, 24480, Note_on_c, 0, 52, 90
1, 24600, Note_off_c, 0, 52, 0
1, 24600, Note_on_c, 0, 54, 90
1, 24720, Note_off_c, 0, 54, 0
1, 24720, Note_on_c, 0, 55, 90
1, 24840, Note_off_c, 0, 55, 0
1, 24840, Note_on_c, 0, 49, 90
1, 24960, Note_off_c, 0, 49, 0
1, 24960, Note_on_c, 0, 49, 90
1, 25200, Note_off_c, 0, 49, 0
1, 25320, Note_on_c, 0, 49, 90
1, 25440, Note_off_c, 0, 49, 0
1, 25440, Note_on_c, 0, 47, 90
1, 25560, Note_off_c, 0, 47, 0
1, 25560, Note_on_c, 0, 46, 90
1, 25680, Note_off_c, 0, 46, 0
1, 25680, Note_on_c, 0, 47, 90
1, 25800, Note_off_c, 0, 47, 0
1, 25800, Note_on_c, 0, 49, 90
1, 25920, Note_off_c, 0, 49, 0
1, 25920, Note_on_c, 0, 42, 90
1, 26280, Note_off_c, 0, 42, 0
1, 26400, Note_on_c, 0, 54, 90
1, 26520, Note_off_c, 0, 54, 0
1, 26520, Note_on_c, 0, 52, 90
1, 26640, Note_off_c, 0, 52, 0
1, 26640, Note_on_c, 0, 50, 90
1, 26760, Note_off_c, 0, 50, 0
1, 26760, Note_on_c, 0, 52, 90
1, 26880, Note_off_c, 0, 52, 0
1, 26880, Note_on_c, 0, 54, 90
1, 27000, Note_off_c, 0, 54, 0
1, 27000, Note_on_c, 0, 47, 90
1, 27360, Note_off_c, 0, 47, 0
1, 27360, Note_on_c, 0, 50, 90
1, 27420, Note_off_c, 0, 50, 0
1, 27420, Note_on_c, 0, 47, 90
1, 27480, Note_off_c, 0, 47, 0
1, 27480, Note_on_c, 0, 50, 90
1, 27540, Note_off_c, 0, 50, 0
1, 27540, Note_on_c, 0, 54, 90
1, 27600, Note_off_c, 0, 54, 0
1, 27600, Note_on_c, 0, 50, 90
1, 27660, Note_off_c, 0, 50, 0
1, 27660, Note_on_c, 0, 54, 90
1, 27720, Note_off_c, 0, 54, 0
1, 27720, Note_on_c, 0, 59, 90
1, 27780, Note_off_c, 0, 59, 0
1, 27780, Note_on_c, 0, 55, 90
1, 27840, Note_off_c, 0, 55, 0
1, 27840, Note_on_c, 0, 59, 90
1, 27900, Note_off_c, 0, 59, 0
1, 27900, Note_on_c, 0, 64, 90
1, 27960, Note_off_c, 0, 64, 0
1, 27960, Note_on_c, 0, 59, 90
1, 28020, Note_off_c, 0, 59, 0
1, 28020, Note_on_c, 0, 64, 90
1, 28080, Note_off_c, 0, 64, 0
1, 28080, Note_on_c, 0, 69, 90
1, 28440, Note_off_c, 0, 69, 0
1, 28440, Note_on_c, 0, 49, 90
1, 28500, Note_off_c, 0, 49, 0
1, 28500, Note_on_c, 0, 45, 90
1, 28560, Note_off_c, 0, 45, 0
1, 28560, Note_on_c, 0, 49, 90
1, 28620, Note_off_c, 0, 49, 0
1, 28620, Note_on_c, 0, 52, 90
1, 28680, Note_off_c, 0, 52, 0
1, 28680, Note_on_c, 0, 49, 90
1, 28740, Note_off_c, 0, 49, 0
1, 28740, Note_on_c, 0, 52, 90
1, 28800, Note_off_c, 0, 52, 0
1, 28800, Note_on_c, 0, 57, 90
1, 28860, Note_off_c, 0, 57, 0
1, 28860, Note_on_c, 0, 54, 90
1, 28920, Note_off_c, 0, 54, 0
1, 28920, Note_on_c, 0, 57, 90
1, 28980, Note_off_c, 0, 57, 0
1, 28980, Note_on_c, 0, 62, 90
1, 29040, Note_off_c, 0, 62, 0
1, 29040, Note_on_c, 0, 57, 90
1, 29100, Note_off_c, 0, 57, 0
1, 29100, Note_on_c, 0, 62, 90
1, 29160, Note_off_c, 0, 62, 0
1, 29160, Note_on_c, 0, 67, 90
1, 29220, Note_off_c, 0, 67, 0
1, 29220, Note_on_c, 0, 71, 90
1, 29280, Note_off_c, 0, 71, 0
1, 29280, Note_on_c, 0, 67, 90
1, 29340, Note_off_c, 0, 67, 0
1, 29340, Note_on_c, 0, 62, 90
1, 29400, Note_off_c, 0, 62, 0
1, 29400, Note_on_c, 0, 67, 90
1, 29460, Note_off_c, 0, 67, 0
1, 29460, Note_on_c, 0, 62, 90
1, 29520, Note_off_c, 0, 62, 0
1, 29520, Note_on_c, 0, 59, 90
1, 29580, Note_off_c, 0, 59, 0
1, 29580, Note_on_c, 0, 62, 90
1, 29640, Note_off_c, 0, 62, 0
1, 29640, Note_on_c, 0, 59, 90
1, 29700, Note_off_c, 0, 59, 0
1, 29700, Note_on_c, 0, 55, 90
1, 29760, Note_off_c, 0, 55, 0
1, 29760, Note_on_c, 0, 59, 90
1, 29820, Note_off_c, 0, 59, 0
1, 29820, Note_on_c, 0, 55, 90
1, 29880, Note_off_c, 0, 55, 0
1, 29880, Note_on_c, 0, 52, 90
1, 29940, Note_off_c, 0, 52, 0
1, 29940, Note_on_c, 0, 55, 90
1, 30000, Note_off_c, 0, 55, 0
1, 30000, Note_on_c, 0, 52, 90
1, 30060, Note_off_c, 0, 52, 0
1, 30060, Note_on_c, 0, 49, 90
1, 30120, Note_off_c, 0, 49, 0
1, 30120, Note_on_c, 0, 52, 90
1, 30180, Note_off_c, 0, 52, 0
1, 30180, Note_on_c, 0, 49, 90
1, 30240, Note_off_c, 0, 49, 0
1, 30240, Note_on_c, 0, 46, 90
1, 30720, Note_off_c, 0, 46, 0
1, 30720, Note_on_c, 0, 47, 90
1, 30840, Note_off_c, 0, 47, 0
1, 30840, Note_on_c, 0, 49, 90
1, 30960, Note_off_c, 0, 49, 0
1, 30960, Note_on_c, 0, 42, 90
1, 31080, Note_off_c, 0, 42, 0
1, 31080, Note_on_c, 0, 47, 90
1, 31200, Note_off_c, 0, 47, 0
1, 31200, Note_on_c, 0, 46, 90
1, 31320, Note_off_c, 0, 46, 0
1, 31320, Note_on_c, 0, 47, 90
1, 31680, Note_off_c, 0, 47, 0
1, 32040, Note_on_c, 0, 47, 90
1, 32400, Note_off_c, 0, 47, 0
1, 32400, Note_on_c, 0, 52, 90
1, 32640, Note_off_c, 0, 52, 0
1, 32640, Note_on_c, 0, 52, 90
1, 34560, Note_off_c, 0, 52, 0
1, 34560, Note_on_c, 0, 50, 90
1, 34800, Note_off_c, 0, 50, 0
1, 35640, Note_on_c, 0, 59, 90
1, 35700, Note_off_c, 0, 59, 0
1, 35700, Note_on_c, 0, 55, 90
1, 35760, Note_off_c, 0, 55, 0
1, 35760, Note_on_c, 0, 59, 90
1, 35820, Note_off_c, 0, 59, 0
1, 35820, Note_on_c, 0, 62, 90
1, 35880, Note_off_c, 0, 62, 0
1, 35880, Note_on_c, 0, 67, 90
1, 35940, Note_off_c, 0, 67, 0
1, 35940, Note_on_c, 0, 62, 90
1, 36000, Note_off_c, 0, 62, 0
1, 36000, Note_on_c, 0, 59, 90
1, 36060, Note_off_c, 0, 59, 0
1, 36060, Note_on_c, 0, 62, 90
1, 36120, Note_off_c, 0, 62, 0
1, 36120, Note_on_c, 0, 59, 90
1, 36180, Note_off_c, 0, 59, 0
1, 36180, Note_on_c, 0, 55, 90
1, 36240, Note_off_c, 0, 55, 0
1, 36240, Note_on_c, 0, 59, 90
1, 36300, Note_off_c, 0, 59, 0
1, 36300, Note_on_c, 0, 55, 90
1, 36360, Note_off_c, 0, 55, 0
1, 36360, Note_on_c, 0, 50, 90
1, 36420, Note_off_c, 0, 50, 0
1, 36420, Note_on_c, 0, 55, 90
1, 36480, Note_off_c, 0, 55, 0
1, 36480, Note_on_c, 0, 50, 90
1, 36540, Note_off_c, 0, 50, 0
1, 36540, Note_on_c, 0, 47, 90
1, 36600, Note_off_c, 0, 47, 0
1, 36600, Note_on_c, 0, 50, 90
1, 36660, Note_off_c, 0, 50, 0
1, 36660, Note_on_c, 0, 47, 90
1, 36720, Note_off_c, 0, 47, 0
1, 36720, Note_on_c, 0, 41, 90
1, 37080, Note_off_c, 0, 41, 0
1, 37800, Note_on_c, 0, 42, 90
1, 38160, Note_off_c, 0, 42, 0
1, 38280, Note_on_c, 0, 52, 90
1, 38400, Note_off_c, 0, 52, 0
1, 38400, Note_on_c, 0, 54, 90
1, 38520, Note_off_c, 0, 54, 0
1, 38520, Note_on_c, 0, 55, 90
1, 38640, Note_off_c, 0, 55, 0
1, 38640, Note_on_c, 0, 54, 90
1, 38760, Note_off_c, 0, 54, 0
1, 38760, Note_on_c, 0, 52, 90
1, 38880, Note_off_c, 0, 52, 0
1, 38880, Note_on_c, 0, 50, 90
1, 39120, Note_off_c, 0, 50, 0
1, 39120, Note_on_c, 0, 52, 90
1, 39240, Note_off_c, 0, 52, 0
1, 39240, Note_on_c, 0, 54, 90
1, 39480, Note_off_c, 0, 54, 0
1, 39480, Note_on_c, 0, 52, 90
1, 39600, Note_off_c, 0, 52, 0
1, 39600, Note_on_c, 0, 54, 90
1, 39840, Note_off_c, 0, 54, 0
1, 39840, Note_on_c, 0, 42, 90
1, 39960, Note_off_c, 0, 42, 0
1, 39960, Note_on_c, 0, 47, 90
1, 40320, Note_off_c, 0, 47, 0
1, 40320, End_track
0, 0, End_of_file