0, 0, Header, 1, 14, 384
1, 0, Start_track
1, 0, Time_signature, 2, 1, 96, 8
1, 0, Sequencer_specific, 03, 00, 00, 41
1, 0, Sequencer_specific, 05, 00, 00, 77, 0E, 00
1, 0, Tempo, 447761
1, 48, Tempo, 441176
1, 96, Tempo, 434782
1, 144, Tempo, 428571
1, 192, Tempo, 422535
1, 240, Tempo, 416666
1, 288, Tempo, 416666
1, 336, Tempo, 410958
1, 384, Tempo, 405405
1, 432, Tempo, 400000
1, 480, Tempo, 394736
1, 528, Tempo, 389610
1, 576, Tempo, 384615
1, 624, Tempo, 379746
1, 672, Tempo, 375000
1, 720, Tempo, 370370
1, 768, Tempo, 394736
1, 896, Tempo, 389610
1, 1024, Tempo, 384615
1, 1152, Tempo, 379746
1, 1280, Tempo, 375000
1, 1408, Tempo, 370370
1, 1536, Tempo, 365853
1, 21504, Tempo, 365853
1, 21888, Tempo, 370370
1, 22272, Tempo, 375000
1, 22656, Tempo, 379746
1, 23040, Tempo, 379746
1, 23424, Tempo, 384615
1, 23520, Tempo, 389610
1, 23616, Tempo, 394736
1, 23712, Tempo, 400000
1, 23808, Tempo, 405405
1, 24576, Tempo, 394736
1, 24960, Tempo, 389610
1, 25344, Tempo, 384615
1, 25536, Tempo, 379746
1, 25728, Tempo, 375000
1, 25920, Tempo, 370370
1, 26112, Tempo, 365853
1, 46848, Tempo, 365853
1, 46992, Tempo, 370370
1, 47136, Tempo, 375000
1, 47280, Tempo, 379746
1, 47424, Tempo, 384615
1, 48000, Tempo, 384615
1, 48032, Tempo, 389610
1, 48064, Tempo, 394736
1, 48096, Tempo, 400000
1, 48128, Tempo, 405405
1, 48160, Tempo, 410958
1, 48192, Tempo, 416666
1, 48224, Tempo, 416666
1, 48256, Tempo, 422535
1, 48288, Tempo, 428571
1, 48320, Tempo, 434782
1, 48352, Tempo, 441176
1, 48384, Tempo, 447761
1, 49152, Tempo, 394736
1, 49280, Tempo, 389610
1, 49408, Tempo, 384615
1, 49536, Tempo, 379746
1, 49664, Tempo, 375000
1, 49792, Tempo, 370370
1, 49920, Tempo, 365853
1, 60096, Tempo, 365853
1, 60240, Tempo, 370370
1, 60384, Tempo, 375000
1, 60528, Tempo, 379746
1, 60672, Tempo, 416666
1, 60688, Tempo, 416666
1, 60704, Tempo, 410958
1, 60720, Tempo, 405405
1, 60736, Tempo, 400000
1, 60752, Tempo, 394736
1, 60776, Tempo, 389610
1, 60792, Tempo, 384615
1, 60808, Tempo, 379746
1, 60824, Tempo, 375000
1, 60840, Tempo, 370370
1, 60864, Tempo, 365853
1, 67008, Tempo, 365853
1, 67056, Tempo, 370370
1, 67112, Tempo, 375000
1, 67160, Tempo, 379746
1, 67216, Tempo, 384615
1, 67264, Tempo, 389610
1, 67320, Tempo, 394736
1, 67368, Tempo, 400000
1, 67424, Tempo, 405405
1, 67472, Tempo, 410958
1, 67528, Tempo, 416666
1, 67584, Tempo, 384615
1, 67728, Tempo, 379746
1, 67872, Tempo, 375000
1, 68016, Tempo, 370370
1, 68160, Tempo, 365853
1, 71424, Tempo, 365853
1, 71568, Tempo, 370370
1, 71712, Tempo, 375000
1, 71856, Tempo, 379746
1, 72000, Tempo, 384615
1, 72576, Tempo, 384615
1, 72640, Tempo, 389610
1, 72704, Tempo, 394736
1, 72768, Tempo, 400000
1, 72832, Tempo, 405405
1, 72896, Tempo, 410958
1, 72960, Tempo, 416666
1, 73728, Tempo, 416666
1, 73760, Tempo, 410958
1, 73792, Tempo, 405405
1, 73824, Tempo, 400000
1, 73856, Tempo, 394736
1, 73888, Tempo, 389610
1, 73920, Tempo, 384615
1, 74112, Tempo, 375000
1, 74304, Tempo, 370370
1, 74496, Tempo, 365853
1, 84672, Tempo, 365853
1, 84816, Tempo, 370370
1, 84960, Tempo, 375000
1, 85104, Tempo, 379746
1, 85248, Tempo, 416666
1, 85264, Tempo, 416666
1, 85280, Tempo, 410958
1, 85296, Tempo, 405405
1, 85312, Tempo, 400000
1, 85328, Tempo, 394736
1, 85352, Tempo, 389610
1, 85368, Tempo, 384615
1, 85384, Tempo, 379746
1, 85400, Tempo, 375000
1, 85416, Tempo, 370370
1, 85440, Tempo, 365853
1, 91584, Tempo, 365853
1, 91728, Tempo, 370370
1, 91872, Tempo, 375000
1, 92016, Tempo, 379746
1, 92160, Tempo, 400000
1, 92208, Tempo, 394736
1, 92264, Tempo, 389610
1, 92320, Tempo, 384615
1, 92376, Tempo, 379746
1, 92432, Tempo, 375000
1, 92488, Tempo, 370370
1, 92544, Tempo, 365853
1, 94848, Tempo, 365853
1, 94896, Tempo, 370370
1, 94944, Tempo, 375000
1, 94992, Tempo, 379746
1, 95040, Tempo, 384615
1, 95088, Tempo, 389610
1, 95136, Tempo, 394736
1, 95184, Tempo, 400000
1, 95232, Tempo, 405405
1, 96000, Tempo, 405405
1, 96072, Tempo, 410958
1, 96152, Tempo, 416666
1, 96224, Tempo, 416666
1, 96304, Tempo, 422535
1, 96384, Tempo, 428571
1, 96456, Tempo, 434782
1, 96536, Tempo, 441176
1, 96608, Tempo, 447761
1, 96688, Tempo, 454545
1, 96768, Tempo, 769230
1, 96784, Tempo, 468750
1, 96808, Tempo, 476190
1, 96824, Tempo, 483870
1, 96848, Tempo, 491803
1, 96864, Tempo, 500000
1, 96888, Tempo, 508474
1, 96912, Tempo, 517241
1, 96928, Tempo, 526315
1, 96952, Tempo, 535714
1, 96968, Tempo, 545454
1, 96992, Tempo, 555555
1, 97008, Tempo, 566037
1, 97032, Tempo, 576923
1, 97056, Tempo, 588235
1, 97072, Tempo, 600000
1, 97096, Tempo, 612244
1, 97112, Tempo, 625000
1, 97136, Tempo, 625000
1, 97152, Tempo, 638297
1, 97176, Tempo, 652173
1, 97200, Tempo, 666666
1, 97216, Tempo, 681818
1, 97240, Tempo, 697674
1, 97256, Tempo, 714285
1, 97280, Tempo, 731707
1, 97296, Tempo, 750000
1, 97320, Tempo, 769230
1, 97344, Tempo, 789473
1, 97352, Tempo, 810810
1, 97360, Tempo, 833333
1, 97368, Tempo, 857142
1, 97376, Tempo, 882352
1, 97392, Tempo, 909090
1, 97400, Tempo, 937500
1, 97408, Tempo, 967741
1, 97416, Tempo, 1000000
1, 97424, Tempo, 1034482
1, 97440, Tempo, 1071428
1, 97448, Tempo, 1111111
1, 97456, Tempo, 1153846
1, 97464, Tempo, 1200000
1, 97472, Tempo, 1250000
1, 97488, Tempo, 1250000
1, 97496, Tempo, 1304347
1, 97504, Tempo, 1363636
1, 97512, Tempo, 1428571
1, 97520, Tempo, 1500000
1, 97536, Tempo, 1500000
1, 97536, End_track
2, 0, Start_track
2, 0, Title_t, "Johann Sebastian Bach"
2, 0, Control_c, 0, 0, 0
2, 0, Program_c, 0, 6
2, 0, Control_c, 0, 7, 127
2, 0, Control_c, 0, 10, 0
2, 0, Control_c, 0, 91, 127
2, 0, Key_signature, 1, "major"
2, 12288, Note_on_c, 0, 79, 127
2, 12344, Note_off_c, 0, 79, 100
2, 12352, Note_on_c, 0, 78, 127
2, 12408, Note_off_c, 0, 78, 100
2, 12416, Note_on_c, 0, 79, 127
2, 12984, Note_off_c, 0, 79, 100
2, 13056, Note_on_c, 0, 81, 127
2, 13144, Note_off_c, 0, 81, 100
2, 13152, Note_on_c, 0, 79, 127
2, 13240, Note_off_c, 0, 79, 100
2, 13248, Note_on_c, 0, 81, 127
2, 13336, Note_off_c, 0, 81, 100
2, 13344, Note_on_c, 0, 79, 127
2, 13432, Note_off_c, 0, 79, 100
2, 13440, Note_on_c, 0, 81, 127
2, 13528, Note_off_c, 0, 81, 100
2, 13536, Note_on_c, 0, 79, 127
2, 13624, Note_off_c, 0, 79, 100
2, 13632, Note_on_c, 0, 78, 127
2, 13720, Note_off_c, 0, 78, 100
2, 13728, Note_on_c, 0, 79, 127
2, 13816, Note_off_c, 0, 79, 100
2, 13824, Note_on_c, 0, 81, 127
2, 13944, Note_off_c, 0, 81, 100
2, 14208, Note_on_c, 0, 78, 127
2, 14328, Note_off_c, 0, 78, 100
2, 14592, Note_on_c, 0, 74, 127
2, 14768, Note_off_c, 0, 74, 100
2, 14976, Note_on_c, 0, 78, 127
2, 15096, Note_off_c, 0, 78, 100
2, 15360, Note_on_c, 0, 71, 127
2, 15480, Note_off_c, 0, 71, 100
2, 15744, Note_on_c, 0, 76, 127
2, 15864, Note_off_c, 0, 76, 100
2, 16128, Note_on_c, 0, 64, 127
2, 16304, Note_off_c, 0, 64, 100
2, 16512, Note_on_c, 0, 74, 127
2, 16632, Note_off_c, 0, 74, 100
2, 16896, Note_on_c, 0, 74, 127
2, 16952, Note_off_c, 0, 74, 100
2, 16960, Note_on_c, 0, 73, 127
2, 17016, Note_off_c, 0, 73, 100
2, 17024, Note_on_c, 0, 74, 127
2, 17080, Note_off_c, 0, 74, 100
2, 17088, Note_on_c, 0, 73, 127
2, 17216, Note_off_c, 0, 73, 100
2, 17280, Note_on_c, 0, 71, 127
2, 17464, Note_off_c, 0, 71, 100
2, 17472, Note_on_c, 0, 73, 127
2, 17656, Note_off_c, 0, 73, 100
2, 17664, Note_on_c, 0, 69, 127
2, 17848, Note_off_c, 0, 69, 100
2, 17856, Note_on_c, 0, 71, 127
2, 18040, Note_off_c, 0, 71, 100
2, 18048, Note_on_c, 0, 73, 127
2, 18232, Note_off_c, 0, 73, 100
2, 18240, Note_on_c, 0, 69, 127
2, 18368, Note_off_c, 0, 69, 100
2, 18432, Note_on_c, 0, 74, 127
2, 18688, Note_off_c, 0, 74, 100
2, 18816, Note_on_c, 0, 62, 127
2, 18936, Note_off_c, 0, 62, 100
2, 19200, Note_on_c, 0, 74, 127
2, 20344, Note_off_c, 0, 74, 100
2, 20352, Note_on_c, 0, 62, 127
2, 20472, Note_off_c, 0, 62, 100
2, 20736, Note_on_c, 0, 74, 127
2, 22264, Note_off_c, 0, 74, 100
2, 22272, Note_on_c, 0, 73, 127
2, 23032, Note_off_c, 0, 73, 100
2, 23040, Note_on_c, 0, 74, 127
2, 24320, Note_off_c, 0, 74, 100
2, 36864, Note_on_c, 0, 79, 127
2, 36920, Note_off_c, 0, 79, 100
2, 36928, Note_on_c, 0, 78, 127
2, 36984, Note_off_c, 0, 78, 100
2, 36992, Note_on_c, 0, 79, 127
2, 37560, Note_off_c, 0, 79, 100
2, 37632, Note_on_c, 0, 81, 127
2, 37720, Note_off_c, 0, 81, 100
2, 37728, Note_on_c, 0, 79, 127
2, 37816, Note_off_c, 0, 79, 100
2, 37824, Note_on_c, 0, 81, 127
2, 37912, Note_off_c, 0, 81, 100
2, 37920, Note_on_c, 0, 79, 127
2, 38008, Note_off_c, 0, 79, 100
2, 38016, Note_on_c, 0, 81, 127
2, 38104, Note_off_c, 0, 81, 100
2, 38112, Note_on_c, 0, 79, 127
2, 38200, Note_off_c, 0, 79, 100
2, 38208, Note_on_c, 0, 78, 127
2, 38296, Note_off_c, 0, 78, 100
2, 38304, Note_on_c, 0, 79, 127
2, 38392, Note_off_c, 0, 79, 100
2, 38400, Note_on_c, 0, 81, 127
2, 38520, Note_off_c, 0, 81, 100
2, 38784, Note_on_c, 0, 78, 127
2, 38904, Note_off_c, 0, 78, 100
2, 39168, Note_on_c, 0, 74, 127
2, 39344, Note_off_c, 0, 74, 100
2, 39552, Note_on_c, 0, 78, 127
2, 39672, Note_off_c, 0, 78, 100
2, 39936, Note_on_c, 0, 71, 127
2, 40056, Note_off_c, 0, 71, 100
2, 40320, Note_on_c, 0, 76, 127
2, 40440, Note_off_c, 0, 76, 100
2, 40704, Note_on_c, 0, 64, 127
2, 40880, Note_off_c, 0, 64, 100
2, 41088, Note_on_c, 0, 74, 127
2, 41208, Note_off_c, 0, 74, 100
2, 41472, Note_on_c, 0, 74, 127
2, 41528, Note_off_c, 0, 74, 100
2, 41536, Note_on_c, 0, 73, 127
2, 41592, Note_off_c, 0, 73, 100
2, 41600, Note_on_c, 0, 74, 127
2, 41656, Note_off_c, 0, 74, 100
2, 41664, Note_on_c, 0, 73, 127
2, 41792, Note_off_c, 0, 73, 100
2, 41856, Note_on_c, 0, 71, 127
2, 42040, Note_off_c, 0, 71, 100
2, 42048, Note_on_c, 0, 73, 127
2, 42232, Note_off_c, 0, 73, 100
2, 42240, Note_on_c, 0, 69, 127
2, 42424, Note_off_c, 0, 69, 100
2, 42432, Note_on_c, 0, 71, 127
2, 42616, Note_off_c, 0, 71, 100
2, 42624, Note_on_c, 0, 73, 127
2, 42808, Note_off_c, 0, 73, 100
2, 42816, Note_on_c, 0, 69, 127
2, 42944, Note_off_c, 0, 69, 100
2, 43008, Note_on_c, 0, 74, 127
2, 43264, Note_off_c, 0, 74, 100
2, 43392, Note_on_c, 0, 62, 127
2, 43512, Note_off_c, 0, 62, 100
2, 43776, Note_on_c, 0, 74, 127
2, 44920, Note_off_c, 0, 74, 100
2, 44928, Note_on_c, 0, 62, 127
2, 45048, Note_off_c, 0, 62, 100
2, 45312, Note_on_c, 0, 74, 127
2, 46840, Note_off_c, 0, 74, 100
2, 46848, Note_on_c, 0, 73, 127
2, 47608, Note_off_c, 0, 73, 100
2, 47616, Note_on_c, 0, 74, 127
2, 48896, Note_off_c, 0, 74, 100
2, 55296, Note_on_c, 0, 71, 127
2, 55352, Note_off_c, 0, 71, 100
2, 55360, Note_on_c, 0, 69, 127
2, 55416, Note_off_c, 0, 69, 100
2, 55424, Note_on_c, 0, 71, 127
2, 55992, Note_off_c, 0, 71, 100
2, 56064, Note_on_c, 0, 72, 127
2, 56152, Note_off_c, 0, 72, 100
2, 56160, Note_on_c, 0, 71, 127
2, 56248, Note_off_c, 0, 71, 100
2, 56256, Note_on_c, 0, 72, 127
2, 56344, Note_off_c, 0, 72, 100
2, 56352, Note_on_c, 0, 71, 127
2, 56440, Note_off_c, 0, 71, 100
2, 56448, Note_on_c, 0, 72, 127
2, 56536, Note_off_c, 0, 72, 100
2, 56544, Note_on_c, 0, 71, 127
2, 56632, Note_off_c, 0, 71, 100
2, 56640, Note_on_c, 0, 69, 127
2, 56728, Note_off_c, 0, 69, 100
2, 56736, Note_on_c, 0, 71, 127
2, 56824, Note_off_c, 0, 71, 100
2, 56832, Note_on_c, 0, 72, 127
2, 56952, Note_off_c, 0, 72, 100
2, 57216, Note_on_c, 0, 69, 127
2, 57336, Note_off_c, 0, 69, 100
2, 57600, Note_on_c, 0, 66, 127
2, 57776, Note_off_c, 0, 66, 100
2, 57984, Note_on_c, 0, 69, 127
2, 58104, Note_off_c, 0, 69, 100
2, 58368, Note_on_c, 0, 66, 127
2, 58488, Note_off_c, 0, 66, 100
2, 58752, Note_on_c, 0, 71, 127
2, 58872, Note_off_c, 0, 71, 100
2, 59136, Note_on_c, 0, 59, 127
2, 59312, Note_off_c, 0, 59, 100
2, 59520, Note_on_c, 0, 69, 127
2, 59640, Note_off_c, 0, 69, 100
2, 59904, Note_on_c, 0, 69, 127
2, 59960, Note_off_c, 0, 69, 100
2, 59968, Note_on_c, 0, 67, 127
2, 60024, Note_off_c, 0, 67, 100
2, 60032, Note_on_c, 0, 69, 127
2, 60088, Note_off_c, 0, 69, 100
2, 60096, Note_on_c, 0, 67, 127
2, 60280, Note_off_c, 0, 67, 100
2, 60288, Note_on_c, 0, 66, 127
2, 60472, Note_off_c, 0, 66, 100
2, 60480, Note_on_c, 0, 67, 127
2, 60664, Note_off_c, 0, 67, 100
2, 60672, Note_on_c, 0, 64, 127
2, 61816, Note_off_c, 0, 64, 100
2, 62208, Note_on_c, 0, 69, 127
2, 63352, Note_off_c, 0, 69, 100
2, 63360, Note_on_c, 0, 74, 127
2, 63480, Note_off_c, 0, 74, 100
2, 63744, Note_on_c, 0, 71, 127
2, 63864, Note_off_c, 0, 71, 100
2, 64128, Note_on_c, 0, 67, 127
2, 64768, Note_off_c, 0, 67, 100
2, 64896, Note_on_c, 0, 72, 127
2, 65080, Note_off_c, 0, 72, 100
2, 65088, Note_on_c, 0, 71, 127
2, 65272, Note_off_c, 0, 71, 100
2, 65280, Note_on_c, 0, 72, 127
2, 66808, Note_off_c, 0, 72, 100
2, 67200, Note_on_c, 0, 72, 127
2, 67320, Note_off_c, 0, 72, 100
2, 67584, Note_on_c, 0, 71, 127
2, 68344, Note_off_c, 0, 71, 100
2, 68736, Note_on_c, 0, 67, 127
2, 68856, Note_off_c, 0, 67, 100
2, 69120, Note_on_c, 0, 64, 127
2, 69888, Note_off_c, 0, 64, 100
2, 70272, Note_on_c, 0, 69, 127
2, 70456, Note_off_c, 0, 69, 100
2, 70464, Note_on_c, 0, 67, 127
2, 70648, Note_off_c, 0, 67, 100
2, 70656, Note_on_c, 0, 66, 127
2, 70776, Note_off_c, 0, 66, 100
2, 71040, Note_on_c, 0, 67, 127
2, 71800, Note_off_c, 0, 67, 100
2, 71808, Note_on_c, 0, 66, 127
2, 71928, Note_off_c, 0, 66, 100
2, 72192, Note_on_c, 0, 67, 127
2, 72320, Note_off_c, 0, 67, 100
2, 72384, Note_on_c, 0, 62, 127
2, 72568, Note_off_c, 0, 62, 100
2, 72576, Note_on_c, 0, 60, 127
2, 72760, Note_off_c, 0, 60, 100
2, 72768, Note_on_c, 0, 62, 127
2, 72952, Note_off_c, 0, 62, 100
2, 72960, Note_on_c, 0, 59, 127
2, 73472, Note_off_c, 0, 59, 100
2, 79872, Note_on_c, 0, 71, 127
2, 79928, Note_off_c, 0, 71, 100
2, 79936, Note_on_c, 0, 69, 127
2, 79992, Note_off_c, 0, 69, 100
2, 80000, Note_on_c, 0, 71, 127
2, 80568, Note_off_c, 0, 71, 100
2, 80640, Note_on_c, 0, 72, 127
2, 80728, Note_off_c, 0, 72, 100
2, 80736, Note_on_c, 0, 71, 127
2, 80824, Note_off_c, 0, 71, 100
2, 80832, Note_on_c, 0, 72, 127
2, 80920, Note_off_c, 0, 72, 100
2, 80928, Note_on_c, 0, 71, 127
2, 81016, Note_off_c, 0, 71, 100
2, 81024, Note_on_c, 0, 72, 127
2, 81112, Note_off_c, 0, 72, 100
2, 81120, Note_on_c, 0, 71, 127
2, 81208, Note_off_c, 0, 71, 100
2, 81216, Note_on_c, 0, 69, 127
2, 81304, Note_off_c, 0, 69, 100
2, 81312, Note_on_c, 0, 71, 127
2, 81400, Note_off_c, 0, 71, 100
2, 81408, Note_on_c, 0, 72, 127
2, 81528, Note_off_c, 0, 72, 100
2, 81792, Note_on_c, 0, 69, 127
2, 81912, Note_off_c, 0, 69, 100
2, 82176, Note_on_c, 0, 66, 127
2, 82352, Note_off_c, 0, 66, 100
2, 82560, Note_on_c, 0, 69, 127
2, 82680, Note_off_c, 0, 69, 100
2, 82944, Note_on_c, 0, 66, 127
2, 83064, Note_off_c, 0, 66, 100
2, 83328, Note_on_c, 0, 71, 127
2, 83448, Note_off_c, 0, 71, 100
2, 83712, Note_on_c, 0, 59, 127
2, 83888, Note_off_c, 0, 59, 100
2, 84096, Note_on_c, 0, 69, 127
2, 84216, Note_off_c, 0, 69, 100
2, 84480, Note_on_c, 0, 69, 127
2, 84536, Note_off_c, 0, 69, 100
2, 84544, Note_on_c, 0, 67, 127
2, 84600, Note_off_c, 0, 67, 100
2, 84608, Note_on_c, 0, 69, 127
2, 84664, Note_off_c, 0, 69, 100
2, 84672, Note_on_c, 0, 67, 127
2, 84856, Note_off_c, 0, 67, 100
2, 84864, Note_on_c, 0, 66, 127
2, 85048, Note_off_c, 0, 66, 100
2, 85056, Note_on_c, 0, 67, 127
2, 85240, Note_off_c, 0, 67, 100
2, 85248, Note_on_c, 0, 64, 127
2, 86392, Note_off_c, 0, 64, 64
2, 86784, Note_on_c, 0, 69, 127
2, 87928, Note_off_c, 0, 69, 64
2, 87936, Note_on_c, 0, 74, 127
2, 88056, Note_off_c, 0, 74, 100
2, 88320, Note_on_c, 0, 71, 127
2, 88440, Note_off_c, 0, 71, 100
2, 88704, Note_on_c, 0, 67, 127
2, 89344, Note_off_c, 0, 67, 64
2, 89472, Note_on_c, 0, 72, 127
2, 89656, Note_off_c, 0, 72, 100
2, 89664, Note_on_c, 0, 71, 127
2, 89848, Note_off_c, 0, 71, 100
2, 89856, Note_on_c, 0, 72, 127
2, 91384, Note_off_c, 0, 72, 64
2, 91776, Note_on_c, 0, 72, 127
2, 91896, Note_off_c, 0, 72, 100
2, 92160, Note_on_c, 0, 71, 127
2, 92920, Note_off_c, 0, 71, 100
2, 93312, Note_on_c, 0, 67, 127
2, 93432, Note_off_c, 0, 67, 100
2, 93696, Note_on_c, 0, 64, 127
2, 94464, Note_off_c, 0, 64, 100
2, 94848, Note_on_c, 0, 69, 127
2, 95032, Note_off_c, 0, 69, 100
2, 95040, Note_on_c, 0, 67, 127
2, 95224, Note_off_c, 0, 67, 100
2, 95232, Note_on_c, 0, 66, 127
2, 95352, Note_off_c, 0, 66, 100
2, 95616, Note_on_c, 0, 67, 127
2, 96376, Note_off_c, 0, 67, 100
2, 96384, Note_on_c, 0, 66, 127
2, 96504, Note_off_c, 0, 66, 100
2, 96768, Note_on_c, 0, 67, 127
2, 96896, Note_off_c, 0, 67, 100
2, 96960, Note_on_c, 0, 62, 127
2, 97144, Note_off_c, 0, 62, 100
2, 97152, Note_on_c, 0, 60, 127
2, 97336, Note_off_c, 0, 60, 100
2, 97344, Note_on_c, 0, 62, 127
2, 97528, Note_off_c, 0, 62, 100
2, 97536, Note_on_c, 0, 59, 127
2, 98048, Note_off_c, 0, 59, 100
2, 98048, End_track
3, 0, Start_track
3, 0, Title_t, "Goldberg Variations"
3, 0, Control_c, 1, 0, 0
3, 0, Program_c, 1, 6
3, 0, Control_c, 1, 7, 127
3, 0, Control_c, 1, 10, 127
3, 0, Control_c, 1, 91, 127
3, 0, Key_signature, 1, "major"
3, 18432, Note_on_c, 1, 69, 127
3, 18488, Note_off_c, 1, 69, 100
3, 18496, Note_on_c, 1, 67, 127
3, 18552, Note_off_c, 1, 67, 100
3, 18560, Note_on_c, 1, 69, 127
3, 19128, Note_off_c, 1, 69, 100
3, 19200, Note_on_c, 1, 71, 127
3, 19288, Note_off_c, 1, 71, 100
3, 19296, Note_on_c, 1, 69, 127
3, 19384, Note_off_c, 1, 69, 100
3, 19392, Note_on_c, 1, 71, 127
3, 19480, Note_off_c, 1, 71, 100
3, 19488, Note_on_c, 1, 69, 127
3, 19576, Note_off_c, 1, 69, 100
3, 19584, Note_on_c, 1, 71, 127
3, 19672, Note_off_c, 1, 71, 100
3, 19680, Note_on_c, 1, 69, 127
3, 19768, Note_off_c, 1, 69, 100
3, 19776, Note_on_c, 1, 67, 127
3, 19864, Note_off_c, 1, 67, 100
3, 19872, Note_on_c, 1, 69, 127
3, 19960, Note_off_c, 1, 69, 100
3, 19968, Note_on_c, 1, 71, 127
3, 20088, Note_off_c, 1, 71, 100
3, 20352, Note_on_c, 1, 67, 127
3, 20472, Note_off_c, 1, 67, 100
3, 20736, Note_on_c, 1, 64, 127
3, 20912, Note_off_c, 1, 64, 100
3, 21120, Note_on_c, 1, 67, 127
3, 21240, Note_off_c, 1, 67, 100
3, 21504, Note_on_c, 1, 64, 127
3, 21624, Note_off_c, 1, 64, 100
3, 21888, Note_on_c, 1, 69, 127
3, 22008, Note_off_c, 1, 69, 100
3, 22272, Note_on_c, 1, 57, 127
3, 22448, Note_off_c, 1, 57, 100
3, 22656, Note_on_c, 1, 67, 127
3, 22776, Note_off_c, 1, 67, 100
3, 23040, Note_on_c, 1, 67, 127
3, 23096, Note_off_c, 1, 67, 100
3, 23104, Note_on_c, 1, 66, 127
3, 23160, Note_off_c, 1, 66, 100
3, 23168, Note_on_c, 1, 67, 127
3, 23224, Note_off_c, 1, 67, 100
3, 23232, Note_on_c, 1, 66, 127
3, 23360, Note_off_c, 1, 66, 100
3, 23424, Note_on_c, 1, 64, 127
3, 23608, Note_off_c, 1, 64, 100
3, 23616, Note_on_c, 1, 66, 127
3, 23800, Note_off_c, 1, 66, 100
3, 23808, Note_on_c, 1, 62, 127
3, 24320, Note_off_c, 1, 62, 100
3, 43008, Note_on_c, 1, 69, 127
3, 43064, Note_off_c, 1, 69, 100
3, 43072, Note_on_c, 1, 67, 127
3, 43128, Note_off_c, 1, 67, 100
3, 43136, Note_on_c, 1, 69, 127
3, 43704, Note_off_c, 1, 69, 100
3, 43776, Note_on_c, 1, 71, 127
3, 43864, Note_off_c, 1, 71, 100
3, 43872, Note_on_c, 1, 69, 127
3, 43960, Note_off_c, 1, 69, 100
3, 43968, Note_on_c, 1, 71, 127
3, 44056, Note_off_c, 1, 71, 100
3, 44064, Note_on_c, 1, 69, 127
3, 44152, Note_off_c, 1, 69, 100
3, 44160, Note_on_c, 1, 71, 127
3, 44248, Note_off_c, 1, 71, 100
3, 44256, Note_on_c, 1, 69, 127
3, 44344, Note_off_c, 1, 69, 100
3, 44352, Note_on_c, 1, 67, 127
3, 44440, Note_off_c, 1, 67, 100
3, 44448, Note_on_c, 1, 69, 127
3, 44536, Note_off_c, 1, 69, 100
3, 44544, Note_on_c, 1, 71, 127
3, 44664, Note_off_c, 1, 71, 100
3, 44928, Note_on_c, 1, 67, 127
3, 45048, Note_off_c, 1, 67, 100
3, 45312, Note_on_c, 1, 64, 127
3, 45488, Note_off_c, 1, 64, 100
3, 45696, Note_on_c, 1, 67, 127
3, 45816, Note_off_c, 1, 67, 100
3, 46080, Note_on_c, 1, 64, 127
3, 46200, Note_off_c, 1, 64, 100
3, 46464, Note_on_c, 1, 69, 127
3, 46584, Note_off_c, 1, 69, 100
3, 46848, Note_on_c, 1, 57, 127
3, 47024, Note_off_c, 1, 57, 100
3, 47232, Note_on_c, 1, 67, 127
3, 47352, Note_off_c, 1, 67, 100
3, 47616, Note_on_c, 1, 67, 127
3, 47672, Note_off_c, 1, 67, 100
3, 47680, Note_on_c, 1, 66, 127
3, 47736, Note_off_c, 1, 66, 100
3, 47744, Note_on_c, 1, 67, 127
3, 47800, Note_off_c, 1, 67, 100
3, 47808, Note_on_c, 1, 66, 127
3, 47936, Note_off_c, 1, 66, 100
3, 48000, Note_on_c, 1, 64, 127
3, 48184, Note_off_c, 1, 64, 100
3, 48192, Note_on_c, 1, 66, 127
3, 48376, Note_off_c, 1, 66, 100
3, 48384, Note_on_c, 1, 62, 127
3, 48896, Note_off_c, 1, 62, 100
3, 49152, Note_on_c, 1, 78, 127
3, 49208, Note_off_c, 1, 78, 100
3, 49216, Note_on_c, 1, 76, 127
3, 49272, Note_off_c, 1, 76, 100
3, 49280, Note_on_c, 1, 78, 127
3, 49848, Note_off_c, 1, 78, 100
3, 49920, Note_on_c, 1, 79, 127
3, 50008, Note_off_c, 1, 79, 100
3, 50016, Note_on_c, 1, 78, 127
3, 50104, Note_off_c, 1, 78, 100
3, 50112, Note_on_c, 1, 79, 127
3, 50200, Note_off_c, 1, 79, 100
3, 50208, Note_on_c, 1, 78, 127
3, 50296, Note_off_c, 1, 78, 100
3, 50304, Note_on_c, 1, 79, 127
3, 50392, Note_off_c, 1, 79, 100
3, 50400, Note_on_c, 1, 78, 127
3, 50488, Note_off_c, 1, 78, 100
3, 50496, Note_on_c, 1, 76, 127
3, 50584, Note_off_c, 1, 76, 100
3, 50592, Note_on_c, 1, 78, 127
3, 50680, Note_off_c, 1, 78, 100
3, 50688, Note_on_c, 1, 79, 127
3, 50808, Note_off_c, 1, 79, 100
3, 51072, Note_on_c, 1, 74, 127
3, 51192, Note_off_c, 1, 74, 100
3, 51456, Note_on_c, 1, 71, 127
3, 51632, Note_off_c, 1, 71, 100
3, 51840, Note_on_c, 1, 74, 127
3, 51960, Note_off_c, 1, 74, 100
3, 52224, Note_on_c, 1, 72, 127
3, 52344, Note_off_c, 1, 72, 100
3, 52608, Note_on_c, 1, 77, 127
3, 52728, Note_off_c, 1, 77, 100
3, 52992, Note_on_c, 1, 65, 127
3, 53168, Note_off_c, 1, 65, 100
3, 53376, Note_on_c, 1, 76, 127
3, 53496, Note_off_c, 1, 76, 100
3, 53760, Note_on_c, 1, 76, 127
3, 53816, Note_off_c, 1, 76, 100
3, 53824, Note_on_c, 1, 75, 127
3, 53880, Note_off_c, 1, 75, 100
3, 53888, Note_on_c, 1, 76, 127
3, 53944, Note_off_c, 1, 76, 100
3, 53952, Note_on_c, 1, 75, 127
3, 54080, Note_off_c, 1, 75, 100
3, 54144, Note_on_c, 1, 73, 127
3, 54328, Note_off_c, 1, 73, 100
3, 54336, Note_on_c, 1, 75, 127
3, 54520, Note_off_c, 1, 75, 100
3, 54528, Note_on_c, 1, 71, 127
3, 54712, Note_off_c, 1, 71, 100
3, 54720, Note_on_c, 1, 73, 127
3, 54904, Note_off_c, 1, 73, 100
3, 54912, Note_on_c, 1, 75, 127
3, 55096, Note_off_c, 1, 75, 100
3, 55104, Note_on_c, 1, 71, 127
3, 55232, Note_off_c, 1, 71, 100
3, 55296, Note_on_c, 1, 76, 127
3, 55416, Note_off_c, 1, 76, 100
3, 55680, Note_on_c, 1, 64, 127
3, 55800, Note_off_c, 1, 64, 100
3, 56064, Note_on_c, 1, 76, 127
3, 57208, Note_off_c, 1, 76, 100
3, 57216, Note_on_c, 1, 64, 127
3, 57336, Note_off_c, 1, 64, 100
3, 57600, Note_on_c, 1, 76, 127
3, 59128, Note_off_c, 1, 76, 100
3, 59136, Note_on_c, 1, 75, 127
3, 59896, Note_off_c, 1, 75, 100
3, 59904, Note_on_c, 1, 76, 127
3, 60664, Note_off_c, 1, 76, 100
3, 60864, Note_on_c, 1, 74, 127
3, 61048, Note_off_c, 1, 74, 100
3, 61056, Note_on_c, 1, 73, 127
3, 61240, Note_off_c, 1, 73, 100
3, 61248, Note_on_c, 1, 71, 127
3, 61432, Note_off_c, 1, 71, 100
3, 61440, Note_on_c, 1, 69, 127
3, 61560, Note_off_c, 1, 69, 100
3, 61824, Note_on_c, 1, 79, 127
3, 62584, Note_off_c, 1, 79, 100
3, 62592, Note_on_c, 1, 77, 127
3, 62776, Note_off_c, 1, 77, 100
3, 62784, Note_on_c, 1, 76, 127
3, 62968, Note_off_c, 1, 76, 100
3, 62976, Note_on_c, 1, 77, 127
3, 63744, Note_off_c, 1, 77, 100
3, 64128, Note_on_c, 1, 76, 127
3, 64312, Note_off_c, 1, 76, 100
3, 64320, Note_on_c, 1, 74, 127
3, 64504, Note_off_c, 1, 74, 100
3, 64512, Note_on_c, 1, 76, 127
3, 65280, Note_off_c, 1, 76, 100
3, 65664, Note_on_c, 1, 78, 127
3, 65848, Note_off_c, 1, 78, 100
3, 65856, Note_on_c, 1, 79, 127
3, 66040, Note_off_c, 1, 79, 100
3, 66048, Note_on_c, 1, 81, 127
3, 66232, Note_off_c, 1, 81, 100
3, 66240, Note_on_c, 1, 83, 127
3, 66368, Note_off_c, 1, 83, 100
3, 66432, Note_on_c, 1, 79, 127
3, 66616, Note_off_c, 1, 79, 100
3, 66624, Note_on_c, 1, 81, 127
3, 66752, Note_off_c, 1, 81, 100
3, 66816, Note_on_c, 1, 78, 127
3, 66936, Note_off_c, 1, 78, 100
3, 67200, Note_on_c, 1, 81, 127
3, 67960, Note_off_c, 1, 81, 100
3, 67968, Note_on_c, 1, 79, 127
3, 68152, Note_off_c, 1, 79, 100
3, 68160, Note_on_c, 1, 78, 127
3, 68344, Note_off_c, 1, 78, 100
3, 68352, Note_on_c, 1, 79, 127
3, 68472, Note_off_c, 1, 79, 100
3, 68736, Note_on_c, 1, 71, 127
3, 69496, Note_off_c, 1, 71, 100
3, 69504, Note_on_c, 1, 69, 127
3, 69688, Note_off_c, 1, 69, 100
3, 69696, Note_on_c, 1, 71, 127
3, 69880, Note_off_c, 1, 71, 100
3, 69888, Note_on_c, 1, 72, 127
3, 71032, Note_off_c, 1, 72, 100
3, 71040, Note_on_c, 1, 71, 127
3, 71160, Note_off_c, 1, 71, 100
3, 71424, Note_on_c, 1, 69, 127
3, 72184, Note_off_c, 1, 69, 100
3, 72192, Note_on_c, 1, 67, 127
3, 73472, Note_off_c, 1, 67, 100
3, 73728, Note_on_c, 1, 78, 127
3, 73784, Note_off_c, 1, 78, 100
3, 73792, Note_on_c, 1, 76, 127
3, 73848, Note_off_c, 1, 76, 100
3, 73856, Note_on_c, 1, 78, 127
3, 74424, Note_off_c, 1, 78, 100
3, 74496, Note_on_c, 1, 79, 127
3, 74584, Note_off_c, 1, 79, 100
3, 74592, Note_on_c, 1, 78, 127
3, 74680, Note_off_c, 1, 78, 100
3, 74688, Note_on_c, 1, 79, 127
3, 74776, Note_off_c, 1, 79, 100
3, 74784, Note_on_c, 1, 78, 127
3, 74872, Note_off_c, 1, 78, 100
3, 74880, Note_on_c, 1, 79, 127
3, 74968, Note_off_c, 1, 79, 100
3, 74976, Note_on_c, 1, 78, 127
3, 75064, Note_off_c, 1, 78, 100
3, 75072, Note_on_c, 1, 76, 127
3, 75160, Note_off_c, 1, 76, 100
3, 75168, Note_on_c, 1, 78, 127
3, 75256, Note_off_c, 1, 78, 100
3, 75264, Note_on_c, 1, 79, 127
3, 75384, Note_off_c, 1, 79, 100
3, 75648, Note_on_c, 1, 74, 127
3, 75768, Note_off_c, 1, 74, 100
3, 76032, Note_on_c, 1, 71, 127
3, 76208, Note_off_c, 1, 71, 100
3, 76416, Note_on_c, 1, 74, 127
3, 76536, Note_off_c, 1, 74, 100
3, 76800, Note_on_c, 1, 72, 127
3, 76920, Note_off_c, 1, 72, 100
3, 77184, Note_on_c, 1, 77, 127
3, 77304, Note_off_c, 1, 77, 100
3, 77568, Note_on_c, 1, 65, 127
3, 77744, Note_off_c, 1, 65, 100
3, 77952, Note_on_c, 1, 76, 127
3, 78072, Note_off_c, 1, 76, 100
3, 78336, Note_on_c, 1, 76, 127
3, 78392, Note_off_c, 1, 76, 100
3, 78400, Note_on_c, 1, 75, 127
3, 78456, Note_off_c, 1, 75, 100
3, 78464, Note_on_c, 1, 76, 127
3, 78520, Note_off_c, 1, 76, 100
3, 78528, Note_on_c, 1, 75, 127
3, 78656, Note_off_c, 1, 75, 100
3, 78720, Note_on_c, 1, 73, 127
3, 78904, Note_off_c, 1, 73, 100
3, 78912, Note_on_c, 1, 75, 127
3, 79096, Note_off_c, 1, 75, 100
3, 79104, Note_on_c, 1, 71, 127
3, 79288, Note_off_c, 1, 71, 100
3, 79296, Note_on_c, 1, 73, 127
3, 79480, Note_off_c, 1, 73, 100
3, 79488, Note_on_c, 1, 75, 127
3, 79672, Note_off_c, 1, 75, 100
3, 79680, Note_on_c, 1, 71, 127
3, 79808, Note_off_c, 1, 71, 100
3, 79872, Note_on_c, 1, 76, 127
3, 79992, Note_off_c, 1, 76, 100
3, 80256, Note_on_c, 1, 64, 127
3, 80376, Note_off_c, 1, 64, 100
3, 80640, Note_on_c, 1, 76, 127
3, 81784, Note_off_c, 1, 76, 64
3, 81792, Note_on_c, 1, 64, 127
3, 81912, Note_off_c, 1, 64, 100
3, 82176, Note_on_c, 1, 76, 127
3, 83704, Note_off_c, 1, 76, 64
3, 83712, Note_on_c, 1, 75, 127
3, 84472, Note_off_c, 1, 75, 100
3, 84480, Note_on_c, 1, 76, 127
3, 85240, Note_off_c, 1, 76, 100
3, 85440, Note_on_c, 1, 74, 127
3, 85624, Note_off_c, 1, 74, 100
3, 85632, Note_on_c, 1, 73, 127
3, 85816, Note_off_c, 1, 73, 100
3, 85824, Note_on_c, 1, 71, 127
3, 86008, Note_off_c, 1, 71, 100
3, 86016, Note_on_c, 1, 69, 127
3, 86136, Note_off_c, 1, 69, 100
3, 86400, Note_on_c, 1, 79, 127
3, 87160, Note_off_c, 1, 79, 100
3, 87168, Note_on_c, 1, 77, 127
3, 87352, Note_off_c, 1, 77, 100
3, 87360, Note_on_c, 1, 76, 127
3, 87544, Note_off_c, 1, 76, 100
3, 87552, Note_on_c, 1, 77, 127
3, 88320, Note_off_c, 1, 77, 100
3, 88704, Note_on_c, 1, 76, 127
3, 88888, Note_off_c, 1, 76, 100
3, 88896, Note_on_c, 1, 74, 127
3, 89080, Note_off_c, 1, 74, 100
3, 89088, Note_on_c, 1, 76, 127
3, 89856, Note_off_c, 1, 76, 100
3, 90240, Note_on_c, 1, 78, 127
3, 90424, Note_off_c, 1, 78, 100
3, 90432, Note_on_c, 1, 79, 127
3, 90616, Note_off_c, 1, 79, 100
3, 90624, Note_on_c, 1, 81, 127
3, 90808, Note_off_c, 1, 81, 100
3, 90816, Note_on_c, 1, 83, 127
3, 90944, Note_off_c, 1, 83, 100
3, 91008, Note_on_c, 1, 79, 127
3, 91192, Note_off_c, 1, 79, 100
3, 91200, Note_on_c, 1, 81, 127
3, 91328, Note_off_c, 1, 81, 100
3, 91392, Note_on_c, 1, 78, 127
3, 91512, Note_off_c, 1, 78, 100
3, 91776, Note_on_c, 1, 81, 127
3, 92536, Note_off_c, 1, 81, 64
3, 92544, Note_on_c, 1, 79, 127
3, 92728, Note_off_c, 1, 79, 100
3, 92736, Note_on_c, 1, 78, 127
3, 92920, Note_off_c, 1, 78, 100
3, 92928, Note_on_c, 1, 79, 127
3, 93048, Note_off_c, 1, 79, 100
3, 93312, Note_on_c, 1, 71, 127
3, 94072, Note_off_c, 1, 71, 64
3, 94080, Note_on_c, 1, 69, 127
3, 94264, Note_off_c, 1, 69, 100
3, 94272, Note_on_c, 1, 71, 127
3, 94456, Note_off_c, 1, 71, 100
3, 94464, Note_on_c, 1, 72, 127
3, 95608, Note_off_c, 1, 72, 64
3, 95616, Note_on_c, 1, 71, 127
3, 95736, Note_off_c, 1, 71, 100
3, 96000, Note_on_c, 1, 69, 127
3, 96760, Note_off_c, 1, 69, 100
3, 96768, Note_on_c, 1, 67, 127
3, 98048, Note_off_c, 1, 67, 100
3, 98048, End_track
4, 0, Start_track
4, 0, Title_t, "BWV 988"
4, 0, Control_c, 2, 0, 0
4, 0, Program_c, 2, 6
4, 0, Control_c, 2, 7, 127
4, 0, Control_c, 2, 10, 45
4, 0, Control_c, 2, 91, 127
4, 0, Key_signature, 1, "major"
4, 6144, Note_on_c, 2, 62, 127
4, 6200, Note_off_c, 2, 62, 100
4, 6208, Note_on_c, 2, 60, 127
4, 6264, Note_off_c, 2, 60, 100
4, 6272, Note_on_c, 2, 62, 127
4, 6840, Note_off_c, 2, 62, 100
4, 6912, Note_on_c, 2, 64, 127
4, 7000, Note_off_c, 2, 64, 100
4, 7008, Note_on_c, 2, 62, 127
4, 7096, Note_off_c, 2, 62, 100
4, 7104, Note_on_c, 2, 64, 127
4, 7192, Note_off_c, 2, 64, 100
4, 7200, Note_on_c, 2, 62, 127
4, 7288, Note_off_c, 2, 62, 100
4, 7296, Note_on_c, 2, 64, 127
4, 7384, Note_off_c, 2, 64, 100
4, 7392, Note_on_c, 2, 62, 127
4, 7480, Note_off_c, 2, 62, 100
4, 7488, Note_on_c, 2, 60, 127
4, 7576, Note_off_c, 2, 60, 100
4, 7584, Note_on_c, 2, 62, 127
4, 7672, Note_off_c, 2, 62, 100
4, 7680, Note_on_c, 2, 64, 127
4, 7800, Note_off_c, 2, 64, 100
4, 8064, Note_on_c, 2, 60, 127
4, 8184, Note_off_c, 2, 60, 100
4, 8448, Note_on_c, 2, 57, 127
4, 8624, Note_off_c, 2, 57, 100
4, 8832, Note_on_c, 2, 60, 127
4, 8952, Note_off_c, 2, 60, 100
4, 9216, Note_on_c, 2, 57, 127
4, 9336, Note_off_c, 2, 57, 100
4, 9600, Note_on_c, 2, 62, 127
4, 9720, Note_off_c, 2, 62, 100
4, 9984, Note_on_c, 2, 50, 127
4, 10160, Note_off_c, 2, 50, 100
4, 10368, Note_on_c, 2, 60, 127
4, 10488, Note_off_c, 2, 60, 100
4, 10752, Note_on_c, 2, 60, 127
4, 10808, Note_off_c, 2, 60, 100
4, 10816, Note_on_c, 2, 59, 127
4, 10872, Note_off_c, 2, 59, 100
4, 10880, Note_on_c, 2, 60, 127
4, 10936, Note_off_c, 2, 60, 100
4, 10944, Note_on_c, 2, 59, 127
4, 11072, Note_off_c, 2, 59, 100
4, 11136, Note_on_c, 2, 57, 127
4, 11320, Note_off_c, 2, 57, 100
4, 11328, Note_on_c, 2, 59, 127
4, 11512, Note_off_c, 2, 59, 100
4, 11520, Note_on_c, 2, 55, 127
4, 11704, Note_off_c, 2, 55, 100
4, 11712, Note_on_c, 2, 59, 127
4, 11840, Note_off_c, 2, 59, 100
4, 11904, Note_on_c, 2, 57, 127
4, 12088, Note_off_c, 2, 57, 100
4, 12096, Note_on_c, 2, 60, 127
4, 12224, Note_off_c, 2, 60, 100
4, 12288, Note_on_c, 2, 59, 127
4, 12472, Note_off_c, 2, 59, 100
4, 12480, Note_on_c, 2, 57, 127
4, 12664, Note_off_c, 2, 57, 100
4, 12672, Note_on_c, 2, 59, 127
4, 12792, Note_off_c, 2, 59, 100
4, 13056, Note_on_c, 2, 64, 127
4, 14200, Note_off_c, 2, 64, 100
4, 14208, Note_on_c, 2, 57, 127
4, 14328, Note_off_c, 2, 57, 100
4, 14592, Note_on_c, 2, 62, 127
4, 15736, Note_off_c, 2, 62, 100
4, 15744, Note_on_c, 2, 59, 127
4, 15864, Note_off_c, 2, 59, 100
4, 16128, Note_on_c, 2, 64, 127
4, 17272, Note_off_c, 2, 64, 100
4, 17280, Note_on_c, 2, 62, 127
4, 17400, Note_off_c, 2, 62, 100
4, 17664, Note_on_c, 2, 61, 127
4, 18040, Note_off_c, 2, 61, 100
4, 18048, Note_on_c, 2, 64, 127
4, 18168, Note_off_c, 2, 64, 100
4, 18432, Note_on_c, 2, 57, 127
4, 18560, Note_off_c, 2, 57, 100
4, 18624, Note_on_c, 2, 59, 127
4, 18808, Note_off_c, 2, 59, 100
4, 18816, Note_on_c, 2, 57, 127
4, 19000, Note_off_c, 2, 57, 100
4, 19008, Note_on_c, 2, 55, 127
4, 19192, Note_off_c, 2, 55, 100
4, 19200, Note_on_c, 2, 54, 127
4, 19712, Note_off_c, 2, 54, 100
4, 19968, Note_on_c, 2, 55, 127
4, 20480, Note_off_c, 2, 55, 100
4, 21888, Note_on_c, 2, 52, 127
4, 22008, Note_off_c, 2, 52, 100
4, 22272, Note_on_c, 2, 57, 127
4, 23032, Note_off_c, 2, 57, 100
4, 23232, Note_on_c, 2, 57, 127
4, 23416, Note_off_c, 2, 57, 100
4, 23424, Note_on_c, 2, 55, 127
4, 23608, Note_off_c, 2, 55, 100
4, 23616, Note_on_c, 2, 57, 127
4, 23800, Note_off_c, 2, 57, 100
4, 23808, Note_on_c, 2, 54, 127
4, 24320, Note_off_c, 2, 54, 100
4, 30720, Note_on_c, 2, 62, 127
4, 30776, Note_off_c, 2, 62, 100
4, 30784, Note_on_c, 2, 60, 127
4, 30840, Note_off_c, 2, 60, 100
4, 30848, Note_on_c, 2, 62, 127
4, 31416, Note_off_c, 2, 62, 100
4, 31488, Note_on_c, 2, 64, 127
4, 31576, Note_off_c, 2, 64, 100
4, 31584, Note_on_c, 2, 62, 127
4, 31672, Note_off_c, 2, 62, 100
4, 31680, Note_on_c, 2, 64, 127
4, 31768, Note_off_c, 2, 64, 100
4, 31776, Note_on_c, 2, 62, 127
4, 31864, Note_off_c, 2, 62, 100
4, 31872, Note_on_c, 2, 64, 127
4, 31960, Note_off_c, 2, 64, 100
4, 31968, Note_on_c, 2, 62, 127
4, 32056, Note_off_c, 2, 62, 100
4, 32064, Note_on_c, 2, 60, 127
4, 32152, Note_off_c, 2, 60, 100
4, 32160, Note_on_c, 2, 62, 127
4, 32248, Note_off_c, 2, 62, 100
4, 32256, Note_on_c, 2, 64, 127
4, 32376, Note_off_c, 2, 64, 100
4, 32640, Note_on_c, 2, 60, 127
4, 32760, Note_off_c, 2, 60, 100
4, 33024, Note_on_c, 2, 57, 127
4, 33200, Note_off_c, 2, 57, 100
4, 33408, Note_on_c, 2, 60, 127
4, 33528, Note_off_c, 2, 60, 100
4, 33792, Note_on_c, 2, 57, 127
4, 33912, Note_off_c, 2, 57, 100
4, 34176, Note_on_c, 2, 62, 127
4, 34296, Note_off_c, 2, 62, 100
4, 34560, Note_on_c, 2, 50, 127
4, 34736, Note_off_c, 2, 50, 100
4, 34944, Note_on_c, 2, 60, 127
4, 35064, Note_off_c, 2, 60, 100
4, 35328, Note_on_c, 2, 60, 127
4, 35384, Note_off_c, 2, 60, 100
4, 35392, Note_on_c, 2, 59, 127
4, 35448, Note_off_c, 2, 59, 100
4, 35456, Note_on_c, 2, 60, 127
4, 35512, Note_off_c, 2, 60, 100
4, 35520, Note_on_c, 2, 59, 127
4, 35648, Note_off_c, 2, 59, 100
4, 35712, Note_on_c, 2, 57, 127
4, 35896, Note_off_c, 2, 57, 100
4, 35904, Note_on_c, 2, 59, 127
4, 36088, Note_off_c, 2, 59, 100
4, 36096, Note_on_c, 2, 55, 127
4, 36280, Note_off_c, 2, 55, 100
4, 36288, Note_on_c, 2, 59, 127
4, 36416, Note_off_c, 2, 59, 100
4, 36480, Note_on_c, 2, 57, 127
4, 36664, Note_off_c, 2, 57, 100
4, 36672, Note_on_c, 2, 60, 127
4, 36800, Note_off_c, 2, 60, 100
4, 36864, Note_on_c, 2, 59, 127
4, 37048, Note_off_c, 2, 59, 100
4, 37056, Note_on_c, 2, 57, 127
4, 37240, Note_off_c, 2, 57, 100
4, 37248, Note_on_c, 2, 59, 127
4, 37368, Note_off_c, 2, 59, 100
4, 37632, Note_on_c, 2, 64, 127
4, 38776, Note_off_c, 2, 64, 100
4, 38784, Note_on_c, 2, 57, 127
4, 38904, Note_off_c, 2, 57, 100
4, 39168, Note_on_c, 2, 62, 127
4, 40312, Note_off_c, 2, 62, 100
4, 40320, Note_on_c, 2, 59, 127
4, 40440, Note_off_c, 2, 59, 100
4, 40704, Note_on_c, 2, 64, 127
4, 41848, Note_off_c, 2, 64, 100
4, 41856, Note_on_c, 2, 62, 127
4, 41976, Note_off_c, 2, 62, 100
4, 42240, Note_on_c, 2, 61, 127
4, 42616, Note_off_c, 2, 61, 100
4, 42624, Note_on_c, 2, 64, 127
4, 42744, Note_off_c, 2, 64, 100
4, 43008, Note_on_c, 2, 57, 127
4, 43136, Note_off_c, 2, 57, 100
4, 43200, Note_on_c, 2, 59, 127
4, 43384, Note_off_c, 2, 59, 100
4, 43392, Note_on_c, 2, 57, 127
4, 43576, Note_off_c, 2, 57, 100
4, 43584, Note_on_c, 2, 55, 127
4, 43768, Note_off_c, 2, 55, 100
4, 43776, Note_on_c, 2, 54, 127
4, 44288, Note_off_c, 2, 54, 100
4, 44544, Note_on_c, 2, 55, 127
4, 45056, Note_off_c, 2, 55, 100
4, 46464, Note_on_c, 2, 52, 127
4, 46584, Note_off_c, 2, 52, 100
4, 46848, Note_on_c, 2, 57, 127
4, 47608, Note_off_c, 2, 57, 100
4, 47808, Note_on_c, 2, 57, 127
4, 47992, Note_off_c, 2, 57, 100
4, 48000, Note_on_c, 2, 55, 127
4, 48184, Note_off_c, 2, 55, 100
4, 48192, Note_on_c, 2, 57, 127
4, 48376, Note_off_c, 2, 57, 100
4, 48384, Note_on_c, 2, 54, 127
4, 48896, Note_off_c, 2, 54, 100
4, 61440, Note_on_c, 2, 49, 127
4, 61496, Note_off_c, 2, 49, 100
4, 61504, Note_on_c, 2, 47, 127
4, 61560, Note_off_c, 2, 47, 100
4, 61568, Note_on_c, 2, 49, 127
4, 62136, Note_off_c, 2, 49, 100
4, 62208, Note_on_c, 2, 50, 127
4, 62296, Note_off_c, 2, 50, 100
4, 62304, Note_on_c, 2, 49, 127
4, 62392, Note_off_c, 2, 49, 100
4, 62400, Note_on_c, 2, 50, 127
4, 62488, Note_off_c, 2, 50, 100
4, 62496, Note_on_c, 2, 49, 127
4, 62584, Note_off_c, 2, 49, 100
4, 62592, Note_on_c, 2, 50, 127
4, 62680, Note_off_c, 2, 50, 100
4, 62688, Note_on_c, 2, 49, 127
4, 62776, Note_off_c, 2, 49, 100
4, 62784, Note_on_c, 2, 47, 127
4, 62872, Note_off_c, 2, 47, 100
4, 62880, Note_on_c, 2, 49, 127
4, 62968, Note_off_c, 2, 49, 100
4, 62976, Note_on_c, 2, 50, 127
4, 63096, Note_off_c, 2, 50, 100
4, 63360, Note_on_c, 2, 47, 127
4, 63480, Note_off_c, 2, 47, 100
4, 63744, Note_on_c, 2, 43, 127
4, 63920, Note_off_c, 2, 43, 100
4, 64128, Note_on_c, 2, 47, 127
4, 64248, Note_off_c, 2, 47, 100
4, 64512, Note_on_c, 2, 48, 127
4, 64632, Note_off_c, 2, 48, 100
4, 64896, Note_on_c, 2, 52, 127
4, 65016, Note_off_c, 2, 52, 100
4, 65280, Note_on_c, 2, 45, 127
4, 65456, Note_off_c, 2, 45, 100
4, 65664, Note_on_c, 2, 55, 127
4, 65784, Note_off_c, 2, 55, 100
4, 66048, Note_on_c, 2, 55, 127
4, 66104, Note_off_c, 2, 55, 100
4, 66112, Note_on_c, 2, 54, 127
4, 66168, Note_off_c, 2, 54, 100
4, 66176, Note_on_c, 2, 55, 127
4, 66232, Note_off_c, 2, 55, 100
4, 66240, Note_on_c, 2, 54, 127
4, 66424, Note_off_c, 2, 54, 100
4, 66432, Note_on_c, 2, 52, 127
4, 66616, Note_off_c, 2, 52, 100
4, 66624, Note_on_c, 2, 54, 127
4, 66808, Note_off_c, 2, 54, 100
4, 66816, Note_on_c, 2, 50, 127
4, 67000, Note_off_c, 2, 50, 100
4, 67008, Note_on_c, 2, 52, 127
4, 67192, Note_off_c, 2, 52, 100
4, 67200, Note_on_c, 2, 54, 127
4, 67384, Note_off_c, 2, 54, 100
4, 67392, Note_on_c, 2, 50, 127
4, 67520, Note_off_c, 2, 50, 100
4, 67584, Note_on_c, 2, 55, 127
4, 67704, Note_off_c, 2, 55, 100
4, 67968, Note_on_c, 2, 57, 127
4, 68088, Note_off_c, 2, 57, 100
4, 68352, Note_on_c, 2, 59, 127
4, 68472, Note_off_c, 2, 59, 100
4, 68736, Note_on_c, 2, 55, 127
4, 68856, Note_off_c, 2, 55, 100
4, 69120, Note_on_c, 2, 48, 127
4, 69880, Note_off_c, 2, 48, 100
4, 70272, Note_on_c, 2, 57, 127
4, 70392, Note_off_c, 2, 57, 100
4, 70656, Note_on_c, 2, 50, 127
4, 71416, Note_off_c, 2, 50, 100
4, 71808, Note_on_c, 2, 50, 127
4, 71928, Note_off_c, 2, 50, 100
4, 72192, Note_on_c, 2, 55, 127
4, 72952, Note_off_c, 2, 55, 100
4, 72960, Note_on_c, 2, 43, 127
4, 73472, Note_off_c, 2, 43, 100
4, 86016, Note_on_c, 2, 49, 127
4, 86072, Note_off_c, 2, 49, 100
4, 86080, Note_on_c, 2, 47, 127
4, 86136, Note_off_c, 2, 47, 100
4, 86144, Note_on_c, 2, 49, 127
4, 86712, Note_off_c, 2, 49, 100
4, 86784, Note_on_c, 2, 50, 127
4, 86872, Note_off_c, 2, 50, 100
4, 86880, Note_on_c, 2, 49, 127
4, 86968, Note_off_c, 2, 49, 100
4, 86976, Note_on_c, 2, 50, 127
4, 87064, Note_off_c, 2, 50, 100
4, 87072, Note_on_c, 2, 49, 127
4, 87160, Note_off_c, 2, 49, 100
4, 87168, Note_on_c, 2, 50, 127
4, 87256, Note_off_c, 2, 50, 100
4, 87264, Note_on_c, 2, 49, 127
4, 87352, Note_off_c, 2, 49, 100
4, 87360, Note_on_c, 2, 47, 127
4, 87448, Note_off_c, 2, 47, 100
4, 87456, Note_on_c, 2, 49, 127
4, 87544, Note_off_c, 2, 49, 100
4, 87552, Note_on_c, 2, 50, 127
4, 87672, Note_off_c, 2, 50, 100
4, 87936, Note_on_c, 2, 47, 127
4, 88056, Note_off_c, 2, 47, 100
4, 88320, Note_on_c, 2, 43, 127
4, 88496, Note_off_c, 2, 43, 100
4, 88704, Note_on_c, 2, 47, 127
4, 88824, Note_off_c, 2, 47, 100
4, 89088, Note_on_c, 2, 48, 127
4, 89208, Note_off_c, 2, 48, 100
4, 89472, Note_on_c, 2, 52, 127
4, 89592, Note_off_c, 2, 52, 100
4, 89856, Note_on_c, 2, 45, 127
4, 90032, Note_off_c, 2, 45, 100
4, 90240, Note_on_c, 2, 55, 127
4, 90360, Note_off_c, 2, 55, 100
4, 90624, Note_on_c, 2, 55, 127
4, 90680, Note_off_c, 2, 55, 100
4, 90688, Note_on_c, 2, 54, 127
4, 90744, Note_off_c, 2, 54, 100
4, 90752, Note_on_c, 2, 55, 127
4, 90808, Note_off_c, 2, 55, 100
4, 90816, Note_on_c, 2, 54, 127
4, 91000, Note_off_c, 2, 54, 100
4, 91008, Note_on_c, 2, 52, 127
4, 91192, Note_off_c, 2, 52, 100
4, 91200, Note_on_c, 2, 54, 127
4, 91384, Note_off_c, 2, 54, 100
4, 91392, Note_on_c, 2, 50, 127
4, 91576, Note_off_c, 2, 50, 100
4, 91584, Note_on_c, 2, 52, 127
4, 91768, Note_off_c, 2, 52, 100
4, 91776, Note_on_c, 2, 54, 127
4, 91960, Note_off_c, 2, 54, 100
4, 91968, Note_on_c, 2, 50, 127
4, 92096, Note_off_c, 2, 50, 100
4, 92160, Note_on_c, 2, 55, 127
4, 92280, Note_off_c, 2, 55, 100
4, 92544, Note_on_c, 2, 57, 127
4, 92664, Note_off_c, 2, 57, 100
4, 92928, Note_on_c, 2, 59, 127
4, 93048, Note_off_c, 2, 59, 100
4, 93312, Note_on_c, 2, 55, 127
4, 93432, Note_off_c, 2, 55, 100
4, 93696, Note_on_c, 2, 48, 127
4, 94456, Note_off_c, 2, 48, 100
4, 94848, Note_on_c, 2, 57, 127
4, 94968, Note_off_c, 2, 57, 100
4, 95232, Note_on_c, 2, 50, 127
4, 95992, Note_off_c, 2, 50, 100
4, 96384, Note_on_c, 2, 50, 127
4, 96504, Note_off_c, 2, 50, 100
4, 96768, Note_on_c, 2, 55, 127
4, 97528, Note_off_c, 2, 55, 100
4, 97536, Note_on_c, 2, 43, 127
4, 98048, Note_off_c, 2, 43, 100
4, 98048, End_track
5, 0, Start_track
5, 0, Title_t, "Var.X, Fughetta: Allegro sostenuto (in 2)"
5, 0, Control_c, 3, 0, 0
5, 0, Program_c, 3, 6
5, 0, Control_c, 3, 7, 127
5, 0, Control_c, 3, 10, 87
5, 0, Control_c, 3, 91, 124
5, 0, Key_signature, 1, "major"
5, 0, Note_on_c, 3, 55, 127
5, 56, Note_off_c, 3, 55, 100
5, 64, Note_on_c, 3, 54, 127
5, 120, Note_off_c, 3, 54, 100
5, 128, Note_on_c, 3, 55, 127
5, 696, Note_off_c, 3, 55, 100
5, 768, Note_on_c, 3, 57, 127
5, 856, Note_off_c, 3, 57, 100
5, 864, Note_on_c, 3, 55, 127
5, 952, Note_off_c, 3, 55, 100
5, 960, Note_on_c, 3, 57, 127
5, 1048, Note_off_c, 3, 57, 100
5, 1056, Note_on_c, 3, 55, 127
5, 1144, Note_off_c, 3, 55, 100
5, 1152, Note_on_c, 3, 57, 127
5, 1240, Note_off_c, 3, 57, 100
5, 1248, Note_on_c, 3, 55, 127
5, 1336, Note_off_c, 3, 55, 100
5, 1344, Note_on_c, 3, 54, 127
5, 1432, Note_off_c, 3, 54, 100
5, 1440, Note_on_c, 3, 55, 127
5, 1528, Note_off_c, 3, 55, 100
5, 1536, Note_on_c, 3, 57, 127
5, 1656, Note_off_c, 3, 57, 100
5, 1920, Note_on_c, 3, 54, 127
5, 2040, Note_off_c, 3, 54, 100
5, 2304, Note_on_c, 3, 50, 127
5, 2480, Note_off_c, 3, 50, 100
5, 2688, Note_on_c, 3, 54, 127
5, 2808, Note_off_c, 3, 54, 100
5, 3072, Note_on_c, 3, 52, 127
5, 3192, Note_off_c, 3, 52, 100
5, 3456, Note_on_c, 3, 57, 127
5, 3576, Note_off_c, 3, 57, 100
5, 3840, Note_on_c, 3, 45, 127
5, 4016, Note_off_c, 3, 45, 100
5, 4224, Note_on_c, 3, 55, 127
5, 4344, Note_off_c, 3, 55, 100
5, 4608, Note_on_c, 3, 55, 127
5, 4664, Note_off_c, 3, 55, 100
5, 4672, Note_on_c, 3, 54, 127
5, 4728, Note_off_c, 3, 54, 100
5, 4736, Note_on_c, 3, 55, 127
5, 4792, Note_off_c, 3, 55, 100
5, 4800, Note_on_c, 3, 54, 127
5, 4928, Note_off_c, 3, 54, 100
5, 4992, Note_on_c, 3, 52, 127
5, 5176, Note_off_c, 3, 52, 100
5, 5184, Note_on_c, 3, 54, 127
5, 5368, Note_off_c, 3, 54, 100
5, 5376, Note_on_c, 3, 50, 127
5, 5560, Note_off_c, 3, 50, 100
5, 5568, Note_on_c, 3, 52, 127
5, 5696, Note_off_c, 3, 52, 100
5, 5760, Note_on_c, 3, 48, 127
5, 5944, Note_off_c, 3, 48, 100
5, 5952, Note_on_c, 3, 50, 127
5, 6080, Note_off_c, 3, 50, 100
5, 6144, Note_on_c, 3, 47, 127
5, 6272, Note_off_c, 3, 47, 100
5, 6336, Note_on_c, 3, 50, 127
5, 6520, Note_off_c, 3, 50, 100
5, 6528, Note_on_c, 3, 52, 127
5, 6712, Note_off_c, 3, 52, 100
5, 6720, Note_on_c, 3, 54, 127
5, 6904, Note_off_c, 3, 54, 100
5, 6912, Note_on_c, 3, 55, 127
5, 7032, Note_off_c, 3, 55, 100
5, 7296, Note_on_c, 3, 47, 127
5, 7416, Note_off_c, 3, 47, 100
5, 7680, Note_on_c, 3, 48, 127
5, 8440, Note_off_c, 3, 48, 100
5, 8832, Note_on_c, 3, 45, 127
5, 8952, Note_off_c, 3, 45, 100
5, 9216, Note_on_c, 3, 42, 127
5, 9976, Note_off_c, 3, 42, 100
5, 10368, Note_on_c, 3, 38, 127
5, 10488, Note_off_c, 3, 38, 100
5, 10752, Note_on_c, 3, 43, 127
5, 11008, Note_off_c, 3, 43, 100
5, 11136, Note_on_c, 3, 50, 127
5, 11256, Note_off_c, 3, 50, 100
5, 11520, Note_on_c, 3, 47, 127
5, 11640, Note_off_c, 3, 47, 100
5, 11904, Note_on_c, 3, 50, 127
5, 12024, Note_off_c, 3, 50, 100
5, 12288, Note_on_c, 3, 55, 127
5, 13048, Note_off_c, 3, 55, 100
5, 13440, Note_on_c, 3, 52, 127
5, 13560, Note_off_c, 3, 52, 100
5, 13824, Note_on_c, 3, 54, 127
5, 14584, Note_off_c, 3, 54, 100
5, 14976, Note_on_c, 3, 50, 127
5, 15096, Note_off_c, 3, 50, 100
5, 15360, Note_on_c, 3, 55, 127
5, 16120, Note_off_c, 3, 55, 100
5, 16512, Note_on_c, 3, 52, 127
5, 16632, Note_off_c, 3, 52, 100
5, 16896, Note_on_c, 3, 57, 127
5, 17656, Note_off_c, 3, 57, 100
5, 18048, Note_on_c, 3, 55, 127
5, 18168, Note_off_c, 3, 55, 100
5, 18432, Note_on_c, 3, 54, 127
5, 19192, Note_off_c, 3, 54, 100
5, 19584, Note_on_c, 3, 50, 127
5, 19704, Note_off_c, 3, 50, 100
5, 19968, Note_on_c, 3, 43, 127
5, 20224, Note_off_c, 3, 43, 100
5, 20352, Note_on_c, 3, 47, 127
5, 20472, Note_off_c, 3, 47, 100
5, 20736, Note_on_c, 3, 43, 127
5, 20856, Note_off_c, 3, 43, 100
5, 21120, Note_on_c, 3, 40, 127
5, 21240, Note_off_c, 3, 40, 100
5, 21504, Note_on_c, 3, 45, 127
5, 22264, Note_off_c, 3, 45, 100
5, 22656, Note_on_c, 3, 45, 127
5, 22776, Note_off_c, 3, 45, 100
5, 23040, Note_on_c, 3, 50, 127
5, 24320, Note_off_c, 3, 50, 100
5, 24576, Note_on_c, 3, 55, 127
5, 24632, Note_off_c, 3, 55, 100
5, 24640, Note_on_c, 3, 54, 127
5, 24696, Note_off_c, 3, 54, 100
5, 24704, Note_on_c, 3, 55, 127
5, 25272, Note_off_c, 3, 55, 100
5, 25344, Note_on_c, 3, 57, 127
5, 25432, Note_off_c, 3, 57, 100
5, 25440, Note_on_c, 3, 55, 127
5, 25528, Note_off_c, 3, 55, 100
5, 25536, Note_on_c, 3, 57, 127
5, 25624, Note_off_c, 3, 57, 100
5, 25632, Note_on_c, 3, 55, 127
5, 25720, Note_off_c, 3, 55, 100
5, 25728, Note_on_c, 3, 57, 127
5, 25816, Note_off_c, 3, 57, 100
5, 25824, Note_on_c, 3, 55, 127
5, 25912, Note_off_c, 3, 55, 100
5, 25920, Note_on_c, 3, 54, 127
5, 26008, Note_off_c, 3, 54, 100
5, 26016, Note_on_c, 3, 55, 127
5, 26104, Note_off_c, 3, 55, 100
5, 26112, Note_on_c, 3, 57, 127
5, 26232, Note_off_c, 3, 57, 100
5, 26496, Note_on_c, 3, 54, 127
5, 26616, Note_off_c, 3, 54, 100
5, 26880, Note_on_c, 3, 50, 127
5, 27056, Note_off_c, 3, 50, 100
5, 27264, Note_on_c, 3, 54, 127
5, 27384, Note_off_c, 3, 54, 100
5, 27648, Note_on_c, 3, 52, 127
5, 27768, Note_off_c, 3, 52, 100
5, 28032, Note_on_c, 3, 57, 127
5, 28152, Note_off_c, 3, 57, 100
5, 28416, Note_on_c, 3, 45, 127
5, 28592, Note_off_c, 3, 45, 100
5, 28800, Note_on_c, 3, 55, 127
5, 28920, Note_off_c, 3, 55, 100
5, 29184, Note_on_c, 3, 55, 127
5, 29240, Note_off_c, 3, 55, 100
5, 29248, Note_on_c, 3, 54, 127
5, 29304, Note_off_c, 3, 54, 100
5, 29312, Note_on_c, 3, 55, 127
5, 29368, Note_off_c, 3, 55, 100
5, 29376, Note_on_c, 3, 54, 127
5, 29504, Note_off_c, 3, 54, 100
5, 29568, Note_on_c, 3, 52, 127
5, 29752, Note_off_c, 3, 52, 100
5, 29760, Note_on_c, 3, 54, 127
5, 29944, Note_off_c, 3, 54, 100
5, 29952, Note_on_c, 3, 50, 127
5, 30136, Note_off_c, 3, 50, 100
5, 30144, Note_on_c, 3, 52, 127
5, 30272, Note_off_c, 3, 52, 100
5, 30336, Note_on_c, 3, 48, 127
5, 30520, Note_off_c, 3, 48, 100
5, 30528, Note_on_c, 3, 50, 127
5, 30656, Note_off_c, 3, 50, 100
5, 30720, Note_on_c, 3, 47, 127
5, 30848, Note_off_c, 3, 47, 100
5, 30912, Note_on_c, 3, 50, 127
5, 31096, Note_off_c, 3, 50, 100
5, 31104, Note_on_c, 3, 52, 127
5, 31288, Note_off_c, 3, 52, 100
5, 31296, Note_on_c, 3, 54, 127
5, 31480, Note_off_c, 3, 54, 100
5, 31488, Note_on_c, 3, 55, 127
5, 31608, Note_off_c, 3, 55, 100
5, 31872, Note_on_c, 3, 47, 127
5, 31992, Note_off_c, 3, 47, 100
5, 32256, Note_on_c, 3, 48, 127
5, 33016, Note_off_c, 3, 48, 100
5, 33408, Note_on_c, 3, 45, 127
5, 33528, Note_off_c, 3, 45, 100
5, 33792, Note_on_c, 3, 42, 127
5, 34552, Note_off_c, 3, 42, 100
5, 34944, Note_on_c, 3, 38, 127
5, 35064, Note_off_c, 3, 38, 100
5, 35328, Note_on_c, 3, 43, 127
5, 35584, Note_off_c, 3, 43, 100
5, 35712, Note_on_c, 3, 50, 127
5, 35832, Note_off_c, 3, 50, 100
5, 36096, Note_on_c, 3, 47, 127
5, 36216, Note_off_c, 3, 47, 100
5, 36480, Note_on_c, 3, 50, 127
5, 36600, Note_off_c, 3, 50, 100
5, 36864, Note_on_c, 3, 55, 127
5, 37624, Note_off_c, 3, 55, 100
5, 38016, Note_on_c, 3, 52, 127
5, 38136, Note_off_c, 3, 52, 100
5, 38400, Note_on_c, 3, 54, 127
5, 39160, Note_off_c, 3, 54, 100
5, 39552, Note_on_c, 3, 50, 127
5, 39672, Note_off_c, 3, 50, 100
5, 39936, Note_on_c, 3, 55, 127
5, 40696, Note_off_c, 3, 55, 100
5, 41088, Note_on_c, 3, 52, 127
5, 41208, Note_off_c, 3, 52, 100
5, 41472, Note_on_c, 3, 57, 127
5, 42232, Note_off_c, 3, 57, 100
5, 42624, Note_on_c, 3, 55, 127
5, 42744, Note_off_c, 3, 55, 100
5, 43008, Note_on_c, 3, 54, 127
5, 43768, Note_off_c, 3, 54, 100
5, 44160, Note_on_c, 3, 50, 127
5, 44280, Note_off_c, 3, 50, 100
5, 44544, Note_on_c, 3, 43, 127
5, 44800, Note_off_c, 3, 43, 100
5, 44928, Note_on_c, 3, 47, 127
5, 45048, Note_off_c, 3, 47, 100
5, 45312, Note_on_c, 3, 43, 127
5, 45432, Note_off_c, 3, 43, 100
5, 45696, Note_on_c, 3, 40, 127
5, 45816, Note_off_c, 3, 40, 100
5, 46080, Note_on_c, 3, 45, 127
5, 46840, Note_off_c, 3, 45, 100
5, 47232, Note_on_c, 3, 45, 127
5, 47352, Note_off_c, 3, 45, 100
5, 47616, Note_on_c, 3, 50, 127
5, 48896, Note_off_c, 3, 50, 100
5, 49152, Note_on_c, 3, 50, 127
5, 49336, Note_off_c, 3, 50, 100
5, 49344, Note_on_c, 3, 52, 127
5, 49528, Note_off_c, 3, 52, 100
5, 49536, Note_on_c, 3, 54, 127
5, 49720, Note_off_c, 3, 54, 100
5, 49728, Note_on_c, 3, 55, 127
5, 49912, Note_off_c, 3, 55, 100
5, 49920, Note_on_c, 3, 57, 127
5, 50040, Note_off_c, 3, 57, 100
5, 50304, Note_on_c, 3, 48, 127
5, 50424, Note_off_c, 3, 48, 100
5, 50688, Note_on_c, 3, 47, 127
5, 50816, Note_off_c, 3, 47, 100
5, 50880, Note_on_c, 3, 50, 127
5, 51064, Note_off_c, 3, 50, 100
5, 51072, Note_on_c, 3, 52, 127
5, 51256, Note_off_c, 3, 52, 100
5, 51264, Note_on_c, 3, 54, 127
5, 51448, Note_off_c, 3, 54, 100
5, 51456, Note_on_c, 3, 55, 127
5, 51640, Note_off_c, 3, 55, 100
5, 51648, Note_on_c, 3, 57, 127
5, 51832, Note_off_c, 3, 57, 100
5, 51840, Note_on_c, 3, 59, 127
5, 52480, Note_off_c, 3, 59, 100
5, 52608, Note_on_c, 3, 57, 127
5, 52792, Note_off_c, 3, 57, 100
5, 52800, Note_on_c, 3, 56, 127
5, 52984, Note_off_c, 3, 56, 100
5, 52992, Note_on_c, 3, 57, 127
5, 53752, Note_off_c, 3, 57, 100
5, 54144, Note_on_c, 3, 54, 127
5, 54264, Note_off_c, 3, 54, 100
5, 54528, Note_on_c, 3, 59, 127
5, 54648, Note_off_c, 3, 59, 100
5, 54912, Note_on_c, 3, 57, 127
5, 55032, Note_off_c, 3, 57, 100
5, 55296, Note_on_c, 3, 55, 127
5, 55480, Note_off_c, 3, 55, 100
5, 55488, Note_on_c, 3, 57, 127
5, 55672, Note_off_c, 3, 57, 100
5, 55680, Note_on_c, 3, 59, 127
5, 55864, Note_off_c, 3, 59, 100
5, 55872, Note_on_c, 3, 57, 127
5, 56056, Note_off_c, 3, 57, 100
5, 56064, Note_on_c, 3, 55, 127
5, 56248, Note_off_c, 3, 55, 100
5, 56256, Note_on_c, 3, 54, 127
5, 56440, Note_off_c, 3, 54, 100
5, 56448, Note_on_c, 3, 55, 127
5, 56632, Note_off_c, 3, 55, 100
5, 56640, Note_on_c, 3, 52, 127
5, 56768, Note_off_c, 3, 52, 100
5, 56832, Note_on_c, 3, 57, 127
5, 57016, Note_off_c, 3, 57, 100
5, 57024, Note_on_c, 3, 59, 127
5, 57208, Note_off_c, 3, 59, 100
5, 57216, Note_on_c, 3, 60, 127
5, 57400, Note_off_c, 3, 60, 100
5, 57408, Note_on_c, 3, 59, 127
5, 57592, Note_off_c, 3, 59, 100
5, 57600, Note_on_c, 3, 57, 127
5, 57784, Note_off_c, 3, 57, 100
5, 57792, Note_on_c, 3, 55, 127
5, 57976, Note_off_c, 3, 55, 100
5, 57984, Note_on_c, 3, 57, 127
5, 58168, Note_off_c, 3, 57, 100
5, 58176, Note_on_c, 3, 54, 127
5, 58304, Note_off_c, 3, 54, 100
5, 58368, Note_on_c, 3, 59, 127
5, 58552, Note_off_c, 3, 59, 100
5, 58560, Note_on_c, 3, 57, 127
5, 58744, Note_off_c, 3, 57, 100
5, 58752, Note_on_c, 3, 55, 127
5, 58936, Note_off_c, 3, 55, 100
5, 58944, Note_on_c, 3, 57, 127
5, 59128, Note_off_c, 3, 57, 100
5, 59136, Note_on_c, 3, 59, 127
5, 59320, Note_off_c, 3, 59, 100
5, 59328, Note_on_c, 3, 57, 127
5, 59512, Note_off_c, 3, 57, 100
5, 59520, Note_on_c, 3, 59, 127
5, 59704, Note_off_c, 3, 59, 100
5, 59712, Note_on_c, 3, 47, 127
5, 59896, Note_off_c, 3, 47, 100
5, 59904, Note_on_c, 3, 52, 127
5, 60032, Note_off_c, 3, 52, 100
5, 60096, Note_on_c, 3, 47, 127
5, 60280, Note_off_c, 3, 47, 100
5, 60288, Note_on_c, 3, 45, 127
5, 60472, Note_off_c, 3, 45, 100
5, 60480, Note_on_c, 3, 47, 127
5, 60664, Note_off_c, 3, 47, 100
5, 60672, Note_on_c, 3, 43, 127
5, 60856, Note_off_c, 3, 43, 100
5, 60864, Note_on_c, 3, 42, 127
5, 60992, Note_off_c, 3, 42, 100
5, 61056, Note_on_c, 3, 43, 127
5, 61240, Note_off_c, 3, 43, 100
5, 61248, Note_on_c, 3, 40, 127
5, 61376, Note_off_c, 3, 40, 100
5, 67584, Note_on_c, 3, 62, 127
5, 67640, Note_off_c, 3, 62, 100
5, 67648, Note_on_c, 3, 60, 127
5, 67704, Note_off_c, 3, 60, 100
5, 67712, Note_on_c, 3, 62, 127
5, 68280, Note_off_c, 3, 62, 100
5, 68352, Note_on_c, 3, 64, 127
5, 68440, Note_off_c, 3, 64, 100
5, 68448, Note_on_c, 3, 62, 127
5, 68536, Note_off_c, 3, 62, 100
5, 68544, Note_on_c, 3, 64, 127
5, 68632, Note_off_c, 3, 64, 100
5, 68640, Note_on_c, 3, 62, 127
5, 68728, Note_off_c, 3, 62, 100
5, 68736, Note_on_c, 3, 64, 127
5, 68824, Note_off_c, 3, 64, 100
5, 68832, Note_on_c, 3, 62, 127
5, 68920, Note_off_c, 3, 62, 100
5, 68928, Note_on_c, 3, 60, 127
5, 69016, Note_off_c, 3, 60, 100
5, 69024, Note_on_c, 3, 62, 127
5, 69112, Note_off_c, 3, 62, 100
5, 69120, Note_on_c, 3, 64, 127
5, 69240, Note_off_c, 3, 64, 100
5, 69504, Note_on_c, 3, 60, 127
5, 69624, Note_off_c, 3, 60, 100
5, 69888, Note_on_c, 3, 57, 127
5, 70064, Note_off_c, 3, 57, 100
5, 70272, Note_on_c, 3, 60, 127
5, 70392, Note_off_c, 3, 60, 100
5, 70656, Note_on_c, 3, 57, 127
5, 70776, Note_off_c, 3, 57, 100
5, 71040, Note_on_c, 3, 62, 127
5, 71160, Note_off_c, 3, 62, 100
5, 71424, Note_on_c, 3, 50, 127
5, 71600, Note_off_c, 3, 50, 100
5, 71808, Note_on_c, 3, 60, 127
5, 71928, Note_off_c, 3, 60, 100
5, 72192, Note_on_c, 3, 60, 127
5, 72248, Note_off_c, 3, 60, 100
5, 72256, Note_on_c, 3, 59, 127
5, 72312, Note_off_c, 3, 59, 100
5, 72320, Note_on_c, 3, 60, 127
5, 72376, Note_off_c, 3, 60, 100
5, 72384, Note_on_c, 3, 59, 127
5, 72568, Note_off_c, 3, 59, 100
5, 72576, Note_on_c, 3, 57, 127
5, 72760, Note_off_c, 3, 57, 100
5, 72768, Note_on_c, 3, 59, 127
5, 72952, Note_off_c, 3, 59, 100
5, 72960, Note_on_c, 3, 55, 127
5, 73472, Note_off_c, 3, 55, 100
5, 73728, Note_on_c, 3, 50, 127
5, 73912, Note_off_c, 3, 50, 100
5, 73920, Note_on_c, 3, 52, 127
5, 74104, Note_off_c, 3, 52, 100
5, 74112, Note_on_c, 3, 54, 127
5, 74296, Note_off_c, 3, 54, 100
5, 74304, Note_on_c, 3, 55, 127
5, 74488, Note_off_c, 3, 55, 100
5, 74496, Note_on_c, 3, 57, 127
5, 74616, Note_off_c, 3, 57, 100
5, 74880, Note_on_c, 3, 48, 127
5, 75000, Note_off_c, 3, 48, 100
5, 75264, Note_on_c, 3, 47, 127
5, 75392, Note_off_c, 3, 47, 100
5, 75456, Note_on_c, 3, 50, 127
5, 75640, Note_off_c, 3, 50, 100
5, 75648, Note_on_c, 3, 52, 127
5, 75832, Note_off_c, 3, 52, 100
5, 75840, Note_on_c, 3, 54, 127
5, 76024, Note_off_c, 3, 54, 100
5, 76032, Note_on_c, 3, 55, 127
5, 76216, Note_off_c, 3, 55, 100
5, 76224, Note_on_c, 3, 57, 127
5, 76408, Note_off_c, 3, 57, 100
5, 76416, Note_on_c, 3, 59, 127
5, 77056, Note_off_c, 3, 59, 64
5, 77184, Note_on_c, 3, 57, 127
5, 77368, Note_off_c, 3, 57, 100
5, 77376, Note_on_c, 3, 56, 127
5, 77560, Note_off_c, 3, 56, 100
5, 77568, Note_on_c, 3, 57, 127
5, 78328, Note_off_c, 3, 57, 100
5, 78720, Note_on_c, 3, 54, 127
5, 78840, Note_off_c, 3, 54, 100
5, 79104, Note_on_c, 3, 59, 127
5, 79224, Note_off_c, 3, 59, 100
5, 79488, Note_on_c, 3, 57, 127
5, 79608, Note_off_c, 3, 57, 100
5, 79872, Note_on_c, 3, 55, 127
5, 80056, Note_off_c, 3, 55, 100
5, 80064, Note_on_c, 3, 57, 127
5, 80248, Note_off_c, 3, 57, 100
5, 80256, Note_on_c, 3, 59, 127
5, 80440, Note_off_c, 3, 59, 100
5, 80448, Note_on_c, 3, 57, 127
5, 80632, Note_off_c, 3, 57, 100
5, 80640, Note_on_c, 3, 55, 127
5, 80824, Note_off_c, 3, 55, 100
5, 80832, Note_on_c, 3, 54, 127
5, 81016, Note_off_c, 3, 54, 100
5, 81024, Note_on_c, 3, 55, 127
5, 81208, Note_off_c, 3, 55, 100
5, 81216, Note_on_c, 3, 52, 127
5, 81344, Note_off_c, 3, 52, 100
5, 81408, Note_on_c, 3, 57, 127
5, 81592, Note_off_c, 3, 57, 100
5, 81600, Note_on_c, 3, 59, 127
5, 81784, Note_off_c, 3, 59, 100
5, 81792, Note_on_c, 3, 60, 127
5, 81976, Note_off_c, 3, 60, 100
5, 81984, Note_on_c, 3, 59, 127
5, 82168, Note_off_c, 3, 59, 100
5, 82176, Note_on_c, 3, 57, 127
5, 82360, Note_off_c, 3, 57, 100
5, 82368, Note_on_c, 3, 55, 127
5, 82552, Note_off_c, 3, 55, 100
5, 82560, Note_on_c, 3, 57, 127
5, 82744, Note_off_c, 3, 57, 100
5, 82752, Note_on_c, 3, 54, 127
5, 82880, Note_off_c, 3, 54, 100
5, 82944, Note_on_c, 3, 59, 127
5, 83128, Note_off_c, 3, 59, 100
5, 83136, Note_on_c, 3, 57, 127
5, 83320, Note_off_c, 3, 57, 100
5, 83328, Note_on_c, 3, 55, 127
5, 83512, Note_off_c, 3, 55, 100
5, 83520, Note_on_c, 3, 57, 127
5, 83704, Note_off_c, 3, 57, 100
5, 83712, Note_on_c, 3, 59, 127
5, 83896, Note_off_c, 3, 59, 100
5, 83904, Note_on_c, 3, 57, 127
5, 84088, Note_off_c, 3, 57, 100
5, 84096, Note_on_c, 3, 59, 127
5, 84280, Note_off_c, 3, 59, 100
5, 84288, Note_on_c, 3, 47, 127
5, 84472, Note_off_c, 3, 47, 100
5, 84480, Note_on_c, 3, 52, 127
5, 84608, Note_off_c, 3, 52, 100
5, 84672, Note_on_c, 3, 47, 127
5, 84856, Note_off_c, 3, 47, 100
5, 84864, Note_on_c, 3, 45, 127
5, 85048, Note_off_c, 3, 45, 100
5, 85056, Note_on_c, 3, 47, 127
5, 85240, Note_off_c, 3, 47, 100
5, 85248, Note_on_c, 3, 43, 127
5, 85432, Note_off_c, 3, 43, 100
5, 85440, Note_on_c, 3, 42, 127
5, 85568, Note_off_c, 3, 42, 100
5, 85632, Note_on_c, 3, 43, 127
5, 85816, Note_off_c, 3, 43, 100
5, 85824, Note_on_c, 3, 40, 127
5, 85952, Note_off_c, 3, 40, 100
5, 92160, Note_on_c, 3, 62, 127
5, 92216, Note_off_c, 3, 62, 100
5, 92224, Note_on_c, 3, 60, 127
5, 92280, Note_off_c, 3, 60, 100
5, 92288, Note_on_c, 3, 62, 127
5, 92856, Note_off_c, 3, 62, 100
5, 92928, Note_on_c, 3, 64, 127
5, 93016, Note_off_c, 3, 64, 100
5, 93024, Note_on_c, 3, 62, 127
5, 93112, Note_off_c, 3, 62, 100
5, 93120, Note_on_c, 3, 64, 127
5, 93208, Note_off_c, 3, 64, 100
5, 93216, Note_on_c, 3, 62, 127
5, 93304, Note_off_c, 3, 62, 100
5, 93312, Note_on_c, 3, 64, 127
5, 93400, Note_off_c, 3, 64, 100
5, 93408, Note_on_c, 3, 62, 127
5, 93496, Note_off_c, 3, 62, 100
5, 93504, Note_on_c, 3, 60, 127
5, 93592, Note_off_c, 3, 60, 100
5, 93600, Note_on_c, 3, 62, 127
5, 93688, Note_off_c, 3, 62, 100
5, 93696, Note_on_c, 3, 64, 127
5, 93816, Note_off_c, 3, 64, 100
5, 94080, Note_on_c, 3, 60, 127
5, 94200, Note_off_c, 3, 60, 100
5, 94464, Note_on_c, 3, 57, 127
5, 94640, Note_off_c, 3, 57, 100
5, 94848, Note_on_c, 3, 60, 127
5, 94968, Note_off_c, 3, 60, 100
5, 95232, Note_on_c, 3, 57, 127
5, 95352, Note_off_c, 3, 57, 100
5, 95616, Note_on_c, 3, 62, 127
5, 95736, Note_off_c, 3, 62, 100
5, 96000, Note_on_c, 3, 50, 127
5, 96176, Note_off_c, 3, 50, 100
5, 96384, Note_on_c, 3, 60, 127
5, 96504, Note_off_c, 3, 60, 100
5, 96768, Note_on_c, 3, 60, 127
5, 96824, Note_off_c, 3, 60, 100
5, 96832, Note_on_c, 3, 59, 127
5, 96888, Note_off_c, 3, 59, 100
5, 96896, Note_on_c, 3, 60, 127
5, 96952, Note_off_c, 3, 60, 100
5, 96960, Note_on_c, 3, 59, 127
5, 97144, Note_off_c, 3, 59, 100
5, 97152, Note_on_c, 3, 57, 127
5, 97336, Note_off_c, 3, 57, 100
5, 97344, Note_on_c, 3, 59, 127
5, 97528, Note_off_c, 3, 59, 100
5, 97536, Note_on_c, 3, 55, 127
5, 98048, Note_off_c, 3, 55, 100
5, 98048, End_track
6, 0, Start_track
6, 0, Title_t, "Bruno de Giusti"
6, 0, Control_c, 4, 0, 0
6, 0, Program_c, 4, 6
6, 0, Control_c, 4, 7, 125
6, 0, Control_c, 4, 10, 87
6, 0, Control_c, 4, 91, 127
6, 0, Key_signature, 1, "major"
6, 12288, Note_on_c, 4, 91, 127
6, 12344, Note_off_c, 4, 91, 100
6, 12352, Note_on_c, 4, 90, 127
6, 12408, Note_off_c, 4, 90, 100
6, 12416, Note_on_c, 4, 91, 127
6, 12984, Note_off_c, 4, 91, 100
6, 13056, Note_on_c, 4, 93, 127
6, 13144, Note_off_c, 4, 93, 100
6, 13152, Note_on_c, 4, 91, 127
6, 13240, Note_off_c, 4, 91, 100
6, 13248, Note_on_c, 4, 93, 127
6, 13336, Note_off_c, 4, 93, 100
6, 13344, Note_on_c, 4, 91, 127
6, 13432, Note_off_c, 4, 91, 100
6, 13440, Note_on_c, 4, 93, 127
6, 13528, Note_off_c, 4, 93, 100
6, 13536, Note_on_c, 4, 91, 127
6, 13624, Note_off_c, 4, 91, 100
6, 13632, Note_on_c, 4, 90, 127
6, 13720, Note_off_c, 4, 90, 100
6, 13728, Note_on_c, 4, 91, 127
6, 13816, Note_off_c, 4, 91, 100
6, 13824, Note_on_c, 4, 93, 127
6, 13944, Note_off_c, 4, 93, 100
6, 14208, Note_on_c, 4, 90, 127
6, 14328, Note_off_c, 4, 90, 100
6, 14592, Note_on_c, 4, 86, 127
6, 14768, Note_off_c, 4, 86, 100
6, 14976, Note_on_c, 4, 90, 127
6, 15096, Note_off_c, 4, 90, 100
6, 15360, Note_on_c, 4, 83, 127
6, 15480, Note_off_c, 4, 83, 100
6, 15744, Note_on_c, 4, 88, 127
6, 15864, Note_off_c, 4, 88, 100
6, 16128, Note_on_c, 4, 76, 127
6, 16304, Note_off_c, 4, 76, 100
6, 16512, Note_on_c, 4, 86, 127
6, 16632, Note_off_c, 4, 86, 100
6, 16896, Note_on_c, 4, 86, 127
6, 16952, Note_off_c, 4, 86, 100
6, 16960, Note_on_c, 4, 85, 127
6, 17016, Note_off_c, 4, 85, 100
6, 17024, Note_on_c, 4, 86, 127
6, 17080, Note_off_c, 4, 86, 100
6, 17088, Note_on_c, 4, 85, 127
6, 17216, Note_off_c, 4, 85, 100
6, 17280, Note_on_c, 4, 83, 127
6, 17464, Note_off_c, 4, 83, 100
6, 17472, Note_on_c, 4, 85, 127
6, 17656, Note_off_c, 4, 85, 100
6, 17664, Note_on_c, 4, 81, 127
6, 17848, Note_off_c, 4, 81, 100
6, 17856, Note_on_c, 4, 83, 127
6, 18040, Note_off_c, 4, 83, 100
6, 18048, Note_on_c, 4, 85, 127
6, 18232, Note_off_c, 4, 85, 100
6, 18240, Note_on_c, 4, 81, 127
6, 18368, Note_off_c, 4, 81, 100
6, 18432, Note_on_c, 4, 86, 127
6, 18688, Note_off_c, 4, 86, 100
6, 18816, Note_on_c, 4, 74, 127
6, 18936, Note_off_c, 4, 74, 100
6, 19200, Note_on_c, 4, 86, 127
6, 20344, Note_off_c, 4, 86, 64
6, 20352, Note_on_c, 4, 74, 127
6, 20472, Note_off_c, 4, 74, 100
6, 20736, Note_on_c, 4, 86, 127
6, 22264, Note_off_c, 4, 86, 64
6, 22272, Note_on_c, 4, 85, 127
6, 23032, Note_off_c, 4, 85, 100
6, 23040, Note_on_c, 4, 86, 127
6, 24320, Note_off_c, 4, 86, 100
6, 36864, Note_on_c, 4, 91, 127
6, 36920, Note_off_c, 4, 91, 100
6, 36928, Note_on_c, 4, 90, 127
6, 36984, Note_off_c, 4, 90, 100
6, 36992, Note_on_c, 4, 91, 127
6, 37560, Note_off_c, 4, 91, 100
6, 37632, Note_on_c, 4, 93, 127
6, 37720, Note_off_c, 4, 93, 100
6, 37728, Note_on_c, 4, 91, 127
6, 37816, Note_off_c, 4, 91, 100
6, 37824, Note_on_c, 4, 93, 127
6, 37912, Note_off_c, 4, 93, 100
6, 37920, Note_on_c, 4, 91, 127
6, 38008, Note_off_c, 4, 91, 100
6, 38016, Note_on_c, 4, 93, 127
6, 38104, Note_off_c, 4, 93, 100
6, 38112, Note_on_c, 4, 91, 127
6, 38200, Note_off_c, 4, 91, 100
6, 38208, Note_on_c, 4, 90, 127
6, 38296, Note_off_c, 4, 90, 100
6, 38304, Note_on_c, 4, 91, 127
6, 38392, Note_off_c, 4, 91, 100
6, 38400, Note_on_c, 4, 93, 127
6, 38520, Note_off_c, 4, 93, 100
6, 38784, Note_on_c, 4, 90, 127
6, 38904, Note_off_c, 4, 90, 100
6, 39168, Note_on_c, 4, 86, 127
6, 39344, Note_off_c, 4, 86, 100
6, 39552, Note_on_c, 4, 90, 127
6, 39672, Note_off_c, 4, 90, 100
6, 39936, Note_on_c, 4, 83, 127
6, 40056, Note_off_c, 4, 83, 100
6, 40320, Note_on_c, 4, 88, 127
6, 40440, Note_off_c, 4, 88, 100
6, 40704, Note_on_c, 4, 76, 127
6, 40880, Note_off_c, 4, 76, 100
6, 41088, Note_on_c, 4, 86, 127
6, 41208, Note_off_c, 4, 86, 100
6, 41472, Note_on_c, 4, 86, 127
6, 41528, Note_off_c, 4, 86, 100
6, 41536, Note_on_c, 4, 85, 127
6, 41592, Note_off_c, 4, 85, 100
6, 41600, Note_on_c, 4, 86, 127
6, 41656, Note_off_c, 4, 86, 100
6, 41664, Note_on_c, 4, 85, 127
6, 41792, Note_off_c, 4, 85, 100
6, 41856, Note_on_c, 4, 83, 127
6, 42040, Note_off_c, 4, 83, 100
6, 42048, Note_on_c, 4, 85, 127
6, 42232, Note_off_c, 4, 85, 100
6, 42240, Note_on_c, 4, 81, 127
6, 42424, Note_off_c, 4, 81, 100
6, 42432, Note_on_c, 4, 83, 127
6, 42616, Note_off_c, 4, 83, 100
6, 42624, Note_on_c, 4, 85, 127
6, 42808, Note_off_c, 4, 85, 100
6, 42816, Note_on_c, 4, 81, 127
6, 42944, Note_off_c, 4, 81, 100
6, 43008, Note_on_c, 4, 86, 127
6, 43264, Note_off_c, 4, 86, 100
6, 43392, Note_on_c, 4, 74, 127
6, 43512, Note_off_c, 4, 74, 100
6, 43776, Note_on_c, 4, 86, 127
6, 44920, Note_off_c, 4, 86, 64
6, 44928, Note_on_c, 4, 74, 127
6, 45048, Note_off_c, 4, 74, 100
6, 45312, Note_on_c, 4, 86, 127
6, 46840, Note_off_c, 4, 86, 64
6, 46848, Note_on_c, 4, 85, 127
6, 47608, Note_off_c, 4, 85, 100
6, 47616, Note_on_c, 4, 86, 127
6, 48896, Note_off_c, 4, 86, 100
6, 55296, Note_on_c, 4, 83, 127
6, 55352, Note_off_c, 4, 83, 100
6, 55360, Note_on_c, 4, 81, 127
6, 55416, Note_off_c, 4, 81, 100
6, 55424, Note_on_c, 4, 83, 127
6, 55992, Note_off_c, 4, 83, 100
6, 56064, Note_on_c, 4, 84, 127
6, 56152, Note_off_c, 4, 84, 100
6, 56160, Note_on_c, 4, 83, 127
6, 56248, Note_off_c, 4, 83, 100
6, 56256, Note_on_c, 4, 84, 127
6, 56344, Note_off_c, 4, 84, 100
6, 56352, Note_on_c, 4, 83, 127
6, 56440, Note_off_c, 4, 83, 100
6, 56448, Note_on_c, 4, 84, 127
6, 56536, Note_off_c, 4, 84, 100
6, 56544, Note_on_c, 4, 83, 127
6, 56632, Note_off_c, 4, 83, 100
6, 56640, Note_on_c, 4, 81, 127
6, 56728, Note_off_c, 4, 81, 100
6, 56736, Note_on_c, 4, 83, 127
6, 56824, Note_off_c, 4, 83, 100
6, 56832, Note_on_c, 4, 84, 127
6, 56952, Note_off_c, 4, 84, 100
6, 57216, Note_on_c, 4, 81, 127
6, 57336, Note_off_c, 4, 81, 100
6, 57600, Note_on_c, 4, 78, 127
6, 57776, Note_off_c, 4, 78, 100
6, 57984, Note_on_c, 4, 81, 127
6, 58104, Note_off_c, 4, 81, 100
6, 58368, Note_on_c, 4, 78, 127
6, 58488, Note_off_c, 4, 78, 100
6, 58752, Note_on_c, 4, 83, 127
6, 58872, Note_off_c, 4, 83, 100
6, 59136, Note_on_c, 4, 71, 127
6, 59312, Note_off_c, 4, 71, 100
6, 59520, Note_on_c, 4, 81, 127
6, 59640, Note_off_c, 4, 81, 100
6, 59904, Note_on_c, 4, 81, 127
6, 59960, Note_off_c, 4, 81, 100
6, 59968, Note_on_c, 4, 79, 127
6, 60024, Note_off_c, 4, 79, 100
6, 60032, Note_on_c, 4, 81, 127
6, 60088, Note_off_c, 4, 81, 100
6, 60096, Note_on_c, 4, 79, 127
6, 60280, Note_off_c, 4, 79, 100
6, 60288, Note_on_c, 4, 78, 127
6, 60472, Note_off_c, 4, 78, 100
6, 60480, Note_on_c, 4, 79, 127
6, 60664, Note_off_c, 4, 79, 100
6, 60672, Note_on_c, 4, 76, 127
6, 61816, Note_off_c, 4, 76, 64
6, 62208, Note_on_c, 4, 81, 127
6, 63352, Note_off_c, 4, 81, 64
6, 63360, Note_on_c, 4, 86, 127
6, 63480, Note_off_c, 4, 86, 100
6, 63744, Note_on_c, 4, 83, 127
6, 63864, Note_off_c, 4, 83, 100
6, 64128, Note_on_c, 4, 79, 127
6, 64768, Note_off_c, 4, 79, 64
6, 64896, Note_on_c, 4, 84, 127
6, 65080, Note_off_c, 4, 84, 100
6, 65088, Note_on_c, 4, 83, 127
6, 65272, Note_off_c, 4, 83, 100
6, 65280, Note_on_c, 4, 84, 127
6, 66808, Note_off_c, 4, 84, 64
6, 67200, Note_on_c, 4, 84, 127
6, 67320, Note_off_c, 4, 84, 100
6, 67584, Note_on_c, 4, 83, 127
6, 68344, Note_off_c, 4, 83, 100
6, 68736, Note_on_c, 4, 79, 127
6, 68856, Note_off_c, 4, 79, 100
6, 69120, Note_on_c, 4, 76, 127
6, 69888, Note_off_c, 4, 76, 100
6, 70272, Note_on_c, 4, 81, 127
6, 70456, Note_off_c, 4, 81, 100
6, 70464, Note_on_c, 4, 79, 127
6, 70648, Note_off_c, 4, 79, 100
6, 70656, Note_on_c, 4, 78, 127
6, 70776, Note_off_c, 4, 78, 100
6, 71040, Note_on_c, 4, 79, 127
6, 71800, Note_off_c, 4, 79, 100
6, 71808, Note_on_c, 4, 78, 127
6, 71928, Note_off_c, 4, 78, 100
6, 72192, Note_on_c, 4, 79, 127
6, 72320, Note_off_c, 4, 79, 100
6, 72384, Note_on_c, 4, 74, 127
6, 72568, Note_off_c, 4, 74, 100
6, 72576, Note_on_c, 4, 72, 127
6, 72760, Note_off_c, 4, 72, 100
6, 72768, Note_on_c, 4, 74, 127
6, 72952, Note_off_c, 4, 74, 100
6, 72960, Note_on_c, 4, 71, 127
6, 73472, Note_off_c, 4, 71, 100
6, 79872, Note_on_c, 4, 83, 127
6, 79928, Note_off_c, 4, 83, 100
6, 79936, Note_on_c, 4, 81, 127
6, 79992, Note_off_c, 4, 81, 100
6, 80000, Note_on_c, 4, 83, 127
6, 80568, Note_off_c, 4, 83, 100
6, 80640, Note_on_c, 4, 84, 127
6, 80728, Note_off_c, 4, 84, 100
6, 80736, Note_on_c, 4, 83, 127
6, 80824, Note_off_c, 4, 83, 100
6, 80832, Note_on_c, 4, 84, 127
6, 80920, Note_off_c, 4, 84, 100
6, 80928, Note_on_c, 4, 83, 127
6, 81016, Note_off_c, 4, 83, 100
6, 81024, Note_on_c, 4, 84, 127
6, 81112, Note_off_c, 4, 84, 100
6, 81120, Note_on_c, 4, 83, 127
6, 81208, Note_off_c, 4, 83, 100
6, 81216, Note_on_c, 4, 81, 127
6, 81304, Note_off_c, 4, 81, 100
6, 81312, Note_on_c, 4, 83, 127
6, 81400, Note_off_c, 4, 83, 100
6, 81408, Note_on_c, 4, 84, 127
6, 81528, Note_off_c, 4, 84, 100
6, 81792, Note_on_c, 4, 81, 127
6, 81912, Note_off_c, 4, 81, 100
6, 82176, Note_on_c, 4, 78, 127
6, 82352, Note_off_c, 4, 78, 100
6, 82560, Note_on_c, 4, 81, 127
6, 82680, Note_off_c, 4, 81, 100
6, 82944, Note_on_c, 4, 78, 127
6, 83064, Note_off_c, 4, 78, 100
6, 83328, Note_on_c, 4, 83, 127
6, 83448, Note_off_c, 4, 83, 100
6, 83712, Note_on_c, 4, 71, 127
6, 83888, Note_off_c, 4, 71, 100
6, 84096, Note_on_c, 4, 81, 127
6, 84216, Note_off_c, 4, 81, 100
6, 84480, Note_on_c, 4, 81, 127
6, 84536, Note_off_c, 4, 81, 100
6, 84544, Note_on_c, 4, 79, 127
6, 84600, Note_off_c, 4, 79, 100
6, 84608, Note_on_c, 4, 81, 127
6, 84664, Note_off_c, 4, 81, 100
6, 84672, Note_on_c, 4, 79, 127
6, 84856, Note_off_c, 4, 79, 100
6, 84864, Note_on_c, 4, 78, 127
6, 85048, Note_off_c, 4, 78, 100
6, 85056, Note_on_c, 4, 79, 127
6, 85240, Note_off_c, 4, 79, 100
6, 85248, Note_on_c, 4, 76, 127
6, 86392, Note_off_c, 4, 76, 64
6, 86784, Note_on_c, 4, 81, 127
6, 87928, Note_off_c, 4, 81, 64
6, 87936, Note_on_c, 4, 86, 127
6, 88056, Note_off_c, 4, 86, 100
6, 88320, Note_on_c, 4, 83, 127
6, 88440, Note_off_c, 4, 83, 100
6, 88704, Note_on_c, 4, 79, 127
6, 89344, Note_off_c, 4, 79, 64
6, 89472, Note_on_c, 4, 84, 127
6, 89656, Note_off_c, 4, 84, 100
6, 89664, Note_on_c, 4, 83, 127
6, 89848, Note_off_c, 4, 83, 100
6, 89856, Note_on_c, 4, 84, 127
6, 91384, Note_off_c, 4, 84, 64
6, 91776, Note_on_c, 4, 84, 127
6, 91896, Note_off_c, 4, 84, 100
6, 92160, Note_on_c, 4, 83, 127
6, 92920, Note_off_c, 4, 83, 100
6, 93312, Note_on_c, 4, 79, 127
6, 93432, Note_off_c, 4, 79, 100
6, 93696, Note_on_c, 4, 76, 127
6, 94464, Note_off_c, 4, 76, 100
6, 94848, Note_on_c, 4, 81, 127
6, 95032, Note_off_c, 4, 81, 100
6, 95040, Note_on_c, 4, 79, 127
6, 95224, Note_off_c, 4, 79, 100
6, 95232, Note_on_c, 4, 78, 127
6, 95352, Note_off_c, 4, 78, 100
6, 95616, Note_on_c, 4, 79, 127
6, 96376, Note_off_c, 4, 79, 100
6, 96384, Note_on_c, 4, 78, 127
6, 96504, Note_off_c, 4, 78, 100
6, 96768, Note_on_c, 4, 79, 127
6, 96896, Note_off_c, 4, 79, 100
6, 96960, Note_on_c, 4, 74, 127
6, 97144, Note_off_c, 4, 74, 100
6, 97152, Note_on_c, 4, 72, 127
6, 97336, Note_off_c, 4, 72, 100
6, 97344, Note_on_c, 4, 74, 127
6, 97528, Note_off_c, 4, 74, 100
6, 97536, Note_on_c, 4, 71, 127
6, 98048, Note_off_c, 4, 71, 100
6, 98048, End_track
7, 0, Start_track
7, 0, Title_t, "bdg@bruno-de-giusti.net"
7, 0, Control_c, 5, 0, 0
7, 0, Program_c, 5, 6
7, 0, Control_c, 5, 7, 127
7, 0, Control_c, 5, 10, 42
7, 0, Control_c, 5, 91, 127
7, 0, Key_signature, 1, "major"
7, 18432, Note_on_c, 5, 81, 127
7, 18488, Note_off_c, 5, 81, 100
7, 18496, Note_on_c, 5, 79, 127
7, 18552, Note_off_c, 5, 79, 100
7, 18560, Note_on_c, 5, 81, 127
7, 19128, Note_off_c, 5, 81, 100
7, 19200, Note_on_c, 5, 83, 127
7, 19288, Note_off_c, 5, 83, 100
7, 19296, Note_on_c, 5, 81, 127
7, 19384, Note_off_c, 5, 81, 100
7, 19392, Note_on_c, 5, 83, 127
7, 19480, Note_off_c, 5, 83, 100
7, 19488, Note_on_c, 5, 81, 127
7, 19576, Note_off_c, 5, 81, 100
7, 19584, Note_on_c, 5, 83, 127
7, 19672, Note_off_c, 5, 83, 100
7, 19680, Note_on_c, 5, 81, 127
7, 19768, Note_off_c, 5, 81, 100
7, 19776, Note_on_c, 5, 79, 127
7, 19864, Note_off_c, 5, 79, 100
7, 19872, Note_on_c, 5, 81, 127
7, 19960, Note_off_c, 5, 81, 100
7, 19968, Note_on_c, 5, 83, 127
7, 20088, Note_off_c, 5, 83, 100
7, 20352, Note_on_c, 5, 79, 127
7, 20472, Note_off_c, 5, 79, 100
7, 20736, Note_on_c, 5, 76, 127
7, 20912, Note_off_c, 5, 76, 100
7, 21120, Note_on_c, 5, 79, 127
7, 21240, Note_off_c, 5, 79, 100
7, 21504, Note_on_c, 5, 76, 127
7, 21624, Note_off_c, 5, 76, 100
7, 21888, Note_on_c, 5, 81, 127
7, 22008, Note_off_c, 5, 81, 100
7, 22272, Note_on_c, 5, 69, 127
7, 22448, Note_off_c, 5, 69, 100
7, 22656, Note_on_c, 5, 79, 127
7, 22776, Note_off_c, 5, 79, 100
7, 23040, Note_on_c, 5, 79, 127
7, 23096, Note_off_c, 5, 79, 100
7, 23104, Note_on_c, 5, 78, 127
7, 23160, Note_off_c, 5, 78, 100
7, 23168, Note_on_c, 5, 79, 127
7, 23224, Note_off_c, 5, 79, 100
7, 23232, Note_on_c, 5, 78, 127
7, 23360, Note_off_c, 5, 78, 100
7, 23424, Note_on_c, 5, 76, 127
7, 23608, Note_off_c, 5, 76, 100
7, 23616, Note_on_c, 5, 78, 127
7, 23800, Note_off_c, 5, 78, 100
7, 23808, Note_on_c, 5, 74, 127
7, 24320, Note_off_c, 5, 74, 100
7, 43008, Note_on_c, 5, 81, 127
7, 43064, Note_off_c, 5, 81, 100
7, 43072, Note_on_c, 5, 79, 127
7, 43128, Note_off_c, 5, 79, 100
7, 43136, Note_on_c, 5, 81, 127
7, 43704, Note_off_c, 5, 81, 100
7, 43776, Note_on_c, 5, 83, 127
7, 43864, Note_off_c, 5, 83, 100
7, 43872, Note_on_c, 5, 81, 127
7, 43960, Note_off_c, 5, 81, 100
7, 43968, Note_on_c, 5, 83, 127
7, 44056, Note_off_c, 5, 83, 100
7, 44064, Note_on_c, 5, 81, 127
7, 44152, Note_off_c, 5, 81, 100
7, 44160, Note_on_c, 5, 83, 127
7, 44248, Note_off_c, 5, 83, 100
7, 44256, Note_on_c, 5, 81, 127
7, 44344, Note_off_c, 5, 81, 100
7, 44352, Note_on_c, 5, 79, 127
7, 44440, Note_off_c, 5, 79, 100
7, 44448, Note_on_c, 5, 81, 127
7, 44536, Note_off_c, 5, 81, 100
7, 44544, Note_on_c, 5, 83, 127
7, 44664, Note_off_c, 5, 83, 100
7, 44928, Note_on_c, 5, 79, 127
7, 45048, Note_off_c, 5, 79, 100
7, 45312, Note_on_c, 5, 76, 127
7, 45488, Note_off_c, 5, 76, 100
7, 45696, Note_on_c, 5, 79, 127
7, 45816, Note_off_c, 5, 79, 100
7, 46080, Note_on_c, 5, 76, 127
7, 46200, Note_off_c, 5, 76, 100
7, 46464, Note_on_c, 5, 81, 127
7, 46584, Note_off_c, 5, 81, 100
7, 46848, Note_on_c, 5, 69, 127
7, 47024, Note_off_c, 5, 69, 100
7, 47232, Note_on_c, 5, 79, 127
7, 47352, Note_off_c, 5, 79, 100
7, 47616, Note_on_c, 5, 79, 127
7, 47672, Note_off_c, 5, 79, 100
7, 47680, Note_on_c, 5, 78, 127
7, 47736, Note_off_c, 5, 78, 100
7, 47744, Note_on_c, 5, 79, 127
7, 47800, Note_off_c, 5, 79, 100
7, 47808, Note_on_c, 5, 78, 127
7, 47936, Note_off_c, 5, 78, 100
7, 48000, Note_on_c, 5, 76, 127
7, 48184, Note_off_c, 5, 76, 100
7, 48192, Note_on_c, 5, 78, 127
7, 48376, Note_off_c, 5, 78, 100
7, 48384, Note_on_c, 5, 74, 127
7, 48896, Note_off_c, 5, 74, 100
7, 49152, Note_on_c, 5, 90, 127
7, 49208, Note_off_c, 5, 90, 100
7, 49216, Note_on_c, 5, 88, 127
7, 49272, Note_off_c, 5, 88, 100
7, 49280, Note_on_c, 5, 90, 127
7, 49848, Note_off_c, 5, 90, 100
7, 49920, Note_on_c, 5, 91, 127
7, 50008, Note_off_c, 5, 91, 100
7, 50016, Note_on_c, 5, 90, 127
7, 50104, Note_off_c, 5, 90, 100
7, 50112, Note_on_c, 5, 91, 127
7, 50200, Note_off_c, 5, 91, 100
7, 50208, Note_on_c, 5, 90, 127
7, 50296, Note_off_c, 5, 90, 100
7, 50304, Note_on_c, 5, 91, 127
7, 50392, Note_off_c, 5, 91, 100
7, 50400, Note_on_c, 5, 90, 127
7, 50488, Note_off_c, 5, 90, 100
7, 50496, Note_on_c, 5, 88, 127
7, 50584, Note_off_c, 5, 88, 100
7, 50592, Note_on_c, 5, 90, 127
7, 50680, Note_off_c, 5, 90, 100
7, 50688, Note_on_c, 5, 91, 127
7, 50808, Note_off_c, 5, 91, 100
7, 51072, Note_on_c, 5, 86, 127
7, 51192, Note_off_c, 5, 86, 100
7, 51456, Note_on_c, 5, 83, 127
7, 51632, Note_off_c, 5, 83, 100
7, 51840, Note_on_c, 5, 86, 127
7, 51960, Note_off_c, 5, 86, 100
7, 52224, Note_on_c, 5, 84, 127
7, 52344, Note_off_c, 5, 84, 100
7, 52608, Note_on_c, 5, 89, 127
7, 52728, Note_off_c, 5, 89, 100
7, 52992, Note_on_c, 5, 77, 127
7, 53168, Note_off_c, 5, 77, 100
7, 53376, Note_on_c, 5, 88, 127
7, 53496, Note_off_c, 5, 88, 100
7, 53760, Note_on_c, 5, 88, 127
7, 53816, Note_off_c, 5, 88, 100
7, 53824, Note_on_c, 5, 87, 127
7, 53880, Note_off_c, 5, 87, 100
7, 53888, Note_on_c, 5, 88, 127
7, 53944, Note_off_c, 5, 88, 100
7, 53952, Note_on_c, 5, 87, 127
7, 54080, Note_off_c, 5, 87, 100
7, 54144, Note_on_c, 5, 85, 127
7, 54328, Note_off_c, 5, 85, 100
7, 54336, Note_on_c, 5, 87, 127
7, 54520, Note_off_c, 5, 87, 100
7, 54528, Note_on_c, 5, 83, 127
7, 54712, Note_off_c, 5, 83, 100
7, 54720, Note_on_c, 5, 85, 127
7, 54904, Note_off_c, 5, 85, 100
7, 54912, Note_on_c, 5, 87, 127
7, 55096, Note_off_c, 5, 87, 100
7, 55104, Note_on_c, 5, 83, 127
7, 55232, Note_off_c, 5, 83, 100
7, 55296, Note_on_c, 5, 88, 127
7, 55416, Note_off_c, 5, 88, 100
7, 55680, Note_on_c, 5, 76, 127
7, 55800, Note_off_c, 5, 76, 100
7, 56064, Note_on_c, 5, 88, 127
7, 57208, Note_off_c, 5, 88, 64
7, 57216, Note_on_c, 5, 76, 127
7, 57336, Note_off_c, 5, 76, 100
7, 57600, Note_on_c, 5, 88, 127
7, 59128, Note_off_c, 5, 88, 64
7, 59136, Note_on_c, 5, 87, 127
7, 59896, Note_off_c, 5, 87, 100
7, 59904, Note_on_c, 5, 88, 127
7, 60664, Note_off_c, 5, 88, 100
7, 60864, Note_on_c, 5, 86, 127
7, 61048, Note_off_c, 5, 86, 100
7, 61056, Note_on_c, 5, 85, 127
7, 61240, Note_off_c, 5, 85, 100
7, 61248, Note_on_c, 5, 83, 127
7, 61432, Note_off_c, 5, 83, 100
7, 61440, Note_on_c, 5, 81, 127
7, 61560, Note_off_c, 5, 81, 100
7, 61824, Note_on_c, 5, 91, 127
7, 62584, Note_off_c, 5, 91, 100
7, 62592, Note_on_c, 5, 89, 127
7, 62776, Note_off_c, 5, 89, 100
7, 62784, Note_on_c, 5, 88, 127
7, 62968, Note_off_c, 5, 88, 100
7, 62976, Note_on_c, 5, 89, 127
7, 63744, Note_off_c, 5, 89, 100
7, 64128, Note_on_c, 5, 88, 127
7, 64312, Note_off_c, 5, 88, 100
7, 64320, Note_on_c, 5, 86, 127
7, 64504, Note_off_c, 5, 86, 100
7, 64512, Note_on_c, 5, 88, 127
7, 65280, Note_off_c, 5, 88, 100
7, 65664, Note_on_c, 5, 90, 127
7, 65848, Note_off_c, 5, 90, 100
7, 65856, Note_on_c, 5, 91, 127
7, 66040, Note_off_c, 5, 91, 100
7, 66048, Note_on_c, 5, 93, 127
7, 66232, Note_off_c, 5, 93, 100
7, 66240, Note_on_c, 5, 95, 127
7, 66368, Note_off_c, 5, 95, 100
7, 66432, Note_on_c, 5, 91, 127
7, 66616, Note_off_c, 5, 91, 100
7, 66624, Note_on_c, 5, 93, 127
7, 66752, Note_off_c, 5, 93, 100
7, 66816, Note_on_c, 5, 90, 127
7, 66936, Note_off_c, 5, 90, 100
7, 67200, Note_on_c, 5, 93, 127
7, 67960, Note_off_c, 5, 93, 64
7, 67968, Note_on_c, 5, 91, 127
7, 68152, Note_off_c, 5, 91, 100
7, 68160, Note_on_c, 5, 90, 127
7, 68344, Note_off_c, 5, 90, 100
7, 68352, Note_on_c, 5, 91, 127
7, 68472, Note_off_c, 5, 91, 100
7, 68736, Note_on_c, 5, 83, 127
7, 69496, Note_off_c, 5, 83, 64
7, 69504, Note_on_c, 5, 81, 127
7, 69688, Note_off_c, 5, 81, 100
7, 69696, Note_on_c, 5, 83, 127
7, 69880, Note_off_c, 5, 83, 100
7, 69888, Note_on_c, 5, 84, 127
7, 71032, Note_off_c, 5, 84, 64
7, 71040, Note_on_c, 5, 83, 127
7, 71160, Note_off_c, 5, 83, 100
7, 71424, Note_on_c, 5, 81, 127
7, 72184, Note_off_c, 5, 81, 100
7, 72192, Note_on_c, 5, 79, 127
7, 73472, Note_off_c, 5, 79, 100
7, 73728, Note_on_c, 5, 90, 127
7, 73784, Note_off_c, 5, 90, 100
7, 73792, Note_on_c, 5, 88, 127
7, 73848, Note_off_c, 5, 88, 100
7, 73856, Note_on_c, 5, 90, 127
7, 74424, Note_off_c, 5, 90, 100
7, 74496, Note_on_c, 5, 91, 127
7, 74584, Note_off_c, 5, 91, 100
7, 74592, Note_on_c, 5, 90, 127
7, 74680, Note_off_c, 5, 90, 100
7, 74688, Note_on_c, 5, 91, 127
7, 74776, Note_off_c, 5, 91, 100
7, 74784, Note_on_c, 5, 90, 127
7, 74872, Note_off_c, 5, 90, 100
7, 74880, Note_on_c, 5, 91, 127
7, 74968, Note_off_c, 5, 91, 100
7, 74976, Note_on_c, 5, 90, 127
7, 75064, Note_off_c, 5, 90, 100
7, 75072, Note_on_c, 5, 88, 127
7, 75160, Note_off_c, 5, 88, 100
7, 75168, Note_on_c, 5, 90, 127
7, 75256, Note_off_c, 5, 90, 100
7, 75264, Note_on_c, 5, 91, 127
7, 75384, Note_off_c, 5, 91, 100
7, 75648, Note_on_c, 5, 86, 127
7, 75768, Note_off_c, 5, 86, 100
7, 76032, Note_on_c, 5, 83, 127
7, 76208, Note_off_c, 5, 83, 100
7, 76416, Note_on_c, 5, 86, 127
7, 76536, Note_off_c, 5, 86, 100
7, 76800, Note_on_c, 5, 84, 127
7, 76920, Note_off_c, 5, 84, 100
7, 77184, Note_on_c, 5, 89, 127
7, 77304, Note_off_c, 5, 89, 100
7, 77568, Note_on_c, 5, 77, 127
7, 77744, Note_off_c, 5, 77, 100
7, 77952, Note_on_c, 5, 88, 127
7, 78072, Note_off_c, 5, 88, 100
7, 78336, Note_on_c, 5, 88, 127
7, 78392, Note_off_c, 5, 88, 100
7, 78400, Note_on_c, 5, 87, 127
7, 78456, Note_off_c, 5, 87, 100
7, 78464, Note_on_c, 5, 88, 127
7, 78520, Note_off_c, 5, 88, 100
7, 78528, Note_on_c, 5, 87, 127
7, 78656, Note_off_c, 5, 87, 100
7, 78720, Note_on_c, 5, 85, 127
7, 78904, Note_off_c, 5, 85, 100
7, 78912, Note_on_c, 5, 87, 127
7, 79096, Note_off_c, 5, 87, 100
7, 79104, Note_on_c, 5, 83, 127
7, 79288, Note_off_c, 5, 83, 100
7, 79296, Note_on_c, 5, 85, 127
7, 79480, Note_off_c, 5, 85, 100
7, 79488, Note_on_c, 5, 87, 127
7, 79672, Note_off_c, 5, 87, 100
7, 79680, Note_on_c, 5, 83, 127
7, 79808, Note_off_c, 5, 83, 100
7, 79872, Note_on_c, 5, 88, 127
7, 79992, Note_off_c, 5, 88, 100
7, 80256, Note_on_c, 5, 76, 127
7, 80376, Note_off_c, 5, 76, 100
7, 80640, Note_on_c, 5, 88, 127
7, 81784, Note_off_c, 5, 88, 64
7, 81792, Note_on_c, 5, 76, 127
7, 81912, Note_off_c, 5, 76, 100
7, 82176, Note_on_c, 5, 88, 127
7, 83704, Note_off_c, 5, 88, 64
7, 83712, Note_on_c, 5, 87, 127
7, 84472, Note_off_c, 5, 87, 100
7, 84480, Note_on_c, 5, 88, 127
7, 85240, Note_off_c, 5, 88, 100
7, 85440, Note_on_c, 5, 86, 127
7, 85624, Note_off_c, 5, 86, 100
7, 85632, Note_on_c, 5, 85, 127
7, 85816, Note_off_c, 5, 85, 100
7, 85824, Note_on_c, 5, 83, 127
7, 86008, Note_off_c, 5, 83, 100
7, 86016, Note_on_c, 5, 81, 127
7, 86136, Note_off_c, 5, 81, 100
7, 86400, Note_on_c, 5, 91, 127
7, 87160, Note_off_c, 5, 91, 100
7, 87168, Note_on_c, 5, 89, 127
7, 87352, Note_off_c, 5, 89, 100
7, 87360, Note_on_c, 5, 88, 127
7, 87544, Note_off_c, 5, 88, 100
7, 87552, Note_on_c, 5, 89, 127
7, 88320, Note_off_c, 5, 89, 100
7, 88704, Note_on_c, 5, 88, 127
7, 88888, Note_off_c, 5, 88, 100
7, 88896, Note_on_c, 5, 86, 127
7, 89080, Note_off_c, 5, 86, 100
7, 89088, Note_on_c, 5, 88, 127
7, 89856, Note_off_c, 5, 88, 100
7, 90240, Note_on_c, 5, 90, 127
7, 90424, Note_off_c, 5, 90, 100
7, 90432, Note_on_c, 5, 91, 127
7, 90616, Note_off_c, 5, 91, 100
7, 90624, Note_on_c, 5, 93, 127
7, 90808, Note_off_c, 5, 93, 100
7, 90816, Note_on_c, 5, 95, 127
7, 90944, Note_off_c, 5, 95, 100
7, 91008, Note_on_c, 5, 91, 127
7, 91192, Note_off_c, 5, 91, 100
7, 91200, Note_on_c, 5, 93, 127
7, 91328, Note_off_c, 5, 93, 100
7, 91392, Note_on_c, 5, 90, 127
7, 91512, Note_off_c, 5, 90, 100
7, 91776, Note_on_c, 5, 93, 127
7, 92536, Note_off_c, 5, 93, 64
7, 92544, Note_on_c, 5, 91, 127
7, 92728, Note_off_c, 5, 91, 100
7, 92736, Note_on_c, 5, 90, 127
7, 92920, Note_off_c, 5, 90, 100
7, 92928, Note_on_c, 5, 91, 127
7, 93048, Note_off_c, 5, 91, 100
7, 93312, Note_on_c, 5, 83, 127
7, 94072, Note_off_c, 5, 83, 64
7, 94080, Note_on_c, 5, 81, 127
7, 94264, Note_off_c, 5, 81, 100
7, 94272, Note_on_c, 5, 83, 127
7, 94456, Note_off_c, 5, 83, 100
7, 94464, Note_on_c, 5, 84, 127
7, 95608, Note_off_c, 5, 84, 64
7, 95616, Note_on_c, 5, 83, 127
7, 95736, Note_off_c, 5, 83, 100
7, 96000, Note_on_c, 5, 81, 127
7, 96760, Note_off_c, 5, 81, 100
7, 96768, Note_on_c, 5, 79, 127
7, 98048, Note_off_c, 5, 79, 100
7, 98048, End_track
8, 0, Start_track
8, 0, Title_t, "www.bruno-de-giusti.net"
8, 0, Control_c, 6, 0, 0
8, 0, Program_c, 6, 6
8, 0, Control_c, 6, 7, 127
8, 0, Control_c, 6, 10, 127
8, 0, Control_c, 6, 91, 123
8, 0, Key_signature, 1, "major"
8, 6144, Note_on_c, 6, 50, 127
8, 6200, Note_off_c, 6, 50, 100
8, 6208, Note_on_c, 6, 48, 127
8, 6264, Note_off_c, 6, 48, 100
8, 6272, Note_on_c, 6, 50, 127
8, 6840, Note_off_c, 6, 50, 100
8, 6912, Note_on_c, 6, 52, 127
8, 7000, Note_off_c, 6, 52, 100
8, 7008, Note_on_c, 6, 50, 127
8, 7096, Note_off_c, 6, 50, 100
8, 7104, Note_on_c, 6, 52, 127
8, 7192, Note_off_c, 6, 52, 100
8, 7200, Note_on_c, 6, 50, 127
8, 7288, Note_off_c, 6, 50, 100
8, 7296, Note_on_c, 6, 52, 127
8, 7384, Note_off_c, 6, 52, 100
8, 7392, Note_on_c, 6, 50, 127
8, 7480, Note_off_c, 6, 50, 100
8, 7488, Note_on_c, 6, 48, 127
8, 7576, Note_off_c, 6, 48, 100
8, 7584, Note_on_c, 6, 50, 127
8, 7672, Note_off_c, 6, 50, 100
8, 7680, Note_on_c, 6, 52, 127
8, 7800, Note_off_c, 6, 52, 100
8, 8064, Note_on_c, 6, 48, 127
8, 8184, Note_off_c, 6, 48, 100
8, 8448, Note_on_c, 6, 45, 127
8, 8624, Note_off_c, 6, 45, 100
8, 8832, Note_on_c, 6, 48, 127
8, 8952, Note_off_c, 6, 48, 100
8, 9216, Note_on_c, 6, 45, 127
8, 9336, Note_off_c, 6, 45, 100
8, 9600, Note_on_c, 6, 50, 127
8, 9720, Note_off_c, 6, 50, 100
8, 9984, Note_on_c, 6, 38, 127
8, 10160, Note_off_c, 6, 38, 100
8, 10368, Note_on_c, 6, 48, 127
8, 10488, Note_off_c, 6, 48, 100
8, 10752, Note_on_c, 6, 48, 127
8, 10808, Note_off_c, 6, 48, 100
8, 10816, Note_on_c, 6, 47, 127
8, 10872, Note_off_c, 6, 47, 100
8, 10880, Note_on_c, 6, 48, 127
8, 10936, Note_off_c, 6, 48, 100
8, 10944, Note_on_c, 6, 47, 127
8, 11072, Note_off_c, 6, 47, 100
8, 11136, Note_on_c, 6, 45, 127
8, 11320, Note_off_c, 6, 45, 100
8, 11328, Note_on_c, 6, 47, 127
8, 11512, Note_off_c, 6, 47, 100
8, 11520, Note_on_c, 6, 43, 127
8, 11704, Note_off_c, 6, 43, 100
8, 11712, Note_on_c, 6, 47, 127
8, 11840, Note_off_c, 6, 47, 100
8, 11904, Note_on_c, 6, 45, 127
8, 12088, Note_off_c, 6, 45, 100
8, 12096, Note_on_c, 6, 48, 127
8, 12224, Note_off_c, 6, 48, 100
8, 12288, Note_on_c, 6, 47, 127
8, 12472, Note_off_c, 6, 47, 100
8, 12480, Note_on_c, 6, 45, 127
8, 12664, Note_off_c, 6, 45, 100
8, 12672, Note_on_c, 6, 47, 127
8, 12792, Note_off_c, 6, 47, 100
8, 13056, Note_on_c, 6, 52, 127
8, 14200, Note_off_c, 6, 52, 64
8, 14208, Note_on_c, 6, 45, 127
8, 14328, Note_off_c, 6, 45, 100
8, 14592, Note_on_c, 6, 50, 127
8, 15736, Note_off_c, 6, 50, 64
8, 15744, Note_on_c, 6, 47, 127
8, 15864, Note_off_c, 6, 47, 100
8, 16128, Note_on_c, 6, 52, 127
8, 17272, Note_off_c, 6, 52, 64
8, 17280, Note_on_c, 6, 50, 127
8, 17400, Note_off_c, 6, 50, 100
8, 17664, Note_on_c, 6, 49, 127
8, 18040, Note_off_c, 6, 49, 100
8, 18048, Note_on_c, 6, 52, 127
8, 18168, Note_off_c, 6, 52, 100
8, 18432, Note_on_c, 6, 45, 127
8, 18560, Note_off_c, 6, 45, 100
8, 18624, Note_on_c, 6, 47, 127
8, 18808, Note_off_c, 6, 47, 100
8, 18816, Note_on_c, 6, 45, 127
8, 19000, Note_off_c, 6, 45, 100
8, 19008, Note_on_c, 6, 43, 127
8, 19192, Note_off_c, 6, 43, 100
8, 19200, Note_on_c, 6, 42, 127
8, 19712, Note_off_c, 6, 42, 100
8, 19968, Note_on_c, 6, 43, 127
8, 20480, Note_off_c, 6, 43, 100
8, 21888, Note_on_c, 6, 40, 127
8, 22008, Note_off_c, 6, 40, 100
8, 22272, Note_on_c, 6, 45, 127
8, 23032, Note_off_c, 6, 45, 100
8, 23232, Note_on_c, 6, 45, 127
8, 23416, Note_off_c, 6, 45, 100
8, 23424, Note_on_c, 6, 43, 127
8, 23608, Note_off_c, 6, 43, 100
8, 23616, Note_on_c, 6, 45, 127
8, 23800, Note_off_c, 6, 45, 100
8, 23808, Note_on_c, 6, 42, 127
8, 24320, Note_off_c, 6, 42, 100
8, 30720, Note_on_c, 6, 50, 127
8, 30776, Note_off_c, 6, 50, 100
8, 30784, Note_on_c, 6, 48, 127
8, 30840, Note_off_c, 6, 48, 100
8, 30848, Note_on_c, 6, 50, 127
8, 31416, Note_off_c, 6, 50, 100
8, 31488, Note_on_c, 6, 52, 127
8, 31576, Note_off_c, 6, 52, 100
8, 31584, Note_on_c, 6, 50, 127
8, 31672, Note_off_c, 6, 50, 100
8, 31680, Note_on_c, 6, 52, 127
8, 31768, Note_off_c, 6, 52, 100
8, 31776, Note_on_c, 6, 50, 127
8, 31864, Note_off_c, 6, 50, 100
8, 31872, Note_on_c, 6, 52, 127
8, 31960, Note_off_c, 6, 52, 100
8, 31968, Note_on_c, 6, 50, 127
8, 32056, Note_off_c, 6, 50, 100
8, 32064, Note_on_c, 6, 48, 127
8, 32152, Note_off_c, 6, 48, 100
8, 32160, Note_on_c, 6, 50, 127
8, 32248, Note_off_c, 6, 50, 100
8, 32256, Note_on_c, 6, 52, 127
8, 32376, Note_off_c, 6, 52, 100
8, 32640, Note_on_c, 6, 48, 127
8, 32760, Note_off_c, 6, 48, 100
8, 33024, Note_on_c, 6, 45, 127
8, 33200, Note_off_c, 6, 45, 100
8, 33408, Note_on_c, 6, 48, 127
8, 33528, Note_off_c, 6, 48, 100
8, 33792, Note_on_c, 6, 45, 127
8, 33912, Note_off_c, 6, 45, 100
8, 34176, Note_on_c, 6, 50, 127
8, 34296, Note_off_c, 6, 50, 100
8, 34560, Note_on_c, 6, 38, 127
8, 34736, Note_off_c, 6, 38, 100
8, 34944, Note_on_c, 6, 48, 127
8, 35064, Note_off_c, 6, 48, 100
8, 35328, Note_on_c, 6, 48, 127
8, 35384, Note_off_c, 6, 48, 100
8, 35392, Note_on_c, 6, 47, 127
8, 35448, Note_off_c, 6, 47, 100
8, 35456, Note_on_c, 6, 48, 127
8, 35512, Note_off_c, 6, 48, 100
8, 35520, Note_on_c, 6, 47, 127
8, 35648, Note_off_c, 6, 47, 100
8, 35712, Note_on_c, 6, 45, 127
8, 35896, Note_off_c, 6, 45, 100
8, 35904, Note_on_c, 6, 47, 127
8, 36088, Note_off_c, 6, 47, 100
8, 36096, Note_on_c, 6, 43, 127
8, 36280, Note_off_c, 6, 43, 100
8, 36288, Note_on_c, 6, 47, 127
8, 36416, Note_off_c, 6, 47, 100
8, 36480, Note_on_c, 6, 45, 127
8, 36664, Note_off_c, 6, 45, 100
8, 36672, Note_on_c, 6, 48, 127
8, 36800, Note_off_c, 6, 48, 100
8, 36864, Note_on_c, 6, 47, 127
8, 37048, Note_off_c, 6, 47, 100
8, 37056, Note_on_c, 6, 45, 127
8, 37240, Note_off_c, 6, 45, 100
8, 37248, Note_on_c, 6, 47, 127
8, 37368, Note_off_c, 6, 47, 100
8, 37632, Note_on_c, 6, 52, 127
8, 38776, Note_off_c, 6, 52, 64
8, 38784, Note_on_c, 6, 45, 127
8, 38904, Note_off_c, 6, 45, 100
8, 39168, Note_on_c, 6, 50, 127
8, 40312, Note_off_c, 6, 50, 64
8, 40320, Note_on_c, 6, 47, 127
8, 40440, Note_off_c, 6, 47, 100
8, 40704, Note_on_c, 6, 52, 127
8, 41848, Note_off_c, 6, 52, 64
8, 41856, Note_on_c, 6, 50, 127
8, 41976, Note_off_c, 6, 50, 100
8, 42240, Note_on_c, 6, 49, 127
8, 42616, Note_off_c, 6, 49, 100
8, 42624, Note_on_c, 6, 52, 127
8, 42744, Note_off_c, 6, 52, 100
8, 43008, Note_on_c, 6, 45, 127
8, 43136, Note_off_c, 6, 45, 100
8, 43200, Note_on_c, 6, 47, 127
8, 43384, Note_off_c, 6, 47, 100
8, 43392, Note_on_c, 6, 45, 127
8, 43576, Note_off_c, 6, 45, 100
8, 43584, Note_on_c, 6, 43, 127
8, 43768, Note_off_c, 6, 43, 100
8, 43776, Note_on_c, 6, 42, 127
8, 44288, Note_off_c, 6, 42, 100
8, 44544, Note_on_c, 6, 43, 127
8, 45056, Note_off_c, 6, 43, 100
8, 46464, Note_on_c, 6, 40, 127
8, 46584, Note_off_c, 6, 40, 100
8, 46848, Note_on_c, 6, 45, 127
8, 47608, Note_off_c, 6, 45, 100
8, 47808, Note_on_c, 6, 45, 127
8, 47992, Note_off_c, 6, 45, 100
8, 48000, Note_on_c, 6, 43, 127
8, 48184, Note_off_c, 6, 43, 100
8, 48192, Note_on_c, 6, 45, 127
8, 48376, Note_off_c, 6, 45, 100
8, 48384, Note_on_c, 6, 42, 127
8, 48896, Note_off_c, 6, 42, 100
8, 61440, Note_on_c, 6, 37, 127
8, 61496, Note_off_c, 6, 37, 100
8, 61504, Note_on_c, 6, 35, 127
8, 61560, Note_off_c, 6, 35, 100
8, 61568, Note_on_c, 6, 37, 127
8, 62136, Note_off_c, 6, 37, 100
8, 62208, Note_on_c, 6, 38, 127
8, 62296, Note_off_c, 6, 38, 100
8, 62304, Note_on_c, 6, 37, 127
8, 62392, Note_off_c, 6, 37, 100
8, 62400, Note_on_c, 6, 38, 127
8, 62488, Note_off_c, 6, 38, 100
8, 62496, Note_on_c, 6, 37, 127
8, 62584, Note_off_c, 6, 37, 100
8, 62592, Note_on_c, 6, 38, 127
8, 62680, Note_off_c, 6, 38, 100
8, 62688, Note_on_c, 6, 37, 127
8, 62776, Note_off_c, 6, 37, 100
8, 62784, Note_on_c, 6, 35, 127
8, 62872, Note_off_c, 6, 35, 100
8, 62880, Note_on_c, 6, 37, 127
8, 62968, Note_off_c, 6, 37, 100
8, 62976, Note_on_c, 6, 38, 127
8, 63096, Note_off_c, 6, 38, 100
8, 63360, Note_on_c, 6, 35, 127
8, 63480, Note_off_c, 6, 35, 100
8, 63744, Note_on_c, 6, 31, 127
8, 63920, Note_off_c, 6, 31, 100
8, 64128, Note_on_c, 6, 35, 127
8, 64248, Note_off_c, 6, 35, 100
8, 64512, Note_on_c, 6, 36, 127
8, 64632, Note_off_c, 6, 36, 100
8, 64896, Note_on_c, 6, 40, 127
8, 65016, Note_off_c, 6, 40, 100
8, 65280, Note_on_c, 6, 33, 127
8, 65456, Note_off_c, 6, 33, 100
8, 65664, Note_on_c, 6, 43, 127
8, 65784, Note_off_c, 6, 43, 100
8, 66048, Note_on_c, 6, 43, 127
8, 66104, Note_off_c, 6, 43, 100
8, 66112, Note_on_c, 6, 42, 127
8, 66168, Note_off_c, 6, 42, 100
8, 66176, Note_on_c, 6, 43, 127
8, 66232, Note_off_c, 6, 43, 100
8, 66240, Note_on_c, 6, 42, 127
8, 66424, Note_off_c, 6, 42, 100
8, 66432, Note_on_c, 6, 40, 127
8, 66616, Note_off_c, 6, 40, 100
8, 66624, Note_on_c, 6, 42, 127
8, 66808, Note_off_c, 6, 42, 100
8, 66816, Note_on_c, 6, 38, 127
8, 67000, Note_off_c, 6, 38, 100
8, 67008, Note_on_c, 6, 40, 127
8, 67192, Note_off_c, 6, 40, 100
8, 67200, Note_on_c, 6, 42, 127
8, 67384, Note_off_c, 6, 42, 100
8, 67392, Note_on_c, 6, 38, 127
8, 67520, Note_off_c, 6, 38, 100
8, 67584, Note_on_c, 6, 43, 127
8, 67704, Note_off_c, 6, 43, 100
8, 67968, Note_on_c, 6, 45, 127
8, 68088, Note_off_c, 6, 45, 100
8, 68352, Note_on_c, 6, 47, 127
8, 68472, Note_off_c, 6, 47, 100
8, 68736, Note_on_c, 6, 43, 127
8, 68856, Note_off_c, 6, 43, 100
8, 69120, Note_on_c, 6, 36, 127
8, 69880, Note_off_c, 6, 36, 100
8, 70272, Note_on_c, 6, 45, 127
8, 70392, Note_off_c, 6, 45, 100
8, 70656, Note_on_c, 6, 38, 127
8, 71416, Note_off_c, 6, 38, 100
8, 71808, Note_on_c, 6, 38, 127
8, 71928, Note_off_c, 6, 38, 100
8, 72192, Note_on_c, 6, 43, 127
8, 72952, Note_off_c, 6, 43, 100
8, 72960, Note_on_c, 6, 31, 127
8, 73472, Note_off_c, 6, 31, 100
8, 86016, Note_on_c, 6, 37, 127
8, 86072, Note_off_c, 6, 37, 100
8, 86080, Note_on_c, 6, 35, 127
8, 86136, Note_off_c, 6, 35, 100
8, 86144, Note_on_c, 6, 37, 127
8, 86712, Note_off_c, 6, 37, 100
8, 86784, Note_on_c, 6, 38, 127
8, 86872, Note_off_c, 6, 38, 100
8, 86880, Note_on_c, 6, 37, 127
8, 86968, Note_off_c, 6, 37, 100
8, 86976, Note_on_c, 6, 38, 127
8, 87064, Note_off_c, 6, 38, 100
8, 87072, Note_on_c, 6, 37, 127
8, 87160, Note_off_c, 6, 37, 100
8, 87168, Note_on_c, 6, 38, 127
8, 87256, Note_off_c, 6, 38, 100
8, 87264, Note_on_c, 6, 37, 127
8, 87352, Note_off_c, 6, 37, 100
8, 87360, Note_on_c, 6, 35, 127
8, 87448, Note_off_c, 6, 35, 100
8, 87456, Note_on_c, 6, 37, 127
8, 87544, Note_off_c, 6, 37, 100
8, 87552, Note_on_c, 6, 38, 127
8, 87672, Note_off_c, 6, 38, 100
8, 87936, Note_on_c, 6, 35, 127
8, 88056, Note_off_c, 6, 35, 100
8, 88320, Note_on_c, 6, 31, 127
8, 88496, Note_off_c, 6, 31, 100
8, 88704, Note_on_c, 6, 35, 127
8, 88824, Note_off_c, 6, 35, 100
8, 89088, Note_on_c, 6, 36, 127
8, 89208, Note_off_c, 6, 36, 100
8, 89472, Note_on_c, 6, 40, 127
8, 89592, Note_off_c, 6, 40, 100
8, 89856, Note_on_c, 6, 33, 127
8, 90032, Note_off_c, 6, 33, 100
8, 90240, Note_on_c, 6, 43, 127
8, 90360, Note_off_c, 6, 43, 100
8, 90624, Note_on_c, 6, 43, 127
8, 90680, Note_off_c, 6, 43, 100
8, 90688, Note_on_c, 6, 42, 127
8, 90744, Note_off_c, 6, 42, 100
8, 90752, Note_on_c, 6, 43, 127
8, 90808, Note_off_c, 6, 43, 100
8, 90816, Note_on_c, 6, 42, 127
8, 91000, Note_off_c, 6, 42, 100
8, 91008, Note_on_c, 6, 40, 127
8, 91192, Note_off_c, 6, 40, 100
8, 91200, Note_on_c, 6, 42, 127
8, 91384, Note_off_c, 6, 42, 100
8, 91392, Note_on_c, 6, 38, 127
8, 91576, Note_off_c, 6, 38, 100
8, 91584, Note_on_c, 6, 40, 127
8, 91768, Note_off_c, 6, 40, 100
8, 91776, Note_on_c, 6, 42, 127
8, 91960, Note_off_c, 6, 42, 100
8, 91968, Note_on_c, 6, 38, 127
8, 92096, Note_off_c, 6, 38, 100
8, 92160, Note_on_c, 6, 43, 127
8, 92280, Note_off_c, 6, 43, 100
8, 92544, Note_on_c, 6, 45, 127
8, 92664, Note_off_c, 6, 45, 100
8, 92928, Note_on_c, 6, 47, 127
8, 93048, Note_off_c, 6, 47, 100
8, 93312, Note_on_c, 6, 43, 127
8, 93432, Note_off_c, 6, 43, 100
8, 93696, Note_on_c, 6, 36, 127
8, 94456, Note_off_c, 6, 36, 100
8, 94848, Note_on_c, 6, 45, 127
8, 94968, Note_off_c, 6, 45, 100
8, 95232, Note_on_c, 6, 38, 127
8, 95992, Note_off_c, 6, 38, 100
8, 96384, Note_on_c, 6, 38, 127
8, 96504, Note_off_c, 6, 38, 100
8, 96768, Note_on_c, 6, 43, 127
8, 97528, Note_off_c, 6, 43, 100
8, 97536, Note_on_c, 6, 31, 127
8, 98048, Note_off_c, 6, 31, 100
8, 98048, End_track
9, 0, Start_track
9, 0, Title_t, "All rights reserved"
9, 0, Control_c, 7, 0, 0
9, 0, Program_c, 7, 6
9, 0, Control_c, 7, 7, 127
9, 0, Control_c, 7, 10, 0
9, 0, Control_c, 7, 91, 127
9, 0, Key_signature, 1, "major"
9, 0, Note_on_c, 7, 43, 96
9, 56, Note_off_c, 7, 43, 100
9, 64, Note_on_c, 7, 42, 96
9, 120, Note_off_c, 7, 42, 100
9, 128, Note_on_c, 7, 43, 96
9, 696, Note_off_c, 7, 43, 100
9, 768, Note_on_c, 7, 45, 96
9, 856, Note_off_c, 7, 45, 100
9, 864, Note_on_c, 7, 43, 96
9, 952, Note_off_c, 7, 43, 100
9, 960, Note_on_c, 7, 45, 96
9, 1048, Note_off_c, 7, 45, 100
9, 1056, Note_on_c, 7, 43, 96
9, 1144, Note_off_c, 7, 43, 100
9, 1152, Note_on_c, 7, 45, 96
9, 1240, Note_off_c, 7, 45, 100
9, 1248, Note_on_c, 7, 43, 96
9, 1336, Note_off_c, 7, 43, 100
9, 1344, Note_on_c, 7, 42, 96
9, 1432, Note_off_c, 7, 42, 100
9, 1440, Note_on_c, 7, 43, 96
9, 1528, Note_off_c, 7, 43, 100
9, 1536, Note_on_c, 7, 45, 96
9, 1656, Note_off_c, 7, 45, 100
9, 1920, Note_on_c, 7, 42, 96
9, 2040, Note_off_c, 7, 42, 100
9, 2304, Note_on_c, 7, 38, 96
9, 2480, Note_off_c, 7, 38, 100
9, 2688, Note_on_c, 7, 42, 96
9, 2808, Note_off_c, 7, 42, 100
9, 3072, Note_on_c, 7, 40, 96
9, 3192, Note_off_c, 7, 40, 100
9, 3456, Note_on_c, 7, 45, 96
9, 3576, Note_off_c, 7, 45, 100
9, 3840, Note_on_c, 7, 33, 96
9, 4016, Note_off_c, 7, 33, 100
9, 4224, Note_on_c, 7, 43, 96
9, 4344, Note_off_c, 7, 43, 100
9, 4608, Note_on_c, 7, 43, 96
9, 4664, Note_off_c, 7, 43, 100
9, 4672, Note_on_c, 7, 42, 96
9, 4728, Note_off_c, 7, 42, 100
9, 4736, Note_on_c, 7, 43, 96
9, 4792, Note_off_c, 7, 43, 100
9, 4800, Note_on_c, 7, 42, 96
9, 4928, Note_off_c, 7, 42, 100
9, 4992, Note_on_c, 7, 40, 96
9, 5176, Note_off_c, 7, 40, 100
9, 5184, Note_on_c, 7, 42, 96
9, 5368, Note_off_c, 7, 42, 100
9, 5376, Note_on_c, 7, 38, 96
9, 5560, Note_off_c, 7, 38, 100
9, 5568, Note_on_c, 7, 40, 96
9, 5696, Note_off_c, 7, 40, 100
9, 5760, Note_on_c, 7, 36, 96
9, 5944, Note_off_c, 7, 36, 100
9, 5952, Note_on_c, 7, 38, 96
9, 6080, Note_off_c, 7, 38, 100
9, 6144, Note_on_c, 7, 35, 96
9, 6272, Note_off_c, 7, 35, 100
9, 6336, Note_on_c, 7, 38, 96
9, 6520, Note_off_c, 7, 38, 100
9, 6528, Note_on_c, 7, 40, 96
9, 6712, Note_off_c, 7, 40, 100
9, 6720, Note_on_c, 7, 42, 96
9, 6904, Note_off_c, 7, 42, 100
9, 6912, Note_on_c, 7, 43, 96
9, 7032, Note_off_c, 7, 43, 100
9, 7296, Note_on_c, 7, 35, 96
9, 7416, Note_off_c, 7, 35, 100
9, 7680, Note_on_c, 7, 36, 96
9, 8440, Note_off_c, 7, 36, 100
9, 8832, Note_on_c, 7, 33, 96
9, 8952, Note_off_c, 7, 33, 100
9, 9216, Note_on_c, 7, 30, 96
9, 9976, Note_off_c, 7, 30, 100
9, 10368, Note_on_c, 7, 26, 96
9, 10488, Note_off_c, 7, 26, 100
9, 10752, Note_on_c, 7, 31, 96
9, 11008, Note_off_c, 7, 31, 100
9, 11136, Note_on_c, 7, 38, 96
9, 11256, Note_off_c, 7, 38, 100
9, 11520, Note_on_c, 7, 35, 96
9, 11640, Note_off_c, 7, 35, 100
9, 11904, Note_on_c, 7, 38, 96
9, 12024, Note_off_c, 7, 38, 100
9, 12288, Note_on_c, 7, 43, 96
9, 13048, Note_off_c, 7, 43, 100
9, 13440, Note_on_c, 7, 40, 96
9, 13560, Note_off_c, 7, 40, 100
9, 13824, Note_on_c, 7, 42, 96
9, 14584, Note_off_c, 7, 42, 100
9, 14976, Note_on_c, 7, 38, 96
9, 15096, Note_off_c, 7, 38, 100
9, 15360, Note_on_c, 7, 43, 96
9, 16120, Note_off_c, 7, 43, 100
9, 16512, Note_on_c, 7, 40, 96
9, 16632, Note_off_c, 7, 40, 100
9, 16896, Note_on_c, 7, 45, 96
9, 17656, Note_off_c, 7, 45, 100
9, 18048, Note_on_c, 7, 43, 96
9, 18168, Note_off_c, 7, 43, 100
9, 18432, Note_on_c, 7, 42, 96
9, 19192, Note_off_c, 7, 42, 100
9, 19584, Note_on_c, 7, 38, 96
9, 19704, Note_off_c, 7, 38, 100
9, 19968, Note_on_c, 7, 31, 96
9, 20224, Note_off_c, 7, 31, 100
9, 20352, Note_on_c, 7, 35, 96
9, 20472, Note_off_c, 7, 35, 100
9, 20736, Note_on_c, 7, 31, 96
9, 20856, Note_off_c, 7, 31, 100
9, 21120, Note_on_c, 7, 28, 96
9, 21240, Note_off_c, 7, 28, 100
9, 21504, Note_on_c, 7, 33, 96
9, 22264, Note_off_c, 7, 33, 100
9, 22656, Note_on_c, 7, 33, 96
9, 22776, Note_off_c, 7, 33, 100
9, 23040, Note_on_c, 7, 38, 96
9, 24320, Note_off_c, 7, 38, 100
9, 24576, Note_on_c, 7, 43, 96
9, 24632, Note_off_c, 7, 43, 100
9, 24640, Note_on_c, 7, 42, 96
9, 24696, Note_off_c, 7, 42, 100
9, 24704, Note_on_c, 7, 43, 96
9, 25272, Note_off_c, 7, 43, 100
9, 25344, Note_on_c, 7, 45, 96
9, 25432, Note_off_c, 7, 45, 100
9, 25440, Note_on_c, 7, 43, 96
9, 25528, Note_off_c, 7, 43, 100
9, 25536, Note_on_c, 7, 45, 96
9, 25624, Note_off_c, 7, 45, 100
9, 25632, Note_on_c, 7, 43, 96
9, 25720, Note_off_c, 7, 43, 100
9, 25728, Note_on_c, 7, 45, 96
9, 25816, Note_off_c, 7, 45, 100
9, 25824, Note_on_c, 7, 43, 96
9, 25912, Note_off_c, 7, 43, 100
9, 25920, Note_on_c, 7, 42, 96
9, 26008, Note_off_c, 7, 42, 100
9, 26016, Note_on_c, 7, 43, 96
9, 26104, Note_off_c, 7, 43, 100
9, 26112, Note_on_c, 7, 45, 96
9, 26232, Note_off_c, 7, 45, 100
9, 26496, Note_on_c, 7, 42, 96
9, 26616, Note_off_c, 7, 42, 100
9, 26880, Note_on_c, 7, 38, 96
9, 27056, Note_off_c, 7, 38, 100
9, 27264, Note_on_c, 7, 42, 96
9, 27384, Note_off_c, 7, 42, 100
9, 27648, Note_on_c, 7, 40, 96
9, 27768, Note_off_c, 7, 40, 100
9, 28032, Note_on_c, 7, 45, 96
9, 28152, Note_off_c, 7, 45, 100
9, 28416, Note_on_c, 7, 33, 96
9, 28592, Note_off_c, 7, 33, 100
9, 28800, Note_on_c, 7, 43, 96
9, 28920, Note_off_c, 7, 43, 100
9, 29184, Note_on_c, 7, 43, 96
9, 29240, Note_off_c, 7, 43, 100
9, 29248, Note_on_c, 7, 42, 96
9, 29304, Note_off_c, 7, 42, 100
9, 29312, Note_on_c, 7, 43, 96
9, 29368, Note_off_c, 7, 43, 100
9, 29376, Note_on_c, 7, 42, 96
9, 29504, Note_off_c, 7, 42, 100
9, 29568, Note_on_c, 7, 40, 96
9, 29752, Note_off_c, 7, 40, 100
9, 29760, Note_on_c, 7, 42, 96
9, 29944, Note_off_c, 7, 42, 100
9, 29952, Note_on_c, 7, 38, 96
9, 30136, Note_off_c, 7, 38, 100
9, 30144, Note_on_c, 7, 40, 96
9, 30272, Note_off_c, 7, 40, 100
9, 30336, Note_on_c, 7, 36, 96
9, 30520, Note_off_c, 7, 36, 100
9, 30528, Note_on_c, 7, 38, 96
9, 30656, Note_off_c, 7, 38, 100
9, 30720, Note_on_c, 7, 35, 96
9, 30848, Note_off_c, 7, 35, 100
9, 30912, Note_on_c, 7, 38, 96
9, 31096, Note_off_c, 7, 38, 100
9, 31104, Note_on_c, 7, 40, 96
9, 31288, Note_off_c, 7, 40, 100
9, 31296, Note_on_c, 7, 42, 96
9, 31480, Note_off_c, 7, 42, 100
9, 31488, Note_on_c, 7, 43, 96
9, 31608, Note_off_c, 7, 43, 100
9, 31872, Note_on_c, 7, 35, 96
9, 31992, Note_off_c, 7, 35, 100
9, 32256, Note_on_c, 7, 36, 96
9, 33016, Note_off_c, 7, 36, 100
9, 33408, Note_on_c, 7, 33, 96
9, 33528, Note_off_c, 7, 33, 100
9, 33792, Note_on_c, 7, 30, 96
9, 34552, Note_off_c, 7, 30, 100
9, 34944, Note_on_c, 7, 26, 96
9, 35064, Note_off_c, 7, 26, 100
9, 35328, Note_on_c, 7, 31, 96
9, 35584, Note_off_c, 7, 31, 100
9, 35712, Note_on_c, 7, 38, 96
9, 35832, Note_off_c, 7, 38, 100
9, 36096, Note_on_c, 7, 35, 96
9, 36216, Note_off_c, 7, 35, 100
9, 36480, Note_on_c, 7, 38, 96
9, 36600, Note_off_c, 7, 38, 100
9, 36864, Note_on_c, 7, 43, 96
9, 37624, Note_off_c, 7, 43, 100
9, 38016, Note_on_c, 7, 40, 96
9, 38136, Note_off_c, 7, 40, 100
9, 38400, Note_on_c, 7, 42, 96
9, 39160, Note_off_c, 7, 42, 100
9, 39552, Note_on_c, 7, 38, 96
9, 39672, Note_off_c, 7, 38, 100
9, 39936, Note_on_c, 7, 43, 96
9, 40696, Note_off_c, 7, 43, 100
9, 41088, Note_on_c, 7, 40, 96
9, 41208, Note_off_c, 7, 40, 100
9, 41472, Note_on_c, 7, 45, 96
9, 42232, Note_off_c, 7, 45, 100
9, 42624, Note_on_c, 7, 43, 96
9, 42744, Note_off_c, 7, 43, 100
9, 43008, Note_on_c, 7, 42, 96
9, 43768, Note_off_c, 7, 42, 100
9, 44160, Note_on_c, 7, 38, 96
9, 44280, Note_off_c, 7, 38, 100
9, 44544, Note_on_c, 7, 31, 96
9, 44800, Note_off_c, 7, 31, 100
9, 44928, Note_on_c, 7, 35, 96
9, 45048, Note_off_c, 7, 35, 100
9, 45312, Note_on_c, 7, 31, 96
9, 45432, Note_off_c, 7, 31, 100
9, 45696, Note_on_c, 7, 28, 96
9, 45816, Note_off_c, 7, 28, 100
9, 46080, Note_on_c, 7, 33, 96
9, 46840, Note_off_c, 7, 33, 100
9, 47232, Note_on_c, 7, 33, 96
9, 47352, Note_off_c, 7, 33, 100
9, 47616, Note_on_c, 7, 38, 96
9, 48896, Note_off_c, 7, 38, 100
9, 49152, Note_on_c, 7, 38, 96
9, 49336, Note_off_c, 7, 38, 100
9, 49344, Note_on_c, 7, 40, 96
9, 49528, Note_off_c, 7, 40, 100
9, 49536, Note_on_c, 7, 42, 96
9, 49720, Note_off_c, 7, 42, 100
9, 49728, Note_on_c, 7, 43, 96
9, 49912, Note_off_c, 7, 43, 100
9, 49920, Note_on_c, 7, 45, 96
9, 50040, Note_off_c, 7, 45, 100
9, 50304, Note_on_c, 7, 36, 96
9, 50424, Note_off_c, 7, 36, 100
9, 50688, Note_on_c, 7, 35, 96
9, 50816, Note_off_c, 7, 35, 100
9, 50880, Note_on_c, 7, 38, 96
9, 51064, Note_off_c, 7, 38, 100
9, 51072, Note_on_c, 7, 40, 96
9, 51256, Note_off_c, 7, 40, 100
9, 51264, Note_on_c, 7, 42, 96
9, 51448, Note_off_c, 7, 42, 100
9, 51456, Note_on_c, 7, 43, 96
9, 51640, Note_off_c, 7, 43, 100
9, 51648, Note_on_c, 7, 45, 96
9, 51832, Note_off_c, 7, 45, 100
9, 51840, Note_on_c, 7, 47, 96
9, 52480, Note_off_c, 7, 47, 64
9, 52608, Note_on_c, 7, 45, 96
9, 52792, Note_off_c, 7, 45, 100
9, 52800, Note_on_c, 7, 44, 96
9, 52984, Note_off_c, 7, 44, 100
9, 52992, Note_on_c, 7, 45, 96
9, 53752, Note_off_c, 7, 45, 100
9, 54144, Note_on_c, 7, 42, 96
9, 54264, Note_off_c, 7, 42, 100
9, 54528, Note_on_c, 7, 47, 96
9, 54648, Note_off_c, 7, 47, 100
9, 54912, Note_on_c, 7, 45, 96
9, 55032, Note_off_c, 7, 45, 100
9, 55296, Note_on_c, 7, 43, 96
9, 55480, Note_off_c, 7, 43, 100
9, 55488, Note_on_c, 7, 45, 96
9, 55672, Note_off_c, 7, 45, 100
9, 55680, Note_on_c, 7, 47, 96
9, 55864, Note_off_c, 7, 47, 100
9, 55872, Note_on_c, 7, 45, 96
9, 56056, Note_off_c, 7, 45, 100
9, 56064, Note_on_c, 7, 43, 96
9, 56248, Note_off_c, 7, 43, 100
9, 56256, Note_on_c, 7, 42, 96
9, 56440, Note_off_c, 7, 42, 100
9, 56448, Note_on_c, 7, 43, 96
9, 56632, Note_off_c, 7, 43, 100
9, 56640, Note_on_c, 7, 40, 96
9, 56768, Note_off_c, 7, 40, 100
9, 56832, Note_on_c, 7, 45, 96
9, 57016, Note_off_c, 7, 45, 100
9, 57024, Note_on_c, 7, 47, 96
9, 57208, Note_off_c, 7, 47, 100
9, 57216, Note_on_c, 7, 48, 96
9, 57400, Note_off_c, 7, 48, 100
9, 57408, Note_on_c, 7, 47, 96
9, 57592, Note_off_c, 7, 47, 100
9, 57600, Note_on_c, 7, 45, 96
9, 57784, Note_off_c, 7, 45, 100
9, 57792, Note_on_c, 7, 43, 96
9, 57976, Note_off_c, 7, 43, 100
9, 57984, Note_on_c, 7, 45, 96
9, 58168, Note_off_c, 7, 45, 100
9, 58176, Note_on_c, 7, 42, 96
9, 58304, Note_off_c, 7, 42, 100
9, 58368, Note_on_c, 7, 47, 96
9, 58552, Note_off_c, 7, 47, 100
9, 58560, Note_on_c, 7, 45, 96
9, 58744, Note_off_c, 7, 45, 100
9, 58752, Note_on_c, 7, 43, 96
9, 58936, Note_off_c, 7, 43, 100
9, 58944, Note_on_c, 7, 45, 96
9, 59128, Note_off_c, 7, 45, 100
9, 59136, Note_on_c, 7, 47, 96
9, 59320, Note_off_c, 7, 47, 100
9, 59328, Note_on_c, 7, 45, 96
9, 59512, Note_off_c, 7, 45, 100
9, 59520, Note_on_c, 7, 47, 96
9, 59704, Note_off_c, 7, 47, 100
9, 59712, Note_on_c, 7, 35, 96
9, 59896, Note_off_c, 7, 35, 100
9, 59904, Note_on_c, 7, 40, 96
9, 60032, Note_off_c, 7, 40, 100
9, 60096, Note_on_c, 7, 35, 96
9, 60280, Note_off_c, 7, 35, 100
9, 60288, Note_on_c, 7, 33, 96
9, 60472, Note_off_c, 7, 33, 100
9, 60480, Note_on_c, 7, 35, 96
9, 60664, Note_off_c, 7, 35, 100
9, 60672, Note_on_c, 7, 31, 96
9, 60856, Note_off_c, 7, 31, 100
9, 60864, Note_on_c, 7, 30, 96
9, 60992, Note_off_c, 7, 30, 100
9, 61056, Note_on_c, 7, 31, 96
9, 61240, Note_off_c, 7, 31, 100
9, 61248, Note_on_c, 7, 28, 96
9, 61376, Note_off_c, 7, 28, 100
9, 67584, Note_on_c, 7, 50, 96
9, 67640, Note_off_c, 7, 50, 100
9, 67648, Note_on_c, 7, 48, 96
9, 67704, Note_off_c, 7, 48, 100
9, 67712, Note_on_c, 7, 50, 96
9, 68280, Note_off_c, 7, 50, 100
9, 68352, Note_on_c, 7, 52, 96
9, 68440, Note_off_c, 7, 52, 100
9, 68448, Note_on_c, 7, 50, 96
9, 68536, Note_off_c, 7, 50, 100
9, 68544, Note_on_c, 7, 52, 96
9, 68632, Note_off_c, 7, 52, 100
9, 68640, Note_on_c, 7, 50, 96
9, 68728, Note_off_c, 7, 50, 100
9, 68736, Note_on_c, 7, 52, 96
9, 68824, Note_off_c, 7, 52, 100
9, 68832, Note_on_c, 7, 50, 96
9, 68920, Note_off_c, 7, 50, 100
9, 68928, Note_on_c, 7, 48, 96
9, 69016, Note_off_c, 7, 48, 100
9, 69024, Note_on_c, 7, 50, 96
9, 69112, Note_off_c, 7, 50, 100
9, 69120, Note_on_c, 7, 52, 96
9, 69240, Note_off_c, 7, 52, 100
9, 69504, Note_on_c, 7, 48, 96
9, 69624, Note_off_c, 7, 48, 100
9, 69888, Note_on_c, 7, 45, 96
9, 70064, Note_off_c, 7, 45, 100
9, 70272, Note_on_c, 7, 48, 96
9, 70392, Note_off_c, 7, 48, 100
9, 70656, Note_on_c, 7, 45, 96
9, 70776, Note_off_c, 7, 45, 100
9, 71040, Note_on_c, 7, 50, 96
9, 71160, Note_off_c, 7, 50, 100
9, 71424, Note_on_c, 7, 38, 96
9, 71600, Note_off_c, 7, 38, 100
9, 71808, Note_on_c, 7, 48, 96
9, 71928, Note_off_c, 7, 48, 100
9, 72192, Note_on_c, 7, 48, 96
9, 72248, Note_off_c, 7, 48, 100
9, 72256, Note_on_c, 7, 47, 96
9, 72312, Note_off_c, 7, 47, 100
9, 72320, Note_on_c, 7, 48, 96
9, 72376, Note_off_c, 7, 48, 100
9, 72384, Note_on_c, 7, 47, 96
9, 72568, Note_off_c, 7, 47, 100
9, 72576, Note_on_c, 7, 45, 96
9, 72760, Note_off_c, 7, 45, 100
9, 72768, Note_on_c, 7, 47, 96
9, 72952, Note_off_c, 7, 47, 100
9, 72960, Note_on_c, 7, 43, 96
9, 73472, Note_off_c, 7, 43, 100
9, 73728, Note_on_c, 7, 38, 96
9, 73912, Note_off_c, 7, 38, 100
9, 73920, Note_on_c, 7, 40, 96
9, 74104, Note_off_c, 7, 40, 100
9, 74112, Note_on_c, 7, 42, 96
9, 74296, Note_off_c, 7, 42, 100
9, 74304, Note_on_c, 7, 43, 96
9, 74488, Note_off_c, 7, 43, 100
9, 74496, Note_on_c, 7, 45, 96
9, 74616, Note_off_c, 7, 45, 100
9, 74880, Note_on_c, 7, 36, 96
9, 75000, Note_off_c, 7, 36, 100
9, 75264, Note_on_c, 7, 35, 96
9, 75392, Note_off_c, 7, 35, 100
9, 75456, Note_on_c, 7, 38, 96
9, 75640, Note_off_c, 7, 38, 100
9, 75648, Note_on_c, 7, 40, 96
9, 75832, Note_off_c, 7, 40, 100
9, 75840, Note_on_c, 7, 42, 96
9, 76024, Note_off_c, 7, 42, 100
9, 76032, Note_on_c, 7, 43, 96
9, 76216, Note_off_c, 7, 43, 100
9, 76224, Note_on_c, 7, 45, 96
9, 76408, Note_off_c, 7, 45, 100
9, 76416, Note_on_c, 7, 47, 96
9, 77056, Note_off_c, 7, 47, 64
9, 77184, Note_on_c, 7, 45, 96
9, 77368, Note_off_c, 7, 45, 100
9, 77376, Note_on_c, 7, 44, 96
9, 77560, Note_off_c, 7, 44, 100
9, 77568, Note_on_c, 7, 45, 96
9, 78328, Note_off_c, 7, 45, 100
9, 78720, Note_on_c, 7, 42, 96
9, 78840, Note_off_c, 7, 42, 100
9, 79104, Note_on_c, 7, 47, 96
9, 79224, Note_off_c, 7, 47, 100
9, 79488, Note_on_c, 7, 45, 96
9, 79608, Note_off_c, 7, 45, 100
9, 79872, Note_on_c, 7, 43, 96
9, 80056, Note_off_c, 7, 43, 100
9, 80064, Note_on_c, 7, 45, 96
9, 80248, Note_off_c, 7, 45, 100
9, 80256, Note_on_c, 7, 47, 96
9, 80440, Note_off_c, 7, 47, 100
9, 80448, Note_on_c, 7, 45, 96
9, 80632, Note_off_c, 7, 45, 100
9, 80640, Note_on_c, 7, 43, 96
9, 80824, Note_off_c, 7, 43, 100
9, 80832, Note_on_c, 7, 42, 96
9, 81016, Note_off_c, 7, 42, 100
9, 81024, Note_on_c, 7, 43, 96
9, 81208, Note_off_c, 7, 43, 100
9, 81216, Note_on_c, 7, 40, 96
9, 81344, Note_off_c, 7, 40, 100
9, 81408, Note_on_c, 7, 45, 96
9, 81592, Note_off_c, 7, 45, 100
9, 81600, Note_on_c, 7, 47, 96
9, 81784, Note_off_c, 7, 47, 100
9, 81792, Note_on_c, 7, 48, 96
9, 81976, Note_off_c, 7, 48, 100
9, 81984, Note_on_c, 7, 47, 96
9, 82168, Note_off_c, 7, 47, 100
9, 82176, Note_on_c, 7, 45, 96
9, 82360, Note_off_c, 7, 45, 100
9, 82368, Note_on_c, 7, 43, 96
9, 82552, Note_off_c, 7, 43, 100
9, 82560, Note_on_c, 7, 45, 96
9, 82744, Note_off_c, 7, 45, 100
9, 82752, Note_on_c, 7, 42, 96
9, 82880, Note_off_c, 7, 42, 100
9, 82944, Note_on_c, 7, 47, 96
9, 83128, Note_off_c, 7, 47, 100
9, 83136, Note_on_c, 7, 45, 96
9, 83320, Note_off_c, 7, 45, 100
9, 83328, Note_on_c, 7, 43, 96
9, 83512, Note_off_c, 7, 43, 100
9, 83520, Note_on_c, 7, 45, 96
9, 83704, Note_off_c, 7, 45, 100
9, 83712, Note_on_c, 7, 47, 96
9, 83896, Note_off_c, 7, 47, 100
9, 83904, Note_on_c, 7, 45, 96
9, 84088, Note_off_c, 7, 45, 100
9, 84096, Note_on_c, 7, 47, 96
9, 84280, Note_off_c, 7, 47, 100
9, 84288, Note_on_c, 7, 35, 96
9, 84472, Note_off_c, 7, 35, 100
9, 84480, Note_on_c, 7, 40, 96
9, 84608, Note_off_c, 7, 40, 100
9, 84672, Note_on_c, 7, 35, 96
9, 84856, Note_off_c, 7, 35, 100
9, 84864, Note_on_c, 7, 33, 96
9, 85048, Note_off_c, 7, 33, 100
9, 85056, Note_on_c, 7, 35, 96
9, 85240, Note_off_c, 7, 35, 100
9, 85248, Note_on_c, 7, 31, 96
9, 85432, Note_off_c, 7, 31, 100
9, 85440, Note_on_c, 7, 30, 96
9, 85568, Note_off_c, 7, 30, 100
9, 85632, Note_on_c, 7, 31, 96
9, 85816, Note_off_c, 7, 31, 100
9, 85824, Note_on_c, 7, 28, 96
9, 85952, Note_off_c, 7, 28, 100
9, 92160, Note_on_c, 7, 50, 96
9, 92216, Note_off_c, 7, 50, 100
9, 92224, Note_on_c, 7, 48, 96
9, 92280, Note_off_c, 7, 48, 100
9, 92288, Note_on_c, 7, 50, 96
9, 92856, Note_off_c, 7, 50, 100
9, 92928, Note_on_c, 7, 52, 96
9, 93016, Note_off_c, 7, 52, 100
9, 93024, Note_on_c, 7, 50, 96
9, 93112, Note_off_c, 7, 50, 100
9, 93120, Note_on_c, 7, 52, 96
9, 93208, Note_off_c, 7, 52, 100
9, 93216, Note_on_c, 7, 50, 96
9, 93304, Note_off_c, 7, 50, 100
9, 93312, Note_on_c, 7, 52, 96
9, 93400, Note_off_c, 7, 52, 100
9, 93408, Note_on_c, 7, 50, 96
9, 93496, Note_off_c, 7, 50, 100
9, 93504, Note_on_c, 7, 48, 96
9, 93592, Note_off_c, 7, 48, 100
9, 93600, Note_on_c, 7, 50, 96
9, 93688, Note_off_c, 7, 50, 100
9, 93696, Note_on_c, 7, 52, 96
9, 93816, Note_off_c, 7, 52, 100
9, 94080, Note_on_c, 7, 48, 96
9, 94200, Note_off_c, 7, 48, 100
9, 94464, Note_on_c, 7, 45, 96
9, 94640, Note_off_c, 7, 45, 100
9, 94848, Note_on_c, 7, 48, 96
9, 94968, Note_off_c, 7, 48, 100
9, 95232, Note_on_c, 7, 45, 96
9, 95352, Note_off_c, 7, 45, 100
9, 95616, Note_on_c, 7, 50, 96
9, 95736, Note_off_c, 7, 50, 100
9, 96000, Note_on_c, 7, 38, 96
9, 96176, Note_off_c, 7, 38, 100
9, 96384, Note_on_c, 7, 48, 96
9, 96504, Note_off_c, 7, 48, 100
9, 96768, Note_on_c, 7, 48, 96
9, 96824, Note_off_c, 7, 48, 100
9, 96832, Note_on_c, 7, 47, 96
9, 96888, Note_off_c, 7, 47, 100
9, 96896, Note_on_c, 7, 48, 96
9, 96952, Note_off_c, 7, 48, 100
9, 96960, Note_on_c, 7, 47, 96
9, 97144, Note_off_c, 7, 47, 100
9, 97152, Note_on_c, 7, 45, 96
9, 97336, Note_off_c, 7, 45, 100
9, 97344, Note_on_c, 7, 47, 96
9, 97528, Note_off_c, 7, 47, 100
9, 97536, Note_on_c, 7, 55, 1
9, 97536, Note_on_c, 7, 43, 96
9, 98048, Note_off_c, 7, 43, 100
9, 98464, Note_off_c, 7, 55, 64
9, 98464, End_track
10, 0, Start_track
10, 0, Control_c, 8, 0, 0
10, 0, Program_c, 8, 6
10, 0, Control_c, 8, 7, 127
10, 0, Control_c, 8, 10, 67
10, 0, Control_c, 8, 91, 127
10, 0, Key_signature, 1, "major"
10, 12288, Note_on_c, 8, 67, 64
10, 12344, Note_off_c, 8, 67, 100
10, 12352, Note_on_c, 8, 66, 64
10, 12408, Note_off_c, 8, 66, 100
10, 12416, Note_on_c, 8, 67, 64
10, 12984, Note_off_c, 8, 67, 100
10, 13056, Note_on_c, 8, 69, 64
10, 13144, Note_off_c, 8, 69, 100
10, 13152, Note_on_c, 8, 67, 64
10, 13240, Note_off_c, 8, 67, 100
10, 13248, Note_on_c, 8, 69, 64
10, 13336, Note_off_c, 8, 69, 100
10, 13344, Note_on_c, 8, 67, 64
10, 13432, Note_off_c, 8, 67, 100
10, 13440, Note_on_c, 8, 69, 64
10, 13528, Note_off_c, 8, 69, 100
10, 13536, Note_on_c, 8, 67, 64
10, 13624, Note_off_c, 8, 67, 100
10, 13632, Note_on_c, 8, 66, 64
10, 13720, Note_off_c, 8, 66, 100
10, 13728, Note_on_c, 8, 67, 64
10, 13816, Note_off_c, 8, 67, 100
10, 13824, Note_on_c, 8, 69, 64
10, 13944, Note_off_c, 8, 69, 100
10, 14208, Note_on_c, 8, 66, 64
10, 14328, Note_off_c, 8, 66, 100
10, 14592, Note_on_c, 8, 62, 64
10, 14768, Note_off_c, 8, 62, 100
10, 14976, Note_on_c, 8, 66, 64
10, 15096, Note_off_c, 8, 66, 100
10, 15360, Note_on_c, 8, 59, 64
10, 15480, Note_off_c, 8, 59, 100
10, 15744, Note_on_c, 8, 64, 64
10, 15864, Note_off_c, 8, 64, 100
10, 16128, Note_on_c, 8, 52, 64
10, 16304, Note_off_c, 8, 52, 100
10, 16512, Note_on_c, 8, 62, 64
10, 16632, Note_off_c, 8, 62, 100
10, 16896, Note_on_c, 8, 62, 64
10, 16952, Note_off_c, 8, 62, 100
10, 16960, Note_on_c, 8, 61, 64
10, 17016, Note_off_c, 8, 61, 100
10, 17024, Note_on_c, 8, 62, 64
10, 17080, Note_off_c, 8, 62, 100
10, 17088, Note_on_c, 8, 61, 64
10, 17216, Note_off_c, 8, 61, 100
10, 17280, Note_on_c, 8, 59, 64
10, 17464, Note_off_c, 8, 59, 100
10, 17472, Note_on_c, 8, 61, 64
10, 17656, Note_off_c, 8, 61, 100
10, 17664, Note_on_c, 8, 57, 64
10, 17848, Note_off_c, 8, 57, 100
10, 17856, Note_on_c, 8, 59, 64
10, 18040, Note_off_c, 8, 59, 100
10, 18048, Note_on_c, 8, 61, 64
10, 18232, Note_off_c, 8, 61, 100
10, 18240, Note_on_c, 8, 57, 64
10, 18368, Note_off_c, 8, 57, 100
10, 18432, Note_on_c, 8, 62, 64
10, 18688, Note_off_c, 8, 62, 100
10, 18816, Note_on_c, 8, 50, 64
10, 18936, Note_off_c, 8, 50, 100
10, 19200, Note_on_c, 8, 62, 64
10, 20344, Note_off_c, 8, 62, 100
10, 20352, Note_on_c, 8, 50, 64
10, 20472, Note_off_c, 8, 50, 100
10, 20736, Note_on_c, 8, 62, 64
10, 22264, Note_off_c, 8, 62, 100
10, 22272, Note_on_c, 8, 61, 64
10, 23032, Note_off_c, 8, 61, 100
10, 23040, Note_on_c, 8, 62, 64
10, 24320, Note_off_c, 8, 62, 100
10, 36864, Note_on_c, 8, 67, 64
10, 36920, Note_off_c, 8, 67, 100
10, 36928, Note_on_c, 8, 66, 64
10, 36984, Note_off_c, 8, 66, 100
10, 36992, Note_on_c, 8, 67, 64
10, 37560, Note_off_c, 8, 67, 100
10, 37632, Note_on_c, 8, 69, 64
10, 37720, Note_off_c, 8, 69, 100
10, 37728, Note_on_c, 8, 67, 64
10, 37816, Note_off_c, 8, 67, 100
10, 37824, Note_on_c, 8, 69, 64
10, 37912, Note_off_c, 8, 69, 100
10, 37920, Note_on_c, 8, 67, 64
10, 38008, Note_off_c, 8, 67, 100
10, 38016, Note_on_c, 8, 69, 64
10, 38104, Note_off_c, 8, 69, 100
10, 38112, Note_on_c, 8, 67, 64
10, 38200, Note_off_c, 8, 67, 100
10, 38208, Note_on_c, 8, 66, 64
10, 38296, Note_off_c, 8, 66, 100
10, 38304, Note_on_c, 8, 67, 64
10, 38392, Note_off_c, 8, 67, 100
10, 38400, Note_on_c, 8, 69, 64
10, 38520, Note_off_c, 8, 69, 100
10, 38784, Note_on_c, 8, 66, 64
10, 38904, Note_off_c, 8, 66, 100
10, 39168, Note_on_c, 8, 62, 64
10, 39344, Note_off_c, 8, 62, 100
10, 39552, Note_on_c, 8, 66, 64
10, 39672, Note_off_c, 8, 66, 100
10, 39936, Note_on_c, 8, 59, 64
10, 40056, Note_off_c, 8, 59, 100
10, 40320, Note_on_c, 8, 64, 64
10, 40440, Note_off_c, 8, 64, 100
10, 40704, Note_on_c, 8, 52, 64
10, 40880, Note_off_c, 8, 52, 100
10, 41088, Note_on_c, 8, 62, 64
10, 41208, Note_off_c, 8, 62, 100
10, 41472, Note_on_c, 8, 62, 64
10, 41528, Note_off_c, 8, 62, 100
10, 41536, Note_on_c, 8, 61, 64
10, 41592, Note_off_c, 8, 61, 100
10, 41600, Note_on_c, 8, 62, 64
10, 41656, Note_off_c, 8, 62, 100
10, 41664, Note_on_c, 8, 61, 64
10, 41792, Note_off_c, 8, 61, 100
10, 41856, Note_on_c, 8, 59, 64
10, 42040, Note_off_c, 8, 59, 100
10, 42048, Note_on_c, 8, 61, 64
10, 42232, Note_off_c, 8, 61, 100
10, 42240, Note_on_c, 8, 57, 64
10, 42424, Note_off_c, 8, 57, 100
10, 42432, Note_on_c, 8, 59, 64
10, 42616, Note_off_c, 8, 59, 100
10, 42624, Note_on_c, 8, 61, 64
10, 42808, Note_off_c, 8, 61, 100
10, 42816, Note_on_c, 8, 57, 64
10, 42944, Note_off_c, 8, 57, 100
10, 43008, Note_on_c, 8, 62, 64
10, 43264, Note_off_c, 8, 62, 100
10, 43392, Note_on_c, 8, 50, 64
10, 43512, Note_off_c, 8, 50, 100
10, 43776, Note_on_c, 8, 62, 64
10, 44920, Note_off_c, 8, 62, 100
10, 44928, Note_on_c, 8, 50, 64
10, 45048, Note_off_c, 8, 50, 100
10, 45312, Note_on_c, 8, 62, 64
10, 46840, Note_off_c, 8, 62, 100
10, 46848, Note_on_c, 8, 61, 64
10, 47608, Note_off_c, 8, 61, 100
10, 47616, Note_on_c, 8, 62, 64
10, 48896, Note_off_c, 8, 62, 100
10, 55296, Note_on_c, 8, 59, 64
10, 55352, Note_off_c, 8, 59, 100
10, 55360, Note_on_c, 8, 57, 64
10, 55416, Note_off_c, 8, 57, 100
10, 55424, Note_on_c, 8, 59, 64
10, 55992, Note_off_c, 8, 59, 100
10, 56064, Note_on_c, 8, 60, 64
10, 56152, Note_off_c, 8, 60, 100
10, 56160, Note_on_c, 8, 59, 64
10, 56248, Note_off_c, 8, 59, 100
10, 56256, Note_on_c, 8, 60, 64
10, 56344, Note_off_c, 8, 60, 100
10, 56352, Note_on_c, 8, 59, 64
10, 56440, Note_off_c, 8, 59, 100
10, 56448, Note_on_c, 8, 60, 64
10, 56536, Note_off_c, 8, 60, 100
10, 56544, Note_on_c, 8, 59, 64
10, 56632, Note_off_c, 8, 59, 100
10, 56640, Note_on_c, 8, 57, 64
10, 56728, Note_off_c, 8, 57, 100
10, 56736, Note_on_c, 8, 59, 64
10, 56824, Note_off_c, 8, 59, 100
10, 56832, Note_on_c, 8, 60, 64
10, 56952, Note_off_c, 8, 60, 100
10, 57216, Note_on_c, 8, 57, 64
10, 57336, Note_off_c, 8, 57, 100
10, 57600, Note_on_c, 8, 54, 64
10, 57776, Note_off_c, 8, 54, 100
10, 57984, Note_on_c, 8, 57, 64
10, 58104, Note_off_c, 8, 57, 100
10, 58368, Note_on_c, 8, 54, 64
10, 58488, Note_off_c, 8, 54, 100
10, 58752, Note_on_c, 8, 59, 64
10, 58872, Note_off_c, 8, 59, 100
10, 59136, Note_on_c, 8, 47, 64
10, 59312, Note_off_c, 8, 47, 100
10, 59520, Note_on_c, 8, 57, 64
10, 59640, Note_off_c, 8, 57, 100
10, 59904, Note_on_c, 8, 57, 64
10, 59960, Note_off_c, 8, 57, 100
10, 59968, Note_on_c, 8, 55, 64
10, 60024, Note_off_c, 8, 55, 100
10, 60032, Note_on_c, 8, 57, 64
10, 60088, Note_off_c, 8, 57, 100
10, 60096, Note_on_c, 8, 55, 64
10, 60280, Note_off_c, 8, 55, 100
10, 60288, Note_on_c, 8, 54, 64
10, 60472, Note_off_c, 8, 54, 100
10, 60480, Note_on_c, 8, 55, 64
10, 60664, Note_off_c, 8, 55, 100
10, 60672, Note_on_c, 8, 52, 64
10, 61816, Note_off_c, 8, 52, 100
10, 62208, Note_on_c, 8, 57, 64
10, 63352, Note_off_c, 8, 57, 100
10, 63360, Note_on_c, 8, 62, 64
10, 63480, Note_off_c, 8, 62, 100
10, 63744, Note_on_c, 8, 59, 64
10, 63864, Note_off_c, 8, 59, 100
10, 64128, Note_on_c, 8, 55, 64
10, 64768, Note_off_c, 8, 55, 100
10, 64896, Note_on_c, 8, 60, 64
10, 65080, Note_off_c, 8, 60, 100
10, 65088, Note_on_c, 8, 59, 64
10, 65272, Note_off_c, 8, 59, 100
10, 65280, Note_on_c, 8, 60, 64
10, 66808, Note_off_c, 8, 60, 100
10, 67200, Note_on_c, 8, 60, 64
10, 67320, Note_off_c, 8, 60, 100
10, 67584, Note_on_c, 8, 59, 64
10, 68344, Note_off_c, 8, 59, 100
10, 68736, Note_on_c, 8, 55, 64
10, 68856, Note_off_c, 8, 55, 100
10, 69120, Note_on_c, 8, 52, 64
10, 69888, Note_off_c, 8, 52, 100
10, 70272, Note_on_c, 8, 57, 64
10, 70456, Note_off_c, 8, 57, 100
10, 70464, Note_on_c, 8, 55, 64
10, 70648, Note_off_c, 8, 55, 100
10, 70656, Note_on_c, 8, 54, 64
10, 70776, Note_off_c, 8, 54, 100
10, 71040, Note_on_c, 8, 55, 64
10, 71800, Note_off_c, 8, 55, 100
10, 71808, Note_on_c, 8, 54, 64
10, 71928, Note_off_c, 8, 54, 100
10, 72192, Note_on_c, 8, 55, 64
10, 72320, Note_off_c, 8, 55, 100
10, 72384, Note_on_c, 8, 50, 64
10, 72568, Note_off_c, 8, 50, 100
10, 72576, Note_on_c, 8, 48, 64
10, 72760, Note_off_c, 8, 48, 100
10, 72768, Note_on_c, 8, 50, 64
10, 72952, Note_off_c, 8, 50, 100
10, 72960, Note_on_c, 8, 47, 64
10, 73472, Note_off_c, 8, 47, 100
10, 79872, Note_on_c, 8, 59, 64
10, 79928, Note_off_c, 8, 59, 100
10, 79936, Note_on_c, 8, 57, 64
10, 79992, Note_off_c, 8, 57, 100
10, 80000, Note_on_c, 8, 59, 64
10, 80568, Note_off_c, 8, 59, 100
10, 80640, Note_on_c, 8, 60, 64
10, 80728, Note_off_c, 8, 60, 100
10, 80736, Note_on_c, 8, 59, 64
10, 80824, Note_off_c, 8, 59, 100
10, 80832, Note_on_c, 8, 60, 64
10, 80920, Note_off_c, 8, 60, 100
10, 80928, Note_on_c, 8, 59, 64
10, 81016, Note_off_c, 8, 59, 100
10, 81024, Note_on_c, 8, 60, 64
10, 81112, Note_off_c, 8, 60, 100
10, 81120, Note_on_c, 8, 59, 64
10, 81208, Note_off_c, 8, 59, 100
10, 81216, Note_on_c, 8, 57, 64
10, 81304, Note_off_c, 8, 57, 100
10, 81312, Note_on_c, 8, 59, 64
10, 81400, Note_off_c, 8, 59, 100
10, 81408, Note_on_c, 8, 60, 64
10, 81528, Note_off_c, 8, 60, 100
10, 81792, Note_on_c, 8, 57, 64
10, 81912, Note_off_c, 8, 57, 100
10, 82176, Note_on_c, 8, 54, 64
10, 82352, Note_off_c, 8, 54, 100
10, 82560, Note_on_c, 8, 57, 64
10, 82680, Note_off_c, 8, 57, 100
10, 82944, Note_on_c, 8, 54, 64
10, 83064, Note_off_c, 8, 54, 100
10, 83328, Note_on_c, 8, 59, 64
10, 83448, Note_off_c, 8, 59, 100
10, 83712, Note_on_c, 8, 47, 64
10, 83888, Note_off_c, 8, 47, 100
10, 84096, Note_on_c, 8, 57, 64
10, 84216, Note_off_c, 8, 57, 100
10, 84480, Note_on_c, 8, 57, 64
10, 84536, Note_off_c, 8, 57, 100
10, 84544, Note_on_c, 8, 55, 64
10, 84600, Note_off_c, 8, 55, 100
10, 84608, Note_on_c, 8, 57, 64
10, 84664, Note_off_c, 8, 57, 100
10, 84672, Note_on_c, 8, 55, 64
10, 84856, Note_off_c, 8, 55, 100
10, 84864, Note_on_c, 8, 54, 64
10, 85048, Note_off_c, 8, 54, 100
10, 85056, Note_on_c, 8, 55, 64
10, 85240, Note_off_c, 8, 55, 100
10, 85248, Note_on_c, 8, 52, 64
10, 86392, Note_off_c, 8, 52, 64
10, 86784, Note_on_c, 8, 57, 64
10, 87928, Note_off_c, 8, 57, 64
10, 87936, Note_on_c, 8, 62, 64
10, 88056, Note_off_c, 8, 62, 100
10, 88320, Note_on_c, 8, 59, 64
10, 88440, Note_off_c, 8, 59, 100
10, 88704, Note_on_c, 8, 55, 64
10, 89344, Note_off_c, 8, 55, 64
10, 89472, Note_on_c, 8, 60, 64
10, 89656, Note_off_c, 8, 60, 100
10, 89664, Note_on_c, 8, 59, 64
10, 89848, Note_off_c, 8, 59, 100
10, 89856, Note_on_c, 8, 60, 64
10, 91384, Note_off_c, 8, 60, 64
10, 91776, Note_on_c, 8, 60, 64
10, 91896, Note_off_c, 8, 60, 100
10, 92160, Note_on_c, 8, 59, 64
10, 92920, Note_off_c, 8, 59, 100
10, 93312, Note_on_c, 8, 55, 64
10, 93432, Note_off_c, 8, 55, 100
10, 93696, Note_on_c, 8, 52, 64
10, 94464, Note_off_c, 8, 52, 100
10, 94848, Note_on_c, 8, 57, 64
10, 95032, Note_off_c, 8, 57, 100
10, 95040, Note_on_c, 8, 55, 64
10, 95224, Note_off_c, 8, 55, 100
10, 95232, Note_on_c, 8, 54, 64
10, 95352, Note_off_c, 8, 54, 100
10, 95616, Note_on_c, 8, 55, 64
10, 96376, Note_off_c, 8, 55, 100
10, 96384, Note_on_c, 8, 54, 64
10, 96504, Note_off_c, 8, 54, 100
10, 96768, Note_on_c, 8, 55, 64
10, 96896, Note_off_c, 8, 55, 100
10, 96960, Note_on_c, 8, 50, 64
10, 97144, Note_off_c, 8, 50, 100
10, 97152, Note_on_c, 8, 48, 64
10, 97336, Note_off_c, 8, 48, 100
10, 97344, Note_on_c, 8, 50, 64
10, 97528, Note_off_c, 8, 50, 100
10, 97536, Note_on_c, 8, 47, 64
10, 98048, Note_off_c, 8, 47, 100
10, 98048, End_track
11, 0, Start_track
11, 0, Control_c, 10, 0, 0
11, 0, Program_c, 10, 6
11, 0, Control_c, 10, 7, 127
11, 0, Control_c, 10, 10, 64
11, 0, Control_c, 10, 91, 127
11, 0, Key_signature, 1, "major"
11, 18432, Note_on_c, 10, 57, 64
11, 18488, Note_off_c, 10, 57, 100
11, 18496, Note_on_c, 10, 55, 64
11, 18552, Note_off_c, 10, 55, 100
11, 18560, Note_on_c, 10, 57, 64
11, 19128, Note_off_c, 10, 57, 100
11, 19200, Note_on_c, 10, 59, 64
11, 19288, Note_off_c, 10, 59, 100
11, 19296, Note_on_c, 10, 57, 64
11, 19384, Note_off_c, 10, 57, 100
11, 19392, Note_on_c, 10, 59, 64
11, 19480, Note_off_c, 10, 59, 100
11, 19488, Note_on_c, 10, 57, 64
11, 19576, Note_off_c, 10, 57, 100
11, 19584, Note_on_c, 10, 59, 64
11, 19672, Note_off_c, 10, 59, 100
11, 19680, Note_on_c, 10, 57, 64
11, 19768, Note_off_c, 10, 57, 100
11, 19776, Note_on_c, 10, 55, 64
11, 19864, Note_off_c, 10, 55, 100
11, 19872, Note_on_c, 10, 57, 64
11, 19960, Note_off_c, 10, 57, 100
11, 19968, Note_on_c, 10, 59, 64
11, 20088, Note_off_c, 10, 59, 100
11, 20352, Note_on_c, 10, 55, 64
11, 20472, Note_off_c, 10, 55, 100
11, 20736, Note_on_c, 10, 52, 64
11, 20912, Note_off_c, 10, 52, 100
11, 21120, Note_on_c, 10, 55, 64
11, 21240, Note_off_c, 10, 55, 100
11, 21504, Note_on_c, 10, 52, 64
11, 21624, Note_off_c, 10, 52, 100
11, 21888, Note_on_c, 10, 57, 64
11, 22008, Note_off_c, 10, 57, 100
11, 22272, Note_on_c, 10, 45, 64
11, 22448, Note_off_c, 10, 45, 100
11, 22656, Note_on_c, 10, 55, 64
11, 22776, Note_off_c, 10, 55, 100
11, 23040, Note_on_c, 10, 55, 64
11, 23096, Note_off_c, 10, 55, 100
11, 23104, Note_on_c, 10, 54, 64
11, 23160, Note_off_c, 10, 54, 100
11, 23168, Note_on_c, 10, 55, 64
11, 23224, Note_off_c, 10, 55, 100
11, 23232, Note_on_c, 10, 54, 64
11, 23360, Note_off_c, 10, 54, 100
11, 23424, Note_on_c, 10, 52, 64
11, 23608, Note_off_c, 10, 52, 100
11, 23616, Note_on_c, 10, 54, 64
11, 23800, Note_off_c, 10, 54, 100
11, 23808, Note_on_c, 10, 50, 64
11, 24320, Note_off_c, 10, 50, 100
11, 43008, Note_on_c, 10, 57, 64
11, 43064, Note_off_c, 10, 57, 100
11, 43072, Note_on_c, 10, 55, 64
11, 43128, Note_off_c, 10, 55, 100
11, 43136, Note_on_c, 10, 57, 64
11, 43704, Note_off_c, 10, 57, 100
11, 43776, Note_on_c, 10, 59, 64
11, 43864, Note_off_c, 10, 59, 100
11, 43872, Note_on_c, 10, 57, 64
11, 43960, Note_off_c, 10, 57, 100
11, 43968, Note_on_c, 10, 59, 64
11, 44056, Note_off_c, 10, 59, 100
11, 44064, Note_on_c, 10, 57, 64
11, 44152, Note_off_c, 10, 57, 100
11, 44160, Note_on_c, 10, 59, 64
11, 44248, Note_off_c, 10, 59, 100
11, 44256, Note_on_c, 10, 57, 64
11, 44344, Note_off_c, 10, 57, 100
11, 44352, Note_on_c, 10, 55, 64
11, 44440, Note_off_c, 10, 55, 100
11, 44448, Note_on_c, 10, 57, 64
11, 44536, Note_off_c, 10, 57, 100
11, 44544, Note_on_c, 10, 59, 64
11, 44664, Note_off_c, 10, 59, 100
11, 44928, Note_on_c, 10, 55, 64
11, 45048, Note_off_c, 10, 55, 100
11, 45312, Note_on_c, 10, 52, 64
11, 45488, Note_off_c, 10, 52, 100
11, 45696, Note_on_c, 10, 55, 64
11, 45816, Note_off_c, 10, 55, 100
11, 46080, Note_on_c, 10, 52, 64
11, 46200, Note_off_c, 10, 52, 100
11, 46464, Note_on_c, 10, 57, 64
11, 46584, Note_off_c, 10, 57, 100
11, 46848, Note_on_c, 10, 45, 64
11, 47024, Note_off_c, 10, 45, 100
11, 47232, Note_on_c, 10, 55, 64
11, 47352, Note_off_c, 10, 55, 100
11, 47616, Note_on_c, 10, 55, 64
11, 47672, Note_off_c, 10, 55, 100
11, 47680, Note_on_c, 10, 54, 64
11, 47736, Note_off_c, 10, 54, 100
11, 47744, Note_on_c, 10, 55, 64
11, 47800, Note_off_c, 10, 55, 100
11, 47808, Note_on_c, 10, 54, 64
11, 47936, Note_off_c, 10, 54, 100
11, 48000, Note_on_c, 10, 52, 64
11, 48184, Note_off_c, 10, 52, 100
11, 48192, Note_on_c, 10, 54, 64
11, 48376, Note_off_c, 10, 54, 100
11, 48384, Note_on_c, 10, 50, 64
11, 48896, Note_off_c, 10, 50, 100
11, 49152, Note_on_c, 10, 66, 64
11, 49208, Note_off_c, 10, 66, 100
11, 49216, Note_on_c, 10, 64, 64
11, 49272, Note_off_c, 10, 64, 100
11, 49280, Note_on_c, 10, 66, 64
11, 49848, Note_off_c, 10, 66, 100
11, 49920, Note_on_c, 10, 67, 64
11, 50008, Note_off_c, 10, 67, 100
11, 50016, Note_on_c, 10, 66, 64
11, 50104, Note_off_c, 10, 66, 100
11, 50112, Note_on_c, 10, 67, 64
11, 50200, Note_off_c, 10, 67, 100
11, 50208, Note_on_c, 10, 66, 64
11, 50296, Note_off_c, 10, 66, 100
11, 50304, Note_on_c, 10, 67, 64
11, 50392, Note_off_c, 10, 67, 100
11, 50400, Note_on_c, 10, 66, 64
11, 50488, Note_off_c, 10, 66, 100
11, 50496, Note_on_c, 10, 64, 64
11, 50584, Note_off_c, 10, 64, 100
11, 50592, Note_on_c, 10, 66, 64
11, 50680, Note_off_c, 10, 66, 100
11, 50688, Note_on_c, 10, 67, 64
11, 50808, Note_off_c, 10, 67, 100
11, 51072, Note_on_c, 10, 62, 64
11, 51192, Note_off_c, 10, 62, 100
11, 51456, Note_on_c, 10, 59, 64
11, 51632, Note_off_c, 10, 59, 100
11, 51840, Note_on_c, 10, 62, 64
11, 51960, Note_off_c, 10, 62, 100
11, 52224, Note_on_c, 10, 60, 64
11, 52344, Note_off_c, 10, 60, 100
11, 52608, Note_on_c, 10, 65, 64
11, 52728, Note_off_c, 10, 65, 100
11, 52992, Note_on_c, 10, 53, 64
11, 53168, Note_off_c, 10, 53, 100
11, 53376, Note_on_c, 10, 64, 64
11, 53496, Note_off_c, 10, 64, 100
11, 53760, Note_on_c, 10, 64, 64
11, 53816, Note_off_c, 10, 64, 100
11, 53824, Note_on_c, 10, 63, 64
11, 53880, Note_off_c, 10, 63, 100
11, 53888, Note_on_c, 10, 64, 64
11, 53944, Note_off_c, 10, 64, 100
11, 53952, Note_on_c, 10, 63, 64
11, 54080, Note_off_c, 10, 63, 100
11, 54144, Note_on_c, 10, 61, 64
11, 54328, Note_off_c, 10, 61, 100
11, 54336, Note_on_c, 10, 63, 64
11, 54520, Note_off_c, 10, 63, 100
11, 54528, Note_on_c, 10, 59, 64
11, 54712, Note_off_c, 10, 59, 100
11, 54720, Note_on_c, 10, 61, 64
11, 54904, Note_off_c, 10, 61, 100
11, 54912, Note_on_c, 10, 63, 64
11, 55096, Note_off_c, 10, 63, 100
11, 55104, Note_on_c, 10, 59, 64
11, 55232, Note_off_c, 10, 59, 100
11, 55296, Note_on_c, 10, 64, 64
11, 55416, Note_off_c, 10, 64, 100
11, 55680, Note_on_c, 10, 52, 64
11, 55800, Note_off_c, 10, 52, 100
11, 56064, Note_on_c, 10, 64, 64
11, 57208, Note_off_c, 10, 64, 100
11, 57216, Note_on_c, 10, 52, 64
11, 57336, Note_off_c, 10, 52, 100
11, 57600, Note_on_c, 10, 64, 64
11, 59128, Note_off_c, 10, 64, 100
11, 59136, Note_on_c, 10, 63, 64
11, 59896, Note_off_c, 10, 63, 100
11, 59904, Note_on_c, 10, 64, 64
11, 60664, Note_off_c, 10, 64, 100
11, 60864, Note_on_c, 10, 62, 64
11, 61048, Note_off_c, 10, 62, 100
11, 61056, Note_on_c, 10, 61, 64
11, 61240, Note_off_c, 10, 61, 100
11, 61248, Note_on_c, 10, 59, 64
11, 61432, Note_off_c, 10, 59, 100
11, 61440, Note_on_c, 10, 57, 64
11, 61560, Note_off_c, 10, 57, 100
11, 61824, Note_on_c, 10, 67, 64
11, 62584, Note_off_c, 10, 67, 100
11, 62592, Note_on_c, 10, 65, 64
11, 62776, Note_off_c, 10, 65, 100
11, 62784, Note_on_c, 10, 64, 64
11, 62968, Note_off_c, 10, 64, 100
11, 62976, Note_on_c, 10, 65, 64
11, 63744, Note_off_c, 10, 65, 100
11, 64128, Note_on_c, 10, 64, 64
11, 64312, Note_off_c, 10, 64, 100
11, 64320, Note_on_c, 10, 62, 64
11, 64504, Note_off_c, 10, 62, 100
11, 64512, Note_on_c, 10, 64, 64
11, 65280, Note_off_c, 10, 64, 100
11, 65664, Note_on_c, 10, 66, 64
11, 65848, Note_off_c, 10, 66, 100
11, 65856, Note_on_c, 10, 67, 64
11, 66040, Note_off_c, 10, 67, 100
11, 66048, Note_on_c, 10, 69, 64
11, 66232, Note_off_c, 10, 69, 100
11, 66240, Note_on_c, 10, 71, 64
11, 66368, Note_off_c, 10, 71, 100
11, 66432, Note_on_c, 10, 67, 64
11, 66616, Note_off_c, 10, 67, 100
11, 66624, Note_on_c, 10, 69, 64
11, 66752, Note_off_c, 10, 69, 100
11, 66816, Note_on_c, 10, 66, 64
11, 66936, Note_off_c, 10, 66, 100
11, 67200, Note_on_c, 10, 69, 64
11, 67960, Note_off_c, 10, 69, 100
11, 67968, Note_on_c, 10, 67, 64
11, 68152, Note_off_c, 10, 67, 100
11, 68160, Note_on_c, 10, 66, 64
11, 68344, Note_off_c, 10, 66, 100
11, 68352, Note_on_c, 10, 67, 64
11, 68472, Note_off_c, 10, 67, 100
11, 68736, Note_on_c, 10, 59, 64
11, 69496, Note_off_c, 10, 59, 100
11, 69504, Note_on_c, 10, 57, 64
11, 69688, Note_off_c, 10, 57, 100
11, 69696, Note_on_c, 10, 59, 64
11, 69880, Note_off_c, 10, 59, 100
11, 69888, Note_on_c, 10, 60, 64
11, 71032, Note_off_c, 10, 60, 100
11, 71040, Note_on_c, 10, 59, 64
11, 71160, Note_off_c, 10, 59, 100
11, 71424, Note_on_c, 10, 57, 64
11, 72184, Note_off_c, 10, 57, 100
11, 72192, Note_on_c, 10, 55, 64
11, 73472, Note_off_c, 10, 55, 100
11, 73728, Note_on_c, 10, 66, 64
11, 73784, Note_off_c, 10, 66, 100
11, 73792, Note_on_c, 10, 64, 64
11, 73848, Note_off_c, 10, 64, 100
11, 73856, Note_on_c, 10, 66, 64
11, 74424, Note_off_c, 10, 66, 100
11, 74496, Note_on_c, 10, 67, 64
11, 74584, Note_off_c, 10, 67, 100
11, 74592, Note_on_c, 10, 66, 64
11, 74680, Note_off_c, 10, 66, 100
11, 74688, Note_on_c, 10, 67, 64
11, 74776, Note_off_c, 10, 67, 100
11, 74784, Note_on_c, 10, 66, 64
11, 74872, Note_off_c, 10, 66, 100
11, 74880, Note_on_c, 10, 67, 64
11, 74968, Note_off_c, 10, 67, 100
11, 74976, Note_on_c, 10, 66, 64
11, 75064, Note_off_c, 10, 66, 100
11, 75072, Note_on_c, 10, 64, 64
11, 75160, Note_off_c, 10, 64, 100
11, 75168, Note_on_c, 10, 66, 64
11, 75256, Note_off_c, 10, 66, 100
11, 75264, Note_on_c, 10, 67, 64
11, 75384, Note_off_c, 10, 67, 100
11, 75648, Note_on_c, 10, 62, 64
11, 75768, Note_off_c, 10, 62, 100
11, 76032, Note_on_c, 10, 59, 64
11, 76208, Note_off_c, 10, 59, 100
11, 76416, Note_on_c, 10, 62, 64
11, 76536, Note_off_c, 10, 62, 100
11, 76800, Note_on_c, 10, 60, 64
11, 76920, Note_off_c, 10, 60, 100
11, 77184, Note_on_c, 10, 65, 64
11, 77304, Note_off_c, 10, 65, 100
11, 77568, Note_on_c, 10, 53, 64
11, 77744, Note_off_c, 10, 53, 100
11, 77952, Note_on_c, 10, 64, 64
11, 78072, Note_off_c, 10, 64, 100
11, 78336, Note_on_c, 10, 64, 64
11, 78392, Note_off_c, 10, 64, 100
11, 78400, Note_on_c, 10, 63, 64
11, 78456, Note_off_c, 10, 63, 100
11, 78464, Note_on_c, 10, 64, 64
11, 78520, Note_off_c, 10, 64, 100
11, 78528, Note_on_c, 10, 63, 64
11, 78656, Note_off_c, 10, 63, 100
11, 78720, Note_on_c, 10, 61, 64
11, 78904, Note_off_c, 10, 61, 100
11, 78912, Note_on_c, 10, 63, 64
11, 79096, Note_off_c, 10, 63, 100
11, 79104, Note_on_c, 10, 59, 64
11, 79288, Note_off_c, 10, 59, 100
11, 79296, Note_on_c, 10, 61, 64
11, 79480, Note_off_c, 10, 61, 100
11, 79488, Note_on_c, 10, 63, 64
11, 79672, Note_off_c, 10, 63, 100
11, 79680, Note_on_c, 10, 59, 64
11, 79808, Note_off_c, 10, 59, 100
11, 79872, Note_on_c, 10, 64, 64
11, 79992, Note_off_c, 10, 64, 100
11, 80256, Note_on_c, 10, 52, 64
11, 80376, Note_off_c, 10, 52, 100
11, 80640, Note_on_c, 10, 64, 64
11, 81784, Note_off_c, 10, 64, 64
11, 81792, Note_on_c, 10, 52, 64
11, 81912, Note_off_c, 10, 52, 100
11, 82176, Note_on_c, 10, 64, 64
11, 83704, Note_off_c, 10, 64, 64
11, 83712, Note_on_c, 10, 63, 64
11, 84472, Note_off_c, 10, 63, 100
11, 84480, Note_on_c, 10, 64, 64
11, 85240, Note_off_c, 10, 64, 100
11, 85440, Note_on_c, 10, 62, 64
11, 85624, Note_off_c, 10, 62, 100
11, 85632, Note_on_c, 10, 61, 64
11, 85816, Note_off_c, 10, 61, 100
11, 85824, Note_on_c, 10, 59, 64
11, 86008, Note_off_c, 10, 59, 100
11, 86016, Note_on_c, 10, 57, 64
11, 86136, Note_off_c, 10, 57, 100
11, 86400, Note_on_c, 10, 67, 64
11, 87160, Note_off_c, 10, 67, 100
11, 87168, Note_on_c, 10, 65, 64
11, 87352, Note_off_c, 10, 65, 100
11, 87360, Note_on_c, 10, 64, 64
11, 87544, Note_off_c, 10, 64, 100
11, 87552, Note_on_c, 10, 65, 64
11, 88320, Note_off_c, 10, 65, 100
11, 88704, Note_on_c, 10, 64, 64
11, 88888, Note_off_c, 10, 64, 100
11, 88896, Note_on_c, 10, 62, 64
11, 89080, Note_off_c, 10, 62, 100
11, 89088, Note_on_c, 10, 64, 64
11, 89856, Note_off_c, 10, 64, 100
11, 90240, Note_on_c, 10, 66, 64
11, 90424, Note_off_c, 10, 66, 100
11, 90432, Note_on_c, 10, 67, 64
11, 90616, Note_off_c, 10, 67, 100
11, 90624, Note_on_c, 10, 69, 64
11, 90808, Note_off_c, 10, 69, 100
11, 90816, Note_on_c, 10, 71, 64
11, 90944, Note_off_c, 10, 71, 100
11, 91008, Note_on_c, 10, 67, 64
11, 91192, Note_off_c, 10, 67, 100
11, 91200, Note_on_c, 10, 69, 64
11, 91328, Note_off_c, 10, 69, 100
11, 91392, Note_on_c, 10, 66, 64
11, 91512, Note_off_c, 10, 66, 100
11, 91776, Note_on_c, 10, 69, 64
11, 92536, Note_off_c, 10, 69, 64
11, 92544, Note_on_c, 10, 67, 64
11, 92728, Note_off_c, 10, 67, 100
11, 92736, Note_on_c, 10, 66, 64
11, 92920, Note_off_c, 10, 66, 100
11, 92928, Note_on_c, 10, 67, 64
11, 93048, Note_off_c, 10, 67, 100
11, 93312, Note_on_c, 10, 59, 64
11, 94072, Note_off_c, 10, 59, 64
11, 94080, Note_on_c, 10, 57, 64
11, 94264, Note_off_c, 10, 57, 100
11, 94272, Note_on_c, 10, 59, 64
11, 94456, Note_off_c, 10, 59, 100
11, 94464, Note_on_c, 10, 60, 64
11, 95608, Note_off_c, 10, 60, 64
11, 95616, Note_on_c, 10, 59, 64
11, 95736, Note_off_c, 10, 59, 100
11, 96000, Note_on_c, 10, 57, 64
11, 96760, Note_off_c, 10, 57, 100
11, 96768, Note_on_c, 10, 55, 64
11, 98048, Note_off_c, 10, 55, 100
11, 98048, End_track
12, 0, Start_track
12, 0, Control_c, 11, 0, 0
12, 0, Program_c, 11, 6
12, 0, Control_c, 11, 7, 127
12, 0, Control_c, 11, 10, 64
12, 0, Control_c, 11, 91, 127
12, 0, Key_signature, 1, "major"
12, 6144, Note_on_c, 11, 74, 96
12, 6200, Note_off_c, 11, 74, 100
12, 6208, Note_on_c, 11, 72, 96
12, 6264, Note_off_c, 11, 72, 100
12, 6272, Note_on_c, 11, 74, 96
12, 6840, Note_off_c, 11, 74, 100
12, 6912, Note_on_c, 11, 76, 96
12, 7000, Note_off_c, 11, 76, 100
12, 7008, Note_on_c, 11, 74, 96
12, 7096, Note_off_c, 11, 74, 100
12, 7104, Note_on_c, 11, 76, 96
12, 7192, Note_off_c, 11, 76, 100
12, 7200, Note_on_c, 11, 74, 96
12, 7288, Note_off_c, 11, 74, 100
12, 7296, Note_on_c, 11, 76, 96
12, 7384, Note_off_c, 11, 76, 100
12, 7392, Note_on_c, 11, 74, 96
12, 7480, Note_off_c, 11, 74, 100
12, 7488, Note_on_c, 11, 72, 96
12, 7576, Note_off_c, 11, 72, 100
12, 7584, Note_on_c, 11, 74, 96
12, 7672, Note_off_c, 11, 74, 100
12, 7680, Note_on_c, 11, 76, 96
12, 7800, Note_off_c, 11, 76, 100
12, 8064, Note_on_c, 11, 72, 96
12, 8184, Note_off_c, 11, 72, 100
12, 8448, Note_on_c, 11, 69, 96
12, 8624, Note_off_c, 11, 69, 100
12, 8832, Note_on_c, 11, 72, 96
12, 8952, Note_off_c, 11, 72, 100
12, 9216, Note_on_c, 11, 69, 96
12, 9336, Note_off_c, 11, 69, 100
12, 9600, Note_on_c, 11, 74, 96
12, 9720, Note_off_c, 11, 74, 100
12, 9984, Note_on_c, 11, 62, 96
12, 10160, Note_off_c, 11, 62, 100
12, 10368, Note_on_c, 11, 72, 96
12, 10488, Note_off_c, 11, 72, 100
12, 10752, Note_on_c, 11, 72, 96
12, 10808, Note_off_c, 11, 72, 100
12, 10816, Note_on_c, 11, 71, 96
12, 10872, Note_off_c, 11, 71, 100
12, 10880, Note_on_c, 11, 72, 96
12, 10936, Note_off_c, 11, 72, 100
12, 10944, Note_on_c, 11, 71, 96
12, 11072, Note_off_c, 11, 71, 100
12, 11136, Note_on_c, 11, 69, 96
12, 11320, Note_off_c, 11, 69, 100
12, 11328, Note_on_c, 11, 71, 96
12, 11512, Note_off_c, 11, 71, 100
12, 11520, Note_on_c, 11, 67, 96
12, 11704, Note_off_c, 11, 67, 100
12, 11712, Note_on_c, 11, 71, 96
12, 11840, Note_off_c, 11, 71, 100
12, 11904, Note_on_c, 11, 69, 96
12, 12088, Note_off_c, 11, 69, 100
12, 12096, Note_on_c, 11, 72, 96
12, 12224, Note_off_c, 11, 72, 100
12, 12288, Note_on_c, 11, 71, 96
12, 12472, Note_off_c, 11, 71, 100
12, 12480, Note_on_c, 11, 69, 96
12, 12664, Note_off_c, 11, 69, 100
12, 12672, Note_on_c, 11, 71, 96
12, 12792, Note_off_c, 11, 71, 100
12, 13056, Note_on_c, 11, 76, 96
12, 14200, Note_off_c, 11, 76, 100
12, 14208, Note_on_c, 11, 69, 96
12, 14328, Note_off_c, 11, 69, 100
12, 14592, Note_on_c, 11, 74, 96
12, 15736, Note_off_c, 11, 74, 100
12, 15744, Note_on_c, 11, 71, 96
12, 15864, Note_off_c, 11, 71, 100
12, 16128, Note_on_c, 11, 76, 96
12, 17272, Note_off_c, 11, 76, 100
12, 17280, Note_on_c, 11, 74, 96
12, 17400, Note_off_c, 11, 74, 100
12, 17664, Note_on_c, 11, 73, 96
12, 18040, Note_off_c, 11, 73, 100
12, 18048, Note_on_c, 11, 76, 96
12, 18168, Note_off_c, 11, 76, 100
12, 18432, Note_on_c, 11, 69, 96
12, 18560, Note_off_c, 11, 69, 100
12, 18624, Note_on_c, 11, 71, 96
12, 18808, Note_off_c, 11, 71, 100
12, 18816, Note_on_c, 11, 69, 96
12, 19000, Note_off_c, 11, 69, 100
12, 19008, Note_on_c, 11, 67, 96
12, 19192, Note_off_c, 11, 67, 100
12, 19200, Note_on_c, 11, 66, 96
12, 19712, Note_off_c, 11, 66, 100
12, 19968, Note_on_c, 11, 67, 96
12, 20480, Note_off_c, 11, 67, 100
12, 21888, Note_on_c, 11, 64, 96
12, 22008, Note_off_c, 11, 64, 100
12, 22272, Note_on_c, 11, 69, 96
12, 23032, Note_off_c, 11, 69, 100
12, 23232, Note_on_c, 11, 69, 96
12, 23416, Note_off_c, 11, 69, 100
12, 23424, Note_on_c, 11, 67, 96
12, 23608, Note_off_c, 11, 67, 100
12, 23616, Note_on_c, 11, 69, 96
12, 23800, Note_off_c, 11, 69, 100
12, 23808, Note_on_c, 11, 66, 96
12, 24320, Note_off_c, 11, 66, 100
12, 30720, Note_on_c, 11, 74, 96
12, 30776, Note_off_c, 11, 74, 100
12, 30784, Note_on_c, 11, 72, 96
12, 30840, Note_off_c, 11, 72, 100
12, 30848, Note_on_c, 11, 74, 96
12, 31416, Note_off_c, 11, 74, 100
12, 31488, Note_on_c, 11, 76, 96
12, 31576, Note_off_c, 11, 76, 100
12, 31584, Note_on_c, 11, 74, 96
12, 31672, Note_off_c, 11, 74, 100
12, 31680, Note_on_c, 11, 76, 96
12, 31768, Note_off_c, 11, 76, 100
12, 31776, Note_on_c, 11, 74, 96
12, 31864, Note_off_c, 11, 74, 100
12, 31872, Note_on_c, 11, 76, 96
12, 31960, Note_off_c, 11, 76, 100
12, 31968, Note_on_c, 11, 74, 96
12, 32056, Note_off_c, 11, 74, 100
12, 32064, Note_on_c, 11, 72, 96
12, 32152, Note_off_c, 11, 72, 100
12, 32160, Note_on_c, 11, 74, 96
12, 32248, Note_off_c, 11, 74, 100
12, 32256, Note_on_c, 11, 76, 96
12, 32376, Note_off_c, 11, 76, 100
12, 32640, Note_on_c, 11, 72, 96
12, 32760, Note_off_c, 11, 72, 100
12, 33024, Note_on_c, 11, 69, 96
12, 33200, Note_off_c, 11, 69, 100
12, 33408, Note_on_c, 11, 72, 96
12, 33528, Note_off_c, 11, 72, 100
12, 33792, Note_on_c, 11, 69, 96
12, 33912, Note_off_c, 11, 69, 100
12, 34176, Note_on_c, 11, 74, 96
12, 34296, Note_off_c, 11, 74, 100
12, 34560, Note_on_c, 11, 62, 96
12, 34736, Note_off_c, 11, 62, 100
12, 34944, Note_on_c, 11, 72, 96
12, 35064, Note_off_c, 11, 72, 100
12, 35328, Note_on_c, 11, 72, 96
12, 35384, Note_off_c, 11, 72, 100
12, 35392, Note_on_c, 11, 71, 96
12, 35448, Note_off_c, 11, 71, 100
12, 35456, Note_on_c, 11, 72, 96
12, 35512, Note_off_c, 11, 72, 100
12, 35520, Note_on_c, 11, 71, 96
12, 35648, Note_off_c, 11, 71, 100
12, 35712, Note_on_c, 11, 69, 96
12, 35896, Note_off_c, 11, 69, 100
12, 35904, Note_on_c, 11, 71, 96
12, 36088, Note_off_c, 11, 71, 100
12, 36096, Note_on_c, 11, 67, 96
12, 36280, Note_off_c, 11, 67, 100
12, 36288, Note_on_c, 11, 71, 96
12, 36416, Note_off_c, 11, 71, 100
12, 36480, Note_on_c, 11, 69, 96
12, 36664, Note_off_c, 11, 69, 100
12, 36672, Note_on_c, 11, 72, 96
12, 36800, Note_off_c, 11, 72, 100
12, 36864, Note_on_c, 11, 71, 96
12, 37048, Note_off_c, 11, 71, 100
12, 37056, Note_on_c, 11, 69, 96
12, 37240, Note_off_c, 11, 69, 100
12, 37248, Note_on_c, 11, 71, 96
12, 37368, Note_off_c, 11, 71, 100
12, 37632, Note_on_c, 11, 76, 96
12, 38776, Note_off_c, 11, 76, 100
12, 38784, Note_on_c, 11, 69, 96
12, 38904, Note_off_c, 11, 69, 100
12, 39168, Note_on_c, 11, 74, 96
12, 40312, Note_off_c, 11, 74, 100
12, 40320, Note_on_c, 11, 71, 96
12, 40440, Note_off_c, 11, 71, 100
12, 40704, Note_on_c, 11, 76, 96
12, 41848, Note_off_c, 11, 76, 100
12, 41856, Note_on_c, 11, 74, 96
12, 41976, Note_off_c, 11, 74, 100
12, 42240, Note_on_c, 11, 73, 96
12, 42616, Note_off_c, 11, 73, 100
12, 42624, Note_on_c, 11, 76, 96
12, 42744, Note_off_c, 11, 76, 100
12, 43008, Note_on_c, 11, 69, 96
12, 43136, Note_off_c, 11, 69, 100
12, 43200, Note_on_c, 11, 71, 96
12, 43384, Note_off_c, 11, 71, 100
12, 43392, Note_on_c, 11, 69, 96
12, 43576, Note_off_c, 11, 69, 100
12, 43584, Note_on_c, 11, 67, 96
12, 43768, Note_off_c, 11, 67, 100
12, 43776, Note_on_c, 11, 66, 96
12, 44288, Note_off_c, 11, 66, 100
12, 44544, Note_on_c, 11, 67, 96
12, 45056, Note_off_c, 11, 67, 100
12, 46464, Note_on_c, 11, 64, 96
12, 46584, Note_off_c, 11, 64, 100
12, 46848, Note_on_c, 11, 69, 96
12, 47608, Note_off_c, 11, 69, 100
12, 47808, Note_on_c, 11, 69, 96
12, 47992, Note_off_c, 11, 69, 100
12, 48000, Note_on_c, 11, 67, 96
12, 48184, Note_off_c, 11, 67, 100
12, 48192, Note_on_c, 11, 69, 96
12, 48376, Note_off_c, 11, 69, 100
12, 48384, Note_on_c, 11, 66, 96
12, 48896, Note_off_c, 11, 66, 100
12, 61440, Note_on_c, 11, 61, 96
12, 61496, Note_off_c, 11, 61, 100
12, 61504, Note_on_c, 11, 59, 96
12, 61560, Note_off_c, 11, 59, 100
12, 61568, Note_on_c, 11, 61, 96
12, 62136, Note_off_c, 11, 61, 100
12, 62208, Note_on_c, 11, 62, 96
12, 62296, Note_off_c, 11, 62, 100
12, 62304, Note_on_c, 11, 61, 96
12, 62392, Note_off_c, 11, 61, 100
12, 62400, Note_on_c, 11, 62, 96
12, 62488, Note_off_c, 11, 62, 100
12, 62496, Note_on_c, 11, 61, 96
12, 62584, Note_off_c, 11, 61, 100
12, 62592, Note_on_c, 11, 62, 96
12, 62680, Note_off_c, 11, 62, 100
12, 62688, Note_on_c, 11, 61, 96
12, 62776, Note_off_c, 11, 61, 100
12, 62784, Note_on_c, 11, 59, 96
12, 62872, Note_off_c, 11, 59, 100
12, 62880, Note_on_c, 11, 61, 96
12, 62968, Note_off_c, 11, 61, 100
12, 62976, Note_on_c, 11, 62, 96
12, 63096, Note_off_c, 11, 62, 100
12, 63360, Note_on_c, 11, 59, 96
12, 63480, Note_off_c, 11, 59, 100
12, 63744, Note_on_c, 11, 55, 96
12, 63920, Note_off_c, 11, 55, 100
12, 64128, Note_on_c, 11, 59, 96
12, 64248, Note_off_c, 11, 59, 100
12, 64512, Note_on_c, 11, 60, 96
12, 64632, Note_off_c, 11, 60, 100
12, 64896, Note_on_c, 11, 64, 96
12, 65016, Note_off_c, 11, 64, 100
12, 65280, Note_on_c, 11, 57, 96
12, 65456, Note_off_c, 11, 57, 100
12, 65664, Note_on_c, 11, 67, 96
12, 65784, Note_off_c, 11, 67, 100
12, 66048, Note_on_c, 11, 67, 96
12, 66104, Note_off_c, 11, 67, 100
12, 66112, Note_on_c, 11, 66, 96
12, 66168, Note_off_c, 11, 66, 100
12, 66176, Note_on_c, 11, 67, 96
12, 66232, Note_off_c, 11, 67, 100
12, 66240, Note_on_c, 11, 66, 96
12, 66424, Note_off_c, 11, 66, 100
12, 66432, Note_on_c, 11, 64, 96
12, 66616, Note_off_c, 11, 64, 100
12, 66624, Note_on_c, 11, 66, 96
12, 66808, Note_off_c, 11, 66, 100
12, 66816, Note_on_c, 11, 62, 96
12, 67000, Note_off_c, 11, 62, 100
12, 67008, Note_on_c, 11, 64, 96
12, 67192, Note_off_c, 11, 64, 100
12, 67200, Note_on_c, 11, 66, 96
12, 67384, Note_off_c, 11, 66, 100
12, 67392, Note_on_c, 11, 62, 96
12, 67520, Note_off_c, 11, 62, 100
12, 67584, Note_on_c, 11, 67, 96
12, 67704, Note_off_c, 11, 67, 100
12, 67968, Note_on_c, 11, 69, 96
12, 68088, Note_off_c, 11, 69, 100
12, 68352, Note_on_c, 11, 71, 96
12, 68472, Note_off_c, 11, 71, 100
12, 68736, Note_on_c, 11, 67, 96
12, 68856, Note_off_c, 11, 67, 100
12, 69120, Note_on_c, 11, 60, 96
12, 69880, Note_off_c, 11, 60, 100
12, 70272, Note_on_c, 11, 69, 96
12, 70392, Note_off_c, 11, 69, 100
12, 70656, Note_on_c, 11, 62, 96
12, 71416, Note_off_c, 11, 62, 100
12, 71808, Note_on_c, 11, 62, 96
12, 71928, Note_off_c, 11, 62, 100
12, 72192, Note_on_c, 11, 67, 96
12, 72952, Note_off_c, 11, 67, 100
12, 72960, Note_on_c, 11, 55, 96
12, 73472, Note_off_c, 11, 55, 100
12, 86016, Note_on_c, 11, 61, 96
12, 86072, Note_off_c, 11, 61, 100
12, 86080, Note_on_c, 11, 59, 96
12, 86136, Note_off_c, 11, 59, 100
12, 86144, Note_on_c, 11, 61, 96
12, 86712, Note_off_c, 11, 61, 100
12, 86784, Note_on_c, 11, 62, 96
12, 86872, Note_off_c, 11, 62, 100
12, 86880, Note_on_c, 11, 61, 96
12, 86968, Note_off_c, 11, 61, 100
12, 86976, Note_on_c, 11, 62, 96
12, 87064, Note_off_c, 11, 62, 100
12, 87072, Note_on_c, 11, 61, 96
12, 87160, Note_off_c, 11, 61, 100
12, 87168, Note_on_c, 11, 62, 96
12, 87256, Note_off_c, 11, 62, 100
12, 87264, Note_on_c, 11, 61, 96
12, 87352, Note_off_c, 11, 61, 100
12, 87360, Note_on_c, 11, 59, 96
12, 87448, Note_off_c, 11, 59, 100
12, 87456, Note_on_c, 11, 61, 96
12, 87544, Note_off_c, 11, 61, 100
12, 87552, Note_on_c, 11, 62, 96
12, 87672, Note_off_c, 11, 62, 100
12, 87936, Note_on_c, 11, 59, 96
12, 88056, Note_off_c, 11, 59, 100
12, 88320, Note_on_c, 11, 55, 96
12, 88496, Note_off_c, 11, 55, 100
12, 88704, Note_on_c, 11, 59, 96
12, 88824, Note_off_c, 11, 59, 100
12, 89088, Note_on_c, 11, 60, 96
12, 89208, Note_off_c, 11, 60, 100
12, 89472, Note_on_c, 11, 64, 96
12, 89592, Note_off_c, 11, 64, 100
12, 89856, Note_on_c, 11, 57, 96
12, 90032, Note_off_c, 11, 57, 100
12, 90240, Note_on_c, 11, 67, 96
12, 90360, Note_off_c, 11, 67, 100
12, 90624, Note_on_c, 11, 67, 96
12, 90680, Note_off_c, 11, 67, 100
12, 90688, Note_on_c, 11, 66, 96
12, 90744, Note_off_c, 11, 66, 100
12, 90752, Note_on_c, 11, 67, 96
12, 90808, Note_off_c, 11, 67, 100
12, 90816, Note_on_c, 11, 66, 96
12, 91000, Note_off_c, 11, 66, 100
12, 91008, Note_on_c, 11, 64, 96
12, 91192, Note_off_c, 11, 64, 100
12, 91200, Note_on_c, 11, 66, 96
12, 91384, Note_off_c, 11, 66, 100
12, 91392, Note_on_c, 11, 62, 96
12, 91576, Note_off_c, 11, 62, 100
12, 91584, Note_on_c, 11, 64, 96
12, 91768, Note_off_c, 11, 64, 100
12, 91776, Note_on_c, 11, 66, 96
12, 91960, Note_off_c, 11, 66, 100
12, 91968, Note_on_c, 11, 62, 96
12, 92096, Note_off_c, 11, 62, 100
12, 92160, Note_on_c, 11, 67, 96
12, 92280, Note_off_c, 11, 67, 100
12, 92544, Note_on_c, 11, 69, 96
12, 92664, Note_off_c, 11, 69, 100
12, 92928, Note_on_c, 11, 71, 96
12, 93048, Note_off_c, 11, 71, 100
12, 93312, Note_on_c, 11, 67, 96
12, 93432, Note_off_c, 11, 67, 100
12, 93696, Note_on_c, 11, 60, 96
12, 94456, Note_off_c, 11, 60, 100
12, 94848, Note_on_c, 11, 69, 96
12, 94968, Note_off_c, 11, 69, 100
12, 95232, Note_on_c, 11, 62, 96
12, 95992, Note_off_c, 11, 62, 100
12, 96384, Note_on_c, 11, 62, 96
12, 96504, Note_off_c, 11, 62, 100
12, 96768, Note_on_c, 11, 67, 96
12, 97528, Note_off_c, 11, 67, 100
12, 97536, Note_on_c, 11, 55, 96
12, 98048, Note_off_c, 11, 55, 100
12, 98048, End_track
13, 0, Start_track
13, 0, Control_c, 12, 0, 0
13, 0, Program_c, 12, 6
13, 0, Control_c, 12, 7, 127
13, 0, Control_c, 12, 10, 64
13, 0, Control_c, 12, 91, 127
13, 0, Key_signature, 1, "major"
13, 0, Note_on_c, 12, 67, 96
13, 56, Note_off_c, 12, 67, 100
13, 64, Note_on_c, 12, 66, 96
13, 120, Note_off_c, 12, 66, 100
13, 128, Note_on_c, 12, 67, 96
13, 696, Note_off_c, 12, 67, 100
13, 768, Note_on_c, 12, 69, 96
13, 856, Note_off_c, 12, 69, 100
13, 864, Note_on_c, 12, 67, 96
13, 952, Note_off_c, 12, 67, 100
13, 960, Note_on_c, 12, 69, 96
13, 1048, Note_off_c, 12, 69, 100
13, 1056, Note_on_c, 12, 67, 96
13, 1144, Note_off_c, 12, 67, 100
13, 1152, Note_on_c, 12, 69, 96
13, 1240, Note_off_c, 12, 69, 100
13, 1248, Note_on_c, 12, 67, 96
13, 1336, Note_off_c, 12, 67, 100
13, 1344, Note_on_c, 12, 66, 96
13, 1432, Note_off_c, 12, 66, 100
13, 1440, Note_on_c, 12, 67, 96
13, 1528, Note_off_c, 12, 67, 100
13, 1536, Note_on_c, 12, 69, 96
13, 1656, Note_off_c, 12, 69, 100
13, 1920, Note_on_c, 12, 66, 96
13, 2040, Note_off_c, 12, 66, 100
13, 2304, Note_on_c, 12, 62, 96
13, 2480, Note_off_c, 12, 62, 100
13, 2688, Note_on_c, 12, 66, 96
13, 2808, Note_off_c, 12, 66, 100
13, 3072, Note_on_c, 12, 64, 96
13, 3192, Note_off_c, 12, 64, 100
13, 3456, Note_on_c, 12, 69, 96
13, 3576, Note_off_c, 12, 69, 100
13, 3840, Note_on_c, 12, 57, 96
13, 4016, Note_off_c, 12, 57, 100
13, 4224, Note_on_c, 12, 67, 96
13, 4344, Note_off_c, 12, 67, 100
13, 4608, Note_on_c, 12, 67, 96
13, 4664, Note_off_c, 12, 67, 100
13, 4672, Note_on_c, 12, 66, 96
13, 4728, Note_off_c, 12, 66, 100
13, 4736, Note_on_c, 12, 67, 96
13, 4792, Note_off_c, 12, 67, 100
13, 4800, Note_on_c, 12, 66, 96
13, 4928, Note_off_c, 12, 66, 100
13, 4992, Note_on_c, 12, 64, 96
13, 5176, Note_off_c, 12, 64, 100
13, 5184, Note_on_c, 12, 66, 96
13, 5368, Note_off_c, 12, 66, 100
13, 5376, Note_on_c, 12, 62, 96
13, 5560, Note_off_c, 12, 62, 100
13, 5568, Note_on_c, 12, 64, 96
13, 5696, Note_off_c, 12, 64, 100
13, 5760, Note_on_c, 12, 60, 96
13, 5944, Note_off_c, 12, 60, 100
13, 5952, Note_on_c, 12, 62, 96
13, 6080, Note_off_c, 12, 62, 100
13, 6144, Note_on_c, 12, 59, 96
13, 6272, Note_off_c, 12, 59, 100
13, 6336, Note_on_c, 12, 62, 96
13, 6520, Note_off_c, 12, 62, 100
13, 6528, Note_on_c, 12, 64, 96
13, 6712, Note_off_c, 12, 64, 100
13, 6720, Note_on_c, 12, 66, 96
13, 6904, Note_off_c, 12, 66, 100
13, 6912, Note_on_c, 12, 67, 96
13, 7032, Note_off_c, 12, 67, 100
13, 7296, Note_on_c, 12, 59, 96
13, 7416, Note_off_c, 12, 59, 100
13, 7680, Note_on_c, 12, 60, 96
13, 8440, Note_off_c, 12, 60, 100
13, 8832, Note_on_c, 12, 57, 96
13, 8952, Note_off_c, 12, 57, 100
13, 9216, Note_on_c, 12, 54, 96
13, 9976, Note_off_c, 12, 54, 100
13, 10368, Note_on_c, 12, 50, 96
13, 10488, Note_off_c, 12, 50, 100
13, 10752, Note_on_c, 12, 55, 96
13, 11008, Note_off_c, 12, 55, 100
13, 11136, Note_on_c, 12, 62, 96
13, 11256, Note_off_c, 12, 62, 100
13, 11520, Note_on_c, 12, 59, 96
13, 11640, Note_off_c, 12, 59, 100
13, 11904, Note_on_c, 12, 62, 96
13, 12024, Note_off_c, 12, 62, 100
13, 12288, Note_on_c, 12, 67, 96
13, 13048, Note_off_c, 12, 67, 100
13, 13440, Note_on_c, 12, 64, 96
13, 13560, Note_off_c, 12, 64, 100
13, 13824, Note_on_c, 12, 66, 96
13, 14584, Note_off_c, 12, 66, 100
13, 14976, Note_on_c, 12, 62, 96
13, 15096, Note_off_c, 12, 62, 100
13, 15360, Note_on_c, 12, 67, 96
13, 16120, Note_off_c, 12, 67, 100
13, 16512, Note_on_c, 12, 64, 96
13, 16632, Note_off_c, 12, 64, 100
13, 16896, Note_on_c, 12, 69, 96
13, 17656, Note_off_c, 12, 69, 100
13, 18048, Note_on_c, 12, 67, 96
13, 18168, Note_off_c, 12, 67, 100
13, 18432, Note_on_c, 12, 66, 96
13, 19192, Note_off_c, 12, 66, 100
13, 19584, Note_on_c, 12, 62, 96
13, 19704, Note_off_c, 12, 62, 100
13, 19968, Note_on_c, 12, 55, 96
13, 20224, Note_off_c, 12, 55, 100
13, 20352, Note_on_c, 12, 59, 96
13, 20472, Note_off_c, 12, 59, 100
13, 20736, Note_on_c, 12, 55, 96
13, 20856, Note_off_c, 12, 55, 100
13, 21120, Note_on_c, 12, 52, 96
13, 21240, Note_off_c, 12, 52, 100
13, 21504, Note_on_c, 12, 57, 96
13, 22264, Note_off_c, 12, 57, 100
13, 22656, Note_on_c, 12, 57, 96
13, 22776, Note_off_c, 12, 57, 100
13, 23040, Note_on_c, 12, 62, 96
13, 24320, Note_off_c, 12, 62, 100
13, 24576, Note_on_c, 12, 67, 96
13, 24632, Note_off_c, 12, 67, 100
13, 24640, Note_on_c, 12, 66, 96
13, 24696, Note_off_c, 12, 66, 100
13, 24704, Note_on_c, 12, 67, 96
13, 25272, Note_off_c, 12, 67, 100
13, 25344, Note_on_c, 12, 69, 96
13, 25432, Note_off_c, 12, 69, 100
13, 25440, Note_on_c, 12, 67, 96
13, 25528, Note_off_c, 12, 67, 100
13, 25536, Note_on_c, 12, 69, 96
13, 25624, Note_off_c, 12, 69, 100
13, 25632, Note_on_c, 12, 67, 96
13, 25720, Note_off_c, 12, 67, 100
13, 25728, Note_on_c, 12, 69, 96
13, 25816, Note_off_c, 12, 69, 100
13, 25824, Note_on_c, 12, 67, 96
13, 25912, Note_off_c, 12, 67, 100
13, 25920, Note_on_c, 12, 66, 96
13, 26008, Note_off_c, 12, 66, 100
13, 26016, Note_on_c, 12, 67, 96
13, 26104, Note_off_c, 12, 67, 100
13, 26112, Note_on_c, 12, 69, 96
13, 26232, Note_off_c, 12, 69, 100
13, 26496, Note_on_c, 12, 66, 96
13, 26616, Note_off_c, 12, 66, 100
13, 26880, Note_on_c, 12, 62, 96
13, 27056, Note_off_c, 12, 62, 100
13, 27264, Note_on_c, 12, 66, 96
13, 27384, Note_off_c, 12, 66, 100
13, 27648, Note_on_c, 12, 64, 96
13, 27768, Note_off_c, 12, 64, 100
13, 28032, Note_on_c, 12, 69, 96
13, 28152, Note_off_c, 12, 69, 100
13, 28416, Note_on_c, 12, 57, 96
13, 28592, Note_off_c, 12, 57, 100
13, 28800, Note_on_c, 12, 67, 96
13, 28920, Note_off_c, 12, 67, 100
13, 29184, Note_on_c, 12, 67, 96
13, 29240, Note_off_c, 12, 67, 100
13, 29248, Note_on_c, 12, 66, 96
13, 29304, Note_off_c, 12, 66, 100
13, 29312, Note_on_c, 12, 67, 96
13, 29368, Note_off_c, 12, 67, 100
13, 29376, Note_on_c, 12, 66, 96
13, 29504, Note_off_c, 12, 66, 100
13, 29568, Note_on_c, 12, 64, 96
13, 29752, Note_off_c, 12, 64, 100
13, 29760, Note_on_c, 12, 66, 96
13, 29944, Note_off_c, 12, 66, 100
13, 29952, Note_on_c, 12, 62, 96
13, 30136, Note_off_c, 12, 62, 100
13, 30144, Note_on_c, 12, 64, 96
13, 30272, Note_off_c, 12, 64, 100
13, 30336, Note_on_c, 12, 60, 96
13, 30520, Note_off_c, 12, 60, 100
13, 30528, Note_on_c, 12, 62, 96
13, 30656, Note_off_c, 12, 62, 100
13, 30720, Note_on_c, 12, 59, 96
13, 30848, Note_off_c, 12, 59, 100
13, 30912, Note_on_c, 12, 62, 96
13, 31096, Note_off_c, 12, 62, 100
13, 31104, Note_on_c, 12, 64, 96
13, 31288, Note_off_c, 12, 64, 100
13, 31296, Note_on_c, 12, 66, 96
13, 31480, Note_off_c, 12, 66, 100
13, 31488, Note_on_c, 12, 67, 96
13, 31608, Note_off_c, 12, 67, 100
13, 31872, Note_on_c, 12, 59, 96
13, 31992, Note_off_c, 12, 59, 100
13, 32256, Note_on_c, 12, 60, 96
13, 33016, Note_off_c, 12, 60, 100
13, 33408, Note_on_c, 12, 57, 96
13, 33528, Note_off_c, 12, 57, 100
13, 33792, Note_on_c, 12, 54, 96
13, 34552, Note_off_c, 12, 54, 100
13, 34944, Note_on_c, 12, 50, 96
13, 35064, Note_off_c, 12, 50, 100
13, 35328, Note_on_c, 12, 55, 96
13, 35584, Note_off_c, 12, 55, 100
13, 35712, Note_on_c, 12, 62, 96
13, 35832, Note_off_c, 12, 62, 100
13, 36096, Note_on_c, 12, 59, 96
13, 36216, Note_off_c, 12, 59, 100
13, 36480, Note_on_c, 12, 62, 96
13, 36600, Note_off_c, 12, 62, 100
13, 36864, Note_on_c, 12, 67, 96
13, 37624, Note_off_c, 12, 67, 100
13, 38016, Note_on_c, 12, 64, 96
13, 38136, Note_off_c, 12, 64, 100
13, 38400, Note_on_c, 12, 66, 96
13, 39160, Note_off_c, 12, 66, 100
13, 39552, Note_on_c, 12, 62, 96
13, 39672, Note_off_c, 12, 62, 100
13, 39936, Note_on_c, 12, 67, 96
13, 40696, Note_off_c, 12, 67, 100
13, 41088, Note_on_c, 12, 64, 96
13, 41208, Note_off_c, 12, 64, 100
13, 41472, Note_on_c, 12, 69, 96
13, 42232, Note_off_c, 12, 69, 100
13, 42624, Note_on_c, 12, 67, 96
13, 42744, Note_off_c, 12, 67, 100
13, 43008, Note_on_c, 12, 66, 96
13, 43768, Note_off_c, 12, 66, 100
13, 44160, Note_on_c, 12, 62, 96
13, 44280, Note_off_c, 12, 62, 100
13, 44544, Note_on_c, 12, 55, 96
13, 44800, Note_off_c, 12, 55, 100
13, 44928, Note_on_c, 12, 59, 96
13, 45048, Note_off_c, 12, 59, 100
13, 45312, Note_on_c, 12, 55, 96
13, 45432, Note_off_c, 12, 55, 100
13, 45696, Note_on_c, 12, 52, 96
13, 45816, Note_off_c, 12, 52, 100
13, 46080, Note_on_c, 12, 57, 96
13, 46840, Note_off_c, 12, 57, 100
13, 47232, Note_on_c, 12, 57, 96
13, 47352, Note_off_c, 12, 57, 100
13, 47616, Note_on_c, 12, 62, 96
13, 48896, Note_off_c, 12, 62, 100
13, 49152, Note_on_c, 12, 62, 96
13, 49336, Note_off_c, 12, 62, 100
13, 49344, Note_on_c, 12, 64, 96
13, 49528, Note_off_c, 12, 64, 100
13, 49536, Note_on_c, 12, 66, 96
13, 49720, Note_off_c, 12, 66, 100
13, 49728, Note_on_c, 12, 67, 96
13, 49912, Note_off_c, 12, 67, 100
13, 49920, Note_on_c, 12, 69, 96
13, 50040, Note_off_c, 12, 69, 100
13, 50304, Note_on_c, 12, 60, 96
13, 50424, Note_off_c, 12, 60, 100
13, 50688, Note_on_c, 12, 59, 96
13, 50816, Note_off_c, 12, 59, 100
13, 50880, Note_on_c, 12, 62, 96
13, 51064, Note_off_c, 12, 62, 100
13, 51072, Note_on_c, 12, 64, 96
13, 51256, Note_off_c, 12, 64, 100
13, 51264, Note_on_c, 12, 66, 96
13, 51448, Note_off_c, 12, 66, 100
13, 51456, Note_on_c, 12, 67, 96
13, 51640, Note_off_c, 12, 67, 100
13, 51648, Note_on_c, 12, 69, 96
13, 51832, Note_off_c, 12, 69, 100
13, 51840, Note_on_c, 12, 71, 96
13, 52480, Note_off_c, 12, 71, 100
13, 52608, Note_on_c, 12, 69, 96
13, 52792, Note_off_c, 12, 69, 100
13, 52800, Note_on_c, 12, 68, 96
13, 52984, Note_off_c, 12, 68, 100
13, 52992, Note_on_c, 12, 69, 96
13, 53752, Note_off_c, 12, 69, 100
13, 54144, Note_on_c, 12, 66, 96
13, 54264, Note_off_c, 12, 66, 100
13, 54528, Note_on_c, 12, 71, 96
13, 54648, Note_off_c, 12, 71, 100
13, 54912, Note_on_c, 12, 69, 96
13, 55032, Note_off_c, 12, 69, 100
13, 55296, Note_on_c, 12, 67, 96
13, 55480, Note_off_c, 12, 67, 100
13, 55488, Note_on_c, 12, 69, 96
13, 55672, Note_off_c, 12, 69, 100
13, 55680, Note_on_c, 12, 71, 96
13, 55864, Note_off_c, 12, 71, 100
13, 55872, Note_on_c, 12, 69, 96
13, 56056, Note_off_c, 12, 69, 100
13, 56064, Note_on_c, 12, 67, 96
13, 56248, Note_off_c, 12, 67, 100
13, 56256, Note_on_c, 12, 66, 96
13, 56440, Note_off_c, 12, 66, 100
13, 56448, Note_on_c, 12, 67, 96
13, 56632, Note_off_c, 12, 67, 100
13, 56640, Note_on_c, 12, 64, 96
13, 56768, Note_off_c, 12, 64, 100
13, 56832, Note_on_c, 12, 69, 96
13, 57016, Note_off_c, 12, 69, 100
13, 57024, Note_on_c, 12, 71, 96
13, 57208, Note_off_c, 12, 71, 100
13, 57216, Note_on_c, 12, 72, 96
13, 57400, Note_off_c, 12, 72, 100
13, 57408, Note_on_c, 12, 71, 96
13, 57592, Note_off_c, 12, 71, 100
13, 57600, Note_on_c, 12, 69, 96
13, 57784, Note_off_c, 12, 69, 100
13, 57792, Note_on_c, 12, 67, 96
13, 57976, Note_off_c, 12, 67, 100
13, 57984, Note_on_c, 12, 69, 96
13, 58168, Note_off_c, 12, 69, 100
13, 58176, Note_on_c, 12, 66, 96
13, 58304, Note_off_c, 12, 66, 100
13, 58368, Note_on_c, 12, 71, 96
13, 58552, Note_off_c, 12, 71, 100
13, 58560, Note_on_c, 12, 69, 96
13, 58744, Note_off_c, 12, 69, 100
13, 58752, Note_on_c, 12, 67, 96
13, 58936, Note_off_c, 12, 67, 100
13, 58944, Note_on_c, 12, 69, 96
13, 59128, Note_off_c, 12, 69, 100
13, 59136, Note_on_c, 12, 71, 96
13, 59320, Note_off_c, 12, 71, 100
13, 59328, Note_on_c, 12, 69, 96
13, 59512, Note_off_c, 12, 69, 100
13, 59520, Note_on_c, 12, 71, 96
13, 59704, Note_off_c, 12, 71, 100
13, 59712, Note_on_c, 12, 59, 96
13, 59896, Note_off_c, 12, 59, 100
13, 59904, Note_on_c, 12, 64, 96
13, 60032, Note_off_c, 12, 64, 100
13, 60096, Note_on_c, 12, 59, 96
13, 60280, Note_off_c, 12, 59, 100
13, 60288, Note_on_c, 12, 57, 96
13, 60472, Note_off_c, 12, 57, 100
13, 60480, Note_on_c, 12, 59, 96
13, 60664, Note_off_c, 12, 59, 100
13, 60672, Note_on_c, 12, 55, 96
13, 60856, Note_off_c, 12, 55, 100
13, 60864, Note_on_c, 12, 54, 96
13, 60992, Note_off_c, 12, 54, 100
13, 61056, Note_on_c, 12, 55, 96
13, 61240, Note_off_c, 12, 55, 100
13, 61248, Note_on_c, 12, 52, 96
13, 61376, Note_off_c, 12, 52, 100
13, 67584, Note_on_c, 12, 74, 96
13, 67640, Note_off_c, 12, 74, 100
13, 67648, Note_on_c, 12, 72, 96
13, 67704, Note_off_c, 12, 72, 100
13, 67712, Note_on_c, 12, 74, 96
13, 68280, Note_off_c, 12, 74, 100
13, 68352, Note_on_c, 12, 76, 96
13, 68440, Note_off_c, 12, 76, 100
13, 68448, Note_on_c, 12, 74, 96
13, 68536, Note_off_c, 12, 74, 100
13, 68544, Note_on_c, 12, 76, 96
13, 68632, Note_off_c, 12, 76, 100
13, 68640, Note_on_c, 12, 74, 96
13, 68728, Note_off_c, 12, 74, 100
13, 68736, Note_on_c, 12, 76, 96
13, 68824, Note_off_c, 12, 76, 100
13, 68832, Note_on_c, 12, 74, 96
13, 68920, Note_off_c, 12, 74, 100
13, 68928, Note_on_c, 12, 72, 96
13, 69016, Note_off_c, 12, 72, 100
13, 69024, Note_on_c, 12, 74, 96
13, 69112, Note_off_c, 12, 74, 100
13, 69120, Note_on_c, 12, 76, 96
13, 69240, Note_off_c, 12, 76, 100
13, 69504, Note_on_c, 12, 72, 96
13, 69624, Note_off_c, 12, 72, 100
13, 69888, Note_on_c, 12, 69, 96
13, 70064, Note_off_c, 12, 69, 100
13, 70272, Note_on_c, 12, 72, 96
13, 70392, Note_off_c, 12, 72, 100
13, 70656, Note_on_c, 12, 69, 96
13, 70776, Note_off_c, 12, 69, 100
13, 71040, Note_on_c, 12, 74, 96
13, 71160, Note_off_c, 12, 74, 100
13, 71424, Note_on_c, 12, 62, 96
13, 71600, Note_off_c, 12, 62, 100
13, 71808, Note_on_c, 12, 72, 96
13, 71928, Note_off_c, 12, 72, 100
13, 72192, Note_on_c, 12, 72, 96
13, 72248, Note_off_c, 12, 72, 100
13, 72256, Note_on_c, 12, 71, 96
13, 72312, Note_off_c, 12, 71, 100
13, 72320, Note_on_c, 12, 72, 96
13, 72376, Note_off_c, 12, 72, 100
13, 72384, Note_on_c, 12, 71, 96
13, 72568, Note_off_c, 12, 71, 100
13, 72576, Note_on_c, 12, 69, 96
13, 72760, Note_off_c, 12, 69, 100
13, 72768, Note_on_c, 12, 71, 96
13, 72952, Note_off_c, 12, 71, 100
13, 72960, Note_on_c, 12, 67, 96
13, 73472, Note_off_c, 12, 67, 100
13, 73728, Note_on_c, 12, 62, 96
13, 73912, Note_off_c, 12, 62, 100
13, 73920, Note_on_c, 12, 64, 96
13, 74104, Note_off_c, 12, 64, 100
13, 74112, Note_on_c, 12, 66, 96
13, 74296, Note_off_c, 12, 66, 100
13, 74304, Note_on_c, 12, 67, 96
13, 74488, Note_off_c, 12, 67, 100
13, 74496, Note_on_c, 12, 69, 96
13, 74616, Note_off_c, 12, 69, 100
13, 74880, Note_on_c, 12, 60, 96
13, 75000, Note_off_c, 12, 60, 100
13, 75264, Note_on_c, 12, 59, 96
13, 75392, Note_off_c, 12, 59, 100
13, 75456, Note_on_c, 12, 62, 96
13, 75640, Note_off_c, 12, 62, 100
13, 75648, Note_on_c, 12, 64, 96
13, 75832, Note_off_c, 12, 64, 100
13, 75840, Note_on_c, 12, 66, 96
13, 76024, Note_off_c, 12, 66, 100
13, 76032, Note_on_c, 12, 67, 96
13, 76216, Note_off_c, 12, 67, 100
13, 76224, Note_on_c, 12, 69, 96
13, 76408, Note_off_c, 12, 69, 100
13, 76416, Note_on_c, 12, 71, 96
13, 77056, Note_off_c, 12, 71, 64
13, 77184, Note_on_c, 12, 69, 96
13, 77368, Note_off_c, 12, 69, 100
13, 77376, Note_on_c, 12, 68, 96
13, 77560, Note_off_c, 12, 68, 100
13, 77568, Note_on_c, 12, 69, 96
13, 78328, Note_off_c, 12, 69, 100
13, 78720, Note_on_c, 12, 66, 96
13, 78840, Note_off_c, 12, 66, 100
13, 79104, Note_on_c, 12, 71, 96
13, 79224, Note_off_c, 12, 71, 100
13, 79488, Note_on_c, 12, 69, 96
13, 79608, Note_off_c, 12, 69, 100
13, 79872, Note_on_c, 12, 67, 96
13, 80056, Note_off_c, 12, 67, 100
13, 80064, Note_on_c, 12, 69, 96
13, 80248, Note_off_c, 12, 69, 100
13, 80256, Note_on_c, 12, 71, 96
13, 80440, Note_off_c, 12, 71, 100
13, 80448, Note_on_c, 12, 69, 96
13, 80632, Note_off_c, 12, 69, 100
13, 80640, Note_on_c, 12, 67, 96
13, 80824, Note_off_c, 12, 67, 100
13, 80832, Note_on_c, 12, 66, 96
13, 81016, Note_off_c, 12, 66, 100
13, 81024, Note_on_c, 12, 67, 96
13, 81208, Note_off_c, 12, 67, 100
13, 81216, Note_on_c, 12, 64, 96
13, 81344, Note_off_c, 12, 64, 100
13, 81408, Note_on_c, 12, 69, 96
13, 81592, Note_off_c, 12, 69, 100
13, 81600, Note_on_c, 12, 71, 96
13, 81784, Note_off_c, 12, 71, 100
13, 81792, Note_on_c, 12, 72, 96
13, 81976, Note_off_c, 12, 72, 100
13, 81984, Note_on_c, 12, 71, 96
13, 82168, Note_off_c, 12, 71, 100
13, 82176, Note_on_c, 12, 69, 96
13, 82360, Note_off_c, 12, 69, 100
13, 82368, Note_on_c, 12, 67, 96
13, 82552, Note_off_c, 12, 67, 100
13, 82560, Note_on_c, 12, 69, 96
13, 82744, Note_off_c, 12, 69, 100
13, 82752, Note_on_c, 12, 66, 96
13, 82880, Note_off_c, 12, 66, 100
13, 82944, Note_on_c, 12, 71, 96
13, 83128, Note_off_c, 12, 71, 100
13, 83136, Note_on_c, 12, 69, 96
13, 83320, Note_off_c, 12, 69, 100
13, 83328, Note_on_c, 12, 67, 96
13, 83512, Note_off_c, 12, 67, 100
13, 83520, Note_on_c, 12, 69, 96
13, 83704, Note_off_c, 12, 69, 100
13, 83712, Note_on_c, 12, 71, 96
13, 83896, Note_off_c, 12, 71, 100
13, 83904, Note_on_c, 12, 69, 96
13, 84088, Note_off_c, 12, 69, 100
13, 84096, Note_on_c, 12, 71, 96
13, 84280, Note_off_c, 12, 71, 100
13, 84288, Note_on_c, 12, 59, 96
13, 84472, Note_off_c, 12, 59, 100
13, 84480, Note_on_c, 12, 64, 96
13, 84608, Note_off_c, 12, 64, 100
13, 84672, Note_on_c, 12, 59, 96
13, 84856, Note_off_c, 12, 59, 100
13, 84864, Note_on_c, 12, 57, 96
13, 85048, Note_off_c, 12, 57, 100
13, 85056, Note_on_c, 12, 59, 96
13, 85240, Note_off_c, 12, 59, 100
13, 85248, Note_on_c, 12, 55, 96
13, 85432, Note_off_c, 12, 55, 100
13, 85440, Note_on_c, 12, 54, 96
13, 85568, Note_off_c, 12, 54, 100
13, 85632, Note_on_c, 12, 55, 96
13, 85816, Note_off_c, 12, 55, 100
13, 85824, Note_on_c, 12, 52, 96
13, 85952, Note_off_c, 12, 52, 100
13, 92160, Note_on_c, 12, 74, 96
13, 92216, Note_off_c, 12, 74, 100
13, 92224, Note_on_c, 12, 72, 96
13, 92280, Note_off_c, 12, 72, 100
13, 92288, Note_on_c, 12, 74, 96
13, 92856, Note_off_c, 12, 74, 100
13, 92928, Note_on_c, 12, 76, 96
13, 93016, Note_off_c, 12, 76, 100
13, 93024, Note_on_c, 12, 74, 96
13, 93112, Note_off_c, 12, 74, 100
13, 93120, Note_on_c, 12, 76, 96
13, 93208, Note_off_c, 12, 76, 100
13, 93216, Note_on_c, 12, 74, 96
13, 93304, Note_off_c, 12, 74, 100
13, 93312, Note_on_c, 12, 76, 96
13, 93400, Note_off_c, 12, 76, 100
13, 93408, Note_on_c, 12, 74, 96
13, 93496, Note_off_c, 12, 74, 100
13, 93504, Note_on_c, 12, 72, 96
13, 93592, Note_off_c, 12, 72, 100
13, 93600, Note_on_c, 12, 74, 96
13, 93688, Note_off_c, 12, 74, 100
13, 93696, Note_on_c, 12, 76, 96
13, 93816, Note_off_c, 12, 76, 100
13, 94080, Note_on_c, 12, 72, 96
13, 94200, Note_off_c, 12, 72, 100
13, 94464, Note_on_c, 12, 69, 96
13, 94640, Note_off_c, 12, 69, 100
13, 94848, Note_on_c, 12, 72, 96
13, 94968, Note_off_c, 12, 72, 100
13, 95232, Note_on_c, 12, 69, 96
13, 95352, Note_off_c, 12, 69, 100
13, 95616, Note_on_c, 12, 74, 96
13, 95736, Note_off_c, 12, 74, 100
13, 96000, Note_on_c, 12, 62, 96
13, 96176, Note_off_c, 12, 62, 100
13, 96384, Note_on_c, 12, 72, 96
13, 96504, Note_off_c, 12, 72, 100
13, 96768, Note_on_c, 12, 72, 96
13, 96824, Note_off_c, 12, 72, 100
13, 96832, Note_on_c, 12, 71, 96
13, 96888, Note_off_c, 12, 71, 100
13, 96896, Note_on_c, 12, 72, 96
13, 96952, Note_off_c, 12, 72, 100
13, 96960, Note_on_c, 12, 71, 96
13, 97144, Note_off_c, 12, 71, 100
13, 97152, Note_on_c, 12, 69, 96
13, 97336, Note_off_c, 12, 69, 100
13, 97344, Note_on_c, 12, 71, 96
13, 97528, Note_off_c, 12, 71, 100
13, 97536, Note_on_c, 12, 67, 96
13, 98048, Note_off_c, 12, 67, 100
13, 98048, End_track
14, 0, Start_track
14, 1, Copyright_t, "___________________________________________________\012\012KUNSTDERFUGE.COM LARGE CLASSICAL MIDI COLLECTION\012ONCLASSICAL BY ALESSANDRO SIMONETTO, PROPRIETOR\012___________________________________________________\012\012! Attention: this file is under copyright !\012\012(c)onclassical, (c)degiusti, 2010\012___________________________________________________\012\012NO ONE MAY REPUBLISH THIS FILE WITHOUT PERMISSION\012COMMERCIAL USES OF THIS FILE IS STRICTLY PROHIBITED\012___________________________________________________\012\012Files & contributor's list: http://kunstderfuge.com/\012Terms and conditions: http://kunstderfuge.com/notes.htm"
14, 1, End_track
0, 0, End_of_file