0, 0, Header, 1, 1, 480
1, 0, Start_track
1, 0, Sequence_number, 0
1, 0, Title_t, "c3"
1, 0, Channel_prefix, 0
1, 0, Instrument_name_t, "1"
1, 0, Program_c, 0, 0
1, 0, Tempo, 434782
1, 0, Time_signature, 2, 2, 24, 24
1, 0, Key_signature, 5, "major"
1, 0, Note_on_c, 0, 71, 90
1, 360, Note_off_c, 0, 71, 0
1, 360, Note_on_c, 0, 73, 90
1, 480, Note_off_c, 0, 73, 0
1, 480, Note_on_c, 0, 75, 90
1, 600, Note_off_c, 0, 75, 0
1, 600, Note_on_c, 0, 73, 90
1, 720, Note_off_c, 0, 73, 0
1, 720, Note_on_c, 0, 75, 90
1, 840, Note_off_c, 0, 75, 0
1, 840, Note_on_c, 0, 76, 90
1, 960, Note_off_c, 0, 76, 0
1, 960, Note_on_c, 0, 78, 90
1, 1080, Note_off_c, 0, 78, 0
1, 1200, Note_on_c, 0, 83, 90
1, 1320, Note_off_c, 0, 83, 0
1, 1440, Note_on_c, 0, 80, 90
1, 1560, Note_off_c, 0, 80, 0
1, 1680, Note_on_c, 0, 85, 90
1, 1800, Note_off_c, 0, 85, 0
1, 1920, Tempo, 444444
1, 1920, Note_on_c, 0, 78, 90
1, 2040, Note_off_c, 0, 78, 0
1, 2160, Note_on_c, 0, 76, 90
1, 2280, Note_off_c, 0, 76, 0
1, 2640, Note_on_c, 0, 75, 90
1, 2760, Note_off_c, 0, 75, 0
1, 2880, Tempo, 454545
1, 3120, Note_on_c, 0, 73, 90
1, 3240, Note_off_c, 0, 73, 0
1, 3600, Note_on_c, 0, 78, 90
1, 3720, Note_off_c, 0, 78, 0
1, 3840, Tempo, 444444
1, 3840, Note_on_c, 0, 75, 90
1, 3960, Note_off_c, 0, 75, 0
1, 4080, Note_on_c, 0, 73, 90
1, 4200, Note_off_c, 0, 73, 0
1, 4320, Note_on_c, 0, 71, 90
1, 4440, Note_off_c, 0, 71, 0
1, 4560, Note_on_c, 0, 70, 90
1, 4680, Note_off_c, 0, 70, 0
1, 4800, Tempo, 437956
1, 5040, Note_on_c, 0, 68, 90
1, 5160, Note_off_c, 0, 68, 0
1, 5520, Note_on_c, 0, 66, 90
1, 5640, Note_off_c, 0, 66, 0
1, 5760, Tempo, 447761
1, 6000, Note_on_c, 0, 75, 90
1, 6120, Note_off_c, 0, 75, 0
1, 6240, Note_on_c, 0, 71, 90
1, 6480, Note_off_c, 0, 71, 0
1, 6480, Note_on_c, 0, 70, 90
1, 6600, Note_off_c, 0, 70, 0
1, 6600, Note_on_c, 0, 68, 90
1, 6720, Note_off_c, 0, 68, 0
1, 6720, Tempo, 461538
1, 6720, Note_on_c, 0, 66, 90
1, 6840, Note_off_c, 0, 66, 0
1, 6960, Note_on_c, 0, 78, 90
1, 7080, Note_off_c, 0, 78, 0
1, 7200, Note_on_c, 0, 73, 90
1, 7680, Tempo, 434782
1, 7800, Note_off_c, 0, 73, 0
1, 7800, Note_on_c, 0, 75, 90
1, 7920, Note_off_c, 0, 75, 0
1, 7920, Note_on_c, 0, 73, 90
1, 8040, Note_off_c, 0, 73, 0
1, 8040, Note_on_c, 0, 75, 90
1, 8160, Note_off_c, 0, 75, 0
1, 8160, Note_on_c, 0, 71, 90
1, 8280, Note_off_c, 0, 71, 0
1, 8280, Note_on_c, 0, 73, 90
1, 8400, Note_off_c, 0, 73, 0
1, 8400, Note_on_c, 0, 71, 90
1, 8520, Note_off_c, 0, 71, 0
1, 8520, Note_on_c, 0, 73, 90
1, 8640, Note_off_c, 0, 73, 0
1, 8640, Note_on_c, 0, 70, 90
1, 8760, Note_off_c, 0, 70, 0
1, 8760, Note_on_c, 0, 71, 90
1, 8880, Note_off_c, 0, 71, 0
1, 8880, Note_on_c, 0, 73, 90
1, 9000, Note_off_c, 0, 73, 0
1, 9000, Note_on_c, 0, 75, 90
1, 9120, Note_off_c, 0, 75, 0
1, 9120, Note_on_c, 0, 73, 90
1, 9240, Note_off_c, 0, 73, 0
1, 9240, Note_on_c, 0, 66, 90
1, 9360, Note_off_c, 0, 66, 0
1, 9360, Note_on_c, 0, 73, 90
1, 9480, Note_off_c, 0, 73, 0
1, 9480, Note_on_c, 0, 66, 90
1, 9600, Note_off_c, 0, 66, 0
1, 9600, Note_on_c, 0, 68, 90
1, 9720, Note_off_c, 0, 68, 0
1, 9720, Note_on_c, 0, 70, 90
1, 9840, Note_off_c, 0, 70, 0
1, 9840, Note_on_c, 0, 71, 90
1, 9960, Note_off_c, 0, 71, 0
1, 9960, Note_on_c, 0, 73, 90
1, 10080, Note_off_c, 0, 73, 0
1, 10080, Note_on_c, 0, 70, 90
1, 10200, Note_off_c, 0, 70, 0
1, 10200, Note_on_c, 0, 66, 90
1, 10320, Note_off_c, 0, 66, 0
1, 10320, Note_on_c, 0, 70, 90
1, 10440, Note_off_c, 0, 70, 0
1, 10440, Note_on_c, 0, 66, 90
1, 10560, Note_off_c, 0, 66, 0
1, 10560, Note_on_c, 0, 61, 90
1, 10680, Note_off_c, 0, 61, 0
1, 10680, Note_on_c, 0, 63, 90
1, 10800, Note_off_c, 0, 63, 0
1, 10800, Note_on_c, 0, 65, 90
1, 10920, Note_off_c, 0, 65, 0
1, 10920, Note_on_c, 0, 66, 90
1, 11040, Note_off_c, 0, 66, 0
1, 11040, Note_on_c, 0, 63, 90
1, 11160, Note_off_c, 0, 63, 0
1, 11160, Note_on_c, 0, 65, 90
1, 11280, Note_off_c, 0, 65, 0
1, 11280, Note_on_c, 0, 66, 90
1, 11400, Note_off_c, 0, 66, 0
1, 11400, Note_on_c, 0, 68, 90
1, 11520, Note_off_c, 0, 68, 0
1, 11520, Note_on_c, 0, 70, 90
1, 11640, Note_off_c, 0, 70, 0
1, 11640, Note_on_c, 0, 71, 90
1, 11760, Note_off_c, 0, 71, 0
1, 11760, Note_on_c, 0, 70, 90
1, 11880, Note_off_c, 0, 70, 0
1, 11880, Note_on_c, 0, 68, 90
1, 12000, Note_off_c, 0, 68, 0
1, 12000, Note_on_c, 0, 70, 90
1, 12120, Note_off_c, 0, 70, 0
1, 12120, Note_on_c, 0, 71, 90
1, 12240, Note_off_c, 0, 71, 0
1, 12240, Note_on_c, 0, 70, 90
1, 12360, Note_off_c, 0, 70, 0
1, 12360, Note_on_c, 0, 68, 90
1, 12480, Note_off_c, 0, 68, 0
1, 12480, Note_on_c, 0, 66, 90
1, 12600, Note_off_c, 0, 66, 0
1, 12600, Note_on_c, 0, 73, 90
1, 12720, Note_off_c, 0, 73, 0
1, 12720, Note_on_c, 0, 66, 90
1, 12840, Note_off_c, 0, 66, 0
1, 12840, Note_on_c, 0, 73, 90
1, 12960, Note_off_c, 0, 73, 0
1, 12960, Note_on_c, 0, 75, 90
1, 13080, Note_off_c, 0, 75, 0
1, 13080, Note_on_c, 0, 73, 90
1, 13200, Note_off_c, 0, 73, 0
1, 13200, Note_on_c, 0, 75, 90
1, 13320, Note_off_c, 0, 75, 0
1, 13320, Note_on_c, 0, 73, 90
1, 13440, Note_off_c, 0, 73, 0
1, 13440, Note_on_c, 0, 71, 90
1, 13560, Note_off_c, 0, 71, 0
1, 13680, Note_on_c, 0, 76, 90
1, 13800, Note_off_c, 0, 76, 0
1, 13920, Note_on_c, 0, 75, 90
1, 14160, Note_off_c, 0, 75, 0
1, 14160, Note_on_c, 0, 73, 90
1, 14280, Note_off_c, 0, 73, 0
1, 14280, Note_on_c, 0, 71, 90
1, 14400, Note_off_c, 0, 71, 0
1, 14400, Note_on_c, 0, 70, 90
1, 14520, Note_off_c, 0, 70, 0
1, 14640, Note_on_c, 0, 68, 90
1, 14760, Note_off_c, 0, 68, 0
1, 15120, Note_on_c, 0, 73, 90
1, 15240, Note_off_c, 0, 73, 0
1, 15360, Note_on_c, 0, 78, 90
1, 15840, Note_off_c, 0, 78, 0
1, 15840, Note_on_c, 0, 78, 90
1, 16320, Note_off_c, 0, 78, 0
1, 16320, Note_on_c, 0, 78, 90
1, 17040, Note_off_c, 0, 78, 0
1, 17040, Note_on_c, 0, 80, 90
1, 17160, Note_off_c, 0, 80, 0
1, 17160, Note_on_c, 0, 78, 90
1, 17280, Note_off_c, 0, 78, 0
1, 17280, Note_on_c, 0, 76, 90
1, 17400, Note_off_c, 0, 76, 0
1, 17400, Note_on_c, 0, 78, 90
1, 17520, Note_off_c, 0, 78, 0
1, 17520, Note_on_c, 0, 76, 90
1, 17640, Note_off_c, 0, 76, 0
1, 17640, Note_on_c, 0, 78, 90
1, 17760, Note_off_c, 0, 78, 0
1, 17760, Note_on_c, 0, 75, 90
1, 17880, Note_off_c, 0, 75, 0
1, 17880, Note_on_c, 0, 80, 90
1, 18000, Note_off_c, 0, 80, 0
1, 18000, Note_on_c, 0, 75, 90
1, 18120, Note_off_c, 0, 75, 0
1, 18120, Note_on_c, 0, 80, 90
1, 18240, Note_off_c, 0, 80, 0
1, 18240, Note_on_c, 0, 73, 90
1, 18360, Note_off_c, 0, 73, 0
1, 18360, Note_on_c, 0, 75, 90
1, 18480, Note_off_c, 0, 75, 0
1, 18480, Note_on_c, 0, 73, 90
1, 18600, Note_off_c, 0, 73, 0
1, 18600, Note_on_c, 0, 75, 90
1, 18720, Note_off_c, 0, 75, 0
1, 18720, Note_on_c, 0, 71, 90
1, 18840, Note_off_c, 0, 71, 0
1, 18840, Note_on_c, 0, 70, 90
1, 18960, Note_off_c, 0, 70, 0
1, 18960, Note_on_c, 0, 68, 90
1, 19080, Note_off_c, 0, 68, 0
1, 19080, Note_on_c, 0, 70, 90
1, 19200, Note_off_c, 0, 70, 0
1, 19200, Note_on_c, 0, 71, 90
1, 19320, Note_off_c, 0, 71, 0
1, 19320, Note_on_c, 0, 73, 90
1, 19440, Note_off_c, 0, 73, 0
1, 19440, Note_on_c, 0, 75, 90
1, 19560, Note_off_c, 0, 75, 0
1, 19560, Note_on_c, 0, 76, 90
1, 19680, Note_off_c, 0, 76, 0
1, 19680, Note_on_c, 0, 78, 90
1, 19800, Note_off_c, 0, 78, 0
1, 19920, Note_on_c, 0, 80, 90
1, 20040, Note_off_c, 0, 80, 0
1, 20160, Note_on_c, 0, 75, 90
1, 20880, Note_off_c, 0, 75, 0
1, 20880, Note_on_c, 0, 73, 90
1, 21120, Note_off_c, 0, 73, 0
1, 21120, Note_on_c, 0, 71, 90
1, 21840, Note_off_c, 0, 71, 0
1, 21840, Note_on_c, 0, 70, 90
1, 22080, Note_off_c, 0, 70, 0
1, 22080, Note_on_c, 0, 68, 90
1, 22200, Note_off_c, 0, 68, 0
1, 22320, Note_on_c, 0, 70, 90
1, 22440, Note_off_c, 0, 70, 0
1, 22560, Note_on_c, 0, 68, 90
1, 22680, Note_off_c, 0, 68, 0
1, 22800, Note_on_c, 0, 70, 90
1, 22920, Note_off_c, 0, 70, 0
1, 23040, Note_on_c, 0, 66, 90
1, 23520, Note_off_c, 0, 66, 0
1, 23520, Note_on_c, 0, 63, 90
1, 23760, Note_off_c, 0, 63, 0
1, 23760, Note_on_c, 0, 64, 90
1, 24000, Note_off_c, 0, 64, 0
1, 24000, Note_on_c, 0, 66, 90
1, 24480, Note_off_c, 0, 66, 0
1, 24480, Note_on_c, 0, 68, 90
1, 24720, Note_off_c, 0, 68, 0
1, 24720, Note_on_c, 0, 70, 90
1, 24960, Note_off_c, 0, 70, 0
1, 24960, Note_on_c, 0, 71, 90
1, 25440, Note_off_c, 0, 71, 0
1, 25440, Note_on_c, 0, 70, 90
1, 25680, Note_off_c, 0, 70, 0
1, 25680, Note_on_c, 0, 71, 90
1, 25920, Note_off_c, 0, 71, 0
1, 25920, Note_on_c, 0, 73, 90
1, 26040, Note_off_c, 0, 73, 0
1, 26160, Note_on_c, 0, 75, 90
1, 26280, Note_off_c, 0, 75, 0
1, 26400, Note_on_c, 0, 76, 90
1, 26520, Note_off_c, 0, 76, 0
1, 26640, Note_on_c, 0, 78, 90
1, 26760, Note_off_c, 0, 78, 0
1, 26880, Note_on_c, 0, 80, 90
1, 27360, Note_off_c, 0, 80, 0
1, 27360, Note_on_c, 0, 78, 90
1, 27840, Note_off_c, 0, 78, 0
1, 27840, Note_on_c, 0, 76, 90
1, 27960, Note_off_c, 0, 76, 0
1, 28080, Note_on_c, 0, 78, 90
1, 28200, Note_off_c, 0, 78, 0
1, 28320, Note_on_c, 0, 75, 90
1, 28440, Note_off_c, 0, 75, 0
1, 28560, Note_on_c, 0, 76, 90
1, 28680, Note_off_c, 0, 76, 0
1, 28800, Note_on_c, 0, 78, 90
1, 28920, Note_off_c, 0, 78, 0
1, 29040, Note_on_c, 0, 76, 90
1, 29160, Note_off_c, 0, 76, 0
1, 29280, Note_on_c, 0, 78, 90
1, 29400, Note_off_c, 0, 78, 0
1, 29520, Note_on_c, 0, 80, 90
1, 29640, Note_off_c, 0, 80, 0
1, 29760, Note_on_c, 0, 82, 90
1, 29880, Note_off_c, 0, 82, 0
1, 30000, Note_on_c, 0, 76, 90
1, 30120, Note_off_c, 0, 76, 0
1, 30120, Note_on_c, 0, 78, 90
1, 30240, Note_off_c, 0, 78, 0
1, 30240, Note_on_c, 0, 80, 90
1, 30360, Note_off_c, 0, 80, 0
1, 30480, Note_on_c, 0, 73, 90
1, 30600, Note_off_c, 0, 73, 0
1, 30720, Note_on_c, 0, 78, 90
1, 31200, Note_off_c, 0, 78, 0
1, 31200, Note_on_c, 0, 80, 90
1, 31680, Note_off_c, 0, 80, 0
1, 31680, Note_on_c, 0, 68, 90
1, 32040, Note_off_c, 0, 68, 0
1, 32040, Note_on_c, 0, 70, 90
1, 32160, Note_off_c, 0, 70, 0
1, 32160, Note_on_c, 0, 71, 90
1, 32280, Note_off_c, 0, 71, 0
1, 32280, Note_on_c, 0, 70, 90
1, 32400, Note_off_c, 0, 70, 0
1, 32400, Note_on_c, 0, 71, 90
1, 32520, Note_off_c, 0, 71, 0
1, 32520, Note_on_c, 0, 73, 90
1, 32640, Note_off_c, 0, 73, 0
1, 32640, Note_on_c, 0, 75, 90
1, 32760, Note_off_c, 0, 75, 0
1, 32880, Note_on_c, 0, 80, 90
1, 33000, Note_off_c, 0, 80, 0
1, 33120, Note_on_c, 0, 76, 90
1, 33240, Note_off_c, 0, 76, 0
1, 33360, Note_on_c, 0, 82, 90
1, 33480, Note_off_c, 0, 82, 0
1, 33600, Note_on_c, 0, 75, 90
1, 33720, Note_off_c, 0, 75, 0
1, 33840, Note_on_c, 0, 73, 90
1, 33960, Note_off_c, 0, 73, 0
1, 34320, Note_on_c, 0, 71, 90
1, 34440, Note_off_c, 0, 71, 0
1, 34800, Note_on_c, 0, 70, 90
1, 34920, Note_off_c, 0, 70, 0
1, 35280, Note_on_c, 0, 75, 90
1, 35400, Note_off_c, 0, 75, 0
1, 35520, Note_on_c, 0, 71, 90
1, 35640, Note_off_c, 0, 71, 0
1, 35760, Note_on_c, 0, 70, 90
1, 35880, Note_off_c, 0, 70, 0
1, 36000, Note_on_c, 0, 68, 90
1, 36120, Note_off_c, 0, 68, 0
1, 36240, Note_on_c, 0, 66, 90
1, 36360, Note_off_c, 0, 66, 0
1, 36720, Note_on_c, 0, 64, 90
1, 36840, Note_off_c, 0, 64, 0
1, 37200, Note_on_c, 0, 63, 90
1, 37320, Note_off_c, 0, 63, 0
1, 37680, Note_on_c, 0, 71, 90
1, 37800, Note_off_c, 0, 71, 0
1, 37920, Note_on_c, 0, 68, 90
1, 38400, Note_off_c, 0, 68, 0
1, 38400, Note_on_c, 0, 66, 90
1, 38520, Note_off_c, 0, 66, 0
1, 38640, Note_on_c, 0, 75, 90
1, 38760, Note_off_c, 0, 75, 0
1, 38880, Note_on_c, 0, 70, 90
1, 39480, Note_off_c, 0, 70, 0
1, 39480, Note_on_c, 0, 71, 90
1, 39600, Note_off_c, 0, 71, 0
1, 39600, Note_on_c, 0, 70, 90
1, 39720, Note_off_c, 0, 70, 0
1, 39720, Note_on_c, 0, 71, 90
1, 39840, Note_off_c, 0, 71, 0
1, 39840, Note_on_c, 0, 68, 90
1, 39960, Note_off_c, 0, 68, 0
1, 39960, Note_on_c, 0, 70, 90
1, 40080, Note_off_c, 0, 70, 0
1, 40080, Note_on_c, 0, 68, 90
1, 40200, Note_off_c, 0, 68, 0
1, 40200, Note_on_c, 0, 70, 90
1, 40320, Note_off_c, 0, 70, 0
1, 40320, Note_on_c, 0, 66, 90
1, 40440, Note_off_c, 0, 66, 0
1, 40440, Note_on_c, 0, 68, 90
1, 40560, Note_off_c, 0, 68, 0
1, 40560, Note_on_c, 0, 70, 90
1, 40680, Note_off_c, 0, 70, 0
1, 40680, Note_on_c, 0, 71, 90
1, 40800, Note_off_c, 0, 71, 0
1, 40800, Note_on_c, 0, 70, 90
1, 40920, Note_off_c, 0, 70, 0
1, 40920, Note_on_c, 0, 63, 90
1, 41040, Note_off_c, 0, 63, 0
1, 41040, Note_on_c, 0, 70, 90
1, 41160, Note_off_c, 0, 70, 0
1, 41160, Note_on_c, 0, 63, 90
1, 41280, Note_off_c, 0, 63, 0
1, 41280, Note_on_c, 0, 65, 90
1, 41400, Note_off_c, 0, 65, 0
1, 41400, Note_on_c, 0, 66, 90
1, 41520, Note_off_c, 0, 66, 0
1, 41520, Note_on_c, 0, 68, 90
1, 41640, Note_off_c, 0, 68, 0
1, 41640, Note_on_c, 0, 70, 90
1, 41760, Note_off_c, 0, 70, 0
1, 41760, Note_on_c, 0, 66, 90
1, 41880, Note_off_c, 0, 66, 0
1, 41880, Note_on_c, 0, 63, 90
1, 42000, Note_off_c, 0, 63, 0
1, 42000, Note_on_c, 0, 66, 90
1, 42120, Note_off_c, 0, 66, 0
1, 42120, Note_on_c, 0, 63, 90
1, 42240, Note_off_c, 0, 63, 0
1, 42240, Note_on_c, 0, 58, 90
1, 42360, Note_off_c, 0, 58, 0
1, 42360, Note_on_c, 0, 59, 90
1, 42480, Note_off_c, 0, 59, 0
1, 42480, Note_on_c, 0, 61, 90
1, 42600, Note_off_c, 0, 61, 0
1, 42600, Note_on_c, 0, 63, 90
1, 42720, Note_off_c, 0, 63, 0
1, 42720, Note_on_c, 0, 59, 90
1, 42840, Note_off_c, 0, 59, 0
1, 42840, Note_on_c, 0, 61, 90
1, 42960, Note_off_c, 0, 61, 0
1, 42960, Note_on_c, 0, 63, 90
1, 43080, Note_off_c, 0, 63, 0
1, 43080, Note_on_c, 0, 65, 90
1, 43200, Note_off_c, 0, 65, 0
1, 43200, Note_on_c, 0, 66, 90
1, 43320, Note_off_c, 0, 66, 0
1, 43320, Note_on_c, 0, 68, 90
1, 43440, Note_off_c, 0, 68, 0
1, 43440, Note_on_c, 0, 66, 90
1, 43560, Note_off_c, 0, 66, 0
1, 43560, Note_on_c, 0, 65, 90
1, 43680, Note_off_c, 0, 65, 0
1, 43680, Note_on_c, 0, 66, 90
1, 43800, Note_off_c, 0, 66, 0
1, 43800, Note_on_c, 0, 68, 90
1, 43920, Note_off_c, 0, 68, 0
1, 43920, Note_on_c, 0, 66, 90
1, 44040, Note_off_c, 0, 66, 0
1, 44040, Note_on_c, 0, 65, 90
1, 44160, Note_off_c, 0, 65, 0
1, 44160, Note_on_c, 0, 63, 90
1, 44280, Note_off_c, 0, 63, 0
1, 44280, Note_on_c, 0, 70, 90
1, 44400, Note_off_c, 0, 70, 0
1, 44400, Note_on_c, 0, 63, 90
1, 44520, Note_off_c, 0, 63, 0
1, 44520, Note_on_c, 0, 70, 90
1, 44640, Note_off_c, 0, 70, 0
1, 44640, Note_on_c, 0, 71, 90
1, 44760, Note_off_c, 0, 71, 0
1, 44760, Note_on_c, 0, 70, 90
1, 44880, Note_off_c, 0, 70, 0
1, 44880, Note_on_c, 0, 71, 90
1, 45000, Note_off_c, 0, 71, 0
1, 45000, Note_on_c, 0, 70, 90
1, 45120, Note_off_c, 0, 70, 0
1, 45120, Note_on_c, 0, 65, 90
1, 45240, Note_off_c, 0, 65, 0
1, 45240, Note_on_c, 0, 68, 90
1, 45360, Note_off_c, 0, 68, 0
1, 45360, Note_on_c, 0, 65, 90
1, 45480, Note_off_c, 0, 65, 0
1, 45480, Note_on_c, 0, 68, 90
1, 45600, Note_off_c, 0, 68, 0
1, 45600, Note_on_c, 0, 66, 90
1, 45720, Note_off_c, 0, 66, 0
1, 45720, Note_on_c, 0, 68, 90
1, 45840, Note_off_c, 0, 68, 0
1, 45840, Note_on_c, 0, 66, 90
1, 45960, Note_off_c, 0, 66, 0
1, 45960, Note_on_c, 0, 68, 90
1, 46080, Note_off_c, 0, 68, 0
1, 46080, Note_on_c, 0, 70, 90
1, 46200, Note_off_c, 0, 70, 0
1, 46200, Note_on_c, 0, 68, 90
1, 46320, Note_off_c, 0, 68, 0
1, 46320, Note_on_c, 0, 70, 90
1, 46440, Note_off_c, 0, 70, 0
1, 46440, Note_on_c, 0, 71, 90
1, 46560, Note_off_c, 0, 71, 0
1, 46560, Note_on_c, 0, 68, 90
1, 46680, Note_off_c, 0, 68, 0
1, 46680, Note_on_c, 0, 66, 90
1, 46800, Note_off_c, 0, 66, 0
1, 46800, Note_on_c, 0, 68, 90
1, 46920, Note_off_c, 0, 68, 0
1, 46920, Note_on_c, 0, 70, 90
1, 47040, Note_off_c, 0, 70, 0
1, 47040, Note_on_c, 0, 66, 90
1, 47160, Note_off_c, 0, 66, 0
1, 47160, Note_on_c, 0, 75, 90
1, 47280, Note_off_c, 0, 75, 0
1, 47280, Note_on_c, 0, 78, 90
1, 47400, Note_off_c, 0, 78, 0
1, 47400, Note_on_c, 0, 75, 90
1, 47520, Note_off_c, 0, 75, 0
1, 47520, Note_on_c, 0, 80, 90
1, 47640, Note_off_c, 0, 80, 0
1, 47640, Note_on_c, 0, 78, 90
1, 47760, Note_off_c, 0, 78, 0
1, 47760, Note_on_c, 0, 77, 90
1, 47880, Note_off_c, 0, 77, 0
1, 47880, Note_on_c, 0, 70, 90
1, 48000, Note_off_c, 0, 70, 0
1, 48000, Note_on_c, 0, 82, 90
1, 48120, Note_off_c, 0, 82, 0
1, 48120, Note_on_c, 0, 78, 90
1, 48240, Note_off_c, 0, 78, 0
1, 48240, Note_on_c, 0, 82, 90
1, 48360, Note_off_c, 0, 82, 0
1, 48360, Note_on_c, 0, 78, 90
1, 48480, Note_off_c, 0, 78, 0
1, 48480, Note_on_c, 0, 83, 90
1, 48600, Note_off_c, 0, 83, 0
1, 48600, Note_on_c, 0, 82, 90
1, 48720, Note_off_c, 0, 82, 0
1, 48720, Note_on_c, 0, 80, 90
1, 48840, Note_off_c, 0, 80, 0
1, 48840, Note_on_c, 0, 77, 90
1, 48960, Note_off_c, 0, 77, 0
1, 48960, Note_on_c, 0, 82, 90
1, 49080, Note_off_c, 0, 82, 0
1, 49200, Note_on_c, 0, 85, 90
1, 49320, Note_off_c, 0, 85, 0
1, 49440, Note_on_c, 0, 80, 90
1, 49560, Note_off_c, 0, 80, 0
1, 49680, Note_on_c, 0, 78, 90
1, 49800, Note_off_c, 0, 78, 0
1, 49920, Note_on_c, 0, 80, 90
1, 50400, Note_off_c, 0, 80, 0
1, 50400, Note_on_c, 0, 68, 90
1, 50520, Note_off_c, 0, 68, 0
1, 50640, Note_on_c, 0, 80, 90
1, 50760, Note_off_c, 0, 80, 0
1, 50880, Note_on_c, 0, 61, 90
1, 51000, Note_off_c, 0, 61, 0
1, 51120, Note_on_c, 0, 73, 90
1, 51240, Note_off_c, 0, 73, 0
1, 51360, Note_on_c, 0, 68, 90
1, 51840, Note_off_c, 0, 68, 0
1, 51840, Note_on_c, 0, 80, 90
1, 51960, Note_off_c, 0, 80, 0
1, 51960, Note_on_c, 0, 81, 90
1, 52080, Note_off_c, 0, 81, 0
1, 52080, Note_on_c, 0, 80, 90
1, 52200, Note_off_c, 0, 80, 0
1, 52200, Note_on_c, 0, 81, 90
1, 52320, Note_off_c, 0, 81, 0
1, 52320, Note_on_c, 0, 78, 90
1, 52440, Note_off_c, 0, 78, 0
1, 52440, Note_on_c, 0, 80, 90
1, 52560, Note_off_c, 0, 80, 0
1, 52560, Note_on_c, 0, 78, 90
1, 52680, Note_off_c, 0, 78, 0
1, 52680, Note_on_c, 0, 80, 90
1, 52800, Note_off_c, 0, 80, 0
1, 52800, Note_on_c, 0, 76, 90
1, 52920, Note_off_c, 0, 76, 0
1, 52920, Note_on_c, 0, 78, 90
1, 53040, Note_off_c, 0, 78, 0
1, 53040, Note_on_c, 0, 80, 90
1, 53160, Note_off_c, 0, 80, 0
1, 53160, Note_on_c, 0, 81, 90
1, 53280, Note_off_c, 0, 81, 0
1, 53280, Note_on_c, 0, 80, 90
1, 53400, Note_off_c, 0, 80, 0
1, 53400, Note_on_c, 0, 73, 90
1, 53520, Note_off_c, 0, 73, 0
1, 53520, Note_on_c, 0, 80, 90
1, 53640, Note_off_c, 0, 80, 0
1, 53640, Note_on_c, 0, 73, 90
1, 53760, Note_off_c, 0, 73, 0
1, 53760, Note_on_c, 0, 75, 90
1, 53880, Note_off_c, 0, 75, 0
1, 53880, Note_on_c, 0, 76, 90
1, 54000, Note_off_c, 0, 76, 0
1, 54000, Note_on_c, 0, 78, 90
1, 54120, Note_off_c, 0, 78, 0
1, 54120, Note_on_c, 0, 80, 90
1, 54240, Note_off_c, 0, 80, 0
1, 54240, Note_on_c, 0, 76, 90
1, 54360, Note_off_c, 0, 76, 0
1, 54360, Note_on_c, 0, 73, 90
1, 54480, Note_off_c, 0, 73, 0
1, 54480, Note_on_c, 0, 76, 90
1, 54600, Note_off_c, 0, 76, 0
1, 54600, Note_on_c, 0, 73, 90
1, 54720, Note_off_c, 0, 73, 0
1, 54720, Note_on_c, 0, 68, 90
1, 54840, Note_off_c, 0, 68, 0
1, 54840, Note_on_c, 0, 69, 90
1, 54960, Note_off_c, 0, 69, 0
1, 54960, Note_on_c, 0, 71, 90
1, 55080, Note_off_c, 0, 71, 0
1, 55080, Note_on_c, 0, 73, 90
1, 55200, Note_off_c, 0, 73, 0
1, 55200, Note_on_c, 0, 69, 90
1, 55320, Note_off_c, 0, 69, 0
1, 55320, Note_on_c, 0, 71, 90
1, 55440, Note_off_c, 0, 71, 0
1, 55440, Note_on_c, 0, 73, 90
1, 55560, Note_off_c, 0, 73, 0
1, 55560, Note_on_c, 0, 75, 90
1, 55680, Note_off_c, 0, 75, 0
1, 55680, Note_on_c, 0, 76, 90
1, 55800, Note_off_c, 0, 76, 0
1, 55800, Note_on_c, 0, 78, 90
1, 55920, Note_off_c, 0, 78, 0
1, 55920, Note_on_c, 0, 76, 90
1, 56040, Note_off_c, 0, 76, 0
1, 56040, Note_on_c, 0, 75, 90
1, 56160, Note_off_c, 0, 75, 0
1, 56160, Note_on_c, 0, 76, 90
1, 56280, Note_off_c, 0, 76, 0
1, 56280, Note_on_c, 0, 78, 90
1, 56400, Note_off_c, 0, 78, 0
1, 56400, Note_on_c, 0, 76, 90
1, 56520, Note_off_c, 0, 76, 0
1, 56520, Note_on_c, 0, 75, 90
1, 56640, Note_off_c, 0, 75, 0
1, 56640, Note_on_c, 0, 73, 90
1, 56760, Note_off_c, 0, 73, 0
1, 56760, Note_on_c, 0, 80, 90
1, 56880, Note_off_c, 0, 80, 0
1, 56880, Note_on_c, 0, 73, 90
1, 57000, Note_off_c, 0, 73, 0
1, 57000, Note_on_c, 0, 80, 90
1, 57120, Note_off_c, 0, 80, 0
1, 57120, Note_on_c, 0, 81, 90
1, 57240, Note_off_c, 0, 81, 0
1, 57240, Note_on_c, 0, 80, 90
1, 57360, Note_off_c, 0, 80, 0
1, 57360, Note_on_c, 0, 81, 90
1, 57480, Note_off_c, 0, 81, 0
1, 57480, Note_on_c, 0, 80, 90
1, 57600, Note_off_c, 0, 80, 0
1, 57600, Note_on_c, 0, 78, 90
1, 57960, Note_off_c, 0, 78, 0
1, 57960, Note_on_c, 0, 80, 90
1, 58080, Note_off_c, 0, 80, 0
1, 58080, Note_on_c, 0, 81, 90
1, 58200, Note_off_c, 0, 81, 0
1, 58200, Note_on_c, 0, 80, 90
1, 58320, Note_off_c, 0, 80, 0
1, 58320, Note_on_c, 0, 81, 90
1, 58440, Note_off_c, 0, 81, 0
1, 58440, Note_on_c, 0, 83, 90
1, 58560, Note_off_c, 0, 83, 0
1, 58560, Note_on_c, 0, 85, 90
1, 58680, Note_off_c, 0, 85, 0
1, 58800, Note_on_c, 0, 90, 90
1, 58920, Note_off_c, 0, 90, 0
1, 59040, Note_on_c, 0, 86, 90
1, 59160, Note_off_c, 0, 86, 0
1, 59280, Note_on_c, 0, 92, 90
1, 59400, Note_off_c, 0, 92, 0
1, 59520, Note_on_c, 0, 85, 90
1, 59640, Note_off_c, 0, 85, 0
1, 59760, Note_on_c, 0, 83, 90
1, 59880, Note_off_c, 0, 83, 0
1, 60240, Note_on_c, 0, 81, 90
1, 60360, Note_off_c, 0, 81, 0
1, 60720, Note_on_c, 0, 80, 90
1, 60840, Note_off_c, 0, 80, 0
1, 61200, Note_on_c, 0, 85, 90
1, 61320, Note_off_c, 0, 85, 0
1, 61440, Note_on_c, 0, 81, 90
1, 61560, Note_off_c, 0, 81, 0
1, 61680, Note_on_c, 0, 80, 90
1, 61800, Note_off_c, 0, 80, 0
1, 61920, Note_on_c, 0, 78, 90
1, 62040, Note_off_c, 0, 78, 0
1, 62160, Note_on_c, 0, 76, 90
1, 62280, Note_off_c, 0, 76, 0
1, 62640, Note_on_c, 0, 74, 90
1, 62760, Note_off_c, 0, 74, 0
1, 63120, Note_on_c, 0, 73, 90
1, 63240, Note_off_c, 0, 73, 0
1, 63600, Note_on_c, 0, 81, 90
1, 63720, Note_off_c, 0, 81, 0
1, 63840, Note_on_c, 0, 78, 90
1, 64320, Note_off_c, 0, 78, 0
1, 64320, Note_on_c, 0, 80, 90
1, 64440, Note_off_c, 0, 80, 0
1, 64440, Note_on_c, 0, 83, 90
1, 64560, Note_off_c, 0, 83, 0
1, 64560, Note_on_c, 0, 80, 90
1, 64680, Note_off_c, 0, 80, 0
1, 64680, Note_on_c, 0, 83, 90
1, 64800, Note_off_c, 0, 83, 0
1, 64800, Note_on_c, 0, 81, 90
1, 64920, Note_off_c, 0, 81, 0
1, 64920, Note_on_c, 0, 83, 90
1, 65040, Note_off_c, 0, 83, 0
1, 65040, Note_on_c, 0, 81, 90
1, 65160, Note_off_c, 0, 81, 0
1, 65160, Note_on_c, 0, 83, 90
1, 65280, Note_off_c, 0, 83, 0
1, 65280, Note_on_c, 0, 85, 90
1, 65400, Note_off_c, 0, 85, 0
1, 65400, Note_on_c, 0, 83, 90
1, 65520, Note_off_c, 0, 83, 0
1, 65520, Note_on_c, 0, 85, 90
1, 65640, Note_off_c, 0, 85, 0
1, 65640, Note_on_c, 0, 86, 90
1, 65760, Note_off_c, 0, 86, 0
1, 65760, Note_on_c, 0, 83, 90
1, 65880, Note_off_c, 0, 83, 0
1, 65880, Note_on_c, 0, 81, 90
1, 66000, Note_off_c, 0, 81, 0
1, 66000, Note_on_c, 0, 83, 90
1, 66120, Note_off_c, 0, 83, 0
1, 66120, Note_on_c, 0, 85, 90
1, 66240, Note_off_c, 0, 85, 0
1, 66240, Note_on_c, 0, 81, 90
1, 66360, Note_off_c, 0, 81, 0
1, 66360, Note_on_c, 0, 78, 90
1, 66480, Note_off_c, 0, 78, 0
1, 66480, Note_on_c, 0, 81, 90
1, 66600, Note_off_c, 0, 81, 0
1, 66600, Note_on_c, 0, 78, 90
1, 66720, Note_off_c, 0, 78, 0
1, 66720, Note_on_c, 0, 83, 90
1, 66840, Note_off_c, 0, 83, 0
1, 66840, Note_on_c, 0, 81, 90
1, 66960, Note_off_c, 0, 81, 0
1, 66960, Note_on_c, 0, 80, 90
1, 67080, Note_off_c, 0, 80, 0
1, 67080, Note_on_c, 0, 73, 90
1, 67200, Note_off_c, 0, 73, 0
1, 67200, Note_on_c, 0, 85, 90
1, 67320, Note_off_c, 0, 85, 0
1, 67320, Note_on_c, 0, 81, 90
1, 67440, Note_off_c, 0, 81, 0
1, 67440, Note_on_c, 0, 85, 90
1, 67560, Note_off_c, 0, 85, 0
1, 67560, Note_on_c, 0, 81, 90
1, 67680, Note_off_c, 0, 81, 0
1, 67680, Note_on_c, 0, 86, 90
1, 67800, Note_off_c, 0, 86, 0
1, 67800, Note_on_c, 0, 85, 90
1, 67920, Note_off_c, 0, 85, 0
1, 67920, Note_on_c, 0, 83, 90
1, 68040, Note_off_c, 0, 83, 0
1, 68040, Note_on_c, 0, 80, 90
1, 68160, Note_off_c, 0, 80, 0
1, 68160, Note_on_c, 0, 85, 90
1, 68280, Note_off_c, 0, 85, 0
1, 68400, Note_on_c, 0, 92, 90
1, 68520, Note_off_c, 0, 92, 0
1, 68640, Note_on_c, 0, 83, 90
1, 68760, Note_off_c, 0, 83, 0
1, 68880, Note_on_c, 0, 81, 90
1, 69000, Note_off_c, 0, 81, 0
1, 69120, Note_on_c, 0, 80, 90
1, 69600, Note_off_c, 0, 80, 0
1, 69600, Note_on_c, 0, 88, 90
1, 69840, Note_off_c, 0, 88, 0
1, 69840, Note_on_c, 0, 87, 90
1, 69960, Note_off_c, 0, 87, 0
1, 69960, Note_on_c, 0, 85, 90
1, 70080, Note_off_c, 0, 85, 0
1, 70080, Note_on_c, 0, 83, 90
1, 70200, Note_off_c, 0, 83, 0
1, 70320, Note_on_c, 0, 76, 90
1, 70440, Note_off_c, 0, 76, 0
1, 70560, Note_on_c, 0, 88, 90
1, 70800, Note_off_c, 0, 88, 0
1, 70800, Note_on_c, 0, 86, 90
1, 70920, Note_off_c, 0, 86, 0
1, 70920, Note_on_c, 0, 84, 90
1, 71040, Note_off_c, 0, 84, 0
1, 71040, Note_on_c, 0, 83, 90
1, 71160, Note_off_c, 0, 83, 0
1, 71280, Note_on_c, 0, 81, 90
1, 71400, Note_off_c, 0, 81, 0
1, 71520, Note_on_c, 0, 80, 90
1, 71640, Note_off_c, 0, 80, 0
1, 71760, Note_on_c, 0, 75, 90
1, 71880, Note_off_c, 0, 75, 0
1, 72000, Note_on_c, 0, 76, 90
1, 72120, Note_off_c, 0, 76, 0
1, 72240, Note_on_c, 0, 84, 90
1, 72360, Note_off_c, 0, 84, 0
1, 72480, Note_on_c, 0, 79, 90
1, 73080, Note_off_c, 0, 79, 0
1, 73080, Note_on_c, 0, 81, 90
1, 73200, Note_off_c, 0, 81, 0
1, 73200, Note_on_c, 0, 79, 90
1, 73320, Note_off_c, 0, 79, 0
1, 73320, Note_on_c, 0, 81, 90
1, 73440, Note_off_c, 0, 81, 0
1, 73440, Note_on_c, 0, 77, 90
1, 73560, Note_off_c, 0, 77, 0
1, 73560, Note_on_c, 0, 79, 90
1, 73680, Note_off_c, 0, 79, 0
1, 73680, Note_on_c, 0, 77, 90
1, 73800, Note_off_c, 0, 77, 0
1, 73800, Note_on_c, 0, 79, 90
1, 73920, Note_off_c, 0, 79, 0
1, 73920, Note_on_c, 0, 76, 90
1, 74040, Note_off_c, 0, 76, 0
1, 74040, Note_on_c, 0, 77, 90
1, 74160, Note_off_c, 0, 77, 0
1, 74160, Note_on_c, 0, 79, 90
1, 74280, Note_off_c, 0, 79, 0
1, 74280, Note_on_c, 0, 81, 90
1, 74400, Note_off_c, 0, 81, 0
1, 74400, Note_on_c, 0, 79, 90
1, 74520, Note_off_c, 0, 79, 0
1, 74520, Note_on_c, 0, 72, 90
1, 74640, Note_off_c, 0, 72, 0
1, 74640, Note_on_c, 0, 79, 90
1, 74760, Note_off_c, 0, 79, 0
1, 74760, Note_on_c, 0, 72, 90
1, 74880, Note_off_c, 0, 72, 0
1, 74880, Note_on_c, 0, 74, 90
1, 75000, Note_off_c, 0, 74, 0
1, 75000, Note_on_c, 0, 76, 90
1, 75120, Note_off_c, 0, 76, 0
1, 75120, Note_on_c, 0, 77, 90
1, 75240, Note_off_c, 0, 77, 0
1, 75240, Note_on_c, 0, 79, 90
1, 75360, Note_off_c, 0, 79, 0
1, 75360, Note_on_c, 0, 76, 90
1, 75480, Note_off_c, 0, 76, 0
1, 75480, Note_on_c, 0, 72, 90
1, 75600, Note_off_c, 0, 72, 0
1, 75600, Note_on_c, 0, 76, 90
1, 75720, Note_off_c, 0, 76, 0
1, 75720, Note_on_c, 0, 72, 90
1, 75840, Note_off_c, 0, 72, 0
1, 75840, Note_on_c, 0, 67, 90
1, 75960, Note_off_c, 0, 67, 0
1, 75960, Note_on_c, 0, 69, 90
1, 76080, Note_off_c, 0, 69, 0
1, 76080, Note_on_c, 0, 71, 90
1, 76200, Note_off_c, 0, 71, 0
1, 76200, Note_on_c, 0, 72, 90
1, 76320, Note_off_c, 0, 72, 0
1, 76320, Note_on_c, 0, 69, 90
1, 76440, Note_off_c, 0, 69, 0
1, 76440, Note_on_c, 0, 71, 90
1, 76560, Note_off_c, 0, 71, 0
1, 76560, Note_on_c, 0, 72, 90
1, 76680, Note_off_c, 0, 72, 0
1, 76680, Note_on_c, 0, 74, 90
1, 76800, Note_off_c, 0, 74, 0
1, 76800, Note_on_c, 0, 76, 90
1, 76920, Note_off_c, 0, 76, 0
1, 76920, Note_on_c, 0, 77, 90
1, 77040, Note_off_c, 0, 77, 0
1, 77040, Note_on_c, 0, 76, 90
1, 77160, Note_off_c, 0, 76, 0
1, 77160, Note_on_c, 0, 74, 90
1, 77280, Note_off_c, 0, 74, 0
1, 77280, Note_on_c, 0, 76, 90
1, 77400, Note_off_c, 0, 76, 0
1, 77400, Note_on_c, 0, 77, 90
1, 77520, Note_off_c, 0, 77, 0
1, 77520, Note_on_c, 0, 76, 90
1, 77640, Note_off_c, 0, 76, 0
1, 77640, Note_on_c, 0, 74, 90
1, 77760, Note_off_c, 0, 74, 0
1, 77760, Note_on_c, 0, 72, 90
1, 77880, Note_off_c, 0, 72, 0
1, 77880, Note_on_c, 0, 79, 90
1, 78000, Note_off_c, 0, 79, 0
1, 78000, Note_on_c, 0, 78, 90
1, 78120, Note_off_c, 0, 78, 0
1, 78120, Note_on_c, 0, 76, 90
1, 78240, Note_off_c, 0, 76, 0
1, 78240, Note_on_c, 0, 75, 90
1, 78360, Note_off_c, 0, 75, 0
1, 78480, Note_on_c, 0, 76, 90
1, 78600, Note_off_c, 0, 76, 0
1, 78720, Note_on_c, 0, 78, 90
1, 78840, Note_off_c, 0, 78, 0
1, 78960, Note_on_c, 0, 80, 90
1, 79080, Note_off_c, 0, 80, 0
1, 79200, Note_on_c, 0, 78, 90
1, 79320, Note_off_c, 0, 78, 0
1, 79440, Note_on_c, 0, 76, 90
1, 79560, Note_off_c, 0, 76, 0
1, 79560, Note_on_c, 0, 75, 90
1, 79680, Note_off_c, 0, 75, 0
1, 79680, Note_on_c, 0, 73, 90
1, 79800, Note_off_c, 0, 73, 0
1, 79800, Note_on_c, 0, 71, 90
1, 79920, Note_off_c, 0, 71, 0
1, 79920, Note_on_c, 0, 73, 90
1, 80040, Note_off_c, 0, 73, 0
1, 80040, Note_on_c, 0, 75, 90
1, 80160, Note_off_c, 0, 75, 0
1, 80160, Note_on_c, 0, 71, 90
1, 80280, Note_off_c, 0, 71, 0
1, 80280, Note_on_c, 0, 70, 90
1, 80400, Note_off_c, 0, 70, 0
1, 80400, Note_on_c, 0, 71, 90
1, 80520, Note_off_c, 0, 71, 0
1, 80520, Note_on_c, 0, 73, 90
1, 80640, Note_off_c, 0, 73, 0
1, 80640, Note_on_c, 0, 75, 90
1, 80760, Note_off_c, 0, 75, 0
1, 80760, Note_on_c, 0, 76, 90
1, 80880, Note_off_c, 0, 76, 0
1, 80880, Note_on_c, 0, 78, 90
1, 81000, Note_off_c, 0, 78, 0
1, 81000, Note_on_c, 0, 80, 90
1, 81120, Note_off_c, 0, 80, 0
1, 81120, Note_on_c, 0, 78, 90
1, 81240, Note_off_c, 0, 78, 0
1, 81360, Note_on_c, 0, 76, 90
1, 81480, Note_off_c, 0, 76, 0
1, 81480, Note_on_c, 0, 75, 90
1, 81600, Note_off_c, 0, 75, 0
1, 81600, Note_on_c, 0, 73, 90
1, 81720, Note_off_c, 0, 73, 0
1, 81720, Note_on_c, 0, 71, 90
1, 81840, Note_off_c, 0, 71, 0
1, 81840, Note_on_c, 0, 73, 90
1, 81960, Note_off_c, 0, 73, 0
1, 81960, Note_on_c, 0, 75, 90
1, 82080, Note_off_c, 0, 75, 0
1, 82080, Note_on_c, 0, 71, 90
1, 82200, Note_off_c, 0, 71, 0
1, 82200, Note_on_c, 0, 70, 90
1, 82320, Note_off_c, 0, 70, 0
1, 82320, Note_on_c, 0, 71, 90
1, 82440, Note_off_c, 0, 71, 0
1, 82440, Note_on_c, 0, 73, 90
1, 82560, Note_off_c, 0, 73, 0
1, 82560, Tempo, 437956
1, 82560, Note_on_c, 0, 75, 90
1, 82680, Note_off_c, 0, 75, 0
1, 82680, Note_on_c, 0, 76, 90
1, 82800, Note_off_c, 0, 76, 0
1, 82800, Note_on_c, 0, 78, 90
1, 82920, Note_off_c, 0, 78, 0
1, 82920, Note_on_c, 0, 80, 90
1, 83040, Note_off_c, 0, 80, 0
1, 83040, Note_on_c, 0, 82, 90
1, 83160, Note_off_c, 0, 82, 0
1, 83280, Note_on_c, 0, 83, 90
1, 83400, Note_off_c, 0, 83, 0
1, 83520, Tempo, 447761
1, 83520, Note_on_c, 0, 85, 90
1, 83640, Note_off_c, 0, 85, 0
1, 83760, Note_on_c, 0, 83, 90
1, 83880, Note_off_c, 0, 83, 0
1, 84000, Note_on_c, 0, 85, 90
1, 84120, Note_off_c, 0, 85, 0
1, 84240, Note_on_c, 0, 83, 90
1, 84360, Note_off_c, 0, 83, 0
1, 84480, Tempo, 454545
1, 84480, Note_on_c, 0, 82, 90
1, 84840, Note_off_c, 0, 82, 0
1, 84840, Note_on_c, 0, 80, 90
1, 84960, Note_off_c, 0, 80, 0
1, 84960, Note_on_c, 0, 82, 90
1, 85080, Note_off_c, 0, 82, 0
1, 85080, Note_on_c, 0, 83, 90
1, 85200, Note_off_c, 0, 83, 0
1, 85200, Note_on_c, 0, 80, 90
1, 85320, Note_off_c, 0, 80, 0
1, 85320, Note_on_c, 0, 82, 90
1, 85440, Note_off_c, 0, 82, 0
1, 85440, Tempo, 571428
1, 85440, Note_on_c, 0, 83, 90
1, 86160, Note_off_c, 0, 83, 0
1, 86400, Tempo, 441176
1, 86400, Note_on_c, 0, 66, 90
1, 86760, Note_off_c, 0, 66, 0
1, 86760, Note_on_c, 0, 68, 90
1, 86880, Note_off_c, 0, 68, 0
1, 86880, Note_on_c, 0, 70, 90
1, 87000, Note_off_c, 0, 70, 0
1, 87000, Note_on_c, 0, 68, 90
1, 87120, Note_off_c, 0, 68, 0
1, 87120, Note_on_c, 0, 70, 90
1, 87240, Note_off_c, 0, 70, 0
1, 87240, Note_on_c, 0, 71, 90
1, 87360, Note_off_c, 0, 71, 0
1, 87360, Note_on_c, 0, 73, 90
1, 87480, Note_off_c, 0, 73, 0
1, 87600, Note_on_c, 0, 78, 90
1, 87720, Note_off_c, 0, 78, 0
1, 87840, Note_on_c, 0, 75, 90
1, 87960, Note_off_c, 0, 75, 0
1, 88080, Note_on_c, 0, 80, 90
1, 88200, Note_off_c, 0, 80, 0
1, 88320, Note_on_c, 0, 73, 90
1, 88440, Note_off_c, 0, 73, 0
1, 88560, Note_on_c, 0, 71, 90
1, 88680, Note_off_c, 0, 71, 0
1, 89040, Note_on_c, 0, 70, 90
1, 89160, Note_off_c, 0, 70, 0
1, 89520, Note_on_c, 0, 68, 90
1, 89640, Note_off_c, 0, 68, 0
1, 90000, Note_on_c, 0, 73, 90
1, 90120, Note_off_c, 0, 73, 0
1, 90240, Note_on_c, 0, 70, 90
1, 90360, Note_off_c, 0, 70, 0
1, 90480, Note_on_c, 0, 68, 90
1, 90600, Note_off_c, 0, 68, 0
1, 90720, Note_on_c, 0, 66, 90
1, 90840, Note_off_c, 0, 66, 0
1, 90960, Note_on_c, 0, 64, 90
1, 91080, Note_off_c, 0, 64, 0
1, 91440, Note_on_c, 0, 63, 90
1, 91560, Note_off_c, 0, 63, 0
1, 91920, Note_on_c, 0, 61, 90
1, 92040, Note_off_c, 0, 61, 0
1, 92400, Note_on_c, 0, 70, 90
1, 92520, Note_off_c, 0, 70, 0
1, 92880, Note_on_c, 0, 66, 90
1, 93000, Note_off_c, 0, 66, 0
1, 93600, Note_on_c, 0, 68, 90
1, 93960, Note_off_c, 0, 68, 0
1, 93960, Note_on_c, 0, 70, 90
1, 94080, Note_off_c, 0, 70, 0
1, 94080, Note_on_c, 0, 71, 90
1, 94200, Note_off_c, 0, 71, 0
1, 94200, Note_on_c, 0, 70, 90
1, 94320, Note_off_c, 0, 70, 0
1, 94320, Note_on_c, 0, 71, 90
1, 94440, Note_off_c, 0, 71, 0
1, 94440, Note_on_c, 0, 73, 90
1, 94560, Note_off_c, 0, 73, 0
1, 94560, Note_on_c, 0, 75, 90
1, 94680, Note_off_c, 0, 75, 0
1, 94800, Note_on_c, 0, 80, 90
1, 94920, Note_off_c, 0, 80, 0
1, 95280, Note_on_c, 0, 81, 90
1, 95400, Note_off_c, 0, 81, 0
1, 95760, Note_on_c, 0, 83, 90
1, 95880, Note_off_c, 0, 83, 0
1, 100800, Note_on_c, 0, 61, 90
1, 101160, Note_off_c, 0, 61, 0
1, 101160, Note_on_c, 0, 63, 90
1, 101280, Note_off_c, 0, 63, 0
1, 101280, Note_on_c, 0, 64, 90
1, 101400, Note_off_c, 0, 64, 0
1, 101400, Note_on_c, 0, 63, 90
1, 101520, Note_off_c, 0, 63, 0
1, 101520, Note_on_c, 0, 64, 90
1, 101640, Note_off_c, 0, 64, 0
1, 101640, Note_on_c, 0, 66, 90
1, 101760, Note_off_c, 0, 66, 0
1, 101760, Note_on_c, 0, 68, 90
1, 101880, Note_off_c, 0, 68, 0
1, 102000, Note_on_c, 0, 73, 90
1, 102120, Note_off_c, 0, 73, 0
1, 102240, Note_on_c, 0, 69, 90
1, 102360, Note_off_c, 0, 69, 0
1, 102480, Note_on_c, 0, 75, 90
1, 102600, Note_off_c, 0, 75, 0
1, 102720, Note_on_c, 0, 68, 90
1, 102840, Note_off_c, 0, 68, 0
1, 102960, Note_on_c, 0, 66, 90
1, 103080, Note_off_c, 0, 66, 0
1, 103440, Note_on_c, 0, 64, 90
1, 103560, Note_off_c, 0, 64, 0
1, 103920, Note_on_c, 0, 63, 90
1, 104040, Note_off_c, 0, 63, 0
1, 104400, Note_on_c, 0, 68, 90
1, 104520, Note_off_c, 0, 68, 0
1, 104640, Note_on_c, 0, 64, 90
1, 104760, Note_off_c, 0, 64, 0
1, 104880, Note_on_c, 0, 63, 90
1, 105000, Note_off_c, 0, 63, 0
1, 105120, Note_on_c, 0, 61, 90
1, 105240, Note_off_c, 0, 61, 0
1, 105360, Note_on_c, 0, 59, 90
1, 105480, Note_off_c, 0, 59, 0
1, 105840, Note_on_c, 0, 68, 90
1, 105960, Note_off_c, 0, 68, 0
1, 106080, Note_on_c, 0, 64, 90
1, 106560, Note_off_c, 0, 64, 0
1, 106560, Note_on_c, 0, 59, 90
1, 106920, Note_off_c, 0, 59, 0
1, 106920, Note_on_c, 0, 61, 90
1, 107040, Note_off_c, 0, 61, 0
1, 107040, Note_on_c, 0, 63, 90
1, 107160, Note_off_c, 0, 63, 0
1, 107160, Note_on_c, 0, 61, 90
1, 107280, Note_off_c, 0, 61, 0
1, 107280, Note_on_c, 0, 63, 90
1, 107400, Note_off_c, 0, 63, 0
1, 107400, Note_on_c, 0, 64, 90
1, 107520, Note_off_c, 0, 64, 0
1, 107520, Note_on_c, 0, 66, 90
1, 107640, Note_off_c, 0, 66, 0
1, 107760, Note_on_c, 0, 71, 90
1, 107880, Note_off_c, 0, 71, 0
1, 108000, Note_on_c, 0, 68, 90
1, 108120, Note_off_c, 0, 68, 0
1, 108240, Note_on_c, 0, 73, 90
1, 108360, Note_off_c, 0, 73, 0
1, 108480, Note_on_c, 0, 66, 90
1, 108600, Note_off_c, 0, 66, 0
1, 108720, Note_on_c, 0, 64, 90
1, 108840, Note_off_c, 0, 64, 0
1, 109200, Note_on_c, 0, 63, 90
1, 109320, Note_off_c, 0, 63, 0
1, 109680, Note_on_c, 0, 61, 90
1, 109800, Note_off_c, 0, 61, 0
1, 110160, Note_on_c, 0, 66, 90
1, 110280, Note_off_c, 0, 66, 0
1, 110400, Tempo, 454545
1, 110400, Note_on_c, 0, 66, 90
1, 110520, Note_off_c, 0, 66, 0
1, 110640, Note_on_c, 0, 68, 90
1, 110760, Note_off_c, 0, 68, 0
1, 110880, Note_on_c, 0, 61, 90
1, 111000, Note_off_c, 0, 61, 0
1, 111120, Note_on_c, 0, 66, 90
1, 111240, Note_off_c, 0, 66, 0
1, 111360, Tempo, 451127
1, 111600, Note_on_c, 0, 71, 90
1, 111960, Note_off_c, 0, 71, 0
1, 111960, Note_on_c, 0, 73, 90
1, 112080, Note_off_c, 0, 73, 0
1, 112080, Note_on_c, 0, 75, 90
1, 112200, Note_off_c, 0, 75, 0
1, 112200, Note_on_c, 0, 76, 90
1, 112320, Note_off_c, 0, 76, 0
1, 112320, Note_on_c, 0, 78, 90
1, 112440, Note_off_c, 0, 78, 0
1, 112440, Note_on_c, 0, 80, 90
1, 112560, Note_off_c, 0, 80, 0
1, 112560, Note_on_c, 0, 78, 90
1, 112800, Note_off_c, 0, 78, 0
1, 112800, Note_on_c, 0, 83, 90
1, 112920, Note_off_c, 0, 83, 0
1, 113040, Note_on_c, 0, 80, 90
1, 113160, Note_off_c, 0, 80, 0
1, 113280, Note_on_c, 0, 85, 90
1, 113400, Note_off_c, 0, 85, 0
1, 114240, Note_on_c, 0, 64, 90
1, 114600, Note_off_c, 0, 64, 0
1, 114600, Note_on_c, 0, 66, 90
1, 114720, Note_off_c, 0, 66, 0
1, 114720, Note_on_c, 0, 68, 90
1, 114840, Note_off_c, 0, 68, 0
1, 114840, Note_on_c, 0, 69, 90
1, 114960, Note_off_c, 0, 69, 0
1, 114960, Note_on_c, 0, 71, 90
1, 115080, Note_off_c, 0, 71, 0
1, 115080, Note_on_c, 0, 73, 90
1, 115200, Note_off_c, 0, 73, 0
1, 115200, Note_on_c, 0, 71, 90
1, 115320, Note_off_c, 0, 71, 0
1, 115440, Note_on_c, 0, 76, 90
1, 115560, Note_off_c, 0, 76, 0
1, 115680, Note_on_c, 0, 73, 90
1, 115800, Note_off_c, 0, 73, 0
1, 115920, Note_on_c, 0, 78, 90
1, 116040, Note_off_c, 0, 78, 0
1, 116160, Note_on_c, 0, 76, 90
1, 116280, Note_off_c, 0, 76, 0
1, 116400, Note_on_c, 0, 72, 90
1, 116520, Note_off_c, 0, 72, 0
1, 116880, Note_on_c, 0, 71, 90
1, 117000, Note_off_c, 0, 71, 0
1, 117120, Tempo, 444444
1, 117360, Note_on_c, 0, 70, 90
1, 117480, Note_off_c, 0, 70, 0
1, 117840, Note_on_c, 0, 69, 90
1, 117960, Note_off_c, 0, 69, 0
1, 118080, Tempo, 447761
1, 118320, Note_on_c, 0, 68, 90
1, 118440, Note_off_c, 0, 68, 0
1, 118800, Note_on_c, 0, 75, 90
1, 118920, Note_off_c, 0, 75, 0
1, 119280, Note_on_c, 0, 71, 90
1, 119400, Note_off_c, 0, 71, 0
1, 119760, Note_on_c, 0, 76, 90
1, 119880, Note_off_c, 0, 76, 0
1, 120000, Tempo, 451127
1, 120240, Note_on_c, 0, 77, 90
1, 120360, Note_off_c, 0, 77, 0
1, 120480, Note_on_c, 0, 74, 90
1, 120600, Note_off_c, 0, 74, 0
1, 120720, Note_on_c, 0, 79, 90
1, 120840, Note_off_c, 0, 79, 0
1, 120960, Tempo, 461538
1, 120960, Note_on_c, 0, 75, 90
1, 121080, Note_off_c, 0, 75, 0
1, 121200, Note_on_c, 0, 80, 90
1, 121320, Note_off_c, 0, 80, 0
1, 121440, Note_on_c, 0, 66, 90
1, 121560, Note_off_c, 0, 66, 0
1, 121680, Note_on_c, 0, 78, 90
1, 121800, Note_off_c, 0, 78, 0
1, 121920, Tempo, 576923
1, 122400, Note_on_c, 0, 78, 90
1, 122880, Note_off_c, 0, 78, 0
1, 122880, Tempo, 441176
1, 122880, Note_on_c, 0, 73, 90
1, 123360, Note_off_c, 0, 73, 0
1, 123360, Note_on_c, 0, 76, 90
1, 123840, Note_off_c, 0, 76, 0
1, 123840, Tempo, 447761
1, 123840, Note_on_c, 0, 70, 90
1, 124320, Note_off_c, 0, 70, 0
1, 124320, Note_on_c, 0, 71, 90
1, 124800, Note_off_c, 0, 71, 0
1, 124800, Note_on_c, 0, 70, 90
1, 125280, Note_off_c, 0, 70, 0
1, 125280, Note_on_c, 0, 68, 90
1, 125760, Note_off_c, 0, 68, 0
1, 125760, Tempo, 451127
1, 126000, Note_on_c, 0, 67, 90
1, 126480, Note_off_c, 0, 67, 0
1, 126480, Note_on_c, 0, 69, 90
1, 126720, Note_off_c, 0, 69, 0
1, 126720, Tempo, 472440
1, 126720, Note_on_c, 0, 71, 90
1, 126960, Note_off_c, 0, 71, 0
1, 126960, Note_on_c, 0, 72, 90
1, 127200, Note_off_c, 0, 72, 0
1, 127200, Note_on_c, 0, 74, 90
1, 127440, Note_off_c, 0, 74, 0
1, 127440, Note_on_c, 0, 76, 90
1, 127680, Note_off_c, 0, 76, 0
1, 127680, Note_on_c, 0, 74, 90
1, 128160, Note_off_c, 0, 74, 0
1, 128160, Note_on_c, 0, 79, 90
1, 128640, Note_off_c, 0, 79, 0
1, 128640, Tempo, 476190
1, 128640, Note_on_c, 0, 76, 90
1, 129120, Note_off_c, 0, 76, 0
1, 129120, Note_on_c, 0, 81, 90
1, 129600, Note_off_c, 0, 81, 0
1, 129600, Tempo, 480000
1, 129600, Note_on_c, 0, 68, 90
1, 130320, Note_off_c, 0, 68, 0
1, 130320, Note_on_c, 0, 70, 90
1, 130560, Note_off_c, 0, 70, 0
1, 130560, Tempo, 483870
1, 130560, Note_on_c, 0, 71, 90
1, 130800, Note_off_c, 0, 71, 0
1, 130800, Note_on_c, 0, 73, 90
1, 131040, Note_off_c, 0, 73, 0
1, 131040, Note_on_c, 0, 75, 90
1, 131280, Note_off_c, 0, 75, 0
1, 131280, Note_on_c, 0, 76, 90
1, 131520, Note_off_c, 0, 76, 0
1, 131520, Tempo, 895522
1, 131520, Note_on_c, 0, 75, 90
1, 132480, Note_off_c, 0, 75, 0
1, 133440, Tempo, 434782
1, 133440, Key_signature, 0, "major"
1, 133440, End_track
0, 0, End_of_file