0, 0, Header, 1, 1, 480
1, 0, Start_track
1, 0, Sequence_number, 0
1, 0, Title_t, "c3"
1, 0, Channel_prefix, 0
1, 0, Instrument_name_t, "3"
1, 0, Program_c, 0, 0
1, 0, Tempo, 434782
1, 0, Time_signature, 2, 2, 24, 24
1, 0, Key_signature, 5, "major"
1, 1920, Tempo, 444444
1, 2880, Tempo, 454545
1, 3840, Tempo, 444444
1, 4800, Tempo, 437956
1, 5760, Tempo, 447761
1, 6720, Tempo, 461538
1, 7680, Tempo, 434782
1, 19200, Note_on_c, 0, 47, 90
1, 19560, Note_off_c, 0, 47, 0
1, 19560, Note_on_c, 0, 49, 90
1, 19680, Note_off_c, 0, 49, 0
1, 19680, Note_on_c, 0, 51, 90
1, 19800, Note_off_c, 0, 51, 0
1, 19800, Note_on_c, 0, 49, 90
1, 19920, Note_off_c, 0, 49, 0
1, 19920, Note_on_c, 0, 51, 90
1, 20040, Note_off_c, 0, 51, 0
1, 20040, Note_on_c, 0, 52, 90
1, 20160, Note_off_c, 0, 52, 0
1, 20160, Note_on_c, 0, 54, 90
1, 20280, Note_off_c, 0, 54, 0
1, 20400, Note_on_c, 0, 59, 90
1, 20520, Note_off_c, 0, 59, 0
1, 20640, Note_on_c, 0, 56, 90
1, 20760, Note_off_c, 0, 56, 0
1, 20880, Note_on_c, 0, 61, 90
1, 21000, Note_off_c, 0, 61, 0
1, 21120, Note_on_c, 0, 54, 90
1, 21240, Note_off_c, 0, 54, 0
1, 21360, Note_on_c, 0, 52, 90
1, 21480, Note_off_c, 0, 52, 0
1, 21840, Note_on_c, 0, 51, 90
1, 21960, Note_off_c, 0, 51, 0
1, 22320, Note_on_c, 0, 49, 90
1, 22440, Note_off_c, 0, 49, 0
1, 22800, Note_on_c, 0, 54, 90
1, 22920, Note_off_c, 0, 54, 0
1, 23040, Note_on_c, 0, 51, 90
1, 23160, Note_off_c, 0, 51, 0
1, 23280, Note_on_c, 0, 49, 90
1, 23400, Note_off_c, 0, 49, 0
1, 23520, Note_on_c, 0, 47, 90
1, 23640, Note_off_c, 0, 47, 0
1, 23760, Note_on_c, 0, 46, 90
1, 23880, Note_off_c, 0, 46, 0
1, 24240, Note_on_c, 0, 44, 90
1, 24360, Note_off_c, 0, 44, 0
1, 24720, Note_on_c, 0, 42, 90
1, 24840, Note_off_c, 0, 42, 0
1, 25200, Note_on_c, 0, 51, 90
1, 25320, Note_off_c, 0, 51, 0
1, 25440, Note_on_c, 0, 47, 90
1, 25680, Note_off_c, 0, 47, 0
1, 25680, Note_on_c, 0, 46, 90
1, 25800, Note_off_c, 0, 46, 0
1, 25800, Note_on_c, 0, 44, 90
1, 25920, Note_off_c, 0, 44, 0
1, 25920, Note_on_c, 0, 42, 90
1, 26040, Note_off_c, 0, 42, 0
1, 26160, Note_on_c, 0, 54, 90
1, 26280, Note_off_c, 0, 54, 0
1, 26400, Note_on_c, 0, 52, 90
1, 26640, Note_off_c, 0, 52, 0
1, 26640, Note_on_c, 0, 51, 90
1, 26760, Note_off_c, 0, 51, 0
1, 26760, Note_on_c, 0, 49, 90
1, 26880, Note_off_c, 0, 49, 0
1, 26880, Note_on_c, 0, 47, 90
1, 27000, Note_off_c, 0, 47, 0
1, 27120, Note_on_c, 0, 46, 90
1, 27240, Note_off_c, 0, 46, 0
1, 27600, Note_on_c, 0, 51, 90
1, 27720, Note_off_c, 0, 51, 0
1, 27840, Note_on_c, 0, 56, 90
1, 28320, Note_off_c, 0, 56, 0
1, 28320, Note_on_c, 0, 56, 90
1, 28800, Note_off_c, 0, 56, 0
1, 28800, Note_on_c, 0, 56, 90
1, 29520, Note_off_c, 0, 56, 0
1, 29520, Note_on_c, 0, 58, 90
1, 29640, Note_off_c, 0, 58, 0
1, 29640, Note_on_c, 0, 56, 90
1, 29760, Note_off_c, 0, 56, 0
1, 29760, Note_on_c, 0, 54, 90
1, 29880, Note_off_c, 0, 54, 0
1, 29880, Note_on_c, 0, 56, 90
1, 30000, Note_off_c, 0, 56, 0
1, 30000, Note_on_c, 0, 54, 90
1, 30120, Note_off_c, 0, 54, 0
1, 30120, Note_on_c, 0, 56, 90
1, 30240, Note_off_c, 0, 56, 0
1, 30240, Note_on_c, 0, 52, 90
1, 30360, Note_off_c, 0, 52, 0
1, 30360, Note_on_c, 0, 58, 90
1, 30480, Note_off_c, 0, 58, 0
1, 30480, Note_on_c, 0, 52, 90
1, 30600, Note_off_c, 0, 52, 0
1, 30600, Note_on_c, 0, 58, 90
1, 30720, Note_off_c, 0, 58, 0
1, 30720, Note_on_c, 0, 51, 90
1, 30840, Note_off_c, 0, 51, 0
1, 30840, Note_on_c, 0, 52, 90
1, 30960, Note_off_c, 0, 52, 0
1, 30960, Note_on_c, 0, 51, 90
1, 31080, Note_off_c, 0, 51, 0
1, 31080, Note_on_c, 0, 52, 90
1, 31200, Note_off_c, 0, 52, 0
1, 31200, Note_on_c, 0, 49, 90
1, 31320, Note_off_c, 0, 49, 0
1, 31320, Note_on_c, 0, 47, 90
1, 31440, Note_off_c, 0, 47, 0
1, 31440, Note_on_c, 0, 46, 90
1, 31560, Note_off_c, 0, 46, 0
1, 31560, Note_on_c, 0, 47, 90
1, 31680, Note_off_c, 0, 47, 0
1, 31680, Note_on_c, 0, 49, 90
1, 31800, Note_off_c, 0, 49, 0
1, 31920, Note_on_c, 0, 61, 90
1, 32040, Note_off_c, 0, 61, 0
1, 32160, Note_on_c, 0, 56, 90
1, 32280, Note_off_c, 0, 56, 0
1, 32400, Note_on_c, 0, 68, 90
1, 32520, Note_off_c, 0, 68, 0
1, 32640, Note_on_c, 0, 63, 90
1, 32760, Note_off_c, 0, 63, 0
1, 32760, Note_on_c, 0, 64, 90
1, 32880, Note_off_c, 0, 64, 0
1, 32880, Note_on_c, 0, 63, 90
1, 33000, Note_off_c, 0, 63, 0
1, 33000, Note_on_c, 0, 64, 90
1, 33120, Note_off_c, 0, 64, 0
1, 33120, Note_on_c, 0, 61, 90
1, 33240, Note_off_c, 0, 61, 0
1, 33240, Note_on_c, 0, 63, 90
1, 33360, Note_off_c, 0, 63, 0
1, 33360, Note_on_c, 0, 61, 90
1, 33480, Note_off_c, 0, 61, 0
1, 33480, Note_on_c, 0, 63, 90
1, 33600, Note_off_c, 0, 63, 0
1, 33600, Note_on_c, 0, 59, 90
1, 33720, Note_off_c, 0, 59, 0
1, 33720, Note_on_c, 0, 61, 90
1, 33840, Note_off_c, 0, 61, 0
1, 33840, Note_on_c, 0, 63, 90
1, 33960, Note_off_c, 0, 63, 0
1, 33960, Note_on_c, 0, 64, 90
1, 34080, Note_off_c, 0, 64, 0
1, 34080, Note_on_c, 0, 63, 90
1, 34200, Note_off_c, 0, 63, 0
1, 34200, Note_on_c, 0, 56, 90
1, 34320, Note_off_c, 0, 56, 0
1, 34320, Note_on_c, 0, 63, 90
1, 34440, Note_off_c, 0, 63, 0
1, 34440, Note_on_c, 0, 56, 90
1, 34560, Note_off_c, 0, 56, 0
1, 34560, Note_on_c, 0, 58, 90
1, 34680, Note_off_c, 0, 58, 0
1, 34680, Note_on_c, 0, 59, 90
1, 34800, Note_off_c, 0, 59, 0
1, 34800, Note_on_c, 0, 61, 90
1, 34920, Note_off_c, 0, 61, 0
1, 34920, Note_on_c, 0, 63, 90
1, 35040, Note_off_c, 0, 63, 0
1, 35040, Note_on_c, 0, 59, 90
1, 35160, Note_off_c, 0, 59, 0
1, 35160, Note_on_c, 0, 56, 90
1, 35280, Note_off_c, 0, 56, 0
1, 35280, Note_on_c, 0, 59, 90
1, 35400, Note_off_c, 0, 59, 0
1, 35400, Note_on_c, 0, 56, 90
1, 35520, Note_off_c, 0, 56, 0
1, 35520, Note_on_c, 0, 51, 90
1, 35640, Note_off_c, 0, 51, 0
1, 35640, Note_on_c, 0, 52, 90
1, 35760, Note_off_c, 0, 52, 0
1, 35760, Note_on_c, 0, 54, 90
1, 35880, Note_off_c, 0, 54, 0
1, 35880, Note_on_c, 0, 56, 90
1, 36000, Note_off_c, 0, 56, 0
1, 36000, Note_on_c, 0, 52, 90
1, 36120, Note_off_c, 0, 52, 0
1, 36120, Note_on_c, 0, 54, 90
1, 36240, Note_off_c, 0, 54, 0
1, 36240, Note_on_c, 0, 56, 90
1, 36360, Note_off_c, 0, 56, 0
1, 36360, Note_on_c, 0, 58, 90
1, 36480, Note_off_c, 0, 58, 0
1, 36480, Note_on_c, 0, 59, 90
1, 36600, Note_off_c, 0, 59, 0
1, 36600, Note_on_c, 0, 61, 90
1, 36720, Note_off_c, 0, 61, 0
1, 36720, Note_on_c, 0, 59, 90
1, 36840, Note_off_c, 0, 59, 0
1, 36840, Note_on_c, 0, 58, 90
1, 36960, Note_off_c, 0, 58, 0
1, 36960, Note_on_c, 0, 59, 90
1, 37080, Note_off_c, 0, 59, 0
1, 37080, Note_on_c, 0, 61, 90
1, 37200, Note_off_c, 0, 61, 0
1, 37200, Note_on_c, 0, 59, 90
1, 37320, Note_off_c, 0, 59, 0
1, 37320, Note_on_c, 0, 58, 90
1, 37440, Note_off_c, 0, 58, 0
1, 37440, Note_on_c, 0, 56, 90
1, 37560, Note_off_c, 0, 56, 0
1, 37560, Note_on_c, 0, 63, 90
1, 37680, Note_off_c, 0, 63, 0
1, 37680, Note_on_c, 0, 56, 90
1, 37800, Note_off_c, 0, 56, 0
1, 37800, Note_on_c, 0, 63, 90
1, 37920, Note_off_c, 0, 63, 0
1, 37920, Note_on_c, 0, 64, 90
1, 38040, Note_off_c, 0, 64, 0
1, 38040, Note_on_c, 0, 63, 90
1, 38160, Note_off_c, 0, 63, 0
1, 38160, Note_on_c, 0, 64, 90
1, 38280, Note_off_c, 0, 64, 0
1, 38280, Note_on_c, 0, 63, 90
1, 38400, Note_off_c, 0, 63, 0
1, 38400, Note_on_c, 0, 51, 90
1, 38760, Note_off_c, 0, 51, 0
1, 38760, Note_on_c, 0, 53, 90
1, 38880, Note_off_c, 0, 53, 0
1, 38880, Note_on_c, 0, 54, 90
1, 39000, Note_off_c, 0, 54, 0
1, 39000, Note_on_c, 0, 53, 90
1, 39120, Note_off_c, 0, 53, 0
1, 39120, Note_on_c, 0, 54, 90
1, 39240, Note_off_c, 0, 54, 0
1, 39240, Note_on_c, 0, 56, 90
1, 39360, Note_off_c, 0, 56, 0
1, 39360, Note_on_c, 0, 58, 90
1, 39480, Note_off_c, 0, 58, 0
1, 39600, Note_on_c, 0, 63, 90
1, 39720, Note_off_c, 0, 63, 0
1, 39840, Note_on_c, 0, 59, 90
1, 39960, Note_off_c, 0, 59, 0
1, 40080, Note_on_c, 0, 65, 90
1, 40200, Note_off_c, 0, 65, 0
1, 40320, Note_on_c, 0, 58, 90
1, 40440, Note_off_c, 0, 58, 0
1, 40560, Note_on_c, 0, 56, 90
1, 40680, Note_off_c, 0, 56, 0
1, 41040, Note_on_c, 0, 54, 90
1, 41160, Note_off_c, 0, 54, 0
1, 41520, Note_on_c, 0, 53, 90
1, 41640, Note_off_c, 0, 53, 0
1, 42000, Note_on_c, 0, 58, 90
1, 42120, Note_off_c, 0, 58, 0
1, 42240, Note_on_c, 0, 54, 90
1, 42360, Note_off_c, 0, 54, 0
1, 42480, Note_on_c, 0, 53, 90
1, 42600, Note_off_c, 0, 53, 0
1, 42720, Note_on_c, 0, 51, 90
1, 42840, Note_off_c, 0, 51, 0
1, 42960, Note_on_c, 0, 49, 90
1, 43080, Note_off_c, 0, 49, 0
1, 43440, Note_on_c, 0, 47, 90
1, 43560, Note_off_c, 0, 47, 0
1, 43920, Note_on_c, 0, 46, 90
1, 44040, Note_off_c, 0, 46, 0
1, 44400, Note_on_c, 0, 54, 90
1, 44520, Note_off_c, 0, 54, 0
1, 44640, Note_on_c, 0, 51, 90
1, 45120, Note_off_c, 0, 51, 0
1, 45120, Note_on_c, 0, 56, 90
1, 45240, Note_off_c, 0, 56, 0
1, 45360, Note_on_c, 0, 61, 90
1, 45480, Note_off_c, 0, 61, 0
1, 45600, Note_on_c, 0, 59, 90
1, 45840, Note_off_c, 0, 59, 0
1, 45840, Note_on_c, 0, 58, 90
1, 45960, Note_off_c, 0, 58, 0
1, 45960, Note_on_c, 0, 56, 90
1, 46080, Note_off_c, 0, 56, 0
1, 46080, Note_on_c, 0, 54, 90
1, 46200, Note_off_c, 0, 54, 0
1, 46320, Note_on_c, 0, 53, 90
1, 46440, Note_off_c, 0, 53, 0
1, 46800, Note_on_c, 0, 58, 90
1, 46920, Note_off_c, 0, 58, 0
1, 47040, Note_on_c, 0, 63, 90
1, 47520, Note_off_c, 0, 63, 0
1, 47520, Note_on_c, 0, 63, 90
1, 48000, Note_off_c, 0, 63, 0
1, 48000, Note_on_c, 0, 63, 90
1, 48720, Note_off_c, 0, 63, 0
1, 48720, Note_on_c, 0, 65, 90
1, 48840, Note_off_c, 0, 65, 0
1, 48840, Note_on_c, 0, 63, 90
1, 48960, Note_off_c, 0, 63, 0
1, 48960, Note_on_c, 0, 61, 90
1, 49080, Note_off_c, 0, 61, 0
1, 49080, Note_on_c, 0, 63, 90
1, 49200, Note_off_c, 0, 63, 0
1, 49200, Note_on_c, 0, 61, 90
1, 49320, Note_off_c, 0, 61, 0
1, 49320, Note_on_c, 0, 63, 90
1, 49440, Note_off_c, 0, 63, 0
1, 49440, Note_on_c, 0, 59, 90
1, 49560, Note_off_c, 0, 59, 0
1, 49560, Note_on_c, 0, 64, 90
1, 49680, Note_off_c, 0, 64, 0
1, 49680, Note_on_c, 0, 59, 90
1, 49800, Note_off_c, 0, 59, 0
1, 49800, Note_on_c, 0, 64, 90
1, 49920, Note_off_c, 0, 64, 0
1, 49920, Note_on_c, 0, 59, 90
1, 50040, Note_off_c, 0, 59, 0
1, 50040, Note_on_c, 0, 58, 90
1, 50160, Note_off_c, 0, 58, 0
1, 50160, Note_on_c, 0, 59, 90
1, 50280, Note_off_c, 0, 59, 0
1, 50280, Note_on_c, 0, 57, 90
1, 50400, Note_off_c, 0, 57, 0
1, 50400, Note_on_c, 0, 56, 90
1, 50520, Note_off_c, 0, 56, 0
1, 50520, Note_on_c, 0, 54, 90
1, 50640, Note_off_c, 0, 54, 0
1, 50640, Note_on_c, 0, 52, 90
1, 50760, Note_off_c, 0, 52, 0
1, 50760, Note_on_c, 0, 51, 90
1, 50880, Note_off_c, 0, 51, 0
1, 50880, Note_on_c, 0, 49, 90
1, 51000, Note_off_c, 0, 49, 0
1, 51000, Note_on_c, 0, 51, 90
1, 51120, Note_off_c, 0, 51, 0
1, 51120, Note_on_c, 0, 52, 90
1, 51240, Note_off_c, 0, 52, 0
1, 51240, Note_on_c, 0, 54, 90
1, 51360, Note_off_c, 0, 54, 0
1, 51360, Note_on_c, 0, 56, 90
1, 51480, Note_off_c, 0, 56, 0
1, 51600, Note_on_c, 0, 57, 90
1, 51720, Note_off_c, 0, 57, 0
1, 51840, Note_on_c, 0, 64, 90
1, 52560, Note_off_c, 0, 64, 0
1, 52560, Note_on_c, 0, 63, 90
1, 52740, Note_off_c, 0, 63, 0
1, 52800, Note_on_c, 0, 61, 90
1, 53520, Note_off_c, 0, 61, 0
1, 53520, Note_on_c, 0, 59, 90
1, 53700, Note_off_c, 0, 59, 0
1, 53760, Note_on_c, 0, 57, 90
1, 53880, Note_off_c, 0, 57, 0
1, 54000, Note_on_c, 0, 59, 90
1, 54120, Note_off_c, 0, 59, 0
1, 54240, Note_on_c, 0, 57, 90
1, 54360, Note_off_c, 0, 57, 0
1, 54480, Note_on_c, 0, 59, 90
1, 54600, Note_off_c, 0, 59, 0
1, 54720, Note_on_c, 0, 56, 90
1, 55200, Note_off_c, 0, 56, 0
1, 55200, Note_on_c, 0, 52, 90
1, 55320, Note_off_c, 0, 52, 0
1, 55440, Note_on_c, 0, 54, 90
1, 55560, Note_off_c, 0, 54, 0
1, 55680, Note_on_c, 0, 56, 90
1, 56160, Note_off_c, 0, 56, 0
1, 56160, Note_on_c, 0, 45, 90
1, 56280, Note_off_c, 0, 45, 0
1, 56400, Note_on_c, 0, 47, 90
1, 56520, Note_off_c, 0, 47, 0
1, 56640, Note_on_c, 0, 49, 90
1, 57120, Note_off_c, 0, 49, 0
1, 57120, Note_on_c, 0, 51, 90
1, 57240, Note_off_c, 0, 51, 0
1, 57360, Note_on_c, 0, 52, 90
1, 57480, Note_off_c, 0, 52, 0
1, 57600, Note_on_c, 0, 54, 90
1, 58080, Note_off_c, 0, 54, 0
1, 72000, Note_on_c, 0, 48, 90
1, 72360, Note_off_c, 0, 48, 0
1, 72360, Note_on_c, 0, 50, 90
1, 72480, Note_off_c, 0, 50, 0
1, 72480, Note_on_c, 0, 52, 90
1, 72600, Note_off_c, 0, 52, 0
1, 72600, Note_on_c, 0, 50, 90
1, 72720, Note_off_c, 0, 50, 0
1, 72720, Note_on_c, 0, 52, 90
1, 72840, Note_off_c, 0, 52, 0
1, 72840, Note_on_c, 0, 53, 90
1, 72960, Note_off_c, 0, 53, 0
1, 72960, Note_on_c, 0, 55, 90
1, 73080, Note_off_c, 0, 55, 0
1, 73200, Note_on_c, 0, 60, 90
1, 73320, Note_off_c, 0, 60, 0
1, 73440, Note_on_c, 0, 57, 90
1, 73560, Note_off_c, 0, 57, 0
1, 73680, Note_on_c, 0, 62, 90
1, 73800, Note_off_c, 0, 62, 0
1, 73920, Note_on_c, 0, 55, 90
1, 74040, Note_off_c, 0, 55, 0
1, 74160, Note_on_c, 0, 53, 90
1, 74280, Note_off_c, 0, 53, 0
1, 74640, Note_on_c, 0, 52, 90
1, 74760, Note_off_c, 0, 52, 0
1, 75120, Note_on_c, 0, 50, 90
1, 75240, Note_off_c, 0, 50, 0
1, 75600, Note_on_c, 0, 55, 90
1, 75720, Note_off_c, 0, 55, 0
1, 75840, Note_on_c, 0, 52, 90
1, 75960, Note_off_c, 0, 52, 0
1, 76080, Note_on_c, 0, 50, 90
1, 76200, Note_off_c, 0, 50, 0
1, 76320, Note_on_c, 0, 48, 90
1, 76440, Note_off_c, 0, 48, 0
1, 76560, Note_on_c, 0, 47, 90
1, 76680, Note_off_c, 0, 47, 0
1, 77040, Note_on_c, 0, 45, 90
1, 77160, Note_off_c, 0, 45, 0
1, 77520, Note_on_c, 0, 43, 90
1, 77640, Note_off_c, 0, 43, 0
1, 78000, Note_on_c, 0, 52, 90
1, 78120, Note_off_c, 0, 52, 0
1, 78240, Note_on_c, 0, 48, 90
1, 78360, Note_off_c, 0, 48, 0
1, 78360, Note_on_c, 0, 47, 90
1, 78480, Note_off_c, 0, 47, 0
1, 78480, Note_on_c, 0, 45, 90
1, 78600, Note_off_c, 0, 45, 0
1, 78600, Note_on_c, 0, 43, 90
1, 78720, Note_off_c, 0, 43, 0
1, 78720, Note_on_c, 0, 42, 90
1, 79080, Note_off_c, 0, 42, 0
1, 79080, Note_on_c, 0, 40, 90
1, 79200, Note_off_c, 0, 40, 0
1, 79200, Note_on_c, 0, 39, 90
1, 79320, Note_off_c, 0, 39, 0
1, 79320, Note_on_c, 0, 40, 90
1, 79440, Note_off_c, 0, 40, 0
1, 79440, Note_on_c, 0, 42, 90
1, 79560, Note_off_c, 0, 42, 0
1, 79560, Note_on_c, 0, 44, 90
1, 79680, Note_off_c, 0, 44, 0
1, 79680, Note_on_c, 0, 42, 90
1, 79800, Note_off_c, 0, 42, 0
1, 79920, Note_on_c, 0, 47, 90
1, 80040, Note_off_c, 0, 47, 0
1, 80160, Note_on_c, 0, 44, 90
1, 80280, Note_off_c, 0, 44, 0
1, 80400, Note_on_c, 0, 49, 90
1, 80520, Note_off_c, 0, 49, 0
1, 80640, Note_on_c, 0, 42, 90
1, 81000, Note_off_c, 0, 42, 0
1, 81000, Note_on_c, 0, 40, 90
1, 81120, Note_off_c, 0, 40, 0
1, 81120, Note_on_c, 0, 39, 90
1, 81240, Note_off_c, 0, 39, 0
1, 81240, Note_on_c, 0, 40, 90
1, 81360, Note_off_c, 0, 40, 0
1, 81360, Note_on_c, 0, 42, 90
1, 81480, Note_off_c, 0, 42, 0
1, 81480, Note_on_c, 0, 44, 90
1, 81600, Note_off_c, 0, 44, 0
1, 81600, Note_on_c, 0, 42, 90
1, 81720, Note_off_c, 0, 42, 0
1, 81840, Note_on_c, 0, 47, 90
1, 81960, Note_off_c, 0, 47, 0
1, 82080, Note_on_c, 0, 44, 90
1, 82200, Note_off_c, 0, 44, 0
1, 82320, Note_on_c, 0, 49, 90
1, 82440, Note_off_c, 0, 49, 0
1, 82560, Tempo, 437956
1, 82560, Note_on_c, 0, 42, 90
1, 82920, Note_off_c, 0, 42, 0
1, 82920, Note_on_c, 0, 40, 90
1, 83040, Note_off_c, 0, 40, 0
1, 83040, Note_on_c, 0, 39, 90
1, 83160, Note_off_c, 0, 39, 0
1, 83160, Note_on_c, 0, 40, 90
1, 83280, Note_off_c, 0, 40, 0
1, 83280, Note_on_c, 0, 42, 90
1, 83400, Note_off_c, 0, 42, 0
1, 83400, Note_on_c, 0, 44, 90
1, 83520, Note_off_c, 0, 44, 0
1, 83520, Tempo, 447761
1, 83520, Note_on_c, 0, 42, 90
1, 83640, Note_off_c, 0, 42, 0
1, 83760, Note_on_c, 0, 47, 90
1, 83880, Note_off_c, 0, 47, 0
1, 84000, Note_on_c, 0, 44, 90
1, 84120, Note_off_c, 0, 44, 0
1, 84240, Note_on_c, 0, 49, 90
1, 84360, Note_off_c, 0, 49, 0
1, 84480, Tempo, 454545
1, 84480, Note_on_c, 0, 51, 90
1, 84960, Note_off_c, 0, 51, 0
1, 84960, Note_on_c, 0, 54, 90
1, 85440, Note_off_c, 0, 54, 0
1, 85440, Tempo, 571428
1, 85440, Note_on_c, 0, 47, 90
1, 85800, Note_off_c, 0, 47, 0
1, 85800, Note_on_c, 0, 49, 90
1, 85920, Note_off_c, 0, 49, 0
1, 85920, Note_on_c, 0, 51, 90
1, 86040, Note_off_c, 0, 51, 0
1, 86040, Note_on_c, 0, 49, 90
1, 86160, Note_off_c, 0, 49, 0
1, 86160, Note_on_c, 0, 51, 90
1, 86280, Note_off_c, 0, 51, 0
1, 86280, Note_on_c, 0, 52, 90
1, 86400, Note_off_c, 0, 52, 0
1, 86400, Tempo, 441176
1, 86400, Note_on_c, 0, 54, 90
1, 86520, Note_off_c, 0, 54, 0
1, 86640, Note_on_c, 0, 59, 90
1, 86760, Note_off_c, 0, 59, 0
1, 86880, Note_on_c, 0, 56, 90
1, 87000, Note_off_c, 0, 56, 0
1, 87120, Note_on_c, 0, 61, 90
1, 87240, Note_off_c, 0, 61, 0
1, 87360, Note_on_c, 0, 54, 90
1, 87480, Note_off_c, 0, 54, 0
1, 87600, Note_on_c, 0, 52, 90
1, 87720, Note_off_c, 0, 52, 0
1, 88080, Note_on_c, 0, 51, 90
1, 88200, Note_off_c, 0, 51, 0
1, 88560, Note_on_c, 0, 49, 90
1, 88680, Note_off_c, 0, 49, 0
1, 89040, Note_on_c, 0, 54, 90
1, 89160, Note_off_c, 0, 54, 0
1, 89280, Note_on_c, 0, 51, 90
1, 89400, Note_off_c, 0, 51, 0
1, 89520, Note_on_c, 0, 49, 90
1, 89640, Note_off_c, 0, 49, 0
1, 89760, Note_on_c, 0, 47, 90
1, 89880, Note_off_c, 0, 47, 0
1, 90000, Note_on_c, 0, 46, 90
1, 90120, Note_off_c, 0, 46, 0
1, 90480, Note_on_c, 0, 44, 90
1, 90600, Note_off_c, 0, 44, 0
1, 90960, Note_on_c, 0, 42, 90
1, 91080, Note_off_c, 0, 42, 0
1, 91200, Note_on_c, 0, 51, 90
1, 91680, Note_off_c, 0, 51, 0
1, 91680, Note_on_c, 0, 47, 90
1, 92160, Note_off_c, 0, 47, 0
1, 92160, Note_on_c, 0, 46, 90
1, 92520, Note_off_c, 0, 46, 0
1, 92520, Note_on_c, 0, 47, 90
1, 92640, Note_off_c, 0, 47, 0
1, 92640, Note_on_c, 0, 49, 90
1, 92760, Note_off_c, 0, 49, 0
1, 92760, Note_on_c, 0, 51, 90
1, 92880, Note_off_c, 0, 51, 0
1, 92880, Note_on_c, 0, 52, 90
1, 93000, Note_off_c, 0, 52, 0
1, 93000, Note_on_c, 0, 54, 90
1, 93120, Note_off_c, 0, 54, 0
1, 93120, Note_on_c, 0, 52, 90
1, 93240, Note_off_c, 0, 52, 0
1, 93360, Note_on_c, 0, 58, 90
1, 93480, Note_off_c, 0, 58, 0
1, 93600, Note_on_c, 0, 51, 90
1, 93720, Note_off_c, 0, 51, 0
1, 93840, Note_on_c, 0, 56, 90
1, 93960, Note_off_c, 0, 56, 0
1, 94080, Note_on_c, 0, 49, 90
1, 94200, Note_off_c, 0, 49, 0
1, 94320, Note_on_c, 0, 47, 90
1, 94440, Note_off_c, 0, 47, 0
1, 94800, Note_on_c, 0, 48, 90
1, 94920, Note_off_c, 0, 48, 0
1, 95040, Note_on_c, 0, 41, 90
1, 95520, Note_off_c, 0, 41, 0
1, 95520, Note_on_c, 0, 47, 90
1, 96000, Note_off_c, 0, 47, 0
1, 96000, Note_on_c, 0, 40, 90
1, 96720, Note_off_c, 0, 40, 0
1, 96720, Note_on_c, 0, 42, 90
1, 96960, Note_off_c, 0, 42, 0
1, 96960, Note_on_c, 0, 44, 90
1, 97080, Note_off_c, 0, 44, 0
1, 97200, Note_on_c, 0, 42, 90
1, 97320, Note_off_c, 0, 42, 0
1, 97440, Note_on_c, 0, 44, 90
1, 97560, Note_off_c, 0, 44, 0
1, 97680, Note_on_c, 0, 45, 90
1, 97800, Note_off_c, 0, 45, 0
1, 97920, Note_on_c, 0, 47, 90
1, 98400, Note_off_c, 0, 47, 0
1, 98400, Note_on_c, 0, 52, 90
1, 98880, Note_off_c, 0, 52, 0
1, 98880, Note_on_c, 0, 49, 90
1, 99360, Note_off_c, 0, 49, 0
1, 99360, Note_on_c, 0, 54, 90
1, 99840, Note_off_c, 0, 54, 0
1, 99840, Note_on_c, 0, 47, 90
1, 100320, Note_off_c, 0, 47, 0
1, 100320, Note_on_c, 0, 45, 90
1, 100800, Note_off_c, 0, 45, 0
1, 101280, Note_on_c, 0, 44, 90
1, 101760, Note_off_c, 0, 44, 0
1, 102240, Note_on_c, 0, 42, 90
1, 102720, Note_off_c, 0, 42, 0
1, 103200, Note_on_c, 0, 47, 90
1, 103680, Note_off_c, 0, 47, 0
1, 103680, Note_on_c, 0, 44, 90
1, 104160, Note_off_c, 0, 44, 0
1, 104160, Note_on_c, 0, 42, 90
1, 104640, Note_off_c, 0, 42, 0
1, 104640, Note_on_c, 0, 40, 90
1, 105120, Note_off_c, 0, 40, 0
1, 105120, Note_on_c, 0, 39, 90
1, 105600, Note_off_c, 0, 39, 0
1, 106080, Note_on_c, 0, 37, 90
1, 106560, Note_off_c, 0, 37, 0
1, 107040, Note_on_c, 0, 35, 90
1, 107520, Note_off_c, 0, 35, 0
1, 108000, Note_on_c, 0, 44, 90
1, 108480, Note_off_c, 0, 44, 0
1, 108480, Note_on_c, 0, 40, 90
1, 109440, Note_off_c, 0, 40, 0
1, 109440, Note_on_c, 0, 40, 90
1, 110400, Tempo, 454545
1, 111360, Note_off_c, 0, 40, 0
1, 111360, Tempo, 451127
1, 111360, Note_on_c, 0, 39, 90
1, 112320, Note_off_c, 0, 39, 0
1, 112320, Note_on_c, 0, 39, 90
1, 113040, Note_off_c, 0, 39, 0
1, 113040, Note_on_c, 0, 40, 90
1, 113280, Note_off_c, 0, 40, 0
1, 113280, Note_on_c, 0, 37, 90
1, 113760, Note_off_c, 0, 37, 0
1, 113760, Note_on_c, 0, 39, 90
1, 114240, Note_off_c, 0, 39, 0
1, 114240, Note_on_c, 0, 40, 90
1, 114720, Note_off_c, 0, 40, 0
1, 114720, Note_on_c, 0, 42, 90
1, 115200, Note_off_c, 0, 42, 0
1, 115200, Note_on_c, 0, 44, 90
1, 115680, Note_off_c, 0, 44, 0
1, 115680, Note_on_c, 0, 49, 90
1, 116160, Note_off_c, 0, 49, 0
1, 116160, Note_on_c, 0, 48, 90
1, 117120, Note_off_c, 0, 48, 0
1, 117120, Tempo, 444444
1, 117120, Note_on_c, 0, 49, 90
1, 117600, Note_off_c, 0, 49, 0
1, 117600, Note_on_c, 0, 54, 90
1, 118080, Note_off_c, 0, 54, 0
1, 118080, Tempo, 447761
1, 118080, Note_on_c, 0, 52, 90
1, 118560, Note_off_c, 0, 52, 0
1, 118560, Note_on_c, 0, 54, 90
1, 119040, Note_off_c, 0, 54, 0
1, 119040, Note_on_c, 0, 56, 90
1, 119520, Note_off_c, 0, 56, 0
1, 119520, Note_on_c, 0, 57, 90
1, 120000, Note_off_c, 0, 57, 0
1, 120000, Tempo, 451127
1, 120000, Note_on_c, 0, 53, 90
1, 120960, Note_off_c, 0, 53, 0
1, 120960, Tempo, 461538
1, 120960, Note_on_c, 0, 52, 90
1, 121440, Note_off_c, 0, 52, 0
1, 121440, Note_on_c, 0, 51, 90
1, 121560, Note_off_c, 0, 51, 0
1, 121680, Note_on_c, 0, 49, 90
1, 121800, Note_off_c, 0, 49, 0
1, 121920, Tempo, 576923
1, 121920, Note_on_c, 0, 47, 90
1, 122280, Note_off_c, 0, 47, 0
1, 122280, Note_on_c, 0, 49, 90
1, 122400, Note_off_c, 0, 49, 0
1, 122400, Note_on_c, 0, 51, 90
1, 122520, Note_off_c, 0, 51, 0
1, 122520, Note_on_c, 0, 52, 90
1, 122640, Note_off_c, 0, 52, 0
1, 122640, Note_on_c, 0, 54, 90
1, 122760, Note_off_c, 0, 54, 0
1, 122760, Note_on_c, 0, 56, 90
1, 122880, Note_off_c, 0, 56, 0
1, 122880, Tempo, 441176
1, 122880, Note_on_c, 0, 54, 90
1, 123000, Note_off_c, 0, 54, 0
1, 123120, Note_on_c, 0, 59, 90
1, 123240, Note_off_c, 0, 59, 0
1, 123360, Note_on_c, 0, 56, 90
1, 123480, Note_off_c, 0, 56, 0
1, 123600, Note_on_c, 0, 61, 90
1, 123720, Note_off_c, 0, 61, 0
1, 123840, Tempo, 447761
1, 123840, Note_on_c, 0, 47, 90
1, 124200, Note_off_c, 0, 47, 0
1, 124200, Note_on_c, 0, 49, 90
1, 124320, Note_off_c, 0, 49, 0
1, 124320, Note_on_c, 0, 51, 90
1, 124440, Note_off_c, 0, 51, 0
1, 124440, Note_on_c, 0, 52, 90
1, 124560, Note_off_c, 0, 52, 0
1, 124560, Note_on_c, 0, 54, 90
1, 124680, Note_off_c, 0, 54, 0
1, 124680, Note_on_c, 0, 56, 90
1, 124800, Note_off_c, 0, 56, 0
1, 124800, Note_on_c, 0, 54, 90
1, 124920, Note_off_c, 0, 54, 0
1, 125040, Note_on_c, 0, 59, 90
1, 125160, Note_off_c, 0, 59, 0
1, 125280, Note_on_c, 0, 56, 90
1, 125400, Note_off_c, 0, 56, 0
1, 125520, Note_on_c, 0, 61, 90
1, 125640, Note_off_c, 0, 61, 0
1, 125760, Tempo, 451127
1, 125760, Note_on_c, 0, 60, 90
1, 126720, Note_off_c, 0, 60, 0
1, 126720, Tempo, 472440
1, 126720, Note_on_c, 0, 55, 90
1, 127200, Note_off_c, 0, 55, 0
1, 127200, Note_on_c, 0, 54, 90
1, 127680, Note_off_c, 0, 54, 0
1, 127680, Note_on_c, 0, 52, 90
1, 128640, Note_off_c, 0, 52, 0
1, 128640, Tempo, 476190
1, 128640, Note_on_c, 0, 52, 90
1, 129120, Note_off_c, 0, 52, 0
1, 129120, Note_on_c, 0, 50, 90
1, 129600, Note_off_c, 0, 50, 0
1, 129600, Tempo, 480000
1, 129600, Note_on_c, 0, 50, 90
1, 130080, Note_off_c, 0, 50, 0
1, 130080, Note_on_c, 0, 49, 90
1, 130560, Note_off_c, 0, 49, 0
1, 130560, Tempo, 483870
1, 130560, Note_on_c, 0, 49, 90
1, 131040, Note_off_c, 0, 49, 0
1, 131040, Note_on_c, 0, 54, 90
1, 131520, Note_off_c, 0, 54, 0
1, 131520, Tempo, 895522
1, 131520, Note_on_c, 0, 47, 90
1, 132480, Note_off_c, 0, 47, 0
1, 133440, Tempo, 434782
1, 133440, Key_signature, 0, "major"
1, 133440, End_track
0, 0, End_of_file