0, 0, Header, 1, 3, 480
1, 0, Start_track
1, 0, Sequence_number, 0
1, 0, Title_t, "high voice"
1, 0, Channel_prefix, 0
1, 0, Instrument_name_t, "1"
1, 0, Program_c, 0, 0
1, 0, Tempo, 468750
1, 0, Time_signature, 2, 2, 24, 24
1, 0, Key_signature, 0, "major"
1, 9600, Note_on_c, 0, 81, 90
1, 9720, Note_off_c, 0, 81, 0
1, 9720, Note_on_c, 0, 83, 90
1, 9840, Note_off_c, 0, 83, 0
1, 9840, Note_on_c, 0, 84, 90
1, 10020, Note_off_c, 0, 84, 0
1, 10080, Note_on_c, 0, 76, 90
1, 10260, Note_off_c, 0, 76, 0
1, 10320, Note_on_c, 0, 84, 90
1, 10500, Note_off_c, 0, 84, 0
1, 10560, Note_on_c, 0, 80, 90
1, 10680, Note_off_c, 0, 80, 0
1, 10680, Note_on_c, 0, 81, 90
1, 10800, Note_off_c, 0, 81, 0
1, 10800, Note_on_c, 0, 83, 90
1, 10980, Note_off_c, 0, 83, 0
1, 11040, Note_on_c, 0, 74, 90
1, 11220, Note_off_c, 0, 74, 0
1, 11280, Note_on_c, 0, 83, 90
1, 11460, Note_off_c, 0, 83, 0
1, 11520, Note_on_c, 0, 72, 90
1, 11700, Note_off_c, 0, 72, 0
1, 11760, Note_on_c, 0, 83, 90
1, 11940, Note_off_c, 0, 83, 0
1, 12000, Note_on_c, 0, 71, 90
1, 12180, Note_off_c, 0, 71, 0
1, 12240, Note_on_c, 0, 81, 90
1, 12420, Note_off_c, 0, 81, 0
1, 12480, Note_on_c, 0, 79, 90
1, 12660, Note_off_c, 0, 79, 0
1, 12720, Note_on_c, 0, 69, 90
1, 12900, Note_off_c, 0, 69, 0
1, 12960, Note_on_c, 0, 68, 90
1, 13080, Note_off_c, 0, 68, 0
1, 13080, Note_on_c, 0, 66, 90
1, 13200, Note_off_c, 0, 66, 0
1, 13200, Note_on_c, 0, 68, 90
1, 13380, Note_off_c, 0, 68, 0
1, 13440, Note_on_c, 0, 69, 90
1, 14400, Note_off_c, 0, 69, 0
1, 15120, Note_on_c, 0, 77, 90
1, 15300, Note_off_c, 0, 77, 0
1, 15360, Note_on_c, 0, 82, 90
1, 16080, Note_off_c, 0, 82, 0
1, 16080, Note_on_c, 0, 76, 90
1, 16260, Note_off_c, 0, 76, 0
1, 16320, Note_on_c, 0, 81, 90
1, 17520, Note_off_c, 0, 81, 0
1, 17520, Note_on_c, 0, 74, 90
1, 17700, Note_off_c, 0, 74, 0
1, 17760, Note_on_c, 0, 79, 90
1, 18480, Note_off_c, 0, 79, 0
1, 18480, Note_on_c, 0, 77, 90
1, 18600, Note_off_c, 0, 77, 0
1, 18600, Note_on_c, 0, 75, 90
1, 18720, Note_off_c, 0, 75, 0
1, 18720, Note_on_c, 0, 74, 90
1, 18840, Note_off_c, 0, 74, 0
1, 18840, Note_on_c, 0, 72, 90
1, 18960, Note_off_c, 0, 72, 0
1, 18960, Note_on_c, 0, 70, 90
1, 19080, Note_off_c, 0, 70, 0
1, 19080, Note_on_c, 0, 69, 90
1, 19200, Note_off_c, 0, 69, 0
1, 19200, Note_on_c, 0, 67, 90
1, 19380, Note_off_c, 0, 67, 0
1, 19440, Note_on_c, 0, 72, 90
1, 19620, Note_off_c, 0, 72, 0
1, 19920, Note_on_c, 0, 79, 90
1, 20100, Note_off_c, 0, 79, 0
1, 20160, Note_on_c, 0, 84, 90
1, 21360, Note_off_c, 0, 84, 0
1, 21360, Note_on_c, 0, 77, 90
1, 21540, Note_off_c, 0, 77, 0
1, 21600, Note_on_c, 0, 83, 90
1, 22320, Note_off_c, 0, 83, 0
1, 22320, Note_on_c, 0, 76, 90
1, 22500, Note_off_c, 0, 76, 0
1, 22560, Note_on_c, 0, 81, 90
1, 23280, Note_off_c, 0, 81, 0
1, 23280, Note_on_c, 0, 77, 90
1, 23460, Note_off_c, 0, 77, 0
1, 23520, Note_on_c, 0, 82, 90
1, 23700, Note_off_c, 0, 82, 0
1, 23760, Note_on_c, 0, 81, 90
1, 23880, Note_off_c, 0, 81, 0
1, 23880, Note_on_c, 0, 79, 90
1, 24000, Note_off_c, 0, 79, 0
1, 24000, Note_on_c, 0, 77, 90
1, 24120, Note_off_c, 0, 77, 0
1, 24120, Note_on_c, 0, 75, 90
1, 24240, Note_off_c, 0, 75, 0
1, 24240, Note_on_c, 0, 74, 90
1, 24360, Note_off_c, 0, 74, 0
1, 24360, Note_on_c, 0, 72, 90
1, 24480, Note_off_c, 0, 72, 0
1, 24480, Note_on_c, 0, 70, 90
1, 24600, Note_off_c, 0, 70, 0
1, 24600, Note_on_c, 0, 67, 90
1, 24720, Note_off_c, 0, 67, 0
1, 24720, Note_on_c, 0, 71, 90
1, 24840, Note_off_c, 0, 71, 0
1, 24840, Note_on_c, 0, 74, 90
1, 24960, Note_off_c, 0, 74, 0
1, 24960, Note_on_c, 0, 79, 90
1, 25140, Note_off_c, 0, 79, 0
1, 29520, Note_on_c, 0, 69, 90
1, 29700, Note_off_c, 0, 69, 0
1, 29760, Note_on_c, 0, 74, 90
1, 30360, Note_off_c, 0, 74, 0
1, 30360, Note_on_c, 0, 75, 90
1, 30480, Note_off_c, 0, 75, 0
1, 30480, Note_on_c, 0, 74, 90
1, 30600, Note_off_c, 0, 74, 0
1, 30600, Note_on_c, 0, 72, 90
1, 30720, Note_off_c, 0, 72, 0
1, 30720, Note_on_c, 0, 70, 90
1, 30960, Note_off_c, 0, 70, 0
1, 30960, Note_on_c, 0, 79, 90
1, 31080, Note_off_c, 0, 79, 0
1, 31080, Note_on_c, 0, 81, 90
1, 31200, Note_off_c, 0, 81, 0
1, 31200, Note_on_c, 0, 82, 90
1, 31380, Note_off_c, 0, 82, 0
1, 31440, Note_on_c, 0, 73, 90
1, 31620, Note_off_c, 0, 73, 0
1, 31920, Note_on_c, 0, 74, 90
1, 32040, Note_off_c, 0, 74, 0
1, 32040, Note_on_c, 0, 76, 90
1, 32160, Note_off_c, 0, 76, 0
1, 32160, Note_on_c, 0, 77, 90
1, 32340, Note_off_c, 0, 77, 0
1, 32400, Note_on_c, 0, 68, 90
1, 32580, Note_off_c, 0, 68, 0
1, 32880, Note_on_c, 0, 73, 90
1, 33000, Note_off_c, 0, 73, 0
1, 33000, Note_on_c, 0, 74, 90
1, 33120, Note_off_c, 0, 74, 0
1, 33120, Note_on_c, 0, 76, 90
1, 33300, Note_off_c, 0, 76, 0
1, 33360, Note_on_c, 0, 67, 90
1, 33540, Note_off_c, 0, 67, 0
1, 34560, Note_on_c, 0, 78, 90
1, 34680, Note_off_c, 0, 78, 0
1, 34680, Note_on_c, 0, 80, 90
1, 34800, Note_off_c, 0, 80, 0
1, 34800, Note_on_c, 0, 81, 90
1, 34980, Note_off_c, 0, 81, 0
1, 35040, Note_on_c, 0, 73, 90
1, 35220, Note_off_c, 0, 73, 0
1, 35280, Note_on_c, 0, 81, 90
1, 35460, Note_off_c, 0, 81, 0
1, 35520, Note_on_c, 0, 77, 90
1, 35640, Note_off_c, 0, 77, 0
1, 35640, Note_on_c, 0, 78, 90
1, 35760, Note_off_c, 0, 78, 0
1, 35760, Note_on_c, 0, 80, 90
1, 35940, Note_off_c, 0, 80, 0
1, 36000, Note_on_c, 0, 71, 90
1, 36180, Note_off_c, 0, 71, 0
1, 36240, Note_on_c, 0, 80, 90
1, 36420, Note_off_c, 0, 80, 0
1, 36480, Note_on_c, 0, 69, 90
1, 36660, Note_off_c, 0, 69, 0
1, 36720, Note_on_c, 0, 80, 90
1, 36900, Note_off_c, 0, 80, 0
1, 36960, Note_on_c, 0, 68, 90
1, 37140, Note_off_c, 0, 68, 0
1, 37200, Note_on_c, 0, 78, 90
1, 37380, Note_off_c, 0, 78, 0
1, 37440, Note_on_c, 0, 76, 90
1, 37620, Note_off_c, 0, 76, 0
1, 37680, Note_on_c, 0, 66, 90
1, 37860, Note_off_c, 0, 66, 0
1, 37920, Note_on_c, 0, 65, 90
1, 38040, Note_off_c, 0, 65, 0
1, 38040, Note_on_c, 0, 63, 90
1, 38160, Note_off_c, 0, 63, 0
1, 38160, Note_on_c, 0, 65, 90
1, 38340, Note_off_c, 0, 65, 0
1, 38400, Note_on_c, 0, 66, 90
1, 38580, Note_off_c, 0, 66, 0
1, 38640, Note_on_c, 0, 54, 90
1, 38820, Note_off_c, 0, 54, 0
1, 39120, Note_on_c, 0, 78, 90
1, 39300, Note_off_c, 0, 78, 0
1, 39360, Note_on_c, 0, 83, 90
1, 40080, Note_off_c, 0, 83, 0
1, 40080, Note_on_c, 0, 77, 90
1, 40260, Note_off_c, 0, 77, 0
1, 40320, Note_on_c, 0, 82, 90
1, 40800, Note_off_c, 0, 82, 0
1, 41520, Note_on_c, 0, 87, 90
1, 41640, Note_off_c, 0, 87, 0
1, 41640, Note_on_c, 0, 89, 90
1, 41760, Note_off_c, 0, 89, 0
1, 41760, Note_on_c, 0, 90, 90
1, 41940, Note_off_c, 0, 90, 0
1, 42000, Note_on_c, 0, 81, 90
1, 42180, Note_off_c, 0, 81, 0
1, 42480, Note_on_c, 0, 82, 90
1, 42600, Note_off_c, 0, 82, 0
1, 42600, Note_on_c, 0, 84, 90
1, 42720, Note_off_c, 0, 84, 0
1, 42720, Note_on_c, 0, 85, 90
1, 42900, Note_off_c, 0, 85, 0
1, 42960, Note_on_c, 0, 76, 90
1, 43140, Note_off_c, 0, 76, 0
1, 43440, Note_on_c, 0, 81, 90
1, 43560, Note_off_c, 0, 81, 0
1, 43560, Note_on_c, 0, 82, 90
1, 43680, Note_off_c, 0, 82, 0
1, 43680, Note_on_c, 0, 84, 90
1, 43860, Note_off_c, 0, 84, 0
1, 43920, Note_on_c, 0, 75, 90
1, 44100, Note_off_c, 0, 75, 0
1, 44160, Note_on_c, 0, 82, 90
1, 44340, Note_off_c, 0, 82, 0
1, 44400, Note_on_c, 0, 74, 90
1, 44580, Note_off_c, 0, 74, 0
1, 44640, Note_on_c, 0, 81, 90
1, 44820, Note_off_c, 0, 81, 0
1, 44880, Note_on_c, 0, 72, 90
1, 45060, Note_off_c, 0, 72, 0
1, 45120, Note_on_c, 0, 70, 90
1, 45300, Note_off_c, 0, 70, 0
1, 45360, Note_on_c, 0, 69, 90
1, 45540, Note_off_c, 0, 69, 0
1, 45600, Note_on_c, 0, 70, 90
1, 45780, Note_off_c, 0, 70, 0
1, 46200, Note_on_c, 0, 65, 90
1, 46320, Note_off_c, 0, 65, 0
1, 46320, Note_on_c, 0, 69, 90
1, 46440, Note_off_c, 0, 69, 0
1, 46440, Note_on_c, 0, 72, 90
1, 46560, Note_off_c, 0, 72, 0
1, 46680, Note_on_c, 0, 79, 90
1, 46800, Note_off_c, 0, 79, 0
1, 46800, Note_on_c, 0, 83, 90
1, 46920, Note_off_c, 0, 83, 0
1, 46920, Note_on_c, 0, 86, 90
1, 47040, Note_off_c, 0, 86, 0
1, 47040, Note_on_c, 0, 91, 90
1, 47160, Note_off_c, 0, 91, 0
1, 47160, Note_on_c, 0, 89, 90
1, 47280, Note_off_c, 0, 89, 0
1, 47280, Note_on_c, 0, 88, 90
1, 47400, Note_off_c, 0, 88, 0
1, 47400, Note_on_c, 0, 86, 90
1, 47520, Note_off_c, 0, 86, 0
1, 47520, Note_on_c, 0, 84, 90
1, 47640, Note_off_c, 0, 84, 0
1, 47640, Note_on_c, 0, 74, 90
1, 47760, Note_off_c, 0, 74, 0
1, 47760, Note_on_c, 0, 77, 90
1, 47880, Note_off_c, 0, 77, 0
1, 47880, Note_on_c, 0, 81, 90
1, 48000, Note_off_c, 0, 81, 0
1, 48000, Note_on_c, 0, 86, 90
1, 49200, Note_off_c, 0, 86, 0
1, 49200, Note_on_c, 0, 81, 90
1, 49380, Note_off_c, 0, 81, 0
1, 49440, Note_on_c, 0, 82, 90
1, 49620, Note_off_c, 0, 82, 0
1, 49680, Note_on_c, 0, 79, 90
1, 49860, Note_off_c, 0, 79, 0
1, 49920, Note_on_c, 0, 72, 90
1, 50100, Note_off_c, 0, 72, 0
1, 50160, Note_on_c, 0, 77, 90
1, 50340, Note_off_c, 0, 77, 0
1, 50400, Note_on_c, 0, 71, 90
1, 50580, Note_off_c, 0, 71, 0
1, 50640, Note_on_c, 0, 77, 90
1, 51000, Note_off_c, 0, 77, 0
1, 51000, Note_on_c, 0, 76, 90
1, 51120, Note_off_c, 0, 76, 0
1, 51120, Note_on_c, 0, 74, 90
1, 51240, Note_off_c, 0, 74, 0
1, 51240, Note_on_c, 0, 72, 90
1, 51360, Note_off_c, 0, 72, 0
1, 51360, Note_on_c, 0, 70, 90
1, 51540, Note_off_c, 0, 70, 0
1, 52080, Note_on_c, 0, 80, 90
1, 52560, Note_off_c, 0, 80, 0
1, 52560, Note_on_c, 0, 81, 90
1, 52680, Note_off_c, 0, 81, 0
1, 52680, Note_on_c, 0, 83, 90
1, 52800, Note_off_c, 0, 83, 0
1, 52800, Note_on_c, 0, 84, 90
1, 52980, Note_off_c, 0, 84, 0
1, 53040, Note_on_c, 0, 76, 90
1, 53220, Note_off_c, 0, 76, 0
1, 53280, Note_on_c, 0, 84, 90
1, 53460, Note_off_c, 0, 84, 0
1, 53520, Note_on_c, 0, 80, 90
1, 53640, Note_off_c, 0, 80, 0
1, 53640, Note_on_c, 0, 81, 90
1, 53760, Note_off_c, 0, 81, 0
1, 53760, Note_on_c, 0, 83, 90
1, 53940, Note_off_c, 0, 83, 0
1, 54000, Note_on_c, 0, 74, 90
1, 54180, Note_off_c, 0, 74, 0
1, 54240, Note_on_c, 0, 83, 90
1, 54420, Note_off_c, 0, 83, 0
1, 54480, Note_on_c, 0, 72, 90
1, 54660, Note_off_c, 0, 72, 0
1, 54720, Note_on_c, 0, 83, 90
1, 54900, Note_off_c, 0, 83, 0
1, 54960, Note_on_c, 0, 72, 90
1, 55140, Note_off_c, 0, 72, 0
1, 55200, Note_on_c, 0, 81, 90
1, 55380, Note_off_c, 0, 81, 0
1, 55440, Note_on_c, 0, 79, 90
1, 55620, Note_off_c, 0, 79, 0
1, 55680, Note_on_c, 0, 69, 90
1, 55860, Note_off_c, 0, 69, 0
1, 55920, Note_on_c, 0, 68, 90
1, 56040, Note_off_c, 0, 68, 0
1, 56040, Note_on_c, 0, 66, 90
1, 56160, Note_off_c, 0, 66, 0
1, 56160, Note_on_c, 0, 68, 90
1, 56340, Note_off_c, 0, 68, 0
1, 56640, Note_on_c, 0, 85, 90
1, 56820, Note_off_c, 0, 85, 0
1, 56880, Note_on_c, 0, 83, 90
1, 57000, Note_off_c, 0, 83, 0
1, 57000, Note_on_c, 0, 81, 90
1, 57120, Note_off_c, 0, 81, 0
1, 57120, Note_on_c, 0, 80, 90
1, 57240, Note_off_c, 0, 80, 0
1, 57240, Note_on_c, 0, 78, 90
1, 57360, Note_off_c, 0, 78, 0
1, 57360, Note_on_c, 0, 76, 90
1, 57480, Note_off_c, 0, 76, 0
1, 57480, Note_on_c, 0, 75, 90
1, 57600, Note_off_c, 0, 75, 0
1, 57600, Note_on_c, 0, 73, 90
1, 57720, Note_off_c, 0, 73, 0
1, 57720, Note_on_c, 0, 71, 90
1, 57840, Note_off_c, 0, 71, 0
1, 57840, Note_on_c, 0, 69, 90
1, 57960, Note_off_c, 0, 69, 0
1, 57960, Note_on_c, 0, 68, 90
1, 58080, Note_off_c, 0, 68, 0
1, 58080, Note_on_c, 0, 66, 90
1, 58200, Note_off_c, 0, 66, 0
1, 58200, Note_on_c, 0, 64, 90
1, 58320, Note_off_c, 0, 64, 0
1, 58320, Note_on_c, 0, 66, 90
1, 58440, Note_off_c, 0, 66, 0
1, 58440, Note_on_c, 0, 68, 90
1, 58560, Note_off_c, 0, 68, 0
1, 58560, Note_on_c, 0, 59, 90
1, 58740, Note_off_c, 0, 59, 0
1, 58800, Note_on_c, 0, 68, 90
1, 58980, Note_off_c, 0, 68, 0
1, 59040, Note_on_c, 0, 63, 90
1, 59160, Note_off_c, 0, 63, 0
1, 59160, Note_on_c, 0, 64, 90
1, 59280, Note_off_c, 0, 64, 0
1, 59280, Note_on_c, 0, 66, 90
1, 59520, Note_off_c, 0, 66, 0
1, 59520, Note_on_c, 0, 57, 90
1, 59700, Note_off_c, 0, 57, 0
1, 59760, Note_on_c, 0, 66, 90
1, 59940, Note_off_c, 0, 66, 0
1, 60120, Note_on_c, 0, 67, 90
1, 60240, Note_off_c, 0, 67, 0
1, 60240, Note_on_c, 0, 69, 90
1, 60360, Note_off_c, 0, 69, 0
1, 60360, Note_on_c, 0, 71, 90
1, 60480, Note_off_c, 0, 71, 0
1, 60480, Note_on_c, 0, 72, 90
1, 60660, Note_off_c, 0, 72, 0
1, 60720, Note_on_c, 0, 72, 90
1, 60900, Note_off_c, 0, 72, 0
1, 60960, Note_on_c, 0, 72, 90
1, 61080, Note_off_c, 0, 72, 0
1, 61080, Note_on_c, 0, 71, 90
1, 61200, Note_off_c, 0, 71, 0
1, 61200, Note_on_c, 0, 72, 90
1, 61440, Note_off_c, 0, 72, 0
1, 61440, Note_on_c, 0, 71, 90
1, 61560, Note_off_c, 0, 71, 0
1, 61560, Note_on_c, 0, 72, 90
1, 61680, Note_off_c, 0, 72, 0
1, 61680, Note_on_c, 0, 69, 90
1, 61800, Note_off_c, 0, 69, 0
1, 61800, Note_on_c, 0, 71, 90
1, 61920, Note_off_c, 0, 71, 0
1, 61920, Note_on_c, 0, 68, 90
1, 62100, Note_off_c, 0, 68, 0
1, 62160, Note_on_c, 0, 72, 90
1, 62340, Note_off_c, 0, 72, 0
1, 62400, Note_on_c, 0, 77, 90
1, 63480, Note_off_c, 0, 77, 0
1, 63480, Note_on_c, 0, 75, 90
1, 63600, Note_off_c, 0, 75, 0
1, 63600, Note_on_c, 0, 74, 90
1, 63720, Note_off_c, 0, 74, 0
1, 63720, Note_on_c, 0, 72, 90
1, 63840, Note_off_c, 0, 72, 0
1, 63840, Note_on_c, 0, 70, 90
1, 64020, Note_off_c, 0, 70, 0
1, 64080, Note_on_c, 0, 79, 90
1, 64260, Note_off_c, 0, 79, 0
1, 64320, Note_on_c, 0, 77, 90
1, 64440, Note_off_c, 0, 77, 0
1, 64440, Note_on_c, 0, 79, 90
1, 64560, Note_off_c, 0, 79, 0
1, 64560, Note_on_c, 0, 81, 90
1, 64740, Note_off_c, 0, 81, 0
1, 64800, Note_on_c, 0, 73, 90
1, 64980, Note_off_c, 0, 73, 0
1, 65040, Note_on_c, 0, 82, 90
1, 65220, Note_off_c, 0, 82, 0
1, 65280, Note_on_c, 0, 81, 90
1, 65400, Note_off_c, 0, 81, 0
1, 65400, Note_on_c, 0, 82, 90
1, 65520, Note_off_c, 0, 82, 0
1, 65520, Note_on_c, 0, 84, 90
1, 65700, Note_off_c, 0, 84, 0
1, 65760, Note_on_c, 0, 82, 90
1, 65880, Note_off_c, 0, 82, 0
1, 65880, Note_on_c, 0, 84, 90
1, 66000, Note_off_c, 0, 84, 0
1, 66000, Note_on_c, 0, 86, 90
1, 66180, Note_off_c, 0, 86, 0
1, 66240, Note_on_c, 0, 88, 90
1, 66420, Note_off_c, 0, 88, 0
1, 66480, Note_on_c, 0, 89, 90
1, 66600, Note_off_c, 0, 89, 0
1, 66600, Note_on_c, 0, 91, 90
1, 66720, Note_off_c, 0, 91, 0
1, 66720, Note_on_c, 0, 93, 90
1, 66900, Note_off_c, 0, 93, 0
1, 66960, Note_on_c, 0, 76, 90
1, 67140, Note_off_c, 0, 76, 0
1, 67440, Note_on_c, 0, 76, 90
1, 67620, Note_off_c, 0, 76, 0
1, 67680, Note_on_c, 0, 81, 90
1, 68160, Note_off_c, 0, 81, 0
1, 68400, Note_on_c, 0, 74, 90
1, 68580, Note_off_c, 0, 74, 0
1, 68640, Note_on_c, 0, 79, 90
1, 69120, Note_off_c, 0, 79, 0
1, 69360, Note_on_c, 0, 72, 90
1, 69540, Note_off_c, 0, 72, 0
1, 69600, Note_on_c, 0, 77, 90
1, 69780, Note_off_c, 0, 77, 0
1, 69840, Note_on_c, 0, 76, 90
1, 69960, Note_off_c, 0, 76, 0
1, 69960, Note_on_c, 0, 74, 90
1, 70080, Note_off_c, 0, 74, 0
1, 70080, Note_on_c, 0, 72, 90
1, 70800, Note_off_c, 0, 72, 0
1, 70800, Note_on_c, 0, 76, 90
1, 70980, Note_off_c, 0, 76, 0
1, 71040, Note_on_c, 0, 81, 90
1, 71760, Note_off_c, 0, 81, 0
1, 71760, Note_on_c, 0, 77, 90
1, 71940, Note_off_c, 0, 77, 0
1, 72000, Note_on_c, 0, 82, 90
1, 72720, Note_off_c, 0, 82, 0
1, 72960, Note_on_c, 0, 75, 90
1, 73080, Note_off_c, 0, 75, 0
1, 73080, Note_on_c, 0, 77, 90
1, 73200, Note_off_c, 0, 77, 0
1, 73200, Note_on_c, 0, 78, 90
1, 73380, Note_off_c, 0, 78, 0
1, 73440, Note_on_c, 0, 70, 90
1, 73620, Note_off_c, 0, 70, 0
1, 73680, Note_on_c, 0, 78, 90
1, 73860, Note_off_c, 0, 78, 0
1, 73920, Note_on_c, 0, 75, 90
1, 74100, Note_off_c, 0, 75, 0
1, 74160, Note_on_c, 0, 84, 90
1, 74340, Note_off_c, 0, 84, 0
1, 74400, Note_on_c, 0, 79, 90
1, 74580, Note_off_c, 0, 79, 0
1, 74640, Note_on_c, 0, 88, 90
1, 74820, Note_off_c, 0, 88, 0
1, 74880, Note_on_c, 0, 93, 90
1, 75060, Note_off_c, 0, 93, 0
1, 75360, Note_on_c, 0, 81, 90
1, 75480, Note_off_c, 0, 81, 0
1, 75840, Note_on_c, 0, 69, 90
1, 76020, Note_off_c, 0, 69, 0
1, 76020, End_track
2, 0, Start_track
2, 0, Channel_prefix, 1
2, 0, Instrument_name_t, "2"
2, 0, Program_c, 1, 0
2, 0, Tempo, 468750
2, 0, Time_signature, 2, 2, 24, 24
2, 0, Key_signature, 0, "major"
2, 3840, Note_on_c, 1, 76, 90
2, 3960, Note_off_c, 1, 76, 0
2, 3960, Note_on_c, 1, 78, 90
2, 4080, Note_off_c, 1, 78, 0
2, 4080, Note_on_c, 1, 79, 90
2, 4260, Note_off_c, 1, 79, 0
2, 4320, Note_on_c, 1, 71, 90
2, 4500, Note_off_c, 1, 71, 0
2, 4560, Note_on_c, 1, 79, 90
2, 4740, Note_off_c, 1, 79, 0
2, 4800, Note_on_c, 1, 75, 90
2, 4920, Note_off_c, 1, 75, 0
2, 4920, Note_on_c, 1, 76, 90
2, 5040, Note_off_c, 1, 76, 0
2, 5040, Note_on_c, 1, 78, 90
2, 5220, Note_off_c, 1, 78, 0
2, 5280, Note_on_c, 1, 69, 90
2, 5460, Note_off_c, 1, 69, 0
2, 5520, Note_on_c, 1, 78, 90
2, 5700, Note_off_c, 1, 78, 0
2, 5760, Note_on_c, 1, 67, 90
2, 5940, Note_off_c, 1, 67, 0
2, 6000, Note_on_c, 1, 78, 90
2, 6180, Note_off_c, 1, 78, 0
2, 6240, Note_on_c, 1, 66, 90
2, 6420, Note_off_c, 1, 66, 0
2, 6480, Note_on_c, 1, 76, 90
2, 6660, Note_off_c, 1, 76, 0
2, 6720, Note_on_c, 1, 74, 90
2, 6900, Note_off_c, 1, 74, 0
2, 6960, Note_on_c, 1, 64, 90
2, 7140, Note_off_c, 1, 64, 0
2, 7200, Note_on_c, 1, 63, 90
2, 7320, Note_off_c, 1, 63, 0
2, 7320, Note_on_c, 1, 61, 90
2, 7440, Note_off_c, 1, 61, 0
2, 7440, Note_on_c, 1, 63, 90
2, 7620, Note_off_c, 1, 63, 0
2, 7680, Note_on_c, 1, 64, 90
2, 8880, Note_off_c, 1, 64, 0
2, 8880, Note_on_c, 1, 65, 90
2, 9360, Note_off_c, 1, 65, 0
2, 9360, Note_on_c, 1, 64, 90
2, 9480, Note_off_c, 1, 64, 0
2, 9480, Note_on_c, 1, 62, 90
2, 9600, Note_off_c, 1, 62, 0
2, 9600, Note_on_c, 1, 60, 90
2, 9780, Note_off_c, 1, 60, 0
2, 9840, Note_on_c, 1, 57, 90
2, 10020, Note_off_c, 1, 57, 0
2, 10320, Note_on_c, 1, 64, 90
2, 10560, Note_off_c, 1, 64, 0
2, 10560, Note_on_c, 1, 69, 90
2, 11760, Note_off_c, 1, 69, 0
2, 11760, Note_on_c, 1, 62, 90
2, 12000, Note_off_c, 1, 62, 0
2, 12000, Note_on_c, 1, 67, 90
2, 12720, Note_off_c, 1, 67, 0
2, 12720, Note_on_c, 1, 60, 90
2, 12900, Note_off_c, 1, 60, 0
2, 12960, Note_on_c, 1, 65, 90
2, 13680, Note_off_c, 1, 65, 0
2, 13680, Note_on_c, 1, 61, 90
2, 13860, Note_off_c, 1, 61, 0
2, 13920, Note_on_c, 1, 66, 90
2, 14160, Note_off_c, 1, 66, 0
2, 14160, Note_on_c, 1, 64, 90
2, 14280, Note_off_c, 1, 64, 0
2, 14280, Note_on_c, 1, 62, 90
2, 14400, Note_off_c, 1, 62, 0
2, 14400, Note_on_c, 1, 61, 90
2, 14520, Note_off_c, 1, 61, 0
2, 14520, Note_on_c, 1, 59, 90
2, 14640, Note_off_c, 1, 59, 0
2, 14640, Note_on_c, 1, 57, 90
2, 14760, Note_off_c, 1, 57, 0
2, 14760, Note_on_c, 1, 56, 90
2, 14880, Note_off_c, 1, 56, 0
2, 14880, Note_on_c, 1, 54, 90
2, 15000, Note_off_c, 1, 54, 0
2, 15480, Note_on_c, 1, 51, 90
2, 15600, Note_off_c, 1, 51, 0
2, 15600, Note_on_c, 1, 54, 90
2, 15720, Note_off_c, 1, 54, 0
2, 15720, Note_on_c, 1, 58, 90
2, 15840, Note_off_c, 1, 58, 0
2, 15840, Note_on_c, 1, 63, 90
2, 15960, Note_off_c, 1, 63, 0
2, 16440, Note_on_c, 1, 62, 90
2, 16560, Note_off_c, 1, 62, 0
2, 16560, Note_on_c, 1, 66, 90
2, 16680, Note_off_c, 1, 66, 0
2, 16680, Note_on_c, 1, 69, 90
2, 16800, Note_off_c, 1, 69, 0
2, 16800, Note_on_c, 1, 74, 90
2, 16920, Note_off_c, 1, 74, 0
2, 23760, Note_on_c, 1, 63, 90
2, 23940, Note_off_c, 1, 63, 0
2, 24000, Note_on_c, 1, 68, 90
2, 24480, Note_off_c, 1, 68, 0
2, 24480, Note_on_c, 1, 62, 90
2, 24960, Note_off_c, 1, 62, 0
2, 24960, Note_on_c, 1, 67, 90
2, 25080, Note_off_c, 1, 67, 0
2, 25080, Note_on_c, 1, 69, 90
2, 25200, Note_off_c, 1, 69, 0
2, 25200, Note_on_c, 1, 71, 90
2, 25380, Note_off_c, 1, 71, 0
2, 25440, Note_on_c, 1, 62, 90
2, 25620, Note_off_c, 1, 62, 0
2, 25680, Note_on_c, 1, 71, 90
2, 25860, Note_off_c, 1, 71, 0
2, 25920, Note_on_c, 1, 66, 90
2, 26040, Note_off_c, 1, 66, 0
2, 26040, Note_on_c, 1, 67, 90
2, 26160, Note_off_c, 1, 67, 0
2, 26160, Note_on_c, 1, 69, 90
2, 26340, Note_off_c, 1, 69, 0
2, 26400, Note_on_c, 1, 60, 90
2, 26580, Note_off_c, 1, 60, 0
2, 26640, Note_on_c, 1, 69, 90
2, 26820, Note_off_c, 1, 69, 0
2, 26880, Note_on_c, 1, 59, 90
2, 27060, Note_off_c, 1, 59, 0
2, 27120, Note_on_c, 1, 69, 90
2, 27300, Note_off_c, 1, 69, 0
2, 27360, Note_on_c, 1, 57, 90
2, 27540, Note_off_c, 1, 57, 0
2, 27600, Note_on_c, 1, 67, 90
2, 27780, Note_off_c, 1, 67, 0
2, 27840, Note_on_c, 1, 66, 90
2, 28020, Note_off_c, 1, 66, 0
2, 28080, Note_on_c, 1, 55, 90
2, 28260, Note_off_c, 1, 55, 0
2, 28320, Note_on_c, 1, 54, 90
2, 28440, Note_off_c, 1, 54, 0
2, 28440, Note_on_c, 1, 52, 90
2, 28560, Note_off_c, 1, 52, 0
2, 28560, Note_on_c, 1, 54, 90
2, 28740, Note_off_c, 1, 54, 0
2, 28800, Note_on_c, 1, 55, 90
2, 28980, Note_off_c, 1, 55, 0
2, 29040, Note_on_c, 1, 60, 90
2, 29220, Note_off_c, 1, 60, 0
2, 29280, Note_on_c, 1, 65, 90
2, 29460, Note_off_c, 1, 65, 0
2, 29520, Note_on_c, 1, 64, 90
2, 29640, Note_off_c, 1, 64, 0
2, 29640, Note_on_c, 1, 62, 90
2, 29760, Note_off_c, 1, 62, 0
2, 29760, Note_on_c, 1, 60, 90
2, 29880, Note_off_c, 1, 60, 0
2, 29880, Note_on_c, 1, 58, 90
2, 30000, Note_off_c, 1, 58, 0
2, 30000, Note_on_c, 1, 57, 90
2, 30120, Note_off_c, 1, 57, 0
2, 30120, Note_on_c, 1, 55, 90
2, 30240, Note_off_c, 1, 55, 0
2, 30240, Note_on_c, 1, 53, 90
2, 30360, Note_off_c, 1, 53, 0
2, 30360, Note_on_c, 1, 50, 90
2, 30480, Note_off_c, 1, 50, 0
2, 30480, Note_on_c, 1, 54, 90
2, 30600, Note_off_c, 1, 54, 0
2, 30600, Note_on_c, 1, 57, 90
2, 30720, Note_off_c, 1, 57, 0
2, 30720, Note_on_c, 1, 62, 90
2, 30960, Note_off_c, 1, 62, 0
2, 31320, Note_on_c, 1, 57, 90
2, 31440, Note_off_c, 1, 57, 0
2, 31440, Note_on_c, 1, 61, 90
2, 31560, Note_off_c, 1, 61, 0
2, 31560, Note_on_c, 1, 64, 90
2, 31680, Note_off_c, 1, 64, 0
2, 31680, Note_on_c, 1, 69, 90
2, 31800, Note_off_c, 1, 69, 0
2, 32280, Note_on_c, 1, 58, 90
2, 32400, Note_off_c, 1, 58, 0
2, 32400, Note_on_c, 1, 62, 90
2, 32520, Note_off_c, 1, 62, 0
2, 32520, Note_on_c, 1, 65, 90
2, 32640, Note_off_c, 1, 65, 0
2, 32640, Note_on_c, 1, 70, 90
2, 32820, Note_off_c, 1, 70, 0
2, 32880, Note_on_c, 1, 69, 90
2, 33000, Note_off_c, 1, 69, 0
2, 33000, Note_on_c, 1, 67, 90
2, 33120, Note_off_c, 1, 67, 0
2, 33120, Note_on_c, 1, 65, 90
2, 33300, Note_off_c, 1, 65, 0
2, 33360, Note_on_c, 1, 67, 90
2, 33540, Note_off_c, 1, 67, 0
2, 33600, Note_on_c, 1, 74, 90
2, 33780, Note_off_c, 1, 74, 0
2, 33840, Note_on_c, 1, 66, 90
2, 34020, Note_off_c, 1, 66, 0
2, 34080, Note_on_c, 1, 73, 90
2, 34260, Note_off_c, 1, 73, 0
2, 34320, Note_on_c, 1, 64, 90
2, 34500, Note_off_c, 1, 64, 0
2, 34560, Note_on_c, 1, 62, 90
2, 34740, Note_off_c, 1, 62, 0
2, 34800, Note_on_c, 1, 61, 90
2, 34980, Note_off_c, 1, 61, 0
2, 35760, Note_on_c, 1, 59, 90
2, 35880, Note_off_c, 1, 59, 0
2, 35880, Note_on_c, 1, 61, 90
2, 36000, Note_off_c, 1, 61, 0
2, 36000, Note_on_c, 1, 62, 90
2, 36180, Note_off_c, 1, 62, 0
2, 36240, Note_on_c, 1, 53, 90
2, 36420, Note_off_c, 1, 53, 0
2, 36720, Note_on_c, 1, 54, 90
2, 36840, Note_off_c, 1, 54, 0
2, 36840, Note_on_c, 1, 56, 90
2, 36960, Note_off_c, 1, 56, 0
2, 36960, Note_on_c, 1, 57, 90
2, 37140, Note_off_c, 1, 57, 0
2, 37200, Note_on_c, 1, 48, 90
2, 37380, Note_off_c, 1, 48, 0
2, 37680, Note_on_c, 1, 53, 90
2, 37800, Note_off_c, 1, 53, 0
2, 37800, Note_on_c, 1, 54, 90
2, 37920, Note_off_c, 1, 54, 0
2, 37920, Note_on_c, 1, 56, 90
2, 38100, Note_off_c, 1, 56, 0
2, 38160, Note_on_c, 1, 47, 90
2, 38340, Note_off_c, 1, 47, 0
2, 38400, Note_on_c, 1, 54, 90
2, 38580, Note_off_c, 1, 54, 0
2, 38640, Note_on_c, 1, 46, 90
2, 38820, Note_off_c, 1, 46, 0
2, 39120, Note_on_c, 1, 70, 90
2, 39300, Note_off_c, 1, 70, 0
2, 39360, Note_on_c, 1, 75, 90
2, 40080, Note_off_c, 1, 75, 0
2, 40080, Note_on_c, 1, 68, 90
2, 40260, Note_off_c, 1, 68, 0
2, 40320, Note_on_c, 1, 73, 90
2, 40800, Note_off_c, 1, 73, 0
2, 41040, Note_on_c, 1, 65, 90
2, 41220, Note_off_c, 1, 65, 0
2, 41280, Note_on_c, 1, 70, 90
2, 42480, Note_off_c, 1, 70, 0
2, 42480, Note_on_c, 1, 75, 90
2, 42660, Note_off_c, 1, 75, 0
2, 42720, Note_on_c, 1, 80, 90
2, 42900, Note_off_c, 1, 80, 0
2, 42960, Note_on_c, 1, 68, 90
2, 43440, Note_off_c, 1, 68, 0
2, 43440, Note_on_c, 1, 73, 90
2, 43620, Note_off_c, 1, 73, 0
2, 43680, Note_on_c, 1, 78, 90
2, 43860, Note_off_c, 1, 78, 0
2, 43920, Note_on_c, 1, 66, 90
2, 44400, Note_off_c, 1, 66, 0
2, 44400, Note_on_c, 1, 62, 90
2, 44580, Note_off_c, 1, 62, 0
2, 44640, Note_on_c, 1, 67, 90
2, 44880, Note_off_c, 1, 67, 0
2, 44880, Note_on_c, 1, 65, 90
2, 45000, Note_off_c, 1, 65, 0
2, 45000, Note_on_c, 1, 63, 90
2, 45120, Note_off_c, 1, 63, 0
2, 45120, Note_on_c, 1, 62, 90
2, 45240, Note_off_c, 1, 62, 0
2, 45240, Note_on_c, 1, 60, 90
2, 45360, Note_off_c, 1, 60, 0
2, 45360, Note_on_c, 1, 58, 90
2, 45480, Note_off_c, 1, 58, 0
2, 45480, Note_on_c, 1, 57, 90
2, 45600, Note_off_c, 1, 57, 0
2, 45600, Note_on_c, 1, 55, 90
2, 45720, Note_off_c, 1, 55, 0
2, 45720, Note_on_c, 1, 52, 90
2, 45840, Note_off_c, 1, 52, 0
2, 45840, Note_on_c, 1, 55, 90
2, 45960, Note_off_c, 1, 55, 0
2, 45960, Note_on_c, 1, 59, 90
2, 46080, Note_off_c, 1, 59, 0
2, 46560, Note_on_c, 1, 77, 90
2, 47280, Note_off_c, 1, 77, 0
2, 47280, Note_on_c, 1, 77, 90
2, 47460, Note_off_c, 1, 77, 0
2, 47520, Note_on_c, 1, 76, 90
2, 47700, Note_off_c, 1, 76, 0
2, 48480, Note_on_c, 1, 75, 90
2, 49200, Note_off_c, 1, 75, 0
2, 49200, Note_on_c, 1, 75, 90
2, 49380, Note_off_c, 1, 75, 0
2, 49440, Note_on_c, 1, 74, 90
2, 49620, Note_off_c, 1, 74, 0
2, 49680, Note_on_c, 1, 64, 90
2, 49860, Note_off_c, 1, 64, 0
2, 49920, Note_on_c, 1, 68, 90
2, 50100, Note_off_c, 1, 68, 0
2, 50160, Note_on_c, 1, 62, 90
2, 50340, Note_off_c, 1, 62, 0
2, 50400, Note_on_c, 1, 67, 90
2, 50640, Note_off_c, 1, 67, 0
2, 50640, Note_on_c, 1, 65, 90
2, 50760, Note_off_c, 1, 65, 0
2, 50760, Note_on_c, 1, 64, 90
2, 50880, Note_off_c, 1, 64, 0
2, 50880, Note_on_c, 1, 62, 90
2, 51060, Note_off_c, 1, 62, 0
2, 51120, Note_on_c, 1, 57, 90
2, 51300, Note_off_c, 1, 57, 0
2, 51360, Note_on_c, 1, 53, 90
2, 51480, Note_off_c, 1, 53, 0
2, 52080, Note_on_c, 1, 74, 90
2, 52320, Note_off_c, 1, 74, 0
2, 52320, Note_on_c, 1, 72, 90
2, 52800, Note_off_c, 1, 72, 0
2, 52800, Note_on_c, 1, 69, 90
2, 52920, Note_off_c, 1, 69, 0
2, 52920, Note_on_c, 1, 71, 90
2, 53040, Note_off_c, 1, 71, 0
2, 53040, Note_on_c, 1, 72, 90
2, 53220, Note_off_c, 1, 72, 0
2, 53280, Note_on_c, 1, 64, 90
2, 53460, Note_off_c, 1, 64, 0
2, 53520, Note_on_c, 1, 72, 90
2, 53700, Note_off_c, 1, 72, 0
2, 53760, Note_on_c, 1, 68, 90
2, 53880, Note_off_c, 1, 68, 0
2, 53880, Note_on_c, 1, 69, 90
2, 54000, Note_off_c, 1, 69, 0
2, 54000, Note_on_c, 1, 71, 90
2, 54180, Note_off_c, 1, 71, 0
2, 54240, Note_on_c, 1, 62, 90
2, 54420, Note_off_c, 1, 62, 0
2, 54480, Note_on_c, 1, 71, 90
2, 54660, Note_off_c, 1, 71, 0
2, 54720, Note_on_c, 1, 60, 90
2, 54900, Note_off_c, 1, 60, 0
2, 54960, Note_on_c, 1, 71, 90
2, 55140, Note_off_c, 1, 71, 0
2, 55200, Note_on_c, 1, 59, 90
2, 55380, Note_off_c, 1, 59, 0
2, 55440, Note_on_c, 1, 69, 90
2, 55620, Note_off_c, 1, 69, 0
2, 55680, Note_on_c, 1, 67, 90
2, 55860, Note_off_c, 1, 67, 0
2, 55920, Note_on_c, 1, 57, 90
2, 56100, Note_off_c, 1, 57, 0
2, 56160, Note_on_c, 1, 56, 90
2, 56280, Note_off_c, 1, 56, 0
2, 56280, Note_on_c, 1, 54, 90
2, 56400, Note_off_c, 1, 54, 0
2, 56400, Note_on_c, 1, 56, 90
2, 56580, Note_off_c, 1, 56, 0
2, 60000, Note_on_c, 1, 55, 90
2, 60180, Note_off_c, 1, 55, 0
2, 60240, Note_on_c, 1, 65, 90
2, 60420, Note_off_c, 1, 65, 0
2, 60480, Note_on_c, 1, 64, 90
2, 60660, Note_off_c, 1, 64, 0
2, 60720, Note_on_c, 1, 64, 90
2, 60900, Note_off_c, 1, 64, 0
2, 60960, Note_on_c, 1, 64, 90
2, 61200, Note_off_c, 1, 64, 0
2, 61200, Note_on_c, 1, 64, 90
2, 61320, Note_off_c, 1, 64, 0
2, 61320, Note_on_c, 1, 65, 90
2, 61440, Note_off_c, 1, 65, 0
2, 61440, Note_on_c, 1, 62, 90
2, 61620, Note_off_c, 1, 62, 0
2, 61680, Note_on_c, 1, 61, 90
2, 61860, Note_off_c, 1, 61, 0
2, 61920, Note_on_c, 1, 60, 90
2, 62100, Note_off_c, 1, 60, 0
2, 62640, Note_on_c, 1, 62, 90
2, 62820, Note_off_c, 1, 62, 0
2, 62880, Note_on_c, 1, 67, 90
2, 63600, Note_off_c, 1, 67, 0
2, 63600, Note_on_c, 1, 69, 90
2, 63720, Note_off_c, 1, 69, 0
2, 63720, Note_on_c, 1, 66, 90
2, 63840, Note_off_c, 1, 66, 0
2, 63840, Note_on_c, 1, 67, 90
2, 64020, Note_off_c, 1, 67, 0
2, 64080, Note_on_c, 1, 75, 90
2, 64260, Note_off_c, 1, 75, 0
2, 64320, Note_on_c, 1, 72, 90
2, 64800, Note_off_c, 1, 72, 0
2, 64800, Note_on_c, 1, 70, 90
2, 64980, Note_off_c, 1, 70, 0
2, 65040, Note_on_c, 1, 79, 90
2, 65220, Note_off_c, 1, 79, 0
2, 65280, Note_on_c, 1, 72, 90
2, 65400, Note_off_c, 1, 72, 0
2, 65400, Note_on_c, 1, 75, 90
2, 65520, Note_off_c, 1, 75, 0
2, 65520, Note_on_c, 1, 81, 90
2, 65700, Note_off_c, 1, 81, 0
2, 65760, Note_on_c, 1, 74, 90
2, 65880, Note_off_c, 1, 74, 0
2, 65880, Note_on_c, 1, 77, 90
2, 66000, Note_off_c, 1, 77, 0
2, 66000, Note_on_c, 1, 81, 90
2, 66180, Note_off_c, 1, 81, 0
2, 66240, Note_on_c, 1, 74, 90
2, 66420, Note_off_c, 1, 74, 0
2, 66480, Note_on_c, 1, 79, 90
2, 66600, Note_off_c, 1, 79, 0
2, 66600, Note_on_c, 1, 83, 90
2, 66720, Note_off_c, 1, 83, 0
2, 66720, Note_on_c, 1, 86, 90
2, 66900, Note_off_c, 1, 86, 0
2, 66960, Note_on_c, 1, 74, 90
2, 67140, Note_off_c, 1, 74, 0
2, 67440, Note_on_c, 1, 74, 90
2, 67620, Note_off_c, 1, 74, 0
2, 67680, Note_on_c, 1, 72, 90
2, 68160, Note_off_c, 1, 72, 0
2, 68400, Note_on_c, 1, 72, 90
2, 68580, Note_off_c, 1, 72, 0
2, 68640, Note_on_c, 1, 71, 90
2, 69120, Note_off_c, 1, 71, 0
2, 69360, Note_on_c, 1, 70, 90
2, 69540, Note_off_c, 1, 70, 0
2, 69600, Note_on_c, 1, 69, 90
2, 70320, Note_off_c, 1, 69, 0
2, 70320, Note_on_c, 1, 68, 90
2, 70440, Note_off_c, 1, 68, 0
2, 70440, Note_on_c, 1, 66, 90
2, 70560, Note_off_c, 1, 66, 0
2, 70560, Note_on_c, 1, 68, 90
2, 70740, Note_off_c, 1, 68, 0
2, 71040, Note_on_c, 1, 69, 90
2, 71160, Note_off_c, 1, 69, 0
2, 71160, Note_on_c, 1, 71, 90
2, 71280, Note_off_c, 1, 71, 0
2, 71280, Note_on_c, 1, 72, 90
2, 71460, Note_off_c, 1, 72, 0
2, 71520, Note_on_c, 1, 64, 90
2, 71700, Note_off_c, 1, 64, 0
2, 71760, Note_on_c, 1, 72, 90
2, 71940, Note_off_c, 1, 72, 0
2, 72000, Note_on_c, 1, 70, 90
2, 72120, Note_off_c, 1, 70, 0
2, 72120, Note_on_c, 1, 72, 90
2, 72240, Note_off_c, 1, 72, 0
2, 72240, Note_on_c, 1, 73, 90
2, 72420, Note_off_c, 1, 73, 0
2, 72480, Note_on_c, 1, 65, 90
2, 72660, Note_off_c, 1, 65, 0
2, 72720, Note_on_c, 1, 73, 90
2, 72900, Note_off_c, 1, 73, 0
2, 73200, Note_on_c, 1, 63, 90
2, 73380, Note_off_c, 1, 63, 0
2, 73440, Note_on_c, 1, 62, 90
2, 73620, Note_off_c, 1, 62, 0
2, 73680, Note_on_c, 1, 63, 90
2, 73860, Note_off_c, 1, 63, 0
2, 73920, Note_on_c, 1, 65, 90
2, 74100, Note_off_c, 1, 65, 0
2, 74160, Note_on_c, 1, 67, 90
2, 74340, Note_off_c, 1, 67, 0
2, 74400, Note_on_c, 1, 69, 90
2, 74580, Note_off_c, 1, 69, 0
2, 74640, Note_on_c, 1, 76, 90
2, 74820, Note_off_c, 1, 76, 0
2, 74880, Note_on_c, 1, 81, 90
2, 75060, Note_off_c, 1, 81, 0
2, 75360, Note_on_c, 1, 72, 90
2, 75540, Note_off_c, 1, 72, 0
2, 75840, Note_on_c, 1, 60, 90
2, 76020, Note_off_c, 1, 60, 0
2, 76020, End_track
3, 0, Start_track
3, 0, Channel_prefix, 2
3, 0, Instrument_name_t, "3"
3, 0, Program_c, 2, 0
3, 0, Tempo, 468750
3, 0, Time_signature, 2, 2, 24, 24
3, 0, Key_signature, 0, "major"
3, 0, Note_on_c, 2, 69, 90
3, 120, Note_off_c, 2, 69, 0
3, 120, Note_on_c, 2, 71, 90
3, 240, Note_off_c, 2, 71, 0
3, 240, Note_on_c, 2, 72, 90
3, 420, Note_off_c, 2, 72, 0
3, 480, Note_on_c, 2, 64, 90
3, 660, Note_off_c, 2, 64, 0
3, 720, Note_on_c, 2, 72, 90
3, 900, Note_off_c, 2, 72, 0
3, 960, Note_on_c, 2, 68, 90
3, 1080, Note_off_c, 2, 68, 0
3, 1080, Note_on_c, 2, 69, 90
3, 1200, Note_off_c, 2, 69, 0
3, 1200, Note_on_c, 2, 71, 90
3, 1380, Note_off_c, 2, 71, 0
3, 1440, Note_on_c, 2, 62, 90
3, 1620, Note_off_c, 2, 62, 0
3, 1680, Note_on_c, 2, 71, 90
3, 1860, Note_off_c, 2, 71, 0
3, 1920, Note_on_c, 2, 60, 90
3, 2100, Note_off_c, 2, 60, 0
3, 2160, Note_on_c, 2, 71, 90
3, 2340, Note_off_c, 2, 71, 0
3, 2400, Note_on_c, 2, 59, 90
3, 2580, Note_off_c, 2, 59, 0
3, 2640, Note_on_c, 2, 69, 90
3, 2820, Note_off_c, 2, 69, 0
3, 2880, Note_on_c, 2, 67, 90
3, 3060, Note_off_c, 2, 67, 0
3, 3120, Note_on_c, 2, 57, 90
3, 3300, Note_off_c, 2, 57, 0
3, 3360, Note_on_c, 2, 56, 90
3, 3480, Note_off_c, 2, 56, 0
3, 3480, Note_on_c, 2, 54, 90
3, 3600, Note_off_c, 2, 54, 0
3, 3600, Note_on_c, 2, 56, 90
3, 3780, Note_off_c, 2, 56, 0
3, 3840, Note_on_c, 2, 57, 90
3, 4020, Note_off_c, 2, 57, 0
3, 4080, Note_on_c, 2, 52, 90
3, 4260, Note_off_c, 2, 52, 0
3, 4560, Note_on_c, 2, 59, 90
3, 4740, Note_off_c, 2, 59, 0
3, 4800, Note_on_c, 2, 64, 90
3, 6000, Note_off_c, 2, 64, 0
3, 6000, Note_on_c, 2, 57, 90
3, 6180, Note_off_c, 2, 57, 0
3, 6240, Note_on_c, 2, 62, 90
3, 6960, Note_off_c, 2, 62, 0
3, 6960, Note_on_c, 2, 55, 90
3, 7140, Note_off_c, 2, 55, 0
3, 7200, Note_on_c, 2, 60, 90
3, 7920, Note_off_c, 2, 60, 0
3, 7920, Note_on_c, 2, 56, 90
3, 8100, Note_off_c, 2, 56, 0
3, 8160, Note_on_c, 2, 61, 90
3, 8340, Note_off_c, 2, 61, 0
3, 8400, Note_on_c, 2, 59, 90
3, 8520, Note_off_c, 2, 59, 0
3, 8520, Note_on_c, 2, 57, 90
3, 8640, Note_off_c, 2, 57, 0
3, 8640, Note_on_c, 2, 56, 90
3, 8760, Note_off_c, 2, 56, 0
3, 8760, Note_on_c, 2, 54, 90
3, 8880, Note_off_c, 2, 54, 0
3, 8880, Note_on_c, 2, 52, 90
3, 9000, Note_off_c, 2, 52, 0
3, 9000, Note_on_c, 2, 51, 90
3, 9120, Note_off_c, 2, 51, 0
3, 9120, Note_on_c, 2, 49, 90
3, 9240, Note_off_c, 2, 49, 0
3, 9240, Note_on_c, 2, 45, 90
3, 9360, Note_off_c, 2, 45, 0
3, 9360, Note_on_c, 2, 48, 90
3, 9480, Note_off_c, 2, 48, 0
3, 9480, Note_on_c, 2, 52, 90
3, 9600, Note_off_c, 2, 52, 0
3, 9600, Note_on_c, 2, 57, 90
3, 9780, Note_off_c, 2, 57, 0
3, 9840, Note_on_c, 2, 45, 90
3, 10020, Note_off_c, 2, 45, 0
3, 10800, Note_on_c, 2, 62, 90
3, 10920, Note_off_c, 2, 62, 0
3, 10920, Note_on_c, 2, 64, 90
3, 11040, Note_off_c, 2, 64, 0
3, 11040, Note_on_c, 2, 65, 90
3, 11220, Note_off_c, 2, 65, 0
3, 11280, Note_on_c, 2, 56, 90
3, 11460, Note_off_c, 2, 56, 0
3, 11760, Note_on_c, 2, 57, 90
3, 11880, Note_off_c, 2, 57, 0
3, 11880, Note_on_c, 2, 59, 90
3, 12000, Note_off_c, 2, 59, 0
3, 12000, Note_on_c, 2, 60, 90
3, 12180, Note_off_c, 2, 60, 0
3, 12240, Note_on_c, 2, 51, 90
3, 12420, Note_off_c, 2, 51, 0
3, 12720, Note_on_c, 2, 56, 90
3, 12840, Note_off_c, 2, 56, 0
3, 12840, Note_on_c, 2, 57, 90
3, 12960, Note_off_c, 2, 57, 0
3, 12960, Note_on_c, 2, 59, 90
3, 13140, Note_off_c, 2, 59, 0
3, 13200, Note_on_c, 2, 50, 90
3, 13380, Note_off_c, 2, 50, 0
3, 13440, Note_on_c, 2, 57, 90
3, 13620, Note_off_c, 2, 57, 0
3, 13680, Note_on_c, 2, 49, 90
3, 13860, Note_off_c, 2, 49, 0
3, 13920, Note_on_c, 2, 56, 90
3, 14100, Note_off_c, 2, 56, 0
3, 14160, Note_on_c, 2, 47, 90
3, 14340, Note_off_c, 2, 47, 0
3, 14400, Note_on_c, 2, 45, 90
3, 14580, Note_off_c, 2, 45, 0
3, 14640, Note_on_c, 2, 44, 90
3, 14820, Note_off_c, 2, 44, 0
3, 14880, Note_on_c, 2, 45, 90
3, 15000, Note_off_c, 2, 45, 0
3, 15000, Note_on_c, 2, 38, 90
3, 15120, Note_off_c, 2, 38, 0
3, 15120, Note_on_c, 2, 41, 90
3, 15240, Note_off_c, 2, 41, 0
3, 15240, Note_on_c, 2, 45, 90
3, 15360, Note_off_c, 2, 45, 0
3, 15360, Note_on_c, 2, 50, 90
3, 15480, Note_off_c, 2, 50, 0
3, 15960, Note_on_c, 2, 62, 90
3, 16080, Note_off_c, 2, 62, 0
3, 16080, Note_on_c, 2, 60, 90
3, 16200, Note_off_c, 2, 60, 0
3, 16200, Note_on_c, 2, 59, 90
3, 16320, Note_off_c, 2, 59, 0
3, 16320, Note_on_c, 2, 58, 90
3, 16440, Note_off_c, 2, 58, 0
3, 17040, Note_on_c, 2, 58, 90
3, 17220, Note_off_c, 2, 58, 0
3, 17280, Note_on_c, 2, 63, 90
3, 17460, Note_off_c, 2, 63, 0
3, 17520, Note_on_c, 2, 62, 90
3, 17640, Note_off_c, 2, 62, 0
3, 17640, Note_on_c, 2, 60, 90
3, 17760, Note_off_c, 2, 60, 0
3, 17760, Note_on_c, 2, 58, 90
3, 17880, Note_off_c, 2, 58, 0
3, 17880, Note_on_c, 2, 56, 90
3, 18000, Note_off_c, 2, 56, 0
3, 18000, Note_on_c, 2, 55, 90
3, 18120, Note_off_c, 2, 55, 0
3, 18120, Note_on_c, 2, 53, 90
3, 18240, Note_off_c, 2, 53, 0
3, 18240, Note_on_c, 2, 51, 90
3, 18360, Note_off_c, 2, 51, 0
3, 18360, Note_on_c, 2, 47, 90
3, 18480, Note_off_c, 2, 47, 0
3, 18480, Note_on_c, 2, 50, 90
3, 18600, Note_off_c, 2, 50, 0
3, 18600, Note_on_c, 2, 54, 90
3, 18720, Note_off_c, 2, 54, 0
3, 18720, Note_on_c, 2, 59, 90
3, 18900, Note_off_c, 2, 59, 0
3, 18960, Note_on_c, 2, 55, 90
3, 19140, Note_off_c, 2, 55, 0
3, 19200, Note_on_c, 2, 60, 90
3, 19320, Note_off_c, 2, 60, 0
3, 19320, Note_on_c, 2, 62, 90
3, 19440, Note_off_c, 2, 62, 0
3, 19440, Note_on_c, 2, 64, 90
3, 19620, Note_off_c, 2, 64, 0
3, 19680, Note_on_c, 2, 55, 90
3, 19860, Note_off_c, 2, 55, 0
3, 19920, Note_on_c, 2, 64, 90
3, 20100, Note_off_c, 2, 64, 0
3, 20160, Note_on_c, 2, 59, 90
3, 20280, Note_off_c, 2, 59, 0
3, 20280, Note_on_c, 2, 60, 90
3, 20400, Note_off_c, 2, 60, 0
3, 20400, Note_on_c, 2, 62, 90
3, 20580, Note_off_c, 2, 62, 0
3, 20640, Note_on_c, 2, 53, 90
3, 20820, Note_off_c, 2, 53, 0
3, 20880, Note_on_c, 2, 62, 90
3, 21060, Note_off_c, 2, 62, 0
3, 21120, Note_on_c, 2, 52, 90
3, 21300, Note_off_c, 2, 52, 0
3, 21360, Note_on_c, 2, 62, 90
3, 21540, Note_off_c, 2, 62, 0
3, 21600, Note_on_c, 2, 50, 90
3, 21780, Note_off_c, 2, 50, 0
3, 21840, Note_on_c, 2, 60, 90
3, 22020, Note_off_c, 2, 60, 0
3, 22080, Note_on_c, 2, 59, 90
3, 22260, Note_off_c, 2, 59, 0
3, 22320, Note_on_c, 2, 48, 90
3, 22500, Note_off_c, 2, 48, 0
3, 22560, Note_on_c, 2, 47, 90
3, 22680, Note_off_c, 2, 47, 0
3, 22680, Note_on_c, 2, 45, 90
3, 22800, Note_off_c, 2, 45, 0
3, 22800, Note_on_c, 2, 47, 90
3, 22980, Note_off_c, 2, 47, 0
3, 23040, Note_on_c, 2, 48, 90
3, 23220, Note_off_c, 2, 48, 0
3, 23280, Note_on_c, 2, 36, 90
3, 23460, Note_off_c, 2, 36, 0
3, 25680, Note_on_c, 2, 38, 90
3, 25860, Note_off_c, 2, 38, 0
3, 25920, Note_on_c, 2, 43, 90
3, 26880, Note_off_c, 2, 43, 0
3, 26880, Note_on_c, 2, 43, 90
3, 27120, Note_off_c, 2, 43, 0
3, 27120, Note_on_c, 2, 36, 90
3, 27300, Note_off_c, 2, 36, 0
3, 27360, Note_on_c, 2, 42, 90
3, 27840, Note_off_c, 2, 42, 0
3, 27840, Note_on_c, 2, 42, 90
3, 28080, Note_off_c, 2, 42, 0
3, 28080, Note_on_c, 2, 35, 90
3, 28260, Note_off_c, 2, 35, 0
3, 28320, Note_on_c, 2, 40, 90
3, 28800, Note_off_c, 2, 40, 0
3, 28800, Note_on_c, 2, 40, 90
3, 29040, Note_off_c, 2, 40, 0
3, 30840, Note_on_c, 2, 43, 90
3, 30960, Note_off_c, 2, 43, 0
3, 30960, Note_on_c, 2, 46, 90
3, 31080, Note_off_c, 2, 46, 0
3, 31080, Note_on_c, 2, 50, 90
3, 31200, Note_off_c, 2, 50, 0
3, 31200, Note_on_c, 2, 55, 90
3, 31320, Note_off_c, 2, 55, 0
3, 31800, Note_on_c, 2, 50, 90
3, 31920, Note_off_c, 2, 50, 0
3, 31920, Note_on_c, 2, 53, 90
3, 32040, Note_off_c, 2, 53, 0
3, 32040, Note_on_c, 2, 57, 90
3, 32160, Note_off_c, 2, 57, 0
3, 32160, Note_on_c, 2, 62, 90
3, 32280, Note_off_c, 2, 62, 0
3, 33360, Note_on_c, 2, 64, 90
3, 33480, Note_off_c, 2, 64, 0
3, 33480, Note_on_c, 2, 62, 90
3, 33600, Note_off_c, 2, 62, 0
3, 33600, Note_on_c, 2, 60, 90
3, 33780, Note_off_c, 2, 60, 0
3, 33840, Note_on_c, 2, 59, 90
3, 33960, Note_off_c, 2, 59, 0
3, 33960, Note_on_c, 2, 57, 90
3, 34080, Note_off_c, 2, 57, 0
3, 34080, Note_on_c, 2, 55, 90
3, 34260, Note_off_c, 2, 55, 0
3, 34320, Note_on_c, 2, 54, 90
3, 34440, Note_off_c, 2, 54, 0
3, 34440, Note_on_c, 2, 52, 90
3, 34560, Note_off_c, 2, 52, 0
3, 34560, Note_on_c, 2, 54, 90
3, 34800, Note_off_c, 2, 54, 0
3, 35280, Note_on_c, 2, 37, 90
3, 35460, Note_off_c, 2, 37, 0
3, 35520, Note_on_c, 2, 42, 90
3, 36480, Note_off_c, 2, 42, 0
3, 36480, Note_on_c, 2, 42, 90
3, 36720, Note_off_c, 2, 42, 0
3, 36720, Note_on_c, 2, 47, 90
3, 36900, Note_off_c, 2, 47, 0
3, 36960, Note_on_c, 2, 52, 90
3, 37140, Note_off_c, 2, 52, 0
3, 37200, Note_on_c, 2, 40, 90
3, 37440, Note_off_c, 2, 40, 0
3, 37440, Note_on_c, 2, 40, 90
3, 37680, Note_off_c, 2, 40, 0
3, 37680, Note_on_c, 2, 45, 90
3, 37860, Note_off_c, 2, 45, 0
3, 37920, Note_on_c, 2, 38, 90
3, 38400, Note_off_c, 2, 38, 0
3, 38400, Note_on_c, 2, 38, 90
3, 38640, Note_off_c, 2, 38, 0
3, 38640, Note_on_c, 2, 34, 90
3, 38820, Note_off_c, 2, 34, 0
3, 38880, Note_on_c, 2, 39, 90
3, 39060, Note_off_c, 2, 39, 0
3, 39120, Note_on_c, 2, 41, 90
3, 39240, Note_off_c, 2, 41, 0
3, 39240, Note_on_c, 2, 42, 90
3, 39360, Note_off_c, 2, 42, 0
3, 39360, Note_on_c, 2, 44, 90
3, 39480, Note_off_c, 2, 44, 0
3, 39480, Note_on_c, 2, 46, 90
3, 39600, Note_off_c, 2, 46, 0
3, 39600, Note_on_c, 2, 47, 90
3, 39720, Note_off_c, 2, 47, 0
3, 39720, Note_on_c, 2, 49, 90
3, 39840, Note_off_c, 2, 49, 0
3, 39840, Note_on_c, 2, 51, 90
3, 39960, Note_off_c, 2, 51, 0
3, 39960, Note_on_c, 2, 53, 90
3, 40080, Note_off_c, 2, 53, 0
3, 40080, Note_on_c, 2, 54, 90
3, 40200, Note_off_c, 2, 54, 0
3, 40200, Note_on_c, 2, 56, 90
3, 40320, Note_off_c, 2, 56, 0
3, 40320, Note_on_c, 2, 58, 90
3, 40440, Note_off_c, 2, 58, 0
3, 40440, Note_on_c, 2, 60, 90
3, 40560, Note_off_c, 2, 60, 0
3, 40560, Note_on_c, 2, 61, 90
3, 40800, Note_off_c, 2, 61, 0
3, 40800, Note_on_c, 2, 53, 90
3, 40980, Note_off_c, 2, 53, 0
3, 41040, Note_on_c, 2, 61, 90
3, 41220, Note_off_c, 2, 61, 0
3, 41280, Note_on_c, 2, 57, 90
3, 41400, Note_off_c, 2, 57, 0
3, 41400, Note_on_c, 2, 58, 90
3, 41520, Note_off_c, 2, 58, 0
3, 41520, Note_on_c, 2, 60, 90
3, 41760, Note_off_c, 2, 60, 0
3, 41760, Note_on_c, 2, 51, 90
3, 41940, Note_off_c, 2, 51, 0
3, 42000, Note_on_c, 2, 60, 90
3, 42180, Note_off_c, 2, 60, 0
3, 42240, Note_on_c, 2, 49, 90
3, 42420, Note_off_c, 2, 49, 0
3, 42480, Note_on_c, 2, 60, 90
3, 42660, Note_off_c, 2, 60, 0
3, 42720, Note_on_c, 2, 48, 90
3, 42900, Note_off_c, 2, 48, 0
3, 42960, Note_on_c, 2, 58, 90
3, 43140, Note_off_c, 2, 58, 0
3, 43200, Note_on_c, 2, 56, 90
3, 43380, Note_off_c, 2, 56, 0
3, 43440, Note_on_c, 2, 46, 90
3, 43620, Note_off_c, 2, 46, 0
3, 43680, Note_on_c, 2, 45, 90
3, 43800, Note_off_c, 2, 45, 0
3, 43800, Note_on_c, 2, 43, 90
3, 43920, Note_off_c, 2, 43, 0
3, 43920, Note_on_c, 2, 45, 90
3, 44160, Note_off_c, 2, 45, 0
3, 44160, Note_on_c, 2, 46, 90
3, 44340, Note_off_c, 2, 46, 0
3, 44400, Note_on_c, 2, 34, 90
3, 44580, Note_off_c, 2, 34, 0
3, 46080, Note_on_c, 2, 64, 90
3, 47280, Note_off_c, 2, 64, 0
3, 47280, Note_on_c, 2, 67, 90
3, 47460, Note_off_c, 2, 67, 0
3, 47520, Note_on_c, 2, 72, 90
3, 47700, Note_off_c, 2, 72, 0
3, 48120, Note_on_c, 2, 63, 90
3, 48240, Note_off_c, 2, 63, 0
3, 48240, Note_on_c, 2, 66, 90
3, 48360, Note_off_c, 2, 66, 0
3, 48360, Note_on_c, 2, 70, 90
3, 48480, Note_off_c, 2, 70, 0
3, 48600, Note_on_c, 2, 53, 90
3, 48720, Note_off_c, 2, 53, 0
3, 48720, Note_on_c, 2, 57, 90
3, 48840, Note_off_c, 2, 57, 0
3, 48840, Note_on_c, 2, 60, 90
3, 48960, Note_off_c, 2, 60, 0
3, 48960, Note_on_c, 2, 65, 90
3, 49080, Note_off_c, 2, 65, 0
3, 49080, Note_on_c, 2, 63, 90
3, 49200, Note_off_c, 2, 63, 0
3, 49200, Note_on_c, 2, 62, 90
3, 49320, Note_off_c, 2, 62, 0
3, 49320, Note_on_c, 2, 60, 90
3, 49440, Note_off_c, 2, 60, 0
3, 49440, Note_on_c, 2, 58, 90
3, 49620, Note_off_c, 2, 58, 0
3, 49680, Note_on_c, 2, 58, 90
3, 49860, Note_off_c, 2, 58, 0
3, 50160, Note_on_c, 2, 57, 90
3, 50340, Note_off_c, 2, 57, 0
3, 50640, Note_on_c, 2, 55, 90
3, 50820, Note_off_c, 2, 55, 0
3, 50880, Note_on_c, 2, 53, 90
3, 51060, Note_off_c, 2, 53, 0
3, 51120, Note_on_c, 2, 52, 90
3, 51300, Note_off_c, 2, 52, 0
3, 51360, Note_on_c, 2, 50, 90
3, 51480, Note_off_c, 2, 50, 0
3, 51480, Note_on_c, 2, 51, 90
3, 51600, Note_off_c, 2, 51, 0
3, 51600, Note_on_c, 2, 54, 90
3, 51720, Note_off_c, 2, 54, 0
3, 51720, Note_on_c, 2, 58, 90
3, 51840, Note_off_c, 2, 58, 0
3, 51840, Note_on_c, 2, 63, 90
3, 52020, Note_off_c, 2, 63, 0
3, 52080, Note_on_c, 2, 64, 90
3, 52260, Note_off_c, 2, 64, 0
3, 52320, Note_on_c, 2, 69, 90
3, 52500, Note_off_c, 2, 69, 0
3, 52560, Note_on_c, 2, 57, 90
3, 52740, Note_off_c, 2, 57, 0
3, 53520, Note_on_c, 2, 52, 90
3, 53700, Note_off_c, 2, 52, 0
3, 53760, Note_on_c, 2, 57, 90
3, 54720, Note_off_c, 2, 57, 0
3, 54720, Note_on_c, 2, 57, 90
3, 54960, Note_off_c, 2, 57, 0
3, 54960, Note_on_c, 2, 50, 90
3, 55140, Note_off_c, 2, 50, 0
3, 55200, Note_on_c, 2, 55, 90
3, 55680, Note_off_c, 2, 55, 0
3, 55680, Note_on_c, 2, 55, 90
3, 55920, Note_off_c, 2, 55, 0
3, 55920, Note_on_c, 2, 48, 90
3, 56100, Note_off_c, 2, 48, 0
3, 56160, Note_on_c, 2, 53, 90
3, 56340, Note_off_c, 2, 53, 0
3, 56400, Note_on_c, 2, 49, 90
3, 56520, Note_off_c, 2, 49, 0
3, 56520, Note_on_c, 2, 51, 90
3, 56640, Note_off_c, 2, 51, 0
3, 56640, Note_on_c, 2, 52, 90
3, 56820, Note_off_c, 2, 52, 0
3, 56880, Note_on_c, 2, 44, 90
3, 57060, Note_off_c, 2, 44, 0
3, 57120, Note_on_c, 2, 52, 90
3, 57300, Note_off_c, 2, 52, 0
3, 57360, Note_on_c, 2, 48, 90
3, 57480, Note_off_c, 2, 48, 0
3, 57480, Note_on_c, 2, 49, 90
3, 57600, Note_off_c, 2, 49, 0
3, 57600, Note_on_c, 2, 51, 90
3, 57780, Note_off_c, 2, 51, 0
3, 57840, Note_on_c, 2, 42, 90
3, 58020, Note_off_c, 2, 42, 0
3, 58080, Note_on_c, 2, 51, 90
3, 58260, Note_off_c, 2, 51, 0
3, 58320, Note_on_c, 2, 40, 90
3, 58500, Note_off_c, 2, 40, 0
3, 58560, Note_on_c, 2, 51, 90
3, 58740, Note_off_c, 2, 51, 0
3, 58800, Note_on_c, 2, 39, 90
3, 58980, Note_off_c, 2, 39, 0
3, 59040, Note_on_c, 2, 49, 90
3, 59220, Note_off_c, 2, 49, 0
3, 59280, Note_on_c, 2, 47, 90
3, 59460, Note_off_c, 2, 47, 0
3, 59520, Note_on_c, 2, 37, 90
3, 59700, Note_off_c, 2, 37, 0
3, 59760, Note_on_c, 2, 36, 90
3, 59880, Note_off_c, 2, 36, 0
3, 59880, Note_on_c, 2, 34, 90
3, 60000, Note_off_c, 2, 34, 0
3, 60000, Note_on_c, 2, 36, 90
3, 60480, Note_off_c, 2, 36, 0
3, 60600, Note_on_c, 2, 38, 90
3, 60720, Note_off_c, 2, 38, 0
3, 60720, Note_on_c, 2, 40, 90
3, 60840, Note_off_c, 2, 40, 0
3, 60840, Note_on_c, 2, 41, 90
3, 60960, Note_off_c, 2, 41, 0
3, 60960, Note_on_c, 2, 43, 90
3, 61080, Note_off_c, 2, 43, 0
3, 61080, Note_on_c, 2, 45, 90
3, 61200, Note_off_c, 2, 45, 0
3, 61200, Note_on_c, 2, 47, 90
3, 61320, Note_off_c, 2, 47, 0
3, 61320, Note_on_c, 2, 48, 90
3, 61440, Note_off_c, 2, 48, 0
3, 61440, Note_on_c, 2, 50, 90
3, 61620, Note_off_c, 2, 50, 0
3, 61680, Note_on_c, 2, 52, 90
3, 61860, Note_off_c, 2, 52, 0
3, 61920, Note_on_c, 2, 53, 90
3, 62100, Note_off_c, 2, 53, 0
3, 63120, Note_on_c, 2, 52, 90
3, 63300, Note_off_c, 2, 52, 0
3, 63360, Note_on_c, 2, 57, 90
3, 63540, Note_off_c, 2, 57, 0
3, 63600, Note_on_c, 2, 53, 90
3, 63780, Note_off_c, 2, 53, 0
3, 63840, Note_on_c, 2, 58, 90
3, 64320, Note_off_c, 2, 58, 0
3, 64320, Note_on_c, 2, 58, 90
3, 64800, Note_off_c, 2, 58, 0
3, 64800, Note_on_c, 2, 58, 90
3, 65280, Note_off_c, 2, 58, 0
3, 65280, Note_on_c, 2, 58, 90
3, 65760, Note_off_c, 2, 58, 0
3, 65760, Note_on_c, 2, 58, 90
3, 66240, Note_off_c, 2, 58, 0
3, 66240, Note_on_c, 2, 60, 90
3, 66420, Note_off_c, 2, 60, 0
3, 66480, Note_on_c, 2, 62, 90
3, 66660, Note_off_c, 2, 62, 0
3, 66720, Note_on_c, 2, 64, 90
3, 66900, Note_off_c, 2, 64, 0
3, 66960, Note_on_c, 2, 52, 90
3, 67140, Note_off_c, 2, 52, 0
3, 67200, Note_on_c, 2, 57, 90
3, 67320, Note_off_c, 2, 57, 0
3, 67320, Note_on_c, 2, 59, 90
3, 67440, Note_off_c, 2, 59, 0
3, 67440, Note_on_c, 2, 60, 90
3, 67620, Note_off_c, 2, 60, 0
3, 67680, Note_on_c, 2, 52, 90
3, 67860, Note_off_c, 2, 52, 0
3, 67920, Note_on_c, 2, 60, 90
3, 68100, Note_off_c, 2, 60, 0
3, 68160, Note_on_c, 2, 57, 90
3, 68280, Note_off_c, 2, 57, 0
3, 68280, Note_on_c, 2, 59, 90
3, 68400, Note_off_c, 2, 59, 0
3, 68400, Note_on_c, 2, 60, 90
3, 68580, Note_off_c, 2, 60, 0
3, 68640, Note_on_c, 2, 52, 90
3, 68820, Note_off_c, 2, 52, 0
3, 68880, Note_on_c, 2, 60, 90
3, 69060, Note_off_c, 2, 60, 0
3, 69120, Note_on_c, 2, 57, 90
3, 69240, Note_off_c, 2, 57, 0
3, 69240, Note_on_c, 2, 59, 90
3, 69360, Note_off_c, 2, 59, 0
3, 69360, Note_on_c, 2, 60, 90
3, 69540, Note_off_c, 2, 60, 0
3, 69600, Note_on_c, 2, 52, 90
3, 69780, Note_off_c, 2, 52, 0
3, 69840, Note_on_c, 2, 60, 90
3, 70020, Note_off_c, 2, 60, 0
3, 70080, Note_on_c, 2, 57, 90
3, 70200, Note_off_c, 2, 57, 0
3, 70200, Note_on_c, 2, 59, 90
3, 70320, Note_off_c, 2, 59, 0
3, 70320, Note_on_c, 2, 60, 90
3, 70500, Note_off_c, 2, 60, 0
3, 70560, Note_on_c, 2, 52, 90
3, 70740, Note_off_c, 2, 52, 0
3, 70800, Note_on_c, 2, 60, 90
3, 70980, Note_off_c, 2, 60, 0
3, 71280, Note_on_c, 2, 52, 90
3, 71460, Note_off_c, 2, 52, 0
3, 71520, Note_on_c, 2, 57, 90
3, 72000, Note_off_c, 2, 57, 0
3, 72240, Note_on_c, 2, 52, 90
3, 72420, Note_off_c, 2, 52, 0
3, 72480, Note_on_c, 2, 57, 90
3, 72960, Note_off_c, 2, 57, 0
3, 73200, Note_on_c, 2, 53, 90
3, 73380, Note_off_c, 2, 53, 0
3, 73440, Note_on_c, 2, 56, 90
3, 73620, Note_off_c, 2, 56, 0
3, 73680, Note_on_c, 2, 58, 90
3, 73860, Note_off_c, 2, 58, 0
3, 73920, Note_on_c, 2, 60, 90
3, 74100, Note_off_c, 2, 60, 0
3, 74160, Note_on_c, 2, 62, 90
3, 74340, Note_off_c, 2, 62, 0
3, 74400, Note_on_c, 2, 63, 90
3, 74580, Note_off_c, 2, 63, 0
3, 74640, Note_on_c, 2, 52, 90
3, 74820, Note_off_c, 2, 52, 0
3, 74880, Note_on_c, 2, 57, 90
3, 75060, Note_off_c, 2, 57, 0
3, 75120, Note_on_c, 2, 55, 90
3, 75240, Note_off_c, 2, 55, 0
3, 75240, Note_on_c, 2, 53, 90
3, 75360, Note_off_c, 2, 53, 0
3, 75360, Note_on_c, 2, 52, 90
3, 75480, Note_off_c, 2, 52, 0
3, 75480, Note_on_c, 2, 50, 90
3, 75600, Note_off_c, 2, 50, 0
3, 75600, Note_on_c, 2, 48, 90
3, 75720, Note_off_c, 2, 48, 0
3, 75720, Note_on_c, 2, 47, 90
3, 75840, Note_off_c, 2, 47, 0
3, 75840, Note_on_c, 2, 45, 90
3, 76020, Note_off_c, 2, 45, 0
3, 76020, End_track
0, 0, End_of_file