0, 0, Header, 1, 12, 480
1, 0, Start_track
1, 0, Text_t, "D. SHOSTAKOVICH - Fugue in A minor opus 87 no. 2"
1, 0, Tempo, 468750
1, 0, Time_signature, 2, 2, 24, 8
1, 0, Key_signature, 0, "major"
1, 0, End_track
2, 0, Start_track
2, 0, Title_t, "high voice"
2, 0, MIDI_port, 0
2, 0, Channel_prefix, 0
2, 0, Control_c, 0, 7, 127
2, 0, Control_c, 0, 10, 71
2, 0, Program_c, 0, 0
2, 0, Control_c, 0, 121, 0
2, 1, Control_c, 0, 91, 50
2, 9600, Control_c, 0, 11, 110
2, 9600, Note_on_c, 0, 81, 105
2, 9720, Note_off_c, 0, 81, 58
2, 9720, Note_on_c, 0, 83, 80
2, 9840, Note_off_c, 0, 83, 58
2, 9840, Note_on_c, 0, 84, 80
2, 10020, Note_off_c, 0, 84, 58
2, 10080, Note_on_c, 0, 76, 80
2, 10260, Note_off_c, 0, 76, 58
2, 10320, Note_on_c, 0, 84, 80
2, 10500, Note_off_c, 0, 84, 58
2, 10560, Note_on_c, 0, 80, 105
2, 10680, Note_off_c, 0, 80, 58
2, 10680, Note_on_c, 0, 81, 80
2, 10800, Note_off_c, 0, 81, 58
2, 10800, Note_on_c, 0, 83, 80
2, 10980, Note_off_c, 0, 83, 58
2, 11040, Note_on_c, 0, 74, 80
2, 11220, Note_off_c, 0, 74, 58
2, 11280, Note_on_c, 0, 83, 80
2, 11460, Note_off_c, 0, 83, 58
2, 11520, Note_on_c, 0, 72, 80
2, 11700, Note_off_c, 0, 72, 58
2, 11760, Note_on_c, 0, 83, 80
2, 11940, Note_off_c, 0, 83, 58
2, 12000, Note_on_c, 0, 71, 80
2, 12180, Note_off_c, 0, 71, 58
2, 12240, Note_on_c, 0, 81, 80
2, 12420, Note_off_c, 0, 81, 58
2, 12480, Note_on_c, 0, 79, 80
2, 12660, Note_off_c, 0, 79, 58
2, 12720, Note_on_c, 0, 69, 80
2, 12900, Note_off_c, 0, 69, 58
2, 12960, Note_on_c, 0, 68, 105
2, 13080, Note_off_c, 0, 68, 58
2, 13080, Note_on_c, 0, 66, 80
2, 13200, Note_off_c, 0, 66, 58
2, 13200, Note_on_c, 0, 68, 80
2, 13380, Note_off_c, 0, 68, 58
2, 13440, Note_on_c, 0, 69, 80
2, 13920, Control_c, 0, 11, 100
2, 14400, Note_off_c, 0, 69, 58
2, 15120, Note_on_c, 0, 77, 82
2, 15300, Note_off_c, 0, 77, 58
2, 15360, Note_on_c, 0, 82, 110
2, 16073, Note_off_c, 0, 82, 58
2, 16080, Note_on_c, 0, 76, 85
2, 16260, Note_off_c, 0, 76, 58
2, 16320, Note_on_c, 0, 81, 115
2, 17513, Note_off_c, 0, 81, 58
2, 17520, Note_on_c, 0, 74, 90
2, 17700, Note_off_c, 0, 74, 58
2, 17760, Note_on_c, 0, 79, 90
2, 18473, Note_off_c, 0, 79, 58
2, 18480, Note_on_c, 0, 77, 92
2, 18570, Note_off_c, 0, 77, 58
2, 18600, Note_on_c, 0, 75, 92
2, 18690, Note_off_c, 0, 75, 58
2, 18720, Note_on_c, 0, 74, 92
2, 18810, Note_off_c, 0, 74, 58
2, 18840, Note_on_c, 0, 72, 92
2, 18930, Note_off_c, 0, 72, 58
2, 18960, Note_on_c, 0, 70, 92
2, 19050, Note_off_c, 0, 70, 58
2, 19080, Note_on_c, 0, 69, 92
2, 19170, Note_off_c, 0, 69, 58
2, 19200, Note_on_c, 0, 67, 95
2, 19380, Note_off_c, 0, 67, 58
2, 19440, Note_on_c, 0, 72, 95
2, 19620, Note_off_c, 0, 72, 58
2, 19920, Note_on_c, 0, 79, 95
2, 20100, Note_off_c, 0, 79, 58
2, 20160, Note_on_c, 0, 84, 120
2, 21353, Note_off_c, 0, 84, 58
2, 21360, Note_on_c, 0, 77, 95
2, 21540, Note_off_c, 0, 77, 58
2, 21600, Note_on_c, 0, 83, 120
2, 22313, Note_off_c, 0, 83, 58
2, 22320, Note_on_c, 0, 76, 95
2, 22500, Note_off_c, 0, 76, 58
2, 22560, Note_on_c, 0, 81, 120
2, 23273, Note_off_c, 0, 81, 58
2, 23280, Note_on_c, 0, 77, 95
2, 23460, Note_off_c, 0, 77, 58
2, 23520, Note_on_c, 0, 82, 95
2, 23700, Note_off_c, 0, 82, 58
2, 23760, Note_on_c, 0, 81, 96
2, 23850, Note_off_c, 0, 81, 58
2, 23880, Note_on_c, 0, 79, 98
2, 23970, Note_off_c, 0, 79, 58
2, 24000, Note_on_c, 0, 77, 100
2, 24090, Note_off_c, 0, 77, 58
2, 24120, Note_on_c, 0, 75, 100
2, 24210, Note_off_c, 0, 75, 58
2, 24240, Note_on_c, 0, 74, 100
2, 24330, Note_off_c, 0, 74, 58
2, 24360, Note_on_c, 0, 72, 100
2, 24450, Note_off_c, 0, 72, 58
2, 24480, Note_on_c, 0, 70, 100
2, 24570, Note_off_c, 0, 70, 58
2, 24600, Note_on_c, 0, 67, 100
2, 24690, Note_off_c, 0, 67, 58
2, 24720, Note_on_c, 0, 71, 100
2, 24810, Note_off_c, 0, 71, 58
2, 24840, Note_on_c, 0, 74, 100
2, 24930, Note_off_c, 0, 74, 58
2, 24960, Note_on_c, 0, 79, 105
2, 25140, Note_off_c, 0, 79, 58
2, 29520, Note_on_c, 0, 69, 105
2, 29700, Note_off_c, 0, 69, 58
2, 29760, Note_on_c, 0, 74, 127
2, 30356, Note_off_c, 0, 74, 58
2, 30360, Note_on_c, 0, 75, 100
2, 30480, Note_off_c, 0, 75, 58
2, 30480, Note_on_c, 0, 74, 95
2, 30600, Note_off_c, 0, 74, 58
2, 30600, Note_on_c, 0, 72, 90
2, 30720, Note_off_c, 0, 72, 58
2, 30720, Note_on_c, 0, 70, 85
2, 30953, Note_off_c, 0, 70, 58
2, 30960, Note_on_c, 0, 79, 85
2, 31080, Note_off_c, 0, 79, 58
2, 31080, Note_on_c, 0, 81, 85
2, 31200, Note_off_c, 0, 81, 58
2, 31200, Note_on_c, 0, 82, 85
2, 31380, Note_off_c, 0, 82, 58
2, 31440, Note_on_c, 0, 73, 85
2, 31620, Note_off_c, 0, 73, 58
2, 31920, Note_on_c, 0, 74, 85
2, 32040, Note_off_c, 0, 74, 58
2, 32040, Note_on_c, 0, 76, 85
2, 32160, Note_off_c, 0, 76, 58
2, 32160, Note_on_c, 0, 77, 85
2, 32340, Note_off_c, 0, 77, 58
2, 32400, Note_on_c, 0, 68, 85
2, 32580, Note_off_c, 0, 68, 58
2, 32880, Note_on_c, 0, 73, 85
2, 33000, Note_off_c, 0, 73, 58
2, 33000, Note_on_c, 0, 74, 85
2, 33120, Note_off_c, 0, 74, 58
2, 33120, Note_on_c, 0, 76, 85
2, 33300, Note_off_c, 0, 76, 58
2, 33360, Note_on_c, 0, 67, 85
2, 33540, Note_off_c, 0, 67, 58
2, 34560, Note_on_c, 0, 78, 125
2, 34560, Control_c, 0, 11, 115
2, 34680, Note_off_c, 0, 78, 58
2, 34680, Note_on_c, 0, 80, 100
2, 34800, Note_off_c, 0, 80, 58
2, 34800, Note_on_c, 0, 81, 100
2, 34980, Note_off_c, 0, 81, 58
2, 35040, Note_on_c, 0, 73, 100
2, 35220, Note_off_c, 0, 73, 58
2, 35280, Note_on_c, 0, 81, 100
2, 35460, Note_off_c, 0, 81, 58
2, 35520, Note_on_c, 0, 77, 125
2, 35640, Note_off_c, 0, 77, 58
2, 35640, Note_on_c, 0, 78, 100
2, 35760, Note_off_c, 0, 78, 58
2, 35760, Note_on_c, 0, 80, 100
2, 35940, Note_off_c, 0, 80, 58
2, 36000, Note_on_c, 0, 71, 100
2, 36180, Note_off_c, 0, 71, 58
2, 36240, Note_on_c, 0, 80, 100
2, 36420, Note_off_c, 0, 80, 58
2, 36480, Note_on_c, 0, 69, 100
2, 36660, Note_off_c, 0, 69, 58
2, 36720, Note_on_c, 0, 80, 100
2, 36900, Note_off_c, 0, 80, 58
2, 36960, Note_on_c, 0, 68, 100
2, 37140, Note_off_c, 0, 68, 58
2, 37200, Note_on_c, 0, 78, 100
2, 37380, Note_off_c, 0, 78, 58
2, 37440, Note_on_c, 0, 76, 100
2, 37620, Note_off_c, 0, 76, 58
2, 37680, Note_on_c, 0, 66, 100
2, 37860, Note_off_c, 0, 66, 58
2, 37920, Note_on_c, 0, 65, 126
2, 38040, Note_off_c, 0, 65, 58
2, 38040, Note_on_c, 0, 63, 102
2, 38160, Note_off_c, 0, 63, 58
2, 38160, Note_on_c, 0, 65, 105
2, 38340, Note_off_c, 0, 65, 58
2, 38400, Note_on_c, 0, 66, 105
2, 38580, Note_off_c, 0, 66, 58
2, 38640, Note_on_c, 0, 54, 105
2, 38820, Note_off_c, 0, 54, 58
2, 38880, Control_c, 0, 11, 100
2, 39120, Note_on_c, 0, 78, 105
2, 39300, Note_off_c, 0, 78, 58
2, 39360, Note_on_c, 0, 83, 127
2, 40073, Note_off_c, 0, 83, 58
2, 40080, Note_on_c, 0, 77, 105
2, 40260, Note_off_c, 0, 77, 58
2, 40320, Note_on_c, 0, 82, 127
2, 40800, Note_off_c, 0, 82, 58
2, 41520, Note_on_c, 0, 87, 105
2, 41640, Note_off_c, 0, 87, 58
2, 41640, Note_on_c, 0, 89, 105
2, 41760, Note_off_c, 0, 89, 58
2, 41760, Note_on_c, 0, 90, 105
2, 41940, Note_off_c, 0, 90, 58
2, 42000, Note_on_c, 0, 81, 105
2, 42180, Note_off_c, 0, 81, 58
2, 42480, Note_on_c, 0, 82, 105
2, 42600, Note_off_c, 0, 82, 58
2, 42600, Note_on_c, 0, 84, 105
2, 42720, Note_off_c, 0, 84, 58
2, 42720, Note_on_c, 0, 85, 105
2, 42900, Note_off_c, 0, 85, 58
2, 42960, Note_on_c, 0, 76, 105
2, 43140, Note_off_c, 0, 76, 58
2, 43440, Note_on_c, 0, 81, 105
2, 43560, Note_off_c, 0, 81, 58
2, 43560, Note_on_c, 0, 82, 105
2, 43680, Note_off_c, 0, 82, 58
2, 43680, Note_on_c, 0, 84, 105
2, 43860, Note_off_c, 0, 84, 58
2, 43920, Note_on_c, 0, 75, 105
2, 44100, Note_off_c, 0, 75, 58
2, 44160, Note_on_c, 0, 82, 105
2, 44340, Note_off_c, 0, 82, 58
2, 44400, Note_on_c, 0, 74, 105
2, 44580, Note_off_c, 0, 74, 58
2, 44640, Note_on_c, 0, 81, 105
2, 44820, Note_off_c, 0, 81, 58
2, 44880, Note_on_c, 0, 72, 105
2, 45060, Note_off_c, 0, 72, 58
2, 45120, Note_on_c, 0, 70, 105
2, 45300, Note_off_c, 0, 70, 58
2, 45360, Note_on_c, 0, 69, 105
2, 45540, Note_off_c, 0, 69, 58
2, 45600, Note_on_c, 0, 70, 105
2, 45780, Note_off_c, 0, 70, 58
2, 46200, Note_on_c, 0, 65, 105
2, 46290, Note_off_c, 0, 65, 58
2, 46320, Note_on_c, 0, 69, 105
2, 46410, Note_off_c, 0, 69, 58
2, 46440, Note_on_c, 0, 72, 105
2, 46530, Note_off_c, 0, 72, 58
2, 46680, Note_on_c, 0, 79, 103
2, 46770, Note_off_c, 0, 79, 58
2, 46800, Note_on_c, 0, 83, 101
2, 46890, Note_off_c, 0, 83, 58
2, 46920, Note_on_c, 0, 86, 98
2, 47010, Note_off_c, 0, 86, 58
2, 47040, Note_on_c, 0, 91, 95
2, 47130, Note_off_c, 0, 91, 58
2, 47160, Note_on_c, 0, 89, 99
2, 47250, Note_off_c, 0, 89, 58
2, 47280, Note_on_c, 0, 88, 103
2, 47370, Note_off_c, 0, 88, 58
2, 47400, Note_on_c, 0, 86, 105
2, 47490, Note_off_c, 0, 86, 58
2, 47520, Note_on_c, 0, 84, 105
2, 47610, Note_off_c, 0, 84, 58
2, 47640, Note_on_c, 0, 74, 105
2, 47730, Note_off_c, 0, 74, 58
2, 47760, Note_on_c, 0, 77, 105
2, 47850, Note_off_c, 0, 77, 58
2, 47880, Note_on_c, 0, 81, 105
2, 47970, Note_off_c, 0, 81, 58
2, 48000, Note_on_c, 0, 86, 127
2, 49193, Note_off_c, 0, 86, 58
2, 49200, Note_on_c, 0, 81, 105
2, 49380, Note_off_c, 0, 81, 58
2, 49440, Note_on_c, 0, 82, 105
2, 49620, Note_off_c, 0, 82, 58
2, 49680, Note_on_c, 0, 79, 105
2, 49860, Note_off_c, 0, 79, 58
2, 49920, Note_on_c, 0, 72, 105
2, 50100, Note_off_c, 0, 72, 58
2, 50160, Note_on_c, 0, 77, 105
2, 50340, Note_off_c, 0, 77, 58
2, 50400, Note_on_c, 0, 71, 105
2, 50580, Note_off_c, 0, 71, 58
2, 50640, Note_on_c, 0, 77, 105
2, 51000, Note_on_c, 0, 76, 105
2, 51003, Note_off_c, 0, 77, 58
2, 51090, Note_off_c, 0, 76, 58
2, 51120, Note_on_c, 0, 74, 105
2, 51210, Note_off_c, 0, 74, 58
2, 51240, Note_on_c, 0, 72, 105
2, 51330, Note_off_c, 0, 72, 58
2, 51360, Note_on_c, 0, 70, 105
2, 51540, Note_off_c, 0, 70, 58
2, 52080, Note_on_c, 0, 80, 95
2, 52560, Note_off_c, 0, 80, 58
2, 52560, Note_on_c, 0, 81, 90
2, 52680, Note_off_c, 0, 81, 58
2, 52680, Note_on_c, 0, 83, 85
2, 52800, Note_off_c, 0, 83, 58
2, 52800, Note_on_c, 0, 84, 80
2, 52980, Note_off_c, 0, 84, 58
2, 53040, Note_on_c, 0, 76, 80
2, 53220, Note_off_c, 0, 76, 58
2, 53280, Note_on_c, 0, 84, 80
2, 53460, Note_off_c, 0, 84, 58
2, 53520, Note_on_c, 0, 80, 80
2, 53640, Note_off_c, 0, 80, 58
2, 53640, Note_on_c, 0, 81, 80
2, 53760, Note_off_c, 0, 81, 58
2, 53760, Note_on_c, 0, 83, 80
2, 53940, Note_off_c, 0, 83, 58
2, 54000, Note_on_c, 0, 74, 80
2, 54180, Note_off_c, 0, 74, 58
2, 54240, Note_on_c, 0, 83, 80
2, 54420, Note_off_c, 0, 83, 58
2, 54480, Note_on_c, 0, 72, 80
2, 54660, Note_off_c, 0, 72, 58
2, 54720, Note_on_c, 0, 83, 80
2, 54900, Note_off_c, 0, 83, 58
2, 54960, Note_on_c, 0, 72, 80
2, 55140, Note_off_c, 0, 72, 58
2, 55200, Note_on_c, 0, 81, 80
2, 55380, Note_off_c, 0, 81, 58
2, 55440, Note_on_c, 0, 79, 80
2, 55620, Note_off_c, 0, 79, 58
2, 55680, Note_on_c, 0, 69, 80
2, 55860, Note_off_c, 0, 69, 58
2, 55920, Note_on_c, 0, 68, 80
2, 56010, Note_off_c, 0, 68, 58
2, 56040, Note_on_c, 0, 66, 80
2, 56130, Note_off_c, 0, 66, 58
2, 56160, Note_on_c, 0, 68, 80
2, 56340, Note_off_c, 0, 68, 58
2, 56640, Note_on_c, 0, 85, 105
2, 56820, Note_off_c, 0, 85, 58
2, 56880, Note_on_c, 0, 83, 80
2, 56970, Note_off_c, 0, 83, 58
2, 57000, Note_on_c, 0, 81, 80
2, 57090, Note_off_c, 0, 81, 58
2, 57120, Note_on_c, 0, 80, 80
2, 57210, Note_off_c, 0, 80, 58
2, 57240, Note_on_c, 0, 78, 80
2, 57330, Note_off_c, 0, 78, 58
2, 57360, Note_on_c, 0, 76, 80
2, 57450, Note_off_c, 0, 76, 58
2, 57480, Note_on_c, 0, 75, 80
2, 57570, Note_off_c, 0, 75, 58
2, 57600, Note_on_c, 0, 73, 79
2, 57690, Note_off_c, 0, 73, 58
2, 57720, Note_on_c, 0, 71, 78
2, 57810, Note_off_c, 0, 71, 58
2, 57840, Note_on_c, 0, 69, 77
2, 57930, Note_off_c, 0, 69, 58
2, 57960, Note_on_c, 0, 68, 76
2, 58050, Note_off_c, 0, 68, 58
2, 58080, Note_on_c, 0, 66, 75
2, 58170, Note_off_c, 0, 66, 58
2, 58200, Note_on_c, 0, 64, 75
2, 58320, Note_off_c, 0, 64, 58
2, 58320, Note_on_c, 0, 66, 75
2, 58440, Note_off_c, 0, 66, 58
2, 58440, Note_on_c, 0, 68, 75
2, 58560, Note_on_c, 0, 59, 75
2, 58570, Note_off_c, 0, 68, 58
2, 58740, Note_off_c, 0, 59, 58
2, 58800, Note_on_c, 0, 68, 75
2, 58980, Note_off_c, 0, 68, 58
2, 59040, Note_on_c, 0, 63, 75
2, 59160, Note_off_c, 0, 63, 58
2, 59160, Note_on_c, 0, 64, 75
2, 59280, Note_off_c, 0, 64, 58
2, 59280, Note_on_c, 0, 66, 75
2, 59520, Note_on_c, 0, 57, 75
2, 59527, Note_off_c, 0, 66, 58
2, 59700, Note_off_c, 0, 57, 58
2, 59760, Note_on_c, 0, 66, 76
2, 59940, Note_off_c, 0, 66, 58
2, 60116, Note_on_c, 0, 67, 77
2, 60236, Note_off_c, 0, 67, 58
2, 60236, Note_on_c, 0, 69, 78
2, 60356, Note_off_c, 0, 69, 58
2, 60356, Note_on_c, 0, 71, 80
2, 60476, Note_off_c, 0, 71, 58
2, 60480, Note_on_c, 0, 72, 82
2, 60660, Note_off_c, 0, 72, 58
2, 60720, Note_on_c, 0, 72, 86
2, 60900, Note_off_c, 0, 72, 58
2, 60960, Note_on_c, 0, 72, 90
2, 61080, Note_off_c, 0, 72, 58
2, 61080, Note_on_c, 0, 71, 92
2, 61200, Note_off_c, 0, 71, 58
2, 61200, Note_on_c, 0, 72, 95
2, 61440, Note_on_c, 0, 71, 100
2, 61447, Note_off_c, 0, 72, 58
2, 61560, Note_off_c, 0, 71, 58
2, 61560, Note_on_c, 0, 72, 100
2, 61680, Note_off_c, 0, 72, 58
2, 61680, Note_on_c, 0, 69, 100
2, 61800, Note_off_c, 0, 69, 58
2, 61800, Note_on_c, 0, 71, 100
2, 61920, Note_off_c, 0, 71, 58
2, 61920, Note_on_c, 0, 68, 100
2, 62100, Note_off_c, 0, 68, 58
2, 62160, Note_on_c, 0, 72, 100
2, 62340, Note_off_c, 0, 72, 58
2, 62400, Note_on_c, 0, 77, 125
2, 63476, Note_off_c, 0, 77, 58
2, 63480, Note_on_c, 0, 75, 100
2, 63570, Note_off_c, 0, 75, 58
2, 63600, Note_on_c, 0, 74, 100
2, 63690, Note_off_c, 0, 74, 58
2, 63720, Note_on_c, 0, 72, 100
2, 63810, Note_off_c, 0, 72, 58
2, 63840, Note_on_c, 0, 70, 100
2, 64020, Note_off_c, 0, 70, 58
2, 64080, Note_on_c, 0, 79, 100
2, 64260, Note_off_c, 0, 79, 58
2, 64320, Note_on_c, 0, 77, 100
2, 64440, Note_off_c, 0, 77, 58
2, 64440, Note_on_c, 0, 79, 102
2, 64560, Note_off_c, 0, 79, 58
2, 64560, Note_on_c, 0, 81, 103
2, 64740, Note_off_c, 0, 81, 58
2, 64800, Note_on_c, 0, 73, 104
2, 64980, Note_off_c, 0, 73, 58
2, 65040, Note_on_c, 0, 82, 105
2, 65220, Note_off_c, 0, 82, 58
2, 65280, Note_on_c, 0, 81, 105
2, 65400, Note_off_c, 0, 81, 58
2, 65400, Note_on_c, 0, 82, 105
2, 65520, Note_off_c, 0, 82, 58
2, 65520, Note_on_c, 0, 84, 105
2, 65700, Note_off_c, 0, 84, 58
2, 65760, Note_on_c, 0, 82, 105
2, 65880, Note_off_c, 0, 82, 58
2, 65880, Note_on_c, 0, 84, 105
2, 66000, Note_off_c, 0, 84, 58
2, 66000, Note_on_c, 0, 86, 105
2, 66180, Note_off_c, 0, 86, 58
2, 66240, Note_on_c, 0, 88, 105
2, 66420, Note_off_c, 0, 88, 58
2, 66480, Note_on_c, 0, 89, 105
2, 66600, Note_off_c, 0, 89, 58
2, 66600, Note_on_c, 0, 91, 105
2, 66720, Note_off_c, 0, 91, 58
2, 66720, Note_on_c, 0, 93, 105
2, 66900, Note_off_c, 0, 93, 58
2, 66960, Note_on_c, 0, 76, 105
2, 67140, Note_off_c, 0, 76, 58
2, 67440, Note_on_c, 0, 76, 110
2, 67620, Note_off_c, 0, 76, 58
2, 67680, Note_on_c, 0, 81, 127
2, 68160, Note_off_c, 0, 81, 58
2, 68400, Note_on_c, 0, 74, 110
2, 68580, Note_off_c, 0, 74, 58
2, 68640, Note_on_c, 0, 79, 127
2, 69120, Note_off_c, 0, 79, 58
2, 69360, Note_on_c, 0, 72, 110
2, 69540, Note_off_c, 0, 72, 58
2, 69600, Note_on_c, 0, 77, 110
2, 69780, Note_off_c, 0, 77, 58
2, 69840, Note_on_c, 0, 76, 110
2, 69930, Note_off_c, 0, 76, 58
2, 69960, Note_on_c, 0, 74, 110
2, 70050, Note_off_c, 0, 74, 58
2, 70080, Note_on_c, 0, 72, 110
2, 70793, Note_off_c, 0, 72, 58
2, 70800, Note_on_c, 0, 76, 110
2, 70980, Note_off_c, 0, 76, 58
2, 71040, Note_on_c, 0, 81, 127
2, 71753, Note_off_c, 0, 81, 58
2, 71760, Note_on_c, 0, 77, 110
2, 71940, Note_off_c, 0, 77, 58
2, 72000, Note_on_c, 0, 82, 110
2, 72713, Note_off_c, 0, 82, 58
2, 72960, Note_on_c, 0, 75, 110
2, 73080, Note_off_c, 0, 75, 58
2, 73080, Note_on_c, 0, 77, 110
2, 73200, Note_off_c, 0, 77, 58
2, 73200, Note_on_c, 0, 78, 110
2, 73380, Note_off_c, 0, 78, 58
2, 73440, Note_on_c, 0, 70, 110
2, 73620, Note_off_c, 0, 70, 58
2, 73680, Note_on_c, 0, 78, 110
2, 73860, Note_off_c, 0, 78, 58
2, 73920, Note_on_c, 0, 75, 110
2, 74100, Note_off_c, 0, 75, 58
2, 74160, Note_on_c, 0, 84, 110
2, 74340, Note_off_c, 0, 84, 58
2, 74400, Note_on_c, 0, 79, 110
2, 74580, Note_off_c, 0, 79, 58
2, 74640, Note_on_c, 0, 88, 127
2, 74820, Note_off_c, 0, 88, 58
2, 74880, Note_on_c, 0, 93, 127
2, 75060, Note_off_c, 0, 93, 58
2, 75360, Note_on_c, 0, 81, 127
2, 75528, Note_off_c, 0, 81, 58
2, 75840, Note_on_c, 0, 69, 127
2, 76020, Note_off_c, 0, 69, 58
2, 76798, Control_c, 0, 91, 0
2, 76799, Control_c, 0, 121, 0
2, 76799, End_track
3, 0, Start_track
3, 0, Title_t, "middle voice"
3, 0, MIDI_port, 0
3, 0, Channel_prefix, 1
3, 0, Control_c, 1, 7, 127
3, 0, Control_c, 1, 10, 64
3, 0, Program_c, 1, 0
3, 0, Control_c, 1, 121, 0
3, 1, Control_c, 1, 91, 50
3, 3840, Control_c, 1, 11, 110
3, 3840, Note_on_c, 1, 76, 105
3, 3960, Note_off_c, 1, 76, 58
3, 3960, Note_on_c, 1, 78, 80
3, 4080, Note_off_c, 1, 78, 58
3, 4080, Note_on_c, 1, 79, 80
3, 4260, Note_off_c, 1, 79, 58
3, 4320, Note_on_c, 1, 71, 80
3, 4500, Note_off_c, 1, 71, 58
3, 4560, Note_on_c, 1, 79, 80
3, 4740, Note_off_c, 1, 79, 58
3, 4800, Note_on_c, 1, 75, 105
3, 4920, Note_off_c, 1, 75, 58
3, 4920, Note_on_c, 1, 76, 80
3, 5040, Note_off_c, 1, 76, 58
3, 5040, Note_on_c, 1, 78, 80
3, 5220, Note_off_c, 1, 78, 58
3, 5280, Note_on_c, 1, 69, 80
3, 5460, Note_off_c, 1, 69, 58
3, 5520, Note_on_c, 1, 78, 80
3, 5700, Note_off_c, 1, 78, 58
3, 5760, Note_on_c, 1, 67, 80
3, 5940, Note_off_c, 1, 67, 58
3, 6000, Note_on_c, 1, 78, 80
3, 6180, Note_off_c, 1, 78, 58
3, 6240, Note_on_c, 1, 66, 80
3, 6420, Note_off_c, 1, 66, 58
3, 6480, Note_on_c, 1, 76, 80
3, 6660, Note_off_c, 1, 76, 58
3, 6720, Note_on_c, 1, 74, 80
3, 6900, Note_off_c, 1, 74, 58
3, 6960, Note_on_c, 1, 64, 80
3, 7140, Note_off_c, 1, 64, 58
3, 7200, Note_on_c, 1, 63, 105
3, 7320, Note_off_c, 1, 63, 58
3, 7320, Note_on_c, 1, 61, 80
3, 7440, Note_off_c, 1, 61, 58
3, 7440, Note_on_c, 1, 63, 80
3, 7620, Note_off_c, 1, 63, 58
3, 7680, Note_on_c, 1, 64, 80
3, 8160, Control_c, 1, 11, 100
3, 8873, Note_off_c, 1, 64, 58
3, 8880, Note_on_c, 1, 65, 105
3, 9360, Note_off_c, 1, 65, 58
3, 9360, Note_on_c, 1, 64, 80
3, 9480, Note_off_c, 1, 64, 58
3, 9480, Note_on_c, 1, 62, 80
3, 9600, Note_off_c, 1, 62, 58
3, 9600, Note_on_c, 1, 60, 80
3, 9780, Note_off_c, 1, 60, 58
3, 9840, Note_on_c, 1, 57, 80
3, 10020, Note_off_c, 1, 57, 58
3, 10320, Note_on_c, 1, 64, 80
3, 10560, Note_off_c, 1, 64, 58
3, 10560, Note_on_c, 1, 69, 105
3, 11753, Note_off_c, 1, 69, 58
3, 11760, Note_on_c, 1, 62, 80
3, 12000, Note_off_c, 1, 62, 58
3, 12000, Note_on_c, 1, 67, 80
3, 12713, Note_off_c, 1, 67, 58
3, 12720, Note_on_c, 1, 60, 80
3, 12900, Note_off_c, 1, 60, 58
3, 12960, Note_on_c, 1, 65, 105
3, 13673, Note_off_c, 1, 65, 58
3, 13680, Note_on_c, 1, 61, 80
3, 13860, Note_off_c, 1, 61, 58
3, 13920, Note_on_c, 1, 66, 105
3, 14153, Note_off_c, 1, 66, 58
3, 14160, Note_on_c, 1, 64, 80
3, 14250, Note_off_c, 1, 64, 58
3, 14280, Note_on_c, 1, 62, 80
3, 14370, Note_off_c, 1, 62, 58
3, 14400, Note_on_c, 1, 61, 80
3, 14490, Note_off_c, 1, 61, 58
3, 14520, Note_on_c, 1, 59, 80
3, 14610, Note_off_c, 1, 59, 58
3, 14640, Note_on_c, 1, 57, 80
3, 14730, Note_off_c, 1, 57, 58
3, 14760, Note_on_c, 1, 56, 80
3, 14850, Note_off_c, 1, 56, 58
3, 14880, Note_on_c, 1, 54, 80
3, 14970, Note_off_c, 1, 54, 58
3, 15480, Note_on_c, 1, 51, 85
3, 15570, Note_off_c, 1, 51, 58
3, 15600, Note_on_c, 1, 54, 85
3, 15690, Note_off_c, 1, 54, 58
3, 15720, Note_on_c, 1, 58, 85
3, 15810, Note_off_c, 1, 58, 58
3, 15840, Note_on_c, 1, 63, 85
3, 15930, Note_off_c, 1, 63, 58
3, 16440, Note_on_c, 1, 62, 90
3, 16530, Note_off_c, 1, 62, 58
3, 16560, Note_on_c, 1, 66, 90
3, 16650, Note_off_c, 1, 66, 58
3, 16680, Note_on_c, 1, 69, 90
3, 16770, Note_off_c, 1, 69, 58
3, 16800, Note_on_c, 1, 74, 90
3, 16890, Note_off_c, 1, 74, 58
3, 23760, Note_on_c, 1, 63, 97
3, 23940, Note_off_c, 1, 63, 58
3, 24000, Note_on_c, 1, 68, 100
3, 24480, Note_off_c, 1, 68, 58
3, 24480, Note_on_c, 1, 62, 100
3, 24960, Note_off_c, 1, 62, 58
3, 24960, Note_on_c, 1, 67, 127
3, 24960, Control_c, 1, 11, 110
3, 25080, Note_off_c, 1, 67, 58
3, 25080, Note_on_c, 1, 69, 105
3, 25200, Note_off_c, 1, 69, 58
3, 25200, Note_on_c, 1, 71, 105
3, 25380, Note_off_c, 1, 71, 58
3, 25440, Note_on_c, 1, 62, 105
3, 25620, Note_off_c, 1, 62, 58
3, 25680, Note_on_c, 1, 71, 105
3, 25860, Note_off_c, 1, 71, 58
3, 25920, Note_on_c, 1, 66, 127
3, 26040, Note_off_c, 1, 66, 58
3, 26040, Note_on_c, 1, 67, 105
3, 26160, Note_off_c, 1, 67, 58
3, 26160, Note_on_c, 1, 69, 105
3, 26340, Note_off_c, 1, 69, 58
3, 26400, Note_on_c, 1, 60, 105
3, 26580, Note_off_c, 1, 60, 58
3, 26640, Note_on_c, 1, 69, 105
3, 26820, Note_off_c, 1, 69, 58
3, 26880, Note_on_c, 1, 59, 105
3, 27060, Note_off_c, 1, 59, 58
3, 27120, Note_on_c, 1, 69, 105
3, 27300, Note_off_c, 1, 69, 58
3, 27360, Note_on_c, 1, 57, 105
3, 27540, Note_off_c, 1, 57, 58
3, 27600, Note_on_c, 1, 67, 105
3, 27780, Note_off_c, 1, 67, 58
3, 27840, Note_on_c, 1, 66, 105
3, 28020, Note_off_c, 1, 66, 58
3, 28080, Note_on_c, 1, 55, 105
3, 28260, Note_off_c, 1, 55, 58
3, 28320, Note_on_c, 1, 54, 127
3, 28440, Note_off_c, 1, 54, 58
3, 28440, Note_on_c, 1, 52, 105
3, 28560, Note_off_c, 1, 52, 58
3, 28560, Note_on_c, 1, 54, 105
3, 28740, Note_off_c, 1, 54, 58
3, 28800, Note_on_c, 1, 55, 105
3, 28980, Note_off_c, 1, 55, 58
3, 29040, Note_on_c, 1, 60, 105
3, 29220, Note_off_c, 1, 60, 58
3, 29280, Note_on_c, 1, 65, 105
3, 29280, Control_c, 1, 11, 100
3, 29460, Note_off_c, 1, 65, 58
3, 29520, Note_on_c, 1, 64, 105
3, 29610, Note_off_c, 1, 64, 58
3, 29640, Note_on_c, 1, 62, 105
3, 29730, Note_off_c, 1, 62, 58
3, 29760, Note_on_c, 1, 60, 105
3, 29850, Note_off_c, 1, 60, 58
3, 29880, Note_on_c, 1, 58, 105
3, 29970, Note_off_c, 1, 58, 58
3, 30000, Note_on_c, 1, 57, 105
3, 30090, Note_off_c, 1, 57, 58
3, 30120, Note_on_c, 1, 55, 105
3, 30210, Note_off_c, 1, 55, 58
3, 30240, Note_on_c, 1, 53, 100
3, 30330, Note_off_c, 1, 53, 58
3, 30360, Note_on_c, 1, 50, 95
3, 30450, Note_off_c, 1, 50, 58
3, 30480, Note_on_c, 1, 54, 93
3, 30570, Note_off_c, 1, 54, 58
3, 30600, Note_on_c, 1, 57, 89
3, 30690, Note_off_c, 1, 57, 58
3, 30720, Note_on_c, 1, 62, 85
3, 30953, Note_off_c, 1, 62, 58
3, 31320, Note_on_c, 1, 57, 85
3, 31410, Note_off_c, 1, 57, 58
3, 31440, Note_on_c, 1, 61, 85
3, 31530, Note_off_c, 1, 61, 58
3, 31560, Note_on_c, 1, 64, 85
3, 31650, Note_off_c, 1, 64, 58
3, 31680, Note_on_c, 1, 69, 85
3, 31770, Note_off_c, 1, 69, 58
3, 32280, Note_on_c, 1, 58, 85
3, 32370, Note_off_c, 1, 58, 58
3, 32400, Note_on_c, 1, 62, 85
3, 32490, Note_off_c, 1, 62, 58
3, 32520, Note_on_c, 1, 65, 85
3, 32610, Note_off_c, 1, 65, 58
3, 32640, Note_on_c, 1, 70, 85
3, 32820, Note_off_c, 1, 70, 58
3, 32880, Note_on_c, 1, 69, 85
3, 32970, Note_off_c, 1, 69, 58
3, 33000, Note_on_c, 1, 67, 85
3, 33090, Note_off_c, 1, 67, 58
3, 33120, Note_on_c, 1, 65, 85
3, 33300, Note_off_c, 1, 65, 58
3, 33360, Note_on_c, 1, 67, 85
3, 33540, Note_off_c, 1, 67, 58
3, 33600, Note_on_c, 1, 74, 85
3, 33780, Note_off_c, 1, 74, 58
3, 33840, Note_on_c, 1, 66, 88
3, 34020, Note_off_c, 1, 66, 58
3, 34080, Note_on_c, 1, 73, 91
3, 34260, Note_off_c, 1, 73, 58
3, 34320, Note_on_c, 1, 64, 96
3, 34500, Note_off_c, 1, 64, 58
3, 34560, Note_on_c, 1, 62, 100
3, 34740, Note_off_c, 1, 62, 58
3, 34800, Note_on_c, 1, 61, 100
3, 34980, Note_off_c, 1, 61, 58
3, 35760, Note_on_c, 1, 59, 100
3, 35880, Note_off_c, 1, 59, 58
3, 35880, Note_on_c, 1, 61, 100
3, 36000, Note_off_c, 1, 61, 58
3, 36000, Note_on_c, 1, 62, 100
3, 36180, Note_off_c, 1, 62, 58
3, 36240, Note_on_c, 1, 53, 100
3, 36420, Note_off_c, 1, 53, 58
3, 36720, Note_on_c, 1, 54, 100
3, 36840, Note_off_c, 1, 54, 58
3, 36840, Note_on_c, 1, 56, 100
3, 36960, Note_off_c, 1, 56, 58
3, 36960, Note_on_c, 1, 57, 100
3, 37140, Note_off_c, 1, 57, 58
3, 37200, Note_on_c, 1, 48, 100
3, 37380, Note_off_c, 1, 48, 58
3, 37680, Note_on_c, 1, 53, 100
3, 37800, Note_off_c, 1, 53, 58
3, 37800, Note_on_c, 1, 54, 100
3, 37920, Note_off_c, 1, 54, 58
3, 37920, Note_on_c, 1, 56, 102
3, 38100, Note_off_c, 1, 56, 58
3, 38160, Note_on_c, 1, 47, 104
3, 38340, Note_off_c, 1, 47, 58
3, 38400, Note_on_c, 1, 54, 105
3, 38580, Note_off_c, 1, 54, 58
3, 38640, Note_on_c, 1, 46, 105
3, 38820, Note_off_c, 1, 46, 58
3, 39120, Note_on_c, 1, 70, 105
3, 39300, Note_off_c, 1, 70, 58
3, 39360, Note_on_c, 1, 75, 105
3, 40073, Note_off_c, 1, 75, 58
3, 40080, Note_on_c, 1, 68, 105
3, 40260, Note_off_c, 1, 68, 58
3, 40320, Note_on_c, 1, 73, 105
3, 40800, Note_off_c, 1, 73, 58
3, 41040, Note_on_c, 1, 65, 105
3, 41220, Note_off_c, 1, 65, 58
3, 41280, Note_on_c, 1, 70, 127
3, 42473, Note_off_c, 1, 70, 58
3, 42480, Note_on_c, 1, 75, 105
3, 42660, Note_off_c, 1, 75, 58
3, 42720, Note_on_c, 1, 80, 105
3, 42900, Note_off_c, 1, 80, 58
3, 42960, Note_on_c, 1, 68, 105
3, 43440, Note_off_c, 1, 68, 58
3, 43440, Note_on_c, 1, 73, 105
3, 43620, Note_off_c, 1, 73, 58
3, 43680, Note_on_c, 1, 78, 105
3, 43860, Note_off_c, 1, 78, 58
3, 43920, Note_on_c, 1, 66, 105
3, 44400, Note_off_c, 1, 66, 58
3, 44400, Note_on_c, 1, 62, 105
3, 44580, Note_off_c, 1, 62, 58
3, 44640, Note_on_c, 1, 67, 105
3, 44873, Note_off_c, 1, 67, 58
3, 44880, Note_on_c, 1, 65, 105
3, 44970, Note_off_c, 1, 65, 58
3, 45000, Note_on_c, 1, 63, 105
3, 45090, Note_off_c, 1, 63, 58
3, 45120, Note_on_c, 1, 62, 105
3, 45210, Note_off_c, 1, 62, 58
3, 45240, Note_on_c, 1, 60, 105
3, 45330, Note_off_c, 1, 60, 58
3, 45360, Note_on_c, 1, 58, 105
3, 45450, Note_off_c, 1, 58, 58
3, 45480, Note_on_c, 1, 57, 105
3, 45570, Note_off_c, 1, 57, 58
3, 45600, Note_on_c, 1, 55, 105
3, 45690, Note_off_c, 1, 55, 58
3, 45720, Note_on_c, 1, 52, 105
3, 45810, Note_off_c, 1, 52, 58
3, 45840, Note_on_c, 1, 55, 105
3, 45930, Note_off_c, 1, 55, 58
3, 45960, Note_on_c, 1, 59, 105
3, 46050, Note_off_c, 1, 59, 58
3, 46560, Note_on_c, 1, 77, 105
3, 47273, Note_off_c, 1, 77, 58
3, 47280, Note_on_c, 1, 77, 105
3, 47460, Note_off_c, 1, 77, 58
3, 47520, Note_on_c, 1, 76, 105
3, 47700, Note_off_c, 1, 76, 58
3, 48480, Note_on_c, 1, 75, 105
3, 49193, Note_off_c, 1, 75, 58
3, 49200, Note_on_c, 1, 75, 105
3, 49380, Note_off_c, 1, 75, 58
3, 49440, Note_on_c, 1, 74, 105
3, 49620, Note_off_c, 1, 74, 58
3, 49680, Note_on_c, 1, 64, 105
3, 49860, Note_off_c, 1, 64, 58
3, 49920, Note_on_c, 1, 68, 105
3, 50100, Note_off_c, 1, 68, 58
3, 50160, Note_on_c, 1, 62, 105
3, 50340, Note_off_c, 1, 62, 58
3, 50400, Note_on_c, 1, 67, 105
3, 50633, Note_off_c, 1, 67, 58
3, 50640, Note_on_c, 1, 65, 105
3, 50760, Note_off_c, 1, 65, 58
3, 50760, Note_on_c, 1, 64, 105
3, 50880, Note_off_c, 1, 64, 58
3, 50880, Note_on_c, 1, 62, 105
3, 51060, Note_off_c, 1, 62, 58
3, 51120, Note_on_c, 1, 57, 105
3, 51300, Note_off_c, 1, 57, 58
3, 51360, Note_on_c, 1, 53, 105
3, 51450, Note_off_c, 1, 53, 58
3, 52080, Note_on_c, 1, 74, 95
3, 52320, Note_on_c, 1, 72, 86
3, 52327, Note_off_c, 1, 74, 58
3, 52800, Note_off_c, 1, 72, 58
3, 52800, Note_on_c, 1, 69, 105
3, 52800, Control_c, 1, 11, 115
3, 52920, Note_off_c, 1, 69, 58
3, 52920, Note_on_c, 1, 71, 80
3, 53040, Note_off_c, 1, 71, 58
3, 53040, Note_on_c, 1, 72, 80
3, 53220, Note_off_c, 1, 72, 58
3, 53280, Note_on_c, 1, 64, 80
3, 53460, Note_off_c, 1, 64, 58
3, 53520, Note_on_c, 1, 72, 80
3, 53700, Note_off_c, 1, 72, 58
3, 53760, Note_on_c, 1, 68, 105
3, 53880, Note_off_c, 1, 68, 58
3, 53880, Note_on_c, 1, 69, 80
3, 54000, Note_off_c, 1, 69, 58
3, 54000, Note_on_c, 1, 71, 80
3, 54180, Note_off_c, 1, 71, 58
3, 54240, Note_on_c, 1, 62, 80
3, 54420, Note_off_c, 1, 62, 58
3, 54480, Note_on_c, 1, 71, 80
3, 54660, Note_off_c, 1, 71, 58
3, 54720, Note_on_c, 1, 60, 80
3, 54900, Note_off_c, 1, 60, 58
3, 54960, Note_on_c, 1, 71, 80
3, 55140, Note_off_c, 1, 71, 58
3, 55200, Note_on_c, 1, 59, 80
3, 55380, Note_off_c, 1, 59, 58
3, 55440, Note_on_c, 1, 69, 80
3, 55620, Note_off_c, 1, 69, 58
3, 55680, Note_on_c, 1, 67, 80
3, 55860, Note_off_c, 1, 67, 58
3, 55920, Note_on_c, 1, 57, 80
3, 56100, Note_off_c, 1, 57, 58
3, 56160, Note_on_c, 1, 56, 80
3, 56280, Note_off_c, 1, 56, 58
3, 56280, Note_on_c, 1, 54, 80
3, 56400, Note_off_c, 1, 54, 58
3, 56400, Note_on_c, 1, 56, 80
3, 56580, Note_off_c, 1, 56, 58
3, 57120, Control_c, 1, 11, 100
3, 60000, Note_on_c, 1, 55, 79
3, 60180, Note_off_c, 1, 55, 58
3, 60240, Note_on_c, 1, 65, 80
3, 60420, Note_off_c, 1, 65, 58
3, 60480, Note_on_c, 1, 64, 85
3, 60660, Note_off_c, 1, 64, 58
3, 60720, Note_on_c, 1, 64, 89
3, 60900, Note_off_c, 1, 64, 58
3, 60960, Note_on_c, 1, 64, 93
3, 61193, Note_off_c, 1, 64, 58
3, 61200, Note_on_c, 1, 64, 95
3, 61320, Note_off_c, 1, 64, 58
3, 61320, Note_on_c, 1, 65, 97
3, 61440, Note_off_c, 1, 65, 58
3, 61440, Note_on_c, 1, 62, 100
3, 61620, Note_off_c, 1, 62, 58
3, 61680, Note_on_c, 1, 61, 100
3, 61860, Note_off_c, 1, 61, 58
3, 61920, Note_on_c, 1, 60, 100
3, 62100, Note_off_c, 1, 60, 58
3, 62640, Note_on_c, 1, 62, 100
3, 62820, Note_off_c, 1, 62, 58
3, 62880, Note_on_c, 1, 67, 100
3, 63593, Note_off_c, 1, 67, 58
3, 63600, Note_on_c, 1, 69, 100
3, 63690, Note_off_c, 1, 69, 58
3, 63720, Note_on_c, 1, 66, 100
3, 63810, Note_off_c, 1, 66, 58
3, 63840, Note_on_c, 1, 67, 100
3, 64020, Note_off_c, 1, 67, 58
3, 64080, Note_on_c, 1, 75, 100
3, 64260, Note_off_c, 1, 75, 58
3, 64320, Note_on_c, 1, 72, 100
3, 64800, Note_off_c, 1, 72, 58
3, 64800, Note_on_c, 1, 70, 102
3, 64980, Note_off_c, 1, 70, 58
3, 65040, Note_on_c, 1, 79, 104
3, 65220, Note_off_c, 1, 79, 58
3, 65280, Note_on_c, 1, 72, 105
3, 65400, Note_off_c, 1, 72, 58
3, 65400, Note_on_c, 1, 75, 105
3, 65520, Note_off_c, 1, 75, 58
3, 65520, Note_on_c, 1, 81, 105
3, 65700, Note_off_c, 1, 81, 58
3, 65760, Note_on_c, 1, 74, 105
3, 65880, Note_off_c, 1, 74, 58
3, 65880, Note_on_c, 1, 77, 105
3, 66000, Note_off_c, 1, 77, 58
3, 66000, Note_on_c, 1, 81, 105
3, 66180, Note_off_c, 1, 81, 58
3, 66240, Note_on_c, 1, 74, 105
3, 66420, Note_off_c, 1, 74, 58
3, 66480, Note_on_c, 1, 79, 105
3, 66600, Note_off_c, 1, 79, 58
3, 66600, Note_on_c, 1, 83, 105
3, 66720, Note_off_c, 1, 83, 58
3, 66720, Note_on_c, 1, 86, 105
3, 66900, Note_off_c, 1, 86, 58
3, 66960, Note_on_c, 1, 74, 105
3, 67140, Note_off_c, 1, 74, 58
3, 67440, Note_on_c, 1, 74, 110
3, 67620, Note_off_c, 1, 74, 58
3, 67680, Note_on_c, 1, 72, 110
3, 68160, Note_off_c, 1, 72, 58
3, 68400, Note_on_c, 1, 72, 110
3, 68580, Note_off_c, 1, 72, 58
3, 68640, Note_on_c, 1, 71, 110
3, 69120, Note_off_c, 1, 71, 58
3, 69360, Note_on_c, 1, 70, 110
3, 69540, Note_off_c, 1, 70, 58
3, 69600, Note_on_c, 1, 69, 110
3, 70313, Note_off_c, 1, 69, 58
3, 70320, Note_on_c, 1, 68, 110
3, 70440, Note_off_c, 1, 68, 58
3, 70440, Note_on_c, 1, 66, 110
3, 70560, Note_off_c, 1, 66, 58
3, 70560, Note_on_c, 1, 68, 110
3, 70740, Note_off_c, 1, 68, 58
3, 71040, Note_on_c, 1, 69, 127
3, 71040, Control_c, 1, 11, 115
3, 71160, Note_off_c, 1, 69, 58
3, 71160, Note_on_c, 1, 71, 110
3, 71280, Note_off_c, 1, 71, 58
3, 71280, Note_on_c, 1, 72, 110
3, 71460, Note_off_c, 1, 72, 58
3, 71520, Note_on_c, 1, 64, 110
3, 71700, Note_off_c, 1, 64, 58
3, 71760, Note_on_c, 1, 72, 110
3, 71940, Note_off_c, 1, 72, 58
3, 72000, Note_on_c, 1, 70, 127
3, 72120, Note_off_c, 1, 70, 58
3, 72120, Note_on_c, 1, 72, 110
3, 72240, Note_off_c, 1, 72, 58
3, 72240, Note_on_c, 1, 73, 110
3, 72420, Note_off_c, 1, 73, 58
3, 72480, Note_on_c, 1, 65, 110
3, 72660, Note_off_c, 1, 65, 58
3, 72720, Note_on_c, 1, 73, 110
3, 72900, Note_off_c, 1, 73, 58
3, 73200, Note_on_c, 1, 63, 110
3, 73380, Note_off_c, 1, 63, 58
3, 73440, Note_on_c, 1, 62, 110
3, 73440, Control_c, 1, 11, 100
3, 73620, Note_off_c, 1, 62, 58
3, 73680, Note_on_c, 1, 63, 110
3, 73860, Note_off_c, 1, 63, 58
3, 73920, Note_on_c, 1, 65, 110
3, 74100, Note_off_c, 1, 65, 58
3, 74160, Note_on_c, 1, 67, 110
3, 74340, Note_off_c, 1, 67, 58
3, 74400, Note_on_c, 1, 69, 110
3, 74580, Note_off_c, 1, 69, 58
3, 74640, Note_on_c, 1, 76, 127
3, 74820, Note_off_c, 1, 76, 58
3, 74880, Note_on_c, 1, 81, 127
3, 75060, Note_off_c, 1, 81, 58
3, 75360, Note_on_c, 1, 72, 127
3, 75540, Note_off_c, 1, 72, 58
3, 75840, Note_on_c, 1, 60, 127
3, 76020, Note_off_c, 1, 60, 58
3, 76798, Control_c, 1, 91, 0
3, 76799, Control_c, 1, 121, 0
3, 76799, End_track
4, 0, Start_track
4, 0, Title_t, "low voice"
4, 0, MIDI_port, 0
4, 0, Channel_prefix, 2
4, 0, Control_c, 2, 7, 127
4, 0, Control_c, 2, 10, 57
4, 0, Program_c, 2, 0
4, 0, Control_c, 2, 121, 0
4, 0, Control_c, 2, 11, 110
4, 0, Note_on_c, 2, 69, 105
4, 1, Control_c, 2, 91, 50
4, 120, Note_off_c, 2, 69, 58
4, 120, Note_on_c, 2, 71, 80
4, 240, Note_off_c, 2, 71, 58
4, 240, Note_on_c, 2, 72, 80
4, 420, Note_off_c, 2, 72, 58
4, 480, Note_on_c, 2, 64, 80
4, 660, Note_off_c, 2, 64, 58
4, 720, Note_on_c, 2, 72, 80
4, 900, Note_off_c, 2, 72, 58
4, 960, Note_on_c, 2, 68, 105
4, 1080, Note_off_c, 2, 68, 58
4, 1080, Note_on_c, 2, 69, 80
4, 1200, Note_off_c, 2, 69, 58
4, 1200, Note_on_c, 2, 71, 80
4, 1380, Note_off_c, 2, 71, 58
4, 1440, Note_on_c, 2, 62, 80
4, 1620, Note_off_c, 2, 62, 58
4, 1680, Note_on_c, 2, 71, 80
4, 1860, Note_off_c, 2, 71, 58
4, 1920, Note_on_c, 2, 60, 80
4, 2100, Note_off_c, 2, 60, 58
4, 2160, Note_on_c, 2, 71, 80
4, 2340, Note_off_c, 2, 71, 58
4, 2400, Note_on_c, 2, 59, 80
4, 2580, Note_off_c, 2, 59, 58
4, 2640, Note_on_c, 2, 69, 80
4, 2820, Note_off_c, 2, 69, 58
4, 2880, Note_on_c, 2, 67, 80
4, 3060, Note_off_c, 2, 67, 58
4, 3120, Note_on_c, 2, 57, 80
4, 3300, Note_off_c, 2, 57, 58
4, 3360, Note_on_c, 2, 56, 80
4, 3480, Note_off_c, 2, 56, 58
4, 3480, Note_on_c, 2, 54, 80
4, 3600, Note_off_c, 2, 54, 58
4, 3600, Note_on_c, 2, 56, 80
4, 3780, Note_off_c, 2, 56, 58
4, 3840, Note_on_c, 2, 57, 80
4, 4020, Note_off_c, 2, 57, 58
4, 4080, Note_on_c, 2, 52, 80
4, 4260, Note_off_c, 2, 52, 58
4, 4320, Control_c, 2, 11, 100
4, 4560, Note_on_c, 2, 59, 80
4, 4740, Note_off_c, 2, 59, 58
4, 4800, Note_on_c, 2, 64, 80
4, 5993, Note_off_c, 2, 64, 58
4, 6000, Note_on_c, 2, 57, 80
4, 6180, Note_off_c, 2, 57, 58
4, 6240, Note_on_c, 2, 62, 105
4, 6953, Note_off_c, 2, 62, 58
4, 6960, Note_on_c, 2, 55, 80
4, 7140, Note_off_c, 2, 55, 58
4, 7200, Note_on_c, 2, 60, 105
4, 7913, Note_off_c, 2, 60, 58
4, 7920, Note_on_c, 2, 56, 80
4, 8100, Note_off_c, 2, 56, 58
4, 8160, Note_on_c, 2, 61, 80
4, 8340, Note_off_c, 2, 61, 58
4, 8400, Note_on_c, 2, 59, 80
4, 8490, Note_off_c, 2, 59, 58
4, 8520, Note_on_c, 2, 57, 80
4, 8610, Note_off_c, 2, 57, 58
4, 8640, Note_on_c, 2, 56, 80
4, 8730, Note_off_c, 2, 56, 58
4, 8760, Note_on_c, 2, 54, 80
4, 8850, Note_off_c, 2, 54, 58
4, 8880, Note_on_c, 2, 52, 80
4, 8970, Note_off_c, 2, 52, 58
4, 9000, Note_on_c, 2, 51, 80
4, 9090, Note_off_c, 2, 51, 58
4, 9120, Note_on_c, 2, 49, 80
4, 9210, Note_off_c, 2, 49, 58
4, 9240, Note_on_c, 2, 45, 80
4, 9330, Note_off_c, 2, 45, 58
4, 9360, Note_on_c, 2, 48, 80
4, 9450, Note_off_c, 2, 48, 58
4, 9480, Note_on_c, 2, 52, 80
4, 9570, Note_off_c, 2, 52, 58
4, 9600, Note_on_c, 2, 57, 80
4, 9780, Note_off_c, 2, 57, 58
4, 9840, Note_on_c, 2, 45, 80
4, 10020, Note_off_c, 2, 45, 58
4, 10800, Note_on_c, 2, 62, 80
4, 10920, Note_off_c, 2, 62, 58
4, 10920, Note_on_c, 2, 64, 80
4, 11040, Note_off_c, 2, 64, 58
4, 11040, Note_on_c, 2, 65, 80
4, 11220, Note_off_c, 2, 65, 58
4, 11280, Note_on_c, 2, 56, 80
4, 11460, Note_off_c, 2, 56, 58
4, 11760, Note_on_c, 2, 57, 105
4, 11880, Note_off_c, 2, 57, 58
4, 11880, Note_on_c, 2, 59, 80
4, 12000, Note_off_c, 2, 59, 58
4, 12000, Note_on_c, 2, 60, 80
4, 12180, Note_off_c, 2, 60, 58
4, 12240, Note_on_c, 2, 51, 80
4, 12420, Note_off_c, 2, 51, 58
4, 12720, Note_on_c, 2, 56, 105
4, 12840, Note_off_c, 2, 56, 58
4, 12840, Note_on_c, 2, 57, 80
4, 12960, Note_off_c, 2, 57, 58
4, 12960, Note_on_c, 2, 59, 80
4, 13140, Note_off_c, 2, 59, 58
4, 13200, Note_on_c, 2, 50, 80
4, 13380, Note_off_c, 2, 50, 58
4, 13440, Note_on_c, 2, 57, 80
4, 13620, Note_off_c, 2, 57, 58
4, 13680, Note_on_c, 2, 49, 80
4, 13860, Note_off_c, 2, 49, 58
4, 13920, Note_on_c, 2, 56, 80
4, 14100, Note_off_c, 2, 56, 58
4, 14160, Note_on_c, 2, 47, 80
4, 14340, Note_off_c, 2, 47, 58
4, 14400, Note_on_c, 2, 45, 80
4, 14580, Note_off_c, 2, 45, 58
4, 14640, Note_on_c, 2, 44, 80
4, 14820, Note_off_c, 2, 44, 58
4, 14880, Note_on_c, 2, 45, 80
4, 14970, Note_off_c, 2, 45, 58
4, 15000, Note_on_c, 2, 38, 80
4, 15090, Note_off_c, 2, 38, 58
4, 15120, Note_on_c, 2, 41, 82
4, 15210, Note_off_c, 2, 41, 58
4, 15240, Note_on_c, 2, 45, 84
4, 15330, Note_off_c, 2, 45, 58
4, 15360, Note_on_c, 2, 50, 88
4, 15450, Note_off_c, 2, 50, 58
4, 15960, Note_on_c, 2, 62, 85
4, 16050, Note_off_c, 2, 62, 58
4, 16080, Note_on_c, 2, 60, 85
4, 16170, Note_off_c, 2, 60, 58
4, 16200, Note_on_c, 2, 59, 85
4, 16290, Note_off_c, 2, 59, 58
4, 16320, Note_on_c, 2, 58, 90
4, 16410, Note_off_c, 2, 58, 58
4, 17040, Note_on_c, 2, 58, 90
4, 17220, Note_off_c, 2, 58, 58
4, 17280, Note_on_c, 2, 63, 90
4, 17460, Note_off_c, 2, 63, 58
4, 17520, Note_on_c, 2, 62, 90
4, 17610, Note_off_c, 2, 62, 58
4, 17640, Note_on_c, 2, 60, 90
4, 17730, Note_off_c, 2, 60, 58
4, 17760, Note_on_c, 2, 58, 90
4, 17850, Note_off_c, 2, 58, 58
4, 17880, Note_on_c, 2, 56, 90
4, 17970, Note_off_c, 2, 56, 58
4, 18000, Note_on_c, 2, 55, 90
4, 18090, Note_off_c, 2, 55, 58
4, 18120, Note_on_c, 2, 53, 90
4, 18210, Note_off_c, 2, 53, 58
4, 18240, Note_on_c, 2, 51, 92
4, 18330, Note_off_c, 2, 51, 58
4, 18360, Note_on_c, 2, 47, 92
4, 18450, Note_off_c, 2, 47, 58
4, 18480, Note_on_c, 2, 50, 92
4, 18570, Note_off_c, 2, 50, 58
4, 18600, Note_on_c, 2, 54, 92
4, 18690, Note_off_c, 2, 54, 58
4, 18720, Note_on_c, 2, 59, 92
4, 18900, Note_off_c, 2, 59, 58
4, 18960, Note_on_c, 2, 55, 92
4, 19140, Note_off_c, 2, 55, 58
4, 19200, Control_c, 2, 11, 115
4, 19200, Note_on_c, 2, 60, 120
4, 19320, Note_off_c, 2, 60, 58
4, 19320, Note_on_c, 2, 62, 95
4, 19440, Note_off_c, 2, 62, 58
4, 19440, Note_on_c, 2, 64, 95
4, 19620, Note_off_c, 2, 64, 58
4, 19680, Note_on_c, 2, 55, 95
4, 19860, Note_off_c, 2, 55, 58
4, 19920, Note_on_c, 2, 64, 95
4, 20100, Note_off_c, 2, 64, 58
4, 20160, Note_on_c, 2, 59, 120
4, 20280, Note_off_c, 2, 59, 58
4, 20280, Note_on_c, 2, 60, 95
4, 20400, Note_off_c, 2, 60, 58
4, 20400, Note_on_c, 2, 62, 95
4, 20580, Note_off_c, 2, 62, 58
4, 20640, Note_on_c, 2, 53, 95
4, 20820, Note_off_c, 2, 53, 58
4, 20880, Note_on_c, 2, 62, 95
4, 21060, Note_off_c, 2, 62, 58
4, 21120, Note_on_c, 2, 52, 95
4, 21300, Note_off_c, 2, 52, 58
4, 21360, Note_on_c, 2, 62, 95
4, 21540, Note_off_c, 2, 62, 58
4, 21600, Note_on_c, 2, 50, 95
4, 21780, Note_off_c, 2, 50, 58
4, 21840, Note_on_c, 2, 60, 95
4, 22020, Note_off_c, 2, 60, 58
4, 22080, Note_on_c, 2, 59, 95
4, 22260, Note_off_c, 2, 59, 58
4, 22320, Note_on_c, 2, 48, 95
4, 22500, Note_off_c, 2, 48, 58
4, 22560, Note_on_c, 2, 47, 120
4, 22680, Note_off_c, 2, 47, 58
4, 22680, Note_on_c, 2, 45, 95
4, 22800, Note_off_c, 2, 45, 58
4, 22800, Note_on_c, 2, 47, 95
4, 22980, Note_off_c, 2, 47, 58
4, 23040, Note_on_c, 2, 48, 95
4, 23220, Note_off_c, 2, 48, 58
4, 23280, Note_on_c, 2, 36, 95
4, 23460, Note_off_c, 2, 36, 58
4, 23520, Control_c, 2, 11, 100
4, 25680, Note_on_c, 2, 38, 105
4, 25860, Note_off_c, 2, 38, 58
4, 25920, Note_on_c, 2, 43, 127
4, 27113, Note_off_c, 2, 43, 58
4, 27120, Note_on_c, 2, 36, 105
4, 27300, Note_off_c, 2, 36, 58
4, 27360, Note_on_c, 2, 42, 127
4, 28073, Note_off_c, 2, 42, 58
4, 28080, Note_on_c, 2, 35, 105
4, 28260, Note_off_c, 2, 35, 58
4, 28320, Note_on_c, 2, 40, 127
4, 29033, Note_off_c, 2, 40, 58
4, 30840, Note_on_c, 2, 43, 85
4, 30930, Note_off_c, 2, 43, 58
4, 30960, Note_on_c, 2, 46, 85
4, 31050, Note_off_c, 2, 46, 58
4, 31080, Note_on_c, 2, 50, 85
4, 31170, Note_off_c, 2, 50, 58
4, 31200, Note_on_c, 2, 55, 85
4, 31290, Note_off_c, 2, 55, 58
4, 31800, Note_on_c, 2, 50, 85
4, 31890, Note_off_c, 2, 50, 58
4, 31920, Note_on_c, 2, 53, 85
4, 32010, Note_off_c, 2, 53, 58
4, 32040, Note_on_c, 2, 57, 85
4, 32130, Note_off_c, 2, 57, 58
4, 32160, Note_on_c, 2, 62, 85
4, 32250, Note_off_c, 2, 62, 58
4, 33360, Note_on_c, 2, 64, 85
4, 33450, Note_off_c, 2, 64, 58
4, 33480, Note_on_c, 2, 62, 85
4, 33570, Note_off_c, 2, 62, 58
4, 33600, Note_on_c, 2, 60, 85
4, 33780, Note_off_c, 2, 60, 58
4, 33840, Note_on_c, 2, 59, 87
4, 33930, Note_off_c, 2, 59, 58
4, 33960, Note_on_c, 2, 57, 89
4, 34050, Note_off_c, 2, 57, 58
4, 34080, Note_on_c, 2, 55, 91
4, 34260, Note_off_c, 2, 55, 58
4, 34320, Note_on_c, 2, 54, 93
4, 34410, Note_off_c, 2, 54, 58
4, 34440, Note_on_c, 2, 52, 96
4, 34530, Note_off_c, 2, 52, 58
4, 34560, Note_on_c, 2, 54, 100
4, 34793, Note_off_c, 2, 54, 58
4, 35280, Note_on_c, 2, 37, 100
4, 35460, Note_off_c, 2, 37, 58
4, 35520, Note_on_c, 2, 42, 125
4, 36713, Note_off_c, 2, 42, 58
4, 36720, Note_on_c, 2, 47, 100
4, 36900, Note_off_c, 2, 47, 58
4, 36960, Note_on_c, 2, 52, 100
4, 37140, Note_off_c, 2, 52, 58
4, 37200, Note_on_c, 2, 40, 125
4, 37680, Note_off_c, 2, 40, 58
4, 37680, Note_on_c, 2, 45, 100
4, 37860, Note_off_c, 2, 45, 58
4, 37920, Note_on_c, 2, 38, 127
4, 38580, Note_off_c, 2, 38, 58
4, 38640, Note_on_c, 2, 34, 105
4, 38820, Note_off_c, 2, 34, 58
4, 38880, Note_on_c, 2, 39, 105
4, 39060, Note_off_c, 2, 39, 58
4, 39120, Note_on_c, 2, 41, 105
4, 39210, Note_off_c, 2, 41, 58
4, 39240, Note_on_c, 2, 42, 105
4, 39330, Note_off_c, 2, 42, 58
4, 39360, Note_on_c, 2, 44, 105
4, 39450, Note_off_c, 2, 44, 58
4, 39480, Note_on_c, 2, 46, 105
4, 39570, Note_off_c, 2, 46, 58
4, 39600, Note_on_c, 2, 47, 105
4, 39690, Note_off_c, 2, 47, 58
4, 39720, Note_on_c, 2, 49, 105
4, 39810, Note_off_c, 2, 49, 58
4, 39840, Note_on_c, 2, 51, 105
4, 39930, Note_off_c, 2, 51, 58
4, 39960, Note_on_c, 2, 53, 105
4, 40050, Note_off_c, 2, 53, 58
4, 40080, Note_on_c, 2, 54, 105
4, 40170, Note_off_c, 2, 54, 58
4, 40200, Note_on_c, 2, 56, 105
4, 40290, Note_off_c, 2, 56, 58
4, 40320, Note_on_c, 2, 58, 127
4, 40320, Control_c, 2, 11, 115
4, 40440, Note_off_c, 2, 58, 58
4, 40440, Note_on_c, 2, 60, 105
4, 40560, Note_off_c, 2, 60, 58
4, 40560, Note_on_c, 2, 61, 105
4, 40800, Note_on_c, 2, 53, 105
4, 40807, Note_off_c, 2, 61, 58
4, 40980, Note_off_c, 2, 53, 58
4, 41040, Note_on_c, 2, 61, 105
4, 41220, Note_off_c, 2, 61, 58
4, 41280, Note_on_c, 2, 57, 127
4, 41400, Note_off_c, 2, 57, 58
4, 41400, Note_on_c, 2, 58, 105
4, 41520, Note_off_c, 2, 58, 58
4, 41520, Note_on_c, 2, 60, 105
4, 41760, Note_on_c, 2, 51, 105
4, 41767, Note_off_c, 2, 60, 58
4, 41940, Note_off_c, 2, 51, 58
4, 42000, Note_on_c, 2, 60, 105
4, 42180, Note_off_c, 2, 60, 58
4, 42240, Note_on_c, 2, 49, 105
4, 42420, Note_off_c, 2, 49, 58
4, 42480, Note_on_c, 2, 60, 105
4, 42660, Note_off_c, 2, 60, 58
4, 42720, Note_on_c, 2, 48, 105
4, 42900, Note_off_c, 2, 48, 58
4, 42960, Note_on_c, 2, 58, 105
4, 43140, Note_off_c, 2, 58, 58
4, 43200, Note_on_c, 2, 56, 105
4, 43380, Note_off_c, 2, 56, 58
4, 43440, Note_on_c, 2, 46, 105
4, 43620, Note_off_c, 2, 46, 58
4, 43680, Note_on_c, 2, 45, 127
4, 43800, Note_off_c, 2, 45, 58
4, 43800, Note_on_c, 2, 43, 105
4, 43920, Note_off_c, 2, 43, 58
4, 43920, Note_on_c, 2, 45, 105
4, 44160, Note_on_c, 2, 46, 105
4, 44167, Note_off_c, 2, 45, 58
4, 44340, Note_off_c, 2, 46, 58
4, 44400, Note_on_c, 2, 34, 105
4, 44580, Note_off_c, 2, 34, 58
4, 44640, Control_c, 2, 11, 100
4, 46080, Note_on_c, 2, 64, 105
4, 47273, Note_off_c, 2, 64, 58
4, 47280, Note_on_c, 2, 67, 105
4, 47460, Note_off_c, 2, 67, 58
4, 47520, Note_on_c, 2, 72, 105
4, 47700, Note_off_c, 2, 72, 58
4, 48120, Note_on_c, 2, 63, 105
4, 48210, Note_off_c, 2, 63, 58
4, 48240, Note_on_c, 2, 66, 105
4, 48330, Note_off_c, 2, 66, 58
4, 48360, Note_on_c, 2, 70, 105
4, 48450, Note_off_c, 2, 70, 58
4, 48600, Note_on_c, 2, 53, 105
4, 48690, Note_off_c, 2, 53, 58
4, 48720, Note_on_c, 2, 57, 105
4, 48810, Note_off_c, 2, 57, 58
4, 48840, Note_on_c, 2, 60, 102
4, 48930, Note_off_c, 2, 60, 58
4, 48960, Note_on_c, 2, 65, 97
4, 49050, Note_off_c, 2, 65, 58
4, 49080, Note_on_c, 2, 63, 100
4, 49170, Note_off_c, 2, 63, 58
4, 49200, Note_on_c, 2, 62, 103
4, 49290, Note_off_c, 2, 62, 58
4, 49320, Note_on_c, 2, 60, 105
4, 49410, Note_off_c, 2, 60, 58
4, 49440, Note_on_c, 2, 58, 105
4, 49620, Note_off_c, 2, 58, 58
4, 49680, Note_on_c, 2, 58, 105
4, 49860, Note_off_c, 2, 58, 58
4, 50160, Note_on_c, 2, 57, 105
4, 50340, Note_off_c, 2, 57, 58
4, 50640, Note_on_c, 2, 55, 105
4, 50820, Note_off_c, 2, 55, 58
4, 50880, Note_on_c, 2, 53, 105
4, 51060, Note_off_c, 2, 53, 58
4, 51120, Note_on_c, 2, 52, 105
4, 51300, Note_off_c, 2, 52, 58
4, 51360, Note_on_c, 2, 50, 105
4, 51450, Note_off_c, 2, 50, 58
4, 51480, Note_on_c, 2, 51, 105
4, 51570, Note_off_c, 2, 51, 58
4, 51600, Note_on_c, 2, 54, 105
4, 51690, Note_off_c, 2, 54, 58
4, 51720, Note_on_c, 2, 58, 105
4, 51810, Note_off_c, 2, 58, 58
4, 51840, Note_on_c, 2, 63, 100
4, 52020, Note_off_c, 2, 63, 58
4, 52080, Note_on_c, 2, 64, 95
4, 52260, Note_off_c, 2, 64, 58
4, 52320, Note_on_c, 2, 69, 90
4, 52500, Note_off_c, 2, 69, 58
4, 52560, Note_on_c, 2, 57, 85
4, 52740, Note_off_c, 2, 57, 58
4, 53520, Note_on_c, 2, 52, 80
4, 53700, Note_off_c, 2, 52, 58
4, 53760, Note_on_c, 2, 57, 105
4, 54953, Note_off_c, 2, 57, 58
4, 54960, Note_on_c, 2, 50, 80
4, 55140, Note_off_c, 2, 50, 58
4, 55200, Note_on_c, 2, 55, 105
4, 55860, Note_off_c, 2, 55, 58
4, 55920, Note_on_c, 2, 48, 80
4, 56100, Note_off_c, 2, 48, 58
4, 56160, Note_on_c, 2, 53, 80
4, 56340, Note_off_c, 2, 53, 58
4, 56400, Note_on_c, 2, 49, 80
4, 56520, Note_off_c, 2, 49, 58
4, 56520, Note_on_c, 2, 51, 80
4, 56640, Note_off_c, 2, 51, 58
4, 56640, Note_on_c, 2, 52, 80
4, 56820, Note_off_c, 2, 52, 58
4, 56880, Note_on_c, 2, 44, 80
4, 57060, Note_off_c, 2, 44, 58
4, 57120, Note_on_c, 2, 52, 80
4, 57300, Note_off_c, 2, 52, 58
4, 57360, Note_on_c, 2, 48, 80
4, 57480, Note_off_c, 2, 48, 58
4, 57480, Note_on_c, 2, 49, 80
4, 57600, Note_off_c, 2, 49, 58
4, 57600, Note_on_c, 2, 51, 78
4, 57780, Note_off_c, 2, 51, 58
4, 57840, Note_on_c, 2, 42, 77
4, 58020, Note_off_c, 2, 42, 58
4, 58080, Note_on_c, 2, 51, 76
4, 58260, Note_off_c, 2, 51, 58
4, 58320, Note_on_c, 2, 40, 75
4, 58500, Note_off_c, 2, 40, 58
4, 58560, Note_on_c, 2, 51, 75
4, 58740, Note_off_c, 2, 51, 58
4, 58800, Note_on_c, 2, 39, 75
4, 58980, Note_off_c, 2, 39, 58
4, 59040, Note_on_c, 2, 49, 75
4, 59220, Note_off_c, 2, 49, 58
4, 59280, Note_on_c, 2, 47, 75
4, 59460, Note_off_c, 2, 47, 58
4, 59520, Note_on_c, 2, 37, 76
4, 59700, Note_off_c, 2, 37, 58
4, 59760, Note_on_c, 2, 36, 78
4, 59880, Note_off_c, 2, 36, 58
4, 59880, Note_on_c, 2, 34, 78
4, 60000, Note_off_c, 2, 34, 58
4, 60000, Note_on_c, 2, 36, 81
4, 60596, Note_off_c, 2, 36, 58
4, 60600, Note_on_c, 2, 38, 83
4, 60690, Note_off_c, 2, 38, 58
4, 60720, Note_on_c, 2, 40, 86
4, 60810, Note_off_c, 2, 40, 58
4, 60840, Note_on_c, 2, 41, 88
4, 60930, Note_off_c, 2, 41, 58
4, 60960, Note_on_c, 2, 43, 90
4, 61050, Note_off_c, 2, 43, 58
4, 61080, Note_on_c, 2, 45, 90
4, 61170, Note_off_c, 2, 45, 58
4, 61200, Note_on_c, 2, 47, 93
4, 61290, Note_off_c, 2, 47, 58
4, 61320, Note_on_c, 2, 48, 97
4, 61410, Note_off_c, 2, 48, 58
4, 61440, Note_on_c, 2, 50, 100
4, 61620, Note_off_c, 2, 50, 58
4, 61680, Note_on_c, 2, 52, 100
4, 61860, Note_off_c, 2, 52, 58
4, 61920, Note_on_c, 2, 53, 100
4, 62100, Note_off_c, 2, 53, 58
4, 63120, Note_on_c, 2, 52, 100
4, 63300, Note_off_c, 2, 52, 58
4, 63360, Note_on_c, 2, 57, 100
4, 63540, Note_off_c, 2, 57, 58
4, 63600, Note_on_c, 2, 53, 100
4, 63780, Note_off_c, 2, 53, 58
4, 63840, Note_on_c, 2, 58, 100
4, 64320, Note_off_c, 2, 58, 58
4, 64320, Note_on_c, 2, 58, 100
4, 64800, Note_off_c, 2, 58, 58
4, 64800, Note_on_c, 2, 58, 103
4, 65280, Note_off_c, 2, 58, 58
4, 65280, Note_on_c, 2, 58, 105
4, 65760, Note_off_c, 2, 58, 58
4, 65760, Note_on_c, 2, 58, 105
4, 66240, Note_off_c, 2, 58, 58
4, 66240, Note_on_c, 2, 60, 105
4, 66420, Note_off_c, 2, 60, 58
4, 66480, Note_on_c, 2, 62, 105
4, 66660, Note_off_c, 2, 62, 58
4, 66720, Note_on_c, 2, 64, 105
4, 66900, Note_off_c, 2, 64, 58
4, 66960, Note_on_c, 2, 52, 105
4, 67140, Note_off_c, 2, 52, 58
4, 67200, Note_on_c, 2, 57, 127
4, 67320, Note_off_c, 2, 57, 58
4, 67320, Note_on_c, 2, 59, 110
4, 67440, Note_off_c, 2, 59, 58
4, 67440, Note_on_c, 2, 60, 110
4, 67620, Note_off_c, 2, 60, 58
4, 67680, Note_on_c, 2, 52, 110
4, 67860, Note_off_c, 2, 52, 58
4, 67920, Note_on_c, 2, 60, 110
4, 68100, Note_off_c, 2, 60, 58
4, 68160, Note_on_c, 2, 57, 127
4, 68280, Note_off_c, 2, 57, 58
4, 68280, Note_on_c, 2, 59, 110
4, 68400, Note_off_c, 2, 59, 58
4, 68400, Note_on_c, 2, 60, 110
4, 68580, Note_off_c, 2, 60, 58
4, 68640, Note_on_c, 2, 52, 110
4, 68820, Note_off_c, 2, 52, 58
4, 68880, Note_on_c, 2, 60, 110
4, 69060, Note_off_c, 2, 60, 58
4, 69120, Note_on_c, 2, 57, 127
4, 69240, Note_off_c, 2, 57, 58
4, 69240, Note_on_c, 2, 59, 110
4, 69360, Note_off_c, 2, 59, 58
4, 69360, Note_on_c, 2, 60, 110
4, 69540, Note_off_c, 2, 60, 58
4, 69600, Note_on_c, 2, 52, 110
4, 69780, Note_off_c, 2, 52, 58
4, 69840, Note_on_c, 2, 60, 110
4, 70020, Note_off_c, 2, 60, 58
4, 70080, Note_on_c, 2, 57, 127
4, 70200, Note_off_c, 2, 57, 58
4, 70200, Note_on_c, 2, 59, 110
4, 70320, Note_off_c, 2, 59, 58
4, 70320, Note_on_c, 2, 60, 110
4, 70500, Note_off_c, 2, 60, 58
4, 70560, Note_on_c, 2, 52, 110
4, 70740, Note_off_c, 2, 52, 58
4, 70800, Note_on_c, 2, 60, 110
4, 70980, Note_off_c, 2, 60, 58
4, 71280, Note_on_c, 2, 52, 110
4, 71460, Note_off_c, 2, 52, 58
4, 71520, Note_on_c, 2, 57, 110
4, 72000, Note_off_c, 2, 57, 58
4, 72240, Note_on_c, 2, 52, 110
4, 72420, Note_off_c, 2, 52, 58
4, 72480, Note_on_c, 2, 57, 110
4, 72960, Note_off_c, 2, 57, 58
4, 73200, Note_on_c, 2, 53, 110
4, 73380, Note_off_c, 2, 53, 58
4, 73440, Note_on_c, 2, 56, 110
4, 73620, Note_off_c, 2, 56, 58
4, 73680, Note_on_c, 2, 58, 110
4, 73860, Note_off_c, 2, 58, 58
4, 73920, Note_on_c, 2, 60, 110
4, 74100, Note_off_c, 2, 60, 58
4, 74160, Note_on_c, 2, 62, 110
4, 74340, Note_off_c, 2, 62, 58
4, 74400, Note_on_c, 2, 63, 110
4, 74580, Note_off_c, 2, 63, 58
4, 74640, Note_on_c, 2, 52, 127
4, 74820, Note_off_c, 2, 52, 58
4, 74880, Note_on_c, 2, 57, 127
4, 75060, Note_off_c, 2, 57, 58
4, 75120, Note_on_c, 2, 55, 110
4, 75210, Note_off_c, 2, 55, 58
4, 75240, Note_on_c, 2, 53, 110
4, 75330, Note_off_c, 2, 53, 58
4, 75360, Note_on_c, 2, 52, 110
4, 75450, Note_off_c, 2, 52, 58
4, 75480, Note_on_c, 2, 50, 110
4, 75570, Note_off_c, 2, 50, 58
4, 75600, Note_on_c, 2, 48, 110
4, 75690, Note_off_c, 2, 48, 58
4, 75720, Note_on_c, 2, 47, 110
4, 75810, Note_off_c, 2, 47, 58
4, 75840, Note_on_c, 2, 45, 127
4, 76020, Note_off_c, 2, 45, 58
4, 76798, Control_c, 2, 91, 0
4, 76799, Control_c, 2, 121, 0
4, 76799, End_track
5, 0, Start_track
5, 0, Title_t, "================="
5, 0, MIDI_port, 0
5, 0, End_track
6, 0, Start_track
6, 0, Title_t, "D. SHOSTAKOVICH"
6, 0, MIDI_port, 0
6, 0, End_track
7, 0, Start_track
7, 0, Title_t, "Fugue in A minor"
7, 0, MIDI_port, 0
7, 0, End_track
8, 0, Start_track
8, 0, Title_t, "opus 87 no. 2"
8, 0, MIDI_port, 0
8, 0, End_track
9, 0, Start_track
9, 0, Title_t, "Sequenced by J. Marques"
9, 0, MIDI_port, 0
9, 0, End_track
10, 0, Start_track
10, 0, Title_t, "jmarques@super.zippo.com"
10, 0, MIDI_port, 0
10, 0, End_track
11, 0, Start_track
11, 0, Title_t, "================="
11, 0, MIDI_port, 0
11, 0, End_track
12, 0, Start_track
12, 1, Copyright_t, "___________________________________________________\012\012KUNSTDERFUGE.COM LARGE CLASSICAL MIDI COLLECTION\012ONCLASSICAL BY ALESSANDRO SIMONETTO, PROPRIETOR\012___________________________________________________\012\012! Attention: this file is under copyright !\012\012(c)onclassical, (c)marques, 2010\012___________________________________________________\012\012NO ONE MAY REPUBLISH THIS FILE WITHOUT PERMISSION\012COMMERCIAL USES OF THIS FILE IS STRICTLY PROHIBITED\012___________________________________________________\012\012Files & contributor's list: http://kunstderfuge.com/\012Terms and conditions: http://kunstderfuge.com/notes.htm"
12, 1, End_track
0, 0, End_of_file