0, 0, Header, 1, 10, 384
1, 0, Start_track
1, 0, Time_signature, 4, 2, 96, 8
1, 0, Sequencer_specific, 03, 00, 00, 41
1, 0, Sequencer_specific, 05, 00, 00, 77, 0E, 00
1, 0, Tempo, 3000000
1, 96, Tempo, 2857142
1, 132, Tempo, 2400000
1, 168, Tempo, 2307692
1, 204, Tempo, 2222222
1, 240, Tempo, 2142857
1, 276, Tempo, 2068965
1, 312, Tempo, 2000000
1, 348, Tempo, 1935483
1, 384, Tempo, 1875000
1, 768, Tempo, 2500000
1, 780, Tempo, 2400000
1, 792, Tempo, 2307692
1, 804, Tempo, 2222222
1, 816, Tempo, 2142857
1, 828, Tempo, 2068965
1, 840, Tempo, 2000000
1, 852, Tempo, 1935483
1, 864, Tempo, 1875000
1, 1536, Tempo, 1875000
1, 1548, Tempo, 2400000
1, 1560, Tempo, 2307692
1, 1572, Tempo, 2222222
1, 1584, Tempo, 2142857
1, 1596, Tempo, 2068965
1, 1608, Tempo, 2000000
1, 1620, Tempo, 1935483
1, 1632, Tempo, 1875000
1, 2304, Tempo, 2500000
1, 2316, Tempo, 2400000
1, 2328, Tempo, 2307692
1, 2340, Tempo, 2222222
1, 2352, Tempo, 2142857
1, 2364, Tempo, 2068965
1, 2376, Tempo, 2000000
1, 2388, Tempo, 1935483
1, 2400, Tempo, 1875000
1, 2688, Tempo, 2500000
1, 2700, Tempo, 2400000
1, 2712, Tempo, 2307692
1, 2724, Tempo, 2222222
1, 2736, Tempo, 2142857
1, 2748, Tempo, 2068965
1, 2760, Tempo, 2000000
1, 2772, Tempo, 1935483
1, 2784, Tempo, 1875000
1, 2832, Tempo, 1935483
1, 2880, Tempo, 2000000
1, 2928, Tempo, 2068965
1, 2976, Tempo, 2142857
1, 3024, Tempo, 2222222
1, 3072, Tempo, 2307692
1, 3084, Tempo, 2400000
1, 3096, Tempo, 2307692
1, 3108, Tempo, 2222222
1, 3120, Tempo, 2142857
1, 3132, Tempo, 2068965
1, 3144, Tempo, 2000000
1, 3156, Tempo, 1935483
1, 3168, Tempo, 1875000
1, 3840, Tempo, 2307692
1, 3856, Tempo, 2222222
1, 3872, Tempo, 2142857
1, 3888, Tempo, 2068965
1, 3904, Tempo, 2000000
1, 3920, Tempo, 1935483
1, 3936, Tempo, 1875000
1, 4608, Tempo, 1875000
1, 4620, Tempo, 2400000
1, 4632, Tempo, 2307692
1, 4644, Tempo, 2222222
1, 4656, Tempo, 2142857
1, 4668, Tempo, 2068965
1, 4680, Tempo, 2000000
1, 4692, Tempo, 1935483
1, 4704, Tempo, 1875000
1, 5376, Tempo, 2307692
1, 5424, Tempo, 2222222
1, 5472, Tempo, 2142857
1, 5520, Tempo, 2068965
1, 5568, Tempo, 2000000
1, 5616, Tempo, 1935483
1, 5664, Tempo, 1875000
1, 5760, Tempo, 2307692
1, 5776, Tempo, 2222222
1, 5792, Tempo, 2142857
1, 5808, Tempo, 2068965
1, 5824, Tempo, 2000000
1, 5840, Tempo, 1935483
1, 5856, Tempo, 1875000
1, 6144, Tempo, 1875000
1, 6156, Tempo, 2400000
1, 6168, Tempo, 2307692
1, 6180, Tempo, 2222222
1, 6192, Tempo, 2142857
1, 6204, Tempo, 2068965
1, 6216, Tempo, 2000000
1, 6228, Tempo, 1935483
1, 6240, Tempo, 1875000
1, 6288, Tempo, 1935483
1, 6336, Tempo, 2000000
1, 6384, Tempo, 2068965
1, 6432, Tempo, 2142857
1, 6480, Tempo, 2222222
1, 6528, Tempo, 2500000
1, 6576, Tempo, 2400000
1, 6624, Tempo, 2307692
1, 6672, Tempo, 2068965
1, 6720, Tempo, 2000000
1, 6768, Tempo, 1935483
1, 6816, Tempo, 1875000
1, 7488, Tempo, 2500000
1, 7500, Tempo, 2400000
1, 7512, Tempo, 2307692
1, 7524, Tempo, 2222222
1, 7536, Tempo, 2142857
1, 7548, Tempo, 2068965
1, 7560, Tempo, 2000000
1, 7572, Tempo, 1935483
1, 7584, Tempo, 1875000
1, 8064, Tempo, 2307692
1, 8080, Tempo, 2222222
1, 8096, Tempo, 2142857
1, 8112, Tempo, 2068965
1, 8128, Tempo, 2000000
1, 8144, Tempo, 1935483
1, 8160, Tempo, 1875000
1, 8256, Tempo, 2500000
1, 8268, Tempo, 2400000
1, 8280, Tempo, 2307692
1, 8292, Tempo, 2222222
1, 8304, Tempo, 2142857
1, 8316, Tempo, 2068965
1, 8328, Tempo, 2000000
1, 8340, Tempo, 1935483
1, 8352, Tempo, 1875000
1, 8448, Tempo, 2500000
1, 8460, Tempo, 2400000
1, 8472, Tempo, 2307692
1, 8484, Tempo, 2222222
1, 8496, Tempo, 2142857
1, 8508, Tempo, 2068965
1, 8520, Tempo, 2000000
1, 8532, Tempo, 1935483
1, 8544, Tempo, 1875000
1, 8928, Tempo, 1875000
1, 8976, Tempo, 1935483
1, 9024, Tempo, 2000000
1, 9072, Tempo, 2068965
1, 9120, Tempo, 2142857
1, 9168, Tempo, 2222222
1, 9216, Tempo, 1875000
1, 9228, Tempo, 2400000
1, 9240, Tempo, 2307692
1, 9252, Tempo, 2222222
1, 9264, Tempo, 2142857
1, 9276, Tempo, 2068965
1, 9288, Tempo, 2000000
1, 9300, Tempo, 1935483
1, 9312, Tempo, 1875000
1, 9792, Tempo, 2307692
1, 9808, Tempo, 2222222
1, 9824, Tempo, 2142857
1, 9840, Tempo, 2068965
1, 9856, Tempo, 2000000
1, 9872, Tempo, 1935483
1, 9888, Tempo, 1875000
1, 9984, Tempo, 2500000
1, 9996, Tempo, 2400000
1, 10008, Tempo, 2307692
1, 10020, Tempo, 2222222
1, 10032, Tempo, 2142857
1, 10044, Tempo, 2068965
1, 10056, Tempo, 2000000
1, 10068, Tempo, 1935483
1, 10080, Tempo, 1875000
1, 10368, Tempo, 2307692
1, 10384, Tempo, 2222222
1, 10400, Tempo, 2142857
1, 10416, Tempo, 2068965
1, 10432, Tempo, 2000000
1, 10448, Tempo, 1935483
1, 10464, Tempo, 1875000
1, 10552, Tempo, 2500000
1, 10564, Tempo, 2400000
1, 10576, Tempo, 2307692
1, 10588, Tempo, 2222222
1, 10604, Tempo, 2142857
1, 10616, Tempo, 2068965
1, 10628, Tempo, 2000000
1, 10640, Tempo, 1935483
1, 10656, Tempo, 1875000
1, 10752, Tempo, 1935483
1, 10764, Tempo, 2400000
1, 10776, Tempo, 2307692
1, 10788, Tempo, 2222222
1, 10800, Tempo, 2142857
1, 10812, Tempo, 2068965
1, 10824, Tempo, 2000000
1, 10836, Tempo, 1935483
1, 10848, Tempo, 1875000
1, 10944, Tempo, 2307692
1, 10960, Tempo, 2222222
1, 10976, Tempo, 2142857
1, 10992, Tempo, 2068965
1, 11008, Tempo, 2000000
1, 11024, Tempo, 1935483
1, 11040, Tempo, 1875000
1, 11136, Tempo, 2500000
1, 11148, Tempo, 2400000
1, 11160, Tempo, 2307692
1, 11172, Tempo, 2222222
1, 11184, Tempo, 2142857
1, 11196, Tempo, 2068965
1, 11208, Tempo, 2000000
1, 11220, Tempo, 1935483
1, 11232, Tempo, 1875000
1, 11424, Tempo, 2727272
1, 11432, Tempo, 2608695
1, 11440, Tempo, 2500000
1, 11452, Tempo, 2400000
1, 11460, Tempo, 2307692
1, 11472, Tempo, 2222222
1, 11480, Tempo, 2142857
1, 11488, Tempo, 2068965
1, 11500, Tempo, 2000000
1, 11508, Tempo, 1935483
1, 11520, Tempo, 2727272
1, 11532, Tempo, 2608695
1, 11544, Tempo, 2500000
1, 11556, Tempo, 2400000
1, 11568, Tempo, 2307692
1, 11580, Tempo, 2222222
1, 11592, Tempo, 2142857
1, 11604, Tempo, 2068965
1, 11616, Tempo, 2000000
1, 11648, Tempo, 2000000
1, 11712, Tempo, 2068965
1, 11776, Tempo, 2142857
1, 11840, Tempo, 2222222
1, 11904, Tempo, 2307692
1, 11968, Tempo, 2400000
1, 12032, Tempo, 2500000
1, 12096, Tempo, 2608695
1, 12160, Tempo, 2727272
1, 12224, Tempo, 2857142
1, 12288, Tempo, 3000000
1, 12384, Tempo, 2857142
1, 12420, Tempo, 2400000
1, 12456, Tempo, 2307692
1, 12492, Tempo, 2222222
1, 12528, Tempo, 2142857
1, 12564, Tempo, 2068965
1, 12600, Tempo, 2000000
1, 12636, Tempo, 1935483
1, 12672, Tempo, 1875000
1, 13056, Tempo, 2500000
1, 13068, Tempo, 2400000
1, 13080, Tempo, 2307692
1, 13092, Tempo, 2222222
1, 13104, Tempo, 2142857
1, 13116, Tempo, 2068965
1, 13128, Tempo, 2000000
1, 13140, Tempo, 1935483
1, 13152, Tempo, 1875000
1, 13824, Tempo, 1875000
1, 13836, Tempo, 2400000
1, 13848, Tempo, 2307692
1, 13860, Tempo, 2222222
1, 13872, Tempo, 2142857
1, 13884, Tempo, 2068965
1, 13896, Tempo, 2000000
1, 13908, Tempo, 1935483
1, 13920, Tempo, 1875000
1, 14592, Tempo, 2500000
1, 14600, Tempo, 2400000
1, 14612, Tempo, 2307692
1, 14624, Tempo, 2222222
1, 14636, Tempo, 2142857
1, 14644, Tempo, 2068965
1, 14656, Tempo, 2000000
1, 14668, Tempo, 1935483
1, 14680, Tempo, 1875000
1, 15360, Tempo, 1875000
1, 15372, Tempo, 2400000
1, 15384, Tempo, 2307692
1, 15396, Tempo, 2222222
1, 15408, Tempo, 2142857
1, 15420, Tempo, 2068965
1, 15432, Tempo, 2000000
1, 15444, Tempo, 1935483
1, 15456, Tempo, 1875000
1, 15744, Tempo, 2500000
1, 15756, Tempo, 2400000
1, 15768, Tempo, 2307692
1, 15780, Tempo, 2222222
1, 15792, Tempo, 2142857
1, 15804, Tempo, 2068965
1, 15816, Tempo, 2000000
1, 15828, Tempo, 1935483
1, 15840, Tempo, 1875000
1, 16128, Tempo, 2500000
1, 16140, Tempo, 2400000
1, 16152, Tempo, 2307692
1, 16164, Tempo, 2222222
1, 16176, Tempo, 2142857
1, 16188, Tempo, 2068965
1, 16200, Tempo, 2000000
1, 16212, Tempo, 1935483
1, 16224, Tempo, 1875000
1, 16512, Tempo, 2307692
1, 16528, Tempo, 2222222
1, 16544, Tempo, 2142857
1, 16560, Tempo, 2068965
1, 16576, Tempo, 2000000
1, 16592, Tempo, 1935483
1, 16608, Tempo, 1875000
1, 16896, Tempo, 1875000
1, 16912, Tempo, 2222222
1, 16928, Tempo, 2142857
1, 16944, Tempo, 2068965
1, 16960, Tempo, 2000000
1, 16976, Tempo, 1935483
1, 16992, Tempo, 1875000
1, 17088, Tempo, 2500000
1, 17100, Tempo, 2400000
1, 17112, Tempo, 2307692
1, 17124, Tempo, 2222222
1, 17136, Tempo, 2142857
1, 17148, Tempo, 2068965
1, 17160, Tempo, 2000000
1, 17172, Tempo, 1935483
1, 17184, Tempo, 1875000
1, 17664, Tempo, 2500000
1, 17676, Tempo, 2400000
1, 17688, Tempo, 2307692
1, 17700, Tempo, 2222222
1, 17712, Tempo, 2142857
1, 17724, Tempo, 2068965
1, 17736, Tempo, 2000000
1, 17748, Tempo, 1935483
1, 17760, Tempo, 1875000
1, 18048, Tempo, 2500000
1, 18060, Tempo, 2400000
1, 18072, Tempo, 2307692
1, 18084, Tempo, 2222222
1, 18096, Tempo, 2142857
1, 18108, Tempo, 2068965
1, 18120, Tempo, 2000000
1, 18132, Tempo, 1935483
1, 18144, Tempo, 2307692
1, 18192, Tempo, 2222222
1, 18240, Tempo, 2142857
1, 18288, Tempo, 2068965
1, 18336, Tempo, 2000000
1, 18384, Tempo, 1935483
1, 18432, Tempo, 2222222
1, 18448, Tempo, 2222222
1, 18464, Tempo, 2142857
1, 18480, Tempo, 2068965
1, 18496, Tempo, 2000000
1, 18512, Tempo, 1935483
1, 18528, Tempo, 1875000
1, 18912, Tempo, 1875000
1, 18960, Tempo, 1935483
1, 19008, Tempo, 2000000
1, 19056, Tempo, 2068965
1, 19104, Tempo, 2142857
1, 19152, Tempo, 2222222
1, 19200, Tempo, 2500000
1, 19212, Tempo, 2400000
1, 19224, Tempo, 2307692
1, 19236, Tempo, 2222222
1, 19248, Tempo, 2142857
1, 19260, Tempo, 2068965
1, 19272, Tempo, 2000000
1, 19284, Tempo, 1935483
1, 19296, Tempo, 1875000
1, 19968, Tempo, 2307692
1, 19984, Tempo, 2222222
1, 20000, Tempo, 2142857
1, 20016, Tempo, 2068965
1, 20032, Tempo, 2000000
1, 20048, Tempo, 1935483
1, 20064, Tempo, 1875000
1, 20448, Tempo, 1875000
1, 20496, Tempo, 1935483
1, 20544, Tempo, 2000000
1, 20592, Tempo, 2068965
1, 20640, Tempo, 2142857
1, 20688, Tempo, 2222222
1, 20736, Tempo, 2500000
1, 20748, Tempo, 2400000
1, 20760, Tempo, 2307692
1, 20772, Tempo, 2222222
1, 20784, Tempo, 2142857
1, 20796, Tempo, 2068965
1, 20808, Tempo, 2000000
1, 20820, Tempo, 1935483
1, 20832, Tempo, 1875000
1, 21504, Tempo, 1875000
1, 21516, Tempo, 2400000
1, 21528, Tempo, 2307692
1, 21540, Tempo, 2222222
1, 21552, Tempo, 2142857
1, 21564, Tempo, 2068965
1, 21576, Tempo, 2000000
1, 21588, Tempo, 1935483
1, 21600, Tempo, 1875000
1, 22272, Tempo, 2500000
1, 22284, Tempo, 2400000
1, 22296, Tempo, 2307692
1, 22308, Tempo, 2222222
1, 22320, Tempo, 2142857
1, 22332, Tempo, 2068965
1, 22344, Tempo, 2000000
1, 22356, Tempo, 1935483
1, 22368, Tempo, 1875000
1, 22752, Tempo, 1875000
1, 22788, Tempo, 1935483
1, 22824, Tempo, 2000000
1, 22860, Tempo, 2068965
1, 22896, Tempo, 2142857
1, 22932, Tempo, 2222222
1, 22968, Tempo, 2307692
1, 23004, Tempo, 2400000
1, 23040, Tempo, 2857142
1, 23052, Tempo, 2400000
1, 23064, Tempo, 2307692
1, 23076, Tempo, 2222222
1, 23088, Tempo, 2142857
1, 23100, Tempo, 2068965
1, 23112, Tempo, 2000000
1, 23124, Tempo, 1935483
1, 23136, Tempo, 1875000
1, 23172, Tempo, 1935483
1, 23208, Tempo, 2000000
1, 23244, Tempo, 2068965
1, 23280, Tempo, 2142857
1, 23316, Tempo, 2222222
1, 23352, Tempo, 2307692
1, 23388, Tempo, 2400000
1, 23424, Tempo, 2500000
1, 23616, Tempo, 2500000
1, 23664, Tempo, 2608695
1, 23712, Tempo, 2727272
1, 23760, Tempo, 2857142
1, 23808, Tempo, 1500000
1, 23920, Tempo, 1538461
1, 24036, Tempo, 1578947
1, 24152, Tempo, 1621621
1, 24268, Tempo, 1666666
1, 24384, Tempo, 1714285
1, 24416, Tempo, 2068965
1, 24448, Tempo, 2142857
1, 24480, Tempo, 2222222
1, 24512, Tempo, 2307692
1, 24544, Tempo, 2400000
1, 24576, Tempo, 1200000
1, 24632, Tempo, 1224489
1, 24688, Tempo, 1250000
1, 24748, Tempo, 1276595
1, 24804, Tempo, 1304347
1, 24864, Tempo, 1333333
1, 24920, Tempo, 1363636
1, 24976, Tempo, 1395348
1, 25036, Tempo, 1428571
1, 25092, Tempo, 1463414
1, 25152, Tempo, 1500000
1, 25208, Tempo, 1538461
1, 25264, Tempo, 1578947
1, 25324, Tempo, 1621621
1, 25380, Tempo, 1666666
1, 25440, Tempo, 1714285
1, 25496, Tempo, 1764705
1, 25552, Tempo, 1818181
1, 25612, Tempo, 1875000
1, 25668, Tempo, 1935483
1, 25728, Tempo, 2000000
1, 25728, End_track
2, 0, Start_track
2, 0, Title_t, "Johann Sebastian Bach"
2, 0, Control_c, 0, 0, 0
2, 0, Program_c, 0, 6
2, 0, Control_c, 0, 7, 127
2, 0, Control_c, 0, 10, 21
2, 0, Control_c, 0, 91, 127
2, 0, Key_signature, -2, "minor"
2, 96, Note_on_c, 0, 58, 112
2, 188, Note_off_c, 0, 58, 100
2, 192, Note_on_c, 0, 60, 112
2, 284, Note_off_c, 0, 60, 100
2, 288, Note_on_c, 0, 62, 112
2, 380, Note_off_c, 0, 62, 100
2, 384, Note_on_c, 0, 63, 112
2, 476, Note_off_c, 0, 63, 100
2, 480, Note_on_c, 0, 62, 112
2, 572, Note_off_c, 0, 62, 100
2, 576, Note_on_c, 0, 60, 112
2, 668, Note_off_c, 0, 60, 100
2, 672, Note_on_c, 0, 58, 112
2, 764, Note_off_c, 0, 58, 100
2, 768, Note_on_c, 0, 57, 112
2, 896, Note_off_c, 0, 57, 100
2, 960, Note_on_c, 0, 63, 112
2, 1148, Note_off_c, 0, 63, 100
2, 1152, Note_on_c, 0, 57, 112
2, 1340, Note_off_c, 0, 57, 100
2, 1344, Note_on_c, 0, 62, 112
2, 1532, Note_off_c, 0, 62, 100
2, 1632, Note_on_c, 0, 55, 112
2, 1724, Note_off_c, 0, 55, 100
2, 1728, Note_on_c, 0, 57, 112
2, 1820, Note_off_c, 0, 57, 100
2, 1824, Note_on_c, 0, 58, 112
2, 1916, Note_off_c, 0, 58, 100
2, 1920, Note_on_c, 0, 60, 112
2, 2012, Note_off_c, 0, 60, 100
2, 2016, Note_on_c, 0, 58, 112
2, 2108, Note_off_c, 0, 58, 100
2, 2112, Note_on_c, 0, 57, 112
2, 2204, Note_off_c, 0, 57, 100
2, 2208, Note_on_c, 0, 55, 112
2, 2300, Note_off_c, 0, 55, 100
2, 2304, Note_on_c, 0, 57, 112
2, 2492, Note_off_c, 0, 57, 100
2, 2880, Note_on_c, 0, 57, 112
2, 3068, Note_off_c, 0, 57, 100
2, 3072, Note_on_c, 0, 58, 112
2, 3260, Note_off_c, 0, 58, 100
2, 3264, Note_on_c, 0, 57, 112
2, 3452, Note_off_c, 0, 57, 100
2, 3456, Note_on_c, 0, 58, 112
2, 3644, Note_off_c, 0, 58, 100
2, 3648, Note_on_c, 0, 59, 112
2, 3836, Note_off_c, 0, 59, 100
2, 3840, Note_on_c, 0, 60, 112
2, 3932, Note_off_c, 0, 60, 100
2, 3936, Note_on_c, 0, 62, 112
2, 4028, Note_off_c, 0, 62, 100
2, 4032, Note_on_c, 0, 63, 112
2, 4124, Note_off_c, 0, 63, 100
2, 4128, Note_on_c, 0, 62, 112
2, 4220, Note_off_c, 0, 62, 100
2, 4224, Note_on_c, 0, 60, 112
2, 4316, Note_off_c, 0, 60, 100
2, 4320, Note_on_c, 0, 58, 112
2, 4412, Note_off_c, 0, 58, 100
2, 4416, Note_on_c, 0, 57, 112
2, 4508, Note_off_c, 0, 57, 100
2, 4512, Note_on_c, 0, 55, 112
2, 4604, Note_off_c, 0, 55, 100
2, 4608, Note_on_c, 0, 66, 112
2, 4796, Note_off_c, 0, 66, 100
2, 5184, Note_on_c, 0, 62, 112
2, 5372, Note_off_c, 0, 62, 100
2, 5472, Note_on_c, 0, 62, 112
2, 5564, Note_off_c, 0, 62, 100
2, 5568, Note_on_c, 0, 60, 112
2, 5660, Note_off_c, 0, 60, 100
2, 5664, Note_on_c, 0, 58, 112
2, 5756, Note_off_c, 0, 58, 100
2, 5760, Note_on_c, 0, 60, 112
2, 5852, Note_off_c, 0, 60, 100
2, 5856, Note_on_c, 0, 62, 112
2, 5948, Note_off_c, 0, 62, 100
2, 5952, Note_on_c, 0, 64, 112
2, 6044, Note_off_c, 0, 64, 100
2, 6048, Note_on_c, 0, 66, 112
2, 6140, Note_off_c, 0, 66, 100
2, 6144, Note_on_c, 0, 67, 112
2, 6332, Note_off_c, 0, 67, 100
2, 6336, Note_on_c, 0, 66, 112
2, 6524, Note_off_c, 0, 66, 100
2, 6528, Note_on_c, 0, 67, 112
2, 6620, Note_off_c, 0, 67, 100
2, 6624, Note_on_c, 0, 69, 112
2, 6716, Note_off_c, 0, 69, 100
2, 6720, Note_on_c, 0, 70, 112
2, 6908, Note_off_c, 0, 70, 100
2, 7008, Note_on_c, 0, 69, 112
2, 7100, Note_off_c, 0, 69, 100
2, 7104, Note_on_c, 0, 67, 112
2, 7196, Note_off_c, 0, 67, 100
2, 7200, Note_on_c, 0, 70, 112
2, 7292, Note_off_c, 0, 70, 100
2, 7296, Note_on_c, 0, 69, 112
2, 7388, Note_off_c, 0, 69, 100
2, 7392, Note_on_c, 0, 67, 112
2, 7484, Note_off_c, 0, 67, 100
2, 7488, Note_on_c, 0, 65, 112
2, 7580, Note_off_c, 0, 65, 100
2, 7584, Note_on_c, 0, 64, 112
2, 7648, Note_off_c, 0, 64, 100
2, 7680, Note_on_c, 0, 64, 112
2, 7696, Note_off_c, 0, 64, 100
2, 7700, Note_on_c, 0, 62, 112
2, 7716, Note_off_c, 0, 62, 100
2, 7720, Note_on_c, 0, 64, 112
2, 7736, Note_off_c, 0, 64, 100
2, 7740, Note_on_c, 0, 62, 112
2, 7940, Note_off_c, 0, 62, 100
2, 7968, Note_on_c, 0, 61, 112
2, 8060, Note_off_c, 0, 61, 100
2, 8064, Note_on_c, 0, 62, 112
2, 8156, Note_off_c, 0, 62, 100
2, 8160, Note_on_c, 0, 64, 112
2, 8252, Note_off_c, 0, 64, 100
2, 8256, Note_on_c, 0, 65, 112
2, 8444, Note_off_c, 0, 65, 100
2, 8448, Note_on_c, 0, 64, 112
2, 8636, Note_off_c, 0, 64, 100
2, 9024, Note_on_c, 0, 64, 112
2, 9212, Note_off_c, 0, 64, 100
2, 9216, Note_on_c, 0, 65, 112
2, 9404, Note_off_c, 0, 65, 100
2, 9408, Note_on_c, 0, 64, 112
2, 9596, Note_off_c, 0, 64, 100
2, 9600, Note_on_c, 0, 65, 112
2, 9788, Note_off_c, 0, 65, 100
2, 9792, Note_on_c, 0, 66, 112
2, 9980, Note_off_c, 0, 66, 100
2, 9984, Note_on_c, 0, 67, 112
2, 10172, Note_off_c, 0, 67, 100
2, 10176, Note_on_c, 0, 69, 112
2, 10364, Note_off_c, 0, 69, 100
2, 10368, Note_on_c, 0, 70, 112
2, 10556, Note_off_c, 0, 70, 100
2, 10560, Note_on_c, 0, 69, 112
2, 10940, Note_off_c, 0, 69, 64
2, 10944, Note_on_c, 0, 67, 112
2, 11036, Note_off_c, 0, 67, 100
2, 11040, Note_on_c, 0, 65, 112
2, 11132, Note_off_c, 0, 65, 100
2, 11136, Note_on_c, 0, 64, 112
2, 11228, Note_off_c, 0, 64, 100
2, 11232, Note_on_c, 0, 62, 112
2, 11324, Note_off_c, 0, 62, 100
2, 11328, Note_on_c, 0, 64, 112
2, 11516, Note_off_c, 0, 64, 100
2, 11520, Note_on_c, 0, 62, 112
2, 11900, Note_off_c, 0, 62, 100
2, 13152, Note_on_c, 0, 80, 112
2, 13244, Note_off_c, 0, 80, 100
2, 13248, Note_on_c, 0, 79, 112
2, 13340, Note_off_c, 0, 79, 100
2, 13344, Note_on_c, 0, 77, 112
2, 13436, Note_off_c, 0, 77, 100
2, 13440, Note_on_c, 0, 76, 112
2, 13532, Note_off_c, 0, 76, 100
2, 13536, Note_on_c, 0, 77, 112
2, 13628, Note_off_c, 0, 77, 100
2, 13632, Note_on_c, 0, 79, 112
2, 13724, Note_off_c, 0, 79, 100
2, 13728, Note_on_c, 0, 76, 112
2, 13820, Note_off_c, 0, 76, 100
2, 13824, Note_on_c, 0, 72, 112
2, 14012, Note_off_c, 0, 72, 100
2, 14016, Note_on_c, 0, 74, 112
2, 14108, Note_off_c, 0, 74, 100
2, 14112, Note_on_c, 0, 75, 112
2, 14204, Note_off_c, 0, 75, 100
2, 14208, Note_on_c, 0, 77, 112
2, 14396, Note_off_c, 0, 77, 100
2, 14400, Note_on_c, 0, 70, 112
2, 14588, Note_off_c, 0, 70, 100
2, 14688, Note_on_c, 0, 77, 112
2, 14780, Note_off_c, 0, 77, 100
2, 14784, Note_on_c, 0, 75, 112
2, 14876, Note_off_c, 0, 75, 100
2, 14880, Note_on_c, 0, 74, 112
2, 14972, Note_off_c, 0, 74, 100
2, 14976, Note_on_c, 0, 72, 112
2, 15068, Note_off_c, 0, 72, 100
2, 15072, Note_on_c, 0, 75, 112
2, 15164, Note_off_c, 0, 75, 100
2, 15168, Note_on_c, 0, 74, 112
2, 15260, Note_off_c, 0, 74, 100
2, 15264, Note_on_c, 0, 77, 112
2, 15356, Note_off_c, 0, 77, 100
2, 15360, Note_on_c, 0, 75, 112
2, 15548, Note_off_c, 0, 75, 100
2, 15552, Note_on_c, 0, 77, 112
2, 15740, Note_off_c, 0, 77, 100
2, 15744, Note_on_c, 0, 79, 112
2, 16124, Note_off_c, 0, 79, 100
2, 16224, Note_on_c, 0, 77, 112
2, 16316, Note_off_c, 0, 77, 100
2, 16320, Note_on_c, 0, 79, 112
2, 16412, Note_off_c, 0, 79, 100
2, 16416, Note_on_c, 0, 80, 112
2, 16508, Note_off_c, 0, 80, 100
2, 16512, Note_on_c, 0, 74, 112
2, 16604, Note_off_c, 0, 74, 100
2, 16608, Note_on_c, 0, 72, 112
2, 16700, Note_off_c, 0, 72, 100
2, 16704, Note_on_c, 0, 74, 112
2, 16796, Note_off_c, 0, 74, 100
2, 16800, Note_on_c, 0, 77, 112
2, 16892, Note_off_c, 0, 77, 100
2, 16896, Note_on_c, 0, 70, 112
2, 16988, Note_off_c, 0, 70, 100
2, 16992, Note_on_c, 0, 72, 112
2, 17084, Note_off_c, 0, 72, 100
2, 17088, Note_on_c, 0, 74, 112
2, 17180, Note_off_c, 0, 74, 100
2, 17184, Note_on_c, 0, 70, 112
2, 17276, Note_off_c, 0, 70, 100
2, 17280, Note_on_c, 0, 75, 112
2, 17468, Note_off_c, 0, 75, 100
2, 17472, Note_on_c, 0, 68, 112
2, 17756, Note_off_c, 0, 68, 100
2, 17856, Note_on_c, 0, 67, 112
2, 17948, Note_off_c, 0, 67, 100
2, 17952, Note_on_c, 0, 65, 112
2, 18044, Note_off_c, 0, 65, 100
2, 18048, Note_on_c, 0, 67, 112
2, 18236, Note_off_c, 0, 67, 100
2, 18240, Note_on_c, 0, 75, 112
2, 18620, Note_off_c, 0, 75, 64
2, 18624, Note_on_c, 0, 74, 112
2, 18716, Note_off_c, 0, 74, 100
2, 18720, Note_on_c, 0, 72, 112
2, 18812, Note_off_c, 0, 72, 100
2, 18816, Note_on_c, 0, 74, 112
2, 19004, Note_off_c, 0, 74, 100
2, 19296, Note_on_c, 0, 64, 112
2, 19388, Note_off_c, 0, 64, 100
2, 19392, Note_on_c, 0, 65, 112
2, 19484, Note_off_c, 0, 65, 100
2, 19488, Note_on_c, 0, 67, 112
2, 19580, Note_off_c, 0, 67, 100
2, 19584, Note_on_c, 0, 65, 112
2, 19676, Note_off_c, 0, 65, 100
2, 19680, Note_on_c, 0, 64, 112
2, 19772, Note_off_c, 0, 64, 100
2, 19776, Note_on_c, 0, 62, 112
2, 19868, Note_off_c, 0, 62, 100
2, 19872, Note_on_c, 0, 60, 112
2, 19936, Note_off_c, 0, 60, 100
2, 19968, Note_on_c, 0, 72, 112
2, 20060, Note_off_c, 0, 72, 100
2, 20064, Note_on_c, 0, 70, 112
2, 20156, Note_off_c, 0, 70, 100
2, 20160, Note_on_c, 0, 72, 112
2, 20348, Note_off_c, 0, 72, 100
2, 20352, Note_on_c, 0, 66, 112
2, 20540, Note_off_c, 0, 66, 100
2, 20928, Note_on_c, 0, 74, 112
2, 21020, Note_off_c, 0, 74, 100
2, 21024, Note_on_c, 0, 72, 112
2, 21116, Note_off_c, 0, 72, 100
2, 21120, Note_on_c, 0, 70, 112
2, 21212, Note_off_c, 0, 70, 100
2, 21216, Note_on_c, 0, 69, 112
2, 21308, Note_off_c, 0, 69, 100
2, 21312, Note_on_c, 0, 67, 112
2, 21404, Note_off_c, 0, 67, 100
2, 21408, Note_on_c, 0, 65, 112
2, 21500, Note_off_c, 0, 65, 100
2, 21504, Note_on_c, 0, 63, 112
2, 21692, Note_off_c, 0, 63, 100
2, 22080, Note_on_c, 0, 72, 112
2, 22460, Note_off_c, 0, 72, 100
2, 22464, Note_on_c, 0, 70, 112
2, 22652, Note_off_c, 0, 70, 100
2, 22656, Note_on_c, 0, 69, 112
2, 22844, Note_off_c, 0, 69, 100
2, 22848, Note_on_c, 0, 70, 112
2, 22940, Note_off_c, 0, 70, 100
2, 22944, Note_on_c, 0, 72, 112
2, 23036, Note_off_c, 0, 72, 100
2, 23040, Note_on_c, 0, 74, 112
2, 23228, Note_off_c, 0, 74, 100
2, 23232, Note_on_c, 0, 65, 112
2, 23420, Note_off_c, 0, 65, 100
2, 23424, Note_on_c, 0, 63, 112
2, 23552, Note_off_c, 0, 63, 100
2, 23616, Note_on_c, 0, 72, 112
2, 23896, Note_off_c, 0, 72, 100
2, 24000, Note_on_c, 0, 70, 112
2, 24092, Note_off_c, 0, 70, 100
2, 24096, Note_on_c, 0, 69, 112
2, 24188, Note_off_c, 0, 69, 100
2, 24192, Note_on_c, 0, 67, 112
2, 24284, Note_off_c, 0, 67, 100
2, 24288, Note_on_c, 0, 69, 112
2, 24380, Note_off_c, 0, 69, 100
2, 24384, Note_on_c, 0, 66, 112
2, 24572, Note_off_c, 0, 66, 100
2, 24576, Note_on_c, 0, 67, 112
2, 26108, Note_off_c, 0, 67, 100
2, 26108, End_track
3, 0, Start_track
3, 0, Title_t, "Goldberg Variations"
3, 0, Control_c, 1, 0, 0
3, 0, Program_c, 1, 6
3, 0, Control_c, 1, 7, 125
3, 0, Control_c, 1, 10, 105
3, 0, Control_c, 1, 91, 127
3, 0, Key_signature, -2, "minor"
3, 864, Note_on_c, 1, 69, 112
3, 956, Note_off_c, 1, 69, 100
3, 960, Note_on_c, 1, 70, 112
3, 1052, Note_off_c, 1, 70, 100
3, 1056, Note_on_c, 1, 72, 112
3, 1148, Note_off_c, 1, 72, 100
3, 1152, Note_on_c, 1, 74, 112
3, 1244, Note_off_c, 1, 74, 100
3, 1248, Note_on_c, 1, 72, 112
3, 1340, Note_off_c, 1, 72, 100
3, 1344, Note_on_c, 1, 70, 112
3, 1436, Note_off_c, 1, 70, 100
3, 1440, Note_on_c, 1, 69, 112
3, 1532, Note_off_c, 1, 69, 100
3, 1536, Note_on_c, 1, 67, 112
3, 1664, Note_off_c, 1, 67, 100
3, 1728, Note_on_c, 1, 74, 112
3, 1916, Note_off_c, 1, 74, 100
3, 1920, Note_on_c, 1, 67, 112
3, 2108, Note_off_c, 1, 67, 100
3, 2112, Note_on_c, 1, 72, 112
3, 2300, Note_off_c, 1, 72, 100
3, 2400, Note_on_c, 1, 66, 112
3, 2492, Note_off_c, 1, 66, 100
3, 2496, Note_on_c, 1, 67, 112
3, 2588, Note_off_c, 1, 67, 100
3, 2592, Note_on_c, 1, 69, 112
3, 2684, Note_off_c, 1, 69, 100
3, 2688, Note_on_c, 1, 70, 112
3, 2780, Note_off_c, 1, 70, 100
3, 2784, Note_on_c, 1, 69, 112
3, 2876, Note_off_c, 1, 69, 100
3, 2880, Note_on_c, 1, 67, 112
3, 2972, Note_off_c, 1, 67, 100
3, 2976, Note_on_c, 1, 66, 112
3, 3068, Note_off_c, 1, 66, 100
3, 3072, Note_on_c, 1, 67, 112
3, 3260, Note_off_c, 1, 67, 100
3, 3648, Note_on_c, 1, 67, 112
3, 3836, Note_off_c, 1, 67, 100
3, 3840, Note_on_c, 1, 68, 112
3, 4028, Note_off_c, 1, 68, 100
3, 4032, Note_on_c, 1, 67, 112
3, 4220, Note_off_c, 1, 67, 100
3, 4224, Note_on_c, 1, 68, 112
3, 4412, Note_off_c, 1, 68, 100
3, 4416, Note_on_c, 1, 69, 112
3, 4604, Note_off_c, 1, 69, 100
3, 4608, Note_on_c, 1, 70, 112
3, 4700, Note_off_c, 1, 70, 100
3, 4704, Note_on_c, 1, 72, 112
3, 4796, Note_off_c, 1, 72, 100
3, 4800, Note_on_c, 1, 74, 112
3, 4892, Note_off_c, 1, 74, 100
3, 4896, Note_on_c, 1, 72, 112
3, 4988, Note_off_c, 1, 72, 100
3, 4992, Note_on_c, 1, 70, 112
3, 5084, Note_off_c, 1, 70, 100
3, 5088, Note_on_c, 1, 69, 112
3, 5180, Note_off_c, 1, 69, 100
3, 5184, Note_on_c, 1, 67, 112
3, 5276, Note_off_c, 1, 67, 100
3, 5280, Note_on_c, 1, 66, 112
3, 5372, Note_off_c, 1, 66, 100
3, 5376, Note_on_c, 1, 75, 112
3, 5564, Note_off_c, 1, 75, 100
3, 5952, Note_on_c, 1, 72, 112
3, 6140, Note_off_c, 1, 72, 100
3, 6240, Note_on_c, 1, 72, 112
3, 6332, Note_off_c, 1, 72, 100
3, 6336, Note_on_c, 1, 70, 112
3, 6428, Note_off_c, 1, 70, 100
3, 6432, Note_on_c, 1, 69, 112
3, 6524, Note_off_c, 1, 69, 100
3, 6528, Note_on_c, 1, 70, 112
3, 6620, Note_off_c, 1, 70, 100
3, 6624, Note_on_c, 1, 72, 112
3, 6716, Note_off_c, 1, 72, 100
3, 6720, Note_on_c, 1, 74, 112
3, 6812, Note_off_c, 1, 74, 100
3, 6816, Note_on_c, 1, 76, 112
3, 6908, Note_off_c, 1, 76, 100
3, 6912, Note_on_c, 1, 77, 112
3, 7100, Note_off_c, 1, 77, 100
3, 7104, Note_on_c, 1, 76, 112
3, 7292, Note_off_c, 1, 76, 100
3, 7296, Note_on_c, 1, 77, 112
3, 7388, Note_off_c, 1, 77, 100
3, 7392, Note_on_c, 1, 79, 112
3, 7484, Note_off_c, 1, 79, 100
3, 7488, Note_on_c, 1, 81, 112
3, 7676, Note_off_c, 1, 81, 100
3, 7776, Note_on_c, 1, 79, 112
3, 7868, Note_off_c, 1, 79, 100
3, 7872, Note_on_c, 1, 77, 112
3, 7964, Note_off_c, 1, 77, 100
3, 7968, Note_on_c, 1, 81, 112
3, 8060, Note_off_c, 1, 81, 100
3, 8064, Note_on_c, 1, 79, 112
3, 8156, Note_off_c, 1, 79, 100
3, 8160, Note_on_c, 1, 77, 112
3, 8252, Note_off_c, 1, 77, 100
3, 8256, Note_on_c, 1, 76, 112
3, 8348, Note_off_c, 1, 76, 100
3, 8352, Note_on_c, 1, 74, 112
3, 8416, Note_off_c, 1, 74, 100
3, 8448, Note_on_c, 1, 74, 112
3, 8460, Note_off_c, 1, 74, 100
3, 8464, Note_on_c, 1, 73, 112
3, 8476, Note_off_c, 1, 73, 100
3, 8480, Note_on_c, 1, 74, 112
3, 8492, Note_off_c, 1, 74, 100
3, 8496, Note_on_c, 1, 73, 112
3, 8708, Note_off_c, 1, 73, 100
3, 8736, Note_on_c, 1, 71, 112
3, 8828, Note_off_c, 1, 71, 100
3, 8832, Note_on_c, 1, 73, 112
3, 8924, Note_off_c, 1, 73, 100
3, 8928, Note_on_c, 1, 74, 112
3, 9020, Note_off_c, 1, 74, 100
3, 9024, Note_on_c, 1, 76, 112
3, 9212, Note_off_c, 1, 76, 100
3, 9216, Note_on_c, 1, 74, 112
3, 9404, Note_off_c, 1, 74, 100
3, 9792, Note_on_c, 1, 74, 112
3, 9980, Note_off_c, 1, 74, 100
3, 9984, Note_on_c, 1, 75, 112
3, 10172, Note_off_c, 1, 75, 100
3, 10176, Note_on_c, 1, 74, 112
3, 10364, Note_off_c, 1, 74, 100
3, 10368, Note_on_c, 1, 75, 112
3, 10556, Note_off_c, 1, 75, 100
3, 10560, Note_on_c, 1, 76, 112
3, 10748, Note_off_c, 1, 76, 100
3, 10752, Note_on_c, 1, 77, 112
3, 10940, Note_off_c, 1, 77, 100
3, 10944, Note_on_c, 1, 79, 112
3, 11132, Note_off_c, 1, 79, 100
3, 11136, Note_on_c, 1, 81, 112
3, 11324, Note_off_c, 1, 81, 100
3, 11328, Note_on_c, 1, 79, 112
3, 11708, Note_off_c, 1, 79, 100
3, 11712, Note_on_c, 1, 78, 112
3, 11804, Note_off_c, 1, 78, 100
3, 11808, Note_on_c, 1, 76, 112
3, 11900, Note_off_c, 1, 76, 100
3, 11904, Note_on_c, 1, 74, 112
3, 11996, Note_off_c, 1, 74, 100
3, 12000, Note_on_c, 1, 73, 112
3, 12092, Note_off_c, 1, 73, 100
3, 12096, Note_on_c, 1, 74, 112
3, 12284, Note_off_c, 1, 74, 100
3, 12384, Note_on_c, 1, 70, 112
3, 12476, Note_off_c, 1, 70, 100
3, 12480, Note_on_c, 1, 69, 112
3, 12572, Note_off_c, 1, 69, 100
3, 12576, Note_on_c, 1, 67, 112
3, 12668, Note_off_c, 1, 67, 100
3, 12672, Note_on_c, 1, 66, 112
3, 12764, Note_off_c, 1, 66, 100
3, 12768, Note_on_c, 1, 67, 112
3, 12860, Note_off_c, 1, 67, 100
3, 12864, Note_on_c, 1, 69, 112
3, 12956, Note_off_c, 1, 69, 100
3, 12960, Note_on_c, 1, 66, 112
3, 13052, Note_off_c, 1, 66, 100
3, 13056, Note_on_c, 1, 62, 112
3, 13244, Note_off_c, 1, 62, 100
3, 13248, Note_on_c, 1, 64, 112
3, 13340, Note_off_c, 1, 64, 100
3, 13344, Note_on_c, 1, 65, 112
3, 13436, Note_off_c, 1, 65, 100
3, 13440, Note_on_c, 1, 67, 112
3, 13628, Note_off_c, 1, 67, 100
3, 13632, Note_on_c, 1, 60, 112
3, 13820, Note_off_c, 1, 60, 100
3, 13920, Note_on_c, 1, 67, 112
3, 14012, Note_off_c, 1, 67, 100
3, 14016, Note_on_c, 1, 65, 112
3, 14108, Note_off_c, 1, 65, 100
3, 14112, Note_on_c, 1, 63, 112
3, 14204, Note_off_c, 1, 63, 100
3, 14208, Note_on_c, 1, 62, 112
3, 14300, Note_off_c, 1, 62, 100
3, 14304, Note_on_c, 1, 65, 112
3, 14396, Note_off_c, 1, 65, 100
3, 14400, Note_on_c, 1, 63, 112
3, 14492, Note_off_c, 1, 63, 100
3, 14496, Note_on_c, 1, 67, 112
3, 14588, Note_off_c, 1, 67, 100
3, 14592, Note_on_c, 1, 65, 112
3, 14780, Note_off_c, 1, 65, 100
3, 14784, Note_on_c, 1, 67, 112
3, 14972, Note_off_c, 1, 67, 100
3, 14976, Note_on_c, 1, 68, 112
3, 15356, Note_off_c, 1, 68, 100
3, 15456, Note_on_c, 1, 67, 112
3, 15548, Note_off_c, 1, 67, 100
3, 15552, Note_on_c, 1, 68, 112
3, 15644, Note_off_c, 1, 68, 100
3, 15648, Note_on_c, 1, 70, 112
3, 15740, Note_off_c, 1, 70, 100
3, 15744, Note_on_c, 1, 63, 112
3, 15836, Note_off_c, 1, 63, 100
3, 15840, Note_on_c, 1, 62, 112
3, 15932, Note_off_c, 1, 62, 100
3, 15936, Note_on_c, 1, 63, 112
3, 16028, Note_off_c, 1, 63, 100
3, 16032, Note_on_c, 1, 67, 112
3, 16124, Note_off_c, 1, 67, 100
3, 16128, Note_on_c, 1, 60, 112
3, 16220, Note_off_c, 1, 60, 100
3, 16224, Note_on_c, 1, 62, 112
3, 16316, Note_off_c, 1, 62, 100
3, 16320, Note_on_c, 1, 63, 112
3, 16412, Note_off_c, 1, 63, 100
3, 16416, Note_on_c, 1, 60, 112
3, 16508, Note_off_c, 1, 60, 100
3, 16512, Note_on_c, 1, 65, 112
3, 16700, Note_off_c, 1, 65, 100
3, 16704, Note_on_c, 1, 58, 112
3, 16988, Note_off_c, 1, 58, 64
3, 17088, Note_on_c, 1, 56, 112
3, 17180, Note_off_c, 1, 56, 100
3, 17184, Note_on_c, 1, 55, 112
3, 17276, Note_off_c, 1, 55, 100
3, 17280, Note_on_c, 1, 56, 112
3, 17468, Note_off_c, 1, 56, 100
3, 17472, Note_on_c, 1, 65, 112
3, 17852, Note_off_c, 1, 65, 100
3, 17856, Note_on_c, 1, 63, 112
3, 17948, Note_off_c, 1, 63, 100
3, 17952, Note_on_c, 1, 62, 112
3, 18044, Note_off_c, 1, 62, 100
3, 18048, Note_on_c, 1, 63, 112
3, 18236, Note_off_c, 1, 63, 100
3, 18528, Note_on_c, 1, 54, 112
3, 18620, Note_off_c, 1, 54, 100
3, 18624, Note_on_c, 1, 55, 112
3, 18716, Note_off_c, 1, 55, 100
3, 18720, Note_on_c, 1, 57, 112
3, 18812, Note_off_c, 1, 57, 100
3, 18816, Note_on_c, 1, 55, 112
3, 18908, Note_off_c, 1, 55, 100
3, 18912, Note_on_c, 1, 54, 112
3, 19004, Note_off_c, 1, 54, 100
3, 19008, Note_on_c, 1, 52, 112
3, 19100, Note_off_c, 1, 52, 100
3, 19104, Note_on_c, 1, 50, 112
3, 19168, Note_off_c, 1, 50, 100
3, 19200, Note_on_c, 1, 62, 112
3, 19292, Note_off_c, 1, 62, 100
3, 19296, Note_on_c, 1, 60, 112
3, 19388, Note_off_c, 1, 60, 100
3, 19392, Note_on_c, 1, 62, 112
3, 19580, Note_off_c, 1, 62, 100
3, 19584, Note_on_c, 1, 55, 112
3, 19772, Note_off_c, 1, 55, 100
3, 20160, Note_on_c, 1, 63, 112
3, 20252, Note_off_c, 1, 63, 100
3, 20256, Note_on_c, 1, 62, 112
3, 20348, Note_off_c, 1, 62, 100
3, 20352, Note_on_c, 1, 60, 112
3, 20444, Note_off_c, 1, 60, 100
3, 20448, Note_on_c, 1, 58, 112
3, 20540, Note_off_c, 1, 58, 100
3, 20544, Note_on_c, 1, 57, 112
3, 20636, Note_off_c, 1, 57, 100
3, 20640, Note_on_c, 1, 55, 112
3, 20732, Note_off_c, 1, 55, 100
3, 20736, Note_on_c, 1, 54, 112
3, 20924, Note_off_c, 1, 54, 100
3, 21312, Note_on_c, 1, 62, 112
3, 21692, Note_off_c, 1, 62, 64
3, 21696, Note_on_c, 1, 60, 112
3, 21884, Note_off_c, 1, 60, 100
3, 21888, Note_on_c, 1, 59, 112
3, 22076, Note_off_c, 1, 59, 100
3, 22080, Note_on_c, 1, 60, 112
3, 22172, Note_off_c, 1, 60, 100
3, 22176, Note_on_c, 1, 62, 112
3, 22268, Note_off_c, 1, 62, 100
3, 22272, Note_on_c, 1, 63, 112
3, 22460, Note_off_c, 1, 63, 100
3, 22464, Note_on_c, 1, 55, 112
3, 22652, Note_off_c, 1, 55, 100
3, 22656, Note_on_c, 1, 54, 112
3, 22784, Note_off_c, 1, 54, 100
3, 22848, Note_on_c, 1, 62, 112
3, 23036, Note_off_c, 1, 62, 100
3, 23136, Note_on_c, 1, 60, 112
3, 23180, Note_off_c, 1, 60, 100
3, 23184, Note_on_c, 1, 58, 112
3, 23228, Note_off_c, 1, 58, 100
3, 23232, Note_on_c, 1, 57, 112
3, 23276, Note_off_c, 1, 57, 100
3, 23280, Note_on_c, 1, 58, 112
3, 23324, Note_off_c, 1, 58, 100
3, 23328, Note_on_c, 1, 55, 112
3, 23420, Note_off_c, 1, 55, 100
3, 23424, Note_on_c, 1, 56, 112
3, 23516, Note_off_c, 1, 56, 100
3, 23520, Note_on_c, 1, 55, 112
3, 23708, Note_off_c, 1, 55, 100
3, 23712, Note_on_c, 1, 54, 112
3, 23804, Note_off_c, 1, 54, 100
3, 23808, Note_on_c, 1, 55, 112
3, 24572, Note_off_c, 1, 55, 100
3, 24572, End_track
4, 0, Start_track
4, 0, Title_t, "BWV 988"
4, 0, Control_c, 2, 0, 0
4, 0, Program_c, 2, 6
4, 0, Control_c, 2, 7, 127
4, 0, Control_c, 2, 91, 127
4, 0, Key_signature, -2, "minor"
4, 0, Note_on_c, 2, 43, 112
4, 256, Note_off_c, 2, 43, 100
4, 384, Note_on_c, 2, 55, 112
4, 764, Note_off_c, 2, 55, 100
4, 768, Note_on_c, 2, 54, 112
4, 1148, Note_off_c, 2, 54, 100
4, 1152, Note_on_c, 2, 53, 112
4, 1532, Note_off_c, 2, 53, 100
4, 1536, Note_on_c, 2, 52, 112
4, 1916, Note_off_c, 2, 52, 100
4, 1920, Note_on_c, 2, 51, 112
4, 2300, Note_off_c, 2, 51, 100
4, 2304, Note_on_c, 2, 50, 112
4, 2368, Note_off_c, 2, 50, 100
4, 2400, Note_on_c, 2, 45, 112
4, 2492, Note_off_c, 2, 45, 100
4, 2496, Note_on_c, 2, 46, 112
4, 2588, Note_off_c, 2, 46, 100
4, 2592, Note_on_c, 2, 48, 112
4, 2684, Note_off_c, 2, 48, 100
4, 2688, Note_on_c, 2, 50, 112
4, 2876, Note_off_c, 2, 50, 100
4, 2880, Note_on_c, 2, 38, 112
4, 3068, Note_off_c, 2, 38, 100
4, 3072, Note_on_c, 2, 43, 112
4, 3136, Note_off_c, 2, 43, 100
4, 3168, Note_on_c, 2, 50, 112
4, 3260, Note_off_c, 2, 50, 100
4, 3264, Note_on_c, 2, 52, 112
4, 3356, Note_off_c, 2, 52, 100
4, 3360, Note_on_c, 2, 54, 112
4, 3452, Note_off_c, 2, 54, 100
4, 3456, Note_on_c, 2, 55, 112
4, 3548, Note_off_c, 2, 55, 100
4, 3552, Note_on_c, 2, 53, 112
4, 3644, Note_off_c, 2, 53, 100
4, 3648, Note_on_c, 2, 51, 112
4, 3740, Note_off_c, 2, 51, 100
4, 3744, Note_on_c, 2, 50, 112
4, 3836, Note_off_c, 2, 50, 100
4, 3840, Note_on_c, 2, 48, 112
4, 4028, Note_off_c, 2, 48, 100
4, 4032, Note_on_c, 2, 47, 112
4, 4220, Note_off_c, 2, 47, 100
4, 4224, Note_on_c, 2, 48, 112
4, 4412, Note_off_c, 2, 48, 100
4, 4416, Note_on_c, 2, 49, 112
4, 4604, Note_off_c, 2, 49, 100
4, 4608, Note_on_c, 2, 50, 112
4, 4796, Note_off_c, 2, 50, 100
4, 4800, Note_on_c, 2, 46, 112
4, 4988, Note_off_c, 2, 46, 100
4, 4992, Note_on_c, 2, 48, 112
4, 5180, Note_off_c, 2, 48, 100
4, 5184, Note_on_c, 2, 50, 112
4, 5372, Note_off_c, 2, 50, 100
4, 5376, Note_on_c, 2, 55, 112
4, 5756, Note_off_c, 2, 55, 100
4, 5856, Note_on_c, 2, 54, 112
4, 5948, Note_off_c, 2, 54, 100
4, 5952, Note_on_c, 2, 55, 112
4, 6044, Note_off_c, 2, 55, 100
4, 6048, Note_on_c, 2, 57, 112
4, 6140, Note_off_c, 2, 57, 100
4, 6144, Note_on_c, 2, 58, 112
4, 6236, Note_off_c, 2, 58, 100
4, 6240, Note_on_c, 2, 60, 112
4, 6332, Note_off_c, 2, 60, 100
4, 6336, Note_on_c, 2, 62, 112
4, 6524, Note_off_c, 2, 62, 100
4, 6528, Note_on_c, 2, 55, 112
4, 6716, Note_off_c, 2, 55, 100
4, 6720, Note_on_c, 2, 67, 112
4, 6908, Note_off_c, 2, 67, 100
4, 6912, Note_on_c, 2, 62, 112
4, 7296, Note_off_c, 2, 62, 100
4, 7488, Note_on_c, 2, 60, 112
4, 7676, Note_off_c, 2, 60, 100
4, 7680, Note_on_c, 2, 58, 112
4, 7868, Note_off_c, 2, 58, 100
4, 7872, Note_on_c, 2, 57, 112
4, 8060, Note_off_c, 2, 57, 100
4, 8064, Note_on_c, 2, 58, 112
4, 8252, Note_off_c, 2, 58, 100
4, 8256, Note_on_c, 2, 55, 112
4, 8444, Note_off_c, 2, 55, 100
4, 8448, Note_on_c, 2, 57, 112
4, 8512, Note_off_c, 2, 57, 100
4, 8544, Note_on_c, 2, 52, 112
4, 8636, Note_off_c, 2, 52, 100
4, 8640, Note_on_c, 2, 53, 112
4, 8732, Note_off_c, 2, 53, 100
4, 8736, Note_on_c, 2, 55, 112
4, 8828, Note_off_c, 2, 55, 100
4, 8832, Note_on_c, 2, 57, 112
4, 8924, Note_off_c, 2, 57, 100
4, 8928, Note_on_c, 2, 59, 112
4, 9020, Note_off_c, 2, 59, 100
4, 9024, Note_on_c, 2, 61, 112
4, 9116, Note_off_c, 2, 61, 100
4, 9120, Note_on_c, 2, 57, 112
4, 9212, Note_off_c, 2, 57, 100
4, 9216, Note_on_c, 2, 62, 112
4, 9280, Note_off_c, 2, 62, 100
4, 9312, Note_on_c, 2, 53, 112
4, 9404, Note_off_c, 2, 53, 100
4, 9408, Note_on_c, 2, 55, 112
4, 9500, Note_off_c, 2, 55, 100
4, 9504, Note_on_c, 2, 57, 112
4, 9596, Note_off_c, 2, 57, 100
4, 9600, Note_on_c, 2, 50, 112
4, 9692, Note_off_c, 2, 50, 100
4, 9696, Note_on_c, 2, 60, 112
4, 9788, Note_off_c, 2, 60, 100
4, 9792, Note_on_c, 2, 58, 112
4, 9884, Note_off_c, 2, 58, 100
4, 9888, Note_on_c, 2, 57, 112
4, 9980, Note_off_c, 2, 57, 100
4, 9984, Note_on_c, 2, 55, 112
4, 10048, Note_off_c, 2, 55, 100
4, 10080, Note_on_c, 2, 46, 112
4, 10172, Note_off_c, 2, 46, 100
4, 10176, Note_on_c, 2, 48, 112
4, 10268, Note_off_c, 2, 48, 100
4, 10272, Note_on_c, 2, 50, 112
4, 10364, Note_off_c, 2, 50, 100
4, 10368, Note_on_c, 2, 43, 112
4, 10460, Note_off_c, 2, 43, 100
4, 10464, Note_on_c, 2, 55, 112
4, 10652, Note_off_c, 2, 55, 100
4, 10656, Note_on_c, 2, 49, 112
4, 10748, Note_off_c, 2, 49, 100
4, 10752, Note_on_c, 2, 50, 112
4, 10816, Note_off_c, 2, 50, 100
4, 10848, Note_on_c, 2, 57, 112
4, 10940, Note_off_c, 2, 57, 100
4, 10944, Note_on_c, 2, 62, 112
4, 11416, Note_off_c, 2, 62, 100
4, 11424, Note_on_c, 2, 61, 112
4, 11516, Note_off_c, 2, 61, 100
4, 11520, Note_on_c, 2, 62, 112
4, 11612, Note_off_c, 2, 62, 100
4, 11616, Note_on_c, 2, 58, 112
4, 11708, Note_off_c, 2, 58, 100
4, 11712, Note_on_c, 2, 57, 112
4, 11804, Note_off_c, 2, 57, 100
4, 11808, Note_on_c, 2, 55, 112
4, 11900, Note_off_c, 2, 55, 100
4, 11904, Note_on_c, 2, 54, 112
4, 11996, Note_off_c, 2, 54, 100
4, 12000, Note_on_c, 2, 57, 112
4, 12092, Note_off_c, 2, 57, 100
4, 12096, Note_on_c, 2, 54, 112
4, 12188, Note_off_c, 2, 54, 100
4, 12192, Note_on_c, 2, 50, 112
4, 12256, Note_off_c, 2, 50, 100
4, 12288, Note_on_c, 2, 50, 112
4, 12416, Note_off_c, 2, 50, 100
4, 12480, Note_on_c, 2, 62, 112
4, 12860, Note_off_c, 2, 62, 100
4, 12864, Note_on_c, 2, 60, 112
4, 13052, Note_off_c, 2, 60, 100
4, 13056, Note_on_c, 2, 59, 112
4, 13244, Note_off_c, 2, 59, 100
4, 13248, Note_on_c, 2, 58, 112
4, 13628, Note_off_c, 2, 58, 100
4, 13632, Note_on_c, 2, 57, 112
4, 13724, Note_off_c, 2, 57, 100
4, 13728, Note_on_c, 2, 55, 112
4, 13820, Note_off_c, 2, 55, 100
4, 13824, Note_on_c, 2, 57, 112
4, 14012, Note_off_c, 2, 57, 100
4, 14016, Note_on_c, 2, 56, 112
4, 14396, Note_off_c, 2, 56, 100
4, 14400, Note_on_c, 2, 55, 112
4, 14588, Note_off_c, 2, 55, 100
4, 14592, Note_on_c, 2, 50, 112
4, 14780, Note_off_c, 2, 50, 100
4, 14784, Note_on_c, 2, 51, 112
4, 14972, Note_off_c, 2, 51, 100
4, 14976, Note_on_c, 2, 53, 112
4, 15164, Note_off_c, 2, 53, 100
4, 15168, Note_on_c, 2, 46, 112
4, 15356, Note_off_c, 2, 46, 100
4, 15360, Note_on_c, 2, 51, 112
4, 15548, Note_off_c, 2, 51, 100
4, 15936, Note_on_c, 2, 51, 112
4, 16124, Note_off_c, 2, 51, 100
4, 16128, Note_on_c, 2, 56, 112
4, 16700, Note_off_c, 2, 56, 100
4, 16704, Note_on_c, 2, 55, 112
4, 16796, Note_off_c, 2, 55, 100
4, 16800, Note_on_c, 2, 53, 112
4, 16892, Note_off_c, 2, 53, 100
4, 16896, Note_on_c, 2, 55, 112
4, 17276, Note_off_c, 2, 55, 100
4, 17376, Note_on_c, 2, 53, 112
4, 17468, Note_off_c, 2, 53, 100
4, 17472, Note_on_c, 2, 51, 112
4, 17564, Note_off_c, 2, 51, 100
4, 17568, Note_on_c, 2, 50, 112
4, 17660, Note_off_c, 2, 50, 100
4, 17664, Note_on_c, 2, 51, 112
4, 17756, Note_off_c, 2, 51, 100
4, 17760, Note_on_c, 2, 43, 112
4, 17852, Note_off_c, 2, 43, 100
4, 17856, Note_on_c, 2, 44, 112
4, 17948, Note_off_c, 2, 44, 100
4, 17952, Note_on_c, 2, 46, 112
4, 18044, Note_off_c, 2, 46, 100
4, 18048, Note_on_c, 2, 39, 112
4, 18140, Note_off_c, 2, 39, 100
4, 18144, Note_on_c, 2, 43, 112
4, 18236, Note_off_c, 2, 43, 100
4, 18240, Note_on_c, 2, 45, 112
4, 18332, Note_off_c, 2, 45, 100
4, 18336, Note_on_c, 2, 47, 112
4, 18428, Note_off_c, 2, 47, 100
4, 18432, Note_on_c, 2, 48, 112
4, 18812, Note_off_c, 2, 48, 100
4, 19008, Note_on_c, 2, 48, 112
4, 19196, Note_off_c, 2, 48, 100
4, 19200, Note_on_c, 2, 46, 112
4, 19580, Note_off_c, 2, 46, 100
4, 19776, Note_on_c, 2, 46, 112
4, 19964, Note_off_c, 2, 46, 100
4, 19968, Note_on_c, 2, 45, 112
4, 20060, Note_off_c, 2, 45, 100
4, 20064, Note_on_c, 2, 43, 112
4, 20156, Note_off_c, 2, 43, 100
4, 20160, Note_on_c, 2, 45, 112
4, 20252, Note_off_c, 2, 45, 100
4, 20256, Note_on_c, 2, 46, 112
4, 20348, Note_off_c, 2, 46, 100
4, 20352, Note_on_c, 2, 45, 112
4, 20444, Note_off_c, 2, 45, 100
4, 20448, Note_on_c, 2, 43, 112
4, 20540, Note_off_c, 2, 43, 100
4, 20544, Note_on_c, 2, 42, 112
4, 20636, Note_off_c, 2, 42, 100
4, 20640, Note_on_c, 2, 40, 112
4, 20732, Note_off_c, 2, 40, 100
4, 20736, Note_on_c, 2, 38, 112
4, 20800, Note_off_c, 2, 38, 100
4, 20832, Note_on_c, 2, 48, 112
4, 20924, Note_off_c, 2, 48, 100
4, 20928, Note_on_c, 2, 50, 112
4, 21020, Note_off_c, 2, 50, 100
4, 21024, Note_on_c, 2, 51, 112
4, 21116, Note_off_c, 2, 51, 100
4, 21120, Note_on_c, 2, 50, 112
4, 21212, Note_off_c, 2, 50, 100
4, 21216, Note_on_c, 2, 48, 112
4, 21308, Note_off_c, 2, 48, 100
4, 21312, Note_on_c, 2, 46, 112
4, 21404, Note_off_c, 2, 46, 100
4, 21408, Note_on_c, 2, 45, 112
4, 21500, Note_off_c, 2, 45, 100
4, 21504, Note_on_c, 2, 43, 112
4, 21568, Note_off_c, 2, 43, 100
4, 21600, Note_on_c, 2, 53, 112
4, 21692, Note_off_c, 2, 53, 100
4, 21696, Note_on_c, 2, 55, 112
4, 21788, Note_off_c, 2, 55, 100
4, 21792, Note_on_c, 2, 56, 112
4, 21884, Note_off_c, 2, 56, 100
4, 21888, Note_on_c, 2, 55, 112
4, 21980, Note_off_c, 2, 55, 100
4, 21984, Note_on_c, 2, 53, 112
4, 22076, Note_off_c, 2, 53, 100
4, 22080, Note_on_c, 2, 51, 112
4, 22172, Note_off_c, 2, 51, 100
4, 22176, Note_on_c, 2, 50, 112
4, 22268, Note_off_c, 2, 50, 100
4, 22272, Note_on_c, 2, 48, 112
4, 22364, Note_off_c, 2, 48, 100
4, 22368, Note_on_c, 2, 47, 112
4, 22460, Note_off_c, 2, 47, 100
4, 22464, Note_on_c, 2, 48, 112
4, 22556, Note_off_c, 2, 48, 100
4, 22560, Note_on_c, 2, 49, 112
4, 22652, Note_off_c, 2, 49, 100
4, 22656, Note_on_c, 2, 50, 112
4, 22748, Note_off_c, 2, 50, 100
4, 22752, Note_on_c, 2, 51, 112
4, 22844, Note_off_c, 2, 51, 100
4, 22848, Note_on_c, 2, 50, 112
4, 22940, Note_off_c, 2, 50, 100
4, 22944, Note_on_c, 2, 48, 112
4, 23036, Note_off_c, 2, 48, 100
4, 23040, Note_on_c, 2, 46, 112
4, 23132, Note_off_c, 2, 46, 100
4, 23136, Note_on_c, 2, 45, 112
4, 23228, Note_off_c, 2, 45, 100
4, 23232, Note_on_c, 2, 46, 112
4, 23324, Note_off_c, 2, 46, 100
4, 23328, Note_on_c, 2, 47, 112
4, 23420, Note_off_c, 2, 47, 100
4, 23424, Note_on_c, 2, 48, 112
4, 23612, Note_off_c, 2, 48, 100
4, 23616, Note_on_c, 2, 50, 112
4, 23804, Note_off_c, 2, 50, 100
4, 23808, Note_on_c, 2, 43, 112
4, 23936, Note_off_c, 2, 43, 100
4, 24000, Note_on_c, 2, 50, 112
4, 24188, Note_off_c, 2, 50, 100
4, 24192, Note_on_c, 2, 46, 112
4, 24380, Note_off_c, 2, 46, 100
4, 24384, Note_on_c, 2, 50, 112
4, 24572, Note_off_c, 2, 50, 100
4, 24576, Note_on_c, 2, 55, 112
4, 24956, Note_off_c, 2, 55, 100
4, 24960, Note_on_c, 2, 50, 112
4, 25340, Note_off_c, 2, 50, 100
4, 25344, Note_on_c, 2, 46, 112
4, 25724, Note_off_c, 2, 46, 100
4, 25728, Note_on_c, 2, 43, 1
4, 25728, Note_on_c, 2, 43, 112
4, 26108, Note_off_c, 2, 43, 100
4, 26312, Note_off_c, 2, 43, 100
4, 26312, End_track
5, 0, Start_track
5, 0, Title_t, "Var.XXI, Canone alla settima: Andante con moto"
5, 0, End_track
6, 0, Start_track
6, 0, Title_t, "Bruno de Giusti"
6, 0, End_track
7, 0, Start_track
7, 0, Title_t, "bdg@bruno-de-giusti.net"
7, 0, End_track
8, 0, Start_track
8, 0, Title_t, "www.bruno-de-giusti.net"
8, 0, End_track
9, 0, Start_track
9, 0, Title_t, "All rights reserved"
9, 0, End_track
10, 0, Start_track
10, 1, Copyright_t, "___________________________________________________\012\012KUNSTDERFUGE.COM LARGE CLASSICAL MIDI COLLECTION\012ONCLASSICAL BY ALESSANDRO SIMONETTO, PROPRIETOR\012___________________________________________________\012\012! Attention: this file is under copyright !\012\012(c)onclassical, (c)degiusti, 2010\012___________________________________________________\012\012NO ONE MAY REPUBLISH THIS FILE WITHOUT PERMISSION\012COMMERCIAL USES OF THIS FILE IS STRICTLY PROHIBITED\012___________________________________________________\012\012Files & contributor's list: http://kunstderfuge.com/\012Terms and conditions: http://kunstderfuge.com/notes.htm"
10, 1, End_track
0, 0, End_of_file