0, 0, Header, 1, 1, 480
1, 0, Start_track
1, 0, Sequence_number, 0
1, 0, Title_t, "B10"
1, 0, Channel_prefix, 0
1, 0, Instrument_name_t, "2"
1, 0, Program_c, 0, 0
1, 0, Tempo, 833333
1, 0, Time_signature, 4, 2, 24, 24
1, 0, Key_signature, 0, "major"
1, 3120, Note_on_c, 0, 62, 90
1, 3480, Note_off_c, 0, 62, 0
1, 3480, Note_on_c, 0, 61, 90
1, 3600, Note_off_c, 0, 61, 0
1, 3600, Note_on_c, 0, 62, 90
1, 3720, Note_off_c, 0, 62, 0
1, 3720, Note_on_c, 0, 64, 90
1, 3840, Note_off_c, 0, 64, 0
1, 3840, Note_on_c, 0, 66, 90
1, 3960, Note_off_c, 0, 66, 0
1, 3960, Note_on_c, 0, 67, 90
1, 4080, Note_off_c, 0, 67, 0
1, 4080, Note_on_c, 0, 69, 90
1, 4200, Note_off_c, 0, 69, 0
1, 4200, Note_on_c, 0, 66, 90
1, 4320, Note_off_c, 0, 66, 0
1, 4320, Note_on_c, 0, 71, 90
1, 4440, Note_off_c, 0, 71, 0
1, 4440, Note_on_c, 0, 69, 90
1, 4560, Note_off_c, 0, 69, 0
1, 4560, Note_on_c, 0, 67, 90
1, 4680, Note_off_c, 0, 67, 0
1, 4680, Note_on_c, 0, 66, 90
1, 4800, Note_off_c, 0, 66, 0
1, 4800, Note_on_c, 0, 64, 90
1, 4920, Note_off_c, 0, 64, 0
1, 4920, Note_on_c, 0, 62, 90
1, 5040, Note_off_c, 0, 62, 0
1, 5040, Note_on_c, 0, 61, 90
1, 5160, Note_off_c, 0, 61, 0
1, 5160, Note_on_c, 0, 59, 90
1, 5280, Note_off_c, 0, 59, 0
1, 5280, Note_on_c, 0, 57, 90
1, 5400, Note_off_c, 0, 57, 0
1, 5400, Note_on_c, 0, 67, 90
1, 5520, Note_off_c, 0, 67, 0
1, 5520, Note_on_c, 0, 66, 90
1, 5640, Note_off_c, 0, 66, 0
1, 5640, Note_on_c, 0, 64, 90
1, 5760, Note_off_c, 0, 64, 0
1, 5760, Note_on_c, 0, 66, 90
1, 5880, Note_off_c, 0, 66, 0
1, 5880, Note_on_c, 0, 57, 90
1, 6000, Note_off_c, 0, 57, 0
1, 6000, Note_on_c, 0, 59, 90
1, 6120, Note_off_c, 0, 59, 0
1, 6120, Note_on_c, 0, 61, 90
1, 6240, Note_off_c, 0, 61, 0
1, 8160, Note_on_c, 0, 72, 90
1, 8640, Note_off_c, 0, 72, 0
1, 8640, Note_on_c, 0, 72, 90
1, 8760, Note_off_c, 0, 72, 0
1, 8760, Note_on_c, 0, 72, 90
1, 8880, Note_off_c, 0, 72, 0
1, 8880, Note_on_c, 0, 71, 90
1, 9000, Note_off_c, 0, 71, 0
1, 9000, Note_on_c, 0, 69, 90
1, 9120, Note_off_c, 0, 69, 0
1, 9120, Note_on_c, 0, 71, 90
1, 9720, Note_off_c, 0, 71, 0
1, 9720, Note_on_c, 0, 69, 90
1, 9840, Note_off_c, 0, 69, 0
1, 9840, Note_on_c, 0, 71, 90
1, 9960, Note_off_c, 0, 71, 0
1, 9960, Note_on_c, 0, 67, 90
1, 10080, Note_off_c, 0, 67, 0
1, 10080, Note_on_c, 0, 72, 90
1, 11040, Note_off_c, 0, 72, 0
1, 11160, Note_on_c, 0, 76, 90
1, 11280, Note_off_c, 0, 76, 0
1, 11280, Note_on_c, 0, 74, 90
1, 11400, Note_off_c, 0, 74, 0
1, 11400, Note_on_c, 0, 72, 90
1, 11520, Note_off_c, 0, 72, 0
1, 11520, Note_on_c, 0, 71, 90
1, 12480, Note_off_c, 0, 71, 0
1, 12600, Note_on_c, 0, 74, 90
1, 12720, Note_off_c, 0, 74, 0
1, 12720, Note_on_c, 0, 72, 90
1, 12840, Note_off_c, 0, 72, 0
1, 12840, Note_on_c, 0, 71, 90
1, 12960, Note_off_c, 0, 71, 0
1, 12960, Note_on_c, 0, 69, 90
1, 13920, Note_off_c, 0, 69, 0
1, 14040, Note_on_c, 0, 72, 90
1, 14160, Note_off_c, 0, 72, 0
1, 14160, Note_on_c, 0, 71, 90
1, 14280, Note_off_c, 0, 71, 0
1, 14280, Note_on_c, 0, 69, 90
1, 14400, Note_off_c, 0, 69, 0
1, 14400, Note_on_c, 0, 67, 90
1, 14520, Note_off_c, 0, 67, 0
1, 14520, Note_on_c, 0, 69, 90
1, 14640, Note_off_c, 0, 69, 0
1, 14640, Note_on_c, 0, 67, 90
1, 14760, Note_off_c, 0, 67, 0
1, 14760, Note_on_c, 0, 66, 90
1, 14880, Note_off_c, 0, 66, 0
1, 14880, Note_on_c, 0, 64, 90
1, 15000, Note_off_c, 0, 64, 0
1, 15000, Note_on_c, 0, 63, 90
1, 15120, Note_off_c, 0, 63, 0
1, 15120, Note_on_c, 0, 64, 90
1, 15240, Note_off_c, 0, 64, 0
1, 15240, Note_on_c, 0, 66, 90
1, 15360, Note_off_c, 0, 66, 0
1, 15360, Note_on_c, 0, 67, 90
1, 15480, Note_off_c, 0, 67, 0
1, 15480, Note_on_c, 0, 69, 90
1, 15600, Note_off_c, 0, 69, 0
1, 15600, Note_on_c, 0, 71, 90
1, 15720, Note_off_c, 0, 71, 0
1, 15720, Note_on_c, 0, 67, 90
1, 15840, Note_off_c, 0, 67, 0
1, 15840, Note_on_c, 0, 72, 90
1, 15960, Note_off_c, 0, 72, 0
1, 15960, Note_on_c, 0, 71, 90
1, 16080, Note_off_c, 0, 71, 0
1, 16080, Note_on_c, 0, 69, 90
1, 16200, Note_off_c, 0, 69, 0
1, 16200, Note_on_c, 0, 67, 90
1, 16320, Note_off_c, 0, 67, 0
1, 16320, Note_on_c, 0, 66, 90
1, 16440, Note_off_c, 0, 66, 0
1, 16440, Note_on_c, 0, 64, 90
1, 16560, Note_off_c, 0, 64, 0
1, 16560, Note_on_c, 0, 62, 90
1, 16680, Note_off_c, 0, 62, 0
1, 16680, Note_on_c, 0, 60, 90
1, 16800, Note_off_c, 0, 60, 0
1, 16800, Note_on_c, 0, 59, 90
1, 16920, Note_off_c, 0, 59, 0
1, 16920, Note_on_c, 0, 69, 90
1, 17040, Note_off_c, 0, 69, 0
1, 17040, Note_on_c, 0, 68, 90
1, 17160, Note_off_c, 0, 68, 0
1, 17160, Note_on_c, 0, 66, 90
1, 17280, Note_off_c, 0, 66, 0
1, 17280, Note_on_c, 0, 64, 90
1, 18720, Note_off_c, 0, 64, 0
1, 18720, Note_on_c, 0, 62, 90
1, 20160, Note_off_c, 0, 62, 0
1, 20160, Note_on_c, 0, 60, 90
1, 20400, Note_off_c, 0, 60, 0
1, 20400, Note_on_c, 0, 59, 90
1, 20640, Note_off_c, 0, 59, 0
1, 20640, Note_on_c, 0, 57, 90
1, 20880, Note_off_c, 0, 57, 0
1, 20880, Note_on_c, 0, 60, 90
1, 21120, Note_off_c, 0, 60, 0
1, 21120, Note_on_c, 0, 59, 90
1, 21360, Note_off_c, 0, 59, 0
1, 21360, Note_on_c, 0, 64, 90
1, 21840, Note_off_c, 0, 64, 0
1, 21840, Note_on_c, 0, 60, 90
1, 22080, Note_off_c, 0, 60, 0
1, 22080, Note_on_c, 0, 57, 90
1, 22320, Note_off_c, 0, 57, 0
1, 22320, Note_on_c, 0, 54, 90
1, 22560, Note_off_c, 0, 54, 0
1, 22560, Note_on_c, 0, 63, 90
1, 23280, Note_off_c, 0, 63, 0
1, 23280, Note_on_c, 0, 59, 90
1, 23520, Note_off_c, 0, 59, 0
1, 23520, Note_on_c, 0, 55, 90
1, 23760, Note_off_c, 0, 55, 0
1, 23760, Note_on_c, 0, 52, 90
1, 24000, Note_off_c, 0, 52, 0
1, 24000, Note_on_c, 0, 61, 90
1, 24720, Note_off_c, 0, 61, 0
1, 24720, Note_on_c, 0, 57, 90
1, 24960, Note_off_c, 0, 57, 0
1, 24960, Note_on_c, 0, 54, 90
1, 25200, Note_off_c, 0, 54, 0
1, 25200, Note_on_c, 0, 50, 90
1, 25440, Note_off_c, 0, 50, 0
1, 25440, Note_on_c, 0, 59, 90
1, 26160, Note_off_c, 0, 59, 0
1, 26160, Note_on_c, 0, 55, 90
1, 26400, Note_off_c, 0, 55, 0
1, 26400, Note_on_c, 0, 52, 90
1, 26640, Note_off_c, 0, 52, 0
1, 26640, Note_on_c, 0, 49, 90
1, 26880, Note_off_c, 0, 49, 0
1, 26880, Note_on_c, 0, 58, 90
1, 27360, Note_off_c, 0, 58, 0
1, 27360, Note_on_c, 0, 59, 90
1, 27960, Note_off_c, 0, 59, 0
1, 27960, Note_on_c, 0, 58, 90
1, 28080, Note_off_c, 0, 58, 0
1, 28080, Note_on_c, 0, 59, 90
1, 28200, Note_off_c, 0, 59, 0
1, 28200, Note_on_c, 0, 61, 90
1, 28320, Note_off_c, 0, 61, 0
1, 28320, Note_on_c, 0, 62, 90
1, 28440, Note_off_c, 0, 62, 0
1, 28440, Note_on_c, 0, 64, 90
1, 28560, Note_off_c, 0, 64, 0
1, 28560, Note_on_c, 0, 66, 90
1, 28680, Note_off_c, 0, 66, 0
1, 28680, Note_on_c, 0, 62, 90
1, 28800, Note_off_c, 0, 62, 0
1, 28800, Note_on_c, 0, 67, 90
1, 28920, Note_off_c, 0, 67, 0
1, 28920, Note_on_c, 0, 66, 90
1, 29040, Note_off_c, 0, 66, 0
1, 29040, Note_on_c, 0, 64, 90
1, 29160, Note_off_c, 0, 64, 0
1, 29160, Note_on_c, 0, 62, 90
1, 29280, Note_off_c, 0, 62, 0
1, 29280, Note_on_c, 0, 61, 90
1, 29400, Note_off_c, 0, 61, 0
1, 29400, Note_on_c, 0, 59, 90
1, 29520, Note_off_c, 0, 59, 0
1, 29520, Note_on_c, 0, 58, 90
1, 29640, Note_off_c, 0, 58, 0
1, 29640, Note_on_c, 0, 56, 90
1, 29760, Note_off_c, 0, 56, 0
1, 29760, Note_on_c, 0, 54, 90
1, 29880, Note_off_c, 0, 54, 0
1, 29880, Note_on_c, 0, 64, 90
1, 30000, Note_off_c, 0, 64, 0
1, 30000, Note_on_c, 0, 62, 90
1, 30120, Note_off_c, 0, 62, 0
1, 30120, Note_on_c, 0, 61, 90
1, 30240, Note_off_c, 0, 61, 0
1, 30240, Note_on_c, 0, 62, 90
1, 30360, Note_off_c, 0, 62, 0
1, 30360, Note_on_c, 0, 66, 90
1, 30480, Note_off_c, 0, 66, 0
1, 30480, Note_on_c, 0, 68, 90
1, 30600, Note_off_c, 0, 68, 0
1, 30600, Note_on_c, 0, 70, 90
1, 30720, Note_off_c, 0, 70, 0
1, 30720, Note_on_c, 0, 71, 90
1, 30960, Note_off_c, 0, 71, 0
1, 30960, Note_on_c, 0, 72, 90
1, 31200, Note_off_c, 0, 72, 0
1, 31200, Note_on_c, 0, 71, 90
1, 31440, Note_off_c, 0, 71, 0
1, 31440, Note_on_c, 0, 69, 90
1, 31680, Note_off_c, 0, 69, 0
1, 31680, Note_on_c, 0, 68, 90
1, 33120, Note_off_c, 0, 68, 0
1, 33240, Note_on_c, 0, 64, 90
1, 33360, Note_off_c, 0, 64, 0
1, 33360, Note_on_c, 0, 66, 90
1, 33480, Note_off_c, 0, 66, 0
1, 33480, Note_on_c, 0, 68, 90
1, 33600, Note_off_c, 0, 68, 0
1, 33600, Note_on_c, 0, 69, 90
1, 33840, Note_off_c, 0, 69, 0
1, 33840, Note_on_c, 0, 71, 90
1, 34080, Note_off_c, 0, 71, 0
1, 34080, Note_on_c, 0, 69, 90
1, 34320, Note_off_c, 0, 69, 0
1, 34320, Note_on_c, 0, 67, 90
1, 34560, Note_off_c, 0, 67, 0
1, 34560, Note_on_c, 0, 66, 90
1, 36000, Note_off_c, 0, 66, 0
1, 36120, Note_on_c, 0, 62, 90
1, 36240, Note_off_c, 0, 62, 0
1, 36240, Note_on_c, 0, 64, 90
1, 36360, Note_off_c, 0, 64, 0
1, 36360, Note_on_c, 0, 66, 90
1, 36480, Note_off_c, 0, 66, 0
1, 36480, Note_on_c, 0, 67, 90
1, 36600, Note_off_c, 0, 67, 0
1, 36600, Note_on_c, 0, 66, 90
1, 36720, Note_off_c, 0, 66, 0
1, 36720, Note_on_c, 0, 67, 90
1, 36840, Note_off_c, 0, 67, 0
1, 36840, Note_on_c, 0, 69, 90
1, 36960, Note_off_c, 0, 69, 0
1, 36960, Note_on_c, 0, 71, 90
1, 37080, Note_off_c, 0, 71, 0
1, 37080, Note_on_c, 0, 72, 90
1, 37200, Note_off_c, 0, 72, 0
1, 37200, Note_on_c, 0, 74, 90
1, 37320, Note_off_c, 0, 74, 0
1, 37320, Note_on_c, 0, 71, 90
1, 37440, Note_off_c, 0, 71, 0
1, 37440, Note_on_c, 0, 76, 90
1, 37560, Note_off_c, 0, 76, 0
1, 37560, Note_on_c, 0, 74, 90
1, 37680, Note_off_c, 0, 74, 0
1, 37680, Note_on_c, 0, 72, 90
1, 37800, Note_off_c, 0, 72, 0
1, 37800, Note_on_c, 0, 71, 90
1, 37920, Note_off_c, 0, 71, 0
1, 37920, Note_on_c, 0, 69, 90
1, 38040, Note_off_c, 0, 69, 0
1, 38040, Note_on_c, 0, 67, 90
1, 38160, Note_off_c, 0, 67, 0
1, 38160, Note_on_c, 0, 66, 90
1, 38280, Note_off_c, 0, 66, 0
1, 38280, Note_on_c, 0, 64, 90
1, 38400, Note_off_c, 0, 64, 0
1, 38400, Note_on_c, 0, 62, 90
1, 38520, Note_off_c, 0, 62, 0
1, 38520, Note_on_c, 0, 72, 90
1, 38640, Note_off_c, 0, 72, 0
1, 38640, Note_on_c, 0, 71, 90
1, 38760, Note_off_c, 0, 71, 0
1, 38760, Note_on_c, 0, 69, 90
1, 38880, Note_off_c, 0, 69, 0
1, 38880, Note_on_c, 0, 74, 90
1, 39000, Note_off_c, 0, 74, 0
1, 39000, Note_on_c, 0, 72, 90
1, 39120, Note_off_c, 0, 72, 0
1, 39120, Note_on_c, 0, 71, 90
1, 39240, Note_off_c, 0, 71, 0
1, 39240, Note_on_c, 0, 69, 90
1, 39360, Note_off_c, 0, 69, 0
1, 39360, Note_on_c, 0, 67, 90
1, 39480, Note_off_c, 0, 67, 0
1, 39480, Note_on_c, 0, 65, 90
1, 39600, Note_off_c, 0, 65, 0
1, 39600, Note_on_c, 0, 64, 90
1, 39720, Note_off_c, 0, 64, 0
1, 39720, Note_on_c, 0, 62, 90
1, 39840, Note_off_c, 0, 62, 0
1, 39840, Note_on_c, 0, 60, 90
1, 39960, Note_off_c, 0, 60, 0
1, 39960, Note_on_c, 0, 71, 90
1, 40080, Note_off_c, 0, 71, 0
1, 40080, Note_on_c, 0, 69, 90
1, 40200, Note_off_c, 0, 69, 0
1, 40200, Note_on_c, 0, 67, 90
1, 40320, Note_off_c, 0, 67, 0
1, 40320, Note_on_c, 0, 72, 90
1, 40440, Note_off_c, 0, 72, 0
1, 40440, Note_on_c, 0, 71, 90
1, 40560, Note_off_c, 0, 71, 0
1, 40560, Note_on_c, 0, 69, 90
1, 40680, Note_off_c, 0, 69, 0
1, 40680, Note_on_c, 0, 67, 90
1, 40800, Note_off_c, 0, 67, 0
1, 40800, Note_on_c, 0, 66, 90
1, 40920, Note_off_c, 0, 66, 0
1, 40920, Note_on_c, 0, 64, 90
1, 41040, Note_off_c, 0, 64, 0
1, 41040, Note_on_c, 0, 62, 90
1, 41160, Note_off_c, 0, 62, 0
1, 41160, Note_on_c, 0, 60, 90
1, 41280, Note_off_c, 0, 60, 0
1, 41280, Note_on_c, 0, 59, 90
1, 41400, Note_off_c, 0, 59, 0
1, 41400, Note_on_c, 0, 69, 90
1, 41520, Note_off_c, 0, 69, 0
1, 41520, Note_on_c, 0, 67, 90
1, 41640, Note_off_c, 0, 67, 0
1, 41640, Note_on_c, 0, 66, 90
1, 41760, Note_off_c, 0, 66, 0
1, 41760, Note_on_c, 0, 71, 90
1, 41880, Note_off_c, 0, 71, 0
1, 41880, Note_on_c, 0, 69, 90
1, 42000, Note_off_c, 0, 69, 0
1, 42000, Note_on_c, 0, 67, 90
1, 42120, Note_off_c, 0, 67, 0
1, 42120, Note_on_c, 0, 66, 90
1, 42240, Note_off_c, 0, 66, 0
1, 42240, Note_on_c, 0, 64, 90
1, 42360, Note_off_c, 0, 64, 0
1, 42360, Note_on_c, 0, 62, 90
1, 42480, Note_off_c, 0, 62, 0
1, 42480, Note_on_c, 0, 60, 90
1, 42600, Note_off_c, 0, 60, 0
1, 42600, Note_on_c, 0, 59, 90
1, 42720, Note_off_c, 0, 59, 0
1, 42720, Note_on_c, 0, 57, 90
1, 42840, Note_off_c, 0, 57, 0
1, 42840, Note_on_c, 0, 67, 90
1, 42960, Note_off_c, 0, 67, 0
1, 42960, Note_on_c, 0, 66, 90
1, 43080, Note_off_c, 0, 66, 0
1, 43080, Note_on_c, 0, 64, 90
1, 43200, Note_off_c, 0, 64, 0
1, 43200, Note_on_c, 0, 62, 90
1, 43680, Note_off_c, 0, 62, 0
1, 44160, Note_on_c, 0, 67, 90
1, 45600, Note_off_c, 0, 67, 0
1, 45600, Note_on_c, 0, 66, 90
1, 46080, Note_off_c, 0, 66, 0
1, 46080, Note_on_c, 0, 67, 90
1, 47520, Note_off_c, 0, 67, 0
1, 47520, End_track
0, 0, End_of_file