0, 0, Header, 0, 2, 24
1, 0, Start_track
1, 0, Tempo, 833333
1, 0, Program_c, 0, 5
1, 0, Program_c, 1, 5
1, 0, Program_c, 2, 5
1, 0, Note_on_c, 2, 43, 127
1, 12, Note_on_c, 0, 67, 127
1, 24, Note_on_c, 2, 43, 0
1, 24, Note_on_c, 2, 47, 127
1, 30, Note_on_c, 0, 67, 0
1, 30, Note_on_c, 0, 66, 127
1, 36, Note_on_c, 0, 66, 0
1, 36, Note_on_c, 0, 67, 127
1, 42, Note_on_c, 0, 67, 0
1, 42, Note_on_c, 0, 69, 127
1, 48, Note_on_c, 0, 71, 127
1, 48, Note_on_c, 0, 69, 0
1, 48, Note_on_c, 2, 43, 127
1, 48, Note_on_c, 2, 47, 0
1, 54, Note_on_c, 0, 72, 127
1, 54, Note_on_c, 0, 71, 0
1, 60, Note_on_c, 0, 72, 0
1, 60, Note_on_c, 0, 74, 127
1, 66, Note_on_c, 0, 71, 127
1, 66, Note_on_c, 0, 74, 0
1, 72, Note_on_c, 0, 71, 0
1, 72, Note_on_c, 2, 43, 0
1, 72, Note_on_c, 0, 76, 127
1, 72, Note_on_c, 2, 48, 127
1, 78, Note_on_c, 0, 76, 0
1, 78, Note_on_c, 0, 74, 127
1, 84, Note_on_c, 0, 74, 0
1, 84, Note_on_c, 0, 72, 127
1, 90, Note_on_c, 0, 71, 127
1, 90, Note_on_c, 0, 72, 0
1, 96, Note_on_c, 0, 71, 0
1, 96, Note_on_c, 0, 69, 127
1, 96, Note_on_c, 2, 48, 0
1, 96, Note_on_c, 2, 50, 127
1, 102, Note_on_c, 0, 69, 0
1, 102, Note_on_c, 0, 67, 127
1, 108, Note_on_c, 0, 67, 0
1, 108, Note_on_c, 0, 66, 127
1, 114, Note_on_c, 0, 66, 0
1, 114, Note_on_c, 0, 64, 127
1, 120, Note_on_c, 0, 64, 0
1, 120, Note_on_c, 0, 62, 127
1, 120, Note_on_c, 2, 38, 127
1, 120, Note_on_c, 2, 50, 0
1, 126, Note_on_c, 0, 72, 127
1, 126, Note_on_c, 0, 62, 0
1, 132, Note_on_c, 0, 71, 127
1, 132, Note_on_c, 0, 72, 0
1, 138, Note_on_c, 0, 69, 127
1, 138, Note_on_c, 0, 71, 0
1, 144, Note_on_c, 0, 69, 0
1, 144, Note_on_c, 2, 38, 0
1, 144, Note_on_c, 2, 43, 127
1, 144, Note_on_c, 0, 71, 127
1, 156, Note_on_c, 1, 62, 127
1, 168, Note_on_c, 2, 43, 0
1, 168, Note_on_c, 2, 55, 127
1, 174, Note_on_c, 0, 69, 127
1, 174, Note_on_c, 1, 61, 127
1, 174, Note_on_c, 0, 71, 0
1, 174, Note_on_c, 1, 62, 0
1, 180, Note_on_c, 1, 61, 0
1, 180, Note_on_c, 0, 69, 0
1, 180, Note_on_c, 0, 71, 127
1, 180, Note_on_c, 1, 62, 127
1, 186, Note_on_c, 1, 64, 127
1, 186, Note_on_c, 0, 73, 127
1, 186, Note_on_c, 1, 62, 0
1, 186, Note_on_c, 0, 71, 0
1, 192, Note_on_c, 1, 66, 127
1, 192, Note_on_c, 2, 54, 127
1, 192, Note_on_c, 0, 73, 0
1, 192, Note_on_c, 1, 64, 0
1, 192, Note_on_c, 0, 74, 127
1, 192, Note_on_c, 2, 55, 0
1, 198, Note_on_c, 1, 67, 127
1, 198, Note_on_c, 1, 66, 0
1, 204, Note_on_c, 1, 69, 127
1, 204, Note_on_c, 1, 67, 0
1, 210, Note_on_c, 1, 69, 0
1, 210, Note_on_c, 1, 66, 127
1, 216, Note_on_c, 1, 66, 0
1, 216, Note_on_c, 2, 54, 0
1, 216, Note_on_c, 1, 71, 127
1, 216, Note_on_c, 2, 55, 127
1, 222, Note_on_c, 1, 71, 0
1, 222, Note_on_c, 1, 69, 127
1, 228, Note_on_c, 1, 69, 0
1, 228, Note_on_c, 1, 67, 127
1, 234, Note_on_c, 1, 67, 0
1, 234, Note_on_c, 1, 66, 127
1, 240, Note_on_c, 1, 64, 127
1, 240, Note_on_c, 2, 57, 127
1, 240, Note_on_c, 1, 66, 0
1, 240, Note_on_c, 2, 55, 0
1, 246, Note_on_c, 1, 64, 0
1, 246, Note_on_c, 1, 62, 127
1, 252, Note_on_c, 1, 62, 0
1, 252, Note_on_c, 1, 61, 127
1, 258, Note_on_c, 1, 61, 0
1, 258, Note_on_c, 1, 59, 127
1, 264, Note_on_c, 2, 45, 127
1, 264, Note_on_c, 1, 59, 0
1, 264, Note_on_c, 1, 57, 127
1, 264, Note_on_c, 2, 57, 0
1, 264, Note_on_c, 0, 73, 127
1, 264, Note_on_c, 0, 74, 0
1, 270, Note_on_c, 1, 67, 127
1, 270, Note_on_c, 1, 57, 0
1, 276, Note_on_c, 1, 67, 0
1, 276, Note_on_c, 1, 66, 127
1, 282, Note_on_c, 1, 64, 127
1, 282, Note_on_c, 1, 66, 0
1, 288, Note_on_c, 0, 73, 0
1, 288, Note_on_c, 1, 64, 0
1, 288, Note_on_c, 2, 45, 0
1, 288, Note_on_c, 1, 66, 127
1, 288, Note_on_c, 2, 50, 127
1, 288, Note_on_c, 0, 74, 127
1, 294, Note_on_c, 1, 57, 127
1, 294, Note_on_c, 1, 66, 0
1, 300, Note_on_c, 1, 59, 127
1, 300, Note_on_c, 1, 57, 0
1, 306, Note_on_c, 1, 59, 0
1, 306, Note_on_c, 1, 61, 127
1, 312, Note_on_c, 2, 50, 0
1, 312, Note_on_c, 2, 62, 127
1, 312, Note_on_c, 1, 61, 0
1, 318, Note_on_c, 2, 64, 127
1, 318, Note_on_c, 2, 62, 0
1, 318, Note_on_c, 0, 74, 0
1, 318, Note_on_c, 0, 73, 127
1, 324, Note_on_c, 0, 74, 127
1, 324, Note_on_c, 2, 66, 127
1, 324, Note_on_c, 0, 73, 0
1, 324, Note_on_c, 2, 64, 0
1, 330, Note_on_c, 2, 67, 127
1, 330, Note_on_c, 2, 66, 0
1, 330, Note_on_c, 0, 76, 127
1, 330, Note_on_c, 0, 74, 0
1, 336, Note_on_c, 2, 67, 0
1, 336, Note_on_c, 0, 78, 127
1, 336, Note_on_c, 0, 76, 0
1, 336, Note_on_c, 2, 69, 127
1, 342, Note_on_c, 0, 79, 127
1, 342, Note_on_c, 2, 69, 0
1, 342, Note_on_c, 2, 71, 127
1, 342, Note_on_c, 0, 78, 0
1, 348, Note_on_c, 2, 71, 0
1, 348, Note_on_c, 2, 72, 127
1, 348, Note_on_c, 0, 81, 127
1, 348, Note_on_c, 0, 79, 0
1, 354, Note_on_c, 0, 78, 127
1, 354, Note_on_c, 0, 81, 0
1, 354, Note_on_c, 2, 69, 127
1, 354, Note_on_c, 2, 72, 0
1, 360, Note_on_c, 0, 78, 0
1, 360, Note_on_c, 2, 69, 0
1, 360, Note_on_c, 2, 74, 127
1, 360, Note_on_c, 0, 83, 127
1, 366, Note_on_c, 0, 83, 0
1, 366, Note_on_c, 0, 81, 127
1, 372, Note_on_c, 0, 81, 0
1, 372, Note_on_c, 0, 79, 127
1, 372, Note_on_c, 2, 71, 127
1, 372, Note_on_c, 2, 74, 0
1, 378, Note_on_c, 0, 79, 0
1, 378, Note_on_c, 0, 78, 127
1, 384, Note_on_c, 0, 78, 0
1, 384, Note_on_c, 2, 71, 0
1, 384, Note_on_c, 2, 67, 127
1, 384, Note_on_c, 0, 76, 127
1, 390, Note_on_c, 0, 74, 127
1, 390, Note_on_c, 0, 76, 0
1, 396, Note_on_c, 0, 72, 127
1, 396, Note_on_c, 0, 74, 0
1, 396, Note_on_c, 2, 67, 0
1, 396, Note_on_c, 2, 64, 127
1, 402, Note_on_c, 0, 72, 0
1, 402, Note_on_c, 0, 71, 127
1, 408, Note_on_c, 2, 64, 0
1, 408, Note_on_c, 0, 69, 127
1, 408, Note_on_c, 0, 71, 0
1, 408, Note_on_c, 1, 72, 127
1, 414, Note_on_c, 0, 69, 0
1, 414, Note_on_c, 0, 79, 127
1, 420, Note_on_c, 0, 79, 0
1, 420, Note_on_c, 0, 78, 127
1, 426, Note_on_c, 0, 76, 127
1, 426, Note_on_c, 0, 78, 0
1, 432, Note_on_c, 1, 72, 0
1, 432, Note_on_c, 0, 76, 0
1, 432, Note_on_c, 1, 72, 127
1, 432, Note_on_c, 0, 74, 127
1, 438, Note_on_c, 1, 72, 0
1, 438, Note_on_c, 1, 72, 127
1, 444, Note_on_c, 2, 55, 127
1, 444, Note_on_c, 1, 71, 127
1, 444, Note_on_c, 1, 72, 0
1, 450, Note_on_c, 1, 71, 0
1, 450, Note_on_c, 1, 69, 127
1, 456, Note_on_c, 1, 69, 0
1, 456, Note_on_c, 1, 71, 127
1, 462, Note_on_c, 2, 55, 0
1, 462, Note_on_c, 2, 54, 127
1, 462, Note_on_c, 0, 74, 0
1, 462, Note_on_c, 0, 74, 127
1, 468, Note_on_c, 2, 54, 0
1, 468, Note_on_c, 0, 76, 127
1, 468, Note_on_c, 0, 74, 0
1, 468, Note_on_c, 2, 55, 127
1, 474, Note_on_c, 2, 57, 127
1, 474, Note_on_c, 0, 78, 127
1, 474, Note_on_c, 0, 76, 0
1, 474, Note_on_c, 2, 55, 0
1, 480, Note_on_c, 0, 79, 127
1, 480, Note_on_c, 2, 57, 0
1, 480, Note_on_c, 2, 59, 127
1, 480, Note_on_c, 0, 78, 0
1, 486, Note_on_c, 1, 71, 0
1, 486, Note_on_c, 2, 59, 0
1, 486, Note_on_c, 1, 69, 127
1, 486, Note_on_c, 2, 60, 127
1, 492, Note_on_c, 1, 69, 0
1, 492, Note_on_c, 2, 60, 0
1, 492, Note_on_c, 1, 71, 127
1, 492, Note_on_c, 2, 62, 127
1, 498, Note_on_c, 2, 62, 0
1, 498, Note_on_c, 1, 71, 0
1, 498, Note_on_c, 2, 59, 127
1, 498, Note_on_c, 1, 67, 127
1, 504, Note_on_c, 1, 67, 0
1, 504, Note_on_c, 2, 59, 0
1, 504, Note_on_c, 1, 72, 127
1, 504, Note_on_c, 2, 64, 127
1, 510, Note_on_c, 2, 62, 127
1, 510, Note_on_c, 2, 64, 0
1, 516, Note_on_c, 2, 60, 127
1, 516, Note_on_c, 0, 76, 127
1, 516, Note_on_c, 2, 62, 0
1, 516, Note_on_c, 0, 79, 0
1, 522, Note_on_c, 2, 60, 0
1, 522, Note_on_c, 2, 59, 127
1, 528, Note_on_c, 2, 59, 0
1, 528, Note_on_c, 2, 57, 127
1, 528, Note_on_c, 0, 72, 127
1, 528, Note_on_c, 0, 76, 0
1, 534, Note_on_c, 2, 55, 127
1, 534, Note_on_c, 2, 57, 0
1, 540, Note_on_c, 2, 54, 127
1, 540, Note_on_c, 2, 55, 0
1, 540, Note_on_c, 0, 72, 0
1, 540, Note_on_c, 0, 69, 127
1, 546, Note_on_c, 2, 54, 0
1, 546, Note_on_c, 2, 52, 127
1, 552, Note_on_c, 1, 72, 127
1, 552, Note_on_c, 0, 69, 0
1, 552, Note_on_c, 0, 78, 127
1, 552, Note_on_c, 1, 72, 0
1, 552, Note_on_c, 2, 50, 127
1, 552, Note_on_c, 2, 52, 0
1, 558, Note_on_c, 1, 76, 127
1, 558, Note_on_c, 2, 50, 0
1, 558, Note_on_c, 2, 60, 127
1, 558, Note_on_c, 1, 72, 0
1, 564, Note_on_c, 1, 74, 127
1, 564, Note_on_c, 1, 76, 0
1, 564, Note_on_c, 2, 59, 127
1, 564, Note_on_c, 2, 60, 0
1, 570, Note_on_c, 1, 72, 127
1, 570, Note_on_c, 1, 74, 0
1, 570, Note_on_c, 2, 59, 0
1, 570, Note_on_c, 2, 57, 127
1, 576, Note_on_c, 2, 57, 0
1, 576, Note_on_c, 1, 72, 0
1, 576, Note_on_c, 1, 71, 127
1, 576, Note_on_c, 2, 62, 127
1, 582, Note_on_c, 2, 60, 127
1, 582, Note_on_c, 2, 62, 0
1, 588, Note_on_c, 2, 59, 127
1, 588, Note_on_c, 0, 74, 127
1, 588, Note_on_c, 2, 60, 0
1, 588, Note_on_c, 0, 78, 0
1, 594, Note_on_c, 2, 59, 0
1, 594, Note_on_c, 2, 57, 127
1, 600, Note_on_c, 2, 57, 0
1, 600, Note_on_c, 2, 55, 127
1, 600, Note_on_c, 0, 71, 127
1, 600, Note_on_c, 0, 74, 0
1, 606, Note_on_c, 2, 54, 127
1, 606, Note_on_c, 2, 55, 0
1, 612, Note_on_c, 2, 52, 127
1, 612, Note_on_c, 2, 54, 0
1, 612, Note_on_c, 0, 71, 0
1, 612, Note_on_c, 0, 67, 127
1, 618, Note_on_c, 2, 52, 0
1, 618, Note_on_c, 2, 50, 127
1, 624, Note_on_c, 1, 71, 127
1, 624, Note_on_c, 0, 67, 0
1, 624, Note_on_c, 0, 76, 127
1, 624, Note_on_c, 1, 71, 0
1, 624, Note_on_c, 2, 48, 127
1, 624, Note_on_c, 2, 50, 0
1, 630, Note_on_c, 1, 74, 127
1, 630, Note_on_c, 2, 48, 0
1, 630, Note_on_c, 2, 59, 127
1, 630, Note_on_c, 1, 71, 0
1, 636, Note_on_c, 1, 72, 127
1, 636, Note_on_c, 1, 74, 0
1, 636, Note_on_c, 2, 57, 127
1, 636, Note_on_c, 2, 59, 0
1, 642, Note_on_c, 1, 71, 127
1, 642, Note_on_c, 1, 72, 0
1, 642, Note_on_c, 2, 57, 0
1, 642, Note_on_c, 2, 55, 127
1, 648, Note_on_c, 2, 55, 0
1, 648, Note_on_c, 1, 71, 0
1, 648, Note_on_c, 1, 69, 127
1, 648, Note_on_c, 2, 60, 127
1, 654, Note_on_c, 2, 59, 127
1, 654, Note_on_c, 2, 60, 0
1, 660, Note_on_c, 2, 57, 127
1, 660, Note_on_c, 0, 72, 127
1, 660, Note_on_c, 2, 59, 0
1, 660, Note_on_c, 0, 76, 0
1, 666, Note_on_c, 2, 57, 0
1, 666, Note_on_c, 2, 55, 127
1, 672, Note_on_c, 2, 55, 0
1, 672, Note_on_c, 2, 54, 127
1, 672, Note_on_c, 0, 69, 127
1, 672, Note_on_c, 0, 72, 0
1, 678, Note_on_c, 2, 52, 127
1, 678, Note_on_c, 2, 54, 0
1, 684, Note_on_c, 2, 51, 127
1, 684, Note_on_c, 2, 52, 0
1, 684, Note_on_c, 0, 69, 0
1, 684, Note_on_c, 0, 66, 127
1, 690, Note_on_c, 2, 51, 0
1, 690, Note_on_c, 2, 49, 127
1, 696, Note_on_c, 1, 69, 127
1, 696, Note_on_c, 0, 66, 0
1, 696, Note_on_c, 0, 75, 127
1, 696, Note_on_c, 1, 69, 0
1, 696, Note_on_c, 2, 47, 127
1, 696, Note_on_c, 2, 49, 0
1, 702, Note_on_c, 1, 72, 127
1, 702, Note_on_c, 2, 47, 0
1, 702, Note_on_c, 2, 57, 127
1, 702, Note_on_c, 1, 69, 0
1, 708, Note_on_c, 1, 71, 127
1, 708, Note_on_c, 1, 72, 0
1, 708, Note_on_c, 2, 55, 127
1, 708, Note_on_c, 2, 57, 0
1, 714, Note_on_c, 1, 69, 127
1, 714, Note_on_c, 1, 71, 0
1, 714, Note_on_c, 2, 55, 0
1, 714, Note_on_c, 2, 54, 127
1, 720, Note_on_c, 0, 75, 0
1, 720, Note_on_c, 1, 69, 0
1, 720, Note_on_c, 2, 54, 0
1, 720, Note_on_c, 1, 67, 127
1, 720, Note_on_c, 2, 52, 127
1, 720, Note_on_c, 0, 76, 127
1, 726, Note_on_c, 1, 67, 0
1, 726, Note_on_c, 1, 69, 127
1, 732, Note_on_c, 1, 69, 0
1, 732, Note_on_c, 1, 67, 127
1, 738, Note_on_c, 1, 66, 127
1, 738, Note_on_c, 2, 52, 0
1, 738, Note_on_c, 1, 67, 0
1, 738, Note_on_c, 2, 51, 127
1, 744, Note_on_c, 2, 52, 127
1, 744, Note_on_c, 1, 66, 0
1, 744, Note_on_c, 1, 64, 127
1, 744, Note_on_c, 0, 76, 0
1, 744, Note_on_c, 2, 51, 0
1, 750, Note_on_c, 1, 63, 127
1, 750, Note_on_c, 2, 52, 0
1, 750, Note_on_c, 1, 64, 0
1, 750, Note_on_c, 2, 54, 127
1, 756, Note_on_c, 1, 64, 127
1, 756, Note_on_c, 2, 54, 0
1, 756, Note_on_c, 1, 63, 0
1, 756, Note_on_c, 2, 55, 127
1, 762, Note_on_c, 1, 66, 127
1, 762, Note_on_c, 2, 57, 127
1, 762, Note_on_c, 2, 55, 0
1, 762, Note_on_c, 1, 64, 0
1, 768, Note_on_c, 1, 66, 0
1, 768, Note_on_c, 2, 57, 0
1, 768, Note_on_c, 1, 67, 127
1, 768, Note_on_c, 2, 59, 127
1, 768, Note_on_c, 0, 76, 127
1, 774, Note_on_c, 1, 69, 127
1, 774, Note_on_c, 1, 67, 0
1, 780, Note_on_c, 2, 59, 0
1, 780, Note_on_c, 2, 52, 127
1, 780, Note_on_c, 1, 71, 127
1, 780, Note_on_c, 1, 69, 0
1, 786, Note_on_c, 1, 71, 0
1, 786, Note_on_c, 1, 67, 127
1, 792, Note_on_c, 1, 67, 0
1, 792, Note_on_c, 2, 52, 0
1, 792, Note_on_c, 2, 57, 127
1, 792, Note_on_c, 1, 72, 127
1, 798, Note_on_c, 1, 71, 127
1, 798, Note_on_c, 1, 72, 0
1, 804, Note_on_c, 1, 71, 0
1, 804, Note_on_c, 1, 69, 127
1, 804, Note_on_c, 2, 54, 127
1, 804, Note_on_c, 2, 57, 0
1, 810, Note_on_c, 1, 69, 0
1, 810, Note_on_c, 1, 67, 127
1, 816, Note_on_c, 2, 54, 0
1, 816, Note_on_c, 0, 74, 127
1, 816, Note_on_c, 2, 59, 127
1, 816, Note_on_c, 0, 76, 0
1, 816, Note_on_c, 1, 67, 0
1, 816, Note_on_c, 1, 66, 127
1, 822, Note_on_c, 1, 66, 0
1, 822, Note_on_c, 1, 64, 127
1, 828, Note_on_c, 1, 62, 127
1, 828, Note_on_c, 0, 74, 0
1, 828, Note_on_c, 0, 72, 127
1, 828, Note_on_c, 1, 64, 0
1, 834, Note_on_c, 1, 62, 0
1, 834, Note_on_c, 1, 60, 127
1, 840, Note_on_c, 1, 59, 127
1, 840, Note_on_c, 0, 74, 127
1, 840, Note_on_c, 1, 60, 0
1, 840, Note_on_c, 0, 72, 0
1, 846, Note_on_c, 1, 59, 0
1, 846, Note_on_c, 1, 69, 127
1, 852, Note_on_c, 1, 69, 0
1, 852, Note_on_c, 2, 59, 0
1, 852, Note_on_c, 2, 57, 127
1, 852, Note_on_c, 1, 68, 127
1, 858, Note_on_c, 1, 66, 127
1, 858, Note_on_c, 1, 68, 0
1, 864, Note_on_c, 2, 57, 0
1, 864, Note_on_c, 1, 66, 0
1, 864, Note_on_c, 2, 56, 127
1, 864, Note_on_c, 1, 64, 127
1, 870, Note_on_c, 0, 74, 127
1, 870, Note_on_c, 0, 74, 0
1, 876, Note_on_c, 2, 57, 127
1, 876, Note_on_c, 2, 56, 0
1, 876, Note_on_c, 0, 74, 0
1, 876, Note_on_c, 0, 72, 127
1, 882, Note_on_c, 0, 72, 0
1, 882, Note_on_c, 2, 57, 0
1, 882, Note_on_c, 0, 71, 127
1, 882, Note_on_c, 2, 59, 127
1, 888, Note_on_c, 0, 69, 127
1, 888, Note_on_c, 2, 60, 127
1, 888, Note_on_c, 0, 71, 0
1, 888, Note_on_c, 2, 59, 0
1, 894, Note_on_c, 0, 68, 127
1, 894, Note_on_c, 0, 69, 0
1, 900, Note_on_c, 0, 69, 127
1, 900, Note_on_c, 2, 60, 0
1, 900, Note_on_c, 0, 68, 0
1, 900, Note_on_c, 2, 59, 127
1, 906, Note_on_c, 0, 69, 0
1, 906, Note_on_c, 0, 71, 127
1, 912, Note_on_c, 0, 72, 127
1, 912, Note_on_c, 2, 59, 0
1, 912, Note_on_c, 2, 57, 127
1, 912, Note_on_c, 0, 71, 0
1, 918, Note_on_c, 0, 74, 127
1, 918, Note_on_c, 0, 72, 0
1, 924, Note_on_c, 0, 76, 127
1, 924, Note_on_c, 2, 57, 0
1, 924, Note_on_c, 2, 60, 127
1, 924, Note_on_c, 0, 74, 0
1, 930, Note_on_c, 0, 72, 127
1, 930, Note_on_c, 0, 76, 0
1, 936, Note_on_c, 1, 64, 0
1, 936, Note_on_c, 0, 72, 0
1, 936, Note_on_c, 1, 62, 127
1, 936, Note_on_c, 0, 77, 127
1, 942, Note_on_c, 0, 77, 0
1, 942, Note_on_c, 0, 76, 127
1, 948, Note_on_c, 2, 59, 127
1, 948, Note_on_c, 0, 76, 0
1, 948, Note_on_c, 0, 74, 127
1, 948, Note_on_c, 2, 60, 0
1, 954, Note_on_c, 0, 74, 0
1, 954, Note_on_c, 2, 57, 127
1, 954, Note_on_c, 2, 59, 0
1, 954, Note_on_c, 0, 72, 127
1, 960, Note_on_c, 0, 72, 0
1, 960, Note_on_c, 2, 57, 0
1, 960, Note_on_c, 2, 56, 127
1, 960, Note_on_c, 0, 71, 127
1, 966, Note_on_c, 0, 69, 127
1, 966, Note_on_c, 0, 71, 0
1, 972, Note_on_c, 0, 68, 127
1, 972, Note_on_c, 0, 69, 0
1, 972, Note_on_c, 2, 56, 0
1, 972, Note_on_c, 2, 59, 127
1, 978, Note_on_c, 0, 68, 0
1, 978, Note_on_c, 0, 66, 127
1, 984, Note_on_c, 2, 59, 0
1, 984, Note_on_c, 2, 56, 127
1, 984, Note_on_c, 0, 64, 127
1, 984, Note_on_c, 0, 66, 0
1, 990, Note_on_c, 0, 74, 127
1, 990, Note_on_c, 0, 64, 0
1, 996, Note_on_c, 0, 74, 0
1, 996, Note_on_c, 2, 56, 0
1, 996, Note_on_c, 2, 52, 127
1, 996, Note_on_c, 0, 72, 127
1, 1002, Note_on_c, 0, 71, 127
1, 1002, Note_on_c, 0, 72, 0
1, 1008, Note_on_c, 1, 62, 0
1, 1008, Note_on_c, 0, 71, 0
1, 1008, Note_on_c, 2, 52, 0
1, 1008, Note_on_c, 1, 60, 127
1, 1008, Note_on_c, 0, 69, 127
1, 1008, Note_on_c, 2, 54, 127
1, 1014, Note_on_c, 0, 69, 0
1, 1014, Note_on_c, 0, 68, 127
1, 1020, Note_on_c, 1, 60, 0
1, 1020, Note_on_c, 1, 59, 127
1, 1020, Note_on_c, 2, 56, 127
1, 1020, Note_on_c, 2, 54, 0
1, 1020, Note_on_c, 0, 68, 0
1, 1020, Note_on_c, 0, 69, 127
1, 1026, Note_on_c, 0, 69, 0
1, 1026, Note_on_c, 0, 71, 127
1, 1032, Note_on_c, 1, 59, 0
1, 1032, Note_on_c, 0, 71, 0
1, 1032, Note_on_c, 1, 57, 127
1, 1032, Note_on_c, 0, 72, 127
1, 1032, Note_on_c, 2, 57, 127
1, 1032, Note_on_c, 2, 56, 0
1, 1038, Note_on_c, 0, 72, 0
1, 1038, Note_on_c, 0, 74, 127
1, 1044, Note_on_c, 1, 57, 0
1, 1044, Note_on_c, 2, 51, 127
1, 1044, Note_on_c, 1, 60, 127
1, 1044, Note_on_c, 2, 57, 0
1, 1044, Note_on_c, 0, 76, 127
1, 1044, Note_on_c, 0, 74, 0
1, 1050, Note_on_c, 0, 76, 0
1, 1050, Note_on_c, 0, 78, 127
1, 1056, Note_on_c, 1, 60, 0
1, 1056, Note_on_c, 0, 79, 127
1, 1056, Note_on_c, 2, 52, 127
1, 1056, Note_on_c, 1, 59, 127
1, 1056, Note_on_c, 2, 51, 0
1, 1056, Note_on_c, 0, 78, 0
1, 1062, Note_on_c, 0, 81, 127
1, 1062, Note_on_c, 0, 79, 0
1, 1068, Note_on_c, 1, 64, 127
1, 1068, Note_on_c, 1, 59, 0
1, 1068, Note_on_c, 0, 81, 0
1, 1068, Note_on_c, 0, 83, 127
1, 1068, Note_on_c, 2, 52, 0
1, 1068, Note_on_c, 2, 55, 127
1, 1074, Note_on_c, 0, 83, 0
1, 1074, Note_on_c, 0, 79, 127
1, 1080, Note_on_c, 2, 55, 0
1, 1080, Note_on_c, 0, 79, 0
1, 1080, Note_on_c, 2, 57, 127
1, 1080, Note_on_c, 0, 84, 127
1, 1086, Note_on_c, 0, 84, 0
1, 1086, Note_on_c, 0, 83, 127
1, 1092, Note_on_c, 1, 64, 0
1, 1092, Note_on_c, 0, 83, 0
1, 1092, Note_on_c, 0, 81, 127
1, 1092, Note_on_c, 1, 60, 127
1, 1098, Note_on_c, 0, 79, 127
1, 1098, Note_on_c, 0, 81, 0
1, 1104, Note_on_c, 0, 78, 127
1, 1104, Note_on_c, 0, 79, 0
1, 1104, Note_on_c, 1, 60, 0
1, 1104, Note_on_c, 1, 57, 127
1, 1110, Note_on_c, 0, 76, 127
1, 1110, Note_on_c, 0, 78, 0
1, 1116, Note_on_c, 0, 76, 0
1, 1116, Note_on_c, 1, 54, 127
1, 1116, Note_on_c, 1, 57, 0
1, 1116, Note_on_c, 0, 75, 127
1, 1122, Note_on_c, 0, 73, 127
1, 1122, Note_on_c, 0, 75, 0
1, 1128, Note_on_c, 0, 73, 0
1, 1128, Note_on_c, 0, 71, 127
1, 1128, Note_on_c, 2, 57, 0
1, 1128, Note_on_c, 1, 63, 127
1, 1128, Note_on_c, 1, 54, 0
1, 1128, Note_on_c, 2, 57, 127
1, 1134, Note_on_c, 0, 81, 127
1, 1134, Note_on_c, 0, 71, 0
1, 1134, Note_on_c, 2, 60, 127
1, 1134, Note_on_c, 2, 57, 0
1, 1140, Note_on_c, 0, 79, 127
1, 1140, Note_on_c, 2, 60, 0
1, 1140, Note_on_c, 2, 59, 127
1, 1140, Note_on_c, 0, 81, 0
1, 1146, Note_on_c, 2, 59, 0
1, 1146, Note_on_c, 0, 78, 127
1, 1146, Note_on_c, 0, 79, 0
1, 1146, Note_on_c, 2, 57, 127
1, 1152, Note_on_c, 2, 57, 0
1, 1152, Note_on_c, 0, 78, 0
1, 1152, Note_on_c, 2, 55, 127
1, 1152, Note_on_c, 0, 83, 127
1, 1158, Note_on_c, 0, 83, 0
1, 1158, Note_on_c, 0, 81, 127
1, 1164, Note_on_c, 1, 63, 0
1, 1164, Note_on_c, 0, 81, 0
1, 1164, Note_on_c, 0, 79, 127
1, 1164, Note_on_c, 1, 59, 127
1, 1170, Note_on_c, 0, 78, 127
1, 1170, Note_on_c, 0, 79, 0
1, 1176, Note_on_c, 0, 76, 127
1, 1176, Note_on_c, 0, 78, 0
1, 1176, Note_on_c, 1, 59, 0
1, 1176, Note_on_c, 1, 55, 127
1, 1182, Note_on_c, 0, 74, 127
1, 1182, Note_on_c, 0, 76, 0
1, 1188, Note_on_c, 0, 74, 0
1, 1188, Note_on_c, 1, 52, 127
1, 1188, Note_on_c, 1, 55, 0
1, 1188, Note_on_c, 0, 73, 127
1, 1194, Note_on_c, 0, 71, 127
1, 1194, Note_on_c, 0, 73, 0
1, 1200, Note_on_c, 0, 71, 0
1, 1200, Note_on_c, 0, 69, 127
1, 1200, Note_on_c, 2, 55, 0
1, 1200, Note_on_c, 1, 61, 127
1, 1200, Note_on_c, 1, 52, 0
1, 1200, Note_on_c, 2, 55, 127
1, 1206, Note_on_c, 0, 79, 127
1, 1206, Note_on_c, 0, 69, 0
1, 1206, Note_on_c, 2, 59, 127
1, 1206, Note_on_c, 2, 55, 0
1, 1212, Note_on_c, 0, 78, 127
1, 1212, Note_on_c, 2, 59, 0
1, 1212, Note_on_c, 2, 57, 127
1, 1212, Note_on_c, 0, 79, 0
1, 1218, Note_on_c, 2, 57, 0
1, 1218, Note_on_c, 0, 76, 127
1, 1218, Note_on_c, 0, 78, 0
1, 1218, Note_on_c, 2, 55, 127
1, 1224, Note_on_c, 2, 55, 0
1, 1224, Note_on_c, 0, 76, 0
1, 1224, Note_on_c, 2, 54, 127
1, 1224, Note_on_c, 0, 81, 127
1, 1230, Note_on_c, 0, 81, 0
1, 1230, Note_on_c, 0, 79, 127
1, 1236, Note_on_c, 1, 61, 0
1, 1236, Note_on_c, 0, 79, 0
1, 1236, Note_on_c, 0, 78, 127
1, 1236, Note_on_c, 1, 57, 127
1, 1242, Note_on_c, 0, 76, 127
1, 1242, Note_on_c, 0, 78, 0
1, 1248, Note_on_c, 0, 74, 127
1, 1248, Note_on_c, 0, 76, 0
1, 1248, Note_on_c, 1, 57, 0
1, 1248, Note_on_c, 1, 54, 127
1, 1254, Note_on_c, 0, 73, 127
1, 1254, Note_on_c, 0, 74, 0
1, 1260, Note_on_c, 0, 73, 0
1, 1260, Note_on_c, 1, 50, 127
1, 1260, Note_on_c, 1, 54, 0
1, 1260, Note_on_c, 0, 71, 127
1, 1266, Note_on_c, 0, 69, 127
1, 1266, Note_on_c, 0, 71, 0
1, 1272, Note_on_c, 0, 69, 0
1, 1272, Note_on_c, 0, 67, 127
1, 1272, Note_on_c, 2, 54, 0
1, 1272, Note_on_c, 1, 59, 127
1, 1272, Note_on_c, 1, 50, 0
1, 1272, Note_on_c, 2, 54, 127
1, 1278, Note_on_c, 0, 78, 127
1, 1278, Note_on_c, 0, 67, 0
1, 1278, Note_on_c, 2, 57, 127
1, 1278, Note_on_c, 2, 54, 0
1, 1284, Note_on_c, 0, 76, 127
1, 1284, Note_on_c, 2, 57, 0
1, 1284, Note_on_c, 2, 55, 127
1, 1284, Note_on_c, 0, 78, 0
1, 1290, Note_on_c, 2, 55, 0
1, 1290, Note_on_c, 0, 74, 127
1, 1290, Note_on_c, 0, 76, 0
1, 1290, Note_on_c, 2, 54, 127
1, 1296, Note_on_c, 2, 54, 0
1, 1296, Note_on_c, 0, 74, 0
1, 1296, Note_on_c, 2, 52, 127
1, 1296, Note_on_c, 0, 79, 127
1, 1302, Note_on_c, 0, 79, 0
1, 1302, Note_on_c, 0, 78, 127
1, 1308, Note_on_c, 1, 59, 0
1, 1308, Note_on_c, 0, 78, 0
1, 1308, Note_on_c, 0, 76, 127
1, 1308, Note_on_c, 1, 55, 127
1, 1314, Note_on_c, 0, 74, 127
1, 1314, Note_on_c, 0, 76, 0
1, 1320, Note_on_c, 0, 73, 127
1, 1320, Note_on_c, 0, 74, 0
1, 1320, Note_on_c, 1, 55, 0
1, 1320, Note_on_c, 1, 52, 127
1, 1326, Note_on_c, 0, 71, 127
1, 1326, Note_on_c, 0, 73, 0
1, 1332, Note_on_c, 0, 71, 0
1, 1332, Note_on_c, 1, 49, 127
1, 1332, Note_on_c, 1, 52, 0
1, 1332, Note_on_c, 0, 70, 127
1, 1338, Note_on_c, 0, 68, 127
1, 1338, Note_on_c, 0, 70, 0
1, 1344, Note_on_c, 0, 68, 0
1, 1344, Note_on_c, 0, 66, 127
1, 1344, Note_on_c, 2, 52, 0
1, 1344, Note_on_c, 1, 58, 127
1, 1344, Note_on_c, 1, 49, 0
1, 1344, Note_on_c, 2, 52, 127
1, 1350, Note_on_c, 0, 76, 127
1, 1350, Note_on_c, 0, 66, 0
1, 1350, Note_on_c, 2, 55, 127
1, 1350, Note_on_c, 2, 52, 0
1, 1356, Note_on_c, 0, 74, 127
1, 1356, Note_on_c, 2, 55, 0
1, 1356, Note_on_c, 2, 54, 127
1, 1356, Note_on_c, 0, 76, 0
1, 1362, Note_on_c, 2, 54, 0
1, 1362, Note_on_c, 0, 73, 127
1, 1362, Note_on_c, 0, 74, 0
1, 1362, Note_on_c, 2, 52, 127
1, 1368, Note_on_c, 1, 58, 0
1, 1368, Note_on_c, 0, 73, 0
1, 1368, Note_on_c, 2, 52, 0
1, 1368, Note_on_c, 0, 78, 127
1, 1368, Note_on_c, 2, 50, 127
1, 1368, Note_on_c, 1, 59, 127
1, 1374, Note_on_c, 0, 78, 0
1, 1374, Note_on_c, 0, 76, 127
1, 1380, Note_on_c, 0, 74, 127
1, 1380, Note_on_c, 0, 76, 0
1, 1386, Note_on_c, 0, 73, 127
1, 1386, Note_on_c, 0, 74, 0
1, 1392, Note_on_c, 0, 71, 127
1, 1392, Note_on_c, 2, 55, 127
1, 1392, Note_on_c, 2, 50, 0
1, 1392, Note_on_c, 0, 73, 0
1, 1398, Note_on_c, 1, 59, 0
1, 1398, Note_on_c, 1, 58, 127
1, 1404, Note_on_c, 1, 58, 0
1, 1404, Note_on_c, 1, 59, 127
1, 1410, Note_on_c, 1, 61, 127
1, 1410, Note_on_c, 1, 59, 0
1, 1416, Note_on_c, 1, 62, 127
1, 1416, Note_on_c, 2, 55, 0
1, 1416, Note_on_c, 2, 54, 127
1, 1416, Note_on_c, 1, 61, 0
1, 1422, Note_on_c, 1, 62, 0
1, 1422, Note_on_c, 1, 64, 127
1, 1428, Note_on_c, 1, 66, 127
1, 1428, Note_on_c, 1, 64, 0
1, 1434, Note_on_c, 1, 66, 0
1, 1434, Note_on_c, 1, 62, 127
1, 1440, Note_on_c, 1, 62, 0
1, 1440, Note_on_c, 2, 54, 0
1, 1440, Note_on_c, 1, 67, 127
1, 1440, Note_on_c, 2, 52, 127
1, 1446, Note_on_c, 1, 67, 0
1, 1446, Note_on_c, 1, 66, 127
1, 1452, Note_on_c, 1, 66, 0
1, 1452, Note_on_c, 1, 64, 127
1, 1458, Note_on_c, 1, 64, 0
1, 1458, Note_on_c, 1, 62, 127
1, 1464, Note_on_c, 1, 61, 127
1, 1464, Note_on_c, 2, 54, 127
1, 1464, Note_on_c, 1, 62, 0
1, 1464, Note_on_c, 2, 52, 0
1, 1470, Note_on_c, 1, 61, 0
1, 1470, Note_on_c, 1, 59, 127
1, 1476, Note_on_c, 1, 59, 0
1, 1476, Note_on_c, 1, 58, 127
1, 1482, Note_on_c, 1, 58, 0
1, 1482, Note_on_c, 1, 56, 127
1, 1488, Note_on_c, 2, 42, 127
1, 1488, Note_on_c, 1, 56, 0
1, 1488, Note_on_c, 1, 54, 127
1, 1488, Note_on_c, 2, 54, 0
1, 1488, Note_on_c, 0, 70, 127
1, 1488, Note_on_c, 0, 71, 0
1, 1494, Note_on_c, 1, 64, 127
1, 1494, Note_on_c, 1, 54, 0
1, 1500, Note_on_c, 1, 64, 0
1, 1500, Note_on_c, 1, 62, 127
1, 1506, Note_on_c, 1, 61, 127
1, 1506, Note_on_c, 1, 62, 0
1, 1512, Note_on_c, 0, 70, 0
1, 1512, Note_on_c, 1, 61, 0
1, 1512, Note_on_c, 2, 42, 0
1, 1512, Note_on_c, 1, 62, 127
1, 1512, Note_on_c, 0, 71, 127
1, 1512, Note_on_c, 2, 47, 127
1, 1518, Note_on_c, 1, 66, 127
1, 1518, Note_on_c, 1, 62, 0
1, 1524, Note_on_c, 1, 68, 127
1, 1524, Note_on_c, 1, 66, 0
1, 1530, Note_on_c, 1, 68, 0
1, 1530, Note_on_c, 1, 70, 127
1, 1536, Note_on_c, 1, 70, 0
1, 1536, Note_on_c, 1, 71, 127
1, 1542, Note_on_c, 2, 45, 127
1, 1542, Note_on_c, 2, 47, 0
1, 1548, Note_on_c, 2, 47, 127
1, 1548, Note_on_c, 0, 71, 0
1, 1548, Note_on_c, 0, 76, 127
1, 1548, Note_on_c, 2, 45, 0
1, 1548, Note_on_c, 1, 71, 0
1, 1548, Note_on_c, 1, 72, 127
1, 1554, Note_on_c, 2, 48, 127
1, 1554, Note_on_c, 2, 47, 0
1, 1560, Note_on_c, 1, 71, 127
1, 1560, Note_on_c, 2, 48, 0
1, 1560, Note_on_c, 0, 74, 127
1, 1560, Note_on_c, 2, 50, 127
1, 1560, Note_on_c, 1, 72, 0
1, 1560, Note_on_c, 0, 76, 0
1, 1566, Note_on_c, 2, 52, 127
1, 1566, Note_on_c, 2, 50, 0
1, 1572, Note_on_c, 1, 69, 127
1, 1572, Note_on_c, 2, 52, 0
1, 1572, Note_on_c, 0, 74, 0
1, 1572, Note_on_c, 0, 72, 127
1, 1572, Note_on_c, 2, 53, 127
1, 1572, Note_on_c, 1, 71, 0
1, 1578, Note_on_c, 2, 53, 0
1, 1578, Note_on_c, 2, 48, 127
1, 1584, Note_on_c, 0, 72, 0
1, 1584, Note_on_c, 1, 69, 0
1, 1584, Note_on_c, 2, 48, 0
1, 1584, Note_on_c, 0, 71, 127
1, 1584, Note_on_c, 2, 50, 127
1, 1584, Note_on_c, 1, 68, 127
1, 1590, Note_on_c, 2, 52, 127
1, 1590, Note_on_c, 2, 50, 0
1, 1596, Note_on_c, 2, 50, 127
1, 1596, Note_on_c, 2, 52, 0
1, 1596, Note_on_c, 0, 77, 127
1, 1596, Note_on_c, 0, 71, 0
1, 1602, Note_on_c, 2, 50, 0
1, 1602, Note_on_c, 2, 48, 127
1, 1608, Note_on_c, 0, 76, 127
1, 1608, Note_on_c, 2, 47, 127
1, 1608, Note_on_c, 2, 48, 0
1, 1608, Note_on_c, 0, 77, 0
1, 1614, Note_on_c, 2, 45, 127
1, 1614, Note_on_c, 2, 47, 0
1, 1620, Note_on_c, 0, 76, 0
1, 1620, Note_on_c, 0, 74, 127
1, 1620, Note_on_c, 2, 44, 127
1, 1620, Note_on_c, 2, 45, 0
1, 1626, Note_on_c, 2, 44, 0
1, 1626, Note_on_c, 2, 42, 127
1, 1632, Note_on_c, 2, 40, 127
1, 1632, Note_on_c, 0, 74, 0
1, 1632, Note_on_c, 2, 42, 0
1, 1632, Note_on_c, 0, 72, 127
1, 1638, Note_on_c, 2, 40, 0
1, 1638, Note_on_c, 2, 50, 127
1, 1644, Note_on_c, 2, 50, 0
1, 1644, Note_on_c, 0, 72, 0
1, 1644, Note_on_c, 0, 71, 127
1, 1644, Note_on_c, 2, 48, 127
1, 1650, Note_on_c, 2, 48, 0
1, 1650, Note_on_c, 2, 47, 127
1, 1656, Note_on_c, 0, 71, 0
1, 1656, Note_on_c, 1, 68, 0
1, 1656, Note_on_c, 2, 47, 0
1, 1656, Note_on_c, 0, 72, 127
1, 1656, Note_on_c, 2, 45, 127
1, 1662, Note_on_c, 1, 64, 127
1, 1668, Note_on_c, 1, 66, 127
1, 1668, Note_on_c, 1, 64, 0
1, 1674, Note_on_c, 1, 68, 127
1, 1674, Note_on_c, 1, 66, 0
1, 1680, Note_on_c, 1, 68, 0
1, 1680, Note_on_c, 1, 69, 127
1, 1686, Note_on_c, 2, 45, 0
1, 1686, Note_on_c, 2, 44, 127
1, 1692, Note_on_c, 2, 44, 0
1, 1692, Note_on_c, 0, 72, 0
1, 1692, Note_on_c, 0, 74, 127
1, 1692, Note_on_c, 2, 45, 127
1, 1692, Note_on_c, 1, 69, 0
1, 1692, Note_on_c, 1, 71, 127
1, 1698, Note_on_c, 2, 45, 0
1, 1698, Note_on_c, 2, 47, 127
1, 1704, Note_on_c, 1, 71, 0
1, 1704, Note_on_c, 2, 47, 0
1, 1704, Note_on_c, 1, 69, 127
1, 1704, Note_on_c, 2, 48, 127
1, 1704, Note_on_c, 0, 74, 0
1, 1704, Note_on_c, 0, 72, 127
1, 1710, Note_on_c, 2, 50, 127
1, 1710, Note_on_c, 2, 48, 0
1, 1716, Note_on_c, 1, 69, 0
1, 1716, Note_on_c, 2, 50, 0
1, 1716, Note_on_c, 1, 67, 127
1, 1716, Note_on_c, 2, 52, 127
1, 1716, Note_on_c, 0, 71, 127
1, 1716, Note_on_c, 0, 72, 0
1, 1722, Note_on_c, 2, 52, 0
1, 1722, Note_on_c, 2, 47, 127
1, 1728, Note_on_c, 1, 67, 0
1, 1728, Note_on_c, 0, 71, 0
1, 1728, Note_on_c, 2, 47, 0
1, 1728, Note_on_c, 0, 69, 127
1, 1728, Note_on_c, 2, 48, 127
1, 1728, Note_on_c, 1, 66, 127
1, 1734, Note_on_c, 2, 50, 127
1, 1734, Note_on_c, 2, 48, 0
1, 1740, Note_on_c, 2, 48, 127
1, 1740, Note_on_c, 2, 50, 0
1, 1740, Note_on_c, 0, 76, 127
1, 1740, Note_on_c, 0, 69, 0
1, 1746, Note_on_c, 2, 48, 0
1, 1746, Note_on_c, 2, 47, 127
1, 1752, Note_on_c, 0, 74, 127
1, 1752, Note_on_c, 2, 45, 127
1, 1752, Note_on_c, 2, 47, 0
1, 1752, Note_on_c, 0, 76, 0
1, 1758, Note_on_c, 2, 43, 127
1, 1758, Note_on_c, 2, 45, 0
1, 1764, Note_on_c, 0, 74, 0
1, 1764, Note_on_c, 0, 72, 127
1, 1764, Note_on_c, 2, 42, 127
1, 1764, Note_on_c, 2, 43, 0
1, 1770, Note_on_c, 2, 42, 0
1, 1770, Note_on_c, 2, 40, 127
1, 1776, Note_on_c, 2, 38, 127
1, 1776, Note_on_c, 0, 72, 0
1, 1776, Note_on_c, 2, 40, 0
1, 1776, Note_on_c, 0, 71, 127
1, 1782, Note_on_c, 2, 38, 0
1, 1782, Note_on_c, 2, 48, 127
1, 1788, Note_on_c, 2, 48, 0
1, 1788, Note_on_c, 0, 71, 0
1, 1788, Note_on_c, 0, 69, 127
1, 1788, Note_on_c, 2, 47, 127
1, 1794, Note_on_c, 2, 47, 0
1, 1794, Note_on_c, 2, 45, 127
1, 1800, Note_on_c, 0, 69, 0
1, 1800, Note_on_c, 1, 66, 0
1, 1800, Note_on_c, 2, 45, 0
1, 1800, Note_on_c, 0, 71, 127
1, 1800, Note_on_c, 2, 43, 127
1, 1806, Note_on_c, 1, 62, 127
1, 1812, Note_on_c, 2, 43, 0
1, 1812, Note_on_c, 2, 47, 127
1, 1812, Note_on_c, 1, 62, 0
1, 1812, Note_on_c, 1, 64, 127
1, 1818, Note_on_c, 1, 66, 127
1, 1818, Note_on_c, 1, 64, 0
1, 1824, Note_on_c, 1, 66, 0
1, 1824, Note_on_c, 1, 67, 127
1, 1824, Note_on_c, 2, 47, 0
1, 1824, Note_on_c, 2, 50, 127
1, 1824, Note_on_c, 0, 71, 0
1, 1830, Note_on_c, 1, 67, 0
1, 1830, Note_on_c, 1, 66, 127
1, 1836, Note_on_c, 1, 66, 0
1, 1836, Note_on_c, 2, 50, 0
1, 1836, Note_on_c, 1, 67, 127
1, 1836, Note_on_c, 2, 54, 127
1, 1842, Note_on_c, 1, 67, 0
1, 1842, Note_on_c, 1, 69, 127
1, 1848, Note_on_c, 1, 69, 0
1, 1848, Note_on_c, 1, 71, 127
1, 1848, Note_on_c, 2, 54, 0
1, 1848, Note_on_c, 2, 55, 127
1, 1848, Note_on_c, 0, 79, 127
1, 1854, Note_on_c, 1, 71, 0
1, 1854, Note_on_c, 1, 72, 127
1, 1860, Note_on_c, 2, 55, 0
1, 1860, Note_on_c, 2, 59, 127
1, 1860, Note_on_c, 1, 74, 127
1, 1860, Note_on_c, 1, 72, 0
1, 1866, Note_on_c, 1, 74, 0
1, 1866, Note_on_c, 1, 71, 127
1, 1872, Note_on_c, 1, 71, 0
1, 1872, Note_on_c, 2, 59, 0
1, 1872, Note_on_c, 2, 60, 127
1, 1872, Note_on_c, 1, 76, 127
1, 1878, Note_on_c, 1, 74, 127
1, 1878, Note_on_c, 1, 76, 0
1, 1884, Note_on_c, 1, 74, 0
1, 1884, Note_on_c, 1, 72, 127
1, 1884, Note_on_c, 2, 57, 127
1, 1884, Note_on_c, 2, 60, 0
1, 1890, Note_on_c, 1, 72, 0
1, 1890, Note_on_c, 1, 71, 127
1, 1896, Note_on_c, 1, 71, 0
1, 1896, Note_on_c, 2, 62, 127
1, 1896, Note_on_c, 1, 69, 127
1, 1896, Note_on_c, 2, 57, 0
1, 1902, Note_on_c, 1, 69, 0
1, 1902, Note_on_c, 1, 67, 127
1, 1902, Note_on_c, 0, 83, 127
1, 1902, Note_on_c, 0, 79, 0
1, 1908, Note_on_c, 0, 81, 127
1, 1908, Note_on_c, 0, 83, 0
1, 1908, Note_on_c, 1, 67, 0
1, 1908, Note_on_c, 1, 66, 127
1, 1914, Note_on_c, 1, 66, 0
1, 1914, Note_on_c, 1, 64, 127
1, 1914, Note_on_c, 0, 81, 0
1, 1914, Note_on_c, 0, 79, 127
1, 1920, Note_on_c, 0, 78, 127
1, 1920, Note_on_c, 1, 62, 127
1, 1920, Note_on_c, 0, 79, 0
1, 1920, Note_on_c, 1, 64, 0
1, 1926, Note_on_c, 1, 72, 127
1, 1926, Note_on_c, 2, 62, 0
1, 1926, Note_on_c, 2, 64, 127
1, 1926, Note_on_c, 1, 62, 0
1, 1932, Note_on_c, 2, 62, 127
1, 1932, Note_on_c, 2, 64, 0
1, 1932, Note_on_c, 1, 72, 0
1, 1932, Note_on_c, 1, 71, 127
1, 1938, Note_on_c, 1, 69, 127
1, 1938, Note_on_c, 2, 62, 0
1, 1938, Note_on_c, 1, 71, 0
1, 1938, Note_on_c, 2, 60, 127
1, 1944, Note_on_c, 1, 69, 0
1, 1944, Note_on_c, 0, 78, 0
1, 1944, Note_on_c, 2, 60, 0
1, 1944, Note_on_c, 2, 59, 127
1, 1944, Note_on_c, 0, 77, 127
1, 1944, Note_on_c, 1, 74, 127
1, 1950, Note_on_c, 1, 74, 0
1, 1950, Note_on_c, 1, 72, 127
1, 1956, Note_on_c, 1, 72, 0
1, 1956, Note_on_c, 1, 71, 127
1, 1956, Note_on_c, 2, 55, 127
1, 1956, Note_on_c, 2, 59, 0
1, 1962, Note_on_c, 1, 71, 0
1, 1962, Note_on_c, 1, 69, 127
1, 1968, Note_on_c, 1, 69, 0
1, 1968, Note_on_c, 2, 60, 127
1, 1968, Note_on_c, 1, 67, 127
1, 1968, Note_on_c, 2, 55, 0
1, 1974, Note_on_c, 0, 77, 0
1, 1974, Note_on_c, 0, 81, 127
1, 1974, Note_on_c, 1, 67, 0
1, 1974, Note_on_c, 1, 65, 127
1, 1980, Note_on_c, 0, 81, 0
1, 1980, Note_on_c, 0, 79, 127
1, 1980, Note_on_c, 1, 65, 0
1, 1980, Note_on_c, 1, 64, 127
1, 1986, Note_on_c, 1, 64, 0
1, 1986, Note_on_c, 1, 62, 127
1, 1986, Note_on_c, 0, 79, 0
1, 1986, Note_on_c, 0, 77, 127
1, 1992, Note_on_c, 0, 76, 127
1, 1992, Note_on_c, 1, 60, 127
1, 1992, Note_on_c, 0, 77, 0
1, 1992, Note_on_c, 1, 62, 0
1, 1998, Note_on_c, 1, 71, 127
1, 1998, Note_on_c, 2, 60, 0
1, 1998, Note_on_c, 2, 62, 127
1, 1998, Note_on_c, 1, 60, 0
1, 2004, Note_on_c, 2, 60, 127
1, 2004, Note_on_c, 2, 62, 0
1, 2004, Note_on_c, 1, 71, 0
1, 2004, Note_on_c, 1, 69, 127
1, 2010, Note_on_c, 1, 67, 127
1, 2010, Note_on_c, 2, 60, 0
1, 2010, Note_on_c, 1, 69, 0
1, 2010, Note_on_c, 2, 59, 127
1, 2016, Note_on_c, 1, 67, 0
1, 2016, Note_on_c, 2, 59, 0
1, 2016, Note_on_c, 2, 57, 127
1, 2016, Note_on_c, 1, 72, 127
1, 2022, Note_on_c, 1, 71, 127
1, 2022, Note_on_c, 1, 72, 0
1, 2028, Note_on_c, 1, 71, 0
1, 2028, Note_on_c, 1, 69, 127
1, 2028, Note_on_c, 2, 54, 127
1, 2028, Note_on_c, 2, 57, 0
1, 2034, Note_on_c, 1, 69, 0
1, 2034, Note_on_c, 1, 67, 127
1, 2040, Note_on_c, 1, 67, 0
1, 2040, Note_on_c, 2, 59, 127
1, 2040, Note_on_c, 1, 66, 127
1, 2040, Note_on_c, 2, 54, 0
1, 2046, Note_on_c, 1, 66, 0
1, 2046, Note_on_c, 1, 64, 127
1, 2046, Note_on_c, 0, 79, 127
1, 2046, Note_on_c, 0, 76, 0
1, 2052, Note_on_c, 0, 78, 127
1, 2052, Note_on_c, 0, 79, 0
1, 2052, Note_on_c, 1, 64, 0
1, 2052, Note_on_c, 1, 62, 127
1, 2058, Note_on_c, 1, 62, 0
1, 2058, Note_on_c, 1, 60, 127
1, 2058, Note_on_c, 0, 78, 0
1, 2058, Note_on_c, 0, 76, 127
1, 2064, Note_on_c, 0, 74, 127
1, 2064, Note_on_c, 1, 59, 127
1, 2064, Note_on_c, 0, 76, 0
1, 2064, Note_on_c, 1, 60, 0
1, 2070, Note_on_c, 1, 69, 127
1, 2070, Note_on_c, 2, 59, 0
1, 2070, Note_on_c, 2, 60, 127
1, 2070, Note_on_c, 1, 59, 0
1, 2076, Note_on_c, 2, 59, 127
1, 2076, Note_on_c, 2, 60, 0
1, 2076, Note_on_c, 1, 69, 0
1, 2076, Note_on_c, 1, 67, 127
1, 2082, Note_on_c, 1, 66, 127
1, 2082, Note_on_c, 2, 59, 0
1, 2082, Note_on_c, 1, 67, 0
1, 2082, Note_on_c, 2, 57, 127
1, 2088, Note_on_c, 1, 66, 0
1, 2088, Note_on_c, 2, 57, 0
1, 2088, Note_on_c, 2, 55, 127
1, 2088, Note_on_c, 1, 71, 127
1, 2094, Note_on_c, 1, 69, 127
1, 2094, Note_on_c, 1, 71, 0
1, 2100, Note_on_c, 1, 69, 0
1, 2100, Note_on_c, 1, 67, 127
1, 2100, Note_on_c, 2, 52, 127
1, 2100, Note_on_c, 2, 55, 0
1, 2106, Note_on_c, 1, 67, 0
1, 2106, Note_on_c, 1, 66, 127
1, 2112, Note_on_c, 1, 66, 0
1, 2112, Note_on_c, 2, 57, 127
1, 2112, Note_on_c, 1, 64, 127
1, 2112, Note_on_c, 2, 52, 0
1, 2118, Note_on_c, 1, 64, 0
1, 2118, Note_on_c, 1, 62, 127
1, 2118, Note_on_c, 0, 77, 127
1, 2118, Note_on_c, 0, 74, 0
1, 2124, Note_on_c, 0, 76, 127
1, 2124, Note_on_c, 0, 77, 0
1, 2124, Note_on_c, 1, 62, 0
1, 2124, Note_on_c, 1, 60, 127
1, 2130, Note_on_c, 1, 60, 0
1, 2130, Note_on_c, 1, 59, 127
1, 2130, Note_on_c, 0, 76, 0
1, 2130, Note_on_c, 0, 74, 127
1, 2136, Note_on_c, 0, 72, 127
1, 2136, Note_on_c, 1, 57, 127
1, 2136, Note_on_c, 0, 74, 0
1, 2136, Note_on_c, 1, 59, 0
1, 2142, Note_on_c, 1, 67, 127
1, 2142, Note_on_c, 2, 57, 0
1, 2142, Note_on_c, 2, 59, 127
1, 2142, Note_on_c, 1, 57, 0
1, 2148, Note_on_c, 2, 57, 127
1, 2148, Note_on_c, 2, 59, 0
1, 2148, Note_on_c, 1, 67, 0
1, 2148, Note_on_c, 1, 66, 127
1, 2154, Note_on_c, 1, 64, 127
1, 2154, Note_on_c, 2, 57, 0
1, 2154, Note_on_c, 1, 66, 0
1, 2154, Note_on_c, 2, 55, 127
1, 2160, Note_on_c, 1, 64, 0
1, 2160, Note_on_c, 2, 55, 0
1, 2160, Note_on_c, 2, 54, 127
1, 2160, Note_on_c, 1, 62, 127
1, 2166, Note_on_c, 2, 52, 127
1, 2166, Note_on_c, 2, 54, 0
1, 2166, Note_on_c, 0, 72, 0
1, 2166, Note_on_c, 0, 72, 127
1, 2172, Note_on_c, 2, 50, 127
1, 2172, Note_on_c, 0, 71, 127
1, 2172, Note_on_c, 2, 52, 0
1, 2172, Note_on_c, 0, 72, 0
1, 2178, Note_on_c, 0, 69, 127
1, 2178, Note_on_c, 0, 71, 0
1, 2178, Note_on_c, 2, 50, 0
1, 2178, Note_on_c, 2, 48, 127
1, 2184, Note_on_c, 0, 67, 127
1, 2184, Note_on_c, 2, 48, 0
1, 2184, Note_on_c, 1, 62, 0
1, 2184, Note_on_c, 0, 69, 0
1, 2184, Note_on_c, 2, 47, 127
1, 2190, Note_on_c, 0, 67, 0
1, 2190, Note_on_c, 2, 45, 127
1, 2190, Note_on_c, 2, 47, 0
1, 2190, Note_on_c, 0, 66, 127
1, 2196, Note_on_c, 2, 45, 0
1, 2196, Note_on_c, 2, 43, 127
1, 2196, Note_on_c, 0, 67, 127
1, 2196, Note_on_c, 0, 66, 0
1, 2202, Note_on_c, 2, 43, 0
1, 2202, Note_on_c, 2, 42, 127
1, 2202, Note_on_c, 0, 69, 127
1, 2202, Note_on_c, 0, 67, 0
1, 2208, Note_on_c, 1, 67, 127
1, 2208, Note_on_c, 0, 69, 0
1, 2208, Note_on_c, 2, 42, 0
1, 2208, Note_on_c, 0, 71, 127
1, 2208, Note_on_c, 2, 43, 127
1, 2214, Note_on_c, 0, 71, 0
1, 2214, Note_on_c, 2, 45, 127
1, 2214, Note_on_c, 0, 72, 127
1, 2214, Note_on_c, 2, 43, 0
1, 2220, Note_on_c, 0, 72, 0
1, 2220, Note_on_c, 0, 74, 127
1, 2220, Note_on_c, 2, 45, 0
1, 2220, Note_on_c, 2, 47, 127
1, 2226, Note_on_c, 2, 43, 127
1, 2226, Note_on_c, 0, 71, 127
1, 2226, Note_on_c, 2, 47, 0
1, 2226, Note_on_c, 0, 74, 0
1, 2232, Note_on_c, 0, 71, 0
1, 2232, Note_on_c, 2, 43, 0
1, 2232, Note_on_c, 2, 48, 127
1, 2232, Note_on_c, 0, 76, 127
1, 2238, Note_on_c, 2, 45, 127
1, 2238, Note_on_c, 0, 76, 0
1, 2238, Note_on_c, 0, 74, 127
1, 2238, Note_on_c, 2, 48, 0
1, 2244, Note_on_c, 0, 72, 127
1, 2244, Note_on_c, 2, 45, 0
1, 2244, Note_on_c, 0, 74, 0
1, 2244, Note_on_c, 2, 47, 127
1, 2250, Note_on_c, 0, 71, 127
1, 2250, Note_on_c, 2, 47, 0
1, 2250, Note_on_c, 2, 48, 127
1, 2250, Note_on_c, 0, 72, 0
1, 2256, Note_on_c, 0, 69, 127
1, 2256, Note_on_c, 2, 50, 127
1, 2256, Note_on_c, 0, 71, 0
1, 2256, Note_on_c, 2, 48, 0
1, 2262, Note_on_c, 0, 69, 0
1, 2262, Note_on_c, 0, 67, 127
1, 2268, Note_on_c, 0, 66, 127
1, 2268, Note_on_c, 2, 50, 0
1, 2268, Note_on_c, 0, 67, 0
1, 2268, Note_on_c, 2, 48, 127
1, 2274, Note_on_c, 0, 64, 127
1, 2274, Note_on_c, 0, 66, 0
1, 2280, Note_on_c, 0, 62, 127
1, 2280, Note_on_c, 1, 66, 127
1, 2280, Note_on_c, 2, 48, 0
1, 2280, Note_on_c, 1, 67, 0
1, 2280, Note_on_c, 2, 50, 127
1, 2280, Note_on_c, 0, 64, 0
1, 2286, Note_on_c, 0, 72, 127
1, 2286, Note_on_c, 0, 62, 0
1, 2292, Note_on_c, 0, 71, 127
1, 2292, Note_on_c, 2, 50, 0
1, 2292, Note_on_c, 2, 38, 127
1, 2292, Note_on_c, 0, 72, 0
1, 2298, Note_on_c, 0, 69, 127
1, 2298, Note_on_c, 0, 71, 0
1, 2304, Note_on_c, 1, 66, 0
1, 2304, Note_on_c, 0, 69, 0
1, 2304, Note_on_c, 2, 38, 0
1, 2304, Note_on_c, 0, 71, 127
1, 2304, Note_on_c, 2, 43, 127
1, 2304, Note_on_c, 1, 67, 127
1, 2376, Note_on_c, 0, 71, 0
1, 2376, Note_on_c, 1, 67, 0
1, 2376, Note_on_c, 2, 43, 0
1, 2376, End_track
2, 0, Start_track
2, 1, Copyright_t, "___________________________________________________\012\012KUNSTDERFUGE.COM LARGE CLASSICAL MIDI COLLECTION\012ONCLASSICAL BY ALESSANDRO SIMONETTO, PROPRIETOR\012___________________________________________________\012\012! Attention: this file is under copyright !\012\012(c)onclassical, (c)icking-archive, 2010\012___________________________________________________\012\012NO ONE MAY REPUBLISH THIS FILE WITHOUT PERMISSION\012COMMERCIAL USES OF THIS FILE IS STRICTLY PROHIBITED\012___________________________________________________\012\012Files & contributor's list: http://kunstderfuge.com/\012Terms and conditions: http://kunstderfuge.com/notes.htm"
2, 1, End_track
0, 0, End_of_file