0, 0, Header, 1, 13, 480
1, 0, Start_track
1, 0, Text_t, "D. SHOSTAKOVICH - Fugue in C minor  opus 87 no. 20"
1, 0, Tempo, 517241
1, 0, Time_signature, 4, 2, 24, 8
1, 0, Key_signature, -3, "major"
1, 960, Tempo, 560748
1, 1940, Tempo, 517241
1, 3220, Tempo, 560748
1, 3960, Tempo, 519481
1, 4640, Tempo, 533333
1, 5400, Tempo, 555556
1, 6880, Tempo, 535714
1, 7180, Tempo, 517241
1, 7680, Tempo, 526316
1, 17280, Time_signature, 3, 1, 48, 8
1, 20160, Time_signature, 4, 2, 24, 8
1, 22080, Time_signature, 3, 1, 48, 8
1, 24960, Time_signature, 4, 2, 24, 8
1, 42240, Time_signature, 3, 1, 48, 8
1, 45120, Time_signature, 4, 2, 24, 8
1, 47040, Time_signature, 3, 1, 48, 8
1, 49920, Time_signature, 4, 2, 24, 8
1, 69120, Time_signature, 3, 1, 48, 8
1, 72000, Time_signature, 4, 2, 24, 8
1, 73920, Time_signature, 3, 1, 48, 8
1, 79720, Tempo, 530973
1, 79960, Tempo, 533333
1, 80200, Tempo, 535714
1, 80440, Tempo, 538117
1, 80680, Tempo, 540541
1, 80920, Tempo, 542986
1, 81160, Tempo, 545455
1, 81400, Tempo, 547945
1, 81640, Tempo, 550459
1, 81880, Tempo, 552995
1, 82120, Tempo, 555556
1, 82360, Tempo, 558140
1, 82560, Time_signature, 4, 2, 24, 8
1, 82600, Tempo, 560748
1, 82820, Tempo, 563380
1, 83040, Tempo, 517241
1, 89340, Tempo, 558140
1, 90460, Tempo, 517241
1, 99840, Time_signature, 3, 1, 48, 8
1, 102720, Time_signature, 4, 2, 24, 8
1, 104640, Time_signature, 3, 1, 48, 8
1, 105550, Tempo, 515021
1, 106560, Tempo, 579710
1, 106840, Tempo, 582524
1, 107180, Tempo, 736196
1, 107490, Tempo, 740741
1, 107510, Tempo, 638298
1, 107530, Tempo, 515021
1, 114250, Tempo, 515021
1, 114500, Tempo, 517241
1, 114750, Tempo, 519481
1, 115000, Tempo, 521739
1, 115240, Tempo, 524017
1, 115490, Tempo, 526316
1, 115740, Tempo, 528634
1, 115980, Tempo, 530973
1, 116230, Tempo, 533333
1, 116480, Tempo, 535714
1, 116720, Tempo, 538117
1, 116970, Tempo, 540541
1, 117220, Tempo, 542986
1, 117460, Tempo, 545455
1, 117500, Tempo, 521739
1, 117700, Tempo, 524017
1, 117900, Tempo, 526316
1, 118090, Tempo, 528634
1, 118290, Tempo, 530973
1, 118490, Tempo, 533333
1, 118680, Tempo, 535714
1, 118880, Tempo, 538117
1, 119040, Time_signature, 4, 2, 24, 8
1, 119070, Tempo, 540541
1, 119360, Tempo, 519481
1, 119480, Tempo, 521739
1, 126260, Tempo, 519481
1, 126290, Tempo, 521739
1, 126310, Tempo, 524017
1, 126340, Tempo, 526316
1, 126360, Tempo, 528634
1, 126390, Tempo, 530973
1, 126410, Tempo, 533333
1, 126440, Tempo, 535714
1, 126460, Tempo, 538117
1, 126490, Tempo, 540541
1, 126510, Tempo, 542986
1, 126540, Tempo, 545455
1, 126560, Tempo, 547945
1, 126590, Tempo, 550459
1, 126610, Tempo, 552995
1, 126640, Tempo, 555556
1, 126660, Tempo, 558140
1, 126690, Tempo, 560748
1, 126710, Tempo, 563380
1, 126730, Tempo, 512821
1, 136300, Tempo, 512821
1, 136320, Time_signature, 3, 1, 48, 8
1, 139200, Time_signature, 4, 2, 24, 8
1, 139220, Tempo, 517241
1, 141120, Time_signature, 3, 1, 48, 8
1, 143020, Tempo, 533333
1, 144000, Time_signature, 4, 2, 24, 8
1, 144460, Tempo, 530973
1, 145340, Tempo, 528634
1, 145920, Time_signature, 3, 1, 48, 8
1, 146160, Tempo, 526316
1, 146980, Tempo, 524017
1, 147800, Tempo, 521739
1, 148620, Tempo, 519481
1, 148800, Time_signature, 4, 2, 24, 8
1, 149440, Tempo, 517241
1, 150260, Tempo, 515021
1, 150720, Time_signature, 3, 1, 48, 8
1, 151080, Tempo, 512821
1, 151900, Tempo, 510638
1, 152720, Tempo, 508475
1, 153540, Tempo, 506329
1, 153600, Time_signature, 4, 2, 24, 8
1, 155520, Time_signature, 3, 1, 48, 8
1, 160340, Tempo, 510638
1, 160560, Tempo, 512821
1, 161260, Tempo, 519481
1, 161280, Time_signature, 4, 2, 24, 8
1, 163200, Time_signature, 3, 1, 48, 8
1, 168960, Time_signature, 4, 2, 24, 8
1, 170900, Tempo, 533333
1, 171880, Tempo, 535714
1, 172840, Tempo, 538117
1, 173800, Tempo, 540541
1, 174760, Tempo, 542986
1, 175720, Tempo, 545455
1, 176680, Tempo, 547945
1, 177000, Tempo, 510638
1, 183840, Tempo, 550459
1, 184090, Tempo, 582524
1, 184100, Tempo, 594059
1, 184280, Tempo, 588235
1, 184290, Tempo, 591133
1, 184300, Tempo, 508475
1, 190540, Tempo, 528634
1, 192440, Tempo, 508475
1, 193920, Time_signature, 3, 1, 48, 8
1, 196800, Time_signature, 4, 2, 24, 8
1, 198720, Time_signature, 3, 1, 48, 8
1, 199680, Tempo, 510638
1, 199960, Tempo, 512821
1, 200240, Tempo, 515021
1, 200520, Tempo, 517241
1, 200800, Tempo, 519481
1, 201080, Tempo, 521739
1, 201360, Tempo, 524017
1, 201600, Time_signature, 4, 2, 24, 8
1, 201640, Tempo, 526316
1, 201880, Tempo, 510638
1, 202020, Tempo, 508475
1, 214100, Tempo, 528634
1, 215160, Tempo, 512821
1, 216980, Tempo, 526316
1, 218880, Tempo, 512821
1, 220820, Tempo, 526316
1, 222740, Tempo, 510638
1, 226540, Tempo, 510638
1, 226880, Tempo, 512821
1, 227200, Tempo, 515021
1, 227520, Tempo, 517241
1, 227860, Tempo, 519481
1, 228180, Tempo, 521739
1, 228500, Tempo, 524017
1, 230400, Time_signature, 3, 1, 48, 8
1, 233280, Time_signature, 4, 2, 24, 8
1, 235200, Time_signature, 3, 1, 48, 8
1, 239240, Tempo, 517241
1, 239960, Tempo, 519481
1, 240640, Tempo, 521739
1, 240960, Time_signature, 4, 2, 24, 8
1, 241320, Tempo, 524017
1, 242000, Tempo, 526316
1, 242680, Tempo, 528634
1, 243360, Tempo, 530973
1, 244040, Tempo, 533333
1, 244640, Tempo, 533333
1, 244960, Tempo, 555556
1, 245160, Tempo, 552995
1, 245640, Tempo, 555556
1, 246120, Tempo, 558140
1, 246560, Tempo, 560748
1, 247040, Tempo, 563380
1, 247480, Tempo, 566038
1, 247960, Tempo, 568720
1, 248400, Tempo, 571429
1, 248480, Tempo, 736196
1, 248860, Tempo, 845070
1, 249200, Tempo, 574163
1, 249410, Tempo, 576923
1, 249420, Tempo, 515021
1, 249440, Tempo, 517241
1, 250560, Time_signature, 3, 1, 48, 8
1, 252460, Tempo, 517241
1, 253440, Time_signature, 4, 2, 24, 8
1, 255360, Time_signature, 3, 1, 48, 8
1, 255970, Tempo, 524017
1, 258240, Time_signature, 4, 2, 24, 8
1, 258280, Tempo, 528634
1, 258700, Tempo, 530973
1, 259100, Tempo, 533333
1, 259520, Tempo, 535714
1, 259920, Tempo, 538117
1, 260840, Tempo, 638298
1, 261240, Tempo, 641711
1, 261640, Tempo, 645161
1, 262040, Tempo, 648649
1, 262060, Tempo, 718563
1, 262320, Tempo, 722892
1, 262580, Tempo, 727273
1, 262840, Tempo, 731707
1, 263100, Tempo, 736196
1, 263240, Tempo, 923077
1, 263660, Tempo, 1081081
1, 264440, Tempo, 535714
1, 264440, End_track
2, 0, Start_track
2, 0, Title_t, "sop"
2, 0, MIDI_port, 0
2, 0, Channel_prefix, 0
2, 0, Control_c, 0, 7, 127
2, 0, Control_c, 0, 10, 70
2, 0, Program_c, 0, 0
2, 0, Control_c, 0, 121, 0
2, 0, Control_c, 0, 0, 0
2, 1, Control_c, 0, 93, 14
2, 1, Control_c, 0, 91, 54
2, 24960, Control_c, 0, 121, 0
2, 24960, Control_c, 0, 0, 0
2, 24960, Note_on_c, 0, 72, 74
2, 24961, Control_c, 0, 93, 14
2, 24961, Control_c, 0, 91, 54
2, 25920, Note_off_c, 0, 72, 64
2, 25920, Note_on_c, 0, 70, 74
2, 26400, Note_off_c, 0, 70, 64
2, 26400, Note_on_c, 0, 74, 74
2, 26880, Note_off_c, 0, 74, 64
2, 26880, Note_on_c, 0, 72, 74
2, 28320, Note_off_c, 0, 72, 64
2, 28320, Note_on_c, 0, 72, 74
2, 28800, Note_off_c, 0, 72, 64
2, 28800, Note_on_c, 0, 77, 74
2, 29760, Note_off_c, 0, 77, 64
2, 29760, Note_on_c, 0, 75, 74
2, 30240, Note_off_c, 0, 75, 64
2, 30240, Note_on_c, 0, 74, 74
2, 30720, Note_off_c, 0, 74, 64
2, 30720, Note_on_c, 0, 75, 74
2, 31200, Note_off_c, 0, 75, 64
2, 31200, Note_on_c, 0, 72, 74
2, 31680, Note_off_c, 0, 72, 64
2, 31680, Note_on_c, 0, 74, 74
2, 32160, Note_off_c, 0, 74, 64
2, 32160, Note_on_c, 0, 72, 74
2, 32640, Note_off_c, 0, 72, 64
2, 32640, Note_on_c, 0, 70, 67
2, 33120, Note_off_c, 0, 70, 64
2, 33120, Note_on_c, 0, 72, 67
2, 33600, Note_off_c, 0, 72, 64
2, 33600, Note_on_c, 0, 74, 67
2, 35040, Note_off_c, 0, 74, 64
2, 35040, Note_on_c, 0, 75, 67
2, 35520, Note_off_c, 0, 75, 64
2, 35520, Note_on_c, 0, 74, 67
2, 36480, Note_off_c, 0, 74, 64
2, 36480, Note_on_c, 0, 75, 67
2, 36960, Note_off_c, 0, 75, 64
2, 36960, Note_on_c, 0, 77, 67
2, 38400, Note_off_c, 0, 77, 64
2, 38400, Note_on_c, 0, 75, 67
2, 39360, Note_off_c, 0, 75, 64
2, 39360, Note_on_c, 0, 74, 67
2, 40320, Note_off_c, 0, 74, 64
2, 40320, Note_on_c, 0, 72, 65
2, 41280, Note_off_c, 0, 72, 64
2, 41280, Note_on_c, 0, 67, 65
2, 43200, Note_off_c, 0, 67, 64
2, 43200, Note_on_c, 0, 65, 65
2, 44640, Note_off_c, 0, 65, 64
2, 44640, Note_on_c, 0, 67, 65
2, 45120, Note_off_c, 0, 67, 64
2, 45120, Note_on_c, 0, 70, 65
2, 46080, Note_off_c, 0, 70, 64
2, 46080, Note_on_c, 0, 65, 65
2, 48000, Note_off_c, 0, 65, 64
2, 48000, Note_on_c, 0, 63, 72
2, 49440, Note_off_c, 0, 63, 64
2, 49440, Note_on_c, 0, 65, 70
2, 49920, Note_off_c, 0, 65, 64
2, 50400, Note_on_c, 0, 67, 16
2, 50640, Note_off_c, 0, 67, 64
2, 50640, Note_on_c, 0, 68, 76
2, 50880, Note_off_c, 0, 68, 64
2, 50880, Note_on_c, 0, 70, 78
2, 51840, Note_off_c, 0, 70, 64
2, 51840, Note_on_c, 0, 60, 65
2, 52800, Note_off_c, 0, 60, 64
2, 52800, Note_on_c, 0, 58, 65
2, 53760, Note_off_c, 0, 58, 64
2, 53760, Note_on_c, 0, 63, 64
2, 56160, Note_off_c, 0, 63, 64
2, 56160, Note_on_c, 0, 62, 64
2, 56640, Note_off_c, 0, 62, 64
2, 56640, Note_on_c, 0, 70, 64
2, 57600, Note_off_c, 0, 70, 64
2, 57600, Note_on_c, 0, 63, 64
2, 58080, Note_off_c, 0, 63, 64
2, 58080, Note_on_c, 0, 68, 64
2, 59040, Note_off_c, 0, 68, 64
2, 59040, Note_on_c, 0, 67, 64
2, 60480, Note_off_c, 0, 67, 64
2, 60480, Note_on_c, 0, 65, 64
2, 61440, Note_off_c, 0, 65, 64
2, 61440, Note_on_c, 0, 70, 64
2, 63840, Note_off_c, 0, 70, 64
2, 63840, Note_on_c, 0, 68, 64
2, 64320, Note_off_c, 0, 68, 64
2, 64320, Note_on_c, 0, 77, 64
2, 65280, Note_off_c, 0, 77, 64
2, 65280, Note_on_c, 0, 70, 64
2, 65760, Note_off_c, 0, 70, 64
2, 65760, Note_on_c, 0, 75, 64
2, 66720, Note_off_c, 0, 75, 64
2, 66720, Note_on_c, 0, 73, 64
2, 67200, Note_off_c, 0, 73, 64
2, 67680, Note_on_c, 0, 72, 76
2, 68640, Note_off_c, 0, 72, 64
2, 68640, Note_on_c, 0, 70, 72
2, 69120, Note_off_c, 0, 70, 64
2, 69120, Note_on_c, 0, 72, 61
2, 69600, Note_off_c, 0, 72, 64
2, 69600, Note_on_c, 0, 70, 69
2, 69840, Note_off_c, 0, 70, 64
2, 69840, Note_on_c, 0, 72, 73
2, 70080, Note_off_c, 0, 72, 64
2, 70080, Note_on_c, 0, 73, 79
2, 70320, Note_off_c, 0, 73, 64
2, 70320, Note_on_c, 0, 72, 76
2, 70560, Note_off_c, 0, 72, 64
2, 70560, Note_on_c, 0, 70, 74
2, 70800, Note_off_c, 0, 70, 64
2, 70800, Note_on_c, 0, 68, 72
2, 71040, Note_off_c, 0, 68, 64
2, 71040, Note_on_c, 0, 70, 70
2, 71280, Note_off_c, 0, 70, 64
2, 71280, Note_on_c, 0, 68, 67
2, 71520, Note_off_c, 0, 68, 64
2, 71520, Note_on_c, 0, 67, 65
2, 72000, Note_off_c, 0, 67, 64
2, 72480, Note_on_c, 0, 73, 73
2, 73440, Note_off_c, 0, 73, 64
2, 73440, Note_on_c, 0, 72, 80
2, 73920, Note_off_c, 0, 72, 64
2, 73920, Note_on_c, 0, 73, 83
2, 74400, Note_off_c, 0, 73, 64
2, 74400, Note_on_c, 0, 72, 87
2, 74640, Note_off_c, 0, 72, 64
2, 74640, Note_on_c, 0, 73, 88
2, 74880, Note_off_c, 0, 73, 64
2, 74880, Note_on_c, 0, 75, 90
2, 75120, Note_off_c, 0, 75, 64
2, 75120, Note_on_c, 0, 73, 92
2, 75360, Note_off_c, 0, 73, 64
2, 75360, Note_on_c, 0, 72, 93
2, 75600, Note_off_c, 0, 72, 64
2, 75600, Note_on_c, 0, 70, 95
2, 75840, Note_off_c, 0, 70, 64
2, 75840, Note_on_c, 0, 72, 96
2, 76080, Note_off_c, 0, 72, 64
2, 76080, Note_on_c, 0, 70, 94
2, 76320, Note_off_c, 0, 70, 64
2, 76320, Note_on_c, 0, 68, 94
2, 76800, Note_off_c, 0, 68, 64
2, 76800, Note_on_c, 0, 75, 98
2, 77040, Note_off_c, 0, 75, 64
2, 77040, Note_on_c, 0, 77, 101
2, 77280, Note_off_c, 0, 77, 64
2, 77280, Note_on_c, 0, 75, 103
2, 79200, Note_off_c, 0, 75, 64
2, 79200, Note_on_c, 0, 72, 97
2, 79680, Note_off_c, 0, 72, 64
2, 79680, Note_on_c, 0, 73, 87
2, 81120, Note_off_c, 0, 73, 64
2, 81120, Note_on_c, 0, 72, 78
2, 81360, Note_off_c, 0, 72, 64
2, 81360, Note_on_c, 0, 70, 76
2, 81600, Note_off_c, 0, 70, 64
2, 81600, Note_on_c, 0, 72, 74
2, 81840, Note_off_c, 0, 72, 64
2, 81840, Note_on_c, 0, 70, 73
2, 82080, Note_off_c, 0, 70, 64
2, 82080, Note_on_c, 0, 68, 71
2, 82560, Note_off_c, 0, 68, 64
2, 82560, Control_c, 0, 121, 0
2, 82560, Control_c, 0, 0, 0
2, 82560, Note_on_c, 0, 80, 67
2, 82561, Control_c, 0, 91, 54
2, 82561, Control_c, 0, 93, 14
2, 83520, Note_off_c, 0, 80, 64
2, 83520, Note_on_c, 0, 79, 59
2, 84000, Note_off_c, 0, 79, 64
2, 84000, Note_on_c, 0, 82, 60
2, 84480, Note_off_c, 0, 82, 64
2, 84480, Note_on_c, 0, 80, 67
2, 85920, Note_off_c, 0, 80, 64
2, 85920, Note_on_c, 0, 80, 70
2, 86400, Note_off_c, 0, 80, 64
2, 86400, Note_on_c, 0, 85, 70
2, 87360, Note_off_c, 0, 85, 64
2, 87360, Note_on_c, 0, 84, 70
2, 87840, Note_off_c, 0, 84, 64
2, 87840, Note_on_c, 0, 82, 70
2, 88320, Note_off_c, 0, 82, 64
2, 88320, Note_on_c, 0, 84, 70
2, 88800, Note_off_c, 0, 84, 64
2, 88800, Note_on_c, 0, 80, 70
2, 89280, Note_off_c, 0, 80, 64
2, 89280, Note_on_c, 0, 82, 70
2, 89760, Note_off_c, 0, 82, 64
2, 89760, Note_on_c, 0, 80, 70
2, 90240, Note_off_c, 0, 80, 64
2, 90240, Note_on_c, 0, 82, 65
2, 91200, Note_off_c, 0, 82, 64
2, 91200, Note_on_c, 0, 80, 67
2, 92160, Note_off_c, 0, 80, 64
2, 92160, Note_on_c, 0, 85, 70
2, 94560, Note_off_c, 0, 85, 64
2, 94560, Note_on_c, 0, 84, 74
2, 95040, Note_off_c, 0, 84, 64
2, 95040, Note_on_c, 0, 92, 73
2, 96000, Note_off_c, 0, 92, 64
2, 96000, Note_on_c, 0, 85, 70
2, 96480, Note_off_c, 0, 85, 64
2, 96480, Note_on_c, 0, 90, 69
2, 97440, Note_off_c, 0, 90, 64
2, 97440, Note_on_c, 0, 89, 67
2, 97920, Note_off_c, 0, 89, 64
2, 98400, Note_on_c, 0, 87, 71
2, 99360, Note_off_c, 0, 87, 64
2, 99360, Note_on_c, 0, 85, 68
2, 99840, Note_off_c, 0, 85, 64
2, 99840, Note_on_c, 0, 87, 66
2, 100320, Note_off_c, 0, 87, 64
2, 100320, Note_on_c, 0, 85, 71
2, 100560, Note_off_c, 0, 85, 64
2, 100560, Note_on_c, 0, 87, 74
2, 100800, Note_off_c, 0, 87, 64
2, 100800, Note_on_c, 0, 89, 76
2, 101040, Note_off_c, 0, 89, 64
2, 101040, Note_on_c, 0, 87, 73
2, 101280, Note_off_c, 0, 87, 64
2, 101280, Note_on_c, 0, 85, 71
2, 101520, Note_off_c, 0, 85, 64
2, 101520, Note_on_c, 0, 84, 69
2, 101760, Note_off_c, 0, 84, 64
2, 101760, Note_on_c, 0, 85, 67
2, 102000, Note_off_c, 0, 85, 64
2, 102000, Note_on_c, 0, 84, 65
2, 102240, Note_off_c, 0, 84, 64
2, 102240, Note_on_c, 0, 82, 63
2, 102720, Note_off_c, 0, 82, 64
2, 103200, Note_on_c, 0, 84, 70
2, 104160, Note_off_c, 0, 84, 64
2, 104160, Note_on_c, 0, 82, 58
2, 104640, Note_off_c, 0, 82, 64
2, 104640, Note_on_c, 0, 84, 60
2, 105120, Note_off_c, 0, 84, 64
2, 105120, Note_on_c, 0, 82, 68
2, 105360, Note_off_c, 0, 82, 64
2, 105360, Note_on_c, 0, 84, 71
2, 105600, Note_off_c, 0, 84, 64
2, 105600, Note_on_c, 0, 85, 74
2, 105840, Note_off_c, 0, 85, 64
2, 105840, Note_on_c, 0, 84, 69
2, 106080, Note_off_c, 0, 84, 64
2, 106080, Note_on_c, 0, 82, 67
2, 106320, Note_off_c, 0, 82, 64
2, 106320, Note_on_c, 0, 80, 66
2, 106560, Note_off_c, 0, 80, 64
2, 106560, Note_on_c, 0, 82, 65
2, 106800, Note_off_c, 0, 82, 64
2, 106800, Note_on_c, 0, 80, 63
2, 107040, Note_off_c, 0, 80, 64
2, 107040, Note_on_c, 0, 79, 61
2, 108000, Note_off_c, 0, 79, 64
2, 108000, Note_on_c, 0, 77, 63
2, 108240, Note_off_c, 0, 77, 64
2, 108240, Note_on_c, 0, 79, 69
2, 108480, Note_off_c, 0, 79, 64
2, 108480, Note_on_c, 0, 80, 75
2, 108960, Note_off_c, 0, 80, 64
2, 108960, Note_on_c, 0, 79, 73
2, 109440, Note_off_c, 0, 79, 64
2, 109440, Note_on_c, 0, 77, 64
2, 111840, Note_off_c, 0, 77, 64
2, 111840, Note_on_c, 0, 75, 78
2, 112080, Note_off_c, 0, 75, 64
2, 112080, Note_on_c, 0, 73, 74
2, 112320, Note_off_c, 0, 73, 64
2, 112320, Note_on_c, 0, 72, 70
2, 114240, Note_off_c, 0, 72, 64
2, 114240, Note_on_c, 0, 73, 70
2, 115200, Note_off_c, 0, 73, 64
2, 115200, Note_on_c, 0, 72, 70
2, 116640, Note_off_c, 0, 72, 64
2, 116640, Note_on_c, 0, 71, 70
2, 116880, Note_off_c, 0, 71, 64
2, 116880, Note_on_c, 0, 72, 75
2, 117120, Note_off_c, 0, 72, 64
2, 117120, Note_on_c, 0, 74, 79
2, 117600, Note_off_c, 0, 74, 64
2, 117600, Note_on_c, 0, 72, 80
2, 117840, Note_off_c, 0, 72, 64
2, 117840, Note_on_c, 0, 74, 79
2, 118080, Note_off_c, 0, 74, 64
2, 118080, Note_on_c, 0, 76, 77
2, 119040, Note_off_c, 0, 76, 64
2, 119040, Note_on_c, 0, 60, 73
2, 119520, Note_off_c, 0, 60, 64
2, 119520, Note_on_c, 0, 62, 73
2, 120000, Note_off_c, 0, 62, 64
2, 120000, Note_on_c, 0, 64, 73
2, 121440, Note_off_c, 0, 64, 64
2, 121440, Note_on_c, 0, 65, 73
2, 121920, Note_off_c, 0, 65, 64
2, 121920, Note_on_c, 0, 64, 73
2, 122880, Note_off_c, 0, 64, 64
2, 122880, Note_on_c, 0, 65, 73
2, 123360, Note_off_c, 0, 65, 64
2, 123360, Note_on_c, 0, 67, 74
2, 124800, Note_off_c, 0, 67, 64
2, 124800, Note_on_c, 0, 65, 79
2, 125760, Note_off_c, 0, 65, 64
2, 125760, Note_on_c, 0, 64, 71
2, 126720, Note_off_c, 0, 64, 64
2, 126720, Note_on_c, 0, 60, 83
2, 127680, Note_off_c, 0, 60, 64
2, 127680, Note_on_c, 0, 59, 83
2, 128640, Note_off_c, 0, 59, 64
2, 128640, Note_on_c, 0, 64, 83
2, 131040, Note_off_c, 0, 64, 64
2, 131040, Note_on_c, 0, 62, 83
2, 132480, Note_off_c, 0, 62, 64
2, 132480, Note_on_c, 0, 64, 86
2, 132960, Note_off_c, 0, 64, 64
2, 132960, Note_on_c, 0, 69, 87
2, 133920, Note_off_c, 0, 69, 64
2, 133920, Note_on_c, 0, 67, 88
2, 134400, Note_off_c, 0, 67, 64
2, 134400, Note_on_c, 0, 66, 89
2, 135360, Note_off_c, 0, 66, 64
2, 135360, Note_on_c, 0, 64, 91
2, 136320, Note_off_c, 0, 64, 64
2, 136320, Note_on_c, 0, 66, 101
2, 137280, Note_off_c, 0, 66, 64
2, 137280, Note_on_c, 0, 60, 101
2, 138720, Note_off_c, 0, 60, 64
2, 138720, Note_on_c, 0, 62, 101
2, 139200, Note_off_c, 0, 62, 64
2, 139200, Note_on_c, 0, 63, 101
2, 140160, Note_off_c, 0, 63, 64
2, 140160, Note_on_c, 0, 62, 101
2, 141120, Note_off_c, 0, 62, 64
2, 141120, Note_on_c, 0, 63, 101
2, 144000, Note_off_c, 0, 63, 64
2, 144480, Note_on_c, 0, 67, 124
2, 145440, Note_off_c, 0, 67, 64
2, 145440, Note_on_c, 0, 65, 111
2, 145920, Note_off_c, 0, 65, 64
2, 145920, Note_on_c, 0, 67, 106
2, 146400, Note_off_c, 0, 67, 64
2, 146400, Note_on_c, 0, 65, 117
2, 146640, Note_off_c, 0, 65, 64
2, 146640, Note_on_c, 0, 67, 122
2, 146880, Note_off_c, 0, 67, 64
2, 146880, Note_on_c, 0, 68, 127
2, 147120, Note_off_c, 0, 68, 64
2, 147120, Note_on_c, 0, 67, 125
2, 147360, Note_off_c, 0, 67, 64
2, 147360, Note_on_c, 0, 65, 121
2, 147600, Note_off_c, 0, 65, 64
2, 147600, Note_on_c, 0, 63, 118
2, 147840, Note_off_c, 0, 63, 64
2, 147840, Note_on_c, 0, 65, 115
2, 148080, Note_off_c, 0, 65, 64
2, 148080, Note_on_c, 0, 63, 111
2, 148320, Note_off_c, 0, 63, 64
2, 148320, Note_on_c, 0, 65, 108
2, 148800, Note_off_c, 0, 65, 64
2, 149280, Note_on_c, 0, 65, 126
2, 150240, Note_off_c, 0, 65, 64
2, 150240, Note_on_c, 0, 63, 109
2, 150720, Note_off_c, 0, 63, 64
2, 150720, Note_on_c, 0, 65, 110
2, 151200, Note_off_c, 0, 65, 64
2, 151200, Note_on_c, 0, 63, 120
2, 151440, Note_off_c, 0, 63, 64
2, 151440, Note_on_c, 0, 65, 126
2, 151680, Note_off_c, 0, 65, 64
2, 151680, Note_on_c, 0, 67, 127
2, 151920, Note_off_c, 0, 67, 64
2, 151920, Note_on_c, 0, 65, 127
2, 152160, Note_off_c, 0, 65, 64
2, 152160, Note_on_c, 0, 63, 126
2, 152400, Note_off_c, 0, 63, 64
2, 152400, Note_on_c, 0, 62, 122
2, 152640, Note_off_c, 0, 62, 64
2, 152640, Note_on_c, 0, 63, 120
2, 152880, Note_off_c, 0, 63, 64
2, 152880, Note_on_c, 0, 62, 117
2, 153120, Note_off_c, 0, 62, 64
2, 153120, Note_on_c, 0, 60, 115
2, 153600, Note_off_c, 0, 60, 64
2, 153600, Note_on_c, 0, 61, 114
2, 154560, Note_off_c, 0, 61, 64
2, 154560, Note_on_c, 0, 59, 114
2, 155520, Note_off_c, 0, 59, 64
2, 155520, Note_on_c, 0, 61, 114
2, 156480, Note_off_c, 0, 61, 64
2, 156480, Note_on_c, 0, 59, 114
2, 157440, Note_off_c, 0, 59, 64
2, 157440, Note_on_c, 0, 61, 114
2, 158400, Note_off_c, 0, 61, 64
2, 158400, Note_on_c, 0, 62, 114
2, 159840, Note_off_c, 0, 62, 64
2, 159840, Note_on_c, 0, 60, 113
2, 161280, Note_off_c, 0, 60, 64
2, 161280, Note_on_c, 0, 58, 113
2, 162720, Note_off_c, 0, 58, 64
2, 162720, Note_on_c, 0, 57, 113
2, 163200, Note_off_c, 0, 57, 64
2, 163200, Note_on_c, 0, 56, 112
2, 164160, Note_off_c, 0, 56, 64
2, 164160, Note_on_c, 0, 55, 109
2, 166080, Note_off_c, 0, 55, 64
2, 166080, Note_on_c, 0, 56, 102
2, 166560, Note_off_c, 0, 56, 64
2, 166560, Note_on_c, 0, 55, 100
2, 167520, Note_off_c, 0, 55, 64
2, 167520, Note_on_c, 0, 53, 93
2, 167760, Note_off_c, 0, 53, 64
2, 167760, Note_on_c, 0, 55, 99
2, 168000, Note_off_c, 0, 55, 64
2, 168000, Note_on_c, 0, 56, 105
2, 168240, Note_off_c, 0, 56, 64
2, 168240, Note_on_c, 0, 55, 105
2, 168480, Note_off_c, 0, 55, 64
2, 168480, Note_on_c, 0, 53, 100
2, 168720, Note_off_c, 0, 53, 64
2, 168720, Note_on_c, 0, 55, 95
2, 168960, Note_off_c, 0, 55, 64
2, 168960, Note_on_c, 0, 51, 91
2, 169920, Note_off_c, 0, 51, 64
2, 169920, Note_on_c, 0, 49, 95
2, 171840, Note_off_c, 0, 49, 64
2, 176640, Control_c, 0, 121, 0
2, 176640, Control_c, 0, 0, 0
2, 176640, Note_on_c, 0, 72, 85
2, 176641, Control_c, 0, 93, 14
2, 176641, Control_c, 0, 91, 54
2, 177600, Note_off_c, 0, 72, 64
2, 177600, Note_on_c, 0, 70, 85
2, 178080, Note_off_c, 0, 70, 64
2, 178080, Note_on_c, 0, 74, 85
2, 178560, Note_off_c, 0, 74, 64
2, 178560, Note_on_c, 0, 72, 85
2, 180000, Note_off_c, 0, 72, 64
2, 180000, Note_on_c, 0, 72, 85
2, 180480, Note_off_c, 0, 72, 64
2, 180480, Note_on_c, 0, 77, 85
2, 181440, Note_off_c, 0, 77, 64
2, 181440, Note_on_c, 0, 75, 85
2, 181920, Note_off_c, 0, 75, 64
2, 181920, Note_on_c, 0, 74, 85
2, 182400, Note_off_c, 0, 74, 64
2, 182400, Note_on_c, 0, 75, 83
2, 182880, Note_off_c, 0, 75, 64
2, 182880, Note_on_c, 0, 72, 83
2, 183360, Note_off_c, 0, 72, 64
2, 183360, Note_on_c, 0, 74, 83
2, 183840, Note_off_c, 0, 74, 64
2, 183840, Note_on_c, 0, 72, 83
2, 184320, Note_off_c, 0, 72, 64
2, 192480, Note_on_c, 0, 68, 103
2, 193440, Note_off_c, 0, 68, 64
2, 193440, Note_on_c, 0, 66, 89
2, 193920, Note_off_c, 0, 66, 64
2, 193920, Note_on_c, 0, 68, 79
2, 194400, Note_off_c, 0, 68, 64
2, 194400, Note_on_c, 0, 70, 90
2, 194640, Note_off_c, 0, 70, 64
2, 194640, Note_on_c, 0, 72, 95
2, 194880, Note_off_c, 0, 72, 64
2, 194880, Note_on_c, 0, 73, 102
2, 195120, Note_off_c, 0, 73, 64
2, 195120, Note_on_c, 0, 75, 95
2, 195360, Note_off_c, 0, 75, 64
2, 195360, Note_on_c, 0, 73, 93
2, 195600, Note_off_c, 0, 73, 64
2, 195600, Note_on_c, 0, 72, 90
2, 195840, Note_off_c, 0, 72, 64
2, 195840, Note_on_c, 0, 73, 88
2, 196320, Note_off_c, 0, 73, 64
2, 196320, Note_on_c, 0, 72, 82
2, 196560, Note_off_c, 0, 72, 64
2, 196560, Note_on_c, 0, 70, 79
2, 196800, Note_off_c, 0, 70, 64
2, 197280, Note_on_c, 0, 68, 85
2, 198240, Note_off_c, 0, 68, 64
2, 198240, Note_on_c, 0, 66, 78
2, 198720, Note_off_c, 0, 66, 64
2, 198720, Note_on_c, 0, 66, 75
2, 199200, Note_off_c, 0, 66, 64
2, 199200, Note_on_c, 0, 65, 82
2, 199440, Note_off_c, 0, 65, 64
2, 199440, Note_on_c, 0, 66, 85
2, 199680, Note_off_c, 0, 66, 64
2, 199680, Note_on_c, 0, 68, 89
2, 199920, Note_off_c, 0, 68, 64
2, 199920, Note_on_c, 0, 66, 86
2, 200160, Note_off_c, 0, 66, 64
2, 200160, Note_on_c, 0, 65, 82
2, 200400, Note_off_c, 0, 65, 64
2, 200400, Note_on_c, 0, 63, 80
2, 200640, Note_off_c, 0, 63, 64
2, 200640, Note_on_c, 0, 65, 76
2, 200880, Note_off_c, 0, 65, 64
2, 200880, Note_on_c, 0, 63, 72
2, 201120, Note_off_c, 0, 63, 64
2, 201120, Note_on_c, 0, 65, 69
2, 201600, Note_off_c, 0, 65, 64
2, 201600, Note_on_c, 0, 63, 62
2, 202080, Note_off_c, 0, 63, 64
2, 202080, Note_on_c, 0, 62, 74
2, 202320, Note_off_c, 0, 62, 64
2, 202320, Note_on_c, 0, 63, 81
2, 202560, Note_off_c, 0, 63, 64
2, 202560, Note_on_c, 0, 65, 86
2, 202800, Note_off_c, 0, 65, 64
2, 202800, Note_on_c, 0, 63, 84
2, 203040, Note_off_c, 0, 63, 64
2, 203040, Note_on_c, 0, 62, 81
2, 203280, Note_off_c, 0, 62, 64
2, 203280, Note_on_c, 0, 67, 77
2, 203520, Note_off_c, 0, 67, 64
2, 203520, Note_on_c, 0, 73, 76
2, 204480, Note_off_c, 0, 73, 64
2, 204480, Note_on_c, 0, 72, 75
2, 204960, Note_off_c, 0, 72, 64
2, 204960, Note_on_c, 0, 75, 75
2, 205440, Note_off_c, 0, 75, 64
2, 205440, Note_on_c, 0, 73, 82
2, 206880, Note_off_c, 0, 73, 64
2, 206880, Note_on_c, 0, 73, 82
2, 207360, Note_off_c, 0, 73, 64
2, 207360, Note_on_c, 0, 78, 82
2, 208320, Note_off_c, 0, 78, 64
2, 208320, Note_on_c, 0, 77, 82
2, 208800, Note_off_c, 0, 77, 64
2, 208800, Note_on_c, 0, 75, 82
2, 209280, Note_off_c, 0, 75, 64
2, 209280, Note_on_c, 0, 77, 82
2, 209760, Note_off_c, 0, 77, 64
2, 209760, Note_on_c, 0, 73, 82
2, 210240, Note_off_c, 0, 73, 64
2, 210240, Note_on_c, 0, 75, 82
2, 210720, Note_off_c, 0, 75, 64
2, 210720, Note_on_c, 0, 73, 82
2, 211200, Note_off_c, 0, 73, 64
2, 211200, Note_on_c, 0, 72, 79
2, 212400, Note_off_c, 0, 72, 64
2, 212400, Note_on_c, 0, 75, 79
2, 212640, Note_off_c, 0, 75, 64
2, 212640, Note_on_c, 0, 73, 79
2, 212880, Note_off_c, 0, 73, 64
2, 212880, Note_on_c, 0, 75, 78
2, 213120, Note_off_c, 0, 75, 64
2, 213120, Note_on_c, 0, 72, 78
2, 214320, Note_off_c, 0, 72, 64
2, 214320, Note_on_c, 0, 75, 78
2, 214560, Note_off_c, 0, 75, 64
2, 214560, Note_on_c, 0, 73, 78
2, 214800, Note_off_c, 0, 73, 64
2, 214800, Note_on_c, 0, 75, 78
2, 215040, Note_off_c, 0, 75, 64
2, 215040, Note_on_c, 0, 72, 78
2, 216000, Note_off_c, 0, 72, 64
2, 216000, Note_on_c, 0, 70, 78
2, 216480, Note_off_c, 0, 70, 64
2, 216480, Note_on_c, 0, 68, 78
2, 216960, Note_off_c, 0, 68, 64
2, 216960, Note_on_c, 0, 67, 78
2, 217440, Note_off_c, 0, 67, 64
2, 217440, Note_on_c, 0, 65, 79
2, 217920, Note_off_c, 0, 65, 64
2, 217920, Note_on_c, 0, 67, 80
2, 218400, Note_off_c, 0, 67, 64
2, 218400, Note_on_c, 0, 60, 81
2, 218880, Note_off_c, 0, 60, 64
2, 218880, Note_on_c, 0, 70, 72
2, 219360, Note_off_c, 0, 70, 64
2, 219360, Note_on_c, 0, 68, 78
2, 219600, Note_off_c, 0, 68, 64
2, 219600, Note_on_c, 0, 70, 80
2, 219840, Note_off_c, 0, 70, 64
2, 219840, Note_on_c, 0, 72, 83
2, 220080, Note_off_c, 0, 72, 64
2, 220080, Note_on_c, 0, 70, 81
2, 220320, Note_off_c, 0, 70, 64
2, 220320, Note_on_c, 0, 68, 77
2, 220800, Note_off_c, 0, 68, 64
2, 220800, Note_on_c, 0, 70, 72
2, 221040, Note_off_c, 0, 70, 64
2, 221040, Note_on_c, 0, 68, 78
2, 221280, Note_off_c, 0, 68, 64
2, 221280, Note_on_c, 0, 70, 84
2, 221520, Note_off_c, 0, 70, 64
2, 221520, Note_on_c, 0, 72, 79
2, 221760, Note_off_c, 0, 72, 64
2, 221760, Note_on_c, 0, 70, 73
2, 222960, Note_off_c, 0, 70, 64
2, 222960, Note_on_c, 0, 68, 76
2, 223200, Note_off_c, 0, 68, 64
2, 223200, Note_on_c, 0, 67, 72
2, 223440, Note_off_c, 0, 67, 64
2, 223440, Note_on_c, 0, 65, 67
2, 223680, Note_off_c, 0, 65, 64
2, 223680, Note_on_c, 0, 67, 62
2, 224880, Note_off_c, 0, 67, 64
2, 249120, Note_on_c, 0, 67, 68
2, 250080, Note_off_c, 0, 67, 64
2, 250080, Note_on_c, 0, 65, 68
2, 250560, Note_off_c, 0, 65, 64
2, 250560, Note_on_c, 0, 67, 68
2, 251040, Note_off_c, 0, 67, 64
2, 251040, Note_on_c, 0, 65, 68
2, 251280, Note_off_c, 0, 65, 64
2, 251280, Note_on_c, 0, 67, 68
2, 251520, Note_off_c, 0, 67, 64
2, 251520, Note_on_c, 0, 69, 68
2, 251760, Note_off_c, 0, 69, 64
2, 251760, Note_on_c, 0, 67, 68
2, 252000, Note_off_c, 0, 67, 64
2, 252000, Note_on_c, 0, 65, 68
2, 252240, Note_off_c, 0, 65, 64
2, 252240, Note_on_c, 0, 64, 68
2, 252480, Note_off_c, 0, 64, 64
2, 252480, Note_on_c, 0, 65, 68
2, 252720, Note_off_c, 0, 65, 64
2, 252720, Note_on_c, 0, 60, 68
2, 252960, Note_off_c, 0, 60, 64
2, 252960, Note_on_c, 0, 67, 68
2, 253440, Note_off_c, 0, 67, 64
2, 253920, Note_on_c, 0, 67, 68
2, 254880, Note_off_c, 0, 67, 64
2, 254880, Note_on_c, 0, 65, 68
2, 255360, Note_off_c, 0, 65, 64
2, 255360, Note_on_c, 0, 67, 68
2, 255840, Note_off_c, 0, 67, 64
2, 255840, Note_on_c, 0, 65, 68
2, 256080, Note_off_c, 0, 65, 64
2, 256080, Note_on_c, 0, 67, 68
2, 256320, Note_off_c, 0, 67, 64
2, 256320, Note_on_c, 0, 69, 68
2, 256560, Note_off_c, 0, 69, 64
2, 256560, Note_on_c, 0, 67, 68
2, 256800, Note_off_c, 0, 67, 64
2, 256800, Note_on_c, 0, 65, 68
2, 257040, Note_off_c, 0, 65, 64
2, 257040, Note_on_c, 0, 64, 68
2, 257280, Note_off_c, 0, 64, 64
2, 257280, Note_on_c, 0, 65, 68
2, 257520, Note_off_c, 0, 65, 64
2, 257520, Note_on_c, 0, 60, 68
2, 257760, Note_off_c, 0, 60, 64
2, 257760, Note_on_c, 0, 67, 68
2, 258240, Note_off_c, 0, 67, 64
2, 258720, Note_on_c, 0, 67, 68
2, 259680, Note_off_c, 0, 67, 64
2, 259680, Note_on_c, 0, 65, 68
2, 259920, Note_off_c, 0, 65, 64
2, 259920, Note_on_c, 0, 69, 68
2, 260160, Note_off_c, 0, 69, 64
2, 260160, Note_on_c, 0, 67, 68
2, 260640, Note_off_c, 0, 67, 64
2, 260640, Note_on_c, 0, 65, 67
2, 260880, Note_off_c, 0, 65, 64
2, 260880, Note_on_c, 0, 69, 67
2, 261120, Note_off_c, 0, 69, 64
2, 261120, Note_on_c, 0, 67, 66
2, 261360, Note_off_c, 0, 67, 64
2, 261360, Note_on_c, 0, 65, 65
2, 261600, Note_off_c, 0, 65, 64
2, 261600, Note_on_c, 0, 64, 65
2, 261840, Note_off_c, 0, 64, 64
2, 261840, Note_on_c, 0, 62, 64
2, 262080, Note_off_c, 0, 62, 64
2, 262080, Note_on_c, 0, 64, 63
2, 262560, Note_off_c, 0, 64, 64
2, 262560, Note_on_c, 0, 62, 61
2, 262800, Note_off_c, 0, 62, 64
2, 262800, Note_on_c, 0, 65, 61
2, 263040, Note_off_c, 0, 65, 64
2, 263040, Note_on_c, 0, 64, 60
2, 265916, Control_c, 0, 91, 0
2, 265916, Control_c, 0, 93, 0
2, 265918, Control_c, 0, 121, 0
2, 265920, Note_off_c, 0, 64, 64
2, 265920, End_track
3, 0, Start_track
3, 0, Title_t, "alt"
3, 0, MIDI_port, 0
3, 0, Channel_prefix, 1
3, 0, Control_c, 1, 7, 127
3, 0, Control_c, 1, 10, 66
3, 0, Program_c, 1, 0
3, 7680, Control_c, 1, 121, 0
3, 7680, Control_c, 1, 0, 0
3, 7680, Note_on_c, 1, 67, 74
3, 7681, Control_c, 1, 91, 54
3, 7681, Control_c, 1, 93, 14
3, 8640, Note_off_c, 1, 67, 64
3, 8640, Note_on_c, 1, 65, 74
3, 9120, Note_off_c, 1, 65, 64
3, 9120, Note_on_c, 1, 69, 74
3, 9600, Note_off_c, 1, 69, 64
3, 9600, Note_on_c, 1, 67, 74
3, 11040, Note_off_c, 1, 67, 64
3, 11040, Note_on_c, 1, 67, 74
3, 11520, Note_off_c, 1, 67, 64
3, 11520, Note_on_c, 1, 72, 74
3, 12480, Note_off_c, 1, 72, 64
3, 12480, Note_on_c, 1, 70, 74
3, 12960, Note_off_c, 1, 70, 64
3, 12960, Note_on_c, 1, 69, 74
3, 13440, Note_off_c, 1, 69, 64
3, 13440, Note_on_c, 1, 70, 74
3, 13920, Note_off_c, 1, 70, 64
3, 13920, Note_on_c, 1, 67, 74
3, 14400, Note_off_c, 1, 67, 64
3, 14400, Note_on_c, 1, 68, 74
3, 14880, Note_off_c, 1, 68, 64
3, 14880, Note_on_c, 1, 67, 74
3, 15360, Note_off_c, 1, 67, 64
3, 15840, Note_on_c, 1, 63, 77
3, 16800, Note_off_c, 1, 63, 64
3, 16800, Note_on_c, 1, 62, 64
3, 17280, Note_off_c, 1, 62, 64
3, 17280, Note_on_c, 1, 63, 66
3, 17760, Note_off_c, 1, 63, 64
3, 17760, Note_on_c, 1, 62, 73
3, 18000, Note_off_c, 1, 62, 64
3, 18000, Note_on_c, 1, 63, 76
3, 18240, Note_off_c, 1, 63, 64
3, 18240, Note_on_c, 1, 65, 80
3, 18480, Note_off_c, 1, 65, 64
3, 18480, Note_on_c, 1, 63, 77
3, 18720, Note_off_c, 1, 63, 64
3, 18720, Note_on_c, 1, 62, 75
3, 18960, Note_off_c, 1, 62, 64
3, 18960, Note_on_c, 1, 60, 74
3, 19200, Note_off_c, 1, 60, 64
3, 19200, Note_on_c, 1, 62, 72
3, 19440, Note_off_c, 1, 62, 64
3, 19440, Note_on_c, 1, 60, 70
3, 19680, Note_off_c, 1, 60, 64
3, 19680, Note_on_c, 1, 58, 68
3, 20160, Note_off_c, 1, 58, 64
3, 20640, Note_on_c, 1, 65, 77
3, 21600, Note_off_c, 1, 65, 64
3, 21600, Note_on_c, 1, 63, 64
3, 22080, Note_off_c, 1, 63, 64
3, 22080, Note_on_c, 1, 65, 69
3, 22560, Note_off_c, 1, 65, 64
3, 22560, Note_on_c, 1, 63, 75
3, 22800, Note_off_c, 1, 63, 64
3, 22800, Note_on_c, 1, 65, 78
3, 23040, Note_off_c, 1, 65, 64
3, 23040, Note_on_c, 1, 67, 81
3, 23280, Note_off_c, 1, 67, 64
3, 23280, Note_on_c, 1, 65, 81
3, 23520, Note_off_c, 1, 65, 64
3, 23520, Note_on_c, 1, 63, 79
3, 23760, Note_off_c, 1, 63, 64
3, 23760, Note_on_c, 1, 62, 76
3, 24000, Note_off_c, 1, 62, 64
3, 24000, Note_on_c, 1, 63, 74
3, 24240, Note_off_c, 1, 63, 64
3, 24240, Note_on_c, 1, 62, 72
3, 24480, Note_off_c, 1, 62, 64
3, 24480, Note_on_c, 1, 60, 70
3, 24960, Note_off_c, 1, 60, 64
3, 24960, Note_on_c, 1, 63, 67
3, 25440, Note_off_c, 1, 63, 64
3, 25440, Note_on_c, 1, 65, 67
3, 25920, Note_off_c, 1, 65, 64
3, 25920, Note_on_c, 1, 67, 67
3, 27360, Note_off_c, 1, 67, 64
3, 27360, Note_on_c, 1, 68, 67
3, 27840, Note_off_c, 1, 68, 64
3, 27840, Note_on_c, 1, 67, 67
3, 28800, Note_off_c, 1, 67, 64
3, 28800, Note_on_c, 1, 68, 67
3, 29280, Note_off_c, 1, 68, 64
3, 29280, Note_on_c, 1, 70, 67
3, 30720, Note_off_c, 1, 70, 64
3, 30720, Note_on_c, 1, 68, 67
3, 31680, Note_off_c, 1, 68, 64
3, 31680, Note_on_c, 1, 67, 67
3, 33600, Note_off_c, 1, 67, 64
3, 33600, Note_on_c, 1, 69, 67
3, 34560, Note_off_c, 1, 69, 64
3, 34560, Note_on_c, 1, 70, 67
3, 36960, Note_off_c, 1, 70, 64
3, 36960, Note_on_c, 1, 69, 67
3, 37440, Note_off_c, 1, 69, 64
3, 37440, Note_on_c, 1, 70, 67
3, 38400, Note_off_c, 1, 70, 64
3, 38400, Note_on_c, 1, 67, 67
3, 38880, Note_off_c, 1, 67, 64
3, 38880, Note_on_c, 1, 72, 67
3, 39840, Note_off_c, 1, 72, 64
3, 39840, Note_on_c, 1, 70, 67
3, 40320, Note_off_c, 1, 70, 64
3, 40320, Note_on_c, 1, 68, 65
3, 41280, Note_off_c, 1, 68, 64
3, 41280, Note_on_c, 1, 67, 65
3, 41760, Note_off_c, 1, 67, 64
3, 41760, Note_on_c, 1, 65, 65
3, 42240, Note_off_c, 1, 65, 64
3, 42240, Note_on_c, 1, 63, 65
3, 44640, Note_off_c, 1, 63, 64
3, 44640, Note_on_c, 1, 62, 65
3, 45120, Note_off_c, 1, 62, 64
3, 45120, Note_on_c, 1, 67, 65
3, 46080, Note_off_c, 1, 67, 64
3, 46080, Note_on_c, 1, 65, 65
3, 46560, Note_off_c, 1, 65, 64
3, 46560, Note_on_c, 1, 63, 65
3, 47040, Note_off_c, 1, 63, 64
3, 47040, Note_on_c, 1, 62, 74
3, 49440, Note_off_c, 1, 62, 64
3, 49440, Note_on_c, 1, 60, 70
3, 49920, Note_off_c, 1, 60, 64
3, 50400, Note_on_c, 1, 67, 80
3, 51840, Note_off_c, 1, 67, 64
3, 59520, Note_on_c, 1, 58, 64
3, 60480, Note_off_c, 1, 58, 64
3, 60480, Note_on_c, 1, 60, 64
3, 61440, Note_off_c, 1, 60, 64
3, 61440, Note_on_c, 1, 62, 64
3, 63840, Note_off_c, 1, 62, 64
3, 63840, Note_on_c, 1, 60, 64
3, 64320, Note_off_c, 1, 60, 64
3, 64320, Note_on_c, 1, 61, 64
3, 65280, Note_off_c, 1, 61, 64
3, 65280, Note_on_c, 1, 66, 64
3, 66240, Note_off_c, 1, 66, 64
3, 66240, Note_on_c, 1, 68, 64
3, 66720, Note_off_c, 1, 68, 64
3, 66720, Note_on_c, 1, 70, 64
3, 68160, Note_off_c, 1, 70, 64
3, 68160, Note_on_c, 1, 68, 66
3, 70560, Note_off_c, 1, 68, 64
3, 70560, Note_on_c, 1, 67, 66
3, 71040, Note_off_c, 1, 67, 64
3, 71040, Note_on_c, 1, 65, 66
3, 71520, Note_off_c, 1, 65, 64
3, 71520, Note_on_c, 1, 63, 66
3, 72000, Note_off_c, 1, 63, 64
3, 72000, Note_on_c, 1, 72, 66
3, 72960, Note_off_c, 1, 72, 64
3, 72960, Note_on_c, 1, 70, 71
3, 75360, Note_off_c, 1, 70, 64
3, 75360, Note_on_c, 1, 68, 84
3, 75840, Note_off_c, 1, 68, 64
3, 75840, Note_on_c, 1, 67, 87
3, 76320, Note_off_c, 1, 67, 64
3, 76320, Note_on_c, 1, 65, 89
3, 76800, Note_off_c, 1, 65, 64
3, 77760, Note_on_c, 1, 67, 93
3, 78240, Note_off_c, 1, 67, 64
3, 78240, Note_on_c, 1, 65, 98
3, 78480, Note_off_c, 1, 65, 64
3, 78480, Note_on_c, 1, 67, 101
3, 78720, Note_off_c, 1, 67, 64
3, 78720, Note_on_c, 1, 68, 106
3, 78960, Note_off_c, 1, 68, 64
3, 78960, Note_on_c, 1, 67, 99
3, 79200, Note_off_c, 1, 67, 64
3, 79200, Note_on_c, 1, 65, 93
3, 79680, Note_off_c, 1, 65, 64
3, 79680, Note_on_c, 1, 63, 104
3, 81120, Note_off_c, 1, 63, 64
3, 81120, Note_on_c, 1, 65, 70
3, 81600, Note_off_c, 1, 65, 64
3, 81600, Note_on_c, 1, 67, 68
3, 82080, Note_off_c, 1, 67, 64
3, 82080, Note_on_c, 1, 68, 20
3, 82560, Note_off_c, 1, 68, 64
3, 82560, Note_on_c, 1, 72, 61
3, 83040, Note_off_c, 1, 72, 64
3, 83040, Note_on_c, 1, 73, 61
3, 83520, Note_off_c, 1, 73, 64
3, 83520, Note_on_c, 1, 75, 52
3, 84960, Note_off_c, 1, 75, 64
3, 84960, Note_on_c, 1, 77, 67
3, 85440, Note_off_c, 1, 77, 64
3, 85440, Note_on_c, 1, 75, 67
3, 86400, Note_off_c, 1, 75, 64
3, 86400, Note_on_c, 1, 77, 67
3, 86880, Note_off_c, 1, 77, 64
3, 86880, Note_on_c, 1, 78, 67
3, 88320, Note_off_c, 1, 78, 64
3, 88320, Note_on_c, 1, 77, 67
3, 89280, Note_off_c, 1, 77, 64
3, 89280, Note_on_c, 1, 75, 67
3, 90240, Note_off_c, 1, 75, 64
3, 90240, Note_on_c, 1, 77, 65
3, 90720, Note_off_c, 1, 77, 64
3, 90720, Note_on_c, 1, 78, 66
3, 91200, Note_off_c, 1, 78, 64
3, 91200, Note_on_c, 1, 80, 67
3, 92640, Note_off_c, 1, 80, 64
3, 92640, Note_on_c, 1, 82, 71
3, 93120, Note_off_c, 1, 82, 64
3, 93120, Note_on_c, 1, 80, 72
3, 94080, Note_off_c, 1, 80, 64
3, 94080, Note_on_c, 1, 82, 75
3, 94560, Note_off_c, 1, 82, 64
3, 94560, Note_on_c, 1, 80, 74
3, 96000, Note_off_c, 1, 80, 64
3, 96000, Note_on_c, 1, 82, 70
3, 96960, Note_off_c, 1, 82, 64
3, 96960, Note_on_c, 1, 80, 68
3, 97920, Note_off_c, 1, 80, 64
3, 97920, Note_on_c, 1, 80, 67
3, 98880, Note_off_c, 1, 80, 64
3, 98880, Note_on_c, 1, 80, 61
3, 99840, Note_off_c, 1, 80, 64
3, 99840, Note_on_c, 1, 80, 61
3, 101280, Note_off_c, 1, 80, 64
3, 101280, Note_on_c, 1, 79, 61
3, 101760, Note_off_c, 1, 79, 64
3, 101760, Note_on_c, 1, 77, 61
3, 103680, Note_off_c, 1, 77, 64
3, 103680, Note_on_c, 1, 77, 61
3, 104640, Note_off_c, 1, 77, 64
3, 104640, Note_on_c, 1, 77, 61
3, 106080, Note_off_c, 1, 77, 64
3, 106080, Note_on_c, 1, 75, 61
3, 106560, Note_off_c, 1, 75, 64
3, 106560, Note_on_c, 1, 73, 66
3, 107520, Note_off_c, 1, 73, 64
3, 107520, Note_on_c, 1, 72, 66
3, 108480, Note_off_c, 1, 72, 64
3, 108480, Note_on_c, 1, 72, 66
3, 108960, Note_off_c, 1, 72, 64
3, 108960, Note_on_c, 1, 72, 66
3, 109920, Note_off_c, 1, 72, 64
3, 109920, Note_on_c, 1, 70, 61
3, 110160, Note_off_c, 1, 70, 64
3, 110160, Note_on_c, 1, 72, 75
3, 110400, Note_off_c, 1, 72, 64
3, 110400, Note_on_c, 1, 73, 93
3, 110880, Note_off_c, 1, 73, 64
3, 110880, Note_on_c, 1, 72, 80
3, 111360, Note_off_c, 1, 72, 64
3, 111360, Note_on_c, 1, 70, 71
3, 112800, Note_off_c, 1, 70, 64
3, 112800, Note_on_c, 1, 69, 70
3, 113760, Note_off_c, 1, 69, 64
3, 113760, Note_on_c, 1, 67, 70
3, 114000, Note_off_c, 1, 67, 64
3, 114000, Note_on_c, 1, 69, 77
3, 114240, Note_off_c, 1, 69, 64
3, 114240, Note_on_c, 1, 70, 83
3, 114720, Note_off_c, 1, 70, 64
3, 114720, Note_on_c, 1, 69, 77
3, 114960, Note_off_c, 1, 69, 64
3, 114960, Note_on_c, 1, 67, 74
3, 115200, Note_off_c, 1, 67, 64
3, 115200, Note_on_c, 1, 69, 71
3, 116160, Note_off_c, 1, 69, 64
3, 116160, Note_on_c, 1, 57, 70
3, 118080, Note_off_c, 1, 57, 64
3, 118080, Note_on_c, 1, 59, 84
3, 118560, Note_off_c, 1, 59, 64
3, 118560, Note_on_c, 1, 60, 78
3, 118800, Note_off_c, 1, 60, 64
3, 118800, Note_on_c, 1, 59, 74
3, 119040, Note_off_c, 1, 59, 64
3, 119040, Control_c, 1, 121, 0
3, 119040, Control_c, 1, 0, 0
3, 119040, Note_on_c, 1, 57, 108
3, 119041, Control_c, 1, 93, 14
3, 119041, Control_c, 1, 91, 54
3, 120000, Note_off_c, 1, 57, 64
3, 120000, Note_on_c, 1, 55, 91
3, 120480, Note_off_c, 1, 55, 64
3, 120480, Note_on_c, 1, 59, 91
3, 120960, Note_off_c, 1, 59, 64
3, 120960, Note_on_c, 1, 57, 91
3, 122400, Note_off_c, 1, 57, 64
3, 122400, Note_on_c, 1, 57, 92
3, 122880, Note_off_c, 1, 57, 64
3, 122880, Note_on_c, 1, 62, 93
3, 123840, Note_off_c, 1, 62, 64
3, 123840, Note_on_c, 1, 60, 90
3, 124320, Note_off_c, 1, 60, 64
3, 124320, Note_on_c, 1, 59, 91
3, 124800, Note_off_c, 1, 59, 64
3, 124800, Note_on_c, 1, 60, 94
3, 125280, Note_off_c, 1, 60, 64
3, 125280, Note_on_c, 1, 57, 86
3, 125760, Note_off_c, 1, 57, 64
3, 125760, Note_on_c, 1, 59, 82
3, 126240, Note_off_c, 1, 59, 64
3, 126240, Note_on_c, 1, 57, 78
3, 126720, Note_off_c, 1, 57, 64
3, 126720, Note_on_c, 1, 55, 83
3, 127200, Note_off_c, 1, 55, 64
3, 127200, Note_on_c, 1, 57, 83
3, 127680, Note_off_c, 1, 57, 64
3, 127680, Note_on_c, 1, 59, 83
3, 129120, Note_off_c, 1, 59, 64
3, 129120, Note_on_c, 1, 60, 83
3, 129600, Note_off_c, 1, 60, 64
3, 129600, Note_on_c, 1, 59, 83
3, 130560, Note_off_c, 1, 59, 64
3, 130560, Note_on_c, 1, 60, 75
3, 131040, Note_off_c, 1, 60, 64
3, 131040, Note_on_c, 1, 62, 73
3, 131520, Note_off_c, 1, 62, 64
3, 131520, Note_on_c, 1, 59, 71
3, 132480, Note_off_c, 1, 59, 64
3, 132480, Note_on_c, 1, 60, 86
3, 133440, Note_off_c, 1, 60, 64
3, 133440, Note_on_c, 1, 59, 88
3, 134400, Note_off_c, 1, 59, 64
3, 134400, Note_on_c, 1, 59, 89
3, 136320, Note_off_c, 1, 59, 64
3, 136320, Note_on_c, 1, 59, 101
3, 137280, Note_off_c, 1, 59, 64
3, 137280, Note_on_c, 1, 57, 101
3, 138720, Note_off_c, 1, 57, 64
3, 138720, Note_on_c, 1, 59, 101
3, 139200, Note_off_c, 1, 59, 64
3, 139200, Note_on_c, 1, 59, 101
3, 140160, Note_off_c, 1, 59, 64
3, 140160, Note_on_c, 1, 58, 101
3, 141120, Note_off_c, 1, 58, 64
3, 141120, Note_on_c, 1, 59, 101
3, 144000, Note_off_c, 1, 59, 64
3, 144960, Note_on_c, 1, 63, 124
3, 145920, Note_off_c, 1, 63, 64
3, 145920, Note_on_c, 1, 62, 124
3, 146880, Note_off_c, 1, 62, 64
3, 146880, Note_on_c, 1, 61, 124
3, 148800, Note_off_c, 1, 61, 64
3, 149760, Note_on_c, 1, 61, 124
3, 150720, Note_off_c, 1, 61, 64
3, 150720, Note_on_c, 1, 60, 124
3, 151680, Note_off_c, 1, 60, 64
3, 151680, Note_on_c, 1, 58, 124
3, 153600, Note_off_c, 1, 58, 64
3, 153600, Note_on_c, 1, 57, 114
3, 155520, Note_off_c, 1, 57, 64
3, 155520, Note_on_c, 1, 57, 114
3, 158400, Note_off_c, 1, 57, 64
3, 158400, Note_on_c, 1, 59, 114
3, 159840, Note_off_c, 1, 59, 64
3, 159840, Note_on_c, 1, 57, 113
3, 161280, Note_off_c, 1, 57, 64
3, 161280, Note_on_c, 1, 55, 113
3, 162720, Note_off_c, 1, 55, 64
3, 162720, Note_on_c, 1, 54, 113
3, 163200, Note_off_c, 1, 54, 64
3, 163200, Note_on_c, 1, 53, 112
3, 166080, Note_off_c, 1, 53, 64
3, 166080, Note_on_c, 1, 53, 102
3, 167040, Note_off_c, 1, 53, 64
3, 167040, Note_on_c, 1, 51, 98
3, 168000, Note_off_c, 1, 51, 64
3, 168000, Note_on_c, 1, 49, 95
3, 168960, Note_off_c, 1, 49, 64
3, 168960, Note_on_c, 1, 48, 95
3, 169920, Note_off_c, 1, 48, 64
3, 169920, Note_on_c, 1, 46, 95
3, 171840, Note_off_c, 1, 46, 64
3, 171840, Note_on_c, 1, 48, 95
3, 175680, Note_off_c, 1, 48, 64
3, 176640, Note_on_c, 1, 65, 85
3, 178560, Note_off_c, 1, 65, 64
3, 178560, Note_on_c, 1, 63, 85
3, 179520, Note_off_c, 1, 63, 64
3, 179520, Note_on_c, 1, 67, 85
3, 180480, Note_off_c, 1, 67, 64
3, 180480, Note_on_c, 1, 65, 85
3, 183360, Note_off_c, 1, 65, 64
3, 183360, Note_on_c, 1, 65, 83
3, 184320, Note_off_c, 1, 65, 64
3, 184320, Note_on_c, 1, 70, 83
3, 186240, Note_off_c, 1, 70, 64
3, 186240, Note_on_c, 1, 68, 83
3, 187200, Note_off_c, 1, 68, 64
3, 187200, Note_on_c, 1, 67, 83
3, 188160, Note_off_c, 1, 67, 64
3, 188160, Note_on_c, 1, 68, 82
3, 189120, Note_off_c, 1, 68, 64
3, 189120, Note_on_c, 1, 65, 82
3, 190080, Note_off_c, 1, 65, 64
3, 190080, Note_on_c, 1, 67, 81
3, 191040, Note_off_c, 1, 67, 64
3, 191040, Note_on_c, 1, 65, 80
3, 192960, Note_off_c, 1, 65, 64
3, 192960, Note_on_c, 1, 63, 79
3, 193920, Note_off_c, 1, 63, 64
3, 193920, Note_on_c, 1, 65, 79
3, 194880, Note_off_c, 1, 65, 64
3, 194880, Note_on_c, 1, 66, 95
3, 196800, Note_off_c, 1, 66, 64
3, 196800, Note_on_c, 1, 65, 79
3, 197760, Note_off_c, 1, 65, 64
3, 197760, Note_on_c, 1, 63, 79
3, 199680, Note_off_c, 1, 63, 64
3, 199680, Note_on_c, 1, 61, 79
3, 201600, Note_off_c, 1, 61, 64
3, 201600, Note_on_c, 1, 60, 75
3, 203520, Note_off_c, 1, 60, 64
3, 203520, Note_on_c, 1, 65, 75
3, 203760, Note_off_c, 1, 65, 64
3, 203760, Note_on_c, 1, 63, 75
3, 204000, Note_off_c, 1, 63, 64
3, 204000, Note_on_c, 1, 65, 75
3, 204240, Note_off_c, 1, 65, 64
3, 204240, Note_on_c, 1, 67, 75
3, 204480, Note_off_c, 1, 67, 64
3, 204480, Note_on_c, 1, 68, 75
3, 204960, Note_off_c, 1, 68, 64
3, 204960, Note_on_c, 1, 68, 75
3, 205200, Note_off_c, 1, 68, 64
3, 205200, Note_on_c, 1, 67, 75
3, 205440, Note_off_c, 1, 67, 64
3, 205440, Note_on_c, 1, 65, 75
3, 205920, Note_off_c, 1, 65, 64
3, 205920, Note_on_c, 1, 67, 75
3, 206160, Note_off_c, 1, 67, 64
3, 206160, Note_on_c, 1, 68, 75
3, 206400, Note_off_c, 1, 68, 64
3, 206400, Note_on_c, 1, 70, 75
3, 206640, Note_off_c, 1, 70, 64
3, 206640, Note_on_c, 1, 68, 75
3, 206880, Note_off_c, 1, 68, 64
3, 206880, Note_on_c, 1, 73, 75
3, 207120, Note_off_c, 1, 73, 64
3, 207120, Note_on_c, 1, 72, 75
3, 207360, Note_off_c, 1, 72, 64
3, 207360, Note_on_c, 1, 70, 75
3, 207600, Note_off_c, 1, 70, 64
3, 207600, Note_on_c, 1, 68, 75
3, 207840, Note_off_c, 1, 68, 64
3, 207840, Note_on_c, 1, 70, 75
3, 208080, Note_off_c, 1, 70, 64
3, 208080, Note_on_c, 1, 72, 75
3, 208320, Note_off_c, 1, 72, 64
3, 208320, Note_on_c, 1, 73, 75
3, 208800, Note_off_c, 1, 73, 64
3, 208800, Note_on_c, 1, 72, 75
3, 209040, Note_off_c, 1, 72, 64
3, 209040, Note_on_c, 1, 70, 75
3, 209280, Note_off_c, 1, 70, 64
3, 209280, Note_on_c, 1, 68, 75
3, 212160, Note_off_c, 1, 68, 64
3, 212160, Note_on_c, 1, 67, 79
3, 212640, Note_off_c, 1, 67, 64
3, 212640, Note_on_c, 1, 70, 79
3, 213120, Note_off_c, 1, 70, 64
3, 213120, Note_on_c, 1, 68, 78
3, 214080, Note_off_c, 1, 68, 64
3, 214080, Note_on_c, 1, 67, 78
3, 214560, Note_off_c, 1, 67, 64
3, 214560, Note_on_c, 1, 70, 78
3, 215040, Note_off_c, 1, 70, 64
3, 215040, Note_on_c, 1, 68, 78
3, 216000, Note_off_c, 1, 68, 64
3, 216000, Note_on_c, 1, 67, 78
3, 216480, Note_off_c, 1, 67, 64
3, 216480, Note_on_c, 1, 65, 78
3, 216960, Note_off_c, 1, 65, 64
3, 216960, Note_on_c, 1, 63, 78
3, 218880, Note_off_c, 1, 63, 64
3, 218880, Note_on_c, 1, 61, 84
3, 219840, Note_off_c, 1, 61, 64
3, 219840, Note_on_c, 1, 65, 86
3, 220800, Note_off_c, 1, 65, 64
3, 220800, Note_on_c, 1, 63, 78
3, 221760, Note_off_c, 1, 63, 64
3, 221760, Note_on_c, 1, 61, 78
3, 222240, Note_off_c, 1, 61, 64
3, 222240, Note_on_c, 1, 65, 78
3, 222720, Note_off_c, 1, 65, 64
3, 222720, Note_on_c, 1, 63, 78
3, 224160, Note_off_c, 1, 63, 64
3, 224160, Note_on_c, 1, 63, 78
3, 224640, Note_off_c, 1, 63, 64
3, 224640, Note_on_c, 1, 68, 78
3, 225600, Note_off_c, 1, 68, 64
3, 225600, Note_on_c, 1, 67, 87
3, 226080, Note_off_c, 1, 67, 64
3, 226080, Note_on_c, 1, 65, 91
3, 226560, Note_off_c, 1, 65, 64
3, 226560, Note_on_c, 1, 67, 95
3, 227040, Note_off_c, 1, 67, 64
3, 227040, Note_on_c, 1, 63, 95
3, 227520, Note_off_c, 1, 63, 64
3, 227520, Note_on_c, 1, 65, 95
3, 228000, Note_off_c, 1, 65, 64
3, 228000, Note_on_c, 1, 63, 95
3, 228480, Note_off_c, 1, 63, 64
3, 228960, Note_on_c, 1, 61, 104
3, 229920, Note_off_c, 1, 61, 64
3, 229920, Note_on_c, 1, 60, 104
3, 230400, Note_off_c, 1, 60, 64
3, 230400, Note_on_c, 1, 61, 93
3, 230880, Note_off_c, 1, 61, 64
3, 230880, Note_on_c, 1, 60, 99
3, 231120, Note_off_c, 1, 60, 64
3, 231120, Note_on_c, 1, 61, 102
3, 231360, Note_off_c, 1, 61, 64
3, 231360, Note_on_c, 1, 63, 105
3, 231600, Note_off_c, 1, 63, 64
3, 231600, Note_on_c, 1, 61, 107
3, 231840, Note_off_c, 1, 61, 64
3, 231840, Note_on_c, 1, 60, 111
3, 232080, Note_off_c, 1, 60, 64
3, 232080, Note_on_c, 1, 58, 109
3, 232320, Note_off_c, 1, 58, 64
3, 232320, Note_on_c, 1, 60, 107
3, 232560, Note_off_c, 1, 60, 64
3, 232560, Note_on_c, 1, 58, 105
3, 232800, Note_off_c, 1, 58, 64
3, 232800, Note_on_c, 1, 56, 104
3, 233280, Note_off_c, 1, 56, 64
3, 233760, Note_on_c, 1, 56, 89
3, 234720, Note_off_c, 1, 56, 64
3, 234720, Note_on_c, 1, 55, 81
3, 235200, Note_off_c, 1, 55, 64
3, 235200, Note_on_c, 1, 56, 77
3, 235680, Note_off_c, 1, 56, 64
3, 235680, Note_on_c, 1, 55, 76
3, 235920, Note_off_c, 1, 55, 64
3, 235920, Note_on_c, 1, 56, 80
3, 236160, Note_off_c, 1, 56, 64
3, 236160, Note_on_c, 1, 58, 84
3, 236400, Note_off_c, 1, 58, 64
3, 236400, Note_on_c, 1, 56, 83
3, 236640, Note_off_c, 1, 56, 64
3, 236640, Note_on_c, 1, 55, 79
3, 236880, Note_off_c, 1, 55, 64
3, 236880, Note_on_c, 1, 53, 75
3, 237120, Note_off_c, 1, 53, 64
3, 237120, Note_on_c, 1, 55, 71
3, 238080, Note_off_c, 1, 55, 64
3, 238080, Note_on_c, 1, 55, 67
3, 239520, Note_off_c, 1, 55, 64
3, 239520, Note_on_c, 1, 53, 67
3, 239760, Note_off_c, 1, 53, 64
3, 239760, Note_on_c, 1, 55, 67
3, 240000, Note_off_c, 1, 55, 64
3, 240000, Note_on_c, 1, 56, 67
3, 240480, Note_off_c, 1, 56, 64
3, 240480, Note_on_c, 1, 53, 78
3, 240960, Control_c, 1, 121, 0
3, 240960, Control_c, 1, 0, 0
3, 240961, Control_c, 1, 93, 14
3, 240961, Control_c, 1, 91, 54
3, 241920, Note_off_c, 1, 53, 64
3, 241920, Note_on_c, 1, 51, 88
3, 242400, Note_off_c, 1, 51, 64
3, 242400, Note_on_c, 1, 54, 88
3, 242880, Note_off_c, 1, 54, 64
3, 242880, Note_on_c, 1, 53, 88
3, 244320, Note_off_c, 1, 53, 64
3, 244320, Note_on_c, 1, 53, 88
3, 244800, Note_off_c, 1, 53, 64
3, 244800, Note_on_c, 1, 58, 88
3, 245760, Note_off_c, 1, 58, 64
3, 245760, Note_on_c, 1, 56, 86
3, 246240, Note_off_c, 1, 56, 64
3, 246240, Note_on_c, 1, 54, 85
3, 246720, Note_off_c, 1, 54, 64
3, 246720, Note_on_c, 1, 56, 81
3, 247200, Note_off_c, 1, 56, 64
3, 247200, Note_on_c, 1, 53, 80
3, 247680, Note_off_c, 1, 53, 64
3, 247680, Note_on_c, 1, 54, 79
3, 248160, Note_off_c, 1, 54, 64
3, 248160, Note_on_c, 1, 53, 78
3, 248640, Note_off_c, 1, 53, 64
3, 248640, Note_on_c, 1, 52, 68
3, 249600, Note_off_c, 1, 52, 64
3, 249600, Note_on_c, 1, 50, 68
3, 250560, Note_off_c, 1, 50, 64
3, 250560, Note_on_c, 1, 52, 68
3, 251520, Note_off_c, 1, 52, 64
3, 251520, Note_on_c, 1, 50, 68
3, 253440, Note_off_c, 1, 50, 64
3, 253440, Note_on_c, 1, 52, 68
3, 254400, Note_off_c, 1, 52, 64
3, 254400, Note_on_c, 1, 50, 68
3, 255360, Note_off_c, 1, 50, 64
3, 255360, Note_on_c, 1, 52, 68
3, 256320, Note_off_c, 1, 52, 64
3, 256320, Note_on_c, 1, 50, 68
3, 258240, Note_off_c, 1, 50, 64
3, 258240, Note_on_c, 1, 52, 68
3, 259200, Note_off_c, 1, 52, 64
3, 259200, Note_on_c, 1, 50, 68
3, 260160, Note_off_c, 1, 50, 64
3, 260160, Note_on_c, 1, 52, 68
3, 260640, Note_off_c, 1, 52, 64
3, 260640, Note_on_c, 1, 50, 67
3, 261120, Note_off_c, 1, 50, 64
3, 261120, Note_on_c, 1, 52, 66
3, 261600, Note_off_c, 1, 52, 64
3, 261600, Note_on_c, 1, 53, 65
3, 262080, Note_off_c, 1, 53, 64
3, 262080, Note_on_c, 1, 55, 63
3, 265916, Control_c, 1, 91, 0
3, 265916, Control_c, 1, 93, 0
3, 265918, Control_c, 1, 121, 0
3, 265920, Note_off_c, 1, 55, 64
3, 265920, End_track
4, 0, Start_track
4, 0, Title_t, "ten"
4, 0, MIDI_port, 0
4, 0, Channel_prefix, 2
4, 0, Control_c, 2, 7, 127
4, 0, Control_c, 2, 10, 62
4, 0, Program_c, 2, 0
4, 0, Control_c, 2, 121, 0
4, 0, Control_c, 2, 0, 0
4, 0, Control_c, 2, 121, 0
4, 0, Control_c, 2, 0, 0
4, 1, Control_c, 2, 93, 14
4, 1, Control_c, 2, 91, 54
4, 1, Control_c, 2, 93, 14
4, 1, Control_c, 2, 91, 54
4, 5, Note_on_c, 2, 60, 71
4, 960, Note_on_c, 2, 58, 71
4, 965, Note_off_c, 2, 60, 64
4, 1440, Note_off_c, 2, 58, 64
4, 1440, Note_on_c, 2, 62, 71
4, 1920, Note_off_c, 2, 62, 64
4, 1920, Note_on_c, 2, 60, 71
4, 3360, Note_off_c, 2, 60, 64
4, 3360, Note_on_c, 2, 60, 71
4, 3840, Note_off_c, 2, 60, 64
4, 3840, Note_on_c, 2, 65, 71
4, 4800, Note_off_c, 2, 65, 64
4, 4800, Note_on_c, 2, 63, 71
4, 5280, Note_off_c, 2, 63, 64
4, 5280, Note_on_c, 2, 62, 71
4, 5760, Note_off_c, 2, 62, 64
4, 5760, Note_on_c, 2, 63, 71
4, 6240, Note_off_c, 2, 63, 64
4, 6240, Note_on_c, 2, 60, 71
4, 6720, Note_off_c, 2, 60, 64
4, 6720, Note_on_c, 2, 62, 71
4, 7200, Note_off_c, 2, 62, 64
4, 7200, Note_on_c, 2, 60, 71
4, 7680, Note_off_c, 2, 60, 64
4, 7680, Note_on_c, 2, 58, 67
4, 8160, Note_off_c, 2, 58, 64
4, 8160, Note_on_c, 2, 60, 67
4, 8640, Note_off_c, 2, 60, 64
4, 8640, Note_on_c, 2, 62, 67
4, 10080, Note_off_c, 2, 62, 64
4, 10080, Note_on_c, 2, 63, 67
4, 10560, Note_off_c, 2, 63, 64
4, 10560, Note_on_c, 2, 62, 67
4, 11520, Note_off_c, 2, 62, 64
4, 11520, Note_on_c, 2, 63, 67
4, 12000, Note_off_c, 2, 63, 64
4, 12000, Note_on_c, 2, 65, 67
4, 13440, Note_off_c, 2, 65, 64
4, 13440, Note_on_c, 2, 63, 67
4, 14400, Note_off_c, 2, 63, 64
4, 14400, Note_on_c, 2, 62, 67
4, 15360, Note_off_c, 2, 62, 64
4, 15360, Note_on_c, 2, 60, 67
4, 16320, Note_off_c, 2, 60, 64
4, 16320, Note_on_c, 2, 55, 67
4, 18240, Note_off_c, 2, 55, 64
4, 18240, Note_on_c, 2, 53, 67
4, 19680, Note_off_c, 2, 53, 64
4, 19680, Note_on_c, 2, 55, 67
4, 20160, Note_off_c, 2, 55, 64
4, 20160, Note_on_c, 2, 50, 67
4, 21120, Note_off_c, 2, 50, 64
4, 21120, Note_on_c, 2, 56, 67
4, 23040, Note_off_c, 2, 56, 64
4, 23040, Note_on_c, 2, 55, 67
4, 24480, Note_off_c, 2, 55, 64
4, 24480, Note_on_c, 2, 56, 67
4, 25920, Note_off_c, 2, 56, 64
4, 25920, Note_on_c, 2, 55, 67
4, 26880, Note_off_c, 2, 55, 64
4, 26880, Note_on_c, 2, 60, 67
4, 29280, Note_off_c, 2, 60, 64
4, 29280, Note_on_c, 2, 58, 67
4, 29760, Note_off_c, 2, 58, 64
4, 29760, Note_on_c, 2, 67, 67
4, 30720, Note_off_c, 2, 67, 64
4, 30720, Note_on_c, 2, 60, 67
4, 31200, Note_off_c, 2, 60, 64
4, 31200, Note_on_c, 2, 65, 67
4, 32160, Note_off_c, 2, 65, 64
4, 32160, Note_on_c, 2, 63, 67
4, 33600, Note_off_c, 2, 63, 64
4, 33600, Note_on_c, 2, 62, 67
4, 34560, Note_off_c, 2, 62, 64
4, 34560, Note_on_c, 2, 67, 67
4, 36960, Note_off_c, 2, 67, 64
4, 36960, Note_on_c, 2, 65, 67
4, 37440, Note_off_c, 2, 65, 64
4, 37440, Note_on_c, 2, 62, 67
4, 38400, Note_off_c, 2, 62, 64
4, 38400, Note_on_c, 2, 63, 67
4, 39360, Note_off_c, 2, 63, 64
4, 39360, Note_on_c, 2, 65, 67
4, 39840, Note_off_c, 2, 65, 64
4, 39840, Note_on_c, 2, 67, 67
4, 40320, Note_off_c, 2, 67, 64
4, 40320, Note_on_c, 2, 60, 65
4, 42240, Note_off_c, 2, 60, 64
4, 42240, Note_on_c, 2, 58, 65
4, 43200, Note_off_c, 2, 58, 64
4, 43200, Note_on_c, 2, 56, 65
4, 44640, Note_off_c, 2, 56, 64
4, 44640, Note_on_c, 2, 58, 65
4, 47040, Note_off_c, 2, 58, 64
4, 47040, Note_on_c, 2, 56, 74
4, 48000, Note_off_c, 2, 56, 64
4, 48000, Note_on_c, 2, 55, 72
4, 49440, Note_off_c, 2, 55, 64
4, 49440, Note_on_c, 2, 56, 70
4, 49920, Note_off_c, 2, 56, 64
4, 50400, Note_on_c, 2, 58, 68
4, 50880, Note_off_c, 2, 58, 64
4, 50880, Note_on_c, 2, 60, 67
4, 51360, Note_off_c, 2, 60, 64
4, 51360, Note_on_c, 2, 62, 66
4, 51840, Note_off_c, 2, 62, 64
4, 51840, Note_on_c, 2, 55, 65
4, 52320, Note_off_c, 2, 55, 64
4, 52320, Note_on_c, 2, 56, 65
4, 52800, Note_off_c, 2, 56, 64
4, 52800, Note_on_c, 2, 58, 65
4, 54240, Note_off_c, 2, 58, 64
4, 54240, Note_on_c, 2, 60, 64
4, 54720, Note_off_c, 2, 60, 64
4, 54720, Note_on_c, 2, 58, 64
4, 55680, Note_off_c, 2, 58, 64
4, 55680, Note_on_c, 2, 60, 64
4, 56160, Note_off_c, 2, 60, 64
4, 56160, Note_on_c, 2, 62, 64
4, 57600, Note_off_c, 2, 62, 64
4, 57600, Note_on_c, 2, 60, 64
4, 58560, Note_off_c, 2, 60, 64
4, 58560, Note_on_c, 2, 58, 64
4, 59520, Control_c, 2, 0, 0
4, 59520, Control_c, 2, 121, 0
4, 59521, Control_c, 2, 93, 14
4, 59521, Control_c, 2, 91, 54
4, 60480, Note_off_c, 2, 58, 64
4, 60480, Note_on_c, 2, 57, 75
4, 60960, Note_off_c, 2, 57, 64
4, 60960, Note_on_c, 2, 60, 75
4, 61440, Note_off_c, 2, 60, 64
4, 61440, Note_on_c, 2, 58, 75
4, 62880, Note_off_c, 2, 58, 64
4, 62880, Note_on_c, 2, 58, 75
4, 63360, Note_off_c, 2, 58, 64
4, 63360, Note_on_c, 2, 63, 75
4, 64320, Note_off_c, 2, 63, 64
4, 64320, Note_on_c, 2, 61, 75
4, 64800, Note_off_c, 2, 61, 64
4, 64800, Note_on_c, 2, 60, 75
4, 65280, Note_off_c, 2, 60, 64
4, 65280, Note_on_c, 2, 61, 75
4, 65760, Note_off_c, 2, 61, 64
4, 65760, Note_on_c, 2, 58, 75
4, 66240, Note_off_c, 2, 58, 64
4, 66240, Note_on_c, 2, 60, 75
4, 66720, Note_off_c, 2, 60, 64
4, 66720, Note_on_c, 2, 58, 75
4, 67200, Note_off_c, 2, 58, 64
4, 67200, Note_on_c, 2, 63, 66
4, 70080, Note_off_c, 2, 63, 64
4, 70080, Note_on_c, 2, 61, 66
4, 71040, Note_off_c, 2, 61, 64
4, 71040, Note_on_c, 2, 60, 66
4, 71520, Note_off_c, 2, 60, 64
4, 71520, Note_on_c, 2, 58, 66
4, 72000, Note_off_c, 2, 58, 64
4, 72000, Note_on_c, 2, 63, 66
4, 73920, Note_off_c, 2, 63, 64
4, 73920, Note_on_c, 2, 65, 76
4, 74880, Note_off_c, 2, 65, 64
4, 74880, Note_on_c, 2, 63, 82
4, 75840, Note_off_c, 2, 63, 64
4, 75840, Note_on_c, 2, 61, 87
4, 76320, Note_off_c, 2, 61, 64
4, 76320, Note_on_c, 2, 60, 89
4, 76800, Note_off_c, 2, 60, 64
4, 77760, Note_on_c, 2, 60, 97
4, 79680, Note_off_c, 2, 60, 64
4, 79680, Note_on_c, 2, 58, 97
4, 80640, Note_off_c, 2, 58, 64
4, 80640, Note_on_c, 2, 56, 74
4, 82560, Note_off_c, 2, 56, 64
4, 82560, Note_on_c, 2, 65, 64
4, 83520, Note_off_c, 2, 65, 64
4, 83520, Note_on_c, 2, 63, 59
4, 84480, Note_off_c, 2, 63, 64
4, 84480, Note_on_c, 2, 68, 64
4, 86880, Note_off_c, 2, 68, 64
4, 86880, Note_on_c, 2, 66, 67
4, 87360, Note_off_c, 2, 66, 64
4, 87360, Note_on_c, 2, 75, 67
4, 88320, Note_off_c, 2, 75, 64
4, 88320, Note_on_c, 2, 73, 67
4, 89280, Note_off_c, 2, 73, 64
4, 89280, Note_on_c, 2, 72, 67
4, 90240, Note_off_c, 2, 72, 64
4, 90240, Note_on_c, 2, 73, 65
4, 91200, Note_off_c, 2, 73, 64
4, 91200, Note_on_c, 2, 75, 67
4, 92160, Note_off_c, 2, 75, 64
4, 92160, Note_on_c, 2, 77, 70
4, 94560, Note_off_c, 2, 77, 64
4, 94560, Note_on_c, 2, 75, 74
4, 95040, Note_off_c, 2, 75, 64
4, 95040, Note_on_c, 2, 77, 73
4, 96000, Note_off_c, 2, 77, 64
4, 96000, Note_on_c, 2, 70, 70
4, 96960, Note_off_c, 2, 70, 64
4, 96960, Note_on_c, 2, 72, 68
4, 97440, Note_off_c, 2, 72, 64
4, 97440, Note_on_c, 2, 73, 67
4, 97920, Note_off_c, 2, 73, 64
4, 97920, Note_on_c, 2, 72, 61
4, 98880, Note_off_c, 2, 72, 64
4, 98880, Note_on_c, 2, 70, 61
4, 99840, Note_off_c, 2, 70, 64
4, 99840, Note_on_c, 2, 72, 61
4, 101280, Note_off_c, 2, 72, 64
4, 101280, Note_on_c, 2, 70, 61
4, 101760, Note_off_c, 2, 70, 64
4, 101760, Note_on_c, 2, 68, 61
4, 102240, Note_off_c, 2, 68, 64
4, 102240, Note_on_c, 2, 67, 61
4, 102720, Note_off_c, 2, 67, 64
4, 102720, Note_on_c, 2, 68, 61
4, 103680, Note_off_c, 2, 68, 64
4, 103680, Note_on_c, 2, 67, 61
4, 104640, Note_off_c, 2, 67, 64
4, 104640, Note_on_c, 2, 68, 61
4, 106080, Note_off_c, 2, 68, 64
4, 106080, Note_on_c, 2, 67, 61
4, 106560, Note_off_c, 2, 67, 64
4, 106560, Note_on_c, 2, 65, 66
4, 107040, Note_off_c, 2, 65, 64
4, 107040, Note_on_c, 2, 63, 66
4, 107520, Note_off_c, 2, 63, 64
4, 107520, Note_on_c, 2, 64, 66
4, 108480, Note_off_c, 2, 64, 64
4, 108480, Note_on_c, 2, 63, 66
4, 108960, Note_off_c, 2, 63, 64
4, 108960, Note_on_c, 2, 64, 66
4, 109440, Note_off_c, 2, 64, 64
4, 109440, Note_on_c, 2, 65, 66
4, 110880, Note_off_c, 2, 65, 64
4, 113280, Note_on_c, 2, 39, 82
4, 115680, Note_off_c, 2, 39, 64
4, 115680, Note_on_c, 2, 41, 73
4, 115920, Note_off_c, 2, 41, 64
4, 115920, Note_on_c, 2, 42, 78
4, 116160, Note_off_c, 2, 42, 64
4, 116160, Note_on_c, 2, 41, 84
4, 118080, Note_off_c, 2, 41, 64
4, 118080, Note_on_c, 2, 43, 92
4, 119040, Note_off_c, 2, 43, 64
4, 119040, Note_on_c, 2, 41, 88
4, 120000, Note_off_c, 2, 41, 64
4, 120000, Note_on_c, 2, 40, 73
4, 120960, Note_off_c, 2, 40, 64
4, 120960, Note_on_c, 2, 45, 73
4, 123360, Note_off_c, 2, 45, 64
4, 123360, Note_on_c, 2, 43, 74
4, 123840, Note_off_c, 2, 43, 64
4, 123840, Note_on_c, 2, 52, 75
4, 124800, Note_off_c, 2, 52, 64
4, 124800, Note_on_c, 2, 45, 79
4, 125280, Note_off_c, 2, 45, 64
4, 125280, Note_on_c, 2, 50, 80
4, 126240, Note_off_c, 2, 50, 64
4, 126240, Note_on_c, 2, 48, 68
4, 126720, Note_off_c, 2, 48, 64
4, 126720, Note_on_c, 2, 52, 83
4, 127680, Note_off_c, 2, 52, 64
4, 127680, Note_on_c, 2, 54, 83
4, 128640, Note_off_c, 2, 54, 64
4, 128640, Note_on_c, 2, 55, 83
4, 131040, Note_off_c, 2, 55, 64
4, 131040, Note_on_c, 2, 54, 74
4, 131520, Note_off_c, 2, 54, 64
4, 131520, Note_on_c, 2, 55, 74
4, 132480, Note_off_c, 2, 55, 64
4, 132480, Note_on_c, 2, 48, 75
4, 133440, Note_off_c, 2, 48, 64
4, 133440, Note_on_c, 2, 50, 80
4, 133920, Note_off_c, 2, 50, 64
4, 133920, Note_on_c, 2, 52, 88
4, 134400, Note_off_c, 2, 52, 64
4, 134400, Note_on_c, 2, 54, 89
4, 135360, Note_off_c, 2, 54, 64
4, 135360, Note_on_c, 2, 55, 91
4, 136320, Note_off_c, 2, 55, 64
4, 136320, Note_on_c, 2, 54, 101
4, 137280, Note_off_c, 2, 54, 64
4, 137280, Note_on_c, 2, 55, 101
4, 139200, Note_off_c, 2, 55, 64
4, 139200, Note_on_c, 2, 54, 101
4, 140160, Note_off_c, 2, 54, 64
4, 140160, Note_on_c, 2, 55, 101
4, 141120, Note_off_c, 2, 55, 64
4, 141120, Note_on_c, 2, 53, 101
4, 142080, Note_off_c, 2, 53, 64
4, 142080, Note_on_c, 2, 58, 108
4, 143520, Note_off_c, 2, 58, 64
4, 143520, Note_on_c, 2, 56, 121
4, 144000, Note_off_c, 2, 56, 64
4, 144000, Note_on_c, 2, 55, 127
4, 147840, Note_off_c, 2, 55, 64
4, 147840, Note_on_c, 2, 56, 124
4, 148800, Note_off_c, 2, 56, 64
4, 148800, Note_on_c, 2, 53, 124
4, 152640, Note_off_c, 2, 53, 64
4, 152640, Note_on_c, 2, 55, 124
4, 153600, Note_off_c, 2, 55, 64
4, 153600, Note_on_c, 2, 55, 124
4, 155520, Note_off_c, 2, 55, 64
4, 155520, Note_on_c, 2, 54, 124
4, 158400, Note_off_c, 2, 54, 64
4, 158400, Note_on_c, 2, 55, 124
4, 158880, Note_off_c, 2, 55, 64
4, 158880, Note_on_c, 2, 50, 121
4, 159120, Note_off_c, 2, 50, 64
4, 159120, Note_on_c, 2, 51, 125
4, 159360, Note_off_c, 2, 51, 64
4, 159360, Note_on_c, 2, 53, 127
4, 160320, Note_off_c, 2, 53, 64
4, 160320, Note_on_c, 2, 48, 115
4, 160560, Note_off_c, 2, 48, 64
4, 160560, Note_on_c, 2, 50, 120
4, 160800, Note_off_c, 2, 50, 64
4, 160800, Note_on_c, 2, 51, 125
4, 161280, Note_off_c, 2, 51, 64
4, 161280, Note_on_c, 2, 53, 123
4, 161760, Note_off_c, 2, 53, 64
4, 161760, Note_on_c, 2, 51, 126
4, 162000, Note_off_c, 2, 51, 64
4, 162000, Note_on_c, 2, 50, 120
4, 162240, Note_off_c, 2, 50, 64
4, 162240, Note_on_c, 2, 48, 116
4, 163680, Note_off_c, 2, 48, 64
4, 163680, Note_on_c, 2, 49, 111
4, 164640, Note_off_c, 2, 49, 64
4, 164640, Note_on_c, 2, 46, 108
4, 165120, Note_off_c, 2, 46, 64
4, 165120, Note_on_c, 2, 51, 105
4, 165600, Note_off_c, 2, 51, 64
4, 165600, Note_on_c, 2, 49, 104
4, 166080, Note_off_c, 2, 49, 64
4, 166080, Note_on_c, 2, 48, 102
4, 168000, Note_off_c, 2, 48, 64
4, 168000, Note_on_c, 2, 46, 95
4, 168960, Note_off_c, 2, 46, 64
4, 168960, Note_on_c, 2, 44, 95
4, 169440, Note_off_c, 2, 44, 64
4, 169440, Note_on_c, 2, 43, 95
4, 170400, Note_off_c, 2, 43, 64
4, 170400, Note_on_c, 2, 41, 96
4, 170640, Note_off_c, 2, 41, 64
4, 170640, Note_on_c, 2, 43, 102
4, 170880, Note_off_c, 2, 43, 64
4, 170880, Note_on_c, 2, 44, 110
4, 171360, Note_off_c, 2, 44, 64
4, 171360, Note_on_c, 2, 43, 105
4, 171840, Note_off_c, 2, 43, 64
4, 171840, Note_on_c, 2, 44, 100
4, 172320, Note_off_c, 2, 44, 64
4, 172320, Note_on_c, 2, 43, 97
4, 172800, Note_off_c, 2, 43, 64
4, 172800, Note_on_c, 2, 41, 94
4, 173280, Note_off_c, 2, 41, 64
4, 173280, Note_on_c, 2, 39, 90
4, 173760, Note_off_c, 2, 39, 64
4, 173760, Note_on_c, 2, 43, 87
4, 174240, Note_off_c, 2, 43, 64
4, 174240, Note_on_c, 2, 41, 84
4, 174720, Note_off_c, 2, 41, 64
4, 174720, Note_on_c, 2, 39, 81
4, 175200, Note_off_c, 2, 39, 64
4, 175200, Note_on_c, 2, 36, 77
4, 175680, Note_off_c, 2, 36, 64
4, 175680, Note_on_c, 2, 37, 74
4, 176160, Note_off_c, 2, 37, 64
4, 176160, Note_on_c, 2, 36, 71
4, 176640, Note_off_c, 2, 36, 64
4, 184320, Note_on_c, 2, 63, 96
4, 185280, Note_off_c, 2, 63, 64
4, 185280, Note_on_c, 2, 62, 91
4, 185760, Note_off_c, 2, 62, 64
4, 185760, Note_on_c, 2, 65, 86
4, 186240, Note_off_c, 2, 65, 64
4, 186240, Note_on_c, 2, 63, 86
4, 186720, Note_off_c, 2, 63, 64
4, 186720, Note_on_c, 2, 65, 91
4, 186960, Note_off_c, 2, 65, 64
4, 186960, Note_on_c, 2, 63, 95
4, 187200, Note_off_c, 2, 63, 64
4, 187200, Note_on_c, 2, 62, 98
4, 187440, Note_off_c, 2, 62, 64
4, 187440, Note_on_c, 2, 60, 94
4, 187680, Note_off_c, 2, 60, 64
4, 187680, Note_on_c, 2, 58, 91
4, 187920, Note_off_c, 2, 58, 64
4, 187920, Note_on_c, 2, 55, 87
4, 188160, Note_off_c, 2, 55, 64
4, 188160, Note_on_c, 2, 63, 84
4, 188640, Note_off_c, 2, 63, 64
4, 188640, Note_on_c, 2, 62, 91
4, 188880, Note_off_c, 2, 62, 64
4, 188880, Note_on_c, 2, 60, 86
4, 189120, Note_off_c, 2, 60, 64
4, 189120, Note_on_c, 2, 62, 80
4, 189600, Note_off_c, 2, 62, 64
4, 189600, Note_on_c, 2, 60, 71
4, 189840, Note_off_c, 2, 60, 64
4, 189840, Note_on_c, 2, 62, 83
4, 190080, Note_off_c, 2, 62, 64
4, 190080, Note_on_c, 2, 63, 95
4, 190560, Note_off_c, 2, 63, 64
4, 190560, Note_on_c, 2, 62, 89
4, 190800, Note_off_c, 2, 62, 64
4, 190800, Note_on_c, 2, 60, 87
4, 191040, Note_off_c, 2, 60, 64
4, 191040, Note_on_c, 2, 62, 87
4, 191280, Note_off_c, 2, 62, 64
4, 191280, Note_on_c, 2, 60, 87
4, 191520, Note_off_c, 2, 60, 64
4, 191520, Note_on_c, 2, 58, 87
4, 192000, Note_off_c, 2, 58, 64
4, 192000, Note_on_c, 2, 56, 79
4, 192960, Note_off_c, 2, 56, 64
4, 192960, Note_on_c, 2, 58, 79
4, 193920, Note_off_c, 2, 58, 64
4, 193920, Note_on_c, 2, 56, 79
4, 194880, Note_off_c, 2, 56, 64
4, 194880, Note_on_c, 2, 58, 99
4, 196800, Note_off_c, 2, 58, 64
4, 196800, Note_on_c, 2, 56, 79
4, 198720, Note_off_c, 2, 56, 64
4, 198720, Note_on_c, 2, 56, 79
4, 201600, Note_off_c, 2, 56, 64
4, 201600, Control_c, 2, 0, 0
4, 201600, Control_c, 2, 121, 0
4, 201600, Note_on_c, 2, 56, 86
4, 201601, Control_c, 2, 91, 54
4, 201601, Control_c, 2, 93, 14
4, 202560, Note_off_c, 2, 56, 64
4, 202560, Note_on_c, 2, 55, 86
4, 203040, Note_off_c, 2, 55, 64
4, 203040, Note_on_c, 2, 58, 86
4, 203520, Note_off_c, 2, 58, 64
4, 203520, Note_on_c, 2, 56, 86
4, 204960, Note_off_c, 2, 56, 64
4, 204960, Note_on_c, 2, 56, 86
4, 205440, Note_off_c, 2, 56, 64
4, 205440, Note_on_c, 2, 61, 86
4, 206400, Note_off_c, 2, 61, 64
4, 206400, Note_on_c, 2, 60, 86
4, 206880, Note_off_c, 2, 60, 64
4, 206880, Note_on_c, 2, 58, 86
4, 207360, Note_off_c, 2, 58, 64
4, 207360, Note_on_c, 2, 60, 86
4, 207840, Note_off_c, 2, 60, 64
4, 207840, Note_on_c, 2, 56, 86
4, 208320, Note_off_c, 2, 56, 64
4, 208320, Note_on_c, 2, 58, 86
4, 208800, Note_off_c, 2, 58, 64
4, 208800, Note_on_c, 2, 56, 86
4, 209280, Note_off_c, 2, 56, 64
4, 209280, Note_on_c, 2, 61, 79
4, 209760, Note_off_c, 2, 61, 64
4, 209760, Note_on_c, 2, 63, 79
4, 210000, Note_off_c, 2, 63, 64
4, 210000, Note_on_c, 2, 65, 79
4, 210240, Note_off_c, 2, 65, 64
4, 210240, Note_on_c, 2, 60, 79
4, 210720, Note_off_c, 2, 60, 64
4, 210720, Note_on_c, 2, 61, 79
4, 210960, Note_off_c, 2, 61, 64
4, 210960, Note_on_c, 2, 63, 79
4, 211200, Note_off_c, 2, 63, 64
4, 211200, Note_on_c, 2, 65, 79
4, 211680, Note_off_c, 2, 65, 64
4, 211680, Note_on_c, 2, 60, 79
4, 211920, Note_off_c, 2, 60, 64
4, 211920, Note_on_c, 2, 61, 79
4, 212160, Note_off_c, 2, 61, 64
4, 212160, Note_on_c, 2, 63, 79
4, 213120, Note_off_c, 2, 63, 64
4, 213120, Note_on_c, 2, 65, 78
4, 213600, Note_off_c, 2, 65, 64
4, 213600, Note_on_c, 2, 60, 78
4, 213840, Note_off_c, 2, 60, 64
4, 213840, Note_on_c, 2, 61, 78
4, 214080, Note_off_c, 2, 61, 64
4, 214080, Note_on_c, 2, 63, 78
4, 215040, Note_off_c, 2, 63, 64
4, 215040, Note_on_c, 2, 65, 78
4, 216000, Note_off_c, 2, 65, 64
4, 220800, Control_c, 2, 121, 0
4, 220800, Control_c, 2, 0, 0
4, 220801, Control_c, 2, 91, 54
4, 220801, Control_c, 2, 93, 14
4, 224880, Note_on_c, 2, 65, 79
4, 225120, Note_off_c, 2, 65, 64
4, 225120, Note_on_c, 2, 63, 81
4, 225360, Note_off_c, 2, 63, 64
4, 225360, Note_on_c, 2, 61, 84
4, 225600, Note_off_c, 2, 61, 64
4, 225600, Note_on_c, 2, 63, 86
4, 226080, Note_off_c, 2, 63, 64
4, 226080, Note_on_c, 2, 61, 91
4, 226320, Note_off_c, 2, 61, 64
4, 226320, Note_on_c, 2, 60, 94
4, 226560, Note_off_c, 2, 60, 64
4, 226560, Note_on_c, 2, 58, 96
4, 227520, Note_off_c, 2, 58, 64
4, 227520, Note_on_c, 2, 56, 97
4, 228480, Note_off_c, 2, 56, 64
4, 228480, Note_on_c, 2, 58, 107
4, 229440, Note_off_c, 2, 58, 64
4, 229440, Note_on_c, 2, 57, 107
4, 230400, Note_off_c, 2, 57, 64
4, 230400, Note_on_c, 2, 58, 104
4, 231840, Note_off_c, 2, 58, 64
4, 231840, Note_on_c, 2, 56, 104
4, 232320, Note_off_c, 2, 56, 64
4, 232320, Note_on_c, 2, 54, 104
4, 232800, Note_off_c, 2, 54, 64
4, 232800, Note_on_c, 2, 53, 104
4, 233280, Note_off_c, 2, 53, 64
4, 233280, Note_on_c, 2, 52, 94
4, 234240, Note_off_c, 2, 52, 64
4, 234240, Note_on_c, 2, 51, 77
4, 240000, Note_off_c, 2, 51, 64
4, 240000, Note_on_c, 2, 49, 78
4, 241440, Note_off_c, 2, 49, 64
4, 241440, Note_on_c, 2, 48, 71
4, 242880, Note_off_c, 2, 48, 64
4, 242880, Note_on_c, 2, 49, 71
4, 243840, Note_off_c, 2, 49, 64
4, 243840, Note_on_c, 2, 48, 71
4, 244320, Note_off_c, 2, 48, 64
4, 244320, Note_on_c, 2, 51, 71
4, 244800, Note_off_c, 2, 51, 64
4, 244800, Note_on_c, 2, 49, 71
4, 245760, Note_off_c, 2, 49, 64
4, 245760, Note_on_c, 2, 48, 69
4, 246720, Note_off_c, 2, 48, 64
4, 246720, Note_on_c, 2, 51, 67
4, 247680, Note_off_c, 2, 51, 64
4, 247680, Note_on_c, 2, 49, 65
4, 248640, Note_off_c, 2, 49, 64
4, 248640, Note_on_c, 2, 48, 68
4, 249600, Note_off_c, 2, 48, 64
4, 249600, Note_on_c, 2, 48, 68
4, 250560, Note_off_c, 2, 48, 64
4, 250560, Note_on_c, 2, 48, 68
4, 251520, Note_off_c, 2, 48, 64
4, 251520, Note_on_c, 2, 48, 68
4, 253440, Note_off_c, 2, 48, 64
4, 253440, Note_on_c, 2, 48, 68
4, 254400, Note_off_c, 2, 48, 64
4, 254400, Note_on_c, 2, 48, 68
4, 255360, Note_off_c, 2, 48, 64
4, 255360, Note_on_c, 2, 48, 68
4, 256320, Note_off_c, 2, 48, 64
4, 256320, Note_on_c, 2, 48, 68
4, 258240, Note_off_c, 2, 48, 64
4, 258240, Note_on_c, 2, 48, 68
4, 262080, Note_off_c, 2, 48, 64
4, 262080, Note_on_c, 2, 48, 63
4, 265916, Control_c, 2, 93, 0
4, 265916, Control_c, 2, 91, 0
4, 265918, Control_c, 2, 121, 0
4, 265920, Note_off_c, 2, 48, 64
4, 265920, End_track
5, 0, Start_track
5, 0, Title_t, "bas"
5, 0, MIDI_port, 0
5, 0, Channel_prefix, 3
5, 0, Control_c, 3, 7, 127
5, 0, Control_c, 3, 10, 58
5, 0, Program_c, 3, 0
5, 0, Control_c, 3, 121, 0
5, 0, Control_c, 3, 0, 0
5, 1, Control_c, 3, 93, 14
5, 1, Control_c, 3, 91, 54
5, 32640, Control_c, 3, 0, 0
5, 32640, Control_c, 3, 121, 0
5, 32640, Note_on_c, 3, 55, 81
5, 32641, Control_c, 3, 91, 54
5, 32641, Control_c, 3, 93, 14
5, 33600, Note_off_c, 3, 55, 64
5, 33600, Note_on_c, 3, 53, 81
5, 34080, Note_off_c, 3, 53, 64
5, 34080, Note_on_c, 3, 57, 81
5, 34560, Note_off_c, 3, 57, 64
5, 34560, Note_on_c, 3, 55, 81
5, 36000, Note_off_c, 3, 55, 64
5, 36000, Note_on_c, 3, 55, 81
5, 36480, Note_off_c, 3, 55, 64
5, 36480, Note_on_c, 3, 60, 81
5, 37440, Note_off_c, 3, 60, 64
5, 37440, Note_on_c, 3, 58, 81
5, 37920, Note_off_c, 3, 58, 64
5, 37920, Note_on_c, 3, 57, 81
5, 38400, Note_off_c, 3, 57, 64
5, 38400, Note_on_c, 3, 58, 81
5, 38880, Note_off_c, 3, 58, 64
5, 38880, Note_on_c, 3, 55, 81
5, 39360, Note_off_c, 3, 55, 64
5, 39360, Note_on_c, 3, 56, 81
5, 39840, Note_off_c, 3, 56, 64
5, 39840, Note_on_c, 3, 55, 81
5, 40320, Note_off_c, 3, 55, 64
5, 40800, Note_on_c, 3, 51, 92
5, 41760, Note_off_c, 3, 51, 64
5, 41760, Note_on_c, 3, 50, 74
5, 42240, Note_off_c, 3, 50, 64
5, 42240, Note_on_c, 3, 51, 69
5, 42720, Note_off_c, 3, 51, 64
5, 42720, Note_on_c, 3, 50, 77
5, 42960, Note_off_c, 3, 50, 64
5, 42960, Note_on_c, 3, 51, 81
5, 43200, Note_off_c, 3, 51, 64
5, 43200, Note_on_c, 3, 53, 90
5, 43440, Note_off_c, 3, 53, 64
5, 43440, Note_on_c, 3, 51, 87
5, 43680, Note_off_c, 3, 51, 64
5, 43680, Note_on_c, 3, 50, 84
5, 43920, Note_off_c, 3, 50, 64
5, 43920, Note_on_c, 3, 48, 79
5, 44160, Note_off_c, 3, 48, 64
5, 44160, Note_on_c, 3, 50, 76
5, 44400, Note_off_c, 3, 50, 64
5, 44400, Note_on_c, 3, 48, 73
5, 44640, Note_off_c, 3, 48, 64
5, 44640, Note_on_c, 3, 46, 71
5, 45120, Note_off_c, 3, 46, 64
5, 45600, Note_on_c, 3, 50, 91
5, 46560, Note_off_c, 3, 50, 64
5, 46560, Note_on_c, 3, 48, 71
5, 47040, Note_off_c, 3, 48, 64
5, 47040, Note_on_c, 3, 50, 80
5, 47520, Note_off_c, 3, 50, 64
5, 47520, Note_on_c, 3, 48, 89
5, 47760, Note_off_c, 3, 48, 64
5, 47760, Note_on_c, 3, 50, 93
5, 48000, Note_off_c, 3, 50, 64
5, 48000, Note_on_c, 3, 51, 97
5, 48240, Note_off_c, 3, 51, 64
5, 48240, Note_on_c, 3, 50, 96
5, 48480, Note_off_c, 3, 50, 64
5, 48480, Note_on_c, 3, 48, 89
5, 48720, Note_off_c, 3, 48, 64
5, 48720, Note_on_c, 3, 46, 84
5, 48960, Note_off_c, 3, 46, 64
5, 48960, Note_on_c, 3, 48, 80
5, 49200, Note_off_c, 3, 48, 64
5, 49200, Note_on_c, 3, 46, 75
5, 49440, Note_off_c, 3, 46, 64
5, 49440, Note_on_c, 3, 44, 71
5, 49920, Note_off_c, 3, 44, 64
5, 49920, Note_on_c, 3, 43, 61
5, 50880, Note_off_c, 3, 43, 64
5, 50880, Note_on_c, 3, 44, 61
5, 51360, Note_off_c, 3, 44, 64
5, 51360, Note_on_c, 3, 46, 63
5, 51840, Note_off_c, 3, 46, 64
5, 51840, Control_c, 3, 121, 0
5, 51840, Control_c, 3, 0, 0
5, 51840, Note_on_c, 3, 51, 94
5, 51841, Control_c, 3, 91, 54
5, 51841, Control_c, 3, 93, 14
5, 52800, Note_off_c, 3, 51, 64
5, 52800, Note_on_c, 3, 50, 84
5, 53280, Note_off_c, 3, 50, 64
5, 53280, Note_on_c, 3, 53, 84
5, 53760, Note_off_c, 3, 53, 64
5, 53760, Note_on_c, 3, 51, 85
5, 55200, Note_off_c, 3, 51, 64
5, 55200, Note_on_c, 3, 51, 85
5, 55680, Note_off_c, 3, 51, 64
5, 55680, Note_on_c, 3, 56, 82
5, 56640, Note_off_c, 3, 56, 64
5, 56640, Note_on_c, 3, 55, 82
5, 57120, Note_off_c, 3, 55, 64
5, 57120, Note_on_c, 3, 53, 82
5, 57600, Note_off_c, 3, 53, 64
5, 57600, Note_on_c, 3, 55, 82
5, 58080, Note_off_c, 3, 55, 64
5, 58080, Note_on_c, 3, 51, 83
5, 58560, Note_off_c, 3, 51, 64
5, 58560, Note_on_c, 3, 53, 83
5, 59040, Note_off_c, 3, 53, 64
5, 59040, Note_on_c, 3, 51, 83
5, 59520, Note_off_c, 3, 51, 64
5, 59520, Note_on_c, 3, 50, 83
5, 60000, Note_off_c, 3, 50, 64
5, 60000, Note_on_c, 3, 51, 77
5, 60480, Note_off_c, 3, 51, 64
5, 60480, Note_on_c, 3, 53, 71
5, 61920, Note_off_c, 3, 53, 64
5, 61920, Note_on_c, 3, 55, 70
5, 62400, Note_off_c, 3, 55, 64
5, 62400, Note_on_c, 3, 53, 70
5, 63360, Note_off_c, 3, 53, 64
5, 63360, Note_on_c, 3, 55, 70
5, 63840, Note_off_c, 3, 55, 64
5, 63840, Note_on_c, 3, 56, 70
5, 65280, Note_off_c, 3, 56, 64
5, 65280, Note_on_c, 3, 54, 70
5, 66240, Note_off_c, 3, 54, 64
5, 66240, Note_on_c, 3, 53, 70
5, 67200, Note_off_c, 3, 53, 64
5, 67200, Note_on_c, 3, 51, 66
5, 69120, Note_off_c, 3, 51, 64
5, 69120, Note_on_c, 3, 53, 66
5, 71040, Note_off_c, 3, 53, 64
5, 71040, Note_on_c, 3, 55, 66
5, 72000, Note_off_c, 3, 55, 64
5, 72000, Note_on_c, 3, 56, 66
5, 72960, Note_off_c, 3, 56, 64
5, 72960, Note_on_c, 3, 55, 71
5, 75840, Note_off_c, 3, 55, 64
5, 75840, Note_on_c, 3, 56, 87
5, 76800, Note_off_c, 3, 56, 64
5, 77760, Note_on_c, 3, 58, 97
5, 79200, Note_off_c, 3, 58, 64
5, 79200, Note_on_c, 3, 56, 93
5, 79680, Note_off_c, 3, 56, 64
5, 79680, Note_on_c, 3, 55, 90
5, 80160, Note_off_c, 3, 55, 64
5, 80160, Note_on_c, 3, 53, 90
5, 80400, Note_off_c, 3, 53, 64
5, 80400, Note_on_c, 3, 55, 90
5, 80640, Note_off_c, 3, 55, 64
5, 90240, Control_c, 3, 0, 0
5, 90240, Control_c, 3, 121, 0
5, 90240, Note_on_c, 3, 61, 76
5, 90241, Control_c, 3, 93, 14
5, 90241, Control_c, 3, 91, 54
5, 91200, Note_off_c, 3, 61, 64
5, 91200, Note_on_c, 3, 60, 80
5, 91680, Note_off_c, 3, 60, 64
5, 91680, Note_on_c, 3, 63, 81
5, 92160, Note_off_c, 3, 63, 64
5, 92160, Note_on_c, 3, 61, 83
5, 93600, Note_off_c, 3, 61, 64
5, 93600, Note_on_c, 3, 61, 86
5, 94080, Note_off_c, 3, 61, 64
5, 94080, Note_on_c, 3, 66, 88
5, 95040, Note_off_c, 3, 66, 64
5, 95040, Note_on_c, 3, 65, 86
5, 95520, Note_off_c, 3, 65, 64
5, 95520, Note_on_c, 3, 63, 85
5, 96000, Note_off_c, 3, 63, 64
5, 96000, Note_on_c, 3, 65, 83
5, 96480, Note_off_c, 3, 65, 64
5, 96480, Note_on_c, 3, 61, 82
5, 96960, Note_off_c, 3, 61, 64
5, 96960, Note_on_c, 3, 63, 81
5, 97440, Note_off_c, 3, 63, 64
5, 97440, Note_on_c, 3, 61, 80
5, 97920, Note_off_c, 3, 61, 64
5, 97920, Note_on_c, 3, 56, 60
5, 98880, Note_off_c, 3, 56, 64
5, 98880, Note_on_c, 3, 61, 60
5, 99840, Note_off_c, 3, 61, 64
5, 99840, Note_on_c, 3, 56, 60
5, 101280, Note_off_c, 3, 56, 64
5, 101280, Note_on_c, 3, 58, 60
5, 101760, Note_off_c, 3, 58, 64
5, 101760, Note_on_c, 3, 60, 60
5, 102240, Note_off_c, 3, 60, 64
5, 102240, Note_on_c, 3, 61, 60
5, 102720, Note_off_c, 3, 61, 64
5, 102720, Note_on_c, 3, 53, 60
5, 103680, Note_off_c, 3, 53, 64
5, 103680, Note_on_c, 3, 58, 60
5, 104640, Note_off_c, 3, 58, 64
5, 104640, Note_on_c, 3, 53, 60
5, 106080, Note_off_c, 3, 53, 64
5, 106080, Note_on_c, 3, 55, 60
5, 106560, Note_off_c, 3, 55, 64
5, 106560, Note_on_c, 3, 56, 66
5, 107040, Note_off_c, 3, 56, 64
5, 107040, Note_on_c, 3, 58, 66
5, 107520, Note_off_c, 3, 58, 64
5, 107520, Note_on_c, 3, 60, 66
5, 108480, Note_off_c, 3, 60, 64
5, 108480, Note_on_c, 3, 56, 66
5, 108960, Note_off_c, 3, 56, 64
5, 108960, Note_on_c, 3, 60, 66
5, 109440, Note_off_c, 3, 60, 64
5, 109440, Note_on_c, 3, 65, 66
5, 110880, Note_off_c, 3, 65, 64
5, 126720, Control_c, 3, 0, 0
5, 126720, Control_c, 3, 121, 0
5, 126720, Note_on_c, 3, 40, 107
5, 126721, Control_c, 3, 91, 54
5, 126721, Control_c, 3, 93, 14
5, 127680, Note_off_c, 3, 40, 64
5, 127680, Note_on_c, 3, 38, 108
5, 128160, Note_off_c, 3, 38, 64
5, 128160, Note_on_c, 3, 42, 109
5, 128640, Note_off_c, 3, 42, 64
5, 128640, Note_on_c, 3, 40, 109
5, 130080, Note_off_c, 3, 40, 64
5, 130080, Note_on_c, 3, 40, 111
5, 130560, Note_off_c, 3, 40, 64
5, 130560, Note_on_c, 3, 45, 110
5, 131520, Note_off_c, 3, 45, 64
5, 131520, Note_on_c, 3, 43, 106
5, 132000, Note_off_c, 3, 43, 64
5, 132000, Note_on_c, 3, 42, 107
5, 132480, Note_off_c, 3, 42, 64
5, 132480, Note_on_c, 3, 43, 108
5, 132960, Note_off_c, 3, 43, 64
5, 132960, Note_on_c, 3, 40, 110
5, 133440, Note_off_c, 3, 40, 64
5, 133440, Note_on_c, 3, 42, 108
5, 133920, Note_off_c, 3, 42, 64
5, 133920, Note_on_c, 3, 40, 106
5, 134400, Note_off_c, 3, 40, 64
5, 134880, Note_on_c, 3, 38, 113
5, 135840, Note_off_c, 3, 38, 64
5, 135840, Note_on_c, 3, 36, 101
5, 136320, Note_off_c, 3, 36, 64
5, 136320, Note_on_c, 3, 38, 93
5, 136800, Note_off_c, 3, 38, 64
5, 136800, Note_on_c, 3, 36, 104
5, 137040, Note_off_c, 3, 36, 64
5, 137040, Note_on_c, 3, 38, 109
5, 137280, Note_off_c, 3, 38, 64
5, 137280, Note_on_c, 3, 40, 116
5, 137520, Note_off_c, 3, 40, 64
5, 137520, Note_on_c, 3, 38, 113
5, 137760, Note_off_c, 3, 38, 64
5, 137760, Note_on_c, 3, 36, 109
5, 138000, Note_off_c, 3, 36, 64
5, 138000, Note_on_c, 3, 35, 106
5, 138240, Note_off_c, 3, 35, 64
5, 138240, Note_on_c, 3, 36, 103
5, 138480, Note_off_c, 3, 36, 64
5, 138480, Note_on_c, 3, 35, 99
5, 138720, Note_off_c, 3, 35, 64
5, 138720, Note_on_c, 3, 33, 96
5, 139200, Note_off_c, 3, 33, 64
5, 139680, Note_on_c, 3, 32, 106
5, 140640, Note_off_c, 3, 32, 64
5, 140640, Note_on_c, 3, 31, 94
5, 141600, Note_off_c, 3, 31, 64
5, 141600, Note_on_c, 3, 32, 92
5, 141840, Note_off_c, 3, 32, 64
5, 141840, Note_on_c, 3, 31, 103
5, 142080, Note_off_c, 3, 31, 64
5, 142080, Note_on_c, 3, 29, 118
5, 142560, Note_off_c, 3, 29, 64
5, 142560, Note_on_c, 3, 27, 117
5, 142800, Note_off_c, 3, 27, 64
5, 142800, Note_on_c, 3, 26, 117
5, 143040, Note_off_c, 3, 26, 64
5, 143040, Note_on_c, 3, 27, 119
5, 143520, Note_off_c, 3, 27, 64
5, 143520, Note_on_c, 3, 29, 121
5, 144000, Note_off_c, 3, 29, 64
5, 144000, Note_on_c, 3, 31, 125
5, 145920, Note_off_c, 3, 31, 64
5, 145920, Note_on_c, 3, 43, 124
5, 148800, Note_off_c, 3, 43, 64
5, 148800, Note_on_c, 3, 43, 124
5, 153600, Note_off_c, 3, 43, 64
5, 154080, Note_on_c, 3, 42, 124
5, 155040, Note_off_c, 3, 42, 64
5, 155040, Note_on_c, 3, 40, 109
5, 155520, Note_off_c, 3, 40, 64
5, 155520, Note_on_c, 3, 42, 107
5, 156000, Note_off_c, 3, 42, 64
5, 156000, Note_on_c, 3, 40, 118
5, 156240, Note_off_c, 3, 40, 64
5, 156240, Note_on_c, 3, 42, 122
5, 156480, Note_off_c, 3, 42, 64
5, 156480, Note_on_c, 3, 43, 127
5, 156720, Note_off_c, 3, 43, 64
5, 156720, Note_on_c, 3, 42, 127
5, 156960, Note_off_c, 3, 42, 64
5, 156960, Note_on_c, 3, 40, 127
5, 157200, Note_off_c, 3, 40, 64
5, 157200, Note_on_c, 3, 38, 124
5, 157440, Note_off_c, 3, 38, 64
5, 157440, Note_on_c, 3, 37, 120
5, 157680, Note_off_c, 3, 37, 64
5, 157680, Note_on_c, 3, 38, 118
5, 157920, Note_off_c, 3, 38, 64
5, 157920, Note_on_c, 3, 37, 115
5, 158400, Note_off_c, 3, 37, 64
5, 158400, Note_on_c, 3, 35, 124
5, 159840, Note_off_c, 3, 35, 64
5, 159840, Note_on_c, 3, 36, 123
5, 161280, Note_off_c, 3, 36, 64
5, 161280, Note_on_c, 3, 38, 123
5, 162240, Note_off_c, 3, 38, 64
5, 162240, Note_on_c, 3, 39, 123
5, 163200, Note_off_c, 3, 39, 64
5, 163200, Note_on_c, 3, 41, 112
5, 164160, Note_off_c, 3, 41, 64
5, 164160, Note_on_c, 3, 43, 109
5, 166080, Note_off_c, 3, 43, 64
5, 177120, Note_on_c, 3, 41, 94
5, 178080, Note_off_c, 3, 41, 64
5, 178080, Note_on_c, 3, 39, 84
5, 178320, Note_off_c, 3, 39, 64
5, 178320, Note_on_c, 3, 41, 88
5, 178560, Note_off_c, 3, 41, 64
5, 178560, Note_on_c, 3, 43, 93
5, 178800, Note_off_c, 3, 43, 64
5, 178800, Note_on_c, 3, 41, 93
5, 179040, Note_off_c, 3, 41, 64
5, 179040, Note_on_c, 3, 39, 91
5, 179280, Note_off_c, 3, 39, 64
5, 179280, Note_on_c, 3, 38, 88
5, 179520, Note_off_c, 3, 38, 64
5, 179520, Note_on_c, 3, 39, 86
5, 180000, Note_off_c, 3, 39, 64
5, 180000, Note_on_c, 3, 41, 96
5, 180240, Note_off_c, 3, 41, 64
5, 180240, Note_on_c, 3, 39, 93
5, 180480, Note_off_c, 3, 39, 64
5, 180480, Note_on_c, 3, 38, 90
5, 180720, Note_off_c, 3, 38, 64
5, 180720, Note_on_c, 3, 36, 87
5, 180960, Note_off_c, 3, 36, 64
5, 180960, Note_on_c, 3, 34, 84
5, 181920, Note_off_c, 3, 34, 64
5, 181920, Note_on_c, 3, 32, 87
5, 182160, Note_off_c, 3, 32, 64
5, 182160, Note_on_c, 3, 31, 91
5, 182400, Note_off_c, 3, 31, 64
5, 182400, Note_on_c, 3, 32, 95
5, 182640, Note_off_c, 3, 32, 64
5, 182640, Note_on_c, 3, 29, 96
5, 182880, Note_off_c, 3, 29, 64
5, 182880, Note_on_c, 3, 31, 95
5, 183120, Note_off_c, 3, 31, 64
5, 183120, Note_on_c, 3, 32, 93
5, 183360, Note_off_c, 3, 32, 64
5, 183360, Note_on_c, 3, 34, 91
5, 183600, Note_off_c, 3, 34, 64
5, 183600, Note_on_c, 3, 36, 90
5, 183840, Note_off_c, 3, 36, 64
5, 183840, Note_on_c, 3, 34, 88
5, 184080, Note_off_c, 3, 34, 64
5, 184080, Note_on_c, 3, 32, 86
5, 184320, Note_off_c, 3, 32, 64
5, 184320, Note_on_c, 3, 31, 85
5, 184800, Note_off_c, 3, 31, 64
5, 184800, Note_on_c, 3, 43, 81
5, 185040, Note_off_c, 3, 43, 64
5, 185040, Note_on_c, 3, 44, 87
5, 185280, Note_off_c, 3, 44, 64
5, 185280, Note_on_c, 3, 46, 92
5, 185760, Note_off_c, 3, 46, 64
5, 185760, Note_on_c, 3, 44, 78
5, 186000, Note_off_c, 3, 44, 64
5, 186000, Note_on_c, 3, 46, 84
5, 186240, Note_off_c, 3, 46, 64
5, 186240, Control_c, 3, 0, 0
5, 186240, Control_c, 3, 121, 0
5, 186240, Note_on_c, 3, 48, 90
5, 186241, Control_c, 3, 93, 14
5, 186241, Control_c, 3, 91, 54
5, 187200, Note_off_c, 3, 48, 64
5, 187200, Note_on_c, 3, 46, 83
5, 187680, Note_off_c, 3, 46, 64
5, 187680, Note_on_c, 3, 50, 83
5, 188160, Note_off_c, 3, 50, 64
5, 188160, Note_on_c, 3, 48, 82
5, 189600, Note_off_c, 3, 48, 64
5, 189600, Note_on_c, 3, 48, 81
5, 190080, Note_off_c, 3, 48, 64
5, 190080, Note_on_c, 3, 53, 81
5, 191040, Note_off_c, 3, 53, 64
5, 191040, Note_on_c, 3, 51, 80
5, 191520, Note_off_c, 3, 51, 64
5, 191520, Note_on_c, 3, 50, 80
5, 192000, Note_off_c, 3, 50, 64
5, 192000, Note_on_c, 3, 49, 79
5, 192960, Note_off_c, 3, 49, 64
5, 192960, Note_on_c, 3, 54, 79
5, 193920, Note_off_c, 3, 54, 64
5, 193920, Note_on_c, 3, 49, 79
5, 194880, Note_off_c, 3, 49, 64
5, 194880, Note_on_c, 3, 42, 107
5, 196800, Note_off_c, 3, 42, 64
5, 196800, Note_on_c, 3, 37, 79
5, 197760, Note_off_c, 3, 37, 64
5, 197760, Note_on_c, 3, 39, 79
5, 198720, Note_off_c, 3, 39, 64
5, 198720, Note_on_c, 3, 41, 79
5, 201600, Note_off_c, 3, 41, 64
5, 201600, Note_on_c, 3, 43, 75
5, 205440, Note_off_c, 3, 43, 64
5, 205440, Note_on_c, 3, 43, 75
5, 207360, Note_off_c, 3, 43, 64
5, 207360, Note_on_c, 3, 44, 75
5, 211200, Note_off_c, 3, 44, 64
5, 211200, Note_on_c, 3, 44, 79
5, 215520, Note_off_c, 3, 44, 64
5, 215520, Note_on_c, 3, 46, 89
5, 215760, Note_off_c, 3, 46, 64
5, 215760, Note_on_c, 3, 48, 96
5, 216000, Note_off_c, 3, 48, 64
5, 216000, Note_on_c, 3, 49, 104
5, 217920, Note_off_c, 3, 49, 64
5, 217920, Note_on_c, 3, 48, 99
5, 218880, Note_off_c, 3, 48, 64
5, 218880, Control_c, 3, 121, 0
5, 218880, Control_c, 3, 0, 0
5, 218880, Note_on_c, 3, 46, 94
5, 218881, Control_c, 3, 93, 14
5, 218881, Control_c, 3, 91, 54
5, 219840, Note_off_c, 3, 46, 64
5, 219840, Note_on_c, 3, 44, 96
5, 220320, Note_off_c, 3, 44, 64
5, 220320, Note_on_c, 3, 48, 97
5, 220800, Note_off_c, 3, 48, 64
5, 220800, Note_on_c, 3, 46, 92
5, 222240, Note_off_c, 3, 46, 64
5, 222240, Note_on_c, 3, 46, 92
5, 222720, Note_off_c, 3, 46, 64
5, 222720, Note_on_c, 3, 51, 92
5, 223680, Note_off_c, 3, 51, 64
5, 223680, Note_on_c, 3, 49, 92
5, 224160, Note_off_c, 3, 49, 64
5, 224160, Note_on_c, 3, 48, 92
5, 224640, Note_off_c, 3, 48, 64
5, 224640, Note_on_c, 3, 49, 92
5, 225120, Note_off_c, 3, 49, 64
5, 225120, Note_on_c, 3, 46, 97
5, 225600, Note_off_c, 3, 46, 64
5, 225600, Note_on_c, 3, 48, 101
5, 226080, Note_off_c, 3, 48, 64
5, 226080, Note_on_c, 3, 46, 103
5, 226560, Note_off_c, 3, 46, 64
5, 226560, Note_on_c, 3, 51, 106
5, 227520, Note_off_c, 3, 51, 64
5, 227520, Note_on_c, 3, 53, 107
5, 228480, Note_off_c, 3, 53, 64
5, 228480, Note_on_c, 3, 54, 117
5, 231360, Note_off_c, 3, 54, 64
5, 231360, Note_on_c, 3, 48, 115
5, 233280, Note_off_c, 3, 48, 64
5, 233280, Note_on_c, 3, 49, 99
5, 234240, Note_off_c, 3, 49, 64
5, 234240, Note_on_c, 3, 44, 77
5, 236160, Note_off_c, 3, 44, 64
5, 236160, Note_on_c, 3, 43, 77
5, 237600, Note_off_c, 3, 43, 64
5, 237600, Note_on_c, 3, 41, 73
5, 238080, Note_off_c, 3, 41, 64
5, 238080, Note_on_c, 3, 39, 80
5, 238560, Note_off_c, 3, 39, 64
5, 238560, Note_on_c, 3, 37, 74
5, 239040, Note_off_c, 3, 37, 64
5, 239040, Note_on_c, 3, 36, 70
5, 240000, Note_off_c, 3, 36, 64
5, 240000, Note_on_c, 3, 34, 66
5, 240960, Note_off_c, 3, 34, 64
5, 240960, Note_on_c, 3, 41, 67
5, 241920, Note_off_c, 3, 41, 64
5, 241920, Note_on_c, 3, 39, 71
5, 242400, Note_off_c, 3, 39, 64
5, 242400, Note_on_c, 3, 42, 71
5, 242880, Note_off_c, 3, 42, 64
5, 242880, Note_on_c, 3, 41, 71
5, 248640, Note_off_c, 3, 41, 64
5, 248640, Note_on_c, 3, 36, 68
5, 249600, Note_off_c, 3, 36, 64
5, 249600, Note_on_c, 3, 41, 68
5, 250560, Note_off_c, 3, 41, 64
5, 250560, Note_on_c, 3, 36, 68
5, 251520, Note_off_c, 3, 36, 64
5, 251520, Note_on_c, 3, 41, 68
5, 253440, Note_off_c, 3, 41, 64
5, 253440, Note_on_c, 3, 36, 68
5, 254400, Note_off_c, 3, 36, 64
5, 254400, Note_on_c, 3, 41, 68
5, 255360, Note_off_c, 3, 41, 64
5, 255360, Note_on_c, 3, 36, 68
5, 256320, Note_off_c, 3, 36, 64
5, 256320, Note_on_c, 3, 41, 68
5, 258240, Note_off_c, 3, 41, 64
5, 258240, Note_on_c, 3, 36, 68
5, 263520, Note_off_c, 3, 36, 64
5, 263520, Note_on_c, 3, 35, 59
5, 263760, Note_off_c, 3, 35, 64
5, 263760, Note_on_c, 3, 38, 58
5, 264000, Note_off_c, 3, 38, 64
5, 264000, Note_on_c, 3, 36, 57
5, 265916, Control_c, 3, 91, 0
5, 265916, Control_c, 3, 93, 0
5, 265918, Control_c, 3, 121, 0
5, 265920, Note_off_c, 3, 36, 64
5, 265920, End_track
6, 0, Start_track
6, 0, Title_t, "=============="
6, 0, MIDI_port, 0
6, 0, End_track
7, 0, Start_track
7, 0, Title_t, "D. SHOSTAKOVICH"
7, 0, MIDI_port, 0
7, 0, End_track
8, 0, Start_track
8, 0, Title_t, "Fugue in C minor"
8, 0, MIDI_port, 0
8, 0, End_track
9, 0, Start_track
9, 0, Title_t, "opus 87 no. 20"
9, 0, MIDI_port, 0
9, 0, End_track
10, 0, Start_track
10, 0, Title_t, "Seq. by J. Marques"
10, 0, MIDI_port, 0
10, 0, End_track
11, 0, Start_track
11, 0, Title_t, "marques@super.zippo.com"
11, 0, MIDI_port, 0
11, 0, End_track
12, 0, Start_track
12, 0, Title_t, "==============="
12, 0, MIDI_port, 0
12, 0, End_track
13, 0, Start_track
13, 1, Copyright_t, "___________________________________________________\012\012KUNSTDERFUGE.COM LARGE CLASSICAL MIDI COLLECTION\012ONCLASSICAL BY ALESSANDRO SIMONETTO, PROPRIETOR\012___________________________________________________\012\012! Attention: this file is under copyright !\012\012(c)onclassical, (c)marques, 2010\012___________________________________________________\012\012NO ONE MAY REPUBLISH THIS FILE WITHOUT PERMISSION\012COMMERCIAL USES OF THIS FILE IS STRICTLY PROHIBITED\012___________________________________________________\012\012Files & contributor's list: http://kunstderfuge.com/\012Terms and conditions: http://kunstderfuge.com/notes.htm"
13, 1, End_track
0, 0, End_of_file