0, 0, Header, 1, 10, 384
1, 0, Start_track
1, 0, Time_signature, 3, 2, 96, 8
1, 0, Sequencer_specific, 03, 00, 00, 41
1, 0, Sequencer_specific, 05, 00, 00, 77, 0E, 00
1, 0, Tempo, 722891
1, 20, Tempo, 714285
1, 40, Tempo, 705882
1, 64, Tempo, 697674
1, 84, Tempo, 689655
1, 104, Tempo, 681818
1, 128, Tempo, 674157
1, 148, Tempo, 666666
1, 168, Tempo, 659340
1, 192, Tempo, 652173
1, 4608, Tempo, 722891
1, 4616, Tempo, 714285
1, 4628, Tempo, 705882
1, 4640, Tempo, 697674
1, 4648, Tempo, 689655
1, 4660, Tempo, 681818
1, 4672, Tempo, 674157
1, 4680, Tempo, 666666
1, 4692, Tempo, 659340
1, 4704, Tempo, 652173
1, 8928, Tempo, 652173
1, 9000, Tempo, 659340
1, 9072, Tempo, 666666
1, 9144, Tempo, 674157
1, 9216, Tempo, 750000
1, 9224, Tempo, 740740
1, 9232, Tempo, 731707
1, 9240, Tempo, 722891
1, 9248, Tempo, 714285
1, 9256, Tempo, 705882
1, 9264, Tempo, 697674
1, 9272, Tempo, 689655
1, 9280, Tempo, 681818
1, 9288, Tempo, 674157
1, 9296, Tempo, 666666
1, 9304, Tempo, 659340
1, 9312, Tempo, 652173
1, 17664, Tempo, 697674
1, 17680, Tempo, 689655
1, 17696, Tempo, 681818
1, 17712, Tempo, 674157
1, 17728, Tempo, 666666
1, 17744, Tempo, 659340
1, 17760, Tempo, 652173
1, 17856, Tempo, 652173
1, 17904, Tempo, 659340
1, 17952, Tempo, 666666
1, 18000, Tempo, 674157
1, 18048, Tempo, 681818
1, 18432, Tempo, 722891
1, 18452, Tempo, 714285
1, 18472, Tempo, 705882
1, 18496, Tempo, 697674
1, 18516, Tempo, 689655
1, 18536, Tempo, 681818
1, 18560, Tempo, 674157
1, 18580, Tempo, 666666
1, 18600, Tempo, 659340
1, 18624, Tempo, 652173
1, 27648, Tempo, 722891
1, 27656, Tempo, 714285
1, 27668, Tempo, 705882
1, 27680, Tempo, 697674
1, 27688, Tempo, 689655
1, 27700, Tempo, 681818
1, 27712, Tempo, 674157
1, 27720, Tempo, 666666
1, 27732, Tempo, 659340
1, 27744, Tempo, 652173
1, 34560, Tempo, 750000
1, 34568, Tempo, 740740
1, 34576, Tempo, 731707
1, 34584, Tempo, 722891
1, 34592, Tempo, 714285
1, 34600, Tempo, 705882
1, 34608, Tempo, 697674
1, 34616, Tempo, 689655
1, 34624, Tempo, 681818
1, 34632, Tempo, 674157
1, 34640, Tempo, 666666
1, 34648, Tempo, 659340
1, 34656, Tempo, 652173
1, 36096, Tempo, 652173
1, 36128, Tempo, 659340
1, 36160, Tempo, 666666
1, 36192, Tempo, 674157
1, 36224, Tempo, 681818
1, 36256, Tempo, 689655
1, 36288, Tempo, 697674
1, 36320, Tempo, 705882
1, 36352, Tempo, 714285
1, 36384, Tempo, 722891
1, 36416, Tempo, 731707
1, 36448, Tempo, 740740
1, 36480, Tempo, 750000
1, 36864, Tempo, 750000
1, 36880, Tempo, 740740
1, 36896, Tempo, 731707
1, 36912, Tempo, 722891
1, 36928, Tempo, 714285
1, 36944, Tempo, 705882
1, 36960, Tempo, 697674
1, 36976, Tempo, 689655
1, 36992, Tempo, 681818
1, 37008, Tempo, 674157
1, 37024, Tempo, 666666
1, 37040, Tempo, 659340
1, 37056, Tempo, 652173
1, 41088, Tempo, 652173
1, 41152, Tempo, 659340
1, 41216, Tempo, 666666
1, 41280, Tempo, 674157
1, 41344, Tempo, 681818
1, 41408, Tempo, 689655
1, 41472, Tempo, 750000
1, 41480, Tempo, 740740
1, 41488, Tempo, 731707
1, 41496, Tempo, 722891
1, 41504, Tempo, 714285
1, 41512, Tempo, 705882
1, 41520, Tempo, 697674
1, 41528, Tempo, 689655
1, 41536, Tempo, 681818
1, 41544, Tempo, 674157
1, 41552, Tempo, 666666
1, 41560, Tempo, 659340
1, 41568, Tempo, 652173
1, 43776, Tempo, 750000
1, 43784, Tempo, 740740
1, 43792, Tempo, 731707
1, 43800, Tempo, 722891
1, 43808, Tempo, 714285
1, 43816, Tempo, 705882
1, 43824, Tempo, 697674
1, 43832, Tempo, 689655
1, 43840, Tempo, 681818
1, 43848, Tempo, 674157
1, 43856, Tempo, 666666
1, 43864, Tempo, 659340
1, 43872, Tempo, 652173
1, 44928, Tempo, 722891
1, 44936, Tempo, 714285
1, 44948, Tempo, 705882
1, 44960, Tempo, 697674
1, 44968, Tempo, 689655
1, 44980, Tempo, 681818
1, 44992, Tempo, 674157
1, 45000, Tempo, 666666
1, 45012, Tempo, 659340
1, 45024, Tempo, 652173
1, 48384, Tempo, 722891
1, 48392, Tempo, 714285
1, 48404, Tempo, 705882
1, 48416, Tempo, 697674
1, 48424, Tempo, 689655
1, 48436, Tempo, 681818
1, 48448, Tempo, 674157
1, 48456, Tempo, 666666
1, 48468, Tempo, 659340
1, 48480, Tempo, 652173
1, 49536, Tempo, 697674
1, 49552, Tempo, 689655
1, 49568, Tempo, 681818
1, 49584, Tempo, 674157
1, 49600, Tempo, 666666
1, 49616, Tempo, 659340
1, 49632, Tempo, 652173
1, 51840, Tempo, 750000
1, 51856, Tempo, 740740
1, 51872, Tempo, 731707
1, 51888, Tempo, 722891
1, 51904, Tempo, 714285
1, 51920, Tempo, 705882
1, 51936, Tempo, 697674
1, 51984, Tempo, 674157
1, 52032, Tempo, 666666
1, 52080, Tempo, 659340
1, 52128, Tempo, 652173
1, 54144, Tempo, 652173
1, 54152, Tempo, 714285
1, 54164, Tempo, 705882
1, 54176, Tempo, 697674
1, 54184, Tempo, 689655
1, 54196, Tempo, 681818
1, 54208, Tempo, 674157
1, 54216, Tempo, 666666
1, 54228, Tempo, 659340
1, 54240, Tempo, 652173
1, 54720, Tempo, 652173
1, 54744, Tempo, 659340
1, 54768, Tempo, 666666
1, 54792, Tempo, 674157
1, 54816, Tempo, 681818
1, 54840, Tempo, 689655
1, 54864, Tempo, 697674
1, 54888, Tempo, 705882
1, 54912, Tempo, 714285
1, 55296, Tempo, 722891
1, 55316, Tempo, 714285
1, 55336, Tempo, 705882
1, 55360, Tempo, 697674
1, 55380, Tempo, 689655
1, 55400, Tempo, 681818
1, 55424, Tempo, 674157
1, 55444, Tempo, 666666
1, 55464, Tempo, 659340
1, 55488, Tempo, 652173
1, 59520, Tempo, 652173
1, 59584, Tempo, 659340
1, 59648, Tempo, 666666
1, 59712, Tempo, 674157
1, 59776, Tempo, 681818
1, 59840, Tempo, 689655
1, 59904, Tempo, 750000
1, 59912, Tempo, 740740
1, 59920, Tempo, 731707
1, 59928, Tempo, 722891
1, 59936, Tempo, 714285
1, 59944, Tempo, 705882
1, 59952, Tempo, 697674
1, 59960, Tempo, 689655
1, 59968, Tempo, 681818
1, 59976, Tempo, 674157
1, 59984, Tempo, 666666
1, 59992, Tempo, 659340
1, 60000, Tempo, 652173
1, 61920, Tempo, 652173
1, 61968, Tempo, 659340
1, 62016, Tempo, 666666
1, 62064, Tempo, 674157
1, 62112, Tempo, 681818
1, 62160, Tempo, 689655
1, 62208, Tempo, 750000
1, 62224, Tempo, 740740
1, 62240, Tempo, 731707
1, 62256, Tempo, 722891
1, 62272, Tempo, 714285
1, 62288, Tempo, 705882
1, 62304, Tempo, 697674
1, 62320, Tempo, 689655
1, 62336, Tempo, 681818
1, 62352, Tempo, 674157
1, 62368, Tempo, 666666
1, 62384, Tempo, 659340
1, 62400, Tempo, 652173
1, 63072, Tempo, 652173
1, 63112, Tempo, 659340
1, 63152, Tempo, 666666
1, 63192, Tempo, 674157
1, 63236, Tempo, 681818
1, 63276, Tempo, 689655
1, 63316, Tempo, 697674
1, 63360, Tempo, 750000
1, 63368, Tempo, 740740
1, 63376, Tempo, 731707
1, 63384, Tempo, 722891
1, 63392, Tempo, 714285
1, 63400, Tempo, 705882
1, 63408, Tempo, 697674
1, 63416, Tempo, 689655
1, 63424, Tempo, 681818
1, 63432, Tempo, 674157
1, 63440, Tempo, 666666
1, 63448, Tempo, 659340
1, 63456, Tempo, 652173
1, 64512, Tempo, 722891
1, 64520, Tempo, 714285
1, 64532, Tempo, 705882
1, 64544, Tempo, 697674
1, 64552, Tempo, 689655
1, 64564, Tempo, 681818
1, 64576, Tempo, 674157
1, 64584, Tempo, 666666
1, 64596, Tempo, 659340
1, 64608, Tempo, 652173
1, 66816, Tempo, 750000
1, 66832, Tempo, 740740
1, 66848, Tempo, 731707
1, 66864, Tempo, 722891
1, 66880, Tempo, 714285
1, 66896, Tempo, 705882
1, 66912, Tempo, 697674
1, 66928, Tempo, 689655
1, 66944, Tempo, 681818
1, 66960, Tempo, 674157
1, 66976, Tempo, 666666
1, 66992, Tempo, 659340
1, 67008, Tempo, 652173
1, 67968, Tempo, 697674
1, 67984, Tempo, 689655
1, 68000, Tempo, 681818
1, 68016, Tempo, 674157
1, 68032, Tempo, 666666
1, 68048, Tempo, 659340
1, 68064, Tempo, 652173
1, 69984, Tempo, 652173
1, 70024, Tempo, 659340
1, 70064, Tempo, 666666
1, 70104, Tempo, 674157
1, 70148, Tempo, 681818
1, 70188, Tempo, 689655
1, 70228, Tempo, 697674
1, 70272, Tempo, 705882
1, 70280, Tempo, 845070
1, 70288, Tempo, 833333
1, 70300, Tempo, 821917
1, 70308, Tempo, 810810
1, 70320, Tempo, 800000
1, 70328, Tempo, 789473
1, 70336, Tempo, 779220
1, 70348, Tempo, 769230
1, 70356, Tempo, 759493
1, 70368, Tempo, 750000
1, 70384, Tempo, 689655
1, 70400, Tempo, 681818
1, 70416, Tempo, 674157
1, 70432, Tempo, 666666
1, 70448, Tempo, 659340
1, 70464, Tempo, 652173
1, 70488, Tempo, 674157
1, 70512, Tempo, 666666
1, 70536, Tempo, 659340
1, 70560, Tempo, 652173
1, 71424, Tempo, 652173
1, 71436, Tempo, 705882
1, 71448, Tempo, 697674
1, 71460, Tempo, 689655
1, 71472, Tempo, 681818
1, 71484, Tempo, 674157
1, 71496, Tempo, 666666
1, 71508, Tempo, 659340
1, 71520, Tempo, 652173
1, 72192, Tempo, 714285
1, 72204, Tempo, 705882
1, 72216, Tempo, 697674
1, 72228, Tempo, 689655
1, 72240, Tempo, 681818
1, 72252, Tempo, 674157
1, 72264, Tempo, 666666
1, 72276, Tempo, 659340
1, 72288, Tempo, 652173
1, 72576, Tempo, 895522
1, 72640, Tempo, 659340
1, 72704, Tempo, 666666
1, 72768, Tempo, 674157
1, 72832, Tempo, 681818
1, 72896, Tempo, 689655
1, 72960, Tempo, 697674
1, 72972, Tempo, 705882
1, 72988, Tempo, 714285
1, 73004, Tempo, 722891
1, 73016, Tempo, 731707
1, 73032, Tempo, 740740
1, 73048, Tempo, 750000
1, 73060, Tempo, 759493
1, 73076, Tempo, 769230
1, 73092, Tempo, 779220
1, 73104, Tempo, 789473
1, 73120, Tempo, 800000
1, 73136, Tempo, 810810
1, 73152, Tempo, 821917
1, 73164, Tempo, 833333
1, 73180, Tempo, 845070
1, 73196, Tempo, 857142
1, 73208, Tempo, 869565
1, 73224, Tempo, 882352
1, 73240, Tempo, 895522
1, 73248, Tempo, 1500000
1, 73252, Tempo, 1463414
1, 73256, Tempo, 1428571
1, 73260, Tempo, 1395348
1, 73264, Tempo, 1363636
1, 73272, Tempo, 1333333
1, 73276, Tempo, 1304347
1, 73280, Tempo, 1276595
1, 73284, Tempo, 1250000
1, 73288, Tempo, 1224489
1, 73296, Tempo, 1200000
1, 73300, Tempo, 1176470
1, 73304, Tempo, 1153846
1, 73308, Tempo, 1132075
1, 73312, Tempo, 1111111
1, 73320, Tempo, 1090909
1, 73324, Tempo, 1071428
1, 73328, Tempo, 1052631
1, 73332, Tempo, 1034482
1, 73336, Tempo, 1016949
1, 73344, Tempo, 1000000
1, 73344, End_track
2, 0, Start_track
2, 0, Title_t, "Johann Sebastian Bach"
2, 0, Control_c, 0, 0, 0
2, 0, Program_c, 0, 6
2, 0, Control_c, 0, 7, 127
2, 0, Control_c, 0, 10, 0
2, 0, Control_c, 0, 91, 127
2, 0, Key_signature, 1, "major"
2, 0, Note_on_c, 0, 67, 127
2, 92, Note_off_c, 0, 67, 100
2, 96, Note_on_c, 0, 66, 127
2, 188, Note_off_c, 0, 66, 100
2, 192, Note_on_c, 0, 67, 127
2, 380, Note_off_c, 0, 67, 100
2, 480, Note_on_c, 0, 62, 127
2, 572, Note_off_c, 0, 62, 100
2, 576, Note_on_c, 0, 64, 127
2, 668, Note_off_c, 0, 64, 100
2, 672, Note_on_c, 0, 66, 127
2, 764, Note_off_c, 0, 66, 100
2, 768, Note_on_c, 0, 67, 127
2, 860, Note_off_c, 0, 67, 100
2, 864, Note_on_c, 0, 69, 127
2, 956, Note_off_c, 0, 69, 100
2, 960, Note_on_c, 0, 71, 127
2, 1052, Note_off_c, 0, 71, 100
2, 1056, Note_on_c, 0, 73, 127
2, 1120, Note_off_c, 0, 73, 100
2, 1152, Note_on_c, 0, 74, 127
2, 1244, Note_off_c, 0, 74, 100
2, 1248, Note_on_c, 0, 73, 127
2, 1340, Note_off_c, 0, 73, 100
2, 1344, Note_on_c, 0, 74, 127
2, 1532, Note_off_c, 0, 74, 100
2, 1632, Note_on_c, 0, 69, 127
2, 1724, Note_off_c, 0, 69, 100
2, 1728, Note_on_c, 0, 71, 127
2, 1820, Note_off_c, 0, 71, 100
2, 1824, Note_on_c, 0, 73, 127
2, 1916, Note_off_c, 0, 73, 100
2, 1920, Note_on_c, 0, 74, 127
2, 2012, Note_off_c, 0, 74, 100
2, 2016, Note_on_c, 0, 76, 127
2, 2108, Note_off_c, 0, 76, 100
2, 2112, Note_on_c, 0, 78, 127
2, 2204, Note_off_c, 0, 78, 100
2, 2208, Note_on_c, 0, 74, 127
2, 2272, Note_off_c, 0, 74, 100
2, 2304, Note_on_c, 0, 79, 127
2, 2396, Note_off_c, 0, 79, 100
2, 2400, Note_on_c, 0, 78, 127
2, 2492, Note_off_c, 0, 78, 100
2, 2496, Note_on_c, 0, 79, 127
2, 2684, Note_off_c, 0, 79, 100
2, 2784, Note_on_c, 0, 78, 127
2, 2876, Note_off_c, 0, 78, 100
2, 2880, Note_on_c, 0, 76, 127
2, 2972, Note_off_c, 0, 76, 100
2, 2976, Note_on_c, 0, 74, 127
2, 3040, Note_off_c, 0, 74, 100
2, 3072, Note_on_c, 0, 73, 127
2, 3164, Note_off_c, 0, 73, 100
2, 3168, Note_on_c, 0, 76, 127
2, 3232, Note_off_c, 0, 76, 100
2, 3264, Note_on_c, 0, 69, 127
2, 3356, Note_off_c, 0, 69, 100
2, 3360, Note_on_c, 0, 67, 127
2, 3452, Note_off_c, 0, 67, 100
2, 3456, Note_on_c, 0, 66, 127
2, 3520, Note_off_c, 0, 66, 100
2, 3552, Note_on_c, 0, 64, 127
2, 3644, Note_off_c, 0, 64, 100
2, 3648, Note_on_c, 0, 62, 127
2, 3740, Note_off_c, 0, 62, 100
2, 3744, Note_on_c, 0, 61, 127
2, 3808, Note_off_c, 0, 61, 100
2, 3840, Note_on_c, 0, 62, 127
2, 3932, Note_off_c, 0, 62, 100
2, 3936, Note_on_c, 0, 66, 127
2, 4000, Note_off_c, 0, 66, 100
2, 4032, Note_on_c, 0, 57, 127
2, 4124, Note_off_c, 0, 57, 100
2, 4128, Note_on_c, 0, 55, 127
2, 4192, Note_off_c, 0, 55, 100
2, 4224, Note_on_c, 0, 54, 127
2, 4316, Note_off_c, 0, 54, 100
2, 4320, Note_on_c, 0, 57, 127
2, 4384, Note_off_c, 0, 57, 100
2, 4416, Note_on_c, 0, 50, 127
2, 4604, Note_off_c, 0, 50, 100
2, 4800, Note_on_c, 0, 74, 127
2, 4892, Note_off_c, 0, 74, 100
2, 4896, Note_on_c, 0, 72, 127
2, 4988, Note_off_c, 0, 72, 100
2, 4992, Note_on_c, 0, 74, 127
2, 5052, Note_off_c, 0, 74, 100
2, 5184, Note_on_c, 0, 67, 127
2, 5244, Note_off_c, 0, 67, 100
2, 5376, Note_on_c, 0, 59, 127
2, 5464, Note_off_c, 0, 59, 100
2, 5568, Note_on_c, 0, 74, 127
2, 5696, Note_off_c, 0, 74, 100
2, 5952, Note_on_c, 0, 76, 127
2, 6044, Note_off_c, 0, 76, 100
2, 6048, Note_on_c, 0, 74, 127
2, 6140, Note_off_c, 0, 74, 100
2, 6144, Note_on_c, 0, 76, 127
2, 6204, Note_off_c, 0, 76, 100
2, 6336, Note_on_c, 0, 69, 127
2, 6396, Note_off_c, 0, 69, 100
2, 6528, Note_on_c, 0, 60, 127
2, 6616, Note_off_c, 0, 60, 100
2, 6720, Note_on_c, 0, 76, 127
2, 6848, Note_off_c, 0, 76, 100
2, 7104, Note_on_c, 0, 78, 127
2, 7196, Note_off_c, 0, 78, 100
2, 7200, Note_on_c, 0, 76, 127
2, 7292, Note_off_c, 0, 76, 100
2, 7296, Note_on_c, 0, 78, 127
2, 7356, Note_off_c, 0, 78, 100
2, 7488, Note_on_c, 0, 74, 127
2, 7548, Note_off_c, 0, 74, 100
2, 7680, Note_on_c, 0, 81, 127
2, 7740, Note_off_c, 0, 81, 100
2, 7872, Note_on_c, 0, 72, 127
2, 8252, Note_off_c, 0, 72, 100
2, 8256, Note_on_c, 0, 71, 127
2, 8444, Note_off_c, 0, 71, 100
2, 8544, Note_on_c, 0, 67, 127
2, 8636, Note_off_c, 0, 67, 100
2, 8640, Note_on_c, 0, 71, 127
2, 8732, Note_off_c, 0, 71, 100
2, 8736, Note_on_c, 0, 74, 127
2, 8828, Note_off_c, 0, 74, 100
2, 8832, Note_on_c, 0, 79, 127
2, 8896, Note_off_c, 0, 79, 100
2, 8928, Note_on_c, 0, 74, 127
2, 9020, Note_off_c, 0, 74, 100
2, 9024, Note_on_c, 0, 79, 127
2, 9116, Note_off_c, 0, 79, 100
2, 9120, Note_on_c, 0, 81, 127
2, 9184, Note_off_c, 0, 81, 100
2, 9216, Note_on_c, 0, 83, 127
2, 9308, Note_off_c, 0, 83, 100
2, 9312, Note_on_c, 0, 79, 127
2, 9404, Note_off_c, 0, 79, 100
2, 9408, Note_on_c, 0, 74, 127
2, 9500, Note_off_c, 0, 74, 100
2, 9504, Note_on_c, 0, 71, 127
2, 9596, Note_off_c, 0, 71, 100
2, 9600, Note_on_c, 0, 67, 127
2, 9664, Note_off_c, 0, 67, 100
2, 9696, Note_on_c, 0, 71, 127
2, 9788, Note_off_c, 0, 71, 100
2, 9792, Note_on_c, 0, 74, 127
2, 9884, Note_off_c, 0, 74, 100
2, 9888, Note_on_c, 0, 79, 127
2, 9952, Note_off_c, 0, 79, 100
2, 9984, Note_on_c, 0, 83, 127
2, 10076, Note_off_c, 0, 83, 100
2, 10080, Note_on_c, 0, 79, 127
2, 10172, Note_off_c, 0, 79, 100
2, 10176, Note_on_c, 0, 78, 127
2, 10268, Note_off_c, 0, 78, 100
2, 10272, Note_on_c, 0, 76, 127
2, 10336, Note_off_c, 0, 76, 100
2, 10368, Note_on_c, 0, 81, 127
2, 10460, Note_off_c, 0, 81, 100
2, 10464, Note_on_c, 0, 76, 127
2, 10556, Note_off_c, 0, 76, 100
2, 10560, Note_on_c, 0, 73, 127
2, 10652, Note_off_c, 0, 73, 100
2, 10656, Note_on_c, 0, 69, 127
2, 10748, Note_off_c, 0, 69, 100
2, 10752, Note_on_c, 0, 66, 127
2, 10816, Note_off_c, 0, 66, 100
2, 10848, Note_on_c, 0, 69, 127
2, 10940, Note_off_c, 0, 69, 100
2, 10944, Note_on_c, 0, 73, 127
2, 11036, Note_off_c, 0, 73, 100
2, 11040, Note_on_c, 0, 76, 127
2, 11104, Note_off_c, 0, 76, 100
2, 11136, Note_on_c, 0, 81, 127
2, 11228, Note_off_c, 0, 81, 100
2, 11232, Note_on_c, 0, 78, 127
2, 11324, Note_off_c, 0, 78, 100
2, 11328, Note_on_c, 0, 76, 127
2, 11420, Note_off_c, 0, 76, 100
2, 11424, Note_on_c, 0, 74, 127
2, 11488, Note_off_c, 0, 74, 100
2, 11520, Note_on_c, 0, 79, 127
2, 11612, Note_off_c, 0, 79, 100
2, 11616, Note_on_c, 0, 74, 127
2, 11708, Note_off_c, 0, 74, 100
2, 11712, Note_on_c, 0, 71, 127
2, 11804, Note_off_c, 0, 71, 100
2, 11808, Note_on_c, 0, 67, 127
2, 11900, Note_off_c, 0, 67, 100
2, 11904, Note_on_c, 0, 64, 127
2, 11968, Note_off_c, 0, 64, 100
2, 12000, Note_on_c, 0, 67, 127
2, 12092, Note_off_c, 0, 67, 100
2, 12096, Note_on_c, 0, 71, 127
2, 12188, Note_off_c, 0, 71, 100
2, 12192, Note_on_c, 0, 74, 127
2, 12256, Note_off_c, 0, 74, 100
2, 12288, Note_on_c, 0, 79, 127
2, 12380, Note_off_c, 0, 79, 100
2, 12384, Note_on_c, 0, 78, 127
2, 12476, Note_off_c, 0, 78, 100
2, 12480, Note_on_c, 0, 76, 127
2, 12572, Note_off_c, 0, 76, 100
2, 12576, Note_on_c, 0, 74, 127
2, 12640, Note_off_c, 0, 74, 100
2, 12672, Note_on_c, 0, 73, 127
2, 12764, Note_off_c, 0, 73, 100
2, 12768, Note_on_c, 0, 67, 127
2, 12860, Note_off_c, 0, 67, 100
2, 12864, Note_on_c, 0, 64, 127
2, 12956, Note_off_c, 0, 64, 100
2, 12960, Note_on_c, 0, 61, 127
2, 13052, Note_off_c, 0, 61, 100
2, 13056, Note_on_c, 0, 57, 127
2, 13120, Note_off_c, 0, 57, 100
2, 13152, Note_on_c, 0, 61, 127
2, 13244, Note_off_c, 0, 61, 100
2, 13248, Note_on_c, 0, 64, 127
2, 13340, Note_off_c, 0, 64, 100
2, 13344, Note_on_c, 0, 67, 127
2, 13408, Note_off_c, 0, 67, 100
2, 13440, Note_on_c, 0, 73, 127
2, 13532, Note_off_c, 0, 73, 100
2, 13536, Note_on_c, 0, 76, 127
2, 13628, Note_off_c, 0, 76, 100
2, 13632, Note_on_c, 0, 74, 127
2, 13724, Note_off_c, 0, 74, 100
2, 13728, Note_on_c, 0, 73, 127
2, 13792, Note_off_c, 0, 73, 100
2, 13824, Note_on_c, 0, 74, 127
2, 13952, Note_off_c, 0, 74, 100
2, 14016, Note_on_c, 0, 54, 127
2, 14076, Note_off_c, 0, 54, 100
2, 14208, Note_on_c, 0, 54, 127
2, 14268, Note_off_c, 0, 54, 100
2, 14400, Note_on_c, 0, 69, 127
2, 14460, Note_off_c, 0, 69, 100
2, 14592, Note_on_c, 0, 74, 127
2, 14652, Note_off_c, 0, 74, 100
2, 14784, Note_on_c, 0, 78, 127
2, 14844, Note_off_c, 0, 78, 100
2, 14976, Note_on_c, 0, 71, 127
2, 15104, Note_off_c, 0, 71, 100
2, 15168, Note_on_c, 0, 55, 127
2, 15228, Note_off_c, 0, 55, 100
2, 15360, Note_on_c, 0, 55, 127
2, 15420, Note_off_c, 0, 55, 100
2, 15552, Note_on_c, 0, 71, 127
2, 15612, Note_off_c, 0, 71, 100
2, 15744, Note_on_c, 0, 76, 127
2, 15804, Note_off_c, 0, 76, 100
2, 15936, Note_on_c, 0, 79, 127
2, 15996, Note_off_c, 0, 79, 100
2, 16128, Note_on_c, 0, 73, 127
2, 16220, Note_off_c, 0, 73, 100
2, 16224, Note_on_c, 0, 76, 127
2, 16288, Note_off_c, 0, 76, 100
2, 16320, Note_on_c, 0, 69, 127
2, 16412, Note_off_c, 0, 69, 100
2, 16416, Note_on_c, 0, 67, 127
2, 16508, Note_off_c, 0, 67, 100
2, 16512, Note_on_c, 0, 66, 127
2, 16576, Note_off_c, 0, 66, 100
2, 16608, Note_on_c, 0, 69, 127
2, 16700, Note_off_c, 0, 69, 100
2, 16704, Note_on_c, 0, 74, 127
2, 16796, Note_off_c, 0, 74, 100
2, 16800, Note_on_c, 0, 78, 127
2, 16864, Note_off_c, 0, 78, 100
2, 16896, Note_on_c, 0, 79, 127
2, 16988, Note_off_c, 0, 79, 100
2, 16992, Note_on_c, 0, 76, 127
2, 17084, Note_off_c, 0, 76, 100
2, 17088, Note_on_c, 0, 74, 127
2, 17180, Note_off_c, 0, 74, 100
2, 17184, Note_on_c, 0, 73, 127
2, 17248, Note_off_c, 0, 73, 100
2, 17280, Note_on_c, 0, 78, 127
2, 17344, Note_off_c, 0, 78, 100
2, 17376, Note_on_c, 0, 74, 127
2, 17468, Note_off_c, 0, 74, 100
2, 17472, Note_on_c, 0, 73, 127
2, 17564, Note_off_c, 0, 73, 100
2, 17568, Note_on_c, 0, 71, 127
2, 17660, Note_off_c, 0, 71, 100
2, 17664, Note_on_c, 0, 69, 127
2, 17728, Note_off_c, 0, 69, 100
2, 17760, Note_on_c, 0, 67, 127
2, 17852, Note_off_c, 0, 67, 100
2, 17856, Note_on_c, 0, 66, 127
2, 17948, Note_off_c, 0, 66, 100
2, 17952, Note_on_c, 0, 64, 127
2, 18044, Note_off_c, 0, 64, 100
2, 18048, Note_on_c, 0, 62, 127
2, 18304, Note_off_c, 0, 62, 100
2, 18432, Note_on_c, 0, 67, 112
2, 18524, Note_off_c, 0, 67, 100
2, 18528, Note_on_c, 0, 66, 112
2, 18620, Note_off_c, 0, 66, 100
2, 18624, Note_on_c, 0, 67, 112
2, 18812, Note_off_c, 0, 67, 100
2, 18912, Note_on_c, 0, 62, 112
2, 19004, Note_off_c, 0, 62, 100
2, 19008, Note_on_c, 0, 64, 112
2, 19100, Note_off_c, 0, 64, 100
2, 19104, Note_on_c, 0, 66, 112
2, 19196, Note_off_c, 0, 66, 100
2, 19200, Note_on_c, 0, 67, 112
2, 19292, Note_off_c, 0, 67, 100
2, 19296, Note_on_c, 0, 69, 112
2, 19388, Note_off_c, 0, 69, 100
2, 19392, Note_on_c, 0, 71, 112
2, 19484, Note_off_c, 0, 71, 100
2, 19488, Note_on_c, 0, 73, 112
2, 19552, Note_off_c, 0, 73, 100
2, 19584, Note_on_c, 0, 74, 112
2, 19676, Note_off_c, 0, 74, 100
2, 19680, Note_on_c, 0, 73, 112
2, 19772, Note_off_c, 0, 73, 100
2, 19776, Note_on_c, 0, 74, 112
2, 19964, Note_off_c, 0, 74, 100
2, 20064, Note_on_c, 0, 69, 112
2, 20156, Note_off_c, 0, 69, 100
2, 20160, Note_on_c, 0, 71, 112
2, 20252, Note_off_c, 0, 71, 100
2, 20256, Note_on_c, 0, 73, 112
2, 20348, Note_off_c, 0, 73, 100
2, 20352, Note_on_c, 0, 74, 112
2, 20444, Note_off_c, 0, 74, 100
2, 20448, Note_on_c, 0, 76, 112
2, 20540, Note_off_c, 0, 76, 100
2, 20544, Note_on_c, 0, 78, 112
2, 20636, Note_off_c, 0, 78, 100
2, 20640, Note_on_c, 0, 74, 112
2, 20704, Note_off_c, 0, 74, 100
2, 20736, Note_on_c, 0, 79, 112
2, 20828, Note_off_c, 0, 79, 100
2, 20832, Note_on_c, 0, 78, 112
2, 20924, Note_off_c, 0, 78, 100
2, 20928, Note_on_c, 0, 79, 112
2, 21116, Note_off_c, 0, 79, 100
2, 21216, Note_on_c, 0, 78, 112
2, 21308, Note_off_c, 0, 78, 100
2, 21312, Note_on_c, 0, 76, 112
2, 21404, Note_off_c, 0, 76, 100
2, 21408, Note_on_c, 0, 74, 112
2, 21472, Note_off_c, 0, 74, 100
2, 21504, Note_on_c, 0, 73, 112
2, 21596, Note_off_c, 0, 73, 100
2, 21600, Note_on_c, 0, 76, 112
2, 21664, Note_off_c, 0, 76, 100
2, 21696, Note_on_c, 0, 69, 112
2, 21788, Note_off_c, 0, 69, 100
2, 21792, Note_on_c, 0, 67, 112
2, 21884, Note_off_c, 0, 67, 100
2, 21888, Note_on_c, 0, 66, 112
2, 21952, Note_off_c, 0, 66, 100
2, 21984, Note_on_c, 0, 64, 112
2, 22076, Note_off_c, 0, 64, 100
2, 22080, Note_on_c, 0, 62, 112
2, 22172, Note_off_c, 0, 62, 100
2, 22176, Note_on_c, 0, 61, 112
2, 22240, Note_off_c, 0, 61, 100
2, 22272, Note_on_c, 0, 62, 112
2, 22364, Note_off_c, 0, 62, 100
2, 22368, Note_on_c, 0, 66, 112
2, 22432, Note_off_c, 0, 66, 100
2, 22464, Note_on_c, 0, 57, 112
2, 22556, Note_off_c, 0, 57, 100
2, 22560, Note_on_c, 0, 55, 112
2, 22624, Note_off_c, 0, 55, 100
2, 22656, Note_on_c, 0, 54, 112
2, 22748, Note_off_c, 0, 54, 100
2, 22752, Note_on_c, 0, 57, 112
2, 22816, Note_off_c, 0, 57, 100
2, 22848, Note_on_c, 0, 50, 112
2, 23036, Note_off_c, 0, 50, 100
2, 23232, Note_on_c, 0, 74, 112
2, 23324, Note_off_c, 0, 74, 100
2, 23328, Note_on_c, 0, 72, 112
2, 23420, Note_off_c, 0, 72, 100
2, 23424, Note_on_c, 0, 74, 112
2, 23484, Note_off_c, 0, 74, 100
2, 23616, Note_on_c, 0, 67, 112
2, 23676, Note_off_c, 0, 67, 100
2, 23808, Note_on_c, 0, 59, 112
2, 23896, Note_off_c, 0, 59, 100
2, 24000, Note_on_c, 0, 74, 112
2, 24128, Note_off_c, 0, 74, 100
2, 24384, Note_on_c, 0, 76, 112
2, 24476, Note_off_c, 0, 76, 100
2, 24480, Note_on_c, 0, 74, 112
2, 24572, Note_off_c, 0, 74, 100
2, 24576, Note_on_c, 0, 76, 112
2, 24636, Note_off_c, 0, 76, 100
2, 24768, Note_on_c, 0, 69, 112
2, 24828, Note_off_c, 0, 69, 100
2, 24960, Note_on_c, 0, 60, 112
2, 25048, Note_off_c, 0, 60, 100
2, 25152, Note_on_c, 0, 76, 112
2, 25280, Note_off_c, 0, 76, 100
2, 25536, Note_on_c, 0, 78, 112
2, 25628, Note_off_c, 0, 78, 100
2, 25632, Note_on_c, 0, 76, 112
2, 25724, Note_off_c, 0, 76, 100
2, 25728, Note_on_c, 0, 78, 112
2, 25788, Note_off_c, 0, 78, 100
2, 25920, Note_on_c, 0, 74, 112
2, 25980, Note_off_c, 0, 74, 100
2, 26112, Note_on_c, 0, 81, 112
2, 26172, Note_off_c, 0, 81, 100
2, 26304, Note_on_c, 0, 72, 112
2, 26684, Note_off_c, 0, 72, 100
2, 26688, Note_on_c, 0, 71, 112
2, 26876, Note_off_c, 0, 71, 100
2, 26976, Note_on_c, 0, 67, 112
2, 27068, Note_off_c, 0, 67, 100
2, 27072, Note_on_c, 0, 71, 112
2, 27164, Note_off_c, 0, 71, 100
2, 27168, Note_on_c, 0, 74, 112
2, 27260, Note_off_c, 0, 74, 100
2, 27264, Note_on_c, 0, 79, 112
2, 27328, Note_off_c, 0, 79, 100
2, 27360, Note_on_c, 0, 74, 112
2, 27452, Note_off_c, 0, 74, 100
2, 27456, Note_on_c, 0, 79, 112
2, 27548, Note_off_c, 0, 79, 100
2, 27552, Note_on_c, 0, 81, 112
2, 27616, Note_off_c, 0, 81, 100
2, 27648, Note_on_c, 0, 83, 112
2, 27740, Note_off_c, 0, 83, 100
2, 27744, Note_on_c, 0, 79, 112
2, 27836, Note_off_c, 0, 79, 100
2, 27840, Note_on_c, 0, 74, 112
2, 27932, Note_off_c, 0, 74, 100
2, 27936, Note_on_c, 0, 71, 112
2, 28028, Note_off_c, 0, 71, 100
2, 28032, Note_on_c, 0, 67, 112
2, 28096, Note_off_c, 0, 67, 100
2, 28128, Note_on_c, 0, 71, 112
2, 28220, Note_off_c, 0, 71, 100
2, 28224, Note_on_c, 0, 74, 112
2, 28316, Note_off_c, 0, 74, 100
2, 28320, Note_on_c, 0, 79, 112
2, 28384, Note_off_c, 0, 79, 100
2, 28416, Note_on_c, 0, 83, 112
2, 28508, Note_off_c, 0, 83, 100
2, 28512, Note_on_c, 0, 79, 112
2, 28556, Note_off_c, 0, 79, 100
2, 28560, Note_on_c, 0, 78, 112
2, 28580, Note_off_c, 0, 78, 100
2, 28584, Note_on_c, 0, 79, 112
2, 28604, Note_off_c, 0, 79, 100
2, 28608, Note_on_c, 0, 78, 112
2, 28700, Note_off_c, 0, 78, 100
2, 28704, Note_on_c, 0, 76, 112
2, 28768, Note_off_c, 0, 76, 100
2, 28800, Note_on_c, 0, 81, 112
2, 28892, Note_off_c, 0, 81, 100
2, 28896, Note_on_c, 0, 76, 112
2, 28988, Note_off_c, 0, 76, 100
2, 28992, Note_on_c, 0, 73, 112
2, 29084, Note_off_c, 0, 73, 100
2, 29088, Note_on_c, 0, 69, 112
2, 29180, Note_off_c, 0, 69, 100
2, 29184, Note_on_c, 0, 66, 112
2, 29248, Note_off_c, 0, 66, 100
2, 29280, Note_on_c, 0, 69, 112
2, 29372, Note_off_c, 0, 69, 100
2, 29376, Note_on_c, 0, 73, 112
2, 29468, Note_off_c, 0, 73, 100
2, 29472, Note_on_c, 0, 76, 112
2, 29536, Note_off_c, 0, 76, 100
2, 29568, Note_on_c, 0, 81, 112
2, 29660, Note_off_c, 0, 81, 100
2, 29664, Note_on_c, 0, 78, 112
2, 29708, Note_off_c, 0, 78, 100
2, 29712, Note_on_c, 0, 76, 112
2, 29732, Note_off_c, 0, 76, 100
2, 29736, Note_on_c, 0, 78, 112
2, 29756, Note_off_c, 0, 78, 100
2, 29760, Note_on_c, 0, 76, 112
2, 29852, Note_off_c, 0, 76, 100
2, 29856, Note_on_c, 0, 74, 112
2, 29920, Note_off_c, 0, 74, 100
2, 29952, Note_on_c, 0, 79, 112
2, 30044, Note_off_c, 0, 79, 100
2, 30048, Note_on_c, 0, 74, 112
2, 30140, Note_off_c, 0, 74, 100
2, 30144, Note_on_c, 0, 71, 112
2, 30236, Note_off_c, 0, 71, 100
2, 30240, Note_on_c, 0, 67, 112
2, 30332, Note_off_c, 0, 67, 100
2, 30336, Note_on_c, 0, 64, 112
2, 30400, Note_off_c, 0, 64, 100
2, 30432, Note_on_c, 0, 67, 112
2, 30524, Note_off_c, 0, 67, 100
2, 30528, Note_on_c, 0, 71, 112
2, 30620, Note_off_c, 0, 71, 100
2, 30624, Note_on_c, 0, 74, 112
2, 30688, Note_off_c, 0, 74, 100
2, 30720, Note_on_c, 0, 79, 112
2, 30812, Note_off_c, 0, 79, 100
2, 30816, Note_on_c, 0, 78, 112
2, 30860, Note_off_c, 0, 78, 100
2, 30864, Note_on_c, 0, 76, 112
2, 30884, Note_off_c, 0, 76, 100
2, 30888, Note_on_c, 0, 78, 112
2, 30908, Note_off_c, 0, 78, 100
2, 30912, Note_on_c, 0, 76, 112
2, 31004, Note_off_c, 0, 76, 100
2, 31008, Note_on_c, 0, 74, 112
2, 31072, Note_off_c, 0, 74, 100
2, 31104, Note_on_c, 0, 73, 112
2, 31196, Note_off_c, 0, 73, 100
2, 31200, Note_on_c, 0, 67, 112
2, 31292, Note_off_c, 0, 67, 100
2, 31296, Note_on_c, 0, 64, 112
2, 31388, Note_off_c, 0, 64, 100
2, 31392, Note_on_c, 0, 61, 112
2, 31484, Note_off_c, 0, 61, 100
2, 31488, Note_on_c, 0, 57, 112
2, 31552, Note_off_c, 0, 57, 100
2, 31584, Note_on_c, 0, 61, 112
2, 31676, Note_off_c, 0, 61, 100
2, 31680, Note_on_c, 0, 64, 112
2, 31772, Note_off_c, 0, 64, 100
2, 31776, Note_on_c, 0, 67, 112
2, 31840, Note_off_c, 0, 67, 100
2, 31872, Note_on_c, 0, 73, 112
2, 31964, Note_off_c, 0, 73, 100
2, 31968, Note_on_c, 0, 76, 112
2, 32060, Note_off_c, 0, 76, 100
2, 32064, Note_on_c, 0, 74, 112
2, 32156, Note_off_c, 0, 74, 100
2, 32160, Note_on_c, 0, 73, 112
2, 32224, Note_off_c, 0, 73, 100
2, 32256, Note_on_c, 0, 74, 112
2, 32384, Note_off_c, 0, 74, 100
2, 32448, Note_on_c, 0, 54, 112
2, 32508, Note_off_c, 0, 54, 100
2, 32640, Note_on_c, 0, 54, 112
2, 32700, Note_off_c, 0, 54, 100
2, 32832, Note_on_c, 0, 69, 112
2, 32892, Note_off_c, 0, 69, 100
2, 33024, Note_on_c, 0, 74, 112
2, 33084, Note_off_c, 0, 74, 100
2, 33216, Note_on_c, 0, 78, 112
2, 33276, Note_off_c, 0, 78, 100
2, 33408, Note_on_c, 0, 71, 112
2, 33536, Note_off_c, 0, 71, 100
2, 33600, Note_on_c, 0, 55, 112
2, 33660, Note_off_c, 0, 55, 100
2, 33792, Note_on_c, 0, 55, 112
2, 33852, Note_off_c, 0, 55, 100
2, 33984, Note_on_c, 0, 71, 112
2, 34044, Note_off_c, 0, 71, 100
2, 34176, Note_on_c, 0, 76, 112
2, 34236, Note_off_c, 0, 76, 100
2, 34368, Note_on_c, 0, 79, 112
2, 34428, Note_off_c, 0, 79, 100
2, 34560, Note_on_c, 0, 73, 112
2, 34652, Note_off_c, 0, 73, 100
2, 34656, Note_on_c, 0, 76, 112
2, 34720, Note_off_c, 0, 76, 100
2, 34752, Note_on_c, 0, 69, 112
2, 34844, Note_off_c, 0, 69, 100
2, 34848, Note_on_c, 0, 67, 112
2, 34940, Note_off_c, 0, 67, 100
2, 34944, Note_on_c, 0, 66, 112
2, 35008, Note_off_c, 0, 66, 100
2, 35040, Note_on_c, 0, 69, 112
2, 35132, Note_off_c, 0, 69, 100
2, 35136, Note_on_c, 0, 74, 112
2, 35228, Note_off_c, 0, 74, 100
2, 35232, Note_on_c, 0, 78, 112
2, 35296, Note_off_c, 0, 78, 100
2, 35328, Note_on_c, 0, 79, 112
2, 35420, Note_off_c, 0, 79, 100
2, 35424, Note_on_c, 0, 76, 112
2, 35468, Note_off_c, 0, 76, 100
2, 35472, Note_on_c, 0, 74, 112
2, 35492, Note_off_c, 0, 74, 100
2, 35496, Note_on_c, 0, 76, 112
2, 35516, Note_off_c, 0, 76, 100
2, 35520, Note_on_c, 0, 74, 112
2, 35612, Note_off_c, 0, 74, 100
2, 35616, Note_on_c, 0, 73, 112
2, 35680, Note_off_c, 0, 73, 100
2, 35712, Note_on_c, 0, 78, 112
2, 35776, Note_off_c, 0, 78, 100
2, 35808, Note_on_c, 0, 74, 112
2, 35900, Note_off_c, 0, 74, 100
2, 35904, Note_on_c, 0, 73, 112
2, 35996, Note_off_c, 0, 73, 100
2, 36000, Note_on_c, 0, 71, 112
2, 36092, Note_off_c, 0, 71, 100
2, 36096, Note_on_c, 0, 69, 112
2, 36160, Note_off_c, 0, 69, 100
2, 36192, Note_on_c, 0, 67, 112
2, 36284, Note_off_c, 0, 67, 100
2, 36288, Note_on_c, 0, 66, 112
2, 36380, Note_off_c, 0, 66, 100
2, 36384, Note_on_c, 0, 64, 112
2, 36476, Note_off_c, 0, 64, 100
2, 36480, Note_on_c, 0, 62, 112
2, 36736, Note_off_c, 0, 62, 100
2, 36864, Note_on_c, 0, 78, 127
2, 36956, Note_off_c, 0, 78, 100
2, 36960, Note_on_c, 0, 79, 127
2, 37052, Note_off_c, 0, 79, 100
2, 37056, Note_on_c, 0, 81, 127
2, 37244, Note_off_c, 0, 81, 100
2, 37344, Note_on_c, 0, 83, 127
2, 37436, Note_off_c, 0, 83, 100
2, 37440, Note_on_c, 0, 81, 127
2, 37532, Note_off_c, 0, 81, 100
2, 37536, Note_on_c, 0, 79, 127
2, 37628, Note_off_c, 0, 79, 100
2, 37632, Note_on_c, 0, 78, 127
2, 37724, Note_off_c, 0, 78, 100
2, 37728, Note_on_c, 0, 76, 127
2, 37820, Note_off_c, 0, 76, 100
2, 37824, Note_on_c, 0, 74, 127
2, 37916, Note_off_c, 0, 74, 100
2, 37920, Note_on_c, 0, 72, 127
2, 37984, Note_off_c, 0, 72, 100
2, 38016, Note_on_c, 0, 71, 127
2, 38108, Note_off_c, 0, 71, 100
2, 38112, Note_on_c, 0, 72, 127
2, 38204, Note_off_c, 0, 72, 100
2, 38208, Note_on_c, 0, 74, 127
2, 38396, Note_off_c, 0, 74, 100
2, 38496, Note_on_c, 0, 76, 127
2, 38588, Note_off_c, 0, 76, 100
2, 38592, Note_on_c, 0, 74, 127
2, 38684, Note_off_c, 0, 74, 100
2, 38688, Note_on_c, 0, 72, 127
2, 38780, Note_off_c, 0, 72, 100
2, 38784, Note_on_c, 0, 71, 127
2, 38876, Note_off_c, 0, 71, 100
2, 38880, Note_on_c, 0, 69, 127
2, 38972, Note_off_c, 0, 69, 100
2, 38976, Note_on_c, 0, 67, 127
2, 39068, Note_off_c, 0, 67, 100
2, 39072, Note_on_c, 0, 66, 127
2, 39164, Note_off_c, 0, 66, 100
2, 39168, Note_on_c, 0, 64, 127
2, 39232, Note_off_c, 0, 64, 100
2, 39264, Note_on_c, 0, 68, 127
2, 39356, Note_off_c, 0, 68, 100
2, 39360, Note_on_c, 0, 69, 127
2, 39452, Note_off_c, 0, 69, 100
2, 39456, Note_on_c, 0, 71, 127
2, 39548, Note_off_c, 0, 71, 100
2, 39552, Note_on_c, 0, 69, 127
2, 39616, Note_off_c, 0, 69, 100
2, 39648, Note_on_c, 0, 64, 127
2, 39712, Note_off_c, 0, 64, 100
2, 39744, Note_on_c, 0, 69, 127
2, 39836, Note_off_c, 0, 69, 100
2, 39840, Note_on_c, 0, 71, 127
2, 39932, Note_off_c, 0, 71, 100
2, 39936, Note_on_c, 0, 72, 127
2, 40000, Note_off_c, 0, 72, 100
2, 40032, Note_on_c, 0, 69, 127
2, 40096, Note_off_c, 0, 69, 100
2, 40128, Note_on_c, 0, 75, 127
2, 40220, Note_off_c, 0, 75, 100
2, 40224, Note_on_c, 0, 76, 127
2, 40288, Note_off_c, 0, 76, 100
2, 40320, Note_on_c, 0, 78, 127
2, 40412, Note_off_c, 0, 78, 100
2, 40416, Note_on_c, 0, 76, 127
2, 40508, Note_off_c, 0, 76, 100
2, 40512, Note_on_c, 0, 75, 127
2, 40604, Note_off_c, 0, 75, 100
2, 40608, Note_on_c, 0, 73, 127
2, 40700, Note_off_c, 0, 73, 100
2, 40704, Note_on_c, 0, 71, 127
2, 41468, Note_off_c, 0, 71, 100
2, 41568, Note_on_c, 0, 75, 127
2, 41660, Note_off_c, 0, 75, 100
2, 41664, Note_on_c, 0, 76, 127
2, 41852, Note_off_c, 0, 76, 100
2, 41952, Note_on_c, 0, 63, 127
2, 42044, Note_off_c, 0, 63, 100
2, 42048, Note_on_c, 0, 64, 127
2, 42236, Note_off_c, 0, 64, 100
2, 42336, Note_on_c, 0, 51, 127
2, 42428, Note_off_c, 0, 51, 100
2, 42432, Note_on_c, 0, 52, 127
2, 42620, Note_off_c, 0, 52, 100
2, 42720, Note_on_c, 0, 80, 127
2, 42812, Note_off_c, 0, 80, 100
2, 42816, Note_on_c, 0, 81, 127
2, 43004, Note_off_c, 0, 81, 100
2, 43104, Note_on_c, 0, 68, 127
2, 43196, Note_off_c, 0, 68, 100
2, 43200, Note_on_c, 0, 69, 127
2, 43388, Note_off_c, 0, 69, 100
2, 43488, Note_on_c, 0, 56, 127
2, 43580, Note_off_c, 0, 56, 100
2, 43584, Note_on_c, 0, 57, 127
2, 43772, Note_off_c, 0, 57, 100
2, 43872, Note_on_c, 0, 59, 127
2, 43964, Note_off_c, 0, 59, 100
2, 43968, Note_on_c, 0, 60, 127
2, 44060, Note_off_c, 0, 60, 100
2, 44064, Note_on_c, 0, 66, 127
2, 44128, Note_off_c, 0, 66, 100
2, 44160, Note_on_c, 0, 59, 127
2, 44252, Note_off_c, 0, 59, 100
2, 44256, Note_on_c, 0, 63, 127
2, 44348, Note_off_c, 0, 63, 100
2, 44352, Note_on_c, 0, 64, 127
2, 44444, Note_off_c, 0, 64, 100
2, 44448, Note_on_c, 0, 67, 127
2, 44512, Note_off_c, 0, 67, 100
2, 44544, Note_on_c, 0, 66, 127
2, 44636, Note_off_c, 0, 66, 100
2, 44640, Note_on_c, 0, 64, 127
2, 44732, Note_off_c, 0, 64, 100
2, 44736, Note_on_c, 0, 63, 127
2, 44828, Note_off_c, 0, 63, 100
2, 44832, Note_on_c, 0, 69, 127
2, 44896, Note_off_c, 0, 69, 100
2, 44928, Note_on_c, 0, 67, 127
2, 45020, Note_off_c, 0, 67, 100
2, 45024, Note_on_c, 0, 66, 127
2, 45116, Note_off_c, 0, 66, 100
2, 45120, Note_on_c, 0, 64, 127
2, 45212, Note_off_c, 0, 64, 100
2, 45216, Note_on_c, 0, 63, 127
2, 45308, Note_off_c, 0, 63, 100
2, 45312, Note_on_c, 0, 64, 127
2, 45404, Note_off_c, 0, 64, 100
2, 45408, Note_on_c, 0, 67, 127
2, 45472, Note_off_c, 0, 67, 100
2, 45504, Note_on_c, 0, 59, 127
2, 45596, Note_off_c, 0, 59, 100
2, 45600, Note_on_c, 0, 57, 127
2, 45692, Note_off_c, 0, 57, 100
2, 45696, Note_on_c, 0, 55, 127
2, 45788, Note_off_c, 0, 55, 100
2, 45792, Note_on_c, 0, 59, 127
2, 45856, Note_off_c, 0, 59, 100
2, 45888, Note_on_c, 0, 52, 127
2, 46016, Note_off_c, 0, 52, 100
2, 46272, Note_on_c, 0, 76, 127
2, 46332, Note_off_c, 0, 76, 100
2, 46464, Note_on_c, 0, 72, 127
2, 46524, Note_off_c, 0, 72, 100
2, 46656, Note_on_c, 0, 76, 127
2, 46716, Note_off_c, 0, 76, 100
2, 46848, Note_on_c, 0, 81, 127
2, 46908, Note_off_c, 0, 81, 100
2, 47040, Note_on_c, 0, 69, 127
2, 47100, Note_off_c, 0, 69, 100
2, 47424, Note_on_c, 0, 74, 127
2, 47484, Note_off_c, 0, 74, 100
2, 47616, Note_on_c, 0, 71, 127
2, 47676, Note_off_c, 0, 71, 100
2, 47808, Note_on_c, 0, 74, 127
2, 47868, Note_off_c, 0, 74, 100
2, 48000, Note_on_c, 0, 79, 127
2, 48060, Note_off_c, 0, 79, 100
2, 48192, Note_on_c, 0, 67, 127
2, 48252, Note_off_c, 0, 67, 100
2, 48384, Note_on_c, 0, 72, 127
2, 48476, Note_off_c, 0, 72, 100
2, 48480, Note_on_c, 0, 69, 127
2, 48572, Note_off_c, 0, 69, 100
2, 48576, Note_on_c, 0, 64, 127
2, 48668, Note_off_c, 0, 64, 100
2, 48672, Note_on_c, 0, 60, 127
2, 48764, Note_off_c, 0, 60, 100
2, 48768, Note_on_c, 0, 57, 127
2, 48860, Note_off_c, 0, 57, 100
2, 48864, Note_on_c, 0, 60, 127
2, 48956, Note_off_c, 0, 60, 100
2, 48960, Note_on_c, 0, 64, 127
2, 49052, Note_off_c, 0, 64, 100
2, 49056, Note_on_c, 0, 69, 127
2, 49148, Note_off_c, 0, 69, 100
2, 49152, Note_on_c, 0, 72, 127
2, 49216, Note_off_c, 0, 72, 100
2, 49248, Note_on_c, 0, 69, 127
2, 49340, Note_off_c, 0, 69, 100
2, 49344, Note_on_c, 0, 72, 127
2, 49436, Note_off_c, 0, 72, 100
2, 49440, Note_on_c, 0, 76, 127
2, 49504, Note_off_c, 0, 76, 100
2, 49536, Note_on_c, 0, 78, 127
2, 49628, Note_off_c, 0, 78, 100
2, 49632, Note_on_c, 0, 72, 127
2, 49724, Note_off_c, 0, 72, 100
2, 49728, Note_on_c, 0, 69, 127
2, 49820, Note_off_c, 0, 69, 100
2, 49824, Note_on_c, 0, 66, 127
2, 49916, Note_off_c, 0, 66, 100
2, 49920, Note_on_c, 0, 62, 127
2, 50012, Note_off_c, 0, 62, 100
2, 50016, Note_on_c, 0, 66, 127
2, 50108, Note_off_c, 0, 66, 100
2, 50112, Note_on_c, 0, 69, 127
2, 50204, Note_off_c, 0, 69, 100
2, 50208, Note_on_c, 0, 72, 127
2, 50300, Note_off_c, 0, 72, 100
2, 50304, Note_on_c, 0, 78, 127
2, 50368, Note_off_c, 0, 78, 100
2, 50400, Note_on_c, 0, 72, 127
2, 50492, Note_off_c, 0, 72, 100
2, 50496, Note_on_c, 0, 78, 127
2, 50560, Note_off_c, 0, 78, 100
2, 50592, Note_on_c, 0, 81, 127
2, 50656, Note_off_c, 0, 81, 100
2, 50688, Note_on_c, 0, 83, 127
2, 50780, Note_off_c, 0, 83, 100
2, 50784, Note_on_c, 0, 79, 127
2, 50876, Note_off_c, 0, 79, 100
2, 50880, Note_on_c, 0, 74, 127
2, 50972, Note_off_c, 0, 74, 100
2, 50976, Note_on_c, 0, 71, 127
2, 51068, Note_off_c, 0, 71, 100
2, 51072, Note_on_c, 0, 67, 127
2, 51164, Note_off_c, 0, 67, 100
2, 51168, Note_on_c, 0, 71, 127
2, 51260, Note_off_c, 0, 71, 100
2, 51264, Note_on_c, 0, 74, 127
2, 51356, Note_off_c, 0, 74, 100
2, 51360, Note_on_c, 0, 79, 127
2, 51452, Note_off_c, 0, 79, 100
2, 51456, Note_on_c, 0, 83, 127
2, 51520, Note_off_c, 0, 83, 100
2, 51552, Note_on_c, 0, 79, 127
2, 51644, Note_off_c, 0, 79, 100
2, 51648, Note_on_c, 0, 83, 127
2, 51712, Note_off_c, 0, 83, 100
2, 51744, Note_on_c, 0, 86, 127
2, 51808, Note_off_c, 0, 86, 100
2, 51840, Note_on_c, 0, 76, 127
2, 51932, Note_off_c, 0, 76, 100
2, 51936, Note_on_c, 0, 86, 127
2, 52028, Note_off_c, 0, 86, 100
2, 52032, Note_on_c, 0, 84, 127
2, 52124, Note_off_c, 0, 84, 100
2, 52128, Note_on_c, 0, 76, 127
2, 52192, Note_off_c, 0, 76, 100
2, 52224, Note_on_c, 0, 74, 127
2, 52316, Note_off_c, 0, 74, 100
2, 52320, Note_on_c, 0, 84, 127
2, 52412, Note_off_c, 0, 84, 100
2, 52416, Note_on_c, 0, 83, 127
2, 52508, Note_off_c, 0, 83, 100
2, 52512, Note_on_c, 0, 74, 127
2, 52576, Note_off_c, 0, 74, 100
2, 52608, Note_on_c, 0, 72, 127
2, 52700, Note_off_c, 0, 72, 100
2, 52704, Note_on_c, 0, 76, 127
2, 52796, Note_off_c, 0, 76, 100
2, 52800, Note_on_c, 0, 78, 127
2, 52892, Note_off_c, 0, 78, 100
2, 52896, Note_on_c, 0, 79, 127
2, 52960, Note_off_c, 0, 79, 100
2, 52992, Note_on_c, 0, 81, 127
2, 53056, Note_off_c, 0, 81, 100
2, 53088, Note_on_c, 0, 72, 127
2, 53180, Note_off_c, 0, 72, 100
2, 53184, Note_on_c, 0, 71, 127
2, 53276, Note_off_c, 0, 71, 100
2, 53280, Note_on_c, 0, 69, 127
2, 53372, Note_off_c, 0, 69, 100
2, 53376, Note_on_c, 0, 71, 127
2, 53440, Note_off_c, 0, 71, 100
2, 53472, Note_on_c, 0, 74, 127
2, 53564, Note_off_c, 0, 74, 100
2, 53568, Note_on_c, 0, 71, 127
2, 53660, Note_off_c, 0, 71, 100
2, 53664, Note_on_c, 0, 67, 127
2, 53756, Note_off_c, 0, 67, 100
2, 53760, Note_on_c, 0, 72, 127
2, 53852, Note_off_c, 0, 72, 100
2, 53856, Note_on_c, 0, 69, 127
2, 53948, Note_off_c, 0, 69, 100
2, 53952, Note_on_c, 0, 67, 127
2, 54044, Note_off_c, 0, 67, 100
2, 54048, Note_on_c, 0, 66, 127
2, 54140, Note_off_c, 0, 66, 100
2, 54144, Note_on_c, 0, 71, 127
2, 54208, Note_off_c, 0, 71, 100
2, 54240, Note_on_c, 0, 67, 127
2, 54332, Note_off_c, 0, 67, 100
2, 54336, Note_on_c, 0, 66, 127
2, 54428, Note_off_c, 0, 66, 100
2, 54432, Note_on_c, 0, 64, 127
2, 54524, Note_off_c, 0, 64, 100
2, 54528, Note_on_c, 0, 62, 127
2, 54592, Note_off_c, 0, 62, 100
2, 54624, Note_on_c, 0, 60, 127
2, 54716, Note_off_c, 0, 60, 100
2, 54720, Note_on_c, 0, 59, 127
2, 54812, Note_off_c, 0, 59, 100
2, 54816, Note_on_c, 0, 57, 127
2, 54908, Note_off_c, 0, 57, 100
2, 54912, Note_on_c, 0, 55, 127
2, 55168, Note_off_c, 0, 55, 100
2, 55296, Note_on_c, 0, 78, 112
2, 55388, Note_off_c, 0, 78, 100
2, 55392, Note_on_c, 0, 79, 112
2, 55484, Note_off_c, 0, 79, 100
2, 55488, Note_on_c, 0, 81, 112
2, 55676, Note_off_c, 0, 81, 100
2, 55776, Note_on_c, 0, 83, 112
2, 55868, Note_off_c, 0, 83, 100
2, 55872, Note_on_c, 0, 81, 112
2, 55964, Note_off_c, 0, 81, 100
2, 55968, Note_on_c, 0, 79, 112
2, 56060, Note_off_c, 0, 79, 100
2, 56064, Note_on_c, 0, 78, 112
2, 56156, Note_off_c, 0, 78, 100
2, 56160, Note_on_c, 0, 76, 112
2, 56252, Note_off_c, 0, 76, 100
2, 56256, Note_on_c, 0, 74, 112
2, 56348, Note_off_c, 0, 74, 100
2, 56352, Note_on_c, 0, 72, 112
2, 56416, Note_off_c, 0, 72, 100
2, 56448, Note_on_c, 0, 71, 112
2, 56540, Note_off_c, 0, 71, 100
2, 56544, Note_on_c, 0, 72, 112
2, 56636, Note_off_c, 0, 72, 100
2, 56640, Note_on_c, 0, 74, 112
2, 56828, Note_off_c, 0, 74, 100
2, 56928, Note_on_c, 0, 76, 112
2, 57020, Note_off_c, 0, 76, 100
2, 57024, Note_on_c, 0, 74, 112
2, 57116, Note_off_c, 0, 74, 100
2, 57120, Note_on_c, 0, 72, 112
2, 57212, Note_off_c, 0, 72, 100
2, 57216, Note_on_c, 0, 71, 112
2, 57308, Note_off_c, 0, 71, 100
2, 57312, Note_on_c, 0, 69, 112
2, 57404, Note_off_c, 0, 69, 100
2, 57408, Note_on_c, 0, 67, 112
2, 57500, Note_off_c, 0, 67, 100
2, 57504, Note_on_c, 0, 66, 112
2, 57596, Note_off_c, 0, 66, 100
2, 57600, Note_on_c, 0, 64, 112
2, 57664, Note_off_c, 0, 64, 100
2, 57696, Note_on_c, 0, 68, 112
2, 57788, Note_off_c, 0, 68, 100
2, 57792, Note_on_c, 0, 69, 112
2, 57884, Note_off_c, 0, 69, 100
2, 57888, Note_on_c, 0, 71, 112
2, 57980, Note_off_c, 0, 71, 100
2, 57984, Note_on_c, 0, 69, 112
2, 58048, Note_off_c, 0, 69, 100
2, 58080, Note_on_c, 0, 64, 112
2, 58144, Note_off_c, 0, 64, 100
2, 58176, Note_on_c, 0, 69, 112
2, 58268, Note_off_c, 0, 69, 100
2, 58272, Note_on_c, 0, 71, 112
2, 58364, Note_off_c, 0, 71, 100
2, 58368, Note_on_c, 0, 72, 112
2, 58432, Note_off_c, 0, 72, 100
2, 58464, Note_on_c, 0, 69, 112
2, 58528, Note_off_c, 0, 69, 100
2, 58560, Note_on_c, 0, 75, 112
2, 58652, Note_off_c, 0, 75, 100
2, 58656, Note_on_c, 0, 76, 112
2, 58720, Note_off_c, 0, 76, 100
2, 58752, Note_on_c, 0, 78, 112
2, 58844, Note_off_c, 0, 78, 100
2, 58848, Note_on_c, 0, 76, 112
2, 58940, Note_off_c, 0, 76, 100
2, 58944, Note_on_c, 0, 75, 112
2, 59036, Note_off_c, 0, 75, 100
2, 59040, Note_on_c, 0, 73, 112
2, 59132, Note_off_c, 0, 73, 100
2, 59136, Note_on_c, 0, 71, 112
2, 59900, Note_off_c, 0, 71, 100
2, 60000, Note_on_c, 0, 75, 112
2, 60092, Note_off_c, 0, 75, 100
2, 60096, Note_on_c, 0, 76, 112
2, 60284, Note_off_c, 0, 76, 100
2, 60384, Note_on_c, 0, 63, 112
2, 60476, Note_off_c, 0, 63, 100
2, 60480, Note_on_c, 0, 64, 112
2, 60668, Note_off_c, 0, 64, 100
2, 60768, Note_on_c, 0, 51, 112
2, 60860, Note_off_c, 0, 51, 100
2, 60864, Note_on_c, 0, 52, 112
2, 61052, Note_off_c, 0, 52, 100
2, 61152, Note_on_c, 0, 80, 112
2, 61244, Note_off_c, 0, 80, 100
2, 61248, Note_on_c, 0, 81, 112
2, 61436, Note_off_c, 0, 81, 100
2, 61536, Note_on_c, 0, 68, 112
2, 61628, Note_off_c, 0, 68, 100
2, 61632, Note_on_c, 0, 69, 112
2, 61820, Note_off_c, 0, 69, 100
2, 61920, Note_on_c, 0, 56, 112
2, 62012, Note_off_c, 0, 56, 100
2, 62016, Note_on_c, 0, 57, 112
2, 62204, Note_off_c, 0, 57, 100
2, 62304, Note_on_c, 0, 59, 112
2, 62396, Note_off_c, 0, 59, 100
2, 62400, Note_on_c, 0, 60, 112
2, 62492, Note_off_c, 0, 60, 100
2, 62496, Note_on_c, 0, 66, 112
2, 62560, Note_off_c, 0, 66, 100
2, 62592, Note_on_c, 0, 59, 112
2, 62684, Note_off_c, 0, 59, 100
2, 62688, Note_on_c, 0, 63, 112
2, 62780, Note_off_c, 0, 63, 100
2, 62784, Note_on_c, 0, 64, 112
2, 62876, Note_off_c, 0, 64, 100
2, 62880, Note_on_c, 0, 67, 112
2, 62944, Note_off_c, 0, 67, 100
2, 62976, Note_on_c, 0, 66, 112
2, 63068, Note_off_c, 0, 66, 100
2, 63072, Note_on_c, 0, 64, 112
2, 63164, Note_off_c, 0, 64, 100
2, 63168, Note_on_c, 0, 63, 112
2, 63260, Note_off_c, 0, 63, 100
2, 63264, Note_on_c, 0, 69, 112
2, 63308, Note_off_c, 0, 69, 100
2, 63312, Note_on_c, 0, 67, 112
2, 63332, Note_off_c, 0, 67, 100
2, 63336, Note_on_c, 0, 69, 112
2, 63356, Note_off_c, 0, 69, 100
2, 63360, Note_on_c, 0, 67, 112
2, 63452, Note_off_c, 0, 67, 100
2, 63456, Note_on_c, 0, 66, 112
2, 63548, Note_off_c, 0, 66, 100
2, 63552, Note_on_c, 0, 64, 112
2, 63644, Note_off_c, 0, 64, 100
2, 63648, Note_on_c, 0, 63, 112
2, 63740, Note_off_c, 0, 63, 100
2, 63744, Note_on_c, 0, 64, 112
2, 63836, Note_off_c, 0, 64, 100
2, 63840, Note_on_c, 0, 67, 112
2, 63904, Note_off_c, 0, 67, 100
2, 63936, Note_on_c, 0, 59, 112
2, 64028, Note_off_c, 0, 59, 100
2, 64032, Note_on_c, 0, 57, 112
2, 64124, Note_off_c, 0, 57, 100
2, 64128, Note_on_c, 0, 55, 112
2, 64220, Note_off_c, 0, 55, 100
2, 64224, Note_on_c, 0, 59, 112
2, 64288, Note_off_c, 0, 59, 100
2, 64320, Note_on_c, 0, 52, 112
2, 64448, Note_off_c, 0, 52, 100
2, 64704, Note_on_c, 0, 76, 112
2, 64764, Note_off_c, 0, 76, 100
2, 64896, Note_on_c, 0, 72, 112
2, 64956, Note_off_c, 0, 72, 100
2, 65088, Note_on_c, 0, 76, 112
2, 65148, Note_off_c, 0, 76, 100
2, 65280, Note_on_c, 0, 81, 112
2, 65340, Note_off_c, 0, 81, 100
2, 65472, Note_on_c, 0, 69, 112
2, 65532, Note_off_c, 0, 69, 100
2, 65856, Note_on_c, 0, 74, 112
2, 65916, Note_off_c, 0, 74, 100
2, 66048, Note_on_c, 0, 71, 112
2, 66108, Note_off_c, 0, 71, 100
2, 66240, Note_on_c, 0, 74, 112
2, 66300, Note_off_c, 0, 74, 100
2, 66432, Note_on_c, 0, 79, 112
2, 66492, Note_off_c, 0, 79, 100
2, 66624, Note_on_c, 0, 67, 112
2, 66684, Note_off_c, 0, 67, 100
2, 66816, Note_on_c, 0, 72, 112
2, 66908, Note_off_c, 0, 72, 100
2, 66912, Note_on_c, 0, 69, 112
2, 67004, Note_off_c, 0, 69, 100
2, 67008, Note_on_c, 0, 64, 112
2, 67100, Note_off_c, 0, 64, 100
2, 67104, Note_on_c, 0, 60, 112
2, 67196, Note_off_c, 0, 60, 100
2, 67200, Note_on_c, 0, 57, 112
2, 67292, Note_off_c, 0, 57, 100
2, 67296, Note_on_c, 0, 60, 112
2, 67388, Note_off_c, 0, 60, 100
2, 67392, Note_on_c, 0, 64, 112
2, 67484, Note_off_c, 0, 64, 100
2, 67488, Note_on_c, 0, 69, 112
2, 67580, Note_off_c, 0, 69, 100
2, 67584, Note_on_c, 0, 72, 112
2, 67648, Note_off_c, 0, 72, 100
2, 67680, Note_on_c, 0, 69, 112
2, 67772, Note_off_c, 0, 69, 100
2, 67776, Note_on_c, 0, 72, 112
2, 67868, Note_off_c, 0, 72, 100
2, 67872, Note_on_c, 0, 76, 112
2, 67936, Note_off_c, 0, 76, 100
2, 67968, Note_on_c, 0, 78, 112
2, 68060, Note_off_c, 0, 78, 100
2, 68064, Note_on_c, 0, 72, 112
2, 68156, Note_off_c, 0, 72, 100
2, 68160, Note_on_c, 0, 69, 112
2, 68252, Note_off_c, 0, 69, 100
2, 68256, Note_on_c, 0, 66, 112
2, 68348, Note_off_c, 0, 66, 100
2, 68352, Note_on_c, 0, 62, 112
2, 68444, Note_off_c, 0, 62, 100
2, 68448, Note_on_c, 0, 66, 112
2, 68540, Note_off_c, 0, 66, 100
2, 68544, Note_on_c, 0, 69, 112
2, 68636, Note_off_c, 0, 69, 100
2, 68640, Note_on_c, 0, 72, 112
2, 68732, Note_off_c, 0, 72, 100
2, 68736, Note_on_c, 0, 78, 112
2, 68800, Note_off_c, 0, 78, 100
2, 68832, Note_on_c, 0, 72, 112
2, 68924, Note_off_c, 0, 72, 100
2, 68928, Note_on_c, 0, 78, 112
2, 68992, Note_off_c, 0, 78, 100
2, 69024, Note_on_c, 0, 81, 112
2, 69088, Note_off_c, 0, 81, 100
2, 69120, Note_on_c, 0, 83, 112
2, 69212, Note_off_c, 0, 83, 100
2, 69216, Note_on_c, 0, 79, 112
2, 69308, Note_off_c, 0, 79, 100
2, 69312, Note_on_c, 0, 74, 112
2, 69404, Note_off_c, 0, 74, 100
2, 69408, Note_on_c, 0, 71, 112
2, 69500, Note_off_c, 0, 71, 100
2, 69504, Note_on_c, 0, 67, 112
2, 69596, Note_off_c, 0, 67, 100
2, 69600, Note_on_c, 0, 71, 112
2, 69692, Note_off_c, 0, 71, 100
2, 69696, Note_on_c, 0, 74, 112
2, 69788, Note_off_c, 0, 74, 100
2, 69792, Note_on_c, 0, 79, 112
2, 69884, Note_off_c, 0, 79, 100
2, 69888, Note_on_c, 0, 83, 112
2, 69952, Note_off_c, 0, 83, 100
2, 69984, Note_on_c, 0, 79, 112
2, 70076, Note_off_c, 0, 79, 100
2, 70080, Note_on_c, 0, 83, 112
2, 70144, Note_off_c, 0, 83, 100
2, 70176, Note_on_c, 0, 86, 112
2, 70240, Note_off_c, 0, 86, 100
2, 70272, Note_on_c, 0, 76, 112
2, 70364, Note_off_c, 0, 76, 100
2, 70368, Note_on_c, 0, 86, 112
2, 70460, Note_off_c, 0, 86, 100
2, 70464, Note_on_c, 0, 84, 112
2, 70556, Note_off_c, 0, 84, 100
2, 70560, Note_on_c, 0, 76, 112
2, 70624, Note_off_c, 0, 76, 100
2, 70656, Note_on_c, 0, 74, 112
2, 70748, Note_off_c, 0, 74, 100
2, 70752, Note_on_c, 0, 84, 112
2, 70844, Note_off_c, 0, 84, 100
2, 70848, Note_on_c, 0, 83, 112
2, 70940, Note_off_c, 0, 83, 100
2, 70944, Note_on_c, 0, 74, 112
2, 71008, Note_off_c, 0, 74, 100
2, 71040, Note_on_c, 0, 72, 112
2, 71132, Note_off_c, 0, 72, 100
2, 71136, Note_on_c, 0, 76, 112
2, 71228, Note_off_c, 0, 76, 100
2, 71232, Note_on_c, 0, 78, 112
2, 71324, Note_off_c, 0, 78, 100
2, 71328, Note_on_c, 0, 79, 112
2, 71392, Note_off_c, 0, 79, 100
2, 71424, Note_on_c, 0, 81, 112
2, 71488, Note_off_c, 0, 81, 100
2, 71520, Note_on_c, 0, 72, 112
2, 71564, Note_off_c, 0, 72, 100
2, 71568, Note_on_c, 0, 71, 112
2, 71588, Note_off_c, 0, 71, 100
2, 71592, Note_on_c, 0, 72, 112
2, 71612, Note_off_c, 0, 72, 100
2, 71616, Note_on_c, 0, 71, 112
2, 71708, Note_off_c, 0, 71, 100
2, 71712, Note_on_c, 0, 69, 112
2, 71804, Note_off_c, 0, 69, 100
2, 71808, Note_on_c, 0, 71, 112
2, 71872, Note_off_c, 0, 71, 100
2, 71904, Note_on_c, 0, 74, 112
2, 71996, Note_off_c, 0, 74, 100
2, 72000, Note_on_c, 0, 71, 112
2, 72092, Note_off_c, 0, 71, 100
2, 72096, Note_on_c, 0, 67, 112
2, 72188, Note_off_c, 0, 67, 100
2, 72192, Note_on_c, 0, 72, 112
2, 72284, Note_off_c, 0, 72, 100
2, 72288, Note_on_c, 0, 69, 112
2, 72380, Note_off_c, 0, 69, 100
2, 72384, Note_on_c, 0, 67, 112
2, 72476, Note_off_c, 0, 67, 100
2, 72480, Note_on_c, 0, 66, 112
2, 72572, Note_off_c, 0, 66, 100
2, 72576, Note_on_c, 0, 71, 112
2, 72640, Note_off_c, 0, 71, 100
2, 72672, Note_on_c, 0, 67, 112
2, 72764, Note_off_c, 0, 67, 100
2, 72768, Note_on_c, 0, 66, 112
2, 72860, Note_off_c, 0, 66, 100
2, 72864, Note_on_c, 0, 64, 112
2, 72956, Note_off_c, 0, 64, 100
2, 72960, Note_on_c, 0, 62, 112
2, 73024, Note_off_c, 0, 62, 100
2, 73056, Note_on_c, 0, 60, 112
2, 73148, Note_off_c, 0, 60, 100
2, 73152, Note_on_c, 0, 59, 112
2, 73244, Note_off_c, 0, 59, 100
2, 73248, Note_on_c, 0, 57, 112
2, 73340, Note_off_c, 0, 57, 100
2, 73344, Note_on_c, 0, 55, 112
2, 73600, Note_off_c, 0, 55, 100
2, 73600, End_track
3, 0, Start_track
3, 0, Title_t, "Goldberg Variations"
3, 0, Control_c, 1, 0, 0
3, 0, Program_c, 1, 6
3, 0, Control_c, 1, 7, 127
3, 0, Control_c, 1, 10, 127
3, 0, Control_c, 1, 91, 127
3, 0, Key_signature, 1, "major"
3, 0, Note_on_c, 1, 43, 127
3, 128, Note_off_c, 1, 43, 100
3, 192, Note_on_c, 1, 59, 127
3, 284, Note_off_c, 1, 59, 100
3, 288, Note_on_c, 1, 57, 127
3, 380, Note_off_c, 1, 57, 100
3, 384, Note_on_c, 1, 59, 127
3, 444, Note_off_c, 1, 59, 100
3, 576, Note_on_c, 1, 55, 127
3, 636, Note_off_c, 1, 55, 100
3, 768, Note_on_c, 1, 43, 127
3, 856, Note_off_c, 1, 43, 100
3, 960, Note_on_c, 1, 55, 127
3, 1020, Note_off_c, 1, 55, 100
3, 1152, Note_on_c, 1, 42, 127
3, 1280, Note_off_c, 1, 42, 100
3, 1344, Note_on_c, 1, 54, 127
3, 1436, Note_off_c, 1, 54, 100
3, 1440, Note_on_c, 1, 52, 127
3, 1532, Note_off_c, 1, 52, 100
3, 1536, Note_on_c, 1, 54, 127
3, 1596, Note_off_c, 1, 54, 100
3, 1728, Note_on_c, 1, 50, 127
3, 1788, Note_off_c, 1, 50, 100
3, 1920, Note_on_c, 1, 42, 127
3, 2008, Note_off_c, 1, 42, 100
3, 2112, Note_on_c, 1, 50, 127
3, 2172, Note_off_c, 1, 50, 100
3, 2304, Note_on_c, 1, 40, 127
3, 2432, Note_off_c, 1, 40, 100
3, 2496, Note_on_c, 1, 52, 127
3, 2588, Note_off_c, 1, 52, 100
3, 2592, Note_on_c, 1, 50, 127
3, 2684, Note_off_c, 1, 50, 100
3, 2688, Note_on_c, 1, 52, 127
3, 2748, Note_off_c, 1, 52, 100
3, 2880, Note_on_c, 1, 55, 127
3, 2940, Note_off_c, 1, 55, 100
3, 3072, Note_on_c, 1, 45, 127
3, 3160, Note_off_c, 1, 45, 100
3, 3264, Note_on_c, 1, 61, 127
3, 3324, Note_off_c, 1, 61, 100
3, 3456, Note_on_c, 1, 50, 127
3, 3584, Note_off_c, 1, 50, 100
3, 3648, Note_on_c, 1, 54, 127
3, 3740, Note_off_c, 1, 54, 100
3, 3744, Note_on_c, 1, 52, 127
3, 3836, Note_off_c, 1, 52, 100
3, 3840, Note_on_c, 1, 54, 127
3, 3900, Note_off_c, 1, 54, 100
3, 4032, Note_on_c, 1, 50, 127
3, 4092, Note_off_c, 1, 50, 100
3, 4224, Note_on_c, 1, 38, 127
3, 4312, Note_off_c, 1, 38, 100
3, 4512, Note_on_c, 1, 48, 127
3, 4576, Note_off_c, 1, 48, 100
3, 4608, Note_on_c, 1, 47, 127
3, 4700, Note_off_c, 1, 47, 100
3, 4704, Note_on_c, 1, 45, 127
3, 4796, Note_off_c, 1, 45, 100
3, 4800, Note_on_c, 1, 47, 127
3, 4988, Note_off_c, 1, 47, 100
3, 5088, Note_on_c, 1, 50, 127
3, 5180, Note_off_c, 1, 50, 100
3, 5184, Note_on_c, 1, 52, 127
3, 5276, Note_off_c, 1, 52, 100
3, 5280, Note_on_c, 1, 54, 127
3, 5372, Note_off_c, 1, 54, 100
3, 5376, Note_on_c, 1, 55, 127
3, 5468, Note_off_c, 1, 55, 100
3, 5472, Note_on_c, 1, 57, 127
3, 5564, Note_off_c, 1, 57, 100
3, 5568, Note_on_c, 1, 59, 127
3, 5660, Note_off_c, 1, 59, 100
3, 5664, Note_on_c, 1, 55, 127
3, 5728, Note_off_c, 1, 55, 100
3, 5760, Note_on_c, 1, 48, 127
3, 5852, Note_off_c, 1, 48, 100
3, 5856, Note_on_c, 1, 47, 127
3, 5948, Note_off_c, 1, 47, 100
3, 5952, Note_on_c, 1, 48, 127
3, 6140, Note_off_c, 1, 48, 100
3, 6240, Note_on_c, 1, 52, 127
3, 6332, Note_off_c, 1, 52, 100
3, 6336, Note_on_c, 1, 54, 127
3, 6428, Note_off_c, 1, 54, 100
3, 6432, Note_on_c, 1, 55, 127
3, 6524, Note_off_c, 1, 55, 100
3, 6528, Note_on_c, 1, 57, 127
3, 6620, Note_off_c, 1, 57, 100
3, 6624, Note_on_c, 1, 59, 127
3, 6716, Note_off_c, 1, 59, 100
3, 6720, Note_on_c, 1, 60, 127
3, 6812, Note_off_c, 1, 60, 100
3, 6816, Note_on_c, 1, 57, 127
3, 6880, Note_off_c, 1, 57, 100
3, 6912, Note_on_c, 1, 50, 127
3, 7004, Note_off_c, 1, 50, 100
3, 7008, Note_on_c, 1, 49, 127
3, 7100, Note_off_c, 1, 49, 100
3, 7104, Note_on_c, 1, 50, 127
3, 7292, Note_off_c, 1, 50, 100
3, 7392, Note_on_c, 1, 57, 127
3, 7484, Note_off_c, 1, 57, 100
3, 7488, Note_on_c, 1, 59, 127
3, 7580, Note_off_c, 1, 59, 100
3, 7584, Note_on_c, 1, 60, 127
3, 7676, Note_off_c, 1, 60, 100
3, 7680, Note_on_c, 1, 62, 127
3, 7772, Note_off_c, 1, 62, 100
3, 7776, Note_on_c, 1, 64, 127
3, 7868, Note_off_c, 1, 64, 100
3, 7872, Note_on_c, 1, 66, 127
3, 7964, Note_off_c, 1, 66, 100
3, 7968, Note_on_c, 1, 62, 127
3, 8032, Note_off_c, 1, 62, 100
3, 8064, Note_on_c, 1, 67, 127
3, 8156, Note_off_c, 1, 67, 100
3, 8160, Note_on_c, 1, 66, 127
3, 8252, Note_off_c, 1, 66, 100
3, 8256, Note_on_c, 1, 67, 127
3, 8320, Note_off_c, 1, 67, 100
3, 8352, Note_on_c, 1, 62, 127
3, 8416, Note_off_c, 1, 62, 100
3, 8448, Note_on_c, 1, 59, 127
3, 8540, Note_off_c, 1, 59, 100
3, 8544, Note_on_c, 1, 62, 127
3, 8608, Note_off_c, 1, 62, 100
3, 8640, Note_on_c, 1, 55, 127
3, 8732, Note_off_c, 1, 55, 100
3, 8736, Note_on_c, 1, 59, 127
3, 8800, Note_off_c, 1, 59, 100
3, 8832, Note_on_c, 1, 50, 127
3, 8924, Note_off_c, 1, 50, 100
3, 8928, Note_on_c, 1, 55, 127
3, 8992, Note_off_c, 1, 55, 100
3, 9024, Note_on_c, 1, 47, 127
3, 9116, Note_off_c, 1, 47, 100
3, 9120, Note_on_c, 1, 50, 127
3, 9184, Note_off_c, 1, 50, 100
3, 9216, Note_on_c, 1, 43, 127
3, 9344, Note_off_c, 1, 43, 100
3, 9408, Note_on_c, 1, 55, 127
3, 9468, Note_off_c, 1, 55, 100
3, 9600, Note_on_c, 1, 59, 127
3, 9660, Note_off_c, 1, 59, 100
3, 9792, Note_on_c, 1, 55, 127
3, 9852, Note_off_c, 1, 55, 100
3, 9984, Note_on_c, 1, 43, 127
3, 10072, Note_off_c, 1, 43, 100
3, 10176, Note_on_c, 1, 55, 127
3, 10236, Note_off_c, 1, 55, 100
3, 10368, Note_on_c, 1, 42, 127
3, 10496, Note_off_c, 1, 42, 100
3, 10560, Note_on_c, 1, 54, 127
3, 10620, Note_off_c, 1, 54, 100
3, 10752, Note_on_c, 1, 57, 127
3, 10812, Note_off_c, 1, 57, 100
3, 10944, Note_on_c, 1, 54, 127
3, 11004, Note_off_c, 1, 54, 100
3, 11136, Note_on_c, 1, 42, 127
3, 11224, Note_off_c, 1, 42, 100
3, 11328, Note_on_c, 1, 54, 127
3, 11388, Note_off_c, 1, 54, 100
3, 11520, Note_on_c, 1, 40, 127
3, 11648, Note_off_c, 1, 40, 100
3, 11712, Note_on_c, 1, 52, 127
3, 11772, Note_off_c, 1, 52, 100
3, 11904, Note_on_c, 1, 55, 127
3, 11964, Note_off_c, 1, 55, 100
3, 12096, Note_on_c, 1, 52, 127
3, 12156, Note_off_c, 1, 52, 100
3, 12288, Note_on_c, 1, 40, 127
3, 12376, Note_off_c, 1, 40, 100
3, 12480, Note_on_c, 1, 55, 127
3, 12540, Note_off_c, 1, 55, 100
3, 12672, Note_on_c, 1, 45, 127
3, 12800, Note_off_c, 1, 45, 100
3, 12864, Note_on_c, 1, 52, 127
3, 12924, Note_off_c, 1, 52, 100
3, 13056, Note_on_c, 1, 55, 127
3, 13116, Note_off_c, 1, 55, 100
3, 13248, Note_on_c, 1, 52, 127
3, 13308, Note_off_c, 1, 52, 100
3, 13440, Note_on_c, 1, 45, 127
3, 13528, Note_off_c, 1, 45, 100
3, 13632, Note_on_c, 1, 55, 127
3, 13692, Note_off_c, 1, 55, 100
3, 13824, Note_on_c, 1, 54, 127
3, 13916, Note_off_c, 1, 54, 100
3, 13920, Note_on_c, 1, 57, 127
3, 14012, Note_off_c, 1, 57, 100
3, 14016, Note_on_c, 1, 62, 127
3, 14108, Note_off_c, 1, 62, 100
3, 14112, Note_on_c, 1, 66, 127
3, 14176, Note_off_c, 1, 66, 100
3, 14208, Note_on_c, 1, 69, 127
3, 14300, Note_off_c, 1, 69, 100
3, 14304, Note_on_c, 1, 66, 127
3, 14396, Note_off_c, 1, 66, 100
3, 14400, Note_on_c, 1, 62, 127
3, 14492, Note_off_c, 1, 62, 100
3, 14496, Note_on_c, 1, 57, 127
3, 14560, Note_off_c, 1, 57, 100
3, 14592, Note_on_c, 1, 54, 127
3, 14684, Note_off_c, 1, 54, 100
3, 14688, Note_on_c, 1, 57, 127
3, 14752, Note_off_c, 1, 57, 100
3, 14784, Note_on_c, 1, 50, 127
3, 14876, Note_off_c, 1, 50, 100
3, 14880, Note_on_c, 1, 54, 127
3, 14944, Note_off_c, 1, 54, 100
3, 14976, Note_on_c, 1, 55, 127
3, 15068, Note_off_c, 1, 55, 100
3, 15072, Note_on_c, 1, 59, 127
3, 15164, Note_off_c, 1, 59, 100
3, 15168, Note_on_c, 1, 62, 127
3, 15260, Note_off_c, 1, 62, 100
3, 15264, Note_on_c, 1, 67, 127
3, 15328, Note_off_c, 1, 67, 100
3, 15360, Note_on_c, 1, 71, 127
3, 15452, Note_off_c, 1, 71, 100
3, 15456, Note_on_c, 1, 67, 127
3, 15548, Note_off_c, 1, 67, 100
3, 15552, Note_on_c, 1, 62, 127
3, 15644, Note_off_c, 1, 62, 100
3, 15648, Note_on_c, 1, 59, 127
3, 15712, Note_off_c, 1, 59, 100
3, 15744, Note_on_c, 1, 55, 127
3, 15836, Note_off_c, 1, 55, 100
3, 15840, Note_on_c, 1, 59, 127
3, 15904, Note_off_c, 1, 59, 100
3, 15936, Note_on_c, 1, 52, 127
3, 16028, Note_off_c, 1, 52, 100
3, 16032, Note_on_c, 1, 55, 127
3, 16096, Note_off_c, 1, 55, 100
3, 16128, Note_on_c, 1, 57, 127
3, 16256, Note_off_c, 1, 57, 100
3, 16320, Note_on_c, 1, 61, 127
3, 16380, Note_off_c, 1, 61, 100
3, 16512, Note_on_c, 1, 62, 127
3, 16576, Note_off_c, 1, 62, 100
3, 16608, Note_on_c, 1, 57, 127
3, 16700, Note_off_c, 1, 57, 100
3, 16704, Note_on_c, 1, 54, 127
3, 16796, Note_off_c, 1, 54, 100
3, 16800, Note_on_c, 1, 50, 127
3, 16892, Note_off_c, 1, 50, 100
3, 16896, Note_on_c, 1, 57, 127
3, 16956, Note_off_c, 1, 57, 100
3, 17088, Note_on_c, 1, 45, 127
3, 17176, Note_off_c, 1, 45, 100
3, 17280, Note_on_c, 1, 38, 127
3, 17344, Note_off_c, 1, 38, 100
3, 17376, Note_on_c, 1, 50, 127
3, 17468, Note_off_c, 1, 50, 100
3, 17472, Note_on_c, 1, 52, 127
3, 17564, Note_off_c, 1, 52, 100
3, 17568, Note_on_c, 1, 54, 127
3, 17660, Note_off_c, 1, 54, 100
3, 17664, Note_on_c, 1, 55, 127
3, 17728, Note_off_c, 1, 55, 100
3, 17760, Note_on_c, 1, 57, 127
3, 17852, Note_off_c, 1, 57, 100
3, 17856, Note_on_c, 1, 59, 127
3, 17948, Note_off_c, 1, 59, 100
3, 17952, Note_on_c, 1, 61, 127
3, 18044, Note_off_c, 1, 61, 100
3, 18048, Note_on_c, 1, 62, 127
3, 18304, Note_off_c, 1, 62, 100
3, 18432, Note_on_c, 1, 43, 112
3, 18560, Note_off_c, 1, 43, 100
3, 18624, Note_on_c, 1, 59, 112
3, 18716, Note_off_c, 1, 59, 100
3, 18720, Note_on_c, 1, 57, 112
3, 18812, Note_off_c, 1, 57, 100
3, 18816, Note_on_c, 1, 59, 112
3, 18876, Note_off_c, 1, 59, 100
3, 19008, Note_on_c, 1, 55, 112
3, 19068, Note_off_c, 1, 55, 100
3, 19200, Note_on_c, 1, 43, 112
3, 19288, Note_off_c, 1, 43, 100
3, 19392, Note_on_c, 1, 55, 112
3, 19452, Note_off_c, 1, 55, 100
3, 19584, Note_on_c, 1, 42, 112
3, 19712, Note_off_c, 1, 42, 100
3, 19776, Note_on_c, 1, 54, 112
3, 19868, Note_off_c, 1, 54, 100
3, 19872, Note_on_c, 1, 52, 112
3, 19964, Note_off_c, 1, 52, 100
3, 19968, Note_on_c, 1, 54, 112
3, 20028, Note_off_c, 1, 54, 100
3, 20160, Note_on_c, 1, 50, 112
3, 20220, Note_off_c, 1, 50, 100
3, 20352, Note_on_c, 1, 42, 112
3, 20440, Note_off_c, 1, 42, 100
3, 20544, Note_on_c, 1, 50, 112
3, 20604, Note_off_c, 1, 50, 100
3, 20736, Note_on_c, 1, 40, 112
3, 20864, Note_off_c, 1, 40, 100
3, 20928, Note_on_c, 1, 52, 112
3, 21020, Note_off_c, 1, 52, 100
3, 21024, Note_on_c, 1, 50, 112
3, 21116, Note_off_c, 1, 50, 100
3, 21120, Note_on_c, 1, 52, 112
3, 21180, Note_off_c, 1, 52, 100
3, 21312, Note_on_c, 1, 55, 112
3, 21372, Note_off_c, 1, 55, 100
3, 21504, Note_on_c, 1, 45, 112
3, 21592, Note_off_c, 1, 45, 100
3, 21696, Note_on_c, 1, 61, 112
3, 21756, Note_off_c, 1, 61, 100
3, 21888, Note_on_c, 1, 50, 112
3, 22016, Note_off_c, 1, 50, 100
3, 22080, Note_on_c, 1, 54, 112
3, 22172, Note_off_c, 1, 54, 100
3, 22176, Note_on_c, 1, 52, 112
3, 22268, Note_off_c, 1, 52, 100
3, 22272, Note_on_c, 1, 54, 112
3, 22332, Note_off_c, 1, 54, 100
3, 22464, Note_on_c, 1, 50, 112
3, 22524, Note_off_c, 1, 50, 100
3, 22656, Note_on_c, 1, 38, 112
3, 22744, Note_off_c, 1, 38, 100
3, 22944, Note_on_c, 1, 48, 112
3, 23008, Note_off_c, 1, 48, 100
3, 23040, Note_on_c, 1, 47, 112
3, 23132, Note_off_c, 1, 47, 100
3, 23136, Note_on_c, 1, 45, 112
3, 23228, Note_off_c, 1, 45, 100
3, 23232, Note_on_c, 1, 47, 112
3, 23420, Note_off_c, 1, 47, 100
3, 23520, Note_on_c, 1, 50, 112
3, 23612, Note_off_c, 1, 50, 100
3, 23616, Note_on_c, 1, 52, 112
3, 23708, Note_off_c, 1, 52, 100
3, 23712, Note_on_c, 1, 54, 112
3, 23804, Note_off_c, 1, 54, 100
3, 23808, Note_on_c, 1, 55, 112
3, 23900, Note_off_c, 1, 55, 100
3, 23904, Note_on_c, 1, 57, 112
3, 23996, Note_off_c, 1, 57, 100
3, 24000, Note_on_c, 1, 59, 112
3, 24092, Note_off_c, 1, 59, 100
3, 24096, Note_on_c, 1, 55, 112
3, 24160, Note_off_c, 1, 55, 100
3, 24192, Note_on_c, 1, 48, 112
3, 24284, Note_off_c, 1, 48, 100
3, 24288, Note_on_c, 1, 47, 112
3, 24380, Note_off_c, 1, 47, 100
3, 24384, Note_on_c, 1, 48, 112
3, 24572, Note_off_c, 1, 48, 100
3, 24672, Note_on_c, 1, 52, 112
3, 24764, Note_off_c, 1, 52, 100
3, 24768, Note_on_c, 1, 54, 112
3, 24860, Note_off_c, 1, 54, 100
3, 24864, Note_on_c, 1, 55, 112
3, 24956, Note_off_c, 1, 55, 100
3, 24960, Note_on_c, 1, 57, 112
3, 25052, Note_off_c, 1, 57, 100
3, 25056, Note_on_c, 1, 59, 112
3, 25148, Note_off_c, 1, 59, 100
3, 25152, Note_on_c, 1, 60, 112
3, 25244, Note_off_c, 1, 60, 100
3, 25248, Note_on_c, 1, 57, 112
3, 25312, Note_off_c, 1, 57, 100
3, 25344, Note_on_c, 1, 50, 112
3, 25436, Note_off_c, 1, 50, 100
3, 25440, Note_on_c, 1, 49, 112
3, 25532, Note_off_c, 1, 49, 100
3, 25536, Note_on_c, 1, 50, 112
3, 25724, Note_off_c, 1, 50, 100
3, 25824, Note_on_c, 1, 57, 112
3, 25916, Note_off_c, 1, 57, 100
3, 25920, Note_on_c, 1, 59, 112
3, 26012, Note_off_c, 1, 59, 100
3, 26016, Note_on_c, 1, 60, 112
3, 26108, Note_off_c, 1, 60, 100
3, 26112, Note_on_c, 1, 62, 112
3, 26204, Note_off_c, 1, 62, 100
3, 26208, Note_on_c, 1, 64, 112
3, 26300, Note_off_c, 1, 64, 100
3, 26304, Note_on_c, 1, 66, 112
3, 26396, Note_off_c, 1, 66, 100
3, 26400, Note_on_c, 1, 62, 112
3, 26464, Note_off_c, 1, 62, 100
3, 26496, Note_on_c, 1, 67, 112
3, 26588, Note_off_c, 1, 67, 100
3, 26592, Note_on_c, 1, 66, 112
3, 26684, Note_off_c, 1, 66, 100
3, 26688, Note_on_c, 1, 67, 112
3, 26752, Note_off_c, 1, 67, 100
3, 26784, Note_on_c, 1, 62, 112
3, 26848, Note_off_c, 1, 62, 100
3, 26880, Note_on_c, 1, 59, 112
3, 26972, Note_off_c, 1, 59, 100
3, 26976, Note_on_c, 1, 62, 112
3, 27040, Note_off_c, 1, 62, 100
3, 27072, Note_on_c, 1, 55, 112
3, 27164, Note_off_c, 1, 55, 100
3, 27168, Note_on_c, 1, 59, 112
3, 27232, Note_off_c, 1, 59, 100
3, 27264, Note_on_c, 1, 50, 112
3, 27356, Note_off_c, 1, 50, 100
3, 27360, Note_on_c, 1, 55, 112
3, 27424, Note_off_c, 1, 55, 100
3, 27456, Note_on_c, 1, 47, 112
3, 27548, Note_off_c, 1, 47, 100
3, 27552, Note_on_c, 1, 50, 112
3, 27616, Note_off_c, 1, 50, 100
3, 27648, Note_on_c, 1, 43, 112
3, 27776, Note_off_c, 1, 43, 100
3, 27840, Note_on_c, 1, 55, 112
3, 27900, Note_off_c, 1, 55, 100
3, 28032, Note_on_c, 1, 59, 112
3, 28092, Note_off_c, 1, 59, 100
3, 28224, Note_on_c, 1, 55, 112
3, 28284, Note_off_c, 1, 55, 100
3, 28416, Note_on_c, 1, 43, 112
3, 28504, Note_off_c, 1, 43, 100
3, 28608, Note_on_c, 1, 55, 112
3, 28668, Note_off_c, 1, 55, 100
3, 28800, Note_on_c, 1, 42, 112
3, 28928, Note_off_c, 1, 42, 100
3, 28992, Note_on_c, 1, 54, 112
3, 29052, Note_off_c, 1, 54, 100
3, 29184, Note_on_c, 1, 57, 112
3, 29244, Note_off_c, 1, 57, 100
3, 29376, Note_on_c, 1, 54, 112
3, 29436, Note_off_c, 1, 54, 100
3, 29568, Note_on_c, 1, 42, 112
3, 29656, Note_off_c, 1, 42, 100
3, 29760, Note_on_c, 1, 54, 112
3, 29820, Note_off_c, 1, 54, 100
3, 29952, Note_on_c, 1, 40, 112
3, 30080, Note_off_c, 1, 40, 100
3, 30144, Note_on_c, 1, 52, 112
3, 30204, Note_off_c, 1, 52, 100
3, 30336, Note_on_c, 1, 55, 112
3, 30396, Note_off_c, 1, 55, 100
3, 30528, Note_on_c, 1, 52, 112
3, 30588, Note_off_c, 1, 52, 100
3, 30720, Note_on_c, 1, 40, 112
3, 30808, Note_off_c, 1, 40, 100
3, 30912, Note_on_c, 1, 55, 112
3, 30972, Note_off_c, 1, 55, 100
3, 31104, Note_on_c, 1, 45, 112
3, 31232, Note_off_c, 1, 45, 100
3, 31296, Note_on_c, 1, 52, 112
3, 31356, Note_off_c, 1, 52, 100
3, 31488, Note_on_c, 1, 55, 112
3, 31548, Note_off_c, 1, 55, 100
3, 31680, Note_on_c, 1, 52, 112
3, 31740, Note_off_c, 1, 52, 100
3, 31872, Note_on_c, 1, 45, 112
3, 31960, Note_off_c, 1, 45, 100
3, 32064, Note_on_c, 1, 55, 112
3, 32124, Note_off_c, 1, 55, 100
3, 32256, Note_on_c, 1, 54, 112
3, 32348, Note_off_c, 1, 54, 100
3, 32352, Note_on_c, 1, 57, 112
3, 32444, Note_off_c, 1, 57, 100
3, 32448, Note_on_c, 1, 62, 112
3, 32540, Note_off_c, 1, 62, 100
3, 32544, Note_on_c, 1, 66, 112
3, 32608, Note_off_c, 1, 66, 100
3, 32640, Note_on_c, 1, 69, 112
3, 32732, Note_off_c, 1, 69, 100
3, 32736, Note_on_c, 1, 66, 112
3, 32828, Note_off_c, 1, 66, 100
3, 32832, Note_on_c, 1, 62, 112
3, 32924, Note_off_c, 1, 62, 100
3, 32928, Note_on_c, 1, 57, 112
3, 32992, Note_off_c, 1, 57, 100
3, 33024, Note_on_c, 1, 54, 112
3, 33116, Note_off_c, 1, 54, 100
3, 33120, Note_on_c, 1, 57, 112
3, 33184, Note_off_c, 1, 57, 100
3, 33216, Note_on_c, 1, 50, 112
3, 33308, Note_off_c, 1, 50, 100
3, 33312, Note_on_c, 1, 54, 112
3, 33376, Note_off_c, 1, 54, 100
3, 33408, Note_on_c, 1, 55, 112
3, 33500, Note_off_c, 1, 55, 100
3, 33504, Note_on_c, 1, 59, 112
3, 33596, Note_off_c, 1, 59, 100
3, 33600, Note_on_c, 1, 62, 112
3, 33692, Note_off_c, 1, 62, 100
3, 33696, Note_on_c, 1, 67, 112
3, 33760, Note_off_c, 1, 67, 100
3, 33792, Note_on_c, 1, 71, 112
3, 33884, Note_off_c, 1, 71, 100
3, 33888, Note_on_c, 1, 67, 112
3, 33980, Note_off_c, 1, 67, 100
3, 33984, Note_on_c, 1, 62, 112
3, 34076, Note_off_c, 1, 62, 100
3, 34080, Note_on_c, 1, 59, 112
3, 34144, Note_off_c, 1, 59, 100
3, 34176, Note_on_c, 1, 55, 112
3, 34268, Note_off_c, 1, 55, 100
3, 34272, Note_on_c, 1, 59, 112
3, 34336, Note_off_c, 1, 59, 100
3, 34368, Note_on_c, 1, 52, 112
3, 34460, Note_off_c, 1, 52, 100
3, 34464, Note_on_c, 1, 55, 112
3, 34528, Note_off_c, 1, 55, 100
3, 34560, Note_on_c, 1, 57, 112
3, 34688, Note_off_c, 1, 57, 100
3, 34752, Note_on_c, 1, 61, 112
3, 34812, Note_off_c, 1, 61, 100
3, 34944, Note_on_c, 1, 62, 112
3, 35008, Note_off_c, 1, 62, 100
3, 35040, Note_on_c, 1, 57, 112
3, 35132, Note_off_c, 1, 57, 100
3, 35136, Note_on_c, 1, 54, 112
3, 35228, Note_off_c, 1, 54, 100
3, 35232, Note_on_c, 1, 50, 112
3, 35324, Note_off_c, 1, 50, 100
3, 35328, Note_on_c, 1, 57, 112
3, 35388, Note_off_c, 1, 57, 100
3, 35520, Note_on_c, 1, 45, 112
3, 35608, Note_off_c, 1, 45, 100
3, 35712, Note_on_c, 1, 38, 112
3, 35776, Note_off_c, 1, 38, 100
3, 35808, Note_on_c, 1, 50, 112
3, 35900, Note_off_c, 1, 50, 100
3, 35904, Note_on_c, 1, 52, 112
3, 35996, Note_off_c, 1, 52, 100
3, 36000, Note_on_c, 1, 54, 112
3, 36092, Note_off_c, 1, 54, 100
3, 36096, Note_on_c, 1, 55, 112
3, 36160, Note_off_c, 1, 55, 100
3, 36192, Note_on_c, 1, 57, 112
3, 36284, Note_off_c, 1, 57, 100
3, 36288, Note_on_c, 1, 59, 112
3, 36380, Note_off_c, 1, 59, 100
3, 36384, Note_on_c, 1, 61, 112
3, 36476, Note_off_c, 1, 61, 100
3, 36480, Note_on_c, 1, 62, 112
3, 36736, Note_off_c, 1, 62, 100
3, 36864, Note_on_c, 1, 38, 127
3, 36992, Note_off_c, 1, 38, 100
3, 37056, Note_on_c, 1, 54, 127
3, 37148, Note_off_c, 1, 54, 100
3, 37152, Note_on_c, 1, 52, 127
3, 37244, Note_off_c, 1, 52, 100
3, 37248, Note_on_c, 1, 54, 127
3, 37308, Note_off_c, 1, 54, 100
3, 37440, Note_on_c, 1, 50, 127
3, 37500, Note_off_c, 1, 50, 100
3, 37632, Note_on_c, 1, 38, 127
3, 37720, Note_off_c, 1, 38, 100
3, 37824, Note_on_c, 1, 54, 127
3, 37884, Note_off_c, 1, 54, 100
3, 38016, Note_on_c, 1, 43, 127
3, 38144, Note_off_c, 1, 43, 100
3, 38208, Note_on_c, 1, 59, 127
3, 38300, Note_off_c, 1, 59, 100
3, 38304, Note_on_c, 1, 57, 127
3, 38396, Note_off_c, 1, 57, 100
3, 38400, Note_on_c, 1, 59, 127
3, 38460, Note_off_c, 1, 59, 100
3, 38592, Note_on_c, 1, 55, 127
3, 38652, Note_off_c, 1, 55, 100
3, 38784, Note_on_c, 1, 43, 127
3, 38872, Note_off_c, 1, 43, 100
3, 38976, Note_on_c, 1, 59, 127
3, 39036, Note_off_c, 1, 59, 100
3, 39168, Note_on_c, 1, 48, 127
3, 39296, Note_off_c, 1, 48, 100
3, 39360, Note_on_c, 1, 60, 127
3, 39452, Note_off_c, 1, 60, 100
3, 39456, Note_on_c, 1, 59, 127
3, 39548, Note_off_c, 1, 59, 100
3, 39552, Note_on_c, 1, 60, 127
3, 39612, Note_off_c, 1, 60, 100
3, 39744, Note_on_c, 1, 54, 127
3, 39804, Note_off_c, 1, 54, 100
3, 39936, Note_on_c, 1, 57, 127
3, 39996, Note_off_c, 1, 57, 100
3, 40128, Note_on_c, 1, 60, 127
3, 40188, Note_off_c, 1, 60, 100
3, 40320, Note_on_c, 1, 57, 127
3, 40380, Note_off_c, 1, 57, 100
3, 40512, Note_on_c, 1, 54, 127
3, 40572, Note_off_c, 1, 54, 100
3, 40704, Note_on_c, 1, 51, 127
3, 40768, Note_off_c, 1, 51, 100
3, 40800, Note_on_c, 1, 47, 127
3, 40892, Note_off_c, 1, 47, 100
3, 40896, Note_on_c, 1, 51, 127
3, 40988, Note_off_c, 1, 51, 100
3, 40992, Note_on_c, 1, 54, 127
3, 41084, Note_off_c, 1, 54, 100
3, 41088, Note_on_c, 1, 59, 127
3, 41152, Note_off_c, 1, 59, 100
3, 41184, Note_on_c, 1, 63, 127
3, 41276, Note_off_c, 1, 63, 100
3, 41280, Note_on_c, 1, 66, 127
3, 41372, Note_off_c, 1, 66, 100
3, 41376, Note_on_c, 1, 69, 127
3, 41440, Note_off_c, 1, 69, 100
3, 41472, Note_on_c, 1, 67, 127
3, 41660, Note_off_c, 1, 67, 100
3, 41760, Note_on_c, 1, 66, 127
3, 41852, Note_off_c, 1, 66, 100
3, 41856, Note_on_c, 1, 67, 127
3, 42044, Note_off_c, 1, 67, 100
3, 42144, Note_on_c, 1, 54, 127
3, 42236, Note_off_c, 1, 54, 100
3, 42240, Note_on_c, 1, 55, 127
3, 42428, Note_off_c, 1, 55, 100
3, 42528, Note_on_c, 1, 47, 127
3, 42620, Note_off_c, 1, 47, 100
3, 42624, Note_on_c, 1, 48, 127
3, 42812, Note_off_c, 1, 48, 100
3, 42912, Note_on_c, 1, 71, 127
3, 43004, Note_off_c, 1, 71, 100
3, 43008, Note_on_c, 1, 72, 127
3, 43196, Note_off_c, 1, 72, 100
3, 43296, Note_on_c, 1, 59, 127
3, 43388, Note_off_c, 1, 59, 100
3, 43392, Note_on_c, 1, 60, 127
3, 43580, Note_off_c, 1, 60, 100
3, 43680, Note_on_c, 1, 52, 127
3, 43772, Note_off_c, 1, 52, 100
3, 43776, Note_on_c, 1, 51, 127
3, 43836, Note_off_c, 1, 51, 100
3, 43968, Note_on_c, 1, 57, 127
3, 44028, Note_off_c, 1, 57, 100
3, 44160, Note_on_c, 1, 55, 127
3, 44220, Note_off_c, 1, 55, 100
3, 44352, Note_on_c, 1, 46, 127
3, 44412, Note_off_c, 1, 46, 100
3, 44544, Note_on_c, 1, 47, 127
3, 44604, Note_off_c, 1, 47, 100
3, 44736, Note_on_c, 1, 54, 127
3, 44796, Note_off_c, 1, 54, 100
3, 44928, Note_on_c, 1, 52, 127
3, 44988, Note_off_c, 1, 52, 100
3, 45120, Note_on_c, 1, 55, 127
3, 45212, Note_off_c, 1, 55, 100
3, 45216, Note_on_c, 1, 54, 127
3, 45308, Note_off_c, 1, 54, 100
3, 45312, Note_on_c, 1, 55, 127
3, 45372, Note_off_c, 1, 55, 100
3, 45504, Note_on_c, 1, 52, 127
3, 45564, Note_off_c, 1, 52, 100
3, 45696, Note_on_c, 1, 40, 127
3, 45756, Note_off_c, 1, 40, 100
3, 45984, Note_on_c, 1, 50, 127
3, 46048, Note_off_c, 1, 50, 100
3, 46080, Note_on_c, 1, 48, 127
3, 46172, Note_off_c, 1, 48, 100
3, 46176, Note_on_c, 1, 52, 127
3, 46268, Note_off_c, 1, 52, 100
3, 46272, Note_on_c, 1, 57, 127
3, 46364, Note_off_c, 1, 57, 100
3, 46368, Note_on_c, 1, 60, 127
3, 46432, Note_off_c, 1, 60, 100
3, 46464, Note_on_c, 1, 64, 127
3, 46556, Note_off_c, 1, 64, 100
3, 46560, Note_on_c, 1, 60, 127
3, 46652, Note_off_c, 1, 60, 100
3, 46656, Note_on_c, 1, 57, 127
3, 46748, Note_off_c, 1, 57, 100
3, 46752, Note_on_c, 1, 52, 127
3, 46844, Note_off_c, 1, 52, 100
3, 46848, Note_on_c, 1, 48, 127
3, 46912, Note_off_c, 1, 48, 100
3, 46944, Note_on_c, 1, 52, 127
3, 47036, Note_off_c, 1, 52, 100
3, 47040, Note_on_c, 1, 50, 127
3, 47132, Note_off_c, 1, 50, 100
3, 47136, Note_on_c, 1, 48, 127
3, 47200, Note_off_c, 1, 48, 100
3, 47232, Note_on_c, 1, 47, 127
3, 47324, Note_off_c, 1, 47, 100
3, 47328, Note_on_c, 1, 50, 127
3, 47420, Note_off_c, 1, 50, 100
3, 47424, Note_on_c, 1, 55, 127
3, 47516, Note_off_c, 1, 55, 100
3, 47520, Note_on_c, 1, 59, 127
3, 47612, Note_off_c, 1, 59, 100
3, 47616, Note_on_c, 1, 62, 127
3, 47708, Note_off_c, 1, 62, 100
3, 47712, Note_on_c, 1, 59, 127
3, 47804, Note_off_c, 1, 59, 100
3, 47808, Note_on_c, 1, 55, 127
3, 47900, Note_off_c, 1, 55, 100
3, 47904, Note_on_c, 1, 50, 127
3, 47996, Note_off_c, 1, 50, 100
3, 48000, Note_on_c, 1, 47, 127
3, 48064, Note_off_c, 1, 47, 100
3, 48096, Note_on_c, 1, 50, 127
3, 48188, Note_off_c, 1, 50, 100
3, 48192, Note_on_c, 1, 48, 127
3, 48284, Note_off_c, 1, 48, 100
3, 48288, Note_on_c, 1, 47, 127
3, 48352, Note_off_c, 1, 47, 100
3, 48384, Note_on_c, 1, 45, 127
3, 48512, Note_off_c, 1, 45, 100
3, 48576, Note_on_c, 1, 48, 127
3, 48636, Note_off_c, 1, 48, 100
3, 48768, Note_on_c, 1, 52, 127
3, 48828, Note_off_c, 1, 52, 100
3, 48960, Note_on_c, 1, 55, 127
3, 49020, Note_off_c, 1, 55, 100
3, 49152, Note_on_c, 1, 54, 127
3, 49212, Note_off_c, 1, 54, 100
3, 49344, Note_on_c, 1, 52, 127
3, 49404, Note_off_c, 1, 52, 100
3, 49536, Note_on_c, 1, 50, 127
3, 49664, Note_off_c, 1, 50, 100
3, 49728, Note_on_c, 1, 54, 127
3, 49788, Note_off_c, 1, 54, 100
3, 49920, Note_on_c, 1, 57, 127
3, 49980, Note_off_c, 1, 57, 100
3, 50112, Note_on_c, 1, 60, 127
3, 50172, Note_off_c, 1, 60, 100
3, 50304, Note_on_c, 1, 59, 127
3, 50364, Note_off_c, 1, 59, 100
3, 50496, Note_on_c, 1, 57, 127
3, 50556, Note_off_c, 1, 57, 100
3, 50688, Note_on_c, 1, 55, 127
3, 50816, Note_off_c, 1, 55, 100
3, 50880, Note_on_c, 1, 59, 127
3, 50940, Note_off_c, 1, 59, 100
3, 51072, Note_on_c, 1, 62, 127
3, 51132, Note_off_c, 1, 62, 100
3, 51264, Note_on_c, 1, 65, 127
3, 51324, Note_off_c, 1, 65, 100
3, 51456, Note_on_c, 1, 64, 127
3, 51516, Note_off_c, 1, 64, 100
3, 51648, Note_on_c, 1, 62, 127
3, 51708, Note_off_c, 1, 62, 100
3, 51840, Note_on_c, 1, 60, 127
3, 51968, Note_off_c, 1, 60, 100
3, 52032, Note_on_c, 1, 64, 127
3, 52092, Note_off_c, 1, 64, 100
3, 52224, Note_on_c, 1, 66, 127
3, 52284, Note_off_c, 1, 66, 100
3, 52416, Note_on_c, 1, 68, 127
3, 52476, Note_off_c, 1, 68, 100
3, 52608, Note_on_c, 1, 69, 127
3, 52668, Note_off_c, 1, 69, 100
3, 52800, Note_on_c, 1, 67, 127
3, 52860, Note_off_c, 1, 67, 100
3, 52992, Note_on_c, 1, 66, 127
3, 53120, Note_off_c, 1, 66, 100
3, 53184, Note_on_c, 1, 62, 127
3, 53244, Note_off_c, 1, 62, 100
3, 53376, Note_on_c, 1, 67, 127
3, 53436, Note_off_c, 1, 67, 100
3, 53568, Note_on_c, 1, 55, 127
3, 53628, Note_off_c, 1, 55, 100
3, 53760, Note_on_c, 1, 62, 127
3, 53820, Note_off_c, 1, 62, 100
3, 53952, Note_on_c, 1, 50, 127
3, 54012, Note_off_c, 1, 50, 100
3, 54144, Note_on_c, 1, 55, 127
3, 54208, Note_off_c, 1, 55, 100
3, 54240, Note_on_c, 1, 43, 127
3, 54332, Note_off_c, 1, 43, 100
3, 54336, Note_on_c, 1, 45, 127
3, 54428, Note_off_c, 1, 45, 100
3, 54432, Note_on_c, 1, 47, 127
3, 54524, Note_off_c, 1, 47, 100
3, 54528, Note_on_c, 1, 48, 127
3, 54592, Note_off_c, 1, 48, 100
3, 54624, Note_on_c, 1, 50, 127
3, 54716, Note_off_c, 1, 50, 100
3, 54720, Note_on_c, 1, 52, 127
3, 54812, Note_off_c, 1, 52, 100
3, 54816, Note_on_c, 1, 54, 127
3, 54908, Note_off_c, 1, 54, 100
3, 54912, Note_on_c, 1, 55, 127
3, 55168, Note_off_c, 1, 55, 100
3, 55296, Note_on_c, 1, 38, 96
3, 55424, Note_off_c, 1, 38, 100
3, 55488, Note_on_c, 1, 54, 96
3, 55580, Note_off_c, 1, 54, 100
3, 55584, Note_on_c, 1, 52, 96
3, 55676, Note_off_c, 1, 52, 100
3, 55680, Note_on_c, 1, 54, 96
3, 55740, Note_off_c, 1, 54, 100
3, 55872, Note_on_c, 1, 50, 96
3, 55932, Note_off_c, 1, 50, 100
3, 56064, Note_on_c, 1, 38, 96
3, 56152, Note_off_c, 1, 38, 100
3, 56256, Note_on_c, 1, 54, 96
3, 56316, Note_off_c, 1, 54, 100
3, 56448, Note_on_c, 1, 43, 96
3, 56576, Note_off_c, 1, 43, 100
3, 56640, Note_on_c, 1, 59, 96
3, 56732, Note_off_c, 1, 59, 100
3, 56736, Note_on_c, 1, 57, 96
3, 56828, Note_off_c, 1, 57, 100
3, 56832, Note_on_c, 1, 59, 96
3, 56892, Note_off_c, 1, 59, 100
3, 57024, Note_on_c, 1, 55, 96
3, 57084, Note_off_c, 1, 55, 100
3, 57216, Note_on_c, 1, 43, 96
3, 57304, Note_off_c, 1, 43, 100
3, 57408, Note_on_c, 1, 59, 96
3, 57468, Note_off_c, 1, 59, 100
3, 57600, Note_on_c, 1, 48, 96
3, 57728, Note_off_c, 1, 48, 100
3, 57792, Note_on_c, 1, 60, 96
3, 57884, Note_off_c, 1, 60, 100
3, 57888, Note_on_c, 1, 59, 96
3, 57980, Note_off_c, 1, 59, 100
3, 57984, Note_on_c, 1, 60, 96
3, 58044, Note_off_c, 1, 60, 100
3, 58176, Note_on_c, 1, 54, 96
3, 58236, Note_off_c, 1, 54, 100
3, 58368, Note_on_c, 1, 57, 96
3, 58428, Note_off_c, 1, 57, 100
3, 58560, Note_on_c, 1, 60, 96
3, 58620, Note_off_c, 1, 60, 100
3, 58752, Note_on_c, 1, 57, 96
3, 58812, Note_off_c, 1, 57, 100
3, 58944, Note_on_c, 1, 54, 96
3, 59004, Note_off_c, 1, 54, 100
3, 59136, Note_on_c, 1, 51, 96
3, 59200, Note_off_c, 1, 51, 100
3, 59232, Note_on_c, 1, 47, 96
3, 59324, Note_off_c, 1, 47, 100
3, 59328, Note_on_c, 1, 51, 96
3, 59420, Note_off_c, 1, 51, 100
3, 59424, Note_on_c, 1, 54, 96
3, 59516, Note_off_c, 1, 54, 100
3, 59520, Note_on_c, 1, 59, 96
3, 59584, Note_off_c, 1, 59, 100
3, 59616, Note_on_c, 1, 63, 96
3, 59708, Note_off_c, 1, 63, 100
3, 59712, Note_on_c, 1, 66, 96
3, 59804, Note_off_c, 1, 66, 100
3, 59808, Note_on_c, 1, 69, 96
3, 59872, Note_off_c, 1, 69, 100
3, 59904, Note_on_c, 1, 67, 96
3, 60092, Note_off_c, 1, 67, 100
3, 60192, Note_on_c, 1, 66, 96
3, 60284, Note_off_c, 1, 66, 100
3, 60288, Note_on_c, 1, 67, 96
3, 60476, Note_off_c, 1, 67, 100
3, 60576, Note_on_c, 1, 54, 96
3, 60668, Note_off_c, 1, 54, 100
3, 60672, Note_on_c, 1, 55, 96
3, 60860, Note_off_c, 1, 55, 100
3, 60960, Note_on_c, 1, 47, 96
3, 61052, Note_off_c, 1, 47, 100
3, 61056, Note_on_c, 1, 48, 96
3, 61244, Note_off_c, 1, 48, 100
3, 61344, Note_on_c, 1, 71, 96
3, 61436, Note_off_c, 1, 71, 100
3, 61440, Note_on_c, 1, 72, 96
3, 61628, Note_off_c, 1, 72, 100
3, 61728, Note_on_c, 1, 59, 96
3, 61820, Note_off_c, 1, 59, 100
3, 61824, Note_on_c, 1, 60, 96
3, 62012, Note_off_c, 1, 60, 100
3, 62112, Note_on_c, 1, 52, 96
3, 62204, Note_off_c, 1, 52, 100
3, 62208, Note_on_c, 1, 51, 96
3, 62268, Note_off_c, 1, 51, 100
3, 62400, Note_on_c, 1, 57, 96
3, 62460, Note_off_c, 1, 57, 100
3, 62592, Note_on_c, 1, 55, 96
3, 62652, Note_off_c, 1, 55, 100
3, 62784, Note_on_c, 1, 46, 96
3, 62844, Note_off_c, 1, 46, 100
3, 62976, Note_on_c, 1, 47, 96
3, 63036, Note_off_c, 1, 47, 100
3, 63168, Note_on_c, 1, 54, 96
3, 63228, Note_off_c, 1, 54, 100
3, 63360, Note_on_c, 1, 52, 96
3, 63420, Note_off_c, 1, 52, 100
3, 63552, Note_on_c, 1, 55, 96
3, 63644, Note_off_c, 1, 55, 100
3, 63648, Note_on_c, 1, 54, 96
3, 63740, Note_off_c, 1, 54, 100
3, 63744, Note_on_c, 1, 55, 96
3, 63804, Note_off_c, 1, 55, 100
3, 63936, Note_on_c, 1, 52, 96
3, 63996, Note_off_c, 1, 52, 100
3, 64128, Note_on_c, 1, 40, 96
3, 64188, Note_off_c, 1, 40, 100
3, 64416, Note_on_c, 1, 50, 96
3, 64480, Note_off_c, 1, 50, 100
3, 64512, Note_on_c, 1, 48, 96
3, 64604, Note_off_c, 1, 48, 100
3, 64608, Note_on_c, 1, 52, 96
3, 64700, Note_off_c, 1, 52, 100
3, 64704, Note_on_c, 1, 57, 96
3, 64796, Note_off_c, 1, 57, 100
3, 64800, Note_on_c, 1, 60, 96
3, 64864, Note_off_c, 1, 60, 100
3, 64896, Note_on_c, 1, 64, 96
3, 64988, Note_off_c, 1, 64, 100
3, 64992, Note_on_c, 1, 60, 96
3, 65084, Note_off_c, 1, 60, 100
3, 65088, Note_on_c, 1, 57, 96
3, 65180, Note_off_c, 1, 57, 100
3, 65184, Note_on_c, 1, 52, 96
3, 65276, Note_off_c, 1, 52, 100
3, 65280, Note_on_c, 1, 48, 96
3, 65344, Note_off_c, 1, 48, 100
3, 65376, Note_on_c, 1, 52, 96
3, 65468, Note_off_c, 1, 52, 100
3, 65472, Note_on_c, 1, 50, 96
3, 65564, Note_off_c, 1, 50, 100
3, 65568, Note_on_c, 1, 48, 96
3, 65632, Note_off_c, 1, 48, 100
3, 65664, Note_on_c, 1, 47, 96
3, 65756, Note_off_c, 1, 47, 100
3, 65760, Note_on_c, 1, 50, 96
3, 65852, Note_off_c, 1, 50, 100
3, 65856, Note_on_c, 1, 55, 96
3, 65948, Note_off_c, 1, 55, 100
3, 65952, Note_on_c, 1, 59, 96
3, 66044, Note_off_c, 1, 59, 100
3, 66048, Note_on_c, 1, 62, 96
3, 66140, Note_off_c, 1, 62, 100
3, 66144, Note_on_c, 1, 59, 96
3, 66236, Note_off_c, 1, 59, 100
3, 66240, Note_on_c, 1, 55, 96
3, 66332, Note_off_c, 1, 55, 100
3, 66336, Note_on_c, 1, 50, 96
3, 66428, Note_off_c, 1, 50, 100
3, 66432, Note_on_c, 1, 47, 96
3, 66496, Note_off_c, 1, 47, 100
3, 66528, Note_on_c, 1, 50, 96
3, 66620, Note_off_c, 1, 50, 100
3, 66624, Note_on_c, 1, 48, 96
3, 66716, Note_off_c, 1, 48, 100
3, 66720, Note_on_c, 1, 47, 96
3, 66784, Note_off_c, 1, 47, 100
3, 66816, Note_on_c, 1, 45, 96
3, 66944, Note_off_c, 1, 45, 100
3, 67008, Note_on_c, 1, 48, 96
3, 67068, Note_off_c, 1, 48, 100
3, 67200, Note_on_c, 1, 52, 96
3, 67260, Note_off_c, 1, 52, 100
3, 67392, Note_on_c, 1, 55, 96
3, 67452, Note_off_c, 1, 55, 100
3, 67584, Note_on_c, 1, 54, 96
3, 67644, Note_off_c, 1, 54, 100
3, 67776, Note_on_c, 1, 52, 96
3, 67836, Note_off_c, 1, 52, 100
3, 67968, Note_on_c, 1, 50, 96
3, 68096, Note_off_c, 1, 50, 100
3, 68160, Note_on_c, 1, 54, 96
3, 68220, Note_off_c, 1, 54, 100
3, 68352, Note_on_c, 1, 57, 96
3, 68412, Note_off_c, 1, 57, 100
3, 68544, Note_on_c, 1, 60, 96
3, 68604, Note_off_c, 1, 60, 100
3, 68736, Note_on_c, 1, 59, 96
3, 68796, Note_off_c, 1, 59, 100
3, 68928, Note_on_c, 1, 57, 96
3, 68988, Note_off_c, 1, 57, 100
3, 69120, Note_on_c, 1, 55, 96
3, 69248, Note_off_c, 1, 55, 100
3, 69312, Note_on_c, 1, 59, 96
3, 69372, Note_off_c, 1, 59, 100
3, 69504, Note_on_c, 1, 62, 96
3, 69564, Note_off_c, 1, 62, 100
3, 69696, Note_on_c, 1, 65, 96
3, 69756, Note_off_c, 1, 65, 100
3, 69888, Note_on_c, 1, 64, 96
3, 69948, Note_off_c, 1, 64, 100
3, 70080, Note_on_c, 1, 62, 96
3, 70140, Note_off_c, 1, 62, 100
3, 70272, Note_on_c, 1, 60, 96
3, 70400, Note_off_c, 1, 60, 100
3, 70464, Note_on_c, 1, 64, 96
3, 70524, Note_off_c, 1, 64, 100
3, 70656, Note_on_c, 1, 66, 96
3, 70716, Note_off_c, 1, 66, 100
3, 70848, Note_on_c, 1, 68, 96
3, 70908, Note_off_c, 1, 68, 100
3, 71040, Note_on_c, 1, 69, 96
3, 71100, Note_off_c, 1, 69, 100
3, 71232, Note_on_c, 1, 67, 96
3, 71292, Note_off_c, 1, 67, 100
3, 71424, Note_on_c, 1, 66, 96
3, 71552, Note_off_c, 1, 66, 100
3, 71616, Note_on_c, 1, 62, 96
3, 71676, Note_off_c, 1, 62, 100
3, 71808, Note_on_c, 1, 67, 96
3, 71868, Note_off_c, 1, 67, 100
3, 72000, Note_on_c, 1, 55, 96
3, 72060, Note_off_c, 1, 55, 100
3, 72192, Note_on_c, 1, 62, 96
3, 72252, Note_off_c, 1, 62, 100
3, 72384, Note_on_c, 1, 50, 96
3, 72444, Note_off_c, 1, 50, 100
3, 72576, Note_on_c, 1, 55, 96
3, 72640, Note_off_c, 1, 55, 100
3, 72672, Note_on_c, 1, 43, 96
3, 72764, Note_off_c, 1, 43, 100
3, 72768, Note_on_c, 1, 45, 96
3, 72860, Note_off_c, 1, 45, 100
3, 72864, Note_on_c, 1, 47, 96
3, 72956, Note_off_c, 1, 47, 100
3, 72960, Note_on_c, 1, 48, 96
3, 73024, Note_off_c, 1, 48, 100
3, 73056, Note_on_c, 1, 50, 96
3, 73148, Note_off_c, 1, 50, 100
3, 73152, Note_on_c, 1, 52, 96
3, 73244, Note_off_c, 1, 52, 100
3, 73248, Note_on_c, 1, 54, 96
3, 73340, Note_off_c, 1, 54, 100
3, 73344, Note_on_c, 1, 55, 96
3, 73600, Note_off_c, 1, 55, 100
3, 73600, End_track
4, 0, Start_track
4, 0, Title_t, "BWV 988"
4, 0, Control_c, 2, 0, 0
4, 0, Program_c, 2, 6
4, 0, Control_c, 2, 7, 127
4, 0, Control_c, 2, 10, 127
4, 0, Control_c, 2, 91, 127
4, 0, Key_signature, 1, "major"
4, 0, Note_on_c, 2, 79, 127
4, 92, Note_off_c, 2, 79, 100
4, 96, Note_on_c, 2, 78, 127
4, 188, Note_off_c, 2, 78, 100
4, 192, Note_on_c, 2, 79, 127
4, 380, Note_off_c, 2, 79, 100
4, 480, Note_on_c, 2, 74, 127
4, 572, Note_off_c, 2, 74, 100
4, 576, Note_on_c, 2, 76, 127
4, 668, Note_off_c, 2, 76, 100
4, 672, Note_on_c, 2, 78, 127
4, 764, Note_off_c, 2, 78, 100
4, 768, Note_on_c, 2, 79, 127
4, 860, Note_off_c, 2, 79, 100
4, 864, Note_on_c, 2, 81, 127
4, 956, Note_off_c, 2, 81, 100
4, 960, Note_on_c, 2, 83, 127
4, 1052, Note_off_c, 2, 83, 100
4, 1056, Note_on_c, 2, 85, 127
4, 1120, Note_off_c, 2, 85, 100
4, 1152, Note_on_c, 2, 86, 127
4, 1244, Note_off_c, 2, 86, 100
4, 1248, Note_on_c, 2, 85, 127
4, 1340, Note_off_c, 2, 85, 100
4, 1344, Note_on_c, 2, 86, 127
4, 1532, Note_off_c, 2, 86, 100
4, 1632, Note_on_c, 2, 81, 127
4, 1724, Note_off_c, 2, 81, 100
4, 1728, Note_on_c, 2, 83, 127
4, 1820, Note_off_c, 2, 83, 100
4, 1824, Note_on_c, 2, 85, 127
4, 1916, Note_off_c, 2, 85, 100
4, 1920, Note_on_c, 2, 86, 127
4, 2012, Note_off_c, 2, 86, 100
4, 2016, Note_on_c, 2, 88, 127
4, 2108, Note_off_c, 2, 88, 100
4, 2112, Note_on_c, 2, 90, 127
4, 2204, Note_off_c, 2, 90, 100
4, 2208, Note_on_c, 2, 86, 127
4, 2272, Note_off_c, 2, 86, 100
4, 2304, Note_on_c, 2, 91, 127
4, 2396, Note_off_c, 2, 91, 100
4, 2400, Note_on_c, 2, 90, 127
4, 2492, Note_off_c, 2, 90, 100
4, 2496, Note_on_c, 2, 91, 127
4, 2684, Note_off_c, 2, 91, 100
4, 2784, Note_on_c, 2, 90, 127
4, 2876, Note_off_c, 2, 90, 100
4, 2880, Note_on_c, 2, 88, 127
4, 2972, Note_off_c, 2, 88, 100
4, 2976, Note_on_c, 2, 86, 127
4, 3040, Note_off_c, 2, 86, 100
4, 3072, Note_on_c, 2, 85, 127
4, 3164, Note_off_c, 2, 85, 100
4, 3168, Note_on_c, 2, 88, 127
4, 3232, Note_off_c, 2, 88, 100
4, 3264, Note_on_c, 2, 81, 127
4, 3356, Note_off_c, 2, 81, 100
4, 3360, Note_on_c, 2, 79, 127
4, 3452, Note_off_c, 2, 79, 100
4, 3456, Note_on_c, 2, 78, 127
4, 3520, Note_off_c, 2, 78, 100
4, 3552, Note_on_c, 2, 76, 127
4, 3644, Note_off_c, 2, 76, 100
4, 3648, Note_on_c, 2, 74, 127
4, 3740, Note_off_c, 2, 74, 100
4, 3744, Note_on_c, 2, 73, 127
4, 3808, Note_off_c, 2, 73, 100
4, 3840, Note_on_c, 2, 74, 127
4, 3932, Note_off_c, 2, 74, 100
4, 3936, Note_on_c, 2, 78, 127
4, 4000, Note_off_c, 2, 78, 100
4, 4032, Note_on_c, 2, 69, 127
4, 4124, Note_off_c, 2, 69, 100
4, 4128, Note_on_c, 2, 67, 127
4, 4192, Note_off_c, 2, 67, 100
4, 4224, Note_on_c, 2, 66, 127
4, 4316, Note_off_c, 2, 66, 100
4, 4320, Note_on_c, 2, 69, 127
4, 4384, Note_off_c, 2, 69, 100
4, 4416, Note_on_c, 2, 62, 127
4, 4604, Note_off_c, 2, 62, 100
4, 4800, Note_on_c, 2, 86, 127
4, 4892, Note_off_c, 2, 86, 100
4, 4896, Note_on_c, 2, 84, 127
4, 4988, Note_off_c, 2, 84, 100
4, 4992, Note_on_c, 2, 86, 127
4, 5052, Note_off_c, 2, 86, 100
4, 5184, Note_on_c, 2, 79, 127
4, 5244, Note_off_c, 2, 79, 100
4, 5376, Note_on_c, 2, 71, 127
4, 5464, Note_off_c, 2, 71, 100
4, 5568, Note_on_c, 2, 86, 127
4, 5696, Note_off_c, 2, 86, 100
4, 5952, Note_on_c, 2, 88, 127
4, 6044, Note_off_c, 2, 88, 100
4, 6048, Note_on_c, 2, 86, 127
4, 6140, Note_off_c, 2, 86, 100
4, 6144, Note_on_c, 2, 88, 127
4, 6204, Note_off_c, 2, 88, 100
4, 6336, Note_on_c, 2, 81, 127
4, 6396, Note_off_c, 2, 81, 100
4, 6528, Note_on_c, 2, 72, 127
4, 6616, Note_off_c, 2, 72, 100
4, 6720, Note_on_c, 2, 88, 127
4, 6848, Note_off_c, 2, 88, 100
4, 7104, Note_on_c, 2, 90, 127
4, 7196, Note_off_c, 2, 90, 100
4, 7200, Note_on_c, 2, 88, 127
4, 7292, Note_off_c, 2, 88, 100
4, 7296, Note_on_c, 2, 90, 127
4, 7356, Note_off_c, 2, 90, 100
4, 7488, Note_on_c, 2, 86, 127
4, 7548, Note_off_c, 2, 86, 100
4, 7680, Note_on_c, 2, 93, 127
4, 7740, Note_off_c, 2, 93, 100
4, 7872, Note_on_c, 2, 84, 127
4, 8252, Note_off_c, 2, 84, 64
4, 8256, Note_on_c, 2, 83, 127
4, 8444, Note_off_c, 2, 83, 100
4, 8544, Note_on_c, 2, 79, 127
4, 8636, Note_off_c, 2, 79, 100
4, 8640, Note_on_c, 2, 83, 127
4, 8732, Note_off_c, 2, 83, 100
4, 8736, Note_on_c, 2, 86, 127
4, 8828, Note_off_c, 2, 86, 100
4, 8832, Note_on_c, 2, 91, 127
4, 8896, Note_off_c, 2, 91, 100
4, 8928, Note_on_c, 2, 86, 127
4, 9020, Note_off_c, 2, 86, 100
4, 9024, Note_on_c, 2, 91, 127
4, 9116, Note_off_c, 2, 91, 100
4, 9120, Note_on_c, 2, 93, 127
4, 9184, Note_off_c, 2, 93, 100
4, 9216, Note_on_c, 2, 95, 127
4, 9308, Note_off_c, 2, 95, 100
4, 9312, Note_on_c, 2, 91, 127
4, 9404, Note_off_c, 2, 91, 100
4, 9408, Note_on_c, 2, 86, 127
4, 9500, Note_off_c, 2, 86, 100
4, 9504, Note_on_c, 2, 83, 127
4, 9596, Note_off_c, 2, 83, 100
4, 9600, Note_on_c, 2, 79, 127
4, 9664, Note_off_c, 2, 79, 100
4, 9696, Note_on_c, 2, 83, 127
4, 9788, Note_off_c, 2, 83, 100
4, 9792, Note_on_c, 2, 86, 127
4, 9884, Note_off_c, 2, 86, 100
4, 9888, Note_on_c, 2, 91, 127
4, 9952, Note_off_c, 2, 91, 100
4, 9984, Note_on_c, 2, 95, 127
4, 10076, Note_off_c, 2, 95, 100
4, 10080, Note_on_c, 2, 91, 127
4, 10172, Note_off_c, 2, 91, 100
4, 10176, Note_on_c, 2, 90, 127
4, 10268, Note_off_c, 2, 90, 100
4, 10272, Note_on_c, 2, 88, 127
4, 10336, Note_off_c, 2, 88, 100
4, 10368, Note_on_c, 2, 93, 127
4, 10460, Note_off_c, 2, 93, 100
4, 10464, Note_on_c, 2, 88, 127
4, 10556, Note_off_c, 2, 88, 100
4, 10560, Note_on_c, 2, 85, 127
4, 10652, Note_off_c, 2, 85, 100
4, 10656, Note_on_c, 2, 81, 127
4, 10748, Note_off_c, 2, 81, 100
4, 10752, Note_on_c, 2, 78, 127
4, 10816, Note_off_c, 2, 78, 100
4, 10848, Note_on_c, 2, 81, 127
4, 10940, Note_off_c, 2, 81, 100
4, 10944, Note_on_c, 2, 85, 127
4, 11036, Note_off_c, 2, 85, 100
4, 11040, Note_on_c, 2, 88, 127
4, 11104, Note_off_c, 2, 88, 100
4, 11136, Note_on_c, 2, 93, 127
4, 11228, Note_off_c, 2, 93, 100
4, 11232, Note_on_c, 2, 90, 127
4, 11324, Note_off_c, 2, 90, 100
4, 11328, Note_on_c, 2, 88, 127
4, 11420, Note_off_c, 2, 88, 100
4, 11424, Note_on_c, 2, 86, 127
4, 11488, Note_off_c, 2, 86, 100
4, 11520, Note_on_c, 2, 91, 127
4, 11612, Note_off_c, 2, 91, 100
4, 11616, Note_on_c, 2, 86, 127
4, 11708, Note_off_c, 2, 86, 100
4, 11712, Note_on_c, 2, 83, 127
4, 11804, Note_off_c, 2, 83, 100
4, 11808, Note_on_c, 2, 79, 127
4, 11900, Note_off_c, 2, 79, 100
4, 11904, Note_on_c, 2, 76, 127
4, 11968, Note_off_c, 2, 76, 100
4, 12000, Note_on_c, 2, 79, 127
4, 12092, Note_off_c, 2, 79, 100
4, 12096, Note_on_c, 2, 83, 127
4, 12188, Note_off_c, 2, 83, 100
4, 12192, Note_on_c, 2, 86, 127
4, 12256, Note_off_c, 2, 86, 100
4, 12288, Note_on_c, 2, 91, 127
4, 12380, Note_off_c, 2, 91, 100
4, 12384, Note_on_c, 2, 90, 127
4, 12476, Note_off_c, 2, 90, 100
4, 12480, Note_on_c, 2, 88, 127
4, 12572, Note_off_c, 2, 88, 100
4, 12576, Note_on_c, 2, 86, 127
4, 12640, Note_off_c, 2, 86, 100
4, 12672, Note_on_c, 2, 85, 127
4, 12764, Note_off_c, 2, 85, 100
4, 12768, Note_on_c, 2, 79, 127
4, 12860, Note_off_c, 2, 79, 100
4, 12864, Note_on_c, 2, 76, 127
4, 12956, Note_off_c, 2, 76, 100
4, 12960, Note_on_c, 2, 73, 127
4, 13052, Note_off_c, 2, 73, 100
4, 13056, Note_on_c, 2, 69, 127
4, 13120, Note_off_c, 2, 69, 100
4, 13152, Note_on_c, 2, 73, 127
4, 13244, Note_off_c, 2, 73, 100
4, 13248, Note_on_c, 2, 76, 127
4, 13340, Note_off_c, 2, 76, 100
4, 13344, Note_on_c, 2, 79, 127
4, 13408, Note_off_c, 2, 79, 100
4, 13440, Note_on_c, 2, 85, 127
4, 13532, Note_off_c, 2, 85, 100
4, 13536, Note_on_c, 2, 88, 127
4, 13628, Note_off_c, 2, 88, 100
4, 13632, Note_on_c, 2, 86, 127
4, 13724, Note_off_c, 2, 86, 100
4, 13728, Note_on_c, 2, 85, 127
4, 13792, Note_off_c, 2, 85, 100
4, 13824, Note_on_c, 2, 86, 127
4, 13952, Note_off_c, 2, 86, 100
4, 14016, Note_on_c, 2, 66, 127
4, 14076, Note_off_c, 2, 66, 100
4, 14208, Note_on_c, 2, 66, 127
4, 14268, Note_off_c, 2, 66, 100
4, 14400, Note_on_c, 2, 81, 127
4, 14460, Note_off_c, 2, 81, 100
4, 14592, Note_on_c, 2, 86, 127
4, 14652, Note_off_c, 2, 86, 100
4, 14784, Note_on_c, 2, 90, 127
4, 14844, Note_off_c, 2, 90, 100
4, 14976, Note_on_c, 2, 83, 127
4, 15104, Note_off_c, 2, 83, 100
4, 15168, Note_on_c, 2, 67, 127
4, 15228, Note_off_c, 2, 67, 100
4, 15360, Note_on_c, 2, 67, 127
4, 15420, Note_off_c, 2, 67, 100
4, 15552, Note_on_c, 2, 83, 127
4, 15612, Note_off_c, 2, 83, 100
4, 15744, Note_on_c, 2, 88, 127
4, 15804, Note_off_c, 2, 88, 100
4, 15936, Note_on_c, 2, 91, 127
4, 15996, Note_off_c, 2, 91, 100
4, 16128, Note_on_c, 2, 85, 127
4, 16220, Note_off_c, 2, 85, 100
4, 16224, Note_on_c, 2, 88, 127
4, 16288, Note_off_c, 2, 88, 100
4, 16320, Note_on_c, 2, 81, 127
4, 16412, Note_off_c, 2, 81, 100
4, 16416, Note_on_c, 2, 79, 127
4, 16508, Note_off_c, 2, 79, 100
4, 16512, Note_on_c, 2, 78, 127
4, 16576, Note_off_c, 2, 78, 100
4, 16608, Note_on_c, 2, 81, 127
4, 16700, Note_off_c, 2, 81, 100
4, 16704, Note_on_c, 2, 86, 127
4, 16796, Note_off_c, 2, 86, 100
4, 16800, Note_on_c, 2, 90, 127
4, 16864, Note_off_c, 2, 90, 100
4, 16896, Note_on_c, 2, 91, 127
4, 16988, Note_off_c, 2, 91, 100
4, 16992, Note_on_c, 2, 88, 127
4, 17084, Note_off_c, 2, 88, 100
4, 17088, Note_on_c, 2, 86, 127
4, 17180, Note_off_c, 2, 86, 100
4, 17184, Note_on_c, 2, 85, 127
4, 17248, Note_off_c, 2, 85, 100
4, 17280, Note_on_c, 2, 90, 127
4, 17344, Note_off_c, 2, 90, 100
4, 17376, Note_on_c, 2, 86, 127
4, 17468, Note_off_c, 2, 86, 100
4, 17472, Note_on_c, 2, 85, 127
4, 17564, Note_off_c, 2, 85, 100
4, 17568, Note_on_c, 2, 83, 127
4, 17660, Note_off_c, 2, 83, 100
4, 17664, Note_on_c, 2, 81, 127
4, 17728, Note_off_c, 2, 81, 100
4, 17760, Note_on_c, 2, 79, 127
4, 17852, Note_off_c, 2, 79, 100
4, 17856, Note_on_c, 2, 78, 127
4, 17948, Note_off_c, 2, 78, 100
4, 17952, Note_on_c, 2, 76, 127
4, 18044, Note_off_c, 2, 76, 100
4, 18048, Note_on_c, 2, 74, 127
4, 18304, Note_off_c, 2, 74, 100
4, 36864, Note_on_c, 2, 90, 127
4, 36956, Note_off_c, 2, 90, 100
4, 36960, Note_on_c, 2, 91, 127
4, 37052, Note_off_c, 2, 91, 100
4, 37056, Note_on_c, 2, 93, 127
4, 37244, Note_off_c, 2, 93, 100
4, 37344, Note_on_c, 2, 95, 127
4, 37436, Note_off_c, 2, 95, 100
4, 37440, Note_on_c, 2, 93, 127
4, 37532, Note_off_c, 2, 93, 100
4, 37536, Note_on_c, 2, 91, 127
4, 37628, Note_off_c, 2, 91, 100
4, 37632, Note_on_c, 2, 90, 127
4, 37724, Note_off_c, 2, 90, 100
4, 37728, Note_on_c, 2, 88, 127
4, 37820, Note_off_c, 2, 88, 100
4, 37824, Note_on_c, 2, 86, 127
4, 37916, Note_off_c, 2, 86, 100
4, 37920, Note_on_c, 2, 84, 127
4, 37984, Note_off_c, 2, 84, 100
4, 38016, Note_on_c, 2, 83, 127
4, 38108, Note_off_c, 2, 83, 100
4, 38112, Note_on_c, 2, 84, 127
4, 38204, Note_off_c, 2, 84, 100
4, 38208, Note_on_c, 2, 86, 127
4, 38396, Note_off_c, 2, 86, 100
4, 38496, Note_on_c, 2, 88, 127
4, 38588, Note_off_c, 2, 88, 100
4, 38592, Note_on_c, 2, 86, 127
4, 38684, Note_off_c, 2, 86, 100
4, 38688, Note_on_c, 2, 84, 127
4, 38780, Note_off_c, 2, 84, 100
4, 38784, Note_on_c, 2, 83, 127
4, 38876, Note_off_c, 2, 83, 100
4, 38880, Note_on_c, 2, 81, 127
4, 38972, Note_off_c, 2, 81, 100
4, 38976, Note_on_c, 2, 79, 127
4, 39068, Note_off_c, 2, 79, 100
4, 39072, Note_on_c, 2, 78, 127
4, 39164, Note_off_c, 2, 78, 100
4, 39168, Note_on_c, 2, 76, 127
4, 39232, Note_off_c, 2, 76, 100
4, 39264, Note_on_c, 2, 80, 127
4, 39356, Note_off_c, 2, 80, 100
4, 39360, Note_on_c, 2, 81, 127
4, 39452, Note_off_c, 2, 81, 100
4, 39456, Note_on_c, 2, 83, 127
4, 39548, Note_off_c, 2, 83, 100
4, 39552, Note_on_c, 2, 81, 127
4, 39616, Note_off_c, 2, 81, 100
4, 39648, Note_on_c, 2, 76, 127
4, 39712, Note_off_c, 2, 76, 100
4, 39744, Note_on_c, 2, 81, 127
4, 39836, Note_off_c, 2, 81, 100
4, 39840, Note_on_c, 2, 83, 127
4, 39932, Note_off_c, 2, 83, 100
4, 39936, Note_on_c, 2, 84, 127
4, 40000, Note_off_c, 2, 84, 100
4, 40032, Note_on_c, 2, 81, 127
4, 40096, Note_off_c, 2, 81, 100
4, 40128, Note_on_c, 2, 87, 127
4, 40220, Note_off_c, 2, 87, 100
4, 40224, Note_on_c, 2, 88, 127
4, 40288, Note_off_c, 2, 88, 100
4, 40320, Note_on_c, 2, 90, 127
4, 40412, Note_off_c, 2, 90, 100
4, 40416, Note_on_c, 2, 88, 127
4, 40508, Note_off_c, 2, 88, 100
4, 40512, Note_on_c, 2, 87, 127
4, 40604, Note_off_c, 2, 87, 100
4, 40608, Note_on_c, 2, 85, 127
4, 40700, Note_off_c, 2, 85, 100
4, 40704, Note_on_c, 2, 83, 127
4, 41468, Note_off_c, 2, 83, 100
4, 41568, Note_on_c, 2, 87, 127
4, 41660, Note_off_c, 2, 87, 100
4, 41664, Note_on_c, 2, 88, 127
4, 41852, Note_off_c, 2, 88, 100
4, 41952, Note_on_c, 2, 75, 127
4, 42044, Note_off_c, 2, 75, 100
4, 42048, Note_on_c, 2, 76, 127
4, 42236, Note_off_c, 2, 76, 100
4, 42336, Note_on_c, 2, 63, 127
4, 42428, Note_off_c, 2, 63, 100
4, 42432, Note_on_c, 2, 64, 127
4, 42620, Note_off_c, 2, 64, 100
4, 42720, Note_on_c, 2, 92, 127
4, 42812, Note_off_c, 2, 92, 100
4, 42816, Note_on_c, 2, 93, 127
4, 43004, Note_off_c, 2, 93, 100
4, 43104, Note_on_c, 2, 80, 127
4, 43196, Note_off_c, 2, 80, 100
4, 43200, Note_on_c, 2, 81, 127
4, 43388, Note_off_c, 2, 81, 100
4, 43488, Note_on_c, 2, 68, 127
4, 43580, Note_off_c, 2, 68, 100
4, 43584, Note_on_c, 2, 69, 127
4, 43772, Note_off_c, 2, 69, 100
4, 43872, Note_on_c, 2, 71, 127
4, 43964, Note_off_c, 2, 71, 100
4, 43968, Note_on_c, 2, 72, 127
4, 44060, Note_off_c, 2, 72, 100
4, 44064, Note_on_c, 2, 78, 127
4, 44128, Note_off_c, 2, 78, 100
4, 44160, Note_on_c, 2, 71, 127
4, 44252, Note_off_c, 2, 71, 100
4, 44256, Note_on_c, 2, 75, 127
4, 44348, Note_off_c, 2, 75, 100
4, 44352, Note_on_c, 2, 76, 127
4, 44444, Note_off_c, 2, 76, 100
4, 44448, Note_on_c, 2, 79, 127
4, 44512, Note_off_c, 2, 79, 100
4, 44544, Note_on_c, 2, 78, 127
4, 44636, Note_off_c, 2, 78, 100
4, 44640, Note_on_c, 2, 76, 127
4, 44732, Note_off_c, 2, 76, 100
4, 44736, Note_on_c, 2, 75, 127
4, 44828, Note_off_c, 2, 75, 100
4, 44832, Note_on_c, 2, 81, 127
4, 44896, Note_off_c, 2, 81, 100
4, 44928, Note_on_c, 2, 79, 127
4, 45020, Note_off_c, 2, 79, 100
4, 45024, Note_on_c, 2, 78, 127
4, 45116, Note_off_c, 2, 78, 100
4, 45120, Note_on_c, 2, 76, 127
4, 45212, Note_off_c, 2, 76, 100
4, 45216, Note_on_c, 2, 75, 127
4, 45308, Note_off_c, 2, 75, 100
4, 45312, Note_on_c, 2, 76, 127
4, 45404, Note_off_c, 2, 76, 100
4, 45408, Note_on_c, 2, 79, 127
4, 45472, Note_off_c, 2, 79, 100
4, 45504, Note_on_c, 2, 71, 127
4, 45596, Note_off_c, 2, 71, 100
4, 45600, Note_on_c, 2, 69, 127
4, 45692, Note_off_c, 2, 69, 100
4, 45696, Note_on_c, 2, 67, 127
4, 45788, Note_off_c, 2, 67, 100
4, 45792, Note_on_c, 2, 71, 127
4, 45856, Note_off_c, 2, 71, 100
4, 45888, Note_on_c, 2, 64, 127
4, 46016, Note_off_c, 2, 64, 100
4, 46272, Note_on_c, 2, 88, 127
4, 46332, Note_off_c, 2, 88, 100
4, 46464, Note_on_c, 2, 84, 127
4, 46524, Note_off_c, 2, 84, 100
4, 46656, Note_on_c, 2, 88, 127
4, 46716, Note_off_c, 2, 88, 100
4, 46848, Note_on_c, 2, 93, 127
4, 46908, Note_off_c, 2, 93, 100
4, 47040, Note_on_c, 2, 81, 127
4, 47100, Note_off_c, 2, 81, 100
4, 47424, Note_on_c, 2, 86, 127
4, 47484, Note_off_c, 2, 86, 100
4, 47616, Note_on_c, 2, 83, 127
4, 47676, Note_off_c, 2, 83, 100
4, 47808, Note_on_c, 2, 86, 127
4, 47868, Note_off_c, 2, 86, 100
4, 48000, Note_on_c, 2, 91, 127
4, 48060, Note_off_c, 2, 91, 100
4, 48192, Note_on_c, 2, 79, 127
4, 48252, Note_off_c, 2, 79, 100
4, 48384, Note_on_c, 2, 84, 127
4, 48476, Note_off_c, 2, 84, 100
4, 48480, Note_on_c, 2, 81, 127
4, 48572, Note_off_c, 2, 81, 100
4, 48576, Note_on_c, 2, 76, 127
4, 48668, Note_off_c, 2, 76, 100
4, 48672, Note_on_c, 2, 72, 127
4, 48764, Note_off_c, 2, 72, 100
4, 48768, Note_on_c, 2, 69, 127
4, 48860, Note_off_c, 2, 69, 100
4, 48864, Note_on_c, 2, 72, 127
4, 48956, Note_off_c, 2, 72, 100
4, 48960, Note_on_c, 2, 76, 127
4, 49052, Note_off_c, 2, 76, 100
4, 49056, Note_on_c, 2, 81, 127
4, 49148, Note_off_c, 2, 81, 100
4, 49152, Note_on_c, 2, 84, 127
4, 49216, Note_off_c, 2, 84, 100
4, 49248, Note_on_c, 2, 81, 127
4, 49340, Note_off_c, 2, 81, 100
4, 49344, Note_on_c, 2, 84, 127
4, 49436, Note_off_c, 2, 84, 100
4, 49440, Note_on_c, 2, 88, 127
4, 49504, Note_off_c, 2, 88, 100
4, 49536, Note_on_c, 2, 90, 127
4, 49628, Note_off_c, 2, 90, 100
4, 49632, Note_on_c, 2, 84, 127
4, 49724, Note_off_c, 2, 84, 100
4, 49728, Note_on_c, 2, 81, 127
4, 49820, Note_off_c, 2, 81, 100
4, 49824, Note_on_c, 2, 78, 127
4, 49916, Note_off_c, 2, 78, 100
4, 49920, Note_on_c, 2, 74, 127
4, 50012, Note_off_c, 2, 74, 100
4, 50016, Note_on_c, 2, 78, 127
4, 50108, Note_off_c, 2, 78, 100
4, 50112, Note_on_c, 2, 81, 127
4, 50204, Note_off_c, 2, 81, 100
4, 50208, Note_on_c, 2, 84, 127
4, 50300, Note_off_c, 2, 84, 100
4, 50304, Note_on_c, 2, 90, 127
4, 50368, Note_off_c, 2, 90, 100
4, 50400, Note_on_c, 2, 84, 127
4, 50492, Note_off_c, 2, 84, 100
4, 50496, Note_on_c, 2, 90, 127
4, 50560, Note_off_c, 2, 90, 100
4, 50592, Note_on_c, 2, 93, 127
4, 50656, Note_off_c, 2, 93, 100
4, 50688, Note_on_c, 2, 95, 127
4, 50780, Note_off_c, 2, 95, 100
4, 50784, Note_on_c, 2, 91, 127
4, 50876, Note_off_c, 2, 91, 100
4, 50880, Note_on_c, 2, 86, 127
4, 50972, Note_off_c, 2, 86, 100
4, 50976, Note_on_c, 2, 83, 127
4, 51068, Note_off_c, 2, 83, 100
4, 51072, Note_on_c, 2, 79, 127
4, 51164, Note_off_c, 2, 79, 100
4, 51168, Note_on_c, 2, 83, 127
4, 51260, Note_off_c, 2, 83, 100
4, 51264, Note_on_c, 2, 86, 127
4, 51356, Note_off_c, 2, 86, 100
4, 51360, Note_on_c, 2, 91, 127
4, 51452, Note_off_c, 2, 91, 100
4, 51456, Note_on_c, 2, 95, 127
4, 51520, Note_off_c, 2, 95, 100
4, 51552, Note_on_c, 2, 91, 127
4, 51644, Note_off_c, 2, 91, 100
4, 51648, Note_on_c, 2, 95, 127
4, 51712, Note_off_c, 2, 95, 100
4, 51744, Note_on_c, 2, 98, 127
4, 51808, Note_off_c, 2, 98, 100
4, 51840, Note_on_c, 2, 88, 127
4, 51932, Note_off_c, 2, 88, 100
4, 51936, Note_on_c, 2, 98, 127
4, 52028, Note_off_c, 2, 98, 100
4, 52032, Note_on_c, 2, 96, 127
4, 52124, Note_off_c, 2, 96, 100
4, 52128, Note_on_c, 2, 88, 127
4, 52192, Note_off_c, 2, 88, 100
4, 52224, Note_on_c, 2, 86, 127
4, 52316, Note_off_c, 2, 86, 100
4, 52320, Note_on_c, 2, 96, 127
4, 52412, Note_off_c, 2, 96, 100
4, 52416, Note_on_c, 2, 95, 127
4, 52508, Note_off_c, 2, 95, 100
4, 52512, Note_on_c, 2, 86, 127
4, 52576, Note_off_c, 2, 86, 100
4, 52608, Note_on_c, 2, 84, 127
4, 52700, Note_off_c, 2, 84, 100
4, 52704, Note_on_c, 2, 88, 127
4, 52796, Note_off_c, 2, 88, 100
4, 52800, Note_on_c, 2, 90, 127
4, 52892, Note_off_c, 2, 90, 100
4, 52896, Note_on_c, 2, 91, 127
4, 52960, Note_off_c, 2, 91, 100
4, 52992, Note_on_c, 2, 93, 127
4, 53056, Note_off_c, 2, 93, 100
4, 53088, Note_on_c, 2, 84, 127
4, 53180, Note_off_c, 2, 84, 100
4, 53184, Note_on_c, 2, 83, 127
4, 53276, Note_off_c, 2, 83, 100
4, 53280, Note_on_c, 2, 81, 127
4, 53372, Note_off_c, 2, 81, 100
4, 53376, Note_on_c, 2, 83, 127
4, 53440, Note_off_c, 2, 83, 100
4, 53472, Note_on_c, 2, 86, 127
4, 53564, Note_off_c, 2, 86, 100
4, 53568, Note_on_c, 2, 83, 127
4, 53660, Note_off_c, 2, 83, 100
4, 53664, Note_on_c, 2, 79, 127
4, 53756, Note_off_c, 2, 79, 100
4, 53760, Note_on_c, 2, 84, 127
4, 53852, Note_off_c, 2, 84, 100
4, 53856, Note_on_c, 2, 81, 127
4, 53948, Note_off_c, 2, 81, 100
4, 53952, Note_on_c, 2, 79, 127
4, 54044, Note_off_c, 2, 79, 100
4, 54048, Note_on_c, 2, 78, 127
4, 54140, Note_off_c, 2, 78, 100
4, 54144, Note_on_c, 2, 83, 127
4, 54208, Note_off_c, 2, 83, 100
4, 54240, Note_on_c, 2, 79, 127
4, 54332, Note_off_c, 2, 79, 100
4, 54336, Note_on_c, 2, 78, 127
4, 54428, Note_off_c, 2, 78, 100
4, 54432, Note_on_c, 2, 76, 127
4, 54524, Note_off_c, 2, 76, 100
4, 54528, Note_on_c, 2, 74, 127
4, 54592, Note_off_c, 2, 74, 100
4, 54624, Note_on_c, 2, 72, 127
4, 54716, Note_off_c, 2, 72, 100
4, 54720, Note_on_c, 2, 71, 127
4, 54812, Note_off_c, 2, 71, 100
4, 54816, Note_on_c, 2, 69, 127
4, 54908, Note_off_c, 2, 69, 100
4, 54912, Note_on_c, 2, 67, 127
4, 55168, Note_off_c, 2, 67, 100
4, 55168, End_track
5, 0, Start_track
5, 0, Title_t, "Var.I: Allegro"
5, 0, Control_c, 3, 0, 0
5, 0, Program_c, 3, 6
5, 0, Control_c, 3, 7, 127
5, 0, Control_c, 3, 10, 0
5, 0, Control_c, 3, 91, 127
5, 0, Key_signature, 1, "major"
5, 0, Note_on_c, 3, 31, 96
5, 128, Note_off_c, 3, 31, 100
5, 192, Note_on_c, 3, 47, 96
5, 284, Note_off_c, 3, 47, 100
5, 288, Note_on_c, 3, 45, 96
5, 380, Note_off_c, 3, 45, 100
5, 384, Note_on_c, 3, 47, 96
5, 444, Note_off_c, 3, 47, 100
5, 576, Note_on_c, 3, 43, 96
5, 636, Note_off_c, 3, 43, 100
5, 768, Note_on_c, 3, 31, 96
5, 856, Note_off_c, 3, 31, 100
5, 960, Note_on_c, 3, 43, 96
5, 1020, Note_off_c, 3, 43, 100
5, 1152, Note_on_c, 3, 30, 96
5, 1280, Note_off_c, 3, 30, 100
5, 1344, Note_on_c, 3, 42, 96
5, 1436, Note_off_c, 3, 42, 100
5, 1440, Note_on_c, 3, 40, 96
5, 1532, Note_off_c, 3, 40, 100
5, 1536, Note_on_c, 3, 42, 96
5, 1596, Note_off_c, 3, 42, 100
5, 1728, Note_on_c, 3, 38, 96
5, 1788, Note_off_c, 3, 38, 100
5, 1920, Note_on_c, 3, 30, 96
5, 2008, Note_off_c, 3, 30, 100
5, 2112, Note_on_c, 3, 38, 96
5, 2172, Note_off_c, 3, 38, 100
5, 2304, Note_on_c, 3, 28, 96
5, 2432, Note_off_c, 3, 28, 100
5, 2496, Note_on_c, 3, 40, 96
5, 2588, Note_off_c, 3, 40, 100
5, 2592, Note_on_c, 3, 38, 96
5, 2684, Note_off_c, 3, 38, 100
5, 2688, Note_on_c, 3, 40, 96
5, 2748, Note_off_c, 3, 40, 100
5, 2880, Note_on_c, 3, 43, 96
5, 2940, Note_off_c, 3, 43, 100
5, 3072, Note_on_c, 3, 33, 96
5, 3160, Note_off_c, 3, 33, 100
5, 3264, Note_on_c, 3, 49, 96
5, 3324, Note_off_c, 3, 49, 100
5, 3456, Note_on_c, 3, 38, 96
5, 3584, Note_off_c, 3, 38, 100
5, 3648, Note_on_c, 3, 42, 96
5, 3740, Note_off_c, 3, 42, 100
5, 3744, Note_on_c, 3, 40, 96
5, 3836, Note_off_c, 3, 40, 100
5, 3840, Note_on_c, 3, 42, 96
5, 3900, Note_off_c, 3, 42, 100
5, 4032, Note_on_c, 3, 38, 96
5, 4092, Note_off_c, 3, 38, 100
5, 4224, Note_on_c, 3, 26, 96
5, 4312, Note_off_c, 3, 26, 100
5, 4512, Note_on_c, 3, 36, 96
5, 4576, Note_off_c, 3, 36, 100
5, 4608, Note_on_c, 3, 35, 96
5, 4700, Note_off_c, 3, 35, 100
5, 4704, Note_on_c, 3, 33, 96
5, 4796, Note_off_c, 3, 33, 100
5, 4800, Note_on_c, 3, 35, 96
5, 4988, Note_off_c, 3, 35, 100
5, 5088, Note_on_c, 3, 38, 96
5, 5180, Note_off_c, 3, 38, 100
5, 5184, Note_on_c, 3, 40, 96
5, 5276, Note_off_c, 3, 40, 100
5, 5280, Note_on_c, 3, 42, 96
5, 5372, Note_off_c, 3, 42, 100
5, 5376, Note_on_c, 3, 43, 96
5, 5468, Note_off_c, 3, 43, 100
5, 5472, Note_on_c, 3, 45, 96
5, 5564, Note_off_c, 3, 45, 100
5, 5568, Note_on_c, 3, 47, 96
5, 5660, Note_off_c, 3, 47, 100
5, 5664, Note_on_c, 3, 43, 96
5, 5728, Note_off_c, 3, 43, 100
5, 5760, Note_on_c, 3, 36, 96
5, 5852, Note_off_c, 3, 36, 100
5, 5856, Note_on_c, 3, 35, 96
5, 5948, Note_off_c, 3, 35, 100
5, 5952, Note_on_c, 3, 36, 96
5, 6140, Note_off_c, 3, 36, 100
5, 6240, Note_on_c, 3, 40, 96
5, 6332, Note_off_c, 3, 40, 100
5, 6336, Note_on_c, 3, 42, 96
5, 6428, Note_off_c, 3, 42, 100
5, 6432, Note_on_c, 3, 43, 96
5, 6524, Note_off_c, 3, 43, 100
5, 6528, Note_on_c, 3, 45, 96
5, 6620, Note_off_c, 3, 45, 100
5, 6624, Note_on_c, 3, 47, 96
5, 6716, Note_off_c, 3, 47, 100
5, 6720, Note_on_c, 3, 48, 96
5, 6812, Note_off_c, 3, 48, 100
5, 6816, Note_on_c, 3, 45, 96
5, 6880, Note_off_c, 3, 45, 100
5, 6912, Note_on_c, 3, 38, 96
5, 7004, Note_off_c, 3, 38, 100
5, 7008, Note_on_c, 3, 37, 96
5, 7100, Note_off_c, 3, 37, 100
5, 7104, Note_on_c, 3, 38, 96
5, 7292, Note_off_c, 3, 38, 100
5, 7392, Note_on_c, 3, 45, 96
5, 7484, Note_off_c, 3, 45, 100
5, 7488, Note_on_c, 3, 47, 96
5, 7580, Note_off_c, 3, 47, 100
5, 7584, Note_on_c, 3, 48, 96
5, 7676, Note_off_c, 3, 48, 100
5, 7680, Note_on_c, 3, 50, 96
5, 7772, Note_off_c, 3, 50, 100
5, 7776, Note_on_c, 3, 52, 96
5, 7868, Note_off_c, 3, 52, 100
5, 7872, Note_on_c, 3, 54, 96
5, 7964, Note_off_c, 3, 54, 100
5, 7968, Note_on_c, 3, 50, 96
5, 8032, Note_off_c, 3, 50, 100
5, 8064, Note_on_c, 3, 55, 96
5, 8156, Note_off_c, 3, 55, 100
5, 8160, Note_on_c, 3, 54, 96
5, 8252, Note_off_c, 3, 54, 100
5, 8256, Note_on_c, 3, 55, 96
5, 8320, Note_off_c, 3, 55, 100
5, 8352, Note_on_c, 3, 50, 96
5, 8416, Note_off_c, 3, 50, 100
5, 8448, Note_on_c, 3, 47, 96
5, 8540, Note_off_c, 3, 47, 100
5, 8544, Note_on_c, 3, 50, 96
5, 8608, Note_off_c, 3, 50, 100
5, 8640, Note_on_c, 3, 43, 96
5, 8732, Note_off_c, 3, 43, 100
5, 8736, Note_on_c, 3, 47, 96
5, 8800, Note_off_c, 3, 47, 100
5, 8832, Note_on_c, 3, 38, 96
5, 8924, Note_off_c, 3, 38, 100
5, 8928, Note_on_c, 3, 43, 96
5, 8992, Note_off_c, 3, 43, 100
5, 9024, Note_on_c, 3, 35, 96
5, 9116, Note_off_c, 3, 35, 100
5, 9120, Note_on_c, 3, 38, 96
5, 9184, Note_off_c, 3, 38, 100
5, 9216, Note_on_c, 3, 31, 96
5, 9344, Note_off_c, 3, 31, 100
5, 9408, Note_on_c, 3, 43, 96
5, 9468, Note_off_c, 3, 43, 100
5, 9600, Note_on_c, 3, 47, 96
5, 9660, Note_off_c, 3, 47, 100
5, 9792, Note_on_c, 3, 43, 96
5, 9852, Note_off_c, 3, 43, 100
5, 9984, Note_on_c, 3, 31, 96
5, 10072, Note_off_c, 3, 31, 100
5, 10176, Note_on_c, 3, 43, 96
5, 10236, Note_off_c, 3, 43, 100
5, 10368, Note_on_c, 3, 30, 96
5, 10496, Note_off_c, 3, 30, 100
5, 10560, Note_on_c, 3, 42, 96
5, 10620, Note_off_c, 3, 42, 100
5, 10752, Note_on_c, 3, 45, 96
5, 10812, Note_off_c, 3, 45, 100
5, 10944, Note_on_c, 3, 42, 96
5, 11004, Note_off_c, 3, 42, 100
5, 11136, Note_on_c, 3, 30, 96
5, 11224, Note_off_c, 3, 30, 100
5, 11328, Note_on_c, 3, 42, 96
5, 11388, Note_off_c, 3, 42, 100
5, 11520, Note_on_c, 3, 28, 96
5, 11648, Note_off_c, 3, 28, 100
5, 11712, Note_on_c, 3, 40, 96
5, 11772, Note_off_c, 3, 40, 100
5, 11904, Note_on_c, 3, 43, 96
5, 11964, Note_off_c, 3, 43, 100
5, 12096, Note_on_c, 3, 40, 96
5, 12156, Note_off_c, 3, 40, 100
5, 12288, Note_on_c, 3, 28, 96
5, 12376, Note_off_c, 3, 28, 100
5, 12480, Note_on_c, 3, 43, 96
5, 12540, Note_off_c, 3, 43, 100
5, 12672, Note_on_c, 3, 33, 96
5, 12800, Note_off_c, 3, 33, 100
5, 12864, Note_on_c, 3, 40, 96
5, 12924, Note_off_c, 3, 40, 100
5, 13056, Note_on_c, 3, 43, 96
5, 13116, Note_off_c, 3, 43, 100
5, 13248, Note_on_c, 3, 40, 96
5, 13308, Note_off_c, 3, 40, 100
5, 13440, Note_on_c, 3, 33, 96
5, 13528, Note_off_c, 3, 33, 100
5, 13632, Note_on_c, 3, 43, 96
5, 13692, Note_off_c, 3, 43, 100
5, 13824, Note_on_c, 3, 42, 96
5, 13916, Note_off_c, 3, 42, 100
5, 13920, Note_on_c, 3, 45, 96
5, 14012, Note_off_c, 3, 45, 100
5, 14016, Note_on_c, 3, 50, 96
5, 14108, Note_off_c, 3, 50, 100
5, 14112, Note_on_c, 3, 54, 96
5, 14176, Note_off_c, 3, 54, 100
5, 14208, Note_on_c, 3, 57, 96
5, 14300, Note_off_c, 3, 57, 100
5, 14304, Note_on_c, 3, 54, 96
5, 14396, Note_off_c, 3, 54, 100
5, 14400, Note_on_c, 3, 50, 96
5, 14492, Note_off_c, 3, 50, 100
5, 14496, Note_on_c, 3, 45, 96
5, 14560, Note_off_c, 3, 45, 100
5, 14592, Note_on_c, 3, 42, 96
5, 14684, Note_off_c, 3, 42, 100
5, 14688, Note_on_c, 3, 45, 96
5, 14752, Note_off_c, 3, 45, 100
5, 14784, Note_on_c, 3, 38, 96
5, 14876, Note_off_c, 3, 38, 100
5, 14880, Note_on_c, 3, 42, 96
5, 14944, Note_off_c, 3, 42, 100
5, 14976, Note_on_c, 3, 43, 96
5, 15068, Note_off_c, 3, 43, 100
5, 15072, Note_on_c, 3, 47, 96
5, 15164, Note_off_c, 3, 47, 100
5, 15168, Note_on_c, 3, 50, 96
5, 15260, Note_off_c, 3, 50, 100
5, 15264, Note_on_c, 3, 55, 96
5, 15328, Note_off_c, 3, 55, 100
5, 15360, Note_on_c, 3, 59, 96
5, 15452, Note_off_c, 3, 59, 100
5, 15456, Note_on_c, 3, 55, 96
5, 15548, Note_off_c, 3, 55, 100
5, 15552, Note_on_c, 3, 50, 96
5, 15644, Note_off_c, 3, 50, 100
5, 15648, Note_on_c, 3, 47, 96
5, 15712, Note_off_c, 3, 47, 100
5, 15744, Note_on_c, 3, 43, 96
5, 15836, Note_off_c, 3, 43, 100
5, 15840, Note_on_c, 3, 47, 96
5, 15904, Note_off_c, 3, 47, 100
5, 15936, Note_on_c, 3, 40, 96
5, 16028, Note_off_c, 3, 40, 100
5, 16032, Note_on_c, 3, 43, 96
5, 16096, Note_off_c, 3, 43, 100
5, 16128, Note_on_c, 3, 45, 96
5, 16256, Note_off_c, 3, 45, 100
5, 16320, Note_on_c, 3, 49, 96
5, 16380, Note_off_c, 3, 49, 100
5, 16512, Note_on_c, 3, 50, 96
5, 16576, Note_off_c, 3, 50, 100
5, 16608, Note_on_c, 3, 45, 96
5, 16700, Note_off_c, 3, 45, 100
5, 16704, Note_on_c, 3, 42, 96
5, 16796, Note_off_c, 3, 42, 100
5, 16800, Note_on_c, 3, 38, 96
5, 16892, Note_off_c, 3, 38, 100
5, 16896, Note_on_c, 3, 45, 96
5, 16956, Note_off_c, 3, 45, 100
5, 17088, Note_on_c, 3, 33, 96
5, 17176, Note_off_c, 3, 33, 100
5, 17280, Note_on_c, 3, 26, 96
5, 17344, Note_off_c, 3, 26, 100
5, 17376, Note_on_c, 3, 38, 96
5, 17468, Note_off_c, 3, 38, 100
5, 17472, Note_on_c, 3, 40, 96
5, 17564, Note_off_c, 3, 40, 100
5, 17568, Note_on_c, 3, 42, 96
5, 17660, Note_off_c, 3, 42, 100
5, 17664, Note_on_c, 3, 43, 96
5, 17728, Note_off_c, 3, 43, 100
5, 17760, Note_on_c, 3, 45, 96
5, 17852, Note_off_c, 3, 45, 100
5, 17856, Note_on_c, 3, 47, 96
5, 17948, Note_off_c, 3, 47, 100
5, 17952, Note_on_c, 3, 49, 96
5, 18044, Note_off_c, 3, 49, 100
5, 18048, Note_on_c, 3, 50, 96
5, 18304, Note_off_c, 3, 50, 100
5, 18432, Note_on_c, 3, 31, 56
5, 18560, Note_off_c, 3, 31, 100
5, 18624, Note_on_c, 3, 47, 56
5, 18716, Note_off_c, 3, 47, 100
5, 18720, Note_on_c, 3, 45, 56
5, 18812, Note_off_c, 3, 45, 100
5, 18816, Note_on_c, 3, 47, 56
5, 18876, Note_off_c, 3, 47, 100
5, 19008, Note_on_c, 3, 43, 56
5, 19068, Note_off_c, 3, 43, 100
5, 19200, Note_on_c, 3, 31, 56
5, 19288, Note_off_c, 3, 31, 100
5, 19392, Note_on_c, 3, 43, 56
5, 19452, Note_off_c, 3, 43, 100
5, 19584, Note_on_c, 3, 30, 56
5, 19712, Note_off_c, 3, 30, 100
5, 19776, Note_on_c, 3, 42, 56
5, 19868, Note_off_c, 3, 42, 100
5, 19872, Note_on_c, 3, 40, 56
5, 19964, Note_off_c, 3, 40, 100
5, 19968, Note_on_c, 3, 42, 56
5, 20028, Note_off_c, 3, 42, 100
5, 20160, Note_on_c, 3, 38, 56
5, 20220, Note_off_c, 3, 38, 100
5, 20352, Note_on_c, 3, 30, 56
5, 20440, Note_off_c, 3, 30, 100
5, 20544, Note_on_c, 3, 38, 56
5, 20604, Note_off_c, 3, 38, 100
5, 20736, Note_on_c, 3, 28, 56
5, 20864, Note_off_c, 3, 28, 100
5, 20928, Note_on_c, 3, 40, 56
5, 21020, Note_off_c, 3, 40, 100
5, 21024, Note_on_c, 3, 38, 56
5, 21116, Note_off_c, 3, 38, 100
5, 21120, Note_on_c, 3, 40, 56
5, 21180, Note_off_c, 3, 40, 100
5, 21312, Note_on_c, 3, 43, 56
5, 21372, Note_off_c, 3, 43, 100
5, 21504, Note_on_c, 3, 33, 56
5, 21592, Note_off_c, 3, 33, 100
5, 21696, Note_on_c, 3, 49, 56
5, 21756, Note_off_c, 3, 49, 100
5, 21888, Note_on_c, 3, 38, 56
5, 22016, Note_off_c, 3, 38, 100
5, 22080, Note_on_c, 3, 42, 56
5, 22172, Note_off_c, 3, 42, 100
5, 22176, Note_on_c, 3, 40, 56
5, 22268, Note_off_c, 3, 40, 100
5, 22272, Note_on_c, 3, 42, 56
5, 22332, Note_off_c, 3, 42, 100
5, 22464, Note_on_c, 3, 38, 56
5, 22524, Note_off_c, 3, 38, 100
5, 22656, Note_on_c, 3, 26, 56
5, 22744, Note_off_c, 3, 26, 100
5, 22944, Note_on_c, 3, 36, 56
5, 23008, Note_off_c, 3, 36, 100
5, 23040, Note_on_c, 3, 35, 56
5, 23132, Note_off_c, 3, 35, 100
5, 23136, Note_on_c, 3, 33, 56
5, 23228, Note_off_c, 3, 33, 100
5, 23232, Note_on_c, 3, 35, 56
5, 23420, Note_off_c, 3, 35, 100
5, 23520, Note_on_c, 3, 38, 56
5, 23612, Note_off_c, 3, 38, 100
5, 23616, Note_on_c, 3, 40, 56
5, 23708, Note_off_c, 3, 40, 100
5, 23712, Note_on_c, 3, 42, 56
5, 23804, Note_off_c, 3, 42, 100
5, 23808, Note_on_c, 3, 43, 56
5, 23900, Note_off_c, 3, 43, 100
5, 23904, Note_on_c, 3, 45, 56
5, 23996, Note_off_c, 3, 45, 100
5, 24000, Note_on_c, 3, 47, 56
5, 24092, Note_off_c, 3, 47, 100
5, 24096, Note_on_c, 3, 43, 56
5, 24160, Note_off_c, 3, 43, 100
5, 24192, Note_on_c, 3, 36, 56
5, 24284, Note_off_c, 3, 36, 100
5, 24288, Note_on_c, 3, 35, 56
5, 24380, Note_off_c, 3, 35, 100
5, 24384, Note_on_c, 3, 36, 56
5, 24572, Note_off_c, 3, 36, 100
5, 24672, Note_on_c, 3, 40, 56
5, 24764, Note_off_c, 3, 40, 100
5, 24768, Note_on_c, 3, 42, 56
5, 24860, Note_off_c, 3, 42, 100
5, 24864, Note_on_c, 3, 43, 56
5, 24956, Note_off_c, 3, 43, 100
5, 24960, Note_on_c, 3, 45, 56
5, 25052, Note_off_c, 3, 45, 100
5, 25056, Note_on_c, 3, 47, 56
5, 25148, Note_off_c, 3, 47, 100
5, 25152, Note_on_c, 3, 48, 56
5, 25244, Note_off_c, 3, 48, 100
5, 25248, Note_on_c, 3, 45, 56
5, 25312, Note_off_c, 3, 45, 100
5, 25344, Note_on_c, 3, 38, 56
5, 25436, Note_off_c, 3, 38, 100
5, 25440, Note_on_c, 3, 37, 56
5, 25532, Note_off_c, 3, 37, 100
5, 25536, Note_on_c, 3, 38, 56
5, 25724, Note_off_c, 3, 38, 100
5, 25824, Note_on_c, 3, 45, 56
5, 25916, Note_off_c, 3, 45, 100
5, 25920, Note_on_c, 3, 47, 56
5, 26012, Note_off_c, 3, 47, 100
5, 26016, Note_on_c, 3, 48, 56
5, 26108, Note_off_c, 3, 48, 100
5, 26112, Note_on_c, 3, 50, 56
5, 26204, Note_off_c, 3, 50, 100
5, 26208, Note_on_c, 3, 52, 56
5, 26300, Note_off_c, 3, 52, 100
5, 26304, Note_on_c, 3, 54, 56
5, 26396, Note_off_c, 3, 54, 100
5, 26400, Note_on_c, 3, 50, 56
5, 26464, Note_off_c, 3, 50, 100
5, 26496, Note_on_c, 3, 55, 56
5, 26588, Note_off_c, 3, 55, 100
5, 26592, Note_on_c, 3, 54, 56
5, 26684, Note_off_c, 3, 54, 100
5, 26688, Note_on_c, 3, 55, 56
5, 26752, Note_off_c, 3, 55, 100
5, 26784, Note_on_c, 3, 50, 56
5, 26848, Note_off_c, 3, 50, 100
5, 26880, Note_on_c, 3, 47, 56
5, 26972, Note_off_c, 3, 47, 100
5, 26976, Note_on_c, 3, 50, 56
5, 27040, Note_off_c, 3, 50, 100
5, 27072, Note_on_c, 3, 43, 56
5, 27164, Note_off_c, 3, 43, 100
5, 27168, Note_on_c, 3, 47, 56
5, 27232, Note_off_c, 3, 47, 100
5, 27264, Note_on_c, 3, 38, 56
5, 27356, Note_off_c, 3, 38, 100
5, 27360, Note_on_c, 3, 43, 56
5, 27424, Note_off_c, 3, 43, 100
5, 27456, Note_on_c, 3, 35, 56
5, 27548, Note_off_c, 3, 35, 100
5, 27552, Note_on_c, 3, 38, 56
5, 27616, Note_off_c, 3, 38, 100
5, 27648, Note_on_c, 3, 31, 56
5, 27776, Note_off_c, 3, 31, 100
5, 27840, Note_on_c, 3, 43, 56
5, 27900, Note_off_c, 3, 43, 100
5, 28032, Note_on_c, 3, 47, 56
5, 28092, Note_off_c, 3, 47, 100
5, 28224, Note_on_c, 3, 43, 56
5, 28284, Note_off_c, 3, 43, 100
5, 28416, Note_on_c, 3, 31, 56
5, 28504, Note_off_c, 3, 31, 100
5, 28608, Note_on_c, 3, 43, 56
5, 28668, Note_off_c, 3, 43, 100
5, 28800, Note_on_c, 3, 30, 56
5, 28928, Note_off_c, 3, 30, 100
5, 28992, Note_on_c, 3, 42, 56
5, 29052, Note_off_c, 3, 42, 100
5, 29184, Note_on_c, 3, 45, 56
5, 29244, Note_off_c, 3, 45, 100
5, 29376, Note_on_c, 3, 42, 56
5, 29436, Note_off_c, 3, 42, 100
5, 29568, Note_on_c, 3, 30, 56
5, 29656, Note_off_c, 3, 30, 100
5, 29760, Note_on_c, 3, 42, 56
5, 29820, Note_off_c, 3, 42, 100
5, 29952, Note_on_c, 3, 28, 56
5, 30080, Note_off_c, 3, 28, 100
5, 30144, Note_on_c, 3, 40, 56
5, 30204, Note_off_c, 3, 40, 100
5, 30336, Note_on_c, 3, 43, 56
5, 30396, Note_off_c, 3, 43, 100
5, 30528, Note_on_c, 3, 40, 56
5, 30588, Note_off_c, 3, 40, 100
5, 30720, Note_on_c, 3, 28, 56
5, 30808, Note_off_c, 3, 28, 100
5, 30912, Note_on_c, 3, 43, 56
5, 30972, Note_off_c, 3, 43, 100
5, 31104, Note_on_c, 3, 33, 56
5, 31232, Note_off_c, 3, 33, 100
5, 31296, Note_on_c, 3, 40, 56
5, 31356, Note_off_c, 3, 40, 100
5, 31488, Note_on_c, 3, 43, 56
5, 31548, Note_off_c, 3, 43, 100
5, 31680, Note_on_c, 3, 40, 56
5, 31740, Note_off_c, 3, 40, 100
5, 31872, Note_on_c, 3, 33, 56
5, 31960, Note_off_c, 3, 33, 100
5, 32064, Note_on_c, 3, 43, 56
5, 32124, Note_off_c, 3, 43, 100
5, 32256, Note_on_c, 3, 42, 56
5, 32348, Note_off_c, 3, 42, 100
5, 32352, Note_on_c, 3, 45, 56
5, 32444, Note_off_c, 3, 45, 100
5, 32448, Note_on_c, 3, 50, 56
5, 32540, Note_off_c, 3, 50, 100
5, 32544, Note_on_c, 3, 54, 56
5, 32608, Note_off_c, 3, 54, 100
5, 32640, Note_on_c, 3, 57, 56
5, 32732, Note_off_c, 3, 57, 100
5, 32736, Note_on_c, 3, 54, 56
5, 32828, Note_off_c, 3, 54, 100
5, 32832, Note_on_c, 3, 50, 56
5, 32924, Note_off_c, 3, 50, 100
5, 32928, Note_on_c, 3, 45, 56
5, 32992, Note_off_c, 3, 45, 100
5, 33024, Note_on_c, 3, 42, 56
5, 33116, Note_off_c, 3, 42, 100
5, 33120, Note_on_c, 3, 45, 56
5, 33184, Note_off_c, 3, 45, 100
5, 33216, Note_on_c, 3, 38, 56
5, 33308, Note_off_c, 3, 38, 100
5, 33312, Note_on_c, 3, 42, 56
5, 33376, Note_off_c, 3, 42, 100
5, 33408, Note_on_c, 3, 43, 56
5, 33500, Note_off_c, 3, 43, 100
5, 33504, Note_on_c, 3, 47, 56
5, 33596, Note_off_c, 3, 47, 100
5, 33600, Note_on_c, 3, 50, 56
5, 33692, Note_off_c, 3, 50, 100
5, 33696, Note_on_c, 3, 55, 56
5, 33760, Note_off_c, 3, 55, 100
5, 33792, Note_on_c, 3, 59, 56
5, 33884, Note_off_c, 3, 59, 100
5, 33888, Note_on_c, 3, 55, 56
5, 33980, Note_off_c, 3, 55, 100
5, 33984, Note_on_c, 3, 50, 56
5, 34076, Note_off_c, 3, 50, 100
5, 34080, Note_on_c, 3, 47, 56
5, 34144, Note_off_c, 3, 47, 100
5, 34176, Note_on_c, 3, 43, 56
5, 34268, Note_off_c, 3, 43, 100
5, 34272, Note_on_c, 3, 47, 56
5, 34336, Note_off_c, 3, 47, 100
5, 34368, Note_on_c, 3, 40, 56
5, 34460, Note_off_c, 3, 40, 100
5, 34464, Note_on_c, 3, 43, 56
5, 34528, Note_off_c, 3, 43, 100
5, 34560, Note_on_c, 3, 45, 56
5, 34688, Note_off_c, 3, 45, 100
5, 34752, Note_on_c, 3, 49, 56
5, 34812, Note_off_c, 3, 49, 100
5, 34944, Note_on_c, 3, 50, 56
5, 35008, Note_off_c, 3, 50, 100
5, 35040, Note_on_c, 3, 45, 56
5, 35132, Note_off_c, 3, 45, 100
5, 35136, Note_on_c, 3, 42, 56
5, 35228, Note_off_c, 3, 42, 100
5, 35232, Note_on_c, 3, 38, 56
5, 35324, Note_off_c, 3, 38, 100
5, 35328, Note_on_c, 3, 45, 56
5, 35388, Note_off_c, 3, 45, 100
5, 35520, Note_on_c, 3, 33, 56
5, 35608, Note_off_c, 3, 33, 100
5, 35712, Note_on_c, 3, 26, 56
5, 35776, Note_off_c, 3, 26, 100
5, 35808, Note_on_c, 3, 38, 56
5, 35900, Note_off_c, 3, 38, 100
5, 35904, Note_on_c, 3, 40, 56
5, 35996, Note_off_c, 3, 40, 100
5, 36000, Note_on_c, 3, 42, 56
5, 36092, Note_off_c, 3, 42, 100
5, 36096, Note_on_c, 3, 43, 56
5, 36160, Note_off_c, 3, 43, 100
5, 36192, Note_on_c, 3, 45, 56
5, 36284, Note_off_c, 3, 45, 100
5, 36288, Note_on_c, 3, 47, 56
5, 36380, Note_off_c, 3, 47, 100
5, 36384, Note_on_c, 3, 49, 56
5, 36476, Note_off_c, 3, 49, 100
5, 36480, Note_on_c, 3, 50, 56
5, 36736, Note_off_c, 3, 50, 100
5, 36864, Note_on_c, 3, 26, 96
5, 36992, Note_off_c, 3, 26, 100
5, 37056, Note_on_c, 3, 42, 96
5, 37148, Note_off_c, 3, 42, 100
5, 37152, Note_on_c, 3, 40, 96
5, 37244, Note_off_c, 3, 40, 100
5, 37248, Note_on_c, 3, 42, 96
5, 37308, Note_off_c, 3, 42, 100
5, 37440, Note_on_c, 3, 38, 96
5, 37500, Note_off_c, 3, 38, 100
5, 37632, Note_on_c, 3, 26, 96
5, 37720, Note_off_c, 3, 26, 100
5, 37824, Note_on_c, 3, 42, 96
5, 37884, Note_off_c, 3, 42, 100
5, 38016, Note_on_c, 3, 31, 96
5, 38144, Note_off_c, 3, 31, 100
5, 38208, Note_on_c, 3, 47, 96
5, 38300, Note_off_c, 3, 47, 100
5, 38304, Note_on_c, 3, 45, 96
5, 38396, Note_off_c, 3, 45, 100
5, 38400, Note_on_c, 3, 47, 96
5, 38460, Note_off_c, 3, 47, 100
5, 38592, Note_on_c, 3, 43, 96
5, 38652, Note_off_c, 3, 43, 100
5, 38784, Note_on_c, 3, 31, 96
5, 38872, Note_off_c, 3, 31, 100
5, 38976, Note_on_c, 3, 47, 96
5, 39036, Note_off_c, 3, 47, 100
5, 39168, Note_on_c, 3, 36, 96
5, 39296, Note_off_c, 3, 36, 100
5, 39360, Note_on_c, 3, 48, 96
5, 39452, Note_off_c, 3, 48, 100
5, 39456, Note_on_c, 3, 47, 96
5, 39548, Note_off_c, 3, 47, 100
5, 39552, Note_on_c, 3, 48, 96
5, 39612, Note_off_c, 3, 48, 100
5, 39744, Note_on_c, 3, 42, 96
5, 39804, Note_off_c, 3, 42, 100
5, 39936, Note_on_c, 3, 45, 96
5, 39996, Note_off_c, 3, 45, 100
5, 40128, Note_on_c, 3, 48, 96
5, 40188, Note_off_c, 3, 48, 100
5, 40320, Note_on_c, 3, 45, 96
5, 40380, Note_off_c, 3, 45, 100
5, 40512, Note_on_c, 3, 42, 96
5, 40572, Note_off_c, 3, 42, 100
5, 40704, Note_on_c, 3, 39, 96
5, 40768, Note_off_c, 3, 39, 100
5, 40800, Note_on_c, 3, 35, 96
5, 40892, Note_off_c, 3, 35, 100
5, 40896, Note_on_c, 3, 39, 96
5, 40988, Note_off_c, 3, 39, 100
5, 40992, Note_on_c, 3, 42, 96
5, 41084, Note_off_c, 3, 42, 100
5, 41088, Note_on_c, 3, 47, 96
5, 41152, Note_off_c, 3, 47, 100
5, 41184, Note_on_c, 3, 51, 96
5, 41276, Note_off_c, 3, 51, 100
5, 41280, Note_on_c, 3, 54, 96
5, 41372, Note_off_c, 3, 54, 100
5, 41376, Note_on_c, 3, 57, 96
5, 41440, Note_off_c, 3, 57, 100
5, 41472, Note_on_c, 3, 55, 96
5, 41660, Note_off_c, 3, 55, 100
5, 41760, Note_on_c, 3, 54, 96
5, 41852, Note_off_c, 3, 54, 100
5, 41856, Note_on_c, 3, 55, 96
5, 42044, Note_off_c, 3, 55, 100
5, 42144, Note_on_c, 3, 42, 96
5, 42236, Note_off_c, 3, 42, 100
5, 42240, Note_on_c, 3, 43, 96
5, 42428, Note_off_c, 3, 43, 100
5, 42528, Note_on_c, 3, 35, 96
5, 42620, Note_off_c, 3, 35, 100
5, 42624, Note_on_c, 3, 36, 96
5, 42812, Note_off_c, 3, 36, 100
5, 42912, Note_on_c, 3, 59, 96
5, 43004, Note_off_c, 3, 59, 100
5, 43008, Note_on_c, 3, 60, 96
5, 43196, Note_off_c, 3, 60, 100
5, 43296, Note_on_c, 3, 47, 96
5, 43388, Note_off_c, 3, 47, 100
5, 43392, Note_on_c, 3, 48, 96
5, 43580, Note_off_c, 3, 48, 100
5, 43680, Note_on_c, 3, 40, 96
5, 43772, Note_off_c, 3, 40, 100
5, 43776, Note_on_c, 3, 39, 96
5, 43836, Note_off_c, 3, 39, 100
5, 43968, Note_on_c, 3, 45, 96
5, 44028, Note_off_c, 3, 45, 100
5, 44160, Note_on_c, 3, 43, 96
5, 44220, Note_off_c, 3, 43, 100
5, 44352, Note_on_c, 3, 34, 96
5, 44412, Note_off_c, 3, 34, 100
5, 44544, Note_on_c, 3, 35, 96
5, 44604, Note_off_c, 3, 35, 100
5, 44736, Note_on_c, 3, 42, 96
5, 44796, Note_off_c, 3, 42, 100
5, 44928, Note_on_c, 3, 40, 96
5, 44988, Note_off_c, 3, 40, 100
5, 45120, Note_on_c, 3, 43, 96
5, 45212, Note_off_c, 3, 43, 100
5, 45216, Note_on_c, 3, 42, 96
5, 45308, Note_off_c, 3, 42, 100
5, 45312, Note_on_c, 3, 43, 96
5, 45372, Note_off_c, 3, 43, 100
5, 45504, Note_on_c, 3, 40, 96
5, 45564, Note_off_c, 3, 40, 100
5, 45696, Note_on_c, 3, 28, 96
5, 45756, Note_off_c, 3, 28, 100
5, 45984, Note_on_c, 3, 38, 96
5, 46048, Note_off_c, 3, 38, 100
5, 46080, Note_on_c, 3, 36, 96
5, 46172, Note_off_c, 3, 36, 100
5, 46176, Note_on_c, 3, 40, 96
5, 46268, Note_off_c, 3, 40, 100
5, 46272, Note_on_c, 3, 45, 96
5, 46364, Note_off_c, 3, 45, 100
5, 46368, Note_on_c, 3, 48, 96
5, 46432, Note_off_c, 3, 48, 100
5, 46464, Note_on_c, 3, 52, 96
5, 46556, Note_off_c, 3, 52, 100
5, 46560, Note_on_c, 3, 48, 96
5, 46652, Note_off_c, 3, 48, 100
5, 46656, Note_on_c, 3, 45, 96
5, 46748, Note_off_c, 3, 45, 100
5, 46752, Note_on_c, 3, 40, 96
5, 46844, Note_off_c, 3, 40, 100
5, 46848, Note_on_c, 3, 36, 96
5, 46912, Note_off_c, 3, 36, 100
5, 46944, Note_on_c, 3, 40, 96
5, 47036, Note_off_c, 3, 40, 100
5, 47040, Note_on_c, 3, 38, 96
5, 47132, Note_off_c, 3, 38, 100
5, 47136, Note_on_c, 3, 36, 96
5, 47200, Note_off_c, 3, 36, 100
5, 47232, Note_on_c, 3, 35, 96
5, 47324, Note_off_c, 3, 35, 100
5, 47328, Note_on_c, 3, 38, 96
5, 47420, Note_off_c, 3, 38, 100
5, 47424, Note_on_c, 3, 43, 96
5, 47516, Note_off_c, 3, 43, 100
5, 47520, Note_on_c, 3, 47, 96
5, 47612, Note_off_c, 3, 47, 100
5, 47616, Note_on_c, 3, 50, 96
5, 47708, Note_off_c, 3, 50, 100
5, 47712, Note_on_c, 3, 47, 96
5, 47804, Note_off_c, 3, 47, 100
5, 47808, Note_on_c, 3, 43, 96
5, 47900, Note_off_c, 3, 43, 100
5, 47904, Note_on_c, 3, 38, 96
5, 47996, Note_off_c, 3, 38, 100
5, 48000, Note_on_c, 3, 35, 96
5, 48064, Note_off_c, 3, 35, 100
5, 48096, Note_on_c, 3, 38, 96
5, 48188, Note_off_c, 3, 38, 100
5, 48192, Note_on_c, 3, 36, 96
5, 48284, Note_off_c, 3, 36, 100
5, 48288, Note_on_c, 3, 35, 96
5, 48352, Note_off_c, 3, 35, 100
5, 48384, Note_on_c, 3, 33, 96
5, 48512, Note_off_c, 3, 33, 100
5, 48576, Note_on_c, 3, 36, 96
5, 48636, Note_off_c, 3, 36, 100
5, 48768, Note_on_c, 3, 40, 96
5, 48828, Note_off_c, 3, 40, 100
5, 48960, Note_on_c, 3, 43, 96
5, 49020, Note_off_c, 3, 43, 100
5, 49152, Note_on_c, 3, 42, 96
5, 49212, Note_off_c, 3, 42, 100
5, 49344, Note_on_c, 3, 40, 96
5, 49404, Note_off_c, 3, 40, 100
5, 49536, Note_on_c, 3, 38, 96
5, 49664, Note_off_c, 3, 38, 100
5, 49728, Note_on_c, 3, 42, 96
5, 49788, Note_off_c, 3, 42, 100
5, 49920, Note_on_c, 3, 45, 96
5, 49980, Note_off_c, 3, 45, 100
5, 50112, Note_on_c, 3, 48, 96
5, 50172, Note_off_c, 3, 48, 100
5, 50304, Note_on_c, 3, 47, 96
5, 50364, Note_off_c, 3, 47, 100
5, 50496, Note_on_c, 3, 45, 96
5, 50556, Note_off_c, 3, 45, 100
5, 50688, Note_on_c, 3, 43, 96
5, 50816, Note_off_c, 3, 43, 100
5, 50880, Note_on_c, 3, 47, 96
5, 50940, Note_off_c, 3, 47, 100
5, 51072, Note_on_c, 3, 50, 96
5, 51132, Note_off_c, 3, 50, 100
5, 51264, Note_on_c, 3, 53, 96
5, 51324, Note_off_c, 3, 53, 100
5, 51456, Note_on_c, 3, 52, 96
5, 51516, Note_off_c, 3, 52, 100
5, 51648, Note_on_c, 3, 50, 96
5, 51708, Note_off_c, 3, 50, 100
5, 51840, Note_on_c, 3, 48, 96
5, 51968, Note_off_c, 3, 48, 100
5, 52032, Note_on_c, 3, 52, 96
5, 52092, Note_off_c, 3, 52, 100
5, 52224, Note_on_c, 3, 54, 96
5, 52284, Note_off_c, 3, 54, 100
5, 52416, Note_on_c, 3, 56, 96
5, 52476, Note_off_c, 3, 56, 100
5, 52608, Note_on_c, 3, 57, 96
5, 52668, Note_off_c, 3, 57, 100
5, 52800, Note_on_c, 3, 55, 96
5, 52860, Note_off_c, 3, 55, 100
5, 52992, Note_on_c, 3, 54, 96
5, 53120, Note_off_c, 3, 54, 100
5, 53184, Note_on_c, 3, 50, 96
5, 53244, Note_off_c, 3, 50, 100
5, 53376, Note_on_c, 3, 55, 96
5, 53436, Note_off_c, 3, 55, 100
5, 53568, Note_on_c, 3, 43, 96
5, 53628, Note_off_c, 3, 43, 100
5, 53760, Note_on_c, 3, 50, 96
5, 53820, Note_off_c, 3, 50, 100
5, 53952, Note_on_c, 3, 38, 96
5, 54012, Note_off_c, 3, 38, 100
5, 54144, Note_on_c, 3, 43, 96
5, 54208, Note_off_c, 3, 43, 100
5, 54240, Note_on_c, 3, 31, 96
5, 54332, Note_off_c, 3, 31, 100
5, 54336, Note_on_c, 3, 33, 96
5, 54428, Note_off_c, 3, 33, 100
5, 54432, Note_on_c, 3, 35, 96
5, 54524, Note_off_c, 3, 35, 100
5, 54528, Note_on_c, 3, 36, 96
5, 54592, Note_off_c, 3, 36, 100
5, 54624, Note_on_c, 3, 38, 96
5, 54716, Note_off_c, 3, 38, 100
5, 54720, Note_on_c, 3, 40, 96
5, 54812, Note_off_c, 3, 40, 100
5, 54816, Note_on_c, 3, 42, 96
5, 54908, Note_off_c, 3, 42, 100
5, 54912, Note_on_c, 3, 43, 96
5, 55168, Note_off_c, 3, 43, 100
5, 55296, Note_on_c, 3, 26, 56
5, 55424, Note_off_c, 3, 26, 100
5, 55488, Note_on_c, 3, 42, 56
5, 55580, Note_off_c, 3, 42, 100
5, 55584, Note_on_c, 3, 40, 56
5, 55676, Note_off_c, 3, 40, 100
5, 55680, Note_on_c, 3, 42, 56
5, 55740, Note_off_c, 3, 42, 100
5, 55872, Note_on_c, 3, 38, 56
5, 55932, Note_off_c, 3, 38, 100
5, 56064, Note_on_c, 3, 26, 56
5, 56152, Note_off_c, 3, 26, 100
5, 56256, Note_on_c, 3, 42, 56
5, 56316, Note_off_c, 3, 42, 100
5, 56448, Note_on_c, 3, 31, 56
5, 56576, Note_off_c, 3, 31, 100
5, 56640, Note_on_c, 3, 47, 56
5, 56732, Note_off_c, 3, 47, 100
5, 56736, Note_on_c, 3, 45, 56
5, 56828, Note_off_c, 3, 45, 100
5, 56832, Note_on_c, 3, 47, 56
5, 56892, Note_off_c, 3, 47, 100
5, 57024, Note_on_c, 3, 43, 56
5, 57084, Note_off_c, 3, 43, 100
5, 57216, Note_on_c, 3, 31, 56
5, 57304, Note_off_c, 3, 31, 100
5, 57408, Note_on_c, 3, 47, 56
5, 57468, Note_off_c, 3, 47, 100
5, 57600, Note_on_c, 3, 36, 56
5, 57728, Note_off_c, 3, 36, 100
5, 57792, Note_on_c, 3, 48, 56
5, 57884, Note_off_c, 3, 48, 100
5, 57888, Note_on_c, 3, 47, 56
5, 57980, Note_off_c, 3, 47, 100
5, 57984, Note_on_c, 3, 48, 56
5, 58044, Note_off_c, 3, 48, 100
5, 58176, Note_on_c, 3, 42, 56
5, 58236, Note_off_c, 3, 42, 100
5, 58368, Note_on_c, 3, 45, 56
5, 58428, Note_off_c, 3, 45, 100
5, 58560, Note_on_c, 3, 48, 56
5, 58620, Note_off_c, 3, 48, 100
5, 58752, Note_on_c, 3, 45, 56
5, 58812, Note_off_c, 3, 45, 100
5, 58944, Note_on_c, 3, 42, 56
5, 59004, Note_off_c, 3, 42, 100
5, 59136, Note_on_c, 3, 39, 56
5, 59200, Note_off_c, 3, 39, 100
5, 59232, Note_on_c, 3, 35, 56
5, 59324, Note_off_c, 3, 35, 100
5, 59328, Note_on_c, 3, 39, 56
5, 59420, Note_off_c, 3, 39, 100
5, 59424, Note_on_c, 3, 42, 56
5, 59516, Note_off_c, 3, 42, 100
5, 59520, Note_on_c, 3, 47, 56
5, 59584, Note_off_c, 3, 47, 100
5, 59616, Note_on_c, 3, 51, 56
5, 59708, Note_off_c, 3, 51, 100
5, 59712, Note_on_c, 3, 54, 56
5, 59804, Note_off_c, 3, 54, 100
5, 59808, Note_on_c, 3, 57, 56
5, 59872, Note_off_c, 3, 57, 100
5, 59904, Note_on_c, 3, 55, 56
5, 60092, Note_off_c, 3, 55, 100
5, 60192, Note_on_c, 3, 54, 56
5, 60284, Note_off_c, 3, 54, 100
5, 60288, Note_on_c, 3, 55, 56
5, 60476, Note_off_c, 3, 55, 100
5, 60576, Note_on_c, 3, 42, 56
5, 60668, Note_off_c, 3, 42, 100
5, 60672, Note_on_c, 3, 43, 56
5, 60860, Note_off_c, 3, 43, 100
5, 60960, Note_on_c, 3, 35, 56
5, 61052, Note_off_c, 3, 35, 100
5, 61056, Note_on_c, 3, 36, 56
5, 61244, Note_off_c, 3, 36, 100
5, 61344, Note_on_c, 3, 59, 56
5, 61436, Note_off_c, 3, 59, 100
5, 61440, Note_on_c, 3, 60, 56
5, 61628, Note_off_c, 3, 60, 100
5, 61728, Note_on_c, 3, 47, 56
5, 61820, Note_off_c, 3, 47, 100
5, 61824, Note_on_c, 3, 48, 56
5, 62012, Note_off_c, 3, 48, 100
5, 62112, Note_on_c, 3, 40, 56
5, 62204, Note_off_c, 3, 40, 100
5, 62208, Note_on_c, 3, 39, 56
5, 62268, Note_off_c, 3, 39, 100
5, 62400, Note_on_c, 3, 45, 56
5, 62460, Note_off_c, 3, 45, 100
5, 62592, Note_on_c, 3, 43, 56
5, 62652, Note_off_c, 3, 43, 100
5, 62784, Note_on_c, 3, 34, 56
5, 62844, Note_off_c, 3, 34, 100
5, 62976, Note_on_c, 3, 35, 56
5, 63036, Note_off_c, 3, 35, 100
5, 63168, Note_on_c, 3, 42, 56
5, 63228, Note_off_c, 3, 42, 100
5, 63360, Note_on_c, 3, 40, 56
5, 63420, Note_off_c, 3, 40, 100
5, 63552, Note_on_c, 3, 43, 56
5, 63644, Note_off_c, 3, 43, 100
5, 63648, Note_on_c, 3, 42, 56
5, 63740, Note_off_c, 3, 42, 100
5, 63744, Note_on_c, 3, 43, 56
5, 63804, Note_off_c, 3, 43, 100
5, 63936, Note_on_c, 3, 40, 56
5, 63996, Note_off_c, 3, 40, 100
5, 64128, Note_on_c, 3, 28, 56
5, 64188, Note_off_c, 3, 28, 100
5, 64416, Note_on_c, 3, 38, 56
5, 64480, Note_off_c, 3, 38, 100
5, 64512, Note_on_c, 3, 36, 56
5, 64604, Note_off_c, 3, 36, 100
5, 64608, Note_on_c, 3, 40, 56
5, 64700, Note_off_c, 3, 40, 100
5, 64704, Note_on_c, 3, 45, 56
5, 64796, Note_off_c, 3, 45, 100
5, 64800, Note_on_c, 3, 48, 56
5, 64864, Note_off_c, 3, 48, 100
5, 64896, Note_on_c, 3, 52, 56
5, 64988, Note_off_c, 3, 52, 100
5, 64992, Note_on_c, 3, 48, 56
5, 65084, Note_off_c, 3, 48, 100
5, 65088, Note_on_c, 3, 45, 56
5, 65180, Note_off_c, 3, 45, 100
5, 65184, Note_on_c, 3, 40, 56
5, 65276, Note_off_c, 3, 40, 100
5, 65280, Note_on_c, 3, 36, 56
5, 65344, Note_off_c, 3, 36, 100
5, 65376, Note_on_c, 3, 40, 56
5, 65468, Note_off_c, 3, 40, 100
5, 65472, Note_on_c, 3, 38, 56
5, 65564, Note_off_c, 3, 38, 100
5, 65568, Note_on_c, 3, 36, 56
5, 65632, Note_off_c, 3, 36, 100
5, 65664, Note_on_c, 3, 35, 56
5, 65756, Note_off_c, 3, 35, 100
5, 65760, Note_on_c, 3, 38, 56
5, 65852, Note_off_c, 3, 38, 100
5, 65856, Note_on_c, 3, 43, 56
5, 65948, Note_off_c, 3, 43, 100
5, 65952, Note_on_c, 3, 47, 56
5, 66044, Note_off_c, 3, 47, 100
5, 66048, Note_on_c, 3, 50, 56
5, 66140, Note_off_c, 3, 50, 100
5, 66144, Note_on_c, 3, 47, 56
5, 66236, Note_off_c, 3, 47, 100
5, 66240, Note_on_c, 3, 43, 56
5, 66332, Note_off_c, 3, 43, 100
5, 66336, Note_on_c, 3, 38, 56
5, 66428, Note_off_c, 3, 38, 100
5, 66432, Note_on_c, 3, 35, 56
5, 66496, Note_off_c, 3, 35, 100
5, 66528, Note_on_c, 3, 38, 56
5, 66620, Note_off_c, 3, 38, 100
5, 66624, Note_on_c, 3, 36, 56
5, 66716, Note_off_c, 3, 36, 100
5, 66720, Note_on_c, 3, 35, 56
5, 66784, Note_off_c, 3, 35, 100
5, 66816, Note_on_c, 3, 33, 56
5, 66944, Note_off_c, 3, 33, 100
5, 67008, Note_on_c, 3, 36, 56
5, 67068, Note_off_c, 3, 36, 100
5, 67200, Note_on_c, 3, 40, 56
5, 67260, Note_off_c, 3, 40, 100
5, 67392, Note_on_c, 3, 43, 56
5, 67452, Note_off_c, 3, 43, 100
5, 67584, Note_on_c, 3, 42, 56
5, 67644, Note_off_c, 3, 42, 100
5, 67776, Note_on_c, 3, 40, 56
5, 67836, Note_off_c, 3, 40, 100
5, 67968, Note_on_c, 3, 38, 56
5, 68096, Note_off_c, 3, 38, 100
5, 68160, Note_on_c, 3, 42, 56
5, 68220, Note_off_c, 3, 42, 100
5, 68352, Note_on_c, 3, 45, 56
5, 68412, Note_off_c, 3, 45, 100
5, 68544, Note_on_c, 3, 48, 56
5, 68604, Note_off_c, 3, 48, 100
5, 68736, Note_on_c, 3, 47, 56
5, 68796, Note_off_c, 3, 47, 100
5, 68928, Note_on_c, 3, 45, 56
5, 68988, Note_off_c, 3, 45, 100
5, 69120, Note_on_c, 3, 43, 56
5, 69248, Note_off_c, 3, 43, 100
5, 69312, Note_on_c, 3, 47, 56
5, 69372, Note_off_c, 3, 47, 100
5, 69504, Note_on_c, 3, 50, 56
5, 69564, Note_off_c, 3, 50, 100
5, 69696, Note_on_c, 3, 53, 56
5, 69756, Note_off_c, 3, 53, 100
5, 69888, Note_on_c, 3, 52, 56
5, 69948, Note_off_c, 3, 52, 100
5, 70080, Note_on_c, 3, 50, 56
5, 70140, Note_off_c, 3, 50, 100
5, 70272, Note_on_c, 3, 48, 56
5, 70400, Note_off_c, 3, 48, 100
5, 70464, Note_on_c, 3, 52, 56
5, 70524, Note_off_c, 3, 52, 100
5, 70656, Note_on_c, 3, 54, 56
5, 70716, Note_off_c, 3, 54, 100
5, 70848, Note_on_c, 3, 56, 56
5, 70908, Note_off_c, 3, 56, 100
5, 71040, Note_on_c, 3, 57, 56
5, 71100, Note_off_c, 3, 57, 100
5, 71232, Note_on_c, 3, 55, 56
5, 71292, Note_off_c, 3, 55, 100
5, 71424, Note_on_c, 3, 54, 56
5, 71552, Note_off_c, 3, 54, 100
5, 71616, Note_on_c, 3, 50, 56
5, 71676, Note_off_c, 3, 50, 100
5, 71808, Note_on_c, 3, 55, 56
5, 71868, Note_off_c, 3, 55, 100
5, 72000, Note_on_c, 3, 43, 56
5, 72060, Note_off_c, 3, 43, 100
5, 72192, Note_on_c, 3, 50, 56
5, 72252, Note_off_c, 3, 50, 100
5, 72384, Note_on_c, 3, 38, 56
5, 72444, Note_off_c, 3, 38, 100
5, 72576, Note_on_c, 3, 43, 56
5, 72640, Note_off_c, 3, 43, 100
5, 72672, Note_on_c, 3, 31, 56
5, 72764, Note_off_c, 3, 31, 100
5, 72768, Note_on_c, 3, 33, 56
5, 72860, Note_off_c, 3, 33, 100
5, 72864, Note_on_c, 3, 35, 56
5, 72956, Note_off_c, 3, 35, 100
5, 72960, Note_on_c, 3, 36, 56
5, 73024, Note_off_c, 3, 36, 100
5, 73056, Note_on_c, 3, 38, 56
5, 73148, Note_off_c, 3, 38, 100
5, 73152, Note_on_c, 3, 40, 56
5, 73244, Note_off_c, 3, 40, 100
5, 73248, Note_on_c, 3, 42, 56
5, 73340, Note_off_c, 3, 42, 100
5, 73344, Note_on_c, 3, 43, 56
5, 73600, Note_off_c, 3, 43, 100
5, 73600, End_track
6, 0, Start_track
6, 0, Title_t, "Bruno de Giusti"
6, 0, Control_c, 4, 0, 0
6, 0, Program_c, 4, 6
6, 0, Control_c, 4, 7, 127
6, 0, Control_c, 4, 10, 67
6, 0, Control_c, 4, 91, 127
6, 0, Key_signature, 1, "major"
6, 0, Note_on_c, 4, 55, 64
6, 92, Note_off_c, 4, 55, 100
6, 96, Note_on_c, 4, 54, 64
6, 188, Note_off_c, 4, 54, 100
6, 192, Note_on_c, 4, 55, 64
6, 380, Note_off_c, 4, 55, 100
6, 480, Note_on_c, 4, 50, 64
6, 572, Note_off_c, 4, 50, 100
6, 576, Note_on_c, 4, 52, 64
6, 668, Note_off_c, 4, 52, 100
6, 672, Note_on_c, 4, 54, 64
6, 764, Note_off_c, 4, 54, 100
6, 768, Note_on_c, 4, 55, 64
6, 860, Note_off_c, 4, 55, 100
6, 864, Note_on_c, 4, 57, 64
6, 956, Note_off_c, 4, 57, 100
6, 960, Note_on_c, 4, 59, 64
6, 1052, Note_off_c, 4, 59, 100
6, 1056, Note_on_c, 4, 61, 64
6, 1120, Note_off_c, 4, 61, 100
6, 1152, Note_on_c, 4, 62, 64
6, 1244, Note_off_c, 4, 62, 100
6, 1248, Note_on_c, 4, 61, 64
6, 1340, Note_off_c, 4, 61, 100
6, 1344, Note_on_c, 4, 62, 64
6, 1532, Note_off_c, 4, 62, 100
6, 1632, Note_on_c, 4, 57, 64
6, 1724, Note_off_c, 4, 57, 100
6, 1728, Note_on_c, 4, 59, 64
6, 1820, Note_off_c, 4, 59, 100
6, 1824, Note_on_c, 4, 61, 64
6, 1916, Note_off_c, 4, 61, 100
6, 1920, Note_on_c, 4, 62, 64
6, 2012, Note_off_c, 4, 62, 100
6, 2016, Note_on_c, 4, 64, 64
6, 2108, Note_off_c, 4, 64, 100
6, 2112, Note_on_c, 4, 66, 64
6, 2204, Note_off_c, 4, 66, 100
6, 2208, Note_on_c, 4, 62, 64
6, 2272, Note_off_c, 4, 62, 100
6, 2304, Note_on_c, 4, 67, 64
6, 2396, Note_off_c, 4, 67, 100
6, 2400, Note_on_c, 4, 66, 64
6, 2492, Note_off_c, 4, 66, 100
6, 2496, Note_on_c, 4, 67, 64
6, 2684, Note_off_c, 4, 67, 100
6, 2784, Note_on_c, 4, 66, 64
6, 2876, Note_off_c, 4, 66, 100
6, 2880, Note_on_c, 4, 64, 64
6, 2972, Note_off_c, 4, 64, 100
6, 2976, Note_on_c, 4, 62, 64
6, 3040, Note_off_c, 4, 62, 100
6, 3072, Note_on_c, 4, 61, 64
6, 3164, Note_off_c, 4, 61, 100
6, 3168, Note_on_c, 4, 64, 64
6, 3232, Note_off_c, 4, 64, 100
6, 3264, Note_on_c, 4, 57, 64
6, 3356, Note_off_c, 4, 57, 100
6, 3360, Note_on_c, 4, 55, 64
6, 3452, Note_off_c, 4, 55, 100
6, 3456, Note_on_c, 4, 54, 64
6, 3520, Note_off_c, 4, 54, 100
6, 3552, Note_on_c, 4, 52, 64
6, 3644, Note_off_c, 4, 52, 100
6, 3648, Note_on_c, 4, 50, 64
6, 3740, Note_off_c, 4, 50, 100
6, 3744, Note_on_c, 4, 49, 64
6, 3808, Note_off_c, 4, 49, 100
6, 3840, Note_on_c, 4, 50, 64
6, 3932, Note_off_c, 4, 50, 100
6, 3936, Note_on_c, 4, 54, 64
6, 4000, Note_off_c, 4, 54, 100
6, 4032, Note_on_c, 4, 45, 64
6, 4124, Note_off_c, 4, 45, 100
6, 4128, Note_on_c, 4, 43, 64
6, 4192, Note_off_c, 4, 43, 100
6, 4224, Note_on_c, 4, 42, 64
6, 4316, Note_off_c, 4, 42, 100
6, 4320, Note_on_c, 4, 45, 64
6, 4384, Note_off_c, 4, 45, 100
6, 4416, Note_on_c, 4, 38, 64
6, 4604, Note_off_c, 4, 38, 100
6, 4800, Note_on_c, 4, 62, 64
6, 4892, Note_off_c, 4, 62, 100
6, 4896, Note_on_c, 4, 60, 64
6, 4988, Note_off_c, 4, 60, 100
6, 4992, Note_on_c, 4, 62, 64
6, 5052, Note_off_c, 4, 62, 100
6, 5184, Note_on_c, 4, 55, 64
6, 5244, Note_off_c, 4, 55, 100
6, 5376, Note_on_c, 4, 47, 64
6, 5464, Note_off_c, 4, 47, 100
6, 5568, Note_on_c, 4, 62, 64
6, 5696, Note_off_c, 4, 62, 100
6, 5952, Note_on_c, 4, 64, 64
6, 6044, Note_off_c, 4, 64, 100
6, 6048, Note_on_c, 4, 62, 64
6, 6140, Note_off_c, 4, 62, 100
6, 6144, Note_on_c, 4, 64, 64
6, 6204, Note_off_c, 4, 64, 100
6, 6336, Note_on_c, 4, 57, 64
6, 6396, Note_off_c, 4, 57, 100
6, 6528, Note_on_c, 4, 48, 64
6, 6616, Note_off_c, 4, 48, 100
6, 6720, Note_on_c, 4, 64, 64
6, 6848, Note_off_c, 4, 64, 100
6, 7104, Note_on_c, 4, 66, 64
6, 7196, Note_off_c, 4, 66, 100
6, 7200, Note_on_c, 4, 64, 64
6, 7292, Note_off_c, 4, 64, 100
6, 7296, Note_on_c, 4, 66, 64
6, 7356, Note_off_c, 4, 66, 100
6, 7488, Note_on_c, 4, 62, 64
6, 7548, Note_off_c, 4, 62, 100
6, 7680, Note_on_c, 4, 69, 64
6, 7740, Note_off_c, 4, 69, 100
6, 7872, Note_on_c, 4, 60, 64
6, 8252, Note_off_c, 4, 60, 100
6, 8256, Note_on_c, 4, 59, 64
6, 8444, Note_off_c, 4, 59, 100
6, 8544, Note_on_c, 4, 55, 64
6, 8636, Note_off_c, 4, 55, 100
6, 8640, Note_on_c, 4, 59, 64
6, 8732, Note_off_c, 4, 59, 100
6, 8736, Note_on_c, 4, 62, 64
6, 8828, Note_off_c, 4, 62, 100
6, 8832, Note_on_c, 4, 67, 64
6, 8896, Note_off_c, 4, 67, 100
6, 8928, Note_on_c, 4, 62, 64
6, 9020, Note_off_c, 4, 62, 100
6, 9024, Note_on_c, 4, 67, 64
6, 9116, Note_off_c, 4, 67, 100
6, 9120, Note_on_c, 4, 69, 64
6, 9184, Note_off_c, 4, 69, 100
6, 9216, Note_on_c, 4, 71, 64
6, 9308, Note_off_c, 4, 71, 100
6, 9312, Note_on_c, 4, 67, 64
6, 9404, Note_off_c, 4, 67, 100
6, 9408, Note_on_c, 4, 62, 64
6, 9500, Note_off_c, 4, 62, 100
6, 9504, Note_on_c, 4, 59, 64
6, 9596, Note_off_c, 4, 59, 100
6, 9600, Note_on_c, 4, 55, 64
6, 9664, Note_off_c, 4, 55, 100
6, 9696, Note_on_c, 4, 59, 64
6, 9788, Note_off_c, 4, 59, 100
6, 9792, Note_on_c, 4, 62, 64
6, 9884, Note_off_c, 4, 62, 100
6, 9888, Note_on_c, 4, 67, 64
6, 9952, Note_off_c, 4, 67, 100
6, 9984, Note_on_c, 4, 71, 64
6, 10076, Note_off_c, 4, 71, 100
6, 10080, Note_on_c, 4, 67, 64
6, 10172, Note_off_c, 4, 67, 100
6, 10176, Note_on_c, 4, 66, 64
6, 10268, Note_off_c, 4, 66, 100
6, 10272, Note_on_c, 4, 64, 64
6, 10336, Note_off_c, 4, 64, 100
6, 10368, Note_on_c, 4, 69, 64
6, 10460, Note_off_c, 4, 69, 100
6, 10464, Note_on_c, 4, 64, 64
6, 10556, Note_off_c, 4, 64, 100
6, 10560, Note_on_c, 4, 61, 64
6, 10652, Note_off_c, 4, 61, 100
6, 10656, Note_on_c, 4, 57, 64
6, 10748, Note_off_c, 4, 57, 100
6, 10752, Note_on_c, 4, 54, 64
6, 10816, Note_off_c, 4, 54, 100
6, 10848, Note_on_c, 4, 57, 64
6, 10940, Note_off_c, 4, 57, 100
6, 10944, Note_on_c, 4, 61, 64
6, 11036, Note_off_c, 4, 61, 100
6, 11040, Note_on_c, 4, 64, 64
6, 11104, Note_off_c, 4, 64, 100
6, 11136, Note_on_c, 4, 69, 64
6, 11228, Note_off_c, 4, 69, 100
6, 11232, Note_on_c, 4, 66, 64
6, 11324, Note_off_c, 4, 66, 100
6, 11328, Note_on_c, 4, 64, 64
6, 11420, Note_off_c, 4, 64, 100
6, 11424, Note_on_c, 4, 62, 64
6, 11488, Note_off_c, 4, 62, 100
6, 11520, Note_on_c, 4, 67, 64
6, 11612, Note_off_c, 4, 67, 100
6, 11616, Note_on_c, 4, 62, 64
6, 11708, Note_off_c, 4, 62, 100
6, 11712, Note_on_c, 4, 59, 64
6, 11804, Note_off_c, 4, 59, 100
6, 11808, Note_on_c, 4, 55, 64
6, 11900, Note_off_c, 4, 55, 100
6, 11904, Note_on_c, 4, 52, 64
6, 11968, Note_off_c, 4, 52, 100
6, 12000, Note_on_c, 4, 55, 64
6, 12092, Note_off_c, 4, 55, 100
6, 12096, Note_on_c, 4, 59, 64
6, 12188, Note_off_c, 4, 59, 100
6, 12192, Note_on_c, 4, 62, 64
6, 12256, Note_off_c, 4, 62, 100
6, 12288, Note_on_c, 4, 67, 64
6, 12380, Note_off_c, 4, 67, 100
6, 12384, Note_on_c, 4, 66, 64
6, 12476, Note_off_c, 4, 66, 100
6, 12480, Note_on_c, 4, 64, 64
6, 12572, Note_off_c, 4, 64, 100
6, 12576, Note_on_c, 4, 62, 64
6, 12640, Note_off_c, 4, 62, 100
6, 12672, Note_on_c, 4, 61, 64
6, 12764, Note_off_c, 4, 61, 100
6, 12768, Note_on_c, 4, 55, 64
6, 12860, Note_off_c, 4, 55, 100
6, 12864, Note_on_c, 4, 52, 64
6, 12956, Note_off_c, 4, 52, 100
6, 12960, Note_on_c, 4, 49, 64
6, 13052, Note_off_c, 4, 49, 100
6, 13056, Note_on_c, 4, 45, 64
6, 13120, Note_off_c, 4, 45, 100
6, 13152, Note_on_c, 4, 49, 64
6, 13244, Note_off_c, 4, 49, 100
6, 13248, Note_on_c, 4, 52, 64
6, 13340, Note_off_c, 4, 52, 100
6, 13344, Note_on_c, 4, 55, 64
6, 13408, Note_off_c, 4, 55, 100
6, 13440, Note_on_c, 4, 61, 64
6, 13532, Note_off_c, 4, 61, 100
6, 13536, Note_on_c, 4, 64, 64
6, 13628, Note_off_c, 4, 64, 100
6, 13632, Note_on_c, 4, 62, 64
6, 13724, Note_off_c, 4, 62, 100
6, 13728, Note_on_c, 4, 61, 64
6, 13792, Note_off_c, 4, 61, 100
6, 13824, Note_on_c, 4, 62, 64
6, 13952, Note_off_c, 4, 62, 100
6, 14016, Note_on_c, 4, 42, 64
6, 14076, Note_off_c, 4, 42, 100
6, 14208, Note_on_c, 4, 42, 64
6, 14268, Note_off_c, 4, 42, 100
6, 14400, Note_on_c, 4, 57, 64
6, 14460, Note_off_c, 4, 57, 100
6, 14592, Note_on_c, 4, 62, 64
6, 14652, Note_off_c, 4, 62, 100
6, 14784, Note_on_c, 4, 66, 64
6, 14844, Note_off_c, 4, 66, 100
6, 14976, Note_on_c, 4, 59, 64
6, 15104, Note_off_c, 4, 59, 100
6, 15168, Note_on_c, 4, 43, 64
6, 15228, Note_off_c, 4, 43, 100
6, 15360, Note_on_c, 4, 43, 64
6, 15420, Note_off_c, 4, 43, 100
6, 15552, Note_on_c, 4, 59, 64
6, 15612, Note_off_c, 4, 59, 100
6, 15744, Note_on_c, 4, 64, 64
6, 15804, Note_off_c, 4, 64, 100
6, 15936, Note_on_c, 4, 67, 64
6, 15996, Note_off_c, 4, 67, 100
6, 16128, Note_on_c, 4, 61, 64
6, 16220, Note_off_c, 4, 61, 100
6, 16224, Note_on_c, 4, 64, 64
6, 16288, Note_off_c, 4, 64, 100
6, 16320, Note_on_c, 4, 57, 64
6, 16412, Note_off_c, 4, 57, 100
6, 16416, Note_on_c, 4, 55, 64
6, 16508, Note_off_c, 4, 55, 100
6, 16512, Note_on_c, 4, 54, 64
6, 16576, Note_off_c, 4, 54, 100
6, 16608, Note_on_c, 4, 57, 64
6, 16700, Note_off_c, 4, 57, 100
6, 16704, Note_on_c, 4, 62, 64
6, 16796, Note_off_c, 4, 62, 100
6, 16800, Note_on_c, 4, 66, 64
6, 16864, Note_off_c, 4, 66, 100
6, 16896, Note_on_c, 4, 67, 64
6, 16988, Note_off_c, 4, 67, 100
6, 16992, Note_on_c, 4, 64, 64
6, 17084, Note_off_c, 4, 64, 100
6, 17088, Note_on_c, 4, 62, 64
6, 17180, Note_off_c, 4, 62, 100
6, 17184, Note_on_c, 4, 61, 64
6, 17248, Note_off_c, 4, 61, 100
6, 17280, Note_on_c, 4, 66, 64
6, 17344, Note_off_c, 4, 66, 100
6, 17376, Note_on_c, 4, 62, 64
6, 17468, Note_off_c, 4, 62, 100
6, 17472, Note_on_c, 4, 61, 64
6, 17564, Note_off_c, 4, 61, 100
6, 17568, Note_on_c, 4, 59, 64
6, 17660, Note_off_c, 4, 59, 100
6, 17664, Note_on_c, 4, 57, 64
6, 17728, Note_off_c, 4, 57, 100
6, 17760, Note_on_c, 4, 55, 64
6, 17852, Note_off_c, 4, 55, 100
6, 17856, Note_on_c, 4, 54, 64
6, 17948, Note_off_c, 4, 54, 100
6, 17952, Note_on_c, 4, 52, 64
6, 18044, Note_off_c, 4, 52, 100
6, 18048, Note_on_c, 4, 50, 64
6, 18304, Note_off_c, 4, 50, 100
6, 36864, Note_on_c, 4, 66, 64
6, 36956, Note_off_c, 4, 66, 100
6, 36960, Note_on_c, 4, 67, 64
6, 37052, Note_off_c, 4, 67, 100
6, 37056, Note_on_c, 4, 69, 64
6, 37244, Note_off_c, 4, 69, 100
6, 37344, Note_on_c, 4, 71, 64
6, 37436, Note_off_c, 4, 71, 100
6, 37440, Note_on_c, 4, 69, 64
6, 37532, Note_off_c, 4, 69, 100
6, 37536, Note_on_c, 4, 67, 64
6, 37628, Note_off_c, 4, 67, 100
6, 37632, Note_on_c, 4, 66, 64
6, 37724, Note_off_c, 4, 66, 100
6, 37728, Note_on_c, 4, 64, 64
6, 37820, Note_off_c, 4, 64, 100
6, 37824, Note_on_c, 4, 62, 64
6, 37916, Note_off_c, 4, 62, 100
6, 37920, Note_on_c, 4, 60, 64
6, 37984, Note_off_c, 4, 60, 100
6, 38016, Note_on_c, 4, 59, 64
6, 38108, Note_off_c, 4, 59, 100
6, 38112, Note_on_c, 4, 60, 64
6, 38204, Note_off_c, 4, 60, 100
6, 38208, Note_on_c, 4, 62, 64
6, 38396, Note_off_c, 4, 62, 100
6, 38496, Note_on_c, 4, 64, 64
6, 38588, Note_off_c, 4, 64, 100
6, 38592, Note_on_c, 4, 62, 64
6, 38684, Note_off_c, 4, 62, 100
6, 38688, Note_on_c, 4, 60, 64
6, 38780, Note_off_c, 4, 60, 100
6, 38784, Note_on_c, 4, 59, 64
6, 38876, Note_off_c, 4, 59, 100
6, 38880, Note_on_c, 4, 57, 64
6, 38972, Note_off_c, 4, 57, 100
6, 38976, Note_on_c, 4, 55, 64
6, 39068, Note_off_c, 4, 55, 100
6, 39072, Note_on_c, 4, 54, 64
6, 39164, Note_off_c, 4, 54, 100
6, 39168, Note_on_c, 4, 52, 64
6, 39232, Note_off_c, 4, 52, 100
6, 39264, Note_on_c, 4, 56, 64
6, 39356, Note_off_c, 4, 56, 100
6, 39360, Note_on_c, 4, 57, 64
6, 39452, Note_off_c, 4, 57, 100
6, 39456, Note_on_c, 4, 59, 64
6, 39548, Note_off_c, 4, 59, 100
6, 39552, Note_on_c, 4, 57, 64
6, 39616, Note_off_c, 4, 57, 100
6, 39648, Note_on_c, 4, 52, 64
6, 39712, Note_off_c, 4, 52, 100
6, 39744, Note_on_c, 4, 57, 64
6, 39836, Note_off_c, 4, 57, 100
6, 39840, Note_on_c, 4, 59, 64
6, 39932, Note_off_c, 4, 59, 100
6, 39936, Note_on_c, 4, 60, 64
6, 40000, Note_off_c, 4, 60, 100
6, 40032, Note_on_c, 4, 57, 64
6, 40096, Note_off_c, 4, 57, 100
6, 40128, Note_on_c, 4, 63, 64
6, 40220, Note_off_c, 4, 63, 100
6, 40224, Note_on_c, 4, 64, 64
6, 40288, Note_off_c, 4, 64, 100
6, 40320, Note_on_c, 4, 66, 64
6, 40412, Note_off_c, 4, 66, 100
6, 40416, Note_on_c, 4, 64, 64
6, 40508, Note_off_c, 4, 64, 100
6, 40512, Note_on_c, 4, 63, 64
6, 40604, Note_off_c, 4, 63, 100
6, 40608, Note_on_c, 4, 61, 64
6, 40700, Note_off_c, 4, 61, 100
6, 40704, Note_on_c, 4, 59, 64
6, 41468, Note_off_c, 4, 59, 100
6, 41568, Note_on_c, 4, 63, 64
6, 41660, Note_off_c, 4, 63, 100
6, 41664, Note_on_c, 4, 64, 64
6, 41852, Note_off_c, 4, 64, 100
6, 41952, Note_on_c, 4, 51, 64
6, 42044, Note_off_c, 4, 51, 100
6, 42048, Note_on_c, 4, 52, 64
6, 42236, Note_off_c, 4, 52, 100
6, 42336, Note_on_c, 4, 39, 64
6, 42428, Note_off_c, 4, 39, 100
6, 42432, Note_on_c, 4, 40, 64
6, 42620, Note_off_c, 4, 40, 100
6, 42720, Note_on_c, 4, 68, 64
6, 42812, Note_off_c, 4, 68, 100
6, 42816, Note_on_c, 4, 69, 64
6, 43004, Note_off_c, 4, 69, 100
6, 43104, Note_on_c, 4, 56, 64
6, 43196, Note_off_c, 4, 56, 100
6, 43200, Note_on_c, 4, 57, 64
6, 43388, Note_off_c, 4, 57, 100
6, 43488, Note_on_c, 4, 44, 64
6, 43580, Note_off_c, 4, 44, 100
6, 43584, Note_on_c, 4, 45, 64
6, 43772, Note_off_c, 4, 45, 100
6, 43872, Note_on_c, 4, 47, 64
6, 43964, Note_off_c, 4, 47, 100
6, 43968, Note_on_c, 4, 48, 64
6, 44060, Note_off_c, 4, 48, 100
6, 44064, Note_on_c, 4, 54, 64
6, 44128, Note_off_c, 4, 54, 100
6, 44160, Note_on_c, 4, 47, 64
6, 44252, Note_off_c, 4, 47, 100
6, 44256, Note_on_c, 4, 51, 64
6, 44348, Note_off_c, 4, 51, 100
6, 44352, Note_on_c, 4, 52, 64
6, 44444, Note_off_c, 4, 52, 100
6, 44448, Note_on_c, 4, 55, 64
6, 44512, Note_off_c, 4, 55, 100
6, 44544, Note_on_c, 4, 54, 64
6, 44636, Note_off_c, 4, 54, 100
6, 44640, Note_on_c, 4, 52, 64
6, 44732, Note_off_c, 4, 52, 100
6, 44736, Note_on_c, 4, 51, 64
6, 44828, Note_off_c, 4, 51, 100
6, 44832, Note_on_c, 4, 57, 64
6, 44896, Note_off_c, 4, 57, 100
6, 44928, Note_on_c, 4, 55, 64
6, 45020, Note_off_c, 4, 55, 100
6, 45024, Note_on_c, 4, 54, 64
6, 45116, Note_off_c, 4, 54, 100
6, 45120, Note_on_c, 4, 52, 64
6, 45212, Note_off_c, 4, 52, 100
6, 45216, Note_on_c, 4, 51, 64
6, 45308, Note_off_c, 4, 51, 100
6, 45312, Note_on_c, 4, 52, 64
6, 45404, Note_off_c, 4, 52, 100
6, 45408, Note_on_c, 4, 55, 64
6, 45472, Note_off_c, 4, 55, 100
6, 45504, Note_on_c, 4, 47, 64
6, 45596, Note_off_c, 4, 47, 100
6, 45600, Note_on_c, 4, 45, 64
6, 45692, Note_off_c, 4, 45, 100
6, 45696, Note_on_c, 4, 43, 64
6, 45788, Note_off_c, 4, 43, 100
6, 45792, Note_on_c, 4, 47, 64
6, 45856, Note_off_c, 4, 47, 100
6, 45888, Note_on_c, 4, 40, 64
6, 46016, Note_off_c, 4, 40, 100
6, 46272, Note_on_c, 4, 64, 64
6, 46332, Note_off_c, 4, 64, 100
6, 46464, Note_on_c, 4, 60, 64
6, 46524, Note_off_c, 4, 60, 100
6, 46656, Note_on_c, 4, 64, 64
6, 46716, Note_off_c, 4, 64, 100
6, 46848, Note_on_c, 4, 69, 64
6, 46908, Note_off_c, 4, 69, 100
6, 47040, Note_on_c, 4, 57, 64
6, 47100, Note_off_c, 4, 57, 100
6, 47424, Note_on_c, 4, 62, 64
6, 47484, Note_off_c, 4, 62, 100
6, 47616, Note_on_c, 4, 59, 64
6, 47676, Note_off_c, 4, 59, 100
6, 47808, Note_on_c, 4, 62, 64
6, 47868, Note_off_c, 4, 62, 100
6, 48000, Note_on_c, 4, 67, 64
6, 48060, Note_off_c, 4, 67, 100
6, 48192, Note_on_c, 4, 55, 64
6, 48252, Note_off_c, 4, 55, 100
6, 48384, Note_on_c, 4, 60, 64
6, 48476, Note_off_c, 4, 60, 100
6, 48480, Note_on_c, 4, 57, 64
6, 48572, Note_off_c, 4, 57, 100
6, 48576, Note_on_c, 4, 52, 64
6, 48668, Note_off_c, 4, 52, 100
6, 48672, Note_on_c, 4, 48, 64
6, 48764, Note_off_c, 4, 48, 100
6, 48768, Note_on_c, 4, 45, 64
6, 48860, Note_off_c, 4, 45, 100
6, 48864, Note_on_c, 4, 48, 64
6, 48956, Note_off_c, 4, 48, 100
6, 48960, Note_on_c, 4, 52, 64
6, 49052, Note_off_c, 4, 52, 100
6, 49056, Note_on_c, 4, 57, 64
6, 49148, Note_off_c, 4, 57, 100
6, 49152, Note_on_c, 4, 60, 64
6, 49216, Note_off_c, 4, 60, 100
6, 49248, Note_on_c, 4, 57, 64
6, 49340, Note_off_c, 4, 57, 100
6, 49344, Note_on_c, 4, 60, 64
6, 49436, Note_off_c, 4, 60, 100
6, 49440, Note_on_c, 4, 64, 64
6, 49504, Note_off_c, 4, 64, 100
6, 49536, Note_on_c, 4, 66, 64
6, 49628, Note_off_c, 4, 66, 100
6, 49632, Note_on_c, 4, 60, 64
6, 49724, Note_off_c, 4, 60, 100
6, 49728, Note_on_c, 4, 57, 64
6, 49820, Note_off_c, 4, 57, 100
6, 49824, Note_on_c, 4, 54, 64
6, 49916, Note_off_c, 4, 54, 100
6, 49920, Note_on_c, 4, 50, 64
6, 50012, Note_off_c, 4, 50, 100
6, 50016, Note_on_c, 4, 54, 64
6, 50108, Note_off_c, 4, 54, 100
6, 50112, Note_on_c, 4, 57, 64
6, 50204, Note_off_c, 4, 57, 100
6, 50208, Note_on_c, 4, 60, 64
6, 50300, Note_off_c, 4, 60, 100
6, 50304, Note_on_c, 4, 66, 64
6, 50368, Note_off_c, 4, 66, 100
6, 50400, Note_on_c, 4, 60, 64
6, 50492, Note_off_c, 4, 60, 100
6, 50496, Note_on_c, 4, 66, 64
6, 50560, Note_off_c, 4, 66, 100
6, 50592, Note_on_c, 4, 69, 64
6, 50656, Note_off_c, 4, 69, 100
6, 50688, Note_on_c, 4, 71, 64
6, 50780, Note_off_c, 4, 71, 100
6, 50784, Note_on_c, 4, 67, 64
6, 50876, Note_off_c, 4, 67, 100
6, 50880, Note_on_c, 4, 62, 64
6, 50972, Note_off_c, 4, 62, 100
6, 50976, Note_on_c, 4, 59, 64
6, 51068, Note_off_c, 4, 59, 100
6, 51072, Note_on_c, 4, 55, 64
6, 51164, Note_off_c, 4, 55, 100
6, 51168, Note_on_c, 4, 59, 64
6, 51260, Note_off_c, 4, 59, 100
6, 51264, Note_on_c, 4, 62, 64
6, 51356, Note_off_c, 4, 62, 100
6, 51360, Note_on_c, 4, 67, 64
6, 51452, Note_off_c, 4, 67, 100
6, 51456, Note_on_c, 4, 71, 64
6, 51520, Note_off_c, 4, 71, 100
6, 51552, Note_on_c, 4, 67, 64
6, 51644, Note_off_c, 4, 67, 100
6, 51648, Note_on_c, 4, 71, 64
6, 51712, Note_off_c, 4, 71, 100
6, 51744, Note_on_c, 4, 74, 64
6, 51808, Note_off_c, 4, 74, 100
6, 51840, Note_on_c, 4, 64, 64
6, 51932, Note_off_c, 4, 64, 100
6, 51936, Note_on_c, 4, 74, 64
6, 52028, Note_off_c, 4, 74, 100
6, 52032, Note_on_c, 4, 72, 64
6, 52124, Note_off_c, 4, 72, 100
6, 52128, Note_on_c, 4, 64, 64
6, 52192, Note_off_c, 4, 64, 100
6, 52224, Note_on_c, 4, 62, 64
6, 52316, Note_off_c, 4, 62, 100
6, 52320, Note_on_c, 4, 72, 64
6, 52412, Note_off_c, 4, 72, 100
6, 52416, Note_on_c, 4, 71, 64
6, 52508, Note_off_c, 4, 71, 100
6, 52512, Note_on_c, 4, 62, 64
6, 52576, Note_off_c, 4, 62, 100
6, 52608, Note_on_c, 4, 60, 64
6, 52700, Note_off_c, 4, 60, 100
6, 52704, Note_on_c, 4, 64, 64
6, 52796, Note_off_c, 4, 64, 100
6, 52800, Note_on_c, 4, 66, 64
6, 52892, Note_off_c, 4, 66, 100
6, 52896, Note_on_c, 4, 67, 64
6, 52960, Note_off_c, 4, 67, 100
6, 52992, Note_on_c, 4, 69, 64
6, 53056, Note_off_c, 4, 69, 100
6, 53088, Note_on_c, 4, 60, 64
6, 53180, Note_off_c, 4, 60, 100
6, 53184, Note_on_c, 4, 59, 64
6, 53276, Note_off_c, 4, 59, 100
6, 53280, Note_on_c, 4, 57, 64
6, 53372, Note_off_c, 4, 57, 100
6, 53376, Note_on_c, 4, 59, 64
6, 53440, Note_off_c, 4, 59, 100
6, 53472, Note_on_c, 4, 62, 64
6, 53564, Note_off_c, 4, 62, 100
6, 53568, Note_on_c, 4, 59, 64
6, 53660, Note_off_c, 4, 59, 100
6, 53664, Note_on_c, 4, 55, 64
6, 53756, Note_off_c, 4, 55, 100
6, 53760, Note_on_c, 4, 60, 64
6, 53852, Note_off_c, 4, 60, 100
6, 53856, Note_on_c, 4, 57, 64
6, 53948, Note_off_c, 4, 57, 100
6, 53952, Note_on_c, 4, 55, 64
6, 54044, Note_off_c, 4, 55, 100
6, 54048, Note_on_c, 4, 54, 64
6, 54140, Note_off_c, 4, 54, 100
6, 54144, Note_on_c, 4, 59, 64
6, 54208, Note_off_c, 4, 59, 100
6, 54240, Note_on_c, 4, 55, 64
6, 54332, Note_off_c, 4, 55, 100
6, 54336, Note_on_c, 4, 54, 64
6, 54428, Note_off_c, 4, 54, 100
6, 54432, Note_on_c, 4, 52, 64
6, 54524, Note_off_c, 4, 52, 100
6, 54528, Note_on_c, 4, 50, 64
6, 54592, Note_off_c, 4, 50, 100
6, 54624, Note_on_c, 4, 48, 64
6, 54716, Note_off_c, 4, 48, 100
6, 54720, Note_on_c, 4, 47, 64
6, 54812, Note_off_c, 4, 47, 100
6, 54816, Note_on_c, 4, 45, 64
6, 54908, Note_off_c, 4, 45, 100
6, 54912, Note_on_c, 4, 43, 64
6, 55168, Note_off_c, 4, 43, 100
6, 55168, End_track
7, 0, Start_track
7, 0, Title_t, "bdg@bruno-de-giusti.net"
7, 0, Control_c, 5, 0, 0
7, 0, Program_c, 5, 6
7, 0, Control_c, 5, 7, 127
7, 0, Control_c, 5, 10, 64
7, 0, Control_c, 5, 91, 127
7, 0, Key_signature, 1, "major"
7, 0, Note_on_c, 5, 55, 96
7, 128, Note_off_c, 5, 55, 100
7, 192, Note_on_c, 5, 71, 96
7, 284, Note_off_c, 5, 71, 100
7, 288, Note_on_c, 5, 69, 96
7, 380, Note_off_c, 5, 69, 100
7, 384, Note_on_c, 5, 71, 96
7, 444, Note_off_c, 5, 71, 100
7, 576, Note_on_c, 5, 67, 96
7, 636, Note_off_c, 5, 67, 100
7, 768, Note_on_c, 5, 55, 96
7, 856, Note_off_c, 5, 55, 100
7, 960, Note_on_c, 5, 67, 96
7, 1020, Note_off_c, 5, 67, 100
7, 1152, Note_on_c, 5, 54, 96
7, 1280, Note_off_c, 5, 54, 100
7, 1344, Note_on_c, 5, 66, 96
7, 1436, Note_off_c, 5, 66, 100
7, 1440, Note_on_c, 5, 64, 96
7, 1532, Note_off_c, 5, 64, 100
7, 1536, Note_on_c, 5, 66, 96
7, 1596, Note_off_c, 5, 66, 100
7, 1728, Note_on_c, 5, 62, 96
7, 1788, Note_off_c, 5, 62, 100
7, 1920, Note_on_c, 5, 54, 96
7, 2008, Note_off_c, 5, 54, 100
7, 2112, Note_on_c, 5, 62, 96
7, 2172, Note_off_c, 5, 62, 100
7, 2304, Note_on_c, 5, 52, 96
7, 2432, Note_off_c, 5, 52, 100
7, 2496, Note_on_c, 5, 64, 96
7, 2588, Note_off_c, 5, 64, 100
7, 2592, Note_on_c, 5, 62, 96
7, 2684, Note_off_c, 5, 62, 100
7, 2688, Note_on_c, 5, 64, 96
7, 2748, Note_off_c, 5, 64, 100
7, 2880, Note_on_c, 5, 67, 96
7, 2940, Note_off_c, 5, 67, 100
7, 3072, Note_on_c, 5, 57, 96
7, 3160, Note_off_c, 5, 57, 100
7, 3264, Note_on_c, 5, 73, 96
7, 3324, Note_off_c, 5, 73, 100
7, 3456, Note_on_c, 5, 62, 96
7, 3584, Note_off_c, 5, 62, 100
7, 3648, Note_on_c, 5, 66, 96
7, 3740, Note_off_c, 5, 66, 100
7, 3744, Note_on_c, 5, 64, 96
7, 3836, Note_off_c, 5, 64, 100
7, 3840, Note_on_c, 5, 66, 96
7, 3900, Note_off_c, 5, 66, 100
7, 4032, Note_on_c, 5, 62, 96
7, 4092, Note_off_c, 5, 62, 100
7, 4224, Note_on_c, 5, 50, 96
7, 4312, Note_off_c, 5, 50, 100
7, 4512, Note_on_c, 5, 60, 96
7, 4576, Note_off_c, 5, 60, 100
7, 4608, Note_on_c, 5, 59, 96
7, 4700, Note_off_c, 5, 59, 100
7, 4704, Note_on_c, 5, 57, 96
7, 4796, Note_off_c, 5, 57, 100
7, 4800, Note_on_c, 5, 59, 96
7, 4988, Note_off_c, 5, 59, 100
7, 5088, Note_on_c, 5, 62, 96
7, 5180, Note_off_c, 5, 62, 100
7, 5184, Note_on_c, 5, 64, 96
7, 5276, Note_off_c, 5, 64, 100
7, 5280, Note_on_c, 5, 66, 96
7, 5372, Note_off_c, 5, 66, 100
7, 5376, Note_on_c, 5, 67, 96
7, 5468, Note_off_c, 5, 67, 100
7, 5472, Note_on_c, 5, 69, 96
7, 5564, Note_off_c, 5, 69, 100
7, 5568, Note_on_c, 5, 71, 96
7, 5660, Note_off_c, 5, 71, 100
7, 5664, Note_on_c, 5, 67, 96
7, 5728, Note_off_c, 5, 67, 100
7, 5760, Note_on_c, 5, 60, 96
7, 5852, Note_off_c, 5, 60, 100
7, 5856, Note_on_c, 5, 59, 96
7, 5948, Note_off_c, 5, 59, 100
7, 5952, Note_on_c, 5, 60, 96
7, 6140, Note_off_c, 5, 60, 100
7, 6240, Note_on_c, 5, 64, 96
7, 6332, Note_off_c, 5, 64, 100
7, 6336, Note_on_c, 5, 66, 96
7, 6428, Note_off_c, 5, 66, 100
7, 6432, Note_on_c, 5, 67, 96
7, 6524, Note_off_c, 5, 67, 100
7, 6528, Note_on_c, 5, 69, 96
7, 6620, Note_off_c, 5, 69, 100
7, 6624, Note_on_c, 5, 71, 96
7, 6716, Note_off_c, 5, 71, 100
7, 6720, Note_on_c, 5, 72, 96
7, 6812, Note_off_c, 5, 72, 100
7, 6816, Note_on_c, 5, 69, 96
7, 6880, Note_off_c, 5, 69, 100
7, 6912, Note_on_c, 5, 62, 96
7, 7004, Note_off_c, 5, 62, 100
7, 7008, Note_on_c, 5, 61, 96
7, 7100, Note_off_c, 5, 61, 100
7, 7104, Note_on_c, 5, 62, 96
7, 7292, Note_off_c, 5, 62, 100
7, 7392, Note_on_c, 5, 69, 96
7, 7484, Note_off_c, 5, 69, 100
7, 7488, Note_on_c, 5, 71, 96
7, 7580, Note_off_c, 5, 71, 100
7, 7584, Note_on_c, 5, 72, 96
7, 7676, Note_off_c, 5, 72, 100
7, 7680, Note_on_c, 5, 74, 96
7, 7772, Note_off_c, 5, 74, 100
7, 7776, Note_on_c, 5, 76, 96
7, 7868, Note_off_c, 5, 76, 100
7, 7872, Note_on_c, 5, 78, 96
7, 7964, Note_off_c, 5, 78, 100
7, 7968, Note_on_c, 5, 74, 96
7, 8032, Note_off_c, 5, 74, 100
7, 8064, Note_on_c, 5, 79, 96
7, 8156, Note_off_c, 5, 79, 100
7, 8160, Note_on_c, 5, 78, 96
7, 8252, Note_off_c, 5, 78, 100
7, 8256, Note_on_c, 5, 79, 96
7, 8320, Note_off_c, 5, 79, 100
7, 8352, Note_on_c, 5, 74, 96
7, 8416, Note_off_c, 5, 74, 100
7, 8448, Note_on_c, 5, 71, 96
7, 8540, Note_off_c, 5, 71, 100
7, 8544, Note_on_c, 5, 74, 96
7, 8608, Note_off_c, 5, 74, 100
7, 8640, Note_on_c, 5, 67, 96
7, 8732, Note_off_c, 5, 67, 100
7, 8736, Note_on_c, 5, 71, 96
7, 8800, Note_off_c, 5, 71, 100
7, 8832, Note_on_c, 5, 62, 96
7, 8924, Note_off_c, 5, 62, 100
7, 8928, Note_on_c, 5, 67, 96
7, 8992, Note_off_c, 5, 67, 100
7, 9024, Note_on_c, 5, 59, 96
7, 9116, Note_off_c, 5, 59, 100
7, 9120, Note_on_c, 5, 62, 96
7, 9184, Note_off_c, 5, 62, 100
7, 9216, Note_on_c, 5, 55, 96
7, 9344, Note_off_c, 5, 55, 100
7, 9408, Note_on_c, 5, 67, 96
7, 9468, Note_off_c, 5, 67, 100
7, 9600, Note_on_c, 5, 71, 96
7, 9660, Note_off_c, 5, 71, 100
7, 9792, Note_on_c, 5, 67, 96
7, 9852, Note_off_c, 5, 67, 100
7, 9984, Note_on_c, 5, 55, 96
7, 10072, Note_off_c, 5, 55, 100
7, 10176, Note_on_c, 5, 67, 96
7, 10236, Note_off_c, 5, 67, 100
7, 10368, Note_on_c, 5, 54, 96
7, 10496, Note_off_c, 5, 54, 100
7, 10560, Note_on_c, 5, 66, 96
7, 10620, Note_off_c, 5, 66, 100
7, 10752, Note_on_c, 5, 69, 96
7, 10812, Note_off_c, 5, 69, 100
7, 10944, Note_on_c, 5, 66, 96
7, 11004, Note_off_c, 5, 66, 100
7, 11136, Note_on_c, 5, 54, 96
7, 11224, Note_off_c, 5, 54, 100
7, 11328, Note_on_c, 5, 66, 96
7, 11388, Note_off_c, 5, 66, 100
7, 11520, Note_on_c, 5, 52, 96
7, 11648, Note_off_c, 5, 52, 100
7, 11712, Note_on_c, 5, 64, 96
7, 11772, Note_off_c, 5, 64, 100
7, 11904, Note_on_c, 5, 67, 96
7, 11964, Note_off_c, 5, 67, 100
7, 12096, Note_on_c, 5, 64, 96
7, 12156, Note_off_c, 5, 64, 100
7, 12288, Note_on_c, 5, 52, 96
7, 12376, Note_off_c, 5, 52, 100
7, 12480, Note_on_c, 5, 67, 96
7, 12540, Note_off_c, 5, 67, 100
7, 12672, Note_on_c, 5, 57, 96
7, 12800, Note_off_c, 5, 57, 100
7, 12864, Note_on_c, 5, 64, 96
7, 12924, Note_off_c, 5, 64, 100
7, 13056, Note_on_c, 5, 67, 96
7, 13116, Note_off_c, 5, 67, 100
7, 13248, Note_on_c, 5, 64, 96
7, 13308, Note_off_c, 5, 64, 100
7, 13440, Note_on_c, 5, 57, 96
7, 13528, Note_off_c, 5, 57, 100
7, 13632, Note_on_c, 5, 67, 96
7, 13692, Note_off_c, 5, 67, 100
7, 13824, Note_on_c, 5, 66, 96
7, 13916, Note_off_c, 5, 66, 100
7, 13920, Note_on_c, 5, 69, 96
7, 14012, Note_off_c, 5, 69, 100
7, 14016, Note_on_c, 5, 74, 96
7, 14108, Note_off_c, 5, 74, 100
7, 14112, Note_on_c, 5, 78, 96
7, 14176, Note_off_c, 5, 78, 100
7, 14208, Note_on_c, 5, 81, 96
7, 14300, Note_off_c, 5, 81, 100
7, 14304, Note_on_c, 5, 78, 96
7, 14396, Note_off_c, 5, 78, 100
7, 14400, Note_on_c, 5, 74, 96
7, 14492, Note_off_c, 5, 74, 100
7, 14496, Note_on_c, 5, 69, 96
7, 14560, Note_off_c, 5, 69, 100
7, 14592, Note_on_c, 5, 66, 96
7, 14684, Note_off_c, 5, 66, 100
7, 14688, Note_on_c, 5, 69, 96
7, 14752, Note_off_c, 5, 69, 100
7, 14784, Note_on_c, 5, 62, 96
7, 14876, Note_off_c, 5, 62, 100
7, 14880, Note_on_c, 5, 66, 96
7, 14944, Note_off_c, 5, 66, 100
7, 14976, Note_on_c, 5, 67, 96
7, 15068, Note_off_c, 5, 67, 100
7, 15072, Note_on_c, 5, 71, 96
7, 15164, Note_off_c, 5, 71, 100
7, 15168, Note_on_c, 5, 74, 96
7, 15260, Note_off_c, 5, 74, 100
7, 15264, Note_on_c, 5, 79, 96
7, 15328, Note_off_c, 5, 79, 100
7, 15360, Note_on_c, 5, 83, 96
7, 15452, Note_off_c, 5, 83, 100
7, 15456, Note_on_c, 5, 79, 96
7, 15548, Note_off_c, 5, 79, 100
7, 15552, Note_on_c, 5, 74, 96
7, 15644, Note_off_c, 5, 74, 100
7, 15648, Note_on_c, 5, 71, 96
7, 15712, Note_off_c, 5, 71, 100
7, 15744, Note_on_c, 5, 67, 96
7, 15836, Note_off_c, 5, 67, 100
7, 15840, Note_on_c, 5, 71, 96
7, 15904, Note_off_c, 5, 71, 100
7, 15936, Note_on_c, 5, 64, 96
7, 16028, Note_off_c, 5, 64, 100
7, 16032, Note_on_c, 5, 67, 96
7, 16096, Note_off_c, 5, 67, 100
7, 16128, Note_on_c, 5, 69, 96
7, 16256, Note_off_c, 5, 69, 100
7, 16320, Note_on_c, 5, 73, 96
7, 16380, Note_off_c, 5, 73, 100
7, 16512, Note_on_c, 5, 74, 96
7, 16576, Note_off_c, 5, 74, 100
7, 16608, Note_on_c, 5, 69, 96
7, 16700, Note_off_c, 5, 69, 100
7, 16704, Note_on_c, 5, 66, 96
7, 16796, Note_off_c, 5, 66, 100
7, 16800, Note_on_c, 5, 62, 96
7, 16892, Note_off_c, 5, 62, 100
7, 16896, Note_on_c, 5, 69, 96
7, 16956, Note_off_c, 5, 69, 100
7, 17088, Note_on_c, 5, 57, 96
7, 17176, Note_off_c, 5, 57, 100
7, 17280, Note_on_c, 5, 50, 96
7, 17344, Note_off_c, 5, 50, 100
7, 17376, Note_on_c, 5, 62, 96
7, 17468, Note_off_c, 5, 62, 100
7, 17472, Note_on_c, 5, 64, 96
7, 17564, Note_off_c, 5, 64, 100
7, 17568, Note_on_c, 5, 66, 96
7, 17660, Note_off_c, 5, 66, 100
7, 17664, Note_on_c, 5, 67, 96
7, 17728, Note_off_c, 5, 67, 100
7, 17760, Note_on_c, 5, 69, 96
7, 17852, Note_off_c, 5, 69, 100
7, 17856, Note_on_c, 5, 71, 96
7, 17948, Note_off_c, 5, 71, 100
7, 17952, Note_on_c, 5, 73, 96
7, 18044, Note_off_c, 5, 73, 100
7, 18048, Note_on_c, 5, 74, 96
7, 18304, Note_off_c, 5, 74, 100
7, 36864, Note_on_c, 5, 50, 96
7, 36992, Note_off_c, 5, 50, 100
7, 37056, Note_on_c, 5, 66, 96
7, 37148, Note_off_c, 5, 66, 100
7, 37152, Note_on_c, 5, 64, 96
7, 37244, Note_off_c, 5, 64, 100
7, 37248, Note_on_c, 5, 66, 96
7, 37308, Note_off_c, 5, 66, 100
7, 37440, Note_on_c, 5, 62, 96
7, 37500, Note_off_c, 5, 62, 100
7, 37632, Note_on_c, 5, 50, 96
7, 37720, Note_off_c, 5, 50, 100
7, 37824, Note_on_c, 5, 66, 96
7, 37884, Note_off_c, 5, 66, 100
7, 38016, Note_on_c, 5, 55, 96
7, 38144, Note_off_c, 5, 55, 100
7, 38208, Note_on_c, 5, 71, 96
7, 38300, Note_off_c, 5, 71, 100
7, 38304, Note_on_c, 5, 69, 96
7, 38396, Note_off_c, 5, 69, 100
7, 38400, Note_on_c, 5, 71, 96
7, 38460, Note_off_c, 5, 71, 100
7, 38592, Note_on_c, 5, 67, 96
7, 38652, Note_off_c, 5, 67, 100
7, 38784, Note_on_c, 5, 55, 96
7, 38872, Note_off_c, 5, 55, 100
7, 38976, Note_on_c, 5, 71, 96
7, 39036, Note_off_c, 5, 71, 100
7, 39168, Note_on_c, 5, 60, 96
7, 39296, Note_off_c, 5, 60, 100
7, 39360, Note_on_c, 5, 72, 96
7, 39452, Note_off_c, 5, 72, 100
7, 39456, Note_on_c, 5, 71, 96
7, 39548, Note_off_c, 5, 71, 100
7, 39552, Note_on_c, 5, 72, 96
7, 39612, Note_off_c, 5, 72, 100
7, 39744, Note_on_c, 5, 66, 96
7, 39804, Note_off_c, 5, 66, 100
7, 39936, Note_on_c, 5, 69, 96
7, 39996, Note_off_c, 5, 69, 100
7, 40128, Note_on_c, 5, 72, 96
7, 40188, Note_off_c, 5, 72, 100
7, 40320, Note_on_c, 5, 69, 96
7, 40380, Note_off_c, 5, 69, 100
7, 40512, Note_on_c, 5, 66, 96
7, 40572, Note_off_c, 5, 66, 100
7, 40704, Note_on_c, 5, 63, 96
7, 40768, Note_off_c, 5, 63, 100
7, 40800, Note_on_c, 5, 59, 96
7, 40892, Note_off_c, 5, 59, 100
7, 40896, Note_on_c, 5, 63, 96
7, 40988, Note_off_c, 5, 63, 100
7, 40992, Note_on_c, 5, 66, 96
7, 41084, Note_off_c, 5, 66, 100
7, 41088, Note_on_c, 5, 71, 96
7, 41152, Note_off_c, 5, 71, 100
7, 41184, Note_on_c, 5, 75, 96
7, 41276, Note_off_c, 5, 75, 100
7, 41280, Note_on_c, 5, 78, 96
7, 41372, Note_off_c, 5, 78, 100
7, 41376, Note_on_c, 5, 81, 96
7, 41440, Note_off_c, 5, 81, 100
7, 41472, Note_on_c, 5, 79, 96
7, 41660, Note_off_c, 5, 79, 100
7, 41760, Note_on_c, 5, 78, 96
7, 41852, Note_off_c, 5, 78, 100
7, 41856, Note_on_c, 5, 79, 96
7, 42044, Note_off_c, 5, 79, 100
7, 42144, Note_on_c, 5, 66, 96
7, 42236, Note_off_c, 5, 66, 100
7, 42240, Note_on_c, 5, 67, 96
7, 42428, Note_off_c, 5, 67, 100
7, 42528, Note_on_c, 5, 59, 96
7, 42620, Note_off_c, 5, 59, 100
7, 42624, Note_on_c, 5, 60, 96
7, 42812, Note_off_c, 5, 60, 100
7, 42912, Note_on_c, 5, 83, 96
7, 43004, Note_off_c, 5, 83, 100
7, 43008, Note_on_c, 5, 84, 96
7, 43196, Note_off_c, 5, 84, 100
7, 43296, Note_on_c, 5, 71, 96
7, 43388, Note_off_c, 5, 71, 100
7, 43392, Note_on_c, 5, 72, 96
7, 43580, Note_off_c, 5, 72, 100
7, 43680, Note_on_c, 5, 64, 96
7, 43772, Note_off_c, 5, 64, 100
7, 43776, Note_on_c, 5, 63, 96
7, 43836, Note_off_c, 5, 63, 100
7, 43968, Note_on_c, 5, 69, 96
7, 44028, Note_off_c, 5, 69, 100
7, 44160, Note_on_c, 5, 67, 96
7, 44220, Note_off_c, 5, 67, 100
7, 44352, Note_on_c, 5, 58, 96
7, 44412, Note_off_c, 5, 58, 100
7, 44544, Note_on_c, 5, 59, 96
7, 44604, Note_off_c, 5, 59, 100
7, 44736, Note_on_c, 5, 66, 96
7, 44796, Note_off_c, 5, 66, 100
7, 44928, Note_on_c, 5, 64, 96
7, 44988, Note_off_c, 5, 64, 100
7, 45120, Note_on_c, 5, 67, 96
7, 45212, Note_off_c, 5, 67, 100
7, 45216, Note_on_c, 5, 66, 96
7, 45308, Note_off_c, 5, 66, 100
7, 45312, Note_on_c, 5, 67, 96
7, 45372, Note_off_c, 5, 67, 100
7, 45504, Note_on_c, 5, 64, 96
7, 45564, Note_off_c, 5, 64, 100
7, 45696, Note_on_c, 5, 52, 96
7, 45756, Note_off_c, 5, 52, 100
7, 45984, Note_on_c, 5, 62, 96
7, 46048, Note_off_c, 5, 62, 100
7, 46080, Note_on_c, 5, 60, 96
7, 46172, Note_off_c, 5, 60, 100
7, 46176, Note_on_c, 5, 64, 96
7, 46268, Note_off_c, 5, 64, 100
7, 46272, Note_on_c, 5, 69, 96
7, 46364, Note_off_c, 5, 69, 100
7, 46368, Note_on_c, 5, 72, 96
7, 46432, Note_off_c, 5, 72, 100
7, 46464, Note_on_c, 5, 76, 96
7, 46556, Note_off_c, 5, 76, 100
7, 46560, Note_on_c, 5, 72, 96
7, 46652, Note_off_c, 5, 72, 100
7, 46656, Note_on_c, 5, 69, 96
7, 46748, Note_off_c, 5, 69, 100
7, 46752, Note_on_c, 5, 64, 96
7, 46844, Note_off_c, 5, 64, 100
7, 46848, Note_on_c, 5, 60, 96
7, 46912, Note_off_c, 5, 60, 100
7, 46944, Note_on_c, 5, 64, 96
7, 47036, Note_off_c, 5, 64, 100
7, 47040, Note_on_c, 5, 62, 96
7, 47132, Note_off_c, 5, 62, 100
7, 47136, Note_on_c, 5, 60, 96
7, 47200, Note_off_c, 5, 60, 100
7, 47232, Note_on_c, 5, 59, 96
7, 47324, Note_off_c, 5, 59, 100
7, 47328, Note_on_c, 5, 62, 96
7, 47420, Note_off_c, 5, 62, 100
7, 47424, Note_on_c, 5, 67, 96
7, 47516, Note_off_c, 5, 67, 100
7, 47520, Note_on_c, 5, 71, 96
7, 47612, Note_off_c, 5, 71, 100
7, 47616, Note_on_c, 5, 74, 96
7, 47708, Note_off_c, 5, 74, 100
7, 47712, Note_on_c, 5, 71, 96
7, 47804, Note_off_c, 5, 71, 100
7, 47808, Note_on_c, 5, 67, 96
7, 47900, Note_off_c, 5, 67, 100
7, 47904, Note_on_c, 5, 62, 96
7, 47996, Note_off_c, 5, 62, 100
7, 48000, Note_on_c, 5, 59, 96
7, 48064, Note_off_c, 5, 59, 100
7, 48096, Note_on_c, 5, 62, 96
7, 48188, Note_off_c, 5, 62, 100
7, 48192, Note_on_c, 5, 60, 96
7, 48284, Note_off_c, 5, 60, 100
7, 48288, Note_on_c, 5, 59, 96
7, 48352, Note_off_c, 5, 59, 100
7, 48384, Note_on_c, 5, 57, 96
7, 48512, Note_off_c, 5, 57, 100
7, 48576, Note_on_c, 5, 60, 96
7, 48636, Note_off_c, 5, 60, 100
7, 48768, Note_on_c, 5, 64, 96
7, 48828, Note_off_c, 5, 64, 100
7, 48960, Note_on_c, 5, 67, 96
7, 49020, Note_off_c, 5, 67, 100
7, 49152, Note_on_c, 5, 66, 96
7, 49212, Note_off_c, 5, 66, 100
7, 49344, Note_on_c, 5, 64, 96
7, 49404, Note_off_c, 5, 64, 100
7, 49536, Note_on_c, 5, 62, 96
7, 49664, Note_off_c, 5, 62, 100
7, 49728, Note_on_c, 5, 66, 96
7, 49788, Note_off_c, 5, 66, 100
7, 49920, Note_on_c, 5, 69, 96
7, 49980, Note_off_c, 5, 69, 100
7, 50112, Note_on_c, 5, 72, 96
7, 50172, Note_off_c, 5, 72, 100
7, 50304, Note_on_c, 5, 71, 96
7, 50364, Note_off_c, 5, 71, 100
7, 50496, Note_on_c, 5, 69, 96
7, 50556, Note_off_c, 5, 69, 100
7, 50688, Note_on_c, 5, 67, 96
7, 50816, Note_off_c, 5, 67, 100
7, 50880, Note_on_c, 5, 71, 96
7, 50940, Note_off_c, 5, 71, 100
7, 51072, Note_on_c, 5, 74, 96
7, 51132, Note_off_c, 5, 74, 100
7, 51264, Note_on_c, 5, 77, 96
7, 51324, Note_off_c, 5, 77, 100
7, 51456, Note_on_c, 5, 76, 96
7, 51516, Note_off_c, 5, 76, 100
7, 51648, Note_on_c, 5, 74, 96
7, 51708, Note_off_c, 5, 74, 100
7, 51840, Note_on_c, 5, 72, 96
7, 51968, Note_off_c, 5, 72, 100
7, 52032, Note_on_c, 5, 76, 96
7, 52092, Note_off_c, 5, 76, 100
7, 52224, Note_on_c, 5, 78, 96
7, 52284, Note_off_c, 5, 78, 100
7, 52416, Note_on_c, 5, 80, 96
7, 52476, Note_off_c, 5, 80, 100
7, 52608, Note_on_c, 5, 81, 96
7, 52668, Note_off_c, 5, 81, 100
7, 52800, Note_on_c, 5, 79, 96
7, 52860, Note_off_c, 5, 79, 100
7, 52992, Note_on_c, 5, 78, 96
7, 53120, Note_off_c, 5, 78, 100
7, 53184, Note_on_c, 5, 74, 96
7, 53244, Note_off_c, 5, 74, 100
7, 53376, Note_on_c, 5, 79, 96
7, 53436, Note_off_c, 5, 79, 100
7, 53568, Note_on_c, 5, 67, 96
7, 53628, Note_off_c, 5, 67, 100
7, 53760, Note_on_c, 5, 74, 96
7, 53820, Note_off_c, 5, 74, 100
7, 53952, Note_on_c, 5, 62, 96
7, 54012, Note_off_c, 5, 62, 100
7, 54144, Note_on_c, 5, 67, 96
7, 54208, Note_off_c, 5, 67, 100
7, 54240, Note_on_c, 5, 55, 96
7, 54332, Note_off_c, 5, 55, 100
7, 54336, Note_on_c, 5, 57, 96
7, 54428, Note_off_c, 5, 57, 100
7, 54432, Note_on_c, 5, 59, 96
7, 54524, Note_off_c, 5, 59, 100
7, 54528, Note_on_c, 5, 60, 96
7, 54592, Note_off_c, 5, 60, 100
7, 54624, Note_on_c, 5, 62, 96
7, 54716, Note_off_c, 5, 62, 100
7, 54720, Note_on_c, 5, 64, 96
7, 54812, Note_off_c, 5, 64, 100
7, 54816, Note_on_c, 5, 66, 96
7, 54908, Note_off_c, 5, 66, 100
7, 54912, Note_on_c, 5, 67, 96
7, 55168, Note_off_c, 5, 67, 100
7, 55168, End_track
8, 0, Start_track
8, 0, Title_t, "www.bruno-de-giusti.net"
8, 0, Control_c, 6, 0, 0
8, 0, Program_c, 6, 6
8, 0, Control_c, 6, 7, 0
8, 0, Key_signature, 1, "major"
8, 73344, Note_on_c, 6, 43, 1
8, 74116, Note_off_c, 6, 43, 64
8, 74116, End_track
9, 0, Start_track
9, 0, Title_t, "All rights reserved"
9, 0, Control_c, 6, 0, 0
9, 0, Program_c, 6, 6
9, 0, Control_c, 6, 7, 0
9, 0, Key_signature, 1, "major"
9, 0, End_track
10, 0, Start_track
10, 1, Copyright_t, "___________________________________________________\012\012KUNSTDERFUGE.COM LARGE CLASSICAL MIDI COLLECTION\012ONCLASSICAL BY ALESSANDRO SIMONETTO, PROPRIETOR\012___________________________________________________\012\012! Attention: this file is under copyright !\012\012(c)onclassical, (c)degiusti, 2010\012___________________________________________________\012\012NO ONE MAY REPUBLISH THIS FILE WITHOUT PERMISSION\012COMMERCIAL USES OF THIS FILE IS STRICTLY PROHIBITED\012___________________________________________________\012\012Files & contributor's list: http://kunstderfuge.com/\012Terms and conditions: http://kunstderfuge.com/notes.htm"
10, 1, End_track
0, 0, End_of_file