0, 0, Header, 1, 7, 192
1, 0, Start_track
1, 0, Title_t, "Preludium und Fuge C-Dur bwv846"
1, 0, Text_t, "By Johann Sebastian Bach"
1, 0, Copyright_t, "Copyright \251 2006 HarfeSoft (Harm Fesefeldt Software)"
1, 0, Copyright_t, "All Rights Reserved"
1, 0, Text_t, "Generated by NoteWorthy Composer"
1, 0, Tempo, 535714
1, 0, Time_signature, 4, 2, 24, 8
1, 4608, Tempo, 545454
1, 4992, Tempo, 555555
1, 5376, Tempo, 535714
1, 6144, Tempo, 545454
1, 6528, Tempo, 555555
1, 9984, Tempo, 545454
1, 10752, Tempo, 535714
1, 11520, Tempo, 545454
1, 12288, Tempo, 555555
1, 15360, Tempo, 545454
1, 16128, Tempo, 535714
1, 16896, Tempo, 545454
1, 17664, Tempo, 555555
1, 19968, Tempo, 545454
1, 21504, Tempo, 535714
1, 24576, Tempo, 545454
1, 25344, Tempo, 555555
1, 26112, Tempo, 545454
1, 26496, Tempo, 571428
1, 26880, Tempo, 631578
1, 27072, Tempo, 705882
1, 27264, Tempo, 800000
1, 27456, Tempo, 923076
1, 27552, Tempo, 1090909
1, 27648, Tempo, 600000
1, 29184, Tempo, 1000000
1, 38400, Tempo, 1034482
1, 38784, Tempo, 1071428
1, 38976, Tempo, 1111111
1, 39360, Tempo, 1000000
1, 43008, Tempo, 1034482
1, 43200, Tempo, 1071428
1, 43392, Tempo, 1111111
1, 43584, Tempo, 1000000
1, 47616, Tempo, 1034482
1, 48000, Tempo, 1071428
1, 48384, Tempo, 1111111
1, 48768, Tempo, 1200000
1, 48960, Tempo, 1250000
1, 49152, Tempo, 1333333
1, 49344, Tempo, 1500000
1, 49440, Tempo, 1714285
1, 49536, Tempo, 2000000
1, 49920, Tempo, 600000
1, 49920, End_track
2, 0, Start_track
2, 0, MIDI_port, 0
2, 0, Title_t, "Staff"
2, 0, Program_c, 0, 0
2, 0, Control_c, 0, 7, 127
2, 0, Control_c, 0, 10, 90
2, 864, Note_on_c, 0, 67, 60
2, 910, Note_on_c, 0, 67, 0
2, 912, Note_on_c, 0, 72, 60
2, 958, Note_on_c, 0, 72, 0
2, 960, Note_on_c, 0, 76, 60
2, 1006, Note_on_c, 0, 76, 0
2, 1008, Note_on_c, 0, 67, 60
2, 1054, Note_on_c, 0, 67, 0
2, 1056, Note_on_c, 0, 72, 60
2, 1102, Note_on_c, 0, 72, 0
2, 1104, Note_on_c, 0, 76, 60
2, 1150, Note_on_c, 0, 76, 0
2, 1248, Note_on_c, 0, 67, 60
2, 1294, Note_on_c, 0, 67, 0
2, 1296, Note_on_c, 0, 72, 60
2, 1342, Note_on_c, 0, 72, 0
2, 1344, Note_on_c, 0, 76, 60
2, 1390, Note_on_c, 0, 76, 0
2, 1392, Note_on_c, 0, 67, 60
2, 1438, Note_on_c, 0, 67, 0
2, 1440, Note_on_c, 0, 72, 60
2, 1486, Note_on_c, 0, 72, 0
2, 1488, Note_on_c, 0, 76, 60
2, 1534, Note_on_c, 0, 76, 0
2, 1632, Note_on_c, 0, 69, 60
2, 1678, Note_on_c, 0, 69, 0
2, 1680, Note_on_c, 0, 74, 60
2, 1726, Note_on_c, 0, 74, 0
2, 1728, Note_on_c, 0, 77, 60
2, 1774, Note_on_c, 0, 77, 0
2, 1776, Note_on_c, 0, 69, 60
2, 1822, Note_on_c, 0, 69, 0
2, 1824, Note_on_c, 0, 74, 60
2, 1870, Note_on_c, 0, 74, 0
2, 1872, Note_on_c, 0, 77, 60
2, 1918, Note_on_c, 0, 77, 0
2, 2016, Note_on_c, 0, 69, 60
2, 2062, Note_on_c, 0, 69, 0
2, 2064, Note_on_c, 0, 74, 60
2, 2110, Note_on_c, 0, 74, 0
2, 2112, Note_on_c, 0, 77, 60
2, 2158, Note_on_c, 0, 77, 0
2, 2160, Note_on_c, 0, 69, 60
2, 2206, Note_on_c, 0, 69, 0
2, 2208, Note_on_c, 0, 74, 60
2, 2254, Note_on_c, 0, 74, 0
2, 2256, Note_on_c, 0, 77, 60
2, 2302, Note_on_c, 0, 77, 0
2, 2400, Note_on_c, 0, 67, 60
2, 2446, Note_on_c, 0, 67, 0
2, 2448, Note_on_c, 0, 74, 61
2, 2494, Note_on_c, 0, 74, 0
2, 2496, Note_on_c, 0, 77, 61
2, 2542, Note_on_c, 0, 77, 0
2, 2544, Note_on_c, 0, 67, 62
2, 2590, Note_on_c, 0, 67, 0
2, 2592, Note_on_c, 0, 74, 63
2, 2638, Note_on_c, 0, 74, 0
2, 2640, Note_on_c, 0, 77, 64
2, 2686, Note_on_c, 0, 77, 0
2, 2784, Note_on_c, 0, 67, 67
2, 2830, Note_on_c, 0, 67, 0
2, 2832, Note_on_c, 0, 74, 68
2, 2878, Note_on_c, 0, 74, 0
2, 2880, Note_on_c, 0, 77, 69
2, 2926, Note_on_c, 0, 77, 0
2, 2928, Note_on_c, 0, 67, 70
2, 2974, Note_on_c, 0, 67, 0
2, 2976, Note_on_c, 0, 74, 71
2, 3022, Note_on_c, 0, 74, 0
2, 3024, Note_on_c, 0, 77, 72
2, 3070, Note_on_c, 0, 77, 0
2, 3168, Note_on_c, 0, 67, 75
2, 3214, Note_on_c, 0, 67, 0
2, 3216, Note_on_c, 0, 72, 76
2, 3262, Note_on_c, 0, 72, 0
2, 3264, Note_on_c, 0, 76, 77
2, 3310, Note_on_c, 0, 76, 0
2, 3312, Note_on_c, 0, 67, 78
2, 3358, Note_on_c, 0, 67, 0
2, 3360, Note_on_c, 0, 72, 79
2, 3406, Note_on_c, 0, 72, 0
2, 3408, Note_on_c, 0, 76, 80
2, 3454, Note_on_c, 0, 76, 0
2, 3552, Note_on_c, 0, 67, 83
2, 3598, Note_on_c, 0, 67, 0
2, 3600, Note_on_c, 0, 72, 84
2, 3646, Note_on_c, 0, 72, 0
2, 3648, Note_on_c, 0, 76, 85
2, 3694, Note_on_c, 0, 76, 0
2, 3696, Note_on_c, 0, 67, 86
2, 3742, Note_on_c, 0, 67, 0
2, 3744, Note_on_c, 0, 72, 87
2, 3790, Note_on_c, 0, 72, 0
2, 3792, Note_on_c, 0, 76, 88
2, 3838, Note_on_c, 0, 76, 0
2, 3936, Note_on_c, 0, 69, 92
2, 3982, Note_on_c, 0, 69, 0
2, 3984, Note_on_c, 0, 76, 92
2, 4030, Note_on_c, 0, 76, 0
2, 4032, Note_on_c, 0, 81, 92
2, 4078, Note_on_c, 0, 81, 0
2, 4080, Note_on_c, 0, 69, 92
2, 4126, Note_on_c, 0, 69, 0
2, 4128, Note_on_c, 0, 76, 92
2, 4174, Note_on_c, 0, 76, 0
2, 4176, Note_on_c, 0, 81, 92
2, 4222, Note_on_c, 0, 81, 0
2, 4320, Note_on_c, 0, 69, 75
2, 4366, Note_on_c, 0, 69, 0
2, 4368, Note_on_c, 0, 76, 75
2, 4414, Note_on_c, 0, 76, 0
2, 4416, Note_on_c, 0, 81, 75
2, 4462, Note_on_c, 0, 81, 0
2, 4464, Note_on_c, 0, 69, 75
2, 4510, Note_on_c, 0, 69, 0
2, 4512, Note_on_c, 0, 76, 75
2, 4558, Note_on_c, 0, 76, 0
2, 4560, Note_on_c, 0, 81, 75
2, 4606, Note_on_c, 0, 81, 0
2, 4704, Note_on_c, 0, 66, 60
2, 4750, Note_on_c, 0, 66, 0
2, 4752, Note_on_c, 0, 69, 60
2, 4798, Note_on_c, 0, 69, 0
2, 4800, Note_on_c, 0, 74, 60
2, 4846, Note_on_c, 0, 74, 0
2, 4848, Note_on_c, 0, 66, 60
2, 4894, Note_on_c, 0, 66, 0
2, 4896, Note_on_c, 0, 69, 60
2, 4942, Note_on_c, 0, 69, 0
2, 4944, Note_on_c, 0, 74, 60
2, 4990, Note_on_c, 0, 74, 0
2, 5088, Note_on_c, 0, 66, 75
2, 5134, Note_on_c, 0, 66, 0
2, 5136, Note_on_c, 0, 69, 75
2, 5182, Note_on_c, 0, 69, 0
2, 5184, Note_on_c, 0, 74, 75
2, 5230, Note_on_c, 0, 74, 0
2, 5232, Note_on_c, 0, 66, 75
2, 5278, Note_on_c, 0, 66, 0
2, 5280, Note_on_c, 0, 69, 75
2, 5326, Note_on_c, 0, 69, 0
2, 5328, Note_on_c, 0, 74, 75
2, 5374, Note_on_c, 0, 74, 0
2, 5472, Note_on_c, 0, 67, 92
2, 5518, Note_on_c, 0, 67, 0
2, 5520, Note_on_c, 0, 74, 92
2, 5566, Note_on_c, 0, 74, 0
2, 5568, Note_on_c, 0, 79, 92
2, 5614, Note_on_c, 0, 79, 0
2, 5616, Note_on_c, 0, 67, 92
2, 5662, Note_on_c, 0, 67, 0
2, 5664, Note_on_c, 0, 74, 92
2, 5710, Note_on_c, 0, 74, 0
2, 5712, Note_on_c, 0, 79, 92
2, 5758, Note_on_c, 0, 79, 0
2, 5856, Note_on_c, 0, 67, 75
2, 5902, Note_on_c, 0, 67, 0
2, 5904, Note_on_c, 0, 74, 75
2, 5950, Note_on_c, 0, 74, 0
2, 5952, Note_on_c, 0, 79, 75
2, 5998, Note_on_c, 0, 79, 0
2, 6000, Note_on_c, 0, 67, 75
2, 6046, Note_on_c, 0, 67, 0
2, 6048, Note_on_c, 0, 74, 75
2, 6094, Note_on_c, 0, 74, 0
2, 6096, Note_on_c, 0, 79, 75
2, 6142, Note_on_c, 0, 79, 0
2, 6240, Note_on_c, 0, 64, 60
2, 6286, Note_on_c, 0, 64, 0
2, 6288, Note_on_c, 0, 67, 60
2, 6334, Note_on_c, 0, 67, 0
2, 6336, Note_on_c, 0, 72, 60
2, 6382, Note_on_c, 0, 72, 0
2, 6384, Note_on_c, 0, 64, 60
2, 6430, Note_on_c, 0, 64, 0
2, 6432, Note_on_c, 0, 67, 60
2, 6478, Note_on_c, 0, 67, 0
2, 6480, Note_on_c, 0, 72, 60
2, 6526, Note_on_c, 0, 72, 0
2, 6624, Note_on_c, 0, 64, 60
2, 6670, Note_on_c, 0, 64, 0
2, 6672, Note_on_c, 0, 67, 59
2, 6718, Note_on_c, 0, 67, 0
2, 6720, Note_on_c, 0, 72, 57
2, 6766, Note_on_c, 0, 72, 0
2, 6768, Note_on_c, 0, 64, 55
2, 6814, Note_on_c, 0, 64, 0
2, 6816, Note_on_c, 0, 67, 53
2, 6862, Note_on_c, 0, 67, 0
2, 6864, Note_on_c, 0, 72, 51
2, 6910, Note_on_c, 0, 72, 0
2, 7008, Note_on_c, 0, 64, 45
2, 7054, Note_on_c, 0, 64, 0
2, 7056, Note_on_c, 0, 67, 45
2, 7102, Note_on_c, 0, 67, 0
2, 7104, Note_on_c, 0, 72, 45
2, 7150, Note_on_c, 0, 72, 0
2, 7152, Note_on_c, 0, 64, 45
2, 7198, Note_on_c, 0, 64, 0
2, 7200, Note_on_c, 0, 67, 45
2, 7246, Note_on_c, 0, 67, 0
2, 7248, Note_on_c, 0, 72, 45
2, 7294, Note_on_c, 0, 72, 0
2, 7392, Note_on_c, 0, 64, 45
2, 7438, Note_on_c, 0, 64, 0
2, 7440, Note_on_c, 0, 67, 45
2, 7486, Note_on_c, 0, 67, 0
2, 7488, Note_on_c, 0, 72, 45
2, 7534, Note_on_c, 0, 72, 0
2, 7536, Note_on_c, 0, 64, 45
2, 7582, Note_on_c, 0, 64, 0
2, 7584, Note_on_c, 0, 67, 45
2, 7630, Note_on_c, 0, 67, 0
2, 7632, Note_on_c, 0, 72, 45
2, 7678, Note_on_c, 0, 72, 0
2, 7776, Note_on_c, 0, 62, 45
2, 7822, Note_on_c, 0, 62, 0
2, 7824, Note_on_c, 0, 66, 45
2, 7870, Note_on_c, 0, 66, 0
2, 7872, Note_on_c, 0, 72, 45
2, 7918, Note_on_c, 0, 72, 0
2, 7920, Note_on_c, 0, 62, 45
2, 7966, Note_on_c, 0, 62, 0
2, 7968, Note_on_c, 0, 66, 45
2, 8014, Note_on_c, 0, 66, 0
2, 8016, Note_on_c, 0, 72, 45
2, 8062, Note_on_c, 0, 72, 0
2, 8160, Note_on_c, 0, 62, 45
2, 8206, Note_on_c, 0, 62, 0
2, 8208, Note_on_c, 0, 66, 45
2, 8254, Note_on_c, 0, 66, 0
2, 8256, Note_on_c, 0, 72, 45
2, 8302, Note_on_c, 0, 72, 0
2, 8304, Note_on_c, 0, 62, 45
2, 8350, Note_on_c, 0, 62, 0
2, 8352, Note_on_c, 0, 66, 45
2, 8398, Note_on_c, 0, 66, 0
2, 8400, Note_on_c, 0, 72, 45
2, 8446, Note_on_c, 0, 72, 0
2, 8544, Note_on_c, 0, 62, 45
2, 8590, Note_on_c, 0, 62, 0
2, 8592, Note_on_c, 0, 67, 45
2, 8638, Note_on_c, 0, 67, 0
2, 8640, Note_on_c, 0, 71, 45
2, 8686, Note_on_c, 0, 71, 0
2, 8688, Note_on_c, 0, 62, 45
2, 8734, Note_on_c, 0, 62, 0
2, 8736, Note_on_c, 0, 67, 45
2, 8782, Note_on_c, 0, 67, 0
2, 8784, Note_on_c, 0, 71, 45
2, 8830, Note_on_c, 0, 71, 0
2, 8928, Note_on_c, 0, 62, 45
2, 8974, Note_on_c, 0, 62, 0
2, 8976, Note_on_c, 0, 67, 46
2, 9022, Note_on_c, 0, 67, 0
2, 9024, Note_on_c, 0, 71, 47
2, 9070, Note_on_c, 0, 71, 0
2, 9072, Note_on_c, 0, 62, 48
2, 9118, Note_on_c, 0, 62, 0
2, 9120, Note_on_c, 0, 67, 49
2, 9166, Note_on_c, 0, 67, 0
2, 9168, Note_on_c, 0, 71, 50
2, 9214, Note_on_c, 0, 71, 0
2, 9312, Note_on_c, 0, 64, 53
2, 9358, Note_on_c, 0, 64, 0
2, 9360, Note_on_c, 0, 67, 54
2, 9406, Note_on_c, 0, 67, 0
2, 9408, Note_on_c, 0, 73, 55
2, 9454, Note_on_c, 0, 73, 0
2, 9456, Note_on_c, 0, 64, 56
2, 9502, Note_on_c, 0, 64, 0
2, 9504, Note_on_c, 0, 67, 57
2, 9550, Note_on_c, 0, 67, 0
2, 9552, Note_on_c, 0, 73, 58
2, 9598, Note_on_c, 0, 73, 0
2, 9696, Note_on_c, 0, 64, 61
2, 9742, Note_on_c, 0, 64, 0
2, 9744, Note_on_c, 0, 67, 62
2, 9790, Note_on_c, 0, 67, 0
2, 9792, Note_on_c, 0, 73, 63
2, 9838, Note_on_c, 0, 73, 0
2, 9840, Note_on_c, 0, 64, 64
2, 9886, Note_on_c, 0, 64, 0
2, 9888, Note_on_c, 0, 67, 65
2, 9934, Note_on_c, 0, 67, 0
2, 9936, Note_on_c, 0, 73, 66
2, 9982, Note_on_c, 0, 73, 0
2, 10080, Note_on_c, 0, 62, 69
2, 10126, Note_on_c, 0, 62, 0
2, 10128, Note_on_c, 0, 69, 70
2, 10174, Note_on_c, 0, 69, 0
2, 10176, Note_on_c, 0, 74, 71
2, 10222, Note_on_c, 0, 74, 0
2, 10224, Note_on_c, 0, 62, 72
2, 10270, Note_on_c, 0, 62, 0
2, 10272, Note_on_c, 0, 69, 73
2, 10318, Note_on_c, 0, 69, 0
2, 10320, Note_on_c, 0, 74, 74
2, 10366, Note_on_c, 0, 74, 0
2, 10464, Note_on_c, 0, 62, 78
2, 10510, Note_on_c, 0, 62, 0
2, 10512, Note_on_c, 0, 69, 79
2, 10558, Note_on_c, 0, 69, 0
2, 10560, Note_on_c, 0, 74, 80
2, 10606, Note_on_c, 0, 74, 0
2, 10608, Note_on_c, 0, 62, 82
2, 10654, Note_on_c, 0, 62, 0
2, 10656, Note_on_c, 0, 69, 84
2, 10702, Note_on_c, 0, 69, 0
2, 10704, Note_on_c, 0, 74, 86
2, 10750, Note_on_c, 0, 74, 0
2, 10848, Note_on_c, 0, 62, 92
2, 10894, Note_on_c, 0, 62, 0
2, 10896, Note_on_c, 0, 65, 92
2, 10942, Note_on_c, 0, 65, 0
2, 10944, Note_on_c, 0, 71, 92
2, 10990, Note_on_c, 0, 71, 0
2, 10992, Note_on_c, 0, 62, 92
2, 11038, Note_on_c, 0, 62, 0
2, 11040, Note_on_c, 0, 65, 92
2, 11086, Note_on_c, 0, 65, 0
2, 11088, Note_on_c, 0, 71, 92
2, 11134, Note_on_c, 0, 71, 0
2, 11232, Note_on_c, 0, 62, 92
2, 11278, Note_on_c, 0, 62, 0
2, 11280, Note_on_c, 0, 65, 91
2, 11326, Note_on_c, 0, 65, 0
2, 11328, Note_on_c, 0, 71, 90
2, 11374, Note_on_c, 0, 71, 0
2, 11376, Note_on_c, 0, 62, 89
2, 11422, Note_on_c, 0, 62, 0
2, 11424, Note_on_c, 0, 65, 88
2, 11470, Note_on_c, 0, 65, 0
2, 11472, Note_on_c, 0, 71, 87
2, 11518, Note_on_c, 0, 71, 0
2, 11616, Note_on_c, 0, 60, 84
2, 11662, Note_on_c, 0, 60, 0
2, 11664, Note_on_c, 0, 67, 83
2, 11710, Note_on_c, 0, 67, 0
2, 11712, Note_on_c, 0, 72, 82
2, 11758, Note_on_c, 0, 72, 0
2, 11760, Note_on_c, 0, 60, 81
2, 11806, Note_on_c, 0, 60, 0
2, 11808, Note_on_c, 0, 67, 80
2, 11854, Note_on_c, 0, 67, 0
2, 11856, Note_on_c, 0, 72, 79
2, 11902, Note_on_c, 0, 72, 0
2, 12000, Note_on_c, 0, 60, 75
2, 12046, Note_on_c, 0, 60, 0
2, 12048, Note_on_c, 0, 67, 74
2, 12094, Note_on_c, 0, 67, 0
2, 12096, Note_on_c, 0, 72, 72
2, 12142, Note_on_c, 0, 72, 0
2, 12144, Note_on_c, 0, 60, 70
2, 12190, Note_on_c, 0, 60, 0
2, 12192, Note_on_c, 0, 67, 68
2, 12238, Note_on_c, 0, 67, 0
2, 12240, Note_on_c, 0, 72, 66
2, 12286, Note_on_c, 0, 72, 0
2, 12384, Note_on_c, 0, 57, 60
2, 12430, Note_on_c, 0, 57, 0
2, 12432, Note_on_c, 0, 60, 60
2, 12478, Note_on_c, 0, 60, 0
2, 12480, Note_on_c, 0, 65, 60
2, 12526, Note_on_c, 0, 65, 0
2, 12528, Note_on_c, 0, 57, 60
2, 12574, Note_on_c, 0, 57, 0
2, 12576, Note_on_c, 0, 60, 60
2, 12622, Note_on_c, 0, 60, 0
2, 12624, Note_on_c, 0, 65, 60
2, 12670, Note_on_c, 0, 65, 0
2, 12768, Note_on_c, 0, 57, 60
2, 12814, Note_on_c, 0, 57, 0
2, 12816, Note_on_c, 0, 60, 60
2, 12862, Note_on_c, 0, 60, 0
2, 12864, Note_on_c, 0, 65, 60
2, 12910, Note_on_c, 0, 65, 0
2, 12912, Note_on_c, 0, 57, 60
2, 12958, Note_on_c, 0, 57, 0
2, 12960, Note_on_c, 0, 60, 60
2, 13006, Note_on_c, 0, 60, 0
2, 13008, Note_on_c, 0, 65, 60
2, 13054, Note_on_c, 0, 65, 0
2, 13152, Note_on_c, 0, 57, 60
2, 13198, Note_on_c, 0, 57, 0
2, 13200, Note_on_c, 0, 60, 60
2, 13246, Note_on_c, 0, 60, 0
2, 13248, Note_on_c, 0, 65, 60
2, 13294, Note_on_c, 0, 65, 0
2, 13296, Note_on_c, 0, 57, 60
2, 13342, Note_on_c, 0, 57, 0
2, 13344, Note_on_c, 0, 60, 60
2, 13390, Note_on_c, 0, 60, 0
2, 13392, Note_on_c, 0, 65, 60
2, 13438, Note_on_c, 0, 65, 0
2, 13536, Note_on_c, 0, 57, 60
2, 13582, Note_on_c, 0, 57, 0
2, 13584, Note_on_c, 0, 60, 60
2, 13630, Note_on_c, 0, 60, 0
2, 13632, Note_on_c, 0, 65, 60
2, 13678, Note_on_c, 0, 65, 0
2, 13680, Note_on_c, 0, 57, 60
2, 13726, Note_on_c, 0, 57, 0
2, 13728, Note_on_c, 0, 60, 60
2, 13774, Note_on_c, 0, 60, 0
2, 13776, Note_on_c, 0, 65, 60
2, 13822, Note_on_c, 0, 65, 0
2, 13920, Note_on_c, 0, 55, 45
2, 13966, Note_on_c, 0, 55, 0
2, 13968, Note_on_c, 0, 59, 45
2, 14014, Note_on_c, 0, 59, 0
2, 14016, Note_on_c, 0, 65, 45
2, 14062, Note_on_c, 0, 65, 0
2, 14064, Note_on_c, 0, 55, 45
2, 14110, Note_on_c, 0, 55, 0
2, 14112, Note_on_c, 0, 59, 45
2, 14158, Note_on_c, 0, 59, 0
2, 14160, Note_on_c, 0, 65, 45
2, 14206, Note_on_c, 0, 65, 0
2, 14304, Note_on_c, 0, 55, 45
2, 14350, Note_on_c, 0, 55, 0
2, 14352, Note_on_c, 0, 59, 45
2, 14398, Note_on_c, 0, 59, 0
2, 14400, Note_on_c, 0, 65, 45
2, 14446, Note_on_c, 0, 65, 0
2, 14448, Note_on_c, 0, 55, 45
2, 14494, Note_on_c, 0, 55, 0
2, 14496, Note_on_c, 0, 59, 45
2, 14542, Note_on_c, 0, 59, 0
2, 14544, Note_on_c, 0, 65, 45
2, 14590, Note_on_c, 0, 65, 0
2, 14688, Note_on_c, 0, 55, 45
2, 14734, Note_on_c, 0, 55, 0
2, 14736, Note_on_c, 0, 60, 45
2, 14782, Note_on_c, 0, 60, 0
2, 14784, Note_on_c, 0, 64, 45
2, 14830, Note_on_c, 0, 64, 0
2, 14832, Note_on_c, 0, 55, 45
2, 14878, Note_on_c, 0, 55, 0
2, 14880, Note_on_c, 0, 60, 45
2, 14926, Note_on_c, 0, 60, 0
2, 14928, Note_on_c, 0, 64, 45
2, 14974, Note_on_c, 0, 64, 0
2, 15072, Note_on_c, 0, 55, 45
2, 15118, Note_on_c, 0, 55, 0
2, 15120, Note_on_c, 0, 60, 46
2, 15166, Note_on_c, 0, 60, 0
2, 15168, Note_on_c, 0, 64, 47
2, 15214, Note_on_c, 0, 64, 0
2, 15216, Note_on_c, 0, 55, 48
2, 15262, Note_on_c, 0, 55, 0
2, 15264, Note_on_c, 0, 60, 49
2, 15310, Note_on_c, 0, 60, 0
2, 15312, Note_on_c, 0, 64, 50
2, 15358, Note_on_c, 0, 64, 0
2, 15456, Note_on_c, 0, 58, 53
2, 15502, Note_on_c, 0, 58, 0
2, 15504, Note_on_c, 0, 60, 54
2, 15550, Note_on_c, 0, 60, 0
2, 15552, Note_on_c, 0, 64, 55
2, 15598, Note_on_c, 0, 64, 0
2, 15600, Note_on_c, 0, 58, 56
2, 15646, Note_on_c, 0, 58, 0
2, 15648, Note_on_c, 0, 60, 57
2, 15694, Note_on_c, 0, 60, 0
2, 15696, Note_on_c, 0, 64, 58
2, 15742, Note_on_c, 0, 64, 0
2, 15840, Note_on_c, 0, 58, 62
2, 15886, Note_on_c, 0, 58, 0
2, 15888, Note_on_c, 0, 60, 63
2, 15934, Note_on_c, 0, 60, 0
2, 15936, Note_on_c, 0, 64, 64
2, 15982, Note_on_c, 0, 64, 0
2, 15984, Note_on_c, 0, 58, 65
2, 16030, Note_on_c, 0, 58, 0
2, 16032, Note_on_c, 0, 60, 67
2, 16078, Note_on_c, 0, 60, 0
2, 16080, Note_on_c, 0, 64, 69
2, 16126, Note_on_c, 0, 64, 0
2, 16224, Note_on_c, 0, 57, 75
2, 16270, Note_on_c, 0, 57, 0
2, 16272, Note_on_c, 0, 60, 75
2, 16318, Note_on_c, 0, 60, 0
2, 16320, Note_on_c, 0, 64, 75
2, 16366, Note_on_c, 0, 64, 0
2, 16368, Note_on_c, 0, 57, 75
2, 16414, Note_on_c, 0, 57, 0
2, 16416, Note_on_c, 0, 60, 75
2, 16462, Note_on_c, 0, 60, 0
2, 16464, Note_on_c, 0, 64, 75
2, 16510, Note_on_c, 0, 64, 0
2, 16608, Note_on_c, 0, 57, 75
2, 16654, Note_on_c, 0, 57, 0
2, 16656, Note_on_c, 0, 60, 74
2, 16702, Note_on_c, 0, 60, 0
2, 16704, Note_on_c, 0, 64, 73
2, 16750, Note_on_c, 0, 64, 0
2, 16752, Note_on_c, 0, 57, 72
2, 16798, Note_on_c, 0, 57, 0
2, 16800, Note_on_c, 0, 60, 71
2, 16846, Note_on_c, 0, 60, 0
2, 16848, Note_on_c, 0, 64, 70
2, 16894, Note_on_c, 0, 64, 0
2, 16992, Note_on_c, 0, 57, 67
2, 17038, Note_on_c, 0, 57, 0
2, 17040, Note_on_c, 0, 60, 66
2, 17086, Note_on_c, 0, 60, 0
2, 17088, Note_on_c, 0, 63, 65
2, 17134, Note_on_c, 0, 63, 0
2, 17136, Note_on_c, 0, 57, 64
2, 17182, Note_on_c, 0, 57, 0
2, 17184, Note_on_c, 0, 60, 63
2, 17230, Note_on_c, 0, 60, 0
2, 17232, Note_on_c, 0, 63, 62
2, 17278, Note_on_c, 0, 63, 0
2, 17376, Note_on_c, 0, 57, 58
2, 17422, Note_on_c, 0, 57, 0
2, 17424, Note_on_c, 0, 60, 57
2, 17470, Note_on_c, 0, 60, 0
2, 17472, Note_on_c, 0, 63, 56
2, 17518, Note_on_c, 0, 63, 0
2, 17520, Note_on_c, 0, 57, 55
2, 17566, Note_on_c, 0, 57, 0
2, 17568, Note_on_c, 0, 60, 53
2, 17614, Note_on_c, 0, 60, 0
2, 17616, Note_on_c, 0, 63, 51
2, 17662, Note_on_c, 0, 63, 0
2, 17760, Note_on_c, 0, 59, 45
2, 17806, Note_on_c, 0, 59, 0
2, 17808, Note_on_c, 0, 60, 45
2, 17854, Note_on_c, 0, 60, 0
2, 17856, Note_on_c, 0, 63, 45
2, 17902, Note_on_c, 0, 63, 0
2, 17904, Note_on_c, 0, 59, 45
2, 17950, Note_on_c, 0, 59, 0
2, 17952, Note_on_c, 0, 60, 45
2, 17998, Note_on_c, 0, 60, 0
2, 18000, Note_on_c, 0, 63, 45
2, 18046, Note_on_c, 0, 63, 0
2, 18144, Note_on_c, 0, 59, 45
2, 18190, Note_on_c, 0, 59, 0
2, 18192, Note_on_c, 0, 60, 45
2, 18238, Note_on_c, 0, 60, 0
2, 18240, Note_on_c, 0, 63, 45
2, 18286, Note_on_c, 0, 63, 0
2, 18288, Note_on_c, 0, 59, 45
2, 18334, Note_on_c, 0, 59, 0
2, 18336, Note_on_c, 0, 60, 45
2, 18382, Note_on_c, 0, 60, 0
2, 18384, Note_on_c, 0, 63, 45
2, 18430, Note_on_c, 0, 63, 0
2, 18528, Note_on_c, 0, 59, 45
2, 18574, Note_on_c, 0, 59, 0
2, 18576, Note_on_c, 0, 60, 45
2, 18622, Note_on_c, 0, 60, 0
2, 18624, Note_on_c, 0, 62, 45
2, 18670, Note_on_c, 0, 62, 0
2, 18672, Note_on_c, 0, 59, 45
2, 18718, Note_on_c, 0, 59, 0
2, 18720, Note_on_c, 0, 60, 45
2, 18766, Note_on_c, 0, 60, 0
2, 18768, Note_on_c, 0, 62, 45
2, 18814, Note_on_c, 0, 62, 0
2, 18912, Note_on_c, 0, 59, 45
2, 18958, Note_on_c, 0, 59, 0
2, 18960, Note_on_c, 0, 60, 45
2, 19006, Note_on_c, 0, 60, 0
2, 19008, Note_on_c, 0, 62, 45
2, 19054, Note_on_c, 0, 62, 0
2, 19056, Note_on_c, 0, 59, 45
2, 19102, Note_on_c, 0, 59, 0
2, 19104, Note_on_c, 0, 60, 45
2, 19150, Note_on_c, 0, 60, 0
2, 19152, Note_on_c, 0, 62, 45
2, 19198, Note_on_c, 0, 62, 0
2, 19296, Note_on_c, 0, 55, 45
2, 19342, Note_on_c, 0, 55, 0
2, 19344, Note_on_c, 0, 59, 45
2, 19390, Note_on_c, 0, 59, 0
2, 19392, Note_on_c, 0, 62, 45
2, 19438, Note_on_c, 0, 62, 0
2, 19440, Note_on_c, 0, 55, 45
2, 19486, Note_on_c, 0, 55, 0
2, 19488, Note_on_c, 0, 59, 45
2, 19534, Note_on_c, 0, 59, 0
2, 19536, Note_on_c, 0, 62, 45
2, 19582, Note_on_c, 0, 62, 0
2, 19680, Note_on_c, 0, 55, 46
2, 19726, Note_on_c, 0, 55, 0
2, 19728, Note_on_c, 0, 59, 46
2, 19774, Note_on_c, 0, 59, 0
2, 19776, Note_on_c, 0, 62, 46
2, 19822, Note_on_c, 0, 62, 0
2, 19824, Note_on_c, 0, 55, 46
2, 19870, Note_on_c, 0, 55, 0
2, 19872, Note_on_c, 0, 59, 46
2, 19918, Note_on_c, 0, 59, 0
2, 19920, Note_on_c, 0, 62, 46
2, 19966, Note_on_c, 0, 62, 0
2, 20064, Note_on_c, 0, 55, 47
2, 20110, Note_on_c, 0, 55, 0
2, 20112, Note_on_c, 0, 60, 47
2, 20158, Note_on_c, 0, 60, 0
2, 20160, Note_on_c, 0, 64, 47
2, 20206, Note_on_c, 0, 64, 0
2, 20208, Note_on_c, 0, 55, 47
2, 20254, Note_on_c, 0, 55, 0
2, 20256, Note_on_c, 0, 60, 47
2, 20302, Note_on_c, 0, 60, 0
2, 20304, Note_on_c, 0, 64, 47
2, 20350, Note_on_c, 0, 64, 0
2, 20448, Note_on_c, 0, 55, 48
2, 20494, Note_on_c, 0, 55, 0
2, 20496, Note_on_c, 0, 60, 48
2, 20542, Note_on_c, 0, 60, 0
2, 20544, Note_on_c, 0, 64, 48
2, 20590, Note_on_c, 0, 64, 0
2, 20592, Note_on_c, 0, 55, 48
2, 20638, Note_on_c, 0, 55, 0
2, 20640, Note_on_c, 0, 60, 48
2, 20686, Note_on_c, 0, 60, 0
2, 20688, Note_on_c, 0, 64, 48
2, 20734, Note_on_c, 0, 64, 0
2, 20832, Note_on_c, 0, 55, 49
2, 20878, Note_on_c, 0, 55, 0
2, 20880, Note_on_c, 0, 60, 49
2, 20926, Note_on_c, 0, 60, 0
2, 20928, Note_on_c, 0, 65, 49
2, 20974, Note_on_c, 0, 65, 0
2, 20976, Note_on_c, 0, 55, 49
2, 21022, Note_on_c, 0, 55, 0
2, 21024, Note_on_c, 0, 60, 49
2, 21070, Note_on_c, 0, 60, 0
2, 21072, Note_on_c, 0, 65, 49
2, 21118, Note_on_c, 0, 65, 0
2, 21216, Note_on_c, 0, 55, 51
2, 21262, Note_on_c, 0, 55, 0
2, 21264, Note_on_c, 0, 60, 52
2, 21310, Note_on_c, 0, 60, 0
2, 21312, Note_on_c, 0, 65, 53
2, 21358, Note_on_c, 0, 65, 0
2, 21360, Note_on_c, 0, 55, 54
2, 21406, Note_on_c, 0, 55, 0
2, 21408, Note_on_c, 0, 60, 55
2, 21454, Note_on_c, 0, 60, 0
2, 21456, Note_on_c, 0, 65, 56
2, 21502, Note_on_c, 0, 65, 0
2, 21600, Note_on_c, 0, 55, 59
2, 21646, Note_on_c, 0, 55, 0
2, 21648, Note_on_c, 0, 59, 60
2, 21694, Note_on_c, 0, 59, 0
2, 21696, Note_on_c, 0, 65, 61
2, 21742, Note_on_c, 0, 65, 0
2, 21744, Note_on_c, 0, 55, 62
2, 21790, Note_on_c, 0, 55, 0
2, 21792, Note_on_c, 0, 59, 63
2, 21838, Note_on_c, 0, 59, 0
2, 21840, Note_on_c, 0, 65, 64
2, 21886, Note_on_c, 0, 65, 0
2, 21984, Note_on_c, 0, 55, 67
2, 22030, Note_on_c, 0, 55, 0
2, 22032, Note_on_c, 0, 59, 68
2, 22078, Note_on_c, 0, 59, 0
2, 22080, Note_on_c, 0, 65, 69
2, 22126, Note_on_c, 0, 65, 0
2, 22128, Note_on_c, 0, 55, 70
2, 22174, Note_on_c, 0, 55, 0
2, 22176, Note_on_c, 0, 59, 71
2, 22222, Note_on_c, 0, 59, 0
2, 22224, Note_on_c, 0, 65, 72
2, 22270, Note_on_c, 0, 65, 0
2, 22368, Note_on_c, 0, 57, 75
2, 22414, Note_on_c, 0, 57, 0
2, 22416, Note_on_c, 0, 60, 76
2, 22462, Note_on_c, 0, 60, 0
2, 22464, Note_on_c, 0, 66, 77
2, 22510, Note_on_c, 0, 66, 0
2, 22512, Note_on_c, 0, 57, 78
2, 22558, Note_on_c, 0, 57, 0
2, 22560, Note_on_c, 0, 60, 79
2, 22606, Note_on_c, 0, 60, 0
2, 22608, Note_on_c, 0, 66, 80
2, 22654, Note_on_c, 0, 66, 0
2, 22752, Note_on_c, 0, 57, 83
2, 22798, Note_on_c, 0, 57, 0
2, 22800, Note_on_c, 0, 60, 84
2, 22846, Note_on_c, 0, 60, 0
2, 22848, Note_on_c, 0, 66, 85
2, 22894, Note_on_c, 0, 66, 0
2, 22896, Note_on_c, 0, 57, 86
2, 22942, Note_on_c, 0, 57, 0
2, 22944, Note_on_c, 0, 60, 87
2, 22990, Note_on_c, 0, 60, 0
2, 22992, Note_on_c, 0, 66, 88
2, 23038, Note_on_c, 0, 66, 0
2, 23136, Note_on_c, 0, 55, 92
2, 23182, Note_on_c, 0, 55, 0
2, 23184, Note_on_c, 0, 60, 92
2, 23230, Note_on_c, 0, 60, 0
2, 23232, Note_on_c, 0, 67, 92
2, 23278, Note_on_c, 0, 67, 0
2, 23280, Note_on_c, 0, 55, 92
2, 23326, Note_on_c, 0, 55, 0
2, 23328, Note_on_c, 0, 60, 92
2, 23374, Note_on_c, 0, 60, 0
2, 23376, Note_on_c, 0, 67, 92
2, 23422, Note_on_c, 0, 67, 0
2, 23520, Note_on_c, 0, 55, 92
2, 23566, Note_on_c, 0, 55, 0
2, 23568, Note_on_c, 0, 60, 91
2, 23614, Note_on_c, 0, 60, 0
2, 23616, Note_on_c, 0, 67, 90
2, 23662, Note_on_c, 0, 67, 0
2, 23664, Note_on_c, 0, 55, 89
2, 23710, Note_on_c, 0, 55, 0
2, 23712, Note_on_c, 0, 60, 88
2, 23758, Note_on_c, 0, 60, 0
2, 23760, Note_on_c, 0, 67, 87
2, 23806, Note_on_c, 0, 67, 0
2, 23904, Note_on_c, 0, 55, 84
2, 23950, Note_on_c, 0, 55, 0
2, 23952, Note_on_c, 0, 60, 83
2, 23998, Note_on_c, 0, 60, 0
2, 24000, Note_on_c, 0, 65, 82
2, 24046, Note_on_c, 0, 65, 0
2, 24048, Note_on_c, 0, 55, 81
2, 24094, Note_on_c, 0, 55, 0
2, 24096, Note_on_c, 0, 60, 80
2, 24142, Note_on_c, 0, 60, 0
2, 24144, Note_on_c, 0, 65, 79
2, 24190, Note_on_c, 0, 65, 0
2, 24288, Note_on_c, 0, 55, 75
2, 24334, Note_on_c, 0, 55, 0
2, 24336, Note_on_c, 0, 60, 74
2, 24382, Note_on_c, 0, 60, 0
2, 24384, Note_on_c, 0, 65, 72
2, 24430, Note_on_c, 0, 65, 0
2, 24432, Note_on_c, 0, 55, 70
2, 24478, Note_on_c, 0, 55, 0
2, 24480, Note_on_c, 0, 60, 68
2, 24526, Note_on_c, 0, 60, 0
2, 24528, Note_on_c, 0, 65, 66
2, 24574, Note_on_c, 0, 65, 0
2, 24672, Note_on_c, 0, 55, 60
2, 24718, Note_on_c, 0, 55, 0
2, 24720, Note_on_c, 0, 59, 60
2, 24766, Note_on_c, 0, 59, 0
2, 24768, Note_on_c, 0, 65, 60
2, 24814, Note_on_c, 0, 65, 0
2, 24816, Note_on_c, 0, 55, 60
2, 24862, Note_on_c, 0, 55, 0
2, 24864, Note_on_c, 0, 59, 60
2, 24910, Note_on_c, 0, 59, 0
2, 24912, Note_on_c, 0, 65, 60
2, 24958, Note_on_c, 0, 65, 0
2, 25056, Note_on_c, 0, 55, 60
2, 25102, Note_on_c, 0, 55, 0
2, 25104, Note_on_c, 0, 59, 60
2, 25150, Note_on_c, 0, 59, 0
2, 25152, Note_on_c, 0, 65, 60
2, 25198, Note_on_c, 0, 65, 0
2, 25200, Note_on_c, 0, 55, 60
2, 25246, Note_on_c, 0, 55, 0
2, 25248, Note_on_c, 0, 59, 60
2, 25294, Note_on_c, 0, 59, 0
2, 25296, Note_on_c, 0, 65, 60
2, 25342, Note_on_c, 0, 65, 0
2, 25440, Note_on_c, 0, 55, 45
2, 25486, Note_on_c, 0, 55, 0
2, 25488, Note_on_c, 0, 58, 45
2, 25534, Note_on_c, 0, 58, 0
2, 25536, Note_on_c, 0, 64, 45
2, 25582, Note_on_c, 0, 64, 0
2, 25584, Note_on_c, 0, 55, 45
2, 25630, Note_on_c, 0, 55, 0
2, 25632, Note_on_c, 0, 58, 45
2, 25678, Note_on_c, 0, 58, 0
2, 25680, Note_on_c, 0, 64, 45
2, 25726, Note_on_c, 0, 64, 0
2, 25824, Note_on_c, 0, 55, 45
2, 25870, Note_on_c, 0, 55, 0
2, 25872, Note_on_c, 0, 58, 45
2, 25918, Note_on_c, 0, 58, 0
2, 25920, Note_on_c, 0, 64, 45
2, 25966, Note_on_c, 0, 64, 0
2, 25968, Note_on_c, 0, 55, 45
2, 26014, Note_on_c, 0, 55, 0
2, 26016, Note_on_c, 0, 58, 45
2, 26062, Note_on_c, 0, 58, 0
2, 26064, Note_on_c, 0, 64, 45
2, 26110, Note_on_c, 0, 64, 0
2, 26208, Note_on_c, 0, 53, 45
2, 26254, Note_on_c, 0, 53, 0
2, 26256, Note_on_c, 0, 57, 45
2, 26302, Note_on_c, 0, 57, 0
2, 26304, Note_on_c, 0, 60, 45
2, 26350, Note_on_c, 0, 60, 0
2, 26352, Note_on_c, 0, 65, 45
2, 26398, Note_on_c, 0, 65, 0
2, 26400, Note_on_c, 0, 60, 45
2, 26446, Note_on_c, 0, 60, 0
2, 26448, Note_on_c, 0, 57, 45
2, 26494, Note_on_c, 0, 57, 0
2, 26496, Note_on_c, 0, 60, 45
2, 26542, Note_on_c, 0, 60, 0
2, 26544, Note_on_c, 0, 57, 45
2, 26590, Note_on_c, 0, 57, 0
2, 26592, Note_on_c, 0, 53, 45
2, 26638, Note_on_c, 0, 53, 0
2, 26640, Note_on_c, 0, 57, 45
2, 26686, Note_on_c, 0, 57, 0
2, 26688, Note_on_c, 0, 53, 45
2, 26734, Note_on_c, 0, 53, 0
2, 26736, Note_on_c, 0, 50, 45
2, 26782, Note_on_c, 0, 50, 0
2, 26784, Note_on_c, 0, 53, 45
2, 26830, Note_on_c, 0, 53, 0
2, 26832, Note_on_c, 0, 50, 45
2, 26878, Note_on_c, 0, 50, 0
2, 26976, Note_on_c, 0, 67, 45
2, 27022, Note_on_c, 0, 67, 0
2, 27024, Note_on_c, 0, 71, 55
2, 27070, Note_on_c, 0, 71, 0
2, 27072, Note_on_c, 0, 74, 65
2, 27118, Note_on_c, 0, 74, 0
2, 27120, Note_on_c, 0, 77, 75
2, 27166, Note_on_c, 0, 77, 0
2, 27168, Note_on_c, 0, 74, 75
2, 27214, Note_on_c, 0, 74, 0
2, 27216, Note_on_c, 0, 71, 72
2, 27262, Note_on_c, 0, 71, 0
2, 27264, Note_on_c, 0, 74, 69
2, 27310, Note_on_c, 0, 74, 0
2, 27312, Note_on_c, 0, 71, 66
2, 27358, Note_on_c, 0, 71, 0
2, 27360, Note_on_c, 0, 67, 63
2, 27406, Note_on_c, 0, 67, 0
2, 27408, Note_on_c, 0, 71, 60
2, 27454, Note_on_c, 0, 71, 0
2, 27456, Note_on_c, 0, 62, 57
2, 27502, Note_on_c, 0, 62, 0
2, 27504, Note_on_c, 0, 65, 54
2, 27550, Note_on_c, 0, 65, 0
2, 27552, Note_on_c, 0, 64, 51
2, 27598, Note_on_c, 0, 64, 0
2, 27600, Note_on_c, 0, 62, 48
2, 27646, Note_on_c, 0, 62, 0
2, 27648, Note_on_c, 0, 64, 45
2, 27648, Note_on_c, 0, 67, 45
2, 27648, Note_on_c, 0, 72, 45
2, 28368, Note_on_c, 0, 64, 0
2, 28368, Note_on_c, 0, 67, 0
2, 28368, Note_on_c, 0, 72, 0
2, 30432, Note_on_c, 0, 67, 60
2, 30526, Note_on_c, 0, 67, 0
2, 30528, Note_on_c, 0, 69, 60
2, 30622, Note_on_c, 0, 69, 0
2, 30624, Note_on_c, 0, 71, 60
2, 30718, Note_on_c, 0, 71, 0
2, 30720, Note_on_c, 0, 72, 60
2, 30862, Note_on_c, 0, 72, 0
2, 30864, Note_on_c, 0, 74, 60
2, 30886, Note_on_c, 0, 74, 0
2, 30888, Note_on_c, 0, 72, 60
2, 30910, Note_on_c, 0, 72, 0
2, 30912, Note_on_c, 0, 71, 60
2, 31006, Note_on_c, 0, 71, 0
2, 31008, Note_on_c, 0, 76, 60
2, 31102, Note_on_c, 0, 76, 0
2, 31104, Note_on_c, 0, 69, 60
2, 31198, Note_on_c, 0, 69, 0
2, 31200, Note_on_c, 0, 74, 84
2, 31342, Note_on_c, 0, 74, 0
2, 31344, Note_on_c, 0, 76, 60
2, 31390, Note_on_c, 0, 76, 0
2, 31392, Note_on_c, 0, 74, 60
2, 31438, Note_on_c, 0, 74, 0
2, 31440, Note_on_c, 0, 72, 60
2, 31486, Note_on_c, 0, 72, 0
2, 31488, Note_on_c, 0, 71, 60
2, 31534, Note_on_c, 0, 71, 0
2, 31536, Note_on_c, 0, 67, 60
2, 31582, Note_on_c, 0, 67, 0
2, 31584, Note_on_c, 0, 69, 60
2, 31630, Note_on_c, 0, 69, 0
2, 31632, Note_on_c, 0, 71, 60
2, 31678, Note_on_c, 0, 71, 0
2, 31680, Note_on_c, 0, 72, 60
2, 31726, Note_on_c, 0, 72, 0
2, 31728, Note_on_c, 0, 71, 60
2, 31774, Note_on_c, 0, 71, 0
2, 31776, Note_on_c, 0, 72, 60
2, 31822, Note_on_c, 0, 72, 0
2, 31824, Note_on_c, 0, 74, 60
2, 31870, Note_on_c, 0, 74, 0
2, 31872, Note_on_c, 0, 76, 60
2, 31918, Note_on_c, 0, 76, 0
2, 31920, Note_on_c, 0, 74, 60
2, 31966, Note_on_c, 0, 74, 0
2, 31968, Note_on_c, 0, 76, 60
2, 32014, Note_on_c, 0, 76, 0
2, 32016, Note_on_c, 0, 78, 60
2, 32062, Note_on_c, 0, 78, 0
2, 32064, Note_on_c, 0, 79, 60
2, 32158, Note_on_c, 0, 79, 0
2, 32160, Note_on_c, 0, 71, 61
2, 32254, Note_on_c, 0, 71, 0
2, 32256, Note_on_c, 0, 72, 63
2, 32350, Note_on_c, 0, 72, 0
2, 32352, Note_on_c, 0, 69, 65
2, 32446, Note_on_c, 0, 69, 0
2, 32448, Note_on_c, 0, 74, 67
2, 32494, Note_on_c, 0, 74, 0
2, 32496, Note_on_c, 0, 72, 68
2, 32542, Note_on_c, 0, 72, 0
2, 32544, Note_on_c, 0, 71, 69
2, 32590, Note_on_c, 0, 71, 0
2, 32592, Note_on_c, 0, 69, 70
2, 32638, Note_on_c, 0, 69, 0
2, 32640, Note_on_c, 0, 67, 71
2, 32782, Note_on_c, 0, 67, 0
2, 32784, Note_on_c, 0, 67, 74
2, 32830, Note_on_c, 0, 67, 0
2, 32832, Note_on_c, 0, 65, 75
2, 32878, Note_on_c, 0, 65, 0
2, 32880, Note_on_c, 0, 64, 75
2, 32926, Note_on_c, 0, 64, 0
2, 32928, Note_on_c, 0, 65, 75
2, 32974, Note_on_c, 0, 65, 0
2, 32976, Note_on_c, 0, 67, 75
2, 33022, Note_on_c, 0, 67, 0
2, 33024, Note_on_c, 0, 69, 75
2, 33070, Note_on_c, 0, 69, 0
2, 33072, Note_on_c, 0, 67, 75
2, 33118, Note_on_c, 0, 67, 0
2, 33120, Note_on_c, 0, 69, 75
2, 33166, Note_on_c, 0, 69, 0
2, 33168, Note_on_c, 0, 71, 75
2, 33214, Note_on_c, 0, 71, 0
2, 33216, Note_on_c, 0, 72, 75
2, 33552, Note_on_c, 0, 72, 0
2, 33600, Note_on_c, 0, 71, 92
2, 33760, Note_on_c, 0, 71, 0
2, 33888, Note_on_c, 0, 72, 60
2, 33982, Note_on_c, 0, 72, 0
2, 33984, Note_on_c, 0, 74, 60
2, 34078, Note_on_c, 0, 74, 0
2, 34080, Note_on_c, 0, 76, 61
2, 34174, Note_on_c, 0, 76, 0
2, 34176, Note_on_c, 0, 77, 62
2, 34318, Note_on_c, 0, 77, 0
2, 34320, Note_on_c, 0, 79, 63
2, 34342, Note_on_c, 0, 79, 0
2, 34344, Note_on_c, 0, 77, 63
2, 34366, Note_on_c, 0, 77, 0
2, 34368, Note_on_c, 0, 76, 63
2, 34462, Note_on_c, 0, 76, 0
2, 34464, Note_on_c, 0, 81, 64
2, 34558, Note_on_c, 0, 81, 0
2, 34560, Note_on_c, 0, 74, 65
2, 34654, Note_on_c, 0, 74, 0
2, 34656, Note_on_c, 0, 79, 92
2, 34798, Note_on_c, 0, 79, 0
2, 34800, Note_on_c, 0, 81, 67
2, 34846, Note_on_c, 0, 81, 0
2, 34848, Note_on_c, 0, 79, 67
2, 34894, Note_on_c, 0, 79, 0
2, 34896, Note_on_c, 0, 77, 67
2, 34942, Note_on_c, 0, 77, 0
2, 34944, Note_on_c, 0, 76, 67
2, 35038, Note_on_c, 0, 76, 0
2, 35040, Note_on_c, 0, 81, 95
2, 35182, Note_on_c, 0, 81, 0
2, 35184, Note_on_c, 0, 83, 69
2, 35230, Note_on_c, 0, 83, 0
2, 35232, Note_on_c, 0, 81, 69
2, 35278, Note_on_c, 0, 81, 0
2, 35280, Note_on_c, 0, 79, 69
2, 35326, Note_on_c, 0, 79, 0
2, 35328, Note_on_c, 0, 77, 69
2, 35664, Note_on_c, 0, 77, 0
2, 35712, Note_on_c, 0, 76, 76
2, 35806, Note_on_c, 0, 76, 0
2, 35808, Note_on_c, 0, 78, 78
2, 35902, Note_on_c, 0, 78, 0
2, 35904, Note_on_c, 0, 79, 80
2, 36256, Note_on_c, 0, 79, 0
2, 36288, Note_on_c, 0, 78, 88
2, 36448, Note_on_c, 0, 78, 0
2, 36480, Note_on_c, 0, 79, 92
2, 36526, Note_on_c, 0, 79, 0
2, 36528, Note_on_c, 0, 77, 92
2, 36574, Note_on_c, 0, 77, 0
2, 36576, Note_on_c, 0, 76, 92
2, 36622, Note_on_c, 0, 76, 0
2, 36624, Note_on_c, 0, 74, 92
2, 36670, Note_on_c, 0, 74, 0
2, 36672, Note_on_c, 0, 72, 92
2, 36718, Note_on_c, 0, 72, 0
2, 36720, Note_on_c, 0, 74, 90
2, 36766, Note_on_c, 0, 74, 0
2, 36768, Note_on_c, 0, 72, 88
2, 36814, Note_on_c, 0, 72, 0
2, 36816, Note_on_c, 0, 71, 86
2, 36862, Note_on_c, 0, 71, 0
2, 36864, Note_on_c, 0, 69, 84
2, 36910, Note_on_c, 0, 69, 0
2, 36912, Note_on_c, 0, 72, 82
2, 36958, Note_on_c, 0, 72, 0
2, 36960, Note_on_c, 0, 71, 80
2, 37006, Note_on_c, 0, 71, 0
2, 37008, Note_on_c, 0, 69, 78
2, 37054, Note_on_c, 0, 69, 0
2, 37056, Note_on_c, 0, 67, 75
2, 37150, Note_on_c, 0, 67, 0
2, 37296, Note_on_c, 0, 72, 75
2, 37342, Note_on_c, 0, 72, 0
2, 37344, Note_on_c, 0, 71, 75
2, 37390, Note_on_c, 0, 71, 0
2, 37392, Note_on_c, 0, 69, 75
2, 37438, Note_on_c, 0, 69, 0
2, 37440, Note_on_c, 0, 68, 75
2, 37534, Note_on_c, 0, 68, 0
2, 37536, Note_on_c, 0, 76, 75
2, 37630, Note_on_c, 0, 76, 0
2, 37632, Note_on_c, 0, 74, 75
2, 37726, Note_on_c, 0, 74, 0
2, 37728, Note_on_c, 0, 72, 75
2, 37774, Note_on_c, 0, 72, 0
2, 37776, Note_on_c, 0, 71, 75
2, 37822, Note_on_c, 0, 71, 0
2, 37824, Note_on_c, 0, 69, 75
2, 37870, Note_on_c, 0, 69, 0
2, 37872, Note_on_c, 0, 68, 75
2, 37918, Note_on_c, 0, 68, 0
2, 37920, Note_on_c, 0, 69, 75
2, 37966, Note_on_c, 0, 69, 0
2, 37968, Note_on_c, 0, 71, 75
2, 38014, Note_on_c, 0, 71, 0
2, 38016, Note_on_c, 0, 72, 75
2, 38062, Note_on_c, 0, 72, 0
2, 38064, Note_on_c, 0, 66, 75
2, 38110, Note_on_c, 0, 66, 0
2, 38112, Note_on_c, 0, 68, 75
2, 38158, Note_on_c, 0, 68, 0
2, 38160, Note_on_c, 0, 69, 75
2, 38206, Note_on_c, 0, 69, 0
2, 38208, Note_on_c, 0, 71, 75
2, 38302, Note_on_c, 0, 71, 0
2, 38304, Note_on_c, 0, 69, 75
2, 38350, Note_on_c, 0, 69, 0
2, 38352, Note_on_c, 0, 71, 75
2, 38398, Note_on_c, 0, 71, 0
2, 38400, Note_on_c, 0, 72, 75
2, 38494, Note_on_c, 0, 72, 0
2, 38496, Note_on_c, 0, 77, 74
2, 38590, Note_on_c, 0, 77, 0
2, 38592, Note_on_c, 0, 76, 72
2, 38686, Note_on_c, 0, 76, 0
2, 38688, Note_on_c, 0, 74, 98
2, 38878, Note_on_c, 0, 74, 0
2, 38880, Note_on_c, 0, 72, 66
2, 38926, Note_on_c, 0, 72, 0
2, 38928, Note_on_c, 0, 71, 65
2, 38974, Note_on_c, 0, 71, 0
2, 38976, Note_on_c, 0, 71, 64
2, 38992, Note_on_c, 0, 71, 0
2, 38992, Note_on_c, 0, 72, 64
2, 39008, Note_on_c, 0, 72, 0
2, 39008, Note_on_c, 0, 71, 64
2, 39024, Note_on_c, 0, 71, 0
2, 39024, Note_on_c, 0, 72, 64
2, 39040, Note_on_c, 0, 72, 0
2, 39040, Note_on_c, 0, 71, 64
2, 39056, Note_on_c, 0, 71, 0
2, 39056, Note_on_c, 0, 72, 64
2, 39072, Note_on_c, 0, 72, 0
2, 39072, Note_on_c, 0, 71, 64
2, 39118, Note_on_c, 0, 71, 0
2, 39120, Note_on_c, 0, 69, 62
2, 39166, Note_on_c, 0, 69, 0
2, 39168, Note_on_c, 0, 69, 60
2, 39328, Note_on_c, 0, 69, 0
2, 40416, Note_on_c, 0, 67, 60
2, 40510, Note_on_c, 0, 67, 0
2, 40512, Note_on_c, 0, 69, 62
2, 40606, Note_on_c, 0, 69, 0
2, 40608, Note_on_c, 0, 71, 64
2, 40702, Note_on_c, 0, 71, 0
2, 40704, Note_on_c, 0, 72, 66
2, 40846, Note_on_c, 0, 72, 0
2, 40848, Note_on_c, 0, 74, 69
2, 40870, Note_on_c, 0, 74, 0
2, 40872, Note_on_c, 0, 72, 69
2, 40894, Note_on_c, 0, 72, 0
2, 40896, Note_on_c, 0, 71, 69
2, 40990, Note_on_c, 0, 71, 0
2, 40992, Note_on_c, 0, 72, 71
2, 41086, Note_on_c, 0, 72, 0
2, 41088, Note_on_c, 0, 74, 74
2, 41182, Note_on_c, 0, 74, 0
2, 41184, Note_on_c, 0, 76, 77
2, 41278, Note_on_c, 0, 76, 0
2, 41280, Note_on_c, 0, 77, 80
2, 41422, Note_on_c, 0, 77, 0
2, 41424, Note_on_c, 0, 79, 84
2, 41446, Note_on_c, 0, 79, 0
2, 41448, Note_on_c, 0, 77, 84
2, 41470, Note_on_c, 0, 77, 0
2, 41472, Note_on_c, 0, 76, 84
2, 41566, Note_on_c, 0, 76, 0
2, 41568, Note_on_c, 0, 81, 88
2, 41662, Note_on_c, 0, 81, 0
2, 41664, Note_on_c, 0, 74, 92
2, 41758, Note_on_c, 0, 74, 0
2, 41760, Note_on_c, 0, 79, 92
2, 41902, Note_on_c, 0, 79, 0
2, 41904, Note_on_c, 0, 81, 92
2, 41950, Note_on_c, 0, 81, 0
2, 41952, Note_on_c, 0, 79, 92
2, 41998, Note_on_c, 0, 79, 0
2, 42000, Note_on_c, 0, 77, 92
2, 42046, Note_on_c, 0, 77, 0
2, 42048, Note_on_c, 0, 76, 92
2, 42142, Note_on_c, 0, 76, 0
2, 42144, Note_on_c, 0, 81, 92
2, 42238, Note_on_c, 0, 81, 0
2, 42240, Note_on_c, 0, 74, 92
2, 42334, Note_on_c, 0, 74, 0
2, 42336, Note_on_c, 0, 82, 92
2, 42430, Note_on_c, 0, 82, 0
2, 42432, Note_on_c, 0, 81, 92
2, 42526, Note_on_c, 0, 81, 0
2, 42528, Note_on_c, 0, 79, 92
2, 42574, Note_on_c, 0, 79, 0
2, 42576, Note_on_c, 0, 77, 92
2, 42622, Note_on_c, 0, 77, 0
2, 42624, Note_on_c, 0, 79, 92
2, 42670, Note_on_c, 0, 79, 0
2, 42672, Note_on_c, 0, 77, 92
2, 42718, Note_on_c, 0, 77, 0
2, 42720, Note_on_c, 0, 79, 92
2, 42766, Note_on_c, 0, 79, 0
2, 42768, Note_on_c, 0, 76, 92
2, 42814, Note_on_c, 0, 76, 0
2, 42816, Note_on_c, 0, 77, 92
2, 42862, Note_on_c, 0, 77, 0
2, 42864, Note_on_c, 0, 79, 92
2, 42910, Note_on_c, 0, 79, 0
2, 42912, Note_on_c, 0, 79, 92
2, 42926, Note_on_c, 0, 79, 0
2, 42928, Note_on_c, 0, 81, 92
2, 42942, Note_on_c, 0, 81, 0
2, 42944, Note_on_c, 0, 79, 92
2, 42958, Note_on_c, 0, 79, 0
2, 42960, Note_on_c, 0, 77, 92
2, 42982, Note_on_c, 0, 77, 0
2, 42984, Note_on_c, 0, 79, 92
2, 43006, Note_on_c, 0, 79, 0
2, 43008, Note_on_c, 0, 81, 92
2, 43054, Note_on_c, 0, 81, 0
2, 43056, Note_on_c, 0, 73, 88
2, 43102, Note_on_c, 0, 73, 0
2, 43104, Note_on_c, 0, 74, 84
2, 43150, Note_on_c, 0, 74, 0
2, 43152, Note_on_c, 0, 79, 80
2, 43198, Note_on_c, 0, 79, 0
2, 43200, Note_on_c, 0, 76, 76
2, 43216, Note_on_c, 0, 76, 0
2, 43216, Note_on_c, 0, 77, 75
2, 43232, Note_on_c, 0, 77, 0
2, 43232, Note_on_c, 0, 76, 74
2, 43248, Note_on_c, 0, 76, 0
2, 43248, Note_on_c, 0, 77, 73
2, 43264, Note_on_c, 0, 77, 0
2, 43264, Note_on_c, 0, 76, 72
2, 43280, Note_on_c, 0, 76, 0
2, 43280, Note_on_c, 0, 77, 71
2, 43296, Note_on_c, 0, 77, 0
2, 43296, Note_on_c, 0, 76, 70
2, 43344, Note_on_c, 0, 76, 0
2, 43344, Note_on_c, 0, 74, 65
2, 43390, Note_on_c, 0, 74, 0
2, 43392, Note_on_c, 0, 74, 60
2, 43486, Note_on_c, 0, 74, 0
2, 44448, Note_on_c, 0, 67, 60
2, 44542, Note_on_c, 0, 67, 0
2, 44544, Note_on_c, 0, 69, 60
2, 44638, Note_on_c, 0, 69, 0
2, 44640, Note_on_c, 0, 71, 62
2, 44734, Note_on_c, 0, 71, 0
2, 44736, Note_on_c, 0, 72, 64
2, 44878, Note_on_c, 0, 72, 0
2, 44880, Note_on_c, 0, 74, 68
2, 44902, Note_on_c, 0, 74, 0
2, 44904, Note_on_c, 0, 72, 68
2, 44926, Note_on_c, 0, 72, 0
2, 44928, Note_on_c, 0, 71, 68
2, 45022, Note_on_c, 0, 71, 0
2, 45024, Note_on_c, 0, 76, 71
2, 45118, Note_on_c, 0, 76, 0
2, 45120, Note_on_c, 0, 69, 74
2, 45214, Note_on_c, 0, 69, 0
2, 45216, Note_on_c, 0, 74, 77
2, 45358, Note_on_c, 0, 74, 0
2, 45360, Note_on_c, 0, 76, 81
2, 45406, Note_on_c, 0, 76, 0
2, 45408, Note_on_c, 0, 74, 82
2, 45454, Note_on_c, 0, 74, 0
2, 45456, Note_on_c, 0, 72, 83
2, 45502, Note_on_c, 0, 72, 0
2, 45504, Note_on_c, 0, 71, 84
2, 45550, Note_on_c, 0, 71, 0
2, 45552, Note_on_c, 0, 72, 86
2, 45598, Note_on_c, 0, 72, 0
2, 45600, Note_on_c, 0, 74, 88
2, 45646, Note_on_c, 0, 74, 0
2, 45648, Note_on_c, 0, 76, 90
2, 45694, Note_on_c, 0, 76, 0
2, 45696, Note_on_c, 0, 77, 92
2, 45742, Note_on_c, 0, 77, 0
2, 45744, Note_on_c, 0, 79, 92
2, 45790, Note_on_c, 0, 79, 0
2, 45792, Note_on_c, 0, 81, 92
2, 45838, Note_on_c, 0, 81, 0
2, 45840, Note_on_c, 0, 79, 92
2, 45886, Note_on_c, 0, 79, 0
2, 45888, Note_on_c, 0, 77, 92
2, 45934, Note_on_c, 0, 77, 0
2, 45936, Note_on_c, 0, 76, 92
2, 45982, Note_on_c, 0, 76, 0
2, 45984, Note_on_c, 0, 74, 92
2, 46030, Note_on_c, 0, 74, 0
2, 46032, Note_on_c, 0, 72, 92
2, 46078, Note_on_c, 0, 72, 0
2, 46080, Note_on_c, 0, 71, 92
2, 46240, Note_on_c, 0, 71, 0
2, 46272, Note_on_c, 0, 72, 84
2, 46366, Note_on_c, 0, 72, 0
2, 46368, Note_on_c, 0, 74, 80
2, 46462, Note_on_c, 0, 74, 0
2, 46464, Note_on_c, 0, 67, 76
2, 46558, Note_on_c, 0, 67, 0
2, 46560, Note_on_c, 0, 72, 72
2, 46750, Note_on_c, 0, 72, 0
2, 46752, Note_on_c, 0, 71, 64
2, 46846, Note_on_c, 0, 71, 0
2, 46848, Note_on_c, 0, 72, 60
2, 47008, Note_on_c, 0, 72, 0
2, 47040, Note_on_c, 0, 71, 60
2, 47134, Note_on_c, 0, 71, 0
2, 47136, Note_on_c, 0, 70, 60
2, 47230, Note_on_c, 0, 70, 0
2, 47232, Note_on_c, 0, 69, 60
2, 47326, Note_on_c, 0, 69, 0
2, 47328, Note_on_c, 0, 74, 60
2, 47518, Note_on_c, 0, 74, 0
2, 47520, Note_on_c, 0, 72, 60
2, 47614, Note_on_c, 0, 72, 0
2, 47616, Note_on_c, 0, 74, 60
2, 47710, Note_on_c, 0, 74, 0
2, 47712, Note_on_c, 0, 76, 60
2, 47806, Note_on_c, 0, 76, 0
2, 47808, Note_on_c, 0, 77, 60
2, 48046, Note_on_c, 0, 77, 0
2, 48048, Note_on_c, 0, 81, 60
2, 48094, Note_on_c, 0, 81, 0
2, 48096, Note_on_c, 0, 79, 60
2, 48142, Note_on_c, 0, 79, 0
2, 48144, Note_on_c, 0, 77, 60
2, 48190, Note_on_c, 0, 77, 0
2, 48192, Note_on_c, 0, 76, 60
2, 48238, Note_on_c, 0, 76, 0
2, 48240, Note_on_c, 0, 77, 60
2, 48286, Note_on_c, 0, 77, 0
2, 48288, Note_on_c, 0, 76, 60
2, 48334, Note_on_c, 0, 76, 0
2, 48336, Note_on_c, 0, 74, 60
2, 48382, Note_on_c, 0, 74, 0
2, 48384, Note_on_c, 0, 72, 60
2, 48720, Note_on_c, 0, 72, 0
2, 48816, Note_on_c, 0, 67, 60
2, 48838, Note_on_c, 0, 67, 0
2, 48840, Note_on_c, 0, 69, 61
2, 48862, Note_on_c, 0, 69, 0
2, 48864, Note_on_c, 0, 71, 62
2, 48910, Note_on_c, 0, 71, 0
2, 48912, Note_on_c, 0, 72, 64
2, 48958, Note_on_c, 0, 72, 0
2, 48960, Note_on_c, 0, 74, 66
2, 49006, Note_on_c, 0, 74, 0
2, 49008, Note_on_c, 0, 76, 68
2, 49054, Note_on_c, 0, 76, 0
2, 49056, Note_on_c, 0, 77, 70
2, 49174, Note_on_c, 0, 77, 0
2, 49176, Note_on_c, 0, 72, 75
2, 49198, Note_on_c, 0, 72, 0
2, 49200, Note_on_c, 0, 74, 75
2, 49222, Note_on_c, 0, 74, 0
2, 49224, Note_on_c, 0, 76, 75
2, 49246, Note_on_c, 0, 76, 0
2, 49248, Note_on_c, 0, 77, 75
2, 49294, Note_on_c, 0, 77, 0
2, 49296, Note_on_c, 0, 79, 70
2, 49342, Note_on_c, 0, 79, 0
2, 49344, Note_on_c, 0, 81, 65
2, 49486, Note_on_c, 0, 81, 0
2, 49488, Note_on_c, 0, 83, 50
2, 49534, Note_on_c, 0, 83, 0
2, 49536, Note_on_c, 0, 79, 45
2, 49536, Note_on_c, 0, 84, 45
2, 49872, Note_on_c, 0, 79, 0
2, 49872, Note_on_c, 0, 84, 0
2, 49872, End_track
3, 0, Start_track
3, 0, MIDI_port, 0
3, 0, Title_t, "Staff-1"
3, 0, Program_c, 1, 0
3, 0, Control_c, 1, 7, 127
3, 0, Control_c, 1, 10, 70
3, 29280, Note_on_c, 1, 60, 60
3, 29374, Note_on_c, 1, 60, 0
3, 29376, Note_on_c, 1, 62, 60
3, 29470, Note_on_c, 1, 62, 0
3, 29472, Note_on_c, 1, 64, 60
3, 29566, Note_on_c, 1, 64, 0
3, 29568, Note_on_c, 1, 65, 60
3, 29710, Note_on_c, 1, 65, 0
3, 29712, Note_on_c, 1, 67, 60
3, 29734, Note_on_c, 1, 67, 0
3, 29736, Note_on_c, 1, 65, 60
3, 29758, Note_on_c, 1, 65, 0
3, 29760, Note_on_c, 1, 64, 60
3, 29854, Note_on_c, 1, 64, 0
3, 29856, Note_on_c, 1, 69, 60
3, 29950, Note_on_c, 1, 69, 0
3, 29952, Note_on_c, 1, 62, 60
3, 30046, Note_on_c, 1, 62, 0
3, 30048, Note_on_c, 1, 67, 84
3, 30190, Note_on_c, 1, 67, 0
3, 30192, Note_on_c, 1, 69, 60
3, 30238, Note_on_c, 1, 69, 0
3, 30240, Note_on_c, 1, 67, 60
3, 30286, Note_on_c, 1, 67, 0
3, 30288, Note_on_c, 1, 65, 60
3, 30334, Note_on_c, 1, 65, 0
3, 30336, Note_on_c, 1, 64, 60
3, 30382, Note_on_c, 1, 64, 0
3, 30384, Note_on_c, 1, 65, 60
3, 30430, Note_on_c, 1, 65, 0
3, 30432, Note_on_c, 1, 64, 60
3, 30478, Note_on_c, 1, 64, 0
3, 30480, Note_on_c, 1, 62, 60
3, 30526, Note_on_c, 1, 62, 0
3, 30528, Note_on_c, 1, 60, 60
3, 30574, Note_on_c, 1, 60, 0
3, 30576, Note_on_c, 1, 62, 60
3, 30622, Note_on_c, 1, 62, 0
3, 30624, Note_on_c, 1, 60, 60
3, 30670, Note_on_c, 1, 60, 0
3, 30672, Note_on_c, 1, 59, 60
3, 30718, Note_on_c, 1, 59, 0
3, 30720, Note_on_c, 1, 57, 60
3, 30814, Note_on_c, 1, 57, 0
3, 30816, Note_on_c, 1, 66, 60
3, 30910, Note_on_c, 1, 66, 0
3, 30912, Note_on_c, 1, 67, 60
3, 31168, Note_on_c, 1, 67, 0
3, 31200, Note_on_c, 1, 66, 60
3, 31246, Note_on_c, 1, 66, 0
3, 31248, Note_on_c, 1, 64, 60
3, 31294, Note_on_c, 1, 64, 0
3, 31296, Note_on_c, 1, 66, 60
3, 31390, Note_on_c, 1, 66, 0
3, 31392, Note_on_c, 1, 62, 60
3, 31486, Note_on_c, 1, 62, 0
3, 31488, Note_on_c, 1, 67, 60
3, 31582, Note_on_c, 1, 67, 0
3, 31584, Note_on_c, 1, 65, 61
3, 31678, Note_on_c, 1, 65, 0
3, 31680, Note_on_c, 1, 64, 62
3, 31774, Note_on_c, 1, 64, 0
3, 31776, Note_on_c, 1, 62, 63
3, 31870, Note_on_c, 1, 62, 0
3, 31872, Note_on_c, 1, 60, 64
3, 31966, Note_on_c, 1, 60, 0
3, 32160, Note_on_c, 1, 67, 67
3, 32350, Note_on_c, 1, 67, 0
3, 32352, Note_on_c, 1, 65, 69
3, 32398, Note_on_c, 1, 65, 0
3, 32400, Note_on_c, 1, 64, 69
3, 32446, Note_on_c, 1, 64, 0
3, 32448, Note_on_c, 1, 65, 69
3, 32686, Note_on_c, 1, 65, 0
3, 32688, Note_on_c, 1, 65, 72
3, 32734, Note_on_c, 1, 65, 0
3, 32736, Note_on_c, 1, 64, 73
3, 32830, Note_on_c, 1, 64, 0
3, 32832, Note_on_c, 1, 62, 75
3, 32992, Note_on_c, 1, 62, 0
3, 33024, Note_on_c, 1, 60, 75
3, 33118, Note_on_c, 1, 60, 0
3, 33120, Note_on_c, 1, 65, 75
3, 33214, Note_on_c, 1, 65, 0
3, 33264, Note_on_c, 1, 67, 75
3, 33310, Note_on_c, 1, 67, 0
3, 33312, Note_on_c, 1, 65, 75
3, 33358, Note_on_c, 1, 65, 0
3, 33360, Note_on_c, 1, 64, 75
3, 33406, Note_on_c, 1, 64, 0
3, 33408, Note_on_c, 1, 65, 75
3, 33502, Note_on_c, 1, 65, 0
3, 33504, Note_on_c, 1, 62, 75
3, 33598, Note_on_c, 1, 62, 0
3, 33600, Note_on_c, 1, 67, 92
3, 33952, Note_on_c, 1, 67, 0
3, 35424, Note_on_c, 1, 67, 75
3, 35518, Note_on_c, 1, 67, 0
3, 35520, Note_on_c, 1, 69, 75
3, 35614, Note_on_c, 1, 69, 0
3, 35616, Note_on_c, 1, 71, 76
3, 35710, Note_on_c, 1, 71, 0
3, 35712, Note_on_c, 1, 72, 77
3, 35854, Note_on_c, 1, 72, 0
3, 35856, Note_on_c, 1, 74, 79
3, 35878, Note_on_c, 1, 74, 0
3, 35880, Note_on_c, 1, 72, 79
3, 35902, Note_on_c, 1, 72, 0
3, 35904, Note_on_c, 1, 71, 79
3, 35998, Note_on_c, 1, 71, 0
3, 36000, Note_on_c, 1, 76, 81
3, 36094, Note_on_c, 1, 76, 0
3, 36096, Note_on_c, 1, 69, 83
3, 36190, Note_on_c, 1, 69, 0
3, 36192, Note_on_c, 1, 74, 119
3, 36334, Note_on_c, 1, 74, 0
3, 36336, Note_on_c, 1, 76, 88
3, 36382, Note_on_c, 1, 76, 0
3, 36384, Note_on_c, 1, 74, 89
3, 36430, Note_on_c, 1, 74, 0
3, 36432, Note_on_c, 1, 72, 90
3, 36478, Note_on_c, 1, 72, 0
3, 36480, Note_on_c, 1, 71, 92
3, 36574, Note_on_c, 1, 71, 0
3, 36768, Note_on_c, 1, 62, 92
3, 36862, Note_on_c, 1, 62, 0
3, 36864, Note_on_c, 1, 64, 92
3, 36958, Note_on_c, 1, 64, 0
3, 36960, Note_on_c, 1, 66, 90
3, 37054, Note_on_c, 1, 66, 0
3, 37056, Note_on_c, 1, 67, 87
3, 37198, Note_on_c, 1, 67, 0
3, 37200, Note_on_c, 1, 69, 83
3, 37222, Note_on_c, 1, 69, 0
3, 37224, Note_on_c, 1, 67, 83
3, 37246, Note_on_c, 1, 67, 0
3, 37248, Note_on_c, 1, 66, 83
3, 37342, Note_on_c, 1, 66, 0
3, 37344, Note_on_c, 1, 71, 79
3, 37438, Note_on_c, 1, 71, 0
3, 37440, Note_on_c, 1, 64, 75
3, 37534, Note_on_c, 1, 64, 0
3, 37536, Note_on_c, 1, 69, 105
3, 37678, Note_on_c, 1, 69, 0
3, 37680, Note_on_c, 1, 71, 75
3, 37726, Note_on_c, 1, 71, 0
3, 37728, Note_on_c, 1, 69, 75
3, 37774, Note_on_c, 1, 69, 0
3, 37776, Note_on_c, 1, 68, 75
3, 37822, Note_on_c, 1, 68, 0
3, 37824, Note_on_c, 1, 66, 75
3, 37918, Note_on_c, 1, 66, 0
3, 37920, Note_on_c, 1, 65, 75
3, 38014, Note_on_c, 1, 65, 0
3, 38016, Note_on_c, 1, 64, 75
3, 38110, Note_on_c, 1, 64, 0
3, 38112, Note_on_c, 1, 62, 75
3, 38254, Note_on_c, 1, 62, 0
3, 38256, Note_on_c, 1, 64, 75
3, 38302, Note_on_c, 1, 64, 0
3, 38304, Note_on_c, 1, 66, 75
3, 38350, Note_on_c, 1, 66, 0
3, 38352, Note_on_c, 1, 68, 75
3, 38398, Note_on_c, 1, 68, 0
3, 38400, Note_on_c, 1, 69, 75
3, 38446, Note_on_c, 1, 69, 0
3, 38448, Note_on_c, 1, 68, 75
3, 38494, Note_on_c, 1, 68, 0
3, 38496, Note_on_c, 1, 69, 75
3, 38542, Note_on_c, 1, 69, 0
3, 38544, Note_on_c, 1, 71, 75
3, 38590, Note_on_c, 1, 71, 0
3, 38592, Note_on_c, 1, 68, 74
3, 38638, Note_on_c, 1, 68, 0
3, 38640, Note_on_c, 1, 66, 73
3, 38686, Note_on_c, 1, 66, 0
3, 38688, Note_on_c, 1, 68, 72
3, 38734, Note_on_c, 1, 68, 0
3, 38736, Note_on_c, 1, 69, 71
3, 38782, Note_on_c, 1, 69, 0
3, 38784, Note_on_c, 1, 71, 70
3, 38878, Note_on_c, 1, 71, 0
3, 39264, Note_on_c, 1, 60, 60
3, 39358, Note_on_c, 1, 60, 0
3, 39360, Note_on_c, 1, 62, 60
3, 39454, Note_on_c, 1, 62, 0
3, 39456, Note_on_c, 1, 64, 60
3, 39550, Note_on_c, 1, 64, 0
3, 39552, Note_on_c, 1, 65, 60
3, 39694, Note_on_c, 1, 65, 0
3, 39696, Note_on_c, 1, 67, 60
3, 39718, Note_on_c, 1, 67, 0
3, 39720, Note_on_c, 1, 65, 60
3, 39742, Note_on_c, 1, 65, 0
3, 39744, Note_on_c, 1, 64, 60
3, 39838, Note_on_c, 1, 64, 0
3, 39840, Note_on_c, 1, 69, 60
3, 39934, Note_on_c, 1, 69, 0
3, 39936, Note_on_c, 1, 62, 60
3, 40030, Note_on_c, 1, 62, 0
3, 40032, Note_on_c, 1, 67, 60
3, 40174, Note_on_c, 1, 67, 0
3, 40176, Note_on_c, 1, 69, 60
3, 40222, Note_on_c, 1, 69, 0
3, 40224, Note_on_c, 1, 67, 60
3, 40270, Note_on_c, 1, 67, 0
3, 40272, Note_on_c, 1, 65, 60
3, 40318, Note_on_c, 1, 65, 0
3, 40320, Note_on_c, 1, 64, 60
3, 40414, Note_on_c, 1, 64, 0
3, 40416, Note_on_c, 1, 64, 62
3, 40510, Note_on_c, 1, 64, 0
3, 40512, Note_on_c, 1, 66, 64
3, 40606, Note_on_c, 1, 66, 0
3, 40608, Note_on_c, 1, 67, 66
3, 40798, Note_on_c, 1, 67, 0
3, 40800, Note_on_c, 1, 66, 70
3, 40894, Note_on_c, 1, 66, 0
3, 40896, Note_on_c, 1, 68, 72
3, 40990, Note_on_c, 1, 68, 0
3, 40992, Note_on_c, 1, 69, 74
3, 41182, Note_on_c, 1, 69, 0
3, 41184, Note_on_c, 1, 67, 78
3, 41278, Note_on_c, 1, 67, 0
3, 41280, Note_on_c, 1, 69, 80
3, 41374, Note_on_c, 1, 69, 0
3, 41376, Note_on_c, 1, 71, 83
3, 41470, Note_on_c, 1, 71, 0
3, 41472, Note_on_c, 1, 72, 86
3, 41614, Note_on_c, 1, 72, 0
3, 41616, Note_on_c, 1, 74, 90
3, 41638, Note_on_c, 1, 74, 0
3, 41640, Note_on_c, 1, 72, 91
3, 41662, Note_on_c, 1, 72, 0
3, 41664, Note_on_c, 1, 71, 92
3, 41758, Note_on_c, 1, 71, 0
3, 41760, Note_on_c, 1, 76, 92
3, 41854, Note_on_c, 1, 76, 0
3, 41856, Note_on_c, 1, 69, 92
3, 41950, Note_on_c, 1, 69, 0
3, 41952, Note_on_c, 1, 74, 92
3, 42094, Note_on_c, 1, 74, 0
3, 42096, Note_on_c, 1, 76, 92
3, 42142, Note_on_c, 1, 76, 0
3, 42144, Note_on_c, 1, 74, 92
3, 42190, Note_on_c, 1, 74, 0
3, 42192, Note_on_c, 1, 72, 92
3, 42238, Note_on_c, 1, 72, 0
3, 42240, Note_on_c, 1, 71, 92
3, 42334, Note_on_c, 1, 71, 0
3, 42336, Note_on_c, 1, 79, 92
3, 42430, Note_on_c, 1, 79, 0
3, 42432, Note_on_c, 1, 73, 92
3, 42526, Note_on_c, 1, 73, 0
3, 42528, Note_on_c, 1, 74, 92
3, 42622, Note_on_c, 1, 74, 0
3, 42624, Note_on_c, 1, 76, 92
3, 42718, Note_on_c, 1, 76, 0
3, 42720, Note_on_c, 1, 73, 92
3, 42814, Note_on_c, 1, 73, 0
3, 42816, Note_on_c, 1, 74, 92
3, 42910, Note_on_c, 1, 74, 0
3, 42912, Note_on_c, 1, 76, 92
3, 43006, Note_on_c, 1, 76, 0
3, 43008, Note_on_c, 1, 69, 92
3, 43102, Note_on_c, 1, 69, 0
3, 43296, Note_on_c, 1, 64, 60
3, 43390, Note_on_c, 1, 64, 0
3, 43392, Note_on_c, 1, 66, 60
3, 43486, Note_on_c, 1, 66, 0
3, 43488, Note_on_c, 1, 67, 60
3, 43582, Note_on_c, 1, 67, 0
3, 43584, Note_on_c, 1, 69, 60
3, 43726, Note_on_c, 1, 69, 0
3, 43728, Note_on_c, 1, 71, 60
3, 43750, Note_on_c, 1, 71, 0
3, 43752, Note_on_c, 1, 69, 60
3, 43774, Note_on_c, 1, 69, 0
3, 43776, Note_on_c, 1, 67, 60
3, 43870, Note_on_c, 1, 67, 0
3, 43872, Note_on_c, 1, 72, 60
3, 43966, Note_on_c, 1, 72, 0
3, 43968, Note_on_c, 1, 66, 60
3, 44062, Note_on_c, 1, 66, 0
3, 44064, Note_on_c, 1, 71, 60
3, 44206, Note_on_c, 1, 71, 0
3, 44208, Note_on_c, 1, 72, 60
3, 44254, Note_on_c, 1, 72, 0
3, 44256, Note_on_c, 1, 71, 60
3, 44302, Note_on_c, 1, 71, 0
3, 44304, Note_on_c, 1, 69, 60
3, 44350, Note_on_c, 1, 69, 0
3, 44352, Note_on_c, 1, 67, 60
3, 44398, Note_on_c, 1, 67, 0
3, 44400, Note_on_c, 1, 66, 60
3, 44446, Note_on_c, 1, 66, 0
3, 44448, Note_on_c, 1, 64, 60
3, 44494, Note_on_c, 1, 64, 0
3, 44496, Note_on_c, 1, 62, 60
3, 44542, Note_on_c, 1, 62, 0
3, 44544, Note_on_c, 1, 64, 60
3, 44704, Note_on_c, 1, 64, 0
3, 44736, Note_on_c, 1, 62, 65
3, 44974, Note_on_c, 1, 62, 0
3, 44976, Note_on_c, 1, 69, 71
3, 45022, Note_on_c, 1, 69, 0
3, 45024, Note_on_c, 1, 67, 72
3, 45070, Note_on_c, 1, 67, 0
3, 45072, Note_on_c, 1, 65, 73
3, 45118, Note_on_c, 1, 65, 0
3, 45120, Note_on_c, 1, 64, 74
3, 45166, Note_on_c, 1, 64, 0
3, 45168, Note_on_c, 1, 67, 75
3, 45214, Note_on_c, 1, 67, 0
3, 45216, Note_on_c, 1, 65, 76
3, 45262, Note_on_c, 1, 65, 0
3, 45264, Note_on_c, 1, 69, 77
3, 45310, Note_on_c, 1, 69, 0
3, 45312, Note_on_c, 1, 67, 78
3, 45550, Note_on_c, 1, 67, 0
3, 45552, Note_on_c, 1, 69, 86
3, 45598, Note_on_c, 1, 69, 0
3, 45600, Note_on_c, 1, 70, 88
3, 45694, Note_on_c, 1, 70, 0
3, 45696, Note_on_c, 1, 72, 92
3, 45856, Note_on_c, 1, 72, 0
3, 45888, Note_on_c, 1, 74, 92
3, 45982, Note_on_c, 1, 74, 0
3, 45984, Note_on_c, 1, 67, 92
3, 46078, Note_on_c, 1, 67, 0
3, 46080, Note_on_c, 1, 67, 92
3, 46336, Note_on_c, 1, 67, 0
3, 46368, Note_on_c, 1, 65, 80
3, 46558, Note_on_c, 1, 65, 0
3, 46560, Note_on_c, 1, 64, 72
3, 46654, Note_on_c, 1, 64, 0
3, 46656, Note_on_c, 1, 62, 68
3, 46816, Note_on_c, 1, 62, 0
3, 46848, Note_on_c, 1, 64, 60
3, 46942, Note_on_c, 1, 64, 0
3, 46944, Note_on_c, 1, 69, 60
3, 47134, Note_on_c, 1, 69, 0
3, 47136, Note_on_c, 1, 67, 60
3, 47326, Note_on_c, 1, 67, 0
3, 47328, Note_on_c, 1, 65, 60
3, 47422, Note_on_c, 1, 65, 0
3, 47424, Note_on_c, 1, 67, 60
3, 47518, Note_on_c, 1, 67, 0
3, 47520, Note_on_c, 1, 69, 60
3, 47614, Note_on_c, 1, 69, 0
3, 47616, Note_on_c, 1, 70, 60
3, 47758, Note_on_c, 1, 70, 0
3, 47760, Note_on_c, 1, 72, 60
3, 47782, Note_on_c, 1, 72, 0
3, 47784, Note_on_c, 1, 70, 60
3, 47806, Note_on_c, 1, 70, 0
3, 47808, Note_on_c, 1, 69, 60
3, 47902, Note_on_c, 1, 69, 0
3, 47904, Note_on_c, 1, 74, 60
3, 47998, Note_on_c, 1, 74, 0
3, 48000, Note_on_c, 1, 67, 60
3, 48094, Note_on_c, 1, 67, 0
3, 48096, Note_on_c, 1, 72, 60
3, 48238, Note_on_c, 1, 72, 0
3, 48240, Note_on_c, 1, 74, 60
3, 48286, Note_on_c, 1, 74, 0
3, 48288, Note_on_c, 1, 72, 60
3, 48334, Note_on_c, 1, 72, 0
3, 48336, Note_on_c, 1, 70, 60
3, 48382, Note_on_c, 1, 70, 0
3, 48384, Note_on_c, 1, 69, 60
3, 48430, Note_on_c, 1, 69, 0
3, 48432, Note_on_c, 1, 70, 60
3, 48478, Note_on_c, 1, 70, 0
3, 48480, Note_on_c, 1, 69, 60
3, 48526, Note_on_c, 1, 69, 0
3, 48528, Note_on_c, 1, 67, 60
3, 48574, Note_on_c, 1, 67, 0
3, 48576, Note_on_c, 1, 65, 60
3, 48622, Note_on_c, 1, 65, 0
3, 48624, Note_on_c, 1, 67, 60
3, 48670, Note_on_c, 1, 67, 0
3, 48672, Note_on_c, 1, 65, 60
3, 48718, Note_on_c, 1, 65, 0
3, 48720, Note_on_c, 1, 64, 60
3, 48766, Note_on_c, 1, 64, 0
3, 48768, Note_on_c, 1, 62, 60
3, 49102, Note_on_c, 1, 62, 0
3, 49104, Note_on_c, 1, 67, 73
3, 49150, Note_on_c, 1, 67, 0
3, 49152, Note_on_c, 1, 69, 75
3, 49312, Note_on_c, 1, 69, 0
3, 49392, Note_on_c, 1, 77, 75
3, 49438, Note_on_c, 1, 77, 0
3, 49440, Note_on_c, 1, 74, 65
3, 49534, Note_on_c, 1, 74, 0
3, 49536, Note_on_c, 1, 76, 45
3, 49872, Note_on_c, 1, 76, 0
3, 49872, End_track
4, 0, Start_track
4, 0, MIDI_port, 0
4, 0, Title_t, "Staff-2"
4, 0, Program_c, 2, 0
4, 0, Control_c, 2, 7, 127
4, 0, Control_c, 2, 10, 50
4, 816, Note_on_c, 2, 64, 60
4, 1120, Note_on_c, 2, 64, 0
4, 1200, Note_on_c, 2, 64, 60
4, 1504, Note_on_c, 2, 64, 0
4, 1584, Note_on_c, 2, 62, 60
4, 1888, Note_on_c, 2, 62, 0
4, 1968, Note_on_c, 2, 62, 60
4, 2272, Note_on_c, 2, 62, 0
4, 2352, Note_on_c, 2, 62, 60
4, 2656, Note_on_c, 2, 62, 0
4, 2736, Note_on_c, 2, 62, 67
4, 3040, Note_on_c, 2, 62, 0
4, 3120, Note_on_c, 2, 64, 75
4, 3424, Note_on_c, 2, 64, 0
4, 3504, Note_on_c, 2, 64, 83
4, 3808, Note_on_c, 2, 64, 0
4, 3888, Note_on_c, 2, 64, 92
4, 4192, Note_on_c, 2, 64, 0
4, 4272, Note_on_c, 2, 64, 75
4, 4576, Note_on_c, 2, 64, 0
4, 4656, Note_on_c, 2, 62, 60
4, 4960, Note_on_c, 2, 62, 0
4, 5040, Note_on_c, 2, 62, 75
4, 5344, Note_on_c, 2, 62, 0
4, 5424, Note_on_c, 2, 62, 92
4, 5728, Note_on_c, 2, 62, 0
4, 5808, Note_on_c, 2, 62, 75
4, 6112, Note_on_c, 2, 62, 0
4, 6192, Note_on_c, 2, 60, 60
4, 6496, Note_on_c, 2, 60, 0
4, 6576, Note_on_c, 2, 60, 60
4, 6880, Note_on_c, 2, 60, 0
4, 6960, Note_on_c, 2, 60, 45
4, 7264, Note_on_c, 2, 60, 0
4, 7344, Note_on_c, 2, 60, 45
4, 7648, Note_on_c, 2, 60, 0
4, 7728, Note_on_c, 2, 57, 45
4, 8032, Note_on_c, 2, 57, 0
4, 8112, Note_on_c, 2, 57, 45
4, 8416, Note_on_c, 2, 57, 0
4, 8496, Note_on_c, 2, 59, 45
4, 8800, Note_on_c, 2, 59, 0
4, 8880, Note_on_c, 2, 59, 45
4, 9184, Note_on_c, 2, 59, 0
4, 9264, Note_on_c, 2, 58, 53
4, 9568, Note_on_c, 2, 58, 0
4, 9648, Note_on_c, 2, 58, 61
4, 9952, Note_on_c, 2, 58, 0
4, 10032, Note_on_c, 2, 57, 70
4, 10336, Note_on_c, 2, 57, 0
4, 10416, Note_on_c, 2, 57, 80
4, 10720, Note_on_c, 2, 57, 0
4, 10800, Note_on_c, 2, 56, 92
4, 11104, Note_on_c, 2, 56, 0
4, 11184, Note_on_c, 2, 56, 92
4, 11488, Note_on_c, 2, 56, 0
4, 11568, Note_on_c, 2, 55, 82
4, 11872, Note_on_c, 2, 55, 0
4, 11952, Note_on_c, 2, 55, 72
4, 12256, Note_on_c, 2, 55, 0
4, 12336, Note_on_c, 2, 53, 60
4, 12640, Note_on_c, 2, 53, 0
4, 12720, Note_on_c, 2, 53, 60
4, 13024, Note_on_c, 2, 53, 0
4, 13104, Note_on_c, 2, 53, 60
4, 13408, Note_on_c, 2, 53, 0
4, 13488, Note_on_c, 2, 53, 60
4, 13792, Note_on_c, 2, 53, 0
4, 13872, Note_on_c, 2, 50, 45
4, 14176, Note_on_c, 2, 50, 0
4, 14256, Note_on_c, 2, 50, 45
4, 14560, Note_on_c, 2, 50, 0
4, 14640, Note_on_c, 2, 52, 45
4, 14944, Note_on_c, 2, 52, 0
4, 15024, Note_on_c, 2, 52, 45
4, 15328, Note_on_c, 2, 52, 0
4, 15408, Note_on_c, 2, 55, 54
4, 15712, Note_on_c, 2, 55, 0
4, 15792, Note_on_c, 2, 55, 63
4, 16096, Note_on_c, 2, 55, 0
4, 16176, Note_on_c, 2, 53, 75
4, 16480, Note_on_c, 2, 53, 0
4, 16560, Note_on_c, 2, 53, 75
4, 16864, Note_on_c, 2, 53, 0
4, 16944, Note_on_c, 2, 48, 66
4, 17248, Note_on_c, 2, 48, 0
4, 17328, Note_on_c, 2, 48, 57
4, 17632, Note_on_c, 2, 48, 0
4, 17712, Note_on_c, 2, 51, 45
4, 18016, Note_on_c, 2, 51, 0
4, 18096, Note_on_c, 2, 51, 45
4, 18400, Note_on_c, 2, 51, 0
4, 18480, Note_on_c, 2, 53, 45
4, 18784, Note_on_c, 2, 53, 0
4, 18864, Note_on_c, 2, 53, 45
4, 19168, Note_on_c, 2, 53, 0
4, 19248, Note_on_c, 2, 53, 45
4, 19552, Note_on_c, 2, 53, 0
4, 19632, Note_on_c, 2, 53, 48
4, 19936, Note_on_c, 2, 53, 0
4, 20016, Note_on_c, 2, 52, 51
4, 20320, Note_on_c, 2, 52, 0
4, 20400, Note_on_c, 2, 52, 54
4, 20704, Note_on_c, 2, 52, 0
4, 20784, Note_on_c, 2, 50, 58
4, 21088, Note_on_c, 2, 50, 0
4, 21168, Note_on_c, 2, 50, 62
4, 21472, Note_on_c, 2, 50, 0
4, 21552, Note_on_c, 2, 50, 67
4, 21856, Note_on_c, 2, 50, 0
4, 21936, Note_on_c, 2, 50, 72
4, 22240, Note_on_c, 2, 50, 0
4, 22320, Note_on_c, 2, 51, 77
4, 22624, Note_on_c, 2, 51, 0
4, 22704, Note_on_c, 2, 51, 84
4, 23008, Note_on_c, 2, 51, 0
4, 23088, Note_on_c, 2, 52, 92
4, 23392, Note_on_c, 2, 52, 0
4, 23472, Note_on_c, 2, 52, 92
4, 23776, Note_on_c, 2, 52, 0
4, 23856, Note_on_c, 2, 50, 82
4, 24160, Note_on_c, 2, 50, 0
4, 24240, Note_on_c, 2, 50, 72
4, 24544, Note_on_c, 2, 50, 0
4, 24624, Note_on_c, 2, 50, 60
4, 24928, Note_on_c, 2, 50, 0
4, 25008, Note_on_c, 2, 50, 60
4, 25312, Note_on_c, 2, 50, 0
4, 25392, Note_on_c, 2, 48, 45
4, 25696, Note_on_c, 2, 48, 0
4, 25776, Note_on_c, 2, 48, 45
4, 26080, Note_on_c, 2, 48, 0
4, 26160, Note_on_c, 2, 48, 45
4, 26832, Note_on_c, 2, 48, 0
4, 26928, Note_on_c, 2, 47, 45
4, 27600, Note_on_c, 2, 47, 0
4, 27648, Note_on_c, 2, 48, 45
4, 28368, Note_on_c, 2, 48, 0
4, 31584, Note_on_c, 2, 55, 60
4, 31678, Note_on_c, 2, 55, 0
4, 31680, Note_on_c, 2, 57, 60
4, 31774, Note_on_c, 2, 57, 0
4, 31776, Note_on_c, 2, 59, 61
4, 31870, Note_on_c, 2, 59, 0
4, 31872, Note_on_c, 2, 60, 62
4, 32014, Note_on_c, 2, 60, 0
4, 32016, Note_on_c, 2, 62, 64
4, 32038, Note_on_c, 2, 62, 0
4, 32040, Note_on_c, 2, 60, 64
4, 32062, Note_on_c, 2, 60, 0
4, 32064, Note_on_c, 2, 59, 64
4, 32158, Note_on_c, 2, 59, 0
4, 32160, Note_on_c, 2, 64, 65
4, 32254, Note_on_c, 2, 64, 0
4, 32256, Note_on_c, 2, 57, 66
4, 32350, Note_on_c, 2, 57, 0
4, 32352, Note_on_c, 2, 62, 93
4, 32494, Note_on_c, 2, 62, 0
4, 32496, Note_on_c, 2, 64, 70
4, 32542, Note_on_c, 2, 64, 0
4, 32544, Note_on_c, 2, 62, 71
4, 32590, Note_on_c, 2, 62, 0
4, 32592, Note_on_c, 2, 60, 72
4, 32638, Note_on_c, 2, 60, 0
4, 32640, Note_on_c, 2, 59, 73
4, 32734, Note_on_c, 2, 59, 0
4, 32736, Note_on_c, 2, 60, 75
4, 32926, Note_on_c, 2, 60, 0
4, 32928, Note_on_c, 2, 58, 75
4, 33022, Note_on_c, 2, 58, 0
4, 33024, Note_on_c, 2, 57, 75
4, 33118, Note_on_c, 2, 57, 0
4, 33120, Note_on_c, 2, 62, 75
4, 33214, Note_on_c, 2, 62, 0
4, 33216, Note_on_c, 2, 55, 75
4, 33310, Note_on_c, 2, 55, 0
4, 33312, Note_on_c, 2, 60, 75
4, 33406, Note_on_c, 2, 60, 0
4, 33456, Note_on_c, 2, 57, 75
4, 33502, Note_on_c, 2, 57, 0
4, 33504, Note_on_c, 2, 59, 75
4, 33550, Note_on_c, 2, 59, 0
4, 33552, Note_on_c, 2, 60, 75
4, 33598, Note_on_c, 2, 60, 0
4, 33600, Note_on_c, 2, 62, 75
4, 33760, Note_on_c, 2, 62, 0
4, 33792, Note_on_c, 2, 55, 75
4, 33952, Note_on_c, 2, 55, 0
4, 34080, Note_on_c, 2, 55, 60
4, 34174, Note_on_c, 2, 55, 0
4, 34176, Note_on_c, 2, 57, 60
4, 34270, Note_on_c, 2, 57, 0
4, 34272, Note_on_c, 2, 59, 61
4, 34366, Note_on_c, 2, 59, 0
4, 34368, Note_on_c, 2, 60, 62
4, 34510, Note_on_c, 2, 60, 0
4, 34512, Note_on_c, 2, 62, 64
4, 34534, Note_on_c, 2, 62, 0
4, 34536, Note_on_c, 2, 60, 64
4, 34558, Note_on_c, 2, 60, 0
4, 34560, Note_on_c, 2, 59, 64
4, 34654, Note_on_c, 2, 59, 0
4, 34656, Note_on_c, 2, 64, 65
4, 34750, Note_on_c, 2, 64, 0
4, 34752, Note_on_c, 2, 57, 66
4, 34846, Note_on_c, 2, 57, 0
4, 34848, Note_on_c, 2, 62, 93
4, 34990, Note_on_c, 2, 62, 0
4, 34992, Note_on_c, 2, 64, 68
4, 35038, Note_on_c, 2, 64, 0
4, 35040, Note_on_c, 2, 62, 68
4, 35086, Note_on_c, 2, 62, 0
4, 35088, Note_on_c, 2, 60, 68
4, 35134, Note_on_c, 2, 60, 0
4, 35136, Note_on_c, 2, 59, 68
4, 35230, Note_on_c, 2, 59, 0
4, 35232, Note_on_c, 2, 64, 96
4, 35488, Note_on_c, 2, 64, 0
4, 35520, Note_on_c, 2, 62, 73
4, 35680, Note_on_c, 2, 62, 0
4, 35712, Note_on_c, 2, 60, 76
4, 35758, Note_on_c, 2, 60, 0
4, 35760, Note_on_c, 2, 59, 77
4, 35806, Note_on_c, 2, 59, 0
4, 35808, Note_on_c, 2, 60, 78
4, 35854, Note_on_c, 2, 60, 0
4, 35856, Note_on_c, 2, 57, 79
4, 35902, Note_on_c, 2, 57, 0
4, 35904, Note_on_c, 2, 64, 80
4, 35950, Note_on_c, 2, 64, 0
4, 35952, Note_on_c, 2, 62, 81
4, 35998, Note_on_c, 2, 62, 0
4, 36000, Note_on_c, 2, 60, 82
4, 36046, Note_on_c, 2, 60, 0
4, 36048, Note_on_c, 2, 59, 83
4, 36094, Note_on_c, 2, 59, 0
4, 36096, Note_on_c, 2, 60, 84
4, 36142, Note_on_c, 2, 60, 0
4, 36144, Note_on_c, 2, 57, 85
4, 36190, Note_on_c, 2, 57, 0
4, 36192, Note_on_c, 2, 59, 86
4, 36238, Note_on_c, 2, 59, 0
4, 36240, Note_on_c, 2, 60, 87
4, 36286, Note_on_c, 2, 60, 0
4, 36288, Note_on_c, 2, 62, 88
4, 36334, Note_on_c, 2, 62, 0
4, 36336, Note_on_c, 2, 60, 89
4, 36382, Note_on_c, 2, 60, 0
4, 36384, Note_on_c, 2, 59, 90
4, 36430, Note_on_c, 2, 59, 0
4, 36432, Note_on_c, 2, 57, 91
4, 36478, Note_on_c, 2, 57, 0
4, 36480, Note_on_c, 2, 55, 92
4, 36640, Note_on_c, 2, 55, 0
4, 37728, Note_on_c, 2, 52, 92
4, 37822, Note_on_c, 2, 52, 0
4, 37824, Note_on_c, 2, 54, 92
4, 37918, Note_on_c, 2, 54, 0
4, 37920, Note_on_c, 2, 56, 92
4, 38014, Note_on_c, 2, 56, 0
4, 38016, Note_on_c, 2, 57, 92
4, 38158, Note_on_c, 2, 57, 0
4, 38160, Note_on_c, 2, 59, 92
4, 38182, Note_on_c, 2, 59, 0
4, 38184, Note_on_c, 2, 57, 92
4, 38206, Note_on_c, 2, 57, 0
4, 38208, Note_on_c, 2, 56, 92
4, 38302, Note_on_c, 2, 56, 0
4, 38304, Note_on_c, 2, 60, 92
4, 38398, Note_on_c, 2, 60, 0
4, 38400, Note_on_c, 2, 54, 92
4, 38494, Note_on_c, 2, 54, 0
4, 38496, Note_on_c, 2, 59, 123
4, 38638, Note_on_c, 2, 59, 0
4, 38640, Note_on_c, 2, 60, 82
4, 38686, Note_on_c, 2, 60, 0
4, 38688, Note_on_c, 2, 59, 80
4, 38734, Note_on_c, 2, 59, 0
4, 38736, Note_on_c, 2, 57, 78
4, 38782, Note_on_c, 2, 57, 0
4, 38784, Note_on_c, 2, 56, 76
4, 38878, Note_on_c, 2, 56, 0
4, 38880, Note_on_c, 2, 57, 72
4, 39070, Note_on_c, 2, 57, 0
4, 39072, Note_on_c, 2, 56, 64
4, 39166, Note_on_c, 2, 56, 0
4, 39168, Note_on_c, 2, 57, 60
4, 39328, Note_on_c, 2, 57, 0
4, 39456, Note_on_c, 2, 55, 60
4, 39550, Note_on_c, 2, 55, 0
4, 39552, Note_on_c, 2, 57, 60
4, 39646, Note_on_c, 2, 57, 0
4, 39648, Note_on_c, 2, 59, 60
4, 39742, Note_on_c, 2, 59, 0
4, 39744, Note_on_c, 2, 60, 60
4, 39886, Note_on_c, 2, 60, 0
4, 39888, Note_on_c, 2, 62, 60
4, 39910, Note_on_c, 2, 62, 0
4, 39912, Note_on_c, 2, 60, 60
4, 39934, Note_on_c, 2, 60, 0
4, 39936, Note_on_c, 2, 59, 60
4, 40030, Note_on_c, 2, 59, 0
4, 40032, Note_on_c, 2, 64, 60
4, 40126, Note_on_c, 2, 64, 0
4, 40128, Note_on_c, 2, 57, 60
4, 40222, Note_on_c, 2, 57, 0
4, 40224, Note_on_c, 2, 62, 60
4, 40414, Note_on_c, 2, 62, 0
4, 40416, Note_on_c, 2, 55, 60
4, 40510, Note_on_c, 2, 55, 0
4, 40512, Note_on_c, 2, 62, 60
4, 40672, Note_on_c, 2, 62, 0
4, 40704, Note_on_c, 2, 60, 65
4, 40798, Note_on_c, 2, 60, 0
4, 40800, Note_on_c, 2, 57, 67
4, 40894, Note_on_c, 2, 57, 0
4, 40896, Note_on_c, 2, 64, 69
4, 41056, Note_on_c, 2, 64, 0
4, 41088, Note_on_c, 2, 62, 74
4, 41182, Note_on_c, 2, 62, 0
4, 41568, Note_on_c, 2, 57, 89
4, 41662, Note_on_c, 2, 57, 0
4, 41664, Note_on_c, 2, 59, 92
4, 41758, Note_on_c, 2, 59, 0
4, 41760, Note_on_c, 2, 61, 92
4, 41854, Note_on_c, 2, 61, 0
4, 41856, Note_on_c, 2, 62, 92
4, 41998, Note_on_c, 2, 62, 0
4, 42000, Note_on_c, 2, 64, 92
4, 42022, Note_on_c, 2, 64, 0
4, 42024, Note_on_c, 2, 62, 92
4, 42046, Note_on_c, 2, 62, 0
4, 42048, Note_on_c, 2, 60, 92
4, 42142, Note_on_c, 2, 60, 0
4, 42144, Note_on_c, 2, 65, 92
4, 42238, Note_on_c, 2, 65, 0
4, 42240, Note_on_c, 2, 59, 92
4, 42334, Note_on_c, 2, 59, 0
4, 42336, Note_on_c, 2, 64, 92
4, 42478, Note_on_c, 2, 64, 0
4, 42480, Note_on_c, 2, 65, 92
4, 42526, Note_on_c, 2, 65, 0
4, 42528, Note_on_c, 2, 64, 92
4, 42574, Note_on_c, 2, 64, 0
4, 42576, Note_on_c, 2, 62, 92
4, 42622, Note_on_c, 2, 62, 0
4, 42624, Note_on_c, 2, 61, 92
4, 42718, Note_on_c, 2, 61, 0
4, 43104, Note_on_c, 2, 57, 60
4, 43198, Note_on_c, 2, 57, 0
4, 43200, Note_on_c, 2, 59, 60
4, 43294, Note_on_c, 2, 59, 0
4, 43296, Note_on_c, 2, 61, 60
4, 43390, Note_on_c, 2, 61, 0
4, 43392, Note_on_c, 2, 62, 60
4, 43534, Note_on_c, 2, 62, 0
4, 43536, Note_on_c, 2, 64, 60
4, 43558, Note_on_c, 2, 64, 0
4, 43560, Note_on_c, 2, 62, 60
4, 43582, Note_on_c, 2, 62, 0
4, 43584, Note_on_c, 2, 60, 60
4, 43678, Note_on_c, 2, 60, 0
4, 43680, Note_on_c, 2, 66, 60
4, 43774, Note_on_c, 2, 66, 0
4, 43776, Note_on_c, 2, 59, 60
4, 43870, Note_on_c, 2, 59, 0
4, 43872, Note_on_c, 2, 64, 60
4, 44014, Note_on_c, 2, 64, 0
4, 44016, Note_on_c, 2, 66, 60
4, 44062, Note_on_c, 2, 66, 0
4, 44064, Note_on_c, 2, 64, 60
4, 44110, Note_on_c, 2, 64, 0
4, 44112, Note_on_c, 2, 62, 60
4, 44158, Note_on_c, 2, 62, 0
4, 44160, Note_on_c, 2, 60, 60
4, 44590, Note_on_c, 2, 60, 0
4, 44592, Note_on_c, 2, 62, 60
4, 44638, Note_on_c, 2, 62, 0
4, 44640, Note_on_c, 2, 60, 61
4, 44686, Note_on_c, 2, 60, 0
4, 44688, Note_on_c, 2, 59, 62
4, 44734, Note_on_c, 2, 59, 0
4, 44736, Note_on_c, 2, 57, 63
4, 44782, Note_on_c, 2, 57, 0
4, 44784, Note_on_c, 2, 55, 64
4, 44830, Note_on_c, 2, 55, 0
4, 44832, Note_on_c, 2, 57, 65
4, 44878, Note_on_c, 2, 57, 0
4, 44880, Note_on_c, 2, 54, 66
4, 44926, Note_on_c, 2, 54, 0
4, 44928, Note_on_c, 2, 55, 67
4, 45022, Note_on_c, 2, 55, 0
4, 45024, Note_on_c, 2, 59, 70
4, 45118, Note_on_c, 2, 59, 0
4, 45120, Note_on_c, 2, 60, 73
4, 45214, Note_on_c, 2, 60, 0
4, 45216, Note_on_c, 2, 62, 76
4, 45310, Note_on_c, 2, 62, 0
4, 45312, Note_on_c, 2, 64, 79
4, 45454, Note_on_c, 2, 64, 0
4, 45456, Note_on_c, 2, 65, 83
4, 45478, Note_on_c, 2, 65, 0
4, 45480, Note_on_c, 2, 64, 83
4, 45502, Note_on_c, 2, 64, 0
4, 45504, Note_on_c, 2, 62, 84
4, 45598, Note_on_c, 2, 62, 0
4, 45600, Note_on_c, 2, 67, 88
4, 45694, Note_on_c, 2, 67, 0
4, 45696, Note_on_c, 2, 60, 92
4, 45790, Note_on_c, 2, 60, 0
4, 45792, Note_on_c, 2, 65, 92
4, 45934, Note_on_c, 2, 65, 0
4, 45936, Note_on_c, 2, 67, 92
4, 45982, Note_on_c, 2, 67, 0
4, 45984, Note_on_c, 2, 65, 92
4, 46030, Note_on_c, 2, 65, 0
4, 46032, Note_on_c, 2, 64, 92
4, 46078, Note_on_c, 2, 64, 0
4, 46080, Note_on_c, 2, 62, 92
4, 46240, Note_on_c, 2, 62, 0
4, 46272, Note_on_c, 2, 64, 85
4, 46366, Note_on_c, 2, 64, 0
4, 46368, Note_on_c, 2, 62, 82
4, 46558, Note_on_c, 2, 62, 0
4, 46560, Note_on_c, 2, 55, 76
4, 46654, Note_on_c, 2, 55, 0
4, 46656, Note_on_c, 2, 55, 72
4, 46942, Note_on_c, 2, 55, 0
4, 46944, Note_on_c, 2, 48, 60
4, 47038, Note_on_c, 2, 48, 0
4, 47040, Note_on_c, 2, 50, 60
4, 47134, Note_on_c, 2, 50, 0
4, 47136, Note_on_c, 2, 52, 60
4, 47230, Note_on_c, 2, 52, 0
4, 47232, Note_on_c, 2, 53, 60
4, 47374, Note_on_c, 2, 53, 0
4, 47376, Note_on_c, 2, 55, 60
4, 47398, Note_on_c, 2, 55, 0
4, 47400, Note_on_c, 2, 53, 60
4, 47422, Note_on_c, 2, 53, 0
4, 47424, Note_on_c, 2, 52, 60
4, 47518, Note_on_c, 2, 52, 0
4, 47520, Note_on_c, 2, 57, 60
4, 47614, Note_on_c, 2, 57, 0
4, 47616, Note_on_c, 2, 50, 60
4, 47710, Note_on_c, 2, 50, 0
4, 47712, Note_on_c, 2, 55, 60
4, 47854, Note_on_c, 2, 55, 0
4, 47856, Note_on_c, 2, 57, 60
4, 47902, Note_on_c, 2, 57, 0
4, 47904, Note_on_c, 2, 55, 60
4, 47950, Note_on_c, 2, 55, 0
4, 47952, Note_on_c, 2, 53, 60
4, 47998, Note_on_c, 2, 53, 0
4, 48000, Note_on_c, 2, 52, 60
4, 48046, Note_on_c, 2, 52, 0
4, 48048, Note_on_c, 2, 50, 60
4, 48094, Note_on_c, 2, 50, 0
4, 48096, Note_on_c, 2, 52, 60
4, 48142, Note_on_c, 2, 52, 0
4, 48144, Note_on_c, 2, 53, 60
4, 48190, Note_on_c, 2, 53, 0
4, 48192, Note_on_c, 2, 55, 60
4, 48238, Note_on_c, 2, 55, 0
4, 48240, Note_on_c, 2, 57, 60
4, 48286, Note_on_c, 2, 57, 0
4, 48288, Note_on_c, 2, 58, 60
4, 48334, Note_on_c, 2, 58, 0
4, 48336, Note_on_c, 2, 55, 60
4, 48382, Note_on_c, 2, 55, 0
4, 48384, Note_on_c, 2, 57, 60
4, 48430, Note_on_c, 2, 57, 0
4, 48432, Note_on_c, 2, 52, 60
4, 48478, Note_on_c, 2, 52, 0
4, 48480, Note_on_c, 2, 53, 60
4, 48526, Note_on_c, 2, 53, 0
4, 48528, Note_on_c, 2, 55, 60
4, 48574, Note_on_c, 2, 55, 0
4, 48576, Note_on_c, 2, 57, 60
4, 48622, Note_on_c, 2, 57, 0
4, 48624, Note_on_c, 2, 59, 60
4, 48670, Note_on_c, 2, 59, 0
4, 48672, Note_on_c, 2, 60, 60
4, 48718, Note_on_c, 2, 60, 0
4, 48720, Note_on_c, 2, 57, 60
4, 48766, Note_on_c, 2, 57, 0
4, 48768, Note_on_c, 2, 59, 60
4, 49104, Note_on_c, 2, 59, 0
4, 49152, Note_on_c, 2, 60, 75
4, 49872, Note_on_c, 2, 60, 0
4, 49872, End_track
5, 0, Start_track
5, 0, MIDI_port, 0
5, 0, Title_t, "Staff-3"
5, 0, Program_c, 3, 0
5, 0, Control_c, 3, 7, 127
5, 0, Control_c, 3, 10, 30
5, 768, Note_on_c, 3, 60, 60
5, 1104, Note_on_c, 3, 60, 0
5, 1152, Note_on_c, 3, 60, 60
5, 1488, Note_on_c, 3, 60, 0
5, 1536, Note_on_c, 3, 60, 60
5, 1872, Note_on_c, 3, 60, 0
5, 1920, Note_on_c, 3, 60, 60
5, 2256, Note_on_c, 3, 60, 0
5, 2304, Note_on_c, 3, 59, 60
5, 2640, Note_on_c, 3, 59, 0
5, 2688, Note_on_c, 3, 59, 68
5, 3024, Note_on_c, 3, 59, 0
5, 3072, Note_on_c, 3, 60, 76
5, 3408, Note_on_c, 3, 60, 0
5, 3456, Note_on_c, 3, 60, 84
5, 3792, Note_on_c, 3, 60, 0
5, 3840, Note_on_c, 3, 60, 92
5, 4176, Note_on_c, 3, 60, 0
5, 4224, Note_on_c, 3, 60, 75
5, 4560, Note_on_c, 3, 60, 0
5, 4608, Note_on_c, 3, 60, 60
5, 4944, Note_on_c, 3, 60, 0
5, 4992, Note_on_c, 3, 60, 75
5, 5328, Note_on_c, 3, 60, 0
5, 5376, Note_on_c, 3, 59, 92
5, 5712, Note_on_c, 3, 59, 0
5, 5760, Note_on_c, 3, 59, 75
5, 6096, Note_on_c, 3, 59, 0
5, 6144, Note_on_c, 3, 59, 60
5, 6480, Note_on_c, 3, 59, 0
5, 6528, Note_on_c, 3, 59, 60
5, 6864, Note_on_c, 3, 59, 0
5, 6912, Note_on_c, 3, 57, 45
5, 7248, Note_on_c, 3, 57, 0
5, 7296, Note_on_c, 3, 57, 45
5, 7632, Note_on_c, 3, 57, 0
5, 7680, Note_on_c, 3, 50, 45
5, 8016, Note_on_c, 3, 50, 0
5, 8064, Note_on_c, 3, 50, 45
5, 8400, Note_on_c, 3, 50, 0
5, 8448, Note_on_c, 3, 55, 45
5, 8784, Note_on_c, 3, 55, 0
5, 8832, Note_on_c, 3, 55, 45
5, 9168, Note_on_c, 3, 55, 0
5, 9216, Note_on_c, 3, 55, 54
5, 9552, Note_on_c, 3, 55, 0
5, 9600, Note_on_c, 3, 55, 63
5, 9936, Note_on_c, 3, 55, 0
5, 9984, Note_on_c, 3, 53, 72
5, 10320, Note_on_c, 3, 53, 0
5, 10368, Note_on_c, 3, 53, 82
5, 10704, Note_on_c, 3, 53, 0
5, 10752, Note_on_c, 3, 53, 92
5, 11088, Note_on_c, 3, 53, 0
5, 11136, Note_on_c, 3, 53, 92
5, 11472, Note_on_c, 3, 53, 0
5, 11520, Note_on_c, 3, 52, 82
5, 11856, Note_on_c, 3, 52, 0
5, 11904, Note_on_c, 3, 52, 71
5, 12240, Note_on_c, 3, 52, 0
5, 12288, Note_on_c, 3, 52, 60
5, 12624, Note_on_c, 3, 52, 0
5, 12672, Note_on_c, 3, 52, 60
5, 13008, Note_on_c, 3, 52, 0
5, 13056, Note_on_c, 3, 50, 60
5, 13392, Note_on_c, 3, 50, 0
5, 13440, Note_on_c, 3, 50, 60
5, 13776, Note_on_c, 3, 50, 0
5, 13824, Note_on_c, 3, 43, 45
5, 14160, Note_on_c, 3, 43, 0
5, 14208, Note_on_c, 3, 43, 45
5, 14544, Note_on_c, 3, 43, 0
5, 14592, Note_on_c, 3, 48, 45
5, 14928, Note_on_c, 3, 48, 0
5, 14976, Note_on_c, 3, 48, 45
5, 15312, Note_on_c, 3, 48, 0
5, 15360, Note_on_c, 3, 48, 55
5, 15696, Note_on_c, 3, 48, 0
5, 15744, Note_on_c, 3, 48, 65
5, 16080, Note_on_c, 3, 48, 0
5, 16128, Note_on_c, 3, 41, 75
5, 16464, Note_on_c, 3, 41, 0
5, 16512, Note_on_c, 3, 41, 75
5, 16848, Note_on_c, 3, 41, 0
5, 16896, Note_on_c, 3, 42, 65
5, 17232, Note_on_c, 3, 42, 0
5, 17280, Note_on_c, 3, 42, 55
5, 17616, Note_on_c, 3, 42, 0
5, 17664, Note_on_c, 3, 43, 45
5, 18000, Note_on_c, 3, 43, 0
5, 18048, Note_on_c, 3, 43, 45
5, 18384, Note_on_c, 3, 43, 0
5, 18432, Note_on_c, 3, 44, 45
5, 18768, Note_on_c, 3, 44, 0
5, 18816, Note_on_c, 3, 44, 45
5, 19152, Note_on_c, 3, 44, 0
5, 19200, Note_on_c, 3, 43, 45
5, 19536, Note_on_c, 3, 43, 0
5, 19584, Note_on_c, 3, 43, 49
5, 19920, Note_on_c, 3, 43, 0
5, 19968, Note_on_c, 3, 43, 53
5, 20304, Note_on_c, 3, 43, 0
5, 20352, Note_on_c, 3, 43, 57
5, 20688, Note_on_c, 3, 43, 0
5, 20736, Note_on_c, 3, 43, 62
5, 21072, Note_on_c, 3, 43, 0
5, 21120, Note_on_c, 3, 43, 67
5, 21456, Note_on_c, 3, 43, 0
5, 21504, Note_on_c, 3, 43, 72
5, 21840, Note_on_c, 3, 43, 0
5, 21888, Note_on_c, 3, 43, 77
5, 22224, Note_on_c, 3, 43, 0
5, 22272, Note_on_c, 3, 43, 82
5, 22608, Note_on_c, 3, 43, 0
5, 22656, Note_on_c, 3, 43, 87
5, 22992, Note_on_c, 3, 43, 0
5, 23040, Note_on_c, 3, 43, 92
5, 23376, Note_on_c, 3, 43, 0
5, 23424, Note_on_c, 3, 43, 92
5, 23760, Note_on_c, 3, 43, 0
5, 23808, Note_on_c, 3, 43, 82
5, 24144, Note_on_c, 3, 43, 0
5, 24192, Note_on_c, 3, 43, 71
5, 24528, Note_on_c, 3, 43, 0
5, 24576, Note_on_c, 3, 43, 60
5, 24912, Note_on_c, 3, 43, 0
5, 24960, Note_on_c, 3, 43, 60
5, 25296, Note_on_c, 3, 43, 0
5, 25344, Note_on_c, 3, 36, 45
5, 25680, Note_on_c, 3, 36, 0
5, 25728, Note_on_c, 3, 36, 45
5, 26064, Note_on_c, 3, 36, 0
5, 26112, Note_on_c, 3, 36, 45
5, 26832, Note_on_c, 3, 36, 0
5, 26880, Note_on_c, 3, 36, 45
5, 27600, Note_on_c, 3, 36, 0
5, 27648, Note_on_c, 3, 36, 45
5, 28368, Note_on_c, 3, 36, 0
5, 32736, Note_on_c, 3, 48, 92
5, 32830, Note_on_c, 3, 48, 0
5, 32832, Note_on_c, 3, 50, 92
5, 32926, Note_on_c, 3, 50, 0
5, 32928, Note_on_c, 3, 52, 92
5, 33022, Note_on_c, 3, 52, 0
5, 33024, Note_on_c, 3, 53, 92
5, 33166, Note_on_c, 3, 53, 0
5, 33168, Note_on_c, 3, 55, 92
5, 33190, Note_on_c, 3, 55, 0
5, 33192, Note_on_c, 3, 53, 92
5, 33214, Note_on_c, 3, 53, 0
5, 33216, Note_on_c, 3, 52, 92
5, 33310, Note_on_c, 3, 52, 0
5, 33312, Note_on_c, 3, 57, 92
5, 33406, Note_on_c, 3, 57, 0
5, 33408, Note_on_c, 3, 50, 92
5, 33502, Note_on_c, 3, 50, 0
5, 33504, Note_on_c, 3, 55, 127
5, 33646, Note_on_c, 3, 55, 0
5, 33648, Note_on_c, 3, 57, 92
5, 33694, Note_on_c, 3, 57, 0
5, 33696, Note_on_c, 3, 55, 88
5, 33742, Note_on_c, 3, 55, 0
5, 33744, Note_on_c, 3, 53, 84
5, 33790, Note_on_c, 3, 53, 0
5, 33792, Note_on_c, 3, 52, 80
5, 33838, Note_on_c, 3, 52, 0
5, 33840, Note_on_c, 3, 53, 75
5, 33886, Note_on_c, 3, 53, 0
5, 33888, Note_on_c, 3, 52, 70
5, 33934, Note_on_c, 3, 52, 0
5, 33936, Note_on_c, 3, 50, 65
5, 33982, Note_on_c, 3, 50, 0
5, 33984, Note_on_c, 3, 48, 60
5, 34030, Note_on_c, 3, 48, 0
5, 34032, Note_on_c, 3, 50, 60
5, 34078, Note_on_c, 3, 50, 0
5, 34080, Note_on_c, 3, 48, 60
5, 34126, Note_on_c, 3, 48, 0
5, 34128, Note_on_c, 3, 47, 60
5, 34174, Note_on_c, 3, 47, 0
5, 34176, Note_on_c, 3, 45, 60
5, 34270, Note_on_c, 3, 45, 0
5, 34272, Note_on_c, 3, 50, 61
5, 34366, Note_on_c, 3, 50, 0
5, 34368, Note_on_c, 3, 57, 62
5, 34462, Note_on_c, 3, 57, 0
5, 34464, Note_on_c, 3, 54, 63
5, 34558, Note_on_c, 3, 54, 0
5, 34560, Note_on_c, 3, 55, 64
5, 34606, Note_on_c, 3, 55, 0
5, 34608, Note_on_c, 3, 57, 64
5, 34654, Note_on_c, 3, 57, 0
5, 34656, Note_on_c, 3, 58, 64
5, 34702, Note_on_c, 3, 58, 0
5, 34704, Note_on_c, 3, 55, 64
5, 34750, Note_on_c, 3, 55, 0
5, 34752, Note_on_c, 3, 49, 64
5, 34846, Note_on_c, 3, 49, 0
5, 34848, Note_on_c, 3, 50, 65
5, 34942, Note_on_c, 3, 50, 0
5, 34944, Note_on_c, 3, 57, 66
5, 35104, Note_on_c, 3, 57, 0
5, 35136, Note_on_c, 3, 52, 69
5, 35296, Note_on_c, 3, 52, 0
5, 35328, Note_on_c, 3, 57, 72
5, 35374, Note_on_c, 3, 57, 0
5, 35376, Note_on_c, 3, 59, 72
5, 35422, Note_on_c, 3, 59, 0
5, 35424, Note_on_c, 3, 60, 72
5, 35470, Note_on_c, 3, 60, 0
5, 35472, Note_on_c, 3, 62, 72
5, 35518, Note_on_c, 3, 62, 0
5, 35520, Note_on_c, 3, 60, 72
5, 35566, Note_on_c, 3, 60, 0
5, 35568, Note_on_c, 3, 59, 72
5, 35614, Note_on_c, 3, 59, 0
5, 35616, Note_on_c, 3, 57, 72
5, 35662, Note_on_c, 3, 57, 0
5, 35664, Note_on_c, 3, 55, 73
5, 35710, Note_on_c, 3, 55, 0
5, 35712, Note_on_c, 3, 60, 74
5, 35806, Note_on_c, 3, 60, 0
5, 36576, Note_on_c, 3, 43, 92
5, 36670, Note_on_c, 3, 43, 0
5, 36672, Note_on_c, 3, 45, 92
5, 36766, Note_on_c, 3, 45, 0
5, 36768, Note_on_c, 3, 47, 92
5, 36862, Note_on_c, 3, 47, 0
5, 36864, Note_on_c, 3, 48, 92
5, 37006, Note_on_c, 3, 48, 0
5, 37008, Note_on_c, 3, 50, 87
5, 37030, Note_on_c, 3, 50, 0
5, 37032, Note_on_c, 3, 48, 87
5, 37054, Note_on_c, 3, 48, 0
5, 37056, Note_on_c, 3, 47, 87
5, 37150, Note_on_c, 3, 47, 0
5, 37152, Note_on_c, 3, 52, 83
5, 37246, Note_on_c, 3, 52, 0
5, 37248, Note_on_c, 3, 45, 79
5, 37342, Note_on_c, 3, 45, 0
5, 37344, Note_on_c, 3, 50, 105
5, 37486, Note_on_c, 3, 50, 0
5, 37488, Note_on_c, 3, 52, 75
5, 37534, Note_on_c, 3, 52, 0
5, 37536, Note_on_c, 3, 50, 75
5, 37582, Note_on_c, 3, 50, 0
5, 37584, Note_on_c, 3, 48, 75
5, 37630, Note_on_c, 3, 48, 0
5, 37632, Note_on_c, 3, 47, 75
5, 37726, Note_on_c, 3, 47, 0
5, 37728, Note_on_c, 3, 52, 75
5, 37918, Note_on_c, 3, 52, 0
5, 37920, Note_on_c, 3, 50, 75
5, 38014, Note_on_c, 3, 50, 0
5, 38016, Note_on_c, 3, 48, 75
5, 38110, Note_on_c, 3, 48, 0
5, 38112, Note_on_c, 3, 53, 75
5, 38302, Note_on_c, 3, 53, 0
5, 38304, Note_on_c, 3, 52, 75
5, 38494, Note_on_c, 3, 52, 0
5, 38496, Note_on_c, 3, 50, 75
5, 38686, Note_on_c, 3, 50, 0
5, 38688, Note_on_c, 3, 52, 71
5, 38782, Note_on_c, 3, 52, 0
5, 38784, Note_on_c, 3, 53, 69
5, 38878, Note_on_c, 3, 53, 0
5, 38880, Note_on_c, 3, 52, 67
5, 38926, Note_on_c, 3, 52, 0
5, 38928, Note_on_c, 3, 50, 66
5, 38974, Note_on_c, 3, 50, 0
5, 38976, Note_on_c, 3, 52, 65
5, 39136, Note_on_c, 3, 52, 0
5, 39168, Note_on_c, 3, 45, 60
5, 39328, Note_on_c, 3, 45, 0
5, 40032, Note_on_c, 3, 43, 60
5, 40126, Note_on_c, 3, 43, 0
5, 40128, Note_on_c, 3, 45, 60
5, 40222, Note_on_c, 3, 45, 0
5, 40224, Note_on_c, 3, 47, 60
5, 40318, Note_on_c, 3, 47, 0
5, 40320, Note_on_c, 3, 48, 60
5, 40462, Note_on_c, 3, 48, 0
5, 40464, Note_on_c, 3, 50, 63
5, 40486, Note_on_c, 3, 50, 0
5, 40488, Note_on_c, 3, 48, 63
5, 40510, Note_on_c, 3, 48, 0
5, 40512, Note_on_c, 3, 47, 63
5, 40606, Note_on_c, 3, 47, 0
5, 40608, Note_on_c, 3, 52, 65
5, 40702, Note_on_c, 3, 52, 0
5, 40704, Note_on_c, 3, 45, 67
5, 40798, Note_on_c, 3, 45, 0
5, 40800, Note_on_c, 3, 50, 69
5, 40942, Note_on_c, 3, 50, 0
5, 40944, Note_on_c, 3, 52, 72
5, 40990, Note_on_c, 3, 52, 0
5, 40992, Note_on_c, 3, 50, 73
5, 41038, Note_on_c, 3, 50, 0
5, 41040, Note_on_c, 3, 48, 74
5, 41086, Note_on_c, 3, 48, 0
5, 41088, Note_on_c, 3, 47, 75
5, 41182, Note_on_c, 3, 47, 0
5, 41184, Note_on_c, 3, 46, 77
5, 41278, Note_on_c, 3, 46, 0
5, 41280, Note_on_c, 3, 45, 80
5, 41374, Note_on_c, 3, 45, 0
5, 41376, Note_on_c, 3, 43, 83
5, 41470, Note_on_c, 3, 43, 0
5, 41472, Note_on_c, 3, 45, 86
5, 41566, Note_on_c, 3, 45, 0
5, 41568, Note_on_c, 3, 54, 89
5, 41662, Note_on_c, 3, 54, 0
5, 41664, Note_on_c, 3, 55, 92
5, 41758, Note_on_c, 3, 55, 0
5, 41760, Note_on_c, 3, 52, 92
5, 41854, Note_on_c, 3, 52, 0
5, 41856, Note_on_c, 3, 50, 92
5, 42016, Note_on_c, 3, 50, 0
5, 42048, Note_on_c, 3, 52, 92
5, 42142, Note_on_c, 3, 52, 0
5, 42144, Note_on_c, 3, 53, 92
5, 42238, Note_on_c, 3, 53, 0
5, 42240, Note_on_c, 3, 55, 92
5, 42382, Note_on_c, 3, 55, 0
5, 42384, Note_on_c, 3, 57, 92
5, 42406, Note_on_c, 3, 57, 0
5, 42408, Note_on_c, 3, 55, 92
5, 42430, Note_on_c, 3, 55, 0
5, 42432, Note_on_c, 3, 53, 92
5, 42526, Note_on_c, 3, 53, 0
5, 42528, Note_on_c, 3, 58, 92
5, 42622, Note_on_c, 3, 58, 0
5, 42624, Note_on_c, 3, 52, 92
5, 42718, Note_on_c, 3, 52, 0
5, 42720, Note_on_c, 3, 57, 127
5, 42862, Note_on_c, 3, 57, 0
5, 42864, Note_on_c, 3, 58, 92
5, 42910, Note_on_c, 3, 58, 0
5, 42912, Note_on_c, 3, 57, 92
5, 42958, Note_on_c, 3, 57, 0
5, 42960, Note_on_c, 3, 55, 92
5, 43006, Note_on_c, 3, 55, 0
5, 43008, Note_on_c, 3, 53, 92
5, 43054, Note_on_c, 3, 53, 0
5, 43056, Note_on_c, 3, 52, 88
5, 43102, Note_on_c, 3, 52, 0
5, 43104, Note_on_c, 3, 53, 84
5, 43150, Note_on_c, 3, 53, 0
5, 43152, Note_on_c, 3, 50, 80
5, 43198, Note_on_c, 3, 50, 0
5, 43200, Note_on_c, 3, 55, 76
5, 43294, Note_on_c, 3, 55, 0
5, 43296, Note_on_c, 3, 57, 68
5, 43390, Note_on_c, 3, 57, 0
5, 43392, Note_on_c, 3, 50, 60
5, 43822, Note_on_c, 3, 50, 0
5, 43824, Note_on_c, 3, 52, 60
5, 43870, Note_on_c, 3, 52, 0
5, 43872, Note_on_c, 3, 50, 60
5, 43918, Note_on_c, 3, 50, 0
5, 43920, Note_on_c, 3, 48, 60
5, 43966, Note_on_c, 3, 48, 0
5, 43968, Note_on_c, 3, 47, 60
5, 44014, Note_on_c, 3, 47, 0
5, 44016, Note_on_c, 3, 45, 60
5, 44062, Note_on_c, 3, 45, 0
5, 44064, Note_on_c, 3, 43, 60
5, 44110, Note_on_c, 3, 43, 0
5, 44112, Note_on_c, 3, 42, 60
5, 44158, Note_on_c, 3, 42, 0
5, 44160, Note_on_c, 3, 40, 60
5, 44254, Note_on_c, 3, 40, 0
5, 44256, Note_on_c, 3, 52, 60
5, 44350, Note_on_c, 3, 52, 0
5, 44352, Note_on_c, 3, 54, 60
5, 44446, Note_on_c, 3, 54, 0
5, 44448, Note_on_c, 3, 55, 60
5, 44638, Note_on_c, 3, 55, 0
5, 44640, Note_on_c, 3, 57, 60
5, 44686, Note_on_c, 3, 57, 0
5, 44688, Note_on_c, 3, 55, 61
5, 44734, Note_on_c, 3, 55, 0
5, 44736, Note_on_c, 3, 54, 62
5, 44830, Note_on_c, 3, 54, 0
5, 44832, Note_on_c, 3, 50, 65
5, 44926, Note_on_c, 3, 50, 0
5, 44928, Note_on_c, 3, 55, 68
5, 45648, Note_on_c, 3, 55, 0
5, 45696, Note_on_c, 3, 57, 92
5, 45856, Note_on_c, 3, 57, 0
5, 45888, Note_on_c, 3, 59, 92
5, 45982, Note_on_c, 3, 59, 0
5, 45984, Note_on_c, 3, 60, 92
5, 46078, Note_on_c, 3, 60, 0
5, 46080, Note_on_c, 3, 53, 92
5, 46126, Note_on_c, 3, 53, 0
5, 46128, Note_on_c, 3, 57, 90
5, 46174, Note_on_c, 3, 57, 0
5, 46176, Note_on_c, 3, 55, 88
5, 46222, Note_on_c, 3, 55, 0
5, 46224, Note_on_c, 3, 53, 86
5, 46270, Note_on_c, 3, 53, 0
5, 46272, Note_on_c, 3, 52, 84
5, 46318, Note_on_c, 3, 52, 0
5, 46320, Note_on_c, 3, 50, 82
5, 46366, Note_on_c, 3, 50, 0
5, 46368, Note_on_c, 3, 48, 80
5, 46414, Note_on_c, 3, 48, 0
5, 46416, Note_on_c, 3, 47, 78
5, 46462, Note_on_c, 3, 47, 0
5, 46464, Note_on_c, 3, 48, 76
5, 46510, Note_on_c, 3, 48, 0
5, 46512, Note_on_c, 3, 50, 74
5, 46558, Note_on_c, 3, 50, 0
5, 46560, Note_on_c, 3, 52, 72
5, 46606, Note_on_c, 3, 52, 0
5, 46608, Note_on_c, 3, 53, 70
5, 46654, Note_on_c, 3, 53, 0
5, 46656, Note_on_c, 3, 55, 68
5, 46750, Note_on_c, 3, 55, 0
5, 46752, Note_on_c, 3, 43, 64
5, 46846, Note_on_c, 3, 43, 0
5, 46848, Note_on_c, 3, 48, 60
5, 49872, Note_on_c, 3, 48, 0
5, 49872, End_track
6, 0, Start_track
6, 0, MIDI_port, 0
6, 0, Title_t, "Staff-4"
6, 0, Program_c, 4, 0
6, 0, Control_c, 4, 7, 10
6, 0, Control_c, 4, 10, 64
6, 50496, Note_on_c, 4, 69, 10
6, 50656, Note_on_c, 4, 69, 0
6, 50656, End_track
7, 0, Start_track
7, 1, Copyright_t, "___________________________________________________\012\012KUNSTDERFUGE.COM LARGE CLASSICAL MIDI COLLECTION\012ONCLASSICAL BY ALESSANDRO SIMONETTO, PROPRIETOR\012___________________________________________________\012\012! Attention: this file is under copyright !\012\012(c)onclassical, (c)harfesoft, 2010\012___________________________________________________\012\012NO ONE MAY REPUBLISH THIS FILE WITHOUT PERMISSION\012COMMERCIAL USES OF THIS FILE IS STRICTLY PROHIBITED\012___________________________________________________\012\012Files & contributor's list: http://kunstderfuge.com/\012Terms and conditions: http://kunstderfuge.com/notes.htm"
7, 1, End_track
0, 0, End_of_file