0, 0, Header, 1, 1, 480
1, 0, Start_track
1, 0, Sequence_number, 0
1, 0, Title_t, "B10"
1, 0, Channel_prefix, 0
1, 0, Instrument_name_t, "3"
1, 0, Program_c, 0, 0
1, 0, Tempo, 833333
1, 0, Time_signature, 4, 2, 24, 24
1, 0, Key_signature, 0, "major"
1, 0, Note_on_c, 0, 43, 90
1, 480, Note_off_c, 0, 43, 0
1, 480, Note_on_c, 0, 47, 90
1, 960, Note_off_c, 0, 47, 0
1, 960, Note_on_c, 0, 43, 90
1, 1440, Note_off_c, 0, 43, 0
1, 1440, Note_on_c, 0, 48, 90
1, 1920, Note_off_c, 0, 48, 0
1, 1920, Note_on_c, 0, 50, 90
1, 2400, Note_off_c, 0, 50, 0
1, 2400, Note_on_c, 0, 38, 90
1, 2880, Note_off_c, 0, 38, 0
1, 2880, Note_on_c, 0, 43, 90
1, 3360, Note_off_c, 0, 43, 0
1, 3360, Note_on_c, 0, 55, 90
1, 3840, Note_off_c, 0, 55, 0
1, 3840, Note_on_c, 0, 54, 90
1, 4320, Note_off_c, 0, 54, 0
1, 4320, Note_on_c, 0, 55, 90
1, 4800, Note_off_c, 0, 55, 0
1, 4800, Note_on_c, 0, 57, 90
1, 5280, Note_off_c, 0, 57, 0
1, 5280, Note_on_c, 0, 45, 90
1, 5760, Note_off_c, 0, 45, 0
1, 5760, Note_on_c, 0, 50, 90
1, 6240, Note_off_c, 0, 50, 0
1, 6240, Note_on_c, 0, 62, 90
1, 6360, Note_off_c, 0, 62, 0
1, 6360, Note_on_c, 0, 64, 90
1, 6480, Note_off_c, 0, 64, 0
1, 6480, Note_on_c, 0, 66, 90
1, 6600, Note_off_c, 0, 66, 0
1, 6600, Note_on_c, 0, 67, 90
1, 6720, Note_off_c, 0, 67, 0
1, 6720, Note_on_c, 0, 69, 90
1, 6840, Note_off_c, 0, 69, 0
1, 6840, Note_on_c, 0, 71, 90
1, 6960, Note_off_c, 0, 71, 0
1, 6960, Note_on_c, 0, 72, 90
1, 7080, Note_off_c, 0, 72, 0
1, 7080, Note_on_c, 0, 69, 90
1, 7200, Note_off_c, 0, 69, 0
1, 7200, Note_on_c, 0, 74, 90
1, 7440, Note_off_c, 0, 74, 0
1, 7440, Note_on_c, 0, 71, 90
1, 7680, Note_off_c, 0, 71, 0
1, 7680, Note_on_c, 0, 67, 90
1, 7920, Note_off_c, 0, 67, 0
1, 7920, Note_on_c, 0, 64, 90
1, 8160, Note_off_c, 0, 64, 0
1, 8880, Note_on_c, 0, 55, 90
1, 9240, Note_off_c, 0, 55, 0
1, 9240, Note_on_c, 0, 54, 90
1, 9360, Note_off_c, 0, 54, 0
1, 9360, Note_on_c, 0, 55, 90
1, 9480, Note_off_c, 0, 55, 0
1, 9480, Note_on_c, 0, 57, 90
1, 9600, Note_off_c, 0, 57, 0
1, 9600, Note_on_c, 0, 59, 90
1, 9720, Note_off_c, 0, 59, 0
1, 9720, Note_on_c, 0, 60, 90
1, 9840, Note_off_c, 0, 60, 0
1, 9840, Note_on_c, 0, 62, 90
1, 9960, Note_off_c, 0, 62, 0
1, 9960, Note_on_c, 0, 59, 90
1, 10080, Note_off_c, 0, 59, 0
1, 10080, Note_on_c, 0, 64, 90
1, 10200, Note_off_c, 0, 64, 0
1, 10200, Note_on_c, 0, 62, 90
1, 10320, Note_off_c, 0, 62, 0
1, 10320, Note_on_c, 0, 60, 90
1, 10440, Note_off_c, 0, 60, 0
1, 10440, Note_on_c, 0, 59, 90
1, 10560, Note_off_c, 0, 59, 0
1, 10560, Note_on_c, 0, 57, 90
1, 10680, Note_off_c, 0, 57, 0
1, 10680, Note_on_c, 0, 55, 90
1, 10800, Note_off_c, 0, 55, 0
1, 10800, Note_on_c, 0, 54, 90
1, 10920, Note_off_c, 0, 54, 0
1, 10920, Note_on_c, 0, 52, 90
1, 11040, Note_off_c, 0, 52, 0
1, 11040, Note_on_c, 0, 50, 90
1, 11160, Note_off_c, 0, 50, 0
1, 11160, Note_on_c, 0, 60, 90
1, 11280, Note_off_c, 0, 60, 0
1, 11280, Note_on_c, 0, 59, 90
1, 11400, Note_off_c, 0, 59, 0
1, 11400, Note_on_c, 0, 57, 90
1, 11520, Note_off_c, 0, 57, 0
1, 11520, Note_on_c, 0, 62, 90
1, 11640, Note_off_c, 0, 62, 0
1, 11640, Note_on_c, 0, 60, 90
1, 11760, Note_off_c, 0, 60, 0
1, 11760, Note_on_c, 0, 59, 90
1, 11880, Note_off_c, 0, 59, 0
1, 11880, Note_on_c, 0, 57, 90
1, 12000, Note_off_c, 0, 57, 0
1, 12000, Note_on_c, 0, 55, 90
1, 12120, Note_off_c, 0, 55, 0
1, 12120, Note_on_c, 0, 54, 90
1, 12240, Note_off_c, 0, 54, 0
1, 12240, Note_on_c, 0, 52, 90
1, 12360, Note_off_c, 0, 52, 0
1, 12360, Note_on_c, 0, 50, 90
1, 12480, Note_off_c, 0, 50, 0
1, 12480, Note_on_c, 0, 48, 90
1, 12600, Note_off_c, 0, 48, 0
1, 12600, Note_on_c, 0, 59, 90
1, 12720, Note_off_c, 0, 59, 0
1, 12720, Note_on_c, 0, 57, 90
1, 12840, Note_off_c, 0, 57, 0
1, 12840, Note_on_c, 0, 55, 90
1, 12960, Note_off_c, 0, 55, 0
1, 12960, Note_on_c, 0, 60, 90
1, 13080, Note_off_c, 0, 60, 0
1, 13080, Note_on_c, 0, 59, 90
1, 13200, Note_off_c, 0, 59, 0
1, 13200, Note_on_c, 0, 57, 90
1, 13320, Note_off_c, 0, 57, 0
1, 13320, Note_on_c, 0, 55, 90
1, 13440, Note_off_c, 0, 55, 0
1, 13440, Note_on_c, 0, 54, 90
1, 13560, Note_off_c, 0, 54, 0
1, 13560, Note_on_c, 0, 52, 90
1, 13680, Note_off_c, 0, 52, 0
1, 13680, Note_on_c, 0, 51, 90
1, 13800, Note_off_c, 0, 51, 0
1, 13800, Note_on_c, 0, 49, 90
1, 13920, Note_off_c, 0, 49, 0
1, 13920, Note_on_c, 0, 47, 90
1, 14040, Note_off_c, 0, 47, 0
1, 14040, Note_on_c, 0, 57, 90
1, 14160, Note_off_c, 0, 57, 0
1, 14160, Note_on_c, 0, 55, 90
1, 14280, Note_off_c, 0, 55, 0
1, 14280, Note_on_c, 0, 54, 90
1, 14400, Note_off_c, 0, 54, 0
1, 14400, Note_on_c, 0, 52, 90
1, 14760, Note_off_c, 0, 52, 0
1, 14760, Note_on_c, 0, 51, 90
1, 14880, Note_off_c, 0, 51, 0
1, 14880, Note_on_c, 0, 52, 90
1, 15000, Note_off_c, 0, 52, 0
1, 15000, Note_on_c, 0, 54, 90
1, 15120, Note_off_c, 0, 54, 0
1, 15120, Note_on_c, 0, 55, 90
1, 15240, Note_off_c, 0, 55, 0
1, 15240, Note_on_c, 0, 57, 90
1, 15360, Note_off_c, 0, 57, 0
1, 15360, Note_on_c, 0, 59, 90
1, 15600, Note_off_c, 0, 59, 0
1, 15600, Note_on_c, 0, 52, 90
1, 15840, Note_off_c, 0, 52, 0
1, 15840, Note_on_c, 0, 57, 90
1, 16080, Note_off_c, 0, 57, 0
1, 16080, Note_on_c, 0, 54, 90
1, 16320, Note_off_c, 0, 54, 0
1, 16320, Note_on_c, 0, 59, 90
1, 17040, Note_off_c, 0, 59, 0
1, 17040, Note_on_c, 0, 57, 90
1, 17280, Note_off_c, 0, 57, 0
1, 17280, Note_on_c, 0, 56, 90
1, 17520, Note_off_c, 0, 56, 0
1, 17520, Note_on_c, 0, 57, 90
1, 17640, Note_off_c, 0, 57, 0
1, 17640, Note_on_c, 0, 59, 90
1, 17760, Note_off_c, 0, 59, 0
1, 17760, Note_on_c, 0, 60, 90
1, 18000, Note_off_c, 0, 60, 0
1, 18000, Note_on_c, 0, 59, 90
1, 18240, Note_off_c, 0, 59, 0
1, 18240, Note_on_c, 0, 57, 90
1, 18480, Note_off_c, 0, 57, 0
1, 18480, Note_on_c, 0, 60, 90
1, 18960, Note_off_c, 0, 60, 0
1, 18960, Note_on_c, 0, 59, 90
1, 19080, Note_off_c, 0, 59, 0
1, 19080, Note_on_c, 0, 57, 90
1, 19200, Note_off_c, 0, 57, 0
1, 19200, Note_on_c, 0, 56, 90
1, 19440, Note_off_c, 0, 56, 0
1, 19440, Note_on_c, 0, 59, 90
1, 19680, Note_off_c, 0, 59, 0
1, 19680, Note_on_c, 0, 56, 90
1, 19920, Note_off_c, 0, 56, 0
1, 19920, Note_on_c, 0, 52, 90
1, 20160, Note_off_c, 0, 52, 0
1, 20160, Note_on_c, 0, 54, 90
1, 20400, Note_off_c, 0, 54, 0
1, 20400, Note_on_c, 0, 56, 90
1, 20640, Note_off_c, 0, 56, 0
1, 20640, Note_on_c, 0, 57, 90
1, 20880, Note_off_c, 0, 57, 0
1, 20880, Note_on_c, 0, 51, 90
1, 21120, Note_off_c, 0, 51, 0
1, 21120, Note_on_c, 0, 52, 90
1, 21360, Note_off_c, 0, 52, 0
1, 21360, Note_on_c, 0, 55, 90
1, 21600, Note_off_c, 0, 55, 0
1, 21600, Note_on_c, 0, 57, 90
1, 22560, Note_off_c, 0, 57, 0
1, 22560, Note_on_c, 0, 57, 90
1, 22680, Note_off_c, 0, 57, 0
1, 22680, Note_on_c, 0, 60, 90
1, 22800, Note_off_c, 0, 60, 0
1, 22800, Note_on_c, 0, 59, 90
1, 22920, Note_off_c, 0, 59, 0
1, 22920, Note_on_c, 0, 57, 90
1, 23040, Note_off_c, 0, 57, 0
1, 23040, Note_on_c, 0, 55, 90
1, 24000, Note_off_c, 0, 55, 0
1, 24000, Note_on_c, 0, 55, 90
1, 24120, Note_off_c, 0, 55, 0
1, 24120, Note_on_c, 0, 59, 90
1, 24240, Note_off_c, 0, 59, 0
1, 24240, Note_on_c, 0, 57, 90
1, 24360, Note_off_c, 0, 57, 0
1, 24360, Note_on_c, 0, 55, 90
1, 24480, Note_off_c, 0, 55, 0
1, 24480, Note_on_c, 0, 54, 90
1, 24960, Note_off_c, 0, 54, 0
1, 24960, Note_on_c, 0, 54, 90
1, 25440, Note_off_c, 0, 54, 0
1, 25440, Note_on_c, 0, 54, 90
1, 25560, Note_off_c, 0, 54, 0
1, 25560, Note_on_c, 0, 57, 90
1, 25680, Note_off_c, 0, 57, 0
1, 25680, Note_on_c, 0, 55, 90
1, 25800, Note_off_c, 0, 55, 0
1, 25800, Note_on_c, 0, 54, 90
1, 25920, Note_off_c, 0, 54, 0
1, 25920, Note_on_c, 0, 52, 90
1, 26880, Note_off_c, 0, 52, 0
1, 26880, Note_on_c, 0, 52, 90
1, 27000, Note_off_c, 0, 52, 0
1, 27000, Note_on_c, 0, 55, 90
1, 27120, Note_off_c, 0, 55, 0
1, 27120, Note_on_c, 0, 54, 90
1, 27240, Note_off_c, 0, 54, 0
1, 27240, Note_on_c, 0, 52, 90
1, 27360, Note_off_c, 0, 52, 0
1, 27360, Note_on_c, 0, 50, 90
1, 27840, Note_off_c, 0, 50, 0
1, 27840, Note_on_c, 0, 55, 90
1, 28320, Note_off_c, 0, 55, 0
1, 28320, Note_on_c, 0, 54, 90
1, 28800, Note_off_c, 0, 54, 0
1, 28800, Note_on_c, 0, 52, 90
1, 29280, Note_off_c, 0, 52, 0
1, 29280, Note_on_c, 0, 54, 90
1, 29760, Note_off_c, 0, 54, 0
1, 29760, Note_on_c, 0, 42, 90
1, 30240, Note_off_c, 0, 42, 0
1, 30240, Note_on_c, 0, 47, 90
1, 30720, Note_off_c, 0, 47, 0
1, 30720, Note_on_c, 0, 47, 90
1, 30840, Note_off_c, 0, 47, 0
1, 30840, Note_on_c, 0, 45, 90
1, 30960, Note_off_c, 0, 45, 0
1, 30960, Note_on_c, 0, 47, 90
1, 31080, Note_off_c, 0, 47, 0
1, 31080, Note_on_c, 0, 48, 90
1, 31200, Note_off_c, 0, 48, 0
1, 31200, Note_on_c, 0, 50, 90
1, 31320, Note_off_c, 0, 50, 0
1, 31320, Note_on_c, 0, 52, 90
1, 31440, Note_off_c, 0, 52, 0
1, 31440, Note_on_c, 0, 53, 90
1, 31560, Note_off_c, 0, 53, 0
1, 31560, Note_on_c, 0, 48, 90
1, 31680, Note_off_c, 0, 48, 0
1, 31680, Note_on_c, 0, 50, 90
1, 31800, Note_off_c, 0, 50, 0
1, 31800, Note_on_c, 0, 52, 90
1, 31920, Note_off_c, 0, 52, 0
1, 31920, Note_on_c, 0, 50, 90
1, 32040, Note_off_c, 0, 50, 0
1, 32040, Note_on_c, 0, 48, 90
1, 32160, Note_off_c, 0, 48, 0
1, 32160, Note_on_c, 0, 47, 90
1, 32280, Note_off_c, 0, 47, 0
1, 32280, Note_on_c, 0, 45, 90
1, 32400, Note_off_c, 0, 45, 0
1, 32400, Note_on_c, 0, 44, 90
1, 32520, Note_off_c, 0, 44, 0
1, 32520, Note_on_c, 0, 42, 90
1, 32640, Note_off_c, 0, 42, 0
1, 32640, Note_on_c, 0, 40, 90
1, 32760, Note_off_c, 0, 40, 0
1, 32760, Note_on_c, 0, 50, 90
1, 32880, Note_off_c, 0, 50, 0
1, 32880, Note_on_c, 0, 48, 90
1, 33000, Note_off_c, 0, 48, 0
1, 33000, Note_on_c, 0, 47, 90
1, 33120, Note_off_c, 0, 47, 0
1, 33120, Note_on_c, 0, 45, 90
1, 33720, Note_off_c, 0, 45, 0
1, 33720, Note_on_c, 0, 44, 90
1, 33840, Note_off_c, 0, 44, 0
1, 33840, Note_on_c, 0, 45, 90
1, 33960, Note_off_c, 0, 45, 0
1, 33960, Note_on_c, 0, 47, 90
1, 34080, Note_off_c, 0, 47, 0
1, 34080, Note_on_c, 0, 48, 90
1, 34200, Note_off_c, 0, 48, 0
1, 34200, Note_on_c, 0, 50, 90
1, 34320, Note_off_c, 0, 50, 0
1, 34320, Note_on_c, 0, 52, 90
1, 34440, Note_off_c, 0, 52, 0
1, 34440, Note_on_c, 0, 47, 90
1, 34560, Note_off_c, 0, 47, 0
1, 34560, Note_on_c, 0, 48, 90
1, 34680, Note_off_c, 0, 48, 0
1, 34680, Note_on_c, 0, 50, 90
1, 34800, Note_off_c, 0, 50, 0
1, 34800, Note_on_c, 0, 48, 90
1, 34920, Note_off_c, 0, 48, 0
1, 34920, Note_on_c, 0, 47, 90
1, 35040, Note_off_c, 0, 47, 0
1, 35040, Note_on_c, 0, 45, 90
1, 35160, Note_off_c, 0, 45, 0
1, 35160, Note_on_c, 0, 43, 90
1, 35280, Note_off_c, 0, 43, 0
1, 35280, Note_on_c, 0, 42, 90
1, 35400, Note_off_c, 0, 42, 0
1, 35400, Note_on_c, 0, 40, 90
1, 35520, Note_off_c, 0, 40, 0
1, 35520, Note_on_c, 0, 38, 90
1, 35640, Note_off_c, 0, 38, 0
1, 35640, Note_on_c, 0, 48, 90
1, 35760, Note_off_c, 0, 48, 0
1, 35760, Note_on_c, 0, 47, 90
1, 35880, Note_off_c, 0, 47, 0
1, 35880, Note_on_c, 0, 45, 90
1, 36000, Note_off_c, 0, 45, 0
1, 36000, Note_on_c, 0, 43, 90
1, 36240, Note_off_c, 0, 43, 0
1, 36240, Note_on_c, 0, 47, 90
1, 36480, Note_off_c, 0, 47, 0
1, 36480, Note_on_c, 0, 50, 90
1, 36720, Note_off_c, 0, 50, 0
1, 36720, Note_on_c, 0, 54, 90
1, 36960, Note_off_c, 0, 54, 0
1, 36960, Note_on_c, 0, 55, 90
1, 37200, Note_off_c, 0, 55, 0
1, 37200, Note_on_c, 0, 59, 90
1, 37440, Note_off_c, 0, 59, 0
1, 37440, Note_on_c, 0, 60, 90
1, 37680, Note_off_c, 0, 60, 0
1, 37680, Note_on_c, 0, 57, 90
1, 37920, Note_off_c, 0, 57, 0
1, 37920, Note_on_c, 0, 62, 90
1, 38520, Note_off_c, 0, 62, 0
1, 38520, Note_on_c, 0, 64, 90
1, 38640, Note_off_c, 0, 64, 0
1, 38640, Note_on_c, 0, 62, 90
1, 38760, Note_off_c, 0, 62, 0
1, 38760, Note_on_c, 0, 60, 90
1, 38880, Note_off_c, 0, 60, 0
1, 38880, Note_on_c, 0, 59, 90
1, 39120, Note_off_c, 0, 59, 0
1, 39120, Note_on_c, 0, 55, 90
1, 39360, Note_off_c, 0, 55, 0
1, 39360, Note_on_c, 0, 60, 90
1, 39960, Note_off_c, 0, 60, 0
1, 39960, Note_on_c, 0, 62, 90
1, 40080, Note_off_c, 0, 62, 0
1, 40080, Note_on_c, 0, 60, 90
1, 40200, Note_off_c, 0, 60, 0
1, 40200, Note_on_c, 0, 59, 90
1, 40320, Note_off_c, 0, 59, 0
1, 40320, Note_on_c, 0, 57, 90
1, 40560, Note_off_c, 0, 57, 0
1, 40560, Note_on_c, 0, 54, 90
1, 40800, Note_off_c, 0, 54, 0
1, 40800, Note_on_c, 0, 59, 90
1, 41400, Note_off_c, 0, 59, 0
1, 41400, Note_on_c, 0, 60, 90
1, 41520, Note_off_c, 0, 60, 0
1, 41520, Note_on_c, 0, 59, 90
1, 41640, Note_off_c, 0, 59, 0
1, 41640, Note_on_c, 0, 57, 90
1, 41760, Note_off_c, 0, 57, 0
1, 41760, Note_on_c, 0, 55, 90
1, 42000, Note_off_c, 0, 55, 0
1, 42000, Note_on_c, 0, 52, 90
1, 42240, Note_off_c, 0, 52, 0
1, 42240, Note_on_c, 0, 57, 90
1, 42840, Note_off_c, 0, 57, 0
1, 42840, Note_on_c, 0, 59, 90
1, 42960, Note_off_c, 0, 59, 0
1, 42960, Note_on_c, 0, 57, 90
1, 43080, Note_off_c, 0, 57, 0
1, 43080, Note_on_c, 0, 55, 90
1, 43200, Note_off_c, 0, 55, 0
1, 43200, Note_on_c, 0, 54, 90
1, 43320, Note_off_c, 0, 54, 0
1, 43320, Note_on_c, 0, 52, 90
1, 43440, Note_off_c, 0, 52, 0
1, 43440, Note_on_c, 0, 50, 90
1, 43560, Note_off_c, 0, 50, 0
1, 43560, Note_on_c, 0, 48, 90
1, 43680, Note_off_c, 0, 48, 0
1, 43680, Note_on_c, 0, 47, 90
1, 43800, Note_off_c, 0, 47, 0
1, 43800, Note_on_c, 0, 45, 90
1, 43920, Note_off_c, 0, 45, 0
1, 43920, Note_on_c, 0, 43, 90
1, 44040, Note_off_c, 0, 43, 0
1, 44040, Note_on_c, 0, 42, 90
1, 44160, Note_off_c, 0, 42, 0
1, 44160, Note_on_c, 0, 43, 90
1, 44280, Note_off_c, 0, 43, 0
1, 44280, Note_on_c, 0, 45, 90
1, 44400, Note_off_c, 0, 45, 0
1, 44400, Note_on_c, 0, 47, 90
1, 44520, Note_off_c, 0, 47, 0
1, 44520, Note_on_c, 0, 43, 90
1, 44640, Note_off_c, 0, 43, 0
1, 44640, Note_on_c, 0, 48, 90
1, 44760, Note_off_c, 0, 48, 0
1, 44760, Note_on_c, 0, 45, 90
1, 44880, Note_off_c, 0, 45, 0
1, 44880, Note_on_c, 0, 47, 90
1, 45000, Note_off_c, 0, 47, 0
1, 45000, Note_on_c, 0, 48, 90
1, 45120, Note_off_c, 0, 48, 0
1, 45120, Note_on_c, 0, 50, 90
1, 45360, Note_off_c, 0, 50, 0
1, 45360, Note_on_c, 0, 48, 90
1, 45600, Note_off_c, 0, 48, 0
1, 45600, Note_on_c, 0, 50, 90
1, 45840, Note_off_c, 0, 50, 0
1, 45840, Note_on_c, 0, 38, 90
1, 46080, Note_off_c, 0, 38, 0
1, 46080, Note_on_c, 0, 43, 90
1, 47520, Note_off_c, 0, 43, 0
1, 47520, End_track
0, 0, End_of_file