0, 0, Header, 1, 12, 384
1, 0, Start_track
1, 0, Time_signature, 4, 2, 96, 8
1, 0, Sequencer_specific, 03, 00, 00, 41
1, 0, Sequencer_specific, 05, 00, 00, 77, 0E, 00
1, 0, Tempo, 1500000
1, 48, Tempo, 1463414
1, 96, Tempo, 1428571
1, 144, Tempo, 1395348
1, 192, Tempo, 1363636
1, 240, Tempo, 1333333
1, 288, Tempo, 1304347
1, 336, Tempo, 1276595
1, 384, Tempo, 1250000
1, 1536, Tempo, 1363636
1, 1584, Tempo, 1333333
1, 1632, Tempo, 1304347
1, 1680, Tempo, 1276595
1, 1728, Tempo, 1250000
1, 4608, Tempo, 1333333
1, 4656, Tempo, 1333333
1, 4704, Tempo, 1304347
1, 4752, Tempo, 1276595
1, 4800, Tempo, 1250000
1, 4992, Tempo, 1250000
1, 5088, Tempo, 1276595
1, 5184, Tempo, 1304347
1, 5280, Tempo, 1333333
1, 5376, Tempo, 1428571
1, 5440, Tempo, 1395348
1, 5504, Tempo, 1363636
1, 5568, Tempo, 1333333
1, 5632, Tempo, 1304347
1, 5696, Tempo, 1276595
1, 5760, Tempo, 1250000
1, 6912, Tempo, 1363636
1, 6960, Tempo, 1333333
1, 7008, Tempo, 1304347
1, 7056, Tempo, 1276595
1, 7104, Tempo, 1250000
1, 8448, Tempo, 1500000
1, 8496, Tempo, 1463414
1, 8544, Tempo, 1428571
1, 8592, Tempo, 1395348
1, 8640, Tempo, 1363636
1, 8704, Tempo, 1304347
1, 8768, Tempo, 1276595
1, 8832, Tempo, 1250000
1, 9600, Tempo, 1500000
1, 9612, Tempo, 1463414
1, 9624, Tempo, 1428571
1, 9636, Tempo, 1395348
1, 9648, Tempo, 1363636
1, 9660, Tempo, 1333333
1, 9672, Tempo, 1304347
1, 9684, Tempo, 1276595
1, 9696, Tempo, 1250000
1, 9984, Tempo, 1428571
1, 10000, Tempo, 1395348
1, 10016, Tempo, 1363636
1, 10032, Tempo, 1333333
1, 10048, Tempo, 1304347
1, 10064, Tempo, 1276595
1, 10080, Tempo, 1250000
1, 10368, Tempo, 1250000
1, 10464, Tempo, 1276595
1, 10560, Tempo, 1304347
1, 10656, Tempo, 1333333
1, 10752, Tempo, 1500000
1, 10848, Tempo, 1333333
1, 10944, Tempo, 1304347
1, 11328, Tempo, 1304347
1, 11376, Tempo, 1333333
1, 11424, Tempo, 1363636
1, 11472, Tempo, 1395348
1, 11520, Tempo, 1500000
1, 11808, Tempo, 1500000
1, 11812, Tempo, 1538461
1, 11820, Tempo, 1578947
1, 11824, Tempo, 1621621
1, 11832, Tempo, 1666666
1, 11840, Tempo, 1714285
1, 11844, Tempo, 1764705
1, 11852, Tempo, 1818181
1, 11856, Tempo, 1875000
1, 11864, Tempo, 1935483
1, 11872, Tempo, 2000000
1, 11876, Tempo, 2068965
1, 11884, Tempo, 2142857
1, 11888, Tempo, 2222222
1, 11896, Tempo, 2307692
1, 11904, Tempo, 1875000
1, 12288, Tempo, 1250000
1, 12336, Tempo, 1463414
1, 12384, Tempo, 1428571
1, 12432, Tempo, 1395348
1, 12480, Tempo, 1363636
1, 12528, Tempo, 1333333
1, 12576, Tempo, 1304347
1, 12624, Tempo, 1276595
1, 12672, Tempo, 1250000
1, 13440, Tempo, 1428571
1, 13456, Tempo, 1395348
1, 13472, Tempo, 1363636
1, 13488, Tempo, 1333333
1, 13504, Tempo, 1304347
1, 13520, Tempo, 1276595
1, 13536, Tempo, 1250000
1, 13824, Tempo, 1250000
1, 13856, Tempo, 1395348
1, 13888, Tempo, 1363636
1, 13920, Tempo, 1333333
1, 13952, Tempo, 1304347
1, 13984, Tempo, 1276595
1, 14016, Tempo, 1250000
1, 14592, Tempo, 1428571
1, 14608, Tempo, 1395348
1, 14624, Tempo, 1363636
1, 14640, Tempo, 1333333
1, 14656, Tempo, 1304347
1, 14672, Tempo, 1276595
1, 14688, Tempo, 1250000
1, 15072, Tempo, 1250000
1, 15128, Tempo, 1276595
1, 15184, Tempo, 1304347
1, 15244, Tempo, 1333333
1, 15300, Tempo, 1363636
1, 15360, Tempo, 1500000
1, 15372, Tempo, 1463414
1, 15384, Tempo, 1428571
1, 15396, Tempo, 1395348
1, 15408, Tempo, 1363636
1, 15420, Tempo, 1333333
1, 15432, Tempo, 1304347
1, 15444, Tempo, 1276595
1, 15456, Tempo, 1250000
1, 17664, Tempo, 1500000
1, 17676, Tempo, 1463414
1, 17688, Tempo, 1428571
1, 17700, Tempo, 1395348
1, 17712, Tempo, 1363636
1, 17724, Tempo, 1333333
1, 17736, Tempo, 1304347
1, 17748, Tempo, 1276595
1, 17760, Tempo, 1250000
1, 19200, Tempo, 1428571
1, 19232, Tempo, 1395348
1, 19264, Tempo, 1363636
1, 19296, Tempo, 1333333
1, 19328, Tempo, 1304347
1, 19360, Tempo, 1276595
1, 19392, Tempo, 1250000
1, 20448, Tempo, 1250000
1, 20520, Tempo, 1276595
1, 20592, Tempo, 1304347
1, 20664, Tempo, 1333333
1, 20736, Tempo, 1500000
1, 20748, Tempo, 1463414
1, 20760, Tempo, 1428571
1, 20772, Tempo, 1395348
1, 20784, Tempo, 1363636
1, 20796, Tempo, 1333333
1, 20808, Tempo, 1304347
1, 20820, Tempo, 1276595
1, 20832, Tempo, 1250000
1, 21216, Tempo, 1250000
1, 21272, Tempo, 1276595
1, 21328, Tempo, 1304347
1, 21388, Tempo, 1333333
1, 21444, Tempo, 1363636
1, 21504, Tempo, 1578947
1, 21520, Tempo, 1538461
1, 21536, Tempo, 1500000
1, 21552, Tempo, 1463414
1, 21568, Tempo, 1428571
1, 21584, Tempo, 1395348
1, 21600, Tempo, 1363636
1, 21648, Tempo, 1333333
1, 21696, Tempo, 1304347
1, 21744, Tempo, 1276595
1, 21792, Tempo, 1250000
1, 22464, Tempo, 1250000
1, 22608, Tempo, 1276595
1, 22752, Tempo, 1304347
1, 22896, Tempo, 1333333
1, 23040, Tempo, 1714285
1, 23048, Tempo, 1666666
1, 23056, Tempo, 1621621
1, 23068, Tempo, 1578947
1, 23076, Tempo, 1538461
1, 23088, Tempo, 1500000
1, 23096, Tempo, 1463414
1, 23104, Tempo, 1428571
1, 23116, Tempo, 1395348
1, 23124, Tempo, 1363636
1, 23136, Tempo, 1333333
1, 23248, Tempo, 1395348
1, 23360, Tempo, 1428571
1, 23472, Tempo, 1463414
1, 23584, Tempo, 1500000
1, 23616, Tempo, 1578947
1, 23640, Tempo, 1621621
1, 23664, Tempo, 1666666
1, 23688, Tempo, 1714285
1, 23712, Tempo, 1764705
1, 23736, Tempo, 1818181
1, 23760, Tempo, 1875000
1, 23784, Tempo, 1935483
1, 23808, Tempo, 2000000
1, 24096, Tempo, 2857142
1, 24192, Tempo, 3000000
1, 24576, Tempo, 1000000
1, 24576, End_track
2, 0, Start_track
2, 0, Title_t, "Johann Sebastian Bach"
2, 0, Control_c, 0, 0, 0
2, 0, Program_c, 0, 6
2, 0, Control_c, 0, 7, 127
2, 0, Control_c, 0, 10, 0
2, 0, Control_c, 0, 91, 127
2, 0, Key_signature, 1, "major"
2, 0, Note_on_c, 0, 71, 64
2, 188, Note_off_c, 0, 71, 100
2, 192, Note_on_c, 0, 69, 64
2, 380, Note_off_c, 0, 69, 100
2, 384, Note_on_c, 0, 71, 64
2, 572, Note_off_c, 0, 71, 100
2, 576, Note_on_c, 0, 72, 64
2, 764, Note_off_c, 0, 72, 100
2, 768, Note_on_c, 0, 74, 64
2, 956, Note_off_c, 0, 74, 100
2, 960, Note_on_c, 0, 69, 64
2, 1148, Note_off_c, 0, 69, 100
2, 1152, Note_on_c, 0, 74, 64
2, 1340, Note_off_c, 0, 74, 100
2, 1344, Note_on_c, 0, 72, 64
2, 1532, Note_off_c, 0, 72, 100
2, 1536, Note_on_c, 0, 71, 64
2, 1664, Note_off_c, 0, 71, 100
2, 1728, Note_on_c, 0, 74, 64
2, 1916, Note_off_c, 0, 74, 100
2, 1920, Note_on_c, 0, 79, 64
2, 2300, Note_off_c, 0, 79, 100
2, 2496, Note_on_c, 0, 81, 64
2, 2588, Note_off_c, 0, 81, 100
2, 2592, Note_on_c, 0, 79, 64
2, 2684, Note_off_c, 0, 79, 100
2, 2688, Note_on_c, 0, 78, 64
2, 3068, Note_off_c, 0, 78, 100
2, 3072, Note_on_c, 0, 79, 64
2, 3200, Note_off_c, 0, 79, 100
2, 3264, Note_on_c, 0, 78, 64
2, 3452, Note_off_c, 0, 78, 100
2, 3456, Note_on_c, 0, 79, 64
2, 3644, Note_off_c, 0, 79, 100
2, 3648, Note_on_c, 0, 81, 64
2, 3836, Note_off_c, 0, 81, 100
2, 3840, Note_on_c, 0, 83, 64
2, 4028, Note_off_c, 0, 83, 100
2, 4032, Note_on_c, 0, 78, 64
2, 4220, Note_off_c, 0, 78, 100
2, 4224, Note_on_c, 0, 83, 64
2, 4412, Note_off_c, 0, 83, 100
2, 4416, Note_on_c, 0, 81, 64
2, 4604, Note_off_c, 0, 81, 100
2, 4608, Note_on_c, 0, 79, 64
2, 4736, Note_off_c, 0, 79, 100
2, 4800, Note_on_c, 0, 81, 64
2, 4892, Note_off_c, 0, 81, 100
2, 4896, Note_on_c, 0, 83, 64
2, 4988, Note_off_c, 0, 83, 100
2, 4992, Note_on_c, 0, 84, 64
2, 5564, Note_off_c, 0, 84, 100
2, 5568, Note_on_c, 0, 83, 64
2, 5660, Note_off_c, 0, 83, 100
2, 5664, Note_on_c, 0, 81, 64
2, 5756, Note_off_c, 0, 81, 100
2, 5760, Note_on_c, 0, 83, 64
2, 5948, Note_off_c, 0, 83, 100
2, 5952, Note_on_c, 0, 71, 64
2, 6140, Note_off_c, 0, 71, 100
2, 6144, Note_on_c, 0, 73, 64
2, 6272, Note_off_c, 0, 73, 100
2, 6336, Note_on_c, 0, 71, 64
2, 6524, Note_off_c, 0, 71, 100
2, 6528, Note_on_c, 0, 73, 64
2, 6716, Note_off_c, 0, 73, 100
2, 6720, Note_on_c, 0, 75, 64
2, 6908, Note_off_c, 0, 75, 100
2, 6912, Note_on_c, 0, 76, 64
2, 7100, Note_off_c, 0, 76, 100
2, 7104, Note_on_c, 0, 71, 64
2, 7292, Note_off_c, 0, 71, 100
2, 7296, Note_on_c, 0, 76, 64
2, 7484, Note_off_c, 0, 76, 100
2, 7488, Note_on_c, 0, 74, 64
2, 7676, Note_off_c, 0, 74, 100
2, 7680, Note_on_c, 0, 72, 64
2, 7808, Note_off_c, 0, 72, 100
2, 7872, Note_on_c, 0, 74, 64
2, 7964, Note_off_c, 0, 74, 100
2, 7968, Note_on_c, 0, 76, 64
2, 8060, Note_off_c, 0, 76, 100
2, 8064, Note_on_c, 0, 77, 64
2, 8636, Note_off_c, 0, 77, 100
2, 8640, Note_on_c, 0, 76, 64
2, 8732, Note_off_c, 0, 76, 100
2, 8736, Note_on_c, 0, 74, 64
2, 8828, Note_off_c, 0, 74, 100
2, 8832, Note_on_c, 0, 76, 64
2, 8924, Note_off_c, 0, 76, 100
2, 8928, Note_on_c, 0, 78, 64
2, 9020, Note_off_c, 0, 78, 100
2, 9024, Note_on_c, 0, 79, 64
2, 9404, Note_off_c, 0, 79, 100
2, 9408, Note_on_c, 0, 78, 64
2, 9788, Note_off_c, 0, 78, 100
2, 9792, Note_on_c, 0, 76, 64
2, 9980, Note_off_c, 0, 76, 100
2, 9984, Note_on_c, 0, 78, 64
2, 10172, Note_off_c, 0, 78, 100
2, 10176, Note_on_c, 0, 79, 64
2, 10304, Note_off_c, 0, 79, 100
2, 10368, Note_on_c, 0, 81, 64
2, 10496, Note_off_c, 0, 81, 100
2, 10560, Note_on_c, 0, 79, 64
2, 10688, Note_off_c, 0, 79, 100
2, 10752, Note_on_c, 0, 78, 64
2, 11132, Note_off_c, 0, 78, 100
2, 11136, Note_on_c, 0, 76, 64
2, 11516, Note_off_c, 0, 76, 100
2, 11520, Note_on_c, 0, 74, 64
2, 12160, Note_off_c, 0, 74, 100
2, 13824, Note_on_c, 0, 74, 64
2, 14012, Note_off_c, 0, 74, 100
2, 14016, Note_on_c, 0, 71, 64
2, 14204, Note_off_c, 0, 71, 100
2, 14208, Note_on_c, 0, 73, 64
2, 14396, Note_off_c, 0, 73, 100
2, 14400, Note_on_c, 0, 75, 64
2, 14588, Note_off_c, 0, 75, 100
2, 14592, Note_on_c, 0, 76, 64
2, 14780, Note_off_c, 0, 76, 100
2, 14784, Note_on_c, 0, 71, 64
2, 14972, Note_off_c, 0, 71, 100
2, 14976, Note_on_c, 0, 76, 64
2, 15164, Note_off_c, 0, 76, 100
2, 15168, Note_on_c, 0, 78, 64
2, 15356, Note_off_c, 0, 78, 100
2, 15360, Note_on_c, 0, 79, 64
2, 15488, Note_off_c, 0, 79, 100
2, 15552, Note_on_c, 0, 73, 64
2, 15740, Note_off_c, 0, 73, 100
2, 15744, Note_on_c, 0, 77, 64
2, 16316, Note_off_c, 0, 77, 100
2, 16320, Note_on_c, 0, 76, 64
2, 16412, Note_off_c, 0, 76, 100
2, 16416, Note_on_c, 0, 75, 64
2, 16508, Note_off_c, 0, 75, 100
2, 16512, Note_on_c, 0, 76, 64
2, 16700, Note_off_c, 0, 76, 100
2, 17088, Note_on_c, 0, 72, 64
2, 17468, Note_off_c, 0, 72, 100
2, 17472, Note_on_c, 0, 71, 64
2, 17564, Note_off_c, 0, 71, 100
2, 17568, Note_on_c, 0, 69, 64
2, 17660, Note_off_c, 0, 69, 100
2, 17664, Note_on_c, 0, 67, 64
2, 17756, Note_off_c, 0, 67, 100
2, 17760, Note_on_c, 0, 66, 64
2, 17852, Note_off_c, 0, 66, 100
2, 17856, Note_on_c, 0, 64, 64
2, 17948, Note_off_c, 0, 64, 100
2, 17952, Note_on_c, 0, 63, 64
2, 18044, Note_off_c, 0, 63, 100
2, 18048, Note_on_c, 0, 64, 64
2, 18140, Note_off_c, 0, 64, 100
2, 18144, Note_on_c, 0, 66, 64
2, 18236, Note_off_c, 0, 66, 100
2, 18240, Note_on_c, 0, 67, 64
2, 18332, Note_off_c, 0, 67, 100
2, 18336, Note_on_c, 0, 64, 64
2, 18400, Note_off_c, 0, 64, 100
2, 18432, Note_on_c, 0, 60, 64
2, 18716, Note_off_c, 0, 60, 100
2, 18720, Note_on_c, 0, 62, 64
2, 18784, Note_off_c, 0, 62, 100
2, 18816, Note_on_c, 0, 60, 64
2, 18860, Note_off_c, 0, 60, 100
2, 18864, Note_on_c, 0, 59, 64
2, 18892, Note_off_c, 0, 59, 100
2, 18896, Note_on_c, 0, 60, 64
2, 18916, Note_off_c, 0, 60, 100
2, 18920, Note_on_c, 0, 59, 64
2, 19196, Note_off_c, 0, 59, 100
2, 19200, Note_on_c, 0, 60, 64
2, 19388, Note_off_c, 0, 60, 100
2, 19584, Note_on_c, 0, 67, 64
2, 20156, Note_off_c, 0, 67, 100
2, 20160, Note_on_c, 0, 66, 64
2, 20540, Note_off_c, 0, 66, 100
2, 20544, Note_on_c, 0, 64, 64
2, 20732, Note_off_c, 0, 64, 100
2, 20736, Note_on_c, 0, 66, 64
2, 20864, Note_off_c, 0, 66, 100
2, 20928, Note_on_c, 0, 69, 64
2, 21020, Note_off_c, 0, 69, 100
2, 21024, Note_on_c, 0, 67, 64
2, 21116, Note_off_c, 0, 67, 100
2, 21120, Note_on_c, 0, 69, 64
2, 21212, Note_off_c, 0, 69, 100
2, 21216, Note_on_c, 0, 72, 64
2, 21308, Note_off_c, 0, 72, 100
2, 21312, Note_on_c, 0, 71, 64
2, 21404, Note_off_c, 0, 71, 100
2, 21408, Note_on_c, 0, 69, 64
2, 21500, Note_off_c, 0, 69, 100
2, 21504, Note_on_c, 0, 67, 64
2, 21884, Note_off_c, 0, 67, 100
2, 21888, Note_on_c, 0, 69, 64
2, 22268, Note_off_c, 0, 69, 100
2, 22272, Note_on_c, 0, 71, 64
2, 23036, Note_off_c, 0, 71, 100
2, 23232, Note_on_c, 0, 76, 64
2, 23420, Note_off_c, 0, 76, 100
2, 23424, Note_on_c, 0, 74, 64
2, 23612, Note_off_c, 0, 74, 100
2, 23616, Note_on_c, 0, 72, 64
2, 23804, Note_off_c, 0, 72, 100
2, 23808, Note_on_c, 0, 71, 64
2, 24448, Note_off_c, 0, 71, 100
2, 24448, End_track
3, 0, Start_track
3, 0, Title_t, "Goldberg Variations"
3, 0, Control_c, 1, 0, 0
3, 0, Program_c, 1, 6
3, 0, Control_c, 1, 7, 127
3, 0, Control_c, 1, 10, 67
3, 0, Control_c, 1, 91, 127
3, 0, Key_signature, 1, "major"
3, 1536, Note_on_c, 1, 67, 64
3, 1724, Note_off_c, 1, 67, 100
3, 1728, Note_on_c, 1, 66, 64
3, 1916, Note_off_c, 1, 66, 100
3, 1920, Note_on_c, 1, 67, 64
3, 2108, Note_off_c, 1, 67, 100
3, 2112, Note_on_c, 1, 69, 64
3, 2300, Note_off_c, 1, 69, 100
3, 2304, Note_on_c, 1, 71, 64
3, 2492, Note_off_c, 1, 71, 100
3, 2496, Note_on_c, 1, 66, 64
3, 2684, Note_off_c, 1, 66, 100
3, 2688, Note_on_c, 1, 71, 64
3, 2876, Note_off_c, 1, 71, 100
3, 2880, Note_on_c, 1, 69, 64
3, 3068, Note_off_c, 1, 69, 100
3, 3072, Note_on_c, 1, 67, 64
3, 3200, Note_off_c, 1, 67, 100
3, 3264, Note_on_c, 1, 71, 64
3, 3452, Note_off_c, 1, 71, 100
3, 3456, Note_on_c, 1, 76, 64
3, 3836, Note_off_c, 1, 76, 100
3, 4032, Note_on_c, 1, 78, 64
3, 4124, Note_off_c, 1, 78, 100
3, 4128, Note_on_c, 1, 76, 64
3, 4220, Note_off_c, 1, 76, 100
3, 4224, Note_on_c, 1, 74, 64
3, 4604, Note_off_c, 1, 74, 100
3, 4608, Note_on_c, 1, 76, 64
3, 4736, Note_off_c, 1, 76, 100
3, 4800, Note_on_c, 1, 74, 64
3, 4988, Note_off_c, 1, 74, 100
3, 4992, Note_on_c, 1, 76, 64
3, 5180, Note_off_c, 1, 76, 100
3, 5184, Note_on_c, 1, 78, 64
3, 5372, Note_off_c, 1, 78, 100
3, 5376, Note_on_c, 1, 79, 64
3, 5564, Note_off_c, 1, 79, 100
3, 5568, Note_on_c, 1, 74, 64
3, 5756, Note_off_c, 1, 74, 100
3, 5760, Note_on_c, 1, 79, 64
3, 5948, Note_off_c, 1, 79, 100
3, 5952, Note_on_c, 1, 78, 64
3, 6140, Note_off_c, 1, 78, 100
3, 6144, Note_on_c, 1, 76, 64
3, 6272, Note_off_c, 1, 76, 100
3, 6336, Note_on_c, 1, 78, 64
3, 6428, Note_off_c, 1, 78, 100
3, 6432, Note_on_c, 1, 79, 64
3, 6524, Note_off_c, 1, 79, 100
3, 6528, Note_on_c, 1, 81, 64
3, 7100, Note_off_c, 1, 81, 100
3, 7104, Note_on_c, 1, 79, 64
3, 7196, Note_off_c, 1, 79, 100
3, 7200, Note_on_c, 1, 78, 64
3, 7292, Note_off_c, 1, 78, 100
3, 7296, Note_on_c, 1, 79, 64
3, 7484, Note_off_c, 1, 79, 100
3, 7488, Note_on_c, 1, 67, 64
3, 7676, Note_off_c, 1, 67, 100
3, 7680, Note_on_c, 1, 69, 64
3, 7808, Note_off_c, 1, 69, 100
3, 7872, Note_on_c, 1, 67, 64
3, 8060, Note_off_c, 1, 67, 100
3, 8064, Note_on_c, 1, 69, 64
3, 8252, Note_off_c, 1, 69, 100
3, 8256, Note_on_c, 1, 71, 64
3, 8444, Note_off_c, 1, 71, 100
3, 8448, Note_on_c, 1, 72, 64
3, 8636, Note_off_c, 1, 72, 100
3, 8640, Note_on_c, 1, 67, 64
3, 8828, Note_off_c, 1, 67, 100
3, 8832, Note_on_c, 1, 72, 64
3, 9020, Note_off_c, 1, 72, 100
3, 9024, Note_on_c, 1, 71, 64
3, 9212, Note_off_c, 1, 71, 100
3, 9216, Note_on_c, 1, 69, 64
3, 9344, Note_off_c, 1, 69, 100
3, 9408, Note_on_c, 1, 71, 64
3, 9500, Note_off_c, 1, 71, 100
3, 9504, Note_on_c, 1, 73, 64
3, 9596, Note_off_c, 1, 73, 100
3, 9600, Note_on_c, 1, 74, 64
3, 10172, Note_off_c, 1, 74, 100
3, 10176, Note_on_c, 1, 73, 64
3, 10268, Note_off_c, 1, 73, 100
3, 10272, Note_on_c, 1, 71, 64
3, 10364, Note_off_c, 1, 71, 100
3, 10368, Note_on_c, 1, 73, 64
3, 10460, Note_off_c, 1, 73, 100
3, 10464, Note_on_c, 1, 74, 64
3, 10556, Note_off_c, 1, 74, 100
3, 10560, Note_on_c, 1, 76, 64
3, 10940, Note_off_c, 1, 76, 100
3, 10944, Note_on_c, 1, 74, 64
3, 11324, Note_off_c, 1, 74, 100
3, 11328, Note_on_c, 1, 73, 64
3, 11516, Note_off_c, 1, 73, 100
3, 11520, Note_on_c, 1, 74, 64
3, 12160, Note_off_c, 1, 74, 100
3, 12288, Note_on_c, 1, 78, 64
3, 12476, Note_off_c, 1, 78, 100
3, 12480, Note_on_c, 1, 74, 64
3, 12668, Note_off_c, 1, 74, 100
3, 12672, Note_on_c, 1, 76, 64
3, 12860, Note_off_c, 1, 76, 100
3, 12864, Note_on_c, 1, 78, 64
3, 13052, Note_off_c, 1, 78, 100
3, 13056, Note_on_c, 1, 79, 64
3, 13244, Note_off_c, 1, 79, 100
3, 13248, Note_on_c, 1, 74, 64
3, 13436, Note_off_c, 1, 74, 100
3, 13440, Note_on_c, 1, 79, 64
3, 13628, Note_off_c, 1, 79, 100
3, 13632, Note_on_c, 1, 81, 64
3, 13820, Note_off_c, 1, 81, 100
3, 13824, Note_on_c, 1, 83, 64
3, 13952, Note_off_c, 1, 83, 100
3, 14016, Note_on_c, 1, 76, 64
3, 14204, Note_off_c, 1, 76, 100
3, 14208, Note_on_c, 1, 81, 64
3, 14780, Note_off_c, 1, 81, 100
3, 14784, Note_on_c, 1, 79, 64
3, 14876, Note_off_c, 1, 79, 100
3, 14880, Note_on_c, 1, 78, 64
3, 14972, Note_off_c, 1, 78, 100
3, 14976, Note_on_c, 1, 79, 64
3, 15164, Note_off_c, 1, 79, 100
3, 15552, Note_on_c, 1, 76, 64
3, 15932, Note_off_c, 1, 76, 100
3, 15936, Note_on_c, 1, 74, 64
3, 16028, Note_off_c, 1, 74, 100
3, 16032, Note_on_c, 1, 72, 64
3, 16124, Note_off_c, 1, 72, 100
3, 16128, Note_on_c, 1, 71, 64
3, 16220, Note_off_c, 1, 71, 100
3, 16224, Note_on_c, 1, 69, 64
3, 16316, Note_off_c, 1, 69, 100
3, 16320, Note_on_c, 1, 67, 64
3, 16412, Note_off_c, 1, 67, 100
3, 16416, Note_on_c, 1, 66, 64
3, 16508, Note_off_c, 1, 66, 100
3, 16512, Note_on_c, 1, 67, 64
3, 16604, Note_off_c, 1, 67, 100
3, 16608, Note_on_c, 1, 69, 64
3, 16700, Note_off_c, 1, 69, 100
3, 16704, Note_on_c, 1, 71, 64
3, 16796, Note_off_c, 1, 71, 100
3, 16800, Note_on_c, 1, 67, 64
3, 16864, Note_off_c, 1, 67, 100
3, 16896, Note_on_c, 1, 64, 64
3, 17180, Note_off_c, 1, 64, 100
3, 17184, Note_on_c, 1, 66, 64
3, 17248, Note_off_c, 1, 66, 100
3, 17280, Note_on_c, 1, 64, 64
3, 17324, Note_off_c, 1, 64, 100
3, 17328, Note_on_c, 1, 63, 64
3, 17356, Note_off_c, 1, 63, 100
3, 17360, Note_on_c, 1, 64, 64
3, 17380, Note_off_c, 1, 64, 100
3, 17384, Note_on_c, 1, 63, 64
3, 17660, Note_off_c, 1, 63, 100
3, 17664, Note_on_c, 1, 64, 64
3, 17852, Note_off_c, 1, 64, 100
3, 18048, Note_on_c, 1, 71, 64
3, 18620, Note_off_c, 1, 71, 100
3, 18624, Note_on_c, 1, 69, 64
3, 19004, Note_off_c, 1, 69, 100
3, 19008, Note_on_c, 1, 68, 64
3, 19196, Note_off_c, 1, 68, 100
3, 19200, Note_on_c, 1, 69, 64
3, 19328, Note_off_c, 1, 69, 100
3, 19392, Note_on_c, 1, 72, 64
3, 19484, Note_off_c, 1, 72, 100
3, 19488, Note_on_c, 1, 71, 64
3, 19580, Note_off_c, 1, 71, 100
3, 19584, Note_on_c, 1, 72, 64
3, 19676, Note_off_c, 1, 72, 100
3, 19680, Note_on_c, 1, 76, 64
3, 19772, Note_off_c, 1, 76, 100
3, 19776, Note_on_c, 1, 74, 64
3, 19868, Note_off_c, 1, 74, 100
3, 19872, Note_on_c, 1, 72, 64
3, 19964, Note_off_c, 1, 72, 100
3, 19968, Note_on_c, 1, 71, 64
3, 20348, Note_off_c, 1, 71, 100
3, 20352, Note_on_c, 1, 73, 64
3, 20732, Note_off_c, 1, 73, 100
3, 20736, Note_on_c, 1, 74, 64
3, 21500, Note_off_c, 1, 74, 100
3, 21696, Note_on_c, 1, 79, 64
3, 21884, Note_off_c, 1, 79, 100
3, 21888, Note_on_c, 1, 78, 64
3, 22076, Note_off_c, 1, 78, 100
3, 22080, Note_on_c, 1, 76, 64
3, 22268, Note_off_c, 1, 76, 100
3, 22272, Note_on_c, 1, 74, 64
3, 22400, Note_off_c, 1, 74, 100
3, 22464, Note_on_c, 1, 79, 64
3, 22556, Note_off_c, 1, 79, 100
3, 22560, Note_on_c, 1, 78, 64
3, 22652, Note_off_c, 1, 78, 100
3, 22656, Note_on_c, 1, 79, 64
3, 22748, Note_off_c, 1, 79, 100
3, 22752, Note_on_c, 1, 81, 64
3, 22844, Note_off_c, 1, 81, 100
3, 22848, Note_on_c, 1, 83, 64
3, 23036, Note_off_c, 1, 83, 100
3, 23040, Note_on_c, 1, 76, 64
3, 23228, Note_off_c, 1, 76, 100
3, 23232, Note_on_c, 1, 81, 64
3, 23360, Note_off_c, 1, 81, 100
3, 23424, Note_on_c, 1, 79, 64
3, 23468, Note_off_c, 1, 79, 100
3, 23472, Note_on_c, 1, 78, 64
3, 23500, Note_off_c, 1, 78, 100
3, 23504, Note_on_c, 1, 79, 64
3, 23524, Note_off_c, 1, 79, 100
3, 23528, Note_on_c, 1, 78, 64
3, 23708, Note_off_c, 1, 78, 100
3, 23712, Note_on_c, 1, 79, 64
3, 23776, Note_off_c, 1, 79, 100
3, 23808, Note_on_c, 1, 79, 64
3, 24448, Note_off_c, 1, 79, 100
3, 24448, End_track
4, 0, Start_track
4, 0, Title_t, "BWV 988"
4, 0, Control_c, 2, 0, 0
4, 0, Program_c, 2, 6
4, 0, Control_c, 2, 7, 127
4, 0, Control_c, 2, 10, 127
4, 0, Control_c, 2, 91, 127
4, 0, Key_signature, 1, "major"
4, 0, Note_on_c, 2, 55, 64
4, 256, Note_off_c, 2, 55, 100
4, 384, Note_on_c, 2, 67, 64
4, 956, Note_off_c, 2, 67, 100
4, 960, Note_on_c, 2, 66, 64
4, 1052, Note_off_c, 2, 66, 100
4, 1056, Note_on_c, 2, 64, 64
4, 1148, Note_off_c, 2, 64, 100
4, 1152, Note_on_c, 2, 66, 64
4, 1340, Note_off_c, 2, 66, 100
4, 1344, Note_on_c, 2, 62, 64
4, 1532, Note_off_c, 2, 62, 100
4, 1536, Note_on_c, 2, 67, 64
4, 1724, Note_off_c, 2, 67, 100
4, 1728, Note_on_c, 2, 69, 64
4, 1916, Note_off_c, 2, 69, 100
4, 1920, Note_on_c, 2, 71, 64
4, 2108, Note_off_c, 2, 71, 100
4, 2112, Note_on_c, 2, 72, 64
4, 2300, Note_off_c, 2, 72, 100
4, 2304, Note_on_c, 2, 74, 64
4, 2688, Note_off_c, 2, 74, 100
4, 2880, Note_on_c, 2, 75, 64
4, 3068, Note_off_c, 2, 75, 100
4, 3072, Note_on_c, 2, 76, 64
4, 3452, Note_off_c, 2, 76, 100
4, 3648, Note_on_c, 2, 72, 64
4, 3836, Note_off_c, 2, 72, 100
4, 3840, Note_on_c, 2, 67, 64
4, 4028, Note_off_c, 2, 67, 100
4, 4032, Note_on_c, 2, 74, 64
4, 4220, Note_off_c, 2, 74, 100
4, 4224, Note_on_c, 2, 79, 64
4, 4412, Note_off_c, 2, 79, 100
4, 4416, Note_on_c, 2, 81, 64
4, 4508, Note_off_c, 2, 81, 100
4, 4512, Note_on_c, 2, 83, 64
4, 4604, Note_off_c, 2, 83, 100
4, 4608, Note_on_c, 2, 84, 64
4, 4796, Note_off_c, 2, 84, 100
4, 4800, Note_on_c, 2, 83, 64
4, 4988, Note_off_c, 2, 83, 100
4, 4992, Note_on_c, 2, 81, 64
4, 5180, Note_off_c, 2, 81, 100
4, 5184, Note_on_c, 2, 86, 64
4, 5372, Note_off_c, 2, 86, 100
4, 5376, Note_on_c, 2, 79, 64
4, 6272, Note_off_c, 2, 79, 100
4, 6336, Note_on_c, 2, 67, 64
4, 6716, Note_off_c, 2, 67, 100
4, 6720, Note_on_c, 2, 66, 64
4, 6908, Note_off_c, 2, 66, 100
4, 6912, Note_on_c, 2, 64, 64
4, 7040, Note_off_c, 2, 64, 100
4, 7104, Note_on_c, 2, 76, 64
4, 7196, Note_off_c, 2, 76, 100
4, 7200, Note_on_c, 2, 75, 64
4, 7292, Note_off_c, 2, 75, 100
4, 7296, Note_on_c, 2, 76, 64
4, 7680, Note_off_c, 2, 76, 100
4, 7872, Note_on_c, 2, 64, 64
4, 8252, Note_off_c, 2, 64, 100
4, 8256, Note_on_c, 2, 62, 64
4, 8444, Note_off_c, 2, 62, 100
4, 8448, Note_on_c, 2, 60, 64
4, 8576, Note_off_c, 2, 60, 100
4, 8640, Note_on_c, 2, 72, 64
4, 8732, Note_off_c, 2, 72, 100
4, 8736, Note_on_c, 2, 71, 64
4, 8828, Note_off_c, 2, 71, 100
4, 8832, Note_on_c, 2, 72, 64
4, 8924, Note_off_c, 2, 72, 100
4, 8928, Note_on_c, 2, 74, 64
4, 9020, Note_off_c, 2, 74, 100
4, 9024, Note_on_c, 2, 76, 64
4, 9116, Note_off_c, 2, 76, 100
4, 9120, Note_on_c, 2, 74, 64
4, 9212, Note_off_c, 2, 74, 100
4, 9216, Note_on_c, 2, 73, 64
4, 9308, Note_off_c, 2, 73, 100
4, 9312, Note_on_c, 2, 69, 64
4, 9404, Note_off_c, 2, 69, 100
4, 9408, Note_on_c, 2, 74, 64
4, 9500, Note_off_c, 2, 74, 100
4, 9504, Note_on_c, 2, 73, 64
4, 9596, Note_off_c, 2, 73, 100
4, 9600, Note_on_c, 2, 71, 64
4, 9692, Note_off_c, 2, 71, 100
4, 9696, Note_on_c, 2, 69, 64
4, 9788, Note_off_c, 2, 69, 100
4, 9792, Note_on_c, 2, 71, 64
4, 9884, Note_off_c, 2, 71, 100
4, 9888, Note_on_c, 2, 68, 64
4, 9980, Note_off_c, 2, 68, 100
4, 9984, Note_on_c, 2, 69, 64
4, 10076, Note_off_c, 2, 69, 100
4, 10080, Note_on_c, 2, 71, 64
4, 10172, Note_off_c, 2, 71, 100
4, 10176, Note_on_c, 2, 69, 64
4, 10268, Note_off_c, 2, 69, 100
4, 10272, Note_on_c, 2, 67, 64
4, 10364, Note_off_c, 2, 67, 100
4, 10368, Note_on_c, 2, 66, 64
4, 10460, Note_off_c, 2, 66, 100
4, 10464, Note_on_c, 2, 64, 64
4, 10556, Note_off_c, 2, 64, 100
4, 10560, Note_on_c, 2, 62, 64
4, 10652, Note_off_c, 2, 62, 100
4, 10656, Note_on_c, 2, 61, 64
4, 10748, Note_off_c, 2, 61, 100
4, 10752, Note_on_c, 2, 62, 64
4, 10844, Note_off_c, 2, 62, 100
4, 10848, Note_on_c, 2, 61, 64
4, 10940, Note_off_c, 2, 61, 100
4, 10944, Note_on_c, 2, 59, 64
4, 11036, Note_off_c, 2, 59, 100
4, 11040, Note_on_c, 2, 57, 64
4, 11132, Note_off_c, 2, 57, 100
4, 11136, Note_on_c, 2, 55, 64
4, 11228, Note_off_c, 2, 55, 100
4, 11232, Note_on_c, 2, 52, 64
4, 11324, Note_off_c, 2, 52, 100
4, 11328, Note_on_c, 2, 57, 64
4, 11456, Note_off_c, 2, 57, 100
4, 11520, Note_on_c, 2, 50, 64
4, 11708, Note_off_c, 2, 50, 100
4, 11712, Note_on_c, 2, 54, 64
4, 11804, Note_off_c, 2, 54, 100
4, 11808, Note_on_c, 2, 57, 64
4, 11900, Note_off_c, 2, 57, 100
4, 11904, Note_on_c, 2, 62, 64
4, 12160, Note_off_c, 2, 62, 100
4, 12288, Note_on_c, 2, 62, 64
4, 12416, Note_off_c, 2, 62, 100
4, 12480, Note_on_c, 2, 74, 64
4, 12860, Note_off_c, 2, 74, 100
4, 12864, Note_on_c, 2, 72, 64
4, 13052, Note_off_c, 2, 72, 100
4, 13056, Note_on_c, 2, 71, 64
4, 13148, Note_off_c, 2, 71, 100
4, 13152, Note_on_c, 2, 69, 64
4, 13244, Note_off_c, 2, 69, 100
4, 13248, Note_on_c, 2, 71, 64
4, 13340, Note_off_c, 2, 71, 100
4, 13344, Note_on_c, 2, 72, 64
4, 13436, Note_off_c, 2, 72, 100
4, 13440, Note_on_c, 2, 71, 64
4, 13532, Note_off_c, 2, 71, 100
4, 13536, Note_on_c, 2, 69, 64
4, 13628, Note_off_c, 2, 69, 100
4, 13632, Note_on_c, 2, 67, 64
4, 13724, Note_off_c, 2, 67, 100
4, 13728, Note_on_c, 2, 66, 64
4, 13820, Note_off_c, 2, 66, 100
4, 13824, Note_on_c, 2, 67, 64
4, 13952, Note_off_c, 2, 67, 100
4, 14016, Note_on_c, 2, 79, 64
4, 14396, Note_off_c, 2, 79, 100
4, 14400, Note_on_c, 2, 78, 64
4, 14588, Note_off_c, 2, 78, 100
4, 14592, Note_on_c, 2, 76, 64
4, 14684, Note_off_c, 2, 76, 100
4, 14688, Note_on_c, 2, 75, 64
4, 14780, Note_off_c, 2, 75, 100
4, 14784, Note_on_c, 2, 76, 64
4, 14876, Note_off_c, 2, 76, 100
4, 14880, Note_on_c, 2, 78, 64
4, 14972, Note_off_c, 2, 78, 100
4, 14976, Note_on_c, 2, 76, 64
4, 15068, Note_off_c, 2, 76, 100
4, 15072, Note_on_c, 2, 74, 64
4, 15164, Note_off_c, 2, 74, 100
4, 15168, Note_on_c, 2, 72, 64
4, 15260, Note_off_c, 2, 72, 100
4, 15264, Note_on_c, 2, 71, 64
4, 15356, Note_off_c, 2, 71, 100
4, 15360, Note_on_c, 2, 70, 64
4, 15424, Note_off_c, 2, 70, 100
4, 15456, Note_on_c, 2, 76, 64
4, 15548, Note_off_c, 2, 76, 100
4, 15552, Note_on_c, 2, 78, 64
4, 15644, Note_off_c, 2, 78, 100
4, 15648, Note_on_c, 2, 79, 64
4, 15740, Note_off_c, 2, 79, 100
4, 15744, Note_on_c, 2, 81, 64
4, 15932, Note_off_c, 2, 81, 100
4, 15936, Note_on_c, 2, 69, 64
4, 16064, Note_off_c, 2, 69, 100
4, 16128, Note_on_c, 2, 67, 64
4, 16220, Note_off_c, 2, 67, 100
4, 16224, Note_on_c, 2, 69, 64
4, 16316, Note_off_c, 2, 69, 100
4, 16320, Note_on_c, 2, 71, 64
4, 16412, Note_off_c, 2, 71, 100
4, 16416, Note_on_c, 2, 67, 64
4, 16508, Note_off_c, 2, 67, 100
4, 16512, Note_on_c, 2, 64, 64
4, 16576, Note_off_c, 2, 64, 100
4, 16608, Note_on_c, 2, 66, 64
4, 16700, Note_off_c, 2, 66, 100
4, 16704, Note_on_c, 2, 67, 64
4, 16796, Note_off_c, 2, 67, 100
4, 16800, Note_on_c, 2, 64, 64
4, 16892, Note_off_c, 2, 64, 100
4, 16896, Note_on_c, 2, 72, 64
4, 17024, Note_off_c, 2, 72, 100
4, 17088, Note_on_c, 2, 71, 64
4, 17276, Note_off_c, 2, 71, 100
4, 17280, Note_on_c, 2, 72, 64
4, 17468, Note_off_c, 2, 72, 100
4, 17472, Note_on_c, 2, 59, 64
4, 17660, Note_off_c, 2, 59, 100
4, 17664, Note_on_c, 2, 52, 64
4, 18044, Note_off_c, 2, 52, 100
4, 18240, Note_on_c, 2, 64, 64
4, 18620, Note_off_c, 2, 64, 100
4, 18624, Note_on_c, 2, 60, 64
4, 18812, Note_off_c, 2, 60, 100
4, 18816, Note_on_c, 2, 62, 64
4, 19004, Note_off_c, 2, 62, 100
4, 19008, Note_on_c, 2, 64, 64
4, 19196, Note_off_c, 2, 64, 100
4, 19200, Note_on_c, 2, 57, 64
4, 19328, Note_off_c, 2, 57, 100
4, 19392, Note_on_c, 2, 69, 64
4, 19580, Note_off_c, 2, 69, 100
4, 19584, Note_on_c, 2, 64, 64
4, 19676, Note_off_c, 2, 64, 100
4, 19680, Note_on_c, 2, 62, 64
4, 19772, Note_off_c, 2, 62, 100
4, 19776, Note_on_c, 2, 64, 64
4, 19868, Note_off_c, 2, 64, 100
4, 19872, Note_on_c, 2, 66, 64
4, 19964, Note_off_c, 2, 66, 100
4, 19968, Note_on_c, 2, 67, 64
4, 20060, Note_off_c, 2, 67, 100
4, 20064, Note_on_c, 2, 69, 64
4, 20156, Note_off_c, 2, 69, 100
4, 20160, Note_on_c, 2, 71, 64
4, 20252, Note_off_c, 2, 71, 100
4, 20256, Note_on_c, 2, 67, 64
4, 20348, Note_off_c, 2, 67, 100
4, 20352, Note_on_c, 2, 69, 64
4, 20444, Note_off_c, 2, 69, 100
4, 20448, Note_on_c, 2, 66, 64
4, 20540, Note_off_c, 2, 66, 100
4, 20544, Note_on_c, 2, 67, 64
4, 20636, Note_off_c, 2, 67, 100
4, 20640, Note_on_c, 2, 69, 64
4, 20704, Note_off_c, 2, 69, 100
4, 20736, Note_on_c, 2, 62, 64
4, 20828, Note_off_c, 2, 62, 100
4, 20832, Note_on_c, 2, 64, 64
4, 20924, Note_off_c, 2, 64, 100
4, 20928, Note_on_c, 2, 66, 64
4, 21020, Note_off_c, 2, 66, 100
4, 21024, Note_on_c, 2, 67, 64
4, 21116, Note_off_c, 2, 67, 100
4, 21120, Note_on_c, 2, 66, 64
4, 21212, Note_off_c, 2, 66, 100
4, 21216, Note_on_c, 2, 64, 64
4, 21308, Note_off_c, 2, 64, 100
4, 21312, Note_on_c, 2, 62, 64
4, 21404, Note_off_c, 2, 62, 100
4, 21408, Note_on_c, 2, 60, 64
4, 21500, Note_off_c, 2, 60, 100
4, 21504, Note_on_c, 2, 59, 64
4, 21568, Note_off_c, 2, 59, 100
4, 21600, Note_on_c, 2, 55, 64
4, 21692, Note_off_c, 2, 55, 100
4, 21696, Note_on_c, 2, 57, 64
4, 21788, Note_off_c, 2, 57, 100
4, 21792, Note_on_c, 2, 59, 64
4, 21884, Note_off_c, 2, 59, 100
4, 21888, Note_on_c, 2, 60, 64
4, 21980, Note_off_c, 2, 60, 100
4, 21984, Note_on_c, 2, 62, 64
4, 22076, Note_off_c, 2, 62, 100
4, 22080, Note_on_c, 2, 64, 64
4, 22172, Note_off_c, 2, 64, 100
4, 22176, Note_on_c, 2, 66, 64
4, 22268, Note_off_c, 2, 66, 100
4, 22272, Note_on_c, 2, 67, 64
4, 22364, Note_off_c, 2, 67, 100
4, 22368, Note_on_c, 2, 69, 64
4, 22460, Note_off_c, 2, 69, 100
4, 22464, Note_on_c, 2, 71, 64
4, 22556, Note_off_c, 2, 71, 100
4, 22560, Note_on_c, 2, 69, 64
4, 22652, Note_off_c, 2, 69, 100
4, 22656, Note_on_c, 2, 67, 64
4, 22748, Note_off_c, 2, 67, 100
4, 22752, Note_on_c, 2, 66, 64
4, 22844, Note_off_c, 2, 66, 100
4, 22848, Note_on_c, 2, 64, 64
4, 22940, Note_off_c, 2, 64, 100
4, 22944, Note_on_c, 2, 62, 64
4, 23036, Note_off_c, 2, 62, 100
4, 23040, Note_on_c, 2, 60, 64
4, 23132, Note_off_c, 2, 60, 100
4, 23136, Note_on_c, 2, 59, 64
4, 23228, Note_off_c, 2, 59, 100
4, 23232, Note_on_c, 2, 60, 64
4, 23324, Note_off_c, 2, 60, 100
4, 23328, Note_on_c, 2, 57, 64
4, 23420, Note_off_c, 2, 57, 100
4, 23424, Note_on_c, 2, 62, 64
4, 23552, Note_off_c, 2, 62, 100
4, 23616, Note_on_c, 2, 50, 64
4, 23744, Note_off_c, 2, 50, 100
4, 23808, Note_on_c, 2, 55, 64
4, 23996, Note_off_c, 2, 55, 100
4, 24000, Note_on_c, 2, 59, 64
4, 24092, Note_off_c, 2, 59, 100
4, 24096, Note_on_c, 2, 62, 64
4, 24232, Note_off_c, 2, 62, 100
4, 24236, Note_on_c, 2, 67, 64
4, 24492, Note_off_c, 2, 67, 100
4, 24492, End_track
5, 0, Start_track
5, 0, Title_t, "Var.IX, Canone alla terza: Moderato"
5, 0, Control_c, 3, 0, 0
5, 0, Program_c, 3, 6
5, 0, Control_c, 3, 7, 127
5, 0, Control_c, 3, 10, 67
5, 0, Control_c, 3, 91, 127
5, 0, Key_signature, 1, "major"
5, 0, Note_on_c, 3, 59, 96
5, 188, Note_off_c, 3, 59, 100
5, 192, Note_on_c, 3, 57, 96
5, 380, Note_off_c, 3, 57, 100
5, 384, Note_on_c, 3, 59, 96
5, 572, Note_off_c, 3, 59, 100
5, 576, Note_on_c, 3, 60, 96
5, 764, Note_off_c, 3, 60, 100
5, 768, Note_on_c, 3, 62, 96
5, 956, Note_off_c, 3, 62, 100
5, 960, Note_on_c, 3, 57, 96
5, 1148, Note_off_c, 3, 57, 100
5, 1152, Note_on_c, 3, 62, 96
5, 1340, Note_off_c, 3, 62, 100
5, 1344, Note_on_c, 3, 60, 96
5, 1532, Note_off_c, 3, 60, 100
5, 1536, Note_on_c, 3, 59, 96
5, 1664, Note_off_c, 3, 59, 100
5, 1728, Note_on_c, 3, 62, 96
5, 1916, Note_off_c, 3, 62, 100
5, 1920, Note_on_c, 3, 67, 96
5, 2300, Note_off_c, 3, 67, 100
5, 2496, Note_on_c, 3, 69, 96
5, 2588, Note_off_c, 3, 69, 100
5, 2592, Note_on_c, 3, 67, 96
5, 2684, Note_off_c, 3, 67, 100
5, 2688, Note_on_c, 3, 66, 96
5, 3068, Note_off_c, 3, 66, 100
5, 3072, Note_on_c, 3, 67, 96
5, 3200, Note_off_c, 3, 67, 100
5, 3264, Note_on_c, 3, 66, 96
5, 3452, Note_off_c, 3, 66, 100
5, 3456, Note_on_c, 3, 67, 96
5, 3644, Note_off_c, 3, 67, 100
5, 3648, Note_on_c, 3, 69, 96
5, 3836, Note_off_c, 3, 69, 100
5, 3840, Note_on_c, 3, 71, 96
5, 4028, Note_off_c, 3, 71, 100
5, 4032, Note_on_c, 3, 66, 96
5, 4220, Note_off_c, 3, 66, 100
5, 4224, Note_on_c, 3, 71, 96
5, 4412, Note_off_c, 3, 71, 100
5, 4416, Note_on_c, 3, 69, 96
5, 4604, Note_off_c, 3, 69, 100
5, 4608, Note_on_c, 3, 67, 96
5, 4736, Note_off_c, 3, 67, 100
5, 4800, Note_on_c, 3, 69, 96
5, 4892, Note_off_c, 3, 69, 100
5, 4896, Note_on_c, 3, 71, 96
5, 4988, Note_off_c, 3, 71, 100
5, 4992, Note_on_c, 3, 72, 96
5, 5564, Note_off_c, 3, 72, 100
5, 5568, Note_on_c, 3, 71, 96
5, 5660, Note_off_c, 3, 71, 100
5, 5664, Note_on_c, 3, 69, 96
5, 5756, Note_off_c, 3, 69, 100
5, 5760, Note_on_c, 3, 71, 96
5, 5948, Note_off_c, 3, 71, 100
5, 5952, Note_on_c, 3, 59, 96
5, 6140, Note_off_c, 3, 59, 100
5, 6144, Note_on_c, 3, 61, 96
5, 6272, Note_off_c, 3, 61, 100
5, 6336, Note_on_c, 3, 59, 96
5, 6524, Note_off_c, 3, 59, 100
5, 6528, Note_on_c, 3, 61, 96
5, 6716, Note_off_c, 3, 61, 100
5, 6720, Note_on_c, 3, 63, 96
5, 6908, Note_off_c, 3, 63, 100
5, 6912, Note_on_c, 3, 64, 96
5, 7100, Note_off_c, 3, 64, 100
5, 7104, Note_on_c, 3, 59, 96
5, 7292, Note_off_c, 3, 59, 100
5, 7296, Note_on_c, 3, 64, 96
5, 7484, Note_off_c, 3, 64, 100
5, 7488, Note_on_c, 3, 62, 96
5, 7676, Note_off_c, 3, 62, 100
5, 7680, Note_on_c, 3, 60, 96
5, 7808, Note_off_c, 3, 60, 100
5, 7872, Note_on_c, 3, 62, 96
5, 7964, Note_off_c, 3, 62, 100
5, 7968, Note_on_c, 3, 64, 96
5, 8060, Note_off_c, 3, 64, 100
5, 8064, Note_on_c, 3, 65, 96
5, 8636, Note_off_c, 3, 65, 100
5, 8640, Note_on_c, 3, 64, 96
5, 8732, Note_off_c, 3, 64, 100
5, 8736, Note_on_c, 3, 62, 96
5, 8828, Note_off_c, 3, 62, 100
5, 8832, Note_on_c, 3, 64, 96
5, 8924, Note_off_c, 3, 64, 100
5, 8928, Note_on_c, 3, 66, 96
5, 9020, Note_off_c, 3, 66, 100
5, 9024, Note_on_c, 3, 67, 96
5, 9404, Note_off_c, 3, 67, 100
5, 9408, Note_on_c, 3, 66, 96
5, 9788, Note_off_c, 3, 66, 100
5, 9792, Note_on_c, 3, 64, 96
5, 9980, Note_off_c, 3, 64, 100
5, 9984, Note_on_c, 3, 66, 96
5, 10172, Note_off_c, 3, 66, 100
5, 10176, Note_on_c, 3, 67, 96
5, 10304, Note_off_c, 3, 67, 100
5, 10368, Note_on_c, 3, 69, 96
5, 10496, Note_off_c, 3, 69, 100
5, 10560, Note_on_c, 3, 67, 96
5, 10688, Note_off_c, 3, 67, 100
5, 10752, Note_on_c, 3, 66, 96
5, 11132, Note_off_c, 3, 66, 100
5, 11136, Note_on_c, 3, 64, 96
5, 11516, Note_off_c, 3, 64, 100
5, 11520, Note_on_c, 3, 62, 96
5, 12160, Note_off_c, 3, 62, 100
5, 13824, Note_on_c, 3, 62, 96
5, 14012, Note_off_c, 3, 62, 100
5, 14016, Note_on_c, 3, 59, 96
5, 14204, Note_off_c, 3, 59, 100
5, 14208, Note_on_c, 3, 61, 96
5, 14396, Note_off_c, 3, 61, 100
5, 14400, Note_on_c, 3, 63, 96
5, 14588, Note_off_c, 3, 63, 100
5, 14592, Note_on_c, 3, 64, 96
5, 14780, Note_off_c, 3, 64, 100
5, 14784, Note_on_c, 3, 59, 96
5, 14972, Note_off_c, 3, 59, 100
5, 14976, Note_on_c, 3, 64, 96
5, 15164, Note_off_c, 3, 64, 100
5, 15168, Note_on_c, 3, 66, 96
5, 15356, Note_off_c, 3, 66, 100
5, 15360, Note_on_c, 3, 67, 96
5, 15488, Note_off_c, 3, 67, 100
5, 15552, Note_on_c, 3, 61, 96
5, 15740, Note_off_c, 3, 61, 100
5, 15744, Note_on_c, 3, 65, 96
5, 16316, Note_off_c, 3, 65, 100
5, 16320, Note_on_c, 3, 64, 96
5, 16412, Note_off_c, 3, 64, 100
5, 16416, Note_on_c, 3, 63, 96
5, 16508, Note_off_c, 3, 63, 100
5, 16512, Note_on_c, 3, 64, 96
5, 16700, Note_off_c, 3, 64, 100
5, 17088, Note_on_c, 3, 60, 96
5, 17468, Note_off_c, 3, 60, 100
5, 17472, Note_on_c, 3, 59, 96
5, 17564, Note_off_c, 3, 59, 100
5, 17568, Note_on_c, 3, 57, 96
5, 17660, Note_off_c, 3, 57, 100
5, 17664, Note_on_c, 3, 55, 96
5, 17756, Note_off_c, 3, 55, 100
5, 17760, Note_on_c, 3, 54, 96
5, 17852, Note_off_c, 3, 54, 100
5, 17856, Note_on_c, 3, 52, 96
5, 17948, Note_off_c, 3, 52, 100
5, 17952, Note_on_c, 3, 51, 96
5, 18044, Note_off_c, 3, 51, 100
5, 18048, Note_on_c, 3, 52, 96
5, 18140, Note_off_c, 3, 52, 100
5, 18144, Note_on_c, 3, 54, 96
5, 18236, Note_off_c, 3, 54, 100
5, 18240, Note_on_c, 3, 55, 96
5, 18332, Note_off_c, 3, 55, 100
5, 18336, Note_on_c, 3, 52, 96
5, 18400, Note_off_c, 3, 52, 100
5, 18432, Note_on_c, 3, 48, 96
5, 18716, Note_off_c, 3, 48, 100
5, 18720, Note_on_c, 3, 50, 96
5, 18784, Note_off_c, 3, 50, 100
5, 18816, Note_on_c, 3, 48, 96
5, 18860, Note_off_c, 3, 48, 100
5, 18864, Note_on_c, 3, 47, 96
5, 18892, Note_off_c, 3, 47, 100
5, 18896, Note_on_c, 3, 48, 96
5, 18916, Note_off_c, 3, 48, 100
5, 18920, Note_on_c, 3, 47, 96
5, 19196, Note_off_c, 3, 47, 100
5, 19200, Note_on_c, 3, 48, 96
5, 19388, Note_off_c, 3, 48, 100
5, 19584, Note_on_c, 3, 55, 96
5, 20156, Note_off_c, 3, 55, 100
5, 20160, Note_on_c, 3, 54, 96
5, 20540, Note_off_c, 3, 54, 100
5, 20544, Note_on_c, 3, 52, 96
5, 20732, Note_off_c, 3, 52, 100
5, 20736, Note_on_c, 3, 54, 96
5, 20864, Note_off_c, 3, 54, 100
5, 20928, Note_on_c, 3, 57, 96
5, 21020, Note_off_c, 3, 57, 100
5, 21024, Note_on_c, 3, 55, 96
5, 21116, Note_off_c, 3, 55, 100
5, 21120, Note_on_c, 3, 57, 96
5, 21212, Note_off_c, 3, 57, 100
5, 21216, Note_on_c, 3, 60, 96
5, 21308, Note_off_c, 3, 60, 100
5, 21312, Note_on_c, 3, 59, 96
5, 21404, Note_off_c, 3, 59, 100
5, 21408, Note_on_c, 3, 57, 96
5, 21500, Note_off_c, 3, 57, 100
5, 21504, Note_on_c, 3, 55, 96
5, 21884, Note_off_c, 3, 55, 100
5, 21888, Note_on_c, 3, 57, 96
5, 22268, Note_off_c, 3, 57, 100
5, 22272, Note_on_c, 3, 59, 96
5, 23036, Note_off_c, 3, 59, 100
5, 23232, Note_on_c, 3, 64, 96
5, 23420, Note_off_c, 3, 64, 100
5, 23424, Note_on_c, 3, 62, 96
5, 23612, Note_off_c, 3, 62, 100
5, 23616, Note_on_c, 3, 60, 96
5, 23804, Note_off_c, 3, 60, 100
5, 23808, Note_on_c, 3, 59, 96
5, 24448, Note_off_c, 3, 59, 100
5, 24448, End_track
6, 0, Start_track
6, 0, Title_t, "Bruno de Giusti"
6, 0, Control_c, 4, 0, 0
6, 0, Program_c, 4, 6
6, 0, Control_c, 4, 7, 127
6, 0, Control_c, 4, 10, 64
6, 0, Control_c, 4, 91, 127
6, 0, Key_signature, 1, "major"
6, 1536, Note_on_c, 4, 55, 96
6, 1724, Note_off_c, 4, 55, 100
6, 1728, Note_on_c, 4, 54, 96
6, 1916, Note_off_c, 4, 54, 100
6, 1920, Note_on_c, 4, 55, 96
6, 2108, Note_off_c, 4, 55, 100
6, 2112, Note_on_c, 4, 57, 96
6, 2300, Note_off_c, 4, 57, 100
6, 2304, Note_on_c, 4, 59, 96
6, 2492, Note_off_c, 4, 59, 100
6, 2496, Note_on_c, 4, 54, 96
6, 2684, Note_off_c, 4, 54, 100
6, 2688, Note_on_c, 4, 59, 96
6, 2876, Note_off_c, 4, 59, 100
6, 2880, Note_on_c, 4, 57, 96
6, 3068, Note_off_c, 4, 57, 100
6, 3072, Note_on_c, 4, 55, 96
6, 3200, Note_off_c, 4, 55, 100
6, 3264, Note_on_c, 4, 59, 96
6, 3452, Note_off_c, 4, 59, 100
6, 3456, Note_on_c, 4, 64, 96
6, 3836, Note_off_c, 4, 64, 100
6, 4032, Note_on_c, 4, 66, 96
6, 4124, Note_off_c, 4, 66, 100
6, 4128, Note_on_c, 4, 64, 96
6, 4220, Note_off_c, 4, 64, 100
6, 4224, Note_on_c, 4, 62, 96
6, 4604, Note_off_c, 4, 62, 100
6, 4608, Note_on_c, 4, 64, 96
6, 4736, Note_off_c, 4, 64, 100
6, 4800, Note_on_c, 4, 62, 96
6, 4988, Note_off_c, 4, 62, 100
6, 4992, Note_on_c, 4, 64, 96
6, 5180, Note_off_c, 4, 64, 100
6, 5184, Note_on_c, 4, 66, 96
6, 5372, Note_off_c, 4, 66, 100
6, 5376, Note_on_c, 4, 67, 96
6, 5564, Note_off_c, 4, 67, 100
6, 5568, Note_on_c, 4, 62, 96
6, 5756, Note_off_c, 4, 62, 100
6, 5760, Note_on_c, 4, 67, 96
6, 5948, Note_off_c, 4, 67, 100
6, 5952, Note_on_c, 4, 66, 96
6, 6140, Note_off_c, 4, 66, 100
6, 6144, Note_on_c, 4, 64, 96
6, 6272, Note_off_c, 4, 64, 100
6, 6336, Note_on_c, 4, 66, 96
6, 6428, Note_off_c, 4, 66, 100
6, 6432, Note_on_c, 4, 67, 96
6, 6524, Note_off_c, 4, 67, 100
6, 6528, Note_on_c, 4, 69, 96
6, 7100, Note_off_c, 4, 69, 100
6, 7104, Note_on_c, 4, 67, 96
6, 7196, Note_off_c, 4, 67, 100
6, 7200, Note_on_c, 4, 66, 96
6, 7292, Note_off_c, 4, 66, 100
6, 7296, Note_on_c, 4, 67, 96
6, 7484, Note_off_c, 4, 67, 100
6, 7488, Note_on_c, 4, 55, 96
6, 7676, Note_off_c, 4, 55, 100
6, 7680, Note_on_c, 4, 57, 96
6, 7808, Note_off_c, 4, 57, 100
6, 7872, Note_on_c, 4, 55, 96
6, 8060, Note_off_c, 4, 55, 100
6, 8064, Note_on_c, 4, 57, 96
6, 8252, Note_off_c, 4, 57, 100
6, 8256, Note_on_c, 4, 59, 96
6, 8444, Note_off_c, 4, 59, 100
6, 8448, Note_on_c, 4, 60, 96
6, 8636, Note_off_c, 4, 60, 100
6, 8640, Note_on_c, 4, 55, 96
6, 8828, Note_off_c, 4, 55, 100
6, 8832, Note_on_c, 4, 60, 96
6, 9020, Note_off_c, 4, 60, 100
6, 9024, Note_on_c, 4, 59, 96
6, 9212, Note_off_c, 4, 59, 100
6, 9216, Note_on_c, 4, 57, 96
6, 9344, Note_off_c, 4, 57, 100
6, 9408, Note_on_c, 4, 59, 96
6, 9500, Note_off_c, 4, 59, 100
6, 9504, Note_on_c, 4, 61, 96
6, 9596, Note_off_c, 4, 61, 100
6, 9600, Note_on_c, 4, 62, 96
6, 10172, Note_off_c, 4, 62, 100
6, 10176, Note_on_c, 4, 61, 96
6, 10268, Note_off_c, 4, 61, 100
6, 10272, Note_on_c, 4, 59, 96
6, 10364, Note_off_c, 4, 59, 100
6, 10368, Note_on_c, 4, 61, 96
6, 10460, Note_off_c, 4, 61, 100
6, 10464, Note_on_c, 4, 62, 96
6, 10556, Note_off_c, 4, 62, 100
6, 10560, Note_on_c, 4, 64, 96
6, 10940, Note_off_c, 4, 64, 100
6, 10944, Note_on_c, 4, 62, 96
6, 11324, Note_off_c, 4, 62, 100
6, 11328, Note_on_c, 4, 61, 96
6, 11516, Note_off_c, 4, 61, 100
6, 11520, Note_on_c, 4, 62, 96
6, 12160, Note_off_c, 4, 62, 100
6, 12288, Note_on_c, 4, 66, 96
6, 12476, Note_off_c, 4, 66, 100
6, 12480, Note_on_c, 4, 62, 96
6, 12668, Note_off_c, 4, 62, 100
6, 12672, Note_on_c, 4, 64, 96
6, 12860, Note_off_c, 4, 64, 100
6, 12864, Note_on_c, 4, 66, 96
6, 13052, Note_off_c, 4, 66, 100
6, 13056, Note_on_c, 4, 67, 96
6, 13244, Note_off_c, 4, 67, 100
6, 13248, Note_on_c, 4, 62, 96
6, 13436, Note_off_c, 4, 62, 100
6, 13440, Note_on_c, 4, 67, 96
6, 13628, Note_off_c, 4, 67, 100
6, 13632, Note_on_c, 4, 69, 96
6, 13820, Note_off_c, 4, 69, 100
6, 13824, Note_on_c, 4, 71, 96
6, 13952, Note_off_c, 4, 71, 100
6, 14016, Note_on_c, 4, 64, 96
6, 14204, Note_off_c, 4, 64, 100
6, 14208, Note_on_c, 4, 69, 96
6, 14780, Note_off_c, 4, 69, 100
6, 14784, Note_on_c, 4, 67, 96
6, 14876, Note_off_c, 4, 67, 100
6, 14880, Note_on_c, 4, 66, 96
6, 14972, Note_off_c, 4, 66, 100
6, 14976, Note_on_c, 4, 67, 96
6, 15164, Note_off_c, 4, 67, 100
6, 15552, Note_on_c, 4, 64, 96
6, 15932, Note_off_c, 4, 64, 100
6, 15936, Note_on_c, 4, 62, 96
6, 16028, Note_off_c, 4, 62, 100
6, 16032, Note_on_c, 4, 60, 96
6, 16124, Note_off_c, 4, 60, 100
6, 16128, Note_on_c, 4, 59, 96
6, 16220, Note_off_c, 4, 59, 100
6, 16224, Note_on_c, 4, 57, 96
6, 16316, Note_off_c, 4, 57, 100
6, 16320, Note_on_c, 4, 55, 96
6, 16412, Note_off_c, 4, 55, 100
6, 16416, Note_on_c, 4, 54, 96
6, 16508, Note_off_c, 4, 54, 100
6, 16512, Note_on_c, 4, 55, 96
6, 16604, Note_off_c, 4, 55, 100
6, 16608, Note_on_c, 4, 57, 96
6, 16700, Note_off_c, 4, 57, 100
6, 16704, Note_on_c, 4, 59, 96
6, 16796, Note_off_c, 4, 59, 100
6, 16800, Note_on_c, 4, 55, 96
6, 16864, Note_off_c, 4, 55, 100
6, 16896, Note_on_c, 4, 52, 96
6, 17180, Note_off_c, 4, 52, 100
6, 17184, Note_on_c, 4, 54, 96
6, 17248, Note_off_c, 4, 54, 100
6, 17280, Note_on_c, 4, 52, 96
6, 17324, Note_off_c, 4, 52, 100
6, 17328, Note_on_c, 4, 51, 96
6, 17356, Note_off_c, 4, 51, 100
6, 17360, Note_on_c, 4, 52, 96
6, 17380, Note_off_c, 4, 52, 100
6, 17384, Note_on_c, 4, 51, 96
6, 17660, Note_off_c, 4, 51, 100
6, 17664, Note_on_c, 4, 52, 96
6, 17852, Note_off_c, 4, 52, 100
6, 18048, Note_on_c, 4, 59, 96
6, 18620, Note_off_c, 4, 59, 100
6, 18624, Note_on_c, 4, 57, 96
6, 19004, Note_off_c, 4, 57, 100
6, 19008, Note_on_c, 4, 56, 96
6, 19196, Note_off_c, 4, 56, 100
6, 19200, Note_on_c, 4, 57, 96
6, 19328, Note_off_c, 4, 57, 100
6, 19392, Note_on_c, 4, 60, 96
6, 19484, Note_off_c, 4, 60, 100
6, 19488, Note_on_c, 4, 59, 96
6, 19580, Note_off_c, 4, 59, 100
6, 19584, Note_on_c, 4, 60, 96
6, 19676, Note_off_c, 4, 60, 100
6, 19680, Note_on_c, 4, 64, 96
6, 19772, Note_off_c, 4, 64, 100
6, 19776, Note_on_c, 4, 62, 96
6, 19868, Note_off_c, 4, 62, 100
6, 19872, Note_on_c, 4, 60, 96
6, 19964, Note_off_c, 4, 60, 100
6, 19968, Note_on_c, 4, 59, 96
6, 20348, Note_off_c, 4, 59, 100
6, 20352, Note_on_c, 4, 61, 96
6, 20732, Note_off_c, 4, 61, 100
6, 20736, Note_on_c, 4, 62, 96
6, 21500, Note_off_c, 4, 62, 100
6, 21696, Note_on_c, 4, 67, 96
6, 21884, Note_off_c, 4, 67, 100
6, 21888, Note_on_c, 4, 66, 96
6, 22076, Note_off_c, 4, 66, 100
6, 22080, Note_on_c, 4, 64, 96
6, 22268, Note_off_c, 4, 64, 100
6, 22272, Note_on_c, 4, 62, 96
6, 22400, Note_off_c, 4, 62, 100
6, 22464, Note_on_c, 4, 67, 96
6, 22556, Note_off_c, 4, 67, 100
6, 22560, Note_on_c, 4, 66, 96
6, 22652, Note_off_c, 4, 66, 100
6, 22656, Note_on_c, 4, 67, 96
6, 22748, Note_off_c, 4, 67, 100
6, 22752, Note_on_c, 4, 69, 96
6, 22844, Note_off_c, 4, 69, 100
6, 22848, Note_on_c, 4, 71, 96
6, 23036, Note_off_c, 4, 71, 100
6, 23040, Note_on_c, 4, 64, 96
6, 23228, Note_off_c, 4, 64, 100
6, 23232, Note_on_c, 4, 69, 96
6, 23360, Note_off_c, 4, 69, 100
6, 23424, Note_on_c, 4, 67, 96
6, 23468, Note_off_c, 4, 67, 100
6, 23472, Note_on_c, 4, 66, 96
6, 23500, Note_off_c, 4, 66, 100
6, 23504, Note_on_c, 4, 67, 96
6, 23524, Note_off_c, 4, 67, 100
6, 23528, Note_on_c, 4, 66, 96
6, 23708, Note_off_c, 4, 66, 100
6, 23712, Note_on_c, 4, 67, 96
6, 23776, Note_off_c, 4, 67, 100
6, 23808, Note_on_c, 4, 67, 96
6, 24448, Note_off_c, 4, 67, 100
6, 24448, End_track
7, 0, Start_track
7, 0, Title_t, "bdg@bruno-de-giusti.net"
7, 0, Control_c, 5, 0, 0
7, 0, Program_c, 5, 6
7, 0, Control_c, 5, 7, 127
7, 0, Control_c, 5, 10, 127
7, 0, Control_c, 5, 91, 127
7, 0, Key_signature, 1, "major"
7, 0, Note_on_c, 5, 55, 96
7, 256, Note_off_c, 5, 55, 100
7, 384, Note_on_c, 5, 67, 96
7, 956, Note_off_c, 5, 67, 100
7, 960, Note_on_c, 5, 66, 96
7, 1052, Note_off_c, 5, 66, 100
7, 1056, Note_on_c, 5, 64, 96
7, 1148, Note_off_c, 5, 64, 100
7, 1152, Note_on_c, 5, 66, 96
7, 1340, Note_off_c, 5, 66, 100
7, 1344, Note_on_c, 5, 62, 96
7, 1532, Note_off_c, 5, 62, 100
7, 1536, Note_on_c, 5, 67, 96
7, 1724, Note_off_c, 5, 67, 100
7, 1728, Note_on_c, 5, 69, 96
7, 1916, Note_off_c, 5, 69, 100
7, 1920, Note_on_c, 5, 71, 96
7, 2108, Note_off_c, 5, 71, 100
7, 2112, Note_on_c, 5, 72, 96
7, 2300, Note_off_c, 5, 72, 100
7, 2304, Note_on_c, 5, 74, 96
7, 2688, Note_off_c, 5, 74, 100
7, 2880, Note_on_c, 5, 75, 96
7, 3068, Note_off_c, 5, 75, 100
7, 3072, Note_on_c, 5, 76, 96
7, 3452, Note_off_c, 5, 76, 100
7, 3648, Note_on_c, 5, 72, 96
7, 3836, Note_off_c, 5, 72, 100
7, 3840, Note_on_c, 5, 67, 96
7, 4028, Note_off_c, 5, 67, 100
7, 4032, Note_on_c, 5, 74, 96
7, 4220, Note_off_c, 5, 74, 100
7, 4224, Note_on_c, 5, 79, 96
7, 4412, Note_off_c, 5, 79, 100
7, 4416, Note_on_c, 5, 81, 96
7, 4508, Note_off_c, 5, 81, 100
7, 4512, Note_on_c, 5, 83, 96
7, 4604, Note_off_c, 5, 83, 100
7, 4608, Note_on_c, 5, 84, 96
7, 4796, Note_off_c, 5, 84, 100
7, 4800, Note_on_c, 5, 83, 96
7, 4988, Note_off_c, 5, 83, 100
7, 4992, Note_on_c, 5, 81, 96
7, 5180, Note_off_c, 5, 81, 100
7, 5184, Note_on_c, 5, 86, 96
7, 5372, Note_off_c, 5, 86, 100
7, 5376, Note_on_c, 5, 79, 96
7, 6272, Note_off_c, 5, 79, 100
7, 6336, Note_on_c, 5, 67, 96
7, 6716, Note_off_c, 5, 67, 100
7, 6720, Note_on_c, 5, 66, 96
7, 6908, Note_off_c, 5, 66, 100
7, 6912, Note_on_c, 5, 64, 96
7, 7040, Note_off_c, 5, 64, 100
7, 7104, Note_on_c, 5, 76, 96
7, 7196, Note_off_c, 5, 76, 100
7, 7200, Note_on_c, 5, 75, 96
7, 7292, Note_off_c, 5, 75, 100
7, 7296, Note_on_c, 5, 76, 96
7, 7680, Note_off_c, 5, 76, 100
7, 7872, Note_on_c, 5, 64, 96
7, 8252, Note_off_c, 5, 64, 100
7, 8256, Note_on_c, 5, 62, 96
7, 8444, Note_off_c, 5, 62, 100
7, 8448, Note_on_c, 5, 60, 96
7, 8576, Note_off_c, 5, 60, 100
7, 8640, Note_on_c, 5, 72, 96
7, 8732, Note_off_c, 5, 72, 100
7, 8736, Note_on_c, 5, 71, 96
7, 8828, Note_off_c, 5, 71, 100
7, 8832, Note_on_c, 5, 72, 96
7, 8924, Note_off_c, 5, 72, 100
7, 8928, Note_on_c, 5, 74, 96
7, 9020, Note_off_c, 5, 74, 100
7, 9024, Note_on_c, 5, 76, 96
7, 9116, Note_off_c, 5, 76, 100
7, 9120, Note_on_c, 5, 74, 96
7, 9212, Note_off_c, 5, 74, 100
7, 9216, Note_on_c, 5, 73, 96
7, 9308, Note_off_c, 5, 73, 100
7, 9312, Note_on_c, 5, 69, 96
7, 9404, Note_off_c, 5, 69, 100
7, 9408, Note_on_c, 5, 74, 96
7, 9500, Note_off_c, 5, 74, 100
7, 9504, Note_on_c, 5, 73, 96
7, 9596, Note_off_c, 5, 73, 100
7, 9600, Note_on_c, 5, 71, 96
7, 9692, Note_off_c, 5, 71, 100
7, 9696, Note_on_c, 5, 69, 96
7, 9788, Note_off_c, 5, 69, 100
7, 9792, Note_on_c, 5, 71, 96
7, 9884, Note_off_c, 5, 71, 100
7, 9888, Note_on_c, 5, 68, 96
7, 9980, Note_off_c, 5, 68, 100
7, 9984, Note_on_c, 5, 69, 96
7, 10076, Note_off_c, 5, 69, 100
7, 10080, Note_on_c, 5, 71, 96
7, 10172, Note_off_c, 5, 71, 100
7, 10176, Note_on_c, 5, 69, 96
7, 10268, Note_off_c, 5, 69, 100
7, 10272, Note_on_c, 5, 67, 96
7, 10364, Note_off_c, 5, 67, 100
7, 10368, Note_on_c, 5, 66, 96
7, 10460, Note_off_c, 5, 66, 100
7, 10464, Note_on_c, 5, 64, 96
7, 10556, Note_off_c, 5, 64, 100
7, 10560, Note_on_c, 5, 62, 96
7, 10652, Note_off_c, 5, 62, 100
7, 10656, Note_on_c, 5, 61, 96
7, 10748, Note_off_c, 5, 61, 100
7, 10752, Note_on_c, 5, 62, 96
7, 10844, Note_off_c, 5, 62, 100
7, 10848, Note_on_c, 5, 61, 96
7, 10940, Note_off_c, 5, 61, 100
7, 10944, Note_on_c, 5, 59, 96
7, 11036, Note_off_c, 5, 59, 100
7, 11040, Note_on_c, 5, 57, 96
7, 11132, Note_off_c, 5, 57, 100
7, 11136, Note_on_c, 5, 55, 96
7, 11228, Note_off_c, 5, 55, 100
7, 11232, Note_on_c, 5, 52, 96
7, 11324, Note_off_c, 5, 52, 100
7, 11328, Note_on_c, 5, 57, 96
7, 11456, Note_off_c, 5, 57, 100
7, 11520, Note_on_c, 5, 50, 96
7, 11708, Note_off_c, 5, 50, 100
7, 11712, Note_on_c, 5, 54, 96
7, 11804, Note_off_c, 5, 54, 100
7, 11808, Note_on_c, 5, 57, 96
7, 11900, Note_off_c, 5, 57, 100
7, 11904, Note_on_c, 5, 62, 96
7, 12160, Note_off_c, 5, 62, 100
7, 12288, Note_on_c, 5, 62, 96
7, 12416, Note_off_c, 5, 62, 100
7, 12480, Note_on_c, 5, 74, 96
7, 12860, Note_off_c, 5, 74, 100
7, 12864, Note_on_c, 5, 72, 96
7, 13052, Note_off_c, 5, 72, 100
7, 13056, Note_on_c, 5, 71, 96
7, 13148, Note_off_c, 5, 71, 100
7, 13152, Note_on_c, 5, 69, 96
7, 13244, Note_off_c, 5, 69, 100
7, 13248, Note_on_c, 5, 71, 96
7, 13340, Note_off_c, 5, 71, 100
7, 13344, Note_on_c, 5, 72, 96
7, 13436, Note_off_c, 5, 72, 100
7, 13440, Note_on_c, 5, 71, 96
7, 13532, Note_off_c, 5, 71, 100
7, 13536, Note_on_c, 5, 69, 96
7, 13628, Note_off_c, 5, 69, 100
7, 13632, Note_on_c, 5, 67, 96
7, 13724, Note_off_c, 5, 67, 100
7, 13728, Note_on_c, 5, 66, 96
7, 13820, Note_off_c, 5, 66, 100
7, 13824, Note_on_c, 5, 67, 96
7, 13952, Note_off_c, 5, 67, 100
7, 14016, Note_on_c, 5, 79, 96
7, 14396, Note_off_c, 5, 79, 100
7, 14400, Note_on_c, 5, 78, 96
7, 14588, Note_off_c, 5, 78, 100
7, 14592, Note_on_c, 5, 76, 96
7, 14684, Note_off_c, 5, 76, 100
7, 14688, Note_on_c, 5, 75, 96
7, 14780, Note_off_c, 5, 75, 100
7, 14784, Note_on_c, 5, 76, 96
7, 14876, Note_off_c, 5, 76, 100
7, 14880, Note_on_c, 5, 78, 96
7, 14972, Note_off_c, 5, 78, 100
7, 14976, Note_on_c, 5, 76, 96
7, 15068, Note_off_c, 5, 76, 100
7, 15072, Note_on_c, 5, 74, 96
7, 15164, Note_off_c, 5, 74, 100
7, 15168, Note_on_c, 5, 72, 96
7, 15260, Note_off_c, 5, 72, 100
7, 15264, Note_on_c, 5, 71, 96
7, 15356, Note_off_c, 5, 71, 100
7, 15360, Note_on_c, 5, 70, 96
7, 15424, Note_off_c, 5, 70, 100
7, 15456, Note_on_c, 5, 76, 96
7, 15548, Note_off_c, 5, 76, 100
7, 15552, Note_on_c, 5, 78, 96
7, 15644, Note_off_c, 5, 78, 100
7, 15648, Note_on_c, 5, 79, 96
7, 15740, Note_off_c, 5, 79, 100
7, 15744, Note_on_c, 5, 81, 96
7, 15932, Note_off_c, 5, 81, 100
7, 15936, Note_on_c, 5, 69, 96
7, 16064, Note_off_c, 5, 69, 100
7, 16128, Note_on_c, 5, 67, 96
7, 16220, Note_off_c, 5, 67, 100
7, 16224, Note_on_c, 5, 69, 96
7, 16316, Note_off_c, 5, 69, 100
7, 16320, Note_on_c, 5, 71, 96
7, 16412, Note_off_c, 5, 71, 100
7, 16416, Note_on_c, 5, 67, 96
7, 16508, Note_off_c, 5, 67, 100
7, 16512, Note_on_c, 5, 64, 96
7, 16576, Note_off_c, 5, 64, 100
7, 16608, Note_on_c, 5, 66, 96
7, 16700, Note_off_c, 5, 66, 100
7, 16704, Note_on_c, 5, 67, 96
7, 16796, Note_off_c, 5, 67, 100
7, 16800, Note_on_c, 5, 64, 96
7, 16892, Note_off_c, 5, 64, 100
7, 16896, Note_on_c, 5, 72, 96
7, 17024, Note_off_c, 5, 72, 100
7, 17088, Note_on_c, 5, 71, 96
7, 17276, Note_off_c, 5, 71, 100
7, 17280, Note_on_c, 5, 72, 96
7, 17468, Note_off_c, 5, 72, 100
7, 17472, Note_on_c, 5, 59, 96
7, 17660, Note_off_c, 5, 59, 100
7, 17664, Note_on_c, 5, 52, 96
7, 18044, Note_off_c, 5, 52, 100
7, 18240, Note_on_c, 5, 64, 96
7, 18620, Note_off_c, 5, 64, 100
7, 18624, Note_on_c, 5, 60, 96
7, 18812, Note_off_c, 5, 60, 100
7, 18816, Note_on_c, 5, 62, 96
7, 19004, Note_off_c, 5, 62, 100
7, 19008, Note_on_c, 5, 64, 96
7, 19196, Note_off_c, 5, 64, 100
7, 19200, Note_on_c, 5, 57, 96
7, 19328, Note_off_c, 5, 57, 100
7, 19392, Note_on_c, 5, 69, 96
7, 19580, Note_off_c, 5, 69, 100
7, 19584, Note_on_c, 5, 64, 96
7, 19676, Note_off_c, 5, 64, 100
7, 19680, Note_on_c, 5, 62, 96
7, 19772, Note_off_c, 5, 62, 100
7, 19776, Note_on_c, 5, 64, 96
7, 19868, Note_off_c, 5, 64, 100
7, 19872, Note_on_c, 5, 66, 96
7, 19964, Note_off_c, 5, 66, 100
7, 19968, Note_on_c, 5, 67, 96
7, 20060, Note_off_c, 5, 67, 100
7, 20064, Note_on_c, 5, 69, 96
7, 20156, Note_off_c, 5, 69, 100
7, 20160, Note_on_c, 5, 71, 96
7, 20252, Note_off_c, 5, 71, 100
7, 20256, Note_on_c, 5, 67, 96
7, 20348, Note_off_c, 5, 67, 100
7, 20352, Note_on_c, 5, 69, 96
7, 20444, Note_off_c, 5, 69, 100
7, 20448, Note_on_c, 5, 66, 96
7, 20540, Note_off_c, 5, 66, 100
7, 20544, Note_on_c, 5, 67, 96
7, 20636, Note_off_c, 5, 67, 100
7, 20640, Note_on_c, 5, 69, 96
7, 20704, Note_off_c, 5, 69, 100
7, 20736, Note_on_c, 5, 62, 96
7, 20828, Note_off_c, 5, 62, 100
7, 20832, Note_on_c, 5, 64, 96
7, 20924, Note_off_c, 5, 64, 100
7, 20928, Note_on_c, 5, 66, 96
7, 21020, Note_off_c, 5, 66, 100
7, 21024, Note_on_c, 5, 67, 96
7, 21116, Note_off_c, 5, 67, 100
7, 21120, Note_on_c, 5, 66, 96
7, 21212, Note_off_c, 5, 66, 100
7, 21216, Note_on_c, 5, 64, 96
7, 21308, Note_off_c, 5, 64, 100
7, 21312, Note_on_c, 5, 62, 96
7, 21404, Note_off_c, 5, 62, 100
7, 21408, Note_on_c, 5, 60, 96
7, 21500, Note_off_c, 5, 60, 100
7, 21504, Note_on_c, 5, 59, 96
7, 21568, Note_off_c, 5, 59, 100
7, 21600, Note_on_c, 5, 55, 96
7, 21692, Note_off_c, 5, 55, 100
7, 21696, Note_on_c, 5, 57, 96
7, 21788, Note_off_c, 5, 57, 100
7, 21792, Note_on_c, 5, 59, 96
7, 21884, Note_off_c, 5, 59, 100
7, 21888, Note_on_c, 5, 60, 96
7, 21980, Note_off_c, 5, 60, 100
7, 21984, Note_on_c, 5, 62, 96
7, 22076, Note_off_c, 5, 62, 100
7, 22080, Note_on_c, 5, 64, 96
7, 22172, Note_off_c, 5, 64, 100
7, 22176, Note_on_c, 5, 66, 96
7, 22268, Note_off_c, 5, 66, 100
7, 22272, Note_on_c, 5, 67, 96
7, 22364, Note_off_c, 5, 67, 100
7, 22368, Note_on_c, 5, 69, 96
7, 22460, Note_off_c, 5, 69, 100
7, 22464, Note_on_c, 5, 71, 96
7, 22556, Note_off_c, 5, 71, 100
7, 22560, Note_on_c, 5, 69, 96
7, 22652, Note_off_c, 5, 69, 100
7, 22656, Note_on_c, 5, 67, 96
7, 22748, Note_off_c, 5, 67, 100
7, 22752, Note_on_c, 5, 66, 96
7, 22844, Note_off_c, 5, 66, 100
7, 22848, Note_on_c, 5, 64, 96
7, 22940, Note_off_c, 5, 64, 100
7, 22944, Note_on_c, 5, 62, 96
7, 23036, Note_off_c, 5, 62, 100
7, 23040, Note_on_c, 5, 60, 96
7, 23132, Note_off_c, 5, 60, 100
7, 23136, Note_on_c, 5, 59, 96
7, 23228, Note_off_c, 5, 59, 100
7, 23232, Note_on_c, 5, 60, 96
7, 23324, Note_off_c, 5, 60, 100
7, 23328, Note_on_c, 5, 57, 96
7, 23420, Note_off_c, 5, 57, 100
7, 23424, Note_on_c, 5, 62, 96
7, 23552, Note_off_c, 5, 62, 100
7, 23616, Note_on_c, 5, 50, 96
7, 23744, Note_off_c, 5, 50, 100
7, 23808, Note_on_c, 5, 55, 96
7, 23996, Note_off_c, 5, 55, 100
7, 24000, Note_on_c, 5, 59, 96
7, 24092, Note_off_c, 5, 59, 100
7, 24096, Note_on_c, 5, 62, 96
7, 24232, Note_off_c, 5, 62, 100
7, 24236, Note_on_c, 5, 67, 96
7, 24492, Note_off_c, 5, 67, 100
7, 24492, End_track
8, 0, Start_track
8, 0, Title_t, "www.bruno-de-giusti.net"
8, 0, Control_c, 6, 0, 0
8, 0, Program_c, 6, 6
8, 0, Control_c, 6, 7, 127
8, 0, Control_c, 6, 10, 89
8, 0, Control_c, 6, 91, 127
8, 0, Key_signature, 1, "major"
8, 0, Note_on_c, 6, 83, 127
8, 188, Note_off_c, 6, 83, 100
8, 192, Note_on_c, 6, 81, 127
8, 380, Note_off_c, 6, 81, 100
8, 384, Note_on_c, 6, 83, 127
8, 572, Note_off_c, 6, 83, 100
8, 576, Note_on_c, 6, 84, 127
8, 764, Note_off_c, 6, 84, 100
8, 768, Note_on_c, 6, 86, 127
8, 956, Note_off_c, 6, 86, 100
8, 960, Note_on_c, 6, 81, 127
8, 1148, Note_off_c, 6, 81, 100
8, 1152, Note_on_c, 6, 86, 127
8, 1340, Note_off_c, 6, 86, 100
8, 1344, Note_on_c, 6, 84, 127
8, 1532, Note_off_c, 6, 84, 100
8, 1536, Note_on_c, 6, 83, 127
8, 1664, Note_off_c, 6, 83, 100
8, 1728, Note_on_c, 6, 86, 127
8, 1916, Note_off_c, 6, 86, 100
8, 1920, Note_on_c, 6, 91, 127
8, 2300, Note_off_c, 6, 91, 100
8, 2496, Note_on_c, 6, 93, 127
8, 2588, Note_off_c, 6, 93, 100
8, 2592, Note_on_c, 6, 91, 127
8, 2684, Note_off_c, 6, 91, 100
8, 2688, Note_on_c, 6, 90, 127
8, 3068, Note_off_c, 6, 90, 100
8, 3072, Note_on_c, 6, 91, 127
8, 3200, Note_off_c, 6, 91, 100
8, 3264, Note_on_c, 6, 90, 127
8, 3452, Note_off_c, 6, 90, 100
8, 3456, Note_on_c, 6, 91, 127
8, 3644, Note_off_c, 6, 91, 100
8, 3648, Note_on_c, 6, 93, 127
8, 3836, Note_off_c, 6, 93, 100
8, 3840, Note_on_c, 6, 95, 127
8, 4028, Note_off_c, 6, 95, 100
8, 4032, Note_on_c, 6, 90, 127
8, 4220, Note_off_c, 6, 90, 100
8, 4224, Note_on_c, 6, 95, 127
8, 4412, Note_off_c, 6, 95, 100
8, 4416, Note_on_c, 6, 93, 127
8, 4604, Note_off_c, 6, 93, 100
8, 4608, Note_on_c, 6, 91, 127
8, 4736, Note_off_c, 6, 91, 100
8, 4800, Note_on_c, 6, 93, 127
8, 4892, Note_off_c, 6, 93, 100
8, 4896, Note_on_c, 6, 95, 127
8, 4988, Note_off_c, 6, 95, 100
8, 4992, Note_on_c, 6, 96, 127
8, 5564, Note_off_c, 6, 96, 100
8, 5568, Note_on_c, 6, 95, 127
8, 5660, Note_off_c, 6, 95, 100
8, 5664, Note_on_c, 6, 93, 127
8, 5756, Note_off_c, 6, 93, 100
8, 5760, Note_on_c, 6, 95, 127
8, 5948, Note_off_c, 6, 95, 100
8, 5952, Note_on_c, 6, 83, 127
8, 6140, Note_off_c, 6, 83, 100
8, 6144, Note_on_c, 6, 85, 127
8, 6272, Note_off_c, 6, 85, 100
8, 6336, Note_on_c, 6, 83, 127
8, 6524, Note_off_c, 6, 83, 100
8, 6528, Note_on_c, 6, 85, 127
8, 6716, Note_off_c, 6, 85, 100
8, 6720, Note_on_c, 6, 87, 127
8, 6908, Note_off_c, 6, 87, 100
8, 6912, Note_on_c, 6, 88, 127
8, 7100, Note_off_c, 6, 88, 100
8, 7104, Note_on_c, 6, 83, 127
8, 7292, Note_off_c, 6, 83, 100
8, 7296, Note_on_c, 6, 88, 127
8, 7484, Note_off_c, 6, 88, 100
8, 7488, Note_on_c, 6, 86, 127
8, 7676, Note_off_c, 6, 86, 100
8, 7680, Note_on_c, 6, 84, 127
8, 7808, Note_off_c, 6, 84, 100
8, 7872, Note_on_c, 6, 86, 127
8, 7964, Note_off_c, 6, 86, 100
8, 7968, Note_on_c, 6, 88, 127
8, 8060, Note_off_c, 6, 88, 100
8, 8064, Note_on_c, 6, 89, 127
8, 8636, Note_off_c, 6, 89, 100
8, 8640, Note_on_c, 6, 88, 127
8, 8732, Note_off_c, 6, 88, 100
8, 8736, Note_on_c, 6, 86, 127
8, 8828, Note_off_c, 6, 86, 100
8, 8832, Note_on_c, 6, 88, 127
8, 8924, Note_off_c, 6, 88, 100
8, 8928, Note_on_c, 6, 90, 127
8, 9020, Note_off_c, 6, 90, 100
8, 9024, Note_on_c, 6, 91, 127
8, 9404, Note_off_c, 6, 91, 100
8, 9408, Note_on_c, 6, 90, 127
8, 9788, Note_off_c, 6, 90, 100
8, 9792, Note_on_c, 6, 88, 127
8, 9980, Note_off_c, 6, 88, 100
8, 9984, Note_on_c, 6, 90, 127
8, 10172, Note_off_c, 6, 90, 100
8, 10176, Note_on_c, 6, 91, 127
8, 10304, Note_off_c, 6, 91, 100
8, 10368, Note_on_c, 6, 93, 127
8, 10496, Note_off_c, 6, 93, 100
8, 10560, Note_on_c, 6, 91, 127
8, 10688, Note_off_c, 6, 91, 100
8, 10752, Note_on_c, 6, 90, 127
8, 11132, Note_off_c, 6, 90, 100
8, 11136, Note_on_c, 6, 88, 127
8, 11516, Note_off_c, 6, 88, 100
8, 11520, Note_on_c, 6, 86, 127
8, 12160, Note_off_c, 6, 86, 100
8, 13824, Note_on_c, 6, 86, 127
8, 14012, Note_off_c, 6, 86, 100
8, 14016, Note_on_c, 6, 83, 127
8, 14204, Note_off_c, 6, 83, 100
8, 14208, Note_on_c, 6, 85, 127
8, 14396, Note_off_c, 6, 85, 100
8, 14400, Note_on_c, 6, 87, 127
8, 14588, Note_off_c, 6, 87, 100
8, 14592, Note_on_c, 6, 88, 127
8, 14780, Note_off_c, 6, 88, 100
8, 14784, Note_on_c, 6, 83, 127
8, 14972, Note_off_c, 6, 83, 100
8, 14976, Note_on_c, 6, 88, 127
8, 15164, Note_off_c, 6, 88, 100
8, 15168, Note_on_c, 6, 90, 127
8, 15356, Note_off_c, 6, 90, 100
8, 15360, Note_on_c, 6, 91, 127
8, 15488, Note_off_c, 6, 91, 100
8, 15552, Note_on_c, 6, 85, 127
8, 15740, Note_off_c, 6, 85, 100
8, 15744, Note_on_c, 6, 89, 127
8, 16316, Note_off_c, 6, 89, 100
8, 16320, Note_on_c, 6, 88, 127
8, 16412, Note_off_c, 6, 88, 100
8, 16416, Note_on_c, 6, 87, 127
8, 16508, Note_off_c, 6, 87, 100
8, 16512, Note_on_c, 6, 88, 127
8, 16700, Note_off_c, 6, 88, 100
8, 17088, Note_on_c, 6, 84, 127
8, 17468, Note_off_c, 6, 84, 100
8, 17472, Note_on_c, 6, 83, 127
8, 17564, Note_off_c, 6, 83, 100
8, 17568, Note_on_c, 6, 81, 127
8, 17660, Note_off_c, 6, 81, 100
8, 17664, Note_on_c, 6, 79, 127
8, 17756, Note_off_c, 6, 79, 100
8, 17760, Note_on_c, 6, 78, 127
8, 17852, Note_off_c, 6, 78, 100
8, 17856, Note_on_c, 6, 76, 127
8, 17948, Note_off_c, 6, 76, 100
8, 17952, Note_on_c, 6, 75, 127
8, 18044, Note_off_c, 6, 75, 100
8, 18048, Note_on_c, 6, 76, 127
8, 18140, Note_off_c, 6, 76, 100
8, 18144, Note_on_c, 6, 78, 127
8, 18236, Note_off_c, 6, 78, 100
8, 18240, Note_on_c, 6, 79, 127
8, 18332, Note_off_c, 6, 79, 100
8, 18336, Note_on_c, 6, 76, 127
8, 18400, Note_off_c, 6, 76, 100
8, 18432, Note_on_c, 6, 72, 127
8, 18716, Note_off_c, 6, 72, 100
8, 18720, Note_on_c, 6, 74, 127
8, 18784, Note_off_c, 6, 74, 100
8, 18816, Note_on_c, 6, 72, 127
8, 18860, Note_off_c, 6, 72, 100
8, 18864, Note_on_c, 6, 71, 127
8, 18892, Note_off_c, 6, 71, 100
8, 18896, Note_on_c, 6, 72, 127
8, 18916, Note_off_c, 6, 72, 100
8, 18920, Note_on_c, 6, 71, 127
8, 19196, Note_off_c, 6, 71, 100
8, 19200, Note_on_c, 6, 72, 127
8, 19388, Note_off_c, 6, 72, 100
8, 19584, Note_on_c, 6, 79, 127
8, 20156, Note_off_c, 6, 79, 100
8, 20160, Note_on_c, 6, 78, 127
8, 20540, Note_off_c, 6, 78, 100
8, 20544, Note_on_c, 6, 76, 127
8, 20732, Note_off_c, 6, 76, 100
8, 20736, Note_on_c, 6, 78, 127
8, 20864, Note_off_c, 6, 78, 100
8, 20928, Note_on_c, 6, 81, 127
8, 21020, Note_off_c, 6, 81, 100
8, 21024, Note_on_c, 6, 79, 127
8, 21116, Note_off_c, 6, 79, 100
8, 21120, Note_on_c, 6, 81, 127
8, 21212, Note_off_c, 6, 81, 100
8, 21216, Note_on_c, 6, 84, 127
8, 21308, Note_off_c, 6, 84, 100
8, 21312, Note_on_c, 6, 83, 127
8, 21404, Note_off_c, 6, 83, 100
8, 21408, Note_on_c, 6, 81, 127
8, 21500, Note_off_c, 6, 81, 100
8, 21504, Note_on_c, 6, 79, 127
8, 21884, Note_off_c, 6, 79, 100
8, 21888, Note_on_c, 6, 81, 127
8, 22268, Note_off_c, 6, 81, 100
8, 22272, Note_on_c, 6, 83, 127
8, 23036, Note_off_c, 6, 83, 100
8, 23232, Note_on_c, 6, 88, 127
8, 23420, Note_off_c, 6, 88, 100
8, 23424, Note_on_c, 6, 86, 127
8, 23612, Note_off_c, 6, 86, 100
8, 23616, Note_on_c, 6, 84, 127
8, 23804, Note_off_c, 6, 84, 100
8, 23808, Note_on_c, 6, 83, 127
8, 24448, Note_off_c, 6, 83, 100
8, 24448, End_track
9, 0, Start_track
9, 0, Title_t, "All rights reserved"
9, 0, Control_c, 7, 0, 0
9, 0, Program_c, 7, 6
9, 0, Control_c, 7, 7, 127
9, 0, Control_c, 7, 10, 42
9, 0, Control_c, 7, 91, 127
9, 0, Key_signature, 1, "major"
9, 1536, Note_on_c, 7, 79, 127
9, 1724, Note_off_c, 7, 79, 100
9, 1728, Note_on_c, 7, 78, 127
9, 1916, Note_off_c, 7, 78, 100
9, 1920, Note_on_c, 7, 79, 127
9, 2108, Note_off_c, 7, 79, 100
9, 2112, Note_on_c, 7, 81, 127
9, 2300, Note_off_c, 7, 81, 100
9, 2304, Note_on_c, 7, 83, 127
9, 2492, Note_off_c, 7, 83, 100
9, 2496, Note_on_c, 7, 78, 127
9, 2684, Note_off_c, 7, 78, 100
9, 2688, Note_on_c, 7, 83, 127
9, 2876, Note_off_c, 7, 83, 100
9, 2880, Note_on_c, 7, 81, 127
9, 3068, Note_off_c, 7, 81, 100
9, 3072, Note_on_c, 7, 79, 127
9, 3200, Note_off_c, 7, 79, 100
9, 3264, Note_on_c, 7, 83, 127
9, 3452, Note_off_c, 7, 83, 100
9, 3456, Note_on_c, 7, 88, 127
9, 3836, Note_off_c, 7, 88, 100
9, 4032, Note_on_c, 7, 90, 127
9, 4124, Note_off_c, 7, 90, 100
9, 4128, Note_on_c, 7, 88, 127
9, 4220, Note_off_c, 7, 88, 100
9, 4224, Note_on_c, 7, 86, 127
9, 4604, Note_off_c, 7, 86, 100
9, 4608, Note_on_c, 7, 88, 127
9, 4736, Note_off_c, 7, 88, 100
9, 4800, Note_on_c, 7, 86, 127
9, 4988, Note_off_c, 7, 86, 100
9, 4992, Note_on_c, 7, 88, 127
9, 5180, Note_off_c, 7, 88, 100
9, 5184, Note_on_c, 7, 90, 127
9, 5372, Note_off_c, 7, 90, 100
9, 5376, Note_on_c, 7, 91, 127
9, 5564, Note_off_c, 7, 91, 100
9, 5568, Note_on_c, 7, 86, 127
9, 5756, Note_off_c, 7, 86, 100
9, 5760, Note_on_c, 7, 91, 127
9, 5948, Note_off_c, 7, 91, 100
9, 5952, Note_on_c, 7, 90, 127
9, 6140, Note_off_c, 7, 90, 100
9, 6144, Note_on_c, 7, 88, 127
9, 6272, Note_off_c, 7, 88, 100
9, 6336, Note_on_c, 7, 90, 127
9, 6428, Note_off_c, 7, 90, 100
9, 6432, Note_on_c, 7, 91, 127
9, 6524, Note_off_c, 7, 91, 100
9, 6528, Note_on_c, 7, 93, 127
9, 7100, Note_off_c, 7, 93, 100
9, 7104, Note_on_c, 7, 91, 127
9, 7196, Note_off_c, 7, 91, 100
9, 7200, Note_on_c, 7, 90, 127
9, 7292, Note_off_c, 7, 90, 100
9, 7296, Note_on_c, 7, 91, 127
9, 7484, Note_off_c, 7, 91, 100
9, 7488, Note_on_c, 7, 79, 127
9, 7676, Note_off_c, 7, 79, 100
9, 7680, Note_on_c, 7, 81, 127
9, 7808, Note_off_c, 7, 81, 100
9, 7872, Note_on_c, 7, 79, 127
9, 8060, Note_off_c, 7, 79, 100
9, 8064, Note_on_c, 7, 81, 127
9, 8252, Note_off_c, 7, 81, 100
9, 8256, Note_on_c, 7, 83, 127
9, 8444, Note_off_c, 7, 83, 100
9, 8448, Note_on_c, 7, 84, 127
9, 8636, Note_off_c, 7, 84, 100
9, 8640, Note_on_c, 7, 79, 127
9, 8828, Note_off_c, 7, 79, 100
9, 8832, Note_on_c, 7, 84, 127
9, 9020, Note_off_c, 7, 84, 100
9, 9024, Note_on_c, 7, 83, 127
9, 9212, Note_off_c, 7, 83, 100
9, 9216, Note_on_c, 7, 81, 127
9, 9344, Note_off_c, 7, 81, 100
9, 9408, Note_on_c, 7, 83, 127
9, 9500, Note_off_c, 7, 83, 100
9, 9504, Note_on_c, 7, 85, 127
9, 9596, Note_off_c, 7, 85, 100
9, 9600, Note_on_c, 7, 86, 127
9, 10172, Note_off_c, 7, 86, 100
9, 10176, Note_on_c, 7, 85, 127
9, 10268, Note_off_c, 7, 85, 100
9, 10272, Note_on_c, 7, 83, 127
9, 10364, Note_off_c, 7, 83, 100
9, 10368, Note_on_c, 7, 85, 127
9, 10460, Note_off_c, 7, 85, 100
9, 10464, Note_on_c, 7, 86, 127
9, 10556, Note_off_c, 7, 86, 100
9, 10560, Note_on_c, 7, 88, 127
9, 10940, Note_off_c, 7, 88, 100
9, 10944, Note_on_c, 7, 86, 127
9, 11324, Note_off_c, 7, 86, 100
9, 11328, Note_on_c, 7, 85, 127
9, 11516, Note_off_c, 7, 85, 100
9, 11520, Note_on_c, 7, 86, 127
9, 12160, Note_off_c, 7, 86, 100
9, 12288, Note_on_c, 7, 90, 127
9, 12476, Note_off_c, 7, 90, 100
9, 12480, Note_on_c, 7, 86, 127
9, 12668, Note_off_c, 7, 86, 100
9, 12672, Note_on_c, 7, 88, 127
9, 12860, Note_off_c, 7, 88, 100
9, 12864, Note_on_c, 7, 90, 127
9, 13052, Note_off_c, 7, 90, 100
9, 13056, Note_on_c, 7, 91, 127
9, 13244, Note_off_c, 7, 91, 100
9, 13248, Note_on_c, 7, 86, 127
9, 13436, Note_off_c, 7, 86, 100
9, 13440, Note_on_c, 7, 91, 127
9, 13628, Note_off_c, 7, 91, 100
9, 13632, Note_on_c, 7, 93, 127
9, 13820, Note_off_c, 7, 93, 100
9, 13824, Note_on_c, 7, 95, 127
9, 13952, Note_off_c, 7, 95, 100
9, 14016, Note_on_c, 7, 88, 127
9, 14204, Note_off_c, 7, 88, 100
9, 14208, Note_on_c, 7, 93, 127
9, 14780, Note_off_c, 7, 93, 100
9, 14784, Note_on_c, 7, 91, 127
9, 14876, Note_off_c, 7, 91, 100
9, 14880, Note_on_c, 7, 90, 127
9, 14972, Note_off_c, 7, 90, 100
9, 14976, Note_on_c, 7, 91, 127
9, 15164, Note_off_c, 7, 91, 100
9, 15552, Note_on_c, 7, 88, 127
9, 15932, Note_off_c, 7, 88, 100
9, 15936, Note_on_c, 7, 86, 127
9, 16028, Note_off_c, 7, 86, 100
9, 16032, Note_on_c, 7, 84, 127
9, 16124, Note_off_c, 7, 84, 100
9, 16128, Note_on_c, 7, 83, 127
9, 16220, Note_off_c, 7, 83, 100
9, 16224, Note_on_c, 7, 81, 127
9, 16316, Note_off_c, 7, 81, 100
9, 16320, Note_on_c, 7, 79, 127
9, 16412, Note_off_c, 7, 79, 100
9, 16416, Note_on_c, 7, 78, 127
9, 16508, Note_off_c, 7, 78, 100
9, 16512, Note_on_c, 7, 79, 127
9, 16604, Note_off_c, 7, 79, 100
9, 16608, Note_on_c, 7, 81, 127
9, 16700, Note_off_c, 7, 81, 100
9, 16704, Note_on_c, 7, 83, 127
9, 16796, Note_off_c, 7, 83, 100
9, 16800, Note_on_c, 7, 79, 127
9, 16864, Note_off_c, 7, 79, 100
9, 16896, Note_on_c, 7, 76, 127
9, 17180, Note_off_c, 7, 76, 100
9, 17184, Note_on_c, 7, 78, 127
9, 17248, Note_off_c, 7, 78, 100
9, 17280, Note_on_c, 7, 76, 127
9, 17324, Note_off_c, 7, 76, 100
9, 17328, Note_on_c, 7, 75, 127
9, 17356, Note_off_c, 7, 75, 100
9, 17360, Note_on_c, 7, 76, 127
9, 17380, Note_off_c, 7, 76, 100
9, 17384, Note_on_c, 7, 75, 127
9, 17660, Note_off_c, 7, 75, 100
9, 17664, Note_on_c, 7, 76, 127
9, 17852, Note_off_c, 7, 76, 100
9, 18048, Note_on_c, 7, 83, 127
9, 18620, Note_off_c, 7, 83, 100
9, 18624, Note_on_c, 7, 81, 127
9, 19004, Note_off_c, 7, 81, 100
9, 19008, Note_on_c, 7, 80, 127
9, 19196, Note_off_c, 7, 80, 100
9, 19200, Note_on_c, 7, 81, 127
9, 19328, Note_off_c, 7, 81, 100
9, 19392, Note_on_c, 7, 84, 127
9, 19484, Note_off_c, 7, 84, 100
9, 19488, Note_on_c, 7, 83, 127
9, 19580, Note_off_c, 7, 83, 100
9, 19584, Note_on_c, 7, 84, 127
9, 19676, Note_off_c, 7, 84, 100
9, 19680, Note_on_c, 7, 88, 127
9, 19772, Note_off_c, 7, 88, 100
9, 19776, Note_on_c, 7, 86, 127
9, 19868, Note_off_c, 7, 86, 100
9, 19872, Note_on_c, 7, 84, 127
9, 19964, Note_off_c, 7, 84, 100
9, 19968, Note_on_c, 7, 83, 127
9, 20348, Note_off_c, 7, 83, 100
9, 20352, Note_on_c, 7, 85, 127
9, 20732, Note_off_c, 7, 85, 100
9, 20736, Note_on_c, 7, 86, 127
9, 21500, Note_off_c, 7, 86, 100
9, 21696, Note_on_c, 7, 91, 127
9, 21884, Note_off_c, 7, 91, 100
9, 21888, Note_on_c, 7, 90, 127
9, 22076, Note_off_c, 7, 90, 100
9, 22080, Note_on_c, 7, 88, 127
9, 22268, Note_off_c, 7, 88, 100
9, 22272, Note_on_c, 7, 86, 127
9, 22400, Note_off_c, 7, 86, 100
9, 22464, Note_on_c, 7, 91, 127
9, 22556, Note_off_c, 7, 91, 100
9, 22560, Note_on_c, 7, 90, 127
9, 22652, Note_off_c, 7, 90, 100
9, 22656, Note_on_c, 7, 91, 127
9, 22748, Note_off_c, 7, 91, 100
9, 22752, Note_on_c, 7, 93, 127
9, 22844, Note_off_c, 7, 93, 100
9, 22848, Note_on_c, 7, 95, 127
9, 23036, Note_off_c, 7, 95, 100
9, 23040, Note_on_c, 7, 88, 127
9, 23228, Note_off_c, 7, 88, 100
9, 23232, Note_on_c, 7, 93, 127
9, 23360, Note_off_c, 7, 93, 100
9, 23424, Note_on_c, 7, 91, 127
9, 23468, Note_off_c, 7, 91, 100
9, 23472, Note_on_c, 7, 90, 127
9, 23500, Note_off_c, 7, 90, 100
9, 23504, Note_on_c, 7, 91, 127
9, 23524, Note_off_c, 7, 91, 100
9, 23528, Note_on_c, 7, 90, 127
9, 23708, Note_off_c, 7, 90, 100
9, 23712, Note_on_c, 7, 91, 127
9, 23776, Note_off_c, 7, 91, 100
9, 23808, Note_on_c, 7, 91, 127
9, 24448, Note_off_c, 7, 91, 100
9, 24448, End_track
10, 0, Start_track
10, 0, Control_c, 8, 0, 0
10, 0, Program_c, 8, 6
10, 0, Control_c, 8, 7, 127
10, 0, Control_c, 8, 10, 0
10, 0, Control_c, 8, 91, 127
10, 0, Key_signature, 1, "major"
10, 0, Note_on_c, 8, 31, 96
10, 256, Note_off_c, 8, 31, 100
10, 384, Note_on_c, 8, 43, 96
10, 956, Note_off_c, 8, 43, 100
10, 960, Note_on_c, 8, 42, 96
10, 1052, Note_off_c, 8, 42, 100
10, 1056, Note_on_c, 8, 40, 96
10, 1148, Note_off_c, 8, 40, 100
10, 1152, Note_on_c, 8, 42, 96
10, 1340, Note_off_c, 8, 42, 100
10, 1344, Note_on_c, 8, 38, 96
10, 1532, Note_off_c, 8, 38, 100
10, 1536, Note_on_c, 8, 43, 96
10, 1724, Note_off_c, 8, 43, 100
10, 1728, Note_on_c, 8, 45, 96
10, 1916, Note_off_c, 8, 45, 100
10, 1920, Note_on_c, 8, 47, 96
10, 2108, Note_off_c, 8, 47, 100
10, 2112, Note_on_c, 8, 48, 96
10, 2300, Note_off_c, 8, 48, 100
10, 2304, Note_on_c, 8, 50, 96
10, 2688, Note_off_c, 8, 50, 100
10, 2880, Note_on_c, 8, 51, 96
10, 3068, Note_off_c, 8, 51, 100
10, 3072, Note_on_c, 8, 52, 96
10, 3452, Note_off_c, 8, 52, 100
10, 3648, Note_on_c, 8, 48, 96
10, 3836, Note_off_c, 8, 48, 100
10, 3840, Note_on_c, 8, 43, 96
10, 4028, Note_off_c, 8, 43, 100
10, 4032, Note_on_c, 8, 50, 96
10, 4220, Note_off_c, 8, 50, 100
10, 4224, Note_on_c, 8, 55, 96
10, 4412, Note_off_c, 8, 55, 100
10, 4416, Note_on_c, 8, 57, 96
10, 4508, Note_off_c, 8, 57, 100
10, 4512, Note_on_c, 8, 59, 96
10, 4604, Note_off_c, 8, 59, 100
10, 4608, Note_on_c, 8, 60, 96
10, 4796, Note_off_c, 8, 60, 100
10, 4800, Note_on_c, 8, 59, 96
10, 4988, Note_off_c, 8, 59, 100
10, 4992, Note_on_c, 8, 57, 96
10, 5180, Note_off_c, 8, 57, 100
10, 5184, Note_on_c, 8, 62, 96
10, 5372, Note_off_c, 8, 62, 100
10, 5376, Note_on_c, 8, 55, 96
10, 6272, Note_off_c, 8, 55, 100
10, 6336, Note_on_c, 8, 43, 96
10, 6716, Note_off_c, 8, 43, 100
10, 6720, Note_on_c, 8, 42, 96
10, 6908, Note_off_c, 8, 42, 100
10, 6912, Note_on_c, 8, 40, 96
10, 7040, Note_off_c, 8, 40, 100
10, 7104, Note_on_c, 8, 52, 96
10, 7196, Note_off_c, 8, 52, 100
10, 7200, Note_on_c, 8, 51, 96
10, 7292, Note_off_c, 8, 51, 100
10, 7296, Note_on_c, 8, 52, 96
10, 7680, Note_off_c, 8, 52, 100
10, 7872, Note_on_c, 8, 40, 96
10, 8252, Note_off_c, 8, 40, 100
10, 8256, Note_on_c, 8, 38, 96
10, 8444, Note_off_c, 8, 38, 100
10, 8448, Note_on_c, 8, 36, 96
10, 8576, Note_off_c, 8, 36, 100
10, 8640, Note_on_c, 8, 48, 96
10, 8732, Note_off_c, 8, 48, 100
10, 8736, Note_on_c, 8, 47, 96
10, 8828, Note_off_c, 8, 47, 100
10, 8832, Note_on_c, 8, 48, 96
10, 8924, Note_off_c, 8, 48, 100
10, 8928, Note_on_c, 8, 50, 96
10, 9020, Note_off_c, 8, 50, 100
10, 9024, Note_on_c, 8, 52, 96
10, 9116, Note_off_c, 8, 52, 100
10, 9120, Note_on_c, 8, 50, 96
10, 9212, Note_off_c, 8, 50, 100
10, 9216, Note_on_c, 8, 49, 96
10, 9308, Note_off_c, 8, 49, 100
10, 9312, Note_on_c, 8, 45, 96
10, 9404, Note_off_c, 8, 45, 100
10, 9408, Note_on_c, 8, 50, 96
10, 9500, Note_off_c, 8, 50, 100
10, 9504, Note_on_c, 8, 49, 96
10, 9596, Note_off_c, 8, 49, 100
10, 9600, Note_on_c, 8, 47, 96
10, 9692, Note_off_c, 8, 47, 100
10, 9696, Note_on_c, 8, 45, 96
10, 9788, Note_off_c, 8, 45, 100
10, 9792, Note_on_c, 8, 47, 96
10, 9884, Note_off_c, 8, 47, 100
10, 9888, Note_on_c, 8, 44, 96
10, 9980, Note_off_c, 8, 44, 100
10, 9984, Note_on_c, 8, 45, 96
10, 10076, Note_off_c, 8, 45, 100
10, 10080, Note_on_c, 8, 47, 96
10, 10172, Note_off_c, 8, 47, 100
10, 10176, Note_on_c, 8, 45, 96
10, 10268, Note_off_c, 8, 45, 100
10, 10272, Note_on_c, 8, 43, 96
10, 10364, Note_off_c, 8, 43, 100
10, 10368, Note_on_c, 8, 42, 96
10, 10460, Note_off_c, 8, 42, 100
10, 10464, Note_on_c, 8, 40, 96
10, 10556, Note_off_c, 8, 40, 100
10, 10560, Note_on_c, 8, 38, 96
10, 10652, Note_off_c, 8, 38, 100
10, 10656, Note_on_c, 8, 37, 96
10, 10748, Note_off_c, 8, 37, 100
10, 10752, Note_on_c, 8, 38, 96
10, 10844, Note_off_c, 8, 38, 100
10, 10848, Note_on_c, 8, 37, 96
10, 10940, Note_off_c, 8, 37, 100
10, 10944, Note_on_c, 8, 35, 96
10, 11036, Note_off_c, 8, 35, 100
10, 11040, Note_on_c, 8, 33, 96
10, 11132, Note_off_c, 8, 33, 100
10, 11136, Note_on_c, 8, 31, 96
10, 11228, Note_off_c, 8, 31, 100
10, 11232, Note_on_c, 8, 28, 96
10, 11324, Note_off_c, 8, 28, 100
10, 11328, Note_on_c, 8, 33, 96
10, 11456, Note_off_c, 8, 33, 100
10, 11520, Note_on_c, 8, 26, 96
10, 11708, Note_off_c, 8, 26, 100
10, 11712, Note_on_c, 8, 30, 96
10, 11804, Note_off_c, 8, 30, 100
10, 11808, Note_on_c, 8, 33, 96
10, 11900, Note_off_c, 8, 33, 100
10, 11904, Note_on_c, 8, 38, 96
10, 12160, Note_off_c, 8, 38, 100
10, 12288, Note_on_c, 8, 38, 96
10, 12416, Note_off_c, 8, 38, 100
10, 12480, Note_on_c, 8, 50, 96
10, 12860, Note_off_c, 8, 50, 100
10, 12864, Note_on_c, 8, 48, 96
10, 13052, Note_off_c, 8, 48, 100
10, 13056, Note_on_c, 8, 47, 96
10, 13148, Note_off_c, 8, 47, 100
10, 13152, Note_on_c, 8, 45, 96
10, 13244, Note_off_c, 8, 45, 100
10, 13248, Note_on_c, 8, 47, 96
10, 13340, Note_off_c, 8, 47, 100
10, 13344, Note_on_c, 8, 48, 96
10, 13436, Note_off_c, 8, 48, 100
10, 13440, Note_on_c, 8, 47, 96
10, 13532, Note_off_c, 8, 47, 100
10, 13536, Note_on_c, 8, 45, 96
10, 13628, Note_off_c, 8, 45, 100
10, 13632, Note_on_c, 8, 43, 96
10, 13724, Note_off_c, 8, 43, 100
10, 13728, Note_on_c, 8, 42, 96
10, 13820, Note_off_c, 8, 42, 100
10, 13824, Note_on_c, 8, 43, 96
10, 13952, Note_off_c, 8, 43, 100
10, 14016, Note_on_c, 8, 55, 96
10, 14396, Note_off_c, 8, 55, 100
10, 14400, Note_on_c, 8, 54, 96
10, 14588, Note_off_c, 8, 54, 100
10, 14592, Note_on_c, 8, 52, 96
10, 14684, Note_off_c, 8, 52, 100
10, 14688, Note_on_c, 8, 51, 96
10, 14780, Note_off_c, 8, 51, 100
10, 14784, Note_on_c, 8, 52, 96
10, 14876, Note_off_c, 8, 52, 100
10, 14880, Note_on_c, 8, 54, 96
10, 14972, Note_off_c, 8, 54, 100
10, 14976, Note_on_c, 8, 52, 96
10, 15068, Note_off_c, 8, 52, 100
10, 15072, Note_on_c, 8, 50, 96
10, 15164, Note_off_c, 8, 50, 100
10, 15168, Note_on_c, 8, 48, 96
10, 15260, Note_off_c, 8, 48, 100
10, 15264, Note_on_c, 8, 47, 96
10, 15356, Note_off_c, 8, 47, 100
10, 15360, Note_on_c, 8, 46, 96
10, 15424, Note_off_c, 8, 46, 100
10, 15456, Note_on_c, 8, 52, 96
10, 15548, Note_off_c, 8, 52, 100
10, 15552, Note_on_c, 8, 54, 96
10, 15644, Note_off_c, 8, 54, 100
10, 15648, Note_on_c, 8, 55, 96
10, 15740, Note_off_c, 8, 55, 100
10, 15744, Note_on_c, 8, 57, 96
10, 15932, Note_off_c, 8, 57, 100
10, 15936, Note_on_c, 8, 45, 96
10, 16064, Note_off_c, 8, 45, 100
10, 16128, Note_on_c, 8, 43, 96
10, 16220, Note_off_c, 8, 43, 100
10, 16224, Note_on_c, 8, 45, 96
10, 16316, Note_off_c, 8, 45, 100
10, 16320, Note_on_c, 8, 47, 96
10, 16412, Note_off_c, 8, 47, 100
10, 16416, Note_on_c, 8, 43, 96
10, 16508, Note_off_c, 8, 43, 100
10, 16512, Note_on_c, 8, 40, 96
10, 16576, Note_off_c, 8, 40, 100
10, 16608, Note_on_c, 8, 42, 96
10, 16700, Note_off_c, 8, 42, 100
10, 16704, Note_on_c, 8, 43, 96
10, 16796, Note_off_c, 8, 43, 100
10, 16800, Note_on_c, 8, 40, 96
10, 16892, Note_off_c, 8, 40, 100
10, 16896, Note_on_c, 8, 48, 96
10, 17024, Note_off_c, 8, 48, 100
10, 17088, Note_on_c, 8, 47, 96
10, 17276, Note_off_c, 8, 47, 100
10, 17280, Note_on_c, 8, 48, 96
10, 17468, Note_off_c, 8, 48, 100
10, 17472, Note_on_c, 8, 35, 96
10, 17660, Note_off_c, 8, 35, 100
10, 17664, Note_on_c, 8, 28, 96
10, 18044, Note_off_c, 8, 28, 100
10, 18240, Note_on_c, 8, 40, 96
10, 18620, Note_off_c, 8, 40, 100
10, 18624, Note_on_c, 8, 36, 96
10, 18812, Note_off_c, 8, 36, 100
10, 18816, Note_on_c, 8, 38, 96
10, 19004, Note_off_c, 8, 38, 100
10, 19008, Note_on_c, 8, 40, 96
10, 19196, Note_off_c, 8, 40, 100
10, 19200, Note_on_c, 8, 33, 96
10, 19328, Note_off_c, 8, 33, 100
10, 19392, Note_on_c, 8, 45, 96
10, 19580, Note_off_c, 8, 45, 100
10, 19584, Note_on_c, 8, 40, 96
10, 19676, Note_off_c, 8, 40, 100
10, 19680, Note_on_c, 8, 38, 96
10, 19772, Note_off_c, 8, 38, 100
10, 19776, Note_on_c, 8, 40, 96
10, 19868, Note_off_c, 8, 40, 100
10, 19872, Note_on_c, 8, 42, 96
10, 19964, Note_off_c, 8, 42, 100
10, 19968, Note_on_c, 8, 43, 96
10, 20060, Note_off_c, 8, 43, 100
10, 20064, Note_on_c, 8, 45, 96
10, 20156, Note_off_c, 8, 45, 100
10, 20160, Note_on_c, 8, 47, 96
10, 20252, Note_off_c, 8, 47, 100
10, 20256, Note_on_c, 8, 43, 96
10, 20348, Note_off_c, 8, 43, 100
10, 20352, Note_on_c, 8, 45, 96
10, 20444, Note_off_c, 8, 45, 100
10, 20448, Note_on_c, 8, 42, 96
10, 20540, Note_off_c, 8, 42, 100
10, 20544, Note_on_c, 8, 43, 96
10, 20636, Note_off_c, 8, 43, 100
10, 20640, Note_on_c, 8, 45, 96
10, 20704, Note_off_c, 8, 45, 100
10, 20736, Note_on_c, 8, 38, 96
10, 20828, Note_off_c, 8, 38, 100
10, 20832, Note_on_c, 8, 40, 96
10, 20924, Note_off_c, 8, 40, 100
10, 20928, Note_on_c, 8, 42, 96
10, 21020, Note_off_c, 8, 42, 100
10, 21024, Note_on_c, 8, 43, 96
10, 21116, Note_off_c, 8, 43, 100
10, 21120, Note_on_c, 8, 42, 96
10, 21212, Note_off_c, 8, 42, 100
10, 21216, Note_on_c, 8, 40, 96
10, 21308, Note_off_c, 8, 40, 100
10, 21312, Note_on_c, 8, 38, 96
10, 21404, Note_off_c, 8, 38, 100
10, 21408, Note_on_c, 8, 36, 96
10, 21500, Note_off_c, 8, 36, 100
10, 21504, Note_on_c, 8, 35, 96
10, 21568, Note_off_c, 8, 35, 100
10, 21600, Note_on_c, 8, 31, 96
10, 21692, Note_off_c, 8, 31, 100
10, 21696, Note_on_c, 8, 33, 96
10, 21788, Note_off_c, 8, 33, 100
10, 21792, Note_on_c, 8, 35, 96
10, 21884, Note_off_c, 8, 35, 100
10, 21888, Note_on_c, 8, 36, 96
10, 21980, Note_off_c, 8, 36, 100
10, 21984, Note_on_c, 8, 38, 96
10, 22076, Note_off_c, 8, 38, 100
10, 22080, Note_on_c, 8, 40, 96
10, 22172, Note_off_c, 8, 40, 100
10, 22176, Note_on_c, 8, 42, 96
10, 22268, Note_off_c, 8, 42, 100
10, 22272, Note_on_c, 8, 43, 96
10, 22364, Note_off_c, 8, 43, 100
10, 22368, Note_on_c, 8, 45, 96
10, 22460, Note_off_c, 8, 45, 100
10, 22464, Note_on_c, 8, 47, 96
10, 22556, Note_off_c, 8, 47, 100
10, 22560, Note_on_c, 8, 45, 96
10, 22652, Note_off_c, 8, 45, 100
10, 22656, Note_on_c, 8, 43, 96
10, 22748, Note_off_c, 8, 43, 100
10, 22752, Note_on_c, 8, 42, 96
10, 22844, Note_off_c, 8, 42, 100
10, 22848, Note_on_c, 8, 40, 96
10, 22940, Note_off_c, 8, 40, 100
10, 22944, Note_on_c, 8, 38, 96
10, 23036, Note_off_c, 8, 38, 100
10, 23040, Note_on_c, 8, 36, 96
10, 23132, Note_off_c, 8, 36, 100
10, 23136, Note_on_c, 8, 35, 96
10, 23228, Note_off_c, 8, 35, 100
10, 23232, Note_on_c, 8, 36, 96
10, 23324, Note_off_c, 8, 36, 100
10, 23328, Note_on_c, 8, 33, 96
10, 23420, Note_off_c, 8, 33, 100
10, 23424, Note_on_c, 8, 38, 96
10, 23552, Note_off_c, 8, 38, 100
10, 23616, Note_on_c, 8, 26, 96
10, 23744, Note_off_c, 8, 26, 100
10, 23808, Note_on_c, 8, 31, 96
10, 23996, Note_off_c, 8, 31, 100
10, 24000, Note_on_c, 8, 35, 96
10, 24092, Note_off_c, 8, 35, 100
10, 24096, Note_on_c, 8, 38, 96
10, 24232, Note_off_c, 8, 38, 100
10, 24236, Note_on_c, 8, 43, 96
10, 24492, Note_off_c, 8, 43, 100
10, 24492, End_track
11, 0, Start_track
11, 0, Control_c, 10, 0, 0
11, 0, Program_c, 10, 6
11, 0, Control_c, 10, 7, 0
11, 0, Key_signature, 1, "major"
11, 24236, Note_on_c, 10, 43, 1
11, 24876, Note_off_c, 10, 43, 100
11, 24876, End_track
12, 0, Start_track
12, 1, Copyright_t, "___________________________________________________\012\012KUNSTDERFUGE.COM LARGE CLASSICAL MIDI COLLECTION\012ONCLASSICAL BY ALESSANDRO SIMONETTO, PROPRIETOR\012___________________________________________________\012\012! Attention: this file is under copyright !\012\012(c)onclassical, (c)degiusti, 2010\012___________________________________________________\012\012NO ONE MAY REPUBLISH THIS FILE WITHOUT PERMISSION\012COMMERCIAL USES OF THIS FILE IS STRICTLY PROHIBITED\012___________________________________________________\012\012Files & contributor's list: http://kunstderfuge.com/\012Terms and conditions: http://kunstderfuge.com/notes.htm"
12, 1, End_track
0, 0, End_of_file