0, 0, Header, 1, 10, 384
1, 0, Start_track
1, 0, Time_signature, 3, 2, 96, 8
1, 0, Sequencer_specific, 03, 00, 00, 41
1, 0, Sequencer_specific, 05, 00, 00, 77, 0E, 00
1, 0, Tempo, 545454
1, 8, Tempo, 540540
1, 16, Tempo, 535714
1, 28, Tempo, 530973
1, 36, Tempo, 526315
1, 48, Tempo, 521739
1, 56, Tempo, 521739
1, 64, Tempo, 517241
1, 76, Tempo, 512820
1, 84, Tempo, 508474
1, 96, Tempo, 504201
1, 104, Tempo, 500000
1, 112, Tempo, 495867
1, 124, Tempo, 491803
1, 132, Tempo, 487804
1, 144, Tempo, 483870
1, 152, Tempo, 480000
1, 160, Tempo, 476190
1, 172, Tempo, 476190
1, 180, Tempo, 472440
1, 192, Tempo, 468750
1, 200, Tempo, 500000
1, 208, Tempo, 495867
1, 220, Tempo, 491803
1, 228, Tempo, 487804
1, 240, Tempo, 483870
1, 248, Tempo, 480000
1, 256, Tempo, 476190
1, 268, Tempo, 476190
1, 276, Tempo, 472440
1, 288, Tempo, 468750
1, 3840, Tempo, 545454
1, 3844, Tempo, 540540
1, 3848, Tempo, 535714
1, 3852, Tempo, 530973
1, 3856, Tempo, 526315
1, 3864, Tempo, 521739
1, 3868, Tempo, 521739
1, 3872, Tempo, 517241
1, 3876, Tempo, 512820
1, 3880, Tempo, 508474
1, 3888, Tempo, 504201
1, 3892, Tempo, 500000
1, 3896, Tempo, 495867
1, 3900, Tempo, 491803
1, 3904, Tempo, 487804
1, 3912, Tempo, 483870
1, 3916, Tempo, 480000
1, 3920, Tempo, 476190
1, 3924, Tempo, 476190
1, 3928, Tempo, 472440
1, 3936, Tempo, 468750
1, 17664, Tempo, 468750
1, 17688, Tempo, 472440
1, 17712, Tempo, 476190
1, 17740, Tempo, 476190
1, 17764, Tempo, 480000
1, 17792, Tempo, 483870
1, 17816, Tempo, 487804
1, 17840, Tempo, 491803
1, 17868, Tempo, 495867
1, 17892, Tempo, 500000
1, 17920, Tempo, 504201
1, 17944, Tempo, 508474
1, 17968, Tempo, 512820
1, 17996, Tempo, 517241
1, 18020, Tempo, 521739
1, 18048, Tempo, 545454
1, 18064, Tempo, 550458
1, 18084, Tempo, 555555
1, 18104, Tempo, 560747
1, 18124, Tempo, 566037
1, 18144, Tempo, 571428
1, 18160, Tempo, 576923
1, 18180, Tempo, 582524
1, 18200, Tempo, 582524
1, 18220, Tempo, 588235
1, 18240, Tempo, 594059
1, 18256, Tempo, 600000
1, 18276, Tempo, 606060
1, 18296, Tempo, 612244
1, 18316, Tempo, 618556
1, 18336, Tempo, 625000
1, 18352, Tempo, 631578
1, 18372, Tempo, 638297
1, 18392, Tempo, 645161
1, 18412, Tempo, 652173
1, 18432, Tempo, 652173
1, 18436, Tempo, 540540
1, 18440, Tempo, 535714
1, 18444, Tempo, 530973
1, 18448, Tempo, 526315
1, 18456, Tempo, 521739
1, 18460, Tempo, 521739
1, 18464, Tempo, 517241
1, 18468, Tempo, 512820
1, 18472, Tempo, 508474
1, 18480, Tempo, 504201
1, 18484, Tempo, 500000
1, 18488, Tempo, 495867
1, 18492, Tempo, 491803
1, 18496, Tempo, 487804
1, 18504, Tempo, 483870
1, 18508, Tempo, 480000
1, 18512, Tempo, 476190
1, 18516, Tempo, 476190
1, 18520, Tempo, 472440
1, 18528, Tempo, 468750
1, 18544, Tempo, 480000
1, 18564, Tempo, 476190
1, 18584, Tempo, 476190
1, 18604, Tempo, 472440
1, 18624, Tempo, 468750
1, 36096, Tempo, 468750
1, 36112, Tempo, 472440
1, 36132, Tempo, 476190
1, 36152, Tempo, 476190
1, 36172, Tempo, 480000
1, 36192, Tempo, 483870
1, 36208, Tempo, 487804
1, 36228, Tempo, 491803
1, 36248, Tempo, 495867
1, 36268, Tempo, 500000
1, 36288, Tempo, 504201
1, 36304, Tempo, 508474
1, 36324, Tempo, 512820
1, 36344, Tempo, 517241
1, 36364, Tempo, 521739
1, 36384, Tempo, 521739
1, 36400, Tempo, 526315
1, 36420, Tempo, 530973
1, 36440, Tempo, 535714
1, 36460, Tempo, 540540
1, 36480, Tempo, 545454
1, 36488, Tempo, 550458
1, 36496, Tempo, 555555
1, 36508, Tempo, 560747
1, 36516, Tempo, 566037
1, 36528, Tempo, 571428
1, 36536, Tempo, 576923
1, 36544, Tempo, 582524
1, 36556, Tempo, 582524
1, 36564, Tempo, 588235
1, 36576, Tempo, 594059
1, 36584, Tempo, 600000
1, 36592, Tempo, 606060
1, 36604, Tempo, 612244
1, 36612, Tempo, 618556
1, 36624, Tempo, 625000
1, 36632, Tempo, 631578
1, 36640, Tempo, 638297
1, 36652, Tempo, 645161
1, 36660, Tempo, 652173
1, 36672, Tempo, 652173
1, 36680, Tempo, 659340
1, 36688, Tempo, 666666
1, 36700, Tempo, 674157
1, 36708, Tempo, 681818
1, 36720, Tempo, 689655
1, 36728, Tempo, 697674
1, 36736, Tempo, 705882
1, 36748, Tempo, 714285
1, 36756, Tempo, 722891
1, 36768, Tempo, 731707
1, 36776, Tempo, 740740
1, 36784, Tempo, 750000
1, 36796, Tempo, 750000
1, 36804, Tempo, 759493
1, 36816, Tempo, 769230
1, 36824, Tempo, 779220
1, 36832, Tempo, 789473
1, 36844, Tempo, 800000
1, 36852, Tempo, 810810
1, 36864, Tempo, 821917
1, 36872, Tempo, 540540
1, 36880, Tempo, 535714
1, 36892, Tempo, 530973
1, 36900, Tempo, 526315
1, 36912, Tempo, 521739
1, 36920, Tempo, 521739
1, 36928, Tempo, 517241
1, 36940, Tempo, 512820
1, 36948, Tempo, 508474
1, 36960, Tempo, 504201
1, 36968, Tempo, 500000
1, 36976, Tempo, 495867
1, 36988, Tempo, 491803
1, 36996, Tempo, 487804
1, 37008, Tempo, 483870
1, 37016, Tempo, 480000
1, 37024, Tempo, 476190
1, 37036, Tempo, 476190
1, 37044, Tempo, 472440
1, 37056, Tempo, 468750
1, 54528, Tempo, 468750
1, 54564, Tempo, 472440
1, 54604, Tempo, 476190
1, 54640, Tempo, 476190
1, 54680, Tempo, 480000
1, 54720, Tempo, 483870
1, 54756, Tempo, 487804
1, 54796, Tempo, 491803
1, 54832, Tempo, 495867
1, 54872, Tempo, 500000
1, 54912, Tempo, 504201
1, 54924, Tempo, 508474
1, 54936, Tempo, 512820
1, 54948, Tempo, 517241
1, 54960, Tempo, 521739
1, 54976, Tempo, 521739
1, 54988, Tempo, 526315
1, 55000, Tempo, 530973
1, 55012, Tempo, 535714
1, 55024, Tempo, 540540
1, 55040, Tempo, 545454
1, 55052, Tempo, 550458
1, 55064, Tempo, 555555
1, 55076, Tempo, 560747
1, 55088, Tempo, 566037
1, 55104, Tempo, 571428
1, 55116, Tempo, 576923
1, 55128, Tempo, 582524
1, 55140, Tempo, 582524
1, 55152, Tempo, 588235
1, 55168, Tempo, 594059
1, 55180, Tempo, 600000
1, 55192, Tempo, 606060
1, 55204, Tempo, 612244
1, 55216, Tempo, 618556
1, 55232, Tempo, 625000
1, 55244, Tempo, 631578
1, 55256, Tempo, 638297
1, 55268, Tempo, 645161
1, 55280, Tempo, 652173
1, 55296, Tempo, 652173
1, 55308, Tempo, 521739
1, 55320, Tempo, 517241
1, 55332, Tempo, 512820
1, 55344, Tempo, 508474
1, 55360, Tempo, 504201
1, 55372, Tempo, 500000
1, 55384, Tempo, 495867
1, 55396, Tempo, 491803
1, 55408, Tempo, 487804
1, 55424, Tempo, 483870
1, 55436, Tempo, 480000
1, 55448, Tempo, 476190
1, 55460, Tempo, 476190
1, 55472, Tempo, 472440
1, 55488, Tempo, 468750
1, 71424, Tempo, 468750
1, 71536, Tempo, 472440
1, 71652, Tempo, 476190
1, 71768, Tempo, 476190
1, 71884, Tempo, 480000
1, 72000, Tempo, 483870
1, 72112, Tempo, 487804
1, 72228, Tempo, 491803
1, 72344, Tempo, 495867
1, 72460, Tempo, 500000
1, 72576, Tempo, 652173
1, 72612, Tempo, 508474
1, 72652, Tempo, 512820
1, 72688, Tempo, 517241
1, 72728, Tempo, 521739
1, 72768, Tempo, 521739
1, 72804, Tempo, 526315
1, 72844, Tempo, 530973
1, 72880, Tempo, 535714
1, 72920, Tempo, 540540
1, 72960, Tempo, 545454
1, 72968, Tempo, 550458
1, 72976, Tempo, 555555
1, 72988, Tempo, 560747
1, 72996, Tempo, 566037
1, 73008, Tempo, 571428
1, 73016, Tempo, 576923
1, 73024, Tempo, 582524
1, 73036, Tempo, 582524
1, 73044, Tempo, 588235
1, 73056, Tempo, 594059
1, 73064, Tempo, 600000
1, 73072, Tempo, 606060
1, 73084, Tempo, 612244
1, 73092, Tempo, 618556
1, 73104, Tempo, 625000
1, 73112, Tempo, 631578
1, 73120, Tempo, 638297
1, 73132, Tempo, 645161
1, 73140, Tempo, 652173
1, 73152, Tempo, 659340
1, 73156, Tempo, 666666
1, 73160, Tempo, 674157
1, 73164, Tempo, 681818
1, 73168, Tempo, 697674
1, 73172, Tempo, 705882
1, 73176, Tempo, 714285
1, 73180, Tempo, 722891
1, 73184, Tempo, 740740
1, 73188, Tempo, 750000
1, 73192, Tempo, 750000
1, 73196, Tempo, 759493
1, 73200, Tempo, 779220
1, 73204, Tempo, 789473
1, 73208, Tempo, 800000
1, 73212, Tempo, 810810
1, 73216, Tempo, 833333
1, 73220, Tempo, 845070
1, 73224, Tempo, 857142
1, 73228, Tempo, 869565
1, 73232, Tempo, 882352
1, 73236, Tempo, 895522
1, 73240, Tempo, 909090
1, 73244, Tempo, 923076
1, 73248, Tempo, 952380
1, 73252, Tempo, 967741
1, 73256, Tempo, 983606
1, 73260, Tempo, 1000000
1, 73264, Tempo, 1034482
1, 73268, Tempo, 1052631
1, 73272, Tempo, 1052631
1, 73276, Tempo, 1071428
1, 73280, Tempo, 1111111
1, 73284, Tempo, 1132075
1, 73288, Tempo, 1153846
1, 73292, Tempo, 1176470
1, 73296, Tempo, 1224489
1, 73300, Tempo, 1250000
1, 73304, Tempo, 1276595
1, 73308, Tempo, 1304347
1, 73312, Tempo, 1333333
1, 73316, Tempo, 1363636
1, 73320, Tempo, 1395348
1, 73324, Tempo, 1428571
1, 73328, Tempo, 1500000
1, 73332, Tempo, 1538461
1, 73336, Tempo, 1578947
1, 73340, Tempo, 1621621
1, 73344, Tempo, 1666666
1, 73344, End_track
2, 0, Start_track
2, 0, Title_t, "Johann Sebastian Bach"
2, 0, Control_c, 0, 0, 0
2, 0, Program_c, 0, 6
2, 0, Control_c, 0, 7, 127
2, 0, Control_c, 0, 10, 31
2, 0, Control_c, 0, 91, 127
2, 0, Key_signature, 1, "major"
2, 96, Note_on_c, 0, 62, 112
2, 168, Note_off_c, 0, 62, 100
2, 192, Note_on_c, 0, 64, 112
2, 264, Note_off_c, 0, 64, 100
2, 288, Note_on_c, 0, 66, 112
2, 360, Note_off_c, 0, 66, 100
2, 384, Note_on_c, 0, 67, 112
2, 456, Note_off_c, 0, 67, 100
2, 480, Note_on_c, 0, 66, 112
2, 552, Note_off_c, 0, 66, 100
2, 576, Note_on_c, 0, 67, 112
2, 648, Note_off_c, 0, 67, 100
2, 672, Note_on_c, 0, 69, 112
2, 744, Note_off_c, 0, 69, 100
2, 768, Note_on_c, 0, 71, 112
2, 840, Note_off_c, 0, 71, 100
2, 864, Note_on_c, 0, 69, 112
2, 936, Note_off_c, 0, 69, 100
2, 960, Note_on_c, 0, 67, 112
2, 1032, Note_off_c, 0, 67, 100
2, 1056, Note_on_c, 0, 71, 112
2, 1128, Note_off_c, 0, 71, 100
2, 1152, Note_on_c, 0, 69, 112
2, 1224, Note_off_c, 0, 69, 100
2, 1248, Note_on_c, 0, 67, 112
2, 1320, Note_off_c, 0, 67, 100
2, 1344, Note_on_c, 0, 66, 112
2, 1416, Note_off_c, 0, 66, 100
2, 1440, Note_on_c, 0, 64, 112
2, 1512, Note_off_c, 0, 64, 100
2, 1536, Note_on_c, 0, 62, 112
2, 1608, Note_off_c, 0, 62, 100
2, 1632, Note_on_c, 0, 64, 112
2, 1704, Note_off_c, 0, 64, 100
2, 1728, Note_on_c, 0, 66, 112
2, 1800, Note_off_c, 0, 66, 100
2, 1824, Note_on_c, 0, 67, 112
2, 1896, Note_off_c, 0, 67, 100
2, 1920, Note_on_c, 0, 69, 112
2, 1992, Note_off_c, 0, 69, 100
2, 2016, Note_on_c, 0, 66, 112
2, 2088, Note_off_c, 0, 66, 100
2, 2112, Note_on_c, 0, 64, 112
2, 2184, Note_off_c, 0, 64, 100
2, 2208, Note_on_c, 0, 62, 112
2, 2280, Note_off_c, 0, 62, 100
2, 2304, Note_on_c, 0, 67, 112
2, 2376, Note_off_c, 0, 67, 100
2, 2400, Note_on_c, 0, 66, 112
2, 2472, Note_off_c, 0, 66, 100
2, 2496, Note_on_c, 0, 64, 112
2, 2568, Note_off_c, 0, 64, 100
2, 2592, Note_on_c, 0, 62, 112
2, 2664, Note_off_c, 0, 62, 100
2, 2688, Note_on_c, 0, 61, 112
2, 2760, Note_off_c, 0, 61, 100
2, 2784, Note_on_c, 0, 62, 112
2, 2856, Note_off_c, 0, 62, 100
2, 2880, Note_on_c, 0, 64, 112
2, 2952, Note_off_c, 0, 64, 100
2, 2976, Note_on_c, 0, 66, 112
2, 3048, Note_off_c, 0, 66, 100
2, 3072, Note_on_c, 0, 67, 112
2, 3144, Note_off_c, 0, 67, 100
2, 3168, Note_on_c, 0, 71, 112
2, 3240, Note_off_c, 0, 71, 100
2, 3264, Note_on_c, 0, 69, 112
2, 3336, Note_off_c, 0, 69, 100
2, 3360, Note_on_c, 0, 67, 112
2, 3432, Note_off_c, 0, 67, 100
2, 3456, Note_on_c, 0, 66, 112
2, 3528, Note_off_c, 0, 66, 100
2, 3552, Note_on_c, 0, 64, 112
2, 3624, Note_off_c, 0, 64, 100
2, 3648, Note_on_c, 0, 62, 112
2, 3720, Note_off_c, 0, 62, 100
2, 3744, Note_on_c, 0, 61, 112
2, 3816, Note_off_c, 0, 61, 100
2, 3840, Note_on_c, 0, 62, 112
2, 3884, Note_off_c, 0, 62, 100
2, 3936, Note_on_c, 0, 57, 112
2, 4008, Note_off_c, 0, 57, 100
2, 4032, Note_on_c, 0, 62, 112
2, 4104, Note_off_c, 0, 62, 100
2, 4128, Note_on_c, 0, 64, 112
2, 4200, Note_off_c, 0, 64, 100
2, 4224, Note_on_c, 0, 66, 112
2, 4296, Note_off_c, 0, 66, 100
2, 4320, Note_on_c, 0, 62, 112
2, 4392, Note_off_c, 0, 62, 100
2, 4416, Note_on_c, 0, 66, 112
2, 4488, Note_off_c, 0, 66, 100
2, 4512, Note_on_c, 0, 69, 112
2, 4576, Note_off_c, 0, 69, 100
2, 4608, Note_on_c, 0, 74, 112
2, 4680, Note_off_c, 0, 74, 100
2, 4704, Note_on_c, 0, 71, 112
2, 4776, Note_off_c, 0, 71, 100
2, 4800, Note_on_c, 0, 69, 112
2, 4872, Note_off_c, 0, 69, 100
2, 4896, Note_on_c, 0, 71, 112
2, 4968, Note_off_c, 0, 71, 100
2, 4992, Note_on_c, 0, 67, 112
2, 5064, Note_off_c, 0, 67, 100
2, 5088, Note_on_c, 0, 71, 112
2, 5160, Note_off_c, 0, 71, 100
2, 5184, Note_on_c, 0, 69, 112
2, 5256, Note_off_c, 0, 69, 100
2, 5280, Note_on_c, 0, 71, 112
2, 5352, Note_off_c, 0, 71, 100
2, 5376, Note_on_c, 0, 62, 112
2, 5448, Note_off_c, 0, 62, 100
2, 5472, Note_on_c, 0, 67, 112
2, 5544, Note_off_c, 0, 67, 100
2, 5568, Note_on_c, 0, 66, 112
2, 5640, Note_off_c, 0, 66, 100
2, 5664, Note_on_c, 0, 67, 112
2, 5736, Note_off_c, 0, 67, 100
2, 5760, Note_on_c, 0, 64, 112
2, 5832, Note_off_c, 0, 64, 100
2, 5856, Note_on_c, 0, 67, 112
2, 5928, Note_off_c, 0, 67, 100
2, 5952, Note_on_c, 0, 62, 112
2, 6024, Note_off_c, 0, 62, 100
2, 6048, Note_on_c, 0, 67, 112
2, 6120, Note_off_c, 0, 67, 100
2, 6144, Note_on_c, 0, 60, 112
2, 6216, Note_off_c, 0, 60, 100
2, 6240, Note_on_c, 0, 67, 112
2, 6312, Note_off_c, 0, 67, 100
2, 6336, Note_on_c, 0, 59, 112
2, 6408, Note_off_c, 0, 59, 100
2, 6432, Note_on_c, 0, 67, 112
2, 6504, Note_off_c, 0, 67, 100
2, 6528, Note_on_c, 0, 57, 112
2, 6600, Note_off_c, 0, 57, 100
2, 6624, Note_on_c, 0, 67, 112
2, 6696, Note_off_c, 0, 67, 100
2, 6720, Note_on_c, 0, 59, 112
2, 6792, Note_off_c, 0, 59, 100
2, 6816, Note_on_c, 0, 67, 112
2, 6888, Note_off_c, 0, 67, 100
2, 6912, Note_on_c, 0, 60, 112
2, 6984, Note_off_c, 0, 60, 100
2, 7008, Note_on_c, 0, 67, 112
2, 7080, Note_off_c, 0, 67, 100
2, 7104, Note_on_c, 0, 59, 112
2, 7176, Note_off_c, 0, 59, 100
2, 7200, Note_on_c, 0, 67, 112
2, 7272, Note_off_c, 0, 67, 100
2, 7296, Note_on_c, 0, 60, 112
2, 7368, Note_off_c, 0, 60, 100
2, 7392, Note_on_c, 0, 66, 112
2, 7464, Note_off_c, 0, 66, 100
2, 7488, Note_on_c, 0, 64, 112
2, 7560, Note_off_c, 0, 64, 100
2, 7584, Note_on_c, 0, 66, 112
2, 7656, Note_off_c, 0, 66, 100
2, 7680, Note_on_c, 0, 62, 112
2, 7752, Note_off_c, 0, 62, 100
2, 7776, Note_on_c, 0, 66, 112
2, 7848, Note_off_c, 0, 66, 100
2, 7872, Note_on_c, 0, 60, 112
2, 7944, Note_off_c, 0, 60, 100
2, 7968, Note_on_c, 0, 66, 112
2, 8040, Note_off_c, 0, 66, 100
2, 8064, Note_on_c, 0, 59, 112
2, 8108, Note_off_c, 0, 59, 100
2, 8160, Note_on_c, 0, 67, 112
2, 8232, Note_off_c, 0, 67, 100
2, 8256, Note_on_c, 0, 66, 112
2, 8328, Note_off_c, 0, 66, 100
2, 8352, Note_on_c, 0, 64, 112
2, 8424, Note_off_c, 0, 64, 100
2, 8448, Note_on_c, 0, 62, 112
2, 8520, Note_off_c, 0, 62, 100
2, 8544, Note_on_c, 0, 60, 112
2, 8616, Note_off_c, 0, 60, 100
2, 8640, Note_on_c, 0, 59, 112
2, 8712, Note_off_c, 0, 59, 100
2, 8736, Note_on_c, 0, 57, 112
2, 8808, Note_off_c, 0, 57, 100
2, 8832, Note_on_c, 0, 55, 112
2, 9020, Note_off_c, 0, 55, 100
2, 9216, Note_on_c, 0, 83, 112
2, 9276, Note_off_c, 0, 83, 100
2, 9600, Note_on_c, 0, 67, 112
2, 9660, Note_off_c, 0, 67, 100
2, 9984, Note_on_c, 0, 83, 112
2, 10364, Note_off_c, 0, 83, 100
2, 10368, Note_on_c, 0, 81, 112
2, 10428, Note_off_c, 0, 81, 100
2, 10752, Note_on_c, 0, 66, 112
2, 10812, Note_off_c, 0, 66, 100
2, 11136, Note_on_c, 0, 81, 112
2, 11516, Note_off_c, 0, 81, 100
2, 11520, Note_on_c, 0, 79, 112
2, 11592, Note_off_c, 0, 79, 100
2, 11616, Note_on_c, 0, 78, 112
2, 11688, Note_off_c, 0, 78, 100
2, 11712, Note_on_c, 0, 76, 112
2, 11784, Note_off_c, 0, 76, 100
2, 11808, Note_on_c, 0, 75, 112
2, 11880, Note_off_c, 0, 75, 100
2, 11904, Note_on_c, 0, 76, 112
2, 11976, Note_off_c, 0, 76, 100
2, 12000, Note_on_c, 0, 79, 112
2, 12072, Note_off_c, 0, 79, 100
2, 12096, Note_on_c, 0, 74, 112
2, 12168, Note_off_c, 0, 74, 100
2, 12192, Note_on_c, 0, 79, 112
2, 12264, Note_off_c, 0, 79, 100
2, 12288, Note_on_c, 0, 73, 112
2, 12360, Note_off_c, 0, 73, 100
2, 12384, Note_on_c, 0, 79, 112
2, 12456, Note_off_c, 0, 79, 100
2, 12480, Note_on_c, 0, 71, 112
2, 12552, Note_off_c, 0, 71, 100
2, 12576, Note_on_c, 0, 79, 112
2, 12648, Note_off_c, 0, 79, 100
2, 12672, Note_on_c, 0, 73, 112
2, 12744, Note_off_c, 0, 73, 100
2, 12768, Note_on_c, 0, 79, 112
2, 12840, Note_off_c, 0, 79, 100
2, 12864, Note_on_c, 0, 76, 112
2, 12936, Note_off_c, 0, 76, 100
2, 12960, Note_on_c, 0, 79, 112
2, 13032, Note_off_c, 0, 79, 100
2, 13056, Note_on_c, 0, 69, 112
2, 13116, Note_off_c, 0, 69, 100
2, 13248, Note_on_c, 0, 79, 112
2, 13436, Note_off_c, 0, 79, 100
2, 13440, Note_on_c, 0, 78, 112
2, 13628, Note_off_c, 0, 78, 100
2, 13632, Note_on_c, 0, 81, 112
2, 13676, Note_off_c, 0, 81, 100
2, 13680, Note_on_c, 0, 79, 112
2, 13724, Note_off_c, 0, 79, 100
2, 13728, Note_on_c, 0, 78, 112
2, 13772, Note_off_c, 0, 78, 100
2, 13776, Note_on_c, 0, 79, 112
2, 13820, Note_off_c, 0, 79, 100
2, 13824, Note_on_c, 0, 81, 112
2, 13884, Note_off_c, 0, 81, 100
2, 14016, Note_on_c, 0, 64, 112
2, 14204, Note_off_c, 0, 64, 100
2, 14208, Note_on_c, 0, 66, 112
2, 14268, Note_off_c, 0, 66, 100
2, 14400, Note_on_c, 0, 78, 112
2, 14460, Note_off_c, 0, 78, 100
2, 14592, Note_on_c, 0, 79, 112
2, 14652, Note_off_c, 0, 79, 100
2, 14784, Note_on_c, 0, 81, 112
2, 14844, Note_off_c, 0, 81, 100
2, 14976, Note_on_c, 0, 83, 112
2, 15036, Note_off_c, 0, 83, 100
2, 15168, Note_on_c, 0, 66, 112
2, 15356, Note_off_c, 0, 66, 100
2, 15360, Note_on_c, 0, 64, 112
2, 15420, Note_off_c, 0, 64, 100
2, 15552, Note_on_c, 0, 79, 112
2, 15612, Note_off_c, 0, 79, 100
2, 15744, Note_on_c, 0, 81, 112
2, 15804, Note_off_c, 0, 81, 100
2, 15936, Note_on_c, 0, 83, 112
2, 15996, Note_off_c, 0, 83, 100
2, 16128, Note_on_c, 0, 76, 112
2, 16188, Note_off_c, 0, 76, 100
2, 16320, Note_on_c, 0, 67, 112
2, 16380, Note_off_c, 0, 67, 100
2, 16512, Note_on_c, 0, 57, 112
2, 16572, Note_off_c, 0, 57, 100
2, 16704, Note_on_c, 0, 64, 112
2, 16764, Note_off_c, 0, 64, 100
2, 16896, Note_on_c, 0, 61, 112
2, 16956, Note_off_c, 0, 61, 100
2, 17088, Note_on_c, 0, 57, 112
2, 17148, Note_off_c, 0, 57, 100
2, 17280, Note_on_c, 0, 50, 112
2, 17340, Note_off_c, 0, 50, 100
2, 17472, Note_on_c, 0, 62, 112
2, 17532, Note_off_c, 0, 62, 100
2, 17664, Note_on_c, 0, 66, 112
2, 17724, Note_off_c, 0, 66, 100
2, 17856, Note_on_c, 0, 69, 112
2, 17916, Note_off_c, 0, 69, 100
2, 18048, Note_on_c, 0, 74, 112
2, 18304, Note_off_c, 0, 74, 100
2, 18528, Note_on_c, 0, 62, 112
2, 18600, Note_off_c, 0, 62, 100
2, 18624, Note_on_c, 0, 64, 112
2, 18696, Note_off_c, 0, 64, 100
2, 18720, Note_on_c, 0, 66, 112
2, 18792, Note_off_c, 0, 66, 100
2, 18816, Note_on_c, 0, 67, 112
2, 18888, Note_off_c, 0, 67, 100
2, 18912, Note_on_c, 0, 66, 112
2, 18984, Note_off_c, 0, 66, 100
2, 19008, Note_on_c, 0, 67, 112
2, 19080, Note_off_c, 0, 67, 100
2, 19104, Note_on_c, 0, 69, 112
2, 19176, Note_off_c, 0, 69, 100
2, 19200, Note_on_c, 0, 71, 112
2, 19272, Note_off_c, 0, 71, 100
2, 19296, Note_on_c, 0, 69, 112
2, 19368, Note_off_c, 0, 69, 100
2, 19392, Note_on_c, 0, 67, 112
2, 19464, Note_off_c, 0, 67, 100
2, 19488, Note_on_c, 0, 71, 112
2, 19560, Note_off_c, 0, 71, 100
2, 19584, Note_on_c, 0, 69, 112
2, 19656, Note_off_c, 0, 69, 100
2, 19680, Note_on_c, 0, 67, 112
2, 19752, Note_off_c, 0, 67, 100
2, 19776, Note_on_c, 0, 66, 112
2, 19848, Note_off_c, 0, 66, 100
2, 19872, Note_on_c, 0, 64, 112
2, 19944, Note_off_c, 0, 64, 100
2, 19968, Note_on_c, 0, 62, 112
2, 20040, Note_off_c, 0, 62, 100
2, 20064, Note_on_c, 0, 64, 112
2, 20136, Note_off_c, 0, 64, 100
2, 20160, Note_on_c, 0, 66, 112
2, 20232, Note_off_c, 0, 66, 100
2, 20256, Note_on_c, 0, 67, 112
2, 20328, Note_off_c, 0, 67, 100
2, 20352, Note_on_c, 0, 69, 112
2, 20424, Note_off_c, 0, 69, 100
2, 20448, Note_on_c, 0, 66, 112
2, 20520, Note_off_c, 0, 66, 100
2, 20544, Note_on_c, 0, 64, 112
2, 20616, Note_off_c, 0, 64, 100
2, 20640, Note_on_c, 0, 62, 112
2, 20712, Note_off_c, 0, 62, 100
2, 20736, Note_on_c, 0, 67, 112
2, 20808, Note_off_c, 0, 67, 100
2, 20832, Note_on_c, 0, 66, 112
2, 20904, Note_off_c, 0, 66, 100
2, 20928, Note_on_c, 0, 64, 112
2, 21000, Note_off_c, 0, 64, 100
2, 21024, Note_on_c, 0, 62, 112
2, 21096, Note_off_c, 0, 62, 100
2, 21120, Note_on_c, 0, 61, 112
2, 21192, Note_off_c, 0, 61, 100
2, 21216, Note_on_c, 0, 62, 112
2, 21288, Note_off_c, 0, 62, 100
2, 21312, Note_on_c, 0, 64, 112
2, 21384, Note_off_c, 0, 64, 100
2, 21408, Note_on_c, 0, 66, 112
2, 21480, Note_off_c, 0, 66, 100
2, 21504, Note_on_c, 0, 67, 112
2, 21576, Note_off_c, 0, 67, 100
2, 21600, Note_on_c, 0, 71, 112
2, 21672, Note_off_c, 0, 71, 100
2, 21696, Note_on_c, 0, 69, 112
2, 21768, Note_off_c, 0, 69, 100
2, 21792, Note_on_c, 0, 67, 112
2, 21864, Note_off_c, 0, 67, 100
2, 21888, Note_on_c, 0, 66, 112
2, 21960, Note_off_c, 0, 66, 100
2, 21984, Note_on_c, 0, 64, 112
2, 22056, Note_off_c, 0, 64, 100
2, 22080, Note_on_c, 0, 62, 112
2, 22152, Note_off_c, 0, 62, 100
2, 22176, Note_on_c, 0, 61, 112
2, 22248, Note_off_c, 0, 61, 100
2, 22272, Note_on_c, 0, 62, 112
2, 22316, Note_off_c, 0, 62, 100
2, 22368, Note_on_c, 0, 57, 112
2, 22440, Note_off_c, 0, 57, 100
2, 22464, Note_on_c, 0, 62, 112
2, 22536, Note_off_c, 0, 62, 100
2, 22560, Note_on_c, 0, 64, 112
2, 22632, Note_off_c, 0, 64, 100
2, 22656, Note_on_c, 0, 66, 112
2, 22728, Note_off_c, 0, 66, 100
2, 22752, Note_on_c, 0, 62, 112
2, 22824, Note_off_c, 0, 62, 100
2, 22848, Note_on_c, 0, 66, 112
2, 22920, Note_off_c, 0, 66, 100
2, 22944, Note_on_c, 0, 69, 112
2, 23008, Note_off_c, 0, 69, 100
2, 23040, Note_on_c, 0, 74, 112
2, 23112, Note_off_c, 0, 74, 100
2, 23136, Note_on_c, 0, 71, 112
2, 23208, Note_off_c, 0, 71, 100
2, 23232, Note_on_c, 0, 69, 112
2, 23304, Note_off_c, 0, 69, 100
2, 23328, Note_on_c, 0, 71, 112
2, 23400, Note_off_c, 0, 71, 100
2, 23424, Note_on_c, 0, 67, 112
2, 23496, Note_off_c, 0, 67, 100
2, 23520, Note_on_c, 0, 71, 112
2, 23592, Note_off_c, 0, 71, 100
2, 23616, Note_on_c, 0, 69, 112
2, 23688, Note_off_c, 0, 69, 100
2, 23712, Note_on_c, 0, 71, 112
2, 23784, Note_off_c, 0, 71, 100
2, 23808, Note_on_c, 0, 62, 112
2, 23880, Note_off_c, 0, 62, 100
2, 23904, Note_on_c, 0, 67, 112
2, 23976, Note_off_c, 0, 67, 100
2, 24000, Note_on_c, 0, 66, 112
2, 24072, Note_off_c, 0, 66, 100
2, 24096, Note_on_c, 0, 67, 112
2, 24168, Note_off_c, 0, 67, 100
2, 24192, Note_on_c, 0, 64, 112
2, 24264, Note_off_c, 0, 64, 100
2, 24288, Note_on_c, 0, 67, 112
2, 24360, Note_off_c, 0, 67, 100
2, 24384, Note_on_c, 0, 62, 112
2, 24456, Note_off_c, 0, 62, 100
2, 24480, Note_on_c, 0, 67, 112
2, 24552, Note_off_c, 0, 67, 100
2, 24576, Note_on_c, 0, 60, 112
2, 24648, Note_off_c, 0, 60, 100
2, 24672, Note_on_c, 0, 67, 112
2, 24744, Note_off_c, 0, 67, 100
2, 24768, Note_on_c, 0, 59, 112
2, 24840, Note_off_c, 0, 59, 100
2, 24864, Note_on_c, 0, 67, 112
2, 24936, Note_off_c, 0, 67, 100
2, 24960, Note_on_c, 0, 57, 112
2, 25032, Note_off_c, 0, 57, 100
2, 25056, Note_on_c, 0, 67, 112
2, 25128, Note_off_c, 0, 67, 100
2, 25152, Note_on_c, 0, 59, 112
2, 25224, Note_off_c, 0, 59, 100
2, 25248, Note_on_c, 0, 67, 112
2, 25320, Note_off_c, 0, 67, 100
2, 25344, Note_on_c, 0, 60, 112
2, 25416, Note_off_c, 0, 60, 100
2, 25440, Note_on_c, 0, 67, 112
2, 25512, Note_off_c, 0, 67, 100
2, 25536, Note_on_c, 0, 59, 112
2, 25608, Note_off_c, 0, 59, 100
2, 25632, Note_on_c, 0, 67, 112
2, 25704, Note_off_c, 0, 67, 100
2, 25728, Note_on_c, 0, 60, 112
2, 25800, Note_off_c, 0, 60, 100
2, 25824, Note_on_c, 0, 66, 112
2, 25896, Note_off_c, 0, 66, 100
2, 25920, Note_on_c, 0, 64, 112
2, 25992, Note_off_c, 0, 64, 100
2, 26016, Note_on_c, 0, 66, 112
2, 26088, Note_off_c, 0, 66, 100
2, 26112, Note_on_c, 0, 62, 112
2, 26184, Note_off_c, 0, 62, 100
2, 26208, Note_on_c, 0, 66, 112
2, 26280, Note_off_c, 0, 66, 100
2, 26304, Note_on_c, 0, 60, 112
2, 26376, Note_off_c, 0, 60, 100
2, 26400, Note_on_c, 0, 66, 112
2, 26472, Note_off_c, 0, 66, 100
2, 26496, Note_on_c, 0, 59, 112
2, 26540, Note_off_c, 0, 59, 100
2, 26592, Note_on_c, 0, 67, 112
2, 26664, Note_off_c, 0, 67, 100
2, 26688, Note_on_c, 0, 66, 112
2, 26760, Note_off_c, 0, 66, 100
2, 26784, Note_on_c, 0, 64, 112
2, 26856, Note_off_c, 0, 64, 100
2, 26880, Note_on_c, 0, 62, 112
2, 26952, Note_off_c, 0, 62, 100
2, 26976, Note_on_c, 0, 60, 112
2, 27048, Note_off_c, 0, 60, 100
2, 27072, Note_on_c, 0, 59, 112
2, 27144, Note_off_c, 0, 59, 100
2, 27168, Note_on_c, 0, 57, 112
2, 27240, Note_off_c, 0, 57, 100
2, 27264, Note_on_c, 0, 55, 112
2, 27452, Note_off_c, 0, 55, 100
2, 27648, Note_on_c, 0, 83, 112
2, 27708, Note_off_c, 0, 83, 100
2, 28032, Note_on_c, 0, 67, 112
2, 28092, Note_off_c, 0, 67, 100
2, 28416, Note_on_c, 0, 83, 112
2, 28460, Note_off_c, 0, 83, 100
2, 28464, Note_on_c, 0, 81, 112
2, 28508, Note_off_c, 0, 81, 100
2, 28512, Note_on_c, 0, 83, 112
2, 28796, Note_off_c, 0, 83, 100
2, 28800, Note_on_c, 0, 81, 112
2, 28860, Note_off_c, 0, 81, 100
2, 29184, Note_on_c, 0, 66, 112
2, 29244, Note_off_c, 0, 66, 100
2, 29568, Note_on_c, 0, 81, 112
2, 29612, Note_off_c, 0, 81, 100
2, 29616, Note_on_c, 0, 79, 112
2, 29660, Note_off_c, 0, 79, 100
2, 29664, Note_on_c, 0, 81, 112
2, 29948, Note_off_c, 0, 81, 100
2, 29952, Note_on_c, 0, 79, 112
2, 30024, Note_off_c, 0, 79, 100
2, 30048, Note_on_c, 0, 78, 112
2, 30120, Note_off_c, 0, 78, 100
2, 30144, Note_on_c, 0, 76, 112
2, 30216, Note_off_c, 0, 76, 100
2, 30240, Note_on_c, 0, 75, 112
2, 30312, Note_off_c, 0, 75, 100
2, 30336, Note_on_c, 0, 76, 112
2, 30408, Note_off_c, 0, 76, 100
2, 30432, Note_on_c, 0, 79, 112
2, 30504, Note_off_c, 0, 79, 100
2, 30528, Note_on_c, 0, 74, 112
2, 30600, Note_off_c, 0, 74, 100
2, 30624, Note_on_c, 0, 79, 112
2, 30696, Note_off_c, 0, 79, 100
2, 30720, Note_on_c, 0, 73, 112
2, 30792, Note_off_c, 0, 73, 100
2, 30816, Note_on_c, 0, 79, 112
2, 30888, Note_off_c, 0, 79, 100
2, 30912, Note_on_c, 0, 71, 112
2, 30984, Note_off_c, 0, 71, 100
2, 31008, Note_on_c, 0, 79, 112
2, 31080, Note_off_c, 0, 79, 100
2, 31104, Note_on_c, 0, 73, 112
2, 31176, Note_off_c, 0, 73, 100
2, 31200, Note_on_c, 0, 79, 112
2, 31272, Note_off_c, 0, 79, 100
2, 31296, Note_on_c, 0, 76, 112
2, 31368, Note_off_c, 0, 76, 100
2, 31392, Note_on_c, 0, 79, 112
2, 31464, Note_off_c, 0, 79, 100
2, 31488, Note_on_c, 0, 69, 112
2, 31548, Note_off_c, 0, 69, 100
2, 31680, Note_on_c, 0, 79, 112
2, 31740, Note_off_c, 0, 79, 100
2, 31872, Note_on_c, 0, 78, 112
2, 31932, Note_off_c, 0, 78, 100
2, 32064, Note_on_c, 0, 81, 112
2, 32108, Note_off_c, 0, 81, 100
2, 32112, Note_on_c, 0, 79, 112
2, 32156, Note_off_c, 0, 79, 100
2, 32160, Note_on_c, 0, 78, 112
2, 32204, Note_off_c, 0, 78, 100
2, 32208, Note_on_c, 0, 79, 112
2, 32252, Note_off_c, 0, 79, 100
2, 32256, Note_on_c, 0, 81, 112
2, 32316, Note_off_c, 0, 81, 100
2, 32448, Note_on_c, 0, 64, 112
2, 32636, Note_off_c, 0, 64, 100
2, 32640, Note_on_c, 0, 66, 112
2, 32700, Note_off_c, 0, 66, 100
2, 32832, Note_on_c, 0, 78, 112
2, 32892, Note_off_c, 0, 78, 100
2, 33024, Note_on_c, 0, 79, 112
2, 33084, Note_off_c, 0, 79, 100
2, 33168, Note_on_c, 0, 81, 112
2, 33212, Note_off_c, 0, 81, 100
2, 33216, Note_on_c, 0, 83, 112
2, 33260, Note_off_c, 0, 83, 100
2, 33264, Note_on_c, 0, 81, 112
2, 33308, Note_off_c, 0, 81, 100
2, 33312, Note_on_c, 0, 79, 112
2, 33356, Note_off_c, 0, 79, 100
2, 33360, Note_on_c, 0, 81, 112
2, 33404, Note_off_c, 0, 81, 100
2, 33408, Note_on_c, 0, 83, 112
2, 33468, Note_off_c, 0, 83, 100
2, 33600, Note_on_c, 0, 66, 112
2, 33788, Note_off_c, 0, 66, 100
2, 33792, Note_on_c, 0, 64, 112
2, 33852, Note_off_c, 0, 64, 100
2, 33984, Note_on_c, 0, 79, 112
2, 34044, Note_off_c, 0, 79, 100
2, 34176, Note_on_c, 0, 81, 112
2, 34236, Note_off_c, 0, 81, 100
2, 34368, Note_on_c, 0, 83, 112
2, 34428, Note_off_c, 0, 83, 100
2, 34560, Note_on_c, 0, 78, 112
2, 34604, Note_off_c, 0, 78, 100
2, 34608, Note_on_c, 0, 76, 112
2, 34652, Note_off_c, 0, 76, 100
2, 34656, Note_on_c, 0, 78, 112
2, 34700, Note_off_c, 0, 78, 100
2, 34704, Note_on_c, 0, 76, 112
2, 34748, Note_off_c, 0, 76, 100
2, 34752, Note_on_c, 0, 67, 112
2, 34812, Note_off_c, 0, 67, 100
2, 34944, Note_on_c, 0, 57, 112
2, 35004, Note_off_c, 0, 57, 100
2, 35136, Note_on_c, 0, 64, 112
2, 35196, Note_off_c, 0, 64, 100
2, 35328, Note_on_c, 0, 61, 112
2, 35388, Note_off_c, 0, 61, 100
2, 35520, Note_on_c, 0, 57, 112
2, 35580, Note_off_c, 0, 57, 100
2, 35712, Note_on_c, 0, 50, 112
2, 35772, Note_off_c, 0, 50, 100
2, 35904, Note_on_c, 0, 62, 112
2, 35964, Note_off_c, 0, 62, 100
2, 36096, Note_on_c, 0, 66, 112
2, 36156, Note_off_c, 0, 66, 100
2, 36288, Note_on_c, 0, 69, 112
2, 36348, Note_off_c, 0, 69, 100
2, 36480, Note_on_c, 0, 74, 112
2, 36736, Note_off_c, 0, 74, 100
2, 36864, Note_on_c, 0, 78, 112
2, 36924, Note_off_c, 0, 78, 100
2, 37248, Note_on_c, 0, 62, 112
2, 37308, Note_off_c, 0, 62, 100
2, 37632, Note_on_c, 0, 78, 112
2, 37676, Note_off_c, 0, 78, 100
2, 37680, Note_on_c, 0, 76, 112
2, 37724, Note_off_c, 0, 76, 100
2, 37728, Note_on_c, 0, 78, 112
2, 38012, Note_off_c, 0, 78, 100
2, 38016, Note_on_c, 0, 79, 112
2, 38124, Note_off_c, 0, 79, 100
2, 38208, Note_on_c, 0, 71, 112
2, 38280, Note_off_c, 0, 71, 100
2, 38304, Note_on_c, 0, 79, 112
2, 38376, Note_off_c, 0, 79, 100
2, 38400, Note_on_c, 0, 81, 112
2, 38508, Note_off_c, 0, 81, 100
2, 38592, Note_on_c, 0, 74, 112
2, 38664, Note_off_c, 0, 74, 100
2, 38688, Note_on_c, 0, 81, 112
2, 38760, Note_off_c, 0, 81, 100
2, 38784, Note_on_c, 0, 83, 112
2, 38844, Note_off_c, 0, 83, 100
2, 38976, Note_on_c, 0, 79, 112
2, 39036, Note_off_c, 0, 79, 100
2, 39168, Note_on_c, 0, 76, 112
2, 39228, Note_off_c, 0, 76, 100
2, 39360, Note_on_c, 0, 72, 112
2, 39420, Note_off_c, 0, 72, 100
2, 39552, Note_on_c, 0, 69, 112
2, 39612, Note_off_c, 0, 69, 100
2, 39744, Note_on_c, 0, 79, 112
2, 39804, Note_off_c, 0, 79, 100
2, 39936, Note_on_c, 0, 78, 112
2, 39980, Note_off_c, 0, 78, 100
2, 39984, Note_on_c, 0, 76, 112
2, 40028, Note_off_c, 0, 76, 100
2, 40032, Note_on_c, 0, 75, 112
2, 40124, Note_off_c, 0, 75, 100
2, 40128, Note_on_c, 0, 76, 112
2, 40412, Note_off_c, 0, 76, 100
2, 40464, Note_on_c, 0, 76, 112
2, 40508, Note_off_c, 0, 76, 100
2, 40512, Note_on_c, 0, 75, 112
2, 40556, Note_off_c, 0, 75, 100
2, 40560, Note_on_c, 0, 76, 112
2, 40604, Note_off_c, 0, 76, 100
2, 40608, Note_on_c, 0, 75, 112
2, 40700, Note_off_c, 0, 75, 100
2, 40896, Note_on_c, 0, 57, 112
2, 40988, Note_off_c, 0, 57, 100
2, 41040, Note_on_c, 0, 57, 112
2, 41084, Note_off_c, 0, 57, 100
2, 41088, Note_on_c, 0, 55, 112
2, 41132, Note_off_c, 0, 55, 100
2, 41136, Note_on_c, 0, 57, 112
2, 41180, Note_off_c, 0, 57, 100
2, 41184, Note_on_c, 0, 55, 112
2, 41276, Note_off_c, 0, 55, 100
2, 41280, Note_on_c, 0, 54, 112
2, 41468, Note_off_c, 0, 54, 100
2, 41472, Note_on_c, 0, 52, 112
2, 41532, Note_off_c, 0, 52, 100
2, 41856, Note_on_c, 0, 76, 112
2, 41916, Note_off_c, 0, 76, 100
2, 42240, Note_on_c, 0, 50, 112
2, 42284, Note_off_c, 0, 50, 100
2, 42288, Note_on_c, 0, 48, 112
2, 42332, Note_off_c, 0, 48, 100
2, 42336, Note_on_c, 0, 50, 112
2, 42620, Note_off_c, 0, 50, 100
2, 42624, Note_on_c, 0, 48, 112
2, 42684, Note_off_c, 0, 48, 100
2, 43008, Note_on_c, 0, 76, 112
2, 43068, Note_off_c, 0, 76, 100
2, 43392, Note_on_c, 0, 45, 112
2, 43436, Note_off_c, 0, 45, 100
2, 43440, Note_on_c, 0, 43, 112
2, 43484, Note_off_c, 0, 43, 100
2, 43488, Note_on_c, 0, 45, 112
2, 43772, Note_off_c, 0, 45, 100
2, 43776, Note_on_c, 0, 47, 112
2, 43836, Note_off_c, 0, 47, 100
2, 44160, Note_on_c, 0, 79, 112
2, 44220, Note_off_c, 0, 79, 100
2, 44352, Note_on_c, 0, 78, 112
2, 44412, Note_off_c, 0, 78, 100
2, 44544, Note_on_c, 0, 76, 112
2, 44604, Note_off_c, 0, 76, 100
2, 44736, Note_on_c, 0, 75, 112
2, 44796, Note_off_c, 0, 75, 100
2, 44928, Note_on_c, 0, 76, 112
2, 44988, Note_off_c, 0, 76, 100
2, 45312, Note_on_c, 0, 52, 112
2, 45784, Note_off_c, 0, 52, 100
2, 45792, Note_on_c, 0, 50, 112
2, 45884, Note_off_c, 0, 50, 100
2, 45888, Note_on_c, 0, 48, 112
2, 45980, Note_off_c, 0, 48, 100
2, 45984, Note_on_c, 0, 47, 112
2, 46076, Note_off_c, 0, 47, 100
2, 46080, Note_on_c, 0, 48, 112
2, 46124, Note_off_c, 0, 48, 100
2, 46176, Note_on_c, 0, 52, 112
2, 46248, Note_off_c, 0, 52, 100
2, 46272, Note_on_c, 0, 50, 112
2, 46344, Note_off_c, 0, 50, 100
2, 46368, Note_on_c, 0, 52, 112
2, 46440, Note_off_c, 0, 52, 100
2, 46464, Note_on_c, 0, 57, 112
2, 46508, Note_off_c, 0, 57, 100
2, 46560, Note_on_c, 0, 52, 112
2, 46632, Note_off_c, 0, 52, 100
2, 46656, Note_on_c, 0, 50, 112
2, 46728, Note_off_c, 0, 50, 100
2, 46752, Note_on_c, 0, 52, 112
2, 46824, Note_off_c, 0, 52, 100
2, 46848, Note_on_c, 0, 60, 112
2, 46892, Note_off_c, 0, 60, 100
2, 46944, Note_on_c, 0, 57, 112
2, 47016, Note_off_c, 0, 57, 100
2, 47040, Note_on_c, 0, 55, 112
2, 47112, Note_off_c, 0, 55, 100
2, 47136, Note_on_c, 0, 57, 112
2, 47208, Note_off_c, 0, 57, 100
2, 47232, Note_on_c, 0, 66, 112
2, 47276, Note_off_c, 0, 66, 100
2, 47328, Note_on_c, 0, 57, 112
2, 47400, Note_off_c, 0, 57, 100
2, 47424, Note_on_c, 0, 55, 112
2, 47496, Note_off_c, 0, 55, 100
2, 47520, Note_on_c, 0, 57, 112
2, 47592, Note_off_c, 0, 57, 100
2, 47616, Note_on_c, 0, 67, 112
2, 47660, Note_off_c, 0, 67, 100
2, 47712, Note_on_c, 0, 62, 112
2, 47784, Note_off_c, 0, 62, 100
2, 47808, Note_on_c, 0, 60, 112
2, 47880, Note_off_c, 0, 60, 100
2, 47904, Note_on_c, 0, 62, 112
2, 47976, Note_off_c, 0, 62, 100
2, 48000, Note_on_c, 0, 71, 112
2, 48044, Note_off_c, 0, 71, 100
2, 48096, Note_on_c, 0, 67, 112
2, 48168, Note_off_c, 0, 67, 100
2, 48192, Note_on_c, 0, 66, 112
2, 48264, Note_off_c, 0, 66, 100
2, 48288, Note_on_c, 0, 67, 112
2, 48360, Note_off_c, 0, 67, 100
2, 48384, Note_on_c, 0, 76, 112
2, 48428, Note_off_c, 0, 76, 100
2, 48480, Note_on_c, 0, 74, 112
2, 48552, Note_off_c, 0, 74, 100
2, 48576, Note_on_c, 0, 72, 112
2, 48648, Note_off_c, 0, 72, 100
2, 48672, Note_on_c, 0, 74, 112
2, 48744, Note_off_c, 0, 74, 100
2, 48768, Note_on_c, 0, 78, 112
2, 48812, Note_off_c, 0, 78, 100
2, 48864, Note_on_c, 0, 74, 112
2, 48936, Note_off_c, 0, 74, 100
2, 48960, Note_on_c, 0, 72, 112
2, 49032, Note_off_c, 0, 72, 100
2, 49056, Note_on_c, 0, 74, 112
2, 49128, Note_off_c, 0, 74, 100
2, 49152, Note_on_c, 0, 79, 112
2, 49196, Note_off_c, 0, 79, 100
2, 49248, Note_on_c, 0, 74, 112
2, 49320, Note_off_c, 0, 74, 100
2, 49344, Note_on_c, 0, 72, 112
2, 49416, Note_off_c, 0, 72, 100
2, 49440, Note_on_c, 0, 74, 112
2, 49512, Note_off_c, 0, 74, 100
2, 49536, Note_on_c, 0, 81, 112
2, 49580, Note_off_c, 0, 81, 100
2, 49632, Note_on_c, 0, 74, 112
2, 49724, Note_off_c, 0, 74, 100
2, 49728, Note_on_c, 0, 72, 112
2, 49820, Note_off_c, 0, 72, 100
2, 49824, Note_on_c, 0, 71, 112
2, 49916, Note_off_c, 0, 71, 100
2, 49920, Note_on_c, 0, 72, 112
2, 50012, Note_off_c, 0, 72, 100
2, 50016, Note_on_c, 0, 71, 112
2, 50108, Note_off_c, 0, 71, 100
2, 50112, Note_on_c, 0, 69, 112
2, 50204, Note_off_c, 0, 69, 100
2, 50208, Note_on_c, 0, 67, 112
2, 50300, Note_off_c, 0, 67, 100
2, 50304, Note_on_c, 0, 66, 112
2, 50348, Note_off_c, 0, 66, 100
2, 50400, Note_on_c, 0, 81, 112
2, 50492, Note_off_c, 0, 81, 100
2, 50496, Note_on_c, 0, 79, 112
2, 50588, Note_off_c, 0, 79, 100
2, 50592, Note_on_c, 0, 78, 112
2, 50684, Note_off_c, 0, 78, 100
2, 50688, Note_on_c, 0, 79, 112
2, 50748, Note_off_c, 0, 79, 100
2, 50880, Note_on_c, 0, 71, 112
2, 50940, Note_off_c, 0, 71, 100
2, 51264, Note_on_c, 0, 53, 112
2, 51324, Note_off_c, 0, 53, 100
2, 51456, Note_on_c, 0, 52, 112
2, 51516, Note_off_c, 0, 52, 100
2, 51648, Note_on_c, 0, 50, 112
2, 51708, Note_off_c, 0, 50, 100
2, 51840, Note_on_c, 0, 48, 112
2, 51884, Note_off_c, 0, 48, 100
2, 51936, Note_on_c, 0, 60, 112
2, 52008, Note_off_c, 0, 60, 100
2, 52032, Note_on_c, 0, 59, 112
2, 52104, Note_off_c, 0, 59, 100
2, 52128, Note_on_c, 0, 60, 112
2, 52200, Note_off_c, 0, 60, 100
2, 52224, Note_on_c, 0, 62, 112
2, 52296, Note_off_c, 0, 62, 100
2, 52320, Note_on_c, 0, 60, 112
2, 52392, Note_off_c, 0, 60, 100
2, 52416, Note_on_c, 0, 64, 112
2, 52460, Note_off_c, 0, 64, 100
2, 52512, Note_on_c, 0, 60, 112
2, 52584, Note_off_c, 0, 60, 100
2, 52608, Note_on_c, 0, 66, 112
2, 52652, Note_off_c, 0, 66, 100
2, 52704, Note_on_c, 0, 60, 112
2, 52776, Note_off_c, 0, 60, 100
2, 52800, Note_on_c, 0, 67, 112
2, 52844, Note_off_c, 0, 67, 100
2, 52896, Note_on_c, 0, 60, 112
2, 52968, Note_off_c, 0, 60, 100
2, 52992, Note_on_c, 0, 69, 112
2, 53036, Note_off_c, 0, 69, 100
2, 53088, Note_on_c, 0, 60, 112
2, 53160, Note_off_c, 0, 60, 100
2, 53184, Note_on_c, 0, 59, 112
2, 53256, Note_off_c, 0, 59, 100
2, 53280, Note_on_c, 0, 57, 112
2, 53352, Note_off_c, 0, 57, 100
2, 53376, Note_on_c, 0, 59, 112
2, 53436, Note_off_c, 0, 59, 100
2, 53568, Note_on_c, 0, 74, 112
2, 53628, Note_off_c, 0, 74, 100
2, 53760, Note_on_c, 0, 50, 112
2, 53820, Note_off_c, 0, 50, 100
2, 53952, Note_on_c, 0, 72, 112
2, 54012, Note_off_c, 0, 72, 100
2, 54144, Note_on_c, 0, 71, 112
2, 54188, Note_off_c, 0, 71, 100
2, 54240, Note_on_c, 0, 67, 112
2, 54312, Note_off_c, 0, 67, 100
2, 54336, Note_on_c, 0, 62, 112
2, 54408, Note_off_c, 0, 62, 100
2, 54432, Note_on_c, 0, 67, 112
2, 54504, Note_off_c, 0, 67, 100
2, 54528, Note_on_c, 0, 71, 112
2, 54572, Note_off_c, 0, 71, 100
2, 54624, Note_on_c, 0, 67, 112
2, 54696, Note_off_c, 0, 67, 100
2, 54720, Note_on_c, 0, 74, 112
2, 54764, Note_off_c, 0, 74, 100
2, 54816, Note_on_c, 0, 71, 112
2, 54888, Note_off_c, 0, 71, 100
2, 54912, Note_on_c, 0, 79, 112
2, 55168, Note_off_c, 0, 79, 100
2, 55296, Note_on_c, 0, 78, 112
2, 55356, Note_off_c, 0, 78, 100
2, 55680, Note_on_c, 0, 62, 112
2, 55740, Note_off_c, 0, 62, 100
2, 56064, Note_on_c, 0, 78, 112
2, 56108, Note_off_c, 0, 78, 100
2, 56112, Note_on_c, 0, 76, 112
2, 56156, Note_off_c, 0, 76, 100
2, 56160, Note_on_c, 0, 78, 112
2, 56444, Note_off_c, 0, 78, 100
2, 56448, Note_on_c, 0, 79, 112
2, 56556, Note_off_c, 0, 79, 100
2, 56640, Note_on_c, 0, 71, 112
2, 56712, Note_off_c, 0, 71, 100
2, 56736, Note_on_c, 0, 79, 112
2, 56808, Note_off_c, 0, 79, 100
2, 56832, Note_on_c, 0, 81, 112
2, 56892, Note_off_c, 0, 81, 100
2, 57024, Note_on_c, 0, 74, 112
2, 57096, Note_off_c, 0, 74, 100
2, 57120, Note_on_c, 0, 81, 112
2, 57192, Note_off_c, 0, 81, 100
2, 57216, Note_on_c, 0, 83, 112
2, 57276, Note_off_c, 0, 83, 100
2, 57408, Note_on_c, 0, 79, 112
2, 57468, Note_off_c, 0, 79, 100
2, 57600, Note_on_c, 0, 78, 112
2, 57644, Note_off_c, 0, 78, 100
2, 57648, Note_on_c, 0, 76, 112
2, 57692, Note_off_c, 0, 76, 100
2, 57696, Note_on_c, 0, 78, 112
2, 57740, Note_off_c, 0, 78, 100
2, 57744, Note_on_c, 0, 76, 112
2, 57788, Note_off_c, 0, 76, 100
2, 57792, Note_on_c, 0, 72, 112
2, 57852, Note_off_c, 0, 72, 100
2, 57984, Note_on_c, 0, 69, 112
2, 58044, Note_off_c, 0, 69, 100
2, 58176, Note_on_c, 0, 79, 112
2, 58236, Note_off_c, 0, 79, 100
2, 58368, Note_on_c, 0, 78, 112
2, 58412, Note_off_c, 0, 78, 100
2, 58416, Note_on_c, 0, 76, 112
2, 58460, Note_off_c, 0, 76, 100
2, 58464, Note_on_c, 0, 75, 112
2, 58556, Note_off_c, 0, 75, 100
2, 58560, Note_on_c, 0, 76, 112
2, 58844, Note_off_c, 0, 76, 100
2, 58896, Note_on_c, 0, 76, 112
2, 58940, Note_off_c, 0, 76, 100
2, 58944, Note_on_c, 0, 75, 112
2, 58988, Note_off_c, 0, 75, 100
2, 58992, Note_on_c, 0, 76, 112
2, 59036, Note_off_c, 0, 76, 100
2, 59040, Note_on_c, 0, 75, 112
2, 59132, Note_off_c, 0, 75, 100
2, 59328, Note_on_c, 0, 57, 112
2, 59420, Note_off_c, 0, 57, 100
2, 59472, Note_on_c, 0, 57, 112
2, 59516, Note_off_c, 0, 57, 100
2, 59520, Note_on_c, 0, 55, 112
2, 59564, Note_off_c, 0, 55, 100
2, 59568, Note_on_c, 0, 57, 112
2, 59612, Note_off_c, 0, 57, 100
2, 59616, Note_on_c, 0, 55, 112
2, 59708, Note_off_c, 0, 55, 100
2, 59712, Note_on_c, 0, 54, 112
2, 59900, Note_off_c, 0, 54, 100
2, 59904, Note_on_c, 0, 52, 112
2, 59964, Note_off_c, 0, 52, 100
2, 60288, Note_on_c, 0, 76, 112
2, 60348, Note_off_c, 0, 76, 100
2, 60672, Note_on_c, 0, 50, 112
2, 60716, Note_off_c, 0, 50, 100
2, 60720, Note_on_c, 0, 48, 112
2, 60764, Note_off_c, 0, 48, 100
2, 60768, Note_on_c, 0, 50, 112
2, 61052, Note_off_c, 0, 50, 100
2, 61056, Note_on_c, 0, 48, 112
2, 61116, Note_off_c, 0, 48, 100
2, 61440, Note_on_c, 0, 76, 112
2, 61500, Note_off_c, 0, 76, 100
2, 61824, Note_on_c, 0, 45, 112
2, 61868, Note_off_c, 0, 45, 100
2, 61872, Note_on_c, 0, 43, 112
2, 61916, Note_off_c, 0, 43, 100
2, 61920, Note_on_c, 0, 45, 112
2, 62204, Note_off_c, 0, 45, 100
2, 62208, Note_on_c, 0, 47, 112
2, 62268, Note_off_c, 0, 47, 100
2, 62592, Note_on_c, 0, 79, 112
2, 62652, Note_off_c, 0, 79, 100
2, 62784, Note_on_c, 0, 78, 112
2, 62844, Note_off_c, 0, 78, 100
2, 62976, Note_on_c, 0, 78, 112
2, 63020, Note_off_c, 0, 78, 100
2, 63024, Note_on_c, 0, 76, 112
2, 63068, Note_off_c, 0, 76, 100
2, 63072, Note_on_c, 0, 78, 112
2, 63116, Note_off_c, 0, 78, 100
2, 63120, Note_on_c, 0, 76, 112
2, 63164, Note_off_c, 0, 76, 100
2, 63168, Note_on_c, 0, 75, 112
2, 63228, Note_off_c, 0, 75, 100
2, 63360, Note_on_c, 0, 76, 112
2, 63420, Note_off_c, 0, 76, 100
2, 63744, Note_on_c, 0, 52, 112
2, 64216, Note_off_c, 0, 52, 100
2, 64224, Note_on_c, 0, 50, 112
2, 64316, Note_off_c, 0, 50, 100
2, 64320, Note_on_c, 0, 48, 112
2, 64412, Note_off_c, 0, 48, 100
2, 64416, Note_on_c, 0, 47, 112
2, 64508, Note_off_c, 0, 47, 100
2, 64512, Note_on_c, 0, 48, 112
2, 64556, Note_off_c, 0, 48, 100
2, 64608, Note_on_c, 0, 52, 112
2, 64680, Note_off_c, 0, 52, 100
2, 64704, Note_on_c, 0, 50, 112
2, 64776, Note_off_c, 0, 50, 100
2, 64800, Note_on_c, 0, 52, 112
2, 64872, Note_off_c, 0, 52, 100
2, 64896, Note_on_c, 0, 57, 112
2, 64940, Note_off_c, 0, 57, 100
2, 64992, Note_on_c, 0, 52, 112
2, 65064, Note_off_c, 0, 52, 100
2, 65088, Note_on_c, 0, 50, 112
2, 65160, Note_off_c, 0, 50, 100
2, 65184, Note_on_c, 0, 52, 112
2, 65256, Note_off_c, 0, 52, 100
2, 65280, Note_on_c, 0, 60, 112
2, 65324, Note_off_c, 0, 60, 100
2, 65376, Note_on_c, 0, 57, 112
2, 65448, Note_off_c, 0, 57, 100
2, 65472, Note_on_c, 0, 55, 112
2, 65544, Note_off_c, 0, 55, 100
2, 65568, Note_on_c, 0, 57, 112
2, 65640, Note_off_c, 0, 57, 100
2, 65664, Note_on_c, 0, 66, 112
2, 65708, Note_off_c, 0, 66, 100
2, 65760, Note_on_c, 0, 57, 112
2, 65832, Note_off_c, 0, 57, 100
2, 65856, Note_on_c, 0, 55, 112
2, 65928, Note_off_c, 0, 55, 100
2, 65952, Note_on_c, 0, 57, 112
2, 66024, Note_off_c, 0, 57, 100
2, 66048, Note_on_c, 0, 67, 112
2, 66092, Note_off_c, 0, 67, 100
2, 66144, Note_on_c, 0, 62, 112
2, 66216, Note_off_c, 0, 62, 100
2, 66240, Note_on_c, 0, 60, 112
2, 66312, Note_off_c, 0, 60, 100
2, 66336, Note_on_c, 0, 62, 112
2, 66408, Note_off_c, 0, 62, 100
2, 66432, Note_on_c, 0, 71, 112
2, 66476, Note_off_c, 0, 71, 100
2, 66528, Note_on_c, 0, 67, 112
2, 66600, Note_off_c, 0, 67, 100
2, 66624, Note_on_c, 0, 66, 112
2, 66696, Note_off_c, 0, 66, 100
2, 66720, Note_on_c, 0, 67, 112
2, 66792, Note_off_c, 0, 67, 100
2, 66816, Note_on_c, 0, 76, 112
2, 66860, Note_off_c, 0, 76, 100
2, 66912, Note_on_c, 0, 74, 112
2, 66984, Note_off_c, 0, 74, 100
2, 67008, Note_on_c, 0, 72, 112
2, 67080, Note_off_c, 0, 72, 100
2, 67104, Note_on_c, 0, 74, 112
2, 67176, Note_off_c, 0, 74, 100
2, 67200, Note_on_c, 0, 78, 112
2, 67244, Note_off_c, 0, 78, 100
2, 67296, Note_on_c, 0, 74, 112
2, 67368, Note_off_c, 0, 74, 100
2, 67392, Note_on_c, 0, 72, 112
2, 67464, Note_off_c, 0, 72, 100
2, 67488, Note_on_c, 0, 74, 112
2, 67560, Note_off_c, 0, 74, 100
2, 67584, Note_on_c, 0, 79, 112
2, 67628, Note_off_c, 0, 79, 100
2, 67680, Note_on_c, 0, 74, 112
2, 67752, Note_off_c, 0, 74, 100
2, 67776, Note_on_c, 0, 72, 112
2, 67848, Note_off_c, 0, 72, 100
2, 67872, Note_on_c, 0, 74, 112
2, 67944, Note_off_c, 0, 74, 100
2, 67968, Note_on_c, 0, 81, 112
2, 68012, Note_off_c, 0, 81, 100
2, 68064, Note_on_c, 0, 74, 112
2, 68156, Note_off_c, 0, 74, 100
2, 68160, Note_on_c, 0, 72, 112
2, 68252, Note_off_c, 0, 72, 100
2, 68256, Note_on_c, 0, 71, 112
2, 68348, Note_off_c, 0, 71, 100
2, 68352, Note_on_c, 0, 72, 112
2, 68444, Note_off_c, 0, 72, 100
2, 68448, Note_on_c, 0, 71, 112
2, 68540, Note_off_c, 0, 71, 100
2, 68544, Note_on_c, 0, 69, 112
2, 68636, Note_off_c, 0, 69, 100
2, 68640, Note_on_c, 0, 67, 112
2, 68732, Note_off_c, 0, 67, 100
2, 68736, Note_on_c, 0, 66, 112
2, 68780, Note_off_c, 0, 66, 100
2, 68832, Note_on_c, 0, 81, 112
2, 68924, Note_off_c, 0, 81, 100
2, 68928, Note_on_c, 0, 79, 112
2, 69020, Note_off_c, 0, 79, 100
2, 69024, Note_on_c, 0, 78, 112
2, 69116, Note_off_c, 0, 78, 100
2, 69120, Note_on_c, 0, 79, 112
2, 69180, Note_off_c, 0, 79, 100
2, 69312, Note_on_c, 0, 71, 112
2, 69372, Note_off_c, 0, 71, 100
2, 69696, Note_on_c, 0, 53, 112
2, 69756, Note_off_c, 0, 53, 100
2, 69888, Note_on_c, 0, 53, 112
2, 69932, Note_off_c, 0, 53, 100
2, 69936, Note_on_c, 0, 52, 112
2, 69980, Note_off_c, 0, 52, 100
2, 69984, Note_on_c, 0, 53, 112
2, 70028, Note_off_c, 0, 53, 100
2, 70032, Note_on_c, 0, 52, 112
2, 70076, Note_off_c, 0, 52, 100
2, 70080, Note_on_c, 0, 50, 112
2, 70140, Note_off_c, 0, 50, 100
2, 70272, Note_on_c, 0, 48, 112
2, 70316, Note_off_c, 0, 48, 100
2, 70368, Note_on_c, 0, 60, 112
2, 70440, Note_off_c, 0, 60, 100
2, 70464, Note_on_c, 0, 59, 112
2, 70536, Note_off_c, 0, 59, 100
2, 70560, Note_on_c, 0, 60, 112
2, 70632, Note_off_c, 0, 60, 100
2, 70656, Note_on_c, 0, 62, 112
2, 70728, Note_off_c, 0, 62, 100
2, 70752, Note_on_c, 0, 60, 112
2, 70824, Note_off_c, 0, 60, 100
2, 70848, Note_on_c, 0, 64, 112
2, 70892, Note_off_c, 0, 64, 100
2, 70944, Note_on_c, 0, 60, 112
2, 71016, Note_off_c, 0, 60, 100
2, 71040, Note_on_c, 0, 66, 112
2, 71084, Note_off_c, 0, 66, 100
2, 71136, Note_on_c, 0, 60, 112
2, 71208, Note_off_c, 0, 60, 100
2, 71232, Note_on_c, 0, 67, 112
2, 71276, Note_off_c, 0, 67, 100
2, 71328, Note_on_c, 0, 60, 112
2, 71400, Note_off_c, 0, 60, 100
2, 71424, Note_on_c, 0, 69, 112
2, 71468, Note_off_c, 0, 69, 100
2, 71520, Note_on_c, 0, 60, 112
2, 71592, Note_off_c, 0, 60, 100
2, 71616, Note_on_c, 0, 59, 112
2, 71688, Note_off_c, 0, 59, 100
2, 71712, Note_on_c, 0, 57, 112
2, 71784, Note_off_c, 0, 57, 100
2, 71808, Note_on_c, 0, 59, 112
2, 71868, Note_off_c, 0, 59, 100
2, 72000, Note_on_c, 0, 74, 112
2, 72060, Note_off_c, 0, 74, 100
2, 72192, Note_on_c, 0, 50, 112
2, 72252, Note_off_c, 0, 50, 100
2, 72384, Note_on_c, 0, 72, 112
2, 72444, Note_off_c, 0, 72, 100
2, 72576, Note_on_c, 0, 71, 112
2, 72620, Note_off_c, 0, 71, 100
2, 72672, Note_on_c, 0, 67, 112
2, 72744, Note_off_c, 0, 67, 100
2, 72768, Note_on_c, 0, 62, 112
2, 72840, Note_off_c, 0, 62, 100
2, 72864, Note_on_c, 0, 67, 112
2, 72936, Note_off_c, 0, 67, 100
2, 72960, Note_on_c, 0, 71, 112
2, 73004, Note_off_c, 0, 71, 100
2, 73056, Note_on_c, 0, 67, 112
2, 73128, Note_off_c, 0, 67, 100
2, 73152, Note_on_c, 0, 74, 112
2, 73196, Note_off_c, 0, 74, 100
2, 73248, Note_on_c, 0, 71, 112
2, 73320, Note_off_c, 0, 71, 100
2, 73344, Note_on_c, 0, 79, 112
2, 73600, Note_off_c, 0, 79, 100
2, 73600, End_track
3, 0, Start_track
3, 0, Title_t, "Goldberg Variations"
3, 0, Control_c, 1, 0, 0
3, 0, Program_c, 1, 6
3, 0, Control_c, 1, 7, 127
3, 0, Control_c, 1, 10, 101
3, 0, Control_c, 1, 91, 127
3, 0, Key_signature, 1, "major"
3, 0, Note_on_c, 1, 55, 112
3, 60, Note_off_c, 1, 55, 100
3, 384, Note_on_c, 1, 71, 112
3, 444, Note_off_c, 1, 71, 100
3, 768, Note_on_c, 1, 55, 112
3, 1148, Note_off_c, 1, 55, 100
3, 1152, Note_on_c, 1, 54, 112
3, 1212, Note_off_c, 1, 54, 100
3, 1536, Note_on_c, 1, 69, 112
3, 1596, Note_off_c, 1, 69, 100
3, 1920, Note_on_c, 1, 54, 112
3, 2300, Note_off_c, 1, 54, 100
3, 2304, Note_on_c, 1, 52, 112
3, 2364, Note_off_c, 1, 52, 100
3, 2688, Note_on_c, 1, 67, 112
3, 2748, Note_off_c, 1, 67, 100
3, 3072, Note_on_c, 1, 52, 112
3, 3452, Note_off_c, 1, 52, 100
3, 3456, Note_on_c, 1, 50, 112
3, 3516, Note_off_c, 1, 50, 100
3, 3840, Note_on_c, 1, 66, 112
3, 3900, Note_off_c, 1, 66, 100
3, 4224, Note_on_c, 1, 50, 112
3, 4284, Note_off_c, 1, 50, 100
3, 4416, Note_on_c, 1, 48, 112
3, 4476, Note_off_c, 1, 48, 100
3, 4608, Note_on_c, 1, 47, 112
3, 4668, Note_off_c, 1, 47, 100
3, 4992, Note_on_c, 1, 74, 112
3, 5052, Note_off_c, 1, 74, 100
3, 5376, Note_on_c, 1, 47, 112
3, 5756, Note_off_c, 1, 47, 100
3, 5760, Note_on_c, 1, 64, 112
3, 5760, Note_on_c, 1, 48, 112
3, 5820, Note_off_c, 1, 64, 100
3, 5820, Note_off_c, 1, 48, 100
3, 5952, Note_on_c, 1, 62, 112
3, 6012, Note_off_c, 1, 62, 100
3, 6144, Note_on_c, 1, 60, 112
3, 6144, Note_on_c, 1, 76, 112
3, 6204, Note_off_c, 1, 60, 100
3, 6204, Note_off_c, 1, 76, 100
3, 6336, Note_on_c, 1, 59, 112
3, 6396, Note_off_c, 1, 59, 100
3, 6528, Note_on_c, 1, 57, 112
3, 6528, Note_on_c, 1, 48, 112
3, 6588, Note_off_c, 1, 57, 100
3, 6720, Note_on_c, 1, 59, 112
3, 6780, Note_off_c, 1, 59, 100
3, 6908, Note_off_c, 1, 48, 100
3, 6912, Note_on_c, 1, 60, 112
3, 6912, Note_on_c, 1, 50, 112
3, 6972, Note_off_c, 1, 60, 100
3, 6972, Note_off_c, 1, 50, 100
3, 7104, Note_on_c, 1, 59, 112
3, 7164, Note_off_c, 1, 59, 100
3, 7296, Note_on_c, 1, 60, 112
3, 7296, Note_on_c, 1, 69, 112
3, 7356, Note_off_c, 1, 60, 100
3, 7356, Note_off_c, 1, 69, 100
3, 7488, Note_on_c, 1, 64, 112
3, 7548, Note_off_c, 1, 64, 100
3, 7680, Note_on_c, 1, 62, 112
3, 7680, Note_on_c, 1, 50, 112
3, 7740, Note_off_c, 1, 62, 100
3, 7872, Note_on_c, 1, 60, 112
3, 7932, Note_off_c, 1, 60, 100
3, 8060, Note_off_c, 1, 50, 100
3, 8064, Note_on_c, 1, 59, 112
3, 8064, Note_on_c, 1, 43, 112
3, 8124, Note_off_c, 1, 59, 100
3, 8124, Note_off_c, 1, 43, 100
3, 8448, Note_on_c, 1, 71, 112
3, 8704, Note_off_c, 1, 71, 100
3, 8928, Note_on_c, 1, 69, 112
3, 9000, Note_off_c, 1, 69, 100
3, 9024, Note_on_c, 1, 67, 112
3, 9096, Note_off_c, 1, 67, 100
3, 9120, Note_on_c, 1, 66, 112
3, 9192, Note_off_c, 1, 66, 100
3, 9216, Note_on_c, 1, 67, 112
3, 9260, Note_off_c, 1, 67, 100
3, 9312, Note_on_c, 1, 71, 112
3, 9384, Note_off_c, 1, 71, 100
3, 9408, Note_on_c, 1, 73, 112
3, 9480, Note_off_c, 1, 73, 100
3, 9504, Note_on_c, 1, 74, 112
3, 9576, Note_off_c, 1, 74, 100
3, 9600, Note_on_c, 1, 76, 112
3, 9672, Note_off_c, 1, 76, 100
3, 9696, Note_on_c, 1, 78, 112
3, 9768, Note_off_c, 1, 78, 100
3, 9792, Note_on_c, 1, 76, 112
3, 9864, Note_off_c, 1, 76, 100
3, 9888, Note_on_c, 1, 74, 112
3, 9960, Note_off_c, 1, 74, 100
3, 9984, Note_on_c, 1, 73, 112
3, 10056, Note_off_c, 1, 73, 100
3, 10080, Note_on_c, 1, 71, 112
3, 10152, Note_off_c, 1, 71, 100
3, 10176, Note_on_c, 1, 69, 112
3, 10248, Note_off_c, 1, 69, 100
3, 10272, Note_on_c, 1, 67, 112
3, 10344, Note_off_c, 1, 67, 100
3, 10368, Note_on_c, 1, 66, 112
3, 10412, Note_off_c, 1, 66, 100
3, 10464, Note_on_c, 1, 69, 112
3, 10536, Note_off_c, 1, 69, 100
3, 10560, Note_on_c, 1, 71, 112
3, 10632, Note_off_c, 1, 71, 100
3, 10656, Note_on_c, 1, 73, 112
3, 10728, Note_off_c, 1, 73, 100
3, 10752, Note_on_c, 1, 74, 112
3, 10824, Note_off_c, 1, 74, 100
3, 10848, Note_on_c, 1, 76, 112
3, 10920, Note_off_c, 1, 76, 100
3, 10944, Note_on_c, 1, 74, 112
3, 11016, Note_off_c, 1, 74, 100
3, 11040, Note_on_c, 1, 73, 112
3, 11112, Note_off_c, 1, 73, 100
3, 11136, Note_on_c, 1, 71, 112
3, 11208, Note_off_c, 1, 71, 100
3, 11232, Note_on_c, 1, 69, 112
3, 11304, Note_off_c, 1, 69, 100
3, 11328, Note_on_c, 1, 67, 112
3, 11400, Note_off_c, 1, 67, 100
3, 11424, Note_on_c, 1, 66, 112
3, 11496, Note_off_c, 1, 66, 100
3, 11520, Note_on_c, 1, 64, 112
3, 11580, Note_off_c, 1, 64, 100
3, 11712, Note_on_c, 1, 66, 112
3, 11772, Note_off_c, 1, 66, 100
3, 11904, Note_on_c, 1, 67, 112
3, 11964, Note_off_c, 1, 67, 100
3, 12096, Note_on_c, 1, 71, 112
3, 12156, Note_off_c, 1, 71, 100
3, 12288, Note_on_c, 1, 76, 112
3, 12332, Note_off_c, 1, 76, 100
3, 12336, Note_on_c, 1, 74, 112
3, 12380, Note_off_c, 1, 74, 100
3, 12384, Note_on_c, 1, 76, 112
3, 12860, Note_off_c, 1, 76, 100
3, 12864, Note_on_c, 1, 74, 112
3, 12924, Note_off_c, 1, 74, 100
3, 13056, Note_on_c, 1, 73, 112
3, 13100, Note_off_c, 1, 73, 100
3, 13152, Note_on_c, 1, 76, 112
3, 13224, Note_off_c, 1, 76, 100
3, 13248, Note_on_c, 1, 71, 112
3, 13292, Note_off_c, 1, 71, 100
3, 13344, Note_on_c, 1, 76, 112
3, 13416, Note_off_c, 1, 76, 100
3, 13440, Note_on_c, 1, 69, 112
3, 13484, Note_off_c, 1, 69, 100
3, 13536, Note_on_c, 1, 76, 112
3, 13608, Note_off_c, 1, 76, 100
3, 13632, Note_on_c, 1, 67, 112
3, 13676, Note_off_c, 1, 67, 100
3, 13728, Note_on_c, 1, 76, 112
3, 13800, Note_off_c, 1, 76, 100
3, 13824, Note_on_c, 1, 66, 112
3, 13868, Note_off_c, 1, 66, 100
3, 13920, Note_on_c, 1, 76, 112
3, 14012, Note_off_c, 1, 76, 100
3, 14016, Note_on_c, 1, 74, 112
3, 14108, Note_off_c, 1, 74, 100
3, 14112, Note_on_c, 1, 73, 112
3, 14204, Note_off_c, 1, 73, 100
3, 14208, Note_on_c, 1, 74, 112
3, 14280, Note_off_c, 1, 74, 100
3, 14304, Note_on_c, 1, 69, 112
3, 14376, Note_off_c, 1, 69, 100
3, 14400, Note_on_c, 1, 62, 112
3, 14444, Note_off_c, 1, 62, 100
3, 14496, Note_on_c, 1, 74, 112
3, 14568, Note_off_c, 1, 74, 100
3, 14592, Note_on_c, 1, 64, 112
3, 14636, Note_off_c, 1, 64, 100
3, 14688, Note_on_c, 1, 74, 112
3, 14760, Note_off_c, 1, 74, 100
3, 14784, Note_on_c, 1, 66, 112
3, 14828, Note_off_c, 1, 66, 100
3, 14880, Note_on_c, 1, 74, 112
3, 14952, Note_off_c, 1, 74, 100
3, 14976, Note_on_c, 1, 67, 112
3, 15020, Note_off_c, 1, 67, 100
3, 15072, Note_on_c, 1, 76, 112
3, 15164, Note_off_c, 1, 76, 100
3, 15168, Note_on_c, 1, 74, 112
3, 15260, Note_off_c, 1, 74, 100
3, 15264, Note_on_c, 1, 73, 112
3, 15356, Note_off_c, 1, 73, 100
3, 15360, Note_on_c, 1, 74, 112
3, 15432, Note_off_c, 1, 74, 100
3, 15456, Note_on_c, 1, 71, 112
3, 15528, Note_off_c, 1, 71, 100
3, 15552, Note_on_c, 1, 64, 112
3, 15596, Note_off_c, 1, 64, 100
3, 15648, Note_on_c, 1, 74, 112
3, 15720, Note_off_c, 1, 74, 100
3, 15744, Note_on_c, 1, 66, 112
3, 15788, Note_off_c, 1, 66, 100
3, 15840, Note_on_c, 1, 74, 112
3, 15912, Note_off_c, 1, 74, 100
3, 15936, Note_on_c, 1, 67, 112
3, 15980, Note_off_c, 1, 67, 100
3, 16032, Note_on_c, 1, 74, 112
3, 16104, Note_off_c, 1, 74, 100
3, 16128, Note_on_c, 1, 69, 112
3, 16172, Note_off_c, 1, 69, 100
3, 16224, Note_on_c, 1, 74, 112
3, 16316, Note_off_c, 1, 74, 100
3, 16320, Note_on_c, 1, 73, 112
3, 16412, Note_off_c, 1, 73, 100
3, 16416, Note_on_c, 1, 71, 112
3, 16508, Note_off_c, 1, 71, 100
3, 16512, Note_on_c, 1, 73, 112
3, 16584, Note_off_c, 1, 73, 100
3, 16608, Note_on_c, 1, 76, 112
3, 16680, Note_off_c, 1, 76, 100
3, 16704, Note_on_c, 1, 69, 112
3, 16748, Note_off_c, 1, 69, 100
3, 16800, Note_on_c, 1, 73, 112
3, 16872, Note_off_c, 1, 73, 100
3, 16896, Note_on_c, 1, 64, 112
3, 16940, Note_off_c, 1, 64, 100
3, 16992, Note_on_c, 1, 67, 112
3, 17084, Note_off_c, 1, 67, 100
3, 17088, Note_on_c, 1, 66, 112
3, 17180, Note_off_c, 1, 66, 100
3, 17184, Note_on_c, 1, 64, 112
3, 17276, Note_off_c, 1, 64, 100
3, 17280, Note_on_c, 1, 66, 112
3, 17324, Note_off_c, 1, 66, 100
3, 17376, Note_on_c, 1, 69, 112
3, 17448, Note_off_c, 1, 69, 100
3, 17472, Note_on_c, 1, 62, 112
3, 17544, Note_off_c, 1, 62, 100
3, 17568, Note_on_c, 1, 66, 112
3, 17640, Note_off_c, 1, 66, 100
3, 17664, Note_on_c, 1, 57, 112
3, 17708, Note_off_c, 1, 57, 100
3, 17760, Note_on_c, 1, 62, 112
3, 17832, Note_off_c, 1, 62, 100
3, 17856, Note_on_c, 1, 54, 112
3, 17900, Note_off_c, 1, 54, 100
3, 17952, Note_on_c, 1, 57, 112
3, 18024, Note_off_c, 1, 57, 100
3, 18048, Note_on_c, 1, 50, 112
3, 18304, Note_off_c, 1, 50, 100
3, 18432, Note_on_c, 1, 55, 112
3, 18492, Note_off_c, 1, 55, 100
3, 18816, Note_on_c, 1, 71, 112
3, 18876, Note_off_c, 1, 71, 100
3, 19200, Note_on_c, 1, 55, 112
3, 19244, Note_off_c, 1, 55, 100
3, 19248, Note_on_c, 1, 54, 112
3, 19292, Note_off_c, 1, 54, 100
3, 19296, Note_on_c, 1, 55, 112
3, 19580, Note_off_c, 1, 55, 100
3, 19584, Note_on_c, 1, 54, 112
3, 19644, Note_off_c, 1, 54, 100
3, 19968, Note_on_c, 1, 69, 112
3, 20028, Note_off_c, 1, 69, 100
3, 20352, Note_on_c, 1, 54, 112
3, 20396, Note_off_c, 1, 54, 100
3, 20400, Note_on_c, 1, 52, 112
3, 20444, Note_off_c, 1, 52, 100
3, 20448, Note_on_c, 1, 54, 112
3, 20732, Note_off_c, 1, 54, 100
3, 20736, Note_on_c, 1, 52, 112
3, 20796, Note_off_c, 1, 52, 100
3, 21120, Note_on_c, 1, 67, 112
3, 21180, Note_off_c, 1, 67, 100
3, 21504, Note_on_c, 1, 52, 112
3, 21548, Note_off_c, 1, 52, 100
3, 21552, Note_on_c, 1, 50, 112
3, 21596, Note_off_c, 1, 50, 100
3, 21600, Note_on_c, 1, 52, 112
3, 21884, Note_off_c, 1, 52, 100
3, 21888, Note_on_c, 1, 50, 112
3, 21948, Note_off_c, 1, 50, 100
3, 22272, Note_on_c, 1, 66, 112
3, 22332, Note_off_c, 1, 66, 100
3, 22656, Note_on_c, 1, 50, 112
3, 22716, Note_off_c, 1, 50, 100
3, 22848, Note_on_c, 1, 50, 112
3, 22892, Note_off_c, 1, 50, 100
3, 22896, Note_on_c, 1, 48, 112
3, 22940, Note_off_c, 1, 48, 100
3, 22944, Note_on_c, 1, 50, 112
3, 22988, Note_off_c, 1, 50, 100
3, 22992, Note_on_c, 1, 48, 112
3, 23036, Note_off_c, 1, 48, 100
3, 23040, Note_on_c, 1, 47, 112
3, 23100, Note_off_c, 1, 47, 100
3, 23424, Note_on_c, 1, 74, 112
3, 23484, Note_off_c, 1, 74, 100
3, 23808, Note_on_c, 1, 47, 112
3, 23852, Note_off_c, 1, 47, 100
3, 23856, Note_on_c, 1, 45, 112
3, 23900, Note_off_c, 1, 45, 100
3, 23904, Note_on_c, 1, 47, 112
3, 24188, Note_off_c, 1, 47, 100
3, 24192, Note_on_c, 1, 64, 112
3, 24192, Note_on_c, 1, 48, 112
3, 24252, Note_off_c, 1, 64, 100
3, 24252, Note_off_c, 1, 48, 100
3, 24384, Note_on_c, 1, 62, 112
3, 24444, Note_off_c, 1, 62, 100
3, 24576, Note_on_c, 1, 60, 112
3, 24576, Note_on_c, 1, 76, 112
3, 24636, Note_off_c, 1, 60, 100
3, 24636, Note_off_c, 1, 76, 100
3, 24768, Note_on_c, 1, 59, 112
3, 24828, Note_off_c, 1, 59, 100
3, 24960, Note_on_c, 1, 48, 112
3, 24960, Note_on_c, 1, 57, 112
3, 25004, Note_off_c, 1, 48, 100
3, 25008, Note_on_c, 1, 47, 112
3, 25020, Note_off_c, 1, 57, 100
3, 25052, Note_off_c, 1, 47, 100
3, 25056, Note_on_c, 1, 48, 112
3, 25152, Note_on_c, 1, 59, 112
3, 25212, Note_off_c, 1, 59, 100
3, 25340, Note_off_c, 1, 48, 100
3, 25344, Note_on_c, 1, 60, 112
3, 25344, Note_on_c, 1, 50, 112
3, 25404, Note_off_c, 1, 60, 100
3, 25404, Note_off_c, 1, 50, 100
3, 25536, Note_on_c, 1, 59, 112
3, 25596, Note_off_c, 1, 59, 100
3, 25728, Note_on_c, 1, 60, 112
3, 25728, Note_on_c, 1, 69, 112
3, 25788, Note_off_c, 1, 60, 100
3, 25788, Note_off_c, 1, 69, 100
3, 25920, Note_on_c, 1, 64, 112
3, 25980, Note_off_c, 1, 64, 100
3, 26112, Note_on_c, 1, 50, 112
3, 26112, Note_on_c, 1, 62, 112
3, 26156, Note_off_c, 1, 50, 100
3, 26160, Note_on_c, 1, 48, 112
3, 26172, Note_off_c, 1, 62, 100
3, 26204, Note_off_c, 1, 48, 100
3, 26208, Note_on_c, 1, 50, 112
3, 26304, Note_on_c, 1, 60, 112
3, 26364, Note_off_c, 1, 60, 100
3, 26492, Note_off_c, 1, 50, 100
3, 26496, Note_on_c, 1, 59, 112
3, 26496, Note_on_c, 1, 43, 112
3, 26556, Note_off_c, 1, 59, 100
3, 26556, Note_off_c, 1, 43, 100
3, 26880, Note_on_c, 1, 71, 112
3, 27136, Note_off_c, 1, 71, 100
3, 27360, Note_on_c, 1, 69, 112
3, 27432, Note_off_c, 1, 69, 100
3, 27456, Note_on_c, 1, 67, 112
3, 27528, Note_off_c, 1, 67, 100
3, 27552, Note_on_c, 1, 66, 112
3, 27624, Note_off_c, 1, 66, 100
3, 27648, Note_on_c, 1, 67, 112
3, 27692, Note_off_c, 1, 67, 100
3, 27744, Note_on_c, 1, 71, 112
3, 27816, Note_off_c, 1, 71, 100
3, 27840, Note_on_c, 1, 73, 112
3, 27912, Note_off_c, 1, 73, 100
3, 27936, Note_on_c, 1, 74, 112
3, 28008, Note_off_c, 1, 74, 100
3, 28032, Note_on_c, 1, 76, 112
3, 28104, Note_off_c, 1, 76, 100
3, 28128, Note_on_c, 1, 78, 112
3, 28200, Note_off_c, 1, 78, 100
3, 28224, Note_on_c, 1, 76, 112
3, 28296, Note_off_c, 1, 76, 100
3, 28320, Note_on_c, 1, 74, 112
3, 28392, Note_off_c, 1, 74, 100
3, 28416, Note_on_c, 1, 73, 112
3, 28488, Note_off_c, 1, 73, 100
3, 28512, Note_on_c, 1, 71, 112
3, 28584, Note_off_c, 1, 71, 100
3, 28608, Note_on_c, 1, 69, 112
3, 28680, Note_off_c, 1, 69, 100
3, 28704, Note_on_c, 1, 67, 112
3, 28776, Note_off_c, 1, 67, 100
3, 28800, Note_on_c, 1, 66, 112
3, 28844, Note_off_c, 1, 66, 100
3, 28896, Note_on_c, 1, 69, 112
3, 28968, Note_off_c, 1, 69, 100
3, 28992, Note_on_c, 1, 71, 112
3, 29064, Note_off_c, 1, 71, 100
3, 29088, Note_on_c, 1, 73, 112
3, 29160, Note_off_c, 1, 73, 100
3, 29184, Note_on_c, 1, 74, 112
3, 29256, Note_off_c, 1, 74, 100
3, 29280, Note_on_c, 1, 76, 112
3, 29352, Note_off_c, 1, 76, 100
3, 29376, Note_on_c, 1, 74, 112
3, 29448, Note_off_c, 1, 74, 100
3, 29472, Note_on_c, 1, 73, 112
3, 29544, Note_off_c, 1, 73, 100
3, 29568, Note_on_c, 1, 71, 112
3, 29640, Note_off_c, 1, 71, 100
3, 29664, Note_on_c, 1, 69, 112
3, 29736, Note_off_c, 1, 69, 100
3, 29760, Note_on_c, 1, 67, 112
3, 29832, Note_off_c, 1, 67, 100
3, 29856, Note_on_c, 1, 66, 112
3, 29928, Note_off_c, 1, 66, 100
3, 29952, Note_on_c, 1, 64, 112
3, 30012, Note_off_c, 1, 64, 100
3, 30144, Note_on_c, 1, 66, 112
3, 30204, Note_off_c, 1, 66, 100
3, 30336, Note_on_c, 1, 67, 112
3, 30396, Note_off_c, 1, 67, 100
3, 30528, Note_on_c, 1, 71, 112
3, 30588, Note_off_c, 1, 71, 100
3, 30720, Note_on_c, 1, 76, 112
3, 30764, Note_off_c, 1, 76, 100
3, 30768, Note_on_c, 1, 74, 112
3, 30812, Note_off_c, 1, 74, 100
3, 30816, Note_on_c, 1, 76, 112
3, 31292, Note_off_c, 1, 76, 100
3, 31296, Note_on_c, 1, 74, 112
3, 31356, Note_off_c, 1, 74, 100
3, 31488, Note_on_c, 1, 73, 112
3, 31532, Note_off_c, 1, 73, 100
3, 31584, Note_on_c, 1, 76, 112
3, 31656, Note_off_c, 1, 76, 100
3, 31680, Note_on_c, 1, 71, 112
3, 31724, Note_off_c, 1, 71, 100
3, 31776, Note_on_c, 1, 76, 112
3, 31848, Note_off_c, 1, 76, 100
3, 31872, Note_on_c, 1, 69, 112
3, 31916, Note_off_c, 1, 69, 100
3, 31968, Note_on_c, 1, 76, 112
3, 32040, Note_off_c, 1, 76, 100
3, 32064, Note_on_c, 1, 67, 112
3, 32108, Note_off_c, 1, 67, 100
3, 32160, Note_on_c, 1, 76, 112
3, 32232, Note_off_c, 1, 76, 100
3, 32256, Note_on_c, 1, 66, 112
3, 32300, Note_off_c, 1, 66, 100
3, 32352, Note_on_c, 1, 76, 112
3, 32444, Note_off_c, 1, 76, 100
3, 32448, Note_on_c, 1, 74, 112
3, 32540, Note_off_c, 1, 74, 100
3, 32544, Note_on_c, 1, 73, 112
3, 32636, Note_off_c, 1, 73, 100
3, 32640, Note_on_c, 1, 74, 112
3, 32712, Note_off_c, 1, 74, 100
3, 32736, Note_on_c, 1, 69, 112
3, 32808, Note_off_c, 1, 69, 100
3, 32832, Note_on_c, 1, 62, 112
3, 32876, Note_off_c, 1, 62, 100
3, 32928, Note_on_c, 1, 74, 112
3, 33000, Note_off_c, 1, 74, 100
3, 33024, Note_on_c, 1, 64, 112
3, 33068, Note_off_c, 1, 64, 100
3, 33120, Note_on_c, 1, 74, 112
3, 33192, Note_off_c, 1, 74, 100
3, 33216, Note_on_c, 1, 66, 112
3, 33260, Note_off_c, 1, 66, 100
3, 33312, Note_on_c, 1, 74, 112
3, 33384, Note_off_c, 1, 74, 100
3, 33408, Note_on_c, 1, 67, 112
3, 33452, Note_off_c, 1, 67, 100
3, 33504, Note_on_c, 1, 76, 112
3, 33596, Note_off_c, 1, 76, 100
3, 33600, Note_on_c, 1, 74, 112
3, 33692, Note_off_c, 1, 74, 100
3, 33696, Note_on_c, 1, 73, 112
3, 33788, Note_off_c, 1, 73, 100
3, 33792, Note_on_c, 1, 74, 112
3, 33864, Note_off_c, 1, 74, 100
3, 33888, Note_on_c, 1, 71, 112
3, 33960, Note_off_c, 1, 71, 100
3, 33984, Note_on_c, 1, 64, 112
3, 34028, Note_off_c, 1, 64, 100
3, 34080, Note_on_c, 1, 74, 112
3, 34152, Note_off_c, 1, 74, 100
3, 34176, Note_on_c, 1, 66, 112
3, 34220, Note_off_c, 1, 66, 100
3, 34272, Note_on_c, 1, 74, 112
3, 34344, Note_off_c, 1, 74, 100
3, 34368, Note_on_c, 1, 67, 112
3, 34412, Note_off_c, 1, 67, 100
3, 34464, Note_on_c, 1, 74, 112
3, 34536, Note_off_c, 1, 74, 100
3, 34560, Note_on_c, 1, 69, 112
3, 34604, Note_off_c, 1, 69, 100
3, 34656, Note_on_c, 1, 74, 112
3, 34748, Note_off_c, 1, 74, 100
3, 34752, Note_on_c, 1, 73, 112
3, 34844, Note_off_c, 1, 73, 100
3, 34848, Note_on_c, 1, 71, 112
3, 34940, Note_off_c, 1, 71, 100
3, 34944, Note_on_c, 1, 73, 112
3, 35016, Note_off_c, 1, 73, 100
3, 35040, Note_on_c, 1, 76, 112
3, 35112, Note_off_c, 1, 76, 100
3, 35136, Note_on_c, 1, 69, 112
3, 35180, Note_off_c, 1, 69, 100
3, 35232, Note_on_c, 1, 73, 112
3, 35304, Note_off_c, 1, 73, 100
3, 35328, Note_on_c, 1, 64, 112
3, 35372, Note_off_c, 1, 64, 100
3, 35424, Note_on_c, 1, 67, 112
3, 35516, Note_off_c, 1, 67, 100
3, 35520, Note_on_c, 1, 66, 112
3, 35612, Note_off_c, 1, 66, 100
3, 35616, Note_on_c, 1, 64, 112
3, 35708, Note_off_c, 1, 64, 100
3, 35712, Note_on_c, 1, 66, 112
3, 35756, Note_off_c, 1, 66, 100
3, 35808, Note_on_c, 1, 69, 112
3, 35880, Note_off_c, 1, 69, 100
3, 35904, Note_on_c, 1, 62, 112
3, 35976, Note_off_c, 1, 62, 100
3, 36000, Note_on_c, 1, 66, 112
3, 36072, Note_off_c, 1, 66, 100
3, 36096, Note_on_c, 1, 57, 112
3, 36140, Note_off_c, 1, 57, 100
3, 36192, Note_on_c, 1, 62, 112
3, 36264, Note_off_c, 1, 62, 100
3, 36288, Note_on_c, 1, 54, 112
3, 36332, Note_off_c, 1, 54, 100
3, 36384, Note_on_c, 1, 57, 112
3, 36456, Note_off_c, 1, 57, 100
3, 36480, Note_on_c, 1, 50, 112
3, 36736, Note_off_c, 1, 50, 100
3, 36960, Note_on_c, 1, 74, 112
3, 37032, Note_off_c, 1, 74, 100
3, 37056, Note_on_c, 1, 72, 112
3, 37128, Note_off_c, 1, 72, 100
3, 37152, Note_on_c, 1, 71, 112
3, 37224, Note_off_c, 1, 71, 100
3, 37248, Note_on_c, 1, 69, 112
3, 37320, Note_off_c, 1, 69, 100
3, 37344, Note_on_c, 1, 67, 112
3, 37416, Note_off_c, 1, 67, 100
3, 37440, Note_on_c, 1, 66, 112
3, 37512, Note_off_c, 1, 66, 100
3, 37536, Note_on_c, 1, 64, 112
3, 37608, Note_off_c, 1, 64, 100
3, 37632, Note_on_c, 1, 62, 112
3, 37704, Note_off_c, 1, 62, 100
3, 37728, Note_on_c, 1, 72, 112
3, 37800, Note_off_c, 1, 72, 100
3, 37824, Note_on_c, 1, 71, 112
3, 37896, Note_off_c, 1, 71, 100
3, 37920, Note_on_c, 1, 69, 112
3, 37992, Note_off_c, 1, 69, 100
3, 38016, Note_on_c, 1, 71, 112
3, 38088, Note_off_c, 1, 71, 100
3, 38112, Note_on_c, 1, 67, 112
3, 38184, Note_off_c, 1, 67, 100
3, 38208, Note_on_c, 1, 66, 112
3, 38280, Note_off_c, 1, 66, 100
3, 38304, Note_on_c, 1, 64, 112
3, 38376, Note_off_c, 1, 64, 100
3, 38400, Note_on_c, 1, 62, 112
3, 38472, Note_off_c, 1, 62, 100
3, 38496, Note_on_c, 1, 60, 112
3, 38568, Note_off_c, 1, 60, 100
3, 38592, Note_on_c, 1, 59, 112
3, 38664, Note_off_c, 1, 59, 100
3, 38688, Note_on_c, 1, 57, 112
3, 38760, Note_off_c, 1, 57, 100
3, 38784, Note_on_c, 1, 55, 112
3, 38828, Note_off_c, 1, 55, 100
3, 38880, Note_on_c, 1, 67, 112
3, 38952, Note_off_c, 1, 67, 100
3, 38976, Note_on_c, 1, 69, 112
3, 39048, Note_off_c, 1, 69, 100
3, 39072, Note_on_c, 1, 71, 112
3, 39144, Note_off_c, 1, 71, 100
3, 39168, Note_on_c, 1, 72, 112
3, 39240, Note_off_c, 1, 72, 100
3, 39264, Note_on_c, 1, 74, 112
3, 39336, Note_off_c, 1, 74, 100
3, 39360, Note_on_c, 1, 76, 112
3, 39432, Note_off_c, 1, 76, 100
3, 39456, Note_on_c, 1, 74, 112
3, 39528, Note_off_c, 1, 74, 100
3, 39552, Note_on_c, 1, 72, 112
3, 39624, Note_off_c, 1, 72, 100
3, 39648, Note_on_c, 1, 71, 112
3, 39720, Note_off_c, 1, 71, 100
3, 39744, Note_on_c, 1, 69, 112
3, 39816, Note_off_c, 1, 69, 100
3, 39840, Note_on_c, 1, 67, 112
3, 39912, Note_off_c, 1, 67, 100
3, 39936, Note_on_c, 1, 69, 112
3, 40008, Note_off_c, 1, 69, 100
3, 40032, Note_on_c, 1, 71, 112
3, 40104, Note_off_c, 1, 71, 100
3, 40128, Note_on_c, 1, 72, 112
3, 40200, Note_off_c, 1, 72, 100
3, 40224, Note_on_c, 1, 69, 112
3, 40296, Note_off_c, 1, 69, 100
3, 40320, Note_on_c, 1, 71, 112
3, 40392, Note_off_c, 1, 71, 100
3, 40416, Note_on_c, 1, 69, 112
3, 40488, Note_off_c, 1, 69, 100
3, 40512, Note_on_c, 1, 71, 112
3, 40584, Note_off_c, 1, 71, 100
3, 40608, Note_on_c, 1, 66, 112
3, 40680, Note_off_c, 1, 66, 100
3, 40704, Note_on_c, 1, 59, 112
3, 40776, Note_off_c, 1, 59, 100
3, 40800, Note_on_c, 1, 61, 112
3, 40872, Note_off_c, 1, 61, 100
3, 40896, Note_on_c, 1, 63, 112
3, 40968, Note_off_c, 1, 63, 100
3, 40992, Note_on_c, 1, 64, 112
3, 41064, Note_off_c, 1, 64, 100
3, 41088, Note_on_c, 1, 66, 112
3, 41160, Note_off_c, 1, 66, 100
3, 41184, Note_on_c, 1, 67, 112
3, 41256, Note_off_c, 1, 67, 100
3, 41280, Note_on_c, 1, 69, 112
3, 41352, Note_off_c, 1, 69, 100
3, 41376, Note_on_c, 1, 66, 112
3, 41448, Note_off_c, 1, 66, 100
3, 41472, Note_on_c, 1, 67, 112
3, 41544, Note_off_c, 1, 67, 100
3, 41568, Note_on_c, 1, 71, 112
3, 41640, Note_off_c, 1, 71, 100
3, 41664, Note_on_c, 1, 67, 112
3, 41736, Note_off_c, 1, 67, 100
3, 41760, Note_on_c, 1, 64, 112
3, 41832, Note_off_c, 1, 64, 100
3, 41856, Note_on_c, 1, 67, 112
3, 41928, Note_off_c, 1, 67, 100
3, 41952, Note_on_c, 1, 71, 112
3, 42024, Note_off_c, 1, 71, 100
3, 42048, Note_on_c, 1, 67, 112
3, 42120, Note_off_c, 1, 67, 100
3, 42144, Note_on_c, 1, 64, 112
3, 42216, Note_off_c, 1, 64, 100
3, 42240, Note_on_c, 1, 67, 112
3, 42312, Note_off_c, 1, 67, 100
3, 42336, Note_on_c, 1, 71, 112
3, 42408, Note_off_c, 1, 71, 100
3, 42432, Note_on_c, 1, 67, 112
3, 42504, Note_off_c, 1, 67, 100
3, 42528, Note_on_c, 1, 64, 112
3, 42600, Note_off_c, 1, 64, 100
3, 42624, Note_on_c, 1, 69, 112
3, 42708, Note_off_c, 1, 69, 100
3, 42720, Note_on_c, 1, 72, 112
3, 42792, Note_off_c, 1, 72, 100
3, 42816, Note_on_c, 1, 69, 112
3, 42888, Note_off_c, 1, 69, 100
3, 42912, Note_on_c, 1, 64, 112
3, 42984, Note_off_c, 1, 64, 100
3, 43008, Note_on_c, 1, 67, 112
3, 43092, Note_off_c, 1, 67, 100
3, 43104, Note_on_c, 1, 72, 112
3, 43176, Note_off_c, 1, 72, 100
3, 43200, Note_on_c, 1, 67, 112
3, 43272, Note_off_c, 1, 67, 100
3, 43296, Note_on_c, 1, 64, 112
3, 43368, Note_off_c, 1, 64, 100
3, 43392, Note_on_c, 1, 66, 112
3, 43476, Note_off_c, 1, 66, 100
3, 43488, Note_on_c, 1, 72, 112
3, 43560, Note_off_c, 1, 72, 100
3, 43584, Note_on_c, 1, 66, 112
3, 43656, Note_off_c, 1, 66, 100
3, 43680, Note_on_c, 1, 64, 112
3, 43752, Note_off_c, 1, 64, 100
3, 43776, Note_on_c, 1, 67, 112
3, 43860, Note_off_c, 1, 67, 100
3, 43872, Note_on_c, 1, 71, 112
3, 43944, Note_off_c, 1, 71, 100
3, 43968, Note_on_c, 1, 67, 112
3, 44040, Note_off_c, 1, 67, 100
3, 44064, Note_on_c, 1, 64, 112
3, 44136, Note_off_c, 1, 64, 100
3, 44160, Note_on_c, 1, 59, 112
3, 44232, Note_off_c, 1, 59, 100
3, 44256, Note_on_c, 1, 71, 112
3, 44328, Note_off_c, 1, 71, 100
3, 44352, Note_on_c, 1, 69, 112
3, 44424, Note_off_c, 1, 69, 100
3, 44448, Note_on_c, 1, 71, 112
3, 44520, Note_off_c, 1, 71, 100
3, 44544, Note_on_c, 1, 67, 112
3, 44616, Note_off_c, 1, 67, 100
3, 44640, Note_on_c, 1, 71, 112
3, 44712, Note_off_c, 1, 71, 100
3, 44736, Note_on_c, 1, 66, 112
3, 44808, Note_off_c, 1, 66, 100
3, 44832, Note_on_c, 1, 71, 112
3, 44904, Note_off_c, 1, 71, 100
3, 44928, Note_on_c, 1, 67, 112
3, 44972, Note_off_c, 1, 67, 100
3, 45024, Note_on_c, 1, 64, 112
3, 45096, Note_off_c, 1, 64, 100
3, 45120, Note_on_c, 1, 67, 112
3, 45192, Note_off_c, 1, 67, 100
3, 45216, Note_on_c, 1, 71, 112
3, 45288, Note_off_c, 1, 71, 100
3, 45312, Note_on_c, 1, 76, 112
3, 45384, Note_off_c, 1, 76, 100
3, 45408, Note_on_c, 1, 71, 112
3, 45480, Note_off_c, 1, 71, 100
3, 45504, Note_on_c, 1, 67, 112
3, 45576, Note_off_c, 1, 67, 100
3, 45600, Note_on_c, 1, 71, 112
3, 45672, Note_off_c, 1, 71, 100
3, 45696, Note_on_c, 1, 64, 112
3, 45884, Note_off_c, 1, 64, 100
3, 46080, Note_on_c, 1, 64, 112
3, 46140, Note_off_c, 1, 64, 100
3, 46464, Note_on_c, 1, 48, 112
3, 46524, Note_off_c, 1, 48, 100
3, 46848, Note_on_c, 1, 64, 112
3, 47228, Note_off_c, 1, 64, 100
3, 47232, Note_on_c, 1, 62, 112
3, 47292, Note_off_c, 1, 62, 100
3, 47616, Note_on_c, 1, 47, 112
3, 47676, Note_off_c, 1, 47, 100
3, 48000, Note_on_c, 1, 62, 112
3, 48380, Note_off_c, 1, 62, 100
3, 48384, Note_on_c, 1, 60, 112
3, 48444, Note_off_c, 1, 60, 100
3, 48576, Note_on_c, 1, 59, 112
3, 48636, Note_off_c, 1, 59, 100
3, 48768, Note_on_c, 1, 57, 112
3, 48828, Note_off_c, 1, 57, 100
3, 48960, Note_on_c, 1, 55, 112
3, 49020, Note_off_c, 1, 55, 100
3, 49152, Note_on_c, 1, 54, 112
3, 49212, Note_off_c, 1, 54, 100
3, 49344, Note_on_c, 1, 52, 112
3, 49404, Note_off_c, 1, 52, 100
3, 49536, Note_on_c, 1, 54, 112
3, 49596, Note_off_c, 1, 54, 100
3, 49728, Note_on_c, 1, 55, 112
3, 49820, Note_off_c, 1, 55, 100
3, 49824, Note_on_c, 1, 57, 112
3, 49916, Note_off_c, 1, 57, 100
3, 49920, Note_on_c, 1, 50, 112
3, 50300, Note_off_c, 1, 50, 100
3, 50400, Note_on_c, 1, 60, 112
3, 50472, Note_off_c, 1, 60, 100
3, 50496, Note_on_c, 1, 59, 112
3, 50568, Note_off_c, 1, 59, 100
3, 50592, Note_on_c, 1, 57, 112
3, 50664, Note_off_c, 1, 57, 100
3, 50688, Note_on_c, 1, 59, 112
3, 50760, Note_off_c, 1, 59, 100
3, 50784, Note_on_c, 1, 55, 112
3, 50856, Note_off_c, 1, 55, 100
3, 50880, Note_on_c, 1, 54, 112
3, 50952, Note_off_c, 1, 54, 100
3, 50976, Note_on_c, 1, 55, 112
3, 51048, Note_off_c, 1, 55, 100
3, 51072, Note_on_c, 1, 57, 112
3, 51144, Note_off_c, 1, 57, 100
3, 51168, Note_on_c, 1, 55, 112
3, 51240, Note_off_c, 1, 55, 100
3, 51264, Note_on_c, 1, 59, 112
3, 51308, Note_off_c, 1, 59, 100
3, 51360, Note_on_c, 1, 55, 112
3, 51432, Note_off_c, 1, 55, 100
3, 51456, Note_on_c, 1, 60, 112
3, 51500, Note_off_c, 1, 60, 100
3, 51552, Note_on_c, 1, 55, 112
3, 51624, Note_off_c, 1, 55, 100
3, 51648, Note_on_c, 1, 62, 112
3, 51692, Note_off_c, 1, 62, 100
3, 51744, Note_on_c, 1, 55, 112
3, 51816, Note_off_c, 1, 55, 100
3, 51840, Note_on_c, 1, 64, 112
3, 51900, Note_off_c, 1, 64, 100
3, 52032, Note_on_c, 1, 55, 112
3, 52092, Note_off_c, 1, 55, 100
3, 52416, Note_on_c, 1, 59, 112
3, 52476, Note_off_c, 1, 59, 100
3, 52608, Note_on_c, 1, 57, 112
3, 52668, Note_off_c, 1, 57, 100
3, 52800, Note_on_c, 1, 55, 112
3, 52860, Note_off_c, 1, 55, 100
3, 52992, Note_on_c, 1, 54, 112
3, 53036, Note_off_c, 1, 54, 100
3, 53088, Note_on_c, 1, 62, 112
3, 53160, Note_off_c, 1, 62, 100
3, 53184, Note_on_c, 1, 64, 112
3, 53256, Note_off_c, 1, 64, 100
3, 53280, Note_on_c, 1, 66, 112
3, 53352, Note_off_c, 1, 66, 100
3, 53376, Note_on_c, 1, 67, 112
3, 53448, Note_off_c, 1, 67, 100
3, 53472, Note_on_c, 1, 62, 112
3, 53544, Note_off_c, 1, 62, 100
3, 53568, Note_on_c, 1, 59, 112
3, 53640, Note_off_c, 1, 59, 100
3, 53664, Note_on_c, 1, 55, 112
3, 53736, Note_off_c, 1, 55, 100
3, 53760, Note_on_c, 1, 57, 112
3, 53832, Note_off_c, 1, 57, 100
3, 53856, Note_on_c, 1, 60, 112
3, 53928, Note_off_c, 1, 60, 100
3, 53952, Note_on_c, 1, 67, 112
3, 54024, Note_off_c, 1, 67, 100
3, 54048, Note_on_c, 1, 66, 112
3, 54120, Note_off_c, 1, 66, 100
3, 54144, Note_on_c, 1, 67, 112
3, 54204, Note_off_c, 1, 67, 100
3, 54336, Note_on_c, 1, 55, 112
3, 54396, Note_off_c, 1, 55, 100
3, 54528, Note_on_c, 1, 50, 112
3, 54588, Note_off_c, 1, 50, 100
3, 54720, Note_on_c, 1, 47, 112
3, 54780, Note_off_c, 1, 47, 100
3, 54912, Note_on_c, 1, 43, 112
3, 55168, Note_off_c, 1, 43, 100
3, 55392, Note_on_c, 1, 74, 112
3, 55464, Note_off_c, 1, 74, 100
3, 55488, Note_on_c, 1, 72, 112
3, 55560, Note_off_c, 1, 72, 100
3, 55584, Note_on_c, 1, 71, 112
3, 55656, Note_off_c, 1, 71, 100
3, 55680, Note_on_c, 1, 69, 112
3, 55752, Note_off_c, 1, 69, 100
3, 55776, Note_on_c, 1, 67, 112
3, 55848, Note_off_c, 1, 67, 100
3, 55872, Note_on_c, 1, 66, 112
3, 55944, Note_off_c, 1, 66, 100
3, 55968, Note_on_c, 1, 64, 112
3, 56040, Note_off_c, 1, 64, 100
3, 56064, Note_on_c, 1, 62, 112
3, 56136, Note_off_c, 1, 62, 100
3, 56160, Note_on_c, 1, 72, 112
3, 56232, Note_off_c, 1, 72, 100
3, 56256, Note_on_c, 1, 71, 112
3, 56328, Note_off_c, 1, 71, 100
3, 56352, Note_on_c, 1, 69, 112
3, 56424, Note_off_c, 1, 69, 100
3, 56448, Note_on_c, 1, 71, 112
3, 56520, Note_off_c, 1, 71, 100
3, 56544, Note_on_c, 1, 67, 112
3, 56616, Note_off_c, 1, 67, 100
3, 56640, Note_on_c, 1, 66, 112
3, 56712, Note_off_c, 1, 66, 100
3, 56736, Note_on_c, 1, 64, 112
3, 56808, Note_off_c, 1, 64, 100
3, 56832, Note_on_c, 1, 62, 112
3, 56904, Note_off_c, 1, 62, 100
3, 56928, Note_on_c, 1, 60, 112
3, 57000, Note_off_c, 1, 60, 100
3, 57024, Note_on_c, 1, 59, 112
3, 57096, Note_off_c, 1, 59, 100
3, 57120, Note_on_c, 1, 57, 112
3, 57192, Note_off_c, 1, 57, 100
3, 57216, Note_on_c, 1, 55, 112
3, 57260, Note_off_c, 1, 55, 100
3, 57312, Note_on_c, 1, 67, 112
3, 57384, Note_off_c, 1, 67, 100
3, 57408, Note_on_c, 1, 69, 112
3, 57480, Note_off_c, 1, 69, 100
3, 57504, Note_on_c, 1, 71, 112
3, 57576, Note_off_c, 1, 71, 100
3, 57600, Note_on_c, 1, 72, 112
3, 57672, Note_off_c, 1, 72, 100
3, 57696, Note_on_c, 1, 74, 112
3, 57768, Note_off_c, 1, 74, 100
3, 57792, Note_on_c, 1, 76, 112
3, 57864, Note_off_c, 1, 76, 100
3, 57888, Note_on_c, 1, 74, 112
3, 57960, Note_off_c, 1, 74, 100
3, 57984, Note_on_c, 1, 72, 112
3, 58056, Note_off_c, 1, 72, 100
3, 58080, Note_on_c, 1, 71, 112
3, 58152, Note_off_c, 1, 71, 100
3, 58176, Note_on_c, 1, 69, 112
3, 58248, Note_off_c, 1, 69, 100
3, 58272, Note_on_c, 1, 67, 112
3, 58344, Note_off_c, 1, 67, 100
3, 58368, Note_on_c, 1, 69, 112
3, 58440, Note_off_c, 1, 69, 100
3, 58464, Note_on_c, 1, 71, 112
3, 58536, Note_off_c, 1, 71, 100
3, 58560, Note_on_c, 1, 72, 112
3, 58632, Note_off_c, 1, 72, 100
3, 58656, Note_on_c, 1, 69, 112
3, 58728, Note_off_c, 1, 69, 100
3, 58752, Note_on_c, 1, 71, 112
3, 58824, Note_off_c, 1, 71, 100
3, 58848, Note_on_c, 1, 69, 112
3, 58920, Note_off_c, 1, 69, 100
3, 58944, Note_on_c, 1, 71, 112
3, 59016, Note_off_c, 1, 71, 100
3, 59040, Note_on_c, 1, 66, 112
3, 59112, Note_off_c, 1, 66, 100
3, 59136, Note_on_c, 1, 59, 112
3, 59208, Note_off_c, 1, 59, 100
3, 59232, Note_on_c, 1, 61, 112
3, 59304, Note_off_c, 1, 61, 100
3, 59328, Note_on_c, 1, 63, 112
3, 59400, Note_off_c, 1, 63, 100
3, 59424, Note_on_c, 1, 64, 112
3, 59496, Note_off_c, 1, 64, 100
3, 59520, Note_on_c, 1, 66, 112
3, 59592, Note_off_c, 1, 66, 100
3, 59616, Note_on_c, 1, 67, 112
3, 59688, Note_off_c, 1, 67, 100
3, 59712, Note_on_c, 1, 69, 112
3, 59784, Note_off_c, 1, 69, 100
3, 59808, Note_on_c, 1, 66, 112
3, 59880, Note_off_c, 1, 66, 100
3, 59904, Note_on_c, 1, 67, 112
3, 59976, Note_off_c, 1, 67, 100
3, 60000, Note_on_c, 1, 71, 112
3, 60072, Note_off_c, 1, 71, 100
3, 60096, Note_on_c, 1, 67, 112
3, 60168, Note_off_c, 1, 67, 100
3, 60192, Note_on_c, 1, 64, 112
3, 60264, Note_off_c, 1, 64, 100
3, 60288, Note_on_c, 1, 67, 112
3, 60360, Note_off_c, 1, 67, 100
3, 60384, Note_on_c, 1, 71, 112
3, 60456, Note_off_c, 1, 71, 100
3, 60480, Note_on_c, 1, 67, 112
3, 60552, Note_off_c, 1, 67, 100
3, 60576, Note_on_c, 1, 64, 112
3, 60648, Note_off_c, 1, 64, 100
3, 60672, Note_on_c, 1, 67, 112
3, 60744, Note_off_c, 1, 67, 100
3, 60768, Note_on_c, 1, 71, 112
3, 60840, Note_off_c, 1, 71, 100
3, 60864, Note_on_c, 1, 67, 112
3, 60936, Note_off_c, 1, 67, 100
3, 60960, Note_on_c, 1, 64, 112
3, 61032, Note_off_c, 1, 64, 100
3, 61056, Note_on_c, 1, 69, 112
3, 61140, Note_off_c, 1, 69, 100
3, 61152, Note_on_c, 1, 72, 112
3, 61224, Note_off_c, 1, 72, 100
3, 61248, Note_on_c, 1, 69, 112
3, 61320, Note_off_c, 1, 69, 100
3, 61344, Note_on_c, 1, 64, 112
3, 61416, Note_off_c, 1, 64, 100
3, 61440, Note_on_c, 1, 67, 112
3, 61524, Note_off_c, 1, 67, 100
3, 61536, Note_on_c, 1, 72, 112
3, 61608, Note_off_c, 1, 72, 100
3, 61632, Note_on_c, 1, 67, 112
3, 61704, Note_off_c, 1, 67, 100
3, 61728, Note_on_c, 1, 64, 112
3, 61800, Note_off_c, 1, 64, 100
3, 61824, Note_on_c, 1, 66, 112
3, 61908, Note_off_c, 1, 66, 100
3, 61920, Note_on_c, 1, 72, 112
3, 61992, Note_off_c, 1, 72, 100
3, 62016, Note_on_c, 1, 66, 112
3, 62088, Note_off_c, 1, 66, 100
3, 62112, Note_on_c, 1, 64, 112
3, 62184, Note_off_c, 1, 64, 100
3, 62208, Note_on_c, 1, 67, 112
3, 62292, Note_off_c, 1, 67, 100
3, 62304, Note_on_c, 1, 71, 112
3, 62376, Note_off_c, 1, 71, 100
3, 62400, Note_on_c, 1, 67, 112
3, 62472, Note_off_c, 1, 67, 100
3, 62496, Note_on_c, 1, 64, 112
3, 62568, Note_off_c, 1, 64, 100
3, 62592, Note_on_c, 1, 59, 112
3, 62664, Note_off_c, 1, 59, 100
3, 62688, Note_on_c, 1, 71, 112
3, 62760, Note_off_c, 1, 71, 100
3, 62784, Note_on_c, 1, 69, 112
3, 62856, Note_off_c, 1, 69, 100
3, 62880, Note_on_c, 1, 71, 112
3, 62952, Note_off_c, 1, 71, 100
3, 62976, Note_on_c, 1, 67, 112
3, 63048, Note_off_c, 1, 67, 100
3, 63072, Note_on_c, 1, 71, 112
3, 63144, Note_off_c, 1, 71, 100
3, 63168, Note_on_c, 1, 66, 112
3, 63240, Note_off_c, 1, 66, 100
3, 63264, Note_on_c, 1, 71, 112
3, 63336, Note_off_c, 1, 71, 100
3, 63360, Note_on_c, 1, 67, 112
3, 63404, Note_off_c, 1, 67, 100
3, 63456, Note_on_c, 1, 64, 112
3, 63528, Note_off_c, 1, 64, 100
3, 63552, Note_on_c, 1, 67, 112
3, 63624, Note_off_c, 1, 67, 100
3, 63648, Note_on_c, 1, 71, 112
3, 63720, Note_off_c, 1, 71, 100
3, 63744, Note_on_c, 1, 76, 112
3, 63816, Note_off_c, 1, 76, 100
3, 63840, Note_on_c, 1, 71, 112
3, 63912, Note_off_c, 1, 71, 100
3, 63936, Note_on_c, 1, 67, 112
3, 64008, Note_off_c, 1, 67, 100
3, 64032, Note_on_c, 1, 71, 112
3, 64104, Note_off_c, 1, 71, 100
3, 64128, Note_on_c, 1, 64, 112
3, 64316, Note_off_c, 1, 64, 100
3, 64512, Note_on_c, 1, 64, 112
3, 64572, Note_off_c, 1, 64, 100
3, 64896, Note_on_c, 1, 48, 112
3, 64956, Note_off_c, 1, 48, 100
3, 65280, Note_on_c, 1, 64, 112
3, 65324, Note_off_c, 1, 64, 100
3, 65328, Note_on_c, 1, 62, 112
3, 65372, Note_off_c, 1, 62, 100
3, 65376, Note_on_c, 1, 64, 112
3, 65660, Note_off_c, 1, 64, 100
3, 65664, Note_on_c, 1, 62, 112
3, 65724, Note_off_c, 1, 62, 100
3, 66048, Note_on_c, 1, 47, 112
3, 66108, Note_off_c, 1, 47, 100
3, 66432, Note_on_c, 1, 62, 112
3, 66476, Note_off_c, 1, 62, 100
3, 66480, Note_on_c, 1, 60, 112
3, 66524, Note_off_c, 1, 60, 100
3, 66528, Note_on_c, 1, 62, 112
3, 66812, Note_off_c, 1, 62, 100
3, 66816, Note_on_c, 1, 60, 112
3, 66876, Note_off_c, 1, 60, 100
3, 67008, Note_on_c, 1, 59, 112
3, 67068, Note_off_c, 1, 59, 100
3, 67200, Note_on_c, 1, 57, 112
3, 67260, Note_off_c, 1, 57, 100
3, 67392, Note_on_c, 1, 55, 112
3, 67452, Note_off_c, 1, 55, 100
3, 67584, Note_on_c, 1, 55, 112
3, 67628, Note_off_c, 1, 55, 100
3, 67632, Note_on_c, 1, 54, 112
3, 67676, Note_off_c, 1, 54, 100
3, 67680, Note_on_c, 1, 55, 112
3, 67724, Note_off_c, 1, 55, 100
3, 67728, Note_on_c, 1, 54, 112
3, 67772, Note_off_c, 1, 54, 100
3, 67776, Note_on_c, 1, 52, 112
3, 67836, Note_off_c, 1, 52, 100
3, 67968, Note_on_c, 1, 54, 112
3, 68028, Note_off_c, 1, 54, 100
3, 68160, Note_on_c, 1, 55, 112
3, 68252, Note_off_c, 1, 55, 100
3, 68256, Note_on_c, 1, 57, 112
3, 68348, Note_off_c, 1, 57, 100
3, 68352, Note_on_c, 1, 50, 112
3, 68732, Note_off_c, 1, 50, 100
3, 68832, Note_on_c, 1, 60, 112
3, 68904, Note_off_c, 1, 60, 100
3, 68928, Note_on_c, 1, 59, 112
3, 69000, Note_off_c, 1, 59, 100
3, 69024, Note_on_c, 1, 57, 112
3, 69096, Note_off_c, 1, 57, 100
3, 69120, Note_on_c, 1, 59, 112
3, 69192, Note_off_c, 1, 59, 100
3, 69216, Note_on_c, 1, 55, 112
3, 69288, Note_off_c, 1, 55, 100
3, 69312, Note_on_c, 1, 54, 112
3, 69384, Note_off_c, 1, 54, 100
3, 69408, Note_on_c, 1, 55, 112
3, 69480, Note_off_c, 1, 55, 100
3, 69504, Note_on_c, 1, 57, 112
3, 69576, Note_off_c, 1, 57, 100
3, 69600, Note_on_c, 1, 55, 112
3, 69672, Note_off_c, 1, 55, 100
3, 69696, Note_on_c, 1, 59, 112
3, 69740, Note_off_c, 1, 59, 100
3, 69792, Note_on_c, 1, 55, 112
3, 69864, Note_off_c, 1, 55, 100
3, 69888, Note_on_c, 1, 60, 112
3, 69932, Note_off_c, 1, 60, 100
3, 69984, Note_on_c, 1, 55, 112
3, 70056, Note_off_c, 1, 55, 100
3, 70080, Note_on_c, 1, 62, 112
3, 70124, Note_off_c, 1, 62, 100
3, 70176, Note_on_c, 1, 55, 112
3, 70248, Note_off_c, 1, 55, 100
3, 70272, Note_on_c, 1, 64, 112
3, 70332, Note_off_c, 1, 64, 100
3, 70464, Note_on_c, 1, 55, 112
3, 70524, Note_off_c, 1, 55, 100
3, 70848, Note_on_c, 1, 59, 112
3, 70908, Note_off_c, 1, 59, 100
3, 71040, Note_on_c, 1, 59, 112
3, 71084, Note_off_c, 1, 59, 100
3, 71088, Note_on_c, 1, 57, 112
3, 71132, Note_off_c, 1, 57, 100
3, 71136, Note_on_c, 1, 59, 112
3, 71180, Note_off_c, 1, 59, 100
3, 71184, Note_on_c, 1, 57, 112
3, 71228, Note_off_c, 1, 57, 100
3, 71232, Note_on_c, 1, 55, 112
3, 71292, Note_off_c, 1, 55, 100
3, 71424, Note_on_c, 1, 54, 112
3, 71468, Note_off_c, 1, 54, 100
3, 71520, Note_on_c, 1, 62, 112
3, 71592, Note_off_c, 1, 62, 100
3, 71616, Note_on_c, 1, 64, 112
3, 71688, Note_off_c, 1, 64, 100
3, 71712, Note_on_c, 1, 66, 112
3, 71784, Note_off_c, 1, 66, 100
3, 71808, Note_on_c, 1, 67, 112
3, 71880, Note_off_c, 1, 67, 100
3, 71904, Note_on_c, 1, 62, 112
3, 71976, Note_off_c, 1, 62, 100
3, 72000, Note_on_c, 1, 59, 112
3, 72072, Note_off_c, 1, 59, 100
3, 72096, Note_on_c, 1, 55, 112
3, 72168, Note_off_c, 1, 55, 100
3, 72192, Note_on_c, 1, 57, 112
3, 72264, Note_off_c, 1, 57, 100
3, 72288, Note_on_c, 1, 60, 112
3, 72360, Note_off_c, 1, 60, 100
3, 72384, Note_on_c, 1, 67, 112
3, 72456, Note_off_c, 1, 67, 100
3, 72480, Note_on_c, 1, 66, 112
3, 72552, Note_off_c, 1, 66, 100
3, 72576, Note_on_c, 1, 67, 112
3, 72636, Note_off_c, 1, 67, 100
3, 72768, Note_on_c, 1, 55, 112
3, 72828, Note_off_c, 1, 55, 100
3, 72960, Note_on_c, 1, 50, 112
3, 73020, Note_off_c, 1, 50, 100
3, 73152, Note_on_c, 1, 47, 112
3, 73212, Note_off_c, 1, 47, 100
3, 73344, Note_on_c, 1, 43, 112
3, 73600, Note_off_c, 1, 43, 100
3, 73600, End_track
4, 0, Start_track
4, 0, Title_t, "BWV 988"
4, 0, Control_c, 2, 0, 0
4, 0, Program_c, 2, 6
4, 0, Control_c, 2, 7, 0
4, 0, Key_signature, 1, "major"
4, 73344, Note_on_c, 2, 43, 1
4, 73968, Note_off_c, 2, 43, 64
4, 73968, End_track
5, 0, Start_track
5, 0, Title_t, "Var.V: Allegro e vigoroso"
5, 0, Control_c, 2, 0, 0
5, 0, Program_c, 2, 6
5, 0, Control_c, 2, 7, 0
5, 0, Key_signature, 1, "major"
5, 0, End_track
6, 0, Start_track
6, 0, Title_t, "Bruno de Giusti"
6, 0, Control_c, 2, 0, 0
6, 0, Program_c, 2, 6
6, 0, Control_c, 2, 7, 0
6, 0, Key_signature, 1, "major"
6, 0, End_track
7, 0, Start_track
7, 0, Title_t, "bdg@bruno-de-giusti.net"
7, 0, Control_c, 2, 0, 0
7, 0, Program_c, 2, 6
7, 0, Control_c, 2, 7, 0
7, 0, Key_signature, 1, "major"
7, 0, End_track
8, 0, Start_track
8, 0, Title_t, "www.bruno-de-giusti.net"
8, 0, Control_c, 2, 0, 0
8, 0, Program_c, 2, 6
8, 0, Control_c, 2, 7, 0
8, 0, Key_signature, 1, "major"
8, 0, End_track
9, 0, Start_track
9, 0, Title_t, "All rights reserved"
9, 0, Control_c, 2, 0, 0
9, 0, Program_c, 2, 6
9, 0, Control_c, 2, 7, 0
9, 0, Key_signature, 1, "major"
9, 0, End_track
10, 0, Start_track
10, 1, Copyright_t, "___________________________________________________\012\012KUNSTDERFUGE.COM LARGE CLASSICAL MIDI COLLECTION\012ONCLASSICAL BY ALESSANDRO SIMONETTO, PROPRIETOR\012___________________________________________________\012\012! Attention: this file is under copyright !\012\012(c)onclassical, (c)degiusti, 2010\012___________________________________________________\012\012NO ONE MAY REPUBLISH THIS FILE WITHOUT PERMISSION\012COMMERCIAL USES OF THIS FILE IS STRICTLY PROHIBITED\012___________________________________________________\012\012Files & contributor's list: http://kunstderfuge.com/\012Terms and conditions: http://kunstderfuge.com/notes.htm"
10, 1, End_track
0, 0, End_of_file