0, 0, Header, 1, 11, 384
1, 0, Start_track
1, 0, Time_signature, 2, 2, 96, 8
1, 0, Sequencer_specific, 03, 00, 00, 41
1, 0, Sequencer_specific, 05, 00, 00, 77, 0E, 00
1, 0, Tempo, 857142
1, 24, Tempo, 845070
1, 52, Tempo, 833333
1, 80, Tempo, 821917
1, 108, Tempo, 810810
1, 136, Tempo, 800000
1, 164, Tempo, 789473
1, 192, Tempo, 779220
1, 216, Tempo, 769230
1, 244, Tempo, 759493
1, 272, Tempo, 750000
1, 300, Tempo, 740740
1, 328, Tempo, 731707
1, 356, Tempo, 722891
1, 384, Tempo, 714285
1, 2688, Tempo, 857142
1, 2692, Tempo, 845070
1, 2700, Tempo, 833333
1, 2708, Tempo, 821917
1, 2712, Tempo, 810810
1, 2720, Tempo, 800000
1, 2728, Tempo, 789473
1, 2736, Tempo, 779220
1, 2740, Tempo, 769230
1, 2748, Tempo, 759493
1, 2756, Tempo, 750000
1, 2760, Tempo, 740740
1, 2768, Tempo, 731707
1, 2776, Tempo, 722891
1, 2784, Tempo, 714285
1, 5088, Tempo, 714285
1, 5120, Tempo, 722891
1, 5152, Tempo, 731707
1, 5184, Tempo, 740740
1, 5216, Tempo, 750000
1, 5248, Tempo, 759493
1, 5280, Tempo, 769230
1, 5312, Tempo, 779220
1, 5344, Tempo, 789473
1, 5376, Tempo, 800000
1, 5380, Tempo, 845070
1, 5388, Tempo, 833333
1, 5396, Tempo, 821917
1, 5400, Tempo, 810810
1, 5408, Tempo, 800000
1, 5416, Tempo, 789473
1, 5424, Tempo, 779220
1, 5428, Tempo, 769230
1, 5436, Tempo, 759493
1, 5444, Tempo, 750000
1, 5448, Tempo, 740740
1, 5456, Tempo, 731707
1, 5464, Tempo, 722891
1, 5472, Tempo, 714285
1, 7296, Tempo, 833333
1, 7304, Tempo, 821917
1, 7312, Tempo, 810810
1, 7320, Tempo, 800000
1, 7328, Tempo, 789473
1, 7336, Tempo, 779220
1, 7344, Tempo, 769230
1, 7352, Tempo, 759493
1, 7360, Tempo, 750000
1, 7368, Tempo, 740740
1, 7376, Tempo, 731707
1, 7384, Tempo, 722891
1, 7392, Tempo, 714285
1, 9216, Tempo, 857142
1, 9220, Tempo, 845070
1, 9228, Tempo, 833333
1, 9236, Tempo, 821917
1, 9240, Tempo, 810810
1, 9248, Tempo, 800000
1, 9256, Tempo, 789473
1, 9264, Tempo, 779220
1, 9268, Tempo, 769230
1, 9276, Tempo, 759493
1, 9284, Tempo, 750000
1, 9288, Tempo, 740740
1, 9296, Tempo, 731707
1, 9304, Tempo, 722891
1, 9312, Tempo, 714285
1, 11232, Tempo, 714285
1, 11280, Tempo, 722891
1, 11328, Tempo, 731707
1, 11376, Tempo, 740740
1, 11424, Tempo, 750000
1, 11472, Tempo, 759493
1, 11520, Tempo, 882352
1, 11532, Tempo, 869565
1, 11544, Tempo, 857142
1, 11556, Tempo, 845070
1, 11568, Tempo, 833333
1, 11580, Tempo, 821917
1, 11592, Tempo, 810810
1, 11604, Tempo, 800000
1, 11616, Tempo, 789473
1, 11628, Tempo, 779220
1, 11640, Tempo, 769230
1, 11652, Tempo, 759493
1, 11664, Tempo, 750000
1, 11676, Tempo, 740740
1, 11688, Tempo, 731707
1, 11700, Tempo, 722891
1, 11712, Tempo, 714285
1, 12288, Tempo, 789473
1, 12312, Tempo, 779220
1, 12336, Tempo, 769230
1, 12360, Tempo, 759493
1, 12384, Tempo, 750000
1, 12408, Tempo, 740740
1, 12432, Tempo, 731707
1, 12456, Tempo, 722891
1, 12480, Tempo, 714285
1, 14976, Tempo, 833333
1, 14984, Tempo, 821917
1, 14992, Tempo, 810810
1, 15000, Tempo, 800000
1, 15008, Tempo, 789473
1, 15016, Tempo, 779220
1, 15024, Tempo, 769230
1, 15032, Tempo, 759493
1, 15040, Tempo, 750000
1, 15048, Tempo, 740740
1, 15056, Tempo, 731707
1, 15064, Tempo, 722891
1, 15072, Tempo, 714285
1, 17376, Tempo, 714285
1, 17412, Tempo, 722891
1, 17448, Tempo, 731707
1, 17484, Tempo, 740740
1, 17520, Tempo, 750000
1, 17556, Tempo, 759493
1, 17592, Tempo, 769230
1, 17628, Tempo, 779220
1, 17664, Tempo, 857142
1, 17668, Tempo, 845070
1, 17676, Tempo, 833333
1, 17684, Tempo, 821917
1, 17688, Tempo, 810810
1, 17696, Tempo, 800000
1, 17704, Tempo, 789473
1, 17712, Tempo, 779220
1, 17716, Tempo, 769230
1, 17724, Tempo, 759493
1, 17732, Tempo, 750000
1, 17736, Tempo, 740740
1, 17744, Tempo, 731707
1, 17752, Tempo, 722891
1, 17760, Tempo, 714285
1, 20736, Tempo, 833333
1, 20744, Tempo, 821917
1, 20752, Tempo, 810810
1, 20760, Tempo, 800000
1, 20768, Tempo, 789473
1, 20776, Tempo, 779220
1, 20784, Tempo, 769230
1, 20792, Tempo, 759493
1, 20800, Tempo, 750000
1, 20808, Tempo, 740740
1, 20816, Tempo, 731707
1, 20824, Tempo, 722891
1, 20832, Tempo, 714285
1, 23136, Tempo, 714285
1, 23200, Tempo, 722891
1, 23268, Tempo, 731707
1, 23336, Tempo, 740740
1, 23404, Tempo, 750000
1, 23472, Tempo, 759493
1, 23536, Tempo, 769230
1, 23604, Tempo, 779220
1, 23672, Tempo, 789473
1, 23740, Tempo, 800000
1, 23808, Tempo, 810810
1, 23844, Tempo, 821917
1, 23884, Tempo, 833333
1, 23920, Tempo, 845070
1, 23960, Tempo, 857142
1, 24000, Tempo, 869565
1, 24036, Tempo, 882352
1, 24076, Tempo, 895522
1, 24112, Tempo, 909090
1, 24152, Tempo, 923076
1, 24192, Tempo, 937500
1, 24576, Tempo, 789473
1, 24600, Tempo, 779220
1, 24624, Tempo, 769230
1, 24648, Tempo, 759493
1, 24672, Tempo, 750000
1, 24696, Tempo, 740740
1, 24720, Tempo, 731707
1, 24744, Tempo, 722891
1, 24768, Tempo, 714285
1, 27648, Tempo, 789473
1, 27660, Tempo, 779220
1, 27672, Tempo, 769230
1, 27684, Tempo, 759493
1, 27696, Tempo, 750000
1, 27708, Tempo, 740740
1, 27720, Tempo, 731707
1, 27732, Tempo, 722891
1, 27744, Tempo, 714285
1, 29664, Tempo, 714285
1, 29692, Tempo, 722891
1, 29720, Tempo, 731707
1, 29748, Tempo, 740740
1, 29776, Tempo, 750000
1, 29808, Tempo, 759493
1, 29836, Tempo, 769230
1, 29864, Tempo, 779220
1, 29892, Tempo, 789473
1, 29920, Tempo, 800000
1, 29952, Tempo, 857142
1, 29956, Tempo, 845070
1, 29964, Tempo, 833333
1, 29972, Tempo, 821917
1, 29976, Tempo, 810810
1, 29984, Tempo, 800000
1, 29992, Tempo, 789473
1, 30000, Tempo, 779220
1, 30004, Tempo, 769230
1, 30012, Tempo, 759493
1, 30020, Tempo, 750000
1, 30024, Tempo, 740740
1, 30032, Tempo, 731707
1, 30040, Tempo, 722891
1, 30048, Tempo, 714285
1, 33024, Tempo, 833333
1, 33032, Tempo, 821917
1, 33040, Tempo, 810810
1, 33048, Tempo, 800000
1, 33056, Tempo, 789473
1, 33064, Tempo, 779220
1, 33072, Tempo, 769230
1, 33080, Tempo, 759493
1, 33088, Tempo, 750000
1, 33096, Tempo, 740740
1, 33104, Tempo, 731707
1, 33112, Tempo, 722891
1, 33120, Tempo, 714285
1, 34560, Tempo, 810810
1, 34568, Tempo, 800000
1, 34576, Tempo, 789473
1, 34588, Tempo, 779220
1, 34596, Tempo, 769230
1, 34608, Tempo, 759493
1, 34616, Tempo, 750000
1, 34624, Tempo, 740740
1, 34636, Tempo, 731707
1, 34644, Tempo, 722891
1, 34656, Tempo, 714285
1, 35808, Tempo, 714285
1, 35856, Tempo, 722891
1, 35904, Tempo, 731707
1, 35952, Tempo, 740740
1, 36000, Tempo, 750000
1, 36048, Tempo, 759493
1, 36096, Tempo, 882352
1, 36108, Tempo, 869565
1, 36120, Tempo, 857142
1, 36132, Tempo, 845070
1, 36144, Tempo, 833333
1, 36156, Tempo, 821917
1, 36168, Tempo, 810810
1, 36180, Tempo, 800000
1, 36192, Tempo, 789473
1, 36204, Tempo, 779220
1, 36216, Tempo, 769230
1, 36228, Tempo, 759493
1, 36240, Tempo, 750000
1, 36252, Tempo, 740740
1, 36264, Tempo, 731707
1, 36276, Tempo, 722891
1, 36288, Tempo, 714285
1, 36324, Tempo, 779220
1, 36360, Tempo, 769230
1, 36396, Tempo, 759493
1, 36432, Tempo, 750000
1, 36468, Tempo, 740740
1, 36504, Tempo, 731707
1, 36540, Tempo, 722891
1, 36576, Tempo, 714285
1, 39168, Tempo, 833333
1, 39176, Tempo, 821917
1, 39184, Tempo, 810810
1, 39192, Tempo, 800000
1, 39200, Tempo, 789473
1, 39208, Tempo, 779220
1, 39216, Tempo, 769230
1, 39224, Tempo, 759493
1, 39232, Tempo, 750000
1, 39240, Tempo, 740740
1, 39248, Tempo, 731707
1, 39256, Tempo, 722891
1, 39264, Tempo, 714285
1, 39936, Tempo, 789473
1, 39948, Tempo, 779220
1, 39960, Tempo, 769230
1, 39972, Tempo, 759493
1, 39984, Tempo, 750000
1, 39996, Tempo, 740740
1, 40008, Tempo, 731707
1, 40020, Tempo, 722891
1, 40032, Tempo, 714285
1, 41952, Tempo, 714285
1, 41988, Tempo, 722891
1, 42024, Tempo, 731707
1, 42060, Tempo, 740740
1, 42096, Tempo, 750000
1, 42132, Tempo, 759493
1, 42168, Tempo, 769230
1, 42204, Tempo, 779220
1, 42240, Tempo, 882352
1, 42248, Tempo, 869565
1, 42256, Tempo, 857142
1, 42268, Tempo, 845070
1, 42276, Tempo, 833333
1, 42288, Tempo, 821917
1, 42296, Tempo, 810810
1, 42304, Tempo, 800000
1, 42316, Tempo, 789473
1, 42324, Tempo, 779220
1, 42336, Tempo, 769230
1, 42352, Tempo, 750000
1, 42372, Tempo, 740740
1, 42392, Tempo, 731707
1, 42412, Tempo, 722891
1, 42432, Tempo, 714285
1, 45312, Tempo, 857142
1, 45316, Tempo, 845070
1, 45324, Tempo, 833333
1, 45332, Tempo, 821917
1, 45336, Tempo, 810810
1, 45344, Tempo, 800000
1, 45352, Tempo, 789473
1, 45360, Tempo, 779220
1, 45364, Tempo, 769230
1, 45372, Tempo, 759493
1, 45380, Tempo, 750000
1, 45384, Tempo, 740740
1, 45392, Tempo, 731707
1, 45400, Tempo, 722891
1, 45408, Tempo, 714285
1, 46080, Tempo, 810810
1, 46088, Tempo, 800000
1, 46096, Tempo, 789473
1, 46108, Tempo, 779220
1, 46116, Tempo, 769230
1, 46128, Tempo, 759493
1, 46136, Tempo, 750000
1, 46144, Tempo, 740740
1, 46156, Tempo, 731707
1, 46164, Tempo, 722891
1, 46176, Tempo, 714285
1, 47616, Tempo, 714285
1, 47664, Tempo, 722891
1, 47712, Tempo, 731707
1, 47760, Tempo, 740740
1, 47808, Tempo, 750000
1, 47856, Tempo, 759493
1, 47904, Tempo, 769230
1, 47952, Tempo, 779220
1, 48000, Tempo, 789473
1, 48064, Tempo, 800000
1, 48128, Tempo, 810810
1, 48192, Tempo, 821917
1, 48256, Tempo, 833333
1, 48320, Tempo, 845070
1, 48384, Tempo, 857142
1, 48392, Tempo, 869565
1, 48400, Tempo, 882352
1, 48412, Tempo, 895522
1, 48420, Tempo, 909090
1, 48432, Tempo, 923076
1, 48440, Tempo, 937500
1, 48448, Tempo, 952380
1, 48460, Tempo, 967741
1, 48468, Tempo, 983606
1, 48480, Tempo, 1000000
1, 48488, Tempo, 1016949
1, 48496, Tempo, 1034482
1, 48508, Tempo, 1052631
1, 48516, Tempo, 1071428
1, 48528, Tempo, 1090909
1, 48536, Tempo, 1111111
1, 48544, Tempo, 1132075
1, 48556, Tempo, 1153846
1, 48564, Tempo, 1176470
1, 48576, Tempo, 1200000
1, 48584, Tempo, 1224489
1, 48592, Tempo, 1250000
1, 48604, Tempo, 1276595
1, 48612, Tempo, 1304347
1, 48624, Tempo, 1333333
1, 48632, Tempo, 1363636
1, 48640, Tempo, 1395348
1, 48652, Tempo, 1428571
1, 48660, Tempo, 1463414
1, 48672, Tempo, 1500000
1, 48672, End_track
2, 0, Start_track
2, 0, Title_t, "Johann Sebastian Bach"
2, 0, Control_c, 0, 0, 0
2, 0, Program_c, 0, 6
2, 0, Control_c, 0, 7, 127
2, 0, Control_c, 0, 10, 0
2, 0, Control_c, 0, 91, 127
2, 0, Key_signature, 1, "major"
2, 0, Note_on_c, 0, 71, 64
2, 380, Note_off_c, 0, 71, 100
2, 384, Note_on_c, 0, 76, 64
2, 420, Note_off_c, 0, 76, 100
2, 424, Note_on_c, 0, 74, 64
2, 460, Note_off_c, 0, 74, 100
2, 464, Note_on_c, 0, 76, 64
2, 956, Note_off_c, 0, 76, 100
2, 960, Note_on_c, 0, 74, 64
2, 1052, Note_off_c, 0, 74, 100
2, 1056, Note_on_c, 0, 72, 64
2, 1148, Note_off_c, 0, 72, 100
2, 1152, Note_on_c, 0, 74, 64
2, 1244, Note_off_c, 0, 74, 100
2, 1248, Note_on_c, 0, 72, 64
2, 1340, Note_off_c, 0, 72, 100
2, 1344, Note_on_c, 0, 71, 64
2, 1436, Note_off_c, 0, 71, 100
2, 1440, Note_on_c, 0, 69, 64
2, 1532, Note_off_c, 0, 69, 100
2, 1536, Note_on_c, 0, 67, 64
2, 1916, Note_off_c, 0, 67, 100
2, 2112, Note_on_c, 0, 81, 64
2, 2300, Note_off_c, 0, 81, 100
2, 2304, Note_on_c, 0, 78, 64
2, 2492, Note_off_c, 0, 78, 100
2, 2496, Note_on_c, 0, 74, 64
2, 2684, Note_off_c, 0, 74, 100
2, 3168, Note_on_c, 0, 74, 64
2, 3260, Note_off_c, 0, 74, 100
2, 3264, Note_on_c, 0, 72, 64
2, 3356, Note_off_c, 0, 72, 100
2, 3360, Note_on_c, 0, 76, 64
2, 3452, Note_off_c, 0, 76, 100
2, 3456, Note_on_c, 0, 74, 64
2, 3584, Note_off_c, 0, 74, 100
2, 3648, Note_on_c, 0, 71, 64
2, 3932, Note_off_c, 0, 71, 100
2, 3936, Note_on_c, 0, 69, 64
2, 4028, Note_off_c, 0, 69, 100
2, 4032, Note_on_c, 0, 67, 64
2, 4124, Note_off_c, 0, 67, 100
2, 4128, Note_on_c, 0, 71, 64
2, 4220, Note_off_c, 0, 71, 100
2, 4224, Note_on_c, 0, 69, 64
2, 4352, Note_off_c, 0, 69, 100
2, 4416, Note_on_c, 0, 67, 64
2, 4700, Note_off_c, 0, 67, 100
2, 4704, Note_on_c, 0, 66, 64
2, 4796, Note_off_c, 0, 66, 100
2, 4800, Note_on_c, 0, 64, 64
2, 4892, Note_off_c, 0, 64, 100
2, 4896, Note_on_c, 0, 67, 64
2, 4988, Note_off_c, 0, 67, 100
2, 4992, Note_on_c, 0, 66, 64
2, 5372, Note_off_c, 0, 66, 100
2, 5376, Note_on_c, 0, 71, 64
2, 5440, Note_off_c, 0, 71, 100
2, 5472, Note_on_c, 0, 79, 64
2, 5564, Note_off_c, 0, 79, 100
2, 5568, Note_on_c, 0, 78, 64
2, 5660, Note_off_c, 0, 78, 100
2, 5664, Note_on_c, 0, 81, 64
2, 5756, Note_off_c, 0, 81, 100
2, 5760, Note_on_c, 0, 79, 64
2, 5852, Note_off_c, 0, 79, 100
2, 5856, Note_on_c, 0, 78, 64
2, 5948, Note_off_c, 0, 78, 100
2, 5952, Note_on_c, 0, 76, 64
2, 6044, Note_off_c, 0, 76, 100
2, 6048, Note_on_c, 0, 74, 64
2, 6140, Note_off_c, 0, 74, 100
2, 6144, Note_on_c, 0, 84, 64
2, 6332, Note_off_c, 0, 84, 100
2, 6336, Note_on_c, 0, 83, 64
2, 6524, Note_off_c, 0, 83, 100
2, 7680, Note_on_c, 0, 71, 64
2, 7772, Note_off_c, 0, 71, 100
2, 7776, Note_on_c, 0, 75, 64
2, 7868, Note_off_c, 0, 75, 100
2, 7872, Note_on_c, 0, 76, 64
2, 7952, Note_off_c, 0, 76, 100
2, 7968, Note_on_c, 0, 79, 64
2, 8060, Note_off_c, 0, 79, 100
2, 8064, Note_on_c, 0, 83, 64
2, 8540, Note_off_c, 0, 83, 100
2, 8544, Note_on_c, 0, 81, 64
2, 8636, Note_off_c, 0, 81, 100
2, 8640, Note_on_c, 0, 79, 64
2, 8732, Note_off_c, 0, 79, 100
2, 8736, Note_on_c, 0, 83, 64
2, 8828, Note_off_c, 0, 83, 100
2, 8832, Note_on_c, 0, 81, 64
2, 8924, Note_off_c, 0, 81, 100
2, 8928, Note_on_c, 0, 79, 64
2, 9020, Note_off_c, 0, 79, 100
2, 9024, Note_on_c, 0, 78, 64
2, 9116, Note_off_c, 0, 78, 100
2, 9120, Note_on_c, 0, 76, 64
2, 9212, Note_off_c, 0, 76, 100
2, 9216, Note_on_c, 0, 74, 64
2, 9596, Note_off_c, 0, 74, 100
2, 9696, Note_on_c, 0, 72, 64
2, 9788, Note_off_c, 0, 72, 100
2, 9792, Note_on_c, 0, 71, 64
2, 9884, Note_off_c, 0, 71, 100
2, 9888, Note_on_c, 0, 69, 64
2, 9980, Note_off_c, 0, 69, 100
2, 9984, Note_on_c, 0, 71, 64
2, 10364, Note_off_c, 0, 71, 100
2, 10464, Note_on_c, 0, 69, 64
2, 10556, Note_off_c, 0, 69, 100
2, 10560, Note_on_c, 0, 67, 64
2, 10652, Note_off_c, 0, 67, 100
2, 10656, Note_on_c, 0, 66, 64
2, 10748, Note_off_c, 0, 66, 100
2, 10752, Note_on_c, 0, 64, 64
2, 11132, Note_off_c, 0, 64, 100
2, 11232, Note_on_c, 0, 67, 64
2, 11324, Note_off_c, 0, 67, 100
2, 11328, Note_on_c, 0, 66, 64
2, 11420, Note_off_c, 0, 66, 100
2, 11424, Note_on_c, 0, 64, 64
2, 11516, Note_off_c, 0, 64, 100
2, 11520, Note_on_c, 0, 62, 64
2, 11708, Note_off_c, 0, 62, 100
2, 12288, Note_on_c, 0, 71, 64
2, 12668, Note_off_c, 0, 71, 100
2, 12672, Note_on_c, 0, 76, 64
2, 12708, Note_off_c, 0, 76, 100
2, 12712, Note_on_c, 0, 74, 64
2, 12748, Note_off_c, 0, 74, 100
2, 12752, Note_on_c, 0, 76, 64
2, 13244, Note_off_c, 0, 76, 64
2, 13248, Note_on_c, 0, 74, 64
2, 13340, Note_off_c, 0, 74, 100
2, 13344, Note_on_c, 0, 72, 64
2, 13436, Note_off_c, 0, 72, 100
2, 13440, Note_on_c, 0, 74, 64
2, 13532, Note_off_c, 0, 74, 100
2, 13536, Note_on_c, 0, 72, 64
2, 13628, Note_off_c, 0, 72, 100
2, 13632, Note_on_c, 0, 71, 64
2, 13724, Note_off_c, 0, 71, 100
2, 13728, Note_on_c, 0, 69, 64
2, 13820, Note_off_c, 0, 69, 100
2, 13824, Note_on_c, 0, 67, 64
2, 14204, Note_off_c, 0, 67, 100
2, 14400, Note_on_c, 0, 81, 64
2, 14588, Note_off_c, 0, 81, 100
2, 14592, Note_on_c, 0, 78, 64
2, 14780, Note_off_c, 0, 78, 100
2, 14784, Note_on_c, 0, 74, 64
2, 14972, Note_off_c, 0, 74, 100
2, 15456, Note_on_c, 0, 74, 64
2, 15548, Note_off_c, 0, 74, 100
2, 15552, Note_on_c, 0, 72, 64
2, 15644, Note_off_c, 0, 72, 100
2, 15648, Note_on_c, 0, 76, 64
2, 15740, Note_off_c, 0, 76, 100
2, 15744, Note_on_c, 0, 74, 64
2, 15872, Note_off_c, 0, 74, 100
2, 15936, Note_on_c, 0, 71, 64
2, 16220, Note_off_c, 0, 71, 64
2, 16224, Note_on_c, 0, 69, 64
2, 16316, Note_off_c, 0, 69, 100
2, 16320, Note_on_c, 0, 67, 64
2, 16412, Note_off_c, 0, 67, 100
2, 16416, Note_on_c, 0, 71, 64
2, 16508, Note_off_c, 0, 71, 100
2, 16512, Note_on_c, 0, 69, 64
2, 16640, Note_off_c, 0, 69, 100
2, 16704, Note_on_c, 0, 67, 64
2, 16988, Note_off_c, 0, 67, 64
2, 16992, Note_on_c, 0, 66, 64
2, 17084, Note_off_c, 0, 66, 100
2, 17088, Note_on_c, 0, 64, 64
2, 17180, Note_off_c, 0, 64, 100
2, 17184, Note_on_c, 0, 67, 64
2, 17276, Note_off_c, 0, 67, 100
2, 17280, Note_on_c, 0, 66, 64
2, 17660, Note_off_c, 0, 66, 100
2, 17664, Note_on_c, 0, 71, 64
2, 17728, Note_off_c, 0, 71, 100
2, 17760, Note_on_c, 0, 79, 64
2, 17852, Note_off_c, 0, 79, 100
2, 17856, Note_on_c, 0, 78, 64
2, 17948, Note_off_c, 0, 78, 100
2, 17952, Note_on_c, 0, 81, 64
2, 18044, Note_off_c, 0, 81, 100
2, 18048, Note_on_c, 0, 79, 64
2, 18140, Note_off_c, 0, 79, 100
2, 18144, Note_on_c, 0, 78, 64
2, 18236, Note_off_c, 0, 78, 100
2, 18240, Note_on_c, 0, 76, 64
2, 18332, Note_off_c, 0, 76, 100
2, 18336, Note_on_c, 0, 74, 64
2, 18428, Note_off_c, 0, 74, 100
2, 18432, Note_on_c, 0, 84, 64
2, 18620, Note_off_c, 0, 84, 100
2, 18624, Note_on_c, 0, 83, 64
2, 18812, Note_off_c, 0, 83, 100
2, 19968, Note_on_c, 0, 71, 64
2, 20060, Note_off_c, 0, 71, 100
2, 20064, Note_on_c, 0, 75, 64
2, 20156, Note_off_c, 0, 75, 100
2, 20160, Note_on_c, 0, 76, 64
2, 20240, Note_off_c, 0, 76, 100
2, 20256, Note_on_c, 0, 79, 64
2, 20348, Note_off_c, 0, 79, 100
2, 20352, Note_on_c, 0, 83, 64
2, 20828, Note_off_c, 0, 83, 64
2, 20832, Note_on_c, 0, 81, 64
2, 20924, Note_off_c, 0, 81, 100
2, 20928, Note_on_c, 0, 79, 64
2, 21020, Note_off_c, 0, 79, 100
2, 21024, Note_on_c, 0, 83, 64
2, 21116, Note_off_c, 0, 83, 100
2, 21120, Note_on_c, 0, 81, 64
2, 21212, Note_off_c, 0, 81, 100
2, 21216, Note_on_c, 0, 79, 64
2, 21308, Note_off_c, 0, 79, 100
2, 21312, Note_on_c, 0, 78, 64
2, 21404, Note_off_c, 0, 78, 100
2, 21408, Note_on_c, 0, 76, 64
2, 21500, Note_off_c, 0, 76, 100
2, 21504, Note_on_c, 0, 74, 64
2, 21884, Note_off_c, 0, 74, 100
2, 21984, Note_on_c, 0, 72, 64
2, 22076, Note_off_c, 0, 72, 100
2, 22080, Note_on_c, 0, 71, 64
2, 22172, Note_off_c, 0, 71, 100
2, 22176, Note_on_c, 0, 69, 64
2, 22268, Note_off_c, 0, 69, 100
2, 22272, Note_on_c, 0, 71, 64
2, 22652, Note_off_c, 0, 71, 100
2, 22752, Note_on_c, 0, 69, 64
2, 22844, Note_off_c, 0, 69, 100
2, 22848, Note_on_c, 0, 67, 64
2, 22940, Note_off_c, 0, 67, 100
2, 22944, Note_on_c, 0, 66, 64
2, 23036, Note_off_c, 0, 66, 100
2, 23040, Note_on_c, 0, 64, 64
2, 23420, Note_off_c, 0, 64, 100
2, 23520, Note_on_c, 0, 67, 64
2, 23612, Note_off_c, 0, 67, 100
2, 23616, Note_on_c, 0, 66, 64
2, 23708, Note_off_c, 0, 66, 100
2, 23712, Note_on_c, 0, 64, 64
2, 23804, Note_off_c, 0, 64, 100
2, 23808, Note_on_c, 0, 62, 64
2, 24188, Note_off_c, 0, 62, 100
2, 24672, Note_on_c, 0, 78, 64
2, 24764, Note_off_c, 0, 78, 100
2, 24768, Note_on_c, 0, 76, 64
2, 24860, Note_off_c, 0, 76, 100
2, 24864, Note_on_c, 0, 79, 64
2, 24956, Note_off_c, 0, 79, 100
2, 24960, Note_on_c, 0, 78, 64
2, 25052, Note_off_c, 0, 78, 100
2, 25056, Note_on_c, 0, 76, 64
2, 25148, Note_off_c, 0, 76, 100
2, 25152, Note_on_c, 0, 74, 64
2, 25244, Note_off_c, 0, 74, 100
2, 25248, Note_on_c, 0, 73, 64
2, 25340, Note_off_c, 0, 73, 100
2, 25344, Note_on_c, 0, 74, 64
2, 25724, Note_off_c, 0, 74, 100
2, 25920, Note_on_c, 0, 71, 64
2, 26108, Note_off_c, 0, 71, 100
2, 26112, Note_on_c, 0, 67, 64
2, 26300, Note_off_c, 0, 67, 100
2, 26304, Note_on_c, 0, 64, 64
2, 26492, Note_off_c, 0, 64, 100
2, 26496, Note_on_c, 0, 69, 64
2, 26752, Note_off_c, 0, 69, 100
2, 26976, Note_on_c, 0, 67, 64
2, 27068, Note_off_c, 0, 67, 100
2, 27072, Note_on_c, 0, 66, 64
2, 27164, Note_off_c, 0, 66, 100
2, 27168, Note_on_c, 0, 69, 64
2, 27260, Note_off_c, 0, 69, 100
2, 27264, Note_on_c, 0, 67, 64
2, 27356, Note_off_c, 0, 67, 100
2, 27360, Note_on_c, 0, 66, 64
2, 27452, Note_off_c, 0, 66, 100
2, 27456, Note_on_c, 0, 64, 64
2, 27548, Note_off_c, 0, 64, 100
2, 27552, Note_on_c, 0, 63, 64
2, 27644, Note_off_c, 0, 63, 100
2, 27648, Note_on_c, 0, 64, 64
2, 27712, Note_off_c, 0, 64, 100
2, 27744, Note_on_c, 0, 71, 64
2, 27836, Note_off_c, 0, 71, 100
2, 27840, Note_on_c, 0, 69, 64
2, 27932, Note_off_c, 0, 69, 100
2, 27936, Note_on_c, 0, 72, 64
2, 28028, Note_off_c, 0, 72, 100
2, 28032, Note_on_c, 0, 71, 64
2, 28160, Note_off_c, 0, 71, 100
2, 28224, Note_on_c, 0, 67, 64
2, 28508, Note_off_c, 0, 67, 100
2, 28512, Note_on_c, 0, 66, 64
2, 28604, Note_off_c, 0, 66, 100
2, 28608, Note_on_c, 0, 64, 64
2, 28700, Note_off_c, 0, 64, 100
2, 28704, Note_on_c, 0, 67, 64
2, 28796, Note_off_c, 0, 67, 100
2, 28800, Note_on_c, 0, 66, 64
2, 28928, Note_off_c, 0, 66, 100
2, 28992, Note_on_c, 0, 64, 64
2, 29276, Note_off_c, 0, 64, 100
2, 29280, Note_on_c, 0, 63, 64
2, 29372, Note_off_c, 0, 63, 100
2, 29376, Note_on_c, 0, 61, 64
2, 29468, Note_off_c, 0, 61, 100
2, 29472, Note_on_c, 0, 64, 64
2, 29564, Note_off_c, 0, 64, 100
2, 29568, Note_on_c, 0, 63, 64
2, 29948, Note_off_c, 0, 63, 100
2, 29952, Note_on_c, 0, 67, 64
2, 30208, Note_off_c, 0, 67, 100
2, 30720, Note_on_c, 0, 64, 64
2, 31100, Note_off_c, 0, 64, 100
2, 31104, Note_on_c, 0, 69, 64
2, 31360, Note_off_c, 0, 69, 100
2, 31584, Note_on_c, 0, 67, 64
2, 31676, Note_off_c, 0, 67, 100
2, 31680, Note_on_c, 0, 66, 64
2, 31772, Note_off_c, 0, 66, 100
2, 31776, Note_on_c, 0, 69, 64
2, 31868, Note_off_c, 0, 69, 100
2, 31872, Note_on_c, 0, 67, 64
2, 31964, Note_off_c, 0, 67, 100
2, 31968, Note_on_c, 0, 66, 64
2, 32060, Note_off_c, 0, 66, 100
2, 32064, Note_on_c, 0, 64, 64
2, 32156, Note_off_c, 0, 64, 100
2, 32160, Note_on_c, 0, 62, 64
2, 32252, Note_off_c, 0, 62, 100
2, 32256, Note_on_c, 0, 60, 64
2, 32636, Note_off_c, 0, 60, 100
2, 32640, Note_on_c, 0, 72, 64
2, 32896, Note_off_c, 0, 72, 100
2, 33120, Note_on_c, 0, 71, 64
2, 33212, Note_off_c, 0, 71, 100
2, 33216, Note_on_c, 0, 69, 64
2, 33308, Note_off_c, 0, 69, 100
2, 33312, Note_on_c, 0, 72, 64
2, 33404, Note_off_c, 0, 72, 100
2, 33408, Note_on_c, 0, 71, 64
2, 33500, Note_off_c, 0, 71, 100
2, 33504, Note_on_c, 0, 69, 64
2, 33596, Note_off_c, 0, 69, 100
2, 33600, Note_on_c, 0, 67, 64
2, 33692, Note_off_c, 0, 67, 100
2, 33696, Note_on_c, 0, 66, 64
2, 33788, Note_off_c, 0, 66, 100
2, 33792, Note_on_c, 0, 74, 64
2, 34172, Note_off_c, 0, 74, 100
2, 34176, Note_on_c, 0, 77, 64
2, 34432, Note_off_c, 0, 77, 100
2, 34656, Note_on_c, 0, 76, 64
2, 34748, Note_off_c, 0, 76, 100
2, 34752, Note_on_c, 0, 74, 64
2, 34844, Note_off_c, 0, 74, 100
2, 34848, Note_on_c, 0, 77, 64
2, 34912, Note_off_c, 0, 77, 100
2, 34944, Note_on_c, 0, 76, 64
2, 35036, Note_off_c, 0, 76, 100
2, 35040, Note_on_c, 0, 79, 64
2, 35132, Note_off_c, 0, 79, 100
2, 35136, Note_on_c, 0, 78, 64
2, 35228, Note_off_c, 0, 78, 100
2, 35232, Note_on_c, 0, 79, 64
2, 35324, Note_off_c, 0, 79, 100
2, 35328, Note_on_c, 0, 81, 64
2, 35456, Note_off_c, 0, 81, 100
2, 35520, Note_on_c, 0, 74, 64
2, 35804, Note_off_c, 0, 74, 100
2, 35808, Note_on_c, 0, 72, 64
2, 35900, Note_off_c, 0, 72, 100
2, 35904, Note_on_c, 0, 71, 64
2, 35996, Note_off_c, 0, 71, 100
2, 36000, Note_on_c, 0, 69, 64
2, 36092, Note_off_c, 0, 69, 100
2, 36096, Note_on_c, 0, 67, 64
2, 36476, Note_off_c, 0, 67, 100
2, 36960, Note_on_c, 0, 78, 64
2, 37052, Note_off_c, 0, 78, 100
2, 37056, Note_on_c, 0, 76, 64
2, 37148, Note_off_c, 0, 76, 100
2, 37152, Note_on_c, 0, 79, 64
2, 37244, Note_off_c, 0, 79, 100
2, 37248, Note_on_c, 0, 78, 64
2, 37340, Note_off_c, 0, 78, 100
2, 37344, Note_on_c, 0, 76, 64
2, 37436, Note_off_c, 0, 76, 100
2, 37440, Note_on_c, 0, 74, 64
2, 37532, Note_off_c, 0, 74, 100
2, 37536, Note_on_c, 0, 73, 64
2, 37628, Note_off_c, 0, 73, 100
2, 37632, Note_on_c, 0, 74, 64
2, 38012, Note_off_c, 0, 74, 100
2, 38208, Note_on_c, 0, 71, 64
2, 38396, Note_off_c, 0, 71, 100
2, 38400, Note_on_c, 0, 67, 64
2, 38588, Note_off_c, 0, 67, 100
2, 38592, Note_on_c, 0, 64, 64
2, 38780, Note_off_c, 0, 64, 100
2, 38784, Note_on_c, 0, 69, 64
2, 39040, Note_off_c, 0, 69, 100
2, 39264, Note_on_c, 0, 67, 64
2, 39356, Note_off_c, 0, 67, 100
2, 39360, Note_on_c, 0, 66, 64
2, 39452, Note_off_c, 0, 66, 100
2, 39456, Note_on_c, 0, 69, 64
2, 39548, Note_off_c, 0, 69, 100
2, 39552, Note_on_c, 0, 67, 64
2, 39644, Note_off_c, 0, 67, 100
2, 39648, Note_on_c, 0, 66, 64
2, 39740, Note_off_c, 0, 66, 100
2, 39744, Note_on_c, 0, 64, 64
2, 39836, Note_off_c, 0, 64, 100
2, 39840, Note_on_c, 0, 63, 64
2, 39932, Note_off_c, 0, 63, 100
2, 39936, Note_on_c, 0, 64, 64
2, 40000, Note_off_c, 0, 64, 100
2, 40032, Note_on_c, 0, 71, 64
2, 40124, Note_off_c, 0, 71, 100
2, 40128, Note_on_c, 0, 69, 64
2, 40220, Note_off_c, 0, 69, 100
2, 40224, Note_on_c, 0, 72, 64
2, 40316, Note_off_c, 0, 72, 100
2, 40320, Note_on_c, 0, 71, 64
2, 40448, Note_off_c, 0, 71, 100
2, 40512, Note_on_c, 0, 67, 64
2, 40796, Note_off_c, 0, 67, 64
2, 40800, Note_on_c, 0, 66, 64
2, 40892, Note_off_c, 0, 66, 100
2, 40896, Note_on_c, 0, 64, 64
2, 40988, Note_off_c, 0, 64, 100
2, 40992, Note_on_c, 0, 67, 64
2, 41084, Note_off_c, 0, 67, 100
2, 41088, Note_on_c, 0, 66, 64
2, 41216, Note_off_c, 0, 66, 100
2, 41280, Note_on_c, 0, 64, 64
2, 41564, Note_off_c, 0, 64, 64
2, 41568, Note_on_c, 0, 63, 64
2, 41660, Note_off_c, 0, 63, 100
2, 41664, Note_on_c, 0, 61, 64
2, 41756, Note_off_c, 0, 61, 100
2, 41760, Note_on_c, 0, 64, 64
2, 41852, Note_off_c, 0, 64, 100
2, 41856, Note_on_c, 0, 63, 64
2, 42236, Note_off_c, 0, 63, 100
2, 42240, Note_on_c, 0, 67, 64
2, 42496, Note_off_c, 0, 67, 100
2, 43008, Note_on_c, 0, 64, 64
2, 43388, Note_off_c, 0, 64, 100
2, 43392, Note_on_c, 0, 69, 64
2, 43648, Note_off_c, 0, 69, 100
2, 43872, Note_on_c, 0, 67, 64
2, 43964, Note_off_c, 0, 67, 100
2, 43968, Note_on_c, 0, 66, 64
2, 44060, Note_off_c, 0, 66, 100
2, 44064, Note_on_c, 0, 69, 64
2, 44156, Note_off_c, 0, 69, 100
2, 44160, Note_on_c, 0, 67, 64
2, 44252, Note_off_c, 0, 67, 100
2, 44256, Note_on_c, 0, 66, 64
2, 44348, Note_off_c, 0, 66, 100
2, 44352, Note_on_c, 0, 64, 64
2, 44444, Note_off_c, 0, 64, 100
2, 44448, Note_on_c, 0, 62, 64
2, 44540, Note_off_c, 0, 62, 100
2, 44544, Note_on_c, 0, 60, 64
2, 44924, Note_off_c, 0, 60, 100
2, 44928, Note_on_c, 0, 72, 64
2, 45184, Note_off_c, 0, 72, 100
2, 45408, Note_on_c, 0, 71, 64
2, 45500, Note_off_c, 0, 71, 100
2, 45504, Note_on_c, 0, 69, 64
2, 45596, Note_off_c, 0, 69, 100
2, 45600, Note_on_c, 0, 72, 64
2, 45692, Note_off_c, 0, 72, 100
2, 45696, Note_on_c, 0, 71, 64
2, 45788, Note_off_c, 0, 71, 100
2, 45792, Note_on_c, 0, 69, 64
2, 45884, Note_off_c, 0, 69, 100
2, 45888, Note_on_c, 0, 67, 64
2, 45980, Note_off_c, 0, 67, 100
2, 45984, Note_on_c, 0, 66, 64
2, 46076, Note_off_c, 0, 66, 100
2, 46080, Note_on_c, 0, 74, 64
2, 46460, Note_off_c, 0, 74, 100
2, 46464, Note_on_c, 0, 77, 64
2, 46720, Note_off_c, 0, 77, 100
2, 46944, Note_on_c, 0, 76, 64
2, 47036, Note_off_c, 0, 76, 100
2, 47040, Note_on_c, 0, 74, 64
2, 47132, Note_off_c, 0, 74, 100
2, 47136, Note_on_c, 0, 77, 64
2, 47200, Note_off_c, 0, 77, 100
2, 47232, Note_on_c, 0, 76, 64
2, 47324, Note_off_c, 0, 76, 100
2, 47328, Note_on_c, 0, 79, 64
2, 47420, Note_off_c, 0, 79, 100
2, 47424, Note_on_c, 0, 78, 64
2, 47516, Note_off_c, 0, 78, 100
2, 47520, Note_on_c, 0, 79, 64
2, 47612, Note_off_c, 0, 79, 100
2, 47616, Note_on_c, 0, 81, 64
2, 47744, Note_off_c, 0, 81, 100
2, 47808, Note_on_c, 0, 74, 64
2, 48092, Note_off_c, 0, 74, 100
2, 48096, Note_on_c, 0, 72, 64
2, 48188, Note_off_c, 0, 72, 100
2, 48192, Note_on_c, 0, 71, 64
2, 48284, Note_off_c, 0, 71, 100
2, 48288, Note_on_c, 0, 69, 64
2, 48380, Note_off_c, 0, 69, 100
2, 48384, Note_on_c, 0, 67, 64
2, 48764, Note_off_c, 0, 67, 100
2, 48764, End_track
3, 0, Start_track
3, 0, Title_t, "Goldberg Variations"
3, 0, Control_c, 1, 0, 0
3, 0, Program_c, 1, 6
3, 0, Control_c, 1, 7, 127
3, 0, Control_c, 1, 10, 127
3, 0, Control_c, 1, 91, 127
3, 0, Key_signature, 1, "major"
3, 1536, Note_on_c, 1, 79, 64
3, 1916, Note_off_c, 1, 79, 100
3, 1920, Note_on_c, 1, 84, 64
3, 1956, Note_off_c, 1, 84, 100
3, 1960, Note_on_c, 1, 83, 64
3, 1996, Note_off_c, 1, 83, 100
3, 2000, Note_on_c, 1, 84, 64
3, 2492, Note_off_c, 1, 84, 64
3, 2496, Note_on_c, 1, 83, 64
3, 2588, Note_off_c, 1, 83, 100
3, 2592, Note_on_c, 1, 81, 64
3, 2684, Note_off_c, 1, 81, 100
3, 2688, Note_on_c, 1, 83, 64
3, 2780, Note_off_c, 1, 83, 100
3, 2784, Note_on_c, 1, 81, 64
3, 2876, Note_off_c, 1, 81, 100
3, 2880, Note_on_c, 1, 79, 64
3, 2972, Note_off_c, 1, 79, 100
3, 2976, Note_on_c, 1, 78, 64
3, 3068, Note_off_c, 1, 78, 100
3, 3072, Note_on_c, 1, 79, 64
3, 3452, Note_off_c, 1, 79, 100
3, 3552, Note_on_c, 1, 77, 64
3, 3644, Note_off_c, 1, 77, 100
3, 3648, Note_on_c, 1, 76, 64
3, 3740, Note_off_c, 1, 76, 100
3, 3744, Note_on_c, 1, 74, 64
3, 3836, Note_off_c, 1, 74, 100
3, 3840, Note_on_c, 1, 76, 64
3, 4220, Note_off_c, 1, 76, 100
3, 4320, Note_on_c, 1, 74, 64
3, 4412, Note_off_c, 1, 74, 100
3, 4416, Note_on_c, 1, 72, 64
3, 4508, Note_off_c, 1, 72, 100
3, 4512, Note_on_c, 1, 71, 64
3, 4604, Note_off_c, 1, 71, 100
3, 4608, Note_on_c, 1, 69, 64
3, 4988, Note_off_c, 1, 69, 100
3, 5088, Note_on_c, 1, 72, 64
3, 5180, Note_off_c, 1, 72, 100
3, 5184, Note_on_c, 1, 71, 64
3, 5276, Note_off_c, 1, 71, 100
3, 5280, Note_on_c, 1, 69, 64
3, 5372, Note_off_c, 1, 69, 100
3, 5376, Note_on_c, 1, 67, 64
3, 5564, Note_off_c, 1, 67, 100
3, 6144, Note_on_c, 1, 67, 64
3, 6236, Note_off_c, 1, 67, 100
3, 6240, Note_on_c, 1, 69, 64
3, 6332, Note_off_c, 1, 69, 100
3, 6336, Note_on_c, 1, 71, 64
3, 6428, Note_off_c, 1, 71, 100
3, 6432, Note_on_c, 1, 74, 64
3, 6524, Note_off_c, 1, 74, 100
3, 6528, Note_on_c, 1, 76, 64
3, 6908, Note_off_c, 1, 76, 100
3, 7008, Note_on_c, 1, 74, 64
3, 7100, Note_off_c, 1, 74, 100
3, 7104, Note_on_c, 1, 73, 64
3, 7196, Note_off_c, 1, 73, 100
3, 7200, Note_on_c, 1, 76, 64
3, 7292, Note_off_c, 1, 76, 100
3, 7296, Note_on_c, 1, 74, 64
3, 7388, Note_off_c, 1, 74, 100
3, 7392, Note_on_c, 1, 73, 64
3, 7484, Note_off_c, 1, 73, 100
3, 7488, Note_on_c, 1, 71, 64
3, 7580, Note_off_c, 1, 71, 100
3, 7584, Note_on_c, 1, 69, 64
3, 7676, Note_off_c, 1, 69, 100
3, 7680, Note_on_c, 1, 67, 64
3, 8060, Note_off_c, 1, 67, 100
3, 8256, Note_on_c, 1, 79, 64
3, 8444, Note_off_c, 1, 79, 100
3, 8448, Note_on_c, 1, 76, 64
3, 8636, Note_off_c, 1, 76, 100
3, 8640, Note_on_c, 1, 73, 64
3, 8828, Note_off_c, 1, 73, 100
3, 9312, Note_on_c, 1, 69, 64
3, 9404, Note_off_c, 1, 69, 100
3, 9408, Note_on_c, 1, 67, 64
3, 9500, Note_off_c, 1, 67, 100
3, 9504, Note_on_c, 1, 71, 64
3, 9596, Note_off_c, 1, 71, 100
3, 9600, Note_on_c, 1, 69, 64
3, 9728, Note_off_c, 1, 69, 100
3, 9792, Note_on_c, 1, 66, 64
3, 10076, Note_off_c, 1, 66, 64
3, 10080, Note_on_c, 1, 64, 64
3, 10172, Note_off_c, 1, 64, 100
3, 10176, Note_on_c, 1, 62, 64
3, 10268, Note_off_c, 1, 62, 100
3, 10272, Note_on_c, 1, 66, 64
3, 10364, Note_off_c, 1, 66, 100
3, 10368, Note_on_c, 1, 64, 64
3, 10496, Note_off_c, 1, 64, 100
3, 10560, Note_on_c, 1, 62, 64
3, 10844, Note_off_c, 1, 62, 64
3, 10848, Note_on_c, 1, 61, 64
3, 10940, Note_off_c, 1, 61, 100
3, 10944, Note_on_c, 1, 59, 64
3, 11036, Note_off_c, 1, 59, 100
3, 11040, Note_on_c, 1, 62, 64
3, 11132, Note_off_c, 1, 62, 100
3, 11136, Note_on_c, 1, 61, 64
3, 11516, Note_off_c, 1, 61, 100
3, 11520, Note_on_c, 1, 62, 64
3, 11708, Note_off_c, 1, 62, 100
3, 13824, Note_on_c, 1, 79, 64
3, 14204, Note_off_c, 1, 79, 100
3, 14208, Note_on_c, 1, 84, 64
3, 14244, Note_off_c, 1, 84, 100
3, 14248, Note_on_c, 1, 83, 64
3, 14284, Note_off_c, 1, 83, 100
3, 14288, Note_on_c, 1, 84, 64
3, 14780, Note_off_c, 1, 84, 64
3, 14784, Note_on_c, 1, 83, 64
3, 14876, Note_off_c, 1, 83, 100
3, 14880, Note_on_c, 1, 81, 64
3, 14972, Note_off_c, 1, 81, 100
3, 14976, Note_on_c, 1, 83, 64
3, 15068, Note_off_c, 1, 83, 100
3, 15072, Note_on_c, 1, 81, 64
3, 15164, Note_off_c, 1, 81, 100
3, 15168, Note_on_c, 1, 79, 64
3, 15260, Note_off_c, 1, 79, 100
3, 15264, Note_on_c, 1, 78, 64
3, 15356, Note_off_c, 1, 78, 100
3, 15360, Note_on_c, 1, 79, 64
3, 15740, Note_off_c, 1, 79, 100
3, 15840, Note_on_c, 1, 77, 64
3, 15932, Note_off_c, 1, 77, 100
3, 15936, Note_on_c, 1, 76, 64
3, 16028, Note_off_c, 1, 76, 100
3, 16032, Note_on_c, 1, 74, 64
3, 16124, Note_off_c, 1, 74, 100
3, 16128, Note_on_c, 1, 76, 64
3, 16508, Note_off_c, 1, 76, 100
3, 16608, Note_on_c, 1, 74, 64
3, 16700, Note_off_c, 1, 74, 100
3, 16704, Note_on_c, 1, 72, 64
3, 16796, Note_off_c, 1, 72, 100
3, 16800, Note_on_c, 1, 71, 64
3, 16892, Note_off_c, 1, 71, 100
3, 16896, Note_on_c, 1, 69, 64
3, 17276, Note_off_c, 1, 69, 100
3, 17376, Note_on_c, 1, 72, 64
3, 17468, Note_off_c, 1, 72, 100
3, 17472, Note_on_c, 1, 71, 64
3, 17564, Note_off_c, 1, 71, 100
3, 17568, Note_on_c, 1, 69, 64
3, 17660, Note_off_c, 1, 69, 100
3, 17664, Note_on_c, 1, 67, 64
3, 17852, Note_off_c, 1, 67, 100
3, 18432, Note_on_c, 1, 67, 64
3, 18524, Note_off_c, 1, 67, 100
3, 18528, Note_on_c, 1, 69, 64
3, 18620, Note_off_c, 1, 69, 100
3, 18624, Note_on_c, 1, 71, 64
3, 18716, Note_off_c, 1, 71, 100
3, 18720, Note_on_c, 1, 74, 64
3, 18812, Note_off_c, 1, 74, 100
3, 18816, Note_on_c, 1, 76, 64
3, 19196, Note_off_c, 1, 76, 100
3, 19296, Note_on_c, 1, 74, 64
3, 19388, Note_off_c, 1, 74, 100
3, 19392, Note_on_c, 1, 73, 64
3, 19484, Note_off_c, 1, 73, 100
3, 19488, Note_on_c, 1, 76, 64
3, 19580, Note_off_c, 1, 76, 100
3, 19584, Note_on_c, 1, 74, 64
3, 19676, Note_off_c, 1, 74, 100
3, 19680, Note_on_c, 1, 73, 64
3, 19772, Note_off_c, 1, 73, 100
3, 19776, Note_on_c, 1, 71, 64
3, 19868, Note_off_c, 1, 71, 100
3, 19872, Note_on_c, 1, 69, 64
3, 19964, Note_off_c, 1, 69, 100
3, 19968, Note_on_c, 1, 67, 64
3, 20348, Note_off_c, 1, 67, 100
3, 20544, Note_on_c, 1, 79, 64
3, 20732, Note_off_c, 1, 79, 100
3, 20736, Note_on_c, 1, 76, 64
3, 20924, Note_off_c, 1, 76, 100
3, 20928, Note_on_c, 1, 73, 64
3, 21116, Note_off_c, 1, 73, 100
3, 21600, Note_on_c, 1, 69, 64
3, 21692, Note_off_c, 1, 69, 100
3, 21696, Note_on_c, 1, 67, 64
3, 21788, Note_off_c, 1, 67, 100
3, 21792, Note_on_c, 1, 71, 64
3, 21884, Note_off_c, 1, 71, 100
3, 21888, Note_on_c, 1, 69, 64
3, 22016, Note_off_c, 1, 69, 100
3, 22080, Note_on_c, 1, 66, 64
3, 22364, Note_off_c, 1, 66, 64
3, 22368, Note_on_c, 1, 64, 64
3, 22460, Note_off_c, 1, 64, 100
3, 22464, Note_on_c, 1, 62, 64
3, 22556, Note_off_c, 1, 62, 100
3, 22560, Note_on_c, 1, 66, 64
3, 22652, Note_off_c, 1, 66, 100
3, 22656, Note_on_c, 1, 64, 64
3, 22784, Note_off_c, 1, 64, 100
3, 22848, Note_on_c, 1, 62, 64
3, 23132, Note_off_c, 1, 62, 64
3, 23136, Note_on_c, 1, 61, 64
3, 23228, Note_off_c, 1, 61, 100
3, 23232, Note_on_c, 1, 59, 64
3, 23324, Note_off_c, 1, 59, 100
3, 23328, Note_on_c, 1, 62, 64
3, 23420, Note_off_c, 1, 62, 100
3, 23424, Note_on_c, 1, 61, 64
3, 23804, Note_off_c, 1, 61, 100
3, 23808, Note_on_c, 1, 62, 64
3, 24188, Note_off_c, 1, 62, 100
3, 24576, Note_on_c, 1, 69, 64
3, 24956, Note_off_c, 1, 69, 100
3, 24960, Note_on_c, 1, 81, 64
3, 25216, Note_off_c, 1, 81, 100
3, 25440, Note_on_c, 1, 79, 64
3, 25532, Note_off_c, 1, 79, 100
3, 25536, Note_on_c, 1, 78, 64
3, 25628, Note_off_c, 1, 78, 100
3, 25632, Note_on_c, 1, 81, 64
3, 25724, Note_off_c, 1, 81, 100
3, 25728, Note_on_c, 1, 79, 64
3, 25820, Note_off_c, 1, 79, 100
3, 25824, Note_on_c, 1, 78, 64
3, 25916, Note_off_c, 1, 78, 100
3, 25920, Note_on_c, 1, 76, 64
3, 26012, Note_off_c, 1, 76, 100
3, 26016, Note_on_c, 1, 75, 64
3, 26108, Note_off_c, 1, 75, 100
3, 26112, Note_on_c, 1, 76, 64
3, 26368, Note_off_c, 1, 76, 100
3, 26688, Note_on_c, 1, 78, 64
3, 26876, Note_off_c, 1, 78, 100
3, 26880, Note_on_c, 1, 75, 64
3, 27068, Note_off_c, 1, 75, 100
3, 27072, Note_on_c, 1, 71, 64
3, 27260, Note_off_c, 1, 71, 100
3, 27648, Note_on_c, 1, 76, 64
3, 28120, Note_off_c, 1, 76, 100
3, 28128, Note_on_c, 1, 74, 64
3, 28220, Note_off_c, 1, 74, 100
3, 28224, Note_on_c, 1, 72, 64
3, 28316, Note_off_c, 1, 72, 100
3, 28320, Note_on_c, 1, 71, 64
3, 28412, Note_off_c, 1, 71, 100
3, 28416, Note_on_c, 1, 72, 64
3, 28888, Note_off_c, 1, 72, 100
3, 28896, Note_on_c, 1, 71, 64
3, 28988, Note_off_c, 1, 71, 100
3, 28992, Note_on_c, 1, 69, 64
3, 29084, Note_off_c, 1, 69, 100
3, 29088, Note_on_c, 1, 67, 64
3, 29180, Note_off_c, 1, 67, 100
3, 29184, Note_on_c, 1, 66, 64
3, 29656, Note_off_c, 1, 66, 100
3, 29664, Note_on_c, 1, 69, 64
3, 29756, Note_off_c, 1, 69, 100
3, 29760, Note_on_c, 1, 67, 64
3, 29852, Note_off_c, 1, 67, 100
3, 29856, Note_on_c, 1, 66, 64
3, 29948, Note_off_c, 1, 66, 100
3, 29952, Note_on_c, 1, 64, 64
3, 30332, Note_off_c, 1, 64, 100
3, 30336, Note_on_c, 1, 71, 64
3, 30592, Note_off_c, 1, 71, 100
3, 30816, Note_on_c, 1, 69, 64
3, 30908, Note_off_c, 1, 69, 100
3, 30912, Note_on_c, 1, 67, 64
3, 31004, Note_off_c, 1, 67, 100
3, 31008, Note_on_c, 1, 71, 64
3, 31100, Note_off_c, 1, 71, 100
3, 31104, Note_on_c, 1, 69, 64
3, 31196, Note_off_c, 1, 69, 100
3, 31200, Note_on_c, 1, 67, 64
3, 31292, Note_off_c, 1, 67, 100
3, 31296, Note_on_c, 1, 66, 64
3, 31388, Note_off_c, 1, 66, 100
3, 31392, Note_on_c, 1, 64, 64
3, 31484, Note_off_c, 1, 64, 100
3, 31488, Note_on_c, 1, 62, 64
3, 31868, Note_off_c, 1, 62, 100
3, 31872, Note_on_c, 1, 67, 64
3, 32128, Note_off_c, 1, 67, 100
3, 32352, Note_on_c, 1, 66, 64
3, 32444, Note_off_c, 1, 66, 100
3, 32448, Note_on_c, 1, 64, 64
3, 32540, Note_off_c, 1, 64, 100
3, 32544, Note_on_c, 1, 67, 64
3, 32636, Note_off_c, 1, 67, 100
3, 32640, Note_on_c, 1, 66, 64
3, 32732, Note_off_c, 1, 66, 100
3, 32736, Note_on_c, 1, 64, 64
3, 32828, Note_off_c, 1, 64, 100
3, 32832, Note_on_c, 1, 62, 64
3, 32924, Note_off_c, 1, 62, 100
3, 32928, Note_on_c, 1, 60, 64
3, 33020, Note_off_c, 1, 60, 100
3, 33024, Note_on_c, 1, 62, 64
3, 33404, Note_off_c, 1, 62, 100
3, 33792, Note_on_c, 1, 71, 64
3, 33980, Note_off_c, 1, 71, 100
3, 33984, Note_on_c, 1, 67, 64
3, 34172, Note_off_c, 1, 67, 100
3, 34176, Note_on_c, 1, 71, 64
3, 34304, Note_off_c, 1, 71, 100
3, 34368, Note_on_c, 1, 74, 64
3, 34496, Note_off_c, 1, 74, 100
3, 34560, Note_on_c, 1, 79, 64
3, 34940, Note_off_c, 1, 79, 100
3, 34944, Note_on_c, 1, 84, 64
3, 35420, Note_off_c, 1, 84, 64
3, 35424, Note_on_c, 1, 83, 64
3, 35516, Note_off_c, 1, 83, 100
3, 35520, Note_on_c, 1, 81, 64
3, 35612, Note_off_c, 1, 81, 100
3, 35616, Note_on_c, 1, 84, 64
3, 35708, Note_off_c, 1, 84, 100
3, 35712, Note_on_c, 1, 83, 64
3, 35804, Note_off_c, 1, 83, 100
3, 35808, Note_on_c, 1, 81, 64
3, 35900, Note_off_c, 1, 81, 100
3, 35904, Note_on_c, 1, 79, 64
3, 35996, Note_off_c, 1, 79, 100
3, 36000, Note_on_c, 1, 78, 64
3, 36092, Note_off_c, 1, 78, 100
3, 36096, Note_on_c, 1, 79, 64
3, 36476, Note_off_c, 1, 79, 100
3, 36864, Note_on_c, 1, 69, 64
3, 37244, Note_off_c, 1, 69, 100
3, 37248, Note_on_c, 1, 81, 64
3, 37504, Note_off_c, 1, 81, 100
3, 37728, Note_on_c, 1, 79, 64
3, 37820, Note_off_c, 1, 79, 100
3, 37824, Note_on_c, 1, 78, 64
3, 37916, Note_off_c, 1, 78, 100
3, 37920, Note_on_c, 1, 81, 64
3, 38012, Note_off_c, 1, 81, 100
3, 38016, Note_on_c, 1, 79, 64
3, 38108, Note_off_c, 1, 79, 100
3, 38112, Note_on_c, 1, 78, 64
3, 38204, Note_off_c, 1, 78, 100
3, 38208, Note_on_c, 1, 76, 64
3, 38300, Note_off_c, 1, 76, 100
3, 38304, Note_on_c, 1, 75, 64
3, 38396, Note_off_c, 1, 75, 100
3, 38400, Note_on_c, 1, 76, 64
3, 38656, Note_off_c, 1, 76, 100
3, 38976, Note_on_c, 1, 78, 64
3, 39164, Note_off_c, 1, 78, 100
3, 39168, Note_on_c, 1, 75, 64
3, 39356, Note_off_c, 1, 75, 100
3, 39360, Note_on_c, 1, 71, 64
3, 39548, Note_off_c, 1, 71, 100
3, 39936, Note_on_c, 1, 76, 64
3, 40408, Note_off_c, 1, 76, 100
3, 40416, Note_on_c, 1, 74, 64
3, 40508, Note_off_c, 1, 74, 100
3, 40512, Note_on_c, 1, 72, 64
3, 40604, Note_off_c, 1, 72, 100
3, 40608, Note_on_c, 1, 71, 64
3, 40700, Note_off_c, 1, 71, 100
3, 40704, Note_on_c, 1, 72, 64
3, 41176, Note_off_c, 1, 72, 100
3, 41184, Note_on_c, 1, 71, 64
3, 41276, Note_off_c, 1, 71, 100
3, 41280, Note_on_c, 1, 69, 64
3, 41372, Note_off_c, 1, 69, 100
3, 41376, Note_on_c, 1, 67, 64
3, 41468, Note_off_c, 1, 67, 100
3, 41472, Note_on_c, 1, 66, 64
3, 41944, Note_off_c, 1, 66, 100
3, 41952, Note_on_c, 1, 69, 64
3, 42044, Note_off_c, 1, 69, 100
3, 42048, Note_on_c, 1, 67, 64
3, 42140, Note_off_c, 1, 67, 100
3, 42144, Note_on_c, 1, 66, 64
3, 42236, Note_off_c, 1, 66, 100
3, 42240, Note_on_c, 1, 64, 64
3, 42620, Note_off_c, 1, 64, 100
3, 42624, Note_on_c, 1, 71, 64
3, 42880, Note_off_c, 1, 71, 100
3, 43104, Note_on_c, 1, 69, 64
3, 43196, Note_off_c, 1, 69, 100
3, 43200, Note_on_c, 1, 67, 64
3, 43292, Note_off_c, 1, 67, 100
3, 43296, Note_on_c, 1, 71, 64
3, 43388, Note_off_c, 1, 71, 100
3, 43392, Note_on_c, 1, 69, 64
3, 43484, Note_off_c, 1, 69, 100
3, 43488, Note_on_c, 1, 67, 64
3, 43580, Note_off_c, 1, 67, 100
3, 43584, Note_on_c, 1, 66, 64
3, 43676, Note_off_c, 1, 66, 100
3, 43680, Note_on_c, 1, 64, 64
3, 43772, Note_off_c, 1, 64, 100
3, 43776, Note_on_c, 1, 62, 64
3, 44156, Note_off_c, 1, 62, 100
3, 44160, Note_on_c, 1, 67, 64
3, 44416, Note_off_c, 1, 67, 100
3, 44640, Note_on_c, 1, 66, 64
3, 44732, Note_off_c, 1, 66, 100
3, 44736, Note_on_c, 1, 64, 64
3, 44828, Note_off_c, 1, 64, 100
3, 44832, Note_on_c, 1, 67, 64
3, 44924, Note_off_c, 1, 67, 100
3, 44928, Note_on_c, 1, 66, 64
3, 45020, Note_off_c, 1, 66, 100
3, 45024, Note_on_c, 1, 64, 64
3, 45116, Note_off_c, 1, 64, 100
3, 45120, Note_on_c, 1, 62, 64
3, 45212, Note_off_c, 1, 62, 100
3, 45216, Note_on_c, 1, 60, 64
3, 45308, Note_off_c, 1, 60, 100
3, 45312, Note_on_c, 1, 62, 64
3, 45692, Note_off_c, 1, 62, 100
3, 46080, Note_on_c, 1, 71, 64
3, 46268, Note_off_c, 1, 71, 100
3, 46272, Note_on_c, 1, 67, 64
3, 46460, Note_off_c, 1, 67, 100
3, 46464, Note_on_c, 1, 71, 64
3, 46592, Note_off_c, 1, 71, 100
3, 46656, Note_on_c, 1, 74, 64
3, 46784, Note_off_c, 1, 74, 100
3, 46848, Note_on_c, 1, 79, 64
3, 47228, Note_off_c, 1, 79, 100
3, 47232, Note_on_c, 1, 84, 64
3, 47708, Note_off_c, 1, 84, 64
3, 47712, Note_on_c, 1, 83, 64
3, 47804, Note_off_c, 1, 83, 100
3, 47808, Note_on_c, 1, 81, 64
3, 47900, Note_off_c, 1, 81, 100
3, 47904, Note_on_c, 1, 84, 64
3, 47996, Note_off_c, 1, 84, 100
3, 48000, Note_on_c, 1, 83, 64
3, 48092, Note_off_c, 1, 83, 100
3, 48096, Note_on_c, 1, 81, 64
3, 48188, Note_off_c, 1, 81, 100
3, 48192, Note_on_c, 1, 79, 64
3, 48284, Note_off_c, 1, 79, 100
3, 48288, Note_on_c, 1, 78, 64
3, 48380, Note_off_c, 1, 78, 100
3, 48384, Note_on_c, 1, 79, 64
3, 48764, Note_off_c, 1, 79, 100
3, 48764, End_track
4, 0, Start_track
4, 0, Title_t, "BWV 988"
4, 0, Control_c, 2, 0, 0
4, 0, Program_c, 2, 6
4, 0, Control_c, 2, 7, 127
4, 0, Control_c, 2, 10, 64
4, 0, Control_c, 2, 91, 127
4, 0, Key_signature, 1, "major"
4, 0, Note_on_c, 2, 55, 64
4, 188, Note_off_c, 2, 55, 100
4, 192, Note_on_c, 2, 54, 64
4, 380, Note_off_c, 2, 54, 100
4, 384, Note_on_c, 2, 55, 64
4, 572, Note_off_c, 2, 55, 100
4, 576, Note_on_c, 2, 52, 64
4, 764, Note_off_c, 2, 52, 100
4, 768, Note_on_c, 2, 54, 64
4, 932, Note_off_c, 2, 54, 100
4, 960, Note_on_c, 2, 52, 64
4, 1148, Note_off_c, 2, 52, 100
4, 1152, Note_on_c, 2, 54, 64
4, 1340, Note_off_c, 2, 54, 100
4, 1344, Note_on_c, 2, 50, 64
4, 1532, Note_off_c, 2, 50, 100
4, 1536, Note_on_c, 2, 52, 64
4, 1700, Note_off_c, 2, 52, 100
4, 1728, Note_on_c, 2, 50, 64
4, 1916, Note_off_c, 2, 50, 100
4, 1920, Note_on_c, 2, 52, 64
4, 2108, Note_off_c, 2, 52, 100
4, 2112, Note_on_c, 2, 48, 64
4, 2276, Note_off_c, 2, 48, 100
4, 2304, Note_on_c, 2, 50, 64
4, 2492, Note_off_c, 2, 50, 100
4, 2496, Note_on_c, 2, 38, 64
4, 2556, Note_off_c, 2, 38, 100
4, 2688, Note_on_c, 2, 50, 64
4, 2780, Note_off_c, 2, 50, 100
4, 2784, Note_on_c, 2, 48, 64
4, 2876, Note_off_c, 2, 48, 100
4, 2880, Note_on_c, 2, 47, 64
4, 2972, Note_off_c, 2, 47, 100
4, 2976, Note_on_c, 2, 45, 64
4, 3068, Note_off_c, 2, 45, 100
4, 3072, Note_on_c, 2, 47, 64
4, 3236, Note_off_c, 2, 47, 100
4, 3264, Note_on_c, 2, 45, 64
4, 3452, Note_off_c, 2, 45, 100
4, 3456, Note_on_c, 2, 47, 64
4, 3644, Note_off_c, 2, 47, 100
4, 3648, Note_on_c, 2, 43, 64
4, 3836, Note_off_c, 2, 43, 100
4, 3840, Note_on_c, 2, 48, 64
4, 4004, Note_off_c, 2, 48, 100
4, 4032, Note_on_c, 2, 47, 64
4, 4220, Note_off_c, 2, 47, 100
4, 4224, Note_on_c, 2, 48, 64
4, 4412, Note_off_c, 2, 48, 100
4, 4416, Note_on_c, 2, 45, 64
4, 4604, Note_off_c, 2, 45, 100
4, 4608, Note_on_c, 2, 50, 64
4, 4772, Note_off_c, 2, 50, 100
4, 4800, Note_on_c, 2, 48, 64
4, 4988, Note_off_c, 2, 48, 100
4, 4992, Note_on_c, 2, 50, 64
4, 5180, Note_off_c, 2, 50, 100
4, 5184, Note_on_c, 2, 38, 64
4, 5372, Note_off_c, 2, 38, 100
4, 5376, Note_on_c, 2, 43, 64
4, 5436, Note_off_c, 2, 43, 100
4, 5568, Note_on_c, 2, 55, 64
4, 5696, Note_off_c, 2, 55, 100
4, 5760, Note_on_c, 2, 59, 64
4, 5888, Note_off_c, 2, 59, 100
4, 5952, Note_on_c, 2, 62, 64
4, 6080, Note_off_c, 2, 62, 100
4, 6144, Note_on_c, 2, 67, 64
4, 6308, Note_off_c, 2, 67, 100
4, 6336, Note_on_c, 2, 66, 64
4, 6500, Note_off_c, 2, 66, 100
4, 6528, Note_on_c, 2, 67, 64
4, 6692, Note_off_c, 2, 67, 100
4, 6720, Note_on_c, 2, 64, 64
4, 6884, Note_off_c, 2, 64, 100
4, 6912, Note_on_c, 2, 66, 64
4, 7076, Note_off_c, 2, 66, 100
4, 7104, Note_on_c, 2, 64, 64
4, 7292, Note_off_c, 2, 64, 100
4, 7296, Note_on_c, 2, 66, 64
4, 7484, Note_off_c, 2, 66, 100
4, 7488, Note_on_c, 2, 62, 64
4, 7676, Note_off_c, 2, 62, 100
4, 7680, Note_on_c, 2, 64, 64
4, 7844, Note_off_c, 2, 64, 100
4, 7872, Note_on_c, 2, 62, 64
4, 8060, Note_off_c, 2, 62, 100
4, 8064, Note_on_c, 2, 64, 64
4, 8252, Note_off_c, 2, 64, 100
4, 8256, Note_on_c, 2, 59, 64
4, 8444, Note_off_c, 2, 59, 100
4, 8448, Note_on_c, 2, 61, 64
4, 8576, Note_off_c, 2, 61, 100
4, 8640, Note_on_c, 2, 64, 64
4, 8732, Note_off_c, 2, 64, 100
4, 8736, Note_on_c, 2, 62, 64
4, 8828, Note_off_c, 2, 62, 100
4, 8832, Note_on_c, 2, 61, 64
4, 8924, Note_off_c, 2, 61, 100
4, 8928, Note_on_c, 2, 59, 64
4, 9020, Note_off_c, 2, 59, 100
4, 9024, Note_on_c, 2, 57, 64
4, 9116, Note_off_c, 2, 57, 100
4, 9120, Note_on_c, 2, 55, 64
4, 9212, Note_off_c, 2, 55, 100
4, 9216, Note_on_c, 2, 54, 64
4, 9380, Note_off_c, 2, 54, 100
4, 9408, Note_on_c, 2, 52, 64
4, 9596, Note_off_c, 2, 52, 100
4, 9600, Note_on_c, 2, 54, 64
4, 9788, Note_off_c, 2, 54, 100
4, 9792, Note_on_c, 2, 50, 64
4, 9980, Note_off_c, 2, 50, 100
4, 9984, Note_on_c, 2, 55, 64
4, 10148, Note_off_c, 2, 55, 100
4, 10176, Note_on_c, 2, 54, 64
4, 10364, Note_off_c, 2, 54, 100
4, 10368, Note_on_c, 2, 55, 64
4, 10556, Note_off_c, 2, 55, 100
4, 10560, Note_on_c, 2, 52, 64
4, 10748, Note_off_c, 2, 52, 100
4, 10752, Note_on_c, 2, 57, 64
4, 10916, Note_off_c, 2, 57, 100
4, 10944, Note_on_c, 2, 55, 64
4, 11132, Note_off_c, 2, 55, 100
4, 11136, Note_on_c, 2, 57, 64
4, 11324, Note_off_c, 2, 57, 100
4, 11328, Note_on_c, 2, 45, 64
4, 11516, Note_off_c, 2, 45, 100
4, 11520, Note_on_c, 2, 50, 64
4, 11648, Note_off_c, 2, 50, 100
4, 11712, Note_on_c, 2, 62, 64
4, 11804, Note_off_c, 2, 62, 100
4, 11808, Note_on_c, 2, 60, 64
4, 11900, Note_off_c, 2, 60, 100
4, 11904, Note_on_c, 2, 62, 64
4, 11996, Note_off_c, 2, 62, 100
4, 12000, Note_on_c, 2, 60, 64
4, 12092, Note_off_c, 2, 60, 100
4, 12096, Note_on_c, 2, 59, 64
4, 12188, Note_off_c, 2, 59, 100
4, 12192, Note_on_c, 2, 57, 64
4, 12284, Note_off_c, 2, 57, 100
4, 12288, Note_on_c, 2, 55, 64
4, 12476, Note_off_c, 2, 55, 100
4, 12480, Note_on_c, 2, 54, 64
4, 12668, Note_off_c, 2, 54, 100
4, 12672, Note_on_c, 2, 55, 64
4, 12860, Note_off_c, 2, 55, 100
4, 12864, Note_on_c, 2, 52, 64
4, 13052, Note_off_c, 2, 52, 100
4, 13056, Note_on_c, 2, 54, 64
4, 13220, Note_off_c, 2, 54, 100
4, 13248, Note_on_c, 2, 52, 64
4, 13436, Note_off_c, 2, 52, 100
4, 13440, Note_on_c, 2, 54, 64
4, 13628, Note_off_c, 2, 54, 100
4, 13632, Note_on_c, 2, 50, 64
4, 13820, Note_off_c, 2, 50, 100
4, 13824, Note_on_c, 2, 52, 64
4, 13988, Note_off_c, 2, 52, 100
4, 14016, Note_on_c, 2, 50, 64
4, 14204, Note_off_c, 2, 50, 100
4, 14208, Note_on_c, 2, 52, 64
4, 14396, Note_off_c, 2, 52, 100
4, 14400, Note_on_c, 2, 48, 64
4, 14564, Note_off_c, 2, 48, 100
4, 14592, Note_on_c, 2, 50, 64
4, 14780, Note_off_c, 2, 50, 100
4, 14784, Note_on_c, 2, 38, 64
4, 14844, Note_off_c, 2, 38, 100
4, 14976, Note_on_c, 2, 50, 64
4, 15068, Note_off_c, 2, 50, 100
4, 15072, Note_on_c, 2, 48, 64
4, 15164, Note_off_c, 2, 48, 100
4, 15168, Note_on_c, 2, 47, 64
4, 15260, Note_off_c, 2, 47, 100
4, 15264, Note_on_c, 2, 45, 64
4, 15356, Note_off_c, 2, 45, 100
4, 15360, Note_on_c, 2, 47, 64
4, 15524, Note_off_c, 2, 47, 100
4, 15552, Note_on_c, 2, 45, 64
4, 15740, Note_off_c, 2, 45, 100
4, 15744, Note_on_c, 2, 47, 64
4, 15932, Note_off_c, 2, 47, 100
4, 15936, Note_on_c, 2, 43, 64
4, 16124, Note_off_c, 2, 43, 100
4, 16128, Note_on_c, 2, 48, 64
4, 16292, Note_off_c, 2, 48, 100
4, 16320, Note_on_c, 2, 47, 64
4, 16508, Note_off_c, 2, 47, 100
4, 16512, Note_on_c, 2, 48, 64
4, 16700, Note_off_c, 2, 48, 100
4, 16704, Note_on_c, 2, 45, 64
4, 16892, Note_off_c, 2, 45, 100
4, 16896, Note_on_c, 2, 50, 64
4, 17060, Note_off_c, 2, 50, 100
4, 17088, Note_on_c, 2, 48, 64
4, 17276, Note_off_c, 2, 48, 100
4, 17280, Note_on_c, 2, 50, 64
4, 17468, Note_off_c, 2, 50, 100
4, 17472, Note_on_c, 2, 38, 64
4, 17660, Note_off_c, 2, 38, 100
4, 17664, Note_on_c, 2, 43, 64
4, 17724, Note_off_c, 2, 43, 100
4, 17856, Note_on_c, 2, 55, 64
4, 17984, Note_off_c, 2, 55, 100
4, 18048, Note_on_c, 2, 59, 64
4, 18176, Note_off_c, 2, 59, 100
4, 18240, Note_on_c, 2, 62, 64
4, 18368, Note_off_c, 2, 62, 100
4, 18432, Note_on_c, 2, 67, 64
4, 18596, Note_off_c, 2, 67, 100
4, 18624, Note_on_c, 2, 66, 64
4, 18788, Note_off_c, 2, 66, 100
4, 18816, Note_on_c, 2, 67, 64
4, 18980, Note_off_c, 2, 67, 100
4, 19008, Note_on_c, 2, 64, 64
4, 19172, Note_off_c, 2, 64, 100
4, 19200, Note_on_c, 2, 66, 64
4, 19364, Note_off_c, 2, 66, 100
4, 19392, Note_on_c, 2, 64, 64
4, 19580, Note_off_c, 2, 64, 100
4, 19584, Note_on_c, 2, 66, 64
4, 19772, Note_off_c, 2, 66, 100
4, 19776, Note_on_c, 2, 62, 64
4, 19964, Note_off_c, 2, 62, 100
4, 19968, Note_on_c, 2, 64, 64
4, 20132, Note_off_c, 2, 64, 100
4, 20160, Note_on_c, 2, 62, 64
4, 20348, Note_off_c, 2, 62, 100
4, 20352, Note_on_c, 2, 64, 64
4, 20540, Note_off_c, 2, 64, 100
4, 20544, Note_on_c, 2, 59, 64
4, 20732, Note_off_c, 2, 59, 100
4, 20736, Note_on_c, 2, 61, 64
4, 20864, Note_off_c, 2, 61, 100
4, 20928, Note_on_c, 2, 64, 64
4, 21020, Note_off_c, 2, 64, 100
4, 21024, Note_on_c, 2, 62, 64
4, 21116, Note_off_c, 2, 62, 100
4, 21120, Note_on_c, 2, 61, 64
4, 21212, Note_off_c, 2, 61, 100
4, 21216, Note_on_c, 2, 59, 64
4, 21308, Note_off_c, 2, 59, 100
4, 21312, Note_on_c, 2, 57, 64
4, 21404, Note_off_c, 2, 57, 100
4, 21408, Note_on_c, 2, 55, 64
4, 21500, Note_off_c, 2, 55, 100
4, 21504, Note_on_c, 2, 54, 64
4, 21668, Note_off_c, 2, 54, 100
4, 21696, Note_on_c, 2, 52, 64
4, 21884, Note_off_c, 2, 52, 100
4, 21888, Note_on_c, 2, 54, 64
4, 22076, Note_off_c, 2, 54, 100
4, 22080, Note_on_c, 2, 50, 64
4, 22268, Note_off_c, 2, 50, 100
4, 22272, Note_on_c, 2, 55, 64
4, 22436, Note_off_c, 2, 55, 100
4, 22464, Note_on_c, 2, 54, 64
4, 22652, Note_off_c, 2, 54, 100
4, 22656, Note_on_c, 2, 55, 64
4, 22844, Note_off_c, 2, 55, 100
4, 22848, Note_on_c, 2, 52, 64
4, 23036, Note_off_c, 2, 52, 100
4, 23040, Note_on_c, 2, 57, 64
4, 23204, Note_off_c, 2, 57, 100
4, 23232, Note_on_c, 2, 55, 64
4, 23420, Note_off_c, 2, 55, 100
4, 23424, Note_on_c, 2, 57, 64
4, 23612, Note_off_c, 2, 57, 100
4, 23616, Note_on_c, 2, 45, 64
4, 23804, Note_off_c, 2, 45, 100
4, 23808, Note_on_c, 2, 50, 64
4, 23868, Note_off_c, 2, 50, 100
4, 24000, Note_on_c, 2, 45, 64
4, 24060, Note_off_c, 2, 45, 100
4, 24192, Note_on_c, 2, 38, 64
4, 24448, Note_off_c, 2, 38, 100
4, 24576, Note_on_c, 2, 62, 64
4, 24764, Note_off_c, 2, 62, 100
4, 24768, Note_on_c, 2, 61, 64
4, 24956, Note_off_c, 2, 61, 100
4, 24960, Note_on_c, 2, 62, 64
4, 25148, Note_off_c, 2, 62, 100
4, 25152, Note_on_c, 2, 57, 64
4, 25340, Note_off_c, 2, 57, 100
4, 25344, Note_on_c, 2, 59, 64
4, 25532, Note_off_c, 2, 59, 100
4, 25536, Note_on_c, 2, 57, 64
4, 25724, Note_off_c, 2, 57, 100
4, 25728, Note_on_c, 2, 59, 64
4, 25916, Note_off_c, 2, 59, 100
4, 25920, Note_on_c, 2, 55, 64
4, 26108, Note_off_c, 2, 55, 100
4, 26112, Note_on_c, 2, 60, 64
4, 26176, Note_off_c, 2, 60, 100
4, 26208, Note_on_c, 2, 48, 64
4, 26300, Note_off_c, 2, 48, 100
4, 26304, Note_on_c, 2, 47, 64
4, 26396, Note_off_c, 2, 47, 100
4, 26400, Note_on_c, 2, 50, 64
4, 26492, Note_off_c, 2, 50, 100
4, 26496, Note_on_c, 2, 48, 64
4, 26588, Note_off_c, 2, 48, 100
4, 26592, Note_on_c, 2, 47, 64
4, 26684, Note_off_c, 2, 47, 100
4, 26688, Note_on_c, 2, 45, 64
4, 26780, Note_off_c, 2, 45, 100
4, 26784, Note_on_c, 2, 48, 64
4, 26876, Note_off_c, 2, 48, 100
4, 26880, Note_on_c, 2, 47, 64
4, 26944, Note_off_c, 2, 47, 100
4, 26976, Note_on_c, 2, 59, 64
4, 27068, Note_off_c, 2, 59, 100
4, 27072, Note_on_c, 2, 57, 64
4, 27164, Note_off_c, 2, 57, 100
4, 27168, Note_on_c, 2, 60, 64
4, 27260, Note_off_c, 2, 60, 100
4, 27264, Note_on_c, 2, 59, 64
4, 27356, Note_off_c, 2, 59, 100
4, 27360, Note_on_c, 2, 57, 64
4, 27452, Note_off_c, 2, 57, 100
4, 27456, Note_on_c, 2, 55, 64
4, 27548, Note_off_c, 2, 55, 100
4, 27552, Note_on_c, 2, 54, 64
4, 27644, Note_off_c, 2, 54, 100
4, 27648, Note_on_c, 2, 55, 64
4, 27812, Note_off_c, 2, 55, 100
4, 27840, Note_on_c, 2, 54, 64
4, 28028, Note_off_c, 2, 54, 100
4, 28032, Note_on_c, 2, 55, 64
4, 28220, Note_off_c, 2, 55, 100
4, 28224, Note_on_c, 2, 52, 64
4, 28412, Note_off_c, 2, 52, 100
4, 28416, Note_on_c, 2, 57, 64
4, 28580, Note_off_c, 2, 57, 100
4, 28608, Note_on_c, 2, 55, 64
4, 28796, Note_off_c, 2, 55, 100
4, 28800, Note_on_c, 2, 57, 64
4, 28988, Note_off_c, 2, 57, 100
4, 28992, Note_on_c, 2, 54, 64
4, 29180, Note_off_c, 2, 54, 100
4, 29184, Note_on_c, 2, 59, 64
4, 29348, Note_off_c, 2, 59, 100
4, 29376, Note_on_c, 2, 58, 64
4, 29564, Note_off_c, 2, 58, 100
4, 29568, Note_on_c, 2, 59, 64
4, 29756, Note_off_c, 2, 59, 100
4, 29760, Note_on_c, 2, 47, 64
4, 29948, Note_off_c, 2, 47, 100
4, 29952, Note_on_c, 2, 40, 64
4, 30016, Note_off_c, 2, 40, 100
4, 30048, Note_on_c, 2, 52, 64
4, 30140, Note_off_c, 2, 52, 100
4, 30144, Note_on_c, 2, 51, 64
4, 30236, Note_off_c, 2, 51, 100
4, 30240, Note_on_c, 2, 54, 64
4, 30332, Note_off_c, 2, 54, 100
4, 30336, Note_on_c, 2, 52, 64
4, 30428, Note_off_c, 2, 52, 100
4, 30432, Note_on_c, 2, 50, 64
4, 30524, Note_off_c, 2, 50, 100
4, 30528, Note_on_c, 2, 48, 64
4, 30620, Note_off_c, 2, 48, 100
4, 30624, Note_on_c, 2, 47, 64
4, 30716, Note_off_c, 2, 47, 100
4, 30720, Note_on_c, 2, 48, 64
4, 30884, Note_off_c, 2, 48, 100
4, 30912, Note_on_c, 2, 47, 64
4, 31100, Note_off_c, 2, 47, 100
4, 31104, Note_on_c, 2, 48, 64
4, 31292, Note_off_c, 2, 48, 100
4, 31296, Note_on_c, 2, 57, 64
4, 31484, Note_off_c, 2, 57, 100
4, 31488, Note_on_c, 2, 47, 64
4, 31652, Note_off_c, 2, 47, 100
4, 31680, Note_on_c, 2, 45, 64
4, 31868, Note_off_c, 2, 45, 100
4, 31872, Note_on_c, 2, 47, 64
4, 32060, Note_off_c, 2, 47, 100
4, 32064, Note_on_c, 2, 55, 64
4, 32252, Note_off_c, 2, 55, 100
4, 32256, Note_on_c, 2, 45, 64
4, 32420, Note_off_c, 2, 45, 100
4, 32448, Note_on_c, 2, 43, 64
4, 32636, Note_off_c, 2, 43, 100
4, 32640, Note_on_c, 2, 45, 64
4, 32828, Note_off_c, 2, 45, 100
4, 32832, Note_on_c, 2, 55, 64
4, 33020, Note_off_c, 2, 55, 100
4, 33024, Note_on_c, 2, 54, 64
4, 33088, Note_off_c, 2, 54, 100
4, 33120, Note_on_c, 2, 50, 64
4, 33212, Note_off_c, 2, 50, 100
4, 33216, Note_on_c, 2, 48, 64
4, 33308, Note_off_c, 2, 48, 100
4, 33312, Note_on_c, 2, 52, 64
4, 33404, Note_off_c, 2, 52, 100
4, 33408, Note_on_c, 2, 50, 64
4, 33500, Note_off_c, 2, 50, 100
4, 33504, Note_on_c, 2, 48, 64
4, 33596, Note_off_c, 2, 48, 100
4, 33600, Note_on_c, 2, 47, 64
4, 33692, Note_off_c, 2, 47, 100
4, 33696, Note_on_c, 2, 45, 64
4, 33788, Note_off_c, 2, 45, 100
4, 33792, Note_on_c, 2, 43, 64
4, 33856, Note_off_c, 2, 43, 100
4, 33888, Note_on_c, 2, 55, 64
4, 33980, Note_off_c, 2, 55, 100
4, 33984, Note_on_c, 2, 54, 64
4, 34076, Note_off_c, 2, 54, 100
4, 34080, Note_on_c, 2, 57, 64
4, 34172, Note_off_c, 2, 57, 100
4, 34176, Note_on_c, 2, 55, 64
4, 34268, Note_off_c, 2, 55, 100
4, 34272, Note_on_c, 2, 53, 64
4, 34364, Note_off_c, 2, 53, 100
4, 34368, Note_on_c, 2, 52, 64
4, 34460, Note_off_c, 2, 52, 100
4, 34464, Note_on_c, 2, 50, 64
4, 34556, Note_off_c, 2, 50, 100
4, 34560, Note_on_c, 2, 48, 64
4, 34624, Note_off_c, 2, 48, 100
4, 34656, Note_on_c, 2, 60, 64
4, 34748, Note_off_c, 2, 60, 100
4, 34752, Note_on_c, 2, 59, 64
4, 34844, Note_off_c, 2, 59, 100
4, 34848, Note_on_c, 2, 62, 64
4, 34940, Note_off_c, 2, 62, 100
4, 34944, Note_on_c, 2, 60, 64
4, 35036, Note_off_c, 2, 60, 100
4, 35040, Note_on_c, 2, 59, 64
4, 35132, Note_off_c, 2, 59, 100
4, 35136, Note_on_c, 2, 57, 64
4, 35228, Note_off_c, 2, 57, 100
4, 35232, Note_on_c, 2, 55, 64
4, 35324, Note_off_c, 2, 55, 100
4, 35328, Note_on_c, 2, 54, 64
4, 35420, Note_off_c, 2, 54, 100
4, 35424, Note_on_c, 2, 55, 64
4, 35516, Note_off_c, 2, 55, 100
4, 35520, Note_on_c, 2, 54, 64
4, 35612, Note_off_c, 2, 54, 100
4, 35616, Note_on_c, 2, 55, 64
4, 35680, Note_off_c, 2, 55, 100
4, 35712, Note_on_c, 2, 47, 64
4, 35840, Note_off_c, 2, 47, 100
4, 35904, Note_on_c, 2, 50, 64
4, 36032, Note_off_c, 2, 50, 100
4, 36096, Note_on_c, 2, 43, 64
4, 36224, Note_off_c, 2, 43, 100
4, 36288, Note_on_c, 2, 55, 64
4, 36380, Note_off_c, 2, 55, 100
4, 36384, Note_on_c, 2, 54, 64
4, 36476, Note_off_c, 2, 54, 100
4, 36480, Note_on_c, 2, 55, 64
4, 36572, Note_off_c, 2, 55, 100
4, 36576, Note_on_c, 2, 57, 64
4, 36668, Note_off_c, 2, 57, 100
4, 36672, Note_on_c, 2, 59, 64
4, 36764, Note_off_c, 2, 59, 100
4, 36768, Note_on_c, 2, 60, 64
4, 36860, Note_off_c, 2, 60, 100
4, 36864, Note_on_c, 2, 62, 64
4, 37052, Note_off_c, 2, 62, 100
4, 37056, Note_on_c, 2, 61, 64
4, 37244, Note_off_c, 2, 61, 100
4, 37248, Note_on_c, 2, 62, 64
4, 37436, Note_off_c, 2, 62, 100
4, 37440, Note_on_c, 2, 57, 64
4, 37628, Note_off_c, 2, 57, 100
4, 37632, Note_on_c, 2, 59, 64
4, 37820, Note_off_c, 2, 59, 100
4, 37824, Note_on_c, 2, 57, 64
4, 38012, Note_off_c, 2, 57, 100
4, 38016, Note_on_c, 2, 59, 64
4, 38204, Note_off_c, 2, 59, 100
4, 38208, Note_on_c, 2, 55, 64
4, 38396, Note_off_c, 2, 55, 100
4, 38400, Note_on_c, 2, 60, 64
4, 38464, Note_off_c, 2, 60, 100
4, 38496, Note_on_c, 2, 48, 64
4, 38588, Note_off_c, 2, 48, 100
4, 38592, Note_on_c, 2, 47, 64
4, 38684, Note_off_c, 2, 47, 100
4, 38688, Note_on_c, 2, 50, 64
4, 38780, Note_off_c, 2, 50, 100
4, 38784, Note_on_c, 2, 48, 64
4, 38876, Note_off_c, 2, 48, 100
4, 38880, Note_on_c, 2, 47, 64
4, 38972, Note_off_c, 2, 47, 100
4, 38976, Note_on_c, 2, 45, 64
4, 39068, Note_off_c, 2, 45, 100
4, 39072, Note_on_c, 2, 48, 64
4, 39164, Note_off_c, 2, 48, 100
4, 39168, Note_on_c, 2, 47, 64
4, 39232, Note_off_c, 2, 47, 100
4, 39264, Note_on_c, 2, 59, 64
4, 39356, Note_off_c, 2, 59, 100
4, 39360, Note_on_c, 2, 57, 64
4, 39452, Note_off_c, 2, 57, 100
4, 39456, Note_on_c, 2, 60, 64
4, 39548, Note_off_c, 2, 60, 100
4, 39552, Note_on_c, 2, 59, 64
4, 39644, Note_off_c, 2, 59, 100
4, 39648, Note_on_c, 2, 57, 64
4, 39740, Note_off_c, 2, 57, 100
4, 39744, Note_on_c, 2, 55, 64
4, 39836, Note_off_c, 2, 55, 100
4, 39840, Note_on_c, 2, 54, 64
4, 39932, Note_off_c, 2, 54, 100
4, 39936, Note_on_c, 2, 55, 64
4, 40100, Note_off_c, 2, 55, 100
4, 40128, Note_on_c, 2, 54, 64
4, 40316, Note_off_c, 2, 54, 100
4, 40320, Note_on_c, 2, 55, 64
4, 40508, Note_off_c, 2, 55, 100
4, 40512, Note_on_c, 2, 52, 64
4, 40700, Note_off_c, 2, 52, 100
4, 40704, Note_on_c, 2, 57, 64
4, 40868, Note_off_c, 2, 57, 100
4, 40896, Note_on_c, 2, 55, 64
4, 41084, Note_off_c, 2, 55, 100
4, 41088, Note_on_c, 2, 57, 64
4, 41276, Note_off_c, 2, 57, 100
4, 41280, Note_on_c, 2, 54, 64
4, 41468, Note_off_c, 2, 54, 100
4, 41472, Note_on_c, 2, 59, 64
4, 41636, Note_off_c, 2, 59, 100
4, 41664, Note_on_c, 2, 58, 64
4, 41852, Note_off_c, 2, 58, 100
4, 41856, Note_on_c, 2, 59, 64
4, 42044, Note_off_c, 2, 59, 100
4, 42048, Note_on_c, 2, 47, 64
4, 42236, Note_off_c, 2, 47, 100
4, 42240, Note_on_c, 2, 40, 64
4, 42304, Note_off_c, 2, 40, 100
4, 42336, Note_on_c, 2, 52, 64
4, 42428, Note_off_c, 2, 52, 100
4, 42432, Note_on_c, 2, 51, 64
4, 42524, Note_off_c, 2, 51, 100
4, 42528, Note_on_c, 2, 54, 64
4, 42620, Note_off_c, 2, 54, 100
4, 42624, Note_on_c, 2, 52, 64
4, 42716, Note_off_c, 2, 52, 100
4, 42720, Note_on_c, 2, 50, 64
4, 42812, Note_off_c, 2, 50, 100
4, 42816, Note_on_c, 2, 48, 64
4, 42908, Note_off_c, 2, 48, 100
4, 42912, Note_on_c, 2, 47, 64
4, 43004, Note_off_c, 2, 47, 100
4, 43008, Note_on_c, 2, 48, 64
4, 43172, Note_off_c, 2, 48, 100
4, 43200, Note_on_c, 2, 47, 64
4, 43388, Note_off_c, 2, 47, 100
4, 43392, Note_on_c, 2, 48, 64
4, 43580, Note_off_c, 2, 48, 100
4, 43584, Note_on_c, 2, 57, 64
4, 43772, Note_off_c, 2, 57, 100
4, 43776, Note_on_c, 2, 47, 64
4, 43940, Note_off_c, 2, 47, 100
4, 43968, Note_on_c, 2, 45, 64
4, 44156, Note_off_c, 2, 45, 100
4, 44160, Note_on_c, 2, 47, 64
4, 44348, Note_off_c, 2, 47, 100
4, 44352, Note_on_c, 2, 55, 64
4, 44540, Note_off_c, 2, 55, 100
4, 44544, Note_on_c, 2, 45, 64
4, 44708, Note_off_c, 2, 45, 100
4, 44736, Note_on_c, 2, 43, 64
4, 44924, Note_off_c, 2, 43, 100
4, 44928, Note_on_c, 2, 45, 64
4, 45116, Note_off_c, 2, 45, 100
4, 45120, Note_on_c, 2, 55, 64
4, 45308, Note_off_c, 2, 55, 100
4, 45312, Note_on_c, 2, 54, 64
4, 45376, Note_off_c, 2, 54, 100
4, 45408, Note_on_c, 2, 50, 64
4, 45500, Note_off_c, 2, 50, 100
4, 45504, Note_on_c, 2, 48, 64
4, 45596, Note_off_c, 2, 48, 100
4, 45600, Note_on_c, 2, 52, 64
4, 45692, Note_off_c, 2, 52, 100
4, 45696, Note_on_c, 2, 50, 64
4, 45788, Note_off_c, 2, 50, 100
4, 45792, Note_on_c, 2, 48, 64
4, 45884, Note_off_c, 2, 48, 100
4, 45888, Note_on_c, 2, 47, 64
4, 45980, Note_off_c, 2, 47, 100
4, 45984, Note_on_c, 2, 45, 64
4, 46076, Note_off_c, 2, 45, 100
4, 46080, Note_on_c, 2, 43, 64
4, 46144, Note_off_c, 2, 43, 100
4, 46176, Note_on_c, 2, 55, 64
4, 46268, Note_off_c, 2, 55, 100
4, 46272, Note_on_c, 2, 54, 64
4, 46364, Note_off_c, 2, 54, 100
4, 46368, Note_on_c, 2, 57, 64
4, 46460, Note_off_c, 2, 57, 100
4, 46464, Note_on_c, 2, 55, 64
4, 46556, Note_off_c, 2, 55, 100
4, 46560, Note_on_c, 2, 53, 64
4, 46652, Note_off_c, 2, 53, 100
4, 46656, Note_on_c, 2, 52, 64
4, 46748, Note_off_c, 2, 52, 100
4, 46752, Note_on_c, 2, 50, 64
4, 46844, Note_off_c, 2, 50, 100
4, 46848, Note_on_c, 2, 48, 64
4, 46912, Note_off_c, 2, 48, 100
4, 46944, Note_on_c, 2, 60, 64
4, 47036, Note_off_c, 2, 60, 100
4, 47040, Note_on_c, 2, 59, 64
4, 47132, Note_off_c, 2, 59, 100
4, 47136, Note_on_c, 2, 62, 64
4, 47228, Note_off_c, 2, 62, 100
4, 47232, Note_on_c, 2, 60, 64
4, 47324, Note_off_c, 2, 60, 100
4, 47328, Note_on_c, 2, 59, 64
4, 47420, Note_off_c, 2, 59, 100
4, 47424, Note_on_c, 2, 57, 64
4, 47516, Note_off_c, 2, 57, 100
4, 47520, Note_on_c, 2, 55, 64
4, 47612, Note_off_c, 2, 55, 100
4, 47616, Note_on_c, 2, 54, 64
4, 47708, Note_off_c, 2, 54, 100
4, 47712, Note_on_c, 2, 55, 64
4, 47804, Note_off_c, 2, 55, 100
4, 47808, Note_on_c, 2, 54, 64
4, 47900, Note_off_c, 2, 54, 100
4, 47904, Note_on_c, 2, 55, 64
4, 47968, Note_off_c, 2, 55, 100
4, 48000, Note_on_c, 2, 47, 64
4, 48128, Note_off_c, 2, 47, 100
4, 48192, Note_on_c, 2, 50, 64
4, 48320, Note_off_c, 2, 50, 100
4, 48384, Note_on_c, 2, 55, 64
4, 48444, Note_off_c, 2, 55, 100
4, 48576, Note_on_c, 2, 50, 64
4, 48636, Note_off_c, 2, 50, 100
4, 48768, Note_on_c, 2, 43, 64
4, 49024, Note_off_c, 2, 43, 100
4, 49024, End_track
5, 0, Start_track
5, 0, Title_t, "Var.II: Andantino"
5, 0, Control_c, 3, 0, 0
5, 0, Program_c, 3, 6
5, 0, Control_c, 3, 7, 127
5, 0, Control_c, 3, 10, 89
5, 0, Control_c, 3, 91, 127
5, 0, Key_signature, 1, "major"
5, 0, Note_on_c, 3, 83, 127
5, 380, Note_off_c, 3, 83, 100
5, 384, Note_on_c, 3, 88, 127
5, 420, Note_off_c, 3, 88, 100
5, 424, Note_on_c, 3, 86, 127
5, 460, Note_off_c, 3, 86, 100
5, 464, Note_on_c, 3, 88, 127
5, 956, Note_off_c, 3, 88, 100
5, 960, Note_on_c, 3, 86, 127
5, 1052, Note_off_c, 3, 86, 100
5, 1056, Note_on_c, 3, 84, 127
5, 1148, Note_off_c, 3, 84, 100
5, 1152, Note_on_c, 3, 86, 127
5, 1244, Note_off_c, 3, 86, 100
5, 1248, Note_on_c, 3, 84, 127
5, 1340, Note_off_c, 3, 84, 100
5, 1344, Note_on_c, 3, 83, 127
5, 1436, Note_off_c, 3, 83, 100
5, 1440, Note_on_c, 3, 81, 127
5, 1532, Note_off_c, 3, 81, 100
5, 1536, Note_on_c, 3, 79, 127
5, 1916, Note_off_c, 3, 79, 100
5, 2112, Note_on_c, 3, 93, 127
5, 2300, Note_off_c, 3, 93, 100
5, 2304, Note_on_c, 3, 90, 127
5, 2492, Note_off_c, 3, 90, 100
5, 2496, Note_on_c, 3, 86, 127
5, 2684, Note_off_c, 3, 86, 100
5, 3168, Note_on_c, 3, 86, 127
5, 3260, Note_off_c, 3, 86, 100
5, 3264, Note_on_c, 3, 84, 127
5, 3356, Note_off_c, 3, 84, 100
5, 3360, Note_on_c, 3, 88, 127
5, 3452, Note_off_c, 3, 88, 100
5, 3456, Note_on_c, 3, 86, 127
5, 3584, Note_off_c, 3, 86, 100
5, 3648, Note_on_c, 3, 83, 127
5, 3932, Note_off_c, 3, 83, 100
5, 3936, Note_on_c, 3, 81, 127
5, 4028, Note_off_c, 3, 81, 100
5, 4032, Note_on_c, 3, 79, 127
5, 4124, Note_off_c, 3, 79, 100
5, 4128, Note_on_c, 3, 83, 127
5, 4220, Note_off_c, 3, 83, 100
5, 4224, Note_on_c, 3, 81, 127
5, 4352, Note_off_c, 3, 81, 100
5, 4416, Note_on_c, 3, 79, 127
5, 4700, Note_off_c, 3, 79, 100
5, 4704, Note_on_c, 3, 78, 127
5, 4796, Note_off_c, 3, 78, 100
5, 4800, Note_on_c, 3, 76, 127
5, 4892, Note_off_c, 3, 76, 100
5, 4896, Note_on_c, 3, 79, 127
5, 4988, Note_off_c, 3, 79, 100
5, 4992, Note_on_c, 3, 78, 127
5, 5372, Note_off_c, 3, 78, 100
5, 5376, Note_on_c, 3, 83, 127
5, 5440, Note_off_c, 3, 83, 100
5, 5472, Note_on_c, 3, 91, 127
5, 5564, Note_off_c, 3, 91, 100
5, 5568, Note_on_c, 3, 90, 127
5, 5660, Note_off_c, 3, 90, 100
5, 5664, Note_on_c, 3, 93, 127
5, 5756, Note_off_c, 3, 93, 100
5, 5760, Note_on_c, 3, 91, 127
5, 5852, Note_off_c, 3, 91, 100
5, 5856, Note_on_c, 3, 90, 127
5, 5948, Note_off_c, 3, 90, 100
5, 5952, Note_on_c, 3, 88, 127
5, 6044, Note_off_c, 3, 88, 100
5, 6048, Note_on_c, 3, 86, 127
5, 6140, Note_off_c, 3, 86, 100
5, 6144, Note_on_c, 3, 96, 127
5, 6332, Note_off_c, 3, 96, 100
5, 6336, Note_on_c, 3, 95, 127
5, 6524, Note_off_c, 3, 95, 100
5, 7680, Note_on_c, 3, 83, 127
5, 7772, Note_off_c, 3, 83, 100
5, 7776, Note_on_c, 3, 87, 127
5, 7868, Note_off_c, 3, 87, 100
5, 7872, Note_on_c, 3, 88, 127
5, 7952, Note_off_c, 3, 88, 100
5, 7968, Note_on_c, 3, 91, 127
5, 8060, Note_off_c, 3, 91, 100
5, 8064, Note_on_c, 3, 95, 127
5, 8540, Note_off_c, 3, 95, 100
5, 8544, Note_on_c, 3, 93, 127
5, 8636, Note_off_c, 3, 93, 100
5, 8640, Note_on_c, 3, 91, 127
5, 8732, Note_off_c, 3, 91, 100
5, 8736, Note_on_c, 3, 95, 127
5, 8828, Note_off_c, 3, 95, 100
5, 8832, Note_on_c, 3, 93, 127
5, 8924, Note_off_c, 3, 93, 100
5, 8928, Note_on_c, 3, 91, 127
5, 9020, Note_off_c, 3, 91, 100
5, 9024, Note_on_c, 3, 90, 127
5, 9116, Note_off_c, 3, 90, 100
5, 9120, Note_on_c, 3, 88, 127
5, 9212, Note_off_c, 3, 88, 100
5, 9216, Note_on_c, 3, 86, 127
5, 9596, Note_off_c, 3, 86, 100
5, 9696, Note_on_c, 3, 84, 127
5, 9788, Note_off_c, 3, 84, 100
5, 9792, Note_on_c, 3, 83, 127
5, 9884, Note_off_c, 3, 83, 100
5, 9888, Note_on_c, 3, 81, 127
5, 9980, Note_off_c, 3, 81, 100
5, 9984, Note_on_c, 3, 83, 127
5, 10364, Note_off_c, 3, 83, 100
5, 10464, Note_on_c, 3, 81, 127
5, 10556, Note_off_c, 3, 81, 100
5, 10560, Note_on_c, 3, 79, 127
5, 10652, Note_off_c, 3, 79, 100
5, 10656, Note_on_c, 3, 78, 127
5, 10748, Note_off_c, 3, 78, 100
5, 10752, Note_on_c, 3, 76, 127
5, 11132, Note_off_c, 3, 76, 100
5, 11232, Note_on_c, 3, 79, 127
5, 11324, Note_off_c, 3, 79, 100
5, 11328, Note_on_c, 3, 78, 127
5, 11420, Note_off_c, 3, 78, 100
5, 11424, Note_on_c, 3, 76, 127
5, 11516, Note_off_c, 3, 76, 100
5, 11520, Note_on_c, 3, 74, 127
5, 11708, Note_off_c, 3, 74, 100
5, 12288, Note_on_c, 3, 83, 127
5, 12668, Note_off_c, 3, 83, 100
5, 12672, Note_on_c, 3, 88, 127
5, 12708, Note_off_c, 3, 88, 100
5, 12712, Note_on_c, 3, 86, 127
5, 12748, Note_off_c, 3, 86, 100
5, 12752, Note_on_c, 3, 88, 127
5, 13244, Note_off_c, 3, 88, 64
5, 13248, Note_on_c, 3, 86, 127
5, 13340, Note_off_c, 3, 86, 100
5, 13344, Note_on_c, 3, 84, 127
5, 13436, Note_off_c, 3, 84, 100
5, 13440, Note_on_c, 3, 86, 127
5, 13532, Note_off_c, 3, 86, 100
5, 13536, Note_on_c, 3, 84, 127
5, 13628, Note_off_c, 3, 84, 100
5, 13632, Note_on_c, 3, 83, 127
5, 13724, Note_off_c, 3, 83, 100
5, 13728, Note_on_c, 3, 81, 127
5, 13820, Note_off_c, 3, 81, 100
5, 13824, Note_on_c, 3, 79, 127
5, 14204, Note_off_c, 3, 79, 100
5, 14400, Note_on_c, 3, 93, 127
5, 14588, Note_off_c, 3, 93, 100
5, 14592, Note_on_c, 3, 90, 127
5, 14780, Note_off_c, 3, 90, 100
5, 14784, Note_on_c, 3, 86, 127
5, 14972, Note_off_c, 3, 86, 100
5, 15456, Note_on_c, 3, 86, 127
5, 15548, Note_off_c, 3, 86, 100
5, 15552, Note_on_c, 3, 84, 127
5, 15644, Note_off_c, 3, 84, 100
5, 15648, Note_on_c, 3, 88, 127
5, 15740, Note_off_c, 3, 88, 100
5, 15744, Note_on_c, 3, 86, 127
5, 15872, Note_off_c, 3, 86, 100
5, 15936, Note_on_c, 3, 83, 127
5, 16220, Note_off_c, 3, 83, 64
5, 16224, Note_on_c, 3, 81, 127
5, 16316, Note_off_c, 3, 81, 100
5, 16320, Note_on_c, 3, 79, 127
5, 16412, Note_off_c, 3, 79, 100
5, 16416, Note_on_c, 3, 83, 127
5, 16508, Note_off_c, 3, 83, 100
5, 16512, Note_on_c, 3, 81, 127
5, 16640, Note_off_c, 3, 81, 100
5, 16704, Note_on_c, 3, 79, 127
5, 16988, Note_off_c, 3, 79, 64
5, 16992, Note_on_c, 3, 78, 127
5, 17084, Note_off_c, 3, 78, 100
5, 17088, Note_on_c, 3, 76, 127
5, 17180, Note_off_c, 3, 76, 100
5, 17184, Note_on_c, 3, 79, 127
5, 17276, Note_off_c, 3, 79, 100
5, 17280, Note_on_c, 3, 78, 127
5, 17660, Note_off_c, 3, 78, 100
5, 17664, Note_on_c, 3, 83, 127
5, 17728, Note_off_c, 3, 83, 100
5, 17760, Note_on_c, 3, 91, 127
5, 17852, Note_off_c, 3, 91, 100
5, 17856, Note_on_c, 3, 90, 127
5, 17948, Note_off_c, 3, 90, 100
5, 17952, Note_on_c, 3, 93, 127
5, 18044, Note_off_c, 3, 93, 100
5, 18048, Note_on_c, 3, 91, 127
5, 18140, Note_off_c, 3, 91, 100
5, 18144, Note_on_c, 3, 90, 127
5, 18236, Note_off_c, 3, 90, 100
5, 18240, Note_on_c, 3, 88, 127
5, 18332, Note_off_c, 3, 88, 100
5, 18336, Note_on_c, 3, 86, 127
5, 18428, Note_off_c, 3, 86, 100
5, 18432, Note_on_c, 3, 96, 127
5, 18620, Note_off_c, 3, 96, 100
5, 18624, Note_on_c, 3, 95, 127
5, 18812, Note_off_c, 3, 95, 100
5, 19968, Note_on_c, 3, 83, 127
5, 20060, Note_off_c, 3, 83, 100
5, 20064, Note_on_c, 3, 87, 127
5, 20156, Note_off_c, 3, 87, 100
5, 20160, Note_on_c, 3, 88, 127
5, 20240, Note_off_c, 3, 88, 100
5, 20256, Note_on_c, 3, 91, 127
5, 20348, Note_off_c, 3, 91, 100
5, 20352, Note_on_c, 3, 95, 127
5, 20828, Note_off_c, 3, 95, 64
5, 20832, Note_on_c, 3, 93, 127
5, 20924, Note_off_c, 3, 93, 100
5, 20928, Note_on_c, 3, 91, 127
5, 21020, Note_off_c, 3, 91, 100
5, 21024, Note_on_c, 3, 95, 127
5, 21116, Note_off_c, 3, 95, 100
5, 21120, Note_on_c, 3, 93, 127
5, 21212, Note_off_c, 3, 93, 100
5, 21216, Note_on_c, 3, 91, 127
5, 21308, Note_off_c, 3, 91, 100
5, 21312, Note_on_c, 3, 90, 127
5, 21404, Note_off_c, 3, 90, 100
5, 21408, Note_on_c, 3, 88, 127
5, 21500, Note_off_c, 3, 88, 100
5, 21504, Note_on_c, 3, 86, 127
5, 21884, Note_off_c, 3, 86, 100
5, 21984, Note_on_c, 3, 84, 127
5, 22076, Note_off_c, 3, 84, 100
5, 22080, Note_on_c, 3, 83, 127
5, 22172, Note_off_c, 3, 83, 100
5, 22176, Note_on_c, 3, 81, 127
5, 22268, Note_off_c, 3, 81, 100
5, 22272, Note_on_c, 3, 83, 127
5, 22652, Note_off_c, 3, 83, 100
5, 22752, Note_on_c, 3, 81, 127
5, 22844, Note_off_c, 3, 81, 100
5, 22848, Note_on_c, 3, 79, 127
5, 22940, Note_off_c, 3, 79, 100
5, 22944, Note_on_c, 3, 78, 127
5, 23036, Note_off_c, 3, 78, 100
5, 23040, Note_on_c, 3, 76, 127
5, 23420, Note_off_c, 3, 76, 100
5, 23520, Note_on_c, 3, 79, 127
5, 23612, Note_off_c, 3, 79, 100
5, 23616, Note_on_c, 3, 78, 127
5, 23708, Note_off_c, 3, 78, 100
5, 23712, Note_on_c, 3, 76, 127
5, 23804, Note_off_c, 3, 76, 100
5, 23808, Note_on_c, 3, 74, 127
5, 24188, Note_off_c, 3, 74, 100
5, 24672, Note_on_c, 3, 90, 127
5, 24764, Note_off_c, 3, 90, 100
5, 24768, Note_on_c, 3, 88, 127
5, 24860, Note_off_c, 3, 88, 100
5, 24864, Note_on_c, 3, 91, 127
5, 24956, Note_off_c, 3, 91, 100
5, 24960, Note_on_c, 3, 90, 127
5, 25052, Note_off_c, 3, 90, 100
5, 25056, Note_on_c, 3, 88, 127
5, 25148, Note_off_c, 3, 88, 100
5, 25152, Note_on_c, 3, 86, 127
5, 25244, Note_off_c, 3, 86, 100
5, 25248, Note_on_c, 3, 85, 127
5, 25340, Note_off_c, 3, 85, 100
5, 25344, Note_on_c, 3, 86, 127
5, 25724, Note_off_c, 3, 86, 100
5, 25920, Note_on_c, 3, 83, 127
5, 26108, Note_off_c, 3, 83, 100
5, 26112, Note_on_c, 3, 79, 127
5, 26300, Note_off_c, 3, 79, 100
5, 26304, Note_on_c, 3, 76, 127
5, 26492, Note_off_c, 3, 76, 100
5, 26496, Note_on_c, 3, 81, 127
5, 26752, Note_off_c, 3, 81, 100
5, 26976, Note_on_c, 3, 79, 127
5, 27068, Note_off_c, 3, 79, 100
5, 27072, Note_on_c, 3, 78, 127
5, 27164, Note_off_c, 3, 78, 100
5, 27168, Note_on_c, 3, 81, 127
5, 27260, Note_off_c, 3, 81, 100
5, 27264, Note_on_c, 3, 79, 127
5, 27356, Note_off_c, 3, 79, 100
5, 27360, Note_on_c, 3, 78, 127
5, 27452, Note_off_c, 3, 78, 100
5, 27456, Note_on_c, 3, 76, 127
5, 27548, Note_off_c, 3, 76, 100
5, 27552, Note_on_c, 3, 75, 127
5, 27644, Note_off_c, 3, 75, 100
5, 27648, Note_on_c, 3, 76, 127
5, 27712, Note_off_c, 3, 76, 100
5, 27744, Note_on_c, 3, 83, 127
5, 27836, Note_off_c, 3, 83, 100
5, 27840, Note_on_c, 3, 81, 127
5, 27932, Note_off_c, 3, 81, 100
5, 27936, Note_on_c, 3, 84, 127
5, 28028, Note_off_c, 3, 84, 100
5, 28032, Note_on_c, 3, 83, 127
5, 28160, Note_off_c, 3, 83, 100
5, 28224, Note_on_c, 3, 79, 127
5, 28508, Note_off_c, 3, 79, 100
5, 28512, Note_on_c, 3, 78, 127
5, 28604, Note_off_c, 3, 78, 100
5, 28608, Note_on_c, 3, 76, 127
5, 28700, Note_off_c, 3, 76, 100
5, 28704, Note_on_c, 3, 79, 127
5, 28796, Note_off_c, 3, 79, 100
5, 28800, Note_on_c, 3, 78, 127
5, 28928, Note_off_c, 3, 78, 100
5, 28992, Note_on_c, 3, 76, 127
5, 29276, Note_off_c, 3, 76, 100
5, 29280, Note_on_c, 3, 75, 127
5, 29372, Note_off_c, 3, 75, 100
5, 29376, Note_on_c, 3, 73, 127
5, 29468, Note_off_c, 3, 73, 100
5, 29472, Note_on_c, 3, 76, 127
5, 29564, Note_off_c, 3, 76, 100
5, 29568, Note_on_c, 3, 75, 127
5, 29948, Note_off_c, 3, 75, 100
5, 29952, Note_on_c, 3, 79, 127
5, 30208, Note_off_c, 3, 79, 100
5, 30720, Note_on_c, 3, 76, 127
5, 31100, Note_off_c, 3, 76, 100
5, 31104, Note_on_c, 3, 81, 127
5, 31360, Note_off_c, 3, 81, 100
5, 31584, Note_on_c, 3, 79, 127
5, 31676, Note_off_c, 3, 79, 100
5, 31680, Note_on_c, 3, 78, 127
5, 31772, Note_off_c, 3, 78, 100
5, 31776, Note_on_c, 3, 81, 127
5, 31868, Note_off_c, 3, 81, 100
5, 31872, Note_on_c, 3, 79, 127
5, 31964, Note_off_c, 3, 79, 100
5, 31968, Note_on_c, 3, 78, 127
5, 32060, Note_off_c, 3, 78, 100
5, 32064, Note_on_c, 3, 76, 127
5, 32156, Note_off_c, 3, 76, 100
5, 32160, Note_on_c, 3, 74, 127
5, 32252, Note_off_c, 3, 74, 100
5, 32256, Note_on_c, 3, 72, 127
5, 32636, Note_off_c, 3, 72, 100
5, 32640, Note_on_c, 3, 84, 127
5, 32896, Note_off_c, 3, 84, 100
5, 33120, Note_on_c, 3, 83, 127
5, 33212, Note_off_c, 3, 83, 100
5, 33216, Note_on_c, 3, 81, 127
5, 33308, Note_off_c, 3, 81, 100
5, 33312, Note_on_c, 3, 84, 127
5, 33404, Note_off_c, 3, 84, 100
5, 33408, Note_on_c, 3, 83, 127
5, 33500, Note_off_c, 3, 83, 100
5, 33504, Note_on_c, 3, 81, 127
5, 33596, Note_off_c, 3, 81, 100
5, 33600, Note_on_c, 3, 79, 127
5, 33692, Note_off_c, 3, 79, 100
5, 33696, Note_on_c, 3, 78, 127
5, 33788, Note_off_c, 3, 78, 100
5, 33792, Note_on_c, 3, 86, 127
5, 34172, Note_off_c, 3, 86, 100
5, 34176, Note_on_c, 3, 89, 127
5, 34432, Note_off_c, 3, 89, 100
5, 34656, Note_on_c, 3, 88, 127
5, 34748, Note_off_c, 3, 88, 100
5, 34752, Note_on_c, 3, 86, 127
5, 34844, Note_off_c, 3, 86, 100
5, 34848, Note_on_c, 3, 89, 127
5, 34912, Note_off_c, 3, 89, 100
5, 34944, Note_on_c, 3, 88, 127
5, 35036, Note_off_c, 3, 88, 100
5, 35040, Note_on_c, 3, 91, 127
5, 35132, Note_off_c, 3, 91, 100
5, 35136, Note_on_c, 3, 90, 127
5, 35228, Note_off_c, 3, 90, 100
5, 35232, Note_on_c, 3, 91, 127
5, 35324, Note_off_c, 3, 91, 100
5, 35328, Note_on_c, 3, 93, 127
5, 35456, Note_off_c, 3, 93, 100
5, 35520, Note_on_c, 3, 86, 127
5, 35804, Note_off_c, 3, 86, 100
5, 35808, Note_on_c, 3, 84, 127
5, 35900, Note_off_c, 3, 84, 100
5, 35904, Note_on_c, 3, 83, 127
5, 35996, Note_off_c, 3, 83, 100
5, 36000, Note_on_c, 3, 81, 127
5, 36092, Note_off_c, 3, 81, 100
5, 36096, Note_on_c, 3, 79, 127
5, 36476, Note_off_c, 3, 79, 100
5, 36960, Note_on_c, 3, 90, 127
5, 37052, Note_off_c, 3, 90, 100
5, 37056, Note_on_c, 3, 88, 127
5, 37148, Note_off_c, 3, 88, 100
5, 37152, Note_on_c, 3, 91, 127
5, 37244, Note_off_c, 3, 91, 100
5, 37248, Note_on_c, 3, 90, 127
5, 37340, Note_off_c, 3, 90, 100
5, 37344, Note_on_c, 3, 88, 127
5, 37436, Note_off_c, 3, 88, 100
5, 37440, Note_on_c, 3, 86, 127
5, 37532, Note_off_c, 3, 86, 100
5, 37536, Note_on_c, 3, 85, 127
5, 37628, Note_off_c, 3, 85, 100
5, 37632, Note_on_c, 3, 86, 127
5, 38012, Note_off_c, 3, 86, 100
5, 38208, Note_on_c, 3, 83, 127
5, 38396, Note_off_c, 3, 83, 100
5, 38400, Note_on_c, 3, 79, 127
5, 38588, Note_off_c, 3, 79, 100
5, 38592, Note_on_c, 3, 76, 127
5, 38780, Note_off_c, 3, 76, 100
5, 38784, Note_on_c, 3, 81, 127
5, 39040, Note_off_c, 3, 81, 100
5, 39264, Note_on_c, 3, 79, 127
5, 39356, Note_off_c, 3, 79, 100
5, 39360, Note_on_c, 3, 78, 127
5, 39452, Note_off_c, 3, 78, 100
5, 39456, Note_on_c, 3, 81, 127
5, 39548, Note_off_c, 3, 81, 100
5, 39552, Note_on_c, 3, 79, 127
5, 39644, Note_off_c, 3, 79, 100
5, 39648, Note_on_c, 3, 78, 127
5, 39740, Note_off_c, 3, 78, 100
5, 39744, Note_on_c, 3, 76, 127
5, 39836, Note_off_c, 3, 76, 100
5, 39840, Note_on_c, 3, 75, 127
5, 39932, Note_off_c, 3, 75, 100
5, 39936, Note_on_c, 3, 76, 127
5, 40000, Note_off_c, 3, 76, 100
5, 40032, Note_on_c, 3, 83, 127
5, 40124, Note_off_c, 3, 83, 100
5, 40128, Note_on_c, 3, 81, 127
5, 40220, Note_off_c, 3, 81, 100
5, 40224, Note_on_c, 3, 84, 127
5, 40316, Note_off_c, 3, 84, 100
5, 40320, Note_on_c, 3, 83, 127
5, 40448, Note_off_c, 3, 83, 100
5, 40512, Note_on_c, 3, 79, 127
5, 40796, Note_off_c, 3, 79, 64
5, 40800, Note_on_c, 3, 78, 127
5, 40892, Note_off_c, 3, 78, 100
5, 40896, Note_on_c, 3, 76, 127
5, 40988, Note_off_c, 3, 76, 100
5, 40992, Note_on_c, 3, 79, 127
5, 41084, Note_off_c, 3, 79, 100
5, 41088, Note_on_c, 3, 78, 127
5, 41216, Note_off_c, 3, 78, 100
5, 41280, Note_on_c, 3, 76, 127
5, 41564, Note_off_c, 3, 76, 64
5, 41568, Note_on_c, 3, 75, 127
5, 41660, Note_off_c, 3, 75, 100
5, 41664, Note_on_c, 3, 73, 127
5, 41756, Note_off_c, 3, 73, 100
5, 41760, Note_on_c, 3, 76, 127
5, 41852, Note_off_c, 3, 76, 100
5, 41856, Note_on_c, 3, 75, 127
5, 42236, Note_off_c, 3, 75, 100
5, 42240, Note_on_c, 3, 79, 127
5, 42496, Note_off_c, 3, 79, 100
5, 43008, Note_on_c, 3, 76, 127
5, 43388, Note_off_c, 3, 76, 100
5, 43392, Note_on_c, 3, 81, 127
5, 43648, Note_off_c, 3, 81, 100
5, 43872, Note_on_c, 3, 79, 127
5, 43964, Note_off_c, 3, 79, 100
5, 43968, Note_on_c, 3, 78, 127
5, 44060, Note_off_c, 3, 78, 100
5, 44064, Note_on_c, 3, 81, 127
5, 44156, Note_off_c, 3, 81, 100
5, 44160, Note_on_c, 3, 79, 127
5, 44252, Note_off_c, 3, 79, 100
5, 44256, Note_on_c, 3, 78, 127
5, 44348, Note_off_c, 3, 78, 100
5, 44352, Note_on_c, 3, 76, 127
5, 44444, Note_off_c, 3, 76, 100
5, 44448, Note_on_c, 3, 74, 127
5, 44540, Note_off_c, 3, 74, 100
5, 44544, Note_on_c, 3, 72, 127
5, 44924, Note_off_c, 3, 72, 100
5, 44928, Note_on_c, 3, 84, 127
5, 45184, Note_off_c, 3, 84, 100
5, 45408, Note_on_c, 3, 83, 127
5, 45500, Note_off_c, 3, 83, 100
5, 45504, Note_on_c, 3, 81, 127
5, 45596, Note_off_c, 3, 81, 100
5, 45600, Note_on_c, 3, 84, 127
5, 45692, Note_off_c, 3, 84, 100
5, 45696, Note_on_c, 3, 83, 127
5, 45788, Note_off_c, 3, 83, 100
5, 45792, Note_on_c, 3, 81, 127
5, 45884, Note_off_c, 3, 81, 100
5, 45888, Note_on_c, 3, 79, 127
5, 45980, Note_off_c, 3, 79, 100
5, 45984, Note_on_c, 3, 78, 127
5, 46076, Note_off_c, 3, 78, 100
5, 46080, Note_on_c, 3, 86, 127
5, 46460, Note_off_c, 3, 86, 100
5, 46464, Note_on_c, 3, 89, 127
5, 46720, Note_off_c, 3, 89, 100
5, 46944, Note_on_c, 3, 88, 127
5, 47036, Note_off_c, 3, 88, 100
5, 47040, Note_on_c, 3, 86, 127
5, 47132, Note_off_c, 3, 86, 100
5, 47136, Note_on_c, 3, 89, 127
5, 47200, Note_off_c, 3, 89, 100
5, 47232, Note_on_c, 3, 88, 127
5, 47324, Note_off_c, 3, 88, 100
5, 47328, Note_on_c, 3, 91, 127
5, 47420, Note_off_c, 3, 91, 100
5, 47424, Note_on_c, 3, 90, 127
5, 47516, Note_off_c, 3, 90, 100
5, 47520, Note_on_c, 3, 91, 127
5, 47612, Note_off_c, 3, 91, 100
5, 47616, Note_on_c, 3, 93, 127
5, 47744, Note_off_c, 3, 93, 100
5, 47808, Note_on_c, 3, 86, 127
5, 48092, Note_off_c, 3, 86, 100
5, 48096, Note_on_c, 3, 84, 127
5, 48188, Note_off_c, 3, 84, 100
5, 48192, Note_on_c, 3, 83, 127
5, 48284, Note_off_c, 3, 83, 100
5, 48288, Note_on_c, 3, 81, 127
5, 48380, Note_off_c, 3, 81, 100
5, 48384, Note_on_c, 3, 79, 127
5, 48764, Note_off_c, 3, 79, 100
5, 48764, End_track
6, 0, Start_track
6, 0, Title_t, "Bruno de Giusti"
6, 0, Control_c, 4, 0, 0
6, 0, Program_c, 4, 6
6, 0, Control_c, 4, 7, 127
6, 0, Control_c, 4, 10, 38
6, 0, Control_c, 4, 91, 127
6, 0, Key_signature, 1, "major"
6, 1536, Note_on_c, 4, 91, 127
6, 1916, Note_off_c, 4, 91, 100
6, 1920, Note_on_c, 4, 96, 127
6, 1956, Note_off_c, 4, 96, 100
6, 1960, Note_on_c, 4, 95, 127
6, 1996, Note_off_c, 4, 95, 100
6, 2000, Note_on_c, 4, 96, 127
6, 2492, Note_off_c, 4, 96, 64
6, 2496, Note_on_c, 4, 95, 127
6, 2588, Note_off_c, 4, 95, 100
6, 2592, Note_on_c, 4, 93, 127
6, 2684, Note_off_c, 4, 93, 100
6, 2688, Note_on_c, 4, 95, 127
6, 2780, Note_off_c, 4, 95, 100
6, 2784, Note_on_c, 4, 93, 127
6, 2876, Note_off_c, 4, 93, 100
6, 2880, Note_on_c, 4, 91, 127
6, 2972, Note_off_c, 4, 91, 100
6, 2976, Note_on_c, 4, 90, 127
6, 3068, Note_off_c, 4, 90, 100
6, 3072, Note_on_c, 4, 91, 127
6, 3452, Note_off_c, 4, 91, 100
6, 3552, Note_on_c, 4, 89, 127
6, 3644, Note_off_c, 4, 89, 100
6, 3648, Note_on_c, 4, 88, 127
6, 3740, Note_off_c, 4, 88, 100
6, 3744, Note_on_c, 4, 86, 127
6, 3836, Note_off_c, 4, 86, 100
6, 3840, Note_on_c, 4, 88, 127
6, 4220, Note_off_c, 4, 88, 100
6, 4320, Note_on_c, 4, 86, 127
6, 4412, Note_off_c, 4, 86, 100
6, 4416, Note_on_c, 4, 84, 127
6, 4508, Note_off_c, 4, 84, 100
6, 4512, Note_on_c, 4, 83, 127
6, 4604, Note_off_c, 4, 83, 100
6, 4608, Note_on_c, 4, 81, 127
6, 4988, Note_off_c, 4, 81, 100
6, 5088, Note_on_c, 4, 84, 127
6, 5180, Note_off_c, 4, 84, 100
6, 5184, Note_on_c, 4, 83, 127
6, 5276, Note_off_c, 4, 83, 100
6, 5280, Note_on_c, 4, 81, 127
6, 5372, Note_off_c, 4, 81, 100
6, 5376, Note_on_c, 4, 79, 127
6, 5564, Note_off_c, 4, 79, 100
6, 6144, Note_on_c, 4, 79, 127
6, 6236, Note_off_c, 4, 79, 100
6, 6240, Note_on_c, 4, 81, 127
6, 6332, Note_off_c, 4, 81, 100
6, 6336, Note_on_c, 4, 83, 127
6, 6428, Note_off_c, 4, 83, 100
6, 6432, Note_on_c, 4, 86, 127
6, 6524, Note_off_c, 4, 86, 100
6, 6528, Note_on_c, 4, 88, 127
6, 6908, Note_off_c, 4, 88, 100
6, 7008, Note_on_c, 4, 86, 127
6, 7100, Note_off_c, 4, 86, 100
6, 7104, Note_on_c, 4, 85, 127
6, 7196, Note_off_c, 4, 85, 100
6, 7200, Note_on_c, 4, 88, 127
6, 7292, Note_off_c, 4, 88, 100
6, 7296, Note_on_c, 4, 86, 127
6, 7388, Note_off_c, 4, 86, 100
6, 7392, Note_on_c, 4, 85, 127
6, 7484, Note_off_c, 4, 85, 100
6, 7488, Note_on_c, 4, 83, 127
6, 7580, Note_off_c, 4, 83, 100
6, 7584, Note_on_c, 4, 81, 127
6, 7676, Note_off_c, 4, 81, 100
6, 7680, Note_on_c, 4, 79, 127
6, 8060, Note_off_c, 4, 79, 100
6, 8256, Note_on_c, 4, 91, 127
6, 8444, Note_off_c, 4, 91, 100
6, 8448, Note_on_c, 4, 88, 127
6, 8636, Note_off_c, 4, 88, 100
6, 8640, Note_on_c, 4, 85, 127
6, 8828, Note_off_c, 4, 85, 100
6, 9312, Note_on_c, 4, 81, 127
6, 9404, Note_off_c, 4, 81, 100
6, 9408, Note_on_c, 4, 79, 127
6, 9500, Note_off_c, 4, 79, 100
6, 9504, Note_on_c, 4, 83, 127
6, 9596, Note_off_c, 4, 83, 100
6, 9600, Note_on_c, 4, 81, 127
6, 9728, Note_off_c, 4, 81, 100
6, 9792, Note_on_c, 4, 78, 127
6, 10076, Note_off_c, 4, 78, 64
6, 10080, Note_on_c, 4, 76, 127
6, 10172, Note_off_c, 4, 76, 100
6, 10176, Note_on_c, 4, 74, 127
6, 10268, Note_off_c, 4, 74, 100
6, 10272, Note_on_c, 4, 78, 127
6, 10364, Note_off_c, 4, 78, 100
6, 10368, Note_on_c, 4, 76, 127
6, 10496, Note_off_c, 4, 76, 100
6, 10560, Note_on_c, 4, 74, 127
6, 10844, Note_off_c, 4, 74, 64
6, 10848, Note_on_c, 4, 73, 127
6, 10940, Note_off_c, 4, 73, 100
6, 10944, Note_on_c, 4, 71, 127
6, 11036, Note_off_c, 4, 71, 100
6, 11040, Note_on_c, 4, 74, 127
6, 11132, Note_off_c, 4, 74, 100
6, 11136, Note_on_c, 4, 73, 127
6, 11516, Note_off_c, 4, 73, 100
6, 11520, Note_on_c, 4, 74, 127
6, 11708, Note_off_c, 4, 74, 100
6, 13824, Note_on_c, 4, 91, 127
6, 14204, Note_off_c, 4, 91, 100
6, 14208, Note_on_c, 4, 96, 127
6, 14244, Note_off_c, 4, 96, 100
6, 14248, Note_on_c, 4, 95, 127
6, 14284, Note_off_c, 4, 95, 100
6, 14288, Note_on_c, 4, 96, 127
6, 14780, Note_off_c, 4, 96, 64
6, 14784, Note_on_c, 4, 95, 127
6, 14876, Note_off_c, 4, 95, 100
6, 14880, Note_on_c, 4, 93, 127
6, 14972, Note_off_c, 4, 93, 100
6, 14976, Note_on_c, 4, 95, 127
6, 15068, Note_off_c, 4, 95, 100
6, 15072, Note_on_c, 4, 93, 127
6, 15164, Note_off_c, 4, 93, 100
6, 15168, Note_on_c, 4, 91, 127
6, 15260, Note_off_c, 4, 91, 100
6, 15264, Note_on_c, 4, 90, 127
6, 15356, Note_off_c, 4, 90, 100
6, 15360, Note_on_c, 4, 91, 127
6, 15740, Note_off_c, 4, 91, 100
6, 15840, Note_on_c, 4, 89, 127
6, 15932, Note_off_c, 4, 89, 100
6, 15936, Note_on_c, 4, 88, 127
6, 16028, Note_off_c, 4, 88, 100
6, 16032, Note_on_c, 4, 86, 127
6, 16124, Note_off_c, 4, 86, 100
6, 16128, Note_on_c, 4, 88, 127
6, 16508, Note_off_c, 4, 88, 100
6, 16608, Note_on_c, 4, 86, 127
6, 16700, Note_off_c, 4, 86, 100
6, 16704, Note_on_c, 4, 84, 127
6, 16796, Note_off_c, 4, 84, 100
6, 16800, Note_on_c, 4, 83, 127
6, 16892, Note_off_c, 4, 83, 100
6, 16896, Note_on_c, 4, 81, 127
6, 17276, Note_off_c, 4, 81, 100
6, 17376, Note_on_c, 4, 84, 127
6, 17468, Note_off_c, 4, 84, 100
6, 17472, Note_on_c, 4, 83, 127
6, 17564, Note_off_c, 4, 83, 100
6, 17568, Note_on_c, 4, 81, 127
6, 17660, Note_off_c, 4, 81, 100
6, 17664, Note_on_c, 4, 79, 127
6, 17852, Note_off_c, 4, 79, 100
6, 18432, Note_on_c, 4, 79, 127
6, 18524, Note_off_c, 4, 79, 100
6, 18528, Note_on_c, 4, 81, 127
6, 18620, Note_off_c, 4, 81, 100
6, 18624, Note_on_c, 4, 83, 127
6, 18716, Note_off_c, 4, 83, 100
6, 18720, Note_on_c, 4, 86, 127
6, 18812, Note_off_c, 4, 86, 100
6, 18816, Note_on_c, 4, 88, 127
6, 19196, Note_off_c, 4, 88, 100
6, 19296, Note_on_c, 4, 86, 127
6, 19388, Note_off_c, 4, 86, 100
6, 19392, Note_on_c, 4, 85, 127
6, 19484, Note_off_c, 4, 85, 100
6, 19488, Note_on_c, 4, 88, 127
6, 19580, Note_off_c, 4, 88, 100
6, 19584, Note_on_c, 4, 86, 127
6, 19676, Note_off_c, 4, 86, 100
6, 19680, Note_on_c, 4, 85, 127
6, 19772, Note_off_c, 4, 85, 100
6, 19776, Note_on_c, 4, 83, 127
6, 19868, Note_off_c, 4, 83, 100
6, 19872, Note_on_c, 4, 81, 127
6, 19964, Note_off_c, 4, 81, 100
6, 19968, Note_on_c, 4, 79, 127
6, 20348, Note_off_c, 4, 79, 100
6, 20544, Note_on_c, 4, 91, 127
6, 20732, Note_off_c, 4, 91, 100
6, 20736, Note_on_c, 4, 88, 127
6, 20924, Note_off_c, 4, 88, 100
6, 20928, Note_on_c, 4, 85, 127
6, 21116, Note_off_c, 4, 85, 100
6, 21600, Note_on_c, 4, 81, 127
6, 21692, Note_off_c, 4, 81, 100
6, 21696, Note_on_c, 4, 79, 127
6, 21788, Note_off_c, 4, 79, 100
6, 21792, Note_on_c, 4, 83, 127
6, 21884, Note_off_c, 4, 83, 100
6, 21888, Note_on_c, 4, 81, 127
6, 22016, Note_off_c, 4, 81, 100
6, 22080, Note_on_c, 4, 78, 127
6, 22364, Note_off_c, 4, 78, 64
6, 22368, Note_on_c, 4, 76, 127
6, 22460, Note_off_c, 4, 76, 100
6, 22464, Note_on_c, 4, 74, 127
6, 22556, Note_off_c, 4, 74, 100
6, 22560, Note_on_c, 4, 78, 127
6, 22652, Note_off_c, 4, 78, 100
6, 22656, Note_on_c, 4, 76, 127
6, 22784, Note_off_c, 4, 76, 100
6, 22848, Note_on_c, 4, 74, 127
6, 23132, Note_off_c, 4, 74, 64
6, 23136, Note_on_c, 4, 73, 127
6, 23228, Note_off_c, 4, 73, 100
6, 23232, Note_on_c, 4, 71, 127
6, 23324, Note_off_c, 4, 71, 100
6, 23328, Note_on_c, 4, 74, 127
6, 23420, Note_off_c, 4, 74, 100
6, 23424, Note_on_c, 4, 73, 127
6, 23804, Note_off_c, 4, 73, 100
6, 23808, Note_on_c, 4, 74, 127
6, 24188, Note_off_c, 4, 74, 100
6, 24576, Note_on_c, 4, 81, 127
6, 24956, Note_off_c, 4, 81, 100
6, 24960, Note_on_c, 4, 93, 127
6, 25216, Note_off_c, 4, 93, 100
6, 25440, Note_on_c, 4, 91, 127
6, 25532, Note_off_c, 4, 91, 100
6, 25536, Note_on_c, 4, 90, 127
6, 25628, Note_off_c, 4, 90, 100
6, 25632, Note_on_c, 4, 93, 127
6, 25724, Note_off_c, 4, 93, 100
6, 25728, Note_on_c, 4, 91, 127
6, 25820, Note_off_c, 4, 91, 100
6, 25824, Note_on_c, 4, 90, 127
6, 25916, Note_off_c, 4, 90, 100
6, 25920, Note_on_c, 4, 88, 127
6, 26012, Note_off_c, 4, 88, 100
6, 26016, Note_on_c, 4, 87, 127
6, 26108, Note_off_c, 4, 87, 100
6, 26112, Note_on_c, 4, 88, 127
6, 26368, Note_off_c, 4, 88, 100
6, 26688, Note_on_c, 4, 90, 127
6, 26876, Note_off_c, 4, 90, 100
6, 26880, Note_on_c, 4, 87, 127
6, 27068, Note_off_c, 4, 87, 100
6, 27072, Note_on_c, 4, 83, 127
6, 27260, Note_off_c, 4, 83, 100
6, 27648, Note_on_c, 4, 88, 127
6, 28120, Note_off_c, 4, 88, 100
6, 28128, Note_on_c, 4, 86, 127
6, 28220, Note_off_c, 4, 86, 100
6, 28224, Note_on_c, 4, 84, 127
6, 28316, Note_off_c, 4, 84, 100
6, 28320, Note_on_c, 4, 83, 127
6, 28412, Note_off_c, 4, 83, 100
6, 28416, Note_on_c, 4, 84, 127
6, 28888, Note_off_c, 4, 84, 100
6, 28896, Note_on_c, 4, 83, 127
6, 28988, Note_off_c, 4, 83, 100
6, 28992, Note_on_c, 4, 81, 127
6, 29084, Note_off_c, 4, 81, 100
6, 29088, Note_on_c, 4, 79, 127
6, 29180, Note_off_c, 4, 79, 100
6, 29184, Note_on_c, 4, 78, 127
6, 29656, Note_off_c, 4, 78, 100
6, 29664, Note_on_c, 4, 81, 127
6, 29756, Note_off_c, 4, 81, 100
6, 29760, Note_on_c, 4, 79, 127
6, 29852, Note_off_c, 4, 79, 100
6, 29856, Note_on_c, 4, 78, 127
6, 29948, Note_off_c, 4, 78, 100
6, 29952, Note_on_c, 4, 76, 127
6, 30332, Note_off_c, 4, 76, 100
6, 30336, Note_on_c, 4, 83, 127
6, 30592, Note_off_c, 4, 83, 100
6, 30816, Note_on_c, 4, 81, 127
6, 30908, Note_off_c, 4, 81, 100
6, 30912, Note_on_c, 4, 79, 127
6, 31004, Note_off_c, 4, 79, 100
6, 31008, Note_on_c, 4, 83, 127
6, 31100, Note_off_c, 4, 83, 100
6, 31104, Note_on_c, 4, 81, 127
6, 31196, Note_off_c, 4, 81, 100
6, 31200, Note_on_c, 4, 79, 127
6, 31292, Note_off_c, 4, 79, 100
6, 31296, Note_on_c, 4, 78, 127
6, 31388, Note_off_c, 4, 78, 100
6, 31392, Note_on_c, 4, 76, 127
6, 31484, Note_off_c, 4, 76, 100
6, 31488, Note_on_c, 4, 74, 127
6, 31868, Note_off_c, 4, 74, 100
6, 31872, Note_on_c, 4, 79, 127
6, 32128, Note_off_c, 4, 79, 100
6, 32352, Note_on_c, 4, 78, 127
6, 32444, Note_off_c, 4, 78, 100
6, 32448, Note_on_c, 4, 76, 127
6, 32540, Note_off_c, 4, 76, 100
6, 32544, Note_on_c, 4, 79, 127
6, 32636, Note_off_c, 4, 79, 100
6, 32640, Note_on_c, 4, 78, 127
6, 32732, Note_off_c, 4, 78, 100
6, 32736, Note_on_c, 4, 76, 127
6, 32828, Note_off_c, 4, 76, 100
6, 32832, Note_on_c, 4, 74, 127
6, 32924, Note_off_c, 4, 74, 100
6, 32928, Note_on_c, 4, 72, 127
6, 33020, Note_off_c, 4, 72, 100
6, 33024, Note_on_c, 4, 74, 127
6, 33404, Note_off_c, 4, 74, 100
6, 33792, Note_on_c, 4, 83, 127
6, 33980, Note_off_c, 4, 83, 100
6, 33984, Note_on_c, 4, 79, 127
6, 34172, Note_off_c, 4, 79, 100
6, 34176, Note_on_c, 4, 83, 127
6, 34304, Note_off_c, 4, 83, 100
6, 34368, Note_on_c, 4, 86, 127
6, 34496, Note_off_c, 4, 86, 100
6, 34560, Note_on_c, 4, 91, 127
6, 34940, Note_off_c, 4, 91, 100
6, 34944, Note_on_c, 4, 96, 127
6, 35420, Note_off_c, 4, 96, 64
6, 35424, Note_on_c, 4, 95, 127
6, 35516, Note_off_c, 4, 95, 100
6, 35520, Note_on_c, 4, 93, 127
6, 35612, Note_off_c, 4, 93, 100
6, 35616, Note_on_c, 4, 96, 127
6, 35708, Note_off_c, 4, 96, 100
6, 35712, Note_on_c, 4, 95, 127
6, 35804, Note_off_c, 4, 95, 100
6, 35808, Note_on_c, 4, 93, 127
6, 35900, Note_off_c, 4, 93, 100
6, 35904, Note_on_c, 4, 91, 127
6, 35996, Note_off_c, 4, 91, 100
6, 36000, Note_on_c, 4, 90, 127
6, 36092, Note_off_c, 4, 90, 100
6, 36096, Note_on_c, 4, 91, 127
6, 36476, Note_off_c, 4, 91, 100
6, 36864, Note_on_c, 4, 81, 127
6, 37244, Note_off_c, 4, 81, 100
6, 37248, Note_on_c, 4, 93, 127
6, 37504, Note_off_c, 4, 93, 100
6, 37728, Note_on_c, 4, 91, 127
6, 37820, Note_off_c, 4, 91, 100
6, 37824, Note_on_c, 4, 90, 127
6, 37916, Note_off_c, 4, 90, 100
6, 37920, Note_on_c, 4, 93, 127
6, 38012, Note_off_c, 4, 93, 100
6, 38016, Note_on_c, 4, 91, 127
6, 38108, Note_off_c, 4, 91, 100
6, 38112, Note_on_c, 4, 90, 127
6, 38204, Note_off_c, 4, 90, 100
6, 38208, Note_on_c, 4, 88, 127
6, 38300, Note_off_c, 4, 88, 100
6, 38304, Note_on_c, 4, 87, 127
6, 38396, Note_off_c, 4, 87, 100
6, 38400, Note_on_c, 4, 88, 127
6, 38656, Note_off_c, 4, 88, 100
6, 38976, Note_on_c, 4, 90, 127
6, 39164, Note_off_c, 4, 90, 100
6, 39168, Note_on_c, 4, 87, 127
6, 39356, Note_off_c, 4, 87, 100
6, 39360, Note_on_c, 4, 83, 127
6, 39548, Note_off_c, 4, 83, 100
6, 39936, Note_on_c, 4, 88, 127
6, 40408, Note_off_c, 4, 88, 100
6, 40416, Note_on_c, 4, 86, 127
6, 40508, Note_off_c, 4, 86, 100
6, 40512, Note_on_c, 4, 84, 127
6, 40604, Note_off_c, 4, 84, 100
6, 40608, Note_on_c, 4, 83, 127
6, 40700, Note_off_c, 4, 83, 100
6, 40704, Note_on_c, 4, 84, 127
6, 41176, Note_off_c, 4, 84, 100
6, 41184, Note_on_c, 4, 83, 127
6, 41276, Note_off_c, 4, 83, 100
6, 41280, Note_on_c, 4, 81, 127
6, 41372, Note_off_c, 4, 81, 100
6, 41376, Note_on_c, 4, 79, 127
6, 41468, Note_off_c, 4, 79, 100
6, 41472, Note_on_c, 4, 78, 127
6, 41944, Note_off_c, 4, 78, 100
6, 41952, Note_on_c, 4, 81, 127
6, 42044, Note_off_c, 4, 81, 100
6, 42048, Note_on_c, 4, 79, 127
6, 42140, Note_off_c, 4, 79, 100
6, 42144, Note_on_c, 4, 78, 127
6, 42236, Note_off_c, 4, 78, 100
6, 42240, Note_on_c, 4, 76, 127
6, 42620, Note_off_c, 4, 76, 100
6, 42624, Note_on_c, 4, 83, 127
6, 42880, Note_off_c, 4, 83, 100
6, 43104, Note_on_c, 4, 81, 127
6, 43196, Note_off_c, 4, 81, 100
6, 43200, Note_on_c, 4, 79, 127
6, 43292, Note_off_c, 4, 79, 100
6, 43296, Note_on_c, 4, 83, 127
6, 43388, Note_off_c, 4, 83, 100
6, 43392, Note_on_c, 4, 81, 127
6, 43484, Note_off_c, 4, 81, 100
6, 43488, Note_on_c, 4, 79, 127
6, 43580, Note_off_c, 4, 79, 100
6, 43584, Note_on_c, 4, 78, 127
6, 43676, Note_off_c, 4, 78, 100
6, 43680, Note_on_c, 4, 76, 127
6, 43772, Note_off_c, 4, 76, 100
6, 43776, Note_on_c, 4, 74, 127
6, 44156, Note_off_c, 4, 74, 100
6, 44160, Note_on_c, 4, 79, 127
6, 44416, Note_off_c, 4, 79, 100
6, 44640, Note_on_c, 4, 78, 127
6, 44732, Note_off_c, 4, 78, 100
6, 44736, Note_on_c, 4, 76, 127
6, 44828, Note_off_c, 4, 76, 100
6, 44832, Note_on_c, 4, 79, 127
6, 44924, Note_off_c, 4, 79, 100
6, 44928, Note_on_c, 4, 78, 127
6, 45020, Note_off_c, 4, 78, 100
6, 45024, Note_on_c, 4, 76, 127
6, 45116, Note_off_c, 4, 76, 100
6, 45120, Note_on_c, 4, 74, 127
6, 45212, Note_off_c, 4, 74, 100
6, 45216, Note_on_c, 4, 72, 127
6, 45308, Note_off_c, 4, 72, 100
6, 45312, Note_on_c, 4, 74, 127
6, 45692, Note_off_c, 4, 74, 100
6, 46080, Note_on_c, 4, 83, 127
6, 46268, Note_off_c, 4, 83, 100
6, 46272, Note_on_c, 4, 79, 127
6, 46460, Note_off_c, 4, 79, 100
6, 46464, Note_on_c, 4, 83, 127
6, 46592, Note_off_c, 4, 83, 100
6, 46656, Note_on_c, 4, 86, 127
6, 46784, Note_off_c, 4, 86, 100
6, 46848, Note_on_c, 4, 91, 127
6, 47228, Note_off_c, 4, 91, 100
6, 47232, Note_on_c, 4, 96, 127
6, 47708, Note_off_c, 4, 96, 64
6, 47712, Note_on_c, 4, 95, 127
6, 47804, Note_off_c, 4, 95, 100
6, 47808, Note_on_c, 4, 93, 127
6, 47900, Note_off_c, 4, 93, 100
6, 47904, Note_on_c, 4, 96, 127
6, 47996, Note_off_c, 4, 96, 100
6, 48000, Note_on_c, 4, 95, 127
6, 48092, Note_off_c, 4, 95, 100
6, 48096, Note_on_c, 4, 93, 127
6, 48188, Note_off_c, 4, 93, 100
6, 48192, Note_on_c, 4, 91, 127
6, 48284, Note_off_c, 4, 91, 100
6, 48288, Note_on_c, 4, 90, 127
6, 48380, Note_off_c, 4, 90, 100
6, 48384, Note_on_c, 4, 91, 127
6, 48764, Note_off_c, 4, 91, 100
6, 48764, End_track
7, 0, Start_track
7, 0, Title_t, "bdg@bruno-de-giusti,net"
7, 0, Control_c, 5, 0, 0
7, 0, Program_c, 5, 6
7, 0, Control_c, 5, 7, 127
7, 0, Control_c, 5, 10, 0
7, 0, Control_c, 5, 91, 127
7, 0, Key_signature, 1, "major"
7, 0, Note_on_c, 5, 43, 64
7, 188, Note_off_c, 5, 43, 100
7, 192, Note_on_c, 5, 42, 64
7, 380, Note_off_c, 5, 42, 100
7, 384, Note_on_c, 5, 43, 64
7, 572, Note_off_c, 5, 43, 100
7, 576, Note_on_c, 5, 40, 64
7, 764, Note_off_c, 5, 40, 100
7, 768, Note_on_c, 5, 42, 64
7, 932, Note_off_c, 5, 42, 100
7, 960, Note_on_c, 5, 40, 64
7, 1148, Note_off_c, 5, 40, 100
7, 1152, Note_on_c, 5, 42, 64
7, 1340, Note_off_c, 5, 42, 100
7, 1344, Note_on_c, 5, 38, 64
7, 1532, Note_off_c, 5, 38, 100
7, 1536, Note_on_c, 5, 40, 64
7, 1700, Note_off_c, 5, 40, 100
7, 1728, Note_on_c, 5, 38, 64
7, 1916, Note_off_c, 5, 38, 100
7, 1920, Note_on_c, 5, 40, 64
7, 2108, Note_off_c, 5, 40, 100
7, 2112, Note_on_c, 5, 36, 64
7, 2276, Note_off_c, 5, 36, 100
7, 2304, Note_on_c, 5, 38, 64
7, 2492, Note_off_c, 5, 38, 100
7, 2496, Note_on_c, 5, 26, 64
7, 2556, Note_off_c, 5, 26, 100
7, 2688, Note_on_c, 5, 38, 64
7, 2780, Note_off_c, 5, 38, 100
7, 2784, Note_on_c, 5, 36, 64
7, 2876, Note_off_c, 5, 36, 100
7, 2880, Note_on_c, 5, 35, 64
7, 2972, Note_off_c, 5, 35, 100
7, 2976, Note_on_c, 5, 33, 64
7, 3068, Note_off_c, 5, 33, 100
7, 3072, Note_on_c, 5, 35, 64
7, 3236, Note_off_c, 5, 35, 100
7, 3264, Note_on_c, 5, 33, 64
7, 3452, Note_off_c, 5, 33, 100
7, 3456, Note_on_c, 5, 35, 64
7, 3644, Note_off_c, 5, 35, 100
7, 3648, Note_on_c, 5, 31, 64
7, 3836, Note_off_c, 5, 31, 100
7, 3840, Note_on_c, 5, 36, 64
7, 4004, Note_off_c, 5, 36, 100
7, 4032, Note_on_c, 5, 35, 64
7, 4220, Note_off_c, 5, 35, 100
7, 4224, Note_on_c, 5, 36, 64
7, 4412, Note_off_c, 5, 36, 100
7, 4416, Note_on_c, 5, 33, 64
7, 4604, Note_off_c, 5, 33, 100
7, 4608, Note_on_c, 5, 38, 64
7, 4772, Note_off_c, 5, 38, 100
7, 4800, Note_on_c, 5, 36, 64
7, 4988, Note_off_c, 5, 36, 100
7, 4992, Note_on_c, 5, 38, 64
7, 5180, Note_off_c, 5, 38, 100
7, 5184, Note_on_c, 5, 26, 64
7, 5372, Note_off_c, 5, 26, 100
7, 5376, Note_on_c, 5, 31, 64
7, 5436, Note_off_c, 5, 31, 100
7, 5568, Note_on_c, 5, 43, 64
7, 5696, Note_off_c, 5, 43, 100
7, 5760, Note_on_c, 5, 47, 64
7, 5888, Note_off_c, 5, 47, 100
7, 5952, Note_on_c, 5, 50, 64
7, 6080, Note_off_c, 5, 50, 100
7, 6144, Note_on_c, 5, 55, 64
7, 6308, Note_off_c, 5, 55, 100
7, 6336, Note_on_c, 5, 54, 64
7, 6500, Note_off_c, 5, 54, 100
7, 6528, Note_on_c, 5, 55, 64
7, 6692, Note_off_c, 5, 55, 100
7, 6720, Note_on_c, 5, 52, 64
7, 6884, Note_off_c, 5, 52, 100
7, 6912, Note_on_c, 5, 54, 64
7, 7076, Note_off_c, 5, 54, 100
7, 7104, Note_on_c, 5, 52, 64
7, 7292, Note_off_c, 5, 52, 100
7, 7296, Note_on_c, 5, 54, 64
7, 7484, Note_off_c, 5, 54, 100
7, 7488, Note_on_c, 5, 50, 64
7, 7676, Note_off_c, 5, 50, 100
7, 7680, Note_on_c, 5, 52, 64
7, 7844, Note_off_c, 5, 52, 100
7, 7872, Note_on_c, 5, 50, 64
7, 8060, Note_off_c, 5, 50, 100
7, 8064, Note_on_c, 5, 52, 64
7, 8252, Note_off_c, 5, 52, 100
7, 8256, Note_on_c, 5, 47, 64
7, 8444, Note_off_c, 5, 47, 100
7, 8448, Note_on_c, 5, 49, 64
7, 8576, Note_off_c, 5, 49, 100
7, 8640, Note_on_c, 5, 52, 64
7, 8732, Note_off_c, 5, 52, 100
7, 8736, Note_on_c, 5, 50, 64
7, 8828, Note_off_c, 5, 50, 100
7, 8832, Note_on_c, 5, 49, 64
7, 8924, Note_off_c, 5, 49, 100
7, 8928, Note_on_c, 5, 47, 64
7, 9020, Note_off_c, 5, 47, 100
7, 9024, Note_on_c, 5, 45, 64
7, 9116, Note_off_c, 5, 45, 100
7, 9120, Note_on_c, 5, 43, 64
7, 9212, Note_off_c, 5, 43, 100
7, 9216, Note_on_c, 5, 42, 64
7, 9380, Note_off_c, 5, 42, 100
7, 9408, Note_on_c, 5, 40, 64
7, 9596, Note_off_c, 5, 40, 100
7, 9600, Note_on_c, 5, 42, 64
7, 9788, Note_off_c, 5, 42, 100
7, 9792, Note_on_c, 5, 38, 64
7, 9980, Note_off_c, 5, 38, 100
7, 9984, Note_on_c, 5, 43, 64
7, 10148, Note_off_c, 5, 43, 100
7, 10176, Note_on_c, 5, 42, 64
7, 10364, Note_off_c, 5, 42, 100
7, 10368, Note_on_c, 5, 43, 64
7, 10556, Note_off_c, 5, 43, 100
7, 10560, Note_on_c, 5, 40, 64
7, 10748, Note_off_c, 5, 40, 100
7, 10752, Note_on_c, 5, 45, 64
7, 10916, Note_off_c, 5, 45, 100
7, 10944, Note_on_c, 5, 43, 64
7, 11132, Note_off_c, 5, 43, 100
7, 11136, Note_on_c, 5, 45, 64
7, 11324, Note_off_c, 5, 45, 100
7, 11328, Note_on_c, 5, 33, 64
7, 11516, Note_off_c, 5, 33, 100
7, 11520, Note_on_c, 5, 38, 64
7, 11648, Note_off_c, 5, 38, 100
7, 11712, Note_on_c, 5, 50, 64
7, 11804, Note_off_c, 5, 50, 100
7, 11808, Note_on_c, 5, 48, 64
7, 11900, Note_off_c, 5, 48, 100
7, 11904, Note_on_c, 5, 50, 64
7, 11996, Note_off_c, 5, 50, 100
7, 12000, Note_on_c, 5, 48, 64
7, 12092, Note_off_c, 5, 48, 100
7, 12096, Note_on_c, 5, 47, 64
7, 12188, Note_off_c, 5, 47, 100
7, 12192, Note_on_c, 5, 45, 64
7, 12284, Note_off_c, 5, 45, 100
7, 12288, Note_on_c, 5, 43, 64
7, 12476, Note_off_c, 5, 43, 100
7, 12480, Note_on_c, 5, 42, 64
7, 12668, Note_off_c, 5, 42, 100
7, 12672, Note_on_c, 5, 43, 64
7, 12860, Note_off_c, 5, 43, 100
7, 12864, Note_on_c, 5, 40, 64
7, 13052, Note_off_c, 5, 40, 100
7, 13056, Note_on_c, 5, 42, 64
7, 13220, Note_off_c, 5, 42, 100
7, 13248, Note_on_c, 5, 40, 64
7, 13436, Note_off_c, 5, 40, 100
7, 13440, Note_on_c, 5, 42, 64
7, 13628, Note_off_c, 5, 42, 100
7, 13632, Note_on_c, 5, 38, 64
7, 13820, Note_off_c, 5, 38, 100
7, 13824, Note_on_c, 5, 40, 64
7, 13988, Note_off_c, 5, 40, 100
7, 14016, Note_on_c, 5, 38, 64
7, 14204, Note_off_c, 5, 38, 100
7, 14208, Note_on_c, 5, 40, 64
7, 14396, Note_off_c, 5, 40, 100
7, 14400, Note_on_c, 5, 36, 64
7, 14564, Note_off_c, 5, 36, 100
7, 14592, Note_on_c, 5, 38, 64
7, 14780, Note_off_c, 5, 38, 100
7, 14784, Note_on_c, 5, 26, 64
7, 14844, Note_off_c, 5, 26, 100
7, 14976, Note_on_c, 5, 38, 64
7, 15068, Note_off_c, 5, 38, 100
7, 15072, Note_on_c, 5, 36, 64
7, 15164, Note_off_c, 5, 36, 100
7, 15168, Note_on_c, 5, 35, 64
7, 15260, Note_off_c, 5, 35, 100
7, 15264, Note_on_c, 5, 33, 64
7, 15356, Note_off_c, 5, 33, 100
7, 15360, Note_on_c, 5, 35, 64
7, 15524, Note_off_c, 5, 35, 100
7, 15552, Note_on_c, 5, 33, 64
7, 15740, Note_off_c, 5, 33, 100
7, 15744, Note_on_c, 5, 35, 64
7, 15932, Note_off_c, 5, 35, 100
7, 15936, Note_on_c, 5, 31, 64
7, 16124, Note_off_c, 5, 31, 100
7, 16128, Note_on_c, 5, 36, 64
7, 16292, Note_off_c, 5, 36, 100
7, 16320, Note_on_c, 5, 35, 64
7, 16508, Note_off_c, 5, 35, 100
7, 16512, Note_on_c, 5, 36, 64
7, 16700, Note_off_c, 5, 36, 100
7, 16704, Note_on_c, 5, 33, 64
7, 16892, Note_off_c, 5, 33, 100
7, 16896, Note_on_c, 5, 38, 64
7, 17060, Note_off_c, 5, 38, 100
7, 17088, Note_on_c, 5, 36, 64
7, 17276, Note_off_c, 5, 36, 100
7, 17280, Note_on_c, 5, 38, 64
7, 17468, Note_off_c, 5, 38, 100
7, 17472, Note_on_c, 5, 26, 64
7, 17660, Note_off_c, 5, 26, 100
7, 17664, Note_on_c, 5, 31, 64
7, 17724, Note_off_c, 5, 31, 100
7, 17856, Note_on_c, 5, 43, 64
7, 17984, Note_off_c, 5, 43, 100
7, 18048, Note_on_c, 5, 47, 64
7, 18176, Note_off_c, 5, 47, 100
7, 18240, Note_on_c, 5, 50, 64
7, 18368, Note_off_c, 5, 50, 100
7, 18432, Note_on_c, 5, 55, 64
7, 18596, Note_off_c, 5, 55, 100
7, 18624, Note_on_c, 5, 54, 64
7, 18788, Note_off_c, 5, 54, 100
7, 18816, Note_on_c, 5, 55, 64
7, 18980, Note_off_c, 5, 55, 100
7, 19008, Note_on_c, 5, 52, 64
7, 19172, Note_off_c, 5, 52, 100
7, 19200, Note_on_c, 5, 54, 64
7, 19364, Note_off_c, 5, 54, 100
7, 19392, Note_on_c, 5, 52, 64
7, 19580, Note_off_c, 5, 52, 100
7, 19584, Note_on_c, 5, 54, 64
7, 19772, Note_off_c, 5, 54, 100
7, 19776, Note_on_c, 5, 50, 64
7, 19964, Note_off_c, 5, 50, 100
7, 19968, Note_on_c, 5, 52, 64
7, 20132, Note_off_c, 5, 52, 100
7, 20160, Note_on_c, 5, 50, 64
7, 20348, Note_off_c, 5, 50, 100
7, 20352, Note_on_c, 5, 52, 64
7, 20540, Note_off_c, 5, 52, 100
7, 20544, Note_on_c, 5, 47, 64
7, 20732, Note_off_c, 5, 47, 100
7, 20736, Note_on_c, 5, 49, 64
7, 20864, Note_off_c, 5, 49, 100
7, 20928, Note_on_c, 5, 52, 64
7, 21020, Note_off_c, 5, 52, 100
7, 21024, Note_on_c, 5, 50, 64
7, 21116, Note_off_c, 5, 50, 100
7, 21120, Note_on_c, 5, 49, 64
7, 21212, Note_off_c, 5, 49, 100
7, 21216, Note_on_c, 5, 47, 64
7, 21308, Note_off_c, 5, 47, 100
7, 21312, Note_on_c, 5, 45, 64
7, 21404, Note_off_c, 5, 45, 100
7, 21408, Note_on_c, 5, 43, 64
7, 21500, Note_off_c, 5, 43, 100
7, 21504, Note_on_c, 5, 42, 64
7, 21668, Note_off_c, 5, 42, 100
7, 21696, Note_on_c, 5, 40, 64
7, 21884, Note_off_c, 5, 40, 100
7, 21888, Note_on_c, 5, 42, 64
7, 22076, Note_off_c, 5, 42, 100
7, 22080, Note_on_c, 5, 38, 64
7, 22268, Note_off_c, 5, 38, 100
7, 22272, Note_on_c, 5, 43, 64
7, 22436, Note_off_c, 5, 43, 100
7, 22464, Note_on_c, 5, 42, 64
7, 22652, Note_off_c, 5, 42, 100
7, 22656, Note_on_c, 5, 43, 64
7, 22844, Note_off_c, 5, 43, 100
7, 22848, Note_on_c, 5, 40, 64
7, 23036, Note_off_c, 5, 40, 100
7, 23040, Note_on_c, 5, 45, 64
7, 23204, Note_off_c, 5, 45, 100
7, 23232, Note_on_c, 5, 43, 64
7, 23420, Note_off_c, 5, 43, 100
7, 23424, Note_on_c, 5, 45, 64
7, 23612, Note_off_c, 5, 45, 100
7, 23616, Note_on_c, 5, 33, 64
7, 23804, Note_off_c, 5, 33, 100
7, 23808, Note_on_c, 5, 38, 64
7, 23868, Note_off_c, 5, 38, 100
7, 24000, Note_on_c, 5, 33, 64
7, 24060, Note_off_c, 5, 33, 100
7, 24192, Note_on_c, 5, 26, 64
7, 24448, Note_off_c, 5, 26, 100
7, 24576, Note_on_c, 5, 50, 64
7, 24764, Note_off_c, 5, 50, 100
7, 24768, Note_on_c, 5, 49, 64
7, 24956, Note_off_c, 5, 49, 100
7, 24960, Note_on_c, 5, 50, 64
7, 25148, Note_off_c, 5, 50, 100
7, 25152, Note_on_c, 5, 45, 64
7, 25340, Note_off_c, 5, 45, 100
7, 25344, Note_on_c, 5, 47, 64
7, 25532, Note_off_c, 5, 47, 100
7, 25536, Note_on_c, 5, 45, 64
7, 25724, Note_off_c, 5, 45, 100
7, 25728, Note_on_c, 5, 47, 64
7, 25916, Note_off_c, 5, 47, 100
7, 25920, Note_on_c, 5, 43, 64
7, 26108, Note_off_c, 5, 43, 100
7, 26112, Note_on_c, 5, 48, 64
7, 26176, Note_off_c, 5, 48, 100
7, 26208, Note_on_c, 5, 36, 64
7, 26300, Note_off_c, 5, 36, 100
7, 26304, Note_on_c, 5, 35, 64
7, 26396, Note_off_c, 5, 35, 100
7, 26400, Note_on_c, 5, 38, 64
7, 26492, Note_off_c, 5, 38, 100
7, 26496, Note_on_c, 5, 36, 64
7, 26588, Note_off_c, 5, 36, 100
7, 26592, Note_on_c, 5, 35, 64
7, 26684, Note_off_c, 5, 35, 100
7, 26688, Note_on_c, 5, 33, 64
7, 26780, Note_off_c, 5, 33, 100
7, 26784, Note_on_c, 5, 36, 64
7, 26876, Note_off_c, 5, 36, 100
7, 26880, Note_on_c, 5, 35, 64
7, 26944, Note_off_c, 5, 35, 100
7, 26976, Note_on_c, 5, 47, 64
7, 27068, Note_off_c, 5, 47, 100
7, 27072, Note_on_c, 5, 45, 64
7, 27164, Note_off_c, 5, 45, 100
7, 27168, Note_on_c, 5, 48, 64
7, 27260, Note_off_c, 5, 48, 100
7, 27264, Note_on_c, 5, 47, 64
7, 27356, Note_off_c, 5, 47, 100
7, 27360, Note_on_c, 5, 45, 64
7, 27452, Note_off_c, 5, 45, 100
7, 27456, Note_on_c, 5, 43, 64
7, 27548, Note_off_c, 5, 43, 100
7, 27552, Note_on_c, 5, 42, 64
7, 27644, Note_off_c, 5, 42, 100
7, 27648, Note_on_c, 5, 43, 64
7, 27812, Note_off_c, 5, 43, 100
7, 27840, Note_on_c, 5, 42, 64
7, 28028, Note_off_c, 5, 42, 100
7, 28032, Note_on_c, 5, 43, 64
7, 28220, Note_off_c, 5, 43, 100
7, 28224, Note_on_c, 5, 40, 64
7, 28412, Note_off_c, 5, 40, 100
7, 28416, Note_on_c, 5, 45, 64
7, 28580, Note_off_c, 5, 45, 100
7, 28608, Note_on_c, 5, 43, 64
7, 28796, Note_off_c, 5, 43, 100
7, 28800, Note_on_c, 5, 45, 64
7, 28988, Note_off_c, 5, 45, 100
7, 28992, Note_on_c, 5, 42, 64
7, 29180, Note_off_c, 5, 42, 100
7, 29184, Note_on_c, 5, 47, 64
7, 29348, Note_off_c, 5, 47, 100
7, 29376, Note_on_c, 5, 46, 64
7, 29564, Note_off_c, 5, 46, 100
7, 29568, Note_on_c, 5, 47, 64
7, 29756, Note_off_c, 5, 47, 100
7, 29760, Note_on_c, 5, 35, 64
7, 29948, Note_off_c, 5, 35, 100
7, 29952, Note_on_c, 5, 28, 64
7, 30016, Note_off_c, 5, 28, 100
7, 30048, Note_on_c, 5, 40, 64
7, 30140, Note_off_c, 5, 40, 100
7, 30144, Note_on_c, 5, 39, 64
7, 30236, Note_off_c, 5, 39, 100
7, 30240, Note_on_c, 5, 42, 64
7, 30332, Note_off_c, 5, 42, 100
7, 30336, Note_on_c, 5, 40, 64
7, 30428, Note_off_c, 5, 40, 100
7, 30432, Note_on_c, 5, 38, 64
7, 30524, Note_off_c, 5, 38, 100
7, 30528, Note_on_c, 5, 36, 64
7, 30620, Note_off_c, 5, 36, 100
7, 30624, Note_on_c, 5, 35, 64
7, 30716, Note_off_c, 5, 35, 100
7, 30720, Note_on_c, 5, 36, 64
7, 30884, Note_off_c, 5, 36, 100
7, 30912, Note_on_c, 5, 35, 64
7, 31100, Note_off_c, 5, 35, 100
7, 31104, Note_on_c, 5, 36, 64
7, 31292, Note_off_c, 5, 36, 100
7, 31296, Note_on_c, 5, 45, 64
7, 31484, Note_off_c, 5, 45, 100
7, 31488, Note_on_c, 5, 35, 64
7, 31652, Note_off_c, 5, 35, 100
7, 31680, Note_on_c, 5, 33, 64
7, 31868, Note_off_c, 5, 33, 100
7, 31872, Note_on_c, 5, 35, 64
7, 32060, Note_off_c, 5, 35, 100
7, 32064, Note_on_c, 5, 43, 64
7, 32252, Note_off_c, 5, 43, 100
7, 32256, Note_on_c, 5, 33, 64
7, 32420, Note_off_c, 5, 33, 100
7, 32448, Note_on_c, 5, 31, 64
7, 32636, Note_off_c, 5, 31, 100
7, 32640, Note_on_c, 5, 33, 64
7, 32828, Note_off_c, 5, 33, 100
7, 32832, Note_on_c, 5, 43, 64
7, 33020, Note_off_c, 5, 43, 100
7, 33024, Note_on_c, 5, 42, 64
7, 33088, Note_off_c, 5, 42, 100
7, 33120, Note_on_c, 5, 38, 64
7, 33212, Note_off_c, 5, 38, 100
7, 33216, Note_on_c, 5, 36, 64
7, 33308, Note_off_c, 5, 36, 100
7, 33312, Note_on_c, 5, 40, 64
7, 33404, Note_off_c, 5, 40, 100
7, 33408, Note_on_c, 5, 38, 64
7, 33500, Note_off_c, 5, 38, 100
7, 33504, Note_on_c, 5, 36, 64
7, 33596, Note_off_c, 5, 36, 100
7, 33600, Note_on_c, 5, 35, 64
7, 33692, Note_off_c, 5, 35, 100
7, 33696, Note_on_c, 5, 33, 64
7, 33788, Note_off_c, 5, 33, 100
7, 33792, Note_on_c, 5, 31, 64
7, 33856, Note_off_c, 5, 31, 100
7, 33888, Note_on_c, 5, 43, 64
7, 33980, Note_off_c, 5, 43, 100
7, 33984, Note_on_c, 5, 42, 64
7, 34076, Note_off_c, 5, 42, 100
7, 34080, Note_on_c, 5, 45, 64
7, 34172, Note_off_c, 5, 45, 100
7, 34176, Note_on_c, 5, 43, 64
7, 34268, Note_off_c, 5, 43, 100
7, 34272, Note_on_c, 5, 41, 64
7, 34364, Note_off_c, 5, 41, 100
7, 34368, Note_on_c, 5, 40, 64
7, 34460, Note_off_c, 5, 40, 100
7, 34464, Note_on_c, 5, 38, 64
7, 34556, Note_off_c, 5, 38, 100
7, 34560, Note_on_c, 5, 36, 64
7, 34624, Note_off_c, 5, 36, 100
7, 34656, Note_on_c, 5, 48, 64
7, 34748, Note_off_c, 5, 48, 100
7, 34752, Note_on_c, 5, 47, 64
7, 34844, Note_off_c, 5, 47, 100
7, 34848, Note_on_c, 5, 50, 64
7, 34940, Note_off_c, 5, 50, 100
7, 34944, Note_on_c, 5, 48, 64
7, 35036, Note_off_c, 5, 48, 100
7, 35040, Note_on_c, 5, 47, 64
7, 35132, Note_off_c, 5, 47, 100
7, 35136, Note_on_c, 5, 45, 64
7, 35228, Note_off_c, 5, 45, 100
7, 35232, Note_on_c, 5, 43, 64
7, 35324, Note_off_c, 5, 43, 100
7, 35328, Note_on_c, 5, 42, 64
7, 35420, Note_off_c, 5, 42, 100
7, 35424, Note_on_c, 5, 43, 64
7, 35516, Note_off_c, 5, 43, 100
7, 35520, Note_on_c, 5, 42, 64
7, 35612, Note_off_c, 5, 42, 100
7, 35616, Note_on_c, 5, 43, 64
7, 35680, Note_off_c, 5, 43, 100
7, 35712, Note_on_c, 5, 35, 64
7, 35840, Note_off_c, 5, 35, 100
7, 35904, Note_on_c, 5, 38, 64
7, 36032, Note_off_c, 5, 38, 100
7, 36096, Note_on_c, 5, 31, 64
7, 36224, Note_off_c, 5, 31, 100
7, 36288, Note_on_c, 5, 43, 64
7, 36380, Note_off_c, 5, 43, 100
7, 36384, Note_on_c, 5, 42, 64
7, 36476, Note_off_c, 5, 42, 100
7, 36480, Note_on_c, 5, 43, 64
7, 36572, Note_off_c, 5, 43, 100
7, 36576, Note_on_c, 5, 45, 64
7, 36668, Note_off_c, 5, 45, 100
7, 36672, Note_on_c, 5, 47, 64
7, 36764, Note_off_c, 5, 47, 100
7, 36768, Note_on_c, 5, 48, 64
7, 36860, Note_off_c, 5, 48, 100
7, 36864, Note_on_c, 5, 50, 64
7, 37052, Note_off_c, 5, 50, 100
7, 37056, Note_on_c, 5, 49, 64
7, 37244, Note_off_c, 5, 49, 100
7, 37248, Note_on_c, 5, 50, 64
7, 37436, Note_off_c, 5, 50, 100
7, 37440, Note_on_c, 5, 45, 64
7, 37628, Note_off_c, 5, 45, 100
7, 37632, Note_on_c, 5, 47, 64
7, 37820, Note_off_c, 5, 47, 100
7, 37824, Note_on_c, 5, 45, 64
7, 38012, Note_off_c, 5, 45, 100
7, 38016, Note_on_c, 5, 47, 64
7, 38204, Note_off_c, 5, 47, 100
7, 38208, Note_on_c, 5, 43, 64
7, 38396, Note_off_c, 5, 43, 100
7, 38400, Note_on_c, 5, 48, 64
7, 38464, Note_off_c, 5, 48, 100
7, 38496, Note_on_c, 5, 36, 64
7, 38588, Note_off_c, 5, 36, 100
7, 38592, Note_on_c, 5, 35, 64
7, 38684, Note_off_c, 5, 35, 100
7, 38688, Note_on_c, 5, 38, 64
7, 38780, Note_off_c, 5, 38, 100
7, 38784, Note_on_c, 5, 36, 64
7, 38876, Note_off_c, 5, 36, 100
7, 38880, Note_on_c, 5, 35, 64
7, 38972, Note_off_c, 5, 35, 100
7, 38976, Note_on_c, 5, 33, 64
7, 39068, Note_off_c, 5, 33, 100
7, 39072, Note_on_c, 5, 36, 64
7, 39164, Note_off_c, 5, 36, 100
7, 39168, Note_on_c, 5, 35, 64
7, 39232, Note_off_c, 5, 35, 100
7, 39264, Note_on_c, 5, 47, 64
7, 39356, Note_off_c, 5, 47, 100
7, 39360, Note_on_c, 5, 45, 64
7, 39452, Note_off_c, 5, 45, 100
7, 39456, Note_on_c, 5, 48, 64
7, 39548, Note_off_c, 5, 48, 100
7, 39552, Note_on_c, 5, 47, 64
7, 39644, Note_off_c, 5, 47, 100
7, 39648, Note_on_c, 5, 45, 64
7, 39740, Note_off_c, 5, 45, 100
7, 39744, Note_on_c, 5, 43, 64
7, 39836, Note_off_c, 5, 43, 100
7, 39840, Note_on_c, 5, 42, 64
7, 39932, Note_off_c, 5, 42, 100
7, 39936, Note_on_c, 5, 43, 64
7, 40100, Note_off_c, 5, 43, 100
7, 40128, Note_on_c, 5, 42, 64
7, 40316, Note_off_c, 5, 42, 100
7, 40320, Note_on_c, 5, 43, 64
7, 40508, Note_off_c, 5, 43, 100
7, 40512, Note_on_c, 5, 40, 64
7, 40700, Note_off_c, 5, 40, 100
7, 40704, Note_on_c, 5, 45, 64
7, 40868, Note_off_c, 5, 45, 100
7, 40896, Note_on_c, 5, 43, 64
7, 41084, Note_off_c, 5, 43, 100
7, 41088, Note_on_c, 5, 45, 64
7, 41276, Note_off_c, 5, 45, 100
7, 41280, Note_on_c, 5, 42, 64
7, 41468, Note_off_c, 5, 42, 100
7, 41472, Note_on_c, 5, 47, 64
7, 41636, Note_off_c, 5, 47, 100
7, 41664, Note_on_c, 5, 46, 64
7, 41852, Note_off_c, 5, 46, 100
7, 41856, Note_on_c, 5, 47, 64
7, 42044, Note_off_c, 5, 47, 100
7, 42048, Note_on_c, 5, 35, 64
7, 42236, Note_off_c, 5, 35, 100
7, 42240, Note_on_c, 5, 28, 64
7, 42304, Note_off_c, 5, 28, 100
7, 42336, Note_on_c, 5, 40, 64
7, 42428, Note_off_c, 5, 40, 100
7, 42432, Note_on_c, 5, 39, 64
7, 42524, Note_off_c, 5, 39, 100
7, 42528, Note_on_c, 5, 42, 64
7, 42620, Note_off_c, 5, 42, 100
7, 42624, Note_on_c, 5, 40, 64
7, 42716, Note_off_c, 5, 40, 100
7, 42720, Note_on_c, 5, 38, 64
7, 42812, Note_off_c, 5, 38, 100
7, 42816, Note_on_c, 5, 36, 64
7, 42908, Note_off_c, 5, 36, 100
7, 42912, Note_on_c, 5, 35, 64
7, 43004, Note_off_c, 5, 35, 100
7, 43008, Note_on_c, 5, 36, 64
7, 43172, Note_off_c, 5, 36, 100
7, 43200, Note_on_c, 5, 35, 64
7, 43388, Note_off_c, 5, 35, 100
7, 43392, Note_on_c, 5, 36, 64
7, 43580, Note_off_c, 5, 36, 100
7, 43584, Note_on_c, 5, 45, 64
7, 43772, Note_off_c, 5, 45, 100
7, 43776, Note_on_c, 5, 35, 64
7, 43940, Note_off_c, 5, 35, 100
7, 43968, Note_on_c, 5, 33, 64
7, 44156, Note_off_c, 5, 33, 100
7, 44160, Note_on_c, 5, 35, 64
7, 44348, Note_off_c, 5, 35, 100
7, 44352, Note_on_c, 5, 43, 64
7, 44540, Note_off_c, 5, 43, 100
7, 44544, Note_on_c, 5, 33, 64
7, 44708, Note_off_c, 5, 33, 100
7, 44736, Note_on_c, 5, 31, 64
7, 44924, Note_off_c, 5, 31, 100
7, 44928, Note_on_c, 5, 33, 64
7, 45116, Note_off_c, 5, 33, 100
7, 45120, Note_on_c, 5, 43, 64
7, 45308, Note_off_c, 5, 43, 100
7, 45312, Note_on_c, 5, 42, 64
7, 45376, Note_off_c, 5, 42, 100
7, 45408, Note_on_c, 5, 38, 64
7, 45500, Note_off_c, 5, 38, 100
7, 45504, Note_on_c, 5, 36, 64
7, 45596, Note_off_c, 5, 36, 100
7, 45600, Note_on_c, 5, 40, 64
7, 45692, Note_off_c, 5, 40, 100
7, 45696, Note_on_c, 5, 38, 64
7, 45788, Note_off_c, 5, 38, 100
7, 45792, Note_on_c, 5, 36, 64
7, 45884, Note_off_c, 5, 36, 100
7, 45888, Note_on_c, 5, 35, 64
7, 45980, Note_off_c, 5, 35, 100
7, 45984, Note_on_c, 5, 33, 64
7, 46076, Note_off_c, 5, 33, 100
7, 46080, Note_on_c, 5, 31, 64
7, 46144, Note_off_c, 5, 31, 100
7, 46176, Note_on_c, 5, 43, 64
7, 46268, Note_off_c, 5, 43, 100
7, 46272, Note_on_c, 5, 42, 64
7, 46364, Note_off_c, 5, 42, 100
7, 46368, Note_on_c, 5, 45, 64
7, 46460, Note_off_c, 5, 45, 100
7, 46464, Note_on_c, 5, 43, 64
7, 46556, Note_off_c, 5, 43, 100
7, 46560, Note_on_c, 5, 41, 64
7, 46652, Note_off_c, 5, 41, 100
7, 46656, Note_on_c, 5, 40, 64
7, 46748, Note_off_c, 5, 40, 100
7, 46752, Note_on_c, 5, 38, 64
7, 46844, Note_off_c, 5, 38, 100
7, 46848, Note_on_c, 5, 36, 64
7, 46912, Note_off_c, 5, 36, 100
7, 46944, Note_on_c, 5, 48, 64
7, 47036, Note_off_c, 5, 48, 100
7, 47040, Note_on_c, 5, 47, 64
7, 47132, Note_off_c, 5, 47, 100
7, 47136, Note_on_c, 5, 50, 64
7, 47228, Note_off_c, 5, 50, 100
7, 47232, Note_on_c, 5, 48, 64
7, 47324, Note_off_c, 5, 48, 100
7, 47328, Note_on_c, 5, 47, 64
7, 47420, Note_off_c, 5, 47, 100
7, 47424, Note_on_c, 5, 45, 64
7, 47516, Note_off_c, 5, 45, 100
7, 47520, Note_on_c, 5, 43, 64
7, 47612, Note_off_c, 5, 43, 100
7, 47616, Note_on_c, 5, 42, 64
7, 47708, Note_off_c, 5, 42, 100
7, 47712, Note_on_c, 5, 43, 64
7, 47804, Note_off_c, 5, 43, 100
7, 47808, Note_on_c, 5, 42, 64
7, 47900, Note_off_c, 5, 42, 100
7, 47904, Note_on_c, 5, 43, 64
7, 47968, Note_off_c, 5, 43, 100
7, 48000, Note_on_c, 5, 35, 64
7, 48128, Note_off_c, 5, 35, 100
7, 48192, Note_on_c, 5, 38, 64
7, 48320, Note_off_c, 5, 38, 100
7, 48384, Note_on_c, 5, 43, 64
7, 48444, Note_off_c, 5, 43, 100
7, 48576, Note_on_c, 5, 38, 64
7, 48636, Note_off_c, 5, 38, 100
7, 48768, Note_on_c, 5, 43, 1
7, 48768, Note_on_c, 5, 31, 64
7, 49024, Note_off_c, 5, 31, 100
7, 49332, Note_off_c, 5, 43, 64
7, 49332, End_track
8, 0, Start_track
8, 0, Title_t, "www.bruno-de-giusti.net"
8, 0, Control_c, 6, 0, 0
8, 0, Program_c, 6, 6
8, 0, Control_c, 6, 7, 127
8, 0, Control_c, 6, 10, 64
8, 0, Control_c, 6, 91, 127
8, 0, Key_signature, 1, "major"
8, 0, Note_on_c, 6, 59, 96
8, 380, Note_off_c, 6, 59, 100
8, 384, Note_on_c, 6, 64, 96
8, 420, Note_off_c, 6, 64, 100
8, 424, Note_on_c, 6, 62, 96
8, 460, Note_off_c, 6, 62, 100
8, 464, Note_on_c, 6, 64, 96
8, 956, Note_off_c, 6, 64, 100
8, 960, Note_on_c, 6, 62, 96
8, 1052, Note_off_c, 6, 62, 100
8, 1056, Note_on_c, 6, 60, 96
8, 1148, Note_off_c, 6, 60, 100
8, 1152, Note_on_c, 6, 62, 96
8, 1244, Note_off_c, 6, 62, 100
8, 1248, Note_on_c, 6, 60, 96
8, 1340, Note_off_c, 6, 60, 100
8, 1344, Note_on_c, 6, 59, 96
8, 1436, Note_off_c, 6, 59, 100
8, 1440, Note_on_c, 6, 57, 96
8, 1532, Note_off_c, 6, 57, 100
8, 1536, Note_on_c, 6, 55, 96
8, 1916, Note_off_c, 6, 55, 100
8, 2112, Note_on_c, 6, 69, 96
8, 2300, Note_off_c, 6, 69, 100
8, 2304, Note_on_c, 6, 66, 96
8, 2492, Note_off_c, 6, 66, 100
8, 2496, Note_on_c, 6, 62, 96
8, 2684, Note_off_c, 6, 62, 100
8, 3168, Note_on_c, 6, 62, 96
8, 3260, Note_off_c, 6, 62, 100
8, 3264, Note_on_c, 6, 60, 96
8, 3356, Note_off_c, 6, 60, 100
8, 3360, Note_on_c, 6, 64, 96
8, 3452, Note_off_c, 6, 64, 100
8, 3456, Note_on_c, 6, 62, 96
8, 3584, Note_off_c, 6, 62, 100
8, 3648, Note_on_c, 6, 59, 96
8, 3932, Note_off_c, 6, 59, 100
8, 3936, Note_on_c, 6, 57, 96
8, 4028, Note_off_c, 6, 57, 100
8, 4032, Note_on_c, 6, 55, 96
8, 4124, Note_off_c, 6, 55, 100
8, 4128, Note_on_c, 6, 59, 96
8, 4220, Note_off_c, 6, 59, 100
8, 4224, Note_on_c, 6, 57, 96
8, 4352, Note_off_c, 6, 57, 100
8, 4416, Note_on_c, 6, 55, 96
8, 4700, Note_off_c, 6, 55, 100
8, 4704, Note_on_c, 6, 54, 96
8, 4796, Note_off_c, 6, 54, 100
8, 4800, Note_on_c, 6, 52, 96
8, 4892, Note_off_c, 6, 52, 100
8, 4896, Note_on_c, 6, 55, 96
8, 4988, Note_off_c, 6, 55, 100
8, 4992, Note_on_c, 6, 54, 96
8, 5372, Note_off_c, 6, 54, 100
8, 5376, Note_on_c, 6, 59, 96
8, 5440, Note_off_c, 6, 59, 100
8, 5472, Note_on_c, 6, 67, 96
8, 5564, Note_off_c, 6, 67, 100
8, 5568, Note_on_c, 6, 66, 96
8, 5660, Note_off_c, 6, 66, 100
8, 5664, Note_on_c, 6, 69, 96
8, 5756, Note_off_c, 6, 69, 100
8, 5760, Note_on_c, 6, 67, 96
8, 5852, Note_off_c, 6, 67, 100
8, 5856, Note_on_c, 6, 66, 96
8, 5948, Note_off_c, 6, 66, 100
8, 5952, Note_on_c, 6, 64, 96
8, 6044, Note_off_c, 6, 64, 100
8, 6048, Note_on_c, 6, 62, 96
8, 6140, Note_off_c, 6, 62, 100
8, 6144, Note_on_c, 6, 72, 96
8, 6332, Note_off_c, 6, 72, 100
8, 6336, Note_on_c, 6, 71, 96
8, 6524, Note_off_c, 6, 71, 100
8, 7680, Note_on_c, 6, 59, 96
8, 7772, Note_off_c, 6, 59, 100
8, 7776, Note_on_c, 6, 63, 96
8, 7868, Note_off_c, 6, 63, 100
8, 7872, Note_on_c, 6, 64, 96
8, 7952, Note_off_c, 6, 64, 100
8, 7968, Note_on_c, 6, 67, 96
8, 8060, Note_off_c, 6, 67, 100
8, 8064, Note_on_c, 6, 71, 96
8, 8540, Note_off_c, 6, 71, 100
8, 8544, Note_on_c, 6, 69, 96
8, 8636, Note_off_c, 6, 69, 100
8, 8640, Note_on_c, 6, 67, 96
8, 8732, Note_off_c, 6, 67, 100
8, 8736, Note_on_c, 6, 71, 96
8, 8828, Note_off_c, 6, 71, 100
8, 8832, Note_on_c, 6, 69, 96
8, 8924, Note_off_c, 6, 69, 100
8, 8928, Note_on_c, 6, 67, 96
8, 9020, Note_off_c, 6, 67, 100
8, 9024, Note_on_c, 6, 66, 96
8, 9116, Note_off_c, 6, 66, 100
8, 9120, Note_on_c, 6, 64, 96
8, 9212, Note_off_c, 6, 64, 100
8, 9216, Note_on_c, 6, 62, 96
8, 9596, Note_off_c, 6, 62, 100
8, 9696, Note_on_c, 6, 60, 96
8, 9788, Note_off_c, 6, 60, 100
8, 9792, Note_on_c, 6, 59, 96
8, 9884, Note_off_c, 6, 59, 100
8, 9888, Note_on_c, 6, 57, 96
8, 9980, Note_off_c, 6, 57, 100
8, 9984, Note_on_c, 6, 59, 96
8, 10364, Note_off_c, 6, 59, 100
8, 10464, Note_on_c, 6, 57, 96
8, 10556, Note_off_c, 6, 57, 100
8, 10560, Note_on_c, 6, 55, 96
8, 10652, Note_off_c, 6, 55, 100
8, 10656, Note_on_c, 6, 54, 96
8, 10748, Note_off_c, 6, 54, 100
8, 10752, Note_on_c, 6, 52, 96
8, 11132, Note_off_c, 6, 52, 100
8, 11232, Note_on_c, 6, 55, 96
8, 11324, Note_off_c, 6, 55, 100
8, 11328, Note_on_c, 6, 54, 96
8, 11420, Note_off_c, 6, 54, 100
8, 11424, Note_on_c, 6, 52, 96
8, 11516, Note_off_c, 6, 52, 100
8, 11520, Note_on_c, 6, 50, 96
8, 11708, Note_off_c, 6, 50, 100
8, 12288, Note_on_c, 6, 59, 96
8, 12668, Note_off_c, 6, 59, 100
8, 12672, Note_on_c, 6, 64, 96
8, 12708, Note_off_c, 6, 64, 100
8, 12712, Note_on_c, 6, 62, 96
8, 12748, Note_off_c, 6, 62, 100
8, 12752, Note_on_c, 6, 64, 96
8, 13244, Note_off_c, 6, 64, 64
8, 13248, Note_on_c, 6, 62, 96
8, 13340, Note_off_c, 6, 62, 100
8, 13344, Note_on_c, 6, 60, 96
8, 13436, Note_off_c, 6, 60, 100
8, 13440, Note_on_c, 6, 62, 96
8, 13532, Note_off_c, 6, 62, 100
8, 13536, Note_on_c, 6, 60, 96
8, 13628, Note_off_c, 6, 60, 100
8, 13632, Note_on_c, 6, 59, 96
8, 13724, Note_off_c, 6, 59, 100
8, 13728, Note_on_c, 6, 57, 96
8, 13820, Note_off_c, 6, 57, 100
8, 13824, Note_on_c, 6, 55, 96
8, 14204, Note_off_c, 6, 55, 100
8, 14400, Note_on_c, 6, 69, 96
8, 14588, Note_off_c, 6, 69, 100
8, 14592, Note_on_c, 6, 66, 96
8, 14780, Note_off_c, 6, 66, 100
8, 14784, Note_on_c, 6, 62, 96
8, 14972, Note_off_c, 6, 62, 100
8, 15456, Note_on_c, 6, 62, 96
8, 15548, Note_off_c, 6, 62, 100
8, 15552, Note_on_c, 6, 60, 96
8, 15644, Note_off_c, 6, 60, 100
8, 15648, Note_on_c, 6, 64, 96
8, 15740, Note_off_c, 6, 64, 100
8, 15744, Note_on_c, 6, 62, 96
8, 15872, Note_off_c, 6, 62, 100
8, 15936, Note_on_c, 6, 59, 96
8, 16220, Note_off_c, 6, 59, 64
8, 16224, Note_on_c, 6, 57, 96
8, 16316, Note_off_c, 6, 57, 100
8, 16320, Note_on_c, 6, 55, 96
8, 16412, Note_off_c, 6, 55, 100
8, 16416, Note_on_c, 6, 59, 96
8, 16508, Note_off_c, 6, 59, 100
8, 16512, Note_on_c, 6, 57, 96
8, 16640, Note_off_c, 6, 57, 100
8, 16704, Note_on_c, 6, 55, 96
8, 16988, Note_off_c, 6, 55, 64
8, 16992, Note_on_c, 6, 54, 96
8, 17084, Note_off_c, 6, 54, 100
8, 17088, Note_on_c, 6, 52, 96
8, 17180, Note_off_c, 6, 52, 100
8, 17184, Note_on_c, 6, 55, 96
8, 17276, Note_off_c, 6, 55, 100
8, 17280, Note_on_c, 6, 54, 96
8, 17660, Note_off_c, 6, 54, 100
8, 17664, Note_on_c, 6, 59, 96
8, 17728, Note_off_c, 6, 59, 100
8, 17760, Note_on_c, 6, 67, 96
8, 17852, Note_off_c, 6, 67, 100
8, 17856, Note_on_c, 6, 66, 96
8, 17948, Note_off_c, 6, 66, 100
8, 17952, Note_on_c, 6, 69, 96
8, 18044, Note_off_c, 6, 69, 100
8, 18048, Note_on_c, 6, 67, 96
8, 18140, Note_off_c, 6, 67, 100
8, 18144, Note_on_c, 6, 66, 96
8, 18236, Note_off_c, 6, 66, 100
8, 18240, Note_on_c, 6, 64, 96
8, 18332, Note_off_c, 6, 64, 100
8, 18336, Note_on_c, 6, 62, 96
8, 18428, Note_off_c, 6, 62, 100
8, 18432, Note_on_c, 6, 72, 96
8, 18620, Note_off_c, 6, 72, 100
8, 18624, Note_on_c, 6, 71, 96
8, 18812, Note_off_c, 6, 71, 100
8, 19968, Note_on_c, 6, 59, 96
8, 20060, Note_off_c, 6, 59, 100
8, 20064, Note_on_c, 6, 63, 96
8, 20156, Note_off_c, 6, 63, 100
8, 20160, Note_on_c, 6, 64, 96
8, 20240, Note_off_c, 6, 64, 100
8, 20256, Note_on_c, 6, 67, 96
8, 20348, Note_off_c, 6, 67, 100
8, 20352, Note_on_c, 6, 71, 96
8, 20828, Note_off_c, 6, 71, 64
8, 20832, Note_on_c, 6, 69, 96
8, 20924, Note_off_c, 6, 69, 100
8, 20928, Note_on_c, 6, 67, 96
8, 21020, Note_off_c, 6, 67, 100
8, 21024, Note_on_c, 6, 71, 96
8, 21116, Note_off_c, 6, 71, 100
8, 21120, Note_on_c, 6, 69, 96
8, 21212, Note_off_c, 6, 69, 100
8, 21216, Note_on_c, 6, 67, 96
8, 21308, Note_off_c, 6, 67, 100
8, 21312, Note_on_c, 6, 66, 96
8, 21404, Note_off_c, 6, 66, 100
8, 21408, Note_on_c, 6, 64, 96
8, 21500, Note_off_c, 6, 64, 100
8, 21504, Note_on_c, 6, 62, 96
8, 21884, Note_off_c, 6, 62, 100
8, 21984, Note_on_c, 6, 60, 96
8, 22076, Note_off_c, 6, 60, 100
8, 22080, Note_on_c, 6, 59, 96
8, 22172, Note_off_c, 6, 59, 100
8, 22176, Note_on_c, 6, 57, 96
8, 22268, Note_off_c, 6, 57, 100
8, 22272, Note_on_c, 6, 59, 96
8, 22652, Note_off_c, 6, 59, 100
8, 22752, Note_on_c, 6, 57, 96
8, 22844, Note_off_c, 6, 57, 100
8, 22848, Note_on_c, 6, 55, 96
8, 22940, Note_off_c, 6, 55, 100
8, 22944, Note_on_c, 6, 54, 96
8, 23036, Note_off_c, 6, 54, 100
8, 23040, Note_on_c, 6, 52, 96
8, 23420, Note_off_c, 6, 52, 100
8, 23520, Note_on_c, 6, 55, 96
8, 23612, Note_off_c, 6, 55, 100
8, 23616, Note_on_c, 6, 54, 96
8, 23708, Note_off_c, 6, 54, 100
8, 23712, Note_on_c, 6, 52, 96
8, 23804, Note_off_c, 6, 52, 100
8, 23808, Note_on_c, 6, 50, 96
8, 24188, Note_off_c, 6, 50, 100
8, 24672, Note_on_c, 6, 66, 96
8, 24764, Note_off_c, 6, 66, 100
8, 24768, Note_on_c, 6, 64, 96
8, 24860, Note_off_c, 6, 64, 100
8, 24864, Note_on_c, 6, 67, 96
8, 24956, Note_off_c, 6, 67, 100
8, 24960, Note_on_c, 6, 66, 96
8, 25052, Note_off_c, 6, 66, 100
8, 25056, Note_on_c, 6, 64, 96
8, 25148, Note_off_c, 6, 64, 100
8, 25152, Note_on_c, 6, 62, 96
8, 25244, Note_off_c, 6, 62, 100
8, 25248, Note_on_c, 6, 61, 96
8, 25340, Note_off_c, 6, 61, 100
8, 25344, Note_on_c, 6, 62, 96
8, 25724, Note_off_c, 6, 62, 100
8, 25920, Note_on_c, 6, 59, 96
8, 26108, Note_off_c, 6, 59, 100
8, 26112, Note_on_c, 6, 55, 96
8, 26300, Note_off_c, 6, 55, 100
8, 26304, Note_on_c, 6, 52, 96
8, 26492, Note_off_c, 6, 52, 100
8, 26496, Note_on_c, 6, 57, 96
8, 26752, Note_off_c, 6, 57, 100
8, 26976, Note_on_c, 6, 55, 96
8, 27068, Note_off_c, 6, 55, 100
8, 27072, Note_on_c, 6, 54, 96
8, 27164, Note_off_c, 6, 54, 100
8, 27168, Note_on_c, 6, 57, 96
8, 27260, Note_off_c, 6, 57, 100
8, 27264, Note_on_c, 6, 55, 96
8, 27356, Note_off_c, 6, 55, 100
8, 27360, Note_on_c, 6, 54, 96
8, 27452, Note_off_c, 6, 54, 100
8, 27456, Note_on_c, 6, 52, 96
8, 27548, Note_off_c, 6, 52, 100
8, 27552, Note_on_c, 6, 51, 96
8, 27644, Note_off_c, 6, 51, 100
8, 27648, Note_on_c, 6, 52, 96
8, 27712, Note_off_c, 6, 52, 100
8, 27744, Note_on_c, 6, 59, 96
8, 27836, Note_off_c, 6, 59, 100
8, 27840, Note_on_c, 6, 57, 96
8, 27932, Note_off_c, 6, 57, 100
8, 27936, Note_on_c, 6, 60, 96
8, 28028, Note_off_c, 6, 60, 100
8, 28032, Note_on_c, 6, 59, 96
8, 28160, Note_off_c, 6, 59, 100
8, 28224, Note_on_c, 6, 55, 96
8, 28508, Note_off_c, 6, 55, 100
8, 28512, Note_on_c, 6, 54, 96
8, 28604, Note_off_c, 6, 54, 100
8, 28608, Note_on_c, 6, 52, 96
8, 28700, Note_off_c, 6, 52, 100
8, 28704, Note_on_c, 6, 55, 96
8, 28796, Note_off_c, 6, 55, 100
8, 28800, Note_on_c, 6, 54, 96
8, 28928, Note_off_c, 6, 54, 100
8, 28992, Note_on_c, 6, 52, 96
8, 29276, Note_off_c, 6, 52, 100
8, 29280, Note_on_c, 6, 51, 96
8, 29372, Note_off_c, 6, 51, 100
8, 29376, Note_on_c, 6, 49, 96
8, 29468, Note_off_c, 6, 49, 100
8, 29472, Note_on_c, 6, 52, 96
8, 29564, Note_off_c, 6, 52, 100
8, 29568, Note_on_c, 6, 51, 96
8, 29948, Note_off_c, 6, 51, 100
8, 29952, Note_on_c, 6, 55, 96
8, 30208, Note_off_c, 6, 55, 100
8, 30720, Note_on_c, 6, 52, 96
8, 31100, Note_off_c, 6, 52, 100
8, 31104, Note_on_c, 6, 57, 96
8, 31360, Note_off_c, 6, 57, 100
8, 31584, Note_on_c, 6, 55, 96
8, 31676, Note_off_c, 6, 55, 100
8, 31680, Note_on_c, 6, 54, 96
8, 31772, Note_off_c, 6, 54, 100
8, 31776, Note_on_c, 6, 57, 96
8, 31868, Note_off_c, 6, 57, 100
8, 31872, Note_on_c, 6, 55, 96
8, 31964, Note_off_c, 6, 55, 100
8, 31968, Note_on_c, 6, 54, 96
8, 32060, Note_off_c, 6, 54, 100
8, 32064, Note_on_c, 6, 52, 96
8, 32156, Note_off_c, 6, 52, 100
8, 32160, Note_on_c, 6, 50, 96
8, 32252, Note_off_c, 6, 50, 100
8, 32256, Note_on_c, 6, 48, 96
8, 32636, Note_off_c, 6, 48, 100
8, 32640, Note_on_c, 6, 60, 96
8, 32896, Note_off_c, 6, 60, 100
8, 33120, Note_on_c, 6, 59, 96
8, 33212, Note_off_c, 6, 59, 100
8, 33216, Note_on_c, 6, 57, 96
8, 33308, Note_off_c, 6, 57, 100
8, 33312, Note_on_c, 6, 60, 96
8, 33404, Note_off_c, 6, 60, 100
8, 33408, Note_on_c, 6, 59, 96
8, 33500, Note_off_c, 6, 59, 100
8, 33504, Note_on_c, 6, 57, 96
8, 33596, Note_off_c, 6, 57, 100
8, 33600, Note_on_c, 6, 55, 96
8, 33692, Note_off_c, 6, 55, 100
8, 33696, Note_on_c, 6, 54, 96
8, 33788, Note_off_c, 6, 54, 100
8, 33792, Note_on_c, 6, 62, 96
8, 34172, Note_off_c, 6, 62, 100
8, 34176, Note_on_c, 6, 65, 96
8, 34432, Note_off_c, 6, 65, 100
8, 34656, Note_on_c, 6, 64, 96
8, 34748, Note_off_c, 6, 64, 100
8, 34752, Note_on_c, 6, 62, 96
8, 34844, Note_off_c, 6, 62, 100
8, 34848, Note_on_c, 6, 65, 96
8, 34912, Note_off_c, 6, 65, 100
8, 34944, Note_on_c, 6, 64, 96
8, 35036, Note_off_c, 6, 64, 100
8, 35040, Note_on_c, 6, 67, 96
8, 35132, Note_off_c, 6, 67, 100
8, 35136, Note_on_c, 6, 66, 96
8, 35228, Note_off_c, 6, 66, 100
8, 35232, Note_on_c, 6, 67, 96
8, 35324, Note_off_c, 6, 67, 100
8, 35328, Note_on_c, 6, 69, 96
8, 35456, Note_off_c, 6, 69, 100
8, 35520, Note_on_c, 6, 62, 96
8, 35804, Note_off_c, 6, 62, 100
8, 35808, Note_on_c, 6, 60, 96
8, 35900, Note_off_c, 6, 60, 100
8, 35904, Note_on_c, 6, 59, 96
8, 35996, Note_off_c, 6, 59, 100
8, 36000, Note_on_c, 6, 57, 96
8, 36092, Note_off_c, 6, 57, 100
8, 36096, Note_on_c, 6, 55, 96
8, 36476, Note_off_c, 6, 55, 100
8, 36960, Note_on_c, 6, 66, 96
8, 37052, Note_off_c, 6, 66, 100
8, 37056, Note_on_c, 6, 64, 96
8, 37148, Note_off_c, 6, 64, 100
8, 37152, Note_on_c, 6, 67, 96
8, 37244, Note_off_c, 6, 67, 100
8, 37248, Note_on_c, 6, 66, 96
8, 37340, Note_off_c, 6, 66, 100
8, 37344, Note_on_c, 6, 64, 96
8, 37436, Note_off_c, 6, 64, 100
8, 37440, Note_on_c, 6, 62, 96
8, 37532, Note_off_c, 6, 62, 100
8, 37536, Note_on_c, 6, 61, 96
8, 37628, Note_off_c, 6, 61, 100
8, 37632, Note_on_c, 6, 62, 96
8, 38012, Note_off_c, 6, 62, 100
8, 38208, Note_on_c, 6, 59, 96
8, 38396, Note_off_c, 6, 59, 100
8, 38400, Note_on_c, 6, 55, 96
8, 38588, Note_off_c, 6, 55, 100
8, 38592, Note_on_c, 6, 52, 96
8, 38780, Note_off_c, 6, 52, 100
8, 38784, Note_on_c, 6, 57, 96
8, 39040, Note_off_c, 6, 57, 100
8, 39264, Note_on_c, 6, 55, 96
8, 39356, Note_off_c, 6, 55, 100
8, 39360, Note_on_c, 6, 54, 96
8, 39452, Note_off_c, 6, 54, 100
8, 39456, Note_on_c, 6, 57, 96
8, 39548, Note_off_c, 6, 57, 100
8, 39552, Note_on_c, 6, 55, 96
8, 39644, Note_off_c, 6, 55, 100
8, 39648, Note_on_c, 6, 54, 96
8, 39740, Note_off_c, 6, 54, 100
8, 39744, Note_on_c, 6, 52, 96
8, 39836, Note_off_c, 6, 52, 100
8, 39840, Note_on_c, 6, 51, 96
8, 39932, Note_off_c, 6, 51, 100
8, 39936, Note_on_c, 6, 52, 96
8, 40000, Note_off_c, 6, 52, 100
8, 40032, Note_on_c, 6, 59, 96
8, 40124, Note_off_c, 6, 59, 100
8, 40128, Note_on_c, 6, 57, 96
8, 40220, Note_off_c, 6, 57, 100
8, 40224, Note_on_c, 6, 60, 96
8, 40316, Note_off_c, 6, 60, 100
8, 40320, Note_on_c, 6, 59, 96
8, 40448, Note_off_c, 6, 59, 100
8, 40512, Note_on_c, 6, 55, 96
8, 40796, Note_off_c, 6, 55, 64
8, 40800, Note_on_c, 6, 54, 96
8, 40892, Note_off_c, 6, 54, 100
8, 40896, Note_on_c, 6, 52, 96
8, 40988, Note_off_c, 6, 52, 100
8, 40992, Note_on_c, 6, 55, 96
8, 41084, Note_off_c, 6, 55, 100
8, 41088, Note_on_c, 6, 54, 96
8, 41216, Note_off_c, 6, 54, 100
8, 41280, Note_on_c, 6, 52, 96
8, 41564, Note_off_c, 6, 52, 64
8, 41568, Note_on_c, 6, 51, 96
8, 41660, Note_off_c, 6, 51, 100
8, 41664, Note_on_c, 6, 49, 96
8, 41756, Note_off_c, 6, 49, 100
8, 41760, Note_on_c, 6, 52, 96
8, 41852, Note_off_c, 6, 52, 100
8, 41856, Note_on_c, 6, 51, 96
8, 42236, Note_off_c, 6, 51, 100
8, 42240, Note_on_c, 6, 55, 96
8, 42496, Note_off_c, 6, 55, 100
8, 43008, Note_on_c, 6, 52, 96
8, 43388, Note_off_c, 6, 52, 100
8, 43392, Note_on_c, 6, 57, 96
8, 43648, Note_off_c, 6, 57, 100
8, 43872, Note_on_c, 6, 55, 96
8, 43964, Note_off_c, 6, 55, 100
8, 43968, Note_on_c, 6, 54, 96
8, 44060, Note_off_c, 6, 54, 100
8, 44064, Note_on_c, 6, 57, 96
8, 44156, Note_off_c, 6, 57, 100
8, 44160, Note_on_c, 6, 55, 96
8, 44252, Note_off_c, 6, 55, 100
8, 44256, Note_on_c, 6, 54, 96
8, 44348, Note_off_c, 6, 54, 100
8, 44352, Note_on_c, 6, 52, 96
8, 44444, Note_off_c, 6, 52, 100
8, 44448, Note_on_c, 6, 50, 96
8, 44540, Note_off_c, 6, 50, 100
8, 44544, Note_on_c, 6, 48, 96
8, 44924, Note_off_c, 6, 48, 100
8, 44928, Note_on_c, 6, 60, 96
8, 45184, Note_off_c, 6, 60, 100
8, 45408, Note_on_c, 6, 59, 96
8, 45500, Note_off_c, 6, 59, 100
8, 45504, Note_on_c, 6, 57, 96
8, 45596, Note_off_c, 6, 57, 100
8, 45600, Note_on_c, 6, 60, 96
8, 45692, Note_off_c, 6, 60, 100
8, 45696, Note_on_c, 6, 59, 96
8, 45788, Note_off_c, 6, 59, 100
8, 45792, Note_on_c, 6, 57, 96
8, 45884, Note_off_c, 6, 57, 100
8, 45888, Note_on_c, 6, 55, 96
8, 45980, Note_off_c, 6, 55, 100
8, 45984, Note_on_c, 6, 54, 96
8, 46076, Note_off_c, 6, 54, 100
8, 46080, Note_on_c, 6, 62, 96
8, 46460, Note_off_c, 6, 62, 100
8, 46464, Note_on_c, 6, 65, 96
8, 46720, Note_off_c, 6, 65, 100
8, 46944, Note_on_c, 6, 64, 96
8, 47036, Note_off_c, 6, 64, 100
8, 47040, Note_on_c, 6, 62, 96
8, 47132, Note_off_c, 6, 62, 100
8, 47136, Note_on_c, 6, 65, 96
8, 47200, Note_off_c, 6, 65, 100
8, 47232, Note_on_c, 6, 64, 96
8, 47324, Note_off_c, 6, 64, 100
8, 47328, Note_on_c, 6, 67, 96
8, 47420, Note_off_c, 6, 67, 100
8, 47424, Note_on_c, 6, 66, 96
8, 47516, Note_off_c, 6, 66, 100
8, 47520, Note_on_c, 6, 67, 96
8, 47612, Note_off_c, 6, 67, 100
8, 47616, Note_on_c, 6, 69, 96
8, 47744, Note_off_c, 6, 69, 100
8, 47808, Note_on_c, 6, 62, 96
8, 48092, Note_off_c, 6, 62, 100
8, 48096, Note_on_c, 6, 60, 96
8, 48188, Note_off_c, 6, 60, 100
8, 48192, Note_on_c, 6, 59, 96
8, 48284, Note_off_c, 6, 59, 100
8, 48288, Note_on_c, 6, 57, 96
8, 48380, Note_off_c, 6, 57, 100
8, 48384, Note_on_c, 6, 55, 96
8, 48764, Note_off_c, 6, 55, 100
8, 48764, End_track
9, 0, Start_track
9, 0, Title_t, "All rights reserved"
9, 0, Control_c, 7, 0, 0
9, 0, Program_c, 7, 6
9, 0, Control_c, 7, 7, 127
9, 0, Control_c, 7, 10, 64
9, 0, Control_c, 7, 91, 127
9, 0, Key_signature, 1, "major"
9, 1536, Note_on_c, 7, 67, 96
9, 1916, Note_off_c, 7, 67, 100
9, 1920, Note_on_c, 7, 72, 96
9, 1956, Note_off_c, 7, 72, 100
9, 1960, Note_on_c, 7, 71, 96
9, 1996, Note_off_c, 7, 71, 100
9, 2000, Note_on_c, 7, 72, 96
9, 2492, Note_off_c, 7, 72, 64
9, 2496, Note_on_c, 7, 71, 96
9, 2588, Note_off_c, 7, 71, 100
9, 2592, Note_on_c, 7, 69, 96
9, 2684, Note_off_c, 7, 69, 100
9, 2688, Note_on_c, 7, 71, 96
9, 2780, Note_off_c, 7, 71, 100
9, 2784, Note_on_c, 7, 69, 96
9, 2876, Note_off_c, 7, 69, 100
9, 2880, Note_on_c, 7, 67, 96
9, 2972, Note_off_c, 7, 67, 100
9, 2976, Note_on_c, 7, 66, 96
9, 3068, Note_off_c, 7, 66, 100
9, 3072, Note_on_c, 7, 67, 96
9, 3452, Note_off_c, 7, 67, 100
9, 3552, Note_on_c, 7, 65, 96
9, 3644, Note_off_c, 7, 65, 100
9, 3648, Note_on_c, 7, 64, 96
9, 3740, Note_off_c, 7, 64, 100
9, 3744, Note_on_c, 7, 62, 96
9, 3836, Note_off_c, 7, 62, 100
9, 3840, Note_on_c, 7, 64, 96
9, 4220, Note_off_c, 7, 64, 100
9, 4320, Note_on_c, 7, 62, 96
9, 4412, Note_off_c, 7, 62, 100
9, 4416, Note_on_c, 7, 60, 96
9, 4508, Note_off_c, 7, 60, 100
9, 4512, Note_on_c, 7, 59, 96
9, 4604, Note_off_c, 7, 59, 100
9, 4608, Note_on_c, 7, 57, 96
9, 4988, Note_off_c, 7, 57, 100
9, 5088, Note_on_c, 7, 60, 96
9, 5180, Note_off_c, 7, 60, 100
9, 5184, Note_on_c, 7, 59, 96
9, 5276, Note_off_c, 7, 59, 100
9, 5280, Note_on_c, 7, 57, 96
9, 5372, Note_off_c, 7, 57, 100
9, 5376, Note_on_c, 7, 55, 96
9, 5564, Note_off_c, 7, 55, 100
9, 6144, Note_on_c, 7, 55, 96
9, 6236, Note_off_c, 7, 55, 100
9, 6240, Note_on_c, 7, 57, 96
9, 6332, Note_off_c, 7, 57, 100
9, 6336, Note_on_c, 7, 59, 96
9, 6428, Note_off_c, 7, 59, 100
9, 6432, Note_on_c, 7, 62, 96
9, 6524, Note_off_c, 7, 62, 100
9, 6528, Note_on_c, 7, 64, 96
9, 6908, Note_off_c, 7, 64, 100
9, 7008, Note_on_c, 7, 62, 96
9, 7100, Note_off_c, 7, 62, 100
9, 7104, Note_on_c, 7, 61, 96
9, 7196, Note_off_c, 7, 61, 100
9, 7200, Note_on_c, 7, 64, 96
9, 7292, Note_off_c, 7, 64, 100
9, 7296, Note_on_c, 7, 62, 96
9, 7388, Note_off_c, 7, 62, 100
9, 7392, Note_on_c, 7, 61, 96
9, 7484, Note_off_c, 7, 61, 100
9, 7488, Note_on_c, 7, 59, 96
9, 7580, Note_off_c, 7, 59, 100
9, 7584, Note_on_c, 7, 57, 96
9, 7676, Note_off_c, 7, 57, 100
9, 7680, Note_on_c, 7, 55, 96
9, 8060, Note_off_c, 7, 55, 100
9, 8256, Note_on_c, 7, 67, 96
9, 8444, Note_off_c, 7, 67, 100
9, 8448, Note_on_c, 7, 64, 96
9, 8636, Note_off_c, 7, 64, 100
9, 8640, Note_on_c, 7, 61, 96
9, 8828, Note_off_c, 7, 61, 100
9, 9312, Note_on_c, 7, 57, 96
9, 9404, Note_off_c, 7, 57, 100
9, 9408, Note_on_c, 7, 55, 96
9, 9500, Note_off_c, 7, 55, 100
9, 9504, Note_on_c, 7, 59, 96
9, 9596, Note_off_c, 7, 59, 100
9, 9600, Note_on_c, 7, 57, 96
9, 9728, Note_off_c, 7, 57, 100
9, 9792, Note_on_c, 7, 54, 96
9, 10076, Note_off_c, 7, 54, 64
9, 10080, Note_on_c, 7, 52, 96
9, 10172, Note_off_c, 7, 52, 100
9, 10176, Note_on_c, 7, 50, 96
9, 10268, Note_off_c, 7, 50, 100
9, 10272, Note_on_c, 7, 54, 96
9, 10364, Note_off_c, 7, 54, 100
9, 10368, Note_on_c, 7, 52, 96
9, 10496, Note_off_c, 7, 52, 100
9, 10560, Note_on_c, 7, 50, 96
9, 10844, Note_off_c, 7, 50, 64
9, 10848, Note_on_c, 7, 49, 96
9, 10940, Note_off_c, 7, 49, 100
9, 10944, Note_on_c, 7, 47, 96
9, 11036, Note_off_c, 7, 47, 100
9, 11040, Note_on_c, 7, 50, 96
9, 11132, Note_off_c, 7, 50, 100
9, 11136, Note_on_c, 7, 49, 96
9, 11516, Note_off_c, 7, 49, 100
9, 11520, Note_on_c, 7, 50, 96
9, 11708, Note_off_c, 7, 50, 100
9, 13824, Note_on_c, 7, 67, 96
9, 14204, Note_off_c, 7, 67, 100
9, 14208, Note_on_c, 7, 72, 96
9, 14244, Note_off_c, 7, 72, 100
9, 14248, Note_on_c, 7, 71, 96
9, 14284, Note_off_c, 7, 71, 100
9, 14288, Note_on_c, 7, 72, 96
9, 14780, Note_off_c, 7, 72, 64
9, 14784, Note_on_c, 7, 71, 96
9, 14876, Note_off_c, 7, 71, 100
9, 14880, Note_on_c, 7, 69, 96
9, 14972, Note_off_c, 7, 69, 100
9, 14976, Note_on_c, 7, 71, 96
9, 15068, Note_off_c, 7, 71, 100
9, 15072, Note_on_c, 7, 69, 96
9, 15164, Note_off_c, 7, 69, 100
9, 15168, Note_on_c, 7, 67, 96
9, 15260, Note_off_c, 7, 67, 100
9, 15264, Note_on_c, 7, 66, 96
9, 15356, Note_off_c, 7, 66, 100
9, 15360, Note_on_c, 7, 67, 96
9, 15740, Note_off_c, 7, 67, 100
9, 15840, Note_on_c, 7, 65, 96
9, 15932, Note_off_c, 7, 65, 100
9, 15936, Note_on_c, 7, 64, 96
9, 16028, Note_off_c, 7, 64, 100
9, 16032, Note_on_c, 7, 62, 96
9, 16124, Note_off_c, 7, 62, 100
9, 16128, Note_on_c, 7, 64, 96
9, 16508, Note_off_c, 7, 64, 100
9, 16608, Note_on_c, 7, 62, 96
9, 16700, Note_off_c, 7, 62, 100
9, 16704, Note_on_c, 7, 60, 96
9, 16796, Note_off_c, 7, 60, 100
9, 16800, Note_on_c, 7, 59, 96
9, 16892, Note_off_c, 7, 59, 100
9, 16896, Note_on_c, 7, 57, 96
9, 17276, Note_off_c, 7, 57, 100
9, 17376, Note_on_c, 7, 60, 96
9, 17468, Note_off_c, 7, 60, 100
9, 17472, Note_on_c, 7, 59, 96
9, 17564, Note_off_c, 7, 59, 100
9, 17568, Note_on_c, 7, 57, 96
9, 17660, Note_off_c, 7, 57, 100
9, 17664, Note_on_c, 7, 55, 96
9, 17852, Note_off_c, 7, 55, 100
9, 18432, Note_on_c, 7, 55, 96
9, 18524, Note_off_c, 7, 55, 100
9, 18528, Note_on_c, 7, 57, 96
9, 18620, Note_off_c, 7, 57, 100
9, 18624, Note_on_c, 7, 59, 96
9, 18716, Note_off_c, 7, 59, 100
9, 18720, Note_on_c, 7, 62, 96
9, 18812, Note_off_c, 7, 62, 100
9, 18816, Note_on_c, 7, 64, 96
9, 19196, Note_off_c, 7, 64, 100
9, 19296, Note_on_c, 7, 62, 96
9, 19388, Note_off_c, 7, 62, 100
9, 19392, Note_on_c, 7, 61, 96
9, 19484, Note_off_c, 7, 61, 100
9, 19488, Note_on_c, 7, 64, 96
9, 19580, Note_off_c, 7, 64, 100
9, 19584, Note_on_c, 7, 62, 96
9, 19676, Note_off_c, 7, 62, 100
9, 19680, Note_on_c, 7, 61, 96
9, 19772, Note_off_c, 7, 61, 100
9, 19776, Note_on_c, 7, 59, 96
9, 19868, Note_off_c, 7, 59, 100
9, 19872, Note_on_c, 7, 57, 96
9, 19964, Note_off_c, 7, 57, 100
9, 19968, Note_on_c, 7, 55, 96
9, 20348, Note_off_c, 7, 55, 100
9, 20544, Note_on_c, 7, 67, 96
9, 20732, Note_off_c, 7, 67, 100
9, 20736, Note_on_c, 7, 64, 96
9, 20924, Note_off_c, 7, 64, 100
9, 20928, Note_on_c, 7, 61, 96
9, 21116, Note_off_c, 7, 61, 100
9, 21600, Note_on_c, 7, 57, 96
9, 21692, Note_off_c, 7, 57, 100
9, 21696, Note_on_c, 7, 55, 96
9, 21788, Note_off_c, 7, 55, 100
9, 21792, Note_on_c, 7, 59, 96
9, 21884, Note_off_c, 7, 59, 100
9, 21888, Note_on_c, 7, 57, 96
9, 22016, Note_off_c, 7, 57, 100
9, 22080, Note_on_c, 7, 54, 96
9, 22364, Note_off_c, 7, 54, 64
9, 22368, Note_on_c, 7, 52, 96
9, 22460, Note_off_c, 7, 52, 100
9, 22464, Note_on_c, 7, 50, 96
9, 22556, Note_off_c, 7, 50, 100
9, 22560, Note_on_c, 7, 54, 96
9, 22652, Note_off_c, 7, 54, 100
9, 22656, Note_on_c, 7, 52, 96
9, 22784, Note_off_c, 7, 52, 100
9, 22848, Note_on_c, 7, 50, 96
9, 23132, Note_off_c, 7, 50, 64
9, 23136, Note_on_c, 7, 49, 96
9, 23228, Note_off_c, 7, 49, 100
9, 23232, Note_on_c, 7, 47, 96
9, 23324, Note_off_c, 7, 47, 100
9, 23328, Note_on_c, 7, 50, 96
9, 23420, Note_off_c, 7, 50, 100
9, 23424, Note_on_c, 7, 49, 96
9, 23804, Note_off_c, 7, 49, 100
9, 23808, Note_on_c, 7, 50, 96
9, 24188, Note_off_c, 7, 50, 100
9, 24576, Note_on_c, 7, 57, 96
9, 24956, Note_off_c, 7, 57, 100
9, 24960, Note_on_c, 7, 69, 96
9, 25216, Note_off_c, 7, 69, 100
9, 25440, Note_on_c, 7, 67, 96
9, 25532, Note_off_c, 7, 67, 100
9, 25536, Note_on_c, 7, 66, 96
9, 25628, Note_off_c, 7, 66, 100
9, 25632, Note_on_c, 7, 69, 96
9, 25724, Note_off_c, 7, 69, 100
9, 25728, Note_on_c, 7, 67, 96
9, 25820, Note_off_c, 7, 67, 100
9, 25824, Note_on_c, 7, 66, 96
9, 25916, Note_off_c, 7, 66, 100
9, 25920, Note_on_c, 7, 64, 96
9, 26012, Note_off_c, 7, 64, 100
9, 26016, Note_on_c, 7, 63, 96
9, 26108, Note_off_c, 7, 63, 100
9, 26112, Note_on_c, 7, 64, 96
9, 26368, Note_off_c, 7, 64, 100
9, 26688, Note_on_c, 7, 66, 96
9, 26876, Note_off_c, 7, 66, 100
9, 26880, Note_on_c, 7, 63, 96
9, 27068, Note_off_c, 7, 63, 100
9, 27072, Note_on_c, 7, 59, 96
9, 27260, Note_off_c, 7, 59, 100
9, 27648, Note_on_c, 7, 64, 96
9, 28120, Note_off_c, 7, 64, 100
9, 28128, Note_on_c, 7, 62, 96
9, 28220, Note_off_c, 7, 62, 100
9, 28224, Note_on_c, 7, 60, 96
9, 28316, Note_off_c, 7, 60, 100
9, 28320, Note_on_c, 7, 59, 96
9, 28412, Note_off_c, 7, 59, 100
9, 28416, Note_on_c, 7, 60, 96
9, 28888, Note_off_c, 7, 60, 100
9, 28896, Note_on_c, 7, 59, 96
9, 28988, Note_off_c, 7, 59, 100
9, 28992, Note_on_c, 7, 57, 96
9, 29084, Note_off_c, 7, 57, 100
9, 29088, Note_on_c, 7, 55, 96
9, 29180, Note_off_c, 7, 55, 100
9, 29184, Note_on_c, 7, 54, 96
9, 29656, Note_off_c, 7, 54, 100
9, 29664, Note_on_c, 7, 57, 96
9, 29756, Note_off_c, 7, 57, 100
9, 29760, Note_on_c, 7, 55, 96
9, 29852, Note_off_c, 7, 55, 100
9, 29856, Note_on_c, 7, 54, 96
9, 29948, Note_off_c, 7, 54, 100
9, 29952, Note_on_c, 7, 52, 96
9, 30332, Note_off_c, 7, 52, 100
9, 30336, Note_on_c, 7, 59, 96
9, 30592, Note_off_c, 7, 59, 100
9, 30816, Note_on_c, 7, 57, 96
9, 30908, Note_off_c, 7, 57, 100
9, 30912, Note_on_c, 7, 55, 96
9, 31004, Note_off_c, 7, 55, 100
9, 31008, Note_on_c, 7, 59, 96
9, 31100, Note_off_c, 7, 59, 100
9, 31104, Note_on_c, 7, 57, 96
9, 31196, Note_off_c, 7, 57, 100
9, 31200, Note_on_c, 7, 55, 96
9, 31292, Note_off_c, 7, 55, 100
9, 31296, Note_on_c, 7, 54, 96
9, 31388, Note_off_c, 7, 54, 100
9, 31392, Note_on_c, 7, 52, 96
9, 31484, Note_off_c, 7, 52, 100
9, 31488, Note_on_c, 7, 50, 96
9, 31868, Note_off_c, 7, 50, 100
9, 31872, Note_on_c, 7, 55, 96
9, 32128, Note_off_c, 7, 55, 100
9, 32352, Note_on_c, 7, 54, 96
9, 32444, Note_off_c, 7, 54, 100
9, 32448, Note_on_c, 7, 52, 96
9, 32540, Note_off_c, 7, 52, 100
9, 32544, Note_on_c, 7, 55, 96
9, 32636, Note_off_c, 7, 55, 100
9, 32640, Note_on_c, 7, 54, 96
9, 32732, Note_off_c, 7, 54, 100
9, 32736, Note_on_c, 7, 52, 96
9, 32828, Note_off_c, 7, 52, 100
9, 32832, Note_on_c, 7, 50, 96
9, 32924, Note_off_c, 7, 50, 100
9, 32928, Note_on_c, 7, 48, 96
9, 33020, Note_off_c, 7, 48, 100
9, 33024, Note_on_c, 7, 50, 96
9, 33404, Note_off_c, 7, 50, 100
9, 33792, Note_on_c, 7, 59, 96
9, 33980, Note_off_c, 7, 59, 100
9, 33984, Note_on_c, 7, 55, 96
9, 34172, Note_off_c, 7, 55, 100
9, 34176, Note_on_c, 7, 59, 96
9, 34304, Note_off_c, 7, 59, 100
9, 34368, Note_on_c, 7, 62, 96
9, 34496, Note_off_c, 7, 62, 100
9, 34560, Note_on_c, 7, 67, 96
9, 34940, Note_off_c, 7, 67, 100
9, 34944, Note_on_c, 7, 72, 96
9, 35420, Note_off_c, 7, 72, 64
9, 35424, Note_on_c, 7, 71, 96
9, 35516, Note_off_c, 7, 71, 100
9, 35520, Note_on_c, 7, 69, 96
9, 35612, Note_off_c, 7, 69, 100
9, 35616, Note_on_c, 7, 72, 96
9, 35708, Note_off_c, 7, 72, 100
9, 35712, Note_on_c, 7, 71, 96
9, 35804, Note_off_c, 7, 71, 100
9, 35808, Note_on_c, 7, 69, 96
9, 35900, Note_off_c, 7, 69, 100
9, 35904, Note_on_c, 7, 67, 96
9, 35996, Note_off_c, 7, 67, 100
9, 36000, Note_on_c, 7, 66, 96
9, 36092, Note_off_c, 7, 66, 100
9, 36096, Note_on_c, 7, 67, 96
9, 36476, Note_off_c, 7, 67, 100
9, 36864, Note_on_c, 7, 57, 96
9, 37244, Note_off_c, 7, 57, 100
9, 37248, Note_on_c, 7, 69, 96
9, 37504, Note_off_c, 7, 69, 100
9, 37728, Note_on_c, 7, 67, 96
9, 37820, Note_off_c, 7, 67, 100
9, 37824, Note_on_c, 7, 66, 96
9, 37916, Note_off_c, 7, 66, 100
9, 37920, Note_on_c, 7, 69, 96
9, 38012, Note_off_c, 7, 69, 100
9, 38016, Note_on_c, 7, 67, 96
9, 38108, Note_off_c, 7, 67, 100
9, 38112, Note_on_c, 7, 66, 96
9, 38204, Note_off_c, 7, 66, 100
9, 38208, Note_on_c, 7, 64, 96
9, 38300, Note_off_c, 7, 64, 100
9, 38304, Note_on_c, 7, 63, 96
9, 38396, Note_off_c, 7, 63, 100
9, 38400, Note_on_c, 7, 64, 96
9, 38656, Note_off_c, 7, 64, 100
9, 38976, Note_on_c, 7, 66, 96
9, 39164, Note_off_c, 7, 66, 100
9, 39168, Note_on_c, 7, 63, 96
9, 39356, Note_off_c, 7, 63, 100
9, 39360, Note_on_c, 7, 59, 96
9, 39548, Note_off_c, 7, 59, 100
9, 39936, Note_on_c, 7, 64, 96
9, 40408, Note_off_c, 7, 64, 100
9, 40416, Note_on_c, 7, 62, 96
9, 40508, Note_off_c, 7, 62, 100
9, 40512, Note_on_c, 7, 60, 96
9, 40604, Note_off_c, 7, 60, 100
9, 40608, Note_on_c, 7, 59, 96
9, 40700, Note_off_c, 7, 59, 100
9, 40704, Note_on_c, 7, 60, 96
9, 41176, Note_off_c, 7, 60, 100
9, 41184, Note_on_c, 7, 59, 96
9, 41276, Note_off_c, 7, 59, 100
9, 41280, Note_on_c, 7, 57, 96
9, 41372, Note_off_c, 7, 57, 100
9, 41376, Note_on_c, 7, 55, 96
9, 41468, Note_off_c, 7, 55, 100
9, 41472, Note_on_c, 7, 54, 96
9, 41944, Note_off_c, 7, 54, 100
9, 41952, Note_on_c, 7, 57, 96
9, 42044, Note_off_c, 7, 57, 100
9, 42048, Note_on_c, 7, 55, 96
9, 42140, Note_off_c, 7, 55, 100
9, 42144, Note_on_c, 7, 54, 96
9, 42236, Note_off_c, 7, 54, 100
9, 42240, Note_on_c, 7, 52, 96
9, 42620, Note_off_c, 7, 52, 100
9, 42624, Note_on_c, 7, 59, 96
9, 42880, Note_off_c, 7, 59, 100
9, 43104, Note_on_c, 7, 57, 96
9, 43196, Note_off_c, 7, 57, 100
9, 43200, Note_on_c, 7, 55, 96
9, 43292, Note_off_c, 7, 55, 100
9, 43296, Note_on_c, 7, 59, 96
9, 43388, Note_off_c, 7, 59, 100
9, 43392, Note_on_c, 7, 57, 96
9, 43484, Note_off_c, 7, 57, 100
9, 43488, Note_on_c, 7, 55, 96
9, 43580, Note_off_c, 7, 55, 100
9, 43584, Note_on_c, 7, 54, 96
9, 43676, Note_off_c, 7, 54, 100
9, 43680, Note_on_c, 7, 52, 96
9, 43772, Note_off_c, 7, 52, 100
9, 43776, Note_on_c, 7, 50, 96
9, 44156, Note_off_c, 7, 50, 100
9, 44160, Note_on_c, 7, 55, 96
9, 44416, Note_off_c, 7, 55, 100
9, 44640, Note_on_c, 7, 54, 96
9, 44732, Note_off_c, 7, 54, 100
9, 44736, Note_on_c, 7, 52, 96
9, 44828, Note_off_c, 7, 52, 100
9, 44832, Note_on_c, 7, 55, 96
9, 44924, Note_off_c, 7, 55, 100
9, 44928, Note_on_c, 7, 54, 96
9, 45020, Note_off_c, 7, 54, 100
9, 45024, Note_on_c, 7, 52, 96
9, 45116, Note_off_c, 7, 52, 100
9, 45120, Note_on_c, 7, 50, 96
9, 45212, Note_off_c, 7, 50, 100
9, 45216, Note_on_c, 7, 48, 96
9, 45308, Note_off_c, 7, 48, 100
9, 45312, Note_on_c, 7, 50, 96
9, 45692, Note_off_c, 7, 50, 100
9, 46080, Note_on_c, 7, 59, 96
9, 46268, Note_off_c, 7, 59, 100
9, 46272, Note_on_c, 7, 55, 96
9, 46460, Note_off_c, 7, 55, 100
9, 46464, Note_on_c, 7, 59, 96
9, 46592, Note_off_c, 7, 59, 100
9, 46656, Note_on_c, 7, 62, 96
9, 46784, Note_off_c, 7, 62, 100
9, 46848, Note_on_c, 7, 67, 96
9, 47228, Note_off_c, 7, 67, 100
9, 47232, Note_on_c, 7, 72, 96
9, 47708, Note_off_c, 7, 72, 64
9, 47712, Note_on_c, 7, 71, 96
9, 47804, Note_off_c, 7, 71, 100
9, 47808, Note_on_c, 7, 69, 96
9, 47900, Note_off_c, 7, 69, 100
9, 47904, Note_on_c, 7, 72, 96
9, 47996, Note_off_c, 7, 72, 100
9, 48000, Note_on_c, 7, 71, 96
9, 48092, Note_off_c, 7, 71, 100
9, 48096, Note_on_c, 7, 69, 96
9, 48188, Note_off_c, 7, 69, 100
9, 48192, Note_on_c, 7, 67, 96
9, 48284, Note_off_c, 7, 67, 100
9, 48288, Note_on_c, 7, 66, 96
9, 48380, Note_off_c, 7, 66, 100
9, 48384, Note_on_c, 7, 67, 96
9, 48764, Note_off_c, 7, 67, 100
9, 48764, End_track
10, 0, Start_track
10, 0, Control_c, 8, 0, 0
10, 0, Program_c, 8, 6
10, 0, Control_c, 8, 7, 127
10, 0, Control_c, 8, 10, 127
10, 0, Control_c, 8, 91, 127
10, 0, Key_signature, 1, "major"
10, 0, Note_on_c, 8, 67, 96
10, 188, Note_off_c, 8, 67, 100
10, 192, Note_on_c, 8, 66, 96
10, 380, Note_off_c, 8, 66, 100
10, 384, Note_on_c, 8, 67, 96
10, 572, Note_off_c, 8, 67, 100
10, 576, Note_on_c, 8, 64, 96
10, 764, Note_off_c, 8, 64, 100
10, 768, Note_on_c, 8, 66, 96
10, 932, Note_off_c, 8, 66, 100
10, 960, Note_on_c, 8, 64, 96
10, 1148, Note_off_c, 8, 64, 100
10, 1152, Note_on_c, 8, 66, 96
10, 1340, Note_off_c, 8, 66, 100
10, 1344, Note_on_c, 8, 62, 96
10, 1532, Note_off_c, 8, 62, 100
10, 1536, Note_on_c, 8, 64, 96
10, 1700, Note_off_c, 8, 64, 100
10, 1728, Note_on_c, 8, 62, 96
10, 1916, Note_off_c, 8, 62, 100
10, 1920, Note_on_c, 8, 64, 96
10, 2108, Note_off_c, 8, 64, 100
10, 2112, Note_on_c, 8, 60, 96
10, 2276, Note_off_c, 8, 60, 100
10, 2304, Note_on_c, 8, 62, 96
10, 2492, Note_off_c, 8, 62, 100
10, 2496, Note_on_c, 8, 50, 96
10, 2556, Note_off_c, 8, 50, 100
10, 2688, Note_on_c, 8, 62, 96
10, 2780, Note_off_c, 8, 62, 100
10, 2784, Note_on_c, 8, 60, 96
10, 2876, Note_off_c, 8, 60, 100
10, 2880, Note_on_c, 8, 59, 96
10, 2972, Note_off_c, 8, 59, 100
10, 2976, Note_on_c, 8, 57, 96
10, 3068, Note_off_c, 8, 57, 100
10, 3072, Note_on_c, 8, 59, 96
10, 3236, Note_off_c, 8, 59, 100
10, 3264, Note_on_c, 8, 57, 96
10, 3452, Note_off_c, 8, 57, 100
10, 3456, Note_on_c, 8, 59, 96
10, 3644, Note_off_c, 8, 59, 100
10, 3648, Note_on_c, 8, 55, 96
10, 3836, Note_off_c, 8, 55, 100
10, 3840, Note_on_c, 8, 60, 96
10, 4004, Note_off_c, 8, 60, 100
10, 4032, Note_on_c, 8, 59, 96
10, 4220, Note_off_c, 8, 59, 100
10, 4224, Note_on_c, 8, 60, 96
10, 4412, Note_off_c, 8, 60, 100
10, 4416, Note_on_c, 8, 57, 96
10, 4604, Note_off_c, 8, 57, 100
10, 4608, Note_on_c, 8, 62, 96
10, 4772, Note_off_c, 8, 62, 100
10, 4800, Note_on_c, 8, 60, 96
10, 4988, Note_off_c, 8, 60, 100
10, 4992, Note_on_c, 8, 62, 96
10, 5180, Note_off_c, 8, 62, 100
10, 5184, Note_on_c, 8, 50, 96
10, 5372, Note_off_c, 8, 50, 100
10, 5376, Note_on_c, 8, 55, 96
10, 5436, Note_off_c, 8, 55, 100
10, 5568, Note_on_c, 8, 67, 96
10, 5696, Note_off_c, 8, 67, 100
10, 5760, Note_on_c, 8, 71, 96
10, 5888, Note_off_c, 8, 71, 100
10, 5952, Note_on_c, 8, 74, 96
10, 6080, Note_off_c, 8, 74, 100
10, 6144, Note_on_c, 8, 79, 96
10, 6308, Note_off_c, 8, 79, 100
10, 6336, Note_on_c, 8, 78, 96
10, 6500, Note_off_c, 8, 78, 100
10, 6528, Note_on_c, 8, 79, 96
10, 6692, Note_off_c, 8, 79, 100
10, 6720, Note_on_c, 8, 76, 96
10, 6884, Note_off_c, 8, 76, 100
10, 6912, Note_on_c, 8, 78, 96
10, 7076, Note_off_c, 8, 78, 100
10, 7104, Note_on_c, 8, 76, 96
10, 7292, Note_off_c, 8, 76, 100
10, 7296, Note_on_c, 8, 78, 96
10, 7484, Note_off_c, 8, 78, 100
10, 7488, Note_on_c, 8, 74, 96
10, 7676, Note_off_c, 8, 74, 100
10, 7680, Note_on_c, 8, 76, 96
10, 7844, Note_off_c, 8, 76, 100
10, 7872, Note_on_c, 8, 74, 96
10, 8060, Note_off_c, 8, 74, 100
10, 8064, Note_on_c, 8, 76, 96
10, 8252, Note_off_c, 8, 76, 100
10, 8256, Note_on_c, 8, 71, 96
10, 8444, Note_off_c, 8, 71, 100
10, 8448, Note_on_c, 8, 73, 96
10, 8576, Note_off_c, 8, 73, 100
10, 8640, Note_on_c, 8, 76, 96
10, 8732, Note_off_c, 8, 76, 100
10, 8736, Note_on_c, 8, 74, 96
10, 8828, Note_off_c, 8, 74, 100
10, 8832, Note_on_c, 8, 73, 96
10, 8924, Note_off_c, 8, 73, 100
10, 8928, Note_on_c, 8, 71, 96
10, 9020, Note_off_c, 8, 71, 100
10, 9024, Note_on_c, 8, 69, 96
10, 9116, Note_off_c, 8, 69, 100
10, 9120, Note_on_c, 8, 67, 96
10, 9212, Note_off_c, 8, 67, 100
10, 9216, Note_on_c, 8, 66, 96
10, 9380, Note_off_c, 8, 66, 100
10, 9408, Note_on_c, 8, 64, 96
10, 9596, Note_off_c, 8, 64, 100
10, 9600, Note_on_c, 8, 66, 96
10, 9788, Note_off_c, 8, 66, 100
10, 9792, Note_on_c, 8, 62, 96
10, 9980, Note_off_c, 8, 62, 100
10, 9984, Note_on_c, 8, 67, 96
10, 10148, Note_off_c, 8, 67, 100
10, 10176, Note_on_c, 8, 66, 96
10, 10364, Note_off_c, 8, 66, 100
10, 10368, Note_on_c, 8, 67, 96
10, 10556, Note_off_c, 8, 67, 100
10, 10560, Note_on_c, 8, 64, 96
10, 10748, Note_off_c, 8, 64, 100
10, 10752, Note_on_c, 8, 69, 96
10, 10916, Note_off_c, 8, 69, 100
10, 10944, Note_on_c, 8, 67, 96
10, 11132, Note_off_c, 8, 67, 100
10, 11136, Note_on_c, 8, 69, 96
10, 11324, Note_off_c, 8, 69, 100
10, 11328, Note_on_c, 8, 57, 96
10, 11516, Note_off_c, 8, 57, 100
10, 11520, Note_on_c, 8, 62, 96
10, 11648, Note_off_c, 8, 62, 100
10, 11712, Note_on_c, 8, 74, 96
10, 11804, Note_off_c, 8, 74, 100
10, 11808, Note_on_c, 8, 72, 96
10, 11900, Note_off_c, 8, 72, 100
10, 11904, Note_on_c, 8, 74, 96
10, 11996, Note_off_c, 8, 74, 100
10, 12000, Note_on_c, 8, 72, 96
10, 12092, Note_off_c, 8, 72, 100
10, 12096, Note_on_c, 8, 71, 96
10, 12188, Note_off_c, 8, 71, 100
10, 12192, Note_on_c, 8, 69, 96
10, 12284, Note_off_c, 8, 69, 100
10, 12288, Note_on_c, 8, 67, 96
10, 12476, Note_off_c, 8, 67, 100
10, 12480, Note_on_c, 8, 66, 96
10, 12668, Note_off_c, 8, 66, 100
10, 12672, Note_on_c, 8, 67, 96
10, 12860, Note_off_c, 8, 67, 100
10, 12864, Note_on_c, 8, 64, 96
10, 13052, Note_off_c, 8, 64, 100
10, 13056, Note_on_c, 8, 66, 96
10, 13220, Note_off_c, 8, 66, 100
10, 13248, Note_on_c, 8, 64, 96
10, 13436, Note_off_c, 8, 64, 100
10, 13440, Note_on_c, 8, 66, 96
10, 13628, Note_off_c, 8, 66, 100
10, 13632, Note_on_c, 8, 62, 96
10, 13820, Note_off_c, 8, 62, 100
10, 13824, Note_on_c, 8, 64, 96
10, 13988, Note_off_c, 8, 64, 100
10, 14016, Note_on_c, 8, 62, 96
10, 14204, Note_off_c, 8, 62, 100
10, 14208, Note_on_c, 8, 64, 96
10, 14396, Note_off_c, 8, 64, 100
10, 14400, Note_on_c, 8, 60, 96
10, 14564, Note_off_c, 8, 60, 100
10, 14592, Note_on_c, 8, 62, 96
10, 14780, Note_off_c, 8, 62, 100
10, 14784, Note_on_c, 8, 50, 96
10, 14844, Note_off_c, 8, 50, 100
10, 14976, Note_on_c, 8, 62, 96
10, 15068, Note_off_c, 8, 62, 100
10, 15072, Note_on_c, 8, 60, 96
10, 15164, Note_off_c, 8, 60, 100
10, 15168, Note_on_c, 8, 59, 96
10, 15260, Note_off_c, 8, 59, 100
10, 15264, Note_on_c, 8, 57, 96
10, 15356, Note_off_c, 8, 57, 100
10, 15360, Note_on_c, 8, 59, 96
10, 15524, Note_off_c, 8, 59, 100
10, 15552, Note_on_c, 8, 57, 96
10, 15740, Note_off_c, 8, 57, 100
10, 15744, Note_on_c, 8, 59, 96
10, 15932, Note_off_c, 8, 59, 100
10, 15936, Note_on_c, 8, 55, 96
10, 16124, Note_off_c, 8, 55, 100
10, 16128, Note_on_c, 8, 60, 96
10, 16292, Note_off_c, 8, 60, 100
10, 16320, Note_on_c, 8, 59, 96
10, 16508, Note_off_c, 8, 59, 100
10, 16512, Note_on_c, 8, 60, 96
10, 16700, Note_off_c, 8, 60, 100
10, 16704, Note_on_c, 8, 57, 96
10, 16892, Note_off_c, 8, 57, 100
10, 16896, Note_on_c, 8, 62, 96
10, 17060, Note_off_c, 8, 62, 100
10, 17088, Note_on_c, 8, 60, 96
10, 17276, Note_off_c, 8, 60, 100
10, 17280, Note_on_c, 8, 62, 96
10, 17468, Note_off_c, 8, 62, 100
10, 17472, Note_on_c, 8, 50, 96
10, 17660, Note_off_c, 8, 50, 100
10, 17664, Note_on_c, 8, 55, 96
10, 17724, Note_off_c, 8, 55, 100
10, 17856, Note_on_c, 8, 67, 96
10, 17984, Note_off_c, 8, 67, 100
10, 18048, Note_on_c, 8, 71, 96
10, 18176, Note_off_c, 8, 71, 100
10, 18240, Note_on_c, 8, 74, 96
10, 18368, Note_off_c, 8, 74, 100
10, 18432, Note_on_c, 8, 79, 96
10, 18596, Note_off_c, 8, 79, 100
10, 18624, Note_on_c, 8, 78, 96
10, 18788, Note_off_c, 8, 78, 100
10, 18816, Note_on_c, 8, 79, 96
10, 18980, Note_off_c, 8, 79, 100
10, 19008, Note_on_c, 8, 76, 96
10, 19172, Note_off_c, 8, 76, 100
10, 19200, Note_on_c, 8, 78, 96
10, 19364, Note_off_c, 8, 78, 100
10, 19392, Note_on_c, 8, 76, 96
10, 19580, Note_off_c, 8, 76, 100
10, 19584, Note_on_c, 8, 78, 96
10, 19772, Note_off_c, 8, 78, 100
10, 19776, Note_on_c, 8, 74, 96
10, 19964, Note_off_c, 8, 74, 100
10, 19968, Note_on_c, 8, 76, 96
10, 20132, Note_off_c, 8, 76, 100
10, 20160, Note_on_c, 8, 74, 96
10, 20348, Note_off_c, 8, 74, 100
10, 20352, Note_on_c, 8, 76, 96
10, 20540, Note_off_c, 8, 76, 100
10, 20544, Note_on_c, 8, 71, 96
10, 20732, Note_off_c, 8, 71, 100
10, 20736, Note_on_c, 8, 73, 96
10, 20864, Note_off_c, 8, 73, 100
10, 20928, Note_on_c, 8, 76, 96
10, 21020, Note_off_c, 8, 76, 100
10, 21024, Note_on_c, 8, 74, 96
10, 21116, Note_off_c, 8, 74, 100
10, 21120, Note_on_c, 8, 73, 96
10, 21212, Note_off_c, 8, 73, 100
10, 21216, Note_on_c, 8, 71, 96
10, 21308, Note_off_c, 8, 71, 100
10, 21312, Note_on_c, 8, 69, 96
10, 21404, Note_off_c, 8, 69, 100
10, 21408, Note_on_c, 8, 67, 96
10, 21500, Note_off_c, 8, 67, 100
10, 21504, Note_on_c, 8, 66, 96
10, 21668, Note_off_c, 8, 66, 100
10, 21696, Note_on_c, 8, 64, 96
10, 21884, Note_off_c, 8, 64, 100
10, 21888, Note_on_c, 8, 66, 96
10, 22076, Note_off_c, 8, 66, 100
10, 22080, Note_on_c, 8, 62, 96
10, 22268, Note_off_c, 8, 62, 100
10, 22272, Note_on_c, 8, 67, 96
10, 22436, Note_off_c, 8, 67, 100
10, 22464, Note_on_c, 8, 66, 96
10, 22652, Note_off_c, 8, 66, 100
10, 22656, Note_on_c, 8, 67, 96
10, 22844, Note_off_c, 8, 67, 100
10, 22848, Note_on_c, 8, 64, 96
10, 23036, Note_off_c, 8, 64, 100
10, 23040, Note_on_c, 8, 69, 96
10, 23204, Note_off_c, 8, 69, 100
10, 23232, Note_on_c, 8, 67, 96
10, 23420, Note_off_c, 8, 67, 100
10, 23424, Note_on_c, 8, 69, 96
10, 23612, Note_off_c, 8, 69, 100
10, 23616, Note_on_c, 8, 57, 96
10, 23804, Note_off_c, 8, 57, 100
10, 23808, Note_on_c, 8, 62, 96
10, 23868, Note_off_c, 8, 62, 100
10, 24000, Note_on_c, 8, 57, 96
10, 24060, Note_off_c, 8, 57, 100
10, 24192, Note_on_c, 8, 50, 96
10, 24448, Note_off_c, 8, 50, 100
10, 24576, Note_on_c, 8, 74, 96
10, 24764, Note_off_c, 8, 74, 100
10, 24768, Note_on_c, 8, 73, 96
10, 24956, Note_off_c, 8, 73, 100
10, 24960, Note_on_c, 8, 74, 96
10, 25148, Note_off_c, 8, 74, 100
10, 25152, Note_on_c, 8, 69, 96
10, 25340, Note_off_c, 8, 69, 100
10, 25344, Note_on_c, 8, 71, 96
10, 25532, Note_off_c, 8, 71, 100
10, 25536, Note_on_c, 8, 69, 96
10, 25724, Note_off_c, 8, 69, 100
10, 25728, Note_on_c, 8, 71, 96
10, 25916, Note_off_c, 8, 71, 100
10, 25920, Note_on_c, 8, 67, 96
10, 26108, Note_off_c, 8, 67, 100
10, 26112, Note_on_c, 8, 72, 96
10, 26176, Note_off_c, 8, 72, 100
10, 26208, Note_on_c, 8, 60, 96
10, 26300, Note_off_c, 8, 60, 100
10, 26304, Note_on_c, 8, 59, 96
10, 26396, Note_off_c, 8, 59, 100
10, 26400, Note_on_c, 8, 62, 96
10, 26492, Note_off_c, 8, 62, 100
10, 26496, Note_on_c, 8, 60, 96
10, 26588, Note_off_c, 8, 60, 100
10, 26592, Note_on_c, 8, 59, 96
10, 26684, Note_off_c, 8, 59, 100
10, 26688, Note_on_c, 8, 57, 96
10, 26780, Note_off_c, 8, 57, 100
10, 26784, Note_on_c, 8, 60, 96
10, 26876, Note_off_c, 8, 60, 100
10, 26880, Note_on_c, 8, 59, 96
10, 26944, Note_off_c, 8, 59, 100
10, 26976, Note_on_c, 8, 71, 96
10, 27068, Note_off_c, 8, 71, 100
10, 27072, Note_on_c, 8, 69, 96
10, 27164, Note_off_c, 8, 69, 100
10, 27168, Note_on_c, 8, 72, 96
10, 27260, Note_off_c, 8, 72, 100
10, 27264, Note_on_c, 8, 71, 96
10, 27356, Note_off_c, 8, 71, 100
10, 27360, Note_on_c, 8, 69, 96
10, 27452, Note_off_c, 8, 69, 100
10, 27456, Note_on_c, 8, 67, 96
10, 27548, Note_off_c, 8, 67, 100
10, 27552, Note_on_c, 8, 66, 96
10, 27644, Note_off_c, 8, 66, 100
10, 27648, Note_on_c, 8, 67, 96
10, 27812, Note_off_c, 8, 67, 100
10, 27840, Note_on_c, 8, 66, 96
10, 28028, Note_off_c, 8, 66, 100
10, 28032, Note_on_c, 8, 67, 96
10, 28220, Note_off_c, 8, 67, 100
10, 28224, Note_on_c, 8, 64, 96
10, 28412, Note_off_c, 8, 64, 100
10, 28416, Note_on_c, 8, 69, 96
10, 28580, Note_off_c, 8, 69, 100
10, 28608, Note_on_c, 8, 67, 96
10, 28796, Note_off_c, 8, 67, 100
10, 28800, Note_on_c, 8, 69, 96
10, 28988, Note_off_c, 8, 69, 100
10, 28992, Note_on_c, 8, 66, 96
10, 29180, Note_off_c, 8, 66, 100
10, 29184, Note_on_c, 8, 71, 96
10, 29348, Note_off_c, 8, 71, 100
10, 29376, Note_on_c, 8, 70, 96
10, 29564, Note_off_c, 8, 70, 100
10, 29568, Note_on_c, 8, 71, 96
10, 29756, Note_off_c, 8, 71, 100
10, 29760, Note_on_c, 8, 59, 96
10, 29948, Note_off_c, 8, 59, 100
10, 29952, Note_on_c, 8, 52, 96
10, 30016, Note_off_c, 8, 52, 100
10, 30048, Note_on_c, 8, 64, 96
10, 30140, Note_off_c, 8, 64, 100
10, 30144, Note_on_c, 8, 63, 96
10, 30236, Note_off_c, 8, 63, 100
10, 30240, Note_on_c, 8, 66, 96
10, 30332, Note_off_c, 8, 66, 100
10, 30336, Note_on_c, 8, 64, 96
10, 30428, Note_off_c, 8, 64, 100
10, 30432, Note_on_c, 8, 62, 96
10, 30524, Note_off_c, 8, 62, 100
10, 30528, Note_on_c, 8, 60, 96
10, 30620, Note_off_c, 8, 60, 100
10, 30624, Note_on_c, 8, 59, 96
10, 30716, Note_off_c, 8, 59, 100
10, 30720, Note_on_c, 8, 60, 96
10, 30884, Note_off_c, 8, 60, 100
10, 30912, Note_on_c, 8, 59, 96
10, 31100, Note_off_c, 8, 59, 100
10, 31104, Note_on_c, 8, 60, 96
10, 31292, Note_off_c, 8, 60, 100
10, 31296, Note_on_c, 8, 69, 96
10, 31484, Note_off_c, 8, 69, 100
10, 31488, Note_on_c, 8, 59, 96
10, 31652, Note_off_c, 8, 59, 100
10, 31680, Note_on_c, 8, 57, 96
10, 31868, Note_off_c, 8, 57, 100
10, 31872, Note_on_c, 8, 59, 96
10, 32060, Note_off_c, 8, 59, 100
10, 32064, Note_on_c, 8, 67, 96
10, 32252, Note_off_c, 8, 67, 100
10, 32256, Note_on_c, 8, 57, 96
10, 32420, Note_off_c, 8, 57, 100
10, 32448, Note_on_c, 8, 55, 96
10, 32636, Note_off_c, 8, 55, 100
10, 32640, Note_on_c, 8, 57, 96
10, 32828, Note_off_c, 8, 57, 100
10, 32832, Note_on_c, 8, 67, 96
10, 33020, Note_off_c, 8, 67, 100
10, 33024, Note_on_c, 8, 66, 96
10, 33088, Note_off_c, 8, 66, 100
10, 33120, Note_on_c, 8, 62, 96
10, 33212, Note_off_c, 8, 62, 100
10, 33216, Note_on_c, 8, 60, 96
10, 33308, Note_off_c, 8, 60, 100
10, 33312, Note_on_c, 8, 64, 96
10, 33404, Note_off_c, 8, 64, 100
10, 33408, Note_on_c, 8, 62, 96
10, 33500, Note_off_c, 8, 62, 100
10, 33504, Note_on_c, 8, 60, 96
10, 33596, Note_off_c, 8, 60, 100
10, 33600, Note_on_c, 8, 59, 96
10, 33692, Note_off_c, 8, 59, 100
10, 33696, Note_on_c, 8, 57, 96
10, 33788, Note_off_c, 8, 57, 100
10, 33792, Note_on_c, 8, 55, 96
10, 33856, Note_off_c, 8, 55, 100
10, 33888, Note_on_c, 8, 67, 96
10, 33980, Note_off_c, 8, 67, 100
10, 33984, Note_on_c, 8, 66, 96
10, 34076, Note_off_c, 8, 66, 100
10, 34080, Note_on_c, 8, 69, 96
10, 34172, Note_off_c, 8, 69, 100
10, 34176, Note_on_c, 8, 67, 96
10, 34268, Note_off_c, 8, 67, 100
10, 34272, Note_on_c, 8, 65, 96
10, 34364, Note_off_c, 8, 65, 100
10, 34368, Note_on_c, 8, 64, 96
10, 34460, Note_off_c, 8, 64, 100
10, 34464, Note_on_c, 8, 62, 96
10, 34556, Note_off_c, 8, 62, 100
10, 34560, Note_on_c, 8, 60, 96
10, 34624, Note_off_c, 8, 60, 100
10, 34656, Note_on_c, 8, 72, 96
10, 34748, Note_off_c, 8, 72, 100
10, 34752, Note_on_c, 8, 71, 96
10, 34844, Note_off_c, 8, 71, 100
10, 34848, Note_on_c, 8, 74, 96
10, 34940, Note_off_c, 8, 74, 100
10, 34944, Note_on_c, 8, 72, 96
10, 35036, Note_off_c, 8, 72, 100
10, 35040, Note_on_c, 8, 71, 96
10, 35132, Note_off_c, 8, 71, 100
10, 35136, Note_on_c, 8, 69, 96
10, 35228, Note_off_c, 8, 69, 100
10, 35232, Note_on_c, 8, 67, 96
10, 35324, Note_off_c, 8, 67, 100
10, 35328, Note_on_c, 8, 66, 96
10, 35420, Note_off_c, 8, 66, 100
10, 35424, Note_on_c, 8, 67, 96
10, 35516, Note_off_c, 8, 67, 100
10, 35520, Note_on_c, 8, 66, 96
10, 35612, Note_off_c, 8, 66, 100
10, 35616, Note_on_c, 8, 67, 96
10, 35680, Note_off_c, 8, 67, 100
10, 35712, Note_on_c, 8, 59, 96
10, 35840, Note_off_c, 8, 59, 100
10, 35904, Note_on_c, 8, 62, 96
10, 36032, Note_off_c, 8, 62, 100
10, 36096, Note_on_c, 8, 55, 96
10, 36224, Note_off_c, 8, 55, 100
10, 36288, Note_on_c, 8, 67, 96
10, 36380, Note_off_c, 8, 67, 100
10, 36384, Note_on_c, 8, 66, 96
10, 36476, Note_off_c, 8, 66, 100
10, 36480, Note_on_c, 8, 67, 96
10, 36572, Note_off_c, 8, 67, 100
10, 36576, Note_on_c, 8, 69, 96
10, 36668, Note_off_c, 8, 69, 100
10, 36672, Note_on_c, 8, 71, 96
10, 36764, Note_off_c, 8, 71, 100
10, 36768, Note_on_c, 8, 72, 96
10, 36860, Note_off_c, 8, 72, 100
10, 36864, Note_on_c, 8, 74, 96
10, 37052, Note_off_c, 8, 74, 100
10, 37056, Note_on_c, 8, 73, 96
10, 37244, Note_off_c, 8, 73, 100
10, 37248, Note_on_c, 8, 74, 96
10, 37436, Note_off_c, 8, 74, 100
10, 37440, Note_on_c, 8, 69, 96
10, 37628, Note_off_c, 8, 69, 100
10, 37632, Note_on_c, 8, 71, 96
10, 37820, Note_off_c, 8, 71, 100
10, 37824, Note_on_c, 8, 69, 96
10, 38012, Note_off_c, 8, 69, 100
10, 38016, Note_on_c, 8, 71, 96
10, 38204, Note_off_c, 8, 71, 100
10, 38208, Note_on_c, 8, 67, 96
10, 38396, Note_off_c, 8, 67, 100
10, 38400, Note_on_c, 8, 72, 96
10, 38464, Note_off_c, 8, 72, 100
10, 38496, Note_on_c, 8, 60, 96
10, 38588, Note_off_c, 8, 60, 100
10, 38592, Note_on_c, 8, 59, 96
10, 38684, Note_off_c, 8, 59, 100
10, 38688, Note_on_c, 8, 62, 96
10, 38780, Note_off_c, 8, 62, 100
10, 38784, Note_on_c, 8, 60, 96
10, 38876, Note_off_c, 8, 60, 100
10, 38880, Note_on_c, 8, 59, 96
10, 38972, Note_off_c, 8, 59, 100
10, 38976, Note_on_c, 8, 57, 96
10, 39068, Note_off_c, 8, 57, 100
10, 39072, Note_on_c, 8, 60, 96
10, 39164, Note_off_c, 8, 60, 100
10, 39168, Note_on_c, 8, 59, 96
10, 39232, Note_off_c, 8, 59, 100
10, 39264, Note_on_c, 8, 71, 96
10, 39356, Note_off_c, 8, 71, 100
10, 39360, Note_on_c, 8, 69, 96
10, 39452, Note_off_c, 8, 69, 100
10, 39456, Note_on_c, 8, 72, 96
10, 39548, Note_off_c, 8, 72, 100
10, 39552, Note_on_c, 8, 71, 96
10, 39644, Note_off_c, 8, 71, 100
10, 39648, Note_on_c, 8, 69, 96
10, 39740, Note_off_c, 8, 69, 100
10, 39744, Note_on_c, 8, 67, 96
10, 39836, Note_off_c, 8, 67, 100
10, 39840, Note_on_c, 8, 66, 96
10, 39932, Note_off_c, 8, 66, 100
10, 39936, Note_on_c, 8, 67, 96
10, 40100, Note_off_c, 8, 67, 100
10, 40128, Note_on_c, 8, 66, 96
10, 40316, Note_off_c, 8, 66, 100
10, 40320, Note_on_c, 8, 67, 96
10, 40508, Note_off_c, 8, 67, 100
10, 40512, Note_on_c, 8, 64, 96
10, 40700, Note_off_c, 8, 64, 100
10, 40704, Note_on_c, 8, 69, 96
10, 40868, Note_off_c, 8, 69, 100
10, 40896, Note_on_c, 8, 67, 96
10, 41084, Note_off_c, 8, 67, 100
10, 41088, Note_on_c, 8, 69, 96
10, 41276, Note_off_c, 8, 69, 100
10, 41280, Note_on_c, 8, 66, 96
10, 41468, Note_off_c, 8, 66, 100
10, 41472, Note_on_c, 8, 71, 96
10, 41636, Note_off_c, 8, 71, 100
10, 41664, Note_on_c, 8, 70, 96
10, 41852, Note_off_c, 8, 70, 100
10, 41856, Note_on_c, 8, 71, 96
10, 42044, Note_off_c, 8, 71, 100
10, 42048, Note_on_c, 8, 59, 96
10, 42236, Note_off_c, 8, 59, 100
10, 42240, Note_on_c, 8, 52, 96
10, 42304, Note_off_c, 8, 52, 100
10, 42336, Note_on_c, 8, 64, 96
10, 42428, Note_off_c, 8, 64, 100
10, 42432, Note_on_c, 8, 63, 96
10, 42524, Note_off_c, 8, 63, 100
10, 42528, Note_on_c, 8, 66, 96
10, 42620, Note_off_c, 8, 66, 100
10, 42624, Note_on_c, 8, 64, 96
10, 42716, Note_off_c, 8, 64, 100
10, 42720, Note_on_c, 8, 62, 96
10, 42812, Note_off_c, 8, 62, 100
10, 42816, Note_on_c, 8, 60, 96
10, 42908, Note_off_c, 8, 60, 100
10, 42912, Note_on_c, 8, 59, 96
10, 43004, Note_off_c, 8, 59, 100
10, 43008, Note_on_c, 8, 60, 96
10, 43172, Note_off_c, 8, 60, 100
10, 43200, Note_on_c, 8, 59, 96
10, 43388, Note_off_c, 8, 59, 100
10, 43392, Note_on_c, 8, 60, 96
10, 43580, Note_off_c, 8, 60, 100
10, 43584, Note_on_c, 8, 69, 96
10, 43772, Note_off_c, 8, 69, 100
10, 43776, Note_on_c, 8, 59, 96
10, 43940, Note_off_c, 8, 59, 100
10, 43968, Note_on_c, 8, 57, 96
10, 44156, Note_off_c, 8, 57, 100
10, 44160, Note_on_c, 8, 59, 96
10, 44348, Note_off_c, 8, 59, 100
10, 44352, Note_on_c, 8, 67, 96
10, 44540, Note_off_c, 8, 67, 100
10, 44544, Note_on_c, 8, 57, 96
10, 44708, Note_off_c, 8, 57, 100
10, 44736, Note_on_c, 8, 55, 96
10, 44924, Note_off_c, 8, 55, 100
10, 44928, Note_on_c, 8, 57, 96
10, 45116, Note_off_c, 8, 57, 100
10, 45120, Note_on_c, 8, 67, 96
10, 45308, Note_off_c, 8, 67, 100
10, 45312, Note_on_c, 8, 66, 96
10, 45376, Note_off_c, 8, 66, 100
10, 45408, Note_on_c, 8, 62, 96
10, 45500, Note_off_c, 8, 62, 100
10, 45504, Note_on_c, 8, 60, 96
10, 45596, Note_off_c, 8, 60, 100
10, 45600, Note_on_c, 8, 64, 96
10, 45692, Note_off_c, 8, 64, 100
10, 45696, Note_on_c, 8, 62, 96
10, 45788, Note_off_c, 8, 62, 100
10, 45792, Note_on_c, 8, 60, 96
10, 45884, Note_off_c, 8, 60, 100
10, 45888, Note_on_c, 8, 59, 96
10, 45980, Note_off_c, 8, 59, 100
10, 45984, Note_on_c, 8, 57, 96
10, 46076, Note_off_c, 8, 57, 100
10, 46080, Note_on_c, 8, 55, 96
10, 46144, Note_off_c, 8, 55, 100
10, 46176, Note_on_c, 8, 67, 96
10, 46268, Note_off_c, 8, 67, 100
10, 46272, Note_on_c, 8, 66, 96
10, 46364, Note_off_c, 8, 66, 100
10, 46368, Note_on_c, 8, 69, 96
10, 46460, Note_off_c, 8, 69, 100
10, 46464, Note_on_c, 8, 67, 96
10, 46556, Note_off_c, 8, 67, 100
10, 46560, Note_on_c, 8, 65, 96
10, 46652, Note_off_c, 8, 65, 100
10, 46656, Note_on_c, 8, 64, 96
10, 46748, Note_off_c, 8, 64, 100
10, 46752, Note_on_c, 8, 62, 96
10, 46844, Note_off_c, 8, 62, 100
10, 46848, Note_on_c, 8, 60, 96
10, 46912, Note_off_c, 8, 60, 100
10, 46944, Note_on_c, 8, 72, 96
10, 47036, Note_off_c, 8, 72, 100
10, 47040, Note_on_c, 8, 71, 96
10, 47132, Note_off_c, 8, 71, 100
10, 47136, Note_on_c, 8, 74, 96
10, 47228, Note_off_c, 8, 74, 100
10, 47232, Note_on_c, 8, 72, 96
10, 47324, Note_off_c, 8, 72, 100
10, 47328, Note_on_c, 8, 71, 96
10, 47420, Note_off_c, 8, 71, 100
10, 47424, Note_on_c, 8, 69, 96
10, 47516, Note_off_c, 8, 69, 100
10, 47520, Note_on_c, 8, 67, 96
10, 47612, Note_off_c, 8, 67, 100
10, 47616, Note_on_c, 8, 66, 96
10, 47708, Note_off_c, 8, 66, 100
10, 47712, Note_on_c, 8, 67, 96
10, 47804, Note_off_c, 8, 67, 100
10, 47808, Note_on_c, 8, 66, 96
10, 47900, Note_off_c, 8, 66, 100
10, 47904, Note_on_c, 8, 67, 96
10, 47968, Note_off_c, 8, 67, 100
10, 48000, Note_on_c, 8, 59, 96
10, 48128, Note_off_c, 8, 59, 100
10, 48192, Note_on_c, 8, 62, 96
10, 48320, Note_off_c, 8, 62, 100
10, 48384, Note_on_c, 8, 67, 96
10, 48444, Note_off_c, 8, 67, 100
10, 48576, Note_on_c, 8, 62, 96
10, 48636, Note_off_c, 8, 62, 100
10, 48768, Note_on_c, 8, 55, 96
10, 49024, Note_off_c, 8, 55, 100
10, 49024, End_track
11, 0, Start_track
11, 1, Copyright_t, "___________________________________________________\012\012KUNSTDERFUGE.COM LARGE CLASSICAL MIDI COLLECTION\012ONCLASSICAL BY ALESSANDRO SIMONETTO, PROPRIETOR\012___________________________________________________\012\012! Attention: this file is under copyright !\012\012(c)onclassical, (c)degiusti, 2010\012___________________________________________________\012\012NO ONE MAY REPUBLISH THIS FILE WITHOUT PERMISSION\012COMMERCIAL USES OF THIS FILE IS STRICTLY PROHIBITED\012___________________________________________________\012\012Files & contributor's list: http://kunstderfuge.com/\012Terms and conditions: http://kunstderfuge.com/notes.htm"
11, 1, End_track
0, 0, End_of_file