0, 0, Header, 1, 21, 384
1, 0, Start_track
1, 0, Time_signature, 3, 2, 96, 8
1, 0, Sequencer_specific, 03, 00, 00, 41
1, 0, Sequencer_specific, 05, 00, 00, 77, 0E, 00
1, 0, Tempo, 600000
1, 4608, Tempo, 666666
1, 4616, Tempo, 659340
1, 4624, Tempo, 652173
1, 4636, Tempo, 645161
1, 4644, Tempo, 638297
1, 4656, Tempo, 631578
1, 4664, Tempo, 625000
1, 4672, Tempo, 618556
1, 4684, Tempo, 612244
1, 4692, Tempo, 606060
1, 4704, Tempo, 600000
1, 17856, Tempo, 600000
1, 17864, Tempo, 606060
1, 17872, Tempo, 612244
1, 17884, Tempo, 618556
1, 17892, Tempo, 625000
1, 17904, Tempo, 631578
1, 17912, Tempo, 638297
1, 17920, Tempo, 645161
1, 17932, Tempo, 652173
1, 17940, Tempo, 659340
1, 17952, Tempo, 666666
1, 18432, Tempo, 606060
1, 18480, Tempo, 600000
1, 23040, Tempo, 666666
1, 23048, Tempo, 659340
1, 23056, Tempo, 652173
1, 23068, Tempo, 645161
1, 23076, Tempo, 638297
1, 23088, Tempo, 631578
1, 23096, Tempo, 625000
1, 23104, Tempo, 618556
1, 23116, Tempo, 612244
1, 23124, Tempo, 606060
1, 23136, Tempo, 600000
1, 36288, Tempo, 600000
1, 36292, Tempo, 606060
1, 36300, Tempo, 612244
1, 36304, Tempo, 618556
1, 36312, Tempo, 625000
1, 36320, Tempo, 631578
1, 36324, Tempo, 638297
1, 36332, Tempo, 645161
1, 36336, Tempo, 652173
1, 36344, Tempo, 659340
1, 36352, Tempo, 666666
1, 36356, Tempo, 674157
1, 36364, Tempo, 681818
1, 36368, Tempo, 689655
1, 36376, Tempo, 697674
1, 36384, Tempo, 705882
1, 36864, Tempo, 606060
1, 36960, Tempo, 600000
1, 41472, Tempo, 666666
1, 41480, Tempo, 659340
1, 41488, Tempo, 652173
1, 41500, Tempo, 645161
1, 41508, Tempo, 638297
1, 41520, Tempo, 631578
1, 41528, Tempo, 625000
1, 41536, Tempo, 618556
1, 41548, Tempo, 612244
1, 41556, Tempo, 606060
1, 41568, Tempo, 600000
1, 54720, Tempo, 600000
1, 54728, Tempo, 606060
1, 54736, Tempo, 612244
1, 54748, Tempo, 618556
1, 54756, Tempo, 625000
1, 54768, Tempo, 631578
1, 54776, Tempo, 638297
1, 54784, Tempo, 645161
1, 54796, Tempo, 652173
1, 54804, Tempo, 659340
1, 54816, Tempo, 666666
1, 55296, Tempo, 606060
1, 55392, Tempo, 600000
1, 59904, Tempo, 666666
1, 59912, Tempo, 659340
1, 59920, Tempo, 652173
1, 59932, Tempo, 645161
1, 59940, Tempo, 638297
1, 59952, Tempo, 631578
1, 59960, Tempo, 625000
1, 59968, Tempo, 618556
1, 59980, Tempo, 612244
1, 59988, Tempo, 606060
1, 60000, Tempo, 600000
1, 71904, Tempo, 600000
1, 72036, Tempo, 606060
1, 72172, Tempo, 612244
1, 72304, Tempo, 618556
1, 72440, Tempo, 625000
1, 72576, Tempo, 740740
1, 72580, Tempo, 740740
1, 72588, Tempo, 731707
1, 72592, Tempo, 722891
1, 72600, Tempo, 714285
1, 72608, Tempo, 705882
1, 72612, Tempo, 697674
1, 72620, Tempo, 689655
1, 72624, Tempo, 681818
1, 72632, Tempo, 674157
1, 72640, Tempo, 666666
1, 72644, Tempo, 659340
1, 72652, Tempo, 652173
1, 72656, Tempo, 645161
1, 72664, Tempo, 638297
1, 72672, Tempo, 631578
1, 72960, Tempo, 631578
1, 72972, Tempo, 638297
1, 72984, Tempo, 645161
1, 72996, Tempo, 652173
1, 73008, Tempo, 659340
1, 73024, Tempo, 666666
1, 73036, Tempo, 674157
1, 73048, Tempo, 681818
1, 73060, Tempo, 689655
1, 73072, Tempo, 697674
1, 73088, Tempo, 705882
1, 73100, Tempo, 714285
1, 73112, Tempo, 722891
1, 73124, Tempo, 731707
1, 73136, Tempo, 740740
1, 73152, Tempo, 759493
1, 73156, Tempo, 769230
1, 73160, Tempo, 779220
1, 73164, Tempo, 789473
1, 73168, Tempo, 810810
1, 73172, Tempo, 821917
1, 73176, Tempo, 833333
1, 73180, Tempo, 845070
1, 73184, Tempo, 869565
1, 73188, Tempo, 882352
1, 73192, Tempo, 895522
1, 73196, Tempo, 909090
1, 73200, Tempo, 937500
1, 73204, Tempo, 952380
1, 73208, Tempo, 967741
1, 73212, Tempo, 983606
1, 73216, Tempo, 1016949
1, 73220, Tempo, 1034482
1, 73224, Tempo, 1052631
1, 73228, Tempo, 1071428
1, 73232, Tempo, 1111111
1, 73236, Tempo, 1132075
1, 73240, Tempo, 1153846
1, 73244, Tempo, 1176470
1, 73248, Tempo, 1200000
1, 73248, End_track
2, 0, Start_track
2, 0, Title_t, "Johann Sebastian Bach"
2, 0, Control_c, 0, 0, 0
2, 0, Program_c, 0, 6
2, 0, Control_c, 0, 7, 127
2, 0, Control_c, 0, 10, 0
2, 0, Control_c, 0, 91, 127
2, 0, Key_signature, 1, "major"
2, 0, Note_on_c, 0, 43, 127
2, 44, Note_off_c, 0, 43, 100
2, 48, Note_on_c, 0, 42, 127
2, 92, Note_off_c, 0, 42, 100
2, 96, Note_on_c, 0, 43, 127
2, 188, Note_off_c, 0, 43, 100
2, 384, Note_on_c, 0, 78, 127
2, 428, Note_off_c, 0, 78, 100
2, 432, Note_on_c, 0, 79, 127
2, 476, Note_off_c, 0, 79, 100
2, 480, Note_on_c, 0, 81, 127
2, 524, Note_off_c, 0, 81, 100
2, 528, Note_on_c, 0, 79, 127
2, 572, Note_off_c, 0, 79, 100
2, 576, Note_on_c, 0, 81, 127
2, 620, Note_off_c, 0, 81, 100
2, 624, Note_on_c, 0, 79, 127
2, 668, Note_off_c, 0, 79, 100
2, 672, Note_on_c, 0, 81, 127
2, 716, Note_off_c, 0, 81, 100
2, 720, Note_on_c, 0, 79, 127
2, 764, Note_off_c, 0, 79, 100
2, 768, Note_on_c, 0, 81, 127
2, 812, Note_off_c, 0, 81, 100
2, 816, Note_on_c, 0, 79, 127
2, 860, Note_off_c, 0, 79, 100
2, 864, Note_on_c, 0, 81, 127
2, 908, Note_off_c, 0, 81, 100
2, 912, Note_on_c, 0, 79, 127
2, 956, Note_off_c, 0, 79, 100
2, 960, Note_on_c, 0, 81, 127
2, 1004, Note_off_c, 0, 81, 100
2, 1008, Note_on_c, 0, 79, 127
2, 1052, Note_off_c, 0, 79, 100
2, 1056, Note_on_c, 0, 78, 127
2, 1100, Note_off_c, 0, 78, 100
2, 1104, Note_on_c, 0, 79, 127
2, 1148, Note_off_c, 0, 79, 100
2, 1152, Note_on_c, 0, 81, 127
2, 1212, Note_off_c, 0, 81, 100
2, 1536, Note_on_c, 0, 54, 127
2, 1580, Note_off_c, 0, 54, 100
2, 1584, Note_on_c, 0, 52, 127
2, 1628, Note_off_c, 0, 52, 100
2, 1632, Note_on_c, 0, 54, 127
2, 1916, Note_off_c, 0, 54, 100
2, 2016, Note_on_c, 0, 57, 127
2, 2108, Note_off_c, 0, 57, 100
2, 2112, Note_on_c, 0, 55, 127
2, 2204, Note_off_c, 0, 55, 100
2, 2208, Note_on_c, 0, 54, 127
2, 2300, Note_off_c, 0, 54, 100
2, 2304, Note_on_c, 0, 52, 127
2, 2364, Note_off_c, 0, 52, 100
2, 2688, Note_on_c, 0, 76, 127
2, 2876, Note_off_c, 0, 76, 100
2, 2880, Note_on_c, 0, 74, 127
2, 3068, Note_off_c, 0, 74, 100
2, 3072, Note_on_c, 0, 73, 127
2, 3260, Note_off_c, 0, 73, 100
2, 3264, Note_on_c, 0, 74, 127
2, 3356, Note_off_c, 0, 74, 100
2, 3360, Note_on_c, 0, 76, 127
2, 3452, Note_off_c, 0, 76, 100
2, 3456, Note_on_c, 0, 74, 127
2, 3516, Note_off_c, 0, 74, 100
2, 3840, Note_on_c, 0, 47, 127
2, 3884, Note_off_c, 0, 47, 100
2, 3888, Note_on_c, 0, 48, 127
2, 3932, Note_off_c, 0, 48, 100
2, 3936, Note_on_c, 0, 50, 127
2, 3980, Note_off_c, 0, 50, 100
2, 3984, Note_on_c, 0, 48, 127
2, 4028, Note_off_c, 0, 48, 100
2, 4032, Note_on_c, 0, 50, 127
2, 4076, Note_off_c, 0, 50, 100
2, 4080, Note_on_c, 0, 48, 127
2, 4124, Note_off_c, 0, 48, 100
2, 4128, Note_on_c, 0, 50, 127
2, 4172, Note_off_c, 0, 50, 100
2, 4176, Note_on_c, 0, 48, 127
2, 4220, Note_off_c, 0, 48, 100
2, 4224, Note_on_c, 0, 50, 127
2, 4268, Note_off_c, 0, 50, 100
2, 4272, Note_on_c, 0, 48, 127
2, 4316, Note_off_c, 0, 48, 100
2, 4320, Note_on_c, 0, 50, 127
2, 4364, Note_off_c, 0, 50, 100
2, 4368, Note_on_c, 0, 48, 127
2, 4412, Note_off_c, 0, 48, 100
2, 4416, Note_on_c, 0, 50, 127
2, 4460, Note_off_c, 0, 50, 100
2, 4464, Note_on_c, 0, 48, 127
2, 4508, Note_off_c, 0, 48, 100
2, 4512, Note_on_c, 0, 47, 127
2, 4556, Note_off_c, 0, 47, 100
2, 4560, Note_on_c, 0, 48, 127
2, 4604, Note_off_c, 0, 48, 100
2, 4608, Note_on_c, 0, 47, 127
2, 4668, Note_off_c, 0, 47, 100
2, 4800, Note_on_c, 0, 43, 127
2, 4860, Note_off_c, 0, 43, 100
2, 4992, Note_on_c, 0, 47, 127
2, 5052, Note_off_c, 0, 47, 100
2, 5184, Note_on_c, 0, 50, 127
2, 5244, Note_off_c, 0, 50, 100
2, 5376, Note_on_c, 0, 55, 127
2, 5436, Note_off_c, 0, 55, 100
2, 5568, Note_on_c, 0, 47, 127
2, 5628, Note_off_c, 0, 47, 100
2, 5760, Note_on_c, 0, 48, 127
2, 5820, Note_off_c, 0, 48, 100
2, 5952, Note_on_c, 0, 52, 127
2, 6012, Note_off_c, 0, 52, 100
2, 6144, Note_on_c, 0, 55, 127
2, 6204, Note_off_c, 0, 55, 100
2, 6336, Note_on_c, 0, 60, 127
2, 6396, Note_off_c, 0, 60, 100
2, 6528, Note_on_c, 0, 52, 127
2, 6588, Note_off_c, 0, 52, 100
2, 6720, Note_on_c, 0, 55, 127
2, 6780, Note_off_c, 0, 55, 100
2, 6912, Note_on_c, 0, 54, 127
2, 6972, Note_off_c, 0, 54, 100
2, 7104, Note_on_c, 0, 57, 127
2, 7164, Note_off_c, 0, 57, 100
2, 7296, Note_on_c, 0, 50, 127
2, 7356, Note_off_c, 0, 50, 100
2, 7488, Note_on_c, 0, 54, 127
2, 7548, Note_off_c, 0, 54, 100
2, 7680, Note_on_c, 0, 57, 127
2, 7740, Note_off_c, 0, 57, 100
2, 7872, Note_on_c, 0, 60, 127
2, 7932, Note_off_c, 0, 60, 100
2, 8064, Note_on_c, 0, 59, 127
2, 8124, Note_off_c, 0, 59, 100
2, 8256, Note_on_c, 0, 55, 127
2, 8316, Note_off_c, 0, 55, 100
2, 8448, Note_on_c, 0, 59, 127
2, 8508, Note_off_c, 0, 59, 100
2, 8640, Note_on_c, 0, 62, 127
2, 8700, Note_off_c, 0, 62, 100
2, 8832, Note_on_c, 0, 67, 127
2, 8892, Note_off_c, 0, 67, 100
2, 9312, Note_on_c, 0, 83, 127
2, 9356, Note_off_c, 0, 83, 100
2, 9360, Note_on_c, 0, 81, 127
2, 9404, Note_off_c, 0, 81, 100
2, 9408, Note_on_c, 0, 83, 127
2, 9436, Note_off_c, 0, 83, 100
2, 9696, Note_on_c, 0, 76, 127
2, 9740, Note_off_c, 0, 76, 100
2, 9744, Note_on_c, 0, 74, 127
2, 9788, Note_off_c, 0, 74, 100
2, 9792, Note_on_c, 0, 76, 127
2, 9820, Note_off_c, 0, 76, 100
2, 10080, Note_on_c, 0, 69, 127
2, 10124, Note_off_c, 0, 69, 100
2, 10128, Note_on_c, 0, 67, 127
2, 10172, Note_off_c, 0, 67, 100
2, 10176, Note_on_c, 0, 69, 127
2, 10204, Note_off_c, 0, 69, 100
2, 10464, Note_on_c, 0, 81, 127
2, 10508, Note_off_c, 0, 81, 100
2, 10512, Note_on_c, 0, 79, 127
2, 10556, Note_off_c, 0, 79, 100
2, 10560, Note_on_c, 0, 81, 127
2, 10588, Note_off_c, 0, 81, 100
2, 10848, Note_on_c, 0, 74, 127
2, 10892, Note_off_c, 0, 74, 100
2, 10896, Note_on_c, 0, 73, 127
2, 10940, Note_off_c, 0, 73, 100
2, 10944, Note_on_c, 0, 74, 127
2, 10972, Note_off_c, 0, 74, 100
2, 11232, Note_on_c, 0, 67, 127
2, 11276, Note_off_c, 0, 67, 100
2, 11280, Note_on_c, 0, 66, 127
2, 11324, Note_off_c, 0, 66, 100
2, 11328, Note_on_c, 0, 67, 127
2, 11356, Note_off_c, 0, 67, 100
2, 11616, Note_on_c, 0, 79, 127
2, 11660, Note_off_c, 0, 79, 100
2, 11664, Note_on_c, 0, 78, 127
2, 11708, Note_off_c, 0, 78, 100
2, 11712, Note_on_c, 0, 79, 127
2, 11740, Note_off_c, 0, 79, 100
2, 12000, Note_on_c, 0, 71, 127
2, 12044, Note_off_c, 0, 71, 100
2, 12048, Note_on_c, 0, 69, 127
2, 12092, Note_off_c, 0, 69, 100
2, 12096, Note_on_c, 0, 71, 127
2, 12124, Note_off_c, 0, 71, 100
2, 12384, Note_on_c, 0, 64, 127
2, 12428, Note_off_c, 0, 64, 100
2, 12432, Note_on_c, 0, 62, 127
2, 12476, Note_off_c, 0, 62, 100
2, 12480, Note_on_c, 0, 64, 127
2, 12508, Note_off_c, 0, 64, 100
2, 12768, Note_on_c, 0, 55, 127
2, 12812, Note_off_c, 0, 55, 100
2, 12816, Note_on_c, 0, 54, 127
2, 12860, Note_off_c, 0, 54, 100
2, 12864, Note_on_c, 0, 55, 127
2, 12892, Note_off_c, 0, 55, 100
2, 13152, Note_on_c, 0, 49, 127
2, 13196, Note_off_c, 0, 49, 100
2, 13200, Note_on_c, 0, 47, 127
2, 13244, Note_off_c, 0, 47, 100
2, 13248, Note_on_c, 0, 49, 127
2, 13276, Note_off_c, 0, 49, 100
2, 13536, Note_on_c, 0, 43, 127
2, 13580, Note_off_c, 0, 43, 100
2, 13584, Note_on_c, 0, 42, 127
2, 13628, Note_off_c, 0, 42, 100
2, 13632, Note_on_c, 0, 43, 127
2, 13660, Note_off_c, 0, 43, 100
2, 13872, Note_on_c, 0, 62, 127
2, 13916, Note_off_c, 0, 62, 100
2, 13920, Note_on_c, 0, 64, 127
2, 13964, Note_off_c, 0, 64, 100
2, 13968, Note_on_c, 0, 66, 127
2, 14012, Note_off_c, 0, 66, 100
2, 14016, Note_on_c, 0, 69, 127
2, 14060, Note_off_c, 0, 69, 100
2, 14064, Note_on_c, 0, 66, 127
2, 14108, Note_off_c, 0, 66, 100
2, 14112, Note_on_c, 0, 64, 127
2, 14156, Note_off_c, 0, 64, 100
2, 14160, Note_on_c, 0, 62, 127
2, 14192, Note_off_c, 0, 62, 100
2, 14256, Note_on_c, 0, 62, 127
2, 14300, Note_off_c, 0, 62, 100
2, 14304, Note_on_c, 0, 64, 127
2, 14348, Note_off_c, 0, 64, 100
2, 14352, Note_on_c, 0, 66, 127
2, 14396, Note_off_c, 0, 66, 100
2, 14400, Note_on_c, 0, 69, 127
2, 14444, Note_off_c, 0, 69, 100
2, 14448, Note_on_c, 0, 66, 127
2, 14492, Note_off_c, 0, 66, 100
2, 14496, Note_on_c, 0, 64, 127
2, 14540, Note_off_c, 0, 64, 100
2, 14544, Note_on_c, 0, 62, 127
2, 14576, Note_off_c, 0, 62, 100
2, 14640, Note_on_c, 0, 62, 127
2, 14684, Note_off_c, 0, 62, 100
2, 14688, Note_on_c, 0, 64, 127
2, 14732, Note_off_c, 0, 64, 100
2, 14736, Note_on_c, 0, 66, 127
2, 14780, Note_off_c, 0, 66, 100
2, 14784, Note_on_c, 0, 69, 127
2, 14828, Note_off_c, 0, 69, 100
2, 14832, Note_on_c, 0, 66, 127
2, 14876, Note_off_c, 0, 66, 100
2, 14880, Note_on_c, 0, 64, 127
2, 14924, Note_off_c, 0, 64, 100
2, 14928, Note_on_c, 0, 62, 127
2, 14960, Note_off_c, 0, 62, 100
2, 14976, Note_on_c, 0, 71, 127
2, 15036, Note_off_c, 0, 71, 100
2, 15360, Note_on_c, 0, 53, 127
2, 15420, Note_off_c, 0, 53, 100
2, 15744, Note_on_c, 0, 52, 127
2, 15804, Note_off_c, 0, 52, 100
2, 16224, Note_on_c, 0, 64, 127
2, 16268, Note_off_c, 0, 64, 100
2, 16272, Note_on_c, 0, 62, 127
2, 16316, Note_off_c, 0, 62, 100
2, 16320, Note_on_c, 0, 64, 127
2, 16348, Note_off_c, 0, 64, 100
2, 16416, Note_on_c, 0, 69, 127
2, 16460, Note_off_c, 0, 69, 100
2, 16464, Note_on_c, 0, 67, 127
2, 16508, Note_off_c, 0, 67, 100
2, 16512, Note_on_c, 0, 69, 127
2, 16540, Note_off_c, 0, 69, 100
2, 16608, Note_on_c, 0, 62, 127
2, 16652, Note_off_c, 0, 62, 100
2, 16656, Note_on_c, 0, 61, 127
2, 16700, Note_off_c, 0, 61, 100
2, 16704, Note_on_c, 0, 62, 127
2, 16732, Note_off_c, 0, 62, 100
2, 16800, Note_on_c, 0, 67, 127
2, 16844, Note_off_c, 0, 67, 100
2, 16848, Note_on_c, 0, 66, 127
2, 16892, Note_off_c, 0, 66, 100
2, 16896, Note_on_c, 0, 67, 127
2, 16924, Note_off_c, 0, 67, 100
2, 16992, Note_on_c, 0, 61, 127
2, 17036, Note_off_c, 0, 61, 100
2, 17040, Note_on_c, 0, 59, 127
2, 17084, Note_off_c, 0, 59, 100
2, 17088, Note_on_c, 0, 61, 127
2, 17116, Note_off_c, 0, 61, 100
2, 17184, Note_on_c, 0, 66, 127
2, 17228, Note_off_c, 0, 66, 100
2, 17232, Note_on_c, 0, 64, 127
2, 17276, Note_off_c, 0, 64, 100
2, 17280, Note_on_c, 0, 66, 127
2, 17308, Note_off_c, 0, 66, 100
2, 17376, Note_on_c, 0, 62, 127
2, 17468, Note_off_c, 0, 62, 100
2, 17472, Note_on_c, 0, 61, 127
2, 17564, Note_off_c, 0, 61, 100
2, 17568, Note_on_c, 0, 62, 127
2, 17632, Note_off_c, 0, 62, 100
2, 17664, Note_on_c, 0, 66, 127
2, 17708, Note_off_c, 0, 66, 100
2, 17712, Note_on_c, 0, 64, 127
2, 17756, Note_off_c, 0, 64, 100
2, 17760, Note_on_c, 0, 62, 127
2, 17788, Note_off_c, 0, 62, 100
2, 17856, Note_on_c, 0, 69, 127
2, 17900, Note_off_c, 0, 69, 100
2, 17904, Note_on_c, 0, 67, 127
2, 17948, Note_off_c, 0, 67, 100
2, 17952, Note_on_c, 0, 66, 127
2, 17980, Note_off_c, 0, 66, 100
2, 18048, Note_on_c, 0, 74, 127
2, 18236, Note_off_c, 0, 74, 100
2, 18432, Note_on_c, 0, 43, 127
2, 18476, Note_off_c, 0, 43, 100
2, 18480, Note_on_c, 0, 42, 127
2, 18524, Note_off_c, 0, 42, 100
2, 18528, Note_on_c, 0, 43, 127
2, 18620, Note_off_c, 0, 43, 100
2, 18816, Note_on_c, 0, 78, 127
2, 18860, Note_off_c, 0, 78, 100
2, 18864, Note_on_c, 0, 79, 127
2, 18908, Note_off_c, 0, 79, 100
2, 18912, Note_on_c, 0, 81, 127
2, 18956, Note_off_c, 0, 81, 100
2, 18960, Note_on_c, 0, 79, 127
2, 19004, Note_off_c, 0, 79, 100
2, 19008, Note_on_c, 0, 81, 127
2, 19052, Note_off_c, 0, 81, 100
2, 19056, Note_on_c, 0, 79, 127
2, 19100, Note_off_c, 0, 79, 100
2, 19104, Note_on_c, 0, 81, 127
2, 19148, Note_off_c, 0, 81, 100
2, 19152, Note_on_c, 0, 79, 127
2, 19196, Note_off_c, 0, 79, 100
2, 19200, Note_on_c, 0, 81, 127
2, 19244, Note_off_c, 0, 81, 100
2, 19248, Note_on_c, 0, 79, 127
2, 19292, Note_off_c, 0, 79, 100
2, 19296, Note_on_c, 0, 81, 127
2, 19340, Note_off_c, 0, 81, 100
2, 19344, Note_on_c, 0, 79, 127
2, 19388, Note_off_c, 0, 79, 100
2, 19392, Note_on_c, 0, 81, 127
2, 19436, Note_off_c, 0, 81, 100
2, 19440, Note_on_c, 0, 79, 127
2, 19484, Note_off_c, 0, 79, 100
2, 19488, Note_on_c, 0, 78, 127
2, 19532, Note_off_c, 0, 78, 100
2, 19536, Note_on_c, 0, 79, 127
2, 19580, Note_off_c, 0, 79, 100
2, 19584, Note_on_c, 0, 81, 127
2, 19644, Note_off_c, 0, 81, 100
2, 19968, Note_on_c, 0, 54, 127
2, 20012, Note_off_c, 0, 54, 100
2, 20016, Note_on_c, 0, 52, 127
2, 20060, Note_off_c, 0, 52, 100
2, 20064, Note_on_c, 0, 54, 127
2, 20348, Note_off_c, 0, 54, 100
2, 20448, Note_on_c, 0, 57, 127
2, 20540, Note_off_c, 0, 57, 100
2, 20544, Note_on_c, 0, 55, 127
2, 20636, Note_off_c, 0, 55, 100
2, 20640, Note_on_c, 0, 54, 127
2, 20732, Note_off_c, 0, 54, 100
2, 20736, Note_on_c, 0, 52, 127
2, 20796, Note_off_c, 0, 52, 100
2, 21120, Note_on_c, 0, 76, 127
2, 21308, Note_off_c, 0, 76, 100
2, 21312, Note_on_c, 0, 74, 127
2, 21500, Note_off_c, 0, 74, 100
2, 21504, Note_on_c, 0, 73, 127
2, 21692, Note_off_c, 0, 73, 100
2, 21696, Note_on_c, 0, 74, 127
2, 21788, Note_off_c, 0, 74, 100
2, 21792, Note_on_c, 0, 76, 127
2, 21884, Note_off_c, 0, 76, 100
2, 21888, Note_on_c, 0, 74, 127
2, 21948, Note_off_c, 0, 74, 100
2, 22272, Note_on_c, 0, 47, 127
2, 22316, Note_off_c, 0, 47, 100
2, 22320, Note_on_c, 0, 48, 127
2, 22364, Note_off_c, 0, 48, 100
2, 22368, Note_on_c, 0, 50, 127
2, 22412, Note_off_c, 0, 50, 100
2, 22416, Note_on_c, 0, 48, 127
2, 22460, Note_off_c, 0, 48, 100
2, 22464, Note_on_c, 0, 50, 127
2, 22508, Note_off_c, 0, 50, 100
2, 22512, Note_on_c, 0, 48, 127
2, 22556, Note_off_c, 0, 48, 100
2, 22560, Note_on_c, 0, 50, 127
2, 22604, Note_off_c, 0, 50, 100
2, 22608, Note_on_c, 0, 48, 127
2, 22652, Note_off_c, 0, 48, 100
2, 22656, Note_on_c, 0, 50, 127
2, 22700, Note_off_c, 0, 50, 100
2, 22704, Note_on_c, 0, 48, 127
2, 22748, Note_off_c, 0, 48, 100
2, 22752, Note_on_c, 0, 50, 127
2, 22796, Note_off_c, 0, 50, 100
2, 22800, Note_on_c, 0, 48, 127
2, 22844, Note_off_c, 0, 48, 100
2, 22848, Note_on_c, 0, 50, 127
2, 22892, Note_off_c, 0, 50, 100
2, 22896, Note_on_c, 0, 48, 127
2, 22940, Note_off_c, 0, 48, 100
2, 22944, Note_on_c, 0, 47, 127
2, 22988, Note_off_c, 0, 47, 100
2, 22992, Note_on_c, 0, 48, 127
2, 23036, Note_off_c, 0, 48, 100
2, 23040, Note_on_c, 0, 47, 127
2, 23100, Note_off_c, 0, 47, 100
2, 23232, Note_on_c, 0, 43, 127
2, 23292, Note_off_c, 0, 43, 100
2, 23424, Note_on_c, 0, 47, 127
2, 23484, Note_off_c, 0, 47, 100
2, 23616, Note_on_c, 0, 50, 127
2, 23676, Note_off_c, 0, 50, 100
2, 23808, Note_on_c, 0, 55, 127
2, 23868, Note_off_c, 0, 55, 100
2, 24000, Note_on_c, 0, 47, 127
2, 24060, Note_off_c, 0, 47, 100
2, 24192, Note_on_c, 0, 48, 127
2, 24252, Note_off_c, 0, 48, 100
2, 24384, Note_on_c, 0, 52, 127
2, 24444, Note_off_c, 0, 52, 100
2, 24576, Note_on_c, 0, 55, 127
2, 24636, Note_off_c, 0, 55, 100
2, 24768, Note_on_c, 0, 60, 127
2, 24828, Note_off_c, 0, 60, 100
2, 24960, Note_on_c, 0, 52, 127
2, 25020, Note_off_c, 0, 52, 100
2, 25152, Note_on_c, 0, 55, 127
2, 25212, Note_off_c, 0, 55, 100
2, 25344, Note_on_c, 0, 54, 127
2, 25404, Note_off_c, 0, 54, 100
2, 25536, Note_on_c, 0, 57, 127
2, 25596, Note_off_c, 0, 57, 100
2, 25728, Note_on_c, 0, 50, 127
2, 25788, Note_off_c, 0, 50, 100
2, 25920, Note_on_c, 0, 54, 127
2, 25980, Note_off_c, 0, 54, 100
2, 26112, Note_on_c, 0, 57, 127
2, 26172, Note_off_c, 0, 57, 100
2, 26304, Note_on_c, 0, 60, 127
2, 26364, Note_off_c, 0, 60, 100
2, 26496, Note_on_c, 0, 59, 127
2, 26556, Note_off_c, 0, 59, 100
2, 26688, Note_on_c, 0, 55, 127
2, 26748, Note_off_c, 0, 55, 100
2, 26880, Note_on_c, 0, 59, 127
2, 26940, Note_off_c, 0, 59, 100
2, 27072, Note_on_c, 0, 62, 127
2, 27132, Note_off_c, 0, 62, 100
2, 27264, Note_on_c, 0, 67, 127
2, 27324, Note_off_c, 0, 67, 100
2, 27744, Note_on_c, 0, 83, 127
2, 27788, Note_off_c, 0, 83, 100
2, 27792, Note_on_c, 0, 81, 127
2, 27836, Note_off_c, 0, 81, 100
2, 27840, Note_on_c, 0, 83, 127
2, 27868, Note_off_c, 0, 83, 100
2, 28128, Note_on_c, 0, 76, 127
2, 28172, Note_off_c, 0, 76, 100
2, 28176, Note_on_c, 0, 74, 127
2, 28220, Note_off_c, 0, 74, 100
2, 28224, Note_on_c, 0, 76, 127
2, 28252, Note_off_c, 0, 76, 100
2, 28512, Note_on_c, 0, 69, 127
2, 28556, Note_off_c, 0, 69, 100
2, 28560, Note_on_c, 0, 67, 127
2, 28604, Note_off_c, 0, 67, 100
2, 28608, Note_on_c, 0, 69, 127
2, 28636, Note_off_c, 0, 69, 100
2, 28896, Note_on_c, 0, 81, 127
2, 28940, Note_off_c, 0, 81, 100
2, 28944, Note_on_c, 0, 79, 127
2, 28988, Note_off_c, 0, 79, 100
2, 28992, Note_on_c, 0, 81, 127
2, 29020, Note_off_c, 0, 81, 100
2, 29280, Note_on_c, 0, 74, 127
2, 29324, Note_off_c, 0, 74, 100
2, 29328, Note_on_c, 0, 73, 127
2, 29372, Note_off_c, 0, 73, 100
2, 29376, Note_on_c, 0, 74, 127
2, 29404, Note_off_c, 0, 74, 100
2, 29664, Note_on_c, 0, 67, 127
2, 29708, Note_off_c, 0, 67, 100
2, 29712, Note_on_c, 0, 66, 127
2, 29756, Note_off_c, 0, 66, 100
2, 29760, Note_on_c, 0, 67, 127
2, 29788, Note_off_c, 0, 67, 100
2, 30048, Note_on_c, 0, 79, 127
2, 30092, Note_off_c, 0, 79, 100
2, 30096, Note_on_c, 0, 78, 127
2, 30140, Note_off_c, 0, 78, 100
2, 30144, Note_on_c, 0, 79, 127
2, 30172, Note_off_c, 0, 79, 100
2, 30432, Note_on_c, 0, 71, 127
2, 30476, Note_off_c, 0, 71, 100
2, 30480, Note_on_c, 0, 69, 127
2, 30524, Note_off_c, 0, 69, 100
2, 30528, Note_on_c, 0, 71, 127
2, 30556, Note_off_c, 0, 71, 100
2, 30816, Note_on_c, 0, 64, 127
2, 30860, Note_off_c, 0, 64, 100
2, 30864, Note_on_c, 0, 62, 127
2, 30908, Note_off_c, 0, 62, 100
2, 30912, Note_on_c, 0, 64, 127
2, 30940, Note_off_c, 0, 64, 100
2, 31200, Note_on_c, 0, 55, 127
2, 31244, Note_off_c, 0, 55, 100
2, 31248, Note_on_c, 0, 54, 127
2, 31292, Note_off_c, 0, 54, 100
2, 31296, Note_on_c, 0, 55, 127
2, 31324, Note_off_c, 0, 55, 100
2, 31584, Note_on_c, 0, 49, 127
2, 31628, Note_off_c, 0, 49, 100
2, 31632, Note_on_c, 0, 47, 127
2, 31676, Note_off_c, 0, 47, 100
2, 31680, Note_on_c, 0, 49, 127
2, 31708, Note_off_c, 0, 49, 100
2, 31968, Note_on_c, 0, 43, 127
2, 32012, Note_off_c, 0, 43, 100
2, 32016, Note_on_c, 0, 42, 127
2, 32060, Note_off_c, 0, 42, 100
2, 32064, Note_on_c, 0, 43, 127
2, 32092, Note_off_c, 0, 43, 100
2, 32304, Note_on_c, 0, 62, 127
2, 32348, Note_off_c, 0, 62, 100
2, 32352, Note_on_c, 0, 64, 127
2, 32396, Note_off_c, 0, 64, 100
2, 32400, Note_on_c, 0, 66, 127
2, 32444, Note_off_c, 0, 66, 100
2, 32448, Note_on_c, 0, 69, 127
2, 32492, Note_off_c, 0, 69, 100
2, 32496, Note_on_c, 0, 66, 127
2, 32540, Note_off_c, 0, 66, 100
2, 32544, Note_on_c, 0, 64, 127
2, 32588, Note_off_c, 0, 64, 100
2, 32592, Note_on_c, 0, 62, 127
2, 32624, Note_off_c, 0, 62, 100
2, 32688, Note_on_c, 0, 62, 127
2, 32732, Note_off_c, 0, 62, 100
2, 32736, Note_on_c, 0, 64, 127
2, 32780, Note_off_c, 0, 64, 100
2, 32784, Note_on_c, 0, 66, 127
2, 32828, Note_off_c, 0, 66, 100
2, 32832, Note_on_c, 0, 69, 127
2, 32876, Note_off_c, 0, 69, 100
2, 32880, Note_on_c, 0, 66, 127
2, 32924, Note_off_c, 0, 66, 100
2, 32928, Note_on_c, 0, 64, 127
2, 32972, Note_off_c, 0, 64, 100
2, 32976, Note_on_c, 0, 62, 127
2, 33008, Note_off_c, 0, 62, 100
2, 33072, Note_on_c, 0, 62, 127
2, 33116, Note_off_c, 0, 62, 100
2, 33120, Note_on_c, 0, 64, 127
2, 33164, Note_off_c, 0, 64, 100
2, 33168, Note_on_c, 0, 66, 127
2, 33212, Note_off_c, 0, 66, 100
2, 33216, Note_on_c, 0, 69, 127
2, 33260, Note_off_c, 0, 69, 100
2, 33264, Note_on_c, 0, 66, 127
2, 33308, Note_off_c, 0, 66, 100
2, 33312, Note_on_c, 0, 64, 127
2, 33356, Note_off_c, 0, 64, 100
2, 33360, Note_on_c, 0, 62, 127
2, 33392, Note_off_c, 0, 62, 100
2, 33408, Note_on_c, 0, 71, 127
2, 33468, Note_off_c, 0, 71, 100
2, 33792, Note_on_c, 0, 53, 127
2, 33852, Note_off_c, 0, 53, 100
2, 34176, Note_on_c, 0, 52, 127
2, 34236, Note_off_c, 0, 52, 100
2, 34656, Note_on_c, 0, 64, 127
2, 34700, Note_off_c, 0, 64, 100
2, 34704, Note_on_c, 0, 62, 127
2, 34748, Note_off_c, 0, 62, 100
2, 34752, Note_on_c, 0, 64, 127
2, 34780, Note_off_c, 0, 64, 100
2, 34848, Note_on_c, 0, 69, 127
2, 34892, Note_off_c, 0, 69, 100
2, 34896, Note_on_c, 0, 67, 127
2, 34940, Note_off_c, 0, 67, 100
2, 34944, Note_on_c, 0, 69, 127
2, 34972, Note_off_c, 0, 69, 100
2, 35040, Note_on_c, 0, 62, 127
2, 35084, Note_off_c, 0, 62, 100
2, 35088, Note_on_c, 0, 61, 127
2, 35132, Note_off_c, 0, 61, 100
2, 35136, Note_on_c, 0, 62, 127
2, 35164, Note_off_c, 0, 62, 100
2, 35232, Note_on_c, 0, 67, 127
2, 35276, Note_off_c, 0, 67, 100
2, 35280, Note_on_c, 0, 66, 127
2, 35324, Note_off_c, 0, 66, 100
2, 35328, Note_on_c, 0, 67, 127
2, 35356, Note_off_c, 0, 67, 100
2, 35424, Note_on_c, 0, 61, 127
2, 35468, Note_off_c, 0, 61, 100
2, 35472, Note_on_c, 0, 59, 127
2, 35516, Note_off_c, 0, 59, 100
2, 35520, Note_on_c, 0, 61, 127
2, 35548, Note_off_c, 0, 61, 100
2, 35616, Note_on_c, 0, 66, 127
2, 35660, Note_off_c, 0, 66, 100
2, 35664, Note_on_c, 0, 64, 127
2, 35708, Note_off_c, 0, 64, 100
2, 35712, Note_on_c, 0, 66, 127
2, 35740, Note_off_c, 0, 66, 100
2, 35808, Note_on_c, 0, 62, 127
2, 35900, Note_off_c, 0, 62, 100
2, 35904, Note_on_c, 0, 61, 127
2, 35996, Note_off_c, 0, 61, 100
2, 36000, Note_on_c, 0, 62, 127
2, 36064, Note_off_c, 0, 62, 100
2, 36096, Note_on_c, 0, 66, 127
2, 36140, Note_off_c, 0, 66, 100
2, 36144, Note_on_c, 0, 64, 127
2, 36188, Note_off_c, 0, 64, 100
2, 36192, Note_on_c, 0, 62, 127
2, 36220, Note_off_c, 0, 62, 100
2, 36288, Note_on_c, 0, 69, 127
2, 36332, Note_off_c, 0, 69, 100
2, 36336, Note_on_c, 0, 67, 127
2, 36380, Note_off_c, 0, 67, 100
2, 36384, Note_on_c, 0, 66, 127
2, 36412, Note_off_c, 0, 66, 100
2, 36480, Note_on_c, 0, 74, 127
2, 36668, Note_off_c, 0, 74, 100
2, 36864, Note_on_c, 0, 78, 127
2, 36936, Note_off_c, 0, 78, 100
2, 36960, Note_on_c, 0, 81, 127
2, 37032, Note_off_c, 0, 81, 100
2, 37056, Note_on_c, 0, 86, 127
2, 37128, Note_off_c, 0, 86, 100
2, 37152, Note_on_c, 0, 81, 127
2, 37224, Note_off_c, 0, 81, 100
2, 37248, Note_on_c, 0, 78, 127
2, 37320, Note_off_c, 0, 78, 100
2, 37344, Note_on_c, 0, 81, 127
2, 37416, Note_off_c, 0, 81, 100
2, 37440, Note_on_c, 0, 74, 127
2, 37512, Note_off_c, 0, 74, 100
2, 37536, Note_on_c, 0, 78, 127
2, 37608, Note_off_c, 0, 78, 100
2, 37632, Note_on_c, 0, 81, 127
2, 37704, Note_off_c, 0, 81, 100
2, 37728, Note_on_c, 0, 78, 127
2, 37800, Note_off_c, 0, 78, 100
2, 37824, Note_on_c, 0, 79, 127
2, 37896, Note_off_c, 0, 79, 100
2, 37920, Note_on_c, 0, 81, 127
2, 37992, Note_off_c, 0, 81, 100
2, 38016, Note_on_c, 0, 74, 127
2, 38088, Note_off_c, 0, 74, 100
2, 38112, Note_on_c, 0, 79, 127
2, 38184, Note_off_c, 0, 79, 100
2, 38208, Note_on_c, 0, 83, 127
2, 38280, Note_off_c, 0, 83, 100
2, 38304, Note_on_c, 0, 79, 127
2, 38376, Note_off_c, 0, 79, 100
2, 38400, Note_on_c, 0, 74, 127
2, 38472, Note_off_c, 0, 74, 100
2, 38496, Note_on_c, 0, 79, 127
2, 38568, Note_off_c, 0, 79, 100
2, 38592, Note_on_c, 0, 71, 127
2, 38664, Note_off_c, 0, 71, 100
2, 38688, Note_on_c, 0, 74, 127
2, 38760, Note_off_c, 0, 74, 100
2, 38784, Note_on_c, 0, 79, 127
2, 38856, Note_off_c, 0, 79, 100
2, 38880, Note_on_c, 0, 71, 127
2, 38952, Note_off_c, 0, 71, 100
2, 38976, Note_on_c, 0, 72, 127
2, 39048, Note_off_c, 0, 72, 100
2, 39072, Note_on_c, 0, 74, 127
2, 39144, Note_off_c, 0, 74, 100
2, 39168, Note_on_c, 0, 67, 127
2, 39240, Note_off_c, 0, 67, 100
2, 39264, Note_on_c, 0, 72, 127
2, 39336, Note_off_c, 0, 72, 100
2, 39360, Note_on_c, 0, 76, 127
2, 39432, Note_off_c, 0, 76, 100
2, 39456, Note_on_c, 0, 72, 127
2, 39528, Note_off_c, 0, 72, 100
2, 39552, Note_on_c, 0, 69, 127
2, 39624, Note_off_c, 0, 69, 100
2, 39648, Note_on_c, 0, 72, 127
2, 39720, Note_off_c, 0, 72, 100
2, 39744, Note_on_c, 0, 66, 127
2, 39816, Note_off_c, 0, 66, 100
2, 39840, Note_on_c, 0, 69, 127
2, 39912, Note_off_c, 0, 69, 100
2, 39936, Note_on_c, 0, 72, 127
2, 40008, Note_off_c, 0, 72, 100
2, 40032, Note_on_c, 0, 66, 127
2, 40104, Note_off_c, 0, 66, 100
2, 40128, Note_on_c, 0, 67, 127
2, 40200, Note_off_c, 0, 67, 100
2, 40224, Note_on_c, 0, 69, 127
2, 40296, Note_off_c, 0, 69, 100
2, 40320, Note_on_c, 0, 63, 127
2, 40392, Note_off_c, 0, 63, 100
2, 40416, Note_on_c, 0, 66, 127
2, 40488, Note_off_c, 0, 66, 100
2, 40512, Note_on_c, 0, 71, 127
2, 40584, Note_off_c, 0, 71, 100
2, 40608, Note_on_c, 0, 66, 127
2, 40680, Note_off_c, 0, 66, 100
2, 40704, Note_on_c, 0, 63, 127
2, 40776, Note_off_c, 0, 63, 100
2, 40800, Note_on_c, 0, 66, 127
2, 40872, Note_off_c, 0, 66, 100
2, 40896, Note_on_c, 0, 59, 127
2, 40968, Note_off_c, 0, 59, 100
2, 40992, Note_on_c, 0, 63, 127
2, 41064, Note_off_c, 0, 63, 100
2, 41088, Note_on_c, 0, 66, 127
2, 41160, Note_off_c, 0, 66, 100
2, 41184, Note_on_c, 0, 63, 127
2, 41256, Note_off_c, 0, 63, 100
2, 41280, Note_on_c, 0, 64, 127
2, 41352, Note_off_c, 0, 64, 100
2, 41376, Note_on_c, 0, 66, 127
2, 41448, Note_off_c, 0, 66, 100
2, 41472, Note_on_c, 0, 59, 127
2, 41544, Note_off_c, 0, 59, 100
2, 41568, Note_on_c, 0, 64, 127
2, 41640, Note_off_c, 0, 64, 100
2, 41664, Note_on_c, 0, 67, 127
2, 41736, Note_off_c, 0, 67, 100
2, 41760, Note_on_c, 0, 64, 127
2, 41832, Note_off_c, 0, 64, 100
2, 41856, Note_on_c, 0, 59, 127
2, 41928, Note_off_c, 0, 59, 100
2, 41952, Note_on_c, 0, 64, 127
2, 42024, Note_off_c, 0, 64, 100
2, 42048, Note_on_c, 0, 55, 127
2, 42120, Note_off_c, 0, 55, 100
2, 42144, Note_on_c, 0, 59, 127
2, 42216, Note_off_c, 0, 59, 100
2, 42240, Note_on_c, 0, 64, 127
2, 42312, Note_off_c, 0, 64, 100
2, 42336, Note_on_c, 0, 63, 127
2, 42408, Note_off_c, 0, 63, 100
2, 42432, Note_on_c, 0, 64, 127
2, 42504, Note_off_c, 0, 64, 100
2, 42528, Note_on_c, 0, 67, 127
2, 42600, Note_off_c, 0, 67, 100
2, 42624, Note_on_c, 0, 60, 127
2, 42696, Note_off_c, 0, 60, 100
2, 42720, Note_on_c, 0, 65, 127
2, 42792, Note_off_c, 0, 65, 100
2, 42816, Note_on_c, 0, 69, 127
2, 42888, Note_off_c, 0, 69, 100
2, 42912, Note_on_c, 0, 65, 127
2, 42984, Note_off_c, 0, 65, 100
2, 43008, Note_on_c, 0, 60, 127
2, 43080, Note_off_c, 0, 60, 100
2, 43104, Note_on_c, 0, 65, 127
2, 43176, Note_off_c, 0, 65, 100
2, 43200, Note_on_c, 0, 57, 127
2, 43272, Note_off_c, 0, 57, 100
2, 43296, Note_on_c, 0, 60, 127
2, 43368, Note_off_c, 0, 60, 100
2, 43392, Note_on_c, 0, 65, 127
2, 43464, Note_off_c, 0, 65, 100
2, 43488, Note_on_c, 0, 64, 127
2, 43560, Note_off_c, 0, 64, 100
2, 43584, Note_on_c, 0, 65, 127
2, 43656, Note_off_c, 0, 65, 100
2, 43680, Note_on_c, 0, 69, 127
2, 43752, Note_off_c, 0, 69, 100
2, 43776, Note_on_c, 0, 63, 127
2, 43848, Note_off_c, 0, 63, 100
2, 43872, Note_on_c, 0, 66, 127
2, 43944, Note_off_c, 0, 66, 100
2, 43968, Note_on_c, 0, 69, 127
2, 44040, Note_off_c, 0, 69, 100
2, 44064, Note_on_c, 0, 66, 127
2, 44136, Note_off_c, 0, 66, 100
2, 44160, Note_on_c, 0, 63, 127
2, 44232, Note_off_c, 0, 63, 100
2, 44256, Note_on_c, 0, 66, 127
2, 44328, Note_off_c, 0, 66, 100
2, 44352, Note_on_c, 0, 59, 127
2, 44424, Note_off_c, 0, 59, 100
2, 44448, Note_on_c, 0, 63, 127
2, 44520, Note_off_c, 0, 63, 100
2, 44544, Note_on_c, 0, 54, 127
2, 44616, Note_off_c, 0, 54, 100
2, 44640, Note_on_c, 0, 57, 127
2, 44712, Note_off_c, 0, 57, 100
2, 44736, Note_on_c, 0, 55, 127
2, 44808, Note_off_c, 0, 55, 100
2, 44832, Note_on_c, 0, 54, 127
2, 44904, Note_off_c, 0, 54, 100
2, 44928, Note_on_c, 0, 55, 127
2, 45000, Note_off_c, 0, 55, 100
2, 45024, Note_on_c, 0, 59, 127
2, 45096, Note_off_c, 0, 59, 100
2, 45120, Note_on_c, 0, 64, 127
2, 45192, Note_off_c, 0, 64, 100
2, 45216, Note_on_c, 0, 59, 127
2, 45288, Note_off_c, 0, 59, 100
2, 45312, Note_on_c, 0, 55, 127
2, 45384, Note_off_c, 0, 55, 100
2, 45408, Note_on_c, 0, 59, 127
2, 45480, Note_off_c, 0, 59, 100
2, 45504, Note_on_c, 0, 52, 127
2, 45576, Note_off_c, 0, 52, 100
2, 45600, Note_on_c, 0, 54, 127
2, 45672, Note_off_c, 0, 54, 100
2, 45696, Note_on_c, 0, 55, 127
2, 45768, Note_off_c, 0, 55, 100
2, 45792, Note_on_c, 0, 52, 127
2, 45864, Note_off_c, 0, 52, 100
2, 45888, Note_on_c, 0, 55, 127
2, 45960, Note_off_c, 0, 55, 100
2, 45984, Note_on_c, 0, 59, 127
2, 46056, Note_off_c, 0, 59, 100
2, 46080, Note_on_c, 0, 64, 127
2, 46140, Note_off_c, 0, 64, 100
2, 46368, Note_on_c, 0, 52, 127
2, 46412, Note_off_c, 0, 52, 100
2, 46416, Note_on_c, 0, 50, 127
2, 46460, Note_off_c, 0, 50, 100
2, 46464, Note_on_c, 0, 52, 127
2, 46524, Note_off_c, 0, 52, 100
2, 46752, Note_on_c, 0, 60, 127
2, 46796, Note_off_c, 0, 60, 100
2, 46800, Note_on_c, 0, 59, 127
2, 46844, Note_off_c, 0, 59, 100
2, 46848, Note_on_c, 0, 60, 127
2, 46908, Note_off_c, 0, 60, 100
2, 47136, Note_on_c, 0, 69, 127
2, 47180, Note_off_c, 0, 69, 100
2, 47184, Note_on_c, 0, 67, 127
2, 47228, Note_off_c, 0, 67, 100
2, 47232, Note_on_c, 0, 69, 127
2, 47292, Note_off_c, 0, 69, 100
2, 47520, Note_on_c, 0, 50, 127
2, 47564, Note_off_c, 0, 50, 100
2, 47568, Note_on_c, 0, 48, 127
2, 47612, Note_off_c, 0, 48, 100
2, 47616, Note_on_c, 0, 50, 127
2, 47676, Note_off_c, 0, 50, 100
2, 47904, Note_on_c, 0, 59, 127
2, 47948, Note_off_c, 0, 59, 100
2, 47952, Note_on_c, 0, 57, 127
2, 47996, Note_off_c, 0, 57, 100
2, 48000, Note_on_c, 0, 59, 127
2, 48060, Note_off_c, 0, 59, 100
2, 48288, Note_on_c, 0, 67, 127
2, 48332, Note_off_c, 0, 67, 100
2, 48336, Note_on_c, 0, 66, 127
2, 48380, Note_off_c, 0, 66, 100
2, 48384, Note_on_c, 0, 67, 127
2, 48444, Note_off_c, 0, 67, 100
2, 48672, Note_on_c, 0, 48, 127
2, 48716, Note_off_c, 0, 48, 100
2, 48720, Note_on_c, 0, 47, 127
2, 48764, Note_off_c, 0, 47, 100
2, 48768, Note_on_c, 0, 48, 127
2, 48828, Note_off_c, 0, 48, 100
2, 49056, Note_on_c, 0, 57, 127
2, 49100, Note_off_c, 0, 57, 100
2, 49104, Note_on_c, 0, 55, 127
2, 49148, Note_off_c, 0, 55, 100
2, 49152, Note_on_c, 0, 57, 127
2, 49212, Note_off_c, 0, 57, 100
2, 49440, Note_on_c, 0, 66, 127
2, 49484, Note_off_c, 0, 66, 100
2, 49488, Note_on_c, 0, 64, 127
2, 49532, Note_off_c, 0, 64, 100
2, 49536, Note_on_c, 0, 66, 127
2, 49596, Note_off_c, 0, 66, 100
2, 49824, Note_on_c, 0, 74, 127
2, 49868, Note_off_c, 0, 74, 100
2, 49872, Note_on_c, 0, 72, 127
2, 49916, Note_off_c, 0, 72, 100
2, 49920, Note_on_c, 0, 74, 127
2, 49948, Note_off_c, 0, 74, 100
2, 50208, Note_on_c, 0, 79, 127
2, 50252, Note_off_c, 0, 79, 100
2, 50256, Note_on_c, 0, 78, 127
2, 50300, Note_off_c, 0, 78, 100
2, 50304, Note_on_c, 0, 79, 127
2, 50332, Note_off_c, 0, 79, 100
2, 50592, Note_on_c, 0, 83, 127
2, 50636, Note_off_c, 0, 83, 100
2, 50640, Note_on_c, 0, 81, 127
2, 50684, Note_off_c, 0, 81, 100
2, 50688, Note_on_c, 0, 83, 127
2, 50748, Note_off_c, 0, 83, 100
2, 51072, Note_on_c, 0, 62, 127
2, 51132, Note_off_c, 0, 62, 100
2, 51456, Note_on_c, 0, 65, 127
2, 51516, Note_off_c, 0, 65, 100
2, 51888, Note_on_c, 0, 64, 127
2, 51932, Note_off_c, 0, 64, 100
2, 51936, Note_on_c, 0, 65, 127
2, 51980, Note_off_c, 0, 65, 100
2, 51984, Note_on_c, 0, 67, 127
2, 52028, Note_off_c, 0, 67, 100
2, 52032, Note_on_c, 0, 72, 127
2, 52076, Note_off_c, 0, 72, 100
2, 52080, Note_on_c, 0, 67, 127
2, 52124, Note_off_c, 0, 67, 100
2, 52128, Note_on_c, 0, 65, 127
2, 52172, Note_off_c, 0, 65, 100
2, 52176, Note_on_c, 0, 64, 127
2, 52208, Note_off_c, 0, 64, 100
2, 52272, Note_on_c, 0, 66, 127
2, 52316, Note_off_c, 0, 66, 100
2, 52320, Note_on_c, 0, 67, 127
2, 52364, Note_off_c, 0, 67, 100
2, 52368, Note_on_c, 0, 69, 127
2, 52412, Note_off_c, 0, 69, 100
2, 52416, Note_on_c, 0, 72, 127
2, 52460, Note_off_c, 0, 72, 100
2, 52464, Note_on_c, 0, 69, 127
2, 52508, Note_off_c, 0, 69, 100
2, 52512, Note_on_c, 0, 67, 127
2, 52556, Note_off_c, 0, 67, 100
2, 52560, Note_on_c, 0, 66, 127
2, 52592, Note_off_c, 0, 66, 100
2, 52656, Note_on_c, 0, 67, 127
2, 52700, Note_off_c, 0, 67, 100
2, 52704, Note_on_c, 0, 69, 127
2, 52748, Note_off_c, 0, 69, 100
2, 52752, Note_on_c, 0, 70, 127
2, 52796, Note_off_c, 0, 70, 100
2, 52800, Note_on_c, 0, 73, 127
2, 52844, Note_off_c, 0, 73, 100
2, 52848, Note_on_c, 0, 70, 127
2, 52892, Note_off_c, 0, 70, 100
2, 52896, Note_on_c, 0, 69, 127
2, 52940, Note_off_c, 0, 69, 100
2, 52944, Note_on_c, 0, 67, 127
2, 52976, Note_off_c, 0, 67, 100
2, 52992, Note_on_c, 0, 74, 127
2, 53020, Note_off_c, 0, 74, 100
2, 53088, Note_on_c, 0, 72, 127
2, 53132, Note_off_c, 0, 72, 100
2, 53136, Note_on_c, 0, 71, 127
2, 53180, Note_off_c, 0, 71, 100
2, 53184, Note_on_c, 0, 72, 127
2, 53212, Note_off_c, 0, 72, 100
2, 53280, Note_on_c, 0, 71, 127
2, 53324, Note_off_c, 0, 71, 100
2, 53328, Note_on_c, 0, 69, 127
2, 53372, Note_off_c, 0, 69, 100
2, 53376, Note_on_c, 0, 71, 127
2, 53404, Note_off_c, 0, 71, 100
2, 53472, Note_on_c, 0, 70, 127
2, 53516, Note_off_c, 0, 70, 100
2, 53520, Note_on_c, 0, 69, 127
2, 53564, Note_off_c, 0, 69, 100
2, 53568, Note_on_c, 0, 70, 127
2, 53596, Note_off_c, 0, 70, 100
2, 53664, Note_on_c, 0, 69, 127
2, 53708, Note_off_c, 0, 69, 100
2, 53712, Note_on_c, 0, 67, 127
2, 53756, Note_off_c, 0, 67, 100
2, 53760, Note_on_c, 0, 69, 127
2, 53788, Note_off_c, 0, 69, 100
2, 53856, Note_on_c, 0, 74, 127
2, 53900, Note_off_c, 0, 74, 100
2, 53904, Note_on_c, 0, 72, 127
2, 53948, Note_off_c, 0, 72, 100
2, 53952, Note_on_c, 0, 74, 127
2, 53980, Note_off_c, 0, 74, 100
2, 54048, Note_on_c, 0, 67, 127
2, 54092, Note_off_c, 0, 67, 100
2, 54096, Note_on_c, 0, 66, 127
2, 54140, Note_off_c, 0, 66, 100
2, 54144, Note_on_c, 0, 67, 127
2, 54188, Note_off_c, 0, 67, 100
2, 54192, Note_on_c, 0, 69, 127
2, 54236, Note_off_c, 0, 69, 100
2, 54240, Note_on_c, 0, 71, 127
2, 54284, Note_off_c, 0, 71, 100
2, 54288, Note_on_c, 0, 72, 127
2, 54332, Note_off_c, 0, 72, 100
2, 54336, Note_on_c, 0, 74, 127
2, 54380, Note_off_c, 0, 74, 100
2, 54384, Note_on_c, 0, 72, 127
2, 54428, Note_off_c, 0, 72, 100
2, 54432, Note_on_c, 0, 71, 127
2, 54476, Note_off_c, 0, 71, 100
2, 54480, Note_on_c, 0, 69, 127
2, 54524, Note_off_c, 0, 69, 100
2, 54528, Note_on_c, 0, 67, 127
2, 54556, Note_off_c, 0, 67, 100
2, 54624, Note_on_c, 0, 71, 127
2, 54652, Note_off_c, 0, 71, 100
2, 54720, Note_on_c, 0, 62, 127
2, 54748, Note_off_c, 0, 62, 100
2, 54816, Note_on_c, 0, 67, 127
2, 54844, Note_off_c, 0, 67, 100
2, 54912, Note_on_c, 0, 55, 127
2, 55100, Note_off_c, 0, 55, 100
2, 55296, Note_on_c, 0, 78, 127
2, 55368, Note_off_c, 0, 78, 100
2, 55392, Note_on_c, 0, 81, 127
2, 55464, Note_off_c, 0, 81, 100
2, 55488, Note_on_c, 0, 86, 127
2, 55560, Note_off_c, 0, 86, 100
2, 55584, Note_on_c, 0, 81, 127
2, 55656, Note_off_c, 0, 81, 100
2, 55680, Note_on_c, 0, 78, 127
2, 55752, Note_off_c, 0, 78, 100
2, 55776, Note_on_c, 0, 81, 127
2, 55848, Note_off_c, 0, 81, 100
2, 55872, Note_on_c, 0, 74, 127
2, 55944, Note_off_c, 0, 74, 100
2, 55968, Note_on_c, 0, 78, 127
2, 56040, Note_off_c, 0, 78, 100
2, 56064, Note_on_c, 0, 81, 127
2, 56136, Note_off_c, 0, 81, 100
2, 56160, Note_on_c, 0, 78, 127
2, 56232, Note_off_c, 0, 78, 100
2, 56256, Note_on_c, 0, 79, 127
2, 56328, Note_off_c, 0, 79, 100
2, 56352, Note_on_c, 0, 81, 127
2, 56424, Note_off_c, 0, 81, 100
2, 56448, Note_on_c, 0, 74, 127
2, 56520, Note_off_c, 0, 74, 100
2, 56544, Note_on_c, 0, 79, 127
2, 56616, Note_off_c, 0, 79, 100
2, 56640, Note_on_c, 0, 83, 127
2, 56712, Note_off_c, 0, 83, 100
2, 56736, Note_on_c, 0, 79, 127
2, 56808, Note_off_c, 0, 79, 100
2, 56832, Note_on_c, 0, 74, 127
2, 56904, Note_off_c, 0, 74, 100
2, 56928, Note_on_c, 0, 79, 127
2, 57000, Note_off_c, 0, 79, 100
2, 57024, Note_on_c, 0, 71, 127
2, 57096, Note_off_c, 0, 71, 100
2, 57120, Note_on_c, 0, 74, 127
2, 57192, Note_off_c, 0, 74, 100
2, 57216, Note_on_c, 0, 79, 127
2, 57288, Note_off_c, 0, 79, 100
2, 57312, Note_on_c, 0, 71, 127
2, 57384, Note_off_c, 0, 71, 100
2, 57408, Note_on_c, 0, 72, 127
2, 57480, Note_off_c, 0, 72, 100
2, 57504, Note_on_c, 0, 74, 127
2, 57576, Note_off_c, 0, 74, 100
2, 57600, Note_on_c, 0, 67, 127
2, 57672, Note_off_c, 0, 67, 100
2, 57696, Note_on_c, 0, 72, 127
2, 57768, Note_off_c, 0, 72, 100
2, 57792, Note_on_c, 0, 76, 127
2, 57864, Note_off_c, 0, 76, 100
2, 57888, Note_on_c, 0, 72, 127
2, 57960, Note_off_c, 0, 72, 100
2, 57984, Note_on_c, 0, 69, 127
2, 58056, Note_off_c, 0, 69, 100
2, 58080, Note_on_c, 0, 72, 127
2, 58152, Note_off_c, 0, 72, 100
2, 58176, Note_on_c, 0, 66, 127
2, 58248, Note_off_c, 0, 66, 100
2, 58272, Note_on_c, 0, 69, 127
2, 58344, Note_off_c, 0, 69, 100
2, 58368, Note_on_c, 0, 72, 127
2, 58440, Note_off_c, 0, 72, 100
2, 58464, Note_on_c, 0, 66, 127
2, 58536, Note_off_c, 0, 66, 100
2, 58560, Note_on_c, 0, 67, 127
2, 58632, Note_off_c, 0, 67, 100
2, 58656, Note_on_c, 0, 69, 127
2, 58728, Note_off_c, 0, 69, 100
2, 58752, Note_on_c, 0, 63, 127
2, 58824, Note_off_c, 0, 63, 100
2, 58848, Note_on_c, 0, 66, 127
2, 58920, Note_off_c, 0, 66, 100
2, 58944, Note_on_c, 0, 71, 127
2, 59016, Note_off_c, 0, 71, 100
2, 59040, Note_on_c, 0, 66, 127
2, 59112, Note_off_c, 0, 66, 100
2, 59136, Note_on_c, 0, 63, 127
2, 59208, Note_off_c, 0, 63, 100
2, 59232, Note_on_c, 0, 66, 127
2, 59304, Note_off_c, 0, 66, 100
2, 59328, Note_on_c, 0, 59, 127
2, 59400, Note_off_c, 0, 59, 100
2, 59424, Note_on_c, 0, 63, 127
2, 59496, Note_off_c, 0, 63, 100
2, 59520, Note_on_c, 0, 66, 127
2, 59592, Note_off_c, 0, 66, 100
2, 59616, Note_on_c, 0, 63, 127
2, 59688, Note_off_c, 0, 63, 100
2, 59712, Note_on_c, 0, 64, 127
2, 59784, Note_off_c, 0, 64, 100
2, 59808, Note_on_c, 0, 66, 127
2, 59880, Note_off_c, 0, 66, 100
2, 59904, Note_on_c, 0, 59, 127
2, 59976, Note_off_c, 0, 59, 100
2, 60000, Note_on_c, 0, 64, 127
2, 60072, Note_off_c, 0, 64, 100
2, 60096, Note_on_c, 0, 67, 127
2, 60168, Note_off_c, 0, 67, 100
2, 60192, Note_on_c, 0, 64, 127
2, 60264, Note_off_c, 0, 64, 100
2, 60288, Note_on_c, 0, 59, 127
2, 60360, Note_off_c, 0, 59, 100
2, 60384, Note_on_c, 0, 64, 127
2, 60456, Note_off_c, 0, 64, 100
2, 60480, Note_on_c, 0, 55, 127
2, 60552, Note_off_c, 0, 55, 100
2, 60576, Note_on_c, 0, 59, 127
2, 60648, Note_off_c, 0, 59, 100
2, 60672, Note_on_c, 0, 64, 127
2, 60744, Note_off_c, 0, 64, 100
2, 60768, Note_on_c, 0, 63, 127
2, 60840, Note_off_c, 0, 63, 100
2, 60864, Note_on_c, 0, 64, 127
2, 60936, Note_off_c, 0, 64, 100
2, 60960, Note_on_c, 0, 67, 127
2, 61032, Note_off_c, 0, 67, 100
2, 61056, Note_on_c, 0, 60, 127
2, 61128, Note_off_c, 0, 60, 100
2, 61152, Note_on_c, 0, 65, 127
2, 61224, Note_off_c, 0, 65, 100
2, 61248, Note_on_c, 0, 69, 127
2, 61320, Note_off_c, 0, 69, 100
2, 61344, Note_on_c, 0, 65, 127
2, 61416, Note_off_c, 0, 65, 100
2, 61440, Note_on_c, 0, 60, 127
2, 61512, Note_off_c, 0, 60, 100
2, 61536, Note_on_c, 0, 65, 127
2, 61608, Note_off_c, 0, 65, 100
2, 61632, Note_on_c, 0, 57, 127
2, 61704, Note_off_c, 0, 57, 100
2, 61728, Note_on_c, 0, 60, 127
2, 61800, Note_off_c, 0, 60, 100
2, 61824, Note_on_c, 0, 65, 127
2, 61896, Note_off_c, 0, 65, 100
2, 61920, Note_on_c, 0, 64, 127
2, 61992, Note_off_c, 0, 64, 100
2, 62016, Note_on_c, 0, 65, 127
2, 62088, Note_off_c, 0, 65, 100
2, 62112, Note_on_c, 0, 69, 127
2, 62184, Note_off_c, 0, 69, 100
2, 62208, Note_on_c, 0, 63, 127
2, 62280, Note_off_c, 0, 63, 100
2, 62304, Note_on_c, 0, 66, 127
2, 62376, Note_off_c, 0, 66, 100
2, 62400, Note_on_c, 0, 69, 127
2, 62472, Note_off_c, 0, 69, 100
2, 62496, Note_on_c, 0, 66, 127
2, 62568, Note_off_c, 0, 66, 100
2, 62592, Note_on_c, 0, 63, 127
2, 62664, Note_off_c, 0, 63, 100
2, 62688, Note_on_c, 0, 66, 127
2, 62760, Note_off_c, 0, 66, 100
2, 62784, Note_on_c, 0, 59, 127
2, 62856, Note_off_c, 0, 59, 100
2, 62880, Note_on_c, 0, 63, 127
2, 62952, Note_off_c, 0, 63, 100
2, 62976, Note_on_c, 0, 54, 127
2, 63048, Note_off_c, 0, 54, 100
2, 63072, Note_on_c, 0, 57, 127
2, 63144, Note_off_c, 0, 57, 100
2, 63168, Note_on_c, 0, 55, 127
2, 63240, Note_off_c, 0, 55, 100
2, 63264, Note_on_c, 0, 54, 127
2, 63336, Note_off_c, 0, 54, 100
2, 63360, Note_on_c, 0, 55, 127
2, 63432, Note_off_c, 0, 55, 100
2, 63456, Note_on_c, 0, 59, 127
2, 63528, Note_off_c, 0, 59, 100
2, 63552, Note_on_c, 0, 64, 127
2, 63624, Note_off_c, 0, 64, 100
2, 63648, Note_on_c, 0, 59, 127
2, 63720, Note_off_c, 0, 59, 100
2, 63744, Note_on_c, 0, 55, 127
2, 63816, Note_off_c, 0, 55, 100
2, 63840, Note_on_c, 0, 59, 127
2, 63912, Note_off_c, 0, 59, 100
2, 63936, Note_on_c, 0, 52, 127
2, 64008, Note_off_c, 0, 52, 100
2, 64032, Note_on_c, 0, 54, 127
2, 64104, Note_off_c, 0, 54, 100
2, 64128, Note_on_c, 0, 55, 127
2, 64200, Note_off_c, 0, 55, 100
2, 64224, Note_on_c, 0, 52, 127
2, 64296, Note_off_c, 0, 52, 100
2, 64320, Note_on_c, 0, 55, 127
2, 64392, Note_off_c, 0, 55, 100
2, 64416, Note_on_c, 0, 59, 127
2, 64488, Note_off_c, 0, 59, 100
2, 64512, Note_on_c, 0, 64, 127
2, 64572, Note_off_c, 0, 64, 100
2, 64800, Note_on_c, 0, 52, 127
2, 64844, Note_off_c, 0, 52, 100
2, 64848, Note_on_c, 0, 50, 127
2, 64892, Note_off_c, 0, 50, 100
2, 64896, Note_on_c, 0, 52, 127
2, 64956, Note_off_c, 0, 52, 100
2, 65184, Note_on_c, 0, 60, 127
2, 65228, Note_off_c, 0, 60, 100
2, 65232, Note_on_c, 0, 59, 127
2, 65276, Note_off_c, 0, 59, 100
2, 65280, Note_on_c, 0, 60, 127
2, 65340, Note_off_c, 0, 60, 100
2, 65568, Note_on_c, 0, 69, 127
2, 65612, Note_off_c, 0, 69, 100
2, 65616, Note_on_c, 0, 67, 127
2, 65660, Note_off_c, 0, 67, 100
2, 65664, Note_on_c, 0, 69, 127
2, 65724, Note_off_c, 0, 69, 100
2, 65952, Note_on_c, 0, 50, 127
2, 65996, Note_off_c, 0, 50, 100
2, 66000, Note_on_c, 0, 48, 127
2, 66044, Note_off_c, 0, 48, 100
2, 66048, Note_on_c, 0, 50, 127
2, 66108, Note_off_c, 0, 50, 100
2, 66336, Note_on_c, 0, 59, 127
2, 66380, Note_off_c, 0, 59, 100
2, 66384, Note_on_c, 0, 57, 127
2, 66428, Note_off_c, 0, 57, 100
2, 66432, Note_on_c, 0, 59, 127
2, 66492, Note_off_c, 0, 59, 100
2, 66720, Note_on_c, 0, 67, 127
2, 66764, Note_off_c, 0, 67, 100
2, 66768, Note_on_c, 0, 66, 127
2, 66812, Note_off_c, 0, 66, 100
2, 66816, Note_on_c, 0, 67, 127
2, 66876, Note_off_c, 0, 67, 100
2, 67104, Note_on_c, 0, 48, 127
2, 67148, Note_off_c, 0, 48, 100
2, 67152, Note_on_c, 0, 47, 127
2, 67196, Note_off_c, 0, 47, 100
2, 67200, Note_on_c, 0, 48, 127
2, 67260, Note_off_c, 0, 48, 100
2, 67488, Note_on_c, 0, 57, 127
2, 67532, Note_off_c, 0, 57, 100
2, 67536, Note_on_c, 0, 55, 127
2, 67580, Note_off_c, 0, 55, 100
2, 67584, Note_on_c, 0, 57, 127
2, 67644, Note_off_c, 0, 57, 100
2, 67872, Note_on_c, 0, 66, 127
2, 67916, Note_off_c, 0, 66, 100
2, 67920, Note_on_c, 0, 64, 127
2, 67964, Note_off_c, 0, 64, 100
2, 67968, Note_on_c, 0, 66, 127
2, 68028, Note_off_c, 0, 66, 100
2, 68256, Note_on_c, 0, 74, 127
2, 68300, Note_off_c, 0, 74, 100
2, 68304, Note_on_c, 0, 72, 127
2, 68348, Note_off_c, 0, 72, 100
2, 68352, Note_on_c, 0, 74, 127
2, 68380, Note_off_c, 0, 74, 100
2, 68640, Note_on_c, 0, 79, 127
2, 68684, Note_off_c, 0, 79, 100
2, 68688, Note_on_c, 0, 78, 127
2, 68732, Note_off_c, 0, 78, 100
2, 68736, Note_on_c, 0, 79, 127
2, 68764, Note_off_c, 0, 79, 100
2, 69024, Note_on_c, 0, 83, 127
2, 69068, Note_off_c, 0, 83, 100
2, 69072, Note_on_c, 0, 81, 127
2, 69116, Note_off_c, 0, 81, 100
2, 69120, Note_on_c, 0, 83, 127
2, 69180, Note_off_c, 0, 83, 100
2, 69504, Note_on_c, 0, 62, 127
2, 69564, Note_off_c, 0, 62, 100
2, 69888, Note_on_c, 0, 65, 127
2, 69948, Note_off_c, 0, 65, 100
2, 70320, Note_on_c, 0, 64, 127
2, 70364, Note_off_c, 0, 64, 100
2, 70368, Note_on_c, 0, 65, 127
2, 70412, Note_off_c, 0, 65, 100
2, 70416, Note_on_c, 0, 67, 127
2, 70460, Note_off_c, 0, 67, 100
2, 70464, Note_on_c, 0, 72, 127
2, 70508, Note_off_c, 0, 72, 100
2, 70512, Note_on_c, 0, 67, 127
2, 70556, Note_off_c, 0, 67, 100
2, 70560, Note_on_c, 0, 65, 127
2, 70604, Note_off_c, 0, 65, 100
2, 70608, Note_on_c, 0, 64, 127
2, 70640, Note_off_c, 0, 64, 100
2, 70704, Note_on_c, 0, 66, 127
2, 70748, Note_off_c, 0, 66, 100
2, 70752, Note_on_c, 0, 67, 127
2, 70796, Note_off_c, 0, 67, 100
2, 70800, Note_on_c, 0, 69, 127
2, 70844, Note_off_c, 0, 69, 100
2, 70848, Note_on_c, 0, 72, 127
2, 70892, Note_off_c, 0, 72, 100
2, 70896, Note_on_c, 0, 69, 127
2, 70940, Note_off_c, 0, 69, 100
2, 70944, Note_on_c, 0, 67, 127
2, 70988, Note_off_c, 0, 67, 100
2, 70992, Note_on_c, 0, 66, 127
2, 71024, Note_off_c, 0, 66, 100
2, 71088, Note_on_c, 0, 67, 127
2, 71132, Note_off_c, 0, 67, 100
2, 71136, Note_on_c, 0, 69, 127
2, 71180, Note_off_c, 0, 69, 100
2, 71184, Note_on_c, 0, 70, 127
2, 71228, Note_off_c, 0, 70, 100
2, 71232, Note_on_c, 0, 73, 127
2, 71276, Note_off_c, 0, 73, 100
2, 71280, Note_on_c, 0, 70, 127
2, 71324, Note_off_c, 0, 70, 100
2, 71328, Note_on_c, 0, 69, 127
2, 71372, Note_off_c, 0, 69, 100
2, 71376, Note_on_c, 0, 67, 127
2, 71408, Note_off_c, 0, 67, 100
2, 71424, Note_on_c, 0, 74, 127
2, 71452, Note_off_c, 0, 74, 100
2, 71520, Note_on_c, 0, 72, 127
2, 71564, Note_off_c, 0, 72, 100
2, 71568, Note_on_c, 0, 71, 127
2, 71612, Note_off_c, 0, 71, 100
2, 71616, Note_on_c, 0, 72, 127
2, 71644, Note_off_c, 0, 72, 100
2, 71712, Note_on_c, 0, 71, 127
2, 71756, Note_off_c, 0, 71, 100
2, 71760, Note_on_c, 0, 69, 127
2, 71804, Note_off_c, 0, 69, 100
2, 71808, Note_on_c, 0, 71, 127
2, 71836, Note_off_c, 0, 71, 100
2, 71904, Note_on_c, 0, 70, 127
2, 71948, Note_off_c, 0, 70, 100
2, 71952, Note_on_c, 0, 69, 127
2, 71996, Note_off_c, 0, 69, 100
2, 72000, Note_on_c, 0, 70, 127
2, 72028, Note_off_c, 0, 70, 100
2, 72096, Note_on_c, 0, 69, 127
2, 72140, Note_off_c, 0, 69, 100
2, 72144, Note_on_c, 0, 67, 127
2, 72188, Note_off_c, 0, 67, 100
2, 72192, Note_on_c, 0, 69, 127
2, 72220, Note_off_c, 0, 69, 100
2, 72288, Note_on_c, 0, 74, 127
2, 72332, Note_off_c, 0, 74, 100
2, 72336, Note_on_c, 0, 72, 127
2, 72380, Note_off_c, 0, 72, 100
2, 72384, Note_on_c, 0, 74, 127
2, 72412, Note_off_c, 0, 74, 100
2, 72480, Note_on_c, 0, 67, 127
2, 72524, Note_off_c, 0, 67, 100
2, 72528, Note_on_c, 0, 66, 127
2, 72572, Note_off_c, 0, 66, 100
2, 72576, Note_on_c, 0, 67, 127
2, 72620, Note_off_c, 0, 67, 100
2, 72624, Note_on_c, 0, 69, 127
2, 72668, Note_off_c, 0, 69, 100
2, 72672, Note_on_c, 0, 71, 127
2, 72716, Note_off_c, 0, 71, 100
2, 72720, Note_on_c, 0, 72, 127
2, 72764, Note_off_c, 0, 72, 100
2, 72768, Note_on_c, 0, 74, 127
2, 72812, Note_off_c, 0, 74, 100
2, 72816, Note_on_c, 0, 72, 127
2, 72860, Note_off_c, 0, 72, 100
2, 72864, Note_on_c, 0, 71, 127
2, 72908, Note_off_c, 0, 71, 100
2, 72912, Note_on_c, 0, 69, 127
2, 72956, Note_off_c, 0, 69, 100
2, 72960, Note_on_c, 0, 67, 127
2, 72988, Note_off_c, 0, 67, 100
2, 73056, Note_on_c, 0, 71, 127
2, 73084, Note_off_c, 0, 71, 100
2, 73152, Note_on_c, 0, 62, 127
2, 73180, Note_off_c, 0, 62, 100
2, 73248, Note_on_c, 0, 67, 127
2, 73276, Note_off_c, 0, 67, 100
2, 73344, Note_on_c, 0, 55, 127
2, 73532, Note_off_c, 0, 55, 100
2, 73532, End_track
3, 0, Start_track
3, 0, Title_t, "Goldberg Variations"
3, 0, Control_c, 1, 0, 0
3, 0, Program_c, 1, 6
3, 0, Control_c, 1, 7, 127
3, 0, Control_c, 1, 10, 127
3, 0, Control_c, 1, 91, 127
3, 0, Key_signature, 1, "major"
3, 0, Note_on_c, 1, 59, 127
3, 72, Note_off_c, 1, 59, 100
3, 96, Note_on_c, 1, 55, 127
3, 168, Note_off_c, 1, 55, 100
3, 192, Note_on_c, 1, 50, 127
3, 264, Note_off_c, 1, 50, 100
3, 288, Note_on_c, 1, 55, 127
3, 360, Note_off_c, 1, 55, 100
3, 384, Note_on_c, 1, 59, 127
3, 456, Note_off_c, 1, 59, 100
3, 480, Note_on_c, 1, 55, 127
3, 552, Note_off_c, 1, 55, 100
3, 576, Note_on_c, 1, 62, 127
3, 648, Note_off_c, 1, 62, 100
3, 672, Note_on_c, 1, 59, 127
3, 744, Note_off_c, 1, 59, 100
3, 768, Note_on_c, 1, 55, 127
3, 840, Note_off_c, 1, 55, 100
3, 864, Note_on_c, 1, 59, 127
3, 936, Note_off_c, 1, 59, 100
3, 960, Note_on_c, 1, 57, 127
3, 1032, Note_off_c, 1, 57, 100
3, 1056, Note_on_c, 1, 55, 127
3, 1128, Note_off_c, 1, 55, 100
3, 1152, Note_on_c, 1, 62, 127
3, 1224, Note_off_c, 1, 62, 100
3, 1248, Note_on_c, 1, 57, 127
3, 1320, Note_off_c, 1, 57, 100
3, 1344, Note_on_c, 1, 54, 127
3, 1416, Note_off_c, 1, 54, 100
3, 1440, Note_on_c, 1, 57, 127
3, 1512, Note_off_c, 1, 57, 100
3, 1536, Note_on_c, 1, 62, 127
3, 1608, Note_off_c, 1, 62, 100
3, 1632, Note_on_c, 1, 57, 127
3, 1704, Note_off_c, 1, 57, 100
3, 1728, Note_on_c, 1, 69, 127
3, 1800, Note_off_c, 1, 69, 100
3, 1824, Note_on_c, 1, 66, 127
3, 1896, Note_off_c, 1, 66, 100
3, 1920, Note_on_c, 1, 62, 127
3, 1992, Note_off_c, 1, 62, 100
3, 2016, Note_on_c, 1, 66, 127
3, 2088, Note_off_c, 1, 66, 100
3, 2112, Note_on_c, 1, 64, 127
3, 2184, Note_off_c, 1, 64, 100
3, 2208, Note_on_c, 1, 62, 127
3, 2280, Note_off_c, 1, 62, 100
3, 2304, Note_on_c, 1, 67, 127
3, 2376, Note_off_c, 1, 67, 100
3, 2400, Note_on_c, 1, 64, 127
3, 2472, Note_off_c, 1, 64, 100
3, 2496, Note_on_c, 1, 59, 127
3, 2568, Note_off_c, 1, 59, 100
3, 2592, Note_on_c, 1, 64, 127
3, 2664, Note_off_c, 1, 64, 100
3, 2688, Note_on_c, 1, 67, 127
3, 2760, Note_off_c, 1, 67, 100
3, 2784, Note_on_c, 1, 64, 127
3, 2856, Note_off_c, 1, 64, 100
3, 2880, Note_on_c, 1, 71, 127
3, 2952, Note_off_c, 1, 71, 100
3, 2976, Note_on_c, 1, 67, 127
3, 3048, Note_off_c, 1, 67, 100
3, 3072, Note_on_c, 1, 64, 127
3, 3144, Note_off_c, 1, 64, 100
3, 3168, Note_on_c, 1, 71, 127
3, 3240, Note_off_c, 1, 71, 100
3, 3264, Note_on_c, 1, 69, 127
3, 3336, Note_off_c, 1, 69, 100
3, 3360, Note_on_c, 1, 67, 127
3, 3432, Note_off_c, 1, 67, 100
3, 3456, Note_on_c, 1, 74, 127
3, 3528, Note_off_c, 1, 74, 100
3, 3552, Note_on_c, 1, 69, 127
3, 3624, Note_off_c, 1, 69, 100
3, 3648, Note_on_c, 1, 66, 127
3, 3720, Note_off_c, 1, 66, 100
3, 3744, Note_on_c, 1, 69, 127
3, 3816, Note_off_c, 1, 69, 100
3, 3840, Note_on_c, 1, 74, 127
3, 3912, Note_off_c, 1, 74, 100
3, 3936, Note_on_c, 1, 69, 127
3, 4008, Note_off_c, 1, 69, 100
3, 4032, Note_on_c, 1, 81, 127
3, 4104, Note_off_c, 1, 81, 100
3, 4128, Note_on_c, 1, 78, 127
3, 4200, Note_off_c, 1, 78, 100
3, 4224, Note_on_c, 1, 74, 127
3, 4296, Note_off_c, 1, 74, 100
3, 4320, Note_on_c, 1, 78, 127
3, 4392, Note_off_c, 1, 78, 100
3, 4416, Note_on_c, 1, 76, 127
3, 4488, Note_off_c, 1, 76, 100
3, 4512, Note_on_c, 1, 74, 127
3, 4576, Note_off_c, 1, 74, 100
3, 4608, Note_on_c, 1, 79, 127
3, 4680, Note_off_c, 1, 79, 100
3, 4704, Note_on_c, 1, 74, 127
3, 4776, Note_off_c, 1, 74, 100
3, 4800, Note_on_c, 1, 71, 127
3, 4872, Note_off_c, 1, 71, 100
3, 4896, Note_on_c, 1, 74, 127
3, 4968, Note_off_c, 1, 74, 100
3, 4992, Note_on_c, 1, 79, 127
3, 5064, Note_off_c, 1, 79, 100
3, 5088, Note_on_c, 1, 74, 127
3, 5160, Note_off_c, 1, 74, 100
3, 5184, Note_on_c, 1, 83, 127
3, 5256, Note_off_c, 1, 83, 100
3, 5280, Note_on_c, 1, 79, 127
3, 5352, Note_off_c, 1, 79, 100
3, 5376, Note_on_c, 1, 74, 127
3, 5448, Note_off_c, 1, 74, 100
3, 5472, Note_on_c, 1, 77, 127
3, 5544, Note_off_c, 1, 77, 100
3, 5568, Note_on_c, 1, 76, 127
3, 5640, Note_off_c, 1, 76, 100
3, 5664, Note_on_c, 1, 74, 127
3, 5736, Note_off_c, 1, 74, 100
3, 5760, Note_on_c, 1, 76, 127
3, 5832, Note_off_c, 1, 76, 100
3, 5856, Note_on_c, 1, 72, 127
3, 5928, Note_off_c, 1, 72, 100
3, 5952, Note_on_c, 1, 67, 127
3, 6024, Note_off_c, 1, 67, 100
3, 6048, Note_on_c, 1, 72, 127
3, 6120, Note_off_c, 1, 72, 100
3, 6144, Note_on_c, 1, 76, 127
3, 6216, Note_off_c, 1, 76, 100
3, 6240, Note_on_c, 1, 72, 127
3, 6312, Note_off_c, 1, 72, 100
3, 6336, Note_on_c, 1, 79, 127
3, 6408, Note_off_c, 1, 79, 100
3, 6432, Note_on_c, 1, 76, 127
3, 6504, Note_off_c, 1, 76, 100
3, 6528, Note_on_c, 1, 72, 127
3, 6600, Note_off_c, 1, 72, 100
3, 6624, Note_on_c, 1, 74, 127
3, 6696, Note_off_c, 1, 74, 100
3, 6720, Note_on_c, 1, 72, 127
3, 6792, Note_off_c, 1, 72, 100
3, 6816, Note_on_c, 1, 71, 127
3, 6888, Note_off_c, 1, 71, 100
3, 6912, Note_on_c, 1, 69, 127
3, 6984, Note_off_c, 1, 69, 100
3, 7008, Note_on_c, 1, 66, 127
3, 7080, Note_off_c, 1, 66, 100
3, 7104, Note_on_c, 1, 62, 127
3, 7176, Note_off_c, 1, 62, 100
3, 7200, Note_on_c, 1, 66, 127
3, 7272, Note_off_c, 1, 66, 100
3, 7296, Note_on_c, 1, 69, 127
3, 7368, Note_off_c, 1, 69, 100
3, 7392, Note_on_c, 1, 66, 127
3, 7464, Note_off_c, 1, 66, 100
3, 7488, Note_on_c, 1, 74, 127
3, 7560, Note_off_c, 1, 74, 100
3, 7584, Note_on_c, 1, 69, 127
3, 7656, Note_off_c, 1, 69, 100
3, 7680, Note_on_c, 1, 66, 127
3, 7752, Note_off_c, 1, 66, 100
3, 7776, Note_on_c, 1, 69, 127
3, 7848, Note_off_c, 1, 69, 100
3, 7872, Note_on_c, 1, 67, 127
3, 7944, Note_off_c, 1, 67, 100
3, 7968, Note_on_c, 1, 66, 127
3, 8040, Note_off_c, 1, 66, 100
3, 8064, Note_on_c, 1, 67, 127
3, 8136, Note_off_c, 1, 67, 100
3, 8160, Note_on_c, 1, 62, 127
3, 8232, Note_off_c, 1, 62, 100
3, 8256, Note_on_c, 1, 59, 127
3, 8328, Note_off_c, 1, 59, 100
3, 8352, Note_on_c, 1, 62, 127
3, 8424, Note_off_c, 1, 62, 100
3, 8448, Note_on_c, 1, 67, 127
3, 8520, Note_off_c, 1, 67, 100
3, 8544, Note_on_c, 1, 62, 127
3, 8616, Note_off_c, 1, 62, 100
3, 8640, Note_on_c, 1, 71, 127
3, 8712, Note_off_c, 1, 71, 100
3, 8736, Note_on_c, 1, 67, 127
3, 8808, Note_off_c, 1, 67, 100
3, 8832, Note_on_c, 1, 74, 127
3, 8904, Note_off_c, 1, 74, 100
3, 8928, Note_on_c, 1, 72, 127
3, 9000, Note_off_c, 1, 72, 100
3, 9024, Note_on_c, 1, 71, 127
3, 9096, Note_off_c, 1, 71, 100
3, 9120, Note_on_c, 1, 69, 127
3, 9192, Note_off_c, 1, 69, 100
3, 9216, Note_on_c, 1, 67, 127
3, 9276, Note_off_c, 1, 67, 100
3, 9504, Note_on_c, 1, 79, 127
3, 9548, Note_off_c, 1, 79, 100
3, 9552, Note_on_c, 1, 78, 127
3, 9596, Note_off_c, 1, 78, 100
3, 9600, Note_on_c, 1, 79, 127
3, 9628, Note_off_c, 1, 79, 100
3, 9888, Note_on_c, 1, 73, 127
3, 9932, Note_off_c, 1, 73, 100
3, 9936, Note_on_c, 1, 71, 127
3, 9980, Note_off_c, 1, 71, 100
3, 9984, Note_on_c, 1, 73, 127
3, 10012, Note_off_c, 1, 73, 100
3, 10272, Note_on_c, 1, 66, 127
3, 10316, Note_off_c, 1, 66, 100
3, 10320, Note_on_c, 1, 64, 127
3, 10364, Note_off_c, 1, 64, 100
3, 10368, Note_on_c, 1, 66, 127
3, 10396, Note_off_c, 1, 66, 100
3, 10656, Note_on_c, 1, 78, 127
3, 10700, Note_off_c, 1, 78, 100
3, 10704, Note_on_c, 1, 76, 127
3, 10748, Note_off_c, 1, 76, 100
3, 10752, Note_on_c, 1, 78, 127
3, 10780, Note_off_c, 1, 78, 100
3, 11040, Note_on_c, 1, 71, 127
3, 11084, Note_off_c, 1, 71, 100
3, 11088, Note_on_c, 1, 69, 127
3, 11132, Note_off_c, 1, 69, 100
3, 11136, Note_on_c, 1, 71, 127
3, 11164, Note_off_c, 1, 71, 100
3, 11424, Note_on_c, 1, 64, 127
3, 11468, Note_off_c, 1, 64, 100
3, 11472, Note_on_c, 1, 62, 127
3, 11516, Note_off_c, 1, 62, 100
3, 11520, Note_on_c, 1, 64, 127
3, 11548, Note_off_c, 1, 64, 100
3, 11808, Note_on_c, 1, 76, 127
3, 11852, Note_off_c, 1, 76, 100
3, 11856, Note_on_c, 1, 74, 127
3, 11900, Note_off_c, 1, 74, 100
3, 11904, Note_on_c, 1, 76, 127
3, 11932, Note_off_c, 1, 76, 100
3, 12192, Note_on_c, 1, 67, 127
3, 12236, Note_off_c, 1, 67, 100
3, 12240, Note_on_c, 1, 66, 127
3, 12284, Note_off_c, 1, 66, 100
3, 12288, Note_on_c, 1, 67, 127
3, 12316, Note_off_c, 1, 67, 100
3, 12576, Note_on_c, 1, 61, 127
3, 12620, Note_off_c, 1, 61, 100
3, 12624, Note_on_c, 1, 59, 127
3, 12668, Note_off_c, 1, 59, 100
3, 12672, Note_on_c, 1, 61, 127
3, 12700, Note_off_c, 1, 61, 100
3, 12960, Note_on_c, 1, 52, 127
3, 13004, Note_off_c, 1, 52, 100
3, 13008, Note_on_c, 1, 50, 127
3, 13052, Note_off_c, 1, 50, 100
3, 13056, Note_on_c, 1, 52, 127
3, 13084, Note_off_c, 1, 52, 100
3, 13344, Note_on_c, 1, 45, 127
3, 13388, Note_off_c, 1, 45, 100
3, 13392, Note_on_c, 1, 43, 127
3, 13436, Note_off_c, 1, 43, 100
3, 13440, Note_on_c, 1, 45, 127
3, 13468, Note_off_c, 1, 45, 100
3, 13728, Note_on_c, 1, 42, 127
3, 13772, Note_off_c, 1, 42, 100
3, 13776, Note_on_c, 1, 40, 127
3, 13820, Note_off_c, 1, 40, 100
3, 13824, Note_on_c, 1, 42, 127
3, 13852, Note_off_c, 1, 42, 100
3, 14208, Note_on_c, 1, 74, 127
3, 14268, Note_off_c, 1, 74, 100
3, 14592, Note_on_c, 1, 72, 127
3, 14652, Note_off_c, 1, 72, 100
3, 15024, Note_on_c, 1, 55, 127
3, 15068, Note_off_c, 1, 55, 100
3, 15072, Note_on_c, 1, 57, 127
3, 15116, Note_off_c, 1, 57, 100
3, 15120, Note_on_c, 1, 59, 127
3, 15164, Note_off_c, 1, 59, 100
3, 15168, Note_on_c, 1, 62, 127
3, 15212, Note_off_c, 1, 62, 100
3, 15216, Note_on_c, 1, 59, 127
3, 15260, Note_off_c, 1, 59, 100
3, 15264, Note_on_c, 1, 57, 127
3, 15308, Note_off_c, 1, 57, 100
3, 15312, Note_on_c, 1, 55, 127
3, 15344, Note_off_c, 1, 55, 100
3, 15408, Note_on_c, 1, 55, 127
3, 15452, Note_off_c, 1, 55, 100
3, 15456, Note_on_c, 1, 57, 127
3, 15500, Note_off_c, 1, 57, 100
3, 15504, Note_on_c, 1, 58, 127
3, 15548, Note_off_c, 1, 58, 100
3, 15552, Note_on_c, 1, 62, 127
3, 15596, Note_off_c, 1, 62, 100
3, 15600, Note_on_c, 1, 58, 127
3, 15644, Note_off_c, 1, 58, 100
3, 15648, Note_on_c, 1, 57, 127
3, 15692, Note_off_c, 1, 57, 100
3, 15696, Note_on_c, 1, 55, 127
3, 15728, Note_off_c, 1, 55, 100
3, 15792, Note_on_c, 1, 56, 127
3, 15836, Note_off_c, 1, 56, 100
3, 15840, Note_on_c, 1, 57, 127
3, 15884, Note_off_c, 1, 57, 100
3, 15888, Note_on_c, 1, 59, 127
3, 15932, Note_off_c, 1, 59, 100
3, 15936, Note_on_c, 1, 62, 127
3, 15980, Note_off_c, 1, 62, 100
3, 15984, Note_on_c, 1, 59, 127
3, 16028, Note_off_c, 1, 59, 100
3, 16032, Note_on_c, 1, 57, 127
3, 16076, Note_off_c, 1, 57, 100
3, 16080, Note_on_c, 1, 56, 127
3, 16112, Note_off_c, 1, 56, 100
3, 16128, Note_on_c, 1, 57, 127
3, 16156, Note_off_c, 1, 57, 100
3, 16224, Note_on_c, 1, 61, 127
3, 16268, Note_off_c, 1, 61, 100
3, 16272, Note_on_c, 1, 59, 127
3, 16316, Note_off_c, 1, 59, 100
3, 16320, Note_on_c, 1, 61, 127
3, 16348, Note_off_c, 1, 61, 100
3, 16416, Note_on_c, 1, 54, 127
3, 16460, Note_off_c, 1, 54, 100
3, 16464, Note_on_c, 1, 52, 127
3, 16508, Note_off_c, 1, 52, 100
3, 16512, Note_on_c, 1, 54, 127
3, 16540, Note_off_c, 1, 54, 100
3, 16608, Note_on_c, 1, 59, 127
3, 16652, Note_off_c, 1, 59, 100
3, 16656, Note_on_c, 1, 57, 127
3, 16700, Note_off_c, 1, 57, 100
3, 16704, Note_on_c, 1, 59, 127
3, 16732, Note_off_c, 1, 59, 100
3, 16800, Note_on_c, 1, 52, 127
3, 16844, Note_off_c, 1, 52, 100
3, 16848, Note_on_c, 1, 50, 127
3, 16892, Note_off_c, 1, 50, 100
3, 16896, Note_on_c, 1, 52, 127
3, 16924, Note_off_c, 1, 52, 100
3, 16992, Note_on_c, 1, 57, 127
3, 17036, Note_off_c, 1, 57, 100
3, 17040, Note_on_c, 1, 55, 127
3, 17084, Note_off_c, 1, 55, 100
3, 17088, Note_on_c, 1, 57, 127
3, 17116, Note_off_c, 1, 57, 100
3, 17184, Note_on_c, 1, 50, 127
3, 17228, Note_off_c, 1, 50, 100
3, 17232, Note_on_c, 1, 48, 127
3, 17276, Note_off_c, 1, 48, 100
3, 17280, Note_on_c, 1, 50, 127
3, 17324, Note_off_c, 1, 50, 100
3, 17328, Note_on_c, 1, 52, 127
3, 17372, Note_off_c, 1, 52, 100
3, 17376, Note_on_c, 1, 54, 127
3, 17420, Note_off_c, 1, 54, 100
3, 17424, Note_on_c, 1, 55, 127
3, 17468, Note_off_c, 1, 55, 100
3, 17472, Note_on_c, 1, 57, 127
3, 17516, Note_off_c, 1, 57, 100
3, 17520, Note_on_c, 1, 55, 127
3, 17564, Note_off_c, 1, 55, 100
3, 17568, Note_on_c, 1, 54, 127
3, 17612, Note_off_c, 1, 54, 100
3, 17616, Note_on_c, 1, 52, 127
3, 17660, Note_off_c, 1, 52, 100
3, 17664, Note_on_c, 1, 50, 127
3, 17692, Note_off_c, 1, 50, 100
3, 17760, Note_on_c, 1, 54, 127
3, 17788, Note_off_c, 1, 54, 100
3, 17856, Note_on_c, 1, 45, 127
3, 17884, Note_off_c, 1, 45, 100
3, 17952, Note_on_c, 1, 50, 127
3, 17980, Note_off_c, 1, 50, 100
3, 18048, Note_on_c, 1, 38, 127
3, 18236, Note_off_c, 1, 38, 100
3, 18432, Note_on_c, 1, 59, 127
3, 18504, Note_off_c, 1, 59, 100
3, 18528, Note_on_c, 1, 55, 127
3, 18600, Note_off_c, 1, 55, 100
3, 18624, Note_on_c, 1, 50, 127
3, 18696, Note_off_c, 1, 50, 100
3, 18720, Note_on_c, 1, 55, 127
3, 18792, Note_off_c, 1, 55, 100
3, 18816, Note_on_c, 1, 59, 127
3, 18888, Note_off_c, 1, 59, 100
3, 18912, Note_on_c, 1, 55, 127
3, 18984, Note_off_c, 1, 55, 100
3, 19008, Note_on_c, 1, 62, 127
3, 19080, Note_off_c, 1, 62, 100
3, 19104, Note_on_c, 1, 59, 127
3, 19176, Note_off_c, 1, 59, 100
3, 19200, Note_on_c, 1, 55, 127
3, 19272, Note_off_c, 1, 55, 100
3, 19296, Note_on_c, 1, 59, 127
3, 19368, Note_off_c, 1, 59, 100
3, 19392, Note_on_c, 1, 57, 127
3, 19464, Note_off_c, 1, 57, 100
3, 19488, Note_on_c, 1, 55, 127
3, 19560, Note_off_c, 1, 55, 100
3, 19584, Note_on_c, 1, 62, 127
3, 19656, Note_off_c, 1, 62, 100
3, 19680, Note_on_c, 1, 57, 127
3, 19752, Note_off_c, 1, 57, 100
3, 19776, Note_on_c, 1, 54, 127
3, 19848, Note_off_c, 1, 54, 100
3, 19872, Note_on_c, 1, 57, 127
3, 19944, Note_off_c, 1, 57, 100
3, 19968, Note_on_c, 1, 62, 127
3, 20040, Note_off_c, 1, 62, 100
3, 20064, Note_on_c, 1, 57, 127
3, 20136, Note_off_c, 1, 57, 100
3, 20160, Note_on_c, 1, 69, 127
3, 20232, Note_off_c, 1, 69, 100
3, 20256, Note_on_c, 1, 66, 127
3, 20328, Note_off_c, 1, 66, 100
3, 20352, Note_on_c, 1, 62, 127
3, 20424, Note_off_c, 1, 62, 100
3, 20448, Note_on_c, 1, 66, 127
3, 20520, Note_off_c, 1, 66, 100
3, 20544, Note_on_c, 1, 64, 127
3, 20616, Note_off_c, 1, 64, 100
3, 20640, Note_on_c, 1, 62, 127
3, 20712, Note_off_c, 1, 62, 100
3, 20736, Note_on_c, 1, 67, 127
3, 20808, Note_off_c, 1, 67, 100
3, 20832, Note_on_c, 1, 64, 127
3, 20904, Note_off_c, 1, 64, 100
3, 20928, Note_on_c, 1, 59, 127
3, 21000, Note_off_c, 1, 59, 100
3, 21024, Note_on_c, 1, 64, 127
3, 21096, Note_off_c, 1, 64, 100
3, 21120, Note_on_c, 1, 67, 127
3, 21192, Note_off_c, 1, 67, 100
3, 21216, Note_on_c, 1, 64, 127
3, 21288, Note_off_c, 1, 64, 100
3, 21312, Note_on_c, 1, 71, 127
3, 21384, Note_off_c, 1, 71, 100
3, 21408, Note_on_c, 1, 67, 127
3, 21480, Note_off_c, 1, 67, 100
3, 21504, Note_on_c, 1, 64, 127
3, 21576, Note_off_c, 1, 64, 100
3, 21600, Note_on_c, 1, 71, 127
3, 21672, Note_off_c, 1, 71, 100
3, 21696, Note_on_c, 1, 69, 127
3, 21768, Note_off_c, 1, 69, 100
3, 21792, Note_on_c, 1, 67, 127
3, 21864, Note_off_c, 1, 67, 100
3, 21888, Note_on_c, 1, 74, 127
3, 21960, Note_off_c, 1, 74, 100
3, 21984, Note_on_c, 1, 69, 127
3, 22056, Note_off_c, 1, 69, 100
3, 22080, Note_on_c, 1, 66, 127
3, 22152, Note_off_c, 1, 66, 100
3, 22176, Note_on_c, 1, 69, 127
3, 22248, Note_off_c, 1, 69, 100
3, 22272, Note_on_c, 1, 74, 127
3, 22344, Note_off_c, 1, 74, 100
3, 22368, Note_on_c, 1, 69, 127
3, 22440, Note_off_c, 1, 69, 100
3, 22464, Note_on_c, 1, 81, 127
3, 22536, Note_off_c, 1, 81, 100
3, 22560, Note_on_c, 1, 78, 127
3, 22632, Note_off_c, 1, 78, 100
3, 22656, Note_on_c, 1, 74, 127
3, 22728, Note_off_c, 1, 74, 100
3, 22752, Note_on_c, 1, 78, 127
3, 22824, Note_off_c, 1, 78, 100
3, 22848, Note_on_c, 1, 76, 127
3, 22920, Note_off_c, 1, 76, 100
3, 22944, Note_on_c, 1, 74, 127
3, 23008, Note_off_c, 1, 74, 100
3, 23040, Note_on_c, 1, 79, 127
3, 23112, Note_off_c, 1, 79, 100
3, 23136, Note_on_c, 1, 74, 127
3, 23208, Note_off_c, 1, 74, 100
3, 23232, Note_on_c, 1, 71, 127
3, 23304, Note_off_c, 1, 71, 100
3, 23328, Note_on_c, 1, 74, 127
3, 23400, Note_off_c, 1, 74, 100
3, 23424, Note_on_c, 1, 79, 127
3, 23496, Note_off_c, 1, 79, 100
3, 23520, Note_on_c, 1, 74, 127
3, 23592, Note_off_c, 1, 74, 100
3, 23616, Note_on_c, 1, 83, 127
3, 23688, Note_off_c, 1, 83, 100
3, 23712, Note_on_c, 1, 79, 127
3, 23784, Note_off_c, 1, 79, 100
3, 23808, Note_on_c, 1, 74, 127
3, 23880, Note_off_c, 1, 74, 100
3, 23904, Note_on_c, 1, 77, 127
3, 23976, Note_off_c, 1, 77, 100
3, 24000, Note_on_c, 1, 76, 127
3, 24072, Note_off_c, 1, 76, 100
3, 24096, Note_on_c, 1, 74, 127
3, 24168, Note_off_c, 1, 74, 100
3, 24192, Note_on_c, 1, 76, 127
3, 24264, Note_off_c, 1, 76, 100
3, 24288, Note_on_c, 1, 72, 127
3, 24360, Note_off_c, 1, 72, 100
3, 24384, Note_on_c, 1, 67, 127
3, 24456, Note_off_c, 1, 67, 100
3, 24480, Note_on_c, 1, 72, 127
3, 24552, Note_off_c, 1, 72, 100
3, 24576, Note_on_c, 1, 76, 127
3, 24648, Note_off_c, 1, 76, 100
3, 24672, Note_on_c, 1, 72, 127
3, 24744, Note_off_c, 1, 72, 100
3, 24768, Note_on_c, 1, 79, 127
3, 24840, Note_off_c, 1, 79, 100
3, 24864, Note_on_c, 1, 76, 127
3, 24936, Note_off_c, 1, 76, 100
3, 24960, Note_on_c, 1, 72, 127
3, 25032, Note_off_c, 1, 72, 100
3, 25056, Note_on_c, 1, 74, 127
3, 25128, Note_off_c, 1, 74, 100
3, 25152, Note_on_c, 1, 72, 127
3, 25224, Note_off_c, 1, 72, 100
3, 25248, Note_on_c, 1, 71, 127
3, 25320, Note_off_c, 1, 71, 100
3, 25344, Note_on_c, 1, 69, 127
3, 25416, Note_off_c, 1, 69, 100
3, 25440, Note_on_c, 1, 66, 127
3, 25512, Note_off_c, 1, 66, 100
3, 25536, Note_on_c, 1, 62, 127
3, 25608, Note_off_c, 1, 62, 100
3, 25632, Note_on_c, 1, 66, 127
3, 25704, Note_off_c, 1, 66, 100
3, 25728, Note_on_c, 1, 69, 127
3, 25800, Note_off_c, 1, 69, 100
3, 25824, Note_on_c, 1, 66, 127
3, 25896, Note_off_c, 1, 66, 100
3, 25920, Note_on_c, 1, 74, 127
3, 25992, Note_off_c, 1, 74, 100
3, 26016, Note_on_c, 1, 69, 127
3, 26088, Note_off_c, 1, 69, 100
3, 26112, Note_on_c, 1, 66, 127
3, 26184, Note_off_c, 1, 66, 100
3, 26208, Note_on_c, 1, 69, 127
3, 26280, Note_off_c, 1, 69, 100
3, 26304, Note_on_c, 1, 67, 127
3, 26376, Note_off_c, 1, 67, 100
3, 26400, Note_on_c, 1, 66, 127
3, 26472, Note_off_c, 1, 66, 100
3, 26496, Note_on_c, 1, 67, 127
3, 26568, Note_off_c, 1, 67, 100
3, 26592, Note_on_c, 1, 62, 127
3, 26664, Note_off_c, 1, 62, 100
3, 26688, Note_on_c, 1, 59, 127
3, 26760, Note_off_c, 1, 59, 100
3, 26784, Note_on_c, 1, 62, 127
3, 26856, Note_off_c, 1, 62, 100
3, 26880, Note_on_c, 1, 67, 127
3, 26952, Note_off_c, 1, 67, 100
3, 26976, Note_on_c, 1, 62, 127
3, 27048, Note_off_c, 1, 62, 100
3, 27072, Note_on_c, 1, 71, 127
3, 27144, Note_off_c, 1, 71, 100
3, 27168, Note_on_c, 1, 67, 127
3, 27240, Note_off_c, 1, 67, 100
3, 27264, Note_on_c, 1, 74, 127
3, 27336, Note_off_c, 1, 74, 100
3, 27360, Note_on_c, 1, 72, 127
3, 27432, Note_off_c, 1, 72, 100
3, 27456, Note_on_c, 1, 71, 127
3, 27528, Note_off_c, 1, 71, 100
3, 27552, Note_on_c, 1, 69, 127
3, 27624, Note_off_c, 1, 69, 100
3, 27648, Note_on_c, 1, 67, 127
3, 27708, Note_off_c, 1, 67, 100
3, 27936, Note_on_c, 1, 79, 127
3, 27980, Note_off_c, 1, 79, 100
3, 27984, Note_on_c, 1, 78, 127
3, 28028, Note_off_c, 1, 78, 100
3, 28032, Note_on_c, 1, 79, 127
3, 28060, Note_off_c, 1, 79, 100
3, 28320, Note_on_c, 1, 73, 127
3, 28364, Note_off_c, 1, 73, 100
3, 28368, Note_on_c, 1, 71, 127
3, 28412, Note_off_c, 1, 71, 100
3, 28416, Note_on_c, 1, 73, 127
3, 28444, Note_off_c, 1, 73, 100
3, 28704, Note_on_c, 1, 66, 127
3, 28748, Note_off_c, 1, 66, 100
3, 28752, Note_on_c, 1, 64, 127
3, 28796, Note_off_c, 1, 64, 100
3, 28800, Note_on_c, 1, 66, 127
3, 28828, Note_off_c, 1, 66, 100
3, 29088, Note_on_c, 1, 78, 127
3, 29132, Note_off_c, 1, 78, 100
3, 29136, Note_on_c, 1, 76, 127
3, 29180, Note_off_c, 1, 76, 100
3, 29184, Note_on_c, 1, 78, 127
3, 29212, Note_off_c, 1, 78, 100
3, 29472, Note_on_c, 1, 71, 127
3, 29516, Note_off_c, 1, 71, 100
3, 29520, Note_on_c, 1, 69, 127
3, 29564, Note_off_c, 1, 69, 100
3, 29568, Note_on_c, 1, 71, 127
3, 29596, Note_off_c, 1, 71, 100
3, 29856, Note_on_c, 1, 64, 127
3, 29900, Note_off_c, 1, 64, 100
3, 29904, Note_on_c, 1, 62, 127
3, 29948, Note_off_c, 1, 62, 100
3, 29952, Note_on_c, 1, 64, 127
3, 29980, Note_off_c, 1, 64, 100
3, 30240, Note_on_c, 1, 76, 127
3, 30284, Note_off_c, 1, 76, 100
3, 30288, Note_on_c, 1, 74, 127
3, 30332, Note_off_c, 1, 74, 100
3, 30336, Note_on_c, 1, 76, 127
3, 30364, Note_off_c, 1, 76, 100
3, 30624, Note_on_c, 1, 67, 127
3, 30668, Note_off_c, 1, 67, 100
3, 30672, Note_on_c, 1, 66, 127
3, 30716, Note_off_c, 1, 66, 100
3, 30720, Note_on_c, 1, 67, 127
3, 30748, Note_off_c, 1, 67, 100
3, 31008, Note_on_c, 1, 61, 127
3, 31052, Note_off_c, 1, 61, 100
3, 31056, Note_on_c, 1, 59, 127
3, 31100, Note_off_c, 1, 59, 100
3, 31104, Note_on_c, 1, 61, 127
3, 31132, Note_off_c, 1, 61, 100
3, 31392, Note_on_c, 1, 52, 127
3, 31436, Note_off_c, 1, 52, 100
3, 31440, Note_on_c, 1, 50, 127
3, 31484, Note_off_c, 1, 50, 100
3, 31488, Note_on_c, 1, 52, 127
3, 31516, Note_off_c, 1, 52, 100
3, 31776, Note_on_c, 1, 45, 127
3, 31820, Note_off_c, 1, 45, 100
3, 31824, Note_on_c, 1, 43, 127
3, 31868, Note_off_c, 1, 43, 100
3, 31872, Note_on_c, 1, 45, 127
3, 31900, Note_off_c, 1, 45, 100
3, 32160, Note_on_c, 1, 42, 127
3, 32204, Note_off_c, 1, 42, 100
3, 32208, Note_on_c, 1, 40, 127
3, 32252, Note_off_c, 1, 40, 100
3, 32256, Note_on_c, 1, 42, 127
3, 32284, Note_off_c, 1, 42, 100
3, 32640, Note_on_c, 1, 74, 127
3, 32700, Note_off_c, 1, 74, 100
3, 33024, Note_on_c, 1, 72, 127
3, 33084, Note_off_c, 1, 72, 100
3, 33456, Note_on_c, 1, 55, 127
3, 33500, Note_off_c, 1, 55, 100
3, 33504, Note_on_c, 1, 57, 127
3, 33548, Note_off_c, 1, 57, 100
3, 33552, Note_on_c, 1, 59, 127
3, 33596, Note_off_c, 1, 59, 100
3, 33600, Note_on_c, 1, 62, 127
3, 33644, Note_off_c, 1, 62, 100
3, 33648, Note_on_c, 1, 59, 127
3, 33692, Note_off_c, 1, 59, 100
3, 33696, Note_on_c, 1, 57, 127
3, 33740, Note_off_c, 1, 57, 100
3, 33744, Note_on_c, 1, 55, 127
3, 33776, Note_off_c, 1, 55, 100
3, 33840, Note_on_c, 1, 55, 127
3, 33884, Note_off_c, 1, 55, 100
3, 33888, Note_on_c, 1, 57, 127
3, 33932, Note_off_c, 1, 57, 100
3, 33936, Note_on_c, 1, 58, 127
3, 33980, Note_off_c, 1, 58, 100
3, 33984, Note_on_c, 1, 62, 127
3, 34028, Note_off_c, 1, 62, 100
3, 34032, Note_on_c, 1, 58, 127
3, 34076, Note_off_c, 1, 58, 100
3, 34080, Note_on_c, 1, 57, 127
3, 34124, Note_off_c, 1, 57, 100
3, 34128, Note_on_c, 1, 55, 127
3, 34160, Note_off_c, 1, 55, 100
3, 34224, Note_on_c, 1, 56, 127
3, 34268, Note_off_c, 1, 56, 100
3, 34272, Note_on_c, 1, 57, 127
3, 34316, Note_off_c, 1, 57, 100
3, 34320, Note_on_c, 1, 59, 127
3, 34364, Note_off_c, 1, 59, 100
3, 34368, Note_on_c, 1, 62, 127
3, 34412, Note_off_c, 1, 62, 100
3, 34416, Note_on_c, 1, 59, 127
3, 34460, Note_off_c, 1, 59, 100
3, 34464, Note_on_c, 1, 57, 127
3, 34508, Note_off_c, 1, 57, 100
3, 34512, Note_on_c, 1, 56, 127
3, 34544, Note_off_c, 1, 56, 100
3, 34560, Note_on_c, 1, 57, 127
3, 34588, Note_off_c, 1, 57, 100
3, 34656, Note_on_c, 1, 61, 127
3, 34700, Note_off_c, 1, 61, 100
3, 34704, Note_on_c, 1, 59, 127
3, 34748, Note_off_c, 1, 59, 100
3, 34752, Note_on_c, 1, 61, 127
3, 34780, Note_off_c, 1, 61, 100
3, 34848, Note_on_c, 1, 54, 127
3, 34892, Note_off_c, 1, 54, 100
3, 34896, Note_on_c, 1, 52, 127
3, 34940, Note_off_c, 1, 52, 100
3, 34944, Note_on_c, 1, 54, 127
3, 34972, Note_off_c, 1, 54, 100
3, 35040, Note_on_c, 1, 59, 127
3, 35084, Note_off_c, 1, 59, 100
3, 35088, Note_on_c, 1, 57, 127
3, 35132, Note_off_c, 1, 57, 100
3, 35136, Note_on_c, 1, 59, 127
3, 35164, Note_off_c, 1, 59, 100
3, 35232, Note_on_c, 1, 52, 127
3, 35276, Note_off_c, 1, 52, 100
3, 35280, Note_on_c, 1, 50, 127
3, 35324, Note_off_c, 1, 50, 100
3, 35328, Note_on_c, 1, 52, 127
3, 35356, Note_off_c, 1, 52, 100
3, 35424, Note_on_c, 1, 57, 127
3, 35468, Note_off_c, 1, 57, 100
3, 35472, Note_on_c, 1, 55, 127
3, 35516, Note_off_c, 1, 55, 100
3, 35520, Note_on_c, 1, 57, 127
3, 35548, Note_off_c, 1, 57, 100
3, 35616, Note_on_c, 1, 50, 127
3, 35660, Note_off_c, 1, 50, 100
3, 35664, Note_on_c, 1, 48, 127
3, 35708, Note_off_c, 1, 48, 100
3, 35712, Note_on_c, 1, 50, 127
3, 35756, Note_off_c, 1, 50, 100
3, 35760, Note_on_c, 1, 52, 127
3, 35804, Note_off_c, 1, 52, 100
3, 35808, Note_on_c, 1, 54, 127
3, 35852, Note_off_c, 1, 54, 100
3, 35856, Note_on_c, 1, 55, 127
3, 35900, Note_off_c, 1, 55, 100
3, 35904, Note_on_c, 1, 57, 127
3, 35948, Note_off_c, 1, 57, 100
3, 35952, Note_on_c, 1, 55, 127
3, 35996, Note_off_c, 1, 55, 100
3, 36000, Note_on_c, 1, 54, 127
3, 36044, Note_off_c, 1, 54, 100
3, 36048, Note_on_c, 1, 52, 127
3, 36092, Note_off_c, 1, 52, 100
3, 36096, Note_on_c, 1, 50, 127
3, 36124, Note_off_c, 1, 50, 100
3, 36192, Note_on_c, 1, 54, 127
3, 36220, Note_off_c, 1, 54, 100
3, 36288, Note_on_c, 1, 45, 127
3, 36316, Note_off_c, 1, 45, 100
3, 36384, Note_on_c, 1, 50, 127
3, 36412, Note_off_c, 1, 50, 100
3, 36480, Note_on_c, 1, 38, 127
3, 36668, Note_off_c, 1, 38, 100
3, 36864, Note_on_c, 1, 50, 127
3, 36924, Note_off_c, 1, 50, 100
3, 37248, Note_on_c, 1, 83, 127
3, 37292, Note_off_c, 1, 83, 100
3, 37296, Note_on_c, 1, 84, 127
3, 37340, Note_off_c, 1, 84, 100
3, 37344, Note_on_c, 1, 86, 127
3, 37388, Note_off_c, 1, 86, 100
3, 37392, Note_on_c, 1, 84, 127
3, 37436, Note_off_c, 1, 84, 100
3, 37440, Note_on_c, 1, 86, 127
3, 37484, Note_off_c, 1, 86, 100
3, 37488, Note_on_c, 1, 84, 127
3, 37532, Note_off_c, 1, 84, 100
3, 37536, Note_on_c, 1, 86, 127
3, 37580, Note_off_c, 1, 86, 100
3, 37584, Note_on_c, 1, 84, 127
3, 37628, Note_off_c, 1, 84, 100
3, 37632, Note_on_c, 1, 86, 127
3, 37676, Note_off_c, 1, 86, 100
3, 37680, Note_on_c, 1, 84, 127
3, 37724, Note_off_c, 1, 84, 100
3, 37728, Note_on_c, 1, 86, 127
3, 37772, Note_off_c, 1, 86, 100
3, 37776, Note_on_c, 1, 84, 127
3, 37820, Note_off_c, 1, 84, 100
3, 37824, Note_on_c, 1, 86, 127
3, 37868, Note_off_c, 1, 86, 100
3, 37872, Note_on_c, 1, 84, 127
3, 37916, Note_off_c, 1, 84, 100
3, 37920, Note_on_c, 1, 83, 127
3, 37964, Note_off_c, 1, 83, 100
3, 37968, Note_on_c, 1, 84, 127
3, 38012, Note_off_c, 1, 84, 100
3, 38016, Note_on_c, 1, 83, 127
3, 38076, Note_off_c, 1, 83, 100
3, 38400, Note_on_c, 1, 65, 127
3, 38444, Note_off_c, 1, 65, 100
3, 38448, Note_on_c, 1, 64, 127
3, 38492, Note_off_c, 1, 64, 100
3, 38496, Note_on_c, 1, 65, 127
3, 38780, Note_off_c, 1, 65, 100
3, 38880, Note_on_c, 1, 69, 127
3, 38972, Note_off_c, 1, 69, 100
3, 38976, Note_on_c, 1, 67, 127
3, 39068, Note_off_c, 1, 67, 100
3, 39072, Note_on_c, 1, 65, 127
3, 39164, Note_off_c, 1, 65, 100
3, 39168, Note_on_c, 1, 64, 127
3, 39228, Note_off_c, 1, 64, 100
3, 39552, Note_on_c, 1, 78, 127
3, 39740, Note_off_c, 1, 78, 100
3, 39744, Note_on_c, 1, 81, 127
3, 39932, Note_off_c, 1, 81, 100
3, 39936, Note_on_c, 1, 75, 127
3, 40124, Note_off_c, 1, 75, 100
3, 40128, Note_on_c, 1, 76, 127
3, 40220, Note_off_c, 1, 76, 100
3, 40224, Note_on_c, 1, 78, 127
3, 40316, Note_off_c, 1, 78, 100
3, 40320, Note_on_c, 1, 71, 127
3, 40380, Note_off_c, 1, 71, 100
3, 40704, Note_on_c, 1, 43, 127
3, 40748, Note_off_c, 1, 43, 100
3, 40752, Note_on_c, 1, 45, 127
3, 40796, Note_off_c, 1, 45, 100
3, 40800, Note_on_c, 1, 47, 127
3, 40844, Note_off_c, 1, 47, 100
3, 40848, Note_on_c, 1, 45, 127
3, 40892, Note_off_c, 1, 45, 100
3, 40896, Note_on_c, 1, 47, 127
3, 40940, Note_off_c, 1, 47, 100
3, 40944, Note_on_c, 1, 45, 127
3, 40988, Note_off_c, 1, 45, 100
3, 40992, Note_on_c, 1, 47, 127
3, 41036, Note_off_c, 1, 47, 100
3, 41040, Note_on_c, 1, 45, 127
3, 41084, Note_off_c, 1, 45, 100
3, 41088, Note_on_c, 1, 47, 127
3, 41132, Note_off_c, 1, 47, 100
3, 41136, Note_on_c, 1, 45, 127
3, 41180, Note_off_c, 1, 45, 100
3, 41184, Note_on_c, 1, 47, 127
3, 41228, Note_off_c, 1, 47, 100
3, 41232, Note_on_c, 1, 45, 127
3, 41276, Note_off_c, 1, 45, 100
3, 41280, Note_on_c, 1, 47, 127
3, 41324, Note_off_c, 1, 47, 100
3, 41328, Note_on_c, 1, 45, 127
3, 41372, Note_off_c, 1, 45, 100
3, 41376, Note_on_c, 1, 43, 127
3, 41420, Note_off_c, 1, 43, 100
3, 41424, Note_on_c, 1, 45, 127
3, 41468, Note_off_c, 1, 45, 100
3, 41472, Note_on_c, 1, 43, 127
3, 41532, Note_off_c, 1, 43, 100
3, 41664, Note_on_c, 1, 40, 127
3, 41724, Note_off_c, 1, 40, 100
3, 41856, Note_on_c, 1, 43, 127
3, 41916, Note_off_c, 1, 43, 100
3, 42048, Note_on_c, 1, 47, 127
3, 42108, Note_off_c, 1, 47, 100
3, 42240, Note_on_c, 1, 43, 127
3, 42300, Note_off_c, 1, 43, 100
3, 42432, Note_on_c, 1, 40, 127
3, 42492, Note_off_c, 1, 40, 100
3, 42624, Note_on_c, 1, 45, 127
3, 42684, Note_off_c, 1, 45, 100
3, 42816, Note_on_c, 1, 33, 127
3, 42876, Note_off_c, 1, 33, 100
3, 43008, Note_on_c, 1, 45, 127
3, 43068, Note_off_c, 1, 45, 100
3, 43200, Note_on_c, 1, 48, 127
3, 43260, Note_off_c, 1, 48, 100
3, 43392, Note_on_c, 1, 47, 127
3, 43452, Note_off_c, 1, 47, 100
3, 43584, Note_on_c, 1, 45, 127
3, 43644, Note_off_c, 1, 45, 100
3, 43776, Note_on_c, 1, 47, 127
3, 43836, Note_off_c, 1, 47, 100
3, 43968, Note_on_c, 1, 51, 127
3, 44028, Note_off_c, 1, 51, 100
3, 44160, Note_on_c, 1, 54, 127
3, 44220, Note_off_c, 1, 54, 100
3, 44352, Note_on_c, 1, 59, 127
3, 44412, Note_off_c, 1, 59, 100
3, 44544, Note_on_c, 1, 47, 127
3, 44604, Note_off_c, 1, 47, 100
3, 44736, Note_on_c, 1, 64, 127
3, 44828, Note_off_c, 1, 64, 100
3, 44832, Note_on_c, 1, 63, 127
3, 44924, Note_off_c, 1, 63, 100
3, 44928, Note_on_c, 1, 64, 127
3, 44988, Note_off_c, 1, 64, 100
3, 45120, Note_on_c, 1, 67, 127
3, 45180, Note_off_c, 1, 67, 100
3, 45312, Note_on_c, 1, 71, 127
3, 45372, Note_off_c, 1, 71, 100
3, 45504, Note_on_c, 1, 76, 127
3, 45596, Note_off_c, 1, 76, 100
3, 45600, Note_on_c, 1, 75, 127
3, 45692, Note_off_c, 1, 75, 100
3, 45696, Note_on_c, 1, 76, 127
3, 45756, Note_off_c, 1, 76, 100
3, 46176, Note_on_c, 1, 48, 127
3, 46220, Note_off_c, 1, 48, 100
3, 46224, Note_on_c, 1, 47, 127
3, 46268, Note_off_c, 1, 47, 100
3, 46272, Note_on_c, 1, 48, 127
3, 46332, Note_off_c, 1, 48, 100
3, 46560, Note_on_c, 1, 57, 127
3, 46604, Note_off_c, 1, 57, 100
3, 46608, Note_on_c, 1, 56, 127
3, 46652, Note_off_c, 1, 56, 100
3, 46656, Note_on_c, 1, 57, 127
3, 46716, Note_off_c, 1, 57, 100
3, 46944, Note_on_c, 1, 64, 127
3, 46988, Note_off_c, 1, 64, 100
3, 46992, Note_on_c, 1, 62, 127
3, 47036, Note_off_c, 1, 62, 100
3, 47040, Note_on_c, 1, 64, 127
3, 47100, Note_off_c, 1, 64, 100
3, 47328, Note_on_c, 1, 47, 127
3, 47372, Note_off_c, 1, 47, 100
3, 47376, Note_on_c, 1, 45, 127
3, 47420, Note_off_c, 1, 45, 100
3, 47424, Note_on_c, 1, 47, 127
3, 47484, Note_off_c, 1, 47, 100
3, 47712, Note_on_c, 1, 55, 127
3, 47756, Note_off_c, 1, 55, 100
3, 47760, Note_on_c, 1, 54, 127
3, 47804, Note_off_c, 1, 54, 100
3, 47808, Note_on_c, 1, 55, 127
3, 47868, Note_off_c, 1, 55, 100
3, 48096, Note_on_c, 1, 62, 127
3, 48140, Note_off_c, 1, 62, 100
3, 48144, Note_on_c, 1, 60, 127
3, 48188, Note_off_c, 1, 60, 100
3, 48192, Note_on_c, 1, 62, 127
3, 48252, Note_off_c, 1, 62, 100
3, 48480, Note_on_c, 1, 45, 127
3, 48524, Note_off_c, 1, 45, 100
3, 48528, Note_on_c, 1, 43, 127
3, 48572, Note_off_c, 1, 43, 100
3, 48576, Note_on_c, 1, 45, 127
3, 48636, Note_off_c, 1, 45, 100
3, 48864, Note_on_c, 1, 52, 127
3, 48908, Note_off_c, 1, 52, 100
3, 48912, Note_on_c, 1, 50, 127
3, 48956, Note_off_c, 1, 50, 100
3, 48960, Note_on_c, 1, 52, 127
3, 49020, Note_off_c, 1, 52, 100
3, 49248, Note_on_c, 1, 60, 127
3, 49292, Note_off_c, 1, 60, 100
3, 49296, Note_on_c, 1, 59, 127
3, 49340, Note_off_c, 1, 59, 100
3, 49344, Note_on_c, 1, 60, 127
3, 49404, Note_off_c, 1, 60, 100
3, 49632, Note_on_c, 1, 69, 127
3, 49676, Note_off_c, 1, 69, 100
3, 49680, Note_on_c, 1, 67, 127
3, 49724, Note_off_c, 1, 67, 100
3, 49728, Note_on_c, 1, 69, 127
3, 49756, Note_off_c, 1, 69, 100
3, 50016, Note_on_c, 1, 78, 127
3, 50060, Note_off_c, 1, 78, 100
3, 50064, Note_on_c, 1, 76, 127
3, 50108, Note_off_c, 1, 76, 100
3, 50112, Note_on_c, 1, 78, 127
3, 50140, Note_off_c, 1, 78, 100
3, 50400, Note_on_c, 1, 81, 127
3, 50444, Note_off_c, 1, 81, 100
3, 50448, Note_on_c, 1, 79, 127
3, 50492, Note_off_c, 1, 79, 100
3, 50496, Note_on_c, 1, 81, 127
3, 50524, Note_off_c, 1, 81, 100
3, 50736, Note_on_c, 1, 67, 127
3, 50780, Note_off_c, 1, 67, 100
3, 50784, Note_on_c, 1, 69, 127
3, 50828, Note_off_c, 1, 69, 100
3, 50832, Note_on_c, 1, 71, 127
3, 50876, Note_off_c, 1, 71, 100
3, 50880, Note_on_c, 1, 74, 127
3, 50924, Note_off_c, 1, 74, 100
3, 50928, Note_on_c, 1, 71, 127
3, 50972, Note_off_c, 1, 71, 100
3, 50976, Note_on_c, 1, 69, 127
3, 51020, Note_off_c, 1, 69, 100
3, 51024, Note_on_c, 1, 67, 127
3, 51056, Note_off_c, 1, 67, 100
3, 51120, Note_on_c, 1, 67, 127
3, 51164, Note_off_c, 1, 67, 100
3, 51168, Note_on_c, 1, 69, 127
3, 51212, Note_off_c, 1, 69, 100
3, 51216, Note_on_c, 1, 71, 127
3, 51260, Note_off_c, 1, 71, 100
3, 51264, Note_on_c, 1, 74, 127
3, 51308, Note_off_c, 1, 74, 100
3, 51312, Note_on_c, 1, 71, 127
3, 51356, Note_off_c, 1, 71, 100
3, 51360, Note_on_c, 1, 69, 127
3, 51404, Note_off_c, 1, 69, 100
3, 51408, Note_on_c, 1, 67, 127
3, 51440, Note_off_c, 1, 67, 100
3, 51504, Note_on_c, 1, 67, 127
3, 51548, Note_off_c, 1, 67, 100
3, 51552, Note_on_c, 1, 69, 127
3, 51596, Note_off_c, 1, 69, 100
3, 51600, Note_on_c, 1, 71, 127
3, 51644, Note_off_c, 1, 71, 100
3, 51648, Note_on_c, 1, 74, 127
3, 51692, Note_off_c, 1, 74, 100
3, 51696, Note_on_c, 1, 71, 127
3, 51740, Note_off_c, 1, 71, 100
3, 51744, Note_on_c, 1, 69, 127
3, 51788, Note_off_c, 1, 69, 100
3, 51792, Note_on_c, 1, 67, 127
3, 51824, Note_off_c, 1, 67, 100
3, 51840, Note_on_c, 1, 72, 127
3, 51900, Note_off_c, 1, 72, 100
3, 52224, Note_on_c, 1, 57, 127
3, 52284, Note_off_c, 1, 57, 100
3, 52608, Note_on_c, 1, 52, 127
3, 52668, Note_off_c, 1, 52, 100
3, 52992, Note_on_c, 1, 54, 127
3, 53020, Note_off_c, 1, 54, 100
3, 53088, Note_on_c, 1, 57, 127
3, 53132, Note_off_c, 1, 57, 100
3, 53136, Note_on_c, 1, 55, 127
3, 53180, Note_off_c, 1, 55, 100
3, 53184, Note_on_c, 1, 57, 127
3, 53212, Note_off_c, 1, 57, 100
3, 53280, Note_on_c, 1, 62, 127
3, 53324, Note_off_c, 1, 62, 100
3, 53328, Note_on_c, 1, 60, 127
3, 53372, Note_off_c, 1, 60, 100
3, 53376, Note_on_c, 1, 62, 127
3, 53404, Note_off_c, 1, 62, 100
3, 53472, Note_on_c, 1, 55, 127
3, 53516, Note_off_c, 1, 55, 100
3, 53520, Note_on_c, 1, 54, 127
3, 53564, Note_off_c, 1, 54, 100
3, 53568, Note_on_c, 1, 55, 127
3, 53596, Note_off_c, 1, 55, 100
3, 53664, Note_on_c, 1, 60, 127
3, 53708, Note_off_c, 1, 60, 100
3, 53712, Note_on_c, 1, 59, 127
3, 53756, Note_off_c, 1, 59, 100
3, 53760, Note_on_c, 1, 60, 127
3, 53788, Note_off_c, 1, 60, 100
3, 53856, Note_on_c, 1, 54, 127
3, 53900, Note_off_c, 1, 54, 100
3, 53904, Note_on_c, 1, 52, 127
3, 53948, Note_off_c, 1, 52, 100
3, 53952, Note_on_c, 1, 54, 127
3, 53980, Note_off_c, 1, 54, 100
3, 54048, Note_on_c, 1, 59, 127
3, 54092, Note_off_c, 1, 59, 100
3, 54096, Note_on_c, 1, 57, 127
3, 54140, Note_off_c, 1, 57, 100
3, 54144, Note_on_c, 1, 59, 127
3, 54172, Note_off_c, 1, 59, 100
3, 54240, Note_on_c, 1, 55, 127
3, 54332, Note_off_c, 1, 55, 100
3, 54336, Note_on_c, 1, 54, 127
3, 54428, Note_off_c, 1, 54, 100
3, 54432, Note_on_c, 1, 55, 127
3, 54496, Note_off_c, 1, 55, 100
3, 54528, Note_on_c, 1, 59, 127
3, 54572, Note_off_c, 1, 59, 100
3, 54576, Note_on_c, 1, 57, 127
3, 54620, Note_off_c, 1, 57, 100
3, 54624, Note_on_c, 1, 55, 127
3, 54652, Note_off_c, 1, 55, 100
3, 54720, Note_on_c, 1, 62, 127
3, 54764, Note_off_c, 1, 62, 100
3, 54768, Note_on_c, 1, 60, 127
3, 54812, Note_off_c, 1, 60, 100
3, 54816, Note_on_c, 1, 59, 127
3, 54844, Note_off_c, 1, 59, 100
3, 54912, Note_on_c, 1, 67, 127
3, 55100, Note_off_c, 1, 67, 100
3, 55296, Note_on_c, 1, 50, 127
3, 55356, Note_off_c, 1, 50, 100
3, 55680, Note_on_c, 1, 83, 127
3, 55724, Note_off_c, 1, 83, 100
3, 55728, Note_on_c, 1, 84, 127
3, 55772, Note_off_c, 1, 84, 100
3, 55776, Note_on_c, 1, 86, 127
3, 55820, Note_off_c, 1, 86, 100
3, 55824, Note_on_c, 1, 84, 127
3, 55868, Note_off_c, 1, 84, 100
3, 55872, Note_on_c, 1, 86, 127
3, 55916, Note_off_c, 1, 86, 100
3, 55920, Note_on_c, 1, 84, 127
3, 55964, Note_off_c, 1, 84, 100
3, 55968, Note_on_c, 1, 86, 127
3, 56012, Note_off_c, 1, 86, 100
3, 56016, Note_on_c, 1, 84, 127
3, 56060, Note_off_c, 1, 84, 100
3, 56064, Note_on_c, 1, 86, 127
3, 56108, Note_off_c, 1, 86, 100
3, 56112, Note_on_c, 1, 84, 127
3, 56156, Note_off_c, 1, 84, 100
3, 56160, Note_on_c, 1, 86, 127
3, 56204, Note_off_c, 1, 86, 100
3, 56208, Note_on_c, 1, 84, 127
3, 56252, Note_off_c, 1, 84, 100
3, 56256, Note_on_c, 1, 86, 127
3, 56300, Note_off_c, 1, 86, 100
3, 56304, Note_on_c, 1, 84, 127
3, 56348, Note_off_c, 1, 84, 100
3, 56352, Note_on_c, 1, 83, 127
3, 56396, Note_off_c, 1, 83, 100
3, 56400, Note_on_c, 1, 84, 127
3, 56444, Note_off_c, 1, 84, 100
3, 56448, Note_on_c, 1, 83, 127
3, 56508, Note_off_c, 1, 83, 100
3, 56832, Note_on_c, 1, 65, 127
3, 56876, Note_off_c, 1, 65, 100
3, 56880, Note_on_c, 1, 64, 127
3, 56924, Note_off_c, 1, 64, 100
3, 56928, Note_on_c, 1, 65, 127
3, 57212, Note_off_c, 1, 65, 100
3, 57312, Note_on_c, 1, 69, 127
3, 57404, Note_off_c, 1, 69, 100
3, 57408, Note_on_c, 1, 67, 127
3, 57500, Note_off_c, 1, 67, 100
3, 57504, Note_on_c, 1, 65, 127
3, 57596, Note_off_c, 1, 65, 100
3, 57600, Note_on_c, 1, 64, 127
3, 57660, Note_off_c, 1, 64, 100
3, 57984, Note_on_c, 1, 78, 127
3, 58172, Note_off_c, 1, 78, 100
3, 58176, Note_on_c, 1, 81, 127
3, 58364, Note_off_c, 1, 81, 100
3, 58368, Note_on_c, 1, 75, 127
3, 58556, Note_off_c, 1, 75, 100
3, 58560, Note_on_c, 1, 76, 127
3, 58652, Note_off_c, 1, 76, 100
3, 58656, Note_on_c, 1, 78, 127
3, 58748, Note_off_c, 1, 78, 100
3, 58752, Note_on_c, 1, 71, 127
3, 58812, Note_off_c, 1, 71, 100
3, 59136, Note_on_c, 1, 43, 127
3, 59180, Note_off_c, 1, 43, 100
3, 59184, Note_on_c, 1, 45, 127
3, 59228, Note_off_c, 1, 45, 100
3, 59232, Note_on_c, 1, 47, 127
3, 59276, Note_off_c, 1, 47, 100
3, 59280, Note_on_c, 1, 45, 127
3, 59324, Note_off_c, 1, 45, 100
3, 59328, Note_on_c, 1, 47, 127
3, 59372, Note_off_c, 1, 47, 100
3, 59376, Note_on_c, 1, 45, 127
3, 59420, Note_off_c, 1, 45, 100
3, 59424, Note_on_c, 1, 47, 127
3, 59468, Note_off_c, 1, 47, 100
3, 59472, Note_on_c, 1, 45, 127
3, 59516, Note_off_c, 1, 45, 100
3, 59520, Note_on_c, 1, 47, 127
3, 59564, Note_off_c, 1, 47, 100
3, 59568, Note_on_c, 1, 45, 127
3, 59612, Note_off_c, 1, 45, 100
3, 59616, Note_on_c, 1, 47, 127
3, 59660, Note_off_c, 1, 47, 100
3, 59664, Note_on_c, 1, 45, 127
3, 59708, Note_off_c, 1, 45, 100
3, 59712, Note_on_c, 1, 47, 127
3, 59756, Note_off_c, 1, 47, 100
3, 59760, Note_on_c, 1, 45, 127
3, 59804, Note_off_c, 1, 45, 100
3, 59808, Note_on_c, 1, 43, 127
3, 59852, Note_off_c, 1, 43, 100
3, 59856, Note_on_c, 1, 45, 127
3, 59900, Note_off_c, 1, 45, 100
3, 59904, Note_on_c, 1, 43, 127
3, 59964, Note_off_c, 1, 43, 100
3, 60096, Note_on_c, 1, 40, 127
3, 60156, Note_off_c, 1, 40, 100
3, 60288, Note_on_c, 1, 43, 127
3, 60348, Note_off_c, 1, 43, 100
3, 60480, Note_on_c, 1, 47, 127
3, 60540, Note_off_c, 1, 47, 100
3, 60672, Note_on_c, 1, 43, 127
3, 60732, Note_off_c, 1, 43, 100
3, 60864, Note_on_c, 1, 40, 127
3, 60924, Note_off_c, 1, 40, 100
3, 61056, Note_on_c, 1, 45, 127
3, 61116, Note_off_c, 1, 45, 100
3, 61248, Note_on_c, 1, 33, 127
3, 61308, Note_off_c, 1, 33, 100
3, 61440, Note_on_c, 1, 45, 127
3, 61500, Note_off_c, 1, 45, 100
3, 61632, Note_on_c, 1, 48, 127
3, 61692, Note_off_c, 1, 48, 100
3, 61824, Note_on_c, 1, 47, 127
3, 61884, Note_off_c, 1, 47, 100
3, 62016, Note_on_c, 1, 45, 127
3, 62076, Note_off_c, 1, 45, 100
3, 62208, Note_on_c, 1, 47, 127
3, 62268, Note_off_c, 1, 47, 100
3, 62400, Note_on_c, 1, 51, 127
3, 62460, Note_off_c, 1, 51, 100
3, 62592, Note_on_c, 1, 54, 127
3, 62652, Note_off_c, 1, 54, 100
3, 62784, Note_on_c, 1, 59, 127
3, 62844, Note_off_c, 1, 59, 100
3, 62976, Note_on_c, 1, 47, 127
3, 63036, Note_off_c, 1, 47, 100
3, 63168, Note_on_c, 1, 64, 127
3, 63260, Note_off_c, 1, 64, 100
3, 63264, Note_on_c, 1, 63, 127
3, 63356, Note_off_c, 1, 63, 100
3, 63360, Note_on_c, 1, 64, 127
3, 63420, Note_off_c, 1, 64, 100
3, 63552, Note_on_c, 1, 67, 127
3, 63612, Note_off_c, 1, 67, 100
3, 63744, Note_on_c, 1, 71, 127
3, 63804, Note_off_c, 1, 71, 100
3, 63936, Note_on_c, 1, 76, 127
3, 64028, Note_off_c, 1, 76, 100
3, 64032, Note_on_c, 1, 75, 127
3, 64124, Note_off_c, 1, 75, 100
3, 64128, Note_on_c, 1, 76, 127
3, 64188, Note_off_c, 1, 76, 100
3, 64608, Note_on_c, 1, 48, 127
3, 64652, Note_off_c, 1, 48, 100
3, 64656, Note_on_c, 1, 47, 127
3, 64700, Note_off_c, 1, 47, 100
3, 64704, Note_on_c, 1, 48, 127
3, 64764, Note_off_c, 1, 48, 100
3, 64992, Note_on_c, 1, 57, 127
3, 65036, Note_off_c, 1, 57, 100
3, 65040, Note_on_c, 1, 56, 127
3, 65084, Note_off_c, 1, 56, 100
3, 65088, Note_on_c, 1, 57, 127
3, 65148, Note_off_c, 1, 57, 100
3, 65376, Note_on_c, 1, 64, 127
3, 65420, Note_off_c, 1, 64, 100
3, 65424, Note_on_c, 1, 62, 127
3, 65468, Note_off_c, 1, 62, 100
3, 65472, Note_on_c, 1, 64, 127
3, 65532, Note_off_c, 1, 64, 100
3, 65760, Note_on_c, 1, 47, 127
3, 65804, Note_off_c, 1, 47, 100
3, 65808, Note_on_c, 1, 45, 127
3, 65852, Note_off_c, 1, 45, 100
3, 65856, Note_on_c, 1, 47, 127
3, 65916, Note_off_c, 1, 47, 100
3, 66144, Note_on_c, 1, 55, 127
3, 66188, Note_off_c, 1, 55, 100
3, 66192, Note_on_c, 1, 54, 127
3, 66236, Note_off_c, 1, 54, 100
3, 66240, Note_on_c, 1, 55, 127
3, 66300, Note_off_c, 1, 55, 100
3, 66528, Note_on_c, 1, 62, 127
3, 66572, Note_off_c, 1, 62, 100
3, 66576, Note_on_c, 1, 60, 127
3, 66620, Note_off_c, 1, 60, 100
3, 66624, Note_on_c, 1, 62, 127
3, 66684, Note_off_c, 1, 62, 100
3, 66912, Note_on_c, 1, 45, 127
3, 66956, Note_off_c, 1, 45, 100
3, 66960, Note_on_c, 1, 43, 127
3, 67004, Note_off_c, 1, 43, 100
3, 67008, Note_on_c, 1, 45, 127
3, 67068, Note_off_c, 1, 45, 100
3, 67296, Note_on_c, 1, 52, 127
3, 67340, Note_off_c, 1, 52, 100
3, 67344, Note_on_c, 1, 50, 127
3, 67388, Note_off_c, 1, 50, 100
3, 67392, Note_on_c, 1, 52, 127
3, 67452, Note_off_c, 1, 52, 100
3, 67680, Note_on_c, 1, 60, 127
3, 67724, Note_off_c, 1, 60, 100
3, 67728, Note_on_c, 1, 59, 127
3, 67772, Note_off_c, 1, 59, 100
3, 67776, Note_on_c, 1, 60, 127
3, 67836, Note_off_c, 1, 60, 100
3, 68064, Note_on_c, 1, 69, 127
3, 68108, Note_off_c, 1, 69, 100
3, 68112, Note_on_c, 1, 67, 127
3, 68156, Note_off_c, 1, 67, 100
3, 68160, Note_on_c, 1, 69, 127
3, 68188, Note_off_c, 1, 69, 100
3, 68448, Note_on_c, 1, 78, 127
3, 68492, Note_off_c, 1, 78, 100
3, 68496, Note_on_c, 1, 76, 127
3, 68540, Note_off_c, 1, 76, 100
3, 68544, Note_on_c, 1, 78, 127
3, 68572, Note_off_c, 1, 78, 100
3, 68832, Note_on_c, 1, 81, 127
3, 68876, Note_off_c, 1, 81, 100
3, 68880, Note_on_c, 1, 79, 127
3, 68924, Note_off_c, 1, 79, 100
3, 68928, Note_on_c, 1, 81, 127
3, 68956, Note_off_c, 1, 81, 100
3, 69168, Note_on_c, 1, 67, 127
3, 69212, Note_off_c, 1, 67, 100
3, 69216, Note_on_c, 1, 69, 127
3, 69260, Note_off_c, 1, 69, 100
3, 69264, Note_on_c, 1, 71, 127
3, 69308, Note_off_c, 1, 71, 100
3, 69312, Note_on_c, 1, 74, 127
3, 69356, Note_off_c, 1, 74, 100
3, 69360, Note_on_c, 1, 71, 127
3, 69404, Note_off_c, 1, 71, 100
3, 69408, Note_on_c, 1, 69, 127
3, 69452, Note_off_c, 1, 69, 100
3, 69456, Note_on_c, 1, 67, 127
3, 69488, Note_off_c, 1, 67, 100
3, 69552, Note_on_c, 1, 67, 127
3, 69596, Note_off_c, 1, 67, 100
3, 69600, Note_on_c, 1, 69, 127
3, 69644, Note_off_c, 1, 69, 100
3, 69648, Note_on_c, 1, 71, 127
3, 69692, Note_off_c, 1, 71, 100
3, 69696, Note_on_c, 1, 74, 127
3, 69740, Note_off_c, 1, 74, 100
3, 69744, Note_on_c, 1, 71, 127
3, 69788, Note_off_c, 1, 71, 100
3, 69792, Note_on_c, 1, 69, 127
3, 69836, Note_off_c, 1, 69, 100
3, 69840, Note_on_c, 1, 67, 127
3, 69872, Note_off_c, 1, 67, 100
3, 69936, Note_on_c, 1, 67, 127
3, 69980, Note_off_c, 1, 67, 100
3, 69984, Note_on_c, 1, 69, 127
3, 70028, Note_off_c, 1, 69, 100
3, 70032, Note_on_c, 1, 71, 127
3, 70076, Note_off_c, 1, 71, 100
3, 70080, Note_on_c, 1, 74, 127
3, 70124, Note_off_c, 1, 74, 100
3, 70128, Note_on_c, 1, 71, 127
3, 70172, Note_off_c, 1, 71, 100
3, 70176, Note_on_c, 1, 69, 127
3, 70220, Note_off_c, 1, 69, 100
3, 70224, Note_on_c, 1, 67, 127
3, 70256, Note_off_c, 1, 67, 100
3, 70272, Note_on_c, 1, 72, 127
3, 70332, Note_off_c, 1, 72, 100
3, 70656, Note_on_c, 1, 57, 127
3, 70716, Note_off_c, 1, 57, 100
3, 71040, Note_on_c, 1, 52, 127
3, 71100, Note_off_c, 1, 52, 100
3, 71424, Note_on_c, 1, 54, 127
3, 71452, Note_off_c, 1, 54, 100
3, 71520, Note_on_c, 1, 57, 127
3, 71564, Note_off_c, 1, 57, 100
3, 71568, Note_on_c, 1, 55, 127
3, 71612, Note_off_c, 1, 55, 100
3, 71616, Note_on_c, 1, 57, 127
3, 71644, Note_off_c, 1, 57, 100
3, 71712, Note_on_c, 1, 62, 127
3, 71756, Note_off_c, 1, 62, 100
3, 71760, Note_on_c, 1, 60, 127
3, 71804, Note_off_c, 1, 60, 100
3, 71808, Note_on_c, 1, 62, 127
3, 71836, Note_off_c, 1, 62, 100
3, 71904, Note_on_c, 1, 55, 127
3, 71948, Note_off_c, 1, 55, 100
3, 71952, Note_on_c, 1, 54, 127
3, 71996, Note_off_c, 1, 54, 100
3, 72000, Note_on_c, 1, 55, 127
3, 72028, Note_off_c, 1, 55, 100
3, 72096, Note_on_c, 1, 60, 127
3, 72140, Note_off_c, 1, 60, 100
3, 72144, Note_on_c, 1, 59, 127
3, 72188, Note_off_c, 1, 59, 100
3, 72192, Note_on_c, 1, 60, 127
3, 72220, Note_off_c, 1, 60, 100
3, 72288, Note_on_c, 1, 54, 127
3, 72332, Note_off_c, 1, 54, 100
3, 72336, Note_on_c, 1, 52, 127
3, 72380, Note_off_c, 1, 52, 100
3, 72384, Note_on_c, 1, 54, 127
3, 72412, Note_off_c, 1, 54, 100
3, 72480, Note_on_c, 1, 59, 127
3, 72524, Note_off_c, 1, 59, 100
3, 72528, Note_on_c, 1, 57, 127
3, 72572, Note_off_c, 1, 57, 100
3, 72576, Note_on_c, 1, 59, 127
3, 72604, Note_off_c, 1, 59, 100
3, 72672, Note_on_c, 1, 55, 127
3, 72764, Note_off_c, 1, 55, 100
3, 72768, Note_on_c, 1, 54, 127
3, 72860, Note_off_c, 1, 54, 100
3, 72864, Note_on_c, 1, 55, 127
3, 72928, Note_off_c, 1, 55, 100
3, 72960, Note_on_c, 1, 59, 127
3, 73004, Note_off_c, 1, 59, 100
3, 73008, Note_on_c, 1, 57, 127
3, 73052, Note_off_c, 1, 57, 100
3, 73056, Note_on_c, 1, 55, 127
3, 73084, Note_off_c, 1, 55, 100
3, 73152, Note_on_c, 1, 62, 127
3, 73196, Note_off_c, 1, 62, 100
3, 73200, Note_on_c, 1, 60, 127
3, 73244, Note_off_c, 1, 60, 100
3, 73248, Note_on_c, 1, 59, 127
3, 73276, Note_off_c, 1, 59, 100
3, 73344, Note_on_c, 1, 55, 1
3, 73344, Note_on_c, 1, 67, 127
3, 73532, Note_off_c, 1, 67, 100
3, 73984, Note_off_c, 1, 55, 0
3, 73984, End_track
4, 0, Start_track
4, 0, Title_t, "BWV 988"
4, 0, Control_c, 2, 0, 0
4, 0, Program_c, 2, 6
4, 0, Control_c, 2, 7, 127
4, 0, Control_c, 2, 10, 89
4, 0, Control_c, 2, 91, 127
4, 0, Control_c, 2, 93, 0
4, 0, Key_signature, 1, "major"
4, 0, Note_on_c, 2, 55, 127
4, 44, Note_off_c, 2, 55, 100
4, 48, Note_on_c, 2, 54, 127
4, 92, Note_off_c, 2, 54, 100
4, 96, Note_on_c, 2, 55, 127
4, 188, Note_off_c, 2, 55, 100
4, 384, Note_on_c, 2, 90, 127
4, 428, Note_off_c, 2, 90, 100
4, 432, Note_on_c, 2, 91, 127
4, 476, Note_off_c, 2, 91, 100
4, 480, Note_on_c, 2, 93, 127
4, 524, Note_off_c, 2, 93, 100
4, 528, Note_on_c, 2, 91, 127
4, 572, Note_off_c, 2, 91, 100
4, 576, Note_on_c, 2, 93, 127
4, 620, Note_off_c, 2, 93, 100
4, 624, Note_on_c, 2, 91, 127
4, 668, Note_off_c, 2, 91, 100
4, 672, Note_on_c, 2, 93, 127
4, 716, Note_off_c, 2, 93, 100
4, 720, Note_on_c, 2, 91, 127
4, 764, Note_off_c, 2, 91, 100
4, 768, Note_on_c, 2, 93, 127
4, 812, Note_off_c, 2, 93, 100
4, 816, Note_on_c, 2, 91, 127
4, 860, Note_off_c, 2, 91, 100
4, 864, Note_on_c, 2, 93, 127
4, 908, Note_off_c, 2, 93, 100
4, 912, Note_on_c, 2, 91, 127
4, 956, Note_off_c, 2, 91, 100
4, 960, Note_on_c, 2, 93, 127
4, 1004, Note_off_c, 2, 93, 100
4, 1008, Note_on_c, 2, 91, 127
4, 1052, Note_off_c, 2, 91, 100
4, 1056, Note_on_c, 2, 90, 127
4, 1100, Note_off_c, 2, 90, 100
4, 1104, Note_on_c, 2, 91, 127
4, 1148, Note_off_c, 2, 91, 100
4, 1152, Note_on_c, 2, 93, 127
4, 1212, Note_off_c, 2, 93, 100
4, 1536, Note_on_c, 2, 66, 127
4, 1580, Note_off_c, 2, 66, 100
4, 1584, Note_on_c, 2, 64, 127
4, 1628, Note_off_c, 2, 64, 100
4, 1632, Note_on_c, 2, 66, 127
4, 1916, Note_off_c, 2, 66, 100
4, 2016, Note_on_c, 2, 69, 127
4, 2108, Note_off_c, 2, 69, 100
4, 2112, Note_on_c, 2, 67, 127
4, 2204, Note_off_c, 2, 67, 100
4, 2208, Note_on_c, 2, 66, 127
4, 2300, Note_off_c, 2, 66, 100
4, 2304, Note_on_c, 2, 64, 127
4, 2364, Note_off_c, 2, 64, 100
4, 2688, Note_on_c, 2, 88, 127
4, 2876, Note_off_c, 2, 88, 100
4, 2880, Note_on_c, 2, 86, 127
4, 3068, Note_off_c, 2, 86, 100
4, 3072, Note_on_c, 2, 85, 127
4, 3260, Note_off_c, 2, 85, 100
4, 3264, Note_on_c, 2, 86, 127
4, 3356, Note_off_c, 2, 86, 100
4, 3360, Note_on_c, 2, 88, 127
4, 3452, Note_off_c, 2, 88, 100
4, 3456, Note_on_c, 2, 86, 127
4, 3516, Note_off_c, 2, 86, 100
4, 3840, Note_on_c, 2, 59, 127
4, 3884, Note_off_c, 2, 59, 100
4, 3888, Note_on_c, 2, 60, 127
4, 3932, Note_off_c, 2, 60, 100
4, 3936, Note_on_c, 2, 62, 127
4, 3980, Note_off_c, 2, 62, 100
4, 3984, Note_on_c, 2, 60, 127
4, 4028, Note_off_c, 2, 60, 100
4, 4032, Note_on_c, 2, 62, 127
4, 4076, Note_off_c, 2, 62, 100
4, 4080, Note_on_c, 2, 60, 127
4, 4124, Note_off_c, 2, 60, 100
4, 4128, Note_on_c, 2, 62, 127
4, 4172, Note_off_c, 2, 62, 100
4, 4176, Note_on_c, 2, 60, 127
4, 4220, Note_off_c, 2, 60, 100
4, 4224, Note_on_c, 2, 62, 127
4, 4268, Note_off_c, 2, 62, 100
4, 4272, Note_on_c, 2, 60, 127
4, 4316, Note_off_c, 2, 60, 100
4, 4320, Note_on_c, 2, 62, 127
4, 4364, Note_off_c, 2, 62, 100
4, 4368, Note_on_c, 2, 60, 127
4, 4412, Note_off_c, 2, 60, 100
4, 4416, Note_on_c, 2, 62, 127
4, 4460, Note_off_c, 2, 62, 100
4, 4464, Note_on_c, 2, 60, 127
4, 4508, Note_off_c, 2, 60, 100
4, 4512, Note_on_c, 2, 59, 127
4, 4556, Note_off_c, 2, 59, 100
4, 4560, Note_on_c, 2, 60, 127
4, 4604, Note_off_c, 2, 60, 100
4, 4608, Note_on_c, 2, 59, 127
4, 4668, Note_off_c, 2, 59, 100
4, 4800, Note_on_c, 2, 55, 127
4, 4860, Note_off_c, 2, 55, 100
4, 4992, Note_on_c, 2, 59, 127
4, 5052, Note_off_c, 2, 59, 100
4, 5184, Note_on_c, 2, 62, 127
4, 5244, Note_off_c, 2, 62, 100
4, 5376, Note_on_c, 2, 67, 127
4, 5436, Note_off_c, 2, 67, 100
4, 5568, Note_on_c, 2, 59, 127
4, 5628, Note_off_c, 2, 59, 100
4, 5760, Note_on_c, 2, 60, 127
4, 5820, Note_off_c, 2, 60, 100
4, 5952, Note_on_c, 2, 64, 127
4, 6012, Note_off_c, 2, 64, 100
4, 6144, Note_on_c, 2, 67, 127
4, 6204, Note_off_c, 2, 67, 100
4, 6336, Note_on_c, 2, 72, 127
4, 6396, Note_off_c, 2, 72, 100
4, 6528, Note_on_c, 2, 64, 127
4, 6588, Note_off_c, 2, 64, 100
4, 6720, Note_on_c, 2, 67, 127
4, 6780, Note_off_c, 2, 67, 100
4, 6912, Note_on_c, 2, 66, 127
4, 6972, Note_off_c, 2, 66, 100
4, 7104, Note_on_c, 2, 69, 127
4, 7164, Note_off_c, 2, 69, 100
4, 7296, Note_on_c, 2, 62, 127
4, 7356, Note_off_c, 2, 62, 100
4, 7488, Note_on_c, 2, 66, 127
4, 7548, Note_off_c, 2, 66, 100
4, 7680, Note_on_c, 2, 69, 127
4, 7740, Note_off_c, 2, 69, 100
4, 7872, Note_on_c, 2, 72, 127
4, 7932, Note_off_c, 2, 72, 100
4, 8064, Note_on_c, 2, 71, 127
4, 8124, Note_off_c, 2, 71, 100
4, 8256, Note_on_c, 2, 67, 127
4, 8316, Note_off_c, 2, 67, 100
4, 8448, Note_on_c, 2, 71, 127
4, 8508, Note_off_c, 2, 71, 100
4, 8640, Note_on_c, 2, 74, 127
4, 8700, Note_off_c, 2, 74, 100
4, 8832, Note_on_c, 2, 79, 127
4, 8892, Note_off_c, 2, 79, 100
4, 9312, Note_on_c, 2, 95, 127
4, 9356, Note_off_c, 2, 95, 100
4, 9360, Note_on_c, 2, 93, 127
4, 9404, Note_off_c, 2, 93, 100
4, 9408, Note_on_c, 2, 95, 127
4, 9436, Note_off_c, 2, 95, 100
4, 9696, Note_on_c, 2, 88, 127
4, 9740, Note_off_c, 2, 88, 100
4, 9744, Note_on_c, 2, 86, 127
4, 9788, Note_off_c, 2, 86, 100
4, 9792, Note_on_c, 2, 88, 127
4, 9820, Note_off_c, 2, 88, 100
4, 10080, Note_on_c, 2, 81, 127
4, 10124, Note_off_c, 2, 81, 100
4, 10128, Note_on_c, 2, 79, 127
4, 10172, Note_off_c, 2, 79, 100
4, 10176, Note_on_c, 2, 81, 127
4, 10204, Note_off_c, 2, 81, 100
4, 10464, Note_on_c, 2, 93, 127
4, 10508, Note_off_c, 2, 93, 100
4, 10512, Note_on_c, 2, 91, 127
4, 10556, Note_off_c, 2, 91, 100
4, 10560, Note_on_c, 2, 93, 127
4, 10588, Note_off_c, 2, 93, 100
4, 10848, Note_on_c, 2, 86, 127
4, 10892, Note_off_c, 2, 86, 100
4, 10896, Note_on_c, 2, 85, 127
4, 10940, Note_off_c, 2, 85, 100
4, 10944, Note_on_c, 2, 86, 127
4, 10972, Note_off_c, 2, 86, 100
4, 11232, Note_on_c, 2, 79, 127
4, 11276, Note_off_c, 2, 79, 100
4, 11280, Note_on_c, 2, 78, 127
4, 11324, Note_off_c, 2, 78, 100
4, 11328, Note_on_c, 2, 79, 127
4, 11356, Note_off_c, 2, 79, 100
4, 11616, Note_on_c, 2, 91, 127
4, 11660, Note_off_c, 2, 91, 100
4, 11664, Note_on_c, 2, 90, 127
4, 11708, Note_off_c, 2, 90, 100
4, 11712, Note_on_c, 2, 91, 127
4, 11740, Note_off_c, 2, 91, 100
4, 12000, Note_on_c, 2, 83, 127
4, 12044, Note_off_c, 2, 83, 100
4, 12048, Note_on_c, 2, 81, 127
4, 12092, Note_off_c, 2, 81, 100
4, 12096, Note_on_c, 2, 83, 127
4, 12124, Note_off_c, 2, 83, 100
4, 12384, Note_on_c, 2, 76, 127
4, 12428, Note_off_c, 2, 76, 100
4, 12432, Note_on_c, 2, 74, 127
4, 12476, Note_off_c, 2, 74, 100
4, 12480, Note_on_c, 2, 76, 127
4, 12508, Note_off_c, 2, 76, 100
4, 12768, Note_on_c, 2, 67, 127
4, 12812, Note_off_c, 2, 67, 100
4, 12816, Note_on_c, 2, 66, 127
4, 12860, Note_off_c, 2, 66, 100
4, 12864, Note_on_c, 2, 67, 127
4, 12892, Note_off_c, 2, 67, 100
4, 13152, Note_on_c, 2, 61, 127
4, 13196, Note_off_c, 2, 61, 100
4, 13200, Note_on_c, 2, 59, 127
4, 13244, Note_off_c, 2, 59, 100
4, 13248, Note_on_c, 2, 61, 127
4, 13276, Note_off_c, 2, 61, 100
4, 13536, Note_on_c, 2, 55, 127
4, 13580, Note_off_c, 2, 55, 100
4, 13584, Note_on_c, 2, 54, 127
4, 13628, Note_off_c, 2, 54, 100
4, 13632, Note_on_c, 2, 55, 127
4, 13660, Note_off_c, 2, 55, 100
4, 13872, Note_on_c, 2, 74, 127
4, 13916, Note_off_c, 2, 74, 100
4, 13920, Note_on_c, 2, 76, 127
4, 13964, Note_off_c, 2, 76, 100
4, 13968, Note_on_c, 2, 78, 127
4, 14012, Note_off_c, 2, 78, 100
4, 14016, Note_on_c, 2, 81, 127
4, 14060, Note_off_c, 2, 81, 100
4, 14064, Note_on_c, 2, 78, 127
4, 14108, Note_off_c, 2, 78, 100
4, 14112, Note_on_c, 2, 76, 127
4, 14156, Note_off_c, 2, 76, 100
4, 14160, Note_on_c, 2, 74, 127
4, 14192, Note_off_c, 2, 74, 100
4, 14256, Note_on_c, 2, 74, 127
4, 14300, Note_off_c, 2, 74, 100
4, 14304, Note_on_c, 2, 76, 127
4, 14348, Note_off_c, 2, 76, 100
4, 14352, Note_on_c, 2, 78, 127
4, 14396, Note_off_c, 2, 78, 100
4, 14400, Note_on_c, 2, 81, 127
4, 14444, Note_off_c, 2, 81, 100
4, 14448, Note_on_c, 2, 78, 127
4, 14492, Note_off_c, 2, 78, 100
4, 14496, Note_on_c, 2, 76, 127
4, 14540, Note_off_c, 2, 76, 100
4, 14544, Note_on_c, 2, 74, 127
4, 14576, Note_off_c, 2, 74, 100
4, 14640, Note_on_c, 2, 74, 127
4, 14684, Note_off_c, 2, 74, 100
4, 14688, Note_on_c, 2, 76, 127
4, 14732, Note_off_c, 2, 76, 100
4, 14736, Note_on_c, 2, 78, 127
4, 14780, Note_off_c, 2, 78, 100
4, 14784, Note_on_c, 2, 81, 127
4, 14828, Note_off_c, 2, 81, 100
4, 14832, Note_on_c, 2, 78, 127
4, 14876, Note_off_c, 2, 78, 100
4, 14880, Note_on_c, 2, 76, 127
4, 14924, Note_off_c, 2, 76, 100
4, 14928, Note_on_c, 2, 74, 127
4, 14960, Note_off_c, 2, 74, 100
4, 14976, Note_on_c, 2, 83, 127
4, 15036, Note_off_c, 2, 83, 100
4, 15360, Note_on_c, 2, 65, 127
4, 15420, Note_off_c, 2, 65, 100
4, 15744, Note_on_c, 2, 64, 127
4, 15804, Note_off_c, 2, 64, 100
4, 16224, Note_on_c, 2, 76, 127
4, 16268, Note_off_c, 2, 76, 100
4, 16272, Note_on_c, 2, 74, 127
4, 16316, Note_off_c, 2, 74, 100
4, 16320, Note_on_c, 2, 76, 127
4, 16348, Note_off_c, 2, 76, 100
4, 16416, Note_on_c, 2, 81, 127
4, 16460, Note_off_c, 2, 81, 100
4, 16464, Note_on_c, 2, 79, 127
4, 16508, Note_off_c, 2, 79, 100
4, 16512, Note_on_c, 2, 81, 127
4, 16540, Note_off_c, 2, 81, 100
4, 16608, Note_on_c, 2, 74, 127
4, 16652, Note_off_c, 2, 74, 100
4, 16656, Note_on_c, 2, 73, 127
4, 16700, Note_off_c, 2, 73, 100
4, 16704, Note_on_c, 2, 74, 127
4, 16732, Note_off_c, 2, 74, 100
4, 16800, Note_on_c, 2, 79, 127
4, 16844, Note_off_c, 2, 79, 100
4, 16848, Note_on_c, 2, 78, 127
4, 16892, Note_off_c, 2, 78, 100
4, 16896, Note_on_c, 2, 79, 127
4, 16924, Note_off_c, 2, 79, 100
4, 16992, Note_on_c, 2, 73, 127
4, 17036, Note_off_c, 2, 73, 100
4, 17040, Note_on_c, 2, 71, 127
4, 17084, Note_off_c, 2, 71, 100
4, 17088, Note_on_c, 2, 73, 127
4, 17116, Note_off_c, 2, 73, 100
4, 17184, Note_on_c, 2, 78, 127
4, 17228, Note_off_c, 2, 78, 100
4, 17232, Note_on_c, 2, 76, 127
4, 17276, Note_off_c, 2, 76, 100
4, 17280, Note_on_c, 2, 78, 127
4, 17308, Note_off_c, 2, 78, 100
4, 17376, Note_on_c, 2, 74, 127
4, 17468, Note_off_c, 2, 74, 100
4, 17472, Note_on_c, 2, 73, 127
4, 17564, Note_off_c, 2, 73, 100
4, 17568, Note_on_c, 2, 74, 127
4, 17632, Note_off_c, 2, 74, 100
4, 17664, Note_on_c, 2, 78, 127
4, 17708, Note_off_c, 2, 78, 100
4, 17712, Note_on_c, 2, 76, 127
4, 17756, Note_off_c, 2, 76, 100
4, 17760, Note_on_c, 2, 74, 127
4, 17788, Note_off_c, 2, 74, 100
4, 17856, Note_on_c, 2, 81, 127
4, 17900, Note_off_c, 2, 81, 100
4, 17904, Note_on_c, 2, 79, 127
4, 17948, Note_off_c, 2, 79, 100
4, 17952, Note_on_c, 2, 78, 127
4, 17980, Note_off_c, 2, 78, 100
4, 18048, Note_on_c, 2, 86, 127
4, 18236, Note_off_c, 2, 86, 100
4, 36864, Note_on_c, 2, 90, 127
4, 36936, Note_off_c, 2, 90, 100
4, 36960, Note_on_c, 2, 93, 127
4, 37032, Note_off_c, 2, 93, 100
4, 37056, Note_on_c, 2, 98, 127
4, 37128, Note_off_c, 2, 98, 100
4, 37152, Note_on_c, 2, 93, 127
4, 37224, Note_off_c, 2, 93, 100
4, 37248, Note_on_c, 2, 90, 127
4, 37320, Note_off_c, 2, 90, 100
4, 37344, Note_on_c, 2, 93, 127
4, 37416, Note_off_c, 2, 93, 100
4, 37440, Note_on_c, 2, 86, 127
4, 37512, Note_off_c, 2, 86, 100
4, 37536, Note_on_c, 2, 90, 127
4, 37608, Note_off_c, 2, 90, 100
4, 37632, Note_on_c, 2, 93, 127
4, 37704, Note_off_c, 2, 93, 100
4, 37728, Note_on_c, 2, 90, 127
4, 37800, Note_off_c, 2, 90, 100
4, 37824, Note_on_c, 2, 91, 127
4, 37896, Note_off_c, 2, 91, 100
4, 37920, Note_on_c, 2, 93, 127
4, 37992, Note_off_c, 2, 93, 100
4, 38016, Note_on_c, 2, 86, 127
4, 38088, Note_off_c, 2, 86, 100
4, 38112, Note_on_c, 2, 91, 127
4, 38184, Note_off_c, 2, 91, 100
4, 38208, Note_on_c, 2, 95, 127
4, 38280, Note_off_c, 2, 95, 100
4, 38304, Note_on_c, 2, 91, 127
4, 38376, Note_off_c, 2, 91, 100
4, 38400, Note_on_c, 2, 86, 127
4, 38472, Note_off_c, 2, 86, 100
4, 38496, Note_on_c, 2, 91, 127
4, 38568, Note_off_c, 2, 91, 100
4, 38592, Note_on_c, 2, 83, 127
4, 38664, Note_off_c, 2, 83, 100
4, 38688, Note_on_c, 2, 86, 127
4, 38760, Note_off_c, 2, 86, 100
4, 38784, Note_on_c, 2, 91, 127
4, 38856, Note_off_c, 2, 91, 100
4, 38880, Note_on_c, 2, 83, 127
4, 38952, Note_off_c, 2, 83, 100
4, 38976, Note_on_c, 2, 84, 127
4, 39048, Note_off_c, 2, 84, 100
4, 39072, Note_on_c, 2, 86, 127
4, 39144, Note_off_c, 2, 86, 100
4, 39168, Note_on_c, 2, 79, 127
4, 39240, Note_off_c, 2, 79, 100
4, 39264, Note_on_c, 2, 84, 127
4, 39336, Note_off_c, 2, 84, 100
4, 39360, Note_on_c, 2, 88, 127
4, 39432, Note_off_c, 2, 88, 100
4, 39456, Note_on_c, 2, 84, 127
4, 39528, Note_off_c, 2, 84, 100
4, 39552, Note_on_c, 2, 81, 127
4, 39624, Note_off_c, 2, 81, 100
4, 39648, Note_on_c, 2, 84, 127
4, 39720, Note_off_c, 2, 84, 100
4, 39744, Note_on_c, 2, 78, 127
4, 39816, Note_off_c, 2, 78, 100
4, 39840, Note_on_c, 2, 81, 127
4, 39912, Note_off_c, 2, 81, 100
4, 39936, Note_on_c, 2, 84, 127
4, 40008, Note_off_c, 2, 84, 100
4, 40032, Note_on_c, 2, 78, 127
4, 40104, Note_off_c, 2, 78, 100
4, 40128, Note_on_c, 2, 79, 127
4, 40200, Note_off_c, 2, 79, 100
4, 40224, Note_on_c, 2, 81, 127
4, 40296, Note_off_c, 2, 81, 100
4, 40320, Note_on_c, 2, 75, 127
4, 40392, Note_off_c, 2, 75, 100
4, 40416, Note_on_c, 2, 78, 127
4, 40488, Note_off_c, 2, 78, 100
4, 40512, Note_on_c, 2, 83, 127
4, 40584, Note_off_c, 2, 83, 100
4, 40608, Note_on_c, 2, 78, 127
4, 40680, Note_off_c, 2, 78, 100
4, 40704, Note_on_c, 2, 75, 127
4, 40776, Note_off_c, 2, 75, 100
4, 40800, Note_on_c, 2, 78, 127
4, 40872, Note_off_c, 2, 78, 100
4, 40896, Note_on_c, 2, 71, 127
4, 40968, Note_off_c, 2, 71, 100
4, 40992, Note_on_c, 2, 75, 127
4, 41064, Note_off_c, 2, 75, 100
4, 41088, Note_on_c, 2, 78, 127
4, 41160, Note_off_c, 2, 78, 100
4, 41184, Note_on_c, 2, 75, 127
4, 41256, Note_off_c, 2, 75, 100
4, 41280, Note_on_c, 2, 76, 127
4, 41352, Note_off_c, 2, 76, 100
4, 41376, Note_on_c, 2, 78, 127
4, 41448, Note_off_c, 2, 78, 100
4, 41472, Note_on_c, 2, 71, 127
4, 41544, Note_off_c, 2, 71, 100
4, 41568, Note_on_c, 2, 76, 127
4, 41640, Note_off_c, 2, 76, 100
4, 41664, Note_on_c, 2, 79, 127
4, 41736, Note_off_c, 2, 79, 100
4, 41760, Note_on_c, 2, 76, 127
4, 41832, Note_off_c, 2, 76, 100
4, 41856, Note_on_c, 2, 71, 127
4, 41928, Note_off_c, 2, 71, 100
4, 41952, Note_on_c, 2, 76, 127
4, 42024, Note_off_c, 2, 76, 100
4, 42048, Note_on_c, 2, 67, 127
4, 42120, Note_off_c, 2, 67, 100
4, 42144, Note_on_c, 2, 71, 127
4, 42216, Note_off_c, 2, 71, 100
4, 42240, Note_on_c, 2, 76, 127
4, 42312, Note_off_c, 2, 76, 100
4, 42336, Note_on_c, 2, 75, 127
4, 42408, Note_off_c, 2, 75, 100
4, 42432, Note_on_c, 2, 76, 127
4, 42504, Note_off_c, 2, 76, 100
4, 42528, Note_on_c, 2, 79, 127
4, 42600, Note_off_c, 2, 79, 100
4, 42624, Note_on_c, 2, 72, 127
4, 42696, Note_off_c, 2, 72, 100
4, 42720, Note_on_c, 2, 77, 127
4, 42792, Note_off_c, 2, 77, 100
4, 42816, Note_on_c, 2, 81, 127
4, 42888, Note_off_c, 2, 81, 100
4, 42912, Note_on_c, 2, 77, 127
4, 42984, Note_off_c, 2, 77, 100
4, 43008, Note_on_c, 2, 72, 127
4, 43080, Note_off_c, 2, 72, 100
4, 43104, Note_on_c, 2, 77, 127
4, 43176, Note_off_c, 2, 77, 100
4, 43200, Note_on_c, 2, 69, 127
4, 43272, Note_off_c, 2, 69, 100
4, 43296, Note_on_c, 2, 72, 127
4, 43368, Note_off_c, 2, 72, 100
4, 43392, Note_on_c, 2, 77, 127
4, 43464, Note_off_c, 2, 77, 100
4, 43488, Note_on_c, 2, 76, 127
4, 43560, Note_off_c, 2, 76, 100
4, 43584, Note_on_c, 2, 77, 127
4, 43656, Note_off_c, 2, 77, 100
4, 43680, Note_on_c, 2, 81, 127
4, 43752, Note_off_c, 2, 81, 100
4, 43776, Note_on_c, 2, 75, 127
4, 43848, Note_off_c, 2, 75, 100
4, 43872, Note_on_c, 2, 78, 127
4, 43944, Note_off_c, 2, 78, 100
4, 43968, Note_on_c, 2, 81, 127
4, 44040, Note_off_c, 2, 81, 100
4, 44064, Note_on_c, 2, 78, 127
4, 44136, Note_off_c, 2, 78, 100
4, 44160, Note_on_c, 2, 75, 127
4, 44232, Note_off_c, 2, 75, 100
4, 44256, Note_on_c, 2, 78, 127
4, 44328, Note_off_c, 2, 78, 100
4, 44352, Note_on_c, 2, 71, 127
4, 44424, Note_off_c, 2, 71, 100
4, 44448, Note_on_c, 2, 75, 127
4, 44520, Note_off_c, 2, 75, 100
4, 44544, Note_on_c, 2, 66, 127
4, 44616, Note_off_c, 2, 66, 100
4, 44640, Note_on_c, 2, 69, 127
4, 44712, Note_off_c, 2, 69, 100
4, 44736, Note_on_c, 2, 67, 127
4, 44808, Note_off_c, 2, 67, 100
4, 44832, Note_on_c, 2, 66, 127
4, 44904, Note_off_c, 2, 66, 100
4, 44928, Note_on_c, 2, 67, 127
4, 45000, Note_off_c, 2, 67, 100
4, 45024, Note_on_c, 2, 71, 127
4, 45096, Note_off_c, 2, 71, 100
4, 45120, Note_on_c, 2, 76, 127
4, 45192, Note_off_c, 2, 76, 100
4, 45216, Note_on_c, 2, 71, 127
4, 45288, Note_off_c, 2, 71, 100
4, 45312, Note_on_c, 2, 67, 127
4, 45384, Note_off_c, 2, 67, 100
4, 45408, Note_on_c, 2, 71, 127
4, 45480, Note_off_c, 2, 71, 100
4, 45504, Note_on_c, 2, 64, 127
4, 45576, Note_off_c, 2, 64, 100
4, 45600, Note_on_c, 2, 66, 127
4, 45672, Note_off_c, 2, 66, 100
4, 45696, Note_on_c, 2, 67, 127
4, 45768, Note_off_c, 2, 67, 100
4, 45792, Note_on_c, 2, 64, 127
4, 45864, Note_off_c, 2, 64, 100
4, 45888, Note_on_c, 2, 67, 127
4, 45960, Note_off_c, 2, 67, 100
4, 45984, Note_on_c, 2, 71, 127
4, 46056, Note_off_c, 2, 71, 100
4, 46080, Note_on_c, 2, 76, 127
4, 46140, Note_off_c, 2, 76, 100
4, 46368, Note_on_c, 2, 64, 127
4, 46412, Note_off_c, 2, 64, 100
4, 46416, Note_on_c, 2, 62, 127
4, 46460, Note_off_c, 2, 62, 100
4, 46464, Note_on_c, 2, 64, 127
4, 46524, Note_off_c, 2, 64, 100
4, 46752, Note_on_c, 2, 72, 127
4, 46796, Note_off_c, 2, 72, 100
4, 46800, Note_on_c, 2, 71, 127
4, 46844, Note_off_c, 2, 71, 100
4, 46848, Note_on_c, 2, 72, 127
4, 46908, Note_off_c, 2, 72, 100
4, 47136, Note_on_c, 2, 81, 127
4, 47180, Note_off_c, 2, 81, 100
4, 47184, Note_on_c, 2, 79, 127
4, 47228, Note_off_c, 2, 79, 100
4, 47232, Note_on_c, 2, 81, 127
4, 47292, Note_off_c, 2, 81, 100
4, 47520, Note_on_c, 2, 62, 127
4, 47564, Note_off_c, 2, 62, 100
4, 47568, Note_on_c, 2, 60, 127
4, 47612, Note_off_c, 2, 60, 100
4, 47616, Note_on_c, 2, 62, 127
4, 47676, Note_off_c, 2, 62, 100
4, 47904, Note_on_c, 2, 71, 127
4, 47948, Note_off_c, 2, 71, 100
4, 47952, Note_on_c, 2, 69, 127
4, 47996, Note_off_c, 2, 69, 100
4, 48000, Note_on_c, 2, 71, 127
4, 48060, Note_off_c, 2, 71, 100
4, 48288, Note_on_c, 2, 79, 127
4, 48332, Note_off_c, 2, 79, 100
4, 48336, Note_on_c, 2, 78, 127
4, 48380, Note_off_c, 2, 78, 100
4, 48384, Note_on_c, 2, 79, 127
4, 48444, Note_off_c, 2, 79, 100
4, 48672, Note_on_c, 2, 60, 127
4, 48716, Note_off_c, 2, 60, 100
4, 48720, Note_on_c, 2, 59, 127
4, 48764, Note_off_c, 2, 59, 100
4, 48768, Note_on_c, 2, 60, 127
4, 48828, Note_off_c, 2, 60, 100
4, 49056, Note_on_c, 2, 69, 127
4, 49100, Note_off_c, 2, 69, 100
4, 49104, Note_on_c, 2, 67, 127
4, 49148, Note_off_c, 2, 67, 100
4, 49152, Note_on_c, 2, 69, 127
4, 49212, Note_off_c, 2, 69, 100
4, 49440, Note_on_c, 2, 78, 127
4, 49484, Note_off_c, 2, 78, 100
4, 49488, Note_on_c, 2, 76, 127
4, 49532, Note_off_c, 2, 76, 100
4, 49536, Note_on_c, 2, 78, 127
4, 49596, Note_off_c, 2, 78, 100
4, 49824, Note_on_c, 2, 86, 127
4, 49868, Note_off_c, 2, 86, 100
4, 49872, Note_on_c, 2, 84, 127
4, 49916, Note_off_c, 2, 84, 100
4, 49920, Note_on_c, 2, 86, 127
4, 49948, Note_off_c, 2, 86, 100
4, 50208, Note_on_c, 2, 91, 127
4, 50252, Note_off_c, 2, 91, 100
4, 50256, Note_on_c, 2, 90, 127
4, 50300, Note_off_c, 2, 90, 100
4, 50304, Note_on_c, 2, 91, 127
4, 50332, Note_off_c, 2, 91, 100
4, 50592, Note_on_c, 2, 95, 127
4, 50636, Note_off_c, 2, 95, 100
4, 50640, Note_on_c, 2, 93, 127
4, 50684, Note_off_c, 2, 93, 100
4, 50688, Note_on_c, 2, 95, 127
4, 50748, Note_off_c, 2, 95, 100
4, 51072, Note_on_c, 2, 74, 127
4, 51132, Note_off_c, 2, 74, 100
4, 51456, Note_on_c, 2, 77, 127
4, 51516, Note_off_c, 2, 77, 100
4, 51888, Note_on_c, 2, 76, 127
4, 51932, Note_off_c, 2, 76, 100
4, 51936, Note_on_c, 2, 77, 127
4, 51980, Note_off_c, 2, 77, 100
4, 51984, Note_on_c, 2, 79, 127
4, 52028, Note_off_c, 2, 79, 100
4, 52032, Note_on_c, 2, 84, 127
4, 52076, Note_off_c, 2, 84, 100
4, 52080, Note_on_c, 2, 79, 127
4, 52124, Note_off_c, 2, 79, 100
4, 52128, Note_on_c, 2, 77, 127
4, 52172, Note_off_c, 2, 77, 100
4, 52176, Note_on_c, 2, 76, 127
4, 52208, Note_off_c, 2, 76, 100
4, 52272, Note_on_c, 2, 78, 127
4, 52316, Note_off_c, 2, 78, 100
4, 52320, Note_on_c, 2, 79, 127
4, 52364, Note_off_c, 2, 79, 100
4, 52368, Note_on_c, 2, 81, 127
4, 52412, Note_off_c, 2, 81, 100
4, 52416, Note_on_c, 2, 84, 127
4, 52460, Note_off_c, 2, 84, 100
4, 52464, Note_on_c, 2, 81, 127
4, 52508, Note_off_c, 2, 81, 100
4, 52512, Note_on_c, 2, 79, 127
4, 52556, Note_off_c, 2, 79, 100
4, 52560, Note_on_c, 2, 78, 127
4, 52592, Note_off_c, 2, 78, 100
4, 52656, Note_on_c, 2, 79, 127
4, 52700, Note_off_c, 2, 79, 100
4, 52704, Note_on_c, 2, 81, 127
4, 52748, Note_off_c, 2, 81, 100
4, 52752, Note_on_c, 2, 82, 127
4, 52796, Note_off_c, 2, 82, 100
4, 52800, Note_on_c, 2, 85, 127
4, 52844, Note_off_c, 2, 85, 100
4, 52848, Note_on_c, 2, 82, 127
4, 52892, Note_off_c, 2, 82, 100
4, 52896, Note_on_c, 2, 81, 127
4, 52940, Note_off_c, 2, 81, 100
4, 52944, Note_on_c, 2, 79, 127
4, 52976, Note_off_c, 2, 79, 100
4, 52992, Note_on_c, 2, 86, 127
4, 53020, Note_off_c, 2, 86, 100
4, 53088, Note_on_c, 2, 84, 127
4, 53132, Note_off_c, 2, 84, 100
4, 53136, Note_on_c, 2, 83, 127
4, 53180, Note_off_c, 2, 83, 100
4, 53184, Note_on_c, 2, 84, 127
4, 53212, Note_off_c, 2, 84, 100
4, 53280, Note_on_c, 2, 83, 127
4, 53324, Note_off_c, 2, 83, 100
4, 53328, Note_on_c, 2, 81, 127
4, 53372, Note_off_c, 2, 81, 100
4, 53376, Note_on_c, 2, 83, 127
4, 53404, Note_off_c, 2, 83, 100
4, 53472, Note_on_c, 2, 82, 127
4, 53516, Note_off_c, 2, 82, 100
4, 53520, Note_on_c, 2, 81, 127
4, 53564, Note_off_c, 2, 81, 100
4, 53568, Note_on_c, 2, 82, 127
4, 53596, Note_off_c, 2, 82, 100
4, 53664, Note_on_c, 2, 81, 127
4, 53708, Note_off_c, 2, 81, 100
4, 53712, Note_on_c, 2, 79, 127
4, 53756, Note_off_c, 2, 79, 100
4, 53760, Note_on_c, 2, 81, 127
4, 53788, Note_off_c, 2, 81, 100
4, 53856, Note_on_c, 2, 86, 127
4, 53900, Note_off_c, 2, 86, 100
4, 53904, Note_on_c, 2, 84, 127
4, 53948, Note_off_c, 2, 84, 100
4, 53952, Note_on_c, 2, 86, 127
4, 53980, Note_off_c, 2, 86, 100
4, 54048, Note_on_c, 2, 79, 127
4, 54092, Note_off_c, 2, 79, 100
4, 54096, Note_on_c, 2, 78, 127
4, 54140, Note_off_c, 2, 78, 100
4, 54144, Note_on_c, 2, 79, 127
4, 54188, Note_off_c, 2, 79, 100
4, 54192, Note_on_c, 2, 81, 127
4, 54236, Note_off_c, 2, 81, 100
4, 54240, Note_on_c, 2, 83, 127
4, 54284, Note_off_c, 2, 83, 100
4, 54288, Note_on_c, 2, 84, 127
4, 54332, Note_off_c, 2, 84, 100
4, 54336, Note_on_c, 2, 86, 127
4, 54380, Note_off_c, 2, 86, 100
4, 54384, Note_on_c, 2, 84, 127
4, 54428, Note_off_c, 2, 84, 100
4, 54432, Note_on_c, 2, 83, 127
4, 54476, Note_off_c, 2, 83, 100
4, 54480, Note_on_c, 2, 81, 127
4, 54524, Note_off_c, 2, 81, 100
4, 54528, Note_on_c, 2, 79, 127
4, 54556, Note_off_c, 2, 79, 100
4, 54624, Note_on_c, 2, 83, 127
4, 54652, Note_off_c, 2, 83, 100
4, 54720, Note_on_c, 2, 74, 127
4, 54748, Note_off_c, 2, 74, 100
4, 54816, Note_on_c, 2, 79, 127
4, 54844, Note_off_c, 2, 79, 100
4, 54912, Note_on_c, 2, 67, 127
4, 55100, Note_off_c, 2, 67, 100
4, 55100, End_track
5, 0, Start_track
5, 0, Title_t, "Var.XIV: Allegro moderato"
5, 0, Control_c, 3, 0, 0
5, 0, Program_c, 3, 6
5, 0, Control_c, 3, 7, 127
5, 0, Control_c, 3, 10, 80
5, 0, Control_c, 3, 91, 127
5, 0, Key_signature, 1, "major"
5, 0, Note_on_c, 3, 47, 96
5, 72, Note_off_c, 3, 47, 100
5, 96, Note_on_c, 3, 43, 96
5, 168, Note_off_c, 3, 43, 100
5, 192, Note_on_c, 3, 38, 96
5, 264, Note_off_c, 3, 38, 100
5, 288, Note_on_c, 3, 43, 96
5, 360, Note_off_c, 3, 43, 100
5, 384, Note_on_c, 3, 47, 96
5, 456, Note_off_c, 3, 47, 100
5, 480, Note_on_c, 3, 43, 96
5, 552, Note_off_c, 3, 43, 100
5, 576, Note_on_c, 3, 50, 96
5, 648, Note_off_c, 3, 50, 100
5, 672, Note_on_c, 3, 47, 96
5, 744, Note_off_c, 3, 47, 100
5, 768, Note_on_c, 3, 43, 96
5, 840, Note_off_c, 3, 43, 100
5, 864, Note_on_c, 3, 47, 96
5, 936, Note_off_c, 3, 47, 100
5, 960, Note_on_c, 3, 45, 96
5, 1032, Note_off_c, 3, 45, 100
5, 1056, Note_on_c, 3, 43, 96
5, 1128, Note_off_c, 3, 43, 100
5, 1152, Note_on_c, 3, 50, 96
5, 1224, Note_off_c, 3, 50, 100
5, 1248, Note_on_c, 3, 45, 96
5, 1320, Note_off_c, 3, 45, 100
5, 1344, Note_on_c, 3, 42, 96
5, 1416, Note_off_c, 3, 42, 100
5, 1440, Note_on_c, 3, 45, 96
5, 1512, Note_off_c, 3, 45, 100
5, 1536, Note_on_c, 3, 50, 96
5, 1608, Note_off_c, 3, 50, 100
5, 1632, Note_on_c, 3, 45, 96
5, 1704, Note_off_c, 3, 45, 100
5, 1728, Note_on_c, 3, 57, 96
5, 1800, Note_off_c, 3, 57, 100
5, 1824, Note_on_c, 3, 54, 96
5, 1896, Note_off_c, 3, 54, 100
5, 1920, Note_on_c, 3, 50, 96
5, 1992, Note_off_c, 3, 50, 100
5, 2016, Note_on_c, 3, 54, 96
5, 2088, Note_off_c, 3, 54, 100
5, 2112, Note_on_c, 3, 52, 96
5, 2184, Note_off_c, 3, 52, 100
5, 2208, Note_on_c, 3, 50, 96
5, 2280, Note_off_c, 3, 50, 100
5, 2304, Note_on_c, 3, 55, 96
5, 2376, Note_off_c, 3, 55, 100
5, 2400, Note_on_c, 3, 52, 96
5, 2472, Note_off_c, 3, 52, 100
5, 2496, Note_on_c, 3, 47, 96
5, 2568, Note_off_c, 3, 47, 100
5, 2592, Note_on_c, 3, 52, 96
5, 2664, Note_off_c, 3, 52, 100
5, 2688, Note_on_c, 3, 55, 96
5, 2760, Note_off_c, 3, 55, 100
5, 2784, Note_on_c, 3, 52, 96
5, 2856, Note_off_c, 3, 52, 100
5, 2880, Note_on_c, 3, 59, 96
5, 2952, Note_off_c, 3, 59, 100
5, 2976, Note_on_c, 3, 55, 96
5, 3048, Note_off_c, 3, 55, 100
5, 3072, Note_on_c, 3, 52, 96
5, 3144, Note_off_c, 3, 52, 100
5, 3168, Note_on_c, 3, 59, 96
5, 3240, Note_off_c, 3, 59, 100
5, 3264, Note_on_c, 3, 57, 96
5, 3336, Note_off_c, 3, 57, 100
5, 3360, Note_on_c, 3, 55, 96
5, 3432, Note_off_c, 3, 55, 100
5, 3456, Note_on_c, 3, 62, 96
5, 3528, Note_off_c, 3, 62, 100
5, 3552, Note_on_c, 3, 57, 96
5, 3624, Note_off_c, 3, 57, 100
5, 3648, Note_on_c, 3, 54, 96
5, 3720, Note_off_c, 3, 54, 100
5, 3744, Note_on_c, 3, 57, 96
5, 3816, Note_off_c, 3, 57, 100
5, 3840, Note_on_c, 3, 62, 96
5, 3912, Note_off_c, 3, 62, 100
5, 3936, Note_on_c, 3, 57, 96
5, 4008, Note_off_c, 3, 57, 100
5, 4032, Note_on_c, 3, 69, 96
5, 4104, Note_off_c, 3, 69, 100
5, 4128, Note_on_c, 3, 66, 96
5, 4200, Note_off_c, 3, 66, 100
5, 4224, Note_on_c, 3, 62, 96
5, 4296, Note_off_c, 3, 62, 100
5, 4320, Note_on_c, 3, 66, 96
5, 4392, Note_off_c, 3, 66, 100
5, 4416, Note_on_c, 3, 64, 96
5, 4488, Note_off_c, 3, 64, 100
5, 4512, Note_on_c, 3, 62, 96
5, 4576, Note_off_c, 3, 62, 100
5, 4608, Note_on_c, 3, 67, 96
5, 4680, Note_off_c, 3, 67, 100
5, 4704, Note_on_c, 3, 62, 96
5, 4776, Note_off_c, 3, 62, 100
5, 4800, Note_on_c, 3, 59, 96
5, 4872, Note_off_c, 3, 59, 100
5, 4896, Note_on_c, 3, 62, 96
5, 4968, Note_off_c, 3, 62, 100
5, 4992, Note_on_c, 3, 67, 96
5, 5064, Note_off_c, 3, 67, 100
5, 5088, Note_on_c, 3, 62, 96
5, 5160, Note_off_c, 3, 62, 100
5, 5184, Note_on_c, 3, 71, 96
5, 5256, Note_off_c, 3, 71, 100
5, 5280, Note_on_c, 3, 67, 96
5, 5352, Note_off_c, 3, 67, 100
5, 5376, Note_on_c, 3, 62, 96
5, 5448, Note_off_c, 3, 62, 100
5, 5472, Note_on_c, 3, 65, 96
5, 5544, Note_off_c, 3, 65, 100
5, 5568, Note_on_c, 3, 64, 96
5, 5640, Note_off_c, 3, 64, 100
5, 5664, Note_on_c, 3, 62, 96
5, 5736, Note_off_c, 3, 62, 100
5, 5760, Note_on_c, 3, 64, 96
5, 5832, Note_off_c, 3, 64, 100
5, 5856, Note_on_c, 3, 60, 96
5, 5928, Note_off_c, 3, 60, 100
5, 5952, Note_on_c, 3, 55, 96
5, 6024, Note_off_c, 3, 55, 100
5, 6048, Note_on_c, 3, 60, 96
5, 6120, Note_off_c, 3, 60, 100
5, 6144, Note_on_c, 3, 64, 96
5, 6216, Note_off_c, 3, 64, 100
5, 6240, Note_on_c, 3, 60, 96
5, 6312, Note_off_c, 3, 60, 100
5, 6336, Note_on_c, 3, 67, 96
5, 6408, Note_off_c, 3, 67, 100
5, 6432, Note_on_c, 3, 64, 96
5, 6504, Note_off_c, 3, 64, 100
5, 6528, Note_on_c, 3, 60, 96
5, 6600, Note_off_c, 3, 60, 100
5, 6624, Note_on_c, 3, 62, 96
5, 6696, Note_off_c, 3, 62, 100
5, 6720, Note_on_c, 3, 60, 96
5, 6792, Note_off_c, 3, 60, 100
5, 6816, Note_on_c, 3, 59, 96
5, 6888, Note_off_c, 3, 59, 100
5, 6912, Note_on_c, 3, 57, 96
5, 6984, Note_off_c, 3, 57, 100
5, 7008, Note_on_c, 3, 54, 96
5, 7080, Note_off_c, 3, 54, 100
5, 7104, Note_on_c, 3, 50, 96
5, 7176, Note_off_c, 3, 50, 100
5, 7200, Note_on_c, 3, 54, 96
5, 7272, Note_off_c, 3, 54, 100
5, 7296, Note_on_c, 3, 57, 96
5, 7368, Note_off_c, 3, 57, 100
5, 7392, Note_on_c, 3, 54, 96
5, 7464, Note_off_c, 3, 54, 100
5, 7488, Note_on_c, 3, 62, 96
5, 7560, Note_off_c, 3, 62, 100
5, 7584, Note_on_c, 3, 57, 96
5, 7656, Note_off_c, 3, 57, 100
5, 7680, Note_on_c, 3, 54, 96
5, 7752, Note_off_c, 3, 54, 100
5, 7776, Note_on_c, 3, 57, 96
5, 7848, Note_off_c, 3, 57, 100
5, 7872, Note_on_c, 3, 55, 96
5, 7944, Note_off_c, 3, 55, 100
5, 7968, Note_on_c, 3, 54, 96
5, 8040, Note_off_c, 3, 54, 100
5, 8064, Note_on_c, 3, 55, 96
5, 8136, Note_off_c, 3, 55, 100
5, 8160, Note_on_c, 3, 50, 96
5, 8232, Note_off_c, 3, 50, 100
5, 8256, Note_on_c, 3, 47, 96
5, 8328, Note_off_c, 3, 47, 100
5, 8352, Note_on_c, 3, 50, 96
5, 8424, Note_off_c, 3, 50, 100
5, 8448, Note_on_c, 3, 55, 96
5, 8520, Note_off_c, 3, 55, 100
5, 8544, Note_on_c, 3, 50, 96
5, 8616, Note_off_c, 3, 50, 100
5, 8640, Note_on_c, 3, 59, 96
5, 8712, Note_off_c, 3, 59, 100
5, 8736, Note_on_c, 3, 55, 96
5, 8808, Note_off_c, 3, 55, 100
5, 8832, Note_on_c, 3, 62, 96
5, 8904, Note_off_c, 3, 62, 100
5, 8928, Note_on_c, 3, 60, 96
5, 9000, Note_off_c, 3, 60, 100
5, 9024, Note_on_c, 3, 59, 96
5, 9096, Note_off_c, 3, 59, 100
5, 9120, Note_on_c, 3, 57, 96
5, 9192, Note_off_c, 3, 57, 100
5, 9216, Note_on_c, 3, 55, 96
5, 9276, Note_off_c, 3, 55, 100
5, 9504, Note_on_c, 3, 67, 96
5, 9548, Note_off_c, 3, 67, 100
5, 9552, Note_on_c, 3, 66, 96
5, 9596, Note_off_c, 3, 66, 100
5, 9600, Note_on_c, 3, 67, 96
5, 9628, Note_off_c, 3, 67, 100
5, 9888, Note_on_c, 3, 61, 96
5, 9932, Note_off_c, 3, 61, 100
5, 9936, Note_on_c, 3, 59, 96
5, 9980, Note_off_c, 3, 59, 100
5, 9984, Note_on_c, 3, 61, 96
5, 10012, Note_off_c, 3, 61, 100
5, 10272, Note_on_c, 3, 54, 96
5, 10316, Note_off_c, 3, 54, 100
5, 10320, Note_on_c, 3, 52, 96
5, 10364, Note_off_c, 3, 52, 100
5, 10368, Note_on_c, 3, 54, 96
5, 10396, Note_off_c, 3, 54, 100
5, 10656, Note_on_c, 3, 66, 96
5, 10700, Note_off_c, 3, 66, 100
5, 10704, Note_on_c, 3, 64, 96
5, 10748, Note_off_c, 3, 64, 100
5, 10752, Note_on_c, 3, 66, 96
5, 10780, Note_off_c, 3, 66, 100
5, 11040, Note_on_c, 3, 59, 96
5, 11084, Note_off_c, 3, 59, 100
5, 11088, Note_on_c, 3, 57, 96
5, 11132, Note_off_c, 3, 57, 100
5, 11136, Note_on_c, 3, 59, 96
5, 11164, Note_off_c, 3, 59, 100
5, 11424, Note_on_c, 3, 52, 96
5, 11468, Note_off_c, 3, 52, 100
5, 11472, Note_on_c, 3, 50, 96
5, 11516, Note_off_c, 3, 50, 100
5, 11520, Note_on_c, 3, 52, 96
5, 11548, Note_off_c, 3, 52, 100
5, 11808, Note_on_c, 3, 64, 96
5, 11852, Note_off_c, 3, 64, 100
5, 11856, Note_on_c, 3, 62, 96
5, 11900, Note_off_c, 3, 62, 100
5, 11904, Note_on_c, 3, 64, 96
5, 11932, Note_off_c, 3, 64, 100
5, 12192, Note_on_c, 3, 55, 96
5, 12236, Note_off_c, 3, 55, 100
5, 12240, Note_on_c, 3, 54, 96
5, 12284, Note_off_c, 3, 54, 100
5, 12288, Note_on_c, 3, 55, 96
5, 12316, Note_off_c, 3, 55, 100
5, 12576, Note_on_c, 3, 49, 96
5, 12620, Note_off_c, 3, 49, 100
5, 12624, Note_on_c, 3, 47, 96
5, 12668, Note_off_c, 3, 47, 100
5, 12672, Note_on_c, 3, 49, 96
5, 12700, Note_off_c, 3, 49, 100
5, 12960, Note_on_c, 3, 40, 96
5, 13004, Note_off_c, 3, 40, 100
5, 13008, Note_on_c, 3, 38, 96
5, 13052, Note_off_c, 3, 38, 100
5, 13056, Note_on_c, 3, 40, 96
5, 13084, Note_off_c, 3, 40, 100
5, 13344, Note_on_c, 3, 33, 96
5, 13388, Note_off_c, 3, 33, 100
5, 13392, Note_on_c, 3, 31, 96
5, 13436, Note_off_c, 3, 31, 100
5, 13440, Note_on_c, 3, 33, 96
5, 13468, Note_off_c, 3, 33, 100
5, 13728, Note_on_c, 3, 30, 96
5, 13772, Note_off_c, 3, 30, 100
5, 13776, Note_on_c, 3, 28, 96
5, 13820, Note_off_c, 3, 28, 100
5, 13824, Note_on_c, 3, 30, 96
5, 13852, Note_off_c, 3, 30, 100
5, 14208, Note_on_c, 3, 62, 96
5, 14268, Note_off_c, 3, 62, 100
5, 14592, Note_on_c, 3, 60, 96
5, 14652, Note_off_c, 3, 60, 100
5, 15024, Note_on_c, 3, 43, 96
5, 15068, Note_off_c, 3, 43, 100
5, 15072, Note_on_c, 3, 45, 96
5, 15116, Note_off_c, 3, 45, 100
5, 15120, Note_on_c, 3, 47, 96
5, 15164, Note_off_c, 3, 47, 100
5, 15168, Note_on_c, 3, 50, 96
5, 15212, Note_off_c, 3, 50, 100
5, 15216, Note_on_c, 3, 47, 96
5, 15260, Note_off_c, 3, 47, 100
5, 15264, Note_on_c, 3, 45, 96
5, 15308, Note_off_c, 3, 45, 100
5, 15312, Note_on_c, 3, 43, 96
5, 15344, Note_off_c, 3, 43, 100
5, 15408, Note_on_c, 3, 43, 96
5, 15452, Note_off_c, 3, 43, 100
5, 15456, Note_on_c, 3, 45, 96
5, 15500, Note_off_c, 3, 45, 100
5, 15504, Note_on_c, 3, 46, 96
5, 15548, Note_off_c, 3, 46, 100
5, 15552, Note_on_c, 3, 50, 96
5, 15596, Note_off_c, 3, 50, 100
5, 15600, Note_on_c, 3, 46, 96
5, 15644, Note_off_c, 3, 46, 100
5, 15648, Note_on_c, 3, 45, 96
5, 15692, Note_off_c, 3, 45, 100
5, 15696, Note_on_c, 3, 43, 96
5, 15728, Note_off_c, 3, 43, 100
5, 15792, Note_on_c, 3, 44, 96
5, 15836, Note_off_c, 3, 44, 100
5, 15840, Note_on_c, 3, 45, 96
5, 15884, Note_off_c, 3, 45, 100
5, 15888, Note_on_c, 3, 47, 96
5, 15932, Note_off_c, 3, 47, 100
5, 15936, Note_on_c, 3, 50, 96
5, 15980, Note_off_c, 3, 50, 100
5, 15984, Note_on_c, 3, 47, 96
5, 16028, Note_off_c, 3, 47, 100
5, 16032, Note_on_c, 3, 45, 96
5, 16076, Note_off_c, 3, 45, 100
5, 16080, Note_on_c, 3, 44, 96
5, 16112, Note_off_c, 3, 44, 100
5, 16128, Note_on_c, 3, 45, 96
5, 16156, Note_off_c, 3, 45, 100
5, 16224, Note_on_c, 3, 49, 96
5, 16268, Note_off_c, 3, 49, 100
5, 16272, Note_on_c, 3, 47, 96
5, 16316, Note_off_c, 3, 47, 100
5, 16320, Note_on_c, 3, 49, 96
5, 16348, Note_off_c, 3, 49, 100
5, 16416, Note_on_c, 3, 42, 96
5, 16460, Note_off_c, 3, 42, 100
5, 16464, Note_on_c, 3, 40, 96
5, 16508, Note_off_c, 3, 40, 100
5, 16512, Note_on_c, 3, 42, 96
5, 16540, Note_off_c, 3, 42, 100
5, 16608, Note_on_c, 3, 47, 96
5, 16652, Note_off_c, 3, 47, 100
5, 16656, Note_on_c, 3, 45, 96
5, 16700, Note_off_c, 3, 45, 100
5, 16704, Note_on_c, 3, 47, 96
5, 16732, Note_off_c, 3, 47, 100
5, 16800, Note_on_c, 3, 40, 96
5, 16844, Note_off_c, 3, 40, 100
5, 16848, Note_on_c, 3, 38, 96
5, 16892, Note_off_c, 3, 38, 100
5, 16896, Note_on_c, 3, 40, 96
5, 16924, Note_off_c, 3, 40, 100
5, 16992, Note_on_c, 3, 45, 96
5, 17036, Note_off_c, 3, 45, 100
5, 17040, Note_on_c, 3, 43, 96
5, 17084, Note_off_c, 3, 43, 100
5, 17088, Note_on_c, 3, 45, 96
5, 17116, Note_off_c, 3, 45, 100
5, 17184, Note_on_c, 3, 38, 96
5, 17228, Note_off_c, 3, 38, 100
5, 17232, Note_on_c, 3, 36, 96
5, 17276, Note_off_c, 3, 36, 100
5, 17280, Note_on_c, 3, 38, 96
5, 17324, Note_off_c, 3, 38, 100
5, 17328, Note_on_c, 3, 40, 96
5, 17372, Note_off_c, 3, 40, 100
5, 17376, Note_on_c, 3, 42, 96
5, 17420, Note_off_c, 3, 42, 100
5, 17424, Note_on_c, 3, 43, 96
5, 17468, Note_off_c, 3, 43, 100
5, 17472, Note_on_c, 3, 45, 96
5, 17516, Note_off_c, 3, 45, 100
5, 17520, Note_on_c, 3, 43, 96
5, 17564, Note_off_c, 3, 43, 100
5, 17568, Note_on_c, 3, 42, 96
5, 17612, Note_off_c, 3, 42, 100
5, 17616, Note_on_c, 3, 40, 96
5, 17660, Note_off_c, 3, 40, 100
5, 17664, Note_on_c, 3, 38, 96
5, 17692, Note_off_c, 3, 38, 100
5, 17760, Note_on_c, 3, 42, 96
5, 17788, Note_off_c, 3, 42, 100
5, 17856, Note_on_c, 3, 33, 96
5, 17884, Note_off_c, 3, 33, 100
5, 17952, Note_on_c, 3, 38, 96
5, 17980, Note_off_c, 3, 38, 100
5, 18048, Note_on_c, 3, 26, 96
5, 18236, Note_off_c, 3, 26, 100
5, 36864, Note_on_c, 3, 38, 96
5, 36924, Note_off_c, 3, 38, 100
5, 37248, Note_on_c, 3, 71, 96
5, 37292, Note_off_c, 3, 71, 100
5, 37296, Note_on_c, 3, 72, 96
5, 37340, Note_off_c, 3, 72, 100
5, 37344, Note_on_c, 3, 74, 96
5, 37388, Note_off_c, 3, 74, 100
5, 37392, Note_on_c, 3, 72, 96
5, 37436, Note_off_c, 3, 72, 100
5, 37440, Note_on_c, 3, 74, 96
5, 37484, Note_off_c, 3, 74, 100
5, 37488, Note_on_c, 3, 72, 96
5, 37532, Note_off_c, 3, 72, 100
5, 37536, Note_on_c, 3, 74, 96
5, 37580, Note_off_c, 3, 74, 100
5, 37584, Note_on_c, 3, 72, 96
5, 37628, Note_off_c, 3, 72, 100
5, 37632, Note_on_c, 3, 74, 96
5, 37676, Note_off_c, 3, 74, 100
5, 37680, Note_on_c, 3, 72, 96
5, 37724, Note_off_c, 3, 72, 100
5, 37728, Note_on_c, 3, 74, 96
5, 37772, Note_off_c, 3, 74, 100
5, 37776, Note_on_c, 3, 72, 96
5, 37820, Note_off_c, 3, 72, 100
5, 37824, Note_on_c, 3, 74, 96
5, 37868, Note_off_c, 3, 74, 100
5, 37872, Note_on_c, 3, 72, 96
5, 37916, Note_off_c, 3, 72, 100
5, 37920, Note_on_c, 3, 71, 96
5, 37964, Note_off_c, 3, 71, 100
5, 37968, Note_on_c, 3, 72, 96
5, 38012, Note_off_c, 3, 72, 100
5, 38016, Note_on_c, 3, 71, 96
5, 38076, Note_off_c, 3, 71, 100
5, 38400, Note_on_c, 3, 53, 96
5, 38444, Note_off_c, 3, 53, 100
5, 38448, Note_on_c, 3, 52, 96
5, 38492, Note_off_c, 3, 52, 100
5, 38496, Note_on_c, 3, 53, 96
5, 38780, Note_off_c, 3, 53, 100
5, 38880, Note_on_c, 3, 57, 96
5, 38972, Note_off_c, 3, 57, 100
5, 38976, Note_on_c, 3, 55, 96
5, 39068, Note_off_c, 3, 55, 100
5, 39072, Note_on_c, 3, 53, 96
5, 39164, Note_off_c, 3, 53, 100
5, 39168, Note_on_c, 3, 52, 96
5, 39228, Note_off_c, 3, 52, 100
5, 39552, Note_on_c, 3, 66, 96
5, 39740, Note_off_c, 3, 66, 100
5, 39744, Note_on_c, 3, 69, 96
5, 39932, Note_off_c, 3, 69, 100
5, 39936, Note_on_c, 3, 63, 96
5, 40124, Note_off_c, 3, 63, 100
5, 40128, Note_on_c, 3, 64, 96
5, 40220, Note_off_c, 3, 64, 100
5, 40224, Note_on_c, 3, 66, 96
5, 40316, Note_off_c, 3, 66, 100
5, 40320, Note_on_c, 3, 59, 96
5, 40380, Note_off_c, 3, 59, 100
5, 40704, Note_on_c, 3, 31, 96
5, 40748, Note_off_c, 3, 31, 100
5, 40752, Note_on_c, 3, 33, 96
5, 40796, Note_off_c, 3, 33, 100
5, 40800, Note_on_c, 3, 35, 96
5, 40844, Note_off_c, 3, 35, 100
5, 40848, Note_on_c, 3, 33, 96
5, 40892, Note_off_c, 3, 33, 100
5, 40896, Note_on_c, 3, 35, 96
5, 40940, Note_off_c, 3, 35, 100
5, 40944, Note_on_c, 3, 33, 96
5, 40988, Note_off_c, 3, 33, 100
5, 40992, Note_on_c, 3, 35, 96
5, 41036, Note_off_c, 3, 35, 100
5, 41040, Note_on_c, 3, 33, 96
5, 41084, Note_off_c, 3, 33, 100
5, 41088, Note_on_c, 3, 35, 96
5, 41132, Note_off_c, 3, 35, 100
5, 41136, Note_on_c, 3, 33, 96
5, 41180, Note_off_c, 3, 33, 100
5, 41184, Note_on_c, 3, 35, 96
5, 41228, Note_off_c, 3, 35, 100
5, 41232, Note_on_c, 3, 33, 96
5, 41276, Note_off_c, 3, 33, 100
5, 41280, Note_on_c, 3, 35, 96
5, 41324, Note_off_c, 3, 35, 100
5, 41328, Note_on_c, 3, 33, 96
5, 41372, Note_off_c, 3, 33, 100
5, 41376, Note_on_c, 3, 31, 96
5, 41420, Note_off_c, 3, 31, 100
5, 41424, Note_on_c, 3, 33, 96
5, 41468, Note_off_c, 3, 33, 100
5, 41472, Note_on_c, 3, 31, 96
5, 41532, Note_off_c, 3, 31, 100
5, 41664, Note_on_c, 3, 28, 96
5, 41724, Note_off_c, 3, 28, 100
5, 41856, Note_on_c, 3, 31, 96
5, 41916, Note_off_c, 3, 31, 100
5, 42048, Note_on_c, 3, 35, 96
5, 42108, Note_off_c, 3, 35, 100
5, 42240, Note_on_c, 3, 31, 96
5, 42300, Note_off_c, 3, 31, 100
5, 42432, Note_on_c, 3, 28, 96
5, 42492, Note_off_c, 3, 28, 100
5, 42624, Note_on_c, 3, 33, 96
5, 42684, Note_off_c, 3, 33, 100
5, 42816, Note_on_c, 3, 21, 96
5, 42876, Note_off_c, 3, 21, 100
5, 43008, Note_on_c, 3, 33, 96
5, 43068, Note_off_c, 3, 33, 100
5, 43200, Note_on_c, 3, 36, 96
5, 43260, Note_off_c, 3, 36, 100
5, 43392, Note_on_c, 3, 35, 96
5, 43452, Note_off_c, 3, 35, 100
5, 43584, Note_on_c, 3, 33, 96
5, 43644, Note_off_c, 3, 33, 100
5, 43776, Note_on_c, 3, 35, 96
5, 43836, Note_off_c, 3, 35, 100
5, 43968, Note_on_c, 3, 39, 96
5, 44028, Note_off_c, 3, 39, 100
5, 44160, Note_on_c, 3, 42, 96
5, 44220, Note_off_c, 3, 42, 100
5, 44352, Note_on_c, 3, 47, 96
5, 44412, Note_off_c, 3, 47, 100
5, 44544, Note_on_c, 3, 35, 96
5, 44604, Note_off_c, 3, 35, 100
5, 44736, Note_on_c, 3, 52, 96
5, 44828, Note_off_c, 3, 52, 100
5, 44832, Note_on_c, 3, 51, 96
5, 44924, Note_off_c, 3, 51, 100
5, 44928, Note_on_c, 3, 52, 96
5, 44988, Note_off_c, 3, 52, 100
5, 45120, Note_on_c, 3, 55, 96
5, 45180, Note_off_c, 3, 55, 100
5, 45312, Note_on_c, 3, 59, 96
5, 45372, Note_off_c, 3, 59, 100
5, 45504, Note_on_c, 3, 64, 96
5, 45596, Note_off_c, 3, 64, 100
5, 45600, Note_on_c, 3, 63, 96
5, 45692, Note_off_c, 3, 63, 100
5, 45696, Note_on_c, 3, 64, 96
5, 45756, Note_off_c, 3, 64, 100
5, 46176, Note_on_c, 3, 36, 96
5, 46220, Note_off_c, 3, 36, 100
5, 46224, Note_on_c, 3, 35, 96
5, 46268, Note_off_c, 3, 35, 100
5, 46272, Note_on_c, 3, 36, 96
5, 46332, Note_off_c, 3, 36, 100
5, 46560, Note_on_c, 3, 45, 96
5, 46604, Note_off_c, 3, 45, 100
5, 46608, Note_on_c, 3, 44, 96
5, 46652, Note_off_c, 3, 44, 100
5, 46656, Note_on_c, 3, 45, 96
5, 46716, Note_off_c, 3, 45, 100
5, 46944, Note_on_c, 3, 52, 96
5, 46988, Note_off_c, 3, 52, 100
5, 46992, Note_on_c, 3, 50, 96
5, 47036, Note_off_c, 3, 50, 100
5, 47040, Note_on_c, 3, 52, 96
5, 47100, Note_off_c, 3, 52, 100
5, 47328, Note_on_c, 3, 35, 96
5, 47372, Note_off_c, 3, 35, 100
5, 47376, Note_on_c, 3, 33, 96
5, 47420, Note_off_c, 3, 33, 100
5, 47424, Note_on_c, 3, 35, 96
5, 47484, Note_off_c, 3, 35, 100
5, 47712, Note_on_c, 3, 43, 96
5, 47756, Note_off_c, 3, 43, 100
5, 47760, Note_on_c, 3, 42, 96
5, 47804, Note_off_c, 3, 42, 100
5, 47808, Note_on_c, 3, 43, 96
5, 47868, Note_off_c, 3, 43, 100
5, 48096, Note_on_c, 3, 50, 96
5, 48140, Note_off_c, 3, 50, 100
5, 48144, Note_on_c, 3, 48, 96
5, 48188, Note_off_c, 3, 48, 100
5, 48192, Note_on_c, 3, 50, 96
5, 48252, Note_off_c, 3, 50, 100
5, 48480, Note_on_c, 3, 33, 96
5, 48524, Note_off_c, 3, 33, 100
5, 48528, Note_on_c, 3, 31, 96
5, 48572, Note_off_c, 3, 31, 100
5, 48576, Note_on_c, 3, 33, 96
5, 48636, Note_off_c, 3, 33, 100
5, 48864, Note_on_c, 3, 40, 96
5, 48908, Note_off_c, 3, 40, 100
5, 48912, Note_on_c, 3, 38, 96
5, 48956, Note_off_c, 3, 38, 100
5, 48960, Note_on_c, 3, 40, 96
5, 49020, Note_off_c, 3, 40, 100
5, 49248, Note_on_c, 3, 48, 96
5, 49292, Note_off_c, 3, 48, 100
5, 49296, Note_on_c, 3, 47, 96
5, 49340, Note_off_c, 3, 47, 100
5, 49344, Note_on_c, 3, 48, 96
5, 49404, Note_off_c, 3, 48, 100
5, 49632, Note_on_c, 3, 57, 96
5, 49676, Note_off_c, 3, 57, 100
5, 49680, Note_on_c, 3, 55, 96
5, 49724, Note_off_c, 3, 55, 100
5, 49728, Note_on_c, 3, 57, 96
5, 49756, Note_off_c, 3, 57, 100
5, 50016, Note_on_c, 3, 66, 96
5, 50060, Note_off_c, 3, 66, 100
5, 50064, Note_on_c, 3, 64, 96
5, 50108, Note_off_c, 3, 64, 100
5, 50112, Note_on_c, 3, 66, 96
5, 50140, Note_off_c, 3, 66, 100
5, 50400, Note_on_c, 3, 69, 96
5, 50444, Note_off_c, 3, 69, 100
5, 50448, Note_on_c, 3, 67, 96
5, 50492, Note_off_c, 3, 67, 100
5, 50496, Note_on_c, 3, 69, 96
5, 50524, Note_off_c, 3, 69, 100
5, 50736, Note_on_c, 3, 55, 96
5, 50780, Note_off_c, 3, 55, 100
5, 50784, Note_on_c, 3, 57, 96
5, 50828, Note_off_c, 3, 57, 100
5, 50832, Note_on_c, 3, 59, 96
5, 50876, Note_off_c, 3, 59, 100
5, 50880, Note_on_c, 3, 62, 96
5, 50924, Note_off_c, 3, 62, 100
5, 50928, Note_on_c, 3, 59, 96
5, 50972, Note_off_c, 3, 59, 100
5, 50976, Note_on_c, 3, 57, 96
5, 51020, Note_off_c, 3, 57, 100
5, 51024, Note_on_c, 3, 55, 96
5, 51056, Note_off_c, 3, 55, 100
5, 51120, Note_on_c, 3, 55, 96
5, 51164, Note_off_c, 3, 55, 100
5, 51168, Note_on_c, 3, 57, 96
5, 51212, Note_off_c, 3, 57, 100
5, 51216, Note_on_c, 3, 59, 96
5, 51260, Note_off_c, 3, 59, 100
5, 51264, Note_on_c, 3, 62, 96
5, 51308, Note_off_c, 3, 62, 100
5, 51312, Note_on_c, 3, 59, 96
5, 51356, Note_off_c, 3, 59, 100
5, 51360, Note_on_c, 3, 57, 96
5, 51404, Note_off_c, 3, 57, 100
5, 51408, Note_on_c, 3, 55, 96
5, 51440, Note_off_c, 3, 55, 100
5, 51504, Note_on_c, 3, 55, 96
5, 51548, Note_off_c, 3, 55, 100
5, 51552, Note_on_c, 3, 57, 96
5, 51596, Note_off_c, 3, 57, 100
5, 51600, Note_on_c, 3, 59, 96
5, 51644, Note_off_c, 3, 59, 100
5, 51648, Note_on_c, 3, 62, 96
5, 51692, Note_off_c, 3, 62, 100
5, 51696, Note_on_c, 3, 59, 96
5, 51740, Note_off_c, 3, 59, 100
5, 51744, Note_on_c, 3, 57, 96
5, 51788, Note_off_c, 3, 57, 100
5, 51792, Note_on_c, 3, 55, 96
5, 51824, Note_off_c, 3, 55, 100
5, 51840, Note_on_c, 3, 60, 96
5, 51900, Note_off_c, 3, 60, 100
5, 52224, Note_on_c, 3, 45, 96
5, 52284, Note_off_c, 3, 45, 100
5, 52608, Note_on_c, 3, 40, 96
5, 52668, Note_off_c, 3, 40, 100
5, 52992, Note_on_c, 3, 42, 96
5, 53020, Note_off_c, 3, 42, 100
5, 53088, Note_on_c, 3, 45, 96
5, 53132, Note_off_c, 3, 45, 100
5, 53136, Note_on_c, 3, 43, 96
5, 53180, Note_off_c, 3, 43, 100
5, 53184, Note_on_c, 3, 45, 96
5, 53212, Note_off_c, 3, 45, 100
5, 53280, Note_on_c, 3, 50, 96
5, 53324, Note_off_c, 3, 50, 100
5, 53328, Note_on_c, 3, 48, 96
5, 53372, Note_off_c, 3, 48, 100
5, 53376, Note_on_c, 3, 50, 96
5, 53404, Note_off_c, 3, 50, 100
5, 53472, Note_on_c, 3, 43, 96
5, 53516, Note_off_c, 3, 43, 100
5, 53520, Note_on_c, 3, 42, 96
5, 53564, Note_off_c, 3, 42, 100
5, 53568, Note_on_c, 3, 43, 96
5, 53596, Note_off_c, 3, 43, 100
5, 53664, Note_on_c, 3, 48, 96
5, 53708, Note_off_c, 3, 48, 100
5, 53712, Note_on_c, 3, 47, 96
5, 53756, Note_off_c, 3, 47, 100
5, 53760, Note_on_c, 3, 48, 96
5, 53788, Note_off_c, 3, 48, 100
5, 53856, Note_on_c, 3, 42, 96
5, 53900, Note_off_c, 3, 42, 100
5, 53904, Note_on_c, 3, 40, 96
5, 53948, Note_off_c, 3, 40, 100
5, 53952, Note_on_c, 3, 42, 96
5, 53980, Note_off_c, 3, 42, 100
5, 54048, Note_on_c, 3, 47, 96
5, 54092, Note_off_c, 3, 47, 100
5, 54096, Note_on_c, 3, 45, 96
5, 54140, Note_off_c, 3, 45, 100
5, 54144, Note_on_c, 3, 47, 96
5, 54172, Note_off_c, 3, 47, 100
5, 54240, Note_on_c, 3, 43, 96
5, 54332, Note_off_c, 3, 43, 100
5, 54336, Note_on_c, 3, 42, 96
5, 54428, Note_off_c, 3, 42, 100
5, 54432, Note_on_c, 3, 43, 96
5, 54496, Note_off_c, 3, 43, 100
5, 54528, Note_on_c, 3, 47, 96
5, 54572, Note_off_c, 3, 47, 100
5, 54576, Note_on_c, 3, 45, 96
5, 54620, Note_off_c, 3, 45, 100
5, 54624, Note_on_c, 3, 43, 96
5, 54652, Note_off_c, 3, 43, 100
5, 54720, Note_on_c, 3, 50, 96
5, 54764, Note_off_c, 3, 50, 100
5, 54768, Note_on_c, 3, 48, 96
5, 54812, Note_off_c, 3, 48, 100
5, 54816, Note_on_c, 3, 47, 96
5, 54844, Note_off_c, 3, 47, 100
5, 54912, Note_on_c, 3, 55, 96
5, 55100, Note_off_c, 3, 55, 100
5, 55100, End_track
6, 0, Start_track
6, 0, Title_t, "Bruno de Giusti"
6, 0, Control_c, 4, 0, 0
6, 0, Program_c, 4, 6
6, 0, Control_c, 4, 7, 127
6, 0, Control_c, 4, 10, 39
6, 0, Control_c, 4, 91, 127
6, 0, Key_signature, 1, "major"
6, 0, Note_on_c, 4, 31, 96
6, 44, Note_off_c, 4, 31, 100
6, 48, Note_on_c, 4, 30, 96
6, 92, Note_off_c, 4, 30, 100
6, 96, Note_on_c, 4, 31, 96
6, 188, Note_off_c, 4, 31, 100
6, 384, Note_on_c, 4, 66, 96
6, 428, Note_off_c, 4, 66, 100
6, 432, Note_on_c, 4, 67, 96
6, 476, Note_off_c, 4, 67, 100
6, 480, Note_on_c, 4, 69, 96
6, 524, Note_off_c, 4, 69, 100
6, 528, Note_on_c, 4, 67, 96
6, 572, Note_off_c, 4, 67, 100
6, 576, Note_on_c, 4, 69, 96
6, 620, Note_off_c, 4, 69, 100
6, 624, Note_on_c, 4, 67, 96
6, 668, Note_off_c, 4, 67, 100
6, 672, Note_on_c, 4, 69, 96
6, 716, Note_off_c, 4, 69, 100
6, 720, Note_on_c, 4, 67, 96
6, 764, Note_off_c, 4, 67, 100
6, 768, Note_on_c, 4, 69, 96
6, 812, Note_off_c, 4, 69, 100
6, 816, Note_on_c, 4, 67, 96
6, 860, Note_off_c, 4, 67, 100
6, 864, Note_on_c, 4, 69, 96
6, 908, Note_off_c, 4, 69, 100
6, 912, Note_on_c, 4, 67, 96
6, 956, Note_off_c, 4, 67, 100
6, 960, Note_on_c, 4, 69, 96
6, 1004, Note_off_c, 4, 69, 100
6, 1008, Note_on_c, 4, 67, 96
6, 1052, Note_off_c, 4, 67, 100
6, 1056, Note_on_c, 4, 66, 96
6, 1100, Note_off_c, 4, 66, 100
6, 1104, Note_on_c, 4, 67, 96
6, 1148, Note_off_c, 4, 67, 100
6, 1152, Note_on_c, 4, 69, 96
6, 1212, Note_off_c, 4, 69, 100
6, 1536, Note_on_c, 4, 42, 96
6, 1580, Note_off_c, 4, 42, 100
6, 1584, Note_on_c, 4, 40, 96
6, 1628, Note_off_c, 4, 40, 100
6, 1632, Note_on_c, 4, 42, 96
6, 1916, Note_off_c, 4, 42, 100
6, 2016, Note_on_c, 4, 45, 96
6, 2108, Note_off_c, 4, 45, 100
6, 2112, Note_on_c, 4, 43, 96
6, 2204, Note_off_c, 4, 43, 100
6, 2208, Note_on_c, 4, 42, 96
6, 2300, Note_off_c, 4, 42, 100
6, 2304, Note_on_c, 4, 40, 96
6, 2364, Note_off_c, 4, 40, 100
6, 2688, Note_on_c, 4, 64, 96
6, 2876, Note_off_c, 4, 64, 100
6, 2880, Note_on_c, 4, 62, 96
6, 3068, Note_off_c, 4, 62, 100
6, 3072, Note_on_c, 4, 61, 96
6, 3260, Note_off_c, 4, 61, 100
6, 3264, Note_on_c, 4, 62, 96
6, 3356, Note_off_c, 4, 62, 100
6, 3360, Note_on_c, 4, 64, 96
6, 3452, Note_off_c, 4, 64, 100
6, 3456, Note_on_c, 4, 62, 96
6, 3516, Note_off_c, 4, 62, 100
6, 3840, Note_on_c, 4, 35, 96
6, 3884, Note_off_c, 4, 35, 100
6, 3888, Note_on_c, 4, 36, 96
6, 3932, Note_off_c, 4, 36, 100
6, 3936, Note_on_c, 4, 38, 96
6, 3980, Note_off_c, 4, 38, 100
6, 3984, Note_on_c, 4, 36, 96
6, 4028, Note_off_c, 4, 36, 100
6, 4032, Note_on_c, 4, 38, 96
6, 4076, Note_off_c, 4, 38, 100
6, 4080, Note_on_c, 4, 36, 96
6, 4124, Note_off_c, 4, 36, 100
6, 4128, Note_on_c, 4, 38, 96
6, 4172, Note_off_c, 4, 38, 100
6, 4176, Note_on_c, 4, 36, 96
6, 4220, Note_off_c, 4, 36, 100
6, 4224, Note_on_c, 4, 38, 96
6, 4268, Note_off_c, 4, 38, 100
6, 4272, Note_on_c, 4, 36, 96
6, 4316, Note_off_c, 4, 36, 100
6, 4320, Note_on_c, 4, 38, 96
6, 4364, Note_off_c, 4, 38, 100
6, 4368, Note_on_c, 4, 36, 96
6, 4412, Note_off_c, 4, 36, 100
6, 4416, Note_on_c, 4, 38, 96
6, 4460, Note_off_c, 4, 38, 100
6, 4464, Note_on_c, 4, 36, 96
6, 4508, Note_off_c, 4, 36, 100
6, 4512, Note_on_c, 4, 35, 96
6, 4556, Note_off_c, 4, 35, 100
6, 4560, Note_on_c, 4, 36, 96
6, 4604, Note_off_c, 4, 36, 100
6, 4608, Note_on_c, 4, 35, 96
6, 4668, Note_off_c, 4, 35, 100
6, 4800, Note_on_c, 4, 31, 96
6, 4860, Note_off_c, 4, 31, 100
6, 4992, Note_on_c, 4, 35, 96
6, 5052, Note_off_c, 4, 35, 100
6, 5184, Note_on_c, 4, 38, 96
6, 5244, Note_off_c, 4, 38, 100
6, 5376, Note_on_c, 4, 43, 96
6, 5436, Note_off_c, 4, 43, 100
6, 5568, Note_on_c, 4, 35, 96
6, 5628, Note_off_c, 4, 35, 100
6, 5760, Note_on_c, 4, 36, 96
6, 5820, Note_off_c, 4, 36, 100
6, 5952, Note_on_c, 4, 40, 96
6, 6012, Note_off_c, 4, 40, 100
6, 6144, Note_on_c, 4, 43, 96
6, 6204, Note_off_c, 4, 43, 100
6, 6336, Note_on_c, 4, 48, 96
6, 6396, Note_off_c, 4, 48, 100
6, 6528, Note_on_c, 4, 40, 96
6, 6588, Note_off_c, 4, 40, 100
6, 6720, Note_on_c, 4, 43, 96
6, 6780, Note_off_c, 4, 43, 100
6, 6912, Note_on_c, 4, 42, 96
6, 6972, Note_off_c, 4, 42, 100
6, 7104, Note_on_c, 4, 45, 96
6, 7164, Note_off_c, 4, 45, 100
6, 7296, Note_on_c, 4, 38, 96
6, 7356, Note_off_c, 4, 38, 100
6, 7488, Note_on_c, 4, 42, 96
6, 7548, Note_off_c, 4, 42, 100
6, 7680, Note_on_c, 4, 45, 96
6, 7740, Note_off_c, 4, 45, 100
6, 7872, Note_on_c, 4, 48, 96
6, 7932, Note_off_c, 4, 48, 100
6, 8064, Note_on_c, 4, 47, 96
6, 8124, Note_off_c, 4, 47, 100
6, 8256, Note_on_c, 4, 43, 96
6, 8316, Note_off_c, 4, 43, 100
6, 8448, Note_on_c, 4, 47, 96
6, 8508, Note_off_c, 4, 47, 100
6, 8640, Note_on_c, 4, 50, 96
6, 8700, Note_off_c, 4, 50, 100
6, 8832, Note_on_c, 4, 55, 96
6, 8892, Note_off_c, 4, 55, 100
6, 9312, Note_on_c, 4, 71, 96
6, 9356, Note_off_c, 4, 71, 100
6, 9360, Note_on_c, 4, 69, 96
6, 9404, Note_off_c, 4, 69, 100
6, 9408, Note_on_c, 4, 71, 96
6, 9436, Note_off_c, 4, 71, 100
6, 9696, Note_on_c, 4, 64, 96
6, 9740, Note_off_c, 4, 64, 100
6, 9744, Note_on_c, 4, 62, 96
6, 9788, Note_off_c, 4, 62, 100
6, 9792, Note_on_c, 4, 64, 96
6, 9820, Note_off_c, 4, 64, 100
6, 10080, Note_on_c, 4, 57, 96
6, 10124, Note_off_c, 4, 57, 100
6, 10128, Note_on_c, 4, 55, 96
6, 10172, Note_off_c, 4, 55, 100
6, 10176, Note_on_c, 4, 57, 96
6, 10204, Note_off_c, 4, 57, 100
6, 10464, Note_on_c, 4, 69, 96
6, 10508, Note_off_c, 4, 69, 100
6, 10512, Note_on_c, 4, 67, 96
6, 10556, Note_off_c, 4, 67, 100
6, 10560, Note_on_c, 4, 69, 96
6, 10588, Note_off_c, 4, 69, 100
6, 10848, Note_on_c, 4, 62, 96
6, 10892, Note_off_c, 4, 62, 100
6, 10896, Note_on_c, 4, 61, 96
6, 10940, Note_off_c, 4, 61, 100
6, 10944, Note_on_c, 4, 62, 96
6, 10972, Note_off_c, 4, 62, 100
6, 11232, Note_on_c, 4, 55, 96
6, 11276, Note_off_c, 4, 55, 100
6, 11280, Note_on_c, 4, 54, 96
6, 11324, Note_off_c, 4, 54, 100
6, 11328, Note_on_c, 4, 55, 96
6, 11356, Note_off_c, 4, 55, 100
6, 11616, Note_on_c, 4, 67, 96
6, 11660, Note_off_c, 4, 67, 100
6, 11664, Note_on_c, 4, 66, 96
6, 11708, Note_off_c, 4, 66, 100
6, 11712, Note_on_c, 4, 67, 96
6, 11740, Note_off_c, 4, 67, 100
6, 12000, Note_on_c, 4, 59, 96
6, 12044, Note_off_c, 4, 59, 100
6, 12048, Note_on_c, 4, 57, 96
6, 12092, Note_off_c, 4, 57, 100
6, 12096, Note_on_c, 4, 59, 96
6, 12124, Note_off_c, 4, 59, 100
6, 12384, Note_on_c, 4, 52, 96
6, 12428, Note_off_c, 4, 52, 100
6, 12432, Note_on_c, 4, 50, 96
6, 12476, Note_off_c, 4, 50, 100
6, 12480, Note_on_c, 4, 52, 96
6, 12508, Note_off_c, 4, 52, 100
6, 12768, Note_on_c, 4, 43, 96
6, 12812, Note_off_c, 4, 43, 100
6, 12816, Note_on_c, 4, 42, 96
6, 12860, Note_off_c, 4, 42, 100
6, 12864, Note_on_c, 4, 43, 96
6, 12892, Note_off_c, 4, 43, 100
6, 13152, Note_on_c, 4, 37, 96
6, 13196, Note_off_c, 4, 37, 100
6, 13200, Note_on_c, 4, 35, 96
6, 13244, Note_off_c, 4, 35, 100
6, 13248, Note_on_c, 4, 37, 96
6, 13276, Note_off_c, 4, 37, 100
6, 13536, Note_on_c, 4, 31, 96
6, 13580, Note_off_c, 4, 31, 100
6, 13584, Note_on_c, 4, 30, 96
6, 13628, Note_off_c, 4, 30, 100
6, 13632, Note_on_c, 4, 31, 96
6, 13660, Note_off_c, 4, 31, 100
6, 13872, Note_on_c, 4, 50, 96
6, 13916, Note_off_c, 4, 50, 100
6, 13920, Note_on_c, 4, 52, 96
6, 13964, Note_off_c, 4, 52, 100
6, 13968, Note_on_c, 4, 54, 96
6, 14012, Note_off_c, 4, 54, 100
6, 14016, Note_on_c, 4, 57, 96
6, 14060, Note_off_c, 4, 57, 100
6, 14064, Note_on_c, 4, 54, 96
6, 14108, Note_off_c, 4, 54, 100
6, 14112, Note_on_c, 4, 52, 96
6, 14156, Note_off_c, 4, 52, 100
6, 14160, Note_on_c, 4, 50, 96
6, 14192, Note_off_c, 4, 50, 100
6, 14256, Note_on_c, 4, 50, 96
6, 14300, Note_off_c, 4, 50, 100
6, 14304, Note_on_c, 4, 52, 96
6, 14348, Note_off_c, 4, 52, 100
6, 14352, Note_on_c, 4, 54, 96
6, 14396, Note_off_c, 4, 54, 100
6, 14400, Note_on_c, 4, 57, 96
6, 14444, Note_off_c, 4, 57, 100
6, 14448, Note_on_c, 4, 54, 96
6, 14492, Note_off_c, 4, 54, 100
6, 14496, Note_on_c, 4, 52, 96
6, 14540, Note_off_c, 4, 52, 100
6, 14544, Note_on_c, 4, 50, 96
6, 14576, Note_off_c, 4, 50, 100
6, 14640, Note_on_c, 4, 50, 96
6, 14684, Note_off_c, 4, 50, 100
6, 14688, Note_on_c, 4, 52, 96
6, 14732, Note_off_c, 4, 52, 100
6, 14736, Note_on_c, 4, 54, 96
6, 14780, Note_off_c, 4, 54, 100
6, 14784, Note_on_c, 4, 57, 96
6, 14828, Note_off_c, 4, 57, 100
6, 14832, Note_on_c, 4, 54, 96
6, 14876, Note_off_c, 4, 54, 100
6, 14880, Note_on_c, 4, 52, 96
6, 14924, Note_off_c, 4, 52, 100
6, 14928, Note_on_c, 4, 50, 96
6, 14960, Note_off_c, 4, 50, 100
6, 14976, Note_on_c, 4, 59, 96
6, 15036, Note_off_c, 4, 59, 100
6, 15360, Note_on_c, 4, 41, 96
6, 15420, Note_off_c, 4, 41, 100
6, 15744, Note_on_c, 4, 40, 96
6, 15804, Note_off_c, 4, 40, 100
6, 16224, Note_on_c, 4, 52, 96
6, 16268, Note_off_c, 4, 52, 100
6, 16272, Note_on_c, 4, 50, 96
6, 16316, Note_off_c, 4, 50, 100
6, 16320, Note_on_c, 4, 52, 96
6, 16348, Note_off_c, 4, 52, 100
6, 16416, Note_on_c, 4, 57, 96
6, 16460, Note_off_c, 4, 57, 100
6, 16464, Note_on_c, 4, 55, 96
6, 16508, Note_off_c, 4, 55, 100
6, 16512, Note_on_c, 4, 57, 96
6, 16540, Note_off_c, 4, 57, 100
6, 16608, Note_on_c, 4, 50, 96
6, 16652, Note_off_c, 4, 50, 100
6, 16656, Note_on_c, 4, 49, 96
6, 16700, Note_off_c, 4, 49, 100
6, 16704, Note_on_c, 4, 50, 96
6, 16732, Note_off_c, 4, 50, 100
6, 16800, Note_on_c, 4, 55, 96
6, 16844, Note_off_c, 4, 55, 100
6, 16848, Note_on_c, 4, 54, 96
6, 16892, Note_off_c, 4, 54, 100
6, 16896, Note_on_c, 4, 55, 96
6, 16924, Note_off_c, 4, 55, 100
6, 16992, Note_on_c, 4, 49, 96
6, 17036, Note_off_c, 4, 49, 100
6, 17040, Note_on_c, 4, 47, 96
6, 17084, Note_off_c, 4, 47, 100
6, 17088, Note_on_c, 4, 49, 96
6, 17116, Note_off_c, 4, 49, 100
6, 17184, Note_on_c, 4, 54, 96
6, 17228, Note_off_c, 4, 54, 100
6, 17232, Note_on_c, 4, 52, 96
6, 17276, Note_off_c, 4, 52, 100
6, 17280, Note_on_c, 4, 54, 96
6, 17308, Note_off_c, 4, 54, 100
6, 17376, Note_on_c, 4, 50, 96
6, 17468, Note_off_c, 4, 50, 100
6, 17472, Note_on_c, 4, 49, 96
6, 17564, Note_off_c, 4, 49, 100
6, 17568, Note_on_c, 4, 50, 96
6, 17632, Note_off_c, 4, 50, 100
6, 17664, Note_on_c, 4, 54, 96
6, 17708, Note_off_c, 4, 54, 100
6, 17712, Note_on_c, 4, 52, 96
6, 17756, Note_off_c, 4, 52, 100
6, 17760, Note_on_c, 4, 50, 96
6, 17788, Note_off_c, 4, 50, 100
6, 17856, Note_on_c, 4, 57, 96
6, 17900, Note_off_c, 4, 57, 100
6, 17904, Note_on_c, 4, 55, 96
6, 17948, Note_off_c, 4, 55, 100
6, 17952, Note_on_c, 4, 54, 96
6, 17980, Note_off_c, 4, 54, 100
6, 18048, Note_on_c, 4, 62, 96
6, 18236, Note_off_c, 4, 62, 100
6, 36864, Note_on_c, 4, 66, 96
6, 36936, Note_off_c, 4, 66, 100
6, 36960, Note_on_c, 4, 69, 96
6, 37032, Note_off_c, 4, 69, 100
6, 37056, Note_on_c, 4, 74, 96
6, 37128, Note_off_c, 4, 74, 100
6, 37152, Note_on_c, 4, 69, 96
6, 37224, Note_off_c, 4, 69, 100
6, 37248, Note_on_c, 4, 66, 96
6, 37320, Note_off_c, 4, 66, 100
6, 37344, Note_on_c, 4, 69, 96
6, 37416, Note_off_c, 4, 69, 100
6, 37440, Note_on_c, 4, 62, 96
6, 37512, Note_off_c, 4, 62, 100
6, 37536, Note_on_c, 4, 66, 96
6, 37608, Note_off_c, 4, 66, 100
6, 37632, Note_on_c, 4, 69, 96
6, 37704, Note_off_c, 4, 69, 100
6, 37728, Note_on_c, 4, 66, 96
6, 37800, Note_off_c, 4, 66, 100
6, 37824, Note_on_c, 4, 67, 96
6, 37896, Note_off_c, 4, 67, 100
6, 37920, Note_on_c, 4, 69, 96
6, 37992, Note_off_c, 4, 69, 100
6, 38016, Note_on_c, 4, 62, 96
6, 38088, Note_off_c, 4, 62, 100
6, 38112, Note_on_c, 4, 67, 96
6, 38184, Note_off_c, 4, 67, 100
6, 38208, Note_on_c, 4, 71, 96
6, 38280, Note_off_c, 4, 71, 100
6, 38304, Note_on_c, 4, 67, 96
6, 38376, Note_off_c, 4, 67, 100
6, 38400, Note_on_c, 4, 62, 96
6, 38472, Note_off_c, 4, 62, 100
6, 38496, Note_on_c, 4, 67, 96
6, 38568, Note_off_c, 4, 67, 100
6, 38592, Note_on_c, 4, 59, 96
6, 38664, Note_off_c, 4, 59, 100
6, 38688, Note_on_c, 4, 62, 96
6, 38760, Note_off_c, 4, 62, 100
6, 38784, Note_on_c, 4, 67, 96
6, 38856, Note_off_c, 4, 67, 100
6, 38880, Note_on_c, 4, 59, 96
6, 38952, Note_off_c, 4, 59, 100
6, 38976, Note_on_c, 4, 60, 96
6, 39048, Note_off_c, 4, 60, 100
6, 39072, Note_on_c, 4, 62, 96
6, 39144, Note_off_c, 4, 62, 100
6, 39168, Note_on_c, 4, 55, 96
6, 39240, Note_off_c, 4, 55, 100
6, 39264, Note_on_c, 4, 60, 96
6, 39336, Note_off_c, 4, 60, 100
6, 39360, Note_on_c, 4, 64, 96
6, 39432, Note_off_c, 4, 64, 100
6, 39456, Note_on_c, 4, 60, 96
6, 39528, Note_off_c, 4, 60, 100
6, 39552, Note_on_c, 4, 57, 96
6, 39624, Note_off_c, 4, 57, 100
6, 39648, Note_on_c, 4, 60, 96
6, 39720, Note_off_c, 4, 60, 100
6, 39744, Note_on_c, 4, 54, 96
6, 39816, Note_off_c, 4, 54, 100
6, 39840, Note_on_c, 4, 57, 96
6, 39912, Note_off_c, 4, 57, 100
6, 39936, Note_on_c, 4, 60, 96
6, 40008, Note_off_c, 4, 60, 100
6, 40032, Note_on_c, 4, 54, 96
6, 40104, Note_off_c, 4, 54, 100
6, 40128, Note_on_c, 4, 55, 96
6, 40200, Note_off_c, 4, 55, 100
6, 40224, Note_on_c, 4, 57, 96
6, 40296, Note_off_c, 4, 57, 100
6, 40320, Note_on_c, 4, 51, 96
6, 40392, Note_off_c, 4, 51, 100
6, 40416, Note_on_c, 4, 54, 96
6, 40488, Note_off_c, 4, 54, 100
6, 40512, Note_on_c, 4, 59, 96
6, 40584, Note_off_c, 4, 59, 100
6, 40608, Note_on_c, 4, 54, 96
6, 40680, Note_off_c, 4, 54, 100
6, 40704, Note_on_c, 4, 51, 96
6, 40776, Note_off_c, 4, 51, 100
6, 40800, Note_on_c, 4, 54, 96
6, 40872, Note_off_c, 4, 54, 100
6, 40896, Note_on_c, 4, 47, 96
6, 40968, Note_off_c, 4, 47, 100
6, 40992, Note_on_c, 4, 51, 96
6, 41064, Note_off_c, 4, 51, 100
6, 41088, Note_on_c, 4, 54, 96
6, 41160, Note_off_c, 4, 54, 100
6, 41184, Note_on_c, 4, 51, 96
6, 41256, Note_off_c, 4, 51, 100
6, 41280, Note_on_c, 4, 52, 96
6, 41352, Note_off_c, 4, 52, 100
6, 41376, Note_on_c, 4, 54, 96
6, 41448, Note_off_c, 4, 54, 100
6, 41472, Note_on_c, 4, 47, 96
6, 41544, Note_off_c, 4, 47, 100
6, 41568, Note_on_c, 4, 52, 96
6, 41640, Note_off_c, 4, 52, 100
6, 41664, Note_on_c, 4, 55, 96
6, 41736, Note_off_c, 4, 55, 100
6, 41760, Note_on_c, 4, 52, 96
6, 41832, Note_off_c, 4, 52, 100
6, 41856, Note_on_c, 4, 47, 96
6, 41928, Note_off_c, 4, 47, 100
6, 41952, Note_on_c, 4, 52, 96
6, 42024, Note_off_c, 4, 52, 100
6, 42048, Note_on_c, 4, 43, 96
6, 42120, Note_off_c, 4, 43, 100
6, 42144, Note_on_c, 4, 47, 96
6, 42216, Note_off_c, 4, 47, 100
6, 42240, Note_on_c, 4, 52, 96
6, 42312, Note_off_c, 4, 52, 100
6, 42336, Note_on_c, 4, 51, 96
6, 42408, Note_off_c, 4, 51, 100
6, 42432, Note_on_c, 4, 52, 96
6, 42504, Note_off_c, 4, 52, 100
6, 42528, Note_on_c, 4, 55, 96
6, 42600, Note_off_c, 4, 55, 100
6, 42624, Note_on_c, 4, 48, 96
6, 42696, Note_off_c, 4, 48, 100
6, 42720, Note_on_c, 4, 53, 96
6, 42792, Note_off_c, 4, 53, 100
6, 42816, Note_on_c, 4, 57, 96
6, 42888, Note_off_c, 4, 57, 100
6, 42912, Note_on_c, 4, 53, 96
6, 42984, Note_off_c, 4, 53, 100
6, 43008, Note_on_c, 4, 48, 96
6, 43080, Note_off_c, 4, 48, 100
6, 43104, Note_on_c, 4, 53, 96
6, 43176, Note_off_c, 4, 53, 100
6, 43200, Note_on_c, 4, 45, 96
6, 43272, Note_off_c, 4, 45, 100
6, 43296, Note_on_c, 4, 48, 96
6, 43368, Note_off_c, 4, 48, 100
6, 43392, Note_on_c, 4, 53, 96
6, 43464, Note_off_c, 4, 53, 100
6, 43488, Note_on_c, 4, 52, 96
6, 43560, Note_off_c, 4, 52, 100
6, 43584, Note_on_c, 4, 53, 96
6, 43656, Note_off_c, 4, 53, 100
6, 43680, Note_on_c, 4, 57, 96
6, 43752, Note_off_c, 4, 57, 100
6, 43776, Note_on_c, 4, 51, 96
6, 43848, Note_off_c, 4, 51, 100
6, 43872, Note_on_c, 4, 54, 96
6, 43944, Note_off_c, 4, 54, 100
6, 43968, Note_on_c, 4, 57, 96
6, 44040, Note_off_c, 4, 57, 100
6, 44064, Note_on_c, 4, 54, 96
6, 44136, Note_off_c, 4, 54, 100
6, 44160, Note_on_c, 4, 51, 96
6, 44232, Note_off_c, 4, 51, 100
6, 44256, Note_on_c, 4, 54, 96
6, 44328, Note_off_c, 4, 54, 100
6, 44352, Note_on_c, 4, 47, 96
6, 44424, Note_off_c, 4, 47, 100
6, 44448, Note_on_c, 4, 51, 96
6, 44520, Note_off_c, 4, 51, 100
6, 44544, Note_on_c, 4, 42, 96
6, 44616, Note_off_c, 4, 42, 100
6, 44640, Note_on_c, 4, 45, 96
6, 44712, Note_off_c, 4, 45, 100
6, 44736, Note_on_c, 4, 43, 96
6, 44808, Note_off_c, 4, 43, 100
6, 44832, Note_on_c, 4, 42, 96
6, 44904, Note_off_c, 4, 42, 100
6, 44928, Note_on_c, 4, 43, 96
6, 45000, Note_off_c, 4, 43, 100
6, 45024, Note_on_c, 4, 47, 96
6, 45096, Note_off_c, 4, 47, 100
6, 45120, Note_on_c, 4, 52, 96
6, 45192, Note_off_c, 4, 52, 100
6, 45216, Note_on_c, 4, 47, 96
6, 45288, Note_off_c, 4, 47, 100
6, 45312, Note_on_c, 4, 43, 96
6, 45384, Note_off_c, 4, 43, 100
6, 45408, Note_on_c, 4, 47, 96
6, 45480, Note_off_c, 4, 47, 100
6, 45504, Note_on_c, 4, 40, 96
6, 45576, Note_off_c, 4, 40, 100
6, 45600, Note_on_c, 4, 42, 96
6, 45672, Note_off_c, 4, 42, 100
6, 45696, Note_on_c, 4, 43, 96
6, 45768, Note_off_c, 4, 43, 100
6, 45792, Note_on_c, 4, 40, 96
6, 45864, Note_off_c, 4, 40, 100
6, 45888, Note_on_c, 4, 43, 96
6, 45960, Note_off_c, 4, 43, 100
6, 45984, Note_on_c, 4, 47, 96
6, 46056, Note_off_c, 4, 47, 100
6, 46080, Note_on_c, 4, 52, 96
6, 46140, Note_off_c, 4, 52, 100
6, 46368, Note_on_c, 4, 40, 96
6, 46412, Note_off_c, 4, 40, 100
6, 46416, Note_on_c, 4, 38, 96
6, 46460, Note_off_c, 4, 38, 100
6, 46464, Note_on_c, 4, 40, 96
6, 46524, Note_off_c, 4, 40, 100
6, 46752, Note_on_c, 4, 48, 96
6, 46796, Note_off_c, 4, 48, 100
6, 46800, Note_on_c, 4, 47, 96
6, 46844, Note_off_c, 4, 47, 100
6, 46848, Note_on_c, 4, 48, 96
6, 46908, Note_off_c, 4, 48, 100
6, 47136, Note_on_c, 4, 57, 96
6, 47180, Note_off_c, 4, 57, 100
6, 47184, Note_on_c, 4, 55, 96
6, 47228, Note_off_c, 4, 55, 100
6, 47232, Note_on_c, 4, 57, 96
6, 47292, Note_off_c, 4, 57, 100
6, 47520, Note_on_c, 4, 38, 96
6, 47564, Note_off_c, 4, 38, 100
6, 47568, Note_on_c, 4, 36, 96
6, 47612, Note_off_c, 4, 36, 100
6, 47616, Note_on_c, 4, 38, 96
6, 47676, Note_off_c, 4, 38, 100
6, 47904, Note_on_c, 4, 47, 96
6, 47948, Note_off_c, 4, 47, 100
6, 47952, Note_on_c, 4, 45, 96
6, 47996, Note_off_c, 4, 45, 100
6, 48000, Note_on_c, 4, 47, 96
6, 48060, Note_off_c, 4, 47, 100
6, 48288, Note_on_c, 4, 55, 96
6, 48332, Note_off_c, 4, 55, 100
6, 48336, Note_on_c, 4, 54, 96
6, 48380, Note_off_c, 4, 54, 100
6, 48384, Note_on_c, 4, 55, 96
6, 48444, Note_off_c, 4, 55, 100
6, 48672, Note_on_c, 4, 36, 96
6, 48716, Note_off_c, 4, 36, 100
6, 48720, Note_on_c, 4, 35, 96
6, 48764, Note_off_c, 4, 35, 100
6, 48768, Note_on_c, 4, 36, 96
6, 48828, Note_off_c, 4, 36, 100
6, 49056, Note_on_c, 4, 45, 96
6, 49100, Note_off_c, 4, 45, 100
6, 49104, Note_on_c, 4, 43, 96
6, 49148, Note_off_c, 4, 43, 100
6, 49152, Note_on_c, 4, 45, 96
6, 49212, Note_off_c, 4, 45, 100
6, 49440, Note_on_c, 4, 54, 96
6, 49484, Note_off_c, 4, 54, 100
6, 49488, Note_on_c, 4, 52, 96
6, 49532, Note_off_c, 4, 52, 100
6, 49536, Note_on_c, 4, 54, 96
6, 49596, Note_off_c, 4, 54, 100
6, 49824, Note_on_c, 4, 62, 96
6, 49868, Note_off_c, 4, 62, 100
6, 49872, Note_on_c, 4, 60, 96
6, 49916, Note_off_c, 4, 60, 100
6, 49920, Note_on_c, 4, 62, 96
6, 49948, Note_off_c, 4, 62, 100
6, 50208, Note_on_c, 4, 67, 96
6, 50252, Note_off_c, 4, 67, 100
6, 50256, Note_on_c, 4, 66, 96
6, 50300, Note_off_c, 4, 66, 100
6, 50304, Note_on_c, 4, 67, 96
6, 50332, Note_off_c, 4, 67, 100
6, 50592, Note_on_c, 4, 71, 96
6, 50636, Note_off_c, 4, 71, 100
6, 50640, Note_on_c, 4, 69, 96
6, 50684, Note_off_c, 4, 69, 100
6, 50688, Note_on_c, 4, 71, 96
6, 50748, Note_off_c, 4, 71, 100
6, 51072, Note_on_c, 4, 50, 96
6, 51132, Note_off_c, 4, 50, 100
6, 51456, Note_on_c, 4, 53, 96
6, 51516, Note_off_c, 4, 53, 100
6, 51888, Note_on_c, 4, 52, 96
6, 51932, Note_off_c, 4, 52, 100
6, 51936, Note_on_c, 4, 53, 96
6, 51980, Note_off_c, 4, 53, 100
6, 51984, Note_on_c, 4, 55, 96
6, 52028, Note_off_c, 4, 55, 100
6, 52032, Note_on_c, 4, 60, 96
6, 52076, Note_off_c, 4, 60, 100
6, 52080, Note_on_c, 4, 55, 96
6, 52124, Note_off_c, 4, 55, 100
6, 52128, Note_on_c, 4, 53, 96
6, 52172, Note_off_c, 4, 53, 100
6, 52176, Note_on_c, 4, 52, 96
6, 52208, Note_off_c, 4, 52, 100
6, 52272, Note_on_c, 4, 54, 96
6, 52316, Note_off_c, 4, 54, 100
6, 52320, Note_on_c, 4, 55, 96
6, 52364, Note_off_c, 4, 55, 100
6, 52368, Note_on_c, 4, 57, 96
6, 52412, Note_off_c, 4, 57, 100
6, 52416, Note_on_c, 4, 60, 96
6, 52460, Note_off_c, 4, 60, 100
6, 52464, Note_on_c, 4, 57, 96
6, 52508, Note_off_c, 4, 57, 100
6, 52512, Note_on_c, 4, 55, 96
6, 52556, Note_off_c, 4, 55, 100
6, 52560, Note_on_c, 4, 54, 96
6, 52592, Note_off_c, 4, 54, 100
6, 52656, Note_on_c, 4, 55, 96
6, 52700, Note_off_c, 4, 55, 100
6, 52704, Note_on_c, 4, 57, 96
6, 52748, Note_off_c, 4, 57, 100
6, 52752, Note_on_c, 4, 58, 96
6, 52796, Note_off_c, 4, 58, 100
6, 52800, Note_on_c, 4, 61, 96
6, 52844, Note_off_c, 4, 61, 100
6, 52848, Note_on_c, 4, 58, 96
6, 52892, Note_off_c, 4, 58, 100
6, 52896, Note_on_c, 4, 57, 96
6, 52940, Note_off_c, 4, 57, 100
6, 52944, Note_on_c, 4, 55, 96
6, 52976, Note_off_c, 4, 55, 100
6, 52992, Note_on_c, 4, 62, 96
6, 53020, Note_off_c, 4, 62, 100
6, 53088, Note_on_c, 4, 60, 96
6, 53132, Note_off_c, 4, 60, 100
6, 53136, Note_on_c, 4, 59, 96
6, 53180, Note_off_c, 4, 59, 100
6, 53184, Note_on_c, 4, 60, 96
6, 53212, Note_off_c, 4, 60, 100
6, 53280, Note_on_c, 4, 59, 96
6, 53324, Note_off_c, 4, 59, 100
6, 53328, Note_on_c, 4, 57, 96
6, 53372, Note_off_c, 4, 57, 100
6, 53376, Note_on_c, 4, 59, 96
6, 53404, Note_off_c, 4, 59, 100
6, 53472, Note_on_c, 4, 58, 96
6, 53516, Note_off_c, 4, 58, 100
6, 53520, Note_on_c, 4, 57, 96
6, 53564, Note_off_c, 4, 57, 100
6, 53568, Note_on_c, 4, 58, 96
6, 53596, Note_off_c, 4, 58, 100
6, 53664, Note_on_c, 4, 57, 96
6, 53708, Note_off_c, 4, 57, 100
6, 53712, Note_on_c, 4, 55, 96
6, 53756, Note_off_c, 4, 55, 100
6, 53760, Note_on_c, 4, 57, 96
6, 53788, Note_off_c, 4, 57, 100
6, 53856, Note_on_c, 4, 62, 96
6, 53900, Note_off_c, 4, 62, 100
6, 53904, Note_on_c, 4, 60, 96
6, 53948, Note_off_c, 4, 60, 100
6, 53952, Note_on_c, 4, 62, 96
6, 53980, Note_off_c, 4, 62, 100
6, 54048, Note_on_c, 4, 55, 96
6, 54092, Note_off_c, 4, 55, 100
6, 54096, Note_on_c, 4, 54, 96
6, 54140, Note_off_c, 4, 54, 100
6, 54144, Note_on_c, 4, 55, 96
6, 54188, Note_off_c, 4, 55, 100
6, 54192, Note_on_c, 4, 57, 96
6, 54236, Note_off_c, 4, 57, 100
6, 54240, Note_on_c, 4, 59, 96
6, 54284, Note_off_c, 4, 59, 100
6, 54288, Note_on_c, 4, 60, 96
6, 54332, Note_off_c, 4, 60, 100
6, 54336, Note_on_c, 4, 62, 96
6, 54380, Note_off_c, 4, 62, 100
6, 54384, Note_on_c, 4, 60, 96
6, 54428, Note_off_c, 4, 60, 100
6, 54432, Note_on_c, 4, 59, 96
6, 54476, Note_off_c, 4, 59, 100
6, 54480, Note_on_c, 4, 57, 96
6, 54524, Note_off_c, 4, 57, 100
6, 54528, Note_on_c, 4, 55, 96
6, 54556, Note_off_c, 4, 55, 100
6, 54624, Note_on_c, 4, 59, 96
6, 54652, Note_off_c, 4, 59, 100
6, 54720, Note_on_c, 4, 50, 96
6, 54748, Note_off_c, 4, 50, 100
6, 54816, Note_on_c, 4, 55, 96
6, 54844, Note_off_c, 4, 55, 100
6, 54912, Note_on_c, 4, 43, 96
6, 55100, Note_off_c, 4, 43, 100
6, 55100, End_track
7, 0, Start_track
7, 0, Title_t, "bdg@bruno-de-giusti.net"
7, 0, Control_c, 5, 0, 0
7, 0, Program_c, 5, 6
7, 0, Control_c, 5, 7, 127
7, 0, Control_c, 5, 10, 42
7, 0, Control_c, 5, 91, 127
7, 0, Key_signature, 1, "major"
7, 0, Note_on_c, 5, 71, 127
7, 72, Note_off_c, 5, 71, 100
7, 96, Note_on_c, 5, 67, 127
7, 168, Note_off_c, 5, 67, 100
7, 192, Note_on_c, 5, 62, 127
7, 264, Note_off_c, 5, 62, 100
7, 288, Note_on_c, 5, 67, 127
7, 360, Note_off_c, 5, 67, 100
7, 384, Note_on_c, 5, 71, 127
7, 456, Note_off_c, 5, 71, 100
7, 480, Note_on_c, 5, 67, 127
7, 552, Note_off_c, 5, 67, 100
7, 576, Note_on_c, 5, 74, 127
7, 648, Note_off_c, 5, 74, 100
7, 672, Note_on_c, 5, 71, 127
7, 744, Note_off_c, 5, 71, 100
7, 768, Note_on_c, 5, 67, 127
7, 840, Note_off_c, 5, 67, 100
7, 864, Note_on_c, 5, 71, 127
7, 936, Note_off_c, 5, 71, 100
7, 960, Note_on_c, 5, 69, 127
7, 1032, Note_off_c, 5, 69, 100
7, 1056, Note_on_c, 5, 67, 127
7, 1128, Note_off_c, 5, 67, 100
7, 1152, Note_on_c, 5, 74, 127
7, 1224, Note_off_c, 5, 74, 100
7, 1248, Note_on_c, 5, 69, 127
7, 1320, Note_off_c, 5, 69, 100
7, 1344, Note_on_c, 5, 66, 127
7, 1416, Note_off_c, 5, 66, 100
7, 1440, Note_on_c, 5, 69, 127
7, 1512, Note_off_c, 5, 69, 100
7, 1536, Note_on_c, 5, 74, 127
7, 1608, Note_off_c, 5, 74, 100
7, 1632, Note_on_c, 5, 69, 127
7, 1704, Note_off_c, 5, 69, 100
7, 1728, Note_on_c, 5, 81, 127
7, 1800, Note_off_c, 5, 81, 100
7, 1824, Note_on_c, 5, 78, 127
7, 1896, Note_off_c, 5, 78, 100
7, 1920, Note_on_c, 5, 74, 127
7, 1992, Note_off_c, 5, 74, 100
7, 2016, Note_on_c, 5, 78, 127
7, 2088, Note_off_c, 5, 78, 100
7, 2112, Note_on_c, 5, 76, 127
7, 2184, Note_off_c, 5, 76, 100
7, 2208, Note_on_c, 5, 74, 127
7, 2280, Note_off_c, 5, 74, 100
7, 2304, Note_on_c, 5, 79, 127
7, 2376, Note_off_c, 5, 79, 100
7, 2400, Note_on_c, 5, 76, 127
7, 2472, Note_off_c, 5, 76, 100
7, 2496, Note_on_c, 5, 71, 127
7, 2568, Note_off_c, 5, 71, 100
7, 2592, Note_on_c, 5, 76, 127
7, 2664, Note_off_c, 5, 76, 100
7, 2688, Note_on_c, 5, 79, 127
7, 2760, Note_off_c, 5, 79, 100
7, 2784, Note_on_c, 5, 76, 127
7, 2856, Note_off_c, 5, 76, 100
7, 2880, Note_on_c, 5, 83, 127
7, 2952, Note_off_c, 5, 83, 100
7, 2976, Note_on_c, 5, 79, 127
7, 3048, Note_off_c, 5, 79, 100
7, 3072, Note_on_c, 5, 76, 127
7, 3144, Note_off_c, 5, 76, 100
7, 3168, Note_on_c, 5, 83, 127
7, 3240, Note_off_c, 5, 83, 100
7, 3264, Note_on_c, 5, 81, 127
7, 3336, Note_off_c, 5, 81, 100
7, 3360, Note_on_c, 5, 79, 127
7, 3432, Note_off_c, 5, 79, 100
7, 3456, Note_on_c, 5, 86, 127
7, 3528, Note_off_c, 5, 86, 100
7, 3552, Note_on_c, 5, 81, 127
7, 3624, Note_off_c, 5, 81, 100
7, 3648, Note_on_c, 5, 78, 127
7, 3720, Note_off_c, 5, 78, 100
7, 3744, Note_on_c, 5, 81, 127
7, 3816, Note_off_c, 5, 81, 100
7, 3840, Note_on_c, 5, 86, 127
7, 3912, Note_off_c, 5, 86, 100
7, 3936, Note_on_c, 5, 81, 127
7, 4008, Note_off_c, 5, 81, 100
7, 4032, Note_on_c, 5, 93, 127
7, 4104, Note_off_c, 5, 93, 100
7, 4128, Note_on_c, 5, 90, 127
7, 4200, Note_off_c, 5, 90, 100
7, 4224, Note_on_c, 5, 86, 127
7, 4296, Note_off_c, 5, 86, 100
7, 4320, Note_on_c, 5, 90, 127
7, 4392, Note_off_c, 5, 90, 100
7, 4416, Note_on_c, 5, 88, 127
7, 4488, Note_off_c, 5, 88, 100
7, 4512, Note_on_c, 5, 86, 127
7, 4576, Note_off_c, 5, 86, 100
7, 4608, Note_on_c, 5, 91, 127
7, 4680, Note_off_c, 5, 91, 100
7, 4704, Note_on_c, 5, 86, 127
7, 4776, Note_off_c, 5, 86, 100
7, 4800, Note_on_c, 5, 83, 127
7, 4872, Note_off_c, 5, 83, 100
7, 4896, Note_on_c, 5, 86, 127
7, 4968, Note_off_c, 5, 86, 100
7, 4992, Note_on_c, 5, 91, 127
7, 5064, Note_off_c, 5, 91, 100
7, 5088, Note_on_c, 5, 86, 127
7, 5160, Note_off_c, 5, 86, 100
7, 5184, Note_on_c, 5, 95, 127
7, 5256, Note_off_c, 5, 95, 100
7, 5280, Note_on_c, 5, 91, 127
7, 5352, Note_off_c, 5, 91, 100
7, 5376, Note_on_c, 5, 86, 127
7, 5448, Note_off_c, 5, 86, 100
7, 5472, Note_on_c, 5, 89, 127
7, 5544, Note_off_c, 5, 89, 100
7, 5568, Note_on_c, 5, 88, 127
7, 5640, Note_off_c, 5, 88, 100
7, 5664, Note_on_c, 5, 86, 127
7, 5736, Note_off_c, 5, 86, 100
7, 5760, Note_on_c, 5, 88, 127
7, 5832, Note_off_c, 5, 88, 100
7, 5856, Note_on_c, 5, 84, 127
7, 5928, Note_off_c, 5, 84, 100
7, 5952, Note_on_c, 5, 79, 127
7, 6024, Note_off_c, 5, 79, 100
7, 6048, Note_on_c, 5, 84, 127
7, 6120, Note_off_c, 5, 84, 100
7, 6144, Note_on_c, 5, 88, 127
7, 6216, Note_off_c, 5, 88, 100
7, 6240, Note_on_c, 5, 84, 127
7, 6312, Note_off_c, 5, 84, 100
7, 6336, Note_on_c, 5, 91, 127
7, 6408, Note_off_c, 5, 91, 100
7, 6432, Note_on_c, 5, 88, 127
7, 6504, Note_off_c, 5, 88, 100
7, 6528, Note_on_c, 5, 84, 127
7, 6600, Note_off_c, 5, 84, 100
7, 6624, Note_on_c, 5, 86, 127
7, 6696, Note_off_c, 5, 86, 100
7, 6720, Note_on_c, 5, 84, 127
7, 6792, Note_off_c, 5, 84, 100
7, 6816, Note_on_c, 5, 83, 127
7, 6888, Note_off_c, 5, 83, 100
7, 6912, Note_on_c, 5, 81, 127
7, 6984, Note_off_c, 5, 81, 100
7, 7008, Note_on_c, 5, 78, 127
7, 7080, Note_off_c, 5, 78, 100
7, 7104, Note_on_c, 5, 74, 127
7, 7176, Note_off_c, 5, 74, 100
7, 7200, Note_on_c, 5, 78, 127
7, 7272, Note_off_c, 5, 78, 100
7, 7296, Note_on_c, 5, 81, 127
7, 7368, Note_off_c, 5, 81, 100
7, 7392, Note_on_c, 5, 78, 127
7, 7464, Note_off_c, 5, 78, 100
7, 7488, Note_on_c, 5, 86, 127
7, 7560, Note_off_c, 5, 86, 100
7, 7584, Note_on_c, 5, 81, 127
7, 7656, Note_off_c, 5, 81, 100
7, 7680, Note_on_c, 5, 78, 127
7, 7752, Note_off_c, 5, 78, 100
7, 7776, Note_on_c, 5, 81, 127
7, 7848, Note_off_c, 5, 81, 100
7, 7872, Note_on_c, 5, 79, 127
7, 7944, Note_off_c, 5, 79, 100
7, 7968, Note_on_c, 5, 78, 127
7, 8040, Note_off_c, 5, 78, 100
7, 8064, Note_on_c, 5, 79, 127
7, 8136, Note_off_c, 5, 79, 100
7, 8160, Note_on_c, 5, 74, 127
7, 8232, Note_off_c, 5, 74, 100
7, 8256, Note_on_c, 5, 71, 127
7, 8328, Note_off_c, 5, 71, 100
7, 8352, Note_on_c, 5, 74, 127
7, 8424, Note_off_c, 5, 74, 100
7, 8448, Note_on_c, 5, 79, 127
7, 8520, Note_off_c, 5, 79, 100
7, 8544, Note_on_c, 5, 74, 127
7, 8616, Note_off_c, 5, 74, 100
7, 8640, Note_on_c, 5, 83, 127
7, 8712, Note_off_c, 5, 83, 100
7, 8736, Note_on_c, 5, 79, 127
7, 8808, Note_off_c, 5, 79, 100
7, 8832, Note_on_c, 5, 86, 127
7, 8904, Note_off_c, 5, 86, 100
7, 8928, Note_on_c, 5, 84, 127
7, 9000, Note_off_c, 5, 84, 100
7, 9024, Note_on_c, 5, 83, 127
7, 9096, Note_off_c, 5, 83, 100
7, 9120, Note_on_c, 5, 81, 127
7, 9192, Note_off_c, 5, 81, 100
7, 9216, Note_on_c, 5, 79, 127
7, 9276, Note_off_c, 5, 79, 100
7, 9504, Note_on_c, 5, 91, 127
7, 9548, Note_off_c, 5, 91, 100
7, 9552, Note_on_c, 5, 90, 127
7, 9596, Note_off_c, 5, 90, 100
7, 9600, Note_on_c, 5, 91, 127
7, 9628, Note_off_c, 5, 91, 100
7, 9888, Note_on_c, 5, 85, 127
7, 9932, Note_off_c, 5, 85, 100
7, 9936, Note_on_c, 5, 83, 127
7, 9980, Note_off_c, 5, 83, 100
7, 9984, Note_on_c, 5, 85, 127
7, 10012, Note_off_c, 5, 85, 100
7, 10272, Note_on_c, 5, 78, 127
7, 10316, Note_off_c, 5, 78, 100
7, 10320, Note_on_c, 5, 76, 127
7, 10364, Note_off_c, 5, 76, 100
7, 10368, Note_on_c, 5, 78, 127
7, 10396, Note_off_c, 5, 78, 100
7, 10656, Note_on_c, 5, 90, 127
7, 10700, Note_off_c, 5, 90, 100
7, 10704, Note_on_c, 5, 88, 127
7, 10748, Note_off_c, 5, 88, 100
7, 10752, Note_on_c, 5, 90, 127
7, 10780, Note_off_c, 5, 90, 100
7, 11040, Note_on_c, 5, 83, 127
7, 11084, Note_off_c, 5, 83, 100
7, 11088, Note_on_c, 5, 81, 127
7, 11132, Note_off_c, 5, 81, 100
7, 11136, Note_on_c, 5, 83, 127
7, 11164, Note_off_c, 5, 83, 100
7, 11424, Note_on_c, 5, 76, 127
7, 11468, Note_off_c, 5, 76, 100
7, 11472, Note_on_c, 5, 74, 127
7, 11516, Note_off_c, 5, 74, 100
7, 11520, Note_on_c, 5, 76, 127
7, 11548, Note_off_c, 5, 76, 100
7, 11808, Note_on_c, 5, 88, 127
7, 11852, Note_off_c, 5, 88, 100
7, 11856, Note_on_c, 5, 86, 127
7, 11900, Note_off_c, 5, 86, 100
7, 11904, Note_on_c, 5, 88, 127
7, 11932, Note_off_c, 5, 88, 100
7, 12192, Note_on_c, 5, 79, 127
7, 12236, Note_off_c, 5, 79, 100
7, 12240, Note_on_c, 5, 78, 127
7, 12284, Note_off_c, 5, 78, 100
7, 12288, Note_on_c, 5, 79, 127
7, 12316, Note_off_c, 5, 79, 100
7, 12576, Note_on_c, 5, 73, 127
7, 12620, Note_off_c, 5, 73, 100
7, 12624, Note_on_c, 5, 71, 127
7, 12668, Note_off_c, 5, 71, 100
7, 12672, Note_on_c, 5, 73, 127
7, 12700, Note_off_c, 5, 73, 100
7, 12960, Note_on_c, 5, 64, 127
7, 13004, Note_off_c, 5, 64, 100
7, 13008, Note_on_c, 5, 62, 127
7, 13052, Note_off_c, 5, 62, 100
7, 13056, Note_on_c, 5, 64, 127
7, 13084, Note_off_c, 5, 64, 100
7, 13344, Note_on_c, 5, 57, 127
7, 13388, Note_off_c, 5, 57, 100
7, 13392, Note_on_c, 5, 55, 127
7, 13436, Note_off_c, 5, 55, 100
7, 13440, Note_on_c, 5, 57, 127
7, 13468, Note_off_c, 5, 57, 100
7, 13728, Note_on_c, 5, 54, 127
7, 13772, Note_off_c, 5, 54, 100
7, 13776, Note_on_c, 5, 52, 127
7, 13820, Note_off_c, 5, 52, 100
7, 13824, Note_on_c, 5, 54, 127
7, 13852, Note_off_c, 5, 54, 100
7, 14208, Note_on_c, 5, 86, 127
7, 14268, Note_off_c, 5, 86, 100
7, 14592, Note_on_c, 5, 84, 127
7, 14652, Note_off_c, 5, 84, 100
7, 15024, Note_on_c, 5, 67, 127
7, 15068, Note_off_c, 5, 67, 100
7, 15072, Note_on_c, 5, 69, 127
7, 15116, Note_off_c, 5, 69, 100
7, 15120, Note_on_c, 5, 71, 127
7, 15164, Note_off_c, 5, 71, 100
7, 15168, Note_on_c, 5, 74, 127
7, 15212, Note_off_c, 5, 74, 100
7, 15216, Note_on_c, 5, 71, 127
7, 15260, Note_off_c, 5, 71, 100
7, 15264, Note_on_c, 5, 69, 127
7, 15308, Note_off_c, 5, 69, 100
7, 15312, Note_on_c, 5, 67, 127
7, 15344, Note_off_c, 5, 67, 100
7, 15408, Note_on_c, 5, 67, 127
7, 15452, Note_off_c, 5, 67, 100
7, 15456, Note_on_c, 5, 69, 127
7, 15500, Note_off_c, 5, 69, 100
7, 15504, Note_on_c, 5, 70, 127
7, 15548, Note_off_c, 5, 70, 100
7, 15552, Note_on_c, 5, 74, 127
7, 15596, Note_off_c, 5, 74, 100
7, 15600, Note_on_c, 5, 70, 127
7, 15644, Note_off_c, 5, 70, 100
7, 15648, Note_on_c, 5, 69, 127
7, 15692, Note_off_c, 5, 69, 100
7, 15696, Note_on_c, 5, 67, 127
7, 15728, Note_off_c, 5, 67, 100
7, 15792, Note_on_c, 5, 68, 127
7, 15836, Note_off_c, 5, 68, 100
7, 15840, Note_on_c, 5, 69, 127
7, 15884, Note_off_c, 5, 69, 100
7, 15888, Note_on_c, 5, 71, 127
7, 15932, Note_off_c, 5, 71, 100
7, 15936, Note_on_c, 5, 74, 127
7, 15980, Note_off_c, 5, 74, 100
7, 15984, Note_on_c, 5, 71, 127
7, 16028, Note_off_c, 5, 71, 100
7, 16032, Note_on_c, 5, 69, 127
7, 16076, Note_off_c, 5, 69, 100
7, 16080, Note_on_c, 5, 68, 127
7, 16112, Note_off_c, 5, 68, 100
7, 16128, Note_on_c, 5, 69, 127
7, 16156, Note_off_c, 5, 69, 100
7, 16224, Note_on_c, 5, 73, 127
7, 16268, Note_off_c, 5, 73, 100
7, 16272, Note_on_c, 5, 71, 127
7, 16316, Note_off_c, 5, 71, 100
7, 16320, Note_on_c, 5, 73, 127
7, 16348, Note_off_c, 5, 73, 100
7, 16416, Note_on_c, 5, 66, 127
7, 16460, Note_off_c, 5, 66, 100
7, 16464, Note_on_c, 5, 64, 127
7, 16508, Note_off_c, 5, 64, 100
7, 16512, Note_on_c, 5, 66, 127
7, 16540, Note_off_c, 5, 66, 100
7, 16608, Note_on_c, 5, 71, 127
7, 16652, Note_off_c, 5, 71, 100
7, 16656, Note_on_c, 5, 69, 127
7, 16700, Note_off_c, 5, 69, 100
7, 16704, Note_on_c, 5, 71, 127
7, 16732, Note_off_c, 5, 71, 100
7, 16800, Note_on_c, 5, 64, 127
7, 16844, Note_off_c, 5, 64, 100
7, 16848, Note_on_c, 5, 62, 127
7, 16892, Note_off_c, 5, 62, 100
7, 16896, Note_on_c, 5, 64, 127
7, 16924, Note_off_c, 5, 64, 100
7, 16992, Note_on_c, 5, 69, 127
7, 17036, Note_off_c, 5, 69, 100
7, 17040, Note_on_c, 5, 67, 127
7, 17084, Note_off_c, 5, 67, 100
7, 17088, Note_on_c, 5, 69, 127
7, 17116, Note_off_c, 5, 69, 100
7, 17184, Note_on_c, 5, 62, 127
7, 17228, Note_off_c, 5, 62, 100
7, 17232, Note_on_c, 5, 60, 127
7, 17276, Note_off_c, 5, 60, 100
7, 17280, Note_on_c, 5, 62, 127
7, 17324, Note_off_c, 5, 62, 100
7, 17328, Note_on_c, 5, 64, 127
7, 17372, Note_off_c, 5, 64, 100
7, 17376, Note_on_c, 5, 66, 127
7, 17420, Note_off_c, 5, 66, 100
7, 17424, Note_on_c, 5, 67, 127
7, 17468, Note_off_c, 5, 67, 100
7, 17472, Note_on_c, 5, 69, 127
7, 17516, Note_off_c, 5, 69, 100
7, 17520, Note_on_c, 5, 67, 127
7, 17564, Note_off_c, 5, 67, 100
7, 17568, Note_on_c, 5, 66, 127
7, 17612, Note_off_c, 5, 66, 100
7, 17616, Note_on_c, 5, 64, 127
7, 17660, Note_off_c, 5, 64, 100
7, 17664, Note_on_c, 5, 62, 127
7, 17692, Note_off_c, 5, 62, 100
7, 17760, Note_on_c, 5, 66, 127
7, 17788, Note_off_c, 5, 66, 100
7, 17856, Note_on_c, 5, 57, 127
7, 17884, Note_off_c, 5, 57, 100
7, 17952, Note_on_c, 5, 62, 127
7, 17980, Note_off_c, 5, 62, 100
7, 18048, Note_on_c, 5, 50, 127
7, 18236, Note_off_c, 5, 50, 100
7, 36864, Note_on_c, 5, 62, 127
7, 36924, Note_off_c, 5, 62, 100
7, 37248, Note_on_c, 5, 95, 127
7, 37292, Note_off_c, 5, 95, 100
7, 37296, Note_on_c, 5, 96, 127
7, 37340, Note_off_c, 5, 96, 100
7, 37344, Note_on_c, 5, 98, 127
7, 37388, Note_off_c, 5, 98, 100
7, 37392, Note_on_c, 5, 96, 127
7, 37436, Note_off_c, 5, 96, 100
7, 37440, Note_on_c, 5, 98, 127
7, 37484, Note_off_c, 5, 98, 100
7, 37488, Note_on_c, 5, 96, 127
7, 37532, Note_off_c, 5, 96, 100
7, 37536, Note_on_c, 5, 98, 127
7, 37580, Note_off_c, 5, 98, 100
7, 37584, Note_on_c, 5, 96, 127
7, 37628, Note_off_c, 5, 96, 100
7, 37632, Note_on_c, 5, 98, 127
7, 37676, Note_off_c, 5, 98, 100
7, 37680, Note_on_c, 5, 96, 127
7, 37724, Note_off_c, 5, 96, 100
7, 37728, Note_on_c, 5, 98, 127
7, 37772, Note_off_c, 5, 98, 100
7, 37776, Note_on_c, 5, 96, 127
7, 37820, Note_off_c, 5, 96, 100
7, 37824, Note_on_c, 5, 98, 127
7, 37868, Note_off_c, 5, 98, 100
7, 37872, Note_on_c, 5, 96, 127
7, 37916, Note_off_c, 5, 96, 100
7, 37920, Note_on_c, 5, 95, 127
7, 37964, Note_off_c, 5, 95, 100
7, 37968, Note_on_c, 5, 96, 127
7, 38012, Note_off_c, 5, 96, 100
7, 38016, Note_on_c, 5, 95, 127
7, 38076, Note_off_c, 5, 95, 100
7, 38400, Note_on_c, 5, 77, 127
7, 38444, Note_off_c, 5, 77, 100
7, 38448, Note_on_c, 5, 76, 127
7, 38492, Note_off_c, 5, 76, 100
7, 38496, Note_on_c, 5, 77, 127
7, 38780, Note_off_c, 5, 77, 100
7, 38880, Note_on_c, 5, 81, 127
7, 38972, Note_off_c, 5, 81, 100
7, 38976, Note_on_c, 5, 79, 127
7, 39068, Note_off_c, 5, 79, 100
7, 39072, Note_on_c, 5, 77, 127
7, 39164, Note_off_c, 5, 77, 100
7, 39168, Note_on_c, 5, 76, 127
7, 39228, Note_off_c, 5, 76, 100
7, 39552, Note_on_c, 5, 90, 127
7, 39740, Note_off_c, 5, 90, 100
7, 39744, Note_on_c, 5, 93, 127
7, 39932, Note_off_c, 5, 93, 100
7, 39936, Note_on_c, 5, 87, 127
7, 40124, Note_off_c, 5, 87, 100
7, 40128, Note_on_c, 5, 88, 127
7, 40220, Note_off_c, 5, 88, 100
7, 40224, Note_on_c, 5, 90, 127
7, 40316, Note_off_c, 5, 90, 100
7, 40320, Note_on_c, 5, 83, 127
7, 40380, Note_off_c, 5, 83, 100
7, 40704, Note_on_c, 5, 55, 127
7, 40748, Note_off_c, 5, 55, 100
7, 40752, Note_on_c, 5, 57, 127
7, 40796, Note_off_c, 5, 57, 100
7, 40800, Note_on_c, 5, 59, 127
7, 40844, Note_off_c, 5, 59, 100
7, 40848, Note_on_c, 5, 57, 127
7, 40892, Note_off_c, 5, 57, 100
7, 40896, Note_on_c, 5, 59, 127
7, 40940, Note_off_c, 5, 59, 100
7, 40944, Note_on_c, 5, 57, 127
7, 40988, Note_off_c, 5, 57, 100
7, 40992, Note_on_c, 5, 59, 127
7, 41036, Note_off_c, 5, 59, 100
7, 41040, Note_on_c, 5, 57, 127
7, 41084, Note_off_c, 5, 57, 100
7, 41088, Note_on_c, 5, 59, 127
7, 41132, Note_off_c, 5, 59, 100
7, 41136, Note_on_c, 5, 57, 127
7, 41180, Note_off_c, 5, 57, 100
7, 41184, Note_on_c, 5, 59, 127
7, 41228, Note_off_c, 5, 59, 100
7, 41232, Note_on_c, 5, 57, 127
7, 41276, Note_off_c, 5, 57, 100
7, 41280, Note_on_c, 5, 59, 127
7, 41324, Note_off_c, 5, 59, 100
7, 41328, Note_on_c, 5, 57, 127
7, 41372, Note_off_c, 5, 57, 100
7, 41376, Note_on_c, 5, 55, 127
7, 41420, Note_off_c, 5, 55, 100
7, 41424, Note_on_c, 5, 57, 127
7, 41468, Note_off_c, 5, 57, 100
7, 41472, Note_on_c, 5, 55, 127
7, 41532, Note_off_c, 5, 55, 100
7, 41664, Note_on_c, 5, 52, 127
7, 41724, Note_off_c, 5, 52, 100
7, 41856, Note_on_c, 5, 55, 127
7, 41916, Note_off_c, 5, 55, 100
7, 42048, Note_on_c, 5, 59, 127
7, 42108, Note_off_c, 5, 59, 100
7, 42240, Note_on_c, 5, 55, 127
7, 42300, Note_off_c, 5, 55, 100
7, 42432, Note_on_c, 5, 52, 127
7, 42492, Note_off_c, 5, 52, 100
7, 42624, Note_on_c, 5, 57, 127
7, 42684, Note_off_c, 5, 57, 100
7, 42816, Note_on_c, 5, 45, 127
7, 42876, Note_off_c, 5, 45, 100
7, 43008, Note_on_c, 5, 57, 127
7, 43068, Note_off_c, 5, 57, 100
7, 43200, Note_on_c, 5, 60, 127
7, 43260, Note_off_c, 5, 60, 100
7, 43392, Note_on_c, 5, 59, 127
7, 43452, Note_off_c, 5, 59, 100
7, 43584, Note_on_c, 5, 57, 127
7, 43644, Note_off_c, 5, 57, 100
7, 43776, Note_on_c, 5, 59, 127
7, 43836, Note_off_c, 5, 59, 100
7, 43968, Note_on_c, 5, 63, 127
7, 44028, Note_off_c, 5, 63, 100
7, 44160, Note_on_c, 5, 66, 127
7, 44220, Note_off_c, 5, 66, 100
7, 44352, Note_on_c, 5, 71, 127
7, 44412, Note_off_c, 5, 71, 100
7, 44544, Note_on_c, 5, 59, 127
7, 44604, Note_off_c, 5, 59, 100
7, 44736, Note_on_c, 5, 76, 127
7, 44828, Note_off_c, 5, 76, 100
7, 44832, Note_on_c, 5, 75, 127
7, 44924, Note_off_c, 5, 75, 100
7, 44928, Note_on_c, 5, 76, 127
7, 44988, Note_off_c, 5, 76, 100
7, 45120, Note_on_c, 5, 79, 127
7, 45180, Note_off_c, 5, 79, 100
7, 45312, Note_on_c, 5, 83, 127
7, 45372, Note_off_c, 5, 83, 100
7, 45504, Note_on_c, 5, 88, 127
7, 45596, Note_off_c, 5, 88, 100
7, 45600, Note_on_c, 5, 87, 127
7, 45692, Note_off_c, 5, 87, 100
7, 45696, Note_on_c, 5, 88, 127
7, 45756, Note_off_c, 5, 88, 100
7, 46176, Note_on_c, 5, 60, 127
7, 46220, Note_off_c, 5, 60, 100
7, 46224, Note_on_c, 5, 59, 127
7, 46268, Note_off_c, 5, 59, 100
7, 46272, Note_on_c, 5, 60, 127
7, 46332, Note_off_c, 5, 60, 100
7, 46560, Note_on_c, 5, 69, 127
7, 46604, Note_off_c, 5, 69, 100
7, 46608, Note_on_c, 5, 68, 127
7, 46652, Note_off_c, 5, 68, 100
7, 46656, Note_on_c, 5, 69, 127
7, 46716, Note_off_c, 5, 69, 100
7, 46944, Note_on_c, 5, 76, 127
7, 46988, Note_off_c, 5, 76, 100
7, 46992, Note_on_c, 5, 74, 127
7, 47036, Note_off_c, 5, 74, 100
7, 47040, Note_on_c, 5, 76, 127
7, 47100, Note_off_c, 5, 76, 100
7, 47328, Note_on_c, 5, 59, 127
7, 47372, Note_off_c, 5, 59, 100
7, 47376, Note_on_c, 5, 57, 127
7, 47420, Note_off_c, 5, 57, 100
7, 47424, Note_on_c, 5, 59, 127
7, 47484, Note_off_c, 5, 59, 100
7, 47712, Note_on_c, 5, 67, 127
7, 47756, Note_off_c, 5, 67, 100
7, 47760, Note_on_c, 5, 66, 127
7, 47804, Note_off_c, 5, 66, 100
7, 47808, Note_on_c, 5, 67, 127
7, 47868, Note_off_c, 5, 67, 100
7, 48096, Note_on_c, 5, 74, 127
7, 48140, Note_off_c, 5, 74, 100
7, 48144, Note_on_c, 5, 72, 127
7, 48188, Note_off_c, 5, 72, 100
7, 48192, Note_on_c, 5, 74, 127
7, 48252, Note_off_c, 5, 74, 100
7, 48480, Note_on_c, 5, 57, 127
7, 48524, Note_off_c, 5, 57, 100
7, 48528, Note_on_c, 5, 55, 127
7, 48572, Note_off_c, 5, 55, 100
7, 48576, Note_on_c, 5, 57, 127
7, 48636, Note_off_c, 5, 57, 100
7, 48864, Note_on_c, 5, 64, 127
7, 48908, Note_off_c, 5, 64, 100
7, 48912, Note_on_c, 5, 62, 127
7, 48956, Note_off_c, 5, 62, 100
7, 48960, Note_on_c, 5, 64, 127
7, 49020, Note_off_c, 5, 64, 100
7, 49248, Note_on_c, 5, 72, 127
7, 49292, Note_off_c, 5, 72, 100
7, 49296, Note_on_c, 5, 71, 127
7, 49340, Note_off_c, 5, 71, 100
7, 49344, Note_on_c, 5, 72, 127
7, 49404, Note_off_c, 5, 72, 100
7, 49632, Note_on_c, 5, 81, 127
7, 49676, Note_off_c, 5, 81, 100
7, 49680, Note_on_c, 5, 79, 127
7, 49724, Note_off_c, 5, 79, 100
7, 49728, Note_on_c, 5, 81, 127
7, 49756, Note_off_c, 5, 81, 100
7, 50016, Note_on_c, 5, 90, 127
7, 50060, Note_off_c, 5, 90, 100
7, 50064, Note_on_c, 5, 88, 127
7, 50108, Note_off_c, 5, 88, 100
7, 50112, Note_on_c, 5, 90, 127
7, 50140, Note_off_c, 5, 90, 100
7, 50400, Note_on_c, 5, 93, 127
7, 50444, Note_off_c, 5, 93, 100
7, 50448, Note_on_c, 5, 91, 127
7, 50492, Note_off_c, 5, 91, 100
7, 50496, Note_on_c, 5, 93, 127
7, 50524, Note_off_c, 5, 93, 100
7, 50736, Note_on_c, 5, 79, 127
7, 50780, Note_off_c, 5, 79, 100
7, 50784, Note_on_c, 5, 81, 127
7, 50828, Note_off_c, 5, 81, 100
7, 50832, Note_on_c, 5, 83, 127
7, 50876, Note_off_c, 5, 83, 100
7, 50880, Note_on_c, 5, 86, 127
7, 50924, Note_off_c, 5, 86, 100
7, 50928, Note_on_c, 5, 83, 127
7, 50972, Note_off_c, 5, 83, 100
7, 50976, Note_on_c, 5, 81, 127
7, 51020, Note_off_c, 5, 81, 100
7, 51024, Note_on_c, 5, 79, 127
7, 51056, Note_off_c, 5, 79, 100
7, 51120, Note_on_c, 5, 79, 127
7, 51164, Note_off_c, 5, 79, 100
7, 51168, Note_on_c, 5, 81, 127
7, 51212, Note_off_c, 5, 81, 100
7, 51216, Note_on_c, 5, 83, 127
7, 51260, Note_off_c, 5, 83, 100
7, 51264, Note_on_c, 5, 86, 127
7, 51308, Note_off_c, 5, 86, 100
7, 51312, Note_on_c, 5, 83, 127
7, 51356, Note_off_c, 5, 83, 100
7, 51360, Note_on_c, 5, 81, 127
7, 51404, Note_off_c, 5, 81, 100
7, 51408, Note_on_c, 5, 79, 127
7, 51440, Note_off_c, 5, 79, 100
7, 51504, Note_on_c, 5, 79, 127
7, 51548, Note_off_c, 5, 79, 100
7, 51552, Note_on_c, 5, 81, 127
7, 51596, Note_off_c, 5, 81, 100
7, 51600, Note_on_c, 5, 83, 127
7, 51644, Note_off_c, 5, 83, 100
7, 51648, Note_on_c, 5, 86, 127
7, 51692, Note_off_c, 5, 86, 100
7, 51696, Note_on_c, 5, 83, 127
7, 51740, Note_off_c, 5, 83, 100
7, 51744, Note_on_c, 5, 81, 127
7, 51788, Note_off_c, 5, 81, 100
7, 51792, Note_on_c, 5, 79, 127
7, 51824, Note_off_c, 5, 79, 100
7, 51840, Note_on_c, 5, 84, 127
7, 51900, Note_off_c, 5, 84, 100
7, 52224, Note_on_c, 5, 69, 127
7, 52284, Note_off_c, 5, 69, 100
7, 52608, Note_on_c, 5, 64, 127
7, 52668, Note_off_c, 5, 64, 100
7, 52992, Note_on_c, 5, 66, 127
7, 53020, Note_off_c, 5, 66, 100
7, 53088, Note_on_c, 5, 69, 127
7, 53132, Note_off_c, 5, 69, 100
7, 53136, Note_on_c, 5, 67, 127
7, 53180, Note_off_c, 5, 67, 100
7, 53184, Note_on_c, 5, 69, 127
7, 53212, Note_off_c, 5, 69, 100
7, 53280, Note_on_c, 5, 74, 127
7, 53324, Note_off_c, 5, 74, 100
7, 53328, Note_on_c, 5, 72, 127
7, 53372, Note_off_c, 5, 72, 100
7, 53376, Note_on_c, 5, 74, 127
7, 53404, Note_off_c, 5, 74, 100
7, 53472, Note_on_c, 5, 67, 127
7, 53516, Note_off_c, 5, 67, 100
7, 53520, Note_on_c, 5, 66, 127
7, 53564, Note_off_c, 5, 66, 100
7, 53568, Note_on_c, 5, 67, 127
7, 53596, Note_off_c, 5, 67, 100
7, 53664, Note_on_c, 5, 72, 127
7, 53708, Note_off_c, 5, 72, 100
7, 53712, Note_on_c, 5, 71, 127
7, 53756, Note_off_c, 5, 71, 100
7, 53760, Note_on_c, 5, 72, 127
7, 53788, Note_off_c, 5, 72, 100
7, 53856, Note_on_c, 5, 66, 127
7, 53900, Note_off_c, 5, 66, 100
7, 53904, Note_on_c, 5, 64, 127
7, 53948, Note_off_c, 5, 64, 100
7, 53952, Note_on_c, 5, 66, 127
7, 53980, Note_off_c, 5, 66, 100
7, 54048, Note_on_c, 5, 71, 127
7, 54092, Note_off_c, 5, 71, 100
7, 54096, Note_on_c, 5, 69, 127
7, 54140, Note_off_c, 5, 69, 100
7, 54144, Note_on_c, 5, 71, 127
7, 54172, Note_off_c, 5, 71, 100
7, 54240, Note_on_c, 5, 67, 127
7, 54332, Note_off_c, 5, 67, 100
7, 54336, Note_on_c, 5, 66, 127
7, 54428, Note_off_c, 5, 66, 100
7, 54432, Note_on_c, 5, 67, 127
7, 54496, Note_off_c, 5, 67, 100
7, 54528, Note_on_c, 5, 71, 127
7, 54572, Note_off_c, 5, 71, 100
7, 54576, Note_on_c, 5, 69, 127
7, 54620, Note_off_c, 5, 69, 100
7, 54624, Note_on_c, 5, 67, 127
7, 54652, Note_off_c, 5, 67, 100
7, 54720, Note_on_c, 5, 74, 127
7, 54764, Note_off_c, 5, 74, 100
7, 54768, Note_on_c, 5, 72, 127
7, 54812, Note_off_c, 5, 72, 100
7, 54816, Note_on_c, 5, 71, 127
7, 54844, Note_off_c, 5, 71, 100
7, 54912, Note_on_c, 5, 79, 127
7, 55100, Note_off_c, 5, 79, 100
7, 55100, End_track
8, 0, Start_track
8, 0, Title_t, "www.bruno-de-giusti.net"
8, 0, Control_c, 2, 0, 0
8, 0, Program_c, 2, 6
8, 0, Control_c, 2, 7, 127
8, 0, Control_c, 2, 10, 89
8, 0, Control_c, 2, 91, 127
8, 0, Control_c, 2, 93, 0
8, 0, Key_signature, 1, "major"
8, 0, End_track
9, 0, Start_track
9, 0, Title_t, "All rights reserved"
9, 0, Control_c, 3, 0, 0
9, 0, Program_c, 3, 6
9, 0, Control_c, 3, 7, 127
9, 0, Control_c, 3, 10, 80
9, 0, Control_c, 3, 91, 127
9, 0, Key_signature, 1, "major"
9, 0, End_track
10, 0, Start_track
10, 0, Title_t, "BWV 988"
10, 0, Control_c, 2, 0, 0
10, 0, Program_c, 2, 6
10, 0, Control_c, 2, 7, 127
10, 0, Control_c, 2, 10, 89
10, 0, Control_c, 2, 91, 127
10, 0, Control_c, 2, 93, 0
10, 0, Key_signature, 1, "major"
10, 0, End_track
11, 0, Start_track
11, 0, Title_t, "Johann Sebastian Bach"
11, 0, Control_c, 3, 0, 0
11, 0, Program_c, 3, 6
11, 0, Control_c, 3, 7, 127
11, 0, Control_c, 3, 10, 80
11, 0, Control_c, 3, 91, 127
11, 0, Key_signature, 1, "major"
11, 0, End_track
12, 0, Start_track
12, 0, Title_t, "Goldberg Variations"
12, 0, Control_c, 4, 0, 0
12, 0, Program_c, 4, 6
12, 0, Control_c, 4, 7, 127
12, 0, Control_c, 4, 10, 39
12, 0, Control_c, 4, 91, 127
12, 0, Key_signature, 1, "major"
12, 0, End_track
13, 0, Start_track
13, 0, Title_t, "BWV 988"
13, 0, Control_c, 5, 0, 0
13, 0, Program_c, 5, 6
13, 0, Control_c, 5, 7, 127
13, 0, Control_c, 5, 10, 42
13, 0, Control_c, 5, 91, 127
13, 0, Key_signature, 1, "major"
13, 0, End_track
14, 0, Start_track
14, 0, Title_t, "Johann Sebastian Bach"
14, 0, Control_c, 6, 0, 0
14, 0, Program_c, 6, 6
14, 0, Control_c, 6, 7, 127
14, 0, Control_c, 6, 10, 47
14, 0, Control_c, 6, 91, 127
14, 0, Key_signature, 1, "major"
14, 0, End_track
15, 0, Start_track
15, 0, Title_t, "Goldberg Variations"
15, 0, Control_c, 7, 0, 0
15, 0, Program_c, 7, 6
15, 0, Control_c, 7, 7, 127
15, 0, Control_c, 7, 10, 91
15, 0, Control_c, 7, 91, 127
15, 0, Key_signature, 1, "major"
15, 0, End_track
16, 0, Start_track
16, 0, Title_t, "BWV 988"
16, 0, Control_c, 8, 0, 0
16, 0, Program_c, 8, 6
16, 0, Control_c, 8, 7, 127
16, 0, Control_c, 8, 10, 67
16, 0, Control_c, 8, 91, 127
16, 0, Key_signature, 1, "major"
16, 0, End_track
17, 0, Start_track
17, 0, Title_t, "Bruno de Giusti"
17, 0, Control_c, 2, 0, 0
17, 0, Program_c, 2, 6
17, 0, Control_c, 2, 7, 127
17, 0, Control_c, 2, 10, 89
17, 0, Control_c, 2, 91, 127
17, 0, Control_c, 2, 93, 0
17, 0, Key_signature, 1, "major"
17, 0, End_track
18, 0, Start_track
18, 0, Title_t, "bdg@bruno-de-giusti.net"
18, 0, Control_c, 2, 0, 0
18, 0, Program_c, 2, 6
18, 0, Control_c, 2, 7, 127
18, 0, Control_c, 2, 10, 89
18, 0, Control_c, 2, 91, 127
18, 0, Control_c, 2, 93, 0
18, 0, Key_signature, 1, "major"
18, 0, End_track
19, 0, Start_track
19, 0, Title_t, "www.bruno-de-giusti.net"
19, 0, Control_c, 2, 0, 0
19, 0, Program_c, 2, 6
19, 0, Control_c, 2, 7, 127
19, 0, Control_c, 2, 10, 89
19, 0, Control_c, 2, 91, 127
19, 0, Control_c, 2, 93, 0
19, 0, Key_signature, 1, "major"
19, 0, End_track
20, 0, Start_track
20, 0, Title_t, "All rights reserved"
20, 0, Control_c, 2, 0, 0
20, 0, Program_c, 2, 6
20, 0, Control_c, 2, 7, 127
20, 0, Control_c, 2, 10, 89
20, 0, Control_c, 2, 91, 127
20, 0, Control_c, 2, 93, 0
20, 0, Key_signature, 1, "major"
20, 0, End_track
21, 0, Start_track
21, 1, Copyright_t, "___________________________________________________\012\012KUNSTDERFUGE.COM LARGE CLASSICAL MIDI COLLECTION\012ONCLASSICAL BY ALESSANDRO SIMONETTO, PROPRIETOR\012___________________________________________________\012\012! Attention: this file is under copyright !\012\012(c)onclassical, (c)degiusti, 2010\012___________________________________________________\012\012NO ONE MAY REPUBLISH THIS FILE WITHOUT PERMISSION\012COMMERCIAL USES OF THIS FILE IS STRICTLY PROHIBITED\012___________________________________________________\012\012Files & contributor's list: http://kunstderfuge.com/\012Terms and conditions: http://kunstderfuge.com/notes.htm"
21, 1, End_track
0, 0, End_of_file